<?xml version="1.0" standalone="no"?>
<!DOCTYPE svg PUBLIC "-//W3C//DTD SVG 20010904//EN"
 "http://www.w3.org/TR/2001/REC-SVG-20010904/DTD/svg10.dtd">
<svg version="1.0" xmlns="http://www.w3.org/2000/svg"
 width="1024.000000pt" height="1024.000000pt" viewBox="0 0 1024.000000 1024.000000"
 preserveAspectRatio="xMidYMid meet">
<metadata>
Created by potrace 1.10, written by Peter Selinger 2001-2011
</metadata>
<g transform="translate(0.000000,1024.000000) scale(0.100000,-0.100000)"
fill="#000000" stroke="none">
<path d="M3258 10113 c-64 -42 -69 -56 -41 -119 9 -22 20 -59 24 -84 4 -25 10
-52 14 -61 4 -12 -1 -18 -19 -23 -34 -8 -39 -30 -71 -336 l-28 -255 -90 -175
c-49 -96 -126 -239 -169 -317 -94 -169 -140 -278 -176 -421 -24 -97 -26 -125
-27 -297 0 -162 3 -206 23 -299 17 -76 22 -123 17 -156 -6 -45 -12 -53 -83
-113 -93 -79 -300 -288 -374 -377 -99 -120 -115 -144 -178 -269 l-62 -124 7
-67 7 -67 -30 -12 c-23 -10 -38 -30 -65 -89 -73 -156 -80 -242 -43 -520 20
-143 31 -192 51 -233 33 -65 106 -143 165 -177 119 -69 203 -148 252 -239 l27
-49 -35 -209 c-46 -284 -45 -418 7 -620 50 -194 144 -358 308 -536 40 -44 81
-106 122 -183 33 -64 59 -120 57 -125 -1 -5 -57 6 -123 25 -89 25 -185 41
-371 63 -290 34 -303 38 -424 146 -76 67 -153 109 -434 236 l-98 44 -67 97
c-75 111 -93 119 -135 64 -19 -26 -26 -46 -26 -81 0 -26 -10 -102 -21 -168
-25 -145 -23 -315 5 -382 10 -22 29 -89 43 -150 60 -262 246 -495 512 -642 36
-21 141 -88 233 -150 133 -91 215 -157 401 -327 l234 -212 -100 -13 c-346 -43
-817 -144 -1175 -252 -126 -37 -382 -101 -607 -150 -134 -29 -193 -52 -264
-104 -66 -48 -81 -77 -57 -104 14 -16 14 -21 -4 -56 -25 -50 -25 -117 0 -174
11 -24 20 -49 20 -55 0 -27 145 -136 181 -136 5 0 531 182 1169 405 756 264
1173 405 1197 405 21 -1 111 -11 200 -24 90 -12 167 -20 172 -17 5 4 12 18 16
31 9 38 -24 62 -145 106 -64 23 -164 72 -256 126 -141 83 -167 103 -403 316
-378 341 -400 359 -486 411 -44 27 -128 72 -186 99 -229 110 -374 260 -469
488 -68 165 -135 501 -128 651 l3 68 31 -75 c25 -62 35 -77 60 -85 16 -5 51
-25 78 -44 58 -40 128 -68 205 -83 53 -9 63 -17 181 -127 69 -64 140 -127 158
-140 68 -48 133 -61 391 -81 l246 -19 180 -61 c127 -44 195 -73 229 -98 48
-35 54 -37 223 -58 96 -12 183 -20 194 -17 14 4 19 14 19 38 0 29 -5 34 -43
49 -81 31 -212 120 -288 195 -77 78 -166 210 -195 290 -42 115 -65 153 -147
240 -142 149 -207 282 -228 467 -11 94 -10 110 22 314 42 266 45 403 10 492
-32 82 -102 170 -179 226 -97 70 -213 180 -244 232 -75 128 -93 295 -49 463
17 64 22 100 17 135 -10 71 -8 95 19 179 77 244 259 482 488 637 215 145 275
280 231 513 -28 147 -26 417 4 531 31 114 86 237 159 357 114 189 210 398 267
586 39 126 86 356 86 415 0 59 -22 129 -50 159 -11 12 -21 42 -25 75 -3 30
-11 81 -17 113 -14 76 3 100 22 30 17 -59 152 -372 187 -433 38 -64 254 -276
343 -335 41 -27 189 -110 329 -183 268 -140 397 -219 522 -320 81 -65 173
-122 249 -152 118 -48 121 -49 110 -68 -6 -9 -28 -60 -49 -112 l-39 -95 -16
39 c-9 21 -16 49 -16 62 0 76 -93 215 -173 259 -34 18 -35 18 -70 -4 -45 -28
-58 -78 -28 -119 11 -15 30 -53 44 -83 l24 -55 -67 -171 c-36 -93 -76 -183
-87 -199 -34 -47 -109 -203 -131 -274 -57 -175 -79 -360 -58 -474 31 -162 145
-340 292 -458 71 -57 68 -49 89 -251 14 -130 14 -140 -3 -175 -10 -20 -33 -99
-51 -175 l-33 -138 -36 46 c-26 32 -102 88 -264 192 l-227 148 -35 75 c-45
101 -72 190 -86 291 -43 308 -79 459 -149 632 -78 191 -188 377 -224 377 -5 0
-39 -21 -75 -46 l-67 -46 0 -297 c0 -329 -6 -394 -67 -761 -67 -405 -64 -626
13 -867 41 -128 95 -240 168 -350 86 -128 114 -217 115 -358 0 -60 -6 -130
-13 -155 -7 -25 -61 -182 -121 -350 -129 -362 -145 -431 -137 -584 8 -169 32
-245 113 -357 74 -104 129 -151 217 -187 123 -50 214 -39 383 46 l98 50 -81
25 c-89 29 -218 53 -333 63 -61 6 -79 12 -97 31 -13 13 -23 27 -23 31 0 4 -17
31 -37 61 l-38 55 2 135 c1 167 25 267 108 462 124 289 150 397 149 624 -1
133 -5 179 -26 271 -24 106 -29 119 -132 290 -103 170 -109 183 -122 263 -25
156 -36 376 -26 521 13 174 82 870 89 890 7 19 46 -177 79 -390 27 -177 49
-278 91 -404 23 -70 35 -89 101 -160 63 -67 92 -90 175 -133 100 -53 238 -146
277 -188 23 -25 51 -163 43 -212 -3 -16 -32 -118 -65 -228 -81 -270 -85 -287
-98 -389 -10 -80 -9 -90 7 -108 59 -65 87 -50 175 94 l73 121 8 -39 c8 -41 59
-114 81 -114 6 0 33 21 58 48 40 41 77 112 293 577 136 292 251 534 255 538 4
5 20 1 35 -9 25 -17 27 -16 48 4 19 20 20 23 5 34 -17 14 -29 68 -30 130 0 43
39 134 85 195 29 39 410 332 507 391 l35 20 3 -106 c3 -136 21 -240 72 -422
60 -211 72 -278 75 -442 l3 -147 71 -117 c53 -89 68 -121 59 -131 -6 -8 -8
-32 -4 -61 l6 -49 -42 -19 c-70 -31 -187 -112 -251 -172 -110 -105 -197 -238
-247 -379 -13 -35 -26 -63 -30 -63 -16 0 -20 -34 -9 -67 11 -34 18 -36 72 -24
23 5 43 32 115 153 81 135 94 152 166 208 43 35 107 74 146 89 147 60 264 165
325 292 19 41 35 79 35 86 0 6 4 14 9 17 13 8 60 -122 75 -210 13 -75 13 -87
-16 -254 -33 -199 -39 -386 -18 -530 10 -68 19 -92 43 -122 64 -80 108 -34
127 129 9 76 9 127 1 205 -12 111 -10 145 21 313 41 221 -8 460 -133 643 -34
49 -37 73 -24 160 6 37 4 47 -16 68 -35 37 -71 32 -103 -16 -18 -28 -33 -40
-50 -40 -35 0 -51 -34 -66 -132 -7 -49 -17 -88 -21 -88 -12 0 -47 54 -76 117
-25 54 -28 71 -34 238 -6 168 -8 186 -38 270 -86 243 -102 354 -122 869 -8
205 -14 283 -23 290 -7 6 -28 33 -46 59 -21 32 -37 47 -47 43 -8 -3 -21 -6
-29 -6 -12 0 -14 -42 -14 -259 l0 -259 -78 -41 c-137 -71 -261 -159 -364 -259
-98 -94 -101 -96 -94 -62 25 137 17 212 -33 329 -28 66 -28 67 -60 611 -18
299 -37 550 -42 556 -12 14 19 107 35 101 6 -2 258 -95 560 -206 302 -111 568
-212 590 -223 149 -75 287 -211 358 -352 17 -34 43 -115 59 -181 46 -198 154
-441 278 -623 79 -117 111 -180 111 -221 0 -31 -107 -442 -173 -666 -17 -58
-20 -98 -20 -230 0 -137 3 -171 23 -240 32 -113 34 -142 15 -252 -35 -209 -90
-397 -186 -639 -85 -213 -150 -461 -130 -492 12 -18 49 -19 72 -1 31 24 36 23
44 -1 9 -27 46 -26 73 2 11 13 44 75 72 138 28 63 57 121 64 130 7 8 28 49 48
90 48 102 180 296 276 405 44 50 167 169 273 266 107 97 268 244 359 327 91
83 166 149 168 147 2 -1 -16 -108 -39 -236 -51 -281 -53 -356 -16 -509 49
-197 45 -342 -13 -503 -35 -94 -57 -128 -196 -296 -96 -117 -112 -131 -139
-131 -82 0 -179 -60 -213 -132 -15 -32 -31 -44 -108 -82 -192 -93 -352 -206
-516 -364 -87 -85 -111 -114 -127 -157 -20 -52 -25 -135 -14 -217 7 -52 33
-40 33 14 0 35 6 46 42 79 24 22 46 39 49 39 3 0 23 25 43 55 53 80 139 154
314 271 244 163 588 292 878 330 l52 6 -29 -83 c-22 -61 -33 -117 -42 -212
l-11 -129 -81 -76 c-146 -138 -303 -232 -522 -313 -156 -57 -404 -182 -528
-266 -83 -56 -101 -73 -103 -96 -2 -18 4 -37 15 -49 18 -20 17 -21 -42 -75
-102 -92 -186 -158 -278 -218 -89 -58 -245 -135 -273 -135 -8 0 -29 -7 -45
-16 -29 -14 -30 -17 -16 -38 15 -23 15 -23 -461 -259 -515 -255 -545 -267
-694 -267 -101 0 -168 12 -256 47 -55 22 -66 24 -93 12 -27 -11 -30 -16 -26
-43 11 -68 24 -84 94 -119 137 -69 267 -90 393 -63 41 9 78 16 83 16 4 0 7
-28 7 -62 0 -92 108 -974 127 -1043 10 -33 30 -73 44 -90 15 -16 44 -49 64
-72 46 -53 107 -77 194 -77 82 0 142 25 200 85 84 88 105 179 59 260 -15 26
-41 108 -62 199 -47 197 -86 327 -141 462 -42 101 -78 218 -71 226 2 1 98 -59
212 -135 323 -213 653 -414 1011 -613 185 -103 196 -107 295 -125 62 -11 113
-25 127 -36 57 -45 215 -63 333 -38 173 37 257 142 245 309 -13 189 -116 288
-312 298 l-90 5 -235 113 c-129 63 -232 114 -229 114 4 0 419 -83 924 -185
l917 -185 329 0 328 0 32 46 c30 44 31 50 27 124 -3 56 -11 88 -26 114 -12 21
-22 38 -22 39 0 2 46 1 103 -1 120 -5 183 14 257 75 39 32 49 48 68 110 22 73
22 74 4 116 -20 46 -79 103 -115 112 -13 4 -96 88 -192 196 -119 133 -181 195
-210 209 -54 26 -115 36 -315 52 l-165 13 115 7 c63 4 136 12 163 18 26 7 68
9 96 5 44 -6 52 -4 82 23 19 16 55 41 80 56 26 14 105 87 177 160 114 117 133
140 146 187 24 79 4 125 -101 232 -46 46 -55 48 -112 21 -73 -33 -206 -122
-266 -176 l-51 -46 -359 13 -360 13 -765 -48 c-759 -47 -765 -47 -779 -28 -11
16 -21 19 -48 15 -29 -5 -34 -3 -29 10 4 9 -1 24 -10 34 -15 16 -12 18 43 24
75 8 82 11 320 126 280 135 494 252 708 390 71 46 101 73 145 131 l55 73 41
202 41 202 70 83 c80 94 118 118 237 143 106 23 241 92 295 150 53 57 55 98
10 150 -17 19 -36 35 -43 35 -6 0 -38 -16 -70 -36 -33 -19 -87 -46 -120 -60
-64 -25 -676 -187 -683 -181 -2 2 43 69 100 149 84 118 108 159 131 228 40
123 45 225 15 370 -21 101 -24 143 -24 340 0 124 6 275 13 335 26 212 93 506
132 570 10 17 20 54 23 84 4 47 1 58 -18 77 -31 31 -85 40 -123 20 -50 -26
-105 -98 -165 -219 l-58 -115 -390 -393 c-215 -217 -408 -414 -430 -439 l-38
-45 24 75 c54 172 53 367 -1 540 -22 72 -23 82 -14 255 11 237 39 370 115 544
61 141 70 178 70 291 0 146 -35 243 -133 371 -108 142 -153 233 -252 509 -52
146 -111 294 -130 329 -64 118 -234 278 -365 344 -85 42 -1047 404 -1095 412
-81 13 -269 75 -363 119 -151 70 -269 148 -405 268 -65 57 -192 121 -271 137
-152 32 -343 115 -493 217 -196 132 -389 370 -449 555 -27 85 -70 158 -127
219 l-47 50 -57 -37z m1880 -2185 c-9 -206 -9 -252 6 -351 9 -62 16 -143 16
-178 0 -35 9 -127 20 -204 24 -164 24 -188 8 -183 -43 13 -77 167 -85 378 l-6
165 -48 102 c-65 141 -65 141 -35 153 17 6 26 17 26 32 1 13 14 48 30 78 16
30 39 98 51 152 12 54 24 97 25 95 2 -1 -2 -109 -8 -239z m-254 -153 c15 -44
45 -111 67 -149 l39 -69 -15 -109 c-14 -105 -21 -402 -9 -443 5 -16 88 -88
210 -182 13 -10 14 -20 3 -74 -11 -56 -11 -63 6 -75 10 -7 23 -15 29 -17 6 -3
-110 -247 -274 -575 -156 -314 -285 -570 -287 -569 -10 11 57 209 109 327 117
259 156 419 165 670 9 254 14 238 -189 498 l-170 217 5 125 c6 137 35 271 81
375 15 33 64 124 109 203 l82 143 6 -108 c5 -77 15 -131 33 -188z m4856 -5258
c0 -18 -41 -64 -150 -170 -83 -81 -153 -147 -157 -147 -3 0 -15 -7 -25 -17
-17 -15 -34 -14 -256 11 l-237 27 -1070 -14 c-588 -8 -1071 -14 -1072 -13 -2
2 25 25 60 53 l62 50 297 -20 297 -21 984 51 984 51 134 90 c74 50 137 91 142
91 4 1 7 -10 7 -22z m-3256 -502 c33 -35 67 -45 161 -45 57 0 421 -51 1145
-160 584 -88 1080 -165 1103 -171 23 -6 79 -28 125 -50 84 -41 102 -56 305
-266 l51 -51 -185 38 c-101 21 -806 168 -1566 327 l-1382 288 45 46 c34 34 57
48 92 56 72 16 81 15 106 -12z m-3741 -28 l28 -22 -773 -283 c-425 -156 -836
-300 -913 -321 -77 -21 -198 -62 -270 -89 -71 -28 -130 -50 -132 -48 -2 2 6
23 17 47 40 88 20 179 -52 240 l-30 25 119 36 c771 236 979 293 1279 348 183
33 415 65 569 79 55 4 107 9 115 10 8 0 28 -9 43 -22z m5165 -4 c-10 -2 -26
-2 -35 0 -10 3 -2 5 17 5 19 0 27 -2 18 -5z m1044 -148 c216 -19 416 -37 445
-40 51 -6 53 -8 140 -108 133 -153 128 -146 106 -154 -10 -3 -48 -30 -85 -60
l-67 -53 -109 127 c-62 72 -126 137 -148 150 -24 13 -165 50 -354 93 -311 70
-342 78 -328 79 4 1 184 -15 400 -34z m-1365 -400 c840 -185 1529 -337 1531
-339 6 -6 -38 -86 -47 -86 -5 0 -649 144 -1432 321 -1222 275 -1428 319 -1455
310 -25 -9 -46 -6 -127 22 -53 17 -97 36 -97 40 -2 11 71 66 88 67 6 0 699
-151 1539 -335z m-1712 109 c31 -5 1504 -720 1522 -737 3 -3 -5 -20 -17 -37
-13 -18 -28 -51 -35 -73 -8 -26 -18 -41 -26 -39 -8 2 -138 60 -289 129 -271
125 -282 131 -792 451 -285 179 -518 328 -518 332 0 3 14 13 31 21 30 14 33
14 59 -12 15 -15 44 -31 65 -35z m-351 -95 l-28 -50 -13 26 c-8 14 -11 30 -7
36 5 9 58 37 72 39 2 0 -9 -23 -24 -51z m-4987 -10 c77 -29 99 -107 47 -168
-35 -42 -66 -41 -94 4 -28 45 -35 94 -20 139 12 38 22 42 67 25z m5000 -241
c-3 -8 -6 -5 -6 6 -1 11 2 17 5 13 3 -3 4 -12 1 -19z m3878 -146 c6 -4 21 -21
33 -39 l22 -32 -63 -35 c-35 -20 -68 -36 -74 -36 -5 0 -27 8 -48 19 l-38 18
44 48 c54 58 96 78 124 57z m-3761 -285 c42 -120 76 -220 76 -223 0 -2 -18 -4
-39 -4 -35 0 -40 3 -45 28 -3 15 -19 104 -36 197 -16 94 -33 184 -36 200 -12
59 5 17 80 -198z m2088 -79 c26 -40 26 -44 10 -61 -32 -36 -72 -49 -129 -45
-84 7 -87 19 -18 88 74 75 98 78 137 18z"/>
<path d="M6965 9612 c-11 -2 -48 -31 -82 -65 -54 -53 -63 -67 -63 -97 0 -23
-7 -42 -20 -53 -11 -9 -20 -25 -20 -35 0 -16 10 -20 61 -26 114 -11 121 -10
168 38 56 57 62 99 28 177 -26 58 -38 68 -72 61z m-53 -164 c-21 -21 -32 3
-14 30 l17 26 3 -23 c2 -13 -1 -28 -6 -33z"/>
<path d="M802 8836 c-56 -30 -76 -109 -52 -197 11 -41 28 -49 100 -49 55 0 93
23 131 79 23 35 26 46 19 77 -5 19 -16 45 -27 56 -39 44 -123 61 -171 34z"/>
<path d="M7917 8128 c-14 -18 -30 -43 -36 -56 -14 -27 -17 -150 -5 -161 5 -4
37 -20 71 -34 53 -24 65 -26 88 -15 24 11 25 15 20 50 -5 29 -3 39 8 44 19 7
47 75 47 114 0 52 -55 90 -130 90 -32 0 -43 -6 -63 -32z"/>
<path d="M9222 7960 c-13 -6 -45 -29 -73 -51 l-49 -42 0 -71 c0 -85 14 -111
68 -126 86 -24 177 3 207 61 24 46 24 139 -1 172 -36 48 -107 75 -152 57z m45
-132 c21 -20 22 -23 6 -40 -23 -25 -63 -24 -63 2 0 19 20 60 29 60 3 0 15 -10
28 -22z"/>
<path d="M1368 7637 c-61 -34 -70 -49 -82 -132 l-5 -40 93 -32 c108 -38 120
-39 162 -14 44 27 50 75 22 163 -21 65 -24 68 -57 73 -20 4 -45 8 -56 10 -11
2 -46 -11 -77 -28z m92 -98 c0 -19 -20 -49 -33 -49 -7 0 -18 5 -25 12 -9 9 -8
16 5 30 18 20 53 25 53 7z"/>
<path d="M277 7054 c-26 -20 -47 -42 -48 -48 0 -6 0 -58 1 -116 l2 -104 38
-39 c43 -42 82 -48 88 -12 2 11 28 45 57 75 80 81 97 132 73 212 -13 45 -26
52 -109 61 -53 7 -58 5 -102 -29z m109 -128 c-8 -19 -21 -32 -34 -34 -18 -3
-22 2 -22 24 0 39 27 66 50 52 16 -10 17 -16 6 -42z"/>
<path d="M8522 6843 c-18 -9 -52 -33 -77 -55 -39 -35 -45 -45 -45 -80 0 -51
28 -161 43 -170 7 -4 55 -8 108 -8 91 0 98 1 113 24 8 14 29 37 46 53 29 28
30 30 20 78 -6 28 -14 65 -18 84 -7 32 -12 36 -83 62 -71 26 -77 26 -107 12z
m78 -142 c0 -36 -23 -61 -56 -61 -22 0 -24 3 -18 28 15 60 74 86 74 33z"/>
<path d="M9164 5075 c-17 -7 -38 -25 -47 -38 -22 -34 -32 -128 -17 -171 13
-39 60 -79 82 -71 8 3 36 1 61 -5 38 -8 54 -7 87 6 36 15 42 22 56 72 28 96 5
170 -63 198 -51 22 -123 26 -159 9z m89 -115 c13 -1 -22 -30 -35 -30 -4 0 -8
9 -8 21 0 15 4 19 16 15 9 -3 21 -6 27 -6z"/>
<path d="M486 4777 c-59 -77 -76 -145 -56 -219 9 -32 16 -38 58 -51 26 -9 68
-18 95 -22 44 -6 48 -5 57 21 6 15 22 41 36 57 23 27 26 38 22 89 -5 68 -26
102 -84 135 -58 33 -97 30 -128 -10z m93 -129 c-4 -17 -6 -35 -3 -39 3 -5 1
-16 -4 -25 -7 -13 -11 -11 -27 12 -16 25 -16 29 -1 60 21 44 49 38 35 -8z"/>
<path d="M4543 4797 c-12 -6 -23 -19 -25 -29 -2 -10 -57 -55 -123 -101 -143
-99 -169 -130 -163 -204 5 -53 14 -70 118 -212 77 -104 110 -244 91 -384 -25
-184 -75 -313 -176 -452 -91 -126 -109 -171 -113 -295 -3 -90 -1 -113 19 -164
27 -74 93 -147 163 -181 119 -58 320 -71 418 -28 59 27 122 92 144 149 16 43
16 45 -1 58 -15 11 -29 9 -89 -12 -58 -21 -90 -26 -171 -26 -112 0 -175 19
-262 77 -48 32 -48 33 -47 87 1 65 22 109 99 211 148 197 222 427 213 668 -3
100 -3 102 15 79 116 -147 248 -255 402 -329 55 -27 105 -49 111 -49 29 0 53
-49 73 -150 19 -95 25 -108 59 -142 21 -22 66 -49 106 -65 86 -35 124 -77 132
-149 5 -43 -3 -75 -75 -283 -88 -252 -89 -261 -27 -261 98 0 236 165 281 336
43 166 -19 380 -126 435 -59 30 -127 96 -155 151 -13 26 -24 53 -24 60 0 29
-178 188 -300 269 -69 45 -151 105 -183 133 -66 57 -158 188 -211 300 -80 168
-125 402 -92 477 5 11 -1 19 -19 27 -30 14 -32 14 -62 -1z m-34 -266 c12 -57
21 -121 21 -143 l0 -39 -31 21 c-31 23 -71 78 -83 116 -4 14 5 41 31 86 21 36
39 65 39 64 1 0 11 -48 23 -105z"/>
<path d="M5954 4173 c-127 -125 -144 -146 -181 -223 -23 -47 -47 -110 -54
-140 -14 -61 -15 -218 -1 -265 8 -30 124 -134 150 -135 7 0 17 11 23 24 9 20
6 31 -25 78 -32 47 -37 64 -43 135 -3 48 -2 93 5 111 6 17 87 137 181 267 94
130 171 242 171 249 0 14 -41 36 -68 36 -10 0 -81 -62 -158 -137z"/>
<path d="M6219 4218 c-14 -12 -13 -37 7 -238 18 -186 34 -283 94 -565 40 -187
74 -376 77 -420 9 -151 -38 -290 -144 -426 -59 -76 -93 -133 -93 -158 0 -11 5
-9 23 6 12 11 33 24 47 28 43 12 119 65 150 105 39 49 83 156 101 245 9 45 14
134 14 250 0 209 -11 271 -85 500 -34 103 -63 226 -95 395 -56 299 -59 308
-96 278z"/>
<path d="M3366 1894 c-9 -8 -16 -21 -16 -27 0 -6 25 -53 56 -105 31 -51 54
-95 52 -96 -10 -8 -221 -118 -429 -224 -251 -127 -447 -237 -643 -358 -65 -41
-120 -73 -121 -72 -1 2 -10 30 -20 63 -21 74 -37 105 -76 149 -36 42 -57 28
201 134 259 107 446 177 734 277 296 102 312 118 160 169 l-74 25 -407 -134
c-225 -73 -455 -147 -511 -165 -57 -18 -152 -56 -210 -85 -59 -29 -120 -56
-136 -60 -17 -3 -44 -21 -61 -39 -17 -18 -50 -45 -73 -61 -32 -21 -42 -34 -42
-55 0 -15 -7 -63 -16 -106 -29 -139 -1 -247 86 -328 57 -54 149 -102 213 -111
51 -8 54 -20 7 -30 -54 -12 -120 -132 -120 -220 0 -63 28 -139 64 -173 39 -36
94 -52 185 -52 83 0 123 14 177 62 22 19 111 79 198 134 103 64 341 236 670
486 281 213 512 386 514 384 2 -2 -19 -60 -47 -127 -27 -68 -72 -187 -100
-264 -27 -77 -81 -221 -120 -320 -90 -228 -91 -244 -18 -318 89 -91 217 -134
332 -113 46 9 115 71 140 126 14 32 23 40 44 40 14 0 36 8 48 18 20 15 23 31
32 172 19 283 22 532 12 774 -6 132 -10 241 -8 242 1 1 34 0 73 -3 l70 -5 -4
-52 c-2 -32 2 -67 13 -96 9 -25 20 -63 25 -85 5 -22 34 -134 64 -249 31 -114
56 -230 56 -255 0 -30 9 -65 23 -93 l23 -46 -19 -39 c-25 -46 -34 -170 -18
-230 10 -35 21 -48 71 -81 84 -57 147 -76 230 -70 121 9 249 98 297 207 30 67
27 136 -10 216 -13 28 -35 77 -50 110 -15 33 -65 193 -112 355 -91 312 -121
383 -202 483 -75 92 -103 74 -103 -65 0 -97 27 -218 70 -320 29 -67 152 -440
147 -444 -1 -1 -34 -4 -73 -8 l-71 -7 -77 308 c-47 187 -92 343 -116 399 l-38
92 65 52 66 53 -54 33 c-40 25 -62 33 -84 30 -118 -19 -256 -28 -368 -24 -115
4 -143 8 -220 35 -105 37 -179 80 -257 151 -63 57 -71 60 -94 36z m328 -332
l69 -18 -139 -104 c-77 -57 -367 -281 -646 -497 -279 -216 -510 -393 -513
-393 -3 0 -5 8 -5 18 0 26 -43 113 -76 151 -16 19 -48 47 -71 61 l-43 28 197
110 c216 120 615 333 775 413 155 78 273 155 314 204 20 25 44 45 53 45 9 0
47 -8 85 -18z m178 -654 l-3 -388 -42 22 c-29 15 -61 22 -104 22 -35 1 -63 3
-64 6 0 3 48 168 108 367 59 198 108 360 108 360 0 -1 -1 -176 -3 -389z
m-1888 241 c22 -16 53 -48 68 -71 29 -43 35 -89 20 -173 -7 -36 -10 -40 -37
-40 -24 0 -44 15 -104 77 -81 85 -77 69 -51 200 12 56 12 57 38 47 14 -5 44
-23 66 -40z m251 -538 c22 -10 52 -30 67 -45 27 -28 28 -34 13 -112 -3 -12
-20 -31 -38 -44 -18 -13 -40 -35 -49 -50 -14 -24 -24 -29 -78 -35 -59 -7 -64
-6 -81 16 -33 44 -32 108 4 159 8 12 13 29 10 39 -3 10 6 35 19 55 19 30 29
36 58 36 19 0 53 -9 75 -19z m2510 -102 l36 -21 -18 -30 c-33 -54 -58 -62
-156 -48 -86 12 -87 12 -87 41 0 32 23 49 67 49 15 1 42 7 58 15 42 19 59 18
100 -6z m-980 -149 l29 0 -20 -20 c-18 -19 -25 -19 -101 -9 -65 10 -80 15 -76
27 5 12 19 13 72 8 36 -3 79 -6 96 -6z"/>
</g>
</svg>
