<?xml version="1.0" standalone="no"?>
<!DOCTYPE svg PUBLIC "-//W3C//DTD SVG 20010904//EN"
 "http://www.w3.org/TR/2001/REC-SVG-20010904/DTD/svg10.dtd">
<svg version="1.0" xmlns="http://www.w3.org/2000/svg"
 width="1024.000000pt" height="1024.000000pt" viewBox="0 0 1024.000000 1024.000000"
 preserveAspectRatio="xMidYMid meet">
<metadata>
Created by potrace 1.10, written by Peter Selinger 2001-2011
</metadata>
<g transform="translate(0.000000,1024.000000) scale(0.100000,-0.100000)"
fill="#000000" stroke="none">
<path d="M5043 9413 c-12 -2 -31 -19 -41 -36 -39 -64 -88 -379 -97 -618 -4
-85 -8 -164 -11 -177 -3 -17 -20 -30 -58 -47 -74 -33 -2419 -1662 -2429 -1687
-5 -13 -1 -34 10 -57 16 -32 23 -36 60 -39 37 -3 58 6 160 64 263 150 515 319
793 533 373 288 695 500 1025 676 60 32 188 117 283 187 96 71 176 127 177
126 2 -2 5 -364 6 -804 l4 -802 -111 -93 c-73 -62 -199 -149 -370 -257 -233
-147 -375 -252 -1399 -1026 -1135 -858 -1140 -862 -1145 -901 -11 -75 26 -128
63 -91 7 8 49 24 93 36 43 12 88 27 99 33 11 6 664 484 1451 1062 787 579
1439 1058 1450 1064 16 11 39 2 154 -57 153 -78 298 -137 447 -181 88 -26 179
-71 645 -324 699 -379 2213 -1167 2255 -1174 41 -7 60 8 73 58 14 52 -2 111
-43 154 -23 25 -315 184 -1012 551 -539 283 -1034 546 -1100 584 -315 178
-739 372 -1065 488 -47 17 -124 48 -171 70 l-86 40 -6 467 c-4 258 -7 634 -7
836 l0 368 33 -13 c17 -8 230 -84 472 -169 242 -85 480 -172 529 -192 272
-112 655 -244 1005 -345 113 -33 254 -80 312 -105 120 -51 171 -57 212 -25 31
24 51 81 43 116 -12 45 -320 180 -624 274 -145 44 -1493 507 -1515 520 -9 6
-108 42 -219 81 -134 47 -209 68 -225 64 -23 -5 -24 -4 -18 32 4 21 13 60 21
87 18 64 18 110 -2 151 -14 31 -14 42 7 152 12 65 24 132 26 149 8 50 -15 113
-59 160 -39 43 -48 46 -95 37z"/>
<path d="M5171 5143 c-21 -18 -72 -228 -181 -738 -52 -245 -135 -549 -215
-793 -97 -292 -261 -620 -468 -935 -233 -353 -334 -481 -572 -726 -156 -160
-302 -286 -478 -415 -119 -86 -334 -223 -417 -266 -53 -28 -194 -59 -266 -60
-113 0 -274 -80 -274 -135 0 -57 120 -135 206 -135 169 0 612 216 928 454 419
315 825 762 1121 1235 64 102 228 406 248 461 5 13 7 13 16 0 6 -8 11 -26 11
-38 0 -13 8 -36 19 -50 10 -15 30 -49 43 -77 28 -58 516 -681 654 -835 494
-551 1215 -968 2122 -1226 130 -37 231 -32 326 15 53 26 66 37 66 56 0 37 -10
55 -39 70 -15 7 -220 73 -457 145 l-429 132 -235 114 c-309 151 -545 280 -595
324 -22 20 -128 109 -235 197 -335 277 -547 503 -773 822 -174 244 -198 289
-252 476 -14 48 -29 71 -71 114 l-54 54 49 91 c88 164 219 655 301 1131 17 99
43 230 56 292 31 136 25 172 -36 227 -45 40 -85 47 -119 19z"/>
<path d="M6760 4428 c-52 -36 -69 -92 -69 -233 -1 -158 20 -291 68 -435 71
-213 142 -328 348 -570 138 -163 170 -193 243 -230 81 -42 260 -36 260 8 0 34
-49 118 -91 158 -24 22 -69 59 -100 82 -82 62 -237 225 -296 312 -131 195
-205 401 -232 650 -8 72 -7 88 6 102 8 9 18 38 21 63 5 50 -9 75 -60 101 -38
19 -60 18 -98 -8z"/>
<path d="M3681 4275 c-19 -14 -38 -26 -42 -27 -4 -2 -12 -46 -18 -98 -36 -298
-135 -573 -305 -843 -94 -149 -110 -188 -110 -269 0 -38 4 -72 9 -77 6 -5 36
4 72 21 61 29 63 32 219 251 175 245 212 316 284 535 101 309 100 413 -7 501
-45 37 -57 38 -102 6z"/>
<path d="M6236 3550 c8 -44 23 -84 29 -78 3 2 -4 29 -15 59 -14 39 -18 44 -14
19z"/>
</g>
</svg>
