<?xml version="1.0" standalone="no"?>
<!DOCTYPE svg PUBLIC "-//W3C//DTD SVG 20010904//EN"
 "http://www.w3.org/TR/2001/REC-SVG-20010904/DTD/svg10.dtd">
<svg version="1.0" xmlns="http://www.w3.org/2000/svg"
 width="1024.000000pt" height="1024.000000pt" viewBox="0 0 1024.000000 1024.000000"
 preserveAspectRatio="xMidYMid meet">
<metadata>
Created by potrace 1.10, written by Peter Selinger 2001-2011
</metadata>
<g transform="translate(0.000000,1024.000000) scale(0.100000,-0.100000)"
fill="#000000" stroke="none">
<path d="M4645 8452 l-98 -48 58 -49 c106 -90 142 -132 183 -214 67 -133 92
-291 92 -583 0 -176 0 -178 -22 -183 -75 -16 -949 -147 -1041 -155 -163 -14
-248 -12 -480 13 -115 13 -210 21 -211 18 -2 -3 10 -47 25 -98 28 -89 31 -94
91 -142 65 -53 259 -153 334 -173 39 -11 57 -9 171 20 120 29 1099 232 1122
232 8 0 11 -155 11 -519 l0 -519 -27 -6 c-16 -3 -424 -59 -908 -125 -595 -81
-967 -127 -1150 -142 l-270 -21 -245 29 c-135 17 -247 29 -249 26 -9 -7 43
-189 62 -217 25 -36 124 -109 180 -133 23 -10 80 -38 127 -63 83 -44 87 -45
175 -45 77 0 103 5 180 33 59 22 275 72 635 147 l545 114 28 -32 c77 -87 129
-223 147 -383 18 -158 -3 -888 -35 -1254 -38 -422 -173 -915 -332 -1207 -82
-152 -258 -387 -372 -498 -23 -21 -41 -45 -41 -52 0 -56 211 74 383 236 238
224 447 568 576 950 134 395 175 727 201 1596 9 303 18 429 36 521 6 33 -40
72 -151 125 -55 27 -97 49 -93 49 4 0 112 16 240 35 183 27 763 105 781 105 2
0 18 -20 35 -43 47 -67 98 -174 124 -262 l23 -80 3 -1273 c2 -907 -1 -1285 -9
-1314 -6 -23 -24 -55 -40 -71 -29 -29 -33 -30 -97 -24 -37 3 -107 20 -157 37
-49 17 -104 36 -121 42 -36 12 -84 4 -84 -15 0 -6 39 -57 86 -112 175 -204
319 -405 429 -599 15 -27 47 -69 71 -93 54 -54 92 -58 124 -13 45 64 106 266
131 435 8 56 14 532 20 1590 5 831 12 1560 17 1620 l9 110 -61 58 c-33 31 -54
57 -45 57 8 0 482 32 1052 70 721 49 1048 74 1071 84 39 16 63 46 77 99 14 51
-8 94 -80 157 -48 42 -74 56 -176 90 -73 24 -138 40 -165 39 -69 -1 -203 -24
-330 -58 -187 -50 -553 -105 -1252 -191 -362 -44 -667 -80 -678 -80 -20 0 -20
6 -20 520 l0 520 23 4 c12 3 328 28 702 56 374 28 699 56 722 62 61 15 98 58
98 115 0 42 -4 48 -65 106 -59 56 -76 66 -182 105 -139 50 -189 53 -294 17
-40 -14 -108 -32 -151 -40 -86 -17 -810 -125 -837 -125 -33 0 -16 475 25 667
22 101 22 101 2 134 -32 56 -94 94 -260 158 -119 47 -279 101 -299 101 0 0
-45 -22 -99 -48z"/>
<path d="M6447 4928 c-16 -12 -12 -19 35 -73 316 -363 623 -880 883 -1491 113
-264 157 -324 238 -324 114 0 177 115 177 325 0 279 -163 570 -535 954 -221
228 -353 342 -567 487 -108 74 -200 134 -205 134 -5 0 -17 -6 -26 -12z"/>
<path d="M2881 4786 c-10 -12 -5 -29 23 -83 19 -37 49 -116 66 -175 29 -101
31 -111 20 -165 -32 -152 -222 -583 -383 -863 -82 -144 -269 -424 -362 -544
-76 -98 -77 -99 -57 -118 19 -20 20 -20 68 5 66 34 244 188 383 332 245 255
450 526 646 855 38 63 90 144 116 180 100 138 102 187 12 298 -58 72 -232 210
-317 253 -66 33 -88 39 -141 39 -42 0 -66 -5 -74 -14z"/>
</g>
</svg>
