<?xml version="1.0" standalone="no"?>
<!DOCTYPE svg PUBLIC "-//W3C//DTD SVG 20010904//EN"
 "http://www.w3.org/TR/2001/REC-SVG-20010904/DTD/svg10.dtd">
<svg version="1.0" xmlns="http://www.w3.org/2000/svg"
 width="1024.000000pt" height="1024.000000pt" viewBox="0 0 1024.000000 1024.000000"
 preserveAspectRatio="xMidYMid meet">
<metadata>
Created by potrace 1.10, written by Peter Selinger 2001-2011
</metadata>
<g transform="translate(0.000000,1024.000000) scale(0.100000,-0.100000)"
fill="#000000" stroke="none">
<path d="M5829 9636 c-3 -3 -61 -17 -129 -31 -410 -87 -734 -198 -1095 -375
-208 -103 -249 -126 -660 -381 -326 -202 -399 -251 -530 -356 -204 -163 -493
-477 -510 -553 -12 -53 49 -119 100 -106 18 5 891 686 1016 792 14 12 15 6 12
-69 -4 -75 3 -114 86 -470 100 -429 152 -600 237 -773 102 -210 281 -456 430
-593 l65 -60 -118 -78 c-66 -44 -166 -100 -228 -126 -60 -27 -125 -55 -144
-65 -50 -25 -83 -74 -89 -133 -4 -42 -1 -54 18 -74 29 -31 68 -32 176 -5 101
25 172 62 366 188 86 56 158 102 160 102 3 0 3 -199 2 -442 l-3 -443 -96 -805
c-52 -443 -114 -958 -136 -1145 -22 -187 -54 -448 -70 -580 -43 -342 -43 -343
-27 -400 l15 -50 -79 -117 c-90 -133 -125 -219 -134 -330 -5 -65 5 -125 96
-583 55 -280 110 -546 121 -590 38 -151 120 -336 213 -479 28 -44 69 -114 92
-155 43 -82 87 -121 136 -121 52 0 117 47 120 87 1 10 -62 136 -139 279 -114
209 -145 274 -157 330 -16 78 -172 672 -211 801 -48 162 -52 367 -11 521 27
99 167 284 289 380 34 27 262 179 507 338 502 325 534 347 645 459 255 258
407 589 422 920 5 106 3 128 -16 184 -51 149 -268 545 -426 777 -45 66 -94
146 -108 178 -63 138 -198 331 -341 490 -55 60 -99 128 -193 295 -78 140 -145
245 -189 297 -37 45 -65 85 -63 90 3 7 505 422 645 534 17 14 143 117 280 229
257 212 388 336 501 475 166 207 342 513 415 726 30 88 33 104 32 215 -1 99
-6 135 -28 208 -81 270 -258 448 -536 540 -67 23 -102 26 -330 36 -140 6 -287
13 -326 16 -38 3 -72 3 -75 1z m621 -282 c172 -36 326 -150 397 -295 51 -104
52 -159 8 -379 l-37 -185 -188 -255 c-263 -356 -500 -609 -814 -871 -130 -108
-749 -569 -765 -569 -4 0 -68 62 -141 138 -155 158 -268 316 -354 495 -79 164
-109 256 -198 617 -76 309 -80 330 -79 434 1 123 -11 161 -65 217 l-35 36 178
101 c328 186 756 390 943 450 110 35 263 69 370 81 119 14 690 3 780 -15z
m-1169 -3156 c79 -157 227 -368 366 -524 44 -49 82 -96 85 -105 4 -9 40 -73
82 -144 42 -70 76 -136 76 -148 0 -11 10 -34 23 -51 13 -17 27 -39 30 -49 9
-23 169 -254 244 -350 119 -154 167 -289 167 -467 0 -102 -4 -125 -31 -205
-37 -108 -140 -312 -213 -421 -63 -94 -257 -290 -355 -359 -38 -27 -176 -103
-305 -170 -238 -122 -356 -194 -465 -284 -33 -28 -61 -46 -63 -42 -2 7 196
1828 243 2231 31 265 36 368 42 762 5 394 6 407 24 397 11 -5 33 -37 50 -71z"/>
</g>
</svg>
