<?xml version="1.0" standalone="no"?>
<!DOCTYPE svg PUBLIC "-//W3C//DTD SVG 20010904//EN"
 "http://www.w3.org/TR/2001/REC-SVG-20010904/DTD/svg10.dtd">
<svg version="1.0" xmlns="http://www.w3.org/2000/svg"
 width="1024.000000pt" height="1024.000000pt" viewBox="0 0 1024.000000 1024.000000"
 preserveAspectRatio="xMidYMid meet">
<metadata>
Created by potrace 1.10, written by Peter Selinger 2001-2011
</metadata>
<g transform="translate(0.000000,1024.000000) scale(0.100000,-0.100000)"
fill="#000000" stroke="none">
<path d="M4022 10200 c-161 -88 -248 -162 -281 -239 -13 -31 -47 -97 -77 -147
-59 -100 -233 -529 -261 -640 -22 -92 -22 -285 0 -377 9 -37 30 -101 46 -142
28 -72 28 -75 9 -75 -27 0 -85 -60 -93 -96 -3 -16 -10 -43 -15 -60 -6 -17 -10
-42 -10 -57 0 -14 -5 -38 -11 -53 -5 -16 -14 -71 -18 -123 -5 -53 -17 -123
-26 -156 -24 -80 -25 -219 -2 -315 18 -74 86 -270 96 -280 12 -10 40 -107 45
-157 3 -37 -1 -65 -15 -102 -10 -28 -19 -60 -19 -70 0 -11 -12 -33 -26 -50
-14 -17 -30 -47 -35 -66 -6 -20 -128 -235 -271 -478 -143 -243 -271 -469 -283
-502 -28 -75 -49 -206 -41 -258 18 -107 60 -131 261 -147 211 -16 201 -13 208
-61 6 -49 47 -103 104 -139 22 -14 55 -35 74 -47 50 -34 134 -48 189 -34 25 7
59 21 75 31 150 93 672 353 780 388 148 48 214 57 415 57 185 0 185 0 263 -32
43 -17 124 -59 180 -94 121 -74 240 -197 252 -262 4 -20 11 -40 16 -43 5 -3 7
-9 4 -14 -2 -4 0 -41 5 -81 12 -100 -5 -245 -39 -324 -33 -76 -153 -257 -189
-285 -15 -12 -82 -62 -150 -111 l-122 -89 -228 -56 c-355 -87 -354 -87 -571
-58 -203 27 -484 33 -552 13 -60 -19 -108 -65 -145 -143 -71 -148 -30 -272 96
-296 30 -5 69 -15 85 -22 44 -17 125 -71 125 -83 0 -12 360 -402 443 -479 70
-66 144 -113 231 -144 60 -22 90 -26 195 -28 104 -2 129 -6 150 -22 14 -10 46
-21 70 -25 24 -3 47 -9 52 -14 5 -5 12 -36 15 -70 l7 -61 -34 -7 c-19 -4 -54
-18 -78 -31 -30 -16 -54 -23 -71 -19 -67 15 -255 -81 -362 -185 l-78 -76 -72
8 c-63 8 -82 6 -138 -13 -113 -38 -187 -81 -295 -174 -33 -29 -306 -216 -606
-417 l-547 -366 -186 277 c-165 245 -201 292 -320 416 l-135 140 33 60 c52 94
102 227 146 392 44 167 47 200 25 244 -9 16 -12 35 -8 43 4 7 78 108 163 224
199 272 214 296 240 394 18 67 20 88 11 118 -15 49 -50 80 -112 96 -51 13 -51
13 -197 -42 -81 -30 -167 -67 -192 -81 -100 -58 -231 -162 -327 -262 -29 -30
-54 -53 -56 -50 -2 2 -27 37 -55 78 l-51 73 22 32 c12 18 96 134 187 259 209
287 211 290 208 349 -1 41 8 66 60 169 73 141 78 180 34 230 -42 47 -102 51
-167 10 l-50 -32 -9 28 c-5 15 -20 40 -34 55 -48 51 -62 43 -232 -129 -167
-169 -208 -219 -317 -383 -94 -141 -160 -261 -227 -406 -70 -153 -94 -243 -77
-289 8 -23 11 -114 11 -292 l-2 -258 56 -381 c35 -244 62 -399 75 -432 24 -59
67 -128 85 -135 9 -4 10 -26 4 -91 -8 -80 -1 -132 92 -763 73 -492 106 -690
120 -721 11 -23 20 -52 20 -63 0 -41 29 -78 71 -91 39 -11 43 -10 60 11 28 34
25 104 -7 171 -22 47 -39 142 -115 665 -68 464 -89 632 -87 700 2 101 -4 126
-38 172 -14 19 -20 34 -14 38 16 10 12 48 -7 75 -10 14 -26 48 -35 75 -19 54
-99 466 -123 635 -23 155 -31 468 -16 580 10 71 10 102 1 134 -11 40 -10 45
70 216 116 250 189 375 298 510 48 59 147 166 175 189 16 13 16 11 3 -26 -7
-21 -32 -68 -55 -103 -58 -89 -114 -209 -152 -326 -18 -55 -38 -108 -46 -119
-16 -24 -17 -56 -2 -89 9 -19 21 -26 48 -28 l36 -3 -58 -62 c-78 -86 -77 -102
11 -176 l68 -58 77 -232 c70 -212 80 -233 107 -249 36 -21 71 -11 95 25 17 27
17 27 -28 215 l-25 102 117 118 c123 126 212 189 341 243 72 31 220 72 228 65
11 -12 -16 -55 -79 -126 -38 -44 -69 -84 -69 -91 0 -6 -15 -32 -34 -58 -18
-25 -46 -71 -61 -101 -25 -50 -48 -81 -167 -226 -43 -51 -48 -88 -19 -126 19
-23 19 -25 -14 -190 -42 -209 -90 -336 -170 -456 -27 -41 -28 -46 -14 -70 9
-17 29 -31 52 -37 29 -8 44 -21 62 -53 13 -23 171 -247 351 -498 180 -251 336
-475 347 -498 11 -22 101 -160 200 -305 164 -241 188 -281 260 -444 52 -116
89 -184 103 -194 34 -22 79 -9 94 28 11 25 9 39 -15 107 -51 146 -133 298
-313 577 -133 207 -177 283 -169 293 7 9 4 19 -11 35 -11 12 -23 39 -27 60 -8
42 -11 43 -45 21 l-25 -16 22 20 c49 43 611 430 643 442 165 63 378 198 515
327 89 82 195 143 279 159 l39 7 -56 -68 c-104 -126 -129 -188 -211 -531 -41
-168 -79 -311 -85 -317 -6 -6 -11 -41 -11 -77 0 -45 -8 -90 -26 -141 -32 -95
-61 -381 -56 -556 l4 -122 34 -21 c29 -19 38 -20 69 -10 41 13 75 53 75 86 0
36 73 148 153 235 76 84 86 85 88 14 2 -66 10 -80 111 -188 l97 -105 -40 -28
c-64 -44 -154 -149 -188 -217 -102 -209 -151 -323 -151 -352 0 -44 34 -85 71
-85 23 0 36 10 63 48 19 26 42 72 51 102 32 104 88 198 197 330 106 128 132
152 176 165 16 5 22 2 22 -10 0 -25 28 -73 90 -156 85 -113 130 -234 141 -374
4 -60 8 -122 8 -137 1 -28 1 -28 71 -28 l70 0 0 31 c0 85 -23 331 -36 384 -21
85 -56 141 -158 250 -48 53 -87 97 -85 99 2 2 71 51 153 110 l149 107 86 -84
c47 -46 100 -94 118 -106 24 -16 31 -28 30 -48 -2 -20 7 -33 40 -57 23 -17 42
-39 42 -49 1 -10 12 -29 26 -42 20 -21 34 -25 81 -25 93 0 145 45 188 165 47
127 140 244 252 315 44 28 69 52 81 77 15 31 150 134 812 619 758 555 804 591
1028 793 170 155 241 226 261 262 27 48 27 49 77 49 28 0 56 -5 61 -10 8 -8 3
-36 -13 -93 -30 -101 -42 -274 -23 -333 22 -67 55 -101 138 -139 42 -20 94
-49 114 -66 21 -16 88 -50 150 -75 138 -55 214 -97 296 -162 71 -57 123 -73
153 -46 50 45 -4 138 -118 206 -116 68 -263 140 -398 193 -93 36 -129 56 -157
85 l-38 39 0 93 c0 60 7 120 20 168 26 98 25 153 -1 200 -21 38 -71 72 -121
84 -22 5 -28 13 -33 44 -14 86 -30 128 -65 167 -115 127 -122 140 -237 467
-118 337 -136 372 -217 409 -57 26 -155 26 -183 -1 -12 -10 -24 -28 -28 -40
-4 -12 -15 -20 -29 -20 -13 0 -40 -7 -61 -16 -35 -14 -57 -14 -102 3 -16 6
-16 5 -4 -11 12 -15 12 -19 -2 -34 -10 -9 -17 -12 -17 -7 -1 6 -5 30 -9 54 -6
28 -4 87 4 160 8 64 16 137 18 162 5 45 12 62 66 142 25 39 99 97 123 97 7 0
63 73 123 162 292 431 285 419 285 460 0 22 -4 47 -10 57 -7 14 0 38 30 100
57 118 110 197 286 423 125 160 199 271 383 571 242 395 273 457 337 679 48
170 73 295 85 440 l10 126 -96 634 c-99 660 -118 758 -180 923 -55 147 -109
246 -258 473 -110 168 -145 213 -206 267 -41 36 -79 65 -85 65 -22 0 -77 -41
-88 -66 -11 -24 -9 -29 15 -50 16 -13 35 -24 42 -24 8 0 99 -127 203 -282
l188 -283 47 -150 c61 -196 168 -722 213 -1054 18 -139 32 -256 30 -260 -2 -3
2 -69 9 -146 11 -138 11 -143 -21 -345 -22 -140 -44 -240 -68 -315 -44 -130
-186 -422 -253 -518 -174 -249 -647 -906 -650 -903 -2 2 8 30 23 62 36 80 37
134 3 171 -14 15 -31 47 -38 70 -6 24 -24 52 -41 67 l-31 25 45 58 c78 101
305 479 317 529 16 61 6 210 -21 316 -48 188 -149 329 -284 392 -76 36 -152
56 -216 56 -33 0 -40 4 -40 19 0 11 -16 38 -36 62 -19 23 -45 61 -56 83 -24
47 -25 47 67 -31 66 -57 102 -57 131 -1 14 27 14 32 -1 54 -8 13 -25 30 -36
37 -11 6 -32 34 -46 62 -40 78 -111 338 -122 451 -6 55 -20 138 -31 185 -54
222 -74 509 -51 731 13 128 5 170 -41 208 -36 30 -61 25 -79 -18 -14 -31 -17
-84 -19 -343 l-1 -306 81 -439 c45 -241 86 -447 92 -457 5 -10 8 -21 5 -23 -5
-6 -72 141 -110 241 -52 141 -97 299 -97 344 0 75 -66 177 -101 155 -10 -6
-18 1 -64 67 -36 51 -54 203 -62 517 -5 217 -4 255 9 270 46 52 43 89 -12 117
-43 22 -73 18 -102 -12 -26 -29 -29 -41 -52 -278 -7 -73 14 -398 33 -530 19
-124 61 -252 99 -298 11 -13 71 -308 87 -432 17 -126 82 -315 118 -340 26 -18
77 -20 101 -2 19 14 23 38 13 82 -5 19 5 7 27 -34 19 -35 58 -89 85 -121 l50
-58 -78 -52 c-44 -28 -82 -58 -85 -66 -3 -8 -10 -14 -15 -14 -14 0 -135 168
-169 236 -114 228 -202 523 -202 679 0 71 -2 79 -29 106 -39 38 -73 38 -102
-2 -20 -28 -21 -38 -16 -142 l6 -112 -19 60 c-44 134 -90 406 -90 531 0 31 7
54 20 71 41 52 18 104 -54 124 -75 21 -96 -14 -105 -181 l-6 -115 -34 85 c-81
205 -77 429 11 604 33 67 30 91 -16 115 -24 13 -29 13 -54 -6 -49 -35 -101
-123 -123 -208 -18 -64 -22 -109 -22 -225 0 -129 2 -155 27 -235 58 -193 137
-317 219 -344 22 -8 37 -20 41 -34 6 -23 171 -665 187 -730 12 -48 57 -99 107
-121 35 -16 42 -16 74 -3 l34 14 29 -51 c16 -28 61 -84 101 -125 71 -72 73
-74 113 -68 41 5 41 5 41 -27 0 -38 15 -56 48 -56 45 0 84 31 103 81 17 44
117 91 205 97 141 9 220 -42 309 -198 47 -85 59 -115 75 -202 11 -57 20 -116
19 -133 0 -17 -38 -104 -87 -202 l-87 -172 -220 -246 c-165 -185 -239 -260
-295 -300 -103 -73 -150 -118 -150 -145 0 -20 3 -22 33 -16 52 12 120 12 145
2 21 -9 38 5 189 155 91 90 163 157 160 149 -3 -8 -18 -65 -33 -127 l-28 -111
-30 23 c-37 27 -60 26 -109 -4 -58 -35 -63 -44 -77 -124 -11 -68 -14 -73 -35
-69 -12 2 -37 -4 -54 -13 -26 -13 -31 -20 -25 -38 6 -20 5 -21 -12 -7 -10 7
-38 32 -61 53 l-42 40 -27 -20 -27 -20 -1 -139 c-1 -124 -4 -147 -28 -209
-111 -296 -142 -420 -155 -606 -5 -88 -9 -102 -25 -107 -11 -2 -190 -142 -398
-311 l-379 -306 -275 -143 -275 -142 -257 -62 -257 -61 -99 13 c-79 11 -101
11 -107 1 -6 -10 -28 -10 -98 -2 -71 7 -101 16 -139 39 -27 16 -116 64 -199
107 -82 42 -174 96 -203 119 -29 22 -69 53 -89 69 -20 15 -66 74 -102 130 -36
57 -76 116 -88 131 -13 16 -23 35 -23 42 0 18 -16 18 -23 0 -5 -12 -21 -7 -80
24 -41 21 -99 43 -130 50 -32 6 -58 17 -61 26 -7 19 13 58 61 112 l38 43 186
-15 c102 -9 225 -22 274 -31 124 -21 207 -19 342 10 65 14 162 33 216 41 279
43 476 141 644 318 114 121 170 216 233 396 l51 145 -6 105 c-15 235 -55 322
-222 478 -124 116 -197 165 -313 211 -129 50 -223 64 -394 58 -136 -4 -167 -9
-305 -46 -219 -58 -315 -100 -649 -281 -290 -158 -348 -181 -367 -149 -4 5
-17 14 -30 19 -32 12 -76 91 -96 170 l-17 65 -78 2 c-106 3 -324 24 -351 34
-38 14 -30 68 32 208 48 111 164 318 220 396 12 17 55 89 95 160 40 72 81 139
91 150 10 11 47 83 84 160 36 77 72 146 79 155 7 8 27 53 45 100 31 79 33 91
29 180 -4 75 -12 117 -41 202 -20 59 -53 169 -73 245 -32 121 -36 148 -31 218
6 95 69 399 98 472 l21 52 41 -15 c23 -8 52 -12 65 -9 27 7 62 60 62 96 0 30
-34 65 -72 74 -23 6 -31 19 -58 93 -29 80 -32 98 -33 222 -2 152 17 259 80
454 52 161 92 251 161 357 34 52 68 111 76 131 28 65 170 170 299 219 66 25
127 85 127 124 0 25 0 25 -97 25 -95 0 -100 -1 -171 -40z m2915 -2762 c-3 -8
-6 -5 -6 6 -1 11 2 17 5 13 3 -3 4 -12 1 -19z m404 -2228 c-9 -22 -10 -20 -10
21 -1 25 2 49 7 53 11 12 14 -47 3 -74z m-5257 -522 c-4 -7 -33 -56 -65 -109
-45 -74 -59 -105 -59 -135 0 -34 -11 -53 -83 -144 -46 -58 -89 -115 -95 -125
-11 -19 -11 -18 -12 5 0 43 169 348 244 438 63 76 87 100 70 70z m5056 -398
c0 -11 -5 -20 -11 -20 -9 0 -10 -29 -6 -102 4 -78 12 -125 36 -193 17 -49 46
-136 65 -192 19 -58 52 -127 75 -161 l40 -60 -107 -89 c-267 -224 -431 -326
-892 -557 -212 -106 -452 -224 -533 -261 -81 -37 -180 -85 -220 -107 -40 -22
-80 -41 -89 -43 -32 -7 -180 -88 -239 -132 -33 -24 -61 -43 -63 -43 -3 0 -1
12 3 28 13 49 -6 598 -25 700 -12 60 -14 96 -8 102 6 6 80 28 165 49 359 91
555 184 942 444 149 101 288 192 307 202 19 10 128 105 242 212 159 148 213
193 233 193 34 0 65 17 65 35 0 8 5 15 10 15 6 0 10 -9 10 -20z m633 -537 c71
-154 90 -207 101 -275 11 -65 24 -102 60 -167 57 -103 95 -149 123 -150 17 -1
26 -14 46 -76 25 -74 25 -75 9 -133 l-17 -59 -245 -210 c-194 -166 -408 -329
-1030 -789 -432 -318 -805 -592 -830 -608 -25 -16 -54 -41 -65 -55 -11 -14
-59 -64 -108 -110 -91 -88 -163 -184 -193 -261 -9 -25 -18 -46 -20 -48 -6 -9
-176 107 -222 152 -86 83 -126 144 -173 266 -51 133 -97 209 -161 265 -50 45
-133 89 -188 100 -19 4 -68 20 -108 36 -67 27 -75 28 -100 15 -38 -21 -485
-455 -550 -535 -87 -106 -85 -105 -77 -36 4 33 20 88 36 122 33 71 34 81 15
109 -13 19 -10 41 29 210 24 104 62 278 85 386 39 184 93 352 103 318 35 -125
53 -162 152 -317 124 -193 138 -210 183 -229 28 -13 36 -12 67 3 18 10 102 81
186 158 390 359 675 559 965 675 157 63 629 295 814 400 52 29 241 155 420
278 l325 225 109 125 c98 112 111 132 128 191 20 69 19 94 -6 174 l-15 48 32
-3 c31 -3 34 -8 120 -195z m-269 101 c14 -36 4 -79 -30 -136 -20 -33 -40 -56
-44 -51 -9 10 -62 145 -58 148 10 9 105 54 114 55 7 0 15 -7 18 -16z m-2754
-2379 c8 -7 31 -21 50 -30 53 -27 228 -203 256 -257 29 -57 29 -57 6 -51 -14
3 -41 -20 -103 -88 -81 -89 -88 -94 -208 -151 l-125 -59 -88 88 -89 88 3 87
c3 78 1 90 -18 109 l-21 21 136 134 c118 116 139 133 161 128 14 -3 32 -11 40
-19z"/>
<path d="M4417 9840 c-47 -37 -109 -245 -127 -429 -9 -91 -8 -147 9 -349 12
-132 25 -311 31 -398 5 -88 18 -206 30 -264 11 -58 20 -107 20 -110 -1 -10
-33 55 -61 122 -43 105 -57 176 -113 588 l-53 385 23 45 c30 57 30 80 -1 114
-31 33 -52 33 -102 -3 -38 -28 -40 -31 -52 -116 -17 -111 -14 -133 70 -594 81
-441 109 -535 202 -670 49 -71 62 -81 112 -81 43 0 45 -1 65 -47 31 -70 56
-93 102 -93 52 0 78 15 78 45 0 13 -20 63 -44 112 -25 48 -54 116 -65 150 -26
79 -51 220 -51 293 0 77 -17 245 -42 420 -37 264 -14 631 48 737 34 59 32 104
-7 137 -37 31 -39 31 -72 6z"/>
<path d="M3863 9740 c-40 -24 -75 -71 -113 -151 -84 -181 -90 -525 -16 -918
46 -243 95 -352 201 -450 54 -50 107 -56 143 -18 40 42 24 92 -38 115 -20 8
-38 39 -88 152 -59 135 -64 152 -92 324 -16 99 -32 215 -36 256 -13 155 36
430 96 537 49 87 52 98 29 127 -33 42 -51 47 -86 26z"/>
<path d="M4924 9620 c-26 -10 -71 -109 -80 -177 -8 -66 13 -852 27 -988 14
-139 54 -320 98 -452 l38 -111 -33 16 c-30 14 -39 30 -94 166 -54 137 -67 183
-129 481 -85 405 -95 485 -89 725 l6 186 36 36 c20 20 36 41 36 48 0 6 -14 25
-30 42 -34 33 -63 33 -109 0 -49 -36 -91 -216 -91 -389 0 -111 7 -154 110
-666 60 -301 118 -567 128 -590 11 -24 36 -60 56 -80 l37 -37 -63 0 c-35 1
-174 7 -310 14 -244 14 -248 14 -354 -9 -135 -28 -141 -34 -142 -145 0 -74 2
-81 25 -100 14 -11 38 -20 53 -20 15 0 35 -9 45 -20 15 -16 31 -21 74 -21 31
0 141 -2 244 -5 164 -4 192 -7 220 -24 28 -17 51 -20 181 -20 132 0 152 2 170
19 21 18 24 18 191 -20 94 -21 196 -45 228 -55 49 -15 65 -16 105 -5 26 6 61
9 78 5 22 -4 40 -1 58 11 26 18 27 17 43 -6 41 -62 173 -178 243 -213 40 -20
80 -36 90 -36 19 0 57 38 60 60 5 32 -3 41 -96 106 -89 62 -102 76 -164 170
-103 156 -195 406 -249 675 -23 114 -111 806 -111 873 0 23 9 59 22 82 26 50
20 84 -22 114 -26 19 -33 20 -57 8 -43 -21 -86 -100 -91 -166 -4 -64 143
-1036 178 -1171 23 -90 85 -272 107 -315 l15 -29 -33 19 c-19 11 -110 46 -204
78 -93 32 -173 62 -177 65 -14 12 -96 316 -128 471 -31 152 -33 168 -55 720
-12 311 -19 570 -15 575 24 32 10 87 -26 103 -14 7 -26 12 -27 11 -1 0 -11 -4
-23 -9z m116 -1817 c0 -16 -26 -17 -35 -3 -4 6 -1 18 6 26 10 12 14 12 20 2 5
-7 9 -19 9 -25z"/>
<path d="M6053 9208 c-63 -70 -70 -149 -33 -387 26 -176 63 -316 155 -604 111
-344 166 -467 295 -661 88 -131 138 -186 171 -186 35 0 69 27 69 55 0 13 -37
81 -81 152 -45 70 -104 169 -130 218 -138 259 -253 610 -324 990 -23 121 -25
155 -20 252 6 104 5 115 -14 147 -19 31 -39 46 -60 46 -4 0 -17 -10 -28 -22z"/>
<path d="M7629 9223 c-22 -5 -36 -39 -50 -117 -9 -52 -6 -134 14 -438 28 -413
27 -393 30 -674 2 -183 4 -204 21 -223 11 -12 29 -21 41 -21 18 0 26 -13 49
-82 38 -117 112 -263 148 -293 33 -28 54 -31 93 -13 34 15 32 41 -10 134 -20
43 -71 199 -115 348 l-79 271 -22 335 c-12 184 -22 419 -23 522 -1 184 -1 187
-26 213 -30 32 -50 43 -71 38z"/>
<path d="M8036 9124 c-9 -8 -19 -27 -22 -41 -4 -13 15 -288 41 -610 38 -483
44 -587 33 -595 -7 -5 -20 -13 -28 -17 -12 -8 -11 -22 8 -103 12 -51 38 -187
58 -303 33 -199 37 -211 65 -237 36 -34 69 -35 105 -4 l28 23 -23 82 c-50 185
-69 397 -92 1031 -11 327 -25 620 -31 650 -8 44 -19 63 -53 98 -46 45 -65 51
-89 26z"/>
<path d="M5778 8968 l-33 -53 -3 -163 c-5 -252 25 -422 134 -747 59 -179 154
-413 196 -484 43 -73 194 -226 242 -246 58 -24 112 -23 138 2 32 32 15 59 -81
132 -95 73 -168 159 -215 256 -47 96 -172 446 -207 580 -37 144 -57 268 -69
442 -11 142 -11 143 15 197 28 60 24 91 -17 120 -41 29 -63 20 -100 -36z"/>
<path d="M4789 7306 c-2 -3 -117 -28 -254 -56 -138 -29 -266 -61 -286 -71 -69
-34 -119 -111 -104 -158 10 -32 99 -17 235 40 156 65 332 94 575 94 150 0 179
-3 245 -23 91 -29 211 -89 273 -136 56 -43 93 -46 131 -11 46 42 36 65 -64
147 -139 115 -358 178 -615 178 -72 0 -134 -2 -136 -4z"/>
<path d="M7611 6719 c-32 -21 -33 -24 -28 -73 6 -63 43 -101 89 -92 29 6 29 5
23 -27 -31 -158 -95 -276 -217 -403 -72 -76 -81 -101 -52 -142 36 -51 102 -16
216 113 119 135 188 303 191 467 2 63 -2 81 -19 104 -52 71 -140 94 -203 53z"/>
<path d="M3505 6135 c-189 -100 -242 -160 -180 -201 40 -26 98 -11 216 57 102
58 105 60 164 55 33 -3 72 -8 86 -11 19 -5 33 0 58 21 44 37 40 76 -12 118
-35 28 -47 31 -115 33 l-77 3 -140 -75z"/>
<path d="M5817 5294 c-4 -4 -7 -14 -7 -23 0 -11 3 -12 11 -4 6 6 10 16 7 23
-2 6 -7 8 -11 4z"/>
<path d="M3934 228 c-59 -95 -110 -185 -112 -201 l-4 -27 85 0 c85 0 85 0 95
29 9 26 7 31 -20 51 -28 20 -29 26 -26 73 3 35 20 84 51 150 25 53 45 97 43
97 -2 0 -52 -78 -112 -172z"/>
</g>
</svg>
