<?xml version="1.0" standalone="no"?>
<!DOCTYPE svg PUBLIC "-//W3C//DTD SVG 20010904//EN"
 "http://www.w3.org/TR/2001/REC-SVG-20010904/DTD/svg10.dtd">
<svg version="1.0" xmlns="http://www.w3.org/2000/svg"
 width="1024.000000pt" height="1024.000000pt" viewBox="0 0 1024.000000 1024.000000"
 preserveAspectRatio="xMidYMid meet">
<metadata>
Created by potrace 1.10, written by Peter Selinger 2001-2011
</metadata>
<g transform="translate(0.000000,1024.000000) scale(0.100000,-0.100000)"
fill="#000000" stroke="none">
<path d="M4544 8081 c-12 -5 -24 -14 -27 -18 -3 -5 14 -43 39 -84 113 -190
111 -308 -17 -719 -135 -434 -365 -957 -630 -1432 -55 -98 -99 -182 -99 -187
0 -11 32 -31 49 -31 22 0 167 149 266 272 56 71 149 193 206 273 l103 144 31
-23 c74 -56 124 -85 182 -105 110 -37 136 -32 401 75 216 88 278 108 707 225
258 71 477 131 485 134 8 2 28 -7 44 -19 l29 -24 -278 -422 -279 -423 24 -19
c13 -10 29 -18 36 -16 11 3 435 347 518 421 90 79 277 193 407 246 79 33 119
65 121 97 1 11 -43 93 -96 184 -88 149 -108 176 -209 278 -61 61 -118 112
-126 112 -17 0 -252 -85 -291 -105 -62 -32 -359 -148 -528 -205 -255 -88 -384
-124 -674 -190 l-258 -58 -57 15 c-32 8 -59 16 -61 18 -2 2 7 20 21 42 81 129
277 511 362 706 25 59 73 151 105 203 117 187 109 264 -44 414 -163 159 -373
259 -462 221z"/>
<path d="M4545 5844 c-22 -15 -44 -30 -48 -34 -4 -4 19 -25 51 -48 77 -54 170
-155 195 -211 65 -147 -73 -764 -299 -1341 -138 -351 -330 -696 -553 -992
-183 -245 -388 -432 -668 -611 -62 -40 -113 -77 -113 -83 0 -6 7 -17 16 -25
24 -20 145 19 313 103 429 212 746 524 1053 1038 178 298 308 578 444 963 27
75 51 137 54 137 8 0 295 -443 431 -665 411 -673 878 -1363 1011 -1497 46 -47
48 -48 110 -48 35 0 115 5 178 10 63 6 224 19 357 29 242 19 304 32 317 66 6
17 -54 67 -149 125 -283 173 -601 420 -767 594 -48 50 -390 426 -761 835
l-674 744 29 91 c50 158 88 318 94 396 6 64 4 82 -14 115 -52 100 -250 233
-460 309 -91 32 -98 32 -147 0z"/>
</g>
</svg>
