<?xml version="1.0" standalone="no"?>
<!DOCTYPE svg PUBLIC "-//W3C//DTD SVG 20010904//EN"
 "http://www.w3.org/TR/2001/REC-SVG-20010904/DTD/svg10.dtd">
<svg version="1.0" xmlns="http://www.w3.org/2000/svg"
 width="1024.000000pt" height="1024.000000pt" viewBox="0 0 1024.000000 1024.000000"
 preserveAspectRatio="xMidYMid meet">
<metadata>
Created by potrace 1.10, written by Peter Selinger 2001-2011
</metadata>
<g transform="translate(0.000000,1024.000000) scale(0.100000,-0.100000)"
fill="#000000" stroke="none">
<path d="M4679 9055 c-130 -29 -274 -65 -320 -80 -322 -106 -592 -265 -849
-500 -199 -182 -349 -374 -473 -605 -49 -92 -389 -964 -417 -1070 -14 -53 -20
-65 -36 -63 -10 1 -108 13 -216 28 l-198 27 -50 -29 c-80 -46 -601 -699 -632
-793 -8 -22 10 -50 38 -60 29 -11 29 18 3 -356 -11 -167 -30 -480 -43 -696
l-22 -393 68 -940 c67 -921 69 -946 118 -1250 60 -376 134 -680 179 -735 18
-22 38 -36 57 -38 15 -2 47 -17 70 -34 89 -64 178 -76 2596 -353 1225 -140
2247 -255 2272 -255 44 0 45 1 475 385 237 212 435 394 441 405 14 26 13 50
-4 69 -11 14 -10 105 10 585 12 312 24 569 26 571 2 1 70 18 151 39 224 55
342 118 562 298 220 180 316 303 401 513 80 196 105 332 80 438 -9 38 -16 90
-16 117 0 30 -9 70 -23 102 -13 29 -29 75 -36 102 -24 99 -104 218 -211 319
-145 136 -402 256 -605 282 l-50 7 -1 311 c-1 172 -3 418 -5 547 l-4 235 -25
12 c-14 6 -182 25 -374 41 -192 17 -352 34 -356 39 -4 4 -37 283 -74 618 -55
502 -74 644 -107 795 -55 259 -121 430 -234 604 -46 72 -99 145 -117 163 -18
17 -113 90 -211 163 -150 110 -205 145 -340 211 -155 75 -340 149 -457 182
-30 9 -208 32 -395 51 -187 20 -356 37 -375 40 -20 2 -137 -19 -271 -49z m576
-146 c355 -21 362 -22 509 -60 176 -47 289 -102 593 -294 l192 -121 109 -144
109 -145 87 -251 c76 -218 93 -282 132 -480 44 -225 45 -239 79 -767 l35 -537
-34 -145 c-18 -80 -30 -147 -27 -150 4 -2 42 15 86 38 l79 42 25 119 25 119
70 -6 c199 -17 496 -52 496 -59 0 -4 -39 -61 -88 -125 -48 -65 -100 -140 -116
-168 -24 -41 -264 -353 -311 -404 -11 -11 -21 -11 -67 3 -33 9 -1111 120
-2795 285 -1508 149 -2753 276 -2767 282 -14 7 -26 16 -26 21 0 12 30 50 289
371 218 269 226 277 260 277 54 0 365 -22 370 -26 2 -2 -13 -70 -32 -151 -32
-131 -58 -255 -53 -260 1 -2 150 28 154 32 1 1 16 73 32 161 76 410 369 1228
545 1524 183 306 344 481 605 655 140 93 240 149 379 214 200 92 542 185 646
176 28 -2 212 -14 410 -26z m2625 -3434 l0 -385 -73 0 c-90 0 -233 -24 -347
-57 -47 -14 -94 -28 -104 -31 -17 -5 -18 -1 -12 29 4 19 9 76 13 127 6 91 7
94 39 118 18 14 81 87 141 162 254 324 333 422 338 422 3 0 5 -173 5 -385z
m-3397 31 c1501 -151 2731 -276 2733 -279 3 -2 -2 -60 -10 -128 -9 -68 -17
-139 -18 -158 -3 -32 -14 -42 -144 -137 -154 -113 -394 -347 -394 -385 0 -19
-4 -20 -92 -13 -160 11 -201 10 -243 -8 -32 -14 -117 -21 -430 -38 -269 -14
-444 -28 -565 -46 l-175 -25 -35 39 c-94 107 -266 200 -427 234 -127 26 -208
21 -283 -17 -203 -102 -335 -260 -412 -490 -19 -57 -23 -91 -23 -185 l1 -115
58 -120 c33 -66 68 -130 80 -143 l20 -22 -44 -62 c-23 -34 -59 -75 -78 -92
-20 -17 -162 -200 -317 -406 -155 -207 -304 -395 -331 -419 -65 -57 -84 -88
-84 -138 0 -72 -3 -72 353 -66 l312 5 585 -67 585 -67 92 26 c51 14 103 26
116 26 36 0 60 32 52 69 -4 17 -11 33 -16 37 -23 14 -78 150 -248 611 -99 271
-181 494 -181 496 0 3 19 -5 42 -16 66 -33 133 -34 209 -3 36 14 70 26 74 26
5 0 28 -18 50 -40 50 -49 132 -80 213 -80 68 0 122 17 181 55 l41 27 34 -30
c66 -57 149 -66 238 -24 24 11 76 23 119 26 69 6 80 4 120 -18 89 -51 179 -39
254 34 26 25 36 29 68 23 31 -5 46 -17 89 -71 56 -70 113 -117 156 -127 15 -4
70 -37 122 -74 69 -48 95 -73 93 -87 -1 -10 -39 -461 -85 -1001 l-83 -981 -37
-40 -37 -40 -1293 134 -1293 133 -735 127 -735 127 -235 7 c-209 7 -245 11
-329 34 -52 15 -114 35 -139 46 -24 11 -50 20 -57 20 -7 0 -20 11 -28 24 -10
14 -63 290 -137 707 l-122 684 -30 380 -31 380 37 985 c21 542 39 991 41 998
3 6 17 12 32 12 15 0 1256 -123 2756 -274z m3588 -521 c25 -9 57 -27 71 -40
15 -14 32 -25 38 -25 20 0 136 -43 195 -73 133 -66 261 -181 318 -285 15 -27
49 -113 77 -191 49 -139 50 -146 50 -256 0 -91 -5 -130 -25 -201 -52 -180
-167 -381 -292 -509 -97 -100 -284 -237 -394 -290 -137 -66 -329 -109 -329
-74 0 9 -20 10 -72 4 -40 -4 -87 -7 -104 -7 -39 2 -350 84 -422 112 -29 11
-65 20 -81 20 -16 0 -36 9 -47 21 -10 11 -46 37 -79 56 -33 19 -82 56 -109 81
-27 26 -46 41 -42 35 16 -29 -4 -9 -72 71 -61 72 -80 88 -127 105 -31 12 -72
21 -93 21 -44 0 -107 -28 -144 -64 -33 -32 -39 -32 -88 -1 -34 22 -51 25 -124
25 -85 0 -186 -17 -261 -43 -22 -8 -45 -12 -52 -10 -10 3 -52 57 -89 111 -7
11 -80 -21 -116 -51 -55 -44 -94 -64 -154 -77 -61 -14 -105 6 -123 56 -7 18
-26 43 -43 55 -30 22 -33 22 -172 11 -194 -17 -188 -17 -180 13 10 40 -4 73
-37 91 -17 8 -33 13 -36 10 -3 -3 -13 3 -22 13 -16 18 -22 18 -241 -10 -124
-16 -252 -29 -286 -29 -33 0 -84 -7 -113 -16 -29 -8 -54 -14 -56 -12 -2 2 -20
41 -41 88 -36 78 -39 92 -39 177 0 51 5 96 10 102 6 5 64 13 130 17 91 5 126
11 146 25 20 14 86 25 305 48 153 17 306 33 339 35 33 3 76 10 95 16 19 6 96
15 170 20 74 5 299 23 500 40 201 17 373 29 383 26 9 -2 45 5 80 15 34 11 147
29 252 40 170 18 193 23 222 45 18 14 33 32 33 40 0 20 105 137 153 171 21 15
50 47 64 72 61 106 119 154 222 181 24 6 61 23 82 37 24 16 61 28 101 33 94
12 342 77 380 100 64 37 215 50 289 25z m-3376 -569 c67 -17 170 -70 223 -113
24 -20 42 -37 40 -39 -2 -2 -129 -17 -281 -33 -152 -16 -281 -32 -286 -35 -5
-3 -52 -14 -104 -24 l-96 -19 62 91 c67 98 123 145 206 170 59 19 172 20 236
2z m30 -886 c-4 -13 1 -34 13 -53 10 -19 28 -62 40 -98 189 -588 252 -757 358
-958 30 -57 53 -105 50 -108 -5 -5 -1648 136 -1654 142 -2 2 166 223 374 492
341 438 379 492 379 524 l-1 36 186 20 c255 28 263 28 255 3z m2675 -591 c113
-29 209 -56 214 -60 8 -7 -25 -905 -40 -1111 l-6 -76 -216 -199 c-119 -109
-245 -225 -281 -258 l-64 -60 7 95 c4 52 15 203 26 335 10 132 38 483 60 780
23 297 46 557 52 578 7 29 13 37 26 33 9 -3 109 -28 222 -57z"/>
<path d="M4790 8653 c-75 -12 -283 -69 -359 -98 -190 -72 -384 -190 -542 -328
-106 -93 -260 -270 -345 -398 -76 -113 -367 -729 -379 -799 -4 -25 -24 -76
-45 -115 -39 -72 -105 -283 -141 -450 -11 -49 -29 -118 -40 -153 -12 -35 -19
-65 -17 -67 2 -3 39 5 81 16 72 20 77 23 77 48 0 15 4 31 9 37 4 5 19 46 32
92 l23 84 41 -6 c147 -21 2681 -311 2985 -342 l375 -38 -1 -45 c-1 -48 -3 -56
-36 -163 -25 -78 -18 -119 24 -151 48 -36 69 -20 111 85 46 114 55 169 63 373
10 245 -4 351 -110 851 l-94 440 -79 170 c-132 283 -204 394 -357 553 -71 72
-106 98 -272 197 l-191 113 -363 50 c-349 49 -394 53 -450 44z m500 -148 c218
-33 421 -132 604 -294 162 -144 227 -239 364 -531 l110 -235 72 -295 c40 -162
76 -329 81 -370 4 -41 12 -106 17 -145 6 -38 13 -134 17 -212 l7 -142 -33 10
c-19 5 -614 66 -1324 135 -1450 140 -2012 207 -2007 238 6 33 237 657 276 745
110 250 280 483 508 698 230 218 533 361 849 402 107 14 357 12 459 -4z"/>
</g>
</svg>
