<?xml version="1.0" standalone="no"?>
<!DOCTYPE svg PUBLIC "-//W3C//DTD SVG 20010904//EN"
 "http://www.w3.org/TR/2001/REC-SVG-20010904/DTD/svg10.dtd">
<svg version="1.0" xmlns="http://www.w3.org/2000/svg"
 width="1024.000000pt" height="1024.000000pt" viewBox="0 0 1024.000000 1024.000000"
 preserveAspectRatio="xMidYMid meet">
<metadata>
Created by potrace 1.10, written by Peter Selinger 2001-2011
</metadata>
<g transform="translate(0.000000,1024.000000) scale(0.100000,-0.100000)"
fill="#000000" stroke="none">
<path d="M2950 9043 c-28 -25 -39 -54 -96 -253 l-64 -225 -70 -630 c-54 -485
-74 -714 -89 -995 -11 -201 -23 -387 -26 -415 -6 -65 38 -1190 70 -1774 39
-703 77 -937 230 -1431 144 -463 376 -1064 533 -1375 179 -358 467 -720 720
-907 269 -199 664 -292 1032 -244 161 22 532 134 669 203 114 58 268 157 376
243 412 327 746 872 895 1460 26 104 239 1228 289 1525 64 380 113 874 112
1135 0 80 -30 914 -66 1854 -72 1858 -65 1760 -126 1791 -15 8 -48 15 -74 15
-55 0 -85 -25 -85 -72 0 -18 23 -354 50 -747 28 -392 50 -717 50 -721 0 -5
-35 -10 -77 -13 -43 -2 -294 -24 -558 -50 -264 -26 -1090 -103 -1835 -172
-745 -69 -1447 -134 -1560 -144 -158 -15 -225 -17 -294 -10 -49 5 -90 10 -91
12 -1 1 22 241 51 532 52 526 53 532 118 835 36 168 70 321 76 340 24 82 5
165 -51 221 -46 46 -68 49 -109 12z m4350 -1850 c-16 -1505 -31 -2387 -45
-2523 -59 -590 -106 -844 -296 -1600 -88 -349 -176 -680 -196 -735 -178 -498
-580 -943 -1056 -1169 -353 -167 -835 -202 -1181 -84 -164 55 -341 171 -463
302 -158 169 -407 578 -551 906 -100 226 -145 361 -322 968 l-170 584 -65 571
c-62 555 -65 591 -94 1217 -28 587 -30 671 -21 930 5 157 10 290 10 297 0 7
25 11 78 11 42 0 947 79 2010 176 1233 112 1981 176 2065 177 73 0 155 4 182
9 28 4 65 8 83 9 32 1 32 1 32 -46z"/>
<path d="M5600 4414 l-865 -65 -504 5 -504 5 -57 -34 c-58 -35 -70 -53 -70
-108 0 -42 15 -63 60 -81 35 -14 104 -16 548 -16 l507 -1 900 67 c1019 74 976
68 1016 152 38 78 -1 125 -111 135 -30 3 -444 -24 -920 -59z"/>
</g>
</svg>
