<?xml version="1.0" standalone="no"?>
<!DOCTYPE svg PUBLIC "-//W3C//DTD SVG 20010904//EN"
 "http://www.w3.org/TR/2001/REC-SVG-20010904/DTD/svg10.dtd">
<svg version="1.0" xmlns="http://www.w3.org/2000/svg"
 width="1024.000000pt" height="1024.000000pt" viewBox="0 0 1024.000000 1024.000000"
 preserveAspectRatio="xMidYMid meet">
<metadata>
Created by potrace 1.10, written by Peter Selinger 2001-2011
</metadata>
<g transform="translate(0.000000,1024.000000) scale(0.100000,-0.100000)"
fill="#000000" stroke="none">
<path d="M5990 8299 c-24 -11 -59 -31 -78 -45 l-32 -25 19 -28 c11 -15 40 -48
63 -72 107 -110 163 -204 201 -338 20 -72 21 -102 25 -593 3 -435 1 -518 -10
-518 -8 0 -513 -43 -1124 -95 -610 -52 -1118 -95 -1128 -95 -19 0 -19 12 -12
453 3 248 12 499 18 556 12 99 11 105 -9 140 -11 20 -45 53 -75 73 -54 37
-376 170 -413 170 -33 1 -121 -41 -149 -71 l-27 -28 86 -92 c97 -105 146 -183
180 -285 38 -115 45 -205 45 -590 l0 -362 -377 -37 c-208 -20 -464 -41 -570
-46 -183 -9 -204 -8 -430 20 -314 38 -287 41 -279 -23 4 -29 13 -64 19 -77 16
-32 270 -209 383 -267 l91 -47 119 12 c93 9 878 138 1017 167 l27 6 0 -1064
c0 -1048 -16 -1827 -50 -2363 -13 -204 -13 -353 0 -435 13 -79 62 -230 93
-285 32 -56 82 -88 126 -80 104 20 156 131 168 360 l6 121 641 47 c353 26 848
63 1100 82 253 19 461 33 463 31 2 -1 8 -49 13 -105 12 -124 20 -159 66 -278
47 -120 86 -163 151 -163 90 0 148 98 173 292 6 54 10 773 10 2094 l0 2011
513 7 c320 4 583 3 702 -3 281 -16 288 -15 324 15 24 20 31 34 31 63 0 44 -14
67 -93 148 -55 56 -73 67 -185 114 l-125 51 -81 -11 c-152 -21 -560 -60 -776
-76 -118 -8 -236 -17 -262 -20 l-48 -6 1 428 c0 386 10 710 25 864 5 53 4 59
-27 94 -18 20 -49 48 -69 60 -49 31 -379 165 -404 164 -12 0 -41 -9 -66 -20z
m200 -2627 l0 -728 -297 -27 c-1470 -135 -1928 -177 -1954 -177 l-29 0 0 729
0 730 53 6 c28 3 511 46 1072 95 561 50 1029 92 1040 94 11 2 41 4 68 5 l47 1
0 -728z m0 -1169 c0 -169 -29 -1141 -46 -1545 l-6 -158 -32 -4 c-17 -3 -490
-37 -1051 -76 -561 -39 -1048 -73 -1082 -77 l-63 -6 0 916 0 916 43 5 c54 8
2173 213 2210 215 l27 1 0 -187z"/>
</g>
</svg>
