<?xml version="1.0" standalone="no"?>
<!DOCTYPE svg PUBLIC "-//W3C//DTD SVG 20010904//EN"
 "http://www.w3.org/TR/2001/REC-SVG-20010904/DTD/svg10.dtd">
<svg version="1.0" xmlns="http://www.w3.org/2000/svg"
 width="1024.000000pt" height="1024.000000pt" viewBox="0 0 1024.000000 1024.000000"
 preserveAspectRatio="xMidYMid meet">
<metadata>
Created by potrace 1.10, written by Peter Selinger 2001-2011
</metadata>
<g transform="translate(0.000000,1024.000000) scale(0.100000,-0.100000)"
fill="#000000" stroke="none">
<path d="M1960 8670 c-452 -98 -512 -124 -789 -346 -207 -167 -306 -268 -374
-382 -57 -93 -67 -143 -42 -196 15 -32 16 -46 6 -109 -10 -64 -9 -80 9 -146
45 -159 124 -281 248 -380 85 -68 178 -110 367 -166 182 -54 330 -81 523 -95
130 -10 134 -11 179 -45 32 -24 85 -48 172 -75 l126 -41 456 -26 c452 -27 457
-27 616 -10 189 21 459 73 628 123 179 52 376 124 413 151 37 28 62 71 62 108
0 24 3 25 53 25 39 0 61 -6 87 -24 29 -19 74 -29 266 -57 l230 -33 755 52
c865 61 1862 152 1984 182 96 24 194 69 301 139 50 33 108 60 159 75 47 14
270 52 540 91 253 37 485 73 515 82 163 45 247 140 258 294 4 62 2 69 -27 110
-41 55 -66 71 -193 120 l-103 40 -1980 129 -1980 130 -383 80 -382 79 -668 26
c-367 14 -676 30 -687 35 -37 17 -250 69 -365 89 -157 28 -326 41 -510 40
-153 -1 -160 -2 -470 -69z m817 -195 c61 -8 153 -23 205 -34 51 -11 116 -24
143 -30 123 -25 336 -31 534 -17 l194 15 1011 -155 1011 -155 1693 -89 1694
-90 106 -33 106 -33 -149 -54 -150 -54 -190 -7 c-253 -9 -431 -43 -612 -118
l-73 -30 0 22 c0 31 -23 61 -65 87 l-36 22 -162 -30 c-89 -17 -191 -33 -227
-36 -36 -3 -193 -17 -350 -31 -157 -14 -602 -52 -990 -86 -525 -45 -711 -64
-728 -75 -12 -8 -25 -28 -29 -44 -3 -17 -7 -30 -10 -30 -2 0 -21 9 -42 19 -36
19 -75 20 -700 29 l-663 10 -292 -49 c-160 -27 -306 -49 -325 -49 -67 0 -441
122 -649 212 -193 83 -200 84 -767 123 -521 36 -628 48 -796 90 -154 39 -399
128 -399 145 0 4 29 40 63 81 219 257 545 408 1017 474 133 18 489 19 627 0z"/>
<path d="M9059 7283 c-15 -2 -39 -18 -55 -34 -25 -26 -29 -38 -29 -87 1 -86
22 -227 39 -260 32 -62 112 -104 164 -88 26 9 30 21 51 142 26 148 7 211 -89
297 -22 21 -43 36 -48 36 -4 -1 -19 -4 -33 -6z"/>
<path d="M8216 7083 c-34 -32 -40 -43 -43 -87 -5 -64 19 -112 73 -144 44 -26
94 -24 125 4 10 9 26 39 35 66 27 82 5 142 -66 178 -55 28 -79 25 -124 -17z"/>
<path d="M7465 6880 c-12 -4 -33 -26 -47 -47 -23 -35 -31 -71 -62 -289 -32
-224 -39 -308 -65 -848 -20 -412 -26 -607 -20 -625 18 -48 59 -81 100 -81 46
0 77 24 111 87 39 71 46 138 47 463 1 381 31 891 62 1050 31 164 20 228 -50
276 -38 26 -45 27 -76 14z"/>
<path d="M1872 6724 c-36 -31 -42 -41 -42 -75 0 -81 52 -149 114 -149 38 0 91
47 113 98 12 29 12 37 -3 67 -19 40 -88 95 -119 95 -12 0 -40 -16 -63 -36z"/>
<path d="M4740 6643 c-35 -7 -79 -51 -86 -88 -8 -46 21 -111 83 -182 46 -53
60 -63 87 -63 38 0 62 22 82 77 32 90 2 176 -80 231 -26 17 -51 31 -55 31 -3
-1 -17 -4 -31 -6z"/>
<path d="M6163 6598 c-60 -16 -100 -128 -63 -173 27 -32 77 -47 115 -35 39 13
92 68 101 105 15 61 -77 123 -153 103z"/>
<path d="M8215 6558 c-24 -22 -38 -45 -41 -69 -6 -33 -2 -42 36 -83 41 -44 45
-46 100 -46 64 0 79 10 105 74 25 59 2 104 -70 137 -59 27 -90 24 -130 -13z"/>
<path d="M9104 6495 c-36 -15 -69 -57 -78 -100 -5 -21 0 -43 16 -75 20 -38 29
-46 63 -53 50 -10 75 1 111 48 38 50 37 95 -1 136 -47 49 -74 60 -111 44z"/>
<path d="M3087 6254 l-39 -36 11 -476 c17 -708 36 -974 96 -1352 13 -85 28
-220 33 -300 5 -88 15 -157 23 -175 21 -42 61 -67 116 -72 40 -4 51 -2 68 17
18 20 20 39 23 179 4 140 0 180 -32 386 -31 204 -40 300 -71 844 -25 425 -34
644 -30 711 10 129 -8 193 -72 261 -27 29 -54 49 -67 49 -11 0 -38 -17 -59
-36z"/>
<path d="M1237 6215 l-47 -36 5 -107 c15 -336 14 -779 0 -947 -17 -189 -13
-232 26 -274 40 -43 123 -56 152 -23 26 29 57 377 57 652 0 80 5 242 11 360
13 247 9 278 -48 341 -34 38 -80 69 -101 69 -5 0 -30 -16 -55 -35z"/>
<path d="M6190 5954 c-35 -32 -40 -42 -40 -79 0 -60 38 -105 87 -105 64 0 139
79 125 132 -7 27 -82 88 -109 88 -13 0 -41 -16 -63 -36z"/>
<path d="M4805 5931 c-57 -35 -68 -55 -63 -116 4 -46 10 -61 38 -90 49 -50 95
-49 143 4 64 71 56 132 -25 191 -48 35 -53 36 -93 11z"/>
<path d="M8176 5846 l-40 -34 -15 -285 c-14 -270 -13 -288 3 -332 32 -83 131
-159 176 -135 11 6 24 18 29 28 17 31 32 175 31 291 0 63 5 151 11 194 19 127
-16 231 -95 285 -42 29 -54 28 -100 -12z"/>
<path d="M9122 5680 c-22 -17 -44 -40 -47 -51 -12 -38 15 -118 55 -160 49 -52
83 -52 132 -1 83 85 71 150 -42 225 -34 24 -50 21 -98 -13z"/>
<path d="M6228 5513 c-15 -2 -39 -18 -54 -36 -21 -25 -25 -38 -20 -66 8 -49
33 -70 94 -78 46 -5 56 -3 78 18 35 33 54 72 47 98 -6 23 -80 72 -104 70 -8
-1 -26 -4 -41 -6z"/>
<path d="M4708 5380 c-27 -16 -58 -75 -58 -111 0 -20 10 -50 25 -71 20 -30 33
-38 69 -43 50 -8 78 7 115 61 28 41 26 76 -5 114 -45 53 -105 73 -146 50z"/>
<path d="M9180 5173 c-8 -3 -30 -19 -47 -36 -28 -26 -33 -38 -33 -75 0 -77 50
-142 111 -142 30 0 43 7 73 40 19 22 38 51 42 66 10 38 -18 88 -67 124 -42 30
-52 33 -79 23z"/>
<path d="M6207 5103 c-55 -9 -101 -118 -66 -159 24 -29 78 -46 121 -39 31 6
46 16 69 47 31 43 35 67 19 99 -11 20 -81 60 -102 58 -7 -1 -26 -4 -41 -6z"/>
<path d="M9235 4760 c-54 -22 -90 -96 -75 -152 12 -39 56 -104 77 -112 37 -15
127 72 139 132 8 38 -21 86 -71 120 -34 24 -40 25 -70 12z"/>
<path d="M6182 4613 c-88 -37 -130 -165 -68 -208 91 -64 289 73 232 160 -32
48 -110 71 -164 48z"/>
<path d="M8170 4560 c-11 -11 -22 -30 -25 -43 -4 -12 -5 -154 -3 -314 3 -277
4 -293 24 -320 26 -35 79 -63 121 -63 58 0 64 23 81 273 20 291 7 353 -86 445
-49 47 -81 53 -112 22z"/>
<path d="M4818 4548 c-67 -23 -108 -167 -114 -403 -5 -145 1 -217 59 -776 73
-701 68 -680 161 -728 44 -23 50 -24 74 -10 57 32 62 125 22 464 -39 326 -80
873 -80 1062 0 62 6 130 16 167 19 74 9 127 -32 176 -37 43 -73 59 -106 48z"/>
<path d="M7429 4503 c-15 -2 -39 -18 -55 -34 -37 -39 -41 -107 -8 -139 29 -30
96 -37 129 -16 31 20 65 73 65 100 0 21 -74 97 -93 95 -7 -1 -24 -4 -38 -6z"/>
<path d="M1312 4417 c-34 -10 -64 -44 -77 -85 -15 -49 59 -112 131 -112 36 0
47 6 77 39 61 67 58 105 -11 140 -52 25 -82 30 -120 18z"/>
<path d="M9353 4359 c-38 -11 -83 -62 -83 -94 0 -13 12 -37 26 -54 23 -28 32
-31 81 -31 49 0 58 4 84 31 42 45 47 75 18 105 -36 35 -88 53 -126 43z"/>
<path d="M6230 4160 c-64 -15 -96 -89 -65 -149 18 -36 49 -51 105 -51 31 0 43
6 65 32 58 68 52 114 -20 155 -22 12 -42 22 -45 22 -3 -1 -21 -5 -40 -9z"/>
<path d="M9288 3993 c-36 -6 -88 -66 -88 -102 0 -21 11 -39 40 -65 33 -30 48
-36 84 -36 38 0 48 5 74 34 42 49 48 73 25 105 -18 23 -91 73 -103 69 -3 0
-17 -3 -32 -5z"/>
<path d="M7489 3948 c-47 -48 -57 -82 -70 -240 -12 -151 -6 -559 10 -703 37
-324 41 -1157 6 -1343 -21 -111 -15 -152 26 -186 48 -41 72 -42 122 -7 33 22
46 39 51 63 18 100 37 291 47 460 9 175 7 263 -25 926 l-35 733 36 71 c60 118
48 183 -43 235 -55 32 -86 29 -125 -9z"/>
<path d="M1300 3817 c-31 -16 -70 -73 -70 -104 0 -26 23 -78 48 -105 10 -12
30 -18 62 -18 38 0 51 5 72 28 70 74 63 130 -22 186 -45 29 -55 31 -90 13z"/>
<path d="M6293 3690 c-37 -8 -59 -24 -75 -53 -16 -30 -23 -976 -9 -1232 11
-194 14 -213 35 -246 28 -42 79 -69 131 -69 32 0 38 4 51 36 13 30 13 54 5
147 -33 352 -39 984 -11 1097 16 65 23 154 16 193 -6 34 -64 110 -94 126 -10
4 -32 5 -49 1z"/>
<path d="M8235 3603 c-53 -13 -95 -83 -95 -157 0 -80 31 -131 103 -168 52 -26
86 -20 113 19 50 75 38 193 -28 267 -38 44 -50 49 -93 39z"/>
<path d="M3202 3438 c-67 -54 -67 -147 -1 -202 45 -38 96 -36 137 7 47 48 58
87 36 132 -17 36 -90 95 -117 95 -8 0 -33 -15 -55 -32z"/>
<path d="M9306 3343 c-29 -31 -36 -46 -36 -80 0 -87 80 -132 146 -81 85 66 89
131 11 178 -49 30 -80 26 -121 -17z"/>
<path d="M1345 3129 c-40 -12 -65 -46 -65 -91 0 -30 7 -45 35 -73 50 -50 79
-47 138 13 65 66 63 108 -4 142 -41 22 -58 23 -104 9z"/>
<path d="M8265 2953 c-33 -8 -84 -64 -91 -99 -4 -21 0 -44 10 -65 14 -28 16
-92 16 -509 l0 -477 34 -45 c50 -66 87 -74 163 -37 59 29 72 79 35 141 -14 24
-15 73 -5 490 11 492 11 501 -35 551 -31 35 -91 58 -127 50z"/>
<path d="M9199 2833 c-40 -36 -41 -39 -37 -91 5 -59 27 -95 78 -129 46 -32 73
-29 114 13 51 53 63 95 39 141 -21 40 -103 103 -134 103 -10 0 -37 -17 -60
-37z"/>
<path d="M3274 2820 c-36 -14 -74 -68 -74 -106 0 -42 23 -89 50 -104 45 -24
134 27 158 90 13 36 -1 65 -49 100 -45 32 -52 34 -85 20z"/>
<path d="M1354 2604 c-42 -22 -71 -52 -78 -80 -17 -67 53 -174 113 -174 23 0
41 10 71 40 63 63 66 112 8 170 -53 52 -79 62 -114 44z"/>
<path d="M4943 2279 c-42 -12 -73 -53 -73 -97 0 -27 9 -43 39 -73 21 -22 48
-39 59 -39 11 0 43 22 71 48 75 70 70 112 -16 156 -36 18 -35 18 -80 5z"/>
<path d="M1233 2238 c-23 -24 -32 -44 -34 -75 -3 -38 1 -47 36 -83 36 -37 44
-40 91 -40 46 0 55 4 77 30 35 41 42 83 22 117 -22 37 -79 74 -124 80 -31 4
-41 0 -68 -29z"/>
<path d="M3210 2176 c-46 -17 -88 -93 -74 -134 13 -38 73 -66 124 -57 43 7 95
56 106 101 14 56 -87 115 -156 90z"/>
<path d="M9262 2043 c-50 -24 -66 -54 -58 -107 10 -61 43 -107 97 -134 43 -21
50 -22 81 -9 26 11 39 26 51 56 34 84 10 153 -67 190 -51 25 -61 25 -104 4z"/>
<path d="M4928 1882 c-38 -5 -88 -64 -88 -105 0 -41 31 -92 72 -117 18 -11 37
-20 41 -20 5 0 32 23 62 51 57 53 74 94 55 128 -18 34 -96 69 -142 63z"/>
<path d="M6344 1806 c-21 -9 -39 -29 -53 -60 -20 -39 -21 -50 -11 -80 21 -65
46 -86 100 -86 41 0 52 5 80 33 58 58 61 97 11 150 -25 28 -72 57 -88 57 -4
-1 -22 -7 -39 -14z"/>
<path d="M9363 1449 c-44 -13 -83 -62 -83 -106 0 -56 21 -113 56 -150 29 -30
38 -34 76 -31 39 3 46 7 76 53 30 44 33 56 29 100 -4 44 -10 54 -56 97 -29 27
-55 48 -59 47 -4 0 -21 -5 -39 -10z"/>
</g>
</svg>
