<?xml version="1.0" standalone="no"?>
<!DOCTYPE svg PUBLIC "-//W3C//DTD SVG 20010904//EN"
 "http://www.w3.org/TR/2001/REC-SVG-20010904/DTD/svg10.dtd">
<svg version="1.0" xmlns="http://www.w3.org/2000/svg"
 width="1024.000000pt" height="1024.000000pt" viewBox="0 0 1024.000000 1024.000000"
 preserveAspectRatio="xMidYMid meet">
<metadata>
Created by potrace 1.10, written by Peter Selinger 2001-2011
</metadata>
<g transform="translate(0.000000,1024.000000) scale(0.100000,-0.100000)"
fill="#000000" stroke="none">
<path d="M8169 8566 c-2 -3 -151 -30 -329 -61 l-325 -57 -490 -10 c-358 -8
-919 -7 -2085 2 -1580 13 -1597 13 -1850 -8 l-255 -20 -200 25 c-346 43 -578
22 -777 -70 -93 -42 -122 -77 -114 -130 15 -90 60 -146 109 -133 12 3 43 18
67 34 43 28 61 31 345 66 l300 36 845 0 c616 -1 1077 -7 1700 -24 l855 -24
1060 59 c583 32 1092 59 1131 59 102 0 170 23 222 76 35 34 42 48 37 66 -9 34
-78 93 -123 106 -38 12 -114 16 -123 8z"/>
<path d="M4855 7449 c-698 -89 -1576 -318 -1970 -514 -137 -68 -374 -236 -524
-372 -157 -142 -347 -386 -387 -498 -13 -35 -39 -86 -58 -112 -18 -26 -37 -63
-41 -82 -4 -19 -25 -73 -47 -120 -85 -185 -142 -385 -202 -716 -82 -451 -108
-706 -137 -1296 -31 -671 -27 -1117 16 -1622 14 -163 16 -169 49 -222 28 -43
43 -56 75 -66 53 -16 87 5 97 58 4 21 4 407 0 858 l-6 820 35 560 c43 702 56
817 121 1085 69 283 213 635 355 867 163 266 396 469 705 614 577 271 1349
476 1961 521 90 6 164 10 166 7 2 -2 -10 -265 -27 -584 l-29 -580 72 -1800
c40 -990 76 -1802 81 -1805 5 -3 3 -124 -4 -284 -14 -296 -11 -344 27 -384 42
-45 135 -54 156 -14 19 35 33 204 38 447 5 242 6 252 30 303 29 59 26 101 -7
137 -18 19 -21 95 -75 1675 -31 910 -62 1826 -69 2035 -12 359 -12 388 6 530
11 83 22 193 26 245 l7 95 55 7 c84 9 276 9 470 -2 558 -32 1107 -134 1494
-279 197 -74 285 -128 407 -251 78 -79 126 -147 207 -296 53 -97 64 -127 96
-264 129 -561 131 -577 295 -2335 11 -113 24 -404 62 -1335 23 -582 24 -591
82 -618 37 -18 100 -7 135 23 l26 23 -147 1989 c-110 1482 -153 2015 -168
2089 -49 238 -169 528 -300 725 -166 248 -470 453 -776 524 -37 9 -268 58
-513 109 l-445 94 -515 11 c-579 13 -803 13 -905 0z"/>
<path d="M6473 6538 c-38 -13 -47 -33 -67 -158 -23 -140 -36 -341 -36 -550 0
-153 -5 -226 -32 -423 -36 -268 -35 -275 32 -309 43 -22 113 -23 129 -4 15 18
36 134 61 341 28 231 41 430 44 677 3 167 6 222 17 234 22 27 18 117 -6 144
-39 44 -95 62 -142 48z"/>
<path d="M3515 6408 c-42 -23 -75 -62 -75 -89 0 -14 9 -48 19 -75 29 -73 81
-947 69 -1149 -14 -210 -9 -274 24 -317 34 -45 78 -64 121 -52 30 9 33 14 54
96 45 181 47 243 23 826 -15 372 -26 553 -35 588 -16 56 -74 129 -129 163 -38
24 -43 25 -71 9z"/>
<path d="M6407 4272 c-18 -2 -32 -13 -44 -35 -29 -55 -23 -346 16 -797 18
-212 43 -505 55 -651 25 -297 31 -319 100 -353 36 -18 40 -18 73 -2 40 19 60
60 75 152 9 50 7 90 -10 210 -53 372 -63 496 -71 919 -6 344 -8 373 -27 416
-41 89 -111 148 -167 141z"/>
<path d="M3581 3815 c-56 -64 -64 -115 -46 -310 25 -282 35 -533 35 -873 0
-366 0 -366 74 -402 63 -30 105 -24 129 18 19 32 19 50 10 590 -5 319 -5 606
0 672 11 155 -5 222 -73 292 -58 60 -85 63 -129 13z"/>
</g>
</svg>
