<?xml version="1.0" standalone="no"?>
<!DOCTYPE svg PUBLIC "-//W3C//DTD SVG 20010904//EN"
 "http://www.w3.org/TR/2001/REC-SVG-20010904/DTD/svg10.dtd">
<svg version="1.0" xmlns="http://www.w3.org/2000/svg"
 width="1024.000000pt" height="1024.000000pt" viewBox="0 0 1024.000000 1024.000000"
 preserveAspectRatio="xMidYMid meet">
<metadata>
Created by potrace 1.10, written by Peter Selinger 2001-2011
</metadata>
<g transform="translate(0.000000,1024.000000) scale(0.100000,-0.100000)"
fill="#000000" stroke="none">
<path d="M7045 8669 c-38 -5 -212 -32 -385 -59 -394 -63 -3139 -383 -3475
-405 l-230 -16 -303 37 c-166 21 -304 35 -307 32 -3 -2 11 -54 31 -114 34
-104 39 -112 99 -171 46 -44 88 -73 152 -103 48 -23 97 -47 108 -53 78 -44
132 -67 180 -78 51 -11 65 -10 187 19 110 27 1426 242 1475 242 9 0 44 -29 78
-64 76 -77 148 -214 170 -321 15 -74 43 -1110 31 -1123 -4 -3 -575 -55 -1269
-115 l-1262 -108 -160 28 c-145 25 -163 31 -195 59 -78 69 -272 174 -320 174
-14 -1 -65 -17 -115 -38 -87 -36 -90 -38 -87 -67 2 -17 17 -59 33 -95 41 -92
155 -561 173 -711 46 -380 134 -1539 226 -2979 21 -325 63 -588 108 -664 28
-48 61 -62 110 -48 105 32 162 135 177 322 3 45 -32 788 -89 1870 -52 987 -93
1796 -92 1798 4 3 2760 280 2764 277 2 -2 -7 -754 -20 -1672 -14 -917 -21
-1734 -17 -1814 8 -177 32 -336 66 -444 27 -85 65 -169 91 -197 20 -24 73 -23
104 1 81 64 161 352 188 677 6 71 19 885 30 1808 12 1027 23 1682 29 1685 5 3
602 53 1326 110 1276 100 1317 103 1360 87 56 -22 119 -90 157 -173 l31 -66
-7 -219 c-10 -328 -39 -685 -101 -1248 -14 -124 -41 -375 -60 -557 -91 -866
-211 -1526 -308 -1698 -28 -49 -48 -53 -160 -30 -97 20 -403 107 -574 164 -67
23 -128 41 -136 41 -8 0 -21 -8 -30 -18 -15 -16 -4 -30 176 -212 253 -256 385
-413 488 -582 80 -129 141 -184 225 -202 29 -7 40 0 123 69 111 92 138 128
207 270 133 277 241 692 348 1346 123 748 213 1486 296 2439 23 265 58 496 96
625 l25 87 -25 43 c-46 78 -148 155 -368 279 l-138 77 -177 -35 c-97 -20 -420
-68 -718 -107 -459 -60 -654 -80 -1300 -133 -418 -35 -762 -62 -764 -60 -6 6
19 1049 28 1099 4 28 16 79 26 116 12 41 15 76 11 95 -13 49 -96 119 -207 172
l-101 49 53 6 c30 4 560 38 1179 77 751 47 1142 76 1176 85 93 27 135 103 99
179 -10 20 -47 63 -82 96 -57 52 -80 65 -207 114 -78 31 -151 55 -162 55 -10
-1 -50 -6 -89 -10z"/>
<path d="M5935 5760 c-10 -11 -16 -22 -14 -24 2 -1 36 -20 74 -41 339 -185
619 -375 848 -576 59 -52 138 -120 175 -153 235 -206 471 -167 475 79 2 78
-32 142 -125 236 -116 117 -286 218 -528 312 -206 80 -264 94 -555 137 -154
22 -292 43 -306 46 -17 3 -31 -2 -44 -16z"/>
<path d="M2738 5383 c-16 -15 -6 -22 139 -100 272 -147 530 -318 714 -475 48
-40 115 -97 150 -127 35 -30 89 -66 119 -80 64 -29 161 -39 214 -21 97 32 146
178 96 288 -38 84 -194 207 -363 287 -92 44 -312 123 -416 150 -52 13 -586 95
-621 95 -9 0 -23 -7 -32 -17z"/>
<path d="M5856 4251 c-16 -18 -12 -22 111 -96 363 -221 652 -440 906 -684 134
-128 195 -175 269 -203 97 -37 173 -13 213 67 16 32 20 60 20 140 0 120 -18
165 -103 256 -146 158 -548 330 -1079 463 -166 42 -306 76 -311 76 -5 0 -17
-8 -26 -19z"/>
<path d="M2771 4024 l-20 -26 120 -79 c367 -243 611 -447 884 -740 99 -106
168 -149 242 -149 64 0 90 9 126 46 48 47 60 89 61 199 1 94 -1 105 -31 166
-77 156 -246 257 -718 426 -265 96 -408 141 -517 163 -122 25 -122 25 -147 -6z"/>
</g>
</svg>
