<?xml version="1.0" standalone="no"?>
<!DOCTYPE svg PUBLIC "-//W3C//DTD SVG 20010904//EN"
 "http://www.w3.org/TR/2001/REC-SVG-20010904/DTD/svg10.dtd">
<svg version="1.0" xmlns="http://www.w3.org/2000/svg"
 width="1024.000000pt" height="1024.000000pt" viewBox="0 0 1024.000000 1024.000000"
 preserveAspectRatio="xMidYMid meet">
<metadata>
Created by potrace 1.10, written by Peter Selinger 2001-2011
</metadata>
<g transform="translate(0.000000,1024.000000) scale(0.100000,-0.100000)"
fill="#000000" stroke="none">
<path d="M8315 8354 c-38 -15 -615 -107 -720 -114 -234 -16 -1435 -18 -2745
-5 -1283 14 -1285 14 -1579 -8 l-293 -21 -202 22 c-110 12 -253 23 -316 23
-112 0 -121 -2 -326 -63 l-212 -62 -24 -51 c-28 -56 -24 -95 14 -147 30 -43
96 -38 153 12 13 12 51 21 115 29 52 6 187 22 300 36 204 25 209 25 1055 25
623 -1 1087 -7 1735 -24 614 -16 929 -21 1030 -15 203 12 1957 107 2060 112
93 4 139 22 198 76 40 37 41 69 5 112 -39 46 -96 69 -173 68 -36 0 -69 -2 -75
-5z"/>
<path d="M4976 7230 c-563 -77 -1080 -197 -1581 -365 -344 -116 -438 -164
-692 -353 -170 -127 -302 -250 -405 -377 -91 -113 -176 -244 -194 -299 -9 -28
-34 -75 -54 -104 -21 -29 -41 -69 -45 -89 -3 -20 -46 -145 -95 -277 -93 -252
-109 -312 -159 -591 -77 -430 -105 -710 -137 -1365 -32 -665 -28 -996 21
-1573 17 -192 26 -220 88 -248 55 -24 89 -24 113 2 18 21 19 51 19 953 l0 931
33 490 c18 270 37 533 43 585 45 398 152 757 338 1128 86 171 122 230 217 348
183 230 428 390 863 564 573 229 1168 367 1789 415 l84 7 -6 -79 c-4 -43 -18
-304 -32 -580 l-26 -502 26 -643 c28 -693 102 -2545 112 -2823 4 -93 11 -175
15 -181 5 -6 4 -137 -3 -306 -13 -318 -11 -332 37 -378 35 -33 113 -39 138
-12 30 33 57 311 57 579 0 125 2 147 20 175 27 45 26 107 -2 143 -21 28 -23
41 -35 409 -13 395 -53 1593 -99 2935 l-26 775 21 175 c11 97 23 211 27 254
l6 77 233 0 c528 0 1007 -62 1520 -195 173 -46 414 -140 511 -200 142 -88 284
-247 364 -404 18 -36 42 -81 55 -100 37 -57 121 -437 185 -835 18 -110 61
-518 109 -1041 l81 -860 34 -856 c37 -910 36 -902 85 -929 47 -24 143 0 161
42 8 17 -12 325 -75 1173 -47 633 -112 1512 -145 1955 -69 930 -64 882 -96
1025 -51 228 -155 475 -284 674 -148 228 -417 427 -695 514 -96 29 -70 24
-625 141 l-445 94 -420 6 c-231 3 -526 8 -655 11 -195 4 -259 1 -374 -15z"/>
<path d="M6633 6318 c-38 -12 -45 -30 -69 -168 -11 -66 -18 -195 -23 -425 -7
-300 -11 -351 -41 -556 -29 -200 -31 -229 -19 -255 29 -60 153 -88 183 -41 41
62 105 722 106 1088 0 102 4 144 15 165 22 42 19 106 -6 138 -37 47 -97 69
-146 54z"/>
<path d="M3634 6169 c-59 -46 -66 -72 -39 -134 21 -47 26 -92 54 -536 29 -449
30 -498 20 -677 -11 -175 -10 -196 6 -237 19 -52 67 -93 117 -101 44 -8 52 2
78 104 44 175 46 248 22 841 -12 301 -27 563 -32 582 -16 57 -64 123 -115 157
-27 18 -54 32 -60 32 -7 0 -30 -14 -51 -31z"/>
<path d="M6553 4030 c-62 -25 -61 -229 5 -1050 29 -349 57 -658 62 -686 18
-85 93 -139 151 -108 80 41 92 167 47 504 -41 308 -49 422 -56 811 l-7 355
-30 59 c-19 37 -46 72 -73 92 -45 34 -62 38 -99 23z"/>
<path d="M3721 3573 c-57 -69 -60 -110 -35 -403 10 -116 19 -362 23 -657 l6
-472 28 -29 c31 -32 90 -56 127 -50 12 1 32 15 43 30 24 33 23 -19 15 817 l-7
643 -26 54 c-30 61 -79 104 -118 104 -17 0 -35 -12 -56 -37z"/>
</g>
</svg>
