<?xml version="1.0" standalone="no"?>
<!DOCTYPE svg PUBLIC "-//W3C//DTD SVG 20010904//EN"
 "http://www.w3.org/TR/2001/REC-SVG-20010904/DTD/svg10.dtd">
<svg version="1.0" xmlns="http://www.w3.org/2000/svg"
 width="1024.000000pt" height="1024.000000pt" viewBox="0 0 1024.000000 1024.000000"
 preserveAspectRatio="xMidYMid meet">
<metadata>
Created by potrace 1.10, written by Peter Selinger 2001-2011
</metadata>
<g transform="translate(0.000000,1024.000000) scale(0.100000,-0.100000)"
fill="#000000" stroke="none">
<path d="M1935 8761 c-433 -95 -506 -129 -796 -366 -225 -183 -320 -289 -385
-428 -29 -63 -30 -82 -4 -131 18 -36 18 -43 6 -110 -13 -67 -13 -76 10 -154
67 -230 216 -398 432 -486 178 -72 581 -156 751 -156 80 0 85 -2 132 -36 31
-23 94 -51 180 -79 l132 -45 426 -26 c272 -16 464 -24 530 -20 222 13 542 72
794 146 164 49 339 113 371 137 32 23 66 84 66 116 0 25 1 26 53 20 28 -3 75
-16 102 -28 35 -16 115 -33 270 -55 l220 -32 780 56 c429 31 1037 80 1351 111
691 66 697 67 935 217 48 30 113 62 145 71 33 9 275 48 539 87 476 69 555 85
628 122 94 47 157 155 157 269 0 51 -5 67 -30 104 -37 54 -70 74 -195 120
l-100 37 -1970 128 -1970 129 -400 82 -400 82 -680 28 c-623 25 -685 30 -745
49 -36 12 -113 32 -171 45 -212 49 -292 57 -579 60 l-275 4 -310 -68z m889
-195 c54 -9 148 -27 210 -41 169 -39 376 -51 631 -37 l211 12 1022 -155 1022
-155 1696 -90 1696 -90 105 -32 c63 -19 99 -35 91 -39 -8 -4 -76 -30 -153 -58
l-139 -51 -129 0 c-70 0 -171 -5 -225 -10 -123 -13 -322 -62 -429 -105 -75
-30 -83 -32 -83 -15 0 24 -45 77 -80 95 -26 13 -43 12 -180 -15 -125 -24 -342
-45 -1219 -121 -586 -50 -1077 -96 -1091 -103 -21 -9 -41 -36 -53 -70 -1 -5
-21 1 -43 12 -39 20 -61 21 -720 27 l-679 7 -299 -50 -298 -51 -152 44 c-160
45 -412 136 -524 187 -154 71 -184 75 -742 113 -523 35 -656 51 -842 99 -94
25 -327 107 -357 125 -12 7 -6 19 26 58 120 143 293 278 445 347 191 86 477
157 728 180 97 9 458 -3 554 -18z"/>
<path d="M9100 7366 c-20 -7 -45 -27 -58 -47 -21 -29 -23 -42 -18 -94 21 -219
34 -261 96 -303 65 -44 120 -41 138 5 6 16 18 71 26 123 12 74 13 104 5 135
-23 81 -64 138 -129 178 -21 12 -31 13 -60 3z"/>
<path d="M8305 7200 c-33 -13 -82 -73 -88 -106 -13 -67 25 -139 89 -169 32
-15 42 -15 74 -5 30 10 42 22 60 60 45 95 25 163 -61 207 -49 25 -47 25 -74
13z"/>
<path d="M7487 6955 c-45 -44 -55 -82 -91 -320 -33 -219 -38 -292 -66 -850
-17 -335 -28 -622 -24 -637 3 -16 19 -42 36 -58 70 -71 166 -14 210 124 6 17
12 180 13 361 4 442 37 969 70 1130 27 129 15 191 -47 239 -39 29 -79 34 -101
11z"/>
<path d="M1869 6801 c-25 -24 -39 -48 -39 -64 0 -52 14 -90 45 -123 26 -27 40
-34 70 -34 31 0 45 7 76 39 67 71 61 127 -19 188 -57 44 -85 42 -133 -6z"/>
<path d="M4758 6723 c-34 -5 -75 -46 -83 -84 -11 -48 22 -121 85 -189 46 -49
61 -60 88 -60 18 0 40 8 51 19 45 45 53 177 14 229 -25 34 -101 93 -116 91 -7
-1 -24 -4 -39 -6z"/>
<path d="M6197 6682 c-59 -7 -105 -131 -67 -177 27 -32 77 -47 115 -35 46 15
105 82 105 118 0 53 -81 103 -153 94z"/>
<path d="M8259 6631 c-54 -54 -54 -90 3 -148 40 -41 45 -43 100 -43 57 0 57 0
83 43 45 78 24 136 -60 171 -59 25 -83 20 -126 -23z"/>
<path d="M9154 6575 c-39 -16 -76 -75 -76 -120 0 -53 31 -98 75 -109 47 -12
76 1 113 49 38 50 37 95 -1 136 -47 49 -74 60 -111 44z"/>
<path d="M3096 6331 l-37 -38 11 -542 c13 -657 27 -868 85 -1237 33 -205 34
-213 44 -376 7 -102 14 -145 27 -168 21 -35 86 -70 131 -70 48 0 64 28 75 127
11 110 4 207 -33 443 -23 149 -37 310 -68 820 -22 349 -39 700 -38 780 2 125
-1 150 -17 180 -26 51 -97 120 -121 120 -12 0 -38 -17 -59 -39z"/>
<path d="M1241 6300 c-23 -17 -44 -37 -47 -45 -3 -7 -1 -206 4 -442 7 -351 6
-460 -6 -610 -8 -100 -11 -198 -8 -218 4 -20 20 -50 35 -67 23 -26 37 -32 83
-36 51 -4 58 -2 71 19 26 40 57 425 57 706 0 89 5 242 11 339 12 191 6 242
-33 297 -23 32 -94 87 -113 87 -7 0 -31 -14 -54 -30z"/>
<path d="M6254 6060 c-36 -14 -74 -73 -74 -114 0 -27 8 -45 33 -72 29 -32 36
-35 69 -29 41 8 103 66 113 106 7 30 -29 80 -76 104 -32 17 -36 17 -65 5z"/>
<path d="M4850 6021 c-9 -3 -32 -19 -53 -35 -34 -26 -37 -33 -37 -78 0 -103
79 -176 151 -137 31 16 79 89 79 119 0 15 -10 42 -22 60 -27 38 -97 81 -118
71z"/>
<path d="M8232 5931 c-22 -16 -43 -34 -46 -40 -4 -6 -13 -135 -21 -286 -12
-242 -12 -282 1 -326 18 -59 62 -113 116 -140 44 -23 72 -18 92 14 17 28 37
216 33 322 -1 44 2 133 7 197 9 115 8 118 -18 172 -25 50 -89 116 -113 116 -6
0 -28 -13 -51 -29z"/>
<path d="M9214 5780 c-11 -5 -37 -24 -58 -44 -36 -33 -38 -38 -31 -78 9 -54
20 -75 58 -115 45 -48 93 -46 137 3 43 50 54 76 46 117 -11 57 -109 133 -152
117z"/>
<path d="M6261 5585 c-42 -15 -81 -58 -81 -90 0 -42 48 -83 105 -90 47 -6 52
-4 82 27 44 46 50 78 21 111 -35 40 -85 56 -127 42z"/>
<path d="M4744 5456 c-17 -8 -41 -30 -54 -51 -45 -73 -3 -166 82 -179 48 -8
79 9 108 57 39 63 19 111 -70 170 -29 20 -27 20 -66 3z"/>
<path d="M9190 5214 c-35 -32 -40 -42 -40 -81 0 -50 11 -75 48 -115 38 -41 93
-39 133 5 58 62 64 110 18 162 -33 38 -77 65 -103 65 -9 0 -34 -16 -56 -36z"/>
<path d="M6238 5173 c-20 -3 -35 -17 -54 -48 -50 -86 -12 -151 89 -149 46 0
54 4 84 39 37 44 44 92 16 117 -25 22 -79 48 -95 47 -7 -1 -25 -4 -40 -6z"/>
<path d="M9280 4827 c-63 -32 -90 -130 -51 -192 27 -43 59 -75 77 -75 8 0 37
21 64 46 79 74 78 144 -3 204 -46 34 -52 35 -87 17z"/>
<path d="M6194 4671 c-87 -53 -107 -162 -39 -207 23 -15 33 -15 82 -4 69 15
109 43 134 92 25 48 24 70 -3 96 -49 45 -122 55 -174 23z"/>
<path d="M8235 4641 c-44 -18 -46 -39 -43 -369 l3 -314 37 -33 c36 -33 94 -53
122 -42 37 14 45 50 61 278 18 249 14 286 -33 372 -26 48 -95 118 -116 116 -6
0 -20 -4 -31 -8z"/>
<path d="M4806 4591 c-48 -50 -77 -184 -83 -376 -4 -146 1 -216 61 -788 46
-439 70 -636 81 -657 22 -43 91 -90 131 -90 25 0 38 7 51 27 25 38 22 221 -5
458 -29 246 -58 594 -73 874 -11 216 -11 241 6 327 23 115 13 160 -47 217 -49
46 -83 49 -122 8z"/>
<path d="M7460 4567 c-39 -13 -80 -67 -80 -104 0 -31 25 -79 45 -87 9 -3 36
-6 60 -6 37 0 47 5 79 40 39 43 45 73 21 107 -13 19 -76 64 -86 62 -2 0 -20
-5 -39 -12z"/>
<path d="M1315 4483 c-31 -7 -73 -52 -80 -85 -18 -78 118 -147 185 -95 31 24
60 71 60 97 0 55 -91 101 -165 83z"/>
<path d="M9403 4423 c-12 -2 -36 -20 -53 -40 -25 -28 -30 -41 -25 -62 11 -44
46 -71 101 -77 48 -6 51 -5 87 35 20 23 37 52 37 64 0 27 -33 61 -73 76 -29
11 -35 12 -74 4z"/>
<path d="M6260 4225 c-115 -40 -90 -205 31 -205 33 0 47 6 71 32 64 69 58 119
-20 160 -42 22 -51 23 -82 13z"/>
<path d="M9333 4053 c-30 -6 -83 -68 -83 -97 0 -50 70 -106 133 -106 24 0 41
8 64 33 59 62 55 103 -15 148 -45 28 -55 31 -99 22z"/>
<path d="M7537 4020 c-46 -37 -65 -94 -77 -234 -16 -202 -12 -450 12 -732 19
-219 22 -333 22 -739 1 -426 -1 -493 -18 -596 -21 -126 -18 -158 19 -194 44
-45 88 -43 158 10 26 19 53 219 68 490 10 194 8 267 -25 948 l-35 739 37 71
c59 112 48 176 -38 235 -41 27 -89 28 -123 2z"/>
<path d="M1269 3851 c-55 -55 -54 -115 4 -178 31 -35 105 -32 139 5 71 75 62
135 -27 187 -56 33 -71 32 -116 -14z"/>
<path d="M6325 3753 c-32 -5 -60 -26 -77 -56 -15 -29 -22 -998 -9 -1242 11
-193 14 -213 36 -246 28 -44 83 -71 133 -67 60 5 67 31 53 197 -24 282 -35
732 -23 919 6 97 16 191 22 207 7 17 13 60 13 96 1 53 -4 73 -25 110 -22 36
-80 93 -90 88 -2 -1 -16 -4 -33 -6z"/>
<path d="M8275 3663 c-70 -17 -117 -145 -84 -230 14 -38 46 -71 92 -95 84 -43
138 -4 145 105 5 85 -11 139 -57 187 -36 38 -52 44 -96 33z"/>
<path d="M3234 3511 c-87 -53 -98 -139 -26 -213 20 -22 35 -28 68 -28 36 0 47
5 77 39 64 71 56 132 -25 191 -48 35 -53 36 -94 11z"/>
<path d="M9355 3399 c-34 -38 -37 -46 -32 -86 7 -60 38 -93 90 -93 33 0 46 7
83 44 63 62 57 108 -20 155 -51 32 -78 27 -121 -20z"/>
<path d="M1354 3191 c-17 -4 -35 -11 -41 -14 -20 -13 -44 -76 -37 -101 7 -28
76 -96 97 -96 19 0 92 56 111 85 32 49 10 99 -57 124 -31 12 -29 12 -73 2z"/>
<path d="M8256 2972 c-37 -38 -38 -42 -31 -89 6 -46 21 -605 24 -903 l1 -145
41 -43 c44 -45 78 -53 136 -31 70 26 92 83 55 144 -17 28 -18 52 -11 415 5
212 9 424 10 471 1 64 -3 95 -16 123 -24 50 -75 87 -128 93 -39 4 -45 1 -81
-35z"/>
<path d="M9298 2922 c-9 -4 -32 -22 -52 -40 -40 -36 -47 -77 -22 -135 20 -48
80 -97 119 -97 57 0 124 86 113 144 -8 38 -28 63 -85 104 -47 34 -47 34 -73
24z"/>
<path d="M3275 2872 c-35 -25 -65 -76 -65 -112 0 -88 85 -129 157 -74 49 37
68 78 52 116 -22 53 -109 96 -144 70z"/>
<path d="M1322 2638 c-23 -18 -44 -41 -48 -51 -12 -35 6 -102 37 -140 27 -32
36 -37 74 -37 37 0 47 5 79 40 45 50 53 82 33 125 -15 31 -97 95 -123 95 -6 0
-30 -15 -52 -32z"/>
<path d="M4968 2333 c-34 -5 -78 -56 -78 -89 0 -52 59 -124 102 -124 24 0 117
86 124 116 3 12 1 31 -5 42 -10 20 -88 63 -107 61 -5 -1 -21 -4 -36 -6z"/>
<path d="M1270 2318 c-45 -17 -68 -47 -75 -100 -7 -48 -6 -51 31 -89 35 -36
42 -39 94 -39 63 0 79 11 104 72 21 48 7 88 -42 122 -53 36 -83 45 -112 34z"/>
<path d="M3225 2228 c-37 -14 -61 -43 -76 -90 -15 -47 4 -81 56 -98 50 -17 96
-5 132 33 42 43 51 81 27 108 -38 43 -96 62 -139 47z"/>
<path d="M9313 2094 c-17 -9 -39 -31 -47 -48 -14 -29 -14 -40 -2 -85 15 -60
41 -91 97 -116 37 -17 42 -17 75 -2 41 20 64 66 64 130 0 54 -24 87 -83 116
-51 25 -62 25 -104 5z"/>
<path d="M4940 1927 c-39 -13 -80 -67 -80 -104 0 -51 70 -133 114 -133 10 0
42 24 72 54 58 59 68 92 39 133 -11 16 -95 65 -107 62 -2 0 -19 -5 -38 -12z"/>
<path d="M6380 1857 c-36 -18 -70 -74 -70 -115 0 -38 31 -97 60 -112 40 -21
81 -12 121 28 68 69 63 116 -19 179 -48 37 -56 38 -92 20z"/>
<path d="M9425 1497 c-41 -13 -83 -54 -90 -89 -11 -46 13 -122 52 -167 29 -35
40 -41 73 -41 32 0 43 6 64 33 63 83 67 142 14 203 -51 58 -78 73 -113 61z"/>
</g>
</svg>
