<?xml version="1.0" standalone="no"?>
<!DOCTYPE svg PUBLIC "-//W3C//DTD SVG 20010904//EN"
 "http://www.w3.org/TR/2001/REC-SVG-20010904/DTD/svg10.dtd">
<svg version="1.0" xmlns="http://www.w3.org/2000/svg"
 width="1024.000000pt" height="1024.000000pt" viewBox="0 0 1024.000000 1024.000000"
 preserveAspectRatio="xMidYMid meet">
<metadata>
Created by potrace 1.10, written by Peter Selinger 2001-2011
</metadata>
<g transform="translate(0.000000,1024.000000) scale(0.100000,-0.100000)"
fill="#000000" stroke="none">
<path d="M6790 7399 c-13 -5 -38 -20 -55 -33 -18 -14 -90 -40 -182 -65 l-152
-41 -1500 -160 c-824 -88 -1537 -160 -1583 -160 -190 0 -423 34 -562 81 -66
23 -91 28 -100 19 -6 -6 -13 -50 -14 -98 l-4 -87 41 -61 c22 -33 108 -126 189
-206 143 -139 239 -216 299 -239 22 -8 160 8 661 77 728 100 642 102 716 -25
86 -150 142 -302 181 -496 28 -137 48 -353 43 -470 l-3 -79 -1740 -213 c-957
-116 -1749 -212 -1760 -212 -18 -1 -26 17 -59 122 -50 161 -89 254 -127 300
-55 67 -56 65 -62 -250 -4 -231 -9 -311 -26 -405 -70 -392 -212 -770 -378
-1005 -57 -80 -116 -208 -143 -308 -73 -272 5 -786 133 -877 38 -27 96 -29
143 -5 150 77 361 471 483 897 82 290 114 534 109 850 -3 214 -2 221 17 225
30 7 3409 435 3411 432 1 -1 -7 -428 -19 -949 -23 -1029 -22 -1059 28 -1251
32 -123 72 -213 115 -256 32 -31 37 -33 91 -29 93 7 152 66 199 202 48 141 50
192 50 1304 l0 1040 68 6 c37 4 463 34 947 67 484 33 1173 80 1530 104 961 67
1030 71 1059 57 59 -27 73 -96 41 -207 -38 -131 -189 -483 -421 -982 -52 -111
-94 -207 -94 -212 0 -26 40 -5 143 77 547 430 958 671 1215 713 119 19 172 62
192 157 19 88 -22 238 -107 391 -139 249 -456 636 -606 740 -71 49 -91 49
-177 2 -227 -123 -344 -163 -515 -176 -108 -8 -1248 -111 -3038 -276 -126 -12
-229 -20 -231 -18 -1 2 6 191 16 419 17 374 17 420 4 465 -19 62 -85 140 -163
191 -63 41 -145 105 -141 110 6 5 1888 199 2081 214 135 10 221 47 265 112 37
57 43 149 13 212 -34 68 -163 186 -257 232 -68 34 -88 39 -158 41 -45 2 -92
-2 -106 -8z"/>
<path d="M6170 4733 c-85 -14 -150 -57 -150 -99 0 -30 61 -68 168 -105 116
-41 326 -142 439 -212 134 -84 262 -186 400 -319 117 -114 167 -148 215 -148
85 0 165 60 199 148 18 46 22 79 23 167 1 97 -2 116 -23 160 -60 123 -207 221
-456 304 -111 37 -143 42 -440 76 -176 19 -327 35 -335 34 -8 -1 -26 -4 -40
-6z"/>
<path d="M2721 4376 c-56 -20 -61 -40 -22 -80 24 -24 64 -47 129 -72 349 -135
674 -368 946 -678 38 -43 83 -87 100 -97 40 -25 89 -24 142 1 84 41 127 149
128 320 1 98 -1 109 -31 173 -61 128 -156 199 -394 291 -174 67 -202 73 -531
116 -321 42 -410 47 -467 26z"/>
<path d="M6145 3480 c-78 -20 -125 -59 -125 -105 0 -19 16 -29 103 -65 228
-94 447 -220 639 -367 120 -92 274 -236 323 -303 53 -72 100 -100 166 -100
137 0 219 128 219 340 0 197 -119 333 -395 452 -165 71 -196 78 -512 118 -311
40 -364 44 -418 30z"/>
<path d="M2580 3253 c-40 -6 -78 -24 -84 -38 -7 -19 65 -75 153 -120 299 -150
628 -426 829 -695 110 -146 163 -178 247 -145 94 35 143 131 152 296 7 125
-15 205 -86 306 -55 77 -147 147 -286 215 -172 85 -211 95 -542 143 -305 44
-332 47 -383 38z"/>
</g>
</svg>
