<?xml version="1.0" standalone="no"?>
<!DOCTYPE svg PUBLIC "-//W3C//DTD SVG 20010904//EN"
 "http://www.w3.org/TR/2001/REC-SVG-20010904/DTD/svg10.dtd">
<svg version="1.0" xmlns="http://www.w3.org/2000/svg"
 width="1024.000000pt" height="1024.000000pt" viewBox="0 0 1024.000000 1024.000000"
 preserveAspectRatio="xMidYMid meet">
<metadata>
Created by potrace 1.10, written by Peter Selinger 2001-2011
</metadata>
<g transform="translate(0.000000,1024.000000) scale(0.100000,-0.100000)"
fill="#000000" stroke="none">
<path d="M8785 9670 c-3 -5 1 -10 10 -10 9 0 13 5 10 10 -3 6 -8 10 -10 10 -2
0 -7 -4 -10 -10z"/>
<path d="M8885 9019 c-90 -47 -121 -82 -176 -198 -42 -90 -48 -109 -40 -135 5
-17 9 -49 10 -71 1 -22 15 -168 32 -324 16 -156 27 -286 24 -289 -3 -4 -299
-45 -658 -94 l-652 -87 -645 -1 -644 0 -41 40 -40 40 -49 -35 c-34 -24 -61
-35 -85 -35 -20 0 -877 65 -1904 146 -1829 142 -1869 146 -1903 169 -19 13
-40 25 -46 27 -8 3 -4 27 14 79 36 101 47 161 55 298 8 151 -5 208 -60 268
-46 49 -108 73 -195 73 -120 0 -180 -40 -236 -156 -44 -91 -63 -172 -71 -306
l-7 -98 -166 127 c-92 70 -186 146 -209 170 -23 24 -48 43 -54 43 -6 0 -27 -9
-46 -21 -31 -19 -33 -24 -27 -57 4 -22 20 -52 41 -74 34 -35 34 -37 15 -47
-11 -6 -25 -24 -30 -41 -10 -28 -15 -30 -59 -30 -59 0 -94 -17 -112 -54 -22
-47 5 -64 135 -83 60 -9 111 -17 112 -19 11 -9 -27 -85 -59 -119 -42 -45 -51
-74 -30 -98 21 -26 68 -20 123 13 84 52 172 80 249 80 50 0 69 -4 69 -13 0 -7
-185 -899 -410 -1981 -226 -1082 -410 -1971 -410 -1974 0 -4 -42 36 -94 87
-101 100 -112 105 -162 64 -19 -16 -20 -25 -15 -78 6 -56 11 -66 75 -145 l69
-85 -84 -5 c-71 -4 -92 -10 -134 -36 -50 -30 -66 -62 -47 -91 4 -7 74 -25 155
-41 81 -16 149 -31 151 -33 3 -2 -58 -315 -134 -694 -113 -560 -145 -703 -170
-757 -59 -127 -49 -221 31 -292 45 -41 86 -47 114 -16 10 11 35 64 57 118 32
83 57 196 168 762 72 366 132 669 133 673 5 15 126 -87 122 -103 -2 -8 -40
-220 -85 -470 -45 -250 -90 -482 -100 -515 -11 -33 -67 -319 -126 -635 l-106
-575 23 -72 c18 -59 28 -74 53 -88 40 -21 64 -17 87 15 12 17 96 417 269 1270
138 685 254 1252 256 1260 5 13 8 12 19 -3 23 -31 78 -67 102 -67 32 0 69 25
92 64 l20 32 345 12 345 12 67 -25 68 -26 18 23 c10 13 18 27 18 31 0 7 61 3
117 -9 15 -3 25 -14 29 -32 10 -42 23 -52 69 -52 31 0 53 8 82 29 l40 29 394
-5 c314 -5 445 -2 646 11 l253 18 26 -21 c38 -30 108 -28 156 4 35 23 52 26
310 45 150 11 422 32 603 45 386 29 385 29 385 11 0 -24 34 -56 75 -71 l40
-14 60 65 60 65 430 35 c237 19 767 66 1179 104 412 39 763 70 780 70 26 0 35
-7 51 -36 22 -42 65 -67 99 -58 13 3 40 19 60 35 35 30 36 31 21 59 -19 36
-42 30 255 70 124 17 269 40 323 51 l99 21 26 -25 c41 -38 94 -67 125 -67 15
0 27 -3 27 -7 0 -5 65 -765 144 -1690 136 -1576 146 -1685 167 -1723 15 -26
34 -44 61 -55 86 -34 129 -10 135 78 2 28 -55 738 -127 1577 -72 839 -132
1561 -133 1605 l-2 79 48 9 c26 5 50 8 52 6 5 -6 18 -136 80 -809 214 -2336
226 -2455 241 -2478 14 -21 22 -24 63 -20 86 8 131 63 131 160 0 29 -70 807
-154 1728 -133 1458 -151 1676 -138 1684 63 37 142 145 142 195 0 27 -48 81
-72 81 -11 0 -38 -10 -59 -22 -21 -12 -40 -20 -42 -17 -2 2 -70 802 -152 1777
-115 1378 -145 1776 -136 1782 7 4 58 15 114 24 109 17 141 37 135 80 -4 30
-108 67 -163 59 -36 -6 -39 -5 -26 10 7 10 23 17 35 17 61 0 131 87 104 130
-14 22 -68 45 -77 32 -6 -8 -154 -72 -158 -68 -3 3 -32 289 -42 412 -7 86 -14
121 -34 160 -48 94 -129 145 -242 151 -63 3 -76 0 -130 -28z m159 -174 c26
-17 42 -71 26 -90 -7 -8 -2 -99 15 -286 14 -150 24 -278 21 -284 -4 -11 -145
-70 -150 -64 -1 2 -16 134 -31 292 l-29 288 -30 -7 c-28 -5 -23 2 54 80 46 47
88 86 93 86 4 0 18 -7 31 -15z m-7124 -222 c0 -18 -71 -385 -76 -391 -6 -9
-65 31 -61 41 2 7 21 86 42 177 36 159 49 190 82 190 7 0 13 -8 13 -17z m-105
-561 c-3 -7 -5 -20 -5 -28 0 -9 -11 -14 -35 -14 -37 0 -40 5 -29 58 l6 31 34
-17 c22 -10 33 -21 29 -30z m299 -64 c34 -12 62 -22 63 -23 2 -1 -3 -15 -9
-32 -26 -70 9 -126 280 -440 l174 -204 -43 -38 c-24 -21 -129 -113 -234 -204
l-190 -166 -7 32 c-4 17 -19 214 -33 437 -14 223 -30 425 -36 450 -6 25 -21
62 -34 82 -24 35 -26 62 -9 116 5 16 7 16 78 -10z m7016 -3 c0 -21 -8 -26 -52
-40 -28 -8 -65 -15 -81 -15 -24 0 -28 4 -25 22 2 18 15 25 68 39 87 23 90 23
90 -6z m-6322 -109 c205 -19 375 -36 378 -38 4 -4 -101 -106 -381 -369 l-60
-57 -185 240 c-102 132 -188 246 -192 253 -6 10 1 12 30 9 20 -3 205 -20 410
-38z m-1034 -26 c8 -8 -354 -1942 -375 -2005 -5 -16 -53 -248 -105 -515 -52
-267 -99 -498 -105 -515 -5 -16 -16 -79 -24 -140 -8 -60 -21 -126 -30 -145 -8
-19 -35 -150 -60 -290 -25 -140 -48 -261 -50 -268 -7 -21 -127 65 -121 86 3 9
152 719 331 1577 179 858 357 1709 396 1891 38 182 69 334 69 337 0 8 62 -3
74 -13z m1799 -64 c4 -24 64 -112 203 -297 l197 -263 -319 -313 c-175 -172
-322 -312 -325 -313 -5 0 -459 641 -467 660 -4 9 459 443 500 468 23 14 42 36
50 58 l12 34 72 0 71 0 6 -34z m5052 -13 c-8 -27 -33 -113 -56 -193 -23 -80
-49 -161 -59 -180 -10 -19 -21 -64 -25 -100 -10 -92 -16 -99 -48 -51 -15 22
-27 45 -27 51 0 6 -18 40 -41 75 -22 36 -39 69 -37 74 1 5 53 86 113 180 90
140 115 173 140 180 54 16 55 15 40 -36z m-4433 5 l366 -22 -141 -115 c-78
-64 -181 -153 -228 -199 l-86 -83 -144 183 c-78 101 -159 203 -178 227 l-35
44 39 -6 c22 -4 205 -16 407 -29z m4958 20 c0 -7 -26 -21 -58 -30 -32 -9 -65
-20 -75 -24 -11 -4 -19 0 -23 10 -9 24 -2 28 78 41 40 7 74 13 76 14 1 0 2 -5
2 -11z m-4326 -58 c40 0 42 -2 71 -58 50 -96 199 -312 287 -415 96 -113 130
-158 126 -168 -4 -10 -572 -519 -579 -519 -7 0 -489 605 -489 614 0 3 110 123
245 268 156 167 244 267 240 276 -4 12 1 13 26 8 17 -3 50 -6 73 -6z m3444
-49 c-18 -28 -36 -51 -40 -51 -3 0 -21 18 -38 40 -23 28 -28 41 -18 44 18 7
122 23 126 20 2 -1 -12 -25 -30 -53z m-2733 18 c160 -7 292 -13 293 -15 3 -2
-319 -385 -369 -438 -17 -18 -23 -11 -191 215 -96 129 -178 240 -182 248 -8
12 4 13 75 8 46 -4 215 -12 374 -18z m2528 -121 c29 -67 43 -115 38 -122 -157
-200 -255 -335 -271 -370 -16 -39 -25 -46 -59 -55 -23 -6 -59 -16 -82 -22 -23
-6 -42 -9 -43 -7 -2 2 -34 93 -71 203 -38 110 -74 212 -81 226 -12 24 -8 30
82 131 l94 106 97 7 c54 3 105 8 113 9 8 2 42 4 76 5 l61 1 46 -112z m-1278
61 c248 -12 451 -22 452 -23 0 0 3 -18 4 -38 3 -36 -7 -49 -231 -309 -129
-150 -238 -276 -241 -282 -4 -5 -35 -11 -70 -14 -59 -5 -65 -3 -78 19 -8 12
-104 171 -213 351 l-198 328 62 -6 c35 -3 266 -15 513 -26z m620 1 c-3 -5 -14
-10 -23 -9 -14 0 -13 2 3 9 27 11 27 11 20 0z m1529 -1630 c86 -894 157 -1639
160 -1656 4 -29 -3 -24 -83 61 -202 215 -320 460 -390 810 -39 192 -59 375
-67 598 -7 170 -6 178 13 200 30 33 55 87 50 107 -3 13 3 22 23 30 59 24 100
89 100 157 0 43 -34 119 -61 136 -11 7 -19 16 -19 20 0 5 -13 26 -28 46 l-29
36 13 233 c14 246 22 325 55 512 26 150 95 377 105 345 2 -6 73 -741 158
-1635z m-2775 1387 c17 -35 57 -105 89 -153 32 -49 94 -155 138 -235 l81 -146
-72 -74 c-40 -42 -75 -88 -79 -105 -23 -95 -27 -104 -46 -104 -24 0 -153 -93
-175 -126 -9 -14 -19 -43 -23 -65 l-7 -40 -255 358 c-140 196 -256 362 -258
370 -2 7 115 132 260 278 l262 266 27 -79 c15 -44 41 -109 58 -145z m3015 166
c9 -82 266 -3189 266 -3213 0 -18 -7 -20 -65 -20 -56 0 -65 3 -65 18 0 10 -67
732 -150 1606 -82 873 -150 1597 -150 1610 0 19 9 25 63 38 97 25 94 26 101
-39z m-7220 -679 l7 -359 -50 -418 c-28 -229 -58 -441 -67 -470 -8 -28 -24
-79 -34 -112 -10 -33 -30 -125 -45 -205 -15 -80 -33 -163 -41 -185 -8 -22 -28
-107 -44 -190 -17 -82 -41 -179 -55 -215 -103 -273 -209 -548 -217 -565 -13
-24 -131 -186 -134 -182 -1 2 269 1399 587 3032 61 314 63 319 74 274 7 -27
15 -188 19 -405z m5455 252 c39 -104 71 -194 71 -200 0 -6 -17 -21 -38 -32
-50 -29 -171 -142 -206 -193 -16 -23 -32 -41 -36 -41 -4 0 -16 19 -26 42 -24
54 -116 148 -172 177 -28 14 -40 26 -35 34 12 20 365 408 368 405 2 -2 35 -88
74 -192z m810 83 c19 -64 93 -136 157 -155 30 -8 58 -13 64 -9 12 7 13 -259 1
-289 -6 -16 -14 -11 -57 40 -131 156 -188 199 -307 231 l-65 18 90 103 c50 56
94 102 98 102 4 0 12 -19 19 -41z m-5278 -391 c104 -147 189 -272 189 -277 0
-6 -10 -11 -21 -11 -12 0 -96 -24 -188 -54 -138 -45 -190 -68 -309 -136 -78
-45 -149 -79 -157 -76 -8 3 -80 51 -160 107 l-145 102 0 96 0 96 132 85 c93
60 177 127 287 227 141 128 157 141 169 125 7 -9 99 -137 203 -284z m1293 82
c76 -88 126 -154 126 -167 0 -12 47 -83 106 -158 58 -75 104 -138 102 -139 -1
-1 -29 -23 -61 -49 l-57 -46 -58 27 c-48 22 -75 26 -167 30 l-110 4 -83 -66
c-46 -36 -86 -66 -88 -66 -2 0 -23 15 -46 33 -71 53 -230 117 -295 117 -12 0
-42 12 -67 27 l-45 27 37 46 c54 67 564 542 573 533 4 -5 64 -73 133 -153z
m1541 -459 c4 -13 58 -94 120 -181 62 -86 120 -168 129 -182 l17 -26 -237
-273 c-131 -151 -241 -274 -246 -274 -9 0 -718 895 -718 907 0 4 129 125 286
268 l286 261 178 -238 c98 -131 181 -249 185 -262z m2256 379 c66 -34 96 -61
221 -192 l144 -153 -7 -95 c-4 -52 -8 -135 -8 -183 -1 -111 -26 -204 -57 -210
l-21 -4 19 49 c35 93 15 155 -66 203 -33 19 -48 36 -57 63 -64 195 -191 320
-358 352 -47 9 -57 7 -102 -15 -42 -22 -49 -30 -49 -54 0 -54 91 -130 156
-131 24 0 135 -125 205 -230 22 -33 44 -60 49 -60 6 0 10 -6 10 -14 0 -8 12
-28 26 -46 26 -30 26 -31 8 -51 -17 -18 -26 -20 -69 -14 -85 13 -113 10 -140
-15 -25 -23 -52 -118 -41 -146 4 -11 -6 -14 -50 -14 -48 0 -59 -4 -85 -29 -35
-36 -39 -90 -9 -128 11 -14 20 -30 20 -34 0 -17 -27 -9 -50 16 -13 14 -35 25
-48 25 -17 0 -40 16 -71 50 -25 28 -51 50 -57 50 -51 0 -124 -279 -124 -476 0
-66 -4 -95 -14 -103 -11 -10 -17 -4 -29 31 -11 34 -12 58 -5 108 17 118 -9
214 -72 275 -30 29 -31 29 -73 15 l-42 -15 -6 -235 c-7 -254 -24 -378 -74
-515 l-25 -70 5 110 c3 61 8 171 11 245 4 82 2 173 -6 230 -6 52 -13 119 -16
148 -6 76 -27 110 -82 134 -54 24 -67 19 -100 -40 -34 -62 -38 -129 -12 -252
42 -197 25 -473 -35 -587 -14 -25 -25 -58 -25 -73 0 -32 -110 -234 -121 -223
-11 12 -46 139 -66 238 -13 66 -17 137 -17 270 1 353 61 630 199 922 60 127
86 150 158 139 35 -6 44 -3 83 29 41 34 42 37 32 68 -12 37 -36 67 -53 67 -6
0 -17 16 -24 35 -26 74 -100 84 -184 26 l-45 -31 -95 20 c-120 24 -167 46
-167 77 0 13 -13 34 -30 50 -44 39 -40 70 23 170 48 77 57 86 116 116 48 23
82 33 131 35 93 6 152 -21 230 -105 l60 -64 -6 -63 c-13 -131 51 -213 123
-156 14 11 34 20 44 20 11 0 54 50 120 141 64 88 119 154 148 175 94 68 222
121 386 157 56 13 93 5 166 -33z m-4714 -494 c97 -21 123 -32 166 -74 34 -34
43 -37 115 -43 43 -4 92 -14 108 -22 34 -18 137 -114 182 -171 28 -35 36 -40
85 -44 50 -4 56 -2 72 21 9 14 18 45 19 70 2 24 12 58 22 76 16 27 24 31 59
31 59 0 70 -12 34 -35 -37 -25 -44 -46 -29 -90 14 -44 35 -55 99 -55 43 0 52
4 70 29 35 48 25 99 -24 130 -17 10 -11 11 40 7 103 -9 118 -60 47 -165 l-37
-55 -145 -41 c-79 -23 -148 -49 -154 -57 -6 -11 -3 -24 11 -44 19 -26 19 -32
7 -49 -19 -26 -18 -79 4 -97 28 -24 49 -29 201 -44 79 -8 148 -17 153 -20 4
-3 15 -20 24 -37 9 -18 31 -54 49 -82 29 -44 36 -71 60 -210 63 -380 104 -832
77 -849 -5 -3 -22 13 -38 34 -25 34 -36 40 -77 46 -38 5 -51 12 -59 30 -13 27
-40 38 -143 55 -76 13 -76 13 -94 55 -28 63 -75 80 -135 49 -30 -16 -45 -8
-46 23 0 28 -31 70 -60 82 -20 8 -51 11 -89 7 l-58 -6 -11 37 c-6 20 -14 53
-17 73 -11 73 -76 117 -155 106 -34 -4 -38 -2 -48 27 -7 18 -12 53 -12 77 0
25 -5 50 -12 57 -8 8 -46 12 -105 12 l-93 0 0 -26 0 -26 -70 7 -70 7 -301
-197 c-166 -108 -308 -199 -315 -202 -9 -3 -14 2 -14 13 0 11 -4 25 -9 33 -10
15 -40 3 -77 -30 -20 -19 -21 -18 -57 19 l-37 38 56 123 c48 107 177 338 235
423 24 35 25 33 -13 89 -31 44 -37 48 -85 55 -29 3 -88 5 -132 3 -54 -3 -77
-1 -73 6 4 6 26 36 50 67 48 62 47 77 -3 117 -46 36 -80 36 -150 2 -58 -29
-105 -40 -105 -25 0 4 21 46 46 94 38 72 66 107 153 193 88 87 132 121 266
204 211 130 237 142 390 176 45 10 188 6 252 -7z m1746 -504 c196 -248 357
-455 357 -460 0 -7 -334 -369 -431 -467 l-30 -30 -47 52 c-26 28 -66 61 -89
72 -24 12 -43 23 -43 24 0 2 -25 125 -55 275 l-54 272 -62 74 c-47 56 -75 80
-119 101 l-58 28 52 51 c28 29 65 77 81 109 18 33 37 57 46 57 23 0 67 36 84
69 12 25 12 31 -5 55 -21 33 -68 66 -92 66 -10 0 -22 9 -28 19 -8 17 -1 26 52
65 50 37 65 44 73 33 5 -7 171 -216 368 -465z m-2770 344 c15 -11 27 -24 27
-29 0 -5 -46 -64 -101 -131 -56 -66 -115 -143 -132 -169 -16 -26 -31 -46 -33
-45 -3 3 58 395 72 461 l6 28 66 -48 c37 -26 79 -56 95 -67z m3892 88 l36 -6
-32 -20 -33 -20 -18 24 c-21 28 -23 42 -4 35 8 -3 31 -9 51 -13z m242 -44 c44
-39 119 -77 189 -95 32 -8 59 -17 61 -19 2 -2 -16 -41 -41 -87 -44 -81 -116
-278 -116 -315 0 -16 -2 -16 -14 -4 -7 8 -59 85 -114 171 l-101 156 21 50 c24
58 20 87 -17 132 l-26 30 28 4 c74 11 95 7 130 -23z m-160 -517 c46 -76 132
-163 187 -189 27 -13 35 -22 31 -38 -2 -12 -9 -75 -15 -141 -9 -90 -16 -125
-30 -140 -9 -11 -84 -120 -166 -243 -119 -180 -150 -220 -160 -210 -7 7 -110
148 -228 313 l-214 299 31 36 c17 19 128 140 246 268 l216 233 30 -60 c16 -33
49 -90 72 -128z m2147 -195 c21 -172 41 -328 44 -346 4 -27 2 -31 -12 -26 -9
4 -16 17 -16 34 0 47 -29 200 -57 300 -22 78 -39 113 -95 195 -43 64 -63 101
-55 104 6 2 18 12 25 22 11 16 37 23 102 27 l26 2 38 -312z m-296 27 c53 -114
75 -172 87 -240 17 -91 33 -134 65 -170 16 -19 180 -293 180 -301 0 -2 -6 -4
-13 -4 -45 0 -72 -87 -52 -164 12 -44 11 -53 -2 -68 -12 -13 -14 -28 -8 -64
l7 -47 -39 8 c-21 4 -39 8 -41 10 -2 2 6 21 17 42 20 40 20 40 0 72 -19 31
-19 35 -3 124 9 51 16 101 16 112 -1 29 -48 65 -83 65 -38 0 -84 -24 -94 -47
-5 -14 -11 -7 -25 30 -23 59 -28 66 -115 140 -38 33 -74 70 -78 81 -5 12 -12
65 -17 118 -7 82 -13 106 -39 153 -17 30 -31 66 -31 81 0 51 174 261 192 231
3 -7 38 -79 76 -162z m-6021 -37 c22 -22 43 -32 76 -35 40 -5 46 -8 51 -36 16
-78 76 -127 158 -127 30 0 50 -6 61 -17 14 -17 9 -28 -59 -143 -60 -102 -78
-125 -95 -122 -36 4 -89 -29 -120 -75 l-31 -44 -41 34 c-22 18 -55 60 -71 91
-28 53 -49 72 -114 103 -2 0 22 119 52 263 31 143 56 264 57 268 0 4 11 -24
23 -61 14 -41 35 -81 53 -99z m5505 -296 c2 -31 0 -38 -15 -38 -11 0 -15 6
-12 14 3 8 8 25 11 38 8 33 11 30 16 -14z m-1832 -292 c121 -171 223 -317 227
-325 3 -10 -55 -95 -158 -231 -90 -118 -166 -217 -170 -220 -4 -2 -25 3 -47
11 -30 12 -75 57 -193 193 -85 97 -198 227 -252 289 l-97 112 232 240 c127
133 233 241 234 241 2 0 102 -140 224 -310z m1841 -164 c-57 -39 -103 -99
-130 -171 -11 -30 -45 -94 -75 -140 l-54 -85 -83 97 c-45 54 -90 107 -101 119
-18 20 -17 24 62 195 l80 174 72 0 c40 0 79 4 87 9 7 5 22 29 34 54 l20 46 67
-134 67 -134 -46 -30z m-4177 172 c11 -65 74 -123 154 -139 34 -7 62 -18 62
-24 0 -5 11 -34 25 -62 29 -63 91 -108 164 -118 44 -6 50 -10 71 -48 62 -114
163 -250 256 -347 l103 -106 -102 -102 -102 -102 -490 0 -491 0 -57 58 -57 57
166 220 c91 121 194 249 228 285 35 36 77 86 95 112 33 49 71 131 71 151 0 7
-18 25 -40 40 -84 59 -120 26 -434 -386 l-219 -287 -46 42 c-157 142 -163 149
-147 172 34 49 136 144 191 177 77 46 118 103 117 164 l0 44 165 107 c170 110
163 107 304 133 4 0 9 -18 13 -41z m-1485 -73 c52 -60 79 -100 74 -108 -5 -9
-246 -349 -259 -366 -2 -2 -14 5 -27 16 l-24 19 75 267 c42 147 76 267 77 267
1 0 39 -43 84 -95z m4515 -112 c44 -308 54 -342 125 -406 40 -36 86 -52 132
-45 18 2 46 36 116 142 50 76 96 143 101 148 6 6 21 4 41 -6 26 -14 47 -48
121 -194 49 -97 98 -190 109 -207 l21 -30 -328 -32 c-180 -17 -339 -32 -354
-32 -25 -1 -39 19 -173 243 l-147 244 101 151 c56 83 105 151 109 151 4 0 16
-57 26 -127z m1476 37 c0 -15 -3 -42 -6 -60 l-7 -32 -38 69 c-21 37 -39 71
-39 75 0 4 20 0 45 -9 39 -13 45 -19 45 -43z m-3106 -69 c-29 -68 -2 -106 78
-106 l51 0 192 -210 c105 -115 219 -242 253 -282 43 -50 71 -73 92 -78 27 -6
50 -29 39 -40 -5 -4 -790 -65 -845 -65 -37 0 -45 5 -97 64 -31 36 -57 70 -56
78 0 7 13 33 28 58 l28 45 74 -3 c54 -3 78 0 86 10 18 21 41 125 53 231 11 93
9 123 -16 327 l-5 45 26 -29 c17 -18 24 -34 19 -45z m3037 -298 l108 -198 -32
-3 c-158 -15 -463 -39 -466 -36 -8 7 33 102 84 194 51 90 181 257 193 246 2
-3 53 -94 113 -203z m-5406 20 c-21 -52 -22 -60 -9 -85 8 -15 14 -35 14 -44 0
-17 173 -256 210 -289 11 -10 20 -22 20 -27 0 -5 -21 -31 -46 -58 l-47 -50
-197 0 -197 0 -47 71 c-26 38 -94 121 -152 184 l-105 114 48 71 48 71 55 -6
c30 -3 81 0 114 6 59 10 59 10 87 -20 15 -17 35 -31 44 -31 8 0 52 33 98 74
45 41 83 75 84 75 1 1 -9 -25 -22 -56z m6316 -75 c-19 -9 -613 -120 -616 -116
-1 2 -18 34 -38 71 l-37 68 92 -5 c51 -3 172 -8 269 -11 198 -7 229 -1 270 54
l22 30 27 -42 c24 -37 25 -43 11 -49z m-2585 -80 c74 -124 111 -204 101 -215
-6 -5 -467 -44 -485 -41 -12 3 284 388 299 388 4 0 42 -59 85 -132z m-1826 76
c14 -13 40 -29 58 -35 18 -6 32 -14 32 -18 0 -4 -15 -25 -33 -46 l-33 -38 -60
69 c-95 109 -92 102 -37 97 31 -4 57 -14 73 -29z m-2746 -179 c-55 -80 -61
-78 -19 5 26 52 40 69 47 62 8 -8 0 -27 -28 -67z m7826 -24 c0 -23 -31 -34
-72 -25 -67 14 -60 34 11 34 34 0 61 -4 61 -9z m-7560 -163 l82 -103 -153 -7
c-84 -4 -155 -6 -157 -3 -3 2 8 24 23 47 42 65 116 168 120 168 2 0 40 -46 85
-102z m2538 -71 c3 -13 -4 -17 -29 -17 -32 0 -32 0 -14 20 21 23 38 22 43 -3z
m-3436 -193 c-2 -13 -8 -27 -12 -29 -9 -6 -44 47 -55 83 l-7 23 40 -26 c32
-21 38 -30 34 -51z"/>
<path d="M6595 6629 c-39 -34 -44 -63 -20 -109 19 -36 43 -50 88 -50 36 0 64
24 84 71 9 21 8 32 -7 57 -41 68 -91 78 -145 31z"/>
<path d="M7528 6538 c-41 -17 -48 -25 -48 -49 0 -34 8 -42 116 -120 60 -44 91
-74 106 -103 35 -70 66 -96 114 -96 34 0 47 5 63 26 34 43 34 59 0 126 -72
140 -131 196 -236 223 -69 18 -58 19 -115 -7z"/>
<path d="M3215 6181 c-59 -34 -145 -122 -145 -149 0 -28 52 -72 86 -72 84 0
165 54 205 137 l22 45 -39 34 c-48 41 -65 42 -129 5z"/>
<path d="M2686 6115 c-104 -66 -123 -85 -157 -148 -38 -72 -25 -141 36 -200
34 -33 36 -39 30 -77 -10 -59 26 -104 102 -126 117 -34 231 3 278 90 l19 35
-28 30 c-30 31 -103 57 -137 48 -21 -6 -21 -5 3 21 14 15 37 45 52 67 l26 39
-46 47 -46 46 45 11 c35 9 50 20 66 47 28 49 27 61 -13 101 -29 29 -41 34 -82
34 -43 0 -61 -9 -148 -65z"/>
<path d="M3685 5458 c-44 -16 -52 -25 -70 -77 -35 -105 20 -205 131 -237 43
-12 57 -21 65 -42 26 -69 97 -108 177 -98 l47 6 30 -52 c43 -75 89 -99 179
-96 l68 3 43 -42 c40 -41 45 -43 101 -43 38 0 68 6 82 16 48 34 68 116 35 147
-10 8 -39 21 -64 27 -41 10 -49 17 -65 52 -47 105 -104 121 -197 56 -21 -15
-31 -2 -57 71 -21 63 -57 86 -131 86 -56 -1 -59 1 -59 23 0 62 -61 112 -136
112 -26 0 -34 4 -34 18 0 26 -50 71 -85 76 -17 3 -43 0 -60 -6z"/>
<path d="M3272 5438 c-13 -6 -21 -16 -19 -22 2 -6 -20 -29 -49 -51 -62 -46
-67 -56 -52 -89 24 -54 147 -70 207 -27 42 30 91 105 84 130 -3 11 -16 29 -29
42 -27 26 -106 35 -142 17z"/>
<path d="M2797 5251 c-62 -41 -100 -85 -117 -137 -14 -41 -2 -67 43 -94 42
-26 69 -25 94 3 30 32 133 183 133 194 0 9 -79 74 -89 72 -3 0 -32 -17 -64
-38z"/>
<path d="M8004 5431 c-60 -37 -74 -78 -45 -134 13 -26 17 -49 14 -77 -5 -34
-1 -43 24 -68 22 -23 36 -29 56 -25 47 9 107 98 107 159 0 49 -51 118 -116
157 -6 3 -24 -2 -40 -12z"/>
<path d="M3705 4414 c-16 -8 -43 -27 -58 -42 -25 -23 -28 -33 -24 -69 6 -56
21 -73 65 -73 77 0 168 71 155 121 -8 30 -62 79 -86 79 -12 0 -35 -7 -52 -16z"/>
<path d="M8170 3260 c-37 -10 -570 -409 -570 -426 0 -28 28 -82 48 -93 12 -6
33 -11 47 -11 31 0 235 105 320 166 114 81 271 265 258 302 -9 24 -42 59 -61
64 -10 3 -28 2 -42 -2z"/>
<path d="M8684 2988 c-16 -12 -90 -77 -164 -143 -129 -115 -145 -126 -378
-254 l-244 -134 7 -36 c9 -53 39 -74 94 -66 189 28 441 149 593 283 112 99
238 256 238 297 0 9 -13 30 -29 46 -36 35 -77 38 -117 7z"/>
<path d="M1659 2585 c-49 -26 -64 -62 -62 -145 4 -202 134 -451 308 -591 l60
-49 123 0 c123 0 123 0 117 23 -16 53 -45 83 -118 122 -156 84 -264 239 -287
413 -6 46 -8 103 -4 127 l6 44 -55 35 c-31 20 -57 36 -59 36 -2 -1 -15 -7 -29
-15z"/>
<path d="M1296 1841 c-27 -28 -27 -29 -18 -112 8 -74 16 -95 62 -179 71 -128
98 -166 161 -225 89 -84 175 -126 295 -145 63 -10 68 -9 90 11 13 12 26 35 29
51 9 40 -18 68 -111 112 -90 43 -166 98 -226 165 -68 75 -105 137 -113 184
-10 57 -38 109 -75 141 -40 33 -60 33 -94 -3z"/>
</g>
</svg>
