<?xml version="1.0" standalone="no"?>
<!DOCTYPE svg PUBLIC "-//W3C//DTD SVG 20010904//EN"
 "http://www.w3.org/TR/2001/REC-SVG-20010904/DTD/svg10.dtd">
<svg version="1.0" xmlns="http://www.w3.org/2000/svg"
 width="1024.000000pt" height="1024.000000pt" viewBox="0 0 1024.000000 1024.000000"
 preserveAspectRatio="xMidYMid meet">
<metadata>
Created by potrace 1.10, written by Peter Selinger 2001-2011
</metadata>
<g transform="translate(0.000000,1024.000000) scale(0.100000,-0.100000)"
fill="#000000" stroke="none">
<path d="M8777 8598 c9 -12 -2 -787 -11 -814 -2 -6 -102 -63 -223 -126 -120
-64 -908 -526 -1751 -1027 -844 -501 -1537 -909 -1540 -907 -4 2 -551 333
-1217 736 -665 403 -1437 870 -1715 1038 -277 167 -530 324 -561 347 -31 24
-113 78 -183 120 l-127 77 8 121 c4 67 8 153 8 191 l0 70 -110 27 c-64 16
-112 24 -115 18 -4 -5 -16 -107 -27 -227 l-22 -217 7 -3190 c7 -3064 8 -3191
25 -3217 38 -55 119 -48 168 13 29 37 32 48 37 135 l5 94 71 21 c52 16 169 78
436 234 201 117 574 333 830 480 256 147 920 538 1475 868 556 330 1013 602
1017 604 4 2 755 -442 1669 -988 914 -545 1676 -997 1695 -1005 18 -8 43 -14
54 -14 18 0 20 -6 20 -68 0 -44 5 -75 15 -88 11 -15 14 -55 15 -188 0 -166 -1
-170 -24 -195 -13 -15 -26 -35 -28 -46 -3 -19 5 -20 125 -28 71 -5 130 -7 132
-5 2 2 10 80 18 173 12 133 14 274 11 655 -3 267 7 1718 21 3225 20 2151 28
2768 40 2870 21 198 25 180 -47 203 -69 23 -158 42 -190 42 -15 0 -18 -3 -11
-12z m-5497 -1878 c993 -606 1806 -1103 1807 -1104 3 -3 -1039 -613 -1053
-618 -6 -2 -344 193 -750 434 -798 471 -1780 1028 -1813 1028 -21 0 -21 0 -21
686 0 545 3 685 13 681 6 -2 824 -501 1817 -1107z m5486 -417 c-2 -2 -17 4
-33 14 l-30 17 -199 -106 c-203 -107 -453 -253 -579 -338 -38 -25 -132 -82
-208 -125 -76 -43 -159 -97 -185 -120 -28 -24 -266 -164 -577 -339 -291 -164
-533 -298 -538 -299 -4 -1 -218 129 -476 288 -434 268 -468 291 -453 306 9 9
559 333 1222 720 663 387 1396 815 1630 952 l425 248 3 -607 c1 -334 0 -609
-2 -611z m-7186 -95 c36 -25 559 -332 1163 -683 604 -351 1096 -639 1095 -640
-2 -2 -524 -300 -1161 -664 -990 -565 -1164 -661 -1198 -661 l-39 0 0 603 c0
332 3 949 7 1370 l6 767 31 -23 c17 -13 60 -44 96 -69z m7177 -1340 c-7 -697
-15 -1270 -18 -1272 -6 -6 -2082 1259 -2086 1271 -2 4 202 130 453 278 251
149 478 286 503 306 25 20 172 105 326 188 154 83 404 229 555 324 151 96 276
173 277 173 1 -1 -4 -572 -10 -1268z m-2988 326 c254 -158 458 -291 454 -295
-4 -4 -231 -138 -504 -299 l-497 -291 -490 278 c-269 153 -487 281 -483 285
17 18 1037 616 1047 613 6 -2 218 -132 473 -291z m-1208 -715 c264 -149 476
-276 472 -280 -18 -18 -3596 -2109 -3601 -2105 -2 3 -1 275 3 605 l7 599 32
-4 c24 -4 73 14 216 79 162 74 318 164 1269 736 719 432 1091 651 1103 648 10
-3 235 -128 499 -278z m2560 -108 c555 -331 717 -433 1069 -674 228 -156 445
-298 483 -315 l67 -31 0 -63 c0 -35 -9 -272 -20 -528 -11 -256 -20 -477 -20
-492 0 -26 -8 -22 -177 96 -129 89 -577 356 -1623 966 -795 463 -1446 843
-1447 844 -3 3 1001 586 1008 586 4 0 301 -175 660 -389z"/>
</g>
</svg>
