<?xml version="1.0" standalone="no"?>
<!DOCTYPE svg PUBLIC "-//W3C//DTD SVG 20010904//EN"
 "http://www.w3.org/TR/2001/REC-SVG-20010904/DTD/svg10.dtd">
<svg version="1.0" xmlns="http://www.w3.org/2000/svg"
 width="1024.000000pt" height="1024.000000pt" viewBox="0 0 1024.000000 1024.000000"
 preserveAspectRatio="xMidYMid meet">
<metadata>
Created by potrace 1.10, written by Peter Selinger 2001-2011
</metadata>
<g transform="translate(0.000000,1024.000000) scale(0.100000,-0.100000)"
fill="#000000" stroke="none">
<path d="M7985 6659 c-123 -30 -249 -42 -3020 -279 -187 -17 -416 -36 -510
-45 -228 -20 -981 -86 -1380 -120 -99 -8 -279 -24 -400 -35 -121 -10 -303 -26
-405 -35 -102 -8 -202 -18 -223 -20 -31 -4 -50 1 -92 25 -46 26 -88 37 -278
70 l-224 39 -67 -25 c-36 -14 -66 -29 -66 -32 1 -4 41 -51 89 -105 49 -55 103
-125 120 -156 79 -149 177 -549 296 -1206 30 -170 64 -357 74 -415 11 -58 22
-125 26 -150 23 -158 85 -312 144 -361 111 -91 243 -3 267 179 5 38 11 52 23
52 9 0 354 25 766 55 413 30 845 62 960 70 470 34 1994 146 2055 150 36 3 252
19 480 35 228 17 442 32 475 35 33 3 187 14 342 25 l282 21 38 -41 c84 -94
198 -119 302 -66 66 34 176 143 218 216 87 152 240 637 334 1059 57 252 114
398 188 476 37 40 81 107 81 126 0 5 -53 66 -117 135 -91 96 -138 138 -204
179 -183 114 -328 176 -408 174 -25 -1 -100 -14 -166 -30z m71 -441 c35 -18
56 -38 67 -60 15 -32 12 -49 -89 -503 -89 -399 -114 -496 -166 -640 -34 -93
-63 -171 -64 -173 0 -1 -149 -11 -330 -22 -987 -57 -1294 -73 -1300 -68 -5 6
225 1417 232 1427 2 2 254 17 561 32 306 16 588 30 627 32 39 2 148 3 241 3
163 -2 172 -3 221 -28z m-2156 -80 c0 -7 -45 -274 -100 -593 -55 -319 -110
-640 -122 -712 -20 -120 -24 -133 -43 -133 -11 0 -276 -16 -590 -35 -643 -39
-654 -40 -659 -22 -2 6 -20 158 -40 337 -20 179 -55 484 -78 678 -23 194 -39
355 -36 358 4 3 291 28 640 54 348 27 667 52 708 56 335 27 320 27 320 12z
m-2119 -170 c7 -31 153 -1384 149 -1385 -11 -5 -1624 -153 -1627 -149 -3 3
-31 187 -153 1004 -29 194 -51 354 -48 357 3 4 1591 170 1656 174 12 0 22 0
23 -1z"/>
</g>
</svg>
