<?xml version="1.0" standalone="no"?>
<!DOCTYPE svg PUBLIC "-//W3C//DTD SVG 20010904//EN"
 "http://www.w3.org/TR/2001/REC-SVG-20010904/DTD/svg10.dtd">
<svg version="1.0" xmlns="http://www.w3.org/2000/svg"
 width="480.000000pt" height="480.000000pt" viewBox="0 0 480.000000 480.000000"
 preserveAspectRatio="xMidYMid meet">
<metadata>
Created by potrace 1.11, written by Peter Selinger 2001-2013
</metadata>
<g transform="translate(0.000000,480.000000) scale(0.100000,-0.100000)"
fill="#000000" stroke="none">
<path d="M2560 3961 c-153 -22 -331 -91 -768 -297 -131 -62 -225 -130 -334
-242 -184 -190 -259 -316 -302 -507 -39 -177 -47 -256 -46 -499 0 -221 -1
-234 -35 -411 -50 -259 -149 -519 -245 -645 -14 -19 -38 -55 -52 -80 -33 -58
-113 -149 -186 -211 -98 -85 -339 -189 -438 -189 -31 0 -64 -37 -64 -73 l0
-28 58 5 c31 3 109 8 172 11 63 3 140 8 170 10 30 2 114 7 185 10 72 4 146 8
165 10 55 6 320 19 370 19 105 -1 467 -16 486 -20 17 -4 23 0 28 23 8 32 43
73 63 73 7 0 28 17 47 37 27 30 42 38 72 39 22 1 93 9 159 18 65 9 135 16 155
16 45 0 74 19 64 43 -6 17 -7 17 -21 0 -8 -10 -12 -12 -8 -5 3 6 1 12 -5 12
-6 0 -8 5 -4 12 4 7 3 8 -5 4 -6 -4 -9 -11 -7 -15 3 -4 -1 -8 -9 -8 -10 0 -11
5 -5 17 6 12 5 17 -5 17 -8 0 -12 -4 -10 -8 9 -13 -25 -3 -38 11 -10 12 -9 12
4 2 14 -10 18 -10 23 3 3 9 2 13 -4 10 -13 -8 -52 14 -45 25 3 6 -1 7 -9 4 -8
-3 -16 0 -19 8 -2 7 -3 6 -2 -3 1 -9 -3 -16 -10 -16 -7 0 -11 6 -8 14 7 18 -7
16 -22 -4 -9 -13 -14 -13 -20 -3 -6 9 -4 11 5 5 10 -6 12 -4 7 8 -3 9 -1 19 5
23 7 5 8 2 3 -7 -5 -8 -4 -10 0 -6 16 14 13 34 -4 33 -9 0 -15 5 -13 12 1 8
-2 11 -8 7 -6 -4 -7 -12 -3 -19 4 -7 -2 0 -14 14 -13 14 -23 32 -23 40 0 13
-1 13 -10 0 -8 -13 -10 -12 -10 3 0 11 -4 15 -12 11 -7 -5 -8 -3 -4 5 5 7 15
10 25 7 11 -4 10 -2 -4 10 -11 8 -19 23 -17 32 2 15 1 15 -7 2 -8 -11 -11 -11
-11 -2 0 7 -4 11 -9 7 -5 -3 -13 0 -17 6 -4 8 -3 9 4 5 7 -4 12 -2 12 4 0 6 5
8 12 4 7 -4 1 7 -11 25 -16 22 -26 29 -31 21 -5 -8 -9 -7 -13 4 -3 8 -1 18 5
22 7 5 8 2 3 -7 -8 -12 -6 -12 8 0 23 18 11 34 -16 20 -22 -12 -22 -11 -4 9
13 14 15 22 7 27 -6 4 -9 14 -5 24 5 12 4 13 -6 4 -9 -9 -9 -16 -1 -26 9 -10
8 -14 -2 -14 -10 0 -13 9 -10 29 2 20 0 27 -9 22 -7 -4 -8 -3 -4 2 5 5 13 9
19 9 6 0 12 8 14 18 1 9 -2 15 -6 12 -10 -6 -35 34 -26 42 3 3 1 14 -5 24 -7
15 -6 17 5 13 9 -3 13 -15 10 -29 -5 -26 10 -42 22 -24 4 8 3 9 -4 5 -13 -8
-12 28 1 40 3 4 2 15 -4 26 -5 10 -6 24 -2 31 10 16 11 67 1 61 -4 -3 -5 3 -2
13 5 16 4 16 -10 -1 -9 -11 -16 -15 -16 -9 0 5 9 18 21 29 13 12 19 14 17 5
-2 -7 4 -16 12 -18 13 -4 13 -3 0 6 -8 6 -11 11 -6 11 5 0 3 7 -4 16 -11 12
-10 18 5 32 18 16 18 16 6 -1 -8 -9 -11 -20 -8 -24 4 -3 9 2 13 11 3 9 11 13
18 9 6 -3 4 2 -5 13 -8 10 -15 25 -15 33 1 17 26 28 26 11 0 -6 -5 -8 -11 -4
-8 4 -8 0 0 -15 13 -24 19 -27 18 -8 -1 30 4 48 12 43 4 -3 17 4 27 17 l19 22
-22 -18 c-22 -19 -22 -19 -19 14 1 18 9 35 17 37 8 2 10 0 4 -5 -5 -4 -11 -15
-13 -23 -2 -12 1 -11 11 2 11 14 16 15 27 5 12 -10 12 -9 2 3 -17 24 -12 61 8
50 20 -11 67 29 62 53 -2 9 -8 14 -14 11 -7 -5 -8 -2 -3 6 6 10 12 9 25 -8
l17 -21 12 27 c11 25 10 26 -4 8 -8 -11 -15 -15 -15 -9 0 7 5 15 10 18 6 4 7
12 4 18 -4 7 -4 9 1 5 4 -4 15 -2 24 5 14 11 14 10 2 -5 -9 -13 -10 -18 -2
-18 7 0 9 -5 5 -12 -4 -8 -3 -10 2 -5 5 5 9 14 9 20 1 7 6 11 13 9 7 -1 17 9
22 22 5 13 14 27 21 32 7 4 10 3 7 -2 -3 -5 1 -16 10 -23 14 -13 15 -12 10 7
-4 12 -1 25 4 29 6 3 8 1 5 -4 -4 -6 -1 -16 7 -22 14 -11 26 -5 26 13 0 6 -5
4 -10 -4 -7 -12 -9 -10 -7 7 1 15 5 19 12 13 7 -6 20 -3 35 7 13 9 20 11 16 5
-4 -7 -4 -12 1 -13 4 0 16 -2 25 -4 10 -2 21 2 25 7 3 6 1 8 -5 4 -12 -7 -10
20 3 31 4 4 5 2 1 -5 -4 -7 -1 -15 9 -18 13 -5 13 -9 3 -23 -11 -14 -11 -14 3
-3 9 7 21 12 25 11 5 -1 12 0 17 1 13 4 27 7 38 9 8 1 7 7 -2 18 -12 15 -12
16 1 8 8 -6 19 -10 24 -10 5 0 11 -7 13 -15 4 -13 3 -13 -7 0 -10 13 -11 13
-7 0 2 -9 14 -14 31 -13 18 1 24 -2 20 -10 -4 -7 -4 -9 1 -5 4 4 15 2 24 -4
11 -9 10 -6 -2 9 -14 16 -15 23 -6 29 8 4 10 3 5 -4 -4 -7 -2 -12 3 -12 6 0
11 6 11 13 0 9 2 9 9 -1 4 -8 12 -14 17 -15 5 -1 8 -4 7 -7 0 -3 6 -12 15 -20
14 -13 15 -12 9 3 -3 9 -2 19 4 22 5 4 8 3 7 -2 -4 -14 22 -54 32 -48 5 3 11
1 15 -5 4 -7 13 -7 26 0 15 9 21 7 25 -5 3 -8 10 -13 14 -10 16 10 22 -16 9
-33 -11 -14 -10 -14 8 1 21 18 22 18 33 -3 6 -12 9 -24 6 -27 -3 -3 -10 5 -15
18 -6 14 -10 17 -10 8 -1 -8 4 -20 10 -26 16 -16 39 -5 32 15 -4 9 -3 14 1 11
10 -9 16 -50 6 -44 -5 3 -11 1 -15 -4 -6 -10 27 -7 45 4 6 4 9 3 8 -2 -1 -4 4
-19 11 -31 7 -13 10 -26 7 -29 -3 -3 -10 6 -16 21 -5 15 -14 24 -20 21 -5 -3
-10 -8 -10 -11 0 -3 5 -2 10 1 6 3 10 1 10 -5 0 -7 9 -25 21 -41 18 -25 23
-28 37 -17 14 12 14 10 2 -12 l-13 -25 24 20 c15 13 19 14 11 4 -19 -25 -24
-59 -7 -53 10 4 13 0 10 -15 -2 -12 0 -19 4 -16 5 3 12 -2 15 -11 9 -22 8 -26
-5 -18 -6 3 -3 -5 6 -19 9 -15 13 -32 9 -38 -4 -8 -3 -9 5 -5 12 8 11 37 -2
47 -5 3 -2 9 6 12 10 4 14 0 12 -11 -1 -9 2 -25 7 -36 8 -14 7 -17 -3 -11 -8
6 -11 4 -6 -7 3 -9 1 -20 -5 -26 -6 -6 -6 -12 3 -17 8 -5 10 -4 5 3 -5 8 -2
10 8 6 12 -5 13 -9 3 -19 -7 -7 -16 -10 -21 -7 -5 3 -6 -1 -1 -7 13 -23 15
-82 2 -74 -7 4 -7 0 2 -10 9 -12 10 -21 3 -29 -5 -7 -8 -25 -6 -41 1 -15 -1
-25 -6 -22 -4 3 -6 -4 -3 -15 3 -11 9 -17 14 -14 5 3 7 8 5 12 -2 4 2 16 10
27 8 10 14 14 14 9 0 -6 -3 -14 -7 -18 -5 -4 -8 -11 -8 -14 0 -4 -9 -18 -19
-32 -10 -14 -16 -17 -13 -8 4 10 2 20 -2 22 -5 3 -8 -7 -7 -22 0 -15 -4 -26
-10 -25 -6 1 -11 -5 -11 -12 0 -11 4 -12 13 -4 8 7 14 6 20 -2 4 -8 3 -9 -4
-5 -16 10 -15 -6 1 -24 10 -12 9 -12 -6 -1 -15 12 -20 11 -37 -4 -19 -17 -21
-54 -5 -104 12 -38 -4 -90 -41 -130 l-34 -39 17 -31 c18 -31 18 -32 -9 -81
-16 -28 -28 -54 -28 -58 0 -4 16 -14 34 -20 32 -12 40 -10 86 13 48 25 53 25
76 10 13 -8 24 -24 24 -34 0 -10 11 -23 25 -29 14 -7 25 -20 25 -31 0 -11 3
-22 8 -24 7 -5 223 -31 257 -31 145 0 1258 24 1261 27 1 1 4 13 6 27 2 18 -2
25 -17 28 -11 2 -36 19 -55 37 -19 18 -54 42 -77 54 -92 46 -258 308 -333 526
-34 99 -88 218 -134 293 -45 75 -111 311 -131 467 -11 88 -14 209 -13 455 2
314 1 342 -20 440 -22 106 -56 214 -82 260 -7 14 -33 63 -56 110 -126 250
-330 383 -694 455 -95 19 -391 29 -480 16z m365 -137 c49 -6 143 -25 218 -45
l39 -10 -57 -60 c-53 -56 -66 -87 -39 -96 15 -5 125 127 117 140 -3 5 4 6 18
2 45 -13 253 -116 286 -141 35 -26 119 -138 125 -166 2 -10 -13 -28 -39 -47
-26 -19 -43 -39 -43 -51 0 -26 13 -25 58 5 48 33 55 32 75 -10 23 -47 22 -49
-16 -67 -44 -21 -97 -67 -97 -83 0 -24 69 -30 107 -10 18 10 33 22 33 27 0 4
4 8 9 8 5 0 15 -32 22 -70 l12 -71 -33 -34 -34 -35 38 0 38 0 -7 -167 c-6
-140 -3 -199 15 -351 19 -166 21 -226 3 -209 -16 17 -133 -74 -159 -124 -10
-21 -11 -30 -2 -35 7 -4 33 16 67 52 49 52 60 60 87 56 l32 -3 6 -82 c4 -45 9
-101 12 -125 5 -36 2 -45 -17 -61 -25 -20 -18 -46 12 -38 13 3 19 -1 21 -17 2
-16 -9 -29 -52 -55 -58 -35 -169 -120 -190 -146 -10 -12 -9 -16 3 -21 21 -8
106 50 179 121 31 30 59 55 61 55 2 0 14 -33 27 -74 l23 -74 -22 -27 c-11 -15
-21 -36 -21 -46 0 -10 -8 -20 -18 -23 -27 -9 -85 -73 -78 -85 13 -20 32 -11
69 34 21 25 44 45 52 45 7 0 17 9 20 20 12 39 33 19 77 -77 l46 -98 -37 -39
c-32 -34 -34 -39 -19 -49 14 -9 9 -19 -43 -75 -48 -52 -57 -68 -47 -79 9 -12
27 1 99 73 49 49 90 86 92 83 15 -19 38 -61 35 -63 -2 -1 -25 -16 -53 -34 -45
-28 -97 -77 -149 -139 -17 -20 -17 -23 -3 -29 11 -4 49 24 118 85 l103 91 18
-28 c17 -25 17 -28 2 -37 -76 -47 -105 -71 -129 -105 -21 -30 -25 -44 -17 -52
8 -8 23 -1 57 26 40 33 45 35 45 17 0 -31 32 -26 63 9 29 33 52 38 60 16 4
-10 -6 -22 -26 -35 -42 -26 -123 -109 -114 -117 9 -9 52 21 104 73 25 24 46
43 47 41 28 -43 36 -60 31 -67 -3 -5 -30 -19 -60 -32 -30 -12 -55 -26 -55 -30
0 -27 141 -32 156 -7 4 6 18 -1 33 -16 14 -15 48 -40 75 -57 26 -16 47 -32 45
-34 -2 -1 -228 -5 -501 -7 -350 -3 -499 -1 -501 6 -2 7 -46 11 -122 11 l-118
0 2 85 c2 47 4 100 6 118 1 18 6 112 10 210 3 97 8 191 10 207 9 83 20 390 19
540 -1 199 -16 291 -74 438 -85 218 -231 340 -449 377 -169 28 -381 -35 -519
-156 -63 -55 -163 -182 -221 -281 -75 -127 -139 -316 -205 -608 -40 -174 -46
-228 -51 -440 -6 -224 -30 -424 -54 -441 -11 -9 -23 -8 -49 3 -24 10 -37 11
-46 4 -9 -7 -82 -9 -222 -4 -294 10 -409 7 -646 -14 -115 -10 -208 -18 -208
-16 0 1 15 10 33 19 67 34 138 97 235 207 96 109 105 116 273 220 210 129 228
142 213 157 -18 18 -103 -22 -215 -101 -56 -38 -103 -69 -104 -67 -2 2 14 31
35 66 39 65 114 131 261 228 80 53 107 80 92 95 -15 15 -50 -5 -173 -96 -56
-42 -103 -75 -105 -73 -1 2 17 48 41 103 24 55 44 105 44 112 0 14 186 153
205 153 16 0 95 57 95 69 0 23 -32 15 -96 -23 -38 -23 -94 -56 -125 -74 l-56
-32 29 148 29 147 71 65 c59 55 68 68 56 78 -12 9 -24 6 -61 -18 l-47 -30 0
33 c0 28 5 36 36 50 20 10 59 40 88 67 29 28 58 50 64 50 7 0 12 5 12 11 0 18
-93 -18 -157 -61 -55 -37 -41 3 27 78 84 93 82 122 -3 57 -25 -19 -47 -35 -49
-35 -2 0 -1 44 2 97 l5 98 58 54 c31 30 57 57 57 61 0 22 -36 17 -70 -10 -21
-16 -40 -30 -43 -30 -3 0 -4 25 0 56 5 54 7 58 89 140 80 80 101 114 70 114
-8 0 -43 -24 -78 -54 -35 -30 -64 -51 -66 -46 -3 9 3 24 56 145 43 95 200 247
382 367 119 79 210 133 263 156 4 2 -7 -17 -24 -43 -19 -27 -33 -63 -35 -88
-2 -23 -1 -36 2 -29 3 6 11 12 17 12 13 0 127 169 127 187 0 9 30 24 119 61
10 3 5 -11 -12 -42 -31 -55 -34 -78 -12 -96 13 -11 20 -3 45 54 33 72 36 86
18 86 -24 0 8 17 82 44 l75 27 -21 -23 c-12 -13 -27 -33 -33 -45 -13 -26 -15
-93 -1 -93 5 0 37 32 70 71 50 58 59 73 49 85 -6 8 -10 16 -8 18 24 20 339 27
494 10z m-485 -1648 c0 -6 -5 -4 -10 4 -5 8 -10 11 -10 7 0 -5 -5 -5 -10 -2
-6 4 -8 11 -4 16 7 12 34 -8 34 -25z m21 17 c13 -16 12 -17 -3 -4 -10 7 -18
15 -18 17 0 8 8 3 21 -13z m92 4 c4 3 7 4 7 1 0 -3 -8 -12 -17 -19 -10 -7 -15
-9 -11 -5 4 5 2 16 -5 25 -10 14 -10 14 4 4 9 -7 19 -10 22 -6z m137 -72 c0
-5 -5 -3 -10 5 -5 8 -10 20 -10 25 0 6 5 3 10 -5 5 -8 10 -19 10 -25z m-504
-1 c1 -9 0 -13 -4 -10 -3 4 -7 14 -8 22 -1 9 0 13 4 10 3 -4 7 -14 8 -22z
m534 -5 c0 -6 -4 -7 -10 -4 -5 3 -10 11 -10 16 0 6 5 7 10 4 6 -3 10 -11 10
-16z m-640 -77 c0 -5 -8 -16 -18 -25 -18 -17 -32 -14 -32 7 0 6 5 4 10 -4 5
-8 10 -12 11 -7 1 4 3 12 4 17 1 6 3 12 4 15 2 9 21 5 21 -3z m847 -107 c0 -8
-4 -12 -9 -9 -4 3 -8 9 -8 15 0 5 4 9 8 9 5 0 9 -7 9 -15z m69 -68 c4 -3 -4
-4 -16 -2 -30 6 -40 16 -12 12 12 -2 24 -6 28 -10z m4 -37 c6 -11 9 -20 8 -20
-2 0 -11 9 -21 20 -9 11 -13 20 -7 20 5 0 14 -9 20 -20z m-1104 -125 c1 -8 -3
-18 -8 -22 -7 -3 -8 -1 -4 5 4 7 1 12 -6 13 -10 0 -10 2 0 6 6 2 9 10 5 16 -3
7 -2 8 2 4 5 -4 10 -14 11 -22z m-6 -57 c10 -21 10 -21 -3 -6 -8 10 -18 14
-22 10 -5 -4 -5 -1 -1 6 10 17 14 15 26 -10z m1145 2 c-1 -11 -4 -22 -7 -25
-4 -5 -4 34 1 43 4 8 7 -1 6 -18z m7 -62 c-9 -9 -9 -15 1 -27 11 -14 10 -14
-6 -2 -13 10 -15 17 -6 27 6 8 14 14 17 14 3 0 1 -5 -6 -12z m-1142 -55 c0 -7
-39 17 -46 28 -3 6 5 3 20 -6 14 -10 26 -19 26 -22z m1125 -4 c-3 -12 -7 -24
-10 -27 -3 -3 -3 5 -1 19 6 30 5 29 10 29 3 0 3 -10 1 -21z m1010 -139 c-3 -5
-11 -10 -16 -10 -6 0 -7 5 -4 10 3 6 11 10 16 10 6 0 7 -4 4 -10z m-2090 -28
c-8 -8 -25 10 -19 20 4 6 9 5 15 -3 4 -7 6 -15 4 -17z m1030 -12 c4 -6 3 -10
-2 -9 -20 3 -25 -2 -13 -16 11 -13 10 -14 -4 -9 -19 7 -20 16 -4 32 15 15 15
15 23 2z m-995 -56 c0 -2 -9 0 -20 6 -11 6 -20 13 -20 16 0 2 9 0 20 -6 11 -6
20 -13 20 -16z m164 -175 c-3 -5 -10 -7 -15 -3 -5 3 -7 10 -3 15 3 5 10 7 15
3 5 -3 7 -10 3 -15z"/>
<path d="M2569 3782 c-54 -61 -68 -90 -48 -103 8 -5 17 -9 22 -9 7 0 97 133
97 143 0 3 -7 7 -15 10 -9 4 -30 -12 -56 -41z"/>
<path d="M2817 3742 c-66 -66 -77 -85 -57 -97 25 -15 179 132 164 157 -13 21
-45 2 -107 -60z"/>
<path d="M3368 3549 c-41 -34 -49 -59 -19 -59 23 0 81 55 81 76 0 22 -22 16
-62 -17z"/>
<path d="M3617 3089 c-55 -39 -70 -59 -44 -59 33 0 121 80 105 95 -3 3 -30
-13 -61 -36z"/>
<path d="M3625 2921 c-51 -31 -91 -79 -77 -93 8 -8 22 -3 54 24 24 19 61 47
83 61 l40 27 -35 0 c-19 0 -48 -8 -65 -19z"/>
<path d="M3620 2728 c-25 -16 -52 -33 -60 -38 -25 -15 -2 -23 29 -11 28 12 88
67 80 74 -2 2 -24 -9 -49 -25z"/>
<path d="M3690 2705 c-68 -35 -125 -88 -117 -108 9 -25 21 -21 78 26 41 34
102 109 87 107 -1 -1 -23 -12 -48 -25z"/>
<path d="M3665 2556 c-48 -22 -115 -78 -115 -96 0 -24 34 -12 102 39 109 79
114 105 13 57z"/>
<path d="M3668 2371 c-58 -37 -93 -84 -75 -100 10 -8 22 -2 48 27 106 114 110
125 27 73z"/>
<path d="M1344 2149 c-56 -21 -144 -92 -144 -115 0 -25 30 -15 88 30 52 40
122 107 111 105 -2 0 -27 -9 -55 -20z"/>
<path d="M3693 2001 c-68 -55 -120 -111 -102 -111 8 0 48 34 89 75 41 41 72
75 68 75 -3 0 -28 -17 -55 -39z"/>
<path d="M1233 1771 c-89 -54 -109 -76 -79 -87 29 -11 186 104 186 136 0 16
-9 12 -107 -49z"/>
<path d="M3709 1579 c-54 -53 -69 -73 -60 -82 9 -9 32 9 94 71 66 66 78 82 60
82 -14 0 -49 -26 -94 -71z"/>
<path d="M3834 1524 c-85 -44 -174 -106 -174 -120 0 -26 22 -25 58 2 106 80
184 144 175 144 -6 0 -32 -12 -59 -26z"/>
<path d="M3914 1447 c-68 -40 -154 -138 -154 -175 0 -29 30 -6 100 75 99 115
109 132 54 100z"/>
<path d="M855 1124 c-71 -37 -155 -102 -155 -119 0 -21 30 -18 65 6 17 11 55
33 85 48 61 32 95 64 85 80 -10 17 -26 13 -80 -15z"/>
<path d="M825 1019 c-49 -26 -118 -58 -153 -70 -71 -26 -76 -44 -10 -43 71 0
228 89 258 144 14 27 9 25 -95 -31z"/>
<path d="M2309 2153 c-12 -16 -12 -17 2 -6 9 7 20 9 24 5 5 -4 5 -1 1 6 -9 16
-11 15 -27 -5z"/>
<path d="M2476 2162 c-3 -5 1 -9 9 -9 8 0 12 4 9 9 -3 4 -7 8 -9 8 -2 0 -6 -4
-9 -8z"/>
<path d="M2601 2148 c5 -10 11 -18 12 -18 2 0 3 8 3 18 0 10 -6 19 -13 19 -8
0 -9 -6 -2 -19z"/>
<path d="M2213 2121 c0 -11 5 -18 9 -15 4 3 5 11 1 19 -7 21 -12 19 -10 -4z"/>
<path d="M2743 2094 c1 -21 19 -26 34 -9 4 4 3 5 -4 1 -6 -3 -16 2 -22 11 -9
16 -10 16 -8 -3z"/>
<path d="M2026 1977 c3 -10 9 -15 12 -12 3 3 0 11 -7 18 -10 9 -11 8 -5 -6z"/>
<path d="M2025 1240 c3 -5 8 -10 11 -10 2 0 4 5 4 10 0 6 -5 10 -11 10 -5 0
-7 -4 -4 -10z"/>
</g>
</svg>
