<?xml version="1.0" standalone="no"?>
<!DOCTYPE svg PUBLIC "-//W3C//DTD SVG 20010904//EN"
 "http://www.w3.org/TR/2001/REC-SVG-20010904/DTD/svg10.dtd">
<svg version="1.0" xmlns="http://www.w3.org/2000/svg"
 width="480.000000pt" height="480.000000pt" viewBox="0 0 480.000000 480.000000"
 preserveAspectRatio="xMidYMid meet">
<metadata>
Created by potrace 1.11, written by Peter Selinger 2001-2013
</metadata>
<g transform="translate(0.000000,480.000000) scale(0.100000,-0.100000)"
fill="#000000" stroke="none">
<path d="M2352 4304 c-23 -16 -23 -17 -16 -192 4 -126 10 -184 20 -200 12 -18
12 -23 2 -26 -7 -3 -55 -16 -107 -31 -179 -49 -417 -160 -573 -267 -224 -153
-438 -410 -584 -701 -53 -105 -152 -362 -213 -552 -50 -154 -245 -1019 -261
-1154 -10 -91 -14 -379 -6 -431 3 -14 7 -59 10 -100 4 -41 9 -106 12 -145 6
-77 19 -98 59 -98 36 0 46 19 40 73 -2 25 -7 99 -11 165 -4 66 -10 165 -13
220 -10 132 -4 293 14 380 43 208 179 821 184 826 3 4 34 10 69 13 53 6 79 16
160 64 82 49 123 84 278 239 245 245 352 384 477 623 30 58 73 139 95 180 22
41 47 100 56 130 15 56 39 265 37 333 -1 36 2 38 53 62 136 62 371 101 555 92
109 -5 267 -31 283 -45 4 -4 0 -38 -8 -77 -26 -120 -20 -250 21 -462 52 -268
77 -353 167 -573 124 -299 149 -340 306 -492 108 -105 172 -150 289 -205 62
-29 88 -36 140 -36 l63 0 2 -296 c4 -753 2 -883 -16 -1043 -10 -87 -16 -164
-13 -172 3 -8 18 -23 32 -32 22 -15 28 -15 39 -3 25 27 45 144 52 304 3 88 8
178 10 200 4 53 4 471 0 515 -2 19 -7 130 -10 245 -4 116 -9 253 -11 305 -5
98 -11 269 -20 565 -14 432 -47 573 -190 815 -101 169 -221 270 -488 410 -273
143 -550 203 -823 177 l-81 -8 6 48 c5 41 6 169 2 280 -1 29 -42 93 -60 93 -3
0 -17 -7 -29 -16z m848 -624 c206 -86 327 -165 446 -292 150 -161 216 -314
248 -578 36 -292 43 -375 52 -633 l6 -178 -29 7 c-165 39 -311 129 -452 280
-63 68 -82 98 -152 243 -44 91 -96 210 -115 265 -93 269 -172 696 -158 864 4
56 10 82 18 78 6 -2 67 -28 136 -56z m-1223 -147 c-7 -142 -45 -262 -127 -397
-33 -55 -60 -105 -60 -111 0 -7 -9 -20 -20 -30 -11 -10 -20 -24 -20 -31 0 -28
-177 -263 -298 -397 -161 -177 -313 -305 -427 -357 -47 -22 -85 -38 -85 -36 0
2 38 117 83 257 91 275 155 422 262 594 129 209 247 332 446 466 105 71 234
148 248 149 2 0 1 -48 -2 -107z"/>
</g>
</svg>
