<?xml version="1.0" standalone="no"?>
<!DOCTYPE svg PUBLIC "-//W3C//DTD SVG 20010904//EN"
 "http://www.w3.org/TR/2001/REC-SVG-20010904/DTD/svg10.dtd">
<svg version="1.0" xmlns="http://www.w3.org/2000/svg"
 width="60.000000pt" height="60.000000pt" viewBox="0 0 60.000000 60.000000"
 preserveAspectRatio="xMidYMid meet">
<metadata>
Created by potrace 1.10, written by Peter Selinger 2001-2011
</metadata>
<g transform="translate(0.000000,60.000000) scale(0.100000,-0.100000)"
fill="#000000" stroke="none">
<path d="M269 513 c0 -4 -1 -24 -2 -43 l-2 -35 -63 -9 c-46 -6 -66 -6 -71 2
-4 7 -15 -12 -26 -43 -10 -30 -15 -58 -11 -63 11 -11 36 28 36 57 0 22 4 26
33 27 17 0 82 6 142 13 61 7 121 11 134 9 l24 -3 -28 -33 -28 -33 49 23 c27
12 51 24 53 25 11 7 -44 53 -58 49 -9 -2 -47 -7 -85 -11 l-69 -7 5 32 c4 23 0
34 -14 41 -10 5 -18 6 -19 2z"/>
<path d="M297 343 c12 -10 48 -67 81 -128 l58 -110 49 -3 48 -3 -48 38 c-26
21 -75 78 -109 128 -37 54 -69 91 -81 93 -19 3 -19 2 2 -15z"/>
<path d="M204 301 c8 -12 -36 -93 -82 -151 l-27 -35 31 25 c17 14 50 49 74 78
34 42 42 57 34 70 -6 9 -16 18 -24 20 -8 3 -10 0 -6 -7z"/>
</g>
</svg>
