<?xml version="1.0" standalone="no"?>
<!DOCTYPE svg PUBLIC "-//W3C//DTD SVG 20010904//EN"
 "http://www.w3.org/TR/2001/REC-SVG-20010904/DTD/svg10.dtd">
<svg version="1.0" xmlns="http://www.w3.org/2000/svg"
 width="1024.000000pt" height="1024.000000pt" viewBox="0 0 1024.000000 1024.000000"
 preserveAspectRatio="xMidYMid meet">
<metadata>
Created by potrace 1.10, written by Peter Selinger 2001-2011
</metadata>
<g transform="translate(0.000000,1024.000000) scale(0.100000,-0.100000)"
fill="#000000" stroke="none">
<path d="M6354 8692 c-19 -12 -54 -90 -64 -144 -7 -34 -7 -64 0 -89 12 -42 50
-75 75 -65 8 3 15 4 15 2 0 -2 -9 -55 -19 -118 -11 -62 -22 -162 -26 -223 -6
-97 -5 -115 13 -156 40 -91 116 -114 160 -49 20 30 23 43 19 90 -5 52 -5 53 8
29 13 -25 77 -59 109 -59 27 0 110 221 122 326 6 47 26 85 39 72 2 -2 -21 -85
-51 -183 -49 -156 -67 -200 -141 -333 -70 -125 -85 -161 -85 -194 1 -24 8 -48
17 -57 14 -14 6 -17 -97 -33 -148 -22 -158 -22 -158 1 0 10 16 86 36 167 l36
149 -27 21 c-32 25 -58 21 -84 -12 -23 -30 -26 -30 -63 1 -16 14 -35 25 -42
25 -24 0 -114 -80 -160 -141 -50 -66 -56 -69 -27 -10 11 20 16 42 13 47 -15
21 -80 64 -98 64 -11 0 -42 -25 -71 -57 l-52 -58 -39 38 c-35 34 -41 37 -66
27 -17 -6 -34 -25 -44 -49 l-18 -38 -44 38 c-49 43 -77 48 -109 22 -37 -30
-53 -155 -32 -245 l9 -37 -62 -6 c-33 -4 -87 -5 -118 -3 l-58 3 26 55 c30 64
29 129 -4 202 -57 128 -140 146 -167 36 -9 -35 -16 -35 -43 2 -13 17 -28 30
-34 30 -23 0 -85 -78 -98 -124 -12 -44 -9 -139 6 -192 5 -21 1 -22 -101 -29
-58 -4 -109 -4 -112 -1 -4 3 1 21 10 38 9 18 32 73 52 122 35 88 35 89 17 120
-10 17 -30 35 -45 40 -24 9 -32 5 -67 -29 -22 -22 -40 -34 -40 -28 0 7 -20 28
-45 49 l-45 36 -35 -26 c-45 -35 -85 -104 -93 -163 l-7 -48 -18 83 c-17 76
-23 88 -67 134 -59 62 -77 57 -110 -32 l-23 -61 -66 65 c-37 36 -74 66 -82 66
-9 0 -29 -10 -44 -22 -26 -20 -27 -24 -23 -90 4 -51 11 -75 26 -91 11 -12 27
-38 36 -57 9 -19 23 -46 30 -60 8 -14 17 -35 21 -47 6 -22 4 -23 -54 -23 -33
0 -62 4 -65 8 -2 4 -11 46 -19 92 -21 116 -50 189 -98 244 -53 60 -87 63 -118
10 l-21 -35 -35 27 c-34 25 -38 26 -77 15 -56 -17 -98 -60 -98 -101 0 -54 30
-100 106 -163 63 -51 95 -90 82 -102 -1 -1 -42 -5 -91 -7 l-87 -4 -10 35 c-5
20 -10 40 -10 44 0 21 -56 147 -86 193 -17 28 -42 86 -53 128 -12 43 -29 94
-37 114 -9 20 -17 60 -19 89 l-2 52 64 7 c62 6 154 1 187 -12 10 -4 23 6 38
29 l22 35 18 -30 c38 -62 153 -77 191 -26 25 33 26 81 4 106 -10 10 -17 27
-17 38 0 10 -10 34 -21 53 -19 32 -20 37 -6 60 29 52 29 78 1 105 -63 57 -101
56 -160 -5 -28 -30 -29 -34 -29 -135 l0 -104 -57 115 c-32 63 -67 119 -77 125
-39 20 -80 12 -100 -20 l-18 -31 -57 66 c-56 63 -58 64 -82 49 -32 -22 -47
-83 -41 -173 l4 -75 -26 30 c-140 159 -127 147 -154 129 -61 -40 -34 -223 48
-331 20 -27 25 -44 25 -94 0 -68 35 -186 73 -248 13 -20 42 -84 66 -142 23
-58 61 -142 83 -187 l40 -81 -33 -48 c-59 -86 -74 -166 -43 -226 17 -33 16
-36 -32 -66 -15 -9 -1179 -1966 -1287 -2164 -112 -203 -188 -356 -304 -608
-52 -113 -100 -212 -107 -220 -8 -8 -19 -33 -26 -55 -7 -22 -22 -56 -34 -75
-12 -19 -28 -51 -36 -70 -7 -19 -21 -44 -30 -55 -9 -11 -23 -36 -32 -56 -9
-20 -55 -101 -103 -180 -103 -170 -336 -638 -360 -724 -9 -33 -36 -95 -60
-137 -24 -43 -51 -101 -61 -130 -9 -29 -50 -128 -90 -219 -80 -179 -87 -218
-56 -278 29 -57 53 -57 113 -3 72 65 112 132 155 259 109 325 300 756 468
1050 148 262 326 612 451 885 66 146 209 396 825 1442 l745 1265 53 1 54 0
-30 -24 c-53 -45 -119 -201 -136 -318 -9 -69 65 -119 106 -70 15 17 138 338
138 359 0 6 -12 20 -27 31 l-28 20 25 6 c35 7 960 17 960 11 0 -3 -10 -25 -22
-48 -40 -78 -35 -373 8 -461 12 -26 12 -31 -1 -46 -9 -10 -34 -113 -60 -240
-36 -179 -43 -230 -35 -258 12 -47 36 -70 82 -83 60 -16 82 4 99 85 13 68 17
73 49 56 14 -8 25 -4 48 15 25 21 31 35 35 78 20 213 68 513 113 700 l36 149
-23 24 c-12 13 -30 24 -40 24 -41 0 -57 -32 -97 -200 -33 -135 -41 -156 -41
-117 -1 26 6 77 15 112 20 78 13 139 -21 188 l-23 35 41 6 c23 3 87 8 142 11
98 6 100 6 79 -12 -19 -17 -22 -36 -32 -163 -5 -80 -19 -183 -31 -230 -34
-140 -52 -295 -58 -487 l-6 -182 34 -20 c42 -26 61 -26 82 -3 13 14 17 49 21
177 3 96 13 208 26 281 37 215 80 608 67 616 -56 32 -53 35 47 42 54 4 100 5
103 3 2 -3 -5 -52 -16 -109 -42 -210 -53 -321 -58 -583 l-5 -260 41 -22 40
-23 26 23 c26 22 26 23 35 247 12 271 56 720 72 736 5 4 259 24 314 24 l41 0
-14 -52 c-19 -76 -35 -235 -27 -288 7 -48 37 -90 64 -90 10 0 29 9 44 21 25
20 26 24 26 123 0 57 7 142 15 189 8 47 12 93 9 101 -5 13 2 16 35 16 41 0 41
0 27 -22 -23 -36 -46 -169 -46 -267 0 -87 1 -90 31 -115 37 -31 54 -32 98 -5
33 20 33 21 25 67 -11 57 -12 235 -2 278 6 27 3 33 -18 44 -13 7 -22 16 -19
19 6 6 638 41 643 36 2 -2 13 -104 24 -227 19 -222 17 -379 -8 -645 l-6 -62
-25 16 c-22 15 -27 15 -59 0 l-34 -17 0 289 0 290 -29 21 c-40 28 -77 19 -90
-23 -17 -53 -31 -158 -31 -232 0 -66 33 -438 45 -516 8 -44 40 -82 64 -74 14
4 25 -19 65 -141 39 -120 54 -152 85 -184 55 -58 100 -52 151 20 15 22 19 34
12 47 -7 12 -5 21 5 31 9 10 13 25 9 43 -3 16 -8 59 -11 96 l-5 68 24 -100
c45 -184 58 -217 96 -243 20 -13 45 -22 57 -19 17 3 25 -3 34 -24 14 -36 80
-96 114 -105 34 -8 83 2 123 26 27 17 32 26 32 58 0 31 -6 43 -30 60 -17 13
-44 22 -64 22 -28 0 -37 6 -54 34 -17 29 -19 43 -13 95 7 61 7 62 -24 81 -44
27 -63 25 -83 -10 -9 -16 -20 -30 -23 -30 -4 0 -14 30 -23 67 -18 68 -14 82
22 83 16 0 42 60 42 98 0 16 -11 50 -25 75 -24 46 -24 49 -14 163 15 161 9
236 -24 307 l-26 58 31 28 31 27 -32 133 c-17 73 -31 147 -30 164 5 65 -1 82
-32 100 -39 22 -45 21 -77 -4 -25 -19 -26 -24 -23 -97 2 -54 8 -86 22 -108 14
-24 19 -50 19 -107 0 -46 5 -79 11 -83 8 -5 7 -9 -4 -15 -26 -15 -28 -58 -12
-254 20 -253 21 -243 -12 -256 -15 -6 -31 -16 -36 -22 -10 -14 1 344 14 483 5
52 10 104 11 115 0 11 -9 98 -21 193 -11 96 -21 182 -21 193 0 18 8 19 121 19
120 0 120 0 106 -21 -14 -19 -12 -28 20 -97 46 -102 116 -314 142 -432 120
-544 103 -485 217 -752 58 -135 119 -264 135 -286 31 -42 115 -92 155 -92 13
0 30 10 38 21 18 26 12 39 -60 138 l-47 63 51 -7 51 -7 5 34 c12 72 11 75 -21
102 -40 34 -81 116 -89 181 -7 52 -40 94 -75 95 -28 0 -60 -33 -68 -70 -7 -33
-10 -27 -48 90 -46 140 -78 287 -94 434 -22 209 -96 409 -203 551 l-45 60 101
3 c73 2 105 -1 114 -10 25 -27 204 -321 204 -336 0 -17 -16 10 290 -477 127
-203 221 -360 207 -347 -24 23 -26 23 -56 8 -19 -10 -33 -27 -37 -44 -3 -15
-7 -31 -8 -35 -1 -5 -26 27 -55 70 -30 43 -55 79 -57 81 -6 9 -63 -30 -69 -47
-10 -31 15 -148 39 -183 33 -49 82 -78 132 -78 24 0 46 5 49 11 5 7 15 3 30
-11 12 -11 38 -23 58 -27 32 -5 38 -2 48 20 9 20 9 37 0 71 -6 25 -11 50 -11
57 0 9 458 -734 593 -961 l20 -35 -34 31 c-73 68 -135 79 -162 29 -12 -25 -13
-24 -65 62 -28 49 -56 94 -61 102 -12 19 -81 -14 -81 -40 0 -10 20 -67 44
-126 52 -126 95 -269 125 -409 18 -82 26 -103 49 -121 35 -30 63 -29 101 3 27
22 31 32 32 77 l0 52 17 -65 c15 -57 21 -67 53 -84 34 -19 36 -19 63 -1 28 19
29 19 23 103 l-5 84 24 -5 c14 -2 27 0 30 5 7 11 529 -1015 549 -1077 6 -22
57 -134 113 -250 70 -148 102 -224 105 -258 l5 -48 -106 158 c-57 87 -106 160
-108 162 -8 8 -53 -19 -63 -37 -8 -15 -3 -31 20 -73 102 -186 219 -445 219
-484 0 -27 -34 -13 -40 16 -8 42 -116 238 -183 331 -97 135 -154 198 -182 198
-26 0 -55 -33 -55 -64 0 -30 185 -362 251 -451 42 -56 56 -81 46 -83 -29 -6
-39 -55 -29 -131 12 -82 42 -142 93 -183 40 -33 110 -48 133 -29 10 9 44 6
142 -10 95 -15 134 -18 146 -10 10 6 27 11 38 11 28 0 44 35 32 69 l-10 28 36
-8 c42 -9 57 0 77 47 13 32 8 43 -494 1106 l-508 1073 -303 525 c-167 289
-450 759 -630 1045 -180 287 -342 554 -359 594 -18 40 -56 109 -84 154 -57 92
-253 338 -293 370 -24 19 -51 21 -473 36 l-448 15 -1384 -77 c-761 -43 -1415
-80 -1453 -84 l-69 -6 6 51 c4 36 16 65 43 102 l38 52 60 -6 c481 -47 906 -42
2271 27 605 31 1134 59 1175 62 l76 5 11 -29 c10 -28 41 -50 90 -65 19 -6 26
1 54 55 17 34 52 85 79 113 26 28 56 71 67 96 11 25 32 56 46 69 15 13 34 47
43 75 16 49 126 208 222 320 52 61 70 114 53 152 -15 34 -8 40 21 20 47 -33
85 -14 107 56 7 21 27 48 47 63 44 33 46 72 6 102 -25 18 -31 19 -70 8 l-42
-13 6 49 c6 42 4 51 -15 66 l-22 18 25 72 25 73 -31 24 c-56 44 -79 22 -148
-143 -30 -72 -59 -131 -63 -131 -5 0 -7 29 -6 65 2 59 0 66 -24 85 -51 40
-101 6 -110 -74 -7 -73 -23 -82 -74 -43 -29 22 -43 40 -43 57 -1 17 -12 32
-34 46 -43 27 -72 16 -101 -39 -11 -20 -26 -37 -34 -37 -8 0 -25 -10 -38 -22
-26 -24 -27 -19 -14 49 7 38 6 43 -20 62 -49 36 -68 27 -134 -64 -13 -18 -14
-11 -15 70 0 90 0 91 -31 109 -18 11 -40 16 -54 12 -21 -5 -25 -16 -40 -103
-19 -107 -19 -108 -52 -118 -22 -6 -23 -4 -23 69 0 41 4 86 10 100 8 22 5 28
-22 50 -56 43 -99 6 -123 -109 -22 -105 -20 -158 9 -192 l24 -29 -29 -129
c-16 -71 -31 -131 -34 -133 -10 -10 -4 44 10 103 19 78 19 127 -1 173 -19 46
-72 102 -96 102 -22 0 -22 7 -3 106 l15 78 -27 28 c-27 28 -48 34 -69 20z
m562 -665 c-9 -30 -16 -73 -16 -95 0 -31 -5 -43 -23 -55 -24 -15 -24 -14 11
99 20 62 37 112 40 110 2 -3 -3 -29 -12 -59z m263 -301 c11 -13 1 -29 -62
-100 -41 -46 -78 -94 -82 -105 -6 -20 -11 -21 -103 -15 -53 4 -103 10 -110 13
-9 5 14 43 78 127 50 65 95 123 100 127 4 5 22 1 40 -8 42 -22 87 -12 103 23
l12 26 6 -37 c3 -20 11 -43 18 -51z m-1027 -145 c-2 -33 1 -69 8 -80 10 -20 8
-21 -27 -21 -21 0 -48 -3 -60 -6 -13 -4 -23 -2 -23 4 0 7 100 162 104 162 1 0
-1 -27 -2 -59z m-268 -83 c5 -24 3 -28 -14 -28 -23 0 -24 1 -8 35 13 29 13 29
22 -7z m-778 -34 c38 -10 28 -24 -16 -24 -34 0 -40 3 -40 21 0 15 4 19 16 15
9 -3 27 -9 40 -12z m-933 -52 c-20 -5 -22 -1 -16 32 l6 29 12 -29 c10 -24 9
-30 -2 -32z m370 -1057 c-8 -39 -18 -73 -22 -77 -4 -5 -21 11 -39 33 l-31 42
44 29 c25 17 48 34 51 40 13 21 12 -1 -3 -67z m3809 -1657 c19 -36 72 -238 65
-245 -6 -6 -71 101 -92 152 -9 22 -22 66 -30 97 l-13 58 26 -14 c15 -8 35 -29
44 -48z m1168 -1997 c10 -21 28 -76 40 -122 11 -46 23 -93 26 -104 4 -13 -6
-6 -27 19 -20 23 -32 49 -31 61 2 11 -14 56 -34 100 -20 44 -40 90 -45 103
l-9 23 30 -21 c17 -12 39 -39 50 -59z m-225 -211 c11 -17 -5 -32 -21 -19 -8 6
-14 15 -14 20 0 12 27 11 35 -1z m164 -27 c-1 -16 1 -37 5 -48 4 -11 -2 -4
-12 15 -19 33 -19 60 -1 60 5 0 9 -12 8 -27z"/>
<path d="M6151 8673 c-8 -3 -22 -13 -33 -22 -17 -14 -19 -30 -18 -156 2 -174
-11 -455 -20 -455 -4 0 -7 55 -6 123 1 142 -14 187 -82 254 -37 35 -41 45 -47
108 -6 52 -13 73 -29 87 -33 28 -56 31 -77 12 -17 -15 -19 -32 -19 -163 l0
-146 30 -25 30 -25 -11 -85 c-10 -73 -10 -93 5 -142 19 -66 73 -120 137 -136
38 -10 41 -9 66 23 l27 34 22 -24 c26 -28 102 -51 123 -38 45 29 70 108 42
136 -7 7 -11 75 -11 183 0 156 -2 174 -20 197 -17 21 -20 40 -20 124 0 98 0
99 -30 121 -30 23 -36 24 -59 15z"/>
<path d="M5581 8579 c-26 -28 -30 -151 -16 -450 11 -212 12 -218 38 -259 27
-39 30 -41 74 -38 l47 3 28 110 c15 61 28 138 28 172 0 69 -27 166 -59 211
-15 22 -24 56 -31 126 -9 87 -13 99 -37 121 -35 30 -47 31 -72 4z"/>
<path d="M4943 8512 c-51 -39 -90 -188 -80 -304 3 -39 2 -67 -2 -62 -5 5 -11
52 -13 104 -3 82 -8 102 -33 148 -35 65 -70 95 -99 86 -12 -4 -22 -8 -24 -9
-2 -2 -17 -61 -33 -132 -27 -114 -29 -134 -19 -180 21 -96 92 -163 172 -163
34 0 60 19 70 49 3 10 12 1 28 -23 26 -42 73 -76 107 -76 30 0 96 67 88 89 -7
19 0 11 39 -42 48 -65 102 -80 148 -40 16 14 18 12 29 -31 14 -55 62 -102 114
-112 47 -8 62 -1 82 41 14 30 15 41 5 68 -8 22 -12 111 -12 268 0 255 2 246
-61 293 l-36 26 -34 -23 c-54 -37 -59 -54 -59 -245 l0 -172 -34 37 c-31 35
-33 42 -29 91 3 28 0 72 -7 97 -14 49 -78 130 -113 141 -28 10 -60 5 -69 -10
-5 -6 -8 1 -8 16 0 19 -11 34 -42 57 -49 36 -46 36 -75 13z"/>
<path d="M3880 8430 c-47 -50 -64 -118 -57 -224 14 -208 67 -270 157 -186 37
35 40 36 40 13 0 -36 40 -84 86 -104 63 -28 94 -22 123 23 l24 38 17 -28 c23
-37 49 -58 93 -77 51 -21 55 -20 68 28 7 23 14 43 15 45 1 2 19 -8 39 -23 52
-35 106 -34 134 2 33 41 35 66 10 114 -19 37 -24 67 -30 194 -4 83 -8 151 -8
152 -1 1 -19 16 -42 33 l-40 33 -38 -18 c-30 -13 -41 -26 -51 -56 l-13 -39
-33 25 c-18 14 -39 25 -48 25 -22 0 -77 -50 -92 -85 -10 -23 -13 -25 -14 -10
-1 53 -73 155 -109 155 -9 0 -29 -10 -44 -23 -24 -19 -29 -32 -36 -102 -5 -44
-9 -65 -10 -47 -2 63 -64 172 -97 172 -9 0 -29 -14 -44 -30z m544 -215 l6 -70
-15 39 c-9 24 -13 53 -9 73 4 19 8 33 9 31 1 -2 5 -34 9 -73z m-189 -106 c5
-80 5 -83 -11 -61 -13 19 -15 36 -9 89 4 35 9 63 11 61 2 -3 6 -42 9 -89z"/>
<path d="M5945 6960 c-29 -11 -40 -27 -63 -96 -12 -38 -17 -67 -11 -75 5 -8 9
-29 9 -47 0 -25 8 -42 31 -63 38 -35 59 -36 88 -5 19 20 22 34 21 92 -1 38 4
89 11 113 12 43 11 45 -15 68 -29 25 -39 27 -71 13z"/>
<path d="M5342 6921 c-29 -18 -80 -271 -88 -441 -3 -63 -12 -147 -20 -187 -18
-91 -18 -89 6 -113 28 -28 78 -27 90 3 6 12 33 175 60 362 l50 339 -27 23
c-30 24 -50 28 -71 14z"/>
<path d="M3600 6884 c-21 -6 -33 -27 -111 -198 -80 -174 -88 -224 -43 -270 37
-36 97 -37 120 0 10 14 17 40 16 59 -1 18 23 106 53 196 30 90 55 166 55 170
0 7 -64 50 -71 48 -2 -1 -11 -3 -19 -5z"/>
<path d="M3865 6882 c-31 -6 -93 -72 -101 -106 -4 -17 -14 -91 -24 -165 l-17
-134 36 -21 c20 -11 43 -19 51 -18 31 7 50 46 50 102 0 69 22 161 55 235 14
32 25 61 25 66 0 15 -55 45 -75 41z"/>
<path d="M4036 6868 c-19 -17 -42 -71 -86 -202 -78 -232 -78 -270 2 -321 l27
-17 -20 -21 c-11 -12 -22 -33 -25 -47 -3 -14 -12 -44 -20 -67 -32 -88 4 -164
69 -147 36 8 42 22 68 140 l21 99 -29 24 -29 23 28 30 c32 34 35 58 12 93 -15
23 -13 34 37 206 l53 182 -29 23 c-37 30 -47 30 -79 2z"/>
<path d="M4243 6838 c-11 -13 -37 -58 -56 -101 -32 -68 -39 -101 -62 -275 -14
-108 -28 -205 -31 -214 -12 -42 42 -84 91 -72 18 4 26 15 29 38 2 17 12 85 20
151 15 119 51 261 97 382 l23 63 -24 25 c-29 31 -60 32 -87 3z"/>
<path d="M7241 6477 c-10 -18 -8 -59 8 -211 12 -104 21 -195 21 -203 0 -20 46
-63 67 -63 33 0 46 18 54 72 9 64 -6 241 -27 323 -23 90 -93 137 -123 82z"/>
<path d="M5670 6420 c-11 -11 -22 -30 -24 -42 -10 -51 -16 -281 -9 -412 6
-132 8 -141 33 -169 22 -25 32 -29 54 -23 16 4 31 17 36 32 6 14 10 149 10
302 l0 277 -34 28 c-42 32 -41 32 -66 7z"/>
<path d="M6883 6410 c-12 -5 -24 -19 -28 -31 -12 -38 17 -398 34 -432 22 -41
60 -67 108 -74 37 -5 43 -2 59 22 18 27 17 28 -6 69 -19 33 -28 76 -46 223
-22 175 -24 184 -51 208 -31 27 -37 28 -70 15z"/>
<path d="M5826 6329 c-23 -18 -26 -28 -26 -77 0 -38 9 -77 26 -117 20 -48 26
-84 31 -180 5 -102 9 -123 26 -142 21 -24 61 -30 87 -13 24 15 19 245 -9 390
-21 110 -24 116 -56 138 -42 27 -46 27 -79 1z"/>
<path d="M2979 6122 c-57 -39 -121 -119 -177 -218 -18 -33 -70 -109 -116 -170
-97 -129 -165 -241 -197 -326 -22 -59 -22 -61 -4 -74 27 -20 76 -27 107 -15
36 13 57 48 67 107 6 43 38 91 235 366 195 272 226 319 217 336 -23 44 -63 42
-132 -6z"/>
<path d="M3088 6023 c-10 -2 -92 -110 -183 -238 -179 -255 -188 -275 -138
-314 35 -28 66 -35 92 -21 26 13 26 16 -5 -66 -28 -75 -24 -106 16 -119 51
-16 63 -3 176 204 60 109 110 198 111 198 1 -1 -5 -27 -13 -57 -22 -87 -19
-135 12 -159 15 -12 32 -21 39 -21 7 0 10 -9 8 -23 -6 -32 19 -50 55 -42 24 5
40 23 82 92 29 47 86 121 126 163 83 87 92 115 48 149 -35 28 -45 27 -80 -10
-16 -17 -51 -49 -78 -72 l-49 -41 44 83 43 83 -29 24 c-17 13 -34 24 -38 24
-5 0 -6 13 -2 28 5 23 0 32 -24 50 -36 26 -96 29 -130 6 l-23 -16 16 30 c16
30 15 31 -13 51 -30 21 -33 22 -63 14z m-69 -324 c-61 -93 -114 -167 -117
-165 -2 3 47 85 109 182 62 98 115 172 117 165 2 -7 -47 -89 -109 -182z"/>
<path d="M7080 5710 c-23 -23 -25 -57 -6 -152 17 -91 58 -135 111 -122 41 10
46 32 30 130 -22 129 -22 128 -54 147 -38 22 -56 22 -81 -3z"/>
<path d="M3795 5659 c-11 -6 -35 -27 -52 -47 -30 -33 -33 -35 -33 -15 0 13
-11 30 -24 38 -21 14 -28 14 -59 2 -53 -23 -88 -77 -109 -170 -25 -114 -24
-122 16 -145 l35 -21 25 20 c26 20 26 20 26 0 0 -28 46 -61 86 -61 41 0 67 34
63 82 -3 24 12 64 56 150 l59 117 -29 31 c-32 34 -32 34 -60 19z"/>
<path d="M3934 5560 c-62 -23 -144 -194 -144 -301 0 -49 28 -82 69 -82 17 0
36 4 42 10 6 6 19 49 29 95 10 47 33 116 50 154 18 39 29 78 26 90 -7 26 -44
44 -72 34z"/>
<path d="M4795 5519 l-45 -42 0 -248 c0 -244 0 -249 22 -269 13 -11 32 -23 43
-26 53 -13 108 43 85 86 -6 11 -10 101 -10 208 0 172 2 194 21 238 l22 48 -27
23 c-38 32 -60 29 -111 -18z"/>
<path d="M5044 5530 c-48 -19 -84 -125 -85 -246 -1 -128 5 -144 62 -181 58
-39 78 -41 102 -8 17 24 17 28 -2 98 -31 110 -37 190 -17 218 24 35 20 72 -11
101 -21 19 -33 24 -49 18z"/>
<path d="M5234 5532 c-12 -2 -30 -12 -39 -22 -15 -17 -17 -44 -14 -264 2 -134
8 -248 12 -252 4 -5 42 -8 85 -9 75 0 77 1 80 25 2 14 -9 47 -23 73 -24 46
-25 54 -25 231 l0 182 -27 20 c-16 11 -38 18 -49 16z"/>
<path d="M6149 5533 c-9 -2 -26 -29 -38 -59 -41 -108 -21 -436 30 -490 74 -79
148 41 104 166 -29 81 -37 169 -25 257 l12 82 -29 25 c-15 14 -30 25 -33 25
-3 -1 -12 -3 -21 -6z"/>
<path d="M4603 5510 c-26 -16 -33 -26 -33 -52 0 -17 -6 -59 -14 -92 -8 -34
-20 -114 -26 -179 -11 -117 -11 -119 11 -143 24 -26 49 -30 79 -14 22 12 54
102 47 133 -7 27 34 239 49 258 26 31 26 60 3 85 -28 30 -72 31 -116 4z"/>
<path d="M5450 5498 c-16 -18 -20 -35 -20 -98 0 -42 7 -100 16 -129 8 -29 13
-65 9 -80 -9 -41 10 -111 37 -138 13 -13 38 -27 55 -32 37 -11 53 2 77 60 14
34 14 38 -10 73 -19 28 -23 44 -19 69 13 70 -23 195 -78 269 -25 34 -40 35
-67 6z"/>
<path d="M5730 5512 c-52 -23 -57 -33 -70 -152 -13 -123 -6 -214 25 -317 12
-40 26 -61 60 -89 44 -36 46 -36 71 -20 14 10 27 23 30 30 3 7 -7 53 -21 102
-30 103 -43 269 -27 354 10 53 10 56 -16 77 -30 24 -30 25 -52 15z"/>
<path d="M4051 5471 c-39 -39 -82 -145 -88 -218 l-6 -71 39 -25 c28 -18 44
-22 56 -15 13 6 29 2 57 -14 l40 -23 25 24 c14 14 26 30 26 37 0 7 20 59 45
116 l44 103 -27 23 c-26 22 -46 24 -84 7 -14 -5 -18 -2 -18 13 0 22 -48 62
-74 62 -9 0 -24 -8 -35 -19z"/>
<path d="M5892 5477 c-29 -35 -41 -239 -20 -374 9 -67 16 -83 44 -110 34 -35
59 -41 88 -20 18 13 18 21 1 212 -9 109 -14 213 -11 230 5 26 2 34 -24 53 -33
25 -62 28 -78 9z"/>
<path d="M6290 5365 l-23 -25 32 -222 c36 -248 44 -268 108 -268 53 0 54 18
26 271 -25 215 -27 225 -52 246 -34 29 -62 29 -91 -2z"/>
<path d="M7315 5250 c-47 -19 -48 -27 -25 -212 13 -104 28 -183 38 -197 12
-20 13 -26 2 -29 -8 -3 -24 -15 -37 -28 l-23 -23 69 -144 c38 -80 72 -160 76
-178 21 -96 81 -162 163 -181 50 -11 56 -10 68 7 8 10 14 42 14 70 0 49 -2 53
-43 83 -62 44 -78 93 -148 472 -57 307 -62 326 -87 347 -29 24 -37 26 -67 13z"/>
<path d="M7083 5170 c-41 -16 -43 -38 -18 -155 13 -61 27 -159 30 -220 l6
-110 -31 38 c-35 41 -57 46 -90 19 l-22 -17 90 -245 c98 -267 123 -310 179
-310 41 0 93 19 93 34 0 45 -91 264 -153 369 -35 59 -41 74 -25 62 28 -19 68
-19 94 -1 17 13 19 26 16 148 -4 186 -30 280 -103 363 -34 38 -34 38 -66 25z"/>
<path d="M2492 5103 c-41 -39 -318 -357 -429 -493 -119 -147 -283 -429 -270
-463 10 -27 52 -48 76 -39 22 8 731 955 731 976 0 11 -52 56 -63 56 -3 0 -23
-17 -45 -37z"/>
<path d="M2673 5088 c-41 -11 -58 -31 -338 -411 -263 -355 -267 -365 -199
-402 l37 -20 112 119 c93 99 117 132 145 195 74 169 158 282 282 377 48 38 58
50 58 76 0 47 -48 80 -97 66z"/>
<path d="M2927 4998 c-49 -45 -194 -238 -257 -343 -73 -121 -195 -286 -294
-400 -79 -91 -86 -126 -35 -169 36 -30 51 -32 87 -10 16 10 145 195 317 457
l289 440 -29 23 c-37 30 -48 30 -78 2z"/>
<path d="M7852 4960 c-35 -33 -28 -67 28 -126 55 -58 89 -123 120 -231 31
-108 97 -173 176 -173 27 0 27 0 21 58 -8 69 -47 188 -83 251 -62 106 -187
241 -224 241 -9 0 -26 -9 -38 -20z"/>
<path d="M3204 4929 c-32 -11 -87 -85 -134 -179 -74 -149 -163 -277 -287 -413
-32 -35 -53 -67 -53 -81 0 -21 5 -23 65 -25 l64 -2 82 103 c104 130 214 298
290 443 l59 112 -32 25 c-24 18 -39 23 -54 17z"/>
<path d="M6684 4893 c-11 -17 -19 -46 -19 -73 0 -38 9 -60 58 -137 99 -155
169 -342 197 -528 9 -58 16 -75 40 -97 48 -44 119 -33 138 20 9 27 3 49 -48
179 -32 81 -88 204 -124 273 -36 69 -81 175 -101 235 -48 146 -98 191 -141
128z"/>
<path d="M6499 4885 c-15 -8 -29 -22 -33 -31 -5 -14 34 -262 51 -318 5 -18 4
-18 -21 2 -50 39 -97 0 -121 -101 -10 -40 -21 -75 -25 -80 -3 -4 -26 15 -49
43 -46 55 -69 59 -102 18 -16 -20 -16 -20 -30 -1 -8 11 -29 37 -47 58 -30 33
-36 36 -57 27 -15 -7 -31 -31 -46 -69 -28 -72 -31 -212 -6 -283 11 -31 12 -39
3 -27 -7 9 -21 56 -31 104 -24 124 -49 184 -99 237 -47 51 -70 56 -111 24 -27
-21 -27 -21 -20 -112 9 -122 32 -241 55 -287 23 -45 68 -83 115 -99 53 -18 77
-10 101 34 l22 39 21 -49 c28 -62 68 -104 99 -104 14 0 38 14 59 35 33 33 36
34 92 29 l57 -6 38 -192 c21 -105 47 -216 57 -246 10 -30 59 -203 109 -385 50
-181 100 -348 110 -371 11 -22 20 -49 20 -59 0 -33 142 -399 161 -417 11 -9
19 -24 19 -33 0 -9 6 -28 14 -43 7 -15 19 -58 25 -97 7 -38 17 -75 22 -81 6
-7 13 -45 16 -84 5 -55 12 -79 30 -100 24 -29 31 -60 12 -60 -6 0 -41 -13 -77
-29 -37 -16 -210 -70 -385 -120 -235 -68 -364 -99 -500 -121 l-182 -31 -875
-14 c-980 -16 -1042 -14 -1299 46 -77 18 -271 76 -279 84 -2 2 8 20 22 42 18
27 42 106 81 268 73 300 399 1358 432 1403 14 18 36 74 49 125 44 165 101 316
161 426 1 2 33 -4 70 -12 66 -15 69 -15 91 6 12 11 22 26 22 33 0 23 20 26 65
9 24 -10 51 -15 59 -12 8 3 25 25 37 49 12 24 23 45 25 47 2 2 19 -13 38 -34
31 -33 40 -37 68 -31 42 8 104 58 101 82 -1 12 6 9 23 -13 27 -35 98 -67 135
-61 16 2 31 16 44 40 l20 37 -24 44 c-24 43 -24 44 -17 273 4 126 9 252 12
279 5 49 5 50 -37 82 -38 30 -44 31 -68 18 -36 -18 -77 -64 -91 -100 -13 -34
-18 -516 -6 -555 5 -16 -2 -9 -18 16 l-26 42 11 183 c13 217 8 249 -53 315
-40 43 -42 44 -61 27 -10 -10 -23 -26 -26 -37 -7 -16 -12 -13 -45 28 -40 48
-59 55 -91 32 -19 -13 -23 -9 -60 45 -22 32 -45 59 -51 59 -16 0 -67 -59 -97
-112 -37 -64 -55 -136 -73 -292 -10 -86 -21 -147 -30 -157 -8 -8 -14 -28 -14
-42 0 -15 -32 -107 -71 -204 -40 -98 -76 -200 -81 -228 -5 -27 -18 -64 -29
-81 -10 -17 -19 -49 -19 -71 0 -27 -6 -46 -20 -58 -12 -11 -20 -31 -20 -49 0
-17 -9 -49 -21 -71 -12 -21 -52 -145 -90 -274 -38 -130 -75 -252 -84 -271 -31
-75 -103 -328 -109 -384 -4 -34 -15 -70 -26 -86 -11 -16 -20 -32 -20 -37 0 -5
-36 -108 -80 -228 -57 -157 -80 -232 -80 -266 0 -31 -6 -55 -19 -71 -12 -15
-21 -44 -23 -75 l-3 -50 -137 66 -137 66 50 114 c83 190 129 383 129 547 0 67
-1 71 -31 93 -26 19 -35 21 -55 13 -27 -13 -24 -6 -125 -381 -38 -141 -67
-238 -64 -216 2 22 10 110 16 195 l12 155 78 143 c43 79 79 149 80 155 3 27
-3 37 -29 51 -27 14 -31 13 -66 -12 -25 -17 -51 -52 -78 -105 -29 -56 -52 -86
-75 -99 -29 -18 -33 -25 -33 -65 0 -35 -20 -87 -95 -249 l-95 -205 1 -123 c1
-100 -2 -128 -15 -148 -12 -18 -16 -42 -14 -73 3 -42 7 -48 40 -68 l38 -21 27
20 c15 11 32 35 38 53 l11 32 18 -20 c36 -39 100 -22 111 30 4 17 12 28 18 26
7 -3 120 -52 253 -110 237 -103 243 -105 440 -145 216 -43 321 -54 767 -78
324 -18 1178 -14 1402 6 386 34 634 88 1105 241 173 56 321 104 328 106 6 3
12 -1 12 -9 0 -29 61 -100 103 -119 58 -26 143 -26 157 0 18 34 11 47 -43 85
-44 29 -77 69 -77 90 0 2 14 -9 31 -25 32 -30 76 -43 125 -37 23 2 31 10 38
35 11 35 28 43 94 43 29 0 53 -7 69 -20 32 -25 48 -25 73 0 17 17 20 33 20
104 0 67 3 85 16 90 29 11 42 6 54 -23 21 -52 64 -83 121 -89 78 -7 91 31 40
115 -16 26 -32 58 -35 69 -6 19 -2 22 34 26 l41 4 30 -62 c51 -108 115 -140
186 -92 29 20 32 27 27 53 -4 17 -13 34 -21 39 -36 20 -52 50 -97 177 -36 101
-55 139 -76 156 -27 22 -28 22 -64 4 -44 -23 -39 -35 -61 157 -18 151 -45 238
-100 318 -42 61 -63 67 -100 29 -27 -26 -32 -66 -14 -112 6 -15 26 -93 45
-173 19 -80 37 -152 39 -161 4 -11 -2 -18 -15 -22 -11 -3 -20 -4 -20 -3 0 2
-25 99 -55 217 -30 118 -55 230 -55 249 0 28 -7 40 -32 57 -38 27 -63 17 -84
-32 -20 -48 -18 -81 10 -139 23 -49 95 -431 83 -442 -7 -7 -87 197 -87 222 0
19 -58 307 -63 309 -1 1 -16 11 -33 23 -31 21 -33 21 -52 4 -11 -9 -25 -32
-31 -51 -22 -67 -13 -124 54 -341 36 -117 62 -216 59 -221 -3 -5 -13 -9 -23
-9 -31 0 -44 -42 -36 -114 6 -62 5 -66 -13 -66 -17 0 -21 9 -26 53 -4 28 -12
93 -18 142 -6 50 -28 171 -50 270 -21 99 -38 191 -37 205 0 14 1 52 0 85 -1
56 -3 62 -30 78 -37 22 -60 21 -88 -2 l-21 -18 34 -294 c18 -162 38 -302 44
-312 6 -10 14 -40 17 -65 l5 -47 -33 0 c-31 0 -36 -5 -58 -48 -13 -26 -26 -70
-30 -99 -3 -28 -11 -53 -16 -55 -6 -2 -99 243 -208 544 l-197 548 -150 581
c-82 320 -150 587 -150 594 0 6 6 10 13 7 38 -14 86 63 66 107 -7 15 -9 39 -4
63 8 38 8 37 26 -42 11 -44 21 -91 24 -104 9 -35 59 -81 89 -81 63 0 87 89 46
174 -11 23 -45 165 -76 316 -54 266 -57 276 -88 302 -36 32 -34 31 -67 13z
m-2160 -585 c-11 -80 -20 -180 -20 -223 0 -54 -3 -76 -11 -71 -20 12 -2 297
24 376 12 37 23 66 25 65 1 -1 -7 -68 -18 -147z"/>
<path d="M7576 4865 c-9 -13 -16 -32 -16 -41 0 -10 26 -58 59 -108 70 -109 85
-137 127 -241 l32 -80 48 -12 c27 -7 55 -11 62 -8 23 9 42 70 32 104 -4 17
-71 116 -147 220 -147 202 -164 217 -197 166z"/>
<path d="M3415 4866 c-16 -7 -37 -22 -46 -32 -9 -11 -83 -155 -164 -321 -105
-215 -153 -303 -165 -303 -21 0 -66 -47 -80 -84 -9 -25 -8 -33 9 -49 16 -17
27 -19 73 -13 l53 7 185 330 c149 268 190 334 215 346 37 19 45 30 45 65 0 18
-9 33 -29 47 -33 24 -54 26 -96 7z"/>
<path d="M3943 4847 c-25 -11 -19 17 -95 -412 -42 -238 -58 -306 -76 -333 -33
-49 -28 -127 9 -154 34 -25 69 -16 93 25 41 70 80 180 123 347 85 330 86 336
33 446 -37 76 -57 95 -87 81z"/>
<path d="M3576 4787 c-21 -21 -23 -36 -36 -235 l-13 -212 -27 0 c-15 0 -39 -9
-54 -21 -24 -19 -26 -27 -26 -93 0 -63 3 -75 23 -94 28 -27 67 -28 95 -4 33
27 98 159 128 257 24 79 27 108 28 233 l1 142 -30 25 c-38 31 -60 31 -89 2z"/>
<path d="M5422 4628 c-5 -7 -20 -58 -32 -113 -35 -166 -25 -154 -84 -96 -58
57 -87 64 -112 27 -13 -22 -14 -37 -4 -121 15 -122 4 -304 -16 -283 -16 15
-38 198 -30 246 6 41 -10 136 -31 177 -23 45 -84 105 -108 105 -12 0 -32 -11
-44 -24 l-22 -24 21 -257 c12 -142 28 -272 36 -290 7 -18 29 -46 49 -64 49
-42 94 -43 129 0 14 17 26 24 26 17 0 -26 54 -67 96 -74 41 -6 41 -6 63 38 11
24 21 55 22 69 l1 24 7 -25 c18 -57 42 -89 84 -109 70 -34 98 -27 128 31 13
25 17 47 13 61 l-6 22 23 -22 c36 -33 99 -57 113 -43 26 26 22 314 -6 450 -11
53 -11 72 -1 102 7 21 10 44 7 50 -7 20 -80 68 -101 68 -21 0 -63 -39 -63 -58
0 -27 -18 -10 -24 23 -13 66 -104 129 -134 93z m139 -298 c-7 -111 -8 -116 -9
-44 -2 73 7 179 13 172 2 -2 0 -59 -4 -128z"/>
<path d="M8678 4192 c-25 -5 -38 -62 -38 -162 0 -95 13 -153 57 -255 17 -38
43 -103 58 -144 31 -82 82 -146 132 -168 50 -20 78 -17 91 12 20 43 14 75 -27
139 -87 138 -156 314 -182 464 -10 62 -17 75 -43 95 -17 13 -39 21 -48 19z"/>
<path d="M7552 4101 l-22 -18 41 -189 c37 -170 43 -192 70 -216 18 -18 40 -28
59 -28 32 0 32 1 65 -145 8 -38 29 -98 45 -132 32 -64 113 -163 134 -163 7 0
25 11 40 25 23 22 26 31 26 94 0 68 0 69 -35 90 -20 11 -37 26 -39 33 -2 7
-13 53 -25 103 -25 107 -57 176 -116 249 -25 30 -55 83 -69 119 -39 105 -103
197 -136 197 -9 0 -27 -8 -38 -19z"/>
<path d="M7310 4032 c-60 -27 -60 -28 -60 -163 0 -106 3 -129 17 -140 26 -22
40 -68 48 -152 6 -58 13 -85 29 -105 12 -15 34 -47 50 -72 59 -93 113 -130
190 -130 52 0 60 9 71 83 9 60 -10 87 -64 87 -35 0 -38 3 -84 83 -27 45 -64
122 -83 171 -31 80 -34 97 -34 195 0 107 0 107 -30 129 -16 12 -30 22 -32 21
-2 0 -10 -3 -18 -7z"/>
<path d="M2627 3988 c-36 -49 -42 -61 -111 -262 -36 -102 -72 -196 -80 -208
-9 -12 -16 -34 -16 -48 0 -14 -11 -60 -25 -103 -14 -43 -32 -119 -40 -169 -8
-50 -17 -93 -19 -96 -14 -14 -16 60 -4 190 l14 146 -33 26 c-68 55 -87 17
-118 -238 -28 -222 -26 -240 20 -252 41 -10 72 4 97 43 20 34 23 36 26 16 2
-12 -2 -31 -7 -42 -6 -11 -11 -31 -11 -46 0 -21 8 -29 37 -42 33 -13 41 -13
62 -2 45 26 64 63 67 133 6 133 24 218 64 310 22 50 75 213 119 363 l78 271
-28 21 c-39 29 -64 26 -92 -11z"/>
<path d="M8423 3990 c-46 -19 -44 -37 15 -195 48 -126 63 -156 98 -190 35 -35
43 -49 49 -95 15 -116 63 -179 141 -188 57 -6 74 11 74 72 0 34 -9 52 -61 118
l-60 79 6 54 7 54 -36 22 c-20 11 -36 26 -36 32 0 31 -65 144 -111 192 -29 30
-55 55 -58 54 -3 0 -16 -4 -28 -9z"/>
<path d="M6956 3958 c-8 -13 -18 -62 -22 -110 -7 -95 -14 -72 81 -273 23 -49
46 -108 50 -130 10 -55 30 -90 69 -120 28 -21 37 -38 47 -81 13 -58 39 -87 90
-98 31 -8 42 0 68 51 26 52 26 73 3 104 -26 33 -232 387 -248 424 -6 16 -15
71 -19 121 -7 87 -8 91 -39 112 -41 28 -62 28 -80 0z"/>
<path d="M8231 3934 c-37 -31 -40 -62 -7 -93 29 -27 34 -39 80 -191 29 -93 42
-122 68 -147 63 -59 117 -71 136 -29 15 34 -3 154 -27 181 -32 34 -69 117 -81
183 l-13 63 -58 30 c-32 16 -60 29 -63 29 -2 0 -18 -12 -35 -26z"/>
<path d="M3338 3863 c-21 -5 -28 -25 -89 -242 -40 -145 -56 -188 -76 -205 -20
-17 -23 -25 -15 -46 7 -18 4 -37 -11 -73 -17 -42 -19 -54 -8 -82 10 -29 7 -50
-20 -162 -20 -79 -41 -140 -55 -160 -32 -43 -31 -86 2 -112 40 -31 80 -27 120
13 25 25 34 43 34 66 0 18 25 129 56 248 44 172 54 220 45 238 -8 19 2 68 51
250 l62 227 -30 23 c-29 24 -35 25 -66 17z"/>
<path d="M8005 3863 c-24 -6 -44 -32 -45 -56 0 -30 147 -312 181 -346 59 -59
120 -68 144 -21 24 47 19 85 -14 112 -17 13 -39 47 -51 77 -29 74 -83 153
-137 201 -25 22 -49 39 -52 39 -3 -1 -15 -4 -26 -6z"/>
<path d="M3541 3836 c-7 -8 -30 -108 -52 -223 -22 -114 -46 -223 -54 -241 -8
-18 -15 -42 -15 -54 0 -12 -32 -143 -71 -292 l-70 -271 26 -22 c26 -23 60 -29
82 -15 22 14 67 126 65 162 -1 19 20 107 48 195 39 126 59 221 97 447 l47 286
-24 21 c-29 24 -63 27 -79 7z"/>
<path d="M2816 3794 c-9 -8 -23 -41 -32 -72 -9 -31 -23 -64 -30 -73 -8 -8 -14
-31 -14 -50 0 -46 -27 -131 -46 -145 -12 -10 -13 -19 -3 -57 9 -39 7 -66 -20
-204 -52 -268 -71 -373 -71 -389 0 -8 16 -22 35 -31 34 -16 36 -16 54 3 41 42
122 347 166 630 13 87 33 204 44 259 l19 100 -26 22 c-32 26 -55 29 -76 7z"/>
<path d="M1723 3732 c-25 -8 -323 -424 -323 -452 0 -10 -7 -34 -16 -55 -8 -20
-14 -38 -12 -39 55 -39 80 -48 109 -36 36 15 69 55 69 85 0 12 59 119 131 239
l132 218 -29 24 c-16 13 -31 23 -34 23 -3 -1 -15 -4 -27 -7z"/>
<path d="M6683 3732 c-31 -5 -53 -39 -53 -82 0 -20 54 -218 119 -440 128 -431
123 -421 198 -461 21 -11 27 -10 51 14 35 35 37 95 4 130 -17 18 -82 162 -82
182 0 2 12 -3 28 -11 37 -19 86 -18 104 4 8 9 20 37 27 61 12 42 12 45 -11 63
-12 10 -30 20 -39 23 -24 8 -70 165 -54 185 7 8 17 31 24 50 11 33 10 37 -15
58 -33 29 -53 23 -124 -38 l-55 -48 -20 139 c-19 136 -21 140 -50 158 -16 9
-40 16 -52 13z"/>
<path d="M1826 3661 c-30 -33 -376 -643 -376 -662 0 -24 -5 -24 -38 0 -18 12
-34 16 -47 11 -55 -20 -143 -161 -160 -254 -6 -30 -14 -40 -37 -48 -60 -21
-211 -237 -275 -394 -20 -48 -50 -144 -66 -212 -33 -133 -32 -144 15 -171 23
-13 29 -13 50 1 19 13 35 49 72 160 47 144 129 322 199 430 35 54 38 56 74 52
21 -3 44 -1 52 4 7 5 20 38 28 72 8 35 39 110 69 168 30 58 54 112 54 119 0
11 7 9 26 -6 30 -23 65 -27 96 -10 20 11 20 11 2 -15 -12 -17 -26 -24 -38 -22
-47 12 -83 -36 -196 -264 -23 -46 -59 -111 -79 -145 -20 -33 -78 -152 -129
-264 -86 -189 -93 -208 -90 -259 3 -51 6 -58 35 -75 29 -17 34 -17 62 -3 22
12 33 27 41 59 11 40 24 78 71 202 11 30 25 55 31 55 25 0 48 36 74 112 14 44
28 78 30 75 2 -2 -1 -32 -7 -66 -11 -63 -11 -63 16 -85 32 -26 31 -31 -20
-141 -27 -56 -35 -90 -42 -170 -9 -96 -8 -101 13 -122 24 -23 58 -29 82 -14 7
4 22 48 32 97 17 76 106 291 117 280 7 -7 -31 -152 -43 -167 -8 -9 -20 -53
-26 -99 -12 -81 -12 -83 11 -101 27 -22 60 -24 86 -6 15 12 21 11 37 -5 19
-19 63 -24 86 -9 12 7 71 215 72 251 0 18 -58 56 -79 52 -10 -3 -12 2 -6 15 4
10 11 34 15 53 4 19 44 162 89 318 l83 282 -24 20 c-25 22 -75 20 -89 -2 -4
-7 -41 -104 -81 -216 -66 -185 -74 -203 -93 -197 -28 9 -37 9 -62 1 -17 -5
-22 -4 -19 6 117 361 158 486 166 498 20 30 60 110 60 117 0 4 -16 18 -35 31
-41 26 -58 21 -105 -31 -19 -21 18 59 103 225 73 141 133 255 134 254 6 -6
-60 -203 -73 -217 -21 -23 -18 -92 4 -112 27 -25 78 -22 96 6 22 33 186 405
186 420 0 21 -56 58 -77 50 -10 -3 -38 -24 -62 -47 l-43 -41 32 64 32 64 -29
23 c-34 28 -64 30 -87 5z"/>
<path d="M2177 3628 c-21 -8 -36 -28 -68 -96 -46 -96 -121 -316 -139 -407 -6
-33 -18 -77 -26 -98 -21 -55 -18 -70 21 -94 l35 -23 45 32 c25 18 45 39 45 48
0 13 117 429 165 591 3 9 -6 24 -22 35 -22 17 -34 19 -56 12z"/>
<path d="M3022 3424 c-12 -8 -22 -25 -22 -37 0 -12 -29 -148 -65 -301 -35
-154 -62 -283 -58 -289 10 -16 74 -38 93 -32 37 12 52 60 106 338 30 155 54
287 54 292 0 13 -52 45 -72 45 -7 0 -24 -7 -36 -16z"/>
<path d="M3632 3431 c-11 -7 -161 -563 -162 -598 0 -22 39 -53 65 -53 13 0 33
9 43 20 35 38 125 378 146 550 6 54 6 55 -25 73 -34 19 -48 21 -67 8z"/>
<path d="M7371 3074 c-17 -22 -21 -40 -20 -98 1 -91 8 -115 42 -139 22 -17 33
-19 64 -11 50 12 71 50 49 92 -8 16 -12 38 -9 50 13 50 -42 132 -88 132 -9 0
-27 -12 -38 -26z"/>
<path d="M8031 3081 c-30 -30 -43 -132 -31 -252 13 -128 31 -179 77 -220 33
-28 42 -50 99 -228 53 -169 60 -198 48 -212 -12 -13 -12 -24 1 -74 32 -123
107 -195 200 -195 37 0 39 4 48 78 3 30 -1 36 -35 58 -21 13 -38 27 -38 30 0
8 30 37 34 33 1 -2 12 -21 25 -41 46 -78 126 -123 201 -116 25 2 38 10 45 26
8 18 18 22 50 22 39 0 42 2 64 47 l23 47 -51 44 c-40 34 -51 50 -51 73 0 16
-29 109 -65 206 -49 134 -88 218 -161 347 -94 167 -131 215 -166 216 -26 0
-58 -36 -58 -64 0 -24 226 -505 282 -599 22 -37 28 -60 28 -104 l0 -57 -57 82
c-36 53 -63 82 -75 82 -17 0 -22 -9 -43 -68 -4 -10 -10 -10 -33 2 -25 13 -33
31 -76 173 -77 256 -85 276 -122 330 -34 49 -36 59 -48 179 -12 122 -13 128
-41 150 -36 29 -49 30 -74 5z"/>
<path d="M8702 2958 c-7 -7 -12 -20 -12 -30 0 -14 145 -345 240 -549 6 -14 29
-36 50 -49 35 -22 39 -28 45 -81 12 -98 69 -158 140 -145 44 9 73 41 57 64
-42 59 -70 120 -76 161 -5 37 -13 52 -36 69 -16 12 -34 22 -40 22 -5 0 -10 10
-10 23 0 13 -13 48 -29 78 -16 30 -51 100 -79 156 -57 116 -98 178 -160 246
-45 48 -68 57 -90 35z"/>
<path d="M2143 2740 c-37 -15 -200 -354 -262 -544 -29 -87 -50 -164 -48 -170
7 -17 -48 -245 -62 -259 -6 -6 -11 -32 -11 -58 0 -38 5 -51 22 -63 34 -24 67
-19 96 12 26 27 29 28 62 16 52 -19 68 -17 73 9 4 19 4 19 6 -5 1 -29 51 -78
79 -78 37 0 61 13 70 38 6 15 13 97 17 182 l6 155 -33 20 c-18 11 -40 18 -48
16 -23 -5 -48 -31 -53 -55 -2 -11 -2 1 1 27 4 42 1 51 -19 65 -13 9 -34 19
-46 22 -21 5 -18 15 86 265 85 205 113 263 132 272 73 37 63 124 -17 138 -16
2 -39 0 -51 -5z"/>
<path d="M2390 2729 c-20 -7 -50 -59 -156 -272 -72 -144 -134 -275 -137 -292
-20 -107 -21 -102 23 -131 l41 -27 29 29 c19 20 68 126 154 334 69 167 126
311 126 320 0 25 -50 49 -80 39z"/>
<path d="M2602 2657 c-6 -7 -76 -178 -156 -380 -80 -202 -155 -388 -166 -412
-24 -53 -25 -68 -5 -85 10 -9 12 -16 6 -24 -6 -7 -13 -48 -17 -92 -6 -79 -6
-81 21 -102 36 -29 60 -28 92 4 22 22 24 31 18 69 -5 36 -2 50 16 74 19 26 20
35 12 85 -10 54 -9 58 34 148 88 182 185 445 229 615 l18 72 -24 20 c-29 23
-63 27 -78 8z"/>
<path d="M8810 2363 c-31 -13 -42 -32 -35 -66 24 -110 107 -244 170 -274 28
-13 39 -14 60 -5 21 10 65 65 65 83 0 3 -21 20 -46 38 -29 22 -69 68 -111 132
-65 97 -72 104 -103 92z"/>
<path d="M2466 1838 c-24 -22 -25 -30 -27 -127 -3 -99 -2 -104 22 -122 34 -26
56 -32 95 -25 40 8 53 41 35 91 -6 17 -11 60 -11 96 0 61 -2 65 -33 87 -18 12
-38 22 -45 22 -6 0 -22 -10 -36 -22z"/>
</g>
</svg>
