<?xml version="1.0" standalone="no"?>
<!DOCTYPE svg PUBLIC "-//W3C//DTD SVG 20010904//EN"
 "http://www.w3.org/TR/2001/REC-SVG-20010904/DTD/svg10.dtd">
<svg version="1.0" xmlns="http://www.w3.org/2000/svg"
 width="1024.000000pt" height="1024.000000pt" viewBox="0 0 1024.000000 1024.000000"
 preserveAspectRatio="xMidYMid meet">
<metadata>
Created by potrace 1.10, written by Peter Selinger 2001-2011
</metadata>
<g transform="translate(0.000000,1024.000000) scale(0.100000,-0.100000)"
fill="#000000" stroke="none">
<path d="M4701 7096 l-94 -60 28 -21 c131 -93 174 -148 200 -251 12 -49 15
-111 13 -310 l-3 -248 -822 -105 c-453 -58 -825 -102 -828 -99 -4 3 -15 57
-25 119 -18 114 -56 227 -71 212 -4 -4 -12 -35 -18 -68 -40 -234 -35 -223
-262 -602 -230 -385 -235 -400 -194 -576 15 -63 30 -118 34 -124 19 -27 102
-83 123 -83 30 0 92 39 131 83 16 18 55 73 88 122 47 70 68 117 99 213 38 119
71 267 85 385 4 31 10 57 13 57 3 0 535 67 1181 150 l1176 149 620 36 c341 19
657 35 701 35 94 0 110 -10 100 -64 -6 -34 -162 -353 -255 -524 -51 -92 -51
-92 -29 -103 19 -8 36 -2 103 36 130 75 492 250 600 290 90 33 174 55 277 70
21 3 50 16 65 29 65 56 15 169 -151 346 -55 60 -394 310 -419 310 -8 0 -34 -7
-57 -15 -24 -8 -136 -36 -249 -61 -199 -44 -230 -47 -901 -110 -382 -35 -696
-64 -698 -64 -5 0 9 383 20 513 l11 138 -39 40 c-55 57 -134 101 -265 147 -63
22 -132 47 -154 55 l-40 14 -94 -61z"/>
<path d="M5274 5769 c-61 -18 -60 -29 14 -114 85 -99 104 -127 130 -198 38
-100 53 -220 61 -492 11 -322 24 -374 114 -472 78 -85 95 -90 514 -139 l373
-44 468 50 c257 27 484 54 504 60 43 12 88 61 88 95 0 39 -111 175 -174 214
-105 63 -127 65 -310 31 -228 -43 -822 -120 -926 -120 -155 0 -263 50 -312
143 -19 36 -23 63 -26 177 -5 177 12 424 33 478 23 56 8 96 -60 170 -111 121
-356 200 -491 161z"/>
<path d="M3974 5648 c-47 -53 -46 -51 -15 -117 l29 -61 -25 -83 c-22 -72 -47
-114 -200 -342 -97 -143 -205 -298 -241 -345 -94 -121 -299 -322 -422 -413
-246 -183 -341 -260 -328 -268 26 -17 78 -8 213 36 197 64 354 151 595 331
219 162 341 288 636 655 198 246 229 300 200 343 -43 67 -362 286 -415 286 -4
0 -16 -10 -27 -22z"/>
</g>
</svg>
