<?xml version="1.0" standalone="no"?>
<!DOCTYPE svg PUBLIC "-//W3C//DTD SVG 20010904//EN"
 "http://www.w3.org/TR/2001/REC-SVG-20010904/DTD/svg10.dtd">
<svg version="1.0" xmlns="http://www.w3.org/2000/svg"
 width="1024.000000pt" height="1024.000000pt" viewBox="0 0 1024.000000 1024.000000"
 preserveAspectRatio="xMidYMid meet">
<metadata>
Created by potrace 1.10, written by Peter Selinger 2001-2011
</metadata>
<g transform="translate(0.000000,1024.000000) scale(0.100000,-0.100000)"
fill="#000000" stroke="none">
<path d="M5185 8375 c-17 -7 -40 -24 -53 -37 -23 -25 -23 -27 -35 -506 -7
-265 -15 -483 -17 -485 -3 -2 -300 -27 -660 -56 -1046 -83 -1095 -88 -1202
-116 -130 -33 -246 -81 -359 -148 -174 -102 -235 -167 -303 -322 -173 -396
-221 -709 -261 -1715 l-24 -615 19 -560 c10 -308 25 -661 32 -785 11 -198 15
-959 6 -1200 l-3 -75 95 3 c52 2 98 7 102 11 4 3 15 65 24 136 22 174 21 417
-4 1025 -12 272 -24 597 -28 721 l-7 227 439 487 439 487 229 336 c301 442
369 551 465 745 125 255 204 482 272 792 17 77 36 161 42 188 9 40 8 54 -9 95
l-21 48 691 37 c380 21 694 38 697 37 4 0 3 -17 -2 -37 -13 -59 -11 -243 5
-325 23 -119 223 -840 283 -1018 101 -302 254 -665 366 -868 182 -329 350
-552 641 -852 213 -220 260 -261 421 -369 72 -48 174 -121 228 -162 141 -106
172 -122 230 -115 41 4 47 3 47 -14 0 -11 -22 -275 -50 -587 -27 -312 -50
-608 -50 -658 0 -92 -20 -257 -41 -339 -6 -26 -9 -49 -7 -52 3 -2 55 -7 116
-11 91 -5 112 -3 116 8 3 8 71 925 152 2039 143 1986 146 2029 141 2255 -3
127 -13 289 -22 360 -44 374 -83 478 -239 642 -61 64 -98 93 -165 129 -133 70
-333 133 -556 173 -225 40 -355 44 -1209 38 l-809 -7 6 205 c5 164 3 214 -8
252 -13 41 -13 71 -4 196 9 114 9 161 0 202 -13 59 -53 121 -98 153 -25 18
-32 19 -58 7z m1885 -1225 c216 -19 434 -70 630 -150 52 -21 114 -44 137 -50
84 -22 191 -190 223 -354 38 -186 70 -536 70 -761 0 -95 -124 -2133 -136
-2222 l-5 -43 -87 75 c-107 93 -198 156 -322 225 -112 62 -229 161 -395 331
-259 267 -428 515 -639 936 -175 351 -252 561 -427 1168 l-132 460 -3 133 c-2
120 -5 139 -28 185 -14 28 -24 53 -22 54 3 3 604 17 916 21 58 1 157 -3 220
-8z m-2870 -114 c0 -19 -168 -569 -205 -671 -133 -366 -352 -774 -543 -1008
-45 -56 -119 -156 -165 -222 -190 -277 -419 -564 -653 -819 l-119 -130 -7 80
c-3 43 -9 243 -13 444 -12 633 27 1020 155 1547 33 135 60 258 60 274 0 15 5
31 10 34 6 4 25 31 42 61 26 47 50 69 167 152 144 102 241 149 366 177 107 24
905 95 905 81z"/>
<path d="M6511 3116 c-1 -5 4 -27 11 -50 12 -43 28 -70 27 -45 0 16 -38 108
-38 95z"/>
</g>
</svg>
