<?xml version="1.0" standalone="no"?>
<!DOCTYPE svg PUBLIC "-//W3C//DTD SVG 20010904//EN"
 "http://www.w3.org/TR/2001/REC-SVG-20010904/DTD/svg10.dtd">
<svg version="1.0" xmlns="http://www.w3.org/2000/svg"
 width="1024.000000pt" height="1024.000000pt" viewBox="0 0 1024.000000 1024.000000"
 preserveAspectRatio="xMidYMid meet">
<metadata>
Created by potrace 1.10, written by Peter Selinger 2001-2011
</metadata>
<g transform="translate(0.000000,1024.000000) scale(0.100000,-0.100000)"
fill="#000000" stroke="none">
<path d="M4061 9265 c-17 -20 -31 -40 -31 -44 0 -5 -51 -40 -113 -79 -71 -45
-134 -94 -172 -134 -70 -73 -242 -198 -334 -241 -41 -19 -376 -265 -935 -685
-479 -360 -897 -677 -929 -705 -47 -40 -61 -48 -68 -36 -5 8 -9 19 -9 25 0 7
-17 27 -39 47 -53 48 -82 42 -121 -27 -17 -28 -30 -59 -30 -68 0 -14 -5 -12
-26 9 -19 19 -32 24 -54 20 -18 -4 -30 -2 -33 6 -3 7 -23 25 -45 41 l-40 27
-36 -23 c-52 -34 -82 -125 -60 -183 17 -44 126 -61 159 -25 10 11 28 20 41 20
38 0 74 18 83 42 l8 23 7 -23 c4 -13 23 -30 42 -39 28 -14 34 -22 34 -47 0
-17 9 -46 20 -63 l20 -33 210 0 210 0 0 -82 c0 -46 5 -204 10 -353 6 -148 15
-472 20 -720 7 -316 14 -478 25 -545 9 -53 18 -198 22 -326 l6 -231 -90 -5
-91 -4 -153 -100 c-181 -117 -210 -153 -217 -258 -4 -57 -2 -63 25 -89 39 -36
275 -104 310 -88 12 6 63 13 113 17 l91 7 -7 -52 c-10 -77 9 -132 63 -181 50
-45 52 -60 5 -36 -53 27 -183 76 -271 102 -167 49 -285 66 -486 71 -172 5
-198 3 -275 -17 -229 -59 -474 -187 -525 -275 -35 -59 -34 -122 2 -158 27 -25
35 -27 349 -56 353 -33 464 -48 645 -87 386 -81 825 -251 959 -369 62 -56 113
-87 163 -99 l27 -6 0 -154 c0 -84 3 -263 6 -397 l6 -244 -51 84 c-121 199
-272 363 -471 512 -138 103 -217 147 -348 193 -107 37 -288 72 -325 62 -13 -3
-40 -17 -61 -31 -35 -23 -41 -24 -114 -16 -74 8 -80 7 -161 -26 -47 -19 -124
-62 -173 -94 -97 -65 -103 -78 -68 -134 19 -30 29 -35 133 -60 314 -78 628
-245 915 -488 82 -69 595 -609 619 -651 7 -11 12 -34 13 -51 0 -16 9 -43 20
-60 20 -30 25 -85 14 -143 l-6 -30 -71 75 c-296 311 -740 612 -1095 742 -162
59 -373 109 -547 128 -149 17 -150 17 -220 -5 -38 -12 -94 -35 -122 -52 -59
-34 -74 -65 -54 -114 7 -17 23 -58 35 -91 19 -53 27 -62 71 -85 41 -21 64 -25
137 -26 71 -1 100 -7 153 -29 61 -26 83 -45 51 -45 -29 0 -73 -49 -86 -95 -39
-141 53 -467 185 -649 171 -239 512 -441 871 -518 96 -20 136 -23 338 -23
l228 0 34 39 34 40 70 -18 c38 -10 74 -16 81 -14 6 2 24 -9 40 -24 40 -40 87
-38 146 7 25 19 49 35 52 35 4 0 5 -16 3 -35 -6 -48 11 -65 66 -65 60 0 96 23
219 142 97 94 104 98 146 98 51 0 73 19 83 71 4 19 14 45 24 59 9 14 25 45 35
69 l19 44 -39 33 c-21 19 -45 34 -52 34 -47 0 -122 -71 -156 -150 -24 -53 -27
-56 -83 -74 -33 -10 -67 -25 -76 -33 -15 -13 -18 -12 -32 15 -19 38 -53 62
-84 62 -39 0 -155 -67 -222 -127 l-62 -56 -74 79 c-41 43 -98 111 -125 151
-187 267 -439 498 -724 665 -66 39 -207 123 -313 187 -107 64 -226 135 -265
158 -87 52 -212 99 -327 123 -47 10 -80 19 -75 19 6 1 107 -11 225 -25 l215
-27 135 -59 c256 -113 548 -277 725 -408 229 -170 408 -412 474 -642 33 -113
53 -139 119 -158 33 -9 39 -8 55 11 17 22 21 32 32 102 5 31 10 37 31 37 18 0
47 20 92 61 194 177 413 270 679 289 65 4 119 13 128 20 9 7 17 11 19 9 2 -2
44 -74 94 -159 91 -154 92 -155 70 -170 -139 -95 -198 -167 -184 -223 8 -32
41 -56 88 -64 32 -5 41 0 100 56 l65 61 45 -44 c31 -31 55 -46 83 -51 22 -4
47 -15 55 -25 25 -29 94 -32 133 -6 74 51 1251 896 1353 972 141 105 267 189
374 249 131 73 490 317 490 332 0 36 -31 84 -62 97 -21 8 -126 18 -283 26
-278 13 -358 6 -514 -46 -206 -69 -540 -290 -756 -501 l-80 -78 0 345 c0 342
-5 425 -41 650 -26 159 -43 201 -130 310 -50 62 -85 80 -162 80 -54 0 -70 -4
-108 -30 -30 -21 -44 -38 -44 -53 0 -12 7 -116 15 -232 21 -304 17 -612 -11
-814 l-6 -44 -23 29 c-14 17 -24 43 -25 61 0 21 -10 43 -27 63 -28 29 -31 30
-188 44 -88 7 -169 10 -180 6 -12 -4 -49 -26 -84 -48 l-63 -39 -38 18 c-88 43
-243 69 -301 51 -19 -6 -55 -13 -81 -17 -50 -7 -108 -45 -108 -72 0 -8 -11
-29 -25 -47 -28 -37 -32 -81 -11 -112 8 -11 68 -62 135 -114 67 -52 121 -97
121 -100 0 -13 -92 -55 -159 -72 -41 -10 -102 -34 -136 -53 -69 -38 -292 -244
-309 -286 -9 -22 -11 -15 -12 50 -1 55 -7 90 -22 124 -20 44 -20 51 -7 77 8
16 18 61 21 100 l7 71 294 367 c178 222 343 416 416 490 127 129 311 283 434
365 127 85 144 134 72 212 -66 71 -102 84 -286 97 l-160 12 -54 -27 c-161 -79
-361 -251 -475 -409 -32 -45 -89 -142 -126 -216 l-66 -135 -6 44 c-3 24 -13
214 -22 421 l-17 377 31 88 c17 48 36 117 42 153 20 120 72 234 154 342 l51
67 165 0 c91 1 229 -2 307 -6 l142 -6 -46 -54 c-25 -29 -48 -53 -52 -53 -3 0
-12 13 -19 28 -6 16 -25 38 -42 50 l-29 22 -36 -21 c-36 -21 -65 -64 -65 -94
0 -9 7 -29 15 -45 12 -23 22 -30 46 -30 34 0 79 20 99 45 12 15 16 12 34 -27
25 -50 58 -71 105 -64 37 6 69 31 112 90 32 44 37 82 14 126 l-16 30 112 0
111 0 -32 -40 c-37 -46 -61 -117 -53 -152 9 -35 43 -67 85 -80 43 -13 60 -4
84 46 8 17 24 47 35 66 25 47 25 100 -3 135 l-22 28 110 -8 c60 -4 111 -9 113
-11 3 -3 -15 -24 -39 -49 -40 -40 -42 -47 -37 -85 15 -114 76 -119 184 -17 49
47 61 83 39 125 l-15 30 487 6 c268 3 654 8 857 11 l370 5 2 -51 c2 -87 12
-122 31 -114 52 20 67 16 118 -27 29 -24 80 -61 115 -83 34 -22 74 -48 89 -58
26 -16 57 -16 711 12 l684 30 135 46 c74 25 136 45 138 45 2 0 -5 -15 -16 -32
-30 -51 -48 -183 -33 -244 31 -124 111 -220 231 -278 60 -29 67 -36 95 -93 17
-34 40 -72 53 -86 l23 -24 -252 -294 c-138 -162 -283 -327 -322 -368 -85 -86
-246 -228 -334 -291 -56 -40 -62 -49 -63 -80 0 -72 48 -100 136 -79 59 14 83
31 249 180 136 122 308 305 420 449 37 47 118 137 180 200 123 126 146 165
126 222 -6 18 -18 39 -26 48 -14 15 -13 21 7 58 27 48 23 63 -36 155 -27 42
-71 85 -165 160 -123 97 -129 104 -137 147 -4 25 -7 47 -6 50 1 3 8 25 17 48
21 58 11 104 -31 149 -19 20 -33 37 -31 39 6 7 561 223 564 220 2 -2 -3 -29
-12 -62 -28 -109 -13 -214 47 -327 39 -73 93 -128 195 -200 205 -143 302 -321
303 -552 0 -63 -4 -86 -20 -110 -11 -16 -20 -36 -20 -44 0 -8 -11 -29 -25 -47
-14 -18 -25 -40 -25 -50 0 -22 -112 -170 -219 -291 -146 -165 -284 -274 -645
-512 -47 -31 -76 -75 -76 -117 0 -40 26 -62 81 -70 41 -5 51 -2 134 51 189
119 326 224 510 391 83 74 94 82 142 87 61 7 114 33 164 80 46 43 56 71 35
102 -9 14 -20 25 -24 25 -4 0 -13 4 -20 9 -11 6 -5 21 24 67 40 62 114 224
114 249 0 8 19 23 43 35 116 56 187 121 187 170 0 53 -68 78 -127 47 -18 -9
-36 -17 -41 -17 -5 0 -12 31 -16 68 -16 161 -56 235 -210 387 -136 134 -218
232 -295 350 -53 80 -53 80 -48 145 3 36 9 77 12 92 6 23 2 30 -34 55 -22 15
-40 30 -41 33 0 4 37 24 83 45 58 29 128 77 240 169 114 92 163 127 177 123
15 -4 25 6 45 42 l26 46 -16 315 c-8 173 -18 331 -20 350 -25 170 -38 433 -42
820 -4 421 -5 438 -27 515 -22 72 -23 82 -9 103 14 23 12 27 -69 108 -78 79
-89 86 -183 123 -245 96 -481 151 -752 176 l-72 7 -5 51 c-3 29 -12 444 -21
922 -9 479 -20 903 -26 943 -9 71 -8 76 18 122 15 27 35 51 44 53 10 3 29 23
44 45 32 48 28 73 -18 100 -28 18 -66 21 -338 32 -286 11 -308 11 -340 -5 -19
-10 -37 -22 -40 -27 -3 -5 -37 -4 -80 2 -62 8 -2608 40 -3214 40 l-183 0 -31
-35z m1569 -155 c795 -17 1487 -33 1539 -36 l94 -6 -99 -99 -99 -99 -1595 0
-1595 0 80 54 c44 29 93 65 108 80 34 32 60 91 52 117 -6 16 -1 19 32 19 21 0
688 -13 1483 -30z m2328 1 l44 -6 -472 -535 c-260 -294 -479 -543 -488 -552
-16 -15 -28 -12 -182 49 -91 37 -166 67 -168 69 -12 9 216 275 442 514 148
157 291 313 318 347 l49 62 90 7 c85 6 92 8 112 36 l22 30 94 -7 c52 -4 114
-10 139 -14z m66 -361 c-19 -144 -17 -429 6 -1105 11 -313 20 -571 20 -572 0
-1 12 -4 28 -7 15 -4 40 -15 55 -25 l29 -18 -144 -6 c-79 -3 -151 -7 -162 -9
-15 -2 -24 16 -55 112 -44 136 -100 255 -171 362 -50 76 -51 80 -66 197 -9 77
-13 186 -12 308 3 186 3 189 -23 239 l-26 51 249 279 c228 256 277 308 284
301 1 -1 -4 -49 -12 -107z m-4259 1 c10 -12 33 -21 58 -23 l41 -3 -439 -351
c-242 -192 -463 -367 -491 -387 -70 -50 -184 -172 -225 -241 l-34 -57 -190 7
c-104 4 -191 7 -192 8 -4 3 1433 1065 1443 1066 6 0 19 -9 29 -19z m2522 -48
c538 -5 631 -8 621 -20 -6 -8 -17 -12 -24 -9 -8 3 -555 12 -1216 21 -662 8
-1228 17 -1258 19 -66 5 999 -2 1877 -11z m-717 -138 c404 -3 844 -8 976 -11
l242 -6 -157 -183 -156 -182 -85 5 c-269 15 -680 -99 -973 -271 -121 -72 -297
-203 -297 -223 0 -12 -88 -14 -617 -14 -340 0 -777 3 -971 7 l-354 6 60 60
c33 32 273 232 533 443 l474 384 295 -5 c162 -3 626 -7 1030 -10z m-2025 -304
c-84 -78 -454 -394 -523 -446 -77 -58 -92 -75 -92 -97 0 -27 -2 -28 -47 -28
-25 0 -44 2 -42 4 2 2 27 21 54 42 28 21 118 97 200 170 127 112 440 363 455
364 2 0 0 -4 -5 -9z m3839 -405 l7 -108 -88 68 c-48 37 -94 73 -102 80 -12 10
1 29 75 114 l89 101 6 -73 c3 -40 9 -122 13 -182z m-1094 128 c0 -3 -47 -56
-105 -117 -81 -86 -109 -122 -118 -154 l-11 -43 -171 0 c-95 0 -240 3 -324 7
l-153 6 54 35 c152 98 430 209 614 246 121 23 214 32 214 20z m421 -75 c95
-33 175 -62 177 -64 2 -2 -29 -42 -69 -89 l-73 -86 -250 0 -250 0 64 68 c105
109 224 232 226 232 0 0 79 -27 175 -61z m502 -277 c51 -48 116 -103 143 -122
46 -33 49 -38 47 -75 -5 -119 -4 -175 11 -324 9 -91 14 -167 11 -169 -3 -3
-105 -33 -227 -67 -123 -34 -240 -70 -262 -79 -21 -9 -39 -16 -40 -16 -2 0 -1
14 2 30 2 17 7 30 11 30 12 0 12 662 -1 696 -11 32 -10 34 72 128 l83 96 28
-21 c15 -11 70 -59 122 -107z m-4803 -94 c275 -21 351 -22 2241 -28 l1957 -5
-90 -105 c-49 -58 -96 -117 -104 -132 l-15 -28 -1472 1 c-809 1 -1865 5 -2346
8 l-874 6 194 152 c107 83 201 152 209 152 8 0 143 -9 300 -21z m4319 -563 c1
-264 3 -257 -78 -302 -156 -87 -344 -226 -438 -325 -70 -75 -78 -122 -39 -223
22 -58 19 -155 -9 -275 -24 -104 -25 -111 -25 -570 0 -449 1 -467 21 -520 28
-72 30 -207 4 -265 -12 -27 -20 -78 -24 -159 -5 -87 -10 -121 -20 -124 -7 -2
-22 -13 -32 -23 -17 -17 -37 -19 -223 -19 l-204 0 4 58 c2 31 7 119 10 194 3
76 9 136 13 133 8 -5 21 423 21 670 l-1 150 -18 -34 c-18 -33 -18 -32 -24 215
-4 137 -9 483 -12 769 -3 286 -7 571 -10 633 l-5 112 402 0 402 0 77 81 c43
45 104 113 136 150 l58 68 6 -102 c4 -56 7 -187 8 -292z m-4015 63 c3 -18 21
-522 41 -1120 l36 -1088 -44 -82 c-82 -152 -152 -354 -180 -523 l-14 -80 -43
135 c-50 159 -72 205 -139 294 -28 36 -53 82 -57 101 -14 75 -73 115 -168 115
-30 0 -57 4 -60 9 -3 4 -26 437 -52 962 -39 790 -46 985 -39 1132 l7 177 354
0 353 0 5 -32z m860 -20 c-11 -45 -10 -152 11 -792 14 -408 25 -758 25 -778
l0 -38 -47 0 c-59 0 -152 -22 -217 -49 -27 -12 -115 -77 -203 -152 -86 -71
-158 -128 -161 -125 -2 3 -22 293 -44 643 -31 501 -40 714 -41 990 l-2 353
347 0 346 0 -14 -52z m943 15 c-4 -21 7 -657 23 -1413 17 -756 30 -1396 30
-1422 l0 -48 -374 0 -375 0 -5 53 c-9 97 -48 2235 -45 2500 3 261 -2 315 -34
355 -7 9 71 12 388 12 l398 0 -6 -37z m937 -155 c3 -106 16 -677 27 -1268 18
-949 19 -1364 3 -1422 -5 -17 -31 -18 -358 -18 l-353 0 4 168 c7 244 -35 2555
-47 2609 -6 25 -19 62 -30 84 l-20 39 384 0 384 0 6 -192z m2180 115 c6 -17 3
-23 -8 -23 -12 0 -16 10 -16 38 1 38 10 32 24 -15z m916 -207 c259 -47 317
-67 478 -163 136 -82 142 -87 142 -118 0 -29 -4 -34 -47 -50 -58 -22 -155 -78
-173 -100 -7 -8 -19 -15 -27 -15 -10 0 -7 10 13 33 41 48 55 89 48 140 -8 59
-41 116 -83 144 -69 47 -112 52 -515 63 -209 6 -414 13 -453 16 l-73 6 0 40 0
40 273 -5 c234 -4 292 -9 417 -31z m-880 -16 c0 -34 9 -31 -160 -55 -342 -49
-729 -190 -872 -317 -67 -59 -70 -63 -64 -97 7 -46 46 -81 91 -81 19 0 37 -4
40 -10 3 -5 38 -19 77 -30 60 -18 129 -24 457 -40 212 -10 387 -19 389 -19 6
-2 1 -101 -5 -101 -5 0 -222 16 -484 34 -467 33 -476 34 -530 61 -30 15 -55
31 -57 35 -2 5 -37 34 -78 65 -41 32 -73 59 -72 60 2 2 82 58 178 125 164 114
282 180 375 210 40 13 693 188 708 189 4 1 7 -12 7 -29z m1086 -246 c44 -21
50 -32 22 -39 -13 -2 -225 -39 -473 -80 -247 -42 -463 -78 -478 -81 l-28 -6 6
64 c3 34 8 87 11 117 l6 54 450 -7 c385 -5 455 -8 484 -22z m-1127 -46 c-4
-29 -11 -79 -14 -112 l-7 -59 -81 6 c-45 4 -200 12 -344 19 -279 12 -293 17
-171 51 32 8 65 22 73 31 16 16 65 28 335 80 235 46 219 47 209 -16z m1563
-866 l3 -333 -34 -21 -33 -21 3 490 c4 474 5 492 24 513 l20 22 7 -158 c3 -88
8 -309 10 -492z m-735 602 c-3 -3 -12 -4 -19 -1 -8 3 -5 6 6 6 11 1 17 -2 13
-5z m-42 -9 c-20 -8 -585 -155 -595 -155 -7 0 -10 17 -8 42 l3 43 275 36 c251
34 352 44 325 34z m522 -363 c1 -158 5 -379 9 -492 l6 -205 -79 -22 c-43 -12
-109 -31 -147 -42 l-69 -20 6 485 c3 267 8 488 10 490 4 4 247 93 257 93 3 1
6 -128 7 -287z m-2516 186 c35 -23 96 -53 134 -68 l70 -27 6 -149 c4 -82 9
-323 12 -536 l6 -386 -77 -40 c-68 -35 -88 -40 -168 -45 l-91 -7 -7 458 c-5
369 -4 483 8 592 25 223 28 250 36 250 4 0 36 -19 71 -42z m2045 -87 c-3 -27
-2 -192 3 -367 6 -176 11 -375 13 -443 l3 -124 -230 -63 c-126 -35 -236 -63
-243 -64 -11 0 -13 79 -11 448 1 246 -1 472 -5 503 l-8 55 229 48 c125 26 233
49 238 51 6 2 12 4 14 4 2 1 1 -21 -3 -48z m-1443 -102 l158 -23 -6 -285 c-4
-157 -8 -291 -10 -297 -4 -14 -335 -267 -342 -261 -2 3 -1 206 3 451 6 402 9
446 23 442 9 -3 87 -15 174 -27z m577 -19 c0 -5 -5 -33 -11 -62 -19 -87 -71
-176 -159 -268 l-80 -85 6 200 c4 110 7 201 8 202 2 2 167 20 204 22 17 0 32
-3 32 -9z m232 -153 c9 -44 8 -73 -5 -155 -13 -78 -17 -167 -17 -389 l0 -288
-220 -44 c-121 -24 -224 -41 -228 -37 -4 4 -9 88 -10 186 l-4 179 105 103
c146 144 244 299 302 478 10 30 20 59 22 63 9 16 44 -45 55 -96z m-4253 -393
c12 -15 21 -33 21 -40 0 -8 -38 -60 -83 -117 -183 -224 -363 -488 -403 -590
-20 -51 -56 -108 -104 -164 -5 -7 -10 -19 -10 -28 0 -8 -11 -25 -25 -37 -14
-12 -25 -30 -25 -41 0 -11 -16 -40 -36 -64 -20 -24 -44 -63 -53 -86 -20 -52
-139 -275 -150 -282 -5 -2 -15 2 -22 11 -21 25 -13 111 20 207 16 48 26 87 21
87 -5 0 -2 24 7 52 11 38 13 72 9 117 -5 46 -3 69 7 85 8 11 48 97 90 189 76
167 78 170 179 278 57 61 117 136 135 167 40 71 135 166 233 231 63 43 82 51
122 51 39 0 50 -5 67 -26z m5661 -398 c23 -250 16 -291 -64 -365 l-26 -24 0
190 c0 104 -3 224 -6 265 l-7 76 39 25 c22 13 41 23 43 21 2 -2 12 -86 21
-188z m-5602 -244 c-6 -231 -6 -405 -1 -437 l10 -53 -294 -7 c-162 -4 -296 -5
-299 -3 -2 3 30 59 73 124 42 65 90 143 107 171 136 232 322 513 364 550 26
23 47 41 48 40 0 -1 -3 -175 -8 -385z m3530 103 c-2 -2 -81 -6 -175 -10 l-173
-8 0 27 c0 22 22 41 173 141 l172 115 3 -131 c1 -73 1 -133 0 -134z m1788 183
c-10 -66 -16 -474 -8 -524 l9 -51 -145 -77 c-79 -42 -147 -75 -149 -72 -3 3
-2 154 2 336 l8 330 136 44 c75 24 140 45 144 45 4 1 6 -14 3 -31z m-475 -471
c-8 -196 -7 -238 6 -275 8 -24 13 -45 11 -47 -8 -8 -519 -187 -523 -183 -7 6
23 730 30 737 4 3 113 33 243 66 l237 60 3 -63 c2 -34 -1 -167 -7 -295z
m-6371 187 c7 -7 4 -25 -7 -52 -14 -37 -20 -42 -48 -42 -50 0 -192 -29 -249
-51 -37 -13 -76 -19 -140 -19 l-89 0 49 53 c27 28 56 54 64 57 8 3 31 14 50
25 19 11 62 25 95 31 69 14 261 12 275 -2z m5700 -16 c0 -13 -9 -174 -19 -358
-10 -184 -16 -349 -14 -367 5 -30 3 -32 -34 -42 -22 -6 -114 -25 -204 -41 -90
-17 -172 -32 -182 -34 -17 -4 -18 12 -11 352 3 196 9 372 13 391 l7 35 199 42
c243 51 245 51 245 22z m-1187 -64 l28 -6 -6 -266 c-4 -182 -11 -293 -22 -347
-9 -44 -17 -82 -19 -84 -2 -2 -32 12 -67 32 -43 23 -89 39 -139 47 -42 7 -81
16 -88 20 -10 6 -11 73 -5 302 l7 295 37 11 c34 10 213 7 274 -4z m542 -161
c-3 -87 -7 -267 -8 -400 l-2 -243 -30 1 c-45 0 -334 34 -338 40 -2 3 17 446
32 747 1 9 43 12 177 12 l176 0 -7 -157z m-4862 -122 c32 -72 60 -137 63 -145
5 -14 -11 -16 -136 -16 l-142 0 8 43 c4 23 6 83 5 132 l-2 91 28 11 c15 6 49
11 74 12 l45 1 57 -129z m3817 -232 c0 -6 -4 -7 -10 -4 -5 3 -10 11 -10 16 0
6 5 7 10 4 6 -3 10 -11 10 -16z m-4500 -88 c254 -69 366 -118 513 -222 125
-89 293 -257 274 -275 -3 -3 -51 18 -107 46 -430 216 -951 352 -1405 367 -99
3 -186 9 -193 12 -17 9 112 73 205 101 113 34 158 39 328 36 l160 -3 225 -62z
m817 -25 c5 -4 44 -238 40 -242 -2 -3 -67 41 -143 98 -76 56 -159 115 -184
131 l-45 29 165 -7 c91 -4 166 -8 167 -9z m1216 -846 l40 0 -114 -106 c-209
-195 -501 -502 -668 -702 -24 -28 -46 -50 -49 -47 -9 8 50 179 92 270 122 261
272 437 471 555 66 39 73 41 129 36 32 -3 77 -6 99 -6z m-2055 -121 c78 -27
172 -68 209 -90 223 -137 429 -342 573 -571 32 -51 52 -106 93 -251 29 -103
52 -185 51 -184 -1 1 -30 40 -64 87 -197 268 -508 560 -797 751 -113 75 -328
195 -411 229 -29 13 -51 24 -49 26 2 2 43 8 91 13 69 7 93 13 109 30 12 12 28
19 37 15 8 -3 79 -28 158 -55z m2910 -525 l29 -310 -27 -215 c-15 -118 -32
-225 -39 -236 -6 -12 -16 -64 -23 -117 l-12 -95 -84 -108 c-46 -59 -85 -109
-87 -111 -2 -2 1 14 5 35 5 21 29 135 55 253 l45 215 30 495 c16 272 32 529
36 570 l7 75 18 -70 c11 -41 31 -200 47 -381z m1387 -262 c-124 -71 -229 -142
-326 -219 -172 -137 -1042 -765 -1084 -783 -27 -12 -43 -15 -39 -8 5 7 89 116
188 243 258 329 410 480 606 602 212 131 479 222 660 223 l95 0 -100 -58z
m-5232 -19 c-7 -2 -19 -2 -25 0 -7 3 -2 5 12 5 14 0 19 -2 13 -5z m3238 -162
c-42 -28 -46 -29 -73 -15 -42 22 -34 33 30 37 31 2 64 4 72 5 8 1 -5 -11 -29
-27z m-424 -12 c37 -15 56 -30 72 -59 20 -35 24 -38 50 -30 25 7 37 3 79 -26
l49 -35 -11 -39 c-9 -36 -8 -43 12 -63 17 -17 35 -22 78 -24 69 -2 92 -21 141
-118 19 -38 60 -110 90 -158 l55 -88 -38 -134 c-20 -74 -41 -132 -46 -129 -5
3 -30 51 -57 107 -100 209 -238 394 -470 630 -85 86 -152 158 -150 160 41 30
84 32 146 6z m717 -96 c-8 -25 -14 -65 -14 -88 0 -23 -3 -69 -6 -102 l-7 -61
-84 99 c-46 54 -82 103 -78 108 8 13 111 51 139 51 13 0 31 9 41 20 10 11 19
20 21 20 1 0 -4 -21 -12 -47z m-2769 -503 c244 -203 489 -402 544 -443 94 -69
149 -122 139 -133 -11 -10 -312 17 -395 35 -214 47 -385 141 -539 297 -65 65
-85 93 -99 135 -10 30 -37 88 -61 129 -52 91 -81 175 -90 261 -6 61 -5 66 17
76 13 7 28 12 33 12 4 1 208 -165 451 -369z m2074 155 c-9 -9 -120 -27 -127
-21 -3 4 12 24 33 46 l39 40 30 -30 c17 -16 28 -32 25 -35z m-1757 -114 c102
-71 226 -181 302 -270 103 -121 108 -133 21 -55 -44 38 -163 144 -265 234
-102 89 -189 167 -195 173 -15 16 62 -31 137 -82z m969 -234 c-8 -8 -11 0 -10
29 1 39 1 39 11 11 7 -21 7 -32 -1 -40z"/>
<path d="M9037 8255 c-76 -51 -120 -110 -121 -161 -1 -26 -5 -34 -19 -34 -10
0 -60 -29 -110 -63 -124 -86 -121 -85 -114 -58 9 36 -12 88 -49 120 -35 31
-35 31 -66 14 -37 -22 -99 -91 -131 -146 -36 -63 -101 -308 -93 -350 6 -33 9
-35 69 -47 34 -6 71 -21 83 -31 12 -11 37 -22 57 -26 l35 -5 46 88 c57 110
116 185 194 246 l60 47 -35 -69 c-19 -38 -40 -99 -46 -136 l-11 -66 37 -34
c51 -47 96 -47 143 0 31 31 33 35 23 70 -13 46 -10 50 107 171 148 152 155
168 108 224 -47 57 -58 57 -130 11 -53 -35 -67 -40 -79 -30 -23 19 -18 27 18
26 30 -1 42 9 126 104 l92 105 -43 37 c-24 21 -52 38 -63 38 -11 0 -51 -20
-88 -45z"/>
<path d="M9387 7923 c-133 -71 -311 -274 -336 -382 -7 -31 -29 -63 -95 -133
l-86 -93 6 -65 c7 -73 35 -133 77 -164 24 -18 31 -19 60 -8 28 11 34 10 44 -5
25 -36 34 -42 68 -49 34 -6 39 -2 168 120 l134 125 19 -25 c10 -14 39 -32 63
-40 39 -13 45 -13 61 1 10 9 24 39 30 65 10 43 22 59 93 123 45 41 127 126
182 188 55 62 130 144 166 183 55 59 65 75 59 92 -15 38 -59 64 -109 64 -44 0
-51 -5 -153 -95 -59 -52 -111 -95 -117 -95 -6 0 -33 13 -61 30 l-50 30 -202
-160 c-110 -88 -203 -158 -206 -156 -13 13 57 98 206 247 l165 167 -54 36
c-30 20 -56 36 -59 36 -3 0 -36 -17 -73 -37z m153 -417 c0 -2 -13 -19 -29 -39
-20 -26 -31 -33 -39 -25 -8 8 -1 19 26 39 38 29 42 32 42 25z m-330 -155 c0
-7 -30 -47 -67 -89 -60 -67 -68 -73 -76 -55 -7 16 -1 31 26 69 19 27 47 71 63
98 l28 50 13 -30 c6 -16 12 -35 13 -43z"/>
<path d="M9929 7567 c-31 -28 -90 -83 -132 -120 -62 -55 -84 -83 -112 -142
-31 -63 -45 -81 -103 -123 -160 -119 -189 -246 -65 -282 l38 -11 167 173 c138
142 167 177 163 196 -7 31 16 63 74 100 58 38 103 87 132 144 l21 42 -43 38
c-24 20 -53 37 -64 38 -11 0 -45 -24 -76 -53z"/>
<path d="M301 7546 c-71 -76 -31 -224 65 -242 l34 -6 -25 -20 c-35 -27 -35
-89 0 -123 31 -32 86 -34 115 -5 30 30 25 49 -25 100 l-46 46 27 48 c26 46 26
50 14 104 -23 102 -107 154 -159 98z"/>
<path d="M8642 7509 c-28 -22 -54 -50 -56 -62 -32 -150 -33 -186 -7 -243 29
-65 118 -96 155 -55 16 18 41 142 52 261 6 53 -19 101 -64 124 -27 14 -30 13
-80 -25z"/>
<path d="M670 7390 c0 -5 -27 -31 -60 -57 -55 -43 -60 -51 -56 -78 7 -36 70
-95 102 -95 27 0 68 46 85 97 l12 38 14 -40 c18 -52 48 -75 100 -75 34 0 46 5
59 24 19 30 14 38 -47 94 -52 47 -70 51 -99 22 -20 -20 -20 -20 -20 9 0 21 -8
36 -29 50 -31 22 -61 28 -61 11z"/>
<path d="M110 7353 c-8 -3 -30 -19 -48 -36 -30 -29 -32 -35 -26 -77 12 -82 35
-101 96 -76 43 18 98 79 98 108 0 25 -64 88 -88 87 -9 0 -24 -3 -32 -6z"/>
<path d="M10102 7320 c-29 -10 -70 -32 -91 -47 -74 -55 -151 -165 -151 -216 0
-19 -23 -44 -92 -102 -51 -43 -99 -84 -107 -91 -12 -11 -12 -19 3 -59 24 -62
55 -82 105 -66 21 6 58 27 82 46 48 38 61 43 53 20 -13 -34 6 -65 56 -90 75
-38 120 -32 154 20 19 29 57 171 50 188 -3 7 -23 25 -46 41 -34 24 -44 27 -59
18 -55 -35 -37 -3 76 132 58 69 105 134 105 145 0 17 -36 52 -75 74 -6 3 -34
-3 -63 -13z"/>
<path d="M1050 7120 c-29 -29 -28 -99 3 -128 27 -26 79 -29 97 -7 7 8 15 36
18 61 4 42 2 48 -24 70 -36 29 -68 30 -94 4z"/>
<path d="M558 7073 c-9 -2 -26 -19 -36 -36 -59 -97 -17 -207 78 -207 33 0 38
4 58 45 37 76 24 141 -37 184 -30 21 -33 22 -63 14z"/>
<path d="M803 7033 c-36 -7 -44 -27 -46 -123 l-2 -92 33 -29 c31 -28 94 -41
105 -21 3 4 8 57 12 118 l7 111 -37 21 c-20 12 -39 21 -43 21 -4 -1 -17 -4
-29 -6z"/>
<path d="M1241 6943 c-18 -16 -22 -35 -31 -163 -8 -121 -7 -148 5 -166 20 -31
51 -39 80 -20 24 16 23 7 39 264 3 50 1 55 -29 78 -38 29 -37 29 -64 7z"/>
<path d="M1455 6922 c-44 -9 -55 -31 -55 -108 0 -66 2 -74 26 -93 33 -26 66
-27 89 -1 17 19 18 19 39 -13 14 -20 32 -33 48 -35 18 -2 28 -10 30 -25 2 -11
18 -30 36 -40 60 -35 100 5 116 113 6 44 5 46 -28 64 -19 10 -42 16 -51 13
-13 -5 -14 0 -9 33 6 34 3 43 -17 60 -34 28 -63 25 -103 -13 -34 -33 -35 -33
-40 -11 -8 29 -55 62 -81 56z"/>
<path d="M392 6865 c-20 -17 -31 -38 -36 -67 -6 -36 -9 -40 -19 -27 -7 8 -25
30 -40 49 l-28 33 -26 -20 c-43 -31 -62 -64 -74 -124 -10 -49 -9 -61 7 -94 26
-55 81 -105 116 -105 35 0 63 41 73 107 6 41 8 43 23 31 25 -21 79 -41 92 -33
16 10 47 76 55 116 8 43 -8 85 -48 127 -37 38 -56 40 -95 7z"/>
<path d="M918 6762 l-28 -17 0 -122 0 -123 29 0 c15 0 49 3 75 6 l48 7 -6 71
c-14 156 -15 161 -46 179 -34 21 -38 21 -72 -1z"/>
<path d="M595 6651 c-11 -5 -28 -17 -37 -28 -36 -39 21 -142 87 -159 34 -8 57
4 69 38 8 22 2 34 -44 92 -30 36 -54 66 -54 65 -1 0 -10 -4 -21 -8z"/>
<path d="M1141 6563 c-42 -41 -48 -76 -15 -102 27 -21 69 -27 90 -13 16 11 34
48 34 72 0 22 -46 69 -67 70 -7 0 -26 -12 -42 -27z"/>
<path d="M442 6519 c-31 -21 -33 -24 -27 -68 5 -36 15 -54 45 -83 43 -41 66
-46 110 -23 50 26 47 47 -16 125 -32 38 -63 70 -68 70 -6 0 -26 -10 -44 -21z"/>
<path d="M170 6393 c-33 -12 -50 -37 -50 -73 0 -23 7 -43 18 -52 19 -16 107
-68 116 -68 9 0 56 54 56 64 0 9 -109 129 -120 133 -3 1 -12 -1 -20 -4z"/>
<path d="M1385 6352 c-55 -11 -73 -72 -32 -109 76 -70 174 -43 153 41 -7 30
-88 75 -121 68z"/>
<path d="M394 5899 c-12 -4 -38 -28 -58 -53 -37 -44 -38 -44 -56 -26 -40 40
-115 34 -157 -13 -18 -20 -73 -154 -73 -177 0 -12 37 -32 72 -39 l26 -6 -54
-75 c-74 -101 -72 -150 6 -150 35 0 38 3 204 237 93 131 170 243 173 249 2 6
-11 22 -29 36 -24 18 -39 23 -54 17z"/>
<path d="M1040 5799 c-31 -12 -100 -105 -100 -136 0 -12 -6 -40 -14 -60 -8
-21 -17 -66 -20 -101 -5 -54 -10 -67 -35 -87 -15 -14 -54 -56 -85 -93 -45 -56
-56 -76 -56 -106 0 -65 73 -111 113 -72 8 8 43 67 78 130 34 63 71 117 80 119
20 5 39 63 39 117 0 46 41 125 84 164 20 17 38 42 41 56 11 49 -67 92 -125 69z"/>
<path d="M418 5642 c-32 -26 -77 -73 -101 -103 -48 -63 -101 -173 -93 -194 8
-22 52 -46 70 -39 14 5 163 184 269 322 14 18 -30 62 -62 62 -16 0 -48 -19
-83 -48z"/>
<path d="M1193 5683 c-29 -6 -38 -18 -62 -90 -29 -87 -28 -140 5 -174 l26 -28
-36 -31 c-53 -47 -126 -163 -163 -260 -18 -47 -32 -90 -33 -97 0 -7 19 -17 43
-23 23 -6 49 -13 58 -16 11 -3 42 44 117 181 56 101 102 187 102 191 0 3 -10
14 -22 24 -21 17 -22 20 -7 37 16 18 69 203 69 240 0 40 -37 58 -97 46z"/>
<path d="M1373 5644 c-28 -30 -43 -56 -43 -73 0 -14 -9 -37 -20 -51 -29 -37
-25 -67 10 -85 16 -8 38 -15 49 -15 27 0 88 60 97 96 4 16 20 41 36 56 40 38
37 68 -12 96 -21 12 -47 22 -56 22 -10 0 -37 -21 -61 -46z"/>
<path d="M1564 5519 c-62 -49 -123 -128 -165 -213 -21 -44 -39 -85 -39 -92 0
-7 14 -24 32 -37 l31 -25 -66 -84 c-52 -64 -67 -90 -67 -115 0 -32 1 -33 43
-33 80 0 117 11 117 33 0 12 12 38 26 58 l25 37 24 -24 c50 -50 76 -32 142
100 30 61 70 132 89 159 19 26 34 50 33 55 0 4 -13 17 -29 29 -27 22 -30 22
-71 7 -70 -24 -149 -111 -149 -163 0 -27 -11 -32 -34 -16 -17 13 -12 23 78
154 53 76 96 143 96 148 0 7 -64 53 -73 53 -3 0 -22 -14 -43 -31z"/>
<path d="M653 5500 c-60 -36 -81 -112 -41 -150 43 -39 87 -22 123 50 31 62 31
66 -2 95 -34 30 -40 30 -80 5z"/>
<path d="M9630 5493 c-23 -9 -80 -65 -80 -80 0 -7 -12 -15 -27 -18 -45 -10
-57 -19 -77 -60 -14 -28 -20 -63 -22 -119 -1 -74 0 -82 25 -106 29 -30 61 -33
467 -47 174 -6 193 -4 222 12 44 26 55 62 50 149 -6 92 -42 171 -101 221 -34
30 -46 35 -72 29 -16 -3 -38 -14 -48 -23 -16 -16 -17 -24 -6 -91 11 -67 11
-74 -6 -86 -16 -12 -25 -10 -70 16 -56 32 -93 38 -113 18 -18 -18 -34 9 -27
42 18 73 17 87 -7 114 -23 27 -77 42 -108 29z"/>
<path d="M9603 4968 c-52 -40 -58 -52 -47 -95 12 -45 134 -80 185 -52 29 15
79 88 79 115 0 13 -13 33 -31 48 -24 21 -41 26 -82 25 -45 0 -59 -6 -104 -41z"/>
<path d="M9858 4863 c-21 -24 -38 -79 -38 -120 0 -25 8 -43 29 -64 25 -25 37
-29 85 -29 30 0 58 5 61 10 3 6 33 10 65 10 l59 0 26 45 27 45 -22 34 c-28 46
-95 73 -141 57 -27 -9 -37 -8 -64 9 -40 25 -67 25 -87 3z"/>
<path d="M9572 3852 c-34 -5 -71 -70 -88 -156 -14 -65 -14 -82 -2 -118 17 -56
64 -88 127 -88 45 0 48 2 67 43 21 42 21 42 1 86 -17 40 -18 50 -6 99 11 46
11 58 -2 80 -18 32 -67 60 -97 54z"/>
<path d="M9796 3775 c-101 -78 -112 -196 -22 -239 53 -25 70 -20 120 35 47 52
63 98 52 144 -8 33 -64 95 -86 95 -9 0 -38 -16 -64 -35z"/>
<path d="M5324 3756 c-64 -28 -124 -144 -124 -240 0 -64 19 -121 59 -180 29
-42 30 -47 20 -98 -6 -30 -7 -92 -3 -144 l6 -91 79 -49 c72 -45 79 -52 79 -82
0 -18 7 -46 15 -62 22 -42 100 -98 159 -115 93 -25 441 -58 547 -51 l96 7 18
-41 c23 -51 90 -114 140 -130 26 -9 71 -11 136 -7 89 5 99 3 116 -15 50 -56
69 -62 255 -79 l178 -17 46 -41 c92 -81 227 -127 352 -119 62 4 78 9 99 31 29
29 35 76 13 102 -23 28 -87 55 -154 64 -70 10 -79 14 -169 72 -33 22 -97 51
-141 66 -69 22 -99 26 -206 27 l-125 1 -33 36 c-58 66 -138 85 -221 55 -30
-11 -42 -10 -88 7 -29 11 -53 25 -53 32 0 7 -12 20 -27 30 -16 10 -41 32 -58
50 l-30 32 -330 37 c-363 40 -355 38 -355 108 0 84 -49 141 -132 154 -21 4
-38 12 -38 19 0 7 29 61 65 120 l65 107 -43 44 c-32 32 -54 45 -85 50 -90 14
-94 72 -9 128 29 19 63 46 76 60 l24 25 -20 37 c-34 66 -124 93 -199 60z"/>
<path d="M6019 3623 c-77 -70 -110 -170 -85 -258 32 -111 41 -127 103 -186 88
-81 160 -91 233 -31 29 24 32 32 26 57 -10 38 -73 98 -117 111 -28 8 -37 18
-52 58 l-18 49 24 26 c62 67 72 110 36 155 -22 28 -68 56 -93 56 -9 0 -34 -17
-57 -37z"/>
<path d="M352 3613 c-54 -11 -79 -114 -44 -182 23 -47 61 -72 114 -78 40 -5
45 -3 56 21 7 15 12 60 12 101 0 67 -3 78 -27 105 -28 30 -68 42 -111 33z"/>
<path d="M604 3610 c-36 -14 -72 -67 -80 -116 -9 -62 14 -110 61 -130 74 -30
92 -15 120 105 l18 75 -34 29 c-48 40 -61 46 -85 37z"/>
<path d="M950 3553 c-66 -35 -110 -93 -117 -154 -6 -51 8 -69 70 -89 l39 -12
52 55 c29 30 61 57 72 61 30 9 68 81 55 103 -33 64 -94 76 -171 36z"/>
<path d="M17 3559 c-13 -8 -17 -24 -17 -78 0 -46 5 -72 14 -80 23 -20 100 -57
131 -65 17 -4 37 -9 46 -12 12 -3 21 7 33 36 24 60 21 113 -9 148 -41 49 -153
77 -198 51z"/>
<path d="M9878 2982 c-9 -4 -59 -41 -112 -82 -83 -65 -95 -79 -96 -106 0 -18
8 -38 18 -47 33 -30 77 -21 157 33 78 53 87 57 83 39 -2 -6 13 -20 32 -30 61
-34 113 -12 152 65 l20 40 -27 24 c-17 14 -34 21 -44 16 -40 -16 -47 -15 -59
11 -17 38 -78 56 -124 37z"/>
<path d="M9873 2763 c-11 -2 -53 -39 -92 -83 -64 -70 -71 -82 -71 -119 0 -45
8 -51 81 -65 35 -6 37 -5 53 37 19 52 47 80 98 102 62 25 77 79 32 114 -25 20
-52 24 -101 14z"/>
<path d="M9503 2611 c-66 -48 -84 -67 -98 -104 -19 -50 -12 -77 28 -109 l21
-16 -42 -51 c-23 -27 -42 -56 -42 -65 0 -16 46 -56 64 -56 6 1 45 23 86 50
l74 48 33 -29 c41 -36 63 -36 101 -4 17 14 36 25 44 25 7 0 24 7 37 16 22 16
23 16 16 -5 -6 -20 -3 -21 69 -21 57 0 85 -5 113 -20 51 -27 66 -25 107 10 42
37 64 93 45 116 -26 32 -48 36 -82 16 l-33 -19 -17 24 c-10 12 -27 23 -38 23
-16 0 -70 -34 -145 -92 -8 -5 -10 -1 -7 15 6 32 -31 75 -72 83 -29 5 -44 0
-85 -26 -28 -18 -54 -39 -58 -47 -6 -10 -12 -3 -22 28 -15 46 -18 39 51 148
l34 53 -40 34 c-22 19 -45 34 -51 34 -6 0 -47 -27 -91 -59z"/>
<path d="M9545 1816 c-39 -18 -89 -48 -112 -65 -51 -37 -56 -71 -18 -113 22
-25 31 -28 90 -28 98 0 149 25 205 103 27 36 28 36 34 13 3 -13 22 -38 41 -55
59 -52 115 -39 154 36 19 37 13 50 -37 82 -57 36 -83 38 -128 10 l-33 -20 -47
35 c-26 20 -54 36 -63 36 -9 0 -48 -15 -86 -34z"/>
<path d="M7195 1705 c-258 -93 -431 -235 -615 -507 l-64 -96 -84 89 c-46 49
-117 111 -157 138 -117 78 -306 141 -379 127 -59 -12 -133 -57 -152 -92 -17
-31 -23 -34 -65 -34 -35 0 -51 -5 -67 -23 -30 -31 -28 -40 15 -88 49 -54 117
-87 209 -102 l75 -12 187 -150 c159 -128 194 -161 237 -224 37 -55 62 -81 94
-98 62 -32 75 -30 102 22 19 35 30 45 49 45 42 0 208 116 407 283 179 151 194
161 302 208 63 27 116 48 117 46 2 -2 -1 -20 -7 -42 -11 -38 -9 -85 5 -117 7
-14 0 -18 -44 -24 -44 -6 -60 -14 -106 -58 -66 -62 -70 -89 -19 -140 42 -43
68 -57 178 -96 48 -18 108 -49 142 -75 93 -70 193 -108 291 -111 l82 -2 26 48
c53 97 219 223 393 298 117 51 119 51 81 -2 -37 -53 -42 -104 -14 -135 21 -23
80 -45 100 -38 14 6 156 201 156 215 0 5 -17 22 -37 38 -21 15 -40 29 -41 30
-2 1 1 19 8 39 10 30 9 40 -4 60 -28 42 -61 59 -95 47 -29 -10 -30 -10 -37 31
-10 59 -65 113 -125 122 -127 19 -358 -122 -490 -299 l-63 -84 -49 38 c-55 44
-139 79 -210 87 l-49 6 116 116 c64 64 116 121 116 128 0 6 -18 26 -40 43 -36
29 -43 31 -72 21 -17 -6 -32 -10 -32 -9 -1 2 -12 18 -24 36 l-24 34 21 22 c14
14 24 42 28 74 5 46 3 57 -22 93 -45 64 -103 92 -199 96 -66 2 -94 -2 -151
-22z m194 -201 c12 -15 21 -29 20 -33 0 -3 -37 -24 -81 -46 -171 -85 -414
-252 -580 -398 -48 -43 -88 -75 -88 -72 0 15 68 139 118 215 73 111 208 245
289 288 73 38 188 71 255 71 39 1 50 -3 67 -25z m-1250 -309 c36 -19 84 -51
106 -71 l40 -35 -49 32 c-27 18 -79 49 -115 71 -82 48 -71 50 18 3z m2166 -98
c-11 -8 -81 -47 -155 -87 -74 -40 -146 -83 -159 -94 -30 -26 -19 -5 26 51 64
80 180 142 268 143 36 0 38 -1 20 -13z"/>
<path d="M8012 1673 c-52 -18 -146 -102 -173 -154 -10 -21 -19 -51 -19 -67 0
-46 30 -121 58 -142 31 -25 55 -19 100 23 26 25 32 39 32 73 0 40 5 46 85 122
47 45 85 85 85 91 0 17 -77 71 -101 70 -13 0 -43 -7 -67 -16z"/>
<path d="M8607 1627 c-43 -23 -104 -66 -137 -95 -56 -49 -60 -56 -60 -96 0
-57 25 -81 76 -73 96 16 241 116 296 205 l22 35 -40 33 c-21 19 -48 34 -59 34
-11 0 -55 -19 -98 -43z"/>
<path d="M9523 1381 c-95 -62 -110 -77 -124 -118 -17 -52 -5 -81 44 -103 23
-11 49 -20 59 -20 22 0 198 211 189 227 -9 17 -73 63 -85 62 -6 0 -43 -22 -83
-48z"/>
<path d="M9078 1373 c-9 -2 -48 -40 -86 -83 -67 -76 -70 -81 -62 -112 11 -38
49 -75 86 -84 31 -8 68 17 104 70 14 20 38 45 54 56 100 65 26 185 -96 153z"/>
<path d="M9708 1173 c-9 -2 -35 -29 -59 -59 -32 -42 -43 -66 -47 -103 -4 -42
-1 -50 19 -65 13 -9 42 -16 65 -16 36 0 47 6 82 44 65 71 68 118 10 175 -32
31 -37 33 -70 24z"/>
<path d="M10073 1126 c-17 -6 -73 -47 -123 -91 -90 -79 -91 -80 -86 -120 6
-54 34 -75 100 -75 50 0 52 2 139 83 98 93 105 114 61 166 -37 44 -54 51 -91
37z"/>
<path d="M8845 1072 c-40 -9 -47 -23 -43 -89 3 -54 8 -68 33 -93 17 -16 51
-35 79 -42 47 -12 48 -12 72 15 13 16 24 38 24 49 0 27 -35 100 -58 121 -25
23 -84 44 -107 39z"/>
<path d="M4992 1045 c-68 -39 -130 -94 -173 -153 -51 -72 -54 -128 -10 -173
39 -38 82 -39 115 -1 52 59 226 277 226 284 0 11 -83 68 -99 68 -9 0 -35 -11
-59 -25z"/>
<path d="M9195 981 c-64 -79 -72 -120 -32 -167 20 -23 34 -28 85 -32 l60 -4
25 38 c57 89 56 158 -4 209 -49 41 -71 34 -134 -44z"/>
<path d="M503 1003 c-31 -6 -54 -41 -47 -70 4 -13 5 -23 3 -23 -2 0 -54 13
-116 29 l-111 28 -39 -21 c-33 -19 -38 -27 -41 -61 -4 -59 35 -95 115 -104 46
-5 81 -20 164 -67 96 -55 113 -62 177 -66 54 -4 75 -2 83 8 6 8 30 14 53 14
52 0 90 19 94 48 3 22 3 22 45 -7 61 -41 115 -67 182 -86 l59 -18 23 27 c31
37 29 62 -9 106 -18 20 -45 52 -59 71 -34 45 -231 153 -263 145 -12 -3 -31
-21 -42 -41 -10 -19 -23 -35 -28 -35 -5 0 -55 29 -112 65 -57 36 -105 64 -106
64 -2 -1 -13 -4 -25 -6z"/>
<path d="M4615 999 c-47 -14 -198 -133 -255 -201 -44 -52 -51 -66 -46 -91 8
-40 43 -86 71 -93 28 -7 75 16 106 53 13 16 79 80 147 142 67 63 122 120 122
126 0 7 -24 25 -52 41 -65 36 -57 34 -93 23z"/>
<path d="M3400 872 c-63 -31 -188 -144 -196 -177 -3 -12 -1 -40 5 -63 10 -34
16 -40 43 -44 63 -10 194 77 279 185 43 54 42 63 -11 102 -42 31 -52 31 -120
-3z"/>
<path d="M5480 859 c-72 -28 -107 -150 -56 -198 13 -12 41 -25 63 -28 31 -4
42 -1 61 20 l23 25 24 -24 c18 -18 35 -24 67 -24 42 0 46 3 106 75 68 81 70
94 28 134 -29 28 -98 31 -125 7 -18 -16 -21 -16 -52 3 -36 22 -96 26 -139 10z"/>
<path d="M1172 838 c-28 -17 -32 -25 -27 -47 30 -125 141 -221 256 -221 29 0
43 7 63 31 14 17 26 39 26 48 0 20 -245 211 -270 211 -8 0 -30 -10 -48 -22z"/>
</g>
</svg>
