<?xml version="1.0" standalone="no"?>
<!DOCTYPE svg PUBLIC "-//W3C//DTD SVG 20010904//EN"
 "http://www.w3.org/TR/2001/REC-SVG-20010904/DTD/svg10.dtd">
<svg version="1.0" xmlns="http://www.w3.org/2000/svg"
 width="1024.000000pt" height="1024.000000pt" viewBox="0 0 1024.000000 1024.000000"
 preserveAspectRatio="xMidYMid meet">
<metadata>
Created by potrace 1.10, written by Peter Selinger 2001-2011
</metadata>
<g transform="translate(0.000000,1024.000000) scale(0.100000,-0.100000)"
fill="#000000" stroke="none">
<path d="M6438 9383 c-47 -39 -48 -41 -46 -113 2 -106 -33 -190 -235 -570
l-55 -105 -159 -126 c-175 -140 -274 -207 -366 -249 -64 -29 -206 -75 -211
-69 -8 13 14 868 25 946 12 83 11 98 -5 149 -23 73 -90 144 -129 137 -49 -9
-63 -39 -91 -191 -26 -136 -27 -158 -26 -448 0 -241 -13 -612 -23 -620 -4 -3
-454 54 -482 61 -57 15 -141 64 -178 104 -65 72 -78 110 -243 694 -3 9 -17 31
-31 47 -33 40 -76 40 -130 1 l-39 -28 18 -178 c17 -176 18 -179 83 -352 76
-201 111 -259 221 -362 133 -124 229 -160 584 -216 90 -14 166 -27 168 -29 1
-2 -6 -138 -17 -303 -12 -165 -21 -303 -21 -306 0 -4 -8 -7 -18 -7 -52 0 -790
-133 -810 -146 -13 -8 -27 -27 -33 -42 -15 -39 7 -120 43 -155 25 -25 33 -28
66 -22 20 4 53 15 72 25 25 14 124 31 348 60 173 23 316 40 318 37 8 -8 -18
-729 -27 -769 -9 -35 -11 -37 -62 -42 -28 -3 -482 -31 -1007 -61 -1137 -66
-1167 -68 -1217 -94 -64 -32 -78 -55 -78 -124 l0 -61 43 -24 42 -24 313 41
c171 23 351 41 398 41 l86 0 0 -45 c0 -28 6 -52 16 -63 9 -10 17 -34 17 -54 0
-19 9 -61 20 -93 18 -53 20 -84 20 -363 0 -269 -2 -314 -19 -376 -11 -39 -22
-114 -25 -168 -15 -238 -134 -742 -256 -1088 -26 -74 -163 -388 -303 -697
l-255 -563 -381 -588 c-209 -323 -390 -597 -401 -607 -55 -50 -67 -130 -25
-163 14 -11 40 -23 59 -26 65 -12 92 9 231 187 113 146 181 251 530 830 308
510 414 695 460 800 47 106 63 135 75 130 35 -16 343 -13 1640 16 756 17 1403
31 1437 31 l61 0 5 -467 c4 -461 4 -470 30 -583 14 -63 35 -144 46 -180 12
-36 21 -75 21 -87 0 -11 11 -45 25 -75 14 -29 25 -59 25 -66 0 -8 18 -64 40
-126 30 -86 69 -161 166 -325 126 -210 128 -212 144 -190 l17 22 89 -75 c88
-74 90 -76 154 -80 71 -6 105 5 153 50 46 44 30 91 -47 141 -23 14 -104 78
-179 141 l-137 115 -69 140 c-188 382 -271 748 -271 1191 0 190 35 2068 44
2359 10 321 37 726 57 862 20 134 21 225 4 279 -6 20 -3 21 152 27 87 4 293 7
459 7 268 0 309 -2 379 -20 90 -23 113 -24 165 -9 63 19 91 48 97 100 5 42 3
47 -37 87 -71 70 -68 70 -730 77 l-585 5 -700 -43 c-385 -24 -702 -42 -704
-41 -4 4 28 806 32 810 1 1 247 23 547 48 300 26 560 49 578 52 74 12 99 95
45 146 -27 25 -36 27 -198 39 -192 13 -264 11 -662 -22 -155 -13 -285 -20
-289 -16 -10 10 47 611 60 623 6 6 54 26 106 43 309 105 679 355 845 571 44
58 292 524 314 592 17 50 16 138 -2 179 -17 42 -99 119 -126 119 -11 0 -34
-12 -53 -27z m98 -3365 c-3 -18 -13 -243 -23 -501 -9 -257 -20 -472 -24 -479
-5 -8 -270 -19 -931 -40 -574 -18 -961 -34 -1023 -42 -79 -11 -143 -12 -305
-5 -127 6 -245 6 -310 1 -58 -6 -106 -8 -108 -7 -2 2 2 172 9 378 14 416 11
448 -41 531 -16 25 -26 46 -22 47 179 12 2635 147 2695 148 l88 1 -5 -32z
m-53 -1303 c-2 -38 -12 -376 -23 -750 -12 -374 -23 -694 -26 -712 -5 -31 -5
-31 -77 -37 -172 -14 -2993 -83 -3003 -74 -2 3 50 157 117 344 l121 339 98
453 c54 250 100 455 102 457 5 5 2400 53 2558 51 l135 -1 -2 -70z"/>
<path d="M4947 4057 c-38 -18 -97 -124 -97 -175 0 -71 86 -145 185 -159 40 -5
51 -2 95 28 39 27 51 42 62 79 29 103 7 174 -66 210 -55 26 -141 34 -179 17z"/>
</g>
</svg>
