<?xml version="1.0" standalone="no"?>
<!DOCTYPE svg PUBLIC "-//W3C//DTD SVG 20010904//EN"
 "http://www.w3.org/TR/2001/REC-SVG-20010904/DTD/svg10.dtd">
<svg version="1.0" xmlns="http://www.w3.org/2000/svg"
 width="1024.000000pt" height="1024.000000pt" viewBox="0 0 1024.000000 1024.000000"
 preserveAspectRatio="xMidYMid meet">
<metadata>
Created by potrace 1.10, written by Peter Selinger 2001-2011
</metadata>
<g transform="translate(0.000000,1024.000000) scale(0.100000,-0.100000)"
fill="#000000" stroke="none">
<path d="M4585 9348 c-55 -28 -102 -52 -105 -55 -5 -5 45 -52 145 -137 115
-98 191 -250 225 -451 24 -142 38 -375 22 -375 -7 0 -240 -22 -519 -49 -722
-71 -848 -76 -1153 -53 -135 10 -248 16 -252 13 -5 -4 5 -50 22 -103 26 -84
35 -100 78 -140 54 -51 110 -88 162 -107 19 -8 61 -27 92 -43 32 -15 85 -35
118 -44 55 -14 67 -14 167 6 59 11 365 54 678 95 314 41 580 78 593 80 l22 5
0 -340 c0 -187 -3 -340 -6 -340 -3 0 -204 -25 -447 -55 -563 -71 -783 -95
-866 -95 -36 0 -165 9 -285 20 -121 11 -221 19 -223 17 -9 -10 59 -202 79
-224 42 -45 118 -95 186 -122 37 -15 87 -39 111 -55 98 -63 199 -73 304 -31
48 20 181 44 577 106 283 44 527 82 543 85 l27 6 0 -386 0 -385 -42 -6 c-24
-3 -554 -55 -1178 -116 -1040 -101 -1614 -149 -1779 -149 -117 0 -389 49 -552
99 -35 11 -65 18 -68 15 -2 -2 3 -47 13 -99 l18 -95 178 -132 c205 -152 346
-243 403 -260 81 -24 316 5 1022 127 l660 114 830 61 c457 33 918 67 1025 75
2613 200 3033 224 3335 190 238 -27 309 -17 346 50 38 68 37 69 -92 215 l-119
134 -164 56 -164 56 -393 -47 c-262 -32 -795 -81 -1591 -148 -658 -56 -1204
-101 -1212 -101 -14 0 -16 43 -16 393 l0 393 803 48 c441 26 819 52 839 57 54
14 94 52 106 101 12 47 12 46 -105 176 -47 52 -51 54 -177 92 -151 45 -146 45
-521 -14 -121 -19 -366 -51 -545 -71 -179 -19 -342 -38 -362 -41 l-38 -6 0
339 0 339 343 17 c1421 70 1551 78 1594 97 45 20 67 48 78 97 6 30 1 38 -84
125 l-90 93 -123 41 c-122 42 -124 42 -218 34 -52 -4 -207 -24 -345 -44 -137
-19 -430 -51 -650 -71 -220 -19 -424 -37 -452 -41 -50 -5 -53 -4 -53 18 1 132
33 458 53 540 21 84 22 101 11 133 -22 65 -97 127 -207 172 -82 34 -467 153
-492 152 -11 0 -65 -23 -120 -51z"/>
<path d="M6385 5494 c-38 -7 -146 -32 -240 -54 -167 -39 -191 -42 -1260 -140
l-1090 -101 -204 65 -204 64 -95 -37 c-53 -20 -97 -42 -100 -49 -2 -7 27 -43
65 -80 84 -82 153 -208 183 -333 19 -82 20 -118 20 -1317 0 -1267 -2 -1334
-41 -1522 -59 -285 -70 -364 -64 -453 3 -49 17 -123 30 -165 30 -94 111 -228
167 -276 120 -103 244 -24 293 187 29 124 35 289 35 900 0 501 2 617 13 617 7
0 571 40 1253 90 681 49 1254 90 1272 90 l32 0 0 -587 c0 -663 2 -640 -74
-677 l-39 -19 -424 77 c-406 74 -426 76 -444 60 -11 -10 -18 -21 -17 -24 6
-13 144 -126 263 -215 277 -205 503 -409 591 -531 89 -124 183 -187 281 -188
44 -1 56 3 83 29 69 66 145 266 207 545 l27 125 6 1520 c7 1727 -1 1580 96
1875 58 178 59 190 22 242 -59 84 -345 249 -493 284 -70 16 -60 16 -150 -2z
m-8 -430 c15 -11 36 -33 47 -48 20 -26 21 -42 24 -351 l3 -323 -48 -6 c-26 -4
-151 -15 -278 -26 -126 -11 -670 -58 -1209 -105 -538 -47 -991 -85 -1007 -85
l-29 0 0 373 0 373 353 33 c193 18 719 68 1167 111 448 43 845 78 882 76 50
-1 74 -7 95 -22z m73 -1393 l0 -370 -52 -5 c-29 -4 -453 -38 -943 -76 -489
-39 -1029 -82 -1200 -95 -170 -14 -325 -25 -342 -25 l-33 0 0 355 c0 331 1
355 18 355 9 1 571 52 1247 114 677 63 1247 114 1268 115 l37 1 0 -369z"/>
</g>
</svg>
