<?xml version="1.0" standalone="no"?>
<!DOCTYPE svg PUBLIC "-//W3C//DTD SVG 20010904//EN"
 "http://www.w3.org/TR/2001/REC-SVG-20010904/DTD/svg10.dtd">
<svg version="1.0" xmlns="http://www.w3.org/2000/svg"
 width="1024.000000pt" height="1024.000000pt" viewBox="0 0 1024.000000 1024.000000"
 preserveAspectRatio="xMidYMid meet">
<metadata>
Created by potrace 1.10, written by Peter Selinger 2001-2011
</metadata>
<g transform="translate(0.000000,1024.000000) scale(0.100000,-0.100000)"
fill="#000000" stroke="none">
<path d="M6315 9248 c-11 -6 -33 -22 -48 -37 l-28 -26 2 -220 c1 -211 -2 -252
-80 -1005 -44 -432 -104 -1005 -131 -1275 -51 -492 -114 -1095 -150 -1430 -26
-251 -39 -443 -46 -694 -5 -153 -11 -226 -21 -251 -12 -28 -13 -68 -8 -210 5
-114 11 -180 20 -190 6 -8 36 -60 65 -115 125 -235 297 -513 469 -760 67 -97
424 -539 1336 -1655 244 -298 283 -342 361 -400 145 -108 173 -118 214 -75 30
32 39 109 17 151 -8 16 -100 105 -204 199 -196 177 -271 255 -498 520 -449
523 -894 1132 -1292 1765 -176 280 -203 327 -203 355 0 14 -15 56 -33 93 l-34
67 76 910 c42 500 80 909 85 909 14 -1 315 -218 426 -308 117 -93 235 -194
391 -335 254 -228 580 -441 898 -588 63 -29 151 -74 195 -100 108 -64 131 -73
180 -73 49 0 112 38 127 76 8 22 3 32 -31 73 -86 102 -224 195 -379 256 -169
66 -293 131 -456 240 -403 270 -721 523 -909 721 -137 145 -247 220 -379 259
-56 16 -57 17 -57 53 0 37 178 1779 183 1796 3 10 51 -48 157 -191 223 -301
626 -630 1088 -888 56 -31 200 -103 320 -160 119 -56 316 -151 437 -210 243
-118 287 -130 343 -96 62 40 90 116 54 146 -10 9 -225 114 -479 234 -253 120
-487 233 -519 251 -281 158 -529 335 -767 548 -121 107 -168 159 -259 282 -96
130 -270 290 -334 306 -19 5 -22 11 -18 32 20 118 97 752 98 808 0 92 -35 169
-101 219 -51 39 -50 39 -78 23z"/>
<path d="M4056 9033 l-47 -37 5 -100 c3 -56 8 -355 12 -666 l6 -565 -118 -90
c-717 -547 -1413 -949 -2138 -1236 -166 -66 -206 -88 -231 -126 -23 -35 -22
-94 2 -135 27 -45 45 -43 233 27 424 158 627 259 1285 639 428 248 592 348
738 453 104 74 190 133 191 131 1 -1 -6 -214 -16 -473 -10 -258 -26 -695 -37
-970 -14 -356 -23 -501 -31 -503 -6 -2 -32 -36 -57 -76 -123 -191 -315 -403
-493 -544 -41 -32 -313 -219 -605 -414 -453 -303 -546 -362 -643 -403 -146
-62 -178 -101 -153 -186 10 -32 18 -40 51 -50 36 -11 48 -9 132 21 198 70 324
139 628 340 80 53 210 139 290 192 312 206 541 397 773 647 l87 94 0 -229 c0
-334 -24 -582 -87 -899 l-35 -180 -123 -245 c-163 -327 -292 -536 -520 -845
-160 -215 -272 -343 -529 -603 -246 -249 -274 -273 -477 -424 -119 -87 -229
-172 -244 -188 -68 -71 4 -193 97 -164 48 14 200 95 270 142 238 161 740 676
1012 1037 281 372 615 952 698 1210 77 239 140 580 157 857 6 90 33 953 62
1918 28 965 55 1915 61 2110 12 384 10 408 -38 479 -25 38 -89 91 -110 91 -6
0 -32 -17 -58 -37z"/>
<path d="M10135 1403 c-48 -10 -49 -16 -5 -29 25 -7 46 -14 48 -14 1 0 2 11 2
25 0 25 -6 27 -45 18z"/>
</g>
</svg>
