<?xml version="1.0" standalone="no"?>
<!DOCTYPE svg PUBLIC "-//W3C//DTD SVG 20010904//EN"
 "http://www.w3.org/TR/2001/REC-SVG-20010904/DTD/svg10.dtd">
<svg version="1.0" xmlns="http://www.w3.org/2000/svg"
 width="1024.000000pt" height="1024.000000pt" viewBox="0 0 1024.000000 1024.000000"
 preserveAspectRatio="xMidYMid meet">
<metadata>
Created by potrace 1.10, written by Peter Selinger 2001-2011
</metadata>
<g transform="translate(0.000000,1024.000000) scale(0.100000,-0.100000)"
fill="#000000" stroke="none">
<path d="M5563 9027 c-40 -17 -73 -34 -73 -39 0 -4 29 -46 64 -93 69 -90 123
-193 153 -290 17 -57 18 -195 20 -2895 l3 -2835 -31 -320 c-42 -434 -46 -530
-25 -630 37 -183 175 -365 277 -365 39 0 95 69 118 145 43 142 43 160 48 1338
3 702 8 1137 14 1137 5 0 70 -14 144 -30 74 -17 150 -30 167 -30 57 0 1716
209 1873 236 165 28 212 49 235 103 19 48 6 76 -58 119 -86 59 -107 67 -254
107 l-137 37 -110 -26 c-61 -14 -161 -41 -223 -60 -298 -90 -658 -153 -1209
-212 -237 -25 -433 -44 -435 -41 -2 2 -3 350 -2 774 l3 771 168 -41 167 -41
143 18 c345 43 1292 178 1390 199 119 24 148 41 172 98 l14 37 -97 73 c-94 71
-102 74 -230 110 l-133 36 -82 -24 c-45 -13 -253 -64 -462 -114 -339 -80 -412
-94 -680 -129 -165 -22 -317 -42 -337 -45 l-38 -5 0 621 c0 588 1 621 18 613
58 -26 215 -74 259 -80 40 -5 104 4 270 35 120 22 457 77 748 121 581 88 728
121 786 176 28 27 51 80 42 97 -3 5 -47 39 -98 77 -89 66 -99 70 -226 104
l-133 35 -235 -79 c-207 -69 -479 -143 -665 -180 -32 -7 -216 -35 -410 -64
l-351 -52 -3 555 c-3 478 -1 572 14 669 l16 113 -26 28 c-15 16 -57 40 -94 54
-109 42 -352 117 -375 116 -12 0 -55 -15 -94 -32z"/>
<path d="M3788 8813 c-43 -20 -78 -41 -78 -48 0 -7 14 -30 30 -51 69 -90 111
-161 130 -221 12 -39 30 -161 45 -311 21 -213 25 -295 25 -595 l0 -348 -37 7
c-59 12 -69 10 -593 -75 -272 -44 -579 -89 -681 -100 -185 -19 -187 -19 -384
0 -109 11 -200 18 -202 15 -11 -11 -22 -84 -17 -114 9 -48 81 -107 225 -184
150 -80 239 -117 299 -124 35 -5 196 28 709 141 365 80 668 148 673 151 4 3 8
-225 8 -506 l0 -512 -32 7 c-17 4 -47 7 -67 7 -20 -1 -279 -62 -576 -135 -497
-124 -555 -136 -735 -156 -187 -21 -201 -21 -339 -6 -197 21 -198 21 -216 -15
-25 -49 -19 -76 29 -125 24 -24 66 -55 93 -70 26 -14 71 -40 98 -57 68 -42
174 -94 209 -102 32 -8 205 26 246 48 81 44 535 163 990 260 118 26 233 51
255 56 21 5 40 8 41 7 5 -10 -36 -1071 -43 -1077 -15 -14 -624 -209 -1153
-369 -401 -121 -693 -201 -798 -217 -108 -17 -117 -17 -180 -1 -37 10 -118 42
-181 73 -62 30 -114 54 -115 52 -35 -53 -66 -108 -66 -117 0 -43 87 -157 238
-308 120 -122 216 -194 281 -214 35 -10 41 -8 121 41 47 28 193 104 325 168
473 231 1153 573 1334 672 101 55 186 98 188 96 3 -3 -12 -134 -32 -293 -81
-644 -211 -1134 -417 -1574 -128 -272 -415 -703 -667 -999 -72 -85 -79 -96
-64 -108 63 -46 212 44 423 257 393 397 711 944 918 1581 147 451 213 888 263
1725 6 101 14 871 19 1760 7 1366 10 1591 24 1665 22 119 21 125 -23 168 -76
74 -358 212 -431 211 -19 0 -70 -16 -112 -36z"/>
</g>
</svg>
