<?xml version="1.0" standalone="no"?>
<!DOCTYPE svg PUBLIC "-//W3C//DTD SVG 20010904//EN"
 "http://www.w3.org/TR/2001/REC-SVG-20010904/DTD/svg10.dtd">
<svg version="1.0" xmlns="http://www.w3.org/2000/svg"
 width="1024.000000pt" height="1024.000000pt" viewBox="0 0 1024.000000 1024.000000"
 preserveAspectRatio="xMidYMid meet">
<metadata>
Created by potrace 1.10, written by Peter Selinger 2001-2011
</metadata>
<g transform="translate(0.000000,1024.000000) scale(0.100000,-0.100000)"
fill="#000000" stroke="none">
<path d="M7563 9113 c31 -2 83 -2 115 0 31 2 5 3 -58 3 -63 0 -89 -1 -57 -3z"/>
<path d="M7175 8838 c-21 -29 -155 -182 -297 -340 -234 -260 -265 -299 -344
-430 -139 -231 -316 -642 -453 -1054 -75 -224 -195 -724 -231 -962 -93 -615
-110 -1263 -44 -1782 62 -496 222 -1087 413 -1531 82 -188 811 -1466 880
-1541 7 -8 1835 -67 2226 -72 193 -2 234 0 257 13 35 19 47 71 27 115 -22 50
-25 473 -3 599 20 123 14 157 -37 208 l-39 39 -68 -6 c-37 -4 -337 -1 -667 6
-330 6 -653 12 -717 12 l-117 0 -41 55 -42 54 84 -6 c46 -3 407 -17 803 -31
673 -24 721 -27 741 -45 26 -25 36 -24 62 4 21 22 21 26 11 147 -14 160 -18
163 -152 161 -51 -1 -409 10 -797 24 -388 14 -752 25 -810 24 l-105 -3 -14 37
c-8 21 -11 40 -8 44 4 3 91 -1 195 -11 257 -22 1565 -45 1593 -28 10 7 25 12
33 12 14 0 26 29 40 93 10 42 -11 104 -48 145 l-34 36 -93 -2 c-52 -2 -458 11
-904 28 -445 16 -826 30 -846 30 l-35 0 -11 63 c-6 34 -9 64 -7 66 2 2 396
-13 876 -33 953 -40 978 -40 978 -26 0 5 11 20 24 33 30 30 43 102 27 150 -6
18 -25 47 -41 62 -17 16 -30 37 -30 47 0 14 -8 18 -41 18 -23 0 -415 16 -873
35 -457 19 -864 36 -905 37 -73 3 -75 4 -82 32 -5 17 -7 31 -6 32 1 1 79 -6
172 -16 239 -26 1755 -50 1781 -29 14 12 16 28 11 113 -6 97 -7 101 -37 124
-26 21 -31 30 -28 61 l3 36 -780 7 c-429 4 -868 9 -975 10 l-194 3 -7 35 c-4
19 -6 36 -5 38 2 1 147 -2 322 -8 1351 -43 1626 -50 1664 -40 l40 11 0 87 c0
48 4 101 9 118 11 37 -1 61 -37 76 -58 24 -342 38 -1182 57 -481 11 -876 21
-876 21 -1 0 -4 16 -6 36 l-4 36 55 -5 c149 -14 682 -25 1306 -29 l690 -3 3
32 c2 21 10 34 22 38 23 7 28 29 31 148 l3 98 -35 23 -34 24 -835 16 c-459 9
-930 19 -1047 22 l-211 7 -5 23 c-4 24 -3 24 77 24 44 -1 518 -14 1051 -29
534 -16 973 -27 978 -24 4 2 7 13 7 25 0 11 8 22 20 25 21 6 24 15 41 157 l10
89 -28 23 c-15 13 -37 23 -48 23 -11 0 -58 4 -105 9 l-85 9 88 2 88 1 -7 37
c-5 28 -3 39 10 49 14 10 19 34 23 126 l6 113 -34 18 c-29 14 -106 20 -499 37
-844 37 -1134 49 -1235 55 -55 2 -167 8 -248 11 -143 7 -148 8 -145 28 3 19
11 21 73 24 39 1 490 -13 1003 -33 513 -19 950 -35 972 -35 37 0 40 2 40 28 0
22 7 30 30 39 28 11 30 14 30 66 0 30 3 81 6 114 6 57 5 62 -17 74 -13 7 -35
14 -49 15 -14 2 -455 17 -980 34 -525 17 -982 33 -1016 36 -59 5 -61 6 -56 31
l5 25 126 -6 c69 -4 430 -18 801 -31 371 -14 772 -29 890 -34 118 -5 218 -7
223 -4 4 2 7 17 7 33 0 23 5 30 29 35 26 5 29 11 35 58 3 29 6 84 6 122 0 66
-2 71 -30 91 -27 18 -36 20 -70 11 -28 -8 -298 -2 -1002 22 -530 18 -963 34
-964 35 -1 0 3 16 8 34 8 30 12 33 36 28 15 -3 117 -15 227 -26 145 -15 394
-26 910 -40 857 -24 815 -24 815 -6 0 8 11 17 25 20 27 7 42 34 45 82 4 59 -1
82 -25 118 -14 20 -25 43 -25 51 0 11 -12 15 -39 15 -56 0 -1851 69 -1877 72
-18 3 -19 7 -12 37 8 30 12 32 36 27 25 -6 1695 -75 1840 -76 60 0 62 1 62 26
0 36 17 64 40 64 30 0 39 28 41 130 3 148 101 130 -906 174 -467 20 -884 40
-926 43 l-76 6 10 38 9 39 97 -5 c53 -3 411 -17 796 -30 385 -14 760 -27 833
-31 l132 -6 0 31 c0 19 6 34 15 37 21 9 35 68 35 156 0 76 0 77 -33 97 -29 18
-38 19 -65 9 -25 -10 -187 -4 -789 25 -417 21 -791 40 -831 43 -68 6 -72 8
-66 28 3 11 10 25 14 30 5 4 359 -10 797 -33 742 -39 827 -44 896 -57 24 -5
27 -2 27 20 0 15 7 27 19 31 21 6 31 63 31 179 0 54 -4 72 -17 83 -38 29 -49
32 -75 19 -22 -12 -138 -9 -729 15 -387 16 -719 30 -737 31 l-34 3 36 47 36
47 67 -20 c64 -18 105 -19 684 -19 522 0 623 -2 659 -15 60 -21 93 -19 118 8
22 23 22 27 23 418 0 351 6 493 25 665 l6 51 -62 20 c-61 20 -93 21 -1174 27
l-1111 7 -40 -53z m2137 -535 c-2 -219 -5 -399 -6 -401 -2 -1 -286 11 -632 28
-453 21 -641 26 -673 19 -35 -8 -48 -7 -68 6 -42 28 -85 11 -150 -59 -82 -88
-187 -255 -171 -271 2 -2 61 -16 131 -31 110 -24 126 -30 129 -48 3 -21 12
-21 693 -53 380 -17 716 -32 748 -32 45 -1 57 -4 57 -17 0 -13 -7 -15 -37 -10
-33 6 -1350 46 -1492 46 -41 0 -52 3 -48 14 4 10 -13 15 -76 20 -45 3 -100 6
-122 6 l-41 0 -58 -137 c-32 -76 -61 -144 -64 -152 -5 -12 22 -13 171 -8 l177
5 0 -27 c0 -15 -5 -32 -10 -37 -13 -13 267 -20 1077 -30 l531 -7 -5 -36 c-3
-20 -8 -38 -10 -41 -2 -2 -376 10 -831 28 -455 17 -899 30 -988 29 l-160 -2
-43 -124 c-38 -110 -41 -125 -28 -139 9 -8 82 -30 164 -48 l148 -34 863 -24
c474 -13 865 -25 867 -28 3 -3 2 -26 -1 -51 -6 -39 -10 -47 -28 -47 -11 1
-424 16 -916 34 -492 19 -900 30 -905 26 -6 -5 -66 -12 -134 -16 -112 -6 -124
-9 -132 -28 -10 -24 -39 -150 -39 -170 0 -10 36 -15 142 -19 77 -4 143 -9 146
-11 2 -3 0 -19 -6 -35 -11 -30 -10 -31 17 -31 26 0 350 -18 1440 -80 250 -14
347 -23 353 -32 5 -10 -7 -14 -50 -16 -96 -5 -1755 57 -1787 67 -20 7 -75 6
-160 -2 l-130 -12 -19 -98 c-10 -53 -17 -100 -14 -102 2 -3 53 -8 112 -12 104
-6 109 -7 139 -38 l32 -32 820 -32 c451 -18 877 -35 948 -38 l127 -6 0 -34 c0
-32 -1 -33 -42 -33 -23 0 -436 14 -917 31 -814 29 -1112 32 -1217 13 -31 -6
-32 -6 -43 -93 -17 -131 -21 -121 57 -121 79 0 165 -20 238 -55 51 -25 59 -26
780 -60 659 -32 1078 -58 1112 -70 6 -2 12 -11 12 -20 0 -20 -26 -20 -830 5
-1160 35 -1167 35 -1188 17 -11 -10 -44 -19 -83 -23 -35 -3 -79 -7 -96 -10
l-33 -5 0 -94 0 -94 33 -5 c17 -3 81 -10 140 -16 60 -5 121 -16 135 -24 21
-11 241 -25 942 -60 503 -26 934 -49 958 -52 40 -5 42 -7 42 -40 l0 -34 -82 0
c-46 0 -454 14 -908 30 -1076 39 -988 40 -1091 -11 l-82 -42 -22 27 c-12 15
-31 26 -44 26 l-23 0 4 -120 c2 -66 6 -121 9 -124 2 -2 35 1 72 6 47 6 89 5
130 -2 57 -10 1694 -68 1970 -69 l119 -1 -7 -42 c-4 -24 -9 -45 -11 -47 -2 -2
-510 2 -1129 9 -619 7 -1128 10 -1132 7 -4 -5 15 -269 20 -273 1 -1 403 -9
892 -18 490 -9 995 -19 1123 -22 l232 -7 0 -53 0 -54 -70 0 c-38 0 -455 9
-926 20 -618 15 -894 18 -992 11 -85 -6 -156 -6 -186 0 -27 5 -51 8 -53 6 -3
-3 25 -172 48 -284 l10 -53 36 15 c49 21 230 21 260 0 17 -12 158 -19 794 -39
426 -14 838 -28 917 -32 l142 -6 0 -28 c0 -16 -4 -31 -9 -35 -5 -3 -390 6
-854 20 -657 20 -852 23 -874 13 -16 -6 -104 -13 -210 -16 l-183 -4 0 -32 c0
-42 21 -210 27 -216 2 -3 72 -3 155 -2 121 3 152 1 161 -10 10 -12 152 -21
787 -47 1095 -46 1000 -39 1000 -68 0 -23 -1 -23 -112 -23 -62 1 -439 11 -838
24 -577 19 -728 21 -740 11 -10 -8 -76 -14 -199 -19 -101 -3 -186 -8 -189 -10
-2 -3 4 -54 13 -114 l17 -109 186 -18 c103 -9 190 -19 193 -21 4 -2 229 -15
500 -29 272 -13 528 -26 569 -29 41 -3 193 -10 337 -17 239 -11 262 -14 266
-31 3 -10 0 -18 -6 -18 -7 0 -405 11 -885 25 -481 14 -877 23 -882 20 -4 -3
-10 2 -14 10 -4 12 -28 15 -127 15 -111 0 -121 -2 -116 -17 2 -10 21 -82 42
-160 l38 -141 46 1 c80 1 265 -15 279 -26 6 -5 12 -20 12 -33 0 -13 1 -24 3
-25 1 0 362 -17 802 -38 897 -43 892 -47 -30 -26 -653 15 -1075 19 -1075 10 0
-16 62 -193 72 -207 15 -18 124 -32 388 -48 212 -13 290 -32 290 -69 0 -17 20
-18 323 -25 177 -3 460 -9 630 -13 l307 -6 0 -23 c0 -22 -3 -23 -42 -19 -201
21 -326 27 -758 34 -272 5 -499 7 -503 4 -4 -3 -123 -13 -264 -24 -141 -10
-260 -22 -264 -26 -13 -13 116 -197 199 -284 l77 -81 753 -8 c414 -4 756 -10
758 -13 6 -6 -25 -559 -31 -565 -2 -2 -304 9 -670 26 -571 25 -673 28 -711 16
-39 -12 -73 -10 -302 17 -173 20 -291 29 -360 27 -101 -3 -103 -3 -116 22 -7
14 -35 70 -62 124 -27 55 -93 163 -147 240 -380 544 -650 1132 -807 1760 -72
285 -128 631 -160 991 -30 333 -19 1083 20 1380 21 163 54 332 95 495 45 179
334 1051 369 1116 19 33 50 98 71 145 70 161 182 346 309 514 66 87 288 319
360 375 24 19 52 47 61 63 l16 27 572 1 c507 1 724 7 1392 38 l30 1 -3 -397z
m-1417 -3348 c411 -21 422 -22 245 -24 -102 0 -337 2 -522 6 l-338 6 0 23 c0
22 2 22 93 17 50 -3 286 -15 522 -28z m588 -32 c-23 -2 -64 -2 -90 0 -26 2 -7
3 42 3 50 0 71 -1 48 -3z m925 -2260 c-10 -2 -26 -2 -35 0 -10 3 -2 5 17 5 19
0 27 -2 18 -5z"/>
<path d="M1686 8808 c-758 -7 -833 -10 -865 -26 -19 -9 -39 -26 -45 -37 -6
-11 -20 -36 -33 -55 -12 -19 -34 -71 -49 -115 -27 -79 -28 -84 -34 -420 -4
-207 -3 -354 3 -375 5 -19 26 -52 47 -72 l38 -38 1059 0 1059 0 69 -70 69 -70
-564 1 c-311 1 -819 4 -1130 8 -526 6 -568 5 -607 -11 -23 -10 -44 -21 -46
-25 -9 -15 -27 -220 -21 -237 3 -9 15 -21 26 -27 34 -18 374 -24 1440 -24
l1028 0 19 -57 20 -58 -652 0 c-651 -1 -1736 -22 -1770 -35 -9 -4 -23 -2 -30
3 -10 8 -21 6 -44 -8 -42 -25 -67 -100 -67 -205 l-1 -80 50 -8 c28 -4 626 -7
1330 -5 l1279 3 11 -56 12 -56 -1041 -8 c-573 -4 -1144 -10 -1271 -14 -184 -5
-233 -3 -247 7 -20 16 -54 2 -62 -25 -2 -10 -8 -84 -11 -164 -7 -143 -7 -147
15 -169 18 -18 28 -21 53 -14 39 9 347 11 752 4 165 -3 647 -1 1071 4 l771 9
6 -33 c4 -18 7 -45 7 -61 l0 -29 -874 0 c-540 0 -1036 -5 -1298 -14 -233 -8
-433 -14 -446 -14 -13 0 -32 -8 -43 -18 -17 -15 -19 -31 -19 -129 l0 -112 40
-27 40 -26 1315 0 1315 0 0 -34 0 -33 -692 -7 c-381 -4 -867 -11 -1081 -16
-309 -7 -427 -6 -585 5 -276 21 -307 20 -332 -7 -18 -20 -20 -35 -20 -159 l0
-137 27 -18 c15 -9 48 -19 73 -20 25 -1 630 -9 1345 -18 715 -8 1301 -15 1301
-15 1 -1 4 -15 6 -31 l5 -30 -1256 7 c-1169 6 -1257 7 -1268 23 -50 71 -217
61 -243 -13 -7 -22 -7 -34 1 -44 11 -13 9 -71 -8 -219 l-5 -51 53 -27 c39 -19
68 -26 110 -26 32 0 70 -5 86 -11 19 -7 440 -17 1281 -29 689 -9 1255 -20
1259 -24 3 -3 -577 -6 -1291 -6 -1281 0 -1297 0 -1336 20 -36 18 -43 19 -74 6
-66 -27 -76 -66 -52 -201 11 -64 15 -71 55 -100 l42 -31 1316 -12 c724 -6
1318 -14 1320 -16 2 -2 1 -16 -3 -31 l-7 -28 -1267 6 c-1087 6 -1274 5 -1308
-7 -38 -14 -43 -13 -67 6 -32 25 -71 18 -76 -14 -3 -13 -2 -90 1 -171 5 -143
6 -150 30 -169 18 -15 32 -18 60 -13 19 4 599 1 1288 -6 979 -10 1252 -15
1252 -25 0 -46 35 -44 -715 -44 -387 0 -770 -4 -852 -9 -81 -6 -314 -12 -518
-15 -319 -5 -373 -4 -389 9 -20 16 -82 21 -88 8 -1 -5 -16 -16 -33 -25 l-30
-17 0 -132 c0 -130 0 -132 26 -151 25 -19 59 -19 1248 -18 1168 0 1223 0 1216
-17 -4 -10 -16 -45 -27 -77 l-21 -59 -656 4 c-591 4 -825 0 -1586 -26 -107 -4
-154 -9 -163 -19 -15 -14 -31 -120 -32 -202 0 -49 2 -52 51 -92 l52 -42 1104
0 c1049 0 1105 -1 1098 -18 -4 -9 -12 -30 -18 -46 l-10 -29 -821 6 c-796 7
-828 6 -1054 -15 -220 -21 -234 -21 -261 -5 -44 26 -65 21 -106 -24 -37 -41
-37 -43 -31 -101 10 -81 11 -84 75 -127 l56 -38 940 -17 c517 -9 966 -16 997
-16 l57 0 -37 -66 -37 -66 -904 8 c-861 7 -906 8 -925 26 -38 35 -144 17 -164
-27 -7 -14 -16 -25 -22 -25 -6 0 -10 -30 -10 -73 0 -68 2 -75 29 -101 18 -17
43 -29 67 -32 22 -3 423 -11 892 -18 469 -8 855 -16 858 -19 3 -2 -6 -17 -19
-33 -13 -16 -32 -44 -41 -61 l-17 -33 -302 0 c-166 0 -395 -5 -509 -10 -192
-10 -228 -9 -476 15 -193 18 -285 31 -328 46 -111 38 -153 4 -173 -141 -19
-131 -73 -893 -67 -938 11 -81 61 -121 133 -107 21 5 653 10 1406 12 l1368 3
147 115 c81 64 156 128 167 144 11 15 70 90 131 167 95 120 133 179 271 429
161 293 252 490 356 770 153 415 209 614 308 1105 120 595 145 860 136 1453
-9 625 -60 982 -247 1741 -121 492 -200 699 -379 994 -34 55 -61 103 -61 108
0 4 -29 50 -64 103 -76 114 -180 228 -279 308 -41 33 -72 63 -70 69 1 5 -14
28 -35 51 -29 33 -65 55 -170 103 l-133 60 -547 -2 c-301 -1 -920 -5 -1376
-10z m1761 -241 c27 -19 77 -44 113 -56 266 -94 504 -293 653 -548 284 -483
575 -1631 628 -2468 13 -207 7 -686 -11 -865 -72 -724 -231 -1360 -523 -2086
-155 -385 -237 -540 -398 -754 -96 -128 -264 -308 -358 -385 -39 -32 -65 -62
-72 -84 l-11 -33 -147 6 c-80 3 -667 13 -1304 23 l-1158 17 6 296 c3 162 8
319 11 347 l5 53 67 0 c37 0 418 9 847 20 429 11 792 20 806 20 20 0 34 12 64
57 22 32 69 94 106 138 79 96 103 131 95 143 -11 19 -133 33 -500 58 -215 14
-388 30 -400 37 -14 7 -117 12 -301 15 -238 3 -307 1 -458 -17 -217 -26 -342
-28 -351 -6 -3 8 -2 14 2 13 4 -1 21 5 37 14 49 26 113 40 225 49 58 4 161 13
230 19 137 13 629 6 790 -10 52 -5 241 -23 420 -40 179 -17 336 -33 350 -36
24 -5 29 2 96 148 39 84 69 156 67 161 -2 4 -37 7 -77 7 -50 0 -87 6 -117 19
-41 18 -99 20 -999 31 -822 11 -956 14 -964 27 -4 8 -22 21 -39 28 -39 16 199
22 1213 30 538 5 716 9 722 18 5 8 58 13 172 15 l164 3 52 142 c29 78 54 147
56 152 3 7 -287 11 -853 13 -717 3 -897 1 -1098 -13 -132 -9 -286 -17 -343
-18 l-103 -2 -26 46 c-20 34 -24 52 -19 74 l7 28 347 -6 c191 -4 671 -2 1067
4 l719 12 41 29 40 30 145 -4 145 -3 53 149 c29 82 51 150 49 152 -1 2 -57 13
-122 25 -114 20 -152 21 -810 22 -379 1 -907 -2 -1172 -7 -386 -7 -485 -6
-498 4 -19 16 -20 86 -1 93 12 5 1099 -5 1897 -17 l347 -6 6 24 c3 12 20 30
38 40 31 17 44 17 198 3 121 -10 168 -11 176 -3 14 13 54 176 57 231 l2 39
-95 13 c-96 13 -1163 12 -2212 -3 l-416 -6 -17 57 c-9 32 -15 58 -13 59 11 5
2253 -13 2350 -19 l120 -7 -8 24 c-13 41 -10 50 26 69 39 21 122 25 167 8 15
-6 48 -7 74 -4 l47 7 11 87 c16 125 18 118 -39 123 -32 3 -68 16 -99 35 l-48
31 -809 3 c-537 3 -968 -1 -1283 -10 -511 -15 -490 -16 -491 37 l0 22 1278 0
1277 0 10 22 c17 38 71 58 158 58 l78 0 -3 113 -3 112 -92 16 c-51 9 -94 13
-95 9 -2 -4 -562 -10 -1245 -13 -1073 -6 -1243 -5 -1243 7 0 22 -49 56 -81 56
-15 0 -39 -4 -53 -10 -28 -10 -29 -8 -20 36 l5 29 1290 -3 c850 -1 1289 1
1289 8 0 23 86 54 164 59 l80 6 3 100 c1 55 -2 106 -6 114 -23 37 -125 40
-1457 40 -710 1 -1306 4 -1323 7 -28 6 -31 10 -31 44 l0 38 352 6 c194 3 767
8 1273 11 741 5 923 9 935 19 38 33 81 46 155 46 l77 0 -6 63 c-15 144 -19
167 -25 167 -3 0 -64 7 -136 15 -106 13 -362 17 -1382 22 -895 4 -1253 9
-1253 17 0 6 3 22 7 35 l6 23 251 -7 c138 -4 690 -2 1226 5 918 11 976 12 995
29 43 39 65 44 163 37 l95 -7 -7 23 c-17 58 -18 134 -2 172 26 61 23 66 -39
66 -58 0 -145 27 -176 56 -17 15 -83 17 -786 18 -445 0 -969 -5 -1246 -13
-263 -7 -480 -11 -484 -8 -3 3 -2 33 2 66 l7 59 1353 4 c744 2 1356 5 1359 8
12 13 5 123 -15 215 -11 55 -22 101 -23 102 -1 2 -209 11 -462 22 -382 16
-525 18 -854 11 -217 -5 -621 -12 -897 -15 l-503 -8 0 51 c0 28 4 54 10 57 5
3 206 1 447 -5 325 -9 623 -9 1167 0 l729 11 34 29 c37 33 53 35 134 20 38 -7
70 -7 106 1 29 6 53 11 53 12 0 1 -15 56 -34 122 l-33 120 -129 8 c-102 6
-141 13 -184 32 -90 39 -489 47 -1468 28 -436 -9 -795 -13 -798 -10 -3 3 -3
19 1 36 l7 31 1096 2 c1088 3 1097 3 1100 23 9 48 62 56 217 30 49 -8 91 -13
93 -11 5 6 -66 175 -94 222 -40 69 -118 140 -191 175 -38 18 -85 44 -105 57
-20 13 -41 21 -46 18 -10 -6 -1971 -51 -1976 -45 -4 6 23 615 30 666 l5 43
717 -1 c394 0 863 4 1042 9 179 5 414 9 522 10 l198 2 47 -33z"/>
</g>
</svg>
