<?xml version="1.0" standalone="no"?>
<!DOCTYPE svg PUBLIC "-//W3C//DTD SVG 20010904//EN"
 "http://www.w3.org/TR/2001/REC-SVG-20010904/DTD/svg10.dtd">
<svg version="1.0" xmlns="http://www.w3.org/2000/svg"
 width="1024.000000pt" height="1024.000000pt" viewBox="0 0 1024.000000 1024.000000"
 preserveAspectRatio="xMidYMid meet">
<metadata>
Created by potrace 1.10, written by Peter Selinger 2001-2011
</metadata>
<g transform="translate(0.000000,1024.000000) scale(0.100000,-0.100000)"
fill="#000000" stroke="none">
<path d="M5830 8164 c-19 -8 -44 -23 -55 -33 -11 -10 -110 -48 -220 -84 l-200
-66 -380 -46 c-209 -25 -482 -57 -608 -72 l-227 -27 -38 21 c-23 13 -94 31
-187 47 -82 14 -171 30 -197 34 -42 8 -55 6 -125 -25 -43 -19 -80 -37 -82 -39
-8 -7 30 -42 59 -54 31 -13 99 -99 136 -172 63 -124 135 -420 243 -1003 111
-594 109 -586 144 -655 49 -99 115 -132 187 -95 36 19 64 58 80 112 7 24 20
45 29 47 27 8 471 59 474 55 2 -2 34 -44 71 -93 80 -105 91 -128 116 -249 38
-185 41 -328 38 -1806 l-3 -1425 -293 -94 c-161 -53 -296 -92 -300 -88 -4 4
-12 398 -19 874 -7 477 -16 998 -20 1158 l-8 291 -28 36 c-45 59 -100 83 -320
141 l-207 53 -68 -15 c-37 -8 -69 -16 -71 -18 -2 -2 27 -37 66 -77 126 -130
191 -255 233 -453 20 -91 22 -152 35 -794 7 -382 15 -836 16 -1009 l4 -315
-190 -48 c-104 -26 -195 -48 -201 -48 -5 0 -76 41 -156 90 -81 50 -150 90
-155 90 -16 -1 -73 -100 -73 -129 0 -50 19 -133 44 -185 15 -33 82 -115 186
-231 l163 -180 101 -32 101 -32 245 153 c163 102 346 204 545 306 165 84 327
167 360 185 33 18 110 58 170 90 404 213 844 465 1080 620 114 75 276 217 263
230 -15 16 -200 -51 -656 -237 -255 -103 -466 -188 -468 -188 -2 0 -4 420 -4
934 l0 934 28 6 c84 17 896 126 939 126 64 0 139 23 169 51 83 78 -65 254
-265 313 -84 25 -116 20 -241 -33 -101 -43 -145 -55 -367 -97 -139 -26 -254
-46 -256 -43 -2 2 0 211 5 464 5 324 13 491 23 566 11 72 13 113 6 130 -13 35
-65 85 -122 118 l-48 27 322 42 c177 24 338 43 357 42 76 0 162 39 173 80 7
25 -116 183 -156 201 -15 6 -30 15 -32 20 -3 4 42 178 99 386 57 208 114 415
126 461 35 138 62 188 145 268 57 54 75 77 75 98 0 16 -25 67 -57 121 -53 86
-63 97 -138 143 -205 129 -324 165 -415 126z m-81 -419 c79 -40 70 -183 -49
-842 -33 -183 -64 -343 -69 -356 -8 -20 -25 -27 -118 -50 -108 -26 -1128 -175
-1137 -166 -3 2 -28 169 -56 369 -28 201 -66 471 -84 600 -18 129 -30 236 -27
237 3 1 85 14 181 28 96 14 423 63 725 109 303 46 563 85 578 85 15 1 41 -6
56 -14z"/>
</g>
</svg>
