<?xml version="1.0" standalone="no"?>
<!DOCTYPE svg PUBLIC "-//W3C//DTD SVG 20010904//EN"
 "http://www.w3.org/TR/2001/REC-SVG-20010904/DTD/svg10.dtd">
<svg version="1.0" xmlns="http://www.w3.org/2000/svg"
 width="1024.000000pt" height="1024.000000pt" viewBox="0 0 1024.000000 1024.000000"
 preserveAspectRatio="xMidYMid meet">
<metadata>
Created by potrace 1.10, written by Peter Selinger 2001-2011
</metadata>
<g transform="translate(0.000000,1024.000000) scale(0.100000,-0.100000)"
fill="#000000" stroke="none">
<path d="M5265 9270 c-559 -28 -1092 -167 -1610 -420 -308 -150 -459 -273
-624 -504 -86 -121 -127 -254 -137 -446 -5 -82 0 -120 30 -272 38 -195 42
-203 155 -338 78 -93 155 -163 241 -220 154 -102 211 -144 223 -168 7 -14 19
-29 27 -33 34 -19 1153 -219 1259 -225 l108 -7 13 -116 c13 -118 9 -295 -21
-1011 -8 -202 -8 -367 1 -693 14 -458 9 -787 -16 -1120 -23 -306 -91 -888
-114 -970 -22 -78 -20 -163 6 -204 7 -12 17 -47 20 -77 l7 -55 -39 10 c-645
172 -1255 523 -1746 1005 -424 416 -630 761 -758 1269 -59 235 -80 406 -90
745 -5 162 -14 371 -21 463 -8 131 -8 210 2 350 15 212 15 245 -1 303 -13 44
-66 116 -101 134 -26 14 -86 -12 -100 -43 -8 -18 -8 -224 0 -773 14 -944 16
-963 148 -1342 41 -119 90 -262 109 -317 51 -150 276 -525 406 -677 189 -221
456 -471 683 -638 345 -254 594 -391 885 -485 257 -83 997 -351 1405 -508 270
-104 848 -335 930 -372 33 -15 112 -47 175 -72 452 -180 803 -389 1167 -695
l81 -69 4 -92 c2 -64 9 -104 22 -130 33 -67 134 -115 185 -88 20 11 21 19 21
163 0 87 -5 167 -12 190 -9 32 -43 70 -165 187 -139 132 -172 157 -336 260
-210 131 -435 253 -732 397 -352 170 -483 224 -1230 504 l-720 269 2 28 c1 15
9 69 17 118 8 50 19 149 25 220 5 72 21 229 35 350 45 390 57 613 63 1142 l6
502 43 -38 c82 -72 200 -87 441 -56 450 59 893 295 1125 602 123 162 226 391
290 643 27 109 78 460 78 544 0 63 -22 118 -66 163 -56 59 -104 56 -127 -10
-19 -52 -38 -216 -39 -326 0 -96 -5 -138 -20 -180 -10 -31 -30 -101 -43 -156
-64 -268 -166 -456 -350 -640 -205 -206 -502 -365 -787 -421 -77 -15 -93 -15
-228 1 -80 9 -162 19 -183 22 -48 7 -82 -2 -105 -27 -18 -20 -18 -15 -15 192
2 117 8 534 13 927 5 393 11 716 14 718 2 2 147 35 322 72 176 38 360 84 409
101 283 100 543 231 795 400 276 185 376 296 463 516 47 118 67 221 67 347 0
146 -13 202 -87 373 -55 127 -76 164 -128 224 -175 203 -415 352 -727 454
-336 110 -642 146 -1043 126z m416 -221 c221 -9 268 -14 373 -39 118 -28 357
-115 459 -167 188 -95 437 -318 451 -403 3 -21 20 -74 36 -117 28 -72 30 -87
30 -210 0 -96 -6 -160 -21 -235 l-22 -103 -91 -94 c-456 -467 -1055 -743
-1724 -792 -148 -11 -186 -10 -647 25 -504 37 -580 47 -725 98 -178 63 -239
103 -445 289 -104 94 -193 176 -197 183 -4 6 -8 22 -8 36 0 14 -11 46 -25 72
-34 64 -51 209 -36 306 6 39 11 93 11 120 0 46 6 58 84 169 98 138 224 264
367 365 93 67 293 176 399 218 199 80 568 185 805 229 320 60 485 69 926 50z"/>
<path d="M5912 3790 c0 -8 6 -31 13 -50 7 -19 13 -28 13 -20 0 8 -6 31 -13 50
-7 19 -13 28 -13 20z"/>
</g>
</svg>
