<?xml version="1.0" standalone="no"?>
<!DOCTYPE svg PUBLIC "-//W3C//DTD SVG 20010904//EN"
 "http://www.w3.org/TR/2001/REC-SVG-20010904/DTD/svg10.dtd">
<svg version="1.0" xmlns="http://www.w3.org/2000/svg"
 width="1024.000000pt" height="1024.000000pt" viewBox="0 0 1024.000000 1024.000000"
 preserveAspectRatio="xMidYMid meet">
<metadata>
Created by potrace 1.10, written by Peter Selinger 2001-2011
</metadata>
<g transform="translate(0.000000,1024.000000) scale(0.100000,-0.100000)"
fill="#000000" stroke="none">
<path d="M1884 9100 c-40 -4 -87 -13 -106 -19 -30 -10 -88 -54 -88 -67 0 -17
23 -43 47 -52 15 -7 485 -75 1043 -152 746 -103 1053 -149 1160 -175 357 -85
619 -120 1015 -135 143 -6 519 -30 835 -54 506 -38 579 -42 609 -30 18 8 44
14 56 14 13 0 171 -27 352 -60 324 -60 329 -60 426 -50 112 11 353 13 446 4
l62 -7 122 -110 c145 -130 204 -198 251 -286 43 -84 64 -154 76 -262 9 -81 8
-95 -24 -230 -24 -103 -45 -168 -76 -228 -91 -181 -165 -401 -214 -636 -14
-66 -32 -137 -41 -157 -8 -21 -85 -304 -171 -630 -85 -326 -175 -661 -199
-744 -89 -311 -148 -606 -180 -909 -28 -258 -282 -1883 -305 -1949 -16 -49
-18 -65 -9 -95 10 -33 27 -47 177 -141 91 -58 204 -134 251 -168 108 -80 188
-125 288 -161 43 -16 114 -45 158 -64 56 -24 172 -55 383 -103 l304 -68 -58
-22 c-79 -29 -154 -107 -154 -159 0 -25 8 -43 25 -60 33 -34 85 -33 241 6 68
18 127 29 130 27 2 -3 7 -36 11 -73 5 -60 11 -73 41 -107 50 -55 104 -81 187
-87 l70 -6 -110 -27 c-178 -45 -318 -60 -505 -56 l-165 4 -214 63 -215 63
-730 -36 -731 -36 -349 40 c-192 22 -350 41 -351 42 0 2 -13 20 -28 40 l-27
37 35 213 c20 117 43 238 51 268 30 106 91 205 192 313 142 152 210 265 232
390 7 33 19 75 28 92 14 24 17 57 17 165 -1 127 -2 140 -33 219 -17 46 -39 95
-47 107 -8 13 -15 33 -15 44 0 12 -7 35 -17 53 -32 63 -54 197 -93 582 -56
548 -55 783 6 1272 13 111 32 219 41 240 14 33 17 103 21 506 4 383 7 467 18
467 34 0 41 45 64 375 12 182 26 351 31 377 5 27 5 68 0 95 -9 46 -8 49 22 74
24 21 30 32 29 62 -2 49 -26 94 -65 118 -37 24 -73 22 -332 -10 -88 -11 -185
-21 -215 -21 -30 0 -109 -9 -174 -19 -107 -18 -125 -18 -185 -6 -41 9 -251 22
-561 35 -272 11 -588 27 -701 35 -113 8 -277 15 -365 15 -191 0 -477 -19 -485
-32 -4 -6 -83 -5 -215 1 -255 14 -875 31 -1113 31 -173 0 -175 0 -213 -26 -41
-29 -45 -40 -24 -69 39 -55 -56 -48 1905 -131 l1825 -76 53 27 53 26 270 -9
c149 -5 272 -11 274 -13 2 -2 -2 -49 -10 -105 -18 -139 -34 -361 -34 -475 0
-52 -4 -99 -9 -105 -12 -11 -38 -469 -47 -819 -3 -147 -11 -265 -16 -272 -6
-7 -14 -72 -19 -145 -5 -81 -16 -161 -29 -203 -27 -93 -56 -261 -71 -415 -12
-132 -6 -428 12 -530 5 -30 13 -158 18 -285 5 -126 14 -264 21 -305 25 -162
88 -374 136 -457 13 -23 35 -84 49 -135 l25 -93 -26 -140 -26 -140 -117 -115
c-229 -225 -322 -420 -355 -743 -8 -73 -18 -143 -24 -157 -32 -81 -17 -215 30
-285 67 -97 154 -164 262 -200 l77 -26 567 -10 c312 -6 583 -8 603 -5 19 3 71
17 115 32 133 44 271 64 434 64 220 0 353 -28 557 -116 l101 -44 494 46 493
46 105 45 c121 52 185 95 226 154 24 36 29 52 29 104 0 56 -4 68 -40 120 -25
37 -75 86 -140 136 -92 72 -117 85 -197 103 -16 4 -28 13 -28 21 0 41 -34 97
-74 119 -28 17 -225 69 -622 164 l-580 141 -302 161 c-183 98 -302 168 -302
177 0 8 54 330 119 716 66 386 127 767 136 847 26 232 73 557 116 795 35 192
80 364 360 1365 295 1055 324 1149 359 1202 143 215 170 540 71 849 -57 177
-206 407 -323 497 -108 83 -279 142 -414 142 -31 0 -183 -16 -338 -36 l-281
-35 -95 45 -95 45 -1575 151 -1575 151 -813 125 c-447 68 -832 123 -855 123
-23 -1 -74 -5 -113 -9z m7160 -7949 c36 -18 64 -36 62 -40 -3 -4 -37 -20 -76
-35 -118 -47 -180 -22 -180 71 l0 46 63 -5 c43 -4 86 -16 131 -37z m200 -160
c3 -5 -6 -14 -22 -19 -15 -6 -63 -24 -107 -41 -44 -17 -82 -31 -85 -31 -16 0
56 40 120 67 86 36 87 36 94 24z"/>
<path d="M7479 7973 c-8 -2 -22 -16 -31 -31 -14 -23 -14 -30 -2 -53 11 -23 26
-30 91 -44 43 -9 94 -21 113 -26 22 -5 38 -5 44 1 15 15 13 85 -2 103 -11 12
-178 61 -193 56 -2 -1 -11 -3 -20 -6z"/>
<path d="M2069 7578 c-36 -7 -49 -16 -59 -36 -10 -23 -9 -29 10 -44 28 -22
-14 -17 710 -99 344 -39 663 -76 710 -82 47 -6 245 -11 440 -11 509 0 657 22
744 113 24 25 26 31 15 50 -26 41 -55 44 -246 25 -218 -21 -787 -25 -993 -6
-395 37 -1198 102 -1239 101 -25 -1 -67 -6 -92 -11z"/>
<path d="M987 6824 c-4 -4 -7 -14 -7 -23 0 -11 3 -12 11 -4 6 6 10 16 7 23 -2
6 -7 8 -11 4z"/>
<path d="M6257 4533 l-36 -38 -3 -230 c-2 -168 5 -352 25 -680 27 -423 30
-451 49 -472 22 -23 62 -30 87 -14 16 11 41 111 41 172 0 25 -10 83 -21 129
-17 65 -20 102 -16 162 7 110 -9 340 -34 482 -18 103 -20 140 -14 251 10 176
9 229 -4 254 -16 30 -32 26 -74 -16z"/>
<path d="M6311 2084 c-21 -15 -23 -22 -19 -88 7 -126 82 -202 175 -177 84 22
136 72 120 115 -7 17 -220 166 -239 166 -7 0 -24 -7 -37 -16z"/>
</g>
</svg>
