<?xml version="1.0" standalone="no"?>
<!DOCTYPE svg PUBLIC "-//W3C//DTD SVG 20010904//EN"
 "http://www.w3.org/TR/2001/REC-SVG-20010904/DTD/svg10.dtd">
<svg version="1.0" xmlns="http://www.w3.org/2000/svg"
 width="1024.000000pt" height="1024.000000pt" viewBox="0 0 1024.000000 1024.000000"
 preserveAspectRatio="xMidYMid meet">
<metadata>
Created by potrace 1.10, written by Peter Selinger 2001-2011
</metadata>
<g transform="translate(0.000000,1024.000000) scale(0.100000,-0.100000)"
fill="#000000" stroke="none">
<path d="M6295 8285 c-128 -37 -72 -29 -1935 -271 -448 -58 -837 -107 -865
-110 -29 -3 -130 7 -245 24 -182 28 -196 29 -228 14 l-33 -16 103 -101 c57
-55 115 -120 130 -145 76 -132 179 -532 338 -1315 42 -208 60 -269 96 -331 47
-83 128 -123 183 -93 33 18 61 74 61 122 0 23 5 37 13 37 6 0 199 22 427 50
l415 49 19 -22 c45 -52 78 -145 87 -244 7 -73 40 -2309 35 -2320 -1 -1 -246
104 -546 234 -300 129 -584 247 -632 262 l-87 26 145 305 c151 316 248 535
270 606 11 36 10 45 -5 70 -55 89 -323 270 -429 290 -30 6 -112 -10 -112 -21
0 -2 14 -26 30 -52 107 -168 74 -371 -157 -983 -157 -417 -358 -834 -545
-1133 -125 -200 -321 -439 -567 -690 -153 -155 -171 -177 -147 -177 60 0 166
72 413 282 378 321 637 648 913 1150 69 126 128 228 133 228 4 0 148 -64 320
-142 l312 -142 1210 -717 c666 -394 1248 -735 1293 -758 45 -22 114 -52 154
-65 l73 -25 475 34 c462 33 567 47 714 89 30 9 68 27 83 41 25 21 26 25 13 39
-22 22 -142 59 -391 121 -912 227 -1350 389 -2556 946 l-61 28 -6 103 c-7 137
-17 1198 -10 1198 2 0 338 50 745 110 407 61 756 110 774 110 90 0 185 43 185
83 0 8 -27 48 -59 88 l-59 74 -105 32 -106 33 -148 -49 c-81 -27 -179 -56
-218 -65 -71 -17 -1007 -167 -1011 -163 -2 1 -6 266 -10 587 l-7 585 -32 30
-32 31 593 68 c327 37 636 71 687 76 103 9 152 28 169 65 10 22 5 32 -48 97
-32 40 -67 80 -78 89 -20 16 -18 23 93 460 97 384 119 458 161 546 29 61 66
122 93 150 24 26 60 72 80 102 41 62 46 45 -47 166 -50 65 -161 160 -251 214
-78 47 -121 48 -270 6z m37 -305 c17 -21 19 -34 14 -77 -11 -91 -237 -1228
-246 -1237 -5 -5 -107 -33 -227 -62 l-218 -54 -884 -100 c-487 -55 -886 -98
-888 -96 -4 4 -223 1295 -223 1316 0 12 148 38 778 138 l777 123 480 39 c264
21 511 38 549 36 59 -1 71 -5 88 -26z"/>
</g>
</svg>
