<?xml version="1.0" standalone="no"?>
<!DOCTYPE svg PUBLIC "-//W3C//DTD SVG 20010904//EN"
 "http://www.w3.org/TR/2001/REC-SVG-20010904/DTD/svg10.dtd">
<svg version="1.0" xmlns="http://www.w3.org/2000/svg"
 width="1024.000000pt" height="1024.000000pt" viewBox="0 0 1024.000000 1024.000000"
 preserveAspectRatio="xMidYMid meet">
<metadata>
Created by potrace 1.10, written by Peter Selinger 2001-2011
</metadata>
<g transform="translate(0.000000,1024.000000) scale(0.100000,-0.100000)"
fill="#000000" stroke="none">
<path d="M1704 9040 c-75 -8 -117 -25 -149 -60 l-20 -22 35 -29 c19 -16 44
-31 55 -34 11 -3 475 -68 1030 -145 556 -78 1042 -149 1080 -160 274 -75 694
-133 1055 -145 102 -3 459 -27 793 -52 593 -44 610 -45 648 -28 39 18 39 18
370 -44 182 -34 338 -63 347 -63 10 0 89 5 177 12 101 8 211 10 296 5 l134 -7
138 -126 c151 -140 190 -186 242 -290 42 -85 64 -163 71 -262 9 -107 -40 -317
-102 -440 -95 -191 -172 -420 -213 -631 -11 -57 -29 -126 -40 -154 -11 -27
-34 -117 -51 -200 -61 -293 -162 -674 -255 -965 -130 -407 -206 -767 -249
-1180 -25 -232 -273 -1798 -296 -1864 -17 -50 -18 -65 -8 -97 10 -36 25 -47
202 -160 105 -66 222 -145 260 -174 74 -58 176 -112 271 -144 33 -11 94 -35
135 -54 53 -24 164 -54 378 -102 l304 -69 -57 -21 c-72 -27 -141 -95 -150
-147 -6 -33 -3 -41 23 -68 40 -39 76 -39 238 1 68 18 127 29 130 26 3 -3 8
-31 11 -63 7 -74 22 -104 72 -143 57 -45 121 -65 188 -58 30 3 53 4 51 2 -2
-2 -57 -18 -122 -35 -174 -45 -334 -63 -506 -57 -142 4 -150 6 -365 67 l-220
62 -650 -31 c-357 -17 -699 -31 -760 -31 -60 0 -247 16 -415 35 -168 19 -310
35 -316 35 -6 0 -24 19 -39 42 l-29 43 28 165 c65 384 90 447 246 615 142 153
218 277 235 385 3 25 15 71 26 103 42 126 33 268 -26 409 -15 35 -31 77 -37
93 -6 17 -18 48 -28 70 -35 82 -61 240 -101 630 -39 379 -41 412 -35 620 8
319 57 776 91 859 12 29 15 102 15 404 0 203 3 410 6 460 6 79 9 91 28 100 21
9 23 25 51 368 31 385 34 454 22 497 -6 20 -4 27 7 27 21 0 56 48 56 77 0 38
-37 101 -70 118 -38 20 -83 19 -270 -6 -85 -11 -193 -22 -240 -24 -47 -2 -138
-12 -203 -21 -100 -15 -128 -16 -175 -6 -32 7 -307 24 -612 37 -305 13 -624
30 -708 36 -99 8 -249 9 -430 5 -296 -7 -373 -13 -351 -27 14 -8 -204 -4 -306
7 -104 10 -1168 32 -1195 24 -70 -20 -100 -69 -62 -102 48 -42 12 -40 1887
-119 l1820 -76 49 24 49 25 273 -7 c190 -6 274 -11 274 -19 0 -6 -7 -64 -15
-130 -8 -65 -19 -208 -25 -319 -6 -110 -15 -219 -20 -241 -12 -55 -31 -415
-39 -766 -4 -157 -11 -292 -16 -300 -5 -8 -15 -78 -22 -155 -6 -77 -21 -174
-33 -215 -30 -108 -59 -295 -69 -451 -9 -142 0 -394 19 -497 6 -31 15 -165 19
-297 7 -181 14 -266 30 -345 26 -126 93 -329 124 -379 12 -19 33 -80 47 -134
l25 -99 -27 -134 -27 -135 -119 -117 c-174 -171 -261 -314 -311 -508 -24 -90
-40 -205 -41 -280 0 -28 -7 -68 -15 -87 -36 -88 -28 -208 21 -294 35 -60 114
-135 182 -171 109 -58 133 -60 757 -68 l570 -7 108 31 c187 54 267 66 442 66
194 -1 317 -25 512 -104 72 -28 141 -50 162 -50 20 0 246 20 502 44 l466 44
107 48 c244 111 306 243 185 396 -41 51 -222 188 -262 198 -18 4 -44 11 -58
14 -21 4 -28 14 -33 41 -7 36 -45 88 -77 106 -11 5 -283 75 -605 154 l-586
144 -295 158 c-162 87 -297 163 -300 170 -2 6 48 320 112 697 63 377 126 781
140 898 31 277 67 523 115 780 32 173 92 401 356 1340 256 917 323 1141 346
1176 91 132 128 254 135 436 8 203 -11 315 -91 531 -47 126 -58 144 -152 255
-123 146 -221 212 -372 251 -106 27 -224 24 -502 -11 -129 -16 -250 -30 -268
-30 -18 0 -67 18 -112 40 l-79 40 -1598 155 -1598 154 -777 121 c-772 119
-827 125 -974 110z m7153 -7910 l68 -32 -75 -35 c-121 -56 -189 -33 -190 66
l0 44 64 -5 c44 -4 87 -16 133 -38z m193 -159 c0 -9 -116 -60 -170 -76 -52
-15 -1 19 78 51 87 36 92 38 92 25z"/>
<path d="M7295 7921 c-11 -5 -27 -20 -34 -34 -12 -23 -12 -29 2 -51 13 -20 36
-29 127 -50 61 -14 112 -26 114 -26 13 0 24 63 15 89 -11 33 -35 44 -124 62
-33 6 -64 13 -70 15 -5 1 -19 -1 -30 -5z"/>
<path d="M1913 7527 c-24 -7 -50 -22 -58 -34 -14 -21 -14 -24 4 -42 24 -24 -2
-20 636 -91 297 -33 596 -66 665 -75 336 -40 735 -45 1020 -11 134 16 175 27
230 61 55 35 73 60 61 83 -22 41 -56 45 -248 26 -217 -21 -777 -25 -983 -6
-422 39 -1195 102 -1237 101 -26 -1 -67 -6 -90 -12z"/>
<path d="M837 6773 c-4 -3 -7 -11 -7 -17 0 -6 5 -5 12 2 6 6 9 14 7 17 -3 3
-9 2 -12 -2z"/>
<path d="M6082 4497 l-41 -42 -1 -215 c0 -126 10 -404 26 -670 22 -389 29
-459 43 -480 21 -30 71 -38 94 -16 36 37 48 192 21 291 -11 43 -17 116 -19
255 -2 180 -18 335 -44 450 -15 62 -13 222 3 304 10 53 11 77 1 108 -18 61
-35 64 -83 15z"/>
<path d="M6137 2060 c-24 -19 -27 -28 -27 -78 0 -45 7 -68 30 -109 50 -87 107
-103 201 -55 55 27 79 62 66 95 -5 14 -199 151 -230 163 -8 3 -25 -5 -40 -16z"/>
</g>
</svg>
