<?xml version="1.0" standalone="no"?>
<!DOCTYPE svg PUBLIC "-//W3C//DTD SVG 20010904//EN"
 "http://www.w3.org/TR/2001/REC-SVG-20010904/DTD/svg10.dtd">
<svg version="1.0" xmlns="http://www.w3.org/2000/svg"
 width="1024.000000pt" height="1024.000000pt" viewBox="0 0 1024.000000 1024.000000"
 preserveAspectRatio="xMidYMid meet">
<metadata>
Created by potrace 1.10, written by Peter Selinger 2001-2011
</metadata>
<g transform="translate(0.000000,1024.000000) scale(0.100000,-0.100000)"
fill="#000000" stroke="none">
<path d="M5420 9330 c-609 -48 -1093 -176 -1598 -425 -300 -147 -443 -260
-604 -475 -91 -123 -115 -176 -142 -320 -32 -169 -31 -220 9 -425 l37 -190 68
-90 c97 -129 215 -237 370 -340 74 -50 140 -101 146 -113 7 -13 16 -28 21 -33
5 -5 275 -59 601 -119 485 -90 608 -110 686 -110 l94 0 13 -117 c13 -119 9
-298 -22 -1023 -9 -194 -8 -350 2 -651 14 -444 8 -907 -16 -1184 -30 -360 -94
-900 -114 -967 -22 -75 -17 -157 13 -213 9 -16 16 -49 16 -73 l0 -44 -32 7
c-56 13 -278 85 -403 132 -154 58 -446 201 -599 293 -271 163 -517 353 -735
565 -210 205 -280 292 -460 573 -198 309 -252 432 -332 757 -53 215 -68 361
-87 795 -19 459 -21 651 -8 861 9 146 8 147 -18 204 -48 106 -114 142 -170 90
l-26 -24 1 -253 c0 -139 4 -487 9 -773 12 -701 12 -704 178 -1192 l110 -322
137 -233 c160 -271 210 -334 459 -583 275 -275 505 -455 844 -662 194 -117
281 -155 707 -302 664 -229 1637 -598 2150 -816 55 -23 163 -68 240 -100 413
-170 798 -403 1122 -679 l72 -61 0 -80 c1 -44 5 -96 11 -114 11 -39 51 -86 92
-107 33 -17 100 -18 116 -2 16 16 16 292 1 339 -8 22 -63 86 -158 182 -141
143 -153 152 -336 266 -238 148 -346 208 -671 368 -400 199 -575 271 -1335
553 l-705 262 13 77 c8 42 20 150 28 241 7 91 22 239 34 330 48 387 71 780 71
1241 0 179 3 361 7 403 l6 77 31 -29 c66 -63 84 -67 276 -67 142 0 197 5 289
23 158 32 303 81 457 157 372 181 590 401 734 740 95 223 129 356 170 661 31
234 29 275 -15 350 -14 23 -41 52 -60 64 -34 21 -37 21 -61 5 -14 -9 -29 -27
-35 -41 -21 -56 -40 -205 -40 -319 0 -105 -4 -136 -35 -250 -84 -311 -121
-404 -221 -554 -191 -285 -574 -534 -933 -607 -75 -15 -101 -16 -220 -6 -74 7
-153 17 -175 23 -50 14 -111 6 -137 -18 l-20 -18 7 640 c4 352 10 770 14 930
l6 290 265 57 c387 84 392 85 550 145 321 122 686 326 915 510 239 193 376
541 336 848 -10 74 -24 117 -78 240 -72 166 -105 215 -220 326 -222 216 -526
363 -923 448 -229 50 -545 70 -790 51z m395 -220 c259 -10 290 -13 410 -42 72
-17 204 -59 293 -94 229 -88 358 -171 522 -336 69 -70 92 -100 100 -132 6 -22
24 -78 41 -124 27 -77 29 -94 29 -222 0 -104 -5 -165 -21 -239 l-22 -101 -131
-128 c-211 -205 -394 -337 -645 -466 -359 -183 -707 -276 -1101 -292 -116 -5
-241 1 -625 30 -264 20 -505 42 -535 48 -82 16 -242 74 -339 123 -121 60 -238
149 -362 275 -98 99 -108 112 -118 161 -7 30 -20 68 -30 85 -26 44 -45 213
-31 283 5 29 10 82 10 116 l0 62 91 126 c218 303 528 513 974 659 264 86 622
166 890 197 50 6 101 13 115 15 52 7 214 6 485 -4z"/>
<path d="M6096 3790 c3 -19 10 -39 15 -44 14 -15 10 15 -6 49 l-15 30 6 -35z"/>
</g>
</svg>
