<?xml version="1.0" standalone="no"?>
<!DOCTYPE svg PUBLIC "-//W3C//DTD SVG 20010904//EN"
 "http://www.w3.org/TR/2001/REC-SVG-20010904/DTD/svg10.dtd">
<svg version="1.0" xmlns="http://www.w3.org/2000/svg"
 width="1024.000000pt" height="1024.000000pt" viewBox="0 0 1024.000000 1024.000000"
 preserveAspectRatio="xMidYMid meet">
<metadata>
Created by potrace 1.10, written by Peter Selinger 2001-2011
</metadata>
<g transform="translate(0.000000,1024.000000) scale(0.100000,-0.100000)"
fill="#000000" stroke="none">
<path d="M4715 8723 c-44 -12 -45 -21 -12 -91 17 -37 44 -89 60 -115 114 -187
87 -375 -145 -1010 -343 -942 -741 -1744 -1241 -2500 -121 -182 -124 -189
-107 -209 23 -29 56 -19 127 41 172 143 475 522 807 1011 115 168 214 311 221
319 11 11 22 9 71 -13 57 -25 363 -96 413 -96 14 0 455 67 980 150 1137 178
1240 201 1327 285 41 40 53 59 59 93 6 40 4 47 -24 76 -48 50 -165 103 -323
148 -174 49 -189 47 -346 -27 -189 -88 -494 -177 -922 -269 -158 -34 -1129
-181 -1137 -172 -2 2 37 78 87 167 181 328 485 949 582 1193 51 129 101 228
148 294 21 29 51 87 66 128 25 68 26 78 14 117 -19 63 -72 136 -161 221 -91
87 -249 195 -340 232 -60 24 -164 38 -204 27z"/>
<path d="M5685 6105 c-27 -19 -51 -39 -53 -43 -1 -4 25 -43 59 -87 75 -98 127
-198 140 -272 21 -110 -32 -353 -162 -749 -45 -139 -137 -372 -261 -666 -104
-249 -192 -455 -195 -458 -3 -3 -24 17 -46 45 -303 362 -812 901 -997 1056
-64 54 -264 179 -286 179 -27 0 -75 -30 -68 -43 34 -58 85 -117 207 -239 239
-238 381 -415 712 -886 168 -238 305 -438 305 -444 0 -25 -247 -435 -325 -539
-270 -361 -614 -704 -993 -992 -255 -194 -606 -409 -1012 -621 -127 -66 -140
-75 -122 -85 125 -67 728 186 1227 514 507 333 979 787 1342 1287 59 82 110
145 114 140 4 -4 268 -380 587 -837 560 -801 584 -834 694 -942 l114 -112 54
5 c30 3 226 16 435 29 374 24 495 40 615 80 73 24 79 44 33 96 -56 62 -168
144 -348 254 -343 210 -628 418 -930 677 -89 76 -1042 1064 -1038 1077 1 3 25
47 53 96 72 123 267 515 346 693 197 441 535 1377 520 1437 -10 38 -69 99
-144 148 -154 101 -408 221 -489 232 -32 4 -46 -1 -88 -30z"/>
</g>
</svg>
