<?xml version="1.0" standalone="no"?>
<!DOCTYPE svg PUBLIC "-//W3C//DTD SVG 20010904//EN"
 "http://www.w3.org/TR/2001/REC-SVG-20010904/DTD/svg10.dtd">
<svg version="1.0" xmlns="http://www.w3.org/2000/svg"
 width="1024.000000pt" height="1024.000000pt" viewBox="0 0 1024.000000 1024.000000"
 preserveAspectRatio="xMidYMid meet">
<metadata>
Created by potrace 1.10, written by Peter Selinger 2001-2011
</metadata>
<g transform="translate(0.000000,1024.000000) scale(0.100000,-0.100000)"
fill="#000000" stroke="none">
<path d="M4171 8985 c-52 -45 -55 -67 -47 -430 28 -1424 28 -1438 15 -1637
l-12 -198 -223 0 c-216 0 -232 -2 -597 -54 -220 -32 -387 -61 -405 -70 -54
-28 -75 -64 -69 -120 5 -56 24 -76 71 -75 17 0 189 13 381 28 l350 29 900 -60
900 -60 230 -80 c126 -44 241 -90 256 -101 148 -121 199 -170 199 -191 0 -12
11 -37 24 -54 13 -18 38 -83 56 -146 l32 -114 -21 -288 c-12 -159 -29 -332
-37 -384 -18 -107 -59 -222 -105 -295 -63 -100 -252 -346 -263 -342 -6 3 -65
42 -131 88 -373 258 -596 408 -641 431 -244 126 -555 220 -842 253 -223 26
-268 22 -662 -55 -325 -64 -357 -72 -377 -95 -27 -31 -31 -91 -8 -135 22 -43
62 -47 170 -17 256 70 347 82 635 82 266 -1 330 -8 546 -65 239 -63 469 -171
784 -368 86 -54 342 -233 373 -262 9 -8 -364 -299 -466 -364 -93 -60 -293
-159 -422 -210 -161 -63 -1448 -442 -1605 -472 -68 -13 -136 -24 -150 -24 -50
-1 -110 -37 -126 -76 -18 -44 -12 -94 15 -118 18 -17 37 -15 358 34 534 81
1086 225 1445 376 390 165 731 369 1052 632 l78 64 75 -73 c147 -145 306 -354
428 -562 186 -319 361 -790 445 -1200 26 -128 217 -1345 223 -1423 6 -75 27
-117 65 -133 41 -17 115 -5 141 23 l20 22 -89 664 c-112 827 -147 1005 -285
1416 -193 573 -428 967 -794 1328 l-80 79 79 84 c90 95 175 218 224 324 112
242 170 603 164 1010 l-3 214 -32 60 c-17 33 -34 79 -38 101 -8 55 -55 151
-93 195 -17 20 -100 81 -184 137 -169 112 -224 135 -508 212 -319 86 -513 117
-938 152 -155 12 -287 25 -293 29 -10 6 8 1097 18 1109 4 4 751 -33 1318 -66
320 -19 355 -17 396 22 35 34 64 120 54 165 -14 61 1 59 -673 91 -480 23 -671
28 -860 24 l-243 -6 2 404 3 403 -28 57 c-31 62 -79 106 -119 106 -14 0 -39
-11 -56 -25z"/>
<path d="M6020 3644 c0 -24 22 -84 30 -84 6 0 2 19 -7 43 -18 46 -23 55 -23
41z"/>
</g>
</svg>
