<?xml version="1.0" standalone="no"?>
<!DOCTYPE svg PUBLIC "-//W3C//DTD SVG 20010904//EN"
 "http://www.w3.org/TR/2001/REC-SVG-20010904/DTD/svg10.dtd">
<svg version="1.0" xmlns="http://www.w3.org/2000/svg"
 width="60.000000pt" height="60.000000pt" viewBox="0 0 60.000000 60.000000"
 preserveAspectRatio="xMidYMid meet">
<metadata>
Created by potrace 1.10, written by Peter Selinger 2001-2011
</metadata>
<g transform="translate(0.000000,60.000000) scale(0.100000,-0.100000)"
fill="#000000" stroke="none">
<path d="M279 501 c6 -11 11 -67 11 -125 l0 -106 -71 0 c-56 0 -69 -3 -61 -12
5 -7 15 -47 22 -88 7 -41 14 -78 16 -82 3 -4 17 0 32 8 15 7 52 14 82 15 30 0
71 3 90 7 32 6 35 10 36 43 1 20 8 51 17 69 25 50 11 60 -74 53 l-69 -6 0 56
0 56 48 6 c67 9 83 15 76 26 -6 10 -61 5 -107 -8 -17 -4 -19 0 -15 49 3 49 1
53 -20 56 -21 3 -22 1 -13 -17z m141 -263 c0 -13 -5 -39 -10 -59 -10 -34 -13
-37 -63 -43 -28 -3 -71 -6 -93 -6 l-41 0 -7 46 c-3 26 -6 53 -6 60 0 13 37 18
163 22 53 2 57 0 57 -20z"/>
</g>
</svg>
