<?xml version="1.0" standalone="no"?>
<!DOCTYPE svg PUBLIC "-//W3C//DTD SVG 20010904//EN"
 "http://www.w3.org/TR/2001/REC-SVG-20010904/DTD/svg10.dtd">
<svg version="1.0" xmlns="http://www.w3.org/2000/svg"
 width="480.000000pt" height="480.000000pt" viewBox="0 0 480.000000 480.000000"
 preserveAspectRatio="xMidYMid meet">
<metadata>
Created by potrace 1.11, written by Peter Selinger 2001-2013
</metadata>
<g transform="translate(0.000000,480.000000) scale(0.100000,-0.100000)"
fill="#000000" stroke="none">
<path d="M2395 4645 c-92 -21 -152 -64 -205 -147 -37 -57 -44 -79 -55 -182 -3
-27 -7 -51 -9 -55 -2 -3 -7 -33 -10 -66 -4 -33 -9 -68 -12 -78 -10 -33 19
-171 47 -222 15 -28 29 -63 31 -79 3 -27 0 -30 -58 -46 -135 -39 -321 -137
-445 -236 l-66 -53 -49 51 c-27 27 -66 59 -87 69 -105 55 -303 75 -413 43 -30
-8 -75 -31 -101 -50 -55 -39 -77 -50 -115 -58 -48 -11 -56 -28 -58 -129 -1
-50 -2 -105 -3 -122 l-2 -30 55 3 c30 1 110 21 177 43 114 38 123 39 151 25
60 -31 123 -119 157 -219 13 -39 13 -49 0 -86 -8 -23 -21 -79 -29 -124 -8 -45
-22 -113 -30 -152 -8 -38 -17 -108 -20 -155 -25 -381 -24 -472 9 -660 27 -159
52 -272 80 -349 8 -25 12 -48 8 -51 -5 -4 -64 -21 -133 -39 -170 -44 -201 -59
-239 -115 -79 -115 -103 -212 -104 -416 0 -118 4 -161 22 -233 20 -76 21 -95
11 -136 -17 -71 -55 -140 -106 -192 -36 -37 -45 -52 -42 -74 4 -40 45 -50 88
-23 32 19 32 19 47 -1 15 -23 57 -28 69 -10 5 8 30 10 79 6 l73 -7 26 39 c32
46 42 97 27 143 -9 27 -7 47 10 108 24 88 26 195 6 290 -15 70 -8 95 23 85 9
-3 56 3 103 14 68 16 104 33 183 82 95 60 99 61 123 46 204 -125 403 -187 604
-187 76 0 78 -1 71 -22 -6 -21 -6 -227 0 -278 2 -14 7 -101 11 -194 4 -93 9
-176 10 -185 2 -9 4 -49 4 -88 1 -59 5 -77 21 -93 12 -12 24 -19 29 -16 16 10
31 119 51 366 12 140 23 266 25 280 2 14 7 70 10 125 4 55 10 103 14 107 3 3
44 14 90 23 236 47 431 149 624 323 67 60 106 87 162 111 141 59 228 78 385
85 200 9 290 17 317 27 13 5 27 8 31 7 4 -1 32 2 61 6 40 6 63 16 83 37 l29
28 -4 138 c-4 113 -1 149 14 205 11 37 19 75 19 83 0 19 -35 55 -54 55 -19 0
-113 -86 -121 -110 -5 -17 -16 -20 -68 -20 -42 0 -74 6 -97 19 -50 26 -262 37
-321 16 -23 -8 -45 -15 -49 -15 -3 0 -7 53 -8 118 -2 127 -11 220 -42 442 -27
199 -57 315 -138 536 -88 242 -86 233 -56 246 13 6 24 16 24 21 0 5 15 24 33
41 81 78 158 199 196 308 10 30 22 97 26 149 3 52 12 153 20 224 7 72 13 148
12 170 -3 106 1 124 33 140 36 18 43 65 11 65 -11 0 -21 5 -23 11 -3 10 -29
16 -87 23 -14 1 -27 8 -29 14 -7 21 -31 13 -46 -15 -8 -16 -57 -67 -108 -114
-141 -131 -182 -210 -192 -367 -3 -51 -13 -119 -21 -150 -19 -69 -55 -152 -66
-152 -5 0 -16 11 -25 25 -21 32 -137 116 -189 138 -22 9 -74 21 -115 27 -97
15 -107 18 -114 35 -3 8 6 65 20 127 34 148 35 303 5 398 -31 97 -101 221
-136 242 -40 23 -89 27 -150 13z m170 -138 c30 -51 55 -100 55 -108 0 -8 4
-19 9 -24 13 -13 30 -156 25 -198 -8 -55 -35 -211 -39 -225 -4 -10 -14 -6 -37
12 -48 36 -84 47 -166 53 -89 5 -135 -8 -184 -54 l-36 -35 -13 23 c-26 47 -9
382 24 457 51 119 148 191 259 192 l47 0 56 -93z m997 -195 c18 -30 27 -189
14 -242 -3 -14 -10 -95 -16 -180 -6 -85 -16 -173 -22 -194 -23 -92 -219 -375
-260 -376 -3 0 -19 37 -34 83 -16 49 -43 103 -67 135 l-40 53 21 37 c31 56 72
219 72 287 0 108 33 191 111 280 61 70 145 136 164 129 7 -3 16 -1 20 5 10 17
20 13 37 -17z m-1046 -373 c19 -12 33 -23 31 -25 -2 -2 -38 3 -80 11 -83 18
-131 11 -194 -25 -36 -21 -41 -16 -18 17 19 26 55 39 125 42 30 2 57 4 58 6 8
7 45 -5 78 -26z m-34 -71 l53 -12 -105 -17 c-58 -10 -121 -21 -140 -24 l-35
-6 23 23 c22 22 84 45 129 47 12 1 46 -4 75 -11z m286 -92 c35 -9 95 -31 135
-50 69 -32 84 -46 187 -160 l35 -38 -85 42 c-47 23 -93 49 -103 58 -36 32
-163 73 -276 89 -107 16 -126 16 -281 0 l-166 -16 -149 -72 c-82 -39 -154 -77
-160 -83 -5 -7 -26 -19 -45 -26 -69 -26 -206 -110 -280 -172 -73 -61 -74 -62
-41 -19 54 68 188 180 297 247 160 99 308 157 508 200 94 20 131 23 236 20 69
-3 153 -12 188 -20z m-118 -131 c123 -9 183 -28 294 -91 103 -59 130 -85 162
-153 13 -30 36 -70 49 -87 14 -18 25 -36 25 -41 0 -4 -19 -24 -42 -43 -59 -52
-31 -85 35 -41 16 10 37 17 47 14 22 -6 131 -281 165 -418 27 -108 101 -563
93 -571 -4 -3 -39 6 -80 21 -90 32 -222 65 -265 65 l-32 0 6 133 c12 271 -48
567 -149 736 -21 34 -38 65 -38 68 0 2 35 37 78 78 52 50 74 77 67 84 -7 7
-38 -12 -100 -59 -58 -45 -95 -68 -105 -63 -114 50 -220 66 -467 72 l-43 1 0
119 c0 93 3 121 15 131 8 7 15 21 15 31 0 28 38 30 270 14z m-341 -37 c-5 -18
-9 -83 -9 -144 l0 -110 -42 0 c-39 1 -43 -2 -46 -24 -3 -26 -39 -47 -257 -151
-83 -40 -169 -120 -180 -167 -3 -18 -9 -32 -12 -32 -13 0 -134 95 -178 139
-53 55 -65 60 -85 35 -11 -13 -3 -25 57 -82 38 -37 98 -83 132 -101 57 -30 62
-36 57 -60 -35 -160 -38 -209 -31 -426 3 -121 8 -254 10 -295 2 -41 7 -142 10
-225 5 -127 24 -270 39 -294 2 -3 -53 -21 -122 -39 -70 -18 -153 -41 -185 -51
-41 -13 -60 -15 -63 -7 -18 51 -104 429 -112 492 -21 162 -4 405 52 735 25
150 46 213 103 309 44 74 84 115 200 203 105 79 150 105 278 158 44 18 100 45
125 59 25 14 53 29 63 33 9 4 21 17 26 29 7 19 20 25 77 34 109 18 104 19 93
-18z m-896 -47 c41 -16 95 -44 119 -62 23 -19 45 -35 47 -36 2 -1 -23 -32 -56
-68 -64 -71 -118 -154 -138 -212 l-13 -38 -28 58 c-15 32 -46 79 -69 104 l-41
46 -106 4 c-95 4 -113 2 -177 -21 -40 -14 -75 -26 -79 -26 -3 0 9 16 28 35 31
32 33 38 22 56 -8 12 -11 33 -7 49 4 17 2 31 -5 35 -15 9 15 30 100 72 63 31
69 32 197 32 122 1 137 -1 206 -28z m1745 -84 c7 -16 8 -26 3 -23 -5 3 -14 20
-20 38 -13 38 0 26 17 -15z m-529 -207 c205 -22 229 -31 275 -100 14 -22 26
-44 26 -49 0 -6 13 -36 29 -68 30 -59 62 -181 82 -316 10 -65 13 -363 5 -412
-2 -11 -7 -54 -10 -95 -11 -126 -14 -145 -31 -191 -9 -24 -34 -100 -56 -168
-71 -220 -96 -267 -228 -426 -71 -86 -99 -111 -152 -139 -35 -19 -86 -37 -112
-41 -45 -7 -47 -6 -48 16 0 13 -2 33 -5 44 -2 11 -4 59 -5 107 -1 98 -15 132
-40 102 -11 -13 -13 -44 -11 -133 1 -64 5 -124 8 -133 4 -15 0 -15 -56 -2 -75
17 -182 71 -238 119 -47 41 -220 248 -233 280 -5 11 -22 98 -39 192 -30 170
-30 178 -30 515 0 189 5 376 10 415 12 91 55 221 83 252 29 31 94 74 137 91
19 7 46 21 60 31 14 9 72 41 130 70 58 29 106 56 108 60 4 10 121 3 341 -21z
m508 -1014 c21 -8 56 -17 78 -20 22 -3 63 -15 90 -27 28 -12 79 -30 115 -39
l65 -17 3 -117 c1 -65 -1 -116 -6 -116 -5 0 -16 10 -24 22 -13 20 -17 21 -32
9 -9 -7 -16 -19 -16 -25 0 -15 38 -51 63 -59 13 -5 16 -13 11 -34 -23 -106
-77 -219 -97 -206 -7 4 -44 34 -84 66 -67 55 -93 64 -93 33 0 -6 35 -44 79
-82 l78 -71 -92 -111 c-51 -62 -120 -134 -152 -162 l-58 -50 -110 110 c-61 61
-115 110 -121 110 -6 0 13 47 43 105 76 147 160 392 189 550 13 72 24 133 24
138 0 10 4 9 47 -7z m1045 -358 c-15 -48 -21 -173 -13 -243 7 -53 5 -61 -13
-77 -12 -10 -31 -17 -43 -18 -12 0 -34 -5 -50 -11 -15 -6 -147 -21 -293 -35
-215 -19 -279 -28 -339 -49 -41 -14 -76 -23 -78 -22 -1 2 22 39 53 83 77 110
103 164 123 258 l17 81 94 33 c121 41 171 38 278 -14 68 -33 81 -36 135 -31
54 5 62 9 94 47 40 47 49 46 35 -2z m-2381 -298 c11 -6 33 -35 49 -64 28 -49
135 -161 208 -216 l32 -25 -154 -107 c-85 -60 -159 -108 -166 -108 -23 0 -87
40 -131 82 -58 54 -101 122 -167 261 l-51 107 27 0 c19 0 280 63 330 79 2 1
12 -4 23 -9z m-403 -162 c12 -24 40 -83 62 -132 22 -49 51 -104 65 -122 l24
-32 -63 -42 c-82 -53 -193 -99 -257 -107 -27 -3 -52 -9 -54 -14 -3 -4 -28 -1
-57 6 -28 8 -55 12 -60 9 -16 -10 -7 -30 22 -47 37 -22 39 -39 4 -35 -44 5
-40 -21 5 -39 l40 -16 8 -71 c10 -94 6 -138 -18 -198 -22 -56 -24 -98 -7 -144
6 -18 8 -39 3 -50 -8 -18 -9 -17 -12 4 -6 29 -38 29 -55 -1 l-12 -22 -6 25
c-4 16 -13 25 -26 25 -10 1 -24 4 -31 8 -16 10 -52 -5 -94 -39 -33 -27 -33
-27 -11 -2 35 39 82 169 83 230 0 29 -7 87 -16 128 -9 41 -18 127 -20 190 -6
219 57 389 166 446 21 11 262 80 290 83 3 1 16 -18 27 -41z m1488 -93 c36 -41
76 -74 106 -88 26 -12 47 -24 47 -27 0 -12 -102 -79 -194 -126 -110 -57 -229
-98 -317 -109 l-58 -7 0 103 0 104 88 42 c97 47 111 58 197 157 58 66 60 67
66 42 4 -14 33 -55 65 -91z m-601 -131 c33 -7 77 -14 97 -14 20 0 39 -4 42 -8
3 -5 1 -46 -4 -93 -5 -51 -4 -91 1 -101 9 -16 3 -18 -68 -19 -43 -1 -107 -3
-143 -3 -64 -2 -278 37 -352 64 l-37 14 142 92 c78 51 149 99 157 106 13 12
21 12 60 -5 25 -10 72 -25 105 -33z m95 -409 c-4 -49 -11 -126 -14 -170 -4
-43 -9 -81 -11 -84 -3 -2 -5 75 -5 172 0 131 3 176 13 180 22 8 25 -7 17 -98z"/>
<path d="M2488 4509 c-10 -5 -18 -18 -18 -27 0 -10 -5 -23 -12 -30 -17 -17 3
-34 36 -30 15 2 26 5 26 8 -1 3 4 18 10 34 8 21 7 32 -1 42 -13 16 -18 17 -41
3z"/>
<path d="M2277 4463 c-14 -13 -7 -60 11 -76 41 -37 61 -11 37 46 -14 35 -33
46 -48 30z"/>
<path d="M2705 3159 c-44 -44 -92 -87 -108 -95 -15 -8 -68 -44 -119 -79 -50
-36 -101 -65 -111 -65 -19 0 -20 6 -14 110 5 97 3 112 -13 132 -37 45 -42 15
-38 -208 l3 -209 -28 -22 c-16 -12 -60 -52 -99 -89 l-70 -67 -24 -211 c-27
-240 -28 -296 -10 -416 l13 -85 -108 -52 c-59 -28 -110 -57 -114 -62 -14 -23
83 -12 121 14 20 14 52 29 72 35 32 8 39 7 72 -23 91 -79 255 -197 274 -197 3
0 6 7 6 17 0 32 -49 80 -153 148 -95 63 -107 74 -116 110 -30 112 -39 294 -21
398 4 23 11 67 14 97 3 30 11 90 17 133 l11 78 65 57 c35 31 68 58 73 60 5 2
9 -90 10 -205 1 -206 3 -243 15 -377 8 -89 19 -116 46 -116 24 0 24 1 -5 190
-8 53 -14 199 -15 391 l-2 305 39 12 c21 7 106 62 188 123 218 163 276 225
228 243 -9 3 -16 6 -18 6 -1 0 -37 -36 -81 -81z"/>
<path d="M2215 2860 c-34 -8 -203 -110 -249 -151 -24 -21 -28 -30 -19 -40 18
-18 57 -3 107 40 40 35 113 75 199 109 54 22 24 55 -38 42z"/>
<path d="M2389 2759 c-10 -6 -10 -13 0 -35 20 -44 119 -180 176 -242 28 -31
58 -68 65 -82 15 -28 27 -138 36 -352 6 -125 4 -152 -10 -182 -23 -48 -86
-128 -169 -212 -67 -69 -77 -94 -38 -94 21 0 143 124 189 192 46 68 55 70 119
37 64 -34 83 -36 83 -11 0 12 -14 25 -37 36 -84 38 -82 31 -88 221 -8 259 -15
335 -31 374 -15 35 -14 36 13 58 15 13 31 23 34 23 3 0 21 18 39 41 25 32 30
43 19 49 -17 11 -61 -12 -113 -61 l-43 -38 -35 37 c-19 20 -55 66 -78 102 -61
91 -115 149 -131 139z"/>
<path d="M1776 2483 c-8 -20 3 -21 162 -27 l143 -5 -3 22 c-3 22 -6 22 -150
23 -116 0 -148 -2 -152 -13z"/>
</g>
</svg>
