<?xml version="1.0" standalone="no"?>
<!DOCTYPE svg PUBLIC "-//W3C//DTD SVG 20010904//EN"
 "http://www.w3.org/TR/2001/REC-SVG-20010904/DTD/svg10.dtd">
<svg version="1.0" xmlns="http://www.w3.org/2000/svg"
 width="1024.000000pt" height="1024.000000pt" viewBox="0 0 1024.000000 1024.000000"
 preserveAspectRatio="xMidYMid meet">
<metadata>
Created by potrace 1.10, written by Peter Selinger 2001-2011
</metadata>
<g transform="translate(0.000000,1024.000000) scale(0.100000,-0.100000)"
fill="#000000" stroke="none">
<path d="M4204 9856 c-17 -8 -40 -24 -51 -35 -20 -21 -21 -21 -56 -5 l-36 17
-112 -73 c-102 -68 -128 -93 -321 -302 -115 -125 -212 -228 -217 -228 -14 0
-124 82 -316 235 -190 151 -191 152 -224 140 -41 -13 -81 -58 -81 -89 0 -52
135 -218 256 -315 42 -34 110 -81 151 -104 l74 -42 -6 -38 c-10 -68 40 -147
93 -147 16 0 46 13 68 29 21 16 190 188 374 383 309 327 335 352 341 329 4
-14 9 -97 12 -183 l6 -158 -25 0 c-14 0 -35 -10 -47 -23 -12 -12 -168 -176
-346 -365 -177 -188 -328 -342 -334 -342 -15 0 -150 75 -222 123 -79 53 -143
107 -299 252 -203 188 -211 197 -226 244 -13 39 -12 54 9 157 16 78 21 127 17
156 -18 114 -127 205 -181 152 -70 -71 -107 -280 -65 -372 20 -43 20 -44 -2
-265 l-22 -222 38 -1750 c21 -962 36 -1812 34 -1888 l-3 -139 -360 -132 c-198
-73 -371 -138 -385 -146 -55 -29 -100 -73 -124 -122 -54 -108 -27 -182 124
-346 106 -114 108 -117 90 -137 -32 -36 -78 -129 -101 -205 -36 -116 -32 -228
14 -409 l37 -143 -45 -50 c-63 -70 -87 -140 -93 -267 -10 -220 51 -416 166
-534 l57 -57 -3 -103 c-5 -168 32 -268 140 -375 l60 -60 -16 -30 c-9 -17 -23
-59 -31 -94 -40 -169 4 -300 147 -434 103 -97 196 -134 337 -134 l90 0 5 -322
c3 -178 5 -359 5 -404 l0 -80 43 -40 c31 -28 70 -50 130 -72 147 -53 229 -65
407 -59 152 4 168 7 616 105 l460 100 120 67 c66 37 128 74 137 83 16 13 23
13 69 -7 113 -47 113 -46 134 314 18 312 16 460 -8 735 -9 96 -14 176 -13 177
2 2 23 -4 47 -13 31 -11 177 -25 484 -46 437 -31 441 -31 560 -14 265 38 537
115 647 185 36 23 76 41 88 41 13 0 73 -9 134 -20 104 -19 2338 -210 2457
-210 63 0 84 11 98 51 12 35 -1 75 -29 90 -8 5 -512 58 -1120 119 -608 61
-1127 114 -1155 120 -27 5 -93 14 -145 20 -52 7 -111 19 -130 27 -53 24 -113
28 -129 9 -10 -11 -18 -13 -31 -6 -14 7 -53 -5 -164 -50 -110 -45 -169 -63
-243 -75 -54 -8 -150 -26 -213 -39 -188 -40 -300 -49 -548 -43 -228 5 -330 18
-505 62 -55 14 -73 15 -94 6 -14 -6 -27 -10 -28 -9 -4 5 -86 1880 -83 1884 7
6 331 45 343 40 7 -2 18 -41 25 -85 14 -90 42 -156 119 -281 191 -307 479
-557 807 -699 54 -24 141 -66 192 -93 l92 -49 0 53 c0 33 10 76 25 112 13 33
23 61 22 62 -1 1 -36 16 -77 32 -358 142 -613 341 -813 635 -26 38 -47 77 -47
89 0 11 -22 57 -49 103 -31 53 -52 103 -58 137 -9 52 -8 56 24 104 58 85 39
160 -43 171 -23 3 -73 -2 -112 -11 -139 -32 -309 -56 -470 -68 -292 -21 -612
18 -904 110 -32 10 -61 21 -65 26 -4 4 -8 45 -8 91 0 79 -2 85 -30 115 -50 53
-73 60 -121 40 -50 -22 -81 -59 -94 -114 -6 -22 -21 -64 -34 -92 -24 -50 -26
-51 -138 -101 -95 -42 -134 -54 -243 -71 -110 -17 -148 -19 -245 -11 -63 5
-170 12 -238 17 l-123 7 168 98 c185 107 217 138 254 244 31 90 21 200 -27
294 l-23 46 74 37 c143 72 334 126 510 145 55 6 550 43 1100 81 550 39 1019
73 1043 76 l43 5 -40 44 c-36 39 -41 50 -41 93 0 26 5 53 12 60 6 6 9 14 7 17
-3 2 -203 -9 -444 -25 -241 -16 -440 -29 -441 -27 -1 1 -5 48 -9 105 -5 68 -4
102 3 102 5 0 214 26 463 57 390 50 477 58 619 58 l165 0 61 -32 c33 -17 159
-111 280 -208 183 -147 288 -244 639 -589 231 -227 436 -421 454 -431 30 -15
126 -21 792 -47 417 -17 770 -28 784 -24 15 4 40 20 56 36 24 24 29 37 29 80
0 41 -5 56 -26 77 -24 24 -30 25 -97 20 -307 -25 -407 -29 -672 -24 -288 6
-389 13 -611 45 l-115 17 -227 210 c-125 116 -270 255 -322 310 -293 309 -761
708 -888 758 -30 12 -114 22 -280 34 l-237 17 -409 -73 c-225 -40 -423 -79
-441 -87 l-32 -13 -6 92 c-18 254 -29 756 -38 1667 -5 553 -14 1046 -18 1095
-5 50 -12 144 -16 210 -3 66 -15 159 -26 206 -15 69 -19 130 -20 320 -1 154 2
255 10 295 20 96 -14 180 -90 219 -34 18 -55 18 -95 1z m-25 -966 c9 -54 31
-290 31 -334 0 -8 -10 -16 -23 -19 -13 -4 -48 -43 -88 -99 -135 -189 -339
-421 -514 -583 l-106 -99 -47 13 c-126 33 -326 135 -413 210 -22 18 -57 59
-79 90 -91 135 -191 182 -256 120 l-22 -20 -7 316 c-4 174 -5 318 -3 320 3 3
56 -43 119 -101 138 -129 249 -212 374 -283 l95 -53 -31 -43 c-42 -58 -49
-119 -20 -178 l21 -44 68 -6 67 -6 48 52 c26 29 65 86 87 127 34 67 73 110
354 395 244 247 318 317 325 305 5 -8 13 -44 20 -80z m-242 -1253 c-258 -254
-330 -319 -495 -446 l-194 -147 -201 75 c-111 42 -224 89 -250 105 -29 17 -64
29 -86 30 l-39 1 -4 405 c-2 223 -4 406 -3 408 1 1 19 -26 40 -60 49 -78 171
-207 251 -264 68 -48 233 -130 283 -140 17 -4 31 -12 31 -19 0 -23 -23 -77
-55 -131 -18 -30 -41 -84 -51 -120 -17 -65 -17 -66 4 -109 39 -81 99 -74 190
23 65 70 112 149 112 189 0 17 99 124 378 404 l377 381 7 -143 6 -144 -301
-298z m303 -217 c0 -185 -1 -190 -19 -180 -49 26 -106 -2 -140 -68 -10 -21
-37 -75 -60 -121 -116 -233 -442 -598 -804 -900 -17 -14 -18 -14 -12 10 15 59
4 67 -261 178 -137 58 -250 105 -250 105 -1 1 -5 130 -9 288 l-7 287 148 -58
c82 -32 157 -61 167 -64 16 -6 15 -11 -13 -52 -17 -25 -36 -59 -42 -75 -21
-62 33 -120 100 -107 94 19 194 71 323 169 248 187 574 473 799 702 41 42 76
76 77 76 2 0 3 -86 3 -190z m-10 -721 c0 -245 -1 -261 -17 -254 -67 29 -100
13 -123 -60 -23 -73 -86 -199 -135 -270 -26 -38 -176 -211 -333 -385 -157
-173 -287 -316 -288 -318 -1 -2 -22 7 -46 19 -23 13 -164 66 -313 119 l-270
95 -6 115 c-4 63 -7 188 -8 277 l-1 161 161 -69 c88 -38 172 -69 186 -69 l25
0 -32 -37 c-30 -34 -32 -40 -28 -94 5 -72 26 -99 77 -99 51 0 317 165 440 273
235 206 491 509 656 776 28 44 51 81 53 81 1 0 2 -117 2 -261z m35 -979 c13
-206 23 -376 21 -377 -4 -4 -676 -34 -691 -31 -7 2 21 38 67 88 194 206 365
421 503 632 53 81 71 102 73 85 1 -12 13 -191 27 -397z m-1370 -393 c69 -23
182 -48 265 -60 32 -4 21 -8 -110 -40 -58 -13 -152 -42 -210 -64 -70 -27 -107
-36 -111 -29 -11 19 -29 152 -29 216 l0 60 58 -28 c31 -16 93 -41 137 -55z
m-377 -667 c10 -52 9 -56 -20 -92 -81 -103 -242 -201 -355 -218 -32 -4 -80
-14 -107 -21 l-48 -12 -78 84 c-50 54 -75 88 -69 95 21 27 133 75 379 165 302
110 278 110 298 -1z m1015 -586 c50 -19 67 -30 65 -43 -3 -13 -20 -16 -106
-18 -166 -4 -221 -41 -222 -150 -1 -21 -11 -84 -24 -141 -27 -121 -22 -188 23
-267 37 -66 96 -103 192 -119 l74 -12 -80 -31 c-236 -91 -383 -107 -788 -83
-135 8 -209 18 -340 47 -156 35 -171 40 -220 79 -115 90 -183 295 -162 489 7
66 10 71 60 124 l52 55 74 -27 c67 -23 102 -28 354 -43 181 -10 339 -14 447
-10 195 7 231 17 398 114 58 34 112 61 120 61 8 1 45 -11 83 -25z m596 -149
c58 -9 106 -17 108 -19 6 -6 -167 -161 -179 -161 -7 0 -31 47 -55 104 l-42
103 32 -6 c18 -3 79 -13 136 -21z m431 -29 c0 -11 -19 -15 -25 -6 -3 5 1 10 9
10 9 0 16 -2 16 -4z m-953 -131 c71 -36 141 -131 115 -157 -6 -6 -50 -17 -99
-24 -48 -8 -100 -16 -115 -19 -28 -4 -28 -4 -28 49 0 29 3 81 6 115 7 61 7 61
38 61 18 0 55 -11 83 -25z m756 -110 c12 -26 17 -62 17 -129 0 -87 -2 -95 -23
-109 -22 -14 -147 -215 -147 -236 0 -11 -81 -73 -90 -69 -14 6 -170 187 -170
197 0 6 9 11 19 11 35 0 80 48 96 103 14 46 22 57 78 95 35 23 92 72 127 107
36 36 67 65 70 65 4 0 14 -16 23 -35z m-2385 -524 c20 -10 118 -47 217 -81
l180 -62 135 5 c95 4 165 1 235 -10 109 -16 405 -13 480 6 22 5 40 9 42 8 1
-2 -4 -21 -12 -42 -20 -56 -18 -150 5 -215 10 -30 16 -58 12 -61 -4 -3 -116
-18 -250 -32 -134 -15 -251 -31 -260 -36 -12 -7 -24 -4 -44 10 l-27 20 -15
-29 c-16 -32 -76 -55 -114 -46 -16 5 -22 2 -22 -9 0 -16 -9 -19 -124 -38 -86
-14 -206 -7 -266 17 -70 27 -145 81 -191 136 -36 42 -44 61 -56 126 -7 42 -16
114 -20 159 -5 76 -3 87 21 138 15 30 30 55 32 55 3 0 22 -9 42 -19z m1768
-68 c69 -20 69 -20 67 -54 -1 -19 -5 -82 -9 -142 -8 -134 -3 -131 -165 -122
-116 7 -120 8 -144 37 -32 37 -40 69 -29 116 4 20 8 62 8 93 l0 57 85 35 c83
34 87 35 102 17 9 -10 47 -27 85 -37z m663 -299 c1 -74 -1 -82 -21 -93 -13 -6
-57 -53 -98 -102 -65 -79 -76 -88 -85 -72 -5 10 -40 48 -76 84 -66 65 -66 66
-49 90 9 13 29 70 45 125 l28 101 51 22 c28 11 57 21 63 21 7 0 16 6 20 13 4
7 31 31 58 55 l50 42 6 -103 c4 -56 7 -138 8 -183z m-983 -416 c-7 -117 -6
-127 18 -191 14 -37 26 -69 26 -71 0 -2 -118 -6 -262 -10 -145 -4 -299 -11
-343 -17 -53 -7 -117 -7 -190 0 -94 8 -112 7 -122 -6 -24 -30 -168 -44 -244
-23 -53 15 -156 84 -172 117 -8 15 -18 63 -22 105 l-7 78 88 -5 c49 -3 146 -8
216 -11 90 -4 128 -10 132 -19 3 -10 23 -9 98 6 146 30 138 26 138 58 0 48 44
59 325 85 138 13 267 24 289 25 l38 1 -6 -122z m238 87 c11 -8 36 -15 56 -15
20 0 45 7 56 15 13 10 44 14 96 15 76 0 77 0 107 -37 36 -44 38 -60 12 -111
-46 -90 -105 -126 -208 -127 -97 0 -125 20 -134 96 -11 88 -16 179 -10 179 3
0 15 -7 25 -15z m766 -195 c6 -58 13 -124 16 -148 5 -33 3 -41 -7 -37 -9 3
-101 -79 -234 -206 -121 -116 -253 -233 -293 -260 -64 -44 -78 -50 -117 -47
l-45 3 331 403 c182 222 333 402 334 400 2 -2 8 -50 15 -108z m-642 -299 c-40
-57 -201 -231 -209 -226 -5 4 -9 37 -9 75 l0 68 93 50 c98 54 149 67 125 33z
m-711 -96 c93 -8 192 -17 221 -20 l52 -6 0 -42 c0 -50 -30 -104 -64 -117 -13
-5 -25 -13 -27 -18 -6 -14 -107 -75 -175 -105 -76 -33 -214 -67 -277 -67 -27
0 -57 -5 -67 -10 -13 -7 -38 -6 -82 5 -81 19 -78 19 -78 -11 0 -26 0 -26 -57
-19 -109 13 -262 94 -283 150 -8 21 8 122 30 191 l10 30 88 -3 c48 -2 111 -6
140 -9 49 -5 53 -8 59 -35 5 -26 7 -28 22 -15 29 25 135 73 191 86 30 7 62 16
70 20 21 12 39 12 227 -5z m1411 -273 l-3 -53 -280 -116 c-274 -113 -285 -117
-505 -164 -123 -26 -226 -47 -227 -45 -6 6 90 158 104 163 13 5 236 -19 314
-34 22 -4 30 1 45 27 13 20 40 41 79 60 138 66 310 199 406 315 l54 64 8 -82
c4 -45 6 -106 5 -135z m-1218 -239 c0 -10 -12 -26 -26 -36 -21 -16 -30 -17
-60 -7 -42 14 -38 19 24 42 60 21 62 21 62 1z m1230 -62 c0 -27 -344 -212
-500 -269 -302 -112 -653 -157 -900 -118 -74 12 -129 15 -187 10 l-83 -6 0 46
c0 28 4 46 12 46 6 0 63 -10 127 -22 110 -20 125 -21 294 -9 236 15 455 60
752 153 132 41 381 135 432 162 32 18 53 20 53 7z m-3 -378 c-4 -38 -7 -85 -7
-106 0 -35 -2 -37 -20 -27 -17 9 -43 2 -143 -38 -385 -156 -777 -232 -1201
-232 l-199 0 -67 31 -67 31 11 61 c10 52 15 62 31 60 11 -1 107 -14 214 -29
184 -26 201 -27 315 -15 247 25 501 82 756 169 172 58 251 91 317 131 26 16
52 30 57 30 5 1 6 -29 3 -66z"/>
<path d="M4055 5020 c-3 -6 1 -7 9 -4 18 7 21 14 7 14 -6 0 -13 -4 -16 -10z"/>
<path d="M5520 3656 c0 -22 24 -96 31 -96 4 0 1 21 -8 48 -16 47 -23 62 -23
48z"/>
<path d="M7285 3106 c-5 -3 -82 -12 -170 -22 -150 -16 -162 -19 -187 -45 -34
-34 -37 -85 -7 -123 l20 -26 226 0 c243 0 364 -13 533 -55 160 -41 211 -62
243 -100 43 -53 94 -75 172 -75 107 0 129 45 74 151 -47 92 -259 207 -491 265
-81 20 -135 27 -253 30 -82 2 -154 2 -160 0z"/>
<path d="M6974 2846 c-76 -33 -98 -116 -43 -167 42 -39 141 -85 217 -99 75
-15 226 0 282 29 48 24 73 75 60 121 -6 19 -14 40 -18 47 -4 7 -96 25 -217 43
-116 17 -219 32 -230 35 -11 2 -34 -2 -51 -9z"/>
<path d="M4775 2630 c-48 -19 -62 -51 -70 -149 -6 -82 -4 -100 16 -153 17 -46
32 -67 62 -89 51 -37 79 -37 110 1 24 28 57 140 57 193 0 58 -30 125 -75 166
-45 41 -63 47 -100 31z"/>
</g>
</svg>
