<?xml version="1.0" standalone="no"?>
<!DOCTYPE svg PUBLIC "-//W3C//DTD SVG 20010904//EN"
 "http://www.w3.org/TR/2001/REC-SVG-20010904/DTD/svg10.dtd">
<svg version="1.0" xmlns="http://www.w3.org/2000/svg"
 width="1024.000000pt" height="1024.000000pt" viewBox="0 0 1024.000000 1024.000000"
 preserveAspectRatio="xMidYMid meet">
<metadata>
Created by potrace 1.10, written by Peter Selinger 2001-2011
</metadata>
<g transform="translate(0.000000,1024.000000) scale(0.100000,-0.100000)"
fill="#000000" stroke="none">
<path d="M4805 9637 c-21 -18 -30 -41 -46 -117 -17 -83 -20 -150 -25 -529 l-5
-435 -56 -64 c-31 -35 -72 -74 -92 -87 -28 -18 -557 -505 -1016 -934 -27 -26
-216 -202 -420 -391 -203 -189 -426 -396 -495 -460 -543 -506 -747 -693 -821
-751 -48 -38 -131 -115 -186 -173 -100 -105 -223 -270 -223 -301 0 -54 64
-115 121 -115 36 0 49 12 356 323 176 177 343 348 373 380 29 31 58 57 64 57
6 0 92 -81 191 -181 99 -99 272 -267 385 -372 113 -105 232 -217 265 -248 33
-30 128 -118 210 -195 83 -76 247 -233 365 -348 288 -280 535 -500 830 -736
135 -108 257 -203 270 -213 20 -14 22 -18 9 -34 -11 -14 -1502 -1719 -1590
-1818 -373 -421 -444 -514 -444 -586 0 -52 46 -101 90 -97 34 3 -67 -109 1379
1528 401 454 735 831 741 839 13 13 13 13 380 -320 22 -20 141 -128 265 -239
124 -112 263 -238 310 -280 47 -43 389 -352 760 -687 371 -335 707 -644 745
-687 39 -43 82 -84 97 -92 37 -19 104 -18 139 3 41 25 47 56 18 97 -69 97
-205 249 -341 381 -84 81 -182 180 -218 221 -36 40 -486 443 -1000 895 -514
452 -948 834 -964 850 l-30 28 110 118 c60 65 132 143 160 173 28 30 444 483
925 1005 480 523 894 973 920 1000 297 318 457 500 491 558 22 37 44 67 49 67
5 0 138 -95 296 -212 158 -116 306 -218 327 -226 56 -19 146 -2 168 32 21 31
-14 131 -66 189 -14 15 -347 241 -740 502 l-715 474 -543 281 c-299 155 -772
412 -1053 571 l-510 290 0 172 c-1 95 -6 206 -13 247 -7 41 -13 165 -13 275
-1 241 -10 285 -73 350 -48 51 -73 56 -111 22z m200 -1338 c299 -215 362 -250
795 -441 394 -173 856 -413 1225 -636 200 -121 645 -413 645 -423 0 -6 -1703
-1877 -1825 -2005 -5 -6 -192 -210 -414 -453 -222 -243 -407 -440 -412 -439
-4 2 -39 26 -76 55 -37 29 -131 101 -208 160 -379 290 -474 378 -1685 1568
-277 271 -358 340 -501 422 l-86 49 1211 1111 c666 612 1213 1112 1216 1112 3
0 55 -36 115 -80z"/>
<path d="M5725 7443 c-32 -8 -52 -31 -58 -69 -5 -29 18 -105 117 -392 68 -197
129 -382 135 -412 20 -103 33 -295 26 -405 -7 -119 -62 -385 -80 -384 -5 0
-159 17 -341 37 -273 31 -349 36 -440 31 -238 -14 -432 -88 -655 -250 -38 -28
-72 -50 -73 -48 -2 2 -32 60 -66 128 -186 374 -201 931 -33 1306 69 154 73
168 62 208 -5 19 -19 46 -30 61 -18 22 -28 26 -74 26 -50 0 -56 -3 -80 -34
-91 -119 -166 -306 -189 -474 -46 -326 -43 -574 10 -809 112 -502 407 -858
810 -979 122 -37 294 -38 434 -4 341 82 591 240 762 481 26 35 75 129 110 209
99 224 129 412 108 680 -22 279 -78 501 -190 750 -21 47 -43 104 -49 127 -16
57 -84 156 -133 192 -42 31 -47 33 -83 24z m-195 -1857 l245 -21 -85 -86 c-87
-89 -210 -176 -320 -228 -187 -89 -482 -76 -692 30 -73 37 -168 99 -168 109 0
28 222 140 336 169 127 33 313 59 379 54 33 -3 170 -15 305 -27z"/>
</g>
</svg>
