<?xml version="1.0" standalone="no"?>
<!DOCTYPE svg PUBLIC "-//W3C//DTD SVG 20010904//EN"
 "http://www.w3.org/TR/2001/REC-SVG-20010904/DTD/svg10.dtd">
<svg version="1.0" xmlns="http://www.w3.org/2000/svg"
 width="1024.000000pt" height="1024.000000pt" viewBox="0 0 1024.000000 1024.000000"
 preserveAspectRatio="xMidYMid meet">
<metadata>
Created by potrace 1.10, written by Peter Selinger 2001-2011
</metadata>
<g transform="translate(0.000000,1024.000000) scale(0.100000,-0.100000)"
fill="#000000" stroke="none">
<path d="M4935 8969 c-17 -18 -20 -47 -26 -282 -13 -452 -14 -428 21 -472 17
-21 27 -41 23 -45 -5 -4 -84 -28 -178 -54 -358 -101 -437 -138 -823 -397 -306
-205 -314 -211 -437 -328 -212 -202 -322 -344 -512 -656 -113 -188 -148 -254
-187 -360 -69 -187 -71 -227 -7 -259 25 -13 31 -13 57 3 25 15 40 44 93 182
49 129 79 188 137 277 41 61 108 163 149 226 l76 114 87 -23 c124 -33 212 -68
332 -131 206 -109 239 -138 881 -771 141 -138 275 -274 297 -301 l41 -49 -182
-194 c-100 -107 -196 -212 -213 -234 -17 -22 -134 -173 -261 -335 -186 -239
-269 -356 -435 -615 -198 -310 -212 -335 -455 -826 -229 -463 -257 -526 -336
-750 -75 -211 -99 -296 -176 -629 -49 -212 -92 -392 -95 -400 -3 -8 -26 -173
-51 -367 -47 -368 -47 -390 -6 -412 70 -38 123 24 141 161 5 40 43 277 84 526
74 446 77 459 177 813 l101 360 218 462 c189 402 243 504 407 785 l189 322
479 596 c263 327 485 599 494 604 14 7 78 -92 373 -578 l356 -587 385 -955
385 -955 153 -560 c84 -308 156 -578 159 -600 18 -101 42 -171 66 -192 34 -31
48 -29 91 11 l37 34 -43 188 c-24 104 -61 236 -82 294 -23 65 -47 163 -63 256
-18 106 -40 188 -71 273 -25 67 -45 135 -45 151 0 15 -76 254 -169 529 l-170
501 -462 937 c-254 516 -479 963 -500 993 -20 30 -91 127 -158 215 l-120 160
87 85 c48 47 128 119 177 161 121 103 755 558 880 633 155 92 407 207 550 250
17 5 28 -7 65 -70 24 -41 76 -148 115 -236 81 -185 100 -208 159 -188 63 21
63 31 -4 222 -46 132 -77 201 -129 288 -38 63 -101 171 -140 240 -39 69 -137
220 -216 335 -155 225 -245 323 -402 442 -120 91 -182 128 -369 218 -304 147
-461 188 -732 189 -149 1 -171 3 -166 16 34 80 37 111 42 369 4 293 0 325 -51
379 -36 37 -66 41 -92 11z m421 -940 c217 -24 349 -74 646 -247 185 -107 252
-151 305 -202 44 -42 143 -171 285 -370 213 -299 217 -305 189 -308 -69 -7
-457 -214 -769 -410 -302 -190 -325 -206 -605 -440 -161 -134 -303 -257 -317
-273 l-25 -30 -330 348 c-360 380 -447 467 -545 548 -151 123 -378 269 -498
319 -71 30 -205 66 -245 66 l-29 0 18 28 c92 143 436 440 691 598 89 56 513
255 658 309 164 62 377 86 571 64z"/>
</g>
</svg>
