<?xml version="1.0" standalone="no"?>
<!DOCTYPE svg PUBLIC "-//W3C//DTD SVG 20010904//EN"
 "http://www.w3.org/TR/2001/REC-SVG-20010904/DTD/svg10.dtd">
<svg version="1.0" xmlns="http://www.w3.org/2000/svg"
 width="1024.000000pt" height="1024.000000pt" viewBox="0 0 1024.000000 1024.000000"
 preserveAspectRatio="xMidYMid meet">
<metadata>
Created by potrace 1.10, written by Peter Selinger 2001-2011
</metadata>
<g transform="translate(0.000000,1024.000000) scale(0.100000,-0.100000)"
fill="#000000" stroke="none">
<path d="M4562 8372 l-93 -48 23 -21 c13 -12 47 -39 77 -61 108 -81 178 -206
206 -369 20 -117 35 -365 35 -600 l0 -191 -37 -6 c-44 -7 -1334 -167 -1778
-221 -214 -26 -319 -35 -365 -30 -106 10 -279 43 -374 70 -49 14 -92 24 -95
23 -4 -2 0 -38 7 -81 l14 -78 100 -75 c151 -115 338 -238 385 -253 76 -25 228
-1 731 115 l457 105 1045 133 c575 74 1046 133 1047 132 1 -1 11 -89 22 -196
21 -210 19 -251 -20 -385 -58 -195 -252 -623 -415 -912 -153 -273 -449 -737
-465 -731 -8 3 -125 107 -279 248 -354 325 -573 517 -871 769 l-339 287 -113
27 c-126 31 -155 33 -181 14 -28 -21 -7 -48 61 -80 147 -69 628 -530 1247
-1197 115 -124 230 -246 254 -272 l45 -47 -123 -153 c-476 -589 -1152 -1192
-1830 -1633 -171 -111 -545 -337 -671 -404 -103 -55 -143 -89 -137 -118 4 -24
39 -28 108 -13 185 41 750 319 1050 517 663 438 1133 836 1637 1390 l175 192
151 -157 c483 -503 1467 -1466 1727 -1690 90 -78 179 -122 258 -129 61 -5 874
60 980 78 57 10 122 46 122 67 0 14 -100 70 -310 173 -597 294 -1153 629
-1545 930 -365 281 -1171 966 -1169 993 1 7 26 46 56 87 214 291 528 801 783
1274 190 353 297 539 336 589 94 118 75 173 -127 372 l-132 132 96 6 c53 3
264 13 469 22 373 15 399 15 879 -13 154 -8 202 10 224 87 9 31 7 35 -92 139
l-102 106 -130 53 -131 52 -150 -25 c-400 -66 -355 -61 -1630 -195 -209 -22
-402 -42 -429 -46 l-49 -6 7 353 c7 372 11 421 41 559 11 52 15 97 11 115 -9
34 -63 88 -115 115 -32 16 -460 161 -472 159 -2 0 -46 -21 -97 -47z"/>
</g>
</svg>
