<?xml version="1.0" standalone="no"?>
<!DOCTYPE svg PUBLIC "-//W3C//DTD SVG 20010904//EN"
 "http://www.w3.org/TR/2001/REC-SVG-20010904/DTD/svg10.dtd">
<svg version="1.0" xmlns="http://www.w3.org/2000/svg"
 width="480.000000pt" height="480.000000pt" viewBox="0 0 480.000000 480.000000"
 preserveAspectRatio="xMidYMid meet">
<metadata>
Created by potrace 1.11, written by Peter Selinger 2001-2013
</metadata>
<g transform="translate(0.000000,480.000000) scale(0.100000,-0.100000)"
fill="#000000" stroke="none">
<path d="M2245 3984 c-82 -7 -249 -23 -370 -34 -304 -27 -462 -71 -705 -195
-108 -56 -160 -95 -303 -232 -93 -89 -100 -118 -52 -218 28 -59 194 -212 328
-301 93 -63 286 -159 396 -199 55 -19 476 -115 507 -115 2 0 4 -12 4 -28 0
-33 72 -123 147 -182 l51 -40 7 -97 c4 -54 3 -136 -2 -183 -5 -47 -8 -191 -6
-320 2 -129 -1 -262 -6 -295 -30 -198 -103 -341 -216 -423 -41 -31 -58 -37
-100 -38 -27 0 -95 -8 -150 -18 -55 -10 -142 -19 -193 -22 -51 -2 -96 -5 -100
-6 -4 -1 -19 2 -35 6 -41 12 -94 -2 -130 -34 -29 -26 -32 -33 -31 -87 1 -38 8
-72 22 -98 59 -116 274 -242 498 -293 291 -67 271 -65 569 -67 266 -2 289 -1
450 26 235 39 668 155 701 187 28 29 32 87 9 132 -15 30 -83 82 -122 94 -11 4
-24 13 -27 21 -3 8 -17 15 -31 15 -14 0 -56 18 -92 40 -37 22 -70 40 -75 40
-4 0 -27 13 -50 30 -22 16 -49 30 -58 30 -30 0 -145 130 -184 209 -74 145 -77
174 -75 635 2 472 7 522 68 636 48 92 86 164 87 168 0 1 46 16 101 32 115 34
235 89 373 168 150 86 215 137 374 292 127 124 154 155 182 215 36 75 43 136
24 207 -22 79 -151 150 -397 219 -185 52 -196 55 -313 64 -136 10 -528 43
-600 50 -229 22 -320 24 -475 9z m582 -73 c54 -5 127 -12 163 -15 230 -19 325
-32 485 -67 99 -22 218 -53 265 -71 201 -74 254 -128 228 -232 -16 -65 -66
-151 -120 -208 -48 -50 -346 -286 -423 -335 -139 -88 -275 -137 -560 -200 -36
-8 -40 -12 -43 -42 -3 -34 -3 -34 32 -28 44 7 45 -1 10 -70 -28 -58 -83 -112
-145 -144 -77 -39 -247 -55 -367 -34 -32 5 -61 22 -109 62 -61 52 -123 125
-123 145 0 11 62 10 92 -1 13 -4 45 -11 71 -15 l49 -8 -5 37 c-3 20 -7 38 -8
39 -2 2 -45 6 -95 10 -274 19 -606 101 -824 202 -201 94 -474 305 -524 405
l-26 53 24 40 c25 42 58 67 37 28 -6 -11 -11 -40 -11 -63 0 -51 26 -93 84
-134 22 -16 60 -47 83 -68 52 -47 168 -97 304 -131 153 -37 193 -40 874 -52
319 -6 366 -5 415 10 30 9 210 50 400 91 511 110 698 183 810 317 55 66 69
110 51 169 -19 64 -51 92 -153 132 -107 42 -124 45 -548 92 -173 20 -333 38
-355 40 -101 12 -302 35 -320 36 -16 1 -15 2 5 8 42 12 173 13 277 2z m-1332
-126 c-137 -45 -272 -92 -300 -105 -27 -12 -54 -24 -60 -27 -5 -2 -1 3 10 12
51 42 214 108 382 154 98 27 187 49 198 49 11 0 -92 -37 -230 -83z m-400 -155
c-3 -5 -20 -19 -38 -30 -32 -22 -32 -22 3 9 37 32 45 37 35 21z m1672 -1237
c-13 -127 -19 -321 -20 -578 0 -242 2 -280 22 -365 29 -132 109 -282 193 -367
l62 -63 -72 0 c-61 0 -82 5 -131 30 -91 45 -131 130 -131 276 0 56 -4 77 -19
95 -11 13 -23 20 -28 16 -13 -14 -7 -143 11 -237 17 -89 33 -122 66 -140 20
-11 20 -11 0 -49 -27 -54 -69 -101 -89 -101 -40 0 -82 23 -98 54 -13 24 -16
63 -17 183 -1 117 -4 153 -14 153 -7 0 -18 -12 -24 -27 -13 -32 -17 -247 -5
-310 l7 -42 -54 -15 c-71 -21 -75 -21 -123 10 -39 26 -84 84 -65 84 14 0 52
101 105 275 47 154 51 177 62 305 4 41 8 86 10 100 2 14 6 61 10 105 3 44 8
96 10 115 10 82 29 318 29 348 0 18 -8 40 -16 49 -29 28 -39 -16 -44 -195 -5
-170 -6 -193 -24 -387 -15 -160 -34 -250 -94 -451 -64 -213 -74 -237 -106
-262 -41 -31 -115 -52 -151 -42 -58 17 -105 60 -65 60 19 0 53 19 113 62 144
106 232 315 234 553 1 44 1 181 1 305 -1 124 0 248 2 275 2 28 4 80 4 116 l2
67 113 -4 c114 -3 213 10 292 40 22 8 42 15 44 15 2 1 1 -25 -2 -56z m-876
-1420 c57 -53 84 -65 159 -71 50 -3 74 0 98 12 l33 17 60 -47 c74 -59 139 -70
207 -35 22 11 43 25 47 30 3 6 21 -1 42 -14 72 -49 153 -26 208 59 20 31 39
56 44 56 5 0 28 -9 52 -20 57 -26 133 -25 208 1 l59 20 81 -40 c83 -42 151
-94 151 -115 0 -18 -36 -33 -205 -82 -140 -42 -169 -46 -450 -74 -165 -17
-313 -32 -330 -34 -16 -1 -64 1 -105 5 -41 5 -102 11 -135 14 -159 16 -293 44
-408 85 -67 25 -103 45 -152 87 -64 54 -95 107 -75 127 9 9 276 52 343 55 19
1 40 -10 68 -36z m-482 -36 c-2 -53 2 -61 74 -136 38 -39 74 -66 105 -77 26
-10 52 -21 57 -25 20 -15 370 -98 455 -108 120 -15 168 -16 410 -7 394 13 802
105 889 200 30 32 41 33 70 2 38 -40 22 -58 -84 -95 -143 -50 -258 -77 -500
-118 -197 -32 -240 -36 -415 -37 -396 -2 -562 20 -787 103 -125 46 -181 78
-246 140 -83 78 -107 142 -70 183 28 31 43 23 42 -25z"/>
<path d="M2596 2302 c-17 -28 -2 -506 17 -529 15 -20 34 -15 41 10 3 12 -1 87
-10 167 -14 131 -13 233 2 283 12 39 -32 98 -50 69z"/>
<path d="M2507 2263 c-10 -15 -28 -145 -26 -178 1 -16 -1 -49 -5 -72 -7 -41 5
-83 24 -83 28 0 51 291 26 325 -7 10 -16 14 -19 8z"/>
<path d="M2475 1668 c-3 -13 -5 -72 -3 -133 3 -93 6 -110 20 -113 9 -2 19 5
22 15 11 34 15 217 5 235 -13 25 -38 22 -44 -4z"/>
<path d="M2629 1653 c-4 -53 4 -129 14 -135 30 -20 42 -3 39 52 -3 61 -18 100
-39 100 -7 0 -14 -8 -14 -17z"/>
</g>
</svg>
