<?xml version="1.0" standalone="no"?>
<!DOCTYPE svg PUBLIC "-//W3C//DTD SVG 20010904//EN"
 "http://www.w3.org/TR/2001/REC-SVG-20010904/DTD/svg10.dtd">
<svg version="1.0" xmlns="http://www.w3.org/2000/svg"
 width="480.000000pt" height="480.000000pt" viewBox="0 0 480.000000 480.000000"
 preserveAspectRatio="xMidYMid meet">
<metadata>
Created by potrace 1.11, written by Peter Selinger 2001-2013
</metadata>
<g transform="translate(0.000000,480.000000) scale(0.100000,-0.100000)"
fill="#000000" stroke="none">
<path d="M3691 4162 c-34 -28 -34 -30 -52 -173 -23 -187 -55 -325 -85 -371
-13 -21 -24 -43 -24 -50 0 -7 -14 -33 -30 -57 -17 -24 -30 -52 -30 -62 0 -27
-124 -207 -177 -257 -88 -83 -300 -182 -502 -234 -101 -27 -138 -31 -291 -35
-147 -4 -195 -2 -296 15 -67 12 -140 28 -163 35 -108 38 -283 173 -384 297
-126 156 -217 379 -232 570 -9 115 -11 119 -57 140 -49 22 -86 17 -112 -13
-17 -20 -18 -34 -13 -147 16 -349 174 -655 447 -865 73 -56 300 -195 320 -195
42 -1 40 -14 -24 -191 -35 -96 -87 -252 -114 -345 -39 -132 -300 -1043 -344
-1200 l-8 -31 -113 3 c-343 10 -568 13 -582 8 -27 -11 -58 -72 -50 -102 8 -33
51 -80 85 -94 17 -7 483 -12 1410 -14 1263 -2 1391 -4 1455 -19 155 -38 207
-30 261 41 36 46 26 75 -41 126 -85 65 -124 73 -338 73 -180 0 -188 1 -192 20
-2 11 -11 61 -19 112 -9 50 -45 183 -80 295 -166 528 -295 1014 -311 1178 -3
36 -10 85 -16 109 -5 24 -8 45 -7 46 2 1 32 12 68 24 127 45 326 197 447 343
191 229 257 374 348 767 32 137 16 210 -55 261 -38 27 -59 25 -99 -8z m-917
-1444 c2 -7 11 -62 21 -123 20 -134 44 -232 129 -530 36 -126 70 -264 75 -305
10 -72 34 -160 154 -567 l54 -183 -121 -1 c-67 -1 -170 -3 -231 -4 -60 -1
-335 -4 -610 -6 -487 -4 -500 -3 -497 15 2 11 22 76 43 145 22 69 69 241 104
381 131 526 260 959 309 1040 19 30 39 74 45 97 l12 42 92 3 c314 10 417 9
421 -4z"/>
<path d="M1893 3635 c-25 -17 -42 -67 -35 -102 7 -35 46 -71 88 -81 22 -6 165
-13 319 -16 583 -13 751 -19 767 -27 22 -12 65 -11 87 1 23 12 51 79 51 121 0
36 -39 79 -72 80 -13 0 -43 2 -68 4 -25 1 -152 6 -283 10 -130 4 -254 8 -275
10 -20 2 -154 6 -297 10 -231 6 -262 5 -282 -10z"/>
<path d="M3424 2315 l-37 -35 5 -79 c3 -60 10 -88 30 -122 14 -24 40 -78 58
-119 18 -41 68 -149 111 -239 44 -90 79 -171 79 -181 0 -9 30 -51 66 -93 73
-84 94 -93 157 -61 54 28 67 44 67 86 0 33 -7 46 -46 85 -40 39 -62 80 -156
292 -60 135 -118 280 -130 321 -24 91 -48 132 -92 159 -47 29 -69 26 -112 -14z"/>
<path d="M1286 2287 c-87 -147 -182 -390 -232 -586 -41 -163 -44 -223 -12
-245 37 -26 68 -20 108 23 44 46 121 193 145 276 44 151 61 196 105 290 58
122 66 152 47 197 -19 45 -71 88 -107 88 -24 0 -34 -8 -54 -43z"/>
<path d="M4765 690 c3 -5 8 -10 11 -10 2 0 4 5 4 10 0 6 -5 10 -11 10 -5 0 -7
-4 -4 -10z"/>
</g>
</svg>
