<?xml version="1.0" standalone="no"?>
<!DOCTYPE svg PUBLIC "-//W3C//DTD SVG 20010904//EN"
 "http://www.w3.org/TR/2001/REC-SVG-20010904/DTD/svg10.dtd">
<svg version="1.0" xmlns="http://www.w3.org/2000/svg"
 width="60.000000pt" height="60.000000pt" viewBox="0 0 60.000000 60.000000"
 preserveAspectRatio="xMidYMid meet">
<metadata>
Created by potrace 1.10, written by Peter Selinger 2001-2011
</metadata>
<g transform="translate(0.000000,60.000000) scale(0.100000,-0.100000)"
fill="#000000" stroke="none">
<path d="M280 481 c0 -14 -22 -45 -59 -82 -72 -71 -64 -77 16 -11 84 70 87 75
63 97 -19 18 -20 17 -20 -4z"/>
<path d="M135 327 c4 -13 10 -58 14 -100 l7 -77 -48 0 c-47 0 -63 -12 -32 -24
9 -3 90 -1 181 5 91 6 192 9 224 7 60 -4 70 0 45 21 -9 8 -28 10 -51 5 l-36
-6 7 53 c4 30 12 68 20 86 21 54 7 58 -157 43 -103 -9 -144 -9 -152 -1 -18 18
-28 13 -22 -12z m193 -84 c-3 -76 -4 -78 -29 -81 -32 -4 -39 15 -39 101 l0 57
35 0 36 0 -3 -77z m96 0 c-7 -43 -13 -79 -13 -80 -1 -2 -14 -3 -31 -3 -34 0
-34 0 -24 99 l7 61 37 0 36 0 -12 -77z m-184 -13 l0 -80 -29 0 c-24 0 -29 5
-35 31 -3 17 -6 53 -6 80 l0 49 35 0 35 0 0 -80z"/>
</g>
</svg>
