<?xml version="1.0" standalone="no"?>
<!DOCTYPE svg PUBLIC "-//W3C//DTD SVG 20010904//EN"
 "http://www.w3.org/TR/2001/REC-SVG-20010904/DTD/svg10.dtd">
<svg version="1.0" xmlns="http://www.w3.org/2000/svg"
 width="1024.000000pt" height="1024.000000pt" viewBox="0 0 1024.000000 1024.000000"
 preserveAspectRatio="xMidYMid meet">
<metadata>
Created by potrace 1.10, written by Peter Selinger 2001-2011
</metadata>
<g transform="translate(0.000000,1024.000000) scale(0.100000,-0.100000)"
fill="#000000" stroke="none">
<path d="M3367 9326 c-142 -30 -285 -64 -318 -76 -191 -72 -326 -234 -364
-436 -9 -43 -27 -135 -40 -204 -14 -69 -32 -197 -40 -285 -16 -159 -16 -160
-49 -195 -38 -39 -60 -80 -70 -126 -8 -37 24 -206 48 -253 9 -17 14 -35 12
-40 -14 -22 29 -120 113 -255 51 -81 90 -150 88 -152 -2 -3 -17 0 -33 6 -39
15 -91 4 -109 -24 -14 -22 -23 -23 -168 -29 -183 -8 -275 -29 -404 -92 -141
-70 -221 -166 -273 -330 -25 -78 -31 -240 -12 -307 l10 -38 -41 -18 c-124 -55
-208 -201 -253 -441 -20 -104 -14 -303 11 -395 16 -59 16 -60 -8 -105 -42 -77
-55 -146 -78 -406 -22 -265 -21 -373 7 -515 23 -114 71 -255 125 -360 l48 -95
-15 -60 c-47 -186 2 -466 123 -712 46 -92 100 -162 265 -339 l30 -32 -13 -488
c-9 -367 -15 -497 -25 -523 -18 -44 -18 -196 1 -302 20 -119 57 -225 123 -357
56 -111 59 -115 142 -177 280 -209 582 -345 911 -410 l137 -27 395 21 396 22
263 83 264 83 138 92 137 92 56 117 c54 113 56 120 56 197 -1 44 -6 93 -12
108 -6 16 -11 55 -11 88 0 32 -20 237 -45 455 -25 217 -45 397 -45 399 0 2 33
-13 73 -35 39 -21 112 -50 161 -64 87 -26 91 -26 454 -26 l367 0 215 72 216
71 54 -37 c30 -20 90 -50 133 -67 73 -28 158 -40 1113 -164 569 -74 1052 -135
1075 -135 110 0 146 166 46 213 -22 10 -224 33 -632 71 -871 82 -1067 112
-1492 232 l-91 26 43 57 c83 110 113 184 205 506 29 98 56 188 61 198 17 31
39 189 39 285 0 50 3 92 6 92 3 0 41 -16 84 -34 80 -36 291 -86 358 -86 50 0
95 30 126 83 22 36 25 49 17 70 -13 35 -42 48 -221 103 -191 58 -210 66 -287
119 -42 30 -68 42 -82 38 -12 -3 -21 -4 -21 -2 0 2 -18 171 -39 374 -32 302
-47 402 -80 545 -22 96 -38 176 -36 178 2 2 48 -12 102 -33 l98 -36 870 -94
c479 -52 885 -95 903 -95 18 0 46 7 61 15 34 17 73 91 65 122 -7 26 -59 63
-135 97 -119 52 -155 57 -489 66 -173 5 -367 13 -430 19 -286 27 -665 87 -842
131 -145 38 -228 50 -269 41 l-39 -9 -41 77 c-23 42 -84 139 -135 217 -169
258 -264 363 -654 730 -458 430 -490 462 -490 495 0 21 -26 58 -112 155 -198
225 -334 314 -658 427 -102 36 -224 79 -271 96 l-86 32 -12 152 c-34 417 -36
434 -77 514 l-37 73 6 178 c3 102 13 215 23 267 22 118 23 281 1 362 -45 164
-71 187 -217 197 -52 4 -122 9 -155 11 -46 3 -119 -8 -318 -49z m230 -226
c-14 -11 -38 -46 -53 -76 -42 -85 -42 -167 -3 -409 35 -222 36 -242 25 -401
-10 -126 -2 -166 46 -219 25 -29 28 -37 18 -55 -6 -12 -9 -28 -6 -36 3 -8 4
-14 1 -14 -15 0 -132 81 -190 131 -118 103 -243 151 -485 185 -63 9 -117 17
-119 19 -7 8 31 402 45 464 31 139 125 273 242 349 52 32 61 35 250 57 109 12
210 23 226 24 l29 1 -26 -20z m231 -815 c0 -25 -2 -24 -9 10 -10 51 -10 92 1
50 4 -16 8 -43 8 -60z m-807 -324 c35 -16 87 -32 114 -36 40 -6 59 -16 95 -50
25 -24 69 -57 98 -75 28 -17 52 -33 52 -36 0 -2 -34 -22 -75 -45 -68 -37 -125
-87 -125 -110 0 -20 -29 -4 -198 113 -106 73 -186 121 -200 121 -15 -1 -24 6
-26 21 -11 53 -16 108 -11 117 4 5 53 9 109 9 93 0 110 -3 167 -29z m856 -136
c11 -47 19 -85 16 -85 -5 0 -126 61 -132 66 -3 3 14 22 37 45 23 22 42 44 42
49 0 6 4 10 8 10 4 0 17 -38 29 -85z m-142 -253 c177 -88 258 -125 397 -178
51 -19 113 -48 138 -63 25 -15 110 -51 190 -80 116 -42 168 -67 260 -126 116
-75 128 -87 65 -61 -19 8 -35 13 -35 12 0 -2 42 -46 93 -98 50 -52 104 -108
118 -124 15 -17 127 -122 250 -233 272 -247 577 -547 749 -736 309 -341 398
-461 455 -610 14 -38 37 -92 50 -120 22 -43 36 -135 110 -702 89 -683 99 -808
69 -878 -8 -20 -20 -62 -25 -93 -6 -32 -19 -82 -29 -112 -11 -30 -38 -124 -61
-209 -36 -131 -49 -162 -85 -212 -92 -124 -316 -265 -531 -333 -144 -45 -266
-59 -462 -53 -164 4 -183 7 -281 38 -73 23 -118 44 -149 68 -78 63 -94 71
-143 71 -43 0 -47 2 -52 28 -3 15 -51 356 -106 757 l-101 730 7 158 c8 186 0
226 -59 293 l-40 46 56 106 c86 165 110 278 87 413 -15 88 -57 209 -93 266
-14 22 -23 43 -20 46 3 3 -2 16 -11 29 -20 28 -21 98 -1 145 8 19 15 59 15 87
1 28 7 69 15 91 13 37 13 46 -6 105 -12 36 -46 117 -76 180 -54 112 -59 118
-197 256 -77 77 -168 159 -201 181 -77 51 -555 300 -662 344 -57 24 -86 42
-97 61 -22 36 -71 65 -136 80 -52 12 -53 13 -155 148 l-103 137 156 6 c87 4
198 7 248 7 l92 0 36 41 c40 44 52 68 67 142 8 34 14 45 22 38 7 -5 84 -45
172 -89z m-1084 -547 c96 -16 200 -50 276 -89 32 -16 69 -26 94 -26 49 0 151
-34 194 -65 42 -31 192 -115 204 -115 5 0 22 -11 38 -24 15 -12 87 -42 158
-66 141 -46 226 -93 249 -139 20 -37 70 -79 104 -87 15 -3 56 -19 92 -36 l65
-29 111 -192 c106 -181 113 -199 140 -310 31 -131 29 -142 -31 -133 -16 3 -91
10 -165 17 -74 7 -136 13 -138 14 -1 1 4 18 12 37 20 46 6 96 -38 146 -30 35
-31 39 -20 72 7 19 13 59 13 87 1 44 -4 58 -26 83 -38 41 -89 60 -131 48 -29
-8 -38 -19 -65 -76 -58 -123 -39 -259 52 -379 l39 -51 -54 24 c-30 13 -71 24
-92 24 -63 0 -311 40 -438 70 -270 64 -353 98 -744 302 l-365 191 -41 71 c-23
39 -45 82 -49 96 -14 48 -58 125 -96 171 l-38 47 7 66 c10 75 30 102 118 161
141 94 352 128 565 90z m-686 -795 c42 -45 207 -168 306 -228 119 -71 268
-143 384 -187 54 -20 129 -55 165 -76 76 -46 129 -64 340 -113 256 -59 561
-103 840 -122 81 -5 120 -13 173 -35 38 -16 87 -34 108 -39 106 -29 181 -178
159 -317 -6 -35 -29 -88 -73 -163 l-64 -112 -99 -59 c-54 -32 -102 -59 -107
-59 -4 0 -5 10 -3 23 3 12 13 117 22 234 17 201 17 213 0 257 -20 51 -87 116
-120 116 -12 0 -38 -16 -59 -36 l-38 -35 -30 -252 c-18 -156 -27 -269 -23
-299 l7 -48 -59 0 c-78 -1 -1434 280 -1434 297 0 6 -17 17 -37 24 -54 17 -127
55 -142 73 -18 22 -28 20 -35 -6 -5 -21 -10 -19 -67 37 -87 86 -327 399 -359
470 -41 90 -60 180 -60 287 0 160 43 261 160 372 58 56 60 57 87 42 15 -8 42
-29 58 -46z m-175 -1120 c125 -159 187 -218 273 -265 20 -10 38 -26 40 -34 2
-9 44 -33 93 -53 93 -40 110 -44 116 -29 2 5 98 -18 213 -50 188 -52 255 -65
650 -125 l440 -66 228 6 229 6 122 40 c140 46 136 45 136 26 0 -8 23 -27 51
-42 58 -32 79 -65 79 -124 0 -48 -20 -91 -65 -141 -18 -20 -40 -58 -49 -85
-10 -28 -51 -93 -95 -152 l-79 -102 -4 162 c-3 159 -4 164 -33 217 -16 30 -47
68 -67 84 -34 27 -40 29 -66 18 -38 -16 -49 -41 -68 -159 -21 -129 -14 -284
17 -365 13 -34 18 -61 13 -66 -9 -8 -372 -82 -509 -103 -44 -7 -172 -12 -285
-12 -212 0 -341 13 -516 54 -180 42 -480 154 -556 207 -23 15 -51 34 -63 40
-37 21 -164 161 -209 231 -105 162 -180 354 -211 538 -24 142 -19 447 8 488
10 15 22 26 27 24 5 -2 68 -77 140 -168z m126 -1313 c51 -37 101 -67 112 -67
11 0 78 -25 149 -56 125 -56 135 -58 466 -119 186 -35 340 -65 342 -67 2 -2
-7 -26 -20 -53 -31 -60 -33 -139 -6 -241 l18 -70 -341 -16 -341 -16 -47 24
c-30 15 -48 31 -48 42 0 10 -21 30 -48 47 -183 114 -322 348 -376 633 l-14 73
32 -24 c17 -13 72 -54 122 -90z m2558 -7 l7 -45 -35 34 c-32 31 -34 37 -23 55
8 12 17 28 22 36 10 16 17 -2 29 -80z m-194 -212 c0 -45 -19 -97 -43 -117 -11
-8 -17 -28 -17 -51 0 -50 38 -97 86 -106 40 -7 63 -46 43 -70 -9 -11 -19 -7
-54 21 -35 29 -47 34 -74 29 -56 -11 -58 -27 -51 -329 4 -148 3 -280 -1 -292
-30 -83 -35 -384 -9 -542 6 -35 9 -66 6 -68 -2 -3 -172 9 -378 25 l-373 30
-120 -18 c-380 -59 -733 -168 -1046 -325 l-85 -43 -12 121 c-9 100 -8 195 8
532 11 226 20 433 20 462 l0 51 87 -26 86 -26 342 26 341 26 133 83 c209 131
288 237 312 419 7 47 13 86 14 87 1 2 98 16 216 33 204 28 221 32 369 89 l155
59 23 -21 c15 -14 22 -32 22 -59z m239 -83 c1 -18 0 -18 -15 3 -10 14 -13 30
-8 45 l8 22 7 -25 c4 -14 7 -34 8 -45z m-1253 -33 c-14 -44 -65 -155 -66 -142
0 32 -21 89 -45 124 l-24 36 70 0 c62 0 70 -2 65 -18z m1264 -29 c0 -19 -3
-24 -10 -17 -6 6 -8 18 -4 27 9 24 14 21 14 -10z m25 -260 c-8 -22 -29 -14
-53 20 l-23 32 33 28 33 28 7 -48 c4 -26 6 -54 3 -60z m59 -513 l6 -45 -25 30
c-13 17 -24 40 -25 51 0 12 -9 33 -20 47 -22 27 -111 63 -135 53 -8 -3 -15 -2
-15 3 0 5 16 11 35 14 24 4 55 23 93 58 l57 52 12 -109 c6 -60 14 -129 17
-154z m14 -193 c7 -82 7 -85 -10 -70 -10 9 -17 26 -16 39 1 12 -4 33 -11 47
-11 21 -11 28 4 51 10 15 20 25 22 23 2 -3 7 -43 11 -90z m-228 -117 c0 -4 -7
-10 -15 -14 -10 -4 -15 1 -15 14 0 13 5 18 15 14 8 -4 15 -10 15 -14z m250
-246 c0 -36 -6 -37 -42 -7 -9 8 -31 13 -49 11 -18 -2 -34 2 -36 9 -3 8 13 13
49 16 29 2 59 4 66 5 8 1 12 -11 12 -34z m-780 -224 c152 -10 260 -30 370 -67
144 -49 302 -141 406 -235 l54 -50 0 -83 c0 -45 -5 -95 -11 -111 -27 -74 -329
-266 -558 -355 l-76 -30 -350 11 c-426 13 -523 22 -690 65 -155 40 -214 62
-404 149 -162 74 -248 131 -315 208 -44 50 -45 52 -30 81 24 45 97 113 151
140 92 46 251 91 683 193 488 116 419 108 770 84z m797 -47 c-3 -2 -15 1 -27
7 l-22 12 24 25 23 25 3 -32 c2 -18 1 -34 -1 -37z"/>
</g>
</svg>
