<?xml version="1.0" standalone="no"?>
<!DOCTYPE svg PUBLIC "-//W3C//DTD SVG 20010904//EN"
 "http://www.w3.org/TR/2001/REC-SVG-20010904/DTD/svg10.dtd">
<svg version="1.0" xmlns="http://www.w3.org/2000/svg"
 width="1024.000000pt" height="1024.000000pt" viewBox="0 0 1024.000000 1024.000000"
 preserveAspectRatio="xMidYMid meet">
<metadata>
Created by potrace 1.10, written by Peter Selinger 2001-2011
</metadata>
<g transform="translate(0.000000,1024.000000) scale(0.100000,-0.100000)"
fill="#000000" stroke="none">
<path d="M5664 9040 c-62 -25 -86 -131 -40 -179 13 -15 89 -118 168 -231 l145
-205 273 -575 c150 -316 277 -593 283 -615 6 -22 36 -80 69 -130 32 -49 58
-98 58 -108 0 -10 16 -55 36 -100 l36 -82 -4 -295 -3 -295 -57 -100 c-113
-200 -179 -283 -538 -675 -321 -350 -391 -406 -707 -559 l-233 -113 -32 27
c-18 15 -71 64 -118 107 -244 228 -612 488 -955 673 -413 223 -814 338 -1266
363 l-124 7 1 55 c0 36 26 148 77 330 42 151 83 313 91 360 8 47 80 351 160
676 114 466 155 651 192 870 34 205 52 285 65 303 26 33 42 96 30 119 -17 31
-46 51 -92 61 -65 15 -113 0 -132 -42 -14 -30 -454 -1899 -531 -2259 -20 -91
-60 -242 -90 -335 -29 -92 -56 -197 -60 -233 -4 -37 -53 -219 -113 -418 -116
-382 -116 -384 -61 -425 14 -11 49 -22 75 -24 42 -4 54 -1 77 19 25 21 38 60
116 347 49 182 95 330 104 339 28 28 254 29 407 2 507 -89 911 -258 1414 -593
124 -82 363 -265 472 -360 l62 -55 -42 -15 c-300 -111 -706 -203 -1104 -247
-174 -20 -177 -20 -197 -1 -38 35 -94 42 -238 32 -73 -6 -230 -15 -348 -21
-118 -6 -229 -13 -246 -16 -62 -9 -115 -95 -93 -150 18 -48 54 -54 313 -47
152 4 322 1 471 -7 480 -27 932 32 1395 182 69 22 158 53 198 69 40 16 77 29
81 29 10 0 1072 -1214 1109 -1267 12 -18 233 -300 490 -625 257 -326 494 -630
526 -676 97 -135 220 -276 416 -477 277 -285 469 -548 526 -719 15 -44 38 -91
51 -104 21 -21 31 -24 78 -20 69 6 105 29 105 68 0 38 -52 193 -101 299 -52
112 -149 255 -248 366 -81 91 -1190 1411 -2523 3004 l-187 224 137 68 c75 38
179 99 231 136 104 75 250 214 325 310 27 34 83 91 125 125 115 95 242 228
367 383 61 77 150 187 198 245 143 175 180 262 201 480 29 289 14 462 -51 627
-16 40 -215 465 -442 946 -351 743 -422 885 -468 943 -61 77 -134 140 -210
184 -54 32 -66 34 -100 20z"/>
</g>
</svg>
