<?xml version="1.0" standalone="no"?>
<!DOCTYPE svg PUBLIC "-//W3C//DTD SVG 20010904//EN"
 "http://www.w3.org/TR/2001/REC-SVG-20010904/DTD/svg10.dtd">
<svg version="1.0" xmlns="http://www.w3.org/2000/svg"
 width="1024.000000pt" height="1024.000000pt" viewBox="0 0 1024.000000 1024.000000"
 preserveAspectRatio="xMidYMid meet">
<metadata>
Created by potrace 1.10, written by Peter Selinger 2001-2011
</metadata>
<g transform="translate(0.000000,1024.000000) scale(0.100000,-0.100000)"
fill="#000000" stroke="none">
<path d="M3415 9676 c-73 -32 -83 -75 -44 -185 33 -91 119 -472 119 -523 0
-75 -35 -251 -72 -367 -92 -282 -490 -995 -876 -1566 -375 -556 -961 -1264
-1344 -1624 -74 -69 -102 -125 -96 -192 7 -69 28 -89 93 -89 158 0 447 180
914 570 607 505 1206 1219 1936 2305 214 319 262 423 252 549 -11 139 -95 347
-218 536 -78 120 -247 326 -366 446 -138 140 -216 176 -298 140z"/>
<path d="M5931 9469 c-6 -18 -11 -41 -11 -51 0 -11 81 -117 181 -237 717 -866
1232 -1630 1654 -2451 160 -312 227 -428 327 -562 123 -165 268 -278 358 -278
68 0 108 71 130 233 13 101 13 415 0 548 -34 333 -173 774 -313 987 -248 380
-634 768 -1184 1189 -77 59 -205 157 -282 216 -357 274 -662 437 -814 437 -30
0 -37 -4 -46 -31z"/>
<path d="M6102 8131 l-43 -109 41 -229 c22 -127 40 -255 40 -286 0 -96 -52
-275 -140 -482 -67 -159 -337 -698 -480 -960 -128 -234 -440 -764 -450 -765
-3 0 -72 59 -155 132 -413 362 -806 673 -1075 851 -156 103 -247 151 -328 173
l-57 15 -78 -38 c-72 -35 -78 -39 -72 -63 11 -44 42 -84 86 -110 23 -14 260
-223 528 -466 436 -396 506 -463 678 -657 105 -118 197 -224 204 -234 10 -18
-9 -49 -172 -279 -100 -142 -268 -380 -373 -529 -395 -562 -606 -839 -940
-1230 -251 -293 -408 -459 -752 -794 -405 -394 -609 -563 -1456 -1207 -351
-267 -640 -488 -642 -493 -3 -4 -1 -24 5 -44 11 -41 49 -67 97 -67 93 0 359
105 747 294 319 156 470 242 740 421 544 361 1055 789 1693 1420 439 433 736
775 1145 1320 130 172 369 501 417 573 15 22 21 16 275 -280 143 -167 687
-800 1208 -1408 522 -608 1001 -1158 1065 -1223 64 -65 147 -139 185 -165 l69
-47 167 1 c518 1 1295 212 1527 414 73 63 105 136 79 177 -39 60 -208 160
-609 361 -572 286 -1006 536 -1486 855 -221 147 -409 291 -790 606 -350 290
-1111 958 -1338 1176 l-34 32 199 324 c110 178 223 369 253 424 232 435 467
816 628 1018 65 82 131 206 173 327 19 52 24 86 24 170 0 101 -2 109 -43 210
-106 259 -375 673 -570 877 -57 59 -115 103 -137 103 -5 0 -29 -49 -53 -109z"/>
</g>
</svg>
