<?xml version="1.0" standalone="no"?>
<!DOCTYPE svg PUBLIC "-//W3C//DTD SVG 20010904//EN"
 "http://www.w3.org/TR/2001/REC-SVG-20010904/DTD/svg10.dtd">
<svg version="1.0" xmlns="http://www.w3.org/2000/svg"
 width="1024.000000pt" height="1024.000000pt" viewBox="0 0 1024.000000 1024.000000"
 preserveAspectRatio="xMidYMid meet">
<metadata>
Created by potrace 1.10, written by Peter Selinger 2001-2011
</metadata>
<g transform="translate(0.000000,1024.000000) scale(0.100000,-0.100000)"
fill="#000000" stroke="none">
<path d="M4905 8054 c-27 -19 -51 -38 -53 -43 -2 -5 15 -49 37 -97 56 -127 65
-181 64 -384 -2 -361 -67 -801 -190 -1285 -25 -99 -48 -193 -52 -209 -3 -16
-13 -33 -21 -37 -8 -5 -130 -26 -270 -48 l-255 -39 -258 37 -259 38 -25 -39
c-24 -35 -25 -42 -14 -77 17 -58 80 -130 194 -222 100 -80 164 -118 200 -119
24 0 496 126 547 146 23 9 43 14 46 11 3 -2 -27 -103 -67 -223 -342 -1045
-736 -1765 -1455 -2659 -84 -104 -169 -209 -188 -231 -35 -40 -35 -42 -16 -59
26 -24 64 -13 146 42 175 116 520 454 698 683 369 474 677 952 906 1410 122
243 260 589 376 940 37 113 69 206 70 208 7 10 1067 212 1112 212 140 0 183
-85 162 -324 -42 -474 -285 -1211 -616 -1866 -184 -364 -380 -631 -512 -699
-106 -54 -246 -15 -615 170 -75 38 -144 69 -152 69 -46 0 9 -95 124 -215 149
-155 227 -256 349 -454 70 -116 103 -155 144 -177 96 -50 258 34 460 239 210
211 376 467 555 851 253 543 522 1417 643 2086 12 68 48 151 80 185 10 11 33
51 50 89 l30 69 -19 41 c-11 23 -44 64 -73 93 -51 49 -376 263 -401 263 -7 0
-70 -29 -141 -65 -71 -36 -159 -74 -195 -85 -55 -17 -892 -200 -898 -196 -1 1
84 370 188 821 160 696 187 824 178 847 -15 37 -92 108 -177 162 -56 36 -363
177 -382 175 -3 0 -27 -16 -55 -35z"/>
</g>
</svg>
