<?xml version="1.0" standalone="no"?>
<!DOCTYPE svg PUBLIC "-//W3C//DTD SVG 20010904//EN"
 "http://www.w3.org/TR/2001/REC-SVG-20010904/DTD/svg10.dtd">
<svg version="1.0" xmlns="http://www.w3.org/2000/svg"
 width="1024.000000pt" height="1024.000000pt" viewBox="0 0 1024.000000 1024.000000"
 preserveAspectRatio="xMidYMid meet">
<metadata>
Created by potrace 1.10, written by Peter Selinger 2001-2011
</metadata>
<g transform="translate(0.000000,1024.000000) scale(0.100000,-0.100000)"
fill="#000000" stroke="none">
<path d="M6805 8835 c-27 -7 -63 -18 -78 -24 -16 -6 -61 -11 -100 -11 -40 0
-153 -15 -252 -34 l-181 -34 -343 18 c-364 19 -396 17 -435 -24 -11 -12 -47
-41 -78 -65 -32 -23 -58 -49 -59 -59 0 -9 -2 -79 -3 -154 l-2 -137 -41 -44
c-57 -61 -75 -124 -74 -250 0 -56 7 -126 13 -156 12 -51 11 -59 -16 -140 -27
-77 -30 -99 -30 -216 -1 -152 9 -181 88 -257 118 -114 239 -127 332 -37 l31
30 74 -62 c98 -83 217 -159 326 -211 48 -23 100 -50 115 -60 26 -18 42 -19
338 -9 305 10 310 10 353 35 51 30 57 31 57 11 0 -9 71 -129 159 -268 87 -139
162 -268 166 -287 4 -19 20 -66 36 -104 l29 -68 0 -274 c0 -364 -33 -615 -131
-999 -26 -104 -80 -325 -120 -490 -39 -165 -75 -303 -78 -306 -3 -4 -123 -1
-266 6 -143 7 -262 11 -265 8 -2 -2 1 -13 8 -23 12 -19 9 -20 -65 -20 -43 1
-251 9 -462 19 -270 13 -394 15 -417 8 -21 -6 -43 -25 -60 -50 -14 -22 -30
-35 -34 -31 -5 5 -148 212 -318 459 l-309 450 -119 98 c-257 212 -450 308
-704 351 -159 26 -261 22 -461 -18 -304 -61 -424 -110 -747 -304 -415 -250
-801 -522 -1152 -812 -74 -62 -194 -156 -266 -211 -144 -108 -166 -136 -144
-188 18 -45 52 -70 101 -77 l46 -6 629 482 c345 265 667 508 714 540 192 129
431 243 665 320 216 70 379 86 561 55 154 -27 238 -62 339 -142 72 -57 104
-75 161 -92 66 -20 79 -28 161 -109 49 -48 114 -118 145 -157 96 -121 418
-587 418 -606 0 -9 18 -46 39 -82 61 -100 191 -340 191 -353 0 -18 137 -104
165 -104 14 0 25 2 25 4 0 2 -9 25 -21 50 -16 38 -21 72 -23 169 -2 67 -7 130
-11 140 -4 11 -3 17 5 17 7 0 34 13 61 30 l48 29 163 -35 c151 -32 185 -36
469 -48 259 -12 317 -12 370 0 35 7 124 13 197 14 l133 0 -7 -58 c-5 -44 -1
-73 16 -130 14 -45 27 -71 34 -68 6 2 47 21 91 40 l80 35 6 98 c7 96 27 195
54 261 11 26 12 32 1 32 -15 0 72 374 147 630 87 298 150 633 183 970 27 280
4 435 -118 794 -66 196 -164 353 -307 488 -54 51 -101 103 -105 115 -16 53
-135 123 -208 123 -24 0 -23 -9 6 -39 13 -15 27 -35 30 -47 6 -19 -5 -22 -249
-64 l-255 -43 -172 104 c-95 57 -204 127 -241 155 -114 86 -252 219 -342 331
-69 86 -85 113 -85 140 0 32 -40 126 -59 137 -9 6 1 77 20 134 8 24 16 32 35
32 45 0 139 -46 315 -156 180 -112 284 -163 429 -209 118 -37 154 -39 372 -25
227 14 251 22 256 86 2 33 -2 44 -27 68 -28 27 -38 29 -263 57 -128 15 -237
28 -242 29 -5 0 11 21 37 47 42 42 88 129 87 166 -1 22 -49 49 -78 42 -15 -3
-73 -46 -130 -96 -72 -63 -107 -89 -120 -84 -9 3 -41 20 -71 39 -47 29 -51 35
-33 40 14 5 26 24 37 57 10 28 15 51 14 53 -2 1 -21 13 -42 25 -43 26 -65 24
-122 -14 l-38 -26 -91 45 c-50 25 -119 53 -154 62 l-63 18 6 65 c9 101 15 131
26 131 6 0 7 5 4 10 -8 14 29 12 230 -9 l170 -18 405 43 c223 24 419 41 436
38 21 -4 40 0 57 10 20 13 46 16 130 14 l106 -3 345 -270 c285 -223 347 -276
357 -304 11 -33 62 -112 100 -156 9 -11 22 -36 28 -55 20 -69 48 -139 59 -153
7 -8 19 -37 27 -64 8 -27 29 -69 46 -93 19 -25 72 -153 135 -318 57 -152 112
-288 123 -303 11 -15 26 -49 32 -76 7 -26 18 -55 25 -63 7 -9 20 -35 29 -59 8
-23 28 -63 45 -87 16 -25 30 -51 30 -58 0 -8 16 -40 35 -72 19 -32 35 -63 35
-69 0 -5 9 -27 20 -48 11 -20 20 -42 20 -49 0 -20 112 -292 130 -315 10 -13
21 -39 25 -60 3 -20 26 -65 51 -99 24 -34 51 -81 59 -105 9 -24 38 -82 64
-129 81 -141 361 -708 361 -731 0 -11 8 -33 19 -47 10 -15 22 -45 26 -67 4
-22 18 -73 31 -114 l24 -75 -20 -61 c-15 -44 -18 -73 -14 -107 7 -52 -23 -167
-76 -288 -15 -36 -45 -117 -65 -180 -21 -63 -46 -127 -56 -141 -10 -14 -33
-67 -53 -118 -19 -52 -46 -105 -59 -120 -27 -29 -76 -143 -102 -239 -15 -51
-46 -103 -179 -291 -88 -126 -165 -236 -171 -244 -11 -16 -3089 -839 -3245
-868 l-95 -17 -1575 209 c-866 115 -1606 209 -1645 209 -38 0 -265 20 -504 45
-238 25 -454 45 -479 45 -27 0 -57 -8 -76 -20 -41 -25 -80 -93 -72 -125 12
-46 59 -62 311 -105 209 -35 310 -45 788 -80 l548 -41 1247 -184 c1155 -170
1254 -183 1347 -178 91 4 250 44 1800 450 935 245 1706 450 1713 456 22 17
222 285 222 297 0 7 8 19 18 28 10 10 30 53 43 97 16 53 61 147 135 280 86
154 144 278 254 540 79 187 151 351 160 365 10 14 38 81 63 150 l46 125 -14
90 c-8 50 -15 134 -15 187 0 93 -1 100 -33 150 -42 67 -757 1564 -757 1586 0
31 -553 1289 -630 1432 -43 80 -81 156 -85 170 -14 47 -47 105 -79 139 -17 18
-103 80 -191 138 -139 92 -181 126 -325 267 -145 142 -172 164 -225 184 -135
50 -297 65 -400 37z m-1395 -1427 c0 -5 -7 -8 -16 -8 -22 0 -43 29 -43 60 0
24 0 24 29 -10 16 -19 30 -38 30 -42z"/>
<path d="M2914 6447 c-28 -8 -38 -23 -82 -116 -77 -162 -116 -304 -142 -511
-6 -47 -13 -98 -16 -114 l-6 -29 107 6 c60 3 112 10 118 16 5 5 22 85 38 178
23 133 39 192 75 282 57 141 58 191 3 247 -45 47 -58 53 -95 41z"/>
<path d="M4395 6375 c-56 -23 -215 -213 -320 -380 -53 -86 -100 -165 -102
-176 -4 -15 5 -24 49 -43 30 -13 79 -27 109 -31 l55 -7 133 200 c73 110 144
211 158 224 62 58 71 127 21 175 -50 46 -68 53 -103 38z"/>
<path d="M1375 6123 c-33 -9 -65 -35 -71 -58 -12 -47 157 -343 315 -555 47
-63 93 -130 102 -149 l15 -35 79 76 79 75 -123 207 c-68 113 -149 236 -180
273 -50 60 -178 174 -191 172 -3 -1 -14 -4 -25 -6z"/>
<path d="M7695 5716 c-42 -19 -50 -37 -86 -193 -18 -76 -43 -167 -57 -203
l-24 -65 6 -280 c11 -464 29 -610 96 -809 52 -155 77 -201 116 -215 32 -12 38
-10 84 19 l48 31 -45 102 c-25 56 -49 109 -54 118 -18 34 -79 379 -89 503 -26
329 2 632 80 863 l29 87 -32 28 c-37 32 -34 31 -72 14z"/>
<path d="M5367 5335 c-82 -51 -157 -101 -168 -111 -30 -27 -25 -77 12 -119 60
-68 117 -81 181 -42 51 31 207 175 229 211 43 70 12 127 -81 149 -20 5 -56
-14 -173 -88z"/>
<path d="M6755 4684 c3 -12 12 -41 20 -65 11 -34 14 -37 10 -13 -2 18 -11 47
-19 65 -9 19 -13 25 -11 13z"/>
<path d="M2707 3532 c-45 -50 18 -176 121 -240 99 -62 202 -78 572 -87 235 -6
254 -5 468 24 123 17 233 31 244 31 38 0 107 40 128 75 20 33 30 98 16 112 -4
4 -21 1 -39 -6 -81 -33 -253 -84 -362 -107 -100 -22 -156 -27 -334 -31 -277
-7 -486 19 -594 73 -57 29 -128 92 -158 140 -23 38 -39 42 -62 16z"/>
<path d="M5991 2996 c-19 -20 -22 -29 -14 -53 l10 -28 169 -11 c93 -7 205 -14
249 -17 93 -7 108 0 129 61 l14 40 -51 6 c-29 3 -133 8 -232 11 -99 3 -196 8
-215 11 -29 4 -40 0 -59 -20z"/>
</g>
</svg>
