<?xml version="1.0" standalone="no"?>
<!DOCTYPE svg PUBLIC "-//W3C//DTD SVG 20010904//EN"
 "http://www.w3.org/TR/2001/REC-SVG-20010904/DTD/svg10.dtd">
<svg version="1.0" xmlns="http://www.w3.org/2000/svg"
 width="1024.000000pt" height="1024.000000pt" viewBox="0 0 1024.000000 1024.000000"
 preserveAspectRatio="xMidYMid meet">
<metadata>
Created by potrace 1.10, written by Peter Selinger 2001-2011
</metadata>
<g transform="translate(0.000000,1024.000000) scale(0.100000,-0.100000)"
fill="#000000" stroke="none">
<path d="M9185 8769 c-4 -5 -15 -9 -25 -9 -11 0 -100 -57 -200 -127 -99 -71
-239 -166 -311 -212 -510 -327 -1025 -758 -1310 -1096 -348 -413 -625 -909
-792 -1422 -90 -274 -120 -433 -135 -723 -5 -85 -14 -164 -20 -175 -7 -13
-106 -63 -277 -139 -222 -99 -470 -229 -1515 -792 -984 -530 -1344 -730 -1695
-939 l-445 -266 -70 31 c-128 56 -202 69 -489 85 -147 8 -434 24 -640 35 -206
11 -395 18 -420 14 -130 -20 -138 -171 -10 -188 24 -3 330 -29 679 -56 349
-28 648 -54 665 -58 28 -7 26 -10 -75 -71 -58 -35 -125 -84 -149 -108 -54 -52
-132 -91 -214 -105 -58 -10 -100 -28 -66 -28 19 0 -2 -12 -396 -223 -224 -120
-234 -126 -249 -155 -40 -78 -12 -162 53 -162 29 0 301 89 351 115 14 7 105
63 203 124 98 61 180 111 182 111 2 0 119 70 260 155 140 85 255 152 255 149
0 -9 -114 -328 -155 -434 -71 -184 -200 -477 -292 -663 -101 -204 -107 -230
-74 -303 18 -40 63 -84 86 -84 21 0 79 44 101 78 12 18 32 65 44 105 21 70
119 260 168 325 14 18 30 56 37 85 17 73 213 558 235 582 9 11 21 37 24 58 4
20 23 70 41 109 34 69 35 77 35 188 l1 115 782 435 c430 239 1027 571 1327
738 584 327 671 373 995 529 116 56 347 169 515 251 416 203 401 185 430 521
27 297 31 321 107 560 160 508 358 891 671 1305 336 443 756 807 1487 1287
351 230 444 318 415 389 -15 36 -112 82 -125 59z"/>
<path d="M6011 3837 c-2 -16 22 -102 30 -111 6 -6 9 -4 8 5 -1 17 -37 118 -38
106z"/>
</g>
</svg>
