<?xml version="1.0" standalone="no"?>
<!DOCTYPE svg PUBLIC "-//W3C//DTD SVG 20010904//EN"
 "http://www.w3.org/TR/2001/REC-SVG-20010904/DTD/svg10.dtd">
<svg version="1.0" xmlns="http://www.w3.org/2000/svg"
 width="1024.000000pt" height="1024.000000pt" viewBox="0 0 1024.000000 1024.000000"
 preserveAspectRatio="xMidYMid meet">
<metadata>
Created by potrace 1.10, written by Peter Selinger 2001-2011
</metadata>
<g transform="translate(0.000000,1024.000000) scale(0.100000,-0.100000)"
fill="#000000" stroke="none">
<path d="M5220 9619 c-139 -12 -254 -34 -366 -70 -131 -42 -193 -71 -324 -152
-132 -82 -239 -182 -318 -301 -75 -113 -103 -178 -179 -421 l-68 -220 0 -175
c1 -193 14 -271 75 -428 32 -83 110 -220 160 -284 25 -31 27 -38 15 -48 -8 -7
-15 -27 -15 -45 0 -20 -6 -35 -15 -39 -9 -3 -15 -18 -15 -39 0 -51 -39 -137
-61 -137 -10 0 -55 -24 -101 -52 -79 -51 -86 -53 -188 -65 -58 -6 -404 -17
-770 -23 l-665 -11 -257 30 c-240 28 -259 32 -311 61 -30 17 -87 37 -128 45
-57 11 -394 105 -465 129 -6 2 -30 -4 -53 -15 -106 -47 -107 -235 -1 -307 18
-12 51 -25 72 -28 21 -4 38 -10 38 -14 0 -4 -40 -26 -89 -49 -49 -23 -97 -51
-106 -61 -25 -28 -31 -94 -11 -125 23 -35 66 -33 178 12 110 43 206 112 296
212 70 79 82 83 151 49 38 -18 42 -23 25 -29 -10 -4 -14 -8 -9 -9 24 -2 361
-41 470 -54 85 -11 335 -18 861 -25 629 -8 752 -8 810 4 60 13 138 45 214 88
14 8 47 25 74 38 75 37 167 131 210 217 30 59 41 72 54 67 33 -14 559 -127
747 -161 165 -29 211 -34 350 -34 l161 0 44 -46 c79 -80 181 -137 310 -172
l115 -31 1255 -36 c856 -25 1289 -41 1362 -51 95 -13 111 -13 136 0 35 18 51
37 62 73 l8 28 1 -31 c1 -36 17 -54 48 -54 45 0 18 -23 -69 -58 -17 -7 -31
-24 -39 -47 l-14 -37 -60 5 c-33 2 -460 -22 -950 -55 -489 -32 -982 -63 -1095
-68 -262 -13 -475 -47 -665 -107 -59 -18 -272 -110 -299 -129 -13 -9 -24 -10
-42 -2 -31 15 -51 5 -69 -34 -14 -31 -9 -63 118 -683 74 -357 133 -651 133
-652 -1 -1 -418 -36 -928 -79 l-928 -78 -22 21 c-34 31 -83 53 -118 53 -16 0
-30 5 -30 10 0 6 29 191 65 413 90 564 90 559 89 847 0 209 -4 280 -22 395
-30 195 -21 187 -273 226 -191 29 -206 29 -889 44 -382 8 -773 15 -868 15
l-172 0 2 -42 3 -42 -50 -15 c-62 -20 -123 -65 -131 -98 -5 -19 -11 -23 -27
-19 -11 3 -28 1 -37 -4 -33 -18 -118 -164 -145 -250 -23 -75 -25 -89 -15 -132
14 -56 26 -68 78 -75 36 -5 42 -2 65 29 35 45 54 92 62 153 3 28 18 85 32 128
25 74 28 77 58 77 17 0 78 16 136 36 l104 35 805 5 c772 6 810 5 938 -14 74
-12 136 -23 139 -26 3 -3 10 -96 15 -208 10 -198 9 -215 -31 -658 -23 -250
-45 -473 -51 -495 -5 -22 -10 -58 -10 -81 0 -38 -68 -388 -205 -1049 -30 -148
-66 -301 -79 -340 -14 -38 -27 -82 -30 -97 -4 -15 -17 -44 -31 -64 -14 -20
-25 -41 -25 -46 0 -42 77 -90 123 -77 16 4 34 12 41 18 10 8 29 3 72 -19 32
-16 67 -30 77 -30 16 0 16 -3 -3 -39 -11 -22 -220 -324 -465 -671 -246 -348
-457 -649 -469 -669 -15 -24 -29 -72 -40 -141 -16 -99 -21 -112 -86 -220 -40
-68 -71 -132 -75 -157 l-7 -42 -99 -31 c-202 -63 -394 -185 -580 -370 -155
-154 -239 -264 -251 -332 -10 -52 -1 -81 30 -97 10 -5 106 -21 214 -35 l196
-26 493 70 c272 38 523 79 559 90 36 11 77 22 92 25 37 7 42 32 29 155 -11
115 -41 181 -113 257 l-40 41 44 59 c24 32 71 96 103 143 33 47 93 132 134
190 65 91 76 111 76 147 l0 42 181 142 180 143 379 481 c208 264 407 507 440
540 53 52 66 73 95 150 35 91 43 162 27 215 -7 24 -5 26 36 37 32 9 52 23 72
50 36 48 39 50 91 58 l43 6 3 112 3 112 64 -118 c68 -124 106 -167 148 -167
15 0 36 -11 49 -25 14 -15 34 -25 51 -25 15 0 33 -4 39 -8 16 -10 24 -110 12
-164 -14 -67 -2 -102 140 -433 204 -476 312 -704 389 -827 87 -139 166 -240
264 -343 73 -76 108 -124 216 -305 71 -118 135 -225 143 -237 14 -22 8 -29
-157 -195 -181 -183 -212 -227 -232 -332 -7 -38 -5 -51 8 -66 15 -19 46 -21
503 -41 l487 -22 303 31 c289 30 312 31 511 22 198 -10 209 -9 247 10 44 23
70 54 70 87 0 32 -110 190 -198 284 -110 118 -250 219 -411 296 -73 35 -174
89 -223 120 -98 60 -229 124 -297 145 -43 12 -46 16 -87 103 -23 50 -59 140
-80 200 -35 102 -42 114 -96 166 -38 37 -58 65 -58 80 0 13 -90 274 -200 580
-110 307 -200 569 -200 584 0 22 -42 132 -116 303 -19 45 -19 45 25 70 59 34
99 91 137 199 29 81 34 107 29 148 -12 102 -86 205 -148 205 -25 0 -27 7 -132
433 -83 336 -127 545 -200 942 -52 281 -102 538 -112 572 -9 34 -15 65 -11 68
10 11 242 75 358 100 201 42 320 52 1488 130 l1132 75 79 -45 c132 -76 248
-107 287 -75 10 10 39 15 75 15 54 0 61 3 95 37 22 22 35 42 31 51 -3 8 -48
45 -99 82 l-93 67 88 -7 c105 -9 136 1 166 55 25 46 21 60 -28 95 -32 21 -40
34 -44 68 -4 30 -15 50 -37 70 l-31 28 25 30 c52 61 27 111 -61 125 -41 6 -43
8 -43 40 0 50 -40 90 -105 105 l-53 12 -125 -61 c-105 -50 -131 -67 -157 -104
-18 -23 -37 -56 -42 -72 l-11 -28 -121 6 c-66 4 -668 26 -1336 51 -668 24
-1240 49 -1270 55 -62 11 -168 60 -194 89 -10 10 -23 45 -31 76 l-13 57 64 78
c75 93 159 220 204 310 18 36 52 92 75 125 273 385 255 957 -43 1391 -57 83
-268 270 -357 316 -109 56 -167 70 -320 73 -77 2 -187 -1 -245 -6z m460 -209
c54 -20 162 -104 235 -182 59 -64 163 -214 154 -222 -2 -2 -110 23 -239 55
l-235 59 -491 14 c-399 11 -504 11 -565 1 l-74 -13 40 35 c139 123 385 217
675 258 117 17 448 14 500 -5z m-520 -525 c620 -15 662 -17 790 -41 198 -37
191 -33 220 -106 23 -58 25 -75 25 -233 0 -219 -12 -263 -132 -505 -90 -183
-94 -188 -272 -407 -100 -122 -181 -229 -181 -237 0 -21 -8 -21 -346 14 -159
16 -336 34 -394 40 -117 11 -249 44 -355 88 -65 26 -71 31 -83 70 -9 26 -40
71 -82 117 -79 87 -138 194 -176 320 -25 83 -27 104 -28 265 0 195 17 315 60
409 13 29 24 62 24 73 0 11 19 51 42 90 l41 70 96 -6 c53 -3 391 -13 751 -21z
m946 -4495 c59 -218 112 -395 122 -410 11 -14 31 -26 45 -28 23 -3 25 -6 16
-34 -5 -18 -6 -49 -3 -70 6 -34 4 -38 -22 -48 -15 -6 -38 -9 -50 -6 -12 3
-135 -21 -274 -54 l-253 -59 -179 2 -179 1 -117 229 c-110 215 -123 236 -215
341 -54 61 -101 112 -106 114 -5 2 -25 -11 -45 -29 -33 -29 -36 -35 -36 -88 0
-69 57 -517 70 -548 12 -28 5 -29 -57 -4 l-48 18 -370 -53 c-203 -29 -388 -53
-411 -54 -35 0 -293 47 -302 55 -2 2 10 52 27 112 16 59 65 293 107 518 42
226 78 412 80 414 2 2 17 -8 33 -22 61 -51 64 -51 621 -37 l516 12 445 58
c244 32 453 58 463 57 16 -2 34 -56 122 -387z m74 -799 c-24 -45 0 -180 46
-258 13 -23 24 -48 24 -57 0 -8 27 -85 60 -171 33 -86 60 -167 60 -180 0 -13
11 -47 25 -77 14 -29 25 -64 25 -76 0 -13 16 -52 35 -86 19 -35 35 -71 35 -81
0 -10 45 -154 99 -319 55 -166 102 -322 106 -348 l6 -47 -53 -27 c-29 -14 -90
-50 -135 -79 -91 -60 -88 -60 -135 20 -13 23 -74 111 -137 197 -103 140 -138
201 -339 585 -178 339 -234 457 -272 567 l-49 139 11 83 c8 57 8 90 1 106
l-10 23 286 52 c339 61 325 59 311 34z m-1598 -213 c-24 -98 -28 -105 -75
-147 -48 -44 -167 -209 -167 -232 0 -6 -39 -54 -87 -107 -199 -215 -417 -490
-438 -551 -7 -19 -63 -79 -150 -159 -148 -135 -213 -186 -283 -221 -55 -28
-85 -74 -79 -122 4 -29 -1 -43 -28 -74 l-32 -39 -67 28 c-59 25 -74 38 -129
107 -34 43 -65 89 -68 102 -5 18 11 53 68 148 41 68 82 133 92 144 10 11 151
205 312 430 162 226 329 451 371 500 53 63 84 109 99 150 12 33 26 64 29 68 4
5 149 23 321 41 173 19 319 34 325 35 8 1 3 -35 -14 -101z m2308 -1770 c34
-73 64 -138 67 -145 2 -6 -9 -19 -26 -28 l-32 -16 -92 84 c-51 47 -108 98
-127 115 -19 17 -33 32 -30 35 7 7 164 86 171 87 3 0 34 -60 69 -132z m-3781
-29 c17 -6 31 -14 31 -17 0 -7 -101 -162 -106 -162 -1 0 -19 10 -39 21 l-36
21 34 42 c19 22 42 56 51 74 18 36 20 36 65 21z m-211 -191 c-18 -28 -60 -35
-77 -14 -11 13 -11 17 0 20 22 7 52 14 73 15 17 1 17 -1 4 -21z m-141 -80 c28
-17 59 -24 122 -28 l85 -5 -3 -56 c-2 -53 0 -59 38 -103 23 -26 41 -53 41 -59
0 -7 11 -29 25 -49 24 -35 33 -78 17 -78 -4 0 -216 -27 -471 -60 -384 -50
-484 -60 -582 -58 l-119 3 51 77 c59 91 152 180 267 255 111 74 220 119 355
150 62 13 114 27 116 29 8 8 20 4 58 -18z m4519 -27 c35 -21 94 -51 132 -66
223 -92 233 -98 406 -236 l168 -134 -49 -7 c-64 -11 -1500 -110 -1522 -106
-15 2 -9 17 37 86 63 96 151 189 237 251 71 52 85 68 85 97 0 18 7 22 51 28
34 5 81 24 143 59 87 50 119 59 224 66 13 0 52 -16 88 -38z"/>
<path d="M5009 8383 c-8 -2 -23 -17 -32 -32 -14 -25 -17 -59 -17 -220 0 -209
6 -241 55 -279 31 -25 96 -30 113 -9 11 13 32 219 32 313 0 84 -18 132 -70
186 -26 27 -51 47 -56 47 -5 -1 -16 -3 -25 -6z"/>
<path d="M1372 6830 c-97 -70 -115 -80 -153 -80 -91 0 -175 -71 -150 -126 7
-17 29 -29 83 -46 40 -12 90 -22 110 -22 l37 -1 -40 -41 c-39 -40 -40 -42 -33
-92 6 -49 8 -52 40 -58 57 -11 135 29 227 115 87 81 93 139 21 186 l-32 20 54
50 c68 64 72 97 19 144 -20 17 -44 31 -54 31 -10 0 -68 -36 -129 -80z"/>
</g>
</svg>
