<?xml version="1.0" standalone="no"?>
<!DOCTYPE svg PUBLIC "-//W3C//DTD SVG 20010904//EN"
 "http://www.w3.org/TR/2001/REC-SVG-20010904/DTD/svg10.dtd">
<svg version="1.0" xmlns="http://www.w3.org/2000/svg"
 width="1024.000000pt" height="1024.000000pt" viewBox="0 0 1024.000000 1024.000000"
 preserveAspectRatio="xMidYMid meet">
<metadata>
Created by potrace 1.10, written by Peter Selinger 2001-2011
</metadata>
<g transform="translate(0.000000,1024.000000) scale(0.100000,-0.100000)"
fill="#000000" stroke="none">
<path d="M5268 8693 c-50 -13 -109 -195 -149 -453 -24 -155 -36 -531 -22 -647
l9 -73 -70 -29 c-39 -16 -233 -95 -431 -176 -282 -116 -451 -193 -780 -357
-408 -205 -433 -218 -885 -504 -456 -288 -474 -300 -895 -627 -266 -206 -435
-343 -443 -361 -8 -15 -11 -38 -8 -51 9 -35 55 -85 78 -85 26 0 20 -4 453 330
298 231 444 335 751 537 342 224 426 274 814 483 238 128 517 271 619 318 308
140 787 330 800 317 5 -6 69 -2807 70 -3085 l0 -145 -546 -555 -547 -554 -665
-565 c-554 -469 -714 -612 -954 -845 -159 -154 -295 -293 -303 -308 -8 -15
-14 -40 -14 -56 0 -35 34 -82 59 -82 10 0 470 400 1023 889 916 810 1050 932
1499 1371 277 270 510 490 531 500 l37 17 138 -125 c410 -372 496 -463 1378
-1447 l861 -960 224 -167 c163 -123 231 -168 251 -168 47 0 78 18 96 55 16 34
16 36 -3 63 -11 15 -36 35 -55 44 -19 10 -185 156 -371 325 l-336 308 -497
575 c-273 316 -554 640 -623 720 -201 228 -465 487 -747 729 l-260 223 3 166
c2 92 9 454 17 805 l14 638 -44 812 c-24 446 -43 812 -42 813 1 0 117 -34 257
-76 l255 -78 993 -457 994 -456 386 -241 c213 -132 394 -247 403 -254 13 -11
122 -32 176 -34 6 0 16 14 22 31 13 37 -1 70 -51 119 -31 31 -119 80 -145 80
-6 0 -175 107 -375 239 l-363 238 -800 375 c-440 206 -858 399 -928 427 -165
67 -475 170 -644 215 -130 34 -183 59 -203 96 -6 10 -10 91 -10 178 0 240 25
449 76 643 57 220 57 248 -6 311 -21 21 -42 37 -46 37 -5 -1 -17 -3 -26 -6z"/>
</g>
</svg>
