<?xml version="1.0" standalone="no"?>
<!DOCTYPE svg PUBLIC "-//W3C//DTD SVG 20010904//EN"
 "http://www.w3.org/TR/2001/REC-SVG-20010904/DTD/svg10.dtd">
<svg version="1.0" xmlns="http://www.w3.org/2000/svg"
 width="1024.000000pt" height="1024.000000pt" viewBox="0 0 1024.000000 1024.000000"
 preserveAspectRatio="xMidYMid meet">
<metadata>
Created by potrace 1.10, written by Peter Selinger 2001-2011
</metadata>
<g transform="translate(0.000000,1024.000000) scale(0.100000,-0.100000)"
fill="#000000" stroke="none">
<path d="M4120 9634 c-30 -38 -59 -74 -63 -81 -6 -9 11 -34 52 -79 105 -115
169 -269 190 -455 22 -196 -17 -1115 -70 -1633 -31 -305 -131 -1038 -144
-1054 -3 -3 -188 -36 -1015 -177 -587 -100 -780 -129 -960 -145 -124 -11 -250
-20 -280 -20 -30 0 -229 28 -442 62 -214 34 -390 60 -392 57 -2 -2 6 -59 18
-126 l21 -123 160 -137 c240 -206 378 -307 507 -368 40 -19 84 -35 98 -35 65
0 298 54 415 96 409 145 717 224 1330 338 248 46 452 82 454 80 9 -8 -165
-727 -234 -969 -315 -1104 -850 -2160 -1490 -2940 -466 -568 -977 -1015 -1622
-1418 -81 -52 -164 -124 -163 -145 0 -4 14 -22 30 -40 35 -37 55 -39 166 -16
288 59 691 282 1211 670 263 197 345 268 523 451 745 768 1263 1600 1630 2618
157 437 330 1053 456 1633 21 94 41 169 45 165 40 -45 913 -1368 1021 -1548
820 -1363 1708 -2723 2388 -3660 96 -132 194 -261 217 -286 47 -50 119 -94
173 -104 19 -3 339 6 711 20 l676 26 103 29 c56 16 104 31 106 33 6 6 -167
136 -360 271 -655 454 -1365 1059 -1748 1488 -460 516 -1249 1476 -1889 2298
-497 637 -644 823 -917 1158 -172 211 -312 387 -312 391 0 5 21 11 48 14 26 3
124 18 217 32 639 97 1280 167 1775 194 431 24 548 23 985 -3 231 -14 445 -26
475 -26 125 0 198 51 220 153 11 55 10 61 -15 112 -19 39 -59 86 -145 168
l-119 114 -200 82 c-144 58 -207 79 -228 76 -15 -3 -161 -25 -323 -50 -162
-24 -850 -128 -1528 -230 -679 -103 -1235 -185 -1237 -183 -2 2 1 28 6 58 14
89 77 602 93 765 15 144 49 597 61 815 4 58 29 342 56 633 45 483 48 530 34
563 -20 48 -119 150 -213 217 -89 64 -322 186 -402 210 -110 33 -100 35 -160
-39z"/>
</g>
</svg>
