<?xml version="1.0" standalone="no"?>
<!DOCTYPE svg PUBLIC "-//W3C//DTD SVG 20010904//EN"
 "http://www.w3.org/TR/2001/REC-SVG-20010904/DTD/svg10.dtd">
<svg version="1.0" xmlns="http://www.w3.org/2000/svg"
 width="1024.000000pt" height="1024.000000pt" viewBox="0 0 1024.000000 1024.000000"
 preserveAspectRatio="xMidYMid meet">
<metadata>
Created by potrace 1.10, written by Peter Selinger 2001-2011
</metadata>
<g transform="translate(0.000000,1024.000000) scale(0.100000,-0.100000)"
fill="#000000" stroke="none">
<path d="M5360 9491 c-85 -76 -172 -157 -192 -180 -41 -46 -41 -46 -103 -30
-112 28 -227 -21 -307 -131 -26 -36 -70 -91 -98 -123 -68 -78 -134 -219 -126
-268 4 -22 0 -54 -9 -79 -17 -47 -20 -90 -6 -90 4 0 -2 -21 -15 -47 -16 -31
-24 -63 -24 -100 l0 -53 -46 0 c-60 0 -77 -11 -98 -62 -10 -24 -22 -51 -27
-61 -13 -23 7 -92 38 -134 13 -18 43 -46 66 -62 41 -28 43 -32 42 -78 0 -26 8
-74 17 -106 23 -74 104 -195 157 -231 22 -16 41 -31 41 -35 0 -3 -21 -33 -45
-65 -25 -33 -45 -65 -45 -72 0 -7 -24 -17 -57 -24 -32 -6 -69 -19 -83 -29 -34
-24 -66 -31 -199 -42 -107 -8 -130 -7 -350 27 -130 19 -443 66 -696 105 -253
38 -473 69 -490 69 -16 0 -125 31 -242 69 -193 63 -220 75 -301 130 -49 34
-93 61 -99 61 -5 0 -18 -9 -28 -20 -16 -18 -19 -40 -19 -179 -1 -88 -4 -163
-8 -167 -11 -10 -85 44 -123 91 -18 22 -42 60 -54 83 -25 50 -75 214 -86 282
-4 25 -27 101 -51 170 -47 135 -87 190 -139 190 -66 0 -104 -118 -70 -215 4
-11 -10 5 -31 35 -38 55 -151 171 -211 217 -26 20 -36 22 -52 14 -32 -18 -43
-77 -26 -135 8 -27 13 -51 10 -54 -2 -3 -26 11 -51 32 -55 42 -109 49 -139 16
-27 -30 -22 -66 15 -102 32 -34 55 -68 45 -68 -3 0 -19 10 -35 22 -20 15 -49
23 -88 26 -93 7 -107 -23 -62 -140 10 -27 14 -48 9 -48 -14 0 -49 -43 -49 -61
0 -9 7 -29 14 -45 8 -15 13 -31 10 -35 -2 -5 20 -26 49 -48 30 -22 68 -57 86
-79 39 -50 108 -94 186 -120 128 -42 260 -93 275 -106 8 -8 35 -24 59 -36 25
-12 51 -29 59 -36 7 -8 19 -14 26 -14 7 0 39 -20 72 -44 32 -24 104 -63 159
-86 55 -24 108 -51 117 -61 16 -16 17 -33 8 -201 -17 -312 -18 -299 18 -339
l27 -31 52 21 c36 14 67 19 100 16 26 -2 138 -7 248 -10 l200 -6 383 -119 382
-118 71 -58 c216 -177 498 -579 544 -777 8 -35 21 -81 28 -103 13 -37 13 -40
-9 -63 -23 -25 -35 -81 -22 -105 6 -10 -24 -38 -115 -104 -164 -121 -309 -251
-572 -516 -235 -236 -346 -369 -468 -561 l-77 -120 31 -6 c17 -4 43 -17 58
-28 14 -12 41 -28 60 -37 30 -14 32 -17 19 -32 -8 -9 -33 -51 -56 -93 -65
-121 -135 -367 -187 -664 -15 -82 -60 -292 -101 -467 -41 -175 -76 -339 -78
-365 -2 -27 -7 -86 -11 -133 l-6 -85 83 -61 c46 -34 118 -78 161 -99 42 -21
77 -39 77 -42 0 -2 -14 -31 -31 -64 -38 -76 -83 -213 -99 -304 -6 -38 -21
-100 -33 -137 l-21 -67 -240 -59 -241 -59 -64 24 c-79 29 -156 30 -281 3 -125
-27 -146 -36 -170 -75 -50 -80 -1 -223 92 -271 29 -15 284 -45 1007 -120 253
-26 266 -26 317 -10 100 31 178 154 159 248 -4 18 -16 64 -27 101 -25 85 -22
203 8 260 10 21 78 127 149 237 l130 200 200 -6 c268 -9 281 -3 353 165 49
113 313 1191 346 1411 28 188 37 223 66 285 10 22 22 49 25 60 7 20 7 20 15 0
4 -11 11 -44 15 -72 5 -40 11 -53 23 -53 13 0 22 -23 38 -108 19 -91 48 -186
105 -337 7 -16 33 -91 59 -165 59 -170 157 -429 170 -452 6 -10 10 -23 10 -29
0 -6 16 -37 36 -70 20 -32 51 -95 69 -139 51 -126 123 -238 174 -271 53 -34
134 -46 205 -30 28 6 100 40 161 75 60 34 135 75 165 89 30 15 70 37 88 49 39
24 52 15 52 -38 0 -60 48 -222 98 -330 27 -60 67 -153 87 -207 20 -53 54 -124
75 -156 82 -126 241 -257 342 -281 91 -22 293 22 443 97 39 20 161 87 272 149
111 63 211 114 222 114 11 0 45 -12 74 -26 40 -20 61 -39 87 -79 31 -48 43
-57 143 -106 117 -57 127 -68 184 -181 14 -27 36 -54 52 -63 32 -16 143 -23
181 -11 37 12 78 55 86 90 19 81 7 131 -90 360 -52 121 -142 336 -201 476
-146 346 -146 347 -206 344 -19 -1 -84 -2 -146 -3 l-112 -1 -35 -57 c-56 -93
-234 -232 -411 -321 -104 -52 -145 -59 -201 -31 -39 18 -49 31 -92 117 -41 81
-52 117 -70 220 -12 67 -22 141 -22 165 0 27 -9 56 -25 82 -13 22 -25 43 -25
46 0 15 251 151 422 229 171 78 195 92 287 170 56 47 101 90 101 96 0 18 -30
39 -110 79 -200 100 -559 310 -713 417 -53 37 -141 95 -195 129 -109 69 -142
96 -183 153 -35 47 -35 53 -8 61 31 10 96 118 110 183 15 73 3 146 -46 277
-38 103 -160 361 -214 451 l-30 51 97 6 c150 8 320 69 368 133 32 41 35 109 7
157 -19 31 -23 33 -235 83 -119 28 -244 54 -278 57 -67 5 -82 12 -51 22 16 5
18 11 12 28 -5 12 -7 31 -5 42 16 103 37 145 97 193 23 18 71 57 107 88 160
136 350 249 765 454 220 108 447 220 505 248 703 336 1186 597 1229 661 12 19
16 49 16 116 0 86 -2 96 -38 166 -20 41 -37 81 -37 90 0 10 67 48 207 115 114
54 214 106 222 115 9 8 90 67 181 129 91 63 183 132 205 154 57 57 80 72 133
87 53 14 329 187 353 221 27 39 31 65 14 97 -8 17 -25 35 -36 42 -16 8 -18 14
-10 22 6 6 11 30 11 53 0 40 -2 42 -34 48 -22 4 -48 1 -72 -9 -48 -20 -51 -19
-27 8 31 33 53 81 59 131 l6 44 -40 4 c-59 5 -97 -8 -137 -48 -39 -39 -39 -39
-24 40 8 43 7 61 -2 72 -26 31 -53 15 -126 -70 l-70 -85 -13 77 c-13 80 -27
102 -65 102 -22 0 -95 -68 -95 -89 0 -7 -9 -33 -19 -59 -11 -26 -29 -89 -40
-140 -24 -105 -23 -102 -139 -265 -89 -124 -154 -188 -231 -230 -43 -24 -343
-137 -362 -137 -5 0 -9 6 -9 13 0 7 -8 28 -19 47 -10 19 -26 59 -36 88 -20 61
-58 92 -114 92 -19 0 -359 -88 -755 -195 l-721 -194 -360 -36 c-198 -19 -454
-45 -569 -56 l-210 -21 -92 27 c-82 24 -97 32 -142 79 -48 49 -51 55 -64 138
l-15 87 51 65 c34 44 60 68 78 72 37 9 200 197 191 222 -11 32 -54 82 -70 82
-29 0 -7 113 42 216 60 126 75 183 75 283 -1 108 -12 156 -44 190 -24 25 -25
31 -17 74 4 26 13 52 19 59 5 7 29 49 52 93 23 44 49 88 57 97 26 29 63 118
63 151 0 38 -30 105 -56 129 -26 23 -80 45 -129 51 -40 6 -42 4 -195 -132z
m-297 -729 c43 -30 101 -63 130 -74 54 -20 107 -62 107 -85 0 -7 11 -30 25
-51 15 -22 32 -74 44 -131 19 -92 19 -102 8 -131 -12 -35 -39 -117 -46 -147
-14 -52 -35 -92 -50 -95 -8 -2 -19 -19 -26 -38 -9 -28 -37 -54 -138 -130 -70
-52 -137 -107 -150 -122 -46 -56 -213 -64 -284 -15 -64 45 -123 156 -128 242
-1 22 -8 58 -14 80 -15 55 -13 148 4 220 8 33 15 82 15 109 l0 49 97 -6 c134
-8 175 15 152 82 -14 40 -55 55 -125 47 -31 -3 -65 -11 -75 -17 -21 -11 -26 4
-10 31 6 8 7 18 4 24 -14 21 -10 72 5 90 29 32 98 67 154 77 119 22 134 26
163 41 36 19 41 17 138 -50z m4164 -244 c-2 -13 -7 -30 -10 -38 -3 -8 -11 -32
-17 -53 -7 -22 -19 -51 -27 -65 -13 -26 -14 -25 -8 23 7 55 44 155 57 155 5 0
7 -10 5 -22z m-41 -282 c16 -11 24 -26 24 -45 0 -20 8 -34 25 -45 14 -9 25
-25 25 -35 0 -14 9 -21 30 -25 17 -3 43 -8 58 -11 15 -3 34 -15 41 -28 13 -19
11 -23 -14 -42 -16 -11 -105 -81 -199 -155 -153 -120 -198 -149 -431 -276
l-260 -142 -57 112 c-31 61 -57 118 -57 127 -1 11 18 21 67 34 169 45 392 148
449 207 53 55 192 258 231 338 l37 75 3 -37 c2 -26 10 -41 28 -52z m-4731 39
c-4 -16 -6 -50 -6 -75 l2 -45 -25 30 c-27 32 -32 59 -16 99 6 17 16 24 30 23
19 -1 21 -6 15 -32z m-3144 -117 c11 -24 34 -56 51 -73 41 -42 118 -152 135
-194 19 -46 50 -70 89 -71 66 0 72 55 20 190 -20 52 -39 115 -42 140 -4 43 -2
41 46 -55 46 -94 50 -105 50 -176 0 -53 4 -80 14 -88 7 -6 16 -28 18 -49 3
-21 28 -86 56 -145 57 -121 123 -197 207 -236 40 -19 46 -25 41 -44 -3 -12 -6
-34 -6 -49 0 -18 -5 -28 -15 -28 -8 0 -17 -11 -21 -25 -3 -14 -9 -25 -12 -25
-3 0 -98 47 -211 105 -137 70 -216 117 -236 139 -32 35 -74 54 -140 63 -92 11
-238 82 -284 137 -12 14 -9 15 35 10 27 -3 61 -7 76 -9 39 -6 56 19 36 53
l-16 27 38 -3 c47 -5 54 5 51 74 -1 30 1 54 4 54 3 0 18 -13 33 -30 18 -21 38
-31 62 -32 33 -3 35 -1 38 29 4 41 -26 110 -70 159 -38 42 -72 110 -83 162 -9
46 10 41 36 -10z m4132 -4 c-9 -15 -19 -21 -21 -15 -4 13 16 41 29 41 5 0 2
-12 -8 -26z m4164 -34 c-28 -22 -37 -25 -37 -10 0 6 10 15 23 20 36 14 41 11
14 -10z m-8653 -129 c3 -5 30 -23 59 -39 54 -30 94 -71 134 -136 44 -71 0 -45
-115 68 -71 70 -110 116 -100 116 9 0 19 -4 22 -9z m7192 -168 c3 -16 18 -62
34 -103 15 -41 53 -160 85 -265 31 -104 61 -200 66 -212 4 -12 11 -46 15 -75
3 -29 15 -77 27 -105 11 -29 19 -55 16 -57 -11 -11 -1096 -543 -1367 -669
-375 -176 -748 -388 -962 -548 -68 -51 -192 -159 -275 -240 l-150 -147 -404
-47 c-222 -25 -405 -44 -407 -42 -3 3 1 41 9 86 10 57 11 96 5 133 -9 50 -3
76 98 443 58 215 112 401 119 415 7 14 38 111 70 215 32 105 63 199 70 210 7
11 35 74 63 140 55 133 150 333 181 381 18 30 21 31 97 33 44 1 95 4 114 6 19
2 96 6 170 9 74 4 155 9 180 11 25 2 106 7 180 10 74 4 155 8 180 11 25 3 430
101 900 219 470 117 861 214 867 214 7 1 15 -11 19 -26z m-3011 -155 c7 -32
43 -125 70 -181 13 -26 12 -30 -21 -65 -18 -20 -34 -40 -34 -45 0 -4 -17 -26
-39 -50 -28 -31 -55 -83 -101 -195 -35 -84 -67 -155 -71 -158 -5 -3 -14 8 -20
23 -83 208 -187 354 -284 400 -36 17 -39 49 -4 38 11 -4 28 -4 39 0 23 7 72
77 91 129 l13 36 66 0 c82 0 149 19 220 64 30 19 58 34 62 35 3 1 10 -14 13
-31z m-2838 -72 c65 -24 146 -56 181 -71 93 -39 195 -58 272 -51 53 5 166 -9
594 -74 336 -51 562 -90 620 -107 77 -23 109 -27 211 -27 85 0 137 5 179 18
32 9 62 14 66 9 4 -4 48 -105 99 -223 51 -118 99 -222 106 -230 7 -8 29 -54
49 -101 24 -56 51 -99 76 -124 l39 -38 -30 -81 c-147 -393 -195 -574 -204
-761 -5 -115 -10 -144 -24 -160 -21 -23 -48 -197 -37 -241 l7 -27 -93 7 c-84
5 -202 26 -214 38 -2 3 -11 41 -19 84 -9 53 -34 123 -75 212 -33 74 -69 161
-81 194 -34 102 -255 369 -379 456 -36 26 -92 67 -125 93 -101 79 -229 157
-348 214 -171 83 -277 101 -627 110 -242 5 -341 13 -429 31 -23 5 -23 7 -17
77 8 101 14 178 31 447 8 129 17 253 20 275 2 22 4 52 4 68 1 17 6 27 16 27 8
0 67 -20 132 -44z m3033 -186 c18 -9 15 -16 -37 -88 -67 -93 -130 -216 -172
-337 -18 -49 -38 -97 -46 -105 -8 -9 -39 -96 -71 -195 -31 -99 -64 -200 -74
-225 -9 -25 -22 -63 -28 -85 -6 -22 -33 -105 -61 -185 -56 -164 -101 -332
-142 -530 -15 -74 -28 -122 -28 -106 -2 55 41 460 50 478 5 9 9 30 9 46 0 33
19 93 54 167 14 27 32 79 40 115 9 36 28 85 41 110 13 25 37 80 53 122 17 43
42 87 56 100 19 17 29 39 37 83 21 115 106 308 198 450 27 41 53 90 56 108 8
35 32 87 41 87 3 0 14 -5 24 -10z m-761 -72 c56 -61 166 -207 206 -276 63
-107 109 -229 97 -256 -8 -18 -19 -1 -80 119 -49 98 -101 181 -171 274 -102
136 -106 142 -94 154 11 11 20 8 42 -15z m112 -1916 c5 -24 7 -59 3 -78 -6
-31 -9 -34 -40 -34 -19 0 -34 1 -34 3 0 2 11 37 25 77 14 40 26 85 26 99 l2
26 4 -25 c2 -14 8 -44 14 -68z m-571 -287 c31 -33 57 -40 252 -66 158 -22 167
-24 163 -44 -3 -11 -19 -171 -35 -355 -17 -184 -37 -405 -45 -490 -8 -85 -15
-160 -15 -166 0 -7 -37 -31 -82 -55 -76 -39 -99 -46 -271 -74 -161 -27 -208
-32 -340 -30 -261 4 -475 36 -727 107 -41 12 -77 23 -79 24 -7 5 92 139 198
269 133 162 512 550 623 636 45 35 130 110 188 166 64 63 113 103 126 103 11
0 31 -11 44 -25z m1941 -71 c37 -8 89 -24 115 -35 l49 -20 -175 5 c-96 3 -180
6 -186 6 -7 0 -14 8 -17 18 -2 9 -8 25 -12 35 -7 17 -2 18 76 12 46 -3 114
-13 150 -21z m-652 3 c-18 -15 -420 -216 -415 -208 12 19 171 120 232 147 95
42 206 79 183 61z m-489 -34 c0 -1 -22 -14 -48 -27 -128 -65 -182 -212 -102
-280 37 -31 98 -41 204 -33 125 10 218 46 364 140 40 26 75 47 77 47 20 0 -21
-69 -201 -336 -179 -266 -205 -309 -199 -333 8 -38 48 -75 72 -66 28 10 96
100 253 335 l144 215 9 -45 c43 -223 155 -430 233 -430 29 0 161 -54 185 -76
26 -23 64 -18 77 11 21 45 15 84 -17 116 -16 16 -37 29 -46 29 -47 0 -96 45
-160 148 l-66 105 6 131 c4 72 8 136 10 142 4 14 51 7 63 -10 20 -24 208 -366
243 -441 21 -44 49 -121 64 -170 26 -89 26 -91 10 -162 -11 -50 -21 -74 -33
-77 -103 -31 -388 -79 -576 -97 -206 -19 -584 -16 -736 7 -43 7 -74 26 -97 60
-15 24 -17 66 -14 473 2 335 6 467 17 530 8 46 16 87 19 90 3 6 245 10 245 4z
m-1718 -1258 c269 -32 466 -47 563 -41 55 3 181 8 280 12 159 5 210 11 278 30
26 8 21 -10 -17 -54 -27 -33 -35 -53 -40 -104 -8 -65 -253 -1259 -282 -1371
-21 -80 -72 -214 -117 -303 l-35 -70 -65 -12 c-35 -7 -102 -10 -148 -7 -46 2
-131 7 -188 10 -57 3 -108 8 -113 12 -6 3 -93 18 -194 33 -121 18 -190 32
-202 43 -10 9 -27 13 -43 10 -20 -4 -58 12 -149 62 l-122 68 4 81 c3 53 12 97
26 129 13 30 35 133 57 265 19 119 42 232 51 251 8 19 51 189 95 379 44 190
84 353 88 361 5 9 14 40 21 70 7 29 28 76 46 104 19 28 34 56 34 60 0 5 12 6
28 3 15 -4 80 -13 144 -21z m1443 -3 c28 -10 66 -18 85 -17 19 1 154 5 300 9
280 7 477 12 752 21 l167 6 15 -28 c8 -15 56 -69 108 -118 98 -95 299 -235
566 -392 73 -43 209 -123 302 -178 94 -55 170 -102 170 -105 0 -3 -62 -37
-138 -76 -287 -147 -1419 -737 -1459 -760 -46 -26 -210 -84 -240 -84 -11 0
-39 24 -65 53 -35 41 -69 105 -146 278 -55 123 -120 269 -144 324 -62 138
-304 889 -321 998 -8 48 -11 87 -8 87 3 0 29 -8 56 -18z m1794 -1399 c3 -94
26 -206 72 -350 49 -154 68 -192 120 -236 117 -101 212 -100 427 5 177 87 316
193 387 297 44 66 109 121 143 121 22 0 63 -89 96 -211 41 -149 79 -249 150
-389 29 -58 61 -129 70 -158 10 -29 42 -86 72 -128 65 -91 82 -146 52 -176
-24 -24 -38 -14 -57 39 -35 98 -109 164 -228 204 -57 19 -70 28 -113 83 -79
101 -175 155 -276 157 -55 2 -73 -7 -86 -41 -2 -4 -77 -43 -168 -86 -91 -43
-185 -92 -210 -110 -99 -70 -311 -154 -387 -154 -70 0 -278 170 -320 262 -6
13 -33 73 -61 133 -28 61 -76 191 -107 290 -32 99 -68 201 -81 227 -13 26 -24
52 -24 57 0 17 195 109 303 143 55 17 124 44 152 60 27 15 55 28 61 28 7 0 12
-26 13 -67z m-3326 -599 c95 -14 178 -27 185 -30 8 -2 -11 -28 -51 -67 -102
-101 -202 -267 -229 -382 -28 -117 -24 -263 11 -375 l19 -61 -31 -20 c-35 -22
-91 -22 -382 2 -66 5 -151 11 -190 14 -176 13 -214 16 -270 21 -33 3 -67 7
-75 9 -8 2 -58 7 -110 10 -154 11 -171 14 -197 30 -34 22 -65 77 -52 90 6 6
115 11 292 12 l282 1 169 52 c210 64 237 77 259 127 9 21 44 144 77 273 57
222 91 320 112 320 5 0 86 -12 181 -26z"/>
<path d="M5030 8496 c-48 -15 -60 -24 -60 -46 0 -44 89 -86 130 -60 10 6 24 3
46 -10 17 -11 46 -21 65 -22 32 -3 34 -1 37 31 5 53 -6 80 -41 101 -36 23
-119 25 -177 6z"/>
<path d="M4623 8321 c-41 -34 -25 -91 24 -91 65 0 118 67 78 97 -26 19 -76 16
-102 -6z"/>
<path d="M4987 8293 c-12 -11 -8 -68 5 -81 7 -7 31 -12 54 -12 33 0 45 5 58
25 23 35 21 41 -24 59 -42 17 -82 21 -93 9z"/>
<path d="M4797 8213 c-4 -3 -7 -23 -7 -44 0 -21 -4 -41 -10 -44 -14 -9 -12
-99 2 -113 17 -17 53 -15 69 4 17 20 13 185 -4 196 -15 10 -42 10 -50 1z"/>
<path d="M4719 7901 l-24 -19 20 -22 c32 -35 70 -50 128 -50 52 0 77 12 77 36
0 7 -35 24 -77 39 -43 15 -83 29 -89 31 -6 3 -22 -4 -35 -15z"/>
<path d="M7944 7260 c-12 -5 -28 -17 -35 -28 -58 -82 -235 -243 -359 -327 -47
-31 -93 -64 -102 -73 -25 -21 -22 -49 7 -68 25 -16 28 -15 219 101 166 100
206 128 275 200 74 76 81 86 81 123 0 32 -6 45 -26 61 -30 23 -30 23 -60 11z"/>
<path d="M6653 6770 c-17 -10 -37 -29 -43 -42 -7 -13 -33 -55 -59 -94 -37 -57
-76 -95 -204 -200 -162 -133 -178 -153 -161 -203 15 -41 48 -32 178 49 107 66
130 87 240 208 66 74 129 146 138 160 26 39 23 88 -7 117 -29 30 -40 31 -82 5z"/>
<path d="M2482 7124 c-30 -21 -28 -47 9 -102 73 -108 194 -214 316 -276 82
-42 115 -45 137 -14 23 33 20 51 -16 84 -46 43 -407 324 -416 324 -4 0 -18 -7
-30 -16z"/>
<path d="M3943 6268 c-14 -15 -23 -37 -23 -55 0 -28 11 -40 88 -101 l89 -70
92 -3 c75 -3 91 -1 89 10 -2 8 -41 44 -87 80 -46 36 -87 75 -91 86 -13 34 -53
64 -95 70 -34 6 -43 3 -62 -17z"/>
<path d="M3863 3168 c-6 -7 -55 -116 -108 -243 -53 -126 -125 -288 -160 -360
-35 -71 -67 -146 -70 -166 -7 -36 -6 -37 31 -43 20 -4 40 -3 43 1 211 311 204
299 269 485 67 191 74 241 44 298 -21 39 -34 46 -49 28z"/>
<path d="M5475 2985 c-14 -13 -25 -33 -25 -43 0 -24 108 -128 180 -174 77 -49
132 -65 269 -79 160 -16 204 -8 255 43 l41 40 -28 24 c-47 40 -96 49 -192 34
-121 -19 -157 -8 -322 95 -75 47 -140 85 -145 85 -5 0 -20 -11 -33 -25z"/>
<path d="M6423 1460 c-31 -13 -29 -36 6 -70 33 -34 68 -45 115 -36 70 13 72
56 4 85 -57 25 -98 32 -125 21z"/>
</g>
</svg>
