<?xml version="1.0" standalone="no"?>
<!DOCTYPE svg PUBLIC "-//W3C//DTD SVG 20010904//EN"
 "http://www.w3.org/TR/2001/REC-SVG-20010904/DTD/svg10.dtd">
<svg version="1.0" xmlns="http://www.w3.org/2000/svg"
 width="1024.000000pt" height="1024.000000pt" viewBox="0 0 1024.000000 1024.000000"
 preserveAspectRatio="xMidYMid meet">
<metadata>
Created by potrace 1.10, written by Peter Selinger 2001-2011
</metadata>
<g transform="translate(0.000000,1024.000000) scale(0.100000,-0.100000)"
fill="#000000" stroke="none">
<path d="M5012 9352 c-36 -6 -49 -38 -73 -177 -19 -108 -23 -168 -23 -350 -1
-121 2 -269 6 -330 4 -60 10 -164 13 -230 3 -66 8 -147 11 -181 l4 -61 -57
-38 c-32 -21 -152 -135 -268 -253 -115 -118 -286 -281 -380 -361 -308 -266
-495 -443 -970 -922 -258 -261 -617 -623 -797 -804 -308 -310 -328 -333 -328
-366 0 -49 26 -71 79 -67 39 3 94 54 1376 1263 734 693 1340 1262 1345 1263 6
2 10 -56 11 -155 1 -87 2 -178 4 -203 6 -129 20 -710 20 -875 0 -178 -10 -508
-20 -655 -9 -140 -18 -374 -20 -560 l-2 -195 -563 -442 c-310 -243 -613 -489
-674 -545 -460 -430 -794 -1013 -966 -1683 -65 -256 -75 -325 -75 -560 0 -220
14 -345 58 -525 46 -191 108 -239 172 -136 37 60 39 108 10 281 -26 160 -26
452 -1 610 41 256 118 539 211 781 35 90 82 178 202 373 162 267 233 363 417
570 257 288 757 701 1213 1004 105 70 195 127 198 127 4 0 94 -61 201 -136
230 -162 303 -233 363 -356 73 -148 127 -413 130 -643 2 -90 -21 -419 -43
-645 -3 -25 -10 -119 -16 -210 -5 -91 -13 -192 -16 -225 -9 -103 -13 -886 -4
-962 11 -91 25 -117 113 -210 182 -192 589 -487 777 -564 36 -14 182 -90 325
-169 290 -158 326 -171 368 -127 22 25 47 87 47 119 0 30 -40 65 -107 93 -401
167 -830 427 -1176 713 -51 41 -93 76 -94 77 -5 3 -33 266 -40 375 -13 194 -7
617 11 765 2 17 7 88 11 160 4 71 8 136 10 145 1 8 6 80 10 160 4 79 8 151 10
160 1 8 6 78 10 155 4 77 8 147 10 155 1 8 6 71 10 140 11 202 -19 374 -91
529 -20 42 -42 98 -49 124 -31 112 -274 349 -492 480 -70 43 -245 127 -262
127 -7 0 -9 9 -6 23 14 65 37 273 37 347 1 47 -2 574 -6 1172 l-8 1087 83 -31
c232 -87 563 -191 738 -233 683 -163 936 -231 1261 -338 209 -69 1251 -435
1290 -454 18 -9 52 -16 75 -16 22 1 77 1 123 2 l83 1 -3 47 c-3 44 -7 50 -63
96 -33 26 -91 64 -130 82 -45 22 -661 212 -1720 530 -1702 511 -1689 507
-1732 472 -10 -7 -13 0 -15 29 0 22 -2 50 -3 64 -1 14 -6 115 -10 225 -4 110
-9 207 -10 215 -2 8 -6 112 -10 230 -5 155 -4 237 5 295 24 153 13 222 -49
288 -32 36 -50 44 -79 39z"/>
</g>
</svg>
