<?xml version="1.0" standalone="no"?>
<!DOCTYPE svg PUBLIC "-//W3C//DTD SVG 20010904//EN"
 "http://www.w3.org/TR/2001/REC-SVG-20010904/DTD/svg10.dtd">
<svg version="1.0" xmlns="http://www.w3.org/2000/svg"
 width="1024.000000pt" height="1024.000000pt" viewBox="0 0 1024.000000 1024.000000"
 preserveAspectRatio="xMidYMid meet">
<metadata>
Created by potrace 1.10, written by Peter Selinger 2001-2011
</metadata>
<g transform="translate(0.000000,1024.000000) scale(0.100000,-0.100000)"
fill="#000000" stroke="none">
<path d="M4462 9100 l-54 -59 70 -69 c49 -48 79 -89 105 -143 59 -118 71 -182
72 -359 0 -158 -13 -601 -20 -642 -2 -13 -6 -86 -10 -163 -3 -77 -8 -153 -10
-170 -2 -16 -7 -70 -10 -120 -7 -108 -52 -554 -65 -644 -5 -35 -13 -67 -17
-71 -4 -4 -78 -14 -163 -23 -85 -9 -263 -28 -395 -43 l-240 -26 -180 17 c-203
18 -257 23 -334 31 -42 5 -53 3 -49 -8 3 -7 18 -55 33 -106 27 -87 32 -97 84
-144 31 -27 103 -74 161 -103 255 -132 258 -133 392 -98 78 21 650 125 654
120 1 -1 -17 -128 -41 -282 -63 -403 -148 -813 -235 -1132 -228 -830 -545
-1558 -929 -2133 -297 -443 -599 -774 -1001 -1097 -84 -68 -142 -122 -155
-145 -19 -36 -19 -37 -1 -57 26 -29 79 -27 174 5 203 67 484 262 849 588 320
286 704 811 979 1341 227 438 383 839 500 1289 36 138 68 260 71 271 22 69 82
-449 77 -665 -1 -80 -6 -266 -9 -415 -7 -343 -13 -622 -21 -898 -7 -271 -7
-730 0 -800 3 -28 8 -88 11 -132 21 -287 86 -489 199 -613 115 -126 233 -172
510 -202 390 -41 583 -60 626 -62 41 -1 275 10 360 17 19 2 94 6 165 10 72 3
141 8 155 10 14 2 88 6 165 10 155 7 137 4 465 81 129 30 245 62 258 70 67 44
80 141 28 209 -15 19 -59 60 -97 92 -142 114 -217 262 -233 458 -3 39 -13 153
-21 255 -8 102 -17 212 -20 245 -3 33 -10 115 -15 182 -6 67 -15 180 -20 250
-4 70 -11 136 -15 146 -10 25 -34 21 -45 -8 -5 -13 -41 -285 -79 -603 -46
-377 -76 -594 -87 -623 -45 -115 -142 -220 -248 -270 -59 -28 -83 -32 -322
-54 -143 -13 -310 -30 -373 -36 -110 -11 -121 -11 -434 32 -301 41 -323 45
-359 72 -70 50 -122 153 -152 300 -14 64 -15 137 -11 464 2 213 7 683 10 1043
6 628 9 705 40 920 2 14 13 102 25 195 11 94 33 212 46 264 l26 93 -31 63
c-47 96 -139 176 -286 251 -66 33 -135 66 -152 72 -38 13 -39 17 -17 127 17
90 116 630 142 773 16 92 16 92 47 93 16 1 39 3 50 4 11 1 65 5 120 9 55 4
118 9 140 11 22 2 76 7 120 10 138 10 208 15 260 20 28 2 91 7 140 10 50 3
106 8 125 10 19 2 78 7 130 10 52 3 111 8 130 10 19 2 78 7 130 10 52 3 111 8
130 10 19 2 78 7 130 10 52 3 111 8 130 10 19 2 78 7 130 10 171 11 205 16
240 33 48 24 80 75 80 128 0 36 -6 51 -36 84 -66 73 -122 105 -269 153 l-140
47 -95 -10 c-52 -6 -433 -53 -846 -105 -413 -52 -759 -95 -768 -95 -19 0 -19
14 -1 250 2 30 7 93 10 140 3 47 8 110 10 140 2 30 7 93 10 140 3 47 8 112 10
145 2 33 7 98 10 145 3 47 8 110 10 140 2 30 7 91 10 135 3 44 14 202 25 350
10 149 26 311 35 360 9 50 14 103 11 118 -20 99 -259 262 -518 351 -115 39
-133 36 -196 -34z"/>
<path d="M5833 8719 c-22 -22 -15 -39 45 -108 226 -256 447 -581 606 -890 53
-101 84 -149 132 -198 l62 -66 59 5 c41 3 69 11 92 28 70 49 105 190 81 331
-44 264 -207 452 -600 689 -305 185 -346 206 -422 216 -29 4 -47 1 -55 -7z"/>
</g>
</svg>
