<?xml version="1.0" standalone="no"?>
<!DOCTYPE svg PUBLIC "-//W3C//DTD SVG 20010904//EN"
 "http://www.w3.org/TR/2001/REC-SVG-20010904/DTD/svg10.dtd">
<svg version="1.0" xmlns="http://www.w3.org/2000/svg"
 width="1024.000000pt" height="1024.000000pt" viewBox="0 0 1024.000000 1024.000000"
 preserveAspectRatio="xMidYMid meet">
<metadata>
Created by potrace 1.10, written by Peter Selinger 2001-2011
</metadata>
<g transform="translate(0.000000,1024.000000) scale(0.100000,-0.100000)"
fill="#000000" stroke="none">
<path d="M3605 7562 c-33 -15 -87 -43 -120 -63 -179 -109 -496 -236 -695 -279
-145 -32 -199 -34 -420 -15 -200 17 -211 17 -229 0 -49 -43 -31 -120 40 -177
75 -60 272 -184 321 -203 54 -20 91 -12 155 34 105 75 276 152 490 221 236 75
243 76 243 11 0 -110 -67 -299 -282 -806 -94 -220 -190 -445 -213 -501 -23
-55 -56 -120 -74 -144 -17 -24 -31 -47 -31 -53 0 -35 137 -184 194 -211 30
-14 38 -13 121 13 50 16 165 61 258 99 129 55 197 77 295 97 l127 25 18 -22
c47 -58 -19 -445 -139 -820 -48 -151 -221 -617 -234 -631 -4 -5 -126 62 -271
149 -363 216 -389 230 -514 289 -205 97 -309 122 -431 104 -79 -11 -86 -14
-104 -45 -11 -17 -18 -38 -15 -46 9 -22 63 -45 172 -73 146 -37 327 -112 453
-188 32 -19 566 -351 617 -383 l23 -14 -39 -79 c-109 -216 -226 -394 -390
-596 -246 -302 -570 -596 -786 -715 -33 -18 -68 -40 -77 -48 -16 -14 -16 -16
8 -35 25 -19 27 -19 89 -2 132 35 377 161 475 244 364 308 695 697 879 1033
l42 77 87 -53 c533 -324 1215 -715 1637 -936 66 -34 156 -82 200 -105 91 -49
458 -224 680 -325 400 -181 719 -301 895 -336 103 -20 185 -15 360 21 161 34
449 112 670 182 96 30 209 64 250 74 92 24 176 64 191 91 6 11 9 21 7 23 -2 2
-58 17 -124 34 -73 18 -196 39 -310 51 -633 69 -1162 158 -1660 280 -686 169
-1196 364 -1994 766 -300 150 -765 396 -783 413 -4 4 11 49 33 99 99 229 235
640 338 1027 57 212 62 224 132 344 40 69 79 145 88 170 l15 45 -69 63 c-77
71 -199 137 -285 155 -52 10 -64 8 -355 -71 -165 -44 -310 -81 -322 -81 l-21
0 25 92 c16 61 98 255 243 577 l219 486 114 130 c63 72 131 161 152 198 l38
68 -16 42 c-25 66 -115 152 -231 221 -32 20 -68 36 -79 36 -12 0 -48 -13 -81
-28z"/>
</g>
</svg>
