<?xml version="1.0" standalone="no"?>
<!DOCTYPE svg PUBLIC "-//W3C//DTD SVG 20010904//EN"
 "http://www.w3.org/TR/2001/REC-SVG-20010904/DTD/svg10.dtd">
<svg version="1.0" xmlns="http://www.w3.org/2000/svg"
 width="1024.000000pt" height="1024.000000pt" viewBox="0 0 1024.000000 1024.000000"
 preserveAspectRatio="xMidYMid meet">
<metadata>
Created by potrace 1.10, written by Peter Selinger 2001-2011
</metadata>
<g transform="translate(0.000000,1024.000000) scale(0.100000,-0.100000)"
fill="#000000" stroke="none">
<path d="M3998 9228 c-22 -8 -38 -36 -108 -201 -98 -229 -221 -479 -315 -637
-78 -131 -243 -378 -308 -460 -109 -136 -1391 -1584 -1467 -1655 -309 -293
-785 -684 -1006 -828 -114 -75 -174 -133 -203 -197 -24 -54 -27 -113 -6 -134
33 -33 140 -34 207 -2 20 10 256 209 525 444 481 420 497 435 935 887 421 434
468 487 845 940 483 582 548 668 716 953 131 220 303 586 325 688 14 63 1 117
-36 157 -39 42 -72 56 -104 45z"/>
<path d="M7468 8413 c-21 -3 -69 -60 -247 -296 -121 -161 -239 -314 -262 -342
-163 -199 -278 -426 -444 -875 -70 -190 -136 -356 -146 -370 -9 -14 -29 -51
-42 -82 -14 -30 -30 -59 -36 -62 -6 -4 -11 -14 -11 -23 0 -22 -210 -523 -233
-557 -11 -16 -99 -158 -196 -316 -139 -227 -195 -310 -266 -390 l-90 -101 -95
5 c-165 8 -328 64 -498 169 -168 104 -327 178 -502 233 -60 19 -97 24 -187 24
-77 0 -113 -4 -113 -11 0 -7 -9 -9 -22 -5 -29 8 -226 -69 -251 -98 -13 -14
-17 -30 -14 -52 5 -31 5 -32 -60 -48 -68 -17 -133 -56 -133 -82 0 -10 -13 -14
-52 -14 -54 0 -141 -33 -164 -61 -7 -8 -17 -60 -23 -117 -15 -140 -5 -180 63
-245 135 -130 340 -262 546 -350 58 -25 143 -63 190 -85 172 -81 385 -132 559
-132 l96 -1 57 -87 c119 -182 300 -381 411 -453 116 -75 251 -102 377 -76 170
36 229 82 363 287 63 97 161 290 203 400 56 145 535 790 868 1165 192 217
1285 1382 1402 1494 71 68 194 180 274 249 140 120 482 384 511 394 17 6 23 1
-92 81 l-96 66 -54 -36 c-180 -121 -573 -467 -895 -788 -230 -229 -357 -371
-1074 -1199 -447 -516 -837 -973 -867 -1015 -120 -167 -251 -408 -334 -616
-74 -186 -146 -254 -270 -255 -73 0 -107 12 -204 72 -71 44 -89 63 -158 157
-42 58 -100 141 -128 184 -52 79 -118 141 -190 178 -84 42 -248 62 -342 40
-35 -8 -58 -1 -270 85 -128 51 -239 98 -247 104 -38 25 -88 48 -119 55 -19 4
-59 28 -90 53 -31 25 -94 63 -141 84 -47 22 -92 43 -100 47 -14 8 -28 51 -15
51 3 0 16 -6 28 -14 12 -8 55 -17 94 -21 l73 -7 35 35 c39 39 45 78 20 114
-14 20 -13 22 25 37 50 20 94 83 88 125 -4 27 -1 29 51 46 31 9 74 32 97 50
l40 33 60 -33 c32 -18 127 -56 211 -83 174 -58 294 -111 382 -172 80 -54 173
-97 275 -128 359 -107 466 -97 612 61 178 192 391 517 545 831 43 88 87 169
98 180 11 12 50 100 86 196 36 96 72 181 79 190 7 8 31 60 52 114 21 54 51
114 66 133 19 24 55 118 113 295 47 142 102 296 122 341 87 201 204 376 407
609 109 125 221 287 290 421 52 100 58 142 24 175 -22 20 -72 44 -86 41 -4 -1
-19 -4 -34 -6z"/>
<path d="M7017 6098 c-53 -49 -317 -389 -317 -409 0 -11 -25 -48 -55 -82 -76
-85 -172 -221 -220 -312 l-40 -76 28 -24 c27 -24 97 -36 97 -17 0 5 77 119
172 253 94 134 229 327 300 428 71 101 132 189 135 197 5 14 -44 63 -64 64 -7
0 -23 -10 -36 -22z"/>
<path d="M6055 4820 c-32 -13 -114 -115 -141 -175 -13 -31 -24 -73 -24 -94 0
-34 5 -42 36 -61 19 -13 39 -19 43 -14 22 25 159 212 169 231 18 33 15 88 -6
106 -20 18 -45 21 -77 7z"/>
<path d="M5464 4315 c-19 -19 -24 -34 -22 -57 2 -26 14 -39 65 -75 77 -54 113
-63 141 -35 20 20 39 93 28 110 -3 5 -32 19 -65 31 -32 12 -64 28 -71 36 -18
22 -48 18 -76 -10z"/>
<path d="M2610 3747 c-30 -13 -62 -27 -71 -32 -9 -6 -116 -115 -239 -242 -122
-128 -226 -233 -230 -233 -3 0 -197 -217 -430 -482 -276 -314 -511 -571 -673
-734 -276 -279 -285 -292 -261 -374 24 -82 75 -99 147 -48 18 12 94 79 171
148 105 95 212 210 445 480 168 195 356 416 417 490 216 263 437 489 699 715
l100 86 85 -6 c47 -4 92 -8 100 -11 21 -6 56 -78 69 -144 116 -586 152 -747
200 -889 57 -171 151 -374 243 -526 85 -140 266 -323 395 -401 174 -104 399
-203 598 -264 43 -13 233 -42 495 -75 l425 -53 990 -27 990 -27 580 -64 580
-65 520 -104 c546 -109 696 -130 770 -105 44 15 61 48 45 94 -7 23 -30 44 -85
79 l-74 49 -1048 174 -1048 174 -1205 30 c-663 16 -1250 34 -1305 40 -306 33
-574 93 -844 190 -204 73 -316 143 -441 277 -151 162 -321 490 -399 770 -16
59 -53 250 -80 423 -71 438 -69 428 -101 496 -53 110 -156 182 -290 203 -104
17 -178 13 -240 -12z"/>
<path d="M6675 3540 c9 -42 23 -80 29 -80 6 0 -24 103 -31 110 -3 3 -2 -11 2
-30z"/>
</g>
</svg>
