<?xml version="1.0" standalone="no"?>
<!DOCTYPE svg PUBLIC "-//W3C//DTD SVG 20010904//EN"
 "http://www.w3.org/TR/2001/REC-SVG-20010904/DTD/svg10.dtd">
<svg version="1.0" xmlns="http://www.w3.org/2000/svg"
 width="1024.000000pt" height="1024.000000pt" viewBox="0 0 1024.000000 1024.000000"
 preserveAspectRatio="xMidYMid meet">
<metadata>
Created by potrace 1.10, written by Peter Selinger 2001-2011
</metadata>
<g transform="translate(0.000000,1024.000000) scale(0.100000,-0.100000)"
fill="#000000" stroke="none">
<path d="M4382 9083 c-39 -38 -104 -142 -308 -493 l-258 -445 -221 -280 c-121
-154 -430 -545 -685 -870 -420 -533 -510 -641 -936 -1120 -437 -491 -645 -710
-834 -876 -59 -52 -90 -71 -143 -89 -83 -27 -123 -59 -138 -111 -14 -46 -1
-105 31 -134 19 -17 23 -17 92 -1 215 51 332 151 828 706 520 582 877 982
1127 1262 386 434 598 721 1200 1626 239 359 441 668 449 687 31 75 7 142 -62
171 -60 25 -88 18 -142 -33z"/>
<path d="M3481 4320 c-63 -38 -125 -79 -137 -92 -61 -64 -474 -601 -815 -1063
-332 -449 -435 -580 -757 -960 -269 -318 -384 -447 -417 -467 -71 -43 -71
-105 2 -168 66 -58 140 -33 254 86 31 33 420 534 864 1114 445 580 830 1076
856 1103 26 26 53 61 61 77 13 29 115 121 193 173 32 22 51 27 101 27 56 0 65
-3 86 -29 39 -46 119 -187 133 -236 9 -27 163 -266 399 -617 l385 -574 129
-125 c227 -221 481 -394 749 -510 76 -33 478 -179 893 -324 1139 -397 1147
-400 1600 -623 636 -312 987 -466 1403 -618 179 -65 232 -70 277 -26 16 16 32
45 35 65 15 81 67 54 -767 407 -420 177 -860 365 -978 417 -811 358 -1327 550
-2274 849 -174 54 -351 156 -496 283 -47 42 -175 162 -286 268 l-200 193 -180
263 c-173 251 -312 491 -519 895 -53 104 -117 180 -182 218 -66 40 -156 64
-231 64 -65 -1 -71 -3 -181 -70z"/>
<path d="M6966 3650 c7 -40 24 -76 23 -50 0 8 -7 31 -15 50 l-14 35 6 -35z"/>
</g>
</svg>
