<?xml version="1.0" standalone="no"?>
<!DOCTYPE svg PUBLIC "-//W3C//DTD SVG 20010904//EN"
 "http://www.w3.org/TR/2001/REC-SVG-20010904/DTD/svg10.dtd">
<svg version="1.0" xmlns="http://www.w3.org/2000/svg"
 width="1024.000000pt" height="1024.000000pt" viewBox="0 0 1024.000000 1024.000000"
 preserveAspectRatio="xMidYMid meet">
<metadata>
Created by potrace 1.10, written by Peter Selinger 2001-2011
</metadata>
<g transform="translate(0.000000,1024.000000) scale(0.100000,-0.100000)"
fill="#000000" stroke="none">
<path d="M5155 8936 c-18 -13 -18 -15 12 -62 16 -27 41 -89 53 -138 21 -81 23
-96 13 -165 -22 -147 -119 -391 -280 -701 -156 -301 -214 -400 -237 -404 -106
-22 -103 -23 -185 57 -64 62 -90 79 -166 111 -49 21 -112 42 -140 48 -47 9
-55 7 -139 -31 -68 -32 -87 -45 -82 -57 3 -9 6 -21 6 -28 0 -6 19 -36 41 -66
81 -106 95 -151 129 -405 l32 -230 -13 -980 c-6 -539 -13 -982 -15 -984 -1 -1
-128 -34 -281 -73 -204 -51 -289 -68 -321 -65 -51 5 -118 48 -227 143 -42 36
-78 65 -79 63 -16 -17 -66 -113 -66 -127 0 -52 82 -183 225 -362 123 -153 208
-230 257 -230 10 0 123 50 250 110 127 61 232 109 233 108 4 -6 -45 -638 -55
-723 -121 -967 -310 -1593 -687 -2274 l-86 -153 26 -25 c24 -25 25 -25 61 -8
106 51 347 396 516 740 261 531 434 1124 519 1785 23 173 57 533 67 711 l7
117 245 96 c186 73 248 94 258 85 23 -19 64 -100 90 -176 24 -71 24 -73 24
-510 0 -405 -2 -452 -24 -629 -14 -105 -37 -237 -51 -294 -29 -116 -28 -174 6
-285 23 -74 93 -182 140 -213 89 -61 202 14 244 160 29 104 34 257 35 1038 0
733 1 779 20 850 14 56 16 77 8 88 -19 22 -101 60 -170 78 -34 10 -66 20 -70
23 -6 5 242 124 830 397 l92 43 -2 -1682 c-3 -1669 -3 -1682 -23 -1717 -12
-19 -38 -43 -59 -54 l-39 -19 -444 78 c-440 77 -470 80 -480 48 -2 -5 67 -59
154 -119 299 -206 431 -311 588 -469 132 -132 157 -152 204 -168 127 -41 196
-7 293 140 48 75 119 273 148 412 20 97 20 135 20 1918 l1 1818 206 111 c114
62 209 117 211 122 10 32 -53 20 -228 -42 -101 -36 -185 -66 -187 -66 -9 0 -2
1357 8 1427 6 43 30 136 55 207 24 71 44 136 44 144 0 53 -295 240 -437 277
-53 14 -62 13 -127 -5 -39 -10 -312 -67 -606 -125 -294 -58 -543 -107 -552
-109 -13 -3 -16 0 -10 9 4 8 117 143 253 302 135 158 262 313 282 345 46 68
110 129 169 158 117 59 147 140 87 236 -62 98 -278 288 -403 353 -65 35 -156
43 -191 17z m977 -1531 c24 -4 46 -16 62 -36 l26 -31 -2 -885 -3 -886 -170
-58 c-93 -31 -464 -156 -823 -277 l-653 -220 3 1073 c2 590 6 1076 9 1079 11
11 1453 254 1484 250 17 -2 47 -6 67 -9z"/>
<path d="M4865 6796 c-17 -12 -12 -23 82 -177 265 -435 483 -799 507 -846 30
-61 58 -83 105 -83 100 0 172 101 192 268 10 84 9 99 -10 160 -41 137 -72 170
-353 381 -177 132 -288 207 -369 250 -64 34 -120 61 -125 61 -6 0 -19 -6 -29
-14z"/>
</g>
</svg>
