<?xml version="1.0" standalone="no"?>
<!DOCTYPE svg PUBLIC "-//W3C//DTD SVG 20010904//EN"
 "http://www.w3.org/TR/2001/REC-SVG-20010904/DTD/svg10.dtd">
<svg version="1.0" xmlns="http://www.w3.org/2000/svg"
 width="1024.000000pt" height="1024.000000pt" viewBox="0 0 1024.000000 1024.000000"
 preserveAspectRatio="xMidYMid meet">
<metadata>
Created by potrace 1.10, written by Peter Selinger 2001-2011
</metadata>
<g transform="translate(0.000000,1024.000000) scale(0.100000,-0.100000)"
fill="#000000" stroke="none">
<path d="M4590 9383 c-40 -16 -41 -25 -4 -70 22 -27 53 -89 81 -159 l44 -116
-16 -88 c-19 -111 -70 -267 -142 -430 -55 -125 -274 -563 -296 -595 -10 -13
-58 -20 -264 -37 l-251 -22 -115 58 c-126 62 -245 106 -287 106 -20 0 -195
-63 -208 -75 -8 -7 43 -102 77 -143 91 -110 114 -187 151 -520 l30 -264 0
-921 c0 -507 -3 -945 -6 -973 l-6 -51 -482 -52 c-264 -29 -605 -61 -756 -71
l-275 -19 -343 56 c-189 30 -345 53 -348 50 -3 -3 2 -45 13 -94 l18 -88 143
-115 c122 -98 169 -129 324 -209 l182 -95 156 18 c86 9 425 66 755 126 330 60
602 107 604 104 10 -9 -52 -999 -70 -1134 -133 -961 -330 -1567 -718 -2209
-89 -147 -92 -153 -75 -172 27 -30 91 -25 146 11 117 78 330 349 483 614 151
264 261 511 365 826 191 572 278 1088 321 1895 6 121 12 221 13 222 1 1 200
27 441 58 l440 55 33 -37 c45 -51 127 -220 155 -318 21 -77 22 -94 21 -490 -1
-225 -7 -536 -14 -690 -14 -307 -11 -334 46 -463 83 -187 233 -216 307 -59 47
98 48 122 57 922 5 519 12 799 21 883 12 116 12 125 -6 158 -20 37 -90 94
-146 119 -19 8 -30 14 -25 15 32 1 1393 111 1439 116 l57 6 -2 -1484 c-3
-1396 -4 -1485 -21 -1515 -22 -41 -64 -63 -119 -63 -24 0 -245 18 -492 40
-418 37 -451 39 -468 23 -10 -9 -18 -22 -18 -29 0 -18 46 -54 140 -107 100
-56 307 -200 474 -330 120 -92 249 -214 339 -320 77 -90 202 -137 290 -107
110 36 224 268 309 631 l22 94 3 1598 3 1597 53 0 c28 0 273 9 542 19 510 20
544 20 1141 -15 136 -8 175 0 218 45 33 35 46 104 26 142 -26 47 -76 102 -146
158 -64 52 -88 64 -239 116 l-169 59 -395 -48 c-218 -26 -520 -58 -671 -71
-151 -13 -294 -27 -318 -29 l-43 -6 4 963 c3 803 7 976 19 1047 22 123 35 166
79 255 22 45 42 102 45 130 5 44 2 55 -25 96 -76 114 -422 308 -549 309 -18 0
-131 -25 -251 -55 l-219 -55 -858 -84 c-473 -46 -861 -83 -862 -81 -2 2 111
136 251 297 245 282 403 443 492 499 55 35 83 100 66 151 -25 77 -144 194
-358 354 -129 98 -211 138 -287 141 -34 1 -68 0 -76 -4z m1980 -1605 c30 -16
50 -36 64 -63 21 -40 21 -51 24 -1186 l2 -1145 -187 -17 c-104 -10 -357 -33
-563 -53 -1555 -144 -2065 -191 -2065 -190 -5 12 16 2266 21 2327 l7 85 521
53 c286 29 861 88 1276 131 415 42 778 78 805 79 35 1 65 -6 95 -21z"/>
<path d="M4575 7070 c-17 -19 -16 -21 22 -67 162 -196 267 -374 492 -838 101
-209 195 -392 209 -407 52 -56 161 -24 214 62 36 59 57 143 64 260 7 109 -9
174 -70 277 -51 85 -66 101 -356 345 -226 190 -286 235 -407 306 -78 45 -144
82 -146 82 -2 0 -12 -9 -22 -20z"/>
</g>
</svg>
