<?xml version="1.0" standalone="no"?>
<!DOCTYPE svg PUBLIC "-//W3C//DTD SVG 20010904//EN"
 "http://www.w3.org/TR/2001/REC-SVG-20010904/DTD/svg10.dtd">
<svg version="1.0" xmlns="http://www.w3.org/2000/svg"
 width="1024.000000pt" height="1024.000000pt" viewBox="0 0 1024.000000 1024.000000"
 preserveAspectRatio="xMidYMid meet">
<metadata>
Created by potrace 1.10, written by Peter Selinger 2001-2011
</metadata>
<g transform="translate(0.000000,1024.000000) scale(0.100000,-0.100000)"
fill="#000000" stroke="none">
<path d="M2705 9842 c-109 -53 -150 -90 -161 -148 -8 -43 16 -74 62 -77 24 -2
30 3 38 28 5 17 29 46 56 67 l48 38 128 6 c122 5 145 3 404 -41 258 -43 276
-45 287 -28 20 26 16 58 -9 71 -22 11 -699 132 -735 132 -10 0 -63 -22 -118
-48z"/>
<path d="M4129 9748 c-83 -60 -155 -143 -195 -227 l-27 -58 -43 5 c-45 5 -118
-24 -151 -60 -16 -17 -17 -17 -27 4 -26 53 -157 109 -251 108 -22 -1 -65 -11
-95 -24 -38 -17 -61 -21 -76 -15 -13 4 -51 7 -86 5 -48 -2 -74 -9 -105 -29
-52 -33 -95 -104 -101 -167 -3 -38 -9 -50 -28 -58 -27 -13 -97 -99 -125 -155
-26 -50 -50 -166 -48 -226 3 -68 -47 -298 -71 -328 -41 -53 -11 -116 63 -128
87 -15 131 -51 151 -125 4 -14 43 -56 87 -94 66 -57 79 -74 73 -90 -3 -12 -9
-73 -11 -137 l-5 -116 -102 -18 c-172 -30 -243 -76 -509 -335 -260 -253 -441
-482 -540 -681 -40 -81 -52 -121 -79 -255 -17 -88 -32 -161 -34 -163 -5 -5
-468 107 -595 145 -136 40 -151 41 -190 13 -41 -29 -39 -68 7 -130 19 -27 40
-66 46 -86 6 -21 18 -49 28 -63 9 -14 70 -128 135 -255 129 -252 175 -324 256
-400 144 -136 185 -149 502 -171 133 -9 272 -14 310 -12 37 2 67 3 67 1 0 -1
-11 -32 -24 -70 -14 -37 -45 -147 -71 -242 -25 -96 -47 -177 -50 -179 -8 -8
-128 38 -191 73 -89 50 -177 138 -189 190 -8 30 -17 42 -38 49 -24 9 -31 6
-63 -25 -20 -19 -49 -57 -65 -86 -22 -38 -47 -62 -94 -93 -86 -56 -91 -64 -71
-95 14 -21 24 -25 65 -25 66 0 128 34 167 92 l31 46 44 -45 c92 -94 205 -150
320 -160 63 -5 68 -8 64 -27 -3 -12 -47 -248 -99 -526 -130 -697 -211 -1210
-228 -1445 -13 -180 -13 -197 7 -332 23 -157 38 -191 94 -207 24 -7 30 -13 25
-25 -4 -9 -13 -33 -20 -53 -7 -20 -34 -74 -59 -119 -25 -45 -45 -92 -45 -105
0 -37 -16 -37 -69 -2 -27 18 -70 45 -95 60 -63 37 -111 107 -142 208 -37 117
-54 156 -76 177 -19 17 -21 17 -50 0 -17 -10 -84 -61 -149 -115 -93 -77 -118
-102 -118 -123 -1 -43 22 -64 71 -64 40 0 51 6 116 64 40 35 74 62 76 60 2 -2
28 -53 59 -114 79 -159 162 -233 304 -270 65 -17 73 -25 73 -81 0 -76 32 -229
71 -344 22 -63 48 -153 58 -200 19 -84 54 -189 84 -247 9 -16 23 -77 31 -136
9 -58 19 -113 22 -121 5 -13 0 -13 -40 -1 -48 15 -102 10 -244 -20 -120 -25
-130 -21 -147 60 -20 98 -23 103 -64 110 -33 5 -68 -6 -252 -80 -271 -109
-320 -116 -388 -59 -27 23 -31 32 -31 77 0 64 -15 94 -60 125 -77 53 -187 4
-536 -238 -139 -96 -267 -183 -283 -192 -22 -12 -31 -25 -31 -43 0 -24 2 -25
72 -25 l71 0 136 84 c75 46 147 84 161 84 40 0 199 79 276 137 l72 54 21 -59
c26 -71 88 -131 156 -150 81 -23 146 -9 363 78 l201 79 6 -39 c12 -66 30 -72
250 -79 l190 -5 355 -82 355 -82 521 -59 c433 -49 528 -63 562 -80 l42 -21 39
40 c31 32 84 61 248 136 114 53 354 171 533 262 304 155 350 183 715 424 270
179 404 274 435 308 25 27 267 258 539 514 470 441 495 463 510 445 16 -18 61
-17 61 1 0 16 154 132 220 165 88 44 187 77 210 70 12 -4 22 -23 30 -57 7 -28
21 -59 31 -69 35 -35 73 -24 254 76 l173 95 109 -7 110 -8 -264 -410 c-145
-225 -280 -437 -299 -471 l-34 -61 -138 -13 c-132 -12 -140 -12 -178 7 -21 11
-68 25 -102 31 -62 11 -65 11 -130 -22 -58 -29 -339 -116 -375 -116 -7 0 -33
20 -57 45 -59 60 -109 78 -202 74 -105 -6 -178 -44 -296 -156 -72 -69 -92 -94
-92 -115 0 -27 31 -58 59 -58 7 0 51 34 97 76 l84 76 139 5 139 6 48 -32 c95
-63 169 -64 282 -4 90 47 195 88 262 103 52 11 59 10 125 -16 48 -19 96 -30
153 -34 l82 -5 -369 -467 c-204 -257 -411 -516 -461 -575 -50 -60 -125 -159
-168 -220 -42 -62 -123 -172 -180 -245 l-104 -133 88 -3 c48 -2 93 -1 99 2 6
2 41 51 76 108 39 61 233 309 480 613 288 354 461 577 567 730 l152 220 98 51
c150 80 210 96 387 101 138 4 153 7 188 29 37 25 44 38 28 62 -11 18 -56 27
-199 42 l-117 13 -105 -30 c-58 -17 -107 -29 -109 -27 -2 2 31 56 72 122 75
116 77 118 110 114 25 -3 41 3 64 22 29 24 39 26 219 37 182 10 190 12 212 35
60 67 -12 129 -163 141 -54 4 -89 0 -153 -17 -46 -12 -84 -21 -86 -19 -5 6
586 1003 608 1028 10 11 22 18 26 16 4 -3 93 11 196 30 178 32 191 36 217 65
33 37 35 73 5 94 -32 23 -78 20 -200 -12 l-107 -28 42 50 c23 28 65 74 92 102
l50 51 183 18 c212 21 242 33 242 89 0 76 -74 103 -196 71 -32 -8 -59 -13 -61
-12 -7 8 248 197 322 240 109 62 248 123 440 192 234 83 335 140 335 186 0 21
-46 59 -71 59 -25 0 -571 -196 -631 -226 l-47 -24 -33 20 c-26 16 -51 20 -118
21 -98 0 -149 17 -215 69 -49 38 -77 87 -95 167 -15 66 -63 113 -115 113 -44
0 -184 -56 -287 -115 -44 -24 -78 -41 -76 -37 2 4 88 134 192 290 l190 282 26
-25 c44 -42 75 -34 243 59 84 47 158 86 165 88 8 2 25 -35 48 -102 59 -177
152 -310 292 -422 129 -103 204 -126 255 -81 29 27 20 40 -54 79 -38 20 -105
67 -146 103 -66 56 -89 86 -160 205 -77 128 -85 144 -93 214 -6 42 -7 91 -4
109 12 65 -39 148 -88 141 -14 -2 -29 -15 -40 -37 -24 -48 -341 -267 -369
-255 -18 8 -16 14 23 79 23 39 122 177 221 309 l179 238 35 -5 c31 -5 46 2
156 82 67 48 128 90 134 95 8 4 39 -16 83 -54 111 -95 209 -151 334 -189 78
-24 96 -18 96 30 0 26 -8 33 -82 70 -112 56 -205 118 -286 192 -37 34 -86 71
-109 81 l-43 19 -77 -68 c-43 -38 -91 -80 -107 -94 l-30 -26 20 35 c11 19 82
139 157 265 110 187 143 251 172 340 l37 110 -16 210 c-11 149 -24 242 -43
322 -23 97 -25 115 -14 137 24 44 7 73 -61 107 l-61 31 -301 13 -301 13 -510
-69 -510 -69 -461 -140 c-254 -77 -465 -140 -470 -140 -4 0 -15 7 -24 15 -12
10 -73 19 -225 30 -116 9 -235 20 -265 26 -142 26 -293 92 -413 181 l-67 50
-58 -21 c-39 -15 -88 -48 -156 -106 -117 -101 -172 -125 -279 -125 -110 0
-130 -36 -49 -90 42 -28 53 -31 107 -28 58 4 66 7 232 121 94 64 177 117 183
117 6 0 30 -13 53 -29 67 -46 221 -119 315 -151 111 -37 222 -59 342 -68 l95
-7 -284 -125 c-225 -99 -366 -170 -675 -341 -330 -181 -426 -240 -611 -371
-121 -86 -222 -154 -223 -152 -2 1 48 103 111 226 131 255 150 318 129 430
-24 132 -54 174 -285 406 -223 224 -889 814 -975 864 -26 15 -75 34 -110 43
-62 16 -72 15 -133 -9 -11 -5 -20 1 -28 21 -20 50 -124 149 -176 168 -38 15
-44 20 -28 26 21 8 202 227 227 276 9 18 16 48 16 67 0 66 20 137 38 135 44
-4 60 4 88 41 18 25 54 53 97 76 64 34 72 35 145 31 42 -2 87 -7 99 -12 18 -6
29 -1 53 25 28 29 29 34 16 58 -12 22 -12 29 0 47 12 18 12 24 -1 42 -11 16
-34 24 -100 34 -92 13 -89 14 -185 -42 l-55 -32 25 29 c63 75 142 122 220 131
38 4 50 11 59 30 27 58 0 93 -72 93 l-47 0 55 50 c30 27 73 61 94 75 68 42 81
94 31 120 -30 15 -31 15 -104 -34 l-73 -50 9 42 c21 96 21 95 -5 121 -53 53
-101 24 -191 -118 -37 -58 -70 -106 -72 -106 -7 0 34 99 59 142 14 24 44 62
68 85 38 39 45 42 79 37 33 -5 40 -3 53 17 15 24 20 47 18 82 -1 17 -55 57
-77 57 -7 0 -45 -24 -85 -52z m-556 -377 c16 -6 14 -10 -13 -36 -17 -17 -29
-23 -25 -14 7 19 -25 49 -54 52 -11 1 -21 4 -21 8 0 7 85 0 113 -10z m261 -60
c3 -5 17 -80 31 -166 14 -94 30 -164 39 -174 12 -13 35 -85 36 -113 0 -20 -22
-4 -49 36 -24 35 -29 50 -24 79 4 29 1 40 -21 61 -24 25 -25 30 -16 76 9 48 5
80 -9 80 -9 0 -41 66 -41 85 0 15 26 45 40 45 5 0 11 -4 14 -9z m-170 -76 c-9
-14 -25 -25 -35 -25 -18 0 -19 1 -3 25 9 14 25 25 35 25 18 0 19 -1 3 -25z
m-526 -36 c15 -5 38 -15 51 -22 13 -6 34 -10 48 -9 16 3 30 -5 45 -23 14 -18
27 -25 40 -22 12 4 21 -1 24 -11 19 -63 34 -82 63 -82 36 0 46 -12 71 -86 l20
-58 -40 -41 c-50 -50 -61 -94 -31 -124 24 -24 60 -27 80 -8 11 10 12 8 6 -12
-8 -27 -39 -57 -67 -66 -23 -8 -33 -47 -19 -74 7 -11 24 -24 39 -27 47 -11 62
-32 62 -85 0 -66 -27 -187 -46 -206 -8 -9 -13 -22 -9 -31 6 -15 -20 -52 -37
-52 -5 0 -22 10 -38 21 -24 18 -37 21 -78 15 -28 -3 -83 -1 -124 5 -59 10 -79
18 -106 43 l-32 30 32 16 c31 15 78 71 78 94 0 7 -12 19 -27 27 -24 14 -32 14
-58 3 -57 -25 -93 -18 -136 26 -22 22 -53 43 -69 47 -17 3 -33 9 -35 14 -3 4
4 68 15 141 12 73 28 179 36 236 20 145 39 177 168 275 28 22 37 36 36 55 -3
37 2 52 7 24 3 -14 15 -27 31 -33z m506 -368 c-3 -3 -12 3 -20 13 -11 15 -11
22 -2 34 10 12 14 10 20 -14 4 -15 5 -30 2 -33z m26 -95 c0 -19 -4 -38 -10
-41 -6 -4 -10 10 -10 34 0 23 5 41 10 41 6 0 10 -15 10 -34z m-2 -186 c-15
-24 -24 -25 -31 -6 -7 18 1 26 25 26 16 0 16 -3 6 -20z m52 -572 c0 -4 -16
-11 -35 -17 -19 -5 -47 -18 -62 -29 -15 -11 -77 -33 -138 -50 -108 -30 -112
-30 -205 -18 l-95 11 3 60 c1 33 5 80 8 104 l6 43 71 -4 c70 -4 113 -18 169
-54 26 -17 27 -17 75 23 70 59 79 59 146 -6 31 -30 57 -59 57 -63z m695 -429
c231 -193 467 -387 524 -432 119 -93 194 -179 249 -286 84 -163 81 -186 -56
-451 -52 -102 -120 -234 -150 -295 -30 -60 -65 -122 -78 -138 -13 -16 -24 -36
-24 -45 -1 -9 -6 -27 -13 -38 -18 -33 -277 -248 -286 -238 -21 26 -149 191
-155 201 -4 8 -2 11 6 8 36 -14 137 102 207 236 55 103 103 278 92 329 -8 38
-252 369 -350 475 -25 28 -64 76 -85 108 -22 31 -42 57 -45 57 -13 0 -28 -16
-48 -50 l-22 -35 29 -133 c21 -97 32 -182 40 -315 l10 -183 -34 -117 c-19 -65
-36 -120 -38 -122 -11 -12 -642 -285 -689 -299 -49 -15 -199 -23 -199 -10 0 3
5 14 10 25 11 20 -6 42 -63 81 -23 16 -25 22 -16 50 21 74 0 114 -55 104 -29
-5 -33 -2 -58 44 -16 28 -28 59 -28 71 0 11 -4 29 -10 39 -5 10 -26 95 -46
190 -37 169 -37 173 -21 223 19 58 11 87 -33 118 -38 28 -65 15 -90 -44 -58
-134 -46 -254 50 -507 38 -98 70 -186 72 -195 2 -11 -73 -58 -261 -165 -145
-83 -271 -150 -279 -150 -9 0 -25 -8 -36 -18 -51 -45 -124 -63 -327 -77 -173
-13 -202 -13 -255 0 -97 25 -200 81 -271 149 -59 56 -77 85 -223 356 -87 162
-157 296 -156 297 1 1 547 -119 553 -122 1 0 -5 -23 -13 -50 -9 -28 -18 -92
-20 -144 -3 -68 -8 -99 -20 -112 -8 -9 -18 -36 -21 -58 -5 -36 -2 -44 30 -76
38 -38 67 -44 88 -19 7 8 27 73 44 142 l31 127 22 -79 c25 -91 41 -120 85
-146 74 -46 127 0 78 68 -10 15 -26 62 -35 104 -20 101 -36 137 -81 187 -37
40 -37 42 -30 98 4 32 36 156 71 275 70 237 88 272 229 453 57 73 216 235 290
295 17 14 70 71 118 128 49 56 100 108 115 116 15 8 36 23 46 35 11 12 24 21
30 21 5 0 22 11 36 25 25 24 37 26 171 36 349 24 626 90 774 183 64 41 76 45
135 45 l65 1 420 -351z m5025 -129 c168 -15 163 -13 208 -83 22 -34 43 -72 47
-85 8 -29 -22 -110 -87 -232 -54 -103 -376 -561 -419 -597 -15 -13 -79 -101
-142 -195 -114 -172 -218 -291 -701 -809 -33 -36 -191 -208 -351 -383 l-290
-317 -1140 -1023 c-1065 -956 -1198 -1072 -2021 -1759 -485 -404 -891 -740
-902 -746 -62 -33 -373 15 -603 94 -303 103 -662 341 -905 598 -105 110 -111
131 -68 217 17 36 46 82 63 104 17 21 31 46 32 55 0 9 2 28 2 43 1 15 153 276
352 606 l350 580 17 -127 c10 -69 16 -131 14 -137 -2 -6 -147 -229 -322 -495
-436 -665 -424 -645 -424 -691 0 -51 10 -68 89 -157 126 -142 309 -281 476
-361 44 -21 217 -91 385 -154 270 -102 313 -116 367 -116 l62 0 249 160 249
161 1799 1640 c989 903 1898 1737 2019 1853 121 117 242 233 269 257 27 24
160 166 295 314 135 149 261 287 280 308 19 20 183 245 365 500 l331 462 63
164 c53 137 62 170 57 202 -12 69 -97 116 -194 106 -25 -2 -230 -43 -456 -90
-225 -47 -459 -93 -520 -102 -509 -75 -995 -218 -1582 -466 -208 -88 -840
-394 -998 -484 -247 -140 -409 -259 -723 -528 -100 -86 -185 -157 -188 -157
-2 0 8 23 22 52 57 113 98 152 370 359 264 199 326 242 549 381 342 213 637
361 1075 543 648 268 979 366 1565 461 331 54 443 70 535 77 104 8 373 6 480
-3z m-82 -222 c-41 -63 -69 -120 -92 -180 -20 -52 -199 -343 -235 -381 -16
-16 -212 111 -378 245 -95 77 -175 143 -177 147 -3 4 144 40 327 80 183 40
366 81 407 91 41 10 95 18 119 19 43 1 43 1 29 -21z m-1028 -202 c0 -7 71 -79
158 -159 123 -113 190 -165 298 -233 76 -48 141 -89 143 -91 3 -2 -17 -35 -43
-73 l-48 -70 -33 29 c-23 20 -82 45 -192 81 -144 48 -172 62 -308 148 -157
100 -415 285 -416 299 -1 6 295 62 434 82 4 1 7 -5 7 -13z m-555 -107 c11 -35
156 -171 246 -232 46 -32 122 -86 168 -121 142 -109 306 -192 484 -246 l88
-26 -142 -187 -142 -187 -21 19 c-12 10 -109 74 -216 141 -172 108 -560 399
-560 420 0 4 -79 73 -175 155 -96 81 -175 150 -175 154 0 12 145 62 276 96
156 40 161 41 169 14z m1945 -3 c0 -2 -8 -10 -17 -17 -16 -13 -17 -12 -4 4 13
16 21 21 21 13z m-30 -40 c0 -2 -8 -10 -17 -17 -16 -13 -17 -12 -4 4 13 16 21
21 21 13z m-120 -171 c-38 -57 -83 -119 -98 -137 -60 -69 -238 -335 -295 -442
-33 -61 -90 -156 -128 -211 -85 -125 -391 -485 -423 -500 -13 -5 -37 -26 -52
-45 -16 -19 -76 -89 -134 -155 -58 -66 -177 -203 -265 -305 -87 -102 -186
-214 -219 -250 -34 -36 -78 -98 -99 -138 -37 -70 -76 -108 -1185 -1144 -1095
-1023 -1446 -1347 -1633 -1504 -54 -46 -298 -206 -684 -448 -509 -320 -601
-374 -607 -359 -11 28 -10 29 32 57 29 19 2875 2513 3425 3001 39 34 187 165
330 290 236 208 295 267 659 659 220 237 450 485 511 551 410 441 396 424 490
579 50 81 123 189 163 239 41 51 119 154 174 230 55 75 102 137 104 137 2 0
-27 -47 -66 -105z m-2307 60 c-11 -53 129 -221 248 -298 30 -20 88 -70 129
-112 60 -61 139 -120 390 -288 173 -116 325 -213 338 -215 12 -2 24 -8 27 -12
3 -4 -62 -73 -144 -152 l-149 -145 -426 278 -426 278 -250 237 c-138 131 -247
241 -243 245 5 4 121 53 258 108 138 55 251 100 251 101 1 0 -1 -11 -3 -25z
m-2673 -379 c0 -70 -53 -193 -125 -292 l-70 -96 -22 29 c-27 33 -28 48 -9 94
17 41 36 271 36 434 l0 120 95 -129 c73 -99 95 -136 95 -160z m2080 134 c0
-35 39 -124 71 -163 18 -21 111 -102 208 -180 97 -78 185 -152 195 -165 11
-14 35 -31 55 -39 20 -8 54 -29 76 -47 120 -96 308 -217 436 -281 41 -21 110
-63 154 -95 44 -31 95 -65 113 -74 18 -10 32 -20 30 -24 -10 -24 -498 -492
-498 -479 0 58 -44 89 -241 167 -293 116 -568 307 -771 535 -153 172 -318 435
-318 507 0 34 -14 54 -54 82 -17 12 -11 18 73 65 134 75 369 192 416 206 46
14 55 12 55 -15z m-613 -319 c1 -22 22 -85 46 -139 138 -314 388 -605 690
-803 123 -81 473 -255 589 -293 l97 -32 -32 -29 c-17 -17 -235 -223 -484 -458
-444 -421 -616 -572 -637 -563 -6 3 -127 50 -269 106 -253 100 -266 106 -685
346 l-427 244 -27 217 c-29 231 -62 362 -119 476 -17 32 -27 62 -24 67 3 5
167 137 364 294 324 258 381 299 592 427 204 124 301 178 319 179 3 0 6 -18 7
-39z m-1802 -261 c10 -11 16 -22 14 -23 -2 -2 -152 -72 -333 -155 l-328 -152
-133 0 c-146 0 -195 6 -195 25 0 9 32 14 108 18 97 5 120 10 243 55 74 27 214
89 310 138 236 118 280 131 314 94z m-1136 -121 c15 -25 19 -46 16 -98 -10
-165 -18 -206 -63 -311 -97 -229 -166 -487 -182 -683 -5 -62 -16 -308 -26
-547 l-16 -435 -157 -248 c-86 -136 -158 -242 -160 -236 -2 6 2 138 8 292 15
354 143 1741 167 1808 9 25 18 93 21 159 l6 115 71 44 c175 109 280 171 288
171 4 0 17 -14 27 -31z m1228 -72 c12 -17 53 -77 92 -132 39 -55 86 -122 105
-150 19 -27 49 -90 67 -140 18 -49 38 -94 46 -98 7 -4 13 -16 13 -25 0 -10 4
-22 10 -28 15 -15 120 -492 120 -545 0 -26 -5 -60 -11 -76 -9 -24 -7 -31 14
-49 l24 -20 -13 -175 c-8 -96 -21 -196 -30 -224 -38 -118 -145 -275 -187 -275
-9 0 -19 10 -21 23 -3 12 -17 175 -31 362 -14 187 -31 356 -37 375 -21 69 -92
150 -130 150 -7 0 -25 -11 -40 -25 -33 -30 -32 -36 22 -210 57 -184 80 -422
61 -645 l-12 -135 -64 -97 c-36 -54 -65 -104 -65 -111 0 -25 -121 -186 -189
-249 -88 -83 -155 -133 -256 -192 -153 -88 -389 -156 -553 -159 l-84 -2 -48
55 c-44 50 -49 62 -74 167 -20 90 -23 117 -14 132 9 15 7 29 -10 70 -28 68
-48 373 -35 539 5 61 5 112 1 112 -5 0 -8 102 -8 226 0 262 32 581 79 799 31
138 96 347 134 429 l23 49 129 -4 c276 -8 217 -23 600 153 187 86 342 157 345
157 3 1 15 -14 27 -32z m-1773 -274 c-4 -49 -10 -92 -14 -98 -7 -10 -23 -122
-39 -290 -5 -49 -41 -500 -80 -1001 -39 -501 -75 -931 -79 -956 -6 -30 -5 -59
4 -88 l13 -44 -167 -288 -167 -288 -12 62 c-7 36 -12 153 -13 274 0 203 2 223
55 590 62 431 150 921 260 1448 98 468 192 766 242 766 2 0 1 -39 -3 -87z
m6298 5 c-5 -7 -126 -174 -269 -370 l-258 -357 -394 -425 c-216 -233 -405
-430 -420 -436 -14 -6 -42 -33 -61 -60 -19 -27 -220 -241 -445 -476 -408 -426
-412 -430 -941 -893 l-531 -466 -584 -429 -583 -430 -277 -143 c-152 -79 -281
-143 -286 -143 -5 0 -16 20 -25 45 l-17 45 32 14 c255 107 408 191 567 311 52
39 280 204 505 367 l410 297 1230 1130 1229 1131 86 123 c47 68 130 175 186
238 55 62 139 162 186 221 47 59 215 244 374 412 252 267 326 342 286 294z
m47 -971 c24 -39 105 -117 142 -138 13 -7 75 -27 138 -45 l114 -31 -103 -73
c-373 -264 -738 -706 -1007 -1217 -46 -87 -62 -110 -73 -103 -17 10 -276 6
-305 -5 -11 -5 -29 -16 -40 -25 -11 -10 -77 -49 -147 -87 l-126 -71 -21 58
c-28 76 -53 88 -153 71 -40 -7 -104 -22 -142 -36 -39 -13 -72 -22 -73 -22 -1
1 189 236 422 522 l424 520 70 6 c46 5 83 15 110 30 109 65 167 98 181 104 11
4 20 -8 34 -47 13 -39 37 -71 87 -121 l68 -69 58 7 c110 11 122 15 116 31 -3
8 -34 28 -69 44 -40 18 -83 48 -113 79 -47 48 -49 54 -53 113 -3 40 1 73 10
91 15 31 6 51 -29 62 -16 5 -219 -105 -357 -193 -12 -8 55 98 150 236 173 251
173 252 210 252 36 0 292 116 383 173 l39 25 17 -53 c9 -29 26 -69 38 -88z
m-793 -194 c-34 -49 -82 -119 -106 -158 -86 -137 -767 -1021 -826 -1071 -31
-27 -331 -327 -667 -668 -524 -532 -627 -632 -731 -709 -67 -49 -141 -109
-166 -132 -65 -63 -1312 -792 -1549 -906 -101 -49 -187 -89 -192 -89 -8 0 -63
159 -57 165 2 3 80 36 173 75 94 39 197 85 230 102 33 17 301 200 595 406 598
420 752 543 1520 1215 l395 345 719 756 c395 416 720 756 722 756 2 0 -25 -39
-60 -87z m-2914 -80 c299 -168 552 -283 916 -414 51 -18 91 -36 90 -40 -2 -3
-147 -138 -323 -299 -176 -161 -380 -352 -454 -423 l-134 -131 -89 225 c-92
230 -169 491 -188 637 -11 82 -47 159 -93 198 l-29 24 16 48 c24 72 36 146 37
233 1 43 3 79 5 79 3 0 113 -61 246 -137z m-279 -510 c19 -76 46 -185 58 -243
20 -91 65 -224 153 -455 72 -186 72 -178 -6 -252 -34 -34 -67 -63 -72 -65 -10
-3 -66 127 -66 154 0 9 -6 29 -14 45 -46 94 -70 153 -77 188 -4 22 -11 54 -17
70 -10 31 -82 245 -100 300 -6 17 -18 55 -26 85 -9 30 -29 71 -45 90 l-30 35
96 97 c53 53 100 95 103 93 4 -2 23 -66 43 -142z m-353 -113 c0 -16 5 -30 10
-30 6 0 10 5 10 11 0 5 4 8 9 5 21 -13 161 -398 161 -442 0 -12 7 -27 15 -34
8 -7 15 -20 15 -29 1 -45 45 -186 85 -266 24 -49 51 -109 59 -132 14 -39 13
-44 -5 -67 -10 -13 -19 -33 -19 -45 0 -23 -259 -257 -270 -244 -12 12 -150
372 -150 388 0 9 -4 23 -9 33 -5 9 -37 123 -72 252 -34 129 -68 247 -75 261
-12 24 -11 29 11 49 14 13 25 28 25 34 0 6 21 36 46 66 25 30 64 92 85 138 41
86 69 108 69 52z m-281 -550 c21 -116 46 -213 85 -327 31 -89 56 -170 56 -181
0 -11 6 -25 14 -31 8 -6 16 -26 19 -44 15 -82 22 -99 63 -147 24 -28 44 -55
44 -59 0 -4 -221 -187 -492 -406 -312 -253 -507 -404 -533 -414 -37 -13 -53
-12 -177 7 -133 22 -142 25 -380 131 -392 175 -525 256 -630 378 -58 68 -75
100 -63 118 6 8 147 223 314 477 167 255 309 469 316 476 10 12 17 0 38 -65
14 -43 29 -95 33 -116 5 -30 15 -44 45 -63 47 -30 47 -30 349 0 l245 25 140
54 140 55 28 -61 c16 -34 36 -92 46 -129 9 -36 22 -72 28 -80 6 -7 15 -29 21
-48 67 -211 89 -273 118 -321 30 -50 32 -59 22 -86 -10 -26 -8 -36 8 -64 20
-35 77 -79 100 -79 7 0 26 11 41 24 l28 24 -23 31 c-19 26 -20 34 -10 51 10
16 10 25 -4 47 -9 16 -23 42 -31 58 -8 17 -24 48 -35 70 -12 23 -62 155 -112
295 -51 140 -101 270 -112 288 l-21 34 124 124 c67 68 124 122 125 121 2 -2
16 -77 33 -167z m-2112 -1394 c104 -91 175 -146 313 -240 63 -43 108 -76 100
-73 -55 20 -517 231 -526 240 -6 7 -19 50 -28 97 -10 47 -20 94 -23 105 -4 14
6 9 40 -20 25 -22 80 -71 124 -109z m153 -335 c185 -86 249 -110 460 -172 135
-40 254 -78 265 -85 21 -13 475 -148 537 -159 33 -6 39 -12 47 -44 48 -181 77
-311 71 -311 -5 0 -176 20 -382 44 -205 24 -431 49 -503 55 -71 6 -165 20
-208 31 -86 23 -227 81 -296 122 l-44 26 -48 159 c-27 87 -49 168 -49 180 0
13 -9 37 -20 55 -11 18 -20 43 -20 55 0 11 -9 49 -19 82 -10 34 -16 61 -12 61
3 0 103 -45 221 -99z m1232 -257 c26 -13 44 -32 37 -38 -2 -2 -56 12 -119 30
l-115 33 85 -6 c47 -3 97 -12 112 -19z"/>
<path d="M3085 8907 c-55 -22 -75 -38 -75 -57 0 -26 11 -31 118 -51 91 -16 95
-16 113 2 25 25 24 71 -1 94 -25 23 -113 30 -155 12z"/>
<path d="M3093 8768 c-52 -25 -6 -108 60 -108 38 0 55 15 59 50 2 18 -6 29
-37 47 -45 25 -51 26 -82 11z"/>
<path d="M3778 7149 c-15 -8 -18 -24 -18 -82 0 -93 -23 -260 -50 -362 -11 -44
-46 -133 -77 -198 -49 -103 -54 -121 -44 -143 6 -13 23 -29 38 -35 25 -9 31
-7 55 22 35 42 91 156 117 239 27 87 81 384 81 447 0 83 -53 142 -102 112z"/>
<path d="M4673 7035 c-18 -13 -20 -20 -12 -61 14 -72 51 -143 115 -214 60 -68
114 -167 114 -211 0 -33 19 -56 51 -64 48 -12 72 48 49 119 -5 17 -17 57 -25
89 -11 42 -30 75 -68 120 -29 34 -83 101 -120 150 -38 48 -71 87 -75 87 -4 0
-17 -7 -29 -15z"/>
<path d="M2322 6168 c-22 -22 -13 -45 35 -92 71 -70 140 -100 232 -101 70 0
76 2 88 25 10 20 10 27 0 36 -14 14 -316 144 -332 144 -6 0 -16 -5 -23 -12z"/>
<path d="M5478 5820 l-23 -19 74 -143 c41 -79 97 -179 125 -223 235 -368 691
-762 1090 -942 103 -46 102 -46 224 -27 34 5 34 6 15 26 -35 40 -137 98 -216
123 -74 24 -105 44 -371 239 -401 295 -414 309 -687 728 -167 257 -185 276
-231 238z"/>
<path d="M3965 3830 c-29 -11 -39 -26 -70 -100 -39 -95 -136 -253 -214 -350
-46 -57 -66 -90 -63 -103 5 -20 57 -57 80 -57 37 0 96 85 227 329 l136 255
-23 18 c-25 19 -42 21 -73 8z"/>
<path d="M6937 9733 c-115 -63 -190 -95 -267 -114 -83 -21 -85 -21 -138 -3
-53 18 -55 18 -68 -1 -21 -29 -17 -59 12 -86 23 -21 36 -24 119 -27 70 -3 108
1 147 13 74 25 141 60 181 94 l33 30 107 -10 106 -10 188 -98 c118 -61 240
-115 327 -146 133 -46 139 -47 152 -30 30 40 23 47 -176 155 -63 35 -136 78
-161 96 -117 85 -302 149 -447 156 -61 3 -80 0 -115 -19z"/>
<path d="M790 9716 c-43 -22 -93 -38 -145 -47 -90 -14 -115 -29 -115 -70 0
-33 32 -59 71 -59 14 0 84 22 155 49 154 59 125 61 422 -37 216 -71 234 -73
240 -20 4 33 -26 57 -143 113 -113 55 -248 95 -345 101 -70 4 -79 2 -140 -30z"/>
<path d="M8419 9676 c-111 -61 -135 -78 -137 -98 -2 -14 4 -30 12 -37 21 -18
119 0 193 34 31 14 57 24 59 23 1 -2 35 -72 76 -155 68 -140 73 -153 53 -153
-12 0 -27 -10 -34 -24 -27 -50 42 -96 147 -96 67 0 124 24 166 69 17 17 33 31
37 31 4 0 15 -24 25 -52 31 -95 93 -220 161 -322 92 -139 340 -386 442 -440
70 -37 172 -76 197 -76 8 0 21 12 31 26 17 26 16 27 -13 54 -17 15 -91 65
-164 111 -199 125 -319 245 -429 428 -70 116 -110 218 -121 308 -11 88 -32
117 -95 129 -34 6 -40 3 -104 -60 -38 -36 -74 -66 -79 -66 -18 0 -138 211
-162 283 -24 73 -56 119 -99 142 -26 13 -34 10 -162 -59z"/>
<path d="M5024 9684 c-77 -60 -197 -118 -277 -134 -62 -13 -65 -15 -76 -50
-15 -51 -14 -85 4 -100 17 -14 20 -14 148 39 111 45 150 67 225 129 l53 43 62
-12 c34 -6 82 -24 107 -38 71 -43 189 -88 263 -102 61 -11 68 -11 87 6 28 25
25 50 -7 73 -16 10 -136 56 -268 102 -132 46 -245 85 -251 87 -6 2 -37 -17
-70 -43z"/>
<path d="M1665 9508 c-55 -39 -147 -93 -205 -120 -58 -26 -106 -54 -108 -62
-2 -8 7 -24 20 -36 20 -19 30 -21 87 -16 86 7 177 51 242 116 34 34 64 54 92
62 54 14 87 -2 212 -103 182 -146 290 -208 449 -253 103 -30 119 -31 140 -10
39 38 25 50 -186 155 -203 102 -231 118 -323 195 -100 83 -228 145 -299 144
-11 -1 -66 -33 -121 -72z"/>
<path d="M9415 9521 c-89 -42 -141 -92 -151 -149 -5 -26 -2 -38 12 -52 32 -32
55 -28 83 12 34 47 83 87 120 98 30 8 31 8 142 -150 l112 -159 130 -87 131
-87 18 23 c10 12 18 28 18 35 0 7 -31 35 -69 64 -88 65 -185 171 -242 263 -50
82 -185 228 -208 227 -9 0 -52 -17 -96 -38z"/>
<path d="M5240 9324 c-87 -59 -170 -104 -217 -117 -166 -48 -163 -47 -163 -71
0 -41 22 -49 122 -44 107 6 192 35 283 99 31 21 59 39 63 39 4 0 20 -25 36
-56 62 -118 184 -222 312 -264 62 -21 66 -21 85 -4 31 28 23 47 -37 83 -101
60 -187 144 -280 272 -49 68 -93 124 -99 125 -5 2 -53 -26 -105 -62z"/>
<path d="M680 9243 c-14 -9 -67 -50 -118 -91 -103 -82 -162 -111 -332 -167
-63 -21 -116 -39 -118 -40 -2 -2 4 -17 12 -34 17 -31 26 -35 108 -46 94 -12
292 90 413 214 56 57 62 61 105 61 42 0 67 -15 350 -201 404 -266 669 -398
1004 -500 l108 -34 19 24 c24 29 24 48 0 60 -10 6 -141 62 -292 124 -318 133
-451 197 -630 307 -146 90 -218 141 -295 211 -67 60 -137 96 -223 115 -83 17
-82 17 -111 -3z"/>
<path d="M8052 9165 c-12 -9 -60 -31 -105 -48 l-82 -32 -207 3 c-238 3 -239 3
-164 -73 55 -54 132 -80 212 -72 30 3 123 28 208 56 85 28 168 51 186 51 26 0
46 -15 128 -98 100 -100 209 -184 322 -245 76 -42 216 -97 245 -97 26 0 45 18
45 41 0 20 -130 113 -200 144 -88 38 -156 89 -265 199 -86 86 -125 118 -177
144 -86 42 -117 47 -146 27z"/>
<path d="M6660 9073 c-19 -8 -52 -28 -73 -45 -76 -60 -203 -86 -286 -57 -25 9
-31 16 -31 39 0 31 -31 60 -62 60 -22 0 -48 -49 -48 -89 0 -70 108 -141 215
-141 53 0 73 6 155 49 95 48 150 65 246 75 l51 5 202 -190 201 -189 90 0 c49
0 91 4 94 9 9 14 -14 36 -119 114 -55 41 -164 136 -242 210 -79 76 -158 143
-179 152 -47 19 -167 19 -214 -2z"/>
<path d="M5195 8589 c-155 -138 -276 -208 -375 -219 -89 -10 -124 -31 -115
-68 4 -15 16 -38 28 -51 19 -20 29 -23 78 -18 102 9 285 113 426 241 l61 56
54 -53 c64 -64 193 -133 339 -181 155 -51 165 -52 184 -22 9 14 15 32 13 42
-2 10 -56 37 -158 78 -184 74 -242 108 -299 176 -42 50 -104 90 -138 90 -10
-1 -54 -33 -98 -71z"/>
<path d="M8926 8530 c-111 -114 -110 -113 -236 -143 -62 -15 -73 -34 -40 -67
20 -20 31 -22 103 -18 102 4 159 31 227 105 l47 51 33 -86 c75 -200 182 -342
371 -493 92 -73 99 -75 192 -63 l46 7 -14 27 c-8 15 -36 40 -62 56 -114 66
-241 183 -312 287 -61 90 -111 203 -132 299 -16 77 -25 98 -49 121 -17 15 -38
27 -48 27 -10 0 -67 -49 -126 -110z"/>
<path d="M845 8505 c-154 -138 -192 -157 -313 -163 -91 -4 -94 -4 -122 23 -53
51 -109 5 -79 -66 18 -46 44 -57 159 -67 102 -10 107 -9 170 17 89 37 193 106
273 181 60 56 70 62 90 52 12 -6 103 -83 202 -172 257 -232 313 -272 495 -359
154 -73 379 -131 509 -131 41 0 48 4 64 31 10 18 15 34 13 37 -3 2 -63 17
-133 33 -206 46 -377 112 -539 207 -70 41 -217 166 -375 317 -61 58 -107 93
-160 119 -125 61 -116 63 -254 -59z"/>
<path d="M4413 8500 c-78 -70 -107 -85 -215 -115 -61 -17 -71 -33 -45 -69 12
-16 25 -18 98 -14 99 5 160 33 229 103 40 41 44 42 73 32 17 -6 47 -21 65 -34
44 -30 73 -29 102 2 22 23 22 25 6 50 -35 53 -152 115 -217 115 -10 0 -53 -31
-96 -70z"/>
<path d="M7980 8321 c-96 -50 -124 -60 -167 -60 -42 -1 -55 -5 -67 -23 -26
-36 -20 -66 17 -89 43 -27 64 -22 237 49 109 45 148 57 158 49 8 -6 69 -85
137 -177 160 -214 233 -283 375 -355 58 -30 155 -65 176 -65 16 0 47 56 39 70
-3 5 -30 20 -61 34 -198 91 -411 290 -499 466 -41 82 -62 108 -106 130 -79 41
-111 37 -239 -29z"/>
<path d="M6685 8255 c-128 -79 -151 -86 -228 -63 -35 11 -41 10 -54 -8 -35
-47 10 -102 91 -111 84 -10 199 33 288 108 26 21 53 39 62 39 8 0 30 -28 48
-62 45 -85 145 -181 262 -252 l97 -58 84 7 c54 4 85 11 85 18 0 7 -51 41 -113
77 -80 47 -137 89 -199 149 -49 47 -88 90 -88 96 0 25 -63 95 -103 114 -72 35
-99 29 -232 -54z"/>
<path d="M5567 8086 c-59 -40 -136 -99 -171 -130 -89 -78 -120 -89 -218 -81
-90 8 -118 -5 -118 -56 0 -47 35 -62 126 -54 66 7 92 16 203 71 69 35 168 95
219 134 52 38 96 70 98 70 2 0 61 -32 131 -71 289 -162 423 -218 624 -262 176
-39 193 -40 213 -18 35 38 18 51 -139 106 -287 101 -417 153 -502 204 -64 39
-335 161 -356 161 -1 0 -51 -33 -110 -74z"/>
<path d="M7510 7852 c-74 -42 -162 -95 -195 -117 -33 -21 -91 -50 -130 -63
-66 -23 -78 -24 -207 -18 l-138 6 0 -22 c0 -37 35 -83 76 -103 35 -16 47 -17
134 -6 135 18 307 93 506 222 124 81 131 80 220 -24 67 -76 82 -88 214 -160
l141 -77 90 9 c49 4 92 11 95 13 12 13 -11 38 -44 49 -53 16 -261 121 -323
163 -36 23 -64 52 -84 87 -45 78 -93 112 -163 116 -55 3 -61 1 -192 -75z"/>
<path d="M814 7874 c-28 -10 -108 -75 -245 -198 l-204 -183 -60 -7 c-96 -11
-131 -50 -86 -95 26 -26 111 -36 167 -21 50 14 71 31 307 252 152 143 159 148
200 148 40 0 52 -7 158 -97 260 -219 478 -322 751 -354 110 -12 281 -4 297 14
5 7 11 23 13 37 4 35 -33 45 -222 60 -85 6 -191 18 -235 27 -166 31 -321 118
-458 256 -45 46 -100 95 -123 109 -86 55 -194 76 -260 52z"/>
<path d="M9770 7853 c-8 -3 -46 -31 -85 -62 -39 -31 -105 -71 -148 -90 -64
-28 -77 -37 -77 -57 0 -34 41 -58 90 -51 50 6 137 47 212 98 l59 40 59 -55
c70 -64 141 -100 229 -117 64 -12 64 -12 88 15 29 35 29 47 -3 77 -20 18 -37
24 -73 24 -39 0 -54 6 -85 32 -59 52 -214 153 -233 152 -10 0 -25 -3 -33 -6z"/>
<path d="M532 7029 c-40 -34 -90 -86 -111 -117 -58 -84 -138 -162 -208 -205
-43 -25 -63 -43 -63 -57 0 -41 88 -72 141 -50 19 8 89 81 185 192 85 98 159
178 163 178 5 0 78 -29 162 -63 l154 -64 402 -37 c221 -21 407 -35 412 -32 5
3 14 20 20 36 9 27 8 32 -12 41 -12 5 -132 18 -267 28 -232 18 -257 22 -465
74 -121 31 -267 74 -325 96 -58 23 -107 41 -110 41 -3 -1 -38 -28 -78 -61z"/>
<path d="M735 5852 c-6 -4 -63 -83 -128 -177 -147 -215 -162 -226 -316 -236
-58 -3 -119 -10 -136 -13 -16 -4 -40 -9 -52 -12 -17 -3 -23 -11 -23 -32 0 -58
32 -72 159 -72 82 0 112 4 165 24 126 48 220 128 290 250 l39 67 27 -28 c15
-15 115 -122 223 -238 251 -270 278 -296 362 -344 70 -40 70 -40 88 -19 9 11
17 27 17 35 0 23 -56 82 -155 165 -146 123 -344 330 -458 479 -21 28 -25 42
-21 71 5 30 2 41 -19 62 -27 26 -44 31 -62 18z"/>
<path d="M570 5193 c-80 -103 -148 -163 -220 -196 -35 -16 -66 -21 -145 -21
-55 -1 -103 -5 -107 -11 -14 -19 -8 -62 12 -80 27 -24 108 -30 199 -15 101 17
199 69 278 146 36 35 67 64 68 64 1 0 46 -63 99 -139 148 -214 258 -303 428
-348 56 -15 68 -15 82 -3 32 26 14 51 -69 98 -102 57 -243 170 -302 241 -25
31 -63 92 -85 136 -44 87 -137 224 -153 224 -5 1 -44 -43 -85 -96z"/>
<path d="M1543 4890 c-12 -5 -25 -19 -27 -32 -3 -13 -12 -58 -21 -101 -26
-122 -75 -208 -173 -306 -77 -76 -84 -86 -76 -109 15 -41 45 -44 95 -12 87 58
159 139 213 239 l32 60 74 -86 c120 -136 237 -214 339 -225 25 -2 37 2 48 19
14 21 12 25 -35 75 -28 29 -109 98 -181 153 -116 89 -132 106 -154 155 -14 30
-28 70 -32 88 -6 29 -57 93 -73 91 -4 0 -17 -4 -29 -9z"/>
<path d="M567 4808 c-13 -13 -32 -43 -41 -68 -37 -103 -100 -159 -202 -180
-52 -11 -56 -10 -85 14 -30 25 -61 32 -93 20 -11 -4 -16 -19 -16 -44 0 -33 5
-41 43 -66 35 -24 55 -29 117 -32 102 -5 170 21 251 96 52 48 63 54 73 41 6
-8 79 -98 162 -200 159 -193 218 -246 339 -306 91 -46 133 -57 150 -43 31 26
17 56 -42 95 -104 68 -216 162 -309 257 -154 157 -181 196 -230 333 -17 48
-62 105 -83 105 -5 0 -21 -10 -34 -22z"/>
<path d="M1628 4393 c-8 -10 -34 -50 -57 -90 l-42 -71 -85 -12 c-46 -7 -86
-16 -89 -20 -11 -18 9 -40 58 -65 78 -38 141 -30 204 28 13 11 25 19 26 16 2
-2 19 -33 38 -68 45 -86 106 -152 172 -184 62 -30 77 -33 95 -15 23 23 11 51
-52 119 -72 78 -128 178 -147 262 -20 93 -82 144 -121 100z"/>
<path d="M528 4248 c-8 -7 -25 -38 -38 -68 -18 -44 -36 -66 -91 -110 -37 -30
-76 -57 -86 -60 -10 -4 -76 -15 -146 -26 -126 -18 -128 -19 -125 -43 2 -20 13
-29 53 -44 147 -55 282 -24 410 94 l42 39 36 -53 c46 -66 166 -184 236 -231
76 -52 162 -91 265 -120 110 -32 124 -32 138 -1 10 23 8 29 -18 56 -19 19 -61
41 -113 59 -46 15 -118 49 -161 75 -127 78 -280 234 -280 288 0 44 -23 101
-50 129 -31 31 -48 34 -72 16z"/>
<path d="M1533 3735 c-11 -8 -25 -34 -32 -59 -14 -58 -78 -137 -146 -183 -30
-19 -55 -42 -55 -49 0 -28 48 -47 107 -42 50 4 60 9 95 46 l38 41 43 -84 42
-85 113 -70 c61 -38 117 -70 122 -70 6 0 15 10 21 23 10 21 2 32 -88 123 -66
66 -110 120 -132 163 -32 60 -33 67 -27 132 7 68 6 70 -23 99 -33 34 -47 36
-78 15z"/>
<path d="M538 3622 c-9 -21 -178 -152 -213 -165 -22 -9 -80 -18 -129 -21 -48
-4 -92 -9 -97 -12 -21 -12 -8 -57 26 -91 34 -34 38 -35 93 -31 50 4 71 13 178
81 67 42 126 77 132 77 6 0 18 -12 26 -27 8 -16 32 -49 54 -75 118 -141 265
-216 460 -234 62 -6 75 -4 92 11 47 42 2 88 -95 99 -133 15 -230 56 -315 133
-65 58 -130 155 -130 195 0 15 -9 37 -20 48 -20 20 -55 27 -62 12z"/>
<path d="M1206 3009 c-139 -137 -139 -138 -130 -171 8 -27 15 -34 40 -36 27
-3 46 10 127 77 53 45 100 81 104 81 4 0 31 -39 58 -87 87 -150 203 -246 349
-288 60 -17 60 -17 78 5 32 39 22 58 -44 79 -54 18 -155 86 -204 139 -52 56
-95 135 -119 216 -18 65 -69 127 -101 124 -11 0 -82 -63 -158 -139z"/>
<path d="M431 2919 l-83 -111 -97 7 c-115 8 -128 1 -104 -56 12 -32 21 -38 73
-54 66 -20 139 -16 188 9 15 8 47 34 70 57 24 23 44 40 46 38 2 -2 18 -33 37
-68 85 -161 222 -241 415 -241 85 0 96 5 106 47 11 43 -9 53 -117 56 -85 2
-107 7 -150 29 -27 14 -66 44 -86 65 -40 41 -89 131 -89 161 0 46 -86 172
-118 172 -4 0 -45 -50 -91 -111z"/>
<path d="M560 2268 c-36 -33 -99 -91 -140 -127 l-75 -66 -153 -24 c-147 -22
-153 -24 -148 -45 3 -11 6 -26 6 -32 0 -5 23 -18 50 -28 42 -15 66 -17 137
-11 77 6 97 13 186 58 73 37 120 70 178 124 l78 74 65 -99 c104 -158 192 -224
346 -258 67 -16 72 -15 91 2 12 11 19 28 17 42 -2 20 -13 27 -59 42 -130 40
-229 122 -307 257 -24 40 -57 84 -75 97 -35 27 -98 56 -119 56 -7 -1 -42 -28
-78 -62z"/>
<path d="M1519 1667 c-42 -34 -106 -80 -143 -102 -69 -42 -76 -56 -50 -94 15
-20 22 -23 60 -17 24 3 62 15 84 26 91 46 83 49 139 -48 73 -127 104 -167 171
-216 71 -52 173 -91 201 -75 11 5 19 14 19 19 0 4 3 15 6 23 4 10 -12 25 -52
47 -77 45 -184 148 -239 230 -38 58 -45 75 -45 118 0 28 -5 63 -11 79 -10 27
-47 73 -58 73 -3 0 -40 -28 -82 -63z"/>
<path d="M433 1669 c-24 -12 -71 -53 -109 -95 -96 -108 -207 -156 -293 -126
l-31 11 0 -59 0 -59 45 -7 c131 -19 324 71 405 190 l24 34 86 -87 c125 -130
237 -193 396 -226 88 -18 215 -20 232 -3 18 18 15 56 -5 67 -10 5 -105 36
-211 69 l-192 61 -147 125 c-81 70 -149 126 -152 126 -3 -1 -25 -10 -48 -21z"/>
<path d="M10155 1051 c-35 -7 -26 -16 28 -26 33 -7 37 -5 37 14 0 22 -10 24
-65 12z"/>
<path d="M5275 961 c-27 -9 -76 -33 -107 -53 -123 -80 -226 -118 -342 -127
-76 -6 -80 -7 -89 -34 -5 -16 -7 -30 -5 -33 3 -2 81 0 175 5 l170 9 141 71
c78 39 149 71 158 71 23 0 41 -21 49 -59 9 -44 59 -98 100 -110 30 -8 57 -1
202 51 139 49 183 60 253 65 75 4 91 2 140 -20 71 -31 153 -55 254 -73 111
-19 139 -18 154 6 25 41 -6 64 -166 121 l-147 53 -179 4 -180 3 -65 -30 c-72
-33 -170 -61 -212 -61 -21 0 -28 6 -34 28 -28 113 -138 159 -270 113z"/>
</g>
</svg>
