<?xml version="1.0" standalone="no"?>
<!DOCTYPE svg PUBLIC "-//W3C//DTD SVG 20010904//EN"
 "http://www.w3.org/TR/2001/REC-SVG-20010904/DTD/svg10.dtd">
<svg version="1.0" xmlns="http://www.w3.org/2000/svg"
 width="1024.000000pt" height="1024.000000pt" viewBox="0 0 1024.000000 1024.000000"
 preserveAspectRatio="xMidYMid meet">
<metadata>
Created by potrace 1.10, written by Peter Selinger 2001-2011
</metadata>
<g transform="translate(0.000000,1024.000000) scale(0.100000,-0.100000)"
fill="#000000" stroke="none">
<path d="M6995 9096 c-416 -111 -423 -114 -760 -250 -187 -76 -354 -146 -372
-156 -17 -10 -69 -35 -115 -54 -143 -63 -342 -186 -484 -300 -55 -45 -197
-227 -221 -284 -53 -127 -24 -292 70 -398 65 -75 48 -73 714 -94 541 -17 611
-22 738 -44 154 -28 193 -39 292 -88 138 -68 170 -95 222 -188 l48 -85 7 -123
7 -123 -76 -367 c-42 -202 -85 -401 -95 -442 -11 -41 -78 -444 -151 -895 -73
-451 -133 -822 -135 -824 -2 -2 -79 23 -171 57 -164 59 -182 63 -743 166
l-575 106 -530 21 c-407 17 -546 19 -600 11 -84 -13 -245 -26 -245 -20 0 16
283 694 290 696 6 2 10 7 10 12 0 5 4 20 10 35 10 25 10 25 42 9 18 -10 94
-24 184 -34 151 -17 158 -17 426 5 l273 22 210 102 c398 195 627 397 769 681
24 47 51 108 61 135 10 28 24 57 32 66 7 8 28 67 47 130 19 63 41 128 50 144
23 43 20 68 -12 98 -61 58 -106 19 -157 -136 -19 -59 -35 -112 -35 -119 0 -7
-6 -25 -14 -39 -7 -15 -23 -56 -35 -92 -41 -122 -231 -378 -362 -488 -144
-121 -404 -263 -607 -333 -119 -41 -153 -43 -407 -24 -119 8 -194 9 -290 1
-71 -6 -131 -10 -131 -10 -3 4 344 908 379 989 76 175 137 386 137 473 0 55
-25 106 -61 125 -18 10 -26 9 -48 -7 -22 -17 -27 -32 -38 -114 -16 -116 -52
-260 -91 -359 -16 -41 -398 -973 -850 -2070 -769 -1870 -838 -2035 -1116
-2638 -163 -354 -296 -654 -296 -667 0 -21 49 -75 69 -75 17 0 53 35 70 68 10
20 335 762 721 1647 386 886 706 1614 710 1618 5 5 266 13 582 19 l574 9 745
-135 c735 -134 745 -136 864 -184 81 -33 119 -54 117 -63 -2 -8 -75 -206 -163
-441 l-160 -428 -293 -596 -293 -597 -464 -645 c-255 -355 -499 -694 -543
-752 -99 -133 -103 -144 -71 -176 16 -16 35 -24 57 -23 30 0 50 20 243 242
l211 242 411 635 410 635 393 930 c374 883 414 985 425 1080 2 22 76 447 164
945 106 600 171 947 195 1030 19 69 56 242 81 386 l46 260 -30 177 -30 178
-77 85 c-67 74 -91 92 -169 131 -156 79 -349 137 -565 169 -145 21 -462 29
-630 15 -130 -11 -167 -10 -354 9 -116 11 -211 22 -211 23 -1 1 -12 18 -26 37
-19 27 -25 53 -30 115 -5 73 -3 85 21 137 68 143 310 348 486 411 39 14 189
84 332 156 144 72 334 162 422 201 150 66 184 77 513 156 501 121 567 145 567
199 0 28 -43 65 -74 64 -11 0 -210 -51 -441 -113z"/>
<path d="M3645 4134 c-31 -33 -31 -55 -2 -81 18 -18 97 -35 427 -98 505 -95
592 -122 785 -250 79 -52 128 -107 166 -185 11 -21 27 -111 42 -225 20 -160
22 -208 15 -305 -4 -63 -12 -135 -17 -160 -5 -25 -8 -46 -6 -48 2 -2 13 1 24
7 17 10 28 7 61 -15 22 -15 43 -25 45 -22 12 11 37 159 44 254 13 178 0 289
-53 456 -37 117 -56 159 -91 207 -52 70 -113 132 -170 171 -95 65 -290 150
-422 184 -44 11 -795 136 -819 136 -3 0 -16 -12 -29 -26z"/>
</g>
</svg>
