<?xml version="1.0" standalone="no"?>
<!DOCTYPE svg PUBLIC "-//W3C//DTD SVG 20010904//EN"
 "http://www.w3.org/TR/2001/REC-SVG-20010904/DTD/svg10.dtd">
<svg version="1.0" xmlns="http://www.w3.org/2000/svg"
 width="1024.000000pt" height="1024.000000pt" viewBox="0 0 1024.000000 1024.000000"
 preserveAspectRatio="xMidYMid meet">
<metadata>
Created by potrace 1.10, written by Peter Selinger 2001-2011
</metadata>
<g transform="translate(0.000000,1024.000000) scale(0.100000,-0.100000)"
fill="#000000" stroke="none">
<path d="M6735 9190 c-441 -118 -586 -166 -873 -286 -234 -98 -362 -168 -657
-357 l-270 -173 -82 -108 c-92 -120 -113 -171 -113 -271 0 -115 67 -255 144
-300 22 -13 59 -26 81 -29 22 -3 292 -13 600 -22 498 -14 576 -18 706 -40 197
-32 280 -62 411 -146 71 -45 83 -59 127 -132 l48 -82 7 -125 8 -124 -72 -345
c-39 -190 -82 -390 -95 -445 -13 -55 -83 -471 -156 -925 -73 -454 -133 -827
-135 -828 -1 -2 -76 23 -166 56 -160 59 -174 62 -743 167 l-580 107 -350 14
c-449 19 -781 22 -920 8 -60 -7 -112 -10 -114 -8 -7 6 278 695 294 711 8 8 15
23 15 34 0 23 13 24 48 4 15 -8 94 -21 177 -30 142 -15 164 -14 420 6 l270 21
219 104 c182 87 242 121 355 203 138 100 223 181 299 282 68 90 139 215 173
303 17 44 37 88 44 96 7 8 29 69 48 135 19 66 42 134 51 150 21 40 20 48 -10
85 -21 25 -33 30 -58 28 -26 -2 -36 -11 -58 -53 -15 -27 -43 -97 -62 -155 -94
-283 -107 -310 -225 -466 -95 -128 -212 -240 -331 -319 -141 -93 -341 -193
-475 -238 -126 -41 -148 -43 -515 -32 -122 4 -240 3 -273 -3 -52 -8 -57 -7
-52 7 4 9 83 214 176 456 92 242 194 503 225 579 31 76 72 202 91 280 40 158
37 199 -13 250 -55 55 -97 18 -108 -96 -10 -93 -55 -273 -94 -368 -16 -41
-399 -973 -850 -2070 -770 -1874 -837 -2034 -1116 -2639 -319 -694 -321 -700
-270 -740 69 -54 29 -135 823 1684 l720 1650 586 8 585 9 733 -132 c723 -130
734 -132 862 -182 72 -28 131 -52 132 -53 1 -1 -76 -208 -171 -461 l-174 -459
-290 -587 -290 -586 -503 -699 c-276 -384 -522 -723 -546 -754 -62 -79 -54
-129 23 -145 29 -6 39 4 247 243 l217 248 411 635 411 635 395 935 c379 895
418 994 428 1085 2 22 76 450 164 951 115 656 169 944 194 1025 19 63 56 236
82 384 l48 270 -29 180 -28 180 -79 85 c-66 71 -94 93 -170 132 -165 85 -410
153 -639 178 -111 11 -506 12 -618 1 -51 -5 -143 -1 -290 13 l-215 19 -30 41
c-25 35 -30 52 -33 120 -7 129 5 147 242 349 179 153 206 173 280 202 44 18
194 88 331 157 138 69 324 157 415 196 153 67 193 79 565 171 220 55 421 108
447 120 83 35 97 91 30 125 -25 12 -61 4 -467 -104z"/>
<path d="M3356 4195 l-27 -35 23 -29 c21 -26 37 -30 223 -66 700 -132 718
-136 870 -213 159 -80 246 -155 298 -261 9 -18 28 -118 43 -225 25 -179 26
-199 15 -326 -6 -74 -14 -148 -17 -163 -6 -26 -5 -28 19 -22 18 5 36 0 63 -19
46 -31 46 -31 71 89 13 67 17 134 17 265 l-1 175 -47 150 c-53 169 -86 228
-181 321 -99 98 -301 201 -495 253 -66 18 -795 141 -833 141 -8 0 -27 -16 -41
-35z"/>
</g>
</svg>
