<?xml version="1.0" standalone="no"?>
<!DOCTYPE svg PUBLIC "-//W3C//DTD SVG 20010904//EN"
 "http://www.w3.org/TR/2001/REC-SVG-20010904/DTD/svg10.dtd">
<svg version="1.0" xmlns="http://www.w3.org/2000/svg"
 width="1024.000000pt" height="1024.000000pt" viewBox="0 0 1024.000000 1024.000000"
 preserveAspectRatio="xMidYMid meet">
<metadata>
Created by potrace 1.10, written by Peter Selinger 2001-2011
</metadata>
<g transform="translate(0.000000,1024.000000) scale(0.100000,-0.100000)"
fill="#000000" stroke="none">
<path d="M2767 9816 c-116 -56 -154 -90 -164 -150 -4 -26 0 -39 16 -55 33 -33
71 -25 96 21 11 20 35 49 53 63 28 24 45 28 144 37 109 9 121 8 406 -39 287
-46 294 -47 308 -28 8 10 14 24 14 30 0 37 -25 44 -380 105 -195 34 -362 63
-370 64 -8 2 -64 -19 -123 -48z"/>
<path d="M4183 9721 c-80 -57 -151 -137 -193 -222 l-29 -57 -48 1 c-49 0 -117
-27 -142 -57 -11 -13 -16 -12 -38 15 -68 80 -235 115 -334 68 -42 -19 -55 -21
-82 -12 -47 16 -146 2 -184 -25 -66 -47 -103 -112 -103 -182 0 -18 -9 -31 -31
-44 -46 -27 -114 -127 -140 -203 -16 -47 -23 -97 -25 -160 -1 -51 -5 -97 -9
-102 -3 -6 -15 -56 -25 -112 -11 -56 -26 -110 -35 -119 -47 -52 -17 -123 58
-135 87 -15 131 -51 151 -125 4 -14 43 -56 86 -94 46 -39 77 -73 73 -79 -4 -6
-9 -68 -12 -136 l-6 -125 -110 -21 c-60 -12 -126 -29 -145 -39 -77 -41 -204
-146 -367 -307 -247 -243 -420 -461 -515 -648 -41 -81 -53 -121 -82 -259 -19
-90 -36 -166 -40 -169 -7 -7 -398 85 -587 139 l-146 41 -34 -19 c-49 -29 -52
-79 -9 -135 18 -22 38 -60 46 -85 7 -25 22 -57 32 -72 11 -15 72 -130 137
-257 133 -259 155 -293 252 -385 86 -83 113 -102 191 -134 57 -22 91 -27 310
-42 135 -9 274 -14 309 -12 42 3 62 0 60 -7 -21 -56 -48 -148 -87 -295 l-47
-175 -37 1 c-99 3 -346 177 -346 244 0 31 -27 60 -56 60 -26 0 -86 -63 -113
-118 -17 -33 -39 -54 -96 -90 -82 -52 -94 -79 -50 -108 56 -37 170 7 216 83
12 21 24 40 25 42 2 2 29 -22 61 -53 74 -73 189 -131 293 -148 41 -6 76 -13
78 -13 2 -2 -64 -355 -168 -905 -73 -382 -148 -895 -159 -1085 -10 -172 -9
-203 8 -329 18 -124 22 -141 47 -167 18 -19 38 -29 57 -29 16 0 27 -3 25 -7
-3 -5 -11 -24 -19 -43 -7 -19 -35 -77 -61 -129 -27 -51 -48 -103 -48 -115 0
-46 -15 -50 -61 -19 -24 16 -65 41 -90 56 -94 54 -143 133 -189 308 -12 48
-51 99 -74 99 -18 0 -85 -50 -199 -148 -88 -76 -98 -88 -92 -111 8 -36 32 -51
78 -51 34 0 49 8 113 66 l73 66 55 -114 c80 -166 175 -250 316 -280 l57 -11 6
-77 c9 -109 32 -218 77 -350 21 -63 43 -141 50 -173 14 -71 50 -178 77 -232
18 -36 32 -96 47 -210 4 -22 9 -50 12 -62 6 -22 6 -23 -38 -9 -48 14 -101 10
-236 -19 -40 -8 -84 -15 -96 -15 -29 0 -56 29 -56 61 0 13 -6 44 -14 69 -11
39 -18 46 -48 53 -31 7 -61 -2 -249 -78 -235 -95 -308 -111 -365 -82 -46 24
-57 42 -58 105 -1 70 -23 108 -73 128 -81 34 -198 -22 -530 -253 -133 -92
-255 -176 -272 -185 -22 -12 -31 -24 -31 -43 0 -24 2 -25 72 -25 l71 0 138 86
c76 47 143 83 148 79 19 -11 204 79 282 136 l75 56 23 -63 c47 -132 182 -186
337 -134 32 10 126 46 208 80 83 33 156 60 163 60 8 0 13 -13 13 -34 0 -28 6
-38 34 -55 30 -19 49 -21 196 -21 175 0 213 -7 735 -128 115 -27 246 -49 405
-67 799 -91 804 -91 849 -114 l44 -23 42 42 c32 31 92 64 251 138 115 54 353
171 528 261 294 149 351 183 700 413 357 235 388 257 496 364 63 62 311 297
550 522 400 376 436 407 445 388 13 -25 43 -23 62 4 22 31 156 127 229 163 78
39 178 71 198 64 7 -3 19 -27 26 -54 16 -60 45 -93 82 -93 42 0 193 69 292
133 l88 58 109 -3 109 -3 -271 -420 c-149 -231 -282 -443 -296 -471 -30 -59
-25 -57 -213 -70 -78 -5 -102 -4 -127 9 -17 9 -62 22 -100 28 -68 11 -69 11
-148 -25 -44 -20 -145 -54 -225 -76 l-145 -39 -40 40 c-63 65 -108 84 -195 83
-67 0 -83 -3 -150 -38 -85 -44 -234 -173 -249 -216 -7 -21 -6 -33 5 -49 27
-38 60 -27 148 52 l81 74 139 6 c138 7 139 7 173 -19 50 -38 96 -54 156 -54
45 0 72 9 165 54 122 60 226 96 278 96 19 0 62 -11 96 -25 47 -19 79 -25 140
-25 43 0 78 -2 78 -5 0 -6 -735 -933 -871 -1099 -49 -60 -118 -153 -154 -207
-36 -53 -107 -151 -160 -218 -52 -66 -95 -123 -95 -126 0 -3 43 -4 96 -3 l97
3 73 115 c45 71 230 307 480 615 273 335 458 573 562 723 136 195 161 226 201
246 25 13 78 40 116 60 101 51 187 69 342 71 127 2 133 3 167 29 40 30 42 34
22 61 -10 14 -42 22 -157 36 l-144 19 -108 -31 c-60 -17 -110 -29 -112 -27 -2
2 29 55 69 118 55 87 78 114 92 113 32 -4 61 6 91 31 26 22 39 24 198 30 184
8 216 15 235 51 22 41 6 70 -52 96 -76 33 -189 37 -287 10 -41 -11 -76 -20
-77 -18 -5 5 587 1001 608 1024 11 12 25 20 32 17 23 -9 363 63 389 82 32 23
47 62 36 91 -14 37 -68 40 -194 9 -60 -14 -114 -26 -119 -26 -4 0 29 42 75 92
46 51 84 94 84 95 1 2 84 12 186 23 101 11 199 27 217 35 29 13 32 19 32 60 0
40 -3 46 -32 61 -31 16 -107 16 -193 -1 l-30 -6 35 31 c186 166 400 284 722
399 108 39 222 85 253 102 93 52 108 101 41 133 -32 15 -36 14 -307 -83 -151
-55 -301 -111 -334 -126 -57 -26 -61 -26 -90 -11 -19 10 -64 17 -122 19 -74 3
-102 9 -146 30 -75 37 -132 97 -147 155 -25 96 -32 112 -66 142 -30 26 -41 29
-75 25 -46 -6 -169 -57 -278 -117 -40 -22 -70 -34 -65 -26 10 16 365 551 370
557 2 2 16 -8 31 -23 41 -41 73 -32 260 72 l161 89 17 -66 c22 -89 91 -232
149 -308 99 -130 274 -263 347 -263 40 0 79 24 79 48 0 10 -61 61 -151 127
l-150 110 -78 130 c-84 139 -95 173 -93 300 2 75 -12 119 -44 144 -21 17 -30
18 -50 9 -14 -7 -28 -23 -31 -37 -4 -20 -44 -53 -169 -139 -182 -125 -183
-125 -203 -113 -20 13 34 97 244 379 179 241 180 242 212 237 29 -5 48 5 167
90 73 52 137 95 143 95 5 0 27 -18 48 -41 85 -87 237 -177 363 -213 l52 -15 0
48 0 48 -52 24 c-79 36 -215 128 -283 191 -33 30 -79 65 -103 77 -50 26 -38
32 -160 -77 -45 -41 -84 -73 -86 -71 -2 2 65 120 148 262 101 170 159 279 170
318 9 32 21 59 26 59 23 0 29 51 20 157 -5 60 -14 165 -20 234 -5 69 -21 175
-36 235 -19 82 -23 113 -15 126 16 26 13 63 -7 81 -10 9 -42 27 -72 40 -52 23
-72 25 -355 36 l-300 11 -505 -70 -505 -70 -460 -139 c-445 -135 -461 -139
-480 -122 -16 15 -54 20 -210 30 -349 22 -487 63 -679 200 -43 31 -84 55 -90
53 -54 -14 -125 -57 -204 -124 -122 -103 -163 -122 -267 -122 -115 -1 -138
-32 -64 -86 47 -33 93 -45 139 -35 17 4 107 57 198 118 92 60 175 112 184 115
10 2 39 -9 65 -26 191 -122 418 -197 636 -211 l108 -6 -138 -55 c-154 -61
-630 -294 -853 -417 -221 -123 -335 -196 -575 -366 -120 -86 -221 -155 -222
-153 -2 2 48 104 111 227 131 254 148 313 128 429 -23 127 -43 155 -295 408
-217 219 -840 778 -940 844 -22 14 -71 37 -110 49 -62 20 -75 21 -116 10 -44
-12 -47 -11 -61 11 -26 41 -83 88 -157 130 -65 38 -83 58 -49 58 12 0 184 207
219 263 11 18 22 64 27 115 10 89 12 96 38 98 10 1 26 2 37 3 11 1 32 19 48
41 18 25 51 52 94 74 58 31 77 36 136 36 37 0 77 -5 89 -11 29 -15 61 -4 80
28 12 21 14 33 6 46 -7 13 -6 27 2 48 20 47 -3 64 -106 78 -93 13 -92 13 -204
-58 l-25 -16 22 31 c44 61 137 116 221 130 46 7 57 16 67 55 10 39 -35 72 -92
67 l-43 -3 52 47 c29 27 71 59 93 73 22 13 48 37 57 53 17 29 17 31 -3 56 -11
14 -28 26 -37 26 -10 0 -47 -20 -84 -45 l-68 -45 4 27 c2 16 9 40 15 56 14 36
0 72 -38 92 -53 27 -88 0 -168 -126 -37 -59 -69 -107 -71 -105 -6 7 40 110 67
150 16 22 47 58 68 78 35 35 41 37 71 28 31 -8 34 -7 52 23 37 60 19 110 -46
123 -24 4 -42 -4 -101 -45z m-546 -375 c4 -3 -6 -20 -23 -37 l-30 -29 1 26 c0
22 -7 30 -35 40 l-35 14 57 -3 c32 -2 61 -7 65 -11z m256 -60 c3 -7 15 -80 27
-162 14 -92 30 -161 41 -179 26 -45 41 -115 23 -115 -22 0 -64 83 -64 128 0
32 -6 45 -26 61 -21 16 -23 23 -15 40 14 25 14 98 1 106 -6 4 -19 24 -30 45
-19 38 -19 38 1 64 23 29 34 32 42 12z m-169 -71 c-9 -14 -25 -25 -35 -25 -18
0 -19 1 -3 25 9 14 25 25 35 25 18 0 19 -1 3 -25z m-540 -35 c6 0 30 -9 51
-20 23 -12 51 -19 65 -16 20 3 28 -1 35 -17 7 -14 21 -23 41 -25 26 -3 32 -8
42 -47 11 -42 14 -45 46 -45 41 0 48 -8 74 -87 l20 -62 -33 -29 c-40 -36 -55
-62 -55 -96 0 -32 40 -60 75 -54 42 8 30 -24 -20 -55 -33 -21 -45 -35 -45 -53
0 -29 33 -64 59 -64 26 0 51 -37 51 -76 0 -52 -31 -188 -47 -206 -8 -9 -12
-25 -9 -36 5 -14 -1 -24 -19 -36 -24 -16 -27 -15 -54 5 -25 18 -38 21 -79 15
-28 -3 -83 -1 -124 5 -59 10 -79 18 -106 43 l-32 30 34 18 c31 16 76 72 76 95
0 5 -12 16 -28 25 -24 14 -31 15 -61 2 -58 -24 -89 -18 -132 26 -22 22 -53 43
-69 47 -17 3 -33 9 -35 14 -3 4 4 68 15 141 12 73 28 179 36 236 20 147 31
164 170 276 29 24 35 34 30 57 -3 14 -2 30 2 34 4 4 8 -5 10 -19 2 -14 9 -26
16 -26z m518 -345 c3 -13 3 -27 0 -30 -8 -8 -34 34 -27 45 11 17 22 11 27 -15z
m20 -157 c-17 -17 -20 -8 -14 37 l5 40 10 -33 c7 -23 7 -36 -1 -44z m6 -148
c-15 -24 -24 -25 -31 -6 -7 18 1 26 25 26 16 0 16 -3 6 -20z m-9 -509 c28 -32
51 -61 51 -64 0 -3 -12 -8 -26 -11 -14 -4 -43 -17 -63 -31 -21 -13 -84 -36
-141 -51 -97 -26 -108 -27 -196 -17 -52 5 -96 12 -99 15 -3 3 -2 47 2 99 l8
94 55 3 c64 4 120 -11 169 -44 20 -13 39 -24 43 -24 4 0 23 13 41 30 33 28 84
60 99 60 3 0 29 -26 57 -59z m738 -478 c230 -191 468 -387 528 -435 166 -133
251 -245 300 -396 16 -50 16 -58 1 -118 -17 -67 -131 -306 -184 -385 -16 -24
-51 -91 -77 -149 -27 -58 -54 -108 -60 -112 -7 -4 -22 -32 -35 -62 -21 -52
-76 -106 -267 -259 -21 -17 -22 -17 -80 55 -108 134 -120 152 -97 144 14 -4
30 1 48 15 44 35 125 148 166 234 49 101 94 264 85 308 -8 35 -312 449 -342
466 -10 5 -43 45 -73 90 -34 49 -62 81 -73 81 -11 0 -25 -16 -38 -44 l-22 -43
31 -144 c25 -114 33 -179 38 -314 l7 -171 -34 -116 -33 -116 -51 -17 c-95 -34
-310 -127 -455 -197 -179 -87 -214 -98 -314 -98 -67 0 -77 2 -66 14 21 26 7
60 -32 81 -46 24 -50 33 -37 81 16 56 0 84 -48 84 -35 0 -40 4 -65 50 -16 28
-28 59 -28 70 0 10 -7 34 -15 52 -8 18 -28 103 -46 188 -28 134 -30 161 -20
198 18 70 14 97 -19 126 -57 47 -99 5 -126 -125 -24 -114 -9 -197 80 -432 l73
-194 -263 -152 c-145 -83 -271 -151 -280 -151 -10 0 -27 -8 -38 -18 -52 -46
-124 -63 -326 -77 -226 -17 -261 -12 -393 57 -140 73 -177 120 -353 448 -84
157 -149 286 -144 288 12 4 522 -108 532 -117 4 -4 0 -33 -8 -66 -9 -33 -17
-97 -18 -142 -2 -59 -7 -88 -19 -100 -8 -10 -18 -30 -22 -44 -12 -50 41 -119
92 -119 30 0 45 32 73 155 12 55 25 104 29 108 4 4 13 -18 21 -50 24 -108 59
-155 127 -169 26 -5 34 -2 48 20 16 24 16 27 -5 56 -12 17 -30 69 -41 115 -21
97 -45 148 -89 190 -29 28 -31 33 -25 80 4 27 36 150 71 272 58 200 69 229
116 300 46 71 134 191 148 203 3 3 31 34 62 70 31 36 93 97 138 135 45 39 123
117 172 175 50 58 115 122 147 143 31 21 65 47 76 56 25 22 126 39 275 45 237
11 531 84 660 164 60 38 87 48 135 53 33 3 61 7 62 7 2 1 191 -154 420 -345z
m5069 -145 l114 -12 24 -36 c50 -76 68 -121 61 -156 -14 -78 -134 -283 -303
-521 -94 -132 -184 -251 -200 -264 -16 -13 -75 -96 -133 -184 -101 -156 -121
-179 -734 -847 l-630 -686 -1125 -1009 c-744 -666 -1268 -1127 -1545 -1358
-231 -193 -626 -523 -878 -734 -291 -243 -472 -387 -496 -396 -33 -11 -56 -11
-152 1 -504 65 -891 261 -1296 657 -146 143 -153 159 -104 254 16 33 41 73 54
89 36 44 48 71 42 97 -5 19 65 143 340 600 191 318 350 577 354 577 4 0 15
-55 24 -122 14 -102 15 -125 3 -142 -7 -12 -170 -262 -363 -556 -192 -294
-355 -545 -361 -557 -18 -33 -14 -84 9 -123 38 -62 250 -263 344 -326 151
-102 211 -130 565 -264 256 -97 354 -130 388 -130 41 0 66 13 301 165 l256
164 1805 1647 c993 905 1848 1687 1900 1738 377 363 504 493 725 737 242 267
261 290 576 730 l326 454 65 168 c62 156 65 170 56 208 -8 31 -21 47 -51 67
-69 46 -130 40 -612 -60 -231 -48 -495 -98 -586 -113 -271 -42 -552 -110 -819
-197 -210 -69 -1052 -424 -1340 -566 -471 -232 -626 -335 -1067 -713 l-171
-148 24 55 c48 109 86 146 359 353 452 342 1000 666 1455 858 80 34 310 125
512 202 484 186 739 255 1218 331 179 29 372 58 430 65 136 16 492 18 636 3z
m-137 -220 c-7 -13 -23 -40 -36 -61 -13 -21 -36 -70 -52 -110 -25 -65 -220
-378 -240 -385 -5 -1 -52 23 -106 54 -96 55 -451 332 -440 343 13 12 783 179
833 180 52 1 52 1 41 -21z m-1017 -201 c2 -8 73 -79 159 -159 125 -115 185
-162 297 -233 83 -52 139 -93 135 -99 -18 -33 -89 -125 -95 -126 -5 0 -29 15
-55 33 -27 19 -104 53 -173 77 -143 49 -248 100 -337 162 -129 90 -383 281
-380 285 6 6 379 71 414 72 19 1 33 -4 35 -12z m-562 -93 c0 -25 168 -185 260
-247 47 -32 122 -86 168 -121 141 -107 304 -188 480 -239 l80 -23 -135 -179
c-74 -99 -137 -183 -142 -188 -4 -4 -16 1 -27 11 -10 10 -111 75 -222 145
-196 122 -471 330 -552 417 -19 20 -109 100 -199 176 l-163 138 38 14 c36 12
390 110 407 111 4 1 7 -6 7 -15z m1794 -221 c-48 -71 -97 -139 -109 -153 -48
-54 -238 -337 -272 -403 -54 -108 -138 -239 -218 -342 -110 -140 -325 -385
-338 -385 -13 0 -60 -52 -417 -463 -320 -367 -321 -369 -360 -441 -32 -61
-121 -147 -1206 -1158 -1044 -974 -1358 -1264 -1599 -1474 -97 -85 -1266 -818
-1277 -801 -14 22 -8 32 40 67 26 20 938 819 2027 1777 2152 1892 1973 1728
2424 2221 18 20 214 232 434 470 304 328 415 454 460 525 63 98 486 687 493
687 3 0 -34 -57 -82 -127z m-2271 95 c-12 -6 -24 -20 -27 -31 -13 -53 122
-221 242 -300 37 -24 97 -76 134 -115 53 -57 130 -113 385 -283 175 -117 328
-215 341 -217 12 -2 24 -8 27 -12 2 -4 -62 -73 -144 -153 l-149 -145 -418 274
-419 273 -258 243 -258 242 58 30 c112 56 473 205 498 205 6 0 0 -5 -12 -11z
m-2784 -256 c106 -142 108 -152 63 -280 -20 -56 -48 -107 -96 -171 -37 -50
-69 -91 -71 -91 -2 0 -13 16 -25 35 -21 34 -21 37 -6 76 22 54 48 368 40 478
-4 47 -4 84 -2 81 3 -3 47 -60 97 -128z m2170 -48 c15 -60 43 -115 81 -158 25
-28 250 -209 430 -346 19 -15 170 -113 335 -219 165 -106 334 -215 376 -244
42 -29 84 -56 93 -62 14 -8 -25 -51 -235 -260 -138 -137 -249 -243 -246 -234
3 9 -5 32 -18 51 -19 28 -45 44 -137 82 -276 117 -408 187 -557 299 -170 126
-344 308 -459 480 -80 118 -148 249 -155 295 -5 45 -30 82 -54 82 -31 0 -7 19
95 77 119 68 343 182 382 194 50 15 57 11 69 -37z m-570 -433 c130 -300 378
-590 680 -794 154 -104 498 -268 679 -323 15 -4 -917 -890 -1045 -993 -79 -64
-88 -68 -107 -56 -12 8 -127 55 -256 105 -228 88 -247 98 -655 331 -231 131
-426 243 -433 248 -9 5 -23 84 -42 222 -36 263 -62 367 -129 497 l-21 42 357
285 c329 263 378 298 604 435 135 82 261 156 280 164 l34 14 8 -44 c4 -24 25
-84 46 -133z m-1844 -121 c10 -11 16 -22 14 -24 -2 -2 -151 -72 -331 -155
l-326 -151 -135 0 c-147 0 -200 7 -194 24 2 6 44 14 103 17 135 9 288 61 564
195 118 57 226 105 240 107 14 2 30 5 36 6 6 0 19 -8 29 -19z m-1125 -125 c18
-33 18 -148 0 -216 -6 -20 -8 -44 -5 -52 4 -8 -16 -68 -44 -134 -105 -249
-163 -470 -180 -678 -6 -66 -17 -313 -27 -550 l-16 -430 -157 -248 c-86 -136
-158 -242 -160 -236 -2 6 2 138 8 292 15 344 142 1725 167 1802 9 28 18 100
21 160 l6 110 171 107 c94 59 177 107 185 105 8 -1 22 -15 31 -32z m1274 -144
c43 -60 78 -113 78 -118 0 -4 14 -24 32 -43 47 -52 71 -96 102 -185 15 -44 33
-85 41 -91 7 -6 13 -18 13 -26 0 -8 4 -18 10 -24 5 -5 35 -121 65 -257 53
-239 66 -344 45 -377 -7 -11 -2 -22 15 -40 l25 -26 -14 -175 c-16 -195 -31
-251 -95 -358 -50 -83 -94 -131 -120 -131 -12 0 -21 1 -21 3 -1 1 -14 168 -29
371 -28 359 -30 370 -58 424 -15 30 -45 69 -65 85 l-37 30 -36 -24 c-45 -31
-45 -47 1 -191 20 -62 42 -151 50 -198 21 -120 29 -374 15 -505 l-11 -109 -60
-91 c-33 -50 -60 -96 -60 -103 0 -22 -144 -214 -195 -260 -234 -212 -541 -342
-807 -342 l-84 0 -35 38 c-56 59 -58 63 -84 181 -20 90 -22 116 -13 131 10 16
8 29 -16 77 l-28 58 -5 520 c-4 511 -4 524 22 735 14 118 37 271 51 340 26
129 98 357 137 438 l22 46 110 -2 c61 -1 144 -5 185 -7 l75 -5 345 159 c190
87 348 159 351 160 3 1 41 -48 83 -108z m-1823 -226 c-6 -39 -17 -108 -25
-155 -20 -116 -36 -303 -106 -1230 -33 -437 -65 -835 -71 -885 -9 -66 -9 -101
-1 -129 l11 -39 -167 -290 -167 -289 -12 79 c-6 43 -12 158 -12 255 -1 161 4
212 49 540 56 401 152 943 266 1493 81 392 174 710 218 749 21 18 21 18 24 -5
2 -14 -2 -56 -7 -94z m6016 -326 c-144 -199 -300 -403 -346 -453 -47 -50 -137
-147 -201 -216 -64 -69 -181 -195 -259 -280 -79 -85 -189 -200 -244 -255 -56
-55 -150 -152 -208 -215 -59 -63 -250 -264 -425 -447 -300 -311 -350 -358
-844 -790 l-525 -459 -575 -424 -575 -424 -285 -147 -285 -148 -13 30 c-28 66
-28 66 113 128 256 112 238 100 919 597 l454 331 1225 1126 1225 1125 88 129
c48 70 99 139 113 154 15 14 44 47 66 73 22 26 47 55 56 64 9 10 62 74 117
144 81 101 654 718 668 718 1 0 -115 -163 -259 -361z m288 -565 c51 -115 138
-181 298 -225 l116 -32 -117 -81 c-129 -90 -374 -320 -500 -470 -180 -216
-360 -483 -483 -720 l-57 -110 -159 0 -159 -1 -65 -42 c-68 -43 -243 -143
-252 -143 -3 0 -13 19 -22 43 -10 26 -29 50 -50 64 l-33 22 -147 -40 c-81 -22
-148 -39 -150 -37 -1 2 191 239 427 528 l429 525 67 6 c74 7 100 16 152 51 19
13 61 39 93 57 52 30 58 31 64 14 30 -86 75 -149 136 -194 41 -30 44 -30 122
-24 44 4 84 9 88 12 15 9 -17 35 -70 59 -30 13 -77 47 -107 76 -50 51 -53 56
-59 118 -4 47 -1 72 10 94 14 28 14 30 -8 47 -13 10 -28 19 -33 19 -5 0 -87
-47 -183 -105 -96 -58 -170 -98 -166 -90 5 8 80 120 168 250 153 225 161 234
188 229 21 -4 63 11 175 64 81 38 170 83 197 100 l50 31 9 -22 c5 -12 19 -45
31 -73z m-729 -181 c-20 -27 -71 -102 -115 -168 -126 -190 -789 -1054 -851
-1109 -30 -26 -329 -325 -664 -664 -473 -478 -633 -634 -720 -700 -61 -46
-131 -104 -156 -128 -65 -62 -1353 -815 -1579 -923 -95 -45 -177 -79 -181 -74
-4 4 -19 42 -33 84 l-25 76 201 83 c110 46 236 107 281 135 44 28 297 203 561
389 535 376 689 500 1466 1177 l406 354 719 757 c395 417 721 757 722 758 2 0
-12 -21 -32 -47z m-2497 -362 c139 -59 435 -176 545 -215 17 -6 18 -9 5 -20
-8 -7 -151 -138 -319 -291 -168 -153 -367 -339 -443 -413 -76 -74 -140 -133
-141 -131 -2 2 -44 110 -94 239 -89 230 -182 546 -182 618 0 51 -39 140 -80
183 l-38 40 19 61 c11 33 25 113 31 178 l12 116 255 -145 c172 -98 313 -170
430 -220z m-710 -356 c12 -26 21 -56 21 -66 0 -66 85 -332 175 -549 31 -76 55
-151 55 -175 0 -12 -27 -48 -64 -84 -56 -55 -67 -62 -80 -51 -9 7 -16 19 -16
27 0 7 -9 32 -21 55 -11 22 -19 48 -16 58 2 9 -4 28 -14 41 -10 13 -19 32 -19
42 0 10 -12 41 -27 70 -14 29 -30 68 -34 87 -14 65 -48 175 -79 260 -17 47
-37 111 -45 143 -18 69 -45 125 -74 151 l-22 20 98 98 98 98 21 -89 c12 -49
32 -110 43 -136z m-367 -32 c2 -19 8 -27 19 -25 16 2 23 -8 59 -93 32 -75 110
-315 110 -341 0 -12 6 -27 14 -33 7 -6 19 -39 26 -73 14 -75 59 -197 95 -261
15 -26 34 -69 41 -94 13 -43 13 -48 -6 -68 -11 -12 -20 -31 -20 -43 0 -15 -40
-56 -131 -137 -73 -63 -133 -114 -135 -112 -6 6 -151 383 -162 422 -6 22 -40
146 -76 275 -35 129 -67 242 -71 251 -3 9 4 26 19 42 13 14 22 28 19 30 -2 3
16 29 41 58 26 30 62 87 81 128 51 107 71 126 77 74z m-282 -535 c17 -105 38
-189 81 -317 33 -95 59 -183 59 -196 0 -12 6 -28 14 -34 8 -6 16 -26 19 -44
12 -75 28 -111 71 -161 l46 -54 -500 -404 c-316 -256 -512 -408 -535 -415 -30
-9 -62 -7 -173 12 -131 23 -147 29 -382 133 -267 119 -396 186 -494 256 -69
49 -153 137 -181 189 l-17 33 119 179 c65 99 209 318 318 487 110 169 202 307
205 307 5 1 52 -137 67 -199 7 -27 19 -41 51 -58 l42 -24 268 25 c287 27 262
21 500 116 l53 21 30 -67 c16 -36 37 -96 46 -132 8 -36 22 -71 29 -77 8 -6 14
-18 14 -27 0 -9 5 -19 10 -22 6 -3 10 -17 10 -31 0 -41 72 -235 107 -291 31
-49 32 -55 19 -75 -13 -20 -13 -27 1 -56 20 -41 68 -82 97 -82 26 0 66 26 66
44 0 7 -9 25 -20 39 -17 22 -18 26 -5 37 21 17 19 25 -15 75 -16 24 -30 49
-30 56 0 6 -9 26 -19 43 -11 17 -62 148 -114 291 -52 143 -103 274 -113 292
l-20 31 120 126 c65 69 122 123 126 121 4 -2 17 -69 30 -147z m-2156 -1357
c104 -95 250 -209 372 -291 113 -75 133 -90 99 -73 -11 6 -135 61 -275 123
-140 62 -256 113 -257 114 -1 1 -13 52 -26 115 l-25 112 22 -18 c11 -11 52
-47 90 -82z m246 -400 c141 -66 221 -95 414 -152 132 -39 249 -77 260 -84 20
-13 457 -143 541 -162 l40 -9 44 -167 c24 -92 42 -170 39 -173 -3 -2 -171 15
-374 40 -203 24 -415 47 -471 50 -173 10 -320 48 -468 121 -49 24 -96 48 -102
53 -13 8 -113 323 -113 355 0 9 -9 34 -20 54 -11 21 -20 47 -20 58 0 11 -7 42
-15 69 -8 27 -15 53 -15 57 0 10 29 -2 260 -110z m1080 -221 c47 -6 97 -15
112 -21 30 -12 49 -44 20 -35 -9 3 -62 17 -117 32 -139 36 -141 39 -15 24z"/>
<path d="M3160 8891 c-55 -18 -90 -42 -90 -61 0 -26 25 -36 127 -53 78 -13 84
-13 103 5 28 26 26 73 -3 93 -28 18 -103 27 -137 16z"/>
<path d="M3153 8748 c-50 -24 -6 -108 56 -108 28 0 71 37 71 61 0 7 -93 60
-102 58 -2 0 -13 -5 -25 -11z"/>
<path d="M3833 7133 c-21 -14 -23 -23 -23 -118 0 -181 -37 -343 -121 -525 -27
-59 -49 -114 -49 -123 0 -21 39 -57 61 -57 36 0 132 175 162 295 35 136 80
413 73 448 -6 34 -54 98 -73 96 -4 0 -18 -7 -30 -16z"/>
<path d="M4729 7021 c-22 -18 -22 -21 -11 -72 18 -79 46 -130 109 -200 49 -55
113 -165 113 -195 0 -21 68 -77 86 -70 15 6 16 16 10 84 -9 105 -30 163 -79
219 -23 26 -76 92 -116 146 -41 54 -78 100 -82 102 -4 3 -17 -4 -30 -14z"/>
<path d="M2382 6158 c-20 -20 -14 -37 34 -88 62 -66 138 -102 230 -108 69 -4
73 -3 89 22 16 23 16 29 4 41 -13 13 -320 145 -337 145 -4 0 -13 -5 -20 -12z"/>
<path d="M5528 5810 l-23 -19 69 -133 c139 -266 246 -415 437 -608 234 -237
502 -432 759 -553 l105 -49 80 6 c43 4 82 9 85 12 3 3 -14 23 -37 43 -47 43
-144 92 -218 112 -39 10 -115 60 -340 225 -401 293 -417 310 -690 732 -162
251 -181 270 -227 232z"/>
<path d="M4020 3827 c-17 -9 -45 -52 -90 -143 -73 -145 -118 -217 -202 -318
-32 -38 -58 -72 -58 -77 0 -4 11 -20 23 -35 30 -35 77 -37 112 -4 23 21 305
529 305 549 0 9 -44 41 -57 41 -4 0 -19 -6 -33 -13z"/>
<path d="M868 9695 c-44 -23 -97 -40 -154 -50 -48 -8 -89 -15 -91 -15 -2 0
-11 -17 -20 -37 -14 -36 -14 -38 7 -55 35 -29 89 -22 216 28 99 38 126 44 161
39 23 -3 135 -37 250 -76 114 -38 211 -69 215 -69 4 0 15 11 24 25 27 41 0 69
-131 131 -112 55 -252 97 -355 108 -49 5 -62 2 -122 -29z"/>
<path d="M6945 9689 c-79 -49 -204 -95 -282 -105 -39 -4 -64 -2 -94 10 -35 14
-44 15 -55 4 -27 -29 -26 -56 3 -88 24 -27 37 -31 95 -37 119 -11 238 24 336
99 l54 40 101 -7 102 -7 189 -99 c123 -64 237 -115 328 -146 137 -47 139 -48
154 -28 8 11 13 26 12 35 -2 8 -68 51 -148 95 -80 44 -174 99 -210 123 -140
92 -274 139 -425 148 l-90 5 -70 -42z"/>
<path d="M8452 9649 c-131 -70 -133 -72 -130 -102 3 -29 7 -32 41 -35 43 -4
137 21 184 48 l33 19 78 -154 c71 -141 76 -155 57 -155 -13 0 -27 -10 -35 -25
-20 -38 7 -71 76 -91 87 -25 175 -2 233 60 14 14 29 26 35 26 7 0 24 -35 40
-77 76 -206 175 -353 355 -531 75 -73 160 -149 190 -169 62 -41 168 -88 223
-98 31 -6 38 -4 48 14 22 43 14 50 -240 213 -166 107 -303 261 -399 448 -67
131 -87 195 -90 288 -1 39 -53 82 -98 82 -34 0 -46 -7 -103 -65 -35 -36 -67
-65 -71 -65 -14 0 -138 221 -159 285 -13 39 -32 82 -42 98 -18 25 -66 57 -85
57 -4 0 -68 -32 -141 -71z"/>
<path d="M5068 9656 c-68 -57 -159 -102 -245 -123 -38 -9 -73 -17 -79 -19 -7
-1 -17 -25 -24 -53 -10 -45 -10 -55 5 -77 9 -14 22 -23 28 -20 7 3 55 22 107
44 126 51 147 63 226 123 l68 51 64 -10 c38 -7 82 -22 110 -40 87 -55 289
-120 327 -106 6 3 18 16 25 30 25 45 -11 65 -282 159 -136 47 -254 85 -262 85
-7 0 -38 -20 -68 -44z"/>
<path d="M1723 9481 c-61 -43 -155 -97 -207 -121 -100 -46 -113 -61 -78 -93
22 -20 79 -22 147 -3 72 19 112 42 175 101 30 29 72 58 94 65 35 11 42 10 80
-11 22 -12 76 -50 120 -83 209 -162 264 -195 421 -248 125 -43 169 -47 185
-19 5 11 10 26 10 33 0 7 -88 57 -197 111 -119 60 -225 121 -270 155 -171 131
-238 169 -333 186 -32 5 -45 -1 -147 -73z"/>
<path d="M9465 9503 c-94 -41 -130 -72 -157 -131 -18 -40 -18 -45 -4 -67 31
-47 72 -41 101 15 18 34 76 79 113 86 28 6 33 0 138 -150 l108 -155 129 -86
c124 -83 130 -86 148 -69 31 28 22 47 -47 99 -86 65 -188 175 -244 266 -40 64
-185 230 -199 228 -3 0 -42 -16 -86 -36z"/>
<path d="M5300 9303 c-110 -75 -128 -84 -275 -133 -90 -30 -111 -40 -113 -58
-2 -13 6 -27 23 -38 59 -39 256 9 378 92 37 26 69 45 71 43 2 -2 16 -29 32
-59 64 -120 201 -232 333 -271 41 -12 45 -12 62 10 11 13 19 27 19 31 0 5 -37
33 -82 63 -102 68 -172 140 -272 280 -43 59 -78 107 -79 106 -1 0 -45 -30 -97
-66z"/>
<path d="M650 9143 c-118 -95 -192 -133 -355 -183 -60 -19 -111 -35 -113 -36
-11 -7 32 -64 51 -68 103 -22 154 -13 277 49 73 36 192 127 231 176 27 35 35
39 75 39 40 0 68 -16 346 -201 242 -161 338 -219 482 -289 199 -97 359 -162
520 -212 103 -31 106 -31 126 -13 23 20 26 48 8 62 -7 5 -130 58 -273 117
-306 128 -411 176 -537 246 -136 77 -312 195 -375 252 -75 68 -136 105 -212
128 -113 36 -131 31 -251 -67z"/>
<path d="M8090 9139 c-57 -30 -141 -60 -210 -75 -52 -11 -85 -11 -161 -2 -98
11 -229 4 -229 -12 0 -21 69 -85 115 -106 85 -40 151 -34 345 31 90 30 177 55
192 55 21 0 46 -19 110 -86 146 -152 327 -270 514 -337 65 -23 73 -24 93 -11
11 8 21 23 21 33 0 22 -117 101 -240 162 -71 35 -102 60 -194 151 -125 125
-171 160 -258 192 -63 24 -64 24 -98 5z"/>
<path d="M6699 9046 c-25 -13 -62 -35 -81 -49 -54 -42 -102 -57 -177 -57 -72
0 -121 12 -121 30 0 13 -61 69 -76 70 -15 0 -34 -45 -34 -83 0 -46 23 -73 93
-109 79 -40 152 -44 212 -10 132 74 216 102 307 102 l57 0 197 -185 198 -185
93 0 c51 0 93 4 93 8 0 17 -28 43 -111 104 -48 35 -158 131 -246 213 -174 164
-193 175 -299 174 -41 0 -73 -7 -105 -23z"/>
<path d="M5270 8588 c-69 -63 -180 -146 -245 -184 -27 -16 -99 -45 -160 -65
-119 -39 -125 -45 -86 -99 14 -19 28 -26 64 -28 91 -6 300 107 440 237 l66 62
37 -41 c68 -75 243 -163 427 -216 l91 -27 18 23 c37 46 24 58 -142 124 -152
61 -257 116 -273 144 -37 60 -123 122 -167 121 -8 0 -40 -23 -70 -51z"/>
<path d="M8962 8509 l-107 -110 -90 -22 c-76 -19 -90 -25 -93 -44 -5 -33 33
-53 99 -53 105 0 215 53 262 126 12 18 25 34 29 34 4 0 13 -24 22 -52 8 -29
33 -89 54 -133 77 -158 161 -260 311 -381 l104 -84 71 6 c39 4 72 8 74 9 1 1
-2 13 -8 26 -6 13 -46 44 -88 69 -106 63 -252 210 -316 320 -49 82 -106 225
-106 265 0 50 -22 97 -53 115 -18 11 -38 20 -45 20 -7 0 -61 -50 -120 -111z"/>
<path d="M916 8487 c-148 -132 -200 -159 -319 -165 -86 -4 -89 -4 -117 23 -26
25 -33 27 -55 17 -32 -15 -41 -52 -21 -91 23 -44 43 -51 169 -57 l112 -6 72
36 c92 45 171 99 250 170 33 31 66 56 72 56 6 0 106 -85 221 -189 116 -105
243 -211 283 -237 206 -136 437 -218 677 -239 l75 -7 19 33 c18 31 18 33 1 46
-11 7 -31 13 -46 13 -47 0 -250 56 -359 99 -180 70 -296 141 -443 271 -73 64
-162 146 -199 182 -47 47 -89 77 -140 101 -128 61 -119 63 -252 -56z"/>
<path d="M4462 8477 c-77 -68 -88 -75 -137 -80 -65 -7 -135 -41 -135 -66 0
-10 9 -26 20 -36 16 -15 32 -17 97 -13 95 6 156 33 222 97 43 42 51 46 76 38
16 -6 44 -20 63 -33 43 -29 76 -30 102 -4 29 29 25 43 -24 88 -50 46 -95 68
-158 77 -42 6 -45 4 -126 -68z"/>
<path d="M8020 8301 c-96 -50 -124 -60 -167 -60 -42 -1 -55 -5 -67 -23 -26
-36 -20 -66 17 -89 43 -27 64 -22 237 49 80 33 149 58 153 55 5 -3 66 -82 136
-177 70 -94 155 -197 189 -228 73 -67 171 -128 262 -161 111 -41 114 -41 133
-3 l16 34 -72 38 c-113 59 -200 120 -284 197 -87 82 -185 208 -218 282 -38 84
-97 131 -177 140 -38 4 -57 -2 -158 -54z"/>
<path d="M6726 8233 c-128 -80 -135 -82 -238 -57 -21 5 -29 1 -42 -19 -25 -37
-5 -72 52 -94 37 -14 54 -15 106 -6 77 13 164 55 222 106 24 21 51 37 60 35 9
-2 34 -32 56 -68 57 -93 108 -143 237 -227 l114 -75 83 7 c53 5 84 12 84 19 0
6 -51 42 -112 79 -125 75 -262 198 -313 282 -36 59 -93 95 -150 94 -32 0 -63
-15 -159 -76z"/>
<path d="M5619 8069 c-57 -39 -134 -98 -171 -130 -91 -81 -119 -92 -223 -83
-82 6 -83 6 -100 -20 -23 -35 -13 -70 24 -86 49 -20 160 3 266 55 92 45 235
135 293 186 18 16 37 29 43 29 5 0 74 -36 152 -81 265 -151 426 -216 634 -258
153 -32 185 -28 195 22 2 15 -11 24 -67 44 -429 153 -495 180 -585 234 -72 43
-329 159 -354 159 -1 0 -50 -32 -107 -71z"/>
<path d="M7536 7824 c-83 -46 -157 -91 -165 -98 -25 -22 -111 -62 -171 -80
-45 -14 -79 -16 -189 -10 l-134 7 7 -29 c10 -43 38 -77 81 -97 34 -17 46 -17
129 -6 127 17 290 88 493 215 63 40 112 64 130 64 23 0 42 -15 97 -77 61 -70
84 -87 210 -157 l141 -78 95 7 c52 3 96 8 98 9 13 13 -22 40 -87 66 -88 35
-254 125 -308 166 -19 15 -43 41 -52 57 -27 50 -74 99 -108 113 -69 29 -107
19 -267 -72z"/>
<path d="M873 7852 c-26 -11 -118 -86 -244 -199 -196 -176 -205 -183 -246
-183 -81 0 -133 -43 -105 -87 21 -33 145 -45 205 -19 18 7 122 97 232 199 198
184 200 186 245 186 42 1 52 -5 168 -102 199 -166 377 -264 579 -319 61 -16
117 -22 256 -25 190 -6 201 -3 210 43 7 39 -23 51 -173 63 -291 25 -374 42
-495 103 -92 47 -141 84 -252 191 -109 104 -167 139 -263 157 -66 13 -66 12
-117 -8z"/>
<path d="M9727 7780 c-40 -32 -108 -74 -149 -93 -41 -19 -79 -40 -83 -46 -11
-19 22 -59 54 -66 39 -8 156 38 239 94 l63 42 57 -51 c75 -67 163 -110 241
-117 72 -7 91 4 91 53 0 27 -6 36 -30 49 -16 8 -49 15 -73 15 -35 0 -49 6 -72
30 -45 47 -208 150 -237 150 -18 0 -52 -21 -101 -60z"/>
<path d="M607 7018 c-42 -35 -102 -99 -135 -143 -70 -94 -105 -128 -189 -181
-35 -21 -63 -46 -63 -55 0 -48 106 -77 158 -43 17 11 96 97 177 192 81 94 148
172 149 172 1 0 71 -29 155 -65 l154 -64 321 -31 c177 -16 359 -34 406 -39 93
-10 103 -7 114 42 5 22 2 29 -16 37 -13 5 -128 16 -255 25 -221 15 -244 18
-460 71 -125 30 -234 61 -243 68 -24 22 -92 53 -130 61 -19 3 -42 8 -51 11 -9
3 -47 -22 -92 -58z"/>
<path d="M795 5833 c-9 -9 -61 -82 -115 -163 -138 -206 -181 -239 -314 -241
-39 0 -102 -6 -141 -12 -68 -12 -70 -13 -73 -44 -2 -24 3 -36 24 -52 23 -18
40 -21 124 -21 100 0 160 14 246 58 86 44 188 151 228 240 11 24 23 41 27 40
4 -2 105 -109 224 -238 256 -278 287 -308 383 -361 76 -43 94 -43 105 1 7 28
-17 55 -169 186 -143 123 -279 264 -394 407 -57 72 -70 94 -69 120 3 47 -8 72
-37 85 -31 15 -29 15 -49 -5z"/>
<path d="M650 5199 c-94 -117 -146 -166 -220 -202 -60 -29 -73 -32 -160 -31
-101 1 -110 -3 -110 -48 0 -44 32 -58 130 -58 150 0 268 50 370 155 l60 63 99
-142 c151 -216 251 -298 421 -345 l75 -21 18 21 c9 12 17 25 17 29 0 4 -37 29
-82 55 -193 112 -306 222 -393 382 -56 103 -138 223 -153 223 -4 0 -36 -37
-72 -81z"/>
<path d="M1596 4874 c-9 -8 -16 -16 -16 -17 -1 -1 -7 -38 -15 -82 -22 -124
-80 -232 -177 -328 -65 -64 -79 -83 -76 -105 2 -18 11 -29 29 -36 22 -7 34 -4
70 22 69 47 147 130 190 203 21 36 39 71 39 77 0 24 16 10 95 -79 98 -112 192
-180 279 -204 36 -10 72 -15 81 -12 55 22 1 89 -190 238 -149 117 -165 136
-191 233 -14 53 -57 106 -85 106 -10 0 -25 -7 -33 -16z"/>
<path d="M631 4801 c-10 -10 -26 -41 -35 -68 -32 -96 -118 -168 -214 -180 -45
-5 -55 -3 -83 21 -24 21 -38 26 -58 21 -39 -10 -48 -22 -43 -55 6 -43 73 -88
144 -96 99 -12 239 48 302 128 l22 29 134 -163 c162 -198 189 -228 261 -284
64 -49 182 -111 230 -121 25 -5 35 -2 46 12 22 32 15 43 -61 94 -146 99 -287
226 -402 362 -59 70 -114 165 -114 197 0 23 -39 90 -62 106 -29 21 -44 20 -67
-3z"/>
<path d="M1698 4393 c-9 -10 -35 -49 -58 -88 -23 -38 -44 -71 -45 -73 -2 -2
-40 -9 -84 -16 -45 -7 -84 -16 -87 -19 -16 -15 12 -47 58 -67 70 -30 135 -24
187 18 l38 30 38 -71 c47 -86 118 -161 181 -188 55 -25 90 -19 96 16 4 19 -14
48 -89 142 -91 115 -104 140 -128 247 -7 32 -56 86 -78 86 -8 0 -21 -8 -29
-17z"/>
<path d="M597 4242 c-8 -9 -25 -40 -37 -69 -17 -40 -38 -65 -93 -110 l-72 -59
-125 -18 c-155 -22 -160 -23 -160 -45 0 -26 16 -37 84 -56 128 -37 262 -3 369
95 l53 49 15 -24 c8 -13 39 -54 69 -90 110 -134 273 -240 444 -289 110 -32
130 -33 144 -2 9 21 6 28 -26 58 -20 20 -50 39 -67 43 -45 10 -187 78 -242
116 -59 41 -132 108 -185 171 -31 37 -43 63 -54 114 -14 70 -31 97 -75 120
-23 12 -28 11 -42 -4z"/>
<path d="M1620 3742 c-26 -8 -50 -34 -50 -54 0 -53 -104 -181 -169 -207 -21
-9 -31 -20 -31 -35 0 -35 20 -46 80 -46 62 0 108 22 136 65 l17 26 48 -92 c54
-105 94 -145 186 -190 71 -35 92 -34 110 1 11 23 10 27 -15 44 -58 41 -160
154 -201 223 -42 71 -42 72 -35 142 6 62 4 74 -12 92 -25 27 -45 37 -64 31z"/>
<path d="M533 3554 c-107 -93 -143 -109 -258 -119 -50 -4 -96 -12 -102 -17
-22 -18 -14 -49 21 -84 29 -29 41 -34 83 -34 44 0 64 9 182 80 72 44 135 80
139 80 4 0 16 -17 27 -37 11 -21 54 -71 95 -113 113 -114 239 -170 416 -186
81 -7 104 2 104 41 0 35 -42 62 -107 69 -137 16 -252 67 -334 150 -60 59 -109
140 -109 178 0 24 -39 68 -61 68 -4 0 -47 -34 -96 -76z"/>
<path d="M1277 3012 c-75 -75 -137 -145 -137 -155 0 -32 20 -57 44 -57 15 0
61 30 123 80 54 44 101 80 105 80 3 0 28 -37 54 -82 87 -150 206 -248 353
-292 50 -15 56 -15 73 1 23 21 24 62 1 69 -76 24 -172 83 -227 138 -60 60
-126 166 -126 202 -1 53 -72 154 -109 154 -9 0 -78 -62 -154 -138z"/>
<path d="M501 2920 l-83 -110 -98 6 c-97 7 -98 7 -115 -19 -23 -36 -8 -58 57
-82 113 -41 211 -20 292 63 l38 40 35 -70 c82 -163 227 -248 423 -248 60 0 71
3 84 22 19 27 21 64 4 75 -7 4 -53 8 -103 8 -72 0 -100 5 -140 23 -93 43 -153
120 -188 243 -21 71 -87 159 -120 159 -1 0 -40 -50 -86 -110z"/>
<path d="M558 2206 c-152 -138 -121 -124 -345 -157 -102 -15 -108 -19 -96 -55
7 -22 21 -31 63 -46 47 -16 65 -17 134 -8 127 16 256 85 388 208 l47 43 62
-93 c35 -51 85 -114 111 -140 60 -58 155 -106 241 -121 60 -10 68 -9 87 8 36
32 22 57 -45 80 -140 49 -226 120 -305 255 -53 91 -127 150 -188 150 -10 0
-79 -56 -154 -124z"/>
<path d="M1590 1678 c-41 -33 -105 -80 -142 -104 -74 -47 -86 -75 -49 -108 24
-22 57 -16 149 25 35 16 67 29 70 29 4 0 39 -52 77 -116 90 -150 172 -221 294
-254 37 -10 46 -9 62 6 32 29 23 49 -41 88 -83 51 -164 128 -221 210 -41 58
-49 76 -49 114 0 62 -18 117 -49 146 l-26 24 -75 -60z"/>
<path d="M474 1637 c-39 -30 -85 -69 -102 -88 -71 -81 -205 -120 -294 -85 -42
17 -43 17 -60 -4 -24 -30 -23 -44 9 -80 25 -27 36 -32 99 -37 141 -11 288 57
384 178 l38 48 17 -25 c26 -40 127 -138 179 -173 123 -85 267 -131 412 -131
67 0 84 3 98 19 38 42 23 52 -197 122 l-207 66 -140 119 c-77 65 -146 120
-152 121 -7 1 -45 -21 -84 -50z"/>
<path d="M10210 1063 c-41 -8 -43 -19 -5 -30 33 -11 35 -10 35 13 0 13 -1 23
-2 23 -2 -1 -14 -4 -28 -6z"/>
<path d="M5335 972 c-28 -10 -78 -34 -112 -54 -135 -84 -261 -128 -364 -128
-55 0 -57 -1 -68 -32 -6 -17 -9 -33 -7 -35 2 -2 80 0 175 6 l171 9 139 71 c77
39 148 71 159 71 18 0 52 -51 52 -79 0 -21 63 -81 95 -90 28 -8 57 0 200 50
217 76 290 84 390 44 146 -58 370 -100 400 -75 21 18 19 43 -7 67 -13 11 -91
43 -173 71 l-151 52 -163 0 c-160 0 -165 -1 -301 -40 -76 -22 -145 -42 -153
-46 -11 -4 -17 4 -22 26 -10 45 -69 107 -113 120 -50 13 -87 11 -147 -8z"/>
</g>
</svg>
