<?xml version="1.0" standalone="no"?>
<!DOCTYPE svg PUBLIC "-//W3C//DTD SVG 20010904//EN"
 "http://www.w3.org/TR/2001/REC-SVG-20010904/DTD/svg10.dtd">
<svg version="1.0" xmlns="http://www.w3.org/2000/svg"
 width="1024.000000pt" height="1024.000000pt" viewBox="0 0 1024.000000 1024.000000"
 preserveAspectRatio="xMidYMid meet">
<metadata>
Created by potrace 1.10, written by Peter Selinger 2001-2011
</metadata>
<g transform="translate(0.000000,1024.000000) scale(0.100000,-0.100000)"
fill="#000000" stroke="none">
<path d="M6851 10194 c-29 -37 -27 -48 22 -112 24 -31 72 -97 106 -145 63 -88
64 -89 52 -127 -11 -36 -5 -60 64 -311 42 -150 83 -284 91 -298 21 -39 144
-618 144 -682 0 -66 21 -133 53 -168 15 -16 18 -25 10 -28 -8 -3 -13 -23 -13
-52 0 -74 45 -102 100 -64 92 63 254 205 430 377 227 222 356 336 594 525 87
69 208 176 268 238 60 61 123 116 139 122 16 5 29 7 29 4 0 -3 -37 -44 -83
-92 -46 -47 -112 -118 -148 -157 -35 -39 -118 -115 -184 -169 -413 -338 -854
-789 -942 -964 -24 -46 -31 -125 -13 -136 6 -4 4 -17 -5 -35 -22 -42 -19 -53
25 -106 l40 -49 0 -234 c0 -184 -8 -325 -36 -655 -36 -427 -38 -524 -10 -590
18 -44 56 -78 80 -72 15 4 13 -1 -9 -24 -24 -25 -26 -33 -19 -66 6 -22 21 -45
36 -57 25 -18 31 -19 70 -8 59 18 168 92 258 175 102 95 244 207 370 292 106
71 281 177 316 191 10 4 -11 -28 -48 -71 -48 -56 -87 -90 -140 -121 -140 -82
-368 -321 -508 -533 -116 -174 -247 -455 -313 -672 -83 -268 -113 -445 -127
-760 -11 -230 -22 -343 -51 -540 -18 -120 -77 -420 -84 -428 -5 -5 -127 71
-131 82 -2 6 -7 49 -12 96 -7 64 -3 155 14 370 12 157 27 349 32 426 13 184
-1 425 -33 571 -3 13 -18 37 -33 55 -31 36 -62 91 -87 152 -8 22 -142 239
-297 484 l-281 444 -111 90 c-108 88 -111 92 -118 140 -8 48 -49 141 -68 153
-5 3 -10 15 -10 25 0 25 -49 70 -75 70 -11 0 -76 -14 -145 -30 -108 -26 -162
-32 -400 -45 -252 -14 -437 -29 -500 -41 -22 -4 28 20 100 48 19 7 21 11 11
18 -17 10 -36 4 329 94 289 71 620 171 620 187 0 5 -4 9 -9 9 -5 0 -42 30 -81
67 -149 139 -194 163 -667 352 -522 210 -680 253 -1033 285 -85 7 -170 20
-188 27 -28 12 -36 11 -65 -3 -19 -10 -70 -20 -127 -24 -52 -4 -102 -10 -111
-15 -10 -5 -26 -1 -45 12 -55 37 -374 131 -604 178 -76 15 -11 12 383 -19 259
-20 386 -34 405 -44 20 -10 182 -24 619 -51 580 -35 594 -37 637 -61 25 -14
71 -35 103 -48 54 -21 426 -228 605 -336 43 -27 112 -57 157 -70 45 -13 81
-27 81 -32 0 -5 17 -27 39 -51 59 -65 206 -366 229 -469 17 -79 23 -90 109
-203 50 -67 101 -141 113 -165 27 -53 545 -868 565 -889 24 -25 67 35 98 136
25 80 27 102 26 238 0 83 -4 175 -9 205 -13 80 -59 832 -65 1060 -6 225 -16
316 -56 530 -27 143 -30 170 -27 345 2 186 2 191 -24 250 -22 52 -28 83 -37
225 -14 226 -62 468 -122 625 -11 28 -44 147 -75 265 -66 258 -75 282 -124
347 l-38 51 1 94 c1 115 -25 206 -82 288 -32 46 -43 55 -66 53 -46 -3 -67 -31
-60 -78 3 -22 10 -49 15 -60 29 -64 50 -147 50 -198 0 -68 16 -229 31 -307 6
-30 54 -190 106 -355 88 -279 99 -322 150 -605 31 -168 59 -350 64 -405 7
-100 35 -322 64 -530 10 -69 20 -244 25 -470 6 -226 15 -392 24 -445 8 -47 19
-116 25 -155 11 -65 55 -775 49 -781 -2 -1 -95 128 -208 288 -192 273 -247
366 -249 424 -1 12 -13 42 -27 68 -20 35 -30 78 -45 184 -10 75 -25 162 -34
192 -25 87 -25 86 -34 72 -5 -9 -12 3 -21 33 -32 114 -141 235 -270 297 -47
23 -220 125 -385 227 -437 270 -606 341 -960 402 -173 30 -485 37 -637 15 -62
-9 -125 -19 -141 -22 -26 -5 -27 -5 -16 23 8 18 11 101 10 233 -1 177 -4 209
-20 242 l-18 37 107 85 c60 48 112 86 118 86 5 0 39 9 75 20 76 24 151 84 187
153 22 41 27 45 71 50 65 8 119 38 168 93 l41 47 97 9 c164 16 226 70 242 209
5 41 14 86 20 101 6 15 78 118 161 227 82 110 147 206 145 213 -3 7 -21 24
-41 37 -32 22 -35 27 -29 61 12 70 -25 112 -111 126 -29 4 -70 -4 -159 -31
-219 -67 -415 -103 -670 -125 -214 -19 -219 -21 -422 -176 -197 -151 -175
-146 -202 -49 -17 63 -66 140 -115 179 -65 54 -137 76 -248 76 -116 0 -154
-16 -225 -94 -83 -90 -115 -223 -90 -368 8 -45 7 -47 -22 -62 -16 -9 -34 -16
-39 -16 -10 0 -244 202 -366 317 -178 167 -371 273 -596 328 -147 35 -256 42
-305 20 -42 -20 -70 -60 -80 -112 -9 -48 19 -135 57 -179 31 -35 114 -84 143
-84 12 0 11 -7 -7 -42 -29 -55 -27 -116 6 -197 l25 -63 -19 -26 c-13 -16 -20
-40 -20 -68 0 -36 6 -51 36 -84 46 -51 97 -67 165 -54 46 10 49 9 49 -11 0
-12 -23 -43 -56 -75 -101 -100 -202 -278 -220 -388 -4 -23 -11 -42 -16 -42 -5
0 -35 25 -67 55 -32 30 -66 55 -77 55 -10 0 -32 -12 -47 -25 l-28 -25 145
-262 c80 -145 142 -264 138 -265 -14 -5 -644 -63 -679 -63 -28 0 -80 25 -220
106 -101 58 -207 125 -236 148 -127 104 -271 184 -412 229 -44 14 -89 27 -100
30 -25 4 -64 -14 -89 -42 -41 -45 -25 -57 362 -291 341 -205 362 -219 330
-224 -18 -3 -115 -15 -216 -26 -190 -20 -237 -33 -314 -87 -41 -28 -49 -59
-27 -106 21 -46 46 -49 222 -27 l162 21 1015 -35 1015 -35 340 -51 c187 -27
381 -60 430 -71 89 -21 91 -22 143 -81 41 -48 52 -68 52 -95 0 -20 9 -46 20
-60 11 -14 20 -33 20 -41 0 -20 54 -185 87 -268 23 -59 78 -127 128 -160 16
-10 26 -29 30 -57 5 -27 19 -53 40 -74 28 -28 40 -33 81 -33 27 0 54 4 60 8
22 14 73 128 90 197 20 85 14 218 -11 285 -11 27 -18 75 -19 120 -1 61 -5 81
-23 107 -27 37 -29 61 -7 70 9 3 109 -4 222 -15 l207 -21 341 -123 c340 -123
342 -123 502 -223 127 -79 157 -101 142 -107 -11 -4 -70 -14 -132 -23 -136
-19 -235 -45 -339 -91 -43 -19 -80 -34 -83 -34 -24 0 -389 -194 -479 -255
-148 -99 -165 -115 -173 -152 -6 -29 -3 -33 31 -51 l38 -19 231 48 c127 26
267 61 311 78 44 17 95 31 113 31 17 0 188 25 378 55 379 60 392 61 454 9 43
-37 61 -77 72 -162 17 -138 114 -291 303 -477 67 -66 138 -140 157 -165 50
-63 148 -229 148 -251 0 -10 13 -27 28 -38 57 -40 111 -126 177 -281 l65 -154
-10 -487 c-10 -458 -15 -535 -40 -631 -7 -26 -8 -50 -1 -76 l10 -37 -61 65
c-34 36 -71 72 -83 80 -12 8 -66 68 -119 132 -110 133 -175 180 -304 218 -83
25 -191 31 -214 13 -11 -10 -25 -9 -65 7 -28 10 -85 22 -126 26 -66 6 -84 4
-134 -16 -60 -24 -113 -64 -113 -86 0 -8 -18 -2 -47 16 -28 17 -82 37 -126 47
-67 14 -90 15 -161 5 -46 -7 -238 -26 -427 -43 -357 -32 -372 -32 -775 -13
-125 7 -133 6 -178 -17 -27 -13 -61 -38 -77 -57 -25 -28 -29 -41 -29 -91 0
-54 3 -61 32 -86 44 -37 68 -45 153 -48 83 -3 115 -21 108 -61 -4 -20 4 -28
50 -55 53 -30 58 -31 183 -31 l129 -1 35 -30 35 -31 -415 6 -415 7 -754 -70
c-415 -39 -763 -71 -773 -71 -11 0 -18 7 -18 19 0 10 -6 21 -14 24 -12 5 -11
17 5 79 64 249 39 518 -72 778 l-58 135 77 18 c42 10 84 24 92 31 8 7 22 15
31 19 26 9 277 357 301 417 17 41 23 79 25 149 l2 94 75 62 c43 36 116 83 170
109 109 53 174 116 200 193 25 74 23 79 -45 102 l-60 20 -55 -24 c-29 -13
-113 -56 -185 -95 -72 -39 -133 -69 -135 -67 -3 2 3 93 13 201 16 192 16 197
-3 211 -34 27 -67 37 -89 26 -11 -5 -28 -12 -37 -15 -16 -5 -67 -95 -83 -146
-4 -12 -19 -41 -35 -63 -15 -23 -51 -86 -80 -141 l-53 -99 -158 7 -158 8 -88
-46 c-49 -25 -116 -67 -148 -93 -33 -27 -76 -55 -95 -64 -28 -13 -53 -44 -122
-156 -49 -77 -88 -143 -88 -148 0 -4 -10 -27 -22 -51 -19 -39 -20 -49 -10 -91
6 -27 14 -56 17 -66 6 -13 2 -17 -15 -17 -52 0 -146 -59 -222 -138 -91 -96
-131 -173 -158 -302 -25 -127 -105 -415 -137 -492 -38 -95 -121 -255 -171
-333 -24 -38 -105 -147 -178 -241 l-133 -170 -63 -18 c-35 -10 -105 -34 -156
-54 -83 -33 -92 -39 -92 -62 0 -14 12 -37 25 -52 19 -22 33 -28 66 -28 l41 0
-104 -112 c-113 -122 -128 -143 -128 -183 0 -59 63 -129 125 -141 66 -12 123
12 243 102 62 47 119 87 126 90 8 3 46 -4 85 -16 40 -12 80 -19 89 -16 10 4
55 59 99 125 78 112 84 119 122 125 23 3 55 19 74 35 26 23 47 31 95 37 58 6
62 5 62 -13 0 -71 -42 -195 -93 -271 -29 -43 -88 -83 -173 -117 -233 -91 -397
-162 -455 -195 -120 -71 -249 -205 -249 -260 0 -41 73 -105 146 -126 58 -16
105 -14 191 12 18 5 23 1 29 -22 18 -74 69 -124 128 -124 15 0 54 14 86 31
l58 31 44 -26 45 -26 61 21 c51 17 72 32 135 98 52 55 86 102 116 161 37 74
48 87 91 111 154 84 263 187 440 417 109 142 127 161 147 156 13 -4 30 -1 38
6 8 7 51 74 95 150 l81 138 47 6 c57 7 1287 125 1427 137 55 4 127 8 160 7
l60 0 -48 -8 c-27 -5 -60 -16 -74 -25 -14 -9 -55 -27 -92 -40 -90 -31 -705
-329 -850 -412 -261 -149 -489 -315 -719 -524 -98 -89 -132 -126 -132 -143 0
-29 24 -50 49 -43 10 2 145 91 299 196 155 105 284 191 287 191 3 0 -17 -28
-44 -63 -27 -34 -73 -100 -104 -147 -57 -88 -187 -342 -187 -366 0 -16 56 -47
70 -39 20 12 163 220 201 293 116 218 284 407 466 522 97 62 108 73 127 132 7
23 273 153 431 211 152 56 224 77 267 77 29 0 268 30 354 45 56 10 72 84 27
123 l-28 23 145 -7 c79 -3 155 -10 169 -16 14 -5 160 -31 324 -58 165 -27 301
-51 304 -53 2 -2 -9 -12 -24 -22 -132 -85 -312 -242 -435 -380 -108 -121 -128
-156 -128 -229 0 -48 3 -57 31 -80 22 -19 42 -26 71 -26 l40 0 -54 -54 c-60
-60 -105 -140 -124 -221 l-12 -55 153 0 153 0 107 102 106 101 35 -16 c42 -21
106 -22 142 -3 15 8 49 37 75 65 26 27 56 52 66 56 9 3 25 21 34 40 9 20 27
39 39 44 53 20 75 33 116 66 24 19 68 42 99 51 30 9 74 29 98 45 24 16 48 29
55 29 7 0 28 16 46 36 l34 35 47 -21 c108 -48 276 -172 403 -299 70 -70 155
-143 193 -167 37 -24 108 -81 157 -126 l89 -83 25 -105 c54 -229 76 -419 76
-667 0 -90 -3 -163 -6 -163 -3 0 -31 22 -62 49 -75 64 -123 87 -267 128 l-120
34 -1020 49 c-561 27 -1066 50 -1122 50 -102 0 -200 -15 -283 -45 -176 -62
-657 -266 -715 -303 -38 -25 -83 -49 -100 -55 -16 -5 -37 -16 -45 -22 -8 -7
-35 -19 -60 -25 -25 -7 -73 -33 -107 -58 -68 -50 -73 -62 -53 -134 13 -45 40
-62 86 -55 27 5 34 2 39 -14 4 -10 14 -23 23 -27 24 -12 563 78 692 116 123
36 358 85 520 107 178 25 599 31 787 11 408 -43 743 -134 1118 -301 83 -37
313 -152 354 -177 30 -19 31 -22 15 -31 -17 -10 -17 -11 1 -18 11 -4 32 -8 46
-8 91 -3 349 -258 403 -398 15 -40 36 -84 47 -98 19 -24 26 -25 115 -25 l94 0
0 33 c0 38 -36 151 -70 217 -66 130 -179 251 -296 316 -37 20 -103 65 -148 99
-250 188 -545 329 -903 429 -263 74 -495 120 -758 151 -177 21 -254 19 -670
-15 l-360 -29 -369 -96 c-203 -53 -371 -94 -373 -91 -3 3 25 19 63 36 37 17
75 37 84 45 19 18 358 154 470 189 145 46 295 73 535 97 187 19 663 16 840 -5
217 -26 307 -33 640 -51 462 -24 558 -44 706 -144 75 -51 320 -305 375 -388
22 -33 49 -60 74 -73 22 -11 41 -20 44 -20 14 0 76 64 76 79 0 19 -25 93 -44
130 -8 14 -39 50 -70 79 -31 29 -60 61 -64 70 -5 10 -4 134 4 292 11 236 11
302 -2 465 -18 238 -34 314 -90 424 -34 70 -59 103 -116 157 -40 38 -102 85
-138 103 -50 26 -77 49 -115 99 -116 149 -303 297 -495 391 -185 91 -223 114
-300 176 -41 34 -103 81 -138 104 -70 47 -242 136 -284 146 -34 9 -35 15 -3
45 l25 24 73 -23 c39 -12 178 -74 307 -136 129 -62 245 -116 258 -119 18 -6
22 -14 22 -49 0 -51 18 -79 64 -101 50 -24 65 -20 107 24 l39 40 190 -95 c256
-128 311 -146 473 -152 82 -4 155 -1 205 7 68 12 84 19 138 62 71 55 74 61 74
131 0 29 3 82 6 118 l7 66 130 21 c148 23 197 48 232 119 20 41 102 106 703
561 172 130 378 267 552 367 150 86 405 215 426 215 54 0 205 102 243 164 20
32 21 39 9 63 -7 15 -26 34 -42 41 -25 12 -35 11 -89 -8 -243 -89 -703 -346
-1052 -590 -88 -61 -225 -156 -305 -210 -170 -117 -252 -181 -375 -294 l-90
-83 7 94 c3 52 14 116 22 141 29 84 66 426 66 609 1 203 6 247 64 528 81 399
66 360 269 730 l180 330 334 310 c329 306 369 349 531 567 46 63 21 120 -64
148 -28 9 -40 9 -66 -5 -18 -9 -62 -26 -96 -36 -191 -60 -667 -368 -1004 -650
l-117 -98 -8 57 c-12 83 -8 414 5 505 38 254 83 700 80 787 -4 110 -30 179
-93 249 l-38 42 53 87 c100 165 263 366 390 479 30 27 170 142 310 255 224
180 261 214 303 276 26 40 47 74 47 77 0 15 93 130 169 209 108 111 185 171
239 185 45 13 76 47 70 78 -3 14 7 22 41 34 58 20 89 59 74 92 -13 28 -69 57
-110 57 -15 0 -126 -47 -246 -105 -120 -58 -228 -105 -240 -104 -12 1 -31 1
-43 1 -11 -1 -282 -236 -625 -542 -582 -520 -604 -539 -611 -512 -3 15 -14 71
-22 124 -9 54 -29 139 -45 190 -16 51 -32 116 -36 143 -3 28 -20 93 -37 145
-37 117 -63 236 -78 355 -20 158 -49 246 -106 322 -19 25 -24 44 -24 92 0 34
-4 61 -9 61 -6 0 -25 26 -43 58 -35 60 -213 232 -242 232 -8 0 -24 -12 -35
-26z m-4546 -414 c33 -15 84 -34 113 -41 28 -7 52 -16 52 -21 0 -4 16 -14 35
-23 34 -13 545 -410 648 -501 53 -47 90 -60 130 -45 22 8 27 8 27 -4 0 -15 5
-13 116 32 7 2 20 -44 36 -124 32 -158 60 -236 92 -251 34 -15 107 3 163 41
56 38 107 126 118 206 6 41 11 51 26 51 10 0 19 6 19 13 0 7 24 30 53 52 28
21 141 118 250 214 185 164 204 178 287 213 135 55 406 108 556 108 l117 0
-22 -24 -23 -24 76 -7 c65 -6 77 -11 92 -32 15 -24 15 -26 -15 -57 -59 -61
-112 -224 -96 -298 4 -15 4 -28 1 -28 -3 0 -69 -11 -147 -25 -155 -27 -172
-36 -191 -96 -10 -35 -16 -40 -75 -60 -35 -11 -86 -38 -115 -59 -47 -36 -138
-136 -138 -152 0 -4 -21 -10 -46 -14 -66 -9 -201 -112 -274 -206 -41 -54 -63
-74 -83 -76 l-27 -3 -2 -122 c-1 -67 -1 -133 -1 -147 8 -168 11 -270 8 -270
-2 0 -16 5 -32 11 -15 6 -68 19 -116 29 -48 9 -93 24 -100 32 -7 9 -48 19
-107 27 l-95 12 -158 157 c-107 107 -155 162 -151 172 3 8 8 31 10 50 4 32 1
38 -38 67 l-43 32 -50 -29 c-27 -16 -52 -29 -55 -29 -3 0 -45 13 -95 28 -96
30 -92 25 -78 94 12 63 -44 133 -135 167 -39 15 -49 25 -81 86 -30 58 -43 73
-81 91 -25 12 -57 25 -72 28 -25 5 -41 35 -20 35 5 0 9 19 10 43 3 62 -24 97
-111 148 l-75 44 24 28 c53 63 39 107 -44 146 l-51 24 40 48 c34 41 40 54 37
86 -3 37 -6 40 -133 116 l-130 79 55 -7 c30 -3 82 -19 115 -35z m1489 -143
c36 -24 57 -60 68 -115 12 -65 0 -87 -88 -155 l-74 -59 -69 7 c-57 6 -74 12
-95 34 l-26 27 19 107 c16 97 22 112 52 144 l34 35 77 -4 c48 -3 86 -11 102
-21z m-145 -501 c7 -8 8 -22 3 -37 -9 -22 -9 -22 -20 11 -7 18 -12 35 -12 36
0 9 19 3 29 -10z m-1128 -292 c63 -25 67 -28 73 -64 8 -49 36 -83 102 -122
l55 -33 -6 -51 c-6 -50 -5 -52 37 -96 36 -38 61 -53 150 -87 69 -25 126 -55
160 -81 45 -36 53 -39 58 -24 5 13 22 -5 73 -74 36 -50 76 -98 89 -106 25 -18
17 -22 -11 -6 -11 5 -213 12 -477 15 l-459 5 -49 70 c-48 68 -49 70 -38 109
10 33 9 45 -8 82 -36 81 -29 110 70 309 50 99 96 180 102 180 7 0 42 -12 79
-26z m696 -960 c-3 -3 -12 -4 -19 -1 -8 3 -5 6 6 6 11 1 17 -2 13 -5z m988
-447 c0 -52 5 -71 28 -105 24 -37 27 -51 27 -126 0 -47 4 -88 10 -91 5 -3 14
-14 20 -24 8 -16 6 -17 -16 -13 -27 5 -54 47 -54 85 0 14 -34 93 -75 176 -41
84 -75 154 -75 156 0 3 30 5 68 5 l67 0 0 -63z m-1600 -1726 c-8 -57 -17 -68
-36 -45 -11 13 -9 23 10 60 13 24 26 42 29 40 2 -3 1 -28 -3 -55z m-207 -181
c20 -16 38 -20 84 -19 60 2 100 -16 119 -52 43 -83 53 -206 24 -288 -16 -47
-221 -280 -273 -311 -23 -14 -50 -20 -90 -19 -67 1 -182 -24 -193 -43 -5 -7
-16 -37 -24 -66 -14 -48 -14 -55 1 -87 9 -20 28 -42 43 -51 45 -27 114 -206
137 -357 28 -179 9 -349 -58 -543 l-31 -91 -61 -14 c-59 -14 -61 -15 -58 -44
6 -62 -26 -194 -67 -278 -36 -75 -46 -86 -106 -126 -54 -37 -96 -83 -238 -259
l-172 -213 -145 -99 c-145 -99 -145 -99 -195 -94 -59 7 -90 -4 -138 -46 l-35
-30 -31 31 c-26 26 -37 30 -62 25 -17 -3 -43 -15 -59 -26 -15 -11 -39 -20 -52
-19 -36 1 120 74 237 110 124 38 125 38 155 82 14 20 48 54 76 76 127 100 201
250 224 451 10 86 10 117 -5 216 l-18 116 -34 -5 -35 -6 7 69 c6 63 5 73 -21
120 -38 70 -46 75 -89 54 -45 -21 -50 -33 -35 -79 8 -24 9 -44 2 -63 -10 -28
-123 -144 -145 -150 -7 -1 -34 -37 -62 -80 -56 -88 -270 -312 -297 -312 -29 0
-138 32 -138 41 0 4 4 10 9 13 5 4 5 18 -1 34 -11 27 -6 33 123 163 82 81 159
169 196 224 33 50 73 101 88 115 15 14 65 100 110 191 71 142 95 202 159 410
41 134 84 280 96 324 12 44 32 99 46 122 48 83 147 143 235 143 49 0 72 9 60
24 -15 18 -15 69 -1 98 11 23 10 34 -5 75 -27 76 -21 118 30 194 65 96 147
181 262 274 l118 94 153 1 c140 0 156 -2 180 -20z m3782 -1316 c39 -12 66 -29
104 -67 78 -80 116 -179 119 -312 l2 -80 -75 -102 c-56 -76 -83 -105 -107
-113 -18 -7 -39 -21 -47 -32 -15 -20 -17 -21 -141 -8 -109 12 -129 17 -140 34
-32 49 -73 176 -80 244 -6 65 -10 74 -32 83 -34 13 -69 11 -82 -4 -6 -7 -16
-37 -24 -65 -12 -47 -14 -50 -29 -36 -9 9 -36 19 -62 21 l-45 6 6 42 c5 36 2
44 -18 59 -13 9 -41 16 -62 16 -22 0 -49 8 -65 20 -28 21 -94 39 -175 47 -34
4 -55 0 -72 -11 -31 -20 -35 -20 -35 3 0 12 -11 23 -31 30 -49 17 -89 13 -147
-14 -30 -14 -56 -25 -58 -25 -2 0 -4 10 -4 23 0 31 -47 57 -103 57 -25 0 -86
-11 -136 -24 l-90 -24 6 51 c3 29 10 55 16 58 5 4 52 9 105 13 54 4 263 20
466 37 l369 30 210 -31 c166 -24 212 -27 219 -18 11 17 10 36 -2 58 -11 20 -5
22 85 43 43 10 104 6 155 -9z m304 -19 c17 -3 42 -15 57 -26 15 -10 34 -19 42
-19 9 0 31 -18 49 -40 18 -22 50 -52 71 -67 21 -15 47 -43 57 -62 10 -20 83
-100 163 -178 145 -142 146 -142 177 -131 65 22 173 -12 223 -72 25 -29 47
-86 47 -121 0 -8 11 -26 25 -39 14 -13 25 -27 25 -32 0 -14 -137 -10 -143 5
-2 6 -25 18 -51 26 -25 7 -66 31 -91 53 l-45 40 -80 -7 c-76 -7 -80 -8 -80
-32 0 -18 -4 -23 -17 -19 -10 3 -43 8 -74 11 -53 7 -57 5 -78 -20 -11 -15 -21
-36 -21 -47 0 -27 -23 -17 -30 12 -3 13 -17 32 -30 42 -34 25 -157 68 -197 68
l-31 0 44 128 c43 121 45 131 41 212 -5 94 -29 168 -83 261 -39 66 -41 72 -16
66 9 -3 30 -8 46 -12z m-1243 -395 c10 -6 19 -19 19 -28 0 -10 20 -33 45 -52
25 -18 43 -35 41 -37 -2 -3 -21 0 -42 6 -22 5 -129 24 -239 42 -195 32 -198
33 -165 47 27 11 61 13 150 8 94 -6 119 -4 135 8 24 18 31 19 56 6z m442 -192
l6 -46 -57 23 c-31 12 -64 25 -72 27 -8 3 11 13 43 22 31 10 57 22 57 29 0 29
18 -13 23 -55z m-1163 -8 c191 -17 388 -40 525 -63 129 -22 130 -22 133 -50 3
-26 1 -28 -20 -21 -89 28 -188 40 -718 85 -614 52 -627 53 -960 35 l-85 -5 80
10 c239 28 773 33 1045 9z m-1167 -27 c-7 -2 -19 -2 -25 0 -7 3 -2 5 12 5 14
0 19 -2 13 -5z m802 -148 c-5 -3 -48 -13 -95 -23 l-85 -18 -34 23 -34 23 129
-1 c71 0 125 -2 119 -4z m2933 -77 c16 -21 9 -246 -9 -263 -10 -10 -58 -16
-175 -21 -140 -6 -168 -4 -215 11 -58 19 -151 67 -184 95 -11 9 -39 28 -62 40
-24 13 -41 25 -40 27 2 1 55 10 118 19 81 11 147 14 227 10 l114 -6 11 31 12
31 76 -7 c74 -7 75 -6 87 19 13 29 24 32 40 14z m-1620 -248 c122 -80 222
-147 222 -150 0 -6 -234 -132 -350 -188 -53 -25 -101 -57 -129 -86 l-44 -45
-29 24 c-16 14 -38 25 -48 25 -23 0 -77 -44 -85 -70 -3 -10 -26 -30 -50 -45
-64 -37 -161 -118 -222 -183 -29 -31 -55 -54 -58 -50 -10 10 107 152 230 278
95 97 129 140 153 191 40 83 40 95 1 103 -62 12 -86 5 -198 -54 -62 -33 -115
-60 -117 -60 -3 0 41 41 95 91 55 50 103 99 106 109 8 24 275 262 290 258 6
-2 111 -68 233 -148z"/>
<path d="M4944 9606 c-19 -19 -34 -42 -34 -51 0 -16 -8 -17 -89 -11 l-89 7
-21 -30 c-13 -17 -21 -45 -21 -68 0 -38 -1 -39 -68 -71 -88 -42 -162 -107
-209 -184 -36 -59 -38 -60 -73 -54 -19 4 -56 9 -81 12 l-46 6 -44 -55 c-44
-56 -44 -56 -100 -56 -70 -1 -97 -21 -106 -75 -7 -47 12 -66 65 -66 24 0 42
-8 64 -30 16 -16 38 -30 49 -30 33 0 95 37 127 76 29 35 31 36 67 24 88 -29
172 9 224 103 16 29 36 61 44 72 19 27 279 189 402 250 113 56 145 91 145 157
0 47 -29 79 -88 96 -61 18 -81 15 -118 -22z"/>
<path d="M4529 9573 c-13 -16 -12 -17 4 -4 9 7 17 15 17 17 0 8 -8 3 -21 -13z"/>
<path d="M2589 9386 c-65 -45 -66 -89 -5 -160 24 -29 49 -70 55 -92 16 -60 73
-104 135 -104 16 0 32 -13 51 -40 31 -45 111 -90 160 -90 22 0 40 -9 61 -31
45 -48 95 -69 163 -69 56 0 64 3 112 43 86 70 102 154 34 183 -51 21 -88 18
-115 -11 -13 -14 -27 -25 -31 -25 -4 0 -16 16 -26 37 -24 46 -74 73 -135 73
l-48 0 0 39 c0 50 -43 91 -97 91 -28 0 -34 3 -29 16 14 37 -51 104 -100 104
-10 0 -30 12 -45 26 -39 38 -95 42 -140 10z"/>
<path d="M2101 5406 c-79 -27 -93 -50 -89 -143 3 -67 3 -68 43 -90 51 -29 89
-29 145 0 59 29 82 73 77 146 -3 46 -9 59 -36 83 -37 33 -55 34 -140 4z"/>
<path d="M2067 4053 c-8 -10 -19 -30 -22 -45 -8 -31 -26 -36 -45 -13 -36 44
-83 -3 -106 -108 -16 -74 -16 -78 1 -97 10 -11 31 -20 47 -20 27 0 68 30 68
50 0 6 20 8 54 4 l53 -6 24 48 c13 27 25 73 27 104 3 53 2 56 -30 78 -41 27
-50 27 -71 5z"/>
<path d="M1702 3910 c-35 -22 -36 -28 -22 -114 7 -47 6 -63 -5 -79 -8 -12 -15
-36 -15 -54 0 -26 7 -37 36 -57 43 -29 55 -26 86 22 68 103 63 195 -15 270
l-32 32 -33 -20z"/>
<path d="M1502 3773 c-19 -16 -21 -29 -23 -134 -1 -63 1 -121 5 -127 4 -7 21
-19 37 -27 40 -21 61 -8 89 56 32 75 25 154 -17 206 -35 44 -61 51 -91 26z"/>
<path d="M6030 3892 c-55 -24 -60 -35 -49 -103 7 -51 15 -69 37 -86 73 -61
157 11 136 115 -4 18 -11 32 -16 32 -5 0 -26 11 -46 25 -39 27 -39 27 -62 17z"/>
<path d="M6371 3870 c0 -8 4 -24 9 -35 5 -13 9 -14 9 -5 0 8 -4 24 -9 35 -5
13 -9 14 -9 5z"/>
<path d="M1950 9304 c0 -8 5 -12 10 -9 6 3 10 10 10 16 0 5 -4 9 -10 9 -5 0
-10 -7 -10 -16z"/>
<path d="M4540 8610 c0 -5 4 -10 9 -10 6 0 13 5 16 10 3 6 -1 10 -9 10 -9 0
-16 -4 -16 -10z"/>
<path d="M2348 7320 c-28 -17 -51 -105 -45 -172 8 -85 42 -146 102 -183 40
-25 61 -31 125 -33 55 -3 79 0 87 10 40 50 8 106 -67 115 -32 4 -55 15 -77 36
-32 30 -33 34 -33 111 0 80 0 81 -33 104 -38 25 -36 25 -59 12z"/>
<path d="M2036 7009 c-23 -18 -26 -28 -26 -79 0 -58 0 -58 56 -109 95 -87 195
-133 314 -147 50 -5 64 -4 80 11 28 25 25 57 -8 88 -33 32 -119 67 -163 67
-39 0 -149 92 -149 124 0 13 -13 30 -33 44 -40 27 -38 27 -71 1z"/>
<path d="M9283 4315 c-129 -68 -274 -163 -381 -247 -86 -69 -576 -520 -698
-645 -169 -171 -407 -496 -453 -617 -22 -60 -43 -163 -67 -331 -19 -138 -38
-1025 -24 -1127 8 -58 7 -72 -11 -112 -21 -49 -19 -77 9 -108 8 -10 20 -18 26
-18 6 0 83 57 171 126 249 196 565 376 1239 708 209 102 377 184 374 181 -3
-3 -114 -73 -248 -156 -150 -93 -271 -160 -314 -176 -88 -31 -281 -126 -406
-201 -317 -189 -650 -511 -763 -738 -36 -73 -58 -106 -74 -111 -23 -8 -23 -10
-30 -273 -11 -354 -10 -421 5 -447 12 -22 19 -23 117 -23 58 0 105 2 105 5 0
3 -9 24 -21 47 -42 83 -45 349 -5 520 18 79 53 174 94 253 23 45 66 95 174
201 242 238 462 386 898 604 235 118 422 228 615 364 123 86 414 314 473 370
70 66 89 120 57 162 -8 10 -15 29 -15 41 0 11 -20 43 -44 69 l-43 48 -54 -28
c-30 -15 -119 -69 -199 -121 -197 -126 -521 -314 -715 -415 -483 -251 -1155
-606 -1185 -626 -19 -13 -38 -20 -42 -16 -14 14 -22 657 -9 807 18 221 41 376
62 415 10 19 25 51 33 71 16 42 193 273 305 399 325 366 680 692 887 815 107
63 143 88 218 150 49 41 146 150 146 165 0 11 -80 70 -94 70 -6 0 -57 -25
-113 -55z"/>
</g>
</svg>
