<?xml version="1.0" standalone="no"?>
<!DOCTYPE svg PUBLIC "-//W3C//DTD SVG 20010904//EN"
 "http://www.w3.org/TR/2001/REC-SVG-20010904/DTD/svg10.dtd">
<svg version="1.0" xmlns="http://www.w3.org/2000/svg"
 width="1024.000000pt" height="1024.000000pt" viewBox="0 0 1024.000000 1024.000000"
 preserveAspectRatio="xMidYMid meet">
<metadata>
Created by potrace 1.10, written by Peter Selinger 2001-2011
</metadata>
<g transform="translate(0.000000,1024.000000) scale(0.100000,-0.100000)"
fill="#000000" stroke="none">
<path d="M5330 9013 c-37 -7 -79 -51 -86 -91 -11 -57 15 -289 36 -325 29 -51
33 -91 15 -159 -22 -88 -65 -160 -259 -436 -138 -198 -188 -261 -266 -335
-242 -232 -551 -388 -886 -447 -181 -32 -203 -40 -245 -80 -35 -33 -39 -42
-39 -87 0 -39 5 -54 23 -70 l22 -20 270 48 c149 26 283 48 298 48 28 1 866
-397 867 -411 0 -3 -15 -11 -33 -17 -47 -16 -201 -118 -274 -182 -34 -30 -156
-171 -270 -314 -241 -301 -243 -303 -243 -328 0 -10 -92 -197 -204 -415 -300
-584 -397 -781 -464 -937 -108 -254 -192 -500 -263 -770 -36 -139 -553 -2635
-547 -2641 2 -1 57 -6 123 -10 l120 -7 88 474 c49 261 100 538 115 615 l26
142 57 -44 c70 -53 178 -113 279 -152 138 -54 272 -112 284 -121 6 -4 90 -48
186 -97 96 -48 195 -99 220 -114 60 -35 1061 -443 1262 -514 386 -137 784
-242 1123 -297 178 -29 526 -36 715 -15 227 26 341 52 368 82 30 34 31 103 1
130 -30 27 -134 29 -349 8 -236 -23 -445 -28 -544 -15 -44 7 -264 53 -488 104
l-408 92 0 1022 0 1022 28 -4 c15 -3 272 -36 572 -75 l545 -69 200 5 c110 3
214 10 231 15 46 14 67 42 67 90 0 79 35 71 -683 154 -355 42 -711 83 -792 92
-81 9 -151 19 -157 22 -10 7 -28 1411 -17 1411 3 0 68 -13 143 -30 139 -30
230 -37 1289 -107 104 -7 153 5 184 44 29 37 27 103 -4 132 -24 22 -33 23
-378 37 l-353 14 -444 75 c-244 41 -445 75 -447 75 -2 0 -4 241 -4 535 0 294
2 535 5 535 3 0 36 -15 73 -34 98 -49 375 -157 542 -211 158 -51 449 -125 489
-125 49 0 108 38 130 84 46 94 29 112 -135 141 -201 35 -344 76 -537 154 -71
28 -361 181 -380 200 -4 4 88 38 205 76 117 37 238 80 268 95 215 108 396 313
470 531 26 74 30 188 11 259 -57 206 -297 455 -612 633 -25 14 -129 59 -232
101 -102 41 -214 89 -247 106 -115 58 -237 91 -422 115 -44 6 -48 8 -52 38
-14 88 -25 257 -19 295 10 71 -21 164 -73 217 -24 25 -49 44 -56 44 -7 -1 -24
-4 -38 -6z m465 -873 c100 -32 221 -81 363 -149 212 -101 215 -103 426 -267
233 -180 228 -174 283 -345 2 -10 -3 -51 -12 -94 -40 -178 -238 -377 -475
-476 -62 -26 -385 -99 -438 -99 -13 0 -14 19 -7 148 4 81 8 246 10 367 4 276
-2 302 -83 385 -51 52 -60 57 -90 53 -26 -4 -38 -15 -58 -50 l-26 -44 7 -429
8 -430 -41 0 c-63 0 -228 35 -333 70 -98 32 -299 129 -334 160 -48 43 -240
153 -352 201 -68 30 -123 57 -123 60 0 3 26 23 58 44 325 213 606 512 832 882
l44 72 96 -6 c74 -4 127 -16 245 -53z m-94 -1862 c0 -73 4 -322 8 -553 4 -231
7 -421 6 -423 -1 -1 -60 18 -131 42 -208 71 -412 163 -609 274 -83 46 -342
217 -383 252 l-23 19 62 83 c112 148 276 296 421 381 44 25 58 28 260 41 117
7 252 14 301 15 l87 1 1 -132z m-954 -777 c182 -122 360 -208 694 -336 l286
-110 7 -713 c4 -393 6 -715 4 -717 -5 -5 -1119 312 -1153 328 -23 11 -752 452
-762 461 -8 7 62 157 182 393 75 147 201 402 280 567 80 164 151 309 160 322
l15 24 78 -66 c42 -36 136 -105 209 -153z m-891 -1369 c33 -17 87 -53 120 -80
98 -82 222 -161 354 -224 69 -33 161 -78 205 -99 145 -69 215 -91 710 -214
l490 -121 -4 -1010 c-2 -555 -5 -1010 -6 -1012 -1 -1 -544 245 -1206 546 -662
302 -1209 551 -1215 553 -7 3 71 325 209 871 l220 868 31 -24 c17 -13 58 -37
92 -54z"/>
<path d="M7041 3570 c0 -8 4 -24 9 -35 5 -13 9 -14 9 -5 0 8 -4 24 -9 35 -5
13 -9 14 -9 5z"/>
</g>
</svg>
