<?xml version="1.0" standalone="no"?>
<!DOCTYPE svg PUBLIC "-//W3C//DTD SVG 20010904//EN"
 "http://www.w3.org/TR/2001/REC-SVG-20010904/DTD/svg10.dtd">
<svg version="1.0" xmlns="http://www.w3.org/2000/svg"
 width="1024.000000pt" height="1024.000000pt" viewBox="0 0 1024.000000 1024.000000"
 preserveAspectRatio="xMidYMid meet">
<metadata>
Created by potrace 1.10, written by Peter Selinger 2001-2011
</metadata>
<g transform="translate(0.000000,1024.000000) scale(0.100000,-0.100000)"
fill="#000000" stroke="none">
<path d="M5443 7418 c-37 -18 -39 -46 -4 -86 18 -21 43 -59 56 -86 41 -85 41
-129 -3 -343 -38 -182 -45 -205 -142 -437 l-103 -244 -41 -6 c-22 -3 -294 -29
-604 -57 -401 -37 -566 -49 -574 -41 -8 8 56 101 223 324 128 172 248 339 267
371 33 55 34 60 23 100 -10 33 -37 65 -120 147 -167 165 -330 269 -418 270
-30 0 -134 -19 -141 -25 -2 -2 23 -50 56 -107 129 -221 124 -307 -33 -617
-250 -493 -639 -1019 -1114 -1503 -166 -170 -178 -184 -164 -200 23 -25 43
-23 116 16 163 85 390 277 754 639 155 155 284 279 286 277 2 -3 11 -61 19
-130 13 -114 12 -193 -13 -990 -35 -1071 -35 -1113 -9 -1215 28 -111 60 -175
130 -260 70 -86 93 -93 140 -47 33 34 48 80 56 185 4 42 10 77 13 77 3 0 240
18 525 41 478 38 520 40 531 25 15 -20 25 -21 25 -2 0 10 33 15 148 20 81 4
212 13 292 21 80 8 564 44 1075 80 512 36 954 70 983 76 96 19 140 84 106 155
-23 49 -117 129 -196 169 -92 46 -149 51 -273 25 -83 -17 -1620 -190 -1692
-190 l-23 0 0 259 0 260 53 5 c28 4 340 29 692 56 352 27 669 52 704 54 74 6
131 31 148 65 11 23 6 31 -50 105 l-62 81 -100 32 c-55 17 -113 32 -130 32
-16 1 -298 -35 -625 -79 -327 -44 -603 -80 -612 -80 -17 0 -18 19 -18 254 l0
255 53 6 c96 11 1352 115 1389 115 99 0 196 46 186 88 -3 10 -29 50 -59 89
-52 69 -57 73 -123 93 -155 48 -115 50 -786 -39 -338 -45 -625 -83 -637 -86
l-23 -5 0 241 0 242 -26 34 c-15 20 -20 33 -12 33 35 -2 1810 163 1856 172 63
12 109 49 118 93 4 22 -2 42 -24 76 -49 77 -103 111 -231 149 l-114 34 -391
-77 c-390 -78 -392 -78 -826 -116 -239 -21 -436 -38 -436 -37 -6 5 477 691
511 726 40 42 43 47 32 72 -33 78 -290 288 -430 354 -56 26 -143 32 -184 12z
m-266 -1574 c50 -94 63 -160 63 -316 0 -76 -1 -138 -2 -139 -9 -3 -1144 -96
-1147 -93 -2 2 0 120 4 264 l7 260 27 1 c14 0 229 20 476 44 248 24 470 42
495 42 44 -2 45 -3 77 -63z m63 -983 l0 -260 -52 -5 c-83 -10 -1034 -86 -1068
-86 l-30 0 0 260 c0 143 3 260 8 261 4 0 243 20 532 43 289 24 544 44 568 45
l42 1 0 -259z m0 -781 c0 -209 -3 -270 -12 -270 -7 0 -251 -18 -542 -40 -291
-22 -544 -40 -562 -40 l-34 0 0 260 c0 143 3 260 8 261 4 0 246 22 537 48 292
27 547 49 568 50 l37 1 0 -270z"/>
</g>
</svg>
