<?xml version="1.0" standalone="no"?>
<!DOCTYPE svg PUBLIC "-//W3C//DTD SVG 20010904//EN"
 "http://www.w3.org/TR/2001/REC-SVG-20010904/DTD/svg10.dtd">
<svg version="1.0" xmlns="http://www.w3.org/2000/svg"
 width="1024.000000pt" height="1024.000000pt" viewBox="0 0 1024.000000 1024.000000"
 preserveAspectRatio="xMidYMid meet">
<metadata>
Created by potrace 1.10, written by Peter Selinger 2001-2011
</metadata>
<g transform="translate(0.000000,1024.000000) scale(0.100000,-0.100000)"
fill="#000000" stroke="none">
<path d="M6140 8405 l-275 -76 -1065 -145 -1065 -144 -272 40 c-150 23 -283
40 -295 38 -26 -4 -41 -47 -32 -96 7 -38 71 -128 135 -189 24 -23 94 -70 154
-104 61 -34 111 -62 112 -63 1 -1 -13 -1217 -32 -2701 -33 -2520 -36 -2708
-54 -2815 -47 -281 -52 -631 -12 -783 23 -87 110 -269 154 -323 16 -19 42 -41
58 -50 33 -17 34 -16 139 51 61 39 67 46 84 100 53 168 50 -36 53 3388 2 1742
6 3167 10 3167 3 0 497 75 1097 166 722 110 1108 164 1142 162 89 -7 146 -69
159 -174 9 -64 -10 -392 -36 -619 -33 -291 -107 -795 -145 -979 -131 -640
-259 -1152 -360 -1449 -79 -230 -201 -448 -260 -463 -37 -10 -104 2 -202 35
-83 28 -154 58 -442 185 -81 35 -128 51 -135 45 -16 -16 32 -93 113 -182 154
-170 279 -341 411 -562 141 -235 203 -280 314 -224 143 73 371 436 541 861 77
193 197 548 265 783 144 499 362 1617 427 2188 21 192 40 278 75 344 16 31 42
96 56 146 l27 89 -24 44 c-58 111 -399 364 -510 379 -24 3 -121 -19 -310 -70z"/>
</g>
</svg>
