<?xml version="1.0" standalone="no"?>
<!DOCTYPE svg PUBLIC "-//W3C//DTD SVG 20010904//EN"
 "http://www.w3.org/TR/2001/REC-SVG-20010904/DTD/svg10.dtd">
<svg version="1.0" xmlns="http://www.w3.org/2000/svg"
 width="1024.000000pt" height="1024.000000pt" viewBox="0 0 1024.000000 1024.000000"
 preserveAspectRatio="xMidYMid meet">
<metadata>
Created by potrace 1.10, written by Peter Selinger 2001-2011
</metadata>
<g transform="translate(0.000000,1024.000000) scale(0.100000,-0.100000)"
fill="#000000" stroke="none">
<path d="M4409 9276 c-211 -79 -445 -212 -615 -352 -172 -142 -301 -256 -332
-294 -41 -50 -104 -153 -122 -200 -7 -19 -26 -48 -41 -65 -49 -53 -60 -96 -64
-245 l-3 -137 -42 -83 c-54 -108 -70 -185 -70 -348 0 -182 17 -234 104 -317
61 -57 66 -66 110 -186 25 -69 46 -143 46 -164 0 -80 63 -165 122 -165 36 0
81 44 100 96 15 41 22 42 54 5 34 -40 83 -61 147 -61 30 0 71 -7 90 -15 20 -8
49 -15 64 -15 40 1 103 32 142 71 l34 34 -22 -35 c-82 -130 -130 -261 -161
-435 -12 -66 -29 -136 -39 -155 -10 -20 -22 -60 -26 -90 -4 -32 -62 -195 -137
-385 -110 -280 -149 -367 -260 -575 -108 -203 -160 -286 -300 -483 -147 -207
-205 -278 -452 -550 -228 -251 -330 -356 -529 -536 -137 -125 -251 -237 -258
-253 -29 -70 27 -215 114 -295 33 -29 81 -60 123 -78 38 -15 98 -43 134 -61
36 -17 139 -52 229 -77 90 -26 165 -48 167 -50 2 -2 0 -24 -4 -49 -7 -33 -27
-67 -80 -134 -65 -83 -86 -101 -261 -222 -105 -73 -199 -136 -208 -139 -10 -4
-81 -41 -159 -83 -77 -42 -221 -112 -320 -155 -231 -103 -795 -401 -840 -444
-37 -37 -50 -81 -39 -139 12 -67 23 -72 160 -72 99 0 142 5 220 25 119 31 241
78 363 139 90 45 97 47 227 58 l134 12 56 -50 c79 -68 105 -84 142 -84 44 0
69 27 89 96 15 54 16 94 2 223 -3 21 28 41 312 204 173 99 376 208 452 242
333 153 490 274 653 500 19 26 24 27 50 18 32 -11 229 6 256 22 14 9 311 56
317 50 2 -2 6 -28 9 -59 5 -53 4 -57 -23 -78 -124 -96 -235 -231 -324 -398
-34 -63 -66 -120 -71 -126 -19 -23 -78 -244 -89 -336 -13 -110 2 -367 25 -428
19 -50 55 -161 62 -190 3 -14 19 -44 34 -67 16 -23 29 -46 29 -51 0 -18 111
-111 173 -146 131 -73 153 -76 508 -76 l318 0 1018 181 1018 180 375 120 c236
76 395 132 428 152 78 47 165 138 207 218 20 39 35 72 33 73 -1 2 -18 11 -37
21 -26 13 -31 19 -20 25 8 4 109 52 224 106 116 54 238 116 273 137 35 22 67
36 71 31 4 -5 72 -110 151 -234 79 -124 163 -243 187 -265 49 -47 73 -98 73
-154 0 -47 34 -139 58 -158 69 -55 139 -66 207 -33 54 26 86 61 126 140 18 36
33 66 35 68 1 2 40 -5 88 -15 84 -17 86 -17 113 3 34 25 73 98 73 137 0 16
-25 104 -55 195 -60 184 -162 632 -172 754 -3 46 -1 108 7 155 16 96 16 271 0
346 -21 105 -88 175 -188 198 -31 7 -47 3 -102 -22 -36 -17 -93 -48 -128 -71
-60 -39 -65 -41 -122 -35 -32 4 -72 2 -88 -4 -17 -6 -153 -102 -304 -214 -150
-113 -282 -205 -293 -205 -37 0 -236 -92 -252 -116 -11 -18 -50 -35 -153 -69
-76 -25 -146 -45 -154 -45 -35 0 -11 33 87 118 202 176 287 277 426 503 63
103 71 122 71 166 l0 50 61 7 c34 3 78 6 98 6 82 0 181 56 181 101 0 55 -92
163 -163 193 -40 16 -166 155 -237 261 -48 73 -216 397 -245 475 -9 25 -28 65
-41 90 -14 25 -53 102 -88 171 -57 110 -73 133 -133 186 -44 40 -85 89 -117
142 l-48 80 13 53 c21 88 15 238 -16 353 -14 55 -51 197 -81 315 -35 140 -66
239 -89 285 -46 94 -105 232 -115 273 -4 18 -20 51 -34 73 -15 21 -34 59 -44
82 -9 24 -88 153 -176 288 -143 221 -165 249 -224 294 -117 89 -170 121 -239
144 -49 16 -1464 251 -1511 251 -2 0 -1 14 3 30 5 24 3 30 -11 30 -10 0 -28
-10 -41 -22 -13 -12 -24 -20 -26 -17 -20 27 -172 294 -252 444 -25 48 -62 93
-113 142 l-76 72 0 118 c-1 106 -4 125 -30 186 -15 38 -30 94 -33 125 -5 55
-3 60 45 132 28 41 106 146 174 234 113 143 126 165 143 228 15 57 16 76 6
108 -12 41 -58 87 -94 94 -77 16 -95 13 -208 -28z m-466 -1430 c67 -63 152
-140 190 -171 39 -33 67 -65 67 -76 0 -11 6 -19 14 -19 8 0 41 -23 72 -50 69
-61 108 -74 208 -68 62 3 80 7 98 25 l22 22 34 -47 c18 -26 40 -59 47 -73 l14
-27 -178 -135 c-104 -79 -202 -163 -236 -201 -55 -64 -59 -66 -104 -66 -50 0
-97 -26 -173 -99 -21 -19 -40 -32 -44 -28 -3 3 3 33 14 66 17 49 18 62 7 71
-20 17 -85 -13 -85 -39 0 -11 -5 -23 -11 -26 -5 -4 -14 -17 -19 -30 -8 -20
-15 -23 -43 -19 -19 2 -64 20 -101 39 -37 19 -74 35 -82 35 -8 0 -12 5 -9 10
8 14 -20 23 -48 16 -32 -8 -67 -43 -67 -69 0 -12 -7 -30 -14 -40 -12 -15 -22
8 -85 200 -53 160 -83 237 -116 290 l-44 73 32 62 c32 63 111 150 216 238 63
53 64 77 2 104 -37 17 -40 17 -77 -2 -22 -11 -61 -44 -89 -72 -27 -28 -58 -56
-68 -61 -17 -9 -17 -8 -4 23 7 18 31 75 52 127 21 51 44 95 50 98 14 5 317 30
388 32 l49 1 121 -114z m1620 -685 c249 -33 489 -65 535 -71 144 -19 304 -79
418 -157 22 -15 102 -99 177 -185 164 -191 242 -325 341 -585 36 -94 75 -187
86 -206 24 -41 100 -262 100 -292 0 -11 12 -56 26 -100 30 -96 63 -246 74
-335 7 -64 6 -67 -47 -192 l-55 -126 -84 -56 c-69 -46 -84 -61 -89 -88 -6 -31
-49 -60 -824 -540 -776 -481 -894 -548 -918 -525 -3 4 11 53 31 110 21 59 60
214 91 366 68 324 83 503 65 772 -10 161 -17 195 -116 625 -57 250 -111 466
-120 479 -22 34 -49 39 -92 18 -53 -26 -53 -60 -2 -197 33 -88 55 -183 112
-480 l72 -371 0 -250 c1 -289 -7 -361 -70 -632 -52 -226 -82 -313 -169 -489
-78 -158 -131 -230 -262 -354 -142 -135 -316 -238 -518 -305 -607 -202 -1251
-203 -1850 -3 -149 50 -212 79 -274 128 -58 46 -121 125 -121 152 0 11 18 30
47 48 27 17 240 230 488 489 l441 459 252 351 c257 358 319 455 422 660 107
215 156 343 224 581 74 264 87 295 154 385 26 35 75 108 110 164 235 375 563
698 762 751 24 7 58 23 75 36 16 13 36 24 43 24 8 0 217 -27 465 -59z m-1049
-153 c-49 -51 -114 -123 -143 -160 -29 -38 -54 -68 -57 -68 -2 0 32 51 77 113
57 79 98 126 142 159 34 26 64 47 66 47 3 1 -36 -41 -85 -91z m2869 -2192 c15
-22 14 -29 -5 -89 -21 -64 -23 -66 -81 -93 -76 -36 -107 -61 -107 -83 0 -21
-725 -492 -825 -537 -230 -102 -537 -232 -529 -225 5 5 326 222 714 481 390
262 727 494 755 521 27 27 53 49 56 49 4 0 14 -11 22 -24z m175 -206 c12 -16
22 -33 22 -38 0 -4 11 -23 25 -42 14 -19 25 -42 25 -51 0 -10 18 -51 40 -93
22 -41 40 -80 40 -86 0 -24 83 -179 233 -435 l157 -270 100 -80 c66 -53 94
-81 82 -82 -9 -2 -250 -26 -535 -53 l-519 -51 -568 -159 -568 -159 -519 -210
c-285 -115 -560 -224 -610 -241 -51 -18 -90 -36 -87 -41 2 -5 -8 -11 -23 -15
-15 -3 -44 -10 -63 -15 -108 -28 -217 0 -295 74 -51 49 -56 59 -88 162 l-34
110 180 98 c153 83 202 116 327 220 129 108 157 136 231 239 51 71 91 118 101
118 9 0 50 -5 91 -11 l73 -11 369 126 369 126 365 187 c316 160 393 204 565
322 129 87 205 146 215 165 29 54 73 96 140 136 36 21 80 50 96 64 17 14 33
25 36 26 3 0 15 -13 27 -30z m436 -1432 c-69 -138 -144 -247 -231 -339 -83
-87 -575 -482 -732 -587 -177 -119 -448 -239 -694 -307 -32 -9 -67 -25 -77
-35 -24 -24 -26 -77 -5 -100 14 -16 26 -15 173 15 263 53 536 185 847 409 58
42 107 76 110 76 3 0 5 -26 5 -57 0 -32 5 -76 10 -98 5 -22 16 -81 25 -130 21
-133 47 -206 120 -339 35 -66 64 -121 62 -122 -1 -1 -94 -34 -207 -73 -146
-51 -270 -85 -430 -120 -124 -28 -322 -72 -440 -100 -388 -90 -821 -170 -1245
-230 -193 -27 -241 -30 -600 -36 -570 -9 -586 -4 -705 219 -29 55 -57 118 -62
140 -55 247 -53 372 9 586 22 78 99 245 128 280 7 8 16 26 20 39 14 48 137
191 207 242 l27 19 47 -50 c55 -59 121 -92 226 -114 172 -36 319 -15 494 69
61 29 225 101 365 159 140 57 310 132 379 164 232 111 444 175 720 217 143 22
201 38 435 115 l270 89 370 44 c204 25 382 45 398 46 l27 1 -46 -92z m1207
-153 c10 -27 25 -83 32 -124 14 -70 13 -80 -9 -175 -33 -140 -31 -226 5 -335
15 -47 31 -119 35 -159 13 -154 71 -364 142 -519 29 -65 46 -153 29 -153 -3 0
-21 18 -41 40 -26 29 -44 40 -64 40 -26 0 -31 6 -54 68 -14 37 -33 119 -42
182 -19 137 -54 238 -118 340 -25 41 -55 104 -66 139 -24 76 -26 195 -6 267 8
27 18 97 21 155 6 94 5 113 -14 163 l-20 55 62 35 c34 18 68 33 76 32 7 0 22
-23 32 -51z m-261 -162 c0 -16 -14 -73 -31 -128 -38 -123 -43 -260 -15 -365
19 -71 115 -287 148 -332 15 -22 56 -145 58 -175 0 -2 -13 -3 -30 -3 -30 0
-37 -8 -21 -25 5 -6 34 -59 65 -119 45 -87 56 -118 56 -156 0 -81 -60 -190
-104 -190 -22 0 -23 4 -23 63 1 87 -18 123 -172 331 -73 99 -144 204 -159 235
-32 65 -103 145 -184 207 -72 56 -77 55 -213 -27 -127 -76 -387 -203 -530
-259 -60 -24 -120 -52 -131 -62 l-22 -19 -20 63 c-45 138 -84 341 -75 389 5
26 6 26 67 22 58 -5 80 0 286 68 172 57 224 78 230 94 5 13 38 31 100 55 87
33 100 42 270 191 98 86 184 159 191 162 8 3 69 6 137 6 l122 1 0 -27z m-5754
-135 l282 -22 -202 -141 c-212 -149 -557 -346 -966 -550 -225 -112 -290 -155
-290 -191 0 -13 13 -65 29 -114 16 -50 24 -87 18 -82 -156 122 -155 122 -227
122 -65 0 -82 -6 -327 -111 -179 -78 -288 -119 -358 -135 -54 -13 -101 -21
-103 -19 -13 12 401 236 528 286 47 18 142 64 211 101 69 37 133 68 140 68 8
0 37 15 65 34 28 19 100 54 160 79 106 44 115 50 375 263 248 204 269 224 303
285 25 46 36 80 36 108 0 36 3 41 23 41 12 0 149 -9 303 -22z m4603 -1009
c-24 -33 -46 -62 -50 -64 -6 -4 -79 97 -79 109 0 3 35 7 78 9 42 1 81 4 85 5
5 1 -11 -25 -34 -59z"/>
<path d="M3425 7530 c-10 -11 -20 -41 -23 -68 l-4 -49 38 -6 c62 -11 69 -9 87
22 25 42 22 76 -9 100 -34 26 -66 27 -89 1z"/>
<path d="M6286 5571 c-21 -24 -23 -45 -8 -129 18 -104 5 -147 -139 -434 -71
-142 -129 -268 -129 -281 0 -29 18 -47 46 -47 62 0 262 339 349 590 55 158 49
231 -25 294 -37 31 -70 33 -94 7z"/>
<path d="M4373 4978 c-11 -24 -39 -94 -63 -157 -52 -134 -167 -321 -299 -481
-83 -101 -283 -309 -403 -418 -48 -43 -58 -58 -58 -85 1 -38 20 -67 46 -67 10
0 93 61 183 136 265 219 482 486 654 804 64 119 82 179 67 224 -14 44 -56 86
-85 86 -17 0 -28 -11 -42 -42z"/>
<path d="M7515 4028 c-28 -16 -35 -28 -35 -67 0 -96 -175 -295 -347 -395 -69
-40 -85 -70 -63 -112 21 -39 45 -39 123 1 156 79 297 214 387 371 55 96 59
138 15 184 -31 32 -48 36 -80 18z"/>
<path d="M6390 2714 c-6 -14 -10 -30 -10 -35 0 -6 -14 -44 -31 -85 -38 -92
-114 -209 -180 -279 -57 -60 -70 -100 -42 -132 10 -12 25 -23 34 -25 9 -2 54
27 100 63 80 63 88 74 163 205 88 154 102 205 72 262 -29 56 -89 71 -106 26z"/>
<path d="M9630 951 c-28 -8 -20 -15 28 -26 28 -6 32 -4 32 14 0 22 -14 25 -60
12z"/>
</g>
</svg>
