<?xml version="1.0" standalone="no"?>
<!DOCTYPE svg PUBLIC "-//W3C//DTD SVG 20010904//EN"
 "http://www.w3.org/TR/2001/REC-SVG-20010904/DTD/svg10.dtd">
<svg version="1.0" xmlns="http://www.w3.org/2000/svg"
 width="1024.000000pt" height="1024.000000pt" viewBox="0 0 1024.000000 1024.000000"
 preserveAspectRatio="xMidYMid meet">
<metadata>
Created by potrace 1.10, written by Peter Selinger 2001-2011
</metadata>
<g transform="translate(0.000000,1024.000000) scale(0.100000,-0.100000)"
fill="#000000" stroke="none">
<path d="M4103 9713 c-11 -2 -33 -22 -48 -44 -50 -72 -50 -74 279 -866 163
-392 296 -717 296 -722 0 -5 -16 -44 -36 -87 -44 -98 -114 -301 -143 -414 -11
-47 -55 -276 -96 -510 -297 -1679 -299 -1691 -330 -2030 -25 -267 -29 -738
-11 -1317 9 -286 16 -581 16 -655 0 -92 7 -172 22 -261 l22 -127 -220 -213
c-120 -117 -286 -276 -368 -352 -82 -77 -176 -176 -208 -219 -147 -198 -230
-469 -199 -652 25 -149 37 -168 169 -279 l32 -27 423 16 422 17 85 31 c181 67
375 167 560 291 212 141 298 220 725 672 226 239 416 433 422 432 7 -1 130
-173 274 -382 389 -564 554 -785 892 -1194 170 -205 189 -220 248 -190 51 26
89 74 89 113 0 19 -13 53 -32 84 -18 28 -231 299 -473 602 -242 303 -444 561
-450 574 -5 13 -27 44 -48 69 -21 26 -100 148 -176 272 -117 190 -149 235
-209 290 -54 50 -77 65 -100 65 -28 0 -66 -39 -370 -372 -343 -377 -437 -473
-593 -603 -324 -271 -746 -486 -1154 -589 -84 -22 -123 -26 -245 -26 l-146 0
-42 43 c-34 35 -44 53 -53 102 -15 77 -6 204 21 304 l21 78 207 204 c114 113
666 660 1227 1215 561 556 1046 1034 1078 1062 114 99 226 241 290 367 157
312 174 809 41 1212 -65 196 -51 170 -1147 2088 -229 402 -396 731 -475 935
-132 344 -281 754 -286 789 -10 64 -54 138 -105 177 -43 33 -53 36 -98 27z
m803 -2120 c72 -126 135 -244 141 -263 9 -31 438 -740 533 -880 233 -345 456
-865 501 -1171 28 -194 -8 -454 -84 -605 -70 -139 -291 -413 -481 -596 -724
-700 -1241 -1195 -1243 -1190 -2 10 -32 383 -43 557 -18 261 -24 842 -11 1095
14 284 43 612 76 855 40 293 233 1473 270 1655 58 273 189 770 204 770 4 0 65
-102 137 -227z"/>
<path d="M9826 1121 c-23 -9 -14 -16 32 -26 28 -6 32 -4 32 14 0 22 -26 27
-64 12z"/>
</g>
</svg>
