<?xml version="1.0" standalone="no"?>
<!DOCTYPE svg PUBLIC "-//W3C//DTD SVG 20010904//EN"
 "http://www.w3.org/TR/2001/REC-SVG-20010904/DTD/svg10.dtd">
<svg version="1.0" xmlns="http://www.w3.org/2000/svg"
 width="1024.000000pt" height="1024.000000pt" viewBox="0 0 1024.000000 1024.000000"
 preserveAspectRatio="xMidYMid meet">
<metadata>
Created by potrace 1.10, written by Peter Selinger 2001-2011
</metadata>
<g transform="translate(0.000000,1024.000000) scale(0.100000,-0.100000)"
fill="#000000" stroke="none">
<path d="M5738 8455 l-2607 -263 -283 18 c-156 10 -284 16 -286 15 -2 -2 9
-50 24 -107 26 -100 29 -105 86 -160 39 -38 85 -69 136 -93 42 -20 93 -45 112
-55 l35 -18 -3 -94 c-1 -51 -11 -266 -22 -478 -69 -1306 -158 -2202 -285
-2850 -139 -711 -277 -1209 -466 -1680 -223 -560 -555 -1162 -952 -1729 -62
-89 -78 -118 -70 -130 6 -9 17 -17 25 -19 18 -4 222 209 413 433 524 610 946
1350 1215 2130 159 462 304 1041 389 1555 121 724 183 1389 257 2727 6 121 7
122 33 127 14 3 499 71 1076 150 l1050 145 1590 90 c875 50 1617 93 1649 96
84 7 139 42 161 99 10 26 15 55 11 68 -3 13 -46 65 -94 116 l-87 92 -134 40
c-125 37 -143 40 -250 39 -71 -1 -1118 -102 -2723 -264z"/>
</g>
</svg>
