<?xml version="1.0" standalone="no"?>
<!DOCTYPE svg PUBLIC "-//W3C//DTD SVG 20010904//EN"
 "http://www.w3.org/TR/2001/REC-SVG-20010904/DTD/svg10.dtd">
<svg version="1.0" xmlns="http://www.w3.org/2000/svg"
 width="1024.000000pt" height="1024.000000pt" viewBox="0 0 1024.000000 1024.000000"
 preserveAspectRatio="xMidYMid meet">
<metadata>
Created by potrace 1.10, written by Peter Selinger 2001-2011
</metadata>
<g transform="translate(0.000000,1024.000000) scale(0.100000,-0.100000)"
fill="#000000" stroke="none">
<path d="M7815 9480 c-3 -5 -16 -10 -27 -10 -32 0 -112 -55 -171 -119 -45 -49
-59 -74 -90 -163 -20 -57 -37 -109 -37 -116 0 -8 -58 -124 -75 -150 -1 -1
-458 20 -1016 48 -1013 50 -1015 50 -2069 61 -580 6 -1077 8 -1105 4 -27 -4
-387 -26 -799 -50 -690 -39 -750 -44 -775 -62 -27 -21 -49 -82 -58 -159 -4
-36 -1 -45 27 -73 31 -31 32 -33 21 -76 -15 -61 -14 -131 4 -195 9 -30 23 -82
31 -115 22 -87 144 -779 144 -817 0 -66 28 -140 67 -180 35 -36 121 -78 161
-78 9 0 55 -35 102 -76 97 -87 227 -168 361 -225 82 -36 127 -50 234 -74 l30
-7 -30 -12 c-55 -24 -66 -45 -59 -115 l7 -62 128 -122 c71 -67 134 -135 141
-151 6 -16 12 -77 13 -136 1 -102 2 -110 35 -173 22 -43 91 -131 191 -244 228
-261 268 -345 276 -583 6 -157 -11 -266 -51 -327 -14 -21 -31 -54 -37 -73 -7
-19 -29 -53 -49 -76 -20 -22 -45 -62 -55 -90 -56 -153 -114 -233 -353 -487
-300 -320 -496 -486 -767 -648 -183 -109 -261 -187 -309 -306 -26 -63 -50
-207 -41 -245 8 -35 -42 -117 -94 -153 -24 -16 -72 -57 -106 -90 -75 -74 -96
-125 -101 -246 -3 -94 -33 -185 -101 -309 -145 -264 -390 -462 -699 -566 -43
-14 -91 -32 -106 -40 -36 -19 -73 -70 -88 -121 -11 -36 -11 -46 4 -68 9 -14
21 -25 26 -25 6 0 10 -15 10 -34 0 -36 29 -81 59 -91 29 -9 43 -53 48 -156 7
-123 -2 -152 -106 -317 -45 -70 -81 -136 -81 -146 0 -16 6 -17 43 -12 23 3 83
8 132 12 50 4 98 11 108 16 39 20 108 194 133 341 28 157 5 287 -64 374 l-30
39 196 109 c107 61 225 131 261 156 270 190 433 460 472 784 6 49 13 94 16 98
3 4 28 19 56 31 29 13 66 39 84 57 86 91 149 250 160 400 l6 89 386 321 c212
177 395 329 406 338 19 16 19 15 4 -9 -9 -14 -56 -95 -106 -180 -84 -144 -91
-161 -102 -237 -17 -118 6 -232 59 -300 40 -51 29 -108 -64 -337 -59 -145 -86
-226 -91 -269 -15 -135 -102 -337 -209 -487 -30 -41 -293 -349 -585 -685 -292
-335 -531 -616 -531 -624 0 -7 -14 -30 -30 -51 -39 -49 -39 -61 1 -50 18 6 52
5 86 -1 30 -6 56 -9 57 -7 2 2 27 41 57 88 52 83 360 435 594 681 229 238 387
436 532 663 90 141 125 232 138 354 10 102 51 225 119 360 36 70 69 145 75
167 20 73 13 153 -20 245 -74 208 -45 361 107 565 79 107 119 189 148 307 19
78 28 95 76 152 l54 64 29 -22 c26 -19 30 -20 56 -5 61 35 303 234 367 302
149 157 197 336 144 542 -11 43 -20 91 -20 106 0 41 -28 119 -56 156 -35 46
-47 122 -34 213 6 41 13 128 15 193 4 127 23 212 58 261 12 17 49 61 83 99
119 132 163 253 156 435 -2 37 -6 45 -35 62 -26 15 -37 33 -56 87 l-23 68 21
55 c25 65 49 236 35 250 -5 5 -45 17 -88 26 -90 18 -120 11 -137 -33 -14 -36
-8 -46 50 -83 28 -19 51 -36 51 -39 0 -3 -16 -35 -35 -71 -45 -82 -48 -150
-10 -224 14 -27 25 -56 25 -65 0 -8 18 -36 40 -62 22 -26 40 -54 40 -63 0 -31
-27 -75 -144 -231 -66 -88 -131 -180 -145 -204 -25 -46 -28 -80 -15 -201 l6
-55 -57 90 c-74 117 -151 211 -243 294 l-74 68 -2 104 c-2 134 -20 173 -161
334 -82 94 -107 131 -120 172 -17 57 -52 93 -94 94 -18 0 -4 9 45 27 39 15 79
33 88 41 21 18 20 56 -3 89 -26 37 -89 401 -97 557 -3 66 -12 158 -20 205 -21
128 -25 120 53 120 54 0 102 11 252 59 102 33 278 84 391 114 l205 55 313 7
312 7 101 -92 c116 -105 165 -131 262 -138 55 -4 81 -12 123 -37 45 -27 185
-75 220 -75 5 0 10 -68 10 -157 1 -87 8 -214 16 -283 8 -69 15 -145 15 -169 1
-63 28 -95 83 -99 39 -3 46 0 86 44 37 40 44 52 40 78 -3 17 -8 117 -11 221
-3 105 -8 225 -12 268 l-6 79 309 -4 c324 -3 356 0 494 44 90 29 183 76 279
141 89 61 131 73 227 65 69 -6 125 -43 176 -118 l38 -55 -18 -155 -18 -155 23
-145 c20 -120 30 -158 63 -225 67 -139 171 -244 311 -316 79 -41 217 -167 284
-260 70 -97 142 -237 173 -335 14 -44 83 -489 192 -1244 94 -646 184 -1249
200 -1340 70 -392 84 -726 51 -1205 -33 -492 -44 -725 -45 -1020 -1 -273 0
-282 23 -339 25 -61 105 -156 133 -156 25 0 67 39 90 83 27 53 27 99 3 222
-17 87 -20 138 -19 390 1 349 17 647 46 867 15 116 21 219 21 358 l0 195 -186
1435 c-103 789 -194 1471 -203 1515 -14 73 -38 151 -122 385 -19 54 -63 139
-121 230 -49 79 -89 145 -87 147 1 1 209 -11 461 -27 l459 -30 575 75 c640 83
683 93 741 163 48 58 37 108 -34 151 l-34 21 -458 -74 c-253 -41 -524 -80
-604 -87 -211 -20 -676 -17 -875 5 -88 10 -199 20 -247 23 l-88 5 -36 -36 -37
-37 -35 18 c-63 33 -196 147 -257 221 l-61 72 -29 148 c-32 159 -34 219 -8
325 30 126 -16 270 -122 385 -92 99 -195 142 -345 142 -93 0 -126 -10 -265
-78 -98 -48 -173 -73 -335 -111 -206 -49 -270 -56 -495 -55 -285 0 -456 29
-580 99 -53 29 -141 53 -207 55 -3 0 -30 25 -60 56 -72 76 -154 130 -252 166
-68 26 -100 31 -201 35 l-120 5 -415 -96 c-247 -57 -497 -122 -618 -160 -165
-52 -204 -61 -210 -50 -4 8 -103 61 -220 119 -182 89 -231 119 -349 208 -87
66 -172 142 -230 205 l-92 100 127 6 c1149 57 2453 59 4177 7 1245 -37 1295
-37 1324 -13 11 9 44 76 73 147 63 159 102 227 174 305 l56 60 65 0 c63 0 70
-3 286 -117 122 -64 237 -130 256 -146 41 -35 127 -77 159 -77 13 0 42 -15 65
-34 63 -51 113 -72 214 -90 150 -27 1040 -117 1066 -107 29 11 54 40 62 71 10
40 -29 73 -114 99 -134 41 -226 61 -346 76 -428 54 -455 59 -612 111 -248 82
-494 196 -723 333 -74 45 -164 90 -199 101 -68 22 -225 28 -236 10z m-5680
-1213 c110 -77 216 -154 235 -172 48 -44 78 -61 137 -78 28 -8 69 -29 91 -45
l41 -29 5 -209 c2 -138 11 -255 24 -344 11 -74 24 -168 27 -207 l7 -73 -46 14
c-50 15 -56 19 -340 203 -104 68 -199 123 -211 123 -12 0 -32 11 -44 24 -21
23 -29 65 -85 485 -34 255 -57 457 -51 453 5 -3 100 -68 210 -145z m1565
-3381 c0 -91 -1 -94 -35 -139 -19 -25 -35 -53 -35 -63 0 -23 -146 -201 -157
-191 -11 11 31 114 70 171 47 70 111 203 129 269 6 26 16 47 20 47 4 0 8 -42
8 -94z"/>
<path d="M5010 6002 l-43 -38 -5 -86 c-8 -151 28 -371 69 -429 10 -15 19 -34
19 -42 0 -9 15 -69 34 -135 44 -153 73 -300 87 -449 8 -87 17 -131 35 -168 14
-31 59 -210 114 -460 50 -225 98 -421 107 -435 29 -46 54 -60 115 -60 92 0 93
1 58 265 -22 168 -50 313 -119 612 -50 216 -102 463 -116 548 -29 173 -57 279
-113 424 -32 85 -37 110 -42 216 -5 87 -11 130 -24 155 -24 46 -96 120 -117
120 -9 0 -36 -17 -59 -38z"/>
<path d="M4777 5773 c-15 -2 -32 -13 -37 -23 -6 -10 -21 -119 -34 -242 -35
-315 -55 -379 -236 -721 -76 -146 -156 -310 -176 -364 -121 -324 -289 -645
-490 -940 -46 -68 -84 -131 -84 -141 0 -11 -9 -27 -20 -37 -74 -67 -140 -277
-124 -397 7 -49 14 -59 196 -260 l189 -210 -47 -56 c-27 -32 -72 -85 -101
-119 -61 -71 -83 -116 -83 -172 0 -22 21 -126 46 -231 l46 -191 -39 -47 c-21
-26 -132 -160 -246 -297 -146 -177 -219 -258 -248 -274 -46 -26 -69 -69 -69
-129 0 -52 36 -106 73 -110 55 -7 109 42 387 347 296 324 339 384 361 503 17
96 -13 214 -81 315 -17 24 -30 46 -30 49 0 16 68 100 120 150 70 67 112 129
136 202 27 85 19 100 -200 352 l-194 224 26 71 c14 38 63 126 108 195 107 164
219 361 305 540 39 80 120 244 179 365 60 121 128 274 152 340 38 107 50 129
110 200 108 127 164 253 187 419 6 42 19 93 30 114 25 50 65 312 56 371 -9 67
-50 146 -94 181 -22 16 -40 29 -42 29 -2 -1 -16 -4 -32 -6z"/>
<path d="M955 4871 c-11 -5 -39 -28 -61 -52 -23 -24 -54 -51 -69 -59 -88 -47
-98 -187 -20 -260 18 -17 22 -27 14 -36 -5 -7 -9 -41 -7 -76 l3 -63 65 -11
c36 -7 121 -12 190 -13 112 -1 130 2 175 23 102 48 149 126 147 244 -2 82 -18
119 -75 169 -35 31 -67 46 -133 63 -26 6 -43 17 -47 29 -3 13 -23 23 -70 34
-73 19 -83 19 -112 8z m102 -178 c20 -16 73 -40 117 -54 l81 -27 0 -53 0 -54
-75 -38 c-54 -28 -92 -39 -135 -43 -33 -2 -55 -2 -48 2 7 3 15 20 19 38 10 56
-46 142 -106 161 -15 5 -11 13 28 50 26 25 55 45 65 45 10 0 35 -12 54 -27z"/>
<path d="M6610 4102 c-63 -40 -125 -114 -152 -181 -17 -44 -22 -77 -23 -153 0
-95 1 -98 30 -127 28 -28 38 -31 140 -40 100 -9 113 -8 156 10 78 34 111 85
130 202 20 125 -28 227 -131 279 -84 42 -99 43 -150 10z m119 -167 c40 -44 42
-48 35 -93 -3 -26 -11 -52 -16 -59 -16 -20 -106 -45 -137 -38 -24 5 -29 12
-34 47 -9 70 2 104 49 148 24 22 48 40 53 40 4 0 27 -20 50 -45z"/>
<path d="M844 3777 c-12 -7 -43 -31 -69 -54 l-48 -43 -1 -70 c-1 -78 2 -82 69
-101 49 -14 122 -5 155 19 38 28 60 80 60 140 0 57 -6 68 -61 101 -38 23 -74
26 -105 8z"/>
<path d="M5378 3523 c-57 -9 -120 -131 -172 -333 -98 -383 -249 -679 -522
-1027 -43 -56 -57 -82 -61 -115 -6 -53 16 -110 51 -133 35 -23 69 -10 160 62
70 56 79 68 228 313 l155 255 126 330 c69 182 137 357 151 390 43 102 29 176
-43 235 -19 17 -38 29 -41 29 -3 -1 -17 -4 -32 -6z"/>
<path d="M6602 1359 c-102 -20 -148 -80 -139 -181 7 -75 34 -128 78 -151 108
-57 289 64 289 194 0 49 -38 94 -105 125 -54 26 -58 26 -123 13z m82 -158 c8
-12 -43 -44 -60 -37 -21 8 -17 21 9 34 28 13 44 14 51 3z"/>
</g>
</svg>
