<?xml version="1.0" standalone="no"?>
<!DOCTYPE svg PUBLIC "-//W3C//DTD SVG 20010904//EN"
 "http://www.w3.org/TR/2001/REC-SVG-20010904/DTD/svg10.dtd">
<svg version="1.0" xmlns="http://www.w3.org/2000/svg"
 width="1024.000000pt" height="1024.000000pt" viewBox="0 0 1024.000000 1024.000000"
 preserveAspectRatio="xMidYMid meet">
<metadata>
Created by potrace 1.10, written by Peter Selinger 2001-2011
</metadata>
<g transform="translate(0.000000,1024.000000) scale(0.100000,-0.100000)"
fill="#000000" stroke="none">
<path d="M8559 8195 c-3 -2 -923 -36 -2045 -75 -3921 -136 -3646 -125 -3679
-142 -17 -9 -39 -25 -49 -37 -18 -20 -18 -24 3 -173 41 -296 46 -376 45 -748
0 -337 -4 -421 -52 -1105 -53 -759 -63 -854 -114 -1130 -107 -584 -273 -1124
-538 -1750 -96 -225 -360 -771 -413 -852 -84 -129 -177 -216 -324 -301 -79
-46 -125 -95 -149 -159 -14 -35 -14 -45 -4 -58 38 -46 163 -59 236 -26 97 44
342 319 495 556 146 226 202 347 413 890 181 470 247 656 322 915 145 499 223
914 286 1510 20 193 22 267 25 1232 l4 1027 62 5 c34 3 640 24 1347 46 3314
104 4118 131 4151 140 50 14 88 46 109 93 26 58 7 95 -65 128 -41 19 -58 23
-66 14z"/>
<path d="M6471 4144 c-1 -6 4 -26 10 -45 6 -19 13 -40 15 -48 3 -8 7 -12 9 -9
3 2 -4 29 -14 59 -11 30 -20 49 -20 43z"/>
</g>
</svg>
