<?xml version="1.0" standalone="no"?>
<!DOCTYPE svg PUBLIC "-//W3C//DTD SVG 20010904//EN"
 "http://www.w3.org/TR/2001/REC-SVG-20010904/DTD/svg10.dtd">
<svg version="1.0" xmlns="http://www.w3.org/2000/svg"
 width="1024.000000pt" height="1024.000000pt" viewBox="0 0 1024.000000 1024.000000"
 preserveAspectRatio="xMidYMid meet">
<metadata>
Created by potrace 1.10, written by Peter Selinger 2001-2011
</metadata>
<g transform="translate(0.000000,1024.000000) scale(0.100000,-0.100000)"
fill="#000000" stroke="none">
<path d="M5152 9277 c-23 -17 -31 -31 -34 -62 -4 -42 19 -2357 25 -2531 2 -55
7 -105 10 -111 4 -6 -56 -26 -156 -52 -252 -66 -399 -129 -559 -237 -360 -244
-627 -567 -849 -1029 -97 -202 -130 -289 -293 -785 -217 -657 -239 -750 -341
-1425 -84 -552 -103 -789 -86 -1080 7 -110 18 -249 26 -310 9 -60 20 -171 26
-245 14 -182 34 -281 75 -367 49 -103 93 -131 159 -101 35 16 32 47 -9 118
l-34 58 -53 473 -53 474 17 335 16 335 165 765 164 765 127 360 c158 448 151
431 170 415 11 -9 49 -10 172 -1 87 7 166 14 175 17 10 3 80 16 155 29 125 22
217 27 998 56 832 30 866 30 1050 15 105 -9 216 -16 248 -16 31 0 57 -1 58 -2
1 -2 13 -561 28 -1243 23 -1062 26 -1261 15 -1385 -7 -80 -18 -255 -24 -390
-6 -135 -22 -416 -35 -625 l-24 -380 21 -22 c26 -28 78 -30 101 -5 12 13 17
37 17 83 0 35 13 222 29 414 l30 350 6 1480 7 1480 -61 374 c-70 428 -105 554
-217 780 -98 197 -135 248 -256 351 -119 101 -152 118 -312 160 -145 38 -262
52 -416 49 l-125 -3 3 88 c2 73 0 92 -15 108 -16 18 -18 60 -24 481 -4 254 -8
533 -8 620 l-1 157 655 0 c475 0 667 -3 699 -12 52 -14 86 -3 111 35 18 28 6
75 -25 94 -24 16 -976 48 -1180 40 -80 -4 -170 -13 -200 -21 -30 -8 -57 -13
-59 -11 -4 5 -3 893 1 982 3 54 0 65 -22 88 -40 43 -53 46 -88 22z m534 -2832
c178 -31 261 -61 350 -126 54 -40 70 -61 181 -249 68 -113 134 -235 148 -271
14 -35 48 -154 76 -264 27 -110 52 -208 55 -218 5 -17 -5 -18 -188 -12 -106 3
-438 8 -738 11 l-545 5 -390 -46 c-701 -82 -880 -104 -902 -111 -13 -3 -23 -3
-23 1 0 16 106 215 163 306 288 462 618 744 1043 892 89 31 292 81 369 90 84
11 320 6 401 -8z"/>
<path d="M10216 1061 c-19 -7 -19 -8 2 -13 15 -4 22 -2 22 8 0 8 -1 14 -2 13
-2 0 -12 -4 -22 -8z"/>
</g>
</svg>
