<?xml version="1.0" standalone="no"?>
<!DOCTYPE svg PUBLIC "-//W3C//DTD SVG 20010904//EN"
 "http://www.w3.org/TR/2001/REC-SVG-20010904/DTD/svg10.dtd">
<svg version="1.0" xmlns="http://www.w3.org/2000/svg"
 width="1024.000000pt" height="1024.000000pt" viewBox="0 0 1024.000000 1024.000000"
 preserveAspectRatio="xMidYMid meet">
<metadata>
Created by potrace 1.10, written by Peter Selinger 2001-2011
</metadata>
<g transform="translate(0.000000,1024.000000) scale(0.100000,-0.100000)"
fill="#000000" stroke="none">
<path d="M5443 9803 c-51 -10 -48 20 -103 -1132 -47 -1001 -50 -1086 -36
-1134 8 -28 12 -55 8 -58 -4 -3 -297 -32 -651 -63 -433 -38 -653 -62 -671 -71
-15 -8 -33 -28 -40 -45 -14 -34 -14 -34 -40 -18 -23 15 -44 5 -73 -34 -18 -24
-18 -35 -8 -227 13 -245 14 -488 1 -676 -5 -81 -62 -493 -135 -980 -69 -462
-164 -1096 -211 -1410 -113 -758 -161 -1022 -269 -1460 -62 -250 -413 -1446
-431 -1466 -8 -9 -23 -46 -33 -82 -10 -36 -39 -99 -64 -140 -65 -103 -95 -172
-103 -234 -8 -70 7 -109 48 -117 59 -12 105 -6 139 17 37 25 51 49 103 177 19
47 62 149 95 228 70 164 134 345 185 517 19 66 204 943 411 1950 207 1007 378
1831 378 1831 1 1 409 9 907 18 498 9 1013 19 1145 22 l240 7 0 -479 c1 -466
8 -661 40 -989 97 -1003 120 -1171 241 -1790 86 -435 165 -732 295 -1106 79
-228 117 -309 183 -386 46 -53 83 -62 132 -33 19 12 42 33 51 46 22 35 18 98
-9 147 -14 23 -29 51 -35 62 -26 46 -133 292 -139 320 -4 17 -15 46 -26 65
-27 52 -211 793 -257 1037 -96 511 -130 787 -200 1638 -66 793 -76 1016 -61
1350 22 488 114 1204 211 1645 47 213 100 404 114 412 7 4 22 31 34 59 20 45
22 61 16 136 -5 55 -13 90 -24 102 -13 15 -68 26 -281 55 -146 21 -277 35
-290 32 -14 -3 -169 -17 -345 -31 -176 -14 -337 -27 -357 -30 -37 -5 -38 -5
-27 22 36 93 48 221 59 628 7 226 13 411 14 413 2 1 274 10 604 20 572 17 604
19 629 38 51 38 50 121 -3 183 -34 41 -70 46 -227 32 -73 -6 -298 -24 -502
-41 -203 -16 -396 -32 -429 -36 l-58 -6 6 68 c65 705 66 768 22 858 -27 54
-116 147 -140 145 -6 -1 -21 -4 -33 -6z m1154 -2507 c2 -1 -14 -45 -36 -97
-57 -140 -83 -247 -165 -659 -96 -481 -111 -588 -142 -1024 l-6 -89 -652 7
-652 8 -483 -42 c-265 -23 -484 -40 -487 -37 -2 2 5 84 16 181 34 299 49 490
61 766 12 300 4 671 -17 773 -8 38 -14 75 -14 83 0 12 33 14 198 14 184 0 735
39 1567 110 178 15 276 18 515 13 162 -3 296 -6 297 -7z"/>
<path d="M6803 4026 c3 -8 11 -33 17 -56 6 -23 13 -40 16 -38 5 6 -25 108 -32
108 -4 0 -4 -6 -1 -14z"/>
</g>
</svg>
