<?xml version="1.0" standalone="no"?>
<!DOCTYPE svg PUBLIC "-//W3C//DTD SVG 20010904//EN"
 "http://www.w3.org/TR/2001/REC-SVG-20010904/DTD/svg10.dtd">
<svg version="1.0" xmlns="http://www.w3.org/2000/svg"
 width="1024.000000pt" height="1024.000000pt" viewBox="0 0 1024.000000 1024.000000"
 preserveAspectRatio="xMidYMid meet">
<metadata>
Created by potrace 1.10, written by Peter Selinger 2001-2011
</metadata>
<g transform="translate(0.000000,1024.000000) scale(0.100000,-0.100000)"
fill="#000000" stroke="none">
<path d="M5442 9504 c-27 -19 -57 -76 -65 -124 -7 -43 -1216 -2680 -1251
-2728 -42 -59 -177 -171 -251 -209 -279 -142 -475 -368 -527 -607 -15 -71 -5
-199 23 -271 31 -83 111 -162 199 -197 l65 -26 -109 -51 c-59 -28 -112 -51
-116 -51 -16 0 -204 -161 -231 -198 -53 -72 -72 -137 -73 -247 -1 -166 50
-262 171 -320 32 -15 71 -34 86 -41 16 -8 35 -14 43 -14 20 0 72 -57 91 -99 8
-19 26 -49 40 -67 30 -41 62 -123 73 -189 15 -92 -13 -263 -61 -378 -17 -40
-64 -169 -104 -287 -41 -118 -83 -228 -93 -245 -11 -16 -25 -52 -32 -80 -6
-27 -15 -54 -20 -60 -4 -5 -33 -73 -63 -151 -43 -110 -115 -249 -333 -640
-244 -438 -285 -505 -331 -547 -43 -40 -353 -460 -611 -829 -57 -82 -56 -116
6 -138 38 -13 45 -13 75 3 23 13 139 166 412 544 209 290 400 556 424 592 92
136 209 354 277 515 18 44 42 89 53 100 10 12 69 144 131 295 119 291 157 378
171 387 5 3 9 18 9 33 0 15 3 31 7 34 3 4 14 27 22 51 9 24 41 106 71 180 56
139 57 140 101 122 19 -8 84 45 105 86 13 25 12 27 -21 48 -29 18 -40 20 -65
11 -17 -5 -30 -8 -30 -6 0 3 10 40 22 82 19 64 23 101 22 208 -1 116 -5 140
-31 220 l-30 90 29 3 c19 2 51 -9 91 -31 50 -27 79 -36 142 -41 44 -4 90 -10
103 -13 21 -5 21 -6 6 -18 -15 -11 -16 -16 -5 -44 16 -37 51 -49 93 -33 16 6
44 8 62 5 27 -4 36 -1 49 17 8 12 13 29 10 38 -7 16 -36 16 1020 -5 l328 -6
-21 -22 c-12 -13 -37 -65 -57 -116 -19 -52 -41 -105 -49 -119 -7 -14 -29 -77
-48 -140 -19 -63 -47 -146 -62 -183 l-28 -68 -118 -61 c-118 -61 -134 -78
-106 -106 7 -7 43 -12 90 -12 l78 0 -36 -73 c-38 -76 -59 -94 -174 -150 -51
-25 -86 -81 -75 -118 6 -19 12 -20 63 -14 30 4 61 9 68 12 8 3 2 -29 -19 -91
-20 -61 -37 -96 -45 -96 -31 0 -132 -53 -132 -69 1 -28 25 -49 63 -56 20 -4
37 -10 37 -14 0 -12 -39 -130 -49 -148 -5 -10 -12 -25 -14 -34 -3 -9 -42 -35
-86 -58 -108 -56 -107 -88 2 -106 33 -5 37 -9 32 -26 -4 -12 -17 -51 -29 -87
l-23 -67 -99 -38 c-54 -21 -103 -42 -107 -47 -5 -4 -1 -22 7 -39 16 -30 18
-31 86 -31 l69 0 -21 -50 c-21 -50 -21 -50 -67 -50 -61 0 -95 -18 -99 -53 -4
-35 45 -87 82 -87 14 0 26 -3 26 -7 0 -4 -20 -79 -44 -167 -37 -135 -52 -219
-91 -514 l-47 -354 11 -186 c12 -202 18 -222 72 -222 18 0 35 9 49 27 21 26
21 34 15 193 -7 178 2 320 36 565 19 133 47 239 251 939 126 434 234 798 240
809 6 12 34 91 63 176 29 86 87 235 130 331 42 96 99 247 126 335 46 150 138
388 160 410 12 12 12 68 -2 82 -7 7 9 14 53 22 150 29 350 115 472 202 115 82
160 263 105 419 -21 59 -58 112 -130 185 l-69 71 127 38 c157 47 210 74 284
149 45 45 72 86 120 182 62 124 62 125 67 229 4 98 2 111 -32 227 -45 148 -80
221 -151 318 -30 41 -55 78 -55 83 0 5 -22 54 -50 110 -49 99 -50 103 -50 192
0 112 14 200 46 291 13 39 47 194 75 345 28 150 56 285 64 300 7 14 47 124 90
245 42 121 84 231 94 245 10 14 22 37 26 50 44 141 355 652 481 789 50 55 185
249 197 284 14 39 -50 106 -91 93 -9 -3 -37 -33 -61 -66 -62 -85 -69 -89 -92
-61 -10 13 -24 42 -30 64 -14 51 -41 77 -70 70 -19 -5 -21 -11 -17 -71 4 -63
6 -67 52 -108 l47 -43 -51 -71 c-29 -38 -53 -70 -55 -70 -2 0 -30 32 -61 70
-43 53 -62 70 -78 68 -17 -2 -21 -10 -20 -41 1 -22 10 -51 21 -65 19 -25 71
-66 94 -74 6 -2 -5 -27 -24 -55 l-34 -51 -58 68 c-49 58 -61 67 -77 59 -46
-24 -3 -142 62 -170 37 -17 37 -21 3 -65 -32 -43 -59 -40 -105 12 -20 23 -38
34 -52 32 -26 -4 -30 -25 -17 -75 8 -30 20 -44 51 -62 22 -12 40 -25 40 -27 0
-7 -19 -42 -47 -87 -23 -36 -24 -37 -48 -21 -17 11 -25 26 -25 45 0 32 -21 48
-55 41 -32 -6 -50 -73 -29 -113 16 -32 51 -59 76 -59 23 0 23 3 -11 -70 l-29
-62 -75 71 c-80 76 -112 88 -123 46 -4 -17 2 -38 20 -68 29 -50 54 -70 114
-88 23 -7 42 -16 42 -20 0 -8 -107 -229 -115 -237 -2 -2 -24 11 -49 29 -42 30
-48 31 -71 19 -29 -15 -30 -28 -11 -73 13 -31 61 -80 87 -89 9 -3 7 -18 -6
-58 -22 -70 -32 -80 -44 -48 -15 40 -69 52 -102 23 -34 -32 4 -111 64 -131 16
-5 18 -13 12 -52 -4 -26 -10 -50 -14 -55 -4 -4 -26 9 -48 28 -50 42 -64 43
-85 8 -12 -22 -13 -35 -5 -58 12 -37 54 -84 86 -96 21 -8 22 -13 16 -47 -5
-20 -11 -54 -14 -74 l-6 -38 -58 50 c-66 56 -90 56 -102 -1 -8 -35 21 -83 88
-149 l40 -38 -15 -74 c-14 -66 -16 -71 -25 -47 -18 41 -63 88 -106 110 -46 24
-62 16 -73 -37 -5 -27 0 -38 28 -70 19 -22 38 -54 42 -73 8 -46 23 -61 58 -61
27 0 30 -3 23 -22 -3 -13 -9 -68 -11 -123 -5 -102 3 -145 50 -273 28 -75 93
-196 116 -217 65 -58 140 -205 174 -339 19 -77 14 -195 -10 -233 -8 -12 -14
-29 -14 -37 0 -31 -86 -155 -130 -189 -96 -73 -201 -113 -340 -128 -52 -6
-100 -15 -106 -20 -15 -12 -158 54 -199 92 -16 15 -101 77 -189 138 -189 131
-196 142 -204 292 -4 88 -2 103 28 189 21 60 30 103 26 121 -3 16 -4 29 -3 29
1 0 26 -9 56 -20 89 -34 233 -125 287 -182 77 -80 94 -109 94 -162 0 -42 -5
-52 -45 -94 -53 -55 -74 -109 -57 -147 10 -21 19 -25 52 -25 78 0 142 56 180
157 28 74 24 157 -10 228 -31 64 -153 186 -249 250 -269 178 -691 272 -1030
231 -262 -33 -587 -177 -695 -309 -74 -90 -128 -254 -112 -338 3 -20 17 -52
29 -70 19 -29 30 -35 66 -37 57 -4 75 11 66 57 -18 99 -17 148 5 198 40 95
170 189 367 267 205 82 304 99 533 94 166 -4 189 -7 227 -26 26 -13 60 -22 89
-22 33 0 45 -4 41 -12 -3 -7 -23 -51 -43 -98 l-38 -85 0 -150 c1 -133 4 -159
27 -233 14 -45 35 -95 45 -110 11 -15 63 -56 116 -92 52 -36 98 -72 101 -80 5
-16 144 -103 184 -115 20 -6 9 -12 -65 -36 -163 -53 -220 -59 -538 -59 -249 0
-318 4 -481 24 -182 24 -199 28 -398 97 -143 50 -212 79 -219 92 -5 10 -8 20
-6 23 2 2 56 11 119 20 92 12 121 20 147 41 19 14 84 48 145 75 62 28 142 68
179 89 158 93 305 238 403 401 42 68 49 88 49 133 1 46 -3 58 -28 84 -17 17
-38 31 -47 31 -11 0 -57 -60 -132 -173 -193 -292 -289 -363 -642 -476 -245
-79 -348 -100 -413 -83 -59 16 -206 85 -250 118 -43 33 -89 116 -96 173 -25
192 218 482 493 590 61 25 124 66 163 108 14 15 64 84 110 153 79 118 117 199
647 1375 310 688 575 1273 589 1300 32 63 72 174 72 201 0 23 -49 74 -71 74
-8 0 -25 -7 -37 -16z m-1527 -4278 c21 -43 104 -123 148 -141 19 -8 134 -41
258 -74 l224 -60 431 -21 431 -22 209 43 c187 38 214 46 258 77 58 40 60 40
159 -42 120 -100 201 -218 212 -309 l7 -58 -47 -46 c-101 -97 -254 -178 -415
-221 -120 -31 -153 -31 -1007 -7 -617 18 -652 20 -637 36 14 16 12 21 -21 58
-40 44 -56 49 -75 26 -10 -13 -10 -23 3 -55 l15 -40 -33 0 -34 0 6 48 c4 40 2
50 -17 67 -16 15 -25 17 -38 9 -21 -13 -28 -80 -11 -100 11 -13 8 -14 -17 -8
-16 4 -42 13 -57 21 -27 13 -28 16 -13 32 24 27 20 46 -19 80 -37 32 -72 39
-106 21 -30 -17 -23 -38 27 -73 25 -17 40 -33 34 -35 -5 -2 -43 10 -83 26 -39
16 -90 35 -112 42 -22 7 -99 43 -170 81 -154 81 -165 94 -165 198 0 69 16 169
29 183 3 4 5 -10 3 -31 -5 -46 25 -84 61 -79 44 6 37 97 -10 121 -24 13 -23
13 44 59 112 76 354 201 413 214 89 19 97 18 115 -20z"/>
<path d="M3453 4869 c-34 -13 -28 -43 16 -78 47 -38 63 -39 81 -6 12 22 11 27
-6 40 -62 49 -69 52 -91 44z"/>
<path d="M3296 4824 c-12 -31 -6 -81 12 -97 25 -23 69 -22 81 2 11 20 -16 87
-41 103 -21 13 -45 9 -52 -8z"/>
<path d="M3561 4766 c-8 -9 -10 -44 -8 -101 4 -80 6 -89 33 -116 16 -15 43
-31 61 -35 26 -5 33 -2 43 16 11 20 8 27 -27 62 -36 37 -38 42 -35 94 3 42 0
60 -14 75 -20 23 -37 24 -53 5z"/>
<path d="M3403 4690 c-28 -34 -30 -77 -5 -83 9 -3 34 -8 55 -12 33 -5 38 -3
49 20 9 19 9 28 0 37 -7 7 -12 18 -12 26 0 18 -29 41 -50 41 -8 0 -25 -13 -37
-29z"/>
<path d="M3697 4713 c-4 -3 -7 -22 -7 -40 0 -67 91 -116 106 -57 5 21 -1 33
-32 65 -37 38 -54 46 -67 32z"/>
<path d="M5811 8255 c-34 -39 -36 -50 -21 -90 11 -28 69 -59 94 -49 8 3 24 25
36 49 23 49 17 82 -22 109 -34 24 -53 20 -87 -19z"/>
<path d="M6417 8143 c-4 -3 -7 -18 -7 -32 0 -20 12 -34 48 -58 72 -50 127 -41
146 22 5 18 -4 24 -67 48 -71 27 -107 33 -120 20z"/>
<path d="M5695 8009 c-37 -35 -45 -48 -45 -78 0 -20 -4 -52 -10 -71 -10 -35 3
-97 25 -112 35 -26 102 24 91 67 -3 13 4 36 21 60 14 21 28 57 31 81 4 36 0
46 -21 68 -14 14 -31 26 -37 26 -6 0 -31 -19 -55 -41z"/>
<path d="M5578 7733 c-29 -7 -70 -77 -66 -115 l3 -33 60 0 c60 0 60 0 79 38
18 38 18 39 -1 64 -24 33 -53 51 -75 46z"/>
<path d="M5461 7475 c-17 -20 -31 -44 -31 -53 0 -31 29 -61 66 -68 28 -5 40
-2 60 17 l24 22 0 -21 c0 -20 26 -42 49 -42 6 0 18 11 27 25 13 19 15 37 9 81
-5 46 -11 57 -32 67 -22 10 -28 8 -44 -12 l-20 -24 -22 22 c-32 29 -50 27 -86
-14z"/>
<path d="M5390 7283 c-11 -25 -28 -69 -38 -96 -17 -49 -17 -49 7 -68 14 -11
39 -19 61 -19 45 0 74 29 90 91 13 46 -5 97 -41 123 -39 27 -56 20 -79 -31z"/>
<path d="M5249 7247 c-46 -41 -53 -60 -28 -83 19 -17 21 -16 70 32 l50 49 -22
18 c-27 22 -28 22 -70 -16z"/>
<path d="M5542 7218 c-16 -16 -15 -80 1 -102 8 -11 23 -17 37 -14 21 2 26 11
33 51 5 34 4 53 -4 63 -14 17 -51 18 -67 2z"/>
<path d="M5157 7098 c-17 -9 -47 -58 -47 -77 0 -6 12 -14 26 -17 24 -6 25 -8
8 -17 -36 -19 -64 -50 -64 -71 0 -19 -30 -31 -252 -105 -212 -69 -258 -88
-281 -113 -23 -25 -28 -36 -23 -61 7 -36 23 -57 43 -57 9 0 110 34 227 76
l211 75 155 9 155 9 70 -67 c39 -38 130 -125 202 -195 l133 -128 67 7 c85 7
95 10 91 29 -2 8 -70 75 -152 150 -81 74 -161 152 -176 173 -27 37 -27 39 -9
50 11 7 19 19 19 27 0 21 -50 95 -64 95 -20 0 -36 -22 -36 -49 -1 -25 -3 -24
-39 18 l-38 45 25 48 c22 43 23 51 12 79 -7 17 -23 37 -36 45 -27 18 -44 11
-93 -40 -30 -31 -33 -39 -28 -75 4 -34 2 -41 -11 -41 -10 0 -27 -3 -40 -6 -21
-6 -22 -5 -11 20 11 24 10 28 -10 42 l-22 15 26 31 c14 16 25 35 25 43 0 21
-44 44 -63 33z"/>
<path d="M5486 7001 c-20 -21 -15 -53 12 -83 21 -24 47 -22 65 5 13 20 13 25
-12 59 -30 43 -41 46 -65 19z"/>
<path d="M4941 6968 c-12 -19 -11 -24 9 -40 39 -31 110 -19 110 19 0 16 -52
43 -82 43 -13 0 -29 -10 -37 -22z"/>
<path d="M5579 6799 c-8 -16 -8 -27 0 -43 6 -11 15 -33 20 -47 13 -35 67 -46
82 -16 16 29 2 83 -28 107 -33 26 -59 26 -74 -1z"/>
<path d="M5773 6667 c-28 -23 -54 -45 -58 -48 -11 -12 23 -79 40 -79 22 0 87
34 107 56 16 19 22 37 19 61 -1 13 -41 54 -50 52 -3 0 -29 -19 -58 -42z"/>
<path d="M5148 6037 c-27 -23 -48 -66 -48 -102 0 -33 2 -35 34 -35 33 0 35 2
54 59 20 60 20 65 -14 84 -6 4 -18 1 -26 -6z"/>
<path d="M4990 5818 c-35 -57 -24 -108 21 -108 32 0 41 15 52 82 5 31 2 40
-13 48 -29 16 -39 12 -60 -22z"/>
<path d="M4804 5585 c-54 -58 -54 -80 -1 -79 27 1 47 10 68 30 34 33 35 60 1
82 -22 14 -25 13 -68 -33z"/>
<path d="M3810 4161 c-5 -11 -10 -33 -10 -50 0 -48 67 -83 88 -45 11 20 -4 95
-21 106 -21 14 -46 9 -57 -11z"/>
<path d="M4430 4154 c-14 -36 -14 -37 30 -64 32 -20 38 -29 34 -47 -8 -32 38
-77 69 -67 28 9 39 25 30 44 -4 8 -8 37 -9 64 -2 52 -24 82 -52 71 -8 -3 -23
2 -35 10 -32 22 -56 18 -67 -11z"/>
<path d="M4728 4153 c-8 -10 -28 -42 -44 -71 l-29 -53 24 -20 c13 -10 27 -19
33 -19 11 0 54 42 60 60 3 10 9 10 30 -4 25 -16 27 -16 47 5 28 30 34 54 21
80 -9 16 -19 20 -41 17 -17 -3 -34 1 -40 9 -16 18 -43 16 -61 -4z"/>
<path d="M4002 4118 c-7 -7 -12 -31 -12 -55 0 -37 4 -45 26 -55 23 -11 29 -10
45 11 15 18 18 32 13 60 -9 49 -43 68 -72 39z"/>
<path d="M3780 4035 c-27 -32 32 -125 71 -110 8 3 20 15 27 26 12 18 9 25 -20
59 -35 41 -58 49 -78 25z"/>
<path d="M3927 3961 c-15 -10 -35 -27 -43 -39 -11 -16 -21 -20 -47 -15 -42 6
-59 -13 -55 -64 3 -37 4 -38 56 -49 l52 -12 70 77 70 76 -28 22 c-33 28 -39
28 -75 4z"/>
<path d="M4595 3853 c-37 -81 -39 -96 -16 -110 17 -11 24 -9 51 13 16 14 38
45 49 67 18 41 18 42 -2 65 -33 36 -53 28 -82 -35z"/>
<path d="M4395 3886 c-18 -13 -19 -19 -8 -71 14 -67 28 -87 57 -83 27 4 50 67
36 102 -9 23 -47 66 -60 66 -3 0 -15 -6 -25 -14z"/>
<path d="M4482 3598 c-5 -7 -15 -47 -22 -88 -6 -41 -14 -83 -16 -92 -3 -11 5
-23 22 -34 26 -18 27 -18 50 9 43 50 60 170 28 201 -19 19 -48 21 -62 4z"/>
<path d="M4315 3573 c-4 -16 -8 -36 -10 -45 -5 -27 18 -50 45 -46 33 4 49 72
24 100 -25 27 -53 23 -59 -9z"/>
<path d="M4253 3390 c-18 -22 -23 -41 -23 -89 0 -60 0 -61 33 -69 17 -5 35 -8
38 -6 4 2 10 25 13 51 4 27 12 62 18 80 22 62 -37 87 -79 33z"/>
<path d="M4380 3238 c-11 -18 -23 -44 -26 -58 -3 -14 -21 -72 -40 -129 -26
-80 -31 -107 -21 -113 17 -11 57 -21 63 -16 2 3 26 74 53 159 44 140 47 156
33 172 -22 25 -40 21 -62 -15z"/>
<path d="M4190 3121 c-18 -36 -12 -79 15 -97 43 -28 60 -16 59 45 -2 54 -12
71 -46 71 -10 0 -22 -9 -28 -19z"/>
<path d="M4061 2976 c-7 -8 -11 -34 -9 -58 3 -37 7 -44 32 -53 24 -8 31 -6 47
14 20 25 19 71 -3 99 -14 16 -53 15 -67 -2z"/>
<path d="M4189 2726 c-36 -31 -47 -54 -75 -154 -22 -80 -22 -86 -6 -98 9 -8
20 -14 23 -14 15 0 41 43 87 142 l50 106 -22 21 c-27 26 -25 26 -57 -3z"/>
<path d="M3947 2622 c-23 -25 -24 -117 -1 -126 33 -13 55 -6 65 21 13 35 3 75
-25 102 -22 21 -23 21 -39 3z"/>
<path d="M3380 2178 c-39 -62 -39 -63 -20 -82 15 -16 25 -18 52 -10 36 11 78
64 78 99 0 22 -37 55 -60 55 -6 0 -28 -28 -50 -62z"/>
<path d="M3960 2220 c-17 -17 -20 -33 -20 -116 0 -105 9 -134 43 -134 41 0 47
18 47 130 0 91 -3 109 -18 123 -24 22 -28 21 -52 -3z"/>
<path d="M3291 2044 c-26 -21 -31 -33 -31 -69 0 -40 2 -44 31 -50 36 -8 40 -5
63 57 18 50 16 62 -14 78 -15 8 -25 4 -49 -16z"/>
<path d="M3165 1787 c-50 -50 -45 -77 16 -92 24 -6 29 -2 48 39 24 48 22 59
-10 77 -17 8 -25 5 -54 -24z"/>
<path d="M3091 1653 c-5 -10 -12 -39 -16 -65 -8 -51 -5 -55 45 -60 23 -3 25 1
33 57 7 51 6 61 -9 72 -24 18 -42 16 -53 -4z"/>
<path d="M3034 1495 c-10 -8 -33 -15 -51 -15 -26 0 -35 -7 -58 -47 l-28 -46
22 -18 22 -18 -26 -36 c-15 -19 -25 -41 -22 -49 8 -21 79 -39 89 -23 14 23 20
89 9 100 -19 19 -12 27 23 27 25 0 38 6 50 25 52 80 50 71 18 94 -26 18 -31
19 -48 6z"/>
<path d="M2808 1298 c-9 -7 -24 -42 -34 -78 -9 -36 -25 -74 -35 -85 -9 -11
-19 -38 -21 -59 -3 -39 -2 -40 39 -52 48 -14 70 -1 58 36 -4 14 -1 28 10 40 9
10 19 33 21 52 3 18 12 52 21 76 15 40 15 44 -2 62 -21 23 -35 25 -57 8z"/>
<path d="M2883 1143 c-13 -5 -38 -81 -30 -90 3 -2 26 -11 51 -18 43 -13 47
-13 56 6 7 12 7 25 1 37 -15 28 -65 70 -78 65z"/>
<path d="M2528 1078 c-20 -11 -39 -29 -41 -39 -3 -13 -14 -17 -41 -16 -36 1
-56 -13 -56 -40 0 -12 58 -33 91 -33 20 0 131 58 141 74 13 18 9 35 -12 56
-25 25 -36 25 -82 -2z"/>
<path d="M2930 985 c-19 -23 -4 -82 26 -101 23 -16 26 -15 44 1 26 23 25 33
-5 78 -28 40 -45 46 -65 22z"/>
<path d="M2546 938 c-85 -53 -97 -69 -72 -97 11 -12 23 -21 27 -21 4 0 44 27
89 61 79 58 81 61 64 80 -9 10 -22 19 -28 19 -7 0 -43 -19 -80 -42z"/>
<path d="M2823 962 c-6 -4 -18 -23 -26 -44 -15 -35 -14 -37 8 -58 l23 -22 16
24 c27 41 30 81 8 95 -10 6 -24 8 -29 5z"/>
<path d="M2702 898 c-6 -7 -15 -40 -21 -73 -6 -33 -16 -61 -21 -63 -6 -2 -10
-21 -10 -43 0 -48 28 -79 69 -79 38 0 51 32 25 61 -16 18 -16 20 -1 37 22 25
34 136 17 157 -15 18 -44 20 -58 3z"/>
<path d="M10125 896 l-39 -11 39 -12 c41 -13 55 -10 55 12 0 21 -11 23 -55 11z"/>
<path d="M2342 888 c-9 -12 -14 -38 -24 -117 -3 -23 2 -26 70 -42 69 -15 73
-15 82 1 7 13 2 24 -20 45 -23 22 -30 38 -30 65 0 20 -5 41 -12 48 -16 16 -53
15 -66 0z"/>
<path d="M2854 795 c-3 -8 -4 -37 -2 -65 2 -36 -1 -50 -10 -50 -7 0 -18 -11
-24 -25 -10 -22 -8 -29 17 -55 34 -35 88 -41 104 -12 8 14 2 24 -32 55 l-42
38 32 -6 c29 -6 34 -3 43 20 13 35 3 71 -27 95 -30 24 -52 26 -59 5z"/>
<path d="M2962 798 c-19 -19 -14 -43 13 -72 29 -31 74 -35 99 -7 22 24 17 32
-38 65 -50 29 -57 31 -74 14z"/>
</g>
</svg>
