<?xml version="1.0" standalone="no"?>
<!DOCTYPE svg PUBLIC "-//W3C//DTD SVG 20010904//EN"
 "http://www.w3.org/TR/2001/REC-SVG-20010904/DTD/svg10.dtd">
<svg version="1.0" xmlns="http://www.w3.org/2000/svg"
 width="1024.000000pt" height="1024.000000pt" viewBox="0 0 1024.000000 1024.000000"
 preserveAspectRatio="xMidYMid meet">
<metadata>
Created by potrace 1.10, written by Peter Selinger 2001-2011
</metadata>
<g transform="translate(0.000000,1024.000000) scale(0.100000,-0.100000)"
fill="#000000" stroke="none">
<path d="M5100 8564 c-734 -117 -1357 -214 -1385 -214 -27 0 -168 10 -313 21
-144 12 -264 20 -267 17 -2 -2 10 -51 27 -108 l32 -103 101 -66 c190 -123 259
-161 337 -186 99 -31 130 -31 215 0 37 14 255 63 483 111 228 47 425 88 437
91 28 6 42 -21 77 -148 30 -112 32 -151 10 -257 -19 -98 -120 -399 -174 -522
-121 -275 -478 -986 -626 -1247 -198 -349 -539 -878 -695 -1078 -52 -66 -156
-187 -231 -270 -76 -82 -138 -153 -138 -157 0 -5 19 -8 43 -8 29 0 64 11 115
37 152 79 248 158 528 435 l270 268 100 -77 c368 -284 667 -572 913 -877 110
-137 223 -246 281 -273 22 -10 40 -21 40 -26 0 -15 -286 -579 -383 -752 -377
-677 -744 -1161 -1305 -1721 -102 -102 -238 -229 -302 -282 -120 -100 -210
-182 -210 -192 0 -3 14 -14 30 -24 29 -16 34 -16 79 -1 106 35 267 140 601
391 638 480 1183 1112 1625 1884 388 677 751 1484 1129 2508 l144 392 74 86
c52 60 90 94 131 116 80 43 137 107 137 153 0 55 -23 98 -87 162 -100 100
-346 255 -488 309 -106 39 -157 32 -228 -32 -61 -56 -160 -111 -255 -144 -35
-11 -204 -43 -375 -71 l-312 -50 -167 6 -167 7 90 180 c49 99 152 279 228 401
134 216 139 226 176 353 28 98 36 141 31 167 -15 80 -165 231 -338 342 -43 28
-78 52 -78 55 0 3 388 43 863 88 474 46 881 88 905 94 88 22 140 112 106 183
-16 34 -83 98 -149 141 -32 22 -299 105 -331 103 -10 0 -620 -97 -1354 -215z
m1030 -2099 c43 -22 49 -41 39 -120 -19 -153 -102 -443 -249 -870 -85 -249
-420 -1089 -430 -1078 -4 4 -40 57 -79 117 -79 120 -136 173 -301 282 -136 89
-276 164 -510 271 -271 125 -400 179 -485 200 -38 10 -71 18 -73 19 -3 2 750
1117 768 1137 4 4 22 -7 42 -26 42 -39 171 -96 237 -104 32 -3 78 3 151 22 58
15 242 58 410 96 325 72 424 83 480 54z"/>
</g>
</svg>
