<?xml version="1.0" standalone="no"?>
<!DOCTYPE svg PUBLIC "-//W3C//DTD SVG 20010904//EN"
 "http://www.w3.org/TR/2001/REC-SVG-20010904/DTD/svg10.dtd">
<svg version="1.0" xmlns="http://www.w3.org/2000/svg"
 width="1024.000000pt" height="1024.000000pt" viewBox="0 0 1024.000000 1024.000000"
 preserveAspectRatio="xMidYMid meet">
<metadata>
Created by potrace 1.10, written by Peter Selinger 2001-2011
</metadata>
<g transform="translate(0.000000,1024.000000) scale(0.100000,-0.100000)"
fill="#000000" stroke="none">
<path d="M6864 9316 c-53 -34 -83 -64 -126 -123 -109 -148 -718 -1084 -718
-1102 0 -42 -361 -517 -584 -769 -231 -259 -473 -471 -744 -646 -87 -57 -113
-68 -218 -95 -65 -17 -206 -46 -313 -66 -109 -19 -214 -44 -238 -56 -116 -56
-233 -276 -233 -439 0 -116 51 -248 141 -360 l51 -65 -63 62 c-120 116 -271
201 -414 233 -70 16 -123 -11 -172 -87 l-38 -58 1 -130 c0 -113 4 -140 27
-210 18 -54 27 -101 27 -146 0 -42 8 -87 21 -125 19 -51 22 -80 22 -219 l0
-160 -87 -239 c-69 -193 -109 -285 -206 -472 -66 -128 -120 -241 -120 -251 0
-11 -92 -217 -203 -458 l-204 -440 -417 -710 c-385 -656 -415 -711 -399 -723
24 -18 150 -82 162 -82 5 0 145 208 312 462 316 482 409 646 494 863 26 66 73
167 105 225 32 58 104 213 161 345 56 132 113 254 126 271 12 17 26 46 30 65
3 19 26 67 51 107 24 40 70 138 102 218 33 80 77 178 98 218 21 39 56 124 77
186 20 63 53 148 72 188 19 40 44 110 55 155 19 74 20 101 15 277 -4 124 -13
239 -26 316 -20 116 -74 345 -88 367 -4 7 0 8 11 4 10 -4 30 -10 44 -13 16 -4
81 -60 160 -138 125 -123 132 -132 126 -162 -10 -56 24 -98 89 -108 32 -5 37
-9 33 -29 -3 -12 -8 -60 -11 -107 -3 -47 -16 -116 -27 -155 -38 -128 -8 -328
72 -491 95 -193 266 -274 550 -261 139 7 254 37 385 102 92 45 138 78 310 219
l97 79 176 34 c98 18 186 31 197 29 11 -2 137 -29 280 -59 236 -49 263 -57
291 -83 56 -53 53 -70 -30 -174 -57 -71 -84 -97 -117 -111 -27 -11 -149 -32
-314 -53 -148 -20 -303 -45 -343 -56 -88 -25 -195 -77 -278 -135 -60 -43 -214
-198 -214 -216 0 -5 -28 -42 -63 -82 -109 -125 -780 -1021 -785 -1047 -2 -14
-30 -52 -62 -85 -84 -87 -306 -390 -505 -690 -156 -234 -472 -755 -482 -795
-3 -12 19 -23 97 -49 56 -18 103 -31 104 -29 1 1 160 244 351 538 l349 535
576 750 c317 413 594 777 616 810 52 78 284 264 360 289 29 9 180 34 336 55
283 39 286 40 389 87 123 55 185 112 233 214 27 57 31 75 30 150 0 118 -23
190 -78 245 -36 36 -60 49 -138 73 -165 53 -435 116 -605 142 -61 9 -90 9
-114 1 -49 -17 -50 -15 -17 39 17 27 33 50 36 50 3 0 76 -27 161 -60 l156 -60
255 8 c255 8 255 8 320 38 81 38 183 130 217 197 14 28 36 92 48 143 46 178
56 284 65 644 10 386 24 514 86 762 l36 143 247 450 c136 248 272 495 301 550
179 336 385 617 655 895 105 108 115 123 115 178 0 35 -6 45 -46 81 -26 23
-51 41 -57 41 -35 0 -276 -221 -371 -340 -254 -317 -398 -546 -625 -995 -91
-180 -153 -289 -201 -355 -142 -192 -265 -484 -304 -725 -10 -55 -23 -120 -31
-145 -7 -25 -16 -76 -20 -115 -3 -38 -12 -95 -20 -125 -27 -107 -27 -177 -4
-350 27 -204 29 -353 5 -434 -30 -101 -74 -176 -146 -248 l-68 -68 -65 0 c-36
0 -134 5 -218 11 -154 11 -210 26 -370 99 l-27 12 30 112 c52 195 34 259 -113
404 -184 183 -386 292 -644 347 -115 25 -346 31 -433 11 -165 -37 -274 -95
-369 -194 l-52 -55 -45 39 c-30 26 -44 47 -45 65 -1 14 -8 48 -16 75 -8 27
-15 58 -15 69 0 41 22 96 51 129 37 42 84 62 174 70 223 22 444 86 623 181
187 100 259 160 603 504 486 487 650 694 964 1216 200 333 433 662 630 890
110 126 129 182 84 239 -17 21 -86 66 -102 66 -2 0 -35 -20 -73 -44z m-1994
-3501 c122 -26 268 -89 369 -158 65 -44 179 -145 192 -168 8 -15 7 -46 -1
-112 -13 -105 -17 -119 -77 -242 -141 -288 -350 -504 -619 -643 -177 -90 -181
-91 -332 -82 l-132 8 -64 46 c-63 45 -66 49 -93 129 -27 81 -27 84 -28 352 0
368 21 528 86 658 56 109 153 184 289 222 66 18 304 12 410 -10z"/>
<path d="M5014 5537 c-20 -18 -28 -35 -31 -74 -5 -45 -2 -55 20 -77 33 -33 47
-33 81 3 20 20 30 43 33 74 5 39 2 49 -20 71 -32 32 -48 33 -83 3z"/>
<path d="M5233 5427 c-31 -18 -53 -39 -53 -49 0 -29 41 -60 70 -53 60 14 106
77 84 113 -17 27 -45 24 -101 -11z"/>
<path d="M5125 5210 c-41 -16 -105 -117 -105 -165 0 -29 5 -32 56 -41 l40 -6
47 71 c26 39 47 74 47 79 0 4 -15 22 -32 39 -25 23 -38 29 -53 23z"/>
<path d="M4893 5178 c-15 -22 -33 -68 -25 -68 4 0 17 18 30 40 21 37 17 57 -5
28z"/>
<path d="M4925 5154 c-15 -19 -24 -38 -20 -42 6 -6 35 25 56 61 18 31 -8 18
-36 -19z"/>
<path d="M4790 4994 c-34 -29 -60 -73 -60 -102 0 -26 43 -64 63 -56 9 3 37 35
62 70 l46 64 -28 25 c-36 31 -44 31 -83 -1z"/>
<path d="M4982 4884 c-57 -50 -65 -79 -32 -109 20 -18 22 -18 86 46 l65 64
-28 22 c-15 13 -30 23 -33 23 -3 0 -29 -21 -58 -46z"/>
<path d="M4605 4769 c-42 -39 -45 -45 -45 -94 0 -48 2 -53 26 -59 17 -5 36 0
59 14 39 24 59 53 73 103 9 33 8 40 -11 57 -31 29 -52 25 -102 -21z"/>
<path d="M7824 8955 c-24 -37 -10 -42 16 -6 12 17 17 31 11 31 -6 0 -18 -11
-27 -25z"/>
<path d="M7637 8759 c-15 -11 -32 -37 -38 -58 -9 -31 -15 -37 -34 -34 -14 3
-33 -5 -51 -20 -38 -33 -41 -99 -6 -128 13 -10 29 -16 37 -13 23 9 55 69 55
103 0 30 13 41 25 21 10 -16 40 -12 57 8 8 9 21 39 27 67 11 44 10 51 -5 62
-24 18 -37 16 -67 -8z"/>
<path d="M7423 8495 c-18 -8 -45 -26 -59 -40 -23 -23 -25 -29 -12 -41 12 -12
22 -10 71 17 67 36 72 42 49 62 -15 13 -21 14 -49 2z"/>
<path d="M7245 8301 c-29 -6 -30 -9 -30 -58 1 -82 46 -117 93 -73 30 28 32
114 3 130 -21 11 -21 11 -66 1z"/>
<path d="M7075 8050 c-27 -29 -28 -30 -16 -87 12 -62 23 -75 60 -71 19 3 27
13 41 58 10 30 21 62 24 71 5 12 -2 23 -27 38 -44 27 -48 27 -82 -9z"/>
<path d="M6965 7815 c-15 -19 -29 -52 -32 -74 -5 -36 -3 -41 25 -55 40 -21 39
-21 62 17 32 52 22 147 -15 147 -8 0 -26 -16 -40 -35z"/>
<path d="M6834 7613 c-27 -5 -42 -39 -37 -83 4 -27 13 -41 39 -58 45 -29 65
-19 91 50 l20 52 -28 23 c-26 22 -40 25 -85 16z"/>
<path d="M6651 7315 c-28 -32 -30 -40 -25 -78 10 -65 21 -79 56 -75 28 3 33 8
46 54 11 40 11 60 2 92 -14 53 -37 55 -79 7z"/>
<path d="M6521 7051 c-24 -10 -47 -24 -51 -32 -4 -8 -11 -46 -15 -85 -7 -69
-6 -70 20 -82 18 -8 32 -9 45 -2 24 13 73 85 89 130 10 30 9 38 -7 59 -23 32
-28 32 -81 12z"/>
<path d="M6464 6826 c-12 -9 -24 -29 -26 -46 -4 -26 -2 -30 19 -30 27 0 36 16
31 59 -3 30 -4 31 -24 17z"/>
<path d="M6315 6392 c-35 -24 -55 -72 -55 -134 -1 -38 -6 -70 -15 -81 -7 -11
-17 -37 -20 -59 -9 -50 13 -78 61 -78 38 0 61 20 70 58 3 15 17 63 30 108 28
93 30 141 8 172 -15 22 -58 30 -79 14z"/>
<path d="M6235 5948 c-40 -21 -45 -37 -28 -82 20 -52 60 -96 87 -96 26 0 85
35 92 55 4 9 -17 35 -56 72 -35 32 -65 59 -69 60 -3 1 -15 -3 -26 -9z"/>
<path d="M6046 5719 c-23 -18 -26 -26 -20 -53 15 -69 76 -113 143 -102 36 5
71 36 71 62 0 17 -33 49 -89 85 -54 35 -70 36 -105 8z"/>
<path d="M6310 5602 c-21 -17 -21 -21 -11 -77 6 -32 11 -67 11 -78 0 -18 -1
-18 -25 -3 -41 27 -71 7 -91 -59 -19 -67 -14 -96 22 -115 42 -23 87 11 108 83
4 13 16 17 50 17 58 0 66 15 66 114 l0 76 -42 30 c-48 35 -58 36 -88 12z"/>
<path d="M5996 5357 c-51 -29 -60 -46 -52 -92 7 -38 62 -105 84 -105 6 0 23
16 38 36 21 27 29 50 32 94 4 51 2 59 -19 74 -30 21 -36 20 -83 -7z"/>
<path d="M5571 4398 c-23 -11 -47 -30 -53 -42 -6 -11 -26 -41 -45 -65 -36 -48
-42 -90 -17 -115 30 -30 50 -17 133 84 44 55 81 104 81 108 0 5 -13 18 -29 29
l-28 22 -42 -21z"/>
<path d="M5881 4397 c-13 -6 -33 -24 -45 -40 -19 -26 -19 -29 -4 -55 12 -19
25 -27 45 -27 24 0 32 8 54 55 35 73 15 101 -50 67z"/>
<path d="M5205 4271 c-62 -28 -79 -52 -68 -98 12 -54 39 -54 108 -2 59 45 67
67 35 99 -24 24 -25 24 -75 1z"/>
<path d="M5006 4044 c-28 -50 -23 -74 15 -74 25 0 73 92 56 109 -22 22 -45 11
-71 -35z"/>
<path d="M4826 4006 c-17 -18 -40 -50 -50 -70 -18 -33 -18 -38 -4 -52 21 -21
48 -12 88 29 39 40 53 86 32 110 -21 24 -30 22 -66 -17z"/>
<path d="M4611 3689 c-29 -39 -47 -106 -39 -145 4 -24 86 -43 99 -22 11 18 49
142 49 161 0 19 -37 47 -62 47 -10 0 -31 -18 -47 -41z"/>
<path d="M6006 3670 c4 -14 13 -38 20 -55 11 -24 13 -25 8 -5 -4 14 -13 39
-20 55 -11 24 -13 25 -8 5z"/>
<path d="M4451 3571 c-37 -54 -39 -60 -25 -80 8 -11 22 -21 29 -21 15 0 75
108 75 134 0 11 -20 26 -35 26 -3 0 -22 -26 -44 -59z"/>
<path d="M4385 3401 c-43 -18 -58 -47 -51 -98 7 -54 18 -64 66 -61 30 3 38 9
57 48 30 61 28 75 -11 99 -18 12 -35 21 -37 20 -2 0 -13 -4 -24 -8z"/>
<path d="M4196 3198 c-27 -44 -29 -66 -5 -73 28 -9 36 1 41 53 4 48 -12 57
-36 20z"/>
<path d="M4225 3089 c11 -51 27 -61 23 -15 -2 22 -9 41 -17 44 -10 3 -12 -3
-6 -29z"/>
<path d="M3927 2832 c-37 -27 -97 -120 -97 -151 0 -32 16 -43 49 -36 28 6 37
18 77 97 59 118 50 147 -29 90z"/>
<path d="M3691 2535 c-70 -51 -77 -76 -31 -100 27 -14 33 -14 60 0 59 30 90
114 51 135 -16 8 -30 1 -80 -35z"/>
<path d="M3493 2212 c-30 -5 -71 -45 -79 -78 -21 -84 99 -72 127 13 10 31 9
37 -7 52 -11 10 -29 16 -41 13z"/>
<path d="M3242 1824 c-7 -3 -19 -22 -28 -42 -13 -32 -13 -37 2 -51 14 -15 19
-12 55 29 21 25 37 50 36 55 -4 11 -45 17 -65 9z"/>
<path d="M3095 1613 c-34 -51 -34 -99 1 -115 24 -11 28 -9 55 22 49 60 54 76
35 105 -25 38 -60 33 -91 -12z"/>
<path d="M2985 1466 c-13 -19 -15 -34 -8 -68 7 -38 12 -43 38 -46 36 -5 55 19
55 69 0 28 -6 41 -25 53 -33 22 -42 20 -60 -8z"/>
<path d="M2948 1308 c-51 -22 -55 -31 -42 -97 6 -27 11 -31 40 -31 23 0 34 5
38 18 4 10 21 25 39 33 36 16 43 33 28 72 -13 33 -38 34 -103 5z"/>
</g>
</svg>
