<?xml version="1.0" standalone="no"?>
<!DOCTYPE svg PUBLIC "-//W3C//DTD SVG 20010904//EN"
 "http://www.w3.org/TR/2001/REC-SVG-20010904/DTD/svg10.dtd">
<svg version="1.0" xmlns="http://www.w3.org/2000/svg"
 width="1024.000000pt" height="1024.000000pt" viewBox="0 0 1024.000000 1024.000000"
 preserveAspectRatio="xMidYMid meet">
<metadata>
Created by potrace 1.10, written by Peter Selinger 2001-2011
</metadata>
<g transform="translate(0.000000,1024.000000) scale(0.100000,-0.100000)"
fill="#000000" stroke="none">
<path d="M5110 8714 c-959 -168 -1356 -233 -1410 -233 -41 0 -183 8 -315 18
-132 10 -243 15 -247 12 -5 -5 63 -206 74 -216 1 -1 73 -53 158 -114 198 -143
279 -184 372 -189 61 -4 76 -1 131 27 45 21 183 59 479 131 229 55 420 100
426 100 26 0 82 -225 82 -329 0 -166 -105 -518 -255 -856 -366 -826 -616
-1311 -1028 -1995 -123 -204 -260 -393 -399 -550 -36 -42 -90 -110 -118 -151
l-51 -74 30 -3 c56 -6 226 98 383 235 37 32 170 171 297 310 l229 251 74 -61
c228 -190 533 -486 708 -687 46 -52 133 -162 195 -245 122 -163 220 -268 303
-323 28 -19 52 -36 52 -38 0 -2 -106 -216 -235 -476 -431 -870 -682 -1265
-1199 -1883 -235 -282 -520 -577 -689 -714 l-78 -63 22 -24 c13 -14 34 -24 48
-24 70 1 253 109 440 261 57 46 129 103 160 127 197 152 545 486 747 717 409
469 735 967 1070 1635 145 290 180 368 331 730 231 555 373 938 682 1846 l83
241 77 89 c47 54 107 109 152 139 113 77 140 135 104 220 -56 135 -482 438
-636 453 -70 7 -92 -2 -159 -62 -59 -53 -179 -122 -262 -152 -24 -8 -184 -40
-355 -70 -311 -54 -314 -54 -455 -48 -79 4 -150 10 -159 13 -13 5 0 39 75 197
50 105 150 299 223 430 147 267 166 305 188 389 32 126 16 195 -72 300 -55 66
-259 252 -299 273 -14 8 -24 15 -22 17 1 2 386 42 853 90 468 47 868 91 890
97 51 13 100 63 109 110 6 36 3 42 -81 148 l-88 110 -140 46 c-77 24 -144 46
-150 48 -5 1 -611 -102 -1345 -230z m989 -2250 c52 -20 58 -40 49 -143 -26
-267 -200 -845 -480 -1593 -101 -268 -185 -488 -188 -488 -3 0 -37 54 -75 121
-52 89 -87 137 -133 180 -86 81 -245 191 -404 282 -154 88 -588 298 -730 353
l-97 38 22 35 c12 20 184 293 382 607 l361 571 86 -57 c90 -59 167 -90 225
-90 19 0 73 11 121 25 156 45 726 173 774 174 26 1 65 -6 87 -15z"/>
</g>
</svg>
