<?xml version="1.0" standalone="no"?>
<!DOCTYPE svg PUBLIC "-//W3C//DTD SVG 20010904//EN"
 "http://www.w3.org/TR/2001/REC-SVG-20010904/DTD/svg10.dtd">
<svg version="1.0" xmlns="http://www.w3.org/2000/svg"
 width="1024.000000pt" height="1024.000000pt" viewBox="0 0 1024.000000 1024.000000"
 preserveAspectRatio="xMidYMid meet">
<metadata>
Created by potrace 1.10, written by Peter Selinger 2001-2011
</metadata>
<g transform="translate(0.000000,1024.000000) scale(0.100000,-0.100000)"
fill="#000000" stroke="none">
<path d="M5521 9932 c-31 -5 -165 -140 -218 -220 -49 -73 -83 -159 -83 -206
l0 -34 -117 5 c-184 8 -370 -27 -406 -77 -7 -9 -43 -29 -82 -43 -202 -77 -404
-272 -448 -432 -13 -48 -28 -72 -76 -123 -102 -109 -167 -267 -194 -474 l-11
-88 -38 0 c-25 0 -66 -14 -116 -39 -69 -35 -83 -48 -129 -114 -29 -41 -53 -82
-53 -91 0 -9 -7 -31 -16 -48 -13 -26 -14 -40 -4 -97 29 -166 136 -289 301
-344 13 -4 18 -25 24 -84 26 -291 47 -388 110 -513 97 -191 314 -376 505 -431
25 -7 49 -16 54 -20 4 -4 -4 -63 -19 -131 l-27 -123 -45 0 c-31 0 -49 -5 -57
-17 -8 -10 -26 -18 -43 -18 -57 0 -533 -321 -854 -576 -534 -424 -769 -679
-951 -1034 -27 -52 -57 -104 -68 -115 -11 -12 -34 -62 -50 -111 -17 -49 -42
-111 -57 -138 -15 -29 -38 -105 -55 -180 -15 -72 -41 -165 -58 -206 -89 -224
-102 -447 -38 -650 38 -121 99 -264 168 -397 68 -132 757 -1193 807 -1243 18
-18 27 -21 30 -12 13 35 72 97 110 116 28 14 43 28 43 41 1 50 9 49 221 -28
133 -48 227 -77 270 -81 l65 -7 -4 -87 c-2 -48 -14 -310 -27 -582 -21 -468
-21 -496 -5 -520 9 -14 20 -41 23 -60 11 -55 43 -98 91 -122 56 -27 83 -18
123 43 23 35 28 53 28 103 0 51 -6 71 -34 121 l-34 60 32 300 32 300 39 1665
c22 916 42 1711 46 1767 8 133 -9 195 -70 258 -52 55 -78 57 -128 10 l-36 -34
-30 -941 c-17 -518 -32 -944 -34 -946 -3 -2 -23 0 -45 4 -35 6 -46 15 -75 57
-54 80 -189 151 -356 184 -84 17 -256 14 -320 -6 -100 -32 -136 -117 -69 -166
27 -21 62 -29 225 -53 106 -15 189 -31 185 -34 -5 -4 -42 -21 -83 -40 -96 -42
-139 -74 -156 -117 -24 -55 4 -123 63 -157 7 -4 27 0 45 8 56 25 220 74 275
81 l53 7 -11 -29 c-6 -18 -22 -35 -42 -44 -26 -12 -63 -67 -222 -331 -104
-174 -193 -319 -196 -322 -3 -3 -39 33 -80 81 -52 61 -98 132 -155 238 -44 82
-182 310 -307 506 -125 195 -227 365 -227 377 0 13 -10 41 -21 64 -36 70 -24
207 46 528 37 171 64 272 75 285 10 11 20 39 24 63 4 24 13 53 21 65 8 12 17
42 21 67 16 102 185 372 379 605 181 216 500 515 766 715 171 130 630 433 639
423 5 -4 25 -55 44 -113 20 -58 45 -116 55 -130 9 -14 53 -101 96 -195 102
-219 147 -282 582 -810 267 -324 388 -461 527 -601 201 -200 405 -384 600
-540 l129 -104 93 0 93 0 5 -42 c3 -24 10 -115 16 -203 8 -117 18 -191 40
-275 16 -63 26 -118 22 -122 -4 -3 -135 -58 -292 -122 -157 -63 -316 -129
-355 -146 -361 -163 -1069 -442 -1205 -475 -127 -31 -170 -100 -122 -195 35
-69 9 -76 742 194 365 135 665 244 666 243 1 -1 -84 -94 -188 -207 -104 -113
-198 -218 -209 -235 -38 -59 -13 -170 43 -189 39 -14 95 14 155 77 65 68 550
670 564 701 8 16 42 38 111 70 55 25 104 43 109 40 18 -11 8 -41 -21 -62 -42
-31 -56 -66 -64 -152 -26 -281 -125 -500 -330 -728 -40 -45 -76 -94 -79 -109
-10 -55 33 -123 78 -123 48 0 226 154 315 272 99 131 159 264 220 493 12 44
25 83 29 88 4 4 35 -21 68 -56 56 -58 100 -127 118 -186 4 -14 22 -47 40 -75
37 -58 437 -1044 467 -1151 23 -84 75 -194 118 -252 29 -39 36 -43 75 -43 37
0 47 5 73 35 51 57 51 116 2 185 -11 16 -20 40 -20 55 0 15 -8 39 -19 53 -10
15 -22 43 -26 62 -4 19 -24 69 -45 110 -20 41 -40 97 -44 123 -5 28 -30 91
-61 150 -31 60 -78 176 -113 282 -65 196 -107 297 -200 481 -92 180 -128 233
-239 353 -99 105 -103 111 -102 153 0 24 4 51 8 61 6 17 8 17 20 3 17 -20 63
-21 99 -2 42 22 121 111 144 164 28 63 34 168 14 257 -18 81 -24 71 97 158 42
29 78 65 96 95 41 65 466 464 774 726 99 84 193 228 230 352 25 85 4 147 -106
323 -125 198 -266 395 -416 581 -68 85 -250 330 -404 545 -154 214 -304 417
-334 450 -35 40 -53 69 -53 86 0 60 15 58 -642 99 -332 21 -611 38 -621 38 -9
1 -133 -91 -274 -203 -142 -112 -258 -203 -259 -202 -2 1 -4 99 -6 217 -4 176
-7 221 -21 247 l-17 31 118 46 c189 74 271 126 392 246 79 79 118 127 155 193
28 48 62 104 78 124 15 19 27 41 27 48 0 7 15 59 34 116 38 115 56 206 56 289
0 54 1 56 37 75 21 11 68 50 104 86 79 78 120 157 144 278 40 195 -16 333
-161 404 l-45 22 -62 -24 c-34 -12 -69 -25 -77 -27 -13 -4 -15 14 -16 118 0
68 -6 157 -13 198 -20 126 -71 290 -122 391 l-48 96 26 38 c57 83 80 200 64
317 -32 234 -135 337 -351 350 -36 3 -76 3 -89 0z m146 -244 c27 -10 36 -20
45 -53 22 -76 15 -152 -23 -245 -40 -99 -34 -98 -156 -40 -70 33 -83 43 -83
63 0 13 -3 44 -6 68 -6 41 -3 48 39 102 48 61 112 116 136 117 8 0 30 -5 48
-12z m-1184 -795 c26 -29 62 -29 85 -2 9 12 27 33 39 48 l23 26 -21 -49 c-25
-57 -16 -91 26 -102 44 -11 71 10 104 79 17 36 38 68 47 71 11 4 10 -1 -6 -24
-31 -43 -25 -116 11 -143 35 -25 60 -16 100 36 20 27 29 34 24 20 -5 -17 1
-29 21 -48 15 -14 32 -25 39 -25 24 0 62 40 73 77 6 22 23 50 37 63 l25 24 -6
-45 c-5 -43 -5 -44 34 -66 l40 -22 25 19 c24 19 26 19 31 2 9 -29 62 -54 96
-47 34 8 65 55 57 87 -8 30 3 48 29 48 23 0 24 -3 24 -64 0 -55 3 -67 26 -90
49 -48 104 -26 105 42 0 20 4 55 8 77 l7 40 8 -56 c11 -87 56 -118 115 -80 10
6 17 35 20 87 6 76 6 77 20 49 7 -17 24 -63 37 -104 22 -65 25 -96 30 -295 3
-121 10 -236 16 -253 12 -41 52 -73 89 -73 16 0 34 -8 41 -18 7 -11 23 -24 35
-30 21 -12 21 -12 2 -49 l-19 -37 46 -44 c29 -28 58 -46 80 -49 39 -6 40 -10
18 -41 -22 -32 -67 -52 -115 -52 -27 0 -58 -9 -86 -25 -49 -29 -49 -29 -33
-183 8 -76 7 -99 -5 -129 -8 -20 -15 -66 -15 -104 0 -56 -6 -83 -30 -136 -47
-102 -132 -223 -211 -297 -137 -130 -262 -192 -534 -267 -177 -48 -200 -52
-330 -57 -159 -5 -226 7 -333 59 -83 41 -190 142 -246 233 l-43 71 -29 225
c-26 201 -29 255 -29 510 0 179 5 319 13 375 27 190 45 281 62 315 9 19 29 70
45 113 15 42 31 77 36 77 5 0 21 22 37 50 16 27 62 97 103 154 66 94 74 102
77 78 2 -15 13 -37 25 -49z m1707 -717 c7 -23 8 -45 1 -68 -5 -18 -10 -25 -10
-16 -1 12 -19 23 -56 34 -58 19 -67 29 -36 39 10 3 26 14 36 25 28 30 52 25
65 -14z m-2338 -278 c-4 -151 0 -143 -55 -95 l-49 42 26 60 c15 33 34 67 43
77 33 36 39 22 35 -84z m1199 -1465 c1 -118 19 -529 25 -559 5 -29 -2 -37
-131 -155 -75 -68 -139 -125 -144 -127 -9 -3 -161 376 -161 402 0 10 25 87 56
170 37 97 59 174 63 215 l6 65 125 21 c177 31 160 34 161 -32z m1402 -220
l438 -17 69 -81 c42 -48 72 -92 76 -112 4 -21 46 -77 133 -175 79 -89 179
-219 265 -343 76 -110 153 -216 171 -235 54 -58 601 -794 607 -818 9 -32 -25
-73 -221 -267 l-171 -170 0 49 c0 44 -4 52 -41 86 l-41 37 -169 18 c-176 18
-214 15 -309 -22 -32 -12 -28 -7 35 53 121 114 308 225 461 274 63 21 74 28
103 70 l33 48 -22 42 c-16 31 -33 47 -67 62 -62 27 -110 20 -221 -36 -240
-120 -485 -325 -642 -536 -23 -30 -46 -57 -51 -59 -6 -2 -21 7 -35 20 -23 22
-24 26 -24 182 0 116 4 174 16 214 26 88 5 151 -64 198 -40 27 -68 22 -115
-23 -59 -56 -83 -182 -54 -283 15 -50 15 -90 2 -433 -7 -208 -16 -380 -18
-383 -3 -2 -213 190 -467 429 l-461 433 -377 474 -376 475 94 89 c273 257 489
444 747 645 73 57 136 108 139 114 4 6 29 7 63 4 31 -3 253 -13 494 -23z
m1277 -2261 l45 -7 -285 -289 c-157 -159 -312 -310 -344 -336 l-60 -47 -63 43
c-34 23 -89 53 -123 65 l-60 22 0 89 c0 87 1 92 44 171 24 45 47 96 51 113 5
28 16 36 103 77 137 64 221 87 397 111 37 5 234 -3 295 -12z m-783 -896 c65
-52 73 -62 78 -101 8 -49 -11 -98 -50 -135 l-24 -22 -31 103 c-57 188 -62 204
-66 218 -5 16 -11 19 93 -63z m-3019 -923 c-2 -199 -6 -364 -9 -367 -3 -3 -38
8 -78 24 -77 32 -237 80 -333 101 -32 7 -58 15 -58 19 0 4 69 119 154 256 150
244 155 250 237 317 l84 67 4 -27 c1 -16 1 -191 -1 -390z"/>
<path d="M5520 8704 c-117 -22 -235 -86 -327 -177 -56 -54 -63 -66 -63 -100 0
-30 7 -46 30 -69 27 -27 36 -30 73 -25 32 4 49 14 72 41 26 30 56 45 206 101
168 63 177 68 198 105 28 50 27 61 -9 95 -26 25 -39 29 -93 31 -34 1 -73 0
-87 -2z"/>
<path d="M4599 8660 c-40 -21 -53 -50 -38 -84 6 -12 79 -60 181 -119 191 -109
168 -105 255 -41 31 23 31 24 18 66 -10 34 -21 48 -57 69 -24 14 -65 42 -91
62 -84 64 -198 84 -268 47z"/>
<path d="M4653 8247 c-38 -28 -43 -36 -40 -67 l2 -35 95 4 c52 1 98 6 102 10
22 20 -69 122 -106 120 -6 0 -30 -15 -53 -32z"/>
<path d="M5310 8214 c-39 -27 -50 -45 -50 -85 0 -25 8 -47 23 -65 l24 -27 59
14 c48 12 63 20 82 49 12 19 22 45 20 59 -7 53 -109 89 -158 55z"/>
<path d="M4867 7994 c-35 -23 -38 -28 -35 -67 3 -35 9 -46 46 -74 63 -47 117
-46 172 3 47 43 49 61 13 105 -52 62 -131 75 -196 33z"/>
<path d="M4626 7662 c-20 -8 -36 -19 -36 -25 0 -6 -9 -29 -19 -51 -31 -66 -51
-137 -51 -177 0 -47 62 -243 102 -322 37 -74 97 -140 152 -167 87 -42 242 -17
331 53 23 17 83 70 133 117 81 76 95 95 131 174 23 48 41 92 41 97 0 8 -39 46
-200 196 l-56 52 -224 30 c-124 17 -235 33 -246 34 -12 2 -38 -3 -58 -11z
m314 -98 c98 -20 241 -91 313 -155 49 -43 57 -56 57 -86 0 -45 -50 -140 -108
-204 -29 -32 -69 -61 -120 -86 -75 -37 -78 -38 -191 -38 -103 0 -120 3 -152
22 -32 20 -39 33 -62 111 -15 49 -34 128 -42 177 l-16 89 33 93 c25 71 37 93
53 96 36 6 159 -4 235 -19z"/>
<path d="M2578 7906 c-64 -28 -154 -151 -234 -321 -45 -95 -114 -292 -114
-326 0 -10 -6 -19 -12 -19 -24 0 -123 -51 -150 -78 -16 -14 -28 -36 -28 -49 0
-29 32 -38 111 -29 l59 6 0 -183 1 -182 40 -27 c48 -34 59 -35 89 -3 23 24 23
25 16 213 l-7 189 103 7 c193 13 207 16 223 46 13 25 12 29 -9 49 -19 18 -46
25 -137 37 -63 7 -122 11 -133 8 -16 -5 -17 -2 -11 28 16 77 70 219 116 308
42 80 85 145 177 271 12 16 11 21 -12 44 -27 27 -46 30 -88 11z"/>
<path d="M2228 6193 c-28 -7 -128 -182 -128 -223 0 -66 -9 -80 -47 -80 -20 0
-51 -9 -69 -21 -28 -17 -34 -27 -34 -54 0 -32 4 -36 60 -62 l59 -28 -5 -150
c-2 -82 -7 -169 -9 -193 -4 -36 -1 -47 20 -68 27 -27 53 -31 78 -11 13 10 19
50 32 207 9 107 18 204 20 215 4 16 30 28 130 59 69 22 130 45 135 50 4 6 11
23 15 38 6 25 3 29 -37 49 l-45 21 -80 -24 c-48 -15 -80 -21 -78 -14 29 87 76
248 73 250 -2 1 -16 12 -32 24 -16 12 -31 21 -35 21 -3 -1 -14 -3 -23 -6z"/>
</g>
</svg>
