<?xml version="1.0" standalone="no"?>
<!DOCTYPE svg PUBLIC "-//W3C//DTD SVG 20010904//EN"
 "http://www.w3.org/TR/2001/REC-SVG-20010904/DTD/svg10.dtd">
<svg version="1.0" xmlns="http://www.w3.org/2000/svg"
 width="1024.000000pt" height="1024.000000pt" viewBox="0 0 1024.000000 1024.000000"
 preserveAspectRatio="xMidYMid meet">
<metadata>
Created by potrace 1.10, written by Peter Selinger 2001-2011
</metadata>
<g transform="translate(0.000000,1024.000000) scale(0.100000,-0.100000)"
fill="#000000" stroke="none">
<path d="M4550 8665 c-11 -13 11 -39 154 -177 92 -89 214 -217 270 -284 94
-112 136 -170 250 -346 51 -78 155 -174 197 -181 43 -8 105 6 138 31 105 78
107 325 4 471 -35 49 -59 66 -307 212 -148 88 -270 159 -272 159 -2 0 -34 14
-71 31 -103 47 -266 99 -311 99 -23 0 -45 -6 -52 -15z"/>
<path d="M6420 7369 c-36 -5 -263 -31 -505 -59 -242 -27 -818 -92 -1280 -145
l-840 -96 -213 22 c-159 16 -216 18 -226 10 -21 -18 -28 -86 -12 -124 7 -18
34 -51 59 -73 48 -42 277 -170 376 -210 132 -53 22 -65 1386 140 683 102 1292
192 1355 200 312 39 383 97 268 222 -23 25 -50 50 -60 55 -28 15 -210 69 -228
68 -8 -1 -44 -5 -80 -10z"/>
<path d="M5087 6067 l-758 -111 -177 13 c-97 7 -185 15 -194 17 -22 6 -62 -68
-54 -101 9 -37 95 -107 226 -185 120 -71 246 -129 283 -130 10 0 347 70 750
156 403 85 768 161 812 169 99 16 149 36 170 68 14 22 14 29 2 59 -26 61 -84
100 -188 127 -52 13 -98 25 -104 26 -5 2 -351 -47 -768 -108z"/>
<path d="M5085 4898 l-710 -109 -207 16 c-113 10 -211 15 -216 11 -5 -3 -12
-20 -16 -37 -9 -45 23 -109 75 -151 91 -74 295 -185 390 -212 54 -16 59 -16
155 8 54 14 126 35 159 47 90 32 411 101 760 164 449 81 515 94 560 114 89 40
99 87 33 157 -39 40 -53 47 -148 74 -58 17 -109 30 -115 29 -5 -1 -329 -50
-720 -111z"/>
<path d="M5895 3868 c-16 -6 -41 -19 -56 -29 -14 -10 -119 -44 -235 -77 -175
-51 -300 -76 -776 -162 l-568 -101 -42 29 c-32 21 -80 38 -179 61 l-137 31
-76 -35 c-42 -19 -76 -37 -76 -40 0 -4 13 -23 29 -43 38 -47 134 -276 154
-367 40 -179 111 -652 177 -1185 37 -297 54 -389 85 -450 30 -60 65 -76 126
-60 97 26 144 121 144 291 l0 105 800 83 c440 45 824 87 854 93 62 12 111 52
111 90 0 21 -101 157 -137 183 -12 9 2 75 97 455 61 245 123 472 137 505 14
33 48 92 77 130 104 139 100 131 82 178 -30 79 -117 155 -276 240 -140 75
-245 100 -315 75z m-78 -441 c13 -13 26 -39 29 -58 4 -27 -121 -1070 -129
-1074 -1 -1 -49 -14 -106 -29 -75 -20 -252 -46 -630 -92 -289 -35 -527 -61
-530 -59 -6 7 -133 1086 -128 1091 2 2 287 54 633 115 346 61 661 116 699 124
88 17 133 12 162 -18z"/>
</g>
</svg>
