<?xml version="1.0" standalone="no"?>
<!DOCTYPE svg PUBLIC "-//W3C//DTD SVG 20010904//EN"
 "http://www.w3.org/TR/2001/REC-SVG-20010904/DTD/svg10.dtd">
<svg version="1.0" xmlns="http://www.w3.org/2000/svg"
 width="240.000000pt" height="240.000000pt" viewBox="0 0 240.000000 240.000000"
 preserveAspectRatio="xMidYMid meet">
<metadata>
Created by potrace 1.11, written by Peter Selinger 2001-2013
</metadata>
<g transform="translate(0.000000,240.000000) scale(0.100000,-0.100000)"
fill="#000000" stroke="none">
<path d="M1196 2371 c-9 -13 -134 -81 -150 -81 -8 0 -27 -15 -43 -33 -16 -18
-37 -36 -46 -40 -21 -8 -22 -50 -2 -67 8 -7 15 -21 15 -32 0 -30 19 -58 40
-58 10 0 22 -4 25 -10 8 -14 71 -13 93 1 26 17 87 -15 76 -39 -5 -9 -9 -53
-10 -97 -1 -62 -6 -88 -23 -115 -27 -44 -31 -75 -28 -180 5 -150 -22 -176
-129 -126 -69 32 -109 85 -108 143 1 48 -15 54 -27 11 -5 -18 0 -42 16 -77 29
-62 84 -100 168 -116 34 -7 61 -16 60 -22 -1 -6 6 -19 16 -29 17 -18 17 -20
-3 -51 -16 -25 -26 -31 -41 -27 -61 19 -128 48 -160 69 -41 29 -45 30 -45 13
0 -7 15 -23 33 -36 35 -23 152 -72 174 -72 7 0 13 -9 13 -19 0 -11 5 -23 10
-26 6 -4 8 -11 4 -16 -3 -6 -6 -27 -6 -47 0 -20 -5 -43 -11 -50 -8 -10 -5 -14
11 -19 17 -4 20 -9 12 -24 -6 -10 -12 -35 -14 -56 -1 -21 -8 -49 -13 -63 -6
-14 -8 -30 -6 -37 3 -7 -5 -22 -16 -35 -12 -12 -26 -39 -31 -59 -10 -36 -13
-38 -67 -49 l-57 -12 -31 36 c-17 21 -39 36 -51 36 -28 0 -84 -57 -84 -86 0
-19 -11 -24 -92 -44 -181 -44 -260 -101 -296 -211 -12 -37 -55 -143 -96 -237
-65 -149 -96 -230 -96 -254 0 -5 7 -8 15 -8 8 0 18 15 23 33 15 50 115 281
129 295 7 7 13 21 14 30 0 9 9 42 19 72 13 39 20 50 25 38 3 -9 16 -19 29 -22
52 -13 575 -66 652 -66 66 0 92 -4 125 -22 l42 -22 41 23 c30 16 70 25 151 32
89 9 504 94 559 115 33 13 132 -304 150 -476 3 -34 15 -52 28 -44 6 4 7 28 3
63 -9 77 -113 430 -136 462 -10 14 -16 29 -13 32 13 13 -7 54 -47 95 -24 23
-83 66 -132 94 -63 36 -85 53 -75 59 7 5 84 25 171 46 144 35 158 40 164 62 4
18 0 29 -15 41 -21 18 -105 36 -120 26 -4 -2 -61 -16 -127 -31 -66 -15 -165
-44 -221 -65 -93 -35 -109 -38 -231 -42 l-131 -4 -16 35 -16 36 38 38 c35 36
37 41 35 96 -2 45 1 62 15 73 9 9 76 32 147 53 120 35 167 56 153 70 -3 3 -67
-14 -144 -38 l-139 -43 -13 25 c-10 19 -10 32 -3 49 6 12 11 31 11 41 0 14 21
28 75 52 41 18 75 39 75 46 0 17 3 18 -84 -23 -42 -20 -79 -34 -83 -31 -3 4 4
33 16 65 18 47 20 63 11 87 -9 23 -7 37 10 77 16 37 18 53 10 68 -6 11 -8 20
-6 20 3 0 1 12 -4 26 -9 21 -6 31 14 55 29 34 41 85 33 135 -3 19 0 48 6 64
l13 29 74 -42 c67 -38 75 -46 78 -75 2 -20 10 -35 20 -38 9 -3 26 -10 37 -14
43 -18 86 -20 91 -5 4 8 19 15 34 15 16 0 30 7 34 16 8 21 8 20 -9 38 -14 14
-14 18 0 45 8 17 15 47 15 68 0 34 12 54 95 158 52 66 95 123 95 127 0 22 -24
-1 -101 -96 -47 -59 -91 -104 -99 -103 -12 2 -15 -11 -16 -59 -1 -33 -7 -70
-13 -82 -13 -25 -41 -30 -41 -7 0 8 -7 15 -15 15 -8 0 -15 5 -15 10 0 6 -6 10
-14 10 -8 0 -17 6 -19 13 -9 21 -26 -14 -33 -70 -3 -29 -10 -53 -15 -53 -19 0
-3 128 23 177 6 13 30 32 53 43 23 11 51 30 63 43 30 32 123 189 116 196 -8 8
-45 -38 -105 -131 -38 -59 -56 -78 -73 -78 -27 0 -80 -54 -94 -95 -11 -34 -13
-34 -99 2 -55 23 -63 29 -63 52 0 33 -25 70 -54 80 -60 23 -65 23 -91 -3 -22
-22 -29 -24 -48 -15 -46 24 -67 51 -67 90 0 33 6 41 58 80 78 58 75 56 67 68
-7 12 -55 -19 -116 -74 -16 -14 -34 -25 -40 -25 -7 0 -8 -6 -3 -17 10 -23 11
-82 0 -108 -6 -17 -10 -14 -26 23 -11 23 -27 45 -37 48 -40 14 -73 29 -73 35
0 12 26 40 40 42 8 2 38 15 65 31 28 15 61 34 75 41 14 8 31 23 39 34 12 18
11 21 -2 21 -9 0 -18 -4 -21 -9z m-215 -194 c-1 -12 -15 -9 -19 4 -3 6 1 10 8
8 6 -3 11 -8 11 -12z m44 -17 c3 -5 1 -10 -6 -10 -8 0 -10 -11 -6 -35 3 -21 2
-33 -4 -30 -12 8 -12 85 0 85 6 0 13 -4 16 -10z m39 -91 c4 -8 0 -5 -8 5 -9
11 -16 31 -15 45 1 24 2 24 8 -5 4 -17 11 -37 15 -45z m46 6 c0 -15 -18 -1
-28 20 -19 42 -14 53 8 17 11 -18 20 -35 20 -37z m98 6 c31 -27 27 -31 -13
-13 -19 9 -35 20 -35 24 0 14 24 8 48 -11z m108 -29 c-9 -17 -22 -34 -28 -38
-7 -5 -5 4 5 20 21 31 16 46 -8 26 -9 -7 -15 -8 -15 -2 0 10 51 33 58 27 2 -2
-4 -17 -12 -33z m54 -3 c0 -5 -4 -9 -10 -9 -5 0 -10 7 -10 16 0 8 5 12 10 9 6
-3 10 -10 10 -16z m-24 -64 c18 -15 18 -16 -11 -42 -26 -23 -30 -24 -33 -9 -5
23 6 66 16 66 5 0 17 -7 28 -15z m229 -76 c18 -18 -12 -9 -59 17 -25 14 -46
27 -46 29 0 6 94 -35 105 -46z m-308 4 c-3 -10 -5 -4 -5 12 0 17 2 24 5 18 2
-7 2 -21 0 -30z m83 4 c0 -2 -39 -39 -87 -83 -48 -44 -78 -66 -68 -50 11 16
49 53 84 83 62 51 71 57 71 50z m30 -16 c-11 -21 -30 -37 -30 -25 0 8 30 44
37 44 2 0 -1 -9 -7 -19z m299 -55 c-9 -8 -10 -7 -5 7 3 10 7 24 7 30 1 7 3 4
6 -7 3 -10 -1 -23 -8 -30z m52 -19 c-13 -13 -31 0 -24 19 4 11 8 12 20 3 9 -8
10 -16 4 -22z m-431 -40 c0 -2 -12 -14 -27 -28 l-28 -24 24 28 c23 25 31 32
31 24z m14 -41 c-6 -16 -24 -23 -24 -8 0 10 22 33 27 28 2 -2 1 -11 -3 -20z
m-132 -68 c-8 -8 -9 -4 -5 13 4 13 8 18 11 10 2 -7 -1 -18 -6 -23z m67 -43
c-25 -13 -51 -31 -58 -39 -17 -20 -35 -21 -24 -1 10 17 90 62 113 63 8 1 -6
-10 -31 -23z m65 -65 c-15 -27 -31 -50 -35 -50 -5 0 5 21 21 47 17 26 30 54
31 62 0 10 2 12 6 4 2 -7 -8 -35 -23 -63z m-24 30 c-6 -12 -14 -19 -17 -17 -2
3 1 15 7 27 6 12 14 19 17 17 2 -3 -1 -15 -7 -27z m-9 -133 c-10 -9 -11 -8 -5
6 3 10 9 15 12 12 3 -3 0 -11 -7 -18z m-111 -29 c0 -10 -4 -18 -10 -18 -5 0
-10 15 -10 33 0 24 3 28 10 17 5 -8 10 -23 10 -32z m70 24 c0 -5 -13 -21 -30
-37 -35 -33 -39 -26 -9 16 19 28 39 38 39 21z m79 -64 c-18 -33 -23 -6 -7 39
12 36 13 37 16 11 2 -15 -2 -37 -9 -50z m-124 -38 c-16 -17 -33 -30 -39 -30
-5 0 5 16 24 35 18 19 36 32 39 30 2 -3 -8 -19 -24 -35z m54 -29 c-13 -17 -30
-31 -38 -31 -10 0 -3 12 19 35 40 41 51 39 19 -4z m34 -6 c-3 -9 -8 -14 -10
-11 -3 3 -2 9 2 15 9 16 15 13 8 -4z m-52 -81 c-11 -15 -21 -23 -21 -18 0 14
31 56 37 50 3 -3 -4 -17 -16 -32z m45 -9 c-16 -38 -56 -94 -56 -78 0 5 5 14
11 20 6 6 11 17 13 24 2 18 39 80 44 75 2 -2 -4 -20 -12 -41z m-86 -32 c0 -5
-5 -15 -10 -23 -8 -12 -10 -11 -10 8 0 12 5 22 10 22 6 0 10 -3 10 -7z m-37
-33 c3 -11 1 -18 -4 -14 -5 3 -9 12 -9 20 0 20 7 17 13 -6z m-6 -137 c-3 -10
-5 -4 -5 12 0 17 2 24 5 18 2 -7 2 -21 0 -30z m73 -17 c0 -2 -8 -10 -17 -17
-16 -13 -17 -12 -4 4 13 16 21 21 21 13z m18 -35 c-6 -11 -30 -29 -52 -42 -23
-12 -56 -36 -75 -53 -26 -24 -31 -26 -22 -9 11 22 82 83 97 83 5 0 20 9 34 20
31 24 33 25 18 1z m804 -31 c28 0 -11 -12 -191 -60 -201 -53 -275 -59 -167
-13 62 26 311 83 334 77 8 -2 19 -4 24 -4z m-37 -60 c-11 -5 -27 -9 -35 -9 -9
0 -8 4 5 9 11 5 27 9 35 9 9 0 8 -4 -5 -9z m-98 -26 c-3 -3 -12 -4 -19 -1 -8
3 -5 6 6 6 11 1 17 -2 13 -5z m-717 -20 c0 -8 -5 -12 -10 -9 -6 4 -8 11 -5 16
9 14 15 11 15 -7z m677 10 c-3 -3 -12 -4 -19 -1 -8 3 -5 6 6 6 11 1 17 -2 13
-5z m-40 -10 c-3 -3 -12 -4 -19 -1 -8 3 -5 6 6 6 11 1 17 -2 13 -5z m-920 -81
c81 -79 139 -123 165 -123 10 0 18 -4 18 -10 0 -18 29 -11 40 10 6 11 8 20 5
20 -4 0 3 14 15 31 12 16 24 28 27 25 8 -8 -6 -42 -27 -66 -11 -13 -20 -30
-20 -39 0 -9 36 -53 79 -99 92 -96 83 -91 -129 68 -151 114 -266 222 -254 241
8 14 9 13 81 -58z m408 47 c-3 -5 -14 -10 -23 -9 -14 0 -13 2 3 9 27 11 27 11
20 0z m274 5 c-3 -2 -46 -20 -96 -39 -50 -19 -111 -44 -136 -55 -25 -12 -50
-21 -55 -21 -6 0 -12 -10 -16 -23 -12 -50 -57 -140 -66 -131 -14 14 49 184 69
184 17 0 152 47 211 73 31 15 100 24 89 12z m-723 -86 c9 -17 231 -198 318
-259 40 -29 45 -36 28 -38 -14 -2 -57 24 -124 74 -179 135 -308 260 -293 284
6 10 53 -31 71 -61z m294 57 c0 -7 -9 -16 -20 -19 -23 -6 -26 3 -8 21 16 16
28 15 28 -2z m193 -8 c-29 -11 -60 -18 -69 -14 -24 9 -13 16 43 26 76 12 82
10 26 -12z m203 -19 c-55 -21 -101 -37 -103 -35 -2 2 29 17 69 34 95 39 100
40 118 41 8 0 -30 -18 -84 -40z m244 1 c60 -30 81 -47 38 -31 -60 23 -131 60
-115 61 10 0 44 -14 77 -30z m-79 -4 c30 -13 75 -31 101 -40 58 -21 108 -66
103 -92 -2 -10 -4 -22 -4 -27 -2 -20 -88 -42 -341 -86 -274 -48 -300 -50 -300
-15 0 7 15 46 34 87 29 64 38 76 72 90 22 8 89 36 149 61 61 25 115 46 121 46
7 0 36 -11 65 -24z m-695 7 c-10 -10 -46 -11 -46 -1 0 4 12 8 27 8 14 0 23 -3
19 -7z m34 -24 c0 -11 -4 -18 -10 -14 -5 3 -7 12 -3 20 7 21 13 19 13 -6z
m-377 -60 c-65 -21 -131 -46 -148 -55 -39 -22 -85 -65 -85 -79 0 -7 57 -24
137 -40 75 -16 132 -30 125 -33 -23 -7 -286 29 -294 41 -21 34 31 95 117 138
62 30 244 81 258 72 5 -3 -44 -23 -110 -44z m357 31 c0 -5 -4 -10 -9 -10 -6 0
-13 5 -16 10 -3 6 1 10 9 10 9 0 16 -4 16 -10z m90 -10 c-12 -22 -30 -18 -30
6 0 8 9 14 20 14 18 0 19 -3 10 -20z m66 -39 c-31 -60 -42 -68 -19 -13 22 54
34 74 39 69 3 -3 -6 -28 -20 -56z m214 39 c-8 -5 -19 -10 -25 -10 -5 0 -3 5 5
10 8 5 20 10 25 10 6 0 3 -5 -5 -10z m-400 -175 c93 -69 92 -68 30 -62 -30 4
-93 9 -140 13 -83 6 -134 14 -334 50 l-99 18 38 32 c40 36 169 90 249 105 27
5 52 11 54 14 3 3 35 -23 71 -58 36 -35 95 -85 131 -112z m291 70 c-19 -41
-36 -73 -38 -72 -3 4 34 102 48 129 5 10 13 18 17 18 5 0 -8 -34 -27 -75z
m708 -21 c-25 -31 -173 -68 -431 -107 -119 -18 -224 -30 -234 -26 -17 7 -16 8
4 8 57 2 519 93 551 108 28 14 38 27 45 56 l10 37 33 -32 c23 -22 30 -35 22
-44z m-1185 -112 c2 -4 -12 -6 -32 -4 -56 5 -62 10 -15 11 23 1 44 -3 47 -7z
m266 -19 c73 -11 41 -15 -60 -9 -156 11 -222 26 -85 20 61 -3 126 -8 145 -11z
m177 -49 c-3 -3 -12 -4 -19 -1 -8 3 -5 6 6 6 11 1 17 -2 13 -5z"/>
<path d="M1960 1918 c0 -52 -49 -119 -134 -183 -67 -51 -90 -75 -70 -75 3 0
40 24 82 54 111 79 180 191 138 225 -14 12 -16 9 -16 -21z"/>
<path d="M1974 1697 c-57 -50 -136 -96 -223 -128 -34 -12 -64 -26 -67 -30 -27
-45 258 84 314 141 27 29 42 60 28 60 -2 0 -26 -20 -52 -43z"/>
<path d="M745 1610 c-21 -34 34 -150 71 -150 19 0 18 19 -1 27 -22 8 -45 56
-45 92 0 31 -14 49 -25 31z"/>
<path d="M790 1233 c1 -22 54 -63 82 -63 29 0 20 19 -16 34 -18 8 -37 19 -40
25 -8 12 -26 15 -26 4z"/>
</g>
</svg>
