<?xml version="1.0" standalone="no"?>
<!DOCTYPE svg PUBLIC "-//W3C//DTD SVG 20010904//EN"
 "http://www.w3.org/TR/2001/REC-SVG-20010904/DTD/svg10.dtd">
<svg version="1.0" xmlns="http://www.w3.org/2000/svg"
 width="240.000000pt" height="240.000000pt" viewBox="0 0 240.000000 240.000000"
 preserveAspectRatio="xMidYMid meet">
<metadata>
Created by potrace 1.11, written by Peter Selinger 2001-2013
</metadata>
<g transform="translate(0.000000,240.000000) scale(0.100000,-0.100000)"
fill="#000000" stroke="none">
<path d="M1227 2208 c-3 -18 -9 -58 -13 -90 l-6 -56 -103 -60 c-180 -107 -335
-211 -335 -227 0 -38 35 -24 165 64 74 50 167 107 205 126 l71 36 -7 -108 c-3
-59 -7 -131 -8 -159 l-1 -51 -82 -62 c-156 -117 -232 -229 -259 -380 -23 -132
-13 -275 26 -351 22 -43 93 -108 128 -117 22 -5 18 -10 -47 -69 -102 -94 -162
-230 -148 -336 7 -50 49 -121 93 -154 109 -84 345 -84 488 0 63 37 131 116
147 173 50 173 -37 310 -239 373 l-53 17 59 36 c108 67 165 155 184 285 14
103 -5 199 -65 324 -46 98 -125 211 -159 229 -20 11 -20 17 -13 166 7 156 11
213 18 219 2 2 17 -1 33 -6 16 -5 65 -20 109 -34 94 -29 330 -111 345 -121 11
-7 40 11 40 24 0 27 -429 179 -509 180 -23 1 -24 2 -18 70 4 45 2 72 -6 80
-20 20 -35 12 -40 -21z m65 -656 c86 -96 153 -275 153 -407 -1 -139 -62 -237
-187 -300 -60 -30 -81 -35 -140 -35 -83 0 -123 15 -165 63 -47 54 -58 97 -58
232 1 135 20 212 76 300 65 102 221 225 260 205 9 -5 36 -31 61 -58z m-80
-827 c121 -9 208 -53 259 -132 29 -46 31 -52 26 -131 -5 -88 -16 -114 -71
-165 -123 -114 -424 -129 -511 -26 -50 61 -58 188 -17 281 42 95 169 195 232
182 14 -2 51 -7 82 -9z"/>
</g>
</svg>
