<?xml version="1.0" standalone="no"?>
<!DOCTYPE svg PUBLIC "-//W3C//DTD SVG 20010904//EN"
 "http://www.w3.org/TR/2001/REC-SVG-20010904/DTD/svg10.dtd">
<svg version="1.0" xmlns="http://www.w3.org/2000/svg"
 width="60.000000pt" height="60.000000pt" viewBox="0 0 60.000000 60.000000"
 preserveAspectRatio="xMidYMid meet">
<metadata>
Created by potrace 1.11, written by Peter Selinger 2001-2013
</metadata>
<g transform="translate(0.000000,60.000000) scale(0.100000,-0.100000)"
fill="#000000" stroke="none">
<path d="M278 476 c4 -43 4 -43 -35 -49 -21 -4 -67 -7 -102 -7 -56 0 -62 -2
-51 -15 11 -13 28 -15 97 -9 45 4 83 4 83 0 0 -16 -52 -95 -65 -100 -20 -7
-19 -36 0 -36 9 0 30 -7 48 -16 l31 -17 -63 -59 c-83 -78 -74 -87 56 -59 125
27 127 26 142 -6 8 -18 15 -23 22 -16 7 7 6 20 -4 39 -18 34 -67 83 -67 66 0
-6 5 -14 11 -17 25 -16 -4 -31 -87 -41 -49 -7 -90 -11 -91 -10 -2 2 86 79 178
158 14 12 18 24 14 38 -7 22 -35 28 -35 7 0 -7 -14 -29 -30 -49 l-31 -37 -34
21 c-19 11 -35 22 -35 25 0 3 18 27 40 53 30 35 36 50 28 58 -9 9 2 12 48 13
32 1 86 4 119 8 92 11 41 25 -66 18 l-89 -6 0 45 c0 35 -3 44 -18 44 -14 0
-17 -7 -14 -44z"/>
</g>
</svg>
