<?xml version="1.0" standalone="no"?>
<!DOCTYPE svg PUBLIC "-//W3C//DTD SVG 20010904//EN"
 "http://www.w3.org/TR/2001/REC-SVG-20010904/DTD/svg10.dtd">
<svg version="1.0" xmlns="http://www.w3.org/2000/svg"
 width="1024.000000pt" height="1024.000000pt" viewBox="0 0 1024.000000 1024.000000"
 preserveAspectRatio="xMidYMid meet">
<metadata>
Created by potrace 1.10, written by Peter Selinger 2001-2011
</metadata>
<g transform="translate(0.000000,1024.000000) scale(0.100000,-0.100000)"
fill="#000000" stroke="none">
<path d="M3995 8768 c-239 -12 -250 -14 -292 -51 -54 -47 -82 -134 -51 -153 7
-4 136 -18 288 -30 242 -20 318 -22 635 -17 329 5 416 2 1010 -31 358 -20 752
-42 876 -48 l226 -12 46 34 c76 54 74 134 -5 159 -18 5 -112 15 -208 21 -372
22 -2209 130 -2280 133 -41 3 -151 0 -245 -5z"/>
<path d="M7659 7796 c-3 -3 -1125 -87 -2495 -186 -1369 -100 -2507 -186 -2529
-192 -25 -6 -55 -25 -79 -51 -33 -35 -37 -45 -33 -75 7 -40 22 -54 97 -89 67
-32 171 -36 270 -11 79 20 457 45 471 31 17 -17 97 -424 108 -553 20 -218 89
-497 159 -640 53 -110 169 -224 283 -278 119 -57 181 -69 556 -111 183 -21
335 -39 337 -42 6 -6 89 -889 85 -894 -16 -15 -266 -29 -529 -29 -305 0 -305
0 -475 33 -192 38 -254 64 -342 145 -62 57 -94 107 -133 212 -35 94 -52 119
-92 140 -37 19 -87 9 -133 -28 -27 -21 -27 -24 -22 -92 21 -253 222 -477 507
-564 19 -6 258 -30 530 -53 455 -39 503 -41 599 -31 58 7 106 10 109 8 9 -10
63 -1105 67 -1360 2 -148 9 -301 15 -340 7 -47 7 -96 1 -144 -7 -58 -6 -85 5
-124 9 -27 13 -52 10 -55 -3 -3 -258 2 -568 11 l-563 16 -47 47 c-27 26 -48
52 -48 58 0 17 -59 83 -80 90 -17 5 -20 17 -22 93 l-3 87 -85 17 c-47 9 -100
19 -119 22 l-34 5 6 -197 c3 -108 13 -253 22 -322 25 -187 74 -429 96 -469 10
-20 71 -171 135 -336 133 -345 157 -396 227 -490 60 -81 111 -118 216 -162
193 -80 418 -123 640 -123 206 0 859 91 1043 146 292 86 556 262 734 490 113
145 147 213 213 431 l60 198 71 565 c38 311 73 574 76 586 5 18 -5 25 -97 57
-57 21 -106 34 -110 30 -3 -5 -21 -82 -38 -173 l-31 -164 -48 -49 c-113 -116
-250 -196 -457 -267 -219 -75 -332 -98 -700 -145 -110 -14 -210 -28 -221 -30
-21 -5 -21 -4 -7 63 15 71 11 143 -13 222 -8 25 -14 77 -14 115 0 39 -6 106
-14 150 -15 83 -103 1481 -94 1490 2 3 332 95 733 204 607 167 743 207 819
244 99 49 202 118 283 191 66 60 310 368 335 425 39 85 23 160 -44 214 l-36
29 -44 -30 c-30 -21 -60 -57 -97 -118 -93 -153 -186 -264 -305 -363 -159 -133
-180 -144 -454 -226 -226 -68 -1173 -325 -1197 -325 -9 0 -81 858 -72 866 1 2
62 10 134 18 733 86 1323 478 1614 1074 82 168 134 341 175 578 19 115 38 212
42 215 4 3 183 29 397 58 l390 52 28 32 c41 47 32 113 -21 152 -26 19 -139 35
-153 21z m-879 -334 c0 -25 -113 -488 -134 -550 -77 -224 -198 -416 -370 -587
-135 -135 -248 -215 -421 -301 -108 -53 -116 -55 -355 -98 l-245 -45 -470 -12
c-546 -14 -563 -12 -725 67 -72 36 -110 63 -160 113 l-66 66 -113 563 c-62
310 -111 566 -108 568 3 3 672 52 1488 109 816 57 1507 106 1534 108 99 7 145
7 145 -1z m-140 -5079 c-32 -315 -47 -406 -84 -518 -64 -190 -103 -255 -240
-393 -79 -81 -142 -135 -181 -157 -198 -111 -559 -227 -860 -276 -180 -29
-609 -38 -808 -15 -197 22 -256 52 -330 168 -165 258 -311 605 -392 931 -19
79 -35 147 -35 151 0 4 13 -2 28 -13 15 -10 57 -30 92 -43 64 -23 73 -23 512
-26 l448 -3 657 86 c687 89 769 104 929 170 84 35 203 98 254 135 14 10 26 17
28 15 2 -2 -6 -97 -18 -212z"/>
</g>
</svg>
