<?xml version="1.0" standalone="no"?>
<!DOCTYPE svg PUBLIC "-//W3C//DTD SVG 20010904//EN"
 "http://www.w3.org/TR/2001/REC-SVG-20010904/DTD/svg10.dtd">
<svg version="1.0" xmlns="http://www.w3.org/2000/svg"
 width="1024.000000pt" height="1024.000000pt" viewBox="0 0 1024.000000 1024.000000"
 preserveAspectRatio="xMidYMid meet">
<metadata>
Created by potrace 1.10, written by Peter Selinger 2001-2011
</metadata>
<g transform="translate(0.000000,1024.000000) scale(0.100000,-0.100000)"
fill="#000000" stroke="none">
<path d="M3565 9735 c-17 -7 -38 -28 -49 -48 -17 -34 -18 -92 -15 -1606 l4
-1571 -45 0 c-25 0 -398 -11 -830 -25 -432 -13 -1032 -31 -1335 -40 -323 -10
-562 -21 -578 -27 -31 -12 -67 -72 -67 -112 0 -28 22 -53 58 -67 16 -6 498 -2
1336 11 1121 18 1318 23 1361 36 42 13 71 14 190 6 77 -5 143 -8 148 -5 4 2 7
17 7 32 0 16 9 50 21 76 23 52 20 96 -8 127 -15 17 -19 135 -40 1331 -19 1091
-21 1339 -11 1472 19 244 12 293 -49 365 -46 54 -62 61 -98 45z"/>
<path d="M7090 9004 c-190 -40 -311 -112 -486 -288 -104 -104 -127 -133 -162
-206 -59 -120 -76 -194 -76 -325 0 -128 12 -181 87 -370 45 -116 56 -136 106
-185 56 -56 106 -80 167 -80 22 0 42 -15 89 -64 87 -91 228 -155 344 -156 30
0 33 -2 27 -22 -6 -23 8 -74 45 -173 22 -57 23 -106 12 -497 l-6 -246 -41 -6
c-23 -4 -46 -10 -51 -14 -29 -20 -65 -77 -65 -101 0 -21 -60 -98 -265 -340
-146 -173 -316 -368 -378 -435 -62 -67 -146 -159 -187 -206 -41 -47 -78 -87
-81 -90 -15 -13 -265 -319 -343 -420 -49 -63 -120 -147 -158 -186 -62 -65 -68
-76 -68 -114 0 -67 43 -130 90 -130 41 0 79 35 232 210 1323 1526 1303 1503
1306 1473 2 -15 -18 -460 -43 -988 -25 -528 -59 -1250 -76 -1605 l-30 -645
-43 -45 c-24 -25 -117 -133 -206 -240 -332 -396 -615 -711 -921 -1025 -79 -82
-151 -167 -192 -228 -74 -112 -57 -101 -472 -329 -262 -145 -274 -153 -291
-194 -19 -45 -5 -102 36 -147 l28 -32 49 24 c117 56 523 289 577 330 44 33 70
46 98 47 48 2 62 14 92 78 17 36 185 232 577 671 304 341 599 673 657 738
l105 118 26 -23 c14 -13 331 -322 706 -687 374 -366 706 -690 738 -720 32 -31
94 -97 137 -148 44 -51 99 -105 123 -122 60 -41 147 -65 208 -57 92 12 584
125 615 142 52 27 68 90 40 158 -16 39 -60 60 -113 54 -21 -3 -156 -31 -301
-63 l-263 -58 -52 50 c-29 27 -358 342 -732 699 -374 357 -750 716 -835 797
l-155 149 3 416 c3 431 11 654 37 1022 16 223 105 1832 105 1891 0 32 34 0
648 -612 598 -597 651 -647 694 -659 35 -9 54 -9 81 -1 46 15 79 52 75 84 -4
35 -502 579 -784 858 -229 226 -285 279 -465 442 -72 65 -98 95 -103 119 -9
46 -52 87 -99 95 -35 5 -38 8 -33 32 12 63 17 539 7 606 -14 88 -46 203 -77
278 -13 32 -24 60 -24 62 0 1 37 8 83 14 321 46 534 186 690 456 48 83 94 218
108 320 29 208 -53 437 -224 621 -115 123 -256 201 -417 230 -102 18 -443 17
-530 -2z m439 -234 c144 -17 174 -24 235 -54 182 -87 280 -251 280 -466 0
-128 -25 -209 -101 -320 -69 -101 -161 -176 -298 -244 -164 -81 -322 -113
-510 -104 l-104 6 -73 60 c-41 33 -90 68 -110 78 -92 48 -119 66 -125 82 -9
24 -62 102 -89 132 -22 24 -24 34 -26 170 -3 203 23 285 137 427 91 115 235
206 365 232 30 6 64 13 75 15 51 10 194 4 344 -14z"/>
<path d="M3650 5653 c-214 -113 -378 -192 -455 -220 -141 -52 -178 -82 -189
-156 -9 -56 12 -112 48 -129 15 -6 26 -19 26 -28 0 -10 124 -140 276 -290
l277 -272 106 7 c58 4 107 9 109 10 2 2 -1 19 -6 38 -7 24 -71 103 -212 259
l-203 223 94 7 c52 3 443 11 869 17 426 6 839 14 917 17 l141 6 -20 35 c-30
50 -20 113 24 152 18 16 31 31 28 34 -3 2 -419 -9 -925 -24 -506 -16 -942 -28
-970 -26 l-50 2 253 138 c138 76 252 143 252 148 0 5 -9 32 -21 61 -11 29 -24
79 -27 110 l-7 58 -335 -177z"/>
<path d="M1498 4090 l-828 -5 -26 -26 c-18 -18 -28 -41 -31 -72 -5 -41 -2 -49
23 -75 l29 -29 1434 -6 c789 -4 1436 -8 1437 -10 2 -2 -3 -678 -11 -1503 -20
-2116 -20 -2105 -1 -2146 9 -19 29 -42 45 -51 30 -18 97 -23 119 -9 9 6 20
116 40 403 l27 394 0 1495 c0 1403 1 1497 18 1532 9 21 17 42 17 47 0 5 -58
23 -128 40 l-128 31 -604 -2 c-333 -2 -977 -5 -1432 -8z"/>
<path d="M6473 3663 c31 -2 83 -2 115 0 31 2 5 3 -58 3 -63 0 -89 -1 -57 -3z"/>
</g>
</svg>
