<?xml version="1.0" standalone="no"?>
<!DOCTYPE svg PUBLIC "-//W3C//DTD SVG 20010904//EN"
 "http://www.w3.org/TR/2001/REC-SVG-20010904/DTD/svg10.dtd">
<svg version="1.0" xmlns="http://www.w3.org/2000/svg"
 width="1024.000000pt" height="1024.000000pt" viewBox="0 0 1024.000000 1024.000000"
 preserveAspectRatio="xMidYMid meet">
<metadata>
Created by potrace 1.10, written by Peter Selinger 2001-2011
</metadata>
<g transform="translate(0.000000,1024.000000) scale(0.100000,-0.100000)"
fill="#000000" stroke="none">
<path d="M5845 9639 c-49 -23 -92 -42 -93 -44 -2 -2 14 -30 36 -62 102 -150
105 -181 25 -265 -166 -174 -827 -620 -1328 -895 -470 -259 -1124 -553 -1630
-734 -66 -23 -124 -46 -128 -50 -5 -4 11 -18 35 -32 l43 -25 340 68 c342 69
471 104 835 227 394 132 908 329 1179 450 299 133 778 379 1126 576 88 50 246
130 350 178 171 78 190 90 187 110 -4 32 -44 81 -112 138 -55 46 -420 270
-527 324 -71 36 -190 77 -221 76 -15 0 -67 -18 -117 -40z"/>
<path d="M6501 7445 c-69 -34 -91 -48 -83 -58 162 -206 162 -247 -2 -464 -304
-402 -1152 -1210 -1856 -1769 -585 -464 -1338 -958 -2034 -1335 l-199 -108 34
-21 c47 -30 112 -22 274 30 513 167 956 371 1605 737 167 95 487 286 582 349
l38 24 26 -42 c45 -71 75 -149 95 -243 18 -84 19 -150 19 -1030 0 -1097 -12
-1431 -65 -1851 -28 -221 -75 -699 -75 -764 0 -97 24 -193 74 -294 67 -137
120 -195 275 -303 119 -82 139 -93 178 -93 89 0 162 55 200 151 17 41 18 165
23 2129 l6 2085 27 168 c32 201 33 217 7 267 -22 43 -102 126 -167 173 -24 17
-43 33 -43 37 0 3 30 28 67 56 292 213 945 756 1423 1183 63 56 192 163 285
236 94 74 197 161 229 194 58 58 59 60 46 90 -24 60 -142 151 -288 225 -38 19
-111 62 -163 96 -145 95 -325 180 -390 185 -48 4 -64 0 -148 -40z"/>
</g>
</svg>
