<?xml version="1.0" standalone="no"?>
<!DOCTYPE svg PUBLIC "-//W3C//DTD SVG 20010904//EN"
 "http://www.w3.org/TR/2001/REC-SVG-20010904/DTD/svg10.dtd">
<svg version="1.0" xmlns="http://www.w3.org/2000/svg"
 width="1024.000000pt" height="1024.000000pt" viewBox="0 0 1024.000000 1024.000000"
 preserveAspectRatio="xMidYMid meet">
<metadata>
Created by potrace 1.10, written by Peter Selinger 2001-2011
</metadata>
<g transform="translate(0.000000,1024.000000) scale(0.100000,-0.100000)"
fill="#000000" stroke="none">
<path d="M6280 9936 c-27 -8 -40 -22 -58 -57 -51 -103 -51 -107 -72 -1327 -13
-740 -24 -1174 -32 -1230 -6 -48 -12 -170 -12 -272 -1 -176 0 -187 22 -221 16
-26 32 -39 55 -43 22 -4 63 -35 132 -100 99 -92 104 -95 685 -422 547 -308
625 -349 1195 -621 527 -252 683 -322 1145 -509 600 -244 625 -251 681 -198
30 29 45 78 35 112 -10 31 -436 218 -841 369 -110 40 -218 81 -240 89 -22 8
-105 50 -185 94 -80 43 -174 90 -210 105 -106 44 -425 198 -565 273 -71 37
-418 223 -769 412 -526 282 -662 359 -765 435 l-126 92 3 234 c2 129 12 725
22 1324 16 921 21 1098 34 1140 9 28 16 79 16 116 0 78 -33 153 -83 192 -29
22 -36 23 -67 13z"/>
<path d="M4252 9896 c-12 -16 -24 -61 -35 -128 -23 -152 -26 -183 -28 -298 -1
-58 -23 -699 -50 -1424 -27 -726 -46 -1329 -43 -1341 11 -46 -120 -151 -599
-478 -1013 -695 -1135 -767 -2204 -1310 -485 -247 -607 -305 -730 -347 -229
-78 -234 -81 -279 -122 -24 -22 -51 -59 -60 -84 -16 -41 -16 -48 -1 -78 18
-38 43 -46 142 -46 77 0 137 21 285 98 63 33 399 206 745 385 897 462 1037
542 1790 1015 614 385 729 465 933 647 129 116 158 161 198 313 l33 127 21
820 c35 1389 49 1772 65 1900 18 131 14 185 -17 257 -24 57 -88 118 -122 118
-14 0 -33 -11 -44 -24z"/>
<path d="M5067 8367 c-51 -28 -73 -52 -189 -206 -174 -232 -187 -263 -148
-349 14 -31 29 -47 56 -58 35 -15 37 -14 82 15 53 34 97 78 134 134 21 31 27
35 32 21 4 -9 3 -290 0 -623 -5 -455 -4 -615 5 -642 18 -57 61 -91 121 -97 90
-8 84 -59 90 728 l5 685 38 -52 c21 -29 47 -55 58 -58 33 -11 86 4 119 31 43
36 40 75 -14 182 -23 48 -51 110 -62 137 -27 72 -106 149 -174 169 -73 22 -86
20 -153 -17z"/>
<path d="M5230 5954 c-202 -53 -347 -203 -389 -402 -26 -126 -8 -309 41 -406
35 -70 97 -146 113 -140 8 4 47 -13 85 -35 l70 -42 0 -95 0 -95 -34 -33 c-19
-18 -38 -45 -42 -62 -8 -32 -12 -36 -104 -98 -82 -55 -202 -115 -300 -151 -68
-25 -111 -30 -475 -61 -220 -18 -431 -34 -470 -34 -107 0 -156 -18 -184 -67
-8 -14 -13 -13 -47 14 -73 57 -188 103 -259 103 -34 0 -51 -8 -100 -48 -91
-73 -87 -97 32 -174 l52 -35 -65 -48 c-67 -49 -71 -57 -50 -107 6 -12 0 -18
-25 -23 -21 -5 -57 -30 -96 -68 -58 -55 -63 -64 -63 -102 l0 -42 83 -7 c181
-15 197 -18 197 -36 0 -42 40 -52 280 -76 64 -6 114 25 170 107 l45 66 104 7
c57 3 154 6 215 6 63 0 163 9 231 20 65 10 121 18 122 16 2 -1 -21 -13 -50
-27 -28 -13 -287 -183 -575 -377 -559 -378 -667 -444 -1002 -612 -411 -206
-527 -251 -1270 -500 -653 -219 -660 -222 -660 -290 0 -74 44 -130 103 -130
26 0 261 77 671 219 754 262 946 339 1316 527 280 141 379 201 884 533 269
177 490 320 493 318 2 -3 -28 -660 -67 -1461 -38 -801 -67 -1469 -64 -1484 18
-74 61 -112 127 -112 19 0 45 9 59 20 25 19 25 22 32 217 3 109 9 248 13 310
l6 111 60 -44 c74 -53 147 -82 247 -96 178 -26 423 76 559 233 74 86 142 237
156 349 4 25 13 64 22 88 8 23 28 95 43 160 46 190 63 252 70 252 9 0 30 -95
30 -135 0 -77 129 -637 183 -795 20 -58 41 -124 47 -148 14 -53 61 -109 102
-117 23 -5 45 0 87 19 31 15 145 48 254 75 l199 48 -7 -26 c-25 -98 -29 -154
-28 -336 2 -268 7 -298 47 -342 27 -30 41 -36 82 -40 76 -6 90 12 103 130 12
110 13 247 2 357 -4 41 -3 93 1 115 31 137 19 193 -51 243 l-38 27 5 62 c4 51
1 68 -16 97 -20 34 -20 36 -3 36 34 0 55 37 59 103 3 48 -95 1916 -111 2118
l-4 46 151 -70 c199 -92 521 -221 726 -291 261 -90 2239 -687 2296 -693 83 -9
131 28 147 112 3 17 0 37 -6 46 -24 32 -460 157 -817 234 -135 29 -960 293
-1285 410 -251 91 -532 202 -740 293 -88 38 -189 82 -225 97 -36 15 -138 58
-226 96 -89 38 -172 69 -186 69 -14 0 -37 -13 -56 -33 -27 -27 -32 -41 -32
-79 0 -29 7 -54 19 -69 16 -21 19 -51 24 -279 6 -253 19 -399 57 -660 16 -108
23 -254 36 -730 12 -456 19 -603 30 -628 l14 -34 -28 6 c-15 3 -56 8 -92 11
-103 10 -114 13 -137 49 -21 33 -22 40 -28 612 -6 570 -9 622 -41 668 -11 16
-9 27 16 76 24 48 31 78 42 200 13 128 12 179 -4 455 l-18 310 25 68 c14 38
25 90 25 116 0 64 -25 143 -56 181 -23 26 -24 30 -7 30 10 -1 186 -25 391 -54
l374 -52 116 -122 c94 -98 129 -127 177 -149 71 -33 167 -37 228 -10 33 14 37
20 37 51 0 24 8 43 25 60 13 14 27 42 31 64 l6 38 76 13 c91 15 123 32 115 61
-7 28 -111 119 -170 150 -26 14 -50 26 -52 27 -2 1 17 25 42 53 91 101 88 204
-8 249 -72 35 -83 33 -226 -36 l-96 -46 -729 205 -729 204 0 95 c1 108 5 118
97 216 104 110 140 225 120 383 -9 74 -18 104 -48 158 -52 92 -155 194 -236
232 -122 57 -298 76 -418 44z m368 -340 l84 -6 19 -41 c37 -82 19 -188 -43
-262 -14 -16 -35 -50 -48 -75 -12 -25 -36 -60 -51 -78 -36 -41 -52 -79 -73
-170 -23 -101 -20 -151 11 -223 l27 -62 135 -64 c132 -63 155 -70 776 -234
352 -93 646 -172 654 -174 9 -4 6 -11 -13 -26 -19 -15 -26 -30 -26 -54 0 -26
-7 -39 -29 -55 l-30 -21 6 35 c8 48 -33 89 -102 104 -28 6 -315 70 -640 142
-324 71 -603 130 -619 130 -20 0 -39 -11 -62 -36 -28 -29 -34 -43 -34 -79 0
-33 5 -46 23 -57 12 -8 113 -47 225 -88 l203 -73 -36 -37 -35 -36 0 -111 c0
-64 -6 -139 -15 -177 -14 -59 -14 -78 1 -188 19 -142 15 -493 -7 -639 -9 -67
-10 -102 -1 -155 9 -57 9 -71 -3 -84 -12 -14 -12 -69 0 -420 8 -223 17 -511
19 -640 2 -129 6 -253 10 -275 3 -22 -30 113 -74 300 -51 218 -85 387 -94 470
-8 72 -20 146 -27 165 -30 86 -106 168 -166 180 -21 5 -53 14 -71 21 -23 10
-37 11 -49 3 -11 -7 -49 -144 -122 -444 -130 -526 -138 -555 -204 -684 -87
-170 -151 -246 -207 -246 -17 0 -13 14 35 132 30 72 59 159 65 192 40 232 94
465 165 721 64 230 66 244 45 290 -10 22 -26 52 -36 66 -16 25 -16 27 12 69
23 35 28 53 26 89 -19 332 -5 975 28 1239 17 134 22 156 42 172 13 11 26 19
29 20 12 0 49 79 49 103 0 43 -38 71 -110 81 -41 6 -74 -5 -381 -123 l-336
-129 -404 -41 c-222 -22 -432 -42 -467 -44 -76 -4 -113 -28 -126 -80 -9 -33
-13 -37 -42 -37 -26 0 -35 6 -48 31 -15 30 -15 33 9 61 14 16 25 39 25 51 0
32 10 42 60 61 37 13 135 20 545 35 l500 18 104 37 c132 47 241 101 358 179
76 50 105 76 158 146 36 47 82 107 103 134 34 41 41 62 62 162 32 161 17 230
-69 308 -46 42 -54 43 -96 21 -30 -15 -30 -15 -63 22 -18 21 -45 63 -60 93
-25 52 -27 66 -27 176 0 120 0 121 34 173 l34 53 191 -6 c105 -3 229 -8 274
-11z m-581 -1806 c-4 -101 -12 -379 -18 -618 -10 -405 -12 -438 -32 -485 -28
-68 -29 -174 -1 -234 l20 -45 -67 -305 c-36 -168 -92 -410 -124 -537 l-57
-231 -37 8 c-102 24 -193 3 -262 -59 l-51 -45 6 44 c3 24 8 100 11 169 3 69
12 204 20 300 27 326 36 534 45 1025 8 446 11 500 31 605 40 204 29 279 -52
365 l-48 51 87 18 c111 23 369 98 447 130 95 39 89 51 82 -156z m1003 -2712
c0 -9 -28 -7 -33 2 -2 4 -7 20 -11 36 l-7 29 25 -31 c15 -16 26 -33 26 -36z
m189 24 c45 0 10 -14 -50 -20 -59 -6 -60 -6 -37 12 13 10 32 16 43 13 11 -3
31 -5 44 -5z"/>
<path d="M10105 1451 l-30 -8 28 -11 c42 -18 69 -15 65 5 -4 20 -21 24 -63 14z"/>
</g>
</svg>
