<?xml version="1.0" standalone="no"?>
<!DOCTYPE svg PUBLIC "-//W3C//DTD SVG 20010904//EN"
 "http://www.w3.org/TR/2001/REC-SVG-20010904/DTD/svg10.dtd">
<svg version="1.0" xmlns="http://www.w3.org/2000/svg"
 width="1024.000000pt" height="1024.000000pt" viewBox="0 0 1024.000000 1024.000000"
 preserveAspectRatio="xMidYMid meet">
<metadata>
Created by potrace 1.10, written by Peter Selinger 2001-2011
</metadata>
<g transform="translate(0.000000,1024.000000) scale(0.100000,-0.100000)"
fill="#000000" stroke="none">
<path d="M2703 8594 l-21 -19 55 -191 c64 -223 64 -218 -19 -358 -42 -69 -129
-172 -414 -485 l-362 -397 -272 -212 c-163 -127 -264 -212 -252 -212 29 0 327
93 392 122 98 44 311 167 456 263 114 76 223 166 585 486 433 383 519 468 519
516 0 62 -81 162 -223 276 -228 182 -388 258 -444 211z"/>
<path d="M7885 7869 l-350 -109 -345 -51 c-264 -39 -350 -55 -368 -69 -23 -19
-23 -19 -3 -39 34 -34 313 -159 416 -185 32 -9 82 -16 110 -16 72 0 1112 194
1218 227 l89 27 29 58 29 57 -68 47 c-37 26 -81 57 -97 70 -23 16 -292 98
-308 93 -1 0 -159 -50 -352 -110z"/>
<path d="M2800 7070 c-12 -8 -6 -37 39 -194 48 -166 53 -192 48 -248 -12 -123
-88 -309 -244 -596 -328 -603 -453 -807 -710 -1153 -183 -247 -223 -293 -415
-480 -100 -98 -168 -172 -166 -180 9 -26 83 -14 160 24 103 51 266 161 383
260 123 104 449 435 530 540 l60 77 17 -41 c67 -154 71 -238 65 -1219 -5 -832
-11 -993 -43 -1305 -40 -394 -62 -701 -53 -770 11 -89 42 -192 81 -270 36 -71
120 -198 157 -238 82 -90 164 -63 208 66 16 48 18 169 24 1767 4 1179 9 1780
18 1923 16 261 12 275 -107 415 l-53 63 167 277 c106 175 216 341 300 453 72
96 139 190 149 209 10 19 20 62 23 96 4 54 1 68 -24 115 -59 109 -276 301
-432 381 -75 39 -147 50 -182 28z"/>
<path d="M7851 6385 l-1045 -213 -200 14 c-111 7 -222 16 -248 18 -58 6 -59 4
-22 -109 21 -67 33 -87 72 -123 26 -24 90 -64 142 -90 52 -25 115 -58 139 -74
24 -15 68 -33 97 -39 53 -12 54 -12 153 34 111 53 262 97 542 158 l190 42 34
-33 c68 -66 114 -188 135 -362 8 -67 10 -576 8 -1808 -3 -1648 -4 -1717 -22
-1758 -10 -23 -30 -51 -44 -62 -39 -31 -122 -27 -228 11 -91 33 -389 178 -473
229 -57 36 -70 37 -105 9 -46 -36 -60 -15 227 -323 187 -201 311 -348 383
-458 70 -106 115 -149 173 -167 72 -21 94 -15 225 64 108 65 129 83 162 132
49 74 81 169 94 279 6 57 10 712 10 1846 0 1877 3 1992 50 2232 11 54 20 111
20 126 0 34 -61 92 -131 125 l-49 22 73 7 c830 76 1017 95 1033 104 39 21 66
61 71 104 4 43 4 44 -79 125 l-83 81 -116 36 c-63 20 -122 36 -130 35 -8 0
-484 -97 -1058 -214z"/>
</g>
</svg>
