<?xml version="1.0" standalone="no"?>
<!DOCTYPE svg PUBLIC "-//W3C//DTD SVG 20010904//EN"
 "http://www.w3.org/TR/2001/REC-SVG-20010904/DTD/svg10.dtd">
<svg version="1.0" xmlns="http://www.w3.org/2000/svg"
 width="1024.000000pt" height="1024.000000pt" viewBox="0 0 1024.000000 1024.000000"
 preserveAspectRatio="xMidYMid meet">
<metadata>
Created by potrace 1.10, written by Peter Selinger 2001-2011
</metadata>
<g transform="translate(0.000000,1024.000000) scale(0.100000,-0.100000)"
fill="#000000" stroke="none">
<path d="M6155 9741 c-37 -16 -55 -48 -76 -132 l-21 -85 46 -1089 c70 -1640
69 -1635 63 -1642 -4 -3 -683 -21 -1509 -39 -827 -18 -1518 -36 -1537 -39 -78
-14 -110 -106 -52 -152 52 -41 301 -45 1806 -29 1163 12 1353 12 1377 0 15 -8
51 -14 80 -14 53 1 53 1 95 59 71 97 74 120 23 176 l-28 30 -27 705 c-91 2393
-74 2153 -155 2223 -46 39 -52 41 -85 28z"/>
<path d="M4520 4269 c-1239 -14 -1279 -15 -1300 -34 -27 -24 -43 -80 -35 -121
12 -64 41 -70 415 -82 273 -9 507 -7 1474 14 632 13 1150 23 1151 22 1 -2 12
-743 24 -1648 30 -2299 30 -2269 47 -2302 29 -55 123 -78 159 -38 16 18 22 64
41 323 l23 302 -35 1415 c-41 1700 -41 1688 -30 1821 11 133 -4 186 -72 259
l-47 50 -513 15 c-282 8 -543 14 -580 13 -37 -1 -362 -5 -722 -9z"/>
</g>
</svg>
