<?xml version="1.0" standalone="no"?>
<!DOCTYPE svg PUBLIC "-//W3C//DTD SVG 20010904//EN"
 "http://www.w3.org/TR/2001/REC-SVG-20010904/DTD/svg10.dtd">
<svg version="1.0" xmlns="http://www.w3.org/2000/svg"
 width="1024.000000pt" height="1024.000000pt" viewBox="0 0 1024.000000 1024.000000"
 preserveAspectRatio="xMidYMid meet">
<metadata>
Created by potrace 1.10, written by Peter Selinger 2001-2011
</metadata>
<g transform="translate(0.000000,1024.000000) scale(0.100000,-0.100000)"
fill="#000000" stroke="none">
<path d="M6808 9823 c-37 -43 -40 -262 -23 -1823 9 -817 18 -1500 21 -1518 7
-45 36 -72 78 -72 21 0 91 -27 187 -73 85 -40 172 -81 194 -90 22 -9 525 -226
1118 -482 1109 -479 1371 -600 1588 -736 131 -82 146 -87 232 -73 34 6 37 9
37 38 0 29 -11 38 -138 122 -133 88 -175 107 -1337 624 -660 293 -1297 577
-1415 630 -118 53 -253 112 -300 130 -47 18 -89 36 -93 40 -9 8 -42 2141 -41
2640 0 190 6 389 12 442 12 111 6 148 -35 190 -31 32 -63 36 -85 11z"/>
<path d="M4754 9703 c-15 -24 -18 -51 -18 -183 -1 -85 5 -245 12 -355 16 -243
14 -340 -26 -1430 -17 -473 -33 -923 -34 -999 l-3 -140 -45 -26 c-92 -54
-4487 -3349 -4543 -3406 -48 -49 -57 -63 -51 -84 7 -32 20 -40 67 -40 52 0 89
19 167 86 36 30 1048 791 2250 1690 2223 1663 2199 1645 2287 1769 21 31 22
46 52 1066 28 978 29 1054 17 1397 -8 219 -10 404 -5 467 6 68 5 115 -2 132
-15 40 -59 83 -85 83 -13 0 -29 -11 -40 -27z"/>
<path d="M6585 4320 c-35 -13 -48 -37 -41 -77 3 -21 17 -558 30 -1193 l24
-1155 86 -730 c47 -401 90 -746 96 -766 16 -57 50 -59 108 -6 27 25 27 45 2
162 -15 74 -34 407 -106 1833 -48 958 -85 1744 -82 1747 2 3 607 -199 1344
-449 736 -250 1415 -477 1509 -506 182 -55 306 -99 452 -161 112 -47 150 -49
191 -10 45 41 34 65 -47 105 -100 50 -282 120 -416 161 -66 20 -149 47 -185
60 -36 14 -225 70 -420 125 -195 55 -380 111 -410 124 -30 13 -449 161 -930
329 -481 168 -945 330 -1030 360 -106 37 -161 52 -175 47z"/>
<path d="M4571 4154 c-57 -36 -129 -84 -160 -108 -110 -84 -360 -244 -562
-359 -112 -64 -987 -572 -1944 -1130 -1579 -920 -1742 -1018 -1762 -1052 -22
-39 -21 -57 5 -87 22 -27 53 -22 144 20 140 65 737 419 1043 617 201 131 688
419 1585 938 1253 726 1413 821 1605 954 49 34 90 61 91 60 0 -1 -18 -268 -42
-593 l-42 -592 -15 -1183 c-13 -1132 -13 -1186 4 -1220 11 -22 30 -41 49 -49
28 -12 34 -11 51 6 18 18 21 93 69 1714 27 932 54 1747 60 1810 7 73 7 135 1
170 -5 30 -7 60 -4 66 7 19 -15 52 -45 68 -27 14 -32 12 -131 -50z"/>
<path d="M10198 1213 c-28 -4 -40 -23 -15 -23 6 0 22 -3 35 -6 18 -5 22 -2 22
15 0 11 -3 20 -7 20 -5 -1 -20 -4 -35 -6z"/>
</g>
</svg>
