<?xml version="1.0" standalone="no"?>
<!DOCTYPE svg PUBLIC "-//W3C//DTD SVG 20010904//EN"
 "http://www.w3.org/TR/2001/REC-SVG-20010904/DTD/svg10.dtd">
<svg version="1.0" xmlns="http://www.w3.org/2000/svg"
 width="1024.000000pt" height="1024.000000pt" viewBox="0 0 1024.000000 1024.000000"
 preserveAspectRatio="xMidYMid meet">
<metadata>
Created by potrace 1.10, written by Peter Selinger 2001-2011
</metadata>
<g transform="translate(0.000000,1024.000000) scale(0.100000,-0.100000)"
fill="#000000" stroke="none">
<path d="M6026 7210 c-206 -68 -512 -228 -759 -396 -95 -65 -113 -74 -153 -74
-40 0 -52 6 -94 43 -109 95 -340 217 -449 236 -25 5 -154 17 -286 27 l-240 18
-110 -28 c-284 -71 -789 -316 -1098 -533 -43 -30 -329 -246 -635 -480 -306
-234 -604 -457 -662 -496 -115 -76 -322 -180 -442 -222 -100 -35 -133 -69
-133 -133 0 -61 35 -132 77 -157 23 -14 54 -20 103 -21 100 -3 220 -46 321
-115 52 -35 312 -306 735 -766 126 -136 271 -256 759 -629 294 -224 580 -437
635 -472 119 -76 382 -207 515 -255 155 -57 322 -105 447 -128 148 -27 494
-37 641 -19 353 43 1034 254 1597 495 99 42 439 207 755 367 440 222 608 312
715 383 235 156 384 285 638 549 188 196 280 276 441 384 110 73 140 109 132
160 -6 40 -42 92 -64 92 -8 0 -36 22 -61 48 -33 35 -100 79 -241 160 -331 188
-447 283 -1164 949 -341 317 -628 587 -636 599 -8 13 -44 47 -80 77 -273 228
-614 361 -950 372 l-135 4 -119 -39z m539 -240 c91 -24 240 -92 312 -141 190
-131 601 -492 974 -856 249 -243 362 -344 555 -494 160 -126 314 -252 311
-255 -1 -1 -92 8 -202 21 -169 19 -319 49 -981 194 -430 93 -826 183 -881 200
-233 69 -491 110 -733 117 l-175 6 -165 -72 c-91 -39 -174 -80 -185 -90 -34
-30 -176 -45 -435 -45 -155 0 -259 5 -305 13 -105 21 -289 70 -358 96 -42 17
-109 29 -210 40 l-147 16 -1117 -185 c-615 -102 -1121 -184 -1127 -182 -7 2
1532 1133 1604 1178 72 45 212 113 312 153 139 54 261 88 460 126 294 57 458
32 657 -101 l75 -50 342 10 342 9 76 61 c147 116 330 204 491 235 44 8 89 17
100 20 11 3 90 3 175 1 119 -2 173 -8 235 -25z m-558 -1512 c-5 -42 -17 -84
-28 -100 -11 -14 -19 -37 -19 -51 0 -29 23 -23 -273 -68 l-217 -33 -21 20
c-18 19 -19 27 -12 78 l8 58 180 83 180 83 106 1 105 1 -9 -72z m-1741 -20
l132 -41 -6 -41 c-7 -55 -24 -87 -67 -125 l-36 -31 -161 0 -161 0 9 58 c5 31
9 96 8 145 l0 87 75 -5 c46 -4 127 -22 207 -47z m2265 -26 l216 -57 -15 -31
c-17 -37 -18 -37 -218 -55 l-131 -12 -45 25 c-24 15 -54 35 -66 45 l-21 18 22
63 c12 34 26 62 32 62 5 -1 107 -26 226 -58z m-2781 14 c0 -8 -9 -43 -20 -79
-34 -111 -121 -167 -258 -167 -61 0 -88 5 -129 25 l-53 24 0 75 0 74 68 11
c37 7 114 20 172 30 133 24 220 26 220 7z m-685 -103 c6 -35 4 -40 -31 -70
-71 -62 -118 -78 -229 -78 -118 0 -178 20 -193 65 l-10 27 222 45 c121 26 224
47 227 47 4 1 10 -16 14 -36z m2020 -12 l130 -6 -58 -57 c-32 -31 -83 -69
-115 -85 -50 -25 -68 -28 -152 -28 -86 0 -101 3 -163 32 l-68 33 6 47 c4 27 8
54 10 61 5 13 177 15 410 3z m2118 -58 c114 -23 137 -31 137 -45 0 -17 -14
-18 -170 -18 l-169 0 14 48 c8 26 15 48 15 50 0 2 8 1 18 -2 9 -2 79 -17 155
-33z m-4808 -99 c6 -34 19 -73 28 -87 9 -14 13 -28 9 -30 -4 -3 -95 21 -202
53 l-195 58 75 16 c41 9 113 25 160 35 47 11 92 19 99 18 10 -1 19 -23 26 -63z
m5384 -22 c74 -16 131 -31 125 -34 -5 -4 -62 -9 -125 -13 -103 -7 -120 -5
-148 11 -23 14 -31 26 -31 46 0 24 3 28 23 23 12 -3 83 -18 156 -33z m-1408
-107 c108 -23 224 -16 333 20 l78 26 55 -42 c89 -67 161 -92 280 -97 83 -3
120 0 193 18 l90 22 35 -26 c53 -41 152 -84 234 -102 86 -19 225 -14 305 11
65 20 276 133 297 158 16 20 17 20 345 -22 181 -24 341 -46 355 -49 22 -6 -31
-32 -310 -155 -185 -81 -371 -158 -414 -171 l-79 -24 -38 82 c-29 64 -44 85
-66 94 -34 14 -317 42 -419 42 -123 0 -296 -61 -382 -134 l-41 -36 -124 0
c-161 -1 -317 -15 -362 -34 -20 -8 -44 -28 -53 -44 -16 -28 -18 -29 -52 -16
-20 7 -147 22 -284 33 l-247 21 -75 -30 -74 -29 -56 25 c-51 24 -81 28 -303
44 -142 10 -251 14 -256 9 -6 -5 -18 -9 -27 -9 -10 0 -31 -8 -48 -17 -28 -17
-32 -17 -59 -1 -20 12 -83 21 -237 33 -116 10 -217 20 -225 25 -8 4 -40 13
-70 20 -43 10 -62 21 -88 52 -51 59 -155 127 -235 156 -57 20 -97 26 -193 30
-125 4 -181 -5 -216 -35 -16 -14 -21 -13 -50 12 -50 42 -107 64 -168 65 -30 1
-73 4 -95 8 -38 7 -36 8 62 31 98 22 105 22 144 7 37 -15 58 -15 257 -1 168
12 236 20 300 39 l82 25 103 -61 c94 -55 111 -61 212 -79 183 -31 287 -23 397
32 31 16 73 42 92 59 l34 30 83 -20 c230 -57 564 -22 681 70 l48 38 83 -42
c49 -25 120 -50 168 -61z m-4373 -101 c303 -91 336 -104 742 -281 234 -102
454 -203 490 -224 36 -21 83 -45 105 -53 22 -9 454 -130 960 -270 l920 -254
730 35 730 35 783 224 c656 188 822 240 1015 314 127 49 232 88 234 86 6 -5
-343 -304 -449 -384 -229 -172 -483 -331 -743 -466 -102 -53 -1390 -606 -1570
-674 -170 -64 -383 -118 -590 -149 -91 -13 -182 -17 -375 -17 l-255 0 -305 83
c-304 83 -305 84 -465 169 -510 271 -867 524 -1336 945 -289 260 -409 384
-519 537 -121 169 -245 299 -384 403 -27 20 -46 37 -42 37 4 0 150 -43 324
-96z m1327 45 l60 -12 -49 -13 c-47 -12 -51 -12 -83 13 -39 30 -41 35 -10 29
12 -3 49 -11 82 -17z m-450 -94 c137 -19 152 -23 198 -48 33 -18 37 -25 37
-59 0 -21 -2 -38 -5 -38 -7 0 -351 160 -344 160 3 0 54 -7 114 -15z m891 -180
c13 -20 15 -40 9 -120 -4 -52 -8 -95 -9 -95 0 0 -95 31 -211 68 l-210 67 9 53
9 52 193 0 194 0 16 -25z m572 -73 c73 -27 73 -27 87 -77 15 -54 26 -275 14
-275 -11 0 -419 127 -425 132 -2 3 0 29 6 58 5 29 10 83 10 120 0 37 3 70 8
74 4 4 57 5 117 1 83 -4 128 -13 183 -33z m3581 -48 c5 -5 12 -19 15 -31 6
-20 -7 -26 -236 -102 -134 -44 -252 -81 -262 -83 -16 -2 -22 6 -32 52 -7 30
-15 65 -19 77 -6 20 1 24 88 52 53 17 124 35 159 40 75 12 275 8 287 -5z
m-2953 -170 l81 -6 11 -62 c13 -71 16 -216 4 -216 -13 0 -424 89 -428 93 -3 3
44 185 51 197 4 6 163 3 281 -6z m2214 -56 c16 -29 30 -55 30 -58 0 -3 -73
-27 -163 -54 -89 -27 -168 -51 -174 -54 -9 -3 -13 10 -13 45 0 44 -13 104 -35
156 -7 16 5 17 159 17 l166 0 30 -52z m-1372 -78 c39 -106 67 -208 59 -217 -2
-2 -123 3 -268 12 -145 8 -279 15 -297 15 -28 0 -32 3 -28 23 3 12 8 65 11
117 9 134 11 135 250 154 99 7 191 13 205 12 22 -1 29 -13 68 -116z m720 75
c81 -31 92 -44 103 -123 4 -30 15 -62 23 -71 15 -16 -1 -20 -267 -54 -155 -21
-284 -37 -287 -37 -3 0 -4 18 -2 39 3 25 -6 69 -23 120 l-27 81 22 27 c32 41
92 53 250 49 119 -2 143 -6 208 -31z"/>
<path d="M5572 6412 l-44 -37 4 -148 3 -149 28 -24 c57 -48 163 -20 193 51 19
46 18 150 -3 210 -18 53 -91 135 -120 135 -10 0 -37 -17 -61 -38z"/>
<path d="M4901 6266 c-43 -15 -81 -60 -81 -95 0 -32 44 -103 91 -148 37 -35
104 -68 160 -78 31 -6 39 -3 53 16 38 55 9 176 -59 238 -35 32 -116 83 -127
80 -2 0 -18 -6 -37 -13z"/>
<path d="M4438 6231 c-37 -13 -88 -71 -88 -100 0 -65 46 -147 104 -182 21 -13
50 -19 87 -19 48 0 59 4 83 29 27 29 28 30 16 87 -11 50 -20 66 -69 114 -57
58 -103 82 -133 71z"/>
<path d="M4333 3754 c-7 -3 -22 -22 -35 -42 -64 -104 -24 -455 62 -537 38 -36
94 -40 155 -10 51 26 55 52 18 119 -27 49 -28 55 -28 196 0 164 -5 181 -74
243 -38 34 -67 43 -98 31z"/>
<path d="M5225 3751 c-20 -4 -36 -18 -51 -45 -34 -60 -37 -110 -13 -201 11
-44 24 -115 29 -159 8 -81 23 -112 71 -149 36 -26 101 -34 118 -13 8 9 24 83
37 164 26 163 23 188 -24 275 -24 44 -115 139 -131 136 -3 -1 -19 -4 -36 -8z"/>
<path d="M6074 3710 c-11 -4 -33 -23 -48 -41 -26 -30 -27 -37 -21 -88 12 -100
57 -174 130 -216 50 -30 64 -31 104 -7 25 14 33 27 42 70 20 100 -22 197 -115
261 -47 33 -58 35 -92 21z"/>
<path d="M5654 3656 c-39 -39 -42 -61 -18 -162 19 -82 34 -113 74 -150 47 -45
87 -55 132 -33 31 16 38 25 47 69 14 66 14 76 -5 139 -24 82 -115 171 -175
171 -11 0 -36 -15 -55 -34z"/>
<path d="M4711 3671 c-47 -12 -63 -50 -73 -172 -9 -101 -8 -113 9 -133 10 -11
29 -43 42 -69 35 -69 108 -117 176 -117 79 0 86 161 11 263 -25 35 -30 52 -31
99 0 49 -4 61 -29 87 -34 35 -71 50 -105 42z"/>
<path d="M10205 1459 l-30 -6 29 -12 c31 -13 40 -10 34 11 -2 9 -12 12 -33 7z"/>
</g>
</svg>
