<?xml version="1.0" standalone="no"?>
<!DOCTYPE svg PUBLIC "-//W3C//DTD SVG 20010904//EN"
 "http://www.w3.org/TR/2001/REC-SVG-20010904/DTD/svg10.dtd">
<svg version="1.0" xmlns="http://www.w3.org/2000/svg"
 width="1024.000000pt" height="1024.000000pt" viewBox="0 0 1024.000000 1024.000000"
 preserveAspectRatio="xMidYMid meet">
<metadata>
Created by potrace 1.10, written by Peter Selinger 2001-2011
</metadata>
<g transform="translate(0.000000,1024.000000) scale(0.100000,-0.100000)"
fill="#000000" stroke="none">
<path d="M5234 9392 c-5 -4 -24 -27 -41 -52 l-31 -45 -31 -335 c-24 -259 -31
-386 -31 -560 0 -124 -7 -351 -15 -505 -10 -172 -15 -442 -14 -700 0 -231 -2
-428 -6 -437 -7 -17 -42 -18 -524 -20 -783 -4 -805 -4 -901 16 -111 24 -204
57 -313 114 -102 52 -207 126 -207 145 0 8 -18 39 -40 70 -22 30 -40 64 -40
75 0 10 -15 39 -34 63 -30 39 -36 61 -60 189 -54 291 -86 628 -86 895 0 89 7
157 27 260 35 182 36 259 5 301 -13 16 -37 38 -53 48 -31 18 -31 18 -72 -11
-38 -27 -45 -40 -74 -127 -53 -157 -67 -285 -59 -534 10 -346 41 -634 100
-937 24 -119 25 -123 117 -275 136 -227 249 -333 415 -390 41 -15 226 -39 658
-86 l601 -66 1675 46 c921 25 1698 48 1726 50 94 8 144 53 144 129 0 70 24 66
-475 79 -449 12 -452 12 -1355 -25 -498 -21 -910 -38 -917 -37 -8 0 -12 40
-12 138 -1 75 -7 241 -14 367 -7 127 -12 231 -11 233 1 2 280 39 621 82 645
82 699 92 826 156 127 64 256 182 325 297 73 121 184 413 237 624 14 55 36
166 50 245 13 78 28 164 33 190 10 50 3 109 -16 144 -21 40 -83 86 -106 80
-11 -3 -26 -6 -33 -6 -21 0 -30 -29 -57 -180 -36 -197 -106 -467 -170 -657
-69 -204 -79 -228 -121 -274 -19 -22 -35 -50 -35 -63 0 -59 -133 -177 -241
-216 -37 -12 -256 -45 -635 -95 -319 -41 -599 -79 -624 -84 -25 -5 -46 -9 -47
-7 -3 2 44 1238 51 1326 2 36 13 94 25 129 35 106 25 161 -39 215 -30 25 -74
34 -96 18z"/>
<path d="M7871 5988 l-41 -33 3 -915 c3 -854 5 -928 25 -1110 12 -107 23 -214
25 -237 l4 -42 -106 5 c-321 16 -513 20 -590 13 -111 -10 -4688 -175 -4695
-169 -2 3 7 181 20 395 20 316 39 508 99 1010 42 341 82 650 90 688 8 37 29
97 46 132 52 109 40 193 -36 250 -51 40 -81 29 -132 -48 -74 -110 -120 -224
-143 -352 -11 -64 -180 -1855 -206 -2195 -11 -134 -17 -360 -19 -650 -2 -245
-6 -607 -10 -805 -5 -298 -4 -373 8 -435 44 -218 142 -352 368 -502 121 -80
152 -92 439 -172 159 -44 449 -72 1105 -107 289 -16 1209 -17 1500 -1 401 21
579 33 700 48 444 55 858 228 1225 512 237 184 366 394 449 732 50 207 93 623
112 1095 11 275 11 291 -26 875 -29 469 -35 627 -30 745 11 252 10 485 -4 595
-10 84 -10 145 -1 302 14 216 10 252 -26 315 -24 41 -80 93 -101 93 -6 0 -29
-15 -52 -32z m3 -2870 c-13 -769 -21 -859 -109 -1122 -67 -203 -124 -316 -198
-393 -211 -223 -520 -415 -827 -517 -230 -76 -176 -73 -1515 -106 -665 -17
-1251 -31 -1301 -30 -52 0 -292 27 -575 65 l-484 64 -92 46 c-117 58 -205 142
-257 245 -19 39 -38 86 -40 103 -3 18 -13 235 -22 483 -13 369 -14 499 -5 710
13 289 31 617 35 622 4 3 3559 102 3671 101 l90 0 -43 -22 c-50 -26 -149 -142
-253 -294 -38 -56 -179 -310 -313 -565 -134 -255 -255 -485 -270 -512 -14 -27
-26 -59 -26 -70 0 -47 60 -96 119 -96 23 0 41 13 86 63 120 131 216 294 400
678 96 200 192 391 214 424 56 86 137 172 149 160 5 -5 140 -199 299 -430 253
-368 304 -448 408 -645 65 -124 126 -237 136 -251 27 -39 78 -59 147 -59 53 0
63 3 81 26 28 35 27 52 -10 140 -55 132 -192 346 -384 599 -187 246 -282 396
-380 600 -51 106 -103 168 -186 224 l-61 41 88 1 c49 0 334 11 634 23 300 13
602 24 672 25 l128 1 -6 -332z"/>
<path d="M3848 2946 c-106 -38 -276 -167 -366 -278 -31 -38 -191 -233 -356
-432 -164 -198 -307 -374 -317 -391 -10 -16 -19 -46 -19 -65 0 -34 30 -97 54
-112 23 -15 64 -7 99 20 20 15 178 194 351 398 220 259 351 405 438 486 118
110 175 155 182 147 2 -2 184 -235 406 -517 246 -314 414 -519 432 -528 37
-19 59 -12 97 32 35 39 46 73 37 110 -4 14 -64 82 -134 152 -205 204 -340 385
-469 626 -35 66 -76 137 -91 156 -51 68 -127 131 -197 165 -91 44 -103 46
-147 31z"/>
<path d="M6060 5334 c-63 -53 -74 -69 -328 -512 -289 -501 -322 -563 -322
-606 0 -32 42 -111 62 -118 7 -3 31 -3 53 0 l40 4 285 483 c157 266 287 484
290 484 3 0 167 -218 365 -486 198 -267 372 -495 387 -506 24 -18 30 -19 59
-7 78 33 113 93 89 154 -6 16 -115 173 -242 350 -291 403 -626 817 -662 816
-6 -1 -40 -26 -76 -56z"/>
<path d="M3825 5128 c-22 -6 -48 -14 -57 -19 -10 -5 -25 -9 -34 -9 -22 0 -221
-196 -387 -380 -214 -238 -511 -622 -563 -727 -46 -92 -36 -187 22 -223 35
-22 36 -22 82 -5 63 25 128 93 185 197 135 247 376 568 572 761 62 62 190 157
209 156 6 0 173 -214 371 -476 198 -261 375 -488 393 -504 43 -38 98 -40 140
-4 60 50 57 60 -91 296 -179 288 -475 663 -657 832 -69 64 -129 116 -135 115
-5 0 -28 -5 -50 -10z"/>
<path d="M9526 981 c-15 -6 -11 -9 21 -19 52 -16 53 -15 53 8 0 15 -6 20 -27
19 -16 0 -36 -4 -47 -8z"/>
</g>
</svg>
