<?xml version="1.0" standalone="no"?>
<!DOCTYPE svg PUBLIC "-//W3C//DTD SVG 20010904//EN"
 "http://www.w3.org/TR/2001/REC-SVG-20010904/DTD/svg10.dtd">
<svg version="1.0" xmlns="http://www.w3.org/2000/svg"
 width="1024.000000pt" height="1024.000000pt" viewBox="0 0 1024.000000 1024.000000"
 preserveAspectRatio="xMidYMid meet">
<metadata>
Created by potrace 1.10, written by Peter Selinger 2001-2011
</metadata>
<g transform="translate(0.000000,1024.000000) scale(0.100000,-0.100000)"
fill="#000000" stroke="none">
<path d="M4598 9045 c-60 -30 -108 -59 -108 -64 0 -10 61 -64 120 -106 59 -42
125 -125 170 -215 104 -208 120 -389 120 -1400 l0 -686 -787 -67 c-434 -37
-796 -68 -805 -67 -17 0 -18 30 -18 478 0 532 9 706 46 867 15 63 23 123 20
140 -8 40 -75 105 -143 139 -48 24 -499 166 -527 166 -7 0 -61 -25 -120 -56
-106 -55 -107 -56 -89 -76 10 -11 46 -38 80 -60 72 -46 149 -126 191 -201 96
-168 121 -385 122 -1044 l0 -393 -22 -4 c-13 -3 -158 -16 -323 -31 l-300 -26
-200 20 c-130 13 -266 34 -389 61 -104 22 -190 39 -192 37 -2 -2 8 -63 23
-136 l26 -133 181 -121 c164 -109 196 -127 346 -185 l165 -64 85 17 c93 19
137 32 310 95 203 74 479 138 776 180 82 12 894 72 1969 145 l1830 125 644
-50 c808 -63 923 -68 971 -43 47 24 52 73 16 148 -89 180 -557 475 -755 475
-25 0 -84 -9 -131 -21 -105 -25 -373 -54 -1553 -169 -507 -49 -939 -92 -959
-95 l-38 -5 0 435 0 435 23 4 c46 11 1814 206 1859 206 141 0 255 59 260 136
1 11 -33 65 -81 127 -88 114 -118 136 -226 170 -102 31 -115 31 -282 -17 -87
-24 -192 -54 -233 -65 -59 -17 -1261 -201 -1310 -201 -9 0 -11 49 -6 213 9
286 22 421 52 551 15 67 22 120 18 139 -8 38 -72 108 -129 142 -81 47 -472
189 -551 200 -33 4 -55 -3 -146 -50z"/>
<path d="M7528 6124 c-38 -19 -68 -40 -68 -47 0 -7 21 -38 46 -68 65 -75 95
-125 116 -192 16 -54 18 -102 18 -545 0 -477 -36 -3262 -42 -3267 -9 -6 -5040
-405 -5048 -400 -17 10 -12 90 50 983 32 471 75 1114 95 1427 19 314 49 716
65 894 l30 323 -24 42 c-28 48 -71 89 -211 202 -214 172 -328 225 -389 181
-17 -12 -17 -16 -1 -72 9 -33 44 -111 76 -172 l59 -113 0 -182 c0 -458 -43
-1194 -150 -2593 -42 -546 -66 -810 -81 -880 -11 -55 -23 -145 -26 -200 -5
-91 -3 -105 18 -149 25 -53 131 -166 220 -234 l56 -42 91 34 c49 19 110 45
134 57 125 64 265 95 658 149 1337 184 2767 319 4015 380 116 5 246 12 289 16
l79 6 -7 -161 c-10 -226 5 -272 110 -331 45 -27 61 -31 92 -25 95 18 171 88
207 191 55 159 53 123 75 1674 11 795 27 1733 35 2085 8 352 15 674 15 716 l0
77 -113 84 c-107 81 -119 87 -257 133 -80 26 -149 49 -155 51 -5 2 -40 -13
-77 -32z"/>
<path d="M4713 6043 l-82 -35 26 -42 c14 -22 42 -62 63 -87 91 -110 146 -217
187 -369 16 -58 18 -115 18 -510 l0 -444 -560 -57 c-690 -70 -836 -77 -1126
-54 -118 9 -225 15 -236 13 -22 -3 -22 -3 7 -92 39 -122 104 -187 230 -231 25
-8 77 -31 115 -49 97 -47 123 -50 240 -26 115 23 976 143 982 137 12 -13 -157
-278 -287 -452 -337 -447 -730 -770 -1268 -1043 -285 -144 38 -109 403 44 210
88 537 273 695 393 208 158 564 488 750 696 l62 70 -6 -255 c-3 -140 -11 -469
-18 -732 -13 -505 -11 -530 32 -672 27 -87 88 -155 145 -162 92 -12 178 72
211 208 17 66 19 142 24 795 l5 721 268 -164 c420 -257 586 -395 912 -759 218
-242 225 -249 271 -242 46 8 88 46 103 96 16 54 14 196 -4 266 -49 193 -205
355 -520 542 -307 183 -795 389 -987 418 l-48 7 0 154 c0 153 0 154 23 154 12
0 425 24 917 54 960 57 933 54 978 111 12 14 24 40 27 57 7 28 1 37 -71 109
-76 77 -81 80 -184 114 -139 46 -183 46 -522 -9 -205 -34 -377 -54 -693 -80
-231 -20 -433 -36 -449 -36 l-29 0 6 463 c3 268 10 508 18 572 7 61 9 123 6
137 -12 45 -54 85 -135 126 -42 22 -115 63 -161 91 -97 58 -178 91 -224 90
-18 -1 -69 -17 -114 -36z"/>
<path d="M6204 6041 c-35 -15 -36 -26 -3 -67 44 -55 68 -107 80 -169 9 -51 8
-60 -32 -162 -25 -64 -68 -149 -107 -208 -133 -205 -349 -479 -471 -600 -34
-33 -61 -63 -61 -67 0 -47 368 115 590 260 90 58 481 369 618 491 l44 39 -21
39 c-62 123 -315 346 -475 419 -60 27 -131 38 -162 25z"/>
<path d="M3414 5689 l-21 -21 89 -111 c133 -166 305 -430 406 -623 132 -253
165 -294 240 -294 105 0 171 116 172 300 0 149 -53 274 -156 368 -170 156
-526 364 -679 396 -23 5 -35 1 -51 -15z"/>
</g>
</svg>
