<?xml version="1.0" standalone="no"?>
<!DOCTYPE svg PUBLIC "-//W3C//DTD SVG 20010904//EN"
 "http://www.w3.org/TR/2001/REC-SVG-20010904/DTD/svg10.dtd">
<svg version="1.0" xmlns="http://www.w3.org/2000/svg"
 width="1024.000000pt" height="1024.000000pt" viewBox="0 0 1024.000000 1024.000000"
 preserveAspectRatio="xMidYMid meet">
<metadata>
Created by potrace 1.10, written by Peter Selinger 2001-2011
</metadata>
<g transform="translate(0.000000,1024.000000) scale(0.100000,-0.100000)"
fill="#000000" stroke="none">
<path d="M5695 8180 c-442 -42 -3639 -332 -4024 -365 -34 -3 -70 -9 -80 -14
-41 -22 -70 -82 -53 -108 14 -22 239 -23 397 -3 77 10 165 21 195 24 30 4 226
27 435 51 209 25 400 47 425 50 25 3 61 7 80 10 19 2 55 7 80 9 25 3 199 24
387 46 188 22 348 40 356 40 12 0 12 -7 1 -50 -7 -27 -13 -71 -13 -97 0 -27
-9 -110 -20 -186 -12 -76 -21 -150 -21 -165 0 -15 -4 -32 -8 -38 -6 -11 -106
-20 -407 -39 -44 -3 -109 -7 -145 -10 -97 -7 -204 -14 -305 -20 -49 -3 -115
-8 -145 -10 -30 -2 -93 -7 -140 -10 -47 -3 -114 -8 -150 -10 -36 -3 -137 -9
-225 -15 -88 -6 -187 -12 -220 -15 -33 -2 -134 -9 -225 -15 -247 -15 -269 -18
-296 -45 -27 -27 -32 -76 -9 -95 10 -8 36 -10 82 -6 38 3 111 8 163 11 52 3
120 7 150 10 30 2 102 7 160 10 58 3 125 8 150 10 25 2 95 7 155 10 61 3 126
8 145 10 19 2 87 7 150 10 63 3 135 8 160 10 25 2 92 7 150 10 58 3 125 8 150
10 25 2 95 7 155 10 61 3 130 8 155 10 25 2 97 7 160 10 63 4 125 8 138 10 14
2 22 -1 22 -10 0 -8 -18 -101 -40 -207 -21 -106 -46 -258 -55 -337 -12 -101
-39 -238 -90 -450 l-73 -306 -387 -1005 -386 -1005 -193 -310 c-106 -170 -313
-501 -459 -734 l-265 -424 -190 -181 c-148 -142 -224 -206 -351 -295 -169
-118 -185 -137 -162 -187 6 -14 18 -27 27 -31 8 -3 151 36 317 87 204 63 318
93 352 94 64 0 641 -13 805 -19 69 -3 215 -7 325 -10 110 -3 243 -10 295 -16
166 -16 192 -18 335 -26 141 -7 663 -6 700 1 11 2 72 7 137 11 l116 7 21 55
c23 59 26 80 12 85 -6 2 57 184 101 290 2 4 30 1 63 -6 123 -28 213 -39 335
-39 316 0 774 124 1150 311 157 78 174 105 133 212 -11 29 -10 1350 1 1445 30
263 47 334 180 785 78 263 147 467 266 785 237 634 239 646 222 1099 -7 166
-18 335 -26 376 -7 41 -17 105 -21 143 l-7 67 49 1 c26 1 68 3 93 4 25 1 189
5 365 9 176 3 374 9 440 11 220 8 597 17 880 20 154 2 286 4 294 4 16 1 81 70
81 87 0 41 -104 56 -360 54 -107 -1 -215 -3 -240 -5 -25 -1 -178 -6 -340 -10
-162 -4 -320 -8 -350 -10 -30 -1 -176 -6 -325 -9 -148 -4 -313 -9 -365 -11
-52 -2 -205 -7 -339 -11 l-245 -6 19 28 c52 80 151 201 250 304 l110 115 825
6 c682 4 850 8 970 22 175 20 237 26 270 27 17 0 30 10 43 31 31 55 17 58
-268 59 -137 0 -810 2 -1495 5 l-1245 4 -420 -39z m1105 -103 c0 -2 -36 -51
-81 -108 -44 -57 -109 -147 -145 -199 -83 -122 -113 -163 -123 -170 -10 -6
-71 -123 -71 -135 0 -4 -27 -57 -60 -117 -33 -60 -60 -114 -60 -121 0 -7 -140
-334 -311 -727 -171 -393 -324 -746 -340 -785 -16 -38 -241 -758 -500 -1600
-259 -841 -480 -1547 -490 -1567 -10 -21 -19 -49 -19 -64 0 -14 -8 -37 -19
-50 -10 -13 -24 -54 -31 -91 -10 -55 -84 -289 -96 -301 -5 -7 -229 -38 -259
-37 -16 1 -118 5 -225 9 -107 4 -210 9 -228 11 -18 1 -119 6 -223 10 -104 4
-206 8 -227 10 -276 22 -1395 28 -1537 8 -49 -7 -97 -12 -105 -13 -8 0 17 29
55 64 175 159 323 339 541 656 200 292 222 329 404 677 106 202 219 418 250
478 279 532 243 451 489 1118 323 877 320 869 406 1337 31 168 62 341 70 385
8 44 31 168 51 275 19 107 44 222 55 255 11 35 17 71 14 87 -4 15 -1 71 5 125
6 54 13 118 16 143 11 109 16 138 32 180 9 25 27 61 39 81 l24 37 87 1 c48 2
98 4 112 6 14 1 95 6 180 10 85 3 175 8 200 10 25 2 104 6 175 10 72 3 162 8
200 10 90 6 231 13 370 20 61 3 142 7 180 10 39 2 126 7 195 10 69 3 148 8
175 10 28 2 113 7 190 10 77 3 163 8 190 10 28 2 120 7 205 11 85 3 156 7 157
8 5 4 83 7 83 3z m61 -629 c0 -18 2 -42 4 -53 2 -11 9 -78 15 -150 6 -71 13
-150 16 -175 19 -177 22 -234 20 -385 -4 -245 -52 -458 -151 -670 -58 -126
-133 -319 -171 -445 -19 -63 -43 -133 -54 -155 -34 -70 -198 -599 -225 -725
-25 -122 -69 -443 -79 -580 -9 -124 -8 -849 1 -935 4 -44 4 -120 -1 -170 -5
-49 -8 -120 -7 -157 2 -57 -2 -73 -24 -106 -14 -21 -38 -48 -53 -59 -33 -25
-715 -238 -787 -246 -97 -11 -301 -22 -415 -22 -97 1 -122 4 -155 21 -22 12
-41 28 -43 36 -2 8 125 433 281 944 156 511 301 999 321 1084 30 125 74 249
226 640 103 267 308 796 455 1175 259 670 357 897 469 1086 l45 76 155 2 156
2 1 -33z"/>
<path d="M5733 7652 c-54 -39 -139 -135 -167 -189 -18 -37 -21 -115 -5 -162 8
-22 17 -31 34 -31 28 0 90 67 99 106 4 16 42 72 86 124 87 103 97 131 57 168
-31 29 -43 27 -104 -16z"/>
<path d="M4553 7018 c-12 -13 -48 -81 -80 -153 -53 -116 -71 -176 -173 -570
-69 -265 -122 -451 -133 -467 -14 -19 -18 -34 -12 -55 17 -70 62 -72 127 -5
l47 47 131 495 c109 412 138 507 171 568 46 87 48 113 13 141 -35 27 -65 27
-91 -1z"/>
<path d="M4828 5398 c-47 -52 -63 -81 -146 -268 -138 -311 -157 -385 -222
-875 -36 -271 -70 -430 -141 -672 -50 -167 -64 -200 -230 -533 -110 -221 -194
-377 -223 -414 -50 -63 -52 -71 -34 -112 11 -23 16 -26 51 -21 22 3 43 9 47
14 23 25 375 654 404 721 70 162 171 478 196 612 6 30 31 188 55 350 25 162
52 327 61 365 50 231 190 601 257 681 32 38 57 88 57 113 0 27 -48 81 -72 81
-11 0 -38 -19 -60 -42z"/>
<path d="M3561 4133 c-16 -16 -120 -185 -231 -378 -111 -192 -269 -465 -350
-605 -81 -140 -151 -262 -156 -271 -5 -9 -66 -81 -136 -160 -70 -79 -136 -155
-147 -168 -36 -41 -22 -121 20 -121 34 0 71 26 141 97 54 55 150 199 513 771
245 387 450 714 455 728 17 44 11 80 -16 108 -34 33 -56 33 -93 -1z"/>
<path d="M5995 5160 c-34 -13 -41 -31 -54 -125 -7 -49 -25 -137 -41 -195 -43
-159 -77 -318 -105 -495 -14 -88 -42 -248 -61 -355 -39 -210 -39 -257 -3 -296
39 -42 53 -32 97 69 42 96 52 136 77 327 61 466 66 498 122 705 60 225 71 291
54 324 -16 29 -61 50 -86 41z"/>
<path d="M7280 7981 c-34 -9 -40 -61 -10 -91 21 -21 26 -22 307 -18 305 3 323
6 323 53 0 13 -3 26 -7 28 -10 6 -157 15 -373 23 -96 3 -184 7 -195 8 -11 2
-31 0 -45 -3z"/>
<path d="M8331 7974 c-23 -17 -28 -46 -8 -62 14 -12 500 -55 527 -47 20 6 34
45 20 59 -5 5 -109 19 -232 32 -123 13 -237 25 -254 28 -19 3 -41 -2 -53 -10z"/>
<path d="M7626 7824 c-46 -45 9 -104 96 -104 50 0 68 16 68 59 0 45 -129 80
-164 45z"/>
<path d="M8323 7831 c-94 -8 -123 -20 -123 -51 0 -30 23 -39 126 -51 93 -11
708 -20 747 -10 25 5 42 51 25 67 -12 11 -47 15 -263 30 -49 3 -103 7 -120 9
-79 9 -310 13 -392 6z"/>
<path d="M7898 7814 c-35 -19 -36 -47 -2 -81 22 -22 32 -25 67 -20 44 6 77 35
77 68 0 43 -86 64 -142 33z"/>
<path d="M7245 7810 c-49 -5 -166 -14 -260 -20 -93 -7 -180 -17 -193 -21 -30
-11 -37 -33 -22 -69 13 -32 38 -40 85 -28 29 7 209 21 425 34 73 4 110 11 123
22 23 21 22 69 -2 82 -21 11 -23 11 -156 0z"/>
<path d="M3092 7650 c-40 -18 -43 -22 -40 -52 l3 -33 135 0 c224 0 246 2 259
32 10 21 9 29 -2 40 -18 18 -30 20 -182 26 -115 6 -135 4 -173 -13z"/>
<path d="M2340 7585 c-69 -7 -181 -18 -250 -24 -192 -17 -310 -40 -310 -60 1
-43 9 -44 192 -37 95 3 243 9 328 11 209 8 237 12 255 38 22 31 19 52 -10 71
-27 18 -32 18 -205 1z"/>
<path d="M2673 7460 c-27 -11 -30 -42 -7 -64 12 -12 39 -16 117 -17 56 0 143
-3 192 -5 l90 -5 17 29 c17 28 17 30 0 45 -13 12 -56 16 -202 21 -110 3 -194
2 -207 -4z"/>
</g>
</svg>
