<?xml version="1.0" standalone="no"?>
<!DOCTYPE svg PUBLIC "-//W3C//DTD SVG 20010904//EN"
 "http://www.w3.org/TR/2001/REC-SVG-20010904/DTD/svg10.dtd">
<svg version="1.0" xmlns="http://www.w3.org/2000/svg"
 width="1024.000000pt" height="1024.000000pt" viewBox="0 0 1024.000000 1024.000000"
 preserveAspectRatio="xMidYMid meet">
<metadata>
Created by potrace 1.10, written by Peter Selinger 2001-2011
</metadata>
<g transform="translate(0.000000,1024.000000) scale(0.100000,-0.100000)"
fill="#000000" stroke="none">
<path d="M9832 9103 c-13 -3 -34 -22 -49 -46 -14 -23 -27 -44 -29 -46 -6 -6
-149 22 -176 36 -23 11 -142 10 -770 -7 -409 -11 -815 -27 -903 -35 -500 -46
-887 -50 -2425 -22 -542 10 -1014 15 -1050 12 -36 -3 -549 -23 -1140 -45
l-1075 -40 -540 -60 c-574 -65 -659 -69 -785 -35 -109 29 -159 15 -180 -53 -7
-20 -23 -48 -36 -62 -20 -21 -25 -42 -34 -135 -15 -160 -13 -233 9 -280 21
-47 40 -58 143 -84 76 -18 84 -18 615 1 296 10 592 17 658 14 66 -3 288 1 492
10 205 8 384 14 397 12 l23 -3 -99 -418 -99 -419 -400 -1141 -401 -1141 -340
-655 c-392 -755 -438 -841 -595 -1115 -109 -189 -309 -516 -377 -616 -17 -25
-140 -150 -272 -277 -134 -130 -247 -246 -254 -263 -16 -39 -2 -73 37 -93 15
-8 129 -34 252 -57 l225 -42 1445 -550 c795 -303 1475 -559 1511 -569 115 -34
200 -22 277 37 18 13 93 111 166 217 l133 192 183 454 c207 513 230 578 265
735 54 243 58 290 66 831 10 672 18 736 161 1355 90 391 105 450 118 450 7 0
92 -556 91 -603 0 -15 16 -100 35 -190 102 -478 111 -832 35 -1457 -70 -573
-157 -940 -289 -1215 -169 -354 -475 -700 -734 -830 -80 -40 -104 -57 -118
-85 -39 -72 -15 -178 47 -208 30 -14 52 -14 191 -4 220 17 579 15 769 -3 101
-10 691 -30 1629 -55 l1470 -40 137 -30 c117 -27 142 -35 167 -61 33 -33 58
-36 123 -14 31 11 49 24 57 42 20 44 32 288 32 663 l0 355 -85 935 -85 935
-110 640 c-61 352 -118 694 -127 760 -20 160 -33 589 -34 1145 0 674 1 682
125 1225 110 477 142 582 267 870 74 170 118 261 211 428 l70 127 336 0 335 0
31 -29 c27 -27 38 -30 126 -37 82 -6 114 -3 230 21 110 22 144 34 191 64 53
33 60 41 79 100 20 59 21 70 9 173 -11 100 -10 111 5 128 17 19 16 20 -9 30
-15 5 -30 10 -32 10 -3 0 -17 14 -31 30 -65 78 -218 147 -291 133z m118 -292
c44 -46 57 -85 36 -106 -8 -8 -16 -19 -18 -24 -1 -6 -52 -16 -113 -22 -105
-12 -112 -11 -151 9 -37 19 -63 21 -285 27 -134 3 -281 8 -326 11 l-83 6 21
41 c12 23 23 44 25 46 6 7 643 48 758 50 l99 1 37 -39z m-1605 -7 l44 -26 196
8 c107 4 195 4 195 -1 0 -4 -9 -20 -21 -36 l-20 -29 -151 0 c-139 0 -150 -1
-142 -17 5 -10 9 -63 11 -118 l2 -100 69 -5 68 -5 -129 -270 c-107 -225 -148
-326 -247 -605 -139 -395 -151 -434 -184 -566 -71 -281 -83 -457 -91 -1294 -9
-853 -17 -768 209 -2081 l146 -844 55 -1072 c30 -590 55 -1079 55 -1087 0 -11
-7 -14 -27 -10 -23 4 -3822 174 -3893 174 -18 0 10 33 141 168 224 228 332
376 445 608 170 349 299 1010 335 1710 20 392 11 490 -130 1414 l-97 645 13
178 14 179 121 231 c158 305 217 397 526 824 43 60 43 104 1 144 -30 28 -80
44 -116 37 -48 -9 -384 -470 -534 -733 -301 -527 -562 -1262 -663 -1872 -53
-314 -84 -741 -71 -983 5 -102 0 -183 -25 -435 l-32 -310 -139 -440 c-185
-587 -201 -627 -318 -802 -70 -104 -195 -243 -219 -243 -10 0 -118 25 -242 55
-224 55 -231 58 -1568 572 -738 284 -1342 520 -1342 525 0 5 28 41 63 81 139
160 303 386 412 567 34 58 239 429 455 825 l391 720 446 1125 445 1125 197
757 c109 417 200 760 203 763 2 3 155 12 339 21 184 9 335 17 336 18 2 2 -4
27 -13 56 -13 44 -14 64 -5 109 6 30 9 57 6 60 -3 2 -137 -3 -297 -12 -161 -9
-294 -15 -295 -13 -2 2 40 55 94 118 l98 114 1225 12 c674 7 1333 12 1465 10
207 -2 392 -3 500 0 17 0 237 1 490 2 l460 2 60 25 60 25 43 -22 c42 -23 47
-23 239 -16 148 5 201 10 213 21 13 12 70 45 78 45 2 0 23 -12 47 -26z m-5212
-106 c-6 -7 -28 -37 -51 -66 -28 -36 -43 -67 -48 -98 -3 -25 -12 -47 -18 -49
-6 -3 -186 -16 -401 -30 l-390 -25 -655 16 c-360 8 -665 18 -677 20 -21 4 -28
17 -35 69 -3 19 5 20 157 27 88 4 574 39 1080 77 1006 75 1053 78 1038 59z"/>
<path d="M7850 8713 c0 -4 8 -27 17 -51 13 -36 15 -55 7 -103 -6 -33 -8 -62
-5 -64 2 -3 61 -5 130 -5 l126 0 23 103 c12 56 22 108 22 115 0 9 -41 12 -160
12 -88 0 -160 -3 -160 -7z"/>
<path d="M7026 8698 c-132 -5 -241 -10 -244 -12 -2 -2 4 -18 12 -35 18 -34 21
-126 6 -167 -6 -15 -9 -28 -7 -31 2 -2 152 4 333 12 181 8 348 15 372 15 l44
0 -7 63 c-5 45 -2 74 9 106 9 24 16 47 16 52 0 11 -199 9 -534 -3z"/>
<path d="M6278 8675 c-103 -6 -190 -13 -192 -16 -3 -3 2 -25 10 -49 14 -38 14
-55 5 -109 -7 -35 -11 -65 -9 -66 4 -4 411 15 415 19 2 2 -1 25 -7 51 -11 51
-5 104 16 147 23 44 52 42 -238 23z"/>
<path d="M5265 8594 c-275 -23 -507 -43 -516 -43 -15 -1 -15 -5 2 -38 24 -47
24 -80 -1 -149 l-19 -56 37 5 c20 3 259 25 530 48 l494 44 -7 50 c-3 28 -2 62
2 76 11 29 2 102 -12 104 -5 2 -235 -17 -510 -41z"/>
<path d="M4155 8528 c-9 -30 -15 -217 -7 -222 5 -3 81 -2 170 1 l161 6 -15 28
c-17 35 -18 112 0 162 l14 37 -159 0 c-119 0 -161 -3 -164 -12z"/>
<path d="M7130 4293 c-29 -10 -69 -56 -75 -85 -5 -20 0 -39 16 -66 21 -33 24
-52 27 -183 4 -155 -10 -271 -49 -404 -12 -38 -157 -401 -324 -805 -166 -404
-305 -745 -309 -757 -10 -33 32 -56 104 -57 51 -1 63 3 97 30 21 17 48 49 61
71 34 61 617 1578 635 1653 28 115 40 229 34 324 -7 114 -21 156 -70 212 -56
64 -101 84 -147 67z"/>
<path d="M6661 3604 c-1 -6 4 -26 10 -45 6 -19 13 -40 15 -48 3 -8 7 -12 9 -9
3 2 -4 29 -14 59 -11 30 -20 49 -20 43z"/>
<path d="M3465 3301 c-114 -28 -195 -120 -195 -222 0 -23 -51 -62 -427 -327
-529 -371 -588 -407 -846 -513 -67 -27 -134 -62 -149 -76 -38 -37 -52 -82 -39
-131 9 -31 19 -42 50 -57 l40 -18 98 34 c205 71 433 197 743 412 431 299 837
635 891 739 35 69 18 116 -55 149 -43 20 -63 21 -111 10z"/>
<path d="M7398 2570 c-18 -11 -33 -47 -114 -284 -82 -238 -131 -324 -262 -468
-40 -44 -73 -89 -77 -107 -11 -52 39 -131 85 -131 26 0 150 90 216 156 82 83
144 185 193 314 21 58 56 143 76 190 64 142 58 217 -21 297 -44 43 -65 51 -96
33z"/>
</g>
</svg>
