<?xml version="1.0" standalone="no"?>
<!DOCTYPE svg PUBLIC "-//W3C//DTD SVG 20010904//EN"
 "http://www.w3.org/TR/2001/REC-SVG-20010904/DTD/svg10.dtd">
<svg version="1.0" xmlns="http://www.w3.org/2000/svg"
 width="1024.000000pt" height="1024.000000pt" viewBox="0 0 1024.000000 1024.000000"
 preserveAspectRatio="xMidYMid meet">
<metadata>
Created by potrace 1.10, written by Peter Selinger 2001-2011
</metadata>
<g transform="translate(0.000000,1024.000000) scale(0.100000,-0.100000)"
fill="#000000" stroke="none">
<path d="M5125 9181 c-47 -19 -50 -44 -50 -370 1 -296 10 -452 41 -674 12 -85
58 -988 51 -992 -1 -1 -389 -29 -863 -63 -939 -68 -947 -69 -1099 -141 -112
-53 -172 -102 -280 -227 -87 -100 -97 -116 -125 -199 -69 -210 -101 -382 -125
-695 -8 -107 -24 -276 -34 -375 -31 -290 -40 -535 -46 -1300 l-6 -720 30 -195
c17 -107 36 -212 42 -233 6 -21 11 -63 12 -92 3 -61 28 -97 84 -121 50 -21 86
-17 114 12 23 25 24 30 21 167 -2 97 -15 237 -43 442 l-41 300 6 450 c3 248
10 506 16 575 5 69 23 355 40 635 32 540 46 676 86 845 41 177 66 241 134 349
99 158 -3 135 1110 257 514 57 943 104 953 104 17 0 18 -7 13 -92 -10 -140
-53 -1140 -77 -1773 -16 -430 -21 -703 -19 -1175 2 -781 16 -1596 30 -1770 6
-74 14 -316 18 -538 l7 -404 37 -34 c32 -29 45 -34 88 -34 39 0 52 4 60 20 14
26 42 589 35 705 -3 50 -24 497 -45 995 l-40 905 15 650 c11 467 26 849 55
1355 22 388 44 788 50 890 6 102 13 213 16 248 l6 62 643 0 642 0 258 -55
c177 -38 265 -62 283 -75 13 -11 31 -20 39 -20 9 0 50 -29 93 -65 l77 -66 93
-197 c51 -108 105 -224 121 -257 15 -33 33 -79 39 -101 5 -23 19 -53 30 -66
19 -25 89 -320 111 -473 7 -49 5 -449 -7 -1328 l-18 -1257 21 -28 c28 -38 91
-72 135 -72 61 0 65 13 72 270 4 124 13 293 21 375 24 258 34 541 40 1130 7
686 -3 841 -72 1170 -27 133 -169 504 -248 650 -24 44 -68 130 -98 190 -48 98
-63 119 -138 190 -133 127 -262 199 -448 251 -82 23 -103 24 -887 41 l-803 17
-6 51 c-3 27 -19 255 -35 505 -17 250 -37 554 -46 675 -9 132 -14 310 -12 445
3 223 3 225 -21 267 -27 47 -86 93 -117 92 -10 0 -28 -4 -39 -8z"/>
<path d="M6601 3864 c-1 -6 4 -26 10 -45 6 -19 13 -40 15 -48 3 -8 7 -12 9 -9
3 2 -4 29 -14 59 -11 30 -20 49 -20 43z"/>
</g>
</svg>
