<?xml version="1.0" standalone="no"?>
<!DOCTYPE svg PUBLIC "-//W3C//DTD SVG 20010904//EN"
 "http://www.w3.org/TR/2001/REC-SVG-20010904/DTD/svg10.dtd">
<svg version="1.0" xmlns="http://www.w3.org/2000/svg"
 width="1024.000000pt" height="1024.000000pt" viewBox="0 0 1024.000000 1024.000000"
 preserveAspectRatio="xMidYMid meet">
<metadata>
Created by potrace 1.10, written by Peter Selinger 2001-2011
</metadata>
<g transform="translate(0.000000,1024.000000) scale(0.100000,-0.100000)"
fill="#000000" stroke="none">
<path d="M4608 8021 c-19 -15 -51 -22 -136 -30 -61 -5 -116 -12 -122 -16 -7
-4 -18 -23 -26 -42 l-15 -34 84 -102 c155 -189 232 -322 283 -492 26 -85 27
-104 32 -337 2 -137 0 -248 -4 -248 -5 0 -431 -48 -946 -106 l-938 -106 -58
29 c-63 32 -118 47 -514 146 l-257 64 -72 -24 c-82 -27 -133 -53 -171 -85
l-28 -23 93 -80 c145 -127 246 -277 299 -445 23 -75 23 -76 23 -630 0 -632 2
-610 -90 -1055 -52 -254 -54 -265 -45 -351 17 -163 64 -280 168 -419 93 -125
166 -175 253 -175 76 0 125 18 178 66 82 74 130 190 167 404 15 83 17 228 21
1118 2 562 6 1022 8 1022 3 0 301 38 662 85 362 47 746 97 853 110 236 31 336
44 373 50 l28 5 -4 -1828 c-2 -1324 -7 -1850 -15 -1912 -26 -189 -46 -291 -78
-403 -48 -168 -60 -270 -46 -394 21 -186 69 -298 191 -447 72 -88 122 -132
193 -172 44 -24 65 -29 124 -29 61 0 77 4 120 30 93 57 164 200 199 400 32
185 35 403 35 2618 l0 2217 24 0 c13 0 424 35 913 77 522 45 944 77 1023 77
120 0 141 -2 186 -22 57 -26 105 -71 123 -117 9 -23 11 -261 9 -955 l-3 -925
-27 -55 c-40 -81 -118 -130 -207 -130 -20 0 -250 25 -511 55 -261 30 -491 55
-512 55 -47 0 -68 -29 -45 -63 8 -12 101 -112 207 -222 305 -317 506 -559 580
-696 34 -65 94 -130 141 -155 73 -38 208 -28 344 25 168 65 369 241 486 425
88 138 201 367 231 466 22 74 22 85 28 900 6 680 10 841 22 915 22 125 43 201
79 285 16 40 48 120 69 179 37 103 38 109 23 140 -33 68 -170 164 -335 236
-38 16 -68 33 -68 37 0 11 -50 31 -75 30 -11 -1 -125 30 -254 69 l-234 71
-151 -21 c-83 -11 -567 -77 -1076 -146 -509 -68 -940 -127 -957 -130 l-33 -6
0 219 c0 191 4 246 30 427 17 114 30 221 30 237 0 60 -106 121 -321 183 -161
47 -361 115 -373 126 -6 5 6 9 29 9 67 0 25 17 -71 29 -117 14 -117 14 -146
-8z"/>
</g>
</svg>
