<?xml version="1.0" standalone="no"?>
<!DOCTYPE svg PUBLIC "-//W3C//DTD SVG 20010904//EN"
 "http://www.w3.org/TR/2001/REC-SVG-20010904/DTD/svg10.dtd">
<svg version="1.0" xmlns="http://www.w3.org/2000/svg"
 width="1024.000000pt" height="1024.000000pt" viewBox="0 0 1024.000000 1024.000000"
 preserveAspectRatio="xMidYMid meet">
<metadata>
Created by potrace 1.10, written by Peter Selinger 2001-2011
</metadata>
<g transform="translate(0.000000,1024.000000) scale(0.100000,-0.100000)"
fill="#000000" stroke="none">
<path d="M4986 8933 c-31 -10 -64 -30 -92 -59 l-44 -43 5 -113 c4 -112 10
-319 20 -788 3 -135 8 -293 10 -352 5 -123 15 -112 -105 -122 -36 -3 -144 -13
-240 -21 -96 -9 -228 -20 -293 -26 -64 -5 -151 -18 -192 -29 -193 -49 -386
-204 -425 -340 -10 -35 -16 -127 -25 -360 -3 -85 -7 -198 -10 -250 -3 -52 -7
-160 -10 -240 -3 -80 -8 -183 -10 -230 -2 -47 -7 -159 -10 -250 -3 -91 -8
-194 -10 -230 -2 -36 -7 -148 -10 -250 -3 -102 -8 -210 -10 -240 -2 -30 -7
-134 -10 -230 -29 -856 -130 -1532 -340 -2254 -35 -122 -51 -163 -70 -178 -13
-10 -36 -44 -52 -76 -23 -46 -28 -70 -28 -132 0 -129 47 -175 175 -173 124 2
182 43 241 170 146 312 311 839 388 1233 52 267 77 462 86 665 3 72 7 162 10
200 2 39 7 126 10 195 3 69 8 154 10 190 2 36 7 121 10 190 3 69 8 150 10 180
3 30 7 114 10 185 3 72 7 159 10 195 3 36 7 117 10 180 3 63 7 151 10 195 2
44 7 134 10 200 3 66 8 143 10 170 2 28 7 122 10 210 4 88 8 171 10 185 2 14
6 97 10 185 3 88 8 176 11 196 l5 35 102 17 c56 9 234 39 396 67 162 28 295
49 296 48 3 -3 12 -260 20 -593 3 -115 7 -298 10 -405 3 -107 7 -303 10 -435
3 -132 7 -314 10 -405 3 -91 7 -277 10 -415 3 -137 7 -320 10 -405 2 -85 7
-261 11 -391 3 -129 8 -251 9 -270 19 -188 25 -1289 11 -1884 -10 -455 -10
-448 9 -484 37 -73 189 -138 307 -132 41 2 93 58 113 121 14 46 16 96 15 315
-1 143 -3 285 -5 315 -1 30 -6 226 -9 435 -4 209 -9 427 -11 485 -2 58 -6 251
-10 430 -3 179 -7 393 -10 475 -3 83 -7 299 -10 480 -3 182 -8 380 -10 440 -2
61 -7 277 -10 480 -3 204 -8 413 -10 465 -2 52 -7 266 -11 475 -3 209 -8 407
-9 440 -2 33 -4 155 -6 270 l-3 210 25 -1 c13 -1 83 -5 154 -9 72 -4 137 -9
145 -10 8 -2 83 -6 165 -10 83 -4 152 -9 154 -11 2 -2 -2 -54 -9 -116 -16
-148 -20 -399 -8 -518 5 -52 22 -178 38 -280 82 -519 141 -925 171 -1170 77
-643 233 -1257 469 -1840 38 -96 70 -186 70 -201 0 -34 263 -445 328 -513 93
-97 210 -122 322 -70 64 30 140 89 140 110 0 8 -24 56 -53 107 -129 222 -370
633 -378 642 -4 6 -18 56 -29 110 -18 79 -32 117 -70 180 -39 65 -57 111 -93
245 -149 541 -280 1140 -371 1698 -96 582 -116 829 -112 1375 3 441 -1 480
-60 557 -101 133 -271 210 -464 210 -41 0 -176 -9 -300 -20 -171 -15 -226 -16
-232 -7 -10 17 2 462 17 582 2 17 7 75 10 130 4 55 9 103 12 108 10 18 2 213
-12 273 -30 130 -119 253 -228 317 -51 30 -53 31 -121 10z"/>
</g>
</svg>
