<?xml version="1.0" standalone="no"?>
<!DOCTYPE svg PUBLIC "-//W3C//DTD SVG 20010904//EN"
 "http://www.w3.org/TR/2001/REC-SVG-20010904/DTD/svg10.dtd">
<svg version="1.0" xmlns="http://www.w3.org/2000/svg"
 width="1024.000000pt" height="1024.000000pt" viewBox="0 0 1024.000000 1024.000000"
 preserveAspectRatio="xMidYMid meet">
<metadata>
Created by potrace 1.10, written by Peter Selinger 2001-2011
</metadata>
<g transform="translate(0.000000,1024.000000) scale(0.100000,-0.100000)"
fill="#000000" stroke="none">
<path d="M4550 9131 c-19 -4 -61 -19 -93 -34 l-58 -26 15 -30 c9 -16 38 -45
65 -65 146 -108 256 -287 313 -511 23 -89 23 -99 23 -657 0 -312 -3 -569 -5
-571 -3 -3 -278 -43 -611 -89 l-607 -84 -34 32 c-19 17 -54 38 -79 47 -78 28
-463 137 -484 137 -24 0 -115 -42 -156 -71 -40 -28 -36 -45 17 -65 76 -29 179
-168 254 -342 86 -202 112 -374 125 -847 3 -104 8 -235 10 -290 2 -55 7 -176
10 -270 3 -93 7 -224 10 -290 5 -121 10 -287 20 -580 3 -88 7 -207 10 -265 3
-58 7 -188 10 -290 11 -379 27 -490 83 -594 37 -69 59 -80 134 -72 167 17 260
136 262 331 1 79 -12 463 -19 560 -2 28 -6 131 -10 230 -3 99 -8 209 -10 245
-2 36 -7 146 -10 245 -3 99 -8 207 -10 240 -3 33 -7 141 -10 240 -3 99 -8 212
-10 250 -2 39 -7 144 -10 235 -3 91 -8 203 -10 250 -2 47 -7 144 -10 215 -2
72 -8 189 -11 261 l-6 131 34 6 c18 4 265 40 548 82 283 41 528 78 544 81 l28
6 -6 -913 c-4 -503 -9 -1083 -11 -1289 -2 -206 -7 -766 -10 -1245 -3 -478 -8
-951 -10 -1050 -10 -324 -35 -552 -80 -735 -48 -192 -58 -267 -52 -400 7 -159
32 -249 127 -444 72 -150 97 -180 158 -192 25 -5 38 3 105 61 82 73 98 101
121 214 26 125 33 243 41 706 4 176 8 370 10 430 2 61 7 265 10 455 3 190 8
397 10 460 2 63 7 259 10 435 3 176 8 381 10 455 2 74 7 272 10 440 3 168 7
368 10 445 2 77 7 286 10 465 4 179 8 368 10 420 2 52 7 268 10 480 4 212 8
410 10 440 2 30 4 139 5 242 l3 186 51 6 c28 3 78 8 111 11 33 4 76 8 95 10
19 2 82 9 140 15 119 12 157 16 287 30 275 30 321 25 389 -44 76 -75 78 -92
70 -596 -7 -438 -8 -476 -27 -805 -49 -869 -167 -1315 -349 -1315 -51 0 -199
54 -358 131 -81 39 -155 72 -164 74 -40 9 -26 -22 45 -94 41 -42 175 -191 297
-331 162 -187 232 -275 261 -330 86 -163 144 -191 267 -129 156 78 281 317
361 689 23 108 56 339 66 450 3 41 8 98 10 125 14 168 18 381 20 955 3 689 6
743 56 905 25 81 47 128 118 245 28 47 51 97 51 111 0 33 -67 126 -138 192
-61 56 -208 154 -307 203 -61 30 -81 35 -141 35 -60 0 -82 -5 -145 -34 -159
-74 -336 -116 -559 -131 -82 -6 -210 -18 -394 -36 -50 -5 -92 -7 -95 -5 -6 6
-2 696 5 810 14 252 16 265 67 533 l34 172 -26 27 c-36 36 -220 122 -381 178
-232 80 -396 112 -480 96z"/>
</g>
</svg>
