<?xml version="1.0" standalone="no"?>
<!DOCTYPE svg PUBLIC "-//W3C//DTD SVG 20010904//EN"
 "http://www.w3.org/TR/2001/REC-SVG-20010904/DTD/svg10.dtd">
<svg version="1.0" xmlns="http://www.w3.org/2000/svg"
 width="1024.000000pt" height="1024.000000pt" viewBox="0 0 1024.000000 1024.000000"
 preserveAspectRatio="xMidYMid meet">
<metadata>
Created by potrace 1.10, written by Peter Selinger 2001-2011
</metadata>
<g transform="translate(0.000000,1024.000000) scale(0.100000,-0.100000)"
fill="#000000" stroke="none">
<path d="M7225 7993 c-11 -2 -67 -45 -124 -96 -77 -68 -123 -118 -172 -190
-185 -269 -304 -502 -430 -842 -111 -297 -149 -454 -179 -734 -72 -686 48
-1398 349 -2071 99 -220 269 -535 387 -717 396 -611 1005 -1164 1739 -1578 66
-37 137 -83 159 -103 47 -42 135 -82 181 -82 48 0 84 35 100 95 6 27 10 58 7
68 -6 23 -6 23 -387 248 -170 100 -341 205 -380 233 -494 355 -981 859 -1287
1331 -76 118 -177 294 -241 420 -48 96 -267 746 -311 920 -33 135 -61 282 -83
445 -22 169 -26 692 -5 835 43 297 131 612 222 795 213 429 301 563 518 790
120 125 127 172 32 220 -38 19 -54 22 -95 13z"/>
<path d="M3380 7537 c-40 -20 -72 -76 -64 -112 7 -36 47 -81 80 -89 21 -6 84
-83 84 -104 0 -5 11 -25 24 -44 13 -20 29 -53 36 -74 7 -22 21 -49 32 -60 25
-28 152 -550 175 -723 13 -96 17 -202 17 -441 0 -273 -3 -336 -22 -475 -99
-704 -311 -1215 -871 -2100 -185 -292 -412 -569 -701 -853 -255 -251 -505
-433 -810 -589 -140 -72 -175 -100 -185 -144 -9 -42 30 -121 68 -133 36 -13
74 1 222 81 252 137 541 346 764 552 433 400 977 1135 1276 1726 460 908 593
1689 439 2579 -36 212 -140 584 -173 620 -11 13 -20 41 -23 71 -17 183 -243
375 -368 312z"/>
</g>
</svg>
