<?xml version="1.0" standalone="no"?>
<!DOCTYPE svg PUBLIC "-//W3C//DTD SVG 20010904//EN"
 "http://www.w3.org/TR/2001/REC-SVG-20010904/DTD/svg10.dtd">
<svg version="1.0" xmlns="http://www.w3.org/2000/svg"
 width="1024.000000pt" height="1024.000000pt" viewBox="0 0 1024.000000 1024.000000"
 preserveAspectRatio="xMidYMid meet">
<metadata>
Created by potrace 1.10, written by Peter Selinger 2001-2011
</metadata>
<g transform="translate(0.000000,1024.000000) scale(0.100000,-0.100000)"
fill="#000000" stroke="none">
<path d="M5373 6958 c-38 -18 -29 -41 29 -79 37 -24 622 -752 780 -971 41 -56
150 -209 243 -338 636 -886 1421 -1899 1520 -1960 19 -12 48 -25 66 -30 35
-10 1182 72 1261 91 47 11 98 42 98 60 0 12 -53 45 -245 152 -463 258 -963
597 -1211 822 -312 282 -651 612 -1354 1316 -472 474 -927 899 -993 929 -47
22 -157 26 -194 8z"/>
<path d="M3457 6608 c-14 -12 -11 -33 43 -243 43 -163 58 -240 54 -265 -11
-66 -47 -165 -97 -265 -132 -266 -687 -1091 -961 -1430 -263 -326 -538 -615
-726 -763 -118 -93 -158 -130 -203 -186 l-31 -39 55 5 c143 13 467 193 773
432 488 381 1029 957 1427 1521 71 101 372 479 390 490 21 14 59 110 59 153 0
65 -41 135 -134 226 -138 138 -398 323 -507 361 -51 18 -120 19 -142 3z"/>
</g>
</svg>
