<?xml version="1.0" standalone="no"?>
<!DOCTYPE svg PUBLIC "-//W3C//DTD SVG 20010904//EN"
 "http://www.w3.org/TR/2001/REC-SVG-20010904/DTD/svg10.dtd">
<svg version="1.0" xmlns="http://www.w3.org/2000/svg"
 width="1024.000000pt" height="1024.000000pt" viewBox="0 0 1024.000000 1024.000000"
 preserveAspectRatio="xMidYMid meet">
<metadata>
Created by potrace 1.10, written by Peter Selinger 2001-2011
</metadata>
<g transform="translate(0.000000,1024.000000) scale(0.100000,-0.100000)"
fill="#000000" stroke="none">
<path d="M6240 7893 c-28 -10 -79 -66 -85 -94 -4 -17 20 -150 65 -356 39 -180
143 -661 231 -1068 88 -407 178 -810 200 -895 166 -642 491 -1356 897 -1975
305 -465 621 -814 1044 -1152 223 -178 258 -194 345 -152 76 37 89 81 40 132
-57 58 -209 188 -272 232 -214 149 -502 421 -668 630 -219 274 -482 701 -677
1097 -249 505 -450 1053 -586 1603 -36 146 -336 1651 -359 1801 -9 58 -59 139
-107 174 -43 31 -44 32 -68 23z"/>
<path d="M3799 7872 c-15 -2 -35 -12 -44 -22 -28 -31 -118 -538 -155 -866 -37
-335 -73 -543 -145 -832 -106 -430 -136 -514 -463 -1347 -274 -697 -336 -843
-497 -1165 -172 -345 -252 -478 -687 -1133 -323 -485 -438 -666 -438 -687 0
-35 31 -60 75 -60 25 0 46 17 130 103 177 181 396 454 555 692 41 61 142 238
225 395 83 157 219 413 303 570 117 222 206 412 402 860 139 316 276 639 306
717 92 246 190 560 253 814 60 241 66 276 221 1251 22 141 54 305 70 363 33
117 38 188 15 242 -27 65 -82 111 -126 105z"/>
</g>
</svg>
