<?xml version="1.0" standalone="no"?>
<!DOCTYPE svg PUBLIC "-//W3C//DTD SVG 20010904//EN"
 "http://www.w3.org/TR/2001/REC-SVG-20010904/DTD/svg10.dtd">
<svg version="1.0" xmlns="http://www.w3.org/2000/svg"
 width="1024.000000pt" height="1024.000000pt" viewBox="0 0 1024.000000 1024.000000"
 preserveAspectRatio="xMidYMid meet">
<metadata>
Created by potrace 1.10, written by Peter Selinger 2001-2011
</metadata>
<g transform="translate(0.000000,1024.000000) scale(0.100000,-0.100000)"
fill="#000000" stroke="none">
<path d="M4497 7699 c-44 -26 20 -114 107 -148 28 -11 77 -27 110 -36 247 -69
502 -289 728 -631 36 -54 153 -252 260 -439 107 -187 221 -385 253 -440 32
-55 125 -217 208 -360 911 -1579 1492 -2513 1696 -2729 162 -169 451 -212
1176 -171 143 8 281 15 308 15 26 0 47 3 46 8 -2 21 -217 187 -346 266 -373
230 -754 515 -1003 752 -47 45 -101 95 -121 113 -21 17 -98 98 -172 179 -543
592 -1050 1278 -1848 2499 -327 500 -497 713 -703 877 -110 89 -274 175 -416
221 -96 31 -252 44 -283 24z"/>
<path d="M3343 6274 c-20 -9 -16 -36 16 -118 16 -41 41 -127 56 -191 24 -106
26 -122 15 -183 -34 -194 -184 -488 -608 -1192 -323 -535 -520 -821 -842
-1225 -263 -328 -470 -551 -663 -712 -90 -75 -214 -209 -204 -220 14 -14 104
12 194 56 334 163 644 408 1033 817 376 394 857 1032 1196 1584 49 80 167 254
262 388 95 134 183 265 196 291 30 58 50 159 42 205 -23 121 -287 367 -501
468 -67 31 -160 46 -192 32z"/>
</g>
</svg>
