<?xml version="1.0" standalone="no"?>
<!DOCTYPE svg PUBLIC "-//W3C//DTD SVG 20010904//EN"
 "http://www.w3.org/TR/2001/REC-SVG-20010904/DTD/svg10.dtd">
<svg version="1.0" xmlns="http://www.w3.org/2000/svg"
 width="1024.000000pt" height="1024.000000pt" viewBox="0 0 1024.000000 1024.000000"
 preserveAspectRatio="xMidYMid meet">
<metadata>
Created by potrace 1.10, written by Peter Selinger 2001-2011
</metadata>
<g transform="translate(0.000000,1024.000000) scale(0.100000,-0.100000)"
fill="#000000" stroke="none">
<path d="M3927 8478 c-19 -19 -26 -46 -40 -153 -24 -183 -37 -374 -37 -555 0
-85 -7 -308 -15 -496 l-15 -341 -70 -434 c-114 -701 -118 -725 -160 -888 -76
-303 -197 -640 -325 -906 -102 -213 -764 -1371 -903 -1580 -201 -301 -441
-616 -676 -883 -129 -147 -409 -395 -549 -486 -123 -81 -191 -147 -208 -206
-10 -33 -9 -41 16 -78 23 -35 34 -42 73 -48 55 -8 122 7 172 40 61 40 952 953
1050 1076 187 233 374 505 538 780 93 158 605 1121 703 1325 128 264 260 631
339 937 39 155 187 1007 209 1213 25 226 41 478 51 800 5 187 15 423 20 525 8
124 8 196 1 218 -24 80 -93 162 -135 162 -10 0 -27 -10 -39 -22z"/>
<path d="M6577 8390 c-14 -11 -38 -45 -53 -75 l-27 -55 8 -1328 7 -1327 38
-325 c40 -335 62 -452 139 -717 102 -352 259 -751 345 -876 23 -34 82 -136
131 -227 263 -495 642 -901 1138 -1216 249 -159 557 -300 827 -380 80 -23 138
-47 161 -65 48 -37 129 -63 173 -55 21 4 45 19 60 36 28 34 43 108 28 136 -7
13 -146 72 -429 183 -230 90 -452 182 -493 204 -518 278 -1012 774 -1330 1336
-69 122 -180 360 -180 386 0 11 -15 57 -34 101 -89 211 -186 530 -235 772 -41
200 -56 314 -91 679 l-30 313 0 1037 c0 853 3 1056 15 1138 26 182 14 251 -57
315 -38 35 -75 38 -111 10z"/>
<path d="M10053 3 c9 -2 23 -2 30 0 6 3 -1 5 -18 5 -16 0 -22 -2 -12 -5z"/>
</g>
</svg>
