<?xml version="1.0" standalone="no"?>
<!DOCTYPE svg PUBLIC "-//W3C//DTD SVG 20010904//EN"
 "http://www.w3.org/TR/2001/REC-SVG-20010904/DTD/svg10.dtd">
<svg version="1.0" xmlns="http://www.w3.org/2000/svg"
 width="1024.000000pt" height="1024.000000pt" viewBox="0 0 1024.000000 1024.000000"
 preserveAspectRatio="xMidYMid meet">
<metadata>
Created by potrace 1.10, written by Peter Selinger 2001-2011
</metadata>
<g transform="translate(0.000000,1024.000000) scale(0.100000,-0.100000)"
fill="#000000" stroke="none">
<path d="M6350 7503 c-65 -12 -97 -103 -110 -313 -5 -80 -12 -194 -16 -255
-11 -194 19 -456 82 -705 190 -746 504 -1560 859 -2231 247 -467 407 -719 674
-1063 284 -366 551 -632 900 -895 66 -50 153 -128 197 -176 109 -120 145 -135
223 -96 54 28 69 67 46 123 -38 96 -86 146 -255 266 -196 140 -343 267 -530
458 -475 486 -837 1002 -1136 1618 -96 198 -574 1373 -628 1546 -150 473 -236
1116 -181 1350 23 97 30 210 15 255 -12 36 -91 127 -107 124 -5 -1 -19 -4 -33
-6z"/>
<path d="M3885 7386 c-16 -7 -38 -22 -48 -34 -17 -19 -17 -24 -2 -98 25 -117
34 -284 24 -415 -19 -254 -130 -721 -263 -1109 -46 -132 -492 -1204 -594
-1425 -253 -553 -601 -1159 -882 -1540 -187 -254 -511 -643 -572 -688 -17 -12
-52 -50 -80 -85 -36 -47 -76 -81 -148 -128 -101 -65 -138 -102 -165 -167 -31
-75 -9 -130 58 -142 25 -5 53 1 110 26 76 31 81 36 330 293 339 352 523 574
753 916 139 206 156 235 481 835 l304 560 259 600 c142 330 281 663 310 740
91 247 197 623 249 885 37 188 111 659 111 708 0 111 -61 217 -152 263 -44 22
-44 22 -83 5z"/>
</g>
</svg>
