<?xml version="1.0" standalone="no"?>
<!DOCTYPE svg PUBLIC "-//W3C//DTD SVG 20010904//EN"
 "http://www.w3.org/TR/2001/REC-SVG-20010904/DTD/svg10.dtd">
<svg version="1.0" xmlns="http://www.w3.org/2000/svg"
 width="1024.000000pt" height="1024.000000pt" viewBox="0 0 1024.000000 1024.000000"
 preserveAspectRatio="xMidYMid meet">
<metadata>
Created by potrace 1.10, written by Peter Selinger 2001-2011
</metadata>
<g transform="translate(0.000000,1024.000000) scale(0.100000,-0.100000)"
fill="#000000" stroke="none">
<path d="M5914 9886 c-49 -35 -1071 -625 -2272 -1310 -2133 -1217 -2185 -1247
-2255 -1257 -115 -18 -118 -19 -147 -48 -21 -20 -33 -25 -44 -19 -22 12 -44 3
-84 -33 -41 -37 -48 -76 -28 -149 16 -57 698 -5607 720 -5852 6 -75 14 -140
18 -143 14 -15 3268 -847 3330 -852 66 -6 68 -5 102 29 24 24 68 48 145 77
119 47 3467 1769 3522 1812 l34 27 3 188 c1 104 40 1487 87 3073 l85 2883 -24
70 c-14 38 -33 76 -43 83 -44 34 -278 168 -380 219 -61 30 -635 300 -1275 600
-640 299 -1192 558 -1228 575 -36 17 -78 31 -93 31 -19 0 -39 10 -57 30 l-27
29 -89 -63z m291 -286 c77 -37 613 -289 1190 -561 578 -271 1052 -496 1055
-499 3 -3 21 -12 40 -20 50 -19 200 -102 200 -111 0 -4 -793 -436 -1762 -960
-1335 -723 -1779 -959 -1835 -975 -41 -12 -82 -29 -91 -37 -9 -9 -29 -18 -43
-22 -16 -4 -588 121 -1660 365 -899 204 -1638 372 -1642 373 -15 5 2353 1360
3585 2052 398 224 656 375 705 414 57 44 83 59 98 55 11 -4 83 -37 160 -74z
m2649 -2005 c-27 -732 -154 -5065 -154 -5222 l0 -101 -417 -213 c-230 -116
-596 -303 -813 -414 -794 -407 -2122 -1077 -2126 -1073 -2 3 -60 1257 -128
2787 l-125 2783 29 31 c15 18 36 42 47 54 14 18 3705 2027 3709 2020 0 -1 -10
-294 -22 -652z m-7281 -656 c49 -15 179 -49 290 -74 406 -92 2997 -701 3001
-706 3 -3 28 -457 56 -1009 38 -765 54 -1014 65 -1043 17 -42 19 -94 5 -152
-6 -27 16 -585 69 -1755 43 -943 76 -1717 75 -1719 -3 -3 -3101 767 -3111 773
-1 1 -7 111 -13 246 -10 225 -37 445 -331 2744 -176 1375 -324 2547 -330 2605
-6 58 -7 120 -4 138 l6 32 67 -25 c37 -14 107 -39 155 -55z"/>
<path d="M1647 6570 l-38 -39 51 -483 c27 -266 53 -493 55 -506 4 -16 -1 -29
-14 -40 -11 -9 -23 -29 -26 -43 -6 -24 -1 -28 52 -52 32 -14 98 -34 147 -43
77 -15 101 -16 182 -6 102 13 76 16 1989 -224 454 -56 606 -72 623 -64 13 5
32 10 42 10 11 0 20 3 20 8 1 4 5 27 10 52 6 29 4 125 -6 269 -10 162 -12 250
-5 319 12 111 1 187 -34 248 -48 82 -131 132 -201 120 -19 -3 -49 -8 -66 -11
-37 -6 -2010 375 -2433 469 -137 31 -263 56 -280 56 -22 -1 -41 -12 -68 -40z
m1318 -390 c851 -166 1155 -229 1231 -255 112 -39 183 -45 237 -19 29 14 37
14 68 1 l35 -14 12 -169 c6 -93 14 -256 18 -363 l6 -194 -34 7 c-52 9 -2571
376 -2602 378 -18 2 -28 9 -31 23 -5 20 -115 818 -115 829 0 4 10 4 23 1 12
-3 531 -104 1152 -225z"/>
<path d="M2931 5860 c-33 -8 -65 -52 -57 -78 10 -30 118 -99 184 -118 41 -12
81 -15 151 -12 83 4 101 9 135 31 21 15 45 27 52 27 7 0 21 14 30 31 29 56 11
63 -246 96 -124 16 -236 26 -249 23z"/>
<path d="M1750 5222 c0 -27 101 -926 104 -929 2 -2 603 -89 1337 -194 983
-140 1338 -188 1349 -180 54 38 69 41 156 33 95 -9 96 -8 107 58 4 19 -4 208
-17 420 -15 262 -19 392 -13 407 16 37 -13 58 -106 77 -45 9 -332 43 -637 76
-305 33 -863 94 -1240 135 -377 42 -748 82 -825 90 -77 9 -157 18 -177 21 -33
5 -38 3 -38 -14z m1535 -233 c710 -106 1293 -195 1296 -198 6 -6 50 -703 45
-708 -1 -1 -573 74 -1272 168 -698 93 -1281 168 -1296 166 -16 -2 -28 -1 -28
2 -1 3 -20 179 -43 389 l-43 384 26 -5 c14 -3 605 -92 1315 -198z"/>
<path d="M3015 4760 c-67 -25 -70 -102 -7 -138 60 -33 141 -52 221 -52 108 1
151 13 183 52 25 31 26 34 10 50 -21 22 -378 98 -407 88z"/>
<path d="M1923 4220 c-12 -5 -29 -22 -37 -39 -15 -28 -12 -61 34 -468 28 -241
52 -446 53 -456 2 -23 64 -56 162 -87 57 -18 97 -23 220 -25 124 -2 341 -27
1233 -140 l1084 -137 24 23 c23 21 28 22 100 13 72 -10 77 -9 84 10 4 12 3 29
-2 39 -14 28 -50 660 -43 759 8 105 20 97 -172 123 -73 10 -133 22 -133 26 0
8 -91 21 -175 24 -33 1 -555 63 -1160 136 l-1100 133 -66 38 c-71 41 -73 41
-106 28z m1446 -390 c701 -93 1277 -172 1280 -176 3 -3 15 -137 26 -297 18
-267 19 -292 4 -295 -9 -2 -572 65 -1251 147 -679 83 -1249 151 -1266 151 -24
0 -32 5 -32 18 0 9 -14 147 -30 306 -35 334 -34 316 -17 316 7 0 586 -76 1286
-170z"/>
<path d="M2997 3643 c-18 -5 -47 -51 -47 -76 0 -23 30 -43 130 -85 187 -79
314 -106 367 -78 37 18 73 62 73 86 0 26 -32 37 -215 75 -93 19 -179 39 -190
45 -27 12 -97 40 -99 39 0 -1 -9 -3 -19 -6z"/>
<path d="M1994 3038 c-5 -8 64 -791 72 -817 3 -10 9 -8 22 7 l17 21 314 -52
c188 -31 316 -48 318 -42 2 6 7 15 11 21 5 8 310 -20 1084 -99 593 -61 1079
-109 1082 -106 9 8 -27 734 -37 740 -16 11 -152 30 -168 24 -14 -5 -2472 273
-2627 298 -46 8 -85 10 -88 5z m1480 -333 c682 -80 1242 -148 1245 -151 3 -3
7 -116 10 -251 l3 -246 -48 6 c-27 3 -589 71 -1248 152 -660 80 -1200 146
-1201 148 -1 1 -13 113 -26 249 l-25 247 26 -5 c14 -2 583 -69 1264 -149z"/>
<path d="M3050 2561 c-30 -8 -49 -54 -34 -79 18 -29 130 -82 206 -98 145 -31
276 2 323 79 40 68 28 73 -205 92 -208 16 -251 17 -290 6z"/>
<path d="M2080 2128 c0 -18 5 -73 12 -123 6 -49 11 -187 12 -305 1 -178 4
-220 17 -240 10 -16 14 -40 11 -66 -3 -35 1 -47 25 -74 l30 -33 144 -12 c119
-11 337 -53 1234 -239 600 -124 1105 -233 1123 -242 21 -12 56 -17 105 -17
110 0 134 9 158 55 l20 39 -21 402 c-20 360 -24 404 -41 426 -13 16 -19 40
-19 72 0 27 -3 49 -7 49 -20 -1 -2220 252 -2233 257 -8 3 -32 7 -52 9 -21 2
-144 20 -274 39 -129 19 -237 35 -240 35 -2 0 -4 -15 -4 -32z m315 -168 c51
-11 434 -55 875 -100 432 -44 848 -87 925 -95 77 -8 232 -24 345 -36 113 -12
206 -22 207 -23 1 -1 7 -83 14 -181 7 -114 9 -245 4 -357 l-7 -176 -42 14
c-33 11 -2399 454 -2425 454 -4 0 -5 64 -3 143 3 102 0 168 -12 235 -9 50 -16
106 -16 122 0 26 3 30 23 25 12 -3 63 -14 112 -25z"/>
<path d="M3118 1599 c-40 -15 -53 -67 -24 -92 36 -31 114 -67 179 -84 73 -18
213 -13 269 10 56 24 107 102 88 136 -8 16 -31 19 -182 25 -95 3 -202 8 -238
11 -36 3 -77 0 -92 -6z"/>
</g>
</svg>
