<?xml version="1.0" standalone="no"?>
<!DOCTYPE svg PUBLIC "-//W3C//DTD SVG 20010904//EN"
 "http://www.w3.org/TR/2001/REC-SVG-20010904/DTD/svg10.dtd">
<svg version="1.0" xmlns="http://www.w3.org/2000/svg"
 width="1024.000000pt" height="1024.000000pt" viewBox="0 0 1024.000000 1024.000000"
 preserveAspectRatio="xMidYMid meet">
<metadata>
Created by potrace 1.10, written by Peter Selinger 2001-2011
</metadata>
<g transform="translate(0.000000,1024.000000) scale(0.100000,-0.100000)"
fill="#000000" stroke="none">
<path d="M8050 8474 c-89 -3 -3986 -42 -5959 -59 l-593 -6 -48 -24 c-91 -46
-125 -118 -77 -163 29 -27 102 -59 153 -68 24 -3 74 1 120 10 63 12 183 16
579 21 275 3 610 8 744 11 l244 6 -26 -31 c-32 -38 -55 -138 -67 -286 -22
-260 -131 -2283 -131 -2410 1 -174 14 -328 53 -604 34 -250 63 -367 122 -507
55 -131 120 -226 216 -318 122 -116 265 -184 434 -206 45 -6 592 -49 1216 -96
l1135 -85 399 -70 c434 -76 547 -106 700 -184 122 -62 206 -124 306 -225 109
-109 162 -189 295 -435 103 -192 144 -298 145 -373 0 -12 15 -73 34 -135 74
-245 122 -525 133 -776 4 -109 12 -175 27 -230 l22 -76 100 -3 101 -3 6 37 c7
41 -43 521 -73 713 -55 341 -160 666 -323 1003 -97 200 -179 321 -297 438
-201 201 -398 300 -785 396 -465 115 -1026 208 -1500 248 -323 28 -543 36
-955 36 -422 0 -478 4 -648 45 -174 42 -245 77 -332 164 -42 42 -93 105 -115
141 -35 58 -42 81 -66 220 -15 85 -39 209 -53 275 -57 274 -80 525 -73 809 2
111 32 657 66 1214 52 863 64 1021 80 1070 39 114 35 161 -16 214 l-27 28 185
0 c849 0 5281 42 5311 50 83 23 118 123 60 172 -28 23 -38 25 -283 36 -360 18
-421 19 -539 16z"/>
</g>
</svg>
