<?xml version="1.0" standalone="no"?>
<!DOCTYPE svg PUBLIC "-//W3C//DTD SVG 20010904//EN"
 "http://www.w3.org/TR/2001/REC-SVG-20010904/DTD/svg10.dtd">
<svg version="1.0" xmlns="http://www.w3.org/2000/svg"
 width="1024.000000pt" height="1024.000000pt" viewBox="0 0 1024.000000 1024.000000"
 preserveAspectRatio="xMidYMid meet">
<metadata>
Created by potrace 1.10, written by Peter Selinger 2001-2011
</metadata>
<g transform="translate(0.000000,1024.000000) scale(0.100000,-0.100000)"
fill="#000000" stroke="none">
<path d="M7870 8619 c-53 -13 -315 -39 -3075 -314 l-2560 -255 -175 20 c-96
12 -240 29 -320 39 -80 10 -146 17 -148 16 -2 -2 2 -39 8 -84 l12 -81 162
-111 c88 -62 169 -121 178 -133 25 -30 76 -165 104 -273 49 -193 57 -334 50
-843 -3 -256 -10 -575 -16 -710 -5 -135 -15 -357 -20 -495 -14 -328 -59 -1039
-115 -1815 l-46 -625 -56 -290 c-46 -241 -61 -301 -88 -355 -47 -92 -68 -173
-63 -236 6 -66 40 -113 200 -275 170 -172 214 -182 348 -83 92 67 226 113 445
150 70 12 797 66 3110 234 302 22 599 40 660 40 60 0 517 -16 1015 -36 503
-20 961 -33 1030 -31 181 8 275 46 300 122 10 30 9 41 -7 73 -21 40 -84 93
-160 132 -26 14 -69 38 -95 53 -62 37 -199 92 -290 117 -151 40 -207 41 -732
15 -270 -13 -736 -36 -1036 -50 -592 -28 -488 -19 -3113 -280 -752 -75 -1064
-102 -1077 -95 -10 5 -21 18 -25 29 -4 15 73 1129 139 1996 8 105 65 881 127
1726 l112 1536 -21 44 c-12 24 -42 65 -68 91 -32 32 -42 49 -33 52 45 15 1157
217 1264 231 72 8 182 22 245 30 63 8 158 19 210 25 52 6 167 20 255 30 88 10
205 24 260 29 55 6 231 24 390 40 823 85 1489 130 2050 138 334 5 439 2 728
-16 187 -12 352 -19 367 -16 73 16 114 92 86 159 -8 20 -55 77 -105 128 -86
89 -94 95 -203 142 -174 75 -170 74 -208 65z"/>
</g>
</svg>
