<?xml version="1.0" standalone="no"?>
<!DOCTYPE svg PUBLIC "-//W3C//DTD SVG 20010904//EN"
 "http://www.w3.org/TR/2001/REC-SVG-20010904/DTD/svg10.dtd">
<svg version="1.0" xmlns="http://www.w3.org/2000/svg"
 width="1024.000000pt" height="1024.000000pt" viewBox="0 0 1024.000000 1024.000000"
 preserveAspectRatio="xMidYMid meet">
<metadata>
Created by potrace 1.10, written by Peter Selinger 2001-2011
</metadata>
<g transform="translate(0.000000,1024.000000) scale(0.100000,-0.100000)"
fill="#000000" stroke="none">
<path d="M5015 9139 c-16 -5 -62 -39 -101 -76 l-72 -68 -1062 -1995 c-761
-1430 -1073 -2006 -1101 -2035 -66 -70 -151 -264 -179 -412 -6 -32 -15 -114
-20 -183 -5 -69 -14 -168 -21 -220 -13 -113 -6 -336 15 -466 27 -158 233
-1035 266 -1129 195 -554 645 -1041 1185 -1282 203 -91 486 -167 735 -198 252
-31 597 -17 835 34 114 24 646 219 745 273 121 65 345 218 490 334 416 333
720 733 1044 1374 169 333 257 571 316 848 44 210 44 214 30 192 -7 -12 -10
-8 -10 15 -1 171 -48 444 -104 615 -19 58 -38 128 -42 155 -3 28 -24 85 -45
127 -22 43 -39 88 -39 101 0 21 -14 48 -97 182 -17 28 -35 68 -39 90 -4 24
-38 89 -86 163 -47 74 -107 187 -150 285 -39 89 -83 180 -96 201 -33 54 -108
132 -159 167 -24 17 -73 73 -115 131 -41 57 -469 650 -952 1318 -803 1111
-889 1226 -1000 1340 -66 69 -125 126 -131 127 -5 1 -23 -3 -40 -8z m630
-1114 c318 -434 787 -1076 1043 -1425 255 -349 474 -643 486 -653 11 -11 40
-51 63 -90 60 -102 553 -1120 553 -1143 0 -11 16 -82 36 -159 33 -128 37 -155
41 -317 3 -97 2 -193 -1 -212 l-7 -36 -72 0 c-40 0 -297 -16 -572 -35 -723
-50 -694 -49 -1285 -26 -294 12 -1028 41 -1631 65 l-1096 43 -154 -24 c-143
-22 -288 -27 -306 -10 -3 4 14 165 37 359 l43 353 125 250 c68 138 262 498
430 800 168 303 539 1000 824 1550 670 1289 627 1207 648 1230 9 11 52 87 95
168 l78 149 22 -24 c12 -12 283 -378 600 -813z m-218 -4287 l2041 -53 177 34
c97 18 179 30 182 27 15 -15 -97 -264 -280 -625 -278 -546 -399 -724 -686
-1012 -201 -201 -314 -288 -563 -436 -308 -182 -503 -262 -781 -323 -460 -101
-901 -74 -1374 86 -400 135 -700 373 -957 759 -83 124 -203 366 -250 502 -54
157 -203 827 -212 949 l-6 101 53 6 c30 4 92 7 139 7 47 1 126 9 175 20 67 14
117 18 195 15 58 -3 1024 -28 2147 -57z"/>
<path d="M6734 4394 c4 -9 11 -36 17 -60 6 -24 15 -44 20 -44 4 0 -1 27 -13
60 -11 33 -22 60 -25 60 -3 0 -2 -7 1 -16z"/>
</g>
</svg>
