<?xml version="1.0" standalone="no"?>
<!DOCTYPE svg PUBLIC "-//W3C//DTD SVG 20010904//EN"
 "http://www.w3.org/TR/2001/REC-SVG-20010904/DTD/svg10.dtd">
<svg version="1.0" xmlns="http://www.w3.org/2000/svg"
 width="1024.000000pt" height="1024.000000pt" viewBox="0 0 1024.000000 1024.000000"
 preserveAspectRatio="xMidYMid meet">
<metadata>
Created by potrace 1.10, written by Peter Selinger 2001-2011
</metadata>
<g transform="translate(0.000000,1024.000000) scale(0.100000,-0.100000)"
fill="#000000" stroke="none">
<path d="M4696 7787 c-16 -12 -15 -18 17 -92 19 -44 43 -112 53 -151 l18 -71
-38 -129 c-49 -167 -357 -821 -483 -1023 -45 -74 -85 -136 -87 -139 -3 -2 -51
-13 -107 -23 -100 -18 -103 -18 -133 0 -17 11 -93 36 -168 57 l-137 38 -66
-31 -66 -31 30 -34 c47 -54 187 -346 206 -430 39 -179 44 -274 75 -1568 l31
-1285 27 -89 c24 -81 31 -92 78 -132 61 -52 97 -57 142 -19 38 32 61 91 69
172 5 54 9 64 27 68 12 2 172 20 356 40 184 20 527 56 762 81 235 26 434 44
441 41 9 -3 17 -30 21 -78 9 -88 23 -123 66 -173 59 -67 132 -86 182 -46 46
35 66 104 93 317 l25 200 0 1184 c0 1308 6 1477 55 1650 14 47 25 91 25 97 0
6 -43 61 -96 124 -99 118 -168 172 -233 184 -53 10 -197 -22 -251 -56 -90 -57
-198 -90 -340 -105 -36 -4 -249 -33 -473 -66 -225 -33 -413 -59 -418 -57 -5 2
54 72 131 155 126 137 164 187 362 485 339 510 347 525 315 592 -38 82 -239
260 -361 321 -72 37 -120 44 -150 22z m1015 -1647 c10 -6 29 -30 41 -53 23
-42 23 -43 26 -604 l3 -562 -23 -6 c-13 -2 -210 -27 -438 -55 -228 -28 -595
-73 -814 -100 -220 -27 -401 -48 -402 -47 -6 5 -27 1157 -22 1162 8 9 1527
273 1571 274 21 1 47 -4 58 -9z m66 -1632 c-4 -95 -7 -409 -7 -699 l0 -525
-800 -94 c-440 -52 -802 -92 -804 -89 -6 6 -59 1379 -54 1385 6 5 1574 191
1627 193 l44 1 -6 -172z"/>
</g>
</svg>
