<?xml version="1.0" standalone="no"?>
<!DOCTYPE svg PUBLIC "-//W3C//DTD SVG 20010904//EN"
 "http://www.w3.org/TR/2001/REC-SVG-20010904/DTD/svg10.dtd">
<svg version="1.0" xmlns="http://www.w3.org/2000/svg"
 width="1024.000000pt" height="1024.000000pt" viewBox="0 0 1024.000000 1024.000000"
 preserveAspectRatio="xMidYMid meet">
<metadata>
Created by potrace 1.10, written by Peter Selinger 2001-2011
</metadata>
<g transform="translate(0.000000,1024.000000) scale(0.100000,-0.100000)"
fill="#000000" stroke="none">
<path d="M5305 9214 c-16 -2 -77 -9 -135 -15 -209 -22 -469 -84 -687 -164
-415 -153 -1030 -552 -1362 -884 -461 -461 -692 -1035 -727 -1806 -10 -240 7
-417 96 -962 71 -436 78 -489 64 -498 -9 -5 -54 -40 -101 -77 -46 -37 -94 -70
-106 -74 -12 -4 -70 -47 -129 -96 -116 -97 -158 -157 -158 -230 0 -98 50 -137
350 -272 163 -74 247 -117 257 -133 8 -13 41 -38 72 -57 31 -19 79 -61 108
-94 l51 -59 -22 -28 c-20 -25 -22 -34 -14 -84 5 -30 13 -60 18 -66 5 -6 12
-30 16 -53 6 -38 5 -41 -20 -48 -18 -4 -25 -11 -22 -20 3 -8 9 -20 12 -28 3
-8 -3 -19 -13 -24 -18 -10 -16 -32 49 -599 37 -323 75 -633 84 -688 57 -347
244 -796 401 -965 64 -69 152 -130 232 -159 31 -11 171 -40 312 -65 l255 -43
664 39 c365 21 667 42 670 46 3 4 32 16 65 26 280 85 502 271 630 526 15 30
73 129 128 220 171 279 314 656 431 1136 42 175 58 221 111 313 14 24 25 54
25 67 0 13 9 38 20 57 12 19 25 60 30 91 8 51 21 72 135 221 l125 164 98 55
c93 53 274 138 426 201 150 62 272 192 306 327 23 88 -23 171 -126 229 -28 16
-64 48 -79 70 l-28 40 81 167 c100 206 135 292 206 502 146 435 203 810 178
1168 -14 205 -30 294 -131 737 -70 309 -88 372 -151 535 -39 101 -87 214 -107
250 -150 270 -386 520 -662 702 -300 198 -665 318 -1171 384 -118 15 -675 29
-755 18z m155 -276 c0 -75 69 -114 129 -72 21 15 23 22 17 65 l-7 49 46 0 45
0 0 -42 c0 -76 58 -111 114 -67 20 16 26 29 26 58 0 21 2 40 4 42 3 2 25 3 50
1 l46 -4 0 -48 c0 -27 3 -51 8 -53 4 -3 21 -2 38 0 26 4 35 12 47 44 8 21 22
39 31 39 15 0 19 -10 31 -67 4 -23 13 -33 32 -38 28 -7 39 0 45 29 1 10 12 24
23 30 11 6 23 15 27 20 7 11 88 -10 88 -22 0 -4 -5 -26 -10 -50 -15 -62 -3
-69 32 -20 17 24 32 45 34 46 1 2 12 1 23 -3 15 -5 21 -15 21 -38 l1 -32 27
33 c30 35 37 37 91 21 l37 -11 -38 -38 c-21 -21 -38 -42 -38 -47 0 -9 75 -23
128 -23 28 0 49 46 33 71 -9 15 -5 15 29 7 l39 -10 -23 -47 -24 -47 65 -23
c71 -24 68 -25 99 32 8 15 17 27 20 27 2 0 36 -16 74 -35 l69 -35 -19 -42
c-11 -24 -20 -48 -20 -54 0 -6 26 -19 57 -27 l57 -17 31 29 c25 24 34 27 52
18 l23 -10 -30 -22 -31 -23 63 -35 c58 -33 64 -34 81 -19 16 15 19 14 39 -6
17 -16 19 -25 11 -33 -17 -17 84 -111 112 -104 13 3 32 -8 57 -32 35 -35 37
-38 21 -55 -15 -17 -15 -19 0 -36 10 -10 17 -26 17 -36 0 -39 19 -56 63 -56
41 0 44 -2 75 -54 l33 -54 -31 -31 c-20 -20 -30 -39 -28 -53 4 -27 62 -68 97
-68 22 -1 24 -2 9 -11 -47 -27 -3 -105 64 -115 29 -5 37 -12 46 -40 l10 -34
-35 0 c-71 0 -93 -31 -63 -90 20 -39 22 -40 113 -55 38 -6 54 -35 20 -35 -31
-1 -58 -50 -57 -102 0 -26 6 -54 13 -62 16 -19 62 -21 79 -4 6 6 14 9 18 6 6
-7 33 -118 28 -118 -2 0 -26 12 -53 27 -27 16 -52 26 -54 23 -3 -3 2 -42 11
-88 l16 -83 36 6 c19 4 40 11 46 16 8 7 14 -4 19 -38 3 -27 13 -58 21 -71 14
-21 13 -23 -16 -28 -30 -7 -70 -45 -70 -68 0 -21 54 -65 88 -72 21 -4 32 -12
32 -24 0 -10 3 -32 6 -50 6 -30 5 -32 -13 -22 -14 8 -31 8 -58 0 l-37 -12 7
-60 c3 -33 9 -64 11 -68 3 -4 27 -8 55 -8 l49 0 0 -56 c0 -37 -4 -53 -11 -48
-6 3 -26 -2 -45 -12 -33 -18 -34 -21 -34 -76 l0 -58 46 0 c38 0 45 -3 40 -16
-3 -9 -6 -43 -6 -76 l0 -60 -34 21 c-18 12 -36 21 -40 21 -3 0 -6 -27 -6 -60
0 -33 4 -60 10 -60 5 0 12 -16 16 -37 5 -27 3 -39 -9 -48 -13 -9 -64 -174 -55
-179 2 -1 15 -7 29 -13 21 -9 26 -17 22 -36 -4 -21 -12 -26 -54 -31 -76 -10
-93 -20 -108 -62 -13 -35 -12 -39 9 -56 12 -10 39 -21 60 -24 l38 -6 -15 -43
-14 -43 -54 1 c-40 1 -59 -4 -74 -18 -40 -35 -23 -82 39 -110 37 -17 39 -19
25 -35 -9 -10 -19 -34 -22 -54 -5 -33 -8 -36 -38 -36 l-33 0 -10 -67 c-6 -42
-6 -70 0 -74 9 -6 -10 -59 -21 -59 -3 1 -19 11 -35 24 -16 14 -36 22 -45 19
-13 -4 -13 -2 2 10 12 10 17 29 17 66 0 28 -3 51 -7 51 -4 0 -19 -12 -34 -26
-30 -29 -29 -29 -44 44 -6 27 -4 32 13 32 44 0 46 21 12 172 -34 148 -44 173
-67 164 -9 -4 -13 4 -13 25 0 17 6 32 15 35 10 4 15 20 15 45 0 37 -1 39 -33
39 -38 0 -57 15 -57 46 0 30 23 46 62 42 28 -2 34 1 36 20 2 14 -2 22 -12 22
-8 0 -30 16 -48 35 -32 34 -36 35 -125 41 l-93 7 0 -174 c0 -277 25 -438 105
-677 25 -74 45 -140 45 -146 0 -7 27 -68 60 -136 33 -68 60 -130 60 -138 0
-41 131 -184 227 -248 66 -43 55 -58 -15 -21 -34 18 -53 22 -70 16 l-22 -8 31
-51 c17 -28 30 -52 28 -53 -2 -2 -12 -8 -21 -15 -14 -11 -21 -10 -43 4 -24 16
-28 16 -65 -1 -22 -10 -40 -19 -40 -21 0 -1 4 -14 10 -28 8 -21 6 -27 -11 -37
-12 -6 -32 -8 -47 -3 -65 17 -131 -10 -112 -47 7 -12 7 -20 -1 -24 -13 -9 -14
-8 -33 38 -12 31 -20 38 -38 35 -18 -2 -25 -12 -31 -43 -16 -77 -23 -89 -64
-119 -38 -27 -45 -28 -70 -17 -25 12 -30 10 -51 -14 -18 -21 -20 -30 -11 -41
7 -8 10 -16 8 -17 -2 -2 -34 -29 -71 -60 -39 -34 -69 -54 -73 -47 -9 15 -36
12 -56 -6 -14 -13 -16 -20 -7 -40 16 -34 -12 -62 -65 -66 -33 -2 -44 -9 -56
-30 -14 -25 -14 -28 7 -45 l22 -18 -43 -57 c-34 -44 -46 -54 -59 -47 -32 18
-138 -49 -138 -87 0 -10 9 -27 20 -38 19 -21 19 -21 -14 -61 l-33 -39 -18 53
c-9 29 -19 51 -21 49 -2 -2 4 -28 14 -57 l16 -53 -34 -28 c-32 -26 -37 -27
-52 -13 -15 14 -21 11 -67 -28 -28 -23 -51 -45 -51 -49 0 -3 14 -19 30 -35 19
-19 30 -39 30 -57 0 -24 -4 -28 -27 -28 -40 1 -73 22 -95 61 l-19 34 6 -30 c5
-26 1 -33 -23 -47 -29 -17 -29 -19 -20 -69 11 -61 -1 -77 -42 -53 -34 21 -73
5 -100 -38 -28 -47 -25 -75 12 -110 31 -29 32 -31 13 -44 -27 -20 -31 -18 -81
22 -40 33 -47 36 -70 26 -13 -7 -27 -18 -30 -27 -5 -12 -9 -12 -29 1 -25 17
-52 13 -92 -13 l-21 -14 24 -55 c13 -30 24 -56 24 -58 0 -10 -69 31 -70 41 0
20 -52 55 -64 43 -5 -5 -16 -10 -24 -10 -22 0 -41 -31 -42 -67 0 -38 -12 -41
-66 -18 -41 17 -83 6 -91 -25 -3 -11 -7 -20 -10 -20 -2 0 -38 23 -79 51 -78
53 -96 55 -129 19 -11 -13 -16 -30 -13 -50 7 -45 -13 -38 -72 27 l-52 57 -30
-17 c-28 -16 -30 -16 -56 8 -32 30 -44 31 -83 8 -26 -16 -29 -22 -29 -70 l0
-53 -46 0 c-48 0 -73 17 -74 51 0 22 -61 68 -80 60 -42 -16 -62 -39 -55 -63
18 -61 19 -58 -24 -58 -34 0 -41 3 -41 19 0 11 -14 31 -31 44 -27 21 -36 23
-63 15 -18 -6 -41 -23 -51 -38 l-19 -28 -36 27 c-57 43 -93 24 -114 -62 -8
-35 -35 -35 -67 -1 -14 15 -31 23 -42 20 -16 -4 -18 0 -13 19 9 35 -50 80 -86
66 -34 -13 -88 -83 -88 -115 0 -19 -5 -26 -20 -26 -18 0 -20 7 -20 71 0 57 -4
74 -17 84 -11 8 -24 10 -34 5 -17 -10 -130 56 -147 86 -9 16 -12 15 -45 -10
-30 -23 -39 -25 -56 -16 -30 16 -26 60 10 110 22 30 28 45 20 53 -6 6 -11 19
-11 28 0 26 -20 33 -35 13 -12 -17 -16 -17 -39 -4 -16 8 -25 19 -21 28 3 7 8
32 11 55 4 23 13 50 21 59 12 14 13 23 3 52 -6 20 -13 36 -15 36 -2 0 -20 -9
-39 -21 -28 -16 -45 -19 -76 -14 -38 6 -40 9 -40 41 0 19 3 34 8 34 4 0 15 7
25 14 15 12 17 18 7 36 -11 20 -10 21 9 11 31 -17 41 -13 41 17 0 43 -12 55
-43 41 -21 -9 -35 -8 -77 7 -51 18 -51 19 -31 35 26 21 26 24 0 60 -15 21 -26
28 -40 24 -48 -15 -76 37 -43 83 13 20 13 25 0 49 -8 16 -17 36 -20 47 -4 13
-11 16 -24 11 -42 -18 -70 -17 -92 5 l-22 22 30 31 c26 28 28 36 20 60 -8 23
-13 26 -24 16 -11 -9 -20 -9 -39 1 -30 16 -31 29 -6 62 19 23 19 26 2 51 -13
20 -20 24 -28 16 -7 -7 -23 -9 -37 -5 -23 6 -25 10 -23 55 2 43 -2 52 -31 79
-17 16 -32 38 -32 47 0 10 -6 15 -12 12 -81 -29 -87 -30 -102 -18 -22 19 -20
31 12 64 l27 29 -22 18 c-13 10 -23 23 -23 28 0 23 -26 31 -69 20 -36 -9 -45
-8 -59 5 -15 15 -14 19 11 44 l26 28 -20 33 c-12 17 -24 32 -28 32 -4 0 -17
-21 -29 -46 -27 -55 -40 -53 -17 2 21 51 14 73 -35 107 -47 33 -49 47 -14 93
l26 34 -28 11 -29 11 30 14 c17 7 44 13 62 14 17 0 35 5 38 10 5 8 11 7 21 -1
11 -9 25 -4 65 22 49 31 50 33 28 44 l-22 12 26 17 c21 14 30 15 47 6 20 -11
27 -7 62 26 37 37 38 39 18 48 -11 5 -20 14 -18 20 8 30 116 186 140 203 33
22 43 43 26 55 -10 6 -7 10 10 14 17 5 22 14 23 43 1 20 1 40 0 44 -1 5 8 43
20 85 17 62 22 109 24 240 1 89 5 165 9 169 3 4 -4 17 -16 30 -18 20 -20 26
-10 48 17 38 15 61 -10 90 -20 23 -33 27 -100 32 -67 5 -78 4 -84 -11 -4 -10
-2 -27 4 -39 6 -12 14 -50 17 -85 6 -53 4 -67 -14 -98 -24 -40 -46 -165 -31
-174 5 -3 7 -23 3 -43 -4 -27 -11 -37 -24 -37 -10 0 -21 -9 -24 -20 -8 -24
-26 -25 -66 -4 -42 21 -48 10 -14 -26 18 -19 43 -33 67 -37 44 -7 49 -11 41
-41 -4 -17 -13 -22 -37 -22 -18 0 -37 5 -43 11 -14 14 -53 2 -53 -16 0 -8 4
-25 9 -38 l9 -24 -34 16 c-22 10 -34 22 -34 36 0 11 -3 30 -6 43 -6 21 -4 22
19 13 24 -9 26 -8 29 22 5 45 -28 110 -52 104 -16 -4 -19 4 -25 70 -7 71 -6
76 19 102 20 21 26 37 26 74 0 41 -3 47 -25 53 -14 3 -31 4 -39 1 -10 -4 -15
8 -19 46 -4 28 -4 53 -2 56 3 2 24 7 48 10 41 6 42 7 48 48 3 24 3 47 0 52 -9
12 -88 51 -106 51 -12 0 -15 14 -15 70 0 69 1 70 21 60 45 -25 109 13 109 65
0 45 -31 70 -85 69 l-43 -1 4 36 c2 20 6 85 10 144 6 105 7 108 28 104 11 -3
38 -9 59 -12 l37 -7 0 62 0 61 -50 22 -49 22 6 55 c3 30 7 56 9 58 1 2 11 -1
22 -7 22 -12 55 6 73 40 9 17 5 30 -25 75 -20 29 -36 56 -36 59 0 3 22 5 50 5
45 0 50 3 56 25 9 38 -3 71 -35 95 l-30 20 21 61 20 61 71 -4 c70 -3 72 -2 81
25 15 43 -2 79 -44 90 -41 10 -69 33 -30 24 14 -3 44 -9 66 -13 37 -5 43 -4
49 16 11 36 -4 89 -30 106 -14 9 -25 20 -25 25 0 5 22 43 49 85 45 71 49 74
55 50 3 -14 10 -26 15 -26 5 0 32 31 60 69 l50 69 -26 17 c-18 12 -22 20 -14
28 8 8 17 6 33 -10 l21 -21 44 51 44 52 -28 22 c-31 25 -11 33 22 9 17 -13 25
-9 73 32 l54 46 -31 26 -32 25 58 57 58 57 47 -20 46 -21 46 27 c56 33 59 56
10 89 -45 31 -32 39 54 34 l67 -3 15 33 c15 32 16 33 70 30 53 -3 54 -2 63 29
8 26 6 37 -13 63 l-23 32 57 -7 c65 -8 86 3 86 44 0 25 2 26 39 23 32 -3 45 1
65 22 15 14 26 34 26 46 0 22 5 23 90 11 34 -5 60 -5 68 1 17 15 15 74 -4 92
-21 22 -11 20 28 -4 34 -21 111 -27 137 -11 10 7 12 22 7 63 -10 78 5 88 76
50 49 -28 58 -29 121 -23 l68 6 -31 38 c-36 42 -41 38 78 66 l84 20 26 -24
c29 -27 71 -40 102 -30 16 5 20 15 20 54 0 52 12 71 46 71 19 0 24 -7 30 -45
3 -25 10 -45 16 -45 25 0 67 33 77 61 l11 32 110 -5 c81 -3 113 -1 118 8 6 11
29 18 70 23 8 1 12 -13 12 -41z m2083 -3428 c-3 -11 -9 -20 -14 -20 -10 0 -12
24 -2 33 13 13 21 7 16 -13z m27 -130 c0 -4 -7 -13 -15 -20 -13 -11 -15 -8
-15 13 0 19 4 25 15 21 8 -4 15 -10 15 -14z m-4727 -216 c3 -3 3 -13 0 -21 -5
-12 -7 -12 -14 -1 -15 23 -4 40 14 22z m-43 -69 c-7 -9 -15 -13 -19 -10 -3 3
1 10 9 15 21 14 24 12 10 -5z m-257 -657 c-32 -35 -102 5 -103 58 0 35 10 34
66 -3 52 -35 54 -37 37 -55z m609 -1126 c-18 -5 -18 -4 -25 43 l-6 40 22 -40
c18 -31 20 -41 9 -43z m132 -159 c27 -70 71 -172 98 -226 81 -163 92 -236 52
-357 -16 -49 -16 -53 16 -193 48 -209 76 -300 125 -402 51 -107 149 -247 216
-310 45 -42 52 -45 101 -45 29 0 368 -11 753 -25 385 -14 710 -23 722 -20 12
3 61 9 110 14 202 21 313 109 366 288 9 29 88 201 176 382 89 181 161 333 161
339 0 17 228 230 286 267 53 34 74 40 59 16 -3 -6 -13 -11 -21 -11 -9 0 -14
-11 -14 -31 0 -27 -2 -30 -15 -19 -12 10 -20 9 -40 -4 -14 -9 -25 -20 -25 -24
0 -4 17 -33 38 -65 35 -52 38 -61 32 -103 -9 -60 -30 -82 -65 -66 -36 17 -55
5 -55 -33 0 -21 9 -41 24 -57 40 -40 15 -59 -44 -34 -18 7 -60 -27 -60 -49 0
-7 16 -23 35 -35 34 -21 35 -22 17 -45 -16 -22 -18 -22 -44 -7 -25 15 -29 15
-48 -3 -25 -23 -21 -64 10 -107 21 -29 18 -60 -6 -51 -22 8 -84 -7 -90 -22 -3
-8 6 -29 20 -47 30 -40 23 -64 -15 -49 -38 14 -59 -3 -59 -48 0 -25 7 -44 20
-56 20 -19 20 -19 -12 -52 -17 -18 -42 -33 -54 -33 -13 0 -30 -10 -39 -22 -14
-21 -14 -23 2 -26 10 -2 27 -7 38 -11 11 -5 32 -13 48 -20 58 -23 21 -81 -52
-81 -32 0 -49 16 -59 54 -8 28 -28 32 -24 5 2 -9 -4 -19 -13 -22 -22 -9 -19
-34 10 -82 l24 -42 -30 -29 c-28 -27 -31 -27 -62 -15 -17 7 -43 13 -56 12 -56
-3 -81 -70 -41 -106 32 -29 8 -41 -28 -15 -55 41 -132 7 -134 -59 -1 -39 -23
-61 -33 -32 -8 27 -52 61 -78 61 -11 0 -31 -10 -44 -22 -30 -28 -32 -92 -2
-124 16 -17 17 -23 6 -27 -9 -3 -32 13 -58 39 -25 26 -52 44 -65 44 -31 0 -64
-45 -64 -86 0 -29 -3 -34 -23 -34 -13 0 -43 14 -66 31 -34 24 -49 29 -72 24
-16 -4 -29 -10 -29 -15 0 -19 -34 -18 -71 1 -40 20 -99 19 -99 -2 0 -14 -28
-11 -54 6 -28 19 -67 12 -86 -15 -12 -17 -15 -17 -46 -3 -30 15 -35 15 -59 -1
-14 -9 -30 -27 -35 -39 -8 -21 -9 -21 -9 4 -1 16 -12 33 -31 47 -35 26 -33 26
-76 6 -27 -13 -34 -22 -34 -45 0 -16 -4 -29 -10 -29 -5 0 -10 5 -10 10 0 6
-12 22 -27 35 -34 30 -60 26 -101 -15 -24 -24 -39 -30 -73 -30 l-42 0 6 34 c5
29 1 37 -26 56 l-31 23 -45 -26 c-39 -22 -52 -34 -68 -65 -5 -11 -43 12 -43
27 0 15 -49 61 -64 61 -3 0 -27 -14 -53 -30 -57 -37 -83 -39 -83 -7 0 13 -10
34 -21 46 -26 27 -63 24 -109 -10 l-29 -22 -48 44 c-26 24 -50 47 -51 51 -2 5
3 26 11 47 16 38 15 39 -14 79 -31 42 -45 45 -80 16 -13 -12 -20 -5 -53 56
-35 66 -36 71 -22 92 25 35 20 45 -25 44 -29 -1 -45 4 -52 16 -10 15 -4 25 30
60 l43 43 -20 33 c-22 35 -41 40 -60 17 -11 -13 -15 -13 -21 -3 -13 19 -11 38
4 38 6 0 29 5 51 11 28 8 35 14 27 22 -6 6 -11 28 -11 48 0 21 -4 41 -10 44
-5 3 -28 -4 -50 -15 -22 -11 -46 -18 -51 -14 -8 4 -8 9 1 14 7 4 -4 16 -31 32
l-43 26 30 18 c45 29 94 67 94 74 0 4 -13 5 -29 2 -29 -4 -91 21 -91 37 0 14
53 56 89 70 19 8 31 21 31 32 0 21 -41 52 -61 45 -41 -13 -69 -15 -69 -6 0 5
11 10 24 10 14 0 36 4 50 10 23 8 26 15 26 55 0 25 -3 45 -7 45 -5 0 -16 7
-26 14 -17 13 -17 16 -2 52 14 34 14 39 0 53 -13 13 -19 13 -51 -2 -20 -10
-38 -16 -41 -14 -2 3 -7 21 -10 41 l-6 36 42 0 c39 0 53 11 31 25 -5 3 -10 29
-10 56 0 44 -3 51 -27 62 -54 23 -46 49 19 61 27 5 37 12 40 31 6 27 -8 45
-34 45 -11 0 -18 7 -18 19 0 11 -4 23 -10 26 -19 12 -10 31 20 42 24 9 30 17
30 41 0 17 -7 38 -16 46 -13 14 -19 14 -50 1 -32 -13 -34 -13 -34 6 0 15 7 19
34 19 38 0 66 21 66 50 0 19 -19 30 -50 30 -22 0 -39 42 -21 48 21 7 33 53 19
70 -12 13 -10 13 17 -1 26 -13 37 -34 79 -144z m506 -525 c0 -18 -2 -20 -9 -8
-6 8 -7 18 -5 22 9 14 14 9 14 -14z m1903 -228 c-14 -41 -34 -85 -46 -98 -20
-21 -22 -21 -28 -5 -3 10 -4 46 -1 80 l4 61 47 20 c25 10 47 19 48 18 0 -1
-10 -35 -24 -76z m187 39 c-25 -35 -34 -33 -24 5 4 17 13 26 26 26 19 0 19 -1
-2 -31z m-419 -51 c-4 -18 -17 -55 -29 -81 l-22 -49 -42 7 c-24 4 -46 9 -50
12 -5 2 -8 35 -8 74 l0 69 79 0 79 0 -7 -32z m-298 -30 c-8 -93 -17 -105 -93
-128 -37 -11 -69 -20 -71 -20 -2 0 -4 30 -5 68 0 37 -4 79 -7 94 -7 27 -7 27
55 31 35 2 77 4 94 5 l31 2 -4 -52z m-363 -63 c12 -79 12 -86 -5 -105 -15 -16
-27 -20 -59 -16 -23 3 -67 8 -100 12 l-58 6 6 44 c3 24 9 64 12 89 l6 44 52 4
c28 2 69 4 92 5 l41 2 13 -85z m-849 33 l136 -22 -9 -40 c-5 -23 -16 -55 -25
-72 -15 -30 -18 -31 -127 -42 -87 -9 -113 -9 -122 1 -7 6 -14 53 -16 105 -4
78 -2 92 11 92 9 0 77 -10 152 -22z m466 4 c-12 -13 -17 -37 -17 -83 0 -51 -4
-69 -23 -92 -22 -27 -23 -27 -97 -20 -72 8 -75 9 -73 33 9 88 16 150 17 151 1
1 54 8 200 28 5 0 2 -7 -7 -17z m1093 -216 c-20 -20 -20 -20 -67 -1 -84 33
-174 17 -221 -41 l-29 -35 -23 19 -24 19 43 28 c32 20 68 30 136 40 50 7 104
19 120 27 27 14 30 14 57 -10 l29 -26 -21 -20z m225 34 c-3 -5 -12 -10 -18
-10 -7 0 -6 4 3 10 19 12 23 12 15 0z m-812 -82 c14 -11 14 -16 2 -31 -13 -18
-15 -18 -39 -2 -25 16 -25 18 -9 31 22 17 25 17 46 2z m510 -133 c16 -30 26
-62 25 -80 -3 -28 -6 -30 -53 -37 -27 -4 -64 -10 -82 -13 -31 -6 -32 -5 -38
38 -6 38 -3 48 17 69 12 14 33 38 45 52 31 37 53 30 86 -29z m207 48 c-1 -5
-12 -28 -25 -53 l-24 -45 -1 33 c0 40 15 72 35 72 8 0 15 -3 15 -7z m-1750 -7
c0 -3 -4 -8 -10 -11 -5 -3 -10 -1 -10 4 0 6 5 11 10 11 6 0 10 -2 10 -4z m545
-60 c21 -21 22 -28 14 -62 -4 -22 -9 -54 -9 -71 0 -37 -3 -38 -85 -26 l-48 6
6 79 c4 43 9 83 12 89 4 5 24 9 46 9 29 0 47 -7 64 -24z m370 -51 c24 -112 25
-111 -107 -118 -61 -4 -114 -5 -116 -2 -2 2 3 37 12 78 23 100 39 114 142 116
l52 1 17 -75z m-625 -16 l0 -81 -32 6 c-18 3 -52 8 -75 12 -40 6 -41 8 -45 48
-3 30 1 48 16 69 18 24 26 27 78 27 l58 0 0 -81z m945 54 c4 -16 8 -35 10 -43
1 -8 10 -32 19 -52 l16 -38 -47 0 c-27 0 -72 -3 -100 -6 l-53 -7 0 51 c0 35 7
61 23 86 20 33 26 35 74 36 49 0 53 -2 58 -27z"/>
<path d="M5910 5831 c-107 -35 -165 -60 -220 -96 -94 -62 -286 -250 -296 -291
-3 -16 -16 -56 -27 -89 -31 -93 -35 -277 -8 -386 27 -110 80 -214 146 -287 29
-32 55 -69 57 -82 5 -37 143 -132 216 -149 82 -19 339 -26 415 -12 150 29 298
94 434 192 233 169 311 365 238 604 -8 28 -15 66 -15 86 0 21 -10 50 -23 71
-13 19 -35 59 -49 90 -66 143 -188 273 -310 332 -97 45 -196 66 -315 66 -89
-1 -111 -5 -243 -49z m-25 -472 c52 -14 75 -36 75 -70 l0 -28 57 20 c76 26
102 24 176 -11 35 -16 73 -30 83 -30 55 -1 198 -94 208 -136 13 -49 -52 -104
-123 -104 -17 0 -111 27 -208 60 -184 62 -212 79 -213 128 0 22 -3 21 -46 -17
-70 -62 -141 -55 -170 15 -17 41 -11 94 18 141 26 43 67 53 143 32z m197 -390
c75 -16 160 -64 213 -120 40 -42 49 -48 75 -42 25 5 36 -1 70 -35 77 -76 41
-130 -125 -187 -71 -24 -90 -27 -190 -23 -103 3 -115 6 -187 40 -55 26 -78 42
-78 55 0 12 -12 23 -32 31 l-33 13 30 26 c27 23 30 32 27 74 -4 54 10 86 61
142 39 42 70 47 169 26z"/>
<path d="M4113 5781 c-23 -4 -51 -15 -62 -25 -11 -10 -37 -19 -58 -20 -45 -2
-123 -43 -175 -91 -37 -35 -117 -149 -152 -218 -25 -49 -90 -107 -119 -107
-20 0 -23 -5 -24 -37 -1 -21 -8 -42 -17 -49 -11 -7 -16 -27 -16 -58 0 -26 -9
-74 -20 -107 -12 -34 -24 -90 -27 -126 -5 -56 -3 -68 16 -93 15 -21 21 -44 21
-79 0 -170 82 -308 218 -368 31 -13 82 -35 112 -48 72 -32 224 -50 354 -42
269 16 543 146 727 345 201 217 209 493 24 772 -98 147 -230 247 -395 298 -36
11 -78 27 -94 35 -41 22 -215 34 -227 16 -6 -10 -9 -11 -9 -1 0 13 -11 13 -77
3z m443 -556 c29 -8 62 -28 79 -45 25 -27 30 -39 29 -79 -1 -26 -11 -66 -23
-89 -21 -41 -22 -42 -74 -42 -99 0 -152 55 -150 152 3 79 9 95 41 107 37 13
42 13 98 -4z m-721 -60 c14 -13 25 -31 25 -39 0 -8 -20 -78 -45 -155 -45 -140
-46 -141 -76 -141 -75 0 -115 52 -107 143 3 40 15 71 54 134 47 80 50 82 87
83 27 0 45 -7 62 -25z m420 -286 c27 -24 35 -39 35 -64 0 -30 4 -34 58 -56 31
-13 85 -41 120 -62 l63 -40 -33 -20 c-49 -30 -145 -63 -231 -81 -73 -15 -247
-23 -234 -10 3 3 -7 17 -24 31 -24 20 -29 33 -29 66 0 72 74 177 125 177 9 0
21 14 27 30 9 29 48 59 75 60 7 0 28 -14 48 -31z"/>
<path d="M4903 4277 c-23 -7 -49 -19 -57 -27 -8 -8 -140 -192 -295 -407 l-281
-392 0 -100 0 -99 78 -40 c120 -62 212 -76 313 -46 42 12 66 28 110 73 l56 57
42 -33 c65 -49 143 -75 243 -81 80 -4 93 -2 142 22 61 30 134 103 166 166 21
42 21 43 5 119 -14 60 -27 90 -64 141 -113 156 -213 333 -248 439 -27 84 -51
128 -101 184 -37 40 -44 41 -109 24z m279 -717 c50 -14 88 -61 88 -109 0 -54
-18 -101 -53 -138 -29 -31 -34 -33 -105 -33 -98 0 -138 19 -164 78 -28 64 -22
157 13 183 36 27 154 37 221 19z m-508 -54 c43 -27 28 -100 -34 -166 -24 -25
-36 -30 -77 -30 -66 0 -106 26 -122 80 -12 41 -11 43 16 72 63 67 155 85 217
44z"/>
<path d="M4487 4223 c-28 -7 -540 -431 -555 -459 -12 -23 -12 -28 8 -49 27
-29 61 -38 95 -25 58 22 313 186 363 234 63 60 133 155 161 217 l20 44 -27 22
c-28 23 -34 24 -65 16z"/>
<path d="M5505 4220 c-40 -16 -46 -33 -28 -81 30 -79 160 -182 294 -233 84
-31 207 -49 279 -41 52 6 60 10 71 36 7 18 8 34 3 39 -5 5 -47 18 -93 30 -173
44 -350 129 -437 212 -53 50 -57 52 -89 38z"/>
</g>
</svg>
