<?xml version="1.0" standalone="no"?>
<!DOCTYPE svg PUBLIC "-//W3C//DTD SVG 20010904//EN"
 "http://www.w3.org/TR/2001/REC-SVG-20010904/DTD/svg10.dtd">
<svg version="1.0" xmlns="http://www.w3.org/2000/svg"
 width="1024.000000pt" height="1024.000000pt" viewBox="0 0 1024.000000 1024.000000"
 preserveAspectRatio="xMidYMid meet">
<metadata>
Created by potrace 1.10, written by Peter Selinger 2001-2011
</metadata>
<g transform="translate(0.000000,1024.000000) scale(0.100000,-0.100000)"
fill="#000000" stroke="none">
<path d="M4156 8858 c-50 -38 -176 -337 -295 -702 -39 -121 -76 -224 -80 -230
-16 -18 -155 -343 -211 -491 -29 -77 -61 -151 -70 -165 -9 -14 -44 -92 -77
-175 -307 -763 -470 -1150 -534 -1261 -16 -28 -29 -57 -29 -64 0 -8 -6 -21
-13 -29 -7 -9 -42 -90 -76 -181 -35 -91 -74 -184 -87 -206 -13 -23 -64 -135
-114 -250 -240 -550 -219 -829 90 -1209 71 -87 208 -219 290 -279 136 -101
208 -138 308 -163 119 -28 156 -29 182 -3 42 42 15 159 -49 213 -30 25 -115
57 -151 57 -9 0 -57 27 -106 59 -182 121 -313 256 -430 446 l-49 80 0 175 c0
229 9 268 101 465 18 39 132 293 254 565 122 272 231 511 242 530 11 19 63
160 114 314 51 153 100 286 107 295 8 9 103 237 211 506 138 341 211 510 241
555 48 72 76 136 100 230 14 55 183 499 249 655 31 73 33 135 5 191 -16 34
-76 95 -91 94 -2 0 -16 -10 -32 -22z"/>
<path d="M7177 6425 c-35 -27 -46 -42 -49 -67 -5 -51 21 -156 59 -238 19 -41
48 -108 64 -147 42 -106 113 -244 180 -354 32 -53 59 -104 59 -114 0 -10 21
-47 47 -83 149 -208 216 -544 167 -833 -19 -113 -80 -306 -130 -409 -78 -164
-202 -319 -347 -435 -70 -57 -95 -70 -177 -95 -52 -17 -119 -34 -149 -40 -115
-21 -171 -78 -171 -173 0 -68 27 -87 121 -87 139 0 300 53 430 141 226 151
363 311 485 565 74 153 106 246 130 369 9 50 28 146 42 215 35 169 35 300 -2
423 -14 48 -26 93 -26 100 0 14 -50 131 -117 277 -56 119 -171 332 -264 485
-66 110 -80 140 -89 198 -20 130 -75 237 -155 302 -23 19 -47 35 -52 35 -6 0
-31 -16 -56 -35z"/>
<path d="M6409 4740 c-76 -13 -214 -65 -295 -111 -55 -32 -120 -85 -226 -187
-280 -268 -503 -423 -777 -542 -100 -44 -257 -76 -323 -67 -54 7 -153 57 -210
107 -63 55 -205 259 -214 307 -11 65 -31 128 -59 184 -39 77 -148 180 -240
225 -65 32 -86 37 -167 41 -157 8 -319 -51 -423 -153 -58 -57 -124 -177 -146
-266 -44 -178 84 -408 227 -408 48 0 107 35 112 67 2 12 -24 76 -58 143 -37
75 -60 131 -56 142 9 38 120 195 148 211 25 14 40 14 150 2 68 -7 131 -17 140
-20 40 -15 117 -131 149 -221 57 -166 129 -274 265 -404 76 -72 84 -77 199
-118 117 -41 123 -42 243 -42 199 0 370 43 556 138 134 69 232 147 415 331
182 183 279 255 471 352 97 49 111 53 191 57 80 4 91 2 137 -23 67 -36 86 -59
101 -122 11 -46 10 -59 -5 -105 -9 -29 -23 -62 -30 -73 -18 -26 -18 -72 1
-126 21 -58 42 -79 79 -79 49 0 101 50 147 143 53 105 62 191 31 293 -72 236
-286 366 -533 324z"/>
<path d="M5985 3943 c-59 -15 -66 -78 -14 -143 25 -32 28 -46 37 -161 6 -78
15 -137 25 -156 12 -23 18 -74 23 -200 4 -132 10 -178 25 -215 13 -31 19 -71
19 -118 0 -41 6 -82 14 -98 8 -15 28 -81 46 -147 18 -66 39 -133 47 -149 30
-58 52 -158 64 -293 6 -76 16 -143 21 -150 18 -23 22 -127 5 -164 -8 -19 -20
-92 -26 -164 -10 -102 -21 -158 -53 -259 -39 -125 -42 -132 -101 -193 -57 -60
-63 -63 -107 -63 -97 0 -197 58 -260 151 l-38 55 9 125 c16 225 56 449 129
728 55 212 65 302 65 571 0 259 -6 306 -61 545 -45 195 -66 257 -102 297 -41
45 -86 57 -131 34 -17 -9 -31 -20 -31 -24 0 -4 24 -65 54 -137 79 -189 97
-248 107 -360 5 -55 17 -118 27 -140 20 -47 21 -183 1 -260 -7 -27 -13 -93
-14 -145 0 -81 -4 -102 -26 -145 -20 -38 -28 -71 -32 -141 -4 -50 -13 -106
-21 -125 -8 -19 -18 -75 -21 -125 -4 -51 -15 -106 -25 -129 -10 -22 -22 -71
-26 -109 -3 -38 -15 -96 -26 -130 -25 -82 -34 -218 -18 -287 24 -105 68 -178
164 -273 123 -122 132 -126 241 -126 105 0 150 17 218 79 53 49 93 128 146
287 72 218 97 391 88 624 -4 100 -14 189 -27 250 -12 52 -25 122 -28 155 -4
33 -15 71 -25 85 -9 13 -17 35 -17 49 0 13 -29 130 -64 260 -63 233 -65 241
-106 601 -23 201 -42 365 -43 366 -1 0 -26 17 -55 37 -28 20 -53 36 -55 36 -1
-1 -11 -4 -22 -6z"/>
<path d="M4095 3700 c-36 -40 -39 -244 -5 -360 6 -19 26 -132 45 -250 20 -118
40 -219 45 -224 6 -6 10 -99 10 -226 0 -196 -3 -228 -26 -336 -29 -136 -72
-232 -139 -316 l-45 -58 -72 0 -71 0 -67 69 c-77 80 -142 194 -165 292 -17 74
-19 226 -4 284 6 22 26 108 44 190 19 83 72 265 119 405 l86 255 -32 27 c-18
15 -36 28 -40 28 -14 0 -79 -63 -94 -91 -7 -15 -14 -42 -14 -60 0 -32 -31
-133 -55 -179 -7 -14 -16 -45 -19 -70 -8 -51 -53 -177 -73 -201 -7 -8 -13 -26
-13 -38 0 -13 -9 -59 -21 -104 -19 -75 -21 -104 -17 -322 l3 -240 53 -106 c42
-86 63 -117 111 -162 91 -84 154 -110 278 -115 91 -4 106 -2 137 17 54 34 100
91 144 182 109 224 153 534 118 819 -18 144 -113 810 -121 847 -4 17 -59 63
-77 63 -3 0 -13 -9 -23 -20z"/>
</g>
</svg>
