<?xml version="1.0" standalone="no"?>
<!DOCTYPE svg PUBLIC "-//W3C//DTD SVG 20010904//EN"
 "http://www.w3.org/TR/2001/REC-SVG-20010904/DTD/svg10.dtd">
<svg version="1.0" xmlns="http://www.w3.org/2000/svg"
 width="1024.000000pt" height="1024.000000pt" viewBox="0 0 1024.000000 1024.000000"
 preserveAspectRatio="xMidYMid meet">
<metadata>
Created by potrace 1.10, written by Peter Selinger 2001-2011
</metadata>
<g transform="translate(0.000000,1024.000000) scale(0.100000,-0.100000)"
fill="#000000" stroke="none">
<path d="M4970 9433 c-14 -3 -40 -19 -58 -36 -66 -63 -97 -159 -81 -255 6 -40
5 -62 -5 -86 -17 -38 -214 -241 -355 -365 -132 -117 -333 -268 -486 -365
l-120 -76 -3 31 c-2 18 22 182 54 365 53 309 56 336 44 374 -23 70 -111 111
-165 76 -41 -27 -54 -56 -80 -186 -58 -286 -92 -683 -80 -945 11 -262 63 -804
84 -885 58 -226 162 -385 395 -607 181 -173 347 -267 606 -342 98 -28 217 -56
270 -62 241 -28 500 35 701 172 236 160 478 508 603 869 77 220 110 401 126
680 11 200 12 853 1 1039 -4 69 -4 148 0 175 15 111 -28 220 -104 266 -45 28
-78 25 -109 -7 -54 -57 -58 -123 -24 -386 l23 -178 -21 5 c-12 3 -272 63 -579
133 l-559 128 4 130 c4 109 8 136 26 170 28 49 28 85 1 119 -18 22 -72 59 -81
55 -2 -1 -14 -4 -28 -6z m18 -667 c53 -27 319 -114 432 -141 63 -15 237 -59
385 -97 149 -38 302 -75 340 -82 l70 -12 0 -311 c0 -171 -3 -314 -6 -317 -3
-3 -77 3 -165 14 -148 18 -226 20 -1114 20 -925 0 -957 -1 -1007 -20 l-51 -19
-6 97 c-4 53 -8 113 -10 133 l-4 36 29 -14 c18 -9 41 -12 59 -8 16 3 96 53
179 109 82 57 261 180 397 272 182 124 273 194 343 261 53 51 97 92 99 93 2 0
15 -6 30 -14z m1206 -1176 c2 -3 -24 -109 -58 -235 l-64 -230 -838 3 c-770 2
-856 4 -1049 24 -115 11 -215 26 -221 32 -6 6 -24 90 -39 186 -15 96 -29 188
-32 203 l-6 28 1151 -3 c633 -2 1153 -5 1156 -8z m-1969 -679 c67 -6 388 -6
815 -1 388 5 758 9 822 10 l118 0 -98 -152 c-59 -93 -121 -176 -158 -213 -117
-116 -359 -257 -472 -276 -193 -31 -457 12 -646 107 -255 128 -408 261 -522
454 -24 41 -44 78 -44 82 0 5 17 6 38 3 20 -3 87 -9 147 -14z"/>
<path d="M4565 5763 c-740 -92 -1345 -322 -1794 -681 -229 -184 -420 -406
-500 -583 -118 -263 -147 -615 -63 -791 56 -120 255 -351 456 -529 133 -119
286 -224 440 -305 l128 -67 -6 -31 c-40 -198 -61 -433 -51 -588 l6 -108 -228
-1 c-125 -1 -382 -4 -570 -8 -332 -6 -343 -7 -364 -27 -13 -13 -23 -39 -26
-66 -7 -59 23 -96 87 -109 25 -4 283 -8 574 -9 l528 0 -3 -507 c-3 -472 -2
-510 14 -541 21 -38 73 -65 120 -60 28 3 34 9 50 53 10 28 28 91 40 140 21 85
22 114 22 503 l0 412 165 0 c91 0 831 14 1645 29 814 16 1480 28 1481 27 1 0
9 -151 18 -335 10 -184 22 -373 28 -420 10 -80 6 -299 -8 -476 -6 -79 10 -123
57 -158 40 -29 100 -33 122 -9 45 50 83 438 58 597 -12 74 -25 296 -36 616
l-7 195 642 12 642 12 49 42 c57 48 63 80 25 125 l-24 28 -344 6 c-188 4 -487
7 -664 8 l-321 1 -7 92 c-3 50 -6 131 -6 181 0 105 38 337 55 337 31 0 210 68
295 111 174 89 354 258 492 464 260 387 338 877 206 1295 -94 298 -304 558
-595 739 -299 185 -674 308 -1073 351 -52 6 -444 17 -870 25 -772 15 -828 15
-885 8z m435 -740 c0 -285 3 -569 7 -630 l6 -113 -1059 0 c-968 0 -1078 -2
-1280 -20 -121 -10 -228 -22 -238 -26 -14 -6 -16 -2 -10 22 63 271 399 647
762 852 320 181 796 335 1273 412 83 13 173 18 327 19 l212 1 0 -517z m1240
497 c122 -9 469 -89 658 -151 128 -42 347 -155 461 -236 133 -95 274 -232 322
-313 86 -145 129 -312 129 -501 l0 -119 -62 0 c-35 0 -569 14 -1188 30 -619
16 -1172 30 -1228 30 l-104 0 2 583 c2 405 -1 598 -9 636 -6 29 -11 55 -11 56
0 7 925 -7 1030 -15z m-1255 -1512 c-18 -110 -57 -468 -67 -608 -11 -175 2
-512 24 -598 6 -23 9 -44 7 -46 -3 -3 -863 96 -1167 134 -514 64 -997 360
-1269 777 -41 63 -55 94 -58 129 -2 25 -15 69 -29 98 -14 28 -26 70 -28 93
l-4 43 326 3 c179 1 763 3 1298 5 l973 2 -6 -32z m796 7 c277 -13 826 -40
1219 -60 393 -19 732 -35 753 -35 46 0 46 -2 6 -122 -69 -208 -187 -413 -305
-532 -143 -143 -253 -196 -569 -276 -525 -133 -982 -203 -1515 -231 -116 -6
-215 -8 -218 -4 -4 4 -7 140 -7 303 1 264 4 329 33 592 46 430 39 390 71 390
15 0 254 -11 532 -25z m-2011 -1345 l315 -60 638 -36 638 -36 685 82 c377 45
688 79 691 77 5 -5 -18 -539 -23 -546 -3 -3 -3036 -69 -3257 -71 l-49 0 5 278
c4 255 15 372 35 372 4 0 149 -27 322 -60z"/>
</g>
</svg>
