<?xml version="1.0" standalone="no"?>
<!DOCTYPE svg PUBLIC "-//W3C//DTD SVG 20010904//EN"
 "http://www.w3.org/TR/2001/REC-SVG-20010904/DTD/svg10.dtd">
<svg version="1.0" xmlns="http://www.w3.org/2000/svg"
 width="1024.000000pt" height="1024.000000pt" viewBox="0 0 1024.000000 1024.000000"
 preserveAspectRatio="xMidYMid meet">
<metadata>
Created by potrace 1.10, written by Peter Selinger 2001-2011
</metadata>
<g transform="translate(0.000000,1024.000000) scale(0.100000,-0.100000)"
fill="#000000" stroke="none">
<path d="M4831 9343 l-42 -38 20 -82 c18 -75 18 -87 5 -137 -28 -107 -192
-485 -258 -595 l-66 -108 -97 -11 c-54 -6 -171 -19 -260 -28 l-162 -17 -42 28
c-40 26 -324 115 -368 115 -23 0 -151 -60 -151 -71 0 -4 13 -18 29 -32 60 -50
212 -234 237 -286 55 -114 60 -174 104 -1121 22 -487 45 -916 51 -955 13 -89
26 -131 56 -177 22 -36 26 -38 75 -38 97 0 181 64 210 161 10 35 15 39 52 43
23 3 460 30 971 61 512 30 953 57 980 60 49 6 50 5 69 -30 11 -20 37 -52 58
-71 72 -64 154 -41 213 60 17 30 37 101 64 237 36 178 44 249 95 869 65 776
69 818 92 861 9 18 27 71 40 118 l24 86 -68 99 c-96 141 -251 284 -340 314
-29 10 -43 8 -105 -17 -40 -16 -99 -42 -132 -59 -33 -16 -75 -33 -94 -37 -34
-7 -1334 -133 -1339 -130 -1 1 34 28 79 60 84 60 492 478 552 564 l30 44 -19
36 c-30 56 -111 104 -315 185 -104 42 -193 76 -198 76 -5 0 -27 -17 -50 -37z
m1460 -1116 c9 -7 24 -28 34 -47 16 -31 17 -52 11 -190 -3 -85 -10 -157 -14
-161 -11 -9 -2190 -164 -2198 -156 -7 7 -38 357 -32 362 7 5 2067 203 2123
204 33 0 67 -5 76 -12z m15 -709 c-3 -13 -8 -112 -12 -220 l-6 -198 -32 -4
c-85 -14 -2089 -147 -2096 -139 -10 11 -34 422 -26 431 7 7 1982 149 2104 151
70 1 72 0 68 -21z m-40 -710 c-3 -13 -8 -75 -11 -138 -3 -63 -12 -151 -18
-195 -13 -80 -13 -80 -47 -87 -28 -6 -1925 -129 -1981 -128 -15 0 -18 23 -23
183 -4 100 -9 193 -12 207 l-5 25 988 77 c543 41 1016 76 1051 77 60 1 62 0
58 -21z"/>
<path d="M7000 5780 c-19 -5 -78 -14 -130 -20 -131 -13 -3372 -279 -3440 -282
-31 -1 -90 8 -135 20 -44 12 -130 32 -192 45 l-112 24 -75 -44 -76 -44 30 -25
c16 -14 63 -80 103 -147 l73 -122 83 -420 c157 -804 192 -978 207 -1024 56
-168 199 -202 258 -60 l15 36 153 11 c201 16 204 16 188 -3 -10 -12 -4 -24 35
-67 63 -69 103 -157 122 -265 12 -73 13 -119 5 -271 -6 -101 -12 -186 -15
-188 -2 -3 -463 -32 -1023 -66 l-1019 -61 -235 33 c-129 18 -250 35 -268 37
l-32 6 0 -71 c0 -133 4 -138 322 -394 79 -63 158 -106 210 -114 24 -4 133 18
369 75 l334 81 650 84 c357 47 651 83 653 81 10 -9 -124 -443 -172 -557 -193
-464 -511 -807 -971 -1050 l-120 -63 53 -3 c97 -6 302 68 522 186 58 32 110
59 115 61 26 10 200 146 285 223 113 101 212 209 307 335 85 113 140 208 205
354 49 110 171 462 183 529 l6 35 757 69 c416 37 767 70 780 73 l22 5 0 -364
c0 -355 -15 -641 -51 -953 -18 -155 -4 -284 42 -390 24 -56 97 -151 136 -178
84 -58 167 -20 209 95 45 124 47 153 51 994 l4 802 157 5 c242 7 1506 -30
1788 -53 132 -11 261 -20 285 -20 68 0 160 28 191 57 36 34 38 96 6 162 -41
86 -237 253 -350 298 l-58 24 -192 -36 c-169 -30 -287 -42 -958 -95 -421 -33
-789 -63 -817 -66 l-53 -6 0 173 c0 130 5 210 22 316 20 134 21 144 5 161 -23
25 -103 63 -202 97 -44 15 -86 31 -93 35 -14 7 107 14 448 26 l175 6 45 -35
c60 -48 124 -65 179 -48 56 16 150 110 188 186 57 113 134 377 198 680 86 411
116 515 175 601 16 25 37 61 45 81 l15 35 -92 102 c-168 186 -396 301 -528
266z m-3 -359 c67 -31 68 -39 42 -237 -13 -96 -26 -179 -29 -184 -6 -9 -1501
-90 -1657 -90 l-53 0 0 225 c0 207 1 225 18 226 9 0 312 17 672 38 777 46 946
49 1007 22z m-2087 -316 l0 -225 -37 0 c-21 0 -333 -22 -693 -49 -360 -27
-656 -48 -656 -47 -5 4 -54 419 -50 423 4 5 1322 120 1394 122 l42 1 0 -225z
m2050 -395 c0 -28 -46 -205 -92 -350 l-51 -166 -686 -33 c-377 -18 -719 -35
-758 -38 l-73 -6 0 257 c0 141 1 256 3 257 1 0 364 20 807 44 443 23 815 43
828 44 12 0 22 -3 22 -9z m-2050 -365 c0 -140 -3 -255 -7 -255 -5 0 -291 -23
-636 -51 -346 -28 -631 -48 -635 -45 -6 7 -73 509 -68 514 5 4 1200 89 1279
91 l67 1 0 -255z m921 -484 c-11 -7 -5 -22 33 -73 56 -74 118 -198 141 -283
12 -42 19 -115 22 -241 l5 -182 -68 -6 c-89 -9 -1398 -106 -1422 -106 -16 0
-17 8 -10 108 4 59 17 175 28 258 14 105 17 160 11 177 -24 62 -143 158 -269
216 -28 14 -52 27 -52 30 0 5 1195 87 1575 110 15 0 17 -1 6 -8z"/>
</g>
</svg>
