<?xml version="1.0" standalone="no"?>
<!DOCTYPE svg PUBLIC "-//W3C//DTD SVG 20010904//EN"
 "http://www.w3.org/TR/2001/REC-SVG-20010904/DTD/svg10.dtd">
<svg version="1.0" xmlns="http://www.w3.org/2000/svg"
 width="1024.000000pt" height="1024.000000pt" viewBox="0 0 1024.000000 1024.000000"
 preserveAspectRatio="xMidYMid meet">
<metadata>
Created by potrace 1.10, written by Peter Selinger 2001-2011
</metadata>
<g transform="translate(0.000000,1024.000000) scale(0.100000,-0.100000)"
fill="#000000" stroke="none">
<path d="M6655 9413 c-41 -9 -69 -29 -82 -61 -18 -42 -9 -74 29 -102 30 -22
43 -23 502 -41 259 -10 507 -18 550 -19 l80 0 -44 -37 c-74 -65 -242 -193
-316 -244 -250 -168 -452 -270 -646 -325 -82 -23 -159 -49 -173 -58 -54 -35
-76 -136 -40 -176 47 -52 334 9 546 115 47 24 238 150 425 280 l339 235 34 67
34 68 17 -46 c40 -102 79 -440 87 -759 l6 -235 -24 -12 c-13 -6 -69 -60 -124
-120 -79 -86 -169 -163 -430 -371 -330 -261 -330 -261 -880 -607 -302 -191
-565 -362 -582 -381 -36 -37 -42 -75 -22 -133 22 -64 77 -67 192 -10 45 23
321 194 613 381 l532 340 357 289 c197 159 359 288 360 287 2 -2 -19 -358 -46
-793 -27 -434 -49 -807 -49 -827 0 -30 -4 -38 -18 -38 -10 0 -49 -32 -87 -71
-73 -74 -91 -87 -540 -404 -276 -195 -285 -200 -834 -497 -305 -165 -611 -324
-680 -353 -71 -30 -144 -69 -166 -88 -39 -34 -40 -36 -40 -102 0 -59 3 -69 24
-86 30 -24 40 -22 214 41 111 41 231 103 747 389 l615 340 364 255 c200 141
366 255 368 253 1 -2 -6 -75 -17 -163 -11 -87 -28 -238 -39 -334 -11 -96 -32
-224 -47 -285 -14 -60 -29 -135 -33 -165 -4 -30 -14 -67 -24 -81 -9 -14 -35
-101 -56 -195 -66 -279 -87 -354 -119 -423 -31 -64 -137 -165 -278 -263 -333
-232 -596 -474 -841 -773 -81 -99 -233 -314 -233 -329 0 -8 -11 -27 -23 -43
-41 -48 -94 -138 -107 -179 -20 -62 -34 -100 -88 -234 -123 -303 -192 -633
-192 -913 0 -67 -5 -138 -11 -157 -6 -19 -15 -118 -20 -220 -5 -102 -11 -204
-15 -227 -14 -94 72 -185 151 -160 29 8 37 18 54 66 45 121 53 186 56 441 6
512 94 883 315 1337 224 457 545 815 1003 1116 272 179 334 255 476 584 95
221 99 232 110 338 7 64 37 210 71 350 l60 240 96 1235 96 1235 -5 695 c-5
659 -6 699 -25 772 -36 132 -116 265 -190 312 -36 22 -53 24 -637 55 -587 31
-659 33 -700 24z"/>
<path d="M2825 9395 c-47 -17 -70 -43 -87 -96 -9 -33 -9 -45 4 -72 l16 -33
358 -28 c198 -16 363 -32 367 -36 11 -10 -198 -226 -292 -302 -107 -87 -228
-164 -360 -230 -140 -70 -171 -97 -171 -151 0 -46 43 -97 83 -97 51 0 296 118
452 218 211 135 458 351 500 437 23 46 26 59 17 85 -8 22 -8 30 1 30 18 0 458
-78 462 -82 2 -2 5 -277 6 -611 l4 -608 -341 -297 c-187 -163 -490 -427 -673
-587 l-332 -290 -317 -188 c-174 -104 -332 -202 -349 -220 -55 -52 -54 -144 1
-196 21 -20 29 -22 54 -13 54 19 735 423 852 506 280 198 529 409 860 730 128
125 235 226 239 226 3 0 5 -48 3 -107 -2 -60 -13 -403 -26 -764 l-22 -656 -79
-94 c-111 -133 -439 -458 -575 -570 -155 -128 -161 -132 -764 -569 -505 -365
-566 -406 -716 -482 -72 -37 -118 -88 -127 -140 -4 -30 0 -43 23 -73 l28 -37
75 4 c133 6 77 -32 1175 785 376 280 549 425 784 659 148 148 172 168 172 145
0 -37 -91 -1515 -93 -1517 -105 -69 -177 -115 -282 -177 -344 -206 -564 -401
-682 -604 -26 -46 -71 -119 -100 -163 -48 -75 -103 -197 -118 -265 -4 -17 -22
-66 -40 -110 -43 -102 -80 -229 -94 -325 -14 -90 -151 -1830 -151 -1913 0 -33
7 -74 16 -93 18 -37 69 -74 102 -74 26 0 90 29 95 44 2 6 16 74 31 151 22 121
31 235 66 835 43 746 59 941 90 1090 26 122 85 312 116 370 13 25 24 52 24 61
0 15 81 158 164 289 48 75 186 219 266 277 30 21 117 77 194 122 296 178 546
375 576 455 8 22 8 42 -1 78 -13 49 -13 37 42 2253 11 446 30 1237 43 1759 14
565 20 962 15 981 -20 73 -133 160 -239 184 -25 6 -308 31 -630 56 -322 24
-605 47 -630 49 -26 3 -62 -1 -85 -9z"/>
<path d="M6982 3990 c0 -8 6 -31 13 -50 7 -19 13 -28 13 -20 0 8 -6 31 -13 50
-7 19 -13 28 -13 20z"/>
</g>
</svg>
