<?xml version="1.0" standalone="no"?>
<!DOCTYPE svg PUBLIC "-//W3C//DTD SVG 20010904//EN"
 "http://www.w3.org/TR/2001/REC-SVG-20010904/DTD/svg10.dtd">
<svg version="1.0" xmlns="http://www.w3.org/2000/svg"
 width="1024.000000pt" height="1024.000000pt" viewBox="0 0 1024.000000 1024.000000"
 preserveAspectRatio="xMidYMid meet">
<metadata>
Created by potrace 1.10, written by Peter Selinger 2001-2011
</metadata>
<g transform="translate(0.000000,1024.000000) scale(0.100000,-0.100000)"
fill="#000000" stroke="none">
<path d="M7830 7199 c-93 -82 -25 -65 -996 -250 l-899 -170 -108 6 c-156 9
-278 31 -392 71 -55 19 -107 37 -116 40 -23 8 -54 -73 -36 -95 172 -209 315
-343 455 -427 103 -62 106 -62 250 -6 146 58 168 65 392 126 577 157 1066 260
1293 273 l107 6 38 -40 c71 -75 66 30 70 -1498 2 -1005 0 -1396 -8 -1440 -23
-116 -71 -175 -144 -175 -22 0 -133 25 -246 55 -113 30 -208 55 -212 55 -13 0
-9 -38 9 -77 10 -21 87 -109 174 -198 166 -170 198 -213 272 -366 53 -110 90
-149 143 -149 72 0 172 71 258 183 63 82 88 140 122 282 55 230 56 252 64
1560 6 1048 9 1224 23 1313 23 145 42 210 93 325 51 115 52 137 6 220 -67 124
-414 378 -548 402 -23 4 -37 -2 -64 -26z"/>
<path d="M4180 6980 c-78 -70 -116 -80 -923 -254 -567 -123 -786 -166 -836
-166 -164 0 -389 35 -522 81 -66 23 -72 21 -85 -28 -9 -32 214 -285 326 -369
97 -74 210 -134 250 -134 15 0 77 22 137 49 283 126 1230 369 1508 387 102 7
134 -10 173 -94 l27 -57 0 -1175 0 -1175 -24 -52 c-13 -29 -41 -68 -62 -87
-39 -36 -119 -66 -174 -66 -17 0 -145 34 -285 75 -140 41 -258 75 -262 75 -15
0 -8 -30 16 -78 16 -32 67 -87 157 -171 224 -207 265 -257 353 -427 25 -50 60
-104 77 -120 115 -110 424 91 519 338 41 105 74 237 96 375 14 93 18 246 24
1078 8 1133 7 1116 110 1385 22 58 40 116 40 130 -1 38 -35 106 -81 161 -69
82 -289 252 -405 313 -80 41 -112 43 -154 6z"/>
<path d="M5589 5950 c-52 -9 -94 -32 -104 -58 -9 -24 26 -49 94 -68 344 -94
636 -234 877 -419 188 -145 211 -159 281 -163 123 -8 188 64 188 208 0 48 -6
77 -24 114 -31 63 -114 144 -188 183 -67 36 -256 103 -358 126 -62 15 -675 89
-707 86 -7 -1 -34 -5 -59 -9z"/>
<path d="M2023 5800 c-36 -8 -59 -24 -73 -51 -14 -25 31 -49 165 -88 297 -88
579 -227 809 -401 105 -79 148 -100 206 -100 112 0 180 82 180 218 0 67 -26
119 -84 168 -36 30 -93 55 -273 120 l-227 83 -301 31 c-311 31 -348 33 -402
20z"/>
<path d="M3845 4971 c-32 -30 -596 -373 -925 -561 -458 -262 -753 -410 -817
-410 -12 0 -114 25 -227 55 -112 30 -208 55 -213 55 -4 0 -28 -17 -52 -38 -43
-37 -44 -39 -33 -70 20 -57 101 -150 235 -270 191 -170 282 -231 345 -232 15
0 68 38 150 108 70 60 183 151 252 202 190 142 503 383 620 479 120 97 333
273 340 281 3 3 64 58 135 122 72 64 159 146 194 182 64 64 64 66 46 86 -20
22 -36 25 -50 11z"/>
<path d="M6635 4504 c-369 -173 -700 -324 -737 -334 l-66 -20 -201 70 c-110
38 -204 70 -209 70 -4 0 -25 -18 -47 -40 l-38 -39 16 -43 c52 -135 390 -474
506 -509 l40 -12 108 89 c59 49 180 141 268 204 402 286 929 701 1038 817 26
28 27 30 10 46 -17 15 -62 -5 -688 -299z"/>
</g>
</svg>
