<?xml version="1.0" standalone="no"?>
<!DOCTYPE svg PUBLIC "-//W3C//DTD SVG 20010904//EN"
 "http://www.w3.org/TR/2001/REC-SVG-20010904/DTD/svg10.dtd">
<svg version="1.0" xmlns="http://www.w3.org/2000/svg"
 width="1024.000000pt" height="1024.000000pt" viewBox="0 0 1024.000000 1024.000000"
 preserveAspectRatio="xMidYMid meet">
<metadata>
Created by potrace 1.10, written by Peter Selinger 2001-2011
</metadata>
<g transform="translate(0.000000,1024.000000) scale(0.100000,-0.100000)"
fill="#000000" stroke="none">
<path d="M7614 10068 c-102 -72 -210 -166 -271 -236 -65 -73 -163 -205 -163
-218 0 -13 -42 -93 -75 -142 l-29 -44 -18 24 c-9 13 -18 26 -18 30 0 4 -9 9
-19 13 -22 7 -61 98 -61 142 0 52 -32 141 -69 189 -43 58 -131 115 -164 107
-43 -11 -135 -107 -143 -150 -7 -40 -10 -31 60 -260 56 -187 73 -253 62 -253
-3 0 -29 18 -58 41 -69 52 -232 132 -271 132 -65 0 -85 -74 -43 -160 24 -50
106 -304 106 -330 0 -9 9 -30 20 -48 15 -25 21 -58 26 -151 l7 -119 -26 24
c-15 13 -30 39 -33 58 -4 19 -16 41 -29 49 -34 22 -218 81 -240 76 -46 -9 -55
-30 -55 -123 0 -48 5 -91 10 -94 6 -3 10 -14 10 -23 0 -10 9 -35 20 -57 11
-21 24 -64 30 -95 10 -53 9 -60 -17 -106 -26 -45 -28 -57 -27 -147 1 -54 5
-131 9 -171 l6 -72 96 -60 c76 -47 92 -60 74 -62 -15 -2 -28 4 -38 17 -32 46
-119 66 -172 38 -39 -20 -87 -118 -95 -193 l-7 -65 48 -49 47 -49 -3 -86 c-2
-65 -8 -95 -23 -121 -16 -28 -19 -44 -14 -82 8 -54 8 -50 -2 -122 -4 -32 -19
-75 -36 -104 -21 -34 -29 -62 -29 -93 0 -40 -3 -45 -34 -60 -18 -8 -43 -29
-55 -45 -19 -27 -20 -38 -14 -128 6 -91 9 -101 36 -130 30 -32 29 -57 0 -75
-19 -11 -12 -100 10 -128 23 -29 25 -48 8 -65 -8 -8 -11 -39 -9 -89 2 -62 7
-82 26 -107 l24 -31 -21 -60 c-14 -43 -18 -73 -14 -107 5 -37 2 -54 -14 -80
-15 -24 -20 -50 -20 -100 l0 -68 42 -30 c22 -16 47 -30 54 -30 7 0 26 -12 43
-26 26 -22 31 -33 31 -70 l0 -45 -73 51 c-65 45 -76 50 -99 41 -67 -25 -57
-83 23 -142 56 -42 70 -59 49 -59 -5 0 -10 -18 -10 -40 0 -27 -4 -40 -13 -40
-24 0 -47 -36 -47 -73 0 -32 6 -42 48 -74 27 -21 54 -49 60 -63 11 -21 9 -27
-18 -51 -28 -26 -30 -33 -30 -96 0 -59 4 -74 30 -113 37 -56 37 -73 0 -120
-16 -21 -30 -46 -30 -56 0 -35 49 -284 60 -304 5 -10 10 -31 10 -47 0 -15 8
-41 18 -58 10 -16 22 -43 26 -58 5 -22 11 -27 26 -22 11 4 25 -1 37 -13 10
-11 30 -27 46 -37 17 -11 27 -26 27 -41 0 -27 0 -27 -97 -10 -40 7 -75 11 -78
8 -3 -3 -5 -22 -5 -43 0 -32 6 -43 35 -66 19 -15 35 -35 35 -44 0 -11 23 -21
78 -35 69 -18 77 -23 77 -45 0 -23 -2 -24 -60 -21 -33 1 -70 5 -82 7 -20 5
-23 1 -23 -23 0 -16 9 -37 21 -48 11 -10 18 -26 16 -35 -4 -14 5 -18 40 -24
41 -6 44 -9 41 -33 -3 -23 -10 -28 -58 -40 -30 -7 -66 -14 -80 -16 -14 -2 -31
-4 -37 -4 -28 -4 -53 -42 -53 -82 0 -49 18 -63 115 -84 39 -9 80 -18 93 -21
32 -8 31 -52 -3 -61 -14 -3 -25 -9 -25 -13 0 -4 22 -18 48 -31 l49 -25 -25
-92 c-23 -87 -27 -93 -51 -93 -36 0 -120 -41 -164 -80 -29 -25 -37 -39 -37
-66 0 -29 6 -38 36 -56 31 -18 34 -24 29 -50 -8 -34 14 -57 84 -90 33 -15 54
-18 87 -13 l44 6 0 -35 c0 -44 11 -51 80 -51 54 0 55 0 58 -31 3 -30 0 -33
-62 -59 -37 -15 -66 -31 -66 -34 0 -3 6 -26 14 -51 8 -25 20 -64 27 -87 14
-49 21 -53 37 -19 28 62 141 156 188 156 28 0 47 -24 40 -48 -4 -11 -33 -36
-65 -56 -52 -32 -101 -88 -101 -117 0 -5 17 -9 38 -9 46 0 78 29 88 78 8 38
20 48 39 32 11 -9 25 -4 67 24 52 36 88 46 88 25 0 -6 16 -1 35 11 43 26 65
20 65 -17 0 -22 -18 -46 -78 -106 -42 -42 -83 -77 -90 -77 -8 0 -12 -15 -12
-42 0 -76 12 -76 69 1 48 65 81 87 94 64 3 -5 -12 -45 -33 -90 -39 -83 -41
-112 -5 -51 10 18 43 59 73 91 53 55 85 70 95 45 3 -8 32 14 74 55 66 65 71
68 96 56 15 -7 27 -20 27 -30 0 -9 6 -19 14 -22 20 -8 26 -49 42 -322 18 -293
13 -759 -11 -1010 -20 -207 -33 -397 -37 -510 l-2 -89 49 -29 c48 -28 56 -29
270 -42 289 -17 276 -32 190 225 -54 160 -56 172 -85 422 -16 142 -45 360 -65
485 -43 282 -79 565 -99 788 -9 94 -18 188 -20 209 l-4 39 54 -54 c31 -30 58
-66 61 -81 5 -25 10 -28 48 -28 26 0 47 -6 56 -16 7 -8 26 -22 43 -31 17 -9
35 -22 39 -29 10 -18 28 -18 51 -1 17 13 17 16 -12 68 -41 72 -32 85 60 87 63
2 68 0 92 -29 14 -17 26 -37 26 -45 0 -18 10 -17 38 4 l22 17 -45 55 c-50 60
-55 93 -16 98 44 7 69 -7 95 -53 15 -25 31 -45 36 -45 16 0 11 13 -16 41 -48
51 -11 76 61 42 l36 -17 30 31 c30 29 30 31 16 59 -8 16 -29 39 -46 52 -36 26
-39 47 -11 62 34 18 97 -5 123 -45 26 -41 28 -41 52 -15 17 19 17 21 -10 55
-15 20 -42 44 -61 52 -27 13 -34 23 -34 45 0 17 7 31 19 37 15 9 28 3 69 -29
34 -27 52 -36 55 -28 3 8 9 2 15 -13 13 -34 39 -44 51 -20 9 17 -6 46 -73 136
-17 23 1 45 37 45 37 0 68 -24 93 -71 l16 -31 29 28 29 28 -37 38 c-31 31 -36
42 -27 56 17 27 78 28 105 1 21 -21 23 -21 35 -4 12 17 6 22 -69 65 -80 46
-104 74 -73 86 8 3 60 -9 115 -27 80 -26 103 -31 113 -21 10 10 9 19 -1 45 -7
17 -14 40 -14 49 -1 12 -17 24 -45 35 -38 14 -56 15 -131 6 -54 -7 -93 -7
-103 -2 -44 23 -1 88 58 89 17 0 98 -9 179 -20 81 -11 149 -20 151 -20 9 0 3
27 -11 54 -17 33 -19 62 -5 71 24 15 6 25 -45 25 -41 0 -63 -6 -91 -25 -44
-30 -80 -32 -94 -6 -5 11 -10 22 -10 25 0 3 31 23 69 46 63 36 76 40 140 40
61 0 71 2 71 18 0 9 3 28 7 42 l6 25 -28 -28 c-29 -28 -63 -34 -96 -16 -15 8
-27 5 -54 -11 -39 -24 -73 -23 -88 2 -8 12 -4 24 19 51 16 20 37 36 48 36 15
1 16 4 6 16 -8 9 -10 27 -6 47 4 18 8 41 9 50 1 9 4 16 7 16 17 -1 23 3 13 10
-8 5 -3 19 16 48 16 22 39 71 51 109 l23 69 -23 18 c-22 18 -23 21 -10 75 10
45 10 58 0 61 -7 3 1 18 22 39 l33 34 1 154 1 155 27 21 c37 29 56 70 56 120
0 35 7 49 39 84 71 77 77 172 15 214 -42 29 -88 23 -150 -20 l-43 -29 15 47
c8 27 17 59 20 71 4 15 32 40 75 68 64 41 69 47 85 100 28 96 7 165 -63 206
-27 17 -33 25 -28 42 41 137 72 464 46 480 -6 4 -57 12 -111 18 -55 6 -100 16
-100 21 0 6 15 28 34 51 67 82 81 121 79 221 -3 121 -3 154 1 267 2 87 5 100
33 145 38 59 46 84 45 138 -2 68 -15 89 -69 112 -43 18 -54 19 -79 8 l-30 -12
20 56 c14 42 19 81 18 160 0 97 2 107 34 174 38 79 43 133 18 177 -29 49 -119
89 -156 69 -20 -11 -20 -10 -4 18 32 57 59 140 71 221 9 58 25 108 54 166 51
106 65 162 58 235 -5 64 -41 157 -66 170 -10 6 -24 3 -41 -9 -22 -15 -33 -17
-75 -9 -57 11 -103 -1 -131 -32 -11 -12 -45 -44 -76 -71 -53 -46 -58 -48 -58
-26 1 18 26 41 122 108 161 113 161 113 204 101 33 -9 36 -8 46 17 22 56 22
166 0 239 l-21 68 -83 37 -83 37 3 50 c2 49 2 51 -35 69 -51 25 -83 16 -105
-29 -9 -19 -23 -41 -32 -48 -9 -8 -16 -20 -16 -29 0 -23 -72 -114 -158 -200
-84 -82 -180 -156 -282 -217 -36 -21 -66 -39 -66 -39 -1 -1 -5 -11 -8 -23 -6
-18 -1 -26 26 -43 42 -25 100 -26 153 0 23 11 91 65 151 120 105 96 111 99
156 100 30 0 50 5 55 14 4 8 38 38 76 66 l67 51 30 -21 c22 -16 30 -30 31 -53
1 -18 4 -43 8 -57 6 -23 1 -28 -73 -64 -61 -29 -98 -57 -158 -117 -49 -49 -78
-86 -78 -99 0 -12 -11 -35 -25 -52 -27 -32 -31 -58 -15 -89 9 -15 7 -21 -5
-25 -10 -4 -15 -19 -15 -46 0 -30 7 -46 29 -69 52 -51 105 -38 207 53 107 95
174 148 186 148 7 0 7 -4 1 -12 -6 -7 -32 -78 -58 -157 -43 -130 -47 -150 -42
-207 5 -56 4 -65 -14 -77 -11 -8 -51 -56 -89 -107 -44 -59 -91 -108 -130 -137
-59 -43 -62 -44 -110 -35 -46 9 -51 8 -77 -20 -26 -27 -27 -30 -13 -55 23 -40
110 -84 179 -90 79 -7 139 9 234 63 44 24 81 44 83 44 9 0 3 -43 -11 -69 -9
-18 -18 -87 -25 -181 -6 -84 -15 -161 -20 -170 -5 -10 -29 -29 -53 -43 -69
-41 -147 -134 -147 -177 0 -5 16 -18 36 -30 51 -32 191 -34 251 -4 44 22 45
19 6 -32 -28 -38 -32 -117 -7 -145 15 -17 15 -21 0 -59 -18 -45 -14 -125 7
-168 16 -33 -26 -160 -57 -172 -39 -14 -59 -77 -54 -170 3 -77 5 -83 35 -110
39 -35 103 -54 151 -45 l35 6 -6 -48 c-4 -26 -9 -84 -13 -128 -4 -44 -11 -88
-16 -97 -29 -57 -281 -398 -298 -403 -30 -10 -73 -70 -65 -94 18 -59 69 -86
114 -61 20 10 101 114 101 129 0 6 16 22 35 37 19 14 35 31 35 36 0 6 23 37
52 70 47 54 54 59 82 54 16 -4 32 -8 34 -11 5 -5 -203 -299 -231 -328 -10 -10
-25 -16 -33 -13 -9 3 -33 -4 -55 -17 -38 -22 -39 -23 -39 -79 0 -57 1 -58 42
-84 l41 -26 64 32 c35 18 63 36 63 41 0 4 26 24 58 44 55 35 91 40 115 16 18
-17 -7 -60 -55 -97 -28 -21 -69 -55 -90 -76 -34 -33 -38 -41 -33 -70 5 -26 1
-41 -19 -67 -29 -40 -32 -69 -11 -110 10 -21 12 -37 5 -60 -6 -20 -5 -43 2
-63 10 -27 8 -33 -9 -48 -12 -9 -59 -27 -106 -39 l-84 -23 -23 -56 c-20 -47
-21 -57 -9 -64 8 -5 37 -22 65 -38 48 -27 52 -32 59 -77 4 -26 11 -53 17 -60
6 -8 0 -18 -21 -34 -26 -19 -31 -29 -31 -66 0 -56 -31 -87 -108 -109 -44 -13
-56 -22 -68 -47 -13 -31 -12 -33 21 -62 32 -28 49 -55 24 -40 -15 10 -68 -15
-72 -34 -2 -9 -5 -51 -6 -95 -1 -56 2 -85 14 -102 15 -23 15 -23 -36 -30 -40
-5 -53 -12 -61 -30 -7 -16 -15 -21 -22 -15 -14 12 -74 -13 -82 -34 -7 -18 8
-43 65 -109 l41 -47 -24 -47 c-14 -27 -38 -54 -56 -65 -32 -17 -32 -17 -75 14
-48 34 -75 33 -107 -5 -26 -31 -57 -118 -64 -182 -5 -39 -12 -58 -25 -65 -11
-5 -19 -18 -19 -28 0 -10 -7 -24 -16 -32 -17 -14 -16 -14 -87 38 l-44 32 -48
-25 c-27 -13 -51 -24 -54 -24 -4 0 -25 24 -49 54 -35 45 -42 62 -42 99 0 42 2
45 43 63 61 27 345 314 427 432 36 51 66 97 68 102 2 5 -6 18 -18 30 -43 43
-67 27 -297 -208 l-213 -217 3 95 c2 91 3 94 27 100 18 4 57 55 156 203 72
108 168 246 213 305 44 60 81 116 81 123 0 21 -57 52 -83 45 -13 -4 -94 -99
-202 -237 -99 -127 -184 -233 -189 -236 -12 -8 4 229 17 245 6 7 9 36 8 65
l-2 52 176 189 c104 111 175 195 173 204 -2 9 -15 23 -30 31 -22 13 -33 14
-59 4 -26 -10 -34 -10 -46 2 -29 29 -60 28 -105 -3 -42 -29 -133 -118 -162
-157 -14 -19 -15 -19 -35 -1 -34 31 -44 81 -38 180 8 110 37 257 77 388 27 87
30 110 30 231 l0 135 136 134 c133 130 164 172 164 222 0 20 -9 30 -39 45 -21
11 -41 17 -45 14 -22 -22 5 22 79 131 47 68 85 129 85 136 0 19 -43 49 -70 50
-21 0 -52 -31 -165 -166 l-140 -166 -3 76 -3 77 206 233 c113 129 205 238 205
243 0 16 -58 53 -74 47 -8 -3 -64 -60 -125 -127 -60 -67 -132 -144 -160 -172
l-51 -49 0 55 c0 53 -2 57 -37 80 -71 45 -76 67 -66 289 4 107 8 231 8 275 l0
80 -30 -3 c-43 -5 -54 -18 -72 -83 l-16 -58 -104 89 c-99 84 -106 88 -134 78
-71 -25 -61 -73 34 -166 74 -71 110 -95 162 -106 l30 -6 -3 -90 -3 -89 -64 42
c-43 28 -65 49 -65 62 -2 32 -54 68 -89 60 -48 -10 -71 -37 -71 -83 0 -36 6
-45 53 -88 57 -51 147 -99 208 -109 l39 -7 -1 -706 c0 -389 -3 -701 -6 -695
-2 7 -37 22 -76 34 -95 28 -141 55 -208 126 -82 85 -183 163 -213 163 -20 0
-29 -8 -41 -37 -15 -37 -15 -37 21 -90 47 -69 148 -162 215 -200 58 -33 189
-78 256 -88 41 -6 42 -6 52 27 7 26 9 12 10 -74 l1 -106 -70 18 c-39 10 -76
22 -83 28 -7 5 -32 14 -57 20 -40 10 -50 9 -87 -11 -40 -20 -43 -25 -43 -63 0
-36 6 -47 41 -79 66 -59 121 -80 214 -80 l80 0 -3 -215 c-2 -118 -6 -217 -7
-218 -2 -2 -19 9 -38 24 -27 21 -37 38 -41 68 -9 56 -46 134 -84 174 -35 37
-62 37 -94 0 -21 -24 -24 -81 -4 -97 7 -6 23 -46 36 -89 16 -56 32 -87 59
-116 40 -42 102 -75 142 -76 l25 0 -4 -197 c-2 -109 -5 -199 -7 -201 -5 -6
-125 71 -125 80 0 5 -25 35 -55 67 -31 32 -55 67 -55 79 0 21 -54 62 -82 62
-29 0 -48 -35 -48 -89 0 -43 6 -62 35 -106 71 -106 170 -178 284 -205 l54 -13
-7 -90 c-3 -49 -6 -119 -6 -154 0 -55 -2 -63 -19 -63 -11 0 -21 -4 -23 -8 -1
-4 -35 -17 -74 -28 l-72 -21 -32 25 c-29 23 -35 24 -70 13 -22 -6 -52 -22 -67
-35 l-29 -24 -48 21 c-39 16 -54 18 -76 10 -26 -10 -32 -7 -62 24 -25 26 -40
33 -59 31 -34 -5 -28 19 8 33 27 10 43 45 43 94 0 30 -5 37 -37 54 -47 23 -73
15 -103 -33 -23 -38 -38 -50 -20 -17 5 11 10 36 10 56 0 33 -4 38 -37 51 l-38
15 1 67 c0 45 6 78 18 102 l19 34 -32 26 c-17 15 -31 29 -31 32 0 4 18 9 41
13 44 8 94 46 104 81 4 18 -2 27 -31 45 l-36 22 26 14 c37 20 52 60 30 84 -13
15 -35 19 -111 21 l-95 3 -31 56 -31 56 27 36 c27 36 39 61 50 107 6 23 1 29
-39 50 -39 22 -44 28 -39 50 3 14 9 48 12 77 4 43 9 52 29 57 32 8 47 41 39
83 -4 22 -14 38 -30 45 -13 6 -25 22 -29 40 -4 19 -17 35 -37 46 -17 9 -44 28
-60 40 -26 21 -29 30 -30 85 0 45 -9 85 -33 147 l-33 84 36 76 c44 91 48 152
14 199 -49 66 -17 84 73 41 35 -17 98 -37 140 -45 141 -27 172 -17 161 53 -11
66 -102 117 -199 110 -32 -2 -46 6 -100 52 -96 81 -97 83 -43 59 42 -19 68
-23 165 -23 l115 -1 13 28 c12 25 12 30 -5 42 -10 8 -56 26 -103 40 -185 56
-183 48 -16 72 81 12 149 23 151 25 2 1 6 15 10 30 6 22 1 33 -23 58 -29 29
-34 30 -119 30 -70 0 -95 4 -120 20 -32 19 -33 20 -27 78 8 71 -7 106 -66 152
-51 40 -44 46 66 55 70 6 87 10 99 28 30 43 21 54 -72 82 -163 48 -158 45
-161 95 -3 41 22 110 40 110 4 0 23 -7 42 -16 55 -27 113 0 151 69 l18 34 -31
44 c-17 24 -34 60 -37 79 -4 19 -14 44 -21 55 -8 11 -14 36 -14 57 0 54 -19
87 -62 109 -20 10 -43 29 -49 42 -7 12 -34 51 -61 86 -39 52 -48 72 -48 104
l0 39 113 -7 113 -7 67 33 c42 21 67 39 67 50 0 21 -48 86 -93 126 -39 34 -38
43 2 43 20 0 33 10 54 42 32 50 33 63 7 105 l-20 33 33 14 c50 20 87 70 89
119 4 103 -17 166 -68 206 -15 12 -37 42 -49 69 -20 44 -69 97 -112 120 -35
20 -2 25 91 14 112 -14 139 -7 163 43 13 28 14 39 5 60 -7 14 -12 48 -12 75 0
50 -23 90 -51 90 -6 0 -42 19 -79 42 -64 40 -68 45 -74 86 -13 92 -7 170 18
236 l24 64 -29 138 c-22 102 -26 141 -18 148 8 8 13 7 16 -1 14 -39 88 -136
141 -185 69 -63 140 -101 234 -123 93 -22 155 -20 168 5 6 12 21 20 35 20 45
0 60 66 25 110 -11 14 -20 33 -20 44 0 30 -64 86 -98 86 -22 0 -45 13 -84 49
-45 41 -56 59 -66 100 -8 34 -8 59 -2 77 16 42 12 66 -20 99 -26 27 -33 47
-51 144 -11 62 -19 114 -17 116 5 5 171 -182 207 -232 47 -66 135 -98 181 -66
12 8 23 13 24 12 10 -11 46 -197 46 -235 0 -77 53 -143 104 -130 42 10 51 46
33 131 -24 108 -41 303 -32 379 6 61 9 66 30 66 27 0 65 43 65 73 0 11 -10 35
-21 54 -30 47 -15 83 34 83 27 0 44 10 80 45 59 59 92 125 93 191 1 52 1 52
129 198 71 80 132 146 136 146 4 0 17 -14 29 -31 20 -26 20 -32 8 -47 -8 -9
-36 -52 -62 -94 -44 -72 -48 -82 -44 -130 4 -46 0 -60 -29 -106 -27 -43 -31
-56 -23 -73 14 -26 56 -42 78 -30 24 13 148 145 207 220 65 83 134 123 213
125 53 1 57 -1 60 -23 3 -19 -15 -43 -86 -115 -97 -99 -101 -109 -118 -259 -6
-53 -11 -63 -70 -126 -35 -38 -64 -75 -64 -83 0 -26 43 -39 115 -36 l70 3 30
57 c23 44 57 80 148 158 114 99 119 101 138 84 10 -9 19 -24 19 -33 0 -9 -68
-102 -151 -206 -83 -105 -163 -207 -177 -228 -24 -36 -24 -38 -7 -57 39 -43
60 -30 237 148 205 206 232 251 226 372 -2 65 -7 82 -30 113 -30 39 -71 71
-104 81 -17 5 -37 -12 -115 -103 -52 -60 -106 -115 -121 -121 -31 -14 -56 -8
-65 15 -8 22 26 93 48 100 19 6 177 191 224 263 27 41 27 43 9 57 -10 8 -22
15 -26 15 -5 0 -8 9 -8 20 0 27 -25 37 -121 49 -131 17 -151 15 -195 -20 l-39
-31 -6 36 c-3 20 -18 49 -32 64 -15 16 -27 32 -27 36 0 12 -90 116 -99 116 -4
0 -34 -19 -67 -42z m-837 -345 c7 -18 13 -55 13 -83 0 -40 6 -59 29 -91 16
-22 33 -55 36 -72 4 -18 24 -68 45 -112 59 -122 67 -152 57 -208 l-9 -49 -20
58 c-10 31 -36 82 -56 113 -31 48 -43 87 -84 261 -27 113 -51 214 -55 225 -5
18 -4 19 12 5 10 -8 24 -29 32 -47z m-172 -1179 c63 -39 61 -39 -21 -4 -34 14
-56 31 -64 48 -11 25 -11 26 7 10 10 -9 45 -33 78 -54z m95 -44 c8 -5 11 -10
5 -10 -5 0 -17 5 -25 10 -8 5 -10 10 -5 10 6 0 17 -5 25 -10z m914 -3232 c-4
-7 -33 -46 -63 -87 l-56 -75 -3 39 c-2 25 1 41 10 46 8 4 37 26 64 48 54 44
59 47 48 29z m-1270 -2373 c-12 -9 -41 -14 -79 -14 -33 0 -55 3 -50 5 8 3 80
15 139 23 6 0 1 -6 -10 -14z m910 -334 c-4 -39 -10 -71 -14 -71 -4 0 -15 9
-25 20 -18 20 -18 22 9 77 15 30 29 53 32 51 2 -3 1 -37 -2 -77z m-720 23 c9
-4 16 -18 16 -34 0 -23 -11 -34 -76 -73 -42 -26 -80 -47 -84 -47 -4 0 -15 9
-24 19 -17 18 -16 21 19 59 20 22 55 50 78 61 46 23 49 24 71 15z m516 -25 c0
-5 -4 -9 -10 -9 -5 0 -10 7 -10 16 0 8 5 12 10 9 6 -3 10 -10 10 -16z m344
-495 c20 -8 20 -46 1 -110 -18 -59 -18 -54 -2 -54 9 0 19 -34 31 -102 35 -199
47 -506 27 -676 -7 -56 -10 -124 -7 -150 25 -213 41 -306 63 -367 15 -40 28
-99 30 -137 l5 -68 -42 0 c-50 0 -97 19 -152 62 -24 18 -44 34 -46 34 -2 1 1
19 7 40 7 27 7 40 0 45 -7 4 -9 24 -5 55 9 62 9 81 0 237 -4 90 -3 132 5 140
6 6 11 23 11 38 0 15 5 40 10 55 9 23 7 33 -10 55 -24 34 -28 135 -6 201 8 24
17 104 21 178 7 129 6 136 -14 154 -19 18 -21 29 -21 157 0 132 1 139 27 178
26 41 37 46 67 35z"/>
<path d="M7462 540 c0 -14 2 -19 5 -12 2 6 2 18 0 25 -3 6 -5 1 -5 -13z"/>
<path d="M2853 9901 c-97 -45 -192 -169 -242 -316 l-28 -84 -34 67 c-45 89
-172 222 -212 222 -16 0 -37 5 -49 11 -33 18 -66 2 -88 -41 -18 -35 -20 -59
-20 -240 0 -187 -1 -201 -17 -196 -10 2 -65 12 -122 21 -154 25 -210 11 -276
-70 -40 -49 -54 -93 -55 -171 0 -43 6 -60 42 -114 24 -35 84 -101 134 -148 83
-77 93 -90 104 -138 7 -30 11 -56 9 -59 -3 -2 -27 4 -55 14 -27 10 -113 32
-191 49 -138 29 -142 29 -180 12 -44 -19 -89 -68 -110 -119 -25 -59 -9 -144
43 -225 24 -38 44 -73 44 -77 0 -5 25 -46 55 -93 30 -46 55 -87 55 -91 0 -7
-32 -4 -126 11 -35 5 -44 3 -63 -17 -30 -32 -41 -80 -30 -129 7 -32 4 -61 -16
-140 -14 -54 -25 -101 -25 -105 0 -3 34 -42 76 -86 41 -45 73 -83 71 -85 -2
-3 -40 8 -84 24 -91 32 -108 30 -161 -21 -21 -20 -35 -45 -39 -70 -4 -27 -9
-35 -16 -28 -19 19 -27 12 -27 -25 0 -70 70 -131 140 -121 33 4 38 2 47 -24 9
-24 9 -29 -3 -29 -39 0 -70 -29 -81 -75 l-11 -47 62 -65 c65 -70 63 -66 66
-195 0 -31 51 -95 85 -108 17 -7 23 -20 28 -62 11 -86 9 -101 -9 -94 -17 7
-104 -30 -104 -43 0 -5 9 -55 21 -111 25 -122 64 -193 117 -211 17 -6 32 -14
32 -18 0 -4 -18 -16 -40 -26 -22 -10 -42 -26 -45 -35 -8 -27 11 -67 42 -87 29
-18 186 -153 179 -153 -2 0 -33 13 -68 30 -34 16 -70 30 -79 30 -21 0 -59 -37
-59 -58 0 -9 -3 -33 -6 -52 -5 -35 -5 -35 120 -125 125 -89 126 -90 126 -130
l0 -40 -20 32 c-25 41 -52 55 -93 48 -41 -8 -67 -47 -67 -102 0 -36 6 -44 84
-115 92 -83 95 -98 20 -98 -50 0 -93 31 -118 85 -9 19 -22 35 -28 35 -6 0 -27
-17 -48 -38 -49 -49 -60 -103 -31 -159 11 -22 54 -73 96 -114 42 -41 102 -111
132 -156 l55 -82 1 -108 c2 -100 5 -114 34 -173 17 -36 34 -83 37 -105 2 -22
7 -50 11 -61 13 -40 -9 -61 -79 -74 l-65 -12 -31 -79 c-27 -65 -35 -77 -49
-70 -26 13 -77 -6 -105 -40 -28 -33 -32 -50 -16 -80 12 -22 226 -183 280 -211
19 -10 28 -18 20 -18 -7 0 -22 -8 -32 -17 -18 -16 -23 -16 -81 5 -85 30 -104
28 -143 -14 -28 -29 -34 -43 -34 -78 0 -35 5 -46 30 -64 37 -27 38 -42 5 -42
-18 0 -32 -11 -49 -37 -54 -83 -29 -144 72 -178 46 -15 47 -16 50 -61 2 -37
-3 -52 -23 -76 -14 -16 -25 -33 -25 -37 0 -10 70 -75 177 -165 51 -42 95 -81
98 -85 3 -5 -45 6 -107 25 -99 29 -117 38 -158 79 l-46 45 -24 -25 c-20 -21
-24 -35 -23 -89 0 -35 3 -68 7 -74 3 -5 78 -49 166 -97 88 -48 158 -90 156
-94 -2 -3 22 -22 54 -40 62 -36 73 -49 60 -71 -7 -11 -22 -9 -85 9 -72 21 -95
21 -95 1 0 -20 35 -50 58 -50 32 0 84 -53 80 -82 -3 -21 -8 -23 -60 -23 -64 0
-90 17 -110 71 -14 41 -30 42 -74 9 -58 -44 -85 -88 -78 -124 4 -18 13 -35 20
-38 8 -3 43 7 79 22 56 24 71 27 107 19 39 -9 43 -12 41 -37 -2 -30 0 -31 28
-17 29 16 44 2 22 -22 -17 -19 -17 -19 10 -13 44 11 77 -2 77 -30 0 -18 -13
-34 -47 -60 -27 -19 -58 -38 -70 -41 -21 -6 -22 -7 -7 -35 17 -34 34 -30 80
23 32 37 111 72 138 62 19 -7 22 -59 4 -70 -7 -5 -4 -10 11 -16 21 -8 22 -10
9 -31 -83 -125 -108 -168 -108 -181 0 -23 7 -20 60 24 29 25 54 38 63 34 12
-4 25 13 51 65 20 38 50 86 67 106 33 37 41 38 112 19 22 -7 24 -64 2 -64 -14
0 -14 -3 0 -30 24 -47 19 -68 -19 -84 -36 -15 -52 -44 -47 -85 2 -17 -13 -40
-57 -85 l-60 -61 34 -44 34 -43 35 73 c29 61 42 77 82 101 50 29 83 36 83 17
0 -19 -78 -154 -100 -174 -11 -10 -20 -22 -20 -26 0 -16 31 4 44 28 l13 25 32
-50 c45 -71 71 -78 71 -19 0 41 44 97 76 97 33 0 39 -20 20 -65 -23 -53 -21
-77 3 -48 l19 22 6 -29 c3 -17 9 -30 13 -29 5 0 21 27 37 60 17 33 55 88 87
122 53 59 57 61 83 49 14 -6 26 -19 26 -28 0 -9 -24 -42 -53 -74 -68 -73 -120
-180 -88 -180 5 0 26 -16 47 -35 27 -25 47 -35 71 -35 42 0 44 22 3 46 -22 14
-28 23 -25 41 3 13 7 34 10 48 8 37 63 95 91 95 29 0 31 -19 9 -100 -8 -30
-15 -57 -15 -59 0 -2 12 0 26 3 24 6 26 5 20 -16 -13 -43 -25 -163 -26 -253 0
-50 -11 -178 -24 -285 -14 -107 -28 -228 -32 -267 -4 -42 -12 -78 -20 -84 -8
-6 -14 -26 -14 -43 0 -17 -13 -124 -28 -237 -23 -170 -32 -211 -50 -234 -12
-15 -22 -34 -22 -42 0 -19 90 -59 191 -84 76 -20 97 -21 228 -13 l145 9 22 51
22 50 -33 80 c-45 109 -71 201 -90 322 -15 90 -15 106 -3 120 13 15 13 90 6
522 -9 483 -10 506 -28 522 -12 9 -20 29 -20 47 0 31 0 31 53 31 28 0 74 -7
100 -15 37 -11 49 -12 52 -2 3 7 6 55 7 107 3 92 4 95 27 98 29 4 40 -12 42
-58 1 -45 13 -78 23 -62 4 7 23 12 42 12 19 0 34 4 34 10 0 5 -14 60 -30 121
-24 88 -28 114 -19 126 23 27 53 10 84 -49 17 -31 34 -60 37 -64 10 -10 96 57
104 80 5 15 -4 29 -40 59 -46 39 -59 73 -31 83 29 11 67 -7 115 -55 44 -44 49
-47 54 -27 3 11 6 46 6 76 -1 108 -56 177 -201 250 -86 43 -194 69 -213 50 -6
-6 -20 -10 -31 -10 -26 0 -49 -24 -64 -64 -10 -24 -7 -36 18 -83 l30 -55 -39
-37 c-27 -26 -40 -47 -40 -64 0 -15 -15 -48 -34 -74 -18 -27 -36 -59 -39 -73
-4 -14 -20 -36 -38 -49 l-31 -23 4 170 3 170 90 94 c83 86 195 250 195 284 0
7 -15 22 -34 33 -62 39 -79 27 -190 -136 l-98 -145 -39 38 c-22 21 -39 43 -39
49 0 6 20 21 44 33 32 15 66 48 121 116 83 104 132 144 279 232 114 68 152
102 164 147 13 45 -8 81 -58 101 -81 32 -104 25 -251 -76 -81 -56 -167 -126
-217 -176 l-82 -84 2 443 3 443 53 10 c49 10 58 17 143 111 50 55 113 137 141
182 73 118 173 226 365 391 96 84 104 135 26 186 -32 21 -44 24 -74 17 -101
-23 -348 -241 -475 -421 -30 -41 -83 -106 -118 -145 l-65 -70 -1 58 c0 56 1
57 28 57 22 0 44 18 108 88 152 165 183 224 152 289 -17 37 -32 35 -60 -6 -13
-19 -40 -48 -60 -64 -33 -27 -41 -29 -63 -19 -42 19 -32 49 40 119 36 35 65
71 65 80 -1 10 71 88 165 178 l166 160 -35 23 c-26 18 -43 22 -64 17 -17 -3
-89 -57 -167 -123 -143 -120 -212 -203 -247 -295 l-17 -42 0 125 0 125 66 40
c116 70 279 252 300 333 13 52 -79 84 -125 45 -12 -10 -71 -83 -131 -162
l-111 -144 -2 97 c-1 53 -2 104 -2 113 -1 10 9 19 21 23 22 5 171 131 186 157
5 7 104 95 220 195 319 273 297 251 276 277 l-18 22 -71 -24 c-40 -14 -78 -34
-86 -45 -8 -12 -50 -48 -92 -81 -43 -34 -93 -79 -111 -102 -18 -22 -40 -44
-50 -48 -41 -17 -82 -48 -87 -64 -4 -14 -13 -18 -32 -14 -23 5 -37 -4 -92 -58
l-65 -65 3 63 4 62 51 35 c88 59 136 110 187 198 28 46 50 85 50 87 0 6 -88
55 -99 55 -18 0 -69 -50 -75 -74 -3 -13 -28 -57 -56 -97 -56 -82 -56 -82 -40
66 18 158 15 151 74 190 122 81 242 234 301 385 27 68 22 94 -18 109 -46 17
-69 -6 -192 -189 -66 -98 -123 -176 -127 -174 -4 3 -18 -2 -29 -10 -27 -19
-59 -2 -59 32 0 12 -10 36 -22 53 -21 27 -23 44 -26 162 -3 110 0 144 17 207
12 41 21 80 21 86 0 19 -71 56 -95 50 -57 -14 -97 -266 -75 -466 10 -95 14
-108 41 -136 l30 -31 -7 -369 c-4 -243 -3 -430 5 -549 6 -99 11 -245 11 -325
-1 -172 -1 -211 -1 -352 0 -59 -4 -151 -9 -205 -6 -54 -17 -195 -25 -313 -8
-118 -17 -246 -21 -283 l-6 -68 -44 41 c-53 49 -166 123 -228 150 -25 10 -46
23 -46 27 0 4 -16 20 -34 36 -30 23 -38 25 -59 16 -27 -12 -77 -101 -77 -137
0 -33 78 -113 194 -199 54 -40 141 -114 193 -164 93 -90 94 -91 91 -135 l-3
-44 -130 120 c-71 66 -136 120 -145 120 -8 0 -32 -17 -53 -36 -36 -33 -38 -38
-28 -66 6 -17 11 -46 11 -65 0 -26 14 -52 61 -114 65 -85 218 -224 275 -249
29 -13 34 -20 34 -47 0 -18 -3 -33 -6 -33 -3 0 -53 25 -111 55 -138 72 -188
72 -233 0 -52 -84 -21 -142 94 -176 58 -18 79 -30 116 -69 25 -26 59 -69 75
-96 21 -33 43 -55 73 -69 l42 -20 0 -77 c0 -42 -7 -112 -16 -155 -9 -43 -16
-95 -15 -115 1 -21 -3 -38 -8 -38 -5 0 -23 18 -39 41 -23 30 -29 49 -27 77 1
20 1 29 -2 20 -3 -14 -9 -16 -22 -9 -17 10 -23 7 -80 -27 -19 -11 -22 -10 -32
12 -9 19 -7 43 8 109 l20 85 -28 21 c-35 26 -71 20 -94 -16 l-17 -25 -17 24
c-18 28 -83 86 -123 111 -17 10 -32 35 -43 68 -11 31 -34 68 -59 95 l-43 44
-105 0 c-99 0 -106 1 -128 25 l-23 25 27 0 c33 0 62 14 99 48 31 30 35 61 9
92 -16 19 -28 22 -102 24 -73 1 -92 5 -131 28 -45 27 -99 93 -99 123 0 20 29
19 58 -1 12 -8 61 -29 109 -45 l86 -29 22 23 c12 12 29 27 39 32 15 8 -3 22
-107 83 -118 69 -125 75 -131 110 -4 28 -2 40 11 50 24 17 47 15 68 -8 10 -11
33 -22 51 -26 24 -4 36 -13 40 -28 3 -13 26 -35 54 -52 27 -16 50 -32 50 -35
0 -3 7 -14 15 -25 15 -18 16 -17 9 16 -3 19 -10 40 -15 46 -4 5 -6 20 -3 31 5
19 1 22 -42 29 -64 9 -138 63 -168 122 -19 36 -37 53 -102 91 -48 29 -80 54
-83 66 -2 11 -12 32 -22 47 -23 31 -24 51 -4 68 17 14 53 -8 107 -68 32 -35
47 -42 156 -72 66 -18 128 -30 136 -27 20 8 21 60 1 77 -11 9 -12 17 -5 30 13
25 13 30 -5 30 -8 0 -15 -7 -15 -15 0 -12 -14 -15 -62 -15 -73 0 -147 30 -192
78 -26 28 -27 33 -16 66 14 44 45 49 62 10 8 -16 30 -34 57 -46 39 -17 46 -17
61 -3 21 19 60 19 86 0 28 -21 40 -18 54 15 7 16 24 37 38 46 25 16 25 18 7
25 -11 4 -30 8 -43 8 -20 1 -21 -2 -12 -20 7 -11 9 -28 6 -36 -16 -40 -189 18
-271 89 -36 33 -39 38 -30 64 15 42 65 46 91 7 l18 -28 6 29 c7 42 33 55 67
35 16 -9 54 -24 85 -33 32 -9 65 -19 75 -23 12 -4 8 4 -12 26 -32 35 -113 81
-141 81 -10 0 -25 6 -33 14 -9 8 -64 35 -123 61 -117 51 -109 41 -93 120 9 40
41 31 155 -45 57 -38 105 -68 107 -67 1 2 0 12 -3 23 -3 12 -49 47 -115 88
-74 46 -109 74 -109 86 0 31 32 31 117 1 l81 -30 22 24 c12 13 23 38 23 57 2
32 1 33 -32 30 -44 -5 -85 13 -102 45 -19 36 8 54 69 46 44 -6 45 -6 39 18 -4
13 -7 34 -7 47 0 20 -36 51 -75 66 -5 2 2 17 17 33 24 24 28 38 29 90 1 50 -3
70 -25 107 -22 37 -26 57 -26 119 0 101 -14 171 -48 238 l-29 56 26 10 c23 9
18 11 -54 28 -92 20 -115 30 -115 50 0 25 19 27 161 20 l140 -8 -2 -36 c-3
-61 0 -66 22 -37 26 33 35 33 67 -2 90 -96 363 -247 500 -277 28 -6 32 -4 32
15 0 39 -59 86 -125 101 -77 17 -132 62 -191 156 -78 124 -206 220 -276 206
-25 -5 -28 -3 -28 23 0 22 -16 43 -75 99 -70 65 -75 73 -75 111 0 41 1 42 46
54 33 10 48 20 55 38 10 26 2 40 -63 124 -28 36 -11 58 43 58 34 0 42 5 65 40
l27 41 -29 31 c-16 17 -37 39 -46 50 -10 10 -18 28 -18 41 -1 31 -33 97 -62
127 -14 14 -36 51 -51 82 -23 52 -31 60 -94 92 -94 49 -53 45 48 -4 107 -52
148 -53 195 -6 19 19 34 41 34 49 0 25 -80 94 -152 132 -82 44 -110 86 -127
195 -14 89 -46 163 -93 216 -21 23 -38 55 -42 77 l-7 38 38 -6 c21 -4 55 -11
75 -15 31 -6 40 -4 57 14 23 24 41 87 48 163 3 34 11 58 24 69 10 9 19 25 19
35 0 10 9 23 20 29 48 26 38 49 -98 232 -130 175 -155 225 -125 249 9 9 19 7
37 -4 55 -36 136 -50 256 -44 123 7 150 17 180 70 13 23 13 31 1 59 -8 18 -13
54 -12 80 1 43 -1 48 -41 81 -24 19 -62 41 -85 48 -39 13 -53 28 -147 159 -57
80 -103 146 -102 147 0 1 24 -3 51 -8 44 -9 168 -21 350 -35 75 -6 122 19 177
91 47 61 49 89 8 110 -27 14 -30 20 -30 65 l0 50 38 0 c55 0 69 21 77 110 4
41 13 99 21 128 13 47 13 55 1 65 -10 8 -19 52 -27 140 -7 71 -10 130 -8 132
2 3 23 -42 46 -99 48 -117 51 -154 23 -254 -16 -58 -17 -74 -6 -115 17 -67 51
-99 112 -104 l48 -5 22 57 c20 53 21 60 7 94 -13 34 -13 43 6 102 11 35 20 84
20 109 0 25 18 137 41 250 l41 205 76 107 c69 98 102 129 102 96 -1 -47 -49
-214 -68 -235 -12 -14 -22 -38 -22 -54 0 -16 -11 -46 -24 -67 -32 -50 -101
-355 -92 -406 9 -48 50 -94 95 -106 36 -9 60 -40 82 -105 4 -11 7 -14 8 -7 1
9 11 11 34 7 39 -7 38 -7 111 85 75 95 82 102 63 64 -16 -31 -79 -254 -72
-254 2 0 22 26 44 58 21 32 69 86 105 120 45 42 99 111 167 214 55 84 102 154
105 157 8 8 -53 -153 -92 -244 -35 -83 -42 -138 -21 -166 18 -23 52 -39 85
-39 25 0 36 9 68 56 l39 57 3 -63 c2 -45 -1 -67 -12 -79 -9 -10 -25 -44 -36
-77 -35 -103 -127 -276 -199 -373 -72 -97 -74 -103 -87 -233 l-6 -68 29 0 c41
0 67 31 241 283 126 184 158 224 199 250 28 18 65 42 84 54 31 21 79 31 79 17
0 -3 -33 -60 -72 -127 -47 -78 -99 -149 -145 -198 -86 -89 -92 -115 -39 -148
26 -17 39 -19 59 -12 22 9 25 7 31 -19 7 -39 56 -65 95 -52 15 5 50 7 78 5 31
-3 53 -1 57 6 4 6 17 11 29 11 12 0 41 11 64 24 l41 24 22 -23 c12 -13 33 -26
47 -30 23 -5 25 -10 20 -43 -4 -20 -13 -62 -22 -92 -8 -30 -15 -84 -15 -121 0
-54 -4 -69 -21 -85 -12 -10 -50 -75 -84 -145 l-63 -125 -169 -143 c-198 -168
-226 -205 -220 -293 2 -42 10 -65 30 -91 36 -47 62 -55 92 -27 22 21 24 28 18
89 -6 65 -6 66 14 49 11 -10 22 -18 25 -18 4 0 45 63 93 140 78 127 89 140
115 140 44 0 60 -10 60 -37 0 -13 4 -21 10 -18 6 4 10 -6 10 -24 0 -16 -5 -33
-10 -36 -6 -4 -43 -50 -84 -103 -154 -205 -177 -258 -137 -313 l22 -30 -45
-54 c-55 -63 -59 -94 -17 -124 16 -12 35 -21 41 -21 7 0 58 44 114 99 56 54
159 146 230 204 l128 106 18 -22 c17 -21 17 -24 -33 -119 -50 -95 -51 -100
-52 -185 0 -64 -5 -97 -18 -121 -16 -29 -17 -44 -9 -110 9 -74 8 -79 -20 -133
-32 -63 -161 -194 -276 -279 l-74 -55 6 -54 c4 -29 11 -62 16 -72 10 -18 11
-18 31 2 13 13 27 18 37 14 9 -4 22 -9 27 -11 6 -3 48 34 94 81 46 47 95 88
108 91 14 4 31 21 41 42 9 19 26 41 37 48 19 12 20 10 24 -44 5 -66 5 -78 -5
-188 -5 -67 -4 -85 11 -107 14 -22 14 -29 3 -49 -7 -13 -29 -67 -48 -120 l-35
-96 -140 -117 c-77 -64 -163 -130 -191 -147 -40 -25 -54 -40 -63 -68 -15 -52
-14 -74 7 -92 37 -33 54 -29 172 37 l114 64 18 -27 c10 -15 18 -44 18 -66 0
-33 -14 -56 -105 -176 -102 -134 -105 -140 -105 -190 0 -92 -19 -139 -124
-299 -106 -163 -108 -170 -55 -200 22 -12 30 -10 101 33 91 56 163 142 205
249 26 67 65 113 85 101 18 -12 3 -112 -20 -137 -12 -13 -22 -33 -22 -44 0
-12 -4 -23 -10 -25 -5 -1 -32 -30 -60 -63 -49 -58 -51 -62 -49 -115 3 -70 -4
-90 -41 -115 -56 -37 -110 -132 -110 -194 0 -14 -21 -64 -45 -110 -25 -45 -45
-84 -45 -86 0 -1 20 -8 45 -14 37 -9 52 -8 82 4 20 8 37 14 39 13 1 -2 -2 -23
-6 -48 -8 -40 -6 -48 16 -71 31 -33 30 -45 -4 -52 -35 -7 -65 -49 -67 -94 -1
-19 -16 -55 -33 -82 l-30 -49 26 -43 c14 -24 40 -55 56 -69 17 -14 54 -46 82
-72 28 -26 67 -54 87 -63 34 -14 107 -21 107 -10 0 3 -34 37 -75 76 -41 39
-75 78 -75 85 0 43 79 34 149 -16 22 -17 41 -28 41 -25 0 3 -11 28 -25 55 -30
60 -30 58 -2 62 18 3 13 9 -31 31 -64 34 -67 57 -7 69 50 11 75 5 114 -28 42
-35 65 -29 69 20 3 35 -1 43 -46 86 -32 31 -68 54 -103 66 l-54 18 85 9 c75 7
88 11 111 36 25 27 48 105 35 118 -11 12 -166 -20 -187 -38 -26 -22 -29 -23
-51 -5 -25 18 -22 59 5 83 12 12 66 32 122 47 91 23 107 25 163 15 59 -11 65
-10 87 11 12 12 27 39 33 61 12 47 22 46 -153 15 -71 -13 -134 -21 -139 -18
-5 3 22 21 60 41 38 20 69 41 70 46 4 37 28 62 120 130 57 42 104 80 104 85 0
5 -18 19 -41 30 -37 19 -40 24 -38 55 2 19 0 37 -4 41 -9 10 -192 -170 -253
-247 l-44 -57 -42 11 c-55 13 -55 13 -32 38 19 21 19 22 -2 15 -14 -4 -27 0
-40 15 l-19 21 89 84 c88 83 117 98 133 69 7 -12 16 -6 40 29 34 48 100 102
146 118 40 15 31 39 -27 67 -51 25 -48 25 -133 -6 -20 -8 -17 92 4 124 12 17
18 53 21 114 4 84 3 90 -19 108 -31 26 -73 35 -98 21 -40 -21 -23 14 34 68 62
60 75 100 57 169 -7 24 -12 72 -12 108 0 36 -7 82 -16 105 l-16 40 47 43 c46
41 47 44 55 119 7 78 18 103 65 154 29 32 30 43 9 114 -17 58 -15 127 7 178
12 28 11 38 -4 81 -12 35 -17 80 -17 159 0 99 -2 112 -19 122 -16 8 -20 26
-26 92 -6 72 -4 90 15 133 18 42 20 60 15 122 l-7 72 41 61 c52 79 62 113 68
232 7 128 3 137 -41 103 -23 -18 -42 -24 -58 -20 -19 4 -51 -18 -173 -120 -82
-69 -155 -125 -161 -125 -6 0 -17 7 -24 15 -10 12 -8 21 13 47 13 18 37 45 53
60 16 15 68 64 115 110 169 164 204 190 236 177 21 -8 34 -1 104 58 44 37 76
69 72 73 -5 3 -26 19 -47 35 l-39 28 -69 -23 c-37 -13 -104 -45 -147 -71 -44
-26 -77 -41 -74 -33 3 8 0 14 -6 14 -19 0 -12 42 15 84 26 41 121 116 159 126
14 4 21 16 23 39 3 25 -3 38 -25 57 -24 22 -35 25 -77 20 -35 -4 -58 -13 -79
-33 l-29 -28 26 59 c40 90 54 157 70 331 l15 160 -25 32 c-15 19 -24 45 -24
67 0 26 -7 40 -27 55 -39 31 -67 35 -120 17 -25 -9 -50 -16 -55 -16 -4 0 -8
20 -8 44 0 37 -5 48 -32 71 -18 15 -39 24 -50 22 -17 -5 -17 -4 0 21 47 67 67
167 52 255 -11 62 -13 64 -56 85 -24 12 -50 22 -56 22 -6 0 -39 -18 -74 -40
-66 -41 -71 -41 -54 6 6 15 8 35 5 43 -4 9 -7 40 -8 69 -2 49 -6 57 -45 93
-48 45 -70 46 -109 3 -13 -14 -23 -21 -23 -16 0 4 22 73 50 153 30 85 50 161
50 187 0 93 -52 153 -150 174 -67 13 -73 24 -40 73 42 63 14 223 -42 244 -72
26 -81 24 -179 -50 -85 -64 -139 -99 -153 -99 -8 0 6 74 20 102 23 44 18 86
-13 114 -16 13 -41 37 -58 53 -16 16 -40 34 -52 40 -33 17 -113 13 -160 -8z
m531 -371 c5 -5 5 -29 0 -56 l-9 -48 -38 33 c-27 24 -44 32 -62 29 -38 -8 -31
15 13 40 36 21 75 22 96 2z m-1249 -485 c40 -8 63 -51 67 -132 l4 -61 -24 18
c-13 11 -50 52 -82 91 -54 66 -58 74 -42 85 9 7 24 11 32 9 8 -2 29 -6 45 -10z
m1815 -5089 c0 -3 -4 -8 -10 -11 -5 -3 -10 -1 -10 4 0 6 5 11 10 11 6 0 10 -2
10 -4z m-931 -3111 c16 -225 32 -567 26 -573 -7 -7 -149 8 -164 18 -18 11 23
202 52 245 18 26 22 52 29 190 5 88 13 170 18 183 6 13 10 38 10 56 0 28 8 51
16 44 1 -2 7 -75 13 -163z"/>
<path d="M8310 9142 c-27 -9 -50 -35 -50 -57 0 -12 -9 -30 -20 -40 -11 -10
-31 -42 -44 -71 -68 -149 -208 -309 -339 -389 -70 -43 -88 -71 -59 -93 36 -27
59 -24 163 26 186 90 326 250 396 451 18 53 33 105 33 115 0 28 -53 67 -80 58z"/>
<path d="M2866 8356 l-39 -34 7 -343 c7 -331 8 -345 28 -366 12 -13 31 -23 43
-23 20 0 21 3 13 73 -4 39 -5 192 -3 339 4 235 7 274 25 320 15 40 17 54 7 60
-22 14 -41 8 -81 -26z"/>
<path d="M7351 8346 c-25 -30 -61 -327 -61 -503 0 -62 4 -80 26 -116 15 -23
32 -45 38 -49 30 -21 34 -6 40 155 4 89 9 229 12 310 5 125 3 153 -11 182 -18
38 -26 42 -44 21z"/>
<path d="M3443 7893 c-15 -3 -26 -16 -34 -41 -14 -43 -151 -284 -186 -325 -33
-40 -30 -79 8 -111 34 -29 63 -28 87 3 7 9 65 110 129 224 l115 208 -23 25
c-22 23 -44 27 -96 17z"/>
<path d="M2355 7721 c-11 -5 -26 -25 -33 -44 -12 -34 -10 -42 29 -134 74 -175
104 -221 179 -276 49 -36 123 -55 144 -38 26 22 19 64 -15 97 -49 46 -140 191
-175 276 -30 75 -71 129 -97 127 -7 0 -21 -4 -32 -8z"/>
<path d="M7665 7653 c-47 -11 -171 -160 -230 -276 -37 -71 -41 -75 -67 -70
-15 3 -38 3 -52 -1 -22 -5 -25 -14 -35 -88 -6 -46 -12 -103 -13 -127 l-3 -45
-63 96 c-48 73 -62 101 -57 119 5 18 -1 31 -24 53 -33 32 -67 30 -109 -4 -23
-19 -23 -19 -7 -82 34 -131 100 -228 203 -299 l49 -34 7 -97 c3 -53 10 -108
16 -122 14 -38 7 -32 -29 24 -66 102 -237 223 -315 223 -36 0 -68 -36 -64 -72
2 -20 15 -32 54 -51 29 -14 67 -44 85 -66 40 -48 245 -188 265 -180 7 3 16 16
20 30 l6 25 34 -35 c19 -19 38 -34 43 -34 4 0 11 37 14 83 3 45 12 98 20 118
12 26 13 46 7 74 -26 117 -23 325 5 325 8 0 35 37 62 81 51 86 178 246 230
290 59 49 68 95 27 128 -26 21 -40 23 -79 14z"/>
<path d="M2894 7332 c-12 -2 -31 -13 -42 -25 -18 -20 -21 -40 -27 -212 l-7
-190 30 -17 c39 -23 65 -23 87 2 16 17 20 46 26 168 12 233 12 234 -19 257
-15 11 -37 19 -48 17z"/>
<path d="M2235 7243 c-24 -7 -44 -32 -45 -57 0 -42 150 -199 275 -289 61 -43
207 -117 232 -117 10 0 28 14 40 31 30 44 18 63 -75 125 -42 28 -148 110 -236
183 -87 72 -161 130 -165 130 -3 -1 -15 -4 -26 -6z"/>
<path d="M3261 7045 c-25 -23 -46 -55 -59 -92 -30 -80 -87 -174 -148 -241 -60
-67 -74 -106 -45 -122 37 -19 66 -10 122 38 106 90 187 207 230 332 l24 72
-28 24 c-37 32 -50 30 -96 -11z"/>
<path d="M2283 6902 c-30 -5 -53 -39 -53 -77 1 -27 16 -41 163 -149 175 -129
234 -161 314 -172 50 -6 53 -5 64 20 11 23 10 29 -7 45 -21 20 -433 325 -449
332 -5 3 -20 3 -32 1z"/>
<path d="M2314 6189 c-25 -9 -54 -46 -54 -69 0 -8 24 -35 53 -60 28 -25 123
-109 209 -187 86 -79 161 -143 166 -143 5 0 14 25 21 56 10 55 10 57 -18 93
-57 71 -297 298 -326 308 -17 6 -40 7 -51 2z"/>
<path d="M6825 5740 c-48 -18 -51 -32 -27 -163 26 -140 53 -198 127 -272 59
-60 119 -91 205 -107 60 -12 63 -11 81 11 47 57 -4 118 -113 136 -34 5 -42 13
-79 75 -40 68 -99 217 -99 252 0 35 -64 80 -95 68z"/>
<path d="M2362 5623 c-7 -3 -25 -16 -38 -30 -23 -22 -25 -31 -19 -69 5 -37 14
-49 73 -98 37 -30 100 -70 139 -89 70 -33 188 -65 199 -54 3 3 3 32 -1 64 l-7
58 -109 50 c-102 47 -113 54 -156 113 -46 60 -54 66 -81 55z"/>
<path d="M8149 5508 c-124 -184 -301 -397 -499 -602 -70 -72 -130 -140 -134
-150 -19 -54 74 -68 144 -22 38 25 240 279 240 301 0 7 18 24 39 38 50 34 221
252 221 283 0 15 13 33 36 50 19 15 43 44 54 66 l18 38 -38 30 -39 31 -42 -63z"/>
<path d="M6689 5391 c-48 -49 -41 -79 43 -179 129 -151 252 -232 405 -266 94
-21 92 -21 108 17 13 30 12 34 -13 60 -31 34 -83 61 -132 72 -52 11 -191 126
-282 232 -44 51 -84 93 -90 93 -5 0 -23 -13 -39 -29z"/>
<path d="M6559 5141 c-51 -28 -44 -60 28 -134 74 -75 187 -149 285 -187 82
-32 255 -67 281 -57 20 8 44 84 30 98 -5 5 -51 21 -101 34 -112 30 -201 74
-351 174 -64 43 -121 80 -127 84 -6 3 -26 -2 -45 -12z"/>
<path d="M2172 4907 c-14 -15 -22 -36 -22 -58 0 -30 11 -44 105 -130 117 -107
205 -158 319 -186 66 -16 69 -16 83 3 19 25 10 80 -18 111 -13 13 -69 49 -126
80 -57 31 -102 58 -100 60 7 7 127 -39 122 -47 -7 -11 58 -50 84 -50 39 0 22
28 -27 44 -26 9 -71 32 -101 52 -48 33 -230 123 -278 138 -13 4 -27 -1 -41
-17z"/>
<path d="M2324 4580 c-29 -11 -54 -48 -54 -81 0 -19 14 -37 58 -72 103 -84
257 -151 367 -159 l40 -3 0 44 0 45 -180 108 c-99 60 -187 113 -195 117 -8 5
-25 5 -36 1z"/>
<path d="M7785 4561 c-70 -25 -110 -47 -181 -96 -120 -86 -164 -158 -128 -213
45 -70 80 -69 150 3 30 30 61 55 69 55 22 0 107 44 144 76 17 14 46 47 63 72
l31 45 -44 38 c-24 21 -46 38 -49 38 -3 0 -27 -8 -55 -18z"/>
<path d="M3518 3952 c-159 -85 -294 -202 -402 -346 -91 -122 -109 -160 -103
-214 4 -38 12 -53 46 -84 67 -63 111 -49 161 52 80 161 239 311 414 391 70 31
108 67 131 123 23 55 13 83 -38 106 -68 32 -111 26 -209 -28z"/>
<path d="M2021 3317 c2 -1 15 -11 29 -22 l25 -20 -19 23 c-11 12 -24 22 -29
22 -6 0 -8 -1 -6 -3z"/>
<path d="M3679 3086 c-49 -15 -67 -32 -80 -76 -15 -50 5 -80 83 -122 74 -39
148 -104 148 -129 0 -16 -8 -13 -60 20 -66 43 -197 101 -228 101 -35 0 -86
-44 -101 -87 -26 -73 -13 -87 192 -214 129 -80 197 -116 237 -126 75 -17 77
-17 49 13 -28 30 -80 59 -126 69 -40 8 -49 21 -32 42 28 33 158 -5 222 -65 24
-22 29 -24 37 -12 21 34 -1 83 -56 125 l-37 29 44 10 c59 15 55 33 -28 118
-45 45 -64 71 -60 82 11 27 35 29 87 8 28 -12 50 -16 50 -11 0 46 -77 145
-144 184 -60 35 -152 54 -197 41z"/>
<path d="M3531 3049 c-24 -26 -28 -64 -7 -72 10 -4 17 8 25 40 14 55 10 62
-18 32z"/>
<path d="M6946 2965 c-36 -38 -41 -83 -13 -106 48 -41 131 -72 203 -77 l71 -4
12 32 c22 64 19 67 -101 125 -62 30 -121 55 -131 55 -10 0 -28 -11 -41 -25z"/>
<path d="M2792 2320 c0 -14 2 -19 5 -12 2 6 2 18 0 25 -3 6 -5 1 -5 -13z"/>
<path d="M1951 2219 c-43 -31 -50 -40 -36 -45 12 -5 30 6 63 40 56 56 46 58
-27 5z"/>
<path d="M2020 1975 c-23 -25 -23 -25 -4 -40 27 -20 41 -18 55 6 9 18 8 25 -8
40 -19 19 -19 19 -43 -6z"/>
</g>
</svg>
