<?xml version="1.0" standalone="no"?>
<!DOCTYPE svg PUBLIC "-//W3C//DTD SVG 20010904//EN"
 "http://www.w3.org/TR/2001/REC-SVG-20010904/DTD/svg10.dtd">
<svg version="1.0" xmlns="http://www.w3.org/2000/svg"
 width="1024.000000pt" height="1024.000000pt" viewBox="0 0 1024.000000 1024.000000"
 preserveAspectRatio="xMidYMid meet">
<metadata>
Created by potrace 1.10, written by Peter Selinger 2001-2011
</metadata>
<g transform="translate(0.000000,1024.000000) scale(0.100000,-0.100000)"
fill="#000000" stroke="none">
<path d="M4611 8353 l-84 -46 42 -36 c130 -113 161 -146 194 -209 70 -134 95
-273 104 -577 l6 -211 -504 -67 c-277 -38 -565 -75 -639 -83 l-135 -15 -245
35 c-135 19 -246 33 -248 31 -6 -6 48 -178 62 -200 25 -38 99 -93 162 -120 32
-14 77 -35 99 -47 143 -76 177 -85 250 -62 28 8 295 60 595 114 300 55 557
103 573 106 l27 6 0 -531 0 -531 -22 -5 c-66 -14 -1781 -198 -2003 -214 l-260
-19 -268 30 c-147 17 -269 29 -272 27 -8 -9 47 -194 65 -217 41 -52 124 -107
259 -174 178 -88 196 -91 381 -50 74 16 519 90 988 163 l853 133 45 -24 c113
-62 196 -152 237 -258 48 -123 50 -153 54 -1080 l4 -874 -23 7 c-60 19 -1174
437 -1179 443 -4 4 49 106 118 227 168 296 257 477 248 506 -16 49 -104 128
-284 254 -66 46 -168 95 -198 95 -22 0 -115 -50 -111 -60 2 -3 20 -40 42 -82
75 -149 58 -284 -71 -588 -213 -503 -493 -998 -732 -1297 -152 -191 -428 -456
-700 -673 -93 -74 -93 -74 -72 -91 20 -16 25 -17 64 -3 106 37 368 208 607
396 121 95 394 363 497 488 73 89 214 277 348 465 43 61 79 111 80 113 5 7
611 -245 1050 -436 649 -283 1253 -566 1973 -925 228 -114 443 -216 478 -227
35 -11 102 -25 149 -32 75 -11 98 -10 219 10 216 36 1028 252 1115 297 28 14
69 61 60 69 -12 9 -258 41 -599 76 -462 49 -561 62 -750 100 -300 60 -346 76
-1315 463 l-660 263 -3 530 -2 530 732 67 c403 38 757 73 787 79 37 7 64 20
87 41 57 55 54 70 -34 177 -68 83 -85 98 -137 120 -92 37 -174 33 -359 -18
-126 -35 -220 -51 -590 -102 -243 -33 -451 -63 -463 -65 l-23 -5 0 172 c0 245
16 482 40 583 26 113 25 137 -7 175 -36 44 -86 73 -177 105 -42 15 -78 31 -81
34 -2 4 117 14 263 24 478 31 2535 166 2594 171 92 7 153 54 164 126 4 33 -1
41 -78 121 l-83 86 -122 40 -121 41 -119 -9 c-65 -5 -284 -38 -488 -74 -347
-62 -413 -70 -1078 -135 -390 -39 -715 -70 -723 -70 -12 0 -14 80 -14 530 0
498 1 530 18 530 9 0 305 20 657 45 352 25 660 45 685 45 108 0 190 54 190
125 0 84 -88 162 -255 225 -132 50 -129 50 -458 -9 -122 -22 -348 -56 -502
-76 -154 -19 -292 -37 -307 -40 l-28 -4 0 117 c0 203 19 452 41 558 12 56 19
113 15 127 -9 37 -49 81 -102 112 -48 28 -455 165 -489 165 -11 -1 -58 -22
-104 -47z"/>
</g>
</svg>
