<?xml version="1.0" standalone="no"?>
<!DOCTYPE svg PUBLIC "-//W3C//DTD SVG 20010904//EN"
 "http://www.w3.org/TR/2001/REC-SVG-20010904/DTD/svg10.dtd">
<svg version="1.0" xmlns="http://www.w3.org/2000/svg"
 width="1024.000000pt" height="1024.000000pt" viewBox="0 0 1024.000000 1024.000000"
 preserveAspectRatio="xMidYMid meet">
<metadata>
Created by potrace 1.10, written by Peter Selinger 2001-2011
</metadata>
<g transform="translate(0.000000,1024.000000) scale(0.100000,-0.100000)"
fill="#000000" stroke="none">
<path d="M7460 9094 c-78 -21 -146 -54 -216 -107 -106 -78 -114 -93 -184 -375
-52 -211 -85 -274 -246 -484 -71 -91 -133 -173 -139 -182 -8 -12 -20 -13 -70
-5 -71 12 -119 1 -164 -37 l-31 -26 -35 22 c-24 15 -45 20 -63 17 -15 -3 -472
-137 -1017 -298 -632 -187 -1003 -292 -1026 -291 -36 2 -41 -3 -214 -200 -126
-145 -242 -294 -404 -518 -125 -173 -237 -332 -250 -352 l-23 -38 -84 0 c-82
0 -85 -1 -124 -36 -56 -50 -68 -99 -80 -330 -12 -224 -6 -267 46 -319 50 -50
107 -65 254 -65 89 0 140 5 173 16 61 21 139 91 167 151 27 58 51 184 51 273
l0 64 77 81 c625 654 759 790 782 793 33 4 1140 181 1163 186 12 3 17 0 14 -8
-8 -21 -1004 -1417 -1055 -1478 -46 -56 -47 -57 -88 -51 -111 15 -402 -132
-598 -303 -62 -54 -107 -108 -203 -244 -67 -96 -137 -204 -154 -239 -17 -35
-41 -80 -53 -100 -25 -39 -77 -133 -107 -193 -10 -20 -30 -69 -43 -110 -13
-40 -59 -147 -102 -238 -65 -139 -77 -172 -75 -211 1 -27 -7 -67 -18 -97 -11
-28 -22 -66 -24 -84 -2 -18 -13 -51 -24 -73 -11 -22 -30 -87 -43 -145 -18 -82
-61 -193 -197 -513 -95 -224 -173 -411 -173 -416 0 -40 -136 -414 -206 -568
l-33 -74 -43 29 c-52 35 -128 75 -195 100 -71 27 -216 143 -393 316 -157 153
-312 296 -430 398 -62 53 -228 160 -278 179 -50 19 -68 3 -213 -194 -268 -361
-354 -516 -466 -841 -39 -113 -79 -380 -68 -453 8 -54 55 -106 112 -123 80
-24 92 -14 355 290 131 151 239 283 240 293 2 15 23 1 98 -63 52 -45 118 -104
145 -130 28 -26 127 -98 220 -160 94 -62 179 -121 190 -131 11 -9 110 -60 220
-112 110 -52 247 -117 305 -144 186 -89 317 -123 479 -123 96 0 107 2 161 31
68 36 169 155 206 240 12 30 38 83 58 118 28 48 35 71 31 95 -4 27 39 107 338
614 252 428 368 615 434 700 50 65 100 137 113 162 13 25 156 212 318 416
l295 372 21 -25 22 -25 469 -26 c344 -18 575 -25 862 -26 l392 0 10 -65 c5
-37 15 -176 21 -309 7 -134 16 -258 21 -275 5 -18 9 -54 9 -80 0 -27 6 -69 14
-95 9 -29 20 -162 30 -352 9 -168 21 -321 26 -340 6 -19 10 -67 10 -106 0 -46
5 -77 15 -90 8 -10 15 -39 15 -64 0 -25 5 -61 11 -80 6 -19 15 -84 19 -145 4
-60 13 -132 19 -160 6 -27 20 -149 31 -269 16 -177 24 -226 40 -253 11 -19 20
-52 20 -73 0 -90 66 -202 143 -242 73 -38 125 -31 372 50 121 40 240 81 265
92 25 10 109 44 188 75 179 69 346 153 500 253 149 96 184 134 190 206 4 48 1
56 -27 89 -43 49 -106 71 -173 63 -69 -8 -59 -9 -168 3 -195 21 -243 17 -463
-45 -109 -30 -202 -52 -205 -49 -18 18 -5 307 21 490 23 158 35 336 73 1045
24 470 49 878 54 905 23 129 -3 226 -76 281 -20 16 -48 39 -60 51 -32 30 -615
270 -807 332 -154 50 -361 133 -476 191 -31 15 -138 52 -236 80 -99 29 -181
54 -183 55 -2 2 162 221 365 486 338 444 745 1014 873 1223 l53 86 36 -28
c180 -141 436 -336 480 -366 159 -112 405 -196 572 -196 32 0 61 -5 65 -11 11
-18 60 -2 111 37 26 20 281 258 567 528 286 270 546 510 580 534 155 109 361
456 411 692 13 60 12 76 -4 157 -36 176 -106 254 -255 285 -45 10 -61 9 -99
-6 -73 -28 -122 -69 -148 -125 -14 -28 -29 -48 -36 -46 -7 2 -39 10 -73 17
-55 11 -64 10 -95 -6 -43 -23 -67 -73 -91 -185 -22 -105 -11 -183 39 -284 l34
-68 -161 -123 c-545 -414 -612 -462 -710 -509 l-99 -48 -129 86 c-233 155
-761 616 -735 641 3 3 49 0 102 -5 82 -10 101 -9 129 4 50 24 96 74 122 132
21 47 26 52 66 58 24 4 60 14 81 22 50 20 115 95 122 142 3 20 20 83 36 141
24 83 50 140 126 272 117 206 126 231 121 329 -8 141 -99 280 -230 349 -57 31
-72 34 -222 46 -208 17 -337 16 -406 -2z m317 -165 c104 -9 146 -17 225 -46
82 -30 101 -41 123 -72 14 -21 25 -47 25 -59 0 -13 6 -37 13 -55 13 -31 12
-35 -58 -148 l-71 -117 -24 35 c-56 81 -173 153 -250 153 -31 0 -65 -28 -74
-62 -4 -17 13 -37 77 -97 205 -190 191 -174 179 -212 -6 -19 -20 -82 -32 -141
l-22 -107 -52 -16 c-28 -9 -76 -28 -106 -42 -49 -22 -61 -35 -108 -109 -54
-84 -54 -84 -96 -84 -51 0 -109 -35 -114 -68 -5 -32 -13 -28 -54 26 -31 41
-49 52 -134 88 -72 30 -118 43 -169 47 -65 5 -75 3 -130 -26 -33 -18 -60 -38
-60 -46 0 -22 127 -89 161 -84 26 3 52 -19 278 -238 248 -241 380 -354 524
-451 43 -28 124 -90 182 -136 58 -47 130 -96 160 -109 53 -24 57 -24 154 -12
l100 12 445 333 c469 351 469 352 526 472 15 31 14 35 -14 90 -16 32 -34 85
-40 117 -11 60 -5 151 10 161 5 3 44 -23 87 -57 42 -34 82 -67 89 -71 12 -10
52 6 65 26 13 19 9 91 -6 112 -12 16 -13 29 -4 62 8 32 20 48 61 76 50 35 50
35 79 18 42 -24 75 -86 88 -165 l11 -68 -87 -187 c-49 -105 -108 -216 -135
-252 -71 -96 -611 -629 -939 -925 -157 -142 -292 -266 -302 -275 -10 -11 -41
-19 -90 -24 -66 -6 -85 -3 -164 23 -115 37 -258 102 -362 163 -123 73 -718
520 -787 591 -33 34 -73 87 -89 117 -39 72 -96 140 -117 140 -22 0 -79 -68
-79 -93 0 -29 74 -165 125 -229 38 -49 50 -58 78 -58 49 0 93 -32 120 -91 l25
-51 -54 -67 c-29 -36 -76 -111 -104 -166 -28 -55 -65 -123 -83 -151 -18 -28
-314 -402 -659 -830 -523 -650 -641 -791 -712 -852 -47 -40 -109 -103 -137
-140 -28 -37 -55 -66 -60 -64 -6 1 -16 -12 -24 -30 -7 -18 -110 -143 -227
-278 -267 -306 -701 -852 -775 -973 -31 -51 -81 -121 -113 -157 -102 -117
-334 -468 -527 -800 -199 -341 -215 -371 -319 -608 -36 -81 -95 -197 -132
-258 l-67 -112 -111 -11 c-60 -6 -123 -11 -140 -11 -16 0 -141 44 -279 98
l-250 98 -480 326 -481 326 -74 7 -75 6 -20 -35 c-11 -19 -74 -119 -139 -223
-101 -159 -130 -197 -189 -248 -105 -90 -100 -90 -92 1 13 143 93 374 209 604
42 84 115 199 220 348 87 122 161 222 165 222 5 0 28 -17 52 -38 24 -20 89
-73 144 -117 154 -123 263 -222 470 -426 l190 -189 120 -59 c66 -32 151 -82
188 -110 38 -28 91 -63 119 -77 49 -25 52 -25 92 -10 84 33 114 95 261 551 84
261 151 427 263 651 81 163 143 322 193 494 22 80 52 169 66 199 21 45 24 59
16 86 -9 29 0 57 99 296 60 145 114 280 120 299 5 19 25 65 44 101 19 36 34
71 34 77 0 7 66 119 147 249 129 207 159 250 238 328 90 90 224 189 322 239
107 53 283 73 373 41 44 -16 97 -19 125 -9 23 9 48 62 41 88 -4 16 -23 30 -61
47 l-55 24 173 210 c150 184 221 285 551 785 488 740 790 1185 835 1233 40 42
88 71 140 82 30 6 37 3 76 -35 l43 -42 46 21 c25 11 49 27 52 35 3 8 -3 35
-14 60 l-20 45 36 25 c94 64 157 139 227 271 27 50 77 143 112 207 58 109 64
125 79 225 9 59 20 124 25 143 14 57 70 113 151 153 120 59 161 64 375 46z
m-1529 -1221 c-59 -78 -102 -145 -213 -328 -65 -107 -119 -196 -120 -198 -1
-1 -22 4 -47 12 -43 13 -75 8 -709 -101 -449 -78 -670 -120 -681 -131 -10 -8
-18 -25 -18 -36 0 -14 -58 -78 -171 -191 -198 -197 -628 -661 -639 -690 -4
-11 -4 -27 0 -35 5 -9 0 -30 -12 -54 -14 -26 -22 -66 -24 -114 -4 -75 -16
-107 -56 -154 -22 -26 -28 -27 -155 -34 l-132 -6 -17 38 c-44 95 -6 374 50
374 13 0 29 -6 35 -14 7 -8 26 -18 43 -21 24 -6 29 -11 24 -28 -3 -12 -6 -27
-6 -34 0 -8 -11 -10 -34 -6 -28 4 -39 1 -60 -20 -34 -34 -33 -69 3 -109 27
-31 34 -33 91 -33 62 0 62 0 106 50 50 57 80 137 70 190 -4 18 -17 49 -30 68
l-24 35 144 224 c122 190 178 264 378 503 l236 280 982 297 c541 163 989 297
997 297 9 1 5 -10 -11 -31z m-472 -2988 c5 -5 99 -41 209 -79 110 -38 238 -87
285 -109 47 -22 121 -53 165 -67 44 -15 94 -35 110 -45 17 -11 51 -22 75 -26
56 -9 429 -162 690 -282 169 -79 197 -95 213 -124 18 -32 17 -55 -67 -1375
-47 -738 -86 -1349 -86 -1359 0 -9 6 -14 13 -11 49 18 55 18 61 -7 l6 -26 33
20 c22 14 50 20 92 20 36 0 92 10 140 25 110 34 272 65 380 72 81 5 96 3 150
-19 37 -16 59 -30 57 -39 -1 -8 8 -1 21 14 18 21 31 28 52 25 24 -3 15 -10
-71 -60 -137 -78 -357 -187 -493 -243 -172 -70 -632 -226 -651 -220 -31 10
-72 87 -80 150 -4 33 -13 71 -19 85 -19 45 -51 265 -51 361 -1 52 -5 114 -10
139 -5 25 -25 162 -45 305 -19 143 -39 285 -45 315 -6 30 -22 204 -36 385 -13
182 -28 355 -33 385 -5 30 -15 147 -21 260 -14 254 -53 561 -76 595 -9 14 -33
29 -53 35 -44 12 -1706 63 -1741 53 -20 -5 -10 10 50 77 41 47 113 124 160
173 47 48 87 93 89 100 5 18 494 507 506 507 6 0 15 -4 21 -10z"/>
<path d="M7686 8329 c-32 -25 -35 -75 -6 -112 40 -51 92 -41 126 24 20 41 11
75 -26 94 -39 20 -62 19 -94 -6z"/>
<path d="M1805 5265 c-44 -13 -229 -75 -410 -137 l-331 -113 -331 -180 c-288
-156 -333 -184 -347 -213 -20 -42 -20 -72 0 -101 22 -31 57 -24 132 27 148
100 424 250 579 316 35 14 230 79 435 144 205 66 388 126 405 136 65 33 74 93
21 130 -30 21 -58 19 -153 -9z"/>
<path d="M8515 5090 c-190 -49 -195 -52 -195 -91 0 -36 56 -99 87 -99 11 0 87
14 169 31 368 76 794 30 1123 -122 94 -44 111 -47 133 -21 55 63 18 112 -150
196 -138 69 -209 82 -628 116 -210 16 -383 30 -385 29 -2 0 -71 -18 -154 -39z"/>
<path d="M1575 4539 c-66 -22 -178 -68 -250 -103 -147 -71 -840 -486 -869
-519 -14 -16 -17 -32 -13 -65 6 -51 30 -82 66 -82 17 0 115 59 286 174 306
206 569 343 853 446 68 25 122 75 122 114 0 23 -31 58 -60 68 -9 3 -70 -12
-135 -33z"/>
<path d="M8575 4535 c-57 -15 -85 -44 -85 -89 0 -24 8 -36 33 -52 31 -20 61
-23 496 -43 442 -20 464 -20 477 -4 25 33 28 63 7 91 -39 54 -63 59 -448 86
-408 29 -412 30 -480 11z"/>
<path d="M4640 2338 c-201 -60 -376 -117 -390 -127 -49 -35 -30 -150 23 -138
12 3 102 33 200 66 160 55 507 151 548 151 22 0 95 55 110 82 10 19 8 25 -20
50 -23 21 -41 28 -69 27 -20 -1 -201 -50 -402 -111z"/>
<path d="M4945 1594 c-104 -30 -226 -61 -270 -69 -44 -8 -181 -41 -305 -73
-185 -48 -242 -67 -320 -108 -114 -59 -133 -84 -108 -138 25 -50 55 -51 158 0
112 55 181 75 645 184 215 51 407 101 427 111 40 20 68 54 68 80 0 23 -56 69
-83 68 -12 0 -107 -25 -212 -55z"/>
</g>
</svg>
