<?xml version="1.0" standalone="no"?>
<!DOCTYPE svg PUBLIC "-//W3C//DTD SVG 20010904//EN"
 "http://www.w3.org/TR/2001/REC-SVG-20010904/DTD/svg10.dtd">
<svg version="1.0" xmlns="http://www.w3.org/2000/svg"
 width="1024.000000pt" height="1024.000000pt" viewBox="0 0 1024.000000 1024.000000"
 preserveAspectRatio="xMidYMid meet">
<metadata>
Created by potrace 1.10, written by Peter Selinger 2001-2011
</metadata>
<g transform="translate(0.000000,1024.000000) scale(0.100000,-0.100000)"
fill="#000000" stroke="none">
<path d="M7450 8945 c-52 -16 -114 -60 -227 -158 -288 -253 -633 -439 -1018
-548 -59 -17 -1194 -249 -1217 -249 -11 0 -10 299 2 405 6 50 17 124 25 166
23 114 9 168 -61 237 -65 64 -92 67 -146 17 l-36 -34 -9 -410 c-4 -225 -11
-413 -15 -416 -6 -7 -791 -103 -1018 -125 -420 -41 -727 -178 -996 -445 -126
-124 -146 -162 -124 -229 16 -51 57 -96 86 -96 25 0 59 27 169 132 247 236
507 361 834 398 452 52 1076 118 1079 115 2 -2 -4 -19 -13 -37 -10 -20 -17
-53 -16 -83 3 -99 -41 -902 -52 -968 l-12 -68 -1365 -708 c-852 -441 -1377
-719 -1396 -738 -17 -17 -34 -43 -36 -58 -14 -69 48 -152 104 -141 16 3 602
308 1301 677 700 369 1292 682 1317 695 36 19 81 28 218 43 l174 19 1081 -264
c1300 -318 1394 -346 1807 -554 216 -108 238 -122 249 -150 17 -49 56 -80 102
-80 58 0 114 33 127 76 9 30 6 39 -27 95 -73 123 -232 240 -381 279 -24 7 -80
30 -123 51 -43 22 -153 69 -245 104 -152 58 -254 85 -1137 300 -666 162 -989
245 -1030 265 -33 15 -92 39 -130 53 -77 27 -288 77 -327 77 l-24 0 4 118 c2
64 9 292 15 505 10 304 15 390 26 396 11 7 10 18 -4 66 -9 31 -15 58 -13 60 2
2 278 62 613 134 674 146 786 173 949 232 244 89 549 263 730 416 38 32 124
97 190 144 182 129 201 169 116 251 -55 53 -55 53 -120 33z"/>
<path d="M6327 5415 c-51 -39 -50 -34 -67 -215 -28 -291 -118 -594 -258 -864
-139 -271 -366 -493 -647 -635 l-80 -40 -93 6 -92 6 6 246 c4 156 2 342 -7
506 -7 143 -13 350 -14 460 -1 178 -3 205 -21 245 -28 60 -97 123 -127 115
-41 -12 -54 -41 -71 -152 -26 -180 -29 -285 -12 -483 37 -428 45 -747 26
-1075 -37 -639 -90 -1458 -93 -1462 -3 -2 -175 28 -383 66 -424 79 -444 86
-577 190 -63 51 -116 109 -170 191 -10 13 -17 39 -17 56 0 17 -7 37 -15 44
-21 17 -51 105 -72 207 -13 67 -16 124 -14 238 8 344 9 326 -24 380 -43 69
-95 109 -133 101 -61 -14 -76 -105 -76 -451 1 -258 2 -274 27 -367 52 -195
138 -340 290 -491 185 -181 404 -295 658 -341 57 -10 277 -22 694 -36 1536
-52 1473 -48 1724 -111 255 -63 530 -211 833 -446 281 -218 903 -683 935 -698
66 -32 194 -11 208 35 12 38 -122 220 -205 278 -76 53 -285 200 -533 376 -114
81 -245 177 -290 213 -364 294 -810 477 -1277 523 -63 6 -389 17 -723 24 -334
7 -609 15 -611 17 -8 12 15 996 28 1173 9 115 17 210 18 211 2 2 54 -1 117 -6
110 -9 117 -9 185 17 104 39 266 126 354 191 226 166 445 465 556 759 14 39
35 88 46 110 11 21 20 48 20 60 0 11 9 29 20 39 11 10 20 31 20 46 0 16 13 54
29 86 39 78 48 114 71 299 24 196 25 238 1 290 -18 39 -84 104 -107 104 -6 0
-32 -16 -57 -35z"/>
<path d="M6266 3630 c7 -40 24 -76 23 -50 0 8 -7 31 -15 50 l-14 35 6 -35z"/>
</g>
</svg>
