<?xml version="1.0" standalone="no"?>
<!DOCTYPE svg PUBLIC "-//W3C//DTD SVG 20010904//EN"
 "http://www.w3.org/TR/2001/REC-SVG-20010904/DTD/svg10.dtd">
<svg version="1.0" xmlns="http://www.w3.org/2000/svg"
 width="1024.000000pt" height="1024.000000pt" viewBox="0 0 1024.000000 1024.000000"
 preserveAspectRatio="xMidYMid meet">
<metadata>
Created by potrace 1.10, written by Peter Selinger 2001-2011
</metadata>
<g transform="translate(0.000000,1024.000000) scale(0.100000,-0.100000)"
fill="#000000" stroke="none">
<path d="M3262 9352 c-12 -2 -29 -13 -37 -25 -8 -12 -49 -193 -91 -402 l-78
-380 0 -175 c0 -119 5 -210 17 -285 9 -60 21 -169 25 -242 7 -102 12 -137 25
-151 9 -10 17 -31 17 -47 0 -15 40 -186 89 -379 111 -437 141 -626 141 -886 0
-127 -93 -1480 -115 -1670 -36 -308 -96 -639 -195 -1074 -69 -304 -170 -891
-170 -988 0 -16 -4 -28 -8 -28 -14 0 -216 211 -282 295 -149 189 -279 411
-305 523 -15 63 -39 109 -163 310 -185 303 -235 365 -365 454 -155 106 -390
158 -471 104 -37 -24 -114 -133 -133 -188 -16 -45 -23 -53 -68 -73 -52 -23
-122 -90 -149 -143 -18 -35 -76 -291 -76 -335 0 -21 -16 -49 -55 -97 -77 -94
-102 -196 -74 -306 11 -44 11 -46 -19 -77 l-31 -32 14 -107 c13 -94 13 -113 0
-149 -41 -114 3 -204 135 -277 36 -19 83 -48 105 -63 27 -18 71 -33 127 -44
l87 -18 20 -66 c18 -59 29 -75 88 -132 81 -77 144 -124 236 -174 65 -36 80
-39 272 -65 190 -26 207 -30 276 -66 110 -58 184 -138 252 -272 31 -60 72
-134 91 -165 20 -31 36 -59 36 -63 0 -4 16 -26 35 -50 20 -24 41 -59 48 -78 9
-26 67 -87 211 -222 185 -173 201 -185 230 -180 17 3 85 10 151 16 91 9 139
19 200 43 158 62 386 239 516 404 54 67 109 178 109 217 0 49 50 295 84 413
19 66 125 368 236 670 l201 550 329 1234 c182 679 341 1286 354 1349 60 284
82 542 71 835 -4 116 -7 219 -7 230 0 11 80 297 177 635 172 601 178 624 245
985 38 204 81 426 95 494 40 197 32 254 -46 333 -45 45 -48 46 -82 36 -19 -6
-40 -20 -46 -32 -33 -64 -63 -183 -77 -311 -46 -420 -153 -998 -199 -1080 -13
-22 -28 -67 -35 -100 -6 -33 -25 -86 -41 -117 -20 -39 -52 -152 -99 -350 -39
-160 -79 -305 -90 -323 -11 -17 -26 -58 -35 -91 -16 -61 -14 -95 11 -194 40
-157 -14 -636 -132 -1170 -35 -159 -185 -743 -210 -818 -2 -8 -20 -89 -40
-180 -104 -489 -237 -959 -359 -1268 -101 -257 -457 -1256 -473 -1329 -6 -27
-16 -110 -22 -184 -6 -74 -14 -139 -17 -145 -4 -5 -60 -80 -125 -165 -156
-205 -236 -269 -402 -320 -52 -16 -94 -21 -180 -21 -179 0 -165 -9 -282 197
-56 98 -109 203 -118 233 -44 141 -148 293 -296 433 -137 131 -138 131 -394
172 -121 19 -222 52 -341 111 -181 91 -203 128 -196 330 2 35 -3 75 -12 95
-17 42 -84 102 -104 95 -8 -3 -21 -6 -28 -6 -22 0 -65 -52 -76 -92 -5 -21 -14
-38 -18 -38 -17 0 -146 42 -155 50 -4 5 14 14 40 22 35 10 53 21 64 41 14 26
13 31 -17 87 -18 32 -33 61 -33 63 0 3 11 8 25 11 45 11 83 106 57 141 -4 6
-34 24 -67 41 -38 19 -70 45 -88 70 -27 38 -28 42 -15 82 7 23 18 42 25 42 7
0 33 -16 58 -35 52 -39 100 -55 165 -54 64 1 108 20 130 55 l20 31 -25 49
c-29 58 -76 93 -148 109 l-52 11 -14 76 c-13 69 -12 82 5 154 l20 78 23 -64
c19 -52 38 -79 90 -131 81 -81 146 -109 252 -109 91 0 122 16 144 74 32 84 -3
124 -119 133 -51 5 -67 11 -94 37 -70 65 -93 149 -72 263 15 83 45 133 80 133
14 0 61 -17 105 -37 76 -36 86 -44 177 -154 107 -128 318 -450 318 -484 0 -12
8 -33 18 -46 11 -13 22 -40 26 -59 3 -19 17 -51 30 -70 13 -20 46 -90 73 -156
l50 -121 263 -309 c144 -170 272 -317 284 -327 67 -57 196 -77 236 -37 11 11
20 28 20 38 0 9 14 49 31 87 24 57 33 101 49 235 42 362 92 652 190 1090 124
558 153 749 226 1495 39 400 47 514 51 764 8 477 -2 566 -162 1396 -63 325
-118 628 -124 675 -37 306 -19 574 59 898 45 185 38 266 -28 335 -34 36 -51
44 -80 39z"/>
<path d="M6676 9160 c-30 -33 -36 -47 -36 -85 0 -37 6 -50 33 -77 32 -32 34
-39 53 -183 22 -159 22 -180 -2 -400 -39 -357 -104 -640 -250 -1077 -94 -282
-108 -317 -129 -322 -49 -12 -199 -209 -265 -349 -79 -166 -163 -540 -205
-914 -32 -283 -44 -2232 -16 -2463 6 -47 27 -326 46 -620 35 -533 48 -646 90
-760 26 -74 30 -184 10 -326 -22 -155 -16 -358 14 -506 44 -218 97 -272 328
-334 124 -33 133 -34 320 -34 189 0 193 0 275 31 137 50 266 116 388 196 90
60 151 112 280 240 91 91 189 180 219 200 101 67 407 172 706 242 129 31 219
59 315 99 142 59 148 64 270 198 l55 61 203 23 202 24 40 53 c22 29 45 64 50
78 14 38 12 110 -4 149 -14 33 -14 34 26 72 22 22 46 51 54 66 17 33 18 117 2
171 -12 40 -69 110 -97 119 -12 3 -12 12 -3 50 28 109 9 185 -56 238 -37 29
-42 38 -47 89 -9 81 -23 118 -58 158 -37 42 -82 63 -132 63 l-37 0 7 99 c9
122 -8 189 -66 255 -61 69 -121 91 -254 90 -126 0 -202 -17 -310 -69 -85 -41
-206 -148 -238 -211 -20 -39 -97 -98 -671 -519 -357 -261 -650 -475 -652 -475
-2 0 17 48 42 108 25 59 161 386 304 727 l259 620 291 1046 c264 955 290 1054
290 1124 l0 77 80 86 c61 66 119 148 237 336 85 138 162 268 170 290 8 23 43
167 79 321 l65 280 49 650 c27 358 55 673 61 701 19 84 5 141 -47 192 -29 30
-49 42 -60 38 -8 -3 -24 -6 -35 -6 -11 0 -32 -20 -54 -52 l-35 -53 0 -115 c0
-345 -19 -567 -105 -1190 l-82 -605 -76 -152 c-71 -142 -86 -163 -222 -322
-81 -96 -155 -192 -165 -217 -11 -25 -33 -57 -50 -71 -45 -38 -56 -67 -75
-193 -91 -637 -155 -898 -433 -1770 l-209 -655 -187 -385 c-235 -483 -289
-617 -371 -914 -42 -153 -44 -194 -12 -223 48 -45 108 -37 141 17 12 22 25 30
45 30 76 0 280 100 399 196 243 197 655 507 916 690 301 211 366 267 366 319
0 18 15 29 73 56 67 31 81 33 194 37 l122 4 12 -25 c10 -23 6 -29 -67 -99 -71
-66 -154 -143 -240 -219 -16 -14 -50 -49 -76 -77 -41 -43 -48 -56 -48 -92 0
-56 14 -77 58 -91 35 -10 47 -7 219 65 99 42 191 76 204 75 14 0 -47 -36 -153
-89 -115 -58 -183 -99 -194 -115 -12 -18 -15 -40 -12 -80 6 -69 27 -95 78 -95
50 0 281 87 354 134 55 35 62 37 112 30 30 -3 56 -10 59 -14 8 -14 -177 -87
-236 -94 -103 -11 -167 -55 -194 -132 -11 -32 -11 -41 2 -61 15 -23 19 -23
188 -23 94 0 207 -3 249 -6 l77 -7 -43 -19 c-80 -36 -209 -68 -303 -74 l-94
-7 -48 35 c-40 28 -53 33 -77 27 -42 -12 -74 -46 -81 -90 -6 -32 -2 -44 20
-74 35 -45 54 -99 55 -151 0 -66 -37 -170 -75 -213 -30 -33 -43 -39 -107 -50
-284 -49 -453 -83 -458 -91 -3 -5 -43 -17 -89 -25 -45 -9 -121 -30 -169 -47
-175 -61 -241 -103 -505 -320 -136 -111 -283 -231 -325 -266 -145 -118 -327
-192 -472 -192 l-67 0 92 215 c68 159 100 224 125 248 43 42 63 88 51 121 -10
24 -61 68 -93 79 -25 9 -103 -17 -143 -47 -52 -40 -72 -83 -132 -273 -59 -192
-68 -263 -39 -308 16 -24 16 -25 -6 -25 -53 0 -218 78 -241 114 -21 32 -40
362 -30 510 8 108 3 174 -48 695 -31 317 -66 653 -77 746 -45 372 -47 425 -45
1407 2 930 7 1110 39 1363 38 300 147 737 195 781 11 10 43 55 70 100 47 77
53 83 78 78 22 -5 33 0 55 27 58 68 122 226 151 369 9 47 54 186 100 310 150
404 208 692 221 1095 13 388 -23 533 -154 616 -65 41 -101 39 -146 -11z m2819
-6939 c-8 -7 -273 -91 -288 -91 -2 0 -2 11 0 24 4 21 12 24 66 30 34 3 91 15
127 25 71 21 110 26 95 12z"/>
<path d="M6631 3870 c0 -8 4 -24 9 -35 5 -13 9 -14 9 -5 0 8 -4 24 -9 35 -5
13 -9 14 -9 5z"/>
<path d="M3824 3220 c-29 -11 -73 -66 -97 -119 -16 -37 -19 -59 -14 -128 4
-69 2 -89 -15 -122 -26 -53 -15 -124 21 -129 40 -6 71 7 116 49 60 55 79 109
73 201 -5 62 -2 81 19 128 l24 55 -43 37 c-45 40 -51 42 -84 28z"/>
<path d="M1589 3073 c-9 -2 -25 -19 -35 -38 -17 -33 -17 -36 0 -92 78 -252
272 -425 514 -458 60 -8 81 3 102 55 17 40 -6 66 -101 118 -67 36 -102 67
-260 232 -101 105 -188 189 -193 189 -6 -1 -18 -3 -27 -6z"/>
<path d="M8441 2721 c-24 -11 -46 -38 -80 -95 l-46 -79 -300 -128 c-165 -70
-314 -136 -331 -147 -42 -27 -67 -82 -58 -128 8 -41 48 -94 73 -94 20 0 525
181 596 214 147 68 285 226 285 326 0 37 -13 65 -49 103 -39 43 -52 47 -90 28z"/>
<path d="M6415 2543 c-69 -36 -104 -96 -105 -176 0 -43 4 -52 44 -92 70 -69
138 -71 201 -5 l27 28 -25 56 c-25 54 -25 56 -9 97 l16 42 -39 33 c-42 38 -65
41 -110 17z"/>
<path d="M3416 2360 l-34 -30 -34 20 c-46 27 -88 19 -111 -22 -33 -57 -15
-133 44 -182 31 -26 38 -28 91 -22 32 3 71 12 87 20 36 19 89 79 97 110 11 45
-51 136 -92 136 -7 0 -29 -14 -48 -30z"/>
</g>
</svg>
