<?xml version="1.0" standalone="no"?>
<!DOCTYPE svg PUBLIC "-//W3C//DTD SVG 20010904//EN"
 "http://www.w3.org/TR/2001/REC-SVG-20010904/DTD/svg10.dtd">
<svg version="1.0" xmlns="http://www.w3.org/2000/svg"
 width="1024.000000pt" height="1024.000000pt" viewBox="0 0 1024.000000 1024.000000"
 preserveAspectRatio="xMidYMid meet">
<metadata>
Created by potrace 1.10, written by Peter Selinger 2001-2011
</metadata>
<g transform="translate(0.000000,1024.000000) scale(0.100000,-0.100000)"
fill="#000000" stroke="none">
<path d="M4601 8528 c-22 -18 -43 -44 -47 -56 -4 -13 -1 -94 7 -180 16 -188
16 -639 0 -807 -6 -66 -25 -221 -41 -345 -16 -124 -34 -290 -40 -370 -51 -702
-246 -1352 -586 -1957 -81 -145 -203 -335 -347 -542 l-87 -125 0 45 c0 24 16
255 35 512 l34 468 -14 1202 c-23 2004 -19 1848 -48 1910 -24 53 -95 132 -128
142 -30 10 -67 -14 -95 -60 -26 -45 -27 -51 -21 -143 3 -53 13 -160 21 -237 9
-77 22 -234 30 -350 39 -529 41 -657 29 -1352 l-6 -381 -41 -6 c-84 -13 -153
-82 -182 -183 -12 -42 -37 -79 -118 -176 -57 -67 -116 -134 -132 -149 -55 -50
-226 -159 -329 -209 -170 -81 -260 -87 -392 -23 -128 61 -212 166 -247 309
-22 88 -179 2296 -170 2396 9 111 -12 179 -77 242 -60 58 -85 60 -139 11 -35
-32 -40 -42 -40 -81 0 -25 16 -269 35 -542 19 -273 48 -692 65 -931 74 -1067
78 -1119 106 -1200 68 -198 206 -348 401 -437 52 -23 71 -26 178 -27 115 -1
125 1 230 38 109 38 265 111 348 162 154 97 380 316 474 460 10 15 12 -96 10
-526 -3 -516 -4 -559 -30 -805 -22 -200 -26 -273 -19 -314 l10 -55 -583 -655
c-320 -361 -631 -703 -692 -761 -212 -203 -483 -419 -731 -580 -102 -67 -135
-95 -170 -142 -48 -67 -60 -105 -42 -139 18 -33 29 -39 75 -39 68 1 134 32
300 142 273 181 557 420 860 723 150 149 291 312 818 945 374 448 677 821 732
901 414 597 693 1259 819 1941 31 166 131 900 151 1108 47 491 46 1050 -3
1146 -22 44 -94 114 -116 114 -8 0 -32 -15 -55 -32z"/>
<path d="M5804 8506 l-39 -34 3 -138 c4 -163 346 -3240 387 -3476 51 -298 116
-582 196 -860 127 -442 272 -740 498 -1021 39 -48 71 -92 71 -98 0 -20 152
-177 166 -172 14 5 144 -94 286 -219 414 -362 1165 -714 1908 -892 80 -19 206
-54 280 -77 207 -63 206 -63 239 -50 34 15 86 68 95 98 5 16 -1 30 -21 51 -23
25 -75 46 -318 126 -159 52 -348 111 -420 130 -335 90 -767 258 -1025 398
-265 145 -558 333 -652 420 -31 29 -116 107 -188 173 l-132 120 6 270 c3 149
11 736 16 1305 6 569 13 1073 16 1118 5 72 8 83 22 78 189 -62 309 -78 451
-57 127 19 198 57 306 166 144 143 191 248 259 581 69 339 121 693 151 1044
24 287 21 365 -29 748 -28 210 -43 246 -120 284 -60 29 -107 20 -131 -25 -16
-30 -17 -45 -7 -158 7 -70 25 -179 43 -248 l30 -123 -31 -496 c-42 -674 -67
-831 -185 -1172 -77 -219 -116 -275 -234 -332 -59 -29 -78 -33 -172 -36 -85
-3 -122 0 -187 17 -45 12 -99 21 -120 21 l-39 0 -6 242 c-4 133 -7 604 -7
1047 0 695 2 818 16 902 13 79 14 110 5 160 -12 70 -54 141 -103 176 -38 26
-74 17 -116 -31 l-29 -33 -6 -324 c-4 -178 -8 -884 -8 -1569 -1 -685 -5 -1699
-8 -2254 l-6 -1010 -77 140 c-166 300 -277 586 -357 924 -30 124 -192 1073
-230 1350 -46 325 -73 614 -96 1040 -24 443 -63 813 -122 1160 -18 104 -28
213 -33 330 -6 196 -16 228 -85 288 -45 40 -62 40 -111 -2z"/>
<path d="M6434 3590 c3 -14 9 -37 12 -52 4 -16 10 -28 15 -28 4 0 1 21 -8 48
-17 51 -30 73 -19 32z"/>
</g>
</svg>
