<?xml version="1.0" standalone="no"?>
<!DOCTYPE svg PUBLIC "-//W3C//DTD SVG 20010904//EN"
 "http://www.w3.org/TR/2001/REC-SVG-20010904/DTD/svg10.dtd">
<svg version="1.0" xmlns="http://www.w3.org/2000/svg"
 width="1024.000000pt" height="1024.000000pt" viewBox="0 0 1024.000000 1024.000000"
 preserveAspectRatio="xMidYMid meet">
<metadata>
Created by potrace 1.10, written by Peter Selinger 2001-2011
</metadata>
<g transform="translate(0.000000,1024.000000) scale(0.100000,-0.100000)"
fill="#000000" stroke="none">
<path d="M6161 6766 c-10 -11 -5 -28 20 -77 38 -76 36 -117 -12 -212 -41 -82
-44 -86 -343 -430 -230 -265 -260 -296 -275 -284 -9 8 -106 90 -216 182 l-200
168 -6 47 c-4 26 -19 72 -35 101 -37 70 -202 235 -273 273 l-54 29 -56 -18
c-31 -9 -128 -48 -216 -86 -132 -56 -217 -83 -485 -155 l-325 -87 -170 7 c-93
3 -203 9 -244 13 l-74 6 6 -39 c18 -106 15 -103 164 -185 76 -42 168 -88 204
-103 l65 -27 65 16 c35 9 132 38 214 65 282 91 674 210 694 210 11 0 27 -10
35 -22 34 -48 13 -145 -66 -303 -71 -143 -133 -241 -432 -678 l-264 -388 -20
43 c-39 89 -176 212 -332 296 -163 89 -278 126 -518 167 -198 35 -224 37 -237
24 -14 -14 -7 -21 62 -64 165 -104 359 -261 524 -422 91 -90 202 -191 247
-224 l82 -61 -59 -67 c-121 -136 -551 -550 -671 -646 -223 -179 -425 -310
-693 -450 -78 -41 -164 -95 -192 -120 l-50 -44 41 -1 c130 -1 538 177 828 362
308 196 621 447 915 733 326 317 650 755 1005 1354 38 63 102 159 143 213 l74
99 72 -67 c250 -235 575 -557 805 -799 373 -391 1050 -1073 1342 -1350 511
-485 587 -545 693 -545 77 0 783 98 821 114 38 16 71 58 63 80 -3 8 -138 80
-299 160 -404 200 -683 357 -951 533 -105 70 -1065 820 -1066 834 -1 3 205
113 456 244 252 132 473 253 491 269 21 18 32 36 29 46 -2 10 -30 63 -61 118
-46 82 -70 113 -130 165 -85 74 -147 118 -194 136 -35 14 -117 10 -133 -6 -7
-7 1 -34 23 -77 31 -63 32 -68 20 -113 -7 -26 -28 -72 -47 -103 -34 -55 -519
-595 -536 -595 -4 0 -186 153 -403 339 l-395 339 312 201 c172 111 399 258
506 326 106 69 196 130 198 137 3 6 -21 56 -53 110 l-57 98 -141 103 c-125 90
-146 102 -182 102 -24 0 -47 -6 -53 -14z"/>
</g>
</svg>
