<?xml version="1.0" standalone="no"?>
<!DOCTYPE svg PUBLIC "-//W3C//DTD SVG 20010904//EN"
 "http://www.w3.org/TR/2001/REC-SVG-20010904/DTD/svg10.dtd">
<svg version="1.0" xmlns="http://www.w3.org/2000/svg"
 width="1024.000000pt" height="1024.000000pt" viewBox="0 0 1024.000000 1024.000000"
 preserveAspectRatio="xMidYMid meet">
<metadata>
Created by potrace 1.10, written by Peter Selinger 2001-2011
</metadata>
<g transform="translate(0.000000,1024.000000) scale(0.100000,-0.100000)"
fill="#000000" stroke="none">
<path d="M4306 9535 c-15 -8 -36 -15 -45 -15 -9 -1 -38 -20 -64 -43 -51 -45
-54 -52 -92 -230 -14 -61 -21 -77 -32 -73 -26 10 -87 -13 -107 -40 -17 -23
-18 -38 -12 -124 5 -77 3 -104 -9 -126 -30 -57 -12 -134 38 -167 13 -8 42 -20
64 -26 73 -20 74 -33 13 -254 -48 -175 -63 -214 -173 -442 -172 -360 -212
-488 -224 -720 -7 -136 4 -190 63 -317 28 -61 47 -117 51 -150 5 -51 -83 -848
-127 -1149 -60 -410 20 -732 254 -1024 72 -89 140 -226 166 -335 13 -54 24
-150 30 -260 18 -327 64 -522 209 -878 l50 -123 -37 30 c-20 16 -80 63 -132
105 -65 52 -137 97 -230 144 -101 50 -148 80 -191 122 -104 102 -121 158 -123
415 -2 172 -4 195 -25 247 -47 120 -180 221 -326 250 -65 12 -108 36 -141 77
-12 14 -60 143 -107 286 l-87 260 35 275 c38 294 38 349 3 449 -37 108 -87
168 -250 298 -117 93 -218 254 -238 379 -16 96 -12 269 10 399 11 66 20 138
20 161 0 104 -71 205 -165 236 -57 18 -84 12 -127 -30 -33 -31 -35 -60 -13
-175 21 -110 20 -297 -3 -367 -33 -106 -335 -503 -613 -806 -48 -52 -78 -94
-86 -120 -6 -21 -23 -68 -38 -103 -34 -80 -43 -190 -23 -276 9 -37 11 -73 6
-95 -4 -19 -19 -242 -33 -495 -26 -469 -54 -738 -97 -920 -32 -137 -32 -440 0
-581 47 -213 114 -352 268 -559 174 -235 369 -534 528 -809 70 -123 106 -173
200 -277 131 -145 167 -167 214 -132 36 27 55 94 42 144 -6 21 -84 139 -183
275 -95 132 -224 313 -287 404 -62 91 -143 201 -178 245 -200 245 -368 597
-379 795 -3 41 12 293 32 560 28 362 38 552 39 750 2 294 5 311 76 535 51 158
51 211 3 279 l-31 44 47 79 c108 182 248 366 433 570 l111 123 44 -72 c80
-130 173 -233 303 -339 111 -90 154 -161 172 -287 10 -70 8 -90 -17 -222 -16
-80 -30 -188 -32 -240 -4 -90 -2 -105 45 -270 27 -96 53 -197 57 -225 4 -27
17 -70 30 -95 12 -25 30 -70 40 -100 31 -94 90 -141 293 -235 l172 -79 0 -49
c0 -69 58 -473 76 -528 8 -26 29 -62 47 -82 18 -19 160 -126 317 -237 255
-182 297 -216 401 -325 113 -117 215 -198 309 -245 25 -12 64 -40 86 -62 42
-40 42 -40 101 -33 52 6 61 10 81 40 30 43 31 84 2 131 -33 55 -58 81 -91 94
-25 11 -30 21 -50 109 -15 68 -34 118 -65 171 -159 277 -234 525 -254 840 -25
399 -34 429 -252 810 -89 157 -173 314 -187 350 -21 57 -25 85 -29 239 -8 332
30 680 119 1066 62 271 38 479 -76 670 l-36 58 -1 161 c-1 231 4 246 221 681
99 198 190 394 203 435 32 105 32 262 0 375 -60 207 -58 193 -33 219 14 15 24
42 28 76 l6 52 23 -80 c55 -188 165 -387 308 -554 36 -43 66 -84 66 -91 0 -8
34 -56 75 -108 85 -106 153 -235 187 -354 20 -72 22 -104 23 -310 1 -256 9
-303 66 -388 17 -27 54 -67 82 -90 157 -131 141 -104 258 -432 49 -138 58
-155 109 -210 30 -33 65 -72 78 -86 l23 -27 -25 -83 c-53 -178 -57 -278 -17
-371 26 -60 101 -157 155 -198 l45 -35 1 -70 c1 -89 23 -140 84 -191 l46 -38
0 -102 c0 -104 23 -222 55 -284 23 -44 149 -174 200 -207 39 -25 45 -33 60
-92 9 -35 22 -100 30 -144 18 -102 48 -163 131 -262 37 -44 99 -120 139 -170
119 -148 254 -267 393 -347 31 -17 66 -40 76 -50 11 -10 34 -21 52 -24 22 -4
42 -18 59 -40 14 -19 33 -34 41 -34 8 0 40 13 72 29 68 34 134 56 222 74 57
12 62 15 38 22 -38 10 -55 70 -39 138 15 65 14 136 -4 296 -34 302 -87 584
-161 854 -24 89 -112 466 -196 837 l-152 675 4 200 c7 347 5 876 -2 997 l-8
116 76 92 c42 50 77 90 78 88 3 -4 -21 -539 -27 -608 -9 -101 7 -145 164 -467
l151 -308 100 -395 c55 -217 108 -409 118 -425 11 -17 22 -51 26 -75 11 -69
168 -333 374 -625 l77 -110 24 -142 23 -143 -38 -195 c-21 -108 -43 -198 -47
-201 -15 -9 -48 -79 -58 -123 -11 -48 2 -127 26 -153 21 -24 49 -23 117 4 76
29 131 83 150 149 9 29 16 63 16 75 0 33 62 198 104 275 77 142 148 370 161
517 8 97 -19 407 -50 552 -27 129 -49 306 -59 470 l-6 95 36 -80 c90 -200 164
-479 184 -701 6 -66 18 -171 26 -234 32 -238 34 -283 24 -380 -18 -164 -16
-161 -88 -186 -165 -57 -239 -180 -249 -414 -5 -105 -3 -121 21 -191 32 -92
32 -140 5 -249 -58 -227 19 -396 225 -495 40 -19 77 -35 82 -35 5 -1 72 -45
148 -98 l139 -97 44 -83 c40 -77 43 -88 43 -160 0 -75 -1 -79 -47 -147 -95
-142 -243 -265 -408 -341 -205 -93 -522 -187 -760 -224 -215 -34 -327 -65
-446 -125 -44 -23 -49 -29 -49 -59 0 -18 14 -86 31 -151 29 -110 30 -120 16
-154 -8 -20 -22 -63 -32 -96 -20 -69 -47 -126 -81 -172 -13 -17 -24 -42 -24
-55 0 -30 -139 -196 -256 -307 -48 -46 -135 -119 -192 -164 -57 -44 -106 -86
-109 -93 -8 -22 -80 -63 -130 -75 -26 -6 -93 -29 -148 -51 -130 -51 -296 -94
-443 -114 -94 -12 -167 -14 -378 -8 -231 6 -264 5 -292 -10 -42 -22 -60 -52
-64 -105 -3 -42 -1 -46 39 -74 l41 -30 499 32 c279 17 529 38 568 46 207 45
325 105 551 278 242 186 395 347 529 557 125 194 168 366 142 565 l-8 61 459
127 c253 70 497 143 544 162 175 73 349 189 482 320 91 90 137 166 161 266 20
85 19 135 -5 248 -35 173 -125 320 -252 416 -58 44 -102 67 -286 151 -35 16
-78 44 -94 63 -33 38 -33 31 -3 191 20 107 13 219 -21 338 -20 68 -23 92 -15
110 6 12 11 50 11 82 0 54 2 60 20 60 98 0 252 180 295 346 19 73 19 172 0
339 -8 72 -15 183 -15 247 0 284 -78 632 -205 919 -25 56 -45 113 -45 126 0
14 -20 90 -45 170 -25 79 -45 153 -45 163 0 28 -55 87 -86 93 -59 11 -87 -8
-157 -109 -50 -71 -72 -114 -87 -166 -56 -202 -46 -441 30 -748 50 -200 64
-336 51 -497 -6 -77 -11 -150 -11 -164 -1 -17 -11 -2 -34 48 -19 39 -94 168
-167 285 -205 329 -349 633 -349 738 0 17 -43 172 -95 344 -52 173 -95 327
-95 343 0 15 -11 44 -23 63 -13 19 -32 58 -41 86 -19 59 -64 132 -112 186 -71
80 -68 49 -68 593 0 270 4 528 8 575 7 78 6 91 -14 138 -30 69 -122 156 -157
147 -17 -4 -34 2 -58 21 -25 19 -40 24 -57 19 -62 -19 -92 -85 -102 -221 -11
-149 -67 -278 -166 -388 -54 -60 -57 -66 -64 -129 -4 -41 -2 -92 6 -134 16
-85 15 -335 -2 -726 -19 -417 -17 -440 85 -944 47 -235 95 -475 106 -533 11
-58 43 -170 70 -250 80 -233 95 -291 189 -770 71 -356 88 -460 80 -478 -5 -13
-10 -38 -10 -57 0 -41 -42 -95 -75 -95 -53 0 -169 96 -395 327 -251 257 -275
290 -290 416 -14 118 -29 146 -162 298 -68 77 -129 154 -135 172 -9 22 -11 67
-7 147 4 75 2 131 -6 160 -15 59 -68 140 -112 169 -32 22 -35 30 -46 102 -6
43 -22 100 -36 126 -28 56 -92 124 -151 161 -22 13 -41 25 -42 26 -1 1 17 92
40 202 47 223 47 223 -14 290 -85 94 -127 173 -181 339 -71 215 -149 337 -296
457 l-64 53 5 140 c15 348 -59 609 -240 844 -26 35 -56 76 -65 92 -10 15 -38
54 -64 86 -108 132 -218 317 -288 485 -73 175 -94 252 -88 331 5 78 -7 117
-52 165 -25 27 -93 72 -108 72 -2 0 -16 -7 -32 -15z"/>
<path d="M9169 8790 c-49 -52 -57 -93 -30 -154 21 -48 24 -51 78 -60 27 -4 39
0 68 26 77 67 85 130 26 189 -53 54 -90 53 -142 -1z"/>
<path d="M2412 8331 c-106 -36 -159 -121 -148 -233 3 -35 6 -78 6 -96 -1 -38
13 -66 48 -104 33 -36 57 -35 114 1 60 38 82 71 75 113 -3 23 1 39 13 53 33
37 60 100 60 140 0 52 -27 94 -76 122 -39 21 -40 21 -92 4z"/>
<path d="M9000 8307 c-32 -11 -41 -24 -102 -147 -76 -153 -113 -261 -127 -370
-13 -95 -2 -146 39 -182 38 -35 107 -39 134 -9 9 10 44 119 77 242 43 160 67
231 84 251 14 16 30 47 37 70 10 35 10 45 -8 76 -16 32 -76 83 -93 81 -3 0
-22 -5 -41 -12z"/>
<path d="M1068 7662 c-37 -35 -42 -45 -46 -94 -8 -102 42 -158 142 -158 39 0
51 5 87 40 41 39 41 40 37 95 -5 63 -34 102 -100 136 -53 27 -73 24 -120 -19z"/>
<path d="M1007 6185 c-88 -13 -123 -34 -150 -88 -28 -55 -15 -101 44 -161 47
-47 50 -48 97 -44 63 6 129 51 182 125 47 66 52 108 18 140 -23 20 -81 44
-102 42 -6 -1 -46 -7 -89 -14z"/>
<path d="M4848 4317 c-21 -17 -40 -44 -43 -58 -14 -58 47 -243 121 -364 45
-76 68 -143 65 -190 -5 -64 50 -145 98 -145 14 0 38 13 57 31 42 41 71 35 194
-41 135 -82 135 -99 0 -269 l-73 -93 -21 74 c-27 93 -64 156 -117 202 -41 35
-42 35 -78 20 -67 -27 -74 -45 -67 -164 23 -346 94 -557 271 -796 35 -48 67
-102 70 -119 2 -16 14 -160 25 -320 24 -344 31 -393 73 -505 43 -114 114 -216
213 -309 46 -42 99 -98 119 -124 49 -64 123 -121 192 -148 51 -19 78 -22 218
-24 l160 -1 99 37 c113 43 183 87 253 158 77 78 143 220 143 307 0 27 13 46
78 111 88 89 141 179 168 288 13 51 32 91 71 146 61 88 64 101 84 393 l13 180
47 56 c84 101 102 158 70 220 l-20 38 23 16 c34 22 69 83 68 120 0 23 -11 40
-43 69 -23 20 -48 37 -55 37 -20 0 -256 -133 -329 -185 -78 -56 -202 -184
-251 -260 -22 -33 -55 -95 -74 -138 -39 -86 -37 -85 -122 -48 l-43 18 -27 191
c-35 245 -63 303 -171 356 -92 46 -120 46 -484 14 -185 -16 -338 -27 -340 -24
-3 2 20 37 50 78 65 87 78 112 106 202 57 185 -3 308 -184 375 -31 12 -70 21
-88 21 -30 0 -34 4 -50 49 -31 87 -167 245 -196 227 -5 -3 -16 24 -25 61 -27
107 -54 158 -111 213 -63 59 -86 62 -137 17z m1372 -1465 c18 -15 24 -38 41
-167 10 -83 22 -163 25 -180 10 -48 44 -107 81 -143 l35 -32 -31 -42 c-48 -65
-39 -129 24 -188 22 -21 35 -25 77 -23 121 5 218 93 361 328 53 88 121 187
151 220 l55 60 -21 -60 c-23 -69 -35 -255 -21 -320 12 -54 -3 -101 -50 -156
-47 -54 -81 -118 -100 -190 -19 -73 -43 -109 -104 -158 -95 -75 -148 -176
-159 -303 -6 -68 -10 -76 -46 -111 -60 -57 -135 -104 -223 -139 -66 -26 -98
-32 -185 -36 l-105 -4 -49 59 c-29 36 -62 65 -82 72 -26 9 -59 49 -163 195
-72 101 -131 191 -131 201 0 9 -10 31 -22 47 -21 30 -21 34 -10 157 6 69 16
161 22 204 18 135 -13 280 -85 392 -18 28 -42 59 -54 69 -11 11 -21 23 -21 29
0 5 -27 54 -60 109 -34 55 -59 103 -56 106 3 2 29 0 58 -6 36 -7 103 -7 208
-1 539 33 611 34 640 11z"/>
<path d="M6846 3720 c4 -14 13 -38 20 -55 11 -24 13 -25 8 -5 -4 14 -13 39
-20 55 -11 24 -13 25 -8 5z"/>
<path d="M1527 1702 c-23 -3 -34 -16 -68 -85 -39 -76 -41 -85 -36 -143 3 -34
17 -87 31 -118 28 -64 111 -156 172 -192 23 -13 267 -114 544 -224 l503 -201
376 -93 376 -94 195 -11 c249 -14 353 -41 469 -124 70 -50 188 -112 266 -140
131 -46 226 -60 375 -54 161 7 212 19 245 59 30 36 34 95 8 127 -17 20 -36 23
-300 40 l-283 18 -89 77 c-50 42 -119 90 -153 106 -83 39 -555 135 -762 156
-300 29 -501 81 -831 212 -110 44 -247 98 -305 120 -58 23 -96 42 -85 42 11 0
121 -13 245 -29 182 -24 248 -29 345 -25 141 7 172 14 210 54 23 24 28 38 27
75 -1 80 -3 81 -235 88 -349 11 -621 69 -929 199 -111 47 -156 72 -249 139
-22 16 -44 24 -62 21z"/>
<path d="M5130 1653 c0 -17 5 -35 11 -38 18 -12 20 1 5 36 l-15 34 -1 -32z"/>
</g>
</svg>
