<?xml version="1.0" standalone="no"?>
<!DOCTYPE svg PUBLIC "-//W3C//DTD SVG 20010904//EN"
 "http://www.w3.org/TR/2001/REC-SVG-20010904/DTD/svg10.dtd">
<svg version="1.0" xmlns="http://www.w3.org/2000/svg"
 width="1024.000000pt" height="1024.000000pt" viewBox="0 0 1024.000000 1024.000000"
 preserveAspectRatio="xMidYMid meet">
<metadata>
Created by potrace 1.10, written by Peter Selinger 2001-2011
</metadata>
<g transform="translate(0.000000,1024.000000) scale(0.100000,-0.100000)"
fill="#000000" stroke="none">
<path d="M5160 8928 c-42 -46 -74 -186 -66 -294 3 -43 9 -173 15 -289 5 -115
12 -235 16 -265 3 -30 30 -485 60 -1010 30 -525 60 -1023 66 -1107 7 -108 7
-198 0 -315 -12 -173 -56 -2462 -55 -2833 1 -121 7 -309 14 -417 l12 -197 -46
-80 c-25 -44 -46 -87 -46 -95 0 -8 -76 -108 -169 -223 -133 -164 -190 -226
-270 -292 -55 -45 -118 -102 -140 -126 l-39 -43 -104 55 c-56 30 -146 77 -198
105 -358 190 -404 209 -597 248 -126 25 -221 58 -337 118 -127 65 -233 147
-376 291 -69 70 -190 190 -270 268 -125 123 -153 156 -205 245 -33 56 -68 124
-77 150 -32 90 -75 138 -125 138 -20 0 -28 14 -151 255 -80 155 -159 257 -238
306 l-34 21 -46 -23 c-58 -30 -101 -78 -110 -125 -8 -45 44 -254 111 -441 101
-281 294 -617 500 -869 376 -460 929 -841 1509 -1040 284 -97 241 -92 1531
-175 l190 -13 329 73 c329 72 329 72 593 177 462 183 792 364 1138 624 196
147 315 250 475 410 278 277 460 507 695 880 174 274 196 334 163 431 -28 83
-96 146 -187 173 -79 23 -142 21 -177 -6 -37 -29 -40 -33 -64 -97 -12 -30 -30
-65 -40 -79 -11 -13 -20 -33 -20 -42 0 -17 -66 -107 -623 -842 l-278 -367
-312 -253 c-249 -202 -332 -263 -412 -305 -176 -91 -384 -168 -599 -218 -137
-33 -115 -38 -275 68 l-94 62 -168 309 -167 308 5 78 c5 67 3 84 -14 113 -20
34 -21 52 -24 1338 -3 1186 -2 1323 14 1514 17 198 17 231 2 580 -59 1403 -76
1838 -80 2045 -8 421 -16 571 -35 655 -18 84 -17 128 11 247 17 76 2 128 -56
185 -53 53 -84 56 -125 11z"/>
<path d="M6456 6549 c-10 -6 -46 -18 -79 -26 -83 -19 -117 -48 -165 -140 -77
-149 -92 -293 -42 -428 12 -33 25 -75 30 -93 11 -43 48 -91 100 -127 39 -27
52 -30 137 -33 90 -4 98 -2 161 29 88 43 186 142 230 231 36 73 51 145 53 248
3 162 -102 289 -276 335 -69 17 -122 19 -149 4z"/>
<path d="M3590 6464 c-169 -45 -275 -180 -312 -394 -22 -128 19 -252 118 -359
78 -84 103 -94 233 -89 100 3 113 6 182 40 100 50 168 121 220 233 69 147 73
259 14 378 -53 105 -135 165 -262 192 -84 18 -123 18 -193 -1z"/>
<path d="M6456 3940 c6 -36 11 -46 18 -39 2 2 -3 20 -10 39 l-14 35 6 -35z"/>
</g>
</svg>
