<?xml version="1.0" standalone="no"?>
<!DOCTYPE svg PUBLIC "-//W3C//DTD SVG 20010904//EN"
 "http://www.w3.org/TR/2001/REC-SVG-20010904/DTD/svg10.dtd">
<svg version="1.0" xmlns="http://www.w3.org/2000/svg"
 width="1024.000000pt" height="1024.000000pt" viewBox="0 0 1024.000000 1024.000000"
 preserveAspectRatio="xMidYMid meet">
<metadata>
Created by potrace 1.10, written by Peter Selinger 2001-2011
</metadata>
<g transform="translate(0.000000,1024.000000) scale(0.100000,-0.100000)"
fill="#000000" stroke="none">
<path d="M4345 8945 c-49 -30 -91 -59 -92 -63 -2 -4 25 -25 59 -47 215 -139
348 -362 393 -661 40 -266 -6 -1424 -81 -2019 -67 -535 -173 -1072 -261 -1320
-221 -624 -572 -1215 -1052 -1775 -372 -433 -817 -774 -1531 -1172 -195 -109
-766 -399 -977 -496 -90 -41 -113 -56 -113 -72 0 -17 6 -20 46 -20 214 0 802
218 1399 520 747 378 1460 926 1918 1474 430 513 739 1092 933 1745 30 102 56
186 58 188 4 4 35 -30 342 -372 342 -381 427 -479 594 -686 978 -1214 2135
-2514 2315 -2599 28 -13 73 -25 100 -28 44 -3 579 19 1126 48 184 10 275 26
298 54 10 12 -3 23 -71 64 -46 27 -121 69 -167 92 -491 245 -1258 733 -1586
1009 -500 419 -1064 943 -1956 1817 -142 138 -408 382 -592 542 -185 161 -338
296 -342 301 -3 6 6 68 20 138 57 290 114 698 144 1028 36 385 71 1043 71
1325 0 74 5 187 11 250 10 115 16 145 62 316 28 106 25 121 -35 165 -114 84
-360 174 -671 245 -133 30 -249 57 -257 59 -8 3 -55 -20 -105 -50z"/>
<path d="M7720 7805 c-30 -19 -59 -36 -63 -37 -5 -2 10 -55 32 -118 47 -132
49 -158 20 -237 -67 -181 -150 -324 -467 -809 -261 -398 -348 -522 -460 -656
-182 -219 -259 -305 -429 -478 -79 -80 -143 -153 -143 -162 0 -9 9 -26 19 -39
18 -23 21 -23 67 -11 27 7 115 46 196 87 142 72 161 85 525 376 473 377 640
544 1062 1052 427 516 403 485 396 517 -17 75 -148 204 -415 408 -104 80 -218
142 -259 142 -14 0 -51 -16 -81 -35z"/>
<path d="M1583 7290 c-13 -5 -23 -14 -23 -20 0 -7 131 -199 292 -428 l291
-417 257 -525 c141 -289 273 -560 293 -602 66 -136 113 -174 205 -165 170 18
259 153 270 407 6 152 -13 240 -83 387 -126 267 -416 601 -789 911 -176 147
-634 462 -669 461 -12 0 -32 -4 -44 -9z"/>
</g>
</svg>
