<?xml version="1.0" standalone="no"?>
<!DOCTYPE svg PUBLIC "-//W3C//DTD SVG 20010904//EN"
 "http://www.w3.org/TR/2001/REC-SVG-20010904/DTD/svg10.dtd">
<svg version="1.0" xmlns="http://www.w3.org/2000/svg"
 width="1024.000000pt" height="1024.000000pt" viewBox="0 0 1024.000000 1024.000000"
 preserveAspectRatio="xMidYMid meet">
<metadata>
Created by potrace 1.10, written by Peter Selinger 2001-2011
</metadata>
<g transform="translate(0.000000,1024.000000) scale(0.100000,-0.100000)"
fill="#000000" stroke="none">
<path d="M3300 10213 c-49 -18 -95 -90 -86 -136 11 -55 50 -94 102 -102 40 -6
49 -3 71 17 49 45 66 105 42 149 -12 23 -87 79 -103 78 -6 0 -18 -3 -26 -6z"/>
<path d="M7467 9998 c-34 -18 -64 -43 -73 -59 -22 -44 -18 -109 11 -150 45
-67 99 -58 174 27 41 47 58 96 46 134 -6 19 -79 80 -94 80 -3 0 -32 -15 -64
-32z"/>
<path d="M540 9904 c-43 -39 -48 -58 -29 -115 16 -47 56 -88 108 -111 41 -19
45 -19 81 -3 29 13 40 26 49 55 25 83 0 145 -74 187 -57 32 -88 29 -135 -13z"/>
<path d="M9630 9933 c-48 -19 -191 -127 -211 -160 -49 -78 -22 -203 45 -211
59 -7 220 92 276 170 49 67 36 138 -34 186 -32 22 -48 25 -76 15z"/>
<path d="M5552 9713 c-58 -28 -82 -67 -82 -131 0 -67 24 -113 71 -137 27 -14
38 -15 75 -5 54 15 79 59 79 142 0 49 -4 61 -30 88 -49 51 -75 61 -113 43z"/>
<path d="M3574 9649 c-24 -7 -36 -19 -48 -49 -30 -76 -16 -211 27 -259 68 -74
146 -101 181 -62 36 40 37 192 2 260 -16 30 -82 94 -111 108 -12 6 -33 7 -51
2z"/>
<path d="M6825 9552 c-16 -10 -50 -52 -75 -93 -44 -72 -45 -77 -45 -156 0 -72
3 -84 24 -107 42 -45 84 -31 168 56 114 116 122 236 21 298 -41 25 -55 25 -93
2z"/>
<path d="M978 9332 c-38 -5 -88 -69 -88 -114 0 -27 9 -43 48 -81 l47 -47 60
10 c63 10 77 21 102 78 22 51 0 98 -61 129 -41 21 -76 29 -108 25z"/>
<path d="M8874 9285 c-67 -33 -132 -101 -148 -156 -16 -51 -2 -125 29 -159 42
-46 161 0 244 95 72 83 73 143 4 210 -43 42 -63 43 -129 10z"/>
<path d="M5426 8956 c-24 -6 -47 -22 -65 -45 -22 -29 -26 -44 -26 -100 0 -44
6 -78 19 -103 18 -37 19 -38 75 -37 92 2 102 8 124 69 31 90 13 152 -58 205
-26 18 -35 20 -69 11z"/>
<path d="M3863 8940 c-43 -10 -58 -23 -82 -74 -48 -98 -2 -222 92 -247 51 -14
123 -3 148 22 41 41 13 174 -54 246 -51 55 -64 62 -104 53z"/>
<path d="M6456 8850 c-62 -55 -66 -109 -15 -181 18 -25 27 -29 70 -29 56 0 89
24 113 82 21 50 -11 110 -76 144 -39 20 -53 18 -92 -16z"/>
<path d="M1350 8744 c-23 -7 -70 -87 -70 -120 0 -22 12 -41 43 -72 43 -43 44
-43 108 -40 62 3 64 4 87 43 25 44 25 102 0 132 -30 37 -124 69 -168 57z"/>
<path d="M8101 8550 c-43 -10 -108 -75 -125 -124 -7 -21 -10 -52 -7 -69 l7
-32 94 3 c93 3 96 4 127 37 40 42 52 95 29 131 -15 22 -73 65 -86 63 -3 -1
-20 -5 -39 -9z"/>
<path d="M10125 8212 c-69 -29 -86 -43 -101 -78 -13 -32 -13 -39 5 -79 23 -52
65 -95 94 -95 11 0 42 14 69 31 l48 31 0 88 c0 80 -2 90 -22 104 -28 20 -42
19 -93 -2z"/>
<path d="M7695 8208 c-52 -18 -136 -88 -152 -126 -12 -30 -13 -43 -3 -76 16
-52 79 -116 114 -116 38 0 94 32 145 82 78 77 94 157 41 202 -17 14 -47 30
-68 36 -43 11 -38 12 -77 -2z"/>
<path d="M1914 8140 c-11 -4 -33 -23 -48 -40 -21 -26 -26 -41 -24 -73 3 -36
10 -47 64 -92 58 -49 63 -52 105 -46 40 5 46 10 67 51 38 74 15 131 -72 181
-55 31 -60 32 -92 19z"/>
<path d="M4252 8094 c-52 -44 -54 -73 -13 -147 23 -40 29 -63 28 -99 -2 -55
21 -93 75 -123 30 -16 40 -17 61 -8 59 27 110 171 88 249 -13 49 -73 114 -130
144 -54 27 -61 26 -109 -16z"/>
<path d="M6229 8115 c-14 -8 -36 -34 -49 -58 -21 -40 -23 -49 -12 -85 14 -47
72 -102 106 -102 29 0 120 94 130 134 9 37 -15 72 -70 103 -45 26 -69 28 -105
8z"/>
<path d="M5315 8071 c-61 -38 -78 -66 -79 -130 -1 -70 19 -106 76 -134 31 -15
39 -16 74 -4 47 17 72 56 80 124 5 40 2 54 -18 83 -21 31 -81 80 -97 80 -3 0
-19 -8 -36 -19z"/>
<path d="M264 7912 c-33 -5 -72 -52 -82 -100 -20 -87 22 -147 120 -173 42 -11
51 -11 82 6 76 41 74 166 -3 223 -38 28 -92 48 -117 44z"/>
<path d="M2280 7702 c-32 -31 -40 -47 -40 -76 0 -31 7 -41 49 -75 46 -35 54
-38 98 -34 36 4 54 12 70 31 26 30 38 80 28 112 -9 29 -76 71 -124 77 -37 5
-44 2 -81 -35z"/>
<path d="M7320 7707 c-66 -39 -93 -84 -86 -141 6 -53 54 -120 88 -124 50 -6
158 116 158 178 0 32 -26 76 -59 99 -16 12 -33 21 -38 21 -4 0 -33 -15 -63
-33z"/>
<path d="M9548 7709 c-66 -33 -91 -72 -90 -135 1 -70 32 -114 81 -114 29 0
140 77 161 112 31 51 26 84 -19 129 -21 22 -47 39 -57 39 -11 -1 -45 -14 -76
-31z"/>
<path d="M5470 7673 c-388 -41 -813 -134 -1175 -257 -164 -55 -664 -287 -755
-349 -63 -43 -137 -114 -171 -164 -21 -30 -74 -71 -191 -148 -193 -127 -282
-198 -377 -302 -99 -107 -138 -167 -161 -247 -23 -81 -54 -129 -132 -207 -34
-33 -53 -60 -48 -65 6 -6 -5 -48 -25 -104 -42 -119 -68 -221 -96 -380 -19
-108 -23 -174 -26 -477 -4 -258 -8 -353 -16 -353 -7 0 -30 5 -51 10 -51 11
-99 -8 -119 -47 -54 -106 -8 -169 117 -161 33 2 68 7 76 11 13 6 25 -39 73
-277 53 -261 63 -297 125 -452 141 -355 390 -664 740 -922 234 -173 623 -364
970 -478 279 -92 320 -99 874 -150 282 -25 514 -48 516 -49 2 -1 -6 -18 -18
-37 -11 -19 -24 -57 -29 -84 -8 -41 -6 -57 10 -93 28 -64 66 -110 105 -128 29
-14 37 -15 59 -3 42 22 69 94 70 180 0 65 -4 82 -28 123 -16 27 -27 50 -25 51
1 2 66 11 143 21 299 36 708 126 879 191 10 4 15 -9 20 -47 14 -103 121 -203
211 -197 52 4 68 32 62 109 -6 65 -26 110 -73 160 l-34 35 137 58 c460 194
841 476 1097 811 50 66 96 126 103 135 10 13 15 12 40 -12 71 -68 171 -69 199
-2 34 82 6 160 -73 196 -27 13 -49 23 -51 24 -1 1 13 44 32 95 19 52 62 204
96 339 34 135 65 261 71 281 9 37 9 37 72 41 105 8 207 70 207 128 0 49 -77
106 -158 116 -89 12 -79 -25 -85 321 -4 241 -9 336 -25 438 -31 198 -68 354
-127 530 -65 197 -116 314 -202 470 -36 65 -62 120 -57 122 5 2 30 17 56 33
57 36 108 102 108 141 0 34 -47 91 -90 109 -48 20 -112 -9 -157 -71 -19 -27
-38 -49 -42 -49 -3 0 -74 71 -158 158 -149 157 -260 250 -438 369 -415 279
-953 454 -1538 502 -119 10 -437 13 -517 4z m775 -251 c674 -105 1235 -379
1560 -761 312 -367 511 -801 594 -1294 71 -418 46 -998 -58 -1368 -119 -420
-338 -738 -689 -999 -188 -140 -466 -290 -727 -393 -489 -192 -1122 -290
-1666 -259 -416 24 -714 78 -1030 188 -481 167 -954 475 -1254 819 -108 125
-230 348 -293 540 -41 123 -131 671 -144 875 -26 410 59 944 193 1212 87 174
233 348 382 453 61 43 88 69 96 92 12 31 66 83 87 83 6 0 27 22 48 50 101 132
286 251 483 309 54 16 175 63 268 105 345 157 791 281 1275 356 176 27 679 23
875 -8z"/>
<path d="M2530 7472 c-69 -69 -57 -169 26 -218 58 -34 80 -31 130 20 70 69 58
127 -39 197 -50 36 -81 37 -117 1z"/>
<path d="M804 7408 c-40 -10 -84 -74 -84 -122 0 -26 7 -41 33 -62 47 -40 106
-64 157 -64 37 0 52 6 79 31 31 28 33 34 28 76 -5 51 -30 90 -73 115 -41 24
-104 36 -140 26z"/>
<path d="M8995 7254 c-45 -23 -103 -84 -110 -115 -7 -30 5 -61 38 -96 16 -18
31 -23 73 -23 46 0 59 5 90 32 45 40 67 88 55 120 -10 26 -55 70 -88 87 -27
14 -22 14 -58 -5z"/>
<path d="M2783 7170 c-23 -10 -73 -87 -73 -114 0 -30 29 -74 60 -93 16 -9 30
-23 30 -29 0 -7 30 -40 68 -74 64 -58 69 -60 107 -54 22 3 44 9 49 11 12 8 46
85 46 106 0 34 -32 86 -65 107 -18 11 -38 34 -45 51 -15 34 -103 99 -135 98
-11 0 -30 -4 -42 -9z"/>
<path d="M1257 7020 c-44 -27 -47 -32 -47 -71 0 -34 8 -53 41 -96 l41 -53 140
0 c135 0 139 1 147 23 19 48 -59 141 -161 192 -39 19 -80 35 -92 35 -12 0 -43
-13 -69 -30z"/>
<path d="M10125 6656 c-43 -19 -62 -45 -69 -97 -7 -46 -6 -48 35 -83 48 -41
93 -47 128 -18 20 15 22 25 19 92 l-3 75 -40 22 c-35 19 -43 20 -70 9z"/>
<path d="M1994 6500 c-27 -11 -63 -69 -71 -113 -4 -28 0 -40 27 -71 41 -46 78
-66 123 -66 28 0 42 8 71 40 65 73 42 146 -65 200 -42 22 -53 23 -85 10z"/>
<path d="M9790 6228 c-127 -22 -160 -40 -160 -90 0 -46 26 -96 62 -118 69 -44
234 -7 314 71 52 50 41 109 -26 144 -35 18 -45 18 -190 -7z"/>
<path d="M9308 5908 c-54 -23 -98 -45 -98 -48 1 -3 21 -18 45 -33 24 -15 59
-50 76 -78 18 -27 34 -49 37 -49 11 0 104 74 122 97 38 49 16 105 -57 142 -27
14 -11 18 -125 -31z"/>
<path d="M8907 5721 c-67 -33 -120 -80 -137 -122 -13 -30 -6 -94 10 -104 5 -3
46 8 91 25 91 33 115 36 154 18 19 -9 28 -9 37 0 14 14 -4 58 -52 123 -16 23
-30 53 -30 66 0 29 -2 28 -73 -6z"/>
<path d="M262 5512 c-59 -25 -71 -40 -73 -95 -2 -40 2 -51 27 -78 62 -66 113
-74 204 -33 49 22 60 32 74 67 15 38 15 43 -2 76 -9 19 -29 44 -44 55 -38 27
-129 31 -186 8z"/>
<path d="M975 5488 c-42 -15 -94 -56 -107 -84 -8 -17 -7 -31 2 -54 14 -34 87
-90 118 -90 29 0 119 85 127 120 8 37 -6 63 -53 95 -40 28 -44 28 -87 13z"/>
<path d="M1535 5467 c-41 -17 -63 -45 -70 -92 -13 -82 32 -125 130 -125 120 0
192 138 105 201 -31 23 -125 32 -165 16z"/>
<path d="M2095 5403 c-31 -8 -53 -32 -71 -80 -17 -42 -16 -45 3 -71 46 -63
149 -59 203 7 17 20 30 47 30 63 0 57 -88 100 -165 81z"/>
<path d="M9323 4542 c-27 -17 -73 -87 -73 -111 0 -31 32 -86 57 -99 32 -17 81
-2 123 39 60 59 52 111 -24 158 -35 22 -62 26 -83 13z"/>
<path d="M9965 4464 c-47 -17 -85 -56 -85 -88 0 -35 55 -114 85 -122 58 -14
165 68 165 127 0 33 -69 99 -103 98 -12 0 -40 -7 -62 -15z"/>
<path d="M1633 4229 c-78 -38 -97 -107 -49 -179 20 -31 33 -40 54 -40 32 0
114 50 137 83 32 45 13 98 -49 136 -41 26 -41 26 -93 0z"/>
<path d="M830 3896 c-88 -46 -112 -96 -74 -151 19 -26 21 -26 104 -22 84 5 85
6 117 43 39 44 42 82 11 112 -25 23 -70 42 -96 42 -9 -1 -37 -12 -62 -24z"/>
<path d="M240 3570 c-135 -63 -139 -66 -150 -95 -22 -59 59 -165 127 -165 72
0 199 87 229 158 12 27 12 37 0 66 -12 28 -76 86 -96 86 -3 0 -52 -22 -110
-50z"/>
<path d="M8825 3218 c-47 -25 -65 -51 -65 -90 0 -21 6 -53 13 -71 20 -46 86
-101 140 -116 82 -23 131 5 142 84 6 37 3 54 -17 93 -20 39 -35 53 -87 80 -66
34 -93 38 -126 20z"/>
<path d="M2055 2951 c-85 -26 -155 -88 -155 -137 0 -31 48 -101 78 -113 25
-11 36 -9 75 9 52 24 115 84 123 116 7 28 -18 77 -53 102 -41 28 -46 29 -68
23z"/>
<path d="M3105 2548 c-20 -17 -50 -59 -67 -92 -17 -34 -46 -79 -64 -100 -40
-47 -52 -96 -34 -145 33 -95 69 -94 192 3 68 53 101 88 121 124 46 85 33 164
-36 216 -44 34 -69 33 -112 -6z"/>
<path d="M7915 2573 c-69 -13 -106 -99 -67 -152 11 -16 23 -44 27 -62 14 -72
83 -117 148 -97 32 10 39 19 57 65 11 30 20 64 20 76 -1 44 -38 105 -87 141
-47 35 -57 38 -98 29z"/>
<path d="M9378 2500 c-32 -35 -38 -48 -38 -84 0 -41 4 -47 51 -87 l50 -42 57
9 c48 8 60 14 79 43 27 40 30 97 7 129 -20 28 -105 72 -140 72 -19 0 -39 -13
-66 -40z"/>
<path d="M1161 2273 c-31 -6 -57 -38 -72 -86 -16 -49 -2 -78 46 -101 53 -26
124 -8 165 42 52 63 34 116 -49 140 -39 12 -48 13 -90 5z"/>
<path d="M4210 2262 c-8 -3 -31 -19 -50 -35 -28 -25 -39 -46 -57 -111 -19 -68
-20 -87 -11 -130 36 -173 139 -182 219 -20 57 116 49 212 -24 267 -39 29 -57
36 -77 29z"/>
<path d="M8304 1997 c-22 -19 -28 -34 -32 -79 -8 -104 49 -156 156 -143 47 6
63 13 94 45 65 64 45 106 -80 169 -75 37 -102 39 -138 8z"/>
<path d="M7160 1938 c-57 -29 -90 -78 -90 -132 0 -38 4 -45 54 -84 79 -61 121
-56 176 20 22 29 30 52 30 81 0 36 -6 47 -50 89 -27 26 -56 48 -63 48 -7 0
-33 -10 -57 -22z"/>
<path d="M9985 1921 c-54 -33 -68 -56 -60 -98 15 -80 50 -125 133 -167 71 -37
132 23 132 129 0 37 -6 52 -35 84 -22 24 -54 46 -82 55 -57 20 -52 20 -88 -3z"/>
<path d="M831 1838 c-104 -98 -119 -123 -103 -177 17 -54 53 -104 84 -115 38
-13 83 8 152 74 116 110 127 202 33 274 -53 40 -70 35 -166 -56z"/>
<path d="M2488 1782 c-19 -2 -44 -23 -82 -69 -44 -52 -56 -75 -61 -114 -8 -58
-1 -85 33 -121 44 -47 91 -34 165 46 39 42 67 99 67 137 0 64 -65 129 -122
121z"/>
<path d="M7405 1632 c-41 -9 -95 -77 -95 -122 0 -35 27 -75 69 -103 56 -38 99
-36 138 6 45 46 56 80 39 121 -20 48 -110 107 -151 98z"/>
<path d="M8710 1568 c-14 -5 -40 -23 -57 -41 -25 -23 -33 -39 -33 -66 0 -73
67 -151 130 -151 33 0 106 70 115 111 8 35 -15 81 -57 112 -53 39 -70 46 -98
35z"/>
<path d="M468 1530 c-47 -25 -93 -82 -113 -139 -36 -107 -5 -156 98 -149 65 5
98 29 148 107 43 67 40 104 -16 158 -51 48 -64 51 -117 23z"/>
<path d="M3945 1369 c-47 -13 -80 -64 -80 -122 0 -45 4 -52 47 -93 26 -24 52
-44 57 -44 21 0 94 75 112 114 24 54 10 90 -49 127 -25 16 -48 29 -51 28 -4 0
-20 -5 -36 -10z"/>
<path d="M5621 1307 c-42 -13 -82 -71 -88 -131 -11 -97 69 -182 163 -174 31 2
42 9 58 37 42 72 15 203 -51 249 -43 29 -46 30 -82 19z"/>
<path d="M9163 1180 c-41 -17 -82 -72 -83 -109 0 -44 38 -95 92 -122 62 -31
152 -24 186 16 20 24 23 36 19 73 -3 24 -14 56 -24 71 -39 52 -142 91 -190 71z"/>
<path d="M1805 1073 c-102 -52 -127 -98 -101 -186 33 -114 99 -116 205 -6 45
48 65 98 51 133 -9 25 -78 86 -95 86 -5 -1 -32 -12 -60 -27z"/>
<path d="M7718 1023 c-57 -9 -100 -122 -63 -163 49 -54 142 -46 194 18 37 44
40 83 9 112 -21 19 -81 42 -103 38 -5 0 -22 -3 -37 -5z"/>
<path d="M5678 793 c-39 -6 -88 -58 -88 -93 0 -16 11 -42 26 -59 23 -28 32
-31 81 -31 49 0 58 4 84 31 42 45 47 74 18 105 -19 21 -87 59 -93 53 0 -1 -13
-4 -28 -6z"/>
<path d="M9560 751 c-9 -3 -32 -19 -53 -35 -30 -23 -37 -35 -37 -63 0 -137
162 -237 232 -142 29 38 35 105 14 143 -31 54 -122 111 -156 97z"/>
<path d="M7966 710 c-56 -62 -50 -98 25 -154 28 -20 47 -26 87 -26 45 0 53 3
72 30 27 37 36 99 21 129 -16 29 -83 61 -129 61 -34 0 -45 -6 -76 -40z"/>
<path d="M3580 684 c-35 -30 -59 -72 -71 -124 -17 -74 71 -220 132 -220 34 0
74 54 99 131 21 64 22 77 11 118 -14 55 -77 121 -115 121 -13 0 -38 -12 -56
-26z"/>
<path d="M1182 550 c-28 -20 -45 -42 -53 -69 -11 -36 -9 -45 12 -88 24 -47 25
-48 76 -51 49 -3 54 -1 97 41 37 35 46 50 46 78 0 42 -19 70 -64 98 -45 28
-65 26 -114 -9z"/>
<path d="M5632 533 c-13 -3 -36 -23 -52 -45 -25 -34 -30 -51 -30 -97 0 -125
42 -181 135 -181 50 0 55 2 85 40 29 37 32 45 25 87 -11 75 -34 120 -83 163
-24 22 -48 39 -51 39 -3 -1 -16 -4 -29 -6z"/>
<path d="M8250 404 c-40 -34 -60 -74 -60 -120 0 -30 7 -44 40 -76 36 -33 47
-38 89 -38 43 0 53 4 79 34 37 42 46 68 38 110 -7 37 -21 52 -87 90 -57 32
-60 32 -99 0z"/>
<path d="M9770 374 c-34 -31 -40 -42 -40 -76 0 -51 34 -113 77 -140 49 -29 92
-18 138 34 63 74 40 144 -66 198 -52 27 -63 26 -109 -16z"/>
<path d="M730 203 c-114 -63 -128 -85 -104 -158 l16 -45 93 0 93 0 36 42 c62
72 49 140 -36 184 -15 8 -28 14 -30 14 -2 0 -32 -17 -68 -37z"/>
<path d="M10035 233 c-59 -14 -108 -109 -83 -160 35 -72 133 -91 189 -37 30
29 59 74 59 93 0 21 -56 74 -98 92 -24 11 -44 18 -45 18 -1 -1 -11 -3 -22 -6z"/>
<path d="M3471 185 c-41 -15 -81 -58 -81 -88 0 -12 9 -36 19 -53 17 -27 27
-32 77 -39 55 -7 58 -6 90 27 45 45 52 78 22 111 -35 40 -85 56 -127 42z"/>
<path d="M8494 186 c-35 -11 -71 -57 -80 -104 -5 -26 -2 -38 16 -57 20 -22 32
-25 91 -25 l67 0 31 42 c17 23 31 49 31 59 0 51 -96 104 -156 85z"/>
<path d="M5610 143 c-14 -3 -33 -12 -42 -20 -22 -20 -52 -98 -43 -112 4 -7 46
-11 109 -11 l104 0 12 30 c18 43 1 76 -53 100 -23 11 -46 19 -52 18 -5 0 -21
-3 -35 -5z"/>
</g>
</svg>
