<?xml version="1.0" standalone="no"?>
<!DOCTYPE svg PUBLIC "-//W3C//DTD SVG 20010904//EN"
 "http://www.w3.org/TR/2001/REC-SVG-20010904/DTD/svg10.dtd">
<svg version="1.0" xmlns="http://www.w3.org/2000/svg"
 width="1024.000000pt" height="1024.000000pt" viewBox="0 0 1024.000000 1024.000000"
 preserveAspectRatio="xMidYMid meet">
<metadata>
Created by potrace 1.10, written by Peter Selinger 2001-2011
</metadata>
<g transform="translate(0.000000,1024.000000) scale(0.100000,-0.100000)"
fill="#000000" stroke="none">
<path d="M5525 8154 c-5 -2 -349 -62 -763 -134 l-754 -131 -167 -63 c-156 -60
-180 -72 -376 -201 -116 -76 -288 -189 -383 -252 -218 -143 -295 -203 -478
-378 -68 -65 -182 -193 -266 -299 -255 -319 -444 -696 -531 -1057 -91 -376
-93 -864 -6 -1264 167 -761 561 -1331 1259 -1822 505 -356 1199 -634 1960
-787 286 -57 406 -69 675 -69 230 -1 314 6 560 43 327 49 828 234 1147 423
146 87 499 359 587 453 382 408 594 914 683 1634 20 161 17 669 -5 845 -65
513 -218 962 -493 1445 -282 496 -605 877 -960 1132 -385 276 -752 427 -1164
478 -79 9 -503 13 -525 4z m660 -258 c114 -24 256 -68 374 -115 97 -39 467
-272 589 -370 140 -113 388 -360 494 -491 195 -242 238 -313 462 -760 l213
-425 66 -305 c78 -356 88 -442 88 -753 0 -246 -10 -390 -42 -577 -112 -661
-324 -1102 -695 -1449 -314 -294 -834 -549 -1323 -650 -195 -41 -306 -52 -543
-58 -529 -13 -1026 62 -1553 233 -602 195 -1070 466 -1514 877 -293 272 -432
471 -639 917 l-109 235 -42 268 c-53 340 -65 468 -56 637 17 342 110 666 294
1025 123 241 289 479 463 667 29 32 127 114 218 183 91 69 215 163 275 210
130 99 497 327 640 396 55 26 141 60 190 74 50 15 407 80 795 145 l705 119
265 -3 c239 -4 277 -6 385 -30z"/>
<path d="M5146 5436 c-118 -50 -180 -123 -216 -258 -56 -208 16 -368 206 -458
174 -82 385 4 475 194 26 55 29 71 29 164 0 92 -3 109 -29 167 -60 132 -169
203 -326 211 -69 4 -88 1 -139 -20z"/>
<path d="M6392 3610 c0 -8 6 -31 13 -50 7 -19 13 -28 13 -20 0 8 -6 31 -13 50
-7 19 -13 28 -13 20z"/>
</g>
</svg>
