<?xml version="1.0" standalone="no"?>
<!DOCTYPE svg PUBLIC "-//W3C//DTD SVG 20010904//EN"
 "http://www.w3.org/TR/2001/REC-SVG-20010904/DTD/svg10.dtd">
<svg version="1.0" xmlns="http://www.w3.org/2000/svg"
 width="1024.000000pt" height="1024.000000pt" viewBox="0 0 1024.000000 1024.000000"
 preserveAspectRatio="xMidYMid meet">
<metadata>
Created by potrace 1.10, written by Peter Selinger 2001-2011
</metadata>
<g transform="translate(0.000000,1024.000000) scale(0.100000,-0.100000)"
fill="#000000" stroke="none">
<path d="M7250 8204 c-113 -13 -234 -32 -270 -43 -150 -46 -399 -84 -664 -101
-89 -6 -858 -56 -1711 -111 l-1550 -100 -239 72 -239 72 -119 -38 c-72 -24
-118 -44 -118 -52 0 -8 21 -33 47 -56 120 -107 171 -176 220 -299 54 -133 52
-46 53 -2352 l0 -2140 -30 -295 c-16 -163 -37 -350 -45 -416 -19 -152 -19
-207 1 -303 45 -222 226 -439 350 -419 74 12 133 91 168 221 8 32 17 60 20 64
6 5 300 20 2686 136 740 36 1375 68 1411 71 l66 6 12 -73 c26 -163 90 -283
185 -345 55 -37 133 -58 180 -49 94 18 169 175 223 466 16 88 18 275 23 2685
6 2378 7 2596 23 2657 23 93 39 127 77 168 43 46 70 105 70 158 0 38 -5 47
-58 100 -68 68 -252 213 -337 265 -127 77 -170 82 -435 51z m55 -487 c18 -18
41 -57 51 -88 18 -51 19 -117 22 -1149 l3 -1096 -583 -33 c-321 -18 -729 -41
-908 -52 -179 -10 -842 -48 -1475 -83 -632 -36 -1178 -68 -1212 -71 l-63 -6 0
1163 0 1163 1963 141 c1079 78 2009 142 2066 143 l103 1 33 -33z m74 -3629 c0
-733 -4 -1005 -17 -1270 -10 -185 -19 -338 -22 -341 -3 -2 -302 -18 -665 -36
-363 -17 -1305 -63 -2093 -101 -788 -39 -1435 -70 -1438 -70 -2 0 -4 566 -4
1258 l0 1259 133 6 c202 10 2805 153 3472 191 325 18 600 34 613 35 l22 1 -1
-932z"/>
</g>
</svg>
