<?xml version="1.0" standalone="no"?>
<!DOCTYPE svg PUBLIC "-//W3C//DTD SVG 20010904//EN"
 "http://www.w3.org/TR/2001/REC-SVG-20010904/DTD/svg10.dtd">
<svg version="1.0" xmlns="http://www.w3.org/2000/svg"
 width="1024.000000pt" height="1024.000000pt" viewBox="0 0 1024.000000 1024.000000"
 preserveAspectRatio="xMidYMid meet">
<metadata>
Created by potrace 1.10, written by Peter Selinger 2001-2011
</metadata>
<g transform="translate(0.000000,1024.000000) scale(0.100000,-0.100000)"
fill="#000000" stroke="none">
<path d="M5055 8964 c-82 -24 -154 -45 -160 -47 -5 -2 40 -55 101 -118 92 -95
119 -130 154 -201 41 -83 43 -93 87 -379 l44 -294 -5 -760 c-2 -418 -10 -857
-16 -975 -46 -920 -124 -1605 -235 -2081 -129 -551 -287 -1002 -505 -1444
-209 -425 -450 -787 -786 -1180 -221 -259 -663 -687 -971 -940 l-73 -59 46
-30 c44 -28 47 -29 103 -18 197 36 506 229 886 552 519 442 938 935 1285 1510
105 175 299 565 374 751 88 218 72 213 198 72 303 -338 524 -634 713 -958 148
-255 271 -407 364 -455 38 -19 56 -22 116 -18 176 11 256 128 241 351 -11 178
-46 308 -124 467 -39 81 -61 110 -151 203 -241 247 -516 439 -982 683 l-207
108 29 85 c102 301 192 703 253 1131 50 343 99 876 111 1195 9 228 1 209 98
240 171 56 797 411 1208 685 193 129 419 266 489 297 100 44 129 129 69 197
-95 108 -621 370 -826 411 -33 7 -173 -29 -173 -44 0 -4 10 -12 23 -18 44 -20
87 -65 98 -102 21 -69 -25 -175 -144 -336 -120 -162 -428 -478 -664 -680
l-148 -127 -3 643 c-4 791 5 997 52 1234 19 94 33 170 32 171 0 0 -64 45 -141
99 l-140 98 -270 64 c-148 34 -277 62 -285 62 -8 -1 -82 -21 -165 -45z"/>
<path d="M3342 6870 l-32 -20 44 -82 c200 -370 331 -870 376 -1428 16 -208 56
-297 156 -346 51 -25 62 -26 147 -22 112 7 187 33 249 88 156 137 182 454 62
738 -20 48 -40 92 -44 97 -5 6 -40 70 -79 143 -94 177 -185 297 -364 479 -125
127 -175 170 -302 258 -84 57 -159 107 -166 110 -8 3 -29 -4 -47 -15z"/>
</g>
</svg>
