<?xml version="1.0" standalone="no"?>
<!DOCTYPE svg PUBLIC "-//W3C//DTD SVG 20010904//EN"
 "http://www.w3.org/TR/2001/REC-SVG-20010904/DTD/svg10.dtd">
<svg version="1.0" xmlns="http://www.w3.org/2000/svg"
 width="1024.000000pt" height="1024.000000pt" viewBox="0 0 1024.000000 1024.000000"
 preserveAspectRatio="xMidYMid meet">
<metadata>
Created by potrace 1.10, written by Peter Selinger 2001-2011
</metadata>
<g transform="translate(0.000000,1024.000000) scale(0.100000,-0.100000)"
fill="#000000" stroke="none">
<path d="M5062 9205 c-42 -36 -74 -155 -73 -281 0 -52 3 -100 8 -107 4 -6 11
-109 14 -227 4 -118 12 -285 18 -370 17 -235 113 -1905 119 -2070 2 -80 -1
-228 -7 -330 -6 -102 -16 -540 -21 -975 -5 -434 -15 -1013 -22 -1285 -9 -409
-9 -539 3 -745 20 -359 22 -336 -34 -431 -26 -45 -47 -86 -47 -93 0 -7 -74
-103 -164 -214 -128 -158 -188 -222 -271 -292 -59 -49 -123 -107 -141 -128
l-35 -38 -303 160 c-311 165 -442 220 -571 241 -160 26 -370 115 -514 217 -63
46 -641 599 -641 615 0 4 -27 52 -60 107 -33 55 -69 125 -79 156 -22 68 -52
102 -102 116 -34 11 -43 22 -101 128 -34 63 -77 145 -94 181 -56 118 -193 270
-243 270 -9 0 -39 -13 -67 -30 -39 -22 -57 -41 -74 -76 -22 -44 -22 -50 -10
-113 19 -96 74 -284 115 -392 263 -689 777 -1265 1471 -1647 204 -112 449
-214 683 -283 l136 -41 710 -48 710 -48 333 74 c320 70 342 76 570 165 759
294 1345 697 1852 1274 194 220 274 329 481 655 187 294 202 346 139 471 -43
84 -143 139 -258 142 -81 3 -119 -26 -151 -116 -12 -37 -29 -71 -37 -78 -7 -6
-18 -26 -23 -44 -5 -18 -207 -295 -454 -622 l-445 -589 -313 -253 c-282 -228
-325 -259 -433 -313 -195 -98 -406 -173 -608 -217 l-86 -19 -28 29 c-40 42
-95 77 -160 104 l-59 24 -168 307 -168 307 6 72 c6 61 4 80 -14 120 -20 46
-21 63 -21 454 0 223 -5 714 -10 1091 -10 691 -4 1044 23 1360 12 131 8 251
-34 1315 -26 643 -50 1314 -53 1490 -5 276 -9 333 -27 412 -19 84 -20 100 -9
165 23 136 24 182 1 226 -24 46 -78 92 -109 92 -11 0 -34 -11 -50 -25z"/>
<path d="M6335 6814 c-22 -8 -59 -19 -83 -25 -58 -14 -103 -56 -145 -137 -76
-144 -88 -283 -37 -434 17 -49 30 -95 30 -102 0 -22 70 -95 117 -122 42 -25
50 -27 137 -21 74 4 104 11 147 33 79 39 179 144 224 234 33 65 39 88 47 185
9 102 8 114 -11 167 -43 114 -138 194 -260 222 -82 19 -112 19 -166 0z"/>
<path d="M3482 6735 c-71 -20 -106 -39 -159 -88 -55 -50 -86 -102 -118 -198
-64 -187 -33 -337 98 -476 66 -70 97 -83 200 -83 212 0 366 111 447 322 55
142 40 281 -44 391 -85 112 -279 173 -424 132z"/>
<path d="M6342 4250 c0 -8 6 -31 13 -50 7 -19 13 -28 13 -20 0 8 -6 31 -13 50
-7 19 -13 28 -13 20z"/>
</g>
</svg>
