<?xml version="1.0" standalone="no"?>
<!DOCTYPE svg PUBLIC "-//W3C//DTD SVG 20010904//EN"
 "http://www.w3.org/TR/2001/REC-SVG-20010904/DTD/svg10.dtd">
<svg version="1.0" xmlns="http://www.w3.org/2000/svg"
 width="1024.000000pt" height="1024.000000pt" viewBox="0 0 1024.000000 1024.000000"
 preserveAspectRatio="xMidYMid meet">
<metadata>
Created by potrace 1.10, written by Peter Selinger 2001-2011
</metadata>
<g transform="translate(0.000000,1024.000000) scale(0.100000,-0.100000)"
fill="#000000" stroke="none">
<path d="M3250 10213 c-24 -9 -61 -45 -77 -77 -19 -36 -11 -79 22 -122 19 -25
33 -33 67 -36 50 -5 79 10 108 57 38 61 25 107 -44 155 -46 31 -50 32 -76 23z"/>
<path d="M7397 9998 c-71 -39 -91 -72 -85 -140 6 -59 46 -108 88 -108 38 0
104 51 134 103 30 50 32 67 11 107 -12 23 -71 71 -86 70 -2 0 -30 -15 -62 -32z"/>
<path d="M505 9909 c-29 -26 -35 -38 -35 -71 0 -75 49 -140 125 -165 23 -8 40
-7 68 4 40 16 57 53 57 125 0 63 -84 138 -154 138 -14 0 -41 -14 -61 -31z"/>
<path d="M9459 9876 c-126 -85 -160 -139 -140 -227 11 -48 46 -89 75 -89 60 0
219 107 266 179 33 49 38 87 15 131 -16 31 -72 70 -101 70 -11 0 -62 -29 -115
-64z"/>
<path d="M5494 9720 c-11 -4 -34 -24 -52 -44 -28 -33 -32 -43 -32 -98 0 -57 2
-63 39 -99 43 -43 80 -50 131 -24 37 19 65 89 57 147 -4 35 -14 51 -52 86 -49
44 -56 46 -91 32z"/>
<path d="M3527 9652 c-57 -7 -88 -137 -58 -244 10 -35 25 -57 61 -87 86 -73
135 -77 165 -15 22 46 17 183 -8 230 -36 70 -109 123 -160 116z"/>
<path d="M6793 9572 c-51 -8 -138 -133 -155 -222 -12 -69 -5 -116 23 -146 42
-45 98 -26 174 58 25 28 56 69 66 91 37 72 22 150 -38 193 -39 28 -45 31 -70
26z"/>
<path d="M888 9298 c-30 -33 -38 -49 -38 -79 0 -32 6 -42 49 -78 48 -41 51
-42 103 -35 63 8 82 22 104 79 15 39 15 45 -1 75 -11 21 -33 39 -68 56 -76 35
-103 32 -149 -18z"/>
<path d="M8827 9305 c-131 -48 -207 -164 -178 -271 24 -88 87 -101 179 -37
159 109 189 197 97 282 -50 46 -46 45 -98 26z"/>
<path d="M5370 8963 c-34 -6 -77 -49 -91 -90 -13 -40 -5 -112 18 -160 15 -33
16 -33 89 -33 85 0 96 9 115 96 16 71 -6 133 -59 169 -20 14 -39 24 -42 24 -3
-1 -16 -4 -30 -6z"/>
<path d="M3794 8940 c-32 -13 -72 -67 -80 -105 -15 -84 20 -166 87 -200 58
-31 173 -10 181 32 7 33 -9 129 -28 168 -24 51 -90 115 -118 114 -11 0 -30 -4
-42 -9z"/>
<path d="M6411 8872 c-76 -39 -91 -135 -30 -198 45 -47 93 -47 136 -1 62 66
67 100 22 152 -26 29 -76 65 -91 65 -2 0 -18 -8 -37 -18z"/>
<path d="M1323 8753 c-31 -6 -83 -80 -83 -118 0 -24 11 -41 48 -76 l47 -46 59
6 c58 6 60 7 83 50 13 24 23 54 23 67 0 58 -108 130 -177 117z"/>
<path d="M8032 8560 c-74 -17 -155 -136 -135 -197 l10 -28 94 3 c89 3 95 5
121 32 36 39 51 95 35 129 -11 23 -72 72 -86 70 -3 -1 -21 -5 -39 -9z"/>
<path d="M10034 8219 c-101 -38 -126 -105 -71 -188 50 -76 93 -78 172 -9 63
56 81 97 60 141 -16 33 -71 77 -96 76 -8 0 -37 -9 -65 -20z"/>
<path d="M7630 8218 c-51 -14 -139 -84 -156 -125 -13 -31 -13 -40 1 -83 18
-54 72 -110 107 -110 86 0 217 134 218 222 0 61 -96 115 -170 96z"/>
<path d="M1840 8124 c-36 -33 -40 -41 -39 -83 0 -44 3 -49 57 -93 50 -42 63
-48 104 -48 45 0 49 2 68 40 29 58 26 102 -10 144 -29 33 -102 76 -128 76 -7
0 -30 -16 -52 -36z"/>
<path d="M4197 8107 c-46 -39 -48 -75 -11 -148 16 -33 26 -70 27 -105 2 -43 8
-59 31 -83 16 -16 42 -35 58 -42 25 -10 33 -9 56 8 56 42 93 155 78 238 -8 43
-55 98 -115 137 -57 36 -77 35 -124 -5z"/>
<path d="M6156 8119 c-53 -42 -69 -104 -41 -158 18 -36 71 -81 94 -81 45 0
131 102 131 155 0 37 -27 67 -82 90 -50 20 -70 19 -102 -6z"/>
<path d="M5231 8068 c-44 -36 -56 -61 -55 -124 1 -54 30 -102 75 -126 35 -18
39 -18 77 -3 45 19 72 62 79 130 6 47 -23 96 -76 132 -44 30 -51 29 -100 -9z"/>
<path d="M209 7912 c-43 -22 -64 -63 -64 -129 0 -44 5 -56 29 -82 17 -18 53
-38 83 -48 50 -16 54 -16 87 2 40 22 56 56 56 121 0 62 -44 109 -134 144 -17
6 -33 4 -57 -8z"/>
<path d="M2234 7713 c-27 -29 -34 -45 -34 -77 1 -36 5 -45 44 -73 35 -27 52
-33 93 -33 52 0 67 10 92 58 31 59 4 118 -66 148 -57 24 -91 18 -129 -23z"/>
<path d="M7243 7715 c-60 -40 -76 -65 -76 -120 0 -47 34 -120 64 -136 30 -16
72 4 119 59 72 82 75 151 8 207 -38 32 -52 31 -115 -10z"/>
<path d="M9467 7719 c-48 -25 -62 -38 -78 -74 -17 -39 -18 -51 -8 -87 14 -55
35 -78 71 -78 39 0 108 41 152 91 51 55 50 94 -4 143 -22 20 -48 36 -58 36 -9
-1 -43 -15 -75 -31z"/>
<path d="M5311 7675 c-579 -74 -1122 -231 -1577 -457 -139 -69 -154 -80 -288
-200 -99 -90 -196 -165 -326 -252 -193 -129 -292 -210 -382 -311 -89 -101
-124 -156 -147 -234 -23 -77 -71 -150 -144 -220 -20 -18 -33 -39 -31 -46 3 -7
-13 -65 -35 -128 -38 -109 -73 -263 -103 -452 -9 -55 -13 -182 -12 -407 1
-181 1 -328 0 -328 0 0 -25 7 -53 14 -31 8 -55 10 -59 5 -3 -5 -14 -9 -24 -9
-40 0 -80 -88 -66 -145 3 -13 20 -31 36 -40 34 -18 160 -21 177 -4 12 12 14 7
87 -351 82 -399 204 -644 479 -958 333 -382 892 -698 1552 -876 121 -33 165
-39 646 -83 l516 -47 -22 -42 c-13 -24 -26 -66 -30 -93 -6 -43 -3 -56 21 -98
35 -62 69 -99 105 -113 105 -44 171 215 82 321 -14 16 -24 31 -22 33 2 1 83
12 179 24 269 34 644 115 819 177 l40 14 6 -37 c3 -20 8 -48 11 -61 3 -13 31
-49 62 -81 43 -43 68 -59 104 -68 57 -15 74 -9 87 30 26 75 6 160 -55 227
l-43 47 107 44 c479 194 858 475 1145 847 l94 122 23 -24 c32 -34 101 -59 144
-51 42 8 51 19 66 78 11 42 10 52 -10 92 -17 36 -32 50 -70 68 -27 13 -49 28
-50 33 0 6 15 51 34 100 18 50 64 215 102 368 l69 277 55 0 c59 0 122 24 177
66 28 21 33 32 33 65 0 36 -4 42 -47 69 -54 35 -102 50 -155 50 l-38 0 0 272
c0 302 -13 441 -61 676 -57 276 -155 548 -279 774 -39 70 -70 131 -70 135 0 5
28 26 62 48 43 28 69 54 87 86 23 42 24 48 11 79 -19 46 -91 91 -129 80 -53
-15 -87 -39 -119 -83 l-32 -46 -93 97 c-51 53 -116 121 -143 151 -146 159
-519 403 -794 519 -281 119 -570 197 -895 243 -189 27 -648 35 -814 14z m779
-229 c555 -68 1062 -263 1411 -544 87 -70 245 -232 311 -317 63 -83 186 -274
235 -366 268 -502 371 -1121 297 -1779 -95 -845 -495 -1363 -1344 -1738 -321
-142 -722 -247 -1140 -298 -108 -14 -221 -18 -440 -19 -296 0 -369 5 -655 46
-663 94 -1285 399 -1738 851 -128 129 -209 242 -295 413 -98 196 -119 269
-179 625 -53 312 -55 334 -60 555 -6 274 11 469 61 718 39 190 71 287 136 417
93 184 221 338 368 440 65 45 89 68 103 100 11 25 31 47 51 58 18 9 51 37 73
62 147 165 309 269 495 318 41 11 158 57 260 102 419 186 947 322 1455 374 82
8 474 -4 595 -18z"/>
<path d="M2509 7502 c-57 -28 -86 -121 -55 -179 20 -39 79 -76 120 -75 23 0
40 11 69 43 65 73 43 148 -60 206 -38 22 -41 22 -74 5z"/>
<path d="M768 7423 c-35 -5 -88 -79 -88 -120 0 -54 90 -119 180 -130 47 -5 51
-4 86 31 34 34 36 40 32 81 -7 59 -28 88 -80 113 -49 23 -91 31 -130 25z"/>
<path d="M8889 7252 c-85 -55 -105 -120 -53 -181 23 -28 32 -31 81 -31 43 0
61 5 89 27 76 57 80 119 11 178 -49 42 -70 43 -128 7z"/>
<path d="M2739 7182 c-22 -11 -42 -33 -57 -63 -21 -43 -22 -50 -9 -81 8 -18
30 -46 51 -61 20 -15 36 -33 37 -40 0 -7 29 -37 64 -67 50 -43 70 -54 92 -52
53 7 71 20 88 66 24 62 14 107 -31 143 -19 15 -72 60 -118 100 l-84 72 -33
-17z"/>
<path d="M1250 7059 c-48 -19 -80 -59 -80 -102 0 -30 8 -48 41 -87 l40 -48
132 -4 c77 -3 137 -1 145 5 45 35 -42 154 -151 206 -79 38 -96 42 -127 30z"/>
<path d="M10006 6650 c-35 -32 -52 -75 -42 -108 11 -33 86 -86 120 -84 66 5
131 87 108 138 -14 29 -97 84 -129 84 -12 0 -38 -14 -57 -30z"/>
<path d="M1955 6516 c-34 -15 -75 -80 -75 -121 0 -38 15 -61 62 -95 56 -41
114 -41 150 -2 75 80 62 141 -46 202 -59 34 -52 33 -91 16z"/>
<path d="M9725 6249 c-55 -10 -110 -21 -122 -24 -79 -19 -67 -147 18 -191 75
-38 248 9 313 86 41 50 33 92 -28 129 -39 25 -50 25 -181 0z"/>
<path d="M9227 5926 l-98 -43 48 -35 c26 -19 61 -54 78 -79 16 -24 30 -46 32
-48 4 -6 94 68 120 98 31 36 29 72 -4 103 -25 22 -66 49 -75 48 -2 -1 -47 -20
-101 -44z"/>
<path d="M8820 5735 c-102 -55 -138 -101 -130 -170 6 -55 13 -56 115 -19 88
31 98 33 128 21 76 -32 73 19 -8 132 -14 19 -25 42 -25 52 0 25 -4 24 -80 -16z"/>
<path d="M245 5540 c-3 -5 -14 -10 -24 -10 -25 0 -81 -62 -81 -90 0 -31 35
-81 75 -108 84 -58 255 11 255 103 0 33 -35 80 -73 98 -38 19 -142 23 -152 7z"/>
<path d="M894 5492 c-54 -39 -67 -58 -67 -93 0 -32 29 -69 81 -101 28 -17 37
-18 62 -8 37 15 97 81 106 115 8 31 -15 69 -59 95 -44 27 -77 25 -123 -8z"/>
<path d="M1491 5487 c-70 -27 -93 -126 -42 -178 26 -26 36 -29 91 -29 80 0
136 29 146 74 21 93 -12 138 -103 143 -32 1 -73 -3 -92 -10z"/>
<path d="M2041 5423 c-38 -20 -71 -73 -71 -114 0 -15 11 -36 26 -50 20 -19 36
-24 79 -24 61 0 98 21 129 74 26 45 15 75 -36 100 -66 31 -89 33 -127 14z"/>
<path d="M9254 4570 c-27 -11 -72 -65 -80 -97 -8 -32 17 -87 51 -109 73 -48
196 69 155 146 -9 17 -89 71 -101 69 -2 0 -13 -4 -25 -9z"/>
<path d="M9888 4492 c-70 -25 -91 -49 -85 -94 7 -50 61 -118 93 -118 74 0 164
88 150 146 -6 24 -79 85 -100 83 -6 0 -32 -8 -58 -17z"/>
<path d="M1605 4266 c-37 -17 -82 -64 -86 -91 -5 -38 11 -92 36 -115 36 -34
83 -21 146 39 64 62 65 85 3 140 -51 45 -56 46 -99 27z"/>
<path d="M795 3928 c-92 -47 -116 -98 -73 -153 21 -27 23 -27 102 -21 76 6 83
8 114 41 52 56 41 111 -28 139 -51 20 -66 20 -115 -6z"/>
<path d="M190 3595 c-150 -71 -161 -86 -119 -173 24 -49 69 -82 113 -82 57 0
180 77 216 135 32 51 26 81 -24 131 -24 24 -50 44 -57 43 -8 0 -66 -25 -129
-54z"/>
<path d="M8735 3242 c-48 -29 -58 -48 -52 -91 8 -64 37 -111 86 -143 71 -44
117 -53 159 -31 39 20 52 47 52 104 0 68 -36 117 -117 158 -52 26 -89 27 -128
3z"/>
<path d="M1950 2959 c-76 -41 -92 -63 -86 -119 3 -35 11 -51 40 -77 40 -37 63
-40 109 -17 128 66 153 144 69 214 -45 37 -63 37 -132 -1z"/>
<path d="M3053 2582 c-23 -21 -56 -65 -74 -102 -17 -36 -44 -80 -60 -97 -41
-48 -46 -92 -18 -150 35 -70 65 -70 155 -3 149 112 179 158 175 264 -1 34 -87
126 -117 126 -10 0 -38 -17 -61 -38z"/>
<path d="M7848 2612 c-15 -2 -40 -18 -58 -38 -36 -41 -40 -89 -10 -127 11 -14
20 -33 20 -44 0 -33 40 -84 77 -100 51 -21 106 -5 123 36 22 53 28 101 19 137
-20 71 -112 144 -171 136z"/>
<path d="M9336 2569 c-10 -6 -31 -25 -47 -43 -24 -26 -29 -38 -26 -75 2 -39 8
-49 49 -84 46 -39 47 -39 108 -32 58 7 62 9 80 46 43 83 10 150 -88 184 -53
18 -52 18 -76 4z"/>
<path d="M1123 2313 c-30 -6 -71 -56 -79 -97 -20 -107 140 -141 216 -46 50 63
35 106 -47 136 -39 13 -51 14 -90 7z"/>
<path d="M4109 2267 c-30 -26 -41 -47 -58 -110 -23 -83 -21 -136 7 -192 53
-108 125 -100 190 22 65 123 62 207 -9 276 -50 46 -81 48 -130 4z"/>
<path d="M8230 2032 c-61 -61 -44 -166 33 -205 106 -54 273 64 202 143 -22 24
-158 90 -186 90 -11 0 -33 -13 -49 -28z"/>
<path d="M7090 1978 c-55 -29 -81 -64 -87 -120 -5 -44 -4 -45 49 -91 79 -67
121 -63 178 15 22 29 30 52 30 81 0 36 -6 47 -50 89 -27 26 -56 48 -63 48 -7
0 -33 -10 -57 -22z"/>
<path d="M9915 1968 c-37 -20 -75 -62 -75 -81 0 -72 54 -153 126 -186 45 -21
46 -21 82 -4 43 22 66 76 59 141 -6 53 -34 86 -102 118 -57 27 -62 28 -90 12z"/>
<path d="M868 1942 c-36 -24 -166 -150 -179 -173 -22 -42 30 -158 81 -179 41
-17 89 5 159 73 111 108 120 201 28 271 -40 31 -53 32 -89 8z"/>
<path d="M2438 1823 c-19 -3 -43 -24 -80 -71 -44 -56 -53 -76 -58 -120 -5 -42
-2 -60 15 -90 43 -76 109 -64 192 36 74 90 75 164 5 222 -20 16 -39 29 -42 29
-3 -1 -17 -4 -32 -6z"/>
<path d="M7330 1673 c-43 -15 -90 -82 -90 -127 0 -29 50 -90 91 -112 46 -23
81 -18 117 19 48 49 58 89 35 129 -30 52 -117 104 -153 91z"/>
<path d="M8640 1612 c-9 -4 -32 -20 -52 -35 -48 -37 -57 -82 -28 -142 28 -58
59 -77 118 -73 41 3 50 8 79 46 53 70 40 118 -50 183 -43 31 -44 31 -67 21z"/>
<path d="M433 1569 c-24 -12 -56 -40 -73 -62 -37 -50 -63 -135 -54 -172 9 -38
62 -59 125 -50 40 6 55 14 92 54 55 59 69 84 69 127 0 39 -17 66 -63 100 -40
29 -43 29 -96 3z"/>
<path d="M3900 1413 c-50 -9 -90 -66 -90 -127 0 -27 9 -46 36 -76 20 -22 47
-43 60 -46 31 -8 77 26 109 80 42 71 32 109 -39 151 -23 14 -45 24 -47 24 -2
-1 -15 -4 -29 -6z"/>
<path d="M5566 1350 c-94 -29 -126 -174 -55 -254 36 -41 107 -65 145 -47 50
23 72 146 38 217 -15 31 -80 95 -94 93 -3 0 -18 -5 -34 -9z"/>
<path d="M9044 1193 c-28 -31 -34 -45 -34 -83 0 -39 5 -51 33 -78 48 -47 99
-64 163 -56 45 5 57 11 79 40 24 31 25 36 14 79 -19 76 -103 135 -193 135 -20
0 -38 -11 -62 -37z"/>
<path d="M1747 1109 c-75 -38 -100 -77 -93 -141 10 -92 52 -138 107 -119 103
36 191 175 146 231 -21 27 -69 60 -86 60 -9 -1 -42 -14 -74 -31z"/>
<path d="M7629 1063 c-24 -6 -59 -76 -59 -117 0 -51 44 -79 114 -73 43 4 55
10 88 45 57 61 49 107 -22 136 -38 15 -86 19 -121 9z"/>
<path d="M5603 833 c-30 -6 -73 -59 -73 -90 0 -14 9 -37 20 -53 16 -23 30 -29
76 -35 52 -6 58 -5 84 20 16 15 34 40 40 56 16 37 -3 69 -53 93 -35 16 -51 17
-94 9z"/>
<path d="M7899 761 c-31 -31 -39 -46 -39 -75 0 -31 7 -41 50 -75 44 -35 54
-39 92 -34 63 7 65 8 88 52 36 71 21 115 -50 151 -61 31 -96 26 -141 -19z"/>
<path d="M9432 764 c-45 -38 -49 -54 -32 -116 23 -82 111 -145 175 -125 41 12
75 69 75 126 0 48 -40 101 -101 132 -53 27 -69 24 -117 -17z"/>
<path d="M3563 753 c-32 -6 -81 -70 -99 -128 -14 -47 -14 -53 8 -109 27 -71
78 -126 114 -126 56 0 117 111 118 211 0 55 -30 109 -78 138 -18 12 -35 20
-37 20 -2 -1 -14 -4 -26 -6z"/>
<path d="M1165 611 c-79 -49 -99 -101 -63 -171 22 -44 24 -45 76 -48 52 -3 55
-1 98 41 35 35 44 51 44 78 -1 38 -9 51 -58 92 -39 32 -57 33 -97 8z"/>
<path d="M5564 575 c-49 -20 -74 -71 -74 -149 0 -113 44 -166 136 -166 49 0
54 2 84 40 28 36 31 46 26 83 -10 64 -50 141 -87 169 -50 37 -52 37 -85 23z"/>
<path d="M8189 462 c-44 -22 -84 -98 -74 -141 3 -17 25 -47 50 -70 59 -54 106
-57 153 -8 78 80 55 160 -64 220 -28 15 -34 15 -65 -1z"/>
<path d="M9725 448 c-50 -27 -75 -61 -75 -101 0 -79 66 -157 134 -157 44 0
116 76 116 122 0 43 -28 81 -89 119 -50 32 -57 33 -86 17z"/>
<path d="M683 249 l-72 -39 -11 -57 c-10 -48 -10 -61 4 -89 38 -81 104 -82
190 -3 82 75 93 133 35 185 -23 21 -64 45 -71 43 -2 -1 -35 -19 -75 -40z"/>
<path d="M9940 276 c-36 -12 -80 -79 -80 -122 0 -55 87 -113 149 -99 44 10
101 77 101 119 0 63 -102 125 -170 102z"/>
<path d="M3413 233 c-31 -6 -73 -59 -73 -92 0 -49 33 -79 96 -87 51 -6 57 -4
84 21 64 61 61 109 -10 145 -38 20 -53 22 -97 13z"/>
<path d="M8410 231 c-14 -4 -34 -23 -47 -46 -39 -69 -28 -113 36 -138 51 -21
94 -8 139 41 38 42 41 80 10 110 -41 37 -85 48 -138 33z"/>
<path d="M5550 193 c-33 -6 -60 -31 -76 -70 -20 -47 -17 -71 12 -98 35 -33
118 -35 156 -5 39 30 61 83 47 114 -17 37 -89 67 -139 59z"/>
</g>
</svg>
