<?xml version="1.0" standalone="no"?>
<!DOCTYPE svg PUBLIC "-//W3C//DTD SVG 20010904//EN"
 "http://www.w3.org/TR/2001/REC-SVG-20010904/DTD/svg10.dtd">
<svg version="1.0" xmlns="http://www.w3.org/2000/svg"
 width="1024.000000pt" height="1024.000000pt" viewBox="0 0 1024.000000 1024.000000"
 preserveAspectRatio="xMidYMid meet">
<metadata>
Created by potrace 1.10, written by Peter Selinger 2001-2011
</metadata>
<g transform="translate(0.000000,1024.000000) scale(0.100000,-0.100000)"
fill="#000000" stroke="none">
<path d="M5590 8124 c-19 -2 -87 -13 -150 -24 -63 -11 -403 -70 -755 -130
l-640 -110 -169 -66 -169 -65 -381 -251 c-436 -287 -519 -350 -707 -538 -421
-421 -706 -946 -798 -1470 -147 -834 104 -1752 647 -2367 491 -555 1173 -954
2071 -1213 267 -77 584 -146 801 -175 459 -62 979 -5 1447 157 360 124 597
248 893 468 230 172 319 252 435 396 311 385 487 847 567 1494 20 161 17 691
-5 853 -82 604 -283 1132 -644 1686 -345 529 -708 866 -1208 1119 -217 110
-428 177 -680 217 -96 15 -477 28 -555 19z m499 -240 c182 -26 408 -92 532
-154 123 -62 469 -283 561 -358 138 -114 384 -362 490 -495 173 -217 235 -321
452 -754 l206 -412 65 -292 c35 -161 70 -342 77 -403 15 -147 15 -583 0 -721
-46 -404 -144 -770 -281 -1050 -207 -423 -514 -730 -956 -957 -323 -166 -621
-265 -965 -320 -131 -21 -177 -23 -485 -23 -219 0 -379 5 -450 13 -280 34
-579 92 -810 159 -714 205 -1240 501 -1727 971 -284 276 -382 422 -613 912
l-87 185 -28 185 c-16 102 -36 228 -45 280 -22 126 -31 448 -16 576 34 290
108 528 261 839 128 262 251 446 439 662 64 73 135 134 361 308 232 178 325
243 533 368 245 148 355 201 502 243 33 10 373 70 755 134 l695 117 214 2
c148 1 246 -4 320 -15z"/>
<path d="M5176 5416 c-118 -50 -180 -123 -216 -258 -56 -207 14 -361 204 -453
79 -38 119 -43 208 -24 123 26 208 96 265 215 34 71 35 76 31 176 -3 88 -7
111 -32 161 -15 32 -50 80 -78 107 -63 62 -135 91 -243 96 -69 4 -88 1 -139
-20z"/>
<path d="M6414 3600 c3 -14 9 -37 12 -52 4 -16 10 -28 15 -28 4 0 1 21 -8 48
-17 51 -30 73 -19 32z"/>
</g>
</svg>
