<?xml version="1.0" standalone="no"?>
<!DOCTYPE svg PUBLIC "-//W3C//DTD SVG 20010904//EN"
 "http://www.w3.org/TR/2001/REC-SVG-20010904/DTD/svg10.dtd">
<svg version="1.0" xmlns="http://www.w3.org/2000/svg"
 width="1024.000000pt" height="1024.000000pt" viewBox="0 0 1024.000000 1024.000000"
 preserveAspectRatio="xMidYMid meet">
<metadata>
Created by potrace 1.10, written by Peter Selinger 2001-2011
</metadata>
<g transform="translate(0.000000,1024.000000) scale(0.100000,-0.100000)"
fill="#000000" stroke="none">
<path d="M6320 8660 c-70 -15 -145 -39 -170 -53 -64 -36 -200 -82 -316 -106
-132 -27 -2107 -255 -2209 -254 -74 0 -96 6 -295 77 l-215 78 -122 -64 c-68
-34 -123 -67 -123 -71 0 -4 34 -53 76 -108 147 -195 218 -339 271 -554 16 -65
17 -237 21 -2415 2 -1640 0 -2384 -8 -2475 -13 -155 -41 -327 -75 -461 -38
-147 -95 -470 -95 -534 0 -134 36 -317 86 -440 43 -105 165 -245 256 -291 97
-49 199 -30 283 55 64 64 109 158 144 298 25 103 27 107 56 112 55 10 2364
326 2383 326 17 0 20 -11 25 -97 12 -187 59 -312 153 -408 71 -71 145 -107
239 -113 l73 -4 40 42 c66 67 117 222 164 498 l22 127 7 2875 c4 2116 9 2892
17 2939 22 119 40 172 80 234 65 101 88 207 57 267 -37 71 -251 302 -375 404
-130 107 -208 147 -283 145 -23 0 -98 -13 -167 -29z m-81 -668 c14 -10 37 -38
50 -62 57 -101 55 -59 58 -1292 l4 -1137 -33 -6 c-29 -4 -687 -94 -1853 -250
-187 -25 -387 -52 -444 -60 -58 -8 -115 -15 -128 -15 l-24 0 4 1238 c3 680 8
1255 12 1278 l7 40 1121 146 c617 81 1140 145 1161 143 22 -2 51 -12 65 -23z
m106 -3324 c-3 -183 -7 -794 -10 -1357 -3 -563 -6 -1026 -8 -1027 -3 -4 -136
-23 -1503 -214 -513 -71 -937 -130 -943 -130 -8 0 -11 367 -11 1369 l0 1370
53 6 c28 4 570 76 1202 160 633 84 1167 153 1187 154 l38 1 -5 -332z"/>
</g>
</svg>
