<?xml version="1.0" standalone="no"?>
<!DOCTYPE svg PUBLIC "-//W3C//DTD SVG 20010904//EN"
 "http://www.w3.org/TR/2001/REC-SVG-20010904/DTD/svg10.dtd">
<svg version="1.0" xmlns="http://www.w3.org/2000/svg"
 width="1024.000000pt" height="1024.000000pt" viewBox="0 0 1024.000000 1024.000000"
 preserveAspectRatio="xMidYMid meet">
<metadata>
Created by potrace 1.10, written by Peter Selinger 2001-2011
</metadata>
<g transform="translate(0.000000,1024.000000) scale(0.100000,-0.100000)"
fill="#000000" stroke="none">
<path d="M7035 8423 c-93 -11 -178 -34 -440 -120 -376 -123 -732 -224 -1130
-323 -470 -116 -686 -160 -1224 -250 l-484 -81 -94 22 c-75 17 -110 32 -178
75 -72 46 -88 52 -109 44 -51 -19 -70 -113 -41 -201 15 -46 35 -71 125 -160
87 -87 121 -113 181 -142 73 -34 154 -57 206 -57 15 0 233 61 485 136 253 74
465 134 472 132 21 -5 101 -104 134 -166 46 -86 80 -215 92 -354 8 -85 10
-543 8 -1479 l-3 -1357 -489 349 c-269 192 -498 354 -509 362 -19 12 -15 26
127 500 80 267 146 496 146 507 0 63 -101 172 -245 266 -108 69 -137 83 -303
140 l-144 49 -24 -30 c-62 -74 -63 -66 6 -156 125 -167 156 -259 147 -443 -7
-142 -32 -261 -117 -562 -176 -627 -290 -953 -433 -1239 -272 -547 -609 -962
-1127 -1391 -65 -55 -119 -101 -119 -104 0 -3 8 -16 19 -30 l19 -25 76 39
c169 86 488 287 635 399 182 140 406 354 543 519 271 328 493 726 632 1136 44
128 82 231 86 230 30 -12 747 -674 1049 -969 632 -617 1049 -1002 1536 -1419
392 -337 455 -379 582 -387 39 -3 305 17 627 47 l560 51 87 55 c49 31 88 57
88 60 0 17 -149 96 -277 148 -429 174 -799 344 -1157 533 -169 89 -278 159
-691 441 -269 184 -539 369 -600 410 -60 41 -138 95 -172 119 l-63 44 0 949 0
950 23 5 c38 9 1246 203 1513 244 109 16 174 65 174 130 0 71 -117 199 -235
256 -100 49 -117 47 -335 -44 l-195 -80 -461 -86 c-253 -47 -466 -85 -472 -85
-9 0 -12 168 -12 670 0 577 -2 675 -15 700 -27 52 -142 120 -265 156 -41 12
-68 25 -60 27 8 3 368 83 800 177 592 129 790 169 806 161 26 -11 54 -69 54
-109 0 -58 -200 -325 -456 -610 -71 -79 -151 -168 -178 -198 -40 -45 -46 -57
-36 -69 7 -8 18 -15 24 -15 9 0 557 287 861 451 99 53 270 118 470 179 175 53
247 86 266 121 14 27 -12 77 -96 184 -168 215 -246 292 -444 437 -104 76 -190
137 -192 137 -2 -1 -17 -4 -34 -6z"/>
</g>
</svg>
