<?xml version="1.0" standalone="no"?>
<!DOCTYPE svg PUBLIC "-//W3C//DTD SVG 20010904//EN"
 "http://www.w3.org/TR/2001/REC-SVG-20010904/DTD/svg10.dtd">
<svg version="1.0" xmlns="http://www.w3.org/2000/svg"
 width="1024.000000pt" height="1024.000000pt" viewBox="0 0 1024.000000 1024.000000"
 preserveAspectRatio="xMidYMid meet">
<metadata>
Created by potrace 1.10, written by Peter Selinger 2001-2011
</metadata>
<g transform="translate(0.000000,1024.000000) scale(0.100000,-0.100000)"
fill="#000000" stroke="none">
<path d="M4930 8976 c-476 -56 -920 -230 -1239 -486 -165 -134 -294 -296 -394
-495 -111 -221 -140 -383 -101 -558 22 -93 39 -132 112 -251 67 -108 285 -357
356 -405 52 -36 171 -78 351 -125 212 -54 353 -75 659 -96 153 -11 281 -22
283 -24 2 -2 -2 -28 -10 -57 -11 -45 -12 -150 -4 -619 7 -441 6 -627 -4 -845
-9 -186 -12 -421 -9 -700 11 -977 3 -1217 -56 -1675 -14 -107 -28 -219 -31
-247 -3 -29 -9 -53 -12 -53 -10 0 -330 48 -391 59 -430 75 -914 206 -1040 281
-113 67 -218 193 -281 335 -87 201 -120 381 -118 650 1 185 -8 309 -32 425
-48 226 -61 349 -66 623 -7 325 4 454 59 717 53 252 57 314 28 374 -30 64 -79
104 -118 98 -16 -2 -41 -16 -55 -31 -21 -23 -28 -49 -51 -211 -14 -102 -35
-243 -46 -315 -52 -354 -54 -761 -4 -1125 18 -136 37 -326 74 -747 19 -208 38
-372 50 -417 65 -255 245 -468 509 -601 165 -83 422 -162 601 -185 193 -25
2038 -342 2130 -366 379 -100 853 -413 1205 -795 39 -42 108 -118 154 -168
114 -126 182 -158 229 -108 25 27 41 92 31 128 -9 34 -448 549 -520 610 -298
253 -664 441 -1104 568 -227 65 -401 99 -694 137 -151 19 -278 38 -281 40 -3
3 -5 110 -5 237 0 166 5 268 17 357 33 232 39 334 45 736 l6 401 326 8 325 7
202 78 c112 43 218 86 236 96 82 42 206 133 288 210 72 69 101 107 159 204 68
117 71 124 125 339 66 261 125 552 161 791 14 96 44 273 66 393 46 246 44 289
-11 366 -41 56 -72 74 -110 66 -57 -13 -62 -31 -129 -507 -34 -244 -69 -468
-76 -498 -8 -30 -19 -100 -25 -155 -6 -55 -33 -201 -61 -325 -65 -290 -91
-341 -241 -486 -197 -189 -422 -309 -693 -369 -100 -22 -459 -38 -504 -22
l-34 12 7 210 c3 116 11 320 17 455 15 319 6 902 -16 1120 -16 155 -16 198 1
367 4 37 2 75 -5 94 -6 18 -9 34 -6 37 3 3 159 29 347 58 365 55 413 65 578
121 148 50 275 105 420 181 263 138 403 279 516 516 156 329 93 651 -186 949
-84 89 -186 169 -295 229 -44 25 -123 75 -175 111 -167 117 -487 222 -820 267
-125 18 -491 21 -620 6z m558 -226 c342 -37 718 -169 971 -343 227 -156 387
-382 437 -617 12 -57 11 -73 -2 -125 -48 -185 -154 -338 -309 -450 -176 -126
-597 -294 -925 -370 -271 -62 -354 -70 -750 -69 l-365 1 -349 66 c-297 56
-355 70 -390 93 -70 46 -201 185 -261 278 -135 207 -158 346 -94 561 67 224
187 383 416 554 309 230 645 364 1043 415 128 17 446 20 578 6z"/>
<path d="M9515 851 c-17 -7 -16 -9 10 -15 17 -4 38 -9 48 -12 12 -4 17 0 17
15 0 16 -6 21 -27 20 -16 0 -37 -4 -48 -8z"/>
</g>
</svg>
