<?xml version="1.0" standalone="no"?>
<!DOCTYPE svg PUBLIC "-//W3C//DTD SVG 20010904//EN"
 "http://www.w3.org/TR/2001/REC-SVG-20010904/DTD/svg10.dtd">
<svg version="1.0" xmlns="http://www.w3.org/2000/svg"
 width="1024.000000pt" height="1024.000000pt" viewBox="0 0 1024.000000 1024.000000"
 preserveAspectRatio="xMidYMid meet">
<metadata>
Created by potrace 1.10, written by Peter Selinger 2001-2011
</metadata>
<g transform="translate(0.000000,1024.000000) scale(0.100000,-0.100000)"
fill="#000000" stroke="none">
<path d="M5479 8801 c-73 -28 -151 -86 -227 -165 -181 -191 -270 -396 -279
-647 -6 -144 10 -246 57 -366 20 -52 24 -75 16 -81 -6 -5 -54 -32 -106 -61
-52 -28 -134 -81 -181 -116 -110 -82 -301 -262 -414 -390 -48 -55 -104 -116
-124 -136 -20 -20 -67 -73 -106 -118 -38 -46 -112 -119 -163 -163 -119 -104
-262 -303 -433 -600 -68 -117 -133 -226 -145 -243 -12 -16 -27 -48 -33 -71 -6
-22 -53 -151 -104 -286 l-94 -246 -259 -428 -258 -429 -240 -289 c-235 -284
-242 -291 -427 -445 l-188 -157 -265 -102 c-145 -56 -274 -102 -287 -102 -13
0 -40 -3 -61 -6 -30 -5 -37 -11 -40 -34 -4 -26 4 -34 78 -89 100 -72 2080
-1192 2097 -1185 7 2 165 -66 352 -151 289 -132 344 -154 372 -149 18 3 36 11
39 16 4 5 47 29 98 53 55 26 213 126 401 254 337 229 555 406 707 574 73 80
285 364 315 422 6 11 117 279 247 595 131 316 257 616 282 665 48 95 172 285
226 347 18 20 393 366 833 768 919 840 967 880 1306 1062 156 84 212 120 221
139 7 16 35 38 73 57 169 88 311 263 371 457 26 84 27 308 1 381 -41 119 -110
186 -227 221 -30 9 -68 26 -85 38 -16 12 -48 28 -70 36 -47 16 -1511 615
-1695 694 -232 99 -439 162 -705 215 -199 40 -447 125 -625 215 -71 36 -157
65 -190 64 -8 0 -36 -8 -61 -18z m190 -175 c49 -38 79 -50 231 -96 96 -29 181
-56 188 -60 9 -4 3 -14 -22 -31 -46 -32 -366 -393 -366 -413 0 -9 -33 -83 -74
-164 -45 -90 -78 -170 -85 -207 -7 -33 -19 -92 -28 -132 l-16 -71 -132 45
c-97 33 -136 51 -144 67 -28 53 -92 267 -101 340 -23 173 20 340 132 506 112
166 168 217 271 245 77 21 86 19 146 -29z m1786 -627 c306 -127 364 -154 342
-160 -81 -22 -218 -140 -321 -277 -55 -73 -125 -201 -160 -292 -13 -36 -38
-93 -54 -128 -17 -35 -38 -95 -47 -135 -10 -40 -19 -73 -20 -75 -3 -3 -722
204 -747 215 -14 7 -7 32 56 205 40 109 88 226 106 260 37 70 110 188 116 188
2 0 1 -12 -2 -28 -4 -19 0 -32 13 -44 19 -17 114 -48 147 -48 47 0 101 24 142
62 37 34 44 46 44 79 0 21 -6 41 -12 46 -7 4 -47 17 -88 29 l-75 21 -59 -29
c-32 -16 -60 -27 -63 -24 -10 9 287 298 300 293 7 -3 179 -74 382 -158z
m-1292 86 c1 -5 -6 -11 -15 -13 -11 -2 -18 3 -18 13 0 17 30 18 33 0z m12
-274 c3 -5 1 -12 -5 -16 -5 -3 -10 1 -10 9 0 18 6 21 15 7z m775 -1 c11 -7 -1
-10 -40 -9 -40 0 -49 3 -35 9 27 12 57 12 75 0z m-1048 -637 c192 -65 348
-121 348 -124 0 -3 -121 -123 -268 -266 l-268 -261 -374 119 c-206 66 -375
121 -377 122 -9 10 137 148 342 322 132 112 242 204 245 205 3 0 161 -53 352
-117z m-1500 -419 c17 -9 63 -20 102 -25 90 -12 206 -40 206 -51 0 -5 -84
-135 -186 -291 -131 -199 -211 -332 -271 -452 -47 -93 -87 -172 -88 -174 -3
-3 -490 156 -507 166 -24 13 60 121 357 463 182 209 336 379 343 380 7 0 27
-7 44 -16z m3268 -94 c184 -44 344 -85 355 -90 11 -5 46 -10 77 -13 37 -2 65
-10 77 -21 11 -10 25 -15 30 -11 6 3 32 -12 59 -34 26 -22 62 -46 81 -54 l33
-14 -64 -36 c-118 -66 -251 -158 -484 -337 -193 -148 -235 -176 -245 -164 -6
7 -192 73 -413 146 -220 72 -403 133 -404 134 -2 1 105 110 238 241 161 158
252 256 272 290 16 29 35 50 41 48 7 -3 163 -41 347 -85z m-1544 -430 c192
-66 353 -121 357 -123 4 -1 -83 -90 -195 -196 -193 -185 -210 -204 -340 -388
-75 -106 -153 -222 -173 -258 -20 -36 -40 -65 -43 -65 -14 0 -597 203 -606
210 -13 12 122 282 197 395 37 55 67 95 67 89 0 -6 12 -28 26 -49 18 -27 22
-41 15 -48 -15 -15 -14 -60 1 -75 7 -7 40 -12 80 -12 l67 0 3 -67 3 -68 93
-13 93 -14 38 25 c51 34 84 102 79 162 -2 25 0 45 3 45 4 0 23 -7 43 -15 30
-13 47 -13 107 -3 116 19 149 61 114 145 -8 19 -15 43 -15 53 0 31 -38 67 -81
78 -36 9 -48 8 -79 -8 l-37 -19 1 58 c2 86 -15 101 -113 100 -42 0 -94 1 -115
3 l-40 3 -18 -70 c-10 -40 -16 -84 -12 -103 l5 -34 -104 4 -105 3 31 40 c126
162 196 246 241 287 28 26 54 48 57 48 3 0 163 -54 355 -120z m-280 -188 c-18
-16 -18 -16 -6 6 6 13 14 21 18 18 3 -4 -2 -14 -12 -24z m-66 -87 c-7 -8 -19
-15 -26 -15 -8 0 -14 7 -14 15 0 10 10 15 26 15 22 0 25 -2 14 -15z m177 -92
c-3 -3 -11 -2 -17 2 -8 5 -7 11 2 22 12 15 13 14 16 -1 2 -10 1 -20 -1 -23z
m-391 -68 c-11 -8 -22 -12 -25 -9 -6 6 19 24 34 24 6 -1 1 -7 -9 -15z m-974
-344 l306 -102 -20 -47 c-77 -175 -241 -508 -331 -669 -59 -105 -107 -199
-107 -207 0 -9 -4 -16 -8 -16 -10 0 -622 236 -628 243 -2 2 19 44 47 92 64
109 198 395 289 615 97 238 88 222 119 206 14 -7 164 -59 333 -115z m1556
-523 c180 -56 329 -103 331 -105 3 -2 -58 -67 -135 -146 -78 -78 -168 -178
-201 -222 -71 -95 -171 -259 -180 -295 -11 -45 -74 -170 -86 -170 -28 0 -607
146 -607 153 0 4 35 58 78 120 44 62 159 254 257 427 190 335 192 340 207 340
5 0 156 -46 336 -102z m-2775 -240 c122 -56 224 -103 225 -104 2 -1 -14 -26
-36 -56 -22 -29 -70 -107 -107 -173 -63 -111 -364 -557 -385 -570 -7 -5 -481
139 -499 151 -2 2 23 36 56 76 74 91 422 607 459 679 30 61 54 99 61 99 3 0
104 -46 226 -102z m1397 -543 c134 -47 245 -87 246 -88 3 -2 -543 -658 -571
-686 -12 -12 -46 -5 -242 54 -125 37 -232 71 -237 75 -10 10 532 730 549 730
6 0 121 -38 255 -85z m-1361 -630 c150 -46 275 -86 277 -88 2 -1 -76 -82 -174
-179 l-177 -176 -205 84 c-113 47 -233 93 -267 102 l-62 17 152 163 c84 89
159 162 167 162 8 0 138 -38 289 -85z m-1126 -206 c125 -46 227 -86 226 -89
-1 -12 -273 -234 -323 -264 -30 -18 -86 -43 -125 -55 -52 -17 -78 -31 -102
-58 l-31 -36 -249 123 c-137 69 -245 127 -241 131 4 3 43 19 87 34 171 60 351
162 465 264 25 22 50 39 55 37 6 -1 112 -40 238 -87z m2569 -203 c292 -68 385
-94 476 -132 l112 -47 -23 -31 c-13 -17 -88 -116 -166 -221 -78 -104 -146
-191 -150 -193 -11 -4 -934 268 -945 279 -5 4 42 72 105 151 62 79 137 173
166 211 30 37 56 67 58 67 2 0 167 -38 367 -84z m-1224 -307 c128 -49 239 -92
247 -96 18 -11 -500 -544 -583 -601 -93 -64 -104 -61 -388 97 -131 73 -243
137 -247 141 -5 4 16 22 45 41 29 19 190 143 357 277 207 165 310 241 320 237
9 -4 121 -47 249 -96z"/>
<path d="M5209 8198 c-78 -83 -89 -113 -54 -143 15 -13 25 -31 25 -47 0 -34 5
-37 87 -47 58 -7 72 -6 98 9 44 27 82 70 99 112 20 47 21 141 2 157 -11 9
-127 30 -176 31 -8 0 -45 -32 -81 -72z m191 -34 c0 -3 -12 -20 -26 -38 l-27
-33 -28 32 c-16 18 -29 35 -29 39 0 3 25 6 55 6 30 0 55 -2 55 -6z"/>
<path d="M6741 7617 c-77 -28 -101 -55 -79 -89 13 -20 35 -26 149 -46 74 -12
143 -22 155 -22 31 0 54 31 54 72 0 29 -7 42 -35 67 -20 17 -46 31 -58 31 -12
0 -44 2 -72 5 -36 3 -68 -2 -114 -18z m158 -83 c2 -2 -7 -4 -22 -4 -14 0 -29
5 -32 10 -6 10 42 4 54 -6z"/>
<path d="M5924 4749 c-3 -6 -10 -52 -14 -103 -4 -54 -16 -112 -29 -144 -11
-29 -21 -69 -21 -88 0 -25 -10 -49 -35 -81 -26 -34 -35 -56 -35 -84 0 -22 1
-39 3 -39 1 0 16 -4 34 -9 31 -9 31 -9 65 62 59 122 75 183 87 331 9 104 9
141 0 152 -14 17 -45 18 -55 3z"/>
<path d="M6080 4691 c-5 -11 -10 -42 -10 -69 0 -91 66 -108 91 -23 11 36 10
42 -16 75 -31 40 -49 45 -65 17z"/>
<path d="M3093 4468 c-4 -7 -8 -85 -9 -173 -1 -140 -10 -224 -30 -287 -5 -15
1 -18 40 -18 39 0 46 3 51 23 29 128 55 270 55 305 0 91 -76 198 -107 150z"/>
<path d="M3271 4393 c-5 -10 -12 -48 -16 -84 l-7 -66 38 -8 c46 -8 71 14 51
45 -8 14 -8 28 0 54 9 31 8 37 -11 55 -27 26 -42 26 -55 4z"/>
<path d="M4557 3813 c-3 -5 -5 -20 -5 -35 0 -15 -10 -57 -23 -93 -22 -64 -22
-65 -4 -79 24 -17 41 -9 84 39 39 45 45 105 14 152 -15 22 -57 32 -66 16z"/>
</g>
</svg>
