<?xml version="1.0" standalone="no"?>
<!DOCTYPE svg PUBLIC "-//W3C//DTD SVG 20010904//EN"
 "http://www.w3.org/TR/2001/REC-SVG-20010904/DTD/svg10.dtd">
<svg version="1.0" xmlns="http://www.w3.org/2000/svg"
 width="1024.000000pt" height="1024.000000pt" viewBox="0 0 1024.000000 1024.000000"
 preserveAspectRatio="xMidYMid meet">
<metadata>
Created by potrace 1.10, written by Peter Selinger 2001-2011
</metadata>
<g transform="translate(0.000000,1024.000000) scale(0.100000,-0.100000)"
fill="#000000" stroke="none">
<path d="M5703 8213 l-72 -26 26 -33 c13 -18 47 -50 75 -71 93 -71 164 -188
188 -313 9 -46 -29 -1112 -40 -1130 -5 -8 -1440 -153 -1447 -146 -2 2 -7 265
-12 585 l-8 581 -26 39 c-36 54 -98 81 -309 135 l-176 46 -60 -28 -59 -28 83
-86 c67 -69 91 -103 127 -179 67 -140 78 -202 88 -504 4 -143 8 -335 8 -427
l1 -167 -32 -6 c-18 -3 -303 -39 -633 -80 l-599 -76 -27 20 c-35 26 -278 141
-298 141 -9 0 -49 -12 -89 -27 -71 -27 -72 -28 -66 -58 3 -16 21 -57 39 -90
36 -65 83 -212 109 -340 47 -234 123 -1123 241 -2820 36 -512 81 -669 184
-650 20 4 48 16 64 27 35 25 73 104 82 170 7 44 10 48 39 52 17 3 236 19 486
36 250 17 939 64 1530 105 591 41 1239 86 1440 99 201 14 398 28 439 32 l73 6
-6 -39 c-13 -75 40 -172 122 -224 99 -63 170 -24 247 135 24 50 53 119 64 152
60 182 146 817 236 1749 19 204 44 465 56 580 35 369 90 683 143 828 34 92 60
220 52 253 -9 35 -182 208 -281 282 -38 29 -99 67 -134 84 l-63 32 -82 -18
c-155 -34 -473 -76 -809 -107 -186 -17 -340 -29 -342 -27 -4 4 87 884 116
1126 l23 182 -21 28 c-33 45 -131 86 -376 156 -128 36 -234 66 -237 65 -3 0
-37 -12 -77 -26z m1707 -1809 c19 -11 43 -34 53 -52 19 -32 19 -38 -23 -630
-24 -328 -43 -598 -44 -598 -3 -4 -1260 -84 -1263 -80 -4 3 106 1329 110 1331
8 6 961 53 1037 51 75 -1 103 -6 130 -22z m-1560 -99 c0 -46 -70 -1299 -73
-1301 -1 -1 -146 -16 -322 -34 -176 -17 -473 -46 -660 -65 -187 -18 -341 -32
-342 -32 -3 4 -25 1309 -21 1312 5 5 1320 152 1376 154 42 1 42 1 42 -34z
m-1746 -307 c10 -254 28 -1149 24 -1153 -6 -6 -1147 -130 -1151 -125 -5 5 -78
1283 -74 1286 1 1 268 35 592 77 325 41 593 75 596 76 4 1 10 -72 13 -161z
m3266 -1153 c0 -38 -68 -780 -85 -928 -22 -187 -51 -384 -76 -514 l-22 -112
-51 -5 c-78 -8 -1127 -59 -1130 -55 -1 2 7 144 20 314 12 171 36 517 54 770
18 253 34 462 36 464 5 5 1120 88 1207 90 44 1 47 -1 47 -24z m-1610 -117 c0
-18 -20 -355 -45 -748 -25 -393 -45 -729 -45 -745 l0 -31 -562 -37 c-310 -21
-579 -40 -599 -43 l-36 -5 -7 523 c-3 288 -9 627 -12 753 l-7 231 634 66 c349
36 644 66 657 67 18 1 22 -4 22 -31z m-1626 -320 c11 -320 28 -1299 23 -1304
-5 -5 -1089 -106 -1092 -102 -3 4 -84 1452 -82 1454 1 1 101 14 222 29 121 14
362 44 535 65 173 21 331 38 351 39 l37 1 6 -182z"/>
</g>
</svg>
