<?xml version="1.0" standalone="no"?>
<!DOCTYPE svg PUBLIC "-//W3C//DTD SVG 20010904//EN"
 "http://www.w3.org/TR/2001/REC-SVG-20010904/DTD/svg10.dtd">
<svg version="1.0" xmlns="http://www.w3.org/2000/svg"
 width="1024.000000pt" height="1024.000000pt" viewBox="0 0 1024.000000 1024.000000"
 preserveAspectRatio="xMidYMid meet">
<metadata>
Created by potrace 1.10, written by Peter Selinger 2001-2011
</metadata>
<g transform="translate(0.000000,1024.000000) scale(0.100000,-0.100000)"
fill="#000000" stroke="none">
<path d="M7739 8380 c-9 -5 -30 -40 -48 -79 l-32 -69 -39 -604 c-36 -565 -40
-672 -60 -1683 -12 -594 -23 -1081 -24 -1082 -2 -2 -142 6 -312 18 -340 22
-407 35 -528 95 -234 117 -465 400 -560 684 -48 146 -81 356 -97 616 -19 329
15 1199 62 1554 27 210 14 282 -65 359 -30 29 -38 32 -70 26 -48 -9 -57 -29
-89 -185 -26 -121 -27 -147 -47 -870 -11 -410 -20 -804 -20 -875 0 -250 48
-537 124 -743 51 -138 59 -155 145 -292 83 -133 135 -202 203 -266 115 -109
191 -154 391 -231 l142 -54 355 -30 c195 -17 356 -32 358 -34 5 -5 -106 -1167
-111 -1171 -1 -1 -317 -29 -702 -63 -385 -34 -871 -78 -1080 -97 l-380 -34
-771 0 c-441 0 -827 4 -905 10 -267 21 -526 62 -754 120 -66 16 -130 30 -142
30 -15 0 -24 7 -28 22 -2 13 -32 257 -65 543 -34 286 -72 603 -85 705 -33 250
-62 552 -76 800 -16 293 -3 1132 30 1875 27 601 27 611 51 651 22 37 23 44 10
74 -16 38 -83 90 -117 90 -43 0 -78 -48 -111 -151 -16 -52 -33 -116 -36 -144
-4 -27 -15 -277 -26 -555 -11 -278 -27 -575 -35 -660 -21 -208 -30 -751 -17
-965 6 -93 25 -298 41 -455 17 -157 62 -591 101 -965 92 -887 113 -1027 205
-1395 108 -429 220 -719 355 -922 323 -482 896 -840 1490 -932 147 -23 199
-25 760 -41 824 -23 924 -21 1185 26 113 20 339 79 410 107 167 64 424 363
553 642 72 156 101 261 197 735 l96 470 90 855 c50 470 94 925 99 1010 5 85
16 571 24 1080 19 1110 31 1497 51 1690 24 232 53 430 75 507 37 135 21 211
-53 246 -38 19 -93 22 -118 7z m-420 -5552 c-32 -211 -72 -441 -89 -513 -71
-292 -214 -592 -397 -835 l-63 -84 -101 -38 -101 -38 -1046 -30 c-975 -29
-1053 -30 -1139 -15 -222 37 -442 110 -648 214 -328 166 -573 437 -784 866
-123 249 -205 504 -255 781 l-5 32 39 -9 c21 -5 310 -34 642 -64 l603 -56 615
7 615 7 1050 77 c578 43 1066 78 1086 79 l35 1 -57 -382z"/>
<path d="M6292 3850 c0 -8 6 -31 13 -50 7 -19 13 -28 13 -20 0 8 -6 31 -13 50
-7 19 -13 28 -13 20z"/>
</g>
</svg>
