<?xml version="1.0" standalone="no"?>
<!DOCTYPE svg PUBLIC "-//W3C//DTD SVG 20010904//EN"
 "http://www.w3.org/TR/2001/REC-SVG-20010904/DTD/svg10.dtd">
<svg version="1.0" xmlns="http://www.w3.org/2000/svg"
 width="1024.000000pt" height="1024.000000pt" viewBox="0 0 1024.000000 1024.000000"
 preserveAspectRatio="xMidYMid meet">
<metadata>
Created by potrace 1.10, written by Peter Selinger 2001-2011
</metadata>
<g transform="translate(0.000000,1024.000000) scale(0.100000,-0.100000)"
fill="#000000" stroke="none">
<path d="M5520 7178 c-498 -196 -537 -208 -679 -208 -184 0 -298 46 -442 178
-99 91 -135 115 -208 136 -108 32 -208 17 -456 -64 -195 -65 -348 -149 -775
-425 -370 -239 -414 -271 -684 -493 -160 -130 -337 -277 -395 -327 -254 -216
-611 -486 -909 -690 -106 -71 -177 -126 -182 -140 -5 -13 -6 -45 -1 -72 6 -41
52 -113 324 -508 174 -253 356 -507 404 -565 49 -57 187 -204 308 -326 382
-383 688 -626 1005 -797 105 -56 597 -289 742 -350 325 -139 745 -259 1093
-313 108 -16 124 -16 740 15 627 31 631 31 740 62 601 167 1189 449 1769 848
121 83 236 185 871 768 659 604 742 684 834 800 98 122 102 130 98 169 -6 61
-28 97 -70 118 -40 19 -49 33 -68 105 -13 52 -62 106 -105 117 -16 4 -78 51
-139 104 -97 85 -957 732 -1355 1018 -185 133 -501 342 -700 463 -85 51 -192
122 -237 157 -288 219 -632 353 -947 368 -56 3 -117 6 -136 8 -27 3 -133 -35
-440 -156z m702 -102 c116 -22 176 -48 464 -194 l271 -138 1056 -744 c581
-409 1055 -745 1054 -746 -1 -1 -472 81 -1047 181 l-1045 184 -535 171 c-461
147 -543 176 -592 211 -31 21 -63 39 -70 39 -7 0 12 17 42 37 103 69 199 181
263 309 51 101 45 170 -21 224 -42 35 -83 39 -111 11 -11 -11 -48 -61 -82
-113 -34 -51 -92 -136 -129 -188 -37 -52 -73 -112 -79 -132 -17 -50 -1 -97 45
-138 19 -16 30 -30 23 -30 -6 0 -68 -27 -138 -61 -69 -34 -147 -67 -173 -74
-40 -11 -141 -9 -628 10 -556 22 -582 23 -603 43 -41 38 -115 54 -155 33 -9
-5 -37 -15 -62 -21 -25 -7 -223 -92 -441 -191 l-396 -178 -399 -105 -399 -105
-513 -76 c-282 -42 -518 -75 -524 -73 -12 4 1962 1508 2081 1586 162 107 402
203 622 248 l119 25 83 -72 c157 -137 286 -202 487 -245 130 -28 326 -24 451
9 124 32 223 74 340 143 226 133 350 171 556 173 61 1 144 -5 185 -13z m-188
-1396 c376 -154 686 -250 1081 -335 278 -59 1948 -345 2083 -356 120 -9 128
-11 149 -37 12 -15 22 -31 22 -37 1 -5 -314 -185 -700 -398 l-700 -388 -252
97 c-268 103 -321 120 -517 159 -261 51 -508 75 -788 75 -159 0 -183 -2 -292
-30 -66 -17 -193 -55 -282 -84 -258 -86 -341 -101 -543 -99 l-170 2 -179 76
-179 75 -168 0 -168 0 -433 -163 c-351 -132 -492 -180 -744 -251 l-311 -88
-159 76 c-512 243 -717 375 -1025 655 -137 124 -282 241 -402 325 l-89 61 154
6 c117 4 255 21 588 73 l435 67 725 251 c662 229 731 255 798 300 43 29 81 48
90 45 10 -3 60 -24 112 -47 162 -72 393 -120 570 -120 41 0 172 9 290 19 179
16 226 23 283 45 49 19 86 26 136 26 84 0 176 27 251 74 30 19 57 34 60 35 3
1 126 -48 274 -109z m-4364 -1276 c218 -173 323 -248 505 -362 774 -485 1612
-734 2665 -792 623 -34 1282 31 1940 192 349 85 598 170 935 318 110 49 217
91 238 95 22 3 54 20 75 39 27 24 1021 594 1087 623 6 3 -123 -127 -285 -289
l-295 -293 -470 -364 c-259 -201 -519 -397 -580 -437 -279 -183 -531 -310
-900 -455 -376 -147 -570 -202 -880 -250 -198 -30 -638 -38 -845 -15 -198 23
-409 66 -635 131 -187 53 -481 164 -439 165 25 0 81 60 95 99 7 17 45 49 117
96 123 80 152 117 130 162 -7 16 -33 39 -60 53 l-47 24 -69 -22 c-149 -48
-282 -192 -282 -306 0 -27 8 -41 38 -67 20 -18 30 -30 22 -27 -568 222 -770
319 -1058 509 -270 179 -517 400 -815 729 -226 249 -572 693 -592 759 -6 20 6
13 61 -36 38 -33 193 -159 344 -279z m5132 -195 c187 -19 465 -78 686 -145
116 -35 215 -64 220 -65 42 -3 -832 -298 -1033 -348 -275 -68 -608 -120 -905
-141 -80 -5 -387 -10 -682 -10 -536 0 -538 0 -785 30 -228 28 -276 37 -590
118 -189 48 -343 89 -343 92 0 3 170 75 378 159 207 85 418 174 467 198 132
63 237 87 355 80 113 -6 190 -32 318 -105 139 -79 204 -97 347 -96 130 1 160
8 395 94 182 66 462 129 640 143 105 8 437 6 532 -4z"/>
<path d="M3973 6677 c-26 -8 -36 -21 -61 -76 -45 -98 -55 -145 -55 -256 -1
-113 19 -188 58 -225 21 -19 32 -22 76 -18 70 7 79 22 79 123 0 44 7 105 15
135 34 126 37 149 25 199 -11 47 -52 102 -89 120 -9 4 -30 3 -48 -2z"/>
<path d="M4555 6504 c-81 -42 -110 -114 -103 -253 6 -123 26 -162 121 -234 73
-56 78 -59 119 -52 52 9 101 43 118 84 16 40 -3 71 -65 109 -52 32 -70 67 -61
119 23 140 13 176 -60 219 -37 22 -41 22 -69 8z"/>
<path d="M6710 3301 c-14 -4 -35 -22 -48 -41 -23 -33 -24 -41 -20 -170 3 -101
8 -143 21 -166 20 -38 83 -90 120 -99 85 -22 139 213 80 346 -18 38 -108 141
-123 138 -3 -1 -16 -4 -30 -8z"/>
<path d="M6252 3142 l-43 -37 11 -75 c18 -132 37 -180 88 -232 42 -44 51 -48
92 -48 37 0 51 5 71 26 21 22 24 34 22 92 -2 112 -49 215 -127 284 -42 37 -63
35 -114 -10z"/>
<path d="M4531 3110 c-42 -10 -118 -84 -172 -167 -50 -77 -90 -198 -92 -280
-2 -52 2 -65 22 -87 31 -33 73 -42 104 -21 14 9 67 81 118 161 52 79 108 165
124 191 22 34 30 58 30 91 0 40 -4 48 -44 83 -24 22 -46 39 -50 38 -3 -1 -21
-5 -40 -9z"/>
<path d="M4894 3023 c-69 -13 -92 -115 -43 -189 22 -33 28 -54 33 -134 6 -80
12 -103 39 -152 46 -83 122 -114 166 -67 41 44 53 197 25 304 -20 78 -52 132
-116 195 -49 48 -58 52 -104 43z"/>
</g>
</svg>
