<?xml version="1.0" standalone="no"?>
<!DOCTYPE svg PUBLIC "-//W3C//DTD SVG 20010904//EN"
 "http://www.w3.org/TR/2001/REC-SVG-20010904/DTD/svg10.dtd">
<svg version="1.0" xmlns="http://www.w3.org/2000/svg"
 width="1024.000000pt" height="1024.000000pt" viewBox="0 0 1024.000000 1024.000000"
 preserveAspectRatio="xMidYMid meet">
<metadata>
Created by potrace 1.10, written by Peter Selinger 2001-2011
</metadata>
<g transform="translate(0.000000,1024.000000) scale(0.100000,-0.100000)"
fill="#000000" stroke="none">
<path d="M5830 8851 c-26 -13 -40 -31 -54 -67 -17 -45 -18 -79 -14 -465 l4
-415 -106 -39 c-543 -198 -1230 -595 -1815 -1049 -684 -530 -1175 -1040 -1562
-1621 -448 -671 -708 -1389 -803 -2210 -36 -314 -36 -457 -1 -925 34 -455 56
-620 101 -747 17 -47 30 -97 30 -111 1 -45 35 -106 85 -150 100 -88 248 -109
308 -42 31 35 30 48 -10 118 -24 43 -106 115 -143 127 -13 4 -20 15 -20 33 0
15 -10 43 -22 62 -16 28 -31 104 -69 360 -27 179 -54 377 -60 440 -15 150 -15
496 0 635 50 464 187 1032 348 1444 53 137 172 386 245 515 131 232 385 593
585 832 364 433 902 916 1433 1286 87 60 1089 667 1165 706 355 178 828 301
1230 318 235 11 396 -38 532 -160 53 -49 60 -59 71 -114 12 -57 11 -63 -19
-148 -63 -178 -153 -324 -317 -514 -238 -276 -537 -528 -837 -707 -101 -60
-221 -103 -287 -103 -49 0 -119 -39 -143 -80 -19 -33 -20 -52 -20 -285 0 -200
4 -267 18 -335 19 -93 142 -466 162 -490 7 -8 64 -108 128 -221 64 -113 185
-308 269 -433 84 -124 240 -355 347 -514 175 -258 612 -844 875 -1172 214
-267 396 -469 686 -764 284 -289 512 -491 780 -691 58 -43 112 -87 120 -96 52
-63 130 -87 177 -54 52 36 79 121 51 157 -7 9 -62 53 -123 99 -584 440 -1101
969 -1702 1741 -243 312 -875 1179 -895 1228 -10 25 -17 34 -14 20 l5 -25 -19
25 c-45 57 -212 315 -289 444 -116 196 -234 426 -269 527 -59 169 -76 275 -77
477 l0 182 110 48 c316 138 630 366 966 701 159 160 320 343 388 444 97 142
154 327 155 497 0 97 -2 110 -31 170 -70 150 -272 298 -477 350 -163 41 -231
38 -615 -29 -190 -33 -347 -59 -349 -57 -2 2 2 41 9 87 8 57 9 119 3 198 -4
64 -7 172 -5 241 3 143 -8 192 -52 245 -27 33 -110 95 -127 95 -3 0 -21 -8
-40 -19z"/>
</g>
</svg>
