<?xml version="1.0" standalone="no"?>
<!DOCTYPE svg PUBLIC "-//W3C//DTD SVG 20010904//EN"
 "http://www.w3.org/TR/2001/REC-SVG-20010904/DTD/svg10.dtd">
<svg version="1.0" xmlns="http://www.w3.org/2000/svg"
 width="1024.000000pt" height="1024.000000pt" viewBox="0 0 1024.000000 1024.000000"
 preserveAspectRatio="xMidYMid meet">
<metadata>
Created by potrace 1.10, written by Peter Selinger 2001-2011
</metadata>
<g transform="translate(0.000000,1024.000000) scale(0.100000,-0.100000)"
fill="#000000" stroke="none">
<path d="M1555 6742 c-6 -4 -23 -22 -38 -40 -34 -42 -36 -90 -4 -119 12 -12
95 -53 184 -92 l162 -70 918 -196 c505 -108 929 -199 942 -203 21 -7 15 -13
-60 -60 -46 -28 -498 -384 -1004 -789 -802 -644 -920 -742 -918 -763 1 -14 5
-69 8 -123 6 -76 10 -97 20 -93 37 14 385 303 580 481 205 186 264 233 860
669 352 258 657 485 678 505 48 45 70 86 64 117 -4 22 -2 24 27 19 17 -3 101
-16 186 -30 265 -41 581 -114 806 -185 182 -58 359 -123 386 -141 14 -11 30
-19 35 -19 4 0 15 -11 24 -23 31 -43 32 -128 3 -475 -31 -372 -29 -412 22
-515 49 -102 116 -164 250 -234 228 -118 460 -205 719 -268 78 -19 631 -185
1228 -369 807 -249 1097 -343 1133 -366 59 -37 127 -41 166 -10 28 22 53 97
43 129 -10 32 -168 107 -436 207 -95 35 -1564 467 -2169 638 -69 19 -168 51
-220 71 -194 74 -491 240 -504 282 -16 55 -15 117 5 418 30 443 30 518 2 570
-27 51 -86 107 -142 135 -25 12 -162 64 -305 115 l-261 94 -1065 211 -1065
211 -600 159 c-330 88 -612 160 -625 160 -14 0 -30 -4 -35 -8z"/>
</g>
</svg>
