<?xml version="1.0" standalone="no"?>
<!DOCTYPE svg PUBLIC "-//W3C//DTD SVG 20010904//EN"
 "http://www.w3.org/TR/2001/REC-SVG-20010904/DTD/svg10.dtd">
<svg version="1.0" xmlns="http://www.w3.org/2000/svg"
 width="1024.000000pt" height="1024.000000pt" viewBox="0 0 1024.000000 1024.000000"
 preserveAspectRatio="xMidYMid meet">
<metadata>
Created by potrace 1.10, written by Peter Selinger 2001-2011
</metadata>
<g transform="translate(0.000000,1024.000000) scale(0.100000,-0.100000)"
fill="#000000" stroke="none">
<path d="M4610 7685 l-33 -34 57 -134 c52 -120 57 -139 51 -177 -25 -149 -203
-552 -356 -807 -371 -618 -630 -999 -966 -1422 -126 -158 -544 -587 -833 -856
-291 -271 -695 -618 -1062 -913 -103 -83 -128 -108 -128 -128 0 -24 3 -25 32
-19 86 18 343 149 641 327 256 152 635 436 970 725 175 150 547 504 675 641
414 445 841 1005 1237 1627 49 77 121 182 159 233 l69 93 27 -28 c117 -121
714 -782 830 -918 771 -907 1472 -1677 2011 -2211 231 -228 284 -276 338 -302
48 -24 78 -32 119 -32 30 0 257 20 505 45 l451 46 79 46 c104 61 118 47 -234
231 -489 255 -1070 624 -1381 879 -408 333 -1066 931 -1918 1744 -113 108
-317 299 -453 424 -136 125 -244 231 -240 235 4 3 32 24 61 44 43 31 60 53 93
118 l40 80 -25 38 c-65 99 -473 360 -655 419 -93 30 -120 28 -161 -14z"/>
<path d="M3826 4457 c13 -45 23 -54 24 -21 0 20 -6 34 -16 38 -12 5 -14 1 -8
-17z"/>
</g>
</svg>
