<?xml version="1.0" standalone="no"?>
<!DOCTYPE svg PUBLIC "-//W3C//DTD SVG 20010904//EN"
 "http://www.w3.org/TR/2001/REC-SVG-20010904/DTD/svg10.dtd">
<svg version="1.0" xmlns="http://www.w3.org/2000/svg"
 width="1024.000000pt" height="1024.000000pt" viewBox="0 0 1024.000000 1024.000000"
 preserveAspectRatio="xMidYMid meet">
<metadata>
Created by potrace 1.10, written by Peter Selinger 2001-2011
</metadata>
<g transform="translate(0.000000,1024.000000) scale(0.100000,-0.100000)"
fill="#000000" stroke="none">
<path d="M6660 7880 c0 -19 23 -59 31 -54 5 3 9 18 9 35 0 22 -5 29 -20 29
-11 0 -20 -4 -20 -10z"/>
<path d="M5056 7707 c85 -345 93 -547 94 -2168 0 -1192 5 -1491 31 -1804 48
-593 188 -974 445 -1215 165 -155 477 -263 876 -305 173 -18 807 -21 1088 -5
708 40 1223 124 1740 285 264 82 383 139 474 229 37 37 74 86 92 122 26 53 29
68 28 154 -1 108 -21 173 -104 340 -60 119 -102 238 -130 366 -49 223 -58 349
-90 1219 -17 462 -36 857 -41 878 -17 65 -60 59 -79 -12 -5 -20 -16 -94 -24
-166 -33 -281 -167 -1266 -187 -1370 -101 -538 -267 -865 -519 -1019 -308
-189 -976 -294 -1900 -299 -332 -2 -400 5 -571 59 -152 48 -327 154 -379 229
-127 186 -192 493 -206 975 -6 202 20 2749 31 3020 5 127 22 244 50 348 8 31
22 88 29 126 13 65 13 72 -7 127 l-21 59 -382 0 -381 0 43 -173z"/>
<path d="M3695 7481 c-68 -19 -100 -33 -99 -42 1 -8 12 -52 24 -99 49 -192 64
-447 34 -621 -44 -261 -204 -712 -412 -1164 -367 -798 -696 -1374 -1077 -1885
-391 -523 -1050 -1216 -1558 -1638 -142 -118 -132 -105 -117 -141 15 -37 22
-36 150 16 149 60 471 241 744 417 160 103 686 600 1050 991 341 367 546 632
824 1061 282 437 460 760 862 1564 169 339 218 445 241 527 34 119 34 129 14
207 -34 130 -134 326 -271 531 -131 196 -235 306 -288 304 -12 0 -66 -13 -121
-28z"/>
</g>
</svg>
