<?xml version="1.0" standalone="no"?>
<!DOCTYPE svg PUBLIC "-//W3C//DTD SVG 20010904//EN"
 "http://www.w3.org/TR/2001/REC-SVG-20010904/DTD/svg10.dtd">
<svg version="1.0" xmlns="http://www.w3.org/2000/svg"
 width="1024.000000pt" height="1024.000000pt" viewBox="0 0 1024.000000 1024.000000"
 preserveAspectRatio="xMidYMid meet">
<metadata>
Created by potrace 1.10, written by Peter Selinger 2001-2011
</metadata>
<g transform="translate(0.000000,1024.000000) scale(0.100000,-0.100000)"
fill="#000000" stroke="none">
<path d="M4136 10018 c-50 -39 -87 -80 -143 -160 l-75 -108 -36 29 c-20 17
-71 62 -112 100 -93 88 -142 110 -203 90 -23 -7 -52 -12 -65 -11 -12 2 -32 -4
-43 -12 -13 -9 -34 -12 -55 -9 -47 8 -81 -3 -100 -32 -14 -21 -14 -36 -4 -116
6 -50 9 -93 7 -96 -3 -2 -26 1 -52 7 -41 9 -51 8 -64 -5 -24 -24 -20 -154 7
-230 11 -33 24 -82 28 -110 4 -27 15 -62 26 -77 10 -15 57 -129 103 -252 79
-214 91 -266 61 -266 -7 0 -13 -6 -14 -12 -2 -19 -28 -140 -53 -245 -31 -131
-24 -330 15 -453 29 -91 35 -114 61 -230 19 -85 150 -364 217 -462 50 -74 100
-165 172 -313 29 -60 67 -128 83 -150 30 -40 967 -965 1055 -1041 l46 -40 -15
-54 c-8 -30 -18 -109 -23 -175 -5 -82 -15 -139 -30 -180 -13 -36 -55 -261
-106 -569 -46 -279 -86 -511 -88 -515 -9 -15 -86 -366 -105 -476 -27 -161 -51
-353 -53 -420 -1 -45 3 -59 21 -79 33 -35 69 -41 100 -18 26 19 28 19 129 -2
l102 -21 -29 -47 c-50 -79 -130 -402 -166 -671 -8 -62 -19 -195 -25 -297 -6
-102 -18 -310 -28 -464 -12 -190 -14 -283 -7 -292 7 -9 89 -21 255 -39 134
-14 250 -25 257 -25 9 0 8 -10 -4 -37 -25 -59 -21 -155 11 -234 14 -36 26 -76
26 -90 0 -13 16 -104 36 -202 20 -97 35 -179 32 -182 -2 -2 -86 -26 -185 -53
l-182 -50 -66 -58 c-37 -33 -77 -77 -90 -99 -24 -42 -42 -115 -28 -115 5 0 17
-16 27 -35 11 -19 35 -45 55 -57 34 -21 45 -22 241 -19 113 2 210 7 217 12 6
6 44 13 83 16 71 6 72 6 61 -15 -14 -26 -14 -67 -1 -92 17 -31 123 -90 166
-91 70 -3 245 42 299 77 86 54 193 104 303 141 127 42 262 117 262 144 0 11 6
19 13 19 32 0 61 49 65 110 5 73 -10 101 -117 216 -117 125 -143 175 -158 306
-14 115 -38 194 -78 253 -21 30 -22 37 -10 41 8 4 21 1 29 -5 19 -16 559 54
601 78 51 29 65 71 65 201 0 149 -5 177 -105 605 -111 472 -119 560 -79 827
14 98 9 161 -17 210 -11 20 -8 20 73 17 l83 -4 24 47 c28 59 32 183 8 268 -8
30 -18 102 -22 160 -4 65 -35 249 -81 480 l-74 375 -165 455 c-95 262 -172
489 -180 535 -26 133 -34 153 -80 202 -36 37 -42 49 -34 64 5 10 11 76 13 147
2 81 8 137 17 153 7 13 18 51 25 84 7 33 21 101 33 150 46 208 56 307 55 585
0 191 -5 293 -16 365 -62 392 -71 424 -132 492 -24 26 -55 54 -68 61 l-24 13
35 70 c31 62 35 82 42 182 4 61 12 129 18 149 l12 37 58 -29 c135 -67 303 -92
477 -71 116 15 174 42 195 92 11 28 10 45 -5 118 -23 115 -55 170 -156 272
-63 64 -102 94 -151 117 -136 65 -282 84 -466 62 -120 -14 -177 -31 -209 -61
-14 -13 -38 -21 -68 -23 -61 -4 -141 -53 -225 -137 -93 -92 -129 -151 -201
-334 -55 -138 -64 -171 -68 -240 -5 -94 15 -188 54 -250 18 -29 3 -17 -56 45
-106 111 -205 237 -300 382 -61 93 -80 130 -89 178 -7 34 -46 134 -87 223 -52
112 -97 234 -150 401 -41 131 -84 256 -96 277 -27 49 -79 85 -142 99 -85 19
-109 8 -254 -110 -76 -62 -93 -81 -98 -110 -9 -46 -24 -74 -34 -64 -12 13 7
195 30 287 11 43 35 112 54 155 43 95 82 230 92 311 l7 61 -44 20 c-24 11 -53
20 -65 20 -11 0 -51 -23 -88 -52z m-473 -250 c18 -12 84 -71 147 -130 63 -59
121 -108 129 -108 34 0 79 45 106 107 15 35 29 62 31 60 2 -1 -8 -39 -22 -82
-18 -55 -27 -110 -30 -178 -2 -54 -9 -107 -15 -118 -14 -27 -1 -197 18 -226
13 -19 11 -27 -16 -79 -17 -31 -31 -65 -31 -76 0 -19 -1 -19 -31 -1 -17 10
-40 31 -51 46 -14 20 -23 25 -32 18 -19 -16 -110 247 -157 450 -34 149 -43
177 -64 192 -22 17 -25 26 -25 83 0 35 3 64 6 64 3 0 20 -10 37 -22z m-147
-229 c18 -18 34 -39 34 -47 0 -7 11 -52 24 -100 14 -48 28 -115 31 -150 4 -34
11 -64 15 -67 26 -16 63 -104 71 -169 5 -39 11 -81 14 -93 5 -21 2 -23 -29
-23 -19 0 -41 -7 -50 -15 -8 -8 -17 -15 -20 -15 -8 0 -136 226 -136 241 0 9
-14 53 -30 99 -17 46 -29 89 -26 97 3 7 18 13 33 13 61 0 66 21 43 167 -11 65
-19 129 -18 143 1 15 3 11 5 -11 3 -25 15 -46 39 -70z m1032 -344 c43 -98 122
-323 122 -347 0 -7 23 -62 51 -123 28 -60 61 -139 74 -175 95 -265 215 -474
382 -666 29 -34 53 -64 53 -69 0 -11 -185 90 -295 162 -231 151 -383 290 -648
590 l-186 211 19 25 c11 14 20 39 20 55 0 20 13 46 40 78 35 42 70 122 70 159
0 18 162 182 190 194 51 21 61 12 108 -94z m-481 -657 c265 -334 428 -493 668
-653 132 -88 344 -200 475 -250 52 -21 118 -47 146 -60 156 -71 248 -73 505
-10 101 25 194 47 206 50 18 4 24 -2 37 -43 66 -209 93 -581 61 -854 -18 -152
-68 -387 -95 -444 -11 -22 -20 -56 -20 -75 0 -19 -4 -39 -8 -45 -9 -13 -710
-189 -811 -204 -61 -9 -76 -8 -82 3 -4 7 -228 221 -497 475 -511 483 -528 502
-689 742 -124 186 -274 457 -332 600 -33 83 -121 514 -121 595 0 80 29 215 52
239 11 11 28 38 39 58 24 47 27 49 134 74 159 38 130 56 332 -198z m1915 124
c16 -16 35 -292 27 -387 -14 -166 -24 -191 -102 -258 l-55 -47 -90 0 c-49 0
-103 5 -120 11 -36 12 -72 67 -72 107 0 67 66 249 107 294 14 15 34 18 145 18
71 0 128 4 128 9 0 5 -32 38 -71 74 l-72 64 49 67 c47 63 51 66 83 62 19 -3
38 -9 43 -14z m-285 -2808 c-3 -3 -12 -4 -19 -1 -8 3 -5 6 6 6 11 1 17 -2 13
-5z m-117 -33 c-97 -32 -268 -97 -353 -135 -32 -14 -59 -26 -61 -26 -7 0 12
72 21 81 8 8 435 107 463 107 8 0 -23 -12 -70 -27z m494 -83 c9 -12 25 -54 37
-92 58 -197 114 -354 135 -383 13 -17 24 -39 24 -48 0 -23 80 -202 96 -216 8
-6 14 -22 14 -35 0 -14 54 -239 119 -502 98 -389 125 -516 150 -691 32 -221
36 -271 24 -271 -5 0 -35 7 -68 15 -33 8 -131 24 -217 35 l-158 20 -257 -44
-258 -45 -477 6 c-339 4 -478 9 -478 17 0 33 222 1226 239 1283 11 38 23 111
26 163 11 158 34 296 60 354 13 30 28 57 33 60 6 3 18 29 28 57 10 28 28 55
39 61 11 6 34 23 50 39 27 25 43 30 145 44 135 18 264 51 393 101 78 30 257
90 279 93 4 1 14 -9 22 -21z m336 -2363 c53 -18 64 -26 60 -41 -8 -35 -1 -385
10 -517 21 -245 45 -389 160 -962 27 -132 48 -240 47 -241 -1 -1 -141 2 -312
7 -310 10 -310 10 -335 34 l-24 25 -9 732 c-9 792 -10 804 -63 868 -15 17 -25
32 -23 34 2 2 76 24 164 49 178 51 208 52 325 12z m-595 -85 c-6 -10 10 -1231
19 -1497 l5 -123 -178 0 c-98 0 -320 3 -494 7 l-317 6 0 113 c0 78 5 124 15
146 10 23 17 98 24 253 5 121 14 232 19 246 6 15 18 83 27 150 31 239 116 593
148 610 7 5 22 26 32 48 l18 41 196 3 c108 1 263 3 344 5 101 1 146 -1 142 -8z
m111 -1819 c56 -26 61 -31 57 -55 -4 -17 1 -34 11 -45 11 -13 17 -43 20 -112
3 -72 10 -111 30 -160 14 -36 26 -77 26 -90 0 -14 6 -33 14 -44 7 -11 19 -38
26 -60 24 -75 79 -172 141 -250 57 -72 61 -82 63 -132 l2 -53 -63 -36 c-35
-19 -89 -44 -120 -55 -31 -10 -91 -39 -132 -63 -148 -87 -185 -100 -299 -104
l-104 -4 16 30 c9 17 16 37 16 45 0 9 19 20 46 27 95 27 233 147 251 219 4 15
-12 123 -39 262 -35 178 -55 258 -83 325 -20 49 -43 111 -51 139 -16 58 -18
155 -3 208 10 37 10 37 62 37 37 0 70 -9 113 -29z m-342 -13 c3 -13 6 -56 6
-96 0 -64 4 -79 29 -115 45 -67 52 -84 61 -160 17 -125 30 -190 50 -235 11
-25 20 -58 20 -75 0 -17 8 -70 17 -118 l17 -89 -25 -26 c-30 -32 -90 -68 -149
-90 -63 -22 -296 -44 -475 -43 l-150 0 125 43 c69 24 151 49 182 55 39 8 75
25 110 52 29 21 56 39 60 39 4 0 14 13 22 28 14 26 11 53 -30 308 -45 285 -95
499 -122 521 -12 10 5 13 84 16 54 1 113 4 130 5 25 2 33 -3 38 -20z"/>
<path d="M5855 6850 c-33 -13 -43 -31 -58 -110 -12 -65 -27 -96 -116 -244 -56
-93 -100 -175 -97 -183 8 -20 51 -36 80 -29 17 4 51 39 97 99 122 157 151 215
175 347 l13 75 -32 27 c-36 30 -34 30 -62 18z"/>
<path d="M5838 5363 c-28 -14 -78 -87 -78 -114 0 -8 -7 -27 -16 -44 -12 -23
-19 -90 -28 -285 -12 -237 -15 -260 -41 -330 -38 -104 -117 -261 -176 -349
-44 -67 -49 -79 -49 -130 0 -53 2 -57 35 -79 l35 -22 30 22 c21 15 30 30 30
50 0 17 40 104 101 216 110 206 119 234 139 442 20 206 61 475 74 485 7 6 23
30 36 54 22 43 22 45 4 59 -45 33 -68 39 -96 25z"/>
<path d="M5267 4802 c-14 -15 -44 -74 -65 -132 -35 -94 -40 -118 -46 -232 -7
-120 -6 -128 14 -148 20 -20 65 -26 86 -12 14 9 29 75 50 222 15 102 22 123
61 190 23 41 43 80 43 87 0 26 -39 53 -78 53 -29 0 -45 -7 -65 -28z"/>
<path d="M6000 4640 c-18 -18 -20 -29 -14 -103 4 -45 12 -89 19 -97 7 -8 39
-67 71 -130 41 -82 60 -132 65 -173 8 -67 41 -112 91 -122 64 -15 104 50 62
102 -14 17 -23 42 -24 64 0 51 -37 152 -75 210 -19 27 -36 58 -40 68 -3 11
-12 25 -20 31 -10 8 -15 32 -15 70 0 51 -3 61 -26 79 -34 27 -68 27 -94 1z"/>
</g>
</svg>
