<?xml version="1.0" standalone="no"?>
<!DOCTYPE svg PUBLIC "-//W3C//DTD SVG 20010904//EN"
 "http://www.w3.org/TR/2001/REC-SVG-20010904/DTD/svg10.dtd">
<svg version="1.0" xmlns="http://www.w3.org/2000/svg"
 width="1024.000000pt" height="1024.000000pt" viewBox="0 0 1024.000000 1024.000000"
 preserveAspectRatio="xMidYMid meet">
<metadata>
Created by potrace 1.10, written by Peter Selinger 2001-2011
</metadata>
<g transform="translate(0.000000,1024.000000) scale(0.100000,-0.100000)"
fill="#000000" stroke="none">
<path d="M8505 9494 c-51 -19 -82 -48 -109 -105 -12 -25 -245 -369 -517 -765
-273 -395 -518 -757 -546 -804 -264 -447 -501 -969 -568 -1254 -63 -264 -59
-502 14 -806 11 -47 25 -125 31 -175 28 -228 80 -394 200 -630 47 -93 132
-241 189 -328 57 -87 107 -173 112 -192 6 -19 222 -358 482 -754 260 -396 490
-750 512 -786 50 -83 203 -234 216 -214 5 8 9 26 9 41 0 39 17 43 24 5 19 -98
122 -221 236 -281 30 -16 150 -89 266 -163 205 -130 212 -136 223 -176 19 -70
11 -87 -143 -284 -11 -14 -21 -47 -24 -74 l-5 -49 -369 -315 c-202 -173 -401
-339 -441 -368 -239 -176 -522 -301 -817 -363 -148 -31 -160 -30 -195 6 -27
28 -28 32 -21 97 18 173 70 300 191 463 89 120 198 254 261 320 60 64 180 259
201 327 42 141 12 321 -77 457 -47 72 -508 566 -618 663 -59 52 -344 347 -504
523 -262 288 -560 664 -843 1065 -218 308 -364 492 -672 845 l-32 36 124 755
c140 847 153 919 200 1110 73 292 150 510 270 769 35 74 73 169 85 210 53 177
162 471 190 510 11 16 20 38 20 51 0 12 9 32 20 44 11 12 29 54 40 93 12 42
30 82 46 99 59 62 79 146 46 195 -67 101 -137 85 -229 -52 -44 -65 -99 -179
-126 -257 -12 -38 -30 -79 -39 -91 -9 -13 -62 -159 -119 -325 -76 -225 -112
-316 -140 -357 -30 -44 -60 -125 -144 -385 -151 -470 -170 -532 -209 -716 -43
-201 -70 -383 -91 -594 -8 -89 -47 -361 -86 -605 -38 -245 -68 -459 -65 -476
3 -22 131 -199 418 -576 227 -300 461 -612 520 -694 184 -256 385 -497 644
-775 55 -58 147 -161 205 -230 172 -202 366 -405 530 -554 170 -155 181 -166
278 -278 102 -116 158 -236 163 -348 3 -68 -67 -174 -218 -329 -135 -138 -164
-172 -234 -275 -69 -102 -127 -223 -170 -355 -108 -329 -73 -483 132 -586 78
-39 118 -42 268 -19 176 26 358 90 505 177 165 98 707 446 780 502 226 171
576 529 547 558 -8 8 3 26 40 67 28 31 67 89 87 130 30 64 36 88 39 161 5 95
-7 165 -39 240 -21 48 -28 53 -268 205 -265 168 -346 237 -398 340 -14 27 -57
81 -95 119 -64 64 -71 68 -104 63 -31 -5 -39 -2 -64 26 -16 18 -30 38 -30 44
0 7 -25 45 -55 84 -30 39 -55 76 -55 81 0 6 -76 120 -170 255 -94 134 -170
252 -170 262 0 57 -276 473 -458 689 -34 41 -62 79 -62 85 0 6 -22 36 -48 66
-45 52 -144 224 -267 466 -30 60 -58 132 -69 180 -10 44 -52 211 -93 370 -88
337 -103 422 -103 565 0 234 88 587 220 882 82 183 300 578 473 858 155 250
271 420 641 934 197 274 362 513 367 530 13 46 -6 92 -53 127 -47 33 -40 32
-93 13z"/>
<path d="M3484 9293 c-13 -14 -31 -48 -39 -76 -9 -31 -101 -183 -248 -410
-274 -425 -312 -489 -460 -787 -126 -252 -119 -235 -653 -1605 -212 -544 -412
-1057 -445 -1140 -44 -113 -76 -175 -128 -251 -121 -179 -146 -287 -118 -517
36 -288 120 -636 212 -876 19 -52 40 -129 46 -170 25 -177 120 -492 216 -711
30 -69 59 -148 63 -176 10 -66 31 -112 118 -257 92 -153 95 -174 45 -269 -45
-86 -410 -577 -492 -661 -31 -33 -81 -76 -111 -97 -195 -133 -281 -280 -282
-475 -1 -146 41 -268 106 -310 84 -55 307 -76 441 -42 42 11 148 58 265 118
675 345 965 486 1385 676 235 107 323 160 390 236 97 110 143 261 119 388 -24
127 -120 294 -238 413 -123 124 -274 211 -459 263 l-94 26 -25 51 c-31 64
-216 665 -228 744 -6 32 -55 202 -110 376 -55 175 -100 332 -100 348 0 17 -29
123 -64 237 -35 113 -66 220 -69 236 -2 17 -13 51 -23 77 -16 42 -17 55 -6
115 20 117 30 138 141 305 183 275 339 473 654 831 380 431 561 684 1136 1587
279 437 431 666 488 735 101 121 133 182 136 258 3 73 -18 97 -82 97 -84 -1
-171 -56 -218 -139 -15 -25 -320 -494 -679 -1041 -581 -884 -673 -1019 -826
-1212 -209 -261 -453 -547 -652 -762 -164 -177 -223 -255 -262 -342 -72 -162
-83 -325 -35 -515 15 -63 36 -131 45 -153 9 -21 16 -52 16 -68 0 -17 45 -184
100 -371 55 -188 176 -601 268 -917 l167 -575 94 -62 c58 -38 113 -66 145 -74
68 -15 187 -65 259 -107 86 -50 191 -154 259 -257 l60 -90 -4 -67 c-7 -128 31
-101 -743 -510 -374 -197 -720 -382 -770 -411 -258 -148 -427 -207 -661 -232
l-62 -7 -27 59 c-23 49 -25 62 -16 89 6 17 11 36 11 43 0 14 163 215 308 379
177 201 402 489 532 682 78 115 79 207 5 426 -31 91 -127 296 -173 368 -18 28
-32 61 -32 74 0 14 -20 69 -45 124 -37 81 -45 110 -45 157 0 70 -31 191 -70
279 -17 35 -30 76 -30 89 0 14 -68 253 -151 531 -149 497 -152 509 -152 602 0
108 19 173 80 263 56 83 118 214 152 322 18 54 101 270 186 480 85 209 335
828 556 1375 220 547 407 1007 415 1021 7 15 158 262 335 549 313 510 349 572
349 606 0 54 -76 134 -128 134 -13 0 -34 -12 -48 -27z"/>
<path d="M6512 4090 c0 -8 6 -31 13 -50 7 -19 13 -28 13 -20 0 8 -6 31 -13 50
-7 19 -13 28 -13 20z"/>
</g>
</svg>
