<?xml version="1.0" standalone="no"?>
<!DOCTYPE svg PUBLIC "-//W3C//DTD SVG 20010904//EN"
 "http://www.w3.org/TR/2001/REC-SVG-20010904/DTD/svg10.dtd">
<svg version="1.0" xmlns="http://www.w3.org/2000/svg"
 width="1024.000000pt" height="1024.000000pt" viewBox="0 0 1024.000000 1024.000000"
 preserveAspectRatio="xMidYMid meet">
<metadata>
Created by potrace 1.10, written by Peter Selinger 2001-2011
</metadata>
<g transform="translate(0.000000,1024.000000) scale(0.100000,-0.100000)"
fill="#000000" stroke="none">
<path d="M5980 8969 c-69 -4 -233 -13 -365 -18 -208 -8 -253 -13 -333 -35
-104 -29 -241 -93 -329 -155 -117 -81 -182 -101 -443 -132 -129 -15 -258 -34
-285 -43 -55 -17 -134 -74 -232 -166 -90 -85 -161 -116 -318 -139 -265 -39
-462 -131 -687 -318 -85 -71 -205 -196 -221 -230 -8 -19 -18 -23 -58 -23 -98
0 -399 -104 -634 -220 -369 -181 -670 -430 -970 -802 -353 -438 -621 -979
-696 -1408 -60 -341 4 -801 167 -1198 19 -45 34 -91 34 -101 0 -10 11 -35 25
-55 14 -20 25 -45 25 -54 0 -9 25 -46 56 -82 31 -36 85 -114 121 -175 163
-273 316 -436 555 -592 53 -34 99 -67 103 -73 3 -5 17 -10 30 -10 13 0 54 -14
92 -31 163 -73 376 -136 578 -170 177 -30 467 -37 665 -14 300 33 431 87 566
232 l51 55 24 -39 c52 -85 477 -694 544 -781 274 -351 671 -704 947 -843 104
-52 260 -104 372 -124 190 -33 472 -15 643 41 325 106 648 383 855 733 273
462 423 821 634 1509 l146 477 29 295 c32 310 33 447 12 934 l-6 148 61 -41
c66 -45 156 -86 212 -95 19 -3 222 4 450 17 l415 22 80 45 c220 121 229 129
370 292 102 119 143 174 178 244 131 260 262 637 332 954 14 63 39 228 56 365
25 202 30 273 25 370 -16 360 -137 617 -407 866 -164 150 -281 223 -509 314
-176 71 -366 121 -575 152 -139 20 -554 22 -685 2 -103 -15 -249 -63 -345
-112 -76 -40 -225 -143 -240 -166 -4 -7 -29 9 -67 44 -131 118 -324 226 -498
278 -179 54 -342 71 -550 56z m448 -265 c208 -43 451 -163 492 -244 10 -21 33
-49 50 -64 29 -23 40 -26 115 -26 99 0 143 20 243 111 80 72 188 126 311 152
82 18 133 21 358 21 144 1 264 -2 268 -6 3 -3 -27 -51 -67 -105 -104 -139
-148 -261 -148 -408 0 -90 25 -147 76 -177 l37 -22 -29 -9 c-58 -19 -193 -118
-266 -196 -44 -46 -90 -108 -112 -150 -20 -39 -41 -71 -45 -71 -5 0 -14 7 -22
16 -7 9 -38 28 -69 44 -172 87 -266 229 -285 431 -6 66 -4 80 14 115 36 66 22
117 -39 149 -111 57 -190 -57 -190 -275 0 -111 17 -186 64 -285 81 -171 255
-311 409 -330 31 -3 57 -10 57 -14 0 -4 -11 -41 -25 -82 -97 -285 -60 -558 99
-721 l56 -57 -20 -75 c-22 -86 -29 -103 -76 -167 -30 -42 -101 -99 -122 -99
-5 0 -28 78 -52 173 -44 176 -121 377 -145 377 -7 0 -18 -7 -25 -15 -23 -27
-78 -19 -111 18 -71 75 -88 130 -60 186 42 82 33 142 -28 194 -43 36 -73 34
-119 -8 -48 -42 -72 -110 -79 -217 -8 -108 2 -159 43 -218 l34 -50 -114 0
c-144 0 -142 -3 -137 160 3 106 5 117 26 135 33 28 65 85 65 117 0 19 -10 34
-32 52 -81 61 -153 47 -235 -45 -20 -22 -24 -46 -38 -194 -14 -154 -14 -176 0
-230 42 -159 133 -225 311 -225 123 0 176 26 216 105 11 22 21 41 23 42 1 2
28 -8 61 -21 l59 -24 52 -179 c56 -195 60 -213 39 -213 -8 0 -26 -14 -40 -31
-55 -64 -20 -159 58 -159 41 0 29 58 97 -480 44 -353 50 -420 45 -520 -38
-763 -32 -715 -128 -1094 -138 -551 -325 -1039 -551 -1441 -64 -113 -178 -294
-221 -350 l-32 -42 -42 29 -43 29 -70 -45 c-110 -70 -183 -91 -309 -89 -69 1
-129 8 -175 21 l-70 19 -6 59 c-3 33 -11 69 -18 81 -9 19 -9 29 5 54 13 26 15
58 12 188 -3 156 -9 184 -55 261 -2 3 27 21 65 40 44 22 93 61 142 110 64 64
87 97 152 220 111 212 151 334 164 514 8 104 -7 176 -49 223 -64 73 -119 81
-179 25 l-40 -38 11 -53 c15 -72 14 -184 -4 -259 -8 -35 -35 -103 -59 -150
-28 -54 -51 -118 -62 -169 -15 -74 -20 -85 -63 -126 -69 -66 -136 -90 -236
-85 -59 4 -94 12 -135 32 -82 39 -174 118 -229 196 -43 61 -61 99 -103 213 -6
15 -26 41 -45 57 -27 24 -43 30 -82 30 -71 0 -86 -21 -77 -105 15 -151 83
-296 194 -415 75 -82 124 -115 304 -207 76 -39 135 -73 131 -76 -3 -4 0 -63 7
-132 l12 -125 -26 -31 c-14 -17 -26 -35 -26 -39 0 -15 49 -283 56 -307 5 -18
-6 -30 -71 -75 -109 -76 -169 -97 -281 -97 -93 -1 -112 3 -221 45 -81 32 -117
31 -148 -2 -14 -15 -25 -35 -25 -45 0 -28 -11 -24 -81 30 -184 140 -317 276
-494 506 -464 604 -888 1271 -910 1433 -4 28 -12 55 -19 60 -20 12 -114 300
-135 417 -19 102 -39 272 -106 900 -14 132 -43 405 -65 607 -22 202 -40 372
-40 377 0 10 113 51 140 51 9 0 25 -9 35 -20 26 -29 118 -60 178 -60 70 0 142
35 211 102 57 55 66 80 43 111 -11 16 -24 17 -147 8 l-135 -9 -22 26 c-20 25
-22 38 -23 148 0 106 3 128 23 175 32 73 38 109 25 155 -12 44 -71 104 -103
104 -32 0 -92 -46 -119 -93 -34 -60 -59 -209 -57 -339 l2 -108 -45 0 -44 0
-32 96 c-39 115 -36 156 12 234 48 77 45 120 -10 171 -60 56 -94 49 -182 -37
l-65 -64 3 -164 2 -163 -57 -21 c-97 -36 -172 -87 -323 -222 -167 -148 -151
-149 -193 10 -55 205 -65 406 -32 633 23 164 14 217 -48 282 -37 37 -46 42
-75 38 -61 -10 -69 -33 -103 -325 -34 -290 -34 -379 1 -524 31 -132 114 -320
155 -354 8 -7 15 -19 15 -27 0 -26 -200 -313 -218 -313 -10 0 -49 9 -87 19
-52 14 -148 23 -382 36 l-313 17 -112 -27 c-62 -15 -133 -38 -157 -51 -24 -13
-45 -24 -47 -24 -7 0 46 141 90 240 254 571 741 1136 1228 1425 128 77 193
110 320 164 81 35 122 45 259 65 l163 24 45 49 c26 27 61 58 78 68 18 11 64
56 103 102 118 139 287 267 410 309 64 22 100 27 245 34 239 10 254 16 406
174 143 147 145 148 464 206 271 50 390 89 604 197 210 106 244 117 369 109
260 -16 398 -17 472 -2 106 20 361 20 458 0z m2384 -183 c118 -40 245 -101
339 -163 l79 -52 -88 -26 c-176 -52 -322 -138 -446 -262 l-80 -79 -139 66
c-95 45 -146 64 -160 59 -19 -6 -20 -4 -14 102 7 147 42 249 100 299 22 19 56
38 76 41 20 4 70 14 111 24 104 25 124 24 222 -9z m641 -450 c41 -16 83 -119
137 -338 51 -206 59 -282 44 -396 l-7 -46 -44 49 c-141 157 -405 244 -592 196
-35 -10 -64 -16 -66 -14 -24 31 -133 253 -128 261 4 7 36 44 71 84 119 131
301 210 489 212 39 1 83 -3 96 -8z m-934 -343 l109 -93 52 -127 52 -128 -26
-31 c-43 -50 -32 -106 25 -129 l32 -14 -6 -90 c-12 -181 -107 -396 -175 -396
-8 0 -41 -16 -75 -36 -45 -27 -104 -48 -212 -75 -82 -21 -160 -39 -173 -39
-32 0 -172 73 -204 107 -62 65 -103 242 -95 403 9 179 47 273 180 444 76 97
93 113 157 147 88 46 101 58 131 115 l24 46 48 -6 c42 -5 59 -15 156 -98z
m828 -482 c89 -72 108 -97 129 -166 14 -47 60 -100 88 -100 9 0 -8 -87 -56
-292 -60 -256 -78 -317 -145 -485 -42 -106 -79 -193 -82 -193 -4 0 -16 33 -29
73 -12 39 -43 115 -69 167 -43 88 -57 106 -196 245 -148 149 -149 150 -133
175 40 64 88 172 107 245 22 85 31 261 16 342 l-7 42 62 4 c35 2 102 4 150 5
l86 2 79 -64z m-623 -802 c160 -88 299 -321 328 -549 11 -90 11 -97 -10 -140
-12 -25 -22 -59 -22 -75 0 -25 -10 -37 -72 -81 -136 -95 -271 -149 -435 -174
-118 -18 -181 -19 -313 -4 l-101 12 66 36 c187 102 309 261 349 454 25 120 20
204 -19 342 -19 66 -32 121 -30 123 10 10 172 91 182 92 7 0 42 -16 77 -36z
m-517 -110 c37 -5 35 -1 64 -154 54 -285 -33 -459 -278 -560 -43 -18 -88 -44
-101 -59 l-22 -26 -41 45 c-22 25 -52 62 -65 83 -27 42 -77 77 -110 77 -18 0
-22 10 -32 78 -7 42 -15 86 -18 97 -4 16 7 26 60 53 117 60 197 147 316 342
l24 41 86 -6 c47 -3 99 -8 117 -11z m-5376 -837 c42 -386 82 -772 89 -857 18
-259 56 -466 126 -699 19 -62 32 -116 29 -119 -10 -10 -205 16 -294 39 -309
79 -597 284 -777 556 -176 263 -202 543 -80 844 153 380 381 655 736 890 47
32 87 55 89 53 2 -2 39 -320 82 -707z m-1181 -117 c62 -18 67 -24 48 -63 -9
-19 -31 -103 -49 -186 l-33 -152 -95 7 c-114 8 -225 -10 -359 -58 -171 -60
-279 -127 -409 -251 l-82 -79 -12 44 c-41 152 -52 431 -24 594 9 48 17 89 18
90 1 1 23 -3 49 -8 56 -13 105 -2 162 37 40 27 -8 24 591 33 88 1 176 -3 195
-8z m-80 -628 l54 -7 68 -184 c37 -101 73 -190 79 -197 12 -14 4 -34 -13 -34
-18 0 -144 -108 -221 -189 -39 -43 -145 -177 -235 -299 -90 -122 -167 -220
-172 -217 -17 10 -149 192 -201 276 -51 81 -151 282 -182 364 -19 51 -8 83 55
165 99 125 310 260 483 309 72 20 180 25 285 13z m476 -719 l115 -106 -84 -86
c-46 -47 -97 -106 -114 -131 -110 -162 -150 -341 -123 -544 7 -53 11 -98 9
-100 -2 -2 -89 33 -194 79 -173 75 -197 88 -270 152 -131 114 -138 78 81 390
104 147 214 293 244 323 59 58 172 130 203 130 11 0 71 -48 133 -107z m519
-314 c138 -52 231 -80 398 -118 120 -27 220 -51 222 -53 1 -1 44 -85 94 -185
l91 -182 -93 -60 c-72 -47 -103 -61 -142 -66 -51 -5 -977 -65 -1005 -65 -25 1
-83 207 -81 287 2 59 41 179 85 257 46 82 215 267 236 260 8 -3 96 -37 195
-75z m3480 -2040 c132 5 242 7 245 5 13 -13 -156 -124 -266 -175 -144 -67
-301 -99 -480 -99 -85 0 -176 22 -244 60 l-35 19 51 1 c110 0 239 58 358 159
l59 50 36 -15 c32 -12 73 -13 276 -5z"/>
<path d="M6527 8214 c-140 -34 -261 -128 -317 -245 -35 -75 -37 -102 -10 -129
33 -33 95 -27 140 14 92 83 197 121 360 132 114 7 115 7 147 41 32 33 32 33
18 79 -16 54 -47 91 -92 110 -41 18 -170 17 -246 -2z"/>
<path d="M5085 7966 c-61 -19 -103 -44 -153 -89 -101 -94 -119 -167 -56 -237
47 -52 86 -54 131 -7 17 17 35 41 41 52 7 14 39 29 109 49 118 35 155 60 179
121 21 57 9 90 -41 111 -42 17 -155 17 -210 0z"/>
<path d="M3736 7851 c-4 -6 -16 -11 -26 -11 -20 0 -160 -147 -173 -182 -4 -12
-5 -28 -2 -37 9 -28 84 -100 111 -107 33 -8 72 19 99 69 25 45 57 49 111 12
20 -14 42 -25 48 -25 6 1 30 18 54 39 50 46 55 82 20 151 -17 33 -35 51 -68
67 -53 26 -163 42 -174 24z"/>
<path d="M6150 6998 c-44 -30 -96 -99 -110 -146 -45 -152 -5 -352 93 -464 l32
-36 187 -7 187 -7 13 27 c28 62 -60 129 -172 130 -65 1 -65 1 -87 40 -46 82
-52 239 -12 295 40 56 32 123 -21 161 -42 31 -72 32 -110 7z"/>
<path d="M5110 6937 c-33 -16 -96 -112 -122 -185 -60 -164 -17 -414 89 -514
49 -47 117 -71 176 -63 29 4 60 11 69 16 25 14 68 80 68 105 0 31 -50 70 -109
85 -46 12 -52 16 -71 60 -14 33 -20 69 -20 118 0 59 5 80 35 142 19 41 35 86
35 102 0 44 -29 96 -69 123 -41 28 -47 28 -81 11z"/>
<path d="M5690 6943 c-35 -7 -48 -19 -92 -87 -80 -125 -104 -302 -59 -447 38
-121 100 -181 209 -201 120 -22 187 11 199 99 4 34 1 45 -24 73 -25 28 -38 34
-85 38 -56 4 -56 5 -73 49 -15 39 -16 55 -5 146 11 88 16 106 40 132 70 77 78
118 30 159 -26 21 -93 49 -110 45 -3 -1 -16 -4 -30 -6z"/>
<path d="M4554 6872 c-56 -41 -103 -98 -133 -162 -22 -47 -26 -68 -26 -150 0
-139 21 -184 148 -323 l101 -109 76 6 c83 8 106 22 135 83 14 28 15 41 6 60
-11 24 -80 62 -114 63 -27 0 -85 69 -107 128 -12 33 -20 77 -20 117 0 60 3 67
38 108 54 62 67 98 50 133 -14 31 -72 74 -98 74 -9 0 -35 -13 -56 -28z"/>
<path d="M3698 6850 c-9 -6 -23 -31 -32 -58 -52 -162 -47 -352 14 -477 53
-112 27 -103 330 -111 l265 -7 13 36 c11 32 11 41 -4 72 -38 81 -108 96 -192
40 l-43 -28 -77 14 -77 14 -7 45 c-4 25 -10 105 -13 179 -4 119 -7 141 -30
188 -40 81 -101 119 -147 93z"/>
<path d="M6079 5295 c-128 -41 -209 -149 -209 -279 0 -39 30 -106 47 -106 5 0
82 7 172 14 l164 14 39 44 c58 65 81 115 82 175 1 62 -22 99 -80 128 -50 25
-153 30 -215 10z"/>
<path d="M4122 4786 c-40 -14 -96 -58 -119 -93 -13 -20 -16 -44 -14 -102 3
-94 31 -149 99 -192 38 -24 56 -29 106 -28 75 0 142 25 169 61 14 18 22 48 25
88 9 117 -35 198 -131 243 -68 33 -95 37 -135 23z"/>
<path d="M9960 1033 c-43 -8 -43 -20 -1 -31 39 -9 41 -9 41 14 0 13 -3 23 -7
23 -5 -1 -19 -4 -33 -6z"/>
</g>
</svg>
