<?xml version="1.0" standalone="no"?>
<!DOCTYPE svg PUBLIC "-//W3C//DTD SVG 20010904//EN"
 "http://www.w3.org/TR/2001/REC-SVG-20010904/DTD/svg10.dtd">
<svg version="1.0" xmlns="http://www.w3.org/2000/svg"
 width="1024.000000pt" height="1024.000000pt" viewBox="0 0 1024.000000 1024.000000"
 preserveAspectRatio="xMidYMid meet">
<metadata>
Created by potrace 1.10, written by Peter Selinger 2001-2011
</metadata>
<g transform="translate(0.000000,1024.000000) scale(0.100000,-0.100000)"
fill="#000000" stroke="none">
<path d="M6981 9299 c-51 -21 -127 -57 -169 -80 -358 -196 -931 -715 -1307
-1184 -170 -212 -515 -705 -611 -872 -54 -95 -101 -169 -104 -165 -4 4 -24
108 -44 232 -63 378 -117 564 -231 795 -123 251 -241 406 -537 706 -210 212
-288 273 -459 353 -119 57 -211 83 -244 70 -14 -5 -135 -98 -269 -207 l-245
-199 -204 -247 c-124 -150 -385 -493 -663 -871 -415 -565 -465 -637 -521 -753
-67 -137 -83 -202 -64 -260 33 -98 184 -151 250 -89 26 23 226 309 859 1227
155 225 248 345 403 520 195 221 487 505 520 505 4 0 135 -119 290 -265 304
-286 382 -376 493 -573 105 -186 201 -439 247 -653 11 -55 51 -334 88 -621
l68 -521 -19 -106 c-28 -163 -23 -218 23 -267 17 -18 21 -44 29 -169 6 -82 9
-150 7 -151 -1 -2 -284 -7 -628 -13 -442 -7 -634 -14 -652 -22 -61 -28 -71
-130 -17 -170 23 -18 66 -19 663 -25 l637 -7 1 -276 c0 -152 4 -638 9 -1081
l7 -805 -53 -460 c-30 -253 -63 -532 -74 -620 -10 -88 -29 -243 -40 -345 -12
-102 -25 -193 -28 -203 -5 -13 -107 234 -321 780 -172 439 -329 827 -349 863
-43 80 -176 214 -249 253 -47 25 -56 27 -93 17 -84 -23 -139 -107 -116 -179 6
-20 37 -85 70 -144 72 -133 166 -339 234 -512 315 -801 575 -1443 626 -1546
100 -202 173 -316 225 -356 45 -33 47 -34 127 -30 110 6 188 43 270 129 57 60
1085 1355 1267 1596 200 264 473 698 503 800 25 83 -19 167 -112 212 -90 44
-131 14 -259 -190 -184 -296 -464 -687 -691 -967 -177 -218 -769 -930 -772
-928 -1 1 9 107 23 236 13 129 56 537 95 908 l71 675 -7 1088 -7 1088 42 0
c23 0 373 27 778 60 l735 60 221 55 c122 31 232 60 244 65 12 5 29 23 38 39
13 27 14 35 1 63 -7 18 -26 44 -40 58 -43 39 -122 34 -476 -33 l-305 -57 -619
-35 c-341 -19 -621 -34 -623 -32 -1 2 -10 135 -20 296 l-16 292 33 137 c96
399 125 481 255 724 283 524 588 942 959 1314 288 288 522 468 847 652 l56 32
149 -193 c81 -105 232 -300 335 -432 294 -379 479 -658 669 -1010 47 -86 55
-110 61 -172 7 -85 35 -130 102 -165 62 -32 171 -36 215 -8 78 49 102 209 49
325 -15 32 -38 73 -51 90 -14 17 -36 60 -51 96 -93 221 -167 332 -626 944
-222 297 -424 574 -448 615 -101 171 -201 269 -332 323 -35 14 -39 14 -128
-24z"/>
<path d="M9600 1141 c-39 -7 -33 -14 23 -29 35 -10 37 -9 37 14 0 25 -2 25
-60 15z"/>
</g>
</svg>
