<?xml version="1.0" standalone="no"?>
<!DOCTYPE svg PUBLIC "-//W3C//DTD SVG 20010904//EN"
 "http://www.w3.org/TR/2001/REC-SVG-20010904/DTD/svg10.dtd">
<svg version="1.0" xmlns="http://www.w3.org/2000/svg"
 width="1024.000000pt" height="1024.000000pt" viewBox="0 0 1024.000000 1024.000000"
 preserveAspectRatio="xMidYMid meet">
<metadata>
Created by potrace 1.10, written by Peter Selinger 2001-2011
</metadata>
<g transform="translate(0.000000,1024.000000) scale(0.100000,-0.100000)"
fill="#000000" stroke="none">
<path d="M6147 7788 c-15 -12 -13 -18 17 -66 23 -35 43 -89 61 -163 25 -101
27 -115 15 -172 -35 -182 -198 -496 -501 -965 -56 -86 -102 -158 -104 -160 -1
-1 -550 -56 -1221 -122 l-1219 -121 -248 21 c-136 12 -251 20 -256 18 -4 -2 8
-46 27 -98 l34 -95 121 -84 c142 -99 253 -158 313 -167 32 -4 71 2 166 29 102
29 247 52 862 138 l739 102 24 -29 c43 -52 93 -167 108 -247 11 -59 15 -154
15 -373 0 -273 -1 -294 -17 -294 -10 0 -342 -27 -739 -59 l-721 -59 -227 20
c-124 12 -229 18 -233 15 -3 -4 5 -46 19 -94 l24 -88 119 -79 c106 -71 133
-84 231 -111 l111 -32 169 23 c93 13 284 39 424 58 140 20 372 52 515 71 143
20 275 38 293 41 l32 6 0 -506 c0 -445 -2 -506 -15 -506 -8 0 -552 -38 -1208
-85 l-1192 -86 -258 22 c-142 11 -261 18 -264 16 -3 -3 0 -38 7 -77 l12 -72
118 -77 c65 -43 176 -108 248 -145 l131 -66 117 0 c91 0 236 17 656 75 l538
75 908 50 c1121 62 1874 103 2447 135 379 21 471 23 660 14 121 -5 243 -13
270 -18 86 -17 157 -13 193 9 31 19 52 54 52 85 0 8 -43 63 -95 122 l-95 108
-126 57 -127 58 -1021 -75 c-561 -42 -1113 -82 -1226 -90 -113 -8 -233 -17
-267 -21 l-63 -6 0 516 c0 496 1 516 19 516 10 0 324 18 697 40 373 21 771 44
884 50 113 7 221 16 240 21 73 18 121 107 89 166 -29 53 -119 109 -238 147
l-113 36 -764 -75 c-421 -41 -776 -75 -789 -75 l-25 0 0 423 0 422 -61 50 -61
50 294 18 c161 9 705 41 1208 71 984 57 953 54 999 112 24 30 36 83 27 119 -8
32 -68 99 -120 134 -66 44 -245 91 -348 91 -53 0 -390 -40 -854 -100 -422 -55
-768 -99 -770 -97 -2 2 153 150 344 329 328 308 462 421 624 524 113 73 120
126 33 242 -94 125 -325 320 -459 387 -56 29 -80 35 -130 35 -34 0 -70 -6 -79
-12z"/>
<path d="M3558 7574 c-14 -13 -9 -21 62 -103 248 -288 427 -550 591 -864 91
-175 122 -222 174 -269 60 -56 168 -27 208 54 65 132 27 416 -77 572 -53 79
-180 205 -285 281 -107 78 -396 252 -488 294 -71 32 -170 51 -185 35z"/>
</g>
</svg>
