<?xml version="1.0" standalone="no"?>
<!DOCTYPE svg PUBLIC "-//W3C//DTD SVG 20010904//EN"
 "http://www.w3.org/TR/2001/REC-SVG-20010904/DTD/svg10.dtd">
<svg version="1.0" xmlns="http://www.w3.org/2000/svg"
 width="1024.000000pt" height="1024.000000pt" viewBox="0 0 1024.000000 1024.000000"
 preserveAspectRatio="xMidYMid meet">
<metadata>
Created by potrace 1.10, written by Peter Selinger 2001-2011
</metadata>
<g transform="translate(0.000000,1024.000000) scale(0.100000,-0.100000)"
fill="#000000" stroke="none">
<path d="M4245 9926 c-38 -20 -77 -40 -85 -45 -8 -5 -27 -12 -41 -15 -18 -4
-37 -22 -58 -55 l-31 -48 6 -144 c4 -93 12 -154 21 -172 8 -16 13 -30 11 -32
-2 -2 -128 -10 -281 -18 -249 -13 -281 -16 -305 -34 -35 -26 -49 -66 -36 -101
8 -20 7 -35 -2 -57 -29 -68 -11 -135 55 -205 22 -24 41 -46 41 -49 0 -3 47
-57 104 -119 58 -62 107 -120 110 -130 3 -9 19 -66 36 -127 17 -60 44 -133 60
-161 30 -54 71 -193 90 -309 26 -157 27 -276 4 -950 -20 -573 -27 -700 -45
-805 -12 -68 -29 -135 -38 -149 -9 -14 -21 -39 -27 -56 -8 -25 -467 -636 -612
-815 -128 -158 -294 -443 -385 -661 -151 -361 -306 -955 -357 -1371 -61 -499
-44 -867 60 -1315 23 -98 50 -194 60 -213 10 -19 57 -165 105 -325 95 -320
132 -404 290 -655 140 -225 452 -618 503 -634 9 -3 537 -22 1172 -41 783 -24
1182 -40 1240 -49 47 -8 129 -17 182 -20 l97 -6 68 58 c161 139 331 339 439
515 31 51 71 108 89 127 18 19 103 170 190 335 87 165 163 307 170 315 7 8 36
60 65 115 29 55 59 107 66 115 21 26 205 421 246 530 89 238 185 614 230 905
26 168 36 569 19 752 -30 322 -112 651 -235 946 -63 151 -191 398 -266 512
-148 224 -172 252 -687 784 -368 379 -393 408 -387 434 11 50 7 142 -8 177
-13 31 -12 73 3 335 32 548 73 849 175 1291 30 133 43 167 104 287 50 97 70
147 70 174 0 35 13 52 185 237 186 200 211 236 194 283 -4 12 -28 48 -54 82
-51 67 -37 62 -234 81 -57 6 -127 10 -157 10 l-54 0 22 42 c17 32 24 68 29
143 3 55 13 119 22 142 14 38 14 42 -2 57 -23 21 -215 70 -381 98 -119 20
-162 21 -850 22 -399 1 -774 5 -835 10 l-110 8 -70 -36z m120 -225 l40 -8 -27
-13 c-71 -34 -34 -110 53 -110 33 0 79 38 79 65 0 9 -11 27 -25 40 l-24 25
767 -1 c662 0 783 -3 887 -17 l120 -17 5 -86 c4 -74 9 -91 32 -122 l28 -35
-68 -9 c-73 -8 -245 -9 -1285 -5 l-687 2 7 28 c3 15 7 82 7 149 l1 123 25 -1
c14 0 43 -4 65 -8z m2249 -493 c-10 -12 -92 -102 -180 -199 -89 -97 -167 -187
-174 -200 -7 -13 -17 -62 -21 -110 -5 -55 -15 -98 -28 -120 -10 -19 -31 -90
-46 -159 -15 -69 -31 -133 -37 -143 -5 -9 -13 -57 -19 -105 -5 -48 -15 -103
-23 -122 -34 -85 -55 -198 -86 -455 -34 -293 -39 -354 -50 -590 -5 -126 -15
-269 -21 -317 -17 -127 -8 -206 28 -259 38 -55 73 -135 73 -164 0 -17 140
-169 506 -552 278 -290 526 -557 550 -593 40 -59 42 -65 25 -68 -29 -5 -96
-89 -122 -153 -19 -45 -23 -73 -23 -169 -1 -106 2 -122 30 -195 61 -155 80
-453 40 -605 -24 -92 -57 -171 -73 -177 -34 -13 -40 21 -46 289 -8 343 -31
469 -122 677 -18 42 -41 103 -50 136 -10 34 -29 71 -45 86 -51 51 -150 50
-203 -2 -28 -29 -29 -33 -24 -89 4 -33 3 -61 -1 -63 -9 -6 -171 8 -178 16 -3
3 -14 38 -24 79 -16 62 -26 79 -63 113 -24 22 -50 53 -57 68 -30 61 -94 69
-177 21 -37 -22 -45 -32 -62 -88 -28 -90 -36 -158 -87 -716 -46 -510 -46 -511
-106 -642 -33 -73 -58 -87 -90 -50 -43 49 -43 47 -43 527 -1 509 -6 567 -76
856 -28 118 -33 131 -59 144 -35 18 -71 19 -142 4 -108 -23 -190 -88 -241
-192 -19 -40 -33 -57 -47 -57 -19 0 -24 17 -45 144 -7 45 -49 92 -90 102 -36
9 -77 -13 -153 -82 -86 -77 -130 -167 -157 -320 -24 -141 -124 -568 -138 -594
-8 -14 -20 -47 -26 -75 -7 -27 -34 -91 -62 -142 -27 -50 -49 -98 -49 -107 0
-19 -48 -76 -64 -76 -6 0 -28 29 -48 63 l-37 64 30 269 c25 233 33 281 61 359
31 86 32 97 32 235 0 125 -4 159 -26 244 -41 154 -76 188 -195 195 l-77 3
-153 -158 c-85 -88 -162 -175 -172 -195 -36 -73 -693 -979 -731 -1009 -40 -32
-110 -52 -110 -32 0 6 52 196 115 422 166 595 144 554 654 1227 319 423 410
549 467 654 l71 130 11 117 c6 64 11 191 12 282 0 91 13 455 28 810 19 428 26
670 21 720 -11 104 -45 203 -96 279 -38 55 -44 73 -49 135 -6 60 -17 92 -70
201 -69 143 -152 262 -270 385 l-77 80 249 1 c137 1 670 7 1184 13 514 7 1079
14 1254 14 l319 2 -19 -22z m-2541 -4247 c4 -5 15 -46 23 -92 18 -100 13 -211
-15 -321 -51 -198 -121 -553 -121 -611 0 -122 41 -226 124 -313 l43 -44 97 0
98 0 35 38 c133 142 238 357 278 566 13 71 152 611 170 665 9 24 35 -8 35 -43
0 -26 9 -36 51 -65 46 -31 59 -35 132 -39 67 -3 88 0 117 16 47 26 95 91 116
156 12 39 25 58 46 71 17 9 33 13 38 9 4 -5 13 -45 20 -88 7 -44 19 -90 27
-102 12 -19 14 -103 12 -566 -2 -527 -1 -545 19 -601 47 -130 195 -267 258
-239 39 19 166 145 205 206 82 126 102 216 124 556 9 140 27 367 41 504 20
204 28 252 42 262 9 8 19 14 22 14 14 0 28 -71 27 -133 -1 -61 2 -70 28 -97
38 -40 68 -47 217 -55 137 -7 163 -1 218 51 l26 24 33 -67 32 -66 19 -331 c27
-469 54 -589 149 -653 63 -42 151 -22 240 54 81 68 98 137 108 413 7 200 -6
353 -43 538 -14 67 -22 133 -19 145 9 35 68 157 75 157 9 0 77 -147 128 -275
90 -228 122 -348 169 -635 44 -266 45 -282 46 -500 1 -389 -35 -580 -201
-1072 -96 -284 -119 -345 -132 -339 -9 4 -381 -78 -880 -195 l-865 -203 -140
0 c-77 0 -513 11 -970 24 -738 21 -841 26 -926 44 -151 32 -294 78 -413 133
-61 27 -140 59 -176 70 -36 12 -68 23 -72 27 -4 3 -26 121 -49 261 -41 241
-43 268 -47 500 -5 314 20 615 68 838 l12 54 63 -4 63 -3 143 135 c140 132
153 148 557 688 396 531 415 554 440 547 15 -3 31 -10 35 -14z m3046 -3193
c-6 -13 -24 -36 -39 -53 -15 -16 -101 -165 -190 -330 -90 -165 -175 -316 -190
-335 -14 -19 -50 -78 -79 -130 -65 -115 -171 -275 -259 -390 -59 -77 -222
-270 -227 -270 -1 0 -20 6 -42 14 -31 11 -309 21 -1246 47 l-1207 33 -269 337
-269 336 -107 259 c-87 209 -135 351 -135 401 0 1 38 -16 86 -37 162 -75 612
-171 963 -205 182 -18 445 -19 1023 -4 l423 10 865 169 c476 92 875 169 888
169 20 1 22 -1 11 -21z"/>
<path d="M5007 9635 c-32 -22 -37 -31 -37 -64 0 -32 7 -45 40 -75 43 -38 78
-45 123 -25 31 14 51 51 42 78 -13 44 -88 111 -122 111 -5 0 -25 -11 -46 -25z"/>
<path d="M5664 9649 c-42 -12 -96 -64 -92 -86 3 -16 19 -19 123 -24 67 -4 124
-3 130 2 13 12 -21 74 -52 94 -31 21 -71 26 -109 14z"/>
<path d="M5940 9603 c-26 -22 -31 -31 -26 -56 14 -70 81 -116 151 -103 26 5
40 16 59 48 23 39 24 44 10 70 -35 68 -136 90 -194 41z"/>
<path d="M4673 9605 c-44 -19 -56 -46 -43 -95 14 -52 42 -70 108 -70 44 0 57
4 77 26 13 14 27 35 31 46 24 77 -81 133 -173 93z"/>
<path d="M5304 9600 c-31 -12 -37 -27 -35 -79 2 -54 4 -57 57 -66 37 -6 41 -4
52 20 20 43 15 83 -14 110 -30 27 -30 27 -60 15z"/>
<path d="M4337 8869 c-44 -10 -109 -42 -131 -64 -23 -24 -20 -58 9 -85 l25
-23 652 -20 653 -21 168 39 c155 36 168 41 174 64 7 27 -22 58 -61 65 -21 4
-1421 58 -1441 55 -5 0 -27 -5 -48 -10z"/>
<path d="M6234 3963 c3 -10 8 -30 12 -45 3 -16 10 -28 14 -28 5 0 2 20 -7 45
-14 42 -30 65 -19 28z"/>
<path d="M6352 1255 c-12 -9 -28 -39 -38 -70 -13 -46 -13 -59 -2 -82 17 -36
52 -53 110 -53 45 0 49 2 68 40 40 79 15 141 -69 169 -43 14 -42 14 -69 -4z"/>
<path d="M3487 1202 c-38 -39 -35 -75 7 -107 44 -34 92 -41 139 -21 81 33 64
119 -28 143 -72 18 -88 16 -118 -15z"/>
<path d="M5659 1117 c-22 -15 -35 -32 -37 -50 -3 -22 4 -31 44 -57 83 -52 145
-32 148 47 1 34 -3 40 -34 54 -62 30 -85 31 -121 6z"/>
<path d="M4240 1110 c-14 -14 -20 -33 -20 -66 0 -78 37 -116 91 -94 29 13 33
21 43 97 5 38 3 44 -23 62 -37 26 -65 27 -91 1z"/>
<path d="M4997 1062 c-40 -42 -37 -85 10 -129 33 -32 41 -35 82 -30 48 5 91
41 91 76 0 27 -37 69 -81 91 -51 27 -70 25 -102 -8z"/>
<path d="M5992 834 c-35 -25 -43 -55 -27 -114 29 -111 71 -128 145 -62 41 36
43 40 36 77 -5 26 -21 52 -46 77 -41 42 -72 48 -108 22z"/>
<path d="M4473 800 c-40 -16 -56 -54 -51 -120 7 -101 58 -145 137 -121 22 6
47 18 56 27 19 20 19 64 0 90 -8 10 -15 27 -15 37 0 31 -27 73 -55 85 -30 14
-42 14 -72 2z"/>
<path d="M3854 740 c-30 -12 -59 -81 -47 -116 22 -67 126 -93 178 -44 38 34
58 85 45 109 -20 39 -61 61 -109 60 -25 0 -55 -4 -67 -9z"/>
<path d="M5370 701 c-53 -13 -84 -147 -45 -191 21 -23 86 -45 108 -37 19 7 57
86 57 118 0 57 -71 122 -120 110z"/>
<path d="M5243 679 c-28 -10 -30 -29 -3 -22 20 5 36 21 29 27 -2 2 -14 0 -26
-5z"/>
</g>
</svg>
