<?xml version="1.0" standalone="no"?>
<!DOCTYPE svg PUBLIC "-//W3C//DTD SVG 20010904//EN"
 "http://www.w3.org/TR/2001/REC-SVG-20010904/DTD/svg10.dtd">
<svg version="1.0" xmlns="http://www.w3.org/2000/svg"
 width="1024.000000pt" height="1024.000000pt" viewBox="0 0 1024.000000 1024.000000"
 preserveAspectRatio="xMidYMid meet">
<metadata>
Created by potrace 1.10, written by Peter Selinger 2001-2011
</metadata>
<g transform="translate(0.000000,1024.000000) scale(0.100000,-0.100000)"
fill="#000000" stroke="none">
<path d="M6691 8784 c-36 -14 -121 -41 -190 -60 -121 -33 -178 -40 -1446 -168
l-1320 -134 -338 42 c-232 29 -341 39 -346 31 -5 -5 -16 -37 -26 -70 l-17 -60
111 -107 c162 -156 356 -278 444 -278 21 0 198 25 394 55 196 30 366 55 379
55 34 0 76 -111 93 -248 7 -58 -22 -1148 -31 -1157 -5 -5 -624 -75 -661 -75
-17 0 -81 20 -142 44 -60 25 -160 60 -222 79 l-112 35 -58 -28 c-32 -15 -69
-39 -82 -53 -27 -30 -30 -22 50 -117 56 -67 113 -155 139 -215 52 -121 50 -39
50 -2203 l0 -2008 -50 -383 c-44 -346 -48 -391 -39 -463 21 -166 86 -306 184
-397 37 -34 51 -41 86 -41 61 0 119 60 148 154 11 37 21 78 21 90 0 11 4 26 8
33 5 8 465 47 1437 122 787 61 1437 111 1446 111 10 0 21 -20 33 -57 62 -201
246 -299 344 -183 47 55 84 182 124 420 9 57 13 631 18 2430 5 2096 8 2361 21
2410 9 30 35 104 58 164 24 63 40 119 37 131 -9 36 -73 101 -209 212 -133 109
-211 157 -272 169 -39 7 -297 -60 -391 -102 -112 -50 -359 -101 -616 -128
l-58 -6 0 372 c0 385 7 474 39 568 11 30 24 102 30 160 13 124 3 173 -53 275
-21 39 -31 65 -23 65 6 0 235 18 507 40 272 22 565 44 651 50 176 11 244 28
294 71 38 34 61 93 51 133 -20 80 -200 206 -334 235 -72 15 -87 14 -161 -15z
m-1483 -646 c74 -256 74 -256 79 -833 l5 -521 -241 -29 c-132 -16 -242 -27
-244 -24 -2 2 10 284 26 626 l30 622 -71 83 c-54 64 -67 84 -54 87 13 3 365
51 438 60 6 0 21 -32 32 -71z m1349 -1544 c15 -12 39 -43 53 -70 l25 -48 0
-691 0 -690 -225 -43 c-210 -40 -234 -42 -355 -38 -148 5 -184 13 -252 59 -36
24 -56 47 -78 92 l-30 60 -3 658 c-2 624 -2 657 15 658 10 0 167 18 348 39
370 43 459 46 502 14z m-1267 -832 c0 -686 1 -722 20 -797 31 -122 88 -202
190 -267 66 -42 191 -79 290 -85 71 -4 551 28 793 53 l57 6 0 -685 0 -685 -47
-6 c-27 -3 -660 -62 -1408 -131 -748 -68 -1377 -126 -1397 -129 l-38 -4 0 462
0 462 184 192 c202 210 245 269 367 511 115 226 216 501 284 775 19 78 69 327
110 555 41 228 76 415 77 417 2 1 116 18 253 37 138 19 253 35 258 36 4 0 7
-322 7 -717z m-934 561 c-3 -21 -13 -96 -21 -168 -59 -489 -160 -1008 -260
-1325 -45 -141 -176 -431 -266 -590 l-54 -95 -3 1059 c-1 583 0 1061 3 1064 3
3 371 59 598 91 5 0 6 -16 3 -36z m2280 -3475 c-3 -57 -13 -330 -22 -608 -9
-278 -17 -506 -18 -507 -1 0 -615 -49 -1366 -107 -751 -58 -1391 -108 -1422
-112 l-58 -6 0 586 c0 322 3 586 8 587 4 0 648 60 1432 133 784 74 1431 134
1439 135 11 1 12 -18 7 -101z"/>
</g>
</svg>
