<?xml version="1.0" standalone="no"?>
<!DOCTYPE svg PUBLIC "-//W3C//DTD SVG 20010904//EN"
 "http://www.w3.org/TR/2001/REC-SVG-20010904/DTD/svg10.dtd">
<svg version="1.0" xmlns="http://www.w3.org/2000/svg"
 width="1024.000000pt" height="1024.000000pt" viewBox="0 0 1024.000000 1024.000000"
 preserveAspectRatio="xMidYMid meet">
<metadata>
Created by potrace 1.10, written by Peter Selinger 2001-2011
</metadata>
<g transform="translate(0.000000,1024.000000) scale(0.100000,-0.100000)"
fill="#000000" stroke="none">
<path d="M4769 8943 c-68 -29 -127 -57 -131 -61 -5 -5 17 -25 49 -45 122 -75
211 -173 288 -320 63 -119 93 -228 121 -432 13 -99 60 -441 103 -760 44 -319
79 -580 78 -581 -1 0 -317 -31 -702 -67 -385 -37 -1078 -103 -1540 -147 l-841
-81 -307 39 c-169 21 -309 37 -311 35 -1 -2 13 -58 33 -124 34 -117 37 -124
92 -178 55 -55 138 -107 216 -135 21 -8 64 -30 96 -49 31 -19 87 -43 123 -53
61 -16 71 -16 187 -1 67 10 286 39 487 67 607 82 1814 246 2174 295 186 26
342 43 346 38 4 -4 17 -64 29 -133 57 -316 186 -899 252 -1134 161 -573 391
-1163 660 -1691 160 -316 310 -558 507 -820 427 -568 1064 -1163 1457 -1360
227 -114 367 -115 409 -3 16 41 15 72 -28 698 -69 992 -84 1215 -91 1330 -8
129 -12 150 -29 150 -22 0 -63 -55 -80 -107 -8 -26 -50 -210 -91 -407 -42
-198 -90 -403 -107 -455 -90 -284 -224 -404 -388 -346 -199 70 -580 480 -903
970 -498 758 -827 1606 -1076 2775 -58 273 -116 579 -110 584 2 1 513 26 1134
55 1299 60 1316 61 1368 86 51 24 86 78 94 144 l6 52 -55 52 c-70 66 -123 95
-289 155 l-134 49 -1088 -119 c-599 -66 -1090 -118 -1093 -116 -7 8 -62 465
-79 658 -8 102 -20 298 -27 435 l-11 250 42 213 c46 240 47 236 -26 303 -49
45 -89 74 -190 137 -201 124 -338 186 -443 200 -55 8 -62 6 -181 -45z"/>
<path d="M6698 8868 c-27 -23 -29 -47 -5 -67 12 -10 83 -70 157 -132 248 -208
524 -491 680 -699 83 -109 174 -202 227 -229 106 -54 223 3 268 128 26 74 38
213 25 278 -15 70 -56 152 -111 215 -72 85 -278 205 -520 303 -126 52 -644
215 -681 215 -13 0 -31 -6 -40 -12z"/>
</g>
</svg>
