<?xml version="1.0" standalone="no"?>
<!DOCTYPE svg PUBLIC "-//W3C//DTD SVG 20010904//EN"
 "http://www.w3.org/TR/2001/REC-SVG-20010904/DTD/svg10.dtd">
<svg version="1.0" xmlns="http://www.w3.org/2000/svg"
 width="1024.000000pt" height="1024.000000pt" viewBox="0 0 1024.000000 1024.000000"
 preserveAspectRatio="xMidYMid meet">
<metadata>
Created by potrace 1.10, written by Peter Selinger 2001-2011
</metadata>
<g transform="translate(0.000000,1024.000000) scale(0.100000,-0.100000)"
fill="#000000" stroke="none">
<path d="M7830 8332 c-135 -85 -291 -193 -365 -253 -169 -136 -317 -243 -545
-394 -334 -221 -470 -290 -668 -341 -84 -22 -183 -32 -721 -71 -452 -32 -626
-42 -631 -34 -3 6 -14 84 -24 174 -24 220 -34 273 -61 327 -27 53 -117 140
-146 140 -33 0 -67 -22 -74 -47 -14 -59 33 -433 86 -675 16 -76 36 -188 44
-250 8 -70 33 -180 64 -287 28 -96 50 -175 49 -176 -2 -2 -102 6 -223 15 -185
15 -444 20 -1630 30 -1068 10 -1418 16 -1445 25 -42 15 -73 6 -112 -32 -38
-36 -45 -80 -20 -136 11 -24 25 -48 32 -52 6 -4 741 -18 1633 -31 892 -13
1671 -25 1730 -26 l108 -3 38 -115 c119 -356 278 -691 478 -1010 107 -171 848
-1121 1007 -1291 126 -136 237 -242 394 -376 102 -88 1804 -1414 1871 -1458
60 -40 114 -41 164 -2 47 36 60 59 48 89 -22 56 -338 317 -1211 1003 l-925
727 -412 476 c-497 574 -628 750 -830 1119 -112 203 -203 401 -293 633 -40
102 -74 190 -76 196 -4 8 347 13 1228 17 794 4 1265 11 1323 18 78 9 94 14
120 39 60 60 30 137 -71 180 -74 31 -23 32 -1441 -15 -585 -19 -1100 -35
-1145 -35 l-83 0 -76 288 -75 287 415 7 c580 10 700 23 941 103 290 96 842
420 1220 715 47 36 201 146 342 244 317 219 351 253 314 324 -17 34 -75 82
-97 82 -8 0 -120 -67 -249 -148z"/>
<path d="M9286 251 c-15 -6 -11 -9 21 -19 52 -16 53 -15 53 8 0 15 -6 20 -27
19 -16 0 -36 -4 -47 -8z"/>
</g>
</svg>
