<?xml version="1.0" standalone="no"?>
<!DOCTYPE svg PUBLIC "-//W3C//DTD SVG 20010904//EN"
 "http://www.w3.org/TR/2001/REC-SVG-20010904/DTD/svg10.dtd">
<svg version="1.0" xmlns="http://www.w3.org/2000/svg"
 width="1024.000000pt" height="1024.000000pt" viewBox="0 0 1024.000000 1024.000000"
 preserveAspectRatio="xMidYMid meet">
<metadata>
Created by potrace 1.10, written by Peter Selinger 2001-2011
</metadata>
<g transform="translate(0.000000,1024.000000) scale(0.100000,-0.100000)"
fill="#000000" stroke="none">
<path d="M6125 9795 c-16 -8 -48 -14 -70 -15 -46 -1 -75 -19 -75 -47 0 -11 -9
-28 -20 -38 -11 -10 -20 -28 -20 -41 0 -12 -3 -30 -6 -39 -6 -14 -8 -13 -21 5
-14 20 -21 20 -126 15 -86 -5 -368 11 -1216 69 l-1104 75 -331 -79 c-182 -44
-340 -84 -351 -89 -49 -21 -256 -175 -296 -219 -81 -90 -115 -237 -85 -366 13
-55 26 -80 67 -130 47 -56 61 -65 178 -118 94 -43 168 -68 291 -97 149 -36
236 -48 891 -121 399 -44 753 -87 785 -95 68 -18 149 -48 214 -80 25 -13 79
-39 120 -58 96 -44 262 -168 323 -239 26 -30 47 -60 47 -65 0 -6 7 -16 14 -23
8 -6 25 -33 37 -58 12 -26 30 -56 39 -67 10 -11 40 -85 69 -165 l52 -144 30
-281 c16 -154 36 -296 43 -315 8 -19 17 -54 21 -77 11 -66 26 -74 172 -85 70
-6 128 -11 129 -12 1 0 9 -670 18 -1487 l17 -1486 -22 -72 -21 -72 21 -847
c22 -893 34 -1174 55 -1336 12 -93 8 -374 -8 -573 -3 -38 0 -83 9 -118 10 -37
12 -62 6 -74 -20 -37 -32 -217 -21 -318 18 -174 28 -202 85 -245 90 -68 192
-96 309 -84 l65 7 55 86 c58 89 63 109 56 218 -1 21 4 87 10 145 l13 106 -36
115 -36 114 -41 3774 c-23 2075 -40 3774 -38 3776 2 1 206 -10 453 -27 248
-16 474 -27 503 -24 29 3 69 14 88 25 29 18 41 19 85 11 60 -12 82 -1 103 50
39 97 42 172 18 432 -11 111 -34 163 -95 212 -36 29 -39 29 -65 14 -23 -13
-76 -15 -403 -13 -270 2 -382 6 -399 15 -13 7 -37 9 -59 5 l-36 -6 25 25 c20
19 42 27 105 35 116 16 137 25 169 74 35 53 31 105 -11 149 -48 52 -98 66
-265 78 -230 16 -210 9 -238 87 -13 37 -25 77 -26 89 -11 106 -151 183 -249
139z m103 -125 c4 0 3 -46 -2 -102 -7 -67 -2 -733 12 -1982 13 -1035 22 -1912
21 -1951 l-1 -70 -18 77 c-26 114 -28 118 -58 99 -11 -6 -10 -27 2 -113 10
-62 16 -172 16 -267 0 -135 2 -163 15 -167 8 -4 22 -1 30 6 11 9 15 6 19 -22
3 -18 12 -429 21 -913 8 -484 18 -913 21 -952 4 -59 2 -72 -9 -67 -31 12 -38
-21 -35 -172 3 -144 4 -149 26 -159 l22 -10 -1 -290 c-2 -251 -3 -276 -11
-185 -9 107 -16 127 -41 117 -17 -6 -27 -72 -27 -177 0 -62 5 -86 24 -121 14
-26 29 -43 38 -41 13 2 16 -85 20 -715 5 -656 7 -722 24 -763 14 -38 17 -79
18 -247 l1 -203 -32 0 c-31 0 -31 0 -37 63 -3 34 -8 106 -12 159 -5 85 -8 98
-24 98 -27 0 -30 -19 -30 -167 0 -122 -2 -134 -16 -123 -20 18 -44 76 -44 109
0 15 9 63 21 107 14 52 19 96 15 129 -2 27 -9 97 -15 155 -6 58 -25 1028 -41
2155 -28 1876 -48 3149 -81 5195 -10 595 -10 825 0 1086 7 182 9 343 5 358 -6
25 -5 26 38 26 35 0 50 6 68 25 13 14 30 23 38 20 7 -3 17 -5 20 -5z m-1953
-30 c66 -6 183 -19 260 -30 77 -10 349 -40 605 -66 436 -43 472 -45 570 -34
173 18 179 20 196 49 9 15 13 18 9 6 -46 -140 -49 -166 -49 -411 -1 -163 -4
-237 -11 -228 -11 14 -262 131 -362 169 -73 28 -247 71 -318 80 -27 3 -277 23
-555 45 -278 22 -532 42 -565 45 -567 49 -697 57 -920 52 -126 -3 -243 -8
-260 -12 -29 -6 -28 -5 10 20 60 38 127 55 260 65 66 5 143 12 170 14 28 2
142 10 254 17 l204 13 811 -54 811 -54 210 27 c125 17 219 34 232 42 27 18 40
61 26 84 -14 23 -61 25 -172 7 -121 -20 -408 -46 -507 -46 -42 0 -370 27 -728
60 -358 33 -667 60 -686 61 -89 3 -554 -13 -628 -22 -176 -21 -365 -94 -450
-173 -81 -76 -137 -207 -123 -289 5 -31 17 -46 75 -92 38 -31 79 -57 90 -60
12 -2 176 -29 366 -60 190 -30 626 -101 970 -156 l625 -102 202 -78 c136 -52
220 -91 255 -117 29 -21 64 -45 78 -52 50 -27 236 -184 283 -239 44 -51 87
-125 87 -149 0 -5 7 -15 15 -22 8 -7 15 -25 15 -41 0 -16 6 -43 14 -61 43
-103 72 -340 78 -642 3 -151 2 -163 -9 -120 -7 27 -17 108 -23 179 -21 262
-38 351 -85 455 -24 52 -67 149 -95 215 -61 141 -112 216 -208 307 -80 75
-154 121 -285 177 -51 22 -141 63 -202 91 l-110 52 -910 129 c-1068 152 -1086
156 -1191 256 -47 45 -65 72 -82 120 -21 58 -22 65 -7 92 8 17 15 35 15 40 0
23 113 191 143 213 18 13 97 52 177 86 126 54 169 66 330 98 102 20 223 39
270 44 127 11 688 11 825 0z m2342 -271 c88 -8 136 -17 156 -30 l30 -17 -39
-11 c-21 -5 -68 -17 -103 -26 -35 -9 -78 -26 -96 -38 -43 -29 -88 -84 -80 -97
12 -19 -11 -10 -32 13 -45 49 -54 82 -42 152 13 76 -3 72 206 54z m-2842 -199
l860 -42 380 -64 380 -65 171 -69 c207 -84 245 -92 279 -60 l25 23 0 -72 c0
-70 45 -1616 53 -1814 l4 -99 -36 7 c-20 4 -37 8 -39 9 -1 2 -7 131 -12 287
-9 255 -14 304 -45 479 -42 228 -56 283 -97 363 -50 101 -97 154 -253 286
-176 150 -235 188 -421 277 -132 63 -154 70 -434 136 -292 69 -304 71 -1059
169 -814 105 -809 104 -841 163 -15 28 -4 66 33 113 20 25 23 25 106 20 47 -4
473 -25 946 -47z m3210 -211 c264 -17 481 -32 483 -34 2 -1 12 -39 22 -84 19
-77 29 -291 15 -291 -3 0 -18 9 -34 21 -27 20 -31 20 -536 10 -280 -5 -511 -9
-512 -7 -2 1 -6 98 -10 215 l-6 212 49 -6 c27 -3 265 -19 529 -36z"/>
<path d="M6130 9575 c-10 -12 -11 -66 -5 -237 10 -320 10 -424 -4 -588 -7 -80
-15 -269 -17 -421 -4 -242 -3 -277 11 -283 42 -16 43 -8 48 287 2 155 12 401
21 547 17 250 17 277 1 480 -9 118 -19 218 -22 222 -7 12 -19 9 -33 -7z"/>
<path d="M6118 7893 c-15 -39 -15 -382 1 -411 12 -23 47 -30 53 -11 2 6 0 49
-4 97 -4 48 -5 147 -2 220 7 131 6 132 -15 132 -14 0 -25 -9 -33 -27z"/>
<path d="M6141 7216 c-10 -12 -11 -60 -6 -216 7 -186 9 -201 28 -211 26 -14
33 -3 41 68 8 67 -22 343 -39 361 -10 11 -14 10 -24 -2z"/>
<path d="M6174 6535 c-4 -8 -3 -32 1 -53 4 -20 9 -135 12 -255 3 -184 6 -219
19 -224 38 -14 41 12 31 261 -5 132 -13 250 -18 263 -10 26 -37 31 -45 8z"/>
<path d="M6205 4860 c-4 -7 -11 -78 -16 -158 -7 -120 -6 -158 7 -207 18 -73
39 -106 59 -98 14 5 15 31 9 212 -4 113 -10 217 -14 231 -7 27 -34 38 -45 20z"/>
<path d="M6225 3968 c-3 -13 -4 -90 -3 -173 l3 -150 25 0 25 0 0 170 c0 168 0
170 -22 173 -16 2 -24 -3 -28 -20z"/>
<path d="M6245 1908 c-3 -8 -4 -92 -3 -188 3 -170 4 -175 24 -178 12 -2 23 3
26 10 2 7 2 92 -1 188 -5 156 -8 175 -24 178 -9 2 -19 -3 -22 -10z"/>
<path d="M6225 1078 c-3 -13 -5 -61 -3 -108 3 -73 6 -85 22 -88 33 -7 38 12
31 117 -7 89 -10 101 -26 101 -11 0 -21 -9 -24 -22z"/>
<path d="M5699 8758 c-30 -102 -18 -157 39 -179 19 -7 29 -5 44 8 25 22 48 66
48 90 0 63 -54 153 -90 153 -15 0 -24 -16 -41 -72z"/>
<path d="M5743 8422 c-7 -4 -20 -28 -28 -52 -22 -60 -12 -122 25 -163 27 -30
29 -31 55 -17 33 17 45 46 45 105 0 89 -52 156 -97 127z"/>
<path d="M6451 8901 c-15 -15 -19 -33 -19 -82 1 -35 6 -70 12 -78 20 -25 126
-69 197 -82 162 -29 379 58 379 152 0 25 -9 41 -40 71 l-41 38 -234 0 c-217 0
-236 -1 -254 -19z m296 -107 c-68 -13 -85 -13 -125 0 -46 14 -45 14 78 14
l125 0 -78 -14z"/>
<path d="M9652 1071 c-10 -6 -5 -11 19 -20 44 -15 49 -14 49 9 0 15 -7 20 -27
20 -16 0 -34 -4 -41 -9z"/>
</g>
</svg>
