<?xml version="1.0" standalone="no"?>
<!DOCTYPE svg PUBLIC "-//W3C//DTD SVG 20010904//EN"
 "http://www.w3.org/TR/2001/REC-SVG-20010904/DTD/svg10.dtd">
<svg version="1.0" xmlns="http://www.w3.org/2000/svg"
 width="1024.000000pt" height="1024.000000pt" viewBox="0 0 1024.000000 1024.000000"
 preserveAspectRatio="xMidYMid meet">
<metadata>
Created by potrace 1.10, written by Peter Selinger 2001-2011
</metadata>
<g transform="translate(0.000000,1024.000000) scale(0.100000,-0.100000)"
fill="#000000" stroke="none">
<path d="M6339 9281 c-69 -15 -159 -42 -200 -59 -126 -52 -305 -89 -519 -107
-81 -7 -1319 -129 -1717 -170 -299 -31 -305 -31 -382 1 -35 14 -154 50 -264
81 l-201 55 -69 -33 c-38 -19 -71 -37 -74 -42 -2 -4 42 -54 99 -110 89 -87
111 -116 151 -193 58 -114 94 -245 108 -394 8 -91 50 -1798 44 -1807 -3 -6
-1256 -165 -1261 -161 -1 2 -25 75 -52 162 -46 143 -58 169 -118 258 -67 98
-68 98 -87 79 -20 -19 -20 -21 -2 -155 l19 -136 -33 -192 c-20 -113 -46 -226
-63 -273 -41 -114 -110 -252 -153 -308 -132 -173 -162 -427 -79 -688 17 -54
37 -93 59 -117 30 -33 39 -37 82 -37 60 0 107 33 167 119 154 219 265 552 284
847 l7 114 295 42 c267 39 375 54 710 99 158 21 627 81 775 99 438 52 577 68
975 110 586 62 1342 123 1915 155 320 17 929 33 978 26 70 -11 127 -63 127
-118 0 -76 -95 -275 -304 -637 -85 -147 -106 -191 -106 -222 0 -21 4 -39 9
-39 16 0 572 268 641 309 166 98 337 163 478 180 94 12 165 39 181 69 34 63
-11 178 -125 322 -98 124 -366 388 -450 443 -119 78 -169 88 -333 67 -60 -8
-320 -32 -1029 -95 l-63 -6 6 48 c35 284 38 359 45 1003 7 760 2 711 103 935
l54 120 -47 55 c-129 148 -246 258 -308 289 -86 43 -125 45 -273 12z m-33
-434 c48 -52 54 -100 54 -452 0 -246 -3 -315 -13 -315 -6 0 -295 -43 -640 -95
-346 -52 -643 -95 -661 -95 -18 0 -109 22 -203 50 l-170 50 -64 -21 c-35 -11
-70 -23 -77 -25 -8 -2 11 -24 45 -53 74 -60 103 -95 152 -179 43 -73 84 -185
108 -296 19 -90 32 -756 14 -756 -6 0 -261 -25 -566 -55 -306 -30 -562 -55
-570 -55 -13 0 -15 134 -15 1018 l0 1018 1248 151 c686 84 1265 150 1287 148
30 -3 48 -12 71 -38z m51 -1329 c-3 -139 -12 -289 -19 -333 -12 -73 -11 -93 9
-219 12 -76 24 -145 27 -152 3 -8 0 -14 -7 -14 -7 0 -262 -22 -567 -50 -305
-27 -556 -50 -557 -50 -2 0 -3 206 -3 458 l0 458 528 76 c290 42 542 76 561
77 l33 1 -5 -252z"/>
<path d="M5985 5984 c-16 -3 -106 -21 -200 -40 -153 -31 -469 -80 -1431 -220
l-312 -45 -98 39 c-55 22 -159 58 -233 81 l-134 43 -88 -38 c-49 -20 -89 -41
-89 -46 0 -6 34 -58 76 -117 81 -112 130 -206 160 -306 17 -56 18 -143 21
-1434 l4 -1374 -26 -281 c-14 -155 -35 -348 -46 -430 -21 -150 -20 -198 3
-316 28 -145 162 -345 256 -381 38 -15 94 4 125 41 35 42 65 127 84 239 13 80
17 220 20 863 l5 768 26 0 c15 0 445 34 957 75 511 41 944 75 962 75 l33 0 0
-598 c0 -662 -2 -680 -59 -721 -40 -29 -82 -27 -429 15 l-295 36 -21 -22 -21
-21 25 -20 c269 -218 352 -291 500 -439 96 -96 186 -194 200 -218 72 -126 157
-192 243 -192 33 0 46 7 74 36 61 66 118 201 173 419 74 289 70 171 70 2051 0
1837 -1 1812 55 1947 67 160 95 241 90 258 -15 47 -209 159 -410 236 -90 35
-192 49 -270 37z m5 -362 c69 -34 70 -39 70 -489 l0 -401 -47 -6 c-27 -4 -451
-44 -943 -91 -492 -47 -916 -87 -942 -91 l-48 -6 0 435 c0 312 3 438 11 443
19 12 1699 222 1784 223 58 1 90 -4 115 -17z m70 -1665 l0 -473 -967 -72
c-533 -40 -978 -73 -991 -72 l-22 0 2 447 3 447 725 72 c399 40 833 83 965 97
132 13 250 25 263 26 l22 1 0 -473z"/>
</g>
</svg>
