<?xml version="1.0" standalone="no"?>
<!DOCTYPE svg PUBLIC "-//W3C//DTD SVG 20010904//EN"
 "http://www.w3.org/TR/2001/REC-SVG-20010904/DTD/svg10.dtd">
<svg version="1.0" xmlns="http://www.w3.org/2000/svg"
 width="1024.000000pt" height="1024.000000pt" viewBox="0 0 1024.000000 1024.000000"
 preserveAspectRatio="xMidYMid meet">
<metadata>
Created by potrace 1.10, written by Peter Selinger 2001-2011
</metadata>
<g transform="translate(0.000000,1024.000000) scale(0.100000,-0.100000)"
fill="#000000" stroke="none">
<path d="M6514 9720 c-28 -11 -63 -56 -70 -89 -3 -14 -9 -42 -15 -61 -5 -19
-16 -89 -24 -155 -8 -66 -21 -156 -30 -200 -9 -44 -20 -126 -25 -182 -4 -56
-12 -108 -16 -114 -4 -7 -19 -361 -34 -787 l-26 -775 23 -196 c37 -319 70
-405 304 -796 133 -223 337 -515 543 -781 115 -147 128 -169 158 -255 63 -185
36 -363 -71 -456 -29 -25 -68 -49 -89 -54 -20 -5 -189 -9 -374 -9 l-338 0 0
43 c0 42 -13 104 -30 142 -5 11 -10 25 -12 32 -8 31 -348 430 -403 472 -78 61
-169 116 -246 147 -58 24 -83 26 -427 43 l-366 18 -207 -48 c-373 -86 -566
-185 -777 -398 -85 -85 -124 -158 -166 -302 l-28 -97 -102 32 c-136 43 -188
71 -242 129 -105 111 -147 289 -109 465 41 198 86 261 427 598 151 149 286
286 300 305 33 43 68 134 113 300 48 171 73 348 86 604 6 116 48 666 94 1224
62 764 80 1022 73 1049 -13 48 -59 93 -87 85 -51 -13 -47 22 -176 -1588 -48
-588 -91 -1092 -96 -1120 -5 -27 -22 -118 -38 -201 -15 -82 -35 -161 -43 -175
-9 -13 -19 -38 -22 -54 -5 -24 -75 -97 -292 -305 -157 -151 -306 -302 -331
-335 -91 -121 -141 -247 -169 -429 -19 -127 -14 -209 21 -308 27 -79 97 -182
155 -228 23 -18 38 -36 33 -40 -4 -4 -42 -20 -83 -35 -62 -23 -87 -39 -143
-94 -105 -101 -182 -229 -216 -356 -15 -56 -61 -404 -61 -460 0 -25 9 -71 19
-103 10 -31 22 -73 26 -92 18 -86 51 -125 224 -258 126 -96 194 -141 281 -183
l115 -56 60 -84 c52 -74 65 -102 97 -209 l37 -125 36 -1130 c19 -621 36 -1167
38 -1212 2 -90 15 -114 69 -127 21 -5 31 -1 47 20 35 45 42 93 32 211 -6 59
-17 529 -26 1043 -18 1098 -25 1217 -85 1396 -51 150 -82 206 -160 284 -57 57
-88 77 -240 154 -96 48 -198 105 -227 127 -98 73 -193 235 -193 329 0 148 64
459 118 574 27 57 105 170 135 194 7 6 71 20 143 32 71 11 143 22 161 25 26 5
38 0 68 -26 20 -18 47 -54 61 -81 24 -47 62 -75 89 -64 8 3 22 -60 43 -196 27
-168 36 -205 57 -232 14 -18 25 -40 25 -48 0 -8 58 -71 129 -141 125 -122 130
-126 187 -137 33 -6 283 -21 556 -34 l498 -24 160 35 160 35 177 100 c113 63
198 118 233 151 90 85 201 210 215 243 8 17 21 37 30 44 22 18 83 110 115 173
24 45 26 47 70 47 43 0 44 0 22 -16 -12 -8 -22 -24 -22 -34 0 -15 10 -20 58
-25 31 -4 64 -8 72 -11 20 -5 46 34 32 48 -6 6 -34 16 -64 23 -53 13 -53 13
62 14 73 0 107 -3 94 -9 -12 -4 -24 -18 -27 -29 -4 -18 4 -25 49 -47 67 -32
98 -29 102 8 2 19 -5 36 -22 53 l-25 25 151 0 c358 0 455 -67 387 -268 -41
-121 -129 -229 -252 -308 -37 -25 -181 -129 -320 -233 -323 -241 -407 -329
-506 -528 -45 -91 -127 -335 -137 -408 -4 -27 -14 -60 -22 -73 -18 -28 -24
-61 -62 -372 -29 -243 -29 -250 -32 -825 -1 -418 1 -608 10 -680 7 -55 17
-196 21 -312 4 -117 10 -215 13 -218 6 -6 120 15 131 25 5 4 -1 223 -13 486
l-22 479 22 570 c20 518 24 580 46 685 33 153 77 311 126 445 54 147 78 192
140 266 29 34 70 85 91 113 22 30 67 71 111 101 159 107 634 475 684 529 57
63 113 170 132 255 26 114 -16 249 -103 327 -27 24 -54 44 -61 44 -6 0 -17 4
-25 9 -12 7 2 28 65 98 66 73 86 103 114 171 32 81 33 86 27 190 -7 123 -39
247 -91 350 -42 83 -82 138 -167 233 -150 166 -227 274 -391 541 -182 295
-221 364 -313 545 l-74 148 -7 116 c-3 64 -1 444 6 845 l12 729 49 393 c35
280 57 416 74 470 33 104 32 133 -6 177 -34 38 -34 38 -65 25z m-1009 -4189
c130 -22 239 -62 351 -128 68 -40 104 -73 219 -197 176 -191 200 -237 200
-376 0 -94 -1 -96 -64 -245 -70 -166 -107 -220 -238 -346 -124 -121 -293 -222
-463 -277 -139 -45 -213 -52 -562 -52 l-330 0 -222 41 c-244 45 -219 33 -306
141 -56 67 -86 148 -132 348 -37 166 -42 199 -42 315 -1 228 20 272 211 443
115 102 141 120 258 178 138 67 286 121 425 153 124 28 535 29 695 2z"/>
<path d="M5831 5142 c-8 -16 -7 -40 5 -99 5 -28 81 -53 95 -31 14 21 11 30
-27 91 -37 59 -57 70 -73 39z"/>
<path d="M5872 4888 c-7 -7 -12 -29 -12 -50 0 -29 6 -41 25 -54 24 -16 27 -16
45 1 13 12 20 31 20 55 0 41 -14 60 -45 60 -12 0 -26 -5 -33 -12z"/>
<path d="M5809 4643 c-25 -60 -20 -75 27 -71 32 3 38 8 51 41 14 35 14 39 -2
57 -30 33 -54 25 -76 -27z"/>
<path d="M5796 4450 c-50 -53 -57 -75 -27 -85 32 -10 69 5 101 41 35 40 37 55
12 77 -27 25 -35 22 -86 -33z"/>
<path d="M5638 4224 c-21 -26 -38 -50 -38 -54 0 -4 14 -13 30 -20 40 -16 73
-2 100 42 l19 32 -21 23 c-31 33 -48 29 -90 -23z"/>
<path d="M6172 9478 c-7 -7 -12 -29 -12 -49 0 -28 6 -40 26 -54 24 -16 27 -16
45 1 22 20 26 83 7 102 -7 7 -21 12 -33 12 -12 0 -26 -5 -33 -12z"/>
<path d="M6152 9248 c-7 -7 -12 -33 -12 -58 0 -39 4 -49 23 -57 15 -7 29 -7
45 0 18 9 22 18 22 58 0 38 -4 51 -19 59 -26 13 -44 13 -59 -2z"/>
<path d="M6148 8919 c-13 -7 -18 -23 -18 -59 0 -55 18 -80 56 -80 30 0 55 43
36 62 -7 7 -12 23 -12 36 0 14 -8 31 -17 38 -22 16 -23 16 -45 3z"/>
<path d="M6130 8662 c-19 -16 -22 -24 -16 -55 11 -57 67 -78 88 -32 9 21 7 30
-17 65 -15 22 -29 40 -30 40 -2 0 -13 -8 -25 -18z"/>
<path d="M6148 8478 c-9 -7 -20 -34 -23 -60 l-7 -47 36 -7 c21 -3 40 -4 43 -1
3 3 8 27 11 52 4 37 1 49 -14 60 -24 18 -26 18 -46 3z"/>
<path d="M6169 8233 c-10 -3 -23 -25 -33 -60 -8 -31 -15 -58 -13 -59 1 -1 18
-5 38 -9 36 -7 37 -6 52 40 9 25 14 51 11 58 -6 18 -36 34 -55 30z"/>
<path d="M6137 7932 c-11 -12 -17 -36 -17 -70 0 -51 0 -51 35 -58 20 -3 38 -4
41 -2 2 3 7 28 11 57 5 41 2 55 -12 71 -22 25 -37 25 -58 2z"/>
<path d="M6132 7708 c-5 -7 -13 -34 -17 -59 l-7 -46 36 -7 c48 -9 56 -3 56 48
0 58 -41 96 -68 64z"/>
<path d="M6050 7415 c-22 -26 5 -108 42 -130 31 -18 32 -18 50 5 23 28 23 25
-12 88 -31 54 -56 66 -80 37z"/>
<path d="M6097 7073 c-4 -3 -7 -28 -7 -54 0 -40 4 -51 24 -64 27 -18 55 -11
65 19 19 49 -50 132 -82 99z"/>
<path d="M6201 7024 c0 -11 3 -14 6 -6 3 7 2 16 -1 19 -3 4 -6 -2 -5 -13z"/>
<path d="M6155 6814 c-32 -49 6 -119 62 -112 26 3 28 6 26 46 -4 82 -53 119
-88 66z"/>
<path d="M6241 6528 c-21 -8 -23 -13 -19 -58 8 -79 71 -131 98 -81 7 14 6 35
-2 70 -13 59 -40 83 -77 69z"/>
<path d="M6450 6413 c0 -6 8 -17 18 -24 16 -13 16 -13 2 6 -8 11 -16 22 -17
24 -2 2 -3 0 -3 -6z"/>
<path d="M6344 6306 c-3 -8 4 -35 15 -60 17 -39 24 -46 48 -46 15 0 37 7 48
15 18 15 17 17 -25 60 -45 46 -76 57 -86 31z"/>
<path d="M6480 6152 c-20 -16 -21 -21 -11 -60 17 -61 70 -82 105 -43 20 22 18
27 -28 83 -36 44 -37 44 -66 20z"/>
<path d="M6625 6010 c-9 -14 4 -111 17 -127 16 -20 66 -16 77 5 8 14 2 31 -23
73 -32 53 -57 71 -71 49z"/>
<path d="M6781 5854 c-26 -19 -27 -49 -1 -92 31 -51 100 -69 120 -32 16 30 6
50 -49 97 -45 39 -50 41 -70 27z"/>
<path d="M6990 5677 c0 -16 40 -70 47 -63 6 5 -24 63 -37 71 -5 3 -10 0 -10
-8z"/>
<path d="M6896 5665 c-34 -35 -9 -98 44 -110 60 -13 79 33 33 75 -56 51 -59
52 -77 35z"/>
<path d="M6963 5499 c-19 -20 -20 -24 -7 -71 7 -28 15 -52 18 -55 3 -3 -7 -22
-23 -42 -43 -56 -44 -59 -16 -77 37 -24 71 -11 96 37 13 27 17 45 11 51 -7 7
-5 22 4 45 13 31 13 38 -3 70 -10 20 -27 42 -38 50 -18 11 -24 10 -42 -8z"/>
<path d="M6813 5040 c-27 -11 -40 -54 -23 -75 24 -29 146 -14 156 18 15 46
-70 82 -133 57z"/>
<path d="M6500 4990 c-10 -19 -8 -20 55 -20 68 0 85 13 39 30 -42 16 -82 12
-94 -10z"/>
<path d="M6917 4512 c-15 -16 -23 -42 -14 -42 2 0 31 -11 66 -24 l62 -25 8 22
c11 27 -1 42 -50 68 -47 23 -52 24 -72 1z"/>
<path d="M7122 4468 c-5 -7 -12 -34 -16 -59 l-7 -47 37 -7 c43 -8 54 3 54 56
0 51 -43 87 -68 57z"/>
<path d="M7003 4258 c-5 -7 -16 -28 -23 -47 -12 -30 -12 -35 5 -47 26 -19 26
-19 64 27 32 39 32 41 15 60 -20 22 -47 25 -61 7z"/>
<path d="M6754 4060 c-28 -11 -74 -67 -74 -90 0 -14 10 -21 33 -25 28 -6 39
-2 66 24 18 17 40 31 47 31 23 0 28 29 9 50 -19 21 -46 24 -81 10z"/>
<path d="M6459 3813 c-5 -15 -9 -43 -7 -62 2 -29 8 -36 32 -42 16 -5 33 -6 38
-3 4 3 8 31 8 64 0 43 -4 59 -16 64 -30 11 -45 6 -55 -21z"/>
<path d="M6112 3598 c-5 -7 -12 -22 -14 -33 -3 -17 5 -21 56 -28 48 -7 62 -5
74 7 14 14 14 18 -8 41 -26 28 -89 35 -108 13z"/>
<path d="M6026 3312 c-33 -48 -34 -79 -1 -94 34 -15 71 11 85 59 9 34 8 40
-11 56 -31 25 -43 21 -73 -21z"/>
<path d="M5956 3039 c-13 -65 -8 -96 17 -103 53 -14 57 -10 57 52 0 62 -11 82
-46 82 -16 0 -23 -8 -28 -31z"/>
<path d="M5900 2800 c-30 -30 -27 -100 4 -137 20 -23 28 -26 43 -17 26 16 32
143 7 161 -24 17 -31 16 -54 -7z"/>
<path d="M5832 2408 c-20 -20 -15 -112 6 -131 26 -24 47 -21 60 8 18 39 14 79
-9 109 -22 28 -39 32 -57 14z"/>
<path d="M5863 2172 c-7 -4 -22 -35 -33 -67 -19 -56 -20 -61 -3 -72 43 -32 70
-11 84 62 10 53 9 60 -7 72 -21 15 -25 15 -41 5z"/>
<path d="M5825 1925 c-22 -25 -42 -81 -32 -91 2 -3 21 -7 41 -11 32 -5 37 -3
46 21 23 61 22 72 -4 90 -26 16 -27 16 -51 -9z"/>
<path d="M5808 1689 c-13 -7 -18 -23 -18 -59 0 -49 0 -49 37 -56 29 -5 39 -3
50 11 19 28 16 50 -13 84 -28 34 -31 35 -56 20z"/>
<path d="M5792 1453 c-16 -29 -2 -83 25 -100 23 -15 26 -15 48 8 l24 24 -27
42 c-28 45 -55 55 -70 26z"/>
<path d="M5808 1298 c-21 -16 -35 -103 -18 -113 8 -5 8 -10 0 -20 -6 -8 -14
-38 -17 -68 l-5 -54 41 -7 c23 -3 46 -4 52 -1 13 9 11 51 -5 90 -13 29 -13 35
0 46 9 7 14 31 14 65 0 42 -4 55 -19 64 -24 13 -24 13 -43 -2z"/>
<path d="M5812 994 c-19 -13 -22 -24 -20 -57 3 -35 7 -43 30 -51 22 -8 32 -6
48 9 28 25 27 79 -2 99 -28 20 -28 20 -56 0z"/>
</g>
</svg>
