<?xml version="1.0" standalone="no"?>
<!DOCTYPE svg PUBLIC "-//W3C//DTD SVG 20010904//EN"
 "http://www.w3.org/TR/2001/REC-SVG-20010904/DTD/svg10.dtd">
<svg version="1.0" xmlns="http://www.w3.org/2000/svg"
 width="1024.000000pt" height="1024.000000pt" viewBox="0 0 1024.000000 1024.000000"
 preserveAspectRatio="xMidYMid meet">
<metadata>
Created by potrace 1.10, written by Peter Selinger 2001-2011
</metadata>
<g transform="translate(0.000000,1024.000000) scale(0.100000,-0.100000)"
fill="#000000" stroke="none">
<path d="M4460 9019 c-173 -21 -351 -48 -395 -59 -171 -43 -341 -150 -466
-293 -62 -70 -66 -78 -78 -148 -6 -41 -27 -122 -46 -181 -19 -59 -35 -114 -35
-122 0 -7 -15 -47 -34 -87 -34 -75 -66 -195 -66 -246 0 -15 -30 -184 -66 -375
-59 -307 -65 -352 -54 -379 34 -80 177 -79 220 2 6 10 74 308 151 661 77 354
149 662 160 685 53 111 175 194 293 201 34 2 534 18 1111 37 897 28 1061 31
1124 20 86 -15 83 -11 170 -165 141 -248 182 -377 266 -840 37 -201 69 -367
71 -369 3 -3 19 1 37 7 47 17 58 15 132 -14 36 -15 68 -24 71 -22 9 10 -36
345 -65 489 -55 264 -167 610 -222 689 -18 24 -38 71 -46 104 -30 131 -122
250 -237 306 -39 19 -127 44 -242 69 l-182 40 -473 10 c-261 6 -544 13 -629
15 -136 4 -193 -1 -470 -35z"/>
<path d="M5325 8374 c-115 -8 -227 -20 -248 -25 -51 -13 -105 -63 -117 -107
-9 -35 -70 -812 -70 -897 l0 -40 -308 -143 -307 -142 -388 -109 c-429 -120
-420 -116 -510 -227 -88 -109 -179 -290 -202 -404 -4 -19 -64 -140 -133 -268
-125 -229 -134 -243 -705 -1033 -632 -874 -614 -845 -562 -907 21 -26 34 -32
65 -32 35 0 46 8 161 128 140 144 286 315 404 474 112 150 931 1423 951 1478
10 25 36 95 59 155 23 61 50 131 59 156 22 61 78 125 135 153 26 13 92 31 151
40 287 46 826 258 1183 464 l88 51 53 -34 c129 -82 193 -99 686 -180 240 -40
431 -77 490 -95 233 -72 539 -136 800 -169 152 -19 160 -24 160 -108 0 -23 9
-81 20 -128 11 -47 20 -115 20 -151 0 -53 30 -178 160 -659 101 -379 176 -636
206 -712 152 -386 388 -844 460 -891 47 -31 140 -31 179 0 23 18 26 26 21 56
-3 19 -74 159 -159 311 -85 152 -158 287 -162 301 -4 14 -36 93 -70 175 -35
83 -95 259 -135 395 -40 135 -90 301 -112 370 -101 318 -180 714 -213 1068 -6
62 -12 79 -37 108 -21 23 -39 34 -58 34 -58 0 -341 53 -505 95 -93 24 -246 68
-340 98 -149 49 -243 69 -765 168 -327 62 -596 114 -598 115 -2 1 2 30 7 65 6
35 15 219 21 409 6 189 12 345 13 347 1 1 108 5 237 9 227 7 236 8 275 32 50
31 55 38 55 85 0 79 -54 125 -153 132 -29 2 -146 -3 -262 -11z"/>
<path d="M5205 6159 c-434 -52 -885 -250 -1277 -561 -57 -44 -162 -140 -233
-212 -118 -118 -148 -156 -299 -379 -180 -267 -249 -399 -350 -679 -95 -263
-193 -668 -183 -758 7 -64 49 -100 117 -100 27 0 52 5 55 11 4 6 31 103 60
217 108 418 220 722 368 993 l101 187 56 -47 c138 -115 202 -192 295 -351 111
-193 282 -535 368 -740 36 -85 96 -254 134 -374 60 -193 72 -225 104 -258 29
-31 43 -38 73 -38 41 0 69 12 104 43 36 33 29 87 -34 264 -164 465 -449 1083
-613 1333 -65 100 -203 240 -295 301 -43 28 -63 47 -58 55 22 39 176 203 258
275 160 140 316 245 515 344 86 44 119 54 119 37 0 -5 59 -71 130 -146 167
-177 271 -307 386 -481 108 -164 234 -400 234 -438 0 -14 5 -29 11 -33 26 -16
79 -158 99 -266 25 -133 33 -153 80 -184 56 -39 144 -27 171 22 12 22 10 40
-8 132 -42 206 -131 435 -240 624 -33 57 -84 148 -113 203 -82 154 -232 349
-398 516 -118 120 -141 148 -126 153 11 3 134 32 275 65 l256 60 202 -10 203
-10 265 -85 c146 -46 266 -84 268 -84 9 0 128 -169 167 -236 46 -79 46 -79 52
-199 3 -66 10 -147 16 -180 14 -87 12 -182 -5 -250 -17 -65 -152 -332 -260
-515 -98 -166 -243 -383 -353 -528 -222 -294 -255 -340 -316 -441 -35 -58
-125 -222 -200 -365 -75 -142 -154 -283 -176 -314 -22 -30 -40 -60 -40 -66 0
-6 -22 -56 -49 -111 -85 -172 -173 -459 -215 -705 -43 -248 -45 -522 -5 -785
11 -77 24 -206 28 -287 7 -161 15 -181 88 -242 61 -51 120 -39 158 33 20 40
21 173 1 247 -55 210 -82 515 -66 763 10 147 18 195 71 421 37 157 68 266 81
283 11 16 22 45 25 65 8 44 170 389 206 436 14 18 34 58 44 88 13 38 165 268
514 779 479 700 557 818 594 904 60 138 67 167 95 370 35 248 37 304 10 436
-85 415 -275 604 -740 738 -181 52 -266 63 -505 66 -121 2 -256 -1 -300 -6z"/>
</g>
</svg>
