<?xml version="1.0" standalone="no"?>
<!DOCTYPE svg PUBLIC "-//W3C//DTD SVG 20010904//EN"
 "http://www.w3.org/TR/2001/REC-SVG-20010904/DTD/svg10.dtd">
<svg version="1.0" xmlns="http://www.w3.org/2000/svg"
 width="1024.000000pt" height="1024.000000pt" viewBox="0 0 1024.000000 1024.000000"
 preserveAspectRatio="xMidYMid meet">
<metadata>
Created by potrace 1.10, written by Peter Selinger 2001-2011
</metadata>
<g transform="translate(0.000000,1024.000000) scale(0.100000,-0.100000)"
fill="#000000" stroke="none">
<path d="M5259 9125 c-62 -17 -66 -19 -93 -73 -62 -122 -89 -278 -61 -352 9
-25 17 -54 16 -65 -4 -76 -2 -98 10 -111 10 -9 190 -40 534 -90 286 -42 521
-78 523 -79 5 -4 -91 -220 -115 -259 -14 -22 -55 -121 -90 -220 -35 -100 -77
-201 -92 -226 -15 -25 -89 -196 -165 -380 -76 -184 -151 -361 -167 -392 -16
-32 -29 -65 -29 -74 0 -9 -13 -38 -28 -63 -15 -25 -54 -107 -86 -181 -73 -169
-92 -206 -126 -250 -23 -30 -811 -1808 -846 -1910 -7 -19 -19 -36 -27 -38 -8
-2 -213 27 -456 63 -243 36 -449 65 -458 63 -9 -2 -24 -23 -35 -47 -18 -43
-18 -43 1 -38 24 6 33 31 -99 -273 -56 -129 -120 -282 -142 -340 -22 -58 -46
-112 -53 -120 -7 -8 -34 -70 -59 -138 -34 -92 -122 -263 -354 -690 -170 -312
-334 -605 -364 -652 -66 -101 -117 -201 -148 -290 -13 -36 -88 -187 -167 -335
-79 -149 -143 -277 -143 -284 0 -8 -9 -28 -19 -45 -18 -30 -171 -360 -171
-370 0 -2 25 -19 55 -36 66 -38 111 -34 153 12 56 62 70 74 133 119 168 122
179 135 829 969 255 327 502 638 548 690 113 128 220 272 298 402 42 70 71
108 82 108 38 -1 1172 -167 1178 -172 13 -13 -71 -129 -704 -967 l-657 -870
-59 -161 c-54 -148 -58 -163 -45 -188 50 -101 91 -97 316 31 34 19 72 39 85
43 12 3 118 88 235 188 l212 181 668 811 c367 446 705 860 750 920 45 60 117
149 160 198 79 88 80 90 75 135 -2 25 8 190 22 366 14 176 25 349 25 384 l1
63 -56 -7 c-34 -4 -66 -2 -82 4 -15 6 -220 47 -456 91 -236 44 -430 81 -432
83 -1 1 33 83 77 182 44 99 292 695 551 1325 258 630 475 1154 482 1165 7 11
52 126 101 255 73 194 327 774 422 964 13 26 25 61 25 77 1 16 6 29 12 29 6 0
292 -33 636 -74 l625 -73 135 14 c74 7 156 20 181 28 53 18 118 76 144 131 29
61 65 213 65 275 0 107 -74 169 -202 169 -59 0 -69 -3 -85 -24 l-18 -23 -70
24 c-52 17 -435 77 -1461 228 -766 113 -1393 205 -1395 204 -2 0 -25 -7 -50
-14z m1565 -405 c710 -105 1291 -192 1293 -193 3 -4 -33 -226 -38 -231 -2 -2
-188 14 -413 35 -322 31 -430 44 -504 65 -92 25 -101 25 -279 18 -168 -6 -185
-5 -203 11 -19 18 -20 17 -44 -36 -13 -30 -119 -250 -235 -489 -117 -239 -219
-462 -227 -495 -9 -33 -22 -67 -29 -75 -14 -16 -288 -618 -311 -685 -8 -22
-23 -58 -34 -80 -10 -22 -26 -62 -36 -90 -10 -27 -30 -63 -45 -78 -21 -21 -85
-171 -251 -593 -130 -333 -233 -579 -248 -599 -16 -20 -35 -68 -49 -122 -28
-106 -134 -358 -166 -393 -13 -14 -50 -100 -83 -195 -33 -93 -63 -178 -67
-187 -5 -12 -18 -18 -39 -18 -18 0 -37 -5 -43 -11 -16 -16 -87 -2 -118 23 -31
24 -32 60 -4 113 50 93 59 117 92 230 25 86 56 161 110 265 46 88 113 245 172
399 53 140 104 266 114 280 24 36 36 67 161 406 61 165 123 318 139 341 16 22
38 65 49 95 38 100 61 144 88 169 14 14 36 48 48 75 13 28 30 56 39 63 9 7 19
26 22 42 3 15 15 36 25 45 11 10 24 34 31 54 6 20 17 43 24 51 7 8 72 157 145
330 73 173 144 331 156 350 28 43 214 478 214 501 0 9 7 22 15 29 19 15 34 45
106 208 46 106 55 134 44 139 -8 3 -266 40 -573 82 l-557 77 -2 24 c-1 14 -6
52 -11 84 -8 54 -7 69 14 144 2 9 33 12 111 12 88 0 345 -35 1397 -190z
m-2049 -4689 c605 -84 1101 -155 1103 -156 2 -1 6 -34 9 -72 l6 -69 -50 -75
c-27 -42 -60 -103 -73 -135 -87 -221 -314 -611 -489 -839 -33 -43 -61 -88 -61
-100 0 -12 -23 -44 -56 -75 -31 -30 -247 -289 -479 -575 -268 -329 -450 -544
-495 -584 -67 -60 -33 -9 533 781 583 816 606 849 628 925 13 46 32 87 46 100
28 27 29 44 4 115 -40 117 -81 158 -158 158 -23 0 -65 11 -94 24 -79 36 -213
61 -256 48 -28 -9 -122 4 -548 74 -549 89 -542 89 -592 42 -13 -12 -23 -33
-23 -47 0 -18 -42 -80 -135 -200 -74 -95 -135 -180 -135 -187 0 -12 -852
-1159 -887 -1194 -16 -16 15 44 131 250 297 530 567 1066 738 1470 67 157 129
296 139 310 10 14 32 67 51 118 25 72 34 88 38 71 6 -23 20 -26 1105 -178z"/>
</g>
</svg>
