<?xml version="1.0" standalone="no"?>
<!DOCTYPE svg PUBLIC "-//W3C//DTD SVG 20010904//EN"
 "http://www.w3.org/TR/2001/REC-SVG-20010904/DTD/svg10.dtd">
<svg version="1.0" xmlns="http://www.w3.org/2000/svg"
 width="1024.000000pt" height="1024.000000pt" viewBox="0 0 1024.000000 1024.000000"
 preserveAspectRatio="xMidYMid meet">
<metadata>
Created by potrace 1.10, written by Peter Selinger 2001-2011
</metadata>
<g transform="translate(0.000000,1024.000000) scale(0.100000,-0.100000)"
fill="#000000" stroke="none">
<path d="M5720 9023 c-73 -12 -120 -188 -67 -252 7 -8 17 -37 23 -65 7 -28 35
-152 63 -276 50 -219 51 -229 51 -381 l0 -157 -202 -6 c-253 -7 -2110 -28
-2114 -23 -2 2 1 46 7 98 21 182 -7 294 -87 355 -42 32 -62 30 -106 -11 l-38
-35 -11 -516 c-7 -371 -7 -524 1 -548 16 -51 52 -78 108 -84 41 -3 52 0 74 19
26 24 26 25 37 263 6 132 13 241 14 242 1 1 527 4 1169 6 l1167 3 6 -50 c3
-27 21 -271 40 -541 l34 -492 -48 -143 c-78 -229 -163 -359 -538 -822 -320
-395 -335 -411 -793 -851 -409 -393 -765 -684 -1186 -969 -326 -220 -763 -482
-1106 -662 -175 -92 -208 -121 -208 -186 0 -37 56 -99 89 -99 96 0 660 310
1108 609 229 153 286 195 833 612 l375 286 444 449 c244 246 487 498 539 559
130 152 308 390 427 574 77 119 101 149 102 130 2 -13 17 -215 34 -449 27
-375 30 -457 26 -695 -10 -503 -53 -874 -156 -1345 -74 -339 -117 -493 -200
-720 -122 -336 -310 -758 -365 -820 -13 -14 -54 -79 -91 -145 -184 -324 -427
-650 -691 -924 -128 -133 -144 -155 -144 -199 0 -44 52 -100 98 -104 29 -3 49
11 188 132 131 113 175 159 273 285 305 390 514 721 726 1150 313 634 479
1244 560 2060 36 366 37 321 -51 1835 -45 773 -84 1435 -87 1471 l-4 65 671
12 c369 7 762 15 874 19 l202 6 -6 -100 c-6 -92 -5 -106 20 -178 15 -43 31
-87 37 -97 25 -46 131 -65 163 -29 26 29 45 250 55 641 5 201 13 336 20 353
18 44 14 118 -9 155 -45 74 -152 97 -203 45 -53 -56 -57 -81 -57 -349 l0 -246
-152 9 c-188 10 -188 10 -973 -1 l-641 -8 -12 144 c-20 244 -70 498 -146 750
-20 65 -36 132 -36 149 0 23 -9 41 -36 65 -35 33 -42 35 -94 27z"/>
</g>
</svg>
