<?xml version="1.0" standalone="no"?>
<!DOCTYPE svg PUBLIC "-//W3C//DTD SVG 20010904//EN"
 "http://www.w3.org/TR/2001/REC-SVG-20010904/DTD/svg10.dtd">
<svg version="1.0" xmlns="http://www.w3.org/2000/svg"
 width="1024.000000pt" height="1024.000000pt" viewBox="0 0 1024.000000 1024.000000"
 preserveAspectRatio="xMidYMid meet">
<metadata>
Created by potrace 1.10, written by Peter Selinger 2001-2011
</metadata>
<g transform="translate(0.000000,1024.000000) scale(0.100000,-0.100000)"
fill="#000000" stroke="none">
<path d="M4654 9042 c-60 -30 -111 -56 -113 -58 -8 -8 36 -48 104 -94 132 -89
218 -202 250 -328 38 -148 47 -262 52 -674 4 -341 3 -408 -8 -408 -8 0 -540
-45 -1184 -99 -643 -55 -1285 -108 -1425 -117 l-255 -17 -313 37 c-173 21
-316 36 -318 33 -8 -7 18 -146 30 -161 14 -17 232 -180 308 -229 82 -54 197
-113 245 -128 67 -19 262 3 953 107 545 83 698 102 1190 149 311 30 583 56
605 57 l39 3 25 -65 c32 -88 41 -272 17 -375 -30 -124 -307 -787 -503 -1200
-285 -602 -637 -1203 -949 -1620 -174 -233 -346 -428 -623 -706 -313 -313
-570 -537 -904 -788 -94 -70 -97 -74 -81 -92 29 -32 74 -23 191 35 138 70 308
183 603 404 404 302 579 452 840 718 487 498 972 1185 1494 2117 43 75 81 137
85 137 3 0 105 -23 226 -50 l220 -51 420 -29 c1013 -71 906 -60 935 -97 26
-33 26 -78 0 -230 -51 -299 -248 -942 -507 -1658 -174 -479 -264 -697 -428
-1030 -117 -236 -183 -347 -286 -476 -129 -162 -211 -219 -315 -219 -126 0
-443 105 -873 290 -94 41 -127 51 -140 43 -9 -6 -16 -17 -16 -26 0 -15 295
-351 434 -496 131 -137 223 -266 300 -419 47 -94 101 -159 148 -179 44 -18
134 -16 185 4 285 111 657 586 993 1268 248 504 487 1144 781 2090 116 372
189 546 302 714 31 47 76 128 99 179 41 91 42 95 29 133 -22 64 -62 113 -189
235 -175 168 -337 284 -396 284 -25 0 -219 -47 -273 -66 -56 -19 -186 -50
-283 -66 -107 -18 -883 -13 -1114 7 -90 8 -165 16 -166 17 -2 2 40 82 92 178
134 247 326 633 353 711 22 60 22 69 10 99 -22 52 -131 162 -247 247 -104 77
-105 78 -72 80 19 2 255 14 524 28 787 40 1822 94 2055 106 230 13 557 8 855
-12 99 -7 192 -9 207 -6 73 19 105 92 72 162 -10 21 -56 78 -103 127 l-86 89
-145 55 c-129 50 -151 55 -200 51 -30 -3 -221 -24 -425 -46 -203 -23 -676 -64
-1050 -91 -1128 -84 -1457 -109 -1514 -115 l-54 -6 6 403 c8 461 18 602 53
743 32 125 26 154 -46 218 -62 56 -122 80 -398 160 l-219 64 -109 -55z"/>
</g>
</svg>
