<?xml version="1.0" standalone="no"?>
<!DOCTYPE svg PUBLIC "-//W3C//DTD SVG 20010904//EN"
 "http://www.w3.org/TR/2001/REC-SVG-20010904/DTD/svg10.dtd">
<svg version="1.0" xmlns="http://www.w3.org/2000/svg"
 width="1024.000000pt" height="1024.000000pt" viewBox="0 0 1024.000000 1024.000000"
 preserveAspectRatio="xMidYMid meet">
<metadata>
Created by potrace 1.10, written by Peter Selinger 2001-2011
</metadata>
<g transform="translate(0.000000,1024.000000) scale(0.100000,-0.100000)"
fill="#000000" stroke="none">
<path d="M5166 9167 c-48 -12 -51 -15 -82 -77 -61 -121 -88 -299 -54 -360 9
-16 13 -48 11 -87 -2 -57 0 -64 21 -72 13 -5 250 -42 528 -82 278 -40 506 -73
507 -74 2 -1 -13 -30 -31 -66 -19 -35 -40 -84 -46 -109 -6 -25 -24 -65 -39
-90 -15 -25 -51 -112 -81 -195 -29 -82 -72 -188 -95 -235 -23 -47 -102 -229
-175 -405 -72 -176 -143 -340 -156 -364 -13 -24 -24 -53 -24 -64 0 -11 -13
-41 -28 -66 -16 -25 -63 -123 -104 -218 -42 -94 -89 -189 -106 -210 -16 -21
-73 -139 -127 -263 -54 -124 -130 -299 -170 -390 -40 -91 -111 -253 -158 -360
-47 -107 -151 -346 -232 -530 -81 -184 -151 -349 -156 -366 l-9 -31 -463 68
c-254 37 -465 64 -469 60 -3 -3 -13 -23 -22 -44 -15 -37 -15 -38 4 -32 18 6
16 -1 -14 -72 -18 -43 -73 -170 -121 -283 -48 -113 -91 -209 -95 -215 -5 -5
-18 -39 -30 -75 -12 -36 -28 -75 -36 -88 -8 -12 -35 -77 -59 -144 -25 -67 -58
-144 -74 -172 -15 -28 -149 -271 -296 -541 -147 -269 -293 -530 -325 -580 -70
-110 -112 -191 -157 -310 -19 -49 -91 -195 -160 -323 -68 -129 -132 -250 -140
-270 -8 -20 -41 -91 -72 -157 -32 -66 -73 -155 -91 -197 -33 -76 -33 -78 -15
-98 10 -11 35 -25 56 -31 50 -15 122 11 147 53 9 17 55 58 102 91 159 115 242
211 785 907 285 366 548 697 583 735 93 101 228 283 301 407 35 60 67 108 71
108 5 0 272 -38 595 -85 322 -47 588 -85 590 -85 17 0 -113 -180 -495 -685
-690 -912 -846 -1119 -854 -1133 -17 -29 -123 -332 -116 -332 4 0 13 -13 20
-30 31 -74 83 -72 233 12 61 35 128 70 149 78 20 8 126 91 235 185 l199 169
659 799 c363 439 696 847 739 905 43 59 115 149 159 200 l81 93 2 97 c1 53 7
151 13 217 6 66 13 149 16 185 3 36 8 90 10 120 3 30 7 94 10 143 l4 87 -62
-1 c-72 -2 -949 161 -954 177 -2 6 28 82 68 170 61 138 386 922 880 2128 77
187 144 344 148 350 5 6 50 121 101 256 51 135 140 349 198 475 57 127 111
244 118 260 6 17 38 84 69 150 34 73 55 129 52 142 -3 14 1 23 8 23 7 0 280
-32 606 -70 327 -39 610 -71 629 -72 45 -2 207 11 278 23 123 20 192 97 233
261 53 218 12 303 -156 316 -66 4 -105 -8 -105 -33 0 -19 5 -19 -88 10 -50 16
-227 46 -488 84 -225 33 -838 123 -1363 201 -524 77 -959 140 -965 139 -6 0
-33 -6 -60 -12z m1557 -394 c1162 -171 1277 -189 1277 -206 0 -10 -7 -65 -16
-123 -15 -97 -18 -103 -38 -99 -11 2 -50 7 -86 9 -36 3 -137 13 -225 21 -88 8
-185 18 -215 20 -30 3 -75 8 -100 10 -25 3 -72 7 -105 11 -33 3 -102 17 -154
31 -90 24 -101 25 -281 18 -135 -5 -189 -4 -194 4 -4 6 -12 11 -17 11 -9 0
-112 -205 -284 -565 -29 -60 -81 -168 -117 -240 -35 -71 -72 -159 -82 -195
-10 -36 -27 -77 -37 -92 -11 -14 -19 -28 -19 -31 0 -2 -61 -139 -136 -303 -75
-164 -143 -319 -151 -344 -9 -25 -21 -52 -28 -60 -7 -8 -16 -31 -20 -50 -9
-45 -31 -87 -64 -125 -16 -19 -106 -233 -245 -585 -128 -327 -228 -565 -241
-580 -14 -15 -36 -68 -55 -135 -39 -135 -125 -341 -157 -376 -13 -14 -52 -106
-92 -215 -66 -183 -69 -189 -97 -192 -16 -1 -39 -8 -51 -14 -28 -14 -84 -3
-117 23 -32 25 -34 61 -5 114 53 100 68 137 93 235 21 79 47 142 106 255 49
93 113 243 171 395 51 135 102 261 115 280 12 19 50 114 84 210 95 268 187
497 214 533 24 32 96 193 96 214 0 7 13 21 28 32 16 11 37 39 47 63 10 24 26
52 36 63 9 11 25 36 36 56 10 20 35 70 56 110 21 41 94 205 162 366 69 160
140 320 159 355 18 34 73 158 121 273 104 251 100 241 127 285 28 46 128 270
128 287 0 7 -3 13 -7 13 -5 0 -253 34 -553 75 -299 41 -549 75 -555 75 -18 0
-25 209 -7 251 l10 26 104 -4 c64 -2 586 -74 1381 -190z m-3080 -4486 c18 -2
507 -71 1087 -153 580 -81 1058 -152 1062 -158 4 -6 8 -40 8 -75 0 -56 -4 -70
-34 -115 -40 -62 -77 -134 -101 -201 -10 -27 -24 -57 -30 -65 -7 -8 -46 -80
-87 -160 -88 -172 -193 -340 -317 -508 -51 -69 -91 -132 -91 -145 0 -14 -22
-44 -61 -82 -34 -33 -243 -283 -464 -555 -346 -425 -565 -676 -565 -647 0 4
269 385 598 845 557 781 599 842 616 905 10 38 29 81 42 97 30 35 30 54 -1
137 -38 99 -63 122 -150 134 -27 4 -80 18 -116 32 -78 30 -183 46 -225 35 -20
-5 -181 17 -533 73 -299 48 -517 78 -535 75 -39 -8 -76 -43 -76 -73 0 -16 -48
-86 -135 -197 -74 -96 -135 -180 -135 -188 0 -8 -213 -299 -472 -645 -260
-347 -479 -639 -486 -649 -31 -46 16 38 213 381 113 198 287 522 386 720 100
198 184 365 188 370 4 6 63 141 131 300 68 160 138 319 155 355 18 36 46 102
61 148 26 74 29 79 32 48 3 -29 7 -34 35 -39z m-1263 -2407 c-17 -33 -33 -60
-35 -60 -3 0 8 27 25 60 17 33 33 60 35 60 3 0 -8 -27 -25 -60z"/>
</g>
</svg>
