<?xml version="1.0" standalone="no"?>
<!DOCTYPE svg PUBLIC "-//W3C//DTD SVG 20010904//EN"
 "http://www.w3.org/TR/2001/REC-SVG-20010904/DTD/svg10.dtd">
<svg version="1.0" xmlns="http://www.w3.org/2000/svg"
 width="1024.000000pt" height="1024.000000pt" viewBox="0 0 1024.000000 1024.000000"
 preserveAspectRatio="xMidYMid meet">
<metadata>
Created by potrace 1.10, written by Peter Selinger 2001-2011
</metadata>
<g transform="translate(0.000000,1024.000000) scale(0.100000,-0.100000)"
fill="#000000" stroke="none">
<path d="M4666 8905 c-71 -25 -146 -68 -146 -84 0 -6 10 -13 21 -16 86 -28
206 -129 252 -213 55 -101 57 -124 54 -772 l-2 -595 -620 -58 c-559 -52 -636
-57 -779 -52 -88 4 -162 8 -165 9 -3 2 -55 7 -114 11 -127 8 -137 3 -137 -61
0 -38 6 -51 40 -87 22 -25 73 -61 117 -84 43 -22 125 -66 183 -98 111 -61 225
-109 281 -120 33 -6 372 45 421 64 39 15 246 59 398 85 166 29 407 66 425 66
20 0 49 -191 41 -269 -54 -544 -483 -1709 -909 -2466 -294 -524 -733 -1127
-1135 -1560 -66 -71 -118 -133 -116 -137 7 -11 88 16 141 48 92 53 259 167
404 275 115 86 167 133 244 221 294 336 556 672 739 946 277 417 602 1060 850
1682 43 107 81 202 85 211 5 14 47 1 287 -90 155 -58 311 -124 348 -146 97
-57 178 -141 223 -232 34 -69 38 -85 41 -174 12 -286 -97 -721 -348 -1394
-221 -591 -477 -1127 -714 -1494 -101 -155 -250 -282 -389 -331 -190 -67 -457
39 -817 325 -100 79 -135 91 -134 45 0 -16 44 -83 121 -185 166 -219 296 -425
410 -650 75 -147 108 -201 149 -243 l52 -54 69 4 c190 11 479 246 807 657 405
507 706 1112 1016 2041 112 335 185 584 230 779 49 215 89 340 134 421 84 148
86 188 17 292 -67 100 -152 191 -223 239 -88 60 -231 125 -338 154 -52 14
-126 34 -165 44 -286 77 -671 185 -679 191 -12 11 18 107 70 224 29 64 52 138
65 204 l20 104 -25 42 c-27 46 -153 170 -259 256 -38 30 -65 56 -60 57 10 3
1392 191 1458 198 255 28 357 66 363 135 2 28 -4 42 -29 68 -50 53 -97 77
-215 111 l-111 32 -609 -91 c-335 -50 -617 -92 -627 -94 -18 -4 -19 14 -12
540 9 672 7 623 30 718 l19 79 -50 46 c-82 74 -195 127 -412 192 -107 33 -200
59 -206 59 -6 0 -42 -11 -80 -25z"/>
</g>
</svg>
