<?xml version="1.0" standalone="no"?>
<!DOCTYPE svg PUBLIC "-//W3C//DTD SVG 20010904//EN"
 "http://www.w3.org/TR/2001/REC-SVG-20010904/DTD/svg10.dtd">
<svg version="1.0" xmlns="http://www.w3.org/2000/svg"
 width="1024.000000pt" height="1024.000000pt" viewBox="0 0 1024.000000 1024.000000"
 preserveAspectRatio="xMidYMid meet">
<metadata>
Created by potrace 1.10, written by Peter Selinger 2001-2011
</metadata>
<g transform="translate(0.000000,1024.000000) scale(0.100000,-0.100000)"
fill="#000000" stroke="none">
<path d="M5679 8983 c-15 -2 -39 -17 -55 -34 -26 -28 -28 -35 -29 -113 0 -66
4 -88 18 -103 9 -11 17 -30 17 -44 0 -13 6 -44 15 -69 8 -25 33 -130 55 -233
36 -165 42 -209 47 -358 l5 -169 -113 -1 c-63 -1 -166 -3 -229 -4 -63 -1 -468
-5 -900 -10 -432 -4 -847 -9 -923 -10 l-139 -2 9 91 c11 120 9 204 -7 250 -13
40 -69 109 -102 127 -21 11 -62 -7 -95 -43 -21 -23 -21 -31 -28 -468 -3 -245
-8 -467 -10 -495 -10 -117 36 -185 124 -185 82 0 81 -3 98 330 4 80 8 148 9
153 1 4 2 15 3 25 1 16 63 17 1160 17 l1159 0 6 -85 c4 -47 9 -119 12 -160 2
-41 7 -100 9 -130 3 -30 7 -95 10 -145 4 -49 8 -106 10 -125 2 -19 7 -82 11
-140 3 -58 9 -143 13 -190 6 -83 5 -89 -43 -235 -27 -82 -54 -157 -61 -165 -6
-8 -46 -73 -88 -143 -58 -97 -152 -220 -391 -515 l-313 -387 -329 -316 c-382
-368 -436 -417 -644 -591 -475 -398 -1124 -822 -1795 -1173 -71 -38 -138 -75
-147 -83 -41 -35 -8 -154 47 -168 45 -11 93 6 258 90 281 144 551 302 822 482
197 131 324 224 842 615 l378 286 450 454 c445 449 580 598 740 814 79 106
218 311 280 412 l29 48 7 -60 c4 -32 10 -107 14 -165 4 -58 8 -116 10 -130 1
-14 6 -79 10 -145 4 -66 9 -127 10 -135 18 -101 25 -447 13 -697 -21 -430 -62
-735 -153 -1153 -78 -354 -128 -532 -224 -789 -106 -283 -284 -677 -333 -736
-14 -17 -64 -97 -113 -180 -201 -342 -397 -601 -656 -870 -162 -168 -179 -207
-115 -271 58 -58 72 -53 251 100 149 127 164 144 307 332 613 813 980 1607
1133 2447 97 537 138 1039 110 1367 -5 58 -9 121 -25 410 -5 96 -12 213 -15
260 -3 47 -10 162 -15 255 -11 191 -18 315 -25 425 -3 41 -7 118 -10 170 -3
52 -8 129 -10 170 -2 41 -7 120 -10 175 -3 55 -8 129 -10 165 -3 36 -7 115
-10 175 -3 61 -8 139 -10 175 -3 36 -7 109 -11 163 l-6 97 188 2 c104 0 214 2
244 3 30 1 219 5 420 9 201 3 481 9 622 12 l257 7 -2 -114 c-2 -98 1 -123 22
-179 32 -89 66 -120 131 -120 66 0 76 17 85 145 4 55 9 109 11 120 3 11 7 155
10 320 3 165 10 323 16 350 5 28 12 82 15 121 5 65 3 72 -21 101 -51 60 -132
80 -178 43 -49 -38 -63 -84 -64 -215 0 -66 -1 -180 -2 -253 l-2 -134 -137 9
c-160 9 -307 9 -1060 -1 l-553 -7 -1 28 c0 15 -2 39 -4 53 -2 14 -9 72 -15
130 -24 224 -93 560 -151 729 -11 30 -19 70 -19 89 0 25 -8 42 -34 68 -19 19
-40 33 -47 33 -8 -1 -26 -4 -40 -6z"/>
</g>
</svg>
