<?xml version="1.0" standalone="no"?>
<!DOCTYPE svg PUBLIC "-//W3C//DTD SVG 20010904//EN"
 "http://www.w3.org/TR/2001/REC-SVG-20010904/DTD/svg10.dtd">
<svg version="1.0" xmlns="http://www.w3.org/2000/svg"
 width="1024.000000pt" height="1024.000000pt" viewBox="0 0 1024.000000 1024.000000"
 preserveAspectRatio="xMidYMid meet">
<metadata>
Created by potrace 1.10, written by Peter Selinger 2001-2011
</metadata>
<g transform="translate(0.000000,1024.000000) scale(0.100000,-0.100000)"
fill="#000000" stroke="none">
<path d="M6975 9457 c-69 -38 -81 -78 -99 -322 -21 -271 -36 -636 -36 -846 l0
-165 -827 -12 c-454 -7 -828 -11 -830 -9 -1 2 -12 57 -24 123 -30 175 -36 397
-14 571 13 112 15 152 6 192 -15 71 -43 122 -87 161 -33 28 -42 32 -78 27 -27
-4 -49 -15 -63 -32 -46 -52 -47 -81 -24 -510 24 -439 42 -589 96 -769 54 -184
77 -234 173 -395 51 -84 91 -155 89 -157 -5 -5 -2210 -44 -2482 -44 -121 0
-321 7 -443 15 -324 22 -451 6 -468 -60 -13 -50 72 -144 147 -163 27 -7 594
-6 1747 3 l1707 13 75 -63 c187 -155 377 -256 679 -360 348 -119 608 -247 886
-436 202 -137 254 -184 329 -297 112 -168 173 -318 251 -615 105 -403 118
-525 164 -1612 128 -2955 125 -2893 111 -3032 -14 -144 -9 -168 41 -206 39
-28 108 -33 138 -9 l24 20 -17 568 c-9 313 -32 1087 -51 1719 -55 1848 -52
1763 -91 2095 -48 411 -75 537 -166 765 -106 269 -299 545 -494 706 -176 147
-331 231 -610 332 -225 81 -405 157 -594 251 -146 72 -322 167 -317 172 5 6
559 26 1212 44 1013 28 1003 27 1032 56 36 36 32 87 -9 117 -33 25 -34 25
-484 41 -247 10 -484 15 -525 11 -82 -6 -1520 -37 -1524 -33 -49 65 -103 168
-184 348 -55 124 -99 225 -98 226 1 1 384 -2 851 -7 633 -8 856 -7 877 1 32
14 50 54 80 174 21 86 22 108 40 606 11 307 12 319 46 460 39 162 39 206 -1
274 -27 45 -76 86 -103 86 -10 0 -36 -10 -58 -23z"/>
<path d="M5721 3847 c-2 -16 22 -102 30 -111 6 -6 9 -4 8 5 -1 17 -37 118 -38
106z"/>
</g>
</svg>
