<?xml version="1.0" standalone="no"?>
<!DOCTYPE svg PUBLIC "-//W3C//DTD SVG 20010904//EN"
 "http://www.w3.org/TR/2001/REC-SVG-20010904/DTD/svg10.dtd">
<svg version="1.0" xmlns="http://www.w3.org/2000/svg"
 width="1024.000000pt" height="1024.000000pt" viewBox="0 0 1024.000000 1024.000000"
 preserveAspectRatio="xMidYMid meet">
<metadata>
Created by potrace 1.10, written by Peter Selinger 2001-2011
</metadata>
<g transform="translate(0.000000,1024.000000) scale(0.100000,-0.100000)"
fill="#000000" stroke="none">
<path d="M4927 8287 l-107 -42 92 -75 c197 -160 284 -326 317 -605 6 -49 42
-324 80 -610 38 -286 69 -521 68 -522 -1 -1 -594 -58 -1317 -126 l-1315 -125
-248 30 c-137 16 -250 28 -252 26 -2 -2 9 -48 25 -102 22 -75 37 -107 62 -134
42 -44 136 -106 196 -128 26 -10 64 -30 84 -45 21 -15 66 -34 100 -44 63 -16
64 -16 198 14 157 35 2498 338 2510 324 4 -4 69 -283 144 -620 118 -527 146
-640 207 -819 207 -615 482 -1192 757 -1594 391 -570 995 -1151 1391 -1338 81
-38 108 -46 171 -50 71 -4 78 -3 108 22 19 17 34 41 38 61 5 29 -71 1363 -96
1670 -14 172 -20 185 -60 145 -33 -33 -45 -75 -115 -395 -74 -344 -102 -447
-144 -538 -64 -138 -131 -193 -227 -185 -95 8 -227 107 -416 313 -345 375
-687 944 -928 1545 -179 445 -336 1036 -458 1723 l-19 107 46 0 c25 1 494 22
1041 49 1095 52 1050 47 1091 115 35 57 26 83 -59 172 l-78 81 -121 42 -121
43 -917 -102 c-504 -56 -920 -98 -925 -93 -9 10 -44 266 -65 478 -44 450 -47
689 -9 872 14 68 24 128 22 133 -2 5 -61 59 -133 120 -134 116 -247 183 -383
229 -84 29 -111 26 -235 -22z"/>
<path d="M6593 8238 c-32 -16 -36 -48 -8 -70 165 -130 401 -345 507 -463 49
-55 135 -160 190 -233 101 -133 159 -192 211 -211 79 -30 157 5 201 92 26 51
30 71 34 165 3 92 1 115 -18 165 -59 157 -194 246 -640 424 -308 123 -426 156
-477 131z"/>
</g>
</svg>
