<?xml version="1.0" standalone="no"?>
<!DOCTYPE svg PUBLIC "-//W3C//DTD SVG 20010904//EN"
 "http://www.w3.org/TR/2001/REC-SVG-20010904/DTD/svg10.dtd">
<svg version="1.0" xmlns="http://www.w3.org/2000/svg"
 width="1024.000000pt" height="1024.000000pt" viewBox="0 0 1024.000000 1024.000000"
 preserveAspectRatio="xMidYMid meet">
<metadata>
Created by potrace 1.10, written by Peter Selinger 2001-2011
</metadata>
<g transform="translate(0.000000,1024.000000) scale(0.100000,-0.100000)"
fill="#000000" stroke="none">
<path d="M2830 9055 c-260 -54 -533 -168 -753 -315 -196 -131 -257 -204 -257
-306 0 -79 27 -142 84 -199 97 -96 596 -706 596 -729 0 -12 214 -303 537 -726
295 -388 554 -734 576 -770 21 -36 69 -96 106 -135 37 -38 75 -80 85 -92 21
-25 44 -127 80 -348 45 -284 50 -358 36 -580 -12 -179 -11 -206 3 -256 20 -67
64 -130 117 -167 21 -15 44 -40 50 -56 16 -46 13 -311 -5 -346 -9 -16 -19 -81
-24 -155 -6 -70 -11 -128 -13 -130 -2 -2 -46 1 -99 6 l-96 9 -729 -169 c-692
-161 -759 -179 -1315 -345 -323 -97 -626 -192 -675 -211 -117 -47 -413 -193
-491 -244 -53 -34 -63 -45 -63 -68 0 -20 9 -34 33 -50 l33 -23 510 164 c280
91 623 203 761 250 251 85 588 186 818 245 66 17 384 75 708 130 504 84 587
96 587 82 0 -47 -61 -483 -69 -499 -6 -11 -42 -264 -80 -563 -43 -332 -78
-569 -91 -609 -11 -36 -31 -164 -45 -285 -14 -121 -44 -361 -65 -532 l-40
-313 22 -44 c13 -28 34 -51 58 -65 66 -37 113 -24 130 37 5 20 46 314 90 652
45 338 139 1001 210 1472 72 472 130 862 130 868 0 5 18 10 40 10 l40 0 0
-112 c0 -127 26 -272 60 -343 19 -40 39 -58 41 -37 0 4 12 126 27 272 l27 264
298 107 c164 59 315 110 336 114 l38 6 -16 -98 c-16 -97 -17 -97 -50 -107 -58
-17 -153 -123 -170 -191 -6 -27 -26 -78 -43 -114 l-30 -64 4 -170 4 -170 32
-28 c17 -15 50 -33 74 -39 24 -7 51 -16 60 -21 23 -12 55 -11 63 1 3 5 17 10
30 10 13 0 48 20 80 46 31 25 58 45 59 43 4 -5 -225 -875 -253 -963 -11 -34
-22 -81 -26 -106 -3 -25 -62 -310 -131 -635 -133 -627 -136 -645 -93 -699 42
-53 121 -73 151 -38 33 37 99 267 124 434 46 306 123 694 194 978 16 63 50
207 75 320 94 424 154 614 287 915 136 309 166 428 134 538 -30 103 -111 159
-249 174 l-59 6 6 30 c3 16 6 35 6 42 0 9 24 15 73 20 54 5 504 141 1852 560
1767 549 1781 553 1885 558 166 9 279 60 359 161 40 50 45 69 27 104 -29 55
-56 58 -238 22 -318 -62 -590 -135 -873 -235 -88 -31 -452 -139 -810 -240
-686 -194 -1103 -329 -1872 -607 -205 -74 -373 -132 -373 -129 0 50 117 873
134 943 72 290 205 510 470 773 211 210 306 282 729 553 180 115 399 271 538
382 58 47 393 357 745 689 600 568 639 607 642 641 3 31 -7 52 -58 129 -34 51
-100 132 -146 181 -158 165 -317 265 -545 341 -133 45 -145 45 -232 6 -28 -13
-78 -31 -109 -41 -33 -9 -77 -33 -102 -54 -25 -20 -303 -316 -617 -657 -487
-527 -643 -688 -1038 -1073 -335 -326 -536 -513 -714 -664 -137 -115 -250
-208 -252 -206 -2 2 -330 602 -730 1333 -538 984 -735 1353 -757 1417 -41 120
-43 122 -250 142 -209 20 -218 20 -358 -9z m330 -186 c58 -7 91 -16 103 -28
18 -18 15 -21 -98 -101 -111 -77 -136 -90 -487 -236 l-370 -153 -112 -7 c-124
-7 -168 4 -182 48 -6 19 4 32 57 81 202 187 471 322 746 377 164 32 216 35
343 19z m4727 -173 c48 -19 86 -38 83 -43 -2 -4 -68 -54 -146 -110 -125 -90
-149 -113 -201 -186 -60 -83 -60 -83 -45 -115 9 -18 23 -32 31 -32 22 0 315
275 319 299 2 10 12 27 23 37 10 9 19 25 19 36 0 10 6 18 13 18 7 0 18 9 25
20 13 21 13 21 72 -12 33 -18 60 -35 60 -38 0 -3 -25 -15 -55 -27 -102 -42
-352 -259 -516 -451 -124 -143 -145 -176 -133 -210 5 -15 15 -27 21 -27 6 0
180 147 387 328 207 180 380 327 385 327 4 0 63 -58 129 -128 l121 -129 -252
-249 c-634 -629 -741 -728 -1032 -961 -250 -200 -573 -427 -918 -647 -304
-193 -543 -441 -725 -751 -81 -137 -86 -157 -207 -843 -63 -356 -117 -657
-120 -669 -4 -19 -26 -29 -133 -63 -183 -58 -310 -105 -450 -167 -68 -30 -125
-53 -126 -51 -2 2 -8 73 -15 158 -14 174 -20 191 -69 171 l-29 -12 -12 -157
c-18 -240 -18 -238 -58 -262 -20 -11 -37 -19 -39 -17 -2 1 4 156 12 342 17
379 13 425 -37 513 -16 28 -49 66 -73 84 l-43 33 -6 160 c-8 187 -30 434 -57
627 -15 105 -31 171 -67 274 l-48 136 -856 1127 -856 1126 86 21 86 21 29 -56
c47 -94 113 -151 173 -151 28 0 93 33 93 47 0 5 -34 47 -75 95 -41 48 -75 94
-75 103 0 10 25 27 66 46 110 49 110 49 117 -13 10 -82 66 -186 138 -252 33
-31 67 -56 75 -56 16 0 54 56 54 81 0 8 -13 28 -30 44 -17 16 -30 36 -30 44 0
9 -25 56 -55 106 -30 49 -55 101 -55 115 0 23 7 28 52 43 29 9 55 13 59 9 13
-15 419 -1011 419 -1029 1 -10 23 -38 51 -62 47 -41 50 -42 73 -27 13 8 29 30
35 49 11 31 4 54 -94 308 -59 151 -122 324 -142 384 -44 139 -110 275 -178
370 l-53 74 136 80 c75 44 144 83 153 86 13 5 24 -14 53 -92 21 -54 167 -345
325 -648 159 -302 296 -575 306 -605 32 -98 199 -421 349 -675 111 -189 342
-529 382 -564 34 -30 40 -32 93 -28 85 8 176 32 213 58 74 51 332 261 458 373
204 181 1351 1341 1455 1471 142 178 250 299 420 470 147 149 351 335 367 335
3 0 46 -15 95 -34z m-2355 -5021 c9 -21 5 -38 -27 -115 -35 -84 -40 -90 -71
-96 -19 -3 -37 -10 -40 -15 -3 -5 -13 -5 -24 1 -21 11 -81 -8 -94 -29 -4 -6
-24 -11 -44 -11 l-38 0 4 40 c3 32 12 47 40 70 34 28 70 41 58 21 -3 -5 -1
-23 5 -40 10 -29 14 -31 59 -31 42 0 52 4 79 35 17 20 31 43 31 53 0 9 3 33 6
53 6 35 5 37 -26 44 l-32 7 28 19 c41 26 72 24 86 -6z m-361 -77 c19 -7 -13
-44 -44 -52 -12 -3 -38 -27 -57 -52 -19 -25 -43 -56 -53 -67 -21 -25 55 133
86 179 19 29 21 30 37 14 10 -10 24 -20 31 -22z m-68 -225 c6 -31 45 -59 100
-70 l35 -8 -42 -32 c-54 -41 -113 -52 -143 -26 -20 17 -21 22 -11 73 10 51 31
90 48 90 4 0 10 -12 13 -27z m261 -135 c-26 -51 -59 -83 -232 -218 l-44 -34
-65 34 c-53 29 -63 38 -59 55 3 11 6 42 6 69 l0 49 26 -26 c32 -32 71 -41 138
-32 43 5 67 18 151 80 55 41 101 74 102 75 2 0 -9 -24 -23 -52z"/>
<path d="M3261 8527 c-48 -24 -48 -37 -6 -167 45 -140 80 -189 150 -215 52
-20 72 -15 86 22 9 23 6 38 -15 83 -14 30 -32 82 -41 114 -14 49 -27 69 -75
118 -32 32 -62 58 -67 58 -4 0 -19 -6 -32 -13z"/>
<path d="M7159 7795 c-44 -16 -1045 -868 -1172 -998 -85 -86 -237 -278 -237
-298 0 -18 27 -20 61 -6 30 12 1439 1238 1447 1258 3 8 -48 59 -58 58 -3 0
-21 -6 -41 -14z"/>
<path d="M6981 7294 c-270 -204 -431 -332 -431 -343 0 -9 -6 -25 -13 -36 -8
-11 -22 -33 -33 -49 l-18 -29 22 12 c12 6 31 25 43 40 14 19 34 32 56 36 39 7
668 439 742 508 50 48 101 123 101 149 0 9 -8 22 -19 27 -16 9 -85 -40 -450
-315z"/>
<path d="M3923 6884 c-59 -29 -42 -88 77 -267 62 -93 124 -171 202 -252 112
-117 261 -245 285 -245 7 0 22 19 34 41 l21 41 -36 53 c-36 51 -109 124 -261
260 -88 78 -160 180 -195 276 -21 59 -60 108 -85 108 -5 0 -25 -7 -42 -15z"/>
<path d="M3603 6688 c-47 -23 -32 -62 103 -285 142 -235 180 -287 279 -388
132 -134 346 -274 378 -247 9 8 13 22 9 35 -5 24 -722 889 -740 894 -4 1 -17
-3 -29 -9z"/>
<path d="M5491 6216 c-18 -7 -51 -27 -73 -45 -35 -30 -39 -37 -36 -74 2 -33 9
-44 29 -56 25 -14 31 -13 75 10 53 27 109 95 99 119 -4 8 -18 24 -33 36 -24
18 -31 20 -61 10z"/>
<path d="M5209 5813 c-39 -37 -59 -64 -59 -79 0 -13 -15 -47 -33 -76 -57 -89
-157 -311 -157 -347 0 -18 -9 -46 -20 -61 -75 -105 -170 -412 -200 -645 -10
-82 -10 -90 6 -102 39 -29 74 -8 105 62 9 22 90 238 178 480 127 347 180 477
249 613 l87 173 -24 19 c-39 33 -67 25 -132 -37z"/>
<path d="M4704 5674 c-8 -54 1 -160 21 -234 31 -118 50 -76 50 110 -1 132 -10
170 -45 170 -15 0 -20 -10 -26 -46z"/>
<path d="M4383 5319 c-8 -8 -7 -21 5 -48 17 -40 51 -283 52 -376 1 -72 25
-130 69 -168 31 -26 58 -37 47 -19 -4 7 -66 506 -66 534 0 13 -71 88 -84 88
-7 0 -17 -5 -23 -11z"/>
<path d="M4903 2913 c-22 -4 -44 -47 -58 -113 -4 -19 -13 -42 -21 -51 -7 -8
-54 -208 -103 -445 -50 -236 -95 -445 -101 -464 -51 -172 -109 -523 -125 -757
l-7 -103 24 0 c31 0 48 18 48 51 0 14 29 109 65 210 63 177 72 211 214 909
l149 725 -27 22 c-14 12 -28 22 -31 21 -3 0 -15 -3 -27 -5z"/>
<path d="M5101 2873 c-6 -21 -11 -43 -11 -49 0 -6 -8 -19 -19 -28 -11 -10 -21
-37 -25 -67 -12 -87 -194 -811 -226 -899 -80 -216 -132 -448 -149 -665 -8
-107 -8 -138 2 -124 2 2 56 168 120 369 89 280 126 411 157 565 47 229 99 437
163 645 66 215 71 290 16 290 -12 0 -21 -12 -28 -37z"/>
<path d="M4414 2812 c-18 -11 -73 -146 -94 -229 -23 -87 -26 -255 -7 -338 11
-46 15 -50 44 -53 23 -2 34 2 42 15 11 21 111 527 111 561 0 33 -67 64 -96 44z"/>
<path d="M4398 1750 c-9 -6 -19 -22 -22 -38 -3 -15 -17 -205 -31 -422 -13
-217 -27 -423 -31 -457 -4 -49 -3 -63 8 -63 53 0 107 289 122 655 7 147 -4
327 -19 331 -5 2 -18 -1 -27 -6z"/>
</g>
</svg>
