<?xml version="1.0" standalone="no"?>
<!DOCTYPE svg PUBLIC "-//W3C//DTD SVG 20010904//EN"
 "http://www.w3.org/TR/2001/REC-SVG-20010904/DTD/svg10.dtd">
<svg version="1.0" xmlns="http://www.w3.org/2000/svg"
 width="1024.000000pt" height="1024.000000pt" viewBox="0 0 1024.000000 1024.000000"
 preserveAspectRatio="xMidYMid meet">
<metadata>
Created by potrace 1.10, written by Peter Selinger 2001-2011
</metadata>
<g transform="translate(0.000000,1024.000000) scale(0.100000,-0.100000)"
fill="#000000" stroke="none">
<path d="M2592 8493 c-46 -9 -70 -67 -82 -203 -18 -189 0 -397 49 -585 31
-118 190 -637 213 -695 93 -237 259 -465 443 -605 41 -32 75 -61 75 -64 0 -4
-7 -16 -15 -27 -22 -29 -19 -33 29 -45 l43 -11 -4 -42 c-6 -49 13 -93 52 -124
21 -17 27 -33 36 -103 25 -200 -51 -468 -246 -864 -123 -248 -447 -770 -673
-1080 -293 -402 -487 -632 -845 -997 -155 -159 -286 -299 -291 -311 -21 -57
27 -147 78 -147 63 0 489 387 734 668 187 214 475 596 657 872 112 170 697
1234 747 1357 64 162 102 423 79 547 -6 32 -22 83 -35 112 -14 30 -23 54 -21
54 14 0 1134 -242 1155 -249 14 -5 20 -10 13 -10 -6 -1 -21 -16 -32 -35 -24
-39 -29 -133 -9 -198 9 -31 9 -56 -1 -116 -49 -289 -191 -712 -338 -1006 -145
-291 -414 -694 -651 -976 -46 -55 -147 -154 -241 -235 -185 -160 -208 -192
-198 -277 4 -28 13 -61 22 -75 14 -20 21 -23 53 -17 111 19 177 69 361 273
364 402 645 811 874 1267 154 308 286 695 348 1023 31 168 14 251 -70 330 -24
23 -29 32 -16 28 11 -3 205 -51 430 -106 498 -121 727 -197 1112 -367 194 -86
281 -131 355 -186 l67 -49 -101 -202 c-215 -431 -462 -841 -682 -1132 -159
-211 -286 -355 -496 -565 -171 -171 -225 -219 -324 -285 -66 -44 -139 -99
-163 -121 -40 -38 -43 -45 -43 -92 0 -93 42 -145 101 -127 68 22 259 153 393
270 158 138 503 527 702 790 162 214 235 332 519 842 154 276 285 503 291 503
28 0 200 -136 309 -245 142 -142 231 -263 320 -439 l66 -130 -25 -20 c-30 -26
-78 -121 -163 -326 -123 -294 -268 -579 -426 -835 -45 -71 -209 -301 -365
-510 -270 -360 -293 -388 -446 -536 l-161 -156 0 -55 c0 -44 5 -61 28 -91 32
-43 63 -48 111 -18 60 38 519 522 598 631 70 96 205 323 758 1267 107 183 197
333 200 333 3 0 24 -87 47 -193 37 -167 46 -228 64 -468 24 -313 19 -440 -25
-699 -212 -1241 -210 -1220 -149 -1276 37 -34 119 -35 133 -2 5 13 62 304 126
648 l117 625 14 355 c20 476 14 524 -131 1135 -71 298 -250 631 -455 848 -67
71 -184 167 -281 230 -47 30 -105 73 -128 94 l-43 38 75 188 c155 386 296 849
296 971 -1 109 -65 202 -133 190 -18 -4 -39 -14 -48 -24 -8 -10 -34 -87 -57
-171 -173 -644 -186 -690 -249 -844 -36 -88 -68 -163 -71 -167 -4 -3 -50 19
-102 49 -113 66 -371 185 -600 276 -337 134 -531 193 -1030 313 -261 63 -479
116 -485 117 -5 2 100 25 235 51 146 28 318 69 425 101 573 173 927 279 980
295 81 23 1220 462 1283 494 62 32 122 99 122 138 0 37 -24 72 -66 99 l-34 21
-68 -27 c-402 -162 -1438 -558 -1512 -578 -52 -14 -331 -91 -620 -171 l-525
-145 -557 -50 -557 -51 -132 30 c-106 24 -140 36 -178 64 -25 19 -80 56 -121
84 -105 70 -194 154 -262 246 -66 88 -131 216 -149 291 -7 28 -50 154 -95 280
-46 127 -84 243 -84 258 0 15 -11 49 -24 75 -18 37 -29 92 -50 252 -29 229
-31 269 -14 350 14 72 6 105 -41 152 -37 37 -49 40 -99 31z"/>
<path d="M10126 921 c-18 -7 -16 -9 14 -19 45 -16 50 -15 50 8 0 21 -27 26
-64 11z"/>
</g>
</svg>
