<?xml version="1.0" standalone="no"?>
<!DOCTYPE svg PUBLIC "-//W3C//DTD SVG 20010904//EN"
 "http://www.w3.org/TR/2001/REC-SVG-20010904/DTD/svg10.dtd">
<svg version="1.0" xmlns="http://www.w3.org/2000/svg"
 width="1024.000000pt" height="1024.000000pt" viewBox="0 0 1024.000000 1024.000000"
 preserveAspectRatio="xMidYMid meet">
<metadata>
Created by potrace 1.10, written by Peter Selinger 2001-2011
</metadata>
<g transform="translate(0.000000,1024.000000) scale(0.100000,-0.100000)"
fill="#000000" stroke="none">
<path d="M2927 8087 c-25 -20 -157 -240 -157 -262 0 -13 -19 -35 -52 -60 -47
-35 -118 -71 -118 -60 0 3 41 52 90 109 50 58 90 109 90 114 0 6 -12 17 -26
27 -24 16 -30 16 -58 2 -62 -29 -157 -110 -202 -171 -45 -61 -48 -63 -75 -53
-22 9 -36 7 -66 -7 -61 -29 -140 -95 -180 -150 -48 -67 -57 -77 -42 -44 15 34
7 56 -25 64 -55 13 -145 -92 -215 -255 -37 -85 -122 -212 -129 -192 -11 34 62
218 114 288 30 40 30 47 -1 67 -32 21 -54 20 -71 -1 -79 -102 -125 -203 -151
-328 l-17 -80 -35 38 c-35 37 -37 38 -63 24 -15 -8 -38 -27 -50 -42 -20 -25
-25 -57 -48 -311 -14 -156 -29 -286 -32 -289 -3 -3 -15 9 -27 27 -42 66 -38
63 -56 48 -14 -12 -16 -38 -14 -204 l2 -191 -46 -122 c-25 -66 -55 -138 -66
-160 -39 -74 -61 -125 -61 -140 0 -8 -13 -42 -28 -76 -16 -34 -32 -75 -36 -92
-4 -16 -41 -90 -82 -162 -41 -73 -92 -175 -114 -226 l-38 -93 18 -78 18 -79
100 -99 c96 -97 101 -100 163 -113 54 -12 74 -12 129 0 36 8 184 21 329 30
212 13 266 13 272 3 6 -10 32 -3 109 29 83 35 100 39 100 25 0 -69 49 -142 95
-142 50 0 62 98 18 150 -21 26 -24 33 -12 41 10 6 15 3 18 -8 2 -10 15 -33 30
-52 14 -19 37 -54 51 -79 26 -47 58 -75 97 -87 19 -5 26 0 39 28 15 32 15 36
-6 85 -15 34 -42 70 -77 102 l-55 50 36 0 c32 0 36 -3 36 -25 0 -29 30 -48 63
-40 19 5 37 -4 84 -43 51 -43 61 -57 67 -92 12 -75 89 -120 117 -68 16 30 5
121 -21 163 -12 19 -19 35 -16 35 12 0 76 -45 76 -53 0 -5 11 -23 25 -41 20
-27 25 -44 25 -93 0 -65 17 -93 57 -93 25 0 39 16 48 53 l7 28 25 -23 c24 -22
25 -28 19 -94 -6 -79 1 -94 45 -94 35 0 44 -34 35 -129 -8 -79 -44 -251 -55
-266 -5 -5 -11 -33 -14 -62 -3 -29 -14 -67 -23 -85 -19 -36 -31 -77 -44 -151
-5 -27 -32 -109 -61 -182 l-52 -135 -116 -99 c-248 -211 -520 -529 -622 -725
-26 -49 -50 -76 -128 -139 -53 -43 -130 -96 -171 -118 -131 -72 -190 -132
-224 -232 -16 -47 -16 -48 11 -88 l27 -41 92 7 c50 4 138 8 196 9 87 1 108 5
133 22 17 12 102 43 190 69 88 26 172 54 187 61 15 8 42 13 59 12 32 -3 34 0
118 144 242 415 343 551 601 808 301 302 401 414 455 518 34 64 51 88 57 79 4
-8 28 -72 53 -143 25 -71 57 -147 70 -171 l25 -42 -53 -71 c-99 -130 -145
-232 -263 -575 -26 -75 -66 -153 -164 -316 l-129 -216 -66 -38 c-41 -24 -97
-72 -146 -123 -65 -69 -83 -96 -104 -153 -13 -37 -36 -91 -50 -120 -24 -47
-25 -53 -11 -74 8 -12 39 -34 67 -49 67 -33 112 -33 344 -1 254 36 300 53 406
149 30 28 71 63 90 77 31 24 33 28 22 51 -6 14 -8 29 -4 34 4 5 13 29 20 54
27 97 124 315 151 340 17 15 40 60 60 115 27 72 53 117 134 227 l101 138 50
-2 c60 -2 70 4 172 83 151 119 223 202 223 259 0 25 4 25 120 -5 l95 -25 223
41 c155 28 251 51 313 75 50 19 96 34 102 34 6 0 46 23 90 52 l78 51 68 -21
c37 -12 75 -22 84 -22 24 0 42 49 27 73 -10 17 -9 18 19 12 33 -7 96 17 105
41 8 21 16 18 105 -31 69 -38 90 -45 137 -45 60 0 104 18 128 52 9 12 17 20
20 17 11 -12 146 -323 146 -338 0 -9 5 -22 10 -27 7 -7 -3 -35 -34 -90 -35
-62 -108 -149 -322 -384 -327 -361 -364 -400 -373 -400 -3 0 -12 -13 -19 -28
-7 -16 -52 -71 -100 -123 -217 -232 -265 -307 -228 -348 10 -11 32 -23 48 -26
25 -6 36 -2 61 23 39 37 69 52 99 52 115 0 446 167 543 275 25 28 213 185 444
372 127 103 190 147 226 159 207 69 336 238 352 464 5 66 1 87 -26 168 -17 51
-50 141 -74 200 -80 197 -101 270 -100 347 1 109 8 158 22 163 6 2 41 -1 77
-8 58 -11 67 -11 84 5 14 13 23 14 39 6 24 -13 88 -14 96 -2 3 5 30 -15 60
-45 62 -63 145 -105 219 -112 40 -4 52 -1 63 13 25 35 14 49 -77 105 -59 36
-84 56 -73 59 10 2 23 8 30 13 16 13 12 15 198 -137 88 -72 197 -159 242 -193
79 -60 167 -150 203 -209 18 -27 17 -31 -10 -121 -16 -51 -35 -108 -44 -127
-9 -18 -16 -36 -16 -40 0 -23 -204 -264 -388 -459 -203 -215 -221 -231 -287
-261 -71 -33 -95 -59 -95 -105 0 -11 -59 -76 -144 -160 -148 -145 -280 -305
-295 -356 -10 -36 1 -69 28 -84 15 -7 107 -7 328 1 l308 12 97 36 97 36 240
228 c205 194 262 255 386 412 l146 184 148 303 c81 167 155 328 164 359 34
112 31 124 -134 557 l-151 397 0 95 c0 88 5 112 65 316 36 122 72 235 80 251
9 16 18 58 22 94 7 72 41 226 61 279 8 19 17 100 22 180 l8 145 51 -106 c52
-109 105 -272 122 -375 5 -32 17 -76 25 -96 9 -21 16 -58 16 -83 0 -25 11 -86
25 -136 31 -110 78 -179 273 -397 195 -219 208 -242 222 -382 5 -47 12 -99 15
-116 6 -29 3 -33 -37 -57 -78 -48 -76 -42 -40 -94 13 -20 116 1 157 32 44 34
90 103 111 169 9 28 20 55 25 61 20 21 6 57 -46 122 -217 268 -298 393 -391
603 -57 130 -80 194 -87 243 -3 20 -15 50 -26 65 -34 48 -90 263 -160 617
l-68 340 -63 115 c-38 69 -79 130 -104 153 -57 53 -162 103 -246 118 -39 7
-73 16 -75 20 -3 4 15 10 39 13 40 6 46 11 56 42 10 30 9 38 -5 54 -29 32 -73
34 -171 6 -81 -23 -93 -24 -133 -13 l-44 14 89 10 c71 9 92 15 106 33 40 49
19 69 -85 80 -80 9 -91 8 -152 -14 -50 -20 -65 -22 -65 -11 0 7 -12 22 -27 33
-35 25 -55 18 -112 -42 -32 -32 -51 -44 -65 -41 -12 2 -38 7 -58 10 l-37 6 30
47 30 47 -23 18 c-16 14 -32 17 -56 13 l-34 -5 26 34 26 34 -29 20 c-16 12
-31 21 -34 21 -3 0 -72 -36 -155 -80 -82 -44 -158 -80 -170 -80 -11 0 -33 13
-49 28 l-28 29 98 89 99 88 -27 23 c-37 32 -55 29 -121 -23 -78 -60 -163 -101
-249 -119 -96 -20 -144 -19 -200 6 -38 17 -52 19 -71 10 -13 -6 -24 -9 -24 -6
0 2 18 25 40 50 22 25 40 50 40 55 0 5 -12 17 -26 27 -27 17 -28 17 -105 -25
-88 -48 -140 -54 -244 -27 -60 16 -175 65 -175 76 0 3 30 15 68 27 55 19 81
35 142 93 l75 69 -30 25 -30 24 -104 -55 -104 -56 -146 7 c-109 5 -155 12
-180 24 l-34 18 83 7 c45 4 97 13 114 20 35 15 86 69 86 92 0 28 -50 37 -111
20 -123 -35 -288 -15 -409 48 -44 23 -44 23 -70 4 l-26 -19 -102 59 -101 59
54 53 c30 30 55 58 55 64 0 12 -32 35 -50 36 -8 0 -52 -16 -98 -37 -51 -22
-86 -33 -92 -27 -6 6 16 37 56 82 54 59 64 75 54 87 -26 31 -48 27 -144 -29
-89 -53 -138 -68 -151 -46 -3 5 15 40 40 77 25 37 45 73 45 79 0 7 -11 19 -24
27 -23 15 -27 14 -102 -42 -44 -32 -88 -68 -98 -79 -17 -20 -29 -22 -115 -22
-88 0 -109 -4 -231 -45 -73 -25 -136 -43 -139 -40 -2 3 7 18 21 33 14 15 34
40 44 56 17 28 17 29 -2 43 -39 29 -51 33 -70 19 -16 -12 -22 -11 -47 6 l-29
21 -53 -26 -52 -25 16 44 c13 35 22 46 46 52 18 5 37 21 48 40 18 31 18 31 -7
57 -30 30 -55 31 -128 6 -74 -25 -111 -45 -153 -83 l-36 -31 -112 26 c-95 23
-145 28 -327 33 -148 4 -224 3 -243 -5 -22 -9 -27 -8 -21 2 4 6 37 59 73 116
l64 104 -22 18 c-13 11 -29 19 -37 19 -7 0 -33 -26 -57 -57 -40 -51 -52 -60
-104 -75 -73 -21 -140 -71 -183 -137 l-32 -51 -82 1 c-44 1 -94 4 -111 8 l-29
6 50 36 c28 20 62 40 75 44 40 12 113 62 137 94 l22 30 -28 21 c-22 17 -35 21
-67 15 -49 -7 -138 -47 -182 -81 l-33 -25 30 81 c17 45 30 85 30 89 0 3 -13
14 -29 24 -22 13 -31 14 -44 4z m826 -418 c-10 -17 -24 -33 -30 -36 -7 -3 -55
5 -107 18 -76 18 -93 25 -84 36 7 9 43 13 125 13 l114 0 -18 -31z m339 -18 c4
-4 -2 -21 -15 -39 -16 -23 -28 -31 -42 -28 -11 3 -55 8 -97 12 -43 4 -78 9
-78 12 0 3 12 18 27 34 26 27 28 28 112 22 47 -4 89 -10 93 -13z m163 -44
c-12 -29 -21 -37 -41 -37 l-27 0 39 43 c22 23 40 39 42 36 1 -3 -4 -22 -13
-42z m-1086 -1 c19 -23 64 -30 77 -11 11 14 29 12 190 -29 201 -50 660 -126
760 -126 57 0 65 -2 60 -16 -7 -18 0 -17 86 7 44 12 50 11 132 -21 l87 -33
129 26 c134 28 146 28 195 -8 20 -15 85 -34 200 -59 159 -34 175 -40 245 -86
69 -44 158 -80 201 -80 10 0 24 10 30 22 11 20 7 26 -32 62 -26 23 -34 34 -19
26 95 -49 440 -245 465 -263 16 -13 129 -71 250 -129 l220 -107 475 -127 c261
-69 482 -130 490 -135 10 -6 2 -8 -27 -9 -34 0 -46 -5 -59 -25 -15 -23 -15
-27 0 -50 30 -46 76 -48 192 -11 l104 34 10 -39 c23 -83 89 -98 216 -49 43 16
79 28 81 27 1 -2 -2 -18 -7 -37 -12 -40 4 -80 38 -95 12 -5 22 -15 22 -21 0
-6 14 -14 31 -18 72 -14 93 -7 203 64 59 39 109 70 112 70 20 0 -13 -31 -108
-101 -62 -45 -115 -83 -116 -85 -8 -6 20 -74 30 -74 6 0 48 23 94 51 103 62
231 122 247 115 7 -2 1 -8 -12 -12 -54 -16 -200 -95 -258 -138 -80 -60 -84
-98 -13 -108 28 -4 45 2 90 32 74 50 125 75 190 93 112 31 107 31 129 -11 27
-53 72 -233 64 -260 -3 -12 -1 -28 4 -35 15 -18 23 -71 13 -86 -4 -8 -3 -29 2
-48 16 -60 3 -58 -41 5 -45 63 -66 71 -77 27 -6 -26 -2 -97 15 -249 6 -54 10
-101 7 -103 -2 -2 -27 27 -55 65 -66 89 -76 98 -96 82 -21 -18 -19 -39 11
-104 23 -50 26 -70 25 -154 0 -81 3 -103 20 -131 19 -32 22 -33 74 -29 51 3
55 1 55 -18 0 -12 -38 -130 -84 -262 -65 -186 -87 -262 -96 -334 -6 -51 -12
-94 -14 -95 -16 -16 -34 64 -61 272 -8 61 -36 117 -69 138 -23 15 -26 15 -46
-1 l-22 -18 26 -283 c14 -156 24 -286 21 -289 -9 -10 -82 76 -105 123 -15 31
-25 73 -28 120 -4 70 -4 73 29 109 l33 38 -25 19 c-53 41 -98 15 -129 -73 -24
-69 -26 -159 -5 -218 8 -24 13 -45 10 -48 -9 -10 -63 123 -75 186 -12 60 -9
179 6 244 5 21 1 30 -20 44 -26 17 -28 16 -56 -11 -80 -76 -56 -356 45 -516
56 -89 163 -149 226 -126 37 14 60 -5 56 -46 -2 -24 4 -34 26 -46 24 -14 30
-14 54 -1 16 9 32 31 40 57 14 42 15 42 38 27 17 -11 29 -13 42 -6 15 9 24 -6
73 -122 30 -72 76 -167 102 -211 26 -44 58 -110 72 -147 27 -72 53 -194 43
-204 -3 -3 -19 3 -36 15 -16 12 -36 18 -45 15 -12 -5 -16 0 -16 19 0 35 -41
61 -73 46 -20 -9 -28 -25 -42 -90 -16 -75 -18 -79 -43 -79 -39 0 -94 32 -119
70 -37 53 -32 63 31 55 72 -9 96 -1 96 34 0 39 -18 56 -77 75 -96 31 -133 78
-133 169 0 47 -3 57 -25 71 -33 21 -42 20 -70 -9 -29 -28 -31 -57 -11 -135 8
-30 13 -56 12 -58 -8 -7 -335 259 -361 295 -55 76 -300 224 -471 285 -59 21
-72 30 -128 99 -34 41 -66 74 -72 72 -5 -2 -17 9 -26 24 -10 16 -33 46 -51 68
l-35 40 -21 -35 c-23 -39 -28 -108 -10 -143 6 -12 56 -66 111 -120 55 -54 99
-100 97 -101 -2 -2 -45 -6 -96 -10 l-92 -7 -56 76 c-56 75 -56 76 -50 128 7
53 7 53 -29 72 l-35 19 -25 -23 c-33 -31 -40 -51 -80 -225 -46 -195 -61 -206
-141 -100 -34 45 -49 73 -47 90 3 23 2 24 -66 24 -38 0 -71 -2 -74 -5 -3 -3
-2 -25 2 -48 5 -34 21 -61 69 -118 l62 -74 -37 -29 c-20 -17 -80 -58 -134 -92
l-98 -62 -37 38 -37 38 18 27 c18 28 18 28 -11 51 -17 13 -33 24 -36 24 -3 0
-25 -18 -49 -40 -24 -22 -44 -39 -45 -38 -1 2 -18 26 -38 54 -24 33 -36 60
-34 78 1 20 -6 34 -25 48 l-26 21 -31 -24 c-22 -18 -30 -33 -30 -57 -1 -44 47
-137 105 -201 41 -46 45 -53 24 -46 -80 25 -157 83 -196 151 l-25 43 27 47 27
46 -24 19 c-31 24 -30 24 -89 -6 -48 -24 -50 -27 -50 -68 0 -55 46 -153 100
-211 36 -39 94 -135 86 -143 -1 -2 -27 4 -57 13 -70 20 -150 75 -183 125 -23
34 -25 44 -17 74 9 32 7 37 -19 55 -35 25 -42 25 -65 0 -14 -15 -21 -17 -32
-9 -15 13 -17 45 -3 54 21 13 11 62 -16 80 -33 21 -70 8 -84 -31 -6 -14 -11
-118 -11 -232 -1 -114 -4 -220 -8 -236 l-6 -29 -42 54 c-23 30 -56 81 -73 113
-27 52 -30 66 -25 110 11 91 -43 114 -94 41 -47 -70 -20 -173 81 -307 32 -42
58 -81 58 -86 0 -15 -77 -35 -112 -28 -25 4 -41 17 -65 54 -70 103 -97 208
-74 295 13 55 1 98 -35 122 -31 20 -39 15 -69 -45 l-24 -48 18 -145 c15 -116
24 -153 45 -189 14 -25 26 -47 26 -50 0 -14 -128 -48 -177 -48 -62 0 -139 24
-170 53 -56 51 -101 140 -123 242 -27 124 -40 447 -20 484 l12 23 31 -37 c17
-21 46 -44 65 -52 31 -13 36 -12 53 3 26 23 24 46 -10 107 -59 104 -71 204
-49 386 2 16 -6 30 -24 44 -26 19 -28 19 -53 3 -44 -29 -68 -98 -62 -175 6
-66 -6 -133 -28 -161 -7 -8 -14 -22 -17 -30 -8 -26 -66 90 -85 168 -16 70 -16
77 0 140 10 37 29 85 44 106 l25 39 -23 18 c-35 27 -57 23 -94 -14 -40 -40
-55 -86 -62 -198 -6 -98 6 -163 47 -254 33 -73 60 -100 93 -91 l23 5 -9 -72
c-19 -152 10 -402 67 -582 20 -60 36 -113 36 -117 0 -17 -23 -6 -63 31 -41 38
-43 39 -64 23 -16 -13 -24 -35 -31 -87 l-10 -70 0 65 c0 113 -1 118 -28 149
-32 38 -56 39 -84 4 -21 -26 -22 -35 -17 -153 4 -69 9 -137 12 -151 6 -22 3
-27 -19 -33 -17 -4 -37 -24 -56 -54 -32 -51 -37 -42 -16 29 18 58 11 90 -25
125 -28 27 -31 28 -57 14 -35 -20 -53 -81 -55 -191 -2 -73 1 -90 17 -108 11
-12 25 -21 32 -21 31 0 21 -27 -49 -128 -94 -136 -157 -243 -157 -266 0 -10
-27 -46 -60 -80 -33 -35 -60 -72 -60 -83 0 -34 -60 -231 -86 -282 -13 -27 -24
-54 -24 -60 0 -25 -115 -11 -263 32 l-147 43 70 94 c39 52 121 185 182 295 61
110 116 207 124 215 11 13 28 71 51 170 3 14 14 34 23 45 10 11 32 66 48 121
27 92 40 116 130 245 l99 142 -38 67 c-22 37 -39 72 -39 78 0 6 -15 44 -34 84
-55 118 -89 277 -102 487 l-7 111 66 0 c36 0 69 5 72 11 5 6 13 3 22 -10 22
-32 67 -51 118 -51 44 0 46 1 67 45 12 25 24 45 27 45 4 -1 15 -15 26 -33 23
-36 79 -77 106 -77 10 0 26 11 35 25 16 25 16 28 -8 73 -80 148 -84 303 -14
464 11 24 -35 52 -70 44 -56 -14 -76 -51 -134 -243 -30 -101 -57 -183 -60
-183 -4 0 -12 36 -19 80 -13 81 -10 167 10 242 6 22 6 45 0 60 -10 27 -67 56
-80 42 -5 -5 -19 -40 -32 -79 -21 -60 -24 -89 -24 -205 0 -83 5 -148 13 -169
11 -32 11 -33 -5 -18 -10 8 -30 19 -45 22 -21 5 -29 15 -33 39 -28 168 -28
217 2 312 21 66 12 100 -31 121 -19 9 -41 13 -49 10 -8 -3 -27 -37 -42 -76
-26 -69 -27 -75 -20 -204 4 -72 11 -141 15 -152 5 -14 -10 -256 -19 -303 -4
-19 -135 62 -203 126 -43 39 -238 312 -224 312 5 0 138 -27 174 -35 15 -4 22
-13 22 -29 0 -32 38 -123 68 -164 30 -41 64 -55 96 -40 38 16 38 32 1 84 -35
51 -60 154 -37 154 7 0 18 13 26 28 16 30 6 62 -19 62 -8 0 -15 4 -15 8 0 26
24 122 30 122 11 0 33 57 26 69 -4 6 13 13 39 17 88 13 73 65 -27 93 -35 11
-55 27 -108 91 -46 55 -65 87 -65 106 0 20 -8 32 -28 44 -27 14 -29 14 -47 -7
l-18 -23 -80 38 c-94 44 -137 88 -134 138 3 34 -17 54 -52 54 -20 0 -46 -51
-46 -91 0 -33 26 -63 104 -125 32 -25 37 -34 31 -53 -7 -22 -11 -23 -65 -18
-31 3 -78 14 -103 25 -59 26 -131 97 -122 120 15 36 14 48 -4 72 l-20 25 -35
-34 c-25 -24 -36 -44 -36 -64 0 -22 -4 -27 -17 -23 -10 3 -40 10 -68 17 -29 7
-63 24 -80 40 -38 35 -52 36 -66 5 -18 -40 10 -78 81 -110 64 -29 99 -29 131
0 15 13 24 9 85 -44 l69 -59 110 -12 c155 -17 165 -20 165 -41 0 -30 39 -113
67 -142 l26 -27 -52 14 c-31 8 -70 29 -98 52 -25 21 -55 46 -67 55 -18 15 -19
19 -6 28 8 5 11 10 5 10 -5 0 -48 7 -95 15 -68 12 -102 26 -171 65 -50 29 -93
48 -102 44 -9 -3 -40 -1 -70 5 -50 11 -55 15 -83 63 -36 64 -98 113 -170 134
-61 17 -89 13 -105 -19 -10 -17 -9 -23 3 -31 14 -8 13 -11 -3 -25 -19 -16 -19
-17 0 -53 23 -46 13 -48 -32 -8 -31 27 -35 28 -55 14 -13 -8 -22 -26 -22 -40
0 -22 -4 -24 -42 -24 -47 -1 -126 -14 -135 -23 -3 -3 -1 -20 5 -36 13 -38 15
-38 -163 -46 -71 -3 -160 -8 -197 -12 -60 -5 -68 -4 -74 13 -3 11 -14 35 -25
55 -10 20 -19 43 -19 52 0 16 -49 51 -129 91 -66 34 -189 66 -253 66 -26 0
-48 3 -48 8 1 4 14 32 30 62 20 37 29 48 30 34 0 -23 23 -34 76 -34 17 0 69
-20 117 -45 108 -57 215 -85 321 -85 89 0 130 17 161 64 38 57 9 73 -135 75
-121 2 -396 79 -446 126 -44 42 -46 86 -6 135 40 48 201 424 202 470 0 8 7 23
15 33 7 10 19 41 25 68 7 27 17 49 24 49 6 0 27 40 45 90 29 80 37 91 69 107
31 15 37 24 40 55 2 28 -2 40 -16 49 -20 12 -20 13 1 55 l20 43 29 -20 c21
-15 32 -18 42 -10 13 11 96 172 96 187 0 17 -33 42 -48 37 -10 -3 -27 -17 -39
-32 -19 -22 -23 -23 -23 -8 0 37 72 137 100 137 21 0 50 51 43 78 -10 40 178
278 280 353 29 21 46 27 66 23 25 -5 32 0 58 43 32 50 61 69 179 116 59 23 62
23 73 5 23 -37 81 -8 81 42 0 25 7 29 93 58 86 30 106 33 287 41 107 4 209 9
226 9 17 1 37 -4 43 -12z m1985 -136 c24 -9 26 -13 15 -26 -10 -12 -23 -14
-57 -9 -73 11 -79 16 -41 35 18 10 38 16 44 14 5 -2 23 -8 39 -14z m2186 -785
c-7 -8 -20 -15 -29 -15 -11 1 -8 5 9 15 32 18 35 18 20 0z m415 -215 c3 -5 -1
-10 -9 -10 -8 0 -18 5 -21 10 -3 6 1 10 9 10 8 0 18 -4 21 -10z m425 -49 c0
-10 -121 -101 -134 -101 -14 0 -4 30 24 68 27 37 35 42 70 42 22 0 40 -4 40
-9z m623 -300 c69 -79 113 -213 130 -396 l6 -59 -25 44 c-15 25 -39 71 -55
103 -17 33 -39 61 -52 66 -18 7 -28 31 -56 127 -18 66 -42 139 -52 163 -10 24
-19 45 -19 48 0 10 95 -65 123 -96z m-7688 -760 c-3 -6 -11 -11 -17 -11 -6 0
-6 6 2 15 14 17 26 13 15 -4z m1153 -215 c30 -16 101 -86 87 -86 -4 0 -32 19
-62 41 -73 57 -83 75 -25 45z m-1103 -62 c123 -32 174 -59 192 -101 l13 -32
-102 46 c-56 24 -108 53 -116 64 -7 10 -21 19 -31 19 -23 0 -92 29 -71 30 9 0
61 -12 115 -26z m2110 -114 c6 0 17 -17 23 -37 16 -55 57 -114 102 -147 l39
-29 -18 -31 c-10 -17 -29 -60 -42 -95 -13 -35 -30 -66 -37 -68 -7 -3 -59 10
-114 28 l-101 34 89 5 c82 5 89 7 101 30 10 20 9 27 -3 41 -13 15 -13 17 6 22
30 8 24 31 -14 60 -43 34 -95 115 -103 163 l-6 37 33 -6 c18 -4 38 -7 45 -7z
m-2149 -67 l39 -48 -41 32 c-55 44 -71 63 -51 63 8 0 32 -21 53 -47z m162 -34
c-12 -7 -24 -7 -35 0 -15 9 -12 10 17 10 29 0 32 -1 18 -10z m1912 -670 c56
-70 287 -281 344 -314 16 -9 12 -20 -39 -110 -31 -55 -63 -105 -71 -111 -8 -6
-14 -15 -14 -21 0 -5 -18 -27 -40 -48 -27 -27 -40 -48 -40 -66 0 -22 -19 -44
-92 -111 -161 -143 -380 -370 -455 -468 -160 -211 -263 -355 -263 -367 0 -7
-30 -58 -66 -112 l-66 -99 -51 5 c-29 2 -111 10 -183 16 l-131 12 88 155 c82
145 100 169 276 365 191 214 292 309 391 369 6 4 -40 -65 -103 -154 -125 -175
-133 -198 -92 -246 l23 -27 31 29 c17 16 135 167 262 335 155 207 232 318 236
340 8 44 -7 83 -40 105 -25 16 -27 16 -55 -11 -17 -16 -30 -33 -30 -37 0 -8
-113 -182 -131 -202 -13 -14 14 77 65 224 59 169 116 371 146 518 13 61 26
112 29 112 3 0 35 -37 71 -81z m3690 -160 c0 -9 -40 -23 -46 -16 -3 2 1 17 8
32 11 25 13 25 25 9 7 -10 13 -21 13 -25z m-34 -286 c7 -37 11 -69 10 -70 -1
-2 -12 14 -24 35 -16 29 -20 48 -15 76 8 48 13 40 29 -41z m-139 -60 c-3 -3
-21 7 -40 21 -43 33 -64 33 -79 1 -15 -34 10 -81 79 -146 l52 -49 -38 0 c-34
0 -44 6 -88 58 -40 45 -50 64 -46 83 3 19 -1 28 -21 39 l-27 14 33 20 c18 12
62 31 98 42 l65 22 8 -50 c5 -27 6 -52 4 -55z m-239 -148 c40 -78 144 -155
209 -155 22 0 44 10 68 31 40 35 42 45 18 71 -16 18 -15 18 18 4 50 -21 125
-30 133 -17 4 6 11 11 15 11 14 0 89 -238 112 -356 l22 -111 -69 -133 -69
-133 -61 -28 c-34 -15 -108 -57 -164 -93 l-102 -67 50 58 c61 70 113 152 147
228 14 32 25 59 25 61 0 1 -13 12 -30 24 -27 20 -31 20 -59 5 -31 -15 -48 -38
-66 -86 -5 -15 -74 -95 -153 -179 -118 -126 -142 -155 -136 -173 11 -37 26
-49 58 -44 25 3 7 -18 -125 -143 l-154 -147 -24 18 c-17 14 -40 19 -81 19 -48
0 -60 4 -80 25 l-24 26 216 217 c178 179 233 241 311 352 51 74 99 145 105
157 35 65 -18 284 -109 448 -26 47 -93 216 -87 220 2 1 14 9 28 19 l25 17 6
-53 c3 -29 15 -71 27 -93z m-203 47 c9 -7 45 -76 45 -88 0 -3 -7 -1 -16 4 -9
5 -49 7 -89 4 -68 -4 -78 -2 -122 24 l-48 29 62 3 c35 2 75 9 90 17 30 16 62
19 78 7z m-736 -126 c9 -10 8 -15 -4 -20 -10 -4 -15 1 -15 14 0 24 4 25 19 6z
m3133 -216 l14 -55 -59 -145 c-32 -80 -65 -152 -71 -160 -7 -8 -16 -23 -19
-32 -3 -9 -78 -120 -167 -247 -124 -177 -180 -248 -246 -310 -85 -80 -86 -81
-139 -81 -46 0 -471 73 -481 83 -2 1 97 93 219 203 l222 201 17 -41 c9 -23 19
-49 22 -58 7 -22 70 -34 102 -19 13 6 24 9 24 7 0 -1 -34 -27 -75 -56 -49 -34
-75 -60 -75 -72 0 -25 18 -58 31 -58 6 0 55 21 108 46 96 45 98 47 175 146 82
104 81 101 34 128 -16 9 -15 13 8 47 30 44 26 77 -12 111 -24 21 -28 22 -49 8
-23 -15 -25 -14 -48 16 -29 37 -49 33 -77 -14 -10 -18 -43 -51 -72 -72 l-53
-40 28 37 c15 20 69 108 120 196 l93 159 25 -29 c28 -35 86 -58 145 -59 44 0
57 10 67 49 8 31 -29 67 -77 76 -55 11 -45 29 12 21 72 -11 77 -13 91 -51 11
-32 53 -75 72 -75 5 0 18 9 29 20 17 17 20 33 20 112 0 80 2 90 14 78 8 -8 21
-40 28 -70z m-4355 -112 c-3 -8 -6 -5 -6 6 -1 11 2 17 5 13 3 -3 4 -12 1 -19z
m-2359 -845 l57 -16 -67 -70 -68 -69 -92 -9 c-51 -5 -112 -11 -134 -13 l-42
-5 62 58 c61 57 108 91 176 123 45 21 41 21 108 1z m381 -29 c2 -2 2 -6 -1 -9
-4 -4 -210 -44 -230 -45 -4 0 -7 16 -6 35 l1 35 116 -6 c64 -4 118 -8 120 -10z
m5337 -110 l241 -47 -110 -98 c-68 -61 -122 -101 -141 -105 -17 -3 -39 -14
-48 -24 -48 -51 -270 -100 -452 -100 -81 0 -126 4 -126 10 0 45 129 192 282
322 57 48 105 88 108 88 3 0 114 -20 246 -46z m-1712 -46 c73 -31 74 -32 53
-48 -12 -10 -40 -23 -62 -30 -54 -17 -111 -46 -161 -82 -29 -21 -50 -29 -72
-26 l-31 3 65 80 c92 113 113 135 124 135 6 0 44 -14 84 -32z m-2811 -167 c88
-43 241 -91 288 -91 16 0 29 -4 29 -9 0 -11 -82 -42 -131 -48 -32 -5 -38 -3
-34 10 4 9 -5 23 -25 37 -34 24 -26 28 -111 -43 -41 -33 -57 -40 -120 -48 -41
-5 -86 -11 -102 -14 -25 -4 -27 -3 -21 23 13 58 69 164 101 192 19 17 36 30
39 30 3 0 42 -18 87 -39z"/>
<path d="M2605 7365 c-90 -40 -115 -63 -115 -109 0 -33 24 -76 42 -76 6 0 26
16 45 35 46 48 93 65 173 65 52 0 86 -7 142 -29 44 -17 119 -36 188 -46 63 -9
116 -18 117 -19 2 -2 -3 -20 -10 -42 l-14 -39 -131 -30 -132 -30 -78 -77 c-57
-58 -98 -87 -159 -118 -46 -23 -83 -47 -83 -54 0 -24 29 -70 52 -83 13 -7 50
-13 83 -13 33 0 101 -11 150 -25 84 -23 91 -24 103 -8 16 22 11 26 -83 77
l-75 42 34 16 c32 16 34 16 53 -6 11 -13 48 -40 82 -61 57 -34 65 -36 87 -25
42 23 30 50 -49 108 -79 57 -105 88 -89 104 20 20 67 -4 127 -68 46 -48 69
-64 89 -64 15 0 29 7 32 15 8 20 -15 84 -43 121 l-23 31 36 6 c47 8 49 6 80
-54 15 -30 35 -54 50 -59 36 -14 42 -13 49 11 10 31 -3 83 -31 124 -21 32 -23
40 -12 51 21 21 77 -17 85 -57 4 -24 15 -35 41 -46 32 -13 36 -13 55 5 14 15
18 27 13 47 -9 36 -81 112 -130 137 l-40 20 56 52 c71 65 84 88 59 110 -15 13
-45 16 -195 16 -144 0 -183 3 -208 16 -24 12 -303 65 -338 64 -3 0 -41 -16
-85 -35z"/>
<path d="M2223 7324 c-97 -47 -223 -209 -182 -235 8 -5 22 -9 31 -9 9 0 18 -9
20 -21 5 -34 32 -46 67 -29 16 8 91 68 166 134 l137 119 -21 20 -20 21 -161
-122 c-88 -66 -160 -116 -160 -110 0 20 126 135 180 164 56 30 71 54 50 79
-18 21 -47 18 -107 -11z"/>
<path d="M3400 7180 c-28 -28 -25 -38 14 -61 19 -11 36 -25 39 -32 3 -7 23
-26 46 -42 l42 -28 26 26 26 26 -28 36 c-28 38 -108 95 -132 95 -7 0 -22 -9
-33 -20z"/>
<path d="M1939 7112 c-51 -33 -91 -78 -121 -135 l-20 -41 23 -19 24 -19 73 79
c40 43 80 88 89 101 15 22 15 25 -3 43 -20 19 -20 19 -65 -9z"/>
<path d="M5000 6986 c-9 -28 -8 -40 4 -63 8 -16 21 -63 30 -105 20 -98 33
-126 67 -144 61 -31 83 -9 80 79 -3 96 -28 164 -81 219 -56 59 -84 62 -100 14z"/>
<path d="M5834 7012 c-15 -10 -40 -61 -48 -99 -10 -43 10 -212 35 -303 27 -98
97 -245 138 -293 40 -45 76 -49 110 -13 l23 25 -59 89 c-89 132 -104 184 -112
379 -6 162 -6 162 -35 192 -32 33 -35 35 -52 23z"/>
<path d="M4352 6929 c-16 -25 -17 -22 141 -239 129 -176 157 -206 197 -215 54
-12 74 22 48 82 -14 32 -171 267 -202 301 -26 30 -131 92 -154 92 -10 0 -23
-9 -30 -21z"/>
<path d="M2205 6714 c-143 -22 -194 -44 -269 -113 -38 -36 -86 -120 -86 -153
0 -22 47 -58 75 -58 16 0 27 11 39 38 10 20 36 58 59 83 42 47 42 47 196 84
104 26 162 45 179 60 l26 22 -27 27 c-30 30 -53 31 -192 10z"/>
<path d="M6240 6700 c-24 -18 -25 -22 -24 -142 0 -121 1 -125 49 -258 56 -157
83 -202 140 -236 53 -31 71 -30 88 2 13 25 11 31 -34 106 -59 97 -101 205
-125 315 -15 70 -15 88 -5 121 17 49 8 78 -29 97 -35 18 -30 19 -60 -5z"/>
<path d="M4287 6672 c-28 -30 -20 -57 23 -87 52 -36 120 -110 153 -165 14 -25
62 -140 106 -256 73 -190 85 -232 125 -432 37 -188 47 -227 71 -257 35 -47 51
-52 79 -26 21 20 22 25 14 103 -11 102 -224 813 -271 901 -39 74 -126 165
-197 205 -64 37 -81 39 -103 14z"/>
<path d="M4861 6606 c-9 -10 6 -75 64 -282 86 -305 99 -389 89 -575 l-7 -127
26 -26 c36 -35 74 -35 84 2 5 15 8 119 8 232 0 232 -10 298 -76 520 -48 157
-59 182 -107 233 -38 39 -62 46 -81 23z"/>
<path d="M6691 6571 c-33 -33 -46 -94 -32 -149 6 -26 18 -75 26 -110 23 -99
53 -157 106 -207 40 -37 52 -44 67 -36 41 22 45 37 18 78 -14 21 -43 104 -66
187 -37 134 -39 151 -28 183 12 32 11 36 -12 54 -32 24 -55 24 -79 0z"/>
<path d="M2150 6501 c-105 -34 -195 -96 -223 -153 -17 -34 -13 -50 20 -92 l22
-28 236 -5 c235 -6 235 -6 260 17 28 26 55 98 55 146 0 37 -47 85 -114 115
-54 25 -180 25 -256 0z"/>
<path d="M6906 6465 c-24 -24 -20 -45 30 -163 79 -186 166 -271 217 -214 10
10 17 23 17 29 0 6 -42 89 -93 184 -87 164 -94 174 -123 177 -19 2 -38 -3 -48
-13z"/>
<path d="M4233 6365 c-32 -22 -35 -60 -6 -87 39 -37 117 -147 162 -229 91
-167 181 -536 181 -742 0 -26 7 -80 16 -118 16 -70 16 -70 47 -67 69 7 81 95
48 323 -45 303 -163 675 -251 791 -36 48 -149 144 -169 144 -4 0 -16 -7 -28
-15z"/>
<path d="M3793 6185 c-32 -23 -29 -41 17 -85 22 -21 40 -41 40 -45 0 -4 10
-21 23 -38 18 -27 81 -217 73 -224 -2 -2 -51 18 -110 43 -89 39 -107 51 -113
73 -8 37 -22 51 -48 51 -27 0 -35 -17 -35 -76 0 -43 1 -45 61 -84 68 -44 148
-76 227 -92 67 -14 67 -14 127 -255 54 -219 57 -279 19 -365 -31 -67 -24 -103
21 -114 35 -9 56 12 91 89 22 48 29 81 32 151 l5 88 -139 425 -139 425 -40 18
c-64 29 -88 32 -112 15z"/>
<path d="M2406 6120 c-39 -27 -81 -46 -127 -57 -59 -14 -69 -20 -69 -38 0 -38
30 -55 99 -55 34 0 76 6 94 14 35 14 91 73 110 113 10 22 8 28 -12 44 -13 11
-26 19 -30 19 -4 0 -34 -18 -65 -40z"/>
<path d="M4078 6109 c-29 -16 -21 -57 18 -102 114 -133 255 -575 270 -847 7
-114 17 -141 64 -165 28 -15 30 -14 46 11 16 24 17 39 6 177 -19 240 -47 351
-162 657 -73 192 -97 232 -166 265 -37 17 -52 18 -76 4z"/>
<path d="M7138 5859 c-38 -28 -35 -52 12 -83 52 -34 65 -79 64 -226 -1 -90 -5
-129 -22 -180 -30 -89 -29 -123 5 -150 15 -11 33 -19 41 -18 8 2 30 38 49 80
29 67 35 97 47 221 21 218 1 285 -104 350 -43 26 -64 27 -92 6z"/>
<path d="M3532 5854 c-56 -39 9 -148 142 -235 100 -66 255 -102 270 -63 8 20
-11 44 -34 44 -10 0 -53 18 -97 40 -86 43 -213 150 -213 179 0 16 -29 51 -41
51 -3 0 -15 -7 -27 -16z"/>
<path d="M6788 5849 c-39 -22 -7 -126 46 -150 30 -14 41 -66 57 -284 13 -178
22 -205 69 -205 16 0 31 4 34 8 2 4 12 46 22 92 16 80 16 92 0 220 -10 74 -24
156 -32 181 -17 53 -72 115 -120 135 -39 16 -53 17 -76 3z"/>
<path d="M3422 5668 c-23 -23 -12 -57 44 -138 35 -50 71 -121 95 -183 33 -89
45 -109 92 -152 58 -55 106 -75 180 -75 35 0 49 5 57 19 8 16 4 24 -21 45 -17
14 -43 26 -57 27 -46 1 -59 11 -121 97 l-61 82 88 0 c75 0 89 3 99 19 18 29
-11 48 -82 53 -74 5 -139 35 -193 90 -34 34 -39 44 -31 60 24 44 -53 92 -89
56z"/>
<path d="M1327 5609 c-30 -17 -21 -61 22 -103 35 -34 46 -39 112 -47 41 -4 96
-15 123 -24 64 -20 145 -19 174 1 12 8 29 28 37 43 24 48 7 57 -148 78 -118
16 -141 17 -158 5 -24 -17 -75 -2 -117 33 -21 17 -32 21 -45 14z"/>
<path d="M5931 5593 c-41 -51 -39 -121 3 -170 22 -25 24 -26 55 -10 l31 16 39
-77 c58 -116 115 -279 156 -448 20 -83 45 -165 55 -181 10 -16 35 -38 56 -48
36 -17 38 -17 51 1 7 10 13 28 13 40 0 24 -241 737 -264 781 -8 15 -29 42 -48
59 -76 71 -114 81 -147 37z"/>
<path d="M3102 5498 c-22 -22 -12 -57 31 -110 58 -71 130 -124 196 -146 l55
-17 47 -100 47 -100 85 -42 c81 -40 85 -41 90 -21 7 25 -17 65 -43 73 -50 16
-150 166 -123 184 16 11 22 39 10 49 -7 4 -32 14 -57 21 -101 29 -219 112
-273 194 -19 29 -45 35 -65 15z"/>
<path d="M1270 5443 c-18 -8 -39 -34 -40 -50 0 -6 15 -17 34 -23 33 -10 278
-52 282 -47 1 1 5 12 8 24 6 19 0 25 -35 44 -75 38 -213 67 -249 52z"/>
<path d="M7664 5385 c-14 -21 -16 -44 -12 -128 6 -121 43 -245 93 -310 41 -54
125 -102 147 -84 30 23 28 54 -6 99 -47 62 -72 106 -96 168 -30 76 -52 182
-40 194 18 18 10 53 -15 70 -34 22 -52 20 -71 -9z"/>
<path d="M7908 5385 c-36 -32 -36 -68 0 -221 33 -138 50 -174 94 -207 51 -38
92 -48 117 -31 28 20 26 52 -5 85 -34 36 -126 287 -113 311 16 29 10 55 -16
72 -32 21 -45 20 -77 -9z"/>
<path d="M8156 5383 c-14 -15 -26 -34 -26 -42 0 -29 94 -278 117 -309 45 -60
115 -80 134 -38 10 20 2 44 -56 172 -38 82 -71 162 -74 179 -4 18 -18 36 -38
48 l-31 18 -26 -28z"/>
<path d="M4992 5368 c-5 -7 -13 -38 -17 -68 -15 -116 -57 -314 -95 -444 -22
-75 -40 -145 -40 -156 0 -22 28 -40 62 -40 61 0 208 508 179 618 -11 39 -54
102 -71 102 -4 0 -12 -6 -18 -12z"/>
<path d="M5632 5333 c-11 -4 -42 -53 -42 -66 0 -3 34 -39 74 -82 78 -80 99
-122 125 -250 29 -148 21 -348 -20 -482 -25 -78 -15 -106 34 -101 39 4 57 36
87 154 34 128 45 276 31 408 -17 171 -58 267 -146 344 -43 38 -125 81 -143 75z"/>
<path d="M7387 5162 c-11 -12 -20 -43 -23 -83 -11 -115 41 -268 109 -325 35
-29 56 -30 90 -3 l27 20 -47 92 c-41 81 -48 102 -53 175 -5 60 -12 89 -27 110
-25 33 -54 39 -76 14z"/>
<path d="M6437 5092 c-31 -32 -34 -61 -12 -122 8 -23 15 -55 15 -69 0 -44 49
-130 92 -161 68 -49 132 -51 144 -4 5 21 -4 35 -53 87 -57 59 -60 65 -72 137
-16 96 -27 125 -57 145 -29 19 -26 20 -57 -13z"/>
<path d="M5451 5073 c-13 -32 -6 -57 48 -174 51 -111 72 -209 78 -359 4 -116
2 -150 -18 -240 -13 -58 -23 -120 -23 -139 1 -37 24 -61 59 -61 35 0 71 132
89 322 23 233 0 382 -84 553 -51 103 -61 115 -102 121 -31 5 -36 3 -47 -23z"/>
<path d="M6788 5080 c-39 -23 -25 -125 25 -178 49 -53 120 -68 152 -32 11 12
31 20 51 20 18 0 34 5 36 12 3 8 16 5 41 -11 40 -24 67 -19 87 19 16 30 13 38
-41 95 -43 46 -54 53 -70 44 -11 -5 -19 -16 -19 -24 0 -7 -5 -17 -11 -21 -8
-5 -10 1 -7 20 4 20 -1 31 -20 46 -13 11 -31 20 -38 20 -20 0 -54 -50 -54 -79
-1 -24 -4 -23 -48 27 -49 54 -56 58 -84 42z"/>
<path d="M6608 5031 c-43 -38 -42 -82 2 -151 57 -89 168 -132 190 -74 12 30
11 32 -52 105 -40 46 -48 61 -43 82 5 20 1 29 -23 46 -17 11 -33 21 -36 21 -3
0 -20 -13 -38 -29z"/>
<path d="M7401 4719 c-48 -29 -64 -77 -59 -176 6 -112 54 -210 147 -304 66
-66 159 -120 211 -123 14 -1 36 -9 50 -18 42 -29 113 -56 161 -63 54 -8 79 9
79 54 0 38 -28 61 -77 61 -34 0 -47 7 -95 54 -63 62 -109 136 -132 215 -20 69
-21 150 -1 187 21 41 19 52 -17 74 -28 17 -34 17 -59 4 -39 -19 -49 -43 -56
-124 -6 -77 8 -171 38 -240 l19 -45 -36 40 c-45 51 -91 145 -106 217 -10 50
-10 64 5 105 22 63 22 66 -11 85 -27 16 -30 16 -61 -3z"/>
<path d="M6245 4598 l-28 -21 8 -145 c4 -79 13 -165 21 -191 15 -51 62 -103
107 -120 41 -16 45 -14 62 19 14 28 14 31 -15 77 -45 71 -61 135 -58 238 2 74
-1 95 -16 118 -30 44 -50 50 -81 25z"/>
<path d="M4042 4052 c-18 -25 -19 -35 -11 -112 13 -117 65 -197 160 -245 89
-46 159 -42 159 9 0 25 -60 86 -83 86 -24 0 -83 58 -99 97 -31 78 -37 104 -28
128 8 20 5 27 -19 45 -39 27 -56 25 -79 -8z"/>
<path d="M3915 3844 c-24 -22 -27 -31 -22 -67 5 -37 16 -52 99 -130 129 -122
192 -149 259 -110 29 17 45 45 35 61 -3 5 -32 19 -64 30 -81 30 -163 92 -205
154 -19 29 -44 61 -54 71 -19 17 -21 16 -48 -9z"/>
<path d="M6714 3238 c-15 -29 -15 -37 7 -127 24 -102 56 -151 98 -151 25 0 27
3 42 77 l13 63 -59 85 c-32 47 -64 85 -71 85 -8 0 -21 -14 -30 -32z"/>
</g>
</svg>
