<?xml version="1.0" standalone="no"?>
<!DOCTYPE svg PUBLIC "-//W3C//DTD SVG 20010904//EN"
 "http://www.w3.org/TR/2001/REC-SVG-20010904/DTD/svg10.dtd">
<svg version="1.0" xmlns="http://www.w3.org/2000/svg"
 width="1024.000000pt" height="1024.000000pt" viewBox="0 0 1024.000000 1024.000000"
 preserveAspectRatio="xMidYMid meet">
<metadata>
Created by potrace 1.10, written by Peter Selinger 2001-2011
</metadata>
<g transform="translate(0.000000,1024.000000) scale(0.100000,-0.100000)"
fill="#000000" stroke="none">
<path d="M7290 8494 c-307 -30 -4272 -339 -4560 -356 l-211 -12 -290 40 c-160
22 -292 37 -294 33 -5 -7 20 -158 26 -162 134 -99 418 -283 486 -314 l56 -26
141 11 c78 6 359 45 626 86 433 68 544 81 1030 124 300 27 546 48 548 47 4 -4
-309 -309 -408 -397 -267 -238 -623 -515 -837 -651 -397 -251 -941 -514 -1548
-747 -104 -40 -192 -75 -195 -77 -3 -3 4 -11 14 -19 27 -19 202 -19 323 1 127
21 332 75 493 130 464 160 1113 468 1543 733 86 53 89 54 107 36 9 -11 86
-102 170 -204 84 -102 160 -193 169 -203 16 -20 21 -21 -131 41 -36 14 -38 14
-72 -14 -19 -16 -35 -32 -35 -37 -1 -4 15 -39 34 -76 34 -69 34 -70 20 -118
-30 -102 -195 -330 -451 -623 -124 -143 -508 -529 -684 -688 -218 -198 -493
-405 -757 -569 -152 -95 -195 -118 -672 -372 -173 -91 -314 -170 -314 -176 0
-5 12 -17 26 -25 37 -21 104 -5 419 100 386 129 605 226 928 411 383 219 661
416 951 675 176 157 501 493 639 659 128 155 255 288 326 342 l40 32 42 -102
c82 -201 145 -394 211 -645 l30 -113 -37 29 c-39 30 -272 142 -295 142 -7 0
-26 -14 -42 -30 l-29 -30 32 -65 c47 -96 42 -138 -34 -289 -50 -99 -297 -468
-444 -665 -344 -460 -813 -968 -1195 -1295 -314 -269 -603 -470 -1075 -746
-162 -96 -302 -180 -310 -187 -13 -13 -13 -16 5 -29 42 -33 176 0 505 123 355
132 721 343 1135 655 319 240 522 414 730 629 286 295 629 706 794 954 157
235 327 440 342 413 10 -17 45 -302 60 -483 19 -227 17 -810 -4 -993 -36 -319
-112 -679 -183 -869 -66 -178 -129 -290 -206 -365 -92 -88 -142 -112 -233
-112 -127 1 -253 79 -485 303 -69 66 -130 121 -137 121 -6 0 -19 -10 -27 -22
-14 -19 -14 -25 -1 -44 8 -13 111 -119 228 -236 280 -280 418 -464 496 -661
43 -108 69 -157 99 -189 121 -130 414 211 617 717 178 444 264 945 281 1645 9
358 -19 770 -75 1089 -11 63 -19 116 -18 117 1 1 74 -102 162 -229 590 -853
1233 -1721 1593 -2152 156 -186 182 -205 284 -205 35 0 266 18 513 39 373 31
458 42 495 58 58 26 88 58 74 80 -15 24 -110 85 -290 188 -301 171 -689 440
-944 654 -144 120 -1011 985 -1350 1346 -140 149 -345 362 -457 476 -112 113
-203 212 -203 221 0 12 24 25 78 45 103 37 355 162 522 258 312 179 695 452
1045 744 318 265 405 346 405 377 0 37 -77 139 -173 230 -154 146 -262 226
-333 248 -15 4 -36 -5 -76 -34 l-56 -39 35 -111 35 -111 -73 -107 c-116 -171
-146 -209 -270 -347 -284 -317 -697 -678 -1059 -924 l-134 -92 -42 113 c-90
246 -230 523 -364 724 -142 213 -229 315 -452 535 l-219 215 133 89 c312 207
729 534 1009 791 l56 51 114 7 c63 3 409 18 769 32 594 24 678 25 900 14 493
-24 511 -24 547 -1 62 39 56 108 -15 196 -77 96 -134 136 -278 193 -71 29
-138 52 -149 51 -11 -1 -130 -12 -265 -25z"/>
</g>
</svg>
