<?xml version="1.0" standalone="no"?>
<!DOCTYPE svg PUBLIC "-//W3C//DTD SVG 20010904//EN"
 "http://www.w3.org/TR/2001/REC-SVG-20010904/DTD/svg10.dtd">
<svg version="1.0" xmlns="http://www.w3.org/2000/svg"
 width="1024.000000pt" height="1024.000000pt" viewBox="0 0 1024.000000 1024.000000"
 preserveAspectRatio="xMidYMid meet">
<metadata>
Created by potrace 1.10, written by Peter Selinger 2001-2011
</metadata>
<g transform="translate(0.000000,1024.000000) scale(0.100000,-0.100000)"
fill="#000000" stroke="none">
<path d="M2240 9726 c-36 -29 -50 -51 -86 -138 -23 -56 -60 -145 -83 -196 -53
-118 -78 -210 -93 -339 -7 -59 -17 -103 -23 -103 -6 0 -83 -35 -171 -79 -212
-104 -198 -100 -213 -49 -27 91 -94 200 -171 277 -88 88 -157 132 -274 172
-82 29 -85 29 -152 15 -55 -12 -75 -21 -97 -46 -33 -37 -32 -52 14 -163 21
-50 46 -163 90 -401 35 -191 67 -338 75 -347 20 -22 8 -102 -23 -155 -61 -106
-98 -379 -73 -534 6 -41 14 -118 17 -170 4 -91 3 -97 -23 -137 -19 -28 -32
-39 -43 -35 -9 3 -13 2 -9 -3 12 -13 -202 -255 -226 -255 -16 0 -155 -87 -190
-119 -70 -64 -113 -182 -102 -275 6 -44 15 -61 61 -112 53 -60 55 -61 128 -73
63 -10 80 -18 127 -56 67 -55 156 -100 240 -121 72 -18 79 -18 554 15 l280 19
45 -30 c26 -17 47 -32 49 -34 5 -3 -27 -64 -59 -111 -24 -35 -32 -64 -50 -180
-11 -76 -20 -165 -20 -199 1 -50 -5 -76 -34 -139 l-36 -78 -47 46 c-29 28 -57
47 -71 47 -33 0 -106 -54 -121 -89 -16 -39 -6 -93 24 -128 l23 -27 -46 -30
c-61 -41 -86 -91 -71 -145 5 -21 24 -53 40 -71 25 -27 34 -31 62 -25 28 5 22
0 -34 -35 -42 -27 -70 -52 -78 -70 -11 -26 -9 -35 18 -83 l31 -54 -39 -38
c-21 -21 -44 -51 -51 -67 -10 -25 -9 -33 8 -56 11 -15 36 -35 56 -45 l37 -17
0 -133 0 -133 -35 -17 c-51 -25 -50 -47 6 -122 34 -46 39 -59 44 -126 4 -41
13 -90 20 -109 8 -19 28 -104 44 -189 30 -154 30 -155 10 -182 -43 -61 -31
-122 32 -172 32 -25 33 -30 84 -288 63 -317 75 -409 51 -409 -9 0 -16 -1 -16
-2 0 -2 7 -41 15 -88 37 -209 37 -218 5 -912 l-31 -663 -72 -68 c-47 -43 -97
-79 -143 -101 -143 -67 -212 -166 -221 -319 l-6 -85 42 -50 c40 -47 46 -50
134 -72 138 -35 309 -39 431 -11 160 37 308 122 435 250 l59 59 5 -44 c6 -58
46 -117 100 -148 122 -72 478 -95 670 -43 182 49 352 135 393 199 41 64 64
139 59 188 -2 25 -7 167 -10 317 -6 259 -6 271 12 267 52 -13 143 64 143 121
0 30 -42 81 -89 105 l-36 19 40 1 c49 1 120 31 134 58 16 31 13 78 -6 93 -27
23 -123 177 -123 199 0 11 -13 34 -29 52 -24 27 -36 33 -70 33 -48 0 -44 -10
-67 150 -10 70 -27 145 -42 180 -33 81 -34 157 -1 221 23 44 29 49 94 71 38
12 86 23 108 23 59 0 290 -30 302 -39 5 -5 145 -11 310 -14 281 -5 327 -3 715
29 473 39 898 92 1079 135 91 21 127 26 137 18 10 -8 33 4 95 47 56 39 80 52
74 39 -43 -101 -53 -223 -34 -425 16 -177 52 -317 111 -433 27 -54 277 -306
369 -372 92 -66 228 -136 342 -175 l82 -29 -74 -71 c-100 -96 -208 -166 -387
-251 -82 -39 -156 -77 -164 -84 -8 -7 -58 -26 -110 -41 -81 -23 -114 -27 -225
-28 -119 -1 -134 -3 -180 -27 -33 -17 -74 -28 -115 -31 -101 -8 -149 -27 -201
-78 -80 -78 -111 -207 -70 -295 21 -46 115 -139 187 -184 110 -70 313 -121
482 -121 85 0 236 25 332 55 83 26 220 90 270 125 33 24 239 116 315 142 80
27 114 53 137 106 17 39 35 54 144 125 113 74 124 83 124 111 0 115 181 279
365 331 33 10 65 22 72 27 24 19 188 293 205 342 37 109 15 260 -54 369 -80
126 -212 190 -435 212 -158 15 -345 95 -417 177 -46 53 -49 62 -61 203 l-6 70
28 -32 c15 -18 44 -45 65 -60 20 -15 71 -57 115 -92 165 -135 396 -261 618
-336 130 -45 188 -69 224 -94 14 -10 47 -25 72 -34 26 -8 73 -36 105 -61 44
-34 68 -46 94 -46 35 0 113 -30 123 -47 3 -5 -55 -157 -128 -338 -132 -326
-222 -505 -252 -505 -14 0 -153 -113 -248 -201 -22 -20 -58 -42 -80 -49 -65
-21 -128 -56 -162 -92 -41 -42 -61 -147 -42 -216 14 -51 79 -113 165 -159 87
-45 150 -57 258 -48 122 10 160 10 306 1 98 -6 142 -4 205 8 195 39 333 149
425 340 126 261 200 601 200 916 0 52 9 259 21 460 l20 366 -25 66 c-17 45
-60 114 -135 216 -103 139 -130 190 -131 249 0 7 19 21 43 31 64 29 81 53 75
106 -3 24 -16 59 -28 77 l-23 32 14 161 c8 89 14 197 14 242 0 73 -3 84 -29
118 l-29 38 12 106 c29 261 76 482 162 760 55 178 56 202 18 291 -10 24 -19
45 -19 48 0 2 33 20 74 39 96 46 166 117 166 168 0 25 -9 45 -29 69 l-30 33
49 37 c92 69 131 142 106 202 -17 40 -77 88 -100 79 -9 -4 -36 1 -59 10 -41
15 -46 15 -102 -4 -32 -11 -60 -18 -62 -16 -10 10 224 169 402 273 148 88 196
146 165 203 -13 24 -82 59 -116 60 -33 0 -230 -101 -337 -173 -54 -37 -96 -64
-94 -59 3 4 10 26 16 49 11 39 23 50 198 174 271 194 327 255 288 316 -9 13
-30 30 -47 38 l-31 12 90 61 c110 74 143 111 143 159 0 29 -8 44 -40 75 -23
21 -49 38 -58 38 -9 0 -62 -26 -117 -58 -55 -32 -126 -73 -157 -91 l-58 -32
16 43 c8 23 21 52 28 63 8 12 91 70 186 130 170 107 212 144 225 197 9 36 -36
84 -90 94 -33 6 -50 1 -122 -35 -46 -22 -86 -41 -89 -41 -3 0 26 30 66 68 62
58 72 73 77 109 5 35 2 45 -19 66 -13 13 -32 29 -43 35 -20 10 -20 11 1 34 53
58 57 103 13 153 -45 51 -66 53 -132 11 l-56 -36 -11 35 c-6 19 -9 38 -6 43 3
4 43 32 90 60 46 28 98 69 115 89 55 66 34 127 -54 158 -36 12 -43 10 -165
-41 -71 -29 -131 -50 -134 -47 -12 13 -5 21 47 48 28 16 69 42 90 58 37 28 77
92 77 120 0 29 -40 64 -86 77 -48 14 -60 12 -160 -27 -6 -2 -52 59 -103 136
-98 149 -154 208 -270 286 -257 170 -619 237 -900 165 -105 -27 -242 -75 -316
-112 -167 -84 -353 -240 -480 -403 -139 -179 -270 -440 -339 -675 -26 -85 -51
-156 -56 -158 -28 -10 -77 -52 -90 -77 -18 -37 -32 -387 -17 -452 6 -26 21
-52 41 -71 30 -27 33 -36 39 -109 8 -102 47 -224 95 -299 45 -68 147 -166 218
-208 27 -16 59 -44 71 -63 l23 -34 -33 5 c-17 3 -185 24 -372 46 -420 51 -379
37 -1049 357 -395 189 -541 264 -763 395 -272 160 -357 200 -443 212 -25 4
-196 18 -380 31 -345 26 -402 35 -495 82 -68 35 -343 230 -355 253 -5 10 -32
99 -59 197 -70 255 -148 433 -296 673 -131 210 -337 448 -499 575 l-73 57 -33
187 c-17 102 -36 234 -40 293 -11 137 -29 200 -79 269 -37 52 -104 109 -128
109 -5 0 -30 -15 -53 -34z m65 -601 c10 -44 20 -136 22 -205 5 -113 8 -128 30
-157 13 -18 29 -33 36 -33 23 0 163 -97 214 -149 28 -28 68 -77 90 -109 21
-31 67 -91 101 -132 85 -100 208 -285 271 -409 122 -238 232 -579 191 -593
-17 -5 168 -195 252 -258 96 -73 222 -138 333 -173 65 -20 139 -30 390 -52
377 -33 510 -60 608 -127 98 -66 436 -242 564 -293 157 -63 280 -125 465 -236
325 -196 671 -317 1018 -358 47 -6 202 -16 345 -22 143 -7 263 -17 266 -22 8
-11 195 47 349 108 371 146 787 406 939 586 210 250 277 551 170 762 -38 74
-141 202 -197 246 -67 52 -173 104 -257 127 -33 8 -114 18 -180 21 -115 5
-124 4 -212 -25 -294 -99 -566 -325 -668 -557 -42 -94 -53 -163 -61 -360 l-7
-190 -31 -46 -31 -47 -49 130 c-33 87 -46 134 -40 143 68 94 78 112 82 157 4
46 3 50 -41 93 -32 33 -50 43 -62 38 -17 -6 -18 0 -12 78 18 251 132 574 284
809 209 321 421 491 699 562 78 20 114 23 284 23 234 -1 316 -17 479 -96 138
-67 218 -146 284 -277 53 -107 64 -150 49 -200 -16 -52 12 -95 73 -112 24 -7
42 -16 40 -20 -3 -4 8 -37 25 -71 50 -108 65 -181 64 -314 0 -132 -15 -202
-65 -314 -33 -73 -65 -101 -118 -101 l-31 0 18 -47 c17 -47 18 -48 64 -51 36
-2 56 3 87 23 23 14 41 22 41 18 0 -5 -44 -37 -97 -73 -54 -36 -108 -80 -120
-99 -39 -58 -25 -125 36 -173 l30 -23 -26 -85 c-30 -96 -38 -110 -64 -110 -11
0 -36 -15 -57 -34 -33 -31 -37 -40 -36 -80 1 -31 9 -58 27 -85 l26 -39 -44
-44 c-52 -53 -63 -85 -41 -129 15 -30 15 -33 -8 -60 -30 -35 -27 -28 -67 -214
-42 -201 -48 -374 -21 -567 22 -155 47 -212 108 -251 l36 -22 -7 -75 c-4 -44
-24 -133 -50 -216 -79 -254 -114 -416 -154 -710 -11 -76 -31 -180 -45 -231
-73 -264 -52 -582 51 -788 36 -71 116 -177 174 -229 39 -35 53 -56 69 -107 24
-78 26 -172 4 -230 -14 -37 -17 -94 -18 -364 -2 -250 -6 -345 -20 -435 -38
-249 -102 -487 -163 -603 -83 -158 -263 -258 -463 -256 -98 1 -452 36 -379 38
91 2 146 27 214 95 101 102 254 349 343 553 27 60 65 136 86 167 115 174 181
424 144 548 -10 33 -36 59 -177 174 l-166 136 -295 119 c-507 204 -557 230
-695 360 -250 238 -323 459 -331 1009 -3 248 -6 277 -22 300 -25 33 -59 50
-102 50 -70 -1 -72 -6 -86 -236 -7 -114 -16 -210 -21 -214 -4 -4 -141 -83
-303 -175 -223 -127 -310 -182 -357 -226 -117 -109 -258 -159 -447 -159 -71 0
-364 -25 -753 -65 -350 -36 -666 -65 -702 -65 -36 0 -151 9 -256 19 -186 18
-196 18 -470 -1 -154 -11 -312 -18 -352 -15 l-72 4 -55 -44 c-145 -113 -194
-270 -138 -443 70 -221 144 -837 157 -1325 3 -110 8 -226 10 -257 4 -52 3 -58
-19 -70 -13 -7 -53 -30 -88 -50 -141 -82 -283 -118 -466 -118 -119 0 -165 11
-169 40 -3 25 157 145 272 203 119 60 173 107 201 172 35 85 29 114 -175 831
-173 607 -196 698 -242 945 -27 151 -53 280 -57 287 -6 10 -379 142 -404 142
-3 0 -16 -15 -27 -34 -19 -31 -21 -48 -21 -222 0 -222 12 -398 46 -664 52
-400 56 -485 43 -955 -6 -236 -15 -446 -20 -466 -9 -36 -120 -156 -185 -200
-62 -43 -170 -91 -242 -110 -81 -21 -312 -28 -312 -9 0 39 36 71 197 176 182
119 207 145 232 238 6 23 20 368 32 795 l21 756 25 59 c36 84 31 183 -16 281
-20 44 -41 113 -55 186 -24 126 -21 161 13 152 27 -7 26 -3 -4 56 -17 35 -26
74 -31 133 l-7 83 -95 128 c-52 70 -93 129 -91 131 2 1 20 12 41 24 46 29 106
94 114 127 3 14 3 36 0 50 l-6 25 122 1 c68 0 132 4 143 8 26 11 45 -5 45 -38
1 -37 44 -81 94 -96 38 -12 48 -11 82 5 43 19 68 44 78 77 8 24 -23 104 -50
134 -19 21 -9 89 12 89 8 0 26 -24 41 -54 20 -42 35 -58 64 -71 46 -21 77 -15
123 25 51 45 53 75 12 171 -5 11 6 22 43 43 l50 27 81 -41 c89 -45 107 -44
134 8 25 48 29 96 12 137 -9 21 -15 39 -14 40 2 2 25 16 51 33 l48 30 36 -24
c51 -34 129 -34 167 1 30 28 32 51 7 123 -19 55 -15 64 13 33 16 -17 29 -18
92 -6 13 3 28 20 39 45 10 22 21 40 25 40 3 0 17 -12 31 -26 80 -86 175 -70
295 50 99 99 108 173 32 247 -36 34 -46 39 -72 34 -46 -10 -79 -36 -101 -82
-14 -28 -33 -47 -60 -61 -22 -10 -62 -36 -88 -56 l-48 -37 -47 34 c-26 18 -48
42 -50 53 -2 16 115 199 159 248 4 5 13 -11 19 -35 31 -116 113 -118 240 -8
98 85 126 177 73 240 -34 39 -78 58 -122 52 -25 -4 -40 -16 -60 -45 -14 -22
-46 -63 -71 -90 l-45 -51 -7 79 c-16 197 -125 324 -320 375 -62 16 -71 17
-113 2 -44 -15 -75 -50 -75 -86 0 -27 63 -96 94 -103 44 -9 117 -48 143 -76
29 -31 43 -71 43 -124 0 -43 -1 -44 -33 -44 -23 0 -48 -11 -80 -36 -45 -35
-45 -36 -52 -112 -9 -106 -8 -105 -53 -98 -120 20 -142 19 -167 -4 -43 -40
-49 -79 -26 -158 24 -80 25 -90 9 -74 -22 22 -66 13 -105 -20 -21 -18 -85 -77
-143 -131 -141 -133 -205 -176 -335 -226 -86 -33 -114 -40 -130 -32 -11 6 -85
24 -165 41 -164 34 -179 40 -210 82 -20 27 -21 34 -10 73 14 49 5 76 -37 111
l-26 22 52 227 c30 132 66 263 86 310 18 45 77 149 130 230 l96 148 -29 31
c-50 52 -66 94 -66 166 0 56 7 80 46 165 44 96 45 101 30 125 -45 70 -63 113
-69 158 l-6 51 -116 60 c-112 57 -120 60 -214 67 -172 12 -175 19 -14 33 81 8
162 17 180 21 32 6 31 7 -51 49 -86 43 -97 56 -109 129 -7 40 18 39 -396 12
-268 -18 -318 -24 -355 -42 -41 -19 -44 -19 -62 -3 -11 10 -20 21 -20 24 0 3
24 25 54 49 47 38 55 50 70 105 16 59 20 64 88 112 116 81 208 209 260 361 41
119 41 192 -1 278 -25 53 -31 77 -31 133 0 108 26 289 56 388 30 97 37 204 21
320 -8 56 -7 58 7 39 9 -12 29 -26 45 -32 26 -9 51 1 257 102 295 145 418 224
459 294 16 29 33 52 37 52 4 0 37 -23 74 -51 l67 -50 -7 41 c-6 37 -4 44 19
62 28 22 55 68 55 93 0 10 -14 30 -31 46 l-31 29 23 101 c13 58 26 95 30 87 4
-7 15 -49 24 -93z m-1057 -186 c9 -17 38 -65 64 -107 26 -41 54 -98 63 -126
14 -50 14 -51 -8 -66 -12 -8 -41 -33 -65 -56 -50 -49 -43 -64 -72 151 -30 224
-25 282 18 204z m7388 -1616 c20 -27 27 -46 25 -71 -2 -28 4 -40 38 -72 48
-46 60 -88 61 -205 0 -153 -44 -251 -164 -371 -67 -67 -249 -204 -271 -204 -4
0 23 35 59 77 102 118 111 189 36 257 -22 20 -46 36 -53 36 -6 1 -34 30 -62
65 -27 36 -58 65 -67 65 -34 0 -86 -58 -93 -103 -9 -49 -21 -77 -36 -77 -6 0
-34 20 -62 45 -44 40 -54 45 -81 39 -73 -16 -103 -63 -91 -141 8 -55 24 -90
54 -117 l21 -19 -40 -27 c-23 -15 -65 -33 -96 -40 l-55 -13 -34 33 c-25 24
-35 43 -35 64 0 17 -9 46 -20 64 -13 22 -20 50 -20 86 0 61 45 249 60 254 27
9 70 57 90 97 20 42 21 46 6 77 -13 26 -14 34 -4 44 71 67 193 165 211 169 29
6 340 22 483 23 l112 2 28 -37z m596 -2125 c-7 -7 -12 -8 -12 -2 0 14 12 26
19 19 2 -3 -1 -11 -7 -17z m-2177 -1860 c5 -45 1 -71 -34 -173 -22 -66 -47
-158 -56 -205 -9 -47 -20 -98 -26 -115 -6 -20 -6 -31 1 -33 17 -6 40 -59 40
-93 0 -29 -46 -130 -62 -137 -14 -6 -9 -42 11 -80 54 -105 299 -271 505 -342
32 -11 95 -24 140 -30 184 -23 344 -86 462 -183 38 -32 42 -58 23 -163 -9 -49
-21 -73 -79 -149 -74 -98 -238 -265 -338 -344 -178 -142 -278 -202 -521 -311
l-194 -88 57 -7 57 -7 -53 -31 c-29 -16 -82 -49 -118 -72 -290 -190 -595 -223
-927 -100 -72 27 -83 38 -75 81 6 32 156 62 357 73 183 10 257 29 359 93 33
21 84 48 111 60 230 99 564 305 655 405 54 59 90 149 90 227 0 71 -27 91 -300
222 -135 64 -263 129 -285 144 -81 57 -172 166 -224 268 -19 38 -26 43 -47 38
-19 -5 -24 -3 -24 13 0 10 -18 95 -41 187 -37 152 -40 179 -37 269 3 93 6 103
34 142 40 55 59 121 48 170 -4 21 -8 41 -8 46 -1 7 470 275 486 276 4 1 9 -23
13 -51z m-4680 -463 c52 -257 137 -565 231 -840 91 -267 98 -293 149 -570 29
-159 50 -293 47 -297 -4 -4 -66 -36 -139 -72 -94 -47 -149 -82 -192 -121 l-59
-55 -6 92 c-5 81 -66 1913 -66 1977 0 44 8 18 35 -114z"/>
<path d="M8361 8404 c-79 -25 -156 -51 -171 -59 -42 -21 -88 -81 -96 -121 -10
-52 15 -125 48 -143 25 -14 39 -10 265 73 131 48 245 91 253 95 68 35 20 166
-69 191 -56 15 -76 12 -230 -36z"/>
<path d="M7783 8022 c-56 -37 -109 -79 -117 -94 -21 -35 -20 -103 2 -140 23
-40 75 -71 104 -62 36 11 206 183 219 221 14 43 -9 85 -66 119 l-40 23 -102
-67z"/>
<path d="M8295 8074 c-95 -49 -135 -110 -116 -175 13 -43 56 -89 83 -89 49 0
162 92 173 140 8 38 -16 83 -62 115 -44 30 -40 29 -78 9z"/>
<path d="M2015 8018 c-35 -13 -50 -29 -71 -77 -20 -44 -11 -77 29 -101 40 -25
92 -25 134 -2 36 19 83 77 83 102 0 24 -39 57 -89 75 -50 17 -46 17 -86 3z"/>
<path d="M8824 8016 c-35 -16 -72 -58 -81 -94 -9 -36 21 -85 69 -112 38 -21
85 -23 149 -4 17 5 59 89 59 118 0 30 -51 76 -103 91 -60 18 -54 18 -93 1z"/>
<path d="M1373 7876 c-64 -30 -88 -63 -80 -112 7 -42 49 -101 82 -116 36 -16
71 -2 125 50 80 77 75 127 -16 179 -48 28 -48 28 -111 -1z"/>
<path d="M3401 6029 c-13 -5 -37 -20 -53 -34 -22 -18 -41 -25 -74 -25 -118 0
-177 -78 -121 -161 37 -54 85 -82 134 -76 97 10 228 109 239 178 5 28 1 41
-19 65 -37 43 -77 64 -106 53z"/>
<path d="M5472 5998 c-103 -33 -135 -48 -187 -89 -77 -60 -106 -118 -83 -165
16 -35 72 -74 105 -74 15 0 44 16 70 39 24 22 66 47 91 56 146 51 232 115 232
170 0 29 -32 65 -76 88 -27 13 -37 12 -152 -25z"/>
<path d="M4098 5683 c-36 -6 -88 -76 -88 -118 0 -39 37 -76 100 -102 l45 -18
-55 -6 c-30 -4 -80 -7 -112 -8 -50 -1 -59 -4 -82 -32 -39 -46 -30 -115 19
-137 12 -6 101 -14 198 -18 167 -6 177 -6 220 15 70 34 124 133 86 157 -7 4 2
12 22 21 71 30 102 86 79 143 -26 63 -287 125 -432 103z"/>
<path d="M5340 5608 c-51 -11 -93 -46 -121 -100 -42 -81 -12 -123 100 -140 57
-8 89 -7 168 7 131 22 131 22 147 53 12 24 12 32 0 62 -44 104 -155 148 -294
118z"/>
<path d="M6023 5499 c-22 -10 -53 -33 -68 -51 -31 -37 -31 -81 0 -160 19 -47
19 -47 -3 -71 -28 -30 -28 -46 2 -106 29 -57 91 -123 161 -171 45 -32 58 -35
130 -38 74 -4 82 -2 108 22 28 26 35 63 17 96 -6 10 -73 62 -150 116 -77 53
-140 100 -140 105 0 4 10 15 23 24 18 13 39 14 117 9 l95 -6 29 30 c28 30 28
32 16 82 -15 62 -59 111 -117 128 -61 18 -170 14 -220 -9z"/>
<path d="M5272 5235 c-83 -26 -108 -45 -129 -93 -13 -32 -7 -86 15 -119 17
-27 121 -30 399 -12 258 17 277 19 299 40 25 23 33 80 15 107 -5 8 -108 30
-265 58 -142 24 -258 44 -259 44 -1 -1 -35 -12 -75 -25z"/>
<path d="M5341 4897 c-75 -26 -97 -110 -41 -159 l30 -28 224 0 c196 0 227 2
241 17 41 40 39 96 -3 136 -25 23 -38 25 -202 36 -206 13 -205 13 -249 -2z"/>
<path d="M6731 4424 c-1 -6 4 -26 10 -45 6 -19 13 -40 15 -48 3 -8 7 -12 9 -9
3 2 -4 29 -14 59 -11 30 -20 49 -20 43z"/>
<path d="M3078 4343 c-37 -6 -99 -92 -91 -125 14 -56 74 -109 141 -123 38 -8
134 19 155 44 8 9 19 31 26 50 10 31 9 39 -13 72 -40 59 -137 96 -218 82z"/>
<path d="M5252 4266 c-48 -17 -72 -52 -72 -108 0 -40 4 -50 31 -72 35 -30 61
-31 408 -17 l183 7 24 27 c31 36 30 50 -3 87 -28 30 -28 30 -281 60 -139 17
-254 30 -255 29 -1 0 -17 -6 -35 -13z"/>
<path d="M2625 3992 c-6 -4 -21 -21 -33 -39 -39 -55 -26 -128 33 -183 24 -22
35 -25 107 -24 78 0 82 1 109 32 79 88 -27 222 -176 222 -16 0 -35 -4 -40 -8z"/>
<path d="M5134 3946 c-89 -39 -98 -143 -17 -202 95 -70 197 -99 328 -92 107 6
157 26 193 78 26 40 29 105 6 139 -16 23 -20 23 -118 16 -117 -8 -211 8 -299
49 -62 30 -54 29 -93 12z"/>
<path d="M5014 3620 c-36 -14 -74 -69 -74 -105 0 -77 20 -87 215 -114 198 -28
260 -27 316 2 59 31 96 95 79 136 -9 24 -23 32 -83 49 -40 12 -92 26 -117 31
-54 13 -306 13 -336 1z"/>
</g>
</svg>
