<?xml version="1.0" standalone="no"?>
<!DOCTYPE svg PUBLIC "-//W3C//DTD SVG 20010904//EN"
 "http://www.w3.org/TR/2001/REC-SVG-20010904/DTD/svg10.dtd">
<svg version="1.0" xmlns="http://www.w3.org/2000/svg"
 width="1024.000000pt" height="1024.000000pt" viewBox="0 0 1024.000000 1024.000000"
 preserveAspectRatio="xMidYMid meet">
<metadata>
Created by potrace 1.10, written by Peter Selinger 2001-2011
</metadata>
<g transform="translate(0.000000,1024.000000) scale(0.100000,-0.100000)"
fill="#000000" stroke="none">
<path d="M5868 9853 c-42 -6 -65 -49 -84 -154 -24 -128 -24 -409 -1 -534 20
-105 34 -84 -125 -187 -56 -36 -427 -276 -822 -533 -395 -256 -722 -462 -726
-458 -4 4 -58 132 -120 283 -62 151 -121 291 -133 310 -68 116 -176 220 -229
220 -35 0 -88 -48 -88 -79 0 -24 180 -419 214 -472 34 -51 178 -401 169 -410
-5 -4 -276 -195 -603 -424 -327 -230 -652 -458 -722 -507 -163 -114 -182 -136
-175 -201 8 -86 66 -129 129 -96 13 7 347 238 743 513 395 276 721 500 725
498 3 -1 12 -24 21 -50 265 -759 396 -1117 430 -1175 l39 -69 -27 -21 c-210
-164 -433 -382 -587 -573 -47 -59 -239 -340 -425 -624 -305 -465 -351 -540
-471 -775 -73 -143 -190 -371 -261 -506 -224 -433 -393 -863 -543 -1384 -97
-340 -143 -629 -152 -965 -5 -172 -2 -251 20 -493 20 -228 30 -295 45 -325 10
-20 24 -59 30 -87 14 -61 52 -139 89 -183 23 -27 37 -34 92 -43 l65 -10 32 35
c43 46 43 84 3 130 -21 24 -34 51 -40 88 -8 49 -29 110 -65 183 -8 17 -25 98
-37 180 -18 121 -22 194 -21 375 0 396 27 536 228 1198 l144 473 244 547 243
547 330 560 c441 746 505 837 819 1151 272 272 475 427 845 648 256 152 363
204 539 256 150 44 261 61 451 67 365 11 589 -44 749 -184 68 -59 141 -157
141 -189 0 -13 19 -44 44 -73 58 -65 90 -122 112 -196 23 -82 14 -321 -17
-422 -87 -287 -280 -666 -478 -938 -178 -246 -253 -372 -326 -555 -25 -63 -50
-123 -55 -132 -5 -9 -50 -104 -99 -210 -59 -127 -93 -215 -101 -258 -6 -36
-18 -87 -25 -115 -8 -27 -17 -90 -21 -140 -6 -88 -5 -92 35 -200 52 -137 124
-268 199 -361 49 -60 761 -883 1177 -1359 72 -82 166 -195 209 -250 137 -173
269 -291 452 -402 71 -43 95 -53 132 -53 54 0 101 31 126 84 30 64 6 93 -152
176 -101 53 -113 63 -215 176 -59 65 -149 173 -199 239 -352 458 -581 725
-919 1070 -213 217 -318 333 -420 465 -127 165 -159 215 -159 252 0 21 -10 50
-24 70 l-24 36 29 118 c15 66 28 140 29 166 0 35 8 61 29 95 16 27 43 93 61
148 23 74 40 109 65 135 21 22 38 53 46 83 6 26 20 64 30 85 11 20 19 44 19
54 0 10 77 128 170 262 142 204 195 291 321 528 83 155 169 312 190 348 126
214 181 476 149 713 -32 238 -173 524 -337 682 -54 52 -251 154 -394 203 -180
63 -455 109 -593 100 -130 -10 -472 -108 -706 -205 -134 -55 -393 -192 -533
-282 -71 -46 -130 -81 -131 -79 -15 17 -485 1293 -479 1298 15 15 1600 1048
1633 1065 17 9 33 15 35 13 1 -2 8 -14 15 -28 33 -64 203 -284 280 -360 170
-171 375 -271 591 -287 89 -7 114 3 135 52 36 87 10 128 -92 149 -272 55 -524
254 -687 542 -108 192 -156 439 -123 632 21 124 20 184 -4 232 -17 33 -78 93
-91 89 -2 -1 -16 -4 -31 -6z"/>
</g>
</svg>
