<?xml version="1.0" standalone="no"?>
<!DOCTYPE svg PUBLIC "-//W3C//DTD SVG 20010904//EN"
 "http://www.w3.org/TR/2001/REC-SVG-20010904/DTD/svg10.dtd">
<svg version="1.0" xmlns="http://www.w3.org/2000/svg"
 width="1024.000000pt" height="1024.000000pt" viewBox="0 0 1024.000000 1024.000000"
 preserveAspectRatio="xMidYMid meet">
<metadata>
Created by potrace 1.10, written by Peter Selinger 2001-2011
</metadata>
<g transform="translate(0.000000,1024.000000) scale(0.100000,-0.100000)"
fill="#000000" stroke="none">
<path d="M3430 8609 c-46 -22 -86 -42 -89 -44 -11 -11 36 -46 83 -61 84 -27
166 -83 256 -174 118 -119 180 -230 218 -393 39 -164 4 -1464 -58 -2232 -6
-71 -12 -131 -14 -133 -2 -1 -244 -22 -537 -46 l-534 -44 -450 23 c-247 12
-453 21 -457 18 -12 -7 93 -216 119 -237 44 -35 131 -85 191 -110 76 -32 173
-57 440 -112 l222 -46 475 68 c262 37 479 64 482 60 11 -11 -76 -536 -122
-741 -114 -500 -262 -949 -460 -1389 -249 -557 -436 -843 -828 -1268 -187
-203 -570 -544 -848 -756 -97 -73 -128 -102 -126 -117 2 -17 8 -20 42 -17 211
17 807 366 1240 728 646 539 1135 1212 1453 2000 136 337 289 841 308 1014 4
36 10 73 14 84 5 14 59 -58 235 -310 903 -1295 1730 -2345 2357 -2989 150
-155 188 -181 318 -218 216 -63 699 -106 1185 -107 167 -1 635 37 635 51 0 3
-105 58 -232 122 -476 237 -920 528 -1673 1096 -735 555 -1693 1547 -2555
2646 -90 116 -168 213 -173 216 -4 3 -5 12 -2 21 4 10 35 18 107 26 56 7 689
43 1407 82 718 38 1340 71 1381 74 150 10 239 58 261 138 10 39 9 42 -23 75
-19 19 -85 59 -153 93 -107 52 -142 64 -321 104 -111 26 -217 46 -236 46 -19
0 -563 -49 -1208 -110 -646 -60 -1175 -109 -1176 -107 -1 1 6 83 16 182 53
510 76 870 115 1780 18 409 30 592 41 648 l17 78 -24 25 c-51 55 -220 118
-461 173 -116 26 -736 132 -763 130 -5 0 -48 -18 -95 -40z"/>
<path d="M5437 7675 c-10 -9 -17 -21 -15 -25 2 -5 59 -48 128 -96 305 -213
594 -439 829 -650 126 -112 222 -208 501 -500 161 -168 243 -214 379 -214 108
0 173 22 232 77 60 56 83 118 83 223 -1 304 -252 544 -828 795 -118 51 -628
246 -791 301 -255 88 -481 126 -518 89z"/>
</g>
</svg>
