<?xml version="1.0" standalone="no"?>
<!DOCTYPE svg PUBLIC "-//W3C//DTD SVG 20010904//EN"
 "http://www.w3.org/TR/2001/REC-SVG-20010904/DTD/svg10.dtd">
<svg version="1.0" xmlns="http://www.w3.org/2000/svg"
 width="1024.000000pt" height="1024.000000pt" viewBox="0 0 1024.000000 1024.000000"
 preserveAspectRatio="xMidYMid meet">
<metadata>
Created by potrace 1.10, written by Peter Selinger 2001-2011
</metadata>
<g transform="translate(0.000000,1024.000000) scale(0.100000,-0.100000)"
fill="#000000" stroke="none">
<path d="M5154 10019 c-16 -6 -38 -23 -48 -38 -11 -15 -28 -32 -40 -37 -11 -5
-34 -36 -51 -68 -28 -56 -30 -67 -30 -172 l1 -112 -426 -196 c-382 -176 -3717
-1825 -3730 -1845 -3 -4 -13 -10 -22 -14 -9 -3 -29 -24 -43 -45 -33 -49 -42
-129 -27 -220 7 -37 14 -89 18 -115 4 -39 13 -56 46 -89 38 -38 39 -41 33 -89
-4 -27 -5 -49 -2 -49 5 0 168 84 285 146 l62 34 0 -184 c0 -134 4 -194 14
-224 13 -35 15 -498 20 -3261 4 -2616 7 -3226 18 -3248 18 -37 58 -64 104 -69
74 -10 68 -43 101 591 l30 570 -17 2140 c-10 1177 -19 2384 -21 2683 l-4 543
165 98 c192 114 457 256 620 332 63 29 763 406 1555 838 792 431 1463 792
1491 802 63 21 129 55 171 87 l33 24 97 -57 c54 -31 379 -183 723 -336 344
-154 661 -300 705 -325 44 -25 431 -203 860 -395 429 -193 815 -370 857 -394
42 -25 95 -50 118 -57 l41 -13 -6 -85 c-13 -179 -11 -313 6 -345 15 -28 10
-284 -54 -3273 -66 -3079 -68 -3245 -52 -3287 29 -77 41 -85 112 -78 l62 6 35
101 35 101 59 3325 c41 2272 57 3366 51 3455 -6 99 -4 178 9 331 l17 200 170
-67 c94 -37 176 -68 183 -68 6 -1 12 10 12 24 0 17 4 23 14 19 21 -8 54 13 70
44 19 38 56 225 56 286 0 28 -9 69 -19 91 -24 54 -96 119 -124 111 -14 -3
-586 239 -1711 725 -930 401 -1702 736 -1716 744 -24 13 -25 17 -25 122 0 87
-4 114 -17 136 -10 14 -18 39 -18 54 0 20 -9 34 -33 49 -30 20 -54 22 -327 33
-162 6 -333 14 -380 16 -47 2 -99 0 -116 -6z m406 -214 c118 -8 221 -15 228
-15 10 0 12 -18 6 -83 -9 -109 10 -222 41 -253 13 -12 40 -26 61 -29 22 -4 53
-13 69 -20 17 -7 84 -31 150 -55 66 -23 129 -51 141 -61 11 -11 65 -34 120
-53 84 -29 2928 -1274 2988 -1309 18 -10 20 -19 16 -54 l-5 -42 -1958 805
-1958 805 -35 -20 c-19 -12 -39 -21 -45 -21 -5 0 -26 -11 -47 -25 -41 -27
-4344 -2157 -4348 -2152 -2 1 -6 32 -10 67 l-6 65 348 182 c192 100 1100 549
2017 998 918 449 1690 832 1716 850 127 91 191 210 191 354 l0 81 53 0 c28 0
149 -7 267 -15z m1660 -1292 c916 -388 1669 -709 1674 -713 9 -9 -27 -326 -38
-337 -3 -3 -749 333 -1658 748 -1215 554 -1659 761 -1676 781 -37 43 -66 43
-172 0 -84 -35 -3609 -1930 -3817 -2053 -80 -47 -83 -48 -96 -29 -11 15 -12
34 -5 82 11 76 4 140 -21 188 l-18 35 1991 974 c1355 664 2008 988 2045 1017
54 42 54 42 90 27 20 -9 785 -332 1701 -720z"/>
<path d="M6409 6316 c-2 -2 -458 -9 -1013 -16 -826 -10 -1015 -10 -1048 1 -38
12 -40 12 -71 -19 l-31 -31 -17 -868 c-10 -477 -18 -879 -18 -893 -1 -25 -7
-27 -118 -54 -68 -17 -191 -59 -288 -98 -145 -60 -191 -85 -318 -172 l-149
-101 6 -50 c3 -27 8 -61 11 -75 6 -22 1 -27 -34 -42 -89 -39 -150 -121 -151
-205 0 -35 6 -48 34 -77 45 -44 94 -60 167 -53 63 5 69 0 69 -65 0 -40 25 -48
142 -48 169 0 367 42 539 115 46 19 85 35 86 35 16 0 -11 -46 -82 -139 -47
-62 -85 -121 -85 -130 0 -40 -42 -136 -80 -181 -22 -26 -40 -57 -40 -68 0 -22
-23 -79 -86 -208 -51 -105 -84 -224 -84 -302 0 -33 -10 -82 -25 -123 -34 -96
-38 -245 -7 -306 21 -40 86 -103 108 -103 6 0 32 -14 58 -32 l48 -31 -146
-146 c-80 -80 -146 -151 -146 -158 0 -6 -26 -27 -57 -47 -91 -54 -133 -108
-147 -187 l-6 -36 97 -58 c54 -32 100 -59 102 -61 2 -2 -10 -20 -26 -41 -17
-21 -52 -79 -78 -130 -43 -83 -49 -101 -53 -173 -4 -73 -6 -80 -26 -80 -14 0
-30 -14 -49 -46 -15 -25 -25 -50 -22 -55 4 -5 1 -9 -4 -9 -20 0 -99 -134 -105
-177 -3 -24 -15 -58 -26 -75 -11 -18 -20 -42 -20 -53 0 -11 -9 -33 -20 -50
-12 -18 -20 -47 -20 -72 0 -34 5 -46 32 -68 26 -22 38 -26 67 -21 20 3 41 12
47 21 10 14 45 15 292 9 211 -5 299 -4 356 6 l76 13 10 38 c14 51 -13 152 -47
174 -12 9 -23 22 -23 30 0 18 -102 121 -129 130 -11 3 -19 14 -19 23 1 9 -2
34 -6 54 -6 31 -12 38 -39 43 -18 4 -35 9 -39 11 -4 3 11 30 33 61 23 33 48
87 60 128 11 38 27 82 35 97 8 14 14 37 14 50 0 12 3 33 6 46 6 22 8 22 179
22 280 0 230 -28 451 252 l189 240 13 -43 c26 -89 40 -208 43 -349 4 -161 7
-169 69 -170 60 -1 59 2 42 -195 -14 -169 -14 -184 2 -240 11 -37 19 -102 21
-168 1 -64 7 -113 14 -120 6 -6 11 -35 11 -64 0 -89 -7 -88 417 -57 197 15
360 28 362 30 11 10 13 115 3 127 -6 7 -9 29 -6 48 5 31 1 39 -51 91 -93 92
-224 147 -352 148 l-43 0 0 78 c0 44 -3 140 -7 215 -5 123 -8 136 -26 144 -18
8 -7 19 85 86 59 43 120 82 137 88 16 6 33 19 36 30 4 11 15 28 26 38 41 38
49 284 15 446 -58 270 -191 481 -349 556 -37 17 -67 37 -67 44 0 8 17 40 39
72 65 99 110 197 171 381 80 241 130 500 130 678 l0 57 72 -7 c218 -20 242
-20 262 3 11 11 25 21 32 21 7 0 19 9 27 21 13 18 31 21 148 30 74 5 139 11
145 14 7 2 16 29 22 60 21 126 -28 196 -149 212 -36 5 -37 6 -41 59 -5 62 -19
79 -130 170 -126 104 -349 217 -470 239 -21 4 -38 9 -38 11 0 1 17 35 37 74
32 61 37 80 37 138 0 69 -22 132 -58 161 -11 9 -13 18 -7 25 5 6 17 33 26 59
15 45 15 52 0 98 -22 64 -102 152 -166 181 l-49 23 0 50 c0 88 -54 155 -137
171 -77 15 -249 -61 -264 -116 -4 -14 -7 -48 -8 -76 l-1 -51 -115 -113 c-82
-81 -115 -121 -115 -137 0 -13 -8 -40 -19 -61 -10 -20 -21 -63 -24 -95 -3 -32
-13 -70 -22 -83 -13 -20 -16 -47 -13 -140 2 -86 0 -114 -9 -114 -10 0 -13 28
-13 108 0 197 21 1447 25 1467 4 21 12 21 1252 42 686 11 1248 20 1249 19 0 0
-6 -1110 -13 -2464 -8 -1355 -12 -2466 -10 -2469 6 -5 219 -35 223 -30 1 1 7
1066 13 2367 7 1301 13 2406 14 2455 2 77 -1 97 -22 136 -21 42 -22 51 -12 98
11 50 10 53 -17 76 -18 17 -39 25 -67 25 -22 0 -152 7 -290 15 -256 15 -348
18 -356 11z m-1193 -1482 c16 -4 25 -21 38 -72 33 -123 32 -143 -6 -193 -32
-42 -113 -97 -125 -85 -5 5 9 193 24 309 6 50 16 55 69 41z m69 -483 c26 -25
69 -49 125 -71 96 -37 311 -144 383 -189 43 -28 47 -34 47 -69 0 -21 -4 -42
-8 -47 -5 -6 -14 -35 -22 -64 -7 -30 -28 -76 -46 -102 -19 -25 -34 -51 -34
-57 0 -6 -5 -14 -10 -17 -6 -3 -105 24 -222 60 -128 40 -220 64 -234 61 -28
-7 -67 -68 -62 -98 2 -18 15 -27 64 -42 l61 -19 -3 -46 c-2 -25 -11 -134 -20
-241 -15 -176 -21 -209 -61 -339 -56 -181 -223 -526 -251 -518 -209 61 -279
80 -365 97 -101 20 -336 50 -390 50 -15 0 -87 -25 -160 -56 -72 -31 -138 -58
-144 -61 -33 -13 -6 161 44 286 36 90 269 499 304 534 16 15 32 40 35 55 4 15
23 83 42 152 35 125 43 197 28 273 -6 30 -14 41 -47 58 -55 28 -80 22 -102
-24 -16 -34 -16 -40 -2 -67 8 -16 15 -34 15 -40 0 -6 -78 -49 -172 -95 -206
-100 -298 -127 -419 -123 -82 3 -83 3 -92 33 -5 17 -10 73 -11 125 -3 97 -24
169 -63 212 -11 12 -13 22 -7 28 15 15 155 100 164 100 5 0 32 16 62 35 51 34
132 65 170 65 10 0 18 7 18 15 0 8 16 18 38 24 479 128 543 139 577 101 25
-27 104 -50 201 -57 95 -7 199 13 284 54 30 14 96 34 145 44 50 9 92 17 95 18
2 1 22 -16 45 -38z m706 -508 c28 -5 30 -7 14 -14 -34 -13 -65 -10 -65 6 0 17
4 18 51 8z m-2585 -119 c-3 -8 -19 -14 -36 -14 -38 0 -40 24 -2 44 24 12 28
12 35 0 5 -9 6 -22 3 -30z m1319 -1249 c187 -42 273 -66 258 -70 -22 -7 -63
-76 -63 -107 0 -8 -13 -33 -28 -54 -15 -21 -71 -123 -124 -226 -85 -164 -117
-213 -261 -405 -91 -120 -185 -237 -209 -261 l-45 -43 -204 20 c-230 23 -304
43 -367 97 l-41 35 99 92 c107 98 287 300 358 401 86 121 187 357 207 482 6
37 3 44 -21 63 -15 11 -35 21 -45 21 -27 0 -79 -60 -79 -92 0 -22 -126 -307
-143 -325 -3 -2 -49 26 -101 63 -87 62 -96 71 -96 100 0 53 92 137 220 202
l105 53 130 8 c72 4 139 9 150 9 11 1 146 -27 300 -63z m315 -75 c0 -5 -2 -10
-4 -10 -3 0 -8 5 -11 10 -3 6 -1 10 4 10 6 0 11 -4 11 -10z m167 -186 c73 -46
107 -119 170 -359 45 -172 50 -198 45 -270 -4 -66 -8 -84 -27 -101 -12 -11
-24 -25 -26 -30 -8 -21 -116 -97 -189 -134 -68 -34 -163 -67 -243 -85 l-28 -6
2 158 c2 185 -13 250 -81 347 -46 65 -45 70 21 143 79 86 160 237 194 361 l18
62 46 -26 c25 -15 70 -42 98 -60z m-1424 -1001 c-7 -2 -13 -19 -13 -36 0 -18
-9 -45 -20 -62 -11 -16 -20 -41 -20 -54 0 -14 -6 -32 -14 -40 -27 -32 -55 -97
-61 -143 -6 -45 -8 -48 -37 -48 -26 0 -29 3 -25 23 3 12 9 45 12 72 4 28 15
59 25 70 9 11 27 45 40 75 23 57 95 151 114 149 6 0 6 -3 -1 -6z m1356 -165
c-3 -126 11 -330 23 -345 12 -15 6 -17 -65 -31 -26 -5 -49 -7 -51 -3 -9 15
-15 274 -8 356 l7 89 40 12 c22 7 43 13 48 13 4 1 7 -41 6 -91z m-1518 -364
l107 -17 -13 -31 -14 -31 97 -98 97 -97 -35 0 c-19 0 -134 -7 -255 -15 -121
-8 -228 -15 -237 -15 -24 0 -23 38 1 64 10 12 26 46 36 76 30 97 78 190 95
186 8 -3 63 -12 121 -22z m1544 -146 c39 1 112 3 164 2 93 0 93 0 188 -51 52
-28 93 -53 91 -55 -3 -3 -446 -72 -496 -77 -20 -2 -26 6 -43 53 -10 30 -19 74
-19 98 0 41 1 43 23 35 12 -4 54 -7 92 -5z"/>
<path d="M3646 6265 c4 -8 8 -15 10 -15 2 0 4 7 4 15 0 8 -4 15 -10 15 -5 0
-7 -7 -4 -15z"/>
<path d="M6018 3105 c-112 -63 -148 -93 -148 -122 0 -27 31 -60 84 -88 20 -11
35 -24 33 -30 -6 -18 -351 -285 -394 -304 -40 -18 -73 -61 -73 -94 0 -8 9 -26
21 -41 26 -33 74 -35 162 -5 126 42 182 82 369 267 176 174 177 175 188 148 5
-15 13 -38 16 -50 7 -31 42 -63 76 -71 22 -6 33 -1 58 23 28 29 30 35 30 111
0 195 -101 302 -284 301 -53 -1 -71 -6 -138 -45z"/>
</g>
</svg>
