<?xml version="1.0" standalone="no"?>
<!DOCTYPE svg PUBLIC "-//W3C//DTD SVG 20010904//EN"
 "http://www.w3.org/TR/2001/REC-SVG-20010904/DTD/svg10.dtd">
<svg version="1.0" xmlns="http://www.w3.org/2000/svg"
 width="1024.000000pt" height="1024.000000pt" viewBox="0 0 1024.000000 1024.000000"
 preserveAspectRatio="xMidYMid meet">
<metadata>
Created by potrace 1.10, written by Peter Selinger 2001-2011
</metadata>
<g transform="translate(0.000000,1024.000000) scale(0.100000,-0.100000)"
fill="#000000" stroke="none">
<path d="M5099 9522 c-9 -4 -31 -20 -49 -36 l-34 -28 -13 -447 c-8 -245 -12
-482 -10 -527 l3 -80 -140 -79 c-78 -43 -784 -436 -1571 -873 -786 -437 -1441
-803 -1455 -814 -14 -11 -34 -38 -46 -60 -21 -40 -21 -49 -17 -577 2 -295 10
-1721 18 -3170 14 -2474 16 -2636 32 -2670 37 -75 143 -109 177 -56 15 22 15
272 6 3072 -9 2675 -8 3059 5 3138 8 50 15 117 15 150 l0 60 323 169 c177 93
570 307 872 474 303 168 714 393 915 502 201 109 497 270 659 359 162 88 299
161 305 161 6 1 28 7 49 14 l38 14 1157 -465 c636 -255 1364 -547 1617 -649
253 -102 472 -195 486 -207 l26 -22 -38 -3000 c-35 -2801 -39 -3014 -58 -3210
-12 -115 -21 -227 -21 -247 0 -74 96 -145 159 -118 30 12 40 35 68 155 19 80
18 26 58 3225 23 1859 39 2828 47 2915 7 72 13 175 15 230 1 55 5 116 8 135 5
27 2 39 -12 52 -10 9 -637 264 -1393 566 -756 302 -1487 596 -1625 651 -137
56 -297 121 -354 144 l-104 41 7 301 c3 165 11 377 18 471 6 94 8 187 4 207
-8 42 -54 101 -97 123 -15 7 -29 14 -31 13 -2 0 -10 -3 -19 -7z"/>
</g>
</svg>
