<?xml version="1.0" standalone="no"?>
<!DOCTYPE svg PUBLIC "-//W3C//DTD SVG 20010904//EN"
 "http://www.w3.org/TR/2001/REC-SVG-20010904/DTD/svg10.dtd">
<svg version="1.0" xmlns="http://www.w3.org/2000/svg"
 width="1024.000000pt" height="1024.000000pt" viewBox="0 0 1024.000000 1024.000000"
 preserveAspectRatio="xMidYMid meet">
<metadata>
Created by potrace 1.10, written by Peter Selinger 2001-2011
</metadata>
<g transform="translate(0.000000,1024.000000) scale(0.100000,-0.100000)"
fill="#000000" stroke="none">
<path d="M3532 8322 c-94 -23 -109 -30 -154 -71 -50 -46 -50 -46 -32 -69 13
-16 48 -31 109 -48 184 -52 295 -132 364 -264 18 -36 292 -517 609 -1070 316
-553 576 -1008 578 -1011 9 -16 -383 -613 -617 -939 -390 -544 -844 -1049
-1374 -1529 -484 -439 -1133 -916 -1845 -1356 -52 -32 -97 -60 -99 -62 -2 -1
4 -12 15 -24 16 -18 26 -20 70 -15 105 12 362 115 659 264 555 277 1030 587
1590 1036 468 376 848 734 1270 1196 161 177 490 597 644 823 l33 48 219 -326
c121 -180 272 -395 336 -478 305 -397 778 -992 1037 -1306 541 -655 787 -944
860 -1007 76 -65 164 -118 245 -146 65 -23 70 -23 556 -23 462 1 493 2 544 20
30 11 59 28 65 37 20 32 -109 148 -454 408 -307 232 -437 331 -575 441 -1172
926 -1587 1315 -2140 2006 -391 490 -762 1044 -1307 1953 -272 454 -599 1034
-751 1333 -38 76 -81 147 -95 157 -68 54 -198 62 -360 22z"/>
</g>
</svg>
