<?xml version="1.0" standalone="no"?>
<!DOCTYPE svg PUBLIC "-//W3C//DTD SVG 20010904//EN"
 "http://www.w3.org/TR/2001/REC-SVG-20010904/DTD/svg10.dtd">
<svg version="1.0" xmlns="http://www.w3.org/2000/svg"
 width="1024.000000pt" height="1024.000000pt" viewBox="0 0 1024.000000 1024.000000"
 preserveAspectRatio="xMidYMid meet">
<metadata>
Created by potrace 1.10, written by Peter Selinger 2001-2011
</metadata>
<g transform="translate(0.000000,1024.000000) scale(0.100000,-0.100000)"
fill="#000000" stroke="none">
<path d="M8255 9093 c-115 -2 -1846 -16 -3846 -32 -2626 -21 -3643 -32 -3658
-40 -55 -30 -67 -117 -22 -162 l30 -29 2963 4 c1669 2 3234 9 3583 15 341 6
676 10 744 9 l124 -3 -195 -220 c-107 -121 -207 -242 -222 -268 -53 -91 -47
-279 13 -412 16 -34 31 -90 35 -126 4 -35 9 -77 12 -94 5 -27 0 -34 -45 -67
-34 -26 -77 -77 -142 -173 -65 -97 -96 -134 -108 -131 -79 21 -189 3 -292 -49
-69 -36 -150 -118 -187 -191 -35 -69 -95 -146 -123 -156 -25 -10 -170 -116
-186 -136 -7 -9 -13 -29 -13 -44 0 -26 -7 -32 -57 -56 -56 -25 -66 -26 -263
-30 -222 -3 -554 11 -635 28 -27 5 -112 13 -188 16 l-138 6 22 24 22 24 -34 0
c-92 0 -218 -64 -281 -141 -55 -68 -189 -305 -253 -446 -31 -70 -63 -135 -69
-143 -7 -8 -28 -58 -46 -110 -18 -52 -39 -106 -46 -120 -18 -38 -160 -649
-179 -775 -10 -60 -27 -270 -39 -465 l-22 -356 22 -244 c19 -209 31 -287 82
-530 33 -157 68 -325 77 -375 41 -224 135 -593 208 -813 20 -59 21 -70 8 -59
-9 7 -167 144 -352 304 -303 263 -336 295 -348 334 -18 58 -60 99 -104 99 -30
0 -46 12 -143 112 -127 131 -233 256 -355 420 -146 196 -184 277 -269 573 -99
343 -131 558 -131 875 l-1 235 97 598 c72 449 101 606 116 630 10 18 19 39 19
48 0 26 738 551 1068 760 l297 189 285 -6 c157 -4 286 -7 287 -8 1 -1 -60 -36
-135 -78 -235 -132 -565 -350 -668 -441 -50 -44 -63 -86 -43 -142 30 -82 80
-96 155 -44 25 17 47 29 50 27 2 -3 -52 -83 -120 -179 -135 -191 -134 -189
-217 -484 -23 -82 -54 -172 -69 -200 -42 -75 -167 -475 -200 -640 -71 -350
-95 -631 -87 -1005 7 -305 19 -424 46 -460 10 -14 41 -34 70 -44 60 -22 95
-13 111 29 5 14 16 298 25 632 18 747 20 761 172 1248 119 384 279 746 381
863 101 116 108 131 129 272 5 38 -8 56 -59 83 l-28 14 138 90 c212 139 392
236 612 328 190 80 330 188 330 253 0 22 -43 62 -66 62 -8 0 -14 7 -14 16 0 8
-13 28 -28 44 -39 39 -107 47 -208 24 -66 -14 -114 -16 -328 -11 -179 4 -295
1 -404 -9 l-153 -14 -142 -64 c-169 -75 -465 -265 -497 -319 -51 -88 -89 -122
-200 -180 l-110 -58 -212 92 -213 92 -130 127 c-131 128 -253 220 -290 220
-27 -1 -95 -65 -95 -92 0 -42 104 -189 209 -296 114 -115 255 -208 404 -268
l69 -27 -29 -23 c-15 -12 -45 -26 -66 -29 -35 -6 -124 -71 -137 -99 -3 -6 -25
-40 -49 -75 -89 -129 -139 -280 -148 -446 -3 -55 -16 -143 -28 -195 -58 -235
-97 -483 -115 -741 -9 -117 -8 -162 3 -235 12 -75 12 -105 1 -188 -12 -96 -12
-102 9 -140 19 -37 22 -58 23 -196 1 -144 4 -168 43 -343 41 -179 42 -189 26
-207 -23 -25 -14 -69 25 -130 42 -66 56 -142 41 -233 -22 -134 -81 -216 -157
-217 -24 -1 -43 -17 -104 -86 -118 -135 -400 -395 -580 -535 -47 -37 -359
-263 -695 -503 -335 -241 -625 -453 -643 -472 -34 -36 -38 -57 -21 -118 25
-89 96 -111 183 -56 101 64 1617 1259 1724 1359 207 193 202 192 113 39 -173
-295 -352 -649 -483 -953 -124 -287 -177 -495 -197 -780 -10 -142 11 -636 30
-710 6 -22 27 -55 49 -77 33 -34 43 -38 86 -38 27 0 54 4 61 8 6 4 37 104 68
222 78 294 121 386 328 690 136 199 185 261 318 405 159 170 286 292 295 282
3 -3 1 -68 -5 -144 -12 -167 -3 -252 39 -341 40 -85 130 -178 222 -228 85 -46
143 -100 168 -158 10 -22 30 -117 45 -211 14 -93 33 -188 41 -210 21 -53 64
-110 110 -145 42 -32 148 -70 194 -70 35 0 70 41 70 82 0 64 -60 153 -121 178
-31 13 -38 37 -64 207 -19 126 -31 167 -73 247 -45 86 -122 170 -197 216 -78
47 -143 106 -165 151 -47 91 -52 337 -10 488 25 92 25 107 1 155 l-19 37 155
172 c86 95 160 171 165 169 9 -2 1093 -892 1193 -979 39 -33 58 -43 85 -43 20
0 40 -4 45 -9 6 -5 171 -77 367 -160 483 -203 785 -296 1478 -450 507 -113
719 -149 1900 -321 l895 -131 43 21 c78 37 91 124 25 162 -19 12 -105 29 -237
48 -115 16 -213 30 -220 30 -6 1 25 15 69 33 106 43 127 58 161 120 25 45 29
63 29 127 -1 95 -30 168 -78 193 -92 48 -201 61 -272 31 -58 -24 -152 -118
-159 -160 -4 -19 -11 -34 -16 -34 -6 0 -10 -51 -10 -120 l0 -120 33 -20 c41
-25 31 -25 -137 5 -77 14 -141 25 -143 25 -2 0 8 18 23 39 34 52 54 122 54
191 0 45 5 65 27 96 99 145 113 292 42 444 -78 167 -227 286 -439 351 -41 12
-102 40 -135 61 -33 21 -163 136 -289 256 -228 217 -294 268 -394 311 -60 25
-183 51 -243 51 -49 0 -179 -47 -261 -95 -224 -131 -342 -294 -392 -540 -8
-39 -29 -110 -46 -159 -25 -69 -34 -114 -40 -206 -9 -130 -19 -158 -81 -224
-42 -46 -78 -117 -79 -153 0 -13 -4 -23 -8 -23 -17 0 -340 103 -489 156 -374
133 -905 367 -978 432 -38 33 -176 248 -190 297 -8 26 -46 107 -85 180 l-69
132 -91 424 c-50 233 -106 490 -125 570 -86 361 -110 599 -102 1002 6 296 23
472 73 747 37 202 111 498 133 528 10 15 32 70 49 123 17 56 44 116 65 145 19
27 92 149 161 271 l127 222 42 5 c148 18 236 17 304 -4 61 -19 108 -22 458
-32 432 -11 478 -8 585 43 70 33 157 116 184 176 13 29 30 45 70 66 77 40 149
110 215 207 67 98 145 159 239 186 64 18 91 36 173 109 31 27 86 73 122 102
84 67 154 155 213 268 25 49 52 99 60 110 8 10 14 37 14 58 0 48 -27 181 -47
227 -13 31 -43 175 -43 207 0 14 544 613 596 656 60 50 84 126 53 163 -19 24
-86 54 -111 52 -13 -2 -117 -4 -233 -5z m-4845 -5710 c89 -127 239 -309 382
-463 l135 -145 -381 -390 c-513 -525 -655 -693 -895 -1056 -64 -97 -121 -185
-128 -195 -34 -55 3 207 64 441 96 376 191 591 503 1145 162 287 171 307 166
346 -7 53 7 101 39 134 22 23 26 38 31 111 7 107 13 149 23 149 4 0 32 -35 61
-77z m4570 -1013 c12 -16 42 -44 68 -62 52 -36 237 -198 241 -212 1 -5 -64
-44 -145 -87 -127 -67 -158 -80 -226 -90 -165 -24 -349 30 -490 144 -41 33
-11 106 80 197 43 43 93 80 137 103 69 35 72 36 192 37 l122 0 21 -30z m519
-444 c93 -81 141 -112 190 -125 21 -6 15 -14 -78 -100 -142 -131 -228 -253
-270 -383 -15 -45 -3 -43 -204 -23 -129 13 -153 13 -182 1 -50 -21 -58 -61
-19 -93 62 -50 130 -68 252 -68 l112 0 0 -55 c0 -30 -4 -60 -8 -67 -5 -8 -157
15 -572 90 -311 55 -567 102 -569 103 -2 2 10 20 26 41 35 44 59 88 79 146 21
59 64 326 64 397 0 58 7 78 47 129 1 2 26 -12 55 -31 29 -19 86 -45 126 -57
40 -12 85 -26 99 -32 l26 -10 -26 -27 c-26 -27 -27 -33 -27 -131 l0 -103 -50
-57 c-59 -68 -66 -107 -24 -140 36 -28 47 -27 98 12 77 56 131 194 118 303 -4
34 -1 44 10 44 19 0 45 29 50 55 3 18 14 21 91 27 48 3 94 11 100 16 7 6 55
24 107 41 122 39 248 112 263 152 6 16 13 29 15 29 3 0 48 -38 101 -84z m537
-392 c14 -51 14 -53 -11 -89 -30 -45 -29 -36 -29 -211 l-1 -140 -47 -53 c-26
-29 -53 -70 -59 -92 -7 -21 -17 -39 -23 -38 -6 0 -78 12 -161 27 l-150 27 0
120 c0 101 4 130 24 185 45 125 132 231 256 313 34 23 46 26 91 21 36 -5 54
-3 59 6 12 19 32 -13 51 -76z m708 -395 c24 -19 27 -27 24 -77 l-3 -56 -115
-27 c-63 -16 -118 -28 -122 -29 -13 0 -9 31 13 100 16 50 29 71 53 87 42 30
114 30 150 2z"/>
<path d="M6370 7573 c-34 -6 -87 -48 -105 -83 -25 -48 -19 -84 18 -112 l32
-25 330 -8 c347 -7 367 -5 412 37 43 40 41 119 -3 151 -21 16 -57 20 -252 27
-125 5 -267 11 -317 13 -49 2 -101 2 -115 0z"/>
<path d="M6970 5934 c-41 -38 -50 -53 -50 -81 0 -18 -7 -44 -16 -58 -26 -40
-10 -91 40 -120 22 -13 53 -27 68 -30 63 -16 151 47 174 125 12 40 5 144 -11
169 -7 13 -100 41 -132 41 -15 0 -43 -18 -73 -46z"/>
<path d="M6860 5392 c-8 -2 -36 -25 -62 -50 -57 -55 -63 -89 -22 -121 36 -28
76 -26 113 5 26 22 51 75 51 110 0 17 -63 62 -80 56z"/>
<path d="M6435 4826 c-33 -19 -73 -48 -89 -65 -27 -29 -29 -34 -29 -123 0
-184 15 -215 114 -224 130 -13 238 46 296 161 43 83 45 103 23 171 -23 69 -28
73 -143 99 -93 21 -103 20 -172 -19z m175 -128 c0 -7 -21 -43 -47 -81 -42 -62
-50 -68 -77 -65 -30 3 -31 4 -31 57 1 71 32 101 106 101 32 0 49 -4 49 -12z"/>
<path d="M6664 4270 c3 -14 9 -37 12 -52 4 -16 10 -28 15 -28 4 0 1 21 -8 48
-17 51 -30 73 -19 32z"/>
<path d="M6085 3983 c-52 -55 -68 -94 -45 -108 6 -3 10 -14 10 -24 0 -10 16
-31 37 -46 34 -27 38 -28 82 -16 79 20 129 104 101 170 -14 34 -76 81 -108 81
-13 0 -43 -22 -77 -57z"/>
</g>
</svg>
