<?xml version="1.0" standalone="no"?>
<!DOCTYPE svg PUBLIC "-//W3C//DTD SVG 20010904//EN"
 "http://www.w3.org/TR/2001/REC-SVG-20010904/DTD/svg10.dtd">
<svg version="1.0" xmlns="http://www.w3.org/2000/svg"
 width="1024.000000pt" height="1024.000000pt" viewBox="0 0 1024.000000 1024.000000"
 preserveAspectRatio="xMidYMid meet">
<metadata>
Created by potrace 1.10, written by Peter Selinger 2001-2011
</metadata>
<g transform="translate(0.000000,1024.000000) scale(0.100000,-0.100000)"
fill="#000000" stroke="none">
<path d="M8175 8395 c-434 -24 -1222 -67 -1750 -95 -1915 -102 -2051 -109
-2140 -125 -267 -47 -498 -131 -583 -214 -61 -59 -79 -104 -111 -273 -53 -276
-75 -460 -91 -763 -19 -363 -66 -672 -141 -929 -11 -37 -220 -607 -464 -1265
l-443 -1196 -461 -950 c-543 -1116 -623 -1263 -754 -1373 -44 -37 -107 -88
-140 -113 -86 -66 -109 -108 -104 -188 5 -100 35 -115 152 -74 74 26 106 57
302 297 203 247 243 308 432 646 224 400 315 605 882 1985 298 726 566 1383
595 1460 110 295 230 715 293 1030 57 285 72 419 126 1090 16 200 32 336 41
362 16 44 68 98 112 114 14 5 308 57 653 114 l628 104 548 26 c2070 96 3176
145 3289 145 123 0 132 1 152 23 17 18 22 36 22 80 0 48 -4 61 -29 89 -29 33
-30 33 -128 35 -54 1 -453 -18 -888 -42z"/>
<path d="M6755 6023 c-1290 -16 -2252 -50 -2357 -83 -74 -23 -151 -84 -196
-154 -41 -65 -59 -180 -49 -311 13 -182 1 -837 -19 -1015 -23 -209 -24 -648 0
-845 25 -214 65 -423 93 -487 42 -95 136 -166 238 -182 22 -4 778 -49 1680
-102 1253 -73 1672 -94 1774 -90 74 3 137 10 140 15 4 5 54 13 111 17 146 9
229 48 285 133 44 66 111 335 140 561 9 69 50 364 91 657 72 516 74 538 74
730 0 219 -11 365 -41 553 -48 300 -98 424 -206 506 -98 74 -298 115 -554 112
-90 -1 -632 -7 -1204 -15z m695 -228 c740 -16 755 -17 853 -64 72 -35 123 -86
161 -161 61 -122 60 -117 41 -815 -16 -625 -17 -631 -41 -697 -14 -36 -34
-121 -44 -187 -10 -67 -29 -147 -40 -179 -15 -39 -25 -96 -31 -182 -11 -163
-51 -401 -72 -434 -20 -30 -27 -32 -167 -50 -113 -15 3 -19 -1895 69 -297 13
-796 36 -1110 50 -313 15 -582 31 -597 37 -38 14 -57 47 -89 162 -22 77 -34
152 -49 316 -18 208 -18 240 -4 1035 8 451 17 853 20 893 l6 72 41 22 c41 21
83 24 1172 74 622 28 1132 52 1135 53 3 0 322 -6 710 -14z"/>
<path d="M6976 3513 c15 -51 31 -74 20 -31 -8 36 -24 78 -30 78 -2 0 2 -21 10
-47z"/>
</g>
</svg>
