<?xml version="1.0" standalone="no"?>
<!DOCTYPE svg PUBLIC "-//W3C//DTD SVG 20010904//EN"
 "http://www.w3.org/TR/2001/REC-SVG-20010904/DTD/svg10.dtd">
<svg version="1.0" xmlns="http://www.w3.org/2000/svg"
 width="1024.000000pt" height="1024.000000pt" viewBox="0 0 1024.000000 1024.000000"
 preserveAspectRatio="xMidYMid meet">
<metadata>
Created by potrace 1.10, written by Peter Selinger 2001-2011
</metadata>
<g transform="translate(0.000000,1024.000000) scale(0.100000,-0.100000)"
fill="#000000" stroke="none">
<path d="M7395 7704 c-29 -11 -528 -69 -940 -108 -2265 -217 -3216 -306 -3365
-316 l-175 -10 -265 45 c-145 25 -271 45 -278 45 -11 0 -13 -12 -7 -57 11 -97
12 -98 137 -199 142 -114 283 -207 355 -234 49 -18 58 -18 167 -5 64 8 293 46
509 85 216 38 400 70 408 70 13 0 18 -28 28 -162 14 -188 8 -231 -58 -453
-132 -439 -438 -1088 -692 -1467 -329 -492 -722 -917 -1171 -1266 -69 -53
-148 -118 -176 -143 -51 -46 -51 -47 -31 -65 18 -16 25 -17 66 -6 130 35 473
237 666 393 307 248 618 553 834 818 36 45 69 81 73 81 18 0 99 -212 119 -310
51 -260 118 -726 216 -1495 56 -444 95 -545 210 -545 96 0 163 95 172 244 l6
85 71 6 c39 3 672 44 1406 90 1576 99 1447 90 1499 111 44 17 81 56 81 83 0 9
-25 51 -55 94 l-55 77 119 618 c66 339 129 669 141 732 41 224 97 371 173 456
54 60 64 79 78 143 20 96 -32 152 -236 251 -232 112 -378 138 -481 84 -32 -17
-128 -42 -279 -75 l-230 -49 -1315 -119 c-723 -66 -1334 -122 -1358 -125 l-43
-6 29 43 c109 158 336 584 472 882 45 99 116 252 157 340 172 365 174 370 161
407 -19 55 -61 109 -162 206 -86 81 -94 92 -71 92 15 0 619 48 1343 107 1248
102 1331 107 1582 107 146 -1 330 -6 410 -12 160 -13 202 -7 238 31 13 13 27
38 32 56 9 31 6 35 -97 141 l-105 109 -129 51 c-119 46 -157 55 -184 44z
m-484 -2613 c21 -17 24 -29 28 -102 6 -140 -51 -785 -129 -1446 -29 -246 -35
-272 -65 -273 -5 0 -125 -18 -265 -40 -215 -34 -417 -53 -1279 -125 -563 -47
-1025 -84 -1027 -82 -1 1 -41 380 -88 842 -48 462 -93 869 -101 905 -7 36 -11
67 -9 69 6 6 2796 268 2865 270 32 1 54 -5 70 -18z"/>
</g>
</svg>
