<?xml version="1.0" standalone="no"?>
<!DOCTYPE svg PUBLIC "-//W3C//DTD SVG 20010904//EN"
 "http://www.w3.org/TR/2001/REC-SVG-20010904/DTD/svg10.dtd">
<svg version="1.0" xmlns="http://www.w3.org/2000/svg"
 width="1024.000000pt" height="1024.000000pt" viewBox="0 0 1024.000000 1024.000000"
 preserveAspectRatio="xMidYMid meet">
<metadata>
Created by potrace 1.10, written by Peter Selinger 2001-2011
</metadata>
<g transform="translate(0.000000,1024.000000) scale(0.100000,-0.100000)"
fill="#000000" stroke="none">
<path d="M5320 6839 c-901 -129 -901 -129 -1222 -108 -93 6 -171 10 -173 7 -2
-2 5 -36 17 -75 l21 -72 99 -66 c64 -42 132 -78 193 -100 92 -33 96 -34 137
-19 42 15 351 84 376 84 24 0 12 -182 -29 -430 -81 -494 -319 -1275 -549
-1805 -134 -308 -345 -696 -516 -948 -52 -76 -94 -140 -94 -143 0 -2 8 -4 18
-4 35 0 118 64 250 194 116 114 148 153 246 301 150 226 260 412 373 632 52
101 96 177 98 170 35 -101 49 -224 115 -1008 38 -459 75 -854 81 -879 16 -69
33 -90 75 -90 118 0 185 103 206 316 l11 111 581 97 c320 53 596 96 614 96 35
0 94 23 110 43 28 35 22 54 -32 124 -42 53 -64 72 -95 83 -37 12 -41 16 -37
39 3 14 37 215 76 446 38 231 77 447 86 480 8 33 45 119 81 192 75 152 75 165
13 236 -43 48 -154 129 -240 173 -72 37 -169 40 -215 8 -16 -11 -95 -44 -175
-72 -127 -46 -194 -62 -542 -127 l-397 -75 -37 25 c-21 14 -69 35 -106 46 -41
13 -68 26 -65 33 2 6 110 331 240 721 152 457 238 732 243 772 6 61 6 61 -41
130 -27 37 -64 85 -83 105 -26 27 -32 39 -21 42 58 19 282 41 769 76 311 22
582 45 602 51 39 10 71 45 82 91 5 24 -2 36 -59 96 -67 72 -77 76 -250 117 -5
2 -381 -51 -835 -116z m697 -2276 c15 -36 12 -72 -42 -643 -32 -333 -58 -605
-59 -606 0 0 -26 -10 -56 -21 -61 -23 -817 -160 -826 -150 -6 5 -86 1028 -95
1207 l-3 54 504 97 c278 53 518 97 533 98 23 1 31 -5 44 -36z"/>
</g>
</svg>
