<?xml version="1.0" standalone="no"?>
<!DOCTYPE svg PUBLIC "-//W3C//DTD SVG 20010904//EN"
 "http://www.w3.org/TR/2001/REC-SVG-20010904/DTD/svg10.dtd">
<svg version="1.0" xmlns="http://www.w3.org/2000/svg"
 width="1024.000000pt" height="1024.000000pt" viewBox="0 0 1024.000000 1024.000000"
 preserveAspectRatio="xMidYMid meet">
<metadata>
Created by potrace 1.10, written by Peter Selinger 2001-2011
</metadata>
<g transform="translate(0.000000,1024.000000) scale(0.100000,-0.100000)"
fill="#000000" stroke="none">
<path d="M8950 8453 c-14 -1 -709 -39 -1545 -83 -2823 -149 -3030 -161 -3125
-176 -246 -39 -488 -127 -581 -211 -63 -57 -85 -111 -118 -294 -53 -292 -72
-455 -91 -800 -15 -274 -49 -510 -110 -764 -26 -111 -184 -546 -816 -2248
-111 -298 -129 -338 -570 -1245 -316 -650 -488 -992 -562 -1118 l-107 -181
-109 -89 c-180 -148 -205 -173 -217 -217 -19 -72 10 -157 54 -157 41 0 121 29
167 59 29 19 113 114 238 268 212 261 268 349 496 773 175 327 268 532 511
1125 291 709 475 1159 700 1705 241 587 344 893 440 1310 79 339 104 533 155
1185 20 251 36 405 46 432 18 51 79 108 131 123 21 6 313 56 648 111 l610 100
1390 64 c765 36 1584 74 1822 85 237 11 497 20 577 20 79 0 152 3 161 6 40 16
56 97 31 158 -23 56 -103 77 -226 59z"/>
<path d="M6845 6054 c-960 -12 -1954 -40 -2312 -64 -149 -10 -219 -37 -287
-110 -99 -106 -110 -165 -95 -497 12 -271 2 -599 -27 -903 -38 -401 -8 -929
71 -1245 30 -117 104 -199 208 -230 51 -15 133 -21 1342 -90 242 -14 793 -46
1225 -71 770 -45 1042 -52 1059 -26 3 5 56 12 116 16 133 8 192 33 257 105 38
42 47 63 81 182 44 154 59 245 165 989 l77 545 -1 270 c0 328 -18 486 -85 760
-40 164 -109 258 -232 315 -77 36 -287 71 -414 68 -48 0 -565 -7 -1148 -14z
m720 -229 c604 -14 624 -16 727 -72 98 -54 169 -160 191 -288 8 -48 6 -219 -7
-685 -17 -612 -18 -622 -41 -685 -14 -36 -33 -120 -44 -187 -10 -68 -28 -145
-39 -173 -12 -31 -22 -90 -26 -154 -9 -139 -53 -417 -72 -452 -21 -41 -37 -46
-177 -60 -117 -12 -250 -7 -1834 65 -939 43 -1718 80 -1729 83 -46 10 -72 54
-108 183 -28 103 -37 160 -51 328 -15 190 -15 265 1 1075 14 716 19 875 31
888 37 43 67 46 908 84 446 20 925 43 1065 50 336 16 535 16 1205 0z"/>
<path d="M6961 3540 c0 -8 4 -22 9 -30 12 -18 12 -2 0 25 -6 13 -9 15 -9 5z"/>
</g>
</svg>
