<?xml version="1.0" standalone="no"?>
<!DOCTYPE svg PUBLIC "-//W3C//DTD SVG 20010904//EN"
 "http://www.w3.org/TR/2001/REC-SVG-20010904/DTD/svg10.dtd">
<svg version="1.0" xmlns="http://www.w3.org/2000/svg"
 width="1024.000000pt" height="1024.000000pt" viewBox="0 0 1024.000000 1024.000000"
 preserveAspectRatio="xMidYMid meet">
<metadata>
Created by potrace 1.10, written by Peter Selinger 2001-2011
</metadata>
<g transform="translate(0.000000,1024.000000) scale(0.100000,-0.100000)"
fill="#000000" stroke="none">
<path d="M4475 9048 c-3033 -25 -3696 -33 -3723 -44 -72 -30 -78 -145 -9 -180
29 -16 244 -16 2822 -10 1534 3 3130 11 3545 17 415 6 830 9 922 7 l168 -3
-186 -210 c-231 -260 -251 -291 -264 -388 -13 -107 2 -201 52 -322 14 -33 29
-89 32 -125 4 -36 10 -74 12 -86 4 -17 -6 -29 -46 -59 -38 -28 -75 -73 -141
-172 l-90 -133 -62 6 c-48 5 -81 1 -145 -16 -138 -37 -240 -118 -298 -236 -39
-79 -85 -127 -205 -209 -70 -49 -111 -84 -114 -98 -2 -12 -6 -30 -7 -40 -2
-12 -25 -28 -63 -45 l-60 -27 -360 3 c-260 3 -377 7 -420 17 -33 8 -133 17
-223 21 l-163 7 22 23 c12 13 20 26 17 30 -11 10 -123 -16 -176 -42 -109 -53
-203 -184 -343 -474 -38 -80 -83 -170 -99 -201 -16 -31 -45 -100 -64 -152 -19
-53 -39 -104 -44 -114 -18 -32 -153 -625 -173 -753 -10 -69 -28 -286 -40 -482
l-22 -356 21 -244 c18 -195 31 -285 67 -453 25 -115 68 -321 95 -457 60 -294
112 -506 179 -723 27 -88 49 -160 48 -161 -1 -1 -158 134 -348 300 -338 293
-347 302 -369 359 -24 66 -67 101 -111 93 -23 -4 -42 13 -162 142 -159 172
-229 256 -341 407 -137 184 -175 265 -261 565 -94 329 -126 539 -130 850 l-2
235 97 610 c82 509 102 619 124 667 27 56 30 59 414 335 213 154 515 361 673
461 l285 182 304 0 305 0 -141 -79 c-198 -111 -377 -223 -539 -339 -151 -107
-189 -143 -198 -183 -8 -33 8 -90 34 -123 27 -35 63 -34 123 5 27 16 50 29 52
27 1 -2 -51 -81 -116 -175 -66 -94 -128 -195 -139 -224 -11 -30 -43 -134 -71
-232 -28 -97 -63 -203 -79 -235 -16 -31 -60 -154 -99 -272 -97 -295 -153 -587
-182 -944 -18 -231 -11 -626 16 -830 8 -63 43 -101 107 -118 54 -14 74 -7 94
34 9 17 17 200 28 618 17 642 23 716 80 945 44 179 156 532 216 684 28 69 87
200 131 290 65 130 96 181 154 248 49 57 75 97 82 126 6 23 16 63 23 89 14 57
1 85 -52 110 l-32 16 77 53 c182 128 495 299 708 387 103 43 245 136 278 182
11 15 20 37 20 49 0 22 -32 57 -61 66 -9 3 -20 17 -23 31 -4 13 -21 34 -39 45
-27 17 -44 19 -112 14 -44 -2 -258 -9 -475 -14 -217 -5 -422 -14 -455 -19 -98
-17 -309 -122 -501 -250 -144 -95 -175 -120 -189 -152 -9 -21 -36 -56 -59 -78
-41 -40 -219 -142 -247 -142 -9 0 -110 41 -225 91 l-209 91 -135 132 c-124
122 -244 216 -275 216 -21 0 -105 -70 -105 -87 0 -45 129 -220 238 -325 119
-113 253 -199 396 -253 l59 -22 -34 -25 c-19 -14 -50 -29 -69 -33 -28 -6 -156
-95 -136 -95 3 0 -12 -26 -33 -58 -103 -151 -150 -291 -166 -502 -4 -47 -20
-139 -35 -205 -85 -358 -127 -758 -100 -944 10 -72 10 -108 1 -183 -12 -86
-11 -96 7 -138 27 -63 35 -121 23 -165 -14 -52 3 -195 48 -395 32 -141 36
-172 25 -181 -20 -16 -17 -68 5 -109 56 -100 61 -114 61 -190 0 -163 -67 -290
-153 -290 -28 0 -46 -15 -142 -122 -118 -130 -351 -346 -516 -477 -55 -44
-391 -289 -746 -543 -717 -514 -688 -488 -658 -577 9 -27 27 -58 40 -71 34
-32 101 -24 164 20 25 18 399 309 831 646 590 460 819 646 923 745 76 72 139
130 141 128 2 -2 -52 -101 -120 -219 -133 -230 -291 -542 -400 -785 -204 -457
-258 -750 -229 -1240 8 -132 17 -262 20 -289 8 -65 38 -122 78 -146 33 -20
101 -26 125 -11 7 4 39 106 71 227 79 303 121 391 327 691 125 181 192 266
304 389 128 139 310 318 316 311 2 -1 -2 -70 -8 -152 -12 -179 -2 -257 44
-354 40 -85 119 -163 224 -223 88 -51 137 -99 165 -163 10 -22 30 -117 44
-210 30 -200 58 -270 131 -334 47 -41 124 -76 193 -87 34 -5 43 -3 65 19 52
52 24 157 -56 216 -23 17 -47 31 -53 31 -11 0 -31 95 -55 253 -27 180 -133
340 -280 425 -86 49 -119 82 -152 150 l-33 67 0 160 c0 136 4 174 24 252 25
96 25 97 -10 189 -4 11 301 356 312 352 8 -3 842 -687 1097 -900 115 -96 160
-128 181 -128 15 0 45 -8 67 -19 21 -10 194 -84 384 -164 444 -187 689 -264
1275 -401 561 -132 929 -196 2066 -359 l927 -134 45 24 c36 18 48 30 56 59 12
43 1 77 -32 98 -13 9 -109 28 -233 46 -115 17 -215 32 -223 33 -8 1 24 17 70
36 104 42 152 87 175 168 28 97 -6 233 -70 272 -74 45 -183 62 -259 39 -52
-16 -163 -118 -172 -158 -3 -16 -13 -34 -21 -41 -15 -12 -18 -112 -6 -202 6
-38 13 -52 37 -68 l30 -21 -30 5 c-134 23 -280 50 -283 52 -1 1 9 22 23 46 31
54 44 99 54 192 6 55 15 83 39 117 90 134 94 295 9 453 -77 145 -248 273 -430
320 -113 30 -172 76 -488 382 -80 78 -167 156 -192 174 -109 75 -245 121 -358
121 -192 0 -480 -190 -592 -392 -34 -61 -87 -219 -87 -260 0 -11 -16 -63 -36
-116 -29 -77 -38 -120 -48 -226 -13 -142 -19 -160 -77 -222 -43 -48 -62 -83
-78 -141 -7 -24 -16 -43 -20 -43 -17 0 -366 109 -481 150 -459 164 -1020 423
-1020 471 0 5 -32 53 -70 108 -39 55 -79 124 -89 153 -10 29 -49 114 -86 188
l-68 135 -108 495 c-59 272 -117 533 -128 580 -31 128 -69 387 -82 555 -14
179 -6 538 16 735 40 354 138 825 189 915 13 22 36 81 51 130 16 52 41 109 60
135 18 25 91 149 163 276 l132 231 142 7 c115 6 151 4 185 -8 65 -23 104 -26
504 -36 264 -7 394 -7 435 1 127 23 245 104 308 211 19 32 43 56 79 76 77 44
140 104 194 185 81 122 148 175 263 208 50 14 87 39 171 114 31 27 84 72 118
98 81 63 159 160 211 260 23 45 51 97 62 115 18 29 20 44 14 100 -3 37 -15 99
-27 137 -45 152 -49 172 -52 226 l-2 55 249 275 c137 151 281 304 318 341 111
109 121 170 39 216 -36 21 -51 22 -232 21 -107 -1 -1854 -15 -3884 -31z
m-1092 -5657 c64 -109 287 -380 454 -551 l102 -106 -335 -344 c-615 -633 -727
-770 -1081 -1316 -10 -15 -11 -5 -7 56 13 182 97 518 195 774 72 190 174 394
383 765 170 303 176 316 170 357 -7 51 8 103 40 133 21 20 25 35 31 124 9 147
16 162 48 108z m4647 -1083 c32 -29 112 -100 179 -157 67 -58 118 -108 114
-112 -5 -4 -73 -41 -151 -82 -119 -63 -157 -78 -218 -87 -135 -21 -298 13
-419 85 -86 52 -106 73 -99 104 11 47 51 105 116 167 91 88 152 117 258 125
172 12 157 15 220 -43z m499 -432 c94 -81 164 -126 196 -126 8 0 15 -3 15 -8
0 -4 -51 -56 -114 -115 -128 -120 -194 -209 -239 -326 -16 -42 -30 -77 -31
-77 0 -1 -77 6 -171 16 -191 19 -229 14 -241 -34 -9 -38 -2 -49 53 -79 79 -42
165 -60 256 -54 l77 6 0 -59 c0 -32 -4 -61 -9 -65 -5 -3 -266 41 -580 97
l-571 102 19 20 c35 40 70 101 90 159 24 70 71 347 71 419 0 34 7 62 21 84 11
19 23 34 25 34 2 0 28 -15 57 -34 28 -19 90 -46 137 -61 47 -14 91 -29 99 -31
11 -3 8 -12 -12 -32 -26 -27 -27 -33 -27 -131 l0 -103 -51 -58 c-44 -51 -50
-63 -47 -96 2 -30 9 -42 34 -56 l30 -18 51 38 c75 55 115 138 121 255 4 74 8
89 24 98 11 6 26 26 34 45 l14 34 82 0 c56 0 86 4 97 14 9 8 59 28 111 45 122
39 248 112 263 152 6 16 13 29 15 29 3 0 48 -38 101 -84z m525 -351 c29 -62
35 -103 18 -117 -8 -7 -23 -31 -33 -53 -16 -35 -17 -58 -12 -176 l6 -135 -45
-51 c-25 -28 -54 -72 -63 -98 -15 -38 -22 -45 -39 -41 -21 5 -296 56 -303 56
-8 0 -2 194 8 242 27 130 123 269 251 364 55 40 60 42 128 40 67 -1 71 -2 84
-31z m725 -441 c27 -23 31 -32 31 -79 l0 -53 -92 -21 c-163 -37 -158 -37 -158
-11 0 43 42 140 69 159 57 40 107 41 150 5z"/>
<path d="M6343 7530 c-41 -25 -63 -59 -70 -108 -5 -34 -1 -42 25 -64 28 -23
38 -25 188 -31 277 -12 521 -9 558 7 46 19 66 52 66 108 0 40 -4 50 -28 67
-25 17 -54 21 -275 30 -363 16 -425 15 -464 -9z"/>
<path d="M6997 5905 c-53 -43 -57 -49 -57 -88 0 -23 -7 -50 -14 -60 -16 -20
-10 -65 13 -91 22 -25 85 -56 116 -56 38 0 86 24 116 56 39 43 52 94 44 174
-7 68 -7 69 -46 84 -21 9 -56 18 -77 22 -34 5 -43 2 -95 -41z"/>
<path d="M6827 5314 c-57 -62 -65 -92 -31 -121 47 -42 117 -25 149 37 24 47
19 86 -14 109 -42 30 -57 26 -104 -25z"/>
<path d="M6519 4820 c-40 -12 -133 -74 -158 -106 -22 -27 -23 -37 -19 -156 3
-124 4 -128 31 -155 25 -26 33 -28 110 -28 124 0 201 44 260 147 46 80 52 113
31 182 -10 33 -25 66 -33 73 -9 6 -52 19 -96 28 -44 10 -84 19 -90 20 -5 2
-22 0 -36 -5z m109 -152 c8 -8 -1 -29 -40 -85 -42 -61 -55 -73 -79 -73 -33 0
-43 22 -33 77 7 42 28 71 59 84 30 12 79 11 93 -3z"/>
<path d="M6681 4254 c-1 -6 4 -26 10 -45 6 -19 13 -40 15 -48 3 -8 7 -12 9 -9
3 2 -4 29 -14 59 -11 30 -20 49 -20 43z"/>
<path d="M6105 3943 c-56 -59 -67 -90 -40 -113 8 -7 15 -20 15 -29 0 -10 14
-28 31 -40 95 -70 238 75 173 174 -20 30 -74 65 -102 65 -13 0 -44 -23 -77
-57z"/>
</g>
</svg>
