<?xml version="1.0" standalone="no"?>
<!DOCTYPE svg PUBLIC "-//W3C//DTD SVG 20010904//EN"
 "http://www.w3.org/TR/2001/REC-SVG-20010904/DTD/svg10.dtd">
<svg version="1.0" xmlns="http://www.w3.org/2000/svg"
 width="240.000000pt" height="240.000000pt" viewBox="0 0 240.000000 240.000000"
 preserveAspectRatio="xMidYMid meet">
<metadata>
Created by potrace 1.11, written by Peter Selinger 2001-2013
</metadata>
<g transform="translate(0.000000,240.000000) scale(0.100000,-0.100000)"
fill="#000000" stroke="none">
<path d="M1405 2098 c-22 -18 -49 -44 -60 -58 -10 -14 -37 -43 -58 -65 -40
-40 -40 -40 -48 -16 -6 15 -14 21 -25 17 -9 -3 -20 -6 -25 -6 -5 0 -9 -12 -9
-27 0 -25 -3 -23 -36 25 -20 30 -45 72 -57 95 -15 28 -30 43 -46 45 l-24 4 7
-84 c4 -45 9 -103 11 -128 3 -25 7 -76 9 -115 19 -260 13 -239 88 -342 l38
-53 -4 -107 c-3 -60 -6 -206 -7 -326 -1 -120 -5 -234 -8 -254 l-6 -35 -50 41
c-56 46 -65 49 -65 22 0 -29 145 -346 158 -346 15 0 284 374 276 386 -10 17
-32 9 -81 -29 -26 -21 -72 -54 -100 -75 l-53 -37 6 308 c8 470 0 416 80 532
38 55 81 119 96 142 28 45 30 58 43 308 3 58 8 129 11 158 8 63 -3 67 -61 20z
m13 -185 c-1 -33 -7 -51 -22 -62 -11 -9 -45 -40 -76 -68 -31 -29 -62 -53 -68
-53 -16 0 -11 29 10 58 20 30 148 172 154 172 2 0 3 -21 2 -47z m-190 -108 c1
-76 4 -141 7 -143 2 -2 43 30 91 72 84 74 104 86 104 66 0 -14 -170 -160 -186
-160 -10 0 -14 -16 -15 -62 0 -35 -2 -70 -3 -78 -7 -36 -19 -406 -21 -622 -1
-131 -4 -241 -8 -244 -9 -9 -8 -17 -11 206 -2 102 1 295 7 430 14 350 14 342
-3 350 -8 4 -36 17 -62 29 -27 11 -48 25 -48 31 0 13 11 13 51 -4 81 -33 74
-44 71 125 -3 122 -1 150 10 147 10 -4 14 -39 16 -143z m-96 -4 c42 -46 57
-81 35 -81 -26 0 -87 45 -87 64 0 12 -3 31 -6 44 -10 35 11 26 58 -27z m225
-153 c-30 -35 -68 -78 -85 -97 l-29 -35 1 27 c1 20 24 50 81 107 92 92 113 91
32 -2z m-222 -50 c26 -17 35 -30 35 -51 l0 -29 -31 26 c-17 14 -35 26 -40 26
-5 0 -9 11 -9 25 0 31 2 31 45 3z"/>
<path d="M520 281 c0 -35 5 -63 13 -69 14 -12 585 -26 1057 -27 l265 0 9 63
c4 35 4 68 0 72 -5 4 -309 11 -676 14 l-668 6 0 -59z m940 23 c195 -3 360 -7
367 -9 13 -4 12 -62 -1 -83 -7 -11 -44 -12 -185 -8 -332 11 -496 16 -786 22
-159 3 -293 8 -296 10 -8 4 -9 65 -2 77 3 6 113 7 277 3 149 -3 431 -8 626
-12z"/>
</g>
</svg>
