<?xml version="1.0" standalone="no"?>
<!DOCTYPE svg PUBLIC "-//W3C//DTD SVG 20010904//EN"
 "http://www.w3.org/TR/2001/REC-SVG-20010904/DTD/svg10.dtd">
<svg version="1.0" xmlns="http://www.w3.org/2000/svg"
 width="60.000000pt" height="60.000000pt" viewBox="0 0 60.000000 60.000000"
 preserveAspectRatio="xMidYMid meet">
<metadata>
Created by potrace 1.10, written by Peter Selinger 2001-2011
</metadata>
<g transform="translate(0.000000,60.000000) scale(0.100000,-0.100000)"
fill="#000000" stroke="none">
<path d="M285 494 c-77 -7 -146 -11 -152 -9 -7 2 -13 0 -13 -5 0 -15 47 -23
90 -16 22 3 40 3 40 0 0 -10 -52 -76 -77 -99 -36 -31 -17 -50 37 -35 57 15 70
9 70 -39 0 -45 -9 -51 -78 -51 -35 0 -43 -3 -34 -12 6 -6 34 -10 62 -9 l50 1
0 -43 0 -44 -86 -7 c-47 -3 -90 -4 -95 -1 -5 4 -9 2 -9 -4 0 -22 38 -31 91
-21 28 6 116 10 195 10 134 0 165 6 132 26 -7 4 -54 6 -105 5 l-93 -2 0 45 0
46 66 0 c59 0 65 2 54 16 -11 12 -25 14 -67 8 l-55 -7 4 54 4 54 44 8 c39 8
46 7 58 -12 18 -26 32 -27 32 -3 0 20 -41 62 -77 81 -28 14 -30 0 -3 -17 11
-7 20 -16 20 -21 0 -9 -178 -36 -186 -28 -3 3 13 20 35 38 23 18 41 40 41 49
0 14 13 19 61 24 34 3 78 6 98 6 34 1 35 2 17 15 -11 8 -22 14 -25 14 -3 -1
-69 -8 -146 -15z"/>
</g>
</svg>
