<?xml version="1.0" standalone="no"?>
<!DOCTYPE svg PUBLIC "-//W3C//DTD SVG 20010904//EN"
 "http://www.w3.org/TR/2001/REC-SVG-20010904/DTD/svg10.dtd">
<svg version="1.0" xmlns="http://www.w3.org/2000/svg"
 width="240.000000pt" height="240.000000pt" viewBox="0 0 240.000000 240.000000"
 preserveAspectRatio="xMidYMid meet">
<metadata>
Created by potrace 1.11, written by Peter Selinger 2001-2013
</metadata>
<g transform="translate(0.000000,240.000000) scale(0.100000,-0.100000)"
fill="#000000" stroke="none">
<path d="M1595 2098 c-38 -21 -120 -92 -207 -177 l-87 -85 -63 60 c-104 100
-221 166 -263 150 -27 -10 -16 -22 57 -62 79 -43 173 -114 213 -162 l26 -31
-45 -58 c-108 -140 -169 -314 -170 -488 -1 -105 0 -113 33 -183 30 -64 69
-112 100 -124 5 -1 12 -82 15 -178 l6 -175 -113 118 c-76 78 -121 117 -135
117 -42 0 -22 -33 81 -134 168 -165 161 -154 167 -274 l5 -102 -202 0 -203 0
0 -31 0 -30 418 6 c229 4 418 8 418 8 1 1 5 12 8 25 l7 22 -198 0 -198 0 0
118 0 117 180 170 c99 93 181 175 183 182 15 58 -131 -41 -290 -196 -59 -57
-78 -71 -78 -56 0 11 -3 82 -7 157 l-6 137 62 66 c67 72 111 151 131 234 14
58 8 249 -9 308 -13 44 -59 159 -82 205 l-19 36 48 53 c62 69 118 121 200 184
65 50 82 77 52 82 -8 2 -24 -2 -35 -9z m-279 -395 c77 -180 102 -345 69 -458
-24 -85 -69 -165 -121 -216 l-44 -43 -27 20 c-16 11 -41 47 -58 79 -28 56 -30
67 -29 170 1 128 26 219 96 339 39 67 90 145 95 146 2 0 10 -17 19 -37z"/>
</g>
</svg>
