<?xml version="1.0" standalone="no"?>
<!DOCTYPE svg PUBLIC "-//W3C//DTD SVG 20010904//EN"
 "http://www.w3.org/TR/2001/REC-SVG-20010904/DTD/svg10.dtd">
<svg version="1.0" xmlns="http://www.w3.org/2000/svg"
 width="1024.000000pt" height="1024.000000pt" viewBox="0 0 1024.000000 1024.000000"
 preserveAspectRatio="xMidYMid meet">
<metadata>
Created by potrace 1.10, written by Peter Selinger 2001-2011
</metadata>
<g transform="translate(0.000000,1024.000000) scale(0.100000,-0.100000)"
fill="#000000" stroke="none">
<path d="M5705 10118 c-72 -67 -166 -157 -210 -200 -44 -43 -81 -73 -83 -68
-2 5 8 45 22 90 29 91 31 107 15 161 -15 47 -79 112 -102 103 -9 -3 -37 -39
-62 -79 l-46 -73 -26 -446 -27 -447 21 -20 c32 -32 67 -16 119 54 24 34 44 67
44 74 0 7 6 13 14 13 29 0 176 108 286 209 63 59 127 112 142 118 44 20 105
80 165 167 31 44 76 109 100 143 l44 62 -23 21 c-13 12 -35 30 -49 41 -26 18
-27 18 -75 -7 -57 -29 -184 -165 -248 -264 -34 -53 -67 -85 -186 -177 -79 -62
-145 -111 -147 -109 -1 1 0 33 4 70 l6 68 177 133 c195 147 294 245 367 362
l47 76 -28 23 c-21 19 -39 24 -79 24 l-52 0 -130 -122z"/>
<path d="M10228 5120 c-2 -2816 0 -5120 5 -5120 4 0 7 2304 7 5120 0 2816 -2
5120 -5 5120 -3 0 -6 -2304 -7 -5120z"/>
<path d="M4653 10222 c-31 -5 -63 -48 -63 -86 0 -19 21 -69 54 -128 l53 -97
-29 -12 c-16 -6 -31 -22 -34 -35 -13 -50 46 -242 118 -388 38 -76 67 -140 65
-142 -10 -10 -193 177 -252 257 -70 95 -101 117 -138 98 -46 -24 -67 -52 -67
-88 0 -44 19 -76 123 -205 44 -56 85 -107 91 -115 9 -11 6 -12 -14 -6 -181 56
-242 103 -449 343 -95 111 -179 202 -188 202 -8 0 -28 -10 -45 -21 -29 -21
-30 -24 -26 -93 3 -67 7 -78 58 -160 96 -154 240 -285 384 -347 30 -13 56 -26
56 -29 0 -3 -30 -27 -66 -55 -186 -139 -317 -312 -400 -522 -27 -69 -34 -101
-34 -155 0 -39 -6 -81 -14 -96 -16 -33 -36 -219 -43 -402 -6 -155 9 -257 58
-398 41 -117 81 -188 211 -374 91 -130 127 -172 204 -239 l94 -81 -55 -60
c-243 -262 -412 -599 -505 -1008 -88 -385 -22 -728 204 -1065 79 -118 274
-313 386 -387 146 -96 339 -182 508 -225 l34 -8 -80 -53 c-140 -93 -293 -221
-437 -366 -153 -154 -295 -323 -295 -351 0 -10 -15 -36 -33 -59 -19 -23 -68
-104 -111 -180 -61 -111 -79 -152 -87 -205 -31 -202 -32 -216 -20 -324 7 -64
9 -154 5 -220 -7 -131 -4 -145 73 -342 105 -268 197 -421 372 -614 22 -24 38
-48 36 -52 -3 -4 -74 -46 -157 -95 -256 -146 -387 -244 -554 -416 -216 -221
-405 -519 -378 -595 13 -39 66 -67 110 -59 29 6 42 17 75 68 46 73 58 86 35
40 -35 -68 -2 -128 73 -134 33 -3 38 1 90 77 140 206 293 396 416 515 l57 55
-148 -255 c-205 -357 -207 -359 -200 -398 2 -18 15 -46 27 -63 20 -29 26 -31
66 -26 24 2 45 6 47 8 1 2 105 185 231 407 187 330 239 415 290 470 35 37 66
64 70 60 3 -3 1 -24 -6 -46 -14 -48 -7 -81 25 -119 20 -24 29 -60 56 -228 36
-218 37 -337 6 -424 -20 -56 -20 -120 0 -149 13 -18 25 -22 73 -22 l57 0 34
70 34 70 12 -35 c16 -49 32 -65 83 -88 41 -18 45 -18 57 -3 15 21 34 148 34
231 0 111 -20 216 -68 362 -26 79 -47 143 -46 143 1 0 47 -85 103 -189 98
-184 101 -190 111 -282 6 -52 15 -110 20 -129 13 -49 59 -90 107 -97 38 -5 40
-4 55 34 14 38 18 40 64 46 54 6 78 28 71 67 -66 362 -145 537 -332 737 l-100
107 70 -38 c175 -97 327 -224 446 -373 58 -73 61 -80 94 -241 4 -19 20 -48 36
-66 24 -27 30 -47 38 -112 11 -94 23 -129 59 -167 31 -32 97 -54 116 -37 8 5
21 31 31 56 34 89 8 257 -54 349 -15 22 -39 71 -55 109 -57 144 -239 367 -399
489 -100 77 -218 147 -316 188 -45 19 -80 37 -78 40 3 10 140 116 236 184 112
79 277 238 364 350 108 140 217 335 262 469 13 39 38 109 55 156 81 220 115
434 107 670 -9 257 -46 381 -164 558 -96 144 -228 287 -375 407 -32 26 -58 51
-58 56 0 4 53 39 118 78 154 90 221 142 318 243 162 168 227 295 303 592 49
186 64 331 58 536 -3 96 -13 213 -21 259 -56 301 -170 554 -356 790 -63 79
-316 233 -520 317 -61 25 -64 22 50 44 207 40 427 156 693 366 101 79 196 230
232 369 31 119 30 204 -5 384 l-31 164 -139 276 c-150 299 -219 400 -330 489
-30 24 -81 65 -112 92 l-57 48 267 92 c327 113 384 142 480 236 39 39 72 76
72 82 0 6 -19 27 -43 46 l-44 36 -294 -114 c-381 -147 -544 -227 -619 -305
-20 -20 -48 -46 -63 -58 -29 -25 -34 -50 -14 -75 6 -8 60 -50 119 -92 117 -84
143 -117 214 -272 101 -219 127 -541 64 -789 -23 -92 -33 -109 -23 -39 5 27 8
114 8 194 -1 158 -13 227 -70 410 -18 58 -44 143 -59 190 -43 143 -117 247
-237 337 -30 23 -94 78 -142 124 l-88 84 10 55 c18 96 31 280 31 432 0 124 3
155 20 198 11 28 20 74 20 102 0 45 -4 54 -39 89 -44 45 -69 48 -107 16 -23
-20 -28 -35 -38 -117 l-12 -94 -129 154 c-130 153 -151 170 -202 162z m300
-536 c-2 -28 -6 -75 -9 -105 l-6 -54 -22 55 c-12 30 -39 83 -61 119 -21 35
-47 79 -58 98 l-21 34 91 -48 90 -49 -4 -50z m-287 -698 c-155 -189 -276 -458
-322 -713 -25 -137 -25 -423 -1 -555 21 -112 73 -273 117 -360 51 -101 12 -63
-64 61 -68 111 -71 118 -113 294 -55 231 -70 376 -54 525 24 228 86 395 202
550 69 92 161 181 214 209 52 26 52 26 21 -11z m433 -46 c81 -120 133 -247
162 -395 23 -118 26 -426 7 -589 l-13 -103 -6 210 c-6 208 -20 326 -59 486
-44 190 -55 215 -124 299 -36 44 -66 81 -66 84 0 15 43 75 51 70 5 -3 26 -31
48 -62z m-884 -149 c-133 -224 -203 -545 -176 -808 20 -203 53 -317 153 -542
l90 -201 113 -100 c62 -55 122 -106 134 -113 27 -17 26 -23 -1 -36 -20 -9 -34
-2 -99 47 -88 68 -263 254 -319 342 -86 132 -106 225 -120 551 -18 409 14 572
155 793 30 47 93 124 101 124 2 0 -12 -26 -31 -57z m499 -359 c-44 -338 -46
-355 -40 -539 3 -104 12 -246 20 -315 8 -69 17 -161 20 -205 l6 -80 -19 25
c-36 45 -128 233 -156 317 -43 132 -53 230 -43 416 6 120 13 175 27 212 11 28
26 92 35 143 14 89 19 100 103 237 48 79 89 142 90 141 2 -2 -17 -160 -43
-352z m256 249 c72 -159 113 -650 75 -917 -9 -65 -29 -169 -45 -230 -28 -111
-79 -260 -86 -253 -2 2 -13 86 -25 188 -19 168 -20 220 -14 609 5 366 9 440
26 530 22 116 28 140 35 140 2 0 17 -30 34 -67z m990 -336 c0 -9 28 -72 62
-140 l62 -122 1 -145 c0 -166 -20 -269 -61 -313 -13 -14 -24 -36 -24 -49 0
-28 -106 -130 -218 -211 -78 -56 -194 -122 -267 -153 l-40 -16 21 23 c11 13
59 67 106 119 96 106 145 179 193 285 43 94 90 241 106 335 15 86 18 296 6
420 l-8 85 30 -50 c17 -27 31 -58 31 -68z m-470 -69 c40 -252 18 -460 -66
-638 -43 -91 -84 -163 -90 -157 -2 2 7 35 21 72 71 188 109 426 108 678 0 103
1 187 2 187 1 0 13 -64 25 -142z m-512 -1596 c78 -103 202 -354 255 -517 105
-324 147 -622 146 -1030 0 -196 -3 -225 -39 -435 -21 -124 -38 -218 -39 -210
0 9 -48 439 -106 957 -82 738 -109 952 -125 995 -36 98 -138 218 -184 218 -9
0 -16 2 -16 5 0 13 41 85 48 85 5 0 31 -31 60 -68z m-627 -145 c-171 -256
-247 -481 -258 -767 -8 -225 9 -331 91 -562 35 -101 74 -205 87 -233 12 -27
115 -171 228 -319 113 -149 212 -278 219 -288 11 -16 4 -14 -45 7 -127 57
-307 186 -397 286 -80 89 -154 191 -180 251 -14 31 -30 59 -36 63 -18 11 -46
85 -77 202 -26 101 -28 121 -28 303 0 194 0 196 39 345 36 139 48 169 172 415
102 205 145 280 190 333 31 37 59 67 61 67 2 0 -28 -46 -66 -103z m214 -92
c-94 -282 -120 -458 -112 -759 9 -333 66 -605 196 -936 l21 -55 -29 35 c-86
101 -281 460 -300 552 -6 26 -19 74 -30 106 -10 31 -27 130 -36 220 l-18 162
21 48 c11 26 33 97 47 157 35 146 83 273 161 426 59 116 121 216 129 207 2 -1
-21 -75 -50 -163z m285 36 c0 -3 -11 6 -24 18 -21 20 -23 27 -13 48 11 24 11
23 24 -19 7 -24 13 -45 13 -47z m788 -35 c88 -84 162 -185 211 -289 34 -71 77
-199 86 -254 5 -29 -1 -21 -25 35 -59 142 -148 277 -273 411 -40 43 -89 110
-111 151 l-39 74 34 -24 c19 -14 71 -60 117 -104z m-563 -1256 c25 -272 45
-508 44 -525 0 -25 -3 -22 -20 25 -102 285 -230 1105 -215 1375 15 263 12 266
83 -75 62 -301 63 -311 108 -800z m-369 843 c7 -65 23 -208 34 -318 42 -415
99 -729 194 -1070 23 -82 23 -88 6 -65 -29 38 -134 245 -170 335 -65 163 -89
282 -111 545 -23 273 -21 430 7 598 9 56 19 100 22 98 2 -3 10 -58 18 -123z
m972 -74 c124 -225 163 -375 163 -629 0 -87 -6 -179 -15 -230 -29 -158 -32
-157 -40 10 -18 369 -23 420 -61 568 -29 116 -84 289 -131 417 -14 38 3 10 84
-136z m-92 -438 c57 -340 56 -521 -2 -759 -25 -103 -53 -181 -54 -151 0 8 7
63 15 121 27 192 36 419 25 597 -9 141 -34 346 -55 448 -5 24 -3 22 16 -11 15
-28 32 -103 55 -245z m-487 -1157 c3 -16 1 -17 -13 -5 -19 16 -21 34 -3 29 6
-3 14 -13 16 -24z m115 -581 c85 -169 111 -309 111 -598 0 -300 -32 -536 -111
-807 -41 -142 -185 -444 -178 -373 13 132 27 222 48 310 13 55 45 228 70 384
l47 284 -2 281 c-1 175 3 306 10 349 8 45 8 74 2 86 -7 12 -6 22 2 30 9 10 2
22 -36 54 -38 34 -45 45 -35 55 23 23 38 12 72 -55z m287 -70 c211 -222 310
-493 295 -803 -4 -69 -11 -146 -16 -172 -9 -48 -171 -511 -176 -505 -2 1 8 41
22 87 57 198 69 288 69 530 -1 240 -10 320 -61 510 -31 113 -59 170 -120 245
-53 65 -115 191 -86 176 9 -5 42 -35 73 -68z m-799 -60 c-49 -60 -153 -184
-231 -278 -77 -93 -141 -177 -141 -186 0 -9 -13 -41 -29 -70 -16 -30 -38 -99
-50 -154 -18 -87 -39 -165 -84 -317 -8 -29 -7 -66 6 -165 10 -70 17 -152 17
-181 0 -30 16 -155 35 -279 19 -124 35 -228 35 -232 0 -10 -132 192 -145 224
-7 17 -18 63 -25 102 -12 65 -11 75 3 91 29 32 32 77 8 108 -13 17 -21 41 -21
68 0 22 -9 75 -20 116 -11 41 -20 98 -19 125 0 76 24 242 37 257 6 8 20 41 30
74 15 48 54 105 209 309 172 224 205 263 327 373 75 67 139 122 142 122 2 0
-35 -48 -84 -107z m155 -100 c-137 -171 -236 -351 -331 -603 -90 -242 -116
-382 -124 -665 l-6 -210 -17 75 c-70 298 -37 629 91 906 45 98 249 375 359
487 41 42 77 77 79 77 1 0 -22 -30 -51 -67z m162 -187 c4 -31 6 -56 4 -56 -2
0 -12 5 -23 12 -15 10 -26 9 -55 -5 -41 -20 -40 -18 18 61 22 29 42 51 44 48
3 -2 8 -29 12 -60z m6 -303 c-4 -53 -40 -286 -80 -518 -81 -463 -82 -464 -65
-55 10 240 22 331 61 462 21 73 78 208 86 208 3 0 2 -44 -2 -97z m-250 -12
c-27 -75 -55 -238 -82 -486 -14 -128 -17 -241 -16 -570 1 -281 -2 -404 -9
-391 -6 10 -23 54 -40 99 -99 272 -72 782 63 1193 35 104 90 224 104 224 3 0
-7 -31 -20 -69z m750 -330 c-17 -347 -116 -615 -362 -981 -107 -159 -124 -178
-178 -212 -33 -20 -64 -37 -68 -37 -14 -1 14 41 80 124 137 172 217 309 336
580 l75 170 53 320 54 320 8 -80 c4 -44 5 -136 2 -204z m46 -588 c-12 -20 -14
-14 -5 12 4 9 9 14 11 11 3 -2 0 -13 -6 -23z m-1827 -1510 c-185 -242 -217
-283 -221 -283 -4 0 87 146 127 205 28 40 178 205 187 205 2 0 -40 -57 -93
-127z"/>
</g>
</svg>
