<?xml version="1.0" standalone="no"?>
<!DOCTYPE svg PUBLIC "-//W3C//DTD SVG 20010904//EN"
 "http://www.w3.org/TR/2001/REC-SVG-20010904/DTD/svg10.dtd">
<svg version="1.0" xmlns="http://www.w3.org/2000/svg"
 width="1024.000000pt" height="1024.000000pt" viewBox="0 0 1024.000000 1024.000000"
 preserveAspectRatio="xMidYMid meet">
<metadata>
Created by potrace 1.10, written by Peter Selinger 2001-2011
</metadata>
<g transform="translate(0.000000,1024.000000) scale(0.100000,-0.100000)"
fill="#000000" stroke="none">
<path d="M10228 5120 c-2 -2816 0 -5120 5 -5120 4 0 7 2304 7 5120 0 2816 -2
5120 -5 5120 -3 0 -6 -2304 -7 -5120z"/>
<path d="M5004 9729 c-40 -11 -66 -60 -93 -174 -33 -140 -41 -207 -48 -382
l-6 -162 -96 -36 c-264 -100 -464 -220 -629 -379 -177 -171 -301 -348 -394
-564 -95 -222 -132 -396 -132 -627 0 -160 10 -241 49 -400 38 -152 93 -255
184 -345 98 -98 156 -127 376 -190 176 -51 182 -52 375 -61 107 -6 210 -12
228 -15 l32 -5 0 -204 0 -205 -32 0 c-87 0 -379 -129 -551 -244 -336 -225
-628 -623 -767 -1045 -114 -348 -131 -765 -41 -1024 50 -143 125 -259 264
-403 235 -247 519 -392 886 -455 l74 -13 -81 -27 c-158 -53 -275 -124 -461
-277 -315 -261 -584 -634 -774 -1072 -93 -215 -193 -563 -204 -710 -5 -68 -3
-78 18 -104 41 -52 130 -73 162 -38 10 11 34 93 56 193 21 96 51 210 66 254
114 341 308 721 502 985 74 101 334 348 436 414 113 74 270 149 377 179 l85
25 3 -1136 2 -1136 23 -24 c19 -20 28 -23 65 -18 23 3 56 13 73 21 50 26 57
57 52 239 -4 175 40 2082 49 2091 3 3 113 -1 244 -8 l239 -13 88 -42 c49 -23
118 -61 155 -86 62 -41 184 -156 230 -216 46 -60 252 -402 252 -418 0 -10 13
-38 29 -63 118 -187 173 -380 245 -868 l53 -355 -18 -40 c-10 -23 -19 -62 -19
-87 0 -37 5 -50 28 -73 37 -34 89 -43 130 -22 26 14 35 29 58 99 41 125 45
294 11 437 -14 58 -28 137 -32 175 -29 303 -175 752 -334 1024 -60 101 -299
408 -368 471 -113 104 -279 205 -418 255 -27 10 -53 21 -58 25 -4 4 40 21 99
39 467 142 838 429 1067 826 83 143 127 350 127 600 0 297 -70 579 -213 859
-174 341 -504 585 -942 699 -197 51 -275 61 -507 61 -213 0 -218 0 -218 20 0
12 9 92 21 180 19 145 20 163 7 218 -11 42 -12 61 -4 64 6 2 117 29 246 60
326 78 505 151 733 300 471 307 684 677 663 1154 -15 351 -155 618 -451 860
-287 233 -666 343 -1020 296 -65 -9 -131 -16 -145 -16 l-26 0 12 156 c7 86 23
197 35 248 25 103 22 145 -14 196 -33 47 -75 69 -113 59z m613 -898 c247 -39
253 -40 340 -85 171 -88 321 -231 414 -394 86 -150 130 -393 109 -597 -39
-365 -223 -623 -588 -825 -272 -150 -564 -246 -855 -281 -150 -18 -513 -7
-662 20 -158 28 -219 46 -264 79 -20 15 -60 37 -87 50 -115 54 -196 263 -210
547 -12 217 33 430 135 640 66 136 127 227 227 335 272 299 616 481 1010 534
144 20 155 19 431 -23z m-725 -3128 c26 -25 29 -25 155 -23 70 2 227 3 348 4
215 1 223 0 365 -32 242 -56 383 -135 547 -305 199 -207 330 -443 400 -723 26
-100 28 -124 27 -299 0 -178 -2 -196 -27 -280 -59 -191 -150 -344 -302 -503
-262 -275 -574 -445 -970 -529 -122 -26 -145 -27 -385 -28 -229 0 -266 3 -360
23 -240 53 -413 122 -611 244 -344 213 -488 517 -450 953 22 252 67 417 176
640 182 373 461 649 847 840 121 60 129 63 170 53 24 -5 55 -21 70 -35z"/>
<path d="M9755 991 l-30 -8 28 -11 c42 -18 69 -15 65 5 -4 20 -21 24 -63 14z"/>
</g>
</svg>
