<?xml version="1.0" standalone="no"?>
<!DOCTYPE svg PUBLIC "-//W3C//DTD SVG 20010904//EN"
 "http://www.w3.org/TR/2001/REC-SVG-20010904/DTD/svg10.dtd">
<svg version="1.0" xmlns="http://www.w3.org/2000/svg"
 width="1024.000000pt" height="1024.000000pt" viewBox="0 0 1024.000000 1024.000000"
 preserveAspectRatio="xMidYMid meet">
<metadata>
Created by potrace 1.10, written by Peter Selinger 2001-2011
</metadata>
<g transform="translate(0.000000,1024.000000) scale(0.100000,-0.100000)"
fill="#000000" stroke="none">
<path d="M10228 5120 c-2 -2816 0 -5120 5 -5120 4 0 7 2304 7 5120 0 2816 -2
5120 -5 5120 -3 0 -6 -2304 -7 -5120z"/>
<path d="M4697 9269 c-73 -37 -78 -42 -73 -67 3 -15 12 -87 21 -160 20 -162
13 -219 -46 -366 -115 -289 -581 -1005 -915 -1407 -130 -156 -269 -251 -426
-290 -98 -24 -124 -37 -167 -81 -41 -41 -65 -88 -79 -153 -6 -27 -30 -130 -53
-228 -45 -195 -45 -224 1 -259 25 -18 27 -18 118 3 90 20 97 21 186 5 176 -29
423 -126 731 -285 156 -81 429 -234 448 -250 6 -6 -476 -522 -1037 -1112 -62
-65 -112 -107 -156 -132 -70 -38 -222 -87 -274 -87 -46 0 -119 -40 -135 -74
-17 -36 -2 -145 33 -244 34 -93 92 -230 111 -258 35 -54 113 -38 250 50 234
152 231 151 1034 347 l544 132 20 -24 c34 -41 116 -220 139 -304 22 -79 23
-89 26 -870 3 -750 -4 -1149 -29 -1605 -9 -164 -8 -211 5 -296 19 -126 53
-219 113 -307 92 -136 188 -174 257 -104 40 39 71 119 93 240 15 83 18 244 24
1567 5 1261 9 1487 22 1560 13 73 13 88 1 107 -22 35 -73 69 -158 104 -43 18
-75 34 -70 36 11 3 642 153 1404 333 305 72 561 133 567 135 8 3 79 -127 193
-354 203 -405 222 -431 305 -431 141 0 213 118 222 365 5 125 4 134 -24 216
-37 107 -82 188 -172 309 -177 239 -481 522 -817 760 -147 105 -296 198 -342
214 -35 12 -40 12 -65 -8 l-27 -22 36 -34 c52 -51 223 -256 306 -368 120 -162
310 -467 297 -476 -6 -4 -3099 -495 -3248 -516 -129 -18 -136 -18 -157 -1
l-23 18 732 694 c402 382 781 742 842 800 458 440 1016 962 1315 1232 351 316
355 321 402 406 l46 86 -91 159 c-77 134 -106 173 -177 245 -49 49 -103 94
-128 105 -39 18 -49 18 -127 6 -47 -7 -85 -16 -85 -19 0 -3 14 -40 31 -81 l31
-76 -74 -121 c-65 -107 -164 -225 -905 -1081 -458 -528 -836 -963 -840 -965
-5 -3 -240 134 -524 303 -493 295 -518 311 -572 375 l-57 66 59 87 c32 48 78
105 102 126 212 188 639 619 1038 1049 197 211 467 465 524 492 74 35 109 127
83 219 -30 101 -101 200 -291 401 -112 120 -197 189 -245 199 -17 4 -50 -7
-103 -35z"/>
<path d="M6820 3585 c-11 -13 -3 -24 51 -74 87 -79 293 -307 407 -449 243
-303 507 -708 709 -1086 115 -216 142 -261 180 -301 49 -53 87 -68 154 -63
139 10 214 131 226 363 5 93 2 122 -16 188 -86 312 -400 646 -997 1059 -60 42
-228 144 -372 227 -269 156 -312 172 -342 136z"/>
<path d="M3057 3488 c-31 -24 -57 -48 -57 -55 0 -6 16 -57 36 -113 l36 -100
-99 -181 c-226 -413 -667 -921 -1190 -1370 -107 -92 -302 -247 -352 -279 -23
-15 -23 -17 -7 -48 9 -18 22 -32 30 -32 7 0 98 32 202 70 199 74 308 130 554
283 295 185 380 251 715 556 283 258 613 556 689 622 110 96 114 108 69 200
-31 62 -238 276 -368 379 -73 58 -163 110 -191 110 -6 0 -36 -19 -67 -42z"/>
</g>
</svg>
