<?xml version="1.0" standalone="no"?>
<!DOCTYPE svg PUBLIC "-//W3C//DTD SVG 20010904//EN"
 "http://www.w3.org/TR/2001/REC-SVG-20010904/DTD/svg10.dtd">
<svg version="1.0" xmlns="http://www.w3.org/2000/svg"
 width="1024.000000pt" height="1024.000000pt" viewBox="0 0 1024.000000 1024.000000"
 preserveAspectRatio="xMidYMid meet">
<metadata>
Created by potrace 1.10, written by Peter Selinger 2001-2011
</metadata>
<g transform="translate(0.000000,1024.000000) scale(0.100000,-0.100000)"
fill="#000000" stroke="none">
<path d="M4805 8924 c-44 -26 -81 -47 -82 -48 -1 -1 9 -84 24 -183 26 -180 26
-182 9 -270 -57 -292 -328 -896 -683 -1518 -268 -469 -290 -502 -436 -642 -95
-91 -162 -134 -257 -163 -159 -50 -220 -129 -246 -315 -4 -27 -26 -141 -50
-253 -24 -112 -44 -216 -44 -231 0 -32 35 -69 76 -80 18 -5 67 0 135 14 127
26 194 24 328 -11 125 -33 285 -97 499 -200 290 -141 830 -457 814 -478 -5 -6
-76 -112 -157 -236 -190 -289 -379 -577 -530 -807 -66 -100 -232 -355 -370
-565 -161 -247 -269 -401 -302 -434 -61 -60 -189 -129 -313 -169 -47 -15 -98
-32 -114 -38 -38 -14 -83 -53 -101 -88 -46 -88 21 -347 165 -644 72 -149 162
-245 229 -247 30 -1 210 106 291 172 106 88 279 190 465 277 94 43 117 54 328
147 418 185 1239 587 1807 886 102 54 265 139 362 189 l177 92 47 -87 c67
-123 181 -374 248 -546 94 -241 151 -311 251 -309 176 2 276 182 276 501 1 95
-4 144 -20 203 -92 351 -468 786 -1076 1249 -142 108 -378 264 -428 283 -45
17 -97 8 -97 -16 0 -6 26 -43 58 -82 136 -166 321 -435 443 -642 148 -249 179
-304 179 -312 0 -16 -900 -432 -1343 -622 -665 -284 -1144 -444 -1369 -458
l-97 -6 -7 27 c-3 14 -2 32 3 39 30 38 2549 3499 2645 3633 131 185 225 303
363 459 190 214 230 283 230 390 0 63 -5 80 -46 165 -46 94 -119 203 -202 302
-150 180 -243 267 -336 317 -85 45 -120 47 -231 16 -52 -15 -99 -31 -104 -35
-4 -4 11 -70 35 -146 l42 -137 -12 -95 c-16 -121 -59 -273 -112 -398 -24 -55
-137 -265 -252 -469 -210 -370 -243 -427 -612 -1080 -109 -192 -201 -354 -205
-358 -4 -5 -50 22 -101 61 -256 189 -556 374 -964 597 -198 108 -265 168 -265
238 0 30 53 118 127 209 196 240 539 713 972 1337 196 282 288 405 414 551 89
104 172 194 185 201 26 15 68 80 83 131 5 18 10 61 11 94 1 76 -33 145 -125
252 -67 78 -259 262 -347 332 -56 44 -162 100 -190 100 -9 0 -51 -21 -95 -46z"/>
</g>
</svg>
