<?xml version="1.0" standalone="no"?>
<!DOCTYPE svg PUBLIC "-//W3C//DTD SVG 20010904//EN"
 "http://www.w3.org/TR/2001/REC-SVG-20010904/DTD/svg10.dtd">
<svg version="1.0" xmlns="http://www.w3.org/2000/svg"
 width="1024.000000pt" height="1024.000000pt" viewBox="0 0 1024.000000 1024.000000"
 preserveAspectRatio="xMidYMid meet">
<metadata>
Created by potrace 1.10, written by Peter Selinger 2001-2011
</metadata>
<g transform="translate(0.000000,1024.000000) scale(0.100000,-0.100000)"
fill="#000000" stroke="none">
<path d="M4224 9592 c-17 -11 -36 -52 -31 -66 3 -6 37 -25 76 -41 65 -26 70
-30 56 -45 -23 -25 -18 -64 16 -131 41 -82 96 -139 171 -179 35 -18 78 -46 96
-62 18 -15 40 -28 50 -29 14 0 70 -65 174 -203 l18 -23 -300 -248 c-166 -136
-323 -272 -350 -302 -65 -71 -105 -157 -126 -273 -19 -102 -13 -162 23 -237
25 -54 123 -169 201 -236 66 -57 99 -79 314 -208 l107 -63 -110 -113 c-158
-163 -225 -259 -325 -463 -47 -96 -93 -183 -102 -193 -12 -13 -22 -58 -33
-144 -13 -107 -13 -137 -2 -207 32 -201 165 -424 354 -591 54 -48 99 -89 99
-90 0 -2 -110 -85 -243 -184 -307 -227 -347 -270 -419 -441 -61 -143 -62 -179
-19 -387 l30 -142 81 -120 c87 -129 181 -232 275 -301 33 -24 61 -45 63 -46 2
-1 -36 -51 -84 -110 -96 -121 -112 -152 -143 -275 -44 -178 -38 -301 20 -416
54 -106 210 -246 422 -376 15 -10 27 -21 27 -25 0 -5 -53 -45 -117 -89 -145
-99 -383 -299 -424 -356 -79 -108 -119 -225 -119 -349 0 -108 16 -170 60 -236
21 -31 38 -58 37 -59 -1 -1 -146 -103 -322 -227 -214 -151 -329 -225 -346
-226 -82 -1 -74 -129 9 -130 24 -1 22 -4 -25 -33 -56 -34 -61 -42 -39 -72 12
-17 19 -17 92 -6 43 7 89 19 101 27 30 19 40 18 48 -6 3 -11 13 -20 22 -20 34
0 299 151 487 277 109 73 201 132 203 130 5 -6 -19 -25 -273 -210 -269 -196
-285 -205 -434 -258 -94 -33 -105 -39 -108 -63 -4 -33 37 -76 74 -76 38 0 274
117 361 179 40 28 101 77 135 110 35 32 127 100 206 150 l143 91 84 -67 c111
-90 555 -334 720 -396 245 -92 514 -164 775 -207 168 -27 184 -26 199 7 7 15
8 30 3 35 -5 5 -211 63 -458 128 -420 111 -460 124 -624 196 -152 67 -202 95
-382 217 -115 77 -208 144 -208 148 0 5 8 13 18 18 14 7 35 -2 97 -45 96 -66
445 -249 605 -317 157 -67 948 -264 966 -241 16 20 41 17 102 -11 65 -30 83
-31 106 -6 27 30 13 52 -62 97 -60 36 -130 59 -592 189 -289 81 -557 156 -596
166 -81 21 -188 60 -247 90 -52 27 -237 150 -237 158 1 8 85 70 105 77 9 4 79
-31 168 -83 83 -49 168 -96 188 -105 20 -9 254 -83 520 -163 266 -81 513 -160
548 -176 82 -37 137 -41 162 -10 10 12 15 29 12 37 -6 17 -108 70 -217 114
-83 33 -180 59 -336 90 -247 49 -479 128 -695 237 -102 51 -223 121 -230 134
-3 4 21 26 53 48 l59 40 149 -48 c193 -62 1002 -400 1069 -447 29 -19 62 -49
74 -65 24 -32 61 -38 81 -14 6 8 14 31 17 53 4 31 0 44 -21 69 -28 33 -36 37
-686 308 -168 70 -318 135 -335 143 -16 9 -79 30 -139 47 l-109 31 129 106
c71 58 141 118 155 134 94 102 159 320 118 396 -6 11 -37 56 -70 100 l-58 80
27 22 c15 12 56 44 92 72 68 51 474 423 549 502 24 26 59 79 77 117 82 171 67
376 -35 495 -80 94 -373 284 -623 405 -87 42 -158 79 -158 81 0 3 67 87 149
187 195 240 210 272 222 482 17 287 13 300 -120 457 -54 64 -80 102 -75 110 4
7 125 139 269 293 143 154 280 303 305 331 88 101 150 228 176 362 20 104 3
342 -32 450 -79 240 -245 454 -437 562 -53 30 -97 58 -97 62 0 4 33 44 73 89
140 156 158 197 182 410 25 218 23 239 -36 392 -63 162 -118 245 -261 391
l-107 109 52 90 c43 76 59 95 106 125 131 84 392 189 490 198 58 5 87 23 103
63 13 37 -10 55 -69 52 -102 -3 -308 -68 -410 -127 -36 -21 -43 -22 -43 -9 0
9 -10 25 -22 34 -19 16 -20 21 -9 52 11 31 10 36 -10 52 -28 23 -43 22 -63 -5
-8 -13 -27 -36 -42 -53 -25 -29 -25 -29 -19 -5 4 14 22 41 40 60 74 80 81 112
37 161 -33 37 -47 34 -86 -24 -43 -63 -158 -197 -170 -197 -6 0 -54 -45 -106
-100 l-95 -101 -175 121 c-165 113 -178 125 -230 200 -30 44 -60 80 -66 80
-14 0 -44 -33 -44 -48 0 -16 3 -17 -81 22 -41 19 -90 51 -108 70 -39 40 -49
43 -66 20 -11 -16 -17 -15 -75 5 -67 22 -98 26 -116 13z m241 -217 c35 -55 44
-80 25 -73 -15 5 -82 128 -70 128 6 0 26 -25 45 -55z m195 -45 c0 -5 -4 -10
-9 -10 -6 0 -13 5 -16 10 -3 6 1 10 9 10 9 0 16 -4 16 -10z m278 -259 c45 -49
82 -93 82 -98 0 -5 -5 -14 -11 -20 -13 -13 -59 11 -59 31 0 6 -25 48 -55 94
-31 45 -52 82 -47 82 5 0 45 -40 90 -89z m326 -320 c3 -4 -3 -16 -14 -26 -20
-18 -25 -11 -14 19 7 18 20 21 28 7z m280 -102 c135 -146 209 -259 239 -362
27 -98 35 -309 13 -387 -8 -30 -19 -72 -23 -93 -6 -28 -38 -73 -118 -167 -60
-71 -112 -129 -115 -129 -3 0 -11 3 -19 8 -12 8 5 40 86 163 124 186 138 225
138 373 -1 196 -10 256 -53 349 -43 90 -98 171 -157 226 -20 19 -56 57 -78 85
-40 47 -40 48 -10 27 17 -12 61 -54 97 -93z m-125 -62 c119 -131 165 -207 196
-328 29 -114 35 -235 16 -306 -23 -84 -127 -276 -192 -352 -20 -25 -20 -25
-54 -7 l-34 18 22 33 c12 18 44 65 71 105 56 82 98 183 119 287 8 39 17 75 20
80 3 5 2 49 -2 97 -7 68 -12 91 -26 99 -10 5 -33 44 -52 86 -26 56 -55 97
-110 154 -65 68 -72 80 -62 98 6 11 12 19 13 17 2 -1 35 -38 75 -81z m-244 43
c-5 -8 -11 -8 -17 -2 -6 6 -7 16 -3 22 5 8 11 8 17 2 6 -6 7 -16 3 -22z m-98
-89 c10 -16 7 -23 -19 -47 -17 -16 -106 -108 -198 -206 -177 -186 -220 -249
-220 -320 0 -22 7 -52 15 -68 16 -30 65 -72 100 -84 11 -4 98 -53 193 -108
156 -92 171 -103 157 -117 -14 -14 -26 -10 -123 38 -169 84 -240 129 -303 192
-65 65 -116 156 -125 222 l-6 44 251 236 c138 131 255 237 259 237 4 0 12 -8
19 -19z m266 -109 c42 -65 77 -127 77 -137 0 -13 -8 -5 -22 23 -12 24 -52 80
-89 125 -57 70 -75 108 -50 107 3 0 41 -53 84 -118z m-739 26 c-10 -12 -93
-103 -183 -202 -186 -206 -213 -250 -212 -349 0 -34 9 -87 20 -119 11 -32 19
-58 17 -58 -2 0 -20 26 -41 57 -36 54 -38 62 -38 133 1 79 18 136 59 200 18
28 378 357 393 359 2 1 -4 -9 -15 -21z m685 -201 c70 -120 76 -218 21 -368
-33 -88 -87 -189 -102 -189 -16 0 -278 140 -338 181 -30 20 -70 50 -89 66
l-34 29 25 39 c14 22 65 78 114 125 49 47 130 132 179 188 l90 103 47 -53 c26
-29 65 -83 87 -121z m-569 130 c0 -2 -17 -19 -37 -38 l-38 -34 34 38 c33 34
41 42 41 34z m-90 -80 c0 -2 -10 -12 -22 -23 l-23 -19 19 23 c18 21 26 27 26
19z m840 -104 c17 -21 1 -108 -43 -227 -31 -87 -54 -128 -109 -203 -38 -51
-74 -93 -80 -93 -15 0 -5 22 72 144 61 99 70 122 85 199 9 48 23 104 32 124 9
22 13 51 9 73 -5 32 -4 33 9 15 8 -11 19 -26 25 -32z m-939 -392 c16 -19 27
-37 25 -39 -7 -6 -161 41 -175 54 -12 11 -12 18 -1 46 7 18 25 46 39 61 l25
28 30 -58 c16 -32 42 -73 57 -92z m115 -180 c100 -27 169 -54 240 -91 54 -29
101 -54 103 -56 2 -2 -10 -14 -25 -28 l-29 -24 -80 56 c-49 34 -134 78 -220
115 -196 83 -195 85 11 28z m518 -50 c9 -14 -28 -41 -44 -31 -11 7 -11 11 -1
24 15 17 37 21 45 7z m-554 -103 c125 -56 250 -148 200 -148 -9 0 -299 176
-315 192 -12 11 13 2 115 -44z m708 24 l23 -18 -20 -18 c-19 -18 -22 -18 -46
-2 -28 18 -30 27 -13 44 16 16 29 15 56 -6z m142 -71 c0 -18 -48 -51 -64 -45
-15 6 -14 10 10 35 23 24 54 30 54 10z m-280 -51 c18 -11 16 -12 -39 -33 l-45
-17 29 30 c32 33 34 34 55 20z m484 -61 c87 -51 116 -75 174 -143 126 -149
204 -278 261 -432 20 -54 22 -75 18 -195 -7 -241 -17 -259 -344 -646 -223
-263 -403 -461 -403 -441 0 4 116 137 258 296 213 239 263 301 293 363 57 116
73 198 66 337 -7 163 -31 229 -154 437 -56 94 -107 184 -115 202 -7 17 -42 57
-78 89 -36 31 -82 72 -103 91 l-38 34 27 34 c14 19 28 35 31 35 2 0 50 -27
107 -61z m-374 -25 c11 -13 9 -19 -12 -40 -22 -22 -28 -24 -51 -13 -35 16 -34
23 6 47 40 25 42 25 57 6z m253 -191 c51 -43 87 -83 103 -115 13 -26 22 -48
19 -48 -2 0 -69 47 -146 105 -78 57 -147 106 -153 108 -6 3 -1 15 13 30 l23
25 32 -19 c17 -10 66 -49 109 -86z m-498 -20 c19 -9 35 -19 35 -22 0 -4 -119
-125 -265 -271 -146 -146 -265 -272 -265 -281 0 -9 -9 -28 -20 -42 -33 -42
-50 -93 -50 -150 0 -114 147 -354 326 -533 100 -100 109 -112 92 -123 -15 -10
-36 0 -136 68 -104 69 -124 88 -179 163 -78 108 -109 171 -134 266 -23 92 -25
224 -4 266 8 15 15 36 15 46 0 10 10 31 23 47 13 15 54 77 91 136 57 92 92
132 239 277 95 93 177 169 184 170 7 0 28 -8 48 -17z m252 -108 c102 -41 320
-181 329 -210 3 -11 13 -36 22 -55 12 -24 17 -61 17 -120 0 -81 -2 -88 -39
-148 -32 -54 -230 -273 -552 -614 l-73 -77 -155 170 c-86 93 -156 174 -156
181 0 6 -11 23 -24 37 -25 28 -50 94 -65 176 -8 43 -7 53 9 70 9 11 24 33 32
49 19 36 538 575 556 575 7 1 52 -15 99 -34z m588 -525 c0 -179 -19 -234 -132
-385 -47 -63 -88 -114 -90 -112 -2 2 28 82 66 178 38 96 77 201 86 234 19 65
24 185 13 280 l-8 60 33 -65 c31 -63 32 -69 32 -190z m-372 -502 c-83 -107
-286 -358 -290 -358 -13 0 -63 35 -61 42 3 8 349 326 357 327 2 1 -1 -5 -6
-11z m-818 -437 c-3 -3 -18 8 -33 23 l-27 29 32 -23 c18 -13 30 -26 28 -29z
m412 25 c24 -21 26 -25 11 -31 -9 -4 -30 1 -48 10 -26 13 -29 19 -19 31 16 19
23 18 56 -10z m-97 -106 c8 -5 10 -10 4 -10 -7 0 -22 9 -35 21 -19 16 -20 18
-4 10 11 -6 27 -15 35 -21z m-130 -51 l25 -20 -32 16 c-18 8 -33 18 -33 20 0
10 16 4 40 -16z m415 1 c3 -5 1 -10 -4 -10 -6 0 -11 5 -11 10 0 6 2 10 4 10 3
0 8 -4 11 -10z m-505 -82 c22 -13 40 -26 40 -29 0 -11 -80 -73 -191 -147 -143
-97 -259 -198 -284 -248 -11 -22 -43 -67 -72 -98 -61 -69 -107 -157 -128 -251
-13 -57 -14 -83 -6 -147 6 -43 17 -91 25 -107 38 -72 104 -126 211 -173 33
-15 92 -41 130 -58 l70 -32 -39 -33 -40 -33 -45 31 c-73 49 -196 154 -245 208
-110 123 -125 335 -35 512 56 111 197 286 369 460 91 92 174 167 183 167 10 0
36 -10 57 -22z m410 -8 c0 -5 -5 -10 -11 -10 -5 0 -7 5 -4 10 3 6 8 10 11 10
2 0 4 -4 4 -10z m180 -135 c83 -69 133 -134 152 -197 11 -36 9 -41 -25 -91
-20 -28 -47 -65 -60 -81 l-24 -30 -12 85 c-14 96 -55 209 -105 289 -26 41 -32
58 -25 72 5 10 12 18 15 18 2 0 40 -29 84 -65z m-1005 -25 c-4 -6 -45 -54 -91
-107 -137 -156 -223 -302 -259 -436 -9 -37 -20 -66 -22 -63 -11 11 -3 166 12
220 14 52 27 72 113 164 53 58 131 134 172 168 78 65 86 71 75 54z m653 -5
c-1 -6 -38 -41 -81 -80 -88 -78 -183 -191 -229 -272 -16 -29 -34 -53 -39 -53
-5 0 -9 -7 -9 -16 0 -9 -12 -49 -27 -88 -21 -58 -26 -89 -27 -171 -1 -125 13
-153 97 -195 l57 -29 -54 -58 -54 -58 -130 123 c-139 131 -142 136 -142 240 0
64 29 122 120 236 67 85 129 140 345 310 147 115 182 138 173 111z m169 -146
c56 -60 62 -72 68 -123 l7 -56 -78 -125 c-59 -94 -105 -152 -184 -233 -58 -59
-119 -117 -135 -128 l-29 -21 -68 51 c-37 28 -68 56 -68 62 0 47 36 181 65
242 29 62 60 100 192 238 86 91 159 163 163 162 3 -2 33 -33 67 -69z m336
-311 c-39 -134 -97 -214 -258 -358 -90 -80 -130 -110 -149 -110 -14 0 -26 5
-26 11 0 9 437 509 446 509 1 0 -4 -24 -13 -52z m-1248 -180 c0 -84 3 -100 33
-166 19 -41 32 -76 30 -78 -6 -5 -77 81 -93 113 -18 35 -9 156 13 196 9 15 16
27 17 27 0 0 0 -42 0 -92z m738 -365 c4 -3 -5 -14 -21 -23 -136 -82 -161 -89
-61 -15 63 46 71 50 82 38z m208 -69 c51 -15 184 -81 369 -184 298 -167 336
-195 396 -293 43 -72 48 -84 52 -155 6 -117 -38 -229 -137 -341 l-30 -34 25
61 c63 158 58 363 -13 494 -34 62 -115 138 -183 173 -60 31 -85 38 -425 125
-132 33 -246 63 -254 66 -9 3 17 24 64 54 44 28 80 50 80 50 1 0 26 -7 56 -16z
m-17 -316 c176 -75 324 -142 330 -148 6 -6 -14 0 -44 14 -30 14 -201 69 -380
122 -179 54 -329 100 -333 104 -12 10 75 59 93 52 8 -3 159 -68 334 -144z
m403 -50 c69 -25 151 -101 191 -176 26 -49 32 -71 31 -118 -1 -56 -1 -57 -11
-24 -34 123 -118 236 -217 292 -31 17 -65 38 -76 46 -19 13 -19 14 5 7 14 -4
49 -16 77 -27z m-648 -103 c163 -53 316 -108 341 -123 32 -19 52 -42 69 -76
36 -72 21 -133 -55 -233 -32 -41 -73 -86 -93 -101 -20 -15 -96 -74 -169 -131
-72 -56 -138 -101 -145 -98 -6 3 -48 35 -92 72 -74 61 -135 140 -135 174 0 7
-11 26 -24 42 -14 16 -31 57 -39 96 -29 128 -30 171 -8 298 31 172 32 175 43
175 6 0 144 -43 307 -95z m-544 -26 c-43 -125 -33 -276 26 -391 11 -21 48 -74
84 -118 35 -44 72 -94 81 -112 9 -18 38 -60 63 -93 70 -89 71 -95 8 -38 -32
29 -74 62 -95 73 -20 12 -65 56 -100 98 -50 62 -68 93 -88 156 -28 90 -44 186
-39 242 10 104 17 144 31 155 8 6 14 17 14 25 0 15 32 85 37 81 2 -2 -8 -37
-22 -78z m1132 -132 c67 -40 93 -94 89 -182 -6 -103 -23 -141 -85 -192 -86
-70 -295 -206 -412 -267 -58 -31 -109 -56 -112 -56 -23 0 7 28 111 106 98 73
135 109 218 211 117 145 144 195 144 276 0 63 -16 104 -59 151 l-26 30 40 -23
c22 -13 63 -37 92 -54z m-1295 -86 c-5 -149 7 -202 69 -321 l39 -75 -59 65
c-39 43 -64 80 -73 110 -19 65 -16 223 6 293 9 31 18 57 20 57 1 0 0 -58 -2
-129z m1478 -304 c0 -1 -23 -25 -52 -52 -40 -39 -46 -43 -29 -18 25 36 81 85
81 70z m-471 -400 c-2 -1 -13 -9 -24 -17 -19 -14 -19 -14 -6 3 7 9 18 17 24
17 6 0 8 -1 6 -3z m-309 -177 c0 -5 -2 -10 -4 -10 -3 0 -8 5 -11 10 -3 6 -1
10 4 10 6 0 11 -4 11 -10z m-110 -49 c0 -8 -20 -18 -75 -38 -5 -2 8 7 30 21
45 29 45 29 45 17z m473 -70 c44 -57 56 -79 61 -121 8 -60 -10 -154 -33 -173
-10 -8 -13 -8 -8 0 12 19 10 149 -3 190 -7 21 -32 63 -55 94 -32 42 -40 60
-32 68 6 6 12 11 13 11 2 0 27 -31 57 -69z m-753 55 c0 -3 -51 -40 -112 -82
-178 -122 -196 -139 -234 -218 -19 -39 -34 -76 -34 -83 0 -7 -5 -13 -10 -13
-6 0 -9 18 -6 44 5 62 51 124 138 188 195 142 232 168 245 168 7 0 13 -2 13
-4z m515 -145 c9 -44 -4 -96 -35 -139 -22 -30 -200 -189 -290 -259 -13 -10
-21 -8 -44 10 l-27 22 88 67 c48 37 105 84 125 105 36 37 88 128 88 154 1 13
65 66 82 68 3 1 9 -12 13 -28z m-578 -63 c-111 -111 -165 -248 -139 -349 12
-44 12 -44 -26 -76 -20 -18 -42 -33 -49 -33 -6 0 -14 22 -18 49 -17 127 39
288 132 372 22 21 160 109 170 109 2 0 -30 -33 -70 -72z m728 31 c22 -41 23
-107 3 -150 -10 -19 -73 -85 -145 -149 -70 -63 -145 -130 -165 -148 -34 -30
-39 -32 -57 -20 -19 14 -16 18 67 79 116 85 165 131 201 187 37 59 65 147 70
220 2 20 9 14 26 -19z m-626 -132 c-52 -48 -56 -56 -62 -107 -5 -40 -13 -61
-33 -80 l-26 -25 4 55 c5 70 44 130 112 176 28 19 53 34 56 34 3 -1 -20 -24
-51 -53z m-524 -284 c10 -27 35 -75 57 -108 l39 -59 -23 -18 c-13 -10 -26 -18
-30 -18 -12 0 -36 66 -53 145 -23 115 -20 137 10 58z m544 -17 l22 -23 -37
-28 -36 -28 -27 27 -26 27 28 25 c35 30 48 30 76 0z m-156 -156 c-5 -3 -25
-19 -46 -34 l-38 -27 -19 23 c-27 32 -25 39 18 69 l37 26 28 -25 c15 -14 24
-29 20 -32z m307 50 c13 -8 12 -11 -5 -24 -11 -8 -35 -23 -52 -33 -30 -16 -34
-16 -48 -2 -14 14 -12 18 22 42 41 28 60 32 83 17z m-206 -131 c-7 -12 -105
-62 -110 -56 -7 6 100 75 109 70 4 -2 5 -9 1 -14z m-303 -21 c25 -31 24 -32
-15 -51 -32 -15 -35 -15 -50 2 -9 10 -16 22 -16 27 0 7 43 39 58 43 2 1 12 -9
23 -21z m-124 -123 c-2 -2 -593 -371 -676 -422 -77 -48 29 32 315 236 l319
229 22 -21 c13 -11 22 -21 20 -22z"/>
</g>
</svg>
