<?xml version="1.0" standalone="no"?>
<!DOCTYPE svg PUBLIC "-//W3C//DTD SVG 20010904//EN"
 "http://www.w3.org/TR/2001/REC-SVG-20010904/DTD/svg10.dtd">
<svg version="1.0" xmlns="http://www.w3.org/2000/svg"
 width="1024.000000pt" height="1024.000000pt" viewBox="0 0 1024.000000 1024.000000"
 preserveAspectRatio="xMidYMid meet">
<metadata>
Created by potrace 1.10, written by Peter Selinger 2001-2011
</metadata>
<g transform="translate(0.000000,1024.000000) scale(0.100000,-0.100000)"
fill="#000000" stroke="none">
<path d="M5052 9563 c-12 -2 -33 -19 -46 -36 -20 -27 -25 -48 -30 -142 -4 -60
-9 -130 -11 -155 -3 -25 -14 -184 -25 -355 -12 -170 -22 -321 -23 -335 -2 -14
-15 -44 -30 -66 -16 -23 -39 -75 -53 -115 -13 -40 -28 -77 -33 -83 -4 -6 -11
-22 -14 -36 -4 -14 -24 -48 -45 -76 -79 -105 -174 -317 -233 -519 -17 -60 -44
-137 -60 -170 -15 -33 -33 -89 -39 -125 -7 -36 -22 -101 -36 -145 -31 -105
-54 -268 -60 -435 -3 -74 -12 -166 -21 -204 -21 -92 -9 -328 27 -541 60 -347
220 -691 448 -961 l60 -72 -76 -52 c-258 -181 -453 -393 -662 -722 -91 -143
-223 -393 -296 -559 -24 -57 -51 -110 -58 -118 -18 -20 -102 -247 -155 -416
-57 -183 -105 -384 -152 -640 -82 -443 -50 -616 178 -960 268 -405 670 -760
1051 -929 474 -210 893 -218 1275 -26 470 237 783 649 896 1182 48 223 63 374
63 608 -1 241 -21 405 -83 675 -111 483 -266 842 -541 1252 -172 257 -398 484
-652 654 -53 35 -95 66 -95 69 0 3 79 50 177 104 247 139 328 194 409 279 173
182 315 462 375 739 19 88 22 134 22 318 0 306 -32 463 -139 665 -169 324
-432 647 -756 931 -129 114 -382 377 -387 402 -10 55 -36 114 -54 123 -21 11
-21 16 -15 283 4 163 12 309 21 366 22 136 20 195 -8 256 -21 45 -68 96 -85
93 -3 -1 -16 -4 -29 -6z m580 -1860 c184 -188 359 -377 390 -420 124 -172 191
-335 240 -583 25 -129 30 -180 30 -300 0 -160 -13 -243 -65 -400 -42 -129
-173 -329 -273 -416 -160 -140 -333 -262 -523 -369 -103 -58 -106 -59 -175
-57 -54 2 -89 -4 -145 -23 -40 -13 -77 -22 -82 -20 -22 14 -170 201 -225 285
-70 107 -154 270 -177 345 -21 67 -62 248 -81 360 -49 291 -44 602 15 905 83
426 265 894 486 1249 l15 24 118 -119 c65 -66 268 -273 452 -461z m-284 -2863
c198 -95 366 -225 543 -421 177 -196 283 -355 430 -644 176 -344 271 -646 331
-1050 18 -125 22 -193 22 -415 1 -235 -2 -279 -22 -384 -61 -320 -222 -666
-409 -880 -92 -105 -204 -190 -339 -258 l-121 -60 -329 -30 c-181 -16 -356
-27 -389 -25 -229 17 -629 248 -929 537 -117 112 -244 262 -325 380 -81 119
-156 312 -175 451 -19 139 -13 352 13 494 59 318 212 771 380 1127 81 172 258
495 323 591 151 219 338 392 570 525 77 43 93 49 130 45 35 -4 50 0 83 23 37
25 75 41 100 43 6 0 56 -22 113 -49z"/>
</g>
</svg>
