<?xml version="1.0" standalone="no"?>
<!DOCTYPE svg PUBLIC "-//W3C//DTD SVG 20010904//EN"
 "http://www.w3.org/TR/2001/REC-SVG-20010904/DTD/svg10.dtd">
<svg version="1.0" xmlns="http://www.w3.org/2000/svg"
 width="1024.000000pt" height="1024.000000pt" viewBox="0 0 1024.000000 1024.000000"
 preserveAspectRatio="xMidYMid meet">
<metadata>
Created by potrace 1.10, written by Peter Selinger 2001-2011
</metadata>
<g transform="translate(0.000000,1024.000000) scale(0.100000,-0.100000)"
fill="#000000" stroke="none">
<path d="M5126 9650 l-76 -50 0 -158 c0 -235 -36 -350 -180 -578 -34 -54 -90
-144 -124 -199 -203 -334 -638 -925 -820 -1114 -124 -128 -293 -236 -419 -267
-131 -31 -149 -38 -187 -65 -70 -51 -85 -86 -150 -348 -33 -133 -60 -250 -60
-261 0 -25 53 -68 94 -76 20 -3 76 3 136 15 127 26 168 26 314 1 142 -24 280
-58 451 -112 250 -78 768 -274 763 -289 -2 -3 -160 -150 -353 -324 -192 -175
-390 -355 -440 -400 -387 -354 -389 -355 -470 -395 -81 -39 -122 -53 -275 -92
-70 -17 -92 -28 -122 -58 -34 -34 -38 -43 -38 -90 0 -77 25 -162 85 -287 95
-199 179 -314 256 -348 38 -18 40 -18 156 16 65 18 154 50 198 70 125 58 248
94 555 163 157 35 349 79 426 96 191 44 195 43 266 -64 30 -46 69 -116 86
-157 64 -156 62 -102 62 -1461 0 -776 -4 -1274 -10 -1343 -11 -110 -41 -275
-81 -440 -29 -115 -31 -281 -6 -375 32 -116 83 -206 172 -295 84 -86 132 -115
201 -123 125 -14 215 93 265 313 l23 100 6 1760 7 1760 30 145 c28 128 30 148
17 167 -21 34 -144 88 -293 129 -99 28 -129 40 -115 46 28 12 1386 389 1389
386 2 -2 53 -104 115 -228 62 -124 132 -256 156 -293 52 -80 127 -163 166
-183 58 -30 176 -7 220 42 79 90 88 309 22 556 -30 111 -101 264 -151 327
-178 222 -331 354 -686 594 -289 196 -445 280 -542 294 -39 5 -49 2 -70 -17
-14 -13 -25 -27 -25 -31 0 -5 144 -199 319 -431 176 -233 320 -427 321 -433 0
-6 -119 -26 -277 -47 -1569 -209 -2327 -308 -2366 -308 -89 0 -128 -38 563
546 234 197 441 373 461 389 20 17 238 201 485 411 247 209 481 407 520 440
39 32 214 181 390 330 175 148 433 358 573 465 413 316 427 329 424 405 -4 97
-96 236 -278 419 -172 173 -285 245 -383 245 -33 0 -178 -33 -188 -42 -2 -3 8
-50 21 -107 31 -126 31 -168 1 -252 -40 -114 -108 -205 -440 -589 -275 -319
-631 -702 -909 -978 l-163 -163 -134 72 c-208 113 -580 283 -875 401 -82 33
-110 50 -157 95 l-57 56 60 88 c48 72 211 242 886 924 455 460 842 845 861
857 48 30 81 79 94 141 22 105 -17 173 -202 356 -142 140 -251 231 -319 265
-83 42 -91 41 -175 -14z"/>
<path d="M6413 3773 c-27 -10 -10 -50 66 -152 97 -130 145 -209 220 -360 174
-346 298 -708 391 -1140 47 -220 73 -285 137 -341 73 -64 185 -87 287 -59 60
17 129 92 154 170 84 253 36 548 -136 830 -120 196 -270 377 -527 635 -264
265 -353 342 -459 398 -45 24 -102 32 -133 19z"/>
<path d="M3603 3629 c-18 -5 -35 -14 -38 -20 -4 -5 22 -63 58 -127 82 -147 97
-193 97 -290 0 -84 -23 -183 -80 -337 -210 -579 -578 -1231 -1035 -1838 l-59
-78 30 -24 c34 -28 49 -26 119 19 172 108 578 501 829 801 208 249 434 573
646 925 52 85 130 202 175 260 45 58 96 133 115 166 32 59 33 63 19 95 -22 56
-126 148 -283 252 -160 107 -278 168 -371 192 -65 16 -172 18 -222 4z"/>
</g>
</svg>
