<?xml version="1.0" standalone="no"?>
<!DOCTYPE svg PUBLIC "-//W3C//DTD SVG 20010904//EN"
 "http://www.w3.org/TR/2001/REC-SVG-20010904/DTD/svg10.dtd">
<svg version="1.0" xmlns="http://www.w3.org/2000/svg"
 width="1024.000000pt" height="1024.000000pt" viewBox="0 0 1024.000000 1024.000000"
 preserveAspectRatio="xMidYMid meet">
<metadata>
Created by potrace 1.10, written by Peter Selinger 2001-2011
</metadata>
<g transform="translate(0.000000,1024.000000) scale(0.100000,-0.100000)"
fill="#000000" stroke="none">
<path d="M5105 9910 c-11 -5 -34 -22 -52 -37 l-32 -28 -10 -690 c-6 -379 -11
-756 -11 -836 l0 -147 -47 -7 c-90 -13 -286 -85 -410 -150 -383 -199 -624
-472 -710 -803 -30 -116 -42 -371 -25 -514 10 -75 17 -96 50 -146 21 -31 52
-87 69 -124 99 -212 311 -406 600 -552 132 -66 336 -126 477 -141 78 -9 75 2
45 -160 -11 -60 -23 -130 -27 -155 -5 -25 -15 -56 -24 -70 -9 -14 -19 -41 -23
-61 l-7 -35 -95 -12 c-364 -46 -752 -225 -1031 -474 -236 -211 -385 -451 -464
-748 -28 -108 -35 -335 -14 -456 50 -288 218 -605 419 -789 154 -142 408 -287
630 -360 109 -35 301 -75 365 -75 29 0 14 -10 -100 -68 -234 -119 -417 -256
-681 -511 -257 -249 -401 -430 -496 -621 -31 -63 -64 -126 -73 -140 -9 -14
-48 -132 -87 -262 -74 -247 -83 -308 -62 -401 11 -48 47 -87 79 -87 83 0 147
127 226 445 50 203 64 244 117 350 88 177 171 287 349 465 297 298 706 589
877 625 39 8 36 19 58 -250 11 -144 15 -343 15 -828 0 -630 0 -638 22 -713 18
-61 28 -78 47 -86 34 -13 64 -3 105 33 58 51 70 133 30 211 -12 23 -13 36 -5
61 29 91 49 674 32 957 -18 302 -34 670 -29 675 2 2 98 0 213 -4 196 -8 215
-10 291 -38 192 -69 301 -163 469 -403 97 -139 118 -178 205 -375 l97 -220 57
-270 c31 -148 65 -292 76 -320 12 -33 20 -88 23 -160 3 -61 11 -123 18 -138
14 -30 81 -67 123 -67 91 0 100 59 60 400 -40 343 -116 607 -266 930 -116 248
-176 348 -281 470 -189 218 -506 409 -680 410 l-62 1 70 23 c173 57 400 164
547 257 326 207 550 445 698 744 103 208 139 326 152 496 l10 139 -37 162
c-56 246 -126 397 -263 568 -134 168 -322 296 -553 378 -79 28 -117 33 -503
69 -230 21 -422 40 -427 44 -6 3 4 59 22 135 24 100 31 149 30 216 l-2 87 48
6 c287 38 480 93 683 194 350 175 543 361 667 644 119 268 133 507 46 769 -60
183 -116 268 -299 458 -165 172 -227 218 -377 284 -200 87 -369 120 -624 121
l-193 0 0 105 c0 301 22 995 36 1138 19 188 15 258 -16 326 -21 42 -113 147
-129 145 -3 0 -15 -4 -26 -9z m434 -1961 c163 -12 291 -27 339 -40 93 -23 211
-81 292 -144 165 -127 324 -379 386 -610 23 -87 26 -113 21 -195 -20 -352
-238 -628 -652 -826 -231 -111 -407 -153 -670 -161 -368 -11 -627 55 -841 215
-168 125 -286 285 -345 472 -22 68 -24 92 -24 260 1 147 4 198 19 250 61 218
196 403 396 539 142 97 301 156 574 212 127 26 234 47 237 48 4 1 124 -8 268
-20z m326 -2920 c154 -18 341 -89 487 -186 190 -125 366 -375 430 -609 32
-120 30 -299 -6 -418 -92 -305 -322 -631 -593 -839 -265 -203 -640 -352 -1003
-397 -128 -15 -435 -13 -558 6 -330 49 -574 198 -789 482 -102 134 -130 181
-177 289 -66 157 -81 230 -80 408 0 143 3 169 27 246 66 219 126 313 329 521
127 130 184 180 258 228 238 154 487 243 780 280 93 11 773 3 895 -11z"/>
<path d="M8391 4174 c-1 -6 4 -26 10 -45 6 -19 13 -40 15 -48 3 -8 7 -12 9 -9
3 2 -4 29 -14 59 -11 30 -20 49 -20 43z"/>
</g>
</svg>
