<?xml version="1.0" standalone="no"?>
<!DOCTYPE svg PUBLIC "-//W3C//DTD SVG 20010904//EN"
 "http://www.w3.org/TR/2001/REC-SVG-20010904/DTD/svg10.dtd">
<svg version="1.0" xmlns="http://www.w3.org/2000/svg"
 width="1024.000000pt" height="1024.000000pt" viewBox="0 0 1024.000000 1024.000000"
 preserveAspectRatio="xMidYMid meet">
<metadata>
Created by potrace 1.10, written by Peter Selinger 2001-2011
</metadata>
<g transform="translate(0.000000,1024.000000) scale(0.100000,-0.100000)"
fill="#000000" stroke="none">
<path d="M4742 9769 c-69 -35 -148 -113 -182 -182 -90 -182 -49 -533 88 -767
l38 -66 -70 -159 c-38 -88 -71 -162 -72 -164 -8 -10 -32 22 -42 57 -12 40 -63
99 -97 112 -31 12 -78 0 -97 -24 -22 -26 -22 -81 -3 -164 26 -110 78 -185 168
-245 47 -32 56 -42 69 -89 13 -45 13 -66 2 -143 -7 -49 -13 -91 -13 -93 -1 -1
-9 2 -19 7 -22 12 -69 -7 -100 -41 -26 -28 -29 -58 -18 -140 4 -33 4 -58 -1
-58 -5 0 -17 -15 -26 -34 -14 -31 -15 -53 -3 -228 7 -109 19 -204 26 -217 7
-14 9 -37 5 -57 -5 -30 -8 -33 -25 -24 -32 17 -77 11 -108 -15 -23 -19 -31
-36 -36 -75 -6 -48 -5 -53 42 -122 40 -60 51 -88 65 -158 22 -113 72 -214 138
-275 l51 -47 -24 -91 c-26 -99 -42 -117 -95 -100 -51 17 -82 3 -110 -50 l-27
-47 18 -58 c10 -31 35 -77 55 -102 21 -25 47 -74 59 -109 27 -80 73 -158 140
-233 29 -32 66 -86 83 -119 l30 -60 -47 -81 -47 -80 -24 50 c-32 67 -106 136
-136 126 -85 -25 -121 -140 -76 -244 21 -50 84 -111 131 -129 22 -8 23 -12 20
-102 -3 -74 1 -108 17 -161 26 -80 91 -171 155 -213 25 -16 46 -33 46 -36 0
-3 -11 -16 -25 -29 -14 -13 -25 -32 -25 -43 0 -16 -3 -17 -15 -7 -8 7 -15 20
-15 29 0 31 -40 82 -76 97 -45 19 -88 7 -130 -37 -27 -28 -29 -36 -27 -95 4
-121 40 -221 113 -319 34 -46 38 -58 42 -123 l4 -72 -52 6 c-29 4 -77 3 -107
0 -50 -7 -58 -11 -82 -48 -26 -39 -28 -64 -7 -95 4 -6 78 -32 164 -58 l157
-45 105 -107 c59 -59 106 -108 106 -109 0 -3 -129 -126 -178 -169 -40 -36 -41
-36 -27 -9 21 40 19 96 -5 126 -11 14 -39 31 -65 38 l-46 13 -40 -39 c-97 -95
-115 -203 -66 -396 26 -102 26 -112 16 -211 -9 -87 -9 -118 4 -181 30 -148
123 -283 255 -371 l60 -40 -66 -95 c-50 -74 -71 -96 -90 -98 -32 -3 -47 -15
-62 -52 -7 -17 -20 -30 -29 -30 -9 0 -33 -17 -54 -37 -35 -37 -36 -39 -26 -83
14 -61 51 -115 98 -142 55 -32 66 -88 18 -88 -51 0 -115 -101 -103 -163 4 -19
16 -47 28 -62 22 -29 37 -30 158 -9 31 5 37 2 53 -25 9 -16 34 -43 55 -60 34
-26 38 -34 34 -66 -4 -31 -10 -39 -51 -59 -126 -65 -383 -256 -473 -353 -57
-62 -69 -107 -41 -155 17 -30 75 -78 93 -78 4 0 43 30 86 68 126 107 119 103
99 57 -44 -100 -42 -195 5 -271 17 -27 28 -33 71 -39 41 -6 54 -4 71 11 37 34
67 98 83 178 16 75 55 166 90 211 16 20 17 19 47 -15 71 -82 119 -156 134
-205 18 -65 47 -103 90 -121 86 -36 134 -2 134 95 0 68 -23 168 -50 221 l-20
39 38 -16 c20 -8 85 -39 144 -69 88 -44 112 -61 137 -98 48 -69 75 -86 137
-86 52 0 55 2 80 40 26 39 27 43 15 94 -14 65 -53 128 -110 180 -29 25 -134
82 -308 167 -148 72 -262 133 -258 138 3 6 46 39 96 73 77 53 98 74 141 140
44 68 53 77 74 72 55 -14 194 108 194 171 0 46 -72 105 -130 105 -16 0 -20 7
-20 33 0 29 9 41 70 93 86 73 124 126 124 175 1 46 -16 66 -78 95 -49 22 -50
23 -85 4 -20 -10 -49 -32 -65 -49 -17 -17 -33 -31 -37 -31 -3 0 -13 14 -20 32
-7 18 -42 65 -77 105 l-64 73 47 53 c85 93 144 191 187 304 16 44 37 73 88
123 77 74 93 114 65 157 -9 14 -34 32 -55 40 -36 14 -38 18 -43 70 -5 51 -3
59 27 103 38 55 51 106 37 142 -10 27 -85 98 -104 98 -6 0 -25 -7 -41 -15 -28
-15 -29 -15 -85 37 -31 29 -57 55 -59 59 -1 3 25 39 58 80 33 40 83 119 111
173 35 70 69 120 116 169 115 122 128 193 51 268 -22 21 -46 39 -54 39 -14 0
-25 33 -45 137 -11 62 -11 63 19 97 41 47 50 91 25 125 -47 62 -125 89 -168
57 -18 -13 -23 -11 -53 16 -19 16 -50 37 -68 46 l-34 16 113 115 c63 64 126
136 140 161 40 69 60 162 55 248 -5 69 -3 75 23 109 74 92 58 217 -35 288 -41
31 -86 28 -111 -8 l-15 -22 -27 27 -27 27 19 41 c10 23 17 60 17 85 -1 25 7
96 18 159 17 96 19 125 10 182 -26 160 -101 294 -212 374 l-37 27 100 154
c114 175 138 236 119 302 -6 23 -16 65 -21 92 -5 28 -14 69 -18 93 -12 61 19
165 64 212 75 81 75 143 0 190 -27 16 -44 20 -69 16 -42 -8 -113 -59 -128 -91
-6 -14 -14 -25 -18 -25 -3 0 -25 16 -48 36 l-42 35 30 52 c27 48 34 53 95 74
128 43 169 94 211 267 l28 114 -16 278 c-11 189 -21 296 -32 331 -21 67 -69
129 -133 173 -28 19 -64 50 -78 68 -24 29 -26 35 -13 50 170 201 217 263 243
327 24 59 44 86 130 175 106 108 135 155 135 218 0 69 -71 143 -131 134 -24
-4 -46 -25 -115 -116 -75 -97 -163 -186 -187 -186 -4 0 -3 8 2 19 38 69 31
156 -15 211 -46 54 -55 54 -133 9 -78 -45 -74 -34 -85 -202 -7 -95 -36 -210
-76 -306 -17 -39 -36 -84 -41 -99 l-11 -27 -10 25 c-17 42 -37 172 -37 235 0
33 6 95 14 138 12 72 17 82 53 113 22 19 50 54 62 79 19 39 20 49 10 81 -11
34 -78 94 -104 94 -6 0 -30 -10 -54 -21z m128 -1234 c0 -16 -6 -25 -15 -25
-18 0 -19 4 -3 30 16 26 18 25 18 -5z m90 -1350 l55 -56 0 -107 c-1 -93 -4
-112 -23 -144 -18 -28 -22 -45 -17 -71 6 -29 0 -47 -34 -108 -39 -71 -41 -73
-41 -39 0 19 7 98 15 175 25 238 15 320 -46 406 l-22 31 29 -15 c16 -9 54 -41
84 -72z m-264 -295 c-3 -93 -12 -190 -24 -243 -18 -85 -18 -89 0 -118 41 -68
-3 -13 -62 76 l-64 96 19 137 c21 164 23 170 77 234 l43 50 8 -39 c5 -21 6
-108 3 -193z m151 -890 c5 -71 -2 -125 -28 -225 l-11 -40 -25 48 c-46 92 -43
196 9 287 30 53 31 54 40 30 6 -14 12 -59 15 -100z m339 -704 c39 -71 40 -166
1 -249 -22 -48 -98 -157 -140 -202 -13 -14 0 230 18 341 8 49 15 123 15 164
l0 74 39 -38 c21 -21 52 -61 67 -90z m-386 -443 c24 -14 28 -23 33 -77 2 -34
4 -62 3 -62 -1 -1 -14 1 -31 3 -23 4 -39 18 -68 60 -45 65 -49 109 -22 198
l18 60 20 -83 c16 -69 24 -85 47 -99z m275 -443 c3 -5 1 -10 -4 -10 -6 0 -11
5 -11 10 0 6 2 10 4 10 3 0 8 -4 11 -10z m-70 -265 c10 -38 26 -96 37 -127 12
-37 18 -77 16 -115 l-3 -58 -53 121 c-45 104 -51 125 -42 148 5 15 10 48 10
74 0 60 12 45 35 -43z m33 -530 c-23 -30 -45 -55 -48 -55 -4 0 -46 67 -58 91
-1 4 8 5 20 2 13 -2 43 1 68 6 25 5 49 9 53 10 5 1 -11 -24 -35 -54z m87 -517
l25 -88 -75 -71 c-53 -51 -75 -79 -75 -96 0 -13 18 -51 40 -83 30 -44 40 -69
40 -99 0 -22 4 -51 10 -65 8 -22 1 -35 -67 -118 -41 -51 -82 -95 -90 -96 -8
-2 -21 5 -28 15 -11 15 -11 21 -1 33 9 11 18 111 30 341 l17 327 39 40 c21 23
41 55 45 73 l7 31 29 -28 c20 -20 36 -56 54 -116z m-407 -129 c-12 -73 -16
-379 -5 -424 6 -26 6 -27 -4 -10 -7 11 -23 33 -36 49 -24 29 -25 33 -21 180 3
148 4 152 36 215 18 34 35 61 37 59 3 -2 -1 -33 -7 -69z m109 -1006 c-19 -62
-15 -307 6 -382 9 -35 16 -66 14 -68 -5 -4 -87 188 -87 203 0 6 9 19 21 30 17
15 20 26 14 59 -19 127 -19 135 11 166 15 16 29 29 30 29 1 0 -3 -17 -9 -37z
m284 -153 c15 -71 7 -185 -17 -233 l-19 -39 -13 49 c-20 72 -28 318 -11 339
12 15 15 13 31 -22 9 -22 22 -64 29 -94z"/>
<path d="M8491 4306 c-1 -5 4 -27 11 -50 12 -43 28 -70 27 -45 0 16 -38 108
-38 95z"/>
</g>
</svg>
