<?xml version="1.0" standalone="no"?>
<!DOCTYPE svg PUBLIC "-//W3C//DTD SVG 20010904//EN"
 "http://www.w3.org/TR/2001/REC-SVG-20010904/DTD/svg10.dtd">
<svg version="1.0" xmlns="http://www.w3.org/2000/svg"
 width="1024.000000pt" height="1024.000000pt" viewBox="0 0 1024.000000 1024.000000"
 preserveAspectRatio="xMidYMid meet">
<metadata>
Created by potrace 1.10, written by Peter Selinger 2001-2011
</metadata>
<g transform="translate(0.000000,1024.000000) scale(0.100000,-0.100000)"
fill="#000000" stroke="none">
<path d="M5185 10191 c-6 -48 -10 -52 -247 -282 l-241 -234 6 45 c4 25 9 95
13 155 7 130 -6 179 -63 238 -44 44 -61 46 -95 10 l-26 -28 -16 -380 c-9 -209
-16 -442 -16 -518 l0 -138 -35 -46 c-49 -64 -63 -114 -41 -148 9 -14 30 -28
46 -31 29 -6 29 -7 25 -68 -3 -33 -9 -236 -15 -451 -6 -214 -13 -438 -16 -497
-6 -103 -7 -108 -28 -108 -23 0 -55 -29 -75 -67 -6 -13 -17 -23 -23 -23 -21 0
-150 -114 -214 -189 -81 -94 -139 -181 -194 -291 -24 -47 -65 -117 -92 -157
-71 -106 -152 -277 -198 -420 -96 -295 -75 -538 74 -847 35 -72 69 -149 76
-171 70 -218 324 -541 513 -652 69 -41 76 -48 63 -62 -11 -12 -19 -99 -36
-361 -24 -384 -22 -536 10 -880 11 -113 31 -383 45 -600 l25 -395 100 -610
c69 -419 106 -621 119 -645 10 -19 71 -197 136 -395 125 -384 119 -370 145
-400 9 -11 25 -42 35 -70 28 -79 93 -204 141 -273 25 -35 55 -85 68 -111 14
-26 32 -54 42 -62 15 -12 -322 -15 -2592 -19 -1776 -3 -972 -5 2516 -5 2819 0
4053 1 2742 2 -1311 2 -2382 7 -2380 11 2 4 31 59 64 122 38 70 71 148 85 200
16 59 25 80 31 70 5 -8 22 -38 38 -66 47 -84 131 -109 174 -51 28 38 26 87 -6
129 -42 55 -67 145 -76 272 -7 100 -12 120 -35 155 -15 22 -38 48 -51 56 -14
9 -44 41 -67 71 -35 46 -46 54 -66 49 -13 -3 -23 -4 -23 -1 0 2 13 75 30 162
16 88 30 180 30 205 0 74 -25 142 -72 190 -41 42 -41 42 -30 86 23 86 12 165
-29 209 -19 20 -19 22 -3 65 12 31 17 77 18 159 1 156 -23 229 -102 309 -49
50 -57 64 -73 130 -30 123 -42 261 -34 404 3 73 7 151 7 175 1 62 -28 127 -73
165 l-39 34 22 49 c24 54 35 196 21 272 -8 42 -8 42 60 114 85 89 180 231 244
363 57 119 64 189 26 263 l-23 42 71 82 c157 182 229 369 229 596 0 66 -9 117
-44 251 -48 186 -48 188 14 256 15 17 70 98 122 180 89 142 100 166 216 470
66 176 126 340 132 365 6 25 13 115 17 200 6 173 -9 304 -52 453 -14 45 -25
92 -25 105 0 36 -62 163 -121 248 -62 89 -122 152 -404 420 -129 122 -216 213
-226 235 -19 41 -64 64 -108 56 l-28 -6 4 162 c2 89 10 506 18 927 l14 765
-26 27 c-23 24 -34 28 -84 28 l-57 0 -7 -49z m-47 -401 c-59 -46 -288 -311
-369 -426 l-89 -127 0 65 0 66 238 267 237 267 3 -47 c3 -39 -1 -49 -20 -65z
m8 -497 c-3 -142 -9 -339 -13 -438 l-6 -180 -51 0 c-45 0 -57 -5 -100 -39 -42
-35 -47 -43 -42 -70 4 -16 7 -31 9 -32 1 -2 34 -6 72 -9 125 -11 115 -2 115
-110 l0 -95 -25 10 c-14 5 -31 7 -38 4 -7 -2 -107 -119 -222 -259 -115 -140
-210 -254 -211 -252 -1 1 1 27 3 58 5 53 11 63 119 204 63 81 114 152 114 156
0 19 -57 68 -80 70 -52 3 -69 -2 -99 -27 l-31 -26 0 39 c0 21 5 178 11 348
l12 310 36 42 c20 22 124 156 231 297 107 140 197 255 199 256 2 0 1 -116 -3
-257z m-13 -1480 c2 -245 0 -323 -9 -323 -6 0 -126 -126 -265 -280 -198 -218
-257 -276 -266 -267 -9 9 -9 83 3 337 8 179 17 331 19 338 3 6 17 12 33 12 45
0 273 239 387 406 50 72 91 124 92 115 1 -9 4 -161 6 -338z m498 -38 c31 -33
82 -96 113 -140 l56 -80 -74 -11 c-41 -7 -91 -17 -113 -24 -58 -19 -171 -78
-175 -92 -3 -7 -25 5 -61 33 l-56 44 0 298 -1 299 128 -134 c70 -73 153 -160
183 -193z m-1186 -452 c-4 -76 -8 -139 -10 -141 -2 -2 -37 2 -79 8 -41 6 -97
8 -122 4 -47 -7 -47 -7 -32 15 23 33 232 249 242 250 5 1 6 -58 1 -136z m1431
15 c41 -15 55 -59 53 -170 0 -52 8 -129 24 -207 l24 -125 -22 -80 -22 -81 -5
50 c-11 86 -45 161 -103 224 -62 66 -163 126 -199 117 -21 -5 -26 2 -61 97
-21 56 -40 107 -42 113 -16 43 268 93 353 62z m-744 -180 c-3 -60 -8 -88 -16
-88 -14 0 -140 -110 -205 -179 -200 -212 -321 -377 -321 -437 0 -41 39 -74 86
-74 32 0 46 14 241 249 115 137 209 248 210 248 1 -1 -4 -137 -11 -302 -7
-167 -8 -320 -4 -346 8 -44 7 -47 -32 -88 -48 -51 -119 -169 -161 -269 -30
-72 -30 -75 -17 -135 11 -52 17 -63 36 -65 13 -2 30 2 39 10 14 11 15 11 5 -7
-6 -11 -21 -34 -34 -52 l-24 -31 -112 163 -112 164 -66 246 c-64 241 -65 247
-62 353 5 138 24 212 55 212 16 0 89 71 264 260 134 143 243 258 244 257 1 -1
-1 -41 -3 -89z m-818 -154 c9 -3 16 -12 16 -19 0 -18 48 -55 71 -55 15 0 19
-8 19 -35 l0 -36 -57 6 c-32 3 -94 10 -138 14 -70 7 -89 6 -155 -15 -41 -13
-78 -24 -82 -24 -4 0 0 16 9 35 14 28 22 35 46 35 20 0 48 14 81 39 71 54 141
74 190 55z m1446 -302 c0 -43 18 -78 47 -91 45 -20 71 -14 99 27 l26 37 -6
-85 c-6 -94 -33 -211 -67 -290 l-22 -52 -32 69 c-30 65 -117 173 -157 194 -13
7 -27 6 -48 -4 -29 -15 -29 -15 -25 11 7 37 45 338 45 350 0 5 32 -23 70 -62
56 -58 70 -79 70 -104z m-1382 -34 c7 -7 12 -33 12 -59 l0 -46 -102 -6 c-184
-10 -349 -69 -457 -164 l-54 -47 6 44 c3 25 16 78 29 119 l23 73 103 32 c56
18 110 40 120 49 14 14 39 17 162 17 100 0 150 -4 158 -12z m1250 -368 c13
-43 16 -85 14 -191 -2 -130 -1 -137 23 -173 l25 -36 -59 -91 -58 -91 -7 42
c-4 23 -16 60 -27 81 -25 49 -87 119 -105 119 -8 0 -14 2 -14 4 0 4 25 86 112
370 l30 100 24 -40 c14 -21 32 -64 42 -94z m-1458 47 c0 -2 -52 -46 -115 -97
-83 -68 -115 -100 -115 -115 0 -12 -14 -40 -31 -61 -17 -22 -44 -66 -59 -99
l-27 -60 -17 73 -18 72 28 36 c16 20 39 50 51 68 31 44 51 63 111 103 70 46
192 97 192 80z m260 -261 c-16 -16 -20 -2 -13 40 l7 39 7 -35 c4 -19 4 -39 -1
-44z m-224 -20 c-44 -94 -67 -207 -73 -366 -6 -153 6 -250 47 -383 l19 -62
-30 35 c-48 55 -145 207 -192 298 l-42 83 25 19 c22 17 25 26 25 97 1 92 22
147 81 213 41 46 154 134 161 126 3 -3 -7 -29 -21 -60z m201 -28 c-3 -8 -6 -5
-6 6 -1 11 2 17 5 13 3 -3 4 -12 1 -19z m-23 -221 c-14 -58 -16 -101 -10 -285
3 -120 8 -235 11 -257 5 -31 4 -36 -5 -23 -22 36 -51 176 -57 278 -5 96 -2
122 33 295 38 185 39 188 42 125 2 -37 -4 -93 -14 -133z m1001 118 c-34 -43
-43 -103 -22 -144 14 -29 13 -38 -20 -163 -49 -181 -52 -216 -19 -255 l25 -30
-44 -43 -45 -44 -27 20 c-16 12 -61 59 -101 107 l-73 85 78 104 c93 121 168
241 220 349 27 57 40 75 46 64 5 -10 -1 -26 -18 -50z m-242 -30 c-3 -9 -8 -14
-10 -11 -3 3 -2 9 2 15 9 16 15 13 8 -4z m-495 -246 c54 -81 69 -111 65 -131
-3 -14 2 -38 9 -53 13 -25 10 -53 -31 -299 -26 -149 -50 -270 -54 -269 -27 6
-28 11 -8 48 11 22 21 46 21 53 0 8 -18 52 -40 99 -22 47 -40 95 -40 106 0 12
-5 46 -11 76 -13 62 -3 499 11 484 4 -4 39 -56 78 -114z m982 -404 c20 -93 16
-284 -6 -326 -9 -19 -24 -57 -33 -85 l-16 -51 -113 52 c-63 29 -118 57 -122
61 -4 5 -11 24 -15 41 -6 32 -6 33 24 27 27 -6 36 -1 71 34 49 49 52 82 11
112 l-28 22 101 98 c63 61 103 94 107 87 4 -7 12 -39 19 -72z m-622 -27 c12
-20 22 -52 22 -70 0 -18 9 -102 20 -186 18 -143 18 -156 3 -190 -9 -21 -19
-70 -22 -110 l-6 -73 -115 91 c-63 50 -119 95 -124 100 -5 5 1 20 13 36 27 34
51 115 51 171 0 36 61 278 77 306 7 12 58 -35 81 -75z m-303 -604 c88 -65 162
-123 164 -128 5 -13 43 -49 66 -61 16 -10 4 -20 -84 -75 -95 -59 -111 -74
-223 -209 l-121 -146 7 180 c3 99 7 255 7 346 1 148 -1 172 -20 214 l-21 47
33 -24 c17 -14 104 -78 192 -144z m678 55 c59 -12 107 -26 107 -30 0 -5 -21
-23 -47 -39 -45 -29 -53 -31 -135 -28 -47 2 -89 6 -93 10 -4 3 1 31 11 62 13
42 22 55 33 52 9 -3 64 -14 124 -27z m-173 -323 c0 -7 -10 -37 -22 -66 -24
-58 -30 -54 -42 33 l-7 47 35 0 c24 0 36 -5 36 -14z m-250 -186 c0 -47 -2 -50
-25 -50 -50 0 -82 -30 -224 -204 -79 -97 -145 -176 -147 -176 -7 0 132 208
178 267 39 49 204 212 216 213 1 0 2 -22 2 -50z m271 -185 c-12 -19 -30 -51
-42 -70 -17 -29 -24 -33 -35 -24 -8 6 -14 15 -14 20 0 7 101 108 108 109 2 0
-6 -16 -17 -35z m-261 -85 c0 -6 -22 -38 -49 -73 -119 -152 -206 -317 -260
-492 -50 -165 -50 -199 0 -225 39 -21 73 -3 116 63 47 72 67 117 89 200 16 63
137 257 148 239 14 -24 18 -105 6 -168 -10 -59 -28 -97 -126 -266 -63 -108
-130 -233 -149 -277 -40 -94 -99 -277 -110 -339 -4 -23 -10 -44 -15 -47 -9 -6
-27 85 -35 178 -5 61 -4 67 14 67 15 0 27 25 65 135 25 75 46 142 46 149 0 20
-73 76 -98 76 -11 0 -31 -14 -45 -31 l-24 -31 -6 93 c-4 50 -7 135 -7 188 l0
97 66 64 c36 36 131 143 212 238 137 162 162 187 162 162z m134 -850 c8 -52
18 -204 22 -338 3 -133 10 -257 13 -274 5 -26 2 -37 -15 -53 -12 -11 -100
-110 -196 -220 -182 -209 -198 -236 -198 -324 0 -33 7 -49 34 -78 28 -31 40
-37 75 -37 32 -1 40 -4 35 -16 -15 -40 -67 -219 -71 -248 -3 -21 1 -41 12 -58
15 -23 22 -26 56 -21 53 7 106 48 114 89 32 159 122 330 240 455 l54 58 1 -36
c0 -22 10 -51 25 -73 31 -46 31 -58 0 -154 -25 -79 -55 -232 -55 -283 0 -15
-21 -85 -46 -156 -49 -137 -52 -179 -19 -243 14 -27 20 -30 65 -30 42 0 51 4
70 29 34 49 49 94 60 190 7 51 18 111 25 134 l13 42 1 -61 c1 -45 -14 -117
-59 -281 -33 -121 -65 -243 -70 -271 -20 -90 12 -155 89 -181 52 -17 76 11 91
103 12 78 31 158 36 153 5 -5 -34 -342 -51 -431 -17 -92 -72 -307 -81 -315 -6
-7 -2 -13 -95 139 -263 430 -489 1048 -582 1595 -58 336 -70 415 -65 420 2 3
19 -1 36 -7 23 -9 37 -9 49 -2 9 6 39 87 74 199 31 105 65 212 73 239 14 44
218 448 223 442 1 -1 9 -45 17 -96z m157 -780 c31 -17 22 -37 -28 -66 -27 -15
-68 -46 -92 -68 l-44 -41 63 93 c34 50 66 92 72 92 5 0 18 -5 29 -10z"/>
<path d="M4192 7581 c-10 -6 -10 -10 3 -21 13 -11 15 -9 15 9 0 24 0 24 -18
12z"/>
</g>
</svg>
