<?xml version="1.0" standalone="no"?>
<!DOCTYPE svg PUBLIC "-//W3C//DTD SVG 20010904//EN"
 "http://www.w3.org/TR/2001/REC-SVG-20010904/DTD/svg10.dtd">
<svg version="1.0" xmlns="http://www.w3.org/2000/svg"
 width="1024.000000pt" height="1024.000000pt" viewBox="0 0 1024.000000 1024.000000"
 preserveAspectRatio="xMidYMid meet">
<metadata>
Created by potrace 1.10, written by Peter Selinger 2001-2011
</metadata>
<g transform="translate(0.000000,1024.000000) scale(0.100000,-0.100000)"
fill="#000000" stroke="none">
<path d="M5178 9483 c-44 -11 -46 -26 -64 -554 -15 -452 -16 -598 -5 -1414 6
-500 14 -1061 18 -1246 l6 -336 -46 -22 c-62 -30 -102 -81 -128 -161 -12 -36
-32 -85 -45 -109 -22 -39 -24 -56 -24 -166 0 -238 67 -400 183 -444 l27 -11 0
-707 c0 -390 7 -1196 16 -1793 17 -1162 15 -1619 -11 -1905 -22 -234 -18 -279
24 -317 25 -22 41 -28 80 -28 33 0 53 5 64 18 27 29 60 361 77 772 10 248 -1
1403 -22 2210 -15 556 -17 1386 -5 1602 l9 146 29 12 c87 36 181 186 219 349
56 235 -10 411 -185 497 l-55 26 0 452 c-1 248 -3 1023 -6 1721 l-5 1270 -22
44 c-21 43 -82 102 -102 100 -5 -1 -18 -3 -27 -6z"/>
<path d="M2557 3 c1410 -2 3716 -2 5125 0 1410 1 257 2 -2562 2 -2819 0 -3972
-1 -2563 -2z"/>
</g>
</svg>
