<?xml version="1.0" standalone="no"?>
<!DOCTYPE svg PUBLIC "-//W3C//DTD SVG 20010904//EN"
 "http://www.w3.org/TR/2001/REC-SVG-20010904/DTD/svg10.dtd">
<svg version="1.0" xmlns="http://www.w3.org/2000/svg"
 width="1024.000000pt" height="1024.000000pt" viewBox="0 0 1024.000000 1024.000000"
 preserveAspectRatio="xMidYMid meet">
<metadata>
Created by potrace 1.10, written by Peter Selinger 2001-2011
</metadata>
<g transform="translate(0.000000,1024.000000) scale(0.100000,-0.100000)"
fill="#000000" stroke="none">
<path d="M4688 9141 c-83 -27 -198 -102 -198 -129 0 -13 64 -86 136 -157 113
-112 182 -226 231 -382 l28 -88 3 -1262 2 -1263 -23 0 c-13 0 -665 -56 -1448
-124 l-1424 -124 -215 14 c-171 10 -260 22 -433 55 -120 23 -220 39 -223 36
-9 -8 56 -291 69 -303 7 -6 101 -71 209 -143 196 -132 197 -133 378 -197 117
-41 197 -64 225 -64 52 0 119 21 283 89 138 57 326 116 515 161 278 66 520 99
1267 170 399 39 746 72 773 76 l47 6 0 -907 c0 -1025 -25 -2089 -61 -2599 -24
-336 -18 -458 26 -611 31 -104 94 -251 134 -308 41 -60 101 -90 155 -77 109
24 168 142 195 384 8 64 11 755 11 2126 0 1617 3 2030 13 2030 6 0 435 20 952
46 l941 47 882 -77 c928 -81 952 -82 1008 -41 43 31 6 152 -79 256 -101 124
-413 339 -606 419 -130 53 -164 55 -320 15 -215 -55 -588 -98 -2361 -270 -195
-19 -372 -37 -394 -40 l-38 -6 5 1333 c4 1195 7 1343 22 1432 16 91 16 101 0
141 -22 60 -100 129 -193 172 -42 20 -120 57 -172 84 -85 42 -235 100 -257 98
-4 0 -34 -8 -65 -18z"/>
<path d="M2557 3 c1410 -2 3716 -2 5125 0 1410 1 257 2 -2562 2 -2819 0 -3972
-1 -2563 -2z"/>
</g>
</svg>
