<?xml version="1.0" standalone="no"?>
<!DOCTYPE svg PUBLIC "-//W3C//DTD SVG 20010904//EN"
 "http://www.w3.org/TR/2001/REC-SVG-20010904/DTD/svg10.dtd">
<svg version="1.0" xmlns="http://www.w3.org/2000/svg"
 width="1024.000000pt" height="1024.000000pt" viewBox="0 0 1024.000000 1024.000000"
 preserveAspectRatio="xMidYMid meet">
<metadata>
Created by potrace 1.10, written by Peter Selinger 2001-2011
</metadata>
<g transform="translate(0.000000,1024.000000) scale(0.100000,-0.100000)"
fill="#000000" stroke="none">
<path d="M6815 9256 c-170 -157 -350 -331 -400 -387 -201 -230 -716 -738
-1029 -1015 l-88 -78 -142 146 c-102 106 -268 253 -606 539 -493 416 -719 627
-830 775 -77 103 -126 148 -184 175 -57 26 -103 24 -128 -4 -41 -46 -144 -293
-290 -697 -82 -228 -158 -426 -168 -440 -9 -14 -25 -68 -34 -120 -9 -52 -107
-410 -216 -795 -310 -1088 -301 -1041 -430 -2330 -103 -1039 -96 -951 -120
-1430 l-19 -370 25 -560 c24 -557 25 -561 70 -850 24 -159 54 -348 65 -420 56
-366 206 -599 499 -775 88 -53 156 -77 247 -86 81 -9 158 16 402 130 164 77
227 113 339 192 75 54 166 123 202 152 166 138 439 432 484 521 23 43 23 112
0 146 -9 15 -33 37 -52 50 -28 19 -39 22 -61 14 -37 -14 -70 -47 -93 -94 -24
-47 -65 -92 -281 -312 -87 -90 -165 -163 -173 -163 -17 0 -309 -193 -439 -290
-140 -104 -250 -131 -390 -95 -129 34 -243 124 -313 247 -91 159 -197 607
-251 1058 -66 546 -74 1228 -21 1815 11 121 25 283 31 360 7 77 15 145 18 152
4 8 95 -86 231 -239 130 -146 243 -263 269 -280 57 -35 127 -38 177 -7 31 19
51 55 42 77 -1 5 -88 103 -193 217 -104 114 -218 246 -251 294 -64 89 -163
190 -215 216 -17 9 -29 24 -29 35 0 10 49 417 110 903 l109 884 246 872 c287
1021 347 1199 528 1555 l62 124 631 -542 c600 -514 699 -602 925 -826 53 -52
107 -102 120 -111 l23 -16 -12 -244 c-7 -134 -15 -287 -19 -340 l-6 -96 -191
-41 c-105 -23 -247 -46 -316 -53 -69 -6 -135 -15 -147 -20 -28 -11 -40 -34
-49 -96 -6 -46 -4 -53 24 -84 l30 -34 164 0 163 0 80 38 c71 33 231 74 243 62
2 -2 1 -96 -3 -209 l-7 -206 -32 -4 c-17 -3 -134 -12 -261 -21 -146 -10 -246
-21 -273 -31 -76 -28 -124 -125 -85 -172 34 -42 218 -73 323 -54 141 26 297
52 313 52 16 0 17 -22 17 -325 l0 -324 -32 -5 c-108 -18 -234 -26 -388 -26
-206 0 -231 -7 -268 -80 -18 -34 -22 -56 -19 -89 8 -74 8 -74 282 -67 132 4
283 9 336 13 l96 6 7 -952 c6 -782 10 -960 21 -999 19 -62 69 -132 95 -132 31
0 95 65 121 123 28 64 28 68 -5 1187 -13 426 -22 776 -21 778 2 2 1036 52
1093 52 24 0 42 9 63 29 39 40 39 81 0 114 -38 32 -61 33 -677 49 l-480 11 4
321 c2 177 6 323 8 325 2 2 241 12 531 22 572 21 565 20 578 78 9 41 -1 67
-34 90 -26 19 -59 21 -490 36 -254 8 -491 15 -526 15 l-65 0 0 215 c0 118 3
215 8 215 42 -1 934 94 954 102 14 5 32 23 38 39 10 24 10 33 -4 54 -30 46
-52 52 -276 68 -215 17 -215 17 -450 -8 -129 -14 -243 -25 -252 -25 -16 0 -18
12 -18 108 0 59 7 162 15 227 20 163 19 223 -6 290 -12 31 -19 58 -17 59 447
364 478 393 1063 990 313 319 571 581 574 581 3 0 15 -49 27 -110 12 -60 32
-139 43 -175 12 -36 114 -461 227 -945 113 -484 234 -999 269 -1145 81 -338
143 -642 194 -946 24 -144 96 -484 181 -854 118 -515 139 -616 128 -630 -134
-181 -231 -304 -304 -385 -176 -195 -461 -432 -646 -537 -142 -80 -157 -91
-173 -124 -21 -45 -19 -96 6 -128 26 -33 78 -35 172 -6 143 44 608 428 888
734 75 81 127 130 130 123 10 -18 96 -445 119 -587 36 -227 51 -411 60 -747 5
-183 11 -337 14 -342 3 -5 7 -53 7 -108 3 -212 -114 -571 -264 -812 -109 -175
-271 -366 -366 -430 -144 -97 -314 -172 -494 -217 -82 -21 -135 -27 -272 -31
-189 -6 -320 8 -486 53 -252 67 -591 288 -700 457 -21 32 -50 94 -64 137 -31
94 -55 126 -109 151 -57 26 -95 24 -127 -7 l-26 -25 14 -67 c41 -201 143 -380
294 -516 158 -143 451 -290 708 -356 337 -86 773 -58 1085 69 447 183 797 615
951 1175 61 224 70 307 69 631 -1 520 -22 665 -273 1930 -105 528 -206 1052
-225 1165 -43 254 -112 586 -171 830 -25 102 -177 748 -339 1435 l-295 1250 2
120 c2 113 0 124 -27 182 -28 62 -102 143 -128 143 -7 0 -152 -128 -323 -284z"/>
<path d="M6781 4117 c-2 -17 32 -122 36 -112 2 6 -5 35 -16 65 -11 30 -20 51
-20 47z"/>
</g>
</svg>
