<?xml version="1.0" standalone="no"?>
<!DOCTYPE svg PUBLIC "-//W3C//DTD SVG 20010904//EN"
 "http://www.w3.org/TR/2001/REC-SVG-20010904/DTD/svg10.dtd">
<svg version="1.0" xmlns="http://www.w3.org/2000/svg"
 width="1024.000000pt" height="1024.000000pt" viewBox="0 0 1024.000000 1024.000000"
 preserveAspectRatio="xMidYMid meet">
<metadata>
Created by potrace 1.10, written by Peter Selinger 2001-2011
</metadata>
<g transform="translate(0.000000,1024.000000) scale(0.100000,-0.100000)"
fill="#000000" stroke="none">
<path d="M5070 9139 c-140 -15 -277 -32 -305 -38 -27 -5 -205 -17 -395 -26
-387 -19 -435 -27 -553 -96 -94 -56 -164 -128 -246 -255 -156 -239 -252 -481
-301 -759 -47 -267 -75 -855 -60 -1235 5 -118 14 -523 20 -900 12 -746 20
-933 51 -1145 44 -303 97 -491 219 -775 l96 -225 138 -177 c101 -131 155 -190
205 -228 l67 -52 -118 -222 c-65 -121 -118 -227 -118 -235 0 -19 -220 -498
-241 -524 -9 -12 -58 -130 -109 -262 -81 -208 -129 -317 -209 -465 -11 -19
-78 -184 -150 -366 -89 -226 -131 -343 -131 -370 0 -51 29 -96 74 -118 75 -35
38 -106 521 989 357 810 463 1039 554 1205 62 113 118 211 125 217 9 10 26 7
81 -16 251 -106 527 -135 837 -90 345 50 603 165 870 388 53 45 99 81 102 81
3 0 17 -37 31 -82 21 -67 41 -102 105 -189 44 -58 80 -115 80 -126 0 -11 19
-46 42 -78 22 -32 83 -152 134 -267 52 -115 102 -222 112 -236 10 -15 47 -94
82 -177 35 -82 72 -162 82 -177 10 -15 24 -42 29 -60 6 -18 41 -114 79 -213
37 -99 88 -245 115 -325 55 -170 111 -290 162 -350 20 -23 46 -68 57 -99 16
-44 35 -70 78 -110 67 -62 110 -74 148 -43 24 19 25 26 25 124 0 96 -2 106
-29 153 -16 28 -51 73 -77 101 -48 50 -99 150 -114 224 -4 19 -79 213 -167
430 -88 217 -166 418 -173 446 -7 32 -120 249 -300 580 -209 384 -293 547
-305 594 l-16 65 188 275 c127 185 212 320 258 411 302 596 440 1230 465 2129
14 503 -76 1126 -236 1625 -57 181 -321 747 -377 810 -90 102 -265 213 -362
230 -75 12 -737 65 -809 64 -42 -1 -191 -14 -331 -30z m986 -224 c38 -8 102
-31 143 -52 63 -32 88 -53 175 -150 84 -94 108 -128 144 -207 120 -263 225
-558 291 -816 44 -171 105 -459 99 -465 -2 -3 -229 9 -504 25 -375 22 -523 27
-590 20 -49 -4 -588 -43 -1199 -85 -677 -47 -1120 -81 -1135 -89 -14 -6 -31
-23 -38 -36 -24 -45 -2 415 33 694 21 165 116 549 167 676 43 109 50 119 193
273 80 86 82 87 166 112 79 23 98 25 335 25 139 0 297 -5 353 -10 116 -12 166
-4 220 38 30 23 54 28 230 48 177 21 227 22 522 18 226 -3 346 -9 395 -19z
m466 -1886 l416 -13 6 -35 c17 -110 28 -409 23 -606 -5 -175 -16 -292 -51
-574 -25 -194 -48 -356 -50 -359 -3 -2 -151 3 -328 12 l-324 16 -1189 -106
c-1138 -101 -1198 -106 -1369 -100 -99 3 -180 7 -181 9 -3 3 -44 1631 -42
1633 1 1 36 -5 77 -13 73 -15 109 -12 1160 71 1202 94 1036 88 1852 65z m308
-1761 c0 -22 -49 -198 -87 -313 -133 -405 -321 -755 -599 -1115 -224 -290
-445 -458 -754 -573 -308 -115 -704 -102 -1047 34 -264 104 -468 288 -595 534
-131 256 -233 695 -264 1139 l-7 98 39 -6 c22 -4 199 -9 394 -12 426 -7 390
-10 1820 126 569 54 1050 98 1068 99 19 1 32 -4 32 -11z"/>
</g>
</svg>
