<?xml version="1.0" standalone="no"?>
<!DOCTYPE svg PUBLIC "-//W3C//DTD SVG 20010904//EN"
 "http://www.w3.org/TR/2001/REC-SVG-20010904/DTD/svg10.dtd">
<svg version="1.0" xmlns="http://www.w3.org/2000/svg"
 width="1024.000000pt" height="1024.000000pt" viewBox="0 0 1024.000000 1024.000000"
 preserveAspectRatio="xMidYMid meet">
<metadata>
Created by potrace 1.10, written by Peter Selinger 2001-2011
</metadata>
<g transform="translate(0.000000,1024.000000) scale(0.100000,-0.100000)"
fill="#000000" stroke="none">
<path d="M6716 8820 c-95 -19 -177 -42 -230 -64 -146 -63 -353 -103 -646 -126
-74 -6 -639 -57 -1255 -114 l-1119 -104 -76 30 c-41 17 -146 55 -234 85 l-159
55 -98 -38 c-80 -29 -99 -40 -99 -56 0 -12 27 -48 61 -82 70 -70 143 -208 181
-341 l23 -80 3 -1780 c3 -1952 6 -1818 -58 -2510 -14 -152 -16 -221 -9 -290
20 -201 107 -381 218 -455 110 -74 214 -2 260 180 15 62 23 76 42 82 13 4 726
62 1584 128 858 66 1576 123 1595 126 l36 5 17 -108 c20 -122 48 -192 103
-252 50 -56 101 -81 163 -81 42 0 56 5 86 32 68 59 122 203 162 429 15 85 17
302 23 2294 5 1628 10 2215 19 2258 17 86 40 148 68 185 34 45 60 108 68 165
6 42 4 51 -19 82 -77 101 -297 278 -411 331 -98 46 -128 47 -299 14z m-6 -458
c38 -28 67 -77 79 -133 7 -32 11 -248 11 -609 l0 -560 -22 -4 c-13 -3 -374
-37 -803 -76 -827 -76 -1115 -102 -1899 -175 -269 -25 -502 -45 -518 -45 l-28
0 0 640 c0 603 1 640 18 641 9 0 699 78 1532 174 833 96 1535 172 1560 169 25
-2 56 -12 70 -22z m90 -2251 l0 -599 -47 -6 c-27 -3 -356 -33 -733 -66 -1548
-136 -2388 -210 -2437 -216 l-53 -6 0 599 0 600 63 6 c34 4 645 59 1357 122
712 64 1410 126 1550 139 140 13 265 24 278 25 l22 1 0 -599z m0 -1358 c0
-359 -10 -690 -26 -878 l-5 -61 -347 -27 c-191 -15 -891 -70 -1557 -122 -665
-52 -1238 -97 -1272 -100 l-63 -7 0 656 0 656 23 4 c18 4 642 60 1912 172 94
8 409 37 700 63 292 27 554 49 583 50 l52 1 0 -407z"/>
<path d="M3770 3069 c-33 -21 -60 -40 -60 -41 0 -2 16 -55 35 -118 19 -63 35
-125 35 -138 0 -78 -135 -234 -435 -501 -121 -107 -227 -202 -235 -210 -8 -7
-95 -86 -193 -175 -176 -158 -190 -168 -651 -467 -432 -281 -471 -309 -474
-336 -6 -63 8 -62 251 12 256 79 398 136 692 279 478 233 803 434 1265 784 96
73 227 171 290 217 64 46 128 98 144 114 28 29 29 33 18 69 -24 79 -113 184
-280 330 -141 124 -242 192 -314 213 -22 6 -38 0 -88 -32z"/>
<path d="M5806 3092 c-9 -10 -16 -21 -16 -24 0 -3 46 -41 103 -84 370 -285
651 -562 1010 -996 144 -174 330 -423 454 -609 122 -182 186 -249 257 -269
172 -48 297 119 284 380 -9 172 -83 311 -263 498 -158 165 -316 293 -574 467
-285 191 -688 418 -986 557 -202 94 -244 106 -269 80z"/>
</g>
</svg>
