<?xml version="1.0" standalone="no"?>
<!DOCTYPE svg PUBLIC "-//W3C//DTD SVG 20010904//EN"
 "http://www.w3.org/TR/2001/REC-SVG-20010904/DTD/svg10.dtd">
<svg version="1.0" xmlns="http://www.w3.org/2000/svg"
 width="1024.000000pt" height="1024.000000pt" viewBox="0 0 1024.000000 1024.000000"
 preserveAspectRatio="xMidYMid meet">
<metadata>
Created by potrace 1.10, written by Peter Selinger 2001-2011
</metadata>
<g transform="translate(0.000000,1024.000000) scale(0.100000,-0.100000)"
fill="#000000" stroke="none">
<path d="M8020 8179 c-30 -4 -122 -27 -205 -51 -144 -43 -163 -52 -477 -225
l-328 -180 -549 -487 c-302 -267 -560 -497 -572 -510 l-22 -23 -34 20 c-39 22
-24 24 -328 -27 l-210 -35 -37 29 c-30 25 -41 28 -62 21 -13 -6 -27 -19 -30
-29 -6 -18 -19 -20 -134 -24 -140 -5 -192 -20 -275 -77 -53 -36 -58 -57 -24
-96 27 -31 77 -36 124 -11 18 9 52 19 77 22 42 6 43 5 39 -17 -2 -13 11 -111
30 -218 37 -208 43 -221 98 -221 51 0 54 14 40 201 -9 124 -18 182 -31 212
-18 39 -18 42 -2 49 9 4 27 7 39 7 28 1 27 8 58 -364 14 -165 27 -322 30 -350
l5 -50 -31 35 c-37 42 -127 178 -158 239 -42 82 -341 475 -533 700 -183 216
-203 235 -419 416 -234 196 -229 193 -539 357 -63 34 -158 89 -210 124 -113
74 -262 150 -380 193 -93 34 -771 164 -849 162 -54 -1 -139 -25 -205 -58 -80
-41 -151 -118 -273 -296 -163 -238 -254 -441 -316 -698 -29 -121 -32 -142 -52
-354 -8 -88 -26 -284 -41 -435 -36 -370 -38 -687 -9 -1505 3 -77 7 -198 10
-270 2 -71 16 -204 30 -295 14 -91 32 -210 41 -265 56 -366 61 -390 140 -608
82 -231 182 -447 264 -571 89 -136 222 -261 377 -354 63 -38 86 -46 190 -63
186 -30 223 -26 308 36 17 12 57 34 90 50 166 79 382 217 546 350 57 46 235
215 396 377 l291 293 407 540 c224 297 415 548 425 558 16 18 17 16 16 -34 -2
-45 2 -58 26 -85 15 -17 28 -37 28 -43 0 -7 25 -11 68 -12 37 0 92 -2 123 -5
44 -4 87 3 208 35 84 23 162 41 175 41 12 0 26 4 32 9 5 5 56 11 114 15 212
13 275 19 292 27 9 5 21 9 26 9 6 0 61 -84 123 -187 200 -334 302 -474 528
-727 184 -206 452 -423 626 -506 125 -61 190 -74 340 -73 128 1 132 1 226 41
158 65 335 199 529 398 98 100 144 161 297 385 l181 266 130 345 c121 319 134
359 171 539 106 514 142 685 146 699 2 8 7 85 10 170 3 85 8 178 10 205 2 28
7 129 11 225 3 96 8 191 10 210 8 76 4 390 -6 470 -26 211 -64 348 -167 605
-75 186 -79 193 -201 360 -126 173 -181 229 -282 289 -148 88 -336 126 -510
105z m280 -150 c132 -36 191 -84 356 -284 141 -172 179 -232 252 -406 63 -148
97 -262 129 -424 19 -103 24 -399 10 -760 -12 -343 -15 -371 -88 -830 -72
-454 -106 -616 -165 -786 -37 -108 -281 -643 -318 -699 -13 -19 -103 -136
-201 -260 -319 -405 -501 -541 -772 -578 -62 -9 -82 -7 -140 10 -161 47 -391
179 -558 320 -129 109 -144 127 -432 503 l-260 340 -157 287 c-145 265 -165
308 -257 555 -100 266 -101 270 -139 493 -29 170 -40 264 -44 386 l-5 161 75
74 c42 41 103 114 136 162 163 241 461 562 803 866 150 133 723 570 845 645
140 85 327 162 515 211 162 43 296 47 415 14z m-5968 -214 c234 -35 712 -174
832 -242 45 -26 142 -78 216 -116 162 -84 352 -197 475 -283 164 -114 295
-239 534 -509 l230 -260 108 -195 c77 -139 109 -189 111 -172 2 12 7 22 12 22
4 0 45 -57 90 -127 45 -71 124 -193 176 -273 51 -80 94 -150 94 -157 0 -17
-78 -151 -122 -209 -21 -28 -43 -66 -50 -84 -6 -19 -46 -91 -89 -161 -42 -70
-82 -144 -89 -165 -7 -22 -68 -128 -134 -237 -67 -109 -133 -219 -147 -246
-15 -27 -216 -284 -447 -572 l-419 -524 -325 -315 -325 -315 -324 -174 c-388
-209 -378 -206 -514 -139 -124 60 -197 110 -288 197 -94 90 -170 189 -186 242
-7 22 -42 99 -78 172 -95 190 -150 378 -212 717 -32 179 -52 317 -56 395 -3
66 -7 156 -10 200 -2 44 -7 143 -10 220 -3 77 -8 174 -10 215 -3 41 -7 140
-11 220 -3 80 -9 210 -13 290 -8 139 -6 422 3 485 2 17 7 84 10 150 4 66 8
140 11 165 4 46 10 129 20 275 29 459 24 424 78 625 41 155 52 181 175 427
117 232 139 268 191 320 65 65 155 118 246 144 77 22 54 23 247 -6z m3438
-1234 c0 -13 -33 -39 -44 -35 -7 3 -25 -14 -40 -36 -26 -40 -27 -41 -4 -29 23
12 23 12 -3 -22 -14 -19 -50 -68 -80 -109 l-54 -75 -6 95 c-3 52 -11 114 -19
138 -19 59 -9 66 108 72 129 7 142 7 142 1z m-383 -393 c0 -328 2 -358 21
-423 30 -99 49 -230 56 -375 4 -69 12 -147 19 -175 12 -45 12 -51 -5 -65 -10
-8 -25 -33 -33 -55 -8 -22 -14 -35 -15 -30 0 6 -7 89 -15 185 -8 96 -17 204
-20 240 -3 36 -8 90 -10 120 -6 67 -75 907 -75 914 0 5 31 12 61 15 14 1 16
-35 16 -351z m-103 -914 c2 -11 7 -77 10 -149 4 -71 9 -146 11 -165 2 -19 6
-89 9 -155 l5 -120 -39 224 c-30 165 -46 231 -61 253 l-21 29 37 55 c37 57 43
60 49 28z m-150 -314 c16 -133 58 -389 71 -437 10 -33 24 -58 42 -71 33 -24
42 -21 -170 -61 -87 -17 -162 -33 -166 -36 -12 -7 -21 64 -20 151 0 38 -5 82
-11 96 -11 24 -3 41 111 232 71 117 126 200 130 193 3 -7 9 -37 13 -67z m326
-54 c7 -36 8 -70 2 -102 l-10 -49 -1 45 c-1 25 -4 71 -8 103 -7 72 2 74 17 3z
m320 -403 c0 -9 -19 -13 -65 -13 -74 0 -65 -14 -90 138 -9 51 -20 105 -26 119
-7 19 -6 35 2 55 12 29 13 27 95 -129 46 -87 84 -164 84 -170z m-303 35 c-2
-13 -4 -5 -4 17 -1 22 1 32 4 23 2 -10 2 -28 0 -40z m10 -65 c-3 -10 -5 -4 -5
12 0 17 2 24 5 18 2 -7 2 -21 0 -30z"/>
<path d="M7705 7725 c-279 -86 -617 -268 -891 -481 -130 -101 -154 -140 -118
-192 30 -44 62 -31 231 95 87 64 180 131 208 148 134 85 383 209 545 270 163
61 219 92 227 123 5 20 0 31 -21 49 -35 30 -49 29 -181 -12z"/>
<path d="M8515 7412 c-24 -15 -35 -16 -57 -8 -20 7 -37 7 -61 -2 -18 -7 -40
-12 -49 -12 -8 0 -27 -9 -42 -21 -23 -18 -26 -27 -26 -85 0 -35 -3 -64 -6 -64
-3 0 -21 12 -40 26 l-34 26 -33 -36 c-33 -35 -34 -36 -51 -17 -19 21 -133 61
-175 61 -36 0 -74 -31 -126 -103 -22 -31 -50 -60 -61 -66 -31 -14 -72 -71 -99
-137 l-23 -57 -12 42 c-17 64 -57 103 -105 103 -34 0 -45 -6 -75 -40 -19 -21
-42 -58 -51 -82 l-15 -43 -30 74 c-27 69 -31 74 -62 77 -57 6 -80 -31 -136
-215 -27 -90 -53 -163 -58 -163 -13 0 -48 81 -48 113 0 58 -36 97 -90 97 -52
0 -64 -59 -33 -159 l22 -73 -22 -18 -22 -18 -5 46 c-11 91 -70 154 -120 129
-26 -13 -27 -16 -45 -162 l-7 -60 -15 35 c-33 78 -38 85 -67 88 -16 2 -40 -2
-54 -9 -23 -13 -24 -17 -20 -85 4 -56 11 -82 37 -127 18 -31 42 -64 54 -72 30
-21 85 -19 128 4 29 16 48 19 93 14 52 -5 59 -4 86 22 15 15 33 46 39 71 6 24
14 44 17 44 3 0 19 -9 35 -21 37 -26 58 -19 116 34 47 43 85 109 98 165 l7 34
30 -29 c24 -23 38 -28 78 -28 57 0 84 20 112 83 l19 43 30 -37 c42 -53 59 -63
106 -64 45 0 96 33 109 72 6 20 7 19 24 -6 41 -64 95 -72 120 -20 17 36 72 57
108 41 36 -16 71 0 102 49 16 26 32 60 36 77 3 17 18 49 31 70 24 38 25 39 39
19 8 -11 28 -23 44 -27 21 -5 34 -16 44 -38 33 -78 99 -93 135 -32 22 39 38
44 48 18 20 -59 62 -66 137 -25 97 53 110 125 51 281 -19 51 -35 111 -35 133
0 28 -7 46 -25 63 -29 30 -59 32 -100 7z"/>
<path d="M6415 6493 c-12 -28 -13 -44 -5 -66 21 -62 9 -62 -58 -2 -27 25 -57
45 -66 45 -18 0 -46 -40 -49 -69 -2 -27 -5 -27 -42 9 -29 28 -33 29 -68 18
-57 -18 -65 -32 -70 -136 -2 -51 -7 -95 -11 -99 -9 -10 -27 11 -51 60 -27 56
-61 75 -104 58 -20 -9 -33 -23 -37 -40 -11 -51 -15 -56 -49 -79 -34 -22 -35
-23 -35 -92 0 -46 8 -95 25 -149 25 -80 26 -81 59 -81 51 0 96 58 96 124 0 34
2 36 34 36 21 0 42 9 59 24 l25 23 11 -24 c11 -25 47 -43 86 -43 32 0 65 44
66 89 0 33 4 38 52 61 45 23 55 24 77 13 50 -26 72 -18 119 46 15 21 20 22 40
11 35 -18 65 -5 90 41 34 60 33 115 -2 145 -16 13 -35 24 -42 24 -8 0 -23 17
-34 39 -21 40 -37 51 -77 51 -18 0 -27 -9 -39 -37z m-151 -182 c-6 -6 -24 19
-24 34 1 6 7 1 15 -9 8 -11 12 -22 9 -25z"/>
<path d="M8447 6332 c-26 -29 -39 -75 -32 -117 l6 -39 -24 22 c-49 46 -92 19
-89 -56 l2 -47 -15 40 c-22 61 -74 89 -106 56 -11 -10 -18 -106 -20 -241 -2
-124 -2 -124 -9 -45 -4 44 -10 124 -14 177 -7 113 -14 133 -53 171 -26 24 -34
26 -56 18 -15 -6 -27 -16 -27 -23 0 -6 -15 3 -34 21 -20 19 -42 31 -52 29 -27
-5 -73 -104 -75 -158 -1 -47 8 -213 17 -313 7 -78 39 -179 63 -202 25 -22 63
-14 96 19 25 25 25 45 0 101 -24 53 -46 395 -25 395 6 0 10 -40 11 -97 1 -114
1 -111 28 -266 11 -66 25 -125 32 -133 15 -18 49 -18 77 1 20 15 24 14 59 -10
45 -30 64 -31 88 -5 20 23 25 120 13 300 -3 58 -3 114 2 125 6 14 9 3 10 -40
0 -33 3 -76 5 -95 3 -19 9 -86 15 -148 11 -133 19 -154 58 -146 50 10 67 9 68
-3 1 -7 2 -20 3 -28 2 -25 40 -55 70 -55 34 0 46 13 56 58 7 32 9 33 39 28 63
-12 64 -8 72 269 4 138 7 267 6 288 -3 68 -41 117 -91 117 -16 0 -21 -8 -26
-37 -3 -21 -10 -56 -14 -78 l-9 -40 -1 41 c-2 69 -12 103 -41 134 -32 34 -60
38 -83 12z m20 -589 c-2 -16 -4 -3 -4 27 0 30 2 43 4 28 2 -16 2 -40 0 -55z"/>
<path d="M7694 6126 c-36 -16 -64 -51 -64 -80 0 -19 -1 -19 -20 2 -46 49 -113
36 -161 -31 -16 -22 -31 -55 -35 -73 -8 -45 -20 -51 -27 -15 -8 39 -71 101
-102 101 -43 0 -125 -131 -125 -200 0 -39 -17 -19 -33 40 -27 96 -69 123 -122
78 -18 -16 -36 -54 -59 -128 l-33 -105 -8 40 c-22 115 -118 156 -163 69 l-18
-35 -14 26 c-13 25 -36 36 -75 36 -79 0 -102 -4 -122 -24 -21 -19 -23 -30 -23
-124 0 -92 -2 -103 -18 -103 -13 0 -21 13 -30 44 -14 56 -70 116 -106 116 -14
0 -26 -3 -26 -7 0 -5 -7 -16 -14 -26 -12 -16 -17 -16 -35 -6 -17 12 -24 10
-46 -11 -19 -17 -25 -34 -25 -64 l0 -41 -16 32 c-9 18 -27 39 -41 48 -22 15
-27 15 -48 1 -14 -9 -32 -30 -40 -46 -19 -37 -28 -37 -49 -5 -19 29 -66 34
-90 9 -21 -20 -20 -28 8 -110 49 -143 84 -195 133 -195 77 -1 144 9 167 24 24
16 29 16 56 2 16 -8 36 -15 44 -15 21 0 66 58 66 86 0 20 5 24 33 24 17 1 49
3 69 6 30 4 39 2 47 -15 19 -34 52 -45 150 -47 87 -2 95 -1 117 21 13 13 24
33 24 45 0 23 13 26 29 6 42 -51 127 -12 171 78 l28 60 12 -43 c15 -58 50 -91
94 -91 30 0 38 6 65 48 17 27 40 82 50 123 l19 73 7 -63 c9 -79 48 -128 107
-138 l38 -6 35 74 c19 40 38 95 41 121 4 27 11 51 15 54 5 3 9 0 9 -6 0 -7 7
-37 16 -67 l16 -56 70 5 c69 5 70 5 104 -28 36 -37 50 -40 88 -23 40 19 47 57
20 104 -37 64 -54 149 -54 265 0 108 -8 134 -50 167 -19 15 -18 15 -56 -1z"/>
<path d="M6007 5128 c-44 -40 -56 -216 -18 -262 7 -8 26 -20 44 -27 18 -7 44
-21 59 -31 31 -21 87 -24 113 -4 18 13 18 18 6 66 -9 36 -11 79 -7 140 7 81 6
90 -13 109 -15 15 -34 21 -68 21 -27 0 -57 3 -69 6 -14 4 -30 -2 -47 -18z"/>
<path d="M6314 5079 c-45 -17 -53 -24 -65 -62 -8 -23 -14 -77 -14 -119 0 -74
1 -78 35 -113 80 -84 159 -86 200 -6 12 24 12 24 26 -15 26 -76 93 -101 157
-60 44 29 45 56 3 92 l-36 31 0 101 c0 123 -8 148 -52 160 -56 14 -75 4 -102
-52 -24 -49 -25 -49 -19 -15 4 29 1 40 -18 58 -28 26 -49 26 -115 0z"/>
<path d="M6786 5035 c-24 -26 -37 -96 -52 -275 -5 -68 -4 -77 15 -97 32 -34
83 -31 114 6 l25 30 5 -47 c4 -34 12 -53 32 -69 37 -32 94 -31 125 2 l24 25
25 -31 c21 -24 36 -32 73 -36 44 -5 50 -3 82 29 19 19 38 47 42 61 8 36 -17
75 -53 79 l-28 3 3 93 c3 79 0 102 -19 148 -18 43 -27 54 -45 54 -33 0 -84
-47 -109 -102 l-22 -48 -6 76 c-4 51 -11 82 -23 95 -19 21 -64 25 -95 8 -16
-8 -25 -7 -38 5 -25 23 -48 20 -75 -9z"/>
<path d="M7545 5014 c-13 -14 -27 -44 -30 -66 l-7 -41 -15 34 c-18 43 -61 89
-85 89 -9 0 -24 -10 -31 -22 -17 -27 -47 -279 -47 -386 0 -64 3 -76 23 -93 12
-10 37 -18 55 -19 25 0 32 -4 32 -20 0 -34 45 -72 81 -68 29 3 34 10 90 138
33 74 61 135 62 136 1 2 1 -46 -1 -104 -2 -70 1 -121 10 -147 l13 -40 80 -8
c78 -8 81 -9 127 -54 44 -44 48 -45 79 -34 41 14 69 39 69 61 0 19 -30 50 -48
50 -30 0 -1 201 54 381 39 129 37 157 -13 182 -52 27 -64 12 -138 -160 -68
-160 -109 -245 -101 -208 3 11 12 82 21 157 13 106 14 144 6 171 -20 59 -99
77 -144 32 l-25 -26 -7 30 c-6 30 -42 61 -70 61 -9 0 -27 -12 -40 -26z"/>
<path d="M8204 4919 c-15 -16 -28 -78 -59 -279 -43 -273 -43 -309 -2 -311 12
-1 27 -2 32 -4 6 -1 15 -3 20 -3 6 -1 19 -15 28 -32 13 -22 26 -30 46 -30 24
0 33 9 61 63 26 48 41 104 71 252 43 215 46 246 22 285 -25 43 -56 57 -86 37
-23 -15 -26 -14 -53 14 -33 34 -54 37 -80 8z"/>
<path d="M8563 4868 c-6 -7 -22 -80 -37 -161 -21 -119 -38 -178 -87 -300 -33
-84 -67 -166 -75 -184 -20 -44 -18 -59 12 -82 56 -44 93 -16 163 124 53 107
84 197 117 332 26 112 30 182 13 216 -30 59 -82 85 -106 55z"/>
<path d="M6181 4504 c-66 -82 -79 -115 -57 -149 9 -14 28 -28 43 -31 15 -4 43
-24 63 -46 37 -38 69 -48 99 -29 11 7 26 1 52 -20 42 -33 68 -36 97 -11 35 30
36 57 3 94 -26 30 -30 41 -29 90 2 61 -20 107 -50 109 -9 1 -28 2 -42 3 -14 0
-37 13 -52 29 -43 43 -67 36 -127 -39z"/>
<path d="M6636 4359 c-14 -11 -26 -26 -26 -32 0 -7 -14 -39 -30 -71 -17 -32
-30 -70 -30 -83 0 -30 28 -73 47 -73 8 0 39 24 70 53 88 82 105 146 54 198
-35 34 -49 36 -85 8z"/>
<path d="M6920 4190 c-31 -31 -77 -131 -91 -196 -16 -78 3 -128 51 -139 35 -8
33 -9 149 85 59 48 85 77 100 112 34 77 25 95 -48 99 -25 2 -45 9 -48 16 -6
16 -55 43 -78 43 -8 0 -24 -9 -35 -20z"/>
<path d="M7153 4026 c-44 -37 -107 -178 -111 -251 -5 -78 15 -136 48 -145 38
-10 81 6 127 45 l42 36 48 -25 c26 -13 57 -33 67 -45 23 -25 63 -27 94 -5 24
17 28 40 11 78 -9 19 -7 38 10 94 31 102 28 141 -11 179 -65 61 -117 69 -167
27 -17 -14 -31 -21 -31 -15 0 21 -40 51 -69 51 -17 0 -42 -11 -58 -24z"/>
<path d="M7688 3958 c-20 -16 -208 -360 -208 -380 0 -21 33 -48 59 -48 36 0
170 142 212 225 57 110 58 147 8 194 -26 24 -48 27 -71 9z"/>
<path d="M7903 3898 c-17 -23 -173 -382 -173 -400 0 -29 35 -41 69 -24 28 15
29 15 41 -14 7 -16 21 -32 31 -35 49 -16 219 132 277 241 40 76 42 121 6 163
-43 52 -66 43 -115 -46 -38 -70 -85 -141 -113 -168 -5 -5 -3 1 6 15 8 14 30
50 49 80 46 74 48 140 6 176 -31 26 -69 31 -84 12z"/>
<path d="M6846 3584 c-21 -20 -20 -27 5 -75 45 -90 139 -169 253 -215 63 -25
71 -26 122 -15 44 10 55 17 60 37 3 13 4 30 1 37 -3 7 -47 34 -99 59 -52 25
-139 77 -193 117 -55 39 -107 71 -116 71 -10 0 -25 -7 -33 -16z"/>
<path d="M2184 7531 c-58 -27 -124 -88 -124 -116 0 -57 88 -75 148 -29 34 27
35 27 115 15 53 -7 296 -80 693 -206 337 -107 626 -195 642 -195 49 0 78 55
50 93 -8 10 -219 89 -503 188 -269 95 -527 185 -572 201 -101 35 -210 57 -323
64 -71 4 -92 2 -126 -15z"/>
<path d="M2091 7104 c-68 -86 -108 -251 -88 -355 9 -44 57 -91 121 -119 78
-33 113 -30 152 13 31 34 34 35 44 17 6 -10 26 -22 45 -26 26 -5 37 -13 41
-30 12 -47 44 -61 131 -56 78 4 80 3 111 -27 27 -28 37 -31 89 -31 32 0 83 6
113 13 78 18 138 0 194 -59 48 -50 66 -53 116 -23 26 16 35 18 39 8 2 -7 15
-24 28 -37 20 -20 30 -23 61 -17 20 4 46 9 57 11 18 3 20 -2 21 -38 1 -30 8
-46 25 -60 69 -54 136 -51 201 9 l27 25 5 -33 c3 -19 8 -53 10 -76 10 -86 64
-129 155 -124 14 1 39 18 63 43 l38 41 0 -50 c0 -45 3 -53 33 -75 30 -24 34
-24 77 -12 26 8 68 33 100 61 95 83 87 80 120 48 17 -16 30 -35 30 -42 0 -8
11 -25 25 -38 49 -50 149 -25 194 49 25 40 34 39 56 -5 14 -26 21 -29 63 -29
27 0 53 5 60 12 17 17 15 58 -4 79 -8 9 -22 43 -31 76 -8 32 -22 66 -30 76
-30 33 -107 14 -164 -40 -34 -32 -36 -33 -52 -15 -9 10 -17 24 -17 31 0 27
-53 123 -73 130 -30 11 -63 2 -88 -25 l-23 -24 -11 32 c-10 31 -13 33 -50 30
-67 -4 -83 4 -111 59 -23 46 -28 50 -51 44 -39 -9 -106 -61 -128 -98 l-20 -32
-5 63 c-4 56 -9 67 -38 93 -51 46 -73 40 -162 -46 l-77 -76 -6 74 c-3 41 -11
84 -19 96 -18 29 -59 27 -113 -5 l-44 -26 5 79 c3 43 1 84 -3 90 -11 16 -45
19 -99 9 l-42 -7 5 45 c6 52 -15 96 -47 96 -11 0 -35 -13 -53 -30 -19 -16 -44
-30 -55 -30 -19 0 -21 6 -21 64 1 35 -4 73 -10 84 -11 21 -73 47 -94 39 -7 -2
-23 -35 -37 -71 -21 -58 -27 -66 -45 -61 -11 4 -31 8 -45 8 -14 1 -40 17 -58
36 -32 32 -41 34 -84 16 -14 -5 -18 -2 -18 13 0 28 -44 54 -85 50 -27 -2 -42
4 -67 28 -39 37 -71 40 -115 13 -35 -22 -103 -99 -103 -117 0 -6 -4 -13 -8
-16 -5 -3 -4 19 1 48 12 64 -2 99 -52 133 -46 31 -84 30 -110 -3z"/>
<path d="M1846 5921 c-25 -28 -58 -184 -54 -256 2 -35 13 -79 26 -106 12 -26
22 -64 22 -90 0 -142 58 -291 105 -272 9 3 33 30 55 61 36 50 40 53 40 28 0
-72 52 -126 123 -126 48 0 132 45 157 85 27 44 48 51 56 20 9 -35 38 -57 77
-57 72 0 114 27 149 97 l21 39 39 -47 c29 -34 47 -47 67 -47 52 0 122 66 171
163 l14 28 19 -25 c40 -55 119 -82 167 -56 11 6 26 23 34 38 l14 27 22 -37
c18 -31 28 -38 65 -44 35 -5 51 -2 77 14 40 25 79 66 105 109 l19 32 22 -44
c21 -43 23 -45 67 -45 35 0 51 6 79 31 19 17 41 46 47 64 12 31 14 33 33 19
11 -8 40 -14 64 -14 36 0 50 6 76 33 18 17 35 38 37 46 3 9 14 4 38 -18 48
-45 102 -44 145 3 l31 33 30 -18 c45 -28 86 -24 120 11 23 24 31 27 48 18 25
-13 90 -13 115 1 14 7 29 7 50 -1 25 -10 36 -9 57 2 47 25 70 95 41 119 -8 7
-17 24 -21 38 -3 15 -20 42 -36 60 -16 19 -29 37 -29 42 0 11 -47 31 -75 31
-13 0 -38 -12 -55 -26 l-31 -27 -58 28 c-64 30 -76 28 -120 -19 -14 -14 -32
-26 -41 -26 -18 0 -80 -60 -80 -77 0 -7 -4 -14 -9 -17 -5 -3 -19 22 -31 55
-35 93 -67 96 -157 16 l-22 -19 -21 51 c-28 65 -50 67 -85 7 l-26 -44 -29 16
c-24 14 -35 15 -59 5 -27 -10 -32 -9 -46 13 -22 33 -67 32 -94 -2 -12 -15 -21
-34 -21 -44 0 -29 -12 -30 -42 -5 -33 28 -79 33 -101 10 -13 -13 -16 -13 -27
0 -15 18 -44 19 -58 3 -5 -7 -21 -39 -34 -72 l-25 -58 -23 36 c-12 20 -39 45
-59 56 -21 10 -43 26 -50 34 -17 20 -44 20 -80 1 -25 -12 -32 -27 -59 -132
-17 -65 -34 -131 -38 -146 -3 -15 -8 -26 -10 -24 -2 1 -8 41 -13 88 -12 105
-34 162 -67 178 -42 19 -62 14 -69 -17 -3 -15 -21 -40 -40 -55 -19 -15 -44
-44 -55 -65 l-20 -37 6 72 c6 68 5 73 -19 97 -14 14 -35 26 -47 26 -11 0 -20
5 -20 10 0 6 -11 22 -24 35 -26 26 -46 25 -77 -2 -13 -11 -19 -9 -39 12 -32
34 -54 31 -81 -11 l-22 -37 -20 24 c-10 13 -35 41 -54 62 -33 37 -35 38 -58
23 -13 -9 -31 -16 -39 -16 -8 0 -24 -10 -36 -22 -20 -21 -20 -21 -20 -1 0 11
-11 32 -25 47 -29 31 -74 35 -99 7z"/>
<path d="M4289 5363 c-10 -17 -16 -19 -41 -9 -40 15 -70 -17 -78 -81 -6 -53
-5 -53 -92 -39 -44 8 -50 6 -87 -23 -30 -24 -45 -30 -68 -25 -36 7 -39 3 -88
-109 l-39 -87 -18 34 c-19 36 -62 76 -83 76 -7 0 -18 -7 -25 -15 -7 -8 -25
-15 -39 -15 -20 0 -35 -11 -56 -39 -27 -35 -32 -38 -70 -33 -40 4 -41 3 -68
-47 -16 -28 -30 -51 -33 -51 -2 0 -29 16 -58 36 -30 20 -63 34 -73 32 -10 -2
-38 -40 -68 -95 -27 -50 -53 -94 -56 -97 -3 -3 -29 16 -58 44 -29 27 -62 52
-74 56 -28 6 -39 -6 -101 -113 -26 -46 -51 -83 -56 -83 -4 0 -13 14 -20 30
-15 36 -71 87 -105 96 -24 6 -55 -9 -55 -26 0 -5 -13 -21 -28 -37 -16 -15 -31
-35 -34 -43 -4 -13 -7 -13 -21 -1 -10 8 -31 12 -54 9 -28 -3 -46 2 -72 19 -41
28 -56 29 -73 4 -10 -14 -24 -19 -48 -18 -29 2 -37 -3 -48 -27 l-15 -29 -14
34 c-16 39 -29 49 -64 49 -43 0 -64 -23 -61 -68 l3 -40 -48 10 c-33 7 -56 20
-73 40 -20 24 -31 29 -59 26 -46 -4 -67 -36 -87 -128 -28 -131 -4 -228 75
-307 24 -23 48 -61 57 -87 28 -83 99 -113 132 -57 14 25 21 29 44 24 20 -4 39
2 66 20 44 29 122 43 122 21 0 -24 39 -54 70 -54 63 0 110 47 110 109 0 11 23
27 65 45 74 32 96 61 97 127 0 21 3 39 5 39 3 0 27 -16 53 -35 46 -33 51 -35
79 -23 22 9 49 40 90 101 l58 88 23 -35 c19 -26 33 -35 64 -39 34 -5 47 0 97
34 48 33 60 46 74 89 9 27 19 50 22 50 3 0 21 -13 40 -30 45 -40 79 -39 136 5
39 30 47 32 57 20 18 -21 67 -19 100 5 16 11 40 43 53 71 19 36 28 46 34 36 4
-8 25 -20 46 -27 66 -21 109 7 167 108 6 12 13 11 38 -2 69 -35 131 -15 167
54 13 25 22 30 51 30 43 0 91 43 100 90 5 23 15 34 40 45 38 16 54 41 54 85 0
18 4 29 10 25 34 -21 74 36 68 95 -4 42 -41 71 -101 77 -38 5 -47 2 -58 -14z"/>
<path d="M4335 4563 c-325 -448 -375 -529 -350 -569 20 -31 49 -34 93 -8 32
19 93 100 318 422 153 218 293 417 311 441 39 52 44 100 13 131 -47 47 -45 49
-385 -417z"/>
<path d="M4113 4740 c-12 -5 -27 -18 -33 -30 -24 -45 -138 -135 -213 -168 -18
-8 -35 -27 -45 -52 -14 -32 -22 -40 -44 -40 -23 0 -93 -48 -123 -85 -5 -7 -22
-15 -37 -19 -21 -5 -35 -20 -58 -66 -28 -56 -32 -59 -60 -54 -34 7 -80 -17
-80 -42 0 -16 -12 -16 -53 1 -13 6 -28 -3 -56 -32 -36 -39 -53 -81 -67 -163
-3 -19 -6 -36 -8 -37 -1 -2 -20 10 -42 27 -38 28 -42 28 -70 14 -46 -23 -62
-49 -57 -88 2 -19 0 -37 -6 -41 -7 -3 -11 2 -11 14 0 32 -35 61 -72 61 -45 0
-54 -9 -63 -57 -5 -32 -12 -42 -31 -47 -13 -4 -31 -17 -40 -31 l-16 -25 -20
25 c-25 32 -58 32 -97 -1 -23 -19 -31 -34 -31 -60 0 -27 -5 -35 -24 -40 -13
-3 -29 -16 -36 -30 -17 -30 -26 -30 -53 2 -15 17 -33 26 -56 26 -33 1 -40 -4
-67 -48 -8 -14 -21 -17 -53 -16 -77 5 -87 -25 -46 -126 14 -34 25 -79 24 -99
l-1 -38 -8 42 c-15 73 -55 113 -115 113 -13 0 -27 5 -30 10 -10 16 -72 12 -90
-6 -26 -26 -11 -99 52 -254 63 -154 85 -193 129 -216 38 -21 125 -15 152 10
10 9 29 16 41 16 12 0 36 13 52 29 24 24 29 38 29 78 l0 48 37 1 c31 1 44 9
89 57 29 31 58 57 64 57 7 0 20 -10 30 -22 13 -17 28 -22 59 -21 65 1 100 33
125 114 4 14 10 15 44 6 37 -10 43 -8 75 16 50 38 78 88 84 152 l6 55 39 0
c84 0 138 51 138 129 0 35 4 36 40 16 59 -34 113 -11 126 53 6 28 10 31 31 26
51 -13 150 89 174 181 17 62 23 70 62 71 50 2 85 28 108 79 16 36 25 44 55 49
44 9 110 73 122 118 6 24 18 38 44 50 30 14 45 33 78 99 54 107 52 131 -15
181 -27 21 -52 38 -55 37 -3 0 -15 -4 -27 -9z"/>
<path d="M3738 3711 c-9 -3 -119 -105 -244 -226 -185 -179 -277 -258 -501
-432 -215 -166 -282 -213 -305 -213 -32 0 -88 -25 -88 -39 0 -5 -17 -7 -38 -4
-34 5 -41 1 -75 -36 -30 -33 -37 -49 -37 -82 0 -35 6 -47 35 -75 39 -37 106
-56 141 -41 12 5 32 31 44 58 19 39 28 49 47 49 35 0 61 16 118 70 28 26 239
211 470 410 487 420 503 434 512 468 11 45 -42 108 -79 93z"/>
</g>
</svg>
