<?xml version="1.0" standalone="no"?>
<!DOCTYPE svg PUBLIC "-//W3C//DTD SVG 20010904//EN"
 "http://www.w3.org/TR/2001/REC-SVG-20010904/DTD/svg10.dtd">
<svg version="1.0" xmlns="http://www.w3.org/2000/svg"
 width="1024.000000pt" height="1024.000000pt" viewBox="0 0 1024.000000 1024.000000"
 preserveAspectRatio="xMidYMid meet">
<metadata>
Created by potrace 1.10, written by Peter Selinger 2001-2011
</metadata>
<g transform="translate(0.000000,1024.000000) scale(0.100000,-0.100000)"
fill="#000000" stroke="none">
<path d="M6055 8836 c-38 -13 -94 -39 -123 -59 -65 -44 -184 -83 -312 -102
-421 -63 -1499 -217 -1520 -217 -14 0 -79 22 -145 49 -66 27 -186 67 -267 88
l-148 38 -90 -38 c-61 -25 -90 -43 -90 -54 0 -23 28 -61 82 -114 55 -53 135
-209 170 -332 l23 -80 0 -780 c0 -429 -4 -1378 -8 -2110 -7 -1233 -9 -1342
-28 -1490 -11 -92 -17 -183 -13 -215 16 -155 73 -284 172 -391 70 -76 123
-109 173 -109 64 0 123 95 150 244 12 62 14 66 43 71 17 2 443 45 946 95 503
50 933 93 955 96 l41 6 34 -79 c59 -135 160 -213 276 -213 66 0 115 93 138
258 61 440 56 199 56 2510 0 1791 2 2110 15 2187 18 112 29 144 71 206 40 60
62 150 42 177 -7 10 -66 77 -131 148 -198 219 -326 271 -512 210z m-27 -441
c16 -14 38 -44 48 -67 18 -40 19 -83 22 -629 l3 -586 -48 -6 c-1266 -158
-1927 -237 -1938 -234 -10 4 -12 127 -11 615 0 336 5 614 9 619 10 9 1795 311
1849 312 25 1 46 -7 66 -24z m72 -2301 c0 -360 -1 -654 -3 -654 -6 0 -1647
-181 -1811 -200 -93 -10 -172 -17 -176 -15 -4 2 -7 288 -7 635 0 565 2 632 16
639 9 5 45 11 81 15 62 7 88 10 163 21 17 2 212 27 432 55 220 28 416 53 435
55 41 6 389 50 470 61 30 3 129 16 220 28 91 12 168 20 173 18 4 -2 7 -298 7
-658z m-4 -1253 c-4 -124 -9 -296 -11 -381 -3 -85 -7 -279 -11 -430 -3 -151
-7 -276 -8 -278 -2 -1 -110 -13 -242 -26 -131 -14 -417 -43 -634 -66 -217 -22
-460 -47 -540 -56 -80 -8 -230 -23 -333 -34 -104 -11 -194 -20 -201 -20 -10 0
-13 126 -12 652 l1 653 600 66 c330 37 629 70 665 74 36 3 74 8 85 10 11 2 52
7 90 10 39 4 84 8 100 10 68 9 265 31 365 41 36 3 67 8 69 10 19 17 22 -32 17
-235z"/>
<path d="M5302 2998 c-22 -22 -13 -38 66 -126 227 -254 462 -581 617 -857 126
-224 160 -277 207 -321 47 -44 59 -48 137 -45 118 4 192 164 178 386 -12 187
-73 311 -220 451 -150 143 -272 223 -592 390 -223 115 -358 157 -393 122z"/>
<path d="M4163 2882 c-27 -19 -50 -37 -52 -39 -3 -2 8 -43 22 -93 15 -49 27
-94 27 -99 0 -6 -40 -83 -89 -170 -83 -149 -111 -186 -386 -523 l-296 -363
-342 -312 c-188 -172 -343 -319 -345 -328 -6 -27 42 -17 220 46 l173 62 344
224 344 224 471 433 c259 239 482 445 494 459 32 34 24 69 -32 144 -99 135
-365 339 -471 363 -31 7 -41 3 -82 -28z"/>
</g>
</svg>
