<?xml version="1.0" standalone="no"?>
<!DOCTYPE svg PUBLIC "-//W3C//DTD SVG 20010904//EN"
 "http://www.w3.org/TR/2001/REC-SVG-20010904/DTD/svg10.dtd">
<svg version="1.0" xmlns="http://www.w3.org/2000/svg"
 width="1024.000000pt" height="1024.000000pt" viewBox="0 0 1024.000000 1024.000000"
 preserveAspectRatio="xMidYMid meet">
<metadata>
Created by potrace 1.10, written by Peter Selinger 2001-2011
</metadata>
<g transform="translate(0.000000,1024.000000) scale(0.100000,-0.100000)"
fill="#000000" stroke="none">
<path d="M6596 8935 c-104 -27 -182 -77 -347 -224 -161 -143 -277 -274 -384
-431 -49 -72 -193 -354 -370 -725 -139 -292 -246 -507 -250 -503 -3 2 -67 243
-144 534 -152 579 -180 661 -287 821 -162 244 -469 460 -722 509 -95 18 -250
18 -329 -1 -123 -29 -313 -141 -443 -261 -111 -103 -228 -269 -295 -419 -90
-201 -207 -537 -269 -775 -74 -287 -84 -352 -171 -1195 -47 -451 -92 -883
-100 -960 -8 -77 -28 -273 -45 -435 -17 -162 -35 -331 -40 -375 -8 -75 -5
-899 4 -975 2 -19 7 -89 11 -155 3 -66 8 -138 10 -160 2 -22 7 -92 10 -155 3
-63 8 -140 10 -170 2 -30 7 -107 10 -170 3 -63 8 -135 10 -160 2 -25 7 -94 10
-155 6 -110 12 -215 20 -355 5 -76 10 -171 20 -340 3 -52 8 -126 10 -165 3
-38 7 -108 10 -155 2 -47 7 -130 11 -185 7 -118 29 -181 68 -191 57 -14 95 12
254 175 83 86 177 190 207 231 30 41 120 165 200 275 293 404 673 869 826
1011 110 102 129 128 129 177 0 53 -17 64 -107 66 l-78 2 -130 -138 c-266
-282 -328 -357 -795 -958 -199 -256 -366 -465 -371 -465 -5 0 -9 26 -10 58 0
31 -2 64 -3 72 -2 8 -6 65 -10 125 -7 118 -62 948 -71 1080 -9 136 -16 216
-25 320 -5 55 -12 150 -15 210 -3 61 -8 135 -10 165 -2 30 -7 162 -11 294 l-6
239 273 -7 c151 -3 391 -9 534 -11 143 -3 325 -7 405 -10 760 -24 1315 -24
1945 0 109 4 314 10 705 20 113 3 259 7 325 10 66 2 242 7 390 11 149 3 294 7
323 9 29 2 82 -3 118 -10 43 -10 73 -11 89 -5 14 5 25 8 25 7 0 -1 -67 -353
-149 -782 l-148 -780 -142 -351 c-133 -327 -147 -357 -214 -450 -40 -55 -92
-123 -116 -152 -75 -88 -59 -98 -406 246 -178 177 -313 304 -332 311 -20 8
-47 11 -68 7 -35 -7 -105 -59 -105 -78 0 -9 594 -664 635 -701 94 -83 230 -80
370 8 71 45 160 145 202 228 66 131 304 671 339 767 86 241 191 640 243 924
30 165 89 563 111 746 6 52 13 112 15 134 27 226 27 1037 0 1301 -2 22 -7 92
-10 155 -6 130 -14 264 -20 360 -2 36 -7 121 -10 190 -8 164 -199 1612 -231
1758 -43 191 -129 422 -221 592 -65 118 -185 295 -241 354 -69 71 -182 142
-276 172 -102 33 -260 41 -350 19z m304 -272 c158 -86 281 -214 363 -378 19
-39 78 -213 132 -387 104 -342 94 -291 206 -1028 11 -74 24 -157 30 -183 19
-101 28 -94 -128 -93 -132 1 -472 -10 -598 -19 -33 -2 -136 -7 -230 -10 -93
-3 -208 -8 -255 -10 -47 -3 -150 -7 -230 -10 -159 -6 -330 -13 -485 -20 -291
-13 -405 -17 -405 -13 0 8 137 401 175 503 64 169 240 577 302 696 111 214
230 399 396 614 166 216 265 298 429 357 74 26 91 28 158 23 60 -5 88 -13 140
-42z m-2740 12 c65 -20 318 -202 382 -274 95 -108 162 -229 172 -311 4 -30 32
-129 61 -220 125 -383 243 -830 259 -980 20 -180 38 -301 51 -344 8 -27 14
-50 13 -51 -2 -2 -77 -6 -168 -9 -91 -4 -196 -9 -235 -11 -38 -2 -142 -7 -230
-10 -88 -3 -185 -8 -215 -10 -30 -2 -131 -7 -225 -10 -93 -3 -197 -8 -230 -10
-33 -2 -127 -7 -210 -10 -82 -3 -186 -8 -230 -10 -44 -3 -141 -7 -215 -10
-209 -8 -344 -17 -352 -22 -5 -2 -8 -2 -8 0 0 4 132 732 156 857 33 177 103
436 186 690 45 137 59 168 125 268 78 118 201 273 263 330 77 72 167 124 265
154 78 23 301 19 385 -7z m3375 -2320 c72 -4 131 -8 132 -9 1 -1 10 -174 18
-371 3 -71 8 -164 10 -205 3 -41 7 -149 10 -240 3 -91 8 -185 10 -210 2 -25 7
-126 11 -225 3 -99 8 -196 9 -217 4 -43 19 -412 19 -448 0 -57 -16 -254 -20
-262 -3 -5 -8 -7 -12 -4 -4 2 -47 7 -96 11 -50 4 -99 9 -110 11 -28 6 -144 6
-176 0 -14 -2 -104 -7 -200 -11 -96 -3 -197 -8 -225 -10 -27 -2 -111 -7 -185
-10 -213 -9 -322 -15 -515 -31 -370 -29 -855 -38 -1255 -21 -102 4 -259 10
-350 13 -91 3 -187 8 -215 10 -27 2 -414 7 -860 10 -730 6 -815 5 -864 -10
-94 -28 -87 -48 -66 204 3 30 14 163 25 295 11 132 22 269 25 305 3 36 8 88
10 115 2 28 7 79 10 115 5 64 40 490 50 625 3 39 10 117 15 175 5 58 12 141
16 185 3 44 7 81 9 83 2 2 52 -2 111 -9 171 -18 760 -15 1069 6 28 2 138 6
245 10 107 3 231 8 275 10 44 2 157 7 250 10 94 3 215 8 270 10 55 2 170 7
255 10 85 3 202 7 260 10 100 4 218 9 525 20 77 3 187 7 245 10 58 3 179 7
270 10 355 12 533 25 550 41 5 6 220 0 445 -11z"/>
</g>
</svg>
