<?xml version="1.0" standalone="no"?>
<!DOCTYPE svg PUBLIC "-//W3C//DTD SVG 20010904//EN"
 "http://www.w3.org/TR/2001/REC-SVG-20010904/DTD/svg10.dtd">
<svg version="1.0" xmlns="http://www.w3.org/2000/svg"
 width="1024.000000pt" height="1024.000000pt" viewBox="0 0 1024.000000 1024.000000"
 preserveAspectRatio="xMidYMid meet">
<metadata>
Created by potrace 1.10, written by Peter Selinger 2001-2011
</metadata>
<g transform="translate(0.000000,1024.000000) scale(0.100000,-0.100000)"
fill="#000000" stroke="none">
<path d="M8913 8028 c-12 -13 -24 -45 -28 -73 -17 -120 -98 -266 -188 -338
-65 -52 -355 -249 -422 -286 -155 -87 -343 -231 -470 -360 -50 -52 -65 -61
-95 -61 -44 -1 -313 -45 -329 -54 -22 -14 -10 7 65 118 131 190 243 302 434
430 73 49 101 77 194 194 60 75 117 151 127 167 23 36 25 105 5 144 -22 42
-105 106 -119 92 -8 -8 -8 -14 1 -23 18 -18 14 -88 -8 -136 -72 -160 -236
-343 -410 -459 -58 -38 -169 -115 -248 -171 -101 -72 -151 -102 -171 -102 -34
0 -111 -57 -159 -118 -32 -40 -82 -137 -82 -159 0 -6 -9 -28 -21 -47 -16 -28
-21 -52 -20 -106 0 -67 -1 -71 -39 -115 -22 -26 -40 -52 -40 -59 0 -6 -19 -39
-43 -71 -90 -124 -186 -362 -227 -564 -24 -120 -61 -495 -63 -638 l-1 -103
-63 1 c-53 1 -70 -3 -104 -26 -46 -30 -82 -96 -100 -185 -42 -200 86 -412 274
-454 l52 -11 2 -45 c12 -221 120 -514 275 -746 99 -149 270 -319 391 -391 49
-29 93 -53 98 -55 34 -11 -221 -579 -344 -766 -123 -187 -273 -348 -440 -472
l-88 -65 103 -6 103 -5 123 125 c182 186 266 284 341 396 80 119 176 306 221
428 17 48 56 138 87 200 50 102 56 110 69 93 10 -15 22 -18 52 -14 21 3 63 2
93 -3 83 -14 170 -12 337 7 l42 5 0 -43 c2 -168 68 -366 165 -493 105 -137
211 -236 402 -376 106 -77 233 -162 283 -190 l90 -50 35 36 c20 19 40 35 45
35 5 0 21 5 36 10 27 10 20 15 -125 85 -84 41 -155 75 -158 75 -10 0 -169 114
-228 164 -133 111 -242 246 -319 395 -61 119 -65 133 -76 271 -5 63 -12 124
-15 135 -5 18 2 25 47 44 79 35 90 41 180 106 95 69 302 270 372 362 26 35 83
130 127 213 71 135 89 180 177 457 l97 307 68 26 c88 34 163 92 220 172 62 87
87 165 87 275 0 105 -22 161 -81 200 -49 32 -139 42 -191 20 l-37 -16 -5 32
c-3 18 -8 106 -11 197 -11 283 -58 487 -161 691 -98 196 -225 340 -388 439
l-86 53 100 54 c192 101 332 208 525 397 176 174 234 286 256 498 14 130 -4
251 -37 256 -31 4 -74 -41 -74 -78 0 -50 -29 -138 -73 -225 -37 -72 -62 -100
-240 -275 -188 -184 -204 -198 -313 -257 -74 -41 -168 -106 -267 -185 -84 -66
-158 -126 -165 -131 -18 -14 -164 32 -154 48 13 22 136 121 186 149 27 16 80
58 118 95 56 54 71 74 79 111 12 54 30 75 90 106 78 39 214 221 308 411 85
171 93 228 41 276 -37 33 -70 35 -97 5z m-1296 -1294 c-9 -52 14 -92 56 -99
122 -20 232 -35 259 -35 55 0 115 37 145 88 15 26 27 48 28 49 1 2 38 -9 83
-22 l81 -25 3 -37 c2 -28 10 -41 28 -52 24 -13 31 -11 108 34 l81 47 103 -57
c121 -68 201 -134 278 -231 89 -112 123 -184 189 -394 67 -216 79 -288 88
-525 16 -459 -103 -1037 -293 -1420 -87 -177 -174 -301 -303 -437 -184 -194
-373 -310 -568 -348 l-111 -23 -139 27 c-76 14 -155 28 -175 30 -61 7 -139 49
-255 135 -127 94 -196 173 -336 381 -94 140 -99 150 -148 304 -54 170 -54 166
-74 536 -3 58 -7 134 -10 170 -2 36 -7 110 -10 165 -3 55 -7 129 -10 165 -17
242 -16 274 9 440 73 475 123 612 315 852 l86 108 48 0 c56 0 83 21 92 74 4
19 14 38 23 41 85 35 212 71 331 94 2 1 1 -15 -2 -35z m1815 -1511 c13 -33 12
-120 -2 -172 -16 -59 -64 -125 -115 -159 -54 -36 -75 -40 -70 -14 2 9 4 37 6
62 1 25 4 35 6 24 4 -22 49 -49 57 -36 13 21 86 197 86 207 0 22 -40 64 -55
58 -25 -9 -17 14 13 36 37 28 60 26 74 -6z m-154 -203 c-7 -11 -15 -15 -17 -9
-2 6 3 15 10 20 20 12 21 11 7 -11z m-2728 -65 c12 -19 24 -58 27 -85 l5 -50
-56 58 c-61 61 -55 61 -94 5 -11 -16 -12 -16 -6 7 8 35 36 73 65 87 34 18 35
17 59 -22z m-91 -198 c0 -21 -1 -21 -9 -2 -12 28 -12 37 0 30 6 -3 10 -16 9
-28z m129 -117 l-3 -31 -33 25 c-20 14 -29 27 -23 31 6 3 11 15 11 25 0 12 8
20 23 22 24 3 31 -16 25 -72z"/>
<path d="M8317 5966 c-92 -26 -174 -121 -185 -212 -6 -52 11 -74 55 -74 24 0
43 31 46 75 2 29 70 90 115 103 22 7 62 12 90 12 44 0 55 -4 82 -32 17 -18 40
-49 50 -69 24 -46 75 -89 105 -89 27 0 55 34 55 65 0 66 -89 177 -167 210 -53
22 -186 28 -246 11z"/>
<path d="M7309 5901 c-184 -68 -295 -188 -242 -260 34 -45 93 -37 93 14 0 30
87 110 148 137 59 27 184 37 208 17 9 -8 28 -31 41 -52 26 -42 76 -77 110 -77
17 0 24 9 32 37 10 33 7 42 -21 85 -77 121 -212 157 -369 99z"/>
<path d="M8327 5658 c-66 -14 -97 -36 -119 -85 -15 -33 -19 -58 -15 -88 13
-88 48 -125 124 -125 21 -1 70 -7 108 -14 69 -14 71 -14 111 12 38 24 41 28
32 53 -9 25 -15 28 -77 34 l-68 7 8 41 c5 23 8 45 9 49 0 3 8 5 18 3 9 -2 24
-4 33 -4 24 -1 77 -59 84 -91 3 -16 17 -36 30 -44 23 -15 26 -15 45 4 29 29
30 95 2 143 -21 35 -93 84 -146 98 -52 15 -130 18 -179 7z"/>
<path d="M7237 5580 c-70 -27 -130 -81 -162 -145 -16 -31 -32 -58 -36 -60 -14
-9 5 -59 36 -89 40 -41 108 -61 200 -61 119 1 197 49 271 166 24 39 25 45 14
83 -15 51 -65 101 -115 115 -60 16 -154 13 -208 -9z m186 -114 c15 -22 15 -25
-3 -41 -20 -18 -25 -14 -35 33 -8 40 14 45 38 8z m-223 -66 c0 -14 -7 -20 -22
-20 -20 0 -21 1 -3 20 10 11 20 20 22 20 1 0 3 -9 3 -20z"/>
<path d="M7751 5154 c-24 -31 -26 -49 -6 -84 13 -24 10 -74 -5 -95 -4 -5 -11
-26 -15 -45 -4 -19 -13 -42 -19 -50 -34 -42 -63 -154 -70 -273 -3 -54 10 -73
71 -102 111 -53 218 -15 259 90 32 85 -22 99 -124 35 -66 -42 -108 -47 -98
-12 3 9 15 58 27 107 14 57 35 109 55 140 33 50 53 113 48 150 -9 65 -18 86
-50 123 -20 23 -39 42 -44 42 -5 0 -18 -12 -29 -26z"/>
<path d="M8475 5150 c-15 -17 -19 -17 -32 -5 -19 19 -47 19 -63 0 -7 -8 -19
-15 -28 -15 -21 0 -102 -52 -102 -66 0 -6 9 -19 20 -29 20 -18 22 -18 82 3 38
13 68 18 77 13 9 -5 46 -9 83 -9 65 0 67 1 110 45 l43 44 -23 19 c-23 19 -24
19 -62 0 -24 -12 -41 -16 -45 -10 -15 25 -42 29 -60 10z"/>
<path d="M7428 5083 c-16 -19 -44 -100 -37 -107 2 -3 16 -7 31 -11 24 -6 29
-2 53 45 25 49 25 53 9 71 -21 24 -36 24 -56 2z"/>
<path d="M7244 5042 l-16 -29 -24 24 c-28 28 -38 24 -91 -38 -29 -34 -43 -59
-43 -79 0 -31 3 -34 40 -43 22 -5 28 -1 49 38 13 25 27 45 30 45 3 0 11 -10
16 -22 17 -39 38 -30 83 33 41 58 43 62 26 80 -24 27 -50 24 -70 -9z"/>
<path d="M7000 5008 c-31 -33 -48 -84 -34 -98 5 -4 21 -10 36 -14 25 -6 30 -2
53 44 30 59 31 69 8 86 -26 19 -31 18 -63 -18z"/>
<path d="M8258 4121 c-169 -180 -460 -283 -633 -224 -60 20 -170 123 -181 168
-10 42 -22 55 -54 55 -36 0 -60 -29 -60 -73 0 -31 9 -46 59 -100 46 -48 83
-76 163 -117 l103 -55 125 1 c107 1 137 5 210 29 161 51 282 138 350 250 l34
58 -29 23 c-17 13 -34 24 -40 24 -5 0 -27 -18 -47 -39z"/>
<path d="M4196 7634 c-27 -18 -45 -24 -63 -19 -16 4 -37 -1 -60 -15 -21 -12
-52 -20 -81 -20 -45 0 -50 -3 -104 -62 -56 -61 -57 -62 -58 -34 0 28 -2 27
-40 -27 -22 -30 -40 -65 -40 -77 0 -12 -4 -19 -9 -15 -5 3 -12 1 -16 -5 -3 -5
-30 -10 -59 -10 -70 0 -121 -32 -121 -75 0 -28 3 -30 35 -29 19 0 44 4 54 9
18 8 17 5 -4 -33 -13 -23 -27 -42 -30 -42 -4 0 -31 -19 -59 -42 -41 -34 -51
-48 -49 -68 2 -20 9 -26 34 -28 19 -2 36 3 44 12 7 9 15 16 19 16 3 0 6 -69 7
-152 1 -170 24 -346 56 -419 10 -26 34 -60 51 -77 30 -29 38 -31 152 -41 220
-19 207 -20 228 17 25 43 13 74 -40 101 -50 25 -77 57 -91 106 -33 117 -23
233 29 345 26 54 41 73 92 109 34 25 88 55 119 68 50 21 63 22 99 13 48 -13
155 -115 164 -157 4 -16 11 -38 16 -51 5 -13 9 -83 9 -157 0 -128 -1 -138 -36
-237 -32 -91 -50 -122 -150 -258 -108 -149 -119 -161 -239 -253 -126 -98 -127
-98 -323 -172 l-197 -74 -499 -75 -499 -75 -46 24 c-57 29 -147 137 -184 218
-15 33 -49 89 -76 126 -34 47 -54 88 -65 132 -16 62 -52 134 -85 173 -9 10
-57 47 -107 82 -75 52 -190 165 -206 201 -5 12 -79 68 -113 86 -54 27 -494
159 -512 153 -10 -3 -24 -20 -32 -36 -13 -30 -8 -69 13 -120 6 -13 -6 -16 -74
-16 -46 -1 -86 -6 -92 -12 -7 -7 -13 -27 -14 -47 -3 -32 2 -39 45 -73 39 -31
66 -43 135 -58 l86 -18 -25 -21 c-13 -11 -60 -69 -103 -129 -79 -108 -80 -110
-91 -195 -6 -47 -13 -134 -15 -192 -7 -167 -26 -219 -134 -358 -71 -94 -87
-141 -58 -182 9 -13 16 -30 17 -39 0 -8 18 -30 40 -48 l39 -34 11 25 c11 24
18 26 88 29 42 2 80 1 84 -3 5 -3 -1 -23 -11 -44 -30 -54 -8 -133 38 -136 11
-1 26 -2 33 -3 34 -5 87 22 153 79 41 34 83 74 95 89 l20 26 162 0 c184 0 202
-6 251 -87 l26 -44 -49 -67 c-50 -68 -91 -142 -91 -162 0 -6 -22 -59 -49 -118
-29 -61 -53 -130 -57 -160 -5 -40 -15 -64 -40 -94 -19 -22 -35 -50 -35 -61 -1
-12 -3 -51 -4 -87 -2 -36 -5 -90 -8 -120 -7 -76 11 -113 69 -147 26 -16 103
-79 171 -142 l124 -114 -3 -236 -3 -236 -38 -140 c-56 -208 -106 -271 -260
-327 -49 -18 -72 -36 -147 -115 -77 -82 -90 -101 -100 -146 -15 -64 0 -131 32
-148 14 -7 48 -9 98 -5 43 3 110 9 151 12 41 3 88 9 104 13 17 4 56 5 89 3
l59 -4 -7 -74 -7 -75 38 -16 c22 -10 65 -17 103 -17 58 -1 78 5 175 50 61 29
126 57 146 63 51 16 176 133 185 174 10 44 6 84 -12 118 -8 16 -12 35 -8 41 4
7 13 44 20 82 16 98 100 461 109 476 4 7 18 50 31 97 13 47 30 96 38 109 22
33 30 94 17 139 -6 21 -9 40 -7 42 2 2 167 64 366 138 200 75 368 142 374 150
6 8 25 18 43 21 28 6 33 3 39 -20 3 -15 60 -78 135 -150 71 -69 129 -129 129
-134 0 -5 -75 -193 -166 -418 -178 -439 -186 -454 -275 -499 -97 -50 -144
-111 -150 -195 l-3 -45 44 0 c47 0 125 8 257 25 43 6 95 12 116 15 20 2 45 8
55 13 9 5 33 12 53 16 47 8 110 54 138 100 13 20 37 100 56 190 29 128 45 175
94 278 99 204 209 349 374 494 88 77 103 108 86 183 -18 83 -51 174 -95 263
-24 48 -44 89 -44 92 0 2 33 6 73 10 132 12 182 17 212 21 160 20 160 20 222
-18 97 -59 96 -56 67 -170 -18 -73 -44 -133 -102 -242 l-77 -145 -192 -111
c-106 -61 -193 -115 -193 -122 0 -6 -12 -23 -26 -38 -60 -62 -44 -186 30 -234
14 -9 69 -32 123 -51 83 -30 108 -35 165 -32 57 3 74 9 120 40 72 49 202 113
263 129 28 7 57 22 65 33 12 17 123 248 127 266 1 3 6 18 12 33 6 16 11 34 11
42 0 8 4 16 9 19 5 3 12 22 15 41 4 20 15 50 25 68 10 18 47 108 81 202 35 93
73 185 86 205 12 19 47 112 77 205 31 94 70 199 88 234 28 55 32 76 33 142 1
60 -3 81 -17 97 -15 16 -74 41 -300 124 -75 28 -243 270 -252 364 -3 37 -20
64 -39 64 -30 0 -186 195 -186 232 0 15 125 -68 135 -90 14 -31 63 -30 74 1
14 36 -12 71 -89 117 -38 23 -70 49 -70 56 0 25 31 15 82 -26 54 -42 67 -47
86 -28 8 8 -1 26 -38 74 -54 67 -62 83 -28 60 24 -17 58 -6 58 20 0 8 8 18 18
21 17 7 32 22 32 36 0 19 -43 47 -73 47 -18 0 -43 7 -55 16 l-23 16 28 32 c25
29 31 31 56 21 24 -8 31 -7 43 9 12 17 12 23 -1 43 -8 13 -23 35 -32 50 l-17
26 26 -6 c41 -11 42 17 3 78 -34 54 -34 54 -15 77 18 22 19 22 20 3 0 -21 84
-125 101 -125 5 0 14 11 21 24 9 21 6 32 -16 70 -14 24 -26 52 -26 62 0 10 -9
28 -21 40 l-21 22 26 38 c32 48 32 57 1 74 -14 7 -25 18 -25 24 0 5 18 36 40
67 l40 57 -27 20 -27 20 -59 -40 -59 -40 27 46 c15 25 24 53 21 62 -3 9 9 39
29 70 19 30 35 59 35 64 0 17 -44 40 -66 34 -13 -3 -32 1 -45 10 -21 14 -25
12 -88 -42 l-65 -57 66 85 c40 52 83 95 109 111 38 21 44 30 47 62 3 32 0 37
-22 43 -13 3 -33 3 -44 0 -16 -5 -21 -1 -25 23 -4 17 -15 39 -27 51 l-20 20
24 15 c24 16 46 55 46 82 0 19 -28 42 -52 43 -11 0 -18 8 -18 19 0 47 -72 94
-86 56 -8 -20 -55 -19 -97 1 -22 11 -40 30 -51 53 -23 54 -42 61 -201 74 -16
1 -36 10 -43 20 -17 23 -64 22 -104 -3 l-33 -20 -30 30 -31 30 -38 -26z m374
-210 l61 -27 -26 -27 c-34 -36 -32 -61 9 -87 19 -12 41 -35 48 -50 11 -22 20
-27 41 -25 24 2 26 0 18 -20 -10 -27 -4 -49 17 -65 14 -12 14 -14 -2 -26 -27
-20 -17 -58 19 -70 17 -5 31 -11 33 -12 2 -2 -8 -20 -23 -40 -34 -51 -33 -97
2 -125 l27 -21 -22 -15 c-24 -17 -30 -62 -10 -82 7 -7 27 -12 46 -12 l35 0
-43 -38 c-37 -32 -42 -42 -37 -64 8 -30 30 -39 65 -26 23 8 23 7 -5 -32 -15
-21 -40 -44 -55 -51 -21 -8 -28 -18 -28 -39 0 -26 2 -27 62 -33 45 -4 68 -1
87 10 14 9 -2 -11 -36 -43 -34 -33 -65 -69 -68 -81 -9 -31 10 -61 42 -65 44
-5 37 -23 -26 -69 -33 -24 -61 -50 -61 -57 0 -8 9 -27 20 -42 l21 -29 -38 -25
c-21 -15 -43 -26 -50 -26 -26 0 -42 -29 -33 -60 5 -18 5 -32 -1 -35 -21 -13
-8 -105 26 -196 53 -139 92 -204 171 -288 44 -48 76 -91 84 -116 39 -124 149
-276 246 -340 58 -39 200 -95 241 -95 12 0 33 -4 47 -10 l25 -9 -16 -48 c-8
-26 -56 -156 -106 -288 -50 -132 -93 -253 -97 -270 -12 -51 -152 -429 -165
-445 -7 -8 -27 -48 -44 -89 -18 -41 -52 -118 -77 -170 l-45 -96 -77 -30 c-42
-16 -123 -53 -180 -82 -56 -29 -107 -53 -112 -53 -6 0 -8 11 -4 25 13 53 -50
76 -80 30 -17 -26 -32 -30 -55 -16 -12 8 -7 20 28 65 49 65 56 82 42 91 -22
13 -10 34 22 40 68 15 178 95 244 180 44 56 111 176 137 247 10 26 30 94 45
150 16 57 35 119 43 138 14 33 14 37 -10 68 -14 18 -45 47 -68 63 -39 27 -54
30 -146 35 -57 4 -148 9 -204 13 -56 3 -121 3 -145 -2 -116 -21 -171 -13 -295
43 -80 37 -105 56 -232 176 -54 50 -110 100 -125 112 l-29 21 -49 -37 -50 -37
48 -45 c27 -25 81 -76 122 -113 40 -38 71 -70 69 -71 -1 -1 -111 -61 -243
-133 -228 -125 -258 -138 -606 -267 -202 -75 -369 -136 -373 -136 -12 0 -6 50
13 98 l19 48 -50 28 c-27 15 -51 26 -53 24 -13 -14 -55 -278 -54 -344 0 -43
-7 -110 -16 -149 -9 -38 -20 -97 -25 -130 -4 -33 -13 -71 -19 -85 -17 -38
-141 -558 -141 -591 0 -17 7 -46 15 -66 8 -19 15 -36 15 -37 0 -1 -29 -26 -65
-56 -64 -53 -217 -127 -223 -109 -2 5 6 22 17 38 l21 30 -21 20 c-21 19 -40
19 -69 -3 -8 -6 8 18 34 53 89 116 188 399 223 634 6 37 7 38 46 35 32 -2 44
3 63 26 29 33 30 47 4 64 -17 10 -26 8 -61 -14 -22 -14 -42 -24 -43 -22 -9 10
-26 161 -21 177 3 10 1 48 -4 82 -6 35 -13 96 -16 134 -8 94 -58 226 -112 296
l-44 56 -52 -5 c-29 -2 -55 -7 -59 -11 -7 -6 66 -125 102 -166 12 -13 27 -70
44 -160 21 -114 26 -174 27 -325 2 -215 -10 -340 -46 -463 -31 -108 -55 -157
-109 -220 -35 -41 -45 -47 -69 -43 -36 7 -67 -12 -67 -41 0 -13 -1 -23 -3 -23
-2 0 -70 -9 -151 -21 -82 -11 -150 -19 -151 -17 -2 2 21 36 52 76 52 69 54 74
38 92 -15 17 -15 19 4 25 38 12 117 82 150 133 47 73 126 319 135 417 4 44 9
107 12 140 15 180 27 261 40 276 21 23 17 61 -11 99 -30 41 -30 46 -6 103 14
33 16 48 8 56 -19 19 -42 12 -72 -19 -32 -34 -51 -40 -36 -12 14 26 -13 62
-44 62 -17 0 -23 4 -19 14 8 21 -34 55 -61 50 -23 -4 -22 -5 -103 118 -17 26
-22 45 -18 62 3 14 1 28 -4 31 -6 4 -9 14 -6 23 2 10 7 29 10 44 6 25 9 26 32
18 55 -21 141 -4 173 33 9 11 29 17 60 17 69 1 126 30 151 80 21 40 22 41 59
35 33 -5 50 0 121 39 45 25 96 46 112 46 41 0 76 21 131 79 31 33 51 66 59 96
11 42 10 46 -12 70 -36 38 -63 30 -72 -22 -4 -23 -14 -54 -24 -68 -22 -34
-101 -88 -109 -75 -12 19 -39 10 -65 -22 -37 -43 -80 -57 -148 -45 -67 12
-102 -1 -102 -37 0 -17 -14 -36 -44 -60 -48 -40 -70 -44 -105 -20 -19 14 -27
14 -47 4 -14 -8 -24 -22 -24 -36 0 -12 -8 -25 -17 -29 -27 -11 -83 -14 -83 -4
0 20 65 229 92 294 29 70 92 183 133 240 35 47 39 101 11 160 -31 66 -87 121
-161 157 -58 27 -64 28 -156 22 -88 -6 -97 -5 -110 13 -17 24 -51 43 -78 43
-11 0 -73 -21 -138 -46 -100 -38 -235 -74 -280 -74 -7 0 -13 8 -13 19 0 10 -9
30 -20 44 -11 14 -20 28 -20 32 0 3 20 35 45 70 68 95 77 128 80 295 3 166 18
238 72 349 62 125 168 211 263 211 33 0 40 4 45 23 13 61 12 62 -30 64 -40 3
-293 81 -265 82 8 1 67 -6 130 -14 115 -15 186 -30 205 -45 17 -14 113 1 120
18 3 8 2 19 -2 22 -4 4 -73 27 -153 50 -80 23 -159 52 -176 63 -32 21 -59 55
-51 63 5 5 155 -34 283 -73 140 -42 238 -123 313 -258 12 -22 46 -60 75 -85
56 -48 136 -141 136 -157 0 -6 7 -16 15 -23 8 -7 15 -22 15 -34 0 -11 9 -37
19 -56 11 -19 31 -58 45 -87 47 -98 175 -266 274 -357 51 -48 53 -49 120 -50
62 -1 274 12 311 19 9 1 81 8 161 14 80 7 161 14 180 16 19 2 174 43 344 90
397 111 488 153 678 310 70 58 145 129 166 158 148 201 226 421 226 637 -1
285 -110 440 -332 472 l-77 11 -79 -38 c-101 -48 -160 -107 -207 -205 -30 -62
-73 -227 -72 -275 0 -5 3 -55 8 -109 6 -82 11 -107 31 -135 21 -31 22 -36 8
-39 -24 -5 -89 63 -117 122 -27 56 -39 168 -38 354 1 96 3 111 30 167 31 63
109 147 150 160 17 5 29 1 47 -16 l24 -23 22 52 c27 64 57 77 137 62 72 -14
67 -15 97 30 31 46 36 48 49 18 16 -37 57 -35 89 3 25 29 29 31 51 19 22 -12
29 -10 62 13 21 15 39 27 40 27 1 0 29 -12 63 -26z m-868 -176 c-9 -9 -15 -9
-24 0 -9 9 -7 12 12 12 19 0 21 -3 12 -12z m-2582 -682 c0 -11 -19 -15 -25 -6
-3 5 1 10 9 10 9 0 16 -2 16 -4z m3689 -715 c-12 -23 -24 -39 -27 -37 -2 2 7
22 20 44 12 23 24 39 26 37 2 -2 -6 -22 -19 -44z m-3544 -537 c-91 -81 -139
-118 -133 -104 3 8 13 38 22 66 16 51 17 51 69 61 82 16 85 14 42 -23z m2812
-962 c58 -30 78 -47 103 -85 16 -26 30 -55 30 -64 0 -9 13 -37 28 -62 31 -49
80 -167 84 -199 2 -13 -56 -86 -182 -227 -102 -114 -187 -214 -189 -223 -2
-10 -10 -21 -18 -26 -22 -12 -88 -158 -118 -261 -14 -50 -32 -131 -39 -182
-18 -126 -37 -151 -171 -214 -56 -26 -108 -49 -115 -51 -9 -2 -14 12 -17 45
-3 44 10 75 152 381 162 346 246 567 238 623 -4 24 -31 57 -117 140 -94 92
-177 196 -164 208 1 1 32 17 68 35 36 18 100 57 144 88 92 65 175 112 196 111
8 0 47 -17 87 -37z m292 -964 c-8 -14 -14 -18 -17 -10 -4 13 17 46 25 38 3 -2
-1 -15 -8 -28z m-2794 -557 c-59 -36 -95 -92 -95 -145 0 -18 -7 -25 -32 -30
-17 -3 -32 -5 -33 -4 -1 2 3 22 9 44 9 35 23 51 86 98 41 31 79 56 85 56 5 0
-3 -8 -20 -19z m1799 -101 c-5 -4 -25 -10 -44 -14 l-35 -6 40 25 c24 15 41 20
44 14 2 -6 -1 -14 -5 -19z m-1378 -137 c-7 -16 -17 -43 -21 -60 -3 -18 -11
-33 -16 -33 -18 0 -9 45 17 82 31 45 40 49 20 11z"/>
<path d="M1279 6024 c-72 -34 -77 -73 -9 -74 19 0 28 -8 37 -30 l11 -30 91 0
c76 0 92 3 99 18 11 22 9 61 -6 88 -26 49 -144 64 -223 28z"/>
<path d="M3673 5511 c-74 -29 -103 -72 -68 -101 11 -9 30 -8 92 6 91 22 120
43 101 74 -22 35 -69 43 -125 21z"/>
<path d="M3949 5516 c-31 -13 -79 -67 -79 -90 0 -8 9 -20 20 -26 16 -9 26 -7
48 9 15 10 49 22 74 26 57 9 74 25 58 54 -9 18 -24 25 -80 35 -8 1 -27 -2 -41
-8z"/>
<path d="M4003 5393 c-47 -28 -63 -43 -63 -60 0 -30 32 -38 72 -17 18 9 59 24
93 33 46 13 61 21 63 37 2 16 -5 23 -36 32 -55 17 -60 16 -129 -25z"/>
<path d="M3320 5390 c-57 -16 -130 -60 -130 -80 0 -36 30 -40 119 -18 87 22
101 34 83 72 -12 27 -36 36 -72 26z"/>
<path d="M3754 5321 c-49 -23 -93 -76 -101 -124 -4 -29 -2 -36 16 -42 16 -5
28 1 49 26 15 17 30 37 34 44 4 7 28 20 53 29 25 10 46 23 46 29 6 58 -26 70
-97 38z"/>
<path d="M3365 5191 c-42 -13 -126 -62 -132 -77 -3 -9 2 -23 11 -32 14 -15 21
-14 86 7 74 23 103 44 98 69 -4 21 -40 40 -63 33z"/>
<path d="M3723 5147 c-67 -29 -143 -82 -143 -100 0 -8 9 -22 19 -31 19 -17 24
-16 120 35 104 56 117 71 83 102 -22 20 -16 21 -79 -6z"/>
<path d="M3368 5050 c-50 -15 -93 -48 -116 -88 -28 -50 -28 -60 2 -73 30 -14
62 3 141 75 l60 56 -25 20 c-28 22 -25 21 -62 10z"/>
<path d="M3756 4990 c-121 -82 -159 -140 -90 -140 29 0 52 13 122 68 47 37 90
70 96 74 12 8 -21 48 -40 48 -7 0 -46 -23 -88 -50z"/>
<path d="M3325 4808 c-49 -18 -84 -47 -106 -90 -20 -38 -20 -40 -2 -54 10 -7
21 -14 24 -14 13 0 151 102 156 117 7 19 -9 47 -28 50 -8 1 -27 -3 -44 -9z"/>
<path d="M2530 4703 c-13 -3 -64 -70 -98 -130 -11 -19 -10 -24 7 -32 16 -9 28
-2 80 52 33 34 61 69 61 77 0 18 -29 37 -50 33z"/>
<path d="M4850 4585 c-7 -14 -11 -27 -9 -28 2 -2 39 -11 81 -19 69 -13 79 -13
90 0 10 12 6 19 -20 43 -26 23 -42 29 -80 29 -42 0 -51 -4 -62 -25z"/>
<path d="M2250 4461 c-58 -20 -70 -29 -70 -47 0 -11 11 -13 53 -10 28 3 62 5
75 5 27 1 30 31 5 53 -16 14 -23 14 -63 -1z"/>
<path d="M2030 4331 c0 -5 -9 -11 -20 -14 -11 -3 -20 -14 -20 -25 0 -15 9 -21
46 -26 77 -10 84 -9 84 18 0 14 -10 32 -22 40 -24 17 -68 22 -68 7z"/>
<path d="M2350 3671 c-34 -9 -41 -51 -8 -51 13 0 39 -3 59 -6 29 -5 37 -3 43
11 8 23 -20 55 -48 54 -12 -1 -32 -4 -46 -8z"/>
<path d="M1996 3407 c-14 -10 -18 -29 -19 -82 l-2 -70 33 -3 c29 -3 32 -1 33
25 0 15 3 46 5 69 4 31 0 44 -14 57 -15 14 -21 15 -36 4z"/>
<path d="M2077 3393 c-12 -11 -8 -88 5 -101 31 -31 76 6 64 53 -10 41 -50 68
-69 48z"/>
<path d="M3871 4016 c-27 -32 30 -86 90 -86 65 0 57 50 -13 86 -35 18 -62 18
-77 0z"/>
</g>
</svg>
