<?xml version="1.0" standalone="no"?>
<!DOCTYPE svg PUBLIC "-//W3C//DTD SVG 20010904//EN"
 "http://www.w3.org/TR/2001/REC-SVG-20010904/DTD/svg10.dtd">
<svg version="1.0" xmlns="http://www.w3.org/2000/svg"
 width="1024.000000pt" height="1024.000000pt" viewBox="0 0 1024.000000 1024.000000"
 preserveAspectRatio="xMidYMid meet">
<metadata>
Created by potrace 1.10, written by Peter Selinger 2001-2011
</metadata>
<g transform="translate(0.000000,1024.000000) scale(0.100000,-0.100000)"
fill="#000000" stroke="none">
<path d="M7364 9710 c-61 -24 -81 -104 -44 -173 11 -20 20 -47 20 -60 0 -13
-32 -133 -72 -268 -64 -220 -71 -253 -72 -334 -1 -160 48 -248 173 -308 129
-62 245 -211 258 -330 4 -32 -40 -230 -177 -797 -107 -448 -179 -764 -175
-777 14 -59 93 -85 133 -45 31 31 81 108 103 159 11 26 81 291 155 588 74 297
145 578 159 624 57 189 23 382 -97 552 -38 54 -52 65 -123 98 -44 21 -95 50
-113 66 -38 32 -92 120 -92 150 0 44 62 261 111 387 46 120 52 141 53 218 1
77 -2 90 -29 139 -32 58 -101 121 -131 120 -10 0 -29 -4 -40 -9z"/>
<path d="M6405 9669 c-48 -42 -46 -73 7 -152 23 -34 41 -69 41 -78 -1 -9 -49
-190 -108 -403 -97 -354 -106 -393 -106 -473 0 -160 59 -284 176 -372 51 -38
72 -51 195 -116 75 -39 122 -88 138 -143 17 -56 15 -83 -13 -207 -57 -257
-113 -637 -119 -815 -2 -58 2 -143 9 -190 25 -160 97 -341 147 -369 36 -21 95
-6 131 32 25 27 28 37 24 76 -3 26 -18 83 -35 128 -42 111 -56 227 -48 393 12
243 37 417 94 640 30 119 37 163 37 245 0 93 -2 105 -33 167 -37 75 -107 145
-186 185 -78 39 -276 204 -276 229 0 12 -10 33 -21 48 -21 27 -22 28 -5 139
29 190 80 361 158 529 98 213 93 343 -18 455 -42 42 -110 83 -138 83 -9 0 -31
-14 -51 -31z"/>
<path d="M5502 9597 c-23 -12 -176 -293 -208 -380 -7 -21 -27 -66 -43 -101
-42 -88 -61 -166 -66 -273 l-4 -92 38 -58 c22 -33 122 -140 238 -253 111 -107
210 -211 222 -230 27 -47 49 -146 45 -201 -8 -93 -46 -503 -64 -691 -11 -109
-20 -244 -20 -300 0 -202 50 -405 144 -592 83 -162 263 -445 300 -467 56 -36
156 -8 170 47 4 16 -34 86 -150 269 -86 136 -158 262 -161 279 -2 17 -18 81
-35 141 -31 108 -31 115 -34 365 -3 278 8 412 50 623 34 165 41 265 26 362
-13 89 -78 298 -106 339 -9 15 -59 59 -111 97 -113 83 -235 206 -298 298 l-46
67 81 197 c44 109 103 240 130 292 54 103 62 152 35 205 -31 60 -84 83 -133
57z"/>
<path d="M3709 9111 c-82 -41 -189 -141 -189 -177 0 -13 -22 -47 -51 -81 -62
-69 -140 -225 -170 -339 -16 -60 -22 -112 -23 -218 l-2 -140 -24 -6 c-14 -4
-166 -104 -339 -224 -172 -119 -315 -216 -317 -216 -2 0 -29 51 -60 113 -95
189 -183 300 -315 398 -63 47 -73 51 -107 44 -20 -4 -45 -14 -54 -22 -40 -36
-26 -68 163 -375 117 -189 178 -297 172 -305 -4 -6 -174 -146 -378 -310 -366
-295 -550 -464 -543 -499 6 -30 84 -77 136 -82 72 -6 113 20 270 172 122 119
618 523 629 512 2 -2 41 -129 87 -282 73 -244 86 -300 105 -449 12 -93 27
-192 34 -219 25 -96 -18 -366 -98 -613 -52 -162 -78 -223 -140 -333 -25 -44
-45 -85 -45 -92 0 -8 -76 -101 -169 -207 -183 -210 -189 -221 -162 -296 29
-82 67 -98 134 -55 67 43 277 266 341 363 56 84 127 231 142 294 4 15 15 40
26 55 10 15 30 59 42 97 13 37 29 78 36 91 6 12 32 90 56 173 51 174 76 335
75 488 l-1 106 47 18 c27 10 66 26 88 35 105 47 298 63 427 36 190 -41 424
-208 504 -361 57 -109 69 -158 69 -292 0 -110 -2 -124 -21 -145 -12 -13 -40
-79 -64 -147 -39 -114 -55 -144 -197 -365 -86 -133 -206 -317 -268 -411 -170
-257 -221 -371 -251 -565 -18 -118 -26 -377 -14 -487 9 -76 8 -86 -12 -120
-12 -21 -40 -58 -64 -83 -44 -46 -164 -251 -236 -400 -224 -467 -276 -1175
-128 -1759 38 -153 102 -337 150 -436 42 -86 131 -212 156 -222 19 -7 80 25
105 56 37 46 26 92 -64 287 -120 257 -170 422 -202 669 -55 426 48 1120 207
1390 41 69 158 245 163 245 1 0 33 -71 70 -157 37 -87 71 -162 75 -168 4 -5
57 -91 117 -190 179 -293 611 -1003 668 -1095 160 -260 192 -310 236 -361 27
-31 49 -65 49 -74 0 -10 83 -145 185 -301 145 -222 193 -304 225 -385 62 -156
101 -197 194 -200 37 -2 49 2 65 22 11 13 20 38 21 54 0 44 -25 142 -53 205
-14 31 -351 569 -750 1197 -399 628 -730 1150 -735 1160 -5 10 -14 40 -21 67
-10 42 -52 132 -81 176 -6 8 -28 73 -50 145 l-40 130 97 96 c54 53 323 318
598 589 275 272 508 505 517 519 38 56 11 109 -66 130 -80 21 -64 35 -637
-531 -295 -290 -539 -528 -543 -528 -9 0 -6 293 4 355 7 40 46 113 202 366
106 174 231 372 276 440 128 189 220 385 319 679 33 96 37 270 8 365 -52 175
-203 372 -379 496 -125 88 -256 139 -426 164 -188 29 -313 13 -488 -62 -46
-19 -84 -34 -86 -32 -1 2 -13 53 -25 113 -12 59 -38 152 -58 205 -19 53 -39
121 -43 151 -4 30 -33 118 -64 194 -31 77 -55 143 -54 147 2 4 138 103 303
220 165 116 315 225 334 241 l34 30 41 -48 c158 -186 340 -360 526 -503 150
-115 171 -125 241 -122 35 1 109 66 109 96 0 26 -11 36 -203 189 -247 197
-537 479 -537 522 0 11 -9 52 -20 93 -32 120 -27 186 21 300 84 199 134 279
225 366 81 77 84 82 84 124 0 38 -5 49 -40 83 -46 43 -51 44 -101 19z"/>
<path d="M7579 6473 c-226 -57 -637 -213 -949 -360 -173 -82 -555 -288 -638
-345 -99 -68 -272 -241 -340 -340 -195 -286 -274 -612 -274 -1133 0 -137 3
-284 6 -325 3 -41 8 -131 11 -200 3 -69 8 -145 10 -170 3 -25 9 -101 15 -170
46 -541 106 -824 238 -1136 194 -454 289 -655 473 -1000 110 -204 199 -381
199 -393 0 -12 15 -37 33 -56 27 -30 39 -36 77 -37 25 -1 95 -18 155 -38 l110
-36 115 13 c109 12 122 16 240 74 398 194 689 484 890 887 22 46 109 261 191
479 127 336 161 436 219 657 38 144 73 293 79 331 5 39 17 122 25 185 40 291
58 425 77 558 66 463 -1 821 -238 1287 -73 144 -187 279 -315 376 -71 53 -86
60 -115 56 -45 -8 -85 -53 -78 -90 2 -15 30 -59 60 -97 140 -175 355 -499 355
-535 0 -19 31 -19 -355 1 -76 4 -140 2 -173 -5 -45 -9 -72 -7 -214 20 -349 65
-697 166 -805 233 -35 21 -63 43 -63 47 0 5 43 127 96 271 99 271 108 312 91
408 l-7 45 427 160 c359 135 434 160 472 157 130 -8 182 149 70 209 -39 21
-115 26 -170 12z m-999 -640 c0 -23 -82 -297 -99 -330 -39 -75 -178 -371 -246
-521 -69 -152 -72 -156 -217 -326 l-146 -172 -59 -13 c-66 -15 -136 -48 -181
-85 -16 -15 -33 -26 -36 -26 -16 0 16 347 45 490 44 215 70 290 130 380 117
174 333 348 674 542 119 68 135 75 135 61z m61 -904 c52 -33 150 -69 188 -69
14 0 129 -31 256 -70 l232 -70 319 -6 c175 -3 362 -7 414 -9 52 -2 127 -4 166
-4 l71 -1 17 -62 c13 -50 16 -94 12 -208 -2 -80 -4 -211 -5 -292 l-1 -148 -35
0 c-46 0 -1357 -228 -1645 -286 -245 -49 -473 -102 -730 -169 -191 -49 -260
-61 -261 -42 0 6 -2 19 -3 27 -2 8 -7 87 -11 175 -4 88 -8 167 -10 175 -1 8
-6 89 -10 180 -4 91 -9 168 -11 172 -10 16 27 22 205 33 94 6 94 6 179 61 176
115 304 275 473 591 l49 92 48 -20 c26 -11 68 -33 93 -50z m1644 -1231 c-21
-255 -66 -529 -132 -801 -29 -123 -39 -150 -57 -157 -11 -5 -358 -66 -771
-135 -412 -70 -795 -137 -851 -150 -129 -30 -311 -91 -447 -150 -59 -25 -109
-45 -112 -45 -22 0 -122 281 -174 490 -57 230 -104 530 -84 530 10 0 1256 238
2123 405 267 51 491 94 499 94 10 1 12 -15 6 -81z m-255 -1205 c0 -3 -6 -14
-13 -22 -8 -9 -35 -88 -61 -176 -26 -88 -54 -171 -63 -184 -8 -13 -25 -53 -38
-90 -86 -252 -282 -553 -486 -745 -124 -118 -303 -252 -345 -260 -10 -2 -73
-7 -139 -10 -66 -4 -147 -9 -180 -12 l-60 -5 -90 79 c-85 75 -96 89 -211 278
-66 109 -126 213 -133 229 -161 371 -211 489 -207 492 10 11 218 86 339 123
182 56 346 93 632 139 138 23 426 70 640 105 429 71 415 69 415 59z"/>
</g>
</svg>
