<?xml version="1.0" standalone="no"?>
<!DOCTYPE svg PUBLIC "-//W3C//DTD SVG 20010904//EN"
 "http://www.w3.org/TR/2001/REC-SVG-20010904/DTD/svg10.dtd">
<svg version="1.0" xmlns="http://www.w3.org/2000/svg"
 width="1024.000000pt" height="1024.000000pt" viewBox="0 0 1024.000000 1024.000000"
 preserveAspectRatio="xMidYMid meet">
<metadata>
Created by potrace 1.10, written by Peter Selinger 2001-2011
</metadata>
<g transform="translate(0.000000,1024.000000) scale(0.100000,-0.100000)"
fill="#000000" stroke="none">
<path d="M7517 7885 c-27 -7 -51 -15 -53 -18 -3 -2 14 -56 37 -120 l41 -116
-47 -65 c-56 -79 -96 -115 -290 -260 -305 -229 -502 -354 -780 -493 -300 -151
-545 -255 -847 -358 l-168 -57 26 -21 26 -20 401 77 c389 76 412 81 802 201
l401 124 408 186 c365 166 616 292 655 330 20 20 6 65 -48 147 -134 205 -397
463 -483 473 -18 2 -55 -2 -81 -10z"/>
<path d="M4315 7539 l-250 -89 -730 -116 -730 -116 -135 60 c-177 78 -233 96
-284 89 -47 -5 -141 -40 -170 -62 -20 -15 -20 -15 0 -49 10 -18 39 -50 64 -71
93 -77 175 -195 204 -295 15 -50 33 -174 52 -350 12 -118 13 -2081 0 -2086
-35 -12 -797 -104 -831 -100 -57 8 -120 14 -200 21 -38 3 -81 8 -95 10 -65 11
-180 16 -180 9 0 -5 14 -51 32 -103 44 -124 105 -194 216 -247 42 -20 88 -43
102 -51 138 -80 179 -85 316 -40 75 25 195 50 384 82 151 25 324 55 384 66 60
10 113 19 118 19 19 0 6 -62 -27 -126 -19 -38 -117 -189 -217 -335 -181 -263
-185 -267 -343 -417 -88 -84 -166 -152 -173 -152 -7 0 -27 -7 -44 -16 -29 -15
-30 -19 -25 -61 2 -24 21 -77 41 -117 72 -147 261 -386 304 -386 9 0 53 35 97
78 45 43 94 83 110 89 77 29 2168 736 2181 737 9 0 52 -53 107 -133 129 -189
181 -225 272 -187 57 24 92 98 98 210 9 155 -34 267 -142 369 -110 103 -202
162 -482 305 -181 92 -270 125 -331 120 -81 -6 -70 -23 164 -278 117 -128 214
-235 216 -239 1 -3 -474 -117 -1055 -253 l-1058 -246 -22 21 c-22 20 -22 21
-5 40 9 10 177 148 372 305 195 158 379 309 408 336 48 45 52 53 46 80 -10 49
-48 124 -103 209 -28 43 -51 81 -51 86 0 12 213 50 320 56 90 5 143 9 285 20
33 2 101 7 150 10 50 3 115 8 145 10 30 3 96 7 145 10 50 3 115 8 145 10 112
9 197 15 280 20 137 9 232 15 285 20 28 2 95 7 150 10 55 3 120 8 145 10 25 2
92 7 150 10 152 9 195 20 241 66 29 29 39 49 45 85 9 62 -13 103 -86 162 -68
54 -229 133 -284 139 -23 2 -538 -64 -1145 -146 -607 -83 -1111 -151 -1120
-151 -15 0 -17 25 -16 269 0 148 3 272 6 276 7 7 29 11 109 20 140 15 1131
126 1180 131 30 3 66 7 80 9 14 2 57 7 95 11 39 3 79 8 89 10 11 2 76 8 145
14 188 17 230 27 268 65 24 24 33 42 33 67 0 72 -102 182 -218 236 -80 37
-118 38 -208 9 -190 -62 -379 -97 -973 -177 -326 -44 -596 -78 -600 -76 -4 3
-7 130 -6 283 l0 278 25 7 c36 12 1708 248 1751 248 51 0 127 25 155 51 90 85
-39 268 -229 324 -73 22 -110 19 -185 -14 -37 -15 -134 -49 -217 -75 -136 -42
-201 -54 -710 -131 -308 -47 -568 -85 -578 -85 -16 0 -17 17 -13 243 2 133 8
276 11 318 l8 76 336 51 c185 28 617 95 961 147 344 53 659 98 700 101 136 8
214 42 240 104 11 26 10 37 -5 75 -20 54 -127 163 -201 205 -57 33 -152 60
-204 59 -19 0 -147 -41 -285 -90z"/>
<path d="M7810 6443 c-34 -24 -60 -50 -57 -56 2 -7 17 -49 32 -94 l29 -81 -56
-84 c-46 -69 -77 -102 -179 -185 -168 -136 -311 -238 -547 -392 -448 -293
-816 -467 -1385 -655 l-277 -92 44 -21 43 -21 199 29 c220 32 287 47 579 126
569 154 749 219 1125 411 231 117 402 216 719 415 209 131 284 183 315 220
l40 48 -22 43 c-55 104 -246 278 -412 377 -109 64 -118 65 -190 12z"/>
<path d="M8172 4865 c-29 -13 -52 -28 -52 -33 0 -4 16 -55 35 -112 l35 -104
-65 -66 c-106 -107 -470 -325 -905 -544 -471 -236 -963 -422 -1580 -598 -118
-34 -217 -63 -219 -64 -9 -8 33 -44 51 -44 10 0 373 77 806 170 433 94 871
189 974 211 178 38 209 48 680 230 271 105 545 215 608 244 63 29 138 60 165
70 28 10 59 26 69 36 19 17 19 19 2 64 -20 50 -109 190 -174 272 -27 33 -97
91 -199 164 -87 62 -163 116 -168 120 -6 5 -34 -3 -63 -16z"/>
</g>
</svg>
