<?xml version="1.0" standalone="no"?>
<!DOCTYPE svg PUBLIC "-//W3C//DTD SVG 20010904//EN"
 "http://www.w3.org/TR/2001/REC-SVG-20010904/DTD/svg10.dtd">
<svg version="1.0" xmlns="http://www.w3.org/2000/svg"
 width="1024.000000pt" height="1024.000000pt" viewBox="0 0 1024.000000 1024.000000"
 preserveAspectRatio="xMidYMid meet">
<metadata>
Created by potrace 1.10, written by Peter Selinger 2001-2011
</metadata>
<g transform="translate(0.000000,1024.000000) scale(0.100000,-0.100000)"
fill="#000000" stroke="none">
<path d="M4584 9152 l-51 -38 53 -104 c66 -131 68 -159 18 -307 -149 -446
-612 -1245 -1101 -1900 -257 -345 -409 -517 -838 -952 -386 -391 -782 -748
-1257 -1134 -112 -91 -158 -134 -158 -149 0 -18 4 -20 37 -15 101 16 660 331
898 506 299 220 629 486 857 694 59 53 109 97 111 97 3 0 10 -19 16 -42 12
-41 18 -47 168 -138 272 -166 280 -169 409 -127 44 14 126 32 184 41 414 62
578 87 597 91 47 11 172 -202 209 -355 15 -64 18 -133 22 -472 l4 -397 -24 -5
c-12 -3 -108 -12 -213 -21 -104 -9 -361 -31 -570 -50 -701 -62 -668 -61 -964
-35 -143 13 -263 21 -265 19 -5 -5 46 -188 58 -207 22 -36 178 -136 244 -157
13 -4 43 -20 67 -36 89 -60 164 -72 295 -44 59 12 1314 165 1357 165 11 0 13
-203 13 -1144 l0 -1145 -42 -5 c-24 -3 -198 -15 -388 -26 -190 -11 -680 -41
-1090 -66 -873 -53 -987 -54 -1303 -3 -104 17 -191 29 -193 26 -9 -9 49 -233
65 -248 9 -9 81 -61 161 -115 131 -89 158 -103 292 -151 l149 -52 92 19 c51
10 153 35 227 54 315 83 779 154 1110 170 63 4 279 15 480 26 2040 112 2579
140 2651 140 90 0 1073 -80 1300 -105 157 -18 211 -12 247 30 28 33 23 75 -16
149 -66 121 -366 334 -576 406 -73 25 -100 25 -201 0 -149 -37 -683 -89 -1587
-155 -492 -36 -902 -65 -912 -65 -15 0 -16 88 -16 1149 l0 1149 103 7 c56 3
481 24 944 45 719 33 848 41 879 56 39 19 60 45 74 94 9 32 6 36 -76 125 l-85
93 -117 43 c-142 52 -157 52 -512 8 -205 -25 -1114 -109 -1187 -109 l-23 0 0
538 c0 295 -4 542 -8 548 -10 15 -188 133 -225 149 l-32 14 30 1 c17 0 379 23
805 50 571 37 786 55 817 66 50 18 80 56 89 111 6 37 3 44 -32 83 -58 64 -109
94 -233 135 -131 43 -125 44 -431 -6 -160 -26 -1400 -167 -2135 -243 -233 -24
-245 -25 -425 -11 -102 8 -189 15 -195 15 -5 0 78 89 186 198 107 108 213 217
235 242 336 386 725 915 1076 1465 224 351 253 395 258 394 3 0 141 -116 307
-257 l302 -257 847 -935 c466 -514 884 -975 929 -1025 45 -49 176 -193 291
-320 314 -346 415 -435 493 -435 92 0 886 62 966 76 125 21 192 41 199 60 19
50 -98 130 -429 294 -267 132 -552 290 -761 423 -446 283 -995 732 -1812 1484
-527 485 -887 787 -1134 953 -54 36 -97 67 -98 70 0 3 46 46 103 94 104 90
162 164 173 223 14 74 -53 136 -426 391 -93 64 -204 115 -258 118 -41 3 -53
-1 -98 -34z"/>
<path d="M6488 3847 c-34 -13 -34 -18 -2 -96 14 -35 38 -118 54 -186 l30 -122
-55 -126 c-37 -86 -89 -179 -161 -289 -221 -339 -336 -478 -575 -703 -188
-176 -228 -219 -216 -232 8 -7 223 67 315 108 258 115 666 454 1039 863 181
198 228 264 219 308 -9 48 -71 130 -159 214 -69 66 -111 95 -259 177 -97 53
-183 97 -190 96 -7 -1 -25 -6 -40 -12z"/>
<path d="M2814 3467 l-27 -24 76 -89 c259 -302 473 -618 645 -954 99 -194 138
-255 194 -305 39 -36 43 -37 101 -33 53 4 63 8 93 40 43 47 64 122 64 224 0
159 -54 366 -122 469 -40 60 -172 194 -271 274 -109 89 -403 282 -517 340 -74
38 -183 81 -206 81 -2 0 -15 -11 -30 -23z"/>
</g>
</svg>
