<?xml version="1.0" standalone="no"?>
<!DOCTYPE svg PUBLIC "-//W3C//DTD SVG 20010904//EN"
 "http://www.w3.org/TR/2001/REC-SVG-20010904/DTD/svg10.dtd">
<svg version="1.0" xmlns="http://www.w3.org/2000/svg"
 width="1024.000000pt" height="1024.000000pt" viewBox="0 0 1024.000000 1024.000000"
 preserveAspectRatio="xMidYMid meet">
<metadata>
Created by potrace 1.10, written by Peter Selinger 2001-2011
</metadata>
<g transform="translate(0.000000,1024.000000) scale(0.100000,-0.100000)"
fill="#000000" stroke="none">
<path d="M5031 8639 c-25 -8 -223 -198 -808 -777 -656 -649 -806 -803 -973
-997 -109 -126 -224 -253 -258 -282 -48 -43 -94 -106 -246 -339 -112 -172
-186 -296 -186 -311 0 -13 4 -32 10 -42 13 -25 87 -53 120 -46 54 12 257 241
331 374 18 31 58 83 90 116 35 37 66 82 81 116 20 48 89 126 488 546 462 488
465 491 476 463 14 -31 31 -40 82 -40 20 0 250 19 509 42 260 23 476 39 479
35 4 -4 -3 -154 -14 -334 -12 -181 -40 -773 -63 -1318 -23 -544 -43 -991 -44
-993 -2 -2 -180 -27 -397 -56 -436 -58 -460 -64 -492 -129 -34 -69 4 -157 68
-157 28 0 740 111 802 125 l21 5 6 -823 c4 -452 10 -1130 13 -1507 3 -420 2
-690 -4 -698 -7 -10 -304 -37 -1204 -107 -656 -52 -1205 -98 -1218 -103 -32
-12 -57 -40 -65 -72 -4 -18 2 -36 24 -66 27 -37 36 -42 83 -47 128 -16 119
-16 2306 149 146 11 213 12 240 4 25 -6 508 -10 1453 -10 l1416 0 22 24 c32
34 39 100 15 127 -11 12 -30 25 -43 30 -61 24 -383 31 -1554 34 -682 2 -1241
6 -1244 8 -2 3 0 15 7 26 8 17 8 21 -3 21 -20 0 -27 492 -27 1877 l0 1143 23
4 c12 3 262 25 556 50 l534 45 36 29 c20 16 42 46 50 69 13 37 13 44 -2 67
-22 33 -60 58 -89 59 -13 0 -265 -22 -560 -48 -296 -27 -540 -46 -543 -43 -8
8 31 812 50 1033 21 252 34 506 47 925 18 569 18 576 -13 637 l-27 50 87 8
c47 4 329 9 626 11 297 2 546 3 553 4 7 0 24 11 37 24 l24 24 789 -397 c433
-218 801 -407 817 -419 42 -33 75 -28 120 18 46 47 51 87 15 125 -52 56 -211
167 -290 203 -47 22 -132 62 -190 89 -58 28 -225 107 -372 176 -310 147 -686
334 -890 443 -971 521 -1403 750 -1453 768 -44 17 -68 21 -89 15 -22 -6 -38
-3 -62 11 -35 22 -35 22 -83 9z m347 -323 c283 -154 310 -169 674 -368 164
-89 296 -163 294 -165 -2 -2 -93 1 -202 6 l-199 9 -820 -78 c-451 -42 -821
-77 -822 -76 -4 3 831 796 839 796 5 0 111 -56 236 -124z"/>
<path d="M3604 5691 c-48 -26 -1711 -1857 -1725 -1898 -14 -42 5 -76 56 -100
66 -32 82 -20 315 232 118 127 237 255 265 285 29 30 263 282 520 560 258 278
471 507 474 510 21 18 220 240 234 260 19 27 22 72 7 100 -11 20 -63 54 -95
63 -11 3 -34 -2 -51 -12z"/>
<path d="M7265 3679 c-49 -44 -46 -67 26 -179 118 -183 239 -338 446 -571 71
-80 161 -188 199 -240 146 -196 324 -393 566 -627 132 -128 138 -132 180 -132
72 0 144 62 121 105 -5 8 -336 388 -737 845 -485 554 -734 830 -746 830 -11 0
-35 -14 -55 -31z"/>
<path d="M3675 3617 c-32 -10 -46 -32 -1177 -1806 -392 -614 -438 -690 -438
-727 0 -58 54 -104 122 -104 44 0 76 33 155 160 70 111 709 1104 1139 1767
164 255 309 482 322 505 29 53 25 105 -11 151 -36 47 -75 66 -112 54z"/>
</g>
</svg>
