<?xml version="1.0" standalone="no"?>
<!DOCTYPE svg PUBLIC "-//W3C//DTD SVG 20010904//EN"
 "http://www.w3.org/TR/2001/REC-SVG-20010904/DTD/svg10.dtd">
<svg version="1.0" xmlns="http://www.w3.org/2000/svg"
 width="1024.000000pt" height="1024.000000pt" viewBox="0 0 1024.000000 1024.000000"
 preserveAspectRatio="xMidYMid meet">
<metadata>
Created by potrace 1.10, written by Peter Selinger 2001-2011
</metadata>
<g transform="translate(0.000000,1024.000000) scale(0.100000,-0.100000)"
fill="#000000" stroke="none">
<path d="M4826 8104 l-29 -25 29 -72 c15 -40 27 -79 27 -88 -3 -32 -116 -405
-135 -442 -73 -146 -542 -968 -592 -1037 -171 -238 -389 -492 -658 -766 -160
-162 -204 -214 -184 -214 2 0 91 51 197 113 171 99 216 132 374 266 99 84 185
155 192 158 6 2 51 -22 100 -54 48 -33 124 -73 169 -89 l80 -31 159 39 c178
43 160 47 209 -43 50 -90 56 -140 56 -441 l0 -278 -22 -5 c-73 -17 -651 -105
-743 -113 -78 -7 -166 -6 -300 3 -104 6 -192 10 -194 8 -5 -4 11 -71 28 -114
16 -44 187 -156 292 -191 l89 -30 103 26 c98 25 719 156 738 156 5 0 9 -354 9
-907 l0 -908 -465 -183 -464 -183 -143 60 c-79 33 -149 61 -157 63 -8 2 -19
-13 -28 -41 -14 -39 -14 -49 2 -110 17 -61 25 -73 99 -146 45 -45 117 -112
161 -151 72 -62 89 -72 164 -93 l84 -24 36 41 c40 45 318 230 642 426 580 351
1199 768 1404 946 87 75 128 140 89 140 -8 0 -246 -125 -527 -279 -282 -153
-527 -286 -544 -295 l-33 -17 0 859 0 858 428 33 c235 18 454 37 487 42 67 10
101 36 111 85 5 29 0 38 -57 98 -60 63 -69 68 -149 91 -114 33 -162 31 -315
-11 -72 -20 -202 -46 -290 -59 -88 -14 -172 -27 -187 -29 l-28 -5 0 357 -1
357 -66 45 c-37 25 -60 46 -52 47 7 1 180 16 382 33 400 33 410 35 425 94 10
34 3 46 -69 123 -31 34 -55 47 -123 69 l-84 27 -538 -87 c-510 -82 -547 -86
-691 -86 -84 0 -153 2 -153 6 0 3 67 79 149 169 251 274 459 571 710 1015 46
80 87 149 92 155 6 6 63 -44 155 -135 114 -114 195 -208 374 -440 125 -162
243 -313 262 -334 89 -105 203 -76 241 61 27 93 22 177 -12 248 -87 182 -349
387 -768 603 -101 51 -183 96 -183 99 0 3 26 35 59 72 61 69 101 136 101 170
0 67 -372 321 -470 320 -14 0 -38 -11 -54 -25z"/>
<path d="M5699 4774 c-16 -15 -16 -21 2 -81 51 -179 35 -251 -127 -577 -96
-191 -133 -254 -215 -363 -54 -73 -99 -135 -99 -138 0 -13 43 -3 102 25 46 20
108 65 207 151 113 98 171 158 290 303 152 185 251 326 251 355 0 34 -59 109
-146 187 -147 131 -230 174 -265 138z"/>
<path d="M3692 4238 c-7 -7 -12 -16 -12 -20 0 -5 60 -91 134 -192 119 -162
149 -211 255 -422 98 -196 129 -248 172 -292 40 -41 56 -51 73 -46 74 21 117
108 119 243 1 74 -2 94 -25 143 -14 31 -37 72 -50 91 -40 59 -433 387 -540
450 -104 62 -108 63 -126 45z"/>
</g>
</svg>
