<?xml version="1.0" standalone="no"?>
<!DOCTYPE svg PUBLIC "-//W3C//DTD SVG 20010904//EN"
 "http://www.w3.org/TR/2001/REC-SVG-20010904/DTD/svg10.dtd">
<svg version="1.0" xmlns="http://www.w3.org/2000/svg"
 width="1024.000000pt" height="1024.000000pt" viewBox="0 0 1024.000000 1024.000000"
 preserveAspectRatio="xMidYMid meet">
<metadata>
Created by potrace 1.10, written by Peter Selinger 2001-2011
</metadata>
<g transform="translate(0.000000,1024.000000) scale(0.100000,-0.100000)"
fill="#000000" stroke="none">
<path d="M3486 9171 c-3 -4 -18 -11 -33 -15 -21 -5 -203 -203 -718 -785 -379
-428 -697 -778 -705 -778 -9 1 -237 -113 -508 -252 -355 -181 -526 -263 -610
-292 -140 -48 -347 -147 -457 -219 -117 -77 -257 -192 -363 -298 l-93 -93 3
-92 3 -92 37 -3 c32 -3 44 3 92 48 150 135 422 331 589 424 60 34 907 390 912
384 1 -2 -159 -182 -356 -401 -380 -422 -380 -421 -364 -503 7 -42 45 -84 74
-84 20 0 80 48 333 267 133 115 147 131 488 563 326 413 396 495 972 1133 341
378 622 686 625 684 2 -3 -23 -65 -56 -138 -78 -176 -134 -340 -166 -491 -62
-288 -64 -294 -385 -922 -202 -395 -341 -655 -436 -811 l-140 -230 -374 -433
c-206 -239 -388 -452 -405 -473 -75 -101 -19 -298 74 -259 49 20 143 128 535
613 378 467 388 482 499 675 62 108 130 238 152 287 98 225 231 463 392 700
122 178 186 321 238 525 14 55 94 293 179 529 85 236 159 454 166 485 6 31 13
56 15 56 3 0 510 -202 1127 -449 618 -246 1168 -462 1223 -479 497 -153 989
-180 1481 -82 55 10 236 42 404 69 l305 50 365 7 365 6 128 -47 c147 -54 422
-187 553 -267 49 -30 154 -91 234 -135 136 -75 151 -82 233 -92 121 -16 127
-13 127 58 0 48 -5 64 -30 98 -16 22 -45 52 -62 65 -53 39 -1116 555 -1190
577 -94 28 -230 45 -313 38 -38 -3 -322 -51 -630 -106 -861 -153 -844 -151
-1115 -151 -280 0 -500 35 -748 116 -116 39 -2378 947 -2477 995 -46 22 -74
29 -122 29 -34 0 -64 -4 -67 -9z"/>
<path d="M4353 7710 c-29 -12 -63 -67 -63 -103 0 -15 6 -40 14 -55 32 -61 255
-263 453 -410 110 -83 239 -184 285 -224 74 -64 131 -98 473 -280 l390 -207
392 -91 c215 -49 402 -90 415 -90 64 0 310 57 541 125 142 41 260 75 263 75 2
0 45 38 94 84 115 107 162 138 351 229 141 68 163 82 247 161 62 58 99 86 115
86 41 0 91 21 125 53 l32 31 258 -26 c141 -15 273 -25 292 -23 220 24 337 28
459 15 151 -15 172 -9 191 59 16 59 -2 98 -48 105 -68 10 -1024 95 -1344 119
l-318 24 -82 -33 c-105 -42 -258 -80 -373 -94 -389 -44 -516 -63 -618 -92
-138 -38 -162 -50 -183 -90 -31 -60 0 -158 50 -158 12 0 309 49 661 109 352
60 641 108 643 106 2 -1 -32 -22 -75 -45 -97 -51 -277 -172 -360 -239 -129
-105 -190 -131 -568 -245 l-350 -105 -70 9 c-38 5 -191 36 -339 70 l-269 60
-366 197 c-487 261 -585 324 -744 473 -130 121 -512 430 -532 429 -11 0 -30
-4 -42 -9z"/>
<path d="M4218 6403 c-31 -19 -53 -64 -45 -90 3 -10 18 -52 33 -93 27 -72 28
-82 29 -272 0 -219 0 -220 77 -259 81 -41 103 -19 129 128 55 309 32 437 -101
556 -56 50 -79 56 -122 30z"/>
<path d="M3460 6207 c-22 -8 -40 -23 -49 -42 -14 -28 -11 -35 87 -230 56 -110
104 -217 107 -237 9 -57 52 -88 124 -88 99 0 120 47 85 189 -37 149 -123 283
-242 376 -62 49 -62 49 -112 32z"/>
<path d="M4986 6105 c-25 -20 -46 -44 -46 -53 0 -9 -9 -122 -20 -250 -20 -232
-20 -234 -1 -277 23 -53 70 -85 123 -85 28 0 40 5 49 23 13 24 89 413 89 457
0 59 -31 131 -75 176 -25 24 -51 44 -58 44 -8 0 -35 -16 -61 -35z"/>
<path d="M6206 5938 c-28 -29 -61 -73 -72 -98 -12 -25 -47 -150 -79 -277 -54
-214 -57 -236 -46 -273 8 -27 23 -48 49 -65 41 -28 58 -30 113 -14 38 12 39
13 73 118 20 58 43 142 51 185 9 44 34 123 56 177 43 106 49 161 23 214 -17
37 -73 85 -99 85 -9 0 -40 -24 -69 -52z"/>
<path d="M7428 5913 c-32 -5 -69 -52 -91 -115 -8 -25 -33 -70 -54 -100 -148
-201 -212 -391 -158 -463 32 -43 69 -61 102 -49 23 8 42 38 113 180 47 93 107
201 134 239 88 125 96 137 106 173 7 27 6 43 -6 67 -15 31 -79 76 -105 74 -8
-1 -26 -4 -41 -6z"/>
<path d="M8719 5529 c-202 -113 -439 -260 -624 -388 -77 -53 -178 -119 -224
-146 -125 -75 -161 -146 -114 -227 19 -32 68 -54 102 -45 31 8 976 600 1056
661 120 92 150 150 103 193 -25 22 -79 43 -113 43 -11 0 -95 -41 -186 -91z"/>
<path d="M2341 5226 c-47 -18 -81 -60 -81 -99 0 -59 40 -87 122 -87 139 0 314
-41 473 -111 80 -34 97 -38 140 -33 59 8 91 33 107 85 22 77 -35 125 -227 188
-49 16 -126 37 -170 46 -106 22 -318 29 -364 11z"/>
<path d="M6696 4799 c-36 -10 -66 -37 -66 -60 0 -39 -56 -131 -123 -201 -139
-147 -324 -384 -368 -470 -23 -44 -24 -86 -4 -112 8 -11 15 -28 15 -37 0 -37
194 -131 348 -168 43 -10 89 -24 100 -30 37 -20 96 -13 121 13 12 13 89 148
170 300 145 271 148 278 139 318 -14 65 -55 143 -103 196 -25 28 -45 56 -45
63 0 40 -26 96 -61 134 -46 50 -81 65 -123 54z m78 -383 l50 -93 -93 -169
c-51 -93 -98 -190 -104 -217 -7 -26 -15 -46 -18 -45 -3 2 -68 25 -143 53 -86
32 -135 54 -132 62 3 6 78 112 167 235 150 207 200 268 217 268 4 0 29 -42 56
-94z"/>
<path d="M4303 4307 c-90 -111 -196 -242 -237 -291 -90 -106 -206 -278 -271
-401 -27 -49 -64 -106 -83 -127 -19 -20 -31 -41 -28 -47 4 -6 49 -203 101
-438 109 -498 112 -506 205 -547 l60 -26 873 274 c480 151 894 285 920 297 26
13 47 29 47 37 0 7 -25 169 -55 359 -53 329 -84 638 -69 685 11 35 -7 55 -94
101 -107 56 -218 98 -337 126 -49 11 -260 62 -468 111 -207 50 -383 90 -390
89 -6 0 -85 -91 -174 -202z m197 -29 c19 -10 249 -63 510 -119 261 -56 477
-104 479 -106 11 -8 161 -766 161 -814 l0 -55 -657 -236 c-592 -212 -666 -236
-738 -241 -44 -4 -101 -13 -128 -21 -46 -14 -47 -13 -52 7 -3 12 -43 210 -90
440 l-85 418 277 375 c152 206 279 373 282 371 3 -1 22 -10 41 -19z"/>
<path d="M4844 3967 c-135 -204 -237 -364 -258 -404 l-24 -49 27 2 c15 1 37
-7 51 -18 l23 -19 -22 -45 c-12 -25 -57 -90 -101 -143 -44 -54 -80 -105 -80
-114 0 -9 -4 -19 -10 -22 -16 -10 -12 -75 4 -75 30 0 141 49 144 63 2 9 -1 25
-7 35 -10 19 -6 20 72 27 87 7 145 29 245 92 29 18 57 33 63 33 5 0 40 15 77
34 37 18 91 42 120 52 63 22 61 9 28 247 -14 95 -28 197 -31 228 l-7 57 -57 7
c-48 6 -151 25 -216 40 -14 3 -26 -5 -41 -28z m10 -369 c28 -25 81 -23 108 4
l21 21 25 -29 c21 -24 23 -30 9 -32 -15 -3 -57 -76 -57 -100 0 -6 12 -19 26
-29 l26 -17 -26 -19 c-14 -10 -26 -27 -26 -37 0 -11 -10 -19 -26 -23 -20 -4
-34 2 -55 24 -16 16 -38 29 -50 29 -16 0 -19 3 -12 13 6 6 13 23 16 37 5 22 0
29 -33 50 -44 27 -49 43 -23 80 38 54 44 57 77 28z"/>
<path d="M4506 3442 l-35 -57 41 -3 c29 -2 43 1 54 15 20 27 18 76 -5 90 -18
11 -23 7 -55 -45z"/>
<path d="M4375 3185 c-14 -31 -34 -74 -45 -95 l-19 -38 59 15 59 15 -26 24
c-14 13 -31 24 -37 24 -6 0 -4 5 4 10 8 5 12 10 7 10 -4 0 2 18 13 41 12 23
19 43 16 47 -3 3 -17 -21 -31 -53z"/>
<path d="M2155 4234 c-16 -2 -93 -11 -170 -19 -120 -13 -146 -20 -184 -43 -82
-51 -104 -134 -43 -166 15 -7 77 -21 137 -30 103 -15 129 -15 402 2 282 17
293 19 318 42 28 27 32 58 10 99 -16 32 -102 71 -209 96 -67 16 -212 26 -261
19z"/>
<path d="M8600 4106 c-476 -78 -646 -109 -677 -124 -107 -55 -155 -193 -78
-222 52 -20 171 -11 298 21 291 73 720 155 1022 194 155 20 188 34 217 94 36
74 -2 121 -107 134 -25 4 -274 -33 -675 -97z"/>
<path d="M9145 3721 c-16 -4 -40 -13 -52 -19 -12 -7 -419 -113 -904 -237 -820
-209 -886 -227 -913 -254 -64 -65 -47 -219 25 -221 16 0 1747 446 1861 480
121 36 177 139 111 202 -25 22 -87 60 -95 57 -2 -1 -16 -4 -33 -8z"/>
<path d="M2670 3279 c-206 -61 -397 -120 -424 -132 -55 -24 -86 -65 -86 -112
0 -54 12 -75 50 -95 l37 -19 384 110 c210 61 403 121 428 134 83 42 130 110
108 155 -13 26 -58 56 -97 64 -15 3 -174 -39 -400 -105z"/>
<path d="M1345 3096 c-11 -7 -162 -34 -345 -60 -179 -26 -346 -54 -371 -62
-65 -21 -104 -64 -103 -114 2 -53 27 -90 62 -90 15 0 194 16 397 36 415 41
436 46 489 122 42 60 38 97 -15 145 -44 40 -80 47 -114 23z"/>
<path d="M6515 2893 c-26 -6 -75 -52 -86 -80 -13 -35 9 -80 55 -112 58 -40
132 -76 196 -96 62 -19 762 -105 857 -105 58 0 65 2 97 35 57 57 59 134 4 168
-17 11 -618 118 -1083 192 -11 2 -29 1 -40 -2z"/>
<path d="M3178 2761 c-22 -5 -145 -151 -558 -661 -383 -473 -568 -693 -664
-790 -74 -74 -139 -145 -145 -158 -15 -29 -6 -59 27 -95 27 -28 52 -33 125
-20 36 5 74 48 693 779 360 425 661 789 669 808 17 41 10 70 -26 102 -19 17
-88 49 -93 43 -1 -1 -13 -4 -28 -8z"/>
<path d="M6163 2260 c-45 -10 -61 -26 -74 -70 -10 -33 -9 -41 7 -64 24 -32 11
-28 248 -71 109 -20 242 -50 295 -66 171 -54 174 -54 217 -33 51 25 77 71 68
119 -6 32 -13 39 -76 71 -93 47 -224 90 -332 109 -92 16 -296 19 -353 5z"/>
<path d="M5657 2003 c-33 -5 -77 -65 -77 -106 0 -52 29 -84 190 -217 l161
-132 84 7 c71 6 86 10 98 28 46 70 26 112 -96 205 -124 93 -313 222 -324 221
-4 -1 -20 -4 -36 -6z"/>
<path d="M3854 1920 c-36 -14 -60 -69 -99 -230 -21 -85 -47 -174 -58 -198 -16
-38 -17 -50 -7 -91 21 -87 113 -148 157 -104 21 21 152 385 161 446 7 56 -22
123 -71 158 -43 31 -50 33 -83 19z"/>
<path d="M4790 1802 l-43 -38 169 -334 c188 -371 215 -410 282 -410 54 0 89
17 100 49 7 21 -5 62 -67 227 -42 111 -93 230 -114 265 -67 114 -225 279 -266
279 -10 0 -38 -17 -61 -38z"/>
</g>
</svg>
