<?xml version="1.0" standalone="no"?>
<!DOCTYPE svg PUBLIC "-//W3C//DTD SVG 20010904//EN"
 "http://www.w3.org/TR/2001/REC-SVG-20010904/DTD/svg10.dtd">
<svg version="1.0" xmlns="http://www.w3.org/2000/svg"
 width="1024.000000pt" height="1024.000000pt" viewBox="0 0 1024.000000 1024.000000"
 preserveAspectRatio="xMidYMid meet">
<metadata>
Created by potrace 1.10, written by Peter Selinger 2001-2011
</metadata>
<g transform="translate(0.000000,1024.000000) scale(0.100000,-0.100000)"
fill="#000000" stroke="none">
<path d="M3540 9250 c0 -5 -11 -10 -24 -10 -18 0 -169 -164 -722 -785 -384
-432 -705 -785 -713 -785 -8 0 -237 -114 -510 -254 -358 -184 -529 -266 -616
-296 -211 -73 -429 -190 -610 -329 -75 -57 -278 -253 -316 -305 -37 -50 -38
-94 -3 -135 20 -24 34 -31 61 -31 29 0 48 11 107 63 159 142 473 363 616 435
118 59 881 370 868 353 -15 -19 -611 -681 -657 -730 -51 -54 -64 -87 -59 -148
6 -67 38 -107 80 -99 17 3 115 81 244 191 l215 185 355 447 c322 406 414 513
982 1144 345 383 628 695 630 694 2 -1 -25 -65 -59 -141 -79 -178 -140 -365
-174 -529 -47 -227 -75 -303 -178 -480 -115 -197 -246 -439 -299 -554 -22 -47
-80 -171 -128 -276 -55 -121 -135 -269 -218 -407 l-131 -218 -393 -456 c-216
-250 -401 -470 -410 -487 -24 -45 -23 -130 3 -184 33 -69 77 -69 154 -2 21 18
223 263 449 544 390 484 417 519 516 690 126 219 106 180 189 362 90 198 196
387 336 597 159 241 221 371 266 566 11 47 92 285 179 530 87 245 163 469 170
498 7 28 14 52 16 52 2 0 509 -202 1126 -449 1266 -506 1287 -514 1578 -570
331 -65 761 -67 1080 -6 41 8 235 41 430 74 l355 59 355 7 355 7 90 -32 c195
-70 447 -191 635 -306 212 -129 338 -193 402 -204 35 -5 66 -10 71 -10 4 0 7
51 7 113 l0 112 -34 22 c-18 11 -86 46 -152 76 -65 30 -310 149 -544 263 -293
145 -448 215 -500 229 -49 12 -121 20 -210 23 -135 3 -137 3 -690 -97 -921
-165 -932 -167 -1199 -158 -259 9 -465 45 -701 124 -141 47 -2426 966 -2481
998 -36 20 -58 25 -116 25 -42 0 -73 -4 -73 -10z"/>
<path d="M4438 7793 c-37 -6 -88 -66 -88 -104 0 -54 28 -94 148 -211 128 -125
267 -239 419 -344 54 -37 138 -101 186 -142 73 -62 141 -103 405 -244 503
-269 421 -237 863 -339 213 -49 398 -89 411 -89 96 0 762 174 825 215 13 9 52
44 86 79 86 86 158 133 339 220 138 66 162 82 246 160 58 53 102 86 115 86 46
0 99 22 131 54 l33 34 214 -25 c219 -24 248 -25 619 -7 81 4 154 2 208 -7 73
-11 87 -10 117 4 44 21 63 79 42 129 l-14 33 -524 48 c-288 26 -669 59 -847
73 l-323 26 -107 -40 c-134 -50 -255 -78 -397 -92 -265 -27 -477 -60 -596 -95
-155 -44 -174 -60 -174 -145 1 -78 22 -104 80 -97 33 4 1164 195 1260 213 21
4 9 -7 -45 -38 -129 -76 -242 -150 -336 -224 -166 -130 -197 -144 -580 -259
-272 -82 -361 -105 -406 -105 -37 0 -172 25 -351 66 l-292 65 -330 176 c-511
274 -591 323 -760 472 -103 92 -544 461 -547 460 -2 -1 -15 -4 -30 -6z"/>
<path d="M4263 6455 c-41 -41 -41 -49 3 -165 28 -73 29 -81 29 -265 1 -210 3
-219 63 -260 47 -32 85 -32 110 -1 22 29 62 281 62 394 0 122 -50 226 -142
300 -53 42 -81 41 -125 -3z"/>
<path d="M3528 6283 c-38 -6 -71 -50 -64 -85 3 -16 48 -109 101 -209 52 -99
95 -191 95 -205 0 -33 25 -81 49 -94 11 -5 47 -10 80 -10 103 0 122 48 81 198
-41 147 -130 283 -241 367 -34 25 -64 44 -67 44 -4 -1 -19 -4 -34 -6z"/>
<path d="M5088 6202 c-25 -11 -88 -71 -88 -85 0 -6 -7 -123 -17 -258 -17 -243
-17 -246 3 -279 36 -61 115 -94 154 -62 19 16 28 47 61 213 56 287 52 349 -31
432 -48 48 -53 50 -82 39z"/>
<path d="M6304 6031 c-43 -32 -97 -102 -115 -147 -22 -60 -119 -463 -119 -497
0 -26 9 -46 30 -71 42 -47 74 -56 132 -39 l47 13 35 113 c19 61 44 151 55 198
10 47 33 118 50 157 57 130 52 202 -20 266 -21 20 -43 36 -47 36 -4 0 -26 -13
-48 -29z"/>
<path d="M7501 5983 c-33 -6 -67 -49 -87 -108 -9 -27 -38 -79 -64 -115 -60
-81 -121 -193 -155 -285 -34 -88 -28 -141 18 -190 73 -77 101 -56 205 158 45
91 109 202 146 255 80 110 100 153 92 197 -7 35 -24 54 -73 79 -32 16 -39 17
-82 9z"/>
<path d="M8820 5609 c-183 -102 -412 -241 -555 -338 -175 -119 -288 -193 -354
-233 -77 -47 -104 -87 -98 -147 6 -57 34 -94 81 -103 36 -8 52 1 524 294 516
320 643 406 680 461 27 40 28 78 4 100 -20 18 -95 47 -121 47 -9 0 -81 -37
-161 -81z"/>
<path d="M2420 5302 c0 -7 -9 -12 -21 -12 -77 0 -119 -122 -56 -163 12 -8 60
-17 107 -21 195 -16 349 -55 480 -121 38 -19 76 -32 90 -29 95 13 99 15 119
48 42 67 20 130 -59 171 -64 33 -222 85 -319 105 -122 25 -341 39 -341 22z"/>
<path d="M6733 4851 c-23 -14 -33 -28 -33 -45 0 -43 -59 -137 -140 -223 -152
-160 -350 -423 -369 -489 -7 -23 -3 -43 14 -84 19 -45 31 -58 76 -84 84 -49
172 -85 267 -110 48 -13 100 -28 115 -34 47 -20 101 -15 125 11 12 12 89 147
171 300 l151 278 -10 45 c-14 61 -51 132 -103 196 -25 31 -47 73 -55 102 -31
118 -133 185 -209 137z m111 -374 l49 -93 -82 -147 c-99 -178 -120 -224 -121
-259 0 -16 -1 -28 -2 -28 -22 2 -289 110 -287 116 4 24 366 504 379 504 9 0
35 -39 64 -93z"/>
<path d="M4355 4359 c-99 -121 -208 -255 -243 -297 -83 -101 -199 -274 -258
-387 -26 -49 -63 -106 -82 -127 -32 -34 -33 -38 -23 -70 5 -18 49 -211 96
-428 55 -255 95 -415 112 -452 24 -52 31 -59 85 -82 33 -14 65 -26 71 -26 7 0
404 123 882 274 777 245 965 307 965 321 0 2 -24 154 -54 337 -52 316 -74 513
-79 693 l-2 79 -74 42 c-152 86 -178 94 -786 240 -220 52 -407 97 -415 99 -10
3 -76 -70 -195 -216z m191 -14 c12 -8 244 -62 516 -121 l495 -107 77 -372 c61
-294 76 -386 74 -440 l-3 -67 -650 -234 c-584 -210 -658 -235 -730 -240 -44
-3 -102 -13 -129 -21 -32 -10 -50 -12 -55 -5 -3 6 -46 204 -95 441 l-88 430
278 376 c153 206 281 375 284 375 3 0 15 -7 26 -15z"/>
<path d="M4918 4043 c-26 -30 -245 -368 -269 -414 -23 -45 -24 -53 -11 -55 53
-7 90 -18 88 -28 -5 -27 -57 -115 -93 -156 -63 -73 -113 -142 -108 -150 3 -4
-2 -13 -10 -20 -8 -7 -15 -28 -15 -46 0 -41 11 -43 98 -12 62 23 63 23 60 58
l-3 34 90 12 c86 12 140 32 208 78 15 10 27 23 27 28 0 20 -72 80 -91 75 -17
-5 -18 -3 -4 24 8 15 15 37 15 48 0 21 -43 61 -66 61 -26 0 -22 18 11 53 38
40 56 45 75 22 17 -21 72 -19 101 4 24 18 24 18 54 -10 21 -21 25 -29 14 -29
-21 0 -43 -27 -58 -70 -11 -32 -10 -36 14 -56 l26 -20 -22 -20 c-12 -10 -25
-29 -30 -42 -5 -13 -13 -21 -17 -18 -5 3 -9 -1 -9 -8 0 -14 91 18 152 53 17
10 56 26 88 37 57 18 58 20 53 49 -12 65 -56 420 -56 451 0 32 0 32 -62 39
-35 4 -100 16 -146 26 -99 23 -86 23 -104 2z"/>
<path d="M4571 3506 c-17 -29 -31 -59 -31 -65 0 -6 15 -11 34 -11 25 0 39 7
50 22 22 32 20 80 -3 95 -18 11 -23 7 -50 -41z"/>
<path d="M4436 3241 c-15 -28 -24 -51 -21 -51 3 0 -6 -18 -20 -40 -27 -43 -32
-58 -12 -42 6 5 32 16 57 23 27 7 38 14 28 16 -10 3 -18 10 -18 18 0 7 -7 16
-16 19 -14 5 -12 12 10 53 15 25 24 48 22 51 -3 2 -16 -19 -30 -47z"/>
<path d="M2095 4285 c-49 -7 -108 -14 -131 -14 -56 -1 -139 -45 -169 -89 -56
-82 -23 -115 137 -142 114 -20 117 -20 414 0 l299 19 28 31 c33 37 33 48 5 90
-28 40 -107 74 -233 101 -103 21 -217 23 -350 4z"/>
<path d="M8875 4199 c-231 -38 -516 -84 -633 -104 -117 -19 -225 -41 -240 -49
-44 -23 -102 -87 -114 -128 -39 -129 76 -140 475 -44 278 66 543 116 811 152
229 32 258 42 286 99 25 52 25 66 0 97 -20 26 -86 49 -137 47 -15 -1 -217 -32
-448 -70z"/>
<path d="M9225 3781 c-16 -4 -40 -13 -52 -19 -12 -7 -412 -111 -890 -232 -477
-121 -883 -226 -901 -235 -48 -22 -72 -68 -72 -141 0 -68 22 -104 64 -104 33
0 1884 478 1917 495 15 8 41 31 58 52 41 50 42 99 4 135 -25 22 -87 60 -95 57
-2 -1 -16 -4 -33 -8z"/>
<path d="M2717 3335 c-213 -62 -400 -118 -416 -125 -16 -6 -42 -25 -57 -41
-24 -26 -29 -39 -29 -83 0 -68 24 -106 67 -106 43 0 793 218 837 243 68 39
111 91 111 135 0 24 -35 57 -82 77 -21 8 -39 15 -40 14 -2 0 -178 -51 -391
-114z"/>
<path d="M1398 3155 c-15 -8 -179 -37 -366 -64 -187 -27 -355 -56 -374 -64
-19 -8 -47 -29 -62 -48 -24 -28 -27 -39 -23 -77 3 -25 13 -53 24 -63 18 -19
26 -19 417 21 372 37 401 41 442 65 79 46 115 130 79 182 -18 25 -76 63 -96
63 -8 -1 -26 -7 -41 -15z"/>
<path d="M6589 2952 c-40 -5 -91 -63 -92 -106 -1 -50 38 -87 148 -142 114 -56
152 -63 615 -115 367 -41 376 -42 412 -25 47 23 78 71 78 123 0 74 -3 75 -400
143 -195 33 -440 75 -545 92 -104 18 -202 32 -216 30z"/>
<path d="M3233 2815 c-26 -8 -139 -143 -553 -655 -399 -493 -555 -679 -665
-790 -79 -80 -149 -157 -154 -172 -13 -34 -2 -64 33 -97 23 -22 31 -23 91 -18
57 6 68 10 94 39 160 184 1278 1510 1292 1533 35 55 22 113 -31 140 -53 28
-74 32 -107 20z"/>
<path d="M6231 2315 c-72 -26 -101 -95 -61 -143 16 -20 49 -29 231 -62 211
-40 327 -68 394 -96 19 -7 55 -14 81 -14 41 0 51 5 85 39 87 87 27 153 -211
231 -163 53 -432 77 -519 45z"/>
<path d="M5711 2047 c-59 -30 -83 -108 -48 -160 13 -20 198 -180 320 -276 13
-10 37 -12 102 -6 81 6 86 8 100 35 22 42 19 91 -8 121 -49 57 -392 299 -424
299 -10 0 -29 -6 -42 -13z"/>
<path d="M3891 1953 c-26 -24 -36 -50 -71 -188 -23 -88 -50 -184 -61 -214 -31
-84 -10 -158 57 -202 38 -25 66 -24 91 4 23 26 151 386 159 449 7 55 -26 123
-75 155 -44 30 -64 29 -100 -4z"/>
<path d="M4848 1852 l-41 -39 174 -337 c191 -369 216 -406 281 -406 50 0 96
24 103 53 9 35 -136 415 -193 507 -25 42 -87 116 -138 168 -108 108 -123 112
-186 54z"/>
</g>
</svg>
