<?xml version="1.0" standalone="no"?>
<!DOCTYPE svg PUBLIC "-//W3C//DTD SVG 20010904//EN"
 "http://www.w3.org/TR/2001/REC-SVG-20010904/DTD/svg10.dtd">
<svg version="1.0" xmlns="http://www.w3.org/2000/svg"
 width="1024.000000pt" height="1024.000000pt" viewBox="0 0 1024.000000 1024.000000"
 preserveAspectRatio="xMidYMid meet">
<metadata>
Created by potrace 1.10, written by Peter Selinger 2001-2011
</metadata>
<g transform="translate(0.000000,1024.000000) scale(0.100000,-0.100000)"
fill="#000000" stroke="none">
<path d="M4950 8883 c-21 -10 -360 -340 -824 -802 -609 -607 -829 -833 -968
-995 -99 -115 -209 -234 -244 -265 -53 -46 -94 -104 -244 -335 -99 -153 -183
-289 -186 -302 -13 -52 65 -112 127 -99 55 12 258 237 336 373 15 26 55 79 88
117 34 39 70 92 81 119 16 40 102 136 492 547 285 301 472 492 472 481 0 -33
33 -52 91 -52 30 0 264 19 521 42 257 23 470 40 472 37 2 -2 -4 -135 -15 -294
-10 -160 -39 -756 -64 -1325 -25 -569 -49 -1037 -53 -1041 -4 -3 -183 -29
-399 -57 -430 -56 -457 -63 -487 -126 -32 -67 -16 -110 53 -141 l41 -18 396
62 c218 34 397 61 399 59 4 -4 25 -2281 25 -2705 l0 -333 -22 -5 c-13 -3 -547
-45 -1188 -95 -641 -49 -1179 -92 -1197 -95 -41 -7 -89 -47 -97 -81 -5 -20 1
-35 28 -69 l35 -42 118 -6 c93 -4 358 12 1238 78 l1120 82 640 -7 c352 -5
1025 -9 1496 -9 844 -1 857 -1 882 19 33 26 51 79 38 113 -29 76 -70 80 -1111
83 -481 1 -1074 5 -1317 9 -423 7 -442 8 -433 26 13 24 13 29 -3 29 -11 0 -15
260 -21 1511 -4 831 -5 1514 -2 1516 2 2 255 26 562 53 308 26 560 49 561 49
1 1 18 15 37 31 104 92 36 208 -111 189 -107 -14 -1043 -93 -1047 -88 -5 5 41
921 49 984 15 113 37 523 45 865 5 212 14 435 20 495 11 127 1 207 -34 271
l-23 41 96 8 c53 4 339 9 636 11 297 2 544 3 548 3 4 1 19 12 32 25 l24 24
793 -400 c436 -220 802 -409 813 -419 11 -9 32 -21 48 -24 23 -6 34 -1 72 38
75 74 64 102 -85 214 -91 69 -147 99 -420 229 -458 216 -1442 717 -2075 1056
-302 162 -578 305 -613 318 -52 19 -67 21 -88 11 -21 -9 -30 -8 -54 9 -34 24
-54 25 -100 3z m743 -523 c328 -178 594 -326 593 -327 -2 -2 -92 1 -202 6
l-199 9 -825 -79 c-453 -43 -825 -77 -825 -76 -1 1 185 181 414 400 257 245
422 396 433 395 9 -2 284 -149 611 -328z"/>
<path d="M3534 5933 c-42 -21 -1704 -1843 -1727 -1894 -15 -34 -16 -43 -5 -67
17 -36 78 -66 118 -57 25 5 202 191 858 899 455 490 844 911 864 934 63 70 63
126 0 166 -51 33 -72 37 -108 19z"/>
<path d="M7250 3943 c-30 -11 -80 -67 -80 -90 0 -44 208 -343 372 -534 40 -47
119 -137 174 -200 56 -63 135 -159 176 -214 127 -171 225 -282 452 -513 252
-256 262 -262 343 -220 57 29 78 61 60 93 -16 28 -1468 1685 -1476 1684 -3 0
-13 -3 -21 -6z"/>
<path d="M3606 3851 c-26 -5 -68 -67 -378 -551 -1015 -1587 -1243 -1947 -1246
-1972 -2 -15 -1 -39 2 -53 8 -32 72 -75 113 -75 39 0 92 43 126 103 13 23 349
547 748 1164 398 618 737 1147 752 1175 33 62 31 102 -6 151 -33 43 -75 65
-111 58z"/>
</g>
</svg>
