<?xml version="1.0" standalone="no"?>
<!DOCTYPE svg PUBLIC "-//W3C//DTD SVG 20010904//EN"
 "http://www.w3.org/TR/2001/REC-SVG-20010904/DTD/svg10.dtd">
<svg version="1.0" xmlns="http://www.w3.org/2000/svg"
 width="1024.000000pt" height="1024.000000pt" viewBox="0 0 1024.000000 1024.000000"
 preserveAspectRatio="xMidYMid meet">
<metadata>
Created by potrace 1.10, written by Peter Selinger 2001-2011
</metadata>
<g transform="translate(0.000000,1024.000000) scale(0.100000,-0.100000)"
fill="#000000" stroke="none">
<path d="M1232 5963 c-12 -2 -34 -20 -48 -39 -24 -32 -26 -40 -22 -107 4 -54
13 -90 36 -137 17 -36 32 -78 35 -95 2 -16 54 -190 114 -385 61 -195 211 -679
334 -1075 122 -396 231 -731 240 -745 10 -14 27 -63 39 -110 34 -136 50 -178
77 -200 26 -20 27 -20 2242 -20 1826 1 2279 -2 2576 -15 198 -8 376 -15 395
-15 32 0 40 7 90 73 124 162 1134 1314 1305 1487 645 656 933 957 957 998 15
26 28 58 28 72 0 64 -100 145 -154 125 -44 -17 -2241 -2414 -2292 -2501 -10
-16 -13 -17 -28 -5 -14 12 -16 11 -16 -4 0 -17 -23 -17 -422 -11 -1249 20
-1887 26 -3104 26 -1201 0 -1345 2 -1387 16 -50 17 -49 14 -66 117 -6 31 -175
569 -376 1194 -201 625 -365 1148 -365 1162 0 76 -53 161 -117 187 -18 8 -36
13 -40 13 -4 -1 -18 -4 -31 -6z"/>
<path d="M6845 5424 c3 -12 12 -41 20 -65 11 -34 14 -37 10 -13 -2 18 -11 47
-19 65 -9 19 -13 25 -11 13z"/>
</g>
</svg>
