<?xml version="1.0" standalone="no"?>
<!DOCTYPE svg PUBLIC "-//W3C//DTD SVG 20010904//EN"
 "http://www.w3.org/TR/2001/REC-SVG-20010904/DTD/svg10.dtd">
<svg version="1.0" xmlns="http://www.w3.org/2000/svg"
 width="1024.000000pt" height="1024.000000pt" viewBox="0 0 1024.000000 1024.000000"
 preserveAspectRatio="xMidYMid meet">
<metadata>
Created by potrace 1.10, written by Peter Selinger 2001-2011
</metadata>
<g transform="translate(0.000000,1024.000000) scale(0.100000,-0.100000)"
fill="#000000" stroke="none">
<path d="M582 6200 c-49 -11 -102 -66 -102 -105 0 -17 34 -119 76 -226 42
-107 100 -261 129 -344 167 -477 223 -632 234 -653 15 -28 237 -612 288 -757
74 -212 158 -389 283 -599 77 -130 78 -131 147 -168 65 -35 74 -37 134 -32 51
4 1120 62 2304 124 608 32 1855 41 2430 18 165 -7 452 -12 637 -11 389 2 378
-1 461 95 29 33 128 119 221 191 167 129 176 139 601 602 357 389 500 555 831
960 220 270 410 505 423 523 13 18 25 51 28 73 5 34 2 44 -21 68 -15 16 -47
34 -70 41 -91 25 -52 66 -606 -637 -278 -353 -556 -700 -617 -771 -216 -247
-594 -600 -838 -781 -33 -25 -88 -71 -122 -104 l-61 -60 -669 23 c-367 12
-760 26 -873 30 -291 12 -1043 12 -1320 0 -198 -9 -581 -34 -847 -55 -61 -5
-1669 -80 -1867 -87 l-78 -3 -63 110 c-55 95 -124 270 -496 1255 -237 630
-436 1164 -441 1186 -9 43 -48 88 -83 97 -11 2 -35 1 -53 -3z"/>
</g>
</svg>
