<?xml version="1.0" standalone="no"?>
<!DOCTYPE svg PUBLIC "-//W3C//DTD SVG 20010904//EN"
 "http://www.w3.org/TR/2001/REC-SVG-20010904/DTD/svg10.dtd">
<svg version="1.0" xmlns="http://www.w3.org/2000/svg"
 width="1024.000000pt" height="1024.000000pt" viewBox="0 0 1024.000000 1024.000000"
 preserveAspectRatio="xMidYMid meet">
<metadata>
Created by potrace 1.10, written by Peter Selinger 2001-2011
</metadata>
<g transform="translate(0.000000,1024.000000) scale(0.100000,-0.100000)"
fill="#000000" stroke="none">
<path d="M8108 7342 c-54 -22 -88 -41 -88 -50 0 -8 15 -29 33 -46 32 -31 145
-167 162 -196 5 -8 14 -46 21 -85 11 -61 2 -311 -67 -1930 -44 -1023 -82
-1875 -85 -1892 -5 -31 -7 -33 -47 -33 -23 0 -1369 -81 -2992 -180 -1943 -118
-2953 -175 -2960 -169 -11 11 -10 164 5 929 17 824 40 1518 60 1800 20 271 40
606 40 662 0 55 -2 59 -50 107 -107 107 -346 258 -453 287 -45 12 -63 12 -142
-2 -49 -9 -96 -19 -102 -23 -16 -8 38 -91 113 -174 60 -67 110 -162 124 -237
14 -72 13 -2563 0 -2736 -16 -207 -45 -348 -116 -569 -77 -244 -80 -216 37
-446 108 -214 156 -261 246 -244 29 5 56 26 128 100 100 102 167 143 276 170
45 10 407 35 1199 80 624 36 1529 87 2010 115 1426 82 2084 119 2275 130 99 5
206 12 237 15 l57 5 -6 -115 c-7 -135 4 -186 53 -243 79 -92 196 -97 303 -12
49 38 96 145 116 265 8 50 46 535 84 1080 166 2350 231 3292 231 3360 0 70 -1
74 -32 101 -18 15 -69 44 -113 65 -85 40 -420 150 -452 148 -10 0 -57 -17
-105 -37z"/>
</g>
</svg>
