<?xml version="1.0" standalone="no"?>
<!DOCTYPE svg PUBLIC "-//W3C//DTD SVG 20010904//EN"
 "http://www.w3.org/TR/2001/REC-SVG-20010904/DTD/svg10.dtd">
<svg version="1.0" xmlns="http://www.w3.org/2000/svg"
 width="1024.000000pt" height="1024.000000pt" viewBox="0 0 1024.000000 1024.000000"
 preserveAspectRatio="xMidYMid meet">
<metadata>
Created by potrace 1.10, written by Peter Selinger 2001-2011
</metadata>
<g transform="translate(0.000000,1024.000000) scale(0.100000,-0.100000)"
fill="#000000" stroke="none">
<path d="M4939 9482 c-208 -96 -400 -223 -624 -411 -371 -313 -883 -949 -1190
-1479 -62 -107 -71 -171 -31 -219 31 -37 77 -58 108 -49 16 4 96 113 258 348
358 522 531 744 821 1057 201 218 376 354 580 454 119 57 248 103 258 91 4 -5
24 -274 45 -599 20 -324 47 -737 58 -918 12 -180 19 -329 17 -332 -3 -2 -55 9
-117 25 -195 51 -349 136 -485 269 -86 83 -187 225 -187 262 0 13 -11 47 -24
74 -17 38 -27 90 -41 215 -19 178 -36 237 -79 265 -29 19 -54 14 -107 -22 -46
-31 -59 -76 -58 -205 0 -103 29 -227 92 -402 71 -193 136 -272 379 -456 214
-162 344 -222 558 -257 l99 -16 7 -54 c5 -41 3 -58 -7 -68 -8 -8 -430 -349
-939 -760 l-925 -746 -23 -62 c-28 -73 -22 -119 19 -149 23 -17 29 -18 57 -6
25 11 483 373 1792 1419 l45 37 0 -594 c0 -587 0 -595 -20 -599 -11 -3 -96
-17 -190 -30 -381 -57 -640 -137 -955 -295 -258 -129 -541 -315 -725 -475 -47
-41 -65 -51 -77 -44 -29 16 -161 -107 -259 -241 -44 -59 -97 -174 -146 -313
-26 -73 -54 -143 -64 -157 -9 -14 -76 -254 -147 -535 -128 -501 -131 -514
-152 -720 -11 -115 -36 -361 -55 -545 -43 -409 -53 -733 -36 -1055 17 -293 25
-363 53 -421 43 -91 128 -121 182 -65 40 42 47 123 25 278 -33 229 -42 394
-36 686 7 321 2 281 135 1197 80 550 104 693 121 725 11 22 21 50 21 64 0 13
8 38 19 55 10 17 28 72 41 121 12 50 32 106 43 125 25 40 53 115 69 180 6 25
19 56 29 69 11 13 19 35 19 49 0 33 31 66 243 259 226 206 299 265 457 369
261 172 420 242 817 364 219 67 339 98 442 114 94 15 141 19 141 12 0 -6 -6
-32 -13 -58 -13 -53 -8 -330 15 -728 8 -140 13 -468 13 -870 0 -599 2 -653 20
-755 25 -135 26 -326 3 -400 l-15 -50 -585 -71 c-614 -75 -644 -81 -681 -134
-13 -18 -15 -9 -25 92 -7 62 -15 148 -18 191 l-7 77 -114 0 -114 0 5 -52 c4
-29 20 -244 36 -478 17 -234 37 -470 46 -525 51 -316 235 -644 467 -830 296
-238 711 -331 1064 -236 89 24 426 202 505 266 205 169 434 531 523 828 64
215 136 822 147 1242 l3 100 -83 3 c-56 2 -92 8 -109 19 -14 9 -28 12 -33 7
-4 -5 -12 -100 -16 -211 -4 -139 -10 -203 -18 -203 -6 0 -174 -14 -373 -31
-200 -18 -365 -30 -367 -28 -3 3 1 23 9 46 27 79 29 164 6 321 -19 131 -24
261 -46 1172 -14 564 -27 1064 -29 1113 -4 66 -2 87 8 87 10 0 11 12 3 56 -5
30 -6 58 -3 62 4 3 201 -14 439 -37 l432 -43 87 -44 c48 -24 96 -44 106 -44
11 0 27 -9 37 -20 10 -11 33 -22 51 -26 19 -3 34 -10 34 -14 0 -11 115 -70
138 -70 10 0 32 -10 47 -22 33 -27 99 -66 170 -103 84 -42 227 -221 302 -376
81 -167 151 -407 182 -629 13 -88 38 -469 72 -1090 l53 -955 -38 -420 c-21
-231 -45 -460 -52 -510 -8 -49 -14 -142 -14 -205 -1 -112 -1 -116 -30 -154
-41 -54 -43 -125 -4 -155 45 -36 159 -23 202 22 37 40 77 284 114 697 30 342
32 393 32 810 1 282 -4 494 -12 580 -6 74 -19 315 -27 535 -19 500 -37 706
-84 968 -25 138 -162 562 -213 662 -87 169 -233 337 -362 420 -32 21 -181 98
-330 171 -199 99 -314 149 -436 190 l-165 55 -360 26 c-198 14 -361 26 -362
27 -1 1 -20 1080 -19 1082 1 1 48 -34 106 -77 165 -125 379 -276 575 -406 239
-159 1288 -830 1344 -860 84 -44 153 -23 185 57 24 61 14 79 -72 135 -202 129
-928 606 -1387 909 -473 313 -738 505 -766 557 -5 10 -9 52 -9 93 l0 75 43 11
c134 35 193 61 325 142 209 128 341 262 602 613 l208 280 113 260 c101 232
113 266 113 320 1 68 -24 119 -75 156 -24 17 -36 19 -66 12 -35 -8 -36 -10
-64 -103 -58 -199 -156 -418 -268 -603 -28 -47 -51 -91 -51 -99 0 -8 -128
-151 -284 -319 -264 -283 -291 -308 -366 -351 -76 -43 -245 -107 -255 -97 -2
3 -22 435 -44 960 -30 703 -44 967 -55 1002 -30 101 -102 157 -211 163 -56 4
-69 0 -206 -64z m1361 -7128 c0 -4 -18 -144 -40 -313 l-41 -306 -80 -190 -81
-190 -157 -190 c-104 -126 -178 -206 -219 -236 -127 -96 -299 -167 -453 -190
-236 -34 -556 37 -693 155 -76 65 -216 223 -291 327 -53 74 -62 93 -101 232
-39 135 -46 181 -69 404 -14 139 -25 260 -25 270 0 16 11 18 93 21 50 1 547
49 1102 106 1103 113 1055 109 1055 100z"/>
<path d="M5435 1649 c-82 -5 -190 -16 -239 -24 -103 -17 -386 -20 -486 -5
-148 23 -164 24 -207 2 -30 -16 -47 -34 -64 -68 -20 -43 -21 -50 -8 -73 27
-49 70 -61 214 -61 180 0 1165 29 1191 35 54 12 103 101 83 151 -20 55 -115
63 -484 43z"/>
<path d="M6000 4729 c-49 -11 -63 -34 -56 -93 10 -90 92 -186 186 -217 19 -7
206 -146 415 -310 364 -287 382 -299 423 -299 49 0 94 20 116 52 38 53 15 86
-162 239 -220 189 -500 397 -722 536 -162 101 -161 101 -200 92z"/>
<path d="M4279 4329 c-255 -187 -474 -352 -487 -367 -39 -47 -45 -90 -19 -142
39 -80 23 -88 534 271 252 177 471 334 486 348 38 34 57 72 57 112 0 25 -10
42 -45 76 -25 24 -49 43 -54 43 -4 0 -217 -153 -472 -341z"/>
<path d="M4785 3836 c-385 -246 -766 -522 -840 -608 -55 -65 -57 -180 -4 -209
56 -30 139 20 614 369 426 313 495 371 495 420 0 35 -35 87 -75 112 l-30 19
-160 -103z"/>
<path d="M5953 3793 c-12 -2 -32 -20 -44 -39 -29 -48 -20 -112 22 -154 25 -25
108 -60 142 -60 5 0 20 -9 34 -20 14 -11 34 -20 44 -20 10 0 65 -34 121 -76
105 -78 164 -109 278 -149 136 -47 221 -99 339 -209 107 -101 158 -115 239
-66 24 15 32 27 32 47 0 63 -122 220 -218 282 -26 16 -112 60 -192 96 -80 37
-174 88 -210 114 -130 95 -305 186 -452 235 -75 25 -91 28 -135 19z"/>
</g>
</svg>
