<?xml version="1.0" standalone="no"?>
<!DOCTYPE svg PUBLIC "-//W3C//DTD SVG 20010904//EN"
 "http://www.w3.org/TR/2001/REC-SVG-20010904/DTD/svg10.dtd">
<svg version="1.0" xmlns="http://www.w3.org/2000/svg"
 width="1024.000000pt" height="1024.000000pt" viewBox="0 0 1024.000000 1024.000000"
 preserveAspectRatio="xMidYMid meet">
<metadata>
Created by potrace 1.10, written by Peter Selinger 2001-2011
</metadata>
<g transform="translate(0.000000,1024.000000) scale(0.100000,-0.100000)"
fill="#000000" stroke="none">
<path d="M5794 9400 c-29 -19 -31 -25 -37 -98 -5 -60 -16 -101 -51 -185 -24
-59 -50 -115 -56 -122 -7 -8 -34 -112 -60 -231 -35 -159 -54 -222 -69 -238
-36 -39 -149 -400 -245 -785 -36 -144 -70 -271 -77 -282 -6 -12 -33 -137 -60
-278 -34 -178 -47 -233 -44 -181 25 363 28 1434 5 1495 -23 61 -73 97 -158
116 -127 27 -590 -88 -877 -218 -66 -30 -127 -57 -136 -60 -12 -3 -34 39 -98
189 -45 106 -103 225 -127 265 -82 132 -220 252 -358 310 -60 25 -103 15 -151
-34 -51 -52 -60 -103 -46 -246 18 -186 43 -288 143 -582 l91 -269 -54 -45
c-211 -177 -559 -571 -559 -633 0 -19 -25 -25 -35 -8 -3 6 -19 17 -35 25 -27
14 -34 13 -109 -16 -98 -37 -116 -60 -108 -131 7 -58 35 -111 61 -116 10 -2
33 11 53 30 l35 33 -42 -86 c-29 -57 -52 -90 -71 -101 -27 -16 -28 -16 -55 19
-36 48 -103 77 -162 70 -87 -10 -128 -73 -80 -124 31 -34 117 -83 146 -83 26
0 26 0 7 -36 -22 -42 -19 -62 14 -95 34 -34 32 -37 -52 -103 l-47 -38 -34 21
c-18 12 -53 24 -78 27 -38 5 -48 3 -77 -22 -30 -25 -33 -32 -28 -67 9 -65 43
-91 128 -97 62 -4 72 -8 86 -31 14 -24 14 -29 -8 -76 l-23 -50 -40 18 c-55 25
-82 23 -141 -9 -48 -27 -50 -29 -49 -70 1 -33 7 -50 28 -70 23 -24 34 -27 91
-27 36 0 65 -1 65 -3 0 -2 -5 -12 -10 -23 -9 -16 -18 -18 -49 -13 -34 6 -43 2
-80 -31 -86 -78 -73 -181 24 -199 l33 -7 -24 -42 c-32 -57 -31 -101 2 -132 19
-18 22 -25 12 -25 -23 0 -60 -93 -56 -142 4 -49 34 -77 95 -85 40 -5 40 -5 61
45 30 70 29 107 -7 143 -17 17 -24 29 -16 29 7 0 25 15 39 32 l25 33 61 -34
c34 -18 63 -31 64 -30 2 2 22 41 45 87 31 62 39 87 32 100 -7 12 -5 22 4 32 7
8 25 44 38 80 15 41 30 64 38 63 8 -2 38 -8 67 -15 48 -11 57 -10 90 7 41 23
104 100 100 122 -2 8 -22 29 -45 46 -40 28 -45 30 -80 19 -20 -6 -39 -10 -41
-8 -1 2 15 39 37 82 23 44 41 89 41 102 0 52 -67 140 -120 157 -24 8 -25 15
-5 62 13 32 17 34 28 20 6 -9 35 -25 62 -35 40 -16 51 -25 53 -46 7 -53 104
-95 142 -61 19 17 100 151 100 166 0 17 -88 79 -103 73 -17 -6 -66 24 -67 42
0 6 9 19 20 29 11 10 20 28 20 41 0 22 1 22 28 8 40 -20 95 -18 126 7 40 31
68 92 57 122 -11 28 -47 57 -71 57 -11 0 -15 11 -15 38 -1 20 -4 44 -8 52 -5
11 9 26 48 53 30 21 55 41 55 46 0 4 -20 27 -45 51 -25 25 -43 50 -41 57 7 17
468 534 472 530 2 -2 24 -58 49 -125 l44 -122 -34 -58 c-68 -116 -91 -189
-151 -467 -25 -115 -47 -220 -51 -232 -3 -15 -13 -23 -27 -23 -34 0 -85 -37
-103 -74 -26 -55 -9 -96 47 -117 36 -13 45 -21 45 -40 0 -22 -5 -25 -62 -31
-101 -11 -148 -44 -135 -93 13 -46 75 -90 128 -90 39 0 44 -3 44 -22 0 -16
-13 -30 -47 -49 -130 -75 -274 -180 -392 -287 -263 -238 -1045 -1114 -1271
-1425 -70 -97 -123 -207 -128 -269 -6 -66 2 -94 34 -132 36 -43 70 -41 127 7
25 20 166 138 314 262 452 379 1005 804 1011 777 2 -8 36 -38 75 -65 40 -27
80 -59 90 -70 18 -20 18 -20 -20 -15 -42 5 -119 -25 -129 -51 -14 -36 47 -118
101 -136 39 -13 71 -73 62 -119 -5 -21 0 -37 14 -55 l21 -26 -30 -11 c-95 -33
-34 -169 76 -169 45 0 107 75 96 117 -3 12 -1 24 5 27 6 4 11 -1 11 -11 0 -11
16 -34 35 -53 19 -18 40 -48 45 -66 14 -42 60 -81 106 -90 26 -5 33 -10 30
-23 -3 -9 -8 -29 -12 -46 -10 -43 -12 -45 -38 -34 -18 9 -31 7 -56 -6 -25 -13
-32 -14 -28 -4 3 8 13 38 23 68 l18 54 -39 33 c-22 18 -44 33 -50 34 -20 0
-104 -71 -121 -103 -9 -18 -17 -54 -17 -80 -1 -41 3 -52 27 -72 15 -13 42 -27
60 -30 32 -6 32 -7 29 -56 -6 -82 44 -129 137 -129 32 0 40 -4 45 -23 12 -49
116 -77 148 -39 17 19 38 76 38 103 0 10 -20 34 -44 54 -44 36 -45 36 -72 19
-25 -17 -27 -17 -40 1 -16 22 -18 44 -5 64 8 12 19 11 76 -3 37 -9 69 -16 70
-14 2 2 12 18 23 37 20 33 20 34 1 78 -26 62 -25 66 21 58 37 -6 41 -5 60 27
27 45 26 58 -17 139 l-36 69 26 28 c15 16 27 33 27 39 0 5 -13 28 -29 51 -22
29 -44 46 -82 60 -47 17 -50 20 -30 27 38 12 99 74 112 112 11 35 10 37 -22
65 -19 15 -44 31 -56 34 -28 8 -145 -48 -171 -81 -11 -14 -23 -25 -26 -25 -3
0 -6 30 -6 66 l0 66 35 -6 c29 -6 36 -3 50 18 13 20 22 23 53 19 30 -4 44 1
74 24 21 15 37 32 38 37 0 10 -64 100 -98 138 l-25 28 25 19 c36 28 73 118 60
145 -7 16 -4 32 14 67 23 46 23 46 3 78 -10 17 -30 37 -44 43 l-25 11 30 19
c58 35 52 41 273 -269 137 -192 165 -239 217 -357 168 -384 401 -799 540 -963
76 -88 102 -103 154 -85 78 26 76 27 76 -15 1 -25 9 -48 25 -67 31 -38 107
-47 186 -21 46 15 72 36 169 133 179 179 871 809 1157 1052 246 210 271 228
528 388 149 93 291 176 316 184 43 15 94 14 635 -7 l589 -23 136 -35 c75 -20
180 -52 232 -71 118 -45 179 -47 238 -11 74 48 76 103 5 170 -60 57 -783 445
-893 479 -214 66 -337 78 -993 92 l-325 6 -220 -57 c-121 -31 -236 -66 -255
-78 -19 -11 -96 -77 -170 -147 -74 -69 -142 -130 -150 -135 -8 -5 55 69 141
165 85 96 257 290 382 431 247 280 318 347 477 452 l105 69 140 -6 c77 -3 435
-15 796 -27 l656 -22 46 27 c49 29 70 67 56 103 -17 46 -210 148 -385 204 -55
18 -145 48 -202 68 l-104 36 6 37 c7 42 -6 83 -37 116 l-22 23 85 80 85 79
-40 35 c-22 19 -45 35 -52 35 -6 0 -48 -14 -92 -31 l-80 -32 -39 32 c-22 17
-47 31 -56 31 -8 0 -20 9 -26 20 -9 17 -8 20 8 20 11 0 25 -7 33 -16 21 -26
66 -44 109 -44 47 0 95 39 129 104 18 35 19 41 5 67 -19 37 -43 49 -97 49 -51
0 -88 -24 -114 -73 l-17 -32 -13 64 c-7 35 -12 66 -10 67 2 2 19 -2 39 -8 20
-6 47 -8 61 -4 30 7 74 60 87 105 8 29 5 33 -39 69 -48 37 -48 38 -27 54 12 8
34 38 49 66 30 56 31 55 -38 107 -38 30 -50 27 -145 -34 -35 -23 -67 -38 -70
-34 -9 10 -34 103 -29 107 2 2 36 -1 74 -5 70 -9 70 -9 98 21 36 40 34 69 -5
107 -47 44 -91 63 -161 71 l-62 7 -17 50 c-24 73 -24 74 19 64 21 -4 39 -12
41 -18 14 -42 98 -100 144 -101 22 0 85 55 103 91 14 27 14 29 -32 68 -38 32
-52 39 -75 34 -30 -6 -35 5 -18 37 8 15 3 25 -32 54 -23 20 -46 36 -51 36 -5
0 -42 -20 -82 -44 l-74 -45 -10 32 c-14 39 -4 47 65 47 48 0 53 2 79 40 25 36
26 42 15 70 -28 68 -113 95 -193 61 -53 -23 -71 -26 -63 -12 9 15 -13 63 -42
94 -60 64 -95 73 -362 91 -317 23 -295 29 -541 -166 l-179 -143 -192 -290
c-143 -215 -199 -309 -219 -365 -15 -41 -38 -95 -52 -120 -14 -25 -30 -63 -37
-85 -7 -22 -30 -60 -50 -85 -21 -25 -56 -89 -78 -145 -22 -55 -79 -187 -126
-292 -47 -106 -89 -205 -92 -220 -8 -32 -113 -245 -124 -253 -4 -3 -15 -21
-24 -40 -21 -44 -29 -73 113 406 67 225 142 468 167 539 99 284 145 525 164
860 6 105 15 255 20 334 l9 145 -55 68 c-30 37 -60 68 -67 68 -7 0 -26 -9 -43
-20z m1443 -388 c-18 -20 -22 -59 -9 -79 6 -10 91 -33 121 -33 3 0 -13 -10
-37 -21 -122 -61 -160 -225 -66 -287 31 -20 34 -26 34 -72 0 -50 1 -51 53 -84
44 -28 54 -40 64 -79 13 -46 43 -77 91 -92 34 -10 69 18 83 67 7 24 22 56 33
72 l19 29 54 -198 c30 -108 52 -199 50 -201 -2 -3 -11 -2 -19 1 -19 8 -38 70
-38 126 0 53 -18 81 -61 99 -31 13 -33 13 -75 -32 -53 -56 -64 -109 -40 -190
12 -40 24 -59 49 -75 18 -13 40 -23 49 -23 12 0 17 -14 20 -55 5 -65 28 -101
82 -130 36 -19 37 -21 31 -63 -12 -84 37 -156 116 -168 29 -5 39 -11 39 -25 0
-12 23 -33 65 -60 81 -51 89 -78 12 -45 -88 39 -263 95 -391 126 -209 50 -330
63 -566 64 l-215 1 -79 -33 c-104 -43 -202 -109 -282 -189 -133 -135 -409
-593 -604 -1003 -61 -129 -230 -423 -295 -515 -184 -260 -360 -568 -459 -804
-26 -60 -133 -238 -176 -291 l-20 -25 11 30 c195 530 375 1039 394 1116 37
146 88 309 139 447 78 208 575 1344 613 1401 13 19 23 40 23 48 0 8 13 34 30
58 29 43 100 189 100 207 0 5 13 29 30 52 16 24 46 89 67 144 38 100 41 104
287 407 245 301 250 307 320 343 75 39 124 47 290 50 76 2 78 1 63 -16z m280
-241 c35 -101 60 -181 56 -178 -3 4 -26 -9 -50 -29 l-44 -36 -42 47 c-75 85
-74 81 -28 161 23 39 41 78 41 86 0 9 -17 28 -37 44 -21 15 -40 29 -42 31 -9
7 54 63 69 61 10 -2 36 -64 77 -187z m-4027 -146 c51 -88 100 -171 109 -185
14 -24 14 -24 -16 3 -27 25 -33 27 -57 16 -19 -9 -26 -20 -27 -43 0 -25 -62
183 -103 349 -10 39 -13 44 94 -140z m2255 -67 c-8 -58 -11 -67 -202 -705 -92
-310 -169 -558 -171 -553 -6 16 47 289 78 405 47 174 78 264 114 329 22 40 59
148 107 314 40 138 74 252 76 252 2 0 1 -19 -2 -42z m-840 -700 c-3 -315 -8
-665 -12 -778 l-6 -205 -17 120 c-44 310 -161 764 -228 889 -58 107 -163 182
-286 205 -97 18 -126 14 -215 -29 -46 -22 -85 -39 -87 -37 -14 14 -64 141 -57
147 25 23 372 142 539 184 78 20 327 71 366 75 4 1 5 -257 3 -571z m-1196 395
l19 -38 -80 -53 c-44 -30 -82 -51 -85 -49 -2 3 -13 38 -23 77 l-19 72 23 -21
c12 -11 40 -27 63 -35 38 -13 43 -13 57 3 9 10 18 32 19 50 1 17 3 31 4 31 2
0 11 -17 22 -37z m4269 -143 c26 0 25 -1 -13 -24 -44 -27 -50 -25 -60 17 -7
26 -6 27 20 17 14 -5 38 -10 53 -10z m-4141 -133 l31 -72 -79 -79 c-48 -48
-83 -76 -89 -70 -5 5 -24 46 -43 91 l-35 82 87 60 c47 34 88 61 91 61 3 0 19
-33 37 -73z m609 -196 c20 -47 51 -111 69 -141 56 -92 124 -334 160 -567 15
-98 30 -363 39 -698 l5 -180 -20 50 c-10 28 -140 398 -287 822 l-269 773 56
15 c31 9 76 22 101 29 38 11 50 11 77 -2 26 -12 39 -31 69 -101z m-251 -711
c156 -416 255 -695 286 -809 27 -96 48 -176 46 -177 -1 -1 -93 194 -203 434
-147 319 -206 458 -218 514 -19 83 -65 170 -123 230 -32 33 -38 35 -64 26 -16
-5 -29 -15 -29 -21 0 -30 -27 28 -99 210 l-21 53 87 95 c48 52 90 92 94 87 4
-4 114 -293 244 -642z m3082 265 c133 -18 288 -53 401 -91 76 -26 282 -112
292 -121 5 -6 -281 2 -633 18 -201 8 -221 7 -266 -10 -89 -34 -440 -347 -644
-576 -113 -127 -326 -354 -430 -460 l-89 -90 148 291 149 291 80 6 80 6 198
200 c108 110 197 205 197 210 0 5 -14 19 -31 32 -22 15 -36 19 -49 13 -11 -5
-99 -79 -197 -164 -97 -85 -187 -163 -200 -173 l-22 -18 24 56 c77 174 136
264 243 377 79 83 133 126 228 183 l58 35 172 0 c97 0 225 -7 291 -15z m-3637
-102 c0 -13 13 -44 29 -70 19 -31 32 -69 37 -108 4 -40 24 -97 61 -174 30 -64
61 -145 70 -181 9 -36 29 -94 44 -129 16 -35 29 -65 29 -67 0 -2 -15 -4 -32
-4 -18 0 -74 -13 -125 -29 l-91 -29 -33 35 c-40 40 -117 67 -155 53 -24 -9
-25 -9 -19 23 3 17 14 106 26 197 28 229 53 331 112 463 30 67 46 74 47 20z
m1705 -34 c-21 -62 -24 -67 -20 -32 5 40 34 117 42 109 2 -2 -8 -36 -22 -77z
m-28 -101 c-3 -8 -6 -5 -6 6 -1 11 2 17 5 13 3 -3 4 -12 1 -19z m-2530 -214
c28 -5 29 -8 19 -30 -6 -13 -16 -24 -23 -24 -22 0 -63 23 -63 35 0 25 16 29
67 19z m1328 -234 c32 -69 69 -149 82 -179 l24 -54 -23 15 c-16 10 -40 58 -75
149 -29 74 -60 152 -69 174 -31 78 4 18 61 -105z m-1431 22 c2 -4 -9 -15 -25
-24 -32 -19 -34 -17 -19 13 11 19 35 26 44 11z m770 -303 c-10 -16 -24 -9 -24
12 0 18 2 19 15 9 8 -7 12 -16 9 -21z m-934 -83 c0 -7 -8 -20 -19 -30 -18 -16
-18 -15 -7 18 10 33 26 40 26 12z m1482 -57 c21 -9 59 -114 286 -791 144 -430
261 -782 259 -784 -1 -2 -137 236 -302 528 -313 553 -341 595 -435 651 -25 14
-72 33 -104 41 -33 9 -69 25 -81 36 -26 24 -65 25 -151 4 -36 -9 -67 -14 -71
-11 -3 3 -3 17 1 31 6 23 11 25 77 28 l71 3 25 42 24 42 -37 41 c-20 22 -35
42 -33 44 2 2 69 26 149 54 124 44 156 51 222 51 42 1 88 -4 100 -10z m-1507
-130 c72 -19 72 -19 46 -40 -23 -19 -23 -19 -51 1 -15 11 -35 20 -44 20 -9 0
-16 7 -16 15 0 18 11 18 65 4z m2056 -84 c8 -28 8 -29 -6 -11 -8 11 -15 31
-14 45 1 26 3 23 20 -34z m3259 -46 c104 -10 253 -52 320 -89 l35 -19 -30 0
c-16 0 -200 6 -408 13 -215 8 -393 10 -415 5 -105 -23 -353 -143 -511 -246
-194 -126 -588 -441 -816 -652 -140 -129 -764 -691 -790 -711 -10 -8 26 41 81
110 227 282 561 609 926 908 53 43 78 71 83 91 5 25 24 40 109 90 133 79 157
120 90 161 -34 22 -36 22 -80 5 -89 -34 -140 -69 -227 -157 -48 -49 -117 -114
-155 -146 -37 -31 -112 -95 -167 -142 -56 -48 -90 -72 -78 -55 75 104 380 435
574 623 l96 93 224 64 224 63 406 1 c224 1 453 -4 509 -10z m-5590 -99 c0 -5
-4 -10 -10 -10 -5 0 -10 5 -10 10 0 6 5 10 10 10 6 0 10 -4 10 -10z m138 -18
c2 -6 -8 -17 -23 -24 -21 -10 -29 -9 -43 5 -15 16 -15 17 11 17 15 0 27 5 27
11 0 14 22 7 28 -9z m659 -36 c-11 -29 14 -85 54 -119 l40 -34 -26 -17 c-13
-9 -35 -36 -47 -61 -20 -38 -84 -90 -488 -396 -583 -442 -548 -416 -479 -343
31 32 199 214 375 404 257 279 554 579 573 580 2 0 1 -6 -2 -14z m203 -76 c0
-62 -3 -66 -47 -54 l-22 6 27 54 c14 30 30 54 34 54 4 0 8 -27 8 -60z m265
-178 c-52 -45 -95 -72 -95 -60 0 8 21 27 48 41 48 27 63 33 47 19z m-255 -254
l0 -112 -33 32 c-37 36 -48 38 -81 17 -21 -14 -28 -14 -65 1 -63 25 -49 44 33
44 57 0 131 50 122 83 -4 18 8 47 20 47 2 0 4 -50 4 -112z m195 82 c3 -5 -1
-20 -10 -33 -21 -32 -5 -69 38 -89 l30 -14 -36 -22 c-21 -12 -38 -27 -38 -34
-3 -23 -17 96 -18 150 -1 39 3 52 13 52 8 0 18 -4 21 -10z m2004 -322 c-56
-69 -64 -77 -51 -53 12 23 81 105 89 105 3 0 -14 -24 -38 -52z m-2189 -70 l-1
-83 -29 35 c-17 19 -30 38 -30 42 0 7 52 87 58 88 1 0 2 -37 2 -82z m0 -210
c0 -38 -1 -41 -16 -27 -12 13 -13 20 -3 42 7 15 14 27 16 27 1 0 3 -19 3 -42z
m244 -124 c9 -3 16 -16 16 -28 0 -12 16 -37 35 -56 23 -23 33 -40 30 -54 -2
-12 -9 -47 -15 -78 -7 -37 -16 -58 -25 -58 -12 0 -12 5 0 33 13 31 12 35 -31
105 -30 49 -44 84 -44 107 0 35 5 40 34 29z m1561 -524 c-3 -5 -16 -15 -28
-21 -19 -9 -19 -8 3 10 28 23 34 26 25 11z"/>
<path d="M3829 6039 l-21 -41 30 -32 c93 -97 253 -378 268 -469 7 -42 29 -61
82 -71 29 -5 34 -2 43 21 11 31 0 99 -36 202 -46 135 -113 240 -226 354 -90
91 -109 95 -140 36z"/>
<path d="M2153 6772 c-35 -22 -43 -33 -43 -57 0 -44 21 -78 60 -97 70 -35 129
-16 157 50 13 32 13 37 -4 60 -51 68 -110 84 -170 44z"/>
<path d="M5030 3579 c-47 -4 -121 -7 -165 -8 -83 -1 -211 -30 -252 -57 -13 -8
-23 -23 -23 -33 0 -9 -12 -24 -26 -31 -26 -15 -103 -125 -166 -240 -93 -169
-172 -410 -203 -618 -15 -101 -55 -224 -104 -327 -11 -22 -32 -76 -46 -120
-28 -86 -91 -197 -210 -369 -41 -60 -75 -117 -75 -126 0 -20 -76 -142 -154
-246 -78 -105 -197 -236 -280 -308 -58 -52 -66 -56 -91 -46 -23 9 -35 6 -71
-15 -40 -24 -44 -29 -44 -65 l0 -39 83 -32 c237 -92 687 -225 943 -278 73 -15
89 -21 90 -37 1 -10 2 -27 3 -36 1 -22 51 -48 90 -48 47 0 173 121 404 385
140 161 231 275 300 380 110 165 213 370 229 455 5 30 23 80 39 112 21 41 29
72 29 108 0 38 25 122 101 343 56 161 112 325 125 366 13 41 34 86 48 100 31
33 109 165 127 215 11 32 52 72 214 209 216 184 229 201 183 244 -26 24 -130
61 -274 97 -260 64 -562 88 -824 65z m265 -219 c264 -11 484 -20 488 -20 4 0
-26 -39 -68 -87 -110 -127 -195 -258 -279 -434 -134 -281 -235 -559 -305 -848
-23 -91 -66 -226 -104 -324 -65 -167 -66 -168 -164 -285 -55 -64 -192 -228
-307 -365 -114 -136 -208 -247 -210 -247 -2 0 -30 13 -62 30 -33 16 -91 36
-129 44 -68 15 -531 126 -609 147 l-39 10 35 37 c75 79 293 369 357 475 38 62
98 160 134 219 175 283 288 573 367 937 44 206 85 314 205 534 l107 197 51 0
c29 0 268 -9 532 -20z"/>
<path d="M5024 3275 c-53 -56 -70 -144 -36 -185 14 -18 25 -21 44 -17 23 6 27
14 33 59 4 29 14 74 23 99 28 82 -6 105 -64 44z"/>
<path d="M5417 3202 l-68 -68 25 -23 25 -23 35 22 c62 38 102 114 76 145 -7 8
-15 15 -19 15 -4 0 -37 -31 -74 -68z"/>
<path d="M4700 3155 l-64 -65 20 -21 c20 -20 23 -20 52 -5 56 29 103 103 88
141 -10 27 -30 16 -96 -50z"/>
<path d="M5196 2733 c-41 -52 -44 -60 -32 -78 16 -24 55 -31 78 -13 23 17 42
116 27 134 -18 22 -24 18 -73 -43z"/>
<path d="M4816 2669 c-50 -81 -56 -97 -56 -145 0 -46 4 -56 24 -69 35 -23 66
-5 66 38 0 18 9 57 19 87 39 116 46 160 31 170 -8 6 -18 10 -22 10 -3 0 -31
-41 -62 -91z"/>
<path d="M4469 2629 c-16 -22 -23 -47 -23 -78 -1 -41 2 -46 27 -55 42 -15 56
6 59 89 3 65 1 70 -18 73 -15 2 -29 -7 -45 -29z"/>
<path d="M5052 2424 c-17 -20 -35 -54 -40 -75 -9 -35 -8 -41 10 -50 41 -22 65
-4 89 68 21 64 21 67 3 80 -25 19 -29 17 -62 -23z"/>
<path d="M4613 2220 c-48 -53 -56 -92 -22 -110 43 -23 64 -6 86 69 14 49 17
73 10 80 -18 18 -30 11 -74 -39z"/>
<path d="M4910 2082 c-30 -24 -46 -150 -22 -169 22 -18 46 -16 65 5 22 24 27
159 7 172 -21 13 -25 13 -50 -8z"/>
<path d="M4298 2017 c-7 -8 -26 -42 -42 -76 l-30 -62 21 -20 c35 -36 57 -18
82 64 26 87 26 84 2 97 -14 7 -23 6 -33 -3z"/>
<path d="M4387 1702 l-57 -66 22 -23 c21 -23 22 -23 52 -5 64 37 99 129 58
151 -15 8 -28 -1 -75 -57z"/>
<path d="M4770 1730 c-8 -10 -32 -39 -54 -64 -38 -45 -38 -47 -21 -66 27 -29
49 -25 88 19 39 44 55 94 37 116 -16 20 -32 18 -50 -5z"/>
<path d="M4090 1601 c-69 -37 -98 -117 -53 -148 20 -13 25 -11 82 43 61 57 74
87 49 112 -17 17 -38 15 -78 -7z"/>
<path d="M4236 1418 l-34 -73 21 -18 c30 -26 57 -3 81 70 21 67 17 93 -14 93
-16 0 -28 -17 -54 -72z"/>
<path d="M3973 1372 c-15 -9 -113 -133 -113 -142 0 -16 40 -41 57 -36 15 5
103 140 103 159 0 11 -36 26 -47 19z"/>
<path d="M4367 1108 c-14 -18 -37 -52 -52 -76 l-28 -43 24 -25 24 -24 38 31
c51 42 83 106 78 157 0 6 -14 12 -30 12 -22 0 -36 -9 -54 -32z"/>
</g>
</svg>
