<?xml version="1.0" standalone="no"?>
<!DOCTYPE svg PUBLIC "-//W3C//DTD SVG 20010904//EN"
 "http://www.w3.org/TR/2001/REC-SVG-20010904/DTD/svg10.dtd">
<svg version="1.0" xmlns="http://www.w3.org/2000/svg"
 width="1024.000000pt" height="1024.000000pt" viewBox="0 0 1024.000000 1024.000000"
 preserveAspectRatio="xMidYMid meet">
<metadata>
Created by potrace 1.10, written by Peter Selinger 2001-2011
</metadata>
<g transform="translate(0.000000,1024.000000) scale(0.100000,-0.100000)"
fill="#000000" stroke="none">
<path d="M5842 9243 c-5 -10 -12 -53 -16 -97 -12 -153 -40 -198 -189 -297
-171 -114 -363 -201 -737 -333 -573 -202 -1137 -346 -1845 -471 -283 -50 -341
-65 -350 -96 -8 -24 -12 -20 51 -46 51 -21 55 -21 430 -7 l379 13 544 91 544
91 25 -23 c38 -35 101 -133 137 -212 58 -127 65 -180 65 -520 0 -169 -2 -306
-6 -306 -3 0 -545 -70 -1205 -155 l-1201 -155 -296 38 c-164 22 -299 38 -300
36 -2 -1 8 -51 24 -109 20 -78 36 -118 61 -150 40 -53 162 -137 234 -160 29
-10 79 -35 111 -55 31 -21 86 -45 120 -54 l63 -17 150 40 c194 52 1577 332
1568 317 -18 -31 -212 -286 -298 -391 -262 -323 -647 -727 -895 -939 -383
-327 -853 -629 -1476 -948 l-278 -142 44 -20 c35 -17 64 -21 135 -20 453 3
1465 572 2302 1292 329 282 618 574 961 969 96 112 177 201 179 199 3 -2 -5
-267 -17 -587 -15 -416 -26 -626 -40 -731 -22 -164 -17 -254 20 -378 36 -120
141 -269 213 -304 119 -56 195 29 234 263 14 81 17 231 22 939 l6 843 270
-226 c149 -125 346 -295 440 -378 647 -579 1152 -1013 1545 -1327 283 -226
351 -275 415 -299 69 -26 103 -26 285 -1 80 10 289 37 465 60 176 22 341 47
367 56 58 19 98 49 98 75 0 24 -98 72 -330 163 -340 132 -735 315 -1005 466
-344 193 -945 593 -1790 1195 -93 66 -248 175 -343 240 -95 66 -169 121 -165
122 7 2 1547 108 2088 144 88 5 176 15 195 21 47 14 88 54 101 98 9 31 8 43
-9 76 -21 40 -70 91 -132 137 -37 27 -293 127 -326 127 -10 0 -497 -72 -1082
-160 -584 -88 -1069 -160 -1077 -160 -23 0 -22 700 1 840 14 83 15 102 4 115
-23 28 -97 66 -197 101 -54 19 -105 37 -113 40 -8 3 80 34 195 69 353 107
1049 350 1145 400 102 53 89 188 -29 317 -96 106 -391 298 -456 298 -14 0 -28
-8 -33 -17z"/>
<path d="M6820 4505 c-48 -18 -150 -35 -380 -65 -173 -23 -450 -59 -615 -80
-569 -75 -1052 -139 -1639 -216 l-590 -77 -48 27 c-41 23 -336 116 -368 116
-13 0 -169 -90 -176 -101 -2 -5 8 -34 24 -66 50 -100 159 -448 181 -578 56
-334 104 -743 186 -1585 58 -601 73 -712 107 -815 27 -85 57 -115 111 -115
127 1 232 129 254 308 5 48 8 52 37 57 17 2 580 48 1251 101 671 52 1292 102
1380 109 88 7 163 11 167 9 4 -3 21 -36 39 -75 49 -105 121 -159 214 -159 37
0 50 6 79 35 64 64 121 207 160 406 47 241 128 879 181 1429 40 421 61 543
127 738 40 121 41 124 25 158 -23 48 -83 110 -190 197 -142 115 -246 187 -322
223 -96 45 -119 47 -195 19z m-19 -437 c63 -37 82 -80 81 -178 -2 -110 -33
-674 -37 -678 -2 -2 -675 -73 -1497 -157 -821 -85 -1517 -157 -1545 -161 l-53
-6 -1 33 c0 19 -15 207 -33 419 -20 240 -29 387 -23 391 5 4 84 19 176 34 91
14 234 37 316 51 83 13 254 40 380 59 127 19 255 39 285 45 209 37 1054 140
1310 160 74 5 155 12 180 14 25 2 128 3 230 2 182 -1 186 -1 231 -28z m29
-1171 c0 -7 -14 -197 -30 -423 -17 -225 -33 -456 -38 -514 l-7 -105 -45 -7
c-36 -6 -2647 -211 -2805 -221 l-40 -2 -46 475 c-26 261 -47 476 -45 477 1 1
685 76 1521 166 836 91 1523 165 1528 166 4 1 7 -5 7 -12z"/>
</g>
</svg>
