<?xml version="1.0" standalone="no"?>
<!DOCTYPE svg PUBLIC "-//W3C//DTD SVG 20010904//EN"
 "http://www.w3.org/TR/2001/REC-SVG-20010904/DTD/svg10.dtd">
<svg version="1.0" xmlns="http://www.w3.org/2000/svg"
 width="1024.000000pt" height="1024.000000pt" viewBox="0 0 1024.000000 1024.000000"
 preserveAspectRatio="xMidYMid meet">
<metadata>
Created by potrace 1.10, written by Peter Selinger 2001-2011
</metadata>
<g transform="translate(0.000000,1024.000000) scale(0.100000,-0.100000)"
fill="#000000" stroke="none">
<path d="M4655 9343 c-695 -122 -711 -125 -761 -158 -42 -27 -53 -41 -63 -78
-11 -38 -11 -53 3 -100 19 -66 52 -108 113 -144 38 -22 63 -27 178 -36 l133
-10 161 -426 c89 -234 170 -438 181 -453 11 -14 37 -96 58 -181 30 -120 49
-172 81 -227 34 -60 67 -148 58 -157 -2 -1 -124 31 -272 71 -370 101 -516 158
-661 257 -84 59 -111 86 -116 118 -4 34 -48 64 -80 56 -37 -9 -98 -141 -98
-212 0 -126 87 -310 201 -424 65 -65 95 -85 205 -141 151 -77 280 -120 419
-141 55 -9 136 -21 180 -28 44 -8 113 -14 152 -14 l73 0 -5 -30 c-13 -73 -248
-2088 -285 -2436 -33 -310 -61 -704 -143 -2025 l-103 -1639 16 -200 c15 -203
17 -213 53 -252 35 -39 104 -25 153 29 37 40 142 278 165 373 7 28 29 95 50
150 20 55 82 269 137 475 l101 375 467 2605 c257 1433 468 2606 469 2607 0 2
69 7 151 13 180 13 292 31 444 71 409 108 738 311 961 594 62 78 63 112 6 145
-32 18 -110 4 -195 -36 -31 -14 -157 -61 -278 -104 l-222 -79 -347 -46 c-191
-25 -354 -44 -362 -41 -12 5 -11 12 6 40 12 18 21 48 21 65 0 38 210 482 246
521 13 14 72 111 131 215 75 132 145 238 228 346 l120 156 140 5 c103 4 151
10 180 22 63 28 140 91 158 129 21 43 22 128 3 165 -31 59 -103 102 -173 102
-21 0 -79 16 -128 36 -68 27 -180 53 -465 109 l-375 74 -255 6 c-140 3 -311 7
-380 9 -124 4 -132 3 -835 -121z m1118 -472 c141 -21 260 -40 263 -44 3 -3 -2
-19 -11 -37 -9 -17 -22 -60 -30 -94 -9 -44 -27 -84 -59 -132 -25 -38 -46 -73
-46 -79 0 -6 -44 -54 -97 -107 -97 -95 -99 -97 -224 -147 -110 -44 -135 -51
-196 -51 -86 0 -112 17 -140 92 -62 164 -83 274 -83 433 l0 134 38 7 c20 4
100 19 177 34 77 16 142 28 145 29 3 0 121 -17 263 -38z"/>
</g>
</svg>
