<?xml version="1.0" standalone="no"?>
<!DOCTYPE svg PUBLIC "-//W3C//DTD SVG 20010904//EN"
 "http://www.w3.org/TR/2001/REC-SVG-20010904/DTD/svg10.dtd">
<svg version="1.0" xmlns="http://www.w3.org/2000/svg"
 width="1024.000000pt" height="1024.000000pt" viewBox="0 0 1024.000000 1024.000000"
 preserveAspectRatio="xMidYMid meet">
<metadata>
Created by potrace 1.10, written by Peter Selinger 2001-2011
</metadata>
<g transform="translate(0.000000,1024.000000) scale(0.100000,-0.100000)"
fill="#000000" stroke="none">
<path d="M4638 9004 c-60 -30 -108 -58 -108 -62 0 -13 49 -54 129 -107 206
-137 264 -314 278 -851 l6 -242 -39 -6 c-47 -7 -922 -113 -1329 -161 l-291
-34 -297 43 c-163 23 -299 41 -301 39 -9 -9 62 -222 84 -251 38 -52 147 -128
230 -163 41 -17 82 -37 90 -44 28 -24 120 -65 168 -75 39 -9 63 -7 132 9 46
12 88 17 91 13 4 -4 44 -90 89 -192 98 -219 165 -418 214 -630 31 -137 87
-442 90 -494 1 -19 -35 -24 -689 -92 -379 -40 -825 -82 -990 -94 l-300 -21
-339 56 c-186 30 -341 53 -344 51 -2 -3 5 -48 17 -100 l22 -95 177 -134 c208
-158 329 -238 399 -266 l52 -20 163 20 c90 11 456 73 813 139 628 115 670 121
1255 189 333 39 618 71 632 71 24 0 32 -9 68 -83 22 -46 50 -122 63 -168 21
-82 22 -97 22 -609 l0 -524 -745 -93 c-410 -51 -856 -104 -991 -117 l-247 -24
-318 42 c-176 24 -321 42 -322 40 -2 -1 2 -40 10 -86 l13 -83 120 -88 c238
-174 388 -265 460 -281 53 -11 235 21 694 123 405 91 483 105 856 156 226 31
425 58 443 61 l32 6 0 -658 c0 -652 -9 -1020 -31 -1369 -9 -153 -9 -195 5
-281 26 -173 93 -311 196 -408 44 -41 54 -46 96 -46 40 0 51 5 78 33 36 39 71
130 93 248 14 73 17 240 20 1310 l4 1226 77 6 c42 4 457 34 922 68 787 56 860
60 1060 54 118 -3 286 -15 373 -27 l157 -20 48 24 c38 18 49 31 60 62 l12 38
-97 120 c-54 66 -103 125 -108 132 -6 8 -74 41 -153 74 -135 58 -145 61 -190
52 -134 -25 -2050 -240 -2140 -240 l-23 0 4 583 c2 435 7 603 17 665 13 76 13
85 -4 113 -12 21 -15 34 -8 38 6 3 614 42 1352 85 l1342 79 251 -12 c139 -7
309 -15 378 -18 148 -7 188 -1 229 33 34 29 56 90 46 129 -8 33 -89 120 -174
188 -51 40 -96 62 -228 113 -155 60 -167 63 -212 54 -141 -28 -780 -98 -1377
-150 -374 -33 -787 -69 -918 -80 -132 -12 -241 -19 -243 -17 -3 2 15 29 39 58
58 72 599 899 692 1059 49 85 82 154 100 216 l27 92 -46 72 c-26 40 -45 75
-41 78 3 3 213 13 468 22 428 15 465 18 509 38 49 21 88 69 88 107 0 12 -39
64 -90 121 l-90 101 -136 52 c-166 63 -134 64 -586 -20 -252 -47 -424 -71
-842 -119 -289 -33 -530 -60 -536 -60 -13 0 -13 344 1 542 6 89 20 198 35 260
13 59 24 118 24 133 0 61 -65 130 -165 175 -45 21 -506 162 -518 159 -1 0 -50
-25 -109 -55z m1452 -1512 c0 -5 -13 -76 -29 -158 -60 -310 -260 -932 -408
-1272 -34 -77 -50 -103 -67 -107 -29 -6 -1275 -135 -1304 -135 -24 0 -24 0
-17 93 23 302 -162 691 -545 1147 -55 66 -94 120 -87 120 6 0 266 38 577 85
814 123 875 131 1195 165 160 18 360 40 445 50 178 20 240 23 240 12z"/>
</g>
</svg>
