<?xml version="1.0" standalone="no"?>
<!DOCTYPE svg PUBLIC "-//W3C//DTD SVG 20010904//EN"
 "http://www.w3.org/TR/2001/REC-SVG-20010904/DTD/svg10.dtd">
<svg version="1.0" xmlns="http://www.w3.org/2000/svg"
 width="1024.000000pt" height="1024.000000pt" viewBox="0 0 1024.000000 1024.000000"
 preserveAspectRatio="xMidYMid meet">
<metadata>
Created by potrace 1.10, written by Peter Selinger 2001-2011
</metadata>
<g transform="translate(0.000000,1024.000000) scale(0.100000,-0.100000)"
fill="#000000" stroke="none">
<path d="M3955 9209 c-467 -43 -868 -80 -890 -84 -54 -7 -103 -39 -116 -72
-13 -35 -3 -90 19 -102 10 -5 82 -5 182 0 91 5 657 34 1257 64 l1093 56 1060
-26 c583 -14 1071 -23 1085 -19 50 12 83 90 56 132 -5 8 -108 29 -280 57
l-271 44 -967 16 c-1381 22 -1232 26 -2228 -66z"/>
<path d="M6430 8260 l-535 -6 -1165 -122 c-641 -67 -1259 -131 -1375 -142
-429 -41 -385 -33 -422 -74 -27 -29 -33 -44 -33 -79 0 -37 4 -45 29 -60 28
-16 46 -16 413 18 210 19 410 37 443 40 59 6 59 6 41 -14 -18 -20 -18 -29 23
-368 22 -191 46 -397 51 -458 33 -339 104 -648 225 -978 38 -103 56 -137 109
-204 101 -127 247 -234 387 -281 30 -11 99 -27 155 -37 l101 -17 -13 -82 c-9
-55 -14 -186 -14 -413 l0 -333 -22 0 c-13 0 -147 12 -298 26 -269 27 -276 28
-345 62 -361 180 -661 487 -836 857 -43 93 -51 120 -98 370 -28 149 -55 318
-60 376 -10 117 -28 164 -82 217 -41 40 -71 41 -99 2 -19 -27 -22 -48 -27
-193 -6 -191 10 -341 58 -523 17 -66 38 -148 45 -184 8 -36 23 -76 33 -90 9
-14 45 -81 78 -150 181 -372 458 -656 823 -845 111 -57 458 -158 518 -150 20
2 99 7 175 10 l137 6 0 -220 c0 -122 -1 -221 -2 -222 -2 0 -473 -43 -1046 -94
-1162 -103 -1094 -93 -1100 -169 -3 -30 2 -42 26 -65 l30 -27 229 -12 c125 -6
237 -9 248 -7 18 5 1127 108 1463 137 73 6 135 9 138 6 3 -3 -10 -572 -30
-1264 -33 -1191 -34 -1271 -20 -1484 8 -124 16 -302 18 -397 3 -160 5 -176 27
-220 21 -40 31 -49 63 -56 51 -13 79 2 116 59 41 65 44 106 26 307 -26 287
-22 1298 9 2188 13 394 28 754 31 800 l7 85 926 67 c541 40 970 67 1031 65
116 -3 156 10 212 69 39 42 44 75 16 106 -20 24 -38 29 -163 48 -120 18 -149
20 -210 10 -65 -11 -1694 -131 -1777 -131 l-38 0 0 238 0 237 318 99 c335 105
495 170 669 272 275 161 488 332 677 544 211 236 300 372 362 557 34 101 28
155 -19 180 -39 20 -110 21 -132 3 -20 -16 -55 -83 -55 -104 0 -20 -189 -304
-264 -396 -212 -262 -527 -509 -871 -683 -85 -43 -688 -288 -694 -282 -1 2 7
165 19 361 19 298 21 366 10 407 -7 26 -10 50 -8 52 2 2 76 34 163 70 88 37
177 75 199 86 115 59 331 252 435 389 137 181 296 461 375 662 130 332 258
986 241 1236 l-7 102 446 0 c474 0 488 1 529 48 10 11 21 38 24 60 4 33 1 44
-27 75 l-32 37 -237 -2 c-130 -1 -477 -5 -771 -8z m-135 -242 c-2 -13 -36
-239 -75 -503 -44 -296 -77 -491 -87 -510 -8 -16 -33 -84 -55 -150 -21 -66
-68 -179 -102 -251 -107 -222 -219 -377 -397 -549 -172 -166 -328 -271 -475
-321 -73 -24 -89 -26 -204 -22 -145 5 -209 26 -334 108 -90 58 -135 112 -185
222 -140 303 -228 663 -251 1025 -22 338 -67 573 -138 713 l-38 76 1111 91
c610 50 1138 91 1173 92 60 1 62 0 57 -21z"/>
<path d="M9832 971 c-10 -6 -6 -10 15 -14 15 -3 36 -9 46 -12 13 -6 17 -2 17
14 0 17 -6 21 -32 21 -18 0 -39 -4 -46 -9z"/>
</g>
</svg>
