<?xml version="1.0" standalone="no"?>
<!DOCTYPE svg PUBLIC "-//W3C//DTD SVG 20010904//EN"
 "http://www.w3.org/TR/2001/REC-SVG-20010904/DTD/svg10.dtd">
<svg version="1.0" xmlns="http://www.w3.org/2000/svg"
 width="1024.000000pt" height="1024.000000pt" viewBox="0 0 1024.000000 1024.000000"
 preserveAspectRatio="xMidYMid meet">
<metadata>
Created by potrace 1.10, written by Peter Selinger 2001-2011
</metadata>
<g transform="translate(0.000000,1024.000000) scale(0.100000,-0.100000)"
fill="#000000" stroke="none">
<path d="M4757 8681 c-49 -20 -89 -41 -89 -46 0 -18 36 -63 57 -73 76 -36 172
-162 206 -271 45 -146 52 -231 56 -713 3 -276 1 -458 -4 -458 -5 0 -272 -29
-593 -65 -321 -36 -608 -65 -638 -65 -45 0 -218 17 -339 34 -29 4 -34 0 -56
-37 -31 -52 -23 -79 41 -139 72 -68 288 -187 402 -223 l55 -17 475 91 c261 51
482 94 491 97 13 4 17 -7 22 -61 35 -378 -316 -1591 -713 -2461 -246 -541
-676 -1245 -961 -1575 -27 -31 -49 -59 -49 -63 0 -12 62 -6 93 10 111 56 408
326 535 487 577 730 876 1286 1225 2272 47 132 93 266 103 298 10 32 23 57 31
57 8 0 40 -13 72 -29 50 -26 94 -35 341 -70 156 -23 297 -41 314 -41 17 0 46
-9 64 -20 l34 -21 -7 -77 c-31 -346 -379 -1609 -642 -2322 -157 -428 -269
-657 -401 -823 -101 -127 -160 -153 -267 -119 -102 34 -349 157 -462 230 -20
12 -24 12 -29 -1 -5 -15 149 -277 259 -440 46 -69 95 -173 127 -272 55 -170
109 -216 209 -181 112 40 284 206 405 389 102 156 163 266 270 489 248 513
452 1103 745 2158 125 452 166 563 268 732 35 59 83 186 83 221 0 40 -47 113
-120 187 -95 96 -230 204 -295 235 l-50 25 -170 -52 -170 -51 -263 11 c-145 6
-266 13 -269 16 -3 3 31 98 76 211 64 164 83 224 92 293 l11 88 -67 105 c-37
57 -90 127 -118 156 -49 50 -49 52 -26 57 20 5 941 143 1274 191 61 9 145 25
188 37 74 19 137 56 137 80 0 6 -25 44 -55 84 -53 70 -58 74 -122 93 -38 11
-80 23 -94 26 -14 4 -240 -32 -535 -84 -280 -50 -515 -91 -521 -91 -10 0 -13
109 -13 512 0 427 3 531 17 624 16 109 16 112 -4 150 -35 68 -117 114 -324
182 -101 33 -193 62 -204 65 -11 3 -59 -11 -108 -32z"/>
</g>
</svg>
