<?xml version="1.0" standalone="no"?>
<!DOCTYPE svg PUBLIC "-//W3C//DTD SVG 20010904//EN"
 "http://www.w3.org/TR/2001/REC-SVG-20010904/DTD/svg10.dtd">
<svg version="1.0" xmlns="http://www.w3.org/2000/svg"
 width="1024.000000pt" height="1024.000000pt" viewBox="0 0 1024.000000 1024.000000"
 preserveAspectRatio="xMidYMid meet">
<metadata>
Created by potrace 1.10, written by Peter Selinger 2001-2011
</metadata>
<g transform="translate(0.000000,1024.000000) scale(0.100000,-0.100000)"
fill="#000000" stroke="none">
<path d="M8391 9092 c-41 -21 -73 -76 -69 -117 3 -30 2 -31 -36 -32 -28 -2
-48 -10 -70 -31 -17 -16 -102 -93 -189 -172 -157 -142 -447 -463 -704 -781
-302 -372 -866 -951 -942 -968 -22 -4 -664 -635 -2493 -2448 -2453 -2431
-2511 -2488 -2723 -2639 -20 -15 -20 -15 4 -33 l23 -18 -235 -182 c-130 -100
-255 -203 -278 -229 -74 -84 -127 -227 -97 -263 11 -13 61 -19 286 -32 l273
-17 547 121 c627 138 654 144 857 206 569 172 1147 461 1830 916 429 286 837
620 1177 964 53 54 336 393 628 753 l531 655 83 160 c81 156 101 211 126 355
15 80 15 316 0 390 -5 30 -13 143 -16 250 l-7 195 39 63 c39 62 43 65 88 47
18 -8 18 -7 1 19 -21 32 -26 26 71 81 34 19 72 36 84 38 13 2 303 285 718 700
l697 696 91 39 c240 103 589 345 662 459 37 58 54 129 46 186 -13 84 -45 141
-159 283 -98 122 -126 150 -198 198 -155 103 -331 172 -501 195 -101 14 -105
14 -145 -7z m64 -202 c230 -46 443 -149 558 -269 62 -65 122 -176 133 -247 6
-40 5 -42 -41 -78 -26 -20 -51 -36 -54 -36 -15 0 -191 121 -251 172 -36 31
-98 97 -138 146 -40 50 -113 124 -162 167 -51 43 -90 84 -90 94 0 10 -10 31
-22 47 -15 18 -17 26 -7 22 8 -3 41 -11 74 -18z m99 -497 c141 -149 257 -275
256 -280 -1 -4 -17 -17 -35 -27 l-33 -19 -254 138 c-209 115 -336 196 -403
257 -6 6 28 45 95 108 58 55 107 98 110 97 3 -1 122 -124 264 -274z m-652
-242 c106 -93 294 -190 467 -241 l74 -22 -24 -23 c-13 -13 -71 -66 -129 -119
l-104 -97 -16 31 c-10 20 -57 57 -135 109 -134 88 -339 265 -328 284 12 21
116 137 122 137 3 0 36 -27 73 -59z m-253 -384 c54 -57 145 -124 218 -160 36
-19 75 -28 132 -33 45 -4 84 -10 86 -14 2 -4 -37 -50 -88 -104 l-92 -97 -90
57 c-49 31 -109 72 -133 91 -41 34 -212 246 -212 264 0 5 19 33 42 63 l42 55
24 -37 c14 -20 45 -59 71 -85z m-273 -254 c107 -151 207 -234 328 -274 l66
-22 -146 -153 c-81 -85 -150 -154 -154 -154 -14 0 -103 75 -145 121 -22 24
-71 87 -108 139 -37 52 -82 114 -99 138 l-32 43 114 114 c63 63 118 115 121
115 4 0 29 -30 55 -67z m-415 -411 c21 -35 55 -83 76 -109 37 -44 163 -157
243 -217 l38 -29 -29 -25 -30 -24 -47 17 c-87 32 -173 86 -244 153 -79 75
-119 129 -138 186 l-13 40 44 37 c24 21 48 37 53 36 5 -2 26 -31 47 -65z
m-147 -409 c79 -62 222 -143 255 -143 9 0 -7 -11 -34 -24 -35 -16 -56 -34 -70
-59 -11 -21 -26 -37 -34 -37 -8 0 -23 -7 -33 -17 -17 -15 -20 -15 -44 8 -15
13 -51 56 -80 95 -44 60 -60 94 -100 215 -25 79 -49 151 -52 159 -3 8 21 -18
53 -59 32 -40 94 -102 139 -138z m-369 -20 c17 -120 93 -259 205 -377 l69 -72
-25 -62 c-49 -123 -53 -225 -14 -357 65 -217 58 -489 -17 -699 -18 -51 -42
-88 -87 -140 -75 -86 -130 -166 -182 -265 -28 -54 -151 -209 -443 -560 -341
-410 -437 -520 -620 -702 -428 -427 -799 -722 -1271 -1011 -506 -310 -1074
-580 -1597 -758 -374 -128 -900 -236 -1428 -295 l-59 -7 299 249 c165 136 334
275 375 308 82 66 97 99 64 136 -22 24 -178 -134 1266 1274 1018 991 1189
1163 1963 1968 l848 882 317 272 c174 149 320 269 323 267 4 -2 10 -25 14 -51z"/>
<path d="M6314 5783 c-12 -2 -34 -18 -50 -34 -25 -26 -29 -39 -32 -102 l-4
-73 42 -38 42 -38 -43 -46 c-24 -26 -67 -72 -96 -102 -48 -52 -54 -64 -98
-203 l-46 -147 -300 -313 c-165 -171 -321 -328 -348 -347 -26 -19 -214 -213
-417 -431 -272 -292 -378 -413 -404 -460 -30 -54 -58 -83 -180 -186 -80 -67
-152 -122 -162 -122 -9 -1 -341 -221 -737 -490 l-720 -489 -183 -72 c-188 -75
-218 -93 -238 -139 -9 -22 -30 -34 -118 -69 -106 -42 -302 -94 -396 -106 -85
-10 -130 -50 -142 -124 -5 -32 -2 -43 22 -71 l28 -34 100 7 c258 17 545 113
674 224 41 36 83 60 150 86 153 59 293 132 451 236 149 98 150 98 168 78 43
-48 223 6 320 95 27 24 64 52 83 63 19 11 136 96 260 188 124 93 236 173 250
179 14 6 37 19 52 30 27 18 28 18 74 -9 l45 -27 47 22 c40 19 53 32 82 88 19
36 55 88 78 116 39 45 43 55 38 86 -5 34 -1 40 66 108 66 67 76 73 113 73 32
0 47 6 67 28 54 55 53 94 0 138 l-26 21 35 41 c19 23 37 42 40 42 3 0 14 -18
24 -41 24 -52 57 -76 88 -62 35 16 86 63 102 93 20 39 8 67 -41 96 -34 20 -50
24 -80 18 l-37 -7 22 32 c26 37 27 37 69 11 49 -30 112 -27 144 8 58 61 62
105 16 157 l-31 36 42 42 c37 37 43 40 52 25 33 -58 81 -63 151 -16 90 62 99
129 23 165 -19 9 -35 19 -35 23 0 3 22 28 50 55 44 44 51 47 62 33 7 -9 37
-21 67 -26 49 -9 58 -8 84 12 32 23 57 65 57 94 0 11 -18 36 -39 55 l-39 35
37 35 c35 33 37 33 53 16 21 -23 60 -33 92 -25 36 9 142 83 161 113 19 29 24
67 11 94 -6 13 0 18 27 23 39 7 114 68 128 104 7 18 4 34 -13 68 l-22 44 24
25 c13 14 34 25 47 25 42 0 88 26 131 75 50 57 58 100 26 136 -13 15 -11 17
16 23 24 4 35 15 50 48 21 47 25 99 10 128 -8 15 0 36 40 105 28 48 66 106 85
129 80 98 85 166 16 239 -41 45 -56 49 -94 31 -35 -17 -35 -17 -82 20 -26 20
-51 35 -54 35 -3 -1 -16 -4 -27 -6z m-1364 -2237 c0 -2 -8 -10 -17 -17 -16
-13 -17 -12 -4 4 13 16 21 21 21 13z"/>
</g>
</svg>
