<?xml version="1.0" standalone="no"?>
<!DOCTYPE svg PUBLIC "-//W3C//DTD SVG 20010904//EN"
 "http://www.w3.org/TR/2001/REC-SVG-20010904/DTD/svg10.dtd">
<svg version="1.0" xmlns="http://www.w3.org/2000/svg"
 width="1024.000000pt" height="1024.000000pt" viewBox="0 0 1024.000000 1024.000000"
 preserveAspectRatio="xMidYMid meet">
<metadata>
Created by potrace 1.10, written by Peter Selinger 2001-2011
</metadata>
<g transform="translate(0.000000,1024.000000) scale(0.100000,-0.100000)"
fill="#000000" stroke="none">
<path d="M5447 9688 c-4 -18 -9 -215 -12 -438 -3 -223 -8 -433 -11 -467 l-5
-62 -62 -3 -61 -3 -12 -48 c-34 -134 -118 -111 -168 46 -4 12 -16 17 -41 17
l-35 0 0 -69 c0 -84 -13 -101 -73 -101 -23 0 -47 4 -53 8 -21 14 -34 51 -34
96 0 25 -3 46 -7 46 -34 -1 -194 -21 -207 -26 -20 -8 -20 -28 0 -87 13 -40 20
-47 42 -48 l27 -1 -27 -8 c-15 -4 -43 -20 -62 -35 -29 -22 -42 -26 -71 -21
-40 8 -89 -14 -166 -72 -51 -39 -59 -52 -33 -52 15 0 14 -3 -2 -27 -13 -21
-17 -43 -16 -85 3 -52 1 -57 -20 -60 -22 -3 -21 -5 13 -31 20 -15 61 -34 92
-42 32 -8 68 -27 88 -45 18 -16 37 -30 42 -30 5 0 28 14 53 30 42 30 45 30 74
15 32 -17 50 -43 50 -74 0 -18 6 -21 38 -21 31 1 40 6 57 33 31 50 60 47 109
-9 l42 -47 76 -3 c42 -1 80 -4 86 -8 5 -3 54 -8 108 -12 137 -10 162 -23 44
-23 l-96 -1 4 -33 c3 -25 -3 -41 -23 -66 -15 -17 -25 -34 -23 -36 3 -3 53 -8
112 -12 l107 -6 -6 -126 c-3 -69 -31 -864 -61 -1766 -30 -902 -79 -2371 -109
-3263 -30 -893 -55 -1648 -55 -1678 0 -53 0 -54 -30 -54 l-30 0 0 -70 0 -70
34 0 33 0 8 -110 c3 -60 6 -151 5 -202 -1 -51 -1 -97 -1 -102 1 -4 13 -1 27 8
20 14 37 16 80 10 l54 -6 0 63 c0 35 -7 125 -15 199 -8 74 -12 136 -10 139 3
2 80 10 173 17 156 12 190 18 454 87 l286 75 197 102 c237 123 290 159 472
319 l141 124 4 54 c2 33 -2 59 -9 66 -8 8 -21 205 -43 646 -17 348 -29 636
-26 638 3 3 62 -12 131 -33 106 -31 138 -46 193 -87 68 -50 422 -395 422 -410
0 -5 22 -34 49 -65 137 -159 252 -399 320 -668 58 -229 74 -350 75 -572 2
-229 -6 -208 96 -246 148 -56 176 -61 350 -61 184 0 241 12 391 81 61 29 84
46 119 91 41 53 44 60 51 142 4 47 3 118 -1 156 -5 39 -14 162 -20 275 -8 141
-18 225 -31 270 -10 36 -50 261 -89 500 -39 239 -80 462 -92 495 -64 186 -191
387 -337 534 -129 130 -156 151 -375 285 -204 126 -308 177 -457 224 -183 59
-276 73 -501 79 l-208 5 0 32 c0 17 18 305 40 641 22 335 40 635 40 666 l0 57
138 32 c337 78 402 99 585 192 96 48 258 144 272 162 6 6 47 40 92 74 45 34
91 75 102 91 11 15 34 34 50 41 29 11 118 117 186 220 17 25 85 122 152 215
143 200 214 316 293 474 73 145 251 581 279 681 34 123 69 317 81 445 6 66 16
167 22 225 16 141 15 157 -9 220 -12 30 -29 77 -38 103 -23 64 -103 145 -180
182 -48 22 -78 29 -150 32 -82 4 -99 1 -186 -29 -88 -30 -101 -38 -138 -83
-35 -42 -41 -57 -41 -95 0 -25 -11 -120 -25 -212 l-25 -168 -180 -437 c-100
-241 -190 -449 -200 -463 -11 -14 -36 -47 -55 -74 -89 -127 -274 -304 -411
-391 -115 -74 -106 -72 -375 -80 l-245 -7 3 113 c2 63 12 391 23 729 11 377
22 626 29 643 21 55 14 86 -31 132 -24 23 -66 71 -94 106 -29 38 -80 85 -122
113 -64 44 -101 58 -359 139 l-288 90 -352 21 c-194 12 -355 25 -359 28 -5 5
10 700 20 905 3 81 11 74 -95 88 -46 6 -47 6 -52 -27z m637 -1133 c181 -24
313 -54 481 -110 214 -71 236 -82 337 -168 80 -69 86 -76 70 -90 -57 -51 -278
-143 -425 -177 -74 -17 -843 -88 -852 -78 -2 2 147 25 332 51 284 41 345 52
391 75 66 32 116 88 138 155 24 72 9 115 -59 166 -96 73 -163 97 -402 141
-121 23 -224 43 -230 45 -26 9 122 3 219 -10z m2886 -63 c0 -4 -5 -13 -12 -20
-29 -29 46 -102 105 -102 36 0 83 24 92 47 5 15 9 12 21 -16 8 -19 12 -36 9
-39 -11 -12 -106 -13 -158 -2 -61 12 -138 49 -175 83 l-23 21 58 17 c67 20 83
22 83 11z m-4169 -49 c-94 -74 -92 -222 5 -316 24 -23 44 -45 44 -49 0 -4 -42
5 -92 18 -51 14 -110 29 -130 35 -25 6 -38 16 -38 27 -1 9 -23 35 -50 57 -55
45 -55 40 15 128 40 50 50 57 81 57 37 0 94 24 94 40 0 10 52 28 85 29 16 1
14 -4 -14 -26z m1324 -29 c154 -30 206 -45 272 -76 109 -53 115 -79 32 -143
-50 -38 -56 -40 -343 -97 -160 -31 -295 -56 -300 -55 -4 2 52 30 125 64 118
54 136 65 152 97 42 80 -10 182 -118 233 -27 13 -41 21 -30 19 11 -3 106 -22
210 -42z m-715 11 c0 -12 -15 -15 -75 -15 -98 0 -141 -18 -161 -66 -27 -65 13
-169 80 -207 11 -6 50 -14 86 -18 40 -3 -15 -6 -139 -7 l-205 -2 -45 48 c-25
27 -59 58 -75 70 -23 18 -28 29 -28 64 1 29 6 45 18 52 10 6 88 30 174 53 134
36 170 41 263 42 89 1 107 -2 107 -14z m315 -35 c77 -17 148 -33 158 -36 32
-10 79 -63 75 -86 -3 -19 -30 -29 -208 -83 -171 -52 -206 -60 -209 -47 -2 9
20 37 53 66 75 68 76 92 5 136 -36 22 -49 36 -45 46 3 9 6 20 6 25 0 13 12 12
165 -21z m3104 -110 c27 -13 92 -26 211 -40 94 -11 177 -20 182 -20 15 0 3
-274 -17 -410 -19 -129 -80 -383 -100 -419 -8 -14 -31 -76 -50 -138 -20 -62
-40 -115 -45 -118 -5 -3 -14 -25 -20 -48 -11 -39 -69 -166 -142 -312 -43 -83
-93 -160 -147 -225 -25 -31 -116 -165 -201 -299 l-155 -243 -160 -128 c-315
-252 -490 -338 -894 -441 -184 -47 -241 -66 -260 -84 -35 -34 -49 -128 -61
-400 -5 -126 -27 -454 -49 -729 -26 -331 -37 -506 -31 -522 16 -41 49 -49 116
-29 78 23 340 32 454 16 107 -16 212 -43 296 -77 95 -38 447 -227 524 -282
202 -144 393 -395 494 -650 67 -167 84 -258 136 -732 28 -245 50 -453 50 -463
0 -10 5 -15 10 -12 6 3 10 18 10 32 0 15 2 24 5 22 2 -3 9 -117 14 -255 5
-137 10 -255 12 -263 10 -38 -190 -122 -338 -143 -93 -14 -230 -1 -316 28
l-48 16 2 132 c1 176 -16 279 -104 608 l-74 275 -86 154 c-47 85 -95 174 -106
199 -40 92 -313 384 -486 521 -120 96 -179 125 -371 183 -229 70 -228 70 -261
42 l-27 -23 43 -709 c23 -390 42 -720 41 -734 0 -20 -28 -49 -132 -136 -117
-97 -164 -128 -393 -256 l-260 -146 -280 -56 c-229 -45 -500 -84 -511 -73 -3
3 144 5160 157 5482 21 522 64 1384 70 1389 3 4 138 14 300 23 l294 16 365 77
c221 46 398 89 448 108 l82 31 0 -57 c-1 -31 -5 -118 -10 -192 -19 -274 -51
-1227 -41 -1251 19 -51 25 -52 305 -57 246 -4 269 -3 342 18 94 25 210 84 281
142 29 24 137 136 240 249 l188 205 163 350 163 349 60 250 c67 278 66 275 74
275 3 0 23 -9 44 -20z m-3419 -14 l0 -24 -61 18 c-34 10 -64 21 -67 24 -3 3
25 6 61 6 64 0 67 -1 67 -24z m223 -343 c-18 -2 -48 -2 -65 0 -18 2 -4 4 32 4
36 0 50 -2 33 -4z"/>
<path d="M8948 8193 c7 -3 16 -2 19 1 4 3 -2 6 -13 5 -11 0 -14 -3 -6 -6z"/>
<path d="M8842 8148 c-7 -7 -12 -29 -12 -49 0 -21 -4 -41 -10 -44 -15 -9 -52
-144 -45 -166 5 -14 14 -19 28 -17 19 3 29 23 64 132 31 96 39 133 31 143 -13
16 -40 17 -56 1z"/>
<path d="M9072 8052 c-7 -5 -17 -33 -22 -63 -14 -81 -51 -432 -46 -437 3 -2
18 5 34 17 35 24 34 23 65 274 22 174 22 188 7 202 -19 17 -21 17 -38 7z"/>
<path d="M8906 7828 c-9 -12 -16 -40 -16 -62 0 -51 -114 -289 -206 -429 -150
-229 -361 -483 -580 -698 -202 -197 -250 -236 -439 -352 -114 -70 -174 -113
-183 -132 -8 -14 -12 -28 -10 -29 1 -2 24 -6 49 -9 l46 -6 300 234 300 235
314 377 c376 451 380 456 431 561 39 80 40 85 28 127 -9 33 -10 59 -1 108 6
35 11 71 11 80 0 24 -26 21 -44 -5z"/>
<path d="M6598 7536 c-8 -7 -22 -40 -31 -72 -16 -55 -317 -2387 -317 -2454 0
-19 7 -33 19 -40 19 -10 50 -5 51 9 1 3 77 575 169 1271 150 1133 166 1267
153 1283 -18 21 -26 21 -44 3z"/>
<path d="M6171 7436 c-8 -10 -21 -167 -38 -456 l-26 -442 23 -18 c65 -49 73 2
101 632 9 215 9 271 -1 283 -16 19 -44 19 -59 1z"/>
<path d="M5739 7394 c-8 -10 -15 -67 -19 -172 -4 -101 -24 -278 -55 -499 -41
-286 -47 -344 -36 -357 22 -26 34 -19 67 42 26 47 33 73 38 147 4 50 14 121
22 160 33 158 46 271 51 462 6 212 3 233 -37 233 -10 0 -23 -7 -31 -16z"/>
<path d="M8508 6776 c-126 -188 -232 -321 -329 -410 -94 -88 -234 -192 -336
-253 -97 -57 -114 -80 -70 -100 20 -9 45 3 197 97 158 97 187 120 301 232 138
137 285 325 367 468 29 50 52 96 52 102 0 14 -31 37 -51 38 -10 0 -61 -68
-131 -174z"/>
<path d="M6782 6837 c-6 -7 -47 -431 -93 -947 -89 -1022 -103 -1289 -79 -1564
12 -145 23 -176 60 -176 35 0 39 20 29 140 -6 63 -10 230 -11 370 0 258 15
459 155 2028 12 134 12 144 -4 153 -24 13 -45 11 -57 -4z"/>
<path d="M8005 6034 c-27 -14 -74 -49 -103 -77 -52 -51 -52 -51 -32 -71 19
-20 20 -19 87 26 37 26 98 61 136 79 37 19 67 39 67 45 0 12 -44 24 -84 24
-11 0 -43 -12 -71 -26z"/>
<path d="M7022 5977 c-16 -19 -25 -64 -18 -91 4 -18 17 -26 50 -35 98 -24 182
-5 239 56 l27 29 -22 21 -23 22 -84 -20 -84 -20 -27 26 c-29 28 -43 31 -58 12z"/>
<path d="M6002 5928 c-9 -9 -12 -282 -12 -1168 0 -1108 1 -1158 18 -1173 22
-20 43 -22 60 -5 17 17 17 2329 0 2346 -7 7 -21 12 -33 12 -12 0 -26 -5 -33
-12z"/>
<path d="M7482 5711 c-169 -84 -223 -101 -319 -101 -70 0 -73 -1 -79 -26 -8
-30 -1 -37 45 -53 69 -23 141 -11 289 48 44 17 213 122 246 152 9 8 -19 49
-34 49 -4 0 -71 -31 -148 -69z"/>
<path d="M5686 5518 c-15 -24 -28 -107 -57 -347 -47 -392 -61 -593 -57 -786
l3 -150 28 -9 c21 -8 31 -6 41 5 10 10 20 133 40 479 35 600 41 662 67 738 20
60 20 64 4 83 -26 28 -48 24 -69 -13z"/>
<path d="M6397 4343 c-9 -3 -25 -19 -34 -36 -29 -56 -32 -102 -11 -210 12 -64
27 -244 41 -479 13 -208 27 -382 32 -387 6 -4 22 -11 37 -15 25 -6 28 -3 32
26 3 18 8 87 11 153 4 98 -2 185 -34 480 -33 306 -37 365 -26 391 12 28 11 34
-9 56 -12 15 -28 23 -39 21z"/>
<path d="M7108 3505 c-7 -16 -8 -29 -2 -34 5 -4 70 -28 144 -52 159 -51 389
-164 505 -247 126 -91 372 -301 460 -393 178 -187 269 -335 387 -631 l85 -213
13 -177 c7 -104 17 -181 24 -187 6 -5 21 -12 34 -16 19 -5 25 -1 37 29 36 85
11 282 -66 511 -85 256 -191 449 -343 627 -80 93 -526 482 -640 557 -109 72
-298 162 -442 211 -143 48 -180 51 -196 15z"/>
<path d="M6844 3344 c-10 -14 -13 -29 -8 -33 5 -5 82 -34 172 -65 146 -50 166
-55 188 -43 l25 13 -20 26 c-51 64 -196 128 -292 128 -41 0 -51 -4 -65 -26z"/>
<path d="M8108 3249 c-28 -16 -22 -45 12 -59 17 -7 30 -16 30 -21 0 -14 262
-294 274 -294 6 0 12 17 14 39 3 32 -2 44 -26 70 -16 17 -58 73 -92 124 -63
95 -109 135 -165 146 -16 3 -38 1 -47 -5z"/>
<path d="M5623 3073 c-22 -51 -58 -724 -40 -735 7 -4 24 -8 38 -8 25 0 26 4
42 98 12 68 17 155 18 297 0 110 4 234 9 275 7 63 6 78 -7 93 -25 26 -43 21
-60 -20z"/>
<path d="M6250 3001 c-24 -16 -17 -123 23 -346 43 -237 56 -287 71 -282 18 6
24 48 25 183 1 123 -1 139 -34 247 -19 63 -35 129 -35 145 0 17 -7 38 -16 46
-18 19 -15 18 -34 7z"/>
<path d="M7646 2941 c-24 -27 -12 -45 49 -70 47 -20 75 -45 198 -179 79 -87
164 -183 189 -215 44 -57 153 -141 170 -131 4 3 8 20 8 39 0 28 -20 56 -138
192 -75 87 -155 179 -176 205 -38 46 -238 178 -269 178 -8 0 -21 -8 -31 -19z"/>
<path d="M6007 2902 c-15 -17 -17 -60 -17 -409 l0 -391 26 -17 c25 -16 27 -16
46 2 18 19 19 38 18 414 0 357 -2 395 -17 407 -23 17 -37 15 -56 -6z"/>
<path d="M6493 2433 c-3 -9 -1 -201 6 -427 13 -439 12 -436 63 -436 36 0 38
26 23 440 -13 350 -17 405 -31 421 -21 23 -53 24 -61 2z"/>
<path d="M8203 2233 c-7 -3 -13 -17 -13 -32 0 -22 10 -35 49 -62 55 -37 63
-50 86 -141 9 -35 21 -80 26 -100 7 -27 15 -38 28 -38 14 0 22 14 34 61 14 54
14 68 1 117 -18 68 -46 115 -88 147 -37 28 -105 54 -123 48z"/>
<path d="M8450 1716 c0 -25 9 -67 19 -93 25 -65 85 -532 72 -566 -8 -21 -6
-26 15 -36 34 -15 41 -14 64 9 26 26 26 60 -4 333 l-25 218 -49 87 c-35 61
-55 88 -71 90 -19 3 -21 -1 -21 -42z"/>
<path d="M6047 1617 c-13 -9 -20 -36 -27 -102 -19 -179 -9 -249 39 -275 48
-25 75 -5 65 48 -2 15 -8 89 -12 165 -7 117 -11 141 -28 157 -17 17 -23 18
-37 7z"/>
<path d="M8797 1515 c-30 -29 -33 -48 -12 -85 19 -34 19 -85 -2 -207 -19 -112
-13 -146 29 -162 44 -16 54 -3 103 130 53 142 55 181 15 258 -19 37 -76 91
-96 91 -5 0 -22 -11 -37 -25z"/>
<path d="M5599 1443 c-11 -13 -14 -56 -12 -197 3 -233 7 -264 38 -278 19 -8
28 -8 41 3 15 12 16 27 8 124 -4 60 -8 160 -9 221 0 79 -4 116 -14 127 -17 22
-35 21 -52 0z"/>
<path d="M1953 8713 c-51 -15 -51 -15 -46 -52 10 -69 24 -111 37 -111 7 0 28
3 46 6 32 7 32 8 28 54 -3 29 0 57 8 71 29 52 16 58 -73 32z"/>
<path d="M2187 8636 c-42 -71 -43 -76 -21 -76 8 0 -19 -30 -60 -66 l-76 -66 0
-58 c0 -44 4 -61 20 -75 19 -17 22 -16 114 53 92 69 94 70 100 46 6 -24 30
-33 41 -14 3 5 31 17 61 27 l56 17 -6 51 c-4 27 -14 72 -22 98 -15 45 -20 50
-93 87 l-78 39 -36 -63z"/>
<path d="M4360 8631 l-75 -17 -3 -37 c-3 -35 28 -107 46 -107 15 1 194 49 199
54 3 2 -4 31 -14 63 -18 52 -22 58 -49 59 -16 1 -63 -6 -104 -15z"/>
<path d="M1689 8610 c-51 -27 -114 -102 -134 -158 -23 -65 -29 -204 -12 -267
13 -49 14 -50 53 -53 22 -2 53 2 68 8 28 10 28 12 24 74 l-4 63 41 -12 c22 -7
69 -16 103 -20 l64 -7 -7 58 c-11 93 -11 94 -58 94 -24 0 -54 8 -70 19 l-29
19 64 48 63 49 -35 5 c-30 4 -39 12 -60 52 -14 27 -27 48 -30 48 -3 -1 -21
-10 -41 -20z"/>
<path d="M4050 8546 c-61 -22 -195 -94 -188 -101 2 -2 44 -17 94 -33 l90 -29
55 26 c30 14 55 26 56 26 1 0 -6 30 -15 68 -9 37 -18 67 -21 66 -3 0 -35 -11
-71 -23z"/>
<path d="M3759 8263 c-24 -62 -50 -218 -47 -286 l3 -70 58 -20 c32 -10 60 -17
63 -14 2 2 10 44 16 93 6 49 14 92 18 97 3 4 35 -4 70 -18 96 -37 92 -39 106
35 6 36 11 65 10 66 0 0 -29 20 -63 43 -34 22 -66 47 -70 55 -7 12 -111 46
-142 46 -6 0 -16 -12 -22 -27z"/>
<path d="M2380 8247 c-36 -10 -67 -21 -69 -23 -5 -5 89 -276 100 -288 5 -6 9
2 9 18 0 27 40 78 69 87 12 4 11 22 -8 105 -13 54 -26 104 -30 110 -4 7 -26 5
-71 -9z"/>
<path d="M2124 8225 c-15 -39 348 -962 394 -1002 32 -27 62 -15 62 23 0 14
-63 188 -141 387 -152 392 -251 600 -288 605 -12 2 -24 -3 -27 -13z"/>
<path d="M4211 8074 c-13 -17 -21 -41 -21 -65 0 -32 5 -41 30 -54 38 -20 50
-19 50 3 0 9 14 37 30 62 16 25 30 48 30 51 0 6 -69 29 -88 29 -6 0 -20 -12
-31 -26z"/>
<path d="M4454 7962 c-61 -71 -60 -80 8 -81 22 -1 29 5 34 27 3 15 17 46 30
68 23 41 23 42 4 47 -16 4 -33 -10 -76 -61z"/>
<path d="M1657 7976 l-58 -21 6 -45 c11 -83 12 -83 64 -77 25 3 58 10 73 16
l26 10 -21 70 c-11 39 -23 70 -26 70 -3 -1 -32 -11 -64 -23z"/>
<path d="M4688 7908 c-49 -67 -48 -70 10 -81 30 -6 32 -5 32 24 0 22 10 41 35
66 20 20 34 37 32 39 -2 2 -17 6 -33 10 -27 5 -33 0 -76 -58z"/>
<path d="M1921 7931 c-12 -12 -21 -26 -21 -32 0 -6 36 -95 80 -197 49 -116 96
-248 124 -347 25 -88 59 -197 76 -243 83 -217 261 -502 344 -553 39 -24 111
-26 120 -3 8 21 5 26 -82 108 -74 70 -131 144 -169 221 -51 100 -258 666 -274
750 -23 111 -73 216 -132 274 l-45 43 -21 -21z"/>
<path d="M4980 7920 c0 -5 -20 -34 -45 -65 l-45 -55 44 0 c39 0 45 3 50 25 4
14 23 43 42 65 l36 40 -41 0 c-22 0 -41 -4 -41 -10z"/>
<path d="M2446 7800 c38 -123 72 -216 73 -198 1 18 68 78 88 78 17 0 18 -3
-23 105 l-36 94 -63 -2 -62 -2 23 -75z"/>
<path d="M3696 7708 c-7 -34 -26 -201 -23 -203 14 -11 133 -43 138 -38 5 5 9
54 11 111 l3 103 -59 25 c-33 13 -61 24 -63 24 -1 0 -5 -10 -7 -22z"/>
<path d="M1741 7680 c-30 -17 -56 -32 -58 -34 -3 -2 10 -50 27 -105 l31 -101
31 16 c21 11 46 15 75 11 24 -2 43 -1 41 2 -2 4 -21 60 -43 124 -22 64 -42
117 -45 117 -3 0 -29 -14 -59 -30z"/>
<path d="M4076 7635 c-36 -54 -47 -151 -52 -440 -3 -154 -2 -320 3 -370 7 -82
10 -90 35 -104 23 -13 28 -13 43 -1 16 13 17 28 9 165 -17 280 -3 538 37 689
9 34 8 41 -12 62 -29 30 -43 30 -63 -1z"/>
<path d="M4550 7518 c-7 -19 -45 -293 -87 -640 -7 -54 7 -78 42 -78 28 0 22
-32 76 395 38 302 39 320 23 332 -26 19 -43 16 -54 -9z"/>
<path d="M2589 7389 c52 -154 79 -219 93 -219 8 0 108 48 117 56 3 3 -22 70
-54 149 l-59 145 -35 0 c-20 0 -53 3 -73 6 l-37 7 48 -144z"/>
<path d="M4849 7443 c-5 -16 -12 -34 -14 -41 -3 -7 -9 -196 -15 -420 -6 -224
-19 -560 -30 -747 -11 -187 -20 -348 -20 -357 0 -10 11 -19 30 -23 43 -10 43
-10 57 32 20 55 69 1549 52 1569 -19 23 -49 17 -60 -13z"/>
<path d="M1860 7330 c-35 -25 -54 -45 -52 -55 3 -17 109 -292 117 -306 3 -4
31 6 62 22 31 16 62 28 70 25 7 -3 13 -3 13 0 0 13 -143 354 -149 353 -3 -1
-31 -18 -61 -39z"/>
<path d="M3652 7203 c-7 -70 -12 -135 -12 -144 0 -18 113 -74 134 -66 9 4 15
37 19 113 12 182 14 172 -39 194 -96 41 -89 48 -102 -97z"/>
<path d="M2817 7055 c-33 -13 -61 -26 -64 -28 -2 -3 37 -60 89 -127 93 -122
93 -122 99 -90 4 17 21 46 37 63 l31 32 -60 80 c-33 44 -63 83 -67 87 -4 4
-33 -4 -65 -17z"/>
<path d="M2602 6908 c-24 -24 -11 -57 51 -135 114 -140 268 -271 444 -378 43
-27 112 -70 153 -96 156 -100 315 -159 468 -174 64 -7 71 -6 81 13 8 15 7 23
-3 31 -7 6 -85 36 -174 66 -352 119 -509 219 -824 524 -91 88 -170 161 -175
161 -5 0 -14 -5 -21 -12z"/>
<path d="M2073 6847 c-28 -23 -52 -46 -52 -50 -1 -4 35 -59 80 -122 l80 -115
50 42 c27 23 48 47 47 52 -5 17 -142 236 -148 235 -3 0 -28 -19 -57 -42z"/>
<path d="M3646 6824 c-3 -9 -6 -31 -6 -50 0 -32 2 -34 20 -24 14 8 31 8 58 0
52 -14 52 -14 52 24 0 33 -2 35 -54 50 -66 19 -63 19 -70 0z"/>
<path d="M3085 6744 c-27 -13 -56 -24 -62 -24 -24 0 -12 -15 65 -78 l77 -63 5
39 c3 21 16 51 27 66 l22 27 -33 30 c-19 16 -38 29 -42 28 -5 0 -31 -11 -59
-25z"/>
<path d="M3630 6605 c0 -13 -6 -28 -14 -32 -13 -8 -86 -132 -86 -147 0 -4 44
-6 98 -4 89 3 100 5 134 31 60 47 62 90 3 101 -18 4 -53 22 -78 41 -25 19 -48
35 -51 35 -3 0 -6 -11 -6 -25z"/>
<path d="M2343 6481 l-42 -49 115 -102 c127 -112 118 -111 174 -40 l30 37
-114 102 c-63 55 -116 101 -118 101 -2 -1 -22 -23 -45 -49z"/>
<path d="M2711 6181 l-40 -59 109 -65 109 -65 20 61 c12 33 21 64 21 69 0 4
-24 20 -52 34 -29 15 -70 40 -90 56 l-37 29 -40 -60z"/>
<path d="M4212 6172 c-34 -47 -40 -95 -62 -475 -23 -397 -23 -401 29 -395 22
3 27 10 37 63 7 33 18 166 24 295 8 173 17 270 36 368 24 127 24 135 8 153
-24 27 -49 24 -72 -9z"/>
<path d="M3060 6000 c-13 -34 -20 -63 -17 -67 12 -11 201 -53 208 -45 3 4 9
36 12 72 l6 65 -77 18 c-42 9 -84 17 -93 17 -11 0 -24 -21 -39 -60z"/>
<path d="M3444 5969 c-8 -17 -16 -49 -17 -71 l-2 -41 57 -12 c67 -13 66 -12
83 -62 12 -36 16 -38 59 -41 64 -4 86 10 85 56 0 20 -8 57 -18 82 -17 42 -24
47 -92 76 -41 17 -89 34 -106 37 -29 6 -35 3 -49 -24z"/>
<path d="M3638 5574 l-48 -15 0 -85 0 -86 73 7 c39 4 73 9 75 10 2 2 0 44 -3
94 -9 103 -8 103 -97 75z"/>
<path d="M4450 5544 c-8 -19 -60 -695 -60 -775 0 -9 11 -21 25 -27 21 -10 28
-9 44 7 21 21 22 25 49 494 15 242 15 292 4 308 -19 27 -51 24 -62 -7z"/>
<path d="M3661 5235 c-29 -7 -56 -17 -60 -22 -4 -4 -5 -62 -2 -128 l6 -120 75
0 c74 0 75 0 73 25 -1 14 -5 78 -8 143 -5 79 -11 117 -18 116 -7 -1 -36 -7
-66 -14z"/>
<path d="M3911 5218 c-32 -85 -42 -165 -61 -486 -11 -188 -20 -373 -20 -410 0
-75 22 -133 64 -171 l26 -25 21 20 c20 20 20 22 4 85 -29 110 -28 190 5 592
33 408 33 417 -11 417 -11 0 -23 -10 -28 -22z"/>
<path d="M4859 4974 c-14 -18 -12 13 -44 -559 -31 -554 -31 -523 0 -537 53
-24 53 -27 86 551 23 409 27 536 18 547 -15 19 -43 18 -60 -2z"/>
<path d="M3664 4798 l-51 -9 -6 -52 c-14 -117 -19 -244 -11 -250 5 -3 29 -2
53 3 34 6 50 4 68 -7 l23 -15 0 68 c1 41 7 79 15 94 9 16 14 54 15 103 l0 77
-27 -1 c-16 -1 -51 -6 -79 -11z"/>
<path d="M3710 4335 c-7 -8 -34 -15 -63 -17 l-52 -3 -3 -83 c-3 -81 -2 -82 23
-92 15 -6 49 -10 76 -10 l49 0 0 110 c0 108 -5 125 -30 95z"/>
<path d="M4604 4320 c-17 -7 -23 -20 -28 -57 -22 -167 -86 -813 -84 -837 2
-16 11 -34 21 -40 28 -18 51 5 59 60 10 69 88 817 88 842 0 27 -28 42 -56 32z"/>
<path d="M4095 4132 c-11 -2 -23 -9 -27 -16 -4 -6 -8 -176 -8 -377 l0 -366 26
-12 c22 -10 30 -9 45 5 18 16 19 38 19 379 0 332 -1 363 -17 377 -10 8 -27 12
-38 10z"/>
<path d="M3647 3973 c-28 -2 -50 -10 -53 -17 -4 -10 -22 -12 -69 -8 -76 6
-115 -3 -115 -25 0 -9 5 -45 11 -80 l11 -64 37 6 c20 3 55 7 78 10 23 2 50 8
60 13 10 5 42 13 71 17 l53 7 -3 71 c-3 79 0 76 -81 70z"/>
<path d="M3125 3832 c-126 -55 -137 -71 -87 -129 l27 -33 100 35 c55 19 110
35 123 35 12 0 22 2 22 5 0 5 -71 135 -73 135 -1 0 -51 -22 -112 -48z"/>
<path d="M2745 3648 c-49 -27 -118 -65 -153 -84 l-62 -35 25 -43 c14 -23 25
-52 25 -64 0 -12 3 -22 6 -22 3 0 82 43 175 96 l168 96 -37 51 c-21 28 -42 52
-48 53 -5 1 -49 -20 -99 -48z"/>
<path d="M2935 3447 c-101 -44 -238 -121 -323 -181 -138 -98 -300 -234 -344
-290 -48 -60 -104 -174 -92 -186 5 -4 23 -11 39 -14 29 -6 33 -2 105 105 88
130 197 231 365 337 67 41 237 125 302 148 59 21 77 52 47 85 -21 24 -36 23
-99 -4z"/>
<path d="M2341 3412 l-33 -27 33 -58 c18 -31 37 -57 41 -57 11 0 88 49 88 56
0 7 -84 113 -90 113 -3 1 -21 -11 -39 -27z"/>
<path d="M3146 3285 c-461 -212 -909 -581 -1234 -1017 -108 -144 -400 -620
-438 -711 -37 -92 -84 -258 -84 -299 0 -33 37 -59 51 -37 5 8 77 163 161 344
l152 330 224 300 c234 312 316 405 492 559 274 240 476 365 738 457 67 23 98
39 110 57 15 24 15 25 -13 48 -17 13 -32 24 -35 24 -3 0 -58 -25 -124 -55z"/>
<path d="M2107 3265 c-20 -14 -37 -30 -37 -36 0 -16 51 -119 58 -119 6 0 103
61 121 76 6 5 -83 104 -94 104 -6 0 -27 -11 -48 -25z"/>
<path d="M1804 3033 c-60 -47 -111 -87 -112 -89 -7 -5 23 -75 38 -88 31 -28
50 -21 150 63 55 46 103 88 106 93 5 7 -62 108 -71 108 -2 0 -52 -39 -111 -87z"/>
<path d="M4850 3085 c-9 -11 -15 -104 -22 -322 -9 -289 -9 -308 8 -320 25 -18
50 -16 59 5 9 19 11 52 20 385 7 248 4 267 -35 267 -10 0 -23 -7 -30 -15z"/>
<path d="M3355 3018 c-60 -22 -111 -41 -112 -42 -8 -7 42 -146 52 -146 12 0
146 48 153 54 1 2 13 42 26 90 29 103 36 100 -119 44z"/>
<path d="M3638 2973 c-30 -31 -38 -47 -38 -75 0 -26 -7 -42 -23 -55 -14 -10
-26 -34 -29 -54 l-6 -35 101 2 102 3 5 98 c3 54 9 105 13 114 6 12 1 18 -20
22 -15 4 -37 9 -48 12 -14 4 -30 -5 -57 -32z"/>
<path d="M3011 2870 c-30 -17 -56 -32 -59 -35 -5 -4 37 -114 49 -128 9 -12
131 51 127 66 -17 63 -44 127 -52 127 -6 0 -35 -14 -65 -30z"/>
<path d="M1485 2750 l-68 -68 29 -40 c48 -67 51 -67 126 7 l67 66 -43 52 -43
51 -68 -68z"/>
<path d="M2728 2699 c-32 -22 -58 -44 -58 -50 0 -5 11 -32 25 -59 14 -27 25
-56 25 -65 0 -8 3 -15 6 -15 8 0 134 93 134 98 0 3 -11 19 -24 36 -13 17 -27
46 -30 64 -4 17 -11 32 -14 31 -4 0 -33 -18 -64 -40z"/>
<path d="M4135 2649 c-75 -90 -105 -203 -105 -399 1 -162 12 -291 41 -462 l22
-128 35 -10 c43 -11 54 0 47 45 -86 522 -84 655 16 865 l40 85 -21 17 c-31 25
-44 23 -75 -13z"/>
<path d="M3594 2590 c-32 -12 -64 -63 -64 -100 l0 -32 48 6 c26 3 73 8 105 12
l57 6 0 59 0 59 -62 -1 c-35 0 -73 -4 -84 -9z"/>
<path d="M1218 2463 c-41 -49 -78 -94 -82 -101 -5 -9 9 -28 40 -57 26 -25 49
-45 50 -45 3 0 149 182 157 196 4 6 -15 29 -43 53 l-49 41 -73 -87z"/>
<path d="M2512 2517 c-8 -9 -2 -22 19 -47 27 -31 29 -32 23 -10 -10 38 -23 70
-28 70 -2 0 -8 -6 -14 -13z"/>
<path d="M4716 2408 c-24 -39 -26 -199 -9 -608 13 -321 19 -398 31 -412 18
-22 51 -23 58 -4 3 8 2 240 -3 515 -10 513 -11 531 -49 531 -7 0 -20 -10 -28
-22z"/>
<path d="M2580 2410 c0 -5 5 -10 11 -10 5 0 7 5 4 10 -3 6 -8 10 -11 10 -2 0
-4 -4 -4 -10z"/>
<path d="M2322 2331 c-28 -33 -52 -63 -52 -67 0 -5 21 -30 47 -56 l47 -48 58
57 57 56 -46 59 c-25 32 -49 58 -52 58 -4 0 -30 -27 -59 -59z"/>
<path d="M1628 2280 c-203 -187 -343 -466 -389 -778 -14 -90 -11 -99 35 -104
l28 -3 64 218 c37 126 80 250 103 295 21 43 95 149 166 240 123 158 126 164
109 183 -9 10 -22 19 -29 19 -6 0 -45 -31 -87 -70z"/>
<path d="M3527 2313 c-4 -3 -7 -35 -7 -70 0 -60 2 -64 28 -74 21 -9 43 -7 102
8 l75 19 3 51 c3 52 3 52 -30 57 -70 11 -165 16 -171 9z"/>
<path d="M960 2058 c-38 -80 -70 -148 -70 -152 0 -12 112 -58 120 -49 4 4 22
46 39 93 18 46 44 100 58 118 l26 34 -51 51 -51 51 -71 -146z"/>
<path d="M2131 2097 c-31 -51 -21 -68 75 -129 8 -5 25 10 47 41 l35 48 -68 37
-68 36 -21 -33z"/>
<path d="M3660 2009 c-30 -10 -72 -20 -92 -24 -29 -4 -38 -11 -38 -25 0 -28
12 -31 65 -15 27 9 68 16 92 18 41 2 43 3 43 35 0 17 -3 31 -7 31 -5 -1 -33
-10 -63 -20z"/>
<path d="M1985 1858 l-28 -52 24 -15 c13 -9 38 -29 57 -45 18 -16 34 -27 35
-25 2 2 15 24 31 47 l28 44 -54 49 c-29 26 -56 48 -59 49 -3 0 -19 -23 -34
-52z"/>
<path d="M3633 1792 c-51 -15 -93 -31 -93 -37 0 -6 37 -10 97 -9 l98 1 3 36
c2 21 0 37 -5 36 -4 0 -50 -13 -100 -27z"/>
<path d="M810 1641 c-12 -58 -24 -114 -26 -123 -7 -25 29 -39 93 -36 l57 3 13
75 c7 41 15 90 18 108 5 29 3 32 -18 32 -13 0 -44 10 -69 23 l-46 23 -22 -105z"/>
<path d="M1834 1543 l-52 -117 61 -43 c34 -23 62 -41 64 -40 4 5 103 239 103
246 0 6 -111 71 -121 71 -2 0 -27 -53 -55 -117z"/>
<path d="M3628 1583 c-89 -16 -107 -26 -65 -37 22 -5 23 -9 19 -66 -2 -33 -2
-60 1 -60 3 0 44 18 92 40 l86 40 -3 47 c-4 57 -5 58 -130 36z"/>
<path d="M1095 1409 c-45 -40 -58 -90 -53 -205 3 -81 8 -99 45 -177 47 -97 60
-104 121 -67 38 23 42 57 12 100 -11 15 -24 57 -29 92 -7 52 -6 72 10 118 10
30 19 65 19 78 0 24 -58 92 -79 92 -6 0 -26 -14 -46 -31z"/>
<path d="M784 1308 c-9 -15 27 -271 41 -286 1 -2 26 11 54 28 29 16 56 30 61
30 5 0 11 3 13 8 5 7 -27 210 -34 216 -11 9 -130 13 -135 4z"/>
<path d="M3685 1293 c-33 -14 -62 -26 -63 -28 -7 -7 83 -97 110 -111 71 -37
72 -37 122 21 l47 54 -38 20 c-21 10 -49 31 -62 45 -30 31 -39 31 -116 -1z"/>
<path d="M1720 1235 c-17 -45 -12 -51 58 -77 l67 -25 8 41 c10 55 5 62 -40 69
-21 3 -48 9 -60 13 -18 5 -25 1 -33 -21z"/>
<path d="M4010 1091 c-23 -28 -39 -55 -36 -60 6 -10 144 -97 168 -106 11 -4
23 13 46 66 18 40 31 73 30 74 -8 7 -126 63 -144 69 -17 5 -30 -3 -64 -43z"/>
<path d="M1666 996 c-9 -35 1 -52 41 -76 32 -19 35 -24 29 -52 -3 -18 -16 -42
-28 -55 -19 -20 -30 -23 -82 -21 -50 1 -72 -4 -121 -28 l-60 -29 -3 -72 c-2
-44 1 -73 7 -73 6 0 68 23 140 51 97 39 135 59 151 81 15 20 90 240 90 265 0
2 -137 33 -148 33 -6 0 -13 -11 -16 -24z"/>
<path d="M4331 930 c-24 -39 -41 -73 -39 -75 5 -5 254 -65 269 -65 6 0 9 29 7
71 l-3 72 -95 33 c-52 18 -95 33 -95 34 0 0 -20 -32 -44 -70z"/>
<path d="M969 924 c-21 -25 -65 -44 -104 -44 l-37 0 7 -52 c4 -29 12 -59 17
-65 14 -18 36 -16 40 2 2 11 28 -5 89 -54 l87 -70 0 82 c0 78 -1 82 -36 125
-24 29 -36 53 -34 68 4 27 -10 31 -29 8z"/>
<path d="M4736 843 c-25 -73 -22 -81 27 -87 23 -3 73 -7 110 -9 l68 -5 -6 42
c-15 99 -10 93 -77 100 -106 11 -104 11 -122 -41z"/>
<path d="M1235 687 c-11 -74 -4 -102 27 -105 l27 -3 -6 53 c-11 102 -37 131
-48 55z"/>
</g>
</svg>
