<?xml version="1.0" standalone="no"?>
<!DOCTYPE svg PUBLIC "-//W3C//DTD SVG 20010904//EN"
 "http://www.w3.org/TR/2001/REC-SVG-20010904/DTD/svg10.dtd">
<svg version="1.0" xmlns="http://www.w3.org/2000/svg"
 width="1024.000000pt" height="1024.000000pt" viewBox="0 0 1024.000000 1024.000000"
 preserveAspectRatio="xMidYMid meet">
<metadata>
Created by potrace 1.10, written by Peter Selinger 2001-2011
</metadata>
<g transform="translate(0.000000,1024.000000) scale(0.100000,-0.100000)"
fill="#000000" stroke="none">
<path d="M3735 9241 c-64 -39 -61 -26 -89 -426 -14 -203 -37 -639 -51 -968
l-25 -599 0 -2701 c0 -2189 3 -2808 15 -3262 9 -308 20 -584 26 -613 8 -39 20
-63 48 -92 49 -52 87 -54 127 -7 63 75 69 135 41 437 -31 328 -36 665 -42
2551 l-5 1885 617 123 c342 68 667 127 728 133 199 18 440 -4 650 -59 141 -37
154 -44 223 -117 113 -121 202 -277 247 -432 58 -199 103 -658 115 -1174 5
-206 38 -973 75 -1705 36 -731 65 -1369 65 -1417 0 -97 9 -130 47 -170 33 -35
73 -44 111 -24 35 18 34 15 58 251 l17 170 -62 1220 c-34 671 -66 1375 -71
1565 -14 482 -45 948 -75 1125 -42 238 -137 461 -280 656 -66 91 -186 186
-284 225 -185 75 -354 105 -611 111 -181 4 -228 2 -400 -22 -218 -29 -423 -63
-610 -101 -191 -40 -480 -111 -524 -129 l-39 -17 6 228 c4 125 7 299 7 387 0
148 1 159 18 152 9 -5 138 -23 286 -41 148 -18 299 -40 335 -48 39 -9 147 -18
257 -22 l189 -6 122 36 c217 64 410 140 616 242 263 131 482 324 648 572 92
138 143 247 238 514 141 398 163 523 166 943 1 175 7 322 14 353 20 97 -19
195 -99 248 -47 31 -76 27 -107 -14 -20 -27 -22 -52 -43 -540 l-21 -511 -119
-335 c-65 -185 -130 -355 -144 -379 -14 -24 -26 -51 -26 -61 0 -30 -203 -288
-261 -331 -30 -23 -101 -77 -159 -121 -156 -119 -229 -162 -389 -230 -134 -58
-246 -90 -396 -114 -188 -31 -346 -27 -704 17 l-305 37 -58 -21 -58 -20 0 296
c0 377 23 929 70 1749 6 95 20 225 31 289 22 128 17 186 -21 249 -20 31 -80
84 -97 84 -4 0 -21 -8 -38 -19z"/>
</g>
</svg>
