<?xml version="1.0" standalone="no"?>
<!DOCTYPE svg PUBLIC "-//W3C//DTD SVG 20010904//EN"
 "http://www.w3.org/TR/2001/REC-SVG-20010904/DTD/svg10.dtd">
<svg version="1.0" xmlns="http://www.w3.org/2000/svg"
 width="1024.000000pt" height="1024.000000pt" viewBox="0 0 1024.000000 1024.000000"
 preserveAspectRatio="xMidYMid meet">
<metadata>
Created by potrace 1.10, written by Peter Selinger 2001-2011
</metadata>
<g transform="translate(0.000000,1024.000000) scale(0.100000,-0.100000)"
fill="#000000" stroke="none">
<path d="M5217 9146 c-46 -14 -74 -57 -113 -172 -34 -100 -39 -234 -12 -276
14 -21 16 -33 8 -53 -11 -29 -3 -80 15 -95 6 -5 246 -45 532 -87 l519 -77 -49
-115 c-27 -64 -59 -130 -72 -147 -13 -17 -53 -115 -89 -217 -36 -103 -77 -204
-90 -224 -14 -21 -92 -200 -175 -398 -82 -198 -156 -373 -165 -390 -9 -16 -16
-36 -16 -43 0 -8 -15 -41 -34 -75 -19 -34 -64 -132 -101 -217 -37 -85 -81
-172 -98 -194 -30 -37 -857 -1912 -857 -1942 0 -8 -2 -14 -4 -14 -1 0 -203 29
-447 65 -244 36 -453 66 -464 68 -13 1 -26 -10 -42 -38 -27 -47 -29 -59 -8
-51 8 3 15 2 15 -2 0 -4 -51 -127 -114 -272 -62 -146 -126 -299 -140 -340 -15
-41 -38 -93 -51 -115 -13 -23 -42 -92 -65 -153 -30 -81 -125 -267 -342 -665
-165 -304 -322 -583 -348 -622 -70 -104 -114 -187 -163 -310 -24 -61 -105
-226 -180 -367 -76 -141 -137 -263 -137 -270 0 -8 -4 -18 -9 -24 -11 -10 -171
-359 -171 -372 0 -4 25 -22 56 -40 52 -30 60 -32 93 -21 20 6 58 34 86 63 28
28 83 76 123 106 136 102 252 238 767 900 281 360 541 688 578 730 101 111
239 297 304 410 33 56 65 99 73 99 33 0 1170 -166 1176 -172 13 -13 -72 -130
-694 -951 -350 -463 -649 -866 -664 -896 -35 -70 -117 -303 -109 -310 3 -3 13
-18 21 -35 9 -16 29 -36 44 -44 39 -18 83 -4 211 68 56 32 114 62 128 67 15 5
120 88 233 184 l206 175 661 799 c364 440 707 861 763 935 56 75 132 169 169
209 55 60 66 77 61 97 -3 13 5 169 19 347 35 470 36 478 22 479 -7 1 -41 2
-77 4 -53 2 -928 160 -938 170 -2 1 40 99 92 216 52 118 297 708 545 1312 248
604 458 1112 467 1129 8 16 60 145 114 286 82 216 314 742 406 924 14 28 26
63 26 79 1 16 4 29 7 29 3 0 285 -32 626 -72 l620 -72 140 12 c176 15 220 29
279 92 52 56 58 68 93 195 56 206 7 302 -162 313 -69 4 -75 3 -99 -21 l-26
-26 -71 24 c-54 19 -416 75 -1434 225 -749 110 -1377 200 -1396 199 -19 -1
-51 -6 -72 -13z m1589 -402 c698 -103 1270 -187 1271 -188 1 0 -6 -54 -15
-118 l-16 -118 -35 5 c-20 3 -207 21 -415 40 -298 28 -398 41 -469 61 -88 25
-97 25 -274 18 -167 -6 -185 -5 -203 11 -19 17 -20 15 -58 -66 -92 -196 -414
-865 -422 -874 -4 -5 -13 -35 -20 -65 -7 -30 -25 -77 -41 -105 -42 -78 -309
-669 -309 -687 0 -8 -8 -26 -19 -39 -10 -13 -22 -40 -26 -59 -10 -46 -32 -89
-61 -121 -15 -16 -109 -240 -248 -592 -125 -316 -235 -579 -248 -595 -14 -17
-34 -65 -47 -118 -28 -108 -134 -359 -166 -394 -14 -14 -49 -98 -84 -195 -33
-93 -63 -178 -67 -188 -5 -14 -13 -17 -34 -12 -18 4 -31 1 -40 -10 -22 -26
-130 4 -144 40 -12 31 -6 52 38 136 24 46 56 131 71 189 21 75 50 147 106 255
45 86 117 252 169 388 49 130 106 269 126 307 19 38 89 215 154 392 66 176
128 331 139 342 16 18 101 204 101 222 0 3 13 16 28 29 16 13 37 43 47 67 10
24 26 52 36 63 35 41 127 235 263 552 64 149 133 304 155 345 21 40 76 163
121 273 99 241 95 233 120 270 23 35 20 28 86 180 39 88 50 122 41 127 -11 6
-1079 158 -1111 158 -20 0 -37 161 -23 222 l12 51 121 -6 c78 -4 566 -71 1390
-193z m-3123 -4509 c12 -2 495 -70 1072 -150 578 -80 1062 -148 1076 -151 26
-5 27 -9 31 -77 4 -69 3 -74 -29 -118 -18 -26 -52 -87 -74 -135 -145 -316
-297 -578 -480 -825 -44 -58 -79 -115 -79 -126 0 -10 -21 -39 -46 -63 -25 -25
-239 -281 -474 -570 -236 -289 -461 -556 -500 -595 -40 -38 -69 -63 -64 -54 5
9 275 388 599 843 551 772 592 831 615 905 14 43 33 86 42 95 29 28 29 51 2
127 -38 108 -70 138 -159 150 -27 4 -81 18 -120 32 -93 34 -186 49 -224 36
-24 -8 -128 6 -519 70 -269 45 -508 81 -530 81 -51 0 -102 -39 -102 -78 0 -19
-41 -79 -135 -201 -74 -95 -135 -180 -135 -187 0 -11 -820 -1113 -888 -1194
-19 -23 68 138 235 435 131 232 310 577 394 755 40 85 78 162 84 170 7 8 73
157 146 330 72 173 140 326 149 340 10 14 33 67 51 119 25 69 35 87 37 67 2
-17 11 -28 25 -31z"/>
</g>
</svg>
