<?xml version="1.0" standalone="no"?>
<!DOCTYPE svg PUBLIC "-//W3C//DTD SVG 20010904//EN"
 "http://www.w3.org/TR/2001/REC-SVG-20010904/DTD/svg10.dtd">
<svg version="1.0" xmlns="http://www.w3.org/2000/svg"
 width="1024.000000pt" height="1024.000000pt" viewBox="0 0 1024.000000 1024.000000"
 preserveAspectRatio="xMidYMid meet">
<metadata>
Created by potrace 1.10, written by Peter Selinger 2001-2011
</metadata>
<g transform="translate(0.000000,1024.000000) scale(0.100000,-0.100000)"
fill="#000000" stroke="none">
<path d="M6353 9517 c-41 -15 -181 -174 -342 -387 -96 -128 -143 -204 -265
-430 -82 -151 -215 -397 -296 -546 -201 -368 -269 -532 -321 -769 -73 -332
-65 -561 27 -736 87 -166 341 -404 568 -533 l75 -43 -23 -64 c-41 -116 -102
-223 -299 -522 -184 -278 -215 -318 -547 -718 -194 -233 -396 -469 -449 -524
-92 -95 -340 -350 -1341 -1375 -244 -250 -494 -498 -555 -550 -61 -52 -178
-153 -261 -223 -82 -71 -263 -235 -401 -365 -241 -226 -253 -239 -253 -273 0
-52 53 -99 112 -99 39 0 47 5 117 78 42 43 211 187 376 320 l300 241 942 943
c936 938 944 946 1348 1408 420 480 537 626 723 903 138 205 322 512 409 680
25 49 16 49 178 -3 412 -133 788 -224 1242 -300 268 -46 405 -86 562 -166 228
-116 488 -357 521 -484 6 -25 28 -94 47 -155 35 -107 36 -113 30 -225 -8 -148
-30 -260 -72 -374 -18 -50 -61 -164 -94 -254 -34 -92 -94 -227 -138 -310 -73
-136 -128 -213 -758 -1047 -374 -495 -792 -1049 -930 -1232 -137 -182 -357
-473 -487 -646 -220 -291 -238 -318 -238 -355 0 -35 5 -45 33 -66 73 -56 124
-43 174 41 15 27 396 512 847 1078 450 567 876 1107 946 1200 156 208 348 493
455 678 44 76 102 168 128 205 63 88 147 262 187 387 18 55 45 130 61 166 87
198 114 327 113 554 -1 150 -4 182 -28 270 -46 176 -119 305 -245 438 -92 96
-155 144 -324 246 -233 140 -522 237 -917 307 -316 56 -535 107 -819 189 -511
148 -714 247 -934 455 -134 127 -154 154 -178 247 -49 193 -47 413 7 600 27
95 327 788 430 994 165 330 369 622 635 906 80 85 98 130 71 177 -31 53 -98
82 -149 63z"/>
<path d="M7376 4100 c8 -44 23 -84 29 -78 3 2 -4 29 -15 59 -14 39 -18 44 -14
19z"/>
</g>
</svg>
