<?xml version="1.0" standalone="no"?>
<!DOCTYPE svg PUBLIC "-//W3C//DTD SVG 20010904//EN"
 "http://www.w3.org/TR/2001/REC-SVG-20010904/DTD/svg10.dtd">
<svg version="1.0" xmlns="http://www.w3.org/2000/svg"
 width="1024.000000pt" height="1024.000000pt" viewBox="0 0 1024.000000 1024.000000"
 preserveAspectRatio="xMidYMid meet">
<metadata>
Created by potrace 1.10, written by Peter Selinger 2001-2011
</metadata>
<g transform="translate(0.000000,1024.000000) scale(0.100000,-0.100000)"
fill="#000000" stroke="none">
<path d="M8765 8755 c-77 -24 -187 -61 -245 -84 -134 -53 -270 -92 -474 -136
-88 -19 -996 -188 -2017 -375 l-1856 -340 -666 -70 c-367 -39 -710 -70 -764
-70 -235 0 -518 40 -678 96 -55 19 -106 35 -113 37 -14 2 -72 -121 -72 -151 1
-70 117 -203 265 -302 44 -30 120 -85 168 -123 218 -170 465 -317 554 -331 30
-5 248 48 988 238 523 134 953 242 956 240 4 -2 10 -79 14 -171 8 -196 -4
-289 -62 -468 -184 -572 -583 -1279 -1196 -2120 -339 -464 -682 -851 -1138
-1285 -720 -684 -1449 -1250 -2136 -1662 -57 -34 -103 -67 -103 -75 0 -7 9
-22 20 -33 25 -25 58 -21 205 22 191 56 639 250 1030 445 254 128 959 619
1425 993 665 534 1065 955 1637 1720 222 298 348 480 782 1130 208 311 401
598 430 639 63 88 81 133 88 227 5 63 3 78 -21 129 -46 102 -95 164 -348 445
-82 90 -146 165 -144 167 7 7 944 174 1386 246 666 110 1307 204 1752 258
l187 23 48 -20 c88 -36 113 -99 113 -280 0 -316 -65 -811 -176 -1339 -78 -370
-247 -1056 -414 -1681 -60 -223 -208 -709 -287 -938 -153 -445 -349 -877 -491
-1076 -94 -133 -231 -270 -309 -309 -58 -29 -70 -31 -165 -31 -245 0 -768 131
-1565 391 -140 45 -220 61 -211 41 2 -5 222 -214 490 -465 569 -534 641 -614
832 -926 117 -190 253 -344 347 -391 79 -41 213 -14 356 71 184 111 516 516
770 942 273 458 605 1228 824 1910 259 809 518 1828 753 2967 89 433 172 670
307 880 64 100 89 160 96 226 9 82 -33 158 -151 277 -137 138 -407 336 -606
445 -81 44 -215 93 -252 91 -13 0 -86 -20 -163 -44z"/>
</g>
</svg>
