<?xml version="1.0" standalone="no"?>
<!DOCTYPE svg PUBLIC "-//W3C//DTD SVG 20010904//EN"
 "http://www.w3.org/TR/2001/REC-SVG-20010904/DTD/svg10.dtd">
<svg version="1.0" xmlns="http://www.w3.org/2000/svg"
 width="1024.000000pt" height="1024.000000pt" viewBox="0 0 1024.000000 1024.000000"
 preserveAspectRatio="xMidYMid meet">
<metadata>
Created by potrace 1.10, written by Peter Selinger 2001-2011
</metadata>
<g transform="translate(0.000000,1024.000000) scale(0.100000,-0.100000)"
fill="#000000" stroke="none">
<path d="M5561 8972 l-94 -56 44 -35 c117 -94 169 -169 200 -290 18 -70 19
-121 19 -972 l0 -898 -32 -5 c-62 -11 -2069 -246 -2094 -246 -25 0 -26 2 -20
48 3 26 10 281 16 567 14 649 25 921 44 1010 7 39 17 100 21 136 6 64 5 68
-23 101 -33 36 -166 110 -277 152 -38 15 -156 51 -262 80 l-192 53 -62 -39
-62 -39 39 -32 c153 -122 249 -305 290 -552 14 -88 15 -173 11 -690 -8 -841
-45 -1545 -113 -2160 -77 -696 -305 -1519 -602 -2173 -197 -433 -505 -855
-955 -1304 -173 -173 -195 -206 -132 -200 67 7 217 92 365 206 526 408 966
966 1254 1593 124 269 254 626 331 908 21 77 42 144 45 148 4 5 40 -13 79 -38
39 -26 95 -57 124 -70 l52 -24 165 30 c91 16 302 54 470 84 1675 300 2266 405
2290 405 39 0 78 -34 90 -80 13 -48 -34 -2585 -54 -2942 -14 -248 -12 -285 23
-379 16 -43 38 -72 90 -123 38 -36 75 -66 83 -66 36 0 118 52 162 101 74 84
111 169 144 327 14 67 16 247 22 1412 6 1321 6 1336 28 1422 11 48 33 116 48
150 14 35 38 95 52 133 l26 71 -27 58 c-35 76 -149 189 -272 271 -92 60 -184
104 -220 105 -22 0 -283 -84 -460 -148 -135 -49 -352 -103 -545 -137 -80 -14
-552 -80 -1050 -146 l-905 -121 -170 7 c-93 3 -172 8 -174 11 -2 2 5 59 17
126 11 68 51 407 88 753 37 347 70 633 73 637 4 4 785 104 1736 223 952 118
1894 235 2095 260 201 25 413 50 472 55 195 16 276 92 222 206 -27 56 -138
151 -197 168 -29 9 -95 28 -147 44 l-96 29 -134 -39 c-74 -21 -310 -81 -525
-133 -328 -79 -419 -97 -573 -115 -100 -11 -194 -20 -207 -20 l-25 0 0 683 c0
666 9 1023 30 1179 13 91 3 118 -57 166 -88 69 -423 213 -492 212 -9 -1 -58
-26 -110 -58z"/>
</g>
</svg>
