<?xml version="1.0" standalone="no"?>
<!DOCTYPE svg PUBLIC "-//W3C//DTD SVG 20010904//EN"
 "http://www.w3.org/TR/2001/REC-SVG-20010904/DTD/svg10.dtd">
<svg version="1.0" xmlns="http://www.w3.org/2000/svg"
 width="1024.000000pt" height="1024.000000pt" viewBox="0 0 1024.000000 1024.000000"
 preserveAspectRatio="xMidYMid meet">
<metadata>
Created by potrace 1.10, written by Peter Selinger 2001-2011
</metadata>
<g transform="translate(0.000000,1024.000000) scale(0.100000,-0.100000)"
fill="#000000" stroke="none">
<path d="M5694 9046 c-49 -22 -72 -59 -79 -131 -6 -52 -4 -71 13 -107 26 -58
29 -68 103 -400 36 -163 39 -187 39 -331 l0 -155 -237 -6 c-131 -3 -548 -8
-928 -11 -379 -3 -793 -8 -918 -11 l-228 -6 8 78 c4 44 8 117 8 164 0 75 -4
91 -30 139 -36 65 -85 106 -117 97 -13 -3 -37 -19 -55 -35 l-31 -29 -9 -504
c-5 -276 -5 -521 -2 -543 10 -59 55 -95 118 -95 81 0 87 14 95 222 3 95 9 204
13 241 l6 68 1163 -3 c640 -2 1164 -3 1164 -3 1 0 18 -238 40 -530 l39 -530
-51 -154 c-28 -85 -63 -173 -78 -195 -15 -23 -57 -88 -92 -146 -39 -63 -184
-254 -367 -480 -290 -361 -312 -385 -559 -623 -496 -480 -736 -691 -1085 -953
-391 -295 -936 -636 -1422 -890 -130 -68 -164 -91 -184 -120 -28 -44 -24 -94
10 -130 18 -19 33 -24 70 -24 41 0 75 14 221 89 460 235 1012 586 1378 876 36
28 202 155 370 283 l305 231 466 468 c447 449 563 576 732 800 72 96 250 358
292 431 11 17 22 32 25 32 3 0 21 -215 39 -477 29 -413 33 -507 28 -688 -15
-492 -60 -869 -157 -1320 -87 -402 -161 -647 -300 -990 -80 -197 -223 -499
-258 -542 -16 -21 -63 -95 -103 -163 -197 -339 -432 -650 -694 -918 -117 -120
-143 -165 -122 -214 19 -43 44 -65 87 -73 34 -6 41 -1 195 133 165 142 209
193 416 477 231 317 449 686 628 1063 263 554 417 1146 495 1892 38 363 39
428 7 955 -89 1471 -143 2426 -138 2431 6 7 1227 33 1547 34 l185 0 -3 -100
c-3 -88 0 -111 24 -181 34 -101 64 -129 135 -129 39 0 51 4 63 23 21 33 37
250 45 617 5 209 12 335 19 353 7 16 12 55 12 87 0 48 -4 64 -26 90 -34 40
-74 60 -119 60 -48 0 -69 -12 -97 -57 -22 -37 -23 -47 -28 -295 -3 -141 -8
-259 -12 -263 -3 -4 -80 -3 -170 3 -105 6 -414 6 -866 -1 -386 -5 -705 -7
-709 -4 -3 4 -10 55 -15 114 -19 237 -70 513 -134 727 -20 67 -40 146 -45 176
-6 46 -14 60 -45 88 -42 36 -46 37 -90 18z"/>
</g>
</svg>
