<?xml version="1.0" standalone="no"?>
<!DOCTYPE svg PUBLIC "-//W3C//DTD SVG 20010904//EN"
 "http://www.w3.org/TR/2001/REC-SVG-20010904/DTD/svg10.dtd">
<svg version="1.0" xmlns="http://www.w3.org/2000/svg"
 width="1024.000000pt" height="1024.000000pt" viewBox="0 0 1024.000000 1024.000000"
 preserveAspectRatio="xMidYMid meet">
<metadata>
Created by potrace 1.10, written by Peter Selinger 2001-2011
</metadata>
<g transform="translate(0.000000,1024.000000) scale(0.100000,-0.100000)"
fill="#000000" stroke="none">
<path d="M3535 9026 c-515 -37 -592 -49 -634 -103 -28 -35 -26 -56 9 -97 42
-47 105 -76 166 -76 53 0 279 27 519 62 123 18 195 22 405 22 265 1 333 -5
560 -49 119 -24 309 -78 432 -125 86 -32 118 -77 173 -244 l45 -137 -55 -185
c-30 -101 -60 -194 -66 -207 -30 -57 -292 -493 -299 -497 -4 -3 -94 -160 -199
-349 -104 -189 -201 -356 -214 -370 -13 -14 -90 -165 -171 -335 -81 -170 -156
-321 -167 -334 -10 -14 -19 -35 -19 -48 0 -12 -51 -116 -113 -231 -117 -215
-145 -279 -216 -493 -83 -255 -119 -428 -192 -930 -37 -257 -48 -505 -30 -697
12 -121 83 -460 132 -628 52 -176 174 -361 307 -465 158 -122 324 -180 622
-215 323 -38 646 2 939 117 40 16 76 26 79 24 2 -3 -10 -200 -28 -438 -35
-473 -34 -510 14 -644 31 -86 62 -135 154 -244 122 -146 286 -282 441 -367 36
-19 97 -55 134 -80 l68 -44 102 11 c83 8 105 14 119 30 24 29 7 70 -56 135
-53 54 -106 86 -189 114 -66 23 -418 281 -467 343 -21 26 -49 74 -62 105 -23
57 -23 65 -23 403 1 306 4 373 28 594 30 270 36 305 134 716 93 390 244 846
440 1325 175 429 530 1333 563 1436 86 263 123 501 123 794 0 287 -21 406
-102 580 -21 44 -48 110 -60 146 -27 82 -133 227 -223 306 -118 104 -256 185
-396 234 -75 26 -733 67 -806 50 -27 -6 -51 -9 -54 -7 -2 3 3 45 12 93 18 101
21 271 5 359 -5 32 -21 96 -35 142 -22 72 -33 91 -93 160 -56 63 -85 86 -164
130 -116 63 -282 132 -402 167 -285 82 -494 90 -1190 41z m2617 -1330 c200
-75 409 -219 463 -319 15 -26 58 -137 95 -247 84 -241 101 -343 101 -600 0
-235 -24 -399 -87 -610 -20 -65 -392 -1018 -477 -1223 l-16 -38 -38 17 c-461
200 -590 244 -1512 519 -344 102 -626 187 -628 189 -5 4 153 334 394 826 192
390 306 600 462 849 337 538 338 538 406 573 94 49 153 60 380 73 351 19 385
19 457 -9z m-2078 -2555 c78 -42 217 -87 1011 -331 506 -155 930 -288 942
-296 12 -8 44 -21 70 -30 26 -9 49 -17 51 -19 2 -1 -24 -67 -56 -146 -197
-479 -360 -975 -457 -1394 -20 -88 -38 -162 -40 -164 -2 -1 -156 -47 -342
-102 l-338 -99 -248 0 c-241 0 -251 1 -325 26 -159 53 -303 149 -403 267 -32
39 -63 85 -68 103 -5 18 -21 48 -35 67 -14 19 -26 45 -26 58 0 13 -11 40 -24
59 -37 56 -77 406 -77 673 0 342 17 447 152 967 110 426 106 410 115 410 4 0
48 -22 98 -49z"/>
</g>
</svg>
