<?xml version="1.0" standalone="no"?>
<!DOCTYPE svg PUBLIC "-//W3C//DTD SVG 20010904//EN"
 "http://www.w3.org/TR/2001/REC-SVG-20010904/DTD/svg10.dtd">
<svg version="1.0" xmlns="http://www.w3.org/2000/svg"
 width="1024.000000pt" height="1024.000000pt" viewBox="0 0 1024.000000 1024.000000"
 preserveAspectRatio="xMidYMid meet">
<metadata>
Created by potrace 1.10, written by Peter Selinger 2001-2011
</metadata>
<g transform="translate(0.000000,1024.000000) scale(0.100000,-0.100000)"
fill="#000000" stroke="none">
<path d="M6585 8690 c-12 -13 -16 -30 -13 -55 2 -19 0 -35 -4 -35 -15 0 -8
-24 43 -134 56 -122 70 -143 113 -161 47 -20 56 -63 56 -290 l0 -200 -239
-715 c-256 -765 -264 -786 -404 -997 -32 -48 -107 -162 -167 -253 -92 -140
-156 -219 -419 -519 -309 -352 -461 -503 -520 -516 -31 -7 -87 -56 -96 -85 -7
-23 -4 -28 63 -111 89 -108 166 -149 285 -149 95 0 134 14 201 71 57 49 58 49
129 49 40 0 82 -3 95 -6 21 -6 21 -7 5 -19 -15 -11 -19 -35 -24 -137 -4 -67
-20 -236 -37 -373 -43 -351 -50 -492 -62 -1145 -6 -316 -15 -624 -20 -685 -14
-179 -23 -477 -15 -552 10 -104 30 -121 188 -162 l125 -33 1124 17 c1154 18
1432 17 2003 -9 462 -22 423 -23 431 20 4 24 2 47 -8 68 l-15 31 -634 32 -634
31 -1140 -23 c-787 -16 -1157 -20 -1195 -13 -115 21 -103 8 -96 101 4 45 31
631 61 1302 37 837 59 1254 71 1327 18 120 15 150 -24 191 l-27 28 195 -6
c163 -6 197 -10 210 -24 37 -40 74 -61 111 -61 42 0 127 30 170 61 25 17 45
19 244 19 l217 0 38 -42 c36 -41 41 -43 91 -42 55 1 141 35 168 68 11 13 34
16 106 16 87 0 94 -2 108 -24 19 -29 130 -86 166 -86 41 1 103 34 138 73 l32
37 146 0 c125 0 145 -2 145 -16 0 -8 13 -29 29 -45 27 -26 36 -29 97 -29 86 0
135 15 184 58 41 34 41 34 165 40 103 4 125 8 128 21 4 13 5 13 6 1 0 -8 28
-32 61 -53 54 -34 66 -37 130 -37 78 0 119 13 166 53 29 24 40 27 112 27 59 0
81 4 85 14 4 9 31 16 79 21 64 7 76 11 105 40 74 74 8 135 -108 101 -51 -15
-119 -21 -119 -11 0 8 111 178 136 207 12 15 37 72 54 125 18 54 47 131 66
172 19 41 34 79 34 86 0 23 -35 56 -62 59 -15 1 -37 11 -48 21 -11 10 -36 21
-56 24 -34 6 -37 9 -39 44 -2 39 -36 87 -62 87 -19 0 -16 13 19 84 29 59 34
64 52 54 11 -6 57 -12 101 -12 l80 -1 3 32 c6 63 -37 111 -115 128 l-32 6 20
57 c12 31 36 89 55 127 41 85 43 123 9 155 -15 14 -25 35 -25 50 0 15 -10 40
-21 55 -19 23 -27 26 -58 21 -95 -16 -136 -16 -155 -1 -18 14 -18 18 -6 70 7
31 17 58 21 61 4 2 50 0 101 -6 80 -9 98 -9 130 6 41 18 51 41 34 76 -9 19
-28 27 -102 43 -50 11 -98 26 -107 34 -23 19 -21 56 6 126 23 60 24 60 63 58
21 -1 53 -4 69 -8 44 -9 67 19 63 76 -3 39 -7 46 -43 66 -22 13 -51 23 -64 23
-19 0 -22 4 -17 23 3 12 6 27 6 34 0 6 19 14 43 18 91 13 95 15 106 47 10 27
8 33 -18 59 -17 17 -40 29 -55 29 -14 0 -26 3 -26 6 0 3 20 71 45 151 25 79
45 161 45 182 0 43 -41 113 -95 160 -43 38 -133 60 -171 42 -15 -6 -29 -10
-31 -7 -3 2 0 29 7 60 l11 55 62 -23 c49 -18 75 -22 122 -18 62 5 75 13 75 48
0 45 -118 123 -187 124 -18 0 -33 3 -33 8 0 4 13 41 29 82 16 41 32 94 36 116
6 41 7 42 57 48 60 8 103 29 118 55 17 32 12 96 -8 114 -17 15 -58 12 -570
-50 l-551 -66 -713 82 c-392 45 -730 85 -751 88 -31 5 -44 14 -68 49 l-30 44
28 -5 c15 -3 105 -14 198 -25 94 -11 298 -36 455 -55 284 -35 287 -35 905 -45
580 -10 634 -9 838 9 241 21 257 26 257 86 0 68 73 63 -1065 74 l-1030 10
-340 70 c-187 39 -352 71 -366 71 -14 0 -34 -9 -44 -20z m459 -436 c50 -9 93
-18 94 -20 2 -1 1 -12 -3 -24 -6 -20 -13 -21 -93 -18 -48 1 -93 -1 -99 -5 -8
-5 -13 -3 -13 6 0 8 -3 29 -6 46 -8 37 -8 37 120 15z m412 -57 c2 -1 -1 -18
-5 -37 l-7 -35 -79 -5 c-44 -3 -81 -6 -81 -5 -1 0 -5 22 -9 49 l-7 49 93 -7
c52 -4 94 -8 95 -9z m1650 -24 c-3 -10 -13 -49 -22 -88 -9 -38 -20 -73 -24
-78 -3 -4 -23 0 -44 8 l-37 16 3 72 3 72 45 6 c80 11 82 10 76 -8z m-1387 1
c27 -6 31 -10 31 -41 0 -28 -3 -33 -17 -29 -34 10 -88 10 -108 -1 -19 -10 -20
-8 -16 33 3 44 3 44 41 44 21 0 52 -3 69 -6z m1128 -26 c-2 -7 -12 -38 -21
-69 l-16 -57 -60 15 c-64 16 -65 18 -50 75 10 34 14 37 53 41 90 8 99 7 94 -5z
m-827 -3 c0 -2 -5 -27 -11 -56 l-11 -51 -51 7 c-29 3 -53 8 -56 10 -2 2 0 25
3 50 l7 45 60 0 c32 0 59 -2 59 -5z m216 -15 l42 0 -25 -76 c-23 -67 -28 -75
-47 -70 -11 3 -29 6 -38 6 -16 0 -18 10 -18 76 0 74 1 76 23 70 12 -3 41 -6
63 -6z m308 -45 c-18 -45 -20 -46 -54 -41 -19 3 -43 6 -52 6 -14 0 -16 6 -11
33 3 17 7 33 8 35 3 4 119 19 124 16 2 -2 -5 -24 -15 -49z m-1436 -59 c5 -6
-17 -78 -28 -89 -4 -4 -39 -2 -78 4 -65 11 -72 14 -72 35 0 13 12 31 28 44 23
18 36 20 86 15 33 -3 61 -7 64 -9z m592 -66 c15 -8 18 -17 13 -48 -3 -20 -8
-40 -12 -44 -3 -3 -32 2 -65 12 -32 10 -64 16 -70 14 -8 -3 -11 6 -8 30 4 31
8 35 36 39 61 8 88 7 106 -3z m-297 -21 c-4 -15 -11 -19 -27 -15 -12 3 -47 8
-79 12 -80 9 -61 24 33 24 74 0 78 -1 73 -21z m561 -76 c-3 -21 -10 -41 -13
-46 -4 -4 -31 -2 -60 4 -45 9 -52 14 -49 32 3 22 55 45 106 46 21 1 22 -2 16
-36z m526 1 c-5 -19 -11 -38 -14 -41 -8 -8 -126 28 -126 38 0 10 86 37 121 38
26 1 27 -1 19 -35z m263 22 c17 -13 17 -17 1 -80 l-17 -67 -58 3 c-32 2 -59 6
-59 10 0 4 5 30 11 58 10 47 15 54 53 71 49 22 46 22 69 5z m261 -36 c5 -5 5
-25 2 -45 -5 -27 -11 -35 -24 -31 -9 2 -33 7 -54 10 l-36 7 10 37 c6 20 12 40
14 44 5 7 75 -10 88 -22z m-854 -15 c24 -13 27 -18 21 -42 -7 -25 -12 -28 -55
-31 -46 -3 -47 -2 -41 20 24 75 27 78 75 53z m-1137 -57 c9 -5 17 -16 17 -26
-1 -23 -27 -142 -32 -148 -5 -5 -99 25 -111 36 -5 4 -4 34 3 66 19 99 16 95
63 88 23 -4 50 -11 60 -16z m344 -13 c3 -9 0 -44 -6 -78 -20 -103 -17 -99 -58
-72 -19 14 -57 28 -84 31 -39 5 -49 10 -45 23 3 9 10 37 17 64 l11 47 80 0
c62 0 80 -3 85 -15z m261 -43 l33 -27 -17 -50 c-9 -27 -18 -51 -19 -53 -1 -2
-21 5 -44 14 -23 9 -51 14 -62 11 -15 -4 -19 -2 -15 10 3 8 9 33 12 54 5 29
14 44 33 54 36 19 41 18 79 -13z m767 -47 l57 -8 -6 -40 c-4 -23 -8 -42 -9
-43 -5 -3 -129 14 -134 19 -11 11 9 88 21 84 7 -3 39 -8 71 -12z m-514 -11
c30 -5 36 -9 32 -25 -5 -16 -15 -19 -69 -19 -35 0 -64 3 -64 8 0 4 3 17 6 30
5 19 12 22 33 18 14 -3 42 -8 62 -12z m1057 -41 c21 -5 23 -10 17 -42 -13 -74
-10 -71 -63 -54 -26 9 -48 17 -49 17 -1 1 3 21 9 44 9 36 14 42 37 42 14 0 37
-3 49 -7z m-798 -27 c0 -9 -14 -13 -50 -12 -54 1 -67 12 -22 19 55 8 72 7 72
-7z m544 -32 c4 -15 5 -28 3 -30 -2 -2 -21 2 -43 9 -21 8 -45 12 -51 10 -7 -3
-13 2 -13 10 0 19 15 25 61 26 32 1 38 -3 43 -25z m575 -23 c12 -16 21 -39 21
-51 0 -18 -4 -21 -23 -16 -58 14 -135 18 -155 7 -25 -13 -26 -12 -13 23 7 17
15 23 29 19 12 -3 30 5 48 21 39 34 68 33 93 -3z m-2019 -66 c25 -10 49 -21
54 -26 8 -7 -11 -128 -24 -150 -5 -8 -19 -7 -51 1 -24 6 -61 16 -81 21 -40 10
-40 9 -22 96 5 29 54 85 68 80 6 -3 31 -13 56 -22z m-273 -33 c7 -17 -16 -134
-31 -154 -11 -15 -16 -15 -72 0 l-61 17 19 82 c19 78 21 83 51 91 34 10 84
-10 94 -36z m878 -72 c-11 -56 -25 -101 -30 -101 -6 -1 -38 2 -72 6 -74 8 -76
13 -42 114 24 71 37 79 115 80 l50 1 -21 -100z m-280 80 c6 -11 -32 -160 -45
-173 -12 -13 -81 25 -76 42 2 9 10 41 17 71 6 30 17 58 23 62 16 11 74 10 81
-2z m521 -32 c2 -3 -5 -32 -17 -65 -18 -55 -23 -61 -52 -66 -18 -2 -34 -3 -35
-2 -4 3 14 101 24 136 4 14 11 15 40 9 20 -5 37 -10 40 -12z m308 -15 c-4 -21
-12 -54 -19 -73 l-12 -35 -69 3 c-38 2 -70 5 -72 7 -3 3 27 114 35 128 2 4 36
7 74 7 l70 0 -7 -37z m238 -11 c6 -6 8 -26 4 -47 -7 -36 -8 -37 -44 -30 -77
13 -78 15 -56 84 5 15 79 10 96 -7z m264 -33 c-3 -17 -6 -37 -6 -43 0 -6 -4
-17 -8 -24 -12 -18 -105 15 -98 35 4 8 9 26 12 39 6 21 12 24 56 24 l51 0 -7
-31z m334 -34 c9 -11 8 -25 -5 -65 -9 -27 -20 -50 -24 -50 -5 0 -31 4 -59 10
-28 5 -67 10 -87 12 -30 2 -35 6 -33 23 3 17 9 19 39 17 31 -3 40 2 65 32 32
38 81 48 104 21z m-2028 -171 c15 -8 30 -18 33 -24 6 -10 -22 -154 -34 -176
-4 -7 -33 0 -87 23 l-82 35 19 71 c10 40 26 77 34 84 19 13 77 7 117 -13z
m1356 -2 c18 -25 19 -32 7 -95 -7 -37 -14 -70 -16 -71 -2 -2 -32 -6 -66 -8
-59 -4 -62 -3 -57 16 2 12 13 55 22 96 18 78 17 77 84 89 4 0 15 -11 26 -27z
m-1078 -40 c0 -4 -9 -49 -21 -99 -23 -99 -27 -103 -85 -87 l-20 5 25 114 24
114 39 -20 c21 -11 38 -23 38 -27z m830 35 c0 -7 -9 -44 -19 -82 -11 -39 -24
-89 -31 -112 l-11 -43 -59 0 c-32 0 -61 4 -65 9 -4 7 40 194 50 208 2 4 109
32 123 32 6 1 12 -5 12 -12z m481 1 c42 -12 45 -19 28 -67 -10 -29 -14 -31
-59 -31 l-48 0 9 43 c17 76 13 73 70 55z m-1926 -20 c38 -25 40 -34 25 -90
l-10 -36 -73 20 c-39 11 -73 22 -75 23 -2 2 2 21 9 43 9 31 18 42 43 50 44 14
43 14 81 -10z m1142 -8 c-3 -11 -16 -63 -28 -116 -13 -53 -29 -99 -36 -101 -7
-3 -24 -2 -37 1 l-24 6 19 57 c10 32 23 84 29 116 11 57 12 57 47 57 30 0 35
-3 30 -20z m-216 -8 c3 -4 -7 -49 -23 -101 l-30 -94 -65 6 c-36 4 -68 9 -70
11 -10 9 28 161 45 179 15 16 25 18 77 12 33 -3 63 -9 66 -13z m1357 -64 l-3
-43 -102 0 c-57 0 -103 1 -103 2 0 17 15 30 31 26 11 -3 32 5 52 19 40 31 54
36 95 37 33 1 33 1 30 -41z m-2347 -172 l36 -25 -25 -95 -25 -95 -36 29 c-20
16 -56 34 -81 41 -25 7 -46 13 -47 14 -2 1 9 31 23 67 23 60 29 67 62 76 54
14 54 14 93 -12z m1959 3 c0 -8 -35 -138 -56 -211 -4 -12 -15 -18 -37 -18 -57
0 -59 6 -30 115 14 55 31 106 36 113 11 15 87 16 87 1z m-1594 -83 c6 -15 -17
-99 -34 -132 -6 -11 -13 -27 -16 -37 -5 -15 -13 -13 -66 20 -107 67 -104 63
-89 112 9 32 20 45 43 55 17 7 37 20 44 29 13 15 18 14 63 -9 28 -14 52 -31
55 -38z m1930 50 c3 -7 -1 -37 -9 -67 l-13 -54 -70 -6 c-38 -4 -89 -14 -113
-23 -41 -15 -43 -15 -36 2 3 9 13 43 22 74 l16 57 71 11 c39 6 78 13 86 14 31
7 41 6 46 -8z m-593 -28 c2 -7 -6 -49 -18 -93 l-22 -80 -49 3 c-75 4 -74 2
-58 78 8 37 16 70 18 72 5 4 96 30 112 31 7 1 14 -5 17 -11z m-803 -40 c0 -22
-39 -240 -44 -245 -2 -2 -41 1 -86 8 -64 9 -80 15 -76 26 3 8 15 51 27 96 11
45 27 88 34 96 24 24 145 39 145 19z m217 -10 c-2 -7 -12 -50 -22 -95 -18 -81
-19 -83 -48 -83 -25 0 -28 3 -24 23 4 12 11 55 18 95 l12 72 35 0 c23 0 33 -4
29 -12z m259 -5 l46 -6 -7 -36 c-4 -20 -11 -57 -17 -83 l-10 -48 -80 0 c-71 0
-79 2 -74 18 3 9 10 37 16 62 26 103 30 112 56 106 13 -4 45 -9 70 -13z m-792
-1 c5 -8 -10 -83 -34 -173 -10 -36 -11 -37 -46 -29 -20 5 -37 10 -40 12 -4 4
43 176 53 191 6 10 61 9 67 -1z m-720 -199 c28 -20 55 -40 59 -43 9 -8 -18
-83 -45 -122 -10 -14 -18 -35 -18 -47 0 -19 -4 -18 -45 14 -41 31 -99 55 -132
55 -18 0 67 168 87 174 33 8 44 5 94 -31z m309 -19 c29 -14 64 -38 79 -52 l27
-25 -19 -28 c-11 -15 -20 -41 -20 -58 0 -17 -12 -53 -27 -81 -27 -48 -43 -62
-43 -38 0 22 -52 79 -91 99 -23 11 -39 26 -36 32 2 7 16 49 32 95 16 45 32 82
37 82 5 0 32 -12 61 -26z m2057 9 c0 -8 -70 -236 -74 -240 -2 -2 -32 3 -67 12
-35 8 -76 15 -91 15 -30 0 -30 -9 2 125 l21 90 105 2 c57 1 104 -1 104 -4z
m-363 -45 c-3 -10 -31 -109 -63 -225 -2 -8 -21 -13 -48 -13 l-44 0 29 107 c37
137 34 131 61 136 48 9 70 7 65 -5z m-263 -35 c4 -17 -5 -63 -23 -118 l-28
-90 -49 3 c-27 2 -50 5 -52 6 -6 7 41 182 55 204 10 17 23 22 52 22 35 0 40
-3 45 -27z m-278 -41 c9 -5 -4 -51 -42 -156 -30 -83 -56 -152 -59 -154 -2 -2
-26 -1 -52 3 l-49 6 30 144 c30 141 31 144 61 153 37 12 96 14 111 4z m-281
-14 c-2 -7 -13 -58 -25 -113 -40 -184 -36 -175 -70 -163 -17 5 -32 14 -35 18
-3 5 5 49 19 97 13 48 29 107 36 131 10 39 13 42 45 42 23 0 33 -4 30 -12z
m-545 -23 c0 -13 -50 -205 -55 -213 -1 -1 -25 3 -54 10 -58 13 -57 0 -9 136
l30 82 44 0 c33 0 44 -4 44 -15z m275 -12 c47 -6 51 -12 36 -59 -6 -16 -21
-68 -36 -116 l-25 -87 -43 19 c-23 11 -59 20 -79 20 -21 0 -38 1 -38 3 0 1 11
44 24 96 27 104 55 146 93 136 13 -3 43 -8 68 -12z m-1076 -134 c45 -17 81
-36 81 -43 0 -7 -15 -46 -33 -88 l-32 -75 -50 39 c-28 21 -67 43 -87 50 -21 6
-38 15 -38 20 0 16 60 128 69 128 5 0 46 -14 90 -31z m326 -35 c15 -10 25 -26
25 -41 0 -29 25 -80 42 -85 8 -3 5 -18 -11 -53 -13 -27 -27 -60 -32 -73 l-9
-24 -38 30 c-20 17 -53 44 -71 60 l-35 29 39 86 c21 49 44 87 52 87 8 0 25 -7
38 -16z m2362 -36 l91 -12 -14 -28 c-8 -15 -14 -34 -14 -42 0 -8 -11 -35 -25
-60 -14 -25 -25 -49 -25 -55 0 -5 -4 -21 -9 -34 -9 -24 -11 -25 -54 -14 -24 7
-63 28 -86 47 l-42 36 33 96 c22 66 36 94 43 88 6 -5 52 -15 102 -22z m-297
-9 c7 -11 9 -31 6 -44 -6 -23 -6 -23 -65 -9 -40 9 -69 10 -91 4 -27 -8 -31 -7
-26 6 3 9 6 18 6 20 0 2 11 4 24 4 13 0 34 9 47 20 33 27 85 26 99 -1z m-343
-29 c16 0 20 -5 16 -20 -5 -17 -11 -19 -47 -14 -49 8 -50 9 -42 30 4 11 13 14
29 10 12 -3 32 -6 44 -6z m-252 -48 c-9 -2 -29 -1 -43 3 l-27 7 25 13 c22 12
28 11 44 -3 17 -16 17 -17 1 -20z m-1115 -47 c10 -12 6 -32 -21 -109 l-33 -94
-44 24 c-25 13 -58 24 -73 24 l-29 0 42 85 42 85 52 0 c34 0 56 -5 64 -15z
m548 -49 c3 -3 -9 -50 -27 -105 l-31 -99 -35 11 c-39 12 -44 30 -21 75 7 15
19 51 26 81 l13 53 35 -5 c19 -4 37 -8 40 -11z m-1357 -26 c33 -17 62 -37 65
-45 5 -11 -91 -185 -122 -224 -1 -2 -17 13 -33 32 -17 19 -55 45 -83 57 -29
12 -54 24 -56 25 -5 5 90 159 106 173 25 19 58 14 123 -18z m1135 15 c-3 -9
-19 -60 -36 -114 l-31 -99 -42 23 c-23 13 -57 26 -74 30 -18 4 -33 10 -33 13
0 4 12 39 26 79 29 80 26 78 143 81 44 2 52 -1 47 -13z m699 -17 c25 -12 45
-27 45 -32 -1 -6 -22 -69 -48 -141 -35 -94 -52 -129 -62 -126 -8 2 -34 4 -58
5 -23 0 -41 5 -39 11 32 89 112 305 114 305 1 0 23 -10 48 -22z m-230 -15 c-3
-16 -15 -58 -26 -95 l-21 -67 -43 14 c-24 7 -47 10 -51 6 -7 -6 -6 -5 26 102
l21 67 50 0 c51 0 51 0 44 -27z m505 18 l26 -6 -54 -137 c-52 -132 -56 -138
-83 -138 -15 0 -31 5 -34 10 -4 6 15 71 41 145 49 141 48 140 104 126z m350
-18 c0 -5 -19 -56 -42 -116 l-41 -108 -41 6 c-23 3 -57 7 -77 8 l-36 2 34 102
34 102 67 4 c37 2 75 4 85 5 9 1 17 -1 17 -5z m-2117 -88 c31 -25 57 -49 57
-54 0 -6 -28 -57 -63 -115 l-64 -105 -33 34 c-18 19 -50 40 -69 46 -20 6 -39
13 -43 15 -9 5 99 196 119 212 25 18 33 16 96 -33z m2363 -73 c35 -3 54 -9 51
-16 -43 -106 -53 -125 -67 -122 -8 3 -36 7 -61 11 -32 4 -54 14 -71 33 l-25
27 19 62 19 63 40 -27 c27 -18 58 -28 95 -31z m-2059 -63 c18 -6 35 -19 38
-29 4 -12 -18 -71 -56 -157 -35 -76 -64 -140 -66 -142 -1 -2 -21 17 -43 42
-24 27 -56 51 -80 59 l-39 13 66 119 66 118 41 -6 c23 -4 55 -11 73 -17z
m-869 -73 c15 -8 41 -29 58 -48 l32 -33 -63 -83 -63 -82 -19 23 c-10 14 -50
35 -96 52 -53 19 -75 31 -69 39 4 6 32 41 61 79 49 63 55 67 92 67 22 0 52 -6
67 -14z m1181 0 c29 -8 54 -16 56 -18 6 -6 -113 -293 -121 -291 -36 10 -164
68 -164 75 0 5 27 62 60 128 68 135 65 133 169 106z m298 0 c3 -3 -16 -68 -42
-146 -44 -131 -48 -140 -68 -134 -61 19 -69 24 -62 42 6 15 61 162 87 231 7
21 13 23 44 18 20 -4 39 -8 41 -11z m233 -6 c12 -8 4 -30 -50 -140 -35 -71
-69 -130 -75 -130 -5 0 -20 3 -31 6 -21 6 -20 9 25 132 46 123 58 140 101 141
8 0 22 -4 30 -9z m815 -117 c-37 -110 -33 -103 -63 -87 -15 8 -53 14 -84 14
l-57 0 20 48 c12 26 25 57 30 70 8 20 15 22 93 22 l85 0 -24 -67z m-343 27
c13 0 9 -16 -25 -95 -37 -87 -43 -95 -68 -95 -47 0 -46 0 20 174 9 23 16 27
34 22 12 -3 29 -6 39 -6z m624 -30 c35 0 64 -3 64 -7 0 -3 -7 -30 -17 -59 -17
-54 -29 -64 -83 -64 -14 0 -38 9 -55 20 -16 11 -37 20 -47 20 -15 0 -14 6 5
64 l21 65 24 -20 c19 -14 41 -19 88 -19z m-2437 -34 c35 -36 52 -60 48 -70 -4
-9 -34 -57 -68 -108 l-62 -91 -23 45 c-22 43 -62 85 -112 118 l-23 15 50 67
c54 71 61 76 106 77 24 1 42 -10 84 -53z m1572 2 c-5 -13 -21 -49 -35 -81
l-26 -58 -48 6 c-77 10 -76 9 -43 74 26 51 35 60 68 69 21 5 50 10 65 11 25 1
27 -1 19 -21z m1063 -146 c30 -34 69 -52 110 -52 l36 0 -18 -46 c-10 -25 -20
-46 -23 -46 -22 -2 -89 28 -89 40 0 20 -39 62 -57 62 -16 0 -16 3 -1 53 7 22
14 34 16 26 3 -8 14 -25 26 -37z m-2321 -62 c20 -32 20 -32 -32 -103 l-34 -47
-43 40 c-24 22 -54 42 -68 46 -14 3 -26 8 -26 10 0 7 51 107 67 131 l15 22 52
-34 c28 -19 60 -48 69 -65z m-848 37 l47 -24 -47 -54 c-81 -92 -71 -88 -107
-45 -34 41 -81 66 -124 66 l-27 0 39 45 39 45 67 -4 c43 -3 82 -13 113 -29z
m2895 -56 l25 -20 -35 -70 c-39 -82 -59 -90 -87 -33 -10 20 -28 41 -39 46
l-21 10 24 73 25 73 41 -30 c23 -17 53 -39 67 -49z m-311 20 c11 -7 11 -17 -4
-62 -10 -30 -24 -66 -31 -80 l-13 -27 -40 20 c-29 14 -55 19 -94 16 l-53 -3
34 65 c30 59 37 66 70 71 58 10 116 10 131 0z m-1437 -43 l76 -31 -25 -52 -26
-53 -51 24 c-33 16 -69 24 -104 24 l-52 0 26 53 c34 68 44 79 63 72 9 -3 50
-20 93 -37z m-903 -2 c21 -13 52 -42 70 -65 17 -22 41 -41 52 -43 17 -3 12
-14 -42 -92 l-62 -88 -18 47 c-22 58 -51 90 -107 119 l-43 22 48 61 c26 34 51
62 56 63 4 0 25 -11 46 -24z m1224 -4 c15 -16 12 -24 -33 -102 -27 -47 -51
-89 -53 -94 -3 -8 -77 11 -77 20 0 2 21 47 47 99 42 84 51 95 74 95 14 0 33
-8 42 -18z m207 -12 c0 -5 -17 -43 -37 -85 -25 -49 -43 -75 -54 -75 -22 0 -14
35 17 72 12 16 28 44 35 63 12 32 39 49 39 25z m548 -5 c2 -1 -8 -27 -21 -57
-25 -56 -42 -68 -95 -68 -22 0 -22 1 13 70 34 68 36 69 67 63 18 -3 34 -7 36
-8z m-308 -5 c30 -6 55 -12 57 -14 2 -2 -6 -24 -18 -49 l-23 -46 -30 18 c-17
10 -43 21 -58 25 l-28 6 17 35 c9 19 20 35 23 35 4 0 31 -5 60 -10z m1269
-146 c44 -7 53 -31 10 -26 -13 2 -42 -2 -64 -8 -47 -13 -88 -2 -104 29 -8 14
-6 31 6 64 l16 45 48 -49 c36 -37 57 -50 88 -55z m-3459 41 c51 -6 100 -33
100 -57 0 -4 -22 -29 -48 -55 -26 -27 -78 -81 -115 -122 l-67 -73 -34 29 c-27
25 -49 33 -117 43 -46 7 -88 15 -93 18 -13 7 23 32 39 26 7 -3 55 41 110 100
95 102 100 106 134 101 20 -2 61 -7 91 -10z m918 -51 c23 -19 42 -41 42 -47
-1 -7 -25 -38 -54 -69 l-54 -57 -51 36 c-28 20 -51 39 -51 44 0 4 17 35 38 68
45 74 69 78 130 25z m2080 -200 c-33 -68 -38 -86 -28 -103 10 -20 8 -21 -27
-21 -21 0 -54 -3 -74 -6 -58 -10 -56 16 13 168 l60 133 48 -44 48 -44 -40 -83z
m-2614 91 c34 -36 49 -45 77 -45 l34 -1 -25 -19 c-93 -74 -101 -83 -112 -126
l-12 -44 -96 0 c-52 0 -132 3 -178 7 l-82 6 127 133 128 132 49 1 c45 1 51 -2
90 -44z m931 25 l28 -11 -42 -43 -42 -43 -87 20 c-48 11 -88 21 -90 22 -9 8
27 49 53 61 33 16 131 13 180 -6z m780 -7 l42 -28 -39 -79 -39 -78 -27 31
c-15 18 -44 38 -64 44 l-37 13 37 62 c43 72 61 77 127 35z m639 10 c4 -9 -5
-46 -20 -83 l-26 -67 -83 21 c-81 20 -84 22 -78 46 3 14 12 34 19 45 8 11 14
27 14 37 0 16 10 18 84 18 69 0 85 -3 90 -17z m-372 -105 c-14 -51 -26 -107
-25 -125 l1 -31 -79 -7 c-44 -4 -82 -5 -85 -2 -3 3 21 51 52 108 86 157 79
149 124 149 l39 0 -27 -92z m893 36 l30 -25 -40 7 c-48 8 -47 7 -39 28 8 21
13 20 49 -10z m-1675 -8 c0 -3 -9 -21 -21 -40 -17 -29 -26 -35 -45 -31 -13 3
-35 7 -49 10 -53 11 10 64 78 65 20 0 37 -2 37 -4z m164 -78 c-22 -46 -33 -81
-29 -95 5 -22 2 -23 -49 -23 l-55 0 66 95 c42 59 74 95 85 95 15 0 13 -10 -18
-72z m1633 35 c-16 -16 -18 -16 -34 0 -16 16 -15 17 17 17 32 0 33 -1 17 -17z
m-2692 -41 c11 -4 28 -12 38 -18 18 -10 17 -13 -8 -55 -14 -24 -30 -56 -36
-71 -7 -17 -21 -29 -39 -33 -24 -5 -34 0 -64 32 -20 21 -36 42 -36 46 0 5 19
30 43 58 41 48 58 55 102 41z m470 -53 c26 -10 31 -16 27 -35 -4 -24 -5 -24
-138 -24 -74 0 -134 3 -134 6 0 3 10 18 23 34 21 26 27 28 106 29 47 0 99 -4
116 -10z m-1435 -39 c0 -12 -9 -38 -20 -60 -18 -36 -23 -39 -75 -45 -61 -8
-122 -2 -138 14 -14 14 0 59 28 87 22 22 32 24 115 24 84 0 90 -1 90 -20z
m3541 4 c11 -14 9 -20 -19 -45 -25 -23 -42 -29 -77 -29 -55 0 -59 18 -14 61
35 33 88 39 110 13z m-1331 -26 c17 -21 17 -23 -4 -55 -13 -21 -29 -33 -43
-33 -20 0 -22 4 -17 33 6 32 29 77 40 77 3 0 14 -10 24 -22z m670 7 c21 -25
-46 -94 -92 -95 -35 0 -12 59 34 88 40 26 42 26 58 7z m-1165 -45 c-21 -22
-38 -30 -62 -30 -18 0 -33 4 -33 10 0 14 70 49 99 50 l25 0 -29 -30z"/>
<path d="M2470 8381 c-92 -30 -195 -99 -389 -263 -57 -48 -112 -101 -122 -118
-10 -16 -40 -56 -66 -87 -247 -304 -395 -741 -363 -1075 12 -117 43 -247 62
-259 7 -5 23 -9 36 -9 12 0 22 -3 22 -7 0 -25 -56 -168 -74 -191 -12 -15 -72
-97 -133 -182 -105 -147 -183 -296 -222 -420 -54 -176 -111 -590 -111 -811 0
-205 22 -353 96 -654 80 -319 88 -332 190 -286 l41 18 699 -98 c384 -54 752
-105 817 -114 154 -22 303 -56 442 -101 l111 -36 77 43 c42 24 75 49 73 56 -5
12 230 157 287 177 48 17 57 25 57 50 0 13 -51 144 -114 292 -93 223 -116 287
-130 366 -29 173 -16 411 34 626 l22 92 41 -8 c23 -4 74 -7 113 -6 63 0 78 4
148 42 261 141 434 376 518 702 35 137 47 328 29 455 -14 98 -114 474 -142
532 -42 87 -172 201 -249 218 -17 4 -32 10 -34 14 -3 4 5 36 18 71 27 80 232
396 322 496 35 40 64 81 64 91 0 24 -68 74 -135 98 -27 10 -61 26 -75 35 -14
9 -54 24 -90 33 -78 19 -1636 191 -1658 182 -8 -3 -21 3 -29 14 -14 20 -71 41
-108 40 -11 0 -45 -8 -75 -18z m114 -160 c19 -18 90 -26 696 -81 639 -58 680
-63 768 -91 50 -17 92 -33 92 -35 0 -2 -39 -46 -86 -96 -86 -94 -90 -100 -193
-321 -17 -37 -31 -74 -31 -83 0 -8 -13 -41 -29 -72 -29 -57 -29 -58 -49 -420
-12 -200 -18 -370 -15 -378 4 -11 -5 -14 -41 -14 -46 0 -46 0 -46 34 0 52 -37
160 -91 269 -44 88 -51 96 -69 87 -10 -5 -22 -14 -25 -20 -3 -5 17 -85 45
-178 27 -93 50 -175 50 -181 0 -8 -15 -11 -42 -9 l-43 3 -23 85 c-13 47 -27
114 -33 149 -16 110 -72 181 -107 138 -14 -17 16 -244 42 -316 22 -59 21 -61
-22 -61 l-38 0 -41 153 c-28 106 -39 164 -36 191 4 31 1 42 -13 53 -38 28 -51
17 -64 -54 -12 -66 -11 -72 24 -193 20 -68 36 -128 36 -132 0 -4 -18 -8 -40
-8 -22 0 -40 1 -40 3 0 27 -68 224 -100 287 -50 101 -43 92 -64 84 -23 -9 -21
-25 24 -204 22 -88 40 -162 40 -165 0 -3 -13 -5 -29 -5 -26 0 -32 8 -66 76
-20 42 -47 116 -59 165 -30 118 -52 142 -91 100 -16 -19 -15 -26 29 -166 25
-81 46 -151 46 -156 0 -5 -10 -9 -23 -9 -19 0 -32 16 -70 83 -25 45 -59 123
-76 172 -34 101 -57 127 -86 99 -27 -27 -14 -101 39 -231 25 -61 46 -115 46
-118 0 -13 -53 0 -61 15 -24 48 -59 132 -74 180 -20 67 -43 105 -87 147 -32
31 -35 32 -55 18 -26 -18 -25 -25 61 -214 31 -69 56 -128 56 -133 0 -4 -21 -8
-48 -8 l-48 0 -29 108 c-28 104 -116 302 -133 302 -5 0 -17 -9 -27 -20 -17
-18 -15 -26 29 -193 25 -96 46 -178 46 -181 0 -3 -7 -6 -15 -6 -13 0 -22 22
-41 105 -3 17 -15 46 -25 65 -10 19 -25 66 -34 104 -8 37 -31 97 -51 132 -31
55 -38 63 -54 54 -11 -6 -22 -15 -25 -20 -11 -18 55 -283 76 -306 11 -11 19
-32 19 -46 0 -15 4 -38 10 -52 9 -25 8 -26 -29 -26 l-39 0 -21 83 c-41 159
-93 322 -109 340 -21 24 -40 21 -53 -6 -8 -18 -6 -40 9 -93 25 -87 59 -226 67
-280 l6 -41 -31 5 c-41 6 -60 48 -106 242 -45 187 -65 218 -109 170 -18 -20
-17 -25 28 -212 26 -105 46 -192 45 -193 -7 -5 -128 11 -134 18 -14 13 -17
262 -5 333 7 38 40 166 73 284 l60 215 110 170 c143 219 195 284 293 362 90
71 263 163 309 163 16 0 39 -9 50 -19z m1828 -262 c20 -11 19 -12 -15 -47 -39
-42 -196 -275 -249 -372 -27 -49 -54 -133 -107 -333 -40 -151 -71 -289 -71
-315 0 -40 13 -99 36 -172 4 -12 -9 -21 -48 -34 -29 -9 -58 -20 -65 -22 -7 -4
-13 21 -18 78 -4 62 2 149 24 345 30 256 31 264 80 397 62 169 56 157 165 299
81 106 98 122 156 152 72 38 82 40 112 24z m-131 -806 c68 -53 104 -106 128
-192 10 -36 31 -95 45 -131 15 -36 39 -128 53 -205 46 -255 22 -447 -82 -660
-92 -188 -216 -320 -375 -400 -61 -30 -190 -56 -190 -37 0 16 18 34 28 28 6
-3 85 49 177 117 161 119 167 125 211 202 46 80 111 247 140 360 40 154 37
328 -10 481 -67 222 -101 278 -199 329 l-53 28 19 73 c18 64 22 72 36 61 9 -7
42 -31 72 -54z m-51 -358 c33 -67 50 -176 50 -310 0 -102 -13 -193 -46 -326
-25 -105 -27 -109 -117 -229 -78 -103 -93 -119 -102 -104 -21 37 -111 127
-151 150 -49 29 -171 66 -229 69 -64 4 -1409 278 -1641 335 l-211 51 11 57 12
57 64 3 c36 1 434 -11 884 -28 948 -35 1006 -36 1046 -15 22 11 35 12 59 4 39
-14 103 5 231 69 69 35 99 56 113 80 l19 31 -43 39 c-41 39 -42 41 -47 118
l-4 79 36 -35 c21 -19 50 -62 66 -95z m-1685 -679 c540 -129 741 -172 880
-191 99 -14 183 -25 187 -25 4 0 -16 -39 -45 -87 -42 -69 -67 -132 -119 -293
-36 -113 -71 -229 -77 -258 -6 -28 -18 -193 -27 -365 -13 -257 -14 -340 -4
-470 14 -196 50 -411 84 -498 l25 -67 -35 8 c-20 5 -37 10 -38 12 -81 109 -96
166 -103 384 -5 142 -8 162 -24 172 -33 21 -46 4 -58 -74 -20 -135 -10 -248
33 -376 l22 -68 -23 0 c-20 0 -30 13 -63 83 -57 118 -71 183 -71 312 1 61 2
119 3 129 2 14 -6 23 -24 30 -15 5 -30 8 -32 5 -15 -15 -36 -134 -36 -202 0
-82 31 -239 57 -290 8 -16 13 -30 11 -32 -2 -1 -20 0 -41 3 -35 4 -40 9 -68
63 -56 112 -75 255 -48 379 10 45 9 54 -7 71 -23 25 -39 24 -62 -6 -16 -20
-21 -48 -27 -147 l-7 -123 36 -100 c20 -55 36 -101 36 -102 0 -2 -19 -3 -43
-3 -40 0 -45 3 -66 41 -18 31 -30 84 -48 213 -22 161 -23 173 -7 200 16 27 16
29 -9 53 l-24 25 -33 -29 -33 -30 2 -124 c2 -105 7 -139 32 -220 16 -53 29
-99 29 -103 0 -4 -12 -6 -27 -4 -20 2 -28 8 -26 22 0 10 -12 46 -28 79 -47 99
-63 192 -56 329 5 109 4 119 -14 129 -19 10 -59 -3 -59 -19 0 -4 -5 -68 -10
-142 -14 -178 3 -255 77 -359 18 -24 18 -25 -7 -18 -14 4 -35 7 -47 7 -14 0
-23 6 -23 16 0 8 -12 31 -26 49 -54 71 -67 126 -73 309 -5 146 -8 170 -23 180
-32 20 -52 -5 -66 -80 -11 -63 -10 -84 14 -239 21 -137 30 -175 47 -194 l22
-24 -59 8 c-90 11 -77 -8 -127 175 -13 49 -23 123 -27 215 l-7 140 -29 0 c-27
0 -32 -5 -47 -50 -10 -27 -18 -70 -19 -94 0 -59 37 -275 56 -319 8 -19 12 -37
10 -40 -12 -11 -26 13 -37 63 -7 30 -18 55 -24 55 -31 0 -57 182 -44 301 9 76
8 85 -10 102 -10 11 -24 16 -30 13 -25 -16 -50 -87 -62 -178 -15 -119 -4 -184
47 -259 40 -60 43 -79 12 -72 -36 9 -57 33 -64 72 -4 20 -14 45 -24 56 -16 17
-19 45 -22 202 -3 168 -5 183 -23 197 -48 35 -74 -27 -82 -190 -4 -91 -2 -125
16 -194 11 -46 28 -92 37 -102 16 -17 16 -18 -12 -18 -36 0 -50 10 -51 35 -1
11 -14 52 -29 90 -26 64 -28 82 -30 218 -2 81 -6 152 -9 157 -3 6 -17 10 -30
10 -21 0 -25 -7 -41 -76 -12 -54 -15 -100 -11 -153 6 -79 32 -199 48 -215 19
-20 9 -36 -22 -36 -17 0 -28 4 -24 10 3 5 -3 22 -15 38 -16 22 -24 57 -35 163
-19 175 -19 239 0 266 14 20 14 24 -7 42 -29 28 -35 27 -75 -16 l-35 -38 7
-80 c4 -44 10 -132 15 -195 4 -63 12 -127 18 -142 10 -25 9 -26 -25 -33 -20
-3 -39 -3 -43 2 -27 30 -63 172 -95 371 -50 321 -50 466 5 863 31 220 46 299
59 318 10 14 31 55 46 91 64 154 176 322 274 414 53 49 53 49 109 43 32 -3
372 -80 757 -171z m1284 -310 l33 -34 -71 -85 c-64 -76 -76 -97 -107 -189 -39
-116 -80 -304 -92 -421 -5 -48 -3 -156 5 -281 12 -198 14 -206 57 -332 24 -71
51 -154 60 -184 9 -30 34 -89 55 -130 l38 -74 -106 -67 c-67 -42 -108 -62
-112 -55 -3 6 -22 79 -42 161 -33 139 -38 175 -56 475 l-20 325 25 195 c28
221 82 414 156 561 37 75 112 169 134 169 6 0 25 -15 43 -34z"/>
<path d="M5855 6880 c-558 -193 -555 -192 -555 -210 0 -20 19 -30 56 -30 14 0
183 50 377 110 194 61 369 113 390 117 28 4 42 13 50 31 10 21 8 27 -12 43
-13 11 -35 19 -50 18 -14 0 -129 -36 -256 -79z"/>
<path d="M5081 6723 l-171 -178 22 -19 c40 -33 160 -84 263 -112 146 -39 152
-39 159 -16 10 30 -3 50 -37 61 -18 5 -77 24 -132 40 -55 17 -111 40 -125 51
l-25 19 148 149 c142 142 147 149 129 165 -38 34 -55 22 -231 -160z"/>
</g>
</svg>
