<?xml version="1.0" standalone="no"?>
<!DOCTYPE svg PUBLIC "-//W3C//DTD SVG 20010904//EN"
 "http://www.w3.org/TR/2001/REC-SVG-20010904/DTD/svg10.dtd">
<svg version="1.0" xmlns="http://www.w3.org/2000/svg"
 width="1024.000000pt" height="1024.000000pt" viewBox="0 0 1024.000000 1024.000000"
 preserveAspectRatio="xMidYMid meet">
<metadata>
Created by potrace 1.10, written by Peter Selinger 2001-2011
</metadata>
<g transform="translate(0.000000,1024.000000) scale(0.100000,-0.100000)"
fill="#000000" stroke="none">
<path d="M6470 9034 c-217 -30 -579 -79 -805 -109 -887 -117 -1485 -197 -1810
-242 l-340 -46 -308 18 c-170 9 -311 14 -314 11 -3 -3 11 -51 32 -106 33 -89
44 -106 95 -153 56 -53 161 -114 234 -137 22 -7 65 -26 97 -41 32 -16 86 -35
119 -43 l62 -15 271 61 c307 68 284 70 312 -26 37 -122 39 -222 14 -491 -46
-489 -273 -1779 -558 -3180 -55 -269 -141 -691 -190 -937 -195 -960 -339
-1459 -479 -1660 -42 -60 -142 -237 -142 -251 0 -7 25 -82 56 -167 60 -164 57
-161 171 -256 l42 -35 183 114 c266 166 294 181 702 384 570 284 894 458 1251
671 182 108 305 189 305 200 -1 4 -9 18 -20 30 l-20 24 -382 -137 c-1131 -405
-1148 -411 -1370 -466 l-218 -54 -21 21 -21 21 478 2154 c263 1185 479 2156
481 2158 1 2 59 -8 127 -24 l124 -28 490 117 c420 99 522 120 704 143 210 26
214 26 252 8 47 -23 75 -78 76 -149 0 -121 -44 -569 -75 -756 -70 -423 -255
-1632 -304 -1985 -174 -1261 -211 -1584 -211 -1861 0 -450 139 -683 462 -774
116 -33 252 -50 398 -50 74 0 417 22 761 50 584 46 631 51 697 76 83 30 146
81 162 129 20 60 -23 170 -110 280 -26 33 -59 84 -74 112 -56 112 -58 133 -65
713 -5 491 -7 538 -24 563 -43 66 -83 -26 -123 -279 -91 -588 -222 -962 -378
-1086 -142 -114 -388 -172 -721 -172 -157 0 -188 3 -244 22 -226 75 -320 274
-291 617 15 178 64 591 105 875 19 129 50 354 70 500 37 273 132 921 210 1440
25 162 61 403 80 535 63 427 125 783 159 918 20 75 59 187 90 260 31 70 56
138 56 151 0 31 -54 110 -104 150 -48 39 -356 206 -380 206 -42 0 -327 -72
-813 -204 -509 -139 -542 -147 -795 -184 -144 -22 -264 -39 -265 -38 -1 1 55
271 124 601 69 330 127 621 130 646 6 55 -14 124 -63 220 -42 80 -131 193
-180 228 -21 15 -31 27 -23 28 25 5 2622 274 2721 283 154 13 218 56 218 146
0 58 -47 116 -171 212 -13 10 -231 80 -299 96 -8 2 -193 -21 -410 -50z"/>
<path d="M4350 5202 l-23 -19 205 -279 205 -279 184 -389 c196 -413 228 -466
285 -466 160 0 261 163 267 425 2 89 -1 106 -24 155 -66 140 -276 361 -514
542 -155 117 -470 307 -536 323 -17 4 -33 0 -49 -13z"/>
</g>
</svg>
