<?xml version="1.0" standalone="no"?>
<!DOCTYPE svg PUBLIC "-//W3C//DTD SVG 20010904//EN"
 "http://www.w3.org/TR/2001/REC-SVG-20010904/DTD/svg10.dtd">
<svg version="1.0" xmlns="http://www.w3.org/2000/svg"
 width="1024.000000pt" height="1024.000000pt" viewBox="0 0 1024.000000 1024.000000"
 preserveAspectRatio="xMidYMid meet">
<metadata>
Created by potrace 1.10, written by Peter Selinger 2001-2011
</metadata>
<g transform="translate(0.000000,1024.000000) scale(0.100000,-0.100000)"
fill="#000000" stroke="none">
<path d="M4365 9315 c-511 -46 -1215 -109 -1564 -139 -579 -51 -638 -58 -675
-79 -29 -16 -45 -33 -56 -62 -8 -22 -24 -53 -34 -68 -16 -24 -19 -48 -20 -160
0 -73 6 -168 13 -212 12 -68 11 -148 -3 -550 -38 -1079 -176 -5631 -186 -6125
-5 -294 -15 -562 -20 -595 -35 -212 -61 -466 -56 -535 11 -134 23 -172 67
-203 l39 -28 54 24 c65 30 91 70 82 126 -3 20 -9 59 -12 86 -5 43 36 980 176
4045 26 558 33 863 50 2055 10 770 22 1535 25 1700 l6 300 602 72 c331 39 739
88 907 108 565 68 700 76 1453 82 595 5 856 -1 1247 -28 479 -33 771 -68 975
-118 125 -31 348 -102 400 -129 16 -8 67 -28 114 -43 57 -19 97 -40 121 -62
19 -19 68 -53 108 -76 62 -36 81 -54 117 -110 24 -36 48 -86 55 -110 12 -47 6
-114 -15 -146 -7 -11 -15 -34 -19 -51 -9 -38 -86 -126 -169 -193 -128 -101
-283 -169 -454 -197 -85 -14 -166 -16 -625 -10 -511 6 -531 5 -620 -15 -70
-16 -112 -33 -168 -67 -88 -54 -218 -151 -314 -236 -76 -68 -196 -207 -196
-227 0 -8 -19 -51 -42 -96 -73 -145 -63 -275 29 -397 21 -28 52 -58 69 -68 55
-32 252 -60 467 -65 230 -6 350 4 592 52 94 19 211 40 260 47 117 16 493 17
610 0 410 -58 608 -153 693 -334 62 -132 64 -179 22 -756 -17 -230 -44 -599
-60 -822 -97 -1335 -99 -1376 -145 -2635 -41 -1143 -46 -1246 -66 -1323 -31
-123 -19 -162 64 -197 50 -21 81 -19 112 8 23 20 28 37 49 182 13 88 29 248
35 355 6 107 22 386 36 620 14 234 70 1201 125 2150 54 949 104 1786 110 1860
31 412 -24 667 -181 844 -49 54 -166 146 -186 146 -6 0 -66 18 -134 39 -379
121 -867 145 -1304 66 -98 -18 -229 -29 -533 -46 l-404 -22 -41 30 c-40 28
-42 32 -39 74 2 24 9 54 17 66 8 12 15 33 15 46 0 58 208 286 353 385 152 105
90 96 757 103 555 5 590 6 693 27 238 50 444 142 570 255 134 119 172 162 207
234 32 65 34 74 40 218 11 239 -5 282 -161 429 -106 99 -216 176 -345 240
-182 90 -223 100 -889 212 l-620 104 -430 10 c-236 5 -518 11 -625 13 -183 5
-253 0 -1125 -78z"/>
<path d="M4110 8511 c-371 -37 -697 -71 -723 -75 -32 -5 -59 -17 -82 -38 -31
-26 -35 -36 -35 -77 0 -37 5 -52 23 -69 l23 -22 701 45 c386 25 743 45 795 45
51 1 444 -9 874 -22 l781 -22 16 -28 c21 -37 54 -43 160 -31 92 11 123 25 160
75 28 38 34 108 11 136 -19 22 -31 23 -954 82 -514 32 -966 61 -1005 64 -46 3
-306 -19 -745 -63z"/>
<path d="M3102 6968 c-46 -38 -54 -69 -41 -165 27 -198 155 -338 363 -398 33
-10 132 -47 221 -84 102 -43 251 -93 402 -136 l240 -68 134 -104 c74 -58 135
-108 137 -112 1 -4 -68 -28 -155 -55 -162 -49 -276 -100 -376 -168 -94 -64
-190 -151 -255 -232 -153 -191 -371 -618 -406 -797 -10 -46 -28 -115 -42 -154
-39 -107 -74 -288 -74 -381 0 -213 80 -455 198 -598 48 -58 130 -121 197 -152
28 -13 266 -82 530 -154 457 -125 484 -134 555 -179 l75 -47 7 -55 c10 -81 -7
-176 -52 -289 -116 -291 -154 -580 -115 -871 54 -412 200 -632 503 -760 71
-30 90 -33 242 -42 l165 -10 125 42 c616 207 1076 662 1231 1221 59 215 60
230 69 835 7 545 8 563 33 681 51 242 101 371 193 490 123 162 293 241 561
262 134 11 153 21 153 88 0 34 -7 51 -31 79 l-31 35 -127 0 c-261 -1 -450 -72
-623 -238 -114 -109 -182 -216 -251 -397 -73 -194 -96 -322 -103 -575 -21
-890 -25 -969 -54 -1130 -40 -221 -121 -397 -269 -582 -114 -143 -330 -330
-510 -442 l-87 -53 -351 -13 -352 -12 -28 33 c-15 19 -49 57 -74 84 -44 47
-50 60 -97 220 -67 225 -76 279 -69 444 4 106 11 157 32 231 14 52 40 154 56
225 16 72 44 171 61 220 29 81 32 101 33 205 0 67 -5 130 -13 150 -25 72 -166
184 -289 230 -29 11 -117 34 -195 51 -294 64 -773 209 -852 258 -48 30 -105
96 -128 149 -30 67 -57 212 -64 342 -10 178 12 300 98 555 89 264 96 280 202
448 48 76 90 147 94 157 4 11 61 67 127 126 103 92 134 114 230 160 133 64
305 124 442 154 l101 23 29 -22 c78 -62 197 -179 242 -239 132 -174 236 -473
198 -565 -10 -24 -16 -111 -21 -312 -7 -275 -8 -284 -53 -524 -42 -231 -44
-247 -31 -295 11 -43 17 -51 36 -50 12 0 53 1 90 2 l69 2 21 73 c61 211 112
732 112 1154 l0 202 -38 98 c-47 122 -176 319 -275 420 -39 40 -69 74 -66 76
2 2 65 0 140 -4 114 -6 209 -23 570 -98 821 -171 820 -171 925 -240 61 -40
104 -78 165 -149 31 -36 42 -42 74 -42 41 0 99 31 115 60 28 51 -2 145 -61
195 -37 31 -238 133 -384 195 -121 52 -391 141 -495 165 -41 9 -341 42 -666
74 l-592 58 -93 83 c-233 207 -491 334 -798 394 -138 28 -262 74 -428 161
-182 95 -261 149 -268 182 -20 97 -39 137 -85 184 -27 27 -58 49 -68 49 -11 0
-38 -15 -60 -32z"/>
<path d="M10043 973 c-24 -5 -32 -23 -10 -23 6 0 22 -3 35 -6 18 -5 22 -2 22
15 0 21 -5 22 -47 14z"/>
</g>
</svg>
