<?xml version="1.0" standalone="no"?>
<!DOCTYPE svg PUBLIC "-//W3C//DTD SVG 20010904//EN"
 "http://www.w3.org/TR/2001/REC-SVG-20010904/DTD/svg10.dtd">
<svg version="1.0" xmlns="http://www.w3.org/2000/svg"
 width="1024.000000pt" height="1024.000000pt" viewBox="0 0 1024.000000 1024.000000"
 preserveAspectRatio="xMidYMid meet">
<metadata>
Created by potrace 1.10, written by Peter Selinger 2001-2011
</metadata>
<g transform="translate(0.000000,1024.000000) scale(0.100000,-0.100000)"
fill="#000000" stroke="none">
<path d="M6875 8145 c-25 -11 -410 -57 -590 -71 -507 -37 -1098 -111 -1795
-225 -274 -44 -401 -66 -835 -146 -385 -70 -366 -68 -401 -51 -16 8 -86 34
-156 58 l-127 44 -68 -29 c-37 -16 -70 -30 -72 -32 -3 -2 18 -36 46 -76 99
-143 105 -161 134 -442 20 -202 21 -241 16 -1055 -5 -824 -10 -978 -42 -1380
-19 -233 -37 -374 -70 -558 -107 -584 -294 -1037 -608 -1476 -77 -108 -78
-110 -59 -129 19 -19 20 -19 68 2 62 28 240 207 345 346 191 255 381 638 493
995 95 301 157 654 186 1065 6 83 13 168 15 190 3 22 9 499 15 1060 5 561 12
1053 16 1092 5 54 11 74 23 77 16 5 357 66 701 126 554 96 1235 193 1640 234
468 48 862 58 962 25 74 -24 73 -18 44 -286 -47 -438 -66 -814 -66 -1308 0
-967 100 -1564 381 -2275 201 -509 560 -1030 940 -1365 140 -124 236 -189 301
-207 44 -11 50 -10 75 8 44 33 49 62 30 164 -10 49 -26 110 -37 136 -38 87
-39 136 -15 639 40 816 40 817 22 851 -11 21 -17 25 -21 14 -3 -8 -46 -186
-96 -395 -94 -399 -147 -583 -184 -637 -16 -25 -30 -34 -56 -36 -31 -3 -40 4
-114 80 -129 133 -241 302 -366 553 -364 733 -490 1335 -490 2344 0 382 16
688 56 1046 37 336 53 390 147 505 25 30 50 74 57 98 10 38 8 48 -13 95 -48
102 -202 259 -304 308 -42 21 -108 33 -128 24z"/>
<path d="M5561 7621 c-11 -7 -6 -19 27 -56 44 -50 59 -96 47 -142 -8 -35 -90
-115 -176 -173 -169 -116 -618 -352 -924 -486 -272 -119 -733 -293 -818 -309
-83 -16 -65 -65 24 -65 101 0 519 100 814 194 l140 45 17 -22 c10 -12 27 -41
39 -65 44 -89 49 -132 49 -427 l0 -280 -423 -69 c-278 -45 -437 -66 -463 -63
-21 4 -94 16 -161 29 l-123 22 -55 -29 c-60 -32 -62 -36 -40 -55 8 -7 39 -51
69 -99 l54 -86 100 -482 c55 -265 108 -499 118 -519 11 -21 31 -47 46 -58 24
-17 32 -18 67 -7 31 9 46 21 65 54 13 23 27 56 31 74 5 27 12 32 43 37 41 7
647 76 662 76 6 0 10 -184 10 -507 l0 -508 -333 -67 c-182 -37 -429 -82 -548
-100 l-217 -32 -48 26 c-200 106 -195 104 -210 83 -20 -27 -17 -75 7 -141 18
-48 41 -75 155 -187 189 -185 256 -217 337 -160 39 28 204 91 622 238 500 177
1121 417 1419 549 33 15 63 23 67 19 3 -5 83 -156 175 -338 184 -360 229 -425
291 -425 36 0 77 30 100 73 23 42 21 210 -2 321 -55 264 -187 447 -525 729
-171 142 -285 222 -342 239 -33 10 -41 9 -58 -7 -19 -17 -17 -22 145 -261 91
-133 165 -246 165 -251 0 -4 -200 -58 -445 -119 l-445 -111 0 493 c0 272 3
494 8 494 4 0 234 29 512 65 278 36 522 65 542 65 51 0 113 26 128 54 11 22 7
30 -45 99 -35 48 -67 79 -86 86 -16 5 -29 13 -29 16 0 3 16 37 35 75 19 38 49
105 66 147 48 122 97 209 155 274 38 42 54 68 53 87 -2 77 -207 304 -324 358
l-51 24 -49 -19 c-69 -26 -161 -43 -540 -101 -181 -27 -340 -52 -352 -55 l-23
-5 0 364 0 364 -30 26 c-17 14 -57 35 -90 47 -33 12 -59 23 -58 24 2 1 98 34
213 73 116 38 305 108 420 155 116 46 291 110 390 141 150 46 185 61 208 86
35 39 34 56 -4 113 -50 75 -130 138 -324 251 -148 86 -189 106 -221 106 -21 0
-45 -4 -53 -9z m420 -1897 c32 -28 23 -81 -58 -379 l-77 -282 -161 -42 c-105
-27 -227 -50 -354 -66 -107 -14 -200 -25 -208 -25 -19 0 -19 738 0 745 25 9
764 74 800 70 21 -2 47 -11 58 -21z m-1185 -832 c-6 -5 -718 -94 -721 -90 -2
3 -95 640 -95 649 0 11 36 18 435 93 l380 72 3 -360 c1 -197 0 -361 -2 -364z"/>
</g>
</svg>
