<?xml version="1.0" standalone="no"?>
<!DOCTYPE svg PUBLIC "-//W3C//DTD SVG 20010904//EN"
 "http://www.w3.org/TR/2001/REC-SVG-20010904/DTD/svg10.dtd">
<svg version="1.0" xmlns="http://www.w3.org/2000/svg"
 width="1024.000000pt" height="1024.000000pt" viewBox="0 0 1024.000000 1024.000000"
 preserveAspectRatio="xMidYMid meet">
<metadata>
Created by potrace 1.10, written by Peter Selinger 2001-2011
</metadata>
<g transform="translate(0.000000,1024.000000) scale(0.100000,-0.100000)"
fill="#000000" stroke="none">
<path d="M2340 9960 c-92 -42 -113 -56 -176 -122 -89 -94 -153 -214 -161 -304
-4 -54 -2 -64 29 -114 64 -105 172 -158 293 -145 77 8 95 28 95 106 0 71 -40
112 -128 130 -87 18 -84 32 40 156 l103 103 85 0 c84 0 87 -1 118 -33 l33 -34
-29 -74 c-23 -61 -67 -127 -239 -355 l-210 -279 -359 -247 c-197 -136 -395
-276 -440 -312 -195 -156 -409 -430 -494 -631 -21 -50 -25 -76 -25 -155 0 -71
4 -103 17 -126 l17 -32 -102 -36 c-98 -36 -105 -40 -192 -125 -71 -70 -101
-92 -141 -105 -50 -16 -91 -50 -113 -94 -10 -18 -9 -29 2 -50 9 -18 11 -38 5
-58 -7 -27 -19 -35 -109 -74 -55 -24 -103 -50 -107 -58 -3 -9 2 -44 11 -79
l17 -64 -37 -32 c-43 -38 -59 -72 -68 -148 -7 -56 -7 -56 32 -88 21 -17 61
-39 89 -48 51 -16 52 -17 57 -60 8 -70 80 -133 152 -133 14 0 43 -11 63 -25
49 -34 118 -34 190 0 60 28 160 118 187 169 10 18 32 42 49 51 17 10 62 38 99
63 56 37 109 57 286 112 212 66 344 117 428 166 42 24 98 31 160 18 29 -6 30
-8 36 -77 3 -40 12 -96 20 -125 l15 -54 -96 -116 c-52 -65 -137 -166 -187
-227 -142 -169 -200 -270 -253 -435 -16 -52 -35 -131 -42 -175 -6 -44 -20
-103 -31 -131 -17 -44 -18 -58 -8 -103 6 -28 9 -58 6 -65 -4 -9 -35 -16 -94
-21 -93 -7 -161 -30 -201 -68 -27 -25 -62 -88 -62 -111 0 -8 -20 -29 -44 -45
-40 -28 -69 -35 -278 -72 -152 -26 -251 -49 -286 -64 -119 -54 -192 -130 -238
-247 -13 -34 -35 -73 -49 -87 -59 -63 -94 -213 -60 -264 39 -60 187 -64 299
-8 52 25 70 30 85 21 31 -16 83 -12 119 10 24 15 37 18 46 10 7 -5 33 -13 58
-16 53 -7 87 7 136 59 30 31 37 34 81 29 62 -6 88 9 112 64 12 25 31 50 47 58
39 20 61 47 82 102 l18 49 125 17 c127 17 172 32 215 72 29 26 52 68 52 95 0
18 6 16 56 -19 59 -41 115 -63 203 -80 50 -9 56 -8 79 12 13 13 28 34 33 47
l10 24 37 -35 c55 -53 76 -62 232 -94 22 -5 18 -9 -35 -37 -80 -43 -181 -140
-228 -218 -21 -35 -49 -102 -64 -149 -30 -99 -41 -111 -166 -176 -107 -55
-230 -98 -331 -115 l-74 -13 -33 29 c-89 75 -175 84 -278 30 -126 -67 -281
-207 -355 -323 -12 -18 -103 -93 -202 -167 -100 -74 -184 -142 -188 -150 -10
-26 6 -75 30 -94 12 -10 27 -33 32 -52 l8 -34 121 4 120 3 47 -36 c63 -48 112
-62 160 -46 37 12 98 64 129 109 l16 24 50 -22 c91 -39 162 -23 220 50 18 21
41 39 52 39 10 0 36 15 56 34 l37 34 -16 53 c-11 34 -14 57 -8 64 5 7 41 17
80 24 50 9 110 33 208 81 250 125 427 254 663 485 129 126 148 149 211 259 39
67 76 128 83 136 7 8 16 26 20 40 15 51 95 109 152 110 15 0 29 13 45 42 22
41 36 50 269 167 250 128 292 141 267 87 -15 -35 3 -123 42 -201 135 -267 239
-392 424 -509 94 -60 98 -63 141 -143 l44 -83 -42 -24 c-145 -85 -187 -90
-613 -66 -198 11 -371 20 -386 20 -25 0 -29 5 -40 47 -14 55 -80 128 -148 163
-48 24 -217 45 -254 30 -36 -13 -74 -60 -91 -110 -9 -27 -22 -53 -30 -60 -37
-30 -24 -118 27 -175 17 -20 29 -37 27 -39 -2 -1 -20 -13 -39 -26 -19 -13 -38
-29 -42 -35 -17 -24 -8 -165 16 -242 13 -43 31 -103 40 -133 16 -59 43 -92 89
-109 42 -16 68 -13 93 10 l23 22 -6 -36 c-7 -47 25 -115 69 -143 44 -29 150
-64 194 -64 69 0 133 55 155 133 7 23 25 69 41 103 36 75 45 152 25 217 l-15
48 26 11 c15 6 70 13 123 16 119 5 184 -10 316 -76 213 -107 349 -105 520 7
32 20 98 62 147 92 113 68 301 251 371 359 27 41 71 103 98 138 46 59 52 63
81 56 52 -11 56 -19 56 -115 0 -73 4 -98 27 -150 26 -60 26 -62 8 -75 -10 -8
-35 -14 -54 -14 -50 0 -158 -29 -215 -57 -58 -30 -137 -105 -164 -160 -52
-101 -68 -250 -31 -297 18 -22 28 -26 75 -26 47 0 72 9 195 71 l142 70 121 -6
121 -6 62 55 61 56 105 0 104 0 27 48 c15 26 35 59 44 74 15 24 15 31 2 60 -9
21 -15 71 -16 141 -3 195 -59 298 -191 347 -30 11 -66 20 -82 20 l-28 0 44
110 c56 140 66 227 34 309 l-20 55 42 45 c129 138 225 340 272 571 21 105 15
174 -25 257 -17 34 -30 70 -30 80 -1 32 -38 101 -79 146 -33 36 -41 51 -41 83
0 34 7 46 48 87 32 32 56 47 74 47 14 0 57 9 94 21 62 19 77 29 144 98 42 43
89 82 106 88 16 6 63 32 103 57 40 26 74 46 76 44 18 -20 116 -397 149 -578
78 -423 72 -642 -28 -1033 -95 -369 -289 -854 -385 -964 -23 -25 -46 -64 -52
-87 -28 -100 -31 -106 -75 -137 -46 -31 -74 -73 -74 -110 0 -12 -37 -80 -82
-150 l-83 -129 -355 6 c-195 3 -371 10 -390 15 -49 13 -327 11 -364 -2 -25 -9
-60 -4 -191 23 -184 39 -197 38 -267 -23 -39 -32 -48 -47 -48 -72 0 -18 29
-166 64 -330 57 -264 68 -305 99 -355 38 -62 220 -422 213 -422 -2 0 -42 18
-88 40 -114 54 -242 89 -374 103 -110 11 -113 10 -205 -18 -70 -21 -106 -38
-143 -68 -42 -35 -66 -45 -175 -74 -149 -39 -298 -45 -405 -17 -61 16 -195 15
-373 -3 -63 -6 -63 -6 -63 -38 0 -65 -6 -64 464 -88 467 -23 456 -24 545 34
67 44 148 70 231 76 65 4 112 -3 339 -51 144 -31 272 -56 284 -56 11 0 28 7
38 16 16 14 22 9 87 -79 142 -191 357 -420 549 -584 l72 -62 -32 -10 c-18 -6
-122 -33 -232 -60 l-201 -50 -124 20 c-69 11 -161 32 -205 46 -118 38 -279 43
-395 13 -54 -15 -125 -25 -193 -27 -125 -5 -177 8 -260 65 -29 19 -99 61 -157
93 l-105 59 101 0 c89 0 106 3 145 25 24 14 78 42 119 63 74 36 77 37 190 37
111 0 117 -1 174 -33 49 -27 68 -32 125 -32 37 0 72 5 77 10 7 7 54 -9 145
-50 161 -73 228 -85 301 -52 43 19 98 75 98 101 0 7 -9 25 -20 41 -18 25 -27
28 -131 40 -130 14 -176 28 -229 70 -84 67 -173 86 -259 55 -38 -13 -58 -12
-233 11 l-191 25 -51 -26 c-28 -15 -89 -42 -136 -62 l-85 -35 -260 17 c-210
14 -285 23 -389 47 -136 31 -161 30 -208 -3 -21 -15 -28 -29 -28 -52 1 -59 9
-62 286 -122 142 -30 266 -58 274 -62 9 -3 -2 -9 -30 -14 -66 -13 -136 -51
-220 -120 -174 -144 -336 -173 -520 -94 -184 78 -227 89 -355 90 -100 0 -131
-4 -187 -23 -92 -32 -170 -85 -289 -196 -121 -114 -247 -202 -372 -261 -136
-64 -170 -72 -213 -52 -51 25 -81 21 -115 -12 -41 -42 -40 -90 4 -127 77 -65
154 -70 299 -20 53 18 127 51 165 73 65 39 228 172 358 292 164 152 363 182
571 87 41 -19 90 -27 233 -41 l181 -17 92 32 c117 40 261 113 368 184 58 40
93 56 116 56 25 0 79 -30 226 -124 247 -158 238 -156 473 -122 119 18 199 24
243 21 37 -3 236 -10 442 -15 l374 -8 65 24 c78 29 211 54 293 54 49 0 76 -8
158 -45 l99 -46 193 4 193 3 100 37 c144 52 224 61 409 45 214 -19 565 -16
691 6 124 21 280 58 376 91 41 13 136 34 212 45 123 18 188 20 596 20 l458 0
116 36 c64 19 147 53 184 75 155 90 305 129 499 129 l126 0 77 -43 c180 -101
257 -120 506 -123 110 -1 227 -7 260 -13 33 -6 66 -11 73 -11 9 0 12 27 12
100 l0 99 -32 5 c-18 3 -144 10 -279 15 l-246 11 -84 39 c-115 54 -238 88
-370 102 -96 11 -122 10 -212 -6 -138 -24 -246 -63 -412 -150 -191 -100 -259
-120 -405 -119 -63 0 -132 5 -152 11 -28 8 -135 8 -415 -2 l-378 -14 -359 -55
c-198 -31 -364 -56 -370 -55 -6 0 214 62 489 138 371 103 577 166 799 244
l299 106 67 -36 66 -36 155 42 c85 24 187 57 228 73 71 30 77 31 181 24 61 -3
125 -13 146 -22 94 -39 245 -64 392 -64 140 0 144 1 205 31 34 18 88 56 120
85 83 77 190 126 287 132 72 4 79 3 155 -36 135 -67 125 -72 125 57 l0 110
-67 20 c-84 25 -181 41 -252 41 -94 0 -128 -17 -220 -108 -112 -110 -183 -146
-297 -150 -45 -2 -102 1 -126 6 -34 8 -213 66 -371 121 -12 4 51 39 200 110
174 82 228 113 270 152 28 27 55 49 58 49 4 0 18 -9 32 -20 14 -11 36 -20 49
-20 24 0 79 49 89 79 9 29 80 71 121 71 19 0 54 -11 77 -24 77 -45 174 -70
267 -70 47 0 104 6 128 13 l42 12 0 96 c0 91 -1 95 -18 80 -16 -14 -38 -12
-262 29 -135 24 -258 45 -275 45 -16 1 -60 -13 -98 -30 -57 -26 -71 -29 -92
-19 -14 6 -25 19 -25 28 0 36 34 172 92 364 57 190 59 203 53 275 -3 42 -8 85
-10 97 -4 17 11 28 96 70 118 57 175 111 219 207 62 132 72 229 36 357 -20 71
-83 133 -125 124 -14 -4 -453 -116 -976 -249 -522 -134 -951 -242 -951 -242
-1 1 153 143 342 314 370 337 414 384 663 718 219 293 362 509 476 723 52 96
64 112 85 112 76 1 681 49 690 55 5 3 19 23 29 44 l19 37 -24 31 c-47 61 -166
80 -299 48 -38 -9 -114 -15 -209 -15 -129 0 -147 2 -142 15 28 74 80 263 100
365 45 226 49 303 36 670 -16 434 -32 516 -131 647 l-50 65 35 -21 c22 -14 37
-18 41 -11 4 6 56 10 131 10 150 0 187 12 210 66 20 48 10 108 -22 133 -21 17
-51 19 -316 26 l-293 7 -850 360 c-467 198 -887 375 -932 395 l-82 35 36 76
c31 68 34 84 30 138 -6 77 -31 130 -76 159 -69 46 -103 47 -324 9 -111 -19
-217 -41 -234 -49 -37 -16 -49 -48 -39 -98 4 -17 6 -50 4 -72 -2 -22 -3 -83
-3 -136 0 -84 3 -99 23 -125 13 -16 40 -36 60 -45 l36 -15 -103 -62 c-56 -34
-104 -62 -106 -62 -3 0 -5 13 -5 30 0 42 -26 105 -77 182 -64 97 -121 226
-148 331 -37 148 -39 185 -17 255 22 67 127 216 145 205 6 -3 7 -1 3 5 -4 7
72 112 186 257 203 257 237 309 238 363 0 57 -54 132 -96 132 -29 0 -68 -33
-83 -69 -8 -19 -22 -31 -39 -34 -34 -7 -201 -146 -264 -219 -65 -76 -130 -172
-167 -245 -17 -34 -35 -64 -41 -68 -5 -3 -17 -32 -26 -63 -9 -31 -42 -100 -74
-152 -203 -330 -195 -600 26 -882 60 -76 58 -118 -7 -193 -31 -35 -32 -39 -21
-78 9 -36 9 -44 -5 -54 -9 -7 -188 -116 -398 -243 l-382 -230 -166 -19 c-202
-24 -247 -44 -247 -109 0 -10 -10 -27 -21 -38 -20 -18 -21 -26 -16 -114 3 -53
11 -108 16 -123 9 -24 13 -26 36 -17 36 14 37 13 25 -9 -19 -37 -11 -60 31
-91 95 -68 230 -99 363 -81 91 12 127 25 184 68 25 18 37 22 45 14 14 -14 24
-6 -127 -87 -125 -67 -132 -72 -214 -169 -47 -55 -101 -116 -120 -136 l-34
-37 -57 26 c-47 22 -70 26 -146 27 -75 0 -97 -4 -133 -23 l-43 -23 40 41 c86
89 89 162 9 220 -23 17 -49 30 -58 30 -10 0 -48 -20 -84 -46 -60 -40 -66 -43
-61 -22 9 39 -16 71 -74 94 l-53 21 -106 -27 c-128 -32 -166 -48 -210 -85
l-33 -27 -50 47 c-49 45 -52 47 -95 40 -125 -18 -259 -90 -359 -189 -81 -81
-123 -157 -129 -231 l-4 -50 -153 -98 c-198 -126 -186 -119 -192 -103 -4 9 18
32 59 61 138 102 147 158 38 225 -35 22 -36 22 -82 5 -109 -42 -213 -128 -291
-244 -60 -89 -84 -160 -79 -240 l4 -63 -103 -70 -104 -69 37 55 c49 75 56 130
20 173 -18 22 -26 42 -26 70 0 22 -6 48 -14 58 -13 18 -11 24 25 62 25 27 39
52 39 69 0 31 -33 89 -56 98 -13 5 -10 13 19 45 47 53 63 101 44 138 -16 30
-50 64 -81 81 -30 15 -60 -1 -156 -81 -127 -108 -128 -108 -72 -25 52 76 52
76 199 158 158 87 173 97 216 148 42 52 38 94 -17 148 -38 39 -47 43 -77 39
-28 -4 -23 0 28 24 72 34 145 98 164 142 10 27 10 36 -5 63 -18 34 -73 76 -99
76 -9 0 -66 -21 -128 -46 -72 -30 -115 -42 -121 -36 -14 14 0 70 20 81 9 5 71
18 137 31 126 23 155 38 155 77 0 91 -91 163 -207 163 l-42 0 44 45 c52 51 57
83 21 120 -13 13 -41 29 -63 35 -33 10 -45 10 -71 -4 -40 -21 -45 -20 -32 5
18 33 2 76 -43 114 l-42 36 22 17 c12 9 46 36 75 59 l54 43 173 8 c166 8 174
9 193 32 11 13 22 35 25 49 3 18 18 32 46 46 57 28 80 63 81 124 1 28 5 51 10
51 26 0 145 83 169 117 43 62 45 94 7 136 -17 20 -48 41 -68 47 -20 6 -53 20
-73 31 l-37 19 -93 -64 c-52 -35 -122 -78 -157 -95 -61 -31 -152 -110 -183
-160 -11 -17 -28 -26 -64 -31 -49 -8 -51 -7 -103 37 l-52 45 107 75 c261 182
523 442 606 601 68 131 94 286 63 380 -31 93 -97 127 -231 120 -75 -4 -89 -8
-153 -46 -39 -23 -85 -54 -103 -69 -42 -35 -92 -115 -113 -179 l-17 -51 -98
-40 -98 -39 81 101 c89 110 149 197 219 322 82 144 96 183 99 280 2 77 -1 95
-24 143 -59 128 -171 191 -333 189 -61 -1 -83 -7 -175 -49z m740 -816 c-23
-61 -85 -173 -128 -234 -59 -83 -179 -203 -262 -262 -135 -95 -699 -432 -1053
-628 -263 -146 -383 -218 -417 -251 -50 -48 -92 -119 -105 -179 l-8 -35 -9 34
c-24 88 134 375 283 517 60 57 471 381 764 603 105 79 203 156 219 170 l28 26
-7 -53 c-11 -79 8 -102 83 -102 151 1 266 37 346 111 60 54 89 106 106 186 13
57 40 84 109 109 55 20 62 18 51 -12z m4060 -677 l85 -12 3 -44 c3 -34 -1 -46
-16 -57 -11 -7 -22 -26 -25 -41 -4 -22 -19 -34 -71 -60 -37 -18 -71 -33 -76
-33 -6 0 -10 52 -10 130 0 98 3 130 13 129 6 0 50 -6 97 -12z m-732 -164 c62
-116 92 -183 97 -217 4 -28 16 -72 26 -99 11 -27 18 -50 17 -52 -2 -1 -16 -11
-33 -22 l-30 -21 3 70 c6 119 -38 227 -134 328 -29 31 -33 44 -40 108 -3 39
-4 72 -1 72 3 0 46 -75 95 -167z m-3979 -127 c-33 -31 -199 -161 -218 -170
-14 -7 -60 -21 -101 -31 -41 -10 -106 -29 -144 -42 -38 -12 -72 -23 -75 -22
-5 0 527 266 538 268 2 1 2 -1 0 -3z m5707 -357 l632 -274 -72 -2 c-39 -1
-340 -26 -668 -55 -328 -29 -599 -50 -601 -48 -2 3 1 136 5 296 9 272 8 294
-9 346 l-19 56 50 -22 c28 -12 335 -146 682 -297z m-5056 297 c0 -2 -7 -7 -16
-10 -8 -3 -12 -2 -9 4 6 10 25 14 25 6z m4129 -276 c-4 -140 -8 -292 -8 -337
l-1 -83 -36 0 -36 0 6 88 c16 246 17 457 3 497 l-14 40 46 26 c25 15 46 26 47
25 0 0 -3 -116 -7 -256z m-306 43 c-2 -32 -7 -152 -13 -267 -5 -115 -11 -211
-14 -213 -2 -2 -199 -19 -437 -38 -239 -19 -454 -37 -478 -40 -39 -4 14 32
445 304 269 170 492 310 495 310 3 1 4 -25 2 -56z m-5289 -131 c-119 -104
-144 -122 -164 -122 -17 0 5 20 81 74 111 79 133 92 83 48z m476 -156 c0 -2
-16 -14 -35 -26 -29 -18 -35 -28 -35 -56 0 -35 -12 -41 -53 -26 -15 6 -10 14
30 54 43 41 64 55 86 57 4 1 7 -1 7 -3z m-682 -142 c25 -5 31 -12 36 -45 5
-33 14 -44 53 -69 65 -42 114 -41 153 2 l30 32 217 -69 218 -70 71 -66 c39
-37 89 -76 111 -88 43 -22 47 -30 58 -122 5 -36 3 -69 -5 -90 -11 -30 -8 -43
19 -113 28 -74 29 -80 15 -108 -12 -23 -13 -37 -5 -59 22 -62 10 -82 -315
-528 -240 -329 -274 -380 -274 -412 0 -22 -8 -47 -22 -64 -16 -21 -22 -45 -26
-105 -5 -86 7 -135 46 -193 45 -67 65 -75 225 -94 140 -16 148 -16 186 2 29
12 53 16 83 12 28 -4 81 2 151 17 100 22 115 28 220 97 61 40 171 117 242 170
228 169 476 327 682 433 84 43 97 47 140 42 l48 -6 50 59 50 60 122 30 c88 22
146 31 205 31 183 0 423 -62 499 -128 53 -46 305 -202 374 -233 28 -12 67 -37
87 -57 l37 -35 -19 -25 c-27 -34 -25 -53 11 -118 31 -54 31 -57 24 -147 -14
-184 -80 -374 -162 -471 -40 -46 -48 -66 -45 -107 1 -10 -11 -20 -30 -25 -17
-5 -40 -21 -51 -36 -20 -26 -20 -28 -2 -83 26 -83 17 -218 -19 -307 l-28 -68
-22 32 c-11 17 -34 39 -51 48 -26 15 -31 24 -37 75 -31 246 -193 529 -358 625
-61 35 -97 47 -284 89 -165 37 -222 53 -248 73 -52 40 -180 76 -293 83 l-100
7 -95 -42 c-52 -23 -112 -48 -132 -56 -21 -7 -88 -41 -150 -75 -358 -198 -530
-254 -788 -254 -143 0 -136 -2 -236 59 -59 37 -141 46 -197 23 -41 -18 -46
-36 -23 -92 13 -31 1 -23 -137 84 -150 115 -152 118 -158 161 -3 25 -18 85
-33 134 -28 88 -28 90 -12 145 9 31 23 94 31 141 11 66 28 112 74 205 82 163
164 284 353 518 92 114 170 221 185 254 43 94 34 173 -30 249 -13 16 -30 46
-37 68 -7 21 -27 55 -45 75 -18 20 -40 50 -48 68 -26 49 -65 57 -176 34 -50
-10 -94 -21 -97 -24 -4 -3 -16 6 -29 21 l-22 26 -144 -16 c-79 -9 -247 -33
-373 -53 l-230 -36 -95 -98 c-80 -81 -110 -105 -181 -140 -102 -51 -130 -51
-145 -1 -5 20 -22 51 -38 70 l-27 35 27 22 c16 13 31 23 35 23 3 0 14 24 24
53 28 88 39 102 174 217 98 83 143 115 178 125 26 8 57 24 69 35 16 14 36 20
71 20 27 0 69 7 93 15 l44 15 -25 -19 c-55 -43 -129 -82 -183 -96 -81 -21
-147 -57 -201 -109 -44 -43 -46 -49 -40 -84 14 -82 56 -103 133 -63 20 10 70
26 111 35 152 34 293 126 389 253 28 37 51 74 51 80 0 7 -21 27 -47 43 -36 23
-56 29 -78 25 l-29 -5 29 30 c30 31 71 38 143 24z m876 -48 c-13 -9 -30 -12
-45 -8 -22 6 -21 7 11 13 55 10 56 10 34 -5z m6989 -130 c-6 -27 12 -69 75
-176 52 -87 62 -117 98 -305 25 -126 28 -161 27 -345 0 -283 -34 -495 -121
-756 l-47 -139 -97 -3 c-96 -3 -97 -2 -153 33 -64 41 -89 42 -119 2 -31 -42
-28 -99 9 -137 46 -49 82 -63 182 -75 l91 -10 -131 -220 c-353 -591 -695 -975
-1329 -1495 -126 -104 -161 -145 -160 -190 0 -19 -5 -31 -16 -34 -9 -3 -112
-30 -228 -60 l-212 -55 -103 9 c-57 5 -123 12 -147 15 -37 4 -44 2 -51 -18 -9
-22 -24 -24 -656 -95 -356 -40 -648 -72 -650 -70 -1 2 48 76 109 164 76 110
117 180 130 220 10 33 67 152 127 265 219 414 313 688 370 1077 26 179 36 497
20 668 -23 248 -85 507 -180 750 -137 354 -171 447 -181 505 -7 35 -32 111
-56 168 -24 58 -41 107 -38 110 5 6 3251 218 3365 220 75 1 76 1 72 -23z
m-3648 -271 c4 -31 5 -58 2 -61 -2 -3 -34 -10 -70 -16 -48 -8 -95 -7 -180 2
l-114 12 -10 44 c-7 32 -7 44 1 45 6 0 67 6 136 13 69 8 148 14 177 15 l52 1
6 -55z m-4518 -220 c-69 -28 -117 -57 -172 -100 -72 -57 -67 -48 22 39 l88 85
60 0 60 0 -58 -24z m1615 -18 c-6 -7 -32 -28 -57 -46 l-45 -32 0 24 c0 20 9
29 48 45 56 24 68 26 54 9z m-2260 -261 c60 -30 132 -34 197 -11 22 8 41 12
41 9 0 -9 -113 -134 -121 -134 -22 0 -139 96 -177 144 -50 65 -68 107 -23 54
17 -20 54 -48 83 -62z m5301 3 c-11 -20 -67 -64 -150 -120 -73 -49 -133 -87
-133 -84 0 3 13 31 29 63 28 56 30 58 140 111 62 30 114 58 117 63 4 5 8 7 11
4 3 -2 -3 -19 -14 -37z m-1209 -131 c-9 -24 -13 -58 -10 -76 3 -24 1 -32 -7
-29 -7 2 -54 15 -104 28 -51 13 -93 26 -93 30 0 10 188 87 217 88 9 1 8 -10
-3 -41z m-454 -7 c0 -14 -30 -41 -45 -41 -8 0 -18 -6 -22 -14 -14 -24 -51 -36
-109 -36 l-57 0 19 21 c36 40 87 59 207 78 4 0 7 -3 7 -8z m663 -111 l-49 -51
-44 19 -45 19 43 5 c23 4 64 17 90 31 26 13 49 25 51 26 2 0 -18 -22 -46 -49z
m319 -95 c16 -14 40 -25 53 -25 23 0 23 -2 -23 -79 l-47 -79 -80 55 c-116 80
-112 73 -57 116 59 46 109 50 154 12z m-2883 -335 l30 -31 -97 -71 c-53 -39
-103 -76 -110 -81 -22 -17 27 62 86 141 30 39 56 72 58 72 1 0 16 -14 33 -30z
m28 -413 l-59 -53 -96 1 c-104 1 -142 14 -142 50 0 18 1 18 16 -3 11 -16 25
-22 52 -22 44 0 158 30 222 59 69 30 70 25 7 -32z m-827 -390 l36 -72 -51 3
c-46 3 -56 0 -101 -34 -47 -36 -52 -38 -117 -35 -57 2 -78 -2 -121 -23 -29
-14 -64 -41 -77 -60 -14 -19 -92 -89 -176 -155 l-151 -121 -110 16 -111 16
-75 -25 c-42 -14 -76 -25 -76 -24 0 2 12 32 28 68 23 57 124 199 139 199 4 0
103 9 222 20 307 29 338 42 444 190 48 66 137 109 227 109 33 0 37 -4 70 -72z
m2508 45 c29 -11 68 -31 85 -44 20 -15 59 -28 104 -36 92 -15 190 -72 282
-163 74 -72 148 -177 156 -218 3 -14 12 -48 20 -75 l14 -49 -104 -156 c-129
-195 -211 -297 -345 -431 -171 -170 -248 -221 -351 -228 -50 -4 -81 2 -192 38
-72 23 -135 46 -140 49 -4 4 86 22 200 40 115 17 231 39 258 48 178 57 243
264 120 383 -25 25 -35 43 -35 65 0 40 -17 56 -119 113 -137 76 -296 227 -343
324 -39 82 -119 280 -114 285 3 3 37 9 76 13 40 4 78 15 88 23 46 42 74 48
182 44 73 -3 121 -11 158 -25z m-1784 -687 c-80 -96 -148 -175 -150 -175 -6 0
23 73 49 125 14 28 38 62 54 77 25 24 184 147 191 148 1 0 -63 -79 -144 -175z
m2900 -368 c27 -10 65 -17 83 -17 18 0 33 -4 33 -10 0 -13 -8 -13 -132 7
l-108 17 0 33 0 33 38 -23 c20 -13 59 -31 86 -40z m-2445 -12 c47 -40 60 -57
65 -89 4 -21 5 -40 4 -41 -2 -1 -21 -5 -43 -8 l-40 -6 -37 85 c-34 77 -40 120
-17 112 5 -2 35 -25 68 -53z m-1491 -109 c9 -12 33 -32 53 -44 36 -22 40 -22
165 -11 94 8 152 19 213 40 46 16 85 28 87 27 1 -2 -55 -36 -125 -76 l-128
-72 -214 30 c-118 17 -222 34 -231 38 -13 6 -5 16 42 53 47 38 63 45 89 41 17
-2 39 -14 49 -26z m2132 -90 c33 -12 29 -14 -80 -21 -63 -4 -146 -10 -183 -14
-51 -6 -70 -4 -79 6 -17 21 -2 28 85 34 139 10 220 8 257 -5z m1895 -28 c51
-34 50 -45 -5 -52 -67 -9 -150 -39 -235 -85 -65 -35 -81 -39 -171 -45 -54 -4
-115 -9 -134 -12 -19 -3 30 20 110 51 80 31 156 55 170 54 29 -3 74 19 149 72
30 22 60 39 68 39 7 0 29 -10 48 -22z m-2516 -95 l54 -15 -40 -39 c-32 -33
-48 -41 -91 -46 -49 -5 -52 -5 -62 21 -16 42 -12 66 13 87 23 20 31 20 126 -8z
m7131 2 c0 -15 -31 -120 -37 -126 -17 -16 -194 -99 -283 -132 -52 -19 -131
-44 -175 -56 -44 -11 -584 -113 -1200 -226 l-1120 -206 -605 -154 -605 -154
-325 -39 -325 -40 -548 53 c-302 29 -550 55 -552 57 -6 6 -85 281 -81 285 2 2
57 8 122 13 65 6 139 15 164 20 36 9 71 7 168 -9 67 -11 260 -30 429 -42 306
-21 311 -21 733 -5 l425 17 643 100 643 100 1227 263 c675 146 1238 269 1252
275 27 11 50 14 50 6z m-8779 -75 l49 0 -21 -57 c-12 -32 -24 -61 -28 -65 -4
-4 -31 -3 -61 3 -74 15 -129 0 -185 -52 l-43 -40 -65 22 -66 22 82 89 82 90
104 -6 c57 -3 126 -6 152 -6z m1863 -147 c-16 -70 -47 -164 -56 -169 -5 -4
-15 -1 -21 5 -8 8 1 35 33 101 24 50 46 90 47 90 2 0 1 -12 -3 -27z m6537
-457 c-10 -70 -22 -130 -25 -133 -2 -3 -18 4 -34 16 -17 12 -34 21 -39 21 -4
0 -144 -52 -310 -114 l-302 -115 -1383 -361 -1383 -362 -495 -84 c-272 -46
-504 -84 -515 -84 -33 0 -323 495 -302 516 1 1 292 28 647 59 l645 56 700 184
700 185 622 110 c343 60 642 110 665 111 24 0 219 33 433 73 264 49 391 68
393 61 1 -6 -6 -69 -17 -139z m-62 -323 c0 -5 -24 -75 -52 -156 l-52 -148
-135 -55 c-406 -167 -716 -275 -1027 -358 -109 -29 -617 -130 -1442 -286 -701
-133 -1291 -248 -1313 -257 -21 -8 -49 -29 -63 -45 l-25 -30 -38 30 c-20 17
-75 69 -122 116 l-85 86 90 0 c50 0 184 14 299 31 202 30 275 49 2021 519
1607 432 1818 491 1871 523 61 37 74 42 73 30z m-5061 -332 c78 -10 145 -21
148 -24 4 -4 1 -13 -5 -21 -8 -9 -13 -43 -12 -82 0 -55 5 -74 29 -113 16 -25
85 -152 152 -281 67 -129 136 -260 153 -290 29 -53 29 -54 4 -30 -83 82 -461
509 -469 530 -5 14 -20 36 -32 50 -18 20 -136 259 -136 276 0 6 10 5 168 -15z
m2917 -816 c-5 -2 -212 -58 -460 -124 -444 -118 -455 -121 -820 -176 -332 -50
-375 -55 -414 -44 -42 12 -12 19 810 180 746 146 926 180 884 164z"/>
<path d="M2117 8615 c-22 -30 -18 -31 27 -4 42 24 44 29 14 29 -13 0 -31 -12
-41 -25z"/>
<path d="M8478 6783 c-14 -2 -33 -14 -41 -26 -17 -27 -53 -223 -62 -337 -12
-168 -65 -367 -143 -540 -44 -98 -542 -947 -639 -1090 -183 -268 -359 -487
-602 -749 -58 -62 -110 -125 -115 -138 -12 -34 7 -94 40 -127 49 -48 107 -28
185 65 55 65 883 1152 963 1264 193 268 381 652 480 978 47 154 100 447 91
507 -9 63 -51 146 -89 175 -18 14 -35 24 -37 24 -2 -1 -16 -4 -31 -6z"/>
<path d="M6713 4945 l-40 -34 -6 -98 c-7 -114 -41 -256 -91 -379 -37 -92 -49
-110 -158 -257 -80 -107 -90 -141 -58 -192 44 -71 82 -72 178 -4 65 45 78 61
135 157 35 60 102 201 151 322 75 183 89 226 94 287 4 60 1 79 -18 117 -24 51
-96 116 -127 116 -11 0 -38 -16 -60 -35z"/>
<path d="M6621 3970 c0 -8 4 -24 9 -35 5 -13 9 -14 9 -5 0 8 -4 24 -9 35 -5
13 -9 14 -9 5z"/>
<path d="M8680 8859 c-152 -64 -189 -122 -140 -218 21 -42 73 -91 97 -91 22 0
83 64 83 87 0 11 13 32 30 48 l29 28 513 -37 c282 -20 537 -36 566 -36 85 0
155 38 188 102 18 36 18 44 -6 68 -19 19 -33 20 -309 20 -261 0 -321 3 -617
35 -181 19 -331 35 -334 34 -3 0 -48 -18 -100 -40z"/>
<path d="M5000 8387 c-336 -135 -363 -144 -505 -170 -82 -15 -204 -32 -270
-37 -216 -17 -358 -81 -502 -226 -88 -88 -105 -122 -82 -163 12 -20 24 -27 56
-29 38 -3 55 5 175 82 l133 85 175 35 c96 19 218 39 270 45 53 6 140 22 195
36 100 26 526 191 640 248 61 30 175 136 175 162 0 17 -69 75 -90 75 -8 -1
-175 -65 -370 -143z"/>
<path d="M5494 5031 c-53 -24 -101 -83 -120 -149 -20 -68 -12 -108 27 -128 53
-27 79 -16 117 49 41 68 60 72 127 25 35 -25 58 -33 105 -36 84 -6 137 16 198
83 63 69 67 83 28 126 -25 28 -37 34 -72 34 -28 0 -53 -8 -73 -22 -32 -24
-104 -32 -116 -13 -4 6 -24 19 -45 30 -49 25 -122 26 -176 1z"/>
<path d="M1071 4284 c0 -11 3 -14 6 -6 3 7 2 16 -1 19 -3 4 -6 -2 -5 -13z"/>
<path d="M2460 3121 c-50 -30 -906 -345 -1007 -370 -76 -18 -231 -42 -433 -66
-272 -32 -333 -43 -445 -76 -186 -56 -262 -113 -321 -244 -26 -56 -26 -115 0
-140 26 -25 62 -45 82 -45 28 0 61 41 70 86 9 50 75 118 148 154 63 31 67 32
387 55 441 32 439 32 649 125 314 140 522 216 829 304 180 52 185 54 205 89
24 42 16 79 -24 109 -29 21 -117 33 -140 19z"/>
<path d="M8479 786 c-6 -6 -482 -44 -693 -56 -233 -13 -990 -13 -1227 1 -179
10 -211 8 -985 -46 l-799 -56 -895 10 c-916 10 -1085 6 -1185 -26 -75 -24
-332 -127 -400 -161 -121 -60 -256 -83 -370 -63 -201 36 -213 36 -242 15 -19
-15 -29 -32 -31 -55 -5 -57 43 -93 174 -133 l109 -32 116 11 c111 11 123 15
275 82 246 110 376 150 519 163 103 10 173 7 505 -16 l385 -26 768 26 c745 26
775 27 1015 61 l247 34 2040 52 c2237 56 2058 47 2091 111 13 26 12 28 -19 51
l-32 25 -600 16 c-613 17 -758 19 -766 12z"/>
</g>
</svg>
