<?xml version="1.0" standalone="no"?>
<!DOCTYPE svg PUBLIC "-//W3C//DTD SVG 20010904//EN"
 "http://www.w3.org/TR/2001/REC-SVG-20010904/DTD/svg10.dtd">
<svg version="1.0" xmlns="http://www.w3.org/2000/svg"
 width="1024.000000pt" height="1024.000000pt" viewBox="0 0 1024.000000 1024.000000"
 preserveAspectRatio="xMidYMid meet">
<metadata>
Created by potrace 1.10, written by Peter Selinger 2001-2011
</metadata>
<g transform="translate(0.000000,1024.000000) scale(0.100000,-0.100000)"
fill="#000000" stroke="none">
<path d="M4100 9693 c-252 -38 -460 -89 -635 -156 -380 -146 -645 -316 -895
-573 -212 -219 -328 -401 -386 -604 -15 -52 -35 -113 -44 -135 -15 -36 -16
-72 -8 -360 8 -330 17 -405 89 -745 15 -68 80 -198 132 -263 26 -31 47 -62 47
-69 0 -6 -14 -36 -31 -66 -32 -57 -57 -144 -86 -296 -13 -69 -17 -146 -18
-316 0 -231 6 -287 56 -550 24 -124 29 -345 10 -460 -23 -138 -51 -219 -208
-588 l-155 -367 6 -120 c8 -136 23 -179 86 -243 67 -70 114 -90 246 -109 65
-9 123 -19 128 -24 4 -4 1 -38 -7 -76 -53 -234 -43 -209 -91 -227 -50 -19
-100 -65 -127 -118 -23 -45 -24 -61 -4 -119 13 -37 26 -51 84 -89 l69 -44 -33
-38 c-40 -43 -75 -147 -75 -220 0 -98 52 -151 191 -192 l94 -28 94 -126 94
-126 28 -116 c15 -63 34 -145 43 -181 21 -94 51 -153 114 -221 137 -147 397
-199 607 -121 44 17 214 108 379 202 164 95 304 175 311 177 55 22 44 -381
-19 -691 -24 -119 -24 -120 -5 -147 18 -24 70 -48 107 -48 7 0 24 11 37 25 19
18 25 35 25 70 0 25 11 97 26 158 30 134 68 518 58 597 -3 30 -14 77 -25 105
-10 27 -15 52 -11 55 5 3 60 42 123 86 128 92 168 114 201 114 38 1 101 35
136 74 17 20 32 41 32 46 0 6 5 10 11 10 7 0 45 16 86 36 82 39 192 135 243
212 l30 45 0 -47 c0 -60 73 -280 106 -319 13 -16 24 -36 24 -44 0 -14 55 -131
116 -245 24 -44 44 -96 114 -291 15 -42 58 -128 95 -191 258 -437 651 -770
1134 -960 127 -50 144 -53 170 -27 l21 21 64 -39 c98 -60 136 -78 259 -120 61
-21 166 -61 232 -88 261 -108 579 -161 818 -135 95 10 118 23 136 73 8 25 6
33 -13 56 -23 26 -23 26 -222 35 -224 9 -282 16 -474 64 -155 37 -291 80 -435
134 -93 36 -140 56 -287 124 -31 14 -60 26 -63 26 -20 0 -75 -34 -75 -46 0 -8
-3 -14 -6 -14 -4 0 -76 35 -160 79 -217 112 -529 324 -621 422 -12 13 -53 56
-91 94 -38 39 -82 92 -97 118 -15 26 -41 55 -57 63 -25 13 -48 52 -130 222
-62 128 -106 232 -115 272 -7 35 -22 74 -32 85 -9 11 -25 40 -34 65 l-16 45
20 -25 c186 -229 371 -411 592 -583 474 -369 1029 -591 1628 -652 270 -27 347
-16 382 58 21 44 21 53 0 75 -17 16 -10 17 142 18 180 1 349 28 372 61 21 28
15 60 -18 87 -28 24 -38 26 -137 27 -59 0 -197 7 -307 14 l-200 13 220 -6
c121 -4 291 -7 378 -7 l159 0 34 37 c19 21 34 46 34 56 0 10 -18 33 -40 51
l-41 33 -366 14 c-201 7 -368 15 -369 17 -2 2 14 10 37 17 33 11 72 12 222 2
200 -14 237 -9 319 46 45 29 101 109 90 128 -11 19 -73 64 -89 64 -7 0 -52
-11 -99 -25 -102 -30 -241 -34 -320 -10 -92 28 -181 16 -235 -31 -25 -22 -700
134 -907 210 -649 238 -1199 652 -1578 1191 -37 52 -69 94 -70 92 -7 -7 35
-147 50 -168 20 -29 21 -85 1 -123 -8 -15 -15 -33 -15 -38 0 -5 72 -88 160
-185 89 -96 159 -177 157 -180 -3 -2 -29 2 -59 10 -50 13 -58 13 -91 -4 l-36
-19 -37 61 -36 61 17 37 17 38 -65 62 c-93 89 -147 211 -147 332 0 22 -6 50
-14 62 -8 12 -19 49 -25 82 -10 60 -36 504 -29 510 2 2 251 -226 553 -506 447
-415 583 -535 725 -641 253 -189 254 -189 -85 13 -178 107 -212 131 -305 222
-58 56 -150 157 -205 225 -123 153 -354 379 -503 495 -117 90 -162 108 -162
66 0 -40 21 -164 32 -186 6 -12 45 -49 88 -82 108 -86 241 -226 341 -361 178
-239 359 -415 578 -561 203 -135 599 -317 911 -418 435 -140 934 -219 1321
-209 131 3 137 4 184 33 26 17 57 47 69 67 l21 37 -25 26 c-14 15 -36 32 -50
37 -15 7 -145 12 -320 13 -293 2 -426 12 -630 51 -118 22 -302 66 -297 71 3 2
110 -7 238 -21 l233 -26 23 21 c19 19 50 25 239 45 232 25 228 23 255 88 16
37 -5 73 -57 100 -32 17 -43 18 -98 7 -33 -6 -151 -23 -261 -36 -208 -27 -249
-37 -265 -64 -8 -15 -19 -14 -121 7 -288 60 -536 162 -852 350 -194 115 -347
237 -634 504 -144 133 -417 387 -607 563 -386 358 -353 314 -339 458 l6 68 44
-43 c25 -24 58 -66 74 -93 77 -136 376 -465 588 -648 126 -108 290 -231 426
-319 131 -84 554 -329 675 -390 146 -74 344 -135 510 -159 47 -6 103 -21 125
-32 137 -69 321 -103 514 -94 151 7 171 16 192 88 8 24 25 47 50 66 21 15 39
36 39 46 0 19 15 23 26 6 12 -19 167 -88 235 -104 35 -8 91 -15 125 -15 56 0
62 2 73 27 16 35 1 49 -109 99 -47 21 -173 97 -280 167 -156 102 -200 127
-221 123 -25 -5 -31 6 -169 272 -78 152 -171 324 -206 382 -52 87 -77 146
-145 340 -103 297 -136 405 -143 466 -6 42 -1 35 32 -56 21 -58 57 -148 79
-200 23 -52 69 -162 104 -245 107 -255 276 -577 428 -815 99 -155 266 -249
446 -250 61 0 89 18 105 66 11 32 10 40 -7 63 -29 38 -80 61 -141 61 -47 0
-78 10 -121 39 -11 7 -9 15 13 43 14 19 26 40 26 46 0 6 -108 182 -241 392
l-241 380 -69 417 c-37 230 -67 418 -66 420 2 1 31 -84 66 -190 86 -259 245
-582 364 -737 44 -58 85 -111 90 -118 6 -7 -8 -4 -33 7 -48 21 -69 19 -100
-14 -36 -39 -24 -63 75 -138 113 -86 280 -169 409 -202 130 -33 168 -33 187 1
13 25 12 28 -16 50 -19 15 -24 24 -15 24 16 0 60 58 60 78 0 42 -109 127 -201
157 -117 39 -335 300 -504 603 -32 57 -56 105 -54 106 2 2 87 -70 189 -161
195 -174 257 -221 355 -270 64 -32 168 -68 226 -78 31 -6 36 -4 47 20 24 52 7
73 -95 120 -126 59 -246 139 -335 223 -40 38 -136 115 -212 170 -117 86 -143
101 -165 95 -14 -3 -31 -13 -38 -22 -6 -9 -13 -14 -16 -11 -8 10 -96 246 -102
275 -4 17 -9 38 -12 49 -3 10 87 -83 200 -206 221 -242 280 -291 389 -326 102
-32 121 -34 151 -9 14 12 29 34 32 49 6 23 2 30 -37 54 -260 163 -343 243
-631 609 -252 320 -274 345 -342 389 l-50 33 -22 128 c-12 71 -21 131 -19 133
2 2 34 -52 71 -120 80 -144 180 -296 263 -395 33 -38 86 -105 117 -148 106
-143 225 -245 353 -302 76 -33 233 -73 291 -73 41 0 49 4 69 33 25 37 28 62
10 74 -7 4 -47 22 -87 40 -348 152 -746 557 -856 872 -54 153 -143 276 -258
355 l-54 37 -77 262 c-42 144 -83 300 -91 346 -15 88 -40 165 -60 191 -7 8
-128 274 -270 590 -142 316 -280 616 -308 665 -303 544 -783 1024 -1307 1308
-120 65 -315 148 -450 191 -63 21 -151 50 -195 66 -194 69 -354 108 -535 130
-79 9 -404 12 -460 3z m327 -179 c-3 -3 -12 -4 -19 -1 -8 3 -5 6 6 6 11 1 17
-2 13 -5z m253 -43 c196 -53 122 -54 -90 -2 -135 34 -148 39 -105 40 30 0 109
-15 195 -38z m-921 -165 c-2 -2 -40 -19 -84 -36 -44 -17 -136 -60 -204 -96
-110 -56 -121 -60 -95 -33 34 36 122 85 179 100 22 6 45 15 52 21 17 13 165
57 152 44z m971 -56 c36 -5 106 -10 155 -10 133 -1 394 -62 542 -128 231 -103
414 -228 638 -438 171 -161 215 -208 115 -125 -126 105 -266 193 -493 310
-155 79 -257 125 -355 157 -325 108 -639 162 -957 165 -129 1 -305 -20 -555
-66 -14 -2 -5 5 20 16 66 30 238 76 370 100 113 21 366 40 425 33 17 -2 59 -8
95 -14z m-1741 -403 c-25 -23 -68 -64 -94 -92 l-47 -50 52 65 c45 56 114 119
130 119 3 0 -16 -19 -41 -42z m281 -71 c24 -10 43 -11 68 -4 60 17 46 1 -45
-46 -238 -128 -450 -329 -608 -582 -30 -48 -55 -83 -55 -79 0 5 28 60 63 123
78 142 181 281 294 396 86 87 226 206 243 206 4 0 22 -6 40 -14z m1780 -33
c292 -47 653 -200 899 -380 114 -84 257 -234 340 -358 139 -208 199 -345 357
-819 79 -235 150 -439 159 -453 9 -14 27 -61 41 -106 13 -45 35 -109 49 -142
14 -33 63 -229 109 -435 189 -840 307 -1337 326 -1372 11 -20 20 -46 20 -56 0
-10 18 -95 40 -188 36 -153 110 -497 110 -514 0 -4 -11 -5 -24 -3 -18 4 -30
18 -44 52 -232 543 -295 732 -367 1112 -16 79 -92 437 -171 795 l-143 651
-166 539 c-173 558 -204 640 -299 782 -122 184 -302 351 -566 527 -231 154
-510 283 -785 361 l-120 34 70 -5 c39 -3 113 -13 165 -22z m-61 -239 c368
-117 502 -173 661 -278 342 -228 609 -599 701 -975 14 -57 32 -105 46 -122 13
-15 23 -37 23 -49 0 -12 4 -30 10 -40 5 -10 19 -83 30 -161 14 -97 29 -161 45
-197 14 -29 25 -68 25 -88 0 -19 11 -59 24 -87 14 -29 27 -74 31 -102 l5 -50
-19 45 c-10 25 -136 298 -279 606 l-260 562 -21 128 c-25 157 -72 262 -148
337 l-49 47 -42 -36 c-32 -27 -42 -43 -42 -66 0 -29 -3 -27 -87 59 -179 180
-379 303 -648 395 -259 90 -458 126 -760 136 l-200 6 290 17 c160 9 298 17
309 18 10 0 170 -47 355 -105z m-1018 59 c-25 -3 -132 -31 -239 -63 -143 -43
-208 -68 -249 -95 -30 -20 -150 -125 -266 -233 -116 -108 -207 -190 -202 -182
28 46 351 421 368 426 10 3 36 21 56 39 60 54 186 97 311 105 111 7 296 9 221
3z m-1231 -7 c0 -2 -8 -10 -17 -17 -16 -13 -17 -12 -4 4 13 16 21 21 21 13z
m-30 -40 c0 -2 -8 -10 -17 -17 -16 -13 -17 -12 -4 4 13 16 21 21 21 13z m-72
-98 c-23 -35 -66 -106 -95 -158 -29 -52 -53 -92 -53 -89 0 30 71 164 121 229
34 44 64 80 66 80 2 0 -15 -28 -39 -62z m1808 -78 c294 -20 494 -77 749 -213
145 -77 184 -103 264 -176 136 -124 210 -237 260 -396 13 -38 44 -117 70 -175
55 -120 48 -101 147 -399 62 -186 90 -253 159 -384 47 -88 85 -162 85 -166 0
-4 20 -63 45 -130 25 -67 45 -131 45 -141 0 -10 9 -40 21 -67 11 -26 38 -112
60 -190 103 -374 169 -558 448 -1256 105 -262 191 -480 191 -485 0 -9 -61 85
-147 228 -85 141 -227 424 -296 590 -55 134 -546 1682 -592 1870 -77 309 -215
586 -407 815 -335 402 -730 617 -1220 666 -91 9 -135 9 -195 0 -275 -42 -465
-98 -659 -195 l-129 -64 60 55 c68 63 177 129 282 173 139 58 157 61 398 55
121 -3 283 -10 361 -15z m2235 -327 c64 -79 132 -179 191 -280 50 -87 101
-174 113 -193 13 -19 28 -60 35 -90 7 -30 49 -156 93 -280 44 -124 88 -254 97
-290 10 -36 25 -82 34 -103 12 -26 21 -102 31 -240 8 -111 17 -233 20 -272 23
-308 56 -818 53 -821 -2 -2 -15 40 -27 94 -13 53 -39 135 -58 182 -22 54 -45
139 -62 235 l-27 150 21 30 c49 66 57 142 25 228 -11 29 -26 98 -34 152 -8 55
-46 224 -84 375 -39 151 -73 297 -77 325 -4 27 -15 61 -25 75 -10 14 -29 58
-43 99 -14 40 -44 99 -66 130 -22 32 -43 70 -47 86 -25 101 -169 375 -278 530
-67 95 -31 57 115 -122z m-2113 82 c96 -25 216 -65 209 -71 -1 -2 -50 12 -107
30 -92 29 -228 57 -340 70 -19 2 4 2 53 -1 48 -2 131 -15 185 -28z m252 -85
c8 -5 11 -10 5 -10 -5 0 -17 5 -25 10 -8 5 -10 10 -5 10 6 0 17 -5 25 -10z
m-2426 -90 c-28 -85 -73 -258 -75 -292 -3 -37 -17 90 -18 160 -1 56 1 62 19
62 15 0 29 19 57 75 20 41 38 73 40 72 1 -2 -9 -36 -23 -77z m2607 -13 c21
-16 19 -16 -11 1 -100 55 -150 84 -150 88 0 6 129 -66 161 -89z m-2432 -16
c-12 -34 -23 -60 -25 -58 -2 2 6 32 17 66 12 34 23 60 25 58 2 -2 -6 -32 -17
-66z m1761 39 c96 -10 298 -54 335 -73 11 -5 91 -55 179 -110 169 -108 204
-141 270 -260 19 -34 48 -100 63 -147 16 -47 37 -98 47 -113 10 -15 16 -30 14
-33 -3 -2 -42 44 -87 104 -71 95 -177 204 -364 373 -50 46 -185 121 -279 156
-116 44 -213 63 -358 69 -112 6 -120 4 -295 -39 -99 -25 -238 -68 -310 -96
-71 -28 -134 -51 -140 -50 -5 0 60 35 145 78 124 63 178 84 268 105 182 43
336 54 512 36z m961 -268 c72 -64 108 -106 192 -230 92 -134 110 -168 160
-299 31 -81 67 -190 81 -241 34 -123 87 -262 150 -397 39 -81 58 -139 74 -221
12 -61 56 -211 97 -334 41 -123 73 -225 71 -227 -5 -5 -260 454 -276 497 -7
19 -35 73 -61 120 -26 47 -60 126 -75 175 -14 50 -58 152 -96 228 -45 90 -109
250 -184 460 -139 389 -159 437 -200 499 -18 26 -30 48 -28 48 3 0 46 -35 95
-78z m-2783 21 c-1 -10 4 -39 11 -65 7 -26 11 -57 8 -68 -6 -23 29 -180 43
-194 5 -5 31 5 62 24 l53 33 -58 -66 c-58 -67 -87 -118 -87 -159 -1 -40 -48
82 -61 156 -13 79 -8 237 11 309 12 45 24 65 18 30z m1876 -25 l161 -42 136
-103 c75 -56 141 -109 148 -116 12 -16 382 -592 395 -617 4 -8 -3 -1 -16 15
-196 254 -451 484 -719 648 -134 83 -179 93 -444 101 l-230 7 54 -38 c30 -21
95 -67 144 -102 85 -60 94 -64 168 -73 95 -11 180 -43 266 -99 35 -23 62 -43
61 -45 -2 -1 -48 3 -103 11 -97 12 -101 12 -140 -9 -37 -20 -40 -25 -39 -61 2
-64 78 -115 171 -115 27 0 38 -10 90 -77 156 -209 268 -440 352 -728 22 -77
63 -196 91 -265 67 -163 69 -169 21 -80 -44 82 -49 77 -26 -27 9 -37 17 -77
20 -88 3 -16 -6 -26 -40 -44 -33 -17 -45 -30 -45 -46 0 -12 28 -116 63 -232
l63 -209 -65 33 c-47 24 -85 35 -133 40 l-66 6 -56 -53 c-31 -29 -56 -61 -56
-71 0 -10 -11 -44 -25 -75 -14 -31 -25 -60 -25 -64 0 -9 100 -51 109 -46 4 3
27 36 51 75 40 64 48 71 77 71 19 0 43 -9 60 -24 l28 -24 6 -169 c5 -125 13
-192 30 -263 34 -139 24 -280 -19 -280 -8 0 -44 -5 -79 -11 -54 -10 -66 -15
-78 -40 -20 -39 -20 -40 26 -73 59 -41 150 -48 199 -14 43 29 140 198 140 244
0 41 -27 131 -52 171 -17 29 -19 43 -12 114 4 51 10 76 15 67 20 -30 58 -169
65 -237 4 -40 10 -68 14 -61 4 6 5 -14 2 -44 -3 -42 0 -62 13 -83 18 -26 17
-27 -8 -47 l-26 -21 19 -605 c22 -659 27 -713 85 -888 19 -57 35 -106 35 -109
0 -3 -20 11 -45 31 -26 22 -50 34 -57 30 -78 -44 -430 -268 -435 -278 -5 -7
-24 -18 -43 -26 -19 -7 -253 -151 -520 -318 -267 -167 -512 -314 -545 -327
-33 -13 -89 -35 -124 -50 -78 -33 -183 -43 -277 -25 -128 24 -177 65 -194 162
-29 174 -44 240 -71 309 -30 77 -104 193 -153 238 -33 31 -33 37 7 57 79 40
563 343 602 377 57 49 72 93 49 142 -20 43 -67 79 -93 70 -10 -3 -26 -14 -36
-25 -10 -11 -31 -20 -46 -20 -15 0 -31 -4 -34 -10 -3 -5 -41 17 -84 48 -145
108 -344 194 -513 223 -88 15 -83 -2 -47 141 23 93 24 163 3 203 -14 28 -14
31 16 72 29 42 29 45 15 73 -8 16 -19 32 -25 35 -6 3 -42 -1 -80 -11 -136 -33
-257 -5 -358 82 -33 28 -41 41 -37 58 21 76 170 484 181 497 8 9 27 54 43 100
15 46 42 109 60 140 101 180 137 452 92 692 -44 231 -64 418 -65 607 -1 156 2
192 16 225 10 22 31 114 47 205 19 104 41 193 60 240 17 41 31 83 31 93 0 10
9 35 20 55 27 50 110 248 110 262 0 6 -7 21 -15 34 -15 23 -14 25 92 115 59
50 115 91 125 91 17 0 133 62 159 86 9 8 81 33 160 55 79 22 152 42 162 45 9
3 26 23 38 45 l20 40 78 -7 c65 -5 90 -3 142 14 55 18 157 41 249 55 14 2 83
5 154 6 121 1 138 -1 290 -41z m-1404 -26 c0 -9 -9 -23 -19 -29 -19 -12 -19
-12 -3 17 20 35 22 36 22 12z m-501 -578 c3 -16 1 -17 -13 -5 -19 16 -21 34
-3 29 6 -3 14 -13 16 -24z m2092 -103 c52 -43 108 -94 126 -112 43 -47 119
-162 127 -194 4 -15 36 -72 71 -128 47 -76 93 -174 175 -377 62 -151 139 -330
171 -397 90 -184 211 -379 280 -449 56 -57 64 -71 145 -265 47 -112 98 -230
115 -261 l29 -58 -24 0 c-17 0 -50 28 -119 99 -162 170 -277 365 -356 608 -90
278 -267 755 -312 843 -94 184 -198 328 -526 729 -20 24 -22 41 -4 41 4 0 50
-35 102 -79z m1756 -406 c72 -170 135 -328 140 -350 6 -22 33 -114 60 -205 47
-153 71 -252 60 -240 -3 3 -91 247 -197 544 -105 296 -194 546 -197 555 -4 9
-4 14 -1 11 3 -3 64 -144 135 -315z m1269 -400 c124 -461 146 -554 151 -635 4
-77 10 -101 28 -125 19 -26 31 -90 89 -500 37 -258 69 -486 72 -505 5 -35 5
-35 -9 -10 -22 39 -95 356 -102 440 -11 139 -65 368 -126 530 -16 44 -49 187
-79 345 -38 200 -62 302 -95 395 -43 121 -45 132 -65 360 -20 233 -22 274 -14
255 2 -6 70 -253 150 -550z m-2490 440 c28 -38 67 -110 88 -160 33 -82 119
-375 112 -382 -2 -2 -15 32 -31 74 -80 228 -113 310 -171 428 -35 71 -60 125
-56 120 5 -6 31 -41 58 -80z m514 -575 c0 -14 11 -49 25 -78 14 -30 25 -64 25
-75 0 -12 11 -42 25 -66 14 -23 25 -50 25 -58 0 -9 13 -37 29 -63 16 -25 32
-65 36 -88 4 -23 18 -58 32 -78 13 -21 106 -199 205 -397 197 -395 253 -494
361 -637 125 -164 355 -379 512 -478 22 -14 44 -32 49 -41 24 -41 239 -317
330 -424 55 -66 112 -134 126 -151 l25 -31 -27 20 c-505 378 -646 493 -824
671 -363 363 -685 842 -743 1104 -13 57 -68 200 -168 435 -141 331 -150 355
-162 450 -19 150 -57 314 -89 386 -69 152 -34 97 82 -131 69 -135 125 -256
126 -270z m489 -622 c18 -20 44 -61 57 -90 14 -29 52 -80 83 -113 51 -53 63
-75 110 -195 29 -74 86 -204 126 -287 41 -84 72 -153 71 -153 -2 0 -35 42 -73
93 -50 66 -127 201 -271 477 -111 212 -202 394 -202 405 0 12 14 -4 34 -40 18
-33 48 -77 65 -97z m691 -63 l58 -60 30 -192 c17 -105 38 -206 47 -224 17 -31
68 -239 62 -246 -3 -2 -310 849 -325 901 -2 6 13 -18 34 -54 20 -36 63 -92 94
-125z m-1639 -752 c-12 -20 -14 -14 -5 12 4 9 9 14 11 11 3 -2 0 -13 -6 -23z
m783 -89 c15 -24 57 -83 94 -133 155 -206 208 -256 737 -699 280 -235 519
-435 530 -445 29 -25 -120 43 -249 114 -222 123 -454 294 -643 476 -73 70
-413 421 -700 724 l-44 45 124 -20 124 -20 27 -42z m-398 -56 c60 -68 131
-145 159 -171 l50 -49 -50 40 c-66 52 -190 183 -237 250 -21 28 -36 52 -34 52
3 0 53 -55 112 -122z m188 -393 c27 -8 67 -18 90 -21 37 -5 43 -3 61 25 l20
31 295 -294 c280 -279 306 -302 505 -447 127 -93 254 -176 321 -211 130 -68
311 -130 444 -153 52 -9 162 -37 243 -61 139 -42 150 -44 167 -29 17 15 24 13
117 -34 82 -41 109 -60 153 -112 53 -60 54 -61 25 -55 -87 17 -426 76 -443 76
-10 0 -31 -10 -46 -21 -22 -18 -27 -28 -24 -58 2 -28 0 -35 -12 -33 -46 9
-497 196 -620 258 -330 164 -647 381 -911 623 -53 48 -185 186 -294 307 -109
120 -215 236 -234 257 l-36 39 65 -35 c36 -19 87 -43 114 -52z m1562 -235 c23
-8 40 -31 78 -103 27 -50 44 -87 39 -82 -42 44 -162 195 -155 195 5 0 22 -5
38 -10z m264 -65 c0 -5 -5 -3 -10 5 -5 8 -10 20 -10 25 0 6 5 3 10 -5 5 -8 10
-19 10 -25z m-4901 -576 c49 -8 112 -38 216 -103 l40 -25 -60 -1 c-101 0 -237
34 -343 86 -80 39 -93 48 -77 55 22 9 139 3 224 -12z m114 -283 c82 -14 151
-27 153 -29 9 -9 -132 -102 -191 -125 -72 -30 -170 -39 -248 -22 -53 11 -57
13 -57 40 0 31 10 41 120 119 30 22 60 40 65 40 6 0 77 -10 158 -23z m3167
-719 c87 -61 197 -150 250 -202 164 -159 293 -250 472 -335 133 -62 162 -71
570 -185 188 -53 349 -98 356 -100 10 -4 10 -10 2 -25 -16 -29 0 -45 63 -65
29 -10 83 -33 121 -52 97 -49 185 -81 301 -109 l100 -24 -140 5 c-797 29
-1645 461 -2206 1121 -105 124 -107 124 111 -29z m780 -341 c58 -29 142 -68
187 -86 46 -19 81 -35 80 -36 -20 -20 -399 155 -467 215 l-35 32 65 -36 c36
-20 112 -60 170 -89z m1353 -553 c-13 -2 -35 -2 -50 0 -16 2 -5 4 22 4 28 0
40 -2 28 -4z"/>
<path d="M3382 7105 c-204 -70 -380 -188 -555 -371 l-48 -50 11 -51 c11 -49
12 -51 51 -57 38 -6 44 -3 102 48 150 131 315 230 494 297 59 23 116 48 127
58 65 58 22 151 -71 151 -21 0 -71 -12 -111 -25z"/>
<path d="M3290 6653 c-34 -55 -40 -120 -15 -179 14 -34 14 -35 -13 -45 -24 -9
-30 -7 -56 23 -113 129 -137 143 -156 92 -22 -58 -7 -129 37 -175 23 -25 23
-28 7 -37 -14 -8 -24 -3 -51 23 -18 17 -33 39 -33 47 0 22 -56 59 -77 51 -56
-20 -68 -74 -34 -150 21 -45 52 -68 82 -60 16 4 17 2 7 -16 -6 -12 -28 -47
-48 -77 -26 -38 -41 -75 -50 -123 -11 -63 -15 -69 -49 -87 -48 -24 -106 -86
-125 -131 -15 -36 -15 -38 11 -63 14 -14 32 -26 40 -26 22 0 70 28 85 49 39
55 111 122 126 116 12 -4 3 -19 -41 -63 -68 -68 -74 -99 -27 -132 20 -14 39
-20 53 -16 29 7 102 79 117 117 14 33 18 34 55 17 22 -10 25 -17 21 -37 -3
-15 -9 -47 -12 -72 -6 -41 -4 -48 17 -63 53 -37 93 -12 123 78 19 55 20 56 57
56 l37 0 -13 -49 c-14 -54 -10 -63 42 -90 20 -10 27 -7 62 29 22 23 43 54 46
71 15 66 80 81 135 29 46 -43 70 -39 104 18 24 39 42 53 100 82 76 37 186 137
241 218 l29 43 -114 114 c-90 90 -112 117 -102 127 7 7 12 39 12 78 0 63 -1
66 -32 85 -37 22 -51 21 -84 -3 -18 -13 -23 -27 -24 -59 0 -24 -3 -43 -7 -43
-5 0 -29 8 -56 17 -37 13 -47 21 -45 37 1 12 -1 49 -6 82 -6 52 -12 65 -37 83
-17 12 -38 21 -47 19 -32 -6 -67 -112 -51 -154 8 -23 7 -24 -34 -24 -34 0 -49
6 -69 28 -24 25 -25 31 -17 87 8 58 7 61 -19 82 -43 36 -68 30 -102 -24z m415
-417 c67 -31 175 -108 175 -124 0 -4 -24 -22 -53 -39 -37 -22 -90 -40 -173
-58 -65 -14 -124 -28 -130 -30 -8 -2 -6 13 4 47 20 69 5 165 -34 215 l-27 36
84 -7 c64 -5 100 -15 154 -40z"/>
<path d="M4735 4900 c-35 -14 -47 -36 -39 -72 4 -18 10 -82 13 -142 6 -103 7
-110 33 -129 23 -17 31 -18 56 -8 23 10 31 21 40 62 26 110 6 216 -50 277 -24
24 -24 24 -53 12z"/>
<path d="M6520 1317 c-34 -17 -44 -39 -36 -79 13 -68 53 -113 180 -196 188
-124 438 -248 691 -344 l130 -49 420 -57 c261 -35 454 -57 511 -57 82 1 97 4
157 33 58 29 157 118 157 141 0 4 -11 18 -25 31 -24 23 -28 23 -68 11 -70 -22
-172 -23 -607 -2 l-415 19 -305 112 c-168 61 -334 127 -370 147 -109 60 -232
149 -316 227 -74 69 -82 74 -104 63z"/>
</g>
</svg>
