<?xml version="1.0" standalone="no"?>
<!DOCTYPE svg PUBLIC "-//W3C//DTD SVG 20010904//EN"
 "http://www.w3.org/TR/2001/REC-SVG-20010904/DTD/svg10.dtd">
<svg version="1.0" xmlns="http://www.w3.org/2000/svg"
 width="1024.000000pt" height="1024.000000pt" viewBox="0 0 1024.000000 1024.000000"
 preserveAspectRatio="xMidYMid meet">
<metadata>
Created by potrace 1.10, written by Peter Selinger 2001-2011
</metadata>
<g transform="translate(0.000000,1024.000000) scale(0.100000,-0.100000)"
fill="#000000" stroke="none">
<path d="M5631 9108 c-40 -32 -41 -35 -38 -83 2 -27 20 -112 41 -187 46 -173
91 -438 107 -635 12 -137 11 -155 -4 -190 -9 -21 -42 -148 -72 -283 -70 -311
-102 -396 -216 -585 -91 -151 -252 -329 -383 -423 l-46 -33 -10 25 c-26 69
-225 537 -245 576 -65 128 -266 408 -427 595 -107 123 -345 358 -428 422 -154
117 -363 196 -553 208 -91 6 -134 -8 -169 -55 -59 -80 90 -190 258 -190 64 0
67 -1 147 -59 45 -32 115 -71 155 -86 70 -28 79 -35 265 -224 256 -261 393
-430 528 -649 36 -59 59 -107 59 -125 0 -16 8 -41 19 -55 46 -66 118 -229 157
-357 24 -77 42 -140 41 -141 -1 -1 -34 -15 -72 -32 -374 -163 -731 -160 -1110
9 -140 63 -198 111 -248 206 -54 102 -105 143 -180 143 -53 0 -75 -11 -88 -41
-10 -26 -8 -41 15 -113 68 -208 214 -339 506 -451 50 -20 139 -48 198 -63 100
-25 121 -27 322 -27 141 0 236 5 275 13 105 23 267 71 349 102 43 17 81 28 84
25 7 -7 340 -1513 402 -1819 65 -316 97 -453 166 -695 181 -640 388 -1158 630
-1577 35 -61 64 -115 64 -121 0 -11 -131 -53 -245 -79 -96 -22 -285 -44 -370
-44 -73 1 -301 47 -345 70 -137 73 -441 276 -530 353 -58 51 -188 164 -288
252 -218 190 -277 233 -397 290 -137 66 -282 98 -435 99 -175 1 -233 -8 -275
-46 -63 -55 -69 -149 -13 -191 26 -19 28 -19 94 -3 220 55 445 9 616 -127 350
-277 1034 -795 1078 -815 130 -58 363 -97 580 -96 211 0 416 37 588 105 40 16
76 29 80 29 11 0 217 -247 304 -365 197 -265 482 -477 782 -581 127 -44 209
-25 250 60 32 66 21 75 -218 177 -115 49 -225 101 -245 116 -129 97 -314 269
-432 403 -70 79 -229 287 -229 298 1 4 33 28 73 54 266 171 520 420 688 675
132 201 186 324 309 713 62 195 128 408 146 473 64 223 139 345 304 498 146
135 160 172 91 240 -21 22 -47 39 -57 39 -18 0 -239 -144 -287 -187 -42 -37
-136 -174 -184 -269 -28 -55 -65 -146 -83 -204 -17 -58 -52 -170 -77 -249 -25
-79 -58 -206 -74 -282 -49 -247 -174 -518 -339 -738 -105 -139 -257 -302 -366
-392 -76 -62 -252 -179 -269 -179 -27 1 -293 510 -408 783 -166 392 -296 824
-391 1297 -19 96 -73 345 -121 552 -80 354 -339 1537 -347 1585 -2 17 17 36
100 98 314 231 529 523 641 870 46 140 115 472 132 630 15 138 6 332 -21 491
-12 65 -29 171 -39 234 -21 133 -46 204 -92 263 -37 48 -105 107 -124 107 -7
0 -31 -15 -54 -32z"/>
<path d="M9840 771 c-25 -7 -25 -7 9 -19 48 -17 61 -15 61 8 0 21 -21 25 -70
11z"/>
</g>
</svg>
