<?xml version="1.0" standalone="no"?>
<!DOCTYPE svg PUBLIC "-//W3C//DTD SVG 20010904//EN"
 "http://www.w3.org/TR/2001/REC-SVG-20010904/DTD/svg10.dtd">
<svg version="1.0" xmlns="http://www.w3.org/2000/svg"
 width="1024.000000pt" height="1024.000000pt" viewBox="0 0 1024.000000 1024.000000"
 preserveAspectRatio="xMidYMid meet">
<metadata>
Created by potrace 1.10, written by Peter Selinger 2001-2011
</metadata>
<g transform="translate(0.000000,1024.000000) scale(0.100000,-0.100000)"
fill="#000000" stroke="none">
<path d="M5419 9025 c-38 -21 -42 -51 -13 -94 13 -20 40 -76 59 -124 34 -85
35 -88 20 -125 -35 -83 -101 -131 -393 -291 -470 -257 -902 -452 -1478 -669
-432 -163 -1142 -394 -1374 -447 -140 -32 -194 -72 -154 -116 14 -16 31 -19
93 -19 210 0 784 121 1477 310 100 28 188 50 196 50 23 0 50 -36 130 -175 l75
-130 22 -250 c16 -188 21 -324 21 -550 l0 -300 -568 -108 c-413 -78 -627 -114
-787 -131 l-220 -24 -315 32 c-173 18 -318 31 -322 29 -3 -1 9 -56 28 -120 34
-115 36 -119 93 -173 67 -63 143 -111 231 -147 34 -13 82 -37 107 -53 68 -43
139 -65 213 -64 68 1 81 6 241 83 172 82 552 187 1039 286 124 25 233 48 243
51 16 5 17 -34 17 -734 l0 -740 -22 -5 c-13 -3 -320 -62 -683 -131 -580 -111
-702 -131 -1007 -166 -191 -22 -383 -40 -425 -40 -43 0 -219 9 -392 20 -173
11 -317 17 -320 14 -3 -3 8 -42 23 -87 55 -157 34 -137 296 -279 316 -171 371
-193 480 -193 79 1 100 6 310 77 397 136 790 236 1425 363 154 31 288 58 298
61 16 5 17 -28 17 -598 0 -1095 27 -1307 193 -1552 78 -115 242 -251 351 -291
24 -8 303 -42 657 -80 l616 -65 659 45 c362 24 963 65 1334 90 707 47 803 59
975 117 152 52 235 126 235 211 0 41 -57 141 -125 218 -108 122 -178 285 -204
470 -5 41 -24 310 -42 599 -20 334 -37 537 -45 558 -27 67 -76 45 -94 -42 -5
-28 -46 -235 -91 -459 -44 -224 -94 -454 -110 -510 -35 -118 -108 -277 -169
-368 -56 -82 -170 -195 -242 -237 -309 -183 -971 -266 -2133 -267 -537 0 -702
16 -939 91 -153 48 -235 114 -298 239 -96 189 -99 225 -96 1155 l3 775 55 7
c114 15 512 60 1000 113 278 30 836 91 1240 135 404 44 786 84 848 89 142 13
215 35 263 81 74 70 63 158 -30 249 -95 94 -215 153 -379 186 -74 15 -87 15
-169 0 -48 -9 -308 -58 -578 -110 -474 -90 -2244 -400 -2249 -393 -1 2 1 219
5 483 4 264 8 595 8 736 l1 256 33 6 c1125 194 1557 246 2202 267 171 6 330
15 354 21 85 19 131 75 131 162 0 38 -6 51 -42 91 -72 83 -132 118 -293 176
l-150 53 -90 -12 c-56 -7 -123 -25 -176 -46 -155 -62 -227 -77 -1239 -255
-377 -66 -694 -122 -706 -125 -20 -4 -20 -1 -17 148 5 218 40 671 64 816 17
110 18 126 5 146 -29 44 -106 97 -248 169 -170 87 -228 119 -228 127 0 3 19
12 43 18 173 52 774 272 1077 396 336 136 788 336 888 392 168 93 172 143 24
285 -97 93 -184 150 -364 241 -218 111 -330 139 -399 102z"/>
</g>
</svg>
