<?xml version="1.0" standalone="no"?>
<!DOCTYPE svg PUBLIC "-//W3C//DTD SVG 20010904//EN"
 "http://www.w3.org/TR/2001/REC-SVG-20010904/DTD/svg10.dtd">
<svg version="1.0" xmlns="http://www.w3.org/2000/svg"
 width="1024.000000pt" height="1024.000000pt" viewBox="0 0 1024.000000 1024.000000"
 preserveAspectRatio="xMidYMid meet">
<metadata>
Created by potrace 1.10, written by Peter Selinger 2001-2011
</metadata>
<g transform="translate(0.000000,1024.000000) scale(0.100000,-0.100000)"
fill="#000000" stroke="none">
<path d="M4679 9712 c-9 -4 -105 -106 -213 -227 -197 -219 -426 -522 -426
-563 0 -34 -12 -31 -71 18 -84 70 -160 87 -250 55 -92 -33 -118 -89 -94 -203
25 -121 83 -267 135 -342 9 -14 27 -51 39 -83 11 -32 37 -88 56 -125 19 -37
56 -116 81 -176 l45 -108 -19 -22 c-11 -11 -28 -41 -38 -66 -38 -98 -101 -171
-205 -235 -9 -6 -28 -19 -43 -29 -40 -28 -73 -14 -211 90 -100 75 -161 135
-392 384 -156 167 -320 334 -379 384 l-106 89 -81 8 c-45 4 -114 8 -154 8
l-72 1 -60 -56 c-123 -113 -143 -209 -92 -442 17 -79 38 -157 47 -173 8 -17
105 -143 214 -281 l199 -250 253 -176 c140 -98 280 -199 311 -226 68 -59 72
-85 28 -155 -26 -40 -58 -145 -78 -256 -3 -16 -9 -34 -13 -40 -5 -5 -35 -149
-69 -320 -33 -170 -70 -335 -82 -365 -38 -99 -90 -391 -99 -560 -5 -85 -15
-182 -22 -215 -12 -53 -11 -134 12 -660 l27 -600 -22 -51 c-21 -47 -39 -62
-296 -255 -150 -112 -310 -237 -354 -277 -99 -90 -190 -154 -328 -229 -92 -50
-127 -78 -270 -214 -124 -116 -175 -158 -205 -167 -48 -14 -105 -75 -135 -141
-33 -74 -29 -154 17 -296 58 -185 99 -240 202 -271 38 -11 64 -12 138 -3 l90
11 305 213 c230 161 328 224 400 255 85 38 108 54 206 146 81 76 107 106 97
112 -10 7 -1 17 35 37 26 16 63 41 82 57 18 16 40 27 48 24 15 -6 158 40 212
69 18 9 56 15 92 15 68 0 93 -14 197 -116 66 -64 129 -99 223 -123 65 -16 150
-49 256 -97 17 -8 45 -14 62 -14 17 0 48 -11 69 -24 25 -16 78 -32 160 -47
l123 -23 60 -113 c33 -62 66 -116 73 -120 7 -5 22 -57 35 -117 27 -134 74
-253 135 -344 96 -144 269 -289 439 -366 42 -20 125 -68 184 -107 60 -40 131
-88 158 -106 28 -18 95 -57 150 -85 55 -28 101 -51 102 -52 1 -1 -9 -24 -22
-51 -14 -26 -25 -58 -25 -69 1 -42 39 -103 128 -207 82 -96 99 -110 182 -154
112 -59 275 -165 351 -227 31 -25 64 -48 75 -51 10 -3 159 -11 329 -18 284
-10 317 -10 390 6 105 23 139 20 189 -14 22 -15 59 -34 81 -41 22 -7 67 -32
99 -56 54 -40 65 -44 115 -44 31 0 73 3 94 6 32 6 37 10 37 33 -1 23 -23 39
-228 156 -171 98 -234 129 -257 128 -64 -5 -170 -11 -450 -26 -237 -13 -293
-13 -305 -3 -8 7 -108 72 -223 144 -163 103 -230 152 -311 228 -57 53 -109
108 -115 120 -13 30 -23 29 251 8 l208 -16 75 67 c41 37 84 83 96 102 21 34
22 40 11 172 -5 75 -7 137 -3 139 4 1 2 37 -5 80 -7 42 -13 83 -13 89 -1 7
-17 19 -36 27 -19 8 -35 17 -35 19 0 12 222 149 228 141 4 -6 36 -56 71 -112
35 -56 68 -102 72 -102 11 0 49 -123 59 -194 11 -71 32 -104 85 -130 l38 -19
19 23 c10 12 18 32 18 44 -1 39 -46 200 -70 246 -13 25 -23 59 -21 77 1 23 -7
41 -28 66 -17 18 -34 52 -39 74 -8 37 -7 40 18 55 l28 16 62 -129 c34 -71 65
-131 69 -134 5 -2 14 -31 21 -64 19 -89 47 -133 93 -144 73 -17 85 28 41 154
-14 41 -34 110 -45 154 -10 44 -26 102 -34 128 -14 47 -14 49 10 73 13 13 34
24 47 24 39 0 115 -75 153 -151 28 -54 43 -73 74 -88 33 -17 54 -46 150 -208
97 -164 127 -205 234 -322 168 -183 137 -171 797 -326 l527 -124 77 21 c89 25
105 42 81 88 -22 43 -57 56 -165 64 -71 5 -203 34 -524 114 l-429 108 67 43
c121 79 176 167 157 251 -15 64 -49 119 -85 134 -59 25 -274 36 -449 24 -87
-6 -159 -9 -160 -7 -2 2 -36 46 -75 97 -41 52 -93 135 -120 190 -59 123 -130
199 -215 230 -32 12 -73 22 -91 22 -47 0 -117 -26 -150 -57 -28 -26 -30 -26
-75 -13 -67 19 -86 16 -147 -26 l-55 -38 -74 19 c-86 21 -96 18 -174 -50 -55
-48 -117 -89 -151 -100 -14 -4 -39 -23 -55 -41 l-31 -34 -77 41 c-67 35 -96
43 -210 60 -73 11 -150 27 -172 35 -66 25 -194 102 -292 176 l-93 69 -102 203
-101 202 44 41 c35 33 54 43 94 49 69 9 208 50 258 76 27 14 96 29 197 44 139
20 628 125 722 155 34 11 38 10 62 -17 14 -16 47 -60 72 -97 55 -80 129 -149
195 -183 26 -13 73 -47 106 -75 32 -28 83 -68 113 -87 59 -38 199 -92 241 -92
14 0 113 -29 221 -63 l196 -64 183 14 c174 13 186 15 224 41 79 55 105 126 86
235 -6 34 -13 78 -16 98 -10 71 -49 111 -209 217 -83 55 -189 119 -235 142
-220 109 -559 336 -665 444 -104 108 -185 208 -211 260 -33 67 -55 173 -55
266 0 90 -13 140 -45 178 -50 60 -63 115 -65 282 -2 134 1 168 21 250 21 87
24 128 32 490 5 217 10 577 10 800 l1 405 -68 390 c-37 215 -71 409 -77 433
-9 41 -7 45 45 123 45 68 94 116 317 314 145 128 276 249 292 268 63 82 210
226 321 316 65 53 125 101 132 107 7 5 36 53 64 105 68 122 81 198 58 317 -14
72 -22 88 -64 136 -56 65 -74 72 -211 81 l-103 7 -141 -89 c-139 -86 -151 -96
-536 -466 -247 -236 -399 -375 -406 -370 -7 4 -52 33 -102 65 -49 32 -95 58
-102 58 -6 0 -101 32 -210 71 -199 71 -213 79 -259 145 -13 20 -11 29 31 111
31 63 45 102 45 131 0 22 5 53 11 69 5 15 27 122 49 238 21 115 47 230 59 255
45 98 15 173 -81 201 -23 6 -45 2 -94 -18 -53 -22 -72 -37 -106 -82 l-41 -54
-24 29 c-12 16 -39 61 -59 99 -65 127 -107 199 -141 245 -19 25 -52 73 -75
108 -46 72 -121 134 -200 164 -39 16 -82 22 -163 24 -60 2 -117 0 -126 -4z
m176 -161 c3 -5 1 -12 -5 -16 -5 -3 -10 1 -10 9 0 18 6 21 15 7z m-110 -41
c-5 -17 -10 -19 -21 -9 -19 15 -18 27 4 31 23 6 25 3 17 -22z m302 -78 c20
-31 45 -77 56 -102 11 -25 27 -54 37 -65 30 -35 116 -187 166 -294 l48 -103
-29 -25 c-113 -93 -125 -105 -125 -128 0 -32 46 -85 75 -85 64 0 157 64 206
143 18 28 55 83 83 120 l51 68 3 -36 c2 -23 -4 -45 -16 -63 -12 -16 -37 -106
-65 -228 -24 -111 -52 -212 -60 -225 -16 -22 -16 -21 -10 29 4 37 1 65 -11 96
-23 61 -39 73 -71 52 -21 -14 -25 -24 -25 -62 l0 -46 -36 22 c-49 31 -63 17
-45 -48 8 -26 13 -54 13 -64 -1 -20 35 -30 60 -17 23 13 29 8 44 -34 9 -28 16
-32 45 -32 19 0 34 -4 34 -10 -1 -38 -17 -226 -21 -250 l-5 -30 19 22 19 22
24 -25 c35 -38 96 -70 167 -90 57 -16 61 -19 47 -34 -8 -9 -15 -25 -15 -34 0
-15 -7 -12 -37 14 -47 42 -109 69 -173 77 -55 6 -55 7 -44 -59 5 -28 11 -38
25 -38 14 0 19 -7 19 -27 0 -22 2 -25 10 -13 5 8 10 25 10 38 0 24 7 27 29 13
11 -7 11 -23 2 -92 -17 -129 -26 -352 -14 -374 21 -37 36 22 39 159 5 169 21
250 52 254 l22 3 -6 -148 c-3 -81 -8 -154 -10 -162 -9 -29 54 -69 69 -43 3 4
10 68 16 142 18 222 21 240 36 240 12 0 15 -34 17 -182 3 -179 4 -183 25 -186
24 -4 25 1 43 183 6 61 13 123 15 139 4 24 3 26 -9 17 -12 -10 -20 -3 -46 33
-17 26 -27 46 -23 46 13 0 117 -41 126 -50 5 -4 1 -69 -7 -143 -9 -75 -16
-149 -15 -164 0 -27 1 -27 17 10 10 21 20 35 24 32 9 -9 15 18 28 133 7 56 16
104 20 107 4 3 19 -4 33 -15 46 -37 135 -78 191 -90 31 -6 56 -15 56 -19 0 -4
-13 -32 -30 -62 l-29 -55 34 4 c46 5 47 -17 2 -48 -33 -23 -87 -90 -87 -109 0
-7 8 -7 25 1 34 15 42 3 21 -32 -9 -17 -15 -30 -12 -30 15 0 106 104 106 121
0 22 73 115 103 131 15 7 23 6 35 -6 15 -15 12 -20 -36 -69 -40 -41 -52 -60
-52 -84 0 -22 -5 -32 -19 -36 -18 -4 -81 -81 -81 -98 0 -5 10 -8 22 -6 17 1
24 -4 26 -20 4 -27 5 -27 44 -7 49 25 58 3 19 -46 -26 -33 -29 -41 -17 -46 25
-10 65 4 92 31 28 28 34 30 34 13 0 -21 -72 -168 -80 -163 -4 3 -11 20 -14 38
-3 19 -17 44 -31 57 -39 37 -55 15 -55 -79 0 -84 -9 -107 -36 -97 -15 6 -16
18 -10 132 6 114 5 128 -11 140 -10 7 -22 14 -26 14 -4 0 -5 -38 -1 -85 l7
-85 -32 0 c-23 0 -31 4 -31 18 0 10 5 23 11 29 11 11 2 63 -11 63 -5 0 -16
-20 -26 -45 -10 -28 -23 -45 -33 -45 -10 0 -22 -5 -29 -12 -15 -15 -16 -54 -2
-63 15 -9 12 -22 -9 -42 -11 -10 -21 -31 -23 -48 l-4 -30 -8 30 c-20 85 -28
105 -37 105 -6 0 -8 -7 -5 -16 3 -9 6 -51 6 -94 l0 -78 55 -41 c30 -22 58 -41
63 -41 15 0 42 69 42 108 1 42 40 144 58 150 19 6 16 -177 -3 -214 -31 -59
-17 -69 35 -24 19 16 47 29 62 30 14 0 40 8 57 18 42 23 51 9 51 -90 0 -53 6
-94 20 -130 11 -29 20 -62 20 -74 0 -11 11 -58 25 -104 28 -93 32 -131 13
-112 -19 19 -42 14 -67 -12 l-23 -25 23 -125 c12 -69 26 -131 30 -138 6 -9 14
-7 33 11 14 14 28 22 31 19 21 -20 25 -605 5 -618 -5 -3 -13 -214 -18 -470 -8
-346 -14 -476 -24 -510 l-14 -45 -7 41 c-10 59 -68 105 -116 89 -16 -5 -19
-21 -26 -136 -4 -72 -4 -133 -1 -136 3 -3 16 8 30 23 l25 29 40 -40 41 -39 0
-121 c0 -170 29 -271 97 -343 22 -23 15 -57 -17 -80 -35 -26 -35 -31 -15 -100
13 -43 20 -52 39 -52 20 0 25 -7 34 -55 6 -31 23 -76 38 -100 l26 -45 -51 -46
c-62 -56 -65 -82 -17 -130 19 -19 30 -34 25 -34 -5 0 -9 -5 -9 -11 0 -7 -8
-17 -17 -24 -15 -11 -13 -17 22 -59 22 -25 43 -46 47 -46 8 0 28 65 28 91 0 9
11 21 26 27 14 7 32 28 40 48 l15 36 32 -33 c18 -19 123 -106 234 -193 l202
-158 -25 -33 c-30 -40 -28 -42 93 -83 105 -37 113 -38 113 -16 0 13 5 12 29
-5 24 -17 215 -101 229 -101 3 0 -7 -9 -22 -21 -14 -11 -26 -27 -26 -35 0 -8
45 -44 100 -79 55 -36 100 -71 101 -78 1 -6 5 6 10 27 7 31 6 43 -7 57 -9 10
-14 23 -12 30 7 21 89 -62 114 -116 24 -49 32 -137 16 -161 -4 -6 -38 -14 -77
-18 -38 -3 -92 -9 -120 -13 l-50 -6 28 36 c15 19 27 42 27 49 0 21 -21 38 -48
38 -13 0 -21 4 -17 10 4 6 16 8 27 4 18 -5 47 17 48 38 0 6 -84 48 -96 48 -2
0 -4 -7 -4 -15 0 -27 -30 -29 -56 -4 l-25 23 -29 -30 c-43 -42 -44 -102 -4
-146 19 -21 23 -29 11 -25 -66 24 -279 86 -312 92 -59 10 -132 48 -201 104
-70 57 -147 107 -221 145 -39 19 -58 37 -73 67 l-21 40 28 -14 c15 -8 43 -17
61 -20 30 -6 32 -5 32 20 0 35 38 113 55 113 7 0 18 -14 24 -31 6 -17 15 -28
21 -24 6 4 2 21 -10 46 -12 22 -18 44 -15 50 4 5 -5 23 -19 40 -56 67 -15 103
44 39 20 -22 39 -40 42 -40 3 0 13 17 22 39 l18 38 -36 47 c-20 26 -36 52 -36
57 0 16 -58 39 -100 39 l-41 0 16 -30 c8 -16 15 -34 15 -40 0 -13 -37 -13 -45
0 -9 15 -25 12 -25 -5 0 -8 -6 -15 -14 -15 -7 0 -19 -6 -25 -14 -9 -11 -7 -15
11 -20 13 -3 33 -6 46 -6 25 0 29 -17 10 -43 -11 -14 -19 -15 -46 -8 -36 11
-35 13 -15 -37 3 -7 -6 -14 -25 -18 -44 -9 -75 -40 -66 -67 5 -15 -21 3 -77
53 -46 41 -93 82 -105 92 -14 12 -49 22 -105 29 l-84 10 -527 -155 c-456 -135
-543 -163 -638 -211 -60 -30 -110 -61 -110 -69 0 -7 -9 -21 -20 -31 -11 -10
-22 -33 -26 -51 -3 -19 -10 -34 -14 -34 -5 0 -18 -29 -30 -64 -11 -35 -29 -71
-39 -80 -25 -23 -35 -74 -17 -92 19 -19 0 -84 -24 -84 -25 0 -29 9 -18 41 8
24 7 34 -6 48 -9 10 -16 26 -16 37 0 37 22 97 43 118 16 16 22 35 23 67 1 79
25 190 45 210 20 20 20 21 0 130 -22 119 -25 129 -45 129 -10 0 -15 -21 -18
-73 -2 -55 -10 -86 -31 -126 -15 -29 -27 -61 -27 -70 0 -22 -19 -41 -42 -41
-22 0 -22 9 -3 80 8 30 13 55 11 57 -2 2 -16 -15 -31 -37 -16 -22 -36 -40 -46
-40 -25 0 -24 6 10 85 22 53 27 75 21 99 -5 17 -18 131 -31 253 -18 182 -19
226 -9 238 7 9 16 13 19 9 3 -3 11 27 16 67 8 57 14 75 28 77 16 3 17 -10 17
-163 0 -133 3 -172 16 -197 15 -28 15 -32 0 -40 -24 -13 -24 -183 0 -174 9 3
31 6 50 6 33 0 34 1 34 39 0 23 7 46 16 56 14 13 14 24 5 79 -6 34 -11 85 -11
113 0 47 2 51 22 45 21 -5 21 -4 14 95 -5 81 -4 102 8 112 20 17 23 8 31 -101
8 -110 18 -120 69 -73 47 44 55 78 49 209 -5 90 -3 120 7 126 9 6 7 11 -9 20
-18 9 -27 8 -46 -4 -19 -12 -28 -34 -42 -98 -17 -81 -17 -82 -26 -45 -9 37
-56 87 -83 87 -19 0 -18 -20 6 -75 21 -50 19 -65 -9 -65 -25 0 -46 27 -66 85
-17 50 -17 152 0 360 7 77 -8 46 -25 -52 -6 -40 -13 -73 -15 -73 -2 0 -10 3
-19 6 -22 8 -22 129 0 184 16 40 17 40 31 20 23 -33 65 -23 79 18 10 33 10 33
29 12 40 -44 75 -18 75 55 l0 50 40 2 c64 2 70 7 60 44 -6 18 -6 35 -2 38 4 4
7 67 7 141 0 74 4 168 8 208 l8 72 -31 0 c-26 0 -34 -5 -43 -30 -6 -17 -15
-30 -19 -30 -5 0 -5 -64 -2 -142 6 -137 6 -144 -15 -162 -14 -13 -21 -32 -22
-55 0 -32 -2 -34 -12 -17 -7 10 -19 28 -29 40 -16 20 -16 21 -37 2 -12 -11
-21 -29 -22 -40 0 -21 0 -21 -16 1 -34 50 -62 17 -64 -74 -1 -58 -1 -58 -10
-18 -11 52 0 224 13 201 5 -9 16 -16 23 -16 8 0 15 -9 15 -20 0 -16 7 -20 30
-20 l30 0 -6 53 c-5 45 8 179 22 230 7 21 -19 23 -36 2 -28 -34 -32 -13 -25
138 4 96 2 157 -4 167 -17 25 -24 4 -25 -85 -1 -80 -2 -85 -22 -85 -12 0 -26
-6 -32 -12 -5 -7 -20 -107 -32 -223 -12 -115 -25 -215 -29 -222 -3 -6 -2 -78
2 -158 9 -151 5 -174 -27 -162 -13 5 -16 28 -18 129 -5 264 3 366 44 543 11
50 31 115 43 145 32 76 42 188 21 228 -9 18 -16 55 -16 87 0 53 1 57 30 66 30
11 30 11 30 90 0 71 2 79 19 79 22 0 25 -11 42 -145 13 -104 28 -157 29 -98 0
25 7 36 34 52 25 16 35 30 40 59 7 47 8 302 0 302 -3 0 -14 -5 -25 -10 -17
-10 -19 -7 -19 24 0 48 -17 54 -25 8 -8 -49 -18 -64 -38 -56 -11 4 -15 14 -12
32 19 123 15 134 -24 81 l-24 -32 -13 24 c-7 13 -13 55 -14 94 0 40 -4 65 -9
60 -5 -6 -23 -72 -41 -147 -27 -116 -35 -138 -50 -138 -27 0 -28 7 -19 84 16
128 66 285 100 314 16 14 19 30 19 94 0 83 6 92 47 63 19 -13 21 -13 27 8 3
12 6 45 6 72 0 40 7 61 33 99 54 83 59 76 51 -72 -5 -88 -3 -131 4 -136 6 -3
25 12 43 34 32 39 34 40 78 34 25 -3 55 -8 66 -10 11 -2 14 -1 8 2 -7 3 -13
16 -13 29 0 12 -7 25 -15 29 -31 12 -8 215 28 241 11 8 47 124 47 150 0 8 -46
6 -72 -4 -13 -5 -29 -20 -37 -34 -15 -28 -60 -42 -67 -21 -14 48 -17 47 -34
-11 -12 -41 -14 -66 -8 -78 10 -19 4 -47 -9 -47 -4 0 -18 8 -30 18 -22 17 -22
18 -8 87 8 38 15 71 15 72 0 2 -11 3 -25 3 -18 0 -25 5 -25 19 0 10 -9 21 -20
24 -28 7 -26 37 11 148 l30 94 88 42 88 42 -9 58 c-5 32 -8 70 -5 86 6 43 -21
33 -33 -13 -6 -24 -17 -40 -26 -40 -8 0 -20 -11 -26 -25 -9 -19 -19 -25 -43
-25 -32 0 -33 -1 -37 -54 -5 -60 -23 -93 -42 -77 -9 8 -7 65 9 235 16 170 18
226 9 226 -7 0 -15 8 -19 18 -6 16 -7 16 -21 -2 -7 -11 -16 -18 -18 -15 -3 2
-23 44 -46 93 -38 83 -42 88 -55 70 -8 -10 -17 -45 -21 -76 -7 -58 -7 -58 -41
-58 -18 0 -50 7 -70 15 -20 8 -38 13 -41 10 -11 -10 20 -140 45 -193 l25 -54
25 25 c16 16 35 59 54 123 29 96 47 126 61 101 3 -7 -4 -57 -18 -112 -28 -120
-28 -115 -9 -115 25 0 18 -39 -9 -46 -26 -6 -44 -44 -21 -44 26 0 24 -17 -4
-56 -23 -32 -33 -66 -55 -189 -15 -82 -29 -152 -32 -154 -3 -3 -13 0 -24 6
-21 14 -30 0 -30 -42 0 -13 -3 -30 -6 -39 -5 -14 -9 -14 -33 3 -14 10 -31 16
-37 14 -8 -2 -15 16 -19 49 -9 66 -20 88 -44 88 -17 0 -20 -11 -26 -96 -8
-107 -2 -420 8 -430 12 -13 36 18 52 67 15 45 36 62 49 40 4 -5 -1 -38 -9 -73
-8 -35 -15 -71 -15 -80 0 -26 36 -23 54 4 9 12 16 20 16 18 0 -3 -7 -43 -15
-90 -9 -47 -18 -148 -20 -225 l-5 -140 14 75 c19 106 45 198 67 244 14 28 16
42 8 47 -7 4 -9 18 -5 35 4 16 11 52 15 80 4 29 12 58 18 65 13 17 29 190 17
188 -45 -8 -44 21 1 111 26 52 35 83 35 122 1 37 11 78 35 133 41 98 65 111
65 35 0 -28 -6 -63 -14 -79 -14 -26 -80 -536 -72 -550 3 -3 7 -37 10 -75 2
-38 9 -73 14 -78 12 -12 -19 -117 -38 -128 -7 -5 -18 -23 -24 -41 -8 -23 -19
-35 -36 -39 -20 -5 -26 -13 -28 -40 -2 -24 0 -31 7 -21 5 8 16 11 26 7 15 -5
16 -18 10 -108 -8 -125 -12 -140 -33 -136 -15 3 -17 17 -15 92 0 48 -1 86 -3
84 -2 -3 -9 -38 -15 -80 -13 -87 -20 -103 -44 -94 -14 5 -16 17 -13 60 1 30 0
52 -4 49 -5 -2 -8 -11 -8 -19 0 -17 -12 -18 -28 -2 -9 9 -12 8 -16 -3 -13 -43
-14 -78 -1 -96 17 -24 11 -33 -25 -33 -18 0 -30 7 -37 22 -9 20 -11 18 -38
-28 -53 -92 -57 -96 -49 -39 3 28 13 63 21 78 13 26 12 30 -11 57 -13 17 -27
39 -31 49 -9 29 -61 44 -89 26 -21 -14 -24 -12 -61 35 -22 28 -42 50 -45 50
-3 0 -3 -57 -2 -126 3 -117 2 -126 -15 -122 -21 4 -30 37 -33 123 -1 33 -5 73
-9 89 l-6 28 -20 -22 c-11 -12 -32 -47 -47 -78 l-26 -57 -1 38 c-1 21 -10 55
-21 77 -16 31 -27 40 -55 46 -20 3 -37 13 -40 23 -3 10 -16 28 -30 41 -21 20
-28 22 -50 12 -24 -11 -25 -14 -25 -122 l0 -110 -26 0 -25 0 2 132 c1 75 -2
133 -7 135 -5 2 -36 -23 -68 -56 -40 -40 -64 -57 -76 -54 -12 3 -24 -3 -32
-16 -23 -38 -37 -25 -35 32 1 35 -3 60 -13 71 -8 10 -15 24 -16 31 -1 8 -7 30
-14 49 -8 24 -8 41 -1 54 8 15 5 24 -14 42 -28 26 -30 24 -15 -16 9 -22 5 -45
-21 -121 -29 -87 -47 -111 -64 -83 -3 5 1 49 10 97 8 48 15 109 15 135 0 25 4
48 9 50 6 2 -6 25 -26 52 l-35 49 -23 -29 -24 -29 6 75 c3 41 14 100 25 130
11 30 25 76 31 103 12 52 20 58 39 25 l12 -23 6 25 c4 19 13 26 38 28 38 4 56
-23 29 -43 -10 -7 -17 -26 -17 -44 0 -27 6 -34 45 -53 24 -12 47 -20 49 -17 2
2 0 26 -5 53 -5 26 -6 59 -3 73 5 20 12 24 38 21 32 -3 38 -20 21 -60 -4 -10
-3 -18 3 -18 5 0 13 12 17 28 l8 27 18 -41 c10 -22 27 -48 38 -58 19 -17 20
-17 25 26 3 23 8 134 11 244 5 170 4 202 -8 207 -18 7 -67 -111 -67 -160 0
-36 -11 -47 -40 -38 -24 7 -25 26 -5 80 18 50 19 73 4 58 -6 -6 -17 -9 -24 -7
-8 4 -22 -22 -40 -71 -28 -76 -42 -92 -69 -82 -11 4 -10 16 7 66 12 33 18 63
14 68 -8 7 -11 6 -64 -34 l-30 -22 12 72 c6 40 24 99 39 132 37 79 67 162 73
201 4 27 -5 47 -56 123 -34 50 -65 101 -70 113 -5 13 -48 61 -95 108 l-86 85
0 -43 c0 -23 -3 -42 -7 -42 -27 1 -303 194 -303 212 0 5 -30 52 -67 105 -53
75 -69 91 -71 74 -2 -11 -7 -21 -11 -21 -13 0 -186 183 -220 233 -17 26 -30
47 -27 47 5 0 -7 30 -56 140 -14 30 -31 71 -39 90 -26 67 -1 242 39 267 11 6
56 17 101 23 101 15 123 8 191 -67 42 -46 48 -58 44 -83 -5 -23 5 -48 46 -119
28 -50 55 -91 58 -91 4 0 20 12 35 26 19 16 27 30 23 42 -4 9 60 -50 141 -133
126 -128 145 -150 126 -153 -13 -2 -23 -6 -23 -9 0 -11 82 -153 88 -153 4 0
13 9 20 20 7 11 17 20 23 20 13 0 205 -148 233 -179 19 -21 19 -21 -6 -21 -58
0 -51 -21 47 -135 52 -61 102 -111 110 -113 53 -12 141 128 104 165 -12 12 -1
20 134 92 l97 53 0 -49 0 -48 49 100 c50 102 142 218 186 235 15 6 26 23 35
55 21 74 60 98 60 36 0 -25 3 -28 30 -26 16 1 48 14 70 29 23 15 48 25 57 22
8 -3 35 6 59 20 l45 27 34 -33 c28 -27 44 -34 88 -38 50 -4 56 -2 91 31 36 35
38 35 71 21 38 -15 71 -18 78 -6 2 4 7 24 11 45 7 35 6 37 -20 37 -15 0 -43
12 -62 27 -34 25 -35 26 -51 7 -9 -10 -33 -27 -53 -38 -29 -15 -38 -25 -40
-50 -3 -29 -6 -31 -43 -31 -38 0 -41 2 -54 43 -9 29 -22 47 -41 57 -25 13 -29
12 -45 -5 -10 -11 -22 -17 -26 -14 -15 9 -119 11 -119 2 0 -21 -17 -5 -25 25
-21 68 -75 38 -110 -61 -21 -58 -37 -72 -43 -37 -2 11 -35 107 -73 214 l-70
194 16 41 c11 27 15 54 11 81 -7 45 -39 105 -57 105 -26 0 -49 -22 -49 -48 0
-25 -1 -26 -14 -7 -11 17 -55 128 -112 288 -13 36 -12 37 9 37 13 0 85 -50
177 -121 85 -66 163 -125 173 -131 30 -16 65 0 93 42 24 36 25 43 14 69 -12
30 -49 61 -71 61 -6 0 -19 10 -29 22 -17 22 -17 23 7 53 30 37 74 102 152 225
61 96 163 224 252 315 26 28 57 61 68 75 l20 25 1 -92 c0 -87 1 -93 25 -109
23 -15 27 -15 51 1 22 14 31 15 55 5 33 -14 55 -3 70 37 9 25 30 22 61 -9 24
-24 29 -23 62 11 32 33 44 94 28 141 -16 44 2 29 45 -38z m2438 -844 c30 -14
28 -5 30 -106 l2 -83 -28 27 -28 26 -71 -58 -71 -59 50 -3 c49 -3 51 -4 51
-31 0 -35 40 -66 71 -56 18 6 16 -1 -16 -52 -45 -72 -69 -93 -106 -93 -24 0
-43 -18 -134 -130 -58 -71 -110 -132 -116 -136 -5 -3 -16 0 -24 6 -12 10 -11
18 7 53 33 66 101 158 152 205 49 46 49 45 5 102 -25 32 -26 38 -13 60 19 36
17 45 -12 58 -23 11 -31 8 -92 -42 -53 -43 -70 -52 -81 -43 -11 10 -1 24 56
77 51 47 75 78 87 112 22 60 84 124 149 153 59 27 94 30 132 13z m-475 -389
c0 -7 -16 -31 -35 -55 -37 -44 -70 -112 -61 -122 3 -2 38 24 78 60 80 71 106
85 114 63 3 -8 -24 -51 -65 -102 -44 -54 -66 -90 -59 -92 7 -2 15 -8 18 -12 3
-5 34 25 68 66 39 47 70 75 82 75 32 0 24 -25 -40 -117 -44 -63 -57 -89 -48
-94 16 -10 -48 -79 -73 -79 -10 0 -33 18 -51 41 -28 35 -34 38 -44 25 -6 -9
-16 -16 -23 -16 -6 0 -11 -9 -11 -20 0 -11 -6 -20 -14 -20 -8 0 -28 -11 -44
-25 -17 -14 -37 -25 -45 -25 -33 0 -27 23 18 68 46 46 46 47 32 77 -13 28 -13
33 4 54 11 13 19 34 19 46 0 25 -42 65 -69 65 -11 0 -4 12 21 37 35 34 38 35
67 23 30 -12 32 -11 77 39 42 47 84 67 84 40z m-350 -333 c0 -8 -11 -27 -24
-43 -29 -34 -69 -113 -62 -120 3 -3 13 10 22 30 17 35 51 54 67 38 4 -4 -4
-29 -19 -55 -23 -41 -30 -47 -50 -42 -28 7 -32 -9 -8 -42 25 -36 54 -27 118
37 62 63 93 79 103 55 3 -9 -9 -30 -31 -53 -20 -20 -36 -39 -36 -43 0 -3 15
-9 33 -12 l32 -7 -105 -99 c-63 -59 -111 -97 -120 -95 -8 3 -27 -1 -42 -9 -18
-9 -29 -11 -36 -4 -7 7 -14 -3 -22 -31 -8 -31 -16 -41 -28 -39 -21 4 -29 82
-12 103 7 8 18 34 25 59 13 41 12 46 -6 62 -17 15 -19 26 -14 65 6 44 5 49
-24 70 -17 13 -31 28 -30 33 0 6 37 41 82 78 68 55 83 64 92 51 9 -13 14 -12
35 6 29 24 60 27 60 7z m-1913 -1568 c-3 -7 -5 -2 -5 12 0 14 2 19 5 13 2 -7
2 -19 0 -25z m-1647 -707 c0 -196 5 -261 20 -261 5 0 14 24 20 53 14 58 34 87
62 87 10 0 18 -7 18 -17 1 -10 7 -29 14 -42 11 -21 11 -30 0 -57 -14 -34 -19
-72 -8 -61 4 3 24 -3 45 -13 21 -11 41 -20 45 -20 4 0 4 27 0 60 -6 50 -4 61
9 66 22 9 25 4 32 -55 7 -60 32 -96 44 -65 4 11 8 35 8 55 2 61 44 81 62 29 7
-19 18 -30 29 -30 23 0 57 -41 65 -80 8 -35 12 -36 45 -11 24 19 24 19 65 -16
l40 -34 6 58 c6 69 26 115 48 111 13 -3 15 -17 13 -77 -2 -46 0 -71 6 -67 5 3
22 -11 37 -32 57 -76 75 -74 75 9 0 91 11 139 31 139 17 0 19 -9 19 -91 l0
-91 33 21 c21 13 37 17 47 11 21 -13 30 -3 30 38 0 61 12 112 26 112 12 0 16
-12 28 -91 6 -31 11 -37 46 -48 22 -7 44 -9 49 -7 8 5 13 -19 23 -95 2 -10 9
-14 21 -11 17 4 18 -3 15 -132 l-3 -137 53 -16 52 -17 2 -80 c3 -119 2 -124
-47 -289 -25 -84 -43 -158 -40 -165 3 -7 1 -11 -3 -8 -5 3 -19 -38 -32 -91
l-25 -95 26 -22 c14 -12 40 -47 58 -79 18 -31 35 -57 38 -57 3 0 3 60 -1 133
-3 72 -2 138 3 145 4 8 17 12 27 10 18 -3 19 -15 19 -158 0 -137 -2 -155 -16
-152 -11 1 -16 -6 -17 -25 -1 -91 -13 -279 -20 -343 -9 -74 -3 -163 19 -270
17 -84 109 -171 135 -128 5 8 10 6 15 -8 7 -17 8 -17 8 4 1 15 7 22 21 22 11
0 20 -6 20 -12 0 -7 3 -30 6 -50 6 -32 4 -38 -11 -38 -17 0 -17 -17 1 -64 8
-21 -29 -22 -46 -1 -7 8 -16 15 -20 15 -6 0 50 -259 64 -296 3 -7 -2 -20 -11
-29 -14 -14 -14 -18 0 -33 8 -9 18 -28 22 -42 4 -14 14 -33 22 -42 14 -16 18
-14 49 19 31 32 37 35 59 25 25 -11 25 -14 25 -126 0 -82 -3 -116 -12 -119
-28 -9 -38 6 -38 54 0 37 -4 49 -15 49 -18 0 -18 5 1 -105 8 -49 29 -120 45
-158 16 -38 29 -71 29 -73 0 -3 -13 2 -29 10 -16 9 -34 29 -39 45 -11 30 -49
50 -71 36 -7 -4 -11 6 -11 25 0 64 -22 121 -61 159 -134 129 -192 171 -237
171 -11 0 -81 18 -157 41 -75 22 -150 39 -165 37 -16 -1 -37 5 -47 13 -59 52
-216 119 -280 119 -22 0 -48 19 -115 84 -100 97 -173 138 -288 162 -105 22
-190 14 -238 -24 -20 -16 -59 -34 -87 -41 -107 -26 -224 -89 -346 -187 -38
-30 -71 -54 -74 -54 -3 0 6 20 20 45 l27 45 -31 -6 c-17 -4 -38 -3 -48 0 -15
6 -13 10 13 27 31 19 31 20 19 57 -10 29 -19 38 -40 40 -21 3 -26 8 -22 23 6
23 -18 26 -27 4 -7 -18 -30 -19 -44 -2 -8 9 -3 28 19 72 31 62 31 88 -2 106
-27 14 -58 2 -97 -38 -19 -19 -51 -45 -72 -58 -47 -30 -62 -55 -58 -98 3 -28
7 -32 36 -35 17 -2 32 -7 32 -13 0 -5 11 -9 25 -9 14 0 25 -6 26 -12 1 -7 2
-22 3 -33 0 -11 -8 -28 -19 -37 -19 -16 -19 -17 -2 -18 10 0 16 -3 13 -8 -2
-4 2 -16 9 -26 13 -18 15 -18 41 3 29 23 64 28 64 10 0 -6 -14 -29 -31 -50
-31 -40 -33 -69 -4 -69 28 0 16 -15 -36 -43 -42 -24 -103 -70 -193 -146 -14
-12 -10 0 13 47 30 60 31 65 16 88 -15 23 -17 23 -40 8 -31 -20 -59 -11 -52
16 3 10 -1 24 -9 31 -8 6 -14 18 -14 25 0 10 -7 13 -25 8 -14 -3 -32 -3 -42 0
-14 6 -13 10 10 34 18 19 23 32 17 41 -4 8 -6 19 -4 26 7 17 -27 53 -57 60
-20 5 -41 -4 -95 -40 -38 -26 -77 -56 -86 -67 -25 -28 -22 -65 7 -94 14 -14
25 -35 25 -47 0 -19 5 -16 43 21 42 42 70 52 83 31 3 -6 -6 -23 -20 -38 -31
-32 -33 -41 -7 -34 32 8 34 -15 6 -64 -22 -37 -25 -47 -14 -54 18 -11 40 -11
36 -1 -3 13 65 111 82 117 49 19 26 -58 -37 -122 -27 -28 -31 -37 -22 -48 19
-23 28 -18 62 35 32 48 68 67 68 35 0 -36 -40 -86 -109 -136 -105 -76 -104
-76 -85 -35 17 34 17 35 -10 66 -15 18 -33 45 -42 61 -13 25 -18 28 -35 19
-24 -13 -59 -4 -59 16 0 8 -7 14 -15 14 -12 0 -13 5 -3 25 14 31 -10 72 -47
81 -34 8 -94 -32 -119 -80 l-19 -36 26 -21 c15 -11 27 -27 27 -35 0 -10 13
-14 45 -14 38 0 45 -3 45 -19 0 -15 -12 -22 -52 -32 l-53 -13 49 -10 c27 -6
51 -16 53 -22 2 -7 13 -9 25 -7 30 9 40 -16 17 -45 -18 -23 -18 -27 -3 -49 30
-47 -30 -79 -122 -64 -33 5 -64 5 -70 0 -19 -15 -82 126 -97 219 -9 49 -10 85
-5 88 5 3 13 17 18 30 5 13 17 24 27 24 10 1 95 74 189 163 153 144 179 165
240 189 111 44 189 96 311 208 64 58 145 129 182 158 70 57 264 188 319 216
33 17 32 16 -24 -59 -59 -78 -62 -90 -48 -168 6 -38 44 -70 72 -60 6 3 12 0
12 -7 0 -8 6 -8 20 0 28 15 37 -10 15 -43 -16 -24 -15 -26 6 -29 16 -2 25 -13
31 -36 5 -18 15 -35 23 -38 31 -12 128 64 159 125 14 26 14 29 -2 27 -14 -1
-17 8 -17 46 -1 36 -7 54 -24 72 -23 25 -25 33 -33 153 -2 27 -11 50 -24 64
l-22 21 63 62 c116 114 122 170 104 1001 l-12 570 37 290 c20 160 43 305 51
323 8 18 15 46 15 62 0 17 5 30 10 30 6 0 10 -73 10 -199z m1614 -259 c4 -11
-4 -43 -18 -73 -63 -142 -106 -336 -106 -475 0 -80 -10 -107 -36 -97 -18 7
-18 156 -1 330 11 104 16 124 34 140 12 10 36 54 53 98 37 93 61 118 74 77z
m-254 -106 c0 -12 51 -249 55 -256 3 -4 -2 -13 -10 -20 -12 -10 -18 -10 -29 0
-8 6 -23 10 -33 8 -35 -5 -45 11 -24 41 19 26 19 31 6 82 -19 71 -11 149 16
149 11 0 19 -2 19 -4z m-121 -280 c38 -60 22 -80 -17 -20 -12 19 -20 39 -17
44 9 15 12 13 34 -24z m142 -303 c-15 -142 -14 -163 3 -163 8 0 17 -4 20 -8 5
-8 -22 -112 -29 -112 -20 0 -35 17 -35 40 0 16 -5 30 -10 32 -7 2 -7 57 0 167
10 168 18 197 49 166 11 -11 12 -32 2 -122z m-166 -544 c4 -27 4 -53 1 -57
-14 -13 -41 16 -44 47 -4 41 3 61 22 61 9 0 16 -17 21 -51z m219 35 c3 -9 6
-56 6 -106 0 -80 -2 -89 -17 -86 -16 3 -18 17 -21 106 -2 83 0 102 12 102 7 0
17 -7 20 -16z m-3 -278 c-23 -56 -41 -72 -59 -54 -8 8 -3 26 15 62 28 55 43
70 57 56 5 -5 0 -31 -13 -64z m105 -133 c13 -110 -12 -363 -38 -379 -27 -17
-30 18 -19 213 7 109 14 204 16 211 3 6 11 12 19 12 10 0 17 -17 22 -57z
m-185 -93 c12 -62 17 -68 36 -49 20 20 44 3 34 -23 -19 -52 -22 -135 -7 -208
15 -70 14 -90 -3 -90 -17 0 -73 157 -92 254 -22 117 -24 172 -6 179 20 7 26
-1 38 -63z m351 -295 c4 -33 8 -71 10 -85 5 -37 -21 -31 -43 10 -30 55 -24
144 10 138 12 -2 18 -19 23 -63z m-1968 -106 c6 -52 5 -63 -11 -75 -10 -8 -29
-13 -43 -11 -22 2 -25 7 -28 47 -2 37 2 50 23 73 40 42 51 35 59 -34z m1720
-21 c7 -44 -3 -64 -28 -55 -11 5 -16 20 -16 52 0 37 3 45 19 45 14 0 20 -10
25 -42z m405 -955 c1 -7 -3 -13 -9 -13 -5 0 -10 17 -9 38 1 33 2 34 9 12 4
-14 8 -31 9 -37z m-1 -179 c33 -42 49 -54 66 -52 18 2 41 -18 105 -92 81 -93
184 -194 218 -216 19 -12 10 -34 -15 -34 -49 -1 -43 -18 30 -87 117 -113 163
-151 150 -126 -7 12 -12 24 -12 27 0 12 37 4 80 -17 33 -16 46 -29 48 -47 2
-19 16 -32 60 -55 50 -26 57 -34 60 -62 4 -37 -10 -42 -46 -17 -24 17 -25 15
-26 -36 -1 -30 -5 -35 -28 -38 -23 -3 -27 -8 -30 -41 l-3 -38 -155 103 -155
104 59 0 58 0 -116 85 c-63 47 -123 85 -131 85 -21 0 -75 54 -75 74 0 19 -11
21 -28 4 -26 -26 -13 -62 38 -106 79 -68 84 -91 8 -43 -246 159 -254 165 -343
263 -92 100 -129 158 -101 158 12 0 13 7 5 32 -5 18 -9 46 -9 61 0 26 3 28 33
25 39 -4 77 -52 77 -97 0 -28 3 -31 33 -31 32 0 33 1 29 32 -3 18 -14 39 -24
48 -17 13 -18 21 -11 50 6 22 19 40 34 47 17 8 30 27 38 53 6 22 17 40 24 39
7 0 32 -25 55 -55z m478 -341 c20 -32 61 -84 92 -115 42 -43 53 -61 45 -69
-25 -25 -140 67 -176 139 -24 46 -30 84 -15 93 7 5 14 9 15 9 1 0 19 -26 39
-57z m341 -187 c4 -3 29 -6 57 -6 36 -1 63 -8 91 -25 38 -24 39 -25 13 -25
-15 0 -29 -4 -32 -9 -9 -14 -84 -20 -120 -9 -23 7 -39 7 -52 0 -16 -9 -12 -12
29 -22 35 -9 47 -17 47 -31 0 -15 -7 -19 -35 -19 -37 0 -85 18 -85 32 0 4 -8
8 -19 8 -14 0 -21 10 -26 38 -3 20 -9 47 -12 59 -4 20 -2 21 67 18 39 -1 74
-5 77 -9z m-157 -36 c0 -5 -5 -10 -11 -10 -5 0 -7 5 -4 10 3 6 8 10 11 10 2 0
4 -4 4 -10z m501 -93 c8 -7 23 -32 33 -57 56 -139 56 -140 43 -140 -28 0 -96
54 -102 82 -10 44 -24 43 -31 -2 -5 -32 -13 -44 -33 -51 -32 -13 -41 -26 -41
-61 0 -35 14 -36 36 -3 l16 25 29 -28 c32 -30 80 -50 122 -51 22 -1 27 -6 27
-25 0 -53 -12 -82 -42 -99 -30 -17 -34 -17 -195 19 -154 36 -200 54 -133 54
33 0 110 28 110 40 0 4 -7 10 -15 14 -8 3 -15 1 -15 -4 0 -24 -27 -6 -49 32
l-23 41 20 16 c11 9 22 25 24 36 2 13 11 20 27 20 12 0 27 8 32 18 6 9 17 17
25 17 8 0 17 7 20 15 6 15 84 101 94 103 3 1 12 -4 21 -11z m1826 -93 c3 -8
-56 -44 -72 -44 -13 0 -3 40 13 49 21 13 54 10 59 -5z m83 -73 c0 -25 -20 -41
-53 -41 l-28 0 28 39 c21 29 31 37 40 29 7 -6 13 -18 13 -27z m-260 -11 c11
-7 8 -10 -16 -10 -16 0 -39 -6 -50 -14 -17 -13 -21 -12 -36 1 -10 9 -18 20
-18 25 0 11 102 10 120 -2z m60 -95 c0 -3 -10 -9 -22 -14 -19 -7 -13 -11 40
-21 34 -7 62 -16 62 -20 0 -4 -21 -17 -47 -28 l-47 -20 -36 40 c-57 67 -57 68
0 68 27 0 50 -2 50 -5z"/>
<path d="M4911 9207 c-26 -13 -63 -78 -82 -145 -7 -23 -18 -47 -26 -53 -23
-20 -14 -37 41 -80 42 -33 52 -45 42 -53 -7 -6 -29 -34 -48 -62 -27 -38 -33
-55 -26 -67 13 -25 30 -21 99 19 50 29 65 35 78 26 9 -7 32 -20 51 -31 34 -18
36 -18 58 -1 12 10 22 22 22 26 0 5 -20 29 -45 55 l-46 46 46 24 c50 26 105
101 105 143 0 27 -44 96 -80 124 -49 38 -143 53 -189 29z m149 -134 l21 -36
-23 -23 c-22 -22 -26 -23 -78 -11 l-55 12 4 40 c1 22 5 43 8 48 2 4 26 7 53 7
45 0 49 -2 70 -37z"/>
<path d="M4404 9121 c-98 -74 -109 -186 -26 -259 20 -18 47 -35 60 -38 29 -8
28 -15 -8 -49 -41 -39 -42 -90 -2 -98 21 -5 32 0 52 24 29 34 50 37 75 9 12
-13 29 -20 44 -18 38 4 39 40 2 87 -17 21 -31 41 -31 44 0 2 25 21 55 41 l55
36 -15 36 c-8 20 -15 46 -15 57 0 32 -47 103 -83 126 -18 11 -51 24 -74 29
-38 9 -44 7 -89 -27z m111 -79 c6 -4 19 -23 29 -44 18 -34 19 -38 3 -61 -14
-22 -22 -25 -54 -20 -49 7 -73 29 -73 64 0 44 63 85 95 61z"/>
<path d="M5170 8558 c-11 -18 -23 -44 -27 -56 -4 -19 -11 -23 -30 -19 -20 4
-25 0 -30 -24 -3 -16 -9 -29 -13 -29 -5 0 -4 17 2 37 9 33 8 39 -13 55 -31 26
-51 19 -71 -22 -9 -19 -17 -31 -18 -25 0 5 -5 4 -12 -3 -17 -17 -42 -15 -80 7
-74 42 -111 31 -121 -34 -8 -51 -29 -87 -46 -79 -9 3 -24 9 -33 11 -27 8 -21
21 12 28 37 8 30 25 -11 25 -23 0 -32 6 -42 28 -20 45 -44 55 -49 20 -4 -28
-36 -36 -45 -11 -15 44 -53 53 -53 12 0 -10 -11 -31 -25 -46 l-26 -28 -16 23
c-27 38 -60 29 -85 -23 -17 -35 -27 -45 -43 -43 -16 2 -21 13 -26 48 -3 25 -7
38 -8 30 -1 -10 -8 -7 -22 12 -11 15 -35 32 -54 38 -26 9 -35 17 -35 34 0 15
-9 27 -26 35 -22 10 -30 9 -46 -5 -17 -16 -18 -32 -17 -163 1 -161 10 -196 59
-231 16 -11 31 -20 34 -20 10 0 7 48 -4 55 -5 3 -10 38 -10 76 0 53 4 71 15
76 24 8 55 -26 61 -67 10 -59 18 -66 49 -43 l28 20 23 -24 c26 -26 52 -29 79
-9 17 12 23 12 47 0 38 -20 48 -18 81 14 26 25 35 27 115 28 48 1 95 5 104 8
12 6 17 2 20 -16 2 -18 9 -23 28 -21 14 1 48 4 75 5 34 2 63 12 90 31 26 17
43 23 49 17 14 -14 39 -13 54 2 7 7 20 13 30 13 12 0 18 11 22 40 l6 40 6 -50
c7 -54 33 -85 73 -85 26 0 35 17 35 66 0 22 4 33 10 29 12 -7 40 12 40 26 0 5
-11 9 -25 9 -35 0 -40 20 -21 95 20 82 21 78 -14 98 l-30 18 -20 -33z m-603
-149 c25 -9 26 -12 11 -20 -19 -11 -58 4 -58 21 0 13 12 13 47 -1z m556 4 c-7
-2 -19 -2 -25 0 -7 3 -2 5 12 5 14 0 19 -2 13 -5z m-773 -58 c0 -8 -2 -15 -4
-15 -2 0 -6 7 -10 15 -3 8 -1 15 4 15 6 0 10 -7 10 -15z"/>
<path d="M5310 8290 c0 -5 5 -10 10 -10 6 0 10 5 10 10 0 6 -4 10 -10 10 -5 0
-10 -4 -10 -10z"/>
<path d="M2282 8238 c-15 -15 -16 -59 -1 -55 6 1 45 -63 87 -143 51 -97 78
-138 80 -125 2 11 7 24 11 28 5 4 -9 40 -30 80 -21 40 -46 107 -55 150 -17 76
-18 77 -49 77 -17 0 -36 -5 -43 -12z"/>
<path d="M2423 8208 c66 -156 100 -234 104 -238 3 -3 16 8 29 23 l24 28 -35
69 c-19 38 -35 80 -35 92 0 21 -1 21 -17 6 -15 -16 -17 -15 -32 15 -9 18 -24
33 -34 35 -17 3 -17 1 -4 -30z"/>
<path d="M2596 8133 c41 -90 41 -90 55 -76 18 18 -55 152 -83 153 -4 0 9 -35
28 -77z"/>
<path d="M4967 8122 c-18 -19 -22 -44 -10 -55 3 -4 12 2 20 13 8 12 25 20 42
20 22 0 31 -8 45 -36 17 -36 17 -36 37 -18 l21 19 -43 37 c-49 42 -86 49 -112
20z"/>
<path d="M5357 8104 c-7 -8 22 -54 34 -54 5 0 9 14 9 30 0 22 -5 30 -18 30
-10 0 -21 -3 -25 -6z"/>
<path d="M5250 8074 c0 -27 14 -25 30 7 9 16 7 19 -10 19 -15 0 -20 -7 -20
-26z"/>
<path d="M5160 8038 c0 -7 -12 -25 -27 -40 -27 -29 -21 -34 24 -22 25 7 37 32
27 58 -7 19 -24 22 -24 4z"/>
<path d="M5306 8025 c-4 -10 1 -15 16 -15 17 0 18 2 8 15 -7 8 -14 15 -15 15
-2 0 -5 -7 -9 -15z"/>
<path d="M5312 7906 c-22 -20 -44 -36 -50 -36 -15 0 -28 -108 -31 -258 -1 -91
1 -132 9 -127 5 3 11 14 12 23 1 9 4 -10 7 -42 4 -34 11 -61 19 -64 9 -3 12
22 12 102 0 86 7 138 36 267 20 88 33 163 31 166 -3 2 -23 -12 -45 -31z"/>
<path d="M4905 7900 c-13 -15 -20 -42 -23 -100 -2 -44 -8 -80 -13 -80 -5 0 -9
-18 -9 -40 0 -22 4 -40 8 -40 11 0 49 123 57 185 3 28 9 60 12 73 6 27 -8 28
-32 2z"/>
<path d="M5393 7880 c-12 -28 -8 -39 8 -23 6 6 9 19 6 29 -3 17 -5 16 -14 -6z"/>
<path d="M5020 7884 c0 -6 15 -23 32 -40 l33 -29 -25 30 c-14 17 -28 34 -32
40 -5 5 -8 5 -8 -1z"/>
<path d="M5147 7820 c-3 -8 -8 -28 -12 -45 -4 -16 -12 -37 -19 -45 -17 -19
-47 -153 -37 -160 5 -3 11 -42 14 -88 4 -46 9 -87 12 -93 4 -5 19 -9 36 -9
l29 0 -1 198 c-1 189 -9 275 -22 242z"/>
<path d="M5464 7776 c3 -27 6 -64 6 -82 0 -53 17 -40 23 18 5 42 3 57 -14 82
l-21 31 6 -49z"/>
<path d="M2912 7777 c-13 -16 71 -167 93 -167 22 0 65 22 65 33 0 16 -41 80
-74 115 -31 33 -66 41 -84 19z"/>
<path d="M4673 7768 c-13 -6 -23 -18 -23 -27 0 -9 -7 -25 -15 -35 -13 -17 -15
-17 -15 -4 0 21 -27 48 -47 48 -11 0 -14 -6 -9 -24 4 -15 -10 -66 -38 -142
-64 -174 -62 -165 -32 -151 27 12 34 27 15 27 -8 0 -8 4 0 14 7 8 22 45 34 83
18 55 26 69 45 71 28 4 28 6 -7 -153 -28 -126 -28 -130 -10 -153 l18 -23 5 33
c22 129 30 167 47 225 11 36 35 98 54 138 27 61 31 75 18 79 -8 3 -15 6 -16 5
-1 0 -12 -5 -24 -11z"/>
<path d="M5020 7758 c0 -32 17 -46 26 -23 4 9 0 24 -10 33 -15 15 -16 14 -16
-10z"/>
<path d="M2646 7744 c-7 -19 -12 -11 103 -171 79 -111 99 -133 121 -133 53 0
53 15 0 56 -62 47 -140 140 -178 211 -29 56 -36 62 -46 37z"/>
<path d="M5405 7711 l-8 -54 -19 22 c-18 23 -18 20 -18 -135 0 -86 2 -155 4
-153 2 2 18 38 36 81 l32 76 -9 109 c-9 107 -9 108 -18 54z"/>
<path d="M2746 7742 c-3 -5 17 -43 44 -84 58 -88 157 -185 173 -169 7 7 -8 28
-50 68 -33 32 -79 86 -102 120 -44 66 -56 79 -65 65z"/>
<path d="M4220 7735 c-23 -12 -28 -27 -49 -135 -13 -66 -21 -123 -18 -126 7
-7 25 25 92 164 l54 112 -27 0 c-15 -1 -38 -7 -52 -15z"/>
<path d="M4455 7728 c-18 -53 -65 -264 -61 -274 14 -37 34 -4 81 128 28 78 52
146 53 150 2 4 -13 8 -32 8 -20 0 -39 -6 -41 -12z"/>
<path d="M4772 7707 c-25 -25 -40 -58 -61 -128 -19 -60 -25 -98 -19 -106 5 -6
6 -22 3 -36 -7 -25 48 -228 68 -255 8 -10 14 -3 23 25 8 21 14 48 14 60 0 12
5 23 11 25 11 4 12 253 1 376 l-7 73 -33 -34z"/>
<path d="M4038 7587 c-48 -78 -85 -143 -83 -146 2 -2 22 11 45 29 l40 32 0
-36 c0 -25 6 -38 19 -46 16 -8 21 -6 25 8 9 31 48 294 44 297 -2 2 -43 -60
-90 -138z"/>
<path d="M5993 7675 c0 -33 2 -45 4 -27 2 18 2 45 0 60 -2 15 -4 0 -4 -33z"/>
<path d="M2889 7662 c6 -12 16 -24 22 -28 8 -4 8 -1 0 14 -6 12 -16 24 -22 28
-8 4 -8 1 0 -14z"/>
<path d="M4364 7660 c-6 -6 -20 -13 -30 -14 -14 -2 -23 -23 -41 -92 -29 -114
-29 -116 4 -112 26 3 29 9 55 103 29 104 32 135 12 115z"/>
<path d="M4960 7503 l1 -158 29 55 c23 46 29 74 36 160 6 99 6 104 -10 91 -14
-12 -22 -12 -37 -3 -18 12 -19 8 -19 -145z"/>
<path d="M3330 7365 c0 -30 -3 -55 -7 -55 -4 0 -21 13 -38 28 -16 16 -48 39
-70 51 -29 17 -6 -10 85 -98 69 -66 127 -120 130 -120 3 0 18 16 33 35 l29 34
-77 90 c-42 49 -78 90 -81 90 -2 0 -4 -25 -4 -55z"/>
<path d="M3117 7366 c-16 -13 -9 -22 95 -114 62 -55 115 -98 117 -96 4 3 -67
86 -151 178 -39 41 -45 44 -61 32z"/>
<path d="M3657 7253 c-57 -49 -65 -59 -53 -73 16 -18 10 -40 -10 -40 -34 0 -1
-98 42 -127 16 -10 40 -31 55 -47 l26 -30 43 128 c29 89 40 135 35 154 -7 29
-51 92 -64 92 -4 0 -37 -26 -74 -57z"/>
<path d="M3875 7229 c-15 -7 -31 -47 -63 -150 -24 -78 -41 -144 -37 -147 4 -4
11 1 16 11 14 24 36 21 50 -5 l12 -23 7 25 c4 14 13 67 20 118 13 96 28 119
55 91 10 -12 10 -34 -5 -129 -10 -63 -16 -117 -15 -118 2 -2 16 2 30 10 23 11
36 37 81 162 30 82 54 152 54 157 0 20 -27 6 -72 -38 -47 -46 -47 -46 -56 -22
-5 13 -11 33 -13 44 -5 23 -34 29 -64 14z"/>
<path d="M5477 7156 c-14 -11 -19 -44 -29 -215 -6 -110 -15 -198 -19 -194 -16
19 -39 150 -39 228 0 83 -1 86 -21 80 -13 -4 -27 0 -40 11 -19 17 -21 17 -37
0 -14 -14 -17 -38 -17 -157 0 -98 4 -142 12 -147 7 -5 13 -38 15 -82 l3 -74
33 -8 c43 -11 62 3 62 47 0 25 5 34 21 38 17 4 19 10 14 29 l-8 23 22 -20 c27
-24 49 -13 72 35 l16 34 11 -40 c9 -37 10 -37 11 -9 1 17 6 75 11 130 9 84 8
102 -5 111 -11 8 -13 23 -9 61 10 79 -37 149 -79 119z"/>
<path d="M4226 7148 c-5 -12 -46 -280 -46 -294 0 -3 8 -3 17 0 11 5 23 0 33
-14 15 -20 17 -15 34 102 10 68 20 135 23 149 4 21 -1 31 -26 48 -23 17 -32
19 -35 9z"/>
<path d="M4061 7022 c-23 -71 -41 -135 -41 -141 0 -8 11 -11 28 -9 24 3 28 8
34 48 20 127 31 221 25 226 -3 3 -24 -52 -46 -124z"/>
<path d="M4352 7118 c-14 -23 -23 -68 -31 -148 -7 -63 -14 -127 -17 -142 -5
-25 -3 -28 21 -28 14 0 28 -7 31 -15 11 -28 22 -15 27 33 3 26 15 108 26 182
11 74 17 138 15 142 -13 20 -53 7 -72 -24z"/>
<path d="M4886 7080 c-14 -60 -35 -204 -31 -208 2 -2 14 16 27 42 23 48 35 56
44 31 8 -19 28 -19 44 0 7 9 21 13 30 10 14 -4 19 2 24 32 3 21 9 48 12 61 5
19 3 22 -22 22 -15 0 -36 -8 -47 -17 -18 -17 -20 -16 -47 17 l-28 35 -6 -25z"/>
<path d="M5840 7077 c-34 -12 -35 -14 -32 -57 2 -24 9 -52 17 -60 25 -28 19
-50 -14 -50 -37 0 -61 31 -61 77 0 21 -5 33 -14 33 -24 0 -36 -25 -55 -116
-18 -87 -18 -88 -25 -49 -19 104 -22 89 -18 -87 2 -89 8 -148 14 -148 5 0 33
20 61 44 29 24 64 46 80 50 15 3 27 12 27 19 0 7 9 20 20 30 11 9 20 26 20 38
0 11 11 35 25 53 27 35 27 44 9 194 -6 46 -5 46 -54 29z"/>
<path d="M5086 7001 c-25 -39 -13 -319 13 -335 4 -3 19 20 34 50 24 48 29 53
46 44 38 -20 41 -13 41 84 0 88 -2 97 -27 126 -22 26 -32 31 -59 28 -19 -2
-35 1 -37 6 -2 6 -7 4 -11 -3z"/>
<path d="M4462 6897 c-16 -17 -26 -45 -33 -92 -5 -38 -7 -70 -4 -73 3 -3 16 0
30 6 14 6 25 11 25 9 1 -1 8 -36 16 -77 19 -97 19 -95 11 -164 -13 -104 2 -55
23 79 17 108 18 130 7 137 -11 5 -12 19 -6 55 12 71 11 75 -19 111 l-27 33
-23 -24z"/>
<path d="M3758 6393 c-19 -246 -20 -282 -10 -300 6 -10 13 -4 27 26 10 23 21
41 25 41 16 0 18 -42 4 -93 -19 -70 -18 -90 6 -118 l19 -24 1 131 c0 144 6
161 56 151 l26 -5 -7 128 c-6 108 -5 133 9 161 15 29 15 35 1 56 -21 31 -35
21 -35 -26 0 -27 -7 -44 -24 -60 -36 -34 -50 -19 -42 47 4 35 2 59 -5 68 -30
36 -36 14 -51 -183z"/>
<path d="M3990 6483 c0 -22 71 -417 75 -421 15 -15 19 27 23 212 l4 203 -32 7
c-43 8 -70 8 -70 -1z"/>
<path d="M3637 6463 c-4 -3 -7 -46 -7 -95 0 -78 2 -88 18 -88 10 0 23 -5 30
-12 9 -9 12 12 12 95 0 105 0 107 -23 107 -13 0 -27 -3 -30 -7z"/>
<path d="M4180 6381 c-26 -44 -36 -43 -43 4 -2 17 -4 -46 -5 -140 0 -193 10
-263 22 -148 8 79 31 121 59 110 18 -7 23 -37 8 -52 -5 -6 -11 -35 -15 -65 -4
-33 -3 -50 2 -42 7 10 15 4 33 -25 l24 -38 3 130 c2 72 0 153 -3 181 -5 44 -9
50 -28 50 -18 -1 -23 6 -27 37 l-5 38 -25 -40z"/>
<path d="M5846 6368 c-16 -22 -12 -103 5 -122 20 -22 9 -39 -21 -33 -16 4 -32
2 -35 -3 -3 -6 -18 -10 -32 -10 -23 0 -25 3 -19 30 3 17 2 30 -3 30 -14 0 -21
-56 -21 -162 l0 -100 25 16 c31 21 75 21 75 1 0 -8 5 -15 10 -15 6 0 10 5 10
11 0 7 13 10 34 7 l34 -4 22 76 c12 41 20 80 19 85 -2 6 11 25 28 44 l32 34
-19 37 c-23 45 -84 100 -110 100 -10 0 -26 -10 -34 -22z"/>
<path d="M3950 6242 c0 -111 7 -134 28 -88 11 25 -3 173 -19 191 -5 5 -9 -40
-9 -103z"/>
<path d="M5163 6293 c-8 -42 -8 -60 0 -65 8 -5 6 -23 -7 -61 -17 -50 -17 -57
-2 -107 9 -29 16 -64 16 -77 0 -26 12 -30 30 -8 7 8 19 15 28 15 11 0 13 -8 8
-40 -7 -46 5 -52 30 -15 9 14 22 25 29 25 14 0 22 79 28 245 l2 79 -55 27
c-98 47 -95 47 -107 -18z"/>
<path d="M5540 6293 c0 -36 19 -103 28 -103 4 0 20 25 35 55 26 53 26 55 7 65
-10 5 -30 10 -44 10 -22 0 -26 -5 -26 -27z"/>
<path d="M6285 6278 c-16 -15 -37 -28 -46 -28 -10 0 -20 -11 -24 -27 -3 -16
-15 -37 -25 -48 -11 -11 -26 -37 -35 -58 -10 -25 -22 -37 -35 -37 -18 0 -20 7
-20 55 0 48 3 57 22 64 22 8 22 8 -4 25 -49 32 -84 -5 -138 -146 -25 -67 -37
-88 -51 -88 -17 0 -19 -9 -19 -75 0 -59 3 -75 15 -75 20 0 70 55 106 118 28
49 50 64 64 42 4 -6 21 -3 46 7 45 18 56 12 61 -31 4 -43 20 -41 48 4 25 40
62 54 73 28 4 -8 8 -4 12 10 4 12 14 22 21 22 9 0 14 11 14 31 0 22 -4 30 -14
26 -18 -7 -76 54 -76 80 0 23 27 37 53 28 13 -6 14 0 5 42 -6 26 -13 51 -17
54 -3 3 -19 -7 -36 -23z"/>
<path d="M5470 6240 c-14 -33 -34 -38 -67 -15 -12 8 -24 12 -26 8 -3 -5 -7
-49 -8 -98 -3 -83 -2 -90 16 -93 11 -2 27 -13 36 -24 13 -17 20 -19 52 -10 37
10 38 10 57 -29 11 -21 24 -39 28 -39 4 0 22 27 41 59 19 33 42 62 53 64 16 5
18 16 18 91 0 47 -2 86 -4 86 -3 0 -22 -31 -42 -68 l-38 -69 -37 15 c-36 14
-37 16 -44 78 -8 74 -18 86 -35 44z"/>
<path d="M3657 6225 c-39 -37 -38 -86 3 -115 l30 -21 0 80 c0 45 -1 81 -3 81
-1 0 -15 -11 -30 -25z"/>
<path d="M3887 6153 c-9 -8 -9 -170 0 -201 12 -47 23 2 23 106 0 93 -5 114
-23 95z"/>
<path d="M5377 5943 c-11 -10 -8 -63 3 -63 6 0 10 16 10 35 0 36 -2 40 -13 28z"/>
<path d="M5742 5927 c-30 -32 -29 -48 3 -34 16 8 25 20 25 35 0 27 -1 27 -28
-1z"/>
<path d="M5477 5909 c-4 -16 -3 -18 9 -8 16 13 19 29 5 29 -5 0 -11 -9 -14
-21z"/>
<path d="M6072 5918 c-6 -6 -12 -19 -12 -27 0 -13 2 -13 16 1 9 9 15 21 13 27
-3 9 -8 8 -17 -1z"/>
<path d="M5650 5901 c0 -6 5 -13 10 -16 6 -3 10 1 10 9 0 9 -4 16 -10 16 -5 0
-10 -4 -10 -9z"/>
<path d="M6245 5869 c-4 -6 -28 -9 -54 -7 -45 3 -46 2 -49 -29 -4 -40 28 -55
60 -26 23 21 62 73 54 73 -3 0 -8 -5 -11 -11z"/>
<path d="M6395 5498 c-11 -6 -21 -12 -22 -13 -5 -3 -33 -308 -33 -353 l0 -43
31 18 c17 10 33 23 35 28 8 22 34 357 29 366 -8 12 -15 11 -40 -3z"/>
<path d="M6290 5433 c0 -32 -2 -110 -5 -173 -5 -148 10 -64 20 110 5 86 4 120
-4 120 -7 0 -11 -22 -11 -57z"/>
<path d="M5964 5438 c-16 -30 -60 -356 -50 -366 3 -2 25 7 50 22 l44 26 6 82
c3 46 8 125 11 176 l6 92 -25 0 c-18 0 -30 -9 -42 -32z"/>
<path d="M6121 5413 c-17 -32 -31 -51 -32 -43 -3 27 -17 -94 -18 -161 -1 -61
1 -67 32 -97 18 -18 35 -32 39 -32 3 0 8 66 11 148 4 81 10 168 13 195 9 65
-8 61 -45 -10z"/>
<path d="M5284 5421 c1 -30 -3 -37 -21 -39 -20 -3 -22 -9 -25 -105 -4 -148 1
-210 18 -203 7 3 32 -10 55 -29 22 -19 45 -35 49 -35 8 0 19 92 18 150 0 14
12 74 26 134 14 60 26 110 26 113 0 2 -11 -4 -25 -13 -25 -16 -25 -16 -35 13
-8 22 -20 32 -49 39 l-38 10 1 -35z"/>
<path d="M5616 5408 c-3 -12 -10 -81 -16 -153 -6 -71 -13 -148 -16 -170 l-6
-40 75 73 74 74 7 66 c4 37 9 89 13 116 4 34 3 47 -5 42 -6 -3 -14 -35 -17
-71 -8 -67 -14 -79 -37 -70 -10 4 -13 23 -10 75 4 62 2 69 -12 64 -9 -3 -23
-1 -31 6 -12 10 -15 7 -19 -12z"/>
<path d="M6220 5405 c-1 -16 -3 -48 -6 -70 -14 -130 -22 -271 -14 -279 5 -5
16 -6 24 -3 14 6 16 31 16 179 0 95 -5 180 -10 188 -7 12 -10 8 -10 -15z"/>
<path d="M5527 5377 c-15 -11 -16 -29 -11 -179 4 -93 10 -168 14 -168 7 0 23
350 17 357 -2 1 -11 -3 -20 -10z"/>
<path d="M5452 5355 c-22 -50 -32 -122 -32 -236 0 -103 1 -109 20 -109 11 0
23 6 26 13 2 7 3 91 2 187 -3 155 -5 172 -16 145z"/>
<path d="M5171 5263 c2 -86 3 -92 9 -48 12 73 12 145 0 145 -6 0 -9 -38 -9
-97z"/>
<path d="M4997 5332 c-25 -28 -34 -62 -41 -165 l-7 -99 31 7 c23 5 36 2 50
-10 22 -20 40 -12 40 18 0 13 9 40 19 60 17 33 17 39 5 44 -12 4 -15 20 -13
63 3 66 -1 75 -40 88 -24 8 -32 7 -44 -6z"/>
<path d="M5797 5343 c-2 -5 -8 -42 -11 -83 -4 -41 -10 -85 -13 -98 -4 -17 4
-31 38 -62 30 -27 46 -36 50 -27 3 6 9 66 13 132 l6 121 -33 12 c-39 14 -44
15 -50 5z"/>
<path d="M5166 5067 c-5 -15 -6 -31 -2 -34 11 -11 18 5 14 34 l-4 28 -8 -28z"/>
<path d="M5876 4612 c-20 -33 -71 -409 -57 -424 15 -17 49 24 66 81 18 60 18
60 42 44 13 -9 26 -13 29 -10 6 6 22 299 17 310 -5 10 -90 9 -97 -1z"/>
<path d="M6080 4578 c-36 -59 -62 -142 -69 -220 l-7 -78 32 0 c24 0 39 8 58
31 25 30 26 35 26 165 0 84 -4 134 -10 134 -6 0 -19 -15 -30 -32z"/>
<path d="M6164 4515 c3 -55 6 -119 6 -142 0 -37 4 -45 30 -58 16 -8 31 -15 35
-15 3 0 5 35 5 78 0 66 -5 87 -34 150 -18 40 -37 76 -41 80 -4 4 -5 -38 -1
-93z"/>
<path d="M5230 4440 l0 -140 36 -38 35 -37 -6 165 c-6 134 -10 167 -23 178
-38 29 -42 18 -42 -128z"/>
<path d="M5792 4560 c-6 -11 -12 -27 -12 -35 0 -24 -16 -18 -43 16 -21 27 -29
30 -55 25 -58 -13 -63 -28 -60 -182 l3 -139 23 38 c13 20 27 37 31 37 4 0 25
-25 46 -55 21 -31 39 -54 41 -53 1 2 8 53 14 113 10 103 25 197 36 238 7 23
-8 22 -24 -3z"/>
<path d="M6030 4565 c0 -11 -3 -31 -7 -44 -4 -16 -2 -22 4 -18 16 10 25 59 14
70 -8 8 -11 5 -11 -8z"/>
<path d="M5166 4542 c-3 -5 -26 -15 -51 -22 -25 -7 -45 -13 -46 -14 -1 0 -5
-59 -10 -131 -5 -71 -12 -160 -15 -197 -6 -66 -5 -68 20 -79 37 -17 66 10 66
63 0 25 5 38 13 38 11 0 17 41 26 171 11 162 11 193 -3 171z"/>
<path d="M5476 4533 c-36 -4 -39 -8 -64 -64 l-25 -59 -30 27 -30 28 6 -40 c3
-22 9 -79 13 -127 4 -47 9 -91 13 -96 10 -16 79 2 106 28 l23 22 21 -21 c12
-12 33 -21 47 -21 l27 0 -8 103 c-4 58 -12 105 -18 109 -9 6 -9 8 1 8 8 0 12
18 12 55 0 61 7 58 -94 48z"/>
<path d="M6289 3895 c-5 -35 4 -156 18 -252 16 -109 17 -111 37 -97 11 8 32
14 46 14 49 0 53 11 32 81 -13 43 -26 67 -40 74 -18 8 -20 15 -15 56 5 45 3
49 -35 91 -23 23 -42 39 -43 33z"/>
<path d="M6149 3819 c-15 -29 -7 -192 10 -213 19 -22 5 -20 -31 5 -16 12 -31
19 -34 16 -3 -3 -2 -42 2 -87 4 -55 11 -83 21 -87 7 -3 49 0 93 7 l79 12 -6
32 c-39 211 -52 259 -77 285 -14 15 -26 32 -26 39 0 19 -18 14 -31 -9z"/>
<path d="M5749 3773 c-9 -10 -31 -75 -49 -145 -18 -70 -37 -125 -42 -122 -8 5
-4 -64 8 -143 8 -53 30 -48 77 17 23 33 45 60 48 60 4 0 10 -10 15 -22 11 -31
17 240 7 312 -7 45 -12 56 -29 58 -11 2 -27 -5 -35 -15z"/>
<path d="M5872 3514 c-2 -172 -2 -174 47 -174 21 0 56 36 66 68 5 16 14 22 36
22 28 0 29 2 29 44 0 82 -12 138 -27 131 -9 -3 -23 5 -35 20 -41 52 -56 27
-61 -105 -2 -58 -4 -65 -22 -65 -18 0 -20 9 -26 110 -5 108 -5 107 -7 -51z"/>
<path d="M5257 3644 c-2 -5 3 -69 13 -143 17 -126 17 -161 1 -161 -12 0 -53
79 -66 129 l-13 46 -1 -53 c-1 -50 -2 -52 -22 -42 -11 7 -22 10 -25 8 -2 -2 1
-30 6 -62 5 -31 7 -63 3 -71 -4 -12 4 -15 38 -15 41 0 46 -3 64 -38 26 -48 53
-52 99 -12 41 37 54 84 37 139 -7 23 -7 37 -1 39 11 4 13 49 4 114 -8 56 -56
116 -100 124 -17 3 -34 2 -37 -2z"/>
<path d="M5520 3627 c-14 -7 -37 -35 -51 -62 -25 -46 -26 -55 -18 -114 5 -36
13 -67 18 -70 4 -4 14 -19 22 -36 8 -16 26 -36 40 -44 22 -12 29 -12 55 0 23
12 29 20 27 44 -2 17 -5 86 -8 154 -3 84 -9 128 -18 133 -17 11 -38 10 -67 -5z"/>
<path d="M5058 3539 l4 -40 14 27 c11 20 11 30 3 40 -19 23 -25 16 -21 -27z"/>
<path d="M5090 3315 c27 -29 37 -27 20 4 -6 12 -18 21 -27 21 -13 0 -12 -5 7
-25z"/>
<path d="M6072 3323 c-21 -20 -72 -156 -72 -195 0 -14 10 -34 23 -46 34 -32
89 -28 56 5 -14 14 -25 123 -12 123 16 0 30 -22 38 -60 10 -49 11 -50 46 -40
42 12 42 12 50 78 4 31 10 65 14 76 7 16 6 17 -15 6 -23 -13 -39 -2 -40 27 0
14 -39 43 -56 43 -7 0 -21 -8 -32 -17z"/>
<path d="M6330 3290 c-8 -5 -22 -7 -31 -5 -13 4 -20 -8 -33 -59 -9 -36 -16
-67 -16 -70 0 -2 27 -7 61 -11 51 -6 63 -4 81 11 13 12 18 13 13 4 -5 -8 -8
-46 -6 -85 2 -64 5 -73 34 -103 64 -67 122 -80 157 -35 l21 27 -40 40 c-21 23
-55 74 -76 115 -31 62 -39 72 -57 68 -16 -5 -18 -3 -9 6 46 46 -42 133 -99 97z"/>
<path d="M5586 3175 c-30 -28 -31 -33 -11 -145 16 -95 42 -130 96 -130 16 0
29 2 29 4 0 2 -9 23 -20 47 -14 32 -20 66 -20 124 0 56 -5 87 -16 103 -19 28
-25 28 -58 -3z"/>
<path d="M5827 3193 c-12 -11 -6 -126 8 -168 7 -22 13 -32 14 -22 1 14 11 17
55 17 45 0 58 4 70 22 30 43 14 88 -31 88 -12 0 -38 16 -57 35 -35 35 -47 41
-59 28z"/>
<path d="M5711 3168 c1 -13 5 -34 9 -48 7 -20 8 -16 9 23 1 26 -3 47 -9 47 -5
0 -10 -10 -9 -22z"/>
<path d="M5093 3032 c-83 -88 -94 -146 -33 -177 17 -9 30 -23 30 -33 0 -60 85
-85 129 -39 20 22 25 23 77 14 64 -11 94 -2 119 37 23 35 12 61 -34 74 -21 7
-58 30 -82 51 l-45 39 -22 -23 c-12 -13 -29 -39 -37 -59 -15 -35 -36 -45 -62
-28 -10 6 -9 20 2 62 19 71 19 77 -5 90 -15 8 -23 6 -37 -8z"/>
<path d="M5766 2984 c-3 -26 -4 -49 -2 -51 2 -3 19 3 38 13 20 10 28 19 20 22
-8 2 -22 17 -31 33 l-18 30 -7 -47z"/>
<path d="M7170 2720 c8 -15 20 -20 48 -19 l37 0 -40 19 c-52 24 -58 24 -45 0z"/>
<path d="M7290 2665 c30 -31 34 -33 46 -17 11 15 8 19 -24 34 -55 25 -59 22
-22 -17z"/>
<path d="M7201 2619 c4 -32 -8 -49 -34 -49 -35 0 -7 -15 62 -34 60 -16 65 -16
82 0 11 9 19 22 19 28 0 9 -59 45 -123 74 -5 3 -7 -6 -6 -19z"/>
<path d="M7051 2549 c-57 -62 -27 -131 67 -159 25 -7 36 -4 57 12 14 10 25 28
25 38 0 13 8 20 27 22 45 5 40 28 -7 28 -48 0 -73 11 -116 52 l-32 30 -21 -23z"/>
<path d="M4900 2538 c0 -7 -7 -25 -14 -40 -9 -16 -11 -30 -5 -33 5 -4 9 -1 9
4 0 6 7 11 15 11 17 0 21 55 5 65 -5 3 -10 0 -10 -7z"/>
<path d="M7301 8506 c-13 -16 -61 -142 -61 -161 0 -8 9 -15 20 -15 11 0 20 5
20 12 0 7 23 35 50 63 56 57 58 75 10 100 -23 12 -30 12 -39 1z"/>
<path d="M4206 5026 c-10 -17 -16 -41 -14 -64 l3 -37 18 53 c22 61 18 86 -7
48z"/>
<path d="M3092 4784 c-39 -27 -53 -71 -67 -212 -11 -104 -12 -159 -4 -227 17
-151 32 -165 95 -88 l39 47 5 236 c3 135 2 240 -3 248 -13 16 -38 15 -65 -4z"/>
<path d="M3210 4716 c0 -12 3 -52 7 -87 l6 -64 17 50 c15 47 15 52 -2 88 -21
43 -28 46 -28 13z"/>
<path d="M3295 4598 c-2 -7 -6 -31 -10 -53 l-7 -39 -16 27 c-18 29 -34 34 -50
15 -6 -8 -12 -85 -13 -178 l-4 -165 28 -9 c39 -14 61 2 68 50 6 35 6 34 8 -18
1 -48 4 -58 19 -58 9 0 35 -9 56 -21 55 -29 67 -23 83 44 7 32 24 73 39 92 20
26 29 59 44 152 11 65 20 123 20 130 0 19 -43 20 -75 1 -24 -15 -32 -29 -45
-85 -13 -56 -19 -68 -35 -68 -23 0 -23 7 -11 123 l7 72 -51 0 c-32 0 -52 -5
-55 -12z"/>
<path d="M4123 4581 c-5 -3 -17 -41 -27 -83 -16 -70 -20 -77 -36 -68 -18 10
-51 43 -89 90 l-20 25 -1 -153 c0 -150 0 -152 -20 -142 -19 10 -20 21 -20 160
0 127 -2 150 -15 150 -8 0 -15 -7 -15 -15 0 -8 -9 -15 -21 -15 -48 0 -55 -13
-74 -144 -17 -119 -19 -125 -40 -120 -22 5 -33 -8 -55 -68 -8 -24 -6 -30 14
-43 13 -9 30 -13 39 -10 8 4 32 2 54 -4 32 -9 40 -8 51 7 12 15 13 13 8 -14
-5 -23 -2 -35 13 -48 28 -26 46 -15 60 37 11 39 16 44 42 45 l29 1 -7 -59 c-5
-54 -4 -59 20 -75 14 -9 31 -14 38 -10 33 21 50 129 28 178 -9 20 -5 51 21
158 17 74 40 153 50 176 17 39 17 41 0 46 -10 2 -22 2 -27 -2z"/>
<path d="M4209 4567 c0 -1 -21 -96 -47 -212 -38 -169 -46 -224 -44 -283 l4
-73 31 7 c47 10 47 10 47 75 0 42 15 115 51 242 28 99 53 185 55 192 3 8 -93
60 -97 52z"/>
<path d="M3612 4531 c-9 -5 -21 -65 -34 -166 -23 -173 -23 -175 38 -175 33 0
59 22 66 55 2 11 9 19 16 18 13 -3 16 7 37 143 20 133 20 127 -14 119 -17 -3
-32 -2 -36 4 -7 13 -54 14 -73 2z"/>
<path d="M3145 4227 c-4 -10 -5 -21 -1 -24 10 -10 18 4 13 24 -4 17 -4 17 -12
0z"/>
<path d="M3081 3987 c-27 -45 -51 -184 -58 -342 -6 -157 -1 -177 57 -194 53
-16 90 -7 124 28 l27 28 43 -45 c34 -36 47 -43 65 -37 27 8 61 61 61 95 0 23
7 28 59 41 l58 16 18 -76 c18 -82 38 -121 59 -121 9 0 17 33 26 118 11 100 10
125 -1 158 l-14 39 -3 -52 -3 -53 -35 0 c-32 0 -34 2 -34 35 0 20 7 49 15 66
9 16 14 33 11 38 -3 4 -32 11 -66 14 -51 4 -63 9 -86 36 -29 35 -77 42 -92 15
-5 -9 -18 -14 -28 -12 -15 3 -19 12 -20 42 0 30 -6 41 -27 54 -22 13 -27 24
-27 55 0 48 -35 87 -79 87 -22 0 -34 -8 -50 -33z m140 -258 c19 -10 19 -10 0
-37 -53 -71 -57 -74 -80 -67 l-22 7 27 46 c24 41 41 61 52 62 2 0 12 -5 23
-11z"/>
<path d="M3683 3553 c-11 -98 -19 -180 -17 -182 2 -2 13 8 25 23 19 24 28 27
68 24 l46 -2 11 114 c18 173 19 164 -21 183 -20 9 -48 17 -63 17 l-28 0 -21
-177z"/>
<path d="M3990 3639 c-24 -19 -28 -19 -64 -4 -21 9 -41 13 -45 10 -3 -4 -15
-87 -26 -185 l-20 -178 35 -5 c19 -3 45 -8 57 -12 15 -5 27 -1 42 14 25 25 31
26 31 7 0 -29 44 -26 82 5 32 25 38 27 38 12 0 -20 47 -76 58 -69 4 2 4 57 0
123 -3 65 -7 139 -7 166 -1 47 -1 47 -36 47 -25 0 -35 4 -35 16 0 19 -54 74
-72 73 -7 0 -24 -9 -38 -20z m46 -174 c3 -8 -8 -39 -26 -70 -35 -61 -74 -95
-92 -77 -7 7 6 33 41 86 52 76 67 88 77 61z"/>
<path d="M4223 3598 c-9 -16 -4 -223 6 -251 7 -17 13 -11 39 38 26 47 32 70
32 118 0 52 -2 58 -15 47 -8 -7 -15 -25 -15 -41 0 -32 -10 -41 -29 -29 -10 6
-13 24 -8 69 5 63 4 70 -10 49z"/>
<path d="M4289 3293 c-6 -16 -17 -45 -25 -66 l-13 -38 29 18 c27 15 30 23 30
65 0 55 -6 60 -21 21z"/>
<path d="M3223 3300 c-57 -23 -100 -184 -60 -228 27 -29 65 -36 88 -16 10 9
27 14 39 11 16 -4 21 1 26 21 3 15 9 43 14 62 25 97 19 123 -35 146 -39 16
-42 16 -72 4z"/>
<path d="M3380 3178 c0 -13 -3 -47 -7 -77 l-6 -55 56 45 c32 24 57 46 57 49
-1 8 -77 60 -89 60 -6 0 -11 -10 -11 -22z"/>
<path d="M3706 3138 c-35 -31 -82 -125 -97 -194 -13 -56 -13 -57 15 -80 33
-29 86 -32 110 -5 9 10 20 38 24 62 7 39 11 44 35 47 31 4 30 6 11 -99 -4 -23
-1 -26 46 -37 85 -20 80 -27 80 113 0 69 -4 125 -8 125 -5 0 -17 -9 -27 -20
-26 -29 -34 -25 -47 25 -7 25 -15 45 -19 45 -3 0 -9 -25 -12 -56 -6 -62 -17
-80 -41 -71 -20 8 -23 132 -3 140 9 4 8 8 -3 16 -22 16 -36 13 -64 -11z"/>
<path d="M3980 3079 c0 -11 5 -17 10 -14 6 3 10 13 10 21 0 8 -4 14 -10 14 -5
0 -10 -9 -10 -21z"/>
<path d="M4016 2992 c-17 -32 -34 -193 -19 -177 5 6 26 31 47 58 l38 47 -18
45 c-22 58 -30 62 -48 27z"/>
<path d="M4362 2945 c-4 -6 -14 -14 -23 -17 -21 -8 -32 -77 -18 -117 13 -36
25 -40 34 -11 7 23 30 27 38 7 3 -8 1 -20 -4 -28 -13 -21 -10 -80 5 -108 12
-22 14 -22 23 -6 9 16 12 16 42 0 18 -9 35 -14 38 -12 2 3 -9 49 -25 104 -20
65 -28 111 -25 138 5 40 4 41 -36 51 -31 9 -43 8 -49 -1z"/>
<path d="M4056 2857 c-18 -13 -46 -109 -46 -160 0 -61 94 -105 120 -57 9 16
21 20 68 20 54 0 60 2 82 32 l23 31 -24 69 c-13 37 -29 68 -36 68 -18 0 -21
-88 -4 -133 11 -29 12 -40 2 -50 -9 -9 -14 -9 -19 0 -4 6 -18 13 -32 15 -21 2
-25 8 -23 32 3 46 -59 146 -91 146 -1 0 -10 -6 -20 -13z"/>
<path d="M1809 2492 c-13 -12 -18 -21 -12 -25 6 -4 18 4 27 18 20 30 16 31
-15 7z"/>
<path d="M4920 1987 c0 -23 7 -53 16 -65 11 -16 13 -27 6 -35 -7 -8 -2 -22 18
-46 l29 -34 35 29 c19 16 35 31 35 34 1 3 -18 26 -42 50 -24 25 -52 60 -62 78
-26 43 -35 40 -35 -11z"/>
<path d="M5087 1775 c-24 -50 -22 -61 16 -86 36 -24 117 -107 117 -119 0 -6
118 -104 206 -172 8 -6 12 0 11 19 -1 15 -11 35 -22 43 -80 58 -215 225 -215
266 0 12 -77 84 -90 84 -3 0 -14 -16 -23 -35z"/>
<path d="M5512 1421 c-22 -16 -22 -18 -5 -33 10 -8 32 -18 49 -21 18 -3 44 -9
59 -13 27 -7 27 -6 11 18 -9 13 -33 34 -54 45 -36 21 -38 21 -60 4z"/>
<path d="M5436 1365 c-7 -19 39 -55 70 -55 13 0 24 2 24 5 0 2 -20 18 -44 34
-35 24 -45 28 -50 16z"/>
<path d="M7456 501 c-26 -29 -21 -86 10 -110 38 -30 97 -28 118 4 23 35 21 40
-31 78 -63 45 -78 49 -97 28z"/>
</g>
</svg>
