<?xml version="1.0" standalone="no"?>
<!DOCTYPE svg PUBLIC "-//W3C//DTD SVG 20010904//EN"
 "http://www.w3.org/TR/2001/REC-SVG-20010904/DTD/svg10.dtd">
<svg version="1.0" xmlns="http://www.w3.org/2000/svg"
 width="1024.000000pt" height="1024.000000pt" viewBox="0 0 1024.000000 1024.000000"
 preserveAspectRatio="xMidYMid meet">
<metadata>
Created by potrace 1.10, written by Peter Selinger 2001-2011
</metadata>
<g transform="translate(0.000000,1024.000000) scale(0.100000,-0.100000)"
fill="#000000" stroke="none">
<path d="M2593 8707 c-25 -17 -33 -29 -33 -54 0 -18 -23 -128 -51 -245 l-50
-213 -14 -365 c-13 -325 -13 -385 1 -550 14 -161 23 -213 71 -400 30 -118 64
-232 75 -255 77 -151 220 -318 347 -404 158 -108 421 -202 607 -218 74 -6 75
-7 69 -31 -5 -21 -63 -149 -126 -277 -11 -22 -35 -89 -54 -150 -18 -60 -337
-1075 -708 -2255 -545 -1731 -689 -2178 -746 -2315 -80 -189 -96 -265 -67
-310 25 -37 62 -33 105 13 35 36 48 79 340 1042 167 553 307 1009 312 1014 5
6 95 5 236 -2 l228 -11 336 93 335 93 241 161 c279 186 388 274 503 403 198
225 317 454 376 729 22 101 25 413 4 545 -50 325 -331 767 -590 928 -175 108
-405 152 -590 112 -36 -7 -66 -12 -68 -10 -2 1 15 43 38 93 22 49 43 103 46
119 5 27 13 32 96 57 123 39 306 133 408 210 127 95 262 241 366 396 121 178
399 731 443 880 43 142 87 367 111 560 11 91 31 226 45 300 34 185 33 211 -7
245 -23 20 -38 25 -57 20 -14 -4 -27 -8 -28 -9 -11 -11 -82 -317 -86 -375 -3
-40 -7 -74 -9 -75 -5 -4 -2428 51 -2432 55 -10 10 26 165 58 248 40 103 43
128 21 171 -13 26 -51 61 -65 59 -3 0 -20 -10 -37 -22z m504 -627 c255 -10
467 -21 473 -25 5 -3 336 -10 735 -15 400 -4 729 -11 733 -14 3 -4 -2 -30 -11
-59 -9 -29 -22 -90 -28 -137 -9 -63 -36 -150 -111 -350 -54 -146 -111 -283
-127 -305 -15 -22 -37 -68 -49 -103 -12 -37 -69 -139 -139 -250 -105 -167
-131 -200 -238 -308 -128 -128 -206 -185 -350 -257 -138 -69 -242 -97 -356
-97 -246 0 -488 84 -668 230 -86 70 -101 88 -189 227 -58 90 -77 131 -101 215
-82 282 -112 659 -87 1111 8 151 9 157 30 157 11 0 229 -9 483 -20z m895
-2479 l198 -18 101 -69 c133 -90 186 -138 259 -236 71 -94 161 -273 188 -373
10 -38 29 -136 42 -216 l24 -146 -23 -214 -22 -214 -73 -157 c-135 -287 -292
-481 -541 -668 -235 -177 -525 -318 -791 -385 -105 -27 -296 -55 -374 -55 -47
0 -248 34 -257 44 -3 2 124 411 282 908 158 497 307 968 332 1048 47 148 119
349 171 475 16 39 43 114 61 168 29 85 35 97 56 97 12 0 33 9 46 20 19 15 34
18 74 14 28 -3 139 -13 247 -23z"/>
<path d="M5627 5230 c-30 -35 -35 -81 -13 -99 8 -7 61 -19 117 -28 57 -8 140
-28 185 -44 151 -55 314 -175 411 -301 47 -60 267 -457 296 -533 40 -106 57
-269 39 -381 l-7 -41 -100 59 c-294 172 -366 196 -855 288 -211 39 -395 70
-409 68 -18 -2 -32 -14 -46 -40 -20 -38 -20 -38 0 -56 20 -19 242 -69 475
-107 132 -22 276 -61 400 -107 130 -49 500 -256 500 -279 0 -27 -77 -172 -127
-241 -67 -91 -266 -301 -336 -353 -67 -51 -183 -109 -248 -124 -24 -6 -176
-15 -337 -20 l-292 -10 -76 35 c-72 32 -80 34 -190 34 -134 0 -142 -8 -70 -75
62 -57 131 -88 278 -124 284 -70 474 -64 718 21 108 38 157 64 305 162 135 90
193 140 274 241 93 114 160 227 217 362 8 22 16 17 129 -86 85 -76 204 -206
405 -440 157 -182 288 -339 291 -349 4 -9 176 -276 384 -592 371 -564 435
-668 435 -701 0 -9 7 -22 15 -29 8 -7 15 -20 15 -30 0 -10 7 -23 14 -30 8 -6
23 -33 32 -58 10 -26 26 -60 36 -77 10 -16 18 -37 18 -45 0 -8 35 -84 77 -169
67 -132 82 -156 110 -167 39 -17 59 -10 78 27 22 42 20 55 -39 174 -61 123
-116 248 -141 315 -9 25 -23 52 -30 60 -7 8 -31 51 -53 95 -22 44 -164 284
-315 533 -226 371 -316 507 -497 756 -287 394 -525 664 -755 857 -85 71 -155
135 -155 142 0 7 7 69 16 137 23 185 5 300 -71 470 -24 52 -52 115 -63 140
-20 46 -300 438 -356 498 -56 61 -189 155 -281 198 -101 48 -218 81 -316 90
-64 6 -66 6 -92 -26z"/>
</g>
</svg>
