<?xml version="1.0" standalone="no"?>
<!DOCTYPE svg PUBLIC "-//W3C//DTD SVG 20010904//EN"
 "http://www.w3.org/TR/2001/REC-SVG-20010904/DTD/svg10.dtd">
<svg version="1.0" xmlns="http://www.w3.org/2000/svg"
 width="1024.000000pt" height="1024.000000pt" viewBox="0 0 1024.000000 1024.000000"
 preserveAspectRatio="xMidYMid meet">
<metadata>
Created by potrace 1.10, written by Peter Selinger 2001-2011
</metadata>
<g transform="translate(0.000000,1024.000000) scale(0.100000,-0.100000)"
fill="#000000" stroke="none">
<path d="M4521 8895 c-61 -30 -111 -56 -111 -58 0 -2 41 -33 91 -68 272 -189
319 -351 319 -1090 l0 -357 -22 -5 c-13 -3 -514 -74 -1115 -158 l-1091 -152
-31 22 c-47 33 -149 73 -343 131 l-177 53 -56 -42 -56 -42 84 -82 c68 -67 92
-98 125 -167 90 -184 96 -249 82 -952 -12 -663 -26 -974 -66 -1493 -38 -499
-239 -1401 -405 -1817 -119 -299 -350 -674 -598 -972 -93 -112 -113 -156 -71
-156 80 0 373 257 566 495 412 509 668 1103 834 1935 97 490 136 1025 169
2353 5 197 12 361 15 364 3 3 475 79 1048 169 574 90 1058 166 1076 169 l32 6
0 -771 c0 -572 -3 -770 -11 -770 -7 0 -225 -34 -485 -75 l-473 -75 -281 0
-280 0 1 -22 c0 -13 8 -47 17 -77 17 -55 18 -55 132 -124 63 -39 151 -83 195
-99 78 -29 83 -30 210 -23 111 6 182 18 480 85 386 87 1599 320 1665 320 58 0
91 -34 84 -87 -18 -125 -106 -298 -296 -581 -39 -59 -241 -333 -448 -608
l-376 -502 -224 154 c-124 84 -405 271 -625 415 l-400 262 -105 23 c-114 25
-175 29 -214 14 -43 -16 -31 -39 37 -69 41 -19 257 -172 618 -441 577 -429
731 -548 727 -561 -8 -22 -221 -248 -405 -430 -212 -209 -515 -480 -723 -645
-408 -325 -909 -628 -1395 -844 -254 -113 -274 -122 -297 -147 -19 -20 -20
-26 -8 -48 18 -33 60 -33 200 -1 333 77 917 328 1360 586 505 294 1118 747
1480 1095 164 157 135 149 232 68 518 -432 1524 -1209 2069 -1600 l226 -162
154 -44 154 -44 445 68 c245 37 458 72 474 78 48 19 83 49 95 81 l10 30 -89
45 c-48 24 -148 66 -222 93 -423 157 -870 352 -1288 563 -257 129 -388 204
-672 382 -344 217 -1160 759 -1208 803 -12 12 -8 21 37 67 66 68 258 295 398
472 171 215 357 473 568 790 114 171 322 426 420 514 76 69 109 183 71 241
-87 131 -345 314 -527 375 l-78 26 -126 -25 c-69 -14 -165 -42 -214 -61 -104
-41 -301 -94 -481 -130 -70 -14 -139 -30 -153 -35 l-25 -10 0 760 c0 722 1
760 18 760 10 0 425 30 922 66 498 36 922 63 943 60 82 -10 154 -102 143 -180
-14 -92 -169 -388 -353 -673 -61 -96 -103 -171 -101 -182 2 -16 51 12 290 167
157 103 303 201 325 218 148 118 351 218 488 239 92 14 155 77 155 155 0 19
-13 62 -29 95 -86 178 -368 468 -538 552 -73 36 -74 36 -170 30 -54 -3 -263
-29 -466 -56 -268 -37 -530 -64 -966 -101 -329 -27 -613 -50 -631 -50 l-33 0
6 418 c7 459 13 554 52 720 26 111 26 112 8 149 -23 47 -99 105 -182 138 -66
27 -462 145 -485 145 -7 0 -63 -25 -125 -55z"/>
</g>
</svg>
