<?xml version="1.0" standalone="no"?>
<!DOCTYPE svg PUBLIC "-//W3C//DTD SVG 20010904//EN"
 "http://www.w3.org/TR/2001/REC-SVG-20010904/DTD/svg10.dtd">
<svg version="1.0" xmlns="http://www.w3.org/2000/svg"
 width="1024.000000pt" height="1024.000000pt" viewBox="0 0 1024.000000 1024.000000"
 preserveAspectRatio="xMidYMid meet">
<metadata>
Created by potrace 1.10, written by Peter Selinger 2001-2011
</metadata>
<g transform="translate(0.000000,1024.000000) scale(0.100000,-0.100000)"
fill="#000000" stroke="none">
<path d="M6166 9931 c-41 -9 -63 -57 -82 -182 -19 -123 -14 -425 9 -527 l15
-62 -831 -538 c-457 -295 -836 -538 -842 -540 -7 -2 -60 114 -125 273 -62 152
-129 303 -149 336 -50 85 -171 199 -211 199 -23 0 -35 -7 -50 -32 -39 -65 -37
-72 61 -290 51 -111 102 -215 113 -231 11 -15 55 -110 97 -210 58 -137 74
-185 65 -194 -6 -6 -330 -235 -721 -508 -390 -273 -720 -506 -733 -518 -65
-60 -29 -197 52 -197 38 0 40 1 321 197 461 320 725 503 950 660 145 102 232
157 236 149 4 -6 98 -269 209 -585 137 -388 213 -591 236 -627 19 -29 34 -57
34 -62 0 -5 -39 -39 -86 -77 -99 -79 -224 -194 -340 -315 -189 -197 -243 -271
-610 -835 l-320 -490 -266 -515 c-300 -578 -385 -767 -514 -1129 -200 -562
-295 -1007 -310 -1456 -7 -208 35 -766 60 -794 8 -9 22 -47 30 -85 19 -79 65
-172 105 -210 21 -20 41 -27 88 -32 59 -6 63 -6 92 24 41 40 41 80 1 126 -19
21 -34 52 -39 83 -10 51 -55 178 -70 197 -5 6 -19 81 -32 166 -19 127 -23 195
-22 380 0 389 25 519 223 1170 l147 485 242 542 242 542 327 558 c180 307 360
604 400 660 251 354 574 675 937 929 140 99 459 287 590 349 266 126 569 186
860 171 282 -15 458 -71 590 -188 68 -61 135 -149 135 -178 0 -11 23 -49 52
-83 28 -34 65 -91 82 -127 l31 -65 -1 -180 c-1 -170 -3 -185 -29 -265 -99
-298 -264 -618 -450 -875 -185 -255 -279 -418 -355 -610 -17 -44 -53 -125 -79
-180 -111 -230 -152 -333 -165 -418 -8 -47 -18 -93 -24 -103 -5 -11 -12 -60
-16 -111 -6 -89 -6 -93 34 -198 48 -128 87 -207 145 -295 33 -49 587 -696 844
-985 173 -195 550 -635 587 -685 150 -203 469 -450 580 -450 31 0 51 7 74 26
32 28 60 73 60 98 0 32 -62 83 -164 136 -105 54 -108 57 -234 200 -70 80 -163
192 -207 250 -283 377 -533 667 -884 1025 -211 215 -298 311 -402 445 -119
152 -169 231 -169 265 0 18 -11 49 -25 69 l-25 36 30 126 c17 69 30 143 30
165 0 25 11 58 29 92 16 28 44 95 62 147 21 64 43 106 65 130 29 31 60 107 49
118 -2 3 4 16 15 29 11 14 22 41 26 60 4 23 68 123 174 277 139 200 192 287
310 511 78 149 157 295 175 325 108 182 159 344 180 570 11 121 -55 382 -138
547 -43 83 -142 225 -196 279 -92 92 -346 209 -574 264 -236 57 -396 64 -565
26 -388 -88 -772 -251 -1098 -465 -59 -39 -111 -68 -115 -64 -10 10 -479 1253
-479 1269 0 10 1558 1037 1627 1073 30 15 30 15 52 -26 28 -55 162 -238 231
-315 144 -160 336 -268 559 -313 145 -30 200 -8 209 83 6 68 -7 88 -70 102
-213 48 -370 134 -515 282 -191 195 -298 420 -324 683 -10 97 -9 127 5 203 20
109 20 182 2 225 -12 31 -79 98 -94 96 -4 -1 -20 -4 -36 -8z"/>
</g>
</svg>
