<?xml version="1.0" standalone="no"?>
<!DOCTYPE svg PUBLIC "-//W3C//DTD SVG 20010904//EN"
 "http://www.w3.org/TR/2001/REC-SVG-20010904/DTD/svg10.dtd">
<svg version="1.0" xmlns="http://www.w3.org/2000/svg"
 width="1024.000000pt" height="1024.000000pt" viewBox="0 0 1024.000000 1024.000000"
 preserveAspectRatio="xMidYMid meet">
<metadata>
Created by potrace 1.10, written by Peter Selinger 2001-2011
</metadata>
<g transform="translate(0.000000,1024.000000) scale(0.100000,-0.100000)"
fill="#000000" stroke="none">
<path d="M2261 9855 c-28 -26 -49 -60 -75 -123 -19 -48 -55 -132 -81 -188 -53
-117 -92 -261 -101 -375 -4 -49 -11 -79 -18 -79 -7 0 -90 -38 -186 -85 -95
-47 -176 -82 -180 -78 -4 4 -17 37 -30 72 -49 135 -171 280 -294 350 -63 37
-186 82 -225 83 -48 1 -135 -30 -158 -57 -30 -34 -29 -44 12 -150 25 -67 50
-174 95 -415 34 -179 65 -329 71 -334 5 -6 9 -33 9 -61 0 -37 -6 -60 -24 -86
-75 -109 -107 -386 -71 -608 19 -112 12 -203 -18 -243 -12 -16 -27 -28 -34
-28 -7 0 -13 -5 -13 -11 0 -23 -211 -249 -233 -249 -21 0 -188 -114 -211 -145
-52 -68 -81 -171 -71 -248 6 -41 16 -58 64 -108 54 -58 59 -60 126 -71 59 -10
78 -19 122 -54 63 -52 178 -108 253 -124 60 -13 91 -12 517 15 282 19 292 19
325 1 70 -38 72 -40 52 -78 -9 -18 -30 -52 -46 -75 -24 -36 -31 -62 -48 -184
-11 -79 -20 -167 -20 -196 0 -35 -9 -72 -26 -110 -14 -32 -30 -69 -35 -82 -10
-24 -10 -24 -63 28 -45 44 -58 52 -77 46 -41 -12 -90 -56 -106 -92 -16 -39 -7
-83 28 -127 l19 -24 -35 -22 c-50 -31 -85 -77 -85 -112 0 -69 62 -144 110
-133 15 3 1 -10 -37 -35 -35 -22 -69 -53 -77 -68 -14 -27 -13 -32 15 -81 l30
-52 -40 -44 c-70 -76 -66 -126 14 -164 l48 -22 -7 -76 c-3 -42 -6 -101 -6
-132 0 -53 -2 -57 -33 -71 -17 -8 -34 -23 -35 -34 -2 -10 15 -45 38 -79 37
-52 43 -68 47 -126 3 -36 13 -91 24 -121 10 -30 30 -119 45 -197 l26 -141 -23
-31 c-15 -21 -23 -44 -22 -69 1 -30 9 -44 45 -77 l44 -40 52 -270 c28 -148 54
-300 58 -338 6 -62 5 -67 -11 -61 -15 6 -17 3 -12 -17 3 -13 16 -86 28 -161
l22 -137 -30 -668 -31 -668 -74 -68 c-46 -42 -99 -80 -145 -101 -124 -59 -191
-147 -212 -275 -13 -83 -4 -128 36 -178 29 -36 44 -44 111 -62 191 -51 362
-51 518 2 142 49 237 109 361 230 l62 60 -1 -31 c-1 -47 42 -123 88 -155 62
-43 242 -77 410 -77 204 0 346 34 521 124 109 56 123 69 159 143 l29 58 -3
332 -3 333 35 0 c65 0 138 88 117 143 -10 26 -75 87 -94 88 -7 0 12 7 42 15
74 20 107 46 116 90 5 30 2 41 -18 63 -41 43 -117 168 -117 191 0 12 -15 37
-34 56 -27 27 -42 34 -74 34 l-39 0 -18 133 c-12 90 -26 151 -44 192 -35 80
-36 163 -2 222 22 39 32 45 102 68 l77 26 153 -17 c85 -9 159 -20 164 -24 6
-4 145 -11 310 -15 290 -6 314 -5 725 30 500 42 909 94 1070 135 85 21 118 26
128 18 10 -8 20 -6 40 8 15 11 50 37 79 57 l51 37 -18 -48 c-35 -92 -41 -188
-25 -371 16 -179 39 -285 86 -396 36 -88 57 -119 98 -149 18 -14 58 -54 89
-90 140 -160 359 -304 551 -361 33 -11 61 -22 61 -25 0 -3 -77 -67 -170 -141
-146 -114 -188 -142 -291 -190 -66 -30 -128 -62 -138 -71 -10 -9 -61 -28 -112
-44 -81 -23 -113 -27 -224 -28 -119 -1 -134 -3 -180 -27 -35 -18 -74 -28 -128
-32 -42 -4 -94 -14 -115 -22 -85 -36 -151 -136 -160 -241 -6 -82 19 -136 98
-206 163 -148 356 -207 635 -195 191 8 360 58 510 152 39 24 95 53 125 65 30
12 84 35 120 52 36 17 87 37 113 45 58 17 123 73 132 113 5 24 27 43 112 97
149 96 153 100 153 134 0 48 44 122 110 183 69 63 151 109 254 141 l68 21 93
149 c50 83 99 172 108 199 48 143 -6 333 -128 445 -76 70 -164 103 -320 121
-197 22 -383 95 -454 180 -30 36 -40 59 -50 111 -6 36 -11 86 -11 110 l0 44
33 -33 c106 -108 318 -262 478 -346 94 -50 325 -146 350 -146 20 0 142 -53
177 -76 19 -13 53 -29 75 -35 22 -6 67 -33 101 -60 49 -39 68 -49 99 -49 46 0
105 -23 113 -45 4 -9 -50 -154 -121 -333 -127 -312 -221 -502 -252 -502 -14 0
-219 -167 -262 -214 -14 -14 -32 -26 -41 -26 -30 0 -154 -68 -187 -102 -30
-31 -33 -40 -39 -119 -6 -72 -4 -90 12 -122 24 -46 120 -120 194 -149 65 -25
227 -36 293 -19 33 8 72 7 163 -4 95 -12 136 -13 204 -4 285 38 425 167 553
509 83 224 115 404 127 735 5 138 16 380 25 538 l17 287 -23 68 c-17 51 -48
102 -132 215 -85 115 -112 160 -124 203 -8 31 -13 57 -11 58 2 1 22 10 45 20
85 37 97 77 53 161 l-32 60 12 135 c6 74 16 167 22 206 10 62 9 78 -5 116 -10
25 -26 54 -36 65 -19 20 -19 26 -5 144 29 255 89 530 166 768 45 139 46 182 9
267 l-20 45 65 29 c159 72 214 164 143 245 -17 19 -27 35 -22 35 5 0 37 25 70
55 75 68 100 120 80 168 -20 46 -85 101 -102 87 -10 -8 -21 -7 -44 4 -39 21
-56 20 -127 -4 -32 -11 -54 -16 -49 -11 6 5 120 82 255 171 135 89 256 171
269 183 37 34 53 81 39 111 -15 35 -89 70 -131 62 -47 -9 -219 -99 -319 -167
-49 -32 -88 -56 -88 -53 0 4 5 24 12 46 11 36 29 52 198 173 103 74 207 154
232 177 77 75 81 131 12 166 l-37 19 89 60 c108 73 133 99 140 145 5 29 1 41
-24 69 -62 71 -60 71 -233 -29 -85 -50 -155 -87 -157 -82 -1 4 5 29 15 55 17
46 24 51 199 163 187 119 224 153 224 209 0 37 -25 61 -82 78 -40 12 -46 11
-98 -15 -30 -15 -73 -35 -95 -44 -38 -15 -39 -14 -15 1 50 34 128 121 135 151
6 30 -16 92 -33 92 -4 0 -15 7 -25 14 -17 14 -17 16 12 57 40 54 40 89 0 134
-45 51 -66 53 -132 11 l-56 -36 -12 40 c-7 22 -10 41 -8 43 2 2 36 22 76 45
119 69 163 117 163 175 0 35 -71 87 -118 87 -11 0 -73 -22 -138 -49 -109 -45
-143 -53 -129 -31 3 5 34 25 69 44 36 20 80 55 100 77 69 81 56 137 -40 165
-54 15 -58 15 -106 -5 -28 -12 -54 -21 -59 -21 -4 0 -48 62 -98 138 -100 153
-120 175 -236 258 -266 190 -629 259 -948 178 -473 -120 -808 -439 -1042 -994
-21 -49 -105 -320 -105 -337 0 -2 -7 -3 -15 -3 -27 0 -84 -61 -95 -102 -7 -24
-10 -120 -8 -244 l3 -205 38 -35 c33 -32 37 -40 37 -85 0 -74 28 -185 67 -267
42 -90 144 -200 235 -256 34 -21 73 -54 85 -72 l22 -33 -27 5 c-15 2 -187 24
-382 48 -313 39 -365 48 -440 77 -47 17 -308 137 -580 267 -462 219 -722 358
-1000 534 -97 62 -176 77 -535 103 -373 27 -433 36 -519 72 -77 32 -362 237
-380 272 -7 14 -34 105 -61 201 -67 246 -151 433 -303 674 -133 210 -313 417
-480 550 -40 32 -74 68 -77 80 -20 89 -66 383 -74 479 -11 122 -27 177 -78
250 -30 44 -99 97 -125 97 -10 0 -36 -16 -57 -35z m89 -705 c5 -47 10 -116 10
-153 0 -62 3 -71 28 -95 16 -15 57 -43 92 -62 80 -44 180 -136 233 -215 23
-33 79 -107 126 -165 195 -241 340 -520 421 -808 31 -111 37 -158 20 -164 -18
-6 201 -222 280 -278 97 -67 169 -103 283 -141 82 -28 125 -34 412 -60 382
-35 504 -60 601 -126 100 -68 426 -238 551 -288 149 -60 288 -129 417 -209
218 -134 380 -211 597 -281 239 -77 443 -110 749 -120 102 -4 222 -10 267 -15
79 -9 88 -7 191 25 394 125 842 371 1065 585 241 230 349 542 266 767 -26 71
-144 238 -207 294 -61 54 -210 126 -297 144 -38 8 -118 15 -177 15 -94 0 -117
-4 -195 -31 -186 -65 -317 -148 -461 -291 -197 -195 -252 -342 -252 -670 l0
-126 -34 -51 -33 -52 -50 133 -49 133 32 40 c64 81 77 130 49 185 -20 38 -68
72 -91 63 -16 -6 -17 1 -12 78 8 114 62 343 110 464 113 284 299 561 465 695
204 165 394 230 665 230 171 0 295 -19 414 -61 201 -73 339 -212 399 -400 22
-71 23 -81 10 -112 -12 -30 -12 -36 7 -65 15 -24 32 -35 64 -43 24 -6 43 -17
42 -23 -2 -6 9 -38 24 -72 48 -107 63 -178 62 -309 -1 -229 -89 -432 -178
-409 -31 7 -33 -6 -11 -58 12 -30 20 -36 56 -42 34 -5 49 -2 88 20 60 35 43
19 -44 -41 -141 -97 -169 -140 -139 -214 9 -23 30 -52 46 -65 l30 -23 -29 -91
c-28 -91 -29 -92 -71 -108 -53 -21 -82 -56 -82 -101 0 -33 18 -82 41 -114 10
-13 4 -24 -35 -62 -38 -38 -46 -53 -46 -82 0 -20 5 -45 10 -55 8 -15 5 -27
-15 -55 -13 -21 -27 -53 -31 -74 -3 -20 -17 -82 -30 -139 -49 -212 -54 -352
-19 -581 9 -57 24 -120 35 -141 18 -35 75 -93 99 -101 19 -7 -6 -164 -48 -292
-75 -232 -123 -452 -155 -722 -8 -66 -24 -149 -36 -185 -56 -173 -66 -469 -21
-635 42 -156 114 -279 231 -393 45 -45 61 -69 76 -117 24 -76 24 -164 -1 -235
-16 -46 -18 -75 -14 -180 6 -181 1 -420 -11 -530 -26 -222 -107 -545 -167
-664 -67 -132 -211 -229 -379 -256 -85 -14 -485 17 -424 33 128 32 174 71 298
255 88 129 170 278 226 410 20 45 50 103 67 128 117 170 181 396 156 546 -8
47 -11 50 -175 184 l-168 136 -365 147 c-434 175 -521 223 -656 363 -219 226
-297 501 -292 1018 3 260 -5 281 -113 296 -74 10 -80 -3 -94 -234 -7 -108 -13
-200 -13 -204 -1 -4 -139 -85 -308 -182 -244 -138 -318 -185 -357 -225 -57
-60 -156 -112 -271 -141 -59 -15 -108 -20 -204 -19 -91 1 -302 -17 -761 -65
l-635 -67 -230 22 -231 21 -315 -21 c-173 -12 -329 -19 -346 -15 -28 5 -41 0
-83 -32 -90 -69 -141 -148 -160 -251 -11 -64 -4 -112 35 -253 59 -211 130
-851 140 -1275 3 -115 8 -228 10 -250 l4 -40 -88 -52 c-159 -95 -356 -142
-531 -129 -77 6 -130 24 -130 44 0 5 21 29 47 55 34 34 91 70 206 128 131 67
164 89 188 122 39 54 63 138 55 191 -4 22 -92 340 -196 706 -172 602 -194 691
-240 939 -27 150 -50 277 -50 282 0 5 -6 9 -14 9 -7 0 -97 27 -199 60 -101 33
-189 60 -194 60 -5 0 -19 -17 -31 -39 -18 -32 -22 -54 -22 -132 0 -213 30
-594 65 -829 40 -269 46 -442 30 -898 -16 -494 -5 -443 -119 -550 -81 -76
-182 -136 -283 -170 -67 -22 -96 -26 -210 -26 -72 -1 -134 2 -138 6 -4 4 1 21
12 38 12 21 74 69 183 141 174 114 205 146 229 233 6 23 20 365 32 790 20 721
22 753 42 796 16 35 21 65 22 130 0 76 -4 93 -33 156 -40 84 -86 298 -70 327
6 12 17 17 29 14 24 -6 24 -6 -6 53 -18 35 -27 73 -31 133 l-7 85 -94 123 -95
124 24 15 c43 28 109 94 125 124 9 18 13 42 10 63 l-6 33 112 0 c62 0 129 3
150 6 34 6 37 5 37 -18 0 -42 52 -102 99 -116 36 -11 47 -10 85 7 84 37 98
106 38 193 -28 41 -29 46 -16 76 7 18 17 32 22 32 5 0 19 -23 33 -52 37 -79
95 -106 159 -73 68 35 86 95 50 165 l-20 38 48 27 c36 20 50 24 62 16 41 -31
122 -62 152 -59 28 2 37 10 56 48 25 51 28 99 7 139 -14 28 -14 29 36 60 52
32 69 38 69 22 0 -16 68 -41 113 -41 38 0 49 5 71 31 29 34 29 67 0 137 -14
36 -6 42 20 13 14 -16 23 -17 65 -8 44 8 51 14 67 48 9 22 19 39 22 39 2 0 22
-15 43 -34 82 -74 158 -59 270 53 115 115 124 181 35 259 -42 36 -45 37 -89
18 -38 -16 -72 -51 -86 -88 -7 -18 -40 -46 -96 -83 l-85 -55 -50 33 c-33 21
-50 39 -50 53 0 11 37 73 82 138 l82 118 12 -42 c23 -79 71 -106 140 -80 44
17 155 112 174 150 46 90 31 151 -48 192 -66 36 -101 25 -146 -45 -19 -29 -50
-67 -69 -85 l-34 -33 -6 68 c-17 195 -108 311 -289 368 -101 32 -151 27 -179
-19 -33 -52 -33 -72 -4 -110 19 -26 41 -39 79 -50 107 -31 166 -99 166 -190 0
-46 0 -46 -35 -46 -49 0 -98 -22 -112 -51 -7 -13 -16 -62 -20 -109 l-8 -85
-35 2 c-19 1 -60 5 -91 8 -49 6 -58 5 -83 -16 -38 -33 -44 -87 -18 -172 19
-64 19 -66 1 -54 -39 28 -71 9 -215 -125 -76 -71 -154 -136 -171 -143 -18 -8
-45 -26 -60 -41 -31 -31 -244 -119 -253 -104 -3 5 -80 25 -170 44 -159 35
-166 37 -197 72 -26 30 -31 42 -25 63 15 55 7 93 -27 123 l-32 28 51 228 c61
271 86 331 217 535 93 146 94 149 74 163 -32 23 -70 95 -77 146 -8 55 14 134
61 229 l34 67 -19 25 c-34 42 -70 130 -70 168 0 36 -1 36 -117 97 l-118 61
-112 7 c-62 4 -113 10 -113 14 0 3 64 12 142 20 79 7 151 15 161 19 13 5 -2
17 -63 50 l-80 42 -18 60 c-15 52 -20 59 -42 59 -14 -1 -172 -11 -351 -24
-285 -20 -331 -25 -361 -43 -34 -20 -34 -20 -59 0 l-24 19 57 52 c49 43 59 59
71 106 12 52 18 58 90 113 218 164 338 458 255 627 -15 30 -29 75 -33 100 -9
75 20 304 54 419 38 128 43 261 14 366 -5 15 -1 14 18 -7 45 -50 56 -48 304
74 306 151 400 211 444 283 18 30 37 55 42 55 4 0 38 -23 74 -51 l66 -51 -6
44 c-5 39 -3 46 25 72 56 52 58 103 6 137 l-23 14 25 105 25 105 18 -70 c10
-38 23 -108 29 -155z m-1084 -48 c6 -4 22 -27 34 -52 13 -25 39 -70 60 -100
20 -30 42 -77 49 -105 12 -48 11 -51 -11 -65 -41 -27 -90 -74 -97 -93 -6 -16
-29 136 -57 376 -6 46 -1 54 22 39z m7348 -1626 c17 -23 26 -47 26 -72 0 -30
7 -44 40 -74 33 -31 42 -47 51 -96 15 -78 5 -207 -20 -274 -27 -70 -83 -153
-141 -210 -44 -43 -250 -190 -265 -190 -4 0 21 33 56 72 89 104 106 155 73
219 -8 17 -35 43 -59 58 -24 15 -67 55 -95 89 -48 57 -53 60 -78 51 -46 -18
-71 -49 -78 -98 -4 -25 -12 -54 -19 -64 -11 -16 -17 -14 -70 31 -53 45 -60 49
-92 42 -43 -10 -69 -33 -83 -75 -15 -45 3 -120 40 -166 l29 -37 -37 -24 c-20
-14 -60 -31 -89 -38 -50 -13 -53 -13 -87 14 -29 21 -36 34 -36 60 0 19 -11 49
-26 72 -27 39 -27 40 -15 126 17 128 45 212 76 226 29 14 85 96 85 127 0 11
-7 30 -14 41 -14 20 -10 25 72 96 132 113 115 107 313 116 96 5 229 10 295 11
l122 1 26 -34z m-1603 -4123 c-22 -66 -47 -162 -56 -214 -9 -52 -21 -104 -26
-116 -5 -14 -5 -23 1 -23 15 0 40 -56 40 -91 0 -17 -16 -61 -36 -97 -21 -40
-33 -74 -30 -87 11 -44 68 -113 136 -164 175 -130 358 -215 511 -237 55 -7
127 -21 162 -29 78 -20 204 -81 280 -135 56 -41 57 -42 57 -90 0 -95 -19 -150
-79 -229 -116 -155 -324 -352 -485 -460 -116 -78 -182 -113 -366 -196 -96 -43
-179 -82 -185 -87 -5 -4 4 -8 20 -9 34 -1 81 -17 54 -18 -9 -1 -43 -20 -76
-44 -213 -157 -384 -217 -621 -217 -134 0 -199 11 -336 56 -90 30 -116 50
-109 87 4 22 15 27 91 47 58 14 141 25 247 30 88 5 183 15 212 23 71 20 157
61 201 95 21 16 144 83 274 150 237 121 370 206 440 279 47 48 85 132 94 204
5 48 3 61 -17 92 -13 20 -32 40 -42 43 -11 3 -133 62 -273 130 -239 117 -258
128 -322 192 -44 43 -87 100 -121 159 -45 77 -56 91 -70 83 -15 -8 -22 11 -61
168 -40 161 -43 187 -41 285 2 103 4 109 36 157 45 66 56 130 34 198 -3 8 86
63 241 150 l245 138 8 -52 c8 -46 5 -64 -32 -171z m-4546 -573 c58 -230 135
-480 218 -711 38 -102 55 -176 97 -408 28 -155 48 -286 46 -290 -3 -4 -66 -38
-141 -75 -102 -51 -151 -82 -195 -125 l-60 -57 0 66 c0 36 -14 470 -30 965
-16 495 -30 936 -29 980 l0 80 34 -160 c18 -88 45 -207 60 -265z"/>
<path d="M8410 8570 c-30 -10 -93 -30 -140 -45 -97 -30 -147 -61 -174 -106
-36 -60 -15 -178 34 -194 25 -8 23 -9 265 80 110 40 210 76 222 80 57 16 70
77 30 136 -45 68 -129 85 -237 49z"/>
<path d="M7804 8211 c-69 -33 -145 -110 -164 -165 -16 -50 -2 -101 40 -141 50
-48 76 -41 177 54 86 81 123 130 123 161 0 28 -37 75 -77 97 l-39 22 -60 -28z"/>
<path d="M8283 8225 c-42 -18 -108 -79 -123 -115 -15 -37 0 -87 38 -125 35
-35 75 -29 141 19 54 40 86 94 75 129 -7 25 -38 61 -74 87 -22 16 -29 16 -57
5z"/>
<path d="M2038 8163 c-38 -6 -86 -102 -70 -138 36 -80 163 -74 220 9 31 46 26
85 -13 108 -33 19 -95 28 -137 21z"/>
<path d="M8799 8163 c-30 -5 -79 -74 -79 -114 0 -35 30 -71 78 -93 32 -14 50
-16 93 -9 48 7 56 12 76 48 31 55 30 100 -3 130 -40 37 -93 49 -165 38z"/>
<path d="M1420 8029 c-112 -50 -126 -122 -42 -211 42 -46 83 -39 148 25 69 66
78 101 37 146 -15 17 -44 37 -63 45 -33 13 -40 13 -80 -5z"/>
<path d="M3420 6192 c-9 -4 -32 -19 -51 -34 -28 -22 -47 -28 -83 -28 -27 0
-63 -8 -86 -20 -32 -16 -40 -27 -46 -57 -14 -75 59 -153 143 -153 113 0 270
128 247 203 -8 29 -42 65 -76 83 -15 8 -28 14 -30 13 -2 0 -10 -3 -18 -7z"/>
<path d="M5467 6159 c-173 -56 -267 -135 -267 -222 0 -33 36 -76 76 -93 38
-16 54 -12 94 26 32 29 110 70 135 70 30 0 132 59 163 95 51 57 38 106 -38
145 -22 11 -41 20 -42 19 -2 -1 -56 -18 -121 -40z"/>
<path d="M4115 5852 c-35 -8 -95 -82 -95 -117 0 -34 44 -81 95 -101 25 -9 42
-20 39 -25 -3 -5 -45 -9 -94 -9 -129 0 -165 -24 -158 -105 5 -65 26 -73 228
-84 174 -9 175 -9 222 15 61 31 103 90 96 136 -5 31 -2 35 36 53 33 16 44 29
56 63 21 60 3 88 -73 119 -102 41 -286 70 -352 55z"/>
<path d="M5320 5765 c-64 -23 -127 -120 -110 -170 23 -63 124 -82 289 -52 106
20 115 23 132 51 16 27 17 33 3 65 -35 83 -102 121 -209 120 -38 -1 -86 -7
-105 -14z"/>
<path d="M6024 5666 c-94 -44 -115 -101 -72 -203 l22 -53 -22 -23 c-31 -33
-27 -66 16 -133 41 -63 90 -110 161 -156 39 -24 55 -28 119 -28 68 0 76 2 103
29 57 58 36 88 -149 216 -122 83 -130 91 -115 107 13 14 36 18 126 20 106 3
111 4 130 30 28 37 17 106 -25 153 -57 66 -199 85 -294 41z"/>
<path d="M5277 5403 c-120 -37 -160 -99 -123 -187 22 -52 74 -57 405 -37 l274
17 23 28 c26 30 31 73 12 99 -10 13 -74 28 -265 61 l-251 43 -75 -24z"/>
<path d="M5350 5070 c-70 -17 -104 -99 -61 -151 23 -29 97 -37 322 -38 144 -1
158 1 183 20 36 28 36 82 -2 126 l-27 31 -171 11 c-191 12 -195 12 -244 1z"/>
<path d="M6736 4550 c3 -19 10 -39 15 -44 13 -14 10 2 -7 44 l-14 35 6 -35z"/>
<path d="M3073 4505 c-32 -23 -68 -86 -64 -115 7 -60 106 -125 180 -118 76 8
117 33 134 83 14 39 14 45 -3 71 -23 39 -49 60 -93 79 -46 19 -126 19 -154 0z"/>
<path d="M5219 4411 c-44 -43 -52 -89 -23 -130 34 -47 61 -51 320 -41 316 13
315 13 328 70 4 18 -1 33 -21 55 -26 29 -28 30 -252 57 -306 37 -304 37 -352
-11z"/>
<path d="M2654 4170 c-35 -14 -66 -77 -59 -120 16 -93 77 -136 180 -127 51 5
64 10 87 36 60 68 10 175 -96 206 -55 17 -81 18 -112 5z"/>
<path d="M5128 4117 c-59 -30 -79 -80 -54 -136 22 -48 105 -104 198 -132 90
-27 241 -24 303 6 75 37 110 135 69 193 -16 23 -19 23 -128 16 -122 -7 -194 5
-293 51 l-52 23 -43 -21z"/>
<path d="M5060 3810 c-44 -7 -59 -15 -81 -42 -49 -59 -44 -125 11 -153 14 -7
107 -24 207 -36 156 -20 189 -22 228 -11 59 16 88 37 115 85 19 33 20 42 10
66 -9 23 -24 33 -78 49 -37 12 -88 26 -114 32 -67 14 -234 20 -298 10z"/>
</g>
</svg>
