<?xml version="1.0" standalone="no"?>
<!DOCTYPE svg PUBLIC "-//W3C//DTD SVG 20010904//EN"
 "http://www.w3.org/TR/2001/REC-SVG-20010904/DTD/svg10.dtd">
<svg version="1.0" xmlns="http://www.w3.org/2000/svg"
 width="1024.000000pt" height="1024.000000pt" viewBox="0 0 1024.000000 1024.000000"
 preserveAspectRatio="xMidYMid meet">
<metadata>
Created by potrace 1.10, written by Peter Selinger 2001-2011
</metadata>
<g transform="translate(0.000000,1024.000000) scale(0.100000,-0.100000)"
fill="#000000" stroke="none">
<path d="M5708 8978 l-67 -39 46 -97 c31 -63 46 -109 45 -131 -2 -62 -111
-254 -253 -446 -94 -128 -273 -355 -279 -355 -4 0 -91 111 -195 248 -159 208
-218 276 -374 433 -265 264 -414 368 -542 377 -82 6 -109 -2 -109 -34 0 -43
27 -80 97 -132 73 -55 227 -215 357 -370 152 -182 308 -400 461 -646 l86 -139
-63 -66 c-36 -36 -161 -167 -279 -290 -326 -341 -681 -649 -1168 -1014 -102
-77 -187 -143 -189 -147 -1 -3 7 -15 19 -25 20 -19 22 -19 102 8 108 37 428
193 597 292 393 227 743 474 1015 714 81 72 151 131 155 131 16 0 161 -399
244 -670 35 -113 116 -408 116 -422 0 -4 -47 20 -105 53 l-105 59 -70 -45 -70
-45 50 -100 c27 -55 50 -111 50 -125 0 -71 -151 -386 -295 -616 -193 -308
-410 -627 -588 -864 -307 -409 -718 -858 -1074 -1176 -46 -40 -83 -76 -83 -79
0 -4 9 -15 20 -25 18 -16 25 -17 63 -5 55 16 153 66 287 146 92 54 181 127
549 448 241 210 470 416 508 457 203 221 506 598 923 1149 l65 85 12 -85 c40
-281 65 -710 66 -1115 1 -520 -32 -889 -129 -1445 -46 -265 -128 -535 -220
-727 -62 -129 -147 -229 -236 -279 -48 -26 -61 -29 -143 -28 -143 2 -275 51
-546 202 -81 45 -149 82 -153 82 -3 0 -13 -11 -22 -25 -17 -25 -16 -27 17 -62
19 -19 86 -78 149 -131 228 -190 427 -399 538 -565 27 -39 75 -122 106 -184
64 -126 131 -208 176 -218 138 -30 400 304 574 733 189 465 337 1201 386 1922
18 262 24 845 11 1095 -40 793 -166 1406 -431 2095 -101 264 -154 386 -260
598 l-96 192 440 438 c243 241 450 454 460 474 19 35 19 38 2 82 -10 26 -35
68 -55 94 -68 85 -341 318 -429 364 -75 41 -89 40 -164 -4z"/>
</g>
</svg>
