<?xml version="1.0" standalone="no"?>
<!DOCTYPE svg PUBLIC "-//W3C//DTD SVG 20010904//EN"
 "http://www.w3.org/TR/2001/REC-SVG-20010904/DTD/svg10.dtd">
<svg version="1.0" xmlns="http://www.w3.org/2000/svg"
 width="240.000000pt" height="240.000000pt" viewBox="0 0 240.000000 240.000000"
 preserveAspectRatio="xMidYMid meet">
<metadata>
Created by potrace 1.11, written by Peter Selinger 2001-2013
</metadata>
<g transform="translate(0.000000,240.000000) scale(0.100000,-0.100000)"
fill="#000000" stroke="none">
<path d="M1515 2217 c-2 -7 -6 -66 -9 -132 -3 -66 -5 -120 -6 -120 0 0 -118 0
-261 -1 l-262 -1 6 81 c4 45 9 95 13 111 4 23 1 35 -14 48 -30 28 -39 5 -46
-123 -4 -62 -8 -115 -10 -117 -2 -2 -68 -10 -147 -19 -188 -20 -189 -20 -189
-45 0 -23 -3 -23 180 -4 25 3 69 7 98 10 l52 5 1 -32 c4 -173 76 -351 166
-412 l36 -25 -269 -134 c-148 -73 -283 -138 -301 -144 -17 -7 -36 -21 -43 -32
-26 -50 26 -32 308 109 158 78 302 149 321 157 l34 14 -6 -68 c-4 -37 -7 -91
-7 -120 0 -42 -3 -51 -17 -49 -29 5 -146 -24 -199 -48 -196 -90 -213 -308 -40
-482 63 -63 131 -106 197 -126 22 -6 39 -14 39 -17 0 -13 -189 -126 -286 -172
-87 -42 -112 -49 -163 -49 -65 0 -77 -7 -58 -35 17 -23 96 -23 162 0 113 39
320 160 369 214 11 11 23 21 28 21 5 0 35 -28 67 -62 92 -99 292 -208 440
-242 55 -12 77 -13 87 -5 28 23 13 36 -66 53 -51 11 -128 40 -206 77 -107 52
-137 71 -197 131 l-72 71 51 17 c107 37 234 140 290 235 25 43 29 60 29 120
-1 100 -34 162 -116 215 -67 43 -157 76 -236 86 l-53 7 0 82 c0 103 8 145 28
145 33 0 258 -97 452 -196 174 -88 207 -101 219 -90 11 12 7 19 -29 45 -43 31
-269 144 -456 227 l-103 46 29 24 c52 45 156 260 181 379 7 33 16 63 21 66 5
3 81 4 171 2 163 -4 195 2 184 31 -6 14 -30 16 -181 16 l-175 0 5 78 c2 42 6
93 8 112 3 19 1 44 -3 54 -8 22 -40 31 -46 13z m-28 -319 c-2 -7 -21 -67 -42
-133 -93 -299 -185 -366 -343 -248 -64 48 -121 208 -122 346 l0 47 256 0 c201
0 255 -3 251 -12z m-329 -905 l-3 -126 -40 -3 c-238 -14 -276 -14 -282 3 -9
24 15 103 43 140 45 59 156 111 242 112 l43 1 -3 -127z m251 89 c104 -43 141
-82 156 -165 l7 -37 -68 0 c-38 -1 -120 -4 -181 -7 l-113 -5 0 127 0 128 63
-6 c35 -3 94 -18 136 -35z m151 -260 c0 -20 -62 -102 -113 -150 -73 -68 -217
-134 -217 -100 0 7 -3 63 -6 124 l-7 111 34 5 c19 3 74 6 124 7 49 1 91 3 92
5 7 7 93 5 93 -2z m-392 -64 c1 -29 5 -86 8 -127 l6 -74 -34 6 c-101 16 -218
110 -292 235 -6 9 27 12 152 12 l158 0 2 -52z"/>
</g>
</svg>
