<?xml version="1.0" standalone="no"?>
<!DOCTYPE svg PUBLIC "-//W3C//DTD SVG 20010904//EN"
 "http://www.w3.org/TR/2001/REC-SVG-20010904/DTD/svg10.dtd">
<svg version="1.0" xmlns="http://www.w3.org/2000/svg"
 width="60.000000pt" height="60.000000pt" viewBox="0 0 60.000000 60.000000"
 preserveAspectRatio="xMidYMid meet">
<metadata>
Created by potrace 1.10, written by Peter Selinger 2001-2011
</metadata>
<g transform="translate(0.000000,60.000000) scale(0.100000,-0.100000)"
fill="#000000" stroke="none">
<path d="M338 529 c29 -30 -1 -69 -54 -69 -31 0 -34 3 -34 29 0 17 -6 31 -16
35 -28 11 -28 13 -9 -51 6 -21 3 -23 -35 -23 -25 0 -39 -4 -35 -10 3 -5 22
-10 41 -10 23 0 34 -5 34 -14 0 -8 3 -21 6 -30 5 -14 -5 -16 -70 -16 -43 0
-76 -4 -76 -10 0 -17 46 -22 112 -12 54 9 65 8 76 -6 11 -15 9 -18 -15 -23
-15 -4 -45 -7 -65 -8 -29 -1 -36 -4 -31 -16 3 -9 11 -42 17 -73 9 -48 14 -57
31 -55 11 1 61 4 110 6 l90 4 11 54 c7 30 15 62 19 71 9 23 -29 33 -90 24 -40
-7 -45 -5 -45 12 0 18 10 21 106 27 76 6 102 11 95 18 -7 7 -40 10 -82 8 l-70
-2 3 28 c3 25 7 28 46 31 23 2 42 7 42 13 0 10 -11 12 -53 9 -25 -1 -27 1 -25
32 3 29 0 33 -22 36 -20 3 -23 1 -12 -9z m0 -116 c-3 -24 -8 -28 -40 -31 -28
-2 -38 1 -38 12 0 8 -3 21 -6 30 -5 13 2 16 41 16 45 0 46 -1 43 -27z m72
-128 c0 -23 -3 -25 -50 -25 -47 0 -50 2 -50 25 0 23 3 25 50 25 47 0 50 -2 50
-25z m-120 -4 c0 -21 -19 -31 -61 -31 -22 0 -29 5 -29 19 0 22 13 29 58 30 25
1 32 -3 32 -18z m0 -66 c0 -22 -4 -25 -40 -25 -33 0 -40 3 -40 19 0 19 9 23
68 30 7 0 12 -10 12 -24z m108 8 c-2 -13 -15 -19 -46 -21 -37 -3 -42 -1 -42
17 0 18 6 21 46 21 38 0 45 -3 42 -17z"/>
<path d="M215 131 c-11 -11 -38 -29 -60 -41 -36 -20 -37 -21 -10 -15 41 9 110
48 107 60 -4 17 -17 16 -37 -4z"/>
<path d="M402 105 c49 -42 68 -46 54 -10 -5 14 -76 55 -96 55 -7 0 12 -20 42
-45z"/>
</g>
</svg>
