<?xml version="1.0" standalone="no"?>
<!DOCTYPE svg PUBLIC "-//W3C//DTD SVG 20010904//EN"
 "http://www.w3.org/TR/2001/REC-SVG-20010904/DTD/svg10.dtd">
<svg version="1.0" xmlns="http://www.w3.org/2000/svg"
 width="240.000000pt" height="240.000000pt" viewBox="0 0 240.000000 240.000000"
 preserveAspectRatio="xMidYMid meet">
<metadata>
Created by potrace 1.11, written by Peter Selinger 2001-2013
</metadata>
<g transform="translate(0.000000,240.000000) scale(0.100000,-0.100000)"
fill="#000000" stroke="none">
<path d="M1140 2199 c-127 -15 -189 -60 -254 -181 -30 -57 -33 -68 -21 -78 13
-11 11 -17 -11 -43 -16 -19 -24 -39 -21 -53 3 -16 -3 -26 -21 -35 -56 -31 -87
-99 -44 -99 13 0 13 -2 -1 -18 -24 -26 -21 -40 9 -44 24 -3 23 -5 -25 -42 -28
-21 -51 -42 -51 -46 0 -16 32 -19 53 -5 13 9 44 15 77 15 51 0 62 4 135 55 74
52 80 54 87 35 4 -11 14 -20 22 -20 14 0 51 71 75 143 7 21 19 37 28 37 13 0
14 -46 8 -412 l-6 -413 -91 -90 -90 -90 7 -302 c8 -375 12 -431 29 -412 2 2
34 64 70 137 51 99 72 132 86 132 12 0 37 -25 66 -67 67 -95 136 -183 143
-183 4 0 6 146 6 324 l0 324 -98 123 -97 123 4 136 c3 74 6 251 7 393 2 240 3
259 20 268 15 8 19 21 19 65 0 49 2 55 26 64 25 10 26 12 20 83 -4 49 -13 81
-26 99 -11 15 -24 38 -29 52 -11 28 -36 33 -111 25z m19 -41 c11 -10 14 -10
18 0 9 23 40 13 53 -18 7 -16 18 -35 26 -41 21 -17 19 -125 -2 -137 -11 -6
-18 -27 -22 -61 -3 -39 -8 -51 -21 -51 -9 0 -22 5 -28 11 -19 19 -51 0 -58
-34 -4 -18 -12 -46 -17 -64 -10 -27 -14 -29 -29 -20 -15 9 -25 5 -57 -28 -22
-22 -62 -57 -91 -78 -45 -33 -56 -37 -87 -31 -33 6 -34 7 -18 25 10 12 14 27
10 42 -4 16 0 29 9 37 25 21 18 48 -12 52 -26 3 -24 6 30 37 58 34 83 63 71
82 -3 6 -14 9 -24 6 -9 -2 3 15 27 39 62 62 53 100 -14 57 l-26 -17 18 35 c33
64 86 120 139 144 58 27 86 31 105 13z m125 -1288 c61 -73 95 -130 78 -130 -3
0 -39 33 -79 72 -61 61 -73 78 -73 105 0 18 2 33 3 33 2 0 34 -36 71 -80z
m-160 -22 c-68 -63 -84 -73 -84 -53 0 8 28 42 63 74 50 48 63 56 65 41 2 -12
-14 -35 -44 -62z m-18 -231 l-65 -68 -3 33 c-3 29 6 42 62 104 l65 71 3 -36
c2 -32 -4 -43 -62 -104z m264 -54 c0 -13 -3 -23 -7 -23 -4 0 -40 33 -80 72
-58 58 -73 79 -73 103 0 29 2 27 80 -50 53 -53 80 -87 80 -102z m-192 -55 c3
-16 -96 -159 -114 -165 -17 -6 -9 63 11 93 29 45 78 95 89 91 6 -2 12 -10 14
-19z m148 -81 c41 -36 44 -42 44 -90 l-1 -52 -21 30 c-12 17 -45 53 -75 81
-39 37 -53 58 -53 78 l0 27 31 -18 c17 -10 51 -35 75 -56z"/>
<path d="M1143 2118 c-34 -20 -36 -27 -33 -89 2 -44 -47 -147 -96 -202 -35
-38 -47 -75 -19 -60 8 5 44 42 81 83 37 41 89 92 115 112 26 21 50 45 53 54
10 25 7 59 -6 72 -21 21 -29 13 -26 -23 2 -29 -3 -41 -27 -60 -17 -13 -33 -24
-37 -25 -5 0 -8 23 -8 50 0 48 2 51 35 67 37 18 48 44 18 42 -10 0 -33 -10
-50 -21z"/>
<path d="M1430 1772 c0 -5 8 -16 18 -26 20 -17 37 -66 48 -131 6 -42 19 -63
31 -52 3 4 2 44 -4 89 -9 69 -15 86 -38 105 -26 23 -55 30 -55 15z"/>
<path d="M681 1411 c-11 -27 -26 -73 -32 -102 -14 -65 -18 -474 -5 -474 12 0
13 8 20 227 6 178 23 294 51 348 19 36 19 50 1 50 -7 0 -23 -22 -35 -49z"/>
<path d="M1610 1418 c1 -7 9 -51 19 -98 24 -112 20 -189 -18 -399 -30 -163
-33 -218 -12 -195 15 15 72 295 75 369 2 39 -4 128 -13 200 -13 108 -19 130
-34 133 -9 2 -17 -2 -17 -10z"/>
<path d="M747 1363 c-12 -44 -16 -75 -22 -173 -3 -58 -8 -123 -10 -145 -2 -22
-7 -105 -11 -185 -3 -80 -8 -147 -9 -150 -5 -8 13 -35 19 -29 7 7 14 54 21
154 5 84 9 140 20 275 12 146 16 198 21 233 5 29 2 37 -9 37 -9 0 -18 -8 -20
-17z"/>
</g>
</svg>
