<?xml version="1.0" standalone="no"?>
<!DOCTYPE svg PUBLIC "-//W3C//DTD SVG 20010904//EN"
 "http://www.w3.org/TR/2001/REC-SVG-20010904/DTD/svg10.dtd">
<svg version="1.0" xmlns="http://www.w3.org/2000/svg"
 width="1024.000000pt" height="1024.000000pt" viewBox="0 0 1024.000000 1024.000000"
 preserveAspectRatio="xMidYMid meet">
<metadata>
Created by potrace 1.10, written by Peter Selinger 2001-2011
</metadata>
<g transform="translate(0.000000,1024.000000) scale(0.100000,-0.100000)"
fill="#000000" stroke="none">
<path d="M4125 10030 c-84 -43 -132 -87 -171 -158 -1 -2 -17 5 -37 14 -33 16
-39 15 -153 -11 -409 -94 -768 -250 -1062 -459 -110 -78 -172 -116 -190 -116
-63 -1 -194 -85 -247 -159 -16 -24 -49 -61 -72 -83 -24 -23 -53 -63 -67 -89
l-24 -48 -21 23 c-31 33 -90 50 -144 42 -37 -6 -54 -16 -97 -61 -63 -68 -92
-130 -98 -215 -4 -54 -1 -74 18 -109 l21 -43 -86 -87 c-149 -150 -251 -303
-326 -485 -36 -88 -89 -270 -89 -309 0 -14 -4 -16 -18 -8 -25 13 -105 -33
-156 -89 -68 -76 -116 -216 -102 -302 5 -32 1 -46 -28 -88 -37 -54 -53 -119
-42 -172 5 -24 -1 -42 -24 -79 -126 -205 -171 -525 -104 -749 18 -61 67 -162
96 -199 18 -24 18 -25 -6 -50 -37 -40 -46 -65 -46 -126 0 -61 7 -80 53 -137
27 -34 29 -40 17 -67 -15 -37 -6 -110 20 -161 35 -69 92 -110 199 -142 25 -7
47 -19 49 -27 3 -10 0 -12 -11 -8 -57 22 -83 19 -124 -15 -47 -37 -60 -73 -44
-121 19 -57 57 -83 151 -104 l84 -20 41 -69 c48 -83 193 -233 285 -294 55 -37
124 -71 215 -105 15 -5 -3 -13 -70 -31 -134 -37 -151 -63 -93 -138 31 -39 29
-38 -35 18 -69 61 -126 148 -148 231 -6 22 -19 56 -30 76 -19 39 -103 119
-124 119 -7 0 -34 -16 -60 -36 l-47 -37 7 -70 c9 -95 46 -209 92 -284 68 -112
192 -225 298 -273 59 -26 60 -28 72 -80 16 -67 53 -121 114 -166 45 -33 54
-35 166 -45 167 -14 159 -12 166 -61 5 -34 15 -52 50 -84 l43 -42 215 -7 c217
-7 252 -3 289 30 13 12 28 7 110 -39 338 -189 783 -246 1179 -151 67 16 81 12
81 -25 -1 -74 46 -695 64 -840 16 -137 20 -209 15 -275 -11 -135 -10 -456 0
-493 l10 -32 -107 5 c-215 10 -406 16 -678 21 l-279 5 -230 -82 c-126 -44
-256 -85 -287 -90 -32 -5 -84 -13 -116 -18 -58 -8 -93 -22 -122 -46 -8 -7 -50
-20 -93 -29 -88 -18 -129 -36 -166 -76 l-26 -27 -595 -47 c-340 -28 -608 -53
-625 -60 -40 -17 -56 -38 -62 -84 -5 -34 -2 -41 28 -64 57 -43 229 -43 763 -2
242 19 444 33 449 31 5 -1 -23 -27 -61 -56 -76 -58 -147 -144 -157 -191 -7
-32 15 -84 43 -98 40 -21 165 -21 257 -1 71 16 224 27 740 54 358 19 678 34
713 35 l62 0 -55 -67 c-93 -112 -195 -348 -195 -449 0 -16 -34 -58 -104 -132
-119 -124 -134 -155 -116 -232 12 -51 48 -100 74 -100 8 0 27 5 42 10 19 8 30
8 38 0 31 -31 88 13 182 140 119 163 275 295 454 385 70 35 1319 455 1354 455
9 0 16 -6 16 -13 0 -7 13 -33 28 -58 21 -33 60 -65 150 -126 154 -103 299
-177 475 -242 76 -28 166 -66 200 -83 140 -70 409 -142 612 -163 33 -3 155
-20 270 -38 255 -39 314 -41 347 -10 l23 22 105 -30 c118 -34 184 -35 228 -2
31 23 60 99 46 120 -5 8 -74 38 -154 67 -286 105 -552 223 -665 296 -42 26
-107 53 -215 85 -228 70 -228 78 5 72 265 -6 300 -17 665 -200 368 -185 586
-270 889 -347 67 -17 157 -44 202 -60 44 -16 98 -31 120 -35 61 -11 132 11
183 56 49 43 58 46 77 23 27 -33 224 12 252 57 25 40 -22 132 -83 164 -15 8
-74 24 -131 36 -203 42 -467 138 -659 240 -52 28 -152 90 -223 138 -70 47
-196 132 -280 189 -146 98 -150 102 -114 102 21 0 436 -14 922 -30 l884 -30
63 37 c53 32 64 44 72 75 7 26 6 46 -2 63 -25 55 -21 55 -903 83 -705 23 -819
29 -835 43 -11 9 -66 32 -124 52 -95 33 -207 52 -1184 202 -594 91 -1081 167
-1082 168 -1 1 -14 58 -28 127 -21 101 -32 222 -61 640 -19 283 -35 540 -36
570 -1 55 11 200 17 200 39 0 875 145 914 159 126 44 209 90 320 177 30 24 67
53 82 64 16 12 88 39 160 59 116 33 136 37 153 25 45 -32 141 -5 172 46 12 22
45 40 142 81 176 73 266 119 338 174 89 66 189 179 224 253 27 57 33 63 54 58
46 -12 125 37 125 77 0 11 -16 45 -35 77 -19 32 -35 63 -35 70 0 6 30 43 67
82 l68 69 70 -6 c62 -6 72 -5 88 13 18 19 17 23 -8 106 l-26 86 27 68 c53 132
41 242 -35 339 -31 39 -40 59 -45 108 l-7 60 44 23 c58 30 141 112 187 184 97
149 113 341 38 450 l-19 27 75 149 c89 178 111 245 103 319 -6 60 -42 130 -83
162 l-25 20 12 261 c10 205 10 281 0 354 l-12 92 30 63 c41 87 56 183 42 267
-17 93 -45 161 -90 219 -64 82 -79 95 -112 102 l-30 6 6 61 c22 201 -87 355
-287 408 -56 14 -121 1 -170 -33 l-28 -21 -60 55 c-116 107 -340 240 -502 298
-55 19 -67 28 -71 49 -3 13 -1 33 4 42 13 24 2 62 -24 86 -42 38 -182 116
-205 114 l-23 -2 26 34 c44 58 29 122 -43 171 -39 27 -62 23 -119 -21 -17 -13
-34 -24 -36 -24 -3 0 -53 33 -111 74 -85 60 -110 73 -133 68 -26 -4 -157 -83
-168 -101 -2 -5 -53 11 -112 35 -231 92 -503 154 -768 174 -136 11 -165 10
-304 -9 -200 -27 -196 -27 -211 9 -18 44 -93 106 -156 130 -89 33 -124 35
-192 10 -53 -19 -65 -29 -88 -68 -32 -54 -29 -110 8 -149 24 -26 29 -27 173
-8 49 6 43 3 -69 -30 -138 -41 -174 -95 -130 -189 28 -59 48 -61 190 -21 248
70 316 84 446 96 231 20 496 -3 724 -61 145 -38 409 -136 474 -178 58 -37 81
-30 152 43 34 36 67 65 72 65 6 0 17 -9 24 -21 11 -18 11 -24 -2 -38 -11 -12
-14 -28 -9 -56 6 -38 38 -74 102 -117 l26 -18 -58 0 c-81 0 -149 -24 -170 -60
-26 -43 -22 -87 11 -119 27 -27 30 -27 266 -45 219 -16 243 -20 270 -41 56
-41 75 -48 105 -35 23 9 38 6 102 -21 96 -40 187 -94 285 -167 90 -66 130
-110 216 -235 59 -87 104 -127 142 -127 34 0 103 39 115 66 10 22 8 36 -9 81
-16 42 -18 58 -9 69 27 33 78 1 105 -65 16 -39 15 -45 -5 -127 -20 -77 -20
-89 -7 -109 8 -13 30 -25 49 -29 33 -6 35 -9 39 -54 3 -26 4 -48 3 -50 -1 -1
-55 23 -119 53 -65 30 -128 55 -141 55 -14 0 -40 -14 -60 -31 -38 -34 -46 -71
-20 -105 22 -29 18 -34 -15 -23 -20 8 -45 7 -84 -1 -98 -20 -156 -76 -163
-157 -7 -64 16 -85 95 -91 85 -5 153 32 208 115 l41 62 64 -43 c35 -24 94 -75
131 -113 59 -60 70 -78 97 -157 61 -172 77 -379 46 -562 -23 -132 -21 -128
-56 -101 -27 19 -43 22 -134 22 -89 0 -107 -3 -131 -21 -68 -50 -89 -115 -52
-158 21 -24 38 -30 149 -49 121 -20 127 -20 153 -3 15 9 31 27 35 39 l8 22 7
-23 c13 -41 56 -82 86 -82 22 0 30 -6 38 -27 8 -24 2 -42 -34 -114 -90 -180
-232 -332 -408 -434 -59 -34 -86 -76 -86 -132 0 -24 -2 -43 -4 -43 -2 0 -23 7
-47 15 -53 19 -128 22 -158 5 -31 -16 -64 -93 -56 -129 10 -48 37 -64 120 -70
72 -6 76 -8 120 -51 117 -114 165 -295 115 -428 -31 -80 -24 -140 21 -188 l20
-21 -30 -6 c-37 -8 -109 -71 -113 -100 -5 -31 10 -63 38 -78 13 -7 24 -15 24
-18 0 -3 -17 -17 -37 -31 -21 -14 -51 -37 -68 -52 l-31 -27 -80 17 c-60 13
-87 15 -111 7 -73 -24 -97 -78 -64 -144 12 -22 21 -57 21 -78 0 -21 7 -49 16
-61 13 -19 24 -22 80 -22 74 0 77 -6 43 -77 -13 -26 -38 -55 -65 -74 l-44 -30
-46 40 c-95 83 -253 111 -344 61 -50 -29 -110 -101 -110 -134 0 -42 27 -53
163 -66 70 -7 126 -14 125 -16 -8 -7 -253 -114 -262 -114 -6 0 -63 36 -125 81
-133 94 -149 96 -224 26 -99 -92 -61 -183 78 -188 20 0 -1 -9 -59 -26 l-88
-25 -50 50 c-86 87 -214 141 -292 125 -54 -12 -77 -45 -78 -113 0 -48 3 -57
31 -82 21 -19 42 -28 66 -28 41 0 53 -15 31 -39 -10 -11 -16 -35 -16 -63 l0
-45 -132 -41 c-191 -59 -297 -88 -430 -117 -151 -32 -412 -75 -458 -75 -37 0
-37 0 -63 78 -62 179 -72 277 -60 592 l8 216 60 68 c120 136 556 482 875 693
91 61 419 262 730 448 785 469 867 531 815 611 -22 34 -101 70 -119 55 -10 -8
-16 -8 -24 2 -9 10 1 26 44 68 31 30 78 80 105 112 27 32 72 74 100 93 l51 34
-7 -28 c-12 -56 57 -106 133 -94 36 5 88 57 98 98 15 57 -85 123 -150 100 -17
-6 -34 -15 -38 -21 -4 -5 -8 2 -8 16 0 30 -68 99 -98 99 -37 0 -593 -190 -698
-239 -288 -133 -561 -309 -779 -500 -38 -34 -139 -114 -223 -177 -151 -115
-170 -134 -181 -186 -5 -23 -81 -80 -436 -327 -343 -239 -431 -295 -433 -281
-2 10 2 45 7 76 29 156 35 366 23 894 -6 288 -9 526 -7 528 2 2 13 -3 24 -10
16 -9 26 -10 39 -2 9 6 68 80 129 165 319 438 326 451 259 513 -20 19 -36 44
-36 55 0 30 -40 70 -85 86 -39 13 -42 12 -110 -23 -43 -23 -100 -66 -147 -112
-71 -68 -78 -73 -78 -49 0 41 -29 128 -57 170 -25 38 -83 89 -101 89 -27 0
-42 57 -66 257 l-26 210 105 233 c77 170 121 255 165 316 66 91 80 120 80 168
0 38 -33 91 -72 114 -25 15 -29 14 -63 -4 -68 -36 -197 -222 -260 -375 -18
-44 -35 -82 -37 -85 -3 -2 -35 23 -73 56 -37 33 -74 60 -82 60 -8 0 -32 -14
-54 -32 -50 -41 -51 -71 -4 -207 52 -148 53 -146 -56 -100 -186 81 -409 131
-582 133 l-119 1 -29 -33 c-35 -39 -38 -81 -6 -115 18 -20 80 -40 347 -111
275 -73 337 -86 403 -86 67 0 77 -2 77 -17 0 -34 -108 -590 -116 -601 -1 -2
-18 2 -37 9 -32 11 -40 9 -122 -32 -96 -48 -122 -82 -110 -140 9 -42 66 -99
99 -99 33 0 88 23 123 50 14 11 28 18 30 16 3 -3 -7 -69 -21 -148 -57 -314
-81 -656 -67 -938 4 -85 4 -165 -1 -178 -4 -13 -8 -72 -8 -131 0 -160 0 -160
-128 -205 -69 -25 -145 -43 -216 -53 l-108 -14 -57 53 c-31 29 -152 143 -268
252 -181 170 -214 205 -219 235 -4 20 -20 66 -36 103 -15 37 -28 74 -28 83 0
9 -27 75 -60 147 -37 81 -60 144 -60 167 -1 20 -7 61 -14 91 -7 32 -10 65 -5
77 4 11 11 161 15 331 l7 311 -27 55 c-33 67 -85 111 -120 102 -19 -5 -26 -1
-31 14 -16 51 -94 87 -162 74 -43 -8 -135 -87 -177 -153 -24 -38 -27 -53 -24
-93 6 -56 38 -98 75 -98 39 0 104 39 178 107 38 35 71 59 73 54 2 -5 -6 -91
-17 -191 -12 -99 -21 -182 -21 -184 0 -2 -21 -4 -47 -3 -40 0 -50 -4 -76 -33
-27 -30 -29 -38 -24 -86 7 -64 34 -128 74 -175 17 -18 33 -45 36 -59 63 -250
77 -294 100 -319 16 -16 37 -66 57 -131 57 -184 124 -303 272 -477 71 -84 127
-153 124 -153 -23 0 -101 51 -206 135 -231 185 -443 319 -726 457 -207 101
-245 110 -290 67 -43 -41 -33 -82 38 -162 l63 -71 -69 46 c-60 40 -72 45 -98
37 -66 -18 -98 -77 -70 -128 9 -16 82 -86 162 -153 l144 -123 -44 -9 c-25 -4
-87 -19 -139 -32 -205 -53 -441 -198 -472 -291 -9 -29 -7 -40 13 -81 15 -30
30 -48 44 -50 12 -2 79 26 151 62 143 72 289 125 435 161 54 13 136 36 184 52
97 31 71 37 220 -53 103 -63 222 -111 343 -136 53 -11 155 -33 227 -50 119
-28 136 -30 180 -19 27 7 57 20 66 28 16 14 29 14 144 -2 213 -30 402 -6 579
73 64 29 116 45 145 46 59 3 105 36 126 93 16 40 16 49 -1 126 -36 171 -30
576 16 982 28 252 46 362 67 393 11 16 20 57 24 112 13 160 34 329 41 336 4 4
7 2 7 -4 0 -7 17 -29 38 -50 l38 -37 35 -475 c30 -424 34 -518 34 -875 0 -270
-5 -457 -15 -575 -8 -96 -15 -212 -15 -257 0 -72 3 -84 24 -107 14 -14 39 -31
57 -38 23 -8 36 -22 47 -50 22 -56 54 -52 195 24 146 79 273 164 682 455 389
278 410 295 410 337 1 29 17 43 207 186 l205 155 293 126 c286 123 293 126
272 94 -11 -17 -41 -43 -65 -55 -51 -27 -89 -73 -103 -123 -9 -33 -51 -62
-666 -459 -810 -521 -923 -604 -1238 -909 l-130 -127 -18 -108 c-39 -245 -12
-611 73 -971 27 -116 34 -186 75 -756 38 -515 51 -658 76 -792 28 -152 29
-167 14 -194 -21 -42 -19 -86 8 -116 21 -24 37 -27 422 -80 303 -42 458 -69
640 -110 146 -34 264 -55 300 -55 141 0 340 -62 490 -153 73 -44 92 -61 119
-107 25 -43 39 -56 66 -63 19 -5 59 -26 87 -48 29 -22 244 -148 478 -281 234
-132 424 -242 422 -244 -2 -2 -106 34 -230 81 -164 60 -273 109 -390 171 -203
109 -292 153 -385 189 l-72 28 -26 -24 c-44 -41 -144 -34 -417 29 l-228 53
-82 -26 c-105 -34 -131 -60 -121 -121 6 -40 4 -44 -14 -44 -29 0 -79 -45 -85
-76 -3 -15 -1 -39 4 -54 9 -24 38 -38 295 -135 158 -60 282 -111 277 -112 -5
-2 -104 17 -220 41 -179 38 -224 51 -299 89 -113 57 -195 89 -314 123 -85 24
-101 33 -153 80 -55 51 -203 134 -238 134 -9 0 -28 26 -44 60 l-29 61 -236 -7
c-336 -8 -411 -16 -506 -53 -43 -16 -257 -96 -474 -176 -291 -108 -423 -162
-502 -206 -58 -32 -109 -59 -112 -59 -18 0 1 36 59 111 89 115 157 181 242
237 40 26 73 50 73 54 0 4 -16 8 -36 10 l-37 3 59 66 c32 36 86 83 119 105
156 102 191 174 106 219 -16 8 -47 17 -68 21 -97 15 -317 -144 -418 -303 -22
-34 -44 -69 -50 -77 -9 -14 -30 -13 -205 14 -107 16 -226 30 -263 30 -71 0
-171 28 -217 60 -23 16 -43 17 -290 9 -146 -4 -288 -8 -317 -8 l-51 -1 11 35
10 34 126 3 c125 3 126 3 95 20 -24 13 -47 16 -100 12 -55 -4 -76 -2 -103 13
-41 21 -50 39 -24 47 10 3 203 49 428 102 l410 96 115 -8 c191 -14 215 -12
264 23 l43 31 302 9 c280 8 303 10 328 29 16 12 31 32 35 45 3 13 16 58 29 99
12 41 28 102 35 135 15 70 18 251 5 321 -5 27 -17 237 -27 466 -16 394 -16
420 0 450 17 32 16 39 -27 249 l-43 216 27 159 c33 190 36 273 10 330 -15 32
-17 51 -11 85 8 42 1 109 -16 154 -19 49 -300 575 -330 616 -86 118 -216 197
-356 214 -51 6 -63 4 -148 -34 -69 -31 -96 -38 -110 -31 -13 7 -63 -2 -180
-30 -160 -40 -162 -40 -353 -40 -166 1 -197 3 -226 19 -33 18 -36 18 -120 -5
-47 -12 -123 -33 -169 -45 -77 -20 -84 -24 -102 -58 -19 -39 -17 -81 9 -129
24 -44 84 -54 161 -27 45 16 139 19 264 8 l77 -6 -348 -132 c-191 -73 -357
-136 -368 -140 -12 -5 -6 4 14 22 32 27 35 35 35 83 l1 53 -90 36 c-119 48
-193 90 -292 167 -92 72 -148 133 -158 172 -3 14 -15 38 -26 53 -29 41 -41
194 -27 340 l11 117 36 6 c20 3 71 8 113 12 66 6 80 10 103 34 32 33 44 100
25 135 -15 27 -76 55 -121 55 -39 0 -207 -88 -215 -113 -4 -14 -12 -17 -30
-13 -50 13 -73 -3 -110 -76 -34 -68 -35 -69 -67 -62 -41 9 -49 21 -41 64 4 19
7 65 7 103 0 59 2 67 19 67 33 0 86 27 102 53 22 33 13 53 -77 165 -158 196
-206 372 -161 590 21 104 95 259 172 360 70 92 86 125 77 159 -3 13 1 36 10
53 8 16 15 38 15 50 0 20 1 20 22 6 13 -9 43 -16 69 -16 69 0 79 17 79 128 0
212 46 422 129 598 89 186 196 325 339 441 182 147 213 193 178 262 -22 41
-88 85 -115 76 -23 -7 -28 13 -12 44 10 18 102 113 106 109 1 -2 10 -19 20
-38 10 -19 26 -41 36 -48 13 -9 19 -25 19 -49 0 -48 24 -95 60 -116 44 -26
118 -32 162 -14 48 20 58 54 34 117 -30 78 -30 86 4 147 94 166 224 283 501
449 233 140 538 265 798 328 54 13 121 36 149 50 28 14 53 26 55 26 3 0 7 -12
11 -27 12 -54 46 -82 108 -89 55 -6 58 -5 89 25 31 31 32 34 26 98 -4 43 -3
71 4 80 14 16 75 17 135 1 43 -12 47 -11 64 9 10 13 23 45 30 73 24 99 -37
159 -169 167 -52 3 -74 -1 -106 -17z m4155 -1900 c4 0 10 -9 13 -20 5 -18 4
-18 -24 2 -32 24 -37 33 -13 24 9 -3 19 -6 24 -6z m-7022 -828 c10 -31 10 -32
-9 -21 -12 6 -18 17 -15 26 3 8 6 20 6 25 0 16 6 7 18 -30z m6928 -1233 c-42
-96 -61 -128 -84 -142 l-29 -17 -82 67 -81 68 47 10 c73 17 134 48 210 105 37
28 69 47 70 43 2 -5 -21 -65 -51 -134z m-5667 -184 c30 -10 70 -28 89 -41 19
-13 39 -24 43 -24 5 0 9 -4 9 -9 0 -19 -36 -17 -70 3 -65 38 -155 98 -140 93
8 -2 39 -12 69 -22z m316 -196 c30 -23 55 -43 55 -46 0 -2 -27 11 -60 29 -33
18 -60 39 -60 46 0 18 6 16 65 -29z m879 -834 c48 -54 91 -115 117 -167 23
-46 47 -87 54 -93 7 -5 16 -23 19 -39 4 -16 20 -41 36 -56 16 -15 32 -40 36
-56 4 -16 12 -36 19 -44 21 -27 65 -127 65 -149 0 -12 7 -51 16 -88 16 -62 16
-71 -4 -197 -12 -72 -23 -155 -26 -185 -3 -29 -8 -56 -11 -59 -18 -18 -186
-31 -400 -31 l-240 -1 65 37 c111 61 170 129 170 194 0 24 -10 42 -43 74 -52
53 -73 51 -166 -12 -35 -23 -71 -43 -80 -43 -55 0 -181 -96 -181 -138 0 -7 29
-34 65 -59 35 -26 63 -48 62 -49 -1 -2 -56 7 -123 19 l-120 22 -110 81 c-106
78 -109 81 -112 122 -5 61 -38 82 -117 75 -75 -6 -213 17 -283 48 l-53 24 348
248 c288 204 369 267 467 363 154 150 247 209 371 234 78 15 79 15 159 -75z
m-757 -82 c-16 -16 -18 -16 -34 0 -16 16 -15 17 17 17 32 0 33 -1 17 -17z
m-317 -237 c0 -7 -439 -316 -448 -316 -9 0 -92 108 -92 120 0 3 28 18 63 32
34 15 104 45 155 67 113 50 322 113 322 97z m-690 -391 c44 -55 50 -67 40 -85
-20 -37 -59 -25 -122 36 -36 35 -55 60 -51 70 6 15 50 43 70 44 6 0 34 -29 63
-65z m235 -215 c3 -5 1 -10 -4 -10 -6 0 -11 5 -11 10 0 6 2 10 4 10 3 0 8 -4
11 -10z"/>
<path d="M3140 4483 c-16 -2 -62 -42 -127 -111 -121 -126 -126 -141 -60 -197
38 -33 46 -36 89 -32 47 4 48 4 54 -30 8 -43 49 -76 84 -68 41 10 245 142 282
182 72 81 75 147 8 207 -46 41 -54 43 -95 16 -27 -17 -31 -18 -46 -4 -38 34
-113 49 -189 37z"/>
<path d="M3650 4333 c-14 -3 -49 -28 -77 -56 -51 -50 -53 -53 -53 -106 0 -35
8 -70 21 -98 38 -79 81 -80 152 -4 75 80 97 141 71 196 -13 29 -71 79 -85 74
-2 -1 -15 -4 -29 -6z"/>
<path d="M4025 9463 c-24 -6 -50 -28 -76 -64 -20 -28 -59 -192 -59 -249 0 -44
30 -94 69 -115 43 -22 122 -20 154 5 22 18 26 29 30 102 3 46 10 102 15 126
14 65 -2 114 -54 162 -24 22 -47 39 -51 39 -5 -1 -17 -4 -28 -6z"/>
<path d="M4760 9463 c-33 -13 -106 -77 -132 -114 -45 -68 -48 -160 -7 -228 38
-62 73 -55 171 37 65 62 118 141 118 180 0 30 -35 85 -69 108 -36 24 -53 28
-81 17z"/>
<path d="M5493 9438 c-21 -18 -40 -33 -41 -34 -2 -2 -17 -60 -32 -131 -24
-106 -27 -132 -17 -153 15 -31 80 -63 131 -64 47 -1 75 30 83 95 3 24 12 53
19 64 25 40 37 111 24 149 -13 39 -83 106 -111 106 -10 0 -35 -14 -56 -32z"/>
<path d="M3310 9333 c-37 -7 -55 -27 -93 -106 -47 -98 -61 -163 -54 -261 12
-180 68 -259 150 -213 72 40 103 100 88 169 -11 48 4 129 36 195 42 88 32 154
-31 192 -38 23 -64 29 -96 24z"/>
<path d="M5839 9095 c-77 -50 -166 -154 -175 -203 -6 -32 6 -92 24 -119 4 -7
37 -15 72 -18 l65 -6 84 81 c91 90 127 151 116 200 -7 30 -85 110 -107 109 -7
0 -43 -20 -79 -44z"/>
<path d="M2914 9056 c-48 -47 -54 -75 -33 -151 14 -48 81 -120 105 -111 8 3
29 6 44 6 24 0 34 8 54 43 37 63 41 97 18 150 -20 46 -93 107 -128 107 -9 0
-36 -20 -60 -44z"/>
<path d="M6281 8800 c-95 -37 -106 -113 -28 -197 11 -13 19 -24 16 -26 -2 -1
-46 -22 -98 -47 -51 -25 -100 -55 -108 -67 -13 -19 -12 -27 6 -67 42 -97 105
-120 198 -75 53 26 128 99 137 134 9 37 -13 76 -57 101 l-38 21 30 6 c38 8
110 72 127 114 19 44 3 77 -51 103 -49 24 -75 24 -134 0z"/>
<path d="M2855 8701 c-23 -5 -35 -17 -55 -56 -21 -42 -25 -64 -25 -135 0 -78
3 -90 34 -148 44 -80 90 -117 145 -117 50 1 93 21 119 57 20 26 20 27 -1 66
-25 49 -52 137 -52 171 0 42 -40 111 -83 142 -22 16 -43 28 -46 28 -3 -1 -19
-4 -36 -8z"/>
<path d="M3381 8578 c-88 -71 -76 -205 23 -252 76 -36 151 31 151 136 0 53
-22 89 -75 126 -43 29 -50 28 -99 -10z"/>
<path d="M6785 8394 c-65 -23 -125 -51 -132 -61 -35 -47 -27 -121 18 -166 28
-28 34 -29 88 -24 32 2 77 15 101 27 59 30 137 106 145 140 9 40 -15 81 -62
106 l-38 21 -120 -43z"/>
<path d="M7360 8350 c-58 -27 -107 -74 -121 -118 -15 -45 4 -111 41 -147 24
-23 35 -26 62 -21 59 11 209 140 222 191 19 77 -111 137 -204 95z"/>
<path d="M2510 8226 c-44 -16 -80 -68 -80 -113 0 -60 46 -94 182 -137 136 -42
153 -44 172 -13 56 88 4 216 -102 251 -68 23 -132 27 -172 12z"/>
<path d="M1998 8209 c-10 -5 -31 -29 -47 -53 -36 -52 -33 -76 17 -128 46 -48
108 -73 162 -64 54 9 149 56 156 78 16 52 -48 136 -125 163 -49 17 -137 20
-163 4z"/>
<path d="M6387 8210 c-36 -11 -124 -85 -142 -121 -36 -69 0 -119 88 -119 61 0
120 26 167 75 49 50 46 87 -10 137 -44 39 -55 42 -103 28z"/>
<path d="M5364 8009 c-17 -5 -58 -37 -94 -74 l-63 -66 6 -49 c7 -62 41 -128
72 -142 31 -14 72 2 120 47 115 105 130 202 43 269 -38 28 -39 28 -84 15z"/>
<path d="M6830 7989 c-69 -25 -167 -94 -197 -138 -41 -60 -20 -139 44 -166 25
-11 40 -7 148 39 143 61 175 83 205 143 29 58 20 91 -30 115 -57 27 -109 29
-170 7z"/>
<path d="M3667 7947 c-70 -47 -78 -57 -92 -100 -16 -53 -8 -84 31 -118 50 -44
121 -23 203 59 56 56 70 96 47 140 -16 31 -73 73 -97 71 -8 0 -49 -24 -92 -52z"/>
<path d="M3242 7906 c-18 -6 -70 -42 -116 -81 -97 -81 -118 -122 -92 -174 35
-67 102 -89 169 -55 52 27 153 121 171 159 29 61 6 110 -69 148 -24 12 -36 13
-63 3z"/>
<path d="M6391 7841 c-63 -66 -78 -73 -155 -65 -63 6 -66 6 -95 -24 -25 -25
-31 -39 -31 -75 0 -39 5 -49 33 -73 115 -97 242 -83 370 40 91 87 94 164 8
222 -53 36 -78 32 -130 -25z"/>
<path d="M7150 7794 c-120 -32 -163 -72 -164 -154 -1 -72 23 -89 121 -90 l73
0 -6 -27 c-3 -18 2 -39 15 -59 16 -27 26 -32 73 -37 61 -6 88 7 118 56 26 42
25 53 -5 83 -28 28 -30 34 -12 34 25 0 57 40 57 70 0 41 -71 114 -125 129 -51
14 -77 13 -145 -5z"/>
<path d="M7900 7799 c-61 -12 -91 -37 -115 -93 -17 -43 -18 -50 -4 -74 24 -43
77 -57 159 -43 55 10 76 19 101 44 59 61 58 107 -4 146 -43 26 -80 32 -137 20z"/>
<path d="M2015 7651 c-78 -20 -157 -77 -186 -133 -38 -75 -9 -178 51 -178 33
0 185 67 243 107 78 54 100 151 41 185 -36 21 -107 30 -149 19z"/>
<path d="M7636 7531 c-4 -6 -15 -11 -24 -11 -9 0 -29 -12 -44 -27 -43 -41 -38
-76 20 -133 58 -58 107 -74 211 -67 68 4 77 7 103 36 22 25 27 38 22 59 -12
52 -52 109 -91 128 -45 21 -187 32 -197 15z"/>
<path d="M7162 7193 c-103 -47 -122 -71 -103 -133 19 -65 50 -90 110 -90 156
0 293 177 181 235 -59 31 -99 28 -188 -12z"/>
<path d="M7531 7158 c-42 -14 -85 -77 -85 -124 0 -40 29 -74 85 -100 37 -16
50 -17 152 -6 122 13 137 21 137 76 0 41 -43 110 -86 137 -42 26 -149 35 -203
17z"/>
<path d="M6605 7089 c-93 -35 -115 -52 -115 -88 0 -21 13 -37 59 -71 33 -25
57 -49 54 -53 -11 -17 171 5 203 24 28 17 59 69 66 109 10 61 -36 97 -129 105
-48 4 -72 -1 -138 -26z"/>
<path d="M2279 7043 c-9 -2 -23 -19 -32 -38 -16 -33 -15 -38 2 -95 40 -128
122 -217 261 -283 63 -30 101 -42 147 -45 57 -4 64 -2 87 23 34 37 43 86 21
122 -9 16 -53 49 -103 78 -47 28 -141 94 -208 148 -114 91 -134 101 -175 90z"/>
<path d="M3798 7003 c-32 -5 -78 -56 -78 -86 0 -12 9 -36 19 -54 17 -27 27
-32 76 -38 55 -7 58 -6 91 26 40 39 50 68 35 98 -12 22 -81 62 -103 60 -7 -1
-25 -4 -40 -6z"/>
<path d="M6087 6980 c-60 -18 -87 -64 -88 -146 -1 -77 18 -98 87 -92 39 3 60
12 92 38 55 43 86 107 72 144 -16 43 -107 74 -163 56z"/>
<path d="M1624 6961 c-54 -14 -201 -99 -233 -136 -55 -63 -39 -151 33 -175 29
-9 48 -5 167 36 141 49 181 75 205 131 20 47 17 88 -9 119 -19 22 -33 28 -78
30 -30 2 -68 -1 -85 -5z"/>
<path d="M3440 6779 c-70 -32 -99 -61 -100 -97 0 -33 24 -75 60 -106 51 -43
101 -33 174 34 59 55 73 88 51 129 -18 35 -69 71 -100 70 -11 0 -49 -14 -85
-30z"/>
<path d="M6110 6661 c-121 -37 -178 -109 -167 -208 9 -86 64 -105 160 -57 100
51 157 110 157 165 0 27 -81 109 -106 108 -11 0 -30 -4 -44 -8z"/>
<path d="M5588 6616 c-68 -20 -147 -118 -148 -182 0 -40 30 -93 67 -119 69
-46 122 -27 157 55 8 19 26 46 41 60 33 31 55 72 55 103 0 54 -102 103 -172
83z"/>
<path d="M1646 6529 c-16 -4 -48 -26 -70 -47 -23 -21 -59 -53 -81 -72 -56 -46
-59 -54 -37 -102 54 -121 130 -129 254 -26 58 48 88 95 88 137 0 43 -13 65
-52 89 -45 27 -68 32 -102 21z"/>
<path d="M5548 6190 c-34 -10 -154 -95 -162 -116 -11 -29 -6 -61 12 -77 15
-14 40 -17 124 -17 l106 0 30 38 c66 83 49 130 -60 171 -13 4 -35 5 -50 1z"/>
<path d="M6883 5563 c-32 -6 -83 -83 -83 -125 0 -26 9 -42 38 -70 92 -89 213
-103 267 -32 24 31 25 37 14 76 -6 24 -20 56 -32 72 -32 45 -145 89 -204 79z"/>
<path d="M7450 5563 c-61 -10 -157 -51 -188 -80 -33 -31 -34 -35 -30 -92 5
-69 27 -101 68 -101 44 0 263 59 290 79 29 20 70 78 70 97 0 19 -49 73 -81 89
-27 14 -74 17 -129 8z"/>
<path d="M6258 5169 c-36 -14 -70 -71 -72 -121 -1 -48 33 -83 92 -94 20 -4 50
-17 65 -30 38 -32 80 -30 128 4 37 26 39 29 39 83 0 68 -27 115 -82 142 -45
22 -133 30 -170 16z"/>
<path d="M1930 5147 c-14 -6 -36 -33 -48 -59 -21 -41 -22 -52 -12 -82 20 -63
46 -86 95 -86 38 0 47 5 78 41 19 22 37 51 39 64 7 35 -20 83 -61 111 -40 27
-55 29 -91 11z"/>
<path d="M6973 5147 c-17 -7 -52 -26 -77 -44 -34 -24 -46 -40 -52 -67 -15 -85
23 -156 84 -156 47 0 126 45 175 99 56 62 48 114 -27 160 -37 23 -56 25 -103
8z"/>
<path d="M5970 4942 c-48 -7 -120 -99 -120 -153 0 -29 50 -73 102 -88 23 -7
60 -22 81 -33 l39 -19 38 25 c87 58 76 191 -20 241 -37 19 -91 31 -120 27z"/>
<path d="M6447 4870 c-113 -35 -150 -149 -72 -227 37 -37 50 -40 103 -17 20 8
87 24 147 35 151 26 153 27 175 49 30 30 25 71 -12 107 -31 28 -42 31 -148 42
-63 7 -126 14 -140 16 -14 2 -38 0 -53 -5z"/>
<path d="M5572 4696 c-44 -16 -82 -74 -82 -125 0 -58 32 -91 94 -98 27 -3 69
-17 93 -31 l44 -25 -31 -32 c-21 -21 -33 -46 -37 -72 -7 -52 18 -110 51 -119
14 -3 127 14 262 40 261 50 277 57 289 126 9 51 -16 97 -60 116 -43 18 -121
18 -171 0 -22 -7 -60 -16 -85 -20 l-46 -7 -7 52 c-9 65 -25 98 -71 137 -55 49
-184 79 -243 58z"/>
</g>
</svg>
