<?xml version="1.0" standalone="no"?>
<!DOCTYPE svg PUBLIC "-//W3C//DTD SVG 20010904//EN"
 "http://www.w3.org/TR/2001/REC-SVG-20010904/DTD/svg10.dtd">
<svg version="1.0" xmlns="http://www.w3.org/2000/svg"
 width="1024.000000pt" height="1024.000000pt" viewBox="0 0 1024.000000 1024.000000"
 preserveAspectRatio="xMidYMid meet">
<metadata>
Created by potrace 1.10, written by Peter Selinger 2001-2011
</metadata>
<g transform="translate(0.000000,1024.000000) scale(0.100000,-0.100000)"
fill="#000000" stroke="none">
<path d="M7028 9157 c-15 -7 -36 -23 -46 -37 -11 -14 -76 -214 -147 -450 -140
-472 -153 -511 -218 -657 -149 -335 -401 -646 -708 -870 -86 -63 -205 -108
-339 -127 -63 -9 -118 -16 -122 -16 -12 0 -9 1145 2 1350 5 96 17 263 26 370
16 180 19 199 45 246 16 28 29 62 29 76 0 79 -128 125 -218 79 -20 -11 -42
-28 -49 -39 -21 -35 -32 -303 -43 -1012 -5 -377 -13 -767 -16 -867 -7 -212 5
-196 -130 -158 -118 34 -289 120 -395 199 -160 119 -394 358 -539 551 -65 86
-78 112 -155 312 -46 120 -89 249 -96 287 -7 43 -10 124 -7 214 6 167 -2 208
-45 250 -29 27 -84 52 -111 52 -46 -2 -70 -80 -82 -271 -11 -174 25 -386 95
-557 36 -91 156 -311 224 -412 95 -144 345 -418 481 -529 197 -161 447 -286
702 -351 l41 -10 7 -92 c3 -50 6 -218 6 -374 l0 -283 -37 -10 c-21 -6 -110
-28 -198 -50 -127 -32 -232 -69 -510 -181 -347 -140 -494 -210 -667 -317 -251
-155 -526 -394 -723 -628 -109 -129 -409 -560 -419 -601 -9 -36 -97 -237 -142
-324 -55 -106 -192 -568 -258 -869 -73 -332 -80 -398 -162 -1532 l-78 -1077
21 -48 c24 -57 71 -94 118 -94 40 0 60 22 74 80 6 25 27 385 46 800 55 1195
67 1286 260 2063 102 405 142 525 241 716 30 57 54 108 54 114 0 14 28 72 83
172 341 615 967 1111 1757 1393 209 74 523 162 536 149 7 -6 -84 -2006 -96
-2132 -6 -54 -15 -210 -21 -345 -13 -305 -2 -567 45 -1140 50 -595 56 -714 56
-1151 l0 -391 26 -74 c18 -49 37 -83 56 -99 34 -29 46 -30 74 -10 26 17 37 44
67 155 l23 85 -18 340 c-9 187 -26 522 -38 745 -11 223 -29 477 -40 565 -40
332 -50 660 -29 960 6 83 36 684 67 1337 32 653 61 1190 65 1195 14 13 452 16
557 3 227 -28 484 -92 561 -141 25 -16 71 -38 101 -48 118 -41 240 -111 328
-189 54 -47 242 -321 260 -377 6 -22 27 -71 46 -110 28 -59 92 -319 394 -1615
197 -850 382 -1633 410 -1740 105 -405 161 -743 176 -1062 3 -68 10 -137 15
-154 12 -39 46 -72 87 -83 26 -8 38 -5 75 20 41 27 45 33 51 82 3 28 6 98 6
155 0 97 -18 188 -326 1635 -374 1760 -493 2320 -501 2362 -3 17 -45 131 -93
255 -48 124 -95 250 -105 280 -72 222 -242 460 -418 589 -32 23 -93 61 -135
83 -42 23 -95 54 -117 68 -115 78 -499 186 -795 225 -134 18 -443 25 -526 12
l-51 -7 -7 61 c-3 34 -6 190 -6 345 l0 284 65 0 c124 0 279 42 423 113 332
166 736 657 931 1132 63 155 309 862 321 923 14 78 -4 139 -60 195 -51 51 -53
52 -92 34z"/>
<path d="M6541 3856 c-1 -5 4 -27 11 -50 12 -43 28 -70 27 -45 0 16 -38 108
-38 95z"/>
</g>
</svg>
