<?xml version="1.0" standalone="no"?>
<!DOCTYPE svg PUBLIC "-//W3C//DTD SVG 20010904//EN"
 "http://www.w3.org/TR/2001/REC-SVG-20010904/DTD/svg10.dtd">
<svg version="1.0" xmlns="http://www.w3.org/2000/svg"
 width="1024.000000pt" height="1024.000000pt" viewBox="0 0 1024.000000 1024.000000"
 preserveAspectRatio="xMidYMid meet">
<metadata>
Created by potrace 1.10, written by Peter Selinger 2001-2011
</metadata>
<g transform="translate(0.000000,1024.000000) scale(0.100000,-0.100000)"
fill="#000000" stroke="none">
<path d="M4584 9261 c-69 -20 -163 -69 -178 -94 -9 -14 10 -38 112 -140 67
-67 134 -138 148 -157 47 -64 106 -193 132 -289 l26 -96 4 -862 3 -862 -23 -5
c-40 -8 -2315 -205 -2495 -216 -263 -16 -289 -14 -685 45 -204 31 -373 54
-375 51 -5 -4 7 -90 23 -168 4 -21 38 -50 152 -131 317 -224 499 -317 620
-317 95 0 291 26 882 114 420 63 684 97 1028 131 255 25 469 45 477 43 34 -7
-427 -703 -743 -1123 -389 -516 -830 -1011 -1197 -1342 -470 -424 -1090 -861
-1819 -1284 l-179 -104 96 -3 c391 -12 995 285 1785 877 415 311 716 574 1102
960 465 466 811 866 1205 1394 l140 186 3 -1012 c2 -1003 2 -1020 -33 -1922
-19 -500 -42 -1022 -51 -1160 -27 -416 -10 -537 104 -765 81 -162 111 -192
200 -198 49 -3 63 0 97 23 74 48 122 146 152 306 16 87 18 265 23 2563 l5
2470 81 -95 c44 -52 188 -220 320 -374 132 -154 318 -377 414 -495 296 -366
779 -949 968 -1170 36 -41 74 -86 86 -100 118 -139 563 -649 576 -660 3 -3 82
-88 175 -190 345 -376 344 -375 483 -441 87 -42 130 -57 150 -54 15 3 272 28
572 55 608 55 666 66 699 129 9 16 1 25 -67 69 -42 27 -160 93 -262 147 -513
271 -1106 650 -1401 895 -123 103 -533 467 -709 630 -265 246 -943 894 -1265
1210 -99 97 -302 290 -452 428 l-272 251 42 5 c23 3 157 10 297 16 140 6 444
19 675 30 1332 63 1225 60 1555 45 168 -8 361 -17 430 -21 139 -7 194 2 247
42 36 27 59 88 49 128 -9 38 -57 87 -154 159 -110 82 -112 82 -325 156 -175
60 -180 61 -240 51 -154 -24 -740 -75 -1653 -145 -545 -41 -999 -75 -1008 -75
-16 0 -17 66 -13 968 3 877 5 975 21 1050 14 66 15 89 6 117 -13 40 -86 109
-156 147 -37 20 -540 201 -548 197 0 0 -28 -8 -62 -18z"/>
</g>
</svg>
