<?xml version="1.0" standalone="no"?>
<!DOCTYPE svg PUBLIC "-//W3C//DTD SVG 20010904//EN"
 "http://www.w3.org/TR/2001/REC-SVG-20010904/DTD/svg10.dtd">
<svg version="1.0" xmlns="http://www.w3.org/2000/svg"
 width="1024.000000pt" height="1024.000000pt" viewBox="0 0 1024.000000 1024.000000"
 preserveAspectRatio="xMidYMid meet">
<metadata>
Created by potrace 1.10, written by Peter Selinger 2001-2011
</metadata>
<g transform="translate(0.000000,1024.000000) scale(0.100000,-0.100000)"
fill="#000000" stroke="none">
<path d="M3410 8684 c-22 -20 -40 -44 -40 -53 0 -36 31 -119 61 -164 46 -70
102 -108 261 -175 l143 -60 1023 -65 c562 -35 1028 -69 1035 -75 6 -5 23 -13
37 -17 14 -4 70 -49 125 -99 77 -69 657 -518 897 -693 22 -17 45 -23 80 -23
44 0 54 4 96 44 38 37 44 47 37 64 -13 27 -696 592 -855 708 -257 186 -285
204 -388 238 -93 32 -110 34 -337 46 -169 9 -398 11 -775 7 -495 -5 -543 -4
-645 13 -237 41 -494 157 -562 254 -32 45 -95 86 -133 86 -11 0 -38 -16 -60
-36z"/>
<path d="M3002 7770 c-81 -37 -90 -130 -20 -197 22 -21 89 -54 208 -102 149
-60 198 -74 335 -100 157 -29 174 -30 910 -56 742 -25 751 -26 860 -53 l110
-28 245 -182 c135 -100 274 -204 310 -232 82 -63 141 -92 370 -180 175 -68
187 -71 242 -65 49 6 62 12 88 41 41 47 47 79 23 112 -29 40 -150 100 -235
116 -103 20 -172 50 -253 109 -38 28 -209 148 -380 267 -415 289 -318 263
-1075 290 -316 11 -633 22 -705 24 -295 11 -597 81 -865 201 -58 25 -109 48
-115 51 -5 2 -29 -5 -53 -16z"/>
<path d="M2755 6913 c-53 -13 -89 -76 -83 -144 6 -57 63 -180 122 -264 131
-182 390 -346 636 -399 41 -9 108 -33 149 -54 l74 -37 286 3 c312 4 463 -6
691 -44 269 -45 390 -83 635 -199 136 -64 243 -109 280 -116 117 -22 357 -123
437 -183 23 -17 48 -161 55 -316 6 -142 -13 -299 -46 -378 -11 -26 -25 -66
-31 -90 -6 -23 -55 -153 -110 -290 -96 -240 -189 -430 -255 -522 -18 -25 -45
-70 -60 -100 -35 -71 -399 -731 -435 -790 -20 -33 -36 -88 -60 -210 -19 -93
-41 -176 -51 -191 -10 -14 -21 -46 -25 -70 -3 -24 -15 -71 -26 -104 -24 -72
-19 -165 13 -253 12 -31 24 -72 28 -90 5 -25 28 -51 104 -117 154 -134 343
-236 563 -304 117 -36 1485 -294 1556 -293 83 1 881 82 923 93 83 23 141 123
99 171 l-19 21 -701 -7 -702 -6 -468 95 c-258 53 -509 106 -559 119 -173 47
-372 147 -510 256 -83 66 -89 85 -80 252 6 104 11 140 30 181 13 29 33 97 44
153 24 117 62 236 101 314 38 77 257 460 314 548 111 174 235 408 325 617 29
66 73 158 98 204 41 75 51 108 103 345 72 323 79 404 55 646 -21 209 -23 213
-160 303 -163 107 -369 192 -565 233 -70 15 -98 27 -160 70 -155 106 -344 181
-530 208 -58 9 -439 65 -847 125 l-742 108 -154 143 c-130 119 -156 148 -162
178 -12 67 -37 112 -83 152 -44 39 -55 43 -97 33z"/>
<path d="M6866 3720 c4 -14 13 -38 20 -55 11 -24 13 -25 8 -5 -4 14 -13 39
-20 55 -11 24 -13 25 -8 5z"/>
</g>
</svg>
