<?xml version="1.0" standalone="no"?>
<!DOCTYPE svg PUBLIC "-//W3C//DTD SVG 20010904//EN"
 "http://www.w3.org/TR/2001/REC-SVG-20010904/DTD/svg10.dtd">
<svg version="1.0" xmlns="http://www.w3.org/2000/svg"
 width="1024.000000pt" height="1024.000000pt" viewBox="0 0 1024.000000 1024.000000"
 preserveAspectRatio="xMidYMid meet">
<metadata>
Created by potrace 1.10, written by Peter Selinger 2001-2011
</metadata>
<g transform="translate(0.000000,1024.000000) scale(0.100000,-0.100000)"
fill="#000000" stroke="none">
<path d="M3845 8536 c-21 -15 -23 -10 60 -125 66 -90 58 -214 -24 -386 -33
-70 -263 -424 -369 -568 -180 -244 -225 -304 -291 -387 -123 -155 -293 -351
-417 -480 -64 -66 -114 -123 -111 -126 2 -3 67 26 143 64 249 125 481 308 819
645 l220 220 60 -23 c33 -12 115 -38 182 -58 l123 -36 242 38 c134 20 488 75
788 122 300 47 703 109 895 139 281 44 386 65 533 106 168 47 185 54 220 90
35 34 62 92 62 132 0 9 -29 40 -63 70 -57 48 -74 56 -166 81 l-102 27 -78 -20
c-43 -10 -123 -40 -177 -65 -225 -103 -590 -209 -1019 -295 -82 -17 -413 -64
-735 -106 -322 -41 -605 -78 -629 -82 l-43 -6 128 164 c71 90 169 205 219 255
57 57 99 109 114 141 l23 51 -28 51 c-36 67 -166 205 -252 270 -100 74 -185
111 -253 111 -31 0 -63 -6 -74 -14z"/>
<path d="M5145 6849 l-1270 -189 -145 15 c-194 20 -184 21 -199 -20 -23 -66 7
-108 139 -190 98 -60 176 -101 232 -121 34 -12 52 -10 166 12 116 22 2156 371
2387 408 120 19 160 30 202 55 58 36 58 51 2 117 -46 55 -55 60 -127 81 -42
12 -86 21 -97 21 -11 0 -591 -85 -1290 -189z"/>
<path d="M6910 6274 c-146 -69 -237 -101 -406 -139 -60 -14 -855 -144 -1766
-290 l-1657 -265 -277 35 c-153 19 -280 33 -282 30 -2 -2 8 -39 22 -82 l26
-78 173 -119 c132 -91 193 -126 262 -152 50 -19 97 -34 105 -34 8 0 289 68
625 151 741 183 1020 241 1645 344 527 86 1252 185 1358 185 72 0 103 -20 127
-83 14 -38 15 -97 2 -712 -19 -870 -9 -1131 59 -1505 65 -355 216 -808 370
-1112 63 -123 222 -367 314 -483 95 -120 264 -289 352 -353 115 -83 285 -185
371 -221 59 -24 90 -31 142 -31 137 0 144 28 76 293 -38 147 -43 259 -32 767
6 261 13 512 15 558 4 63 2 82 -8 82 -31 0 -49 -50 -116 -321 -39 -156 -86
-346 -104 -422 -34 -136 -72 -235 -103 -269 -22 -24 -74 -23 -126 3 -55 28
-173 149 -265 272 -380 506 -583 1119 -632 1907 -19 311 -9 585 35 986 32 285
63 408 136 540 16 28 44 85 63 126 l34 75 -102 129 c-56 71 -123 146 -149 167
-50 41 -126 87 -142 86 -5 0 -71 -29 -145 -65z"/>
</g>
</svg>
