<?xml version="1.0" standalone="no"?>
<!DOCTYPE svg PUBLIC "-//W3C//DTD SVG 20010904//EN"
 "http://www.w3.org/TR/2001/REC-SVG-20010904/DTD/svg10.dtd">
<svg version="1.0" xmlns="http://www.w3.org/2000/svg"
 width="1024.000000pt" height="1024.000000pt" viewBox="0 0 1024.000000 1024.000000"
 preserveAspectRatio="xMidYMid meet">
<metadata>
Created by potrace 1.10, written by Peter Selinger 2001-2011
</metadata>
<g transform="translate(0.000000,1024.000000) scale(0.100000,-0.100000)"
fill="#000000" stroke="none">
<path d="M5854 10133 c-58 -19 -71 -48 -56 -122 7 -31 12 -68 12 -82 -1 -68
-105 -214 -262 -365 -185 -178 -356 -277 -692 -399 -194 -70 -205 -73 -311
-78 -132 -6 -172 -18 -231 -70 -49 -43 -55 -70 -24 -110 17 -21 38 -28 141
-47 l120 -22 112 27 c185 46 362 111 542 200 346 170 612 376 718 556 124 212
136 385 30 480 -52 46 -55 47 -99 32z"/>
<path d="M7205 9983 c-234 -66 -264 -73 -295 -63 -32 10 -45 7 -134 -29 -54
-23 -104 -45 -110 -50 -6 -5 -19 -10 -28 -12 -9 -2 -45 -27 -80 -56 -84 -69
-644 -434 -687 -447 -18 -5 -45 -25 -59 -45 -15 -20 -39 -48 -54 -63 -17 -15
-28 -37 -28 -52 0 -14 -9 -58 -19 -98 -11 -40 -25 -124 -31 -186 -9 -85 -20
-132 -45 -195 -28 -69 -33 -95 -33 -162 1 -58 -5 -94 -20 -130 -11 -28 -24
-72 -27 -100 -4 -27 -13 -68 -20 -90 -7 -22 -45 -150 -83 -285 -58 -200 -75
-280 -97 -435 -14 -104 -32 -203 -39 -220 -8 -16 -24 -72 -36 -124 l-23 -94
28 -24 c21 -19 37 -23 69 -21 41 3 51 12 457 427 l414 423 370 290 370 291
413 411 412 411 0 365 c0 331 -2 367 -18 387 -14 18 -37 24 -142 37 -69 9
-135 15 -145 15 -11 -1 -137 -35 -280 -76z m-1235 -1460 c0 -371 3 -679 6
-684 3 -5 -2 -9 -11 -9 -9 0 -13 -5 -9 -11 3 -6 0 -15 -7 -20 -11 -7 -10 -9 4
-9 11 0 -15 -31 -75 -88 -258 -246 -383 -359 -386 -348 -3 14 324 1521 339
1557 5 14 16 70 24 125 9 62 18 100 27 103 7 2 27 18 43 36 17 17 33 29 37 27
4 -1 8 -307 8 -679z"/>
<path d="M8365 9705 c-68 -29 -100 -93 -83 -166 5 -24 85 -195 176 -379 l167
-335 37 -3 c52 -4 116 30 134 73 17 41 21 29 -95 305 -45 107 -94 224 -108
260 -41 102 -106 192 -172 239 -23 17 -30 17 -56 6z"/>
<path d="M3134 9660 c-67 -48 -83 -121 -43 -186 40 -65 88 -80 139 -44 l29 20
118 -26 c112 -25 124 -30 236 -101 73 -47 123 -86 132 -103 22 -42 62 -189 80
-287 20 -114 20 -344 0 -459 -9 -49 -27 -129 -41 -178 -14 -49 -38 -154 -55
-234 l-29 -144 21 -29 c23 -32 23 10 -1 -469 -6 -129 -13 -236 -15 -238 -1 -2
-65 14 -140 34 l-137 38 -96 -34 c-130 -45 -166 -64 -216 -113 -49 -50 -74
-99 -86 -170 -8 -49 -7 -55 23 -99 33 -49 53 -63 110 -73 27 -5 39 -2 62 17
23 21 29 34 33 84 9 113 65 150 217 142 67 -4 87 -9 123 -33 24 -16 57 -48 73
-71 24 -35 29 -53 29 -103 0 -54 3 -62 28 -79 15 -11 37 -22 49 -26 15 -5 29
-25 43 -63 58 -154 71 -317 46 -548 -9 -82 -21 -212 -27 -289 -10 -137 -10
-138 12 -162 17 -18 33 -24 64 -24 78 0 145 66 165 166 13 62 37 85 135 131
49 22 78 28 158 31 l97 4 55 -41 c42 -32 63 -58 89 -109 88 -175 136 -396 136
-627 0 -141 -1 -148 -76 -491 -42 -192 -78 -378 -81 -414 -4 -57 -2 -69 18
-94 38 -48 132 -74 157 -43 33 39 146 424 176 597 57 332 40 806 -38 1029 -61
173 -196 333 -333 392 -111 48 -248 49 -393 4 -45 -15 -83 -25 -84 -23 -3 4
-35 462 -32 465 7 8 571 -260 656 -312 32 -19 65 -35 73 -35 9 0 35 -17 59
-37 40 -35 55 -40 188 -67 105 -22 145 -27 148 -18 2 7 9 12 15 12 17 0 36 34
63 114 13 38 32 79 43 90 10 12 23 48 30 80 6 33 23 84 38 115 45 91 51 113
41 142 -6 16 -214 210 -543 505 -525 471 -536 480 -616 512 -139 56 -241 138
-291 236 -25 48 -21 89 22 221 125 392 112 842 -32 1120 -119 227 -335 378
-593 414 -135 19 -185 15 -231 -19z m881 -1994 c87 -51 178 -96 196 -96 13 0
148 -117 244 -211 l30 -30 -32 16 c-18 9 -42 18 -54 20 -12 3 -43 11 -68 19
-25 8 -74 20 -108 27 -35 7 -63 17 -63 21 0 4 -15 8 -34 8 -19 0 -37 4 -40 9
-4 5 -43 17 -87 27 -45 10 -83 23 -86 31 -4 10 -9 11 -19 2 -11 -9 -13 4 -10
78 2 48 4 108 5 132 l1 45 33 -31 c17 -18 59 -48 92 -67z"/>
<path d="M8064 9613 c-70 -41 -84 -57 -84 -95 0 -39 57 -176 140 -333 112
-215 145 -284 138 -290 -2 -2 -89 -19 -195 -39 -434 -80 -617 -184 -891 -505
-95 -111 -240 -407 -373 -764 -90 -241 -134 -321 -253 -466 -50 -60 -89 -92
-224 -182 -160 -108 -167 -111 -455 -226 -160 -64 -304 -125 -320 -135 -64
-45 -84 -149 -52 -272 20 -75 40 -115 165 -321 56 -93 105 -175 107 -182 3 -7
-29 -50 -70 -97 -87 -100 -176 -228 -237 -341 -24 -44 -84 -140 -133 -214
-104 -154 -136 -225 -137 -297 0 -41 5 -55 25 -74 38 -35 68 -28 333 84 154
66 362 91 544 66 254 -34 580 -188 819 -388 207 -173 386 -435 469 -686 20
-62 22 -81 17 -220 -3 -94 -11 -174 -21 -211 -79 -286 -418 -636 -815 -839
-202 -103 -238 -114 -521 -152 -140 -19 -295 -45 -345 -59 -177 -50 -317 -136
-376 -232 -60 -96 -63 -265 -9 -373 18 -36 90 -109 127 -128 45 -24 218 -84
309 -107 130 -33 301 -55 434 -55 l109 0 -11 -32 c-19 -55 -328 -660 -367
-717 -33 -49 -36 -59 -36 -126 0 -59 4 -79 22 -102 l21 -30 -71 -17 c-184 -43
-228 -58 -257 -88 -24 -23 -30 -38 -30 -72 0 -48 22 -86 51 -86 15 0 2018 490
2110 516 13 4 15 -1 11 -23 l-5 -28 34 28 c94 76 215 126 324 134 45 3 175 36
361 89 161 46 298 84 306 84 23 0 316 -316 323 -349 3 -15 36 -80 74 -144 65
-111 69 -121 100 -270 32 -150 35 -156 76 -201 35 -39 48 -46 79 -46 78 0 146
63 146 135 0 69 -76 285 -157 445 -96 191 -180 307 -339 467 -98 100 -134 143
-143 172 -19 64 -96 108 -145 82 -27 -14 -609 -231 -612 -228 -1 1 28 62 65
135 84 170 169 306 202 326 15 9 33 35 44 63 10 26 24 53 30 58 6 6 26 29 43
52 27 34 70 61 262 162 397 209 711 394 1082 638 201 132 231 173 173 241 -38
45 -79 59 -120 39 -90 -43 -1318 -756 -1379 -801 -46 -34 -82 -52 -101 -53
-71 -2 -286 -305 -430 -606 -35 -73 -70 -139 -78 -146 -8 -6 -18 -24 -22 -39
-4 -15 -22 -59 -41 -98 -30 -64 -38 -73 -68 -78 -18 -3 -399 -103 -847 -222
-448 -118 -848 -223 -889 -234 l-75 -19 74 71 75 72 163 355 c90 196 179 387
199 425 58 112 52 193 -18 243 -51 36 -77 39 -418 53 -261 10 -317 20 -445 79
-74 35 -82 42 -108 90 -36 69 -35 107 4 160 35 48 114 91 169 91 81 0 306 35
445 70 178 44 307 91 470 170 236 114 422 245 590 414 209 211 343 431 406
666 19 69 23 110 23 220 -1 151 -18 233 -77 370 -48 111 -311 483 -412 583
-268 265 -561 423 -921 499 -97 20 -138 23 -366 23 -168 0 -254 3 -250 10 3 6
68 101 144 212 108 158 145 221 170 288 20 55 37 86 49 90 11 4 21 20 25 42 6
33 -6 64 -134 319 l-141 283 27 19 c44 31 103 58 167 77 204 59 321 109 430
181 405 267 651 631 789 1164 14 52 32 113 41 135 29 68 101 160 154 196 28
19 49 40 46 46 -2 7 23 42 57 78 155 166 373 284 608 330 154 30 240 63 289
111 37 37 43 48 39 75 -5 29 -2 32 49 54 65 29 66 38 19 180 -41 123 -106 262
-169 367 -39 64 -47 85 -47 126 0 57 -23 94 -69 110 -25 9 -37 6 -87 -25z"/>
<path d="M8695 9628 c-37 -20 -55 -51 -55 -97 0 -39 24 -89 196 -405 108 -199
208 -373 222 -388 14 -15 40 -30 57 -34 53 -10 134 34 135 73 0 19 -218 571
-247 625 -36 66 -115 152 -184 198 -59 41 -89 48 -124 28z"/>
<path d="M9134 9616 c-11 -8 -32 -32 -47 -54 -45 -64 -30 -107 127 -357 73
-116 153 -253 178 -306 56 -119 111 -201 172 -257 40 -37 52 -43 84 -40 31 3
40 9 59 43 45 79 39 150 -18 221 -59 74 -218 351 -245 425 -35 100 -67 153
-133 223 -54 56 -130 116 -148 116 -5 0 -18 -6 -29 -14z"/>
<path d="M9700 9503 c-26 -9 -60 -46 -60 -64 0 -9 85 -201 189 -425 130 -281
200 -422 225 -451 45 -51 84 -62 144 -38 39 16 42 20 42 55 0 76 -183 540
-273 690 -37 62 -117 157 -169 199 -49 40 -66 46 -98 34z"/>
<path d="M785 9261 c-209 -75 -346 -172 -485 -346 -247 -308 -278 -724 -85
-1122 54 -110 56 -112 182 -228 156 -141 224 -188 326 -220 132 -42 204 -29
242 45 34 65 5 102 -118 150 -173 68 -308 174 -402 315 -230 345 -186 711 120
1010 45 44 113 99 151 121 l70 42 195 21 c275 30 257 25 265 67 12 64 -67 151
-162 180 -84 25 -155 17 -299 -35z"/>
<path d="M8066 7846 c-38 -24 -96 -97 -96 -120 0 -25 33 -55 77 -71 27 -10 62
-24 80 -31 17 -8 36 -14 43 -14 6 0 23 -14 37 -30 51 -62 137 -79 201 -40 41
25 42 57 2 138 -50 99 -154 174 -261 187 -35 5 -52 1 -83 -19z"/>
<path d="M7674 7516 c-44 -20 -78 -78 -70 -120 6 -33 3 -37 -71 -102 -44 -38
-81 -79 -85 -94 -4 -14 -21 -39 -38 -55 -16 -16 -30 -34 -30 -41 0 -6 -19 -40
-42 -75 -24 -35 -51 -88 -60 -119 -9 -30 -26 -82 -38 -115 -12 -33 -25 -95
-28 -139 l-5 -79 44 -38 c68 -60 228 -135 353 -166 l108 -27 290 22 c262 21
295 25 338 47 51 26 90 67 90 95 0 10 7 34 15 53 25 59 20 174 -11 254 -14 37
-29 86 -34 108 -10 52 -35 120 -55 148 -8 12 -15 28 -15 35 0 24 -87 148 -143
205 -95 95 -195 153 -319 186 -106 29 -158 33 -194 17z m433 -513 c86 -147 87
-149 108 -269 l22 -121 -205 -12 c-112 -7 -206 -10 -209 -7 -3 2 7 31 20 63
14 32 43 112 65 178 56 171 106 315 109 315 1 0 42 -66 90 -147z"/>
<path d="M849 7060 c-74 -38 -115 -89 -141 -174 -18 -61 -20 -85 -15 -200 12
-281 93 -511 227 -647 71 -72 137 -109 240 -135 83 -21 315 -14 379 12 79 31
111 114 70 180 l-22 37 -128 -7 c-72 -3 -161 -2 -206 4 l-78 11 -77 78 c-58
60 -86 98 -116 162 -50 104 -62 162 -62 292 1 143 10 179 53 220 41 38 61 81
53 113 -8 30 -72 84 -99 84 -12 -1 -47 -14 -78 -30z"/>
<path d="M1904 6766 c-40 -18 -108 -119 -124 -187 -28 -117 5 -216 139 -405
101 -144 164 -201 298 -268 171 -87 389 -129 477 -92 68 28 104 117 71 174
-17 27 -25 30 -206 65 -228 44 -309 77 -400 163 -79 76 -124 168 -139 283 -10
72 -9 85 5 101 38 42 26 115 -25 151 -37 26 -61 30 -96 15z"/>
<path d="M6004 6329 c-48 -24 -94 -87 -101 -137 -6 -47 24 -78 94 -96 27 -7
68 -25 91 -40 46 -28 47 -28 105 17 34 26 37 33 37 78 0 83 -47 145 -137 179
-50 19 -51 19 -89 -1z"/>
<path d="M448 6311 c-62 -36 -294 -262 -301 -293 -5 -20 -2 -27 18 -36 15 -7
25 -20 25 -32 0 -11 5 -20 11 -20 16 0 144 -126 195 -192 24 -31 60 -87 80
-123 19 -37 43 -79 53 -94 11 -14 76 -195 147 -401 70 -206 135 -386 145 -400
9 -14 20 -41 24 -60 4 -19 18 -50 31 -70 12 -19 33 -66 45 -105 41 -130 108
-295 134 -330 15 -18 31 -51 37 -72 6 -21 23 -54 38 -73 15 -19 44 -87 65
-150 22 -68 51 -134 71 -161 18 -25 37 -57 43 -70 5 -14 28 -38 50 -54 l42
-28 27 20 c33 25 40 78 16 124 -14 28 -14 37 -3 72 12 35 11 43 -5 71 -17 28
-37 120 -67 306 -18 112 9 313 47 351 19 18 19 16 16 -69 -2 -51 3 -126 12
-179 44 -256 169 -441 411 -613 283 -200 544 -240 822 -125 49 20 95 39 104
41 12 4 26 -22 63 -113 26 -65 63 -142 83 -170 55 -81 152 -167 239 -210 73
-36 84 -38 203 -44 229 -13 368 -10 409 7 67 28 132 110 132 167 0 72 -129 95
-303 56 -110 -25 -235 -22 -309 7 -156 63 -239 188 -293 444 -27 129 -27 155
-3 287 20 111 -26 187 -120 200 -55 7 -80 -10 -110 -75 -29 -62 -35 -149 -19
-284 7 -67 7 -68 -17 -68 -13 0 -59 -17 -102 -37 -78 -38 -80 -38 -204 -38
-107 0 -138 4 -214 28 -286 87 -464 247 -517 467 -7 30 -13 105 -13 166 0 108
1 112 31 150 17 21 36 56 43 76 15 49 -6 96 -61 133 l-39 28 -66 -17 c-37 -9
-68 -15 -70 -13 -3 2 9 21 26 42 16 21 30 46 30 55 0 10 9 28 20 42 10 14 33
67 49 119 17 52 52 132 78 178 58 102 179 234 266 290 95 61 125 89 132 122 6
24 2 36 -16 55 -14 15 -31 23 -41 21 -25 -7 -552 115 -683 158 -136 45 -345
145 -456 218 -105 69 -255 194 -336 281 -34 36 -70 66 -80 65 -10 0 -39 -12
-65 -28z m104 -163 c8 -18 36 -58 61 -89 l45 -56 2 -201 c0 -111 3 -209 6
-216 3 -8 1 -17 -4 -20 -11 -6 -42 63 -42 93 0 51 -165 250 -263 316 l-47 32
101 86 c56 48 107 87 113 87 7 0 19 -15 28 -32z"/>
<path d="M8164 5880 c-28 -4 -60 -13 -72 -19 -35 -19 -72 -81 -72 -123 0 -49
30 -69 113 -77 59 -6 61 -7 68 -38 8 -42 21 -57 66 -78 24 -12 48 -15 74 -11
30 5 37 3 33 -8 -8 -20 45 -76 91 -97 50 -23 92 -24 169 -2 80 22 166 101 166
152 0 46 -14 67 -64 96 -44 26 -44 26 -111 10 -36 -8 -79 -22 -95 -30 -29 -15
-29 -15 -28 15 1 17 -8 40 -18 51 -30 33 -93 62 -124 55 -24 -4 -28 -1 -34 25
-4 21 -19 38 -53 59 -26 17 -49 29 -52 29 -4 -1 -29 -5 -57 -9z"/>
<path d="M8804 5500 c-83 -39 -114 -69 -135 -129 -21 -61 33 -101 138 -101 94
0 171 51 203 135 14 37 -9 87 -53 113 -45 29 -57 27 -153 -18z"/>
<path d="M9873 4340 c-28 -12 -65 -35 -82 -52 -27 -27 -31 -39 -31 -84 0 -93
61 -133 155 -102 44 15 45 15 45 -6 -1 -39 -40 -108 -137 -240 -153 -208 -233
-281 -389 -351 -127 -58 -148 -71 -171 -105 -42 -60 -42 -139 -2 -161 35 -18
244 16 294 48 156 102 354 285 457 423 71 94 164 302 173 387 4 34 2 76 -4
101 -33 120 -184 190 -308 142z"/>
<path d="M6591 4040 c0 -8 4 -24 9 -35 5 -13 9 -14 9 -5 0 8 -4 24 -9 35 -5
13 -9 14 -9 5z"/>
<path d="M746 2075 c-21 -7 -54 -28 -73 -47 l-35 -33 7 -100 c12 -163 47 -228
178 -328 136 -105 255 -147 414 -147 l102 0 278 -199 c290 -207 353 -244 518
-306 253 -95 620 -152 701 -110 16 8 39 15 51 15 19 0 138 88 373 275 115 93
340 301 367 340 l26 38 -29 24 c-67 56 -63 55 -146 27 l-76 -25 -154 25 c-84
13 -254 32 -378 41 -204 15 -269 25 -695 106 -450 86 -703 146 -735 173 -8 7
-64 32 -124 54 -103 39 -110 40 -138 26 -34 -18 -43 -36 -30 -60 7 -13 5 -22
-9 -33 -20 -16 -45 -131 -35 -158 9 -22 -30 -15 -70 12 -20 14 -54 30 -75 36
-33 10 -41 19 -70 82 l-32 70 22 44 c36 75 23 116 -49 153 -22 11 -41 20 -42
20 -2 -1 -20 -7 -42 -15z m667 -364 c26 -11 47 -22 47 -25 0 -2 -29 -9 -65
-16 l-64 -12 -46 37 c-25 21 -45 46 -45 55 0 18 2 18 63 0 34 -10 83 -27 110
-39z m445 -138 l72 -17 0 -204 0 -203 -70 37 c-94 51 -180 117 -268 207 l-74
74 67 27 c37 15 90 42 119 61 61 40 61 40 154 18z"/>
</g>
</svg>
