<?xml version="1.0" standalone="no"?>
<!DOCTYPE svg PUBLIC "-//W3C//DTD SVG 20010904//EN"
 "http://www.w3.org/TR/2001/REC-SVG-20010904/DTD/svg10.dtd">
<svg version="1.0" xmlns="http://www.w3.org/2000/svg"
 width="1024.000000pt" height="1024.000000pt" viewBox="0 0 1024.000000 1024.000000"
 preserveAspectRatio="xMidYMid meet">
<metadata>
Created by potrace 1.10, written by Peter Selinger 2001-2011
</metadata>
<g transform="translate(0.000000,1024.000000) scale(0.100000,-0.100000)"
fill="#000000" stroke="none">
<path d="M4945 9631 c-95 -26 -194 -66 -229 -95 l-30 -23 48 -59 c25 -32 84
-91 129 -130 198 -170 309 -362 352 -608 13 -75 15 -221 15 -970 l0 -882
-1072 -81 -1073 -81 -235 18 c-329 26 -366 26 -384 -2 -7 -13 -17 -44 -20 -70
-14 -99 52 -165 271 -273 289 -142 453 -204 558 -211 56 -4 251 21 960 125
489 71 890 129 892 128 1 -1 -38 -83 -86 -182 -385 -790 -893 -1583 -1575
-2460 -375 -482 -687 -844 -1207 -1399 l-93 -98 25 -19 c33 -25 44 -24 124 15
99 47 256 153 505 339 455 341 776 632 1244 1127 132 140 268 284 302 320 206
217 519 592 793 950 l73 95 -5 -1300 c-5 -1336 -7 -1437 -52 -2010 -8 -104
-22 -320 -31 -479 -24 -429 -4 -593 101 -844 83 -197 158 -272 271 -272 141 1
238 124 296 375 l22 100 6 2435 5 2435 231 -230 c243 -243 354 -370 496 -568
119 -167 188 -248 266 -313 103 -86 151 -107 232 -102 55 3 74 9 105 32 124
95 118 410 -12 636 -75 130 -253 278 -515 429 -131 75 -198 108 -538 259
l-265 119 -3 345 -2 345 52 6 c29 4 294 31 588 62 571 59 617 65 724 96 90 27
121 56 111 107 -9 49 -33 87 -92 144 -47 46 -51 47 -194 81 l-145 34 -518 -55
c-284 -30 -518 -53 -520 -51 -2 2 1 461 5 1019 l8 1015 27 107 c35 143 31 163
-49 243 -74 73 -171 125 -407 218 -174 69 -308 112 -375 121 -24 3 -68 -2
-110 -13z"/>
</g>
</svg>
