<?xml version="1.0" standalone="no"?>
<!DOCTYPE svg PUBLIC "-//W3C//DTD SVG 20010904//EN"
 "http://www.w3.org/TR/2001/REC-SVG-20010904/DTD/svg10.dtd">
<svg version="1.0" xmlns="http://www.w3.org/2000/svg"
 width="1024.000000pt" height="1024.000000pt" viewBox="0 0 1024.000000 1024.000000"
 preserveAspectRatio="xMidYMid meet">
<metadata>
Created by potrace 1.10, written by Peter Selinger 2001-2011
</metadata>
<g transform="translate(0.000000,1024.000000) scale(0.100000,-0.100000)"
fill="#000000" stroke="none">
<path d="M4144 10026 c-59 -27 -129 -87 -150 -128 -14 -27 -14 -27 -48 -11
-33 15 -40 14 -157 -11 -383 -86 -769 -253 -1062 -462 -120 -85 -169 -114
-192 -114 -47 0 -133 -49 -194 -111 -99 -100 -170 -185 -189 -228 l-19 -41
-23 25 c-12 13 -43 31 -68 39 -63 22 -111 8 -167 -49 -56 -56 -82 -107 -97
-194 -11 -65 -10 -74 10 -124 l23 -54 -83 -84 c-219 -222 -339 -448 -412 -780
-5 -21 -10 -25 -30 -22 -45 9 -157 -82 -198 -162 -32 -60 -48 -132 -48 -211 0
-54 -4 -75 -17 -85 -32 -27 -54 -96 -52 -162 1 -56 -3 -70 -44 -147 -155 -291
-156 -654 -4 -882 35 -51 35 -52 15 -66 -24 -18 -57 -87 -58 -122 0 -45 20
-97 54 -141 26 -33 32 -47 25 -60 -14 -27 -11 -101 6 -150 29 -80 114 -145
218 -164 23 -5 37 -13 37 -22 0 -15 -3 -15 -65 2 -14 4 -35 -6 -68 -31 -42
-33 -47 -41 -47 -76 0 -85 38 -121 155 -148 89 -20 92 -22 109 -58 73 -153
269 -330 444 -400 40 -16 74 -31 77 -33 2 -3 -37 -15 -86 -28 -66 -17 -94 -30
-105 -46 -16 -25 -8 -61 20 -84 9 -7 16 -18 16 -24 0 -6 -27 15 -60 48 -64 63
-117 150 -139 225 -27 96 -102 183 -158 183 -14 0 -39 -15 -60 -34 l-35 -34 5
-75 c14 -222 184 -462 389 -551 52 -22 57 -27 62 -62 4 -22 15 -55 25 -76 20
-38 91 -110 129 -130 12 -6 83 -17 157 -23 l135 -12 0 -31 c0 -39 34 -92 79
-122 33 -22 42 -23 256 -23 208 0 224 1 248 20 l26 21 126 -66 c196 -100 382
-153 618 -176 153 -15 353 -1 502 35 53 13 97 21 99 17 2 -3 16 -170 31 -371
14 -201 34 -435 44 -520 16 -136 17 -188 8 -420 -6 -181 -6 -278 1 -310 6 -25
10 -46 9 -47 -1 -1 -110 3 -242 8 -132 5 -346 11 -475 14 -129 3 -252 8 -272
11 -30 5 -87 -12 -298 -85 -157 -55 -276 -91 -300 -91 -21 0 -41 -4 -44 -9 -3
-4 -31 -11 -61 -14 -32 -3 -74 -16 -98 -30 -23 -13 -73 -31 -112 -40 -98 -22
-123 -33 -157 -69 l-29 -32 -590 -47 c-324 -26 -605 -53 -624 -59 -39 -13 -65
-52 -65 -98 0 -22 9 -36 34 -56 34 -26 37 -26 202 -26 94 0 343 13 563 30 218
17 406 30 419 28 20 -3 14 -10 -43 -53 -152 -114 -197 -223 -118 -285 35 -27
161 -27 281 0 71 15 210 25 723 49 349 17 665 33 702 36 l69 5 -45 -52 c-100
-118 -161 -242 -200 -406 l-22 -95 -102 -109 c-76 -81 -104 -116 -109 -143
-19 -105 54 -203 125 -166 13 7 22 8 26 1 3 -5 19 -10 34 -10 32 0 72 39 163
160 123 164 318 320 484 390 40 16 350 122 690 234 l618 205 24 -42 c36 -64
57 -83 185 -167 146 -97 260 -156 413 -216 66 -25 169 -68 230 -95 213 -95
370 -137 607 -165 73 -8 220 -28 327 -44 232 -36 251 -36 301 -8 l38 21 93
-26 c162 -46 229 -31 263 58 18 45 18 47 -1 64 -10 10 -62 33 -114 51 -258 90
-576 229 -684 300 -45 29 -108 55 -222 90 -200 63 -195 61 -164 70 44 14 245
10 336 -5 149 -26 215 -52 497 -195 356 -179 567 -262 882 -344 72 -18 170
-47 218 -65 140 -49 221 -39 299 36 36 35 38 36 56 20 23 -21 79 -22 141 -3
25 8 59 18 76 23 16 5 36 20 44 34 13 24 12 30 -10 75 -26 53 -71 89 -128 103
-20 4 -81 18 -136 31 -305 69 -633 223 -915 429 -57 42 -156 109 -220 149
-114 72 -114 72 -75 72 22 1 436 -11 920 -26 l880 -27 58 33 c100 55 106 148
12 185 -11 4 -388 20 -838 35 -717 24 -820 30 -836 44 -10 9 -64 32 -121 51
-91 31 -235 55 -1179 201 -592 92 -1077 168 -1078 169 -2 1 -14 58 -28 126
-19 97 -32 236 -60 639 -40 593 -40 602 -29 695 l9 70 420 66 c231 37 445 75
475 84 80 25 221 100 299 159 134 102 153 112 283 150 119 35 129 36 150 22
12 -9 33 -16 45 -16 40 0 97 29 118 60 16 24 52 44 175 96 174 73 263 123 348
193 69 57 149 156 184 226 24 46 28 49 66 50 47 1 112 45 112 75 0 11 -18 50
-41 86 l-41 67 75 74 74 75 64 -10 c61 -10 65 -10 85 13 l22 24 -26 85 -25 84
20 49 c62 147 51 267 -35 364 -24 28 -32 48 -37 96 l-7 61 56 36 c111 71 196
185 241 326 33 100 17 248 -32 302 -16 18 -12 28 65 186 92 187 109 247 92
329 -9 41 -22 65 -59 105 l-48 53 14 257 c12 216 12 271 1 350 l-14 93 36 75
c34 73 35 79 34 190 0 134 -20 199 -82 272 -20 24 -42 52 -48 63 -5 11 -29 29
-51 39 l-41 20 -4 106 c-3 96 -6 112 -36 172 -45 93 -116 145 -245 183 -65 19
-103 12 -168 -30 l-36 -24 -34 35 c-95 99 -310 234 -477 300 -88 35 -108 47
-113 67 -4 14 -3 31 2 38 15 24 10 48 -18 79 -30 32 -187 130 -210 130 -10 0
-7 9 8 30 41 55 22 118 -50 167 -37 25 -62 20 -119 -23 l-32 -25 -108 74 c-91
64 -112 74 -139 70 -18 -3 -38 -11 -44 -19 -6 -8 -16 -14 -22 -14 -5 0 -29
-16 -53 -35 -23 -19 -49 -35 -57 -35 -8 0 -46 13 -83 29 -232 98 -499 160
-781 181 -134 11 -163 10 -302 -9 -200 -27 -196 -27 -211 9 -18 43 -93 106
-154 128 -90 34 -124 36 -194 9 -54 -20 -67 -30 -88 -66 -30 -54 -30 -89 -1
-132 22 -32 26 -34 77 -33 30 1 75 4 100 8 56 8 48 4 -64 -29 -109 -32 -146
-64 -146 -122 0 -21 9 -52 20 -70 36 -60 41 -59 258 2 222 63 272 72 462 81
164 8 360 -8 529 -42 186 -37 467 -136 572 -202 60 -37 80 -31 157 50 l69 71
18 -27 c14 -20 15 -30 6 -39 -6 -6 -11 -30 -11 -53 0 -38 5 -46 50 -84 28 -23
50 -46 50 -51 0 -5 -21 -9 -46 -9 -110 0 -170 -42 -168 -117 2 -78 4 -79 288
-103 235 -19 250 -22 278 -45 37 -31 76 -41 100 -26 15 10 33 5 98 -23 193
-83 362 -212 460 -348 100 -140 139 -178 185 -178 45 0 97 30 113 65 9 20 8
33 -8 71 -25 57 -25 66 0 82 18 11 25 10 47 -8 15 -11 35 -39 44 -61 18 -39
18 -42 -3 -131 -24 -105 -20 -118 38 -134 38 -10 39 -12 42 -57 l3 -47 -53 24
c-29 13 -84 38 -122 56 -77 35 -98 34 -145 -6 -35 -30 -41 -70 -15 -109 18
-28 16 -29 -21 -15 -37 14 -135 -10 -178 -43 -41 -31 -67 -82 -69 -133 -2 -53
27 -74 102 -74 83 0 142 28 182 86 68 97 55 93 134 42 106 -70 178 -150 209
-232 79 -211 94 -433 45 -663 l-12 -52 -30 22 c-26 19 -42 22 -133 22 -89 0
-107 -3 -132 -21 -37 -28 -73 -81 -73 -110 0 -13 10 -34 23 -48 18 -21 42 -29
139 -46 64 -11 129 -18 143 -14 15 4 35 20 45 37 l19 30 6 -26 c9 -34 62 -80
86 -74 12 3 21 -4 29 -24 15 -35 7 -59 -53 -164 -91 -159 -212 -282 -371 -378
-73 -44 -96 -77 -96 -139 l0 -47 -37 13 c-101 35 -176 27 -204 -21 -37 -64
-32 -124 14 -152 12 -8 52 -16 90 -19 66 -5 71 -7 117 -52 105 -102 163 -311
114 -409 -19 -39 -29 -101 -20 -135 3 -13 17 -38 31 -54 l25 -30 -28 -7 c-38
-8 -98 -58 -110 -92 -12 -36 1 -70 33 -85 14 -6 25 -14 25 -17 0 -3 -22 -21
-48 -38 -26 -18 -57 -41 -69 -52 -20 -19 -23 -19 -99 -3 -60 13 -87 15 -111 7
-73 -24 -97 -78 -64 -144 12 -22 21 -57 21 -78 0 -21 7 -49 16 -61 13 -19 24
-22 80 -22 74 0 77 -6 43 -78 -15 -29 -37 -54 -67 -73 l-45 -28 -31 31 c-60
60 -197 105 -282 92 -111 -16 -218 -140 -167 -191 15 -15 46 -22 143 -32 69
-7 126 -14 128 -16 1 -1 -58 -28 -132 -60 l-134 -58 -121 87 -120 87 -33 -14
c-85 -36 -148 -140 -115 -190 16 -24 73 -46 123 -48 18 0 -4 -10 -58 -25 l-88
-25 -52 54 c-86 87 -224 142 -303 119 -36 -10 -65 -60 -65 -114 0 -49 39 -95
88 -103 64 -11 67 -13 49 -33 -9 -9 -17 -39 -19 -67 l-3 -49 -75 -24 c-322
-101 -635 -171 -925 -207 l-50 -6 -28 73 c-54 144 -61 199 -62 493 0 149 3
282 7 298 24 96 475 475 917 772 96 64 432 270 745 457 681 406 787 478 817
549 9 24 9 33 -5 54 -24 37 -63 59 -110 61 -22 0 -43 2 -46 3 -2 0 29 36 71
79 41 42 90 94 108 116 29 35 114 106 126 106 3 0 3 -11 -1 -24 -13 -52 42
-96 120 -96 39 0 48 4 75 36 57 70 47 119 -34 155 -39 17 -46 18 -84 4 -38
-13 -41 -13 -41 4 0 22 -73 91 -96 91 -32 0 -529 -163 -634 -207 -316 -135
-604 -317 -865 -548 -44 -39 -141 -116 -216 -172 -130 -96 -169 -138 -169
-185 0 -12 -851 -610 -858 -603 -2 2 4 59 13 127 25 190 29 413 16 911 -7 252
-10 461 -8 464 3 2 15 0 26 -7 15 -7 27 -8 40 -1 26 14 381 510 405 565 16 38
17 49 6 75 -7 17 -24 38 -39 48 -17 12 -27 28 -28 47 -3 37 -29 63 -79 81 -38
13 -42 12 -109 -23 -44 -23 -99 -65 -147 -112 l-77 -75 -6 45 c-12 77 -42 141
-92 192 -26 26 -53 48 -59 48 -30 0 -44 53 -69 256 l-25 208 102 225 c61 137
121 255 152 299 82 117 96 144 96 189 0 46 -31 93 -80 118 -26 13 -30 12 -68
-14 -81 -60 -207 -254 -267 -414 l-18 -48 -41 38 c-104 97 -102 96 -127 83
-13 -7 -36 -24 -51 -38 -38 -35 -36 -69 7 -193 31 -88 42 -139 32 -139 -2 0
-26 11 -54 24 -187 90 -539 169 -679 151 -89 -11 -138 -84 -96 -143 19 -26 48
-35 365 -120 257 -69 360 -92 406 -92 42 0 61 -4 61 -12 0 -25 -40 -245 -77
-424 l-37 -182 -34 16 c-33 16 -34 16 -120 -28 -71 -37 -90 -52 -105 -82 -18
-36 -18 -38 1 -82 21 -47 61 -76 105 -76 13 0 49 16 82 35 32 20 60 33 63 30
3 -2 0 -17 -6 -32 -14 -37 -37 -161 -64 -358 -18 -133 -22 -219 -25 -510 -5
-465 -14 -630 -33 -648 -33 -31 -214 -86 -322 -98 l-108 -12 -73 69 c-40 38
-161 152 -270 253 -162 151 -197 189 -197 211 0 15 -14 57 -30 93 -17 37 -30
76 -30 87 0 12 -27 80 -60 151 -33 71 -60 143 -60 159 0 16 -7 59 -15 95 -12
48 -13 76 -6 98 5 18 12 164 14 325 7 339 4 355 -69 422 -35 32 -51 40 -69 36
-18 -5 -25 0 -34 22 -22 52 -101 81 -169 63 -43 -12 -146 -111 -177 -170 -25
-49 -16 -118 20 -148 14 -13 34 -23 43 -23 38 1 108 44 173 107 38 36 71 64
74 61 3 -3 -4 -89 -15 -192 -11 -103 -20 -189 -20 -190 0 -1 -23 -3 -52 -3
-45 -1 -55 -5 -75 -29 -44 -55 -19 -179 52 -261 19 -23 35 -49 35 -58 0 -9 4
-24 10 -34 5 -10 21 -72 36 -137 19 -89 32 -126 51 -145 14 -16 39 -70 59
-134 61 -188 126 -302 268 -471 68 -82 123 -150 121 -152 -10 -10 -109 55
-212 139 -239 193 -555 385 -848 514 -68 30 -115 28 -152 -8 -40 -36 -31 -75
32 -144 30 -34 55 -64 55 -67 0 -4 -26 11 -57 32 -46 31 -65 38 -91 35 -43 -7
-82 -54 -82 -98 0 -32 12 -44 153 -165 83 -72 153 -135 155 -139 1 -5 -22 -11
-51 -15 -148 -17 -356 -102 -485 -198 -81 -61 -112 -101 -112 -149 0 -47 33
-99 63 -99 13 0 80 28 148 63 128 64 322 135 444 162 39 9 111 30 161 47 l91
32 34 -21 c19 -11 65 -39 103 -63 88 -54 238 -113 341 -135 44 -9 140 -30 214
-47 148 -34 205 -33 254 3 27 20 30 20 126 5 123 -20 233 -20 359 -1 118 18
133 22 251 74 54 24 110 41 131 41 47 0 99 34 123 80 20 38 19 59 -7 220 -18
111 -20 250 -6 496 23 396 67 734 105 808 18 36 25 65 25 105 0 53 15 226 27
301 5 32 6 33 17 15 6 -11 25 -33 42 -50 l30 -30 35 -475 c30 -423 34 -518 34
-870 0 -265 -5 -453 -15 -570 -8 -96 -15 -212 -15 -257 0 -76 2 -84 29 -112
15 -16 39 -32 52 -35 14 -4 32 -22 43 -45 11 -21 30 -41 42 -44 39 -10 309
140 504 281 387 280 625 451 655 469 52 32 78 64 87 105 7 33 28 51 213 190
l205 154 255 108 c140 60 270 115 289 123 l33 14 -21 -29 c-12 -17 -41 -42
-66 -56 -52 -31 -92 -80 -101 -124 -6 -29 -57 -64 -638 -439 -347 -223 -685
-446 -751 -494 -167 -121 -347 -273 -505 -426 l-135 -130 -18 -109 c-39 -243
-14 -592 68 -949 33 -143 37 -181 80 -780 38 -529 50 -655 75 -788 27 -143 29
-161 15 -180 -8 -12 -15 -40 -15 -62 0 -79 -5 -78 451 -140 320 -44 449 -66
619 -107 135 -32 252 -54 315 -58 175 -14 341 -65 480 -149 60 -36 88 -61 112
-97 44 -68 51 -74 76 -74 12 0 52 -21 88 -48 35 -26 255 -154 487 -286 233
-131 421 -240 419 -242 -11 -11 -478 176 -597 239 -219 116 -374 192 -432 212
l-55 18 -30 -23 c-56 -40 -99 -38 -378 26 l-256 58 -77 -23 c-111 -32 -126
-45 -130 -115 -3 -51 -5 -56 -26 -56 -29 0 -64 -37 -72 -78 -12 -61 1 -70 310
-187 156 -60 283 -111 282 -113 -2 -2 -102 18 -222 43 -199 43 -228 52 -338
105 -109 53 -258 106 -343 125 -18 3 -51 25 -75 47 -61 57 -147 111 -218 138
-57 21 -64 27 -88 77 l-27 55 -290 -7 c-300 -6 -349 -12 -450 -51 -33 -13
-243 -91 -467 -173 -247 -91 -438 -168 -485 -194 -130 -74 -143 -79 -143 -64
0 19 150 208 207 260 25 23 75 62 112 87 l66 45 -37 5 -38 5 58 67 c33 39 92
91 140 124 81 55 132 111 132 145 0 25 -43 59 -95 75 -48 14 -49 14 -119 -21
-143 -71 -266 -184 -338 -311 -22 -39 -36 -54 -51 -54 -12 0 -94 12 -182 25
-88 14 -192 25 -230 25 -84 0 -174 22 -233 56 l-43 25 -315 -7 -314 -7 14 34
14 34 123 5 c109 4 120 6 96 17 -16 7 -67 13 -115 13 -70 0 -92 4 -112 20 -16
12 -22 22 -15 28 6 5 197 53 426 106 438 101 465 105 618 86 93 -12 134 -4
187 36 30 22 41 23 335 33 270 10 307 13 329 30 14 10 28 29 32 42 4 13 20 67
37 119 38 122 54 260 41 365 -5 44 -12 103 -15 130 -3 28 -12 224 -21 437 -14
363 -14 388 2 413 16 25 15 34 -27 243 l-43 217 32 195 c33 202 33 240 1 306
-11 22 -12 41 -5 78 12 65 -4 131 -57 232 -257 492 -272 518 -326 577 -89 96
-182 147 -304 167 -62 10 -67 9 -157 -29 -62 -26 -100 -37 -113 -32 -12 5 -82
-7 -176 -30 -143 -34 -172 -37 -346 -42 -177 -5 -192 -4 -229 15 -45 23 -42
24 -259 -34 -115 -30 -119 -32 -137 -68 -19 -38 -17 -80 9 -128 23 -44 89 -55
166 -27 41 15 136 17 260 6 l70 -6 -70 -27 c-38 -15 -194 -74 -345 -131 -151
-58 -284 -108 -295 -113 -12 -4 -5 7 18 28 33 32 37 41 37 85 l0 50 -42 12
c-73 22 -187 78 -273 135 -96 65 -225 187 -225 214 0 11 -11 35 -24 54 -34 51
-47 196 -30 338 7 58 13 110 14 116 0 6 47 16 115 24 108 12 117 14 140 42 23
28 30 55 25 103 -3 37 -43 66 -103 74 -55 7 -59 6 -144 -41 -82 -46 -97 -58
-106 -83 -2 -6 -9 -6 -18 1 -8 7 -28 9 -46 7 -28 -5 -35 -13 -64 -79 -23 -52
-37 -73 -47 -69 -8 3 -24 8 -37 11 -29 7 -37 55 -17 98 12 26 11 71 -4 110 -3
7 13 17 43 24 55 15 93 46 93 77 0 22 -5 30 -108 166 -117 153 -156 259 -154
419 1 173 68 348 199 518 57 76 64 89 62 126 -1 24 5 55 15 74 10 19 15 40 12
47 -4 10 1 10 22 -1 40 -21 105 -18 126 5 14 16 18 43 21 148 8 286 77 511
224 730 80 118 143 187 265 287 137 114 157 136 163 185 5 38 3 44 -41 87 -39
40 -50 46 -75 41 -19 -4 -31 -2 -34 6 -6 18 20 65 43 77 12 6 33 29 49 50 l29
40 6 -31 c3 -17 19 -43 34 -57 21 -20 30 -40 35 -76 13 -91 58 -126 160 -126
75 0 111 28 104 80 -2 21 -13 54 -23 75 -14 31 -15 43 -6 68 48 128 194 282
392 414 286 190 579 320 900 401 64 16 140 42 168 56 56 28 72 27 72 -4 0 -11
13 -34 29 -52 26 -30 34 -32 91 -33 54 0 64 3 82 25 18 22 20 35 15 97 -7 91
0 98 86 89 112 -13 109 -14 131 23 28 48 28 131 1 161 -28 32 -72 48 -146 55
-54 4 -72 1 -115 -19z m4156 -1906 c0 -11 -2 -20 -3 -20 -2 0 -12 9 -22 20
-18 19 -17 20 3 20 15 0 22 -6 22 -20z m-7006 -805 c7 -37 6 -39 -9 -24 -11
11 -14 24 -9 43 8 33 10 31 18 -19z m6900 -1229 c-82 -188 -88 -190 -224 -68
l-45 40 30 7 c65 14 153 58 220 109 39 29 72 52 74 50 2 -2 -23 -64 -55 -138z
m-5653 -185 c30 -10 78 -32 107 -49 52 -28 53 -30 27 -36 -21 -5 -44 4 -111
45 -107 66 -110 70 -23 40z m394 -254 c9 -10 -20 7 -100 54 -19 11 -35 27 -35
35 0 10 22 -1 63 -32 34 -26 67 -52 72 -57z m807 -776 c45 -52 93 -122 118
-170 22 -45 47 -84 55 -88 8 -3 15 -13 15 -24 0 -29 21 -67 46 -84 12 -8 25
-29 29 -47 4 -18 11 -38 16 -44 22 -28 59 -111 59 -134 0 -14 8 -55 19 -91 19
-65 19 -66 -5 -195 -13 -71 -23 -156 -24 -190 l0 -61 -77 -11 c-44 -7 -182
-12 -318 -12 l-240 1 58 33 c111 63 178 151 163 210 -3 13 -24 40 -46 60 -34
30 -44 35 -72 29 -18 -3 -55 -21 -81 -41 -26 -19 -67 -40 -91 -47 -24 -8 -58
-21 -75 -29 -44 -23 -101 -83 -101 -106 0 -13 23 -36 62 -65 34 -25 58 -45 53
-45 -6 0 -58 8 -117 19 -115 19 -125 24 -265 128 -69 50 -73 55 -73 92 0 31
-6 44 -26 60 -23 18 -41 21 -128 21 -103 0 -184 15 -258 48 l-39 17 343 245
c282 203 365 268 479 377 147 140 218 186 339 217 97 26 98 25 182 -73z m-756
-76 c-25 -19 -31 -19 -46 0 -11 13 -7 15 26 15 36 -1 38 -2 20 -15z m-321
-244 c-19 -17 -424 -301 -438 -307 -8 -3 -29 18 -56 56 -39 55 -45 80 -20 80
6 0 65 24 132 54 163 72 417 150 382 117z m-698 -368 c67 -83 65 -80 53 -102
-19 -36 -54 -26 -119 35 -52 48 -59 59 -50 76 10 18 41 36 66 37 6 1 29 -20
50 -46z m248 -233 c3 -5 1 -10 -4 -10 -6 0 -11 5 -11 10 0 6 2 10 4 10 3 0 8
-4 11 -10z"/>
<path d="M3155 4498 c-16 -7 -72 -56 -122 -109 -109 -112 -117 -136 -58 -188
40 -35 73 -46 114 -38 26 5 29 3 35 -25 18 -89 71 -90 208 -3 122 77 174 125
200 182 16 36 16 46 6 79 -8 21 -29 50 -50 67 l-38 30 -38 -17 c-37 -17 -39
-17 -75 4 -45 26 -139 35 -182 18z"/>
<path d="M3668 4353 c-18 -3 -44 -24 -78 -65 -49 -59 -51 -62 -44 -107 10 -72
38 -129 68 -137 37 -9 62 3 111 52 53 54 80 119 71 168 -7 35 -65 97 -89 95
-7 -1 -24 -4 -39 -6z"/>
<path d="M4047 9462 c-18 -2 -38 -18 -61 -47 -28 -37 -37 -63 -56 -159 -22
-113 -22 -115 -4 -152 26 -53 63 -76 127 -82 46 -4 57 -1 82 21 27 22 29 30
27 78 -1 30 5 85 14 122 13 55 14 76 5 107 -21 72 -78 119 -134 112z"/>
<path d="M4742 9440 c-116 -67 -160 -193 -105 -307 30 -64 83 -57 170 22 133
120 154 218 61 286 -23 16 -48 29 -57 29 -9 0 -40 -14 -69 -30z"/>
<path d="M5503 9432 c-41 -36 -43 -40 -66 -157 -17 -86 -21 -129 -14 -148 10
-30 61 -61 119 -72 50 -10 82 22 92 91 4 27 17 69 28 93 41 86 24 157 -52 209
-45 30 -58 28 -107 -16z"/>
<path d="M3330 9333 c-30 -5 -76 -69 -112 -155 -19 -45 -22 -71 -22 -178 0
-142 18 -207 67 -244 l28 -21 47 25 c75 40 92 74 90 183 -1 83 2 99 30 164 18
39 32 87 32 106 0 40 -35 89 -81 112 -28 15 -32 15 -79 8z"/>
<path d="M5845 9091 c-67 -46 -84 -65 -140 -147 -31 -46 -33 -106 -5 -151 17
-29 25 -33 64 -33 24 0 51 -3 60 -6 20 -8 146 111 187 175 44 69 40 112 -15
167 -24 24 -52 44 -62 43 -11 0 -50 -22 -89 -48z"/>
<path d="M2942 9061 c-38 -35 -42 -43 -42 -87 0 -56 30 -125 67 -154 33 -26
104 -27 125 -2 76 86 63 191 -30 256 -51 35 -69 33 -120 -13z"/>
<path d="M6300 8807 c-96 -40 -110 -96 -45 -182 l33 -43 -91 -42 c-105 -49
-127 -65 -127 -92 0 -31 37 -93 72 -123 26 -22 39 -26 71 -22 85 12 207 116
207 176 -1 29 -13 47 -54 79 l-28 22 25 9 c38 15 114 92 122 124 10 37 -16 74
-68 98 -52 23 -50 23 -117 -4z"/>
<path d="M2872 8700 c-36 -15 -74 -109 -74 -185 0 -109 83 -247 157 -261 64
-12 155 35 155 80 0 11 -9 38 -20 60 -10 23 -24 64 -30 91 -30 130 -40 153
-82 190 -42 36 -65 41 -106 25z"/>
<path d="M3395 8573 c-36 -34 -40 -42 -43 -98 -4 -72 19 -116 73 -142 29 -14
40 -15 75 -4 34 10 45 20 61 54 36 80 20 152 -44 201 -46 35 -75 32 -122 -11z"/>
<path d="M6790 8397 c-103 -38 -117 -46 -134 -77 -16 -30 -17 -41 -6 -79 6
-24 22 -54 35 -67 80 -80 335 48 335 169 0 31 -75 99 -107 96 -4 0 -60 -19
-123 -42z"/>
<path d="M7350 8344 c-64 -37 -89 -62 -101 -106 -19 -71 34 -168 90 -168 28 0
80 30 123 70 12 11 25 20 29 20 14 0 61 54 75 87 20 46 4 79 -48 103 -60 27
-114 25 -168 -6z"/>
<path d="M2537 8233 c-36 -6 -77 -66 -77 -113 0 -59 46 -94 176 -135 120 -38
156 -42 174 -20 20 24 28 82 18 130 -22 105 -140 161 -291 138z"/>
<path d="M2045 8220 c-38 -12 -85 -78 -85 -119 0 -23 10 -41 41 -70 72 -71
150 -78 257 -25 55 28 57 31 56 66 -3 99 -157 183 -269 148z"/>
<path d="M6413 8220 c-56 -12 -147 -96 -162 -147 -13 -45 6 -75 58 -92 61 -19
135 4 197 63 52 50 56 80 18 126 -36 42 -72 58 -111 50z"/>
<path d="M5397 8022 c-42 -5 -155 -115 -163 -158 -13 -72 41 -184 89 -184 49
0 148 85 181 155 29 60 16 122 -34 163 -27 22 -44 28 -73 24z"/>
<path d="M3695 7954 c-82 -55 -102 -84 -104 -146 -1 -38 57 -98 96 -98 37 0
108 46 162 105 48 52 54 96 20 139 -20 25 -69 57 -86 55 -4 0 -44 -25 -88 -55z"/>
<path d="M6828 7991 c-105 -41 -208 -139 -208 -196 0 -37 34 -88 67 -101 32
-14 38 -12 155 38 67 28 136 65 154 80 44 39 71 109 55 144 -23 52 -134 70
-223 35z"/>
<path d="M3263 7912 c-12 -4 -60 -38 -107 -77 -118 -97 -132 -141 -67 -206 58
-59 110 -53 209 23 72 56 112 112 112 159 0 32 -7 43 -42 73 -41 35 -61 41
-105 28z"/>
<path d="M6402 7845 c-31 -30 -61 -56 -66 -57 -6 -1 -46 -2 -89 -2 -91 -1
-109 -14 -121 -87 -6 -38 -4 -45 25 -75 17 -18 55 -43 82 -55 103 -44 207 -10
310 100 54 57 67 103 43 149 -18 35 -81 82 -109 82 -11 0 -44 -25 -75 -55z"/>
<path d="M7920 7808 c-65 -10 -114 -51 -132 -110 -9 -30 -8 -41 5 -61 27 -41
69 -52 151 -39 63 11 75 17 109 52 52 55 50 107 -4 136 -53 27 -74 30 -129 22z"/>
<path d="M7118 7789 c-65 -23 -117 -75 -119 -117 -2 -49 3 -67 24 -89 18 -20
31 -23 95 -23 l74 0 -6 -27 c-4 -19 0 -39 13 -59 17 -27 26 -32 73 -37 61 -6
88 7 118 56 26 41 25 53 -4 82 l-24 24 34 20 c26 16 34 27 34 49 0 34 -33 86
-73 116 -41 30 -161 33 -239 5z"/>
<path d="M2035 7657 c-22 -8 -51 -19 -64 -26 -45 -25 -110 -93 -121 -127 -24
-70 15 -154 69 -154 37 1 208 83 253 122 43 36 70 99 58 133 -17 48 -122 76
-195 52z"/>
<path d="M7646 7541 c-4 -6 -15 -11 -24 -11 -9 0 -29 -12 -44 -27 -41 -39 -37
-74 13 -128 57 -62 108 -79 212 -72 76 5 84 8 109 37 22 24 27 37 22 58 -12
52 -52 109 -91 128 -45 21 -187 32 -197 15z"/>
<path d="M7171 7202 c-99 -45 -119 -71 -100 -130 6 -20 23 -49 37 -64 49 -53
166 -31 244 46 63 62 68 125 12 158 -57 34 -101 31 -193 -10z"/>
<path d="M7541 7168 c-42 -14 -85 -77 -85 -124 0 -40 29 -74 85 -100 37 -16
50 -17 152 -6 120 13 137 21 137 71 0 43 -40 111 -81 138 -45 30 -150 40 -208
21z"/>
<path d="M6614 7097 c-45 -18 -89 -38 -98 -46 -29 -25 -19 -56 32 -96 26 -21
54 -46 63 -55 13 -16 28 -17 103 -13 81 5 90 8 121 37 41 39 63 105 47 141
-15 33 -65 57 -131 61 -45 2 -72 -3 -137 -29z"/>
<path d="M2308 7053 c-23 -6 -42 -57 -35 -99 8 -46 49 -134 84 -181 64 -84
249 -183 341 -183 49 0 87 28 103 77 19 58 -4 89 -114 152 -51 30 -144 96
-208 147 -109 88 -129 98 -171 87z"/>
<path d="M3825 7013 c-26 -6 -65 -42 -75 -68 -9 -24 5 -67 28 -88 9 -8 41 -18
70 -22 52 -7 54 -6 87 30 34 35 45 75 27 101 -12 20 -76 54 -97 53 -11 -1 -29
-3 -40 -6z"/>
<path d="M6104 6991 c-45 -11 -54 -19 -75 -65 -21 -47 -24 -103 -7 -141 23
-51 106 -46 174 10 99 82 97 159 -5 194 -37 12 -42 12 -87 2z"/>
<path d="M1655 6971 c-49 -12 -202 -100 -229 -131 -52 -62 -42 -149 20 -175
33 -14 41 -12 172 32 155 52 203 85 220 155 25 100 -53 150 -183 119z"/>
<path d="M3485 6799 c-86 -37 -115 -63 -115 -101 0 -54 52 -122 101 -133 37
-8 92 18 141 67 66 66 63 119 -6 168 -25 16 -46 30 -48 30 -2 -1 -34 -14 -73
-31z"/>
<path d="M6098 6661 c-70 -28 -108 -59 -129 -108 -16 -37 -17 -52 -8 -91 13
-58 34 -82 72 -82 66 0 215 100 235 158 13 38 -6 82 -50 116 -41 30 -57 31
-120 7z"/>
<path d="M5593 6624 c-82 -30 -144 -130 -128 -210 8 -48 62 -101 110 -110 46
-8 76 12 103 69 12 25 34 59 51 77 45 50 58 87 40 119 -28 51 -113 77 -176 55z"/>
<path d="M1678 6540 c-14 -4 -65 -41 -112 -81 -94 -81 -99 -94 -67 -157 56
-110 144 -107 264 11 87 85 95 147 25 200 -39 30 -73 39 -110 27z"/>
<path d="M5565 6201 c-31 -8 -130 -72 -152 -100 -17 -20 -16 -76 1 -90 7 -6
60 -14 118 -17 l104 -7 36 42 c20 24 39 54 43 68 14 59 -76 121 -150 104z"/>
<path d="M7480 5580 c-114 -13 -209 -59 -230 -110 -16 -39 -8 -115 16 -141 22
-25 62 -23 196 9 101 24 132 39 172 81 35 36 39 81 10 112 -17 19 -88 61 -96
58 -2 -1 -32 -5 -68 -9z"/>
<path d="M6846 5535 c-52 -69 -50 -101 13 -158 87 -77 198 -89 254 -27 23 26
27 37 22 63 -20 95 -89 155 -193 164 l-59 6 -37 -48z"/>
<path d="M6273 5188 c-37 -12 -73 -74 -73 -124 0 -47 55 -94 110 -94 11 0 30
-11 44 -25 35 -35 90 -34 135 4 31 26 35 34 35 78 0 31 -8 62 -20 84 -35 61
-157 102 -231 77z"/>
<path d="M1974 5170 c-11 -4 -33 -22 -47 -40 -56 -66 -22 -178 57 -191 35 -6
43 -2 77 28 74 67 71 134 -8 188 -40 27 -47 28 -79 15z"/>
<path d="M6987 5166 c-115 -41 -161 -120 -123 -211 21 -51 58 -71 104 -57 55
17 156 94 175 135 25 51 -1 100 -70 136 -27 14 -39 13 -86 -3z"/>
<path d="M5985 4962 c-54 -12 -115 -91 -115 -149 0 -39 43 -78 103 -94 23 -6
58 -20 78 -31 l35 -20 37 22 c29 17 40 32 52 73 28 96 -11 159 -120 189 -27 8
-59 12 -70 10z"/>
<path d="M6467 4890 c-43 -13 -98 -59 -113 -96 -12 -28 -12 -38 1 -75 28 -78
64 -100 130 -75 22 9 101 27 175 41 116 21 138 28 158 50 31 36 28 55 -15 97
-37 34 -41 36 -158 47 -66 7 -127 14 -135 16 -8 2 -28 -1 -43 -5z"/>
<path d="M5592 4716 c-45 -17 -86 -76 -84 -122 3 -64 44 -104 109 -104 14 0
48 -12 75 -27 l50 -27 -25 -21 c-46 -37 -60 -99 -37 -160 19 -49 42 -49 298
-1 228 43 238 46 264 75 30 34 38 94 18 132 -26 48 -130 63 -233 35 -29 -8
-69 -17 -89 -21 l-38 -6 0 47 c0 89 -57 158 -153 187 -76 23 -118 26 -155 13z"/>
</g>
</svg>
