<?xml version="1.0" standalone="no"?>
<!DOCTYPE svg PUBLIC "-//W3C//DTD SVG 20010904//EN"
 "http://www.w3.org/TR/2001/REC-SVG-20010904/DTD/svg10.dtd">
<svg version="1.0" xmlns="http://www.w3.org/2000/svg"
 width="1024.000000pt" height="1024.000000pt" viewBox="0 0 1024.000000 1024.000000"
 preserveAspectRatio="xMidYMid meet">
<metadata>
Created by potrace 1.10, written by Peter Selinger 2001-2011
</metadata>
<g transform="translate(0.000000,1024.000000) scale(0.100000,-0.100000)"
fill="#000000" stroke="none">
<path d="M7006 9178 c-29 -30 -44 -76 -160 -468 -71 -239 -146 -479 -167 -533
-157 -397 -413 -728 -761 -985 -82 -60 -213 -107 -345 -124 l-113 -15 0 586
c0 592 6 778 36 1130 16 177 20 200 46 249 34 66 35 96 4 127 -23 23 -82 45
-122 45 -32 0 -107 -36 -121 -59 -22 -35 -32 -309 -43 -1121 -10 -754 -15
-940 -27 -940 -2 0 -41 9 -85 20 -85 22 -227 80 -299 122 -203 119 -455 359
-654 623 -79 105 -86 119 -162 320 -44 116 -86 233 -94 260 -9 34 -13 114 -14
245 0 172 -2 198 -18 222 -23 34 -53 53 -101 67 -80 22 -102 -31 -113 -271 -9
-197 20 -362 98 -558 46 -116 179 -349 264 -465 69 -94 280 -326 363 -399 206
-184 428 -308 687 -386 l120 -36 7 -54 c3 -30 6 -198 7 -372 l1 -317 -52 -15
c-29 -8 -118 -31 -198 -51 -160 -41 -724 -262 -925 -363 -124 -62 -315 -178
-420 -255 -181 -134 -397 -338 -544 -513 -84 -101 -401 -554 -401 -574 0 -17
-128 -309 -150 -340 -14 -21 -68 -185 -155 -470 -27 -88 -94 -367 -123 -515
-48 -242 -60 -346 -92 -790 -16 -231 -50 -703 -75 -1049 l-46 -628 21 -52 c25
-58 55 -85 105 -93 41 -7 62 8 81 54 10 22 24 248 49 770 19 406 39 803 45
883 30 401 72 636 214 1205 111 443 147 550 245 735 28 52 51 104 51 114 0 52
195 368 327 531 79 97 287 310 388 396 309 263 754 507 1201 658 142 48 332
100 417 115 l37 7 0 -46 c0 -25 -7 -186 -15 -358 -8 -172 -28 -602 -45 -957
-16 -355 -36 -708 -42 -785 -8 -88 -13 -306 -13 -585 1 -428 2 -461 38 -870
51 -590 57 -711 57 -1153 l0 -389 26 -74 c27 -74 67 -124 100 -124 26 0 62 46
78 100 41 137 41 125 2 890 -21 416 -45 793 -56 885 -39 318 -51 701 -30 975
11 139 31 551 86 1730 20 437 39 797 41 800 3 3 136 5 296 4 274 0 300 -2 427
-27 199 -39 346 -83 404 -123 28 -19 56 -34 62 -34 22 0 160 -61 226 -101 37
-22 95 -65 128 -95 82 -76 236 -305 276 -411 17 -45 38 -93 47 -106 9 -14 185
-749 392 -1634 206 -884 386 -1649 400 -1699 88 -318 156 -737 171 -1041 7
-152 17 -183 67 -213 43 -26 62 -25 112 7 l42 26 7 146 7 146 -251 1180 c-138
649 -287 1347 -330 1550 -276 1305 -243 1166 -337 1410 -47 121 -98 258 -115
305 -102 292 -306 533 -557 660 -35 17 -87 47 -115 65 -61 41 -331 132 -496
169 -240 53 -317 61 -603 61 l-267 0 0 336 0 336 86 7 c301 25 563 170 821
456 240 266 425 563 536 860 86 231 286 820 292 861 10 68 -10 126 -60 176
-53 54 -84 56 -129 11z"/>
<path d="M6554 3923 c2 -10 10 -37 17 -60 7 -24 16 -43 20 -43 4 0 -1 27 -13
60 -11 33 -22 60 -25 60 -2 0 -2 -8 1 -17z"/>
</g>
</svg>
