<?xml version="1.0" standalone="no"?>
<!DOCTYPE svg PUBLIC "-//W3C//DTD SVG 20010904//EN"
 "http://www.w3.org/TR/2001/REC-SVG-20010904/DTD/svg10.dtd">
<svg version="1.0" xmlns="http://www.w3.org/2000/svg"
 width="240.000000pt" height="240.000000pt" viewBox="0 0 240.000000 240.000000"
 preserveAspectRatio="xMidYMid meet">
<metadata>
Created by potrace 1.11, written by Peter Selinger 2001-2013
</metadata>
<g transform="translate(0.000000,240.000000) scale(0.100000,-0.100000)"
fill="#000000" stroke="none">
<path d="M553 1813 c-13 -2 -25 -14 -27 -26 -3 -12 -23 -107 -45 -212 -68
-320 -72 -344 -69 -403 l3 -57 85 -3 85 -3 0 -277 c0 -152 2 -285 4 -294 4
-22 19 -24 104 -18 68 5 70 6 111 53 34 39 101 87 121 87 3 0 5 -18 5 -40 l0
-40 64 0 c62 0 64 1 103 43 38 41 40 46 34 88 -6 38 -4 400 2 405 1 1 57 4
125 6 l122 3 0 -35 c0 -19 3 -98 6 -175 6 -126 9 -144 31 -178 26 -41 88 -76
136 -77 23 0 27 4 27 30 l0 29 55 -27 55 -27 -6 -52 c-6 -50 -5 -54 26 -80 51
-44 53 -44 155 -31 l96 11 -2 161 c-4 185 1 400 8 439 4 22 11 27 33 27 27 0
29 2 35 63 7 60 3 75 -54 248 -33 101 -71 221 -84 266 -13 46 -25 84 -28 86
-6 6 -1290 16 -1316 10z m685 -35 c557 -2 604 -4 613 -20 18 -34 10 -36 -116
-30 -90 3 -125 2 -125 -7 0 -7 36 -11 115 -12 63 -1 121 -2 128 -3 6 0 24 -37
38 -81 57 -173 102 -325 98 -329 -3 -3 -1340 -21 -1466 -19 -58 1 -73 8 -66
32 5 20 12 21 182 21 97 0 171 4 164 8 -6 4 -83 9 -170 10 -87 2 -160 5 -162
7 -3 3 75 394 85 423 3 10 15 12 42 8 20 -3 309 -7 640 -8z m769 -560 c-4 -24
-6 -45 -6 -48 -1 -3 -63 -5 -139 -6 -142 -1 -710 -10 -1147 -19 -161 -4 -255
-2 -265 5 -12 8 -9 10 13 10 15 0 27 5 27 10 0 6 -11 10 -25 10 -14 0 -25 5
-25 11 0 6 18 9 42 8 128 -6 419 2 413 11 -4 6 -92 10 -233 10 -176 0 -223 3
-214 12 13 13 325 20 1136 26 l428 3 -5 -43z m-541 -112 c-3 -11 -6 -33 -6
-48 0 -20 -4 -26 -15 -22 -12 5 -15 -4 -15 -45 0 -51 15 -70 23 -28 2 12 4
-33 4 -100 1 -68 -2 -123 -6 -123 -22 0 -34 66 -38 209 -2 84 -2 159 1 166 2
7 16 13 31 13 22 0 26 -4 21 -22z m108 10 c-6 -15 -12 -64 -13 -107 -1 -18 -9
-30 -27 -38 -14 -6 -29 -9 -33 -7 -4 3 -7 33 -6 68 4 104 1 98 45 98 30 0 38
-3 34 -14z m152 -3 c-3 -10 -8 -60 -12 -110 -4 -51 -8 -93 -10 -93 -2 0 -28
16 -59 35 -61 39 -58 28 -39 153 l5 32 60 0 c53 0 60 -2 55 -17z m88 2 c-1 -5
-5 -93 -9 -195 -4 -102 -8 -196 -10 -210 -2 -14 -6 -60 -10 -102 -4 -43 -10
-78 -14 -78 -3 1 -19 11 -35 24 -24 20 -28 29 -22 52 8 29 9 51 21 269 3 61
10 143 17 183 11 70 12 73 37 70 14 -2 25 -7 25 -13z m120 -45 c-4 -33 -7
-166 -8 -295 l-1 -234 -27 -6 c-16 -3 -42 -8 -58 -11 l-31 -6 5 59 c6 59 11
141 22 358 4 66 8 127 10 135 1 8 3 25 3 38 1 19 6 22 46 22 l46 0 -7 -60z
m-906 -72 l3 -116 -33 -5 c-18 -3 -36 -2 -40 2 -5 5 -12 182 -9 228 1 7 16 11
39 9 l37 -2 3 -116z m62 37 c-5 -130 -4 -165 3 -266 7 -84 6 -97 -10 -111 -17
-16 -18 -13 -19 65 0 45 -1 136 -3 202 -4 187 -4 197 16 193 14 -3 16 -15 13
-83z m-370 -92 c0 -93 3 -219 6 -280 l5 -113 -56 0 -55 0 -1 233 c-1 127 -3
253 -4 280 l-1 47 52 0 52 0 2 -167z m50 145 c1 -13 7 -74 14 -137 19 -161 16
-336 -7 -358 -16 -16 -17 -14 -18 47 0 36 -2 74 -4 85 -7 33 -14 368 -9 377
10 16 24 8 24 -14z m141 5 c1 -10 3 -29 4 -43 2 -14 4 -63 6 -109 l2 -84 -46
-23 c-55 -28 -53 -33 -63 111 -4 55 -8 111 -9 125 -3 37 1 40 56 40 39 0 49
-3 50 -17z m727 -182 c57 -31 62 -36 62 -67 0 -39 -3 -40 -38 -16 -15 10 -58
36 -97 57 l-69 38 34 13 c19 7 37 12 40 11 3 -1 33 -17 68 -36z m-108 -44 c38
-13 108 -59 146 -93 23 -22 24 -64 0 -64 -6 0 -50 21 -98 46 l-88 45 0 40 c0
21 1 39 3 39 1 0 18 -6 37 -13z m-490 -17 c0 -6 -10 -14 -23 -19 -13 -5 -28
-16 -35 -24 -7 -8 -25 -18 -40 -22 -15 -3 -44 -17 -64 -31 -46 -30 -57 -30
-50 -1 9 39 212 133 212 97z m-6 -66 c4 -15 6 -27 4 -29 -15 -11 -173 -85
-184 -85 -32 0 -20 21 28 52 29 19 71 46 93 61 50 33 51 33 59 1z m491 -36
c33 -15 35 -53 3 -44 -13 3 -26 6 -30 6 -8 0 -11 50 -3 50 2 0 16 -5 30 -12z
m-488 -85 c-3 -40 -7 -48 -27 -54 -46 -13 -50 -11 -50 29 0 33 4 41 33 55 46
23 47 22 44 -30z"/>
<path d="M810 1720 c-190 -8 -127 -23 84 -20 99 1 206 3 236 5 30 2 98 4 150
4 71 1 91 4 77 12 -18 10 -274 10 -547 -1z"/>
<path d="M600 1662 c8 -5 46 -12 84 -15 39 -3 63 -2 55 3 -21 11 -157 23 -139
12z"/>
<path d="M975 1650 l-20 -7 20 -6 c30 -9 531 -20 523 -12 -9 10 -38 12 -273
20 -110 4 -207 8 -215 10 -8 1 -24 -1 -35 -5z"/>
<path d="M1585 1640 c-4 -6 40 -10 124 -10 81 0 131 4 131 10 0 6 -48 10 -124
10 -73 0 -127 -4 -131 -10z"/>
<path d="M1247 1574 c-4 -3 -396 -13 -524 -14 -94 0 -143 -4 -143 -11 0 -9
437 -5 640 6 30 2 161 4 290 5 162 1 224 5 200 11 -26 7 -455 9 -463 3z"/>
<path d="M1580 1490 c-10 -6 37 -10 142 -10 94 0 159 4 163 10 8 13 -285 13
-305 0z"/>
<path d="M645 1470 c-4 -6 27 -10 87 -10 64 0 88 3 78 10 -20 13 -157 13 -165
0z"/>
<path d="M1084 1469 c-10 -4 36 -8 104 -8 80 -1 122 3 122 10 0 12 -194 10
-226 -2z"/>
<path d="M1522 1435 c9 -10 45 -12 250 -16 87 -2 161 0 164 4 4 4 -6 7 -22 7
-16 0 -112 3 -214 7 -102 3 -182 2 -178 -2z"/>
<path d="M550 1380 c18 -11 164 -14 156 -2 -2 4 -42 9 -88 10 -59 2 -79 0 -68
-8z"/>
<path d="M1105 1371 c11 -5 49 -8 85 -8 36 0 74 3 85 8 12 4 -22 8 -85 8 -63
0 -97 -4 -85 -8z"/>
<path d="M1446 1371 c-5 -8 40 -11 161 -12 92 -1 201 -2 241 -3 41 0 76 2 79
7 2 4 -29 7 -69 7 -40 1 -148 3 -239 7 -118 4 -168 2 -173 -6z"/>
<path d="M920 1352 c0 -4 14 -9 30 -10 17 -1 30 2 30 8 0 5 -13 10 -30 10 -16
0 -30 -4 -30 -8z"/>
<path d="M1845 1230 c-4 -6 13 -10 44 -10 28 0 51 5 51 10 0 6 -20 10 -44 10
-25 0 -48 -4 -51 -10z"/>
<path d="M1290 1220 c0 -6 27 -10 60 -10 33 0 60 4 60 10 0 6 -27 10 -60 10
-33 0 -60 -4 -60 -10z"/>
<path d="M1588 1200 c-81 -3 -152 -10 -157 -15 -7 -7 89 -9 267 -7 152 2 279
6 281 8 2 2 2 6 -1 9 -8 8 -226 11 -390 5z"/>
<path d="M948 1188 c-34 -9 -8 -12 102 -9 28 1 50 6 50 11 0 12 -109 10 -152
-2z"/>
<path d="M1516 1074 c-11 -28 -6 -54 9 -54 10 0 15 10 15 29 0 34 -15 49 -24
25z"/>
<path d="M1759 985 c-2 -141 -2 -146 11 -125 5 9 9 49 10 90 2 103 1 110 -10
110 -6 0 -10 -32 -11 -75z"/>
<path d="M1857 993 c-5 -60 3 -96 18 -82 2 3 6 36 7 74 4 93 -17 100 -25 8z"/>
<path d="M1849 800 c-1 -5 -2 -16 -3 -22 -1 -7 2 -21 7 -32 7 -14 11 -16 17
-6 4 7 6 20 5 29 -2 9 -4 22 -4 29 -1 14 -20 16 -22 2z"/>
<path d="M1887 634 c-14 -14 -8 -74 8 -74 9 0 15 9 14 23 -1 31 -13 60 -22 51z"/>
<path d="M978 1008 c-8 -22 4 -68 18 -68 10 0 14 13 14 40 0 28 -4 40 -14 40
-8 0 -16 -5 -18 -12z"/>
<path d="M645 1028 c-11 -28 -10 -81 2 -85 7 -2 16 12 22 34 9 30 8 41 -4 52
-12 13 -15 13 -20 -1z"/>
<path d="M666 874 c-18 -46 3 -129 24 -95 6 10 6 66 1 104 -2 13 -19 7 -25 -9z"/>
<path d="M657 683 c-5 -8 -10 -50 -8 -70 2 -28 31 -12 33 17 0 17 1 35 2 42 1
14 -20 22 -27 11z"/>
</g>
</svg>
