<?xml version="1.0" standalone="no"?>
<!DOCTYPE svg PUBLIC "-//W3C//DTD SVG 20010904//EN"
 "http://www.w3.org/TR/2001/REC-SVG-20010904/DTD/svg10.dtd">
<svg version="1.0" xmlns="http://www.w3.org/2000/svg"
 width="60.000000pt" height="60.000000pt" viewBox="0 0 60.000000 60.000000"
 preserveAspectRatio="xMidYMid meet">
<metadata>
Created by potrace 1.10, written by Peter Selinger 2001-2011
</metadata>
<g transform="translate(0.000000,60.000000) scale(0.100000,-0.100000)"
fill="#000000" stroke="none">
<path d="M267 464 c-34 -11 -53 -12 -66 -4 -27 14 -31 2 -19 -53 15 -71 -5
-181 -42 -234 -35 -51 -26 -56 17 -10 47 49 61 86 69 180 6 80 9 88 30 93 57
15 59 11 62 -146 3 -172 7 -180 87 -180 64 0 92 18 76 48 -6 11 -11 36 -12 54
l-1 33 -8 -32 c-11 -48 -29 -64 -64 -61 l-31 3 0 155 c0 92 -4 158 -10 162
-14 11 -33 9 -88 -8z"/>
</g>
</svg>
