<?xml version="1.0" standalone="no"?>
<!DOCTYPE svg PUBLIC "-//W3C//DTD SVG 20010904//EN"
 "http://www.w3.org/TR/2001/REC-SVG-20010904/DTD/svg10.dtd">
<svg version="1.0" xmlns="http://www.w3.org/2000/svg"
 width="240.000000pt" height="240.000000pt" viewBox="0 0 240.000000 240.000000"
 preserveAspectRatio="xMidYMid meet">
<metadata>
Created by potrace 1.11, written by Peter Selinger 2001-2013
</metadata>
<g transform="translate(0.000000,240.000000) scale(0.100000,-0.100000)"
fill="#000000" stroke="none">
<path d="M1460 1809 c-52 -4 -138 -10 -190 -13 -52 -4 -120 -8 -150 -11 -30
-2 -93 -7 -140 -11 -47 -3 -99 -12 -117 -19 -37 -16 -39 -24 -48 -190 -10
-180 -32 -304 -111 -620 -78 -313 -107 -394 -178 -487 -19 -25 -32 -48 -29
-52 26 -26 84 27 132 122 45 90 77 187 110 337 17 77 46 208 65 292 37 160 39
178 56 393 6 74 13 140 15 146 5 17 76 24 450 49 192 13 233 16 288 21 l57 6
1 -79 c0 -43 2 -89 5 -103 2 -14 15 -104 29 -200 73 -493 120 -670 215 -810
48 -71 135 -160 156 -160 37 0 24 33 -35 91 -34 34 -72 80 -86 103 -36 62 -93
225 -125 361 -41 170 -100 568 -107 712 -5 113 -7 122 -27 127 -26 7 -113 5
-236 -5z"/>
</g>
</svg>
