<?xml version="1.0" standalone="no"?>
<!DOCTYPE svg PUBLIC "-//W3C//DTD SVG 20010904//EN"
 "http://www.w3.org/TR/2001/REC-SVG-20010904/DTD/svg10.dtd">
<svg version="1.0" xmlns="http://www.w3.org/2000/svg"
 width="1024.000000pt" height="1024.000000pt" viewBox="0 0 1024.000000 1024.000000"
 preserveAspectRatio="xMidYMid meet">
<metadata>
Created by potrace 1.10, written by Peter Selinger 2001-2011
</metadata>
<g transform="translate(0.000000,1024.000000) scale(0.100000,-0.100000)"
fill="#000000" stroke="none">
<path d="M5186 9311 c-17 -11 -49 -57 -80 -115 -49 -90 -52 -100 -46 -145 7
-58 48 -118 87 -127 17 -5 37 -1 56 9 21 12 34 14 47 7 10 -6 63 -10 118 -10
130 0 267 -39 404 -116 142 -80 178 -129 222 -302 25 -98 60 -193 95 -257 29
-54 29 -68 -2 -123 -49 -88 -22 -157 67 -170 l48 -7 -61 -83 c-74 -100 -82
-118 -87 -200 -3 -51 -11 -79 -45 -142 -143 -267 -388 -473 -699 -585 -74 -27
-77 -27 -254 -21 -170 7 -183 9 -250 37 -97 41 -203 109 -308 196 -109 91
-122 110 -115 166 5 33 1 51 -13 75 -22 36 -99 78 -159 88 l-41 7 26 24 c23
21 26 30 22 68 -3 24 -15 57 -28 75 l-22 31 26 197 c33 247 69 343 205 549
127 194 389 422 503 439 84 13 137 65 124 121 -4 15 -22 44 -40 63 -24 25 -35
48 -39 78 -9 74 -67 118 -140 107 -62 -9 -87 -50 -87 -137 0 -61 -2 -66 -27
-77 -54 -25 -189 -119 -247 -172 -67 -61 -177 -196 -253 -309 -136 -203 -212
-435 -229 -695 l-7 -110 -47 -36 c-87 -68 -104 -152 -52 -263 53 -113 140
-186 242 -202 37 -6 43 -11 68 -60 21 -42 59 -82 179 -188 l153 -134 -249
-221 c-267 -237 -381 -319 -602 -435 -347 -182 -741 -290 -1134 -312 -115 -6
-122 -6 -170 18 -143 73 -311 94 -457 59 -144 -34 -258 -103 -293 -177 -24
-50 -16 -121 19 -174 l27 -41 -30 -48 c-43 -67 -40 -92 16 -152 44 -47 46 -53
44 -102 -2 -50 7 -77 56 -162 6 -11 21 -41 33 -67 19 -41 27 -49 63 -59 23 -6
74 -9 112 -7 83 6 145 34 225 102 l54 46 131 0 132 0 494 115 c271 62 494 113
495 112 1 -1 -7 -34 -18 -74 -19 -69 -21 -71 -43 -61 -19 8 -30 6 -57 -10 -69
-43 -67 -34 -105 -379 -33 -297 -35 -326 -25 -433 24 -247 110 -471 254 -663
l50 -67 -17 -328 c-10 -180 -15 -365 -11 -412 21 -273 112 -705 227 -1071 44
-142 63 -185 140 -320 89 -156 90 -157 157 -198 38 -23 73 -41 79 -41 6 0 30
-25 53 -55 61 -79 214 -222 297 -278 253 -168 608 -321 936 -402 200 -49 575
-105 704 -105 86 0 121 -5 203 -29 124 -37 199 -46 275 -32 70 13 164 57 219
103 71 58 541 616 586 694 161 281 205 575 130 857 -11 40 -27 101 -36 137
-66 270 -123 388 -269 556 l-62 71 -7 104 c-9 141 -31 287 -68 449 -17 74 -34
173 -38 220 -10 103 -49 263 -96 386 -19 51 -34 103 -34 117 0 14 -14 62 -31
107 l-31 81 31 127 c37 147 101 288 183 402 40 55 97 169 216 430 88 195 166
376 173 403 14 59 8 130 -16 180 l-18 38 77 162 c66 140 76 169 76 216 0 77
-45 157 -145 256 -74 74 -111 99 -214 141 -22 9 1 23 222 136 365 187 540 309
762 532 128 129 259 292 301 376 20 39 25 63 22 100 l-3 48 36 5 c54 7 90 28
116 66 34 50 39 80 20 113 l-16 28 37 10 c25 6 50 25 74 54 32 38 36 48 29 74
-24 81 -62 105 -157 100 l-63 -3 5 36 c9 56 -17 106 -68 129 -24 11 -52 20
-63 20 -15 0 -24 10 -30 32 -15 49 -75 80 -140 74 -46 -5 -54 -10 -102 -63
-96 -106 -145 -228 -146 -360 l0 -74 -66 -61 c-161 -148 -394 -301 -600 -394
-142 -64 -478 -177 -506 -170 -24 6 -96 73 -149 140 -54 67 -144 130 -231 163
-41 15 -75 33 -75 40 0 7 14 62 31 123 28 100 30 114 19 164 -9 44 -19 62 -51
90 -21 20 -46 36 -54 36 -8 0 -17 10 -20 23 -103 428 -109 446 -189 566 -111
165 -256 271 -455 331 -58 18 -71 26 -71 43 0 11 -20 40 -45 63 l-45 43 -40
-14 c-22 -8 -56 -25 -77 -39 -21 -15 -40 -26 -44 -26 -3 0 -11 18 -18 39 -13
45 -71 101 -104 101 -12 0 -35 -9 -51 -19z m3008 -1599 c-17 -41 -24 -53 -107
-174 -31 -46 -72 -92 -90 -103 -17 -10 -81 -56 -142 -100 -464 -344 -970 -608
-1465 -766 -216 -68 -264 -104 -262 -195 0 -32 7 -52 26 -74 14 -17 28 -47 31
-68 3 -20 20 -71 37 -112 17 -41 51 -150 75 -243 82 -321 128 -635 138 -947 3
-107 8 -213 10 -235 l5 -40 -128 -75 c-114 -67 -152 -98 -372 -299 -135 -123
-255 -233 -267 -244 l-22 -19 -124 75 c-69 42 -158 90 -198 106 -241 95 -594
191 -874 236 -88 15 -162 28 -164 31 -2 2 -4 140 -5 306 -1 245 2 325 17 418
26 168 61 303 102 400 42 99 52 154 36 202 -16 47 -92 120 -130 124 -21 3
-126 -34 -333 -117 -167 -67 -323 -128 -348 -137 -25 -8 -58 -21 -75 -28 -171
-69 -632 -194 -925 -249 -74 -14 -195 -39 -268 -56 -154 -36 -137 -40 -254 64
l-67 60 19 25 c50 63 31 140 -52 218 -46 43 -47 45 -21 40 15 -2 69 -10 118
-17 51 -6 103 -19 121 -30 29 -18 45 -18 275 -9 251 9 347 23 569 80 462 118
958 391 1404 772 65 56 133 121 150 146 17 24 36 51 42 59 9 14 27 12 143 -16
104 -24 155 -31 236 -31 258 0 541 94 740 246 l47 35 111 -14 112 -14 348 100
348 101 47 -17 c26 -10 56 -17 68 -17 27 0 60 37 69 77 5 26 14 34 43 44 57
18 368 143 457 184 194 89 361 180 509 277 l159 104 48 -24 49 -23 -16 -37z
m-1829 -162 c41 -16 135 -93 135 -111 0 -9 14 -35 31 -58 17 -24 29 -44 27
-45 -2 -2 -84 -28 -184 -59 -182 -57 -309 -84 -297 -63 4 6 43 58 88 116 54
69 89 126 105 168 24 67 37 74 95 52z m595 -1076 c89 -20 212 -82 287 -144 95
-77 95 -74 24 -195 -34 -58 -61 -114 -61 -125 0 -23 -350 -480 -378 -493 -9
-5 -55 -56 -102 -114 -78 -98 -85 -104 -92 -82 -4 13 -46 211 -92 439 -47 228
-97 449 -111 490 -20 59 -23 77 -13 83 7 5 99 42 203 82 205 79 232 84 335 59z
m-2810 -892 c0 -4 -13 -82 -30 -172 -21 -114 -30 -198 -31 -275 0 -60 -4 -118
-8 -128 -4 -10 -33 -29 -66 -42 -83 -34 -134 -90 -226 -247 -45 -76 -84 -138
-88 -138 -9 0 -50 195 -62 297 -15 131 2 258 58 428 26 77 47 141 48 143 3 3
388 141 398 141 4 1 7 -3 7 -7z m2944 -199 c-13 -32 -77 -143 -142 -248 -64
-104 -147 -248 -184 -320 l-67 -130 0 70 c-1 39 6 90 15 115 9 27 13 60 10 85
-5 38 0 48 92 180 84 120 111 150 197 222 55 45 101 82 102 83 2 0 -9 -26 -23
-57z m-3017 -1080 c-2 -2 -14 0 -27 5 -70 26 -126 -31 -118 -119 3 -28 14 -63
25 -77 28 -37 89 -70 145 -78 47 -6 48 -7 127 -123 215 -312 466 -519 798
-657 l91 -38 -23 -41 c-13 -22 -31 -66 -41 -97 -15 -49 -16 -65 -5 -112 11
-51 14 -55 61 -75 27 -12 56 -21 65 -21 28 0 62 45 79 103 15 52 29 69 184
224 222 223 435 393 672 535 52 32 165 106 250 166 125 88 158 116 175 149 11
23 30 47 42 54 13 7 25 20 29 31 3 10 8 18 12 18 4 0 20 -44 37 -98 16 -53 39
-117 51 -142 23 -49 30 -74 81 -295 65 -282 72 -321 87 -445 53 -439 10 -985
-115 -1490 -45 -181 -52 -196 -219 -500 -63 -114 -110 -211 -110 -226 0 -48
-74 -130 -167 -185 l-84 -49 -167 0 c-401 0 -742 79 -1107 255 -116 56 -161
86 -419 284 -159 121 -296 221 -305 221 -13 0 -55 85 -164 328 -188 420 -220
514 -266 787 -45 264 -48 414 -15 865 31 443 79 705 183 1013 36 107 45 124
98 180 l58 63 3 -205 c1 -112 1 -206 -1 -208z m-565 -67 c8 -6 31 -25 51 -41
l36 -31 -12 -73 -12 -74 -39 49 c-22 27 -44 55 -50 63 -13 16 -46 393 -38 424
4 12 15 -50 27 -142 15 -113 26 -167 37 -175z m2914 117 c-2 -10 -8 -48 -12
-85 -3 -37 -11 -74 -18 -82 -12 -17 -599 -406 -604 -401 -2 2 5 23 16 47 36
80 307 328 527 481 87 61 99 66 91 40z m-1746 -224 c235 -53 445 -106 500
-126 134 -50 297 -130 422 -208 l106 -67 -81 -72 c-45 -40 -140 -119 -212
-175 -146 -115 -130 -111 -255 -58 -284 123 -463 271 -629 522 -60 91 -147
183 -219 231 -72 48 -83 58 -57 51 11 -4 202 -47 425 -98z m2488 -1763 c81
-135 135 -379 135 -606 0 -144 0 -146 -32 -201 -17 -31 -31 -67 -31 -81 0 -14
-8 -36 -18 -49 -11 -13 -22 -37 -26 -54 -15 -60 -172 -294 -297 -440 -37 -44
-105 -117 -151 -162 -72 -71 -92 -84 -156 -107 l-74 -26 23 37 c12 21 53 74
89 118 86 103 103 136 97 189 -3 35 3 54 43 126 147 266 311 851 346 1238 4
39 9 72 13 72 3 0 21 -25 39 -54z"/>
<path d="M5721 6101 c-34 -9 -60 -49 -67 -103 -6 -43 -4 -49 24 -77 29 -29 35
-31 111 -31 94 0 113 12 131 80 24 91 -19 141 -120 139 -30 -1 -66 -4 -79 -8z"/>
<path d="M4812 5963 c-38 -49 -47 -101 -28 -148 18 -42 63 -65 127 -65 35 0
47 6 75 35 45 48 63 108 43 144 -19 35 -93 71 -145 71 -37 0 -46 -5 -72 -37z"/>
<path d="M6234 3442 c-57 -18 -120 -158 -131 -294 -5 -58 -9 -68 -25 -68 -29
0 -104 -75 -126 -128 -11 -26 -23 -68 -27 -94 -7 -44 -4 -51 29 -97 35 -47 39
-49 97 -56 l62 -7 -7 -61 c-3 -33 -6 -72 -6 -87 0 -23 -7 -31 -49 -49 -68 -29
-96 -70 -96 -141 0 -41 6 -63 23 -87 18 -26 22 -44 22 -108 0 -116 38 -173
108 -162 32 6 45 2 87 -27 50 -33 50 -33 94 -18 36 12 47 22 62 57 18 40 19
58 11 228 -7 156 -11 189 -28 218 -20 34 -20 38 -4 364 13 254 20 340 33 374
21 54 22 123 3 160 -18 33 -81 91 -99 90 -7 -1 -22 -4 -33 -7z"/>
<path d="M5398 8653 c-16 -3 -41 -21 -61 -44 -42 -49 -78 -57 -132 -29 -21 11
-50 20 -63 20 -31 0 -76 -24 -100 -55 -24 -30 -49 -31 -124 -5 -87 30 -160 36
-212 16 -52 -20 -74 -49 -82 -110 -6 -42 -5 -44 41 -79 26 -20 72 -46 103 -58
71 -27 203 -36 269 -19 27 7 95 16 153 20 132 10 181 30 267 113 95 90 113
137 73 185 -17 21 -80 54 -97 51 -4 -1 -20 -4 -35 -6z"/>
<path d="M5739 8165 c-187 -105 -236 -119 -399 -114 l-115 4 -9 -46 c-20 -104
52 -165 205 -175 104 -7 195 12 288 61 148 79 206 145 181 206 -11 25 -82 89
-100 89 -4 0 -27 -11 -51 -25z"/>
<path d="M4758 7975 l-125 -84 -34 36 c-59 61 -103 75 -167 52 -25 -8 -34 -20
-47 -59 -15 -47 -15 -50 5 -90 30 -59 89 -120 135 -141 93 -43 243 -13 357 71
80 59 118 107 125 158 4 31 0 44 -22 70 -15 18 -44 41 -65 52 l-37 19 -125
-84z"/>
<path d="M5048 7726 c-51 -14 -119 -57 -147 -93 -24 -29 -35 -116 -20 -146 41
-80 103 -99 161 -48 24 21 48 30 88 35 67 9 137 43 144 71 14 50 6 104 -19
134 -41 48 -130 68 -207 47z"/>
<path d="M5170 7315 c-74 -37 -91 -42 -130 -38 -97 11 -190 -42 -190 -110 l0
-35 220 -7 219 -7 30 23 c46 37 72 94 59 131 -11 32 -80 88 -107 87 -9 0 -54
-20 -101 -44z"/>
</g>
</svg>
