<?xml version="1.0" standalone="no"?>
<!DOCTYPE svg PUBLIC "-//W3C//DTD SVG 20010904//EN"
 "http://www.w3.org/TR/2001/REC-SVG-20010904/DTD/svg10.dtd">
<svg version="1.0" xmlns="http://www.w3.org/2000/svg"
 width="1024.000000pt" height="1024.000000pt" viewBox="0 0 1024.000000 1024.000000"
 preserveAspectRatio="xMidYMid meet">
<metadata>
Created by potrace 1.10, written by Peter Selinger 2001-2011
</metadata>
<g transform="translate(0.000000,1024.000000) scale(0.100000,-0.100000)"
fill="#000000" stroke="none">
<path d="M5575 9604 c-108 -17 -482 -108 -690 -169 -485 -142 -855 -289 -1188
-472 -208 -114 -277 -157 -425 -270 -97 -74 -210 -167 -250 -206 -157 -155
-244 -324 -308 -602 -30 -126 -27 -439 5 -604 19 -101 28 -129 52 -155 15 -18
31 -45 35 -62 13 -59 256 -283 443 -408 329 -220 845 -386 1373 -442 118 -13
214 -15 425 -11 256 4 273 4 289 -14 11 -12 26 -74 44 -177 39 -227 34 -360
-28 -763 l-46 -306 -201 -7 c-582 -18 -817 -19 -985 -2 -411 43 -784 136
-1135 283 -393 166 -551 296 -748 615 -27 43 -71 62 -112 48 -44 -15 -85 -63
-85 -101 0 -59 109 -241 214 -356 61 -67 192 -171 258 -204 23 -12 70 -45 107
-76 73 -60 198 -125 336 -174 375 -133 789 -226 1169 -263 185 -19 413 -20
830 -5 164 5 300 9 301 7 2 -2 -23 -116 -55 -255 -140 -606 -213 -808 -537
-1493 -146 -307 -155 -324 -381 -674 -245 -378 -252 -388 -401 -561 -362 -421
-873 -832 -1226 -985 -200 -87 -226 -101 -246 -135 -40 -65 -9 -185 50 -193
44 -7 270 89 416 177 370 221 595 401 938 748 279 282 392 419 591 718 192
289 303 492 530 966 290 607 343 763 534 1563 l38 159 185 34 c518 94 959 231
1449 448 384 170 595 310 820 541 271 279 483 658 549 981 11 57 27 116 35
132 42 80 37 162 -12 214 -45 48 -72 58 -111 41 -65 -27 -85 -69 -122 -259
-90 -466 -328 -854 -679 -1104 -99 -71 -613 -361 -750 -423 -362 -165 -876
-313 -1258 -364 l-54 -7 6 44 c4 24 22 206 42 404 47 473 43 561 -36 800 -16
50 -32 102 -35 116 -2 15 -13 36 -23 48 -25 32 -102 39 -462 46 -340 7 -490
17 -660 46 -385 67 -784 214 -1035 382 -287 192 -386 323 -435 570 -26 132 -1
441 41 512 10 17 21 51 25 75 4 25 12 52 19 60 7 8 18 32 25 53 8 27 52 78
153 181 223 225 425 375 692 512 181 93 238 115 735 285 756 258 741 254 1040
254 150 0 215 -4 280 -18 126 -27 275 -79 386 -136 84 -42 107 -60 154 -116
131 -156 212 -320 250 -505 19 -92 21 -127 17 -280 -9 -293 -71 -496 -223
-722 -69 -102 -213 -258 -239 -258 -8 0 -151 -90 -318 -201 -249 -166 -318
-217 -394 -292 -92 -91 -108 -118 -81 -145 8 -8 57 -12 154 -12 l142 0 211
165 c147 115 229 172 272 190 162 66 433 372 569 643 160 320 198 644 114 969
-37 142 -70 215 -171 376 -51 82 -93 151 -93 155 0 4 -38 44 -86 89 -175 166
-363 267 -599 318 -68 15 -358 28 -420 19z"/>
<path d="M6521 4187 c-2 -17 32 -122 36 -112 2 6 -5 35 -16 65 -11 30 -20 51
-20 47z"/>
</g>
</svg>
