<?xml version="1.0" standalone="no"?>
<!DOCTYPE svg PUBLIC "-//W3C//DTD SVG 20010904//EN"
 "http://www.w3.org/TR/2001/REC-SVG-20010904/DTD/svg10.dtd">
<svg version="1.0" xmlns="http://www.w3.org/2000/svg"
 width="1024.000000pt" height="1024.000000pt" viewBox="0 0 1024.000000 1024.000000"
 preserveAspectRatio="xMidYMid meet">
<metadata>
Created by potrace 1.10, written by Peter Selinger 2001-2011
</metadata>
<g transform="translate(0.000000,1024.000000) scale(0.100000,-0.100000)"
fill="#000000" stroke="none">
<path d="M6204 8630 c-28 -10 -88 -39 -134 -65 l-84 -47 -945 -225 -946 -225
-230 -1 c-213 -2 -237 0 -320 22 -49 13 -119 36 -154 52 -35 16 -67 29 -71 29
-3 0 -16 -28 -29 -63 -26 -75 -22 -90 43 -181 51 -70 205 -223 287 -285 83
-61 204 -121 246 -121 49 0 143 36 313 119 219 107 538 206 1220 378 374 94
490 105 490 47 0 -8 -31 -79 -69 -158 -57 -119 -126 -230 -406 -647 -185 -277
-341 -508 -346 -513 -5 -6 -35 15 -73 52 -35 34 -67 62 -71 62 -3 0 -19 -7
-35 -15 -20 -10 -32 -27 -40 -53 -11 -44 3 -94 89 -305 82 -201 145 -431 194
-703 l23 -130 -371 -48 c-203 -26 -557 -72 -785 -101 -228 -30 -768 -100
-1200 -156 l-785 -101 -235 17 c-230 16 -240 18 -464 76 -125 33 -229 59 -231
57 -1 -2 13 -88 32 -193 23 -130 39 -195 51 -207 9 -9 104 -93 210 -185 184
-162 198 -172 330 -237 166 -83 224 -106 261 -106 56 0 153 39 269 108 196
117 346 184 584 261 277 89 435 121 1050 210 1017 148 1313 190 1316 186 2 -1
12 -268 23 -592 36 -1026 17 -1536 -77 -2098 -43 -258 -93 -424 -179 -595 -48
-95 -73 -120 -122 -120 -191 0 -550 216 -1001 602 l-125 107 -23 -31 -23 -31
22 -31 c12 -17 96 -131 188 -253 319 -425 474 -674 603 -973 25 -56 60 -127
78 -157 42 -71 123 -154 174 -178 55 -27 152 -32 197 -10 256 121 578 887 711
1690 122 739 121 1780 -2 2595 l-18 116 946 57 c520 32 970 58 1000 58 30 -1
442 -35 915 -77 937 -83 940 -83 994 -30 43 44 27 155 -40 273 -87 152 -445
443 -676 550 -108 50 -154 52 -320 15 -81 -19 -703 -113 -1498 -227 -748 -107
-1375 -197 -1393 -200 -22 -4 -34 -2 -36 7 -94 311 -170 514 -277 737 -38 79
-69 145 -69 147 0 1 297 288 660 638 582 560 831 787 935 851 91 56 119 112
91 180 -36 84 -227 240 -402 328 -122 61 -173 71 -240 47z"/>
</g>
</svg>
