<?xml version="1.0" standalone="no"?>
<!DOCTYPE svg PUBLIC "-//W3C//DTD SVG 20010904//EN"
 "http://www.w3.org/TR/2001/REC-SVG-20010904/DTD/svg10.dtd">
<svg version="1.0" xmlns="http://www.w3.org/2000/svg"
 width="1024.000000pt" height="1024.000000pt" viewBox="0 0 1024.000000 1024.000000"
 preserveAspectRatio="xMidYMid meet">
<metadata>
Created by potrace 1.10, written by Peter Selinger 2001-2011
</metadata>
<g transform="translate(0.000000,1024.000000) scale(0.100000,-0.100000)"
fill="#000000" stroke="none">
<path d="M6818 9610 c-14 -5 -91 -33 -170 -63 -133 -52 -220 -73 -1258 -306
-613 -138 -1128 -253 -1145 -256 -16 -3 -136 -7 -265 -9 -306 -6 -497 19 -773
99 -48 14 -94 25 -102 25 -50 0 -64 -132 -21 -204 48 -82 205 -216 393 -335
217 -137 393 -211 505 -211 59 0 73 5 238 88 100 50 228 106 300 129 121 40
837 243 1050 298 58 15 152 40 210 55 217 58 395 94 467 94 61 1 75 -2 96 -22
59 -56 34 -135 -97 -309 -192 -255 -843 -957 -1213 -1308 l-193 -183 -37 9
c-64 15 -91 11 -123 -18 -31 -29 -49 -89 -42 -146 5 -41 65 -93 162 -138 123
-59 207 -118 289 -205 157 -165 273 -392 365 -712 33 -113 182 -839 175 -846
-8 -8 -369 -232 -674 -418 -402 -246 -1221 -725 -1350 -791 -68 -34 -221 -93
-279 -108 -69 -17 -197 -6 -291 26 -60 20 -301 131 -376 172 -3 2 -31 -35 -63
-82 -50 -74 -57 -90 -52 -118 15 -78 161 -261 373 -468 268 -261 446 -364 542
-315 18 10 58 45 89 79 148 161 295 297 397 369 664 465 941 664 1430 1024
282 208 295 217 300 213 2 -2 10 -87 19 -189 9 -102 18 -207 21 -235 7 -80 19
-515 19 -690 0 -953 -101 -1606 -315 -2040 -91 -186 -205 -309 -336 -365 -51
-22 -74 -25 -198 -27 -237 -3 -545 51 -875 154 -63 19 -128 35 -143 35 -29 -1
-60 -19 -55 -32 2 -4 59 -49 128 -100 491 -365 773 -626 893 -826 39 -65 105
-132 155 -158 86 -44 281 10 449 126 198 136 435 434 556 698 221 483 335
1065 373 1910 9 184 8 700 0 884 -18 370 -65 823 -121 1150 -14 82 -24 150
-22 151 1 1 214 181 472 401 259 220 541 460 628 533 150 127 157 135 144 155
-8 12 -31 25 -51 30 -36 10 -39 8 -643 -397 -334 -224 -608 -405 -609 -404 -2
2 -35 114 -73 249 -100 350 -151 471 -287 674 -142 214 -324 392 -581 571 -68
47 -123 89 -123 92 0 12 47 52 435 363 209 167 502 402 650 522 977 787 997
802 1225 926 159 87 185 104 213 142 33 45 38 74 20 119 -26 66 -176 184 -414
327 -175 105 -339 162 -411 142z"/>
</g>
</svg>
