<?xml version="1.0" standalone="no"?>
<!DOCTYPE svg PUBLIC "-//W3C//DTD SVG 20010904//EN"
 "http://www.w3.org/TR/2001/REC-SVG-20010904/DTD/svg10.dtd">
<svg version="1.0" xmlns="http://www.w3.org/2000/svg"
 width="1024.000000pt" height="1024.000000pt" viewBox="0 0 1024.000000 1024.000000"
 preserveAspectRatio="xMidYMid meet">
<metadata>
Created by potrace 1.10, written by Peter Selinger 2001-2011
</metadata>
<g transform="translate(0.000000,1024.000000) scale(0.100000,-0.100000)"
fill="#000000" stroke="none">
<path d="M5590 9519 c-524 -124 -869 -228 -1220 -366 -219 -87 -304 -127 -566
-270 -232 -127 -373 -220 -510 -341 -202 -176 -287 -295 -358 -501 -62 -179
-79 -282 -79 -481 -1 -154 3 -190 27 -305 23 -104 34 -136 56 -162 16 -17 31
-46 35 -65 14 -65 257 -281 463 -411 227 -143 448 -233 777 -317 329 -84 613
-115 982 -108 l253 5 17 -26 c9 -14 29 -93 45 -176 38 -209 33 -344 -30 -752
l-46 -303 -51 -1 c-27 -1 -66 -2 -85 -4 -39 -3 -585 -18 -720 -20 -387 -5
-935 100 -1330 255 -359 141 -491 220 -653 390 -47 49 -107 124 -134 166 -59
95 -104 144 -132 144 -50 0 -121 -60 -121 -103 0 -28 63 -148 122 -234 65 -94
203 -226 301 -288 44 -28 102 -68 130 -89 124 -96 187 -126 441 -212 440 -149
971 -245 1376 -248 152 -1 506 9 708 20 59 4 102 2 102 -3 0 -11 -89 -392
-124 -531 -74 -292 -212 -663 -364 -982 -33 -69 -84 -179 -115 -245 -30 -66
-69 -151 -86 -188 -18 -37 -102 -177 -188 -310 -86 -133 -187 -291 -226 -352
-83 -130 -99 -152 -236 -315 -201 -239 -450 -472 -726 -680 -270 -205 -407
-283 -673 -389 -17 -8 -46 -29 -62 -48 -24 -27 -30 -43 -30 -81 0 -53 27 -107
59 -117 33 -10 254 79 381 154 212 126 432 281 635 446 151 124 569 555 687
709 120 156 294 417 408 611 70 119 272 518 378 745 16 36 52 112 80 170 146
309 249 621 363 1105 28 121 57 244 64 274 13 55 26 71 58 71 36 0 425 82 597
125 480 120 1063 351 1373 542 348 215 611 510 799 894 91 185 121 267 147
396 11 54 29 118 40 143 20 46 24 70 22 129 -1 26 -11 44 -45 77 -39 40 -47
43 -77 38 -73 -14 -104 -65 -130 -218 -61 -348 -182 -610 -404 -875 -156 -185
-261 -261 -671 -486 -316 -174 -413 -220 -639 -302 -253 -92 -515 -162 -819
-219 -167 -31 -188 -31 -182 -1 3 12 8 58 12 102 3 44 8 89 9 100 2 11 6 56
10 100 4 44 9 89 10 100 2 11 6 52 10 90 3 39 11 115 17 170 20 187 -4 398
-66 559 -13 33 -27 79 -32 101 -14 63 -40 72 -234 80 -91 4 -253 8 -360 10
-241 3 -326 10 -510 41 -242 41 -440 97 -663 185 -324 129 -649 364 -733 530
-88 176 -112 363 -74 583 12 71 30 143 40 160 10 17 21 50 25 73 4 23 13 47
21 54 8 6 14 21 14 34 0 32 177 224 319 346 149 127 262 208 418 300 212 123
297 156 1263 484 265 90 411 115 642 109 211 -5 395 -53 605 -156 80 -40 111
-62 146 -103 181 -209 272 -436 281 -705 10 -304 -83 -613 -253 -841 -55 -73
-190 -209 -208 -209 -18 0 -677 -442 -721 -484 -47 -44 -74 -91 -70 -123 l3
-28 147 -3 147 -3 213 166 c147 114 230 172 268 186 162 61 455 407 584 691
89 197 121 348 121 573 -1 148 -4 184 -27 280 -38 163 -75 247 -178 412 -133
213 -251 327 -449 437 -174 96 -302 126 -561 131 -170 4 -206 1 -280 -16z"/>
<path d="M6651 4130 c0 -8 4 -22 9 -30 12 -18 12 -2 0 25 -6 13 -9 15 -9 5z"/>
</g>
</svg>
