<?xml version="1.0" standalone="no"?>
<!DOCTYPE svg PUBLIC "-//W3C//DTD SVG 20010904//EN"
 "http://www.w3.org/TR/2001/REC-SVG-20010904/DTD/svg10.dtd">
<svg version="1.0" xmlns="http://www.w3.org/2000/svg"
 width="1024.000000pt" height="1024.000000pt" viewBox="0 0 1024.000000 1024.000000"
 preserveAspectRatio="xMidYMid meet">
<metadata>
Created by potrace 1.10, written by Peter Selinger 2001-2011
</metadata>
<g transform="translate(0.000000,1024.000000) scale(0.100000,-0.100000)"
fill="#000000" stroke="none">
<path d="M4976 9291 c-38 -25 -126 -190 -126 -237 0 -19 9 -52 20 -74 34 -66
82 -87 129 -54 17 12 26 13 34 5 7 -7 59 -11 142 -11 159 0 213 -15 355 -97
153 -90 196 -139 231 -270 34 -129 60 -204 100 -287 l39 -79 -30 -52 c-34 -59
-37 -83 -15 -125 14 -27 48 -44 102 -52 20 -3 18 -8 -28 -68 -73 -96 -90 -133
-94 -207 -3 -73 -30 -132 -116 -260 -142 -211 -376 -383 -634 -469 -76 -25
-85 -26 -220 -19 -205 10 -207 10 -297 55 -143 71 -226 129 -336 234 l-63 60
6 55 c6 51 4 59 -20 83 -38 40 -81 60 -147 66 -56 5 -58 5 -36 20 56 37 61 74
22 148 -21 40 -25 57 -20 94 4 25 15 111 26 191 15 107 28 166 50 220 45 109
114 233 178 322 120 167 389 387 472 387 30 0 48 8 74 31 19 16 38 38 41 48 8
27 -11 69 -47 103 -22 21 -32 40 -34 69 -5 54 -29 87 -73 100 -41 12 -110 -1
-130 -25 -7 -8 -13 -49 -14 -91 l-3 -76 -52 -29 c-170 -93 -316 -235 -462
-450 -136 -200 -212 -433 -227 -696 -4 -72 -10 -114 -17 -114 -17 -1 -83 -66
-101 -99 -67 -130 76 -354 246 -385 29 -5 38 -13 53 -46 12 -29 64 -82 182
-187 130 -116 162 -149 152 -159 -158 -145 -523 -452 -584 -491 -204 -130
-472 -260 -672 -323 -190 -61 -446 -113 -622 -125 -200 -14 -186 -15 -259 21
-91 45 -176 64 -287 64 -326 0 -544 -203 -397 -372 13 -14 12 -21 -11 -55 -14
-21 -27 -56 -29 -77 -4 -36 0 -44 42 -89 45 -48 46 -51 43 -106 -3 -49 1 -63
31 -112 19 -32 37 -69 41 -84 12 -45 36 -74 69 -80 141 -27 248 6 354 107 l41
40 119 -6 119 -7 494 115 c272 63 496 113 498 111 2 -2 -4 -35 -14 -74 l-18
-70 -41 5 c-36 5 -43 2 -74 -29 l-33 -35 -33 -284 c-47 -399 -40 -537 35 -760
41 -119 112 -256 184 -351 l56 -74 -5 -64 c-4 -66 -9 -145 -22 -399 -13 -240
-8 -327 32 -545 20 -110 49 -258 66 -330 53 -232 177 -641 198 -654 4 -3 40
-62 78 -131 65 -116 74 -127 129 -162 32 -20 66 -37 75 -37 9 -1 35 -25 57
-54 53 -68 191 -202 264 -255 230 -169 682 -364 1012 -437 180 -40 569 -95
671 -95 68 0 109 -6 170 -25 190 -60 353 -37 479 67 51 42 516 581 559 649
192 300 233 612 127 969 -10 36 -26 99 -36 140 -37 165 -127 334 -246 465
l-55 60 -6 95 c-10 130 -40 331 -72 475 -15 66 -29 145 -31 175 -7 92 -43 247
-90 379 -24 69 -44 135 -44 148 0 12 -14 57 -30 99 -17 42 -28 84 -25 92 3 8
12 49 21 91 28 138 92 278 191 420 24 35 82 145 128 245 145 317 227 500 241
540 21 58 18 164 -6 208 l-19 37 76 158 c68 142 75 164 75 215 -1 123 -134
290 -291 366 l-84 40 74 37 c192 97 410 212 469 248 221 137 504 395 653 595
101 135 120 174 119 237 -1 50 0 51 30 53 97 8 175 111 133 175 -16 25 -16 25
22 38 21 6 53 28 71 48 28 31 32 42 28 76 -3 29 -14 48 -36 68 -31 28 -41 30
-126 29 l-51 -1 1 54 c0 40 -5 59 -19 76 -24 26 -75 49 -110 49 -19 0 -25 5
-25 21 0 35 -18 56 -62 74 -73 29 -117 15 -182 -56 -91 -101 -136 -218 -136
-354 0 -64 0 -65 -47 -109 -132 -122 -288 -235 -461 -330 -138 -77 -234 -117
-456 -192 l-190 -64 -34 26 c-34 26 -44 37 -141 144 -51 58 -184 144 -249 163
-21 6 -38 11 -39 12 -1 0 11 46 28 100 50 164 34 252 -54 300 l-36 19 -47 191
c-26 104 -61 222 -79 261 -103 227 -288 387 -520 449 -45 13 -65 23 -65 34 -1
26 -23 59 -59 85 -38 28 -61 24 -144 -27 -26 -16 -49 -28 -51 -26 -1 2 -8 23
-15 46 -12 45 -63 93 -97 93 -10 0 -32 -9 -48 -19z m2935 -1512 c24 -12 45
-22 47 -24 8 -7 -47 -107 -79 -142 -21 -23 -52 -66 -69 -96 -17 -31 -43 -63
-58 -73 -15 -9 -90 -63 -167 -118 -467 -338 -953 -592 -1385 -726 -202 -62
-222 -70 -257 -106 -29 -28 -33 -39 -33 -83 0 -38 7 -61 25 -89 13 -21 29 -60
34 -88 6 -28 22 -78 36 -110 48 -107 127 -448 169 -729 27 -177 32 -242 41
-516 l6 -176 -128 -79 c-112 -68 -161 -108 -386 -315 l-259 -237 -76 52 c-179
122 -659 282 -1037 345 -33 6 -72 12 -86 15 -15 2 -53 8 -85 12 -33 3 -62 12
-66 18 -13 20 -7 565 7 676 25 193 53 309 106 435 39 95 42 108 40 167 -1 27
-12 50 -47 92 -41 51 -49 56 -84 56 -26 0 -134 -37 -321 -110 -155 -61 -296
-117 -313 -125 -46 -22 -341 -117 -506 -164 -161 -45 -435 -108 -610 -140 -63
-12 -158 -32 -210 -46 l-95 -24 -31 22 c-17 12 -59 48 -93 79 l-63 56 22 30
c26 36 29 96 6 140 -8 16 -36 48 -62 71 -55 48 -55 48 100 26 61 -9 105 -20
117 -31 16 -15 41 -16 231 -11 245 6 372 23 583 77 358 92 615 207 953 427
296 192 580 432 641 541 8 14 23 13 147 -16 188 -44 311 -43 500 3 160 39 289
96 423 186 l89 59 108 -15 109 -14 344 100 c342 99 344 100 383 84 77 -30 119
-14 132 51 7 29 14 34 94 64 325 121 703 304 907 439 83 55 153 100 156 101 3
0 25 -10 50 -21z m-1774 -220 c48 -18 131 -88 138 -116 3 -15 19 -43 35 -63
l28 -35 -197 -62 c-108 -34 -220 -65 -250 -68 -51 -7 -53 -6 -40 12 8 10 48
64 90 118 44 59 86 126 100 163 26 67 38 73 96 51z m579 -1059 c116 -29 233
-90 309 -162 36 -33 65 -65 65 -72 0 -6 -23 -49 -51 -96 -29 -47 -57 -103 -63
-126 -12 -43 -351 -492 -373 -493 -6 -1 -51 -50 -100 -110 -48 -61 -90 -110
-93 -110 -3 -1 -43 189 -89 422 -46 232 -97 462 -112 511 -16 49 -28 90 -26
92 8 8 424 163 438 164 9 0 51 -9 95 -20z m-2771 -917 c-27 -92 -44 -219 -46
-358 -4 -192 -5 -194 -59 -212 -109 -37 -204 -142 -301 -333 l-33 -65 -29 115
c-24 97 -29 137 -30 260 -2 155 10 229 59 355 13 33 28 78 33 101 l11 41 197
71 c109 38 201 70 205 71 4 1 1 -20 -7 -46z m2907 -184 c-16 -35 -84 -152
-152 -259 -68 -107 -146 -244 -175 -304 -43 -90 -53 -104 -58 -85 -12 42 -7
116 8 145 8 16 15 55 15 87 0 58 2 61 94 195 83 122 105 146 191 215 54 42
100 75 102 73 2 -2 -9 -32 -25 -67z m-2963 -876 l2 -183 -31 14 c-18 7 -43 11
-57 8 -33 -6 -63 -57 -63 -105 0 -86 55 -142 159 -162 53 -11 56 -13 109 -91
106 -153 163 -223 275 -331 160 -155 361 -285 562 -363 33 -13 62 -25 63 -26
2 -1 -8 -22 -21 -46 -14 -24 -33 -69 -42 -102 -14 -49 -15 -65 -5 -102 15 -52
58 -84 113 -84 44 0 74 34 84 93 5 35 27 61 192 227 229 230 396 364 641 515
145 89 382 253 413 286 15 16 27 37 27 47 0 9 14 26 30 37 17 11 33 28 36 38
3 9 8 17 12 17 4 0 22 -51 41 -113 19 -61 43 -124 53 -139 10 -14 18 -36 18
-48 0 -12 7 -43 15 -69 16 -48 63 -250 95 -407 98 -473 61 -1127 -95 -1720
-37 -137 -85 -241 -178 -384 -63 -96 -124 -224 -132 -274 -9 -65 -73 -137
-168 -191 l-82 -46 -131 -3 c-227 -5 -404 16 -655 79 -165 41 -293 87 -465
170 -118 56 -160 84 -418 281 -157 120 -294 219 -303 219 -22 0 -297 608 -349
770 -41 128 -89 359 -103 495 -9 90 -7 556 3 610 2 14 7 77 10 140 18 326 72
612 177 938 37 112 45 127 97 183 l57 62 6 -29 c3 -16 7 -111 8 -211z m-583
-181 c5 -37 12 -48 55 -80 l49 -37 -6 -51 c-3 -29 -9 -64 -13 -80 -7 -28 -7
-28 -56 36 -62 81 -75 133 -81 331 -6 207 6 232 28 59 10 -74 20 -154 24 -178z
m2890 16 c-14 -131 14 -102 -318 -321 -165 -109 -302 -196 -304 -194 -2 1 2
20 8 40 13 41 202 234 341 346 85 69 257 190 271 191 5 0 6 -28 2 -62z m-1723
-173 c249 -56 457 -110 515 -131 117 -44 304 -138 404 -203 40 -26 81 -50 90
-53 14 -6 10 -14 -25 -54 -23 -25 -60 -58 -82 -72 -22 -14 -100 -72 -173 -130
l-134 -105 -91 37 c-232 92 -410 216 -532 369 -44 55 -96 125 -116 156 -50 80
-142 175 -218 229 -78 54 -92 65 -71 58 8 -3 203 -48 433 -101z m2456 -1734
c39 -65 85 -197 113 -324 17 -82 22 -135 22 -267 l0 -165 -32 -59 c-18 -32
-32 -68 -32 -80 0 -11 -9 -32 -20 -46 -11 -14 -20 -34 -20 -46 0 -27 -108
-197 -204 -322 -131 -169 -306 -352 -371 -385 -38 -19 -95 -28 -95 -15 0 14
50 84 120 168 72 86 80 104 80 170 0 38 8 63 41 120 143 248 309 837 344 1223
4 42 11 77 15 77 5 0 22 -22 39 -49z"/>
<path d="M5517 6125 c-49 -14 -67 -34 -74 -83 -8 -58 3 -89 37 -107 34 -17
142 -20 172 -4 25 13 48 68 48 114 0 39 -35 84 -67 86 -10 0 -32 1 -49 2 -17
1 -48 -3 -67 -8z"/>
<path d="M4633 6015 c-37 -16 -49 -35 -58 -95 -12 -81 21 -124 101 -133 65 -7
97 13 129 77 25 51 26 59 14 87 -9 23 -27 38 -63 55 -58 27 -78 29 -123 9z"/>
<path d="M6013 3503 c-20 -3 -41 -14 -53 -30 -28 -36 -67 -165 -75 -251 -7
-70 -8 -72 -41 -82 -67 -22 -124 -111 -132 -206 -4 -57 -2 -66 24 -103 25 -34
36 -41 74 -46 86 -12 82 -6 74 -103 -3 -48 -7 -87 -8 -87 0 0 -23 -11 -51 -25
-92 -46 -118 -124 -70 -209 21 -36 25 -56 25 -121 0 -63 4 -83 23 -111 24 -36
59 -50 93 -38 16 6 32 0 63 -22 22 -17 54 -34 72 -39 27 -8 35 -6 59 19 43 43
50 86 42 276 -6 134 -11 177 -26 205 -14 28 -17 57 -16 140 0 58 3 121 5 140
2 19 6 118 10 220 5 129 11 193 21 212 19 37 28 108 20 153 -7 34 -75 117 -93
113 -5 0 -23 -3 -40 -5z"/>
<path d="M5185 8643 c-11 -3 -41 -25 -67 -49 -53 -50 -67 -52 -123 -24 -22 11
-51 20 -65 20 -31 0 -85 -32 -100 -59 -12 -24 -58 -28 -93 -9 -64 34 -220 41
-265 12 -46 -30 -68 -124 -34 -151 112 -90 251 -123 392 -93 25 6 92 14 148
19 134 12 206 45 286 132 60 64 74 97 60 137 -15 42 -91 77 -139 65z"/>
<path d="M5535 8170 c-12 -4 -43 -22 -70 -39 -96 -61 -147 -74 -305 -80 l-145
-6 -3 -52 c-6 -106 43 -143 199 -151 110 -5 176 7 259 48 127 62 200 127 200
179 0 34 -31 76 -70 96 -32 17 -37 17 -65 5z"/>
<path d="M4550 7975 c-62 -41 -115 -75 -118 -75 -2 0 -24 18 -47 39 -49 45
-97 59 -149 41 -67 -22 -82 -70 -45 -143 73 -144 182 -190 341 -143 123 36
268 164 268 237 0 45 -76 119 -123 119 -8 0 -65 -34 -127 -75z"/>
<path d="M4822 7722 c-102 -37 -150 -96 -151 -187 -1 -31 6 -49 30 -78 40 -49
80 -50 135 -4 31 27 49 34 89 36 28 1 68 12 90 24 33 19 41 29 48 65 23 116
-104 192 -241 144z"/>
<path d="M5009 7356 c-21 -7 -62 -27 -92 -44 -33 -19 -66 -30 -83 -29 -16 2
-51 -1 -78 -5 -61 -9 -116 -57 -116 -100 0 -27 2 -28 48 -29 26 0 58 -2 72 -4
76 -9 318 -7 338 4 29 15 72 80 72 108 0 27 -43 79 -81 98 -33 18 -34 18 -80
1z"/>
</g>
</svg>
