<?xml version="1.0" standalone="no"?>
<!DOCTYPE svg PUBLIC "-//W3C//DTD SVG 20010904//EN"
 "http://www.w3.org/TR/2001/REC-SVG-20010904/DTD/svg10.dtd">
<svg version="1.0" xmlns="http://www.w3.org/2000/svg"
 width="1024.000000pt" height="1024.000000pt" viewBox="0 0 1024.000000 1024.000000"
 preserveAspectRatio="xMidYMid meet">
<metadata>
Created by potrace 1.10, written by Peter Selinger 2001-2011
</metadata>
<g transform="translate(0.000000,1024.000000) scale(0.100000,-0.100000)"
fill="#000000" stroke="none">
<path d="M7431 7691 c-37 -37 -27 -57 96 -185 462 -479 945 -1206 1345 -2022
152 -312 204 -374 314 -374 164 0 257 208 271 605 4 122 1 177 -10 231 -30
137 -115 307 -234 461 -70 93 -306 326 -448 444 -311 258 -979 716 -1190 815
-99 47 -119 50 -144 25z"/>
<path d="M4963 7023 c3 -98 13 -221 22 -273 51 -301 183 -687 345 -1012 107
-213 213 -347 312 -393 149 -70 228 9 288 290 38 178 72 297 117 405 45 109
103 279 103 299 -1 9 -11 29 -24 45 l-24 29 -126 -32 c-69 -17 -140 -31 -159
-31 -93 0 -280 190 -582 591 -94 125 -129 164 -188 206 -40 29 -76 52 -81 53
-5 0 -6 -77 -3 -177z"/>
<path d="M2827 7049 c-26 -15 -47 -63 -47 -108 0 -63 272 -1086 347 -1304 125
-366 339 -891 500 -1227 354 -740 795 -1388 1239 -1821 146 -141 271 -241 446
-357 471 -308 1057 -494 1743 -552 156 -13 760 -13 940 0 464 34 825 113 1064
235 62 31 155 116 186 170 55 94 69 150 69 295 0 122 -2 143 -27 215 -55 158
-156 310 -259 391 -240 188 -689 722 -1088 1293 -81 116 -105 142 -174 193
-44 32 -82 58 -86 58 -3 0 -14 -15 -22 -34 l-16 -33 78 -135 c266 -461 454
-840 495 -998 36 -138 -5 -298 -97 -375 -37 -32 -169 -94 -283 -134 -273 -97
-654 -115 -1170 -56 -845 97 -1559 424 -2103 965 -130 129 -278 319 -447 575
-452 682 -801 1441 -1160 2523 -80 241 -83 247 -128 221z"/>
<path d="M1656 6598 c-5 -24 -27 -233 -46 -443 -53 -580 -251 -1372 -515
-2065 -186 -486 -250 -744 -262 -1056 -8 -211 21 -393 87 -539 74 -165 169
-150 298 48 112 173 273 617 352 972 158 708 228 1399 217 2123 -5 348 -14
464 -57 746 -28 179 -61 276 -74 214z"/>
</g>
</svg>
