<?xml version="1.0" standalone="no"?>
<!DOCTYPE svg PUBLIC "-//W3C//DTD SVG 20010904//EN"
 "http://www.w3.org/TR/2001/REC-SVG-20010904/DTD/svg10.dtd">
<svg version="1.0" xmlns="http://www.w3.org/2000/svg"
 width="1024.000000pt" height="1024.000000pt" viewBox="0 0 1024.000000 1024.000000"
 preserveAspectRatio="xMidYMid meet">
<metadata>
Created by potrace 1.10, written by Peter Selinger 2001-2011
</metadata>
<g transform="translate(0.000000,1024.000000) scale(0.100000,-0.100000)"
fill="#000000" stroke="none">
<path d="M8398 8982 c-403 -261 -576 -431 -642 -630 -37 -110 -49 -212 -48
-407 0 -190 15 -314 62 -500 16 -66 57 -305 89 -532 58 -402 61 -417 129 -650
39 -131 73 -269 77 -308 11 -114 52 -332 85 -455 121 -451 140 -561 161 -915
17 -288 1 -664 -38 -880 -62 -351 -273 -601 -618 -730 -127 -48 -178 -49 -531
-16 -319 30 -321 31 -398 66 -88 41 -260 99 -323 110 -24 4 -43 9 -43 12 0 2
33 95 74 206 74 202 162 488 211 687 26 106 106 663 124 865 28 313 21 588
-25 975 -14 118 -28 218 -30 222 -3 4 -54 8 -115 8 -103 0 -109 -1 -109 -20 0
-12 14 -139 31 -283 30 -247 31 -275 25 -502 -8 -341 -37 -684 -79 -950 l-13
-80 -13 40 c-23 68 -31 62 -10 -8 l20 -67 -35 -157 c-105 -467 -316 -1004
-485 -1231 -102 -136 -258 -268 -421 -353 -42 -22 -56 -24 -211 -24 l-166 0
-90 60 c-60 40 -121 94 -184 161 -52 55 -124 126 -160 157 -52 44 -75 73 -109
138 -24 46 -54 94 -67 107 -73 73 -221 483 -284 785 -45 221 -57 361 -89 1037
-25 537 -28 663 -20 815 5 99 10 186 10 193 0 6 -9 12 -20 12 -36 0 -115 32
-153 62 -21 16 -40 28 -41 27 -2 -2 -9 -128 -15 -279 -13 -286 -12 -319 39
-1355 17 -336 60 -580 157 -880 38 -118 62 -172 99 -220 50 -66 78 -145 79
-225 l1 -76 83 -119 c51 -73 78 -120 72 -125 -6 -3 -125 -23 -264 -43 -138
-21 -288 -43 -332 -49 -123 -18 -429 -15 -561 5 -311 48 -642 180 -830 331
-236 190 -417 447 -508 721 -83 254 -169 838 -168 1147 1 326 72 624 217 913
44 88 210 361 442 727 205 323 383 614 397 645 39 95 51 161 50 278 -1 131
-12 187 -70 363 -69 209 -173 414 -289 571 -40 54 -46 68 -36 83 10 15 8 18
-11 18 -16 0 -31 13 -48 41 -58 94 -144 159 -507 376 -337 203 -349 209 -378
197 -17 -7 -40 -23 -53 -37 -19 -20 -22 -31 -16 -66 6 -37 19 -54 120 -148
108 -101 124 -112 314 -213 150 -80 213 -119 252 -158 59 -58 128 -144 128
-161 0 -6 38 -65 83 -130 180 -255 277 -511 277 -726 0 -183 -41 -277 -229
-538 -71 -97 -132 -189 -136 -204 -3 -15 -26 -49 -51 -75 -24 -26 -44 -52 -44
-58 0 -6 -29 -55 -64 -110 -36 -54 -149 -255 -253 -447 -184 -340 -189 -351
-225 -488 -62 -230 -76 -296 -99 -452 -29 -201 -23 -448 14 -598 14 -55 31
-147 37 -205 15 -132 44 -296 76 -425 37 -150 104 -346 129 -380 12 -16 47
-79 78 -138 76 -148 154 -253 272 -372 180 -180 381 -298 670 -394 297 -98
511 -134 810 -135 246 -1 439 22 665 79 30 7 82 16 115 20 33 3 90 11 128 16
l67 11 79 -75 c80 -74 191 -142 277 -167 41 -12 42 -14 54 -73 24 -121 72
-220 160 -327 20 -25 54 -79 74 -120 81 -161 176 -280 354 -439 218 -195 463
-318 738 -370 211 -40 774 -122 793 -116 11 3 277 -39 591 -95 l572 -100 213
0 c208 0 215 1 240 23 20 16 28 35 32 68 6 53 -8 86 -40 98 -13 5 -137 16
-277 26 -227 15 -297 24 -642 86 -273 49 -411 69 -470 69 -66 0 -104 7 -189
34 -61 19 -119 31 -136 29 -59 -9 -412 52 -655 113 -222 55 -357 100 -455 151
-81 43 -104 61 -183 148 -99 108 -256 311 -307 397 -45 74 -184 368 -174 368
4 0 57 9 118 20 314 56 568 209 749 449 35 47 76 110 92 138 15 29 30 53 35
53 4 0 223 -54 486 -120 l478 -119 277 34 c184 24 294 42 329 56 164 64 324
194 435 354 26 39 64 91 83 116 78 102 119 218 158 450 59 346 71 647 42 999
l-21 256 -159 709 c-176 785 -394 1842 -417 2023 -8 67 -15 202 -15 317 l0
200 51 97 c46 87 64 109 179 220 117 113 148 136 372 277 134 85 248 158 254
163 5 5 -22 40 -70 88 -44 44 -82 80 -85 79 -3 0 -107 -67 -232 -147z"/>
</g>
</svg>
