<?xml version="1.0" standalone="no"?>
<!DOCTYPE svg PUBLIC "-//W3C//DTD SVG 20010904//EN"
 "http://www.w3.org/TR/2001/REC-SVG-20010904/DTD/svg10.dtd">
<svg version="1.0" xmlns="http://www.w3.org/2000/svg"
 width="1024.000000pt" height="1024.000000pt" viewBox="0 0 1024.000000 1024.000000"
 preserveAspectRatio="xMidYMid meet">
<metadata>
Created by potrace 1.10, written by Peter Selinger 2001-2011
</metadata>
<g transform="translate(0.000000,1024.000000) scale(0.100000,-0.100000)"
fill="#000000" stroke="none">
<path d="M5755 10066 c-16 -7 -47 -32 -67 -54 -21 -23 -44 -42 -52 -42 -17 0
-86 -75 -86 -94 0 -7 -12 -35 -26 -61 -27 -52 -35 -73 -93 -240 -21 -60 -81
-204 -134 -319 l-95 -209 -79 -41 c-107 -56 -206 -131 -292 -221 l-71 -75 0
37 c-2 163 -31 695 -40 725 -14 48 -104 131 -166 152 -61 20 -175 21 -329 0
-330 -43 -611 -129 -893 -275 -217 -111 -248 -145 -239 -258 4 -55 -1 -88 -18
-109 -1 -1 -24 2 -51 8 -40 9 -58 8 -94 -5 -24 -8 -47 -12 -50 -8 -4 5 -23 71
-43 148 -33 127 -37 159 -46 345 -5 113 -15 222 -21 243 -12 40 -55 95 -100
127 -35 25 -96 18 -107 -14 -4 -11 -6 -133 -4 -269 l3 -248 53 -215 52 -214
-135 -80 c-74 -44 -136 -79 -137 -78 -3 5 -84 570 -89 627 -3 31 -16 71 -31
97 -14 24 -31 77 -39 122 -18 106 -58 182 -124 243 -67 62 -94 64 -145 11 -41
-42 -48 -83 -23 -143 8 -19 17 -59 21 -89 5 -39 19 -74 47 -120 37 -59 42 -74
49 -160 11 -116 50 -325 83 -440 13 -47 28 -116 31 -153 4 -38 13 -87 20 -110
l12 -42 -161 -160 c-489 -485 -754 -1000 -805 -1565 -16 -170 -14 -249 14
-462 54 -427 138 -734 322 -1183 191 -464 386 -776 665 -1061 70 -72 128 -134
128 -138 0 -4 -12 -23 -26 -41 l-25 -34 39 -3 40 -3 -59 -130 c-52 -116 -62
-152 -98 -330 -95 -477 -139 -967 -148 -1660 -6 -475 0 -615 38 -834 25 -148
37 -186 67 -216 22 -22 33 -25 105 -25 44 0 231 -7 416 -15 390 -18 391 -18
437 61 15 25 26 58 26 72 -1 15 -1 79 -1 142 0 63 -18 399 -39 745 -37 607
-38 641 -30 940 8 283 11 317 33 394 14 46 27 87 31 90 3 3 49 -39 101 -94 53
-55 269 -276 480 -492 l384 -391 -17 -114 c-32 -207 -25 -399 39 -1034 43
-425 54 -569 47 -595 -14 -46 -12 -148 3 -180 27 -56 85 -119 142 -152 93 -54
148 -70 265 -75 98 -4 113 -2 200 27 151 51 209 103 190 170 -5 20 -1 33 18
56 l25 30 -6 211 c-8 243 -26 442 -64 669 -24 149 -37 374 -22 389 3 3 52 -19
108 -50 248 -134 542 -253 838 -339 282 -82 340 -92 639 -105 296 -13 341 -10
604 46 228 49 344 85 910 280 90 32 243 108 323 162 132 89 292 245 405 394
237 313 395 788 418 1253 7 148 -17 625 -41 810 -52 408 -94 563 -311 1155
l-186 506 -244 354 c-134 195 -259 374 -277 398 -17 23 -143 143 -278 267
l-247 225 10 45 c12 58 -43 608 -72 712 -78 282 -251 558 -470 750 -213 187
-508 340 -787 408 -40 10 -73 23 -73 29 1 31 23 104 38 126 10 14 33 61 52
105 18 44 44 91 56 105 13 14 26 44 30 67 5 34 19 55 65 103 33 34 59 67 59
75 0 31 -106 221 -161 290 -106 131 -262 237 -432 293 -123 40 -147 44 -182
28z m262 -347 c148 -89 174 -108 206 -155 l37 -53 -34 -83 c-24 -57 -39 -82
-50 -80 -8 1 -70 29 -138 62 -144 70 -171 96 -242 237 -41 83 -44 95 -34 123
10 31 35 48 70 49 9 1 93 -45 185 -100z m-344 -339 c70 -94 216 -184 348 -214
34 -8 62 -16 64 -18 1 -2 -24 -58 -56 -125 l-58 -123 -154 0 c-204 0 -210 -1
-258 -65 -47 -62 -53 -119 -18 -151 19 -18 40 -19 258 -20 247 0 310 -7 486
-51 240 -59 380 -132 589 -303 178 -146 243 -220 312 -352 89 -174 197 -524
223 -723 6 -49 13 -105 16 -122 l4 -33 -52 34 c-29 18 -104 67 -167 108 -245
159 -507 308 -809 459 -211 105 -212 105 -270 55 -61 -54 -46 -105 51 -177
146 -109 361 -227 543 -299 44 -17 82 -35 85 -40 3 -4 82 -53 175 -109 154
-91 200 -125 495 -373 323 -271 327 -275 505 -483 353 -412 545 -754 709
-1265 164 -508 287 -1186 287 -1576 0 -311 -17 -396 -166 -835 l-117 -344
-111 -149 c-132 -177 -176 -215 -369 -318 -328 -175 -681 -313 -1043 -409
-140 -37 -166 -40 -390 -53 -256 -15 -310 -13 -529 24 -325 56 -705 185 -976
333 -135 74 -752 479 -875 574 -358 279 -720 639 -1013 1006 -248 310 -392
565 -503 885 -53 156 -99 440 -99 618 0 147 14 283 42 414 25 117 43 161 97
225 55 66 76 136 60 198 l-11 46 157 153 c167 162 256 269 280 337 34 98 29
207 -25 486 -65 339 -72 443 -96 1422 -15 572 -16 718 -5 794 6 51 14 95 15
97 2 2 27 -8 54 -22 89 -45 186 -66 304 -66 115 0 174 11 363 67 173 51 259
96 465 242 19 12 19 10 18 -60 0 -41 11 -209 26 -374 27 -294 29 -309 118
-720 82 -382 91 -433 97 -566 5 -113 11 -152 24 -172 24 -37 59 -58 106 -64
40 -6 41 -5 61 41 11 26 27 83 36 128 26 128 16 204 -65 513 -60 227 -111 470
-111 530 0 8 57 77 127 154 103 115 143 151 215 197 92 58 118 70 178 79 l35
5 134 300 c74 165 137 300 140 300 4 0 24 -23 44 -50z m-1258 -6 c-114 -96
-319 -206 -455 -244 -179 -49 -365 -63 -442 -33 -90 35 -90 37 8 86 254 127
588 211 859 215 l60 1 -30 -25z m-1355 -594 c0 -6 -9 -29 -21 -52 -17 -33 -18
-40 -5 -35 13 5 15 -14 19 -146 7 -305 56 -1445 67 -1557 7 -63 18 -148 26
-188 25 -130 44 -313 50 -472 l6 -155 -36 -24 c-79 -52 -255 -256 -346 -401
-29 -45 -35 -65 -36 -111 0 -51 -4 -61 -47 -117 -26 -33 -47 -65 -47 -72 0 -6
-15 -50 -34 -98 -18 -48 -39 -121 -46 -162 -7 -41 -22 -113 -33 -160 -17 -68
-21 -114 -20 -235 1 -134 6 -179 50 -420 45 -249 47 -270 31 -273 -11 -2 -67
41 -154 120 -103 94 -162 157 -245 266 -106 138 -120 160 -99 147 18 -11 50 6
65 35 8 16 18 56 21 88 9 80 -15 149 -65 195 -33 30 -43 34 -72 28 -27 -5 -38
-17 -67 -69 l-35 -63 -149 333 c-213 477 -253 585 -312 851 -51 225 -60 322
-61 607 0 258 1 268 28 373 171 659 548 1219 1029 1531 104 67 296 162 428
210 107 39 110 40 110 26z m-292 -4945 c20 -44 77 -150 127 -235 51 -85 97
-165 103 -177 10 -18 7 -32 -22 -90 -41 -82 -68 -161 -92 -268 -31 -140 -19
-749 24 -1205 22 -239 25 -936 4 -949 -7 -4 -44 -14 -81 -21 -59 -11 -89 -10
-247 9 -98 12 -189 24 -200 27 -19 5 -23 19 -38 127 -33 252 -40 371 -40 687
-1 555 41 1011 139 1541 42 222 53 264 110 394 25 58 49 131 55 173 l12 73 55
-3 55 -3 36 -80z m1794 -1994 l175 -123 -18 -49 c-12 -30 -19 -75 -19 -113 0
-36 32 -277 70 -536 39 -259 70 -475 70 -480 0 -5 -19 2 -42 16 -76 43 -161
64 -264 64 -52 0 -94 1 -94 3 0 2 -20 237 -45 523 -43 497 -52 687 -39 787 5
33 10 44 19 39 6 -4 91 -63 187 -131z m141 -1513 c37 -21 67 -41 67 -43 0 -3
-70 -5 -155 -5 l-154 0 -15 28 c-9 18 -11 35 -5 49 8 22 11 23 101 17 84 -6
99 -11 161 -46z"/>
<path d="M6195 6489 c-18 -5 -38 -22 -49 -40 -16 -27 -18 -44 -12 -123 3 -50
13 -120 22 -156 8 -36 19 -132 24 -215 4 -83 15 -172 24 -200 9 -27 16 -80 16
-116 0 -70 94 -476 127 -552 31 -70 120 -115 173 -87 20 11 21 10 16 -8 -7
-21 -8 -19 84 -257 63 -163 120 -342 120 -379 0 -11 9 -30 21 -42 16 -18 22
-42 29 -135 9 -116 26 -177 62 -215 12 -14 21 -42 25 -80 3 -33 16 -88 30
-124 33 -84 35 -175 5 -243 -25 -56 -110 -153 -198 -225 -66 -54 -131 -144
-160 -217 -17 -45 -17 -46 6 -70 23 -25 55 -32 76 -17 6 4 68 70 139 147 70
77 131 141 135 143 4 1 27 -27 51 -64 l44 -67 -1 -131 c-1 -93 -6 -146 -17
-181 -9 -28 -17 -82 -17 -123 0 -64 3 -76 25 -97 51 -52 79 -27 116 105 52
182 50 341 -7 520 -18 57 -34 89 -55 107 -25 23 -29 33 -29 78 0 29 9 87 20
130 35 135 21 267 -40 401 -18 38 -40 101 -49 139 -16 67 -16 71 1 88 26 25
23 69 -7 97 -14 13 -25 28 -25 34 0 6 -11 28 -25 48 -14 20 -25 47 -25 60 0
48 -89 346 -124 416 -20 39 -33 72 -29 71 5 0 125 -82 268 -182 l259 -182 98
-129 c54 -70 98 -137 98 -148 0 -10 18 -49 40 -85 22 -37 40 -75 40 -85 0 -17
47 -111 76 -153 8 -11 14 -33 14 -50 0 -16 9 -48 19 -70 10 -22 21 -57 25 -77
4 -20 23 -61 42 -90 19 -28 67 -115 105 -193 38 -77 85 -170 105 -206 71 -137
80 -281 28 -493 l-28 -114 -24 19 c-14 10 -31 19 -39 19 -24 0 -169 -147 -179
-181 -7 -25 -18 -34 -61 -48 -71 -24 -121 -65 -147 -120 -13 -28 -27 -45 -36
-44 -24 4 -124 -61 -137 -88 -7 -14 -35 -45 -63 -68 -67 -57 -87 -86 -70 -106
30 -36 158 0 232 65 25 21 55 59 69 84 20 39 29 46 54 46 19 0 44 12 69 31
l38 32 -7 -49 c-4 -27 -12 -55 -18 -62 -6 -8 -10 -32 -8 -55 1 -26 -10 -74
-30 -131 -26 -75 -41 -101 -84 -146 -72 -75 -76 -92 -28 -120 34 -20 42 -21
73 -10 50 18 99 67 126 128 14 29 33 65 43 80 11 16 26 72 37 133 l18 107 43
28 c23 16 43 33 43 37 0 16 -43 92 -57 100 -12 8 -12 12 1 32 9 13 19 43 22
66 5 30 23 64 62 113 l54 71 -5 -110 c-3 -61 -12 -139 -21 -175 -11 -48 -16
-118 -16 -265 0 -146 -4 -211 -14 -240 -13 -36 -13 -42 3 -58 9 -10 34 -20 54
-24 31 -5 42 -1 62 17 23 22 25 31 25 115 0 51 4 150 10 221 11 136 57 484 69
516 6 16 31 -12 131 -144 69 -90 137 -181 151 -203 37 -58 122 -131 174 -149
l46 -15 10 27 c8 21 6 36 -13 77 -43 93 -119 198 -219 300 -65 67 -99 109 -99
124 0 13 -16 37 -39 57 -27 25 -40 46 -45 73 -3 21 -16 51 -28 67 -21 26 -23
40 -24 154 -2 172 -37 292 -125 427 -24 37 -92 179 -151 315 l-106 248 71 0
c40 0 227 -7 416 -15 368 -17 361 -17 375 31 14 47 -4 50 -401 67 -344 15
-374 18 -407 38 -20 11 -36 27 -36 35 0 22 -47 47 -75 40 -21 -5 -26 -2 -31
21 -4 16 -19 44 -34 63 -15 19 -35 55 -44 80 -28 71 -81 152 -138 211 -33 34
-202 158 -443 324 -214 147 -393 271 -398 275 -4 3 -32 98 -62 211 -53 198
-56 214 -90 549 -35 348 -46 410 -90 480 -19 30 -109 122 -117 119 -2 0 -17
-5 -33 -10z"/>
<path d="M6263 4046 c3 -8 11 -33 17 -56 6 -23 14 -40 17 -37 6 6 -26 107 -34
107 -3 0 -3 -6 0 -14z"/>
<path d="M8383 2740 c-30 -12 -58 -67 -43 -85 25 -31 109 -56 177 -53 59 3 68
6 86 30 l21 28 -25 26 c-49 54 -153 79 -216 54z"/>
<path d="M2101 5783 c-31 -6 -54 -33 -96 -115 -48 -93 -46 -121 10 -175 32
-30 54 -43 74 -43 86 0 172 181 127 268 -15 30 -66 73 -83 71 -4 -1 -19 -4
-32 -6z"/>
<path d="M2650 3042 c-30 -5 -66 -36 -87 -77 -18 -34 -19 -92 -3 -312 6 -84 8
-157 5 -163 -3 -5 -16 -10 -28 -10 -12 0 -52 -24 -88 -52 -59 -48 -67 -58 -78
-106 -13 -58 -4 -109 28 -146 27 -32 112 -66 164 -66 l47 0 0 -146 0 -146 -26
5 c-15 2 -59 -6 -99 -19 -62 -21 -74 -29 -88 -59 -16 -34 -16 -34 14 -59 50
-43 139 -47 182 -8 19 17 19 13 12 -285 -6 -244 -5 -306 5 -319 34 -40 133
-68 167 -46 7 4 20 26 29 47 15 36 17 90 17 495 0 302 -5 524 -15 660 -10 149
-12 257 -7 395 5 119 4 209 -2 241 -18 95 -94 184 -149 176z"/>
</g>
</svg>
