<?xml version="1.0" standalone="no"?>
<!DOCTYPE svg PUBLIC "-//W3C//DTD SVG 20010904//EN"
 "http://www.w3.org/TR/2001/REC-SVG-20010904/DTD/svg10.dtd">
<svg version="1.0" xmlns="http://www.w3.org/2000/svg"
 width="480.000000pt" height="480.000000pt" viewBox="0 0 480.000000 480.000000"
 preserveAspectRatio="xMidYMid meet">
<metadata>
Created by potrace 1.11, written by Peter Selinger 2001-2013
</metadata>
<g transform="translate(0.000000,480.000000) scale(0.100000,-0.100000)"
fill="#000000" stroke="none">
<path d="M2310 3959 c-30 -5 -86 -24 -125 -43 -67 -32 -165 -107 -165 -127 0
-5 -22 -40 -50 -78 -27 -38 -50 -73 -50 -77 0 -5 -7 -22 -16 -39 -24 -46 -105
-253 -120 -309 -8 -28 -21 -73 -29 -101 -8 -27 -38 -143 -67 -257 -29 -114
-54 -205 -57 -203 -2 2 -10 46 -17 97 -8 51 -23 125 -34 163 -10 39 -28 106
-39 150 -30 127 -102 267 -180 352 -71 78 -88 76 -204 -34 -98 -93 -127 -128
-127 -156 0 -10 -10 -21 -23 -26 -43 -17 -86 -62 -135 -144 -91 -151 -105
-190 -186 -503 -32 -123 -19 -198 76 -434 52 -126 77 -165 95 -146 8 8 6 174
-2 218 -3 13 7 120 21 238 25 200 31 227 84 385 96 287 132 355 189 355 50 0
74 -18 123 -93 46 -70 205 -407 250 -529 14 -40 29 -63 45 -71 13 -5 23 -19
23 -30 0 -11 -20 -96 -45 -189 -63 -239 -105 -423 -105 -466 0 -20 -7 -64 -15
-97 -8 -33 -47 -215 -86 -405 -39 -190 -79 -376 -89 -415 -24 -93 -31 -220
-11 -220 16 0 51 100 51 145 0 26 131 692 149 760 5 19 18 67 30 106 12 39 21
91 21 117 0 25 5 58 11 74 6 15 37 147 70 293 33 146 82 362 109 480 45 200
169 634 206 725 21 51 60 135 93 204 14 30 59 89 100 132 94 101 169 140 282
147 78 5 117 -8 202 -66 43 -29 147 -131 147 -144 0 -7 -17 4 -37 24 -79 75
-190 118 -303 118 -84 0 -140 -17 -213 -63 -90 -58 -144 -145 -225 -362 -44
-118 -305 -1066 -323 -1175 -13 -73 -65 -292 -79 -330 -5 -14 -11 -43 -14 -65
-4 -22 -15 -80 -26 -130 -11 -49 -26 -139 -35 -200 -38 -263 -94 -538 -115
-559 -5 -5 -10 -18 -10 -28 0 -10 -4 -26 -9 -36 -18 -36 -43 -131 -38 -145 8
-22 67 -9 77 17 5 11 18 68 30 125 18 95 30 123 126 310 59 113 127 244 152
291 57 105 275 431 316 473 45 45 106 87 127 87 10 0 33 -19 52 -42 39 -50
117 -173 117 -186 0 -5 41 -94 91 -198 50 -104 111 -247 136 -319 24 -71 52
-138 60 -147 17 -19 58 -24 67 -9 3 5 -5 90 -18 189 -21 157 -32 207 -91 393
-37 118 -83 248 -102 289 -20 41 -51 111 -69 154 -40 95 -64 123 -114 131 -44
7 -89 -12 -166 -72 -27 -21 -66 -49 -86 -61 -71 -44 -333 -352 -411 -484 -28
-48 -52 -86 -53 -85 -5 6 46 272 64 337 12 41 71 266 132 500 61 234 136 519
166 634 49 189 100 351 135 431 27 62 90 162 121 192 65 61 101 73 224 73 111
0 111 0 184 -40 40 -22 81 -40 91 -40 14 0 119 -110 119 -125 0 -2 -9 -1 -19
2 -25 6 -51 -42 -51 -94 0 -21 0 -45 0 -53 0 -29 -13 -85 -22 -97 -5 -7 -9
-29 -7 -50 2 -21 -3 -58 -10 -82 -11 -39 -11 -45 7 -65 14 -16 18 -31 14 -63
-2 -26 2 -54 11 -73 11 -22 14 -46 10 -80 -6 -51 3 -72 38 -91 12 -6 22 -4 33
6 14 14 17 14 36 -5 12 -12 29 -20 38 -18 17 3 42 -31 42 -59 0 -8 -9 -26 -20
-40 -28 -36 -26 -77 5 -97 16 -10 23 -22 18 -29 -4 -6 -9 -31 -11 -54 -2 -32
2 -47 17 -62 16 -16 21 -34 21 -70 0 -28 5 -53 10 -56 7 -4 8 -21 4 -43 -10
-49 -8 -74 7 -82 6 -4 8 -13 5 -19 -11 -17 23 -25 49 -11 13 7 31 30 41 52 28
62 34 55 28 -34 -9 -120 -6 -159 11 -178 8 -9 15 -22 15 -29 0 -9 8 -11 21 -8
35 9 55 -21 51 -76 -3 -39 0 -53 18 -72 18 -20 21 -30 15 -65 -8 -48 12 -80
51 -80 15 0 24 -7 26 -20 7 -45 23 -16 26 47 2 54 -1 72 -17 93 -26 36 -19
110 9 103 12 -3 20 -18 24 -48 4 -23 16 -51 26 -60 13 -12 20 -31 20 -54 0
-20 8 -52 18 -71 13 -28 23 -35 46 -35 25 0 30 6 47 50 25 65 24 78 -6 113
-16 20 -25 42 -25 66 0 24 -9 45 -28 68 -17 20 -29 47 -30 68 -2 22 -13 45
-29 62 -17 18 -28 41 -30 66 -2 26 -11 45 -33 64 -26 24 -28 31 -20 53 6 15
10 38 11 53 1 27 1 27 10 -4 5 -16 20 -41 34 -54 17 -16 25 -34 25 -57 0 -23
8 -42 26 -60 14 -14 22 -29 17 -34 -5 -5 -7 -27 -5 -50 4 -34 10 -44 37 -60
30 -18 33 -23 28 -60 -6 -44 15 -79 49 -79 15 0 18 -5 13 -20 -8 -24 12 -100
33 -123 11 -12 15 -34 13 -75 -2 -66 11 -89 55 -98 28 -5 33 -2 52 31 27 45
28 95 2 128 -13 17 -20 40 -20 70 0 31 -8 55 -25 81 -19 29 -23 41 -15 56 27
51 -16 118 -67 105 -26 -6 -29 2 -8 29 22 29 18 59 -9 85 -17 16 -31 21 -45
16 -19 -6 -20 -2 -19 51 1 47 -2 60 -20 74 -17 14 -21 28 -21 74 1 46 4 56 17
54 8 -2 20 -16 25 -33 14 -44 46 -75 79 -75 27 0 28 2 29 53 2 93 -8 119 -55
138 -17 7 -40 23 -52 37 -12 15 -36 27 -59 31 -21 3 -40 12 -43 19 -3 11 6 12
43 6 38 -5 55 -15 83 -46 30 -33 40 -39 64 -34 21 4 28 2 28 -10 0 -9 7 -14
18 -12 13 2 18 15 20 52 5 74 -4 95 -45 112 -20 9 -44 13 -54 11 -12 -3 -19 2
-21 16 -5 34 -64 67 -118 67 -40 0 -49 3 -53 21 -5 20 -3 21 33 16 43 -5 50 2
50 56 0 49 -33 95 -73 102 -20 4 -44 2 -55 -4 -28 -15 -32 -14 -32 8 0 36 -34
65 -76 65 -33 0 -43 5 -61 33 -27 41 -13 52 23 18 19 -18 38 -25 66 -25 30 0
44 -6 62 -27 18 -21 39 -30 85 -39 l61 -11 2 31 c4 92 2 109 -23 129 -19 15
-34 18 -71 14 -26 -3 -50 -2 -53 4 -4 5 1 9 9 9 9 0 23 12 33 26 13 21 14 30
5 45 -7 10 -12 30 -12 44 0 15 -11 32 -29 46 -29 21 -29 23 -15 50 30 60 6
159 -39 159 -17 0 -26 9 -35 33 -15 41 -47 60 -114 66 -5 1 -8 10 -8 20 0 22
-44 61 -69 61 -9 0 -25 7 -35 15 -11 8 -37 15 -57 15 -29 0 -43 -7 -63 -31
-14 -17 -26 -39 -26 -50 0 -31 -17 -13 -24 25 -4 19 -22 58 -41 87 -19 28 -35
54 -35 59 0 14 -105 106 -150 132 -43 25 -131 49 -168 47 -9 -1 -42 -5 -72
-10z m610 -326 c0 -14 -44 -53 -60 -53 -31 0 -30 13 2 37 31 22 58 30 58 16z
m84 -25 c22 -31 21 -61 0 -33 -9 11 -20 28 -25 38 -14 25 7 22 25 -5z m-24
-50 c0 -4 -7 -5 -15 -2 -8 4 -15 16 -15 28 1 21 1 21 15 2 8 -11 15 -23 15
-28z m-53 -25 c2 -6 -6 -9 -20 -6 -14 3 -31 -2 -40 -12 -16 -15 -17 -15 -17 4
0 14 8 21 28 24 35 5 45 3 49 -10z m205 1 c5 -3 8 -16 8 -28 0 -17 -9 -27 -29
-36 -56 -23 -81 -1 -66 57 5 23 9 24 43 18 20 -4 40 -9 44 -11z m-129 -61 c9
-20 15 -38 14 -39 -1 -1 -11 -4 -22 -8 -16 -5 -21 -1 -22 17 -1 12 -5 32 -8
45 -9 37 19 26 38 -15z m-78 -28 c0 -36 -3 -40 -25 -40 -30 0 -38 26 -19 62
20 37 44 25 44 -22z m-1520 -110 c31 -55 142 -411 132 -421 -2 -3 -10 17 -18
43 -24 88 -169 438 -200 483 l-30 45 41 -45 c22 -25 56 -72 75 -105z m-88 27
c33 -59 118 -280 110 -288 -1 -2 -24 41 -51 95 -35 74 -65 117 -116 172 l-69
74 27 28 27 28 18 -22 c10 -12 34 -51 54 -87z m1897 72 c10 -26 7 -72 -6 -80
-16 -10 -38 25 -38 63 0 26 4 33 19 33 10 0 22 -7 25 -16z m-434 -32 l-1 -27
-13 25 c-15 25 -12 45 5 35 5 -4 9 -18 9 -33z m60 12 c0 -8 -4 -12 -10 -9 -5
3 -10 10 -10 16 0 5 5 9 10 9 6 0 10 -7 10 -16z m290 -9 c0 -13 14 -40 31 -60
17 -19 26 -35 21 -35 -6 0 -12 5 -14 11 -2 6 -18 14 -36 17 -18 4 -33 10 -33
14 0 4 -4 21 -9 37 -7 24 -5 31 8 34 30 8 32 7 32 -18z m-415 -95 c-9 -18 -19
-29 -23 -26 -3 4 0 12 6 18 7 7 12 22 12 34 0 12 3 31 8 41 6 15 7 14 10 -9 2
-15 -4 -41 -13 -58z m340 70 c11 -17 -5 -49 -27 -56 -16 -5 -27 0 -41 17 -18
22 -18 24 -1 36 21 15 60 17 69 3z m-1831 -57 c57 -56 113 -139 103 -149 -3
-3 -12 7 -20 23 -28 53 -91 96 -157 106 -19 3 -40 1 -47 -5 -7 -6 -13 -7 -13
-3 0 9 63 83 71 84 4 1 32 -24 63 -56z m1563 -13 c-10 -17 -14 -37 -10 -56 5
-26 5 -67 0 -131 -2 -16 -5 -19 -14 -11 -8 6 -13 33 -13 64 0 29 -4 55 -9 59
-6 3 1 28 14 58 14 28 25 59 25 67 1 11 3 10 12 -4 8 -14 7 -25 -5 -46z m160
21 c18 -24 16 -31 -12 -31 -18 0 -28 7 -35 26 -6 14 -10 28 -10 30 0 11 45 -9
57 -25z m-97 -40 c10 -19 4 -51 -9 -51 -4 0 -8 16 -9 35 -3 39 2 44 18 16z
m295 -2 c4 -5 4 -21 1 -35 -12 -45 -66 -20 -66 30 0 18 55 23 65 5z m-97 -34
c2 -29 -6 -32 -24 -7 -18 23 -17 32 4 32 12 0 18 -8 20 -25z m-63 -15 c22 -25
13 -52 -17 -48 -18 2 -24 11 -26 36 -4 37 15 43 43 12z m255 5 c6 -8 10 -21 8
-29 -3 -13 -7 -12 -27 3 -13 10 -21 23 -17 30 10 15 21 14 36 -4z m-354 -34
c-3 -5 2 -19 12 -32 29 -37 34 -60 18 -78 -7 -9 -20 -29 -29 -46 -13 -25 -17
-27 -22 -13 -4 10 0 27 9 40 18 26 21 89 5 105 -10 10 -5 33 7 33 3 0 3 -4 0
-9z m338 -20 c23 -24 25 -29 11 -35 -19 -7 -69 39 -60 54 10 16 19 12 49 -19z
m-2223 -8 c-6 -10 -32 -64 -60 -120 -27 -56 -52 -99 -55 -96 -13 14 -58 -50
-72 -102 -1 -5 -10 -26 -19 -45 -10 -22 -14 -26 -10 -10 4 14 13 49 20 79 8
29 23 63 33 75 11 11 37 55 57 96 20 41 51 90 68 108 34 35 53 42 38 15z
m2148 -12 c9 -15 7 -20 -9 -24 -17 -4 -30 10 -30 34 0 17 29 9 39 -10z m-76
-12 c4 -16 3 -18 -9 -8 -16 13 -19 29 -5 29 5 0 11 -9 14 -21z m-231 -53 l-17
-31 -3 33 c-2 19 -1 41 3 50 6 15 8 15 20 -2 12 -16 12 -23 -3 -50z m216 -14
c-24 -4 -38 13 -38 46 0 21 2 20 29 -10 28 -31 29 -33 9 -36z m160 -20 c3 -32
2 -33 -29 -30 -26 3 -34 10 -40 30 -9 33 -2 40 36 36 26 -3 30 -7 33 -36z
m-481 -30 c-1 -20 -7 -36 -12 -35 -12 3 -19 49 -11 69 10 27 26 3 23 -34z
m621 16 c7 -7 12 -23 12 -37 -1 -25 -1 -26 -16 -6 -29 38 -36 55 -21 55 7 0
18 -5 25 -12z m-39 -37 c24 -34 27 -51 7 -51 -16 0 -27 14 -44 53 -16 38 9 37
37 -2z m-379 -8 c0 -16 -4 -34 -9 -41 -12 -20 -23 12 -15 44 8 33 24 30 24 -3z
m-102 -34 c-3 -27 -38 -40 -38 -14 0 9 5 26 11 37 14 25 32 10 27 -23z m231
-6 c2 -2 -5 -3 -17 -3 -12 0 -26 9 -32 21 -11 20 -11 20 17 3 15 -10 30 -19
32 -21z m-309 -46 c0 -35 -11 -67 -21 -61 -10 6 -12 77 -3 87 11 11 24 -3 24
-26z m233 -39 c8 -32 12 -60 8 -63 -5 -2 -11 -22 -15 -43 -3 -22 -13 -45 -21
-52 -25 -21 -29 13 -6 59 25 48 26 79 5 109 -9 13 -13 31 -9 43 9 28 19 15 38
-53z m-2093 -3 c-6 -31 -22 -72 -34 -90 -13 -18 -33 -65 -46 -104 -12 -40 -24
-70 -26 -68 -2 2 4 41 15 88 17 76 35 128 60 169 5 8 14 27 22 42 19 41 22 27
9 -37z m2000 45 c0 -5 -7 -10 -15 -10 -8 0 -15 5 -15 10 0 6 7 10 15 10 8 0
15 -4 15 -10z m192 -7 c27 -24 22 -40 -14 -46 -38 -6 -43 -2 -52 36 -6 24 -4
27 21 27 14 0 35 -7 45 -17z m106 5 c12 -12 17 -48 7 -48 -18 0 -65 33 -65 45
0 18 41 20 58 3z m-1724 -40 c15 -29 22 -57 11 -47 -7 8 -36 79 -31 79 3 0 12
-14 20 -32z m1456 -48 c0 -29 -4 -40 -15 -40 -10 0 -15 10 -15 33 0 19 3 37 7
40 15 16 23 5 23 -33z m407 32 c7 -4 16 -22 19 -40 6 -29 4 -32 -19 -32 -26 0
-67 40 -67 66 0 15 47 19 67 6z m-102 -54 l30 -18 -41 0 c-29 0 -44 5 -48 16
-14 38 -1 38 59 2z m-97 -5 c18 -25 15 -33 -16 -33 -38 0 -65 21 -56 44 8 21
52 14 72 -11z m-1612 -49 c8 -20 13 -38 11 -40 -2 -2 -11 14 -20 36 -19 50
-12 53 9 4z m1751 -19 c9 -25 -2 -27 -22 -5 -17 18 -17 20 -1 20 9 0 19 -7 23
-15z m-107 -25 c15 -35 31 -46 80 -53 31 -5 60 -28 60 -48 0 -5 -20 -7 -44 -6
-39 2 -46 6 -62 35 -20 37 -60 62 -99 62 -14 0 -25 2 -25 4 0 2 -3 11 -6 20
-5 13 2 16 39 16 40 0 46 -3 57 -30z m75 -8 c-3 -3 -16 5 -28 17 l-22 23 28
-17 c15 -10 25 -20 22 -23z m-1667 -42 c0 -47 -1 -47 -21 3 -15 35 -15 37 3
37 15 0 19 -7 18 -40z m1423 9 c-9 -22 -10 -22 -10 -3 -1 11 2 24 6 27 12 12
14 0 4 -24z m-80 4 c2 -21 -2 -57 -6 -61 -1 -1 -10 0 -19 4 -19 7 -21 27 -4
54 16 25 28 26 29 3z m489 -8 c42 -22 57 -53 33 -71 -28 -21 -52 -17 -84 15
-30 31 -31 56 -1 64 10 3 18 5 20 6 2 0 16 -6 32 -14z m-257 -22 c8 -10 19
-30 22 -45 6 -24 4 -28 -13 -28 -25 0 -52 35 -52 67 0 27 21 30 43 6z m-77
-78 c3 -22 12 -56 19 -76 12 -34 12 -37 -6 -42 -23 -6 -42 22 -28 44 17 27 10
75 -15 98 -21 19 -23 26 -13 42 11 18 12 18 24 -4 6 -12 15 -40 19 -62z
m-1478 20 c-3 -3 -9 2 -12 12 -6 14 -5 15 5 6 7 -7 10 -15 7 -18z m1359 3 c-3
-8 -6 -5 -6 6 -1 11 2 17 5 13 3 -3 4 -12 1 -19z m608 -38 c0 -20 -6 -26 -27
-28 -16 -2 -28 0 -28 5 0 4 -3 18 -6 31 -6 22 -4 23 27 20 29 -2 34 -7 34 -28z
m-540 9 c4 -5 4 -21 1 -34 -8 -30 -36 -23 -36 9 0 34 21 48 35 25z m279 -5
c12 -32 6 -54 -14 -54 -19 0 -40 33 -40 61 0 16 48 10 54 -7z m-362 -22 c3
-10 1 -29 -5 -42 l-10 -25 -7 25 c-7 28 -2 60 10 60 4 0 10 -8 12 -18z m246 0
c39 4 37 -22 -3 -55 -31 -26 -34 -27 -43 -10 -5 10 -12 33 -15 51 -6 30 -5 32
14 22 11 -6 32 -10 47 -8z m-2374 -49 c-4 -31 -7 -104 -7 -162 l1 -105 -19 35
c-20 37 -18 79 7 204 8 39 14 73 14 78 0 4 3 7 6 7 3 0 2 -26 -2 -57z m2596
-3 c23 -23 24 -30 7 -54 -25 -34 -70 15 -53 59 7 20 22 19 46 -5z m-144 -51
c10 -17 -16 -36 -59 -43 -37 -7 -38 -6 -32 16 10 36 43 60 65 48 11 -6 22 -15
26 -21z m-236 -11 c-1 -20 -33 -55 -57 -63 -19 -5 -23 -2 -23 15 0 38 19 60
50 60 18 0 30 -5 30 -12z m77 -4 c-3 -3 -1 -18 4 -33 7 -18 6 -37 -1 -55 -9
-23 -13 -26 -25 -16 -8 7 -15 21 -15 32 0 21 27 78 37 78 3 0 4 -3 0 -6z m402
-69 c1 -16 -1 -17 -9 -5 -5 8 -9 29 -9 45 1 29 1 29 9 5 4 -14 8 -34 9 -45z
m-143 10 c8 -47 -1 -54 -20 -16 -20 37 -20 51 -1 51 8 0 17 -14 21 -35z m-36
-41 c0 -6 7 -17 15 -24 17 -14 20 -30 5 -30 -8 0 -50 83 -50 99 1 11 30 -33
30 -45z m-94 -8 c6 -17 -23 -79 -34 -72 -5 3 -9 23 -10 45 -2 36 0 41 18 41
11 0 23 -6 26 -14z m-228 -9 c8 -10 6 -22 -9 -46 -30 -49 -51 -25 -29 33 11
29 22 33 38 13z m142 -2 c0 -8 -4 -15 -10 -15 -5 0 -7 7 -4 15 4 8 8 15 10 15
2 0 4 -7 4 -15z m-834 -174 c25 -51 43 -96 40 -98 -2 -2 -19 22 -37 54 -18 32
-48 76 -66 98 -19 22 -38 45 -43 51 -16 21 2 24 32 6 21 -12 42 -44 74 -111z
m812 86 c3 -33 1 -38 -15 -35 -13 2 -18 13 -19 41 -1 30 2 37 15 35 11 -2 17
-16 19 -41z m292 -20 c-1 -21 -1 -21 -15 -3 -8 10 -12 23 -9 28 9 14 24 -2 24
-25z m-243 -37 c-2 -52 -11 -65 -20 -30 -4 16 11 80 19 80 2 0 2 -22 1 -50z
m-907 -62 c18 -32 30 -58 28 -58 -3 0 -26 27 -52 59 -26 33 -57 62 -69 65 -22
6 -22 7 -2 21 17 14 21 13 41 -7 12 -13 36 -49 54 -80z m1000 67 c17 -21 3
-75 -20 -75 -21 0 -30 19 -30 61 0 22 5 29 19 29 10 0 24 -7 31 -15z m135 -5
c3 -5 1 -10 -4 -10 -6 0 -11 5 -11 10 0 6 2 10 4 10 3 0 8 -4 11 -10z m-1147
-138 c39 -60 72 -115 72 -124 0 -9 5 -20 10 -23 6 -3 10 -14 10 -24 0 -10 12
-40 26 -67 80 -150 117 -232 138 -304 8 -30 14 -56 12 -57 -3 -3 -70 137 -137
291 -27 60 -66 139 -88 175 -21 36 -48 85 -60 108 -26 52 -66 90 -104 99 -26
5 -27 7 -10 20 39 29 55 17 131 -94z m872 69 c0 -35 -27 -62 -41 -40 -12 20
-11 43 3 57 21 21 38 13 38 -17z m365 -2 c4 -5 1 -24 -6 -41 l-13 -31 -12 34
c-6 19 -9 37 -7 42 6 11 31 9 38 -4z m-297 -83 c-3 -34 -24 -41 -41 -14 -8 12
-7 24 1 43 11 23 15 25 28 14 9 -7 14 -25 12 -43z m249 7 c-11 -10 -27 8 -27
30 l0 21 16 -22 c9 -13 14 -26 11 -29z m-207 30 c0 -5 -5 -15 -10 -23 -8 -12
-10 -11 -10 8 0 12 5 22 10 22 6 0 10 -3 10 -7z m91 -25 c9 -35 -3 -36 -25 -3
-20 31 -20 37 1 33 9 -2 20 -15 24 -30z m-1351 14 c0 -4 -15 -23 -33 -42 -41
-43 -227 -313 -284 -412 -23 -40 -78 -143 -122 -228 -86 -165 -109 -174 -42
-17 67 161 317 549 421 655 52 53 60 58 60 44z m1324 -47 c20 -31 20 -35 -3
-35 -19 0 -31 18 -31 46 0 22 16 17 34 -11z m-914 -20 c0 -5 -5 -3 -10 5 -5 8
-10 20 -10 25 0 6 5 3 10 -5 5 -8 10 -19 10 -25z m850 -6 c0 -6 -4 -7 -10 -4
-5 3 -10 11 -10 16 0 6 5 7 10 4 6 -3 10 -11 10 -16z m330 -22 c0 -7 -4 -18
-9 -25 -6 -10 -11 -5 -20 19 -14 42 -14 42 9 29 11 -6 20 -16 20 -23z m-47
-29 c5 -14 1 -18 -18 -18 -31 0 -38 12 -25 46 10 26 11 26 24 8 7 -10 16 -27
19 -36z m-293 -3 c0 -13 -3 -30 -6 -39 -7 -17 -43 -22 -45 -6 -1 6 -2 15 -3
22 -1 16 36 58 46 52 5 -3 8 -16 8 -29z m170 -29 c0 -7 -3 -16 -7 -19 -7 -8
-33 46 -33 67 1 15 40 -33 40 -48z m-1702 -124 c-51 -71 -99 -138 -106 -148
-7 -11 2 8 20 41 17 33 37 65 44 70 6 6 31 39 54 75 49 74 71 102 77 96 3 -2
-38 -63 -89 -134z m1660 78 c0 -8 -6 -1 -13 15 -7 17 -10 34 -7 40 6 10 20
-27 20 -55z m241 -59 c0 -24 -2 -23 -14 9 -18 46 -18 59 0 36 8 -11 15 -31 14
-45z m-40 -1 c0 -9 -4 -8 -9 5 -5 11 -9 27 -9 35 0 9 4 8 9 -5 5 -11 9 -27 9
-35z m-1072 -77 c24 -64 42 -117 40 -119 -1 -1 -28 52 -59 117 -46 96 -54 119
-40 119 13 0 28 -31 59 -117z m747 75 c10 -40 7 -58 -9 -52 -9 4 -15 19 -15
40 0 38 15 45 24 12z m163 -50 c-3 -8 -6 -5 -6 6 -1 11 2 17 5 13 3 -3 4 -12
1 -19z m243 -94 c0 -21 -4 -33 -10 -29 -5 3 -10 22 -10 41 0 21 4 33 10 29 6
-3 10 -22 10 -41z m-2074 -76 c-18 -26 -22 -17 -5 14 6 11 13 17 16 15 3 -3
-2 -16 -11 -29z m1003 -211 c0 -27 -2 -29 -9 -12 -12 28 -12 57 0 50 6 -3 10
-21 9 -38z"/>
<path d="M3861 2052 c-47 -23 -79 -67 -65 -89 14 -22 59 -36 91 -28 39 10 83
58 83 93 0 45 -47 56 -109 24z m69 -20 c0 -18 -53 -62 -75 -62 -36 0 -31 26 8
50 32 20 67 26 67 12z"/>
<path d="M4070 1971 c-24 -45 4 -93 55 -93 29 0 73 26 82 49 18 47 -113 88
-137 44z m98 -33 c2 -9 -6 -22 -18 -28 -18 -10 -24 -8 -35 6 -7 10 -10 24 -8
32 8 19 57 11 61 -10z"/>
<path d="M3790 1803 c-18 -13 -21 -22 -16 -65 3 -28 11 -57 17 -64 13 -15 47
-18 67 -6 16 11 27 72 18 105 -8 34 -56 51 -86 30z m57 -68 l3 -50 -20 50
c-24 60 -24 57 -2 53 13 -2 18 -15 19 -53z m-40 -27 c-3 -8 -6 -5 -6 6 -1 11
2 17 5 13 3 -3 4 -12 1 -19z"/>
<path d="M2898 1613 c-31 -5 -78 -55 -78 -82 0 -23 37 -71 54 -71 7 0 31 16
54 36 47 40 55 79 24 107 -10 10 -20 16 -23 16 -2 -1 -16 -4 -31 -6z m42 -50
c0 -26 -31 -53 -62 -53 -28 0 -37 20 -20 46 17 27 82 32 82 7z"/>
<path d="M3328 1493 c-27 -28 -48 -72 -48 -98 0 -8 11 -21 23 -30 21 -14 27
-14 55 0 47 24 61 98 25 137 -21 24 -25 23 -55 -9z m33 -80 c-9 -15 -10 -12
-11 18 0 20 3 39 8 43 11 12 14 -42 3 -61z m-28 -42 c-10 -13 -24 20 -17 40 8
23 8 23 14 -6 3 -16 5 -32 3 -34z"/>
<path d="M3706 1408 c-24 -92 44 -213 93 -164 7 8 19 36 26 63 20 78 -7 122
-76 123 -30 0 -38 -4 -43 -22z m65 -28 c23 -13 26 -62 5 -79 -12 -10 -16 -8
-22 11 -4 13 -7 25 -7 28 0 3 -3 15 -8 28 -9 25 0 28 32 12z"/>
<path d="M2911 1383 c-21 -44 -29 -79 -22 -91 3 -5 22 -13 42 -17 33 -6 37 -4
48 23 7 16 11 47 9 68 -3 35 -6 39 -34 42 -25 2 -33 -2 -43 -25z m55 -29 c-3
-9 -6 -20 -6 -25 0 -5 -7 -9 -15 -9 -18 0 -18 5 -5 31 13 23 35 26 26 3z"/>
<path d="M3537 1333 c-3 -16 -10 -45 -15 -67 -7 -23 -7 -48 -2 -62 11 -27 50
-40 78 -25 19 10 42 76 42 120 0 30 -35 61 -69 61 -23 0 -30 -5 -34 -27z m63
-14 c12 -22 4 -119 -10 -119 -4 0 -11 32 -17 70 -7 55 -6 70 4 70 7 0 17 -9
23 -21z m-53 -91 c-3 -7 -5 -2 -5 12 0 14 2 19 5 13 2 -7 2 -19 0 -25z"/>
<path d="M2999 1197 c-46 -40 -55 -63 -29 -77 30 -16 64 -12 88 10 28 26 29
75 3 90 -25 13 -20 15 -62 -23z m54 -13 c12 -13 -26 -54 -50 -54 l-24 0 21 30
c20 29 39 37 53 24z"/>
<path d="M3235 1093 c-54 -56 -56 -113 -6 -113 36 0 80 34 97 76 23 54 19 64
-26 64 -30 0 -45 -7 -65 -27z m75 -22 c0 -11 -58 -61 -71 -61 -11 0 -12 30 -1
46 4 7 18 14 32 17 14 2 28 5 33 6 4 0 7 -3 7 -8z"/>
<path d="M3658 1095 c-28 -31 -35 -57 -30 -102 5 -37 29 -53 81 -53 38 0 49
16 57 81 7 60 -6 81 -58 94 -21 5 -31 1 -50 -20z m55 -39 c30 -23 14 -66 -25
-66 -19 0 -24 32 -12 64 7 19 14 20 37 2z"/>
<path d="M3391 1004 c-45 -57 -39 -121 14 -136 39 -11 70 6 90 47 29 63 13
102 -46 111 -31 5 -39 2 -58 -22z m79 -42 c0 -23 -28 -62 -44 -62 -18 0 -27
26 -20 56 5 18 13 24 35 24 21 0 29 -5 29 -18z"/>
</g>
</svg>
