<?xml version="1.0" standalone="no"?>
<!DOCTYPE svg PUBLIC "-//W3C//DTD SVG 20010904//EN"
 "http://www.w3.org/TR/2001/REC-SVG-20010904/DTD/svg10.dtd">
<svg version="1.0" xmlns="http://www.w3.org/2000/svg"
 width="240.000000pt" height="240.000000pt" viewBox="0 0 240.000000 240.000000"
 preserveAspectRatio="xMidYMid meet">
<metadata>
Created by potrace 1.11, written by Peter Selinger 2001-2013
</metadata>
<g transform="translate(0.000000,240.000000) scale(0.100000,-0.100000)"
fill="#000000" stroke="none">
<path d="M1220 2068 c-11 -18 -22 -50 -24 -73 -6 -48 -19 -438 -20 -620 l-1
-130 -323 -1 c-347 -1 -341 0 -342 -51 0 -50 20 -53 357 -53 l313 0 1 -42 c1
-24 3 -54 5 -68 2 -14 4 -168 5 -342 2 -288 4 -319 20 -334 9 -8 28 -14 41
-12 42 6 49 79 42 461 l-6 337 315 0 c315 0 316 0 331 22 18 25 21 54 7 62 -5
4 -150 9 -323 12 -172 3 -319 7 -326 10 -21 6 -10 659 12 728 17 52 14 79 -12
109 -23 26 -50 21 -72 -15z"/>
<path d="M1820 1759 c-19 -12 -61 -46 -93 -76 -33 -29 -86 -67 -118 -84 -33
-16 -62 -36 -66 -44 -9 -25 6 -63 27 -70 54 -17 350 194 350 249 0 49 -43 59
-100 25z"/>
<path d="M687 1733 c-13 -12 -7 -109 9 -155 16 -48 72 -121 107 -139 17 -10
24 -8 39 11 25 31 23 50 -12 101 -16 24 -30 54 -30 67 0 30 -23 83 -44 105
-17 17 -57 23 -69 10z"/>
<path d="M1647 863 c-16 -16 -4 -75 28 -139 34 -69 164 -225 211 -254 22 -13
27 -13 52 0 15 9 27 21 27 27 0 6 -48 73 -107 148 -60 76 -108 144 -108 152 0
30 -40 73 -69 73 -15 0 -31 -3 -34 -7z"/>
<path d="M727 736 c-57 -70 -132 -195 -146 -243 -11 -38 6 -77 36 -81 23 -3
73 57 113 138 12 25 42 73 66 107 45 63 56 107 32 131 -24 24 -48 11 -101 -52z"/>
</g>
</svg>
