<?xml version="1.0" standalone="no"?>
<!DOCTYPE svg PUBLIC "-//W3C//DTD SVG 20010904//EN"
 "http://www.w3.org/TR/2001/REC-SVG-20010904/DTD/svg10.dtd">
<svg version="1.0" xmlns="http://www.w3.org/2000/svg"
 width="1024.000000pt" height="1024.000000pt" viewBox="0 0 1024.000000 1024.000000"
 preserveAspectRatio="xMidYMid meet">
<metadata>
Created by potrace 1.10, written by Peter Selinger 2001-2011
</metadata>
<g transform="translate(0.000000,1024.000000) scale(0.100000,-0.100000)"
fill="#000000" stroke="none">
<path d="M4725 9116 c-56 -18 -99 -41 -140 -77 l-35 -31 43 -51 c23 -29 66
-75 96 -102 112 -104 195 -239 243 -395 l23 -75 3 -1092 c2 -702 -1 -1093 -7
-1093 -5 0 -291 -50 -635 -110 l-626 -111 -322 25 c-177 14 -323 24 -325 23
-1 -2 13 -53 32 -114 34 -109 37 -113 96 -166 57 -52 164 -116 219 -132 14 -4
69 -27 123 -52 130 -60 191 -65 297 -28 69 25 1081 257 1088 250 13 -12 -231
-610 -373 -915 -372 -802 -967 -1769 -1629 -2649 -89 -117 -165 -219 -171
-227 -7 -10 -3 -21 15 -39 l26 -25 49 25 c170 88 584 479 911 861 347 404 841
1090 1122 1557 104 172 107 176 110 140 2 -21 -1 -193 -7 -383 -52 -1635 -82
-2712 -77 -2800 7 -142 43 -279 102 -389 61 -112 89 -148 135 -172 54 -27 72
-24 156 23 84 48 108 83 137 194 34 135 36 236 36 2114 0 1851 0 1861 20 1847
30 -21 224 -211 344 -338 128 -135 276 -316 366 -449 127 -186 283 -320 372
-320 61 0 129 59 147 128 43 164 0 384 -106 543 -103 154 -420 359 -883 570
l-255 117 -3 341 c-2 321 -1 341 16 341 9 0 98 7 197 15 99 8 377 30 618 49
401 31 441 36 484 58 60 30 85 64 91 127 4 44 1 56 -22 86 -15 19 -56 55 -92
81 -88 63 -333 144 -435 144 -44 0 -191 -26 -445 -80 -208 -44 -387 -82 -397
-84 -17 -4 -18 43 -15 1157 4 1076 5 1168 22 1249 10 49 15 100 12 114 -9 34
-80 103 -141 136 -48 25 -539 199 -560 197 -5 0 -28 -6 -50 -13z"/>
<path d="M6604 8627 c-32 -16 -61 -31 -63 -33 -2 -2 18 -54 44 -116 l47 -112
-53 -156 c-39 -114 -100 -250 -230 -515 -166 -340 -187 -376 -364 -644 -177
-270 -186 -285 -174 -309 8 -13 19 -26 25 -29 6 -2 42 13 80 33 38 21 91 50
119 65 27 15 157 121 288 236 l239 208 295 370 c163 204 317 393 343 420 26
28 53 67 60 88 10 33 9 43 -11 85 -60 125 -408 399 -545 430 -35 8 -48 5 -100
-21z"/>
<path d="M3233 8009 l-22 -22 58 -86 c220 -328 445 -739 592 -1084 83 -195
134 -289 181 -338 38 -39 43 -41 89 -37 73 7 121 44 160 123 29 60 33 78 37
173 3 83 -1 131 -18 212 -65 316 -203 500 -634 845 -262 209 -387 270 -443
214z"/>
</g>
</svg>
