<?xml version="1.0" standalone="no"?>
<!DOCTYPE svg PUBLIC "-//W3C//DTD SVG 20010904//EN"
 "http://www.w3.org/TR/2001/REC-SVG-20010904/DTD/svg10.dtd">
<svg version="1.0" xmlns="http://www.w3.org/2000/svg"
 width="60.000000pt" height="60.000000pt" viewBox="0 0 60.000000 60.000000"
 preserveAspectRatio="xMidYMid meet">
<metadata>
Created by potrace 1.10, written by Peter Selinger 2001-2011
</metadata>
<g transform="translate(0.000000,60.000000) scale(0.100000,-0.100000)"
fill="#000000" stroke="none">
<path d="M265 521 c-3 -5 -1 -12 5 -16 5 -3 10 -39 10 -79 l0 -73 -31 -7 c-17
-3 -59 -6 -93 -6 -61 -1 -61 -1 -39 -19 19 -16 29 -17 64 -10 23 6 49 9 56 7
23 -5 -58 -109 -118 -151 -29 -20 -46 -37 -38 -37 25 0 116 67 156 115 l38 46
5 -102 c3 -69 9 -104 18 -107 9 -3 12 25 12 117 0 72 4 122 10 126 6 4 44 9
85 12 62 5 73 8 64 20 -7 8 -24 12 -43 9 -17 -3 -50 -7 -73 -11 l-43 -5 0 80
c0 68 -3 81 -19 90 -12 6 -22 6 -26 1z"/>
<path d="M410 484 c0 -11 -15 -37 -32 -59 l-33 -39 33 20 c18 10 42 28 53 40
19 20 19 21 -1 39 -19 18 -20 18 -20 -1z"/>
<path d="M181 414 c32 -47 46 -52 35 -12 -3 13 -19 31 -36 40 l-31 17 32 -45z"/>
<path d="M326 310 c5 -9 35 -51 68 -93 55 -73 61 -77 97 -77 44 0 50 12 15 28
-13 6 -61 43 -107 84 -45 40 -79 66 -73 58z"/>
</g>
</svg>
