<?xml version="1.0" standalone="no"?>
<!DOCTYPE svg PUBLIC "-//W3C//DTD SVG 20010904//EN"
 "http://www.w3.org/TR/2001/REC-SVG-20010904/DTD/svg10.dtd">
<svg version="1.0" xmlns="http://www.w3.org/2000/svg"
 width="480.000000pt" height="480.000000pt" viewBox="0 0 480.000000 480.000000"
 preserveAspectRatio="xMidYMid meet">
<metadata>
Created by potrace 1.11, written by Peter Selinger 2001-2013
</metadata>
<g transform="translate(0.000000,480.000000) scale(0.100000,-0.100000)"
fill="#000000" stroke="none">
<path d="M2406 4237 c-67 -88 -83 -171 -85 -447 0 -107 -6 -265 -13 -350 -7
-85 -12 -320 -12 -522 l-1 -368 -646 0 -646 0 -21 -23 c-32 -33 -30 -105 2
-140 44 -47 66 -49 707 -44 434 3 601 1 608 -7 19 -23 35 -1048 22 -1396 -3
-85 -1 -111 13 -138 21 -41 70 -72 114 -72 39 0 45 11 74 145 16 76 19 128 19
325 0 129 -3 307 -6 395 -2 88 -7 292 -11 453 l-6 292 611 0 c684 0 669 -1
697 66 21 51 15 96 -16 110 -17 8 -173 14 -485 18 -495 7 -808 15 -813 21 -8
7 -7 848 1 1065 9 267 13 307 40 384 27 80 26 154 -2 199 -45 73 -105 87 -145
34z"/>
<path d="M3612 3596 c-68 -37 -110 -70 -217 -171 -82 -78 -175 -141 -265 -182
-36 -17 -74 -40 -85 -52 -39 -44 -12 -154 42 -167 52 -13 245 93 459 254 208
156 260 217 238 281 -10 27 -67 71 -93 71 -9 0 -44 -16 -79 -34z"/>
<path d="M1345 3540 c-37 -14 -46 -36 -46 -107 1 -172 61 -324 170 -433 68
-67 105 -88 129 -74 31 20 62 76 62 114 0 35 -43 118 -69 134 -20 13 -39 60
-46 116 -10 83 -22 121 -54 171 -47 75 -95 100 -146 79z"/>
<path d="M3251 1793 c-50 -42 -42 -123 29 -270 47 -96 104 -174 245 -333 56
-63 110 -125 121 -138 27 -32 78 -63 111 -66 45 -4 123 41 123 71 0 7 -93 131
-207 275 -173 221 -210 273 -229 328 -41 116 -135 181 -193 133z"/>
<path d="M1429 1573 c-102 -123 -220 -301 -285 -427 -40 -81 -49 -107 -49
-151 0 -46 4 -58 29 -84 42 -44 74 -41 123 12 56 61 112 147 172 264 29 55 75
134 104 173 97 135 107 152 107 193 0 32 -7 46 -39 78 -21 22 -48 39 -60 39
-14 0 -46 -31 -102 -97z"/>
</g>
</svg>
