<?xml version="1.0" standalone="no"?>
<!DOCTYPE svg PUBLIC "-//W3C//DTD SVG 20010904//EN"
 "http://www.w3.org/TR/2001/REC-SVG-20010904/DTD/svg10.dtd">
<svg version="1.0" xmlns="http://www.w3.org/2000/svg"
 width="1024.000000pt" height="1024.000000pt" viewBox="0 0 1024.000000 1024.000000"
 preserveAspectRatio="xMidYMid meet">
<metadata>
Created by potrace 1.10, written by Peter Selinger 2001-2011
</metadata>
<g transform="translate(0.000000,1024.000000) scale(0.100000,-0.100000)"
fill="#000000" stroke="none">
<path d="M2418 9836 c-80 -29 -113 -64 -124 -132 -5 -36 -3 -45 22 -71 l29
-30 370 -33 369 -33 184 -125 c118 -81 198 -143 227 -176 24 -28 131 -175 237
-327 l194 -275 -56 37 c-118 80 -307 165 -515 234 -321 107 -693 183 -1052
215 -171 15 -232 -3 -252 -76 -26 -92 -21 -94 579 -212 l515 -102 233 -92
c127 -50 232 -94 232 -98 0 -4 -569 -175 -691 -207 -13 -4 -15 1 -12 22 4 17
-1 33 -13 47 -25 27 -91 57 -129 58 -16 0 -88 27 -159 60 -197 92 -223 97
-642 117 -432 20 -444 19 -518 -56 -40 -40 -49 -57 -53 -94 -4 -37 -2 -48 17
-67 21 -21 28 -22 109 -16 56 4 211 -2 441 -18 341 -24 361 -27 500 -64 125
-33 209 -66 197 -78 -1 -2 -76 -33 -166 -69 -132 -54 -189 -84 -295 -154 -72
-49 -155 -109 -185 -134 -30 -26 -122 -83 -205 -128 -217 -117 -228 -124 -263
-161 -59 -61 -102 -198 -73 -233 30 -36 249 -180 343 -226 56 -27 248 -99 427
-160 l325 -111 585 -34 c322 -18 606 -34 631 -34 l47 0 7 -55 c6 -50 4 -58
-19 -86 -14 -17 -26 -40 -26 -52 -1 -41 -310 -307 -519 -446 -203 -135 -320
-200 -526 -291 -306 -135 -500 -261 -701 -456 -170 -165 -300 -341 -378 -512
-46 -99 -56 -131 -56 -175 0 -66 26 -100 91 -117 58 -16 80 -4 102 56 32 87
110 232 177 326 199 282 511 520 908 694 308 136 570 298 785 486 l67 60 0
-115 c0 -227 47 -392 192 -677 52 -102 123 -257 157 -345 35 -88 67 -164 71
-170 4 -5 24 -60 43 -122 l35 -112 -33 -48 c-56 -83 -138 -149 -253 -204 -284
-136 -588 -198 -922 -186 -202 7 -266 19 -351 63 -98 52 -114 73 -127 172
l-12 83 34 52 c38 59 117 137 166 162 27 14 67 17 223 19 l190 3 24 29 c13 16
30 48 39 71 21 55 5 90 -56 120 -105 53 -319 57 -442 10 -239 -92 -387 -293
-388 -528 -1 -222 108 -371 330 -452 49 -18 86 -20 345 -24 267 -4 308 -3 515
22 146 17 250 34 296 49 l71 24 7 -372 c7 -412 4 -441 -43 -432 -14 3 -109 13
-211 22 l-185 18 -130 67 c-328 171 -747 303 -1120 355 -66 9 -169 25 -230 36
-166 31 -188 32 -224 13 -18 -9 -36 -26 -42 -38 -6 -14 -29 -29 -59 -40 -81
-29 -123 -102 -154 -266 -32 -170 -17 -312 55 -524 79 -232 107 -286 225 -433
216 -268 489 -449 870 -574 226 -74 461 -110 716 -110 l140 0 -6 -32 c-3 -18
-8 -57 -12 -85 -6 -50 -9 -53 -43 -64 -70 -21 -179 -20 -491 4 -237 18 -324
28 -348 41 -24 13 -65 17 -174 19 l-143 2 3 -35 c8 -94 76 -149 242 -193 243
-66 461 -97 672 -97 l138 0 0 -291 c0 -282 -1 -293 -22 -337 -35 -70 -111
-147 -180 -181 -60 -30 -64 -31 -209 -31 -214 0 -415 43 -660 140 -513 205
-971 630 -1248 1160 -59 113 -121 265 -121 298 0 30 -46 117 -80 150 -43 44
-99 71 -132 65 -43 -8 -90 -65 -95 -115 -4 -40 8 -67 167 -383 171 -341 225
-429 378 -624 136 -172 360 -376 557 -506 109 -72 360 -200 470 -239 44 -16
123 -48 175 -71 78 -35 132 -49 295 -80 319 -60 441 -57 590 14 144 68 283
238 316 386 17 72 18 390 2 451 -6 26 -7 64 -1 108 6 43 6 79 -1 96 -9 27 -5
32 67 98 72 65 79 75 106 151 33 96 31 159 -10 230 -21 37 -23 49 -14 79 8 32
7 39 -15 62 -30 32 -30 35 0 137 22 77 23 86 9 126 -16 48 -40 77 -104 129
-100 80 -216 118 -362 118 -71 0 -94 -4 -123 -21 l-36 -22 -27 26 c-44 42
-143 96 -214 118 -70 22 -213 30 -259 16 -23 -8 -30 -3 -62 41 -64 90 -154
137 -287 151 -69 8 -79 6 -123 -17 -46 -25 -95 -71 -128 -122 l-16 -24 -40 60
c-78 114 -153 284 -153 346 0 16 -11 51 -25 78 -23 46 -25 60 -25 188 l0 138
48 47 48 48 204 -26 c112 -14 207 -25 212 -25 17 0 7 -69 -16 -112 -13 -24
-28 -67 -34 -94 -16 -76 -24 -222 -15 -294 l8 -65 61 -46 c111 -84 249 -110
382 -73 l59 16 54 -41 c82 -62 159 -83 295 -79 l112 3 41 -33 c23 -18 67 -45
99 -60 50 -23 70 -27 157 -27 62 0 113 -6 134 -14 27 -12 55 -12 164 -3 109
10 142 17 194 41 130 61 215 178 235 323 9 61 8 89 -9 169 -12 63 -16 107 -11
125 5 16 6 103 2 194 -3 91 -6 273 -7 405 -2 222 -4 243 -24 283 l-21 42 134
122 c141 128 197 200 227 293 41 131 27 240 -52 400 -28 55 -66 140 -86 188
-46 115 -140 302 -207 413 -49 81 -57 103 -87 239 -32 142 -33 156 -26 265 12
178 11 213 -12 260 l-21 42 52 87 c96 157 109 250 48 336 l-30 43 30 29 c117
111 204 288 228 464 12 87 -1 244 -40 464 -23 134 -40 310 -40 427 l0 87 43
11 c78 21 114 60 97 106 -11 29 -603 858 -663 927 -148 172 -473 343 -762 401
-183 36 -417 47 -487 22z m1582 -1309 c0 -9 -40 0 -52 12 -4 3 -5 17 -1 30 l6
23 23 -29 c13 -15 23 -32 24 -36z m-350 -270 c-184 -91 -507 -233 -740 -325
-154 -61 -255 -94 -405 -131 -110 -27 -222 -52 -250 -55 l-50 -7 82 53 c46 29
83 59 83 65 0 77 1112 444 1395 461 6 0 -46 -27 -115 -61z m306 -179 l9 -103
-30 -8 c-65 -18 -123 -55 -190 -122 -117 -117 -185 -258 -185 -383 1 -88 22
-134 96 -201 70 -64 156 -107 231 -117 l54 -6 -26 -28 c-71 -74 -193 -111
-369 -113 -105 -2 -129 1 -177 21 -73 29 -133 82 -167 146 -26 49 -27 57 -27
206 0 168 8 205 66 321 45 91 168 212 264 261 17 9 56 19 88 22 81 10 184 65
254 135 52 52 73 68 94 70 4 1 11 -45 15 -101z m-879 -290 c-91 -208 -118
-346 -97 -497 11 -81 50 -227 70 -263 8 -14 6 -18 -7 -18 -9 0 -151 25 -315
55 -326 61 -397 82 -618 187 -69 32 -158 80 -199 105 -88 55 -99 46 134 104
348 87 765 222 966 313 62 29 73 31 66 14z m-509 -4303 c59 -14 116 -27 128
-30 20 -4 21 -6 6 -102 -11 -79 -20 -105 -44 -139 -35 -48 -96 -95 -157 -120
-39 -15 -44 -15 -86 1 -25 9 -45 23 -45 30 0 34 33 221 41 231 4 5 14 42 20
82 7 40 16 72 21 72 4 0 57 -11 116 -25z m457 -177 c66 -38 104 -66 101 -74
-3 -7 -10 -32 -16 -56 -24 -87 -84 -173 -127 -181 -15 -3 -42 2 -61 11 l-35
17 7 110 c8 126 18 235 21 235 2 0 51 -28 110 -62z m426 -173 c35 -10 68 -21
73 -26 4 -4 -18 -53 -49 -108 -56 -99 -58 -101 -94 -101 -62 0 -64 5 -46 111
24 143 26 151 39 146 7 -3 41 -13 77 -22z m464 -102 c-7 -46 -20 -78 -61 -151
-19 -33 -26 -36 -103 -47 l-44 -6 7 68 c3 37 9 94 12 126 l7 57 94 0 94 0 -6
-47z m-1657 -442 c31 -16 67 -43 80 -60 23 -31 23 -33 7 -79 -25 -76 -22 -76
-118 -6 -71 52 -87 69 -87 90 0 25 36 82 53 83 4 1 33 -12 65 -28z m482 -179
l135 -28 22 -39 c13 -22 23 -49 23 -60 0 -19 -65 -135 -76 -135 -16 0 -324
124 -324 131 0 5 9 32 21 61 12 29 25 63 30 76 10 27 4 27 169 -6z m670 -132
c21 -11 41 -24 45 -30 3 -5 -13 -42 -36 -81 l-43 -72 -135 7 c-75 4 -137 8
-138 10 -4 3 41 160 50 174 6 8 40 12 113 12 85 0 112 -4 144 -20z"/>
<path d="M5754 6460 c-33 -13 -74 -69 -74 -100 0 -41 -10 -60 -36 -70 -44 -17
-60 -73 -56 -191 l4 -105 50 -35 c50 -33 118 -104 118 -122 0 -5 14 -29 32
-53 l32 -45 -77 -77 c-42 -43 -77 -85 -77 -95 0 -10 -11 -34 -25 -55 -42 -63
-58 -151 -53 -287 3 -85 9 -129 21 -151 16 -32 81 -94 96 -94 5 0 11 -28 14
-62 6 -99 84 -430 134 -573 25 -71 48 -157 52 -190 4 -33 19 -86 34 -119 15
-32 27 -63 27 -69 0 -5 11 -25 25 -43 16 -21 25 -46 25 -68 0 -20 12 -61 26
-93 15 -32 39 -103 56 -158 50 -173 96 -255 202 -364 l93 -96 -21 -166 -21
-167 -50 -55 c-27 -30 -61 -71 -75 -91 l-25 -37 -137 7 c-75 4 -203 7 -285 7
-134 0 -155 -2 -228 -26 -44 -15 -98 -37 -120 -50 l-40 -23 2 -72 c1 -41 8
-84 17 -101 l16 -30 -35 -7 c-42 -8 -49 -16 -102 -118 -131 -253 -212 -429
-218 -473 -4 -26 -17 -73 -30 -103 -41 -94 -56 -168 -54 -271 1 -80 -2 -102
-20 -138 -16 -31 -21 -56 -19 -93 3 -47 0 -54 -31 -85 -31 -31 -33 -37 -29
-87 3 -35 12 -63 26 -81 20 -26 21 -30 7 -45 -9 -10 -44 -31 -78 -46 -56 -26
-72 -29 -172 -29 -122 0 -125 1 -225 78 -76 59 -178 109 -275 137 -94 27 -131
26 -172 -6 -32 -25 -33 -26 -33 -103 l0 -79 58 -53 c32 -30 79 -70 104 -89 26
-19 56 -52 68 -72 13 -24 71 -76 156 -142 134 -103 137 -105 202 -112 52 -5
78 -3 117 11 77 27 271 125 363 184 75 49 83 56 88 92 6 38 8 39 46 39 36 0
60 17 336 245 l297 246 115 157 c63 87 125 170 138 186 12 16 22 36 22 46 0
25 41 58 83 65 21 4 45 17 56 31 10 13 26 24 35 24 25 0 349 -59 354 -65 3 -3
-11 -11 -30 -19 -20 -9 -107 -87 -204 -183 -225 -223 -371 -417 -393 -523 -21
-99 -16 -97 -193 -70 l-153 22 -120 -22 c-165 -31 -175 -40 -175 -165 l0 -92
75 -156 c41 -85 87 -169 101 -186 39 -46 106 -82 166 -88 51 -5 54 -4 72 27
29 51 33 152 7 224 -11 33 -19 61 -17 64 7 7 456 59 566 66 417 26 820 121
1220 289 47 19 210 96 363 170 152 75 296 139 319 142 51 9 144 86 153 127 5
21 14 29 38 34 18 3 77 34 132 68 l100 61 3 52 c2 37 -3 63 -18 93 -39 77
-127 126 -688 381 -367 166 -403 185 -397 203 3 12 9 40 12 63 5 37 2 45 -21
65 l-27 23 97 80 c89 73 166 124 219 145 19 7 20 4 20 -75 0 -74 3 -86 30
-131 49 -78 112 -105 315 -134 91 -13 168 -28 171 -33 10 -14 211 37 350 90
64 23 119 43 123 43 3 0 18 -24 32 -52 l27 -53 -87 -80 -86 -80 0 -62 0 -63
38 -16 c25 -12 66 -17 132 -18 88 -1 100 1 160 31 36 18 83 48 104 68 22 19
43 35 47 35 4 0 23 -9 42 -20 18 -11 98 -43 178 -71 127 -46 156 -52 246 -57
120 -5 210 17 289 72 47 32 49 35 46 76 -1 24 -6 50 -11 58 -4 8 -75 34 -157
57 -138 40 -312 103 -427 155 -32 14 -62 39 -89 74 -37 48 -40 57 -40 115 l0
63 49 28 c27 15 54 34 60 42 25 31 55 156 59 253 3 55 9 125 15 155 10 51 7
70 -41 260 -50 200 -53 208 -142 375 -77 146 -121 211 -310 464 -199 266 -219
296 -208 315 9 19 5 33 -34 101 l-45 79 -28 -31 -28 -30 -116 103 c-64 57
-123 104 -131 104 -10 0 -18 14 -22 41 -8 48 -28 90 -68 141 -22 28 -28 44
-23 60 4 13 71 88 149 168 131 133 146 153 188 240 72 150 119 307 137 462 l9
77 123 145 c68 80 136 168 152 197 45 85 33 145 -38 179 -50 24 -108 25 -207
5 -267 -56 -496 -196 -653 -398 -38 -49 -57 -66 -82 -70 -74 -13 -101 -36
-187 -161 -140 -203 -174 -292 -185 -475 l-6 -114 -45 -13 c-25 -8 -61 -14
-81 -14 -40 0 -132 -25 -163 -45 -19 -12 -34 -5 -156 69 -243 146 -460 316
-642 504 -49 49 -88 97 -88 106 0 30 -30 75 -59 90 -37 20 -90 23 -120 7 -13
-7 -27 -9 -31 -4 -81 88 -126 148 -159 208 -58 104 -149 222 -237 304 -78 73
-84 76 -120 61z m2965 -297 c-18 -21 -53 -58 -77 -83 -62 -62 -95 -137 -97
-220 -1 -74 -24 -123 -53 -113 -46 17 -242 129 -242 139 0 6 33 42 73 80 111
108 189 156 332 205 44 16 84 28 89 29 4 0 -7 -17 -25 -37z m-2770 -112 c31
-41 49 -75 45 -84 -12 -33 67 -143 136 -190 23 -16 23 -18 7 -34 -16 -16 -21
-14 -83 47 -51 51 -64 70 -61 89 3 16 -4 33 -22 53 -22 24 -38 32 -78 35 -44
5 -57 11 -94 49 l-42 43 64 29 c35 17 67 31 71 31 3 1 29 -30 57 -68z m2172
-352 c35 -16 55 -27 44 -23 -45 14 -100 15 -119 2 -34 -26 -12 -55 79 -100 82
-41 85 -41 105 -23 26 24 25 59 -2 85 -20 18 223 -90 244 -109 4 -3 5 -16 2
-27 -5 -21 -8 -20 -62 17 -50 33 -59 36 -77 25 -39 -26 -30 -51 32 -97 32 -24
60 -44 62 -46 2 -1 -17 -33 -43 -71 -50 -76 -111 -137 -183 -182 -45 -29 -51
-30 -167 -30 l-121 1 -44 41 c-43 41 -43 41 -37 94 6 55 54 201 88 269 29 57
122 205 129 205 4 0 35 -14 70 -31z m-1764 -76 c20 -16 108 -98 197 -184 137
-132 190 -176 351 -286 l190 -129 108 -17 c80 -13 117 -23 147 -43 22 -15 40
-28 40 -29 0 -2 -19 -34 -42 -71 -178 -294 -253 -694 -197 -1059 10 -61 74
-230 100 -262 17 -20 146 -55 166 -44 10 5 64 15 121 20 62 7 109 17 117 25 8
8 57 37 110 65 52 28 254 164 449 301 195 137 358 251 363 252 12 4 366 -410
389 -453 9 -19 43 -65 76 -104 32 -38 61 -81 65 -95 3 -14 25 -62 49 -107 24
-46 44 -94 44 -108 0 -14 9 -44 21 -67 16 -32 19 -50 14 -88 -4 -28 -13 -51
-21 -54 -20 -8 -18 -46 14 -241 l28 -170 -115 -38 c-133 -43 -302 -124 -412
-196 -41 -27 -122 -68 -179 -91 l-103 -41 -136 11 c-214 17 -267 27 -285 55
-25 37 -19 94 20 210 50 152 100 374 119 533 9 75 28 172 41 214 13 43 24 90
24 105 0 80 -59 173 -109 173 -24 0 -31 -7 -49 -47 -22 -52 -23 -60 -74 -352
l-33 -194 -35 -22 c-19 -13 -49 -38 -66 -56 -28 -31 -32 -42 -38 -118 -5 -63
-11 -88 -24 -97 -9 -7 -116 -90 -237 -184 -121 -94 -225 -174 -232 -177 -6 -2
-58 25 -115 60 -170 106 -310 184 -500 277 -98 49 -183 90 -187 92 -7 3 4 202
13 243 3 11 23 40 45 64 39 43 40 45 26 78 -13 31 -11 44 34 208 41 145 54
181 81 212 40 45 90 148 90 185 0 38 -72 95 -103 81 -86 -40 -140 -125 -208
-330 -29 -90 -56 -163 -59 -163 -9 0 -77 113 -120 200 -78 155 -129 298 -261
728 -189 618 -194 656 -93 812 23 36 58 98 79 139 20 41 60 111 87 155 51 82
169 246 176 246 2 0 20 -12 39 -27z m-344 -25 c16 -12 6 -30 -94 -193 -61 -99
-113 -182 -115 -184 -11 -12 -16 16 -17 86 0 72 3 84 40 150 29 54 53 83 93
113 58 44 68 46 93 28z m1637 -695 c-22 -48 -47 -91 -55 -96 -8 -4 -47 -55
-86 -113 -39 -58 -74 -103 -76 -100 -6 5 52 146 90 216 64 121 74 134 117 161
24 15 46 26 48 24 2 -2 -15 -43 -38 -92z m330 32 c96 -10 96 -9 110 -73 7 -31
23 -86 36 -121 l24 -64 -32 -51 c-18 -28 -62 -96 -99 -152 -37 -55 -85 -136
-107 -180 -37 -73 -56 -95 -219 -250 -171 -163 -313 -272 -313 -240 0 53 47
269 79 366 52 154 108 264 236 460 58 89 124 198 146 241 30 62 44 79 57 75 9
-2 46 -7 82 -11z m418 -491 l80 -112 -26 -24 c-72 -66 -192 -154 -332 -243
-85 -54 -193 -124 -240 -154 -47 -30 -80 -48 -74 -40 6 8 83 104 170 214 87
110 197 262 244 338 47 75 88 136 92 134 4 -1 43 -52 86 -113z m-1665 -1906
c161 -83 299 -156 307 -163 8 -7 35 -20 60 -29 25 -10 63 -34 85 -55 22 -21
60 -52 84 -69 25 -18 40 -32 35 -32 -50 0 -259 57 -309 84 -33 18 -187 104
-343 191 l-283 158 32 34 c18 18 35 33 36 33 2 0 135 -68 296 -152z m-35 -263
l398 -225 142 0 142 0 13 -33 c19 -44 74 -91 133 -112 87 -32 918 -398 941
-414 12 -9 22 -18 22 -21 0 -3 -36 -22 -81 -44 -78 -37 -82 -38 -157 -31 -138
12 -1820 351 -1935 389 -160 54 -303 131 -450 244 -58 44 -266 294 -299 359
-24 46 -22 73 6 74 12 0 150 9 307 18 157 10 316 19 353 20 l68 1 397 -225z
m2434 87 c-3 -50 0 -65 22 -97 14 -21 26 -46 26 -55 0 -23 153 -133 245 -176
61 -29 66 -33 39 -34 -17 0 -53 12 -79 26 -48 25 -52 25 -184 19 -131 -7 -138
-8 -194 -41 l-58 -34 25 33 c73 95 73 183 1 297 -15 23 -23 46 -18 51 9 8 151
66 168 68 6 1 9 -22 7 -57z m-3531 -263 c119 -138 222 -222 356 -288 130 -64
130 -64 80 -114 -85 -86 -217 -245 -217 -262 0 -16 -536 -585 -551 -585 -5 0
-24 -14 -42 -30 -19 -17 -41 -30 -48 -30 -24 1 -67 44 -84 85 -9 22 -28 52
-43 68 l-26 27 21 15 c62 43 76 106 74 325 -1 96 1 111 28 170 16 36 53 151
82 255 58 208 38 169 216 423 24 34 46 62 47 62 2 0 50 -54 107 -121z m1589
-635 c370 -69 622 -125 850 -190 l135 -38 -40 -15 c-48 -18 -101 -46 -260
-134 -66 -37 -179 -92 -250 -123 -132 -58 -770 -273 -945 -320 -160 -42 -365
-43 -503 -2 -29 9 -43 21 -57 48 -17 34 -18 42 -6 86 19 66 40 112 70 153 14
19 26 40 26 46 0 7 9 20 20 30 10 9 44 55 75 101 72 106 129 169 213 236 37
29 69 56 70 60 2 5 11 8 19 8 43 0 97 26 114 54 18 30 71 65 99 66 8 0 175
-30 370 -66z m-2925 -676 c22 -11 83 -47 136 -79 99 -61 212 -99 288 -99 92 1
201 44 269 108 l32 30 49 -37 49 -37 -46 0 c-61 0 -105 -22 -184 -91 -100 -87
-127 -98 -238 -98 -84 0 -101 3 -145 27 -27 15 -63 45 -80 68 -16 22 -73 79
-126 125 -53 47 -102 91 -107 98 -17 20 55 10 103 -15z m1547 -139 c131 -19
178 -35 178 -59 0 -4 -66 -9 -148 -12 -150 -5 -175 -11 -219 -51 -19 -17 -23
-31 -24 -86 l0 -66 -59 115 c-32 63 -59 123 -59 133 -1 15 9 17 72 17 49 0 80
5 93 15 10 8 20 15 21 15 1 0 66 -9 145 -21z"/>
<path d="M8023 5545 c-43 -30 7 -93 63 -79 33 8 44 20 44 51 0 17 -9 24 -37
32 -48 14 -45 14 -70 -4z"/>
<path d="M8253 5470 c-23 -9 -39 -49 -30 -74 6 -16 107 -37 121 -25 9 8 -22
99 -35 99 -4 0 -13 2 -21 4 -7 3 -23 1 -35 -4z"/>
<path d="M8086 5360 c-33 -10 -76 -47 -76 -66 0 -7 12 -22 27 -34 32 -25 78
-23 117 7 20 15 23 24 18 53 -7 50 -24 58 -86 40z"/>
<path d="M988 3868 c-8 -7 -42 -63 -76 -123 -57 -103 -62 -117 -73 -208 -22
-179 24 -408 99 -486 21 -22 50 -43 65 -46 45 -12 94 3 117 35 l21 29 -39 246
c-22 144 -35 248 -29 252 18 11 67 129 67 161 0 46 -26 98 -65 128 -35 27 -63
30 -87 12z"/>
</g>
</svg>
