<?xml version="1.0" standalone="no"?>
<!DOCTYPE svg PUBLIC "-//W3C//DTD SVG 20010904//EN"
 "http://www.w3.org/TR/2001/REC-SVG-20010904/DTD/svg10.dtd">
<svg version="1.0" xmlns="http://www.w3.org/2000/svg"
 width="1024.000000pt" height="1024.000000pt" viewBox="0 0 1024.000000 1024.000000"
 preserveAspectRatio="xMidYMid meet">
<metadata>
Created by potrace 1.10, written by Peter Selinger 2001-2011
</metadata>
<g transform="translate(0.000000,1024.000000) scale(0.100000,-0.100000)"
fill="#000000" stroke="none">
<path d="M5345 9333 c-279 -17 -557 -78 -817 -176 -99 -38 -138 -61 -312 -183
-229 -160 -249 -183 -227 -261 11 -42 1 -107 -130 -852 -121 -692 -141 -826
-146 -946 -4 -87 -1 -166 6 -207 10 -56 9 -74 -5 -114 -14 -41 -16 -82 -11
-269 5 -262 25 -388 90 -586 114 -346 275 -548 512 -643 103 -41 742 -143 953
-152 144 -6 159 -9 150 -23 -7 -12 1 -56 30 -161 l39 -145 -46 -3 c-63 -4
-1027 -221 -1286 -289 -174 -45 -225 -63 -305 -106 -240 -129 -367 -352 -426
-749 -20 -133 -14 -395 11 -568 64 -424 266 -871 562 -1240 91 -114 343 -371
478 -487 180 -156 295 -236 590 -412 258 -154 315 -184 715 -365 239 -109 467
-216 506 -237 77 -42 141 -52 164 -24 15 18 6 72 -18 100 -9 11 -232 119 -495
239 -553 254 -766 371 -1095 603 -265 187 -322 233 -461 367 -240 235 -428
492 -580 793 -125 250 -172 394 -220 668 -37 212 -38 224 -29 350 5 72 24 209
43 305 60 309 135 440 301 523 35 18 288 81 803 202 413 96 763 175 779 175
15 0 35 -6 44 -12 9 -7 42 -78 73 -158 66 -169 141 -310 228 -432 34 -47 292
-335 572 -639 l510 -553 594 -495 c364 -302 628 -514 680 -546 155 -94 302
-161 516 -236 60 -21 166 -61 235 -89 143 -58 169 -59 195 -5 18 39 10 65 -28
89 -12 8 -202 91 -422 185 l-400 170 -550 432 -550 432 -418 416 c-517 514
-642 659 -849 988 -150 239 -242 459 -288 685 -24 117 -49 181 -87 221 l-27
27 45 1 c24 0 276 6 559 14 466 12 521 15 583 33 157 48 274 125 381 252 174
207 279 424 376 777 73 266 86 361 131 973 l41 565 -5 520 c-7 553 -8 568 -60
720 -48 140 -117 246 -208 321 -86 70 -144 92 -358 135 l-196 40 -630 24
c-605 23 -699 25 -810 18z m845 -163 c519 -11 727 -22 818 -46 85 -22 193 -78
250 -129 91 -82 108 -120 162 -358 l48 -213 7 -261 7 -261 -38 4 c-174 20
-341 20 -1573 3 -1600 -22 -1881 -23 -1881 -8 0 6 18 119 40 252 39 235 66
338 118 462 15 36 26 84 28 119 3 57 5 61 46 94 119 95 362 211 513 246 126
29 733 104 855 105 63 1 333 -3 600 -9z m1286 -1412 c4 -4 -6 -201 -22 -437
l-28 -430 -441 -4 c-408 -3 -537 -9 -1784 -85 -739 -45 -1345 -81 -1346 -80
-1 2 24 233 54 513 l56 510 195 3 c1283 18 3301 24 3316 10z m-73 -1080 c-21
-263 -41 -391 -89 -582 -53 -211 -91 -303 -222 -538 l-126 -228 -106 -84 -107
-84 -153 -31 -153 -31 -772 0 -772 0 -204 29 c-222 32 -298 54 -396 117 -133
85 -212 178 -294 349 -130 268 -179 510 -171 841 l3 120 87 17 c187 36 824 68
2037 102 644 18 1231 33 1305 34 l136 1 -3 -32z"/>
</g>
</svg>
