<?xml version="1.0" standalone="no"?>
<!DOCTYPE svg PUBLIC "-//W3C//DTD SVG 20010904//EN"
 "http://www.w3.org/TR/2001/REC-SVG-20010904/DTD/svg10.dtd">
<svg version="1.0" xmlns="http://www.w3.org/2000/svg"
 width="1024.000000pt" height="1024.000000pt" viewBox="0 0 1024.000000 1024.000000"
 preserveAspectRatio="xMidYMid meet">
<metadata>
Created by potrace 1.10, written by Peter Selinger 2001-2011
</metadata>
<g transform="translate(0.000000,1024.000000) scale(0.100000,-0.100000)"
fill="#000000" stroke="none">
<path d="M6122 9010 c-69 -31 -260 -62 -1562 -255 l-1244 -183 -111 78 c-183
129 -277 168 -435 176 -84 5 -99 3 -128 -15 -34 -22 -72 -75 -72 -102 0 -19
65 -81 108 -103 40 -21 93 -84 124 -148 36 -72 56 -157 68 -280 7 -69 10
-1146 7 -3258 -4 -3533 3 -3218 -77 -3561 l-40 -171 18 -41 c53 -119 252 -336
355 -387 70 -35 97 -37 152 -11 53 25 99 75 183 201 39 58 96 134 129 169 32
36 378 371 768 744 911 873 930 891 964 940 40 60 46 85 25 108 -9 10 -21 19
-27 19 -10 0 -61 -35 -347 -236 -993 -699 -1579 -1104 -1599 -1104 -36 0 -41
225 -41 2100 l0 1786 1268 133 c697 73 1277 135 1289 138 17 4 29 -7 62 -56
68 -100 196 -174 268 -156 77 19 180 186 227 365 64 250 171 998 241 1685 40
395 75 575 140 730 19 44 41 111 49 148 20 85 15 97 -81 187 -159 153 -420
322 -562 364 -66 19 -65 19 -119 -4z m-102 -435 c93 -25 144 -81 143 -159 0
-41 -45 -840 -47 -842 -3 -2 -2743 -324 -2758 -324 -17 0 -18 18 -18 228 0
200 31 736 43 748 10 11 928 180 1262 233 307 49 598 89 775 105 91 9 181 18
200 19 106 11 349 6 400 -8z m66 -1417 c-3 -35 -10 -130 -16 -213 -14 -208
-92 -845 -104 -845 -21 0 -2563 -260 -2593 -265 l-33 -6 0 531 c0 291 1 530 3
530 1 1 616 74 1367 164 751 90 1369 164 1373 165 5 1 6 -27 3 -61z"/>
<path d="M6613 5650 c-31 -13 -29 -33 12 -119 42 -87 43 -110 10 -197 -62
-164 -268 -441 -575 -772 -119 -129 -398 -389 -443 -413 -14 -8 -28 0 -70 39
-191 178 -666 565 -857 699 -218 153 -485 301 -636 353 -124 43 -256 35 -307
-18 -63 -67 -22 -158 91 -202 100 -40 383 -187 495 -257 176 -111 358 -248
510 -383 182 -163 599 -578 937 -935 247 -260 409 -434 1021 -1095 399 -431
599 -614 754 -691 l80 -39 643 65 c681 68 688 69 770 92 134 37 68 95 -253
218 -669 256 -1270 579 -1805 970 -318 232 -844 674 -1174 986 l-88 84 118 60
c182 92 607 394 949 674 81 67 205 162 275 211 70 49 135 102 145 117 25 38
31 103 12 139 -17 33 -90 109 -151 158 -57 46 -413 266 -428 265 -7 0 -23 -4
-35 -9z"/>
</g>
</svg>
