<?xml version="1.0" standalone="no"?>
<!DOCTYPE svg PUBLIC "-//W3C//DTD SVG 20010904//EN"
 "http://www.w3.org/TR/2001/REC-SVG-20010904/DTD/svg10.dtd">
<svg version="1.0" xmlns="http://www.w3.org/2000/svg"
 width="1024.000000pt" height="1024.000000pt" viewBox="0 0 1024.000000 1024.000000"
 preserveAspectRatio="xMidYMid meet">
<metadata>
Created by potrace 1.10, written by Peter Selinger 2001-2011
</metadata>
<g transform="translate(0.000000,1024.000000) scale(0.100000,-0.100000)"
fill="#000000" stroke="none">
<path d="M4965 9301 c-506 -84 -579 -99 -781 -166 -193 -63 -379 -147 -540
-242 -106 -63 -123 -70 -160 -66 -35 4 -62 -6 -204 -77 -162 -81 -344 -149
-745 -279 -90 -29 -217 -79 -290 -115 -120 -59 -343 -198 -390 -243 -79 -76
-541 -580 -586 -640 -113 -151 -188 -308 -234 -489 -154 -620 -164 -669 -224
-1109 -6 -38 -38 -812 -71 -1720 -73 -1960 -77 -2270 -34 -2795 14 -173 27
-321 29 -327 7 -20 255 -18 255 1 0 8 -7 49 -15 92 -26 140 -54 375 -65 549
-8 122 -8 374 0 890 35 2341 51 2713 151 3360 44 282 83 492 143 760 l82 370
107 165 c90 137 141 201 310 387 l202 222 7 -95 c10 -131 33 -251 73 -371 41
-122 76 -193 187 -378 133 -221 135 -226 563 -1120 423 -885 568 -1159 739
-1400 98 -137 1427 -1645 1651 -1874 277 -282 549 -515 865 -742 198 -142 192
-138 662 -392 l417 -224 282 -26 c156 -15 285 -25 287 -23 2 2 -106 60 -240
128 -134 69 -454 245 -711 392 l-468 268 -711 655 -711 655 -416 481 c-582
674 -656 765 -828 1022 -153 229 -343 570 -343 616 0 13 -65 143 -144 289 -98
181 -158 305 -189 390 -98 271 -317 718 -532 1083 -47 81 -85 153 -85 161 0 9
-9 35 -19 58 -31 70 -90 317 -96 408 -4 47 -13 110 -21 141 -20 82 -20 84 36
98 36 9 50 18 50 30 0 14 89 51 418 173 252 94 418 151 420 144 1 -6 9 -83 17
-171 26 -286 48 -401 105 -555 38 -103 49 -150 50 -213 0 -36 7 -57 25 -81 14
-18 25 -42 25 -53 0 -11 9 -28 19 -37 10 -10 22 -32 25 -51 4 -18 13 -38 21
-45 8 -7 15 -19 15 -27 0 -8 11 -29 25 -47 14 -18 25 -41 25 -52 0 -10 7 -27
15 -37 7 -11 17 -38 20 -60 4 -23 13 -53 20 -67 7 -14 16 -52 20 -85 5 -33 14
-69 21 -80 7 -11 16 -38 20 -60 4 -22 15 -51 24 -65 34 -49 240 -481 240 -503
0 -5 11 -23 25 -41 14 -18 25 -42 25 -53 0 -11 7 -26 15 -33 8 -7 15 -20 15
-30 0 -40 188 -460 243 -542 30 -46 91 -144 134 -218 54 -93 173 -258 380
-531 310 -408 323 -426 323 -454 0 -9 27 -49 59 -89 32 -39 64 -89 69 -110 20
-72 196 -265 343 -375 43 -33 187 -121 320 -197 240 -136 243 -138 393 -278
472 -437 765 -665 1181 -916 62 -37 145 -92 186 -122 41 -30 191 -133 334
-228 l259 -173 48 53 c27 30 45 57 41 61 -5 4 -192 124 -418 266 -454 287
-543 345 -724 477 -266 192 -499 383 -746 612 -135 125 -274 227 -385 283
-170 86 -385 251 -523 402 -64 70 -307 381 -307 394 0 3 124 -108 276 -247
389 -355 589 -519 874 -713 63 -44 270 -205 460 -359 438 -357 491 -398 685
-541 313 -230 827 -561 850 -547 7 4 45 37 85 74 l73 67 -93 58 c-51 32 -334
235 -629 452 -402 296 -575 417 -691 484 -85 49 -163 96 -173 104 -9 9 -22 35
-29 57 -6 23 -21 52 -32 64 -12 13 -203 157 -424 320 l-404 297 45 40 c25 22
291 340 591 708 301 367 606 736 678 820 145 168 372 458 477 606 37 53 280
400 541 771 260 371 481 684 491 694 17 18 20 17 106 -51 48 -38 101 -89 118
-114 16 -24 105 -141 197 -259 178 -229 213 -289 302 -514 147 -370 200 -752
226 -1611 10 -303 7 -505 -16 -1505 -31 -1322 -34 -1883 -13 -2035 l14 -100
113 -3 c132 -3 121 -21 96 163 -21 155 -22 248 -7 1830 18 1900 19 2391 4
2515 -71 613 -264 1100 -599 1516 -111 138 -272 299 -357 356 -39 26 -169 94
-290 151 -346 162 -662 339 -812 454 -40 30 -119 105 -175 165 -57 61 -175
185 -263 275 -141 145 -163 164 -186 159 -20 -4 -33 2 -55 25 -52 55 -177 155
-267 213 -110 72 -242 135 -380 181 l-109 36 -456 34 c-251 19 -475 34 -497
34 -22 -1 -224 -31 -450 -68z m976 -155 c140 -18 324 -58 439 -96 172 -57 263
-103 398 -203 72 -53 158 -110 193 -127 79 -41 157 -118 194 -195 27 -54 30
-70 30 -156 l0 -96 -41 -59 c-32 -46 -43 -72 -48 -116 -8 -73 -39 -157 -85
-230 -20 -32 -504 -712 -1075 -1513 l-1039 -1455 -41 34 c-73 60 -332 479
-486 787 -179 357 -236 502 -500 1274 -116 341 -222 650 -235 688 l-25 67 30
-15 c41 -21 67 -19 96 10 32 32 29 71 -8 98 -21 16 -33 18 -64 11 -30 -8 -39
-16 -49 -44 l-12 -34 -17 68 c-37 147 -48 233 -69 506 -3 30 1 84 9 120 16 78
62 130 115 130 26 0 42 11 81 53 27 28 61 66 75 84 44 56 228 145 399 193 66
19 81 20 123 9 46 -12 65 -8 481 91 238 56 480 108 539 115 147 18 452 18 592
1z m-2664 -793 c1 -71 8 -171 17 -223 10 -55 98 -357 212 -725 l196 -630 249
-597 249 -598 156 -272 c181 -315 175 -304 134 -258 -127 142 -133 153 -385
682 -135 283 -245 527 -245 540 0 15 -14 41 -35 64 -19 21 -35 44 -35 51 0 7
-24 62 -54 121 -42 85 -105 265 -300 863 l-246 757 0 156 0 156 38 19 c20 11
40 20 43 21 3 0 6 -57 6 -127z m4381 -266 c196 -162 276 -218 341 -238 20 -6
152 -65 293 -131 176 -83 255 -125 249 -132 -92 -114 -636 -880 -690 -971 -41
-69 -162 -242 -270 -385 -192 -254 -1849 -2261 -1863 -2257 -4 1 -147 146
-318 322 l-311 320 56 50 c33 29 80 88 113 142 31 50 154 206 272 347 184 220
228 278 306 411 50 86 98 161 106 168 9 7 19 26 22 42 4 17 29 53 56 80 59 61
495 655 514 699 7 17 113 166 236 330 123 165 251 343 285 395 123 188 216
382 291 610 25 75 55 146 67 159 18 19 22 38 25 117 3 67 8 93 16 88 6 -4 98
-79 204 -166z m-924 -1002 c-9 -14 -19 -23 -22 -20 -5 4 26 45 35 45 2 0 -4
-11 -13 -25z m-124 -176 c-12 -16 -25 -28 -28 -25 -5 6 36 56 45 56 3 0 -5
-14 -17 -31z m-781 -1126 c-47 -79 -90 -142 -106 -155 -9 -7 14 33 52 90 67
100 98 138 54 65z m-289 -456 c0 -61 -111 -234 -175 -271 -24 -15 -72 -58
-107 -97 -112 -124 -116 -107 -5 22 59 68 146 184 195 256 48 73 88 133 90
133 1 0 2 -19 2 -43z"/>
<path d="M5952 8247 c-45 -48 -15 -107 54 -107 35 0 59 22 69 62 6 24 2 29
-34 47 -51 27 -63 26 -89 -2z"/>
<path d="M4715 8238 c-33 -19 -44 -41 -45 -85 0 -33 5 -46 26 -62 60 -47 114
-14 114 69 0 44 -12 59 -70 87 -3 1 -14 -3 -25 -9z"/>
<path d="M5470 8242 c-27 -8 -60 -45 -60 -68 0 -56 115 -99 152 -56 24 27 28
59 9 75 -32 27 -87 53 -101 49z"/>
<path d="M5056 8199 c-14 -17 -26 -42 -26 -55 0 -35 42 -74 79 -74 41 0 61 24
61 71 0 31 -6 45 -27 64 -37 32 -56 31 -87 -6z"/>
<path d="M6425 8208 c-24 -19 -26 -25 -21 -62 13 -76 76 -108 146 -73 43 22
37 51 -22 107 -29 27 -58 49 -64 50 -6 0 -24 -10 -39 -22z"/>
<path d="M4473 8175 c-52 -22 -57 -67 -14 -114 23 -25 37 -31 70 -31 35 0 43
4 51 26 6 14 10 40 10 58 0 28 -5 35 -43 53 -38 18 -47 19 -74 8z"/>
<path d="M6847 8134 c-53 -28 -62 -86 -21 -128 51 -50 114 -21 114 53 0 32 -6
43 -33 64 -30 23 -35 24 -60 11z"/>
<path d="M3995 8011 c-11 -5 -29 -25 -40 -45 l-20 -36 28 -27 c38 -39 100 -39
133 0 31 36 31 72 1 92 -30 19 -77 27 -102 16z"/>
<path d="M6432 3920 c0 -8 6 -31 13 -50 7 -19 13 -28 13 -20 0 8 -6 31 -13 50
-7 19 -13 28 -13 20z"/>
</g>
</svg>
