<?xml version="1.0" standalone="no"?>
<!DOCTYPE svg PUBLIC "-//W3C//DTD SVG 20010904//EN"
 "http://www.w3.org/TR/2001/REC-SVG-20010904/DTD/svg10.dtd">
<svg version="1.0" xmlns="http://www.w3.org/2000/svg"
 width="1024.000000pt" height="1024.000000pt" viewBox="0 0 1024.000000 1024.000000"
 preserveAspectRatio="xMidYMid meet">
<metadata>
Created by potrace 1.10, written by Peter Selinger 2001-2011
</metadata>
<g transform="translate(0.000000,1024.000000) scale(0.100000,-0.100000)"
fill="#000000" stroke="none">
<path d="M4977 9233 c-9 -2 -24 -18 -33 -34 -35 -69 -43 -170 -50 -606 -3
-236 -7 -477 -9 -538 -2 -60 -4 -174 -4 -252 -1 -130 -2 -141 -19 -137 -11 3
-196 -103 -487 -278 -465 -281 -476 -288 -1039 -698 l-569 -415 -411 -370
c-403 -362 -420 -378 -744 -735 -182 -201 -351 -382 -375 -402 -79 -66 -108
-166 -71 -244 45 -95 184 -23 324 167 314 428 1032 1123 1675 1624 364 283
946 675 1455 980 118 71 239 147 269 169 29 23 59 45 66 50 7 6 79 3 181 -7
l169 -16 248 -111 c235 -106 288 -136 1002 -559 797 -474 813 -485 1070 -716
240 -215 382 -365 665 -705 284 -341 289 -347 390 -530 57 -102 109 -195 117
-208 l14 -24 31 49 c16 26 52 71 79 98 l48 50 -368 490 c-368 489 -370 490
-563 680 -200 198 -394 360 -608 510 -69 49 -181 131 -250 184 -224 173 -390
275 -705 433 -148 74 -241 127 -283 162 -62 51 -345 216 -492 287 -85 41 -236
92 -325 110 -33 6 -109 15 -170 18 l-110 6 2 30 c1 17 7 91 14 165 9 110 22
698 23 1110 0 94 -13 130 -67 188 -29 30 -49 36 -90 25z"/>
<path d="M6322 5893 c-28 -11 -39 -59 -40 -179 -1 -130 -24 -268 -65 -390 -31
-88 -232 -442 -340 -594 -176 -251 -393 -505 -608 -715 -105 -102 -175 -159
-327 -264 -176 -122 -232 -170 -232 -200 0 -36 -27 17 -132 257 -139 317 -163
380 -256 662 -115 352 -213 737 -214 840 0 30 7 79 16 109 31 106 15 183 -52
249 -52 50 -64 49 -132 -7 -25 -20 -225 -161 -445 -312 -386 -266 -423 -289
-1053 -648 -359 -205 -664 -385 -677 -399 -30 -33 -32 -74 -5 -112 34 -48 68
-48 162 3 46 24 135 71 198 104 866 453 758 389 1585 925 l180 117 8 -92 c11
-141 34 -250 81 -392 24 -71 58 -191 75 -265 129 -540 508 -1339 932 -1965
414 -611 961 -1132 1581 -1504 l87 -52 53 41 c29 22 77 48 107 58 l54 18 -104
63 c-662 400 -1174 862 -1532 1381 -64 94 -441 739 -435 745 2 2 28 13 58 25
123 48 198 104 436 327 238 224 598 616 748 816 187 251 360 613 431 904 l17
72 146 -137 c350 -327 746 -603 1172 -817 85 -43 210 -114 278 -158 101 -66
131 -81 172 -85 47 -4 52 -3 85 32 33 35 53 91 42 120 -3 7 -81 53 -174 101
-446 232 -713 395 -1054 642 -111 80 -169 133 -319 288 -100 105 -206 218
-234 253 -70 88 -153 142 -215 141 -25 0 -52 -3 -59 -6z"/>
</g>
</svg>
