<?xml version="1.0" standalone="no"?>
<!DOCTYPE svg PUBLIC "-//W3C//DTD SVG 20010904//EN"
 "http://www.w3.org/TR/2001/REC-SVG-20010904/DTD/svg10.dtd">
<svg version="1.0" xmlns="http://www.w3.org/2000/svg"
 width="1024.000000pt" height="1024.000000pt" viewBox="0 0 1024.000000 1024.000000"
 preserveAspectRatio="xMidYMid meet">
<metadata>
Created by potrace 1.10, written by Peter Selinger 2001-2011
</metadata>
<g transform="translate(0.000000,1024.000000) scale(0.100000,-0.100000)"
fill="#000000" stroke="none">
<path d="M4655 7695 c-49 -30 -91 -59 -93 -64 -2 -5 30 -37 70 -72 90 -78 123
-117 160 -195 52 -110 58 -165 58 -546 l0 -346 -47 -6 c-27 -4 -639 -60 -1362
-126 l-1315 -120 -353 46 c-194 26 -356 45 -359 41 -3 -3 2 -46 11 -96 l17
-90 131 -94 c259 -185 438 -294 519 -318 59 -16 334 22 928 129 334 61 663
115 735 121 72 7 149 15 173 18 l42 5 0 -72 c0 -62 -5 -81 -31 -131 -103 -192
-617 -608 -1144 -925 -316 -189 -782 -404 -1314 -606 -183 -69 -622 -217 -753
-254 -38 -10 -68 -21 -68 -24 0 -3 17 -16 38 -29 l37 -25 470 94 c293 58 525
110 615 137 622 188 1255 421 1443 531 l58 33 19 -23 c28 -33 75 -133 96 -203
15 -53 18 -120 21 -545 6 -639 -2 -718 -98 -1008 l-51 -152 96 -128 c104 -140
186 -224 256 -264 76 -43 88 -43 204 8 93 40 109 52 145 98 56 72 182 192 271
258 41 30 428 313 860 628 432 315 810 591 840 614 82 60 146 123 160 157 11
27 10 32 -10 54 -13 14 -27 25 -31 25 -4 0 -483 -248 -1066 -550 l-1058 -551
-23 27 -24 27 5 511 c5 531 6 552 52 716 25 90 30 179 12 223 -25 57 -112 143
-220 214 -54 36 -97 66 -95 68 2 1 140 91 308 199 523 337 643 423 678 480 25
41 28 55 21 80 -13 47 -88 150 -184 255 -47 51 -84 96 -81 98 3 4 1713 122
3033 209 l421 28 416 -26 c420 -27 451 -27 501 6 29 19 49 78 41 117 -9 44
-59 112 -147 199 -75 73 -86 80 -233 144 l-155 68 -1433 -121 c-788 -66 -1450
-123 -1470 -126 l-38 -5 6 247 c5 232 19 510 31 630 5 49 3 53 -35 95 -63 68
-171 123 -386 194 -107 35 -203 64 -213 64 -10 -1 -58 -25 -108 -55z"/>
<path d="M6855 6114 c-27 -19 -56 -39 -64 -43 -11 -7 -5 -34 34 -143 l47 -135
-48 -74 c-26 -41 -115 -155 -197 -254 -111 -134 -184 -210 -284 -298 -74 -65
-140 -116 -147 -114 -7 3 -240 171 -517 374 l-504 369 -108 27 c-117 30 -174
28 -203 -4 -24 -26 -12 -45 46 -74 33 -17 193 -153 438 -373 315 -281 501
-460 997 -957 689 -691 1123 -1106 1493 -1428 98 -85 104 -89 218 -127 l117
-40 606 50 c333 27 622 52 641 56 47 8 90 31 90 49 0 23 -104 84 -241 141
-384 159 -799 358 -1130 542 -181 101 -261 156 -995 692 -440 320 -802 585
-807 589 -4 4 114 53 262 110 260 99 282 109 598 286 204 115 331 192 337 204
14 33 -8 90 -63 162 -58 77 -257 269 -358 345 -73 55 -165 104 -193 103 -8 0
-37 -16 -65 -35z"/>
</g>
</svg>
