<?xml version="1.0" standalone="no"?>
<!DOCTYPE svg PUBLIC "-//W3C//DTD SVG 20010904//EN"
 "http://www.w3.org/TR/2001/REC-SVG-20010904/DTD/svg10.dtd">
<svg version="1.0" xmlns="http://www.w3.org/2000/svg"
 width="1024.000000pt" height="1024.000000pt" viewBox="0 0 1024.000000 1024.000000"
 preserveAspectRatio="xMidYMid meet">
<metadata>
Created by potrace 1.10, written by Peter Selinger 2001-2011
</metadata>
<g transform="translate(0.000000,1024.000000) scale(0.100000,-0.100000)"
fill="#000000" stroke="none">
<path d="M3881 9672 c-8 -15 12 -30 139 -106 372 -223 818 -594 1111 -923 125
-140 157 -158 269 -150 133 9 218 63 269 171 43 91 59 187 52 312 -1 28 -62
97 -126 144 -152 112 -492 255 -895 375 -195 58 -740 195 -776 195 -21 0 -37
-6 -43 -18z"/>
<path d="M6253 8191 c-38 -10 -101 -42 -168 -86 -147 -96 -413 -181 -960 -305
-712 -162 -1060 -231 -1363 -270 -206 -27 -210 -27 -577 15 -22 2 -85 9 -140
15 -55 6 -116 13 -135 15 -241 29 -361 37 -375 25 -17 -14 -35 -72 -35 -117 0
-36 35 -69 150 -140 228 -141 686 -333 795 -333 45 0 316 65 355 85 73 38 263
94 425 125 66 13 1272 302 1709 410 132 33 216 24 216 -23 0 -53 -150 -266
-464 -657 -548 -684 -1029 -1215 -1707 -1885 -514 -508 -990 -919 -1559 -1349
-107 -81 -197 -152 -198 -157 -8 -22 22 -39 69 -39 115 0 388 131 879 423 443
263 868 586 1442 1094 214 190 218 193 232 170 23 -35 62 -144 82 -232 18 -76
19 -142 19 -1190 0 -991 -5 -1414 -20 -1570 -5 -50 -9 -96 -45 -580 -45 -610
-46 -685 -6 -820 49 -164 134 -303 262 -432 l72 -73 56 0 c101 0 165 49 206
157 27 71 26 -18 30 2646 2 1049 6 1906 11 1905 5 -2 109 -89 232 -195 323
-278 720 -690 921 -957 99 -131 155 -168 255 -169 75 0 110 14 158 65 68 72
96 258 54 368 -58 152 -274 355 -579 542 -219 135 -581 321 -842 434 -158 68
-165 72 -165 99 0 28 3 30 205 100 371 130 691 263 1080 450 118 56 253 117
300 135 83 32 110 48 179 107 40 35 38 53 -17 108 -88 89 -471 311 -631 366
-75 26 -171 25 -202 -1 l-24 -21 25 -16 c14 -10 42 -35 64 -57 36 -37 38 -42
34 -88 -7 -70 -58 -138 -205 -274 -239 -220 -470 -392 -737 -551 l-89 -52 -27
42 c-31 47 -88 103 -170 167 -30 23 -55 46 -55 49 0 8 1268 1324 1475 1531
133 134 247 227 371 303 137 84 184 161 143 236 -41 76 -211 183 -502 316
-247 113 -419 159 -509 136z"/>
</g>
</svg>
