<?xml version="1.0" standalone="no"?>
<!DOCTYPE svg PUBLIC "-//W3C//DTD SVG 20010904//EN"
 "http://www.w3.org/TR/2001/REC-SVG-20010904/DTD/svg10.dtd">
<svg version="1.0" xmlns="http://www.w3.org/2000/svg"
 width="1024.000000pt" height="1024.000000pt" viewBox="0 0 1024.000000 1024.000000"
 preserveAspectRatio="xMidYMid meet">
<metadata>
Created by potrace 1.10, written by Peter Selinger 2001-2011
</metadata>
<g transform="translate(0.000000,1024.000000) scale(0.100000,-0.100000)"
fill="#000000" stroke="none">
<path d="M5202 9045 c-41 -18 -47 -33 -71 -185 -18 -110 -21 -191 -26 -690 -6
-637 -10 -710 -31 -710 -29 0 -939 -554 -1084 -659 -1017 -738 -1019 -740
-1485 -1159 -27 -25 -121 -109 -208 -186 -118 -105 -239 -230 -474 -491 -174
-192 -351 -383 -393 -423 -55 -51 -84 -86 -96 -117 -31 -83 0 -186 59 -193 41
-5 130 45 190 107 30 31 144 164 252 296 194 236 204 247 683 699 802 756 930
854 1987 1526 314 199 591 379 617 401 54 45 63 46 273 28 l130 -12 251 -112
c239 -107 288 -134 920 -511 368 -218 710 -421 759 -451 71 -42 167 -122 457
-385 l366 -333 279 -335 278 -335 118 -212 c65 -117 120 -213 122 -213 2 0 17
22 34 50 17 27 53 73 80 101 l50 52 -366 486 c-498 662 -499 663 -1188 1201
-351 274 -447 345 -592 431 -157 94 -398 220 -523 275 -54 23 -118 63 -175
108 -103 81 -426 268 -543 314 -123 49 -265 82 -404 94 l-128 12 1 31 c0 16 5
71 10 120 7 72 31 941 32 1165 1 73 -18 124 -61 172 -48 53 -61 59 -100 43z"/>
<path d="M6554 5662 c-36 -25 -44 -56 -44 -178 0 -253 -43 -394 -206 -678
-170 -295 -316 -499 -548 -764 -216 -248 -354 -376 -551 -514 -132 -92 -193
-142 -230 -186 -27 -34 -52 -61 -55 -61 -7 -1 -242 534 -283 644 -100 264
-212 641 -281 935 -31 136 -33 151 -24 240 21 229 21 224 0 267 -28 53 -96
114 -119 106 -10 -3 -38 -22 -63 -42 -25 -21 -232 -166 -460 -323 -407 -279
-428 -292 -1070 -657 -371 -211 -665 -384 -677 -399 -42 -49 -24 -115 38 -148
l30 -15 552 288 552 288 483 313 c266 172 486 311 488 309 2 -2 9 -52 14 -111
13 -138 32 -226 75 -351 19 -55 89 -275 155 -489 131 -424 176 -539 356 -899
209 -418 417 -765 624 -1042 343 -461 721 -834 1165 -1150 124 -89 398 -265
411 -265 3 0 20 12 38 27 36 31 143 83 169 83 30 0 12 16 -76 66 -137 79 -364
230 -522 349 -445 335 -751 643 -1020 1025 -61 87 -444 731 -462 776 -2 6 14
16 35 22 114 34 206 101 432 314 295 277 639 648 794 858 192 258 344 572 421
872 l28 108 116 -113 c335 -325 758 -622 1227 -863 99 -50 227 -123 284 -160
86 -56 112 -68 155 -72 44 -4 55 -1 82 22 17 14 38 44 47 67 15 37 15 44 2 64
-9 13 -81 58 -163 101 -463 241 -761 422 -1084 656 -116 84 -165 128 -320 294
-101 107 -237 240 -302 294 -109 92 -122 100 -160 100 -23 0 -47 -4 -53 -8z"/>
<path d="M6400 3326 c0 -22 24 -96 31 -96 4 0 1 21 -8 48 -16 47 -23 62 -23
48z"/>
</g>
</svg>
