<?xml version="1.0" standalone="no"?>
<!DOCTYPE svg PUBLIC "-//W3C//DTD SVG 20010904//EN"
 "http://www.w3.org/TR/2001/REC-SVG-20010904/DTD/svg10.dtd">
<svg version="1.0" xmlns="http://www.w3.org/2000/svg"
 width="1024.000000pt" height="1024.000000pt" viewBox="0 0 1024.000000 1024.000000"
 preserveAspectRatio="xMidYMid meet">
<metadata>
Created by potrace 1.10, written by Peter Selinger 2001-2011
</metadata>
<g transform="translate(0.000000,1024.000000) scale(0.100000,-0.100000)"
fill="#000000" stroke="none">
<path d="M4840 9095 c-212 -35 -432 -74 -490 -86 -310 -63 -631 -190 -874
-346 -61 -40 -72 -43 -110 -38 -39 6 -57 0 -212 -78 -164 -82 -364 -156 -741
-277 -241 -77 -545 -245 -684 -379 -139 -135 -532 -569 -587 -649 -108 -158
-184 -340 -216 -522 -9 -47 -29 -134 -46 -195 -96 -349 -162 -772 -175 -1115
-3 -85 -7 -211 -10 -280 -3 -69 -7 -195 -10 -280 -3 -85 -7 -211 -10 -280 -3
-69 -7 -199 -10 -290 -3 -91 -8 -212 -10 -270 -3 -58 -7 -181 -10 -275 -3 -93
-7 -219 -10 -280 -3 -60 -7 -191 -10 -290 -3 -99 -8 -214 -10 -255 -2 -41 -7
-178 -11 -305 -3 -126 -8 -243 -9 -260 -12 -120 -16 -620 -6 -735 18 -230 31
-374 35 -410 3 -19 8 -75 12 -125 4 -49 8 -97 10 -105 1 -8 3 -26 3 -38 1 -23
3 -24 79 -18 42 2 98 5 123 5 l46 1 -13 70 c-22 112 -52 335 -64 465 -11 116
-14 563 -6 870 2 83 7 472 10 865 4 393 9 769 11 835 3 66 7 197 10 290 7 208
15 366 40 735 2 36 7 117 10 180 20 373 63 619 255 1477 l38 171 107 163 c88
134 141 201 303 378 107 119 197 218 199 220 7 10 11 -10 17 -99 17 -260 76
-436 236 -700 152 -251 186 -318 415 -805 18 -38 154 -322 302 -630 275 -575
440 -879 593 -1095 90 -126 1415 -1628 1630 -1846 422 -429 857 -769 1260
-987 167 -90 499 -269 605 -327 37 -19 71 -29 125 -33 41 -3 159 -13 263 -22
103 -9 192 -15 199 -13 7 3 -141 80 -327 173 -506 252 -709 365 -959 535 -76
52 -275 229 -803 717 l-702 648 -431 499 c-477 552 -557 648 -679 815 -180
245 -451 710 -451 772 0 12 -34 85 -77 163 -42 78 -105 195 -141 261 -36 66
-84 172 -107 235 -24 63 -64 165 -91 225 -76 175 -332 676 -432 846 -51 86
-92 164 -92 172 0 9 -9 36 -19 59 -31 68 -89 315 -96 408 -4 47 -13 110 -21
141 -8 31 -14 61 -14 66 0 5 23 15 50 22 36 9 50 18 50 30 0 14 86 50 418 173
229 86 418 155 418 154 1 0 5 -39 8 -86 29 -370 53 -504 124 -690 18 -46 31
-104 35 -149 4 -53 11 -79 25 -95 11 -11 23 -36 27 -54 4 -18 13 -36 21 -39 8
-3 14 -14 14 -24 0 -11 11 -37 25 -59 14 -22 25 -45 25 -52 0 -6 9 -21 19 -32
11 -12 21 -33 23 -47 2 -15 9 -33 15 -41 7 -8 17 -34 22 -58 6 -25 17 -63 25
-85 9 -22 15 -58 16 -80 0 -22 6 -49 14 -60 7 -11 17 -39 21 -63 4 -23 23 -68
44 -100 20 -31 47 -87 59 -124 12 -37 36 -91 54 -120 59 -99 108 -196 108
-212 0 -10 10 -32 23 -49 12 -18 24 -41 25 -52 2 -10 10 -28 18 -39 8 -11 14
-27 14 -36 0 -29 178 -426 224 -500 58 -93 56 -89 100 -182 20 -42 56 -101 79
-130 181 -228 657 -868 661 -890 3 -16 33 -63 66 -106 33 -43 60 -87 60 -99 0
-49 223 -287 360 -385 41 -29 177 -111 302 -182 227 -129 228 -130 395 -284
449 -415 736 -637 1122 -871 74 -45 155 -101 181 -125 25 -23 68 -55 95 -71
28 -16 153 -96 278 -177 126 -82 234 -151 241 -154 8 -3 32 17 55 45 l42 50
-68 44 c-37 24 -185 117 -328 207 -694 435 -1021 676 -1450 1068 -164 150
-262 223 -400 297 -188 100 -380 247 -515 392 -75 82 -325 402 -318 408 2 2
120 -102 263 -232 391 -355 604 -529 895 -728 63 -44 261 -199 440 -346 480
-393 726 -580 1020 -776 143 -95 377 -243 446 -282 49 -27 44 -29 143 61 l63
56 -54 34 c-29 19 -71 45 -93 58 -22 13 -275 197 -563 409 -382 282 -563 410
-675 474 -166 96 -217 140 -217 186 0 37 20 21 -464 376 l-379 279 45 41 c25
22 283 330 574 685 290 355 576 701 635 770 292 343 354 426 1060 1430 265
377 483 687 485 689 7 8 194 -140 211 -167 10 -15 55 -70 101 -122 149 -167
264 -343 343 -521 162 -366 225 -658 255 -1179 3 -58 7 -110 9 -117 2 -6 7
-116 12 -245 13 -387 9 -967 -12 -1783 -5 -194 -10 -404 -22 -890 -12 -453 -8
-871 8 -1000 l14 -110 108 -3 c126 -3 115 -25 91 176 -19 161 -21 307 -12 927
4 253 10 915 13 1470 4 556 8 1165 9 1355 4 432 -9 606 -70 890 -107 500 -339
943 -682 1301 -168 176 -202 198 -567 369 -254 118 -629 335 -750 433 -105 85
-146 129 -280 294 -63 79 -147 169 -196 211 -72 63 -88 72 -112 66 -24 -5 -37
4 -108 70 -154 145 -375 274 -589 344 -107 36 -125 39 -265 47 -55 3 -122 8
-150 10 -59 6 -145 12 -275 21 -52 3 -106 7 -119 10 -14 2 -83 6 -155 8 -126
5 -144 3 -516 -59z m1045 -159 c189 -36 348 -82 505 -147 69 -29 131 -66 225
-135 72 -52 157 -109 189 -126 84 -43 160 -118 199 -197 29 -59 32 -74 32
-157 0 -90 -1 -93 -38 -147 -27 -40 -40 -72 -48 -118 -12 -75 -51 -178 -89
-234 -15 -22 -112 -159 -217 -305 -104 -146 -515 -722 -913 -1280 -969 -1360
-951 -1335 -962 -1335 -44 0 -196 211 -368 509 -140 243 -325 638 -420 896
-35 95 -301 869 -450 1308 l-39 113 26 -21 c54 -43 127 -11 121 53 -6 62 -109
75 -130 16 -5 -16 -13 -29 -17 -29 -11 0 -49 174 -66 294 -37 274 -28 415 30
473 21 21 46 35 73 39 35 5 42 12 58 46 32 71 153 153 335 227 150 61 221 77
277 62 45 -11 67 -7 452 85 367 87 496 114 600 127 19 2 150 3 290 2 189 -2
278 -7 345 -19z m-2722 -768 c-3 -185 14 -265 153 -748 134 -464 242 -763 500
-1385 244 -587 246 -592 406 -875 89 -157 168 -296 176 -310 14 -22 14 -23 0
-10 -22 22 -151 181 -174 215 -12 17 -48 89 -82 160 -61 132 -109 233 -303
638 -60 125 -109 238 -109 252 0 13 -11 36 -24 50 -14 15 -52 84 -86 153 -50
103 -107 267 -309 892 l-247 765 4 141 3 141 42 21 c23 11 44 21 47 21 3 1 4
-54 3 -121z m4315 -260 c208 -171 271 -215 361 -249 31 -11 83 -33 116 -49
171 -79 410 -193 413 -195 2 -2 -136 -195 -307 -429 -171 -234 -315 -433 -319
-443 -55 -134 -376 -565 -821 -1099 -329 -395 -565 -679 -1069 -1286 l-279
-337 -312 320 c-171 176 -311 323 -310 327 0 4 24 26 53 48 36 29 68 69 103
126 27 47 151 206 274 354 193 232 236 290 312 422 49 83 92 152 97 152 5 0
14 17 21 37 6 21 33 60 59 88 60 63 495 653 502 680 3 12 113 167 245 345 132
179 268 370 302 425 107 171 224 429 282 620 11 39 29 79 39 90 19 20 27 70
29 168 1 26 4 47 7 47 3 0 94 -73 202 -162z m-900 -1003 c-13 -19 -27 -35 -31
-35 -10 0 0 18 26 48 29 32 31 27 5 -13z m-129 -180 c-34 -47 -39 -52 -39 -35
0 10 58 80 67 80 2 0 -10 -20 -28 -45z m-712 -1012 c-77 -137 -177 -284 -177
-260 0 9 171 267 177 267 2 0 2 -3 0 -7z m-257 -382 c-29 -42 -34 -39 -8 4 11
20 23 34 25 31 3 -3 -5 -19 -17 -35z m-146 -305 c-53 -80 -79 -108 -122 -136
-30 -19 -76 -62 -102 -95 -26 -33 -63 -69 -81 -79 -23 -14 0 18 85 117 64 75
153 191 199 259 l82 123 3 -44 c3 -39 -3 -53 -64 -145z"/>
<path d="M5834 8073 c-12 -2 -30 -19 -40 -38 -18 -34 -18 -34 6 -60 44 -47
120 -20 120 44 0 41 -36 64 -86 54z"/>
<path d="M4560 8028 c-29 -31 -27 -98 3 -126 51 -48 107 -15 107 63 0 34 -5
45 -30 63 -37 28 -54 28 -80 0z"/>
<path d="M5292 8027 c-48 -51 -5 -117 75 -117 41 0 45 2 59 35 8 20 12 40 9
44 -8 14 -92 61 -108 61 -7 0 -23 -10 -35 -23z"/>
<path d="M4922 8014 c-31 -21 -31 -83 1 -112 48 -45 107 -15 107 55 0 24 -7
37 -29 52 -35 25 -49 26 -79 5z"/>
<path d="M6265 8010 c-24 -26 -14 -85 19 -119 23 -23 29 -24 73 -15 38 7 49
14 57 35 8 23 3 31 -40 72 -53 51 -81 58 -109 27z"/>
<path d="M4322 7967 c-30 -31 -28 -59 7 -96 62 -67 135 -26 121 69 -7 48 -91
66 -128 27z"/>
<path d="M6676 7929 c-20 -16 -26 -29 -26 -58 0 -47 24 -71 72 -71 28 0 37 5
46 25 21 47 15 78 -21 103 -40 27 -38 27 -71 1z"/>
<path d="M3859 7810 c-9 -5 -22 -24 -30 -41 -12 -30 -11 -33 15 -55 32 -28 81
-31 114 -8 30 20 31 88 3 104 -24 12 -80 13 -102 0z"/>
<path d="M6291 3724 c0 -11 3 -14 6 -6 3 7 2 16 -1 19 -3 4 -6 -2 -5 -13z"/>
</g>
</svg>
