<?xml version="1.0" standalone="no"?>
<!DOCTYPE svg PUBLIC "-//W3C//DTD SVG 20010904//EN"
 "http://www.w3.org/TR/2001/REC-SVG-20010904/DTD/svg10.dtd">
<svg version="1.0" xmlns="http://www.w3.org/2000/svg"
 width="1024.000000pt" height="1024.000000pt" viewBox="0 0 1024.000000 1024.000000"
 preserveAspectRatio="xMidYMid meet">
<metadata>
Created by potrace 1.10, written by Peter Selinger 2001-2011
</metadata>
<g transform="translate(0.000000,1024.000000) scale(0.100000,-0.100000)"
fill="#000000" stroke="none">
<path d="M6031 9806 c-17 -6 -102 -70 -189 -142 -134 -112 -243 -187 -722
-496 -311 -201 -689 -446 -840 -545 -278 -182 -745 -529 -754 -561 -27 -95
-39 -313 -77 -1492 l-41 -1255 26 -2527 c28 -2738 23 -2576 80 -2613 14 -9 43
-19 64 -22 31 -4 44 0 65 18 l27 24 7 1185 6 1185 956 259 c926 251 1103 302
1241 361 113 47 262 125 370 192 141 87 181 136 215 264 36 133 55 300 54 458
0 75 4 160 10 190 22 110 12 193 -31 238 l-21 22 24 10 c234 90 697 280 735
302 69 39 124 101 124 138 0 32 -32 71 -77 94 -29 15 -43 10 -739 -254 -780
-296 -1051 -393 -1404 -500 -129 -39 -498 -154 -820 -256 -322 -101 -593 -186
-602 -189 -15 -4 -18 1 -18 31 0 32 -3 37 -19 32 -18 -4 -19 6 -26 207 -3 116
-5 240 -4 276 1 36 -4 105 -12 153 -11 72 -11 90 0 96 7 5 51 11 97 15 103 8
1064 227 1279 291 282 85 623 217 819 318 195 100 351 242 412 376 30 65 39
105 75 350 43 292 43 324 7 399 -11 24 -19 44 -17 46 2 2 169 51 371 109 297
86 377 112 422 141 122 78 129 173 16 219 -34 15 -41 13 -270 -70 -129 -46
-278 -96 -330 -110 -418 -111 -1735 -481 -1855 -521 -170 -57 -365 -131 -505
-192 -52 -23 -168 -64 -257 -91 -90 -27 -193 -66 -229 -85 l-66 -37 7 104 c8
142 35 799 35 859 l0 48 123 41 c68 22 516 132 1007 246 487 113 912 215 945
227 274 99 468 274 556 503 39 100 56 181 69 326 5 63 17 136 25 163 18 59 19
111 1 151 l-13 30 246 70 c252 72 319 101 366 157 56 66 42 116 -45 162 l-55
28 -88 -41 c-107 -50 -184 -82 -305 -126 -118 -44 -2639 -768 -2654 -763 -6 2
465 317 1048 699 l1059 694 122 118 c122 119 152 163 138 206 -13 43 -108 76
-164 57z m115 -1363 c-3 -27 -15 -120 -26 -208 -26 -215 -64 -318 -164 -452
-38 -50 -57 -66 -99 -81 -29 -11 -176 -67 -328 -125 l-275 -105 -764 -166
c-420 -92 -771 -171 -781 -177 -32 -17 -39 -10 -39 39 0 47 58 633 63 638 1 2
71 10 156 20 l153 17 1047 323 c575 177 1050 323 1054 323 5 1 6 -20 3 -46z
m-33 -2060 c-11 -37 -13 -78 -8 -183 4 -79 2 -165 -4 -208 -14 -96 -58 -227
-89 -264 -35 -41 -287 -206 -412 -270 -217 -111 -242 -119 -1118 -334 -459
-113 -841 -208 -848 -211 -11 -4 -14 9 -14 63 -2 208 -20 634 -29 662 -6 20
-6 30 0 26 5 -3 81 6 169 21 149 25 226 48 1257 385 604 197 1101 358 1105
359 3 1 -1 -20 -9 -46z m187 -1978 c-5 -44 -9 -181 -10 -305 -1 -254 -10 -314
-60 -408 -43 -80 -144 -177 -231 -220 -47 -22 -395 -122 -1155 -332 -599 -164
-1106 -308 -1126 -319 -21 -10 -38 -16 -38 -11 0 4 7 10 15 14 21 8 22 186 2
186 -11 0 -15 63 -21 326 -4 180 -6 328 -4 329 4 4 2632 823 2635 821 0 -1 -3
-37 -7 -81z"/>
<path d="M8551 3644 c-1 -6 4 -26 10 -45 6 -19 13 -40 15 -48 3 -8 7 -12 9 -9
3 2 -4 29 -14 59 -11 30 -20 49 -20 43z"/>
<path d="M10225 10 c-3 -5 -1 -10 4 -10 6 0 11 5 11 10 0 6 -2 10 -4 10 -3 0
-8 -4 -11 -10z"/>
</g>
</svg>
