<?xml version="1.0" standalone="no"?>
<!DOCTYPE svg PUBLIC "-//W3C//DTD SVG 20010904//EN"
 "http://www.w3.org/TR/2001/REC-SVG-20010904/DTD/svg10.dtd">
<svg version="1.0" xmlns="http://www.w3.org/2000/svg"
 width="1024.000000pt" height="1024.000000pt" viewBox="0 0 1024.000000 1024.000000"
 preserveAspectRatio="xMidYMid meet">
<metadata>
Created by potrace 1.10, written by Peter Selinger 2001-2011
</metadata>
<g transform="translate(0.000000,1024.000000) scale(0.100000,-0.100000)"
fill="#000000" stroke="none">
<path d="M5755 8616 c-44 -18 -107 -46 -140 -61 -90 -41 -230 -90 -325 -114
-47 -11 -296 -55 -554 -96 l-468 -76 -198 64 -197 63 -88 -38 c-49 -21 -90
-39 -91 -41 -4 -3 71 -119 109 -169 36 -47 102 -182 123 -253 18 -57 19 -186
21 -2703 l3 -2644 -40 -409 c-45 -461 -46 -480 -25 -587 28 -142 144 -335 226
-377 59 -31 127 -8 167 56 27 46 59 156 73 254 7 56 12 1036 16 3296 l5 3216
640 142 c571 127 643 141 669 130 69 -28 79 -140 27 -297 -41 -126 -683 -1406
-738 -1472 -70 -82 -62 -127 37 -203 181 -140 366 -411 516 -757 130 -299 197
-578 231 -955 43 -476 26 -688 -64 -797 -64 -77 -243 -138 -406 -138 -72 0
-104 6 -188 34 -118 40 -283 109 -408 172 -48 24 -90 44 -94 44 -4 0 37 -46
91 -101 201 -210 291 -361 444 -746 18 -44 49 -100 69 -123 l36 -43 95 6 c192
11 385 96 560 247 176 151 287 386 333 705 16 113 16 504 -1 640 -54 446 -160
752 -369 1070 -138 210 -247 340 -472 565 -119 118 -228 232 -244 252 l-28 37
270 388 c148 213 372 537 497 718 240 346 366 499 461 560 50 32 84 82 84 122
-1 86 -244 314 -448 418 -83 43 -115 43 -217 1z"/>
<path d="M10225 10 c-3 -5 -1 -10 4 -10 6 0 11 5 11 10 0 6 -2 10 -4 10 -3 0
-8 -4 -11 -10z"/>
</g>
</svg>
