<?xml version="1.0" standalone="no"?>
<!DOCTYPE svg PUBLIC "-//W3C//DTD SVG 20010904//EN"
 "http://www.w3.org/TR/2001/REC-SVG-20010904/DTD/svg10.dtd">
<svg version="1.0" xmlns="http://www.w3.org/2000/svg"
 width="1024.000000pt" height="1024.000000pt" viewBox="0 0 1024.000000 1024.000000"
 preserveAspectRatio="xMidYMid meet">
<metadata>
Created by potrace 1.10, written by Peter Selinger 2001-2011
</metadata>
<g transform="translate(0.000000,1024.000000) scale(0.100000,-0.100000)"
fill="#000000" stroke="none">
<path d="M7465 10133 c-126 -57 -955 -403 -967 -403 -4 0 -7 14 -6 30 3 26 -3
34 -34 52 l-36 21 -38 -20 c-41 -21 -40 -19 -31 -118 3 -33 -30 -30 -38 3 -3
16 -19 39 -36 51 -30 22 -30 22 -67 3 -35 -18 -37 -22 -42 -77 l-5 -58 -692
-270 -692 -270 -49 37 c-27 20 -54 36 -59 36 -6 0 -22 -10 -37 -21 -23 -18
-27 -28 -25 -65 2 -24 0 -46 -4 -50 -4 -4 -7 4 -7 17 0 16 -11 33 -30 47 -35
26 -44 27 -81 5 -27 -16 -29 -22 -29 -75 0 -32 -1 -58 -3 -58 -2 0 -252 -94
-557 -210 -305 -115 -556 -208 -558 -206 -2 2 1 34 6 71 l9 66 -33 26 -34 25
-47 -29 c-39 -24 -49 -35 -51 -62 -3 -26 -7 -31 -20 -25 -19 7 -59 7 -72 -1
-5 -3 -14 -21 -20 -41 -11 -32 -9 -39 15 -76 15 -22 23 -44 18 -49 -4 -4 -120
-56 -258 -114 -137 -59 -268 -120 -291 -137 -28 -20 -50 -47 -64 -79 -19 -45
-23 -49 -55 -49 -48 0 -150 -39 -216 -83 -116 -77 -337 -329 -475 -542 -164
-252 -266 -462 -527 -1085 -216 -515 -310 -772 -387 -1055 -47 -172 -114 -499
-132 -636 -10 -87 -10 -97 9 -140 15 -32 30 -50 56 -62 37 -18 84 -22 104 -9
7 4 42 142 78 306 36 165 81 363 101 440 152 609 473 1399 800 1967 99 172
236 389 290 459 97 125 247 200 400 200 61 0 63 -1 99 -42 20 -24 54 -79 76
-123 37 -77 41 -95 95 -435 34 -220 59 -412 64 -505 5 -82 16 -175 24 -205 11
-38 16 -101 16 -200 0 -101 6 -180 21 -260 15 -87 22 -190 29 -425 6 -170 7
-317 5 -325 -3 -8 -94 -76 -202 -150 -404 -278 -644 -464 -972 -754 -388 -344
-1070 -927 -1152 -986 -65 -47 -101 -80 -113 -103 -22 -48 -21 -124 3 -164 58
-95 108 -60 769 535 849 765 903 810 1327 1107 94 66 836 600 1650 1189 l1480
1069 1305 832 c718 458 1341 852 1385 877 86 49 270 138 326 158 19 7 88 49
153 94 133 90 186 151 186 213 0 62 -97 121 -156 94 -14 -6 -271 -161 -572
-344 -301 -184 -641 -387 -757 -452 -272 -154 -436 -252 -750 -447 -49 -31
-895 -630 -1880 -1332 -1754 -1249 -1790 -1275 -1797 -1248 -4 15 -37 387 -73
827 -62 745 -70 817 -111 1050 -53 295 -64 338 -112 430 -40 76 -131 174 -181
195 -17 7 -31 15 -31 19 0 13 1273 514 2980 1172 1541 593 1804 698 1860 737
90 63 128 100 141 140 10 29 9 38 -8 61 -19 25 -77 60 -98 60 -5 0 -55 -21
-110 -46z"/>
<path d="M6943 9350 c-13 -5 -23 -14 -23 -20 0 -6 -12 -4 -30 5 -24 13 -35 13
-53 4 -34 -19 -45 -39 -52 -99 -4 -30 -9 -63 -11 -72 -3 -11 5 -28 22 -43 31
-29 88 -34 120 -10 10 8 32 15 47 15 16 0 38 10 52 25 22 21 25 33 25 94 0 68
-1 70 -34 90 -18 12 -35 21 -37 20 -2 0 -14 -4 -26 -9z"/>
<path d="M9558 8611 c-14 -3 -102 -74 -195 -156 -92 -83 -322 -282 -509 -443
-188 -160 -577 -502 -864 -760 l-522 -469 -45 48 c-25 27 -52 49 -59 49 -41 0
-67 -106 -39 -159 8 -17 15 -32 15 -35 0 -3 -30 8 -67 23 -54 24 -72 27 -95
19 -33 -12 -48 -35 -48 -77 0 -25 7 -34 45 -57 25 -14 45 -28 45 -30 0 -2
-276 -237 -612 -522 -337 -285 -650 -557 -695 -605 -72 -77 -82 -92 -88 -134
l-6 -48 -82 -23 c-182 -51 -372 -167 -519 -318 -199 -204 -214 -235 -509 -999
-250 -650 -306 -804 -398 -1107 -128 -417 -183 -648 -221 -913 -17 -121 -33
-235 -37 -253 -4 -25 -18 -41 -67 -75 -87 -61 -1593 -1261 -1640 -1307 -32
-31 -40 -46 -43 -87 -9 -89 47 -170 101 -145 13 6 170 127 347 269 259 206
641 504 1305 1015 8 6 15 -20 25 -92 11 -93 15 -103 41 -122 59 -41 151 -6
176 68 12 33 11 52 -2 129 -23 136 -29 260 -17 365 6 53 51 289 101 525 l90
430 275 799 c265 768 278 803 350 930 131 232 175 296 276 396 110 109 221
183 365 242 146 60 229 78 362 78 132 0 204 -16 302 -65 57 -29 78 -47 137
-122 85 -107 155 -222 198 -325 18 -43 47 -100 64 -129 18 -28 106 -254 195
-502 160 -441 167 -465 301 -977 75 -289 157 -593 180 -676 81 -279 160 -668
200 -984 21 -159 40 -204 97 -230 88 -40 158 -18 158 48 0 43 -372 1756 -430
1977 -108 416 -220 747 -441 1303 -165 413 -180 446 -251 549 -135 196 -351
326 -607 366 l-81 12 1672 1480 c1995 1767 1876 1659 1895 1700 21 44 11 79
-29 103 -42 25 -66 31 -100 23z"/>
<path d="M6726 8527 c-19 -19 -26 -36 -26 -66 0 -32 6 -44 37 -71 31 -28 42
-31 75 -27 54 7 68 22 68 73 0 88 -99 146 -154 91z"/>
<path d="M6534 8457 c-24 -21 -26 -28 -19 -65 14 -87 115 -133 170 -77 14 13
25 30 25 37 0 19 -112 128 -132 128 -9 0 -29 -10 -44 -23z"/>
<path d="M4108 8252 c-16 -9 -28 -21 -28 -27 -1 -5 -20 -19 -43 -30 -41 -20
-42 -21 -39 -64 5 -64 17 -88 52 -106 26 -13 38 -14 66 -5 19 6 38 19 43 28 5
9 28 28 50 42 36 21 41 29 41 60 0 59 -11 80 -51 100 -46 24 -56 24 -91 2z"/>
<path d="M5373 8012 c-14 -9 -21 -37 -32 -125 l-8 -68 34 -29 c39 -35 75 -38
103 -10 21 21 27 65 10 75 -5 3 -10 32 -10 63 0 54 -2 58 -35 80 -38 24 -44
25 -62 14z"/>
<path d="M5203 7900 c-30 -12 -43 -41 -43 -93 0 -57 34 -92 89 -92 47 0 91 28
91 58 0 20 -93 138 -108 136 -4 0 -17 -4 -29 -9z"/>
<path d="M9208 7358 c-33 -19 -38 -27 -38 -57 0 -59 10 -77 50 -100 47 -26 58
-26 94 4 29 24 30 24 18 76 -12 51 -49 99 -75 99 -7 0 -29 -10 -49 -22z"/>
<path d="M9022 7303 c-31 -6 -56 -46 -48 -77 10 -40 70 -79 130 -84 48 -4 53
-2 64 22 7 15 12 33 12 41 0 20 -48 73 -81 90 -28 15 -35 16 -77 8z"/>
<path d="M2544 7260 c-21 -8 -29 -21 -44 -72 -7 -24 -4 -31 22 -53 23 -20 38
-25 57 -20 36 8 61 41 61 81 0 29 -5 36 -37 53 -26 12 -45 16 -59 11z"/>
<path d="M1994 7130 c-23 -9 -54 -52 -54 -74 0 -8 12 -24 28 -36 33 -27 105
-23 127 6 48 63 -23 136 -101 104z"/>
<path d="M3920 7071 c-46 -19 -60 -36 -60 -75 l0 -40 -27 26 c-31 28 -54 26
-86 -9 -13 -15 -16 -30 -11 -66 6 -42 11 -49 60 -81 29 -20 60 -33 68 -30 18
7 46 48 46 67 0 10 8 13 24 10 18 -4 33 3 51 21 25 25 26 31 20 79 -4 29 -9
55 -11 59 -11 18 -61 45 -74 39z"/>
<path d="M2150 6860 c-29 -29 -27 -94 2 -114 48 -34 90 -11 102 55 5 31 3 38
-24 57 -36 27 -54 28 -80 2z"/>
<path d="M6192 6845 c-90 -42 -227 -131 -287 -186 -50 -46 -59 -85 -29 -128
25 -35 78 -24 227 48 106 51 138 72 191 125 85 85 90 101 40 143 -22 18 -46
32 -54 32 -8 0 -48 -16 -88 -34z"/>
<path d="M2476 6679 c-32 -38 -32 -50 -3 -77 26 -25 88 -30 105 -9 24 29 25
67 1 93 -32 34 -71 32 -103 -7z"/>
<path d="M1662 6434 c-18 -12 -22 -25 -22 -68 0 -63 19 -86 73 -86 44 0 57 19
57 84 0 36 -5 48 -26 65 -32 25 -52 26 -82 5z"/>
<path d="M8337 6282 c-26 -15 -28 -21 -22 -56 3 -22 8 -43 11 -47 7 -11 115
-69 130 -69 7 0 22 14 34 30 l22 30 -57 65 c-32 36 -65 65 -74 65 -9 0 -29 -8
-44 -18z"/>
<path d="M2280 6260 c-11 -11 -20 -26 -20 -34 0 -8 -3 -21 -6 -30 -7 -19 38
-66 64 -66 30 0 53 23 62 65 8 37 7 42 -18 62 -34 28 -56 29 -82 3z"/>
<path d="M2048 6243 c-31 -36 -31 -59 2 -87 18 -14 42 -26 56 -26 32 0 64 34
64 68 0 23 -7 32 -35 45 -45 22 -68 21 -87 0z"/>
<path d="M8158 6193 c-61 -66 -58 -87 16 -125 69 -35 166 -13 166 39 0 17
-117 113 -139 113 -9 0 -29 -12 -43 -27z"/>
<path d="M2559 6151 c-55 -55 -26 -141 48 -141 41 0 63 27 63 79 0 33 -6 47
-27 66 -36 32 -49 31 -84 -4z"/>
<path d="M1470 5869 c-33 -13 -69 -58 -70 -86 0 -47 91 -82 133 -50 9 6 23 31
31 54 l15 43 -37 25 c-41 28 -38 27 -72 14z"/>
<path d="M2117 5869 c-19 -11 -47 -67 -47 -93 0 -25 42 -56 75 -56 44 0 66 20
72 66 5 38 3 43 -29 68 -39 29 -45 30 -71 15z"/>
<path d="M9453 5809 c-30 -19 -33 -25 -33 -73 0 -51 2 -54 45 -85 50 -36 74
-35 99 4 13 19 14 33 5 82 -9 49 -16 63 -39 76 -35 21 -38 21 -77 -4z"/>
<path d="M5360 5803 c-8 -4 -67 -41 -130 -83 -258 -173 -621 -377 -880 -496
-138 -63 -188 -96 -285 -188 -45 -43 -63 -120 -40 -169 18 -39 91 -84 118 -74
10 4 25 36 38 79 20 66 26 76 68 105 160 111 397 222 597 282 47 14 91 37 136
71 36 27 117 77 178 110 131 71 210 130 270 203 70 85 71 94 25 133 -38 32
-63 39 -95 27z"/>
<path d="M7321 5737 c-13 -6 -32 -27 -42 -45 -24 -46 -25 -46 -51 -28 -52 37
-98 -1 -98 -81 l0 -51 38 -7 c20 -3 47 -9 59 -12 15 -3 23 1 26 14 4 16 5 15
6 -3 2 -37 54 -69 96 -58 21 5 25 18 46 126 l23 120 -23 19 c-27 22 -47 24
-80 6z"/>
<path d="M9300 5739 c-41 -17 -69 -59 -70 -106 0 -36 5 -46 35 -68 62 -48 155
-42 175 11 8 21 5 32 -20 69 -16 24 -30 50 -30 59 0 16 -37 46 -55 45 -5 0
-21 -5 -35 -10z"/>
<path d="M2431 5654 c-28 -36 -26 -58 5 -83 49 -38 101 -22 119 37 5 17 1 30
-16 48 -31 34 -81 33 -108 -2z"/>
<path d="M1845 5555 c-50 -49 -15 -135 54 -135 37 0 61 31 61 80 0 29 -6 41
-30 58 -38 28 -55 28 -85 -3z"/>
<path d="M1405 5420 c-27 -10 -51 -40 -59 -72 -5 -22 -1 -30 24 -48 37 -26 67
-23 91 10 32 46 32 63 -4 91 -23 19 -38 24 -52 19z"/>
<path d="M2213 5230 c-25 -10 -48 -43 -57 -82 -5 -21 0 -31 25 -52 34 -29 50
-32 82 -15 31 17 37 28 37 75 0 33 -5 44 -30 62 -16 12 -30 22 -32 21 -2 0
-13 -4 -25 -9z"/>
<path d="M1604 4942 c-16 -11 -36 -76 -28 -96 20 -51 114 -54 139 -5 26 49 20
77 -21 94 -39 16 -73 19 -90 7z"/>
<path d="M3449 4887 c-149 -74 -309 -206 -339 -277 -19 -45 -4 -101 33 -118
26 -13 34 -10 145 54 104 60 129 80 233 188 115 120 116 121 103 148 -31 60
-64 61 -175 5z"/>
<path d="M7968 4812 c-30 -15 -33 -22 -36 -64 l-3 -48 -41 21 c-48 24 -81 19
-104 -16 -35 -54 31 -145 107 -145 51 0 94 38 86 77 -5 25 -4 26 48 20 63 -6
75 3 75 59 0 78 -68 128 -132 96z"/>
<path d="M5472 4522 c-24 -4 -55 -62 -46 -85 9 -25 63 -49 95 -42 33 7 71 68
53 83 -26 24 -82 48 -102 44z"/>
<path d="M6224 4419 c-31 -11 -75 -69 -72 -93 2 -12 18 -29 40 -41 l37 -20 28
21 c15 12 34 38 42 58 12 32 12 38 -3 55 -21 24 -46 30 -72 20z"/>
<path d="M4375 4351 c-11 -5 -75 -62 -142 -127 -146 -141 -155 -163 -86 -201
l41 -23 52 20 c65 26 128 68 168 115 34 38 82 126 82 147 -1 11 -80 79 -91 77
-2 0 -13 -4 -24 -8z"/>
<path d="M8392 4274 c-23 -14 -42 -32 -42 -40 0 -8 -4 -13 -9 -10 -18 12 -73
-7 -88 -30 -21 -33 -10 -70 38 -117 38 -38 41 -39 96 -35 36 3 60 11 68 21 7
10 17 17 22 17 5 0 20 11 33 25 43 46 20 135 -45 175 -31 19 -31 19 -73 -6z"/>
<path d="M5877 4190 c-22 -17 -47 -72 -47 -102 0 -13 58 -38 88 -38 38 0 53
19 59 74 5 39 3 45 -25 65 -37 26 -43 26 -75 1z"/>
<path d="M2433 3928 c-323 -280 -441 -396 -522 -519 -120 -179 -141 -249 -88
-295 29 -24 86 -40 112 -30 17 6 29 32 45 91 5 22 41 84 79 139 59 83 82 107
148 151 51 34 102 81 148 135 83 97 182 185 314 276 158 109 185 166 115 244
-23 25 -45 40 -60 40 -16 0 -105 -71 -291 -232z"/>
<path d="M6906 4010 c7 -39 21 -80 28 -80 4 0 -19 84 -29 105 -3 6 -2 -6 1
-25z"/>
<path d="M9248 4010 c-17 -17 -40 -30 -55 -30 -43 0 -91 -29 -102 -62 -6 -17
-11 -32 -11 -34 0 -2 18 -16 40 -30 34 -23 47 -26 92 -22 41 4 56 11 73 32 18
22 29 26 73 26 40 0 53 4 62 19 33 63 -21 131 -105 131 -27 0 -44 -8 -67 -30z"/>
<path d="M3772 3920 c-126 -76 -679 -497 -825 -629 -164 -147 -198 -209 -144
-259 13 -13 39 -27 57 -32 39 -11 51 -4 85 51 15 23 111 101 272 219 138 103
279 216 318 256 48 49 92 82 140 107 105 52 188 120 234 189 23 33 41 66 41
73 0 14 -71 75 -86 75 -5 0 -47 -23 -92 -50z"/>
<path d="M5242 3820 c-12 -5 -30 -26 -39 -46 l-18 -36 30 -24 c50 -40 115 -32
141 18 19 37 10 64 -26 83 -33 17 -54 18 -88 5z"/>
<path d="M6437 3740 c-21 -17 -27 -30 -27 -59 0 -46 24 -71 68 -71 35 0 46 15
57 70 6 35 -2 45 -66 78 -3 1 -18 -7 -32 -18z"/>
<path d="M5876 3609 c-40 -31 -36 -81 9 -126 31 -31 40 -35 68 -29 36 7 57 30
57 60 0 20 -82 116 -99 116 -5 0 -20 -9 -35 -21z"/>
<path d="M4044 3131 c-52 -30 -98 -76 -130 -131 -14 -22 -50 -47 -134 -91
-195 -103 -321 -192 -505 -356 -81 -72 -183 -220 -197 -288 -17 -79 24 -137
107 -150 40 -7 40 -6 61 37 14 28 19 55 17 79 -4 33 2 44 84 141 l88 106 150
72 c196 94 300 164 410 275 86 85 195 231 195 260 0 12 -76 75 -89 75 -4 0
-29 -13 -57 -29z"/>
<path d="M6647 2977 c-10 -7 -24 -30 -32 -52 -12 -37 -12 -42 8 -62 30 -33 80
-31 95 2 21 45 15 79 -18 103 -34 26 -32 25 -53 9z"/>
<path d="M5715 2869 c-43 -38 -46 -72 -8 -111 21 -22 36 -28 68 -28 47 0 59
16 71 91 13 80 -63 108 -131 48z"/>
<path d="M4975 2748 c-33 -18 -45 -40 -45 -84 0 -36 5 -46 29 -63 32 -23 77
-27 115 -9 51 23 44 79 -15 133 -42 37 -53 41 -84 23z"/>
<path d="M1700 2304 c-223 -163 -408 -301 -412 -308 -13 -19 -9 -60 8 -84 13
-18 25 -22 73 -22 l58 0 239 170 c206 147 259 191 386 317 80 80 144 151 142
157 -4 10 -77 66 -86 66 -2 0 -186 -133 -408 -296z"/>
<path d="M6287 2402 c-33 -34 -34 -52 -4 -80 23 -22 71 -29 93 -14 15 9 34 47
34 65 0 15 -61 57 -84 57 -7 0 -24 -13 -39 -28z"/>
<path d="M6970 2282 c-34 -11 -50 -35 -50 -78 0 -34 5 -47 27 -64 30 -24 69
-20 91 7 18 25 15 93 -5 110 -31 24 -48 30 -63 25z"/>
<path d="M5511 2147 c-13 -6 -29 -26 -36 -44 -13 -31 -12 -33 16 -58 61 -50
129 -19 129 60 0 45 -60 68 -109 42z"/>
<path d="M6539 2039 c-17 -7 -30 -22 -37 -47 -11 -34 -10 -39 13 -59 37 -32
98 -31 130 2 38 37 32 76 -16 100 -32 17 -52 18 -90 4z"/>
<path d="M4856 1993 c-4 -5 -14 -24 -22 -43 -15 -34 -14 -36 11 -57 26 -23 78
-30 101 -15 15 10 34 47 34 66 0 29 -38 56 -78 56 -21 0 -42 -3 -46 -7z"/>
<path d="M3254 1824 c-21 -15 -68 -34 -103 -42 -100 -23 -246 -118 -386 -252
-69 -66 -91 -80 -156 -104 -150 -53 -319 -180 -424 -316 -111 -145 -112 -225
-3 -237 42 -4 44 -4 73 44 68 110 143 172 330 272 165 87 289 176 402 287 88
86 96 92 155 104 90 20 184 70 246 133 l54 54 -16 31 c-9 17 -25 36 -35 42
-36 19 -96 12 -137 -16z"/>
<path d="M5163 1675 c-54 -23 -58 -70 -8 -114 45 -39 105 -43 129 -9 26 36 19
53 -37 96 -50 38 -55 39 -84 27z"/>
<path d="M7043 1550 c-47 -19 -58 -92 -20 -128 52 -49 117 -16 117 58 0 29 -6
39 -35 58 -19 12 -36 22 -37 21 -2 0 -13 -4 -25 -9z"/>
<path d="M6199 1529 c-16 -6 -30 -23 -38 -45 -12 -33 -11 -38 9 -59 31 -33 71
-40 110 -20 60 31 57 101 -6 125 -30 12 -41 12 -75 -1z"/>
<path d="M10225 10 c-3 -5 -1 -10 4 -10 6 0 11 5 11 10 0 6 -2 10 -4 10 -3 0
-8 -4 -11 -10z"/>
</g>
</svg>
