<?xml version="1.0" standalone="no"?>
<!DOCTYPE svg PUBLIC "-//W3C//DTD SVG 20010904//EN"
 "http://www.w3.org/TR/2001/REC-SVG-20010904/DTD/svg10.dtd">
<svg version="1.0" xmlns="http://www.w3.org/2000/svg"
 width="1024.000000pt" height="1024.000000pt" viewBox="0 0 1024.000000 1024.000000"
 preserveAspectRatio="xMidYMid meet">
<metadata>
Created by potrace 1.10, written by Peter Selinger 2001-2011
</metadata>
<g transform="translate(0.000000,1024.000000) scale(0.100000,-0.100000)"
fill="#000000" stroke="none">
<path d="M6206 8987 c-17 -13 -17 -16 12 -68 45 -82 94 -258 86 -311 -35 -244
-192 -585 -530 -1150 -68 -114 -129 -210 -135 -213 -15 -10 -3009 -339 -3344
-368 l-290 -25 -265 19 c-146 10 -271 19 -278 19 -8 0 -11 -8 -8 -22 3 -13 10
-49 16 -80 l11 -57 117 -74 c64 -40 183 -108 263 -151 l147 -76 158 19 c88 11
443 76 789 145 586 116 668 129 1174 196 397 52 546 69 551 60 4 -6 17 -55 29
-109 25 -113 19 -188 -24 -318 -36 -107 -62 -153 -278 -503 l-195 -315 -235
-29 -234 -29 -109 46 c-60 25 -159 62 -220 83 l-111 38 -76 -33 c-42 -19 -77
-38 -77 -43 0 -5 27 -49 60 -97 33 -48 75 -121 94 -162 69 -149 66 -86 66
-1523 0 -1205 -6 -1556 -30 -1866 -16 -206 13 -332 108 -472 60 -90 96 -118
147 -118 49 0 90 43 112 119 l17 57 1459 113 c802 62 1460 111 1461 110 2 -2
8 -26 15 -53 18 -74 75 -178 119 -218 34 -30 92 -58 124 -58 4 0 32 33 63 74
l55 73 22 184 c22 180 22 221 28 1829 5 1224 10 1659 19 1700 6 30 27 89 47
131 19 42 37 98 40 126 l6 49 -101 131 -101 130 -108 61 -108 61 -150 -38
c-82 -21 -168 -47 -191 -59 -137 -71 -283 -100 -784 -157 -222 -25 -573 -65
-779 -89 -206 -24 -376 -43 -376 -42 -1 0 122 138 273 306 151 168 321 361
377 430 57 69 124 144 150 168 25 23 46 51 46 62 0 33 -101 137 -233 239 l-72
56 50 7 c28 5 703 51 1500 104 1559 103 1562 103 1954 73 154 -12 189 -8 230
27 68 57 47 129 -72 241 -70 65 -84 73 -212 122 l-137 53 -402 -56 c-319 -45
-572 -72 -1235 -132 -458 -41 -837 -74 -841 -72 -8 3 667 749 785 868 35 36
89 81 120 100 162 101 185 127 185 206 0 32 -9 56 -41 103 -77 115 -383 381
-504 437 -58 27 -169 33 -199 11z m417 -3408 c52 -40 57 -83 57 -531 0 -280
-3 -408 -11 -408 -5 0 -657 -56 -1447 -125 -790 -69 -1444 -125 -1454 -125
-17 0 -18 22 -18 415 0 228 3 415 8 416 4 0 635 85 1402 188 767 104 1405 189
1416 190 12 0 33 -8 47 -20z m57 -1699 c0 -310 -3 -450 -11 -450 -5 0 -657
-56 -1447 -125 -790 -69 -1444 -125 -1454 -125 -17 0 -18 23 -18 445 l0 445
23 0 c12 1 654 59 1427 129 773 71 1422 129 1443 130 l37 1 0 -450z m-2 -1234
c-2 -261 -6 -477 -10 -481 -3 -4 -640 -60 -1415 -125 -774 -65 -1429 -121
-1455 -124 l-48 -5 0 474 c0 373 3 475 13 476 6 0 642 58 1412 128 770 71
1424 129 1453 130 l53 1 -3 -474z"/>
<path d="M3242 8574 c-12 -8 -22 -19 -22 -25 0 -5 91 -116 203 -247 l203 -237
184 -314 c116 -197 203 -333 232 -364 l47 -49 60 4 c40 3 71 11 89 25 72 54
113 162 115 312 2 75 -2 94 -25 144 -77 165 -282 340 -665 568 -116 69 -338
183 -378 194 -11 3 -31 -2 -43 -11z"/>
</g>
</svg>
