<?xml version="1.0" standalone="no"?>
<!DOCTYPE svg PUBLIC "-//W3C//DTD SVG 20010904//EN"
 "http://www.w3.org/TR/2001/REC-SVG-20010904/DTD/svg10.dtd">
<svg version="1.0" xmlns="http://www.w3.org/2000/svg"
 width="1024.000000pt" height="1024.000000pt" viewBox="0 0 1024.000000 1024.000000"
 preserveAspectRatio="xMidYMid meet">
<metadata>
Created by potrace 1.10, written by Peter Selinger 2001-2011
</metadata>
<g transform="translate(0.000000,1024.000000) scale(0.100000,-0.100000)"
fill="#000000" stroke="none">
<path d="M6077 9570 c-17 -14 -34 -19 -49 -15 -19 5 -175 -92 -783 -486 -418
-270 -790 -517 -828 -547 -130 -105 -223 -235 -276 -384 l-36 -101 -271 -91
c-226 -76 -289 -102 -382 -155 -242 -139 -442 -317 -626 -556 l-108 -140 5
-62 c5 -45 -4 -125 -31 -300 l-38 -238 8 -205 c7 -158 19 -275 53 -510 l45
-305 0 -333 0 -333 -57 2 c-120 3 -261 -48 -325 -119 -20 -22 -51 -81 -78
-147 -40 -99 -44 -120 -48 -210 -5 -144 19 -215 126 -361 85 -117 96 -145 106
-260 22 -244 156 -406 368 -445 l66 -12 77 -306 c85 -335 141 -497 240 -696
77 -156 158 -283 260 -407 61 -75 106 -116 235 -213 87 -66 159 -127 159 -135
1 -8 -19 -57 -44 -108 -25 -52 -45 -96 -45 -99 0 -11 -196 -262 -244 -311
-122 -127 -289 -249 -462 -337 -58 -29 -114 -61 -125 -71 -25 -22 -24 -69 2
-95 31 -31 62 -20 275 102 149 85 215 130 300 203 182 156 340 355 436 546 28
58 53 106 54 108 1 2 66 -19 145 -47 262 -90 459 -116 824 -108 361 7 531 38
835 150 165 60 225 89 394 185 109 62 202 110 206 105 4 -4 30 -42 58 -83 121
-178 281 -357 482 -541 74 -67 175 -138 448 -313 194 -125 366 -229 382 -232
22 -5 34 -1 54 19 28 29 33 54 14 80 -7 9 -147 100 -311 201 -163 102 -332
213 -375 248 -177 143 -471 469 -581 643 l-54 86 59 62 c33 34 102 110 153
169 117 133 191 268 267 488 30 85 58 164 63 175 6 11 14 36 20 55 5 19 74
235 153 480 l144 445 104 18 c132 23 200 58 280 143 91 97 121 172 171 413 34
165 47 211 70 246 60 89 99 214 99 321 0 86 -61 283 -106 345 -84 114 -248
169 -374 124 -24 -8 -44 -14 -46 -12 -2 1 6 59 17 127 12 74 27 260 37 455
l18 330 -53 220 c-33 141 -90 332 -157 533 -99 296 -111 324 -202 490 -109
199 -156 265 -259 368 -63 62 -196 166 -227 176 -25 9 36 86 157 199 109 101
171 147 389 289 249 163 270 179 541 421 155 138 295 259 310 269 36 24 74 94
75 138 0 48 -37 82 -90 82 -50 0 -73 -11 -125 -60 -22 -20 -175 -132 -340
-247 -165 -115 -341 -239 -391 -275 -207 -151 -417 -272 -744 -430 -124 -60
-259 -129 -301 -154 -61 -36 -82 -43 -107 -38 -30 6 -28 8 121 129 156 126
176 150 198 235 35 138 205 366 373 499 34 27 147 106 251 176 251 167 271
188 229 229 -40 40 -42 39 -530 -256 -495 -299 -569 -337 -888 -453 -330 -120
-587 -271 -866 -510 l-105 -90 -213 -24 c-117 -13 -214 -22 -216 -20 -2 2 54
67 124 145 88 96 157 161 217 204 48 35 309 219 578 408 478 335 544 386 672
509 85 82 94 143 29 195 -27 22 -28 22 -59 -2z m-92 -1537 c-132 -120 -254
-245 -268 -276 -9 -19 -17 -49 -17 -66 0 -32 31 -104 50 -116 5 -3 10 -16 10
-28 0 -41 12 -45 126 -53 l111 -7 159 75 c212 99 409 208 470 260 27 23 56 48
65 55 15 12 35 -2 170 -118 85 -72 157 -140 161 -149 4 -10 23 -41 43 -68 53
-74 164 -298 222 -447 68 -173 196 -595 225 -737 20 -98 23 -143 22 -338 l0
-225 -147 -1105 -148 -1105 -103 -260 c-60 -151 -149 -403 -211 -599 l-107
-339 -95 -148 c-70 -109 -115 -167 -169 -219 -433 -411 -1175 -655 -1829 -601
-289 24 -410 54 -645 158 -25 11 -53 23 -62 26 -35 12 -260 169 -330 230 -62
54 -89 89 -175 228 -113 183 -163 280 -228 439 -98 238 -125 340 -221 840
l-74 385 -85 1165 c-46 641 -91 1206 -101 1257 -32 182 9 575 87 818 15 50 31
109 35 133 14 92 271 359 481 500 118 79 118 79 412 194 141 55 261 102 267
105 7 2 18 -28 29 -82 10 -47 22 -88 27 -91 4 -3 8 -23 8 -44 0 -40 46 -126
86 -161 31 -27 81 -49 126 -55 62 -9 89 16 96 84 4 47 1 57 -43 129 l-47 78 7
95 c4 52 8 96 10 98 4 4 410 62 431 62 6 0 -11 -55 -39 -122 -57 -139 -64
-199 -34 -298 28 -91 98 -159 151 -146 22 5 30 11 151 101 100 75 863 507 910
515 69 13 71 10 30 -27z m1942 -2962 c77 -123 84 -265 20 -407 -65 -144 -88
-218 -127 -394 -43 -203 -77 -273 -161 -340 -50 -39 -128 -70 -179 -70 l-25 0
20 246 c20 246 20 246 46 259 14 8 45 39 68 69 23 31 44 56 46 56 5 0 -17 -53
-71 -169 -24 -52 -44 -100 -44 -107 0 -19 40 -54 62 -54 19 0 103 96 144 166
46 78 85 209 85 285 1 103 -33 171 -115 230 -44 33 -71 36 -98 12 -29 -26 -23
-70 17 -116 24 -28 35 -51 35 -72 0 -29 -2 -31 -27 -28 -19 3 -41 -4 -65 -21
-47 -31 -46 -51 -8 234 17 123 30 228 30 234 0 19 62 45 115 49 28 2 82 4 120
5 l70 1 42 -68z m-5175 -428 c12 -14 22 -112 47 -458 22 -298 41 -494 60 -607
31 -188 32 -184 -45 -149 -89 41 -160 130 -169 214 -13 125 -14 141 -7 131 4
-5 24 -20 44 -32 43 -27 79 -22 108 15 20 26 18 41 -11 83 -9 14 -20 43 -24
65 -3 22 -22 112 -42 199 -33 152 -34 161 -19 193 19 40 20 92 3 114 -7 8 -24
23 -38 32 -25 16 -26 16 -62 -21 -79 -81 -84 -143 -27 -373 22 -89 40 -167 40
-173 0 -5 -14 10 -30 35 -17 24 -48 67 -70 94 -50 63 -86 139 -106 224 -40
167 26 349 148 410 57 28 177 30 200 4z"/>
<path d="M5855 6676 c-137 -67 -201 -118 -265 -211 -39 -57 -78 -160 -86 -229
-6 -49 -4 -57 19 -80 28 -28 68 -34 85 -13 5 6 15 39 22 72 18 90 63 166 145
244 99 94 164 123 280 129 74 3 102 0 155 -18 137 -46 242 -131 325 -264 45
-72 49 -76 84 -76 71 0 77 34 27 138 -86 181 -224 300 -401 347 -33 9 -105 18
-160 21 l-100 5 -130 -65z"/>
<path d="M3970 6381 c-74 -26 -151 -55 -170 -65 -81 -43 -186 -125 -253 -197
-59 -64 -78 -92 -107 -164 -32 -81 -33 -88 -19 -113 17 -32 60 -55 84 -46 9 4
26 26 38 50 32 62 128 184 189 238 64 59 223 137 338 168 126 33 346 33 484
-1 90 -22 103 -29 155 -76 115 -104 131 -115 165 -115 42 0 66 26 73 78 5 34
1 44 -18 61 -104 93 -161 126 -299 173 -125 42 -233 58 -389 57 -135 -1 -137
-1 -271 -48z"/>
<path d="M5988 6049 c-171 -38 -234 -81 -267 -178 -13 -41 -15 -98 -2 -105 5
-3 23 -45 41 -94 23 -64 42 -98 73 -130 l42 -44 82 7 c137 10 255 69 252 124
-1 14 9 48 21 76 17 37 23 69 24 127 1 43 2 78 4 78 2 0 27 -18 57 -41 33 -25
62 -57 75 -84 28 -58 43 -69 83 -61 25 5 37 15 50 41 17 35 16 37 -9 87 -34
68 -108 144 -167 175 -51 25 -163 53 -207 52 -14 -1 -82 -14 -152 -30z"/>
<path d="M3878 5716 c-113 -52 -167 -92 -207 -155 -60 -95 -59 -156 4 -186 49
-22 85 0 85 53 0 12 35 46 99 95 97 75 99 76 90 45 -37 -130 28 -271 149 -325
65 -28 75 -28 244 5 l136 28 65 60 c55 51 68 70 82 117 17 59 14 89 -16 147
-26 53 -66 84 -154 119 -78 30 -85 31 -280 36 l-200 5 -97 -44z m556 -141 c23
-18 56 -65 56 -82 0 -6 -19 -26 -42 -44 l-41 -33 6 37 c3 21 0 60 -7 87 -14
54 -7 62 28 35z"/>
<path d="M4958 5183 c-9 -2 -24 -21 -34 -41 -15 -32 -15 -39 -3 -62 8 -14 24
-29 36 -35 16 -7 20 -16 17 -35 -3 -14 -15 -97 -28 -185 -13 -88 -29 -171 -35
-185 -25 -60 -64 -291 -69 -412 -6 -166 12 -337 41 -384 12 -19 31 -49 42 -66
48 -75 131 -98 206 -56 35 19 39 26 39 60 0 32 -5 41 -32 58 -18 11 -47 20
-65 20 -48 0 -68 44 -81 171 -12 125 -11 133 73 625 66 389 69 425 39 471 -23
37 -103 68 -146 56z"/>
<path d="M6001 5059 c-44 -17 -81 -50 -107 -94 -31 -53 -25 -81 19 -100 31
-13 33 -13 64 21 38 40 53 43 53 10 0 -28 14 -42 53 -51 35 -9 57 9 57 46 0
16 14 55 32 85 l31 56 -24 19 c-28 22 -34 22 -59 9 -13 -7 -21 -7 -25 0 -8 12
-62 12 -94 -1z"/>
<path d="M6238 5012 c-71 -56 -78 -124 -15 -146 31 -11 67 14 67 47 0 11 16
39 35 62 l35 43 -25 16 c-34 22 -43 20 -97 -22z"/>
<path d="M3966 4840 c-82 -78 -88 -150 -12 -150 25 0 36 8 56 37 24 35 25 36
28 12 7 -53 71 -67 98 -21 10 15 42 50 73 78 l56 52 -20 22 c-16 18 -27 21
-59 17 -21 -3 -52 -15 -68 -27 l-28 -21 -35 27 -34 26 -55 -52z"/>
<path d="M5665 3009 c-185 -139 -293 -194 -449 -225 -97 -20 -300 -14 -390 11
-62 17 -157 75 -217 132 -21 20 -50 36 -72 40 -44 7 -97 -13 -97 -36 0 -9 32
-56 71 -105 65 -80 78 -91 153 -127 126 -60 188 -72 361 -72 272 -1 465 66
706 245 133 99 161 137 135 187 -16 29 -34 41 -64 41 -9 0 -71 -41 -137 -91z"/>
</g>
</svg>
