<?xml version="1.0" standalone="no"?>
<!DOCTYPE svg PUBLIC "-//W3C//DTD SVG 20010904//EN"
 "http://www.w3.org/TR/2001/REC-SVG-20010904/DTD/svg10.dtd">
<svg version="1.0" xmlns="http://www.w3.org/2000/svg"
 width="1024.000000pt" height="1024.000000pt" viewBox="0 0 1024.000000 1024.000000"
 preserveAspectRatio="xMidYMid meet">
<metadata>
Created by potrace 1.10, written by Peter Selinger 2001-2011
</metadata>
<g transform="translate(0.000000,1024.000000) scale(0.100000,-0.100000)"
fill="#000000" stroke="none">
<path d="M4955 9732 c-6 -4 -25 -26 -42 -50 -30 -42 -30 -43 -18 -101 18 -87
107 -238 228 -389 37 -45 67 -90 67 -99 0 -8 9 -31 21 -50 28 -44 26 -82 -6
-178 -33 -99 -84 -197 -147 -284 -26 -36 -48 -71 -48 -79 0 -7 -22 -40 -49
-72 -139 -167 -196 -358 -157 -525 20 -84 71 -192 124 -260 21 -28 65 -107 97
-175 72 -155 79 -205 44 -343 -13 -50 -24 -93 -24 -93 0 -1 -81 -12 -180 -24
l-179 -22 -56 59 c-261 275 -276 292 -397 473 l-123 185 50 119 c51 121 234
477 296 576 42 67 64 137 64 205 0 44 -5 59 -35 97 -89 117 -243 226 -397 279
-77 26 -94 28 -151 12 -22 -6 -57 -73 -57 -111 0 -31 20 -45 333 -245 42 -27
77 -52 77 -56 0 -11 -221 -409 -264 -475 -82 -125 -126 -276 -126 -430 l0 -95
142 -199 c105 -146 156 -208 195 -238 47 -34 164 -188 152 -198 -2 -2 -107
-20 -234 -41 -233 -38 -323 -62 -428 -118 -106 -56 -224 -181 -284 -302 -31
-63 -140 -430 -157 -530 -55 -326 -83 -654 -96 -1153 -27 -1015 -85 -2502
-114 -2893 l-23 -316 22 -311 c22 -311 22 -312 54 -376 63 -129 189 -225 341
-261 47 -12 413 -34 1330 -80 696 -36 1295 -65 1331 -65 95 0 377 53 443 83
217 99 384 313 469 597 35 115 44 174 62 385 27 316 33 451 42 865 10 480 13
337 -25 1115 -35 706 -38 847 -19 980 25 181 10 385 -32 437 -15 18 -31 23
-84 26 -60 4 -68 2 -91 -21 -29 -29 -31 -54 -13 -107 9 -26 11 -77 6 -190 -4
-85 -8 -177 -8 -204 l-1 -48 -37 7 c-21 4 -306 33 -633 64 l-595 57 -95 45
c-87 42 -104 55 -200 155 -113 118 -149 178 -170 277 -6 31 -24 94 -39 138
l-27 81 23 202 c12 110 40 377 62 591 22 215 50 434 61 485 28 124 25 225 -9
270 -12 17 -20 34 -17 37 3 4 308 54 678 113 706 113 819 138 894 195 48 36
58 60 44 96 -12 28 -71 73 -94 72 -6 -1 -76 -14 -156 -31 -80 -16 -159 -32
-176 -35 l-32 -6 50 162 c28 89 50 177 49 196 0 27 -29 71 -152 233 l-152 200
24 23 c40 38 361 328 404 365 163 141 216 223 223 352 10 177 -32 243 -384
609 -92 95 -105 105 -132 101 -68 -10 -83 -138 -29 -252 15 -31 92 -134 176
-235 83 -99 151 -182 151 -185 0 -3 -31 -43 -68 -90 -85 -105 -208 -222 -335
-319 -54 -40 -116 -94 -138 -120 -56 -65 -110 -180 -116 -249 l-5 -57 144
-195 c79 -107 147 -200 151 -206 4 -7 -24 -76 -62 -155 -37 -79 -74 -161 -80
-182 -8 -24 -20 -39 -34 -42 -18 -4 -723 -115 -730 -115 -1 0 0 56 2 125 5
199 -33 323 -153 494 -69 98 -101 162 -126 252 -34 123 -33 127 83 321 57 95
152 256 213 358 l109 185 6 95 c6 84 4 101 -17 157 -64 170 -202 392 -303 487
-26 25 -31 37 -31 79 0 42 -5 54 -34 83 -34 34 -84 46 -111 26z m65 -2954 c-5
-13 -41 -354 -80 -758 -38 -404 -77 -763 -85 -798 -21 -92 -54 -139 -185 -265
-141 -136 -292 -260 -450 -366 -170 -116 -247 -159 -553 -312 l-277 -139 6
307 c9 522 24 964 34 1053 34 284 108 599 200 842 26 70 97 151 159 182 172
88 398 165 601 206 101 21 495 67 592 69 46 1 47 0 38 -21z m6 -2010 c65 -119
70 -126 170 -208 171 -140 362 -225 637 -281 29 -6 140 -15 247 -19 147 -6
267 -19 487 -52 161 -24 295 -46 297 -49 3 -2 16 -231 30 -509 14 -278 28
-539 31 -581 l6 -76 -168 33 -168 33 -1015 26 c-996 25 -1026 26 -1575 70
-308 25 -575 48 -593 51 l-32 5 2 356 3 356 175 66 c355 136 830 408 1164 668
37 29 104 94 148 143 43 50 81 90 83 90 2 0 33 -55 71 -122z m-1096 -1823
c542 -58 697 -68 2534 -157 l468 -23 -6 -110 c-3 -60 -8 -229 -11 -375 -3
-146 -8 -284 -11 -306 l-5 -42 -37 9 c-20 5 -154 22 -298 39 l-261 30 -1486 0
c-817 0 -1487 3 -1490 8 -4 9 33 928 39 960 3 15 11 22 27 22 12 0 254 -25
537 -55z m-511 -1169 c54 -12 279 -12 1484 0 l1419 15 262 -41 c143 -22 270
-42 281 -45 20 -4 20 -9 13 -101 -16 -197 -90 -444 -174 -581 -107 -172 -285
-274 -509 -289 -44 -3 -260 -9 -480 -14 l-400 -8 -820 63 c-451 35 -848 69
-883 75 -182 31 -294 141 -309 303 -3 35 -2 192 2 350 8 329 -5 298 114 273z"/>
</g>
</svg>
