<?xml version="1.0" standalone="no"?>
<!DOCTYPE svg PUBLIC "-//W3C//DTD SVG 20010904//EN"
 "http://www.w3.org/TR/2001/REC-SVG-20010904/DTD/svg10.dtd">
<svg version="1.0" xmlns="http://www.w3.org/2000/svg"
 width="1024.000000pt" height="1024.000000pt" viewBox="0 0 1024.000000 1024.000000"
 preserveAspectRatio="xMidYMid meet">
<metadata>
Created by potrace 1.10, written by Peter Selinger 2001-2011
</metadata>
<g transform="translate(0.000000,1024.000000) scale(0.100000,-0.100000)"
fill="#000000" stroke="none">
<path d="M8796 8421 c-19 -4 -36 -17 -48 -37 -16 -28 -17 -37 -3 -145 8 -62
20 -223 27 -357 10 -210 10 -293 -5 -610 -10 -202 -20 -397 -24 -433 l-5 -67
-282 -46 -281 -46 -1700 -94 c-935 -52 -1794 -100 -1910 -106 -313 -18 -1554
-25 -1869 -11 -259 12 -262 12 -481 63 -202 46 -224 54 -265 87 -83 66 -93 89
-125 282 -53 326 -58 400 -60 839 -3 423 -5 451 -42 492 -24 26 -79 22 -128
-9 l-42 -26 -6 -156 c-20 -471 2 -909 69 -1361 42 -291 83 -778 119 -1435 48
-864 87 -1176 215 -1710 21 -88 65 -296 99 -462 78 -385 147 -604 259 -813
131 -246 375 -481 634 -611 243 -122 303 -135 1053 -230 l640 -80 920 -15
c506 -9 958 -13 1005 -10 380 24 776 209 1058 494 290 294 605 919 791 1571
72 251 76 269 236 1126 150 801 206 1175 245 1635 7 74 20 209 31 299 17 144
22 167 44 193 29 34 33 82 10 115 -13 19 -14 39 -5 140 22 250 30 644 19 988
-5 187 -15 360 -21 384 -13 50 -72 129 -114 152 -18 9 -40 13 -58 10z m-86
-1931 c0 -9 -106 -746 -250 -1731 -88 -605 -149 -900 -280 -1354 -79 -272 -91
-305 -220 -610 -117 -278 -128 -299 -262 -510 l-141 -220 -171 -148 c-165
-143 -315 -246 -436 -299 -178 -78 -1072 -130 -1688 -98 -274 15 -1573 126
-1707 146 -204 31 -416 111 -582 220 -274 177 -471 417 -557 676 -22 65 -306
1358 -355 1618 -45 232 -87 554 -106 795 -9 124 -74 1400 -71 1403 2 1 19 -5
39 -13 57 -24 670 -112 882 -127 120 -8 362 -13 660 -12 l470 0 2180 127
c1199 70 2241 131 2315 135 194 13 280 13 280 2z"/>
</g>
</svg>
