<?xml version="1.0" standalone="no"?>
<!DOCTYPE svg PUBLIC "-//W3C//DTD SVG 20010904//EN"
 "http://www.w3.org/TR/2001/REC-SVG-20010904/DTD/svg10.dtd">
<svg version="1.0" xmlns="http://www.w3.org/2000/svg"
 width="1024.000000pt" height="1024.000000pt" viewBox="0 0 1024.000000 1024.000000"
 preserveAspectRatio="xMidYMid meet">
<metadata>
Created by potrace 1.10, written by Peter Selinger 2001-2011
</metadata>
<g transform="translate(0.000000,1024.000000) scale(0.100000,-0.100000)"
fill="#000000" stroke="none">
<path d="M5927 7311 c-64 -22 -155 -57 -200 -79 -140 -69 -241 -94 -402 -99
-184 -6 -289 14 -447 87 l-111 52 -215 18 -214 18 -127 -28 c-367 -81 -690
-196 -1031 -367 -240 -120 -215 -105 -871 -527 l-510 -328 -306 -256 c-266
-222 -308 -253 -324 -243 -29 17 -77 13 -99 -9 -11 -11 -20 -24 -20 -30 0 -5
-11 -10 -25 -10 -63 0 -145 -65 -145 -115 0 -32 31 -85 50 -85 8 0 128 -93
265 -206 348 -288 514 -411 825 -611 602 -388 1067 -613 1490 -719 806 -204
1709 -298 2540 -265 307 12 399 20 585 51 268 45 493 111 799 231 164 66 251
108 471 232 399 224 511 312 960 751 204 200 358 359 365 377 10 24 11 38 2
63 -15 42 -5 74 34 108 17 15 39 46 48 68 14 35 14 45 2 79 -7 22 -24 52 -37
68 -13 16 -321 263 -684 548 -665 521 -777 602 -1061 761 -153 86 -530 277
-649 329 -190 83 -427 142 -654 165 -154 15 -175 13 -304 -29z m398 -216 c247
-47 644 -180 715 -240 8 -7 26 -16 40 -20 36 -11 801 -475 1009 -613 244 -161
552 -396 716 -546 l50 -46 -45 5 c-25 3 -430 41 -902 85 l-856 80 -563 110
c-536 103 -564 110 -582 135 -25 34 -69 56 -115 57 -20 1 -174 -31 -342 -70
l-305 -71 -550 -30 c-404 -21 -568 -27 -617 -20 -62 9 -132 -2 -1150 -175
l-1084 -185 -95 9 c-52 5 -104 10 -116 10 -19 0 -23 6 -23 29 0 41 43 89 87
97 21 4 46 19 62 36 37 42 73 58 149 67 l67 7 543 362 543 363 297 147 c799
397 842 412 1125 412 187 0 291 -22 407 -83 173 -92 363 -130 543 -108 143 17
242 45 332 95 25 14 47 26 48 26 2 0 -30 -98 -71 -217 -61 -181 -73 -226 -69
-266 4 -52 30 -87 81 -114 55 -29 66 -17 155 171 93 193 103 235 76 315 -18
54 -78 117 -119 123 -25 4 80 42 175 63 87 18 285 19 384 0z m-513 -1269 c116
-47 336 -110 493 -141 72 -14 427 -63 790 -110 l660 -84 590 -33 590 -32 -49
-45 -48 -46 27 -11 c24 -10 8 -17 -193 -88 -162 -57 -253 -83 -349 -100 -70
-12 -140 -30 -155 -40 -18 -12 -299 -76 -335 -76 -1 0 -3 -6 -3 -13 0 -10
-121 -25 -487 -60 l-488 -48 -555 17 -555 16 -1620 225 -1620 225 -225 -4
c-124 -3 -218 -3 -210 -2 8 2 416 70 905 150 l890 146 360 5 360 5 555 88
c305 48 562 88 571 89 8 0 54 -15 101 -33z m-4140 -541 l263 -66 1965 -268
c1081 -148 2019 -275 2085 -283 163 -18 854 -18 1025 0 69 8 425 42 791 77
603 56 671 65 706 85 22 12 47 34 56 50 14 22 26 29 68 34 28 4 53 6 55 4 6
-7 -183 -203 -209 -217 -14 -7 -33 -30 -42 -50 -36 -78 -448 -350 -761 -501
-369 -179 -695 -287 -1038 -345 -295 -50 -309 -50 -1381 -11 -614 23 -1023 42
-1095 52 -319 42 -667 137 -960 261 -47 20 -332 173 -635 341 l-550 305 -346
267 c-190 147 -355 274 -367 281 -21 13 -19 15 40 31 35 9 64 17 65 17 1 1
121 -28 265 -64z"/>
<path d="M4666 7007 c-32 -33 -58 -177 -57 -326 0 -123 31 -293 64 -358 32
-62 81 -77 151 -48 55 23 62 49 40 137 -19 72 -23 178 -15 390 4 95 -21 155
-82 199 -48 35 -71 36 -101 6z"/>
<path d="M6274 6763 c-32 -6 -65 -46 -75 -93 -5 -23 -25 -61 -43 -84 -47 -58
-63 -114 -46 -168 27 -91 66 -117 121 -80 39 26 146 151 169 198 23 47 26 114
6 153 -17 32 -78 82 -98 80 -7 -1 -23 -4 -34 -6z"/>
<path d="M6598 6620 l-41 -40 7 -69 c5 -52 3 -78 -8 -106 -27 -64 -21 -100 24
-145 39 -39 67 -48 105 -34 41 16 115 171 115 242 0 79 -83 192 -141 192 -12
0 -39 -18 -61 -40z"/>
<path d="M3825 6613 c-95 -21 -114 -50 -116 -184 -1 -57 4 -141 11 -185 l12
-82 76 -12 c43 -6 89 -14 103 -17 25 -5 25 -4 27 64 1 37 7 106 13 153 14 110
13 143 -7 186 -14 30 -78 86 -94 83 -3 -1 -14 -3 -25 -6z"/>
<path d="M4342 6393 c-59 -12 -78 -176 -33 -305 12 -37 27 -70 32 -74 12 -7
210 -26 216 -20 2 2 -1 31 -7 64 -6 33 -12 93 -14 134 -7 143 -85 224 -194
201z"/>
<path d="M3395 4554 l-48 -37 6 -69 c15 -176 139 -295 261 -248 57 21 55 89
-7 220 -31 66 -123 170 -150 170 -8 0 -36 -16 -62 -36z"/>
<path d="M4735 4553 c-29 -7 -44 -22 -66 -64 -24 -48 -24 -85 0 -132 14 -28
21 -69 26 -150 8 -141 24 -189 78 -228 81 -59 121 -30 155 113 12 51 22 117
22 146 0 103 -59 226 -137 291 -38 31 -42 33 -78 24z"/>
<path d="M6839 4542 c-9 -4 -31 -20 -49 -36 -35 -29 -36 -32 -76 -256 -5 -33
-2 -39 40 -78 61 -56 95 -57 145 -4 70 74 94 207 53 289 -18 35 -78 95 -93 92
-2 0 -11 -3 -20 -7z"/>
<path d="M4001 4491 c-41 -11 -65 -55 -65 -114 1 -42 12 -75 55 -164 59 -122
81 -143 147 -143 98 0 125 38 93 134 -11 34 -27 86 -35 116 -17 63 -47 107
-101 150 -38 30 -51 33 -94 21z"/>
<path d="M6311 4448 l-42 -33 6 -80 c13 -192 15 -201 52 -239 19 -20 53 -41
74 -48 79 -23 119 27 119 151 0 102 -24 166 -87 229 -28 28 -58 52 -66 52 -8
0 -33 -15 -56 -32z"/>
</g>
</svg>
