<?xml version="1.0" standalone="no"?>
<!DOCTYPE svg PUBLIC "-//W3C//DTD SVG 20010904//EN"
 "http://www.w3.org/TR/2001/REC-SVG-20010904/DTD/svg10.dtd">
<svg version="1.0" xmlns="http://www.w3.org/2000/svg"
 width="1024.000000pt" height="1024.000000pt" viewBox="0 0 1024.000000 1024.000000"
 preserveAspectRatio="xMidYMid meet">
<metadata>
Created by potrace 1.10, written by Peter Selinger 2001-2011
</metadata>
<g transform="translate(0.000000,1024.000000) scale(0.100000,-0.100000)"
fill="#000000" stroke="none">
<path d="M8730 8521 c-13 -4 -33 -21 -43 -39 -18 -31 -18 -37 -2 -179 27 -232
30 -603 10 -1038 -10 -209 -19 -381 -20 -383 -2 -2 -122 -23 -267 -48 -298
-50 -228 -46 -2573 -173 -605 -33 -1192 -65 -1305 -72 -306 -17 -1558 -24
-1871 -10 -252 12 -268 14 -463 57 -230 51 -233 52 -292 100 -58 48 -79 97
-103 244 -54 325 -76 652 -67 996 6 212 4 257 -9 294 -20 58 -42 80 -77 80
-31 0 -97 -30 -115 -52 -29 -36 -34 -702 -8 -998 15 -160 38 -358 60 -510 44
-294 84 -773 115 -1360 36 -688 35 -684 66 -930 32 -259 74 -495 135 -764 28
-122 77 -352 110 -513 81 -399 160 -650 262 -833 23 -41 44 -79 46 -85 12 -30
146 -191 222 -265 184 -181 403 -306 669 -381 84 -24 238 -46 770 -113 l665
-84 925 -11 c1008 -12 1005 -12 1224 43 381 97 724 338 945 666 232 342 389
665 531 1089 118 355 140 453 305 1326 166 881 216 1214 260 1735 27 312 41
397 70 432 29 34 32 73 9 107 -15 21 -15 37 -4 165 16 187 24 814 13 1101 -8
215 -11 233 -33 279 -22 43 -112 138 -129 135 -3 -1 -17 -4 -31 -8z m-84
-1938 c-3 -16 -76 -509 -161 -1098 -160 -1097 -178 -1207 -246 -1500 -99 -427
-185 -699 -336 -1058 -122 -292 -128 -304 -263 -514 l-139 -214 -164 -144
c-152 -133 -292 -231 -436 -304 -143 -73 -1017 -129 -1606 -102 -143 7 -595
41 -1005 76 -588 51 -770 70 -865 91 -288 62 -523 191 -736 403 -166 166 -270
335 -322 526 -19 70 -272 1239 -323 1495 -86 426 -116 726 -158 1580 -18 360
-31 657 -30 659 2 1 24 -4 51 -12 59 -20 614 -102 778 -116 241 -21 644 -33
880 -27 209 5 4958 272 5073 285 10 1 12 -7 8 -26z"/>
</g>
</svg>
