<?xml version="1.0" standalone="no"?>
<!DOCTYPE svg PUBLIC "-//W3C//DTD SVG 20010904//EN"
 "http://www.w3.org/TR/2001/REC-SVG-20010904/DTD/svg10.dtd">
<svg version="1.0" xmlns="http://www.w3.org/2000/svg"
 width="1024.000000pt" height="1024.000000pt" viewBox="0 0 1024.000000 1024.000000"
 preserveAspectRatio="xMidYMid meet">
<metadata>
Created by potrace 1.10, written by Peter Selinger 2001-2011
</metadata>
<g transform="translate(0.000000,1024.000000) scale(0.100000,-0.100000)"
fill="#000000" stroke="none">
<path d="M6040 7061 c-63 -20 -143 -52 -178 -70 -159 -81 -335 -118 -516 -108
-141 7 -257 37 -371 95 l-90 46 -219 17 -220 17 -145 -34 c-384 -89 -710 -206
-1031 -370 -194 -98 -258 -137 -830 -504 l-535 -343 -295 -245 c-162 -135
-303 -252 -313 -260 -13 -12 -20 -13 -29 -4 -7 7 -29 12 -50 12 -30 0 -42 -6
-60 -30 -12 -16 -31 -30 -42 -30 -12 0 -40 -9 -64 -20 -33 -15 -47 -29 -62
-62 -32 -71 -26 -96 29 -113 13 -4 144 -106 290 -227 146 -121 322 -261 391
-311 356 -260 870 -576 1231 -757 135 -68 481 -198 634 -238 820 -216 1746
-317 2607 -283 471 18 749 65 1120 187 281 92 463 174 753 337 398 225 495
301 942 737 194 190 360 355 369 368 9 13 15 40 14 60 0 20 -2 52 -2 70 -1 26
7 42 43 78 41 42 44 49 44 98 0 45 -5 60 -31 93 -17 21 -320 266 -675 546
l-644 507 -420 241 c-231 133 -483 272 -560 310 -280 137 -568 213 -850 224
-118 5 -122 4 -235 -34z m459 -227 c223 -46 559 -160 648 -221 21 -14 50 -29
65 -34 39 -11 779 -459 998 -604 176 -117 366 -255 496 -360 102 -83 283 -239
281 -241 -2 -2 -403 35 -892 81 l-890 84 -584 113 c-540 105 -584 115 -592
135 -4 12 -21 29 -38 37 -63 33 -93 30 -406 -44 l-300 -71 -530 -30 c-357 -20
-568 -28 -645 -24 l-115 6 -1057 -180 c-1085 -186 -1128 -192 -1273 -173 -47
7 -50 9 -53 38 -4 43 28 79 83 93 26 6 50 20 58 32 21 36 75 61 150 70 l72 9
540 359 c534 355 543 361 845 513 770 389 849 418 1132 418 186 0 296 -22 400
-79 96 -53 226 -97 330 -112 167 -24 382 8 527 79 42 20 80 38 84 40 5 3 2 -9
-6 -24 -29 -57 -137 -413 -137 -451 0 -69 59 -133 124 -133 56 0 179 234 201
385 11 72 -11 141 -60 191 -24 23 -53 44 -66 46 -18 3 -7 9 42 26 176 60 361
69 568 26z m-548 -1273 c125 -48 317 -102 457 -131 56 -11 398 -59 760 -106
653 -85 660 -85 1232 -119 316 -19 598 -35 625 -35 l50 0 -48 -46 c-27 -26
-47 -47 -45 -49 2 -1 11 -6 21 -12 31 -16 -417 -168 -558 -189 -67 -10 -120
-23 -136 -35 -16 -10 -91 -30 -185 -48 -89 -17 -163 -37 -169 -44 -7 -10 -143
-27 -490 -61 l-480 -46 -560 16 -560 16 -1620 225 -1620 225 -235 -4 -235 -4
920 153 920 153 335 0 335 1 560 88 c308 49 574 89 591 90 17 0 77 -17 135
-38z m-4155 -541 c248 -59 273 -63 2180 -325 1061 -146 2015 -275 2119 -287
259 -28 750 -31 1005 -5 96 10 456 44 800 76 l625 59 100 55 c72 40 115 57
155 62 l55 6 -95 -98 c-52 -54 -108 -106 -123 -117 -15 -10 -37 -35 -47 -56
-40 -78 -395 -316 -714 -479 -523 -268 -1060 -411 -1538 -411 -158 0 -1788 55
-1928 65 -46 4 -151 17 -233 31 -423 69 -764 188 -1242 433 -499 256 -711 392
-1167 745 l-368 285 63 14 c34 8 71 13 82 11 11 -2 133 -31 271 -64z"/>
<path d="M4781 6759 c-30 -32 -52 -147 -58 -294 -5 -111 -2 -146 17 -235 37
-173 65 -220 131 -220 50 0 108 26 118 53 6 15 2 47 -11 97 -16 60 -20 101
-18 205 5 279 5 268 -18 312 -26 49 -88 103 -119 103 -12 0 -31 -10 -42 -21z"/>
<path d="M6398 6513 c-34 -5 -78 -56 -78 -89 0 -31 -21 -73 -49 -98 -34 -31
-55 -116 -41 -167 15 -55 62 -103 92 -94 27 7 136 120 179 184 65 98 57 184
-24 242 -22 16 -43 28 -46 28 -3 -1 -18 -4 -33 -6z"/>
<path d="M6732 6378 c-45 -37 -57 -73 -42 -129 9 -31 7 -47 -10 -91 -11 -29
-20 -64 -20 -78 0 -32 50 -93 90 -110 28 -11 34 -11 58 7 62 46 112 154 112
241 0 26 -9 64 -21 89 -21 44 -85 103 -112 103 -8 0 -33 -15 -55 -32z"/>
<path d="M3948 6362 c-2 -5 -31 -25 -65 -45 l-61 -38 -4 -82 c-3 -79 14 -273
26 -284 3 -3 51 -14 106 -23 l100 -17 0 61 c0 34 5 102 11 151 19 149 14 180
-35 233 -25 28 -73 55 -78 44z"/>
<path d="M4469 6143 c-39 -6 -58 -32 -70 -97 -12 -68 -1 -153 30 -237 l21 -56
62 -7 c33 -3 83 -6 111 -6 l50 0 -7 38 c-4 20 -9 75 -12 122 -7 97 -18 143
-46 183 -18 26 -87 69 -105 66 -4 -1 -20 -4 -34 -6z"/>
<path d="M3506 4295 c-44 -35 -46 -38 -46 -89 0 -104 52 -213 123 -256 45 -28
137 -28 162 0 53 59 -27 260 -139 349 -21 17 -42 31 -46 31 -4 0 -28 -16 -54
-35z"/>
<path d="M4849 4293 c-16 -3 -35 -18 -52 -45 -39 -60 -42 -89 -16 -145 17 -37
23 -76 28 -174 8 -146 24 -182 97 -225 77 -45 99 -23 140 139 25 102 26 113
14 178 -16 92 -59 176 -120 233 -27 25 -53 45 -57 45 -4 -1 -20 -4 -34 -6z"/>
<path d="M6965 4280 c-11 -5 -35 -21 -53 -37 -29 -25 -34 -37 -47 -118 -8 -49
-20 -107 -27 -128 -11 -36 -10 -39 23 -73 70 -74 115 -79 167 -20 63 72 89
197 57 273 -28 66 -86 116 -120 103z"/>
<path d="M4118 4231 c-44 -10 -71 -55 -71 -116 0 -43 9 -71 47 -148 25 -51 46
-99 46 -105 0 -7 18 -24 40 -38 34 -23 47 -26 87 -20 49 6 93 37 93 65 0 9 -8
43 -19 76 -11 33 -27 86 -36 119 -12 40 -30 72 -58 103 -34 37 -88 76 -99 72
-2 -1 -15 -4 -30 -8z"/>
<path d="M6470 4208 c-14 -5 -37 -21 -52 -35 -26 -25 -28 -33 -28 -103 0 -99
17 -187 42 -222 27 -39 91 -70 136 -66 51 4 73 50 74 152 0 89 -20 157 -62
208 -48 58 -80 77 -110 66z"/>
</g>
</svg>
