<?xml version="1.0" standalone="no"?>
<!DOCTYPE svg PUBLIC "-//W3C//DTD SVG 20010904//EN"
 "http://www.w3.org/TR/2001/REC-SVG-20010904/DTD/svg10.dtd">
<svg version="1.0" xmlns="http://www.w3.org/2000/svg"
 width="1024.000000pt" height="1024.000000pt" viewBox="0 0 1024.000000 1024.000000"
 preserveAspectRatio="xMidYMid meet">
<metadata>
Created by potrace 1.10, written by Peter Selinger 2001-2011
</metadata>
<g transform="translate(0.000000,1024.000000) scale(0.100000,-0.100000)"
fill="#000000" stroke="none">
<path d="M8080 7309 c-162 -16 -783 -74 -1380 -129 -1167 -108 -1888 -175
-2640 -245 -261 -24 -853 -79 -1315 -121 l-840 -78 -470 79 -470 79 -62 -28
c-60 -28 -61 -28 -51 -57 11 -32 74 -91 128 -119 39 -20 144 -139 231 -260
126 -176 197 -358 302 -776 146 -579 261 -1154 486 -2429 50 -280 100 -543
111 -584 86 -309 225 -471 402 -471 41 0 54 5 87 35 55 50 72 105 78 252 l6
122 51 5 c28 3 848 44 1821 91 974 47 2132 104 2575 125 443 22 900 44 1015
50 264 12 340 31 399 100 54 65 26 142 -97 263 l-80 78 66 327 c198 983 348
1683 408 1912 53 200 176 480 286 650 33 50 102 132 169 200 108 110 164 192
164 241 0 57 -142 198 -400 396 -285 219 -490 324 -624 322 -34 -1 -194 -14
-356 -30z m105 -664 c50 -25 85 -76 85 -124 0 -19 -20 -148 -45 -286 -24 -137
-146 -819 -270 -1515 -124 -696 -227 -1274 -230 -1285 -7 -30 -106 -47 -660
-110 -477 -54 -490 -55 -2075 -145 -877 -49 -1763 -99 -1968 -111 -205 -12
-375 -19 -378 -16 -3 3 -108 723 -233 1600 l-227 1596 51 6 c27 3 289 26 580
50 292 25 656 56 810 70 1900 166 2020 175 3155 235 1197 63 1341 67 1405 35z"/>
</g>
</svg>
