<?xml version="1.0" standalone="no"?>
<!DOCTYPE svg PUBLIC "-//W3C//DTD SVG 20010904//EN"
 "http://www.w3.org/TR/2001/REC-SVG-20010904/DTD/svg10.dtd">
<svg version="1.0" xmlns="http://www.w3.org/2000/svg"
 width="1024.000000pt" height="1024.000000pt" viewBox="0 0 1024.000000 1024.000000"
 preserveAspectRatio="xMidYMid meet">
<metadata>
Created by potrace 1.10, written by Peter Selinger 2001-2011
</metadata>
<g transform="translate(0.000000,1024.000000) scale(0.100000,-0.100000)"
fill="#000000" stroke="none">
<path d="M5986 7075 c-22 -8 -51 -22 -65 -32 -14 -11 -156 -54 -316 -97 -289
-77 -293 -78 -994 -186 -700 -108 -704 -109 -731 -90 -14 10 -39 22 -56 25
-16 4 -108 31 -205 62 l-176 55 -91 -46 c-51 -26 -92 -51 -92 -56 0 -5 16 -35
37 -67 48 -76 105 -200 136 -298 65 -208 163 -964 277 -2145 64 -668 80 -755
151 -831 28 -30 33 -31 87 -27 130 9 191 107 213 343 6 60 12 111 13 112 1 1
209 25 461 53 253 28 683 75 955 105 272 30 516 55 541 55 115 0 216 60 225
135 5 33 1 47 -24 81 -16 22 -57 61 -90 85 -33 24 -64 51 -69 59 -7 11 41 235
164 770 205 887 228 973 292 1105 48 97 72 128 165 207 48 40 75 98 76 157 0
134 -148 264 -458 400 -177 78 -328 101 -426 66z m-91 -529 c57 -24 70 -63 68
-196 -3 -212 -46 -552 -138 -1095 -65 -387 -153 -877 -158 -882 -2 -1 -54 -14
-116 -28 -104 -23 -1408 -201 -1416 -194 -1 2 -12 130 -24 284 -12 154 -48
629 -81 1055 -32 426 -58 775 -57 776 4 2 1852 292 1870 293 10 1 33 -5 52
-13z"/>
</g>
</svg>
