<?xml version="1.0" standalone="no"?>
<!DOCTYPE svg PUBLIC "-//W3C//DTD SVG 20010904//EN"
 "http://www.w3.org/TR/2001/REC-SVG-20010904/DTD/svg10.dtd">
<svg version="1.0" xmlns="http://www.w3.org/2000/svg"
 width="1024.000000pt" height="1024.000000pt" viewBox="0 0 1024.000000 1024.000000"
 preserveAspectRatio="xMidYMid meet">
<metadata>
Created by potrace 1.10, written by Peter Selinger 2001-2011
</metadata>
<g transform="translate(0.000000,1024.000000) scale(0.100000,-0.100000)"
fill="#000000" stroke="none">
<path d="M2395 9353 c-11 -2 -56 -11 -100 -19 -319 -61 -630 -256 -811 -509
-56 -80 -117 -209 -143 -305 -11 -41 -41 -241 -67 -445 l-47 -370 3 -3165 c2
-3102 2 -3167 22 -3260 10 -52 23 -117 27 -145 19 -118 32 -147 94 -209 68
-67 148 -108 252 -131 67 -15 173 -14 1471 15 861 19 1409 34 1424 41 35 14
61 53 67 100 8 58 -14 85 -80 99 -62 13 -88 12 -1645 -23 -1227 -27 -1200 -28
-1293 25 -36 20 -38 25 -63 127 -26 105 -26 112 -46 951 -30 1235 -39 2018
-40 3470 0 1153 2 1346 20 1765 20 455 22 480 66 765 61 401 96 497 236 650
108 118 192 185 281 223 176 76 320 104 657 129 246 18 1020 17 1205 -3 116
-12 425 -14 1805 -14 l1665 -1 685 -33 685 -32 37 -42 c73 -82 84 -116 107
-309 29 -241 29 -507 1 -644 -11 -54 -30 -220 -43 -369 -20 -251 -22 -333 -22
-1155 -1 -792 -5 -1012 -39 -2095 -27 -881 -35 -1239 -29 -1315 6 -61 6 -168
1 -257 -8 -124 -5 -200 11 -405 31 -376 44 -732 39 -1016 l-5 -253 -34 -36
c-49 -52 -128 -100 -201 -122 -35 -11 -238 -52 -453 -90 l-390 -71 -567 -45
-568 -46 -397 27 c-219 14 -421 24 -449 22 l-51 -4 201 178 c197 175 256 240
256 284 0 28 -34 70 -72 90 -62 32 -81 20 -362 -225 -144 -126 -269 -238 -279
-249 -24 -26 -32 -90 -18 -133 6 -19 59 -86 122 -154 166 -180 261 -310 342
-471 49 -98 88 -134 145 -134 52 0 115 32 130 65 9 19 -8 54 -127 256 l-138
234 34 3 c45 4 551 -25 680 -39 78 -9 125 -9 195 0 191 25 1875 302 1917 316
187 62 278 215 313 524 10 93 7 197 -26 836 -21 424 -42 756 -50 792 -12 56
-11 86 10 280 22 194 28 360 57 1488 25 997 31 1332 25 1560 -10 383 -5 616
39 1637 30 685 35 869 26 920 -32 185 -139 334 -274 384 -36 13 -186 21 -844
44 -723 26 -963 30 -2490 39 -1669 11 -3051 13 -3090 4z"/>
<path d="M8188 8253 c7 -3 16 -2 19 1 4 3 -2 6 -13 5 -11 0 -14 -3 -6 -6z"/>
<path d="M7355 7742 c-22 -15 -105 -130 -143 -199 -23 -40 -56 -111 -75 -159
l-35 -86 -12 38 c-8 23 -37 62 -69 94 -61 60 -106 80 -184 80 -41 0 -48 -3
-66 -33 -11 -19 -27 -60 -36 -93 -14 -57 -13 -66 19 -257 l33 -197 -34 6 c-31
6 -38 2 -83 -47 -40 -44 -50 -61 -55 -103 -4 -28 -27 -131 -51 -228 -24 -97
-44 -200 -44 -228 0 -31 -8 -66 -19 -89 -11 -21 -26 -69 -33 -107 -8 -47 -20
-77 -39 -99 -29 -33 -69 -159 -69 -218 0 -52 -18 -86 -42 -79 -11 3 -32 -4
-49 -17 -27 -20 -30 -21 -53 -5 l-25 16 20 51 c12 29 25 62 30 75 10 25 -16
89 -54 129 -25 28 -91 50 -182 62 -116 14 -170 46 -251 146 -27 33 -64 74 -84
92 -42 39 -140 93 -168 93 -16 0 -24 12 -37 57 -21 71 -46 120 -78 153 l-24
25 25 43 c18 32 26 61 28 105 1 38 26 149 64 287 71 258 76 300 37 358 -34 53
-73 62 -125 31 -97 -59 -212 -164 -283 -259 l-26 -35 -7 85 c-11 129 -31 187
-80 237 -47 46 -79 59 -117 44 -21 -7 -45 -51 -130 -229 l-104 -220 -27 19
c-15 11 -48 54 -74 97 -26 42 -63 94 -83 116 -66 71 -189 110 -222 69 -10 -11
-14 -46 -13 -122 1 -103 3 -112 69 -311 37 -113 73 -213 81 -224 14 -20 9 -46
-10 -46 -11 0 -72 -75 -93 -115 -6 -11 -13 -37 -17 -58 -5 -28 -11 -36 -19
-29 -7 5 -23 6 -37 3 -19 -5 -36 -27 -69 -91 l-44 -85 -222 -141 -222 -141
-116 -24 -115 -23 -21 24 c-22 27 -28 39 -61 120 -12 30 -35 82 -51 115 -15
33 -53 130 -84 215 -31 85 -76 189 -100 231 -25 42 -45 86 -45 98 0 28 46 129
98 215 48 79 97 209 112 298 10 57 9 70 -9 119 -19 49 -27 58 -69 78 -39 18
-62 22 -123 20 -73 -3 -76 -2 -123 34 -27 20 -52 37 -56 37 -32 0 -75 -29
-111 -76 -42 -55 -59 -66 -59 -39 0 26 -47 65 -77 65 -43 -1 -108 -34 -133
-70 -12 -17 -25 -52 -28 -76 l-5 -43 -25 19 c-31 25 -100 27 -143 4 -63 -32
-109 -196 -89 -317 5 -34 10 -65 10 -70 0 -4 -26 6 -57 21 -50 25 -64 27 -100
20 -51 -11 -87 -53 -109 -125 -25 -84 -3 -135 116 -273 45 -52 89 -111 97
-130 15 -33 13 -91 -3 -135 -5 -12 -4 -16 3 -12 7 4 12 -14 15 -51 5 -65 34
-132 82 -188 20 -24 41 -67 55 -114 13 -41 38 -95 55 -120 18 -25 79 -133 136
-240 118 -223 190 -334 287 -439 164 -179 413 -329 645 -386 91 -23 94 -37 52
-269 -39 -218 -93 -360 -198 -521 -31 -47 -56 -91 -56 -97 0 -7 -11 -23 -24
-37 -13 -15 -34 -59 -46 -99 -37 -126 -105 -257 -215 -413 -58 -82 -105 -158
-105 -167 0 -9 -19 -41 -43 -69 -23 -29 -81 -117 -129 -195 l-88 -142 0 -68 0
-68 119 -79 c156 -103 170 -106 576 -126 176 -8 332 -15 346 -15 23 0 26 -4
21 -25 -7 -38 6 -89 33 -129 l24 -35 -16 -188 c-8 -103 -18 -232 -20 -285 -4
-85 -7 -98 -22 -98 -9 0 -83 9 -165 21 l-148 20 -36 -27 c-114 -84 -145 -136
-146 -243 -1 -73 0 -75 30 -96 44 -30 182 -83 294 -113 88 -24 114 -26 375
-30 306 -4 333 -1 390 50 41 36 68 114 68 198 0 87 -39 142 -113 157 l-30 6 0
106 c0 135 -16 305 -42 451 -11 63 -23 145 -25 182 l-5 68 213 0 c118 0 311 3
430 7 l216 6 7 -187 c4 -103 12 -200 18 -214 6 -15 10 -67 9 -117 -1 -61 3
-98 13 -116 12 -24 11 -33 -7 -85 -29 -84 -30 -261 -2 -319 42 -85 97 -90 333
-29 189 49 332 103 529 200 219 108 251 143 224 242 -24 91 -102 165 -188 178
-44 6 -63 5 -310 -17 -79 -7 -145 -10 -147 -8 -3 3 -8 72 -11 154 -7 163 -23
239 -61 297 l-24 38 53 0 c224 0 853 133 930 197 16 12 54 30 85 38 107 30
141 46 176 86 20 21 36 43 36 48 0 5 13 14 29 20 30 13 51 48 51 84 0 12 -13
51 -28 87 -25 57 -47 94 -125 209 -41 62 -149 371 -201 578 -66 262 -68 282
-60 548 6 211 9 250 31 325 50 178 163 351 299 460 38 30 260 212 494 403 419
343 427 350 562 508 140 165 168 212 168 286 0 47 -22 94 -57 124 -29 25 -30
26 -12 47 9 12 21 22 26 22 5 0 20 24 34 52 38 82 92 132 230 213 138 81 200
139 239 222 30 65 37 154 16 225 -18 61 -19 62 -119 74 -32 4 -60 10 -62 14
-3 4 5 35 16 69 20 59 20 62 2 98 -15 32 -27 41 -73 56 -70 24 -120 16 -193
-27 l-55 -33 -7 34 c-12 67 -94 120 -166 108 -21 -4 -58 -22 -82 -40 l-45 -34
-4 55 c-5 61 -26 96 -78 132 -33 22 -75 28 -95 14z m171 -574 c-29 -70 -29
-103 0 -137 22 -27 32 -31 73 -31 30 0 65 9 94 24 l47 23 0 -25 c0 -14 10 -36
22 -49 44 -47 187 -21 289 51 35 26 46 30 37 16 -7 -12 -41 -36 -75 -55 -120
-68 -233 -168 -316 -280 -29 -38 -59 -77 -68 -85 -8 -9 -22 -27 -31 -39 l-16
-23 -94 45 c-51 25 -176 90 -278 144 l-185 99 -26 104 c-14 58 -29 119 -33
135 l-7 30 19 -30 c42 -65 107 -105 172 -105 36 0 57 26 85 101 20 56 23 60
30 38 16 -53 67 -85 120 -75 23 5 45 25 89 81 32 41 60 75 62 75 2 0 -3 -15
-10 -32z m-2613 -78 c12 -93 91 -159 189 -160 59 0 103 35 143 115 16 30 38
61 51 70 22 14 22 14 13 -18 -5 -18 -19 -68 -31 -112 -12 -44 -32 -95 -46
-112 -16 -22 -23 -41 -20 -58 5 -24 3 -25 -46 -25 -28 -1 -177 -11 -331 -24
-186 -16 -284 -21 -292 -14 -37 30 -73 178 -44 178 5 0 22 -19 38 -41 38 -56
84 -80 148 -77 l50 3 80 161 c44 89 83 160 86 158 4 -2 9 -22 12 -44z m-2103
-9 c0 -13 64 -41 94 -41 23 0 25 -3 19 -32 -3 -18 -25 -84 -48 -147 l-42 -114
-134 -53 c-74 -28 -180 -70 -236 -92 l-102 -40 -31 49 -30 49 33 0 c42 0 50 7
76 57 15 31 21 61 21 113 l0 70 53 0 c48 0 54 3 74 33 12 17 25 44 28 60 9 36
21 42 50 23 13 -9 42 -16 64 -16 34 0 44 5 65 33 15 19 26 39 26 45 0 7 5 12
10 12 6 0 10 -4 10 -9z m4170 -432 c44 -29 252 -137 330 -170 96 -40 210 -108
217 -128 3 -9 14 -23 24 -31 10 -8 21 -27 24 -41 6 -23 -9 -40 -135 -162 -172
-166 -395 -356 -599 -511 -197 -150 -458 -380 -521 -460 -130 -164 -230 -411
-247 -615 -5 -64 -8 -71 -19 -56 -13 17 -14 16 -22 -6 -39 -105 -40 -253 -3
-369 13 -42 21 -92 21 -141 0 -132 104 -467 211 -681 38 -76 69 -144 69 -153
0 -8 25 -62 55 -119 l54 -104 -202 -86 -202 -86 -1050 -66 c-799 -51 -1141
-68 -1430 -74 -393 -8 -452 -5 -565 31 -68 21 -210 96 -210 111 0 5 69 111
153 236 187 279 290 454 424 727 57 116 133 264 168 330 95 178 150 357 175
570 20 178 10 242 -46 305 -44 48 -97 73 -203 94 -155 31 -277 95 -392 204
-114 107 -333 412 -478 665 -79 139 -231 447 -231 469 1 30 33 51 112 74 46
13 84 28 86 34 3 9 371 135 377 129 1 -2 83 -176 180 -386 175 -376 178 -381
201 -371 13 6 25 9 27 7 1 -2 16 -31 33 -64 35 -68 100 -124 176 -152 27 -9
50 -24 53 -33 15 -46 104 -100 165 -100 19 0 40 -12 63 -35 30 -30 42 -35 82
-35 26 0 68 8 94 17 47 16 47 16 106 -13 80 -40 135 -93 135 -130 0 -22 7 -34
29 -47 l28 -17 13 45 c16 56 67 95 126 95 42 0 109 -27 136 -54 16 -15 19 -13
50 28 18 25 48 52 66 61 32 16 34 15 83 -14 27 -17 54 -31 59 -31 5 0 32 14
59 31 45 27 54 29 88 20 21 -6 53 -20 72 -31 18 -12 34 -20 35 -18 22 38 65
82 95 97 l38 20 43 -26 42 -26 27 29 c15 16 43 37 63 48 l35 19 46 -27 c26
-15 50 -25 54 -23 5 3 22 33 37 66 l29 60 30 -16 c145 -75 329 -71 414 9 l22
20 27 -21 c15 -11 39 -21 54 -21 23 0 27 -4 23 -20 -6 -24 -1 -24 87 -5 39 8
67 10 71 4 3 -5 50 50 104 123 80 108 112 163 172 291 40 87 87 204 104 260
18 56 34 108 37 115 3 8 -1 10 -13 6 -15 -6 -16 -3 -10 27 6 28 62 279 80 356
l5 22 78 -31 c42 -18 88 -39 102 -49z m-1784 -34 c-4 -17 14 -86 59 -217 46
-135 64 -200 60 -219 -4 -15 -2 -44 4 -63 8 -30 7 -36 -6 -36 -11 0 -13 -5 -8
-17 5 -10 10 -33 13 -52 l5 -34 -28 21 c-35 27 -133 30 -191 6 -29 -12 -93
-19 -244 -25 -113 -4 -248 -10 -301 -13 l-97 -5 -4 54 c-4 41 -11 61 -35 88
l-30 35 42 173 c23 96 51 193 61 216 l19 43 170 0 c153 1 186 4 330 34 200 42
189 42 181 11z m-989 -532 c-1 -80 8 -108 46 -150 l20 -22 -32 -43 c-17 -24
-78 -85 -134 -135 -84 -77 -107 -93 -134 -93 -17 0 -35 5 -38 10 -11 17 -83
50 -109 50 -16 0 -40 15 -65 40 -42 43 -76 60 -119 60 -19 1 -7 9 44 29 99 39
155 73 348 210 93 67 170 121 171 121 2 0 2 -35 2 -77z m1358 6 c95 -97 231
-180 361 -223 l52 -17 -29 -29 c-19 -18 -29 -39 -29 -58 0 -25 -5 -30 -31 -36
-57 -11 -93 -6 -190 24 l-96 30 -31 63 c-18 35 -49 84 -70 108 l-38 44 14 78
c9 42 18 77 21 77 3 -1 33 -28 66 -61z m-136 -383 c60 -73 61 -75 34 -74 -16
0 -75 -13 -133 -31 -119 -35 -403 -76 -468 -67 -42 6 -391 -27 -467 -44 -32
-7 -45 -5 -70 10 -61 38 -60 47 8 158 34 55 69 110 77 122 l15 21 190 -16
c105 -9 201 -20 213 -26 17 -6 69 -3 175 12 122 17 154 25 165 40 10 15 25 19
72 19 51 0 61 3 71 22 11 21 13 20 34 -24 12 -26 50 -80 84 -122z m-1483
-3300 c0 0 -3 -37 -7 -81 -9 -97 4 -239 31 -346 14 -55 20 -107 19 -171 -1
-51 1 -104 6 -117 6 -19 4 -22 -12 -18 -10 3 -46 11 -80 18 -35 6 -63 13 -63
14 0 2 7 39 15 82 18 95 40 447 31 507 -4 24 -16 61 -26 82 -11 21 -20 40 -20
41 0 3 104 -8 106 -11z m1279 -3 c-18 -47 -24 -116 -14 -160 6 -27 14 -102 19
-168 5 -66 12 -132 15 -146 6 -22 2 -28 -24 -39 -18 -7 -34 -11 -36 -8 -3 3
-7 52 -10 109 -2 57 -11 131 -20 164 -11 41 -14 79 -10 120 4 42 1 73 -9 103
l-15 42 56 0 c48 0 54 -2 48 -17z m613 -632 c23 -6 23 -7 5 -23 -10 -9 -38
-22 -63 -28 -24 -7 -69 -25 -100 -40 -78 -39 -167 -65 -347 -100 -86 -16 -158
-30 -160 -30 -2 0 -3 29 -3 64 l0 64 93 16 c50 9 175 32 277 50 183 34 253 40
298 27z m-1717 -308 c-3 -39 -8 -74 -11 -77 -3 -3 -175 13 -383 36 -342 38
-375 43 -356 56 18 12 56 14 229 10 121 -4 213 -2 223 4 11 6 38 5 76 -3 74
-14 175 1 205 31 11 11 20 18 21 17 1 -1 -1 -34 -4 -74z"/>
<path d="M4468 4661 c-45 -39 -62 -80 -56 -134 12 -105 76 -168 176 -175 33
-2 74 3 97 11 38 13 41 18 64 85 26 80 24 123 -10 166 -32 41 -96 68 -170 74
-62 4 -67 3 -101 -27z"/>
<path d="M4502 3977 c-48 -15 -89 -57 -101 -104 -24 -88 43 -203 127 -219 46
-9 139 10 171 34 52 38 66 69 66 142 0 79 -18 113 -76 142 -38 20 -133 23
-187 5z"/>
<path d="M4932 6469 c-44 -32 -82 -92 -82 -132 0 -13 11 -34 24 -46 27 -26
104 -41 115 -23 5 8 17 9 41 2 19 -6 56 -10 82 -10 45 0 49 2 67 38 17 33 17
41 4 77 -17 49 -67 102 -102 109 -93 18 -105 16 -149 -15z"/>
<path d="M4545 6463 c-11 -3 -33 -21 -50 -41 -27 -32 -30 -42 -30 -108 0 -57
4 -76 19 -93 25 -28 63 -27 108 4 30 20 49 25 101 25 57 0 66 3 91 29 24 25
28 35 22 62 -8 44 -48 93 -89 113 -33 15 -123 20 -172 9z"/>
</g>
</svg>
