<?xml version="1.0" standalone="no"?>
<!DOCTYPE svg PUBLIC "-//W3C//DTD SVG 20010904//EN"
 "http://www.w3.org/TR/2001/REC-SVG-20010904/DTD/svg10.dtd">
<svg version="1.0" xmlns="http://www.w3.org/2000/svg"
 width="1024.000000pt" height="1024.000000pt" viewBox="0 0 1024.000000 1024.000000"
 preserveAspectRatio="xMidYMid meet">
<metadata>
Created by potrace 1.10, written by Peter Selinger 2001-2011
</metadata>
<g transform="translate(0.000000,1024.000000) scale(0.100000,-0.100000)"
fill="#000000" stroke="none">
<path d="M7505 8809 c-49 -5 -558 -8 -1130 -7 l-1040 2 -1210 -62 c-665 -34
-1397 -71 -1625 -82 -249 -12 -443 -26 -484 -35 -167 -36 -284 -133 -369 -309
-60 -123 -103 -250 -127 -375 -37 -191 -36 -222 25 -856 l57 -590 -11 -985
c-7 -542 -19 -1203 -27 -1470 -20 -657 -35 -2070 -22 -2184 21 -196 124 -446
208 -506 22 -15 146 -37 646 -110 340 -49 639 -90 665 -90 52 0 106 30 126 70
19 37 16 94 -4 112 -13 10 -188 37 -598 92 -779 103 -708 89 -733 142 -12 24
-33 88 -46 141 -23 91 -26 127 -37 522 -16 558 -1 1395 48 2561 50 1196 48
1512 -8 2005 -33 295 -100 1029 -96 1050 8 32 133 356 157 406 18 38 33 51 79
74 l56 28 1350 63 c743 34 1645 76 2005 93 766 36 1675 78 1875 87 118 5 212
0 605 -36 l465 -42 107 -44 c159 -64 199 -87 247 -139 59 -64 78 -112 111
-283 39 -202 58 -362 70 -592 11 -212 12 -195 -46 -1350 -50 -1005 -55 -1261
-42 -1965 11 -603 4 -1054 -23 -1400 -8 -115 -111 -936 -124 -991 -7 -31 -89
-109 -151 -145 -101 -58 -174 -68 -769 -106 -472 -30 -1723 -20 -1903 16 l-34
6 163 185 c89 102 171 204 181 228 26 58 17 91 -37 141 -65 59 -88 53 -194
-57 -111 -116 -259 -293 -351 -422 -83 -116 -127 -220 -111 -262 5 -13 45 -55
88 -95 44 -39 162 -171 263 -292 100 -122 188 -221 194 -222 6 0 33 -4 59 -8
41 -7 52 -5 74 12 37 30 54 77 43 118 -9 30 -211 291 -293 376 -17 18 -28 35
-25 38 2 3 508 14 1124 25 615 11 1171 24 1234 29 130 12 228 34 348 81 117
45 224 140 280 248 45 86 77 184 92 275 15 97 48 448 67 717 20 288 21 971 2
1790 -14 618 -10 760 46 1545 64 898 67 967 68 1430 1 565 -15 700 -109 888
-65 129 -117 191 -231 277 -99 75 -114 83 -242 124 -246 80 -446 114 -711 120
-96 3 -215 0 -265 -5z"/>
</g>
</svg>
