<?xml version="1.0" standalone="no"?>
<!DOCTYPE svg PUBLIC "-//W3C//DTD SVG 20010904//EN"
 "http://www.w3.org/TR/2001/REC-SVG-20010904/DTD/svg10.dtd">
<svg version="1.0" xmlns="http://www.w3.org/2000/svg"
 width="1024.000000pt" height="1024.000000pt" viewBox="0 0 1024.000000 1024.000000"
 preserveAspectRatio="xMidYMid meet">
<metadata>
Created by potrace 1.10, written by Peter Selinger 2001-2011
</metadata>
<g transform="translate(0.000000,1024.000000) scale(0.100000,-0.100000)"
fill="#000000" stroke="none">
<path d="M7955 8900 c-60 -16 -147 -43 -193 -59 -109 -40 -269 -69 -462 -82
-146 -11 -1749 -142 -4018 -331 l-1002 -83 -68 24 c-37 13 -96 37 -132 54 -70
31 -230 87 -251 87 -7 0 -55 -16 -106 -36 -63 -25 -91 -40 -85 -48 4 -6 36
-54 71 -105 72 -106 121 -205 153 -306 20 -65 22 -96 25 -400 2 -181 -5 -1638
-16 -3236 -15 -2126 -18 -2930 -10 -2995 22 -177 85 -315 186 -403 72 -64 135
-67 191 -10 48 49 80 162 97 341 l6 67 62 5 c34 3 658 28 1387 56 3147 119
3930 149 4016 155 l92 5 17 -52 c48 -147 193 -278 308 -278 153 0 285 293 303
675 3 70 -5 374 -20 730 -34 779 -44 1355 -52 2835 l-6 1195 31 590 c42 813
51 870 145 996 106 140 79 231 -116 391 -148 122 -222 174 -293 208 -89 42
-130 44 -260 10z m-172 -535 c83 -15 154 -28 158 -31 4 -2 16 -28 26 -57 17
-50 18 -172 15 -3192 -2 -1727 -6 -3142 -8 -3144 -2 -2 -106 -8 -231 -12 -307
-12 -3342 -122 -4378 -159 -456 -16 -874 -32 -927 -35 l-98 -5 0 3120 c0 2961
1 3120 18 3128 9 5 44 12 77 15 57 6 334 36 535 58 98 10 404 42 755 78 1082
112 2350 211 3090 241 647 26 784 26 968 -5z"/>
</g>
</svg>
