<?xml version="1.0" standalone="no"?>
<!DOCTYPE svg PUBLIC "-//W3C//DTD SVG 20010904//EN"
 "http://www.w3.org/TR/2001/REC-SVG-20010904/DTD/svg10.dtd">
<svg version="1.0" xmlns="http://www.w3.org/2000/svg"
 width="1024.000000pt" height="1024.000000pt" viewBox="0 0 1024.000000 1024.000000"
 preserveAspectRatio="xMidYMid meet">
<metadata>
Created by potrace 1.10, written by Peter Selinger 2001-2011
</metadata>
<g transform="translate(0.000000,1024.000000) scale(0.100000,-0.100000)"
fill="#000000" stroke="none">
<path d="M6269 10115 c-133 -39 -249 -112 -346 -220 -57 -63 -60 -70 -105
-218 -56 -181 -60 -210 -47 -301 10 -71 68 -196 125 -272 13 -17 24 -36 24
-42 0 -6 6 -15 13 -19 28 -17 48 -62 49 -110 0 -113 -31 -221 -141 -488 -59
-143 -113 -289 -120 -325 -10 -48 -34 -102 -93 -207 -66 -118 -81 -153 -88
-205 -4 -35 -18 -88 -30 -118 -19 -47 -22 -73 -21 -175 0 -66 6 -149 13 -185
6 -36 80 -322 164 -636 l153 -570 39 -330 39 -329 -58 -210 c-32 -115 -63
-221 -70 -235 -6 -14 -26 -101 -45 -195 -19 -93 -43 -204 -55 -245 -30 -111
-37 -328 -14 -494 10 -79 13 -131 8 -135 -6 -4 -5 -44 2 -106 30 -241 139
-518 305 -767 38 -58 70 -112 70 -121 0 -8 7 -20 16 -28 24 -20 102 -182 119
-246 8 -32 15 -82 15 -112 0 -58 -109 -682 -166 -946 -44 -208 -119 -434 -204
-616 -169 -363 -171 -514 -10 -628 l68 -48 149 -11 c81 -7 371 -32 643 -55
584 -51 670 -51 766 -2 68 35 104 81 104 133 0 42 -31 110 -63 139 -12 12
-164 83 -338 158 l-317 137 -112 113 -111 112 20 54 c111 304 195 554 201 599
5 38 3 63 -6 81 -12 24 -2 68 116 486 75 268 136 508 147 574 15 92 18 169 17
404 l-1 290 -61 329 -62 329 32 231 c48 357 41 604 -26 881 -101 416 -109 462
-103 595 7 162 67 508 120 690 l13 44 229 -210 c224 -205 241 -218 680 -524
349 -244 460 -316 495 -324 39 -8 51 -18 95 -75 66 -86 127 -124 210 -129 75
-5 99 6 116 53 14 39 16 40 56 24 15 -6 65 -17 111 -23 79 -12 84 -12 97 7 12
17 11 25 -7 61 -11 23 -29 53 -39 68 l-19 26 61 9 c76 10 89 26 70 80 -14 37
-13 37 23 67 31 26 36 37 36 72 0 34 -7 47 -45 87 -24 25 -57 49 -72 52 -15 4
-37 10 -48 14 -18 7 -17 9 11 24 20 10 34 28 41 51 10 33 9 37 -18 60 -36 31
-160 43 -270 27 -99 -14 -309 -22 -309 -11 0 19 -886 1140 -951 1203 -62 60
-208 167 -229 167 -4 0 -11 37 -15 82 -8 95 -33 167 -82 241 -19 28 -44 70
-55 92 -29 56 -230 268 -305 321 -66 48 -162 95 -230 113 -24 7 -43 15 -43 20
0 18 38 190 45 200 3 6 12 11 19 11 34 0 118 55 146 95 53 77 77 224 46 283
-8 15 -16 47 -17 72 l-4 44 65 13 c75 15 96 32 111 86 15 55 -3 112 -52 172
-21 26 -39 53 -39 60 0 7 -6 18 -14 24 -19 16 -29 219 -14 294 22 108 -28 248
-124 349 -67 69 -119 102 -210 132 -106 35 -198 38 -289 11z m274 -167 c72
-30 82 -38 121 -93 23 -33 54 -87 70 -119 l29 -59 -7 -182 c-6 -177 -6 -182
19 -245 14 -35 37 -77 52 -92 l27 -28 -48 0 c-40 0 -53 -5 -78 -30 l-30 -31 6
-92 c3 -51 9 -126 12 -168 6 -80 -1 -105 -45 -156 -17 -20 -29 -23 -99 -23
-66 0 -82 3 -97 20 -42 46 -125 10 -125 -54 0 -43 23 -70 84 -96 l43 -18 -19
-118 c-27 -166 -16 -204 63 -221 18 -5 99 -41 179 -82 134 -68 151 -80 230
-161 47 -48 102 -116 124 -151 l39 -64 -79 76 c-128 124 -275 209 -440 255
-53 14 -65 15 -90 3 -31 -15 -72 -85 -58 -98 5 -4 72 -27 149 -52 l140 -43
140 -141 c82 -81 163 -174 194 -220 79 -118 147 -185 187 -185 28 0 58 -23
218 -173 l185 -173 323 -425 c178 -233 341 -452 362 -485 l39 -60 121 -12
c190 -19 194 -20 198 -51 3 -23 9 -27 53 -34 208 -33 320 -71 372 -129 14 -16
14 -18 -2 -24 -10 -4 -27 -1 -38 5 -11 7 -49 24 -85 38 -36 13 -78 34 -93 47
-27 23 -119 43 -139 31 -16 -10 -11 -51 8 -68 9 -8 64 -38 122 -67 58 -28 119
-62 135 -75 l30 -25 -44 0 c-39 0 -221 46 -279 70 -30 13 -62 -3 -62 -31 0
-11 -11 -30 -25 -43 -30 -28 -31 -38 -6 -60 11 -10 17 -24 15 -31 -3 -7 18
-36 46 -65 27 -28 48 -56 45 -61 -13 -20 -54 -8 -83 24 -95 104 -152 170 -152
177 0 4 -226 160 -501 346 -360 242 -508 348 -525 374 -13 19 -66 68 -116 109
-61 49 -199 189 -398 405 -187 202 -363 381 -455 464 -82 74 -156 136 -163
139 -7 3 -24 -5 -38 -17 -50 -48 -44 -58 221 -348 222 -244 247 -268 272 -265
37 6 99 -36 95 -63 -27 -160 -39 -221 -47 -234 -5 -8 -21 -66 -36 -130 -16
-63 -37 -147 -48 -186 -63 -229 -49 -510 44 -869 70 -272 77 -339 69 -633 l-7
-252 -40 87 c-21 49 -47 110 -57 137 l-18 49 -22 -44 c-13 -24 -31 -57 -42
-72 l-20 -28 25 -87 c35 -125 203 -774 221 -857 9 -38 21 -106 28 -150 16
-103 16 -509 0 -548 -7 -16 -19 -85 -27 -155 -8 -70 -23 -156 -34 -192 -10
-36 -43 -148 -74 -250 -46 -156 -88 -325 -128 -515 -4 -22 -8 -74 -9 -115 0
-78 -14 -127 -138 -480 -22 -63 -46 -150 -53 -193 -13 -76 -12 -80 11 -125 13
-26 67 -89 122 -144 121 -118 235 -186 434 -258 83 -30 176 -73 237 -109 112
-66 113 -64 -28 -76 -38 -4 -91 -13 -116 -21 -35 -11 -57 -12 -90 -5 -24 6
-152 11 -284 11 -132 0 -269 5 -305 10 -36 5 -122 14 -192 19 -156 13 -232 31
-329 79 l-74 37 -3 75 c-5 127 31 262 105 390 17 30 36 75 43 100 6 25 18 56
27 69 13 21 73 260 245 981 103 434 82 567 -154 958 -187 310 -253 461 -262
596 -4 53 -44 278 -57 323 -6 18 -11 124 -11 235 -2 256 6 301 152 868 l110
426 -12 64 c-6 36 -17 70 -24 75 -7 6 -49 215 -99 500 -83 464 -91 500 -150
680 -65 196 -115 402 -136 562 -15 108 -6 174 36 275 14 34 44 133 66 218 34
130 49 168 91 238 58 96 114 236 162 401 19 65 40 131 48 147 20 38 44 148 59
256 l11 86 -47 109 c-26 59 -56 120 -66 135 -11 15 -34 57 -51 94 -26 55 -33
85 -36 152 -6 120 8 170 87 297 79 129 150 191 254 224 99 32 194 28 290 -11z
m2367 -3998 c-8 -5 -28 -9 -45 -9 -26 0 -27 2 -10 9 11 5 31 9 45 9 20 1 22
-1 10 -9z m-48 -443 c55 -25 116 -73 105 -83 -7 -7 -79 30 -140 73 -89 62 -85
63 35 10z"/>
<path d="M2508 10054 c-107 -16 -170 -45 -268 -123 -129 -102 -244 -268 -280
-401 -6 -25 -23 -85 -37 -135 -20 -72 -26 -120 -30 -242 l-5 -153 95 -152
c114 -181 142 -240 164 -342 15 -68 15 -89 4 -184 -8 -59 -17 -109 -21 -112
-7 -5 -51 -173 -70 -272 -6 -31 -20 -68 -30 -81 -11 -13 -65 -120 -120 -238
-97 -205 -102 -220 -127 -354 -24 -130 -25 -154 -20 -345 5 -210 27 -382 51
-410 7 -8 28 -76 46 -150 19 -74 44 -157 56 -185 14 -32 38 -147 68 -325 26
-151 51 -287 56 -302 8 -26 -14 -90 -46 -128 -20 -24 -320 -535 -327 -556 -3
-10 -26 -68 -51 -129 -35 -83 -48 -131 -55 -199 -10 -82 -8 -100 20 -235 17
-80 37 -157 44 -171 7 -14 29 -86 50 -160 20 -74 59 -200 86 -280 28 -80 120
-365 206 -635 131 -413 158 -510 174 -619 11 -71 16 -145 13 -165 -14 -81 -74
-320 -94 -376 -22 -61 -166 -565 -194 -679 -7 -26 -6 -28 9 -16 14 12 16 11
11 -11 -3 -13 -10 -44 -16 -69 -5 -25 -13 -93 -16 -151 l-7 -106 -68 -78 c-37
-43 -90 -117 -118 -163 -58 -97 -63 -134 -36 -262 18 -84 43 -137 92 -191 68
-75 165 -103 197 -58 l15 22 548 -27 c355 -17 560 -23 583 -17 58 15 173 71
210 104 44 38 59 64 60 103 0 58 -28 74 -382 205 l-331 124 -75 70 -75 69 7
89 c12 173 62 371 187 741 17 49 39 139 50 200 24 132 90 337 135 419 19 35
68 300 84 462 23 222 -1 568 -59 835 -12 52 -39 158 -61 235 -22 77 -40 146
-40 154 0 7 11 22 25 32 14 12 27 35 31 57 3 20 58 255 121 522 l115 485 9
370 c7 306 14 421 41 660 17 160 34 294 38 298 4 4 147 -112 318 -258 309
-264 313 -267 631 -470 177 -112 323 -200 326 -195 12 20 57 -12 200 -146 84
-78 166 -149 183 -158 73 -38 156 -28 168 19 7 30 4 29 119 5 57 -12 94 -15
100 -9 5 5 10 27 10 49 0 40 0 40 38 40 54 0 91 37 77 77 -6 15 -23 39 -38 52
-15 13 -22 20 -15 17 6 -3 43 -3 82 0 69 7 71 8 81 40 6 19 8 39 4 45 -9 15
-211 111 -296 141 -38 12 -68 25 -68 28 0 3 17 13 38 23 94 44 142 81 152 116
15 55 -12 102 -69 120 -44 14 -47 13 -225 -47 -100 -34 -209 -68 -243 -76
l-63 -14 -502 626 c-420 522 -545 670 -755 895 l-252 270 6 48 c5 46 3 52 -53
135 -69 103 -216 260 -303 324 l-61 45 2 62 c2 61 3 63 33 68 119 24 224 83
275 155 13 18 36 66 52 108 27 69 30 92 35 228 l6 151 60 17 c40 11 71 28 93
50 55 55 50 97 -38 269 l-73 142 -1 140 c-1 128 -3 144 -24 185 -16 29 -26 66
-28 110 l-5 65 -76 76 c-143 142 -321 196 -543 163z m203 -155 c103 -21 103
-21 195 -96 l92 -75 4 -130 c2 -79 7 -131 14 -136 6 -4 21 -58 33 -121 19
-100 41 -168 104 -312 l16 -37 -44 -6 c-58 -9 -107 -44 -122 -86 -7 -21 -11
-96 -11 -185 1 -148 1 -151 -30 -210 -46 -90 -91 -128 -190 -159 -46 -14 -105
-26 -132 -26 -46 0 -53 4 -110 57 -55 51 -64 55 -88 47 -35 -12 -49 -60 -33
-114 12 -42 20 -50 119 -111 l62 -38 0 -60 c0 -70 1 -71 165 -241 56 -58 110
-118 120 -134 l18 -29 -34 20 c-54 32 -206 113 -213 113 -8 0 -6 -109 2 -137
5 -15 52 -50 137 -104 242 -151 477 -358 625 -548 79 -101 1077 -1330 1125
-1385 40 -46 6 -50 350 43 143 39 267 70 275 68 8 -1 -67 -33 -167 -71 -164
-63 -183 -72 -192 -98 -10 -27 -9 -28 36 -40 45 -11 46 -12 25 -26 -24 -16
-28 -42 -10 -60 9 -9 6 -12 -13 -12 -18 0 -28 -8 -36 -29 -9 -26 -7 -32 16
-56 23 -24 24 -26 4 -16 -12 6 -25 16 -28 21 -9 14 -48 13 -63 -2 -22 -22 -12
-40 65 -119 59 -61 72 -79 56 -79 -12 0 -49 30 -95 78 -41 43 -114 111 -162
151 -49 42 -85 80 -82 87 3 8 -62 52 -177 120 -214 126 -320 196 -478 315
-134 101 -91 62 -881 802 l-608 568 -21 72 c-12 42 -29 79 -42 88 -19 16 -22
16 -49 -4 -40 -30 -42 -48 -18 -141 l22 -84 374 -382 c303 -310 373 -386 369
-403 -2 -12 -19 -170 -36 -352 -31 -317 -32 -338 -22 -515 14 -235 8 -307 -62
-690 -73 -398 -66 -366 -128 -585 l-54 -190 -45 138 c-25 76 -47 140 -50 142
-2 3 -30 -23 -60 -58 l-56 -63 99 -314 c110 -349 158 -560 185 -810 15 -138
15 -186 4 -430 -9 -215 -15 -279 -27 -292 -8 -9 -26 -61 -40 -115 -26 -103
-57 -204 -73 -238 -14 -28 -54 -167 -110 -380 -26 -99 -66 -232 -89 -295 -44
-121 -110 -431 -118 -551 -7 -106 8 -142 97 -234 78 -79 80 -81 239 -148 124
-53 197 -77 325 -107 90 -21 169 -41 175 -44 17 -11 13 -57 -6 -78 -21 -24 -5
-24 -725 9 l-607 27 -32 63 c-28 55 -31 70 -26 117 7 69 19 91 111 204 43 54
80 109 85 130 29 108 41 180 41 235 0 80 26 229 50 287 11 25 70 254 131 510
l111 465 -6 128 c-5 99 -12 144 -31 196 -14 38 -25 81 -25 96 0 15 -27 111
-60 212 -33 102 -60 190 -60 196 0 6 -27 83 -59 171 -33 89 -67 190 -75 226
-18 76 -234 787 -266 875 -33 90 -25 156 35 270 87 166 337 630 375 695 l38
65 6 157 c9 203 4 227 -140 774 l-117 439 -1 195 c-2 288 24 389 156 617 44
75 62 117 67 157 5 40 22 79 64 149 l57 95 30 189 31 188 -16 105 c-29 190
-82 322 -182 445 -78 96 -93 133 -93 226 0 65 6 98 34 177 18 53 39 124 47
157 10 46 31 87 92 178 84 125 132 174 209 213 95 48 160 53 309 23z m2229
-4374 c19 -7 28 -14 20 -14 -8 0 -28 6 -45 14 -39 17 -21 18 25 0z m145 -46
c17 -6 15 -8 -10 -8 -16 0 -39 7 -50 15 -19 15 -19 15 10 8 17 -4 39 -11 50
-15z"/>
<path d="M9512 1199 c-48 -10 -49 -16 -6 -28 43 -12 47 -10 42 16 -2 16 -8 18
-36 12z"/>
</g>
</svg>
