<?xml version="1.0" standalone="no"?>
<!DOCTYPE svg PUBLIC "-//W3C//DTD SVG 20010904//EN"
 "http://www.w3.org/TR/2001/REC-SVG-20010904/DTD/svg10.dtd">
<svg version="1.0" xmlns="http://www.w3.org/2000/svg"
 width="1024.000000pt" height="1024.000000pt" viewBox="0 0 1024.000000 1024.000000"
 preserveAspectRatio="xMidYMid meet">
<metadata>
Created by potrace 1.10, written by Peter Selinger 2001-2011
</metadata>
<g transform="translate(0.000000,1024.000000) scale(0.100000,-0.100000)"
fill="#000000" stroke="none">
<path d="M5175 9111 c-67 -24 -101 -42 -103 -53 -2 -9 14 -36 36 -60 22 -24
72 -101 112 -173 l73 -130 32 -285 31 -285 -22 -2315 c-15 -1625 -19 -2421
-13 -2670 23 -927 90 -1313 277 -1586 78 -115 212 -222 317 -254 22 -6 77 -28
123 -47 154 -64 340 -102 582 -118 150 -10 1717 88 1935 120 223 33 443 79
576 119 123 37 178 74 203 137 l17 41 -62 87 c-35 47 -93 118 -130 158 -76 80
-129 179 -153 283 -9 36 -29 256 -46 490 -28 387 -52 590 -70 590 -4 0 -19
-28 -33 -62 -17 -42 -44 -167 -82 -378 -56 -319 -142 -651 -187 -727 -10 -17
-48 -59 -84 -92 -86 -81 -228 -151 -390 -192 -113 -28 -150 -32 -759 -70 -758
-48 -943 -49 -1107 -6 -181 48 -307 136 -369 258 -117 232 -148 739 -149 2385
l0 861 103 33 c444 140 1416 610 1997 965 80 49 253 142 385 206 141 69 251
129 267 146 14 15 31 47 38 71 23 89 -41 168 -293 361 -174 132 -297 212 -373
241 l-55 20 -74 -22 -74 -22 45 -48 c131 -140 110 -243 -96 -476 -112 -127
-415 -383 -695 -587 -319 -233 -801 -531 -1107 -686 l-60 -30 6 103 c3 57 8
400 11 763 6 643 7 681 56 1455 27 437 55 859 63 937 15 150 13 170 -24 243
-43 83 -122 149 -275 227 -126 64 -258 115 -289 112 -6 -1 -56 -18 -111 -38z"/>
<path d="M1672 8440 c-111 -20 -160 -42 -179 -81 -12 -23 -6 -30 116 -154 71
-71 147 -158 170 -191 105 -157 170 -368 190 -621 11 -138 -3 -2271 -19 -2928
-19 -781 -43 -1386 -70 -1785 -36 -509 -52 -587 -155 -716 -79 -98 -109 -163
-102 -220 7 -66 167 -379 257 -501 34 -48 85 -79 103 -65 104 79 212 176 252
225 59 72 173 173 271 239 38 25 386 245 774 489 560 351 758 481 963 632 179
132 257 195 257 208 0 10 -4 19 -10 19 -5 0 -94 -37 -197 -81 -424 -184 -1830
-772 -1853 -776 -35 -6 -69 23 -79 67 -8 35 51 3355 59 3364 3 2 64 -7 135
-21 l130 -25 160 32 c88 17 459 94 825 170 554 116 684 146 780 182 128 48
178 87 198 156 23 75 19 82 -75 154 -79 60 -100 70 -206 102 l-117 35 -83 -35
c-45 -19 -145 -66 -222 -104 -200 -98 -452 -184 -745 -253 -134 -32 -761 -149
-767 -143 -3 3 8 396 26 873 24 664 37 907 53 1033 19 157 20 168 4 230 -20
79 -59 140 -134 213 -130 126 -298 229 -443 270 -89 25 -156 27 -267 7z"/>
</g>
</svg>
