<?xml version="1.0" standalone="no"?>
<!DOCTYPE svg PUBLIC "-//W3C//DTD SVG 20010904//EN"
 "http://www.w3.org/TR/2001/REC-SVG-20010904/DTD/svg10.dtd">
<svg version="1.0" xmlns="http://www.w3.org/2000/svg"
 width="1024.000000pt" height="1024.000000pt" viewBox="0 0 1024.000000 1024.000000"
 preserveAspectRatio="xMidYMid meet">
<metadata>
Created by potrace 1.10, written by Peter Selinger 2001-2011
</metadata>
<g transform="translate(0.000000,1024.000000) scale(0.100000,-0.100000)"
fill="#000000" stroke="none">
<path d="M4775 9246 c-63 -30 -126 -84 -167 -144 -18 -26 -320 -432 -673 -902
-649 -866 -754 -1014 -907 -1265 -170 -280 -251 -445 -366 -745 l-110 -285
-80 -395 c-118 -579 -149 -824 -158 -1265 -5 -236 -1 -350 50 -1225 46 -798
66 -1078 117 -1620 l62 -655 30 -33 c27 -27 38 -32 79 -32 60 0 106 36 114 90
3 19 -49 715 -117 1545 l-121 1510 11 320 c13 369 32 583 95 1070 59 459 89
598 182 850 81 220 190 422 424 783 118 183 218 332 222 332 3 0 9 -17 13 -38
3 -21 19 -53 36 -72 16 -19 53 -74 82 -122 29 -48 102 -145 164 -215 141 -162
457 -474 634 -625 74 -64 148 -135 164 -158 29 -42 176 -165 232 -193 16 -9
51 -21 76 -28 44 -11 49 -10 82 15 43 33 62 91 45 141 -13 38 -56 79 -110 104
-19 9 -39 21 -45 27 -5 7 -64 56 -130 111 -155 128 -194 163 -404 357 -177
164 -481 479 -481 498 0 6 -26 54 -59 107 -32 53 -62 114 -66 136 -9 53 -28
87 -65 119 -20 16 -29 31 -24 38 11 19 1077 1409 1148 1498 33 41 84 102 113
134 67 75 82 119 58 169 -13 29 -78 87 -96 87 -2 0 -26 -11 -54 -24z"/>
<path d="M8074 8927 c-22 -12 -131 -114 -241 -227 l-200 -205 -338 -470 c-186
-258 -401 -557 -478 -664 -263 -365 -616 -913 -798 -1238 -280 -499 -498
-1149 -573 -1713 -56 -412 -60 -1043 -10 -1545 15 -149 255 -1880 275 -1985
21 -104 67 -150 154 -150 46 0 85 24 85 53 0 8 -58 396 -130 863 -136 891
-162 1099 -181 1459 -14 270 -6 817 16 1035 37 371 102 748 176 1015 73 264
93 311 343 781 132 247 241 451 243 453 2 3 68 -59 146 -136 212 -212 384
-349 602 -484 50 -31 280 -174 512 -318 231 -143 428 -263 436 -266 18 -7 73
38 92 76 27 51 20 93 -24 132 -21 19 -49 38 -62 42 -13 4 -260 160 -549 346
l-525 339 -250 226 c-137 125 -251 230 -253 234 -3 8 679 1028 773 1155 243
331 595 747 773 915 164 154 174 182 97 257 -25 24 -51 43 -58 43 -6 -1 -30
-11 -53 -23z"/>
<path d="M10196 1021 c-18 -7 -16 -9 12 -19 29 -10 32 -9 32 9 0 20 -12 23
-44 10z"/>
</g>
</svg>
