<?xml version="1.0" standalone="no"?>
<!DOCTYPE svg PUBLIC "-//W3C//DTD SVG 20010904//EN"
 "http://www.w3.org/TR/2001/REC-SVG-20010904/DTD/svg10.dtd">
<svg version="1.0" xmlns="http://www.w3.org/2000/svg"
 width="1024.000000pt" height="1024.000000pt" viewBox="0 0 1024.000000 1024.000000"
 preserveAspectRatio="xMidYMid meet">
<metadata>
Created by potrace 1.10, written by Peter Selinger 2001-2011
</metadata>
<g transform="translate(0.000000,1024.000000) scale(0.100000,-0.100000)"
fill="#000000" stroke="none">
<path d="M7275 8789 c-264 -51 -640 -94 -2314 -264 l-1824 -185 -65 36 c-55
31 -98 44 -267 79 l-201 41 -57 -19 c-36 -12 -57 -24 -57 -34 0 -8 21 -36 48
-61 37 -37 65 -84 135 -227 84 -173 89 -187 127 -360 74 -338 132 -687 265
-1593 46 -319 71 -425 119 -506 36 -61 73 -86 130 -86 89 0 130 54 148 195 8
63 14 85 25 85 9 0 334 38 723 85 389 47 717 85 729 85 l21 0 0 -463 0 -463
-512 -52 c-694 -71 -781 -75 -1077 -51 -130 10 -237 19 -238 19 -8 0 -1 -42
17 -109 23 -86 -6 -59 239 -214 67 -42 128 -72 169 -83 62 -17 67 -17 181 5
64 12 352 55 641 96 289 41 537 77 553 79 l27 6 0 -415 0 -414 -52 -6 c-192
-21 -1962 -166 -2133 -174 -203 -9 -221 -8 -525 24 -173 19 -317 32 -319 29
-4 -4 18 -156 22 -160 159 -121 420 -289 517 -332 52 -23 62 -24 180 -18 69 4
347 40 625 81 l500 75 1855 124 c2051 137 1897 131 2427 95 168 -11 172 -11
217 10 34 17 48 31 56 57 12 35 12 35 -92 164 l-103 129 -143 62 -144 62 -91
-11 c-207 -26 -568 -55 -1433 -117 -501 -36 -919 -65 -928 -65 -14 0 -16 40
-16 425 l0 425 43 0 c116 0 1697 91 1727 100 47 13 89 58 96 101 4 31 -1 40
-71 112 -74 76 -79 79 -188 118 -133 48 -114 48 -517 -11 -146 -22 -429 -55
-630 -75 -201 -19 -386 -37 -412 -41 l-48 -6 0 461 0 461 23 4 c20 4 1328 107
1353 106 6 0 9 -12 6 -29 -9 -66 95 -219 179 -261 58 -30 132 -27 194 9 99 57
193 178 245 313 91 235 181 618 339 1445 50 261 89 365 201 538 21 33 39 71
39 86 2 73 -143 218 -314 311 -299 163 -327 176 -370 167z m-48 -440 c48 -23
80 -62 89 -107 5 -24 -72 -640 -81 -650 -2 -3 -1803 -142 -1837 -142 -17 0
-18 24 -18 354 l0 354 -52 46 -53 46 30 0 c17 1 410 30 875 65 521 39 876 62
925 59 52 -3 95 -12 122 -25z m-2376 -209 c45 -65 85 -169 99 -260 5 -36 10
-156 10 -267 l0 -201 -47 -6 c-52 -7 -1481 -144 -1548 -148 l-40 -3 -45 378
c-25 207 -46 377 -45 378 1 4 1535 187 1554 186 17 -2 35 -18 62 -57z m2306
-892 c-3 -13 -20 -95 -37 -183 -26 -129 -124 -511 -135 -523 -2 -3 -1554 -132
-1587 -132 -17 0 -18 24 -18 365 0 201 1 365 3 366 7 2 1689 127 1731 128 45
1 48 0 43 -21z m-2197 -513 c0 -201 -1 -365 -2 -365 -224 -28 -1514 -176
-1517 -174 -3 3 -90 748 -87 750 4 3 1520 152 1559 153 l47 1 0 -365z"/>
<path d="M5695 3190 c-16 -18 -12 -28 104 -259 67 -132 142 -292 167 -356 61
-156 126 -388 164 -581 55 -284 69 -320 144 -368 32 -21 52 -26 103 -26 36 0
76 6 92 14 43 23 87 79 110 141 30 80 46 246 31 336 -36 234 -200 491 -514
805 -161 160 -256 239 -372 307 -6 4 -19 -2 -29 -13z"/>
<path d="M7493 3108 l-21 -23 294 -315 293 -315 274 -425 c151 -234 285 -446
300 -471 14 -25 44 -62 66 -82 35 -32 48 -37 90 -37 102 0 162 82 182 248 19
163 -19 289 -139 457 -172 243 -594 582 -1087 873 -96 56 -210 112 -229 112
-1 0 -12 -10 -23 -22z"/>
<path d="M2463 3053 c-12 -38 -29 -103 -38 -147 -30 -141 -109 -300 -261 -526
-81 -121 -212 -277 -378 -449 -168 -174 -244 -273 -278 -363 -35 -94 -38 -135
-17 -228 17 -71 26 -91 57 -123 35 -36 39 -38 82 -32 170 26 361 163 546 394
216 269 353 627 384 998 7 91 5 144 -10 279 -18 155 -42 264 -59 264 -4 0 -17
-30 -28 -67z"/>
<path d="M3916 3074 c-11 -28 -6 -52 24 -128 99 -250 179 -655 210 -1056 25
-334 41 -403 102 -455 66 -56 215 -18 284 72 89 117 118 382 65 598 -34 139
-136 384 -207 496 -43 70 -132 189 -192 257 -55 63 -251 232 -270 232 -5 0
-13 -7 -16 -16z"/>
</g>
</svg>
