<?xml version="1.0" standalone="no"?>
<!DOCTYPE svg PUBLIC "-//W3C//DTD SVG 20010904//EN"
 "http://www.w3.org/TR/2001/REC-SVG-20010904/DTD/svg10.dtd">
<svg version="1.0" xmlns="http://www.w3.org/2000/svg"
 width="1024.000000pt" height="1024.000000pt" viewBox="0 0 1024.000000 1024.000000"
 preserveAspectRatio="xMidYMid meet">
<metadata>
Created by potrace 1.10, written by Peter Selinger 2001-2011
</metadata>
<g transform="translate(0.000000,1024.000000) scale(0.100000,-0.100000)"
fill="#000000" stroke="none">
<path d="M4910 9243 c-22 -8 -100 -85 -100 -99 0 -6 -13 -29 -29 -51 -16 -22
-32 -55 -36 -74 -4 -19 -29 -72 -55 -119 -128 -229 -642 -1234 -738 -1445
-160 -349 -201 -531 -189 -840 7 -183 27 -271 96 -410 104 -208 342 -425 620
-565 102 -51 346 -139 386 -140 46 -1 47 -10 14 -136 -52 -205 -183 -447 -345
-642 -62 -76 -811 -776 -944 -884 -180 -146 -401 -297 -610 -418 -135 -77
-399 -209 -486 -241 -56 -21 -100 -63 -110 -105 -9 -35 2 -93 22 -115 29 -32
76 -23 241 47 342 144 636 313 945 545 l116 87 13 -51 c15 -64 6 -439 -16
-640 -51 -473 -178 -964 -372 -1442 -102 -252 -159 -356 -254 -461 -20 -22
-42 -58 -49 -79 -23 -71 7 -165 53 -165 66 0 205 105 272 206 89 134 294 668
394 1027 181 649 206 803 205 1232 -1 143 -6 291 -11 329 -8 53 -7 80 4 117
12 41 12 52 -2 85 l-16 38 53 51 c762 740 734 711 861 885 165 227 144 210
185 148 19 -29 66 -83 104 -120 177 -173 827 -506 1331 -683 124 -44 113 -16
91 -235 -10 -108 -17 -400 -23 -1135 -6 -544 -12 -1118 -14 -1275 -3 -162 -1
-305 5 -331 13 -64 52 -100 115 -106 72 -7 79 5 92 162 28 341 34 646 28 1540
-6 831 -2 1044 19 1212 l5 41 122 -58 c173 -81 427 -180 602 -235 83 -25 188
-62 235 -81 132 -53 179 -44 218 44 22 50 19 77 -12 96 -11 8 -523 220 -1136
472 l-1115 458 -120 88 c-134 97 -488 359 -493 363 -2 2 9 42 23 89 22 69 26
100 23 160 l-3 74 140 5 c214 7 389 60 578 174 184 111 311 320 379 624 20 91
23 130 23 309 0 172 -4 223 -23 316 -26 133 -79 295 -132 409 -21 46 -41 103
-45 127 -4 24 -24 75 -45 113 -21 39 -115 214 -210 389 -95 176 -184 345 -198
375 -14 30 -80 139 -147 241 -67 102 -124 193 -128 203 -4 10 -63 99 -132 197
-90 129 -125 187 -125 208 0 63 -87 118 -150 95z m481 -1093 c251 -437 331
-586 405 -751 50 -113 94 -215 98 -226 7 -21 3 -21 -141 -26 -81 -2 -262 -18
-402 -35 -140 -18 -256 -30 -257 -29 -2 1 -10 196 -18 432 -9 237 -21 503 -27
592 -7 99 -9 238 -6 355 7 196 14 256 27 241 4 -4 148 -253 321 -553z m-584
342 c1 -102 65 -1253 77 -1387 l4 -51 -321 -28 c-236 -21 -353 -36 -437 -56
-63 -15 -116 -27 -117 -26 -1 1 12 57 28 126 22 92 42 150 78 220 27 52 135
273 239 490 104 218 201 413 215 433 17 25 232 393 232 397 0 0 1 -53 2 -118z
m1129 -1578 l62 -7 18 -81 c25 -112 24 -294 -4 -456 -17 -97 -33 -153 -74
-250 -50 -119 -57 -129 -133 -205 -93 -93 -160 -135 -282 -178 -81 -28 -101
-31 -244 -35 l-156 -4 10 71 c6 50 2 222 -13 572 -12 276 -19 504 -15 507 3 3
108 23 233 44 211 35 238 37 382 33 85 -3 183 -7 216 -11z m-1043 -191 c4 -54
7 -300 7 -546 l0 -449 -32 7 c-361 77 -762 388 -837 650 -9 31 -42 344 -37
351 1 1 23 -2 51 -6 45 -7 206 11 710 78 39 5 84 10 101 11 l31 1 6 -97z"/>
<path d="M5335 7607 c-60 -20 -96 -98 -70 -151 8 -16 15 -35 15 -42 0 -28 53
-74 105 -90 49 -16 56 -16 78 -1 30 20 77 97 84 140 10 69 -23 105 -124 136
-44 13 -65 15 -88 8z"/>
<path d="M4460 7478 c-30 -31 -31 -36 -26 -92 3 -32 6 -71 6 -86 0 -23 11 -35
64 -69 54 -36 70 -41 98 -36 62 12 109 126 77 188 -20 36 -137 127 -165 127
-13 0 -37 -14 -54 -32z"/>
<path d="M5445 6580 c-11 -4 -35 -24 -53 -43 -27 -27 -34 -45 -39 -89 -5 -51
-3 -57 24 -88 26 -29 37 -34 90 -38 72 -5 115 13 139 60 48 93 34 145 -48 183
-56 26 -80 29 -113 15z"/>
<path d="M4457 6462 c-33 -34 -37 -43 -37 -91 0 -57 23 -117 49 -130 9 -4 40
-6 69 -3 51 4 55 6 83 50 33 52 39 114 14 149 -22 31 -78 63 -112 63 -20 0
-40 -11 -66 -38z"/>
<path d="M6988 5253 c-17 -3 -34 -16 -46 -36 -17 -28 -21 -74 -36 -380 -17
-337 -17 -349 1 -380 22 -37 79 -63 118 -53 38 10 71 49 92 109 14 42 18 84
18 217 0 91 4 201 9 246 12 108 -8 177 -68 239 -23 25 -47 44 -52 44 -5 -1
-21 -4 -36 -6z"/>
<path d="M3149 4923 l-39 -38 -3 -398 -2 -398 37 -35 c35 -31 43 -34 101 -34
97 0 102 8 94 167 -19 362 -20 424 -7 512 16 114 4 167 -52 223 -49 49 -77 49
-129 1z"/>
<path d="M7153 2105 c-21 -9 -33 -22 -37 -42 -34 -154 -67 -699 -47 -785 17
-81 54 -112 129 -113 51 0 58 3 68 25 6 14 22 182 34 374 26 383 25 405 -28
479 -15 21 -40 47 -57 57 -26 16 -34 17 -62 5z"/>
<path d="M2575 1952 c-36 -26 -47 -59 -80 -243 -20 -107 -51 -273 -69 -369
-19 -96 -36 -188 -39 -203 -8 -47 12 -110 45 -144 69 -72 124 -65 163 19 32
72 71 210 80 283 4 33 20 139 36 237 43 262 38 312 -39 391 -35 36 -73 47 -97
29z"/>
</g>
</svg>
