<?xml version="1.0" standalone="no"?>
<!DOCTYPE svg PUBLIC "-//W3C//DTD SVG 20010904//EN"
 "http://www.w3.org/TR/2001/REC-SVG-20010904/DTD/svg10.dtd">
<svg version="1.0" xmlns="http://www.w3.org/2000/svg"
 width="1024.000000pt" height="1024.000000pt" viewBox="0 0 1024.000000 1024.000000"
 preserveAspectRatio="xMidYMid meet">
<metadata>
Created by potrace 1.10, written by Peter Selinger 2001-2011
</metadata>
<g transform="translate(0.000000,1024.000000) scale(0.100000,-0.100000)"
fill="#000000" stroke="none">
<path d="M3188 9640 c-86 -15 -163 -42 -238 -81 -91 -48 -90 -47 -168 -136
-101 -116 -125 -194 -77 -251 32 -38 107 -61 131 -41 27 22 44 71 33 92 -16
29 -2 49 80 115 56 44 103 72 162 95 80 30 90 31 229 32 l145 0 85 -41 c47
-22 112 -63 146 -91 59 -50 61 -53 93 -154 54 -176 62 -187 126 -175 39 8 52
32 65 127 9 65 8 73 -16 122 -100 200 -238 322 -419 372 -69 19 -305 29 -377
15z"/>
<path d="M5464 9471 c-77 -25 -153 -56 -169 -69 -52 -41 -72 -124 -37 -155 26
-24 98 -33 120 -15 28 24 93 46 167 58 39 6 79 14 90 17 16 5 13 -2 -12 -30
-57 -65 -52 -130 14 -192 50 -46 97 -28 118 45 4 14 25 44 46 67 87 95 58 237
-61 300 -62 33 -113 28 -276 -26z"/>
<path d="M4766 9450 c-153 -57 -282 -143 -387 -258 -89 -97 -108 -145 -72
-184 14 -15 14 -18 1 -18 -45 0 -402 -43 -452 -55 l-60 -13 -55 50 c-151 134
-336 198 -575 198 -212 0 -485 -99 -691 -250 -67 -49 -180 -178 -205 -232 -53
-118 -3 -206 131 -232 33 -6 39 -3 63 28 35 46 33 68 -11 117 l-38 42 60 54
c126 113 299 208 475 259 83 25 111 28 230 28 119 -1 145 -4 215 -27 44 -15
107 -42 140 -61 51 -29 57 -36 40 -42 -296 -107 -604 -331 -715 -519 -13 -22
-46 -71 -73 -109 -58 -78 -57 -73 -93 -376 -25 -215 -25 -216 -19 -769 l7
-554 -23 25 c-21 22 -39 28 -141 41 l-116 16 -123 -35 c-178 -51 -267 -102
-372 -212 -36 -39 -84 -75 -127 -98 -92 -48 -180 -141 -210 -221 -49 -129 -50
-257 -2 -323 29 -39 100 -71 152 -68 41 3 47 6 67 44 l23 41 -41 54 -41 54 7
75 c7 68 11 79 52 132 24 32 50 58 57 58 8 0 30 -7 49 -15 61 -25 74 -20 103
36 14 28 23 57 20 65 -7 19 78 101 147 142 107 65 187 86 332 88 72 2 133 3
138 4 4 0 16 14 26 31 l19 31 6 -83 c3 -46 15 -732 26 -1524 11 -792 28 -1771
36 -2175 11 -522 13 -919 8 -1371 -7 -683 -7 -690 43 -729 34 -26 113 -28 135
-2 54 61 56 569 10 4042 -23 1774 -35 2964 -30 3025 15 173 13 256 -6 300
l-17 39 41 56 c22 30 56 80 76 110 29 44 71 82 208 184 94 71 214 153 266 182
91 52 257 124 283 124 12 0 73 -128 65 -135 -2 -1 -86 -33 -188 -70 -154 -56
-221 -86 -400 -187 -118 -66 -223 -128 -234 -137 -32 -27 -42 -72 -42 -173 1
-97 1 -97 36 -133 40 -42 194 -119 340 -169 117 -41 289 -80 424 -97 120 -14
419 -7 556 15 52 8 160 19 240 25 80 6 160 14 178 17 l33 6 -20 -39 c-43 -82
-45 -175 -5 -280 11 -29 15 -64 12 -115 -4 -69 -12 -92 -142 -383 -80 -178
-141 -328 -144 -352 -6 -52 15 -89 63 -109 64 -27 68 -24 125 104 30 64 64
141 78 170 l24 54 35 -34 c18 -18 46 -53 60 -78 14 -25 27 -47 29 -48 1 -2 21
-1 43 3 44 7 58 24 72 85 13 58 -8 118 -60 169 -43 43 -81 107 -81 135 0 7 11
39 24 72 42 104 51 193 37 391 -7 97 -15 181 -17 187 -3 6 -22 24 -44 40 -22
16 -38 31 -37 33 2 1 46 14 98 27 52 14 139 43 194 65 120 49 159 85 150 141
-4 19 -15 47 -26 62 -10 15 -19 40 -19 55 0 38 -30 85 -77 119 -21 16 -47 40
-57 54 -31 40 -132 136 -197 185 -76 59 -211 131 -309 165 l-77 27 68 36 c37
20 73 37 80 37 8 0 70 -16 138 -37 l124 -37 85 -80 c106 -100 196 -216 292
-375 l73 -122 -12 -147 c-16 -209 -28 -7215 -12 -7265 18 -54 53 -80 114 -85
41 -3 56 0 67 12 9 12 21 115 40 354 l26 337 -7 1190 c-10 1601 -10 2494 1
2470 15 -36 84 -93 135 -111 29 -10 92 -19 151 -22 114 -5 176 9 278 60 l61
31 137 -6 137 -7 113 39 c157 53 318 122 485 207 170 87 262 145 324 205 75
73 72 121 -8 155 -64 28 -91 19 -198 -61 -220 -166 -461 -286 -700 -351 -49
-13 -93 -24 -97 -24 -5 0 -8 12 -8 26 0 18 -14 41 -44 70 -71 72 -121 60 -178
-44 -37 -68 -167 -122 -292 -122 -115 0 -128 5 -121 44 13 69 -32 126 -100
126 -41 0 -46 -3 -64 -37 l-19 -38 -6 85 c-10 151 -15 2531 -6 2615 6 44 15
137 20 207 11 122 10 128 -11 170 -12 23 -35 81 -50 126 -60 177 -292 429
-513 557 -27 16 -111 49 -187 75 -97 33 -149 57 -174 79 -44 38 -103 69 -174
90 l-53 16 73 76 c123 125 299 229 388 229 l45 0 -38 -39 c-37 -38 -38 -41
-31 -90 7 -55 39 -91 79 -91 35 0 112 61 145 115 52 85 40 191 -28 248 -66 55
-165 61 -285 17z m-371 -712 c20 -7 38 -17 38 -23 1 -5 -34 -37 -79 -71 l-80
-63 -134 -2 -134 -2 -24 59 c-13 32 -28 64 -33 70 -7 9 19 15 93 24 57 7 128
16 158 20 65 10 144 5 195 -12z m-255 -343 c0 -3 -15 -29 -34 -57 l-34 -50 -8
47 c-5 35 -3 49 7 56 15 9 69 12 69 4z m380 -70 c58 -25 155 -74 215 -108 88
-51 121 -77 164 -128 29 -35 76 -90 103 -122 43 -50 48 -61 37 -72 -8 -8 -171
-40 -384 -76 l-370 -64 -265 0 c-279 0 -388 12 -598 66 -167 43 -205 59 -244
101 -58 62 -53 73 68 151 58 37 113 67 122 67 8 0 25 8 36 19 20 17 416 174
423 167 2 -1 -4 -22 -12 -46 -18 -51 -15 -58 11 -29 19 21 19 21 34 -57 l16
-79 59 -8 c51 -6 62 -4 73 10 11 16 14 16 22 3 5 -8 7 -29 4 -46 -7 -39 13
-56 22 -19 3 14 7 25 9 25 1 0 22 -7 45 -15 23 -8 44 -15 45 -15 5 0 94 138
114 177 11 23 30 68 42 99 l21 56 41 -6 c23 -4 89 -27 147 -51z"/>
<path d="M6074 9117 c-99 -33 -182 -89 -322 -220 -39 -35 -43 -44 -38 -71 8
-41 47 -75 80 -69 14 3 44 23 68 45 24 22 81 58 127 81 l84 42 126 0 c152 0
173 -5 200 -48 24 -38 58 -57 105 -57 27 0 36 6 55 40 l22 39 -20 39 c-30 58
-103 127 -169 158 -49 24 -72 28 -167 31 -73 2 -124 -2 -151 -10z"/>
<path d="M6750 9070 c-72 -20 -120 -64 -141 -127 -10 -30 -9 -39 8 -62 11 -14
36 -30 57 -35 33 -9 46 -6 112 27 41 20 74 36 74 34 0 -2 -31 -29 -69 -61
-128 -106 -136 -200 -18 -213 40 -5 46 -3 66 26 28 38 116 91 153 91 15 0 35
9 45 19 23 25 157 74 303 111 l115 29 172 -19 c170 -18 173 -19 264 -66 179
-92 348 -237 475 -406 59 -80 81 -121 124 -229 l51 -132 -41 -42 c-51 -52 -64
-109 -32 -138 28 -26 88 -34 110 -14 13 12 81 20 297 37 154 12 294 23 310 26
23 3 62 39 177 163 158 171 233 229 356 280 121 50 290 78 307 51 3 -5 23 -10
45 -10 28 0 46 7 70 30 37 35 36 62 -6 118 -80 104 -241 103 -455 -3 -74 -37
-385 -249 -437 -298 -19 -18 -47 -54 -63 -82 l-29 -50 -187 0 c-104 0 -199 -4
-213 -8 -24 -7 -26 -4 -49 60 -35 104 -93 218 -162 323 -75 114 -270 313 -374
381 -188 125 -385 194 -580 205 -95 5 -112 3 -319 -45 l-219 -50 -31 26 c-45
38 -126 73 -166 72 -19 0 -64 -9 -100 -19z"/>
<path d="M1615 8623 c-154 -68 -314 -205 -394 -338 -41 -68 -140 -340 -148
-407 -8 -67 13 -132 54 -168 18 -17 41 -30 49 -30 12 0 14 -5 8 -17 -41 -95
-59 -298 -29 -323 8 -7 15 -16 15 -19 0 -4 -44 -37 -99 -74 -263 -179 -456
-431 -556 -729 -38 -115 -43 -173 -20 -219 17 -32 69 -69 97 -69 14 0 10 -10
-19 -47 -20 -27 -51 -80 -70 -120 -36 -77 -93 -295 -93 -353 1 -71 56 -151
117 -166 28 -7 28 -9 3 -44 -64 -90 -112 -234 -112 -335 -1 -66 29 -150 63
-181 26 -23 24 -34 -15 -112 -19 -37 -44 -101 -57 -142 -20 -65 -21 -81 -11
-128 7 -32 26 -74 47 -104 l37 -50 -38 -107 c-49 -140 -50 -190 -5 -262 23
-38 36 -74 42 -119 11 -80 34 -152 64 -205 28 -49 106 -123 163 -156 40 -23
42 -26 42 -71 0 -55 17 -72 105 -108 49 -20 72 -40 45 -40 -5 0 -27 -31 -50
-69 -33 -58 -40 -78 -40 -124 l0 -54 -74 -52 c-103 -73 -266 -259 -442 -501
-147 -204 -153 -213 -170 -292 -26 -117 -28 -136 -10 -163 19 -28 79 -44 101
-25 21 17 99 167 119 228 25 74 110 178 364 444 l217 228 61 0 c57 0 63 -2 93
-36 29 -31 37 -35 73 -32 40 3 42 5 58 53 19 56 12 99 -21 146 -20 28 -84 59
-123 59 -16 0 -26 7 -30 23 -8 32 17 54 264 226 l214 151 108 0 107 0 16 -29
c40 -77 155 -31 155 62 0 54 -48 115 -120 153 -26 14 -56 19 -120 18 l-85 0
-230 -125 -230 -126 -22 20 c-12 11 -44 22 -74 25 l-52 7 35 13 c70 25 88 123
33 178 -28 28 -64 31 -125 9 -23 -8 -68 -15 -100 -15 -56 0 -57 1 -91 47 -19
26 -38 53 -43 61 -12 21 20 87 76 155 52 62 57 80 32 115 -24 34 -68 52 -129
52 -30 0 -55 3 -55 8 0 34 67 174 109 229 28 36 51 75 51 87 0 49 -65 96 -134
96 l-36 0 27 73 c16 43 59 119 109 193 l83 120 -19 32 c-13 21 -39 41 -74 56
-64 28 -77 49 -84 131 -6 80 9 122 64 184 45 50 92 75 179 95 41 9 54 19 79
53 28 41 29 43 12 68 -26 39 -75 65 -124 65 -33 0 -59 -9 -104 -37 l-59 -37
-31 32 -32 31 33 148 c39 177 77 256 166 347 105 107 208 146 385 146 89 0
109 -3 130 -20 41 -32 90 -26 130 15 l34 35 -29 56 c-27 50 -37 60 -93 86 -70
34 -188 47 -257 30 -99 -25 -281 -106 -335 -148 -30 -24 -58 -40 -61 -36 -4 4
-12 23 -18 43 -11 34 -7 45 59 195 77 172 133 256 254 382 158 164 284 247
471 308 l140 46 128 -5 c70 -4 138 -3 150 2 25 10 87 69 87 84 0 24 -67 89
-118 114 -49 24 -68 28 -137 27 -76 -1 -87 -5 -240 -72 l-160 -71 -9 50 c-7
37 -5 56 4 75 8 13 70 88 138 165 l125 141 42 -7 c63 -9 89 1 108 41 33 67 19
124 -34 143 -92 32 -208 -12 -336 -127 -80 -72 -82 -73 -89 -49 -6 26 27 156
67 262 29 77 107 192 165 244 144 128 226 150 316 85 42 -31 53 -35 73 -26 13
6 26 20 30 31 6 20 7 20 43 -4 51 -34 92 -40 130 -21 40 21 73 63 65 84 -20
55 -97 112 -151 112 -36 0 -87 -23 -95 -42 -4 -9 -6 -8 -6 3 -1 20 -49 65 -84
78 -53 20 -147 13 -212 -16z"/>
<path d="M6039 7847 c-42 -20 -140 -110 -159 -147 -52 -103 -53 -268 -2 -373
40 -80 122 -164 214 -219 37 -22 71 -44 73 -48 3 -5 -11 -35 -31 -68 -45 -77
-84 -185 -84 -238 0 -84 73 -171 177 -210 26 -10 49 -18 50 -19 2 -1 -18 -23
-43 -50 -118 -127 -174 -262 -174 -418 0 -219 82 -358 263 -447 107 -53 173
-64 322 -56 385 21 846 128 1209 280 60 26 111 44 114 42 2 -3 -10 -44 -27
-91 -36 -101 -38 -139 -10 -199 53 -113 146 -177 271 -184 74 -4 77 -6 83 -31
3 -15 46 -74 96 -131 50 -56 87 -106 82 -110 -4 -3 -51 -19 -103 -34 -348
-101 -728 -349 -784 -512 -33 -96 -16 -191 49 -285 l33 -46 -52 -18 c-168 -59
-404 -202 -508 -307 -67 -69 -126 -179 -134 -253 l-6 -51 -132 -33 c-158 -40
-220 -64 -327 -128 -164 -97 -227 -208 -217 -377 11 -174 87 -262 262 -301 28
-6 27 -8 -88 -116 -100 -95 -124 -124 -173 -212 -50 -89 -58 -110 -60 -160
l-1 -57 -64 -47 c-164 -120 -329 -337 -332 -435 -1 -45 37 -89 89 -106 35 -10
36 -9 59 31 14 23 30 62 36 87 9 36 29 63 103 138 155 157 348 288 502 339 75
26 92 27 280 28 165 1 206 4 232 18 36 19 65 52 83 97 11 28 11 34 -7 58 -38
52 -63 57 -218 44 -77 -7 -174 -19 -215 -28 -86 -18 -266 -75 -325 -103 -22
-11 -42 -18 -44 -15 -10 10 80 127 156 201 97 95 187 157 305 213 153 71 343
108 473 92 39 -5 73 -8 77 -5 13 7 30 85 24 108 -9 34 -79 92 -128 106 -87 23
-144 8 -395 -105 -128 -58 -244 -112 -257 -121 -22 -15 -23 -15 -19 8 7 37
-19 77 -90 136 -64 55 -64 55 -70 117 -9 95 -1 111 89 177 103 76 182 114 272
129 65 11 82 10 150 -7 98 -24 298 -25 354 -1 36 16 78 58 78 81 0 24 -48 54
-162 100 -110 45 -118 49 -118 75 0 67 157 242 287 319 153 91 402 169 608
190 183 20 190 21 223 42 56 33 80 125 45 167 -17 19 -35 21 -273 30 -245 10
-255 11 -272 32 -43 54 -31 105 44 186 56 61 127 109 268 179 209 105 407 168
621 200 134 19 445 20 588 1 102 -14 103 -14 150 -59 54 -54 86 -68 135 -60
26 4 41 14 56 38 32 52 26 71 -47 145 l-68 68 -312 33 c-295 31 -312 34 -322
55 -10 22 -31 28 -310 90 -68 15 -74 19 -87 51 -28 65 -29 92 -4 118 12 13 23
38 23 56 2 29 -4 36 -45 62 l-48 30 -42 -28 c-42 -28 -43 -28 -114 -16 -114
19 -140 29 -152 57 -7 13 -12 35 -12 47 1 35 35 101 75 146 33 36 43 41 81 41
36 0 51 6 84 36 22 20 40 43 40 52 0 8 -16 34 -35 58 -19 23 -35 51 -35 63 0
11 -11 33 -24 48 l-24 28 -69 -24 c-37 -13 -74 -26 -82 -29 -26 -10 61 136
129 215 116 137 289 260 449 322 170 66 374 87 494 51 57 -17 77 -8 91 38 13
48 -26 118 -88 156 -42 27 -57 30 -127 31 l-79 0 6 50 c16 127 122 277 236
334 69 35 122 47 281 62 99 10 119 15 128 31 14 27 -23 101 -69 136 -110 84
-394 -8 -568 -183 -107 -108 -147 -182 -186 -346 l-33 -137 -55 -17 c-236 -74
-538 -298 -692 -515 -56 -79 -122 -209 -138 -270 l-11 -45 -337 -104 -337
-105 -380 -27 -380 -28 -41 21 c-31 16 -54 42 -92 101 -29 45 -52 92 -52 106
0 14 9 81 20 149 19 121 19 123 67 179 105 123 292 261 461 340 90 42 96 44
161 37 56 -5 74 -3 107 14 83 42 92 80 33 146 -38 44 -86 60 -160 53 -52 -4
-83 -18 -249 -112 l-191 -107 -102 12 c-86 11 -106 17 -130 39 -20 18 -26 32
-22 48 6 27 154 273 163 273 4 0 30 21 57 46 61 57 167 109 257 126 58 12 71
18 93 48 14 19 25 42 25 52 0 47 -62 98 -118 98 -41 0 -279 -110 -344 -159
-30 -22 -62 -41 -71 -41 -37 0 -128 43 -171 81 -61 54 -93 111 -112 200 l-15
72 38 39 c38 39 38 39 98 34 33 -4 65 -3 71 1 22 15 34 53 34 103 0 44 -5 56
-29 81 -26 26 -36 29 -88 28 -32 0 -69 -6 -84 -12z"/>
<path d="M3155 7110 c-55 -22 -108 -125 -109 -209 -1 -50 2 -56 37 -86 23 -20
37 -41 37 -56 1 -34 36 -109 68 -142 24 -25 27 -37 30 -110 3 -72 7 -85 30
-111 31 -32 79 -56 117 -56 24 0 25 -3 25 -53 0 -44 5 -59 31 -90 38 -46 96
-77 144 -77 19 0 35 -5 35 -10 0 -9 -66 -148 -75 -158 -1 -1 -22 7 -46 18 -62
28 -80 25 -131 -19 -43 -38 -108 -143 -108 -175 0 -8 -24 -42 -54 -76 -60 -67
-87 -118 -110 -207 -42 -161 -3 -271 113 -319 50 -21 70 -17 89 16 9 16 20 30
23 30 3 0 32 -9 64 -20 31 -11 61 -17 66 -14 5 3 18 23 29 45 17 31 18 43 9
60 -8 16 -8 28 0 46 6 13 11 33 11 44 0 15 5 18 24 13 30 -7 80 18 102 51 14
21 14 34 3 100 -14 88 -3 179 33 264 l22 53 41 -5 c22 -4 48 -9 56 -12 12 -4
23 10 43 57 28 63 28 64 20 222 -7 156 -7 159 -36 192 -16 18 -45 38 -64 44
-31 11 -35 15 -29 37 9 38 -13 91 -45 108 -45 23 -104 19 -138 -10 l-29 -25
-6 35 c-3 19 -15 48 -26 64 -12 16 -21 41 -21 56 0 15 -7 54 -15 87 -9 33 -15
68 -13 77 6 33 -42 115 -87 149 -44 33 -44 34 -30 62 24 46 18 58 -37 90 -57
32 -62 33 -93 20z m265 -1472 c0 -18 -2 -20 -9 -8 -6 8 -7 18 -5 22 9 14 14 9
14 -14z m-90 -142 c0 -2 -13 -33 -30 -68 -16 -34 -30 -69 -30 -76 0 -8 -6 -12
-12 -10 -18 6 -22 64 -7 115 11 40 14 43 45 43 19 0 34 -2 34 -4z"/>
<path d="M4839 5237 c-29 -20 -34 -29 -33 -62 1 -29 9 -45 28 -62 19 -16 26
-32 26 -57 0 -52 34 -87 92 -93 42 -5 50 -3 78 25 16 17 30 41 30 54 0 35 -36
88 -60 88 -18 0 -20 4 -15 33 5 27 1 40 -20 65 -33 39 -77 42 -126 9z"/>
<path d="M4852 4787 c-179 -167 -205 -199 -200 -249 2 -28 10 -36 44 -53 l42
-20 -24 -35 c-26 -37 -31 -89 -12 -108 8 -8 44 -12 98 -11 l85 0 108 154 c59
84 107 160 107 168 0 25 -39 65 -71 72 -26 6 -29 9 -18 19 8 7 32 18 55 24 31
9 44 20 57 47 22 46 22 88 0 107 -18 15 -77 38 -97 38 -6 0 -84 -69 -174 -153z"/>
<path d="M3160 4654 c-57 -32 -113 -85 -155 -147 -30 -44 -32 -52 -23 -85 15
-56 26 -64 70 -57 l40 7 -17 -32 c-33 -64 -16 -139 36 -155 16 -6 16 -10 -10
-53 -76 -130 -67 -208 30 -246 34 -14 39 -19 29 -31 -7 -8 -10 -26 -6 -40 8
-31 63 -95 83 -95 10 0 3 -16 -23 -52 -74 -104 -84 -121 -84 -152 0 -40 34
-96 59 -96 48 0 183 137 249 253 61 107 62 118 13 158 -23 18 -41 36 -41 39 0
4 18 30 41 59 46 57 45 72 -2 117 -38 36 -104 41 -139 9 -12 -11 10 30 50 92
52 81 70 118 65 132 -9 28 -53 61 -81 61 -13 0 -24 3 -24 6 0 3 16 33 35 65
19 33 35 64 35 68 0 5 -22 24 -50 42 -45 31 -49 37 -44 64 5 27 0 35 -35 63
-22 17 -43 32 -48 32 -4 0 -28 -12 -53 -26z"/>
<path d="M5003 4405 c-11 -8 -68 -80 -127 -160 -79 -108 -106 -152 -106 -175
0 -42 31 -70 78 -70 34 0 46 7 94 58 30 31 69 78 86 104 35 51 92 166 92 185
0 10 -77 73 -90 73 -3 0 -15 -7 -27 -15z"/>
<path d="M4195 3523 c-117 -60 -175 -133 -175 -218 0 -93 36 -107 143 -54 l62
31 -31 -33 c-16 -19 -76 -84 -132 -145 -109 -118 -117 -136 -87 -193 8 -16 22
-31 31 -35 25 -9 85 12 136 49 35 26 198 215 312 364 16 20 -70 94 -101 86
-26 -6 -26 -5 -13 30 12 33 -7 84 -46 120 -33 31 -37 30 -99 -2z"/>
<path d="M4250 2938 c-104 -63 -244 -167 -325 -240 l-59 -55 12 -41 c12 -39
52 -82 76 -82 7 0 30 9 51 20 38 18 37 16 -22 -38 -55 -50 -63 -63 -63 -93 0
-42 33 -79 71 -79 13 0 72 28 130 63 96 56 117 74 223 191 64 71 116 133 116
137 0 12 -76 69 -92 69 -8 0 -19 -5 -26 -12 -29 -29 -8 8 38 66 28 35 50 68
50 74 0 12 -73 72 -87 72 -5 0 -47 -23 -93 -52z"/>
<path d="M3208 2460 c-72 -74 -138 -202 -138 -267 0 -82 51 -154 96 -136 16 6
16 3 -4 -28 -36 -54 -55 -100 -60 -151 -6 -58 12 -89 60 -108 18 -7 34 -14 36
-16 2 -1 -28 -53 -67 -115 -39 -62 -74 -129 -77 -148 -9 -47 11 -81 63 -106
34 -16 41 -24 36 -40 -15 -51 -1 -108 40 -152 27 -30 48 -29 80 3 26 26 287
462 287 480 0 5 -19 24 -42 42 l-42 32 -79 -77 -79 -78 66 102 65 102 -20 49
c-23 54 -54 77 -93 70 -14 -3 -26 -2 -26 3 0 5 21 32 46 60 92 104 98 175 22
255 -42 44 -70 36 -109 -32 -17 -30 -33 -54 -35 -54 -3 0 8 24 24 53 142 250
141 248 99 295 -14 15 -32 22 -56 22 -30 0 -44 -9 -93 -60z"/>
<path d="M4265 2449 c-81 -42 -154 -99 -230 -182 -63 -67 -85 -115 -72 -151 8
-19 46 -44 85 -56 28 -7 37 -4 79 30 26 21 104 100 172 175 l125 138 -45 38
c-24 21 -46 38 -49 38 -3 1 -32 -13 -65 -30z"/>
<path d="M4193 2062 c-55 -41 -63 -51 -63 -80 0 -102 85 -136 162 -64 79 75
96 125 53 167 -37 38 -78 32 -152 -23z"/>
<path d="M4696 1758 c-70 -52 -158 -151 -202 -223 -20 -35 -22 -46 -13 -77 5
-20 23 -48 40 -62 25 -21 41 -26 89 -26 l58 0 48 78 c26 42 65 97 86 121 43
49 64 106 54 145 -7 30 -63 96 -80 96 -6 0 -42 -23 -80 -52z"/>
<path d="M3503 1528 c-11 -13 -36 -50 -54 -83 -18 -33 -45 -76 -60 -95 -36
-47 -51 -94 -39 -125 11 -29 35 -43 86 -50 l39 -5 89 142 c49 78 91 150 94
160 3 12 -10 26 -44 48 -57 36 -83 38 -111 8z"/>
<path d="M4775 1341 c-95 -54 -184 -168 -220 -280 -16 -49 -16 -56 -2 -86 18
-38 44 -50 79 -36 23 9 348 286 348 297 0 14 -32 62 -57 85 -21 20 -82 50 -97
49 -1 0 -23 -13 -51 -29z"/>
<path d="M4830 883 c-31 -12 -60 -48 -66 -82 -4 -20 -16 -47 -26 -61 -20 -28
-23 -58 -13 -135 13 -102 44 -135 124 -135 47 0 81 34 81 81 0 18 16 51 45 90
73 99 71 149 -7 212 -36 29 -104 44 -138 30z"/>
</g>
</svg>
