<?xml version="1.0" standalone="no"?>
<!DOCTYPE svg PUBLIC "-//W3C//DTD SVG 20010904//EN"
 "http://www.w3.org/TR/2001/REC-SVG-20010904/DTD/svg10.dtd">
<svg version="1.0" xmlns="http://www.w3.org/2000/svg"
 width="1024.000000pt" height="1024.000000pt" viewBox="0 0 1024.000000 1024.000000"
 preserveAspectRatio="xMidYMid meet">
<metadata>
Created by potrace 1.10, written by Peter Selinger 2001-2011
</metadata>
<g transform="translate(0.000000,1024.000000) scale(0.100000,-0.100000)"
fill="#000000" stroke="none">
<path d="M4599 9626 c-31 -12 -70 -33 -88 -45 l-32 -23 34 -41 c131 -161 198
-275 239 -409 21 -69 22 -94 26 -490 2 -289 0 -418 -7 -418 -6 0 -329 -31
-717 -70 -388 -38 -734 -70 -769 -70 -35 0 -166 9 -291 21 -264 23 -254 26
-254 -70 0 -54 1 -56 58 -111 57 -55 105 -84 339 -207 140 -73 220 -103 275
-103 21 0 335 56 697 125 362 69 662 125 665 125 3 0 6 -209 6 -464 l0 -464
-27 -6 c-16 -3 -388 -71 -828 -150 l-800 -145 -149 35 -149 35 -94 -42 c-51
-23 -93 -46 -93 -51 0 -4 19 -39 41 -76 88 -142 108 -180 142 -262 19 -47 42
-121 51 -165 44 -224 130 -831 201 -1425 97 -807 111 -883 179 -955 29 -31 39
-35 82 -35 65 1 122 28 167 80 45 53 64 110 78 225 5 49 11 90 12 90 1 1 88
16 192 33 105 18 371 63 593 100 l402 69 0 -602 0 -602 -658 -132 c-679 -135
-911 -171 -1117 -171 -49 1 -220 9 -380 19 -159 10 -292 17 -294 15 -2 -2 16
-52 40 -110 35 -85 54 -117 93 -156 66 -65 155 -122 247 -158 43 -16 92 -39
111 -50 51 -30 141 -58 206 -65 53 -6 69 -2 230 59 283 108 599 187 1397 350
66 13 121 23 123 21 2 -2 -8 -374 -23 -827 -34 -1050 -35 -1183 -12 -1266 10
-35 28 -87 41 -115 35 -79 136 -209 191 -245 119 -79 223 -16 269 164 38 149
39 188 45 1299 l6 1089 850 83 c468 45 918 87 1000 94 83 6 174 18 202 25 70
19 117 66 133 132 15 63 4 87 -72 158 -95 90 -132 108 -310 160 l-167 48 -803
-163 c-442 -89 -811 -164 -820 -167 -17 -5 -18 28 -18 600 0 570 1 606 18 606
9 0 325 36 702 79 l686 79 69 -19 c86 -24 117 -16 177 45 78 78 124 186 177
418 38 165 107 580 161 964 47 333 83 493 134 591 19 37 44 92 56 122 l21 53
-22 47 c-52 108 -389 395 -574 487 -123 61 -148 64 -238 26 -62 -27 -158 -46
-697 -137 -344 -59 -635 -109 -647 -112 l-23 -5 0 460 0 460 28 6 c15 3 329
46 697 96 811 110 948 138 1025 210 49 45 36 106 -35 168 -52 46 -77 56 -211
86 l-121 27 -669 -115 c-368 -64 -680 -119 -693 -122 l-23 -5 4 468 c5 448 6
472 28 556 l23 88 -24 25 c-34 37 -98 67 -219 104 -58 18 -173 56 -256 86 -83
30 -159 54 -170 54 -10 0 -44 -11 -75 -24z m1927 -2857 c131 -23 196 -95 196
-218 0 -63 -31 -473 -36 -478 -3 -3 -1363 -203 -1381 -203 -13 0 -15 52 -15
385 0 212 1 385 3 385 23 5 1121 138 1141 139 16 0 58 -4 92 -10z m-1746 -598
l0 -369 -262 -51 c-145 -28 -443 -87 -663 -131 -220 -43 -401 -77 -404 -75 -6
7 -80 699 -75 705 6 6 1350 287 1382 289 l22 1 0 -369z m1875 -623 c-7 -135
-91 -647 -115 -698 l-11 -25 -592 -74 c-326 -40 -604 -76 -619 -78 l-28 -5 0
421 0 421 23 1 c12 0 306 38 652 84 347 45 645 83 664 84 l34 1 -8 -132z
m-1875 -532 c0 -377 -1 -405 -17 -410 -48 -13 -1194 -209 -1198 -204 -7 7 -75
761 -69 767 3 3 1247 247 1277 250 4 1 7 -181 7 -403z"/>
</g>
</svg>
