<?xml version="1.0" standalone="no"?>
<!DOCTYPE svg PUBLIC "-//W3C//DTD SVG 20010904//EN"
 "http://www.w3.org/TR/2001/REC-SVG-20010904/DTD/svg10.dtd">
<svg version="1.0" xmlns="http://www.w3.org/2000/svg"
 width="1024.000000pt" height="1024.000000pt" viewBox="0 0 1024.000000 1024.000000"
 preserveAspectRatio="xMidYMid meet">
<metadata>
Created by potrace 1.10, written by Peter Selinger 2001-2011
</metadata>
<g transform="translate(0.000000,1024.000000) scale(0.100000,-0.100000)"
fill="#000000" stroke="none">
<path d="M3405 8684 c-56 -23 -73 -83 -81 -276 l-6 -168 -194 0 c-198 0 -792
-42 -838 -60 -56 -21 -74 -104 -34 -155 l22 -28 523 7 524 7 -3 -148 -3 -148
-150 -53 c-254 -89 -285 -103 -374 -163 -187 -124 -360 -355 -376 -499 -4 -36
-21 -117 -38 -180 -28 -105 -30 -129 -31 -280 -1 -138 3 -182 22 -268 27 -121
81 -281 123 -364 16 -31 29 -68 29 -80 0 -52 252 -351 385 -456 l40 -32 -90
-1 c-50 0 -429 -6 -843 -12 l-754 -12 -29 -33 c-41 -45 -41 -102 0 -143 l29
-29 434 -1 c238 -1 662 -5 942 -8 l508 -6 -138 -54 c-206 -79 -271 -119 -395
-241 -172 -170 -287 -329 -384 -532 -162 -338 -220 -712 -151 -973 76 -290
274 -541 533 -677 156 -82 234 -102 534 -134 l266 -28 6 -155 c4 -86 7 -182 7
-214 l0 -57 -634 7 c-721 7 -705 9 -749 -62 -23 -36 -27 -49 -20 -76 5 -18 20
-41 34 -51 24 -18 60 -20 697 -25 l672 -6 2 -550 3 -551 27 -7 c15 -4 66 -10
113 -14 l85 -7 0 564 0 565 697 6 698 6 27 31 c44 48 33 125 -20 150 -19 8
-219 13 -718 17 l-692 6 -6 51 c-3 28 -6 128 -6 223 l0 172 43 11 c164 43 369
130 502 213 268 166 487 432 589 715 163 454 77 801 -289 1168 -66 66 -150
142 -187 168 -71 50 -546 304 -613 327 -36 12 13 15 450 20 270 3 1193 10
2053 14 l1562 8 -1 -344 c-1 -189 -5 -478 -8 -641 l-6 -297 -625 329 c-344
181 -636 330 -650 330 -33 0 -42 -7 -74 -57 -15 -25 -26 -57 -26 -78 0 -33 5
-38 83 -89 122 -79 334 -199 476 -271 69 -35 153 -84 186 -109 69 -52 228
-134 330 -169 39 -13 120 -53 180 -89 99 -58 110 -67 113 -95 3 -26 -6 -40
-50 -85 -159 -160 -593 -447 -959 -633 -146 -74 -195 -104 -227 -139 -51 -55
-56 -98 -17 -144 42 -50 61 -48 208 14 277 118 621 322 920 547 70 53 127 91
127 84 0 -7 -5 -227 -10 -490 -8 -364 -14 -493 -26 -543 l-15 -66 26 -40 c34
-51 105 -86 141 -69 34 15 44 47 64 211 30 235 40 452 40 855 1 350 2 384 20
435 25 70 25 124 0 177 -19 42 -19 56 -4 705 8 365 17 686 20 715 l5 52 678 3
c744 3 700 -1 727 64 17 40 2 98 -29 119 -19 12 -130 16 -700 21 l-678 7 4
1101 c3 821 7 1128 17 1207 16 135 1 198 -64 267 -40 42 -45 44 -79 38 -42 -8
-52 -21 -84 -121 -22 -68 -23 -81 -24 -535 -1 -256 -4 -496 -8 -534 l-6 -68
-495 351 c-272 193 -515 371 -540 395 -73 72 -161 105 -221 85 -71 -24 -101
-76 -75 -128 10 -19 156 -129 438 -330 357 -254 738 -538 786 -585 32 -31
-195 -221 -528 -441 -292 -193 -633 -385 -685 -385 -47 -1 -110 -34 -170 -91
-45 -43 -55 -58 -55 -85 0 -44 49 -100 100 -115 35 -11 45 -9 92 14 29 14 67
29 83 33 17 4 90 35 163 70 111 53 209 115 595 380 254 174 474 329 490 342
l27 26 0 -447 0 -447 -937 0 c-516 0 -1352 3 -1858 6 l-920 7 223 221 c233
231 277 286 359 451 49 96 88 207 114 324 26 115 36 347 19 477 -15 123 -81
340 -127 418 -134 229 -348 395 -608 471 -118 35 -186 45 -327 52 l-128 6 0
114 0 113 68 0 c136 0 831 -30 955 -42 124 -11 129 -11 149 9 29 30 40 100 21
140 -8 17 -22 38 -31 46 -24 21 -558 65 -895 73 l-269 7 6 31 c4 17 9 76 13
132 7 120 -8 178 -63 243 -47 54 -62 61 -99 45z m507 -1173 c146 -38 204 -74
342 -208 136 -133 165 -177 224 -343 31 -88 62 -245 62 -312 l0 -38 -82 0
c-44 0 -140 -11 -212 -25 -115 -21 -642 -73 -650 -64 -2 2 -8 164 -15 359 -6
195 -14 424 -18 509 l-6 154 139 -6 c91 -3 165 -12 216 -26z m-567 -667 l7
-331 -167 -6 c-93 -4 -250 -7 -349 -7 -100 0 -198 -4 -218 -9 l-38 -9 0 82 c1
158 44 404 82 458 10 14 18 33 18 41 0 8 63 74 140 147 l141 133 182 68 182
67 6 -151 c4 -84 10 -301 14 -483z m1175 -478 c0 -14 -70 -168 -112 -246 -142
-266 -317 -455 -557 -599 -73 -44 -238 -117 -246 -109 -2 2 -5 197 -7 435 l-3
431 155 7 c86 3 282 23 440 44 286 39 330 44 330 37z m-1166 -173 c9 -111 7
-773 -2 -773 -25 0 -127 37 -194 71 -136 67 -261 178 -347 306 -63 93 -230
447 -218 460 2 1 37 -1 78 -6 47 -5 166 -4 324 4 138 6 273 13 301 13 l51 2 7
-77z m16 -1325 c0 -13 5 -263 10 -557 6 -294 8 -536 5 -539 -5 -5 -1068 -32
-1074 -26 -8 7 81 360 109 430 113 283 317 499 589 627 137 64 208 85 289 86
68 1 72 0 72 -21z m390 -75 c261 -96 547 -298 675 -478 60 -83 121 -213 145
-310 19 -73 32 -247 20 -258 -3 -3 -214 8 -470 24 -256 15 -480 28 -497 29
l-33 0 0 521 0 521 33 -7 c17 -4 75 -23 127 -42z m177 -1223 c245 -9 359 -21
584 -66 27 -5 27 -5 -99 -222 -69 -119 -138 -231 -155 -249 -105 -112 -368
-254 -576 -312 l-69 -19 -6 221 c-3 122 -7 320 -9 440 l-3 217 36 0 c19 0 153
-5 297 -10z m-543 -317 c3 -175 8 -373 10 -440 l4 -123 -97 0 c-207 0 -424 56
-644 166 -169 84 -276 201 -335 366 -22 61 -27 94 -30 205 l-4 133 184 3 c100
1 346 3 544 5 l362 2 6 -317z"/>
</g>
</svg>
