<?xml version="1.0" standalone="no"?>
<!DOCTYPE svg PUBLIC "-//W3C//DTD SVG 20010904//EN"
 "http://www.w3.org/TR/2001/REC-SVG-20010904/DTD/svg10.dtd">
<svg version="1.0" xmlns="http://www.w3.org/2000/svg"
 width="1024.000000pt" height="1024.000000pt" viewBox="0 0 1024.000000 1024.000000"
 preserveAspectRatio="xMidYMid meet">
<metadata>
Created by potrace 1.10, written by Peter Selinger 2001-2011
</metadata>
<g transform="translate(0.000000,1024.000000) scale(0.100000,-0.100000)"
fill="#000000" stroke="none">
<path d="M3407 8673 c-21 -3 -33 -16 -52 -52 -21 -43 -25 -66 -31 -226 l-7
-177 -221 3 c-200 3 -573 -19 -773 -46 -63 -9 -93 -42 -93 -104 0 -42 4 -53
27 -71 28 -22 30 -22 393 -16 201 4 434 9 518 12 l152 6 0 -150 c0 -133 -2
-151 -17 -157 -10 -4 -94 -34 -188 -67 -193 -68 -263 -101 -353 -165 -119 -85
-208 -185 -297 -333 -31 -52 -42 -85 -55 -165 -10 -55 -28 -136 -40 -180 -35
-123 -39 -363 -10 -505 24 -118 72 -270 123 -387 19 -43 38 -91 44 -108 24
-74 239 -327 367 -432 l49 -40 -539 -6 c-296 -4 -676 -10 -843 -14 -300 -6
-304 -6 -331 -30 -50 -42 -51 -129 -2 -161 24 -16 100 -17 976 -22 l950 -5
-139 -54 c-235 -90 -325 -148 -465 -299 -269 -292 -430 -620 -495 -1012 -25
-149 -17 -341 19 -465 102 -347 357 -616 696 -733 70 -24 131 -34 353 -58 147
-15 271 -31 276 -34 5 -3 12 -99 16 -214 l8 -209 -646 5 c-498 5 -655 3 -682
-6 -64 -22 -102 -105 -74 -158 25 -47 34 -48 739 -48 l660 0 2 -557 3 -558 99
-13 c54 -7 105 -11 112 -8 12 4 14 105 14 570 l0 566 701 2 701 3 24 28 c47
55 25 148 -38 161 -13 3 -331 7 -707 10 -376 3 -687 8 -690 12 -3 3 -8 103
-10 223 l-3 217 68 19 c204 53 434 164 596 285 268 201 440 467 525 807 36
143 38 335 5 456 -68 247 -255 503 -516 702 -74 56 -528 301 -629 339 l-58 22
2066 13 c1137 7 2068 11 2069 9 3 -3 -12 -1138 -16 -1230 l-3 -57 -630 332
c-470 248 -637 332 -657 329 -38 -6 -88 -79 -88 -130 0 -37 4 -42 58 -77 122
-82 294 -182 462 -269 96 -49 198 -107 225 -128 66 -50 222 -130 315 -162 40
-13 127 -55 192 -92 113 -65 118 -70 118 -101 0 -44 -66 -109 -241 -240 -255
-191 -484 -332 -776 -481 -244 -124 -294 -177 -250 -263 35 -70 61 -72 199
-14 306 129 706 370 1001 602 l67 54 -1 -113 c0 -62 -4 -286 -9 -498 -7 -303
-12 -397 -25 -444 -16 -58 -16 -58 9 -97 28 -42 95 -82 128 -77 43 6 60 48 79
200 32 255 40 423 39 837 0 381 1 410 20 464 25 70 26 142 2 188 -17 34 -18
62 -1 748 10 392 19 715 22 717 2 3 310 7 683 11 l679 6 27 28 c37 37 39 96 4
136 l-24 28 -687 3 -687 2 5 1083 c3 763 8 1122 17 1217 11 122 11 141 -4 193
-23 80 -87 146 -135 139 -39 -5 -55 -28 -83 -112 -20 -62 -21 -91 -27 -612
l-6 -548 -500 356 c-275 195 -525 379 -555 407 -109 102 -251 110 -290 17 -25
-61 -18 -68 439 -395 398 -286 799 -584 800 -595 3 -21 -110 -130 -225 -217
-330 -250 -914 -603 -998 -603 -38 0 -134 -55 -188 -108 -51 -48 -52 -94 -6
-141 57 -58 100 -64 172 -26 26 14 54 25 63 25 8 0 81 31 161 68 131 61 195
102 602 382 250 172 472 326 493 342 l37 30 0 -446 0 -446 -1876 0 -1876 0 49
39 c93 75 419 415 465 487 157 241 232 489 232 769 0 177 -13 268 -61 418 -44
141 -86 222 -170 327 -195 243 -523 390 -875 390 l-98 0 0 119 0 120 108 -6
c59 -2 296 -13 527 -24 231 -10 443 -22 471 -25 47 -5 53 -3 72 21 29 37 39
108 18 138 -41 58 -26 54 -322 82 -153 14 -412 30 -574 36 -162 5 -295 11
-296 12 -2 1 2 38 8 82 15 124 7 211 -28 274 -24 45 -81 105 -95 100 -2 -1
-16 -4 -32 -6z m504 -1181 c154 -41 197 -66 338 -199 120 -114 132 -129 174
-215 68 -141 117 -323 117 -439 l0 -49 -82 0 c-46 -1 -123 -9 -173 -20 -87
-18 -680 -78 -688 -69 -3 2 -10 164 -16 359 -6 195 -14 424 -18 509 l-6 154
139 -6 c91 -3 165 -12 215 -25z m-578 -229 c4 -109 10 -327 13 -484 l7 -286
-168 -6 c-93 -4 -250 -7 -349 -7 -100 0 -198 -5 -220 -9 l-39 -10 6 142 c6
159 35 315 72 392 13 28 25 55 27 60 2 6 65 69 141 140 l138 130 177 67 c97
37 180 67 183 67 3 1 9 -88 12 -196z m1187 -922 c0 -21 -73 -179 -121 -265
-78 -138 -154 -241 -254 -344 -103 -108 -193 -178 -319 -250 -79 -46 -212
-100 -221 -91 -2 2 -5 198 -7 435 l-3 431 175 8 c111 4 275 20 450 45 325 45
300 42 300 31z m-1167 -198 c4 -58 7 -252 7 -430 l0 -323 -27 6 c-67 15 -200
77 -277 128 -95 63 -189 159 -253 258 -70 109 -224 440 -211 454 3 2 38 0 79
-5 61 -7 335 0 650 18 l26 1 6 -107z m14 -1287 c4 -4 24 -1108 20 -1113 -3 -3
-1081 -32 -1084 -29 -8 7 92 387 117 446 141 331 381 554 730 677 80 28 104
33 154 28 33 -3 61 -7 63 -9z m428 -103 c236 -93 495 -275 620 -435 71 -91
140 -227 166 -327 22 -84 37 -265 23 -273 -5 -3 -218 7 -474 23 -256 16 -480
28 -497 29 l-33 0 0 524 0 525 53 -15 c28 -9 93 -32 142 -51z m145 -1213 c222
-8 292 -14 434 -40 93 -16 170 -31 172 -32 1 -2 -57 -105 -129 -229 -142 -243
-150 -253 -293 -350 -129 -87 -336 -179 -475 -213 l-27 -6 -6 213 c-3 116 -7
314 -9 440 l-3 227 36 0 c19 0 154 -5 300 -10z m-546 -317 c3 -175 8 -375 10
-445 l5 -128 -52 0 c-250 0 -567 91 -772 221 -189 119 -294 323 -295 576 l0
82 138 4 c75 1 322 4 548 5 l412 2 6 -317z"/>
</g>
</svg>
