<?xml version="1.0" standalone="no"?>
<!DOCTYPE svg PUBLIC "-//W3C//DTD SVG 20010904//EN"
 "http://www.w3.org/TR/2001/REC-SVG-20010904/DTD/svg10.dtd">
<svg version="1.0" xmlns="http://www.w3.org/2000/svg"
 width="1024.000000pt" height="1024.000000pt" viewBox="0 0 1024.000000 1024.000000"
 preserveAspectRatio="xMidYMid meet">
<metadata>
Created by potrace 1.10, written by Peter Selinger 2001-2011
</metadata>
<g transform="translate(0.000000,1024.000000) scale(0.100000,-0.100000)"
fill="#000000" stroke="none">
<path d="M6310 8823 c-8 -3 -92 -82 -186 -175 l-171 -170 -90 12 c-83 11 -98
11 -194 -10 -239 -51 -485 -149 -699 -278 -450 -271 -784 -742 -905 -1278
l-25 -111 19 -65 19 -65 -368 -368 c-273 -273 -375 -369 -393 -369 -33 -2 -94
-55 -98 -86 -3 -19 -281 -282 -1099 -1039 -1194 -1105 -1391 -1293 -1512
-1450 -80 -102 -81 -106 -111 -220 -24 -95 -28 -129 -23 -186 11 -143 48 -205
152 -256 62 -31 75 -33 163 -34 111 0 153 16 214 84 20 23 40 41 43 41 3 0
379 -212 834 -471 l829 -471 -35 -30 c-40 -35 -64 -77 -64 -110 0 -13 -10 -48
-21 -78 -15 -37 -21 -79 -22 -130 -1 -65 3 -83 28 -128 16 -29 47 -66 68 -82
53 -39 159 -74 227 -74 95 -1 125 22 345 269 191 213 200 222 309 290 86 53
237 176 635 515 288 245 529 447 536 450 21 8 211 185 258 240 41 48 63 59 83
41 24 -22 615 -205 1150 -355 325 -91 594 -166 598 -166 3 0 6 11 6 24 0 19
20 40 85 91 81 63 84 68 70 87 -13 20 -10 24 70 85 71 53 85 68 85 91 0 20 15
43 59 86 l59 59 27 -29 c14 -16 37 -51 49 -79 82 -176 253 -306 491 -373 485
-138 962 -42 1388 279 289 218 495 497 615 834 48 136 51 203 26 705 -27 541
-37 606 -119 786 -62 135 -117 206 -291 376 l-165 162 6 45 c3 25 12 425 20
888 l14 841 26 38 c23 34 25 44 20 113 -2 42 -6 90 -8 106 l-4 30 -734 262
c-404 145 -1020 364 -1369 488 -349 124 -642 230 -650 235 -92 57 -105 62
-138 50 -29 -10 -35 -9 -63 14 -31 26 -41 29 -69 19z m1460 -745 c674 -242
1228 -443 1232 -447 4 -3 -144 -162 -329 -353 l-336 -347 -43 30 c-50 34 -83
48 -144 59 -25 4 -84 20 -131 34 -119 36 -168 21 -169 -51 0 -29 241 -123 365
-142 l42 -6 -199 -212 -199 -212 -141 69 c-134 66 -142 68 -168 55 -15 -8 -30
-22 -34 -30 -15 -39 -6 -55 45 -83 28 -15 71 -42 95 -59 24 -18 55 -35 69 -39
14 -3 25 -10 25 -15 0 -5 -57 -69 -126 -143 l-126 -133 -55 -6 c-30 -3 -60
-11 -68 -17 -20 -17 -25 -63 -9 -81 12 -14 2 -28 -93 -125 l-108 -109 -31 32
c-40 41 -104 59 -156 44 -22 -7 -39 -19 -42 -31 -3 -11 -8 -28 -11 -38 -4 -15
10 -26 75 -56 l80 -38 -69 -77 c-67 -74 -139 -144 -112 -109 19 25 -1 70 -51
113 -75 63 -190 68 -217 9 -16 -36 -14 -47 12 -64 48 -31 203 -96 221 -92 15
3 -225 -266 -389 -436 l-32 -33 -379 115 c-208 64 -382 117 -386 119 -4 1 49
75 117 165 69 89 125 169 125 177 0 8 -11 22 -25 31 -44 29 -72 9 -213 -142
-72 -78 -142 -148 -155 -157 -21 -14 -37 -11 -215 37 -105 28 -191 54 -189 58
1 4 66 79 145 167 78 88 142 167 142 176 0 8 18 31 39 51 47 41 81 107 81 153
0 36 -31 70 -65 70 -26 0 -80 -49 -91 -82 -5 -14 -83 -110 -174 -212 -148
-167 -166 -191 -173 -233 -5 -26 -12 -51 -16 -55 -10 -10 -552 117 -771 179
-241 69 -726 238 -733 255 -1 2 405 395 903 873 498 477 955 918 1015 980 142
146 814 780 830 784 34 8 35 -16 45 -884 5 -472 10 -876 10 -897 0 -34 -3 -38
-22 -36 -37 3 -77 -12 -83 -31 -3 -10 -57 -68 -120 -128 -63 -60 -115 -114
-115 -120 0 -5 8 -20 18 -33 l19 -22 54 17 c72 24 129 59 195 118 l54 50 0
-111 0 -111 -24 15 c-15 10 -33 14 -49 10 -24 -7 -215 -202 -252 -259 -19 -28
-19 -28 6 -47 13 -11 34 -22 45 -25 54 -14 210 135 259 249 l14 32 1 -59 0
-58 -190 -198 c-165 -172 -190 -202 -190 -229 0 -30 39 -81 61 -81 26 0 68 38
184 166 89 100 131 140 135 129 4 -11 15 -2 40 32 47 62 126 116 162 111 28
-4 28 -4 28 47 l0 51 68 -33 c98 -49 279 -81 297 -54 3 5 17 -1 31 -14 49 -45
129 -68 239 -69 96 -1 100 0 112 24 15 31 -1 52 -70 86 -104 53 -244 68 -273
30 -10 -15 -14 -13 -31 17 -16 26 -36 39 -99 64 -100 39 -198 57 -240 44 l-32
-9 -7 220 c-4 120 -5 221 -3 224 3 2 26 -4 51 -15 64 -28 184 -51 260 -51 59
0 65 2 75 25 23 51 -1 66 -185 120 -93 27 -175 49 -184 49 -14 0 -17 29 -22
226 -17 591 -29 1410 -23 1453 6 40 10 47 24 42 9 -3 568 -205 1242 -447z
m-2080 137 c-14 -14 -136 -72 -282 -134 -271 -115 -341 -157 -543 -321 -163
-133 -341 -341 -441 -517 -60 -105 -56 -75 7 50 162 324 389 563 709 747 170
97 320 153 495 185 39 7 72 14 75 14 2 1 -7 -10 -20 -24z m-280 -289 c0 -2 -7
-9 -15 -16 -13 -11 -14 -10 -9 4 5 14 24 23 24 12z m-145 -132 c-60 -58 -164
-150 -230 -206 -66 -55 -187 -164 -270 -242 -82 -79 -168 -158 -189 -177 l-39
-34 54 100 c51 95 64 110 267 310 l214 210 147 72 c80 39 148 71 151 72 3 0
-44 -47 -105 -105z m3794 -644 c-4 -107 -8 -224 -8 -259 -1 -56 -3 -62 -18
-55 -36 15 -68 6 -98 -28 -34 -39 -196 -181 -179 -158 6 8 32 43 58 78 26 35
46 68 43 75 -3 7 -21 21 -40 32 l-35 19 -57 -39 c-74 -52 -121 -104 -136 -154
-14 -48 -9 -65 31 -89 l30 -19 -177 -159 c-98 -88 -212 -187 -253 -221 -41
-33 -108 -95 -149 -137 -40 -42 -78 -76 -85 -76 -36 0 -106 -110 -106 -166 0
-15 -13 -41 -30 -61 -16 -18 -30 -39 -30 -46 0 -7 -31 -28 -70 -46 -186 -86
-401 -283 -439 -403 -14 -41 -90 -132 -91 -107 0 17 -43 60 -77 78 -30 15 -56
3 -180 -86 -110 -80 -160 -129 -168 -168 -3 -14 -7 -35 -10 -48 -2 -12 -17
-30 -34 -40 -25 -15 -33 -15 -60 -4 l-30 13 179 179 c129 128 225 237 338 380
115 146 204 246 332 373 96 95 196 185 221 200 28 16 297 283 690 684 354 361
644 656 645 655 0 -1 -3 -90 -7 -197z m-4724 -137 c-4 -43 -14 -87 -22 -98
-14 -19 -14 -18 -9 10 3 17 11 60 17 98 6 37 13 67 16 67 3 0 2 -35 -2 -77z
m4715 -633 l0 -370 -25 12 c-20 9 -32 7 -71 -13 -59 -31 -84 -63 -84 -106 0
-24 -4 -34 -12 -30 -7 2 -92 15 -188 27 l-176 23 -202 -50 c-111 -28 -202 -49
-202 -46 0 19 38 57 165 163 79 68 147 132 151 143 8 25 88 100 224 208 123
98 276 243 357 340 31 38 58 69 60 69 2 0 3 -166 3 -370z m0 -519 c0 -13 26
-38 73 -72 105 -76 104 -77 -25 -13 l-118 58 28 23 c33 28 42 28 42 4z m-355
-211 c159 -12 220 -27 330 -83 219 -109 384 -288 478 -515 54 -133 89 -349
123 -770 l26 -334 -36 -113 c-20 -63 -50 -140 -67 -172 -17 -32 -42 -89 -55
-127 -13 -39 -32 -79 -42 -90 -11 -12 -70 -93 -132 -181 -122 -172 -125 -176
-243 -265 -141 -107 -297 -182 -472 -227 -92 -24 -122 -26 -364 -30 -304 -6
-355 2 -481 69 -118 63 -231 176 -251 253 -17 63 -33 96 -74 149 -127 167
-199 501 -198 916 1 289 43 585 103 716 16 36 54 100 85 144 55 77 85 142 85
184 1 23 93 96 240 186 132 82 189 122 238 165 43 38 54 42 261 92 136 32 231
50 256 48 22 -2 108 -9 190 -15z m-3885 -470 c718 -209 1316 -384 1329 -388
21 -7 -42 -63 -580 -517 -332 -280 -610 -509 -619 -509 -8 0 -68 18 -133 39
-111 37 -120 39 -145 24 -23 -12 -27 -21 -27 -58 l0 -44 93 -37 94 -38 -132
-111 -131 -111 -47 24 c-26 13 -233 81 -459 151 -322 100 -413 132 -413 145 0
9 -20 214 -45 455 -117 1147 -135 1331 -135 1349 0 14 5 17 23 12 12 -3 609
-176 1327 -386z m-1562 283 c11 -92 6 -113 -28 -113 -9 0 -38 -16 -63 -35 -25
-19 -48 -35 -50 -35 -3 0 -7 9 -10 20 -8 31 -38 24 -118 -28 -64 -42 -199
-172 -199 -192 0 -4 9 -15 21 -26 20 -18 21 -18 62 4 l42 23 -30 -26 c-16 -15
-167 -163 -335 -329 -373 -368 -433 -425 -398 -376 46 63 77 125 70 136 -4 7
-15 13 -25 15 -14 3 21 43 144 164 148 146 163 157 170 137 5 -12 20 -27 34
-34 25 -11 30 -7 110 72 65 65 85 91 85 112 0 35 -31 46 -68 23 -15 -10 106
116 268 279 162 163 298 296 301 296 3 0 11 -39 17 -87z m191 -1895 c1 -5 6
-8 12 -8 7 0 17 -6 23 -14 6 -8 90 -46 186 -85 96 -38 220 -90 274 -116 103
-48 316 -124 351 -125 15 -1 8 -12 -35 -50 -30 -27 -63 -50 -73 -50 -10 0 -21
-10 -26 -22 -9 -24 -203 -208 -218 -208 -5 0 -216 -179 -468 -399 l-458 -398
-89 53 c-49 30 -137 79 -196 110 -59 31 -412 235 -786 452 l-679 396 354 351
c195 192 651 643 1014 1000 l659 650 77 -765 c43 -421 78 -768 78 -772z m3657
1251 c-19 -68 -40 -158 -46 -199 -23 -157 -20 -147 -38 -124 -10 10 -27 28
-39 38 -21 18 -23 17 -91 -38 -38 -31 -73 -56 -77 -56 -5 0 -17 -7 -27 -17
-17 -15 -18 -14 -19 23 l-1 39 -9 -44 c-8 -41 -41 -91 -61 -91 -10 0 -10 56
-1 179 6 92 6 92 32 89 22 -2 27 1 29 23 4 35 33 60 90 80 40 13 48 21 57 52
9 32 24 45 120 105 61 38 111 68 113 67 2 -2 -13 -58 -32 -126z m-652 -115
c12 -5 16 -20 16 -59 l0 -53 -902 -793 c-497 -436 -952 -840 -1013 -898 -100
-97 -110 -104 -113 -81 -4 29 -28 50 -56 50 -12 -1 -37 -20 -59 -45 l-38 -45
26 -22 26 -23 -292 -250 c-161 -138 -298 -253 -305 -257 -8 -6 -11 -2 -7 11 3
13 -10 30 -44 59 -42 36 -46 43 -33 55 22 21 372 318 395 336 11 9 8 2 -7 -15
-22 -24 -28 -40 -28 -77 0 -41 3 -49 25 -59 21 -9 28 -8 45 7 11 10 20 23 20
29 0 6 12 42 26 80 25 63 26 70 11 81 -15 11 -10 19 43 69 48 46 64 55 83 51
20 -6 26 -2 31 21 20 77 233 289 333 330 21 9 58 33 83 53 412 340 425 350
312 228 -53 -56 -54 -59 -37 -77 10 -11 22 -20 28 -20 27 0 117 84 195 183
110 140 109 137 89 152 -14 10 -6 20 56 72 40 33 160 133 267 223 161 136 180
149 108 78 -49 -47 -88 -90 -88 -95 0 -6 9 -18 20 -28 36 -32 66 -12 248 170
150 149 173 177 162 190 -19 22 -27 20 -104 -36 -95 -69 -66 -41 160 148 104
88 209 184 233 212 42 50 54 57 85 45z m576 -500 c0 -153 -2 -175 -14 -164
-12 9 -31 -1 -103 -54 -55 -40 -92 -61 -97 -55 -17 15 -31 10 -48 -18 -17 -27
-17 -23 -18 133 l0 161 41 6 c49 6 161 78 204 130 17 20 31 36 33 36 1 1 2
-78 2 -175z m-5026 124 c-4 -7 -25 -39 -46 -70 -44 -66 -45 -73 -17 -88 16 -9
25 -8 42 6 12 9 -156 -159 -373 -374 -217 -216 -417 -407 -445 -426 -27 -19
-72 -62 -100 -95 -54 -66 -67 -69 -110 -25 -13 13 -29 24 -35 24 -6 0 -33 -21
-60 -46 -47 -43 -49 -48 -35 -67 8 -12 15 -30 15 -39 0 -10 11 -24 25 -30 14
-6 24 -16 22 -22 -2 -6 -14 -40 -26 -76 -30 -91 -31 -92 -80 -84 -58 9 -69 37
-47 122 13 50 14 71 6 104 -10 36 -9 43 7 59 25 26 1257 1137 1261 1138 2 1 0
-5 -4 -11z m4466 -138 l0 -70 -26 10 c-64 25 -118 -5 -112 -62 3 -28 10 -34
68 -59 35 -15 67 -35 71 -45 4 -11 8 -51 8 -90 l1 -72 -77 33 c-89 38 -207 65
-286 65 -62 0 -91 -18 -101 -62 -9 -39 13 -48 262 -99 l212 -44 0 -156 0 -156
-157 37 c-167 39 -202 39 -223 0 -22 -42 -12 -56 63 -90 77 -35 241 -80 289
-80 l29 0 -6 -202 c-7 -223 -10 -251 -28 -245 -7 2 -285 91 -619 198 -334 107
-608 197 -608 201 0 7 346 318 354 318 4 0 5 -5 3 -11 -3 -17 70 -65 127 -83
48 -16 151 -21 192 -10 12 3 27 17 33 31 10 21 9 29 -5 44 -26 28 -117 69
-191 84 -36 8 -67 15 -69 17 -4 5 778 666 789 667 4 1 7 -30 7 -69z m-580 47
c0 -2 -10 -12 -22 -23 l-23 -19 19 23 c18 21 26 27 26 19z m817 -159 c-2 -18
-4 -4 -4 32 0 36 2 50 4 33 2 -18 2 -48 0 -65z m348 -357 l11 -98 -61 -31
c-70 -37 -152 -106 -205 -173 -21 -27 -41 -45 -45 -41 -4 4 -5 -5 -3 -20 3
-16 2 -28 -3 -28 -4 0 -14 -3 -23 -6 -13 -5 -16 2 -16 39 0 24 -7 62 -16 82
-17 43 -15 117 7 175 16 45 60 80 113 92 24 5 83 33 132 62 49 30 91 52 94 49
2 -2 9 -48 15 -102z m85 -476 c0 -11 -24 -49 -52 -84 l-52 -64 -13 31 c-7 17
-23 38 -35 48 l-23 17 27 29 c15 16 32 45 39 65 10 32 9 38 -6 49 -22 16 -31
12 -122 -66 -61 -50 -73 -66 -73 -91 0 -18 6 -32 16 -36 13 -5 10 -11 -12 -34
-15 -16 -33 -29 -40 -29 -6 0 -19 -12 -29 -26 -9 -14 -25 -34 -36 -45 -19 -19
-19 -18 -19 81 l0 100 28 0 c22 0 33 9 54 45 15 25 34 45 43 45 28 0 150 67
206 113 l54 44 22 -86 c12 -47 23 -95 23 -106z m-6015 -174 c3 -6 18 -16 33
-23 48 -25 595 -339 647 -373 28 -17 244 -141 480 -275 237 -133 437 -250 445
-259 8 -9 54 -35 103 -58 48 -23 119 -63 157 -87 56 -37 70 -51 70 -71 0 -29
-8 -30 -94 -14 -50 9 -60 8 -77 -7 -15 -13 -24 -15 -42 -7 -47 22 -1743 1046
-1766 1067 -25 22 -51 74 -51 101 0 11 11 15 44 15 25 0 47 -4 51 -9z m5735
-189 c0 -4 -34 -38 -75 -75 l-75 -68 0 53 0 54 50 13 c27 7 52 17 56 22 6 11
44 12 44 1z m-3355 -787 c50 -30 51 -29 -34 -84 -45 -30 -95 -70 -111 -90 -57
-69 -85 -94 -157 -137 l-42 -25 -7 25 c-9 38 -49 42 -90 11 -48 -37 -48 -79 0
-102 33 -15 34 -17 19 -39 -8 -13 -24 -26 -34 -29 -11 -4 -41 -38 -66 -76
l-46 -69 -50 0 c-62 0 -87 19 -87 68 0 46 26 87 94 145 45 38 56 44 63 32 7
-12 20 -4 63 40 30 30 51 58 47 61 -10 10 12 34 32 34 16 1 121 92 121 107 1
4 58 55 128 112 l127 103 6 -38 c4 -21 14 -43 24 -49z"/>
<path d="M6888 8223 c-8 -10 -18 -30 -22 -45 -6 -25 -1 -29 97 -77 122 -61
259 -99 382 -108 97 -6 112 -1 117 46 3 21 -15 29 -256 112 -142 49 -268 89
-281 89 -12 0 -29 -8 -37 -17z"/>
<path d="M6563 8085 c-22 -9 -33 -22 -38 -45 -8 -38 0 -49 62 -82 64 -34 1569
-498 1748 -538 132 -30 140 -31 152 -14 7 10 13 23 13 30 0 17 -88 96 -141
127 -29 17 -268 91 -674 207 -533 153 -736 214 -1051 315 -33 10 -46 10 -71 0z"/>
<path d="M5251 7150 c-446 -434 -828 -801 -850 -814 -22 -14 -46 -36 -52 -48
-7 -13 -22 -29 -33 -37 -40 -28 -168 -156 -203 -203 -19 -27 -40 -48 -47 -48
-27 0 -106 -81 -117 -121 -11 -36 -10 -41 12 -65 18 -19 31 -24 60 -22 32 3
78 44 475 425 462 443 1647 1644 1652 1674 4 20 -34 49 -65 49 -16 0 -251
-224 -832 -790z"/>
<path d="M7782 7904 c-35 -24 -27 -41 26 -52 236 -50 252 -50 252 4 0 27 -6
29 -125 44 -49 6 -99 13 -111 15 -11 3 -30 -2 -42 -11z"/>
<path d="M6750 7682 c-8 -2 -20 -11 -27 -20 -18 -23 18 -67 72 -87 34 -14 55
-15 92 -9 44 8 48 11 51 41 3 30 1 33 -40 43 -24 6 -63 17 -88 24 -25 7 -52
11 -60 8z"/>
<path d="M8506 7641 c-14 -16 -15 -23 -5 -39 12 -20 148 -92 174 -92 18 0 38
37 31 55 -5 13 -155 95 -174 95 -5 0 -17 -9 -26 -19z"/>
<path d="M7224 7555 c-19 -19 -23 -31 -18 -52 4 -16 7 -29 8 -29 8 -9 148 -56
199 -68 93 -22 253 -22 261 0 10 27 7 71 -7 82 -13 11 -364 92 -399 92 -10 0
-30 -11 -44 -25z"/>
<path d="M6645 7425 c-50 -49 -33 -72 95 -125 105 -43 211 -70 307 -77 l82 -6
7 28 c4 15 3 39 -2 53 -8 22 -32 31 -219 88 -115 35 -218 64 -228 64 -10 0
-29 -11 -42 -25z"/>
<path d="M5913 7339 c-23 -11 -62 -42 -87 -69 -53 -57 -59 -91 -21 -116 24
-16 27 -15 65 11 55 38 130 120 130 143 0 16 -28 52 -41 52 -2 0 -23 -9 -46
-21z"/>
<path d="M8010 7337 c-14 -7 -26 -22 -28 -33 -3 -18 10 -24 105 -51 59 -16
113 -28 120 -26 16 6 26 38 18 62 -14 45 -158 77 -215 48z"/>
<path d="M6062 7188 c-289 -302 -272 -281 -272 -321 0 -37 19 -57 54 -57 22 0
244 169 297 227 57 60 93 116 120 185 l20 51 -28 23 c-15 13 -36 23 -46 24 -9
0 -74 -59 -145 -132z"/>
<path d="M8358 7304 c-5 -4 -8 -21 -8 -38 0 -27 7 -35 50 -59 40 -23 53 -26
70 -17 28 15 26 61 -4 89 -24 23 -95 39 -108 25z"/>
<path d="M7354 7246 c-23 -10 -33 -23 -37 -46 -4 -18 -5 -35 -2 -39 10 -18
135 -70 190 -81 85 -16 127 -11 142 19 16 33 4 52 -54 89 -86 54 -190 79 -239
58z"/>
<path d="M6763 7065 c-11 -8 -23 -28 -25 -44 -4 -27 0 -32 48 -56 71 -36 147
-55 221 -55 55 0 64 3 78 24 17 25 12 67 -9 85 -13 11 -237 61 -271 61 -11 0
-30 -7 -42 -15z"/>
<path d="M4845 6929 c-55 -45 -102 -83 -104 -85 -6 -5 30 -44 40 -44 5 0 53
32 109 71 76 53 100 76 100 93 0 23 -17 46 -34 46 -6 -1 -56 -37 -111 -81z"/>
<path d="M7484 6887 c-39 -34 -28 -73 34 -113 125 -82 250 -137 376 -165 54
-12 60 -11 72 6 30 40 19 49 -209 173 -122 67 -228 122 -234 122 -7 0 -24 -10
-39 -23z"/>
<path d="M5112 6665 c-174 -160 -225 -216 -210 -230 1 -1 19 -12 38 -23 l34
-21 201 197 c110 108 200 203 200 210 0 7 -14 22 -31 32 l-31 20 -201 -185z"/>
<path d="M7094 6686 c-34 -15 -52 -59 -34 -81 6 -7 39 -23 73 -36 50 -19 81
-24 160 -24 86 0 100 2 113 19 31 42 19 65 -51 98 -79 36 -208 49 -261 24z"/>
<path d="M5365 6475 c-37 -31 -77 -55 -89 -55 -39 0 -76 -37 -76 -74 0 -47 26
-66 89 -66 67 0 122 28 162 83 47 64 62 103 47 126 -10 16 -48 41 -62 41 -2 0
-34 -25 -71 -55z"/>
<path d="M6824 6385 c-20 -8 -35 -24 -42 -43 -19 -54 2 -62 173 -64 l149 -3
10 28 c17 46 -15 67 -115 78 -46 5 -98 10 -114 13 -17 2 -45 -2 -61 -9z"/>
<path d="M5534 6287 c-103 -86 -123 -107 -128 -137 -4 -27 -1 -39 16 -57 43
-46 64 -34 200 111 l127 133 -28 27 c-15 14 -36 26 -47 26 -10 0 -74 -46 -140
-103z"/>
<path d="M7289 6337 c-26 -17 -34 -30 -34 -52 0 -25 8 -32 69 -63 60 -31 78
-35 150 -36 l81 -1 9 39 c10 37 9 40 -31 76 -67 63 -180 80 -244 37z"/>
<path d="M5800 6133 c-8 -4 -59 -44 -112 -91 -111 -96 -120 -117 -64 -151 18
-12 43 -21 55 -21 13 0 56 28 99 65 42 36 82 65 89 65 18 0 53 50 53 76 0 41
-73 75 -120 57z"/>
<path d="M3910 6094 c-68 -38 -99 -73 -115 -128 -14 -47 -14 -52 3 -76 13 -17
31 -26 53 -28 34 -3 38 1 107 96 40 55 72 107 72 115 0 18 -37 47 -60 47 -8 0
-35 -12 -60 -26z"/>
<path d="M4950 6068 c-14 -5 -45 -34 -70 -63 -25 -29 -124 -126 -220 -216 -96
-89 -179 -171 -184 -181 -14 -27 23 -72 61 -76 60 -6 128 50 331 273 106 116
192 218 192 227 0 21 -37 48 -65 47 -11 0 -31 -5 -45 -11z"/>
<path d="M4328 5907 c-56 -46 -146 -169 -150 -206 -2 -16 6 -30 25 -44 l28
-22 43 23 c24 13 59 40 79 60 42 44 107 148 107 173 0 15 -55 59 -73 59 -4 0
-30 -19 -59 -43z"/>
<path d="M6661 5874 c-12 -15 -21 -38 -21 -51 0 -29 39 -70 75 -79 101 -25
147 89 55 136 -53 27 -84 26 -109 -6z"/>
<path d="M6410 5684 c-25 -14 -54 -33 -64 -42 -37 -33 -76 -95 -76 -122 0 -31
37 -70 66 -70 10 0 58 34 106 75 102 89 118 124 74 162 -34 29 -50 29 -106 -3z"/>
<path d="M5577 5628 c-9 -7 -48 -55 -87 -107 -61 -83 -70 -100 -70 -138 0 -65
42 -101 83 -70 20 14 177 266 177 283 0 15 -44 44 -68 44 -10 0 -26 -6 -35
-12z"/>
<path d="M6460 5343 c-83 -32 -176 -187 -124 -207 28 -11 84 -6 114 9 32 17
74 82 85 131 5 27 2 35 -21 53 -28 22 -30 23 -54 14z"/>
<path d="M6112 5296 c-65 -37 -124 -124 -102 -151 21 -26 76 -38 114 -25 44
14 116 91 116 125 0 44 -82 77 -128 51z"/>
<path d="M8240 6440 c-187 -130 -257 -206 -305 -334 l-19 -49 23 -19 c29 -22
46 -12 70 43 11 25 79 91 219 214 146 128 202 184 202 199 0 23 -17 46 -34 46
-6 0 -76 -45 -156 -100z"/>
<path d="M7594 5772 c-70 -47 -135 -105 -181 -161 -37 -45 -44 -60 -41 -90 2
-28 8 -38 30 -45 22 -8 32 -6 48 9 11 10 20 28 20 39 0 14 33 50 100 109 84
74 100 92 100 117 0 46 -28 54 -76 22z"/>
<path d="M8810 6454 c-25 -14 -66 -46 -92 -72 -60 -58 -64 -90 -13 -117 32
-18 36 -18 69 -2 46 21 110 80 138 125 l22 35 -34 29 c-19 15 -37 28 -40 28
-3 0 -25 -12 -50 -26z"/>
<path d="M8894 6242 c-22 -3 -214 -191 -214 -209 0 -9 140 -67 145 -61 1 2 39
52 83 112 45 60 82 112 82 115 0 13 -76 47 -96 43z"/>
<path d="M8202 5390 c-110 -31 -146 -46 -205 -86 -97 -67 -186 -151 -258 -247
-70 -93 -99 -148 -135 -254 -14 -43 -32 -89 -39 -103 -7 -14 -29 -85 -49 -157
-34 -127 -36 -139 -42 -360 -3 -136 -2 -258 4 -303 9 -67 44 -184 65 -218 5
-6 12 -43 16 -81 8 -77 8 -78 152 -252 86 -103 90 -106 186 -151 171 -81 252
-100 445 -105 126 -4 170 -9 179 -19 6 -8 27 -14 46 -14 29 0 36 5 48 33 12
29 22 35 112 65 96 31 102 35 290 187 165 133 203 169 272 259 l81 104 0 79
c0 43 9 114 19 158 39 163 46 230 46 420 l0 190 -36 115 c-20 63 -47 148 -59
189 -30 102 -85 204 -171 319 -59 78 -90 109 -163 162 l-91 65 -240 22 c-132
12 -262 22 -290 22 -27 -1 -110 -18 -183 -39z m342 -119 c15 -6 10 -14 -38
-50 -50 -39 -56 -47 -56 -81 0 -29 5 -39 24 -50 23 -12 29 -9 95 50 56 49 71
69 71 91 0 15 -6 30 -12 32 -7 3 34 3 92 0 58 -3 106 -7 107 -8 2 0 -86 -81
-195 -177 -108 -97 -198 -175 -200 -173 -3 3 -51 339 -52 363 0 13 130 16 164
3z m-285 -241 c10 -36 22 -98 26 -138 6 -71 6 -74 -14 -67 -26 8 -58 -9 -66
-36 -4 -11 -35 -41 -68 -66 -50 -36 -63 -52 -68 -79 -5 -30 -2 -38 24 -60 43
-36 69 -26 153 58 l72 70 6 -38 c3 -22 7 -83 8 -138 3 -97 2 -99 -24 -119
l-26 -19 -79 60 c-161 122 -400 256 -455 254 -28 -1 -39 20 -17 34 6 3 17 21
24 38 8 17 50 81 95 141 44 60 89 121 98 137 9 16 28 31 42 35 36 8 124 68
143 96 9 15 32 29 54 34 l38 9 7 -71 c4 -38 16 -99 27 -135z m727 138 c17 -18
42 -48 56 -66 l25 -34 -221 -167 c-122 -92 -223 -167 -224 -165 -2 1 12 31 32
67 32 56 34 66 21 77 -9 7 -25 10 -42 5 -31 -7 -91 -70 -100 -103 -7 -30 24
-65 53 -59 20 3 21 1 13 -27 -5 -17 -9 -32 -9 -33 0 -7 71 -43 87 -43 10 0 49
16 86 34 67 35 67 35 47 9 l-21 -27 25 -24 24 -25 35 22 c43 26 120 108 142
150 15 30 15 34 0 51 -15 16 -11 21 56 75 56 45 73 55 80 44 18 -28 50 -123
47 -140 -2 -9 -103 -91 -226 -182 l-222 -164 -48 24 c-42 21 -58 24 -143 21
l-97 -3 -6 95 c-4 52 -9 128 -13 168 -5 63 -4 72 11 72 9 0 117 67 241 150
210 141 225 152 236 190 7 22 15 40 19 40 3 0 20 -15 36 -32z m278 -555 c37
-184 37 -204 2 -487 -19 -147 -36 -269 -38 -271 -2 -2 -97 55 -211 128 l-208
132 7 55 c3 30 6 80 5 110 l-1 55 213 152 c116 83 215 152 219 152 3 1 9 -11
12 -26z m-1474 -69 c31 -7 118 -61 119 -75 1 -3 -65 -50 -145 -103 -94 -63
-144 -91 -140 -79 3 10 17 81 31 158 34 183 29 174 68 137 18 -17 48 -35 67
-38z m323 -190 l98 -57 -5 -46 c-3 -25 -8 -77 -12 -116 l-6 -70 -86 -52 c-48
-28 -116 -73 -152 -100 -36 -26 -87 -61 -115 -77 -27 -17 -76 -55 -107 -87
-31 -31 -60 -54 -63 -51 -3 3 -5 23 -5 44 0 22 -11 61 -26 90 -22 44 -26 65
-27 151 l-2 100 55 29 c33 18 110 82 195 163 77 74 144 134 149 135 5 0 54
-25 109 -56z m534 -25 c15 -6 36 -17 45 -26 15 -13 15 -19 3 -52 -7 -20 -16
-47 -19 -61 -9 -41 -60 -94 -117 -122 -67 -32 -116 -42 -172 -34 -40 6 -44 9
-54 49 -11 43 -2 141 17 177 5 10 27 20 49 24 22 3 57 17 77 31 41 28 119 34
171 14z m157 -385 c50 -25 100 -56 111 -68 12 -12 79 -55 150 -95 72 -40 132
-76 135 -78 3 -3 -62 -70 -145 -150 l-150 -145 -144 -69 c-79 -38 -145 -68
-147 -66 -11 10 -54 631 -45 640 14 14 124 76 135 77 6 0 51 -21 100 -46z
m-465 -31 c55 -13 75 -22 81 -38 10 -24 55 -633 47 -641 -2 -3 -121 11 -263
32 l-257 37 -74 62 c-55 45 -87 83 -123 143 l-49 82 32 14 c18 8 140 85 272
170 132 85 245 155 250 156 6 0 43 -7 84 -17z"/>
<path d="M8083 5039 c-12 -4 -60 -59 -107 -121 -89 -118 -93 -133 -45 -159 60
-32 199 91 230 204 9 33 8 41 -8 53 -34 27 -48 32 -70 23z"/>
<path d="M7970 4177 c-102 -42 -195 -121 -237 -201 -15 -29 -14 -31 11 -53 32
-28 43 -28 78 -5 45 29 257 216 257 228 1 10 -40 54 -50 54 -2 0 -29 -11 -59
-23z"/>
<path d="M8455 4263 c-37 -9 -47 -25 -42 -66 8 -55 31 -77 83 -77 49 0 64 17
64 72 0 60 -40 87 -105 71z"/>
<path d="M3732 5243 c-26 -24 -36 -67 -18 -82 49 -41 654 -209 886 -246 24 -4
60 -18 80 -31 27 -18 59 -25 139 -33 161 -17 179 -15 193 14 25 56 14 60 -637
234 -330 89 -605 161 -611 161 -7 0 -21 -8 -32 -17z"/>
<path d="M3650 4911 c-29 -8 -56 -51 -47 -75 18 -47 218 -102 332 -92 74 7 95
20 95 62 0 18 -13 28 -72 52 -70 29 -216 63 -262 61 -11 -1 -32 -4 -46 -8z"/>
<path d="M4357 4728 c-9 -7 -20 -27 -23 -45 -5 -25 -2 -33 16 -43 12 -6 175
-54 362 -106 187 -51 346 -98 352 -103 6 -5 112 -28 236 -51 213 -40 225 -41
237 -24 20 27 16 48 -17 79 -27 26 -85 43 -562 167 -293 75 -545 138 -559 138
-14 0 -33 -6 -42 -12z"/>
<path d="M3683 4475 c-33 -14 -54 -58 -37 -75 19 -18 183 -82 295 -115 134
-39 257 -62 376 -71 82 -7 82 -7 94 20 21 45 -13 68 -175 120 -124 40 -407
115 -491 129 -16 3 -44 -1 -62 -8z"/>
<path d="M4685 4240 c-26 -10 -40 -28 -48 -58 -5 -22 2 -27 68 -58 97 -45 261
-84 351 -84 67 0 71 2 83 26 15 33 4 47 -63 81 -72 36 -175 70 -269 88 -89 17
-94 17 -122 5z"/>
<path d="M3752 4010 c-12 -12 -22 -32 -22 -45 0 -20 9 -27 56 -45 170 -63 399
-119 558 -135 76 -8 86 -3 86 50 0 55 7 52 -229 106 -97 23 -223 52 -280 65
-126 29 -141 30 -169 4z"/>
<path d="M4582 3110 c-58 -39 -122 -110 -122 -135 0 -7 8 -19 19 -29 26 -23
53 -11 139 64 58 50 72 67 72 91 0 18 -7 32 -19 39 -26 13 -21 15 -89 -30z"/>
<path d="M1523 3883 c-132 -113 -145 -136 -98 -167 13 -9 26 -16 28 -16 20 0
227 244 227 268 0 8 -23 23 -33 22 -1 0 -57 -48 -124 -107z"/>
<path d="M1290 3642 c-8 -2 -44 -37 -79 -78 -62 -72 -63 -75 -46 -94 10 -11
21 -20 25 -20 9 0 150 164 150 173 0 11 -34 24 -50 19z"/>
<path d="M770 3050 c-6 -11 -8 -20 -6 -20 3 0 10 9 16 20 6 11 8 20 6 20 -3 0
-10 -9 -16 -20z"/>
<path d="M5515 3323 c-33 -8 -55 -34 -55 -65 0 -26 7 -32 57 -54 122 -54 413
-124 514 -124 38 0 59 19 59 52 0 17 -90 66 -194 108 -124 49 -335 95 -381 83z"/>
<path d="M6190 3202 c-19 -16 -21 -22 -11 -40 28 -53 128 -65 172 -21 41 41
19 61 -82 73 -46 5 -61 3 -79 -12z"/>
<path d="M6230 3002 l-22 -18 26 -31 c50 -60 153 -85 176 -43 6 11 8 25 4 31
-6 10 -144 79 -157 79 -3 0 -15 -8 -27 -18z"/>
<path d="M6859 3693 c-19 -21 -47 -46 -62 -56 -36 -24 -37 -68 -2 -91 24 -16
26 -15 92 47 65 62 67 65 57 98 -14 48 -41 48 -85 2z"/>
<path d="M4985 2700 c-3 -5 -2 -10 4 -10 5 0 13 5 16 10 3 6 2 10 -4 10 -5 0
-13 -4 -16 -10z"/>
</g>
</svg>
