<?xml version="1.0" standalone="no"?>
<!DOCTYPE svg PUBLIC "-//W3C//DTD SVG 20010904//EN"
 "http://www.w3.org/TR/2001/REC-SVG-20010904/DTD/svg10.dtd">
<svg version="1.0" xmlns="http://www.w3.org/2000/svg"
 width="1024.000000pt" height="1024.000000pt" viewBox="0 0 1024.000000 1024.000000"
 preserveAspectRatio="xMidYMid meet">
<metadata>
Created by potrace 1.10, written by Peter Selinger 2001-2011
</metadata>
<g transform="translate(0.000000,1024.000000) scale(0.100000,-0.100000)"
fill="#000000" stroke="none">
<path d="M6131 8636 l-176 -174 -80 13 c-68 11 -92 11 -160 -2 -402 -74 -824
-292 -1102 -570 -261 -261 -439 -578 -534 -953 -33 -131 -35 -165 -14 -235
l15 -50 -370 -370 c-285 -285 -376 -370 -396 -372 -32 -1 -92 -57 -96 -89 -2
-15 -333 -328 -1053 -994 -1214 -1123 -1458 -1356 -1560 -1490 -90 -120 -87
-113 -119 -246 -30 -129 -31 -152 -10 -244 21 -95 56 -140 140 -181 62 -31 75
-33 163 -34 122 0 182 27 241 111 15 21 31 12 845 -452 456 -260 831 -477 833
-482 1 -5 -9 -17 -23 -26 -33 -22 -65 -74 -65 -106 0 -14 -10 -50 -22 -80 -29
-74 -31 -200 -4 -250 54 -102 175 -170 305 -170 97 0 121 19 345 269 198 221
206 228 311 291 86 52 214 156 633 513 289 247 535 452 547 457 11 4 84 71
162 149 78 78 148 141 155 141 8 0 18 -4 24 -9 26 -25 616 -208 1141 -355 325
-91 596 -166 601 -166 5 0 12 12 15 28 4 19 28 44 82 85 69 54 76 61 70 87 -6
25 1 32 79 91 73 54 86 67 86 92 0 21 14 43 55 85 l55 57 26 -30 c13 -16 41
-61 62 -100 64 -120 214 -259 336 -309 75 -31 242 -75 351 -92 156 -24 399
-15 545 19 305 72 566 218 809 452 204 197 338 399 436 660 62 165 65 212 39
710 -12 237 -28 468 -34 515 -15 114 -69 274 -132 390 -47 87 -68 111 -229
270 l-178 175 5 130 c3 72 11 472 18 891 l12 760 24 35 c21 28 25 47 26 109 1
41 -3 84 -9 95 -6 11 -10 27 -9 36 2 12 -11 22 -40 32 -24 8 -621 222 -1328
475 -707 253 -1310 467 -1340 477 -30 10 -68 28 -85 40 -54 40 -70 46 -104 34
-26 -9 -35 -7 -60 10 -59 42 -70 36 -260 -153z m645 -212 c131 -47 367 -132
524 -189 157 -56 608 -218 1003 -360 394 -142 717 -262 717 -266 0 -14 -663
-689 -676 -689 -7 0 -16 5 -19 10 -12 20 -106 60 -153 67 -26 3 -51 9 -57 13
-5 4 -45 18 -88 30 -108 30 -146 20 -160 -41 -6 -24 -2 -28 81 -67 102 -47
165 -68 256 -85 l67 -12 -117 -125 c-65 -69 -155 -164 -200 -212 l-83 -86
-139 68 c-131 63 -141 67 -169 55 -22 -9 -32 -22 -37 -45 -7 -37 -2 -42 85
-89 30 -17 63 -39 73 -50 10 -11 34 -23 52 -27 19 -3 34 -9 34 -11 0 -3 -59
-68 -131 -144 -120 -127 -134 -139 -168 -140 -64 -2 -85 -12 -97 -49 -10 -29
-9 -38 3 -52 14 -16 7 -26 -92 -127 l-108 -110 -19 25 c-28 34 -69 54 -122 55
-51 2 -95 -21 -97 -51 -1 -11 -2 -24 -3 -30 -1 -5 35 -27 78 -48 l80 -38 -319
-345 c-200 -215 -325 -343 -335 -340 -21 4 -622 187 -697 212 l-63 21 125 163
c69 90 125 168 125 173 0 5 -11 19 -25 32 -40 38 -67 21 -218 -140 -74 -80
-146 -151 -160 -159 -21 -11 -46 -7 -216 41 l-192 53 151 169 c82 93 150 175
150 182 0 8 16 29 37 47 40 35 83 117 83 159 0 27 -43 68 -72 68 -21 0 -88
-65 -88 -85 0 -9 -79 -105 -175 -213 -155 -174 -175 -200 -176 -232 -1 -71 0
-71 -134 -39 -570 137 -667 163 -920 245 -197 65 -465 165 -465 174 0 4 424
415 943 912 518 498 960 925 982 949 22 24 217 211 434 416 338 319 396 370
411 361 19 -12 22 -110 35 -1306 l6 -514 -23 3 c-37 3 -77 -11 -83 -31 -3 -10
-55 -64 -115 -120 -60 -56 -112 -111 -116 -122 -4 -14 1 -27 15 -41 21 -21 22
-21 74 -3 66 23 139 68 200 125 l47 44 0 -118 0 -118 -24 22 c-38 36 -65 20
-179 -103 -111 -119 -142 -160 -133 -175 3 -5 21 -18 40 -29 l34 -20 49 33
c67 45 153 140 185 205 l27 55 1 -59 0 -58 -190 -198 c-169 -175 -190 -201
-190 -230 0 -40 33 -80 67 -80 23 0 59 35 229 222 58 64 80 83 85 71 4 -13 8
-11 21 8 49 73 146 144 184 135 23 -6 24 -4 24 44 0 27 2 50 5 50 3 0 31 -13
63 -29 72 -36 172 -61 244 -61 47 0 57 3 66 23 l11 22 -2 -25 c-2 -20 7 -29
48 -52 112 -62 290 -74 314 -22 16 35 6 48 -60 83 -104 56 -245 74 -283 36
-13 -13 -17 -12 -32 14 -37 63 -275 136 -350 108 -22 -8 -22 -7 -29 213 -4
122 -6 223 -4 225 2 1 44 -10 94 -27 64 -22 116 -32 185 -35 l96 -6 12 27 c23
52 1 66 -185 121 -93 27 -175 49 -184 49 -18 0 -21 54 -40 1041 -11 551 -9
685 10 685 4 0 116 -39 247 -86z m-1086 -228 c-14 -13 -140 -73 -280 -132
-254 -107 -256 -108 -410 -222 -245 -181 -426 -374 -557 -593 -26 -43 -49 -75
-51 -69 -2 6 21 57 52 115 182 345 420 580 777 769 137 72 377 151 474 155 18
1 18 -1 -5 -23z m-270 -280 c0 -7 -328 -303 -410 -371 -47 -38 -169 -150 -272
-248 -104 -99 -188 -176 -188 -171 0 4 21 46 46 93 41 77 69 109 257 299 l212
213 160 78 c88 43 166 85 174 94 13 16 21 21 21 13z m3655 -856 c-7 -226 -9
-250 -24 -244 -41 19 -68 5 -157 -81 -115 -113 -139 -124 -71 -33 l56 73 -21
22 c-37 39 -54 38 -124 -8 -75 -49 -110 -90 -129 -152 -15 -51 -7 -73 35 -91
l28 -11 -220 -195 c-121 -107 -268 -241 -327 -297 -59 -57 -112 -103 -119
-103 -39 0 -117 -132 -105 -178 3 -12 -4 -24 -20 -35 -13 -8 -30 -29 -36 -46
-10 -23 -29 -38 -78 -61 -185 -86 -395 -277 -437 -398 -14 -39 -73 -121 -87
-122 -4 0 -9 9 -12 19 -2 11 -24 33 -47 50 l-42 30 -40 -20 c-65 -33 -246
-167 -269 -200 -11 -16 -23 -48 -26 -70 -7 -51 -45 -83 -87 -75 -16 4 -32 9
-35 11 -3 3 78 90 181 193 112 114 227 242 293 327 60 77 114 145 121 150 6 6
32 39 58 74 53 75 337 348 411 395 28 19 325 314 689 685 351 358 641 649 643
647 3 -3 2 -118 -2 -256z m-4740 -75 c-5 -46 -16 -90 -24 -97 -11 -11 -12 -10
-8 7 3 11 11 55 18 98 6 42 15 77 18 77 4 0 2 -38 -4 -85z m4735 -632 c0 -364
-1 -376 -18 -360 -24 22 -33 21 -80 -3 -57 -30 -85 -64 -86 -105 -1 -26 -5
-34 -16 -31 -8 3 -94 14 -190 26 l-175 22 -185 -47 c-102 -25 -193 -48 -203
-51 -44 -14 13 50 148 162 79 65 149 131 155 145 12 28 106 115 207 192 104
79 274 239 357 335 43 51 80 92 82 92 2 0 4 -169 4 -377z m0 -515 c0 -16 15
-33 48 -55 109 -75 107 -85 -6 -27 l-113 58 28 22 c35 29 43 30 43 2z m-345
-212 c168 -15 204 -25 327 -87 159 -80 307 -215 392 -357 116 -195 160 -399
201 -928 l25 -332 -25 -83 c-35 -116 -61 -184 -91 -235 -14 -24 -34 -71 -44
-105 -10 -34 -27 -70 -37 -81 -10 -11 -72 -94 -138 -186 -91 -126 -138 -181
-193 -228 -143 -119 -327 -212 -516 -261 -94 -24 -120 -27 -373 -30 -305 -5
-342 0 -471 63 -120 59 -253 197 -267 279 -7 41 -41 102 -80 145 -13 14 -44
72 -69 128 -45 103 -66 188 -98 397 -18 122 -18 608 0 730 43 287 76 386 171
514 54 73 81 130 81 170 0 22 15 38 83 88 45 33 125 87 177 119 114 70 193
126 238 168 29 27 55 36 235 78 226 52 247 54 472 34z m-3910 -472 c732 -212
1334 -390 1338 -394 5 -4 -264 -237 -597 -519 l-605 -511 -113 40 c-62 22
-125 40 -140 40 -39 0 -70 -37 -66 -79 3 -33 6 -35 95 -70 51 -20 93 -38 92
-41 0 -3 -57 -52 -126 -109 -125 -105 -125 -105 -156 -92 -18 8 -223 74 -457
147 -233 74 -427 137 -430 142 -6 6 -191 1793 -190 1829 0 7 6 10 13 8 6 -2
611 -178 1342 -391z m-1561 184 c-3 -5 -13 -8 -23 -8 -10 0 -43 -18 -74 -41
-49 -35 -57 -37 -57 -21 0 11 -7 23 -16 26 -38 14 -190 -93 -268 -188 l-39
-48 24 -24 24 -24 38 25 c20 14 37 24 37 23 0 -2 -46 -48 -101 -103 -56 -55
-94 -89 -85 -75 35 53 4 106 -43 74 -65 -46 -3 21 266 287 l298 293 12 -94 c6
-52 9 -98 7 -102z m104 -1005 c80 -806 80 -803 95 -803 5 0 15 -6 21 -13 6 -8
88 -44 181 -82 94 -37 226 -93 295 -125 107 -50 281 -112 344 -122 14 -2 5
-14 -42 -50 -33 -27 -67 -48 -76 -48 -9 0 -18 -10 -22 -22 -6 -23 -192 -197
-223 -210 -9 -3 -220 -184 -470 -402 l-454 -395 -46 26 c-25 15 -57 34 -72 44
-14 10 -88 50 -165 91 -77 40 -440 249 -807 463 l-667 390 63 62 c545 540
1963 1933 1967 1933 3 0 38 -332 78 -737z m3748 456 c-20 -68 -40 -158 -46
-199 -6 -41 -13 -90 -16 -107 l-5 -33 -30 35 c-17 19 -36 35 -43 35 -6 0 -38
-22 -71 -48 -33 -27 -76 -58 -95 -70 l-36 -21 3 37 c2 33 1 31 -9 -11 -7 -34
-18 -53 -39 -68 l-29 -20 0 44 c0 24 3 85 6 135 l7 92 28 0 c24 0 29 4 29 23
0 30 35 63 85 80 31 11 45 23 60 55 17 35 38 53 125 106 58 36 106 63 108 61
2 -1 -13 -58 -32 -126z m-4568 -44 l31 -11 -226 -224 c-125 -124 -219 -214
-210 -200 42 64 77 129 77 143 0 9 -10 19 -22 23 -21 6 -7 23 142 165 146 140
166 156 170 136 4 -14 18 -26 38 -32z m3910 -64 c9 -5 12 -26 10 -67 l-3 -59
-895 -786 c-492 -432 -948 -837 -1013 -900 -116 -112 -118 -113 -115 -80 3 32
0 36 -30 44 -29 9 -36 7 -63 -19 -47 -44 -54 -62 -33 -85 10 -11 24 -17 33
-14 20 8 49 33 -299 -263 -238 -204 -306 -256 -308 -241 -2 10 -24 36 -49 57
l-45 39 189 163 c103 90 199 172 212 184 27 23 20 4 -11 -30 -26 -29 -22 -101
8 -120 31 -21 54 7 88 106 27 77 28 84 12 95 -15 11 -10 19 46 68 51 44 66 53
83 47 19 -7 23 -3 35 28 34 96 249 307 335 331 13 3 119 85 236 181 251 207
272 222 199 144 -98 -104 -96 -101 -75 -124 10 -11 22 -20 27 -20 25 0 119 93
199 194 86 110 101 140 78 148 -10 3 47 54 356 312 120 101 125 104 63 40 -38
-38 -68 -74 -68 -80 0 -6 9 -19 21 -29 19 -19 21 -19 57 0 20 11 110 93 199
184 129 129 161 167 152 178 -19 21 -38 15 -100 -32 -32 -25 -59 -43 -59 -41
0 3 96 86 213 185 116 99 228 201 247 226 36 46 45 51 68 36z m584 -493 c-2
-151 -5 -176 -18 -171 -8 3 -49 -20 -98 -55 -63 -47 -88 -60 -106 -55 -17 4
-28 0 -41 -18 -18 -24 -19 -22 -19 132 l0 157 44 6 c69 11 236 137 236 178 0
6 1 9 3 7 1 -2 1 -84 -1 -181z m-5088 41 c-25 -39 -44 -72 -42 -74 21 -17 47
-23 59 -12 53 45 -296 -302 -526 -523 -154 -148 -315 -304 -359 -347 -85 -84
-102 -90 -140 -46 -18 20 -25 23 -46 15 -14 -6 -41 -26 -60 -46 -30 -32 -33
-39 -22 -56 6 -11 12 -29 12 -40 0 -12 10 -25 26 -32 28 -13 28 -21 -6 -111
-30 -79 -32 -80 -78 -72 -56 9 -69 45 -45 122 14 46 15 61 5 100 -12 44 -12
48 10 69 61 58 1249 1124 1253 1124 3 0 -16 -32 -41 -71z m3966 -3 c0 -2 -8
-10 -17 -17 -16 -13 -17 -12 -4 4 13 16 21 21 21 13z m560 -62 l0 -66 -27 7
c-68 19 -113 -6 -113 -60 0 -31 4 -34 66 -61 77 -32 84 -45 84 -145 l0 -69
-39 20 c-65 33 -185 68 -271 80 -69 9 -85 9 -115 -6 -19 -9 -35 -21 -35 -28 0
-6 -3 -20 -6 -32 -9 -32 39 -49 269 -95 l207 -42 0 -157 0 -157 -157 37 c-97
23 -167 34 -183 30 -13 -3 -33 -21 -44 -39 -18 -31 -18 -32 0 -46 54 -39 289
-115 357 -115 l30 0 -6 -127 c-4 -71 -7 -166 -7 -213 0 -47 -4 -90 -8 -97 -6
-9 -171 40 -622 184 -338 107 -618 198 -622 202 -4 4 72 77 170 163 97 85 178
150 180 144 4 -17 100 -72 147 -85 59 -16 167 -14 192 4 22 15 34 47 24 62
-16 24 -108 66 -189 86 l-89 22 394 333 c217 182 399 332 404 332 5 0 9 -30 9
-66z m237 -116 c-2 -18 -4 -4 -4 32 0 36 2 50 4 33 2 -18 2 -48 0 -65z m345
-309 c3 -30 9 -74 12 -99 l6 -45 -68 -35 c-85 -43 -257 -210 -249 -241 3 -10
1 -19 -3 -19 -5 0 -15 -3 -24 -6 -13 -5 -16 2 -16 39 0 24 -7 62 -16 82 -10
25 -14 57 -11 89 8 103 56 169 129 181 26 4 78 28 128 60 47 29 90 52 95 51 6
-2 13 -27 17 -57z m71 -431 l25 -98 -28 -42 c-15 -24 -41 -56 -58 -72 l-31
-29 -7 27 c-3 14 -20 37 -36 51 -16 14 -25 25 -19 25 15 0 71 89 71 112 0 9
-9 22 -19 27 -21 12 -31 5 -133 -82 -46 -39 -58 -55 -58 -78 0 -18 6 -32 16
-36 13 -5 10 -11 -12 -34 -15 -16 -33 -29 -40 -29 -6 0 -19 -12 -29 -26 -9
-14 -25 -34 -36 -45 -19 -19 -19 -18 -19 81 l0 100 28 0 c21 0 33 10 55 45 16
25 35 45 43 45 27 0 150 68 205 113 30 25 55 44 56 43 1 0 12 -45 26 -98z
m-6013 -273 c7 -8 16 -15 21 -15 5 0 154 -84 331 -187 178 -102 532 -305 788
-451 256 -146 467 -269 468 -274 2 -5 50 -31 105 -59 144 -72 221 -127 225
-162 3 -24 1 -27 -20 -22 -13 3 -49 9 -80 13 -49 8 -59 6 -75 -10 -21 -21 128
-107 -1233 713 -305 185 -568 347 -583 361 -28 26 -51 83 -41 99 9 15 81 10
94 -6z m5750 -183 c0 -4 -34 -38 -76 -76 l-75 -68 3 53 3 52 47 16 c26 9 50
19 54 24 10 9 44 9 44 -1z m-3388 -731 c-3 -32 1 -42 23 -60 15 -11 35 -21 43
-21 9 0 -18 -23 -59 -51 -41 -27 -104 -81 -141 -119 -69 -71 -172 -145 -189
-135 -5 4 -9 13 -9 21 0 20 -40 34 -65 22 -31 -16 -55 -50 -55 -80 0 -21 7
-29 35 -38 19 -6 35 -14 35 -18 0 -10 -43 -52 -54 -52 -6 0 -31 -30 -56 -66
-48 -71 -64 -84 -105 -84 -32 0 -85 26 -86 43 -3 36 5 75 19 98 28 43 124 120
137 109 12 -10 107 80 118 112 3 10 21 24 39 31 19 8 55 38 81 68 27 30 103
100 170 156 67 56 122 102 122 102 0 1 -1 -16 -3 -38z"/>
<path d="M6913 8215 c-23 -10 -32 -21 -35 -44 -5 -36 -3 -39 79 -80 126 -63
273 -104 413 -117 82 -7 93 -2 105 46 6 25 3 26 -262 117 -251 85 -271 90
-300 78z"/>
<path d="M6563 8068 c-14 -7 -25 -24 -29 -44 -7 -38 10 -58 74 -89 63 -31
1581 -495 1732 -530 162 -37 170 -36 170 12 0 27 -83 101 -154 137 -28 14
-346 111 -706 215 -360 104 -743 217 -850 250 -107 33 -199 60 -205 60 -5 0
-20 -5 -32 -11z"/>
<path d="M5947 7803 c-72 -70 -444 -432 -826 -803 -381 -371 -707 -682 -724
-690 -17 -8 -38 -27 -46 -42 -9 -14 -44 -49 -77 -77 -34 -27 -84 -76 -110
-107 -63 -74 -89 -99 -144 -138 -31 -22 -51 -46 -65 -80 l-20 -48 33 -29 c18
-16 42 -29 53 -29 24 0 25 1 509 465 382 366 1630 1630 1630 1651 0 15 -30 40
-58 49 -19 6 -42 -12 -155 -122z"/>
<path d="M7786 7881 c-12 -13 -16 -25 -10 -31 12 -11 253 -57 277 -52 14 3 17
11 15 35 -3 31 -5 32 -73 44 -158 26 -189 27 -209 4z"/>
<path d="M6740 7652 l-23 -19 34 -37 c28 -31 44 -39 81 -43 26 -3 63 -2 83 1
33 7 36 9 33 39 -3 30 -7 33 -65 49 -113 30 -118 30 -143 10z"/>
<path d="M8520 7625 c-24 -29 -6 -50 81 -95 74 -38 89 -42 103 -31 9 7 16 24
16 37 0 20 -14 31 -80 64 -87 44 -102 47 -120 25z"/>
<path d="M7236 7537 c-37 -37 -25 -72 33 -98 85 -38 227 -69 321 -69 87 0 88
0 99 28 15 36 -1 78 -33 86 -89 22 -352 76 -372 76 -14 0 -35 -11 -48 -23z"/>
<path d="M6656 7414 c-24 -23 -31 -63 -14 -80 20 -20 170 -79 263 -104 110
-28 224 -38 236 -19 13 21 11 75 -3 87 -18 14 -411 132 -442 132 -13 0 -32 -7
-40 -16z"/>
<path d="M5920 7322 c-19 -9 -56 -38 -82 -64 -57 -56 -64 -97 -23 -124 24 -15
26 -15 63 14 54 43 132 129 132 145 0 15 -31 47 -46 47 -5 0 -25 -8 -44 -18z"/>
<path d="M8020 7317 c-14 -7 -25 -21 -25 -32 0 -16 17 -24 95 -46 123 -35 138
-36 150 -3 13 32 2 48 -51 75 -44 22 -131 25 -169 6z"/>
<path d="M6207 7301 c-9 -4 -104 -97 -211 -208 -203 -211 -221 -238 -189 -283
26 -37 57 -24 194 83 139 107 208 180 252 270 42 85 42 99 4 123 -18 11 -41
18 -50 15z"/>
<path d="M8390 7293 c-20 -8 -30 -24 -30 -50 0 -25 74 -73 114 -73 34 0 45 40
22 75 -12 19 -80 60 -90 54 0 0 -8 -3 -16 -6z"/>
<path d="M7363 7225 c-18 -8 -33 -20 -33 -27 0 -7 -3 -22 -6 -34 -4 -17 5 -26
53 -51 71 -38 171 -65 226 -61 33 2 44 9 56 30 15 26 14 29 -12 56 -33 35
-116 77 -178 91 -57 13 -67 13 -106 -4z"/>
<path d="M6773 7045 c-11 -8 -23 -28 -25 -44 -4 -28 -1 -31 61 -60 81 -37 138
-50 213 -51 50 0 60 3 74 25 13 20 14 30 4 60 -6 19 -14 35 -16 35 -2 0 -56
11 -120 25 -134 29 -162 30 -191 10z"/>
<path d="M4851 6909 c-55 -44 -101 -84 -101 -88 0 -5 9 -16 19 -25 19 -17 23
-16 121 51 63 42 102 76 106 91 7 24 -10 52 -31 52 -7 0 -58 -36 -114 -81z"/>
<path d="M7494 6865 c-19 -19 -23 -31 -18 -52 8 -34 -1 -24 64 -65 117 -75
285 -145 392 -163 32 -6 38 -4 53 19 9 14 14 30 11 35 -10 16 -441 251 -460
251 -9 0 -28 -11 -42 -25z"/>
<path d="M5115 6644 c-110 -101 -203 -193 -207 -204 -6 -16 0 -25 29 -44 l36
-25 156 149 c86 81 180 173 209 203 l53 54 -31 27 c-17 14 -35 26 -38 25 -4 0
-97 -83 -207 -185z"/>
<path d="M7108 6669 c-33 -13 -55 -66 -36 -85 21 -21 115 -53 172 -60 30 -4
79 -3 110 0 49 7 58 11 71 37 15 28 15 30 -10 53 -15 14 -47 32 -73 41 -57 20
-197 29 -234 14z"/>
<path d="M5371 6454 c-38 -30 -78 -54 -89 -54 -11 0 -31 -9 -46 -21 -20 -16
-26 -29 -26 -59 0 -47 18 -60 85 -60 85 0 153 47 200 140 24 48 24 48 5 73
-34 43 -54 40 -129 -19z"/>
<path d="M6832 6363 c-15 -7 -33 -27 -39 -43 -19 -52 2 -60 172 -62 l149 -3
13 25 c11 22 10 28 -10 47 -30 31 -241 57 -285 36z"/>
<path d="M5537 6263 c-119 -101 -127 -110 -127 -144 0 -42 24 -69 64 -69 21 0
52 26 149 126 67 69 124 131 126 136 5 16 -41 58 -64 58 -13 0 -73 -43 -148
-107z"/>
<path d="M7302 6314 c-18 -16 -33 -40 -34 -54 -3 -21 7 -29 64 -59 54 -27 82
-35 144 -39 67 -4 79 -2 91 13 51 71 -34 153 -168 163 -62 4 -68 3 -97 -24z"/>
<path d="M5810 6113 c-23 -9 -200 -165 -212 -187 -9 -16 -5 -24 21 -48 50 -44
80 -38 164 33 40 33 82 65 94 69 32 13 56 55 49 85 -10 39 -72 64 -116 48z"/>
<path d="M3903 6068 c-62 -34 -97 -77 -113 -136 -10 -39 -9 -46 7 -64 26 -29
47 -38 71 -31 26 6 162 186 162 213 0 21 -36 51 -60 49 -8 -1 -39 -14 -67 -31z"/>
<path d="M4957 6047 c-15 -7 -51 -39 -80 -73 -29 -33 -127 -129 -218 -213
-197 -182 -197 -182 -175 -216 32 -48 57 -51 125 -15 51 28 94 69 254 243 106
115 196 216 200 223 10 17 -34 64 -60 64 -10 -1 -30 -6 -46 -13z"/>
<path d="M4365 5912 c-47 -29 -140 -135 -169 -194 l-27 -53 26 -22 c44 -38 75
-28 157 53 55 53 108 137 108 170 0 11 -13 30 -30 42 -35 26 -28 26 -65 4z"/>
<path d="M6675 5855 c-35 -35 -33 -76 6 -109 56 -48 149 -27 149 34 0 44 -9
59 -51 80 -50 26 -75 25 -104 -5z"/>
<path d="M6414 5660 c-56 -31 -121 -101 -130 -137 -10 -37 4 -72 36 -88 29
-15 29 -15 120 61 97 80 119 114 99 150 -10 19 -48 44 -67 44 -4 0 -30 -13
-58 -30z"/>
<path d="M5597 5613 c-10 -3 -54 -52 -97 -110 -68 -90 -80 -112 -80 -145 0
-45 27 -78 65 -78 27 0 39 16 145 189 l64 104 -28 23 c-27 24 -35 26 -69 17z"/>
<path d="M6670 5569 c-33 -20 -48 -62 -31 -83 6 -7 59 -35 116 -61 l106 -49
27 21 c38 28 39 56 2 103 -38 48 -75 69 -141 79 -39 6 -55 4 -79 -10z"/>
<path d="M6414 5278 c-48 -44 -84 -103 -84 -137 0 -39 67 -54 118 -27 42 22
68 56 88 114 l19 54 -24 19 c-36 30 -66 24 -117 -23z"/>
<path d="M6121 5271 c-30 -8 -96 -86 -105 -123 -5 -23 -2 -30 23 -43 58 -30
127 -10 181 51 36 41 38 73 7 102 -23 22 -59 26 -106 13z"/>
<path d="M8269 6429 c-159 -107 -253 -199 -297 -290 -45 -93 -48 -113 -20
-126 33 -15 47 -6 67 41 14 32 63 80 220 216 111 96 204 183 207 193 5 17 -20
57 -36 57 -4 0 -67 -41 -141 -91z"/>
<path d="M7574 5727 c-33 -24 -87 -74 -121 -111 -57 -60 -63 -71 -63 -110 0
-36 4 -45 25 -54 21 -10 28 -9 45 8 11 11 20 30 21 43 0 15 29 47 99 106 55
47 102 93 106 103 7 24 -13 58 -35 58 -10 0 -45 -19 -77 -43z"/>
<path d="M8804 6421 c-73 -47 -102 -78 -114 -121 -5 -19 -9 -34 -7 -35 1 -1
18 -11 37 -23 l36 -21 51 29 c55 31 120 101 129 137 4 16 -2 29 -23 47 -15 14
-33 26 -39 26 -6 0 -37 -17 -70 -39z"/>
<path d="M8900 6216 c-28 -12 -200 -187 -200 -203 0 -9 117 -63 135 -63 11 0
174 223 169 231 -3 5 -22 18 -42 28 -30 15 -42 16 -62 7z"/>
<path d="M8237 5371 c-125 -33 -160 -46 -216 -84 -166 -110 -328 -304 -385
-458 -15 -41 -37 -96 -48 -124 -11 -27 -37 -111 -58 -185 -37 -131 -38 -141
-45 -355 -7 -214 3 -372 24 -399 4 -6 14 -36 21 -66 7 -30 19 -64 25 -75 7
-11 15 -48 18 -83 5 -62 5 -63 119 -203 l113 -141 90 -43 c182 -86 304 -115
492 -115 97 -1 133 -4 147 -15 21 -16 63 -20 82 -7 7 4 14 18 15 32 4 21 16
28 106 56 101 32 102 33 296 189 179 143 203 165 275 263 l79 107 1 80 c1 44
13 130 27 190 33 150 49 315 43 454 -4 93 -11 134 -36 211 -17 52 -41 132 -53
178 -29 110 -89 228 -180 349 -60 81 -92 113 -165 166 l-91 66 -261 26 c-144
14 -268 25 -274 25 -7 -1 -80 -18 -161 -39z m340 -125 c1 -1 -25 -24 -58 -51
-50 -41 -59 -54 -59 -81 0 -23 7 -36 24 -48 24 -15 26 -14 96 47 75 66 95 102
66 122 -13 10 2 12 76 7 51 -2 98 -7 105 -11 8 -4 -64 -75 -185 -183 l-197
-177 -26 187 c-14 103 -24 191 -21 195 3 6 170 -1 179 -7z m-327 -94 c0 -32 7
-82 15 -112 9 -30 20 -86 25 -125 6 -38 12 -83 15 -98 4 -23 2 -26 -12 -19
-25 14 -51 3 -71 -33 -11 -17 -47 -51 -81 -75 -52 -37 -61 -47 -61 -73 0 -41
35 -77 75 -77 25 0 44 13 100 70 38 39 73 66 78 61 4 -4 11 -66 14 -137 l5
-129 -28 -17 c-28 -16 -28 -16 -104 42 -41 32 -107 78 -145 103 -99 63 -289
157 -319 157 -31 0 -33 11 -6 35 11 10 20 25 20 34 0 9 37 66 83 127 45 60 93
126 107 147 15 22 36 39 54 43 32 7 109 62 138 99 17 22 37 30 81 34 14 1 17
-8 17 -57z m761 -19 c20 -21 45 -51 57 -67 l22 -29 -23 -12 c-13 -7 -114 -80
-225 -164 -111 -83 -202 -148 -202 -144 0 5 14 32 30 62 34 62 37 76 14 85
-41 16 -133 -67 -134 -120 0 -38 41 -64 68 -42 13 11 14 10 4 -9 -21 -38 -14
-60 24 -84 31 -19 40 -20 74 -10 21 6 43 18 50 26 7 8 19 15 28 15 8 0 25 8
36 18 17 15 17 13 -3 -16 l-23 -33 22 -24 c22 -24 24 -24 52 -7 43 25 147 138
154 168 4 14 2 30 -5 37 -17 17 -14 22 42 65 30 22 61 48 71 57 15 16 18 13
40 -37 52 -115 67 -93 -189 -282 l-226 -168 -52 23 c-42 19 -70 23 -144 24
l-92 0 -5 30 c-3 17 -8 84 -11 150 -4 66 -8 126 -10 133 -3 6 2 12 10 12 9 0
115 67 238 149 215 143 247 171 247 216 0 26 25 16 61 -22z m287 -647 l19
-120 -33 -265 c-18 -145 -35 -268 -36 -272 -2 -4 -98 53 -214 126 l-211 134
10 68 c5 37 7 86 4 108 l-4 41 221 156 c122 86 222 154 223 150 2 -4 11 -61
21 -126z m-1485 27 c21 -3 37 -9 37 -14 0 -4 18 -19 40 -32 l39 -23 -141 -97
c-77 -54 -143 -96 -145 -94 -4 4 42 272 53 309 5 16 10 14 43 -12 21 -17 54
-33 74 -37z m395 -238 c10 -8 11 -38 6 -123 l-7 -111 -91 -55 c-50 -30 -120
-76 -156 -103 -36 -26 -87 -61 -115 -77 -27 -17 -76 -55 -107 -86 -61 -61 -67
-60 -68 15 0 17 -12 48 -25 70 -22 36 -25 51 -25 147 l0 108 54 27 c33 17 111
81 200 165 l146 137 87 -51 c49 -28 94 -56 101 -63z m481 14 c27 -16 32 -24
26 -42 -3 -12 -10 -38 -14 -57 -24 -110 -127 -180 -265 -180 l-72 0 -12 33
c-16 45 -15 93 3 154 15 49 16 51 59 57 25 4 50 14 57 23 21 24 49 32 119 32
49 1 73 -4 99 -20z m135 -375 c50 -26 101 -56 113 -69 11 -12 80 -55 152 -95
72 -40 131 -76 131 -80 0 -4 -68 -71 -151 -149 -146 -138 -155 -144 -290 -211
-76 -39 -142 -70 -147 -70 -6 0 -20 151 -56 624 -1 14 18 30 64 57 36 21 72
39 79 39 8 0 56 -21 105 -46z m-462 -31 c67 -14 78 -19 78 -37 0 -12 11 -160
25 -331 13 -170 22 -311 20 -313 -7 -8 -531 72 -540 82 -5 7 -37 33 -70 60
-41 33 -74 73 -107 128 -49 82 -56 98 -37 98 5 0 126 74 267 165 141 91 263
165 272 165 8 0 50 -8 92 -17z"/>
<path d="M8087 5009 c-23 -13 -177 -218 -177 -235 0 -19 40 -44 71 -44 66 0
199 154 199 230 0 19 -44 60 -64 60 -6 0 -19 -5 -29 -11z"/>
<path d="M7952 4135 c-75 -35 -170 -119 -204 -181 -15 -28 -16 -33 -2 -52 10
-15 26 -22 48 -22 28 0 54 18 162 111 71 61 134 115 139 121 10 10 -40 58 -60
58 -5 -1 -43 -16 -83 -35z"/>
<path d="M8464 4235 c-36 -16 -47 -36 -38 -73 11 -45 43 -72 85 -72 45 0 59
19 59 79 0 31 -6 44 -26 60 -31 24 -37 24 -80 6z"/>
<path d="M3742 5224 c-18 -7 -32 -19 -32 -26 0 -7 -3 -23 -6 -34 -5 -19 3 -25
73 -52 172 -66 480 -152 748 -208 75 -15 145 -36 165 -49 28 -17 62 -24 170
-33 124 -11 136 -11 148 5 17 24 15 47 -8 68 -12 11 -204 67 -497 146 -799
216 -725 198 -761 183z"/>
<path d="M3622 4870 c-39 -37 -29 -65 32 -94 82 -39 161 -56 257 -56 93 0 119
13 119 59 0 28 -69 61 -185 91 -108 27 -194 27 -223 0z"/>
<path d="M4363 4702 c-31 -24 -39 -64 -16 -84 10 -8 171 -57 358 -108 187 -51
345 -97 352 -102 6 -5 114 -29 240 -53 l228 -44 18 21 c24 28 22 40 -15 75
-30 28 -76 42 -578 172 -300 78 -549 141 -555 141 -5 0 -20 -8 -32 -18z"/>
<path d="M3672 4443 c-12 -10 -24 -30 -27 -44 -6 -25 -2 -28 102 -72 178 -74
380 -124 575 -142 76 -7 78 -7 89 18 10 21 9 31 -5 51 -13 20 -47 35 -174 75
-168 54 -470 131 -513 131 -15 0 -36 -8 -47 -17z"/>
<path d="M4667 4202 c-8 -9 -20 -29 -26 -43 -9 -26 -7 -28 57 -57 124 -56 273
-92 378 -92 48 0 56 3 66 24 6 14 8 31 5 38 -13 35 -210 114 -341 137 -85 15
-121 14 -139 -7z"/>
<path d="M3772 3995 c-29 -13 -42 -32 -42 -64 0 -36 329 -135 549 -165 62 -9
118 -16 126 -16 39 0 42 90 4 110 -10 6 -99 29 -196 52 -98 22 -231 53 -295
68 -99 23 -121 25 -146 15z"/>
<path d="M4622 3103 c-40 -19 -114 -84 -143 -125 l-22 -30 25 -25 c25 -24 26
-25 58 -8 18 10 62 45 98 80 67 65 74 87 37 111 -17 11 -25 11 -53 -3z"/>
<path d="M1520 3859 c-100 -87 -115 -104 -115 -131 0 -20 7 -35 21 -44 18 -13
24 -12 47 7 47 36 206 239 200 255 -11 28 -40 11 -153 -87z"/>
<path d="M1280 3610 c-9 -5 -44 -40 -78 -78 l-61 -69 23 -22 24 -22 71 83 c74
87 81 102 55 112 -19 7 -15 7 -34 -4z"/>
<path d="M767 3033 c-4 -3 -7 -13 -7 -22 1 -13 3 -13 11 2 11 19 8 33 -4 20z"/>
<path d="M5521 3291 c-33 -9 -65 -53 -57 -79 12 -37 294 -125 501 -157 99 -15
100 -14 118 6 26 32 21 47 -30 79 -124 79 -456 173 -532 151z"/>
<path d="M6199 3171 l-24 -19 21 -29 c26 -35 61 -48 106 -39 42 8 64 24 73 53
8 28 -12 37 -96 47 -47 5 -61 3 -80 -13z"/>
<path d="M6240 2972 l-22 -18 28 -33 c50 -59 152 -83 174 -41 6 11 8 25 4 31
-6 10 -144 79 -157 79 -3 0 -15 -8 -27 -18z"/>
<path d="M6880 3670 c-12 -17 -39 -39 -61 -50 -34 -18 -39 -25 -39 -54 0 -25
7 -38 26 -50 25 -17 25 -17 91 47 65 63 66 66 57 98 -13 46 -45 50 -74 9z"/>
<path d="M4995 2670 c-3 -5 -1 -10 4 -10 6 0 11 5 11 10 0 6 -2 10 -4 10 -3 0
-8 -4 -11 -10z"/>
</g>
</svg>
