<?xml version="1.0" standalone="no"?>
<!DOCTYPE svg PUBLIC "-//W3C//DTD SVG 20010904//EN"
 "http://www.w3.org/TR/2001/REC-SVG-20010904/DTD/svg10.dtd">
<svg version="1.0" xmlns="http://www.w3.org/2000/svg"
 width="240.000000pt" height="240.000000pt" viewBox="0 0 240.000000 240.000000"
 preserveAspectRatio="xMidYMid meet">
<metadata>
Created by potrace 1.11, written by Peter Selinger 2001-2013
</metadata>
<g transform="translate(0.000000,240.000000) scale(0.100000,-0.100000)"
fill="#000000" stroke="none">
<path d="M1603 2044 c-4 -10 -6 -32 -6 -48 0 -17 3 -160 6 -318 4 -222 2 -288
-7 -288 -26 0 -113 101 -153 177 -68 127 -105 252 -108 355 -2 96 -9 116 -25
73 -48 -127 37 -414 171 -575 28 -34 69 -74 90 -88 l39 -27 -4 -315 c-3 -173
-6 -324 -9 -335 -3 -11 -6 -92 -8 -180 -4 -141 -2 -160 12 -163 12 -2 19 9 27
40 15 60 27 392 26 717 l-1 274 33 29 c70 62 196 269 278 459 49 113 54 140
32 158 -17 14 -26 2 -45 -54 -48 -144 -191 -413 -268 -502 l-32 -38 -2 245
c-1 292 -9 412 -26 418 -7 2 -16 -4 -20 -14z"/>
<path d="M727 2025 c-4 -8 -7 -161 -8 -340 -1 -179 -5 -325 -10 -325 -14 0
-38 43 -90 166 -62 146 -124 316 -133 367 -7 35 -29 58 -43 43 -8 -8 33 -174
62 -251 93 -247 135 -337 175 -380 l28 -30 6 -370 c7 -406 14 -578 27 -612 15
-39 42 -28 41 17 -6 235 -15 484 -18 510 -2 19 -4 131 -5 248 l-1 212 79 84
c113 120 235 336 279 495 16 58 16 63 1 78 -24 24 -33 10 -56 -79 -31 -122
-157 -346 -259 -463 -17 -19 -33 -35 -34 -35 -2 0 -3 141 -4 313 0 172 -4 325
-8 340 -7 30 -21 35 -29 12z"/>
</g>
</svg>
