<?xml version="1.0" standalone="no"?>
<!DOCTYPE svg PUBLIC "-//W3C//DTD SVG 20010904//EN"
 "http://www.w3.org/TR/2001/REC-SVG-20010904/DTD/svg10.dtd">
<svg version="1.0" xmlns="http://www.w3.org/2000/svg"
 width="1024.000000pt" height="1024.000000pt" viewBox="0 0 1024.000000 1024.000000"
 preserveAspectRatio="xMidYMid meet">
<metadata>
Created by potrace 1.10, written by Peter Selinger 2001-2011
</metadata>
<g transform="translate(0.000000,1024.000000) scale(0.100000,-0.100000)"
fill="#000000" stroke="none">
<path d="M6690 7591 c-63 -27 -116 -54 -118 -60 -8 -25 23 -73 89 -135 120
-115 179 -230 199 -394 10 -75 6 -105 -90 -697 -55 -340 -101 -619 -102 -621
-5 -5 -3252 -354 -3256 -350 -2 2 -32 192 -68 422 -64 413 -65 425 -84 813
-22 435 -21 431 -93 485 -70 52 -117 66 -433 126 l-317 60 -99 -57 c-93 -52
-99 -58 -93 -82 10 -42 57 -93 137 -148 42 -29 99 -78 127 -109 65 -71 136
-213 161 -324 32 -138 241 -1243 236 -1247 -2 -3 -359 -41 -793 -85 l-788 -81
-429 51 c-237 28 -431 50 -432 49 -1 -1 5 -57 14 -125 l16 -123 180 -147 c266
-216 525 -383 619 -398 47 -8 390 33 467 56 383 112 1233 284 1259 254 4 -5
15 -52 24 -104 193 -1092 193 -1090 284 -1191 45 -50 76 -66 139 -74 39 -5 56
-2 81 14 59 37 102 165 103 304 0 38 -29 305 -65 594 -36 290 -63 528 -61 531
7 6 3068 354 3073 348 3 -3 -45 -283 -107 -623 l-113 -617 11 -90 c13 -105 47
-183 91 -209 34 -20 119 -22 168 -4 95 35 204 154 277 303 84 169 128 326 239
839 l103 480 379 6 c209 3 681 7 1048 8 620 1 680 0 838 -20 143 -17 179 -19
221 -9 126 31 171 141 108 266 -27 55 -144 197 -222 271 -41 40 -389 213 -426
213 -15 0 -430 -47 -922 -105 -492 -57 -895 -103 -897 -102 -1 2 81 325 182
717 106 410 182 723 179 735 -9 29 -71 91 -134 135 -175 120 -635 301 -759
300 -20 -1 -88 -23 -151 -49z"/>
</g>
</svg>
