<?xml version="1.0" standalone="no"?>
<!DOCTYPE svg PUBLIC "-//W3C//DTD SVG 20010904//EN"
 "http://www.w3.org/TR/2001/REC-SVG-20010904/DTD/svg10.dtd">
<svg version="1.0" xmlns="http://www.w3.org/2000/svg"
 width="240.000000pt" height="240.000000pt" viewBox="0 0 240.000000 240.000000"
 preserveAspectRatio="xMidYMid meet">
<metadata>
Created by potrace 1.11, written by Peter Selinger 2001-2013
</metadata>
<g transform="translate(0.000000,240.000000) scale(0.100000,-0.100000)"
fill="#000000" stroke="none">
<path d="M790 2158 c-7 -29 -29 -82 -49 -118 -34 -61 -36 -70 -34 -145 1 -44
6 -123 12 -175 5 -52 12 -131 16 -175 l6 -80 -31 60 c-68 130 -115 156 -345
190 -183 27 -225 30 -225 16 0 -15 40 -82 76 -127 23 -29 61 -56 121 -87 135
-69 207 -156 254 -302 26 -83 48 -116 92 -144 33 -20 33 -22 35 -98 1 -43 4
-103 7 -133 3 -30 2 -60 -2 -66 -5 -8 -102 -14 -298 -18 -159 -4 -294 -11
-298 -15 -23 -23 104 -331 184 -442 59 -83 269 -129 819 -178 116 -10 342 -11
430 -1 188 21 517 154 625 252 116 106 178 316 114 384 l-24 25 -238 -3 -239
-3 -2 87 c-1 82 0 87 21 93 41 10 102 87 163 204 72 140 148 242 218 295 29
22 52 47 52 57 0 43 -86 62 -175 38 -60 -16 -171 -133 -217 -229 -19 -41 -41
-93 -48 -115 -22 -71 -27 -58 -15 42 15 119 24 153 39 153 14 0 50 52 71 104
34 81 23 224 -31 384 -28 84 -34 117 -34 185 0 87 -14 125 -42 114 -11 -4 -17
-26 -20 -84 -4 -55 -13 -94 -31 -133 -37 -79 -59 -173 -60 -260 -1 -62 3 -85
25 -133 15 -32 35 -65 44 -74 18 -18 17 -59 -6 -218 -5 -38 -9 -108 -10 -154
l0 -84 -62 59 c-84 80 -178 145 -273 191 -64 30 -89 37 -143 37 -61 1 -67 -1
-78 -24 -49 -100 -48 -98 -35 -114 12 -14 15 -14 37 1 53 34 160 -12 347 -153
83 -63 164 -118 180 -121 24 -5 27 -10 28 -47 0 -22 2 -50 4 -61 2 -11 1 -25
-3 -31 -5 -8 -144 -13 -482 -15 l-474 -4 -8 35 c-10 43 -19 329 -11 359 3 11
10 21 15 21 16 0 188 163 210 200 39 63 122 152 183 195 72 51 157 95 184 95
28 0 66 34 58 53 -5 12 -18 16 -54 16 -26 -1 -85 4 -130 11 l-82 12 -76 -38
c-42 -22 -94 -54 -115 -72 -44 -37 -120 -148 -162 -236 l-29 -61 8 50 c4 28 6
101 4 163 -2 87 1 117 12 130 42 50 100 291 83 349 -40 139 -48 163 -60 163
-9 0 -19 -21 -26 -52z m33 -203 c-5 -71 -37 -175 -54 -175 -5 0 -9 41 -9 90 0
79 4 97 27 143 l27 52 6 -30 c4 -16 5 -52 3 -80z m1027 -169 c31 -123 32 -186
4 -268 -18 -55 -32 -61 -40 -18 -4 16 -13 35 -21 41 -26 22 -44 83 -50 170 -5
72 -2 96 17 155 12 38 25 73 28 78 9 16 33 -45 62 -158z m-600 -86 c17 -11 22
-6 -65 -57 -75 -44 -164 -130 -210 -203 -30 -47 -113 -133 -147 -151 -19 -10
-20 -9 -14 17 13 53 88 208 118 247 32 40 90 83 173 129 51 28 116 36 145 18z
m-857 -45 c137 -17 189 -37 235 -89 43 -49 53 -76 58 -156 l4 -65 -19 55 c-20
61 -59 107 -93 112 -13 2 -45 1 -71 -3 -44 -5 -55 -1 -135 44 -48 27 -99 61
-114 75 -34 32 -37 54 -5 47 12 -2 75 -11 140 -20z m1693 -242 c-67 -76 -97
-120 -140 -207 -32 -67 -68 -125 -90 -145 -41 -39 -42 -35 -21 57 20 85 59
174 110 253 43 66 85 101 154 125 76 28 75 17 -13 -83z m-1499 32 c13 -9 26
-37 36 -77 9 -35 24 -99 35 -143 15 -58 16 -74 6 -60 -8 10 -14 28 -14 39 -1
33 -55 151 -94 206 -35 48 -35 50 -13 50 12 0 32 -7 44 -15z m788 -196 c126
-52 266 -156 327 -242 l20 -28 -35 15 c-20 8 -85 54 -144 101 -116 93 -187
135 -270 155 -43 11 -50 16 -41 28 15 18 47 11 143 -29z m-548 -543 c-9 16
884 14 895 -1 5 -6 8 -4 8 5 0 13 2 13 9 1 10 -16 6 -77 -15 -208 -9 -51 -13
-97 -9 -103 8 -13 32 -13 40 0 6 10 35 216 36 254 0 10 1 17 2 15 2 -2 9 -13
17 -23 10 -13 10 -17 3 -12 -16 9 -16 1 -2 -25 5 -11 14 -17 19 -14 4 3 7 -1
6 -7 -2 -14 -21 -23 -21 -10 -1 13 -24 47 -25 35 0 -6 4 -14 9 -18 6 -3 8 -14
6 -25 -3 -13 0 -18 7 -14 8 5 9 1 5 -10 -4 -10 -4 -23 0 -29 10 -16 15 -37 17
-68 0 -16 6 -25 13 -22 8 3 9 12 3 28 -5 13 -6 26 -3 29 4 3 0 6 -7 6 -7 0
-10 3 -7 7 4 3 2 12 -5 20 -9 11 -7 18 9 34 15 16 20 17 20 5 0 -8 -3 -15 -6
-14 -19 2 -20 -5 -6 -32 9 -16 13 -30 11 -30 -3 0 -1 -11 4 -25 5 -14 6 -27 0
-30 -9 -6 -6 -37 5 -55 3 -6 1 -10 -4 -10 -10 0 -16 22 -12 43 1 5 -3 6 -8 2
-10 -6 -5 -31 10 -50 10 -13 8 -55 -3 -49 -4 3 -5 11 -2 18 3 8 1 17 -4 20 -5
3 -8 -7 -6 -21 1 -15 0 -32 -4 -38 -3 -5 -7 -20 -8 -33 -1 -31 -9 -36 -79 -55
-123 -32 -210 -39 -479 -40 -216 0 -295 3 -388 18 -65 10 -118 22 -118 26 0 4
-11 6 -25 4 -32 -3 -40 9 -18 26 14 12 16 12 8 0 -5 -10 -4 -12 4 -7 16 10 3
29 -16 22 -8 -3 -11 -2 -8 3 3 5 1 12 -5 16 -6 4 -5 15 3 33 16 32 15 40 -1
70 -7 12 -10 27 -7 32 3 5 1 11 -5 15 -6 4 -8 11 -4 16 3 5 10 7 15 3 5 -3 6
-10 3 -16 -4 -7 -2 -8 4 -4 9 5 9 12 0 26 -7 10 -16 16 -22 13 -5 -4 -2 4 7
17 15 22 15 25 -1 44 -16 20 -16 20 1 7 15 -12 17 -11 18 8 2 33 4 39 11 46 4
4 5 -4 3 -19 -3 -14 -7 -37 -9 -51 -3 -14 0 -40 6 -57 9 -26 8 -33 -5 -43 -10
-7 -17 -16 -17 -20 0 -5 8 -1 18 7 9 8 24 17 33 21 17 6 29 87 29 200 0 44 3
56 13 51 8 -5 8 -2 -2 9 -11 14 -11 20 -1 32 10 12 16 13 28 3 10 -8 13 -9 9
-2z m-129 -161 c-3 -3 -9 2 -12 12 -6 14 -5 15 5 6 7 -7 10 -15 7 -18z m7
-213 c-2 -9 -4 -18 -4 -20 -1 -2 -6 0 -11 3 -8 5 -8 11 -1 19 7 9 7 17 -2 26
-10 12 -9 12 5 2 9 -7 15 -21 13 -30z m1156 -66 c-6 -7 -9 -15 -6 -18 3 -3 -3
-11 -12 -19 -16 -13 -17 -12 -4 4 11 14 11 17 0 17 -11 0 -11 2 1 10 13 9 13
10 0 10 -13 0 -13 2 0 9 19 13 34 3 21 -13z"/>
<path d="M705 281 c-9 -15 15 -25 28 -12 9 9 7 10 -7 5 -13 -5 -17 -4 -12 4 4
7 5 12 2 12 -3 0 -7 -4 -11 -9z"/>
</g>
</svg>
