<?xml version="1.0" standalone="no"?>
<!DOCTYPE svg PUBLIC "-//W3C//DTD SVG 20010904//EN"
 "http://www.w3.org/TR/2001/REC-SVG-20010904/DTD/svg10.dtd">
<svg version="1.0" xmlns="http://www.w3.org/2000/svg"
 width="1024.000000pt" height="1024.000000pt" viewBox="0 0 1024.000000 1024.000000"
 preserveAspectRatio="xMidYMid meet">
<metadata>
Created by potrace 1.10, written by Peter Selinger 2001-2011
</metadata>
<g transform="translate(0.000000,1024.000000) scale(0.100000,-0.100000)"
fill="#000000" stroke="none">
<path d="M5910 9563 c-27 -25 -31 -37 -40 -118 -21 -179 -23 -473 -6 -844 9
-200 15 -366 12 -369 -5 -4 -931 -74 -1366 -102 -254 -16 -416 -55 -585 -141
-156 -79 -296 -194 -396 -324 -38 -49 -89 -114 -114 -143 -25 -30 -45 -62 -45
-72 0 -9 -7 -23 -15 -30 -27 -23 -69 -105 -87 -175 -11 -38 -25 -93 -32 -121
-8 -27 -32 -95 -55 -150 -41 -100 -42 -105 -71 -379 -6 -55 -45 -278 -86 -495
-83 -435 -92 -480 -165 -785 -60 -250 -78 -328 -119 -500 -17 -71 -46 -195
-65 -275 -19 -80 -106 -446 -194 -815 l-159 -670 -138 -335 c-98 -239 -154
-362 -197 -430 -33 -52 -69 -118 -82 -145 -12 -28 -46 -88 -77 -135 -30 -47
-60 -100 -66 -118 -6 -19 -68 -118 -137 -222 -69 -103 -132 -205 -141 -225 -8
-21 -18 -68 -21 -105 -9 -109 22 -137 118 -108 84 25 159 124 248 328 20 47
133 258 251 470 259 468 356 686 495 1120 100 309 119 387 259 1050 437 2073
634 2968 668 3035 46 90 109 168 257 316 l156 156 135 67 c138 67 233 98 374
122 54 9 412 22 1062 41 l980 27 800 -32 c779 -31 807 -33 1138 -74 l338 -42
37 19 c47 26 85 96 69 130 -12 27 -148 94 -243 120 -47 13 -325 30 -1260 77
-660 34 -1203 64 -1206 67 -4 3 -18 179 -33 391 -22 329 -25 411 -18 562 13
249 1 303 -84 377 -43 38 -56 38 -94 4z"/>
<path d="M6966 3815 c3 -11 8 -32 11 -48 3 -15 10 -30 15 -33 12 -7 3 25 -18
71 -8 17 -12 21 -8 10z"/>
</g>
</svg>
