<?xml version="1.0" standalone="no"?>
<!DOCTYPE svg PUBLIC "-//W3C//DTD SVG 20010904//EN"
 "http://www.w3.org/TR/2001/REC-SVG-20010904/DTD/svg10.dtd">
<svg version="1.0" xmlns="http://www.w3.org/2000/svg"
 width="1024.000000pt" height="1024.000000pt" viewBox="0 0 1024.000000 1024.000000"
 preserveAspectRatio="xMidYMid meet">
<metadata>
Created by potrace 1.10, written by Peter Selinger 2001-2011
</metadata>
<g transform="translate(0.000000,1024.000000) scale(0.100000,-0.100000)"
fill="#000000" stroke="none">
<path d="M5996 9258 c-123 -8 -132 -10 -178 -41 -52 -35 -70 -78 -50 -122 8
-18 6 -32 -13 -69 -37 -73 -38 -123 -10 -315 14 -96 24 -176 22 -178 -8 -7
-736 -351 -917 -433 -380 -171 -1348 -623 -1525 -712 -691 -347 -1150 -584
-1196 -619 -68 -50 -157 -94 -231 -113 -31 -8 -237 -98 -458 -200 -367 -169
-407 -190 -461 -241 -51 -46 -73 -59 -136 -78 l-75 -22 7 -272 c6 -241 5 -274
-9 -294 -9 -13 -16 -40 -16 -60 l0 -37 79 -11 80 -12 248 116 c136 63 251 115
255 115 5 0 9 -591 9 -1312 1 -722 5 -1763 8 -2314 l6 -1001 -209 -6 c-115 -4
-305 -7 -422 -7 -210 0 -214 0 -228 -22 -8 -13 -17 -39 -21 -59 -6 -34 -4 -38
28 -58 l34 -21 4635 0 4635 0 47 35 c38 30 46 41 46 69 0 21 -8 40 -21 52 -19
17 -45 20 -283 26 -143 4 -297 9 -342 10 l-80 3 17 125 c15 111 18 295 26
1657 5 883 5 2123 0 2928 -5 768 -7 1398 -5 1401 3 2 78 -21 168 -51 102 -34
193 -58 244 -64 l81 -9 36 39 c44 47 46 59 54 289 6 147 4 182 -9 219 -19 51
-57 105 -91 127 -20 13 -27 13 -58 1 -33 -14 -44 -12 -228 40 -107 30 -195 59
-197 64 -2 5 -27 9 -54 9 -39 0 -62 7 -97 29 -35 22 -75 34 -166 50 -67 11
-124 21 -128 21 -4 0 -7 6 -7 13 0 8 -19 12 -59 13 -33 1 -73 9 -91 17 -17 9
-144 46 -283 82 -139 37 -594 157 -1012 268 l-760 202 4 280 c3 258 5 282 22
301 30 32 24 75 -13 112 -32 30 -37 31 -162 42 -146 11 -302 11 -490 -2z m438
-248 c-3 -14 -7 -163 -9 -333 l-2 -307 66 -19 c129 -38 1976 -553 2002 -558
15 -3 37 1 50 10 22 14 41 12 239 -32 118 -26 229 -55 247 -64 18 -9 50 -17
73 -17 44 0 83 -18 174 -79 48 -32 89 -47 222 -83 l164 -43 0 -107 c0 -74 -4
-108 -11 -108 -42 0 -176 48 -203 72 -39 36 -124 68 -179 68 -25 0 -56 -8 -76
-21 -28 -17 -32 -25 -29 -49 l4 -29 -25 21 -26 20 -5 -1744 c-5 -1473 -8
-1755 -20 -1818 -13 -63 -15 -233 -15 -1035 0 -844 2 -978 17 -1105 10 -81 19
-245 21 -372 l3 -227 -110 6 c-61 3 -111 6 -112 7 -1 1 3 267 7 591 5 364 4
636 -2 710 -5 66 -14 1061 -19 2210 -5 1150 -11 2267 -12 2483 l-3 394 -60 24
c-33 14 -431 113 -885 220 -454 107 -998 236 -1210 286 -283 66 -394 97 -420
114 -19 13 -38 24 -42 24 -4 0 -803 -365 -1775 -811 -972 -447 -1808 -827
-1858 -846 -142 -54 -303 -135 -402 -201 -50 -34 -93 -59 -96 -56 -5 6 -170
-75 -199 -98 -17 -12 -17 -132 2 -2288 11 -1251 21 -2389 22 -2528 l3 -252
-152 0 -153 0 0 63 c0 136 -42 4822 -43 4824 -1 1 -60 -14 -132 -33 -83 -22
-163 -51 -220 -80 -100 -51 -236 -106 -243 -99 -7 6 -20 162 -21 236 l-1 56
193 102 c105 56 224 120 262 141 39 22 107 53 152 69 45 17 326 151 625 300
299 148 966 472 1483 719 517 248 1243 596 1613 774 l673 323 2 98 c1 53 -2
97 -6 97 -5 0 -7 75 -6 168 2 135 -1 174 -14 204 l-16 38 250 -3 250 -2 -7
-25z m1044 -1414 c667 -167 1216 -307 1220 -311 4 -4 9 -1406 10 -3116 l4
-3109 -1334 0 c-733 0 -2209 -5 -3281 -11 -1071 -7 -1950 -10 -1952 -7 -3 3 5
68 17 145 l21 141 -26 2089 c-15 1148 -30 2208 -33 2356 l-7 267 30 0 c76 0
247 61 333 119 14 10 68 35 120 56 52 21 232 107 400 190 419 209 548 268
1911 884 659 297 1228 556 1265 575 38 19 74 35 79 35 6 0 556 -136 1223 -303z"/>
<path d="M6646 3870 c3 -19 10 -39 15 -44 14 -15 10 15 -6 49 l-15 30 6 -35z"/>
</g>
</svg>
