<?xml version="1.0" standalone="no"?>
<!DOCTYPE svg PUBLIC "-//W3C//DTD SVG 20010904//EN"
 "http://www.w3.org/TR/2001/REC-SVG-20010904/DTD/svg10.dtd">
<svg version="1.0" xmlns="http://www.w3.org/2000/svg"
 width="1024.000000pt" height="1024.000000pt" viewBox="0 0 1024.000000 1024.000000"
 preserveAspectRatio="xMidYMid meet">
<metadata>
Created by potrace 1.10, written by Peter Selinger 2001-2011
</metadata>
<g transform="translate(0.000000,1024.000000) scale(0.100000,-0.100000)"
fill="#000000" stroke="none">
<path d="M5490 9756 c-55 -21 -131 -61 -178 -95 l-43 -32 27 -35 c15 -19 57
-54 93 -78 124 -80 210 -185 270 -331 75 -180 101 -378 108 -836 l6 -345 -129
-12 c-71 -7 -705 -67 -1409 -133 l-1280 -122 -358 43 c-196 24 -359 41 -362
39 -2 -3 15 -68 39 -146 37 -121 49 -148 87 -193 57 -67 146 -134 237 -178
l72 -34 0 -64 c0 -69 -21 -497 -45 -914 -22 -371 -80 -1078 -110 -1337 -62
-534 -99 -765 -185 -1152 -253 -1142 -495 -1783 -968 -2566 -94 -155 -370
-568 -494 -739 -44 -60 -82 -114 -84 -120 -2 -6 6 -22 17 -35 l20 -24 30 29
c84 79 356 360 431 444 398 450 707 916 989 1495 186 382 318 739 453 1220
257 920 387 1817 480 3329 l21 349 55 19 c36 13 477 77 1255 183 1139 156
1216 165 1530 185 428 26 1582 96 2635 160 459 28 851 55 871 60 88 24 143 90
144 175 0 43 -5 58 -39 103 -73 100 -159 158 -339 230 l-162 64 -125 -6 c-69
-3 -720 -74 -1448 -157 -728 -83 -1325 -149 -1326 -147 -2 1 1 228 6 503 l8
500 36 143 c34 130 36 146 25 185 -19 63 -104 140 -204 187 -78 36 -581 201
-609 199 -7 0 -29 -6 -48 -13z"/>
</g>
</svg>
