<?xml version="1.0" standalone="no"?>
<!DOCTYPE svg PUBLIC "-//W3C//DTD SVG 20010904//EN"
 "http://www.w3.org/TR/2001/REC-SVG-20010904/DTD/svg10.dtd">
<svg version="1.0" xmlns="http://www.w3.org/2000/svg"
 width="1024.000000pt" height="1024.000000pt" viewBox="0 0 1024.000000 1024.000000"
 preserveAspectRatio="xMidYMid meet">
<metadata>
Created by potrace 1.10, written by Peter Selinger 2001-2011
</metadata>
<g transform="translate(0.000000,1024.000000) scale(0.100000,-0.100000)"
fill="#000000" stroke="none">
<path d="M6244 9145 c-190 -49 -340 -129 -455 -244 -94 -94 -151 -202 -176
-331 -8 -47 -22 -96 -30 -110 -46 -80 -74 -157 -92 -250 -36 -191 -53 -376
-52 -587 0 -209 2 -241 26 -428 8 -60 19 -166 25 -235 16 -188 33 -271 153
-720 68 -254 75 -275 184 -514 l113 -250 -40 -128 c-108 -343 -154 -707 -154
-1238 -1 -435 13 -639 75 -1105 l10 -80 -49 -105 c-58 -123 -104 -260 -128
-385 -29 -151 -21 -624 12 -745 40 -140 148 -276 279 -349 95 -54 149 -66 285
-66 303 1 545 113 653 303 l23 40 72 -44 c217 -132 381 -106 459 75 13 30 15
32 31 18 10 -9 44 -29 77 -44 50 -23 73 -28 140 -28 79 0 81 1 145 47 48 34
73 61 95 101 l29 55 39 -34 c98 -83 349 -106 467 -43 105 56 157 149 185 327
26 166 20 153 67 136 95 -33 198 -4 274 77 94 101 117 161 115 309 -1 181 -44
371 -123 539 -22 47 -41 98 -42 112 -1 15 -21 52 -44 82 -23 31 -42 62 -42 69
0 26 -68 153 -102 192 l-35 40 24 74 c30 96 42 201 38 337 -7 192 -43 330
-135 515 -26 52 -51 106 -55 120 -10 30 -270 394 -361 505 -147 178 -315 461
-402 676 -21 52 -77 218 -125 369 l-87 275 -100 800 c-56 440 -108 829 -116
865 -58 258 -188 492 -388 698 -182 188 -324 272 -539 317 -90 20 -115 18
-223 -10z m312 -260 c129 -43 162 -66 270 -182 115 -123 174 -207 239 -337 81
-166 115 -294 140 -531 2 -22 8 -83 14 -135 5 -52 13 -144 16 -205 36 -650
178 -1249 449 -1898 20 -48 35 -91 32 -96 -3 -4 141 -203 319 -442 337 -451
397 -546 450 -703 40 -120 56 -218 56 -353 0 -140 -13 -224 -47 -305 -34 -81
-32 -131 6 -170 43 -42 217 -348 225 -394 4 -22 18 -55 31 -75 13 -19 42 -87
63 -150 21 -63 48 -134 59 -159 50 -110 35 -211 -44 -299 -53 -59 -70 -62
-128 -25 l-42 27 -17 100 c-21 124 -71 273 -137 413 -27 59 -50 119 -50 133 0
19 14 38 49 68 27 23 51 54 55 68 9 35 -16 80 -62 110 l-37 24 -77 -19 c-127
-32 -248 -102 -248 -145 0 -14 19 -40 51 -70 40 -38 61 -69 94 -144 92 -207
150 -440 170 -672 17 -203 12 -251 -33 -318 -101 -150 -269 -133 -343 34 -21
45 -23 67 -24 230 -1 126 -6 202 -18 255 -9 41 -21 118 -27 171 -11 111 -39
209 -75 261 -14 20 -25 40 -25 44 0 4 20 29 45 55 66 71 58 117 -29 174 -27
18 -28 17 -163 -36 -155 -61 -172 -76 -153 -135 7 -20 27 -53 44 -73 55 -62
60 -71 67 -119 3 -26 20 -87 37 -137 31 -88 42 -140 68 -300 15 -93 11 -309
-6 -330 -6 -7 -17 -56 -24 -108 -18 -125 -33 -147 -100 -148 -28 0 -59 -2 -68
-4 -21 -4 -43 25 -90 120 -38 75 -40 93 -53 350 -4 77 -22 205 -51 359 l-45
240 41 34 c76 64 90 125 39 173 -46 43 -69 45 -167 14 -120 -37 -132 -46 -132
-98 1 -23 6 -55 13 -70 7 -18 10 -55 7 -100 -5 -76 7 -210 34 -367 26 -153 43
-335 45 -484 2 -128 0 -145 -25 -213 -34 -93 -47 -101 -105 -64 -110 69 -162
169 -164 311 -1 57 -7 98 -19 125 -20 45 -22 118 -5 175 10 34 7 61 -22 201
-32 159 -33 163 -14 173 36 20 94 82 100 108 12 48 -17 74 -113 103 -169 51
-166 49 -184 87 -24 50 -61 72 -112 65 -51 -7 -71 -31 -80 -97 -12 -91 23
-164 105 -216 41 -26 53 -56 89 -224 29 -133 31 -153 37 -351 7 -221 -8 -381
-37 -419 -11 -14 -31 -47 -46 -73 -36 -70 -105 -134 -180 -169 l-65 -31 -140
7 c-77 4 -160 13 -185 21 -81 24 -136 72 -178 154 -23 43 -76 355 -76 444 0
158 39 389 80 464 11 21 20 45 20 54 0 9 13 33 29 53 17 21 35 54 42 73 13 39
44 71 100 104 20 12 44 37 53 55 43 91 -1 142 -134 156 -22 3 -26 10 -36 73
-67 398 -63 1244 7 1685 31 193 101 452 140 515 10 17 21 51 25 75 9 59 71
216 101 256 28 37 29 54 4 54 -10 0 -53 23 -95 50 -43 28 -81 48 -85 45 -5 -2
-14 -18 -21 -35 -7 -16 -15 -30 -19 -30 -11 0 -302 937 -322 1035 -26 130 -57
359 -68 495 -10 117 -7 596 4 660 26 155 77 305 101 296 10 -4 14 4 14 28 0
19 12 59 26 91 22 47 25 66 20 108 -5 45 -2 58 29 113 59 106 170 211 283 268
112 57 276 65 408 21z"/>
<path d="M6677 4587 c-28 -24 -37 -40 -37 -63 0 -17 37 -120 82 -230 l82 -199
1 -173 0 -174 37 -34 c37 -33 60 -40 93 -28 19 8 55 76 80 152 31 97 17 282
-30 372 -8 16 -15 39 -15 51 0 12 -6 30 -13 38 -8 9 -22 45 -32 80 -24 79 -79
166 -132 209 -51 40 -68 40 -116 -1z"/>
<path d="M3845 8976 c-258 -60 -490 -197 -705 -415 -227 -230 -357 -489 -406
-812 -15 -97 -22 -479 -11 -534 3 -11 8 -45 11 -75 4 -30 18 -109 32 -175 l24
-120 -79 -503 c-57 -364 -83 -506 -94 -515 -27 -22 -360 -410 -430 -501 -169
-221 -293 -468 -372 -741 -14 -48 -25 -93 -25 -100 0 -7 -9 -23 -19 -36 -12
-15 -23 -56 -31 -104 -6 -44 -24 -117 -40 -162 -41 -114 -61 -232 -61 -359 0
-69 -6 -126 -15 -156 -9 -26 -16 -68 -18 -93 -5 -98 26 -286 62 -379 15 -39
15 -39 -17 -68 -18 -16 -46 -62 -67 -108 -19 -44 -48 -100 -65 -125 -48 -71
-98 -187 -118 -277 -11 -46 -30 -168 -42 -272 -19 -160 -21 -201 -11 -270 23
-173 84 -275 247 -413 128 -108 159 -118 259 -83 33 11 60 20 61 20 1 0 10
-20 19 -45 24 -60 93 -121 165 -142 31 -9 94 -17 141 -17 122 -1 180 32 230
134 12 25 24 47 26 48 1 2 27 -21 57 -51 73 -75 143 -109 234 -115 129 -8 245
44 304 137 l15 23 39 -53 c76 -101 180 -139 287 -105 105 34 183 90 260 187
38 49 72 89 74 89 1 0 47 -45 100 -101 82 -83 112 -107 179 -140 98 -48 174
-63 285 -56 105 8 200 34 310 88 69 34 102 59 171 129 73 73 94 102 138 191
60 122 83 216 83 344 -1 105 -10 158 -53 298 -40 130 -77 211 -134 297 -64 96
-78 141 -60 188 7 20 16 64 19 97 3 33 12 80 20 105 28 83 35 163 33 380 -3
210 -4 217 -33 305 -17 50 -39 124 -49 165 -44 188 -113 339 -255 555 -96 148
-211 369 -231 445 -12 45 -11 47 48 165 60 118 61 124 93 310 18 105 52 298
75 430 24 132 48 283 55 335 26 219 69 409 145 648 139 442 202 906 173 1287
-28 385 -296 712 -658 807 -99 25 -294 33 -375 14z m304 -226 c140 -37 241
-107 333 -229 58 -77 77 -113 104 -190 60 -177 78 -294 78 -496 1 -225 -1
-232 -160 -817 -91 -336 -125 -479 -130 -540 -3 -46 -39 -276 -80 -513 -66
-378 -80 -447 -122 -567 -26 -76 -50 -138 -53 -138 -3 0 -28 16 -54 36 l-47
37 -60 -60 -60 -60 57 -114 c32 -63 74 -136 95 -164 31 -41 147 -252 402 -725
17 -30 33 -59 38 -65 15 -20 68 -173 93 -270 72 -275 71 -572 -4 -835 -11 -41
-23 -103 -26 -137 l-5 -62 102 -208 c56 -114 104 -221 107 -238 4 -16 15 -50
26 -75 27 -61 36 -292 13 -330 -8 -14 -33 -61 -54 -105 -65 -133 -183 -224
-339 -261 -92 -22 -213 -15 -272 16 -48 24 -129 101 -148 140 -60 126 -88 202
-112 309 -28 122 -29 134 -27 351 l3 224 46 41 c59 51 68 86 35 135 -36 52
-91 80 -163 80 -108 0 -167 -35 -181 -108 -5 -26 -1 -37 26 -63 l32 -33 -12
-95 c-7 -52 -12 -160 -12 -240 1 -102 -8 -212 -28 -374 -37 -287 -38 -289
-166 -331 -100 -32 -87 -41 -149 89 -67 141 -71 168 -100 580 -3 44 -10 131
-16 194 -9 98 -8 123 7 185 9 39 25 82 36 95 41 53 20 89 -74 128 -123 52
-150 58 -185 40 -42 -22 -52 -38 -57 -86 -3 -36 1 -48 24 -74 26 -31 28 -38
35 -167 4 -74 11 -193 15 -265 9 -142 4 -424 -9 -566 -9 -95 -22 -124 -72
-162 -14 -10 -44 -21 -65 -24 -34 -4 -46 0 -84 29 -47 36 -84 90 -99 148 -6
19 -17 121 -26 225 -9 105 -23 262 -30 350 -20 225 -20 270 5 295 11 11 24 20
29 20 16 0 61 49 61 68 0 10 -14 39 -31 65 -23 35 -46 54 -95 78 -89 44 -133
44 -179 -1 -32 -31 -36 -40 -34 -80 1 -25 -4 -56 -11 -70 -16 -30 -16 -98 0
-240 6 -58 14 -250 17 -427 5 -310 5 -322 -14 -350 -11 -15 -24 -46 -30 -68
l-9 -40 -67 -1 c-37 -1 -73 3 -80 10 -18 14 -49 359 -42 466 2 41 7 125 10
185 7 148 42 286 84 329 17 18 31 38 31 46 0 73 -69 164 -149 199 -55 23 -71
20 -119 -21 -24 -20 -32 -35 -32 -60 0 -19 5 -39 11 -45 8 -8 5 -40 -10 -114
-35 -181 -43 -259 -46 -451 -2 -166 -5 -190 -23 -220 -21 -36 -37 -82 -47
-141 -5 -34 -9 -37 -28 -31 -39 12 -68 42 -114 116 -59 95 -83 204 -84 373 -1
174 30 304 110 462 17 35 31 78 31 98 0 53 34 111 113 193 l70 72 -16 88 c-54
280 -49 530 18 892 45 248 147 565 242 755 97 191 193 319 434 574 271 286
283 317 375 971 42 299 45 409 20 580 -44 303 -38 642 15 880 41 179 66 235
180 407 115 171 162 220 299 308 58 38 258 139 329 167 83 33 262 42 350 18z"/>
<path d="M3490 4627 c-70 -36 -195 -248 -231 -397 -18 -71 -21 -103 -16 -205
6 -132 27 -221 82 -339 37 -82 71 -117 112 -118 35 -1 91 29 98 52 3 9 -5 47
-18 86 -45 131 -60 271 -45 414 7 67 17 101 48 165 22 44 53 96 70 116 65 76
70 149 12 205 -38 36 -69 43 -112 21z"/>
</g>
</svg>
