<?xml version="1.0" standalone="no"?>
<!DOCTYPE svg PUBLIC "-//W3C//DTD SVG 20010904//EN"
 "http://www.w3.org/TR/2001/REC-SVG-20010904/DTD/svg10.dtd">
<svg version="1.0" xmlns="http://www.w3.org/2000/svg"
 width="1024.000000pt" height="1024.000000pt" viewBox="0 0 1024.000000 1024.000000"
 preserveAspectRatio="xMidYMid meet">
<metadata>
Created by potrace 1.10, written by Peter Selinger 2001-2011
</metadata>
<g transform="translate(0.000000,1024.000000) scale(0.100000,-0.100000)"
fill="#000000" stroke="none">
<path d="M6724 9130 c-27 -11 -49 -58 -74 -161 -25 -105 -28 -145 -35 -409 -3
-118 -8 -237 -10 -265 -5 -54 -11 -184 -21 -445 -4 -91 -8 -172 -10 -180 -1
-8 -3 -32 -3 -53 l-1 -39 -152 7 c-84 4 -160 8 -168 10 -8 1 -41 -3 -74 -10
l-58 -12 8 291 c13 463 13 494 -13 542 -31 58 -89 107 -116 98 -37 -11 -47
-27 -62 -102 -40 -189 -47 -322 -40 -697 4 -198 8 -382 10 -410 1 -27 6 -185
10 -350 7 -319 14 -392 46 -489 61 -183 173 -291 415 -401 71 -32 132 -61 136
-64 3 -3 9 -53 12 -111 7 -109 9 -135 27 -365 38 -498 149 -1139 299 -1737
215 -855 471 -1583 790 -2243 40 -82 81 -183 91 -224 21 -82 61 -153 96 -172
32 -17 94 3 144 48 34 31 39 41 39 78 0 35 -7 50 -38 86 -40 45 -122 211 -122
245 0 11 -22 74 -49 139 -234 571 -489 1220 -534 1360 -117 357 -184 619 -277
1069 -32 160 -77 377 -99 481 -75 359 -123 744 -137 1083 -5 143 -4 172 7 172
8 0 293 -91 634 -201 854 -276 836 -271 877 -272 47 -1 80 16 103 55 23 40 25
106 3 121 -9 7 -382 129 -828 272 l-812 260 6 460 c4 253 8 478 10 500 2 22 5
93 6 159 l2 119 322 -7 c176 -4 364 -9 416 -11 52 -2 203 -7 335 -10 174 -5
273 -12 360 -27 204 -35 237 -27 283 65 26 50 23 80 -8 97 -31 16 -347 61
-465 65 -116 4 -330 10 -760 21 -143 4 -285 8 -315 9 -30 1 -76 3 -102 4 l-48
1 4 53 c3 28 7 117 11 197 3 80 8 172 10 205 2 33 7 123 10 200 3 77 8 172 10
210 3 39 7 120 10 180 8 158 15 222 32 290 21 86 11 139 -37 187 -38 38 -64
45 -106 28z m-164 -1776 c0 -13 -6 -105 -14 -206 -24 -303 -28 -402 -28 -661
l0 -248 -36 22 c-20 12 -83 48 -138 81 -100 58 -102 59 -132 126 -48 106 -57
154 -67 367 -3 66 -8 152 -10 190 -2 39 -7 134 -11 213 l-7 143 222 -2 c220
-3 221 -3 221 -25z"/>
<path d="M4628 8387 c-44 -39 -45 -44 -53 -297 -4 -102 -15 -246 -26 -320 -10
-74 -19 -179 -19 -233 l0 -97 -25 16 c-23 15 -31 12 -262 -99 -270 -131 -509
-232 -739 -313 -88 -30 -163 -56 -168 -57 -14 -3 -166 915 -154 930 7 8 6 36
-2 83 -11 67 -14 72 -48 89 -48 23 -77 15 -116 -33 l-31 -38 -3 -146 c-4 -167
5 -259 53 -522 68 -377 75 -417 75 -432 0 -10 -61 -38 -187 -88 -494 -192
-941 -395 -986 -449 -41 -49 -37 -150 8 -194 29 -29 69 -19 222 57 169 83 402
187 578 256 260 102 395 153 399 149 2 -2 7 -58 10 -124 4 -66 8 -149 11 -185
2 -36 7 -112 10 -170 3 -58 8 -134 10 -170 4 -63 9 -157 20 -370 3 -58 8 -130
11 -161 l6 -56 -509 -127 c-279 -69 -530 -128 -558 -131 -27 -2 -79 -7 -114
-10 -35 -3 -77 -13 -93 -21 -49 -25 -72 -103 -46 -158 12 -28 37 -40 83 -38
23 1 712 138 1198 238 28 6 29 6 23 -38 -6 -37 -63 -667 -96 -1053 -18 -201
-81 -518 -160 -801 -61 -219 -138 -447 -170 -510 -17 -31 -57 -136 -89 -233
-102 -305 -252 -670 -311 -755 -39 -59 -113 -209 -144 -296 -18 -49 -75 -149
-168 -295 -77 -121 -149 -229 -159 -240 -49 -54 -62 -139 -29 -192 28 -46 60
-51 117 -17 104 61 200 176 243 293 12 31 30 65 40 76 10 11 30 49 44 84 14
35 44 83 66 107 34 37 40 50 40 88 0 35 11 62 56 137 76 129 172 328 235 489
29 74 58 142 64 150 7 8 67 170 133 360 67 190 137 381 155 425 46 107 110
307 148 457 27 109 45 224 63 403 6 63 14 135 21 195 2 19 7 60 10 90 3 30 19
181 35 335 17 154 33 305 36 335 3 30 7 66 9 80 2 14 11 105 21 203 10 98 22
184 28 191 6 7 78 39 160 71 172 68 507 234 645 320 261 162 399 371 471 712
25 116 28 201 35 853 3 267 7 517 10 555 2 39 7 108 9 155 3 47 13 123 22 170
32 167 19 245 -51 313 -47 45 -69 46 -117 4z m-84 -1472 c-3 -203 -21 -399
-54 -582 -30 -159 -84 -259 -213 -387 -130 -129 -219 -189 -442 -300 -157 -78
-383 -171 -392 -162 -4 3 -8 101 -18 371 -3 88 -8 183 -10 210 -2 28 -7 93
-10 145 -7 120 -12 178 -30 370 -8 85 -11 157 -7 161 4 4 77 33 162 64 293
109 667 283 905 423 l100 58 6 -85 c3 -47 4 -176 3 -286z"/>
</g>
</svg>
