<?xml version="1.0" standalone="no"?>
<!DOCTYPE svg PUBLIC "-//W3C//DTD SVG 20010904//EN"
 "http://www.w3.org/TR/2001/REC-SVG-20010904/DTD/svg10.dtd">
<svg version="1.0" xmlns="http://www.w3.org/2000/svg"
 width="1024.000000pt" height="1024.000000pt" viewBox="0 0 1024.000000 1024.000000"
 preserveAspectRatio="xMidYMid meet">
<metadata>
Created by potrace 1.10, written by Peter Selinger 2001-2011
</metadata>
<g transform="translate(0.000000,1024.000000) scale(0.100000,-0.100000)"
fill="#000000" stroke="none">
<path d="M6809 7942 l-69 -3 0 -29 c0 -17 -4 -30 -10 -30 -15 0 -12 -31 4 -44
23 -18 122 -187 151 -257 58 -143 68 -199 72 -424 l5 -210 -366 -59 -366 -58
-49 45 c-62 58 -89 72 -319 156 l-192 70 -85 -45 c-47 -25 -85 -49 -85 -52 0
-15 38 -60 105 -127 118 -117 170 -242 201 -485 19 -151 33 -1160 16 -1160 -5
0 -152 -14 -326 -30 -173 -17 -328 -28 -343 -26 -16 2 -59 7 -98 11 -38 3 -86
8 -105 10 -19 2 -62 6 -95 10 -33 3 -83 8 -112 11 l-52 6 31 -103 c26 -88 37
-111 72 -147 50 -53 113 -96 175 -119 25 -9 64 -32 87 -50 86 -69 134 -76 282
-39 53 14 205 38 337 55 132 17 254 33 270 36 332 47 893 115 946 115 l70 0
-4 -677 c-4 -635 -5 -685 -25 -783 -77 -393 -83 -434 -78 -518 11 -154 44
-259 117 -362 74 -106 149 -135 220 -87 70 47 108 130 136 297 13 82 16 232
17 1128 l0 1032 46 2 c25 0 56 2 70 3 14 1 88 5 165 9 77 4 163 9 190 11 28 2
109 7 180 10 72 3 157 8 190 10 33 2 110 7 170 10 61 3 146 8 190 10 44 3 121
7 170 10 238 13 292 18 316 31 69 35 107 131 76 190 -8 16 -44 56 -78 90 -59
56 -72 64 -177 98 -137 46 -57 49 -875 -40 -324 -35 -599 -64 -611 -64 l-22 0
0 630 c0 347 1 630 1 630 1 0 174 25 385 55 211 30 401 55 421 55 118 0 209
53 209 121 0 127 -198 295 -360 306 -60 5 -84 -1 -315 -75 -137 -44 -271 -83
-297 -87 l-47 -7 4 33 c2 19 6 165 10 325 l7 291 -44 40 c-23 22 -69 64 -100
93 -32 29 -58 61 -58 71 0 19 -10 22 -60 20 -21 -1 -22 1 -6 7 15 7 7 13 -43
36 -48 21 -73 26 -116 24 -31 -2 -87 -4 -126 -6z m151 -1981 l0 -619 -47 -6
c-46 -6 -455 -48 -625 -64 l-79 -8 3 602 c2 331 5 604 8 607 4 4 670 101 728
106 9 1 12 -129 12 -618z"/>
<path d="M3022 7389 c-18 -5 -35 -16 -38 -23 -8 -21 21 -80 61 -125 45 -50 82
-157 91 -268 6 -71 3 -87 -25 -173 -50 -149 -206 -438 -363 -674 -250 -375
-505 -688 -845 -1036 l-132 -135 18 -24 c27 -36 71 -22 193 59 176 117 351
271 609 531 l245 249 110 -121 c60 -67 142 -163 182 -213 71 -88 247 -344 272
-396 7 -14 54 -63 106 -109 81 -72 92 -86 81 -100 -64 -88 -678 -841 -754
-926 -341 -376 -794 -724 -1285 -985 -157 -84 -190 -112 -186 -155 3 -26 7
-30 37 -33 103 -10 351 90 706 284 297 162 655 425 1000 735 212 190 580 570
711 734 369 462 702 990 1079 1710 77 148 130 227 207 313 75 83 106 141 115
211 5 42 1 59 -22 107 -52 106 -220 250 -378 325 -81 38 -160 40 -215 6 -20
-13 -91 -51 -157 -85 -98 -49 -175 -77 -420 -151 -165 -50 -312 -91 -327 -91
-24 0 -26 3 -26 43 0 109 -112 255 -307 399 -146 110 -251 145 -343 117z
m1545 -671 c23 -21 25 -29 20 -83 -12 -152 -154 -451 -432 -910 -103 -170
-226 -374 -274 -453 -92 -152 -88 -150 -110 -58 -22 91 -62 157 -146 241 -108
108 -242 194 -487 315 l-206 102 261 351 c143 194 262 354 264 356 2 3 52 -19
112 -49 l109 -53 393 136 c425 148 446 152 496 105z"/>
</g>
</svg>
