<?xml version="1.0" standalone="no"?>
<!DOCTYPE svg PUBLIC "-//W3C//DTD SVG 20010904//EN"
 "http://www.w3.org/TR/2001/REC-SVG-20010904/DTD/svg10.dtd">
<svg version="1.0" xmlns="http://www.w3.org/2000/svg"
 width="1024.000000pt" height="1024.000000pt" viewBox="0 0 1024.000000 1024.000000"
 preserveAspectRatio="xMidYMid meet">
<metadata>
Created by potrace 1.10, written by Peter Selinger 2001-2011
</metadata>
<g transform="translate(0.000000,1024.000000) scale(0.100000,-0.100000)"
fill="#000000" stroke="none">
<path d="M6310 9044 c-69 -7 -456 -25 -860 -39 -1722 -61 -1723 -61 -1760 -77
-20 -8 -49 -30 -64 -49 -25 -29 -28 -39 -24 -87 3 -37 11 -60 26 -74 l21 -22
1568 58 c915 33 1579 62 1595 68 66 25 93 159 38 188 -16 9 -134 22 -370 43
-25 3 -101 -1 -170 -9z"/>
<path d="M5035 8041 c-312 -53 -441 -88 -623 -166 -219 -94 -398 -213 -569
-378 -115 -112 -204 -231 -271 -362 l-45 -90 -23 -240 c-20 -209 -22 -259 -13
-385 12 -178 29 -252 79 -355 46 -95 94 -155 174 -219 93 -75 157 -101 426
-175 139 -38 254 -71 256 -74 7 -7 24 -111 39 -237 27 -220 21 -486 -19 -890
-117 -1176 -276 -1865 -576 -2487 -109 -226 -179 -343 -206 -343 -16 0 -50
-36 -122 -127 -87 -110 -102 -134 -107 -175 l-7 -48 -206 0 c-180 0 -666 -29
-758 -45 -54 -9 -84 -41 -84 -86 0 -55 33 -82 113 -92 34 -5 899 -12 1922 -16
l1860 -8 605 -35 c666 -40 653 -40 684 21 36 68 15 120 -63 154 -123 55 -155
60 -471 64 l-295 5 -18 58 c-13 44 -29 71 -67 110 -41 42 -59 73 -91 153 -22
56 -85 185 -139 287 -135 253 -346 768 -454 1105 -19 61 -59 189 -90 285 l-55
175 -35 710 c-51 1009 -50 1000 -36 1175 17 217 16 279 -8 333 l-20 45 151 42
c84 23 193 58 242 77 316 120 565 331 741 627 90 151 125 289 125 491 0 254
-92 466 -283 651 -255 248 -607 420 -1003 489 -49 9 -155 18 -235 20 -138 4
-159 2 -425 -44z m587 -211 c229 -22 305 -39 437 -94 173 -73 309 -167 453
-313 148 -151 222 -278 263 -457 13 -56 13 -69 0 -106 -8 -23 -15 -63 -15 -88
0 -52 -53 -160 -126 -254 -24 -31 -44 -64 -44 -73 0 -38 -113 -169 -194 -224
-77 -53 -239 -143 -338 -187 -280 -126 -602 -201 -976 -226 -345 -24 -722 26
-1062 139 -90 30 -110 41 -140 76 -83 96 -103 141 -136 296 -29 144 -35 270
-19 463 13 163 18 185 45 244 117 245 326 435 655 595 213 103 449 177 665
208 41 6 86 13 100 15 68 10 240 4 432 -14z m-108 -2272 c3 -46 8 -351 12
-678 10 -1077 20 -1241 83 -1475 188 -695 275 -957 456 -1365 93 -209 310
-646 361 -725 19 -31 34 -59 31 -61 -4 -5 -2770 36 -2775 41 -2 2 30 44 72 95
165 198 352 520 460 791 103 259 231 746 300 1139 35 201 141 932 163 1120 14
122 17 240 18 555 l0 400 -27 91 -26 92 246 7 c170 4 298 14 412 30 91 12 175
23 187 24 20 1 22 -5 27 -81z"/>
<path d="M10210 920 c-12 -8 -11 -10 8 -10 12 0 22 5 22 10 0 13 -11 13 -30 0z"/>
</g>
</svg>
