<?xml version="1.0" standalone="no"?>
<!DOCTYPE svg PUBLIC "-//W3C//DTD SVG 20010904//EN"
 "http://www.w3.org/TR/2001/REC-SVG-20010904/DTD/svg10.dtd">
<svg version="1.0" xmlns="http://www.w3.org/2000/svg"
 width="1024.000000pt" height="1024.000000pt" viewBox="0 0 1024.000000 1024.000000"
 preserveAspectRatio="xMidYMid meet">
<metadata>
Created by potrace 1.10, written by Peter Selinger 2001-2011
</metadata>
<g transform="translate(0.000000,1024.000000) scale(0.100000,-0.100000)"
fill="#000000" stroke="none">
<path d="M4860 9514 c-287 -37 -339 -50 -393 -95 -34 -28 -38 -36 -38 -78 0
-25 -2 -73 -5 -106 -5 -53 -2 -67 24 -115 17 -33 36 -93 46 -150 50 -265 57
-294 91 -345 18 -27 36 -60 40 -72 6 -21 3 -22 -22 -17 -221 41 -235 42 -363
18 -144 -28 -227 -52 -385 -111 -457 -173 -852 -438 -1303 -872 -188 -182
-229 -228 -351 -391 -150 -200 -294 -438 -355 -587 -22 -51 -42 -93 -46 -93
-4 0 -15 8 -24 19 -9 10 -45 32 -79 47 -56 26 -72 29 -173 29 l-111 0 -95 -72
c-185 -139 -255 -236 -342 -475 -62 -171 -73 -336 -30 -453 14 -38 37 -102 50
-141 22 -64 34 -80 113 -157 65 -64 106 -95 157 -119 63 -30 77 -33 164 -33
86 0 101 3 160 32 36 17 87 49 115 72 l50 40 11 -37 c26 -88 120 -272 177
-347 413 -548 929 -911 1502 -1058 383 -99 691 -168 790 -177 160 -16 148 -10
185 -95 l33 -76 -6 -152 c-6 -147 -42 -395 -69 -484 -7 -23 -83 -191 -168
-373 l-155 -331 -85 6 c-65 4 -106 1 -175 -14 -49 -11 -155 -29 -235 -41 -252
-36 -448 -95 -665 -200 -389 -188 -556 -395 -558 -690 0 -148 41 -228 198
-384 123 -122 257 -217 365 -257 47 -17 126 -48 176 -69 49 -21 118 -43 152
-50 34 -6 81 -18 104 -26 24 -8 214 -37 423 -63 l380 -49 340 9 340 9 820 101
c816 100 821 100 1035 155 118 30 265 71 325 91 121 39 332 136 440 203 83 51
347 297 381 355 57 99 77 206 63 338 -28 251 -212 466 -476 558 -37 13 -259
47 -623 95 -311 41 -574 77 -586 79 -35 8 -143 322 -194 563 -45 214 -46 247
-33 661 6 193 8 216 27 244 20 29 39 36 300 113 328 97 417 127 591 201 258
110 509 247 735 401 69 47 145 94 170 105 59 26 169 119 306 259 235 239 315
352 474 666 141 278 143 280 161 265 8 -6 67 -14 131 -18 l117 -7 81 43 c261
139 423 399 422 678 -1 87 -6 112 -53 266 -28 94 -58 192 -67 219 -21 70 -98
147 -177 175 -62 24 -86 24 -250 3 -95 -12 -307 -114 -380 -183 l-51 -48 -106
197 -107 197 -246 289 -246 288 -267 221 c-147 121 -301 242 -342 269 -111 73
-318 171 -460 219 -123 41 -129 42 -412 64 -158 12 -299 20 -314 17 -26 -5
-26 -4 -11 19 9 13 19 44 22 69 11 72 75 301 101 355 14 29 21 59 18 71 -3 12
1 35 10 52 9 17 16 38 16 46 0 9 -31 51 -70 95 -110 125 -96 121 -530 142
-201 10 -383 18 -405 17 -22 0 -155 -15 -295 -34z m1127 -196 c18 -7 33 -17
33 -23 0 -7 -26 -43 -57 -80 -58 -69 -168 -147 -243 -174 -19 -7 -134 -26
-255 -42 -200 -26 -238 -28 -420 -23 -187 5 -206 8 -293 36 -110 35 -174 77
-219 142 -26 38 -31 52 -23 67 6 10 19 19 30 19 35 0 116 -36 164 -73 88 -67
114 -71 429 -64 l278 7 140 40 c122 36 154 50 252 110 61 39 120 70 131 70 11
0 35 -5 53 -12z m-16 -270 c-5 -13 -20 -51 -35 -85 -14 -34 -26 -80 -26 -102
0 -23 -11 -64 -24 -93 -14 -29 -27 -65 -31 -80 -4 -23 -11 -28 -53 -33 -26 -4
-76 -16 -112 -26 -43 -13 -192 -31 -444 -54 -339 -31 -382 -33 -413 -20 -41
17 -163 132 -163 153 0 8 -14 66 -31 129 -18 62 -30 116 -27 118 3 3 31 -6 64
-19 55 -22 84 -25 438 -41 208 -9 401 -14 429 -11 114 16 295 88 382 154 49
37 57 39 46 10z m12 -528 c34 0 197 -9 362 -20 266 -17 307 -22 360 -43 33
-13 87 -27 120 -31 68 -7 145 -41 194 -85 l33 -30 -20 -43 c-30 -64 -35 -115
-18 -196 18 -89 42 -143 90 -205 20 -26 35 -51 32 -55 -2 -4 42 -43 98 -86 83
-65 149 -134 364 -380 323 -370 462 -556 462 -618 0 -9 10 -27 21 -42 12 -15
19 -30 15 -33 -3 -4 -115 -50 -248 -104 l-243 -97 -7 41 c-3 23 -13 62 -21 87
-17 51 -212 501 -247 570 -59 116 -187 268 -293 347 -173 130 -208 155 -267
187 -91 49 -258 103 -366 117 -83 11 -94 11 -130 -7 -32 -16 -42 -27 -55 -69
-19 -59 -15 -66 54 -101 67 -34 134 -98 163 -157 27 -52 210 -786 224 -897 22
-171 35 -213 92 -310 31 -52 55 -96 54 -97 -2 -2 -266 -63 -275 -63 -14 0 -70
172 -81 248 -5 40 -21 95 -35 122 -36 71 -54 158 -61 290 -6 102 -13 137 -64
307 -121 402 -264 573 -491 590 l-66 5 -44 -47 c-24 -25 -49 -61 -55 -78 -16
-51 27 -864 59 -1097 24 -171 50 -470 42 -478 -4 -5 -223 -32 -256 -32 l-26 0
5 333 c6 402 -5 580 -58 927 -33 212 -44 264 -67 310 -49 95 -169 166 -238
140 -38 -14 -85 -59 -85 -80 0 -9 -16 -39 -35 -66 -19 -27 -35 -56 -35 -64 0
-8 -9 -37 -19 -65 -24 -61 -95 -323 -115 -421 -9 -39 -24 -136 -36 -215 -34
-239 -120 -726 -135 -770 -8 -23 -15 -56 -15 -74 l0 -32 -92 -7 c-50 -3 -132
-6 -183 -6 l-91 0 22 128 c12 70 41 271 63 447 31 240 59 404 112 654 64 307
69 339 59 380 -20 82 -94 131 -175 115 -29 -5 -56 -32 -177 -171 -78 -90 -159
-189 -180 -220 -70 -107 -291 -621 -383 -892 -74 -219 -85 -257 -76 -284 5
-18 11 -50 14 -73 l5 -40 -127 19 c-69 10 -127 20 -129 22 -2 2 5 20 16 42 11
21 36 112 57 203 21 90 51 193 66 228 16 35 29 69 29 74 0 14 77 230 102 288
11 25 37 81 58 125 22 44 42 96 46 115 13 73 151 312 249 435 21 26 39 67 52
116 20 73 20 76 2 110 -17 34 -23 37 -102 53 -48 10 -95 15 -108 11 -42 -14
-187 -104 -261 -164 -180 -144 -401 -401 -632 -736 -233 -337 -377 -579 -385
-646 l-6 -46 -148 70 c-99 47 -146 75 -143 83 3 8 92 151 198 319 l193 306
300 291 c326 317 627 640 680 730 49 83 59 128 40 174 -8 20 -14 38 -13 39 2
2 23 13 48 25 25 12 59 35 75 50 39 36 225 97 460 151 174 40 184 41 309 36
136 -6 173 2 195 40 9 16 11 16 28 2 10 -9 52 -35 93 -57 l75 -40 375 14 c206
7 384 18 395 23 11 5 45 16 76 25 66 19 141 66 170 107 18 26 22 27 35 14 10
-10 36 -15 77 -15z m3163 -1519 c21 -15 47 -37 56 -47 22 -25 104 -201 118
-253 21 -80 30 -198 21 -280 -22 -197 -203 -427 -385 -492 -143 -50 -215 0
-173 120 8 24 20 37 39 42 24 6 28 4 33 -21 3 -15 15 -36 25 -45 65 -58 296
78 365 215 45 88 59 172 45 270 -14 105 -45 174 -106 240 -104 111 -257 147
-410 96 -97 -32 -211 -106 -220 -141 -3 -14 -4 -38 -1 -53 4 -21 1 -31 -14
-40 -25 -16 -24 -52 2 -130 12 -34 19 -69 16 -76 -7 -17 -549 -394 -592 -411
-16 -7 -334 -122 -705 -256 l-675 -242 -720 -108 c-514 -76 -724 -104 -733
-97 -9 8 -16 7 -25 -5 -10 -13 -75 -19 -397 -38 -350 -20 -409 -21 -645 -10
-262 12 -424 36 -450 66 -5 7 -194 43 -420 80 l-410 67 -350 111 -350 110 -78
64 c-54 46 -89 85 -117 132 l-40 67 20 59 c28 81 26 108 -10 138 -37 32 -64
26 -93 -19 -15 -23 -27 -32 -37 -28 -40 16 -98 24 -135 19 -117 -19 -208 -96
-262 -223 l-24 -57 5 57 c6 78 54 165 127 233 79 73 129 84 259 61 112 -21
120 -17 102 52 -35 133 -167 154 -372 59 -161 -75 -284 -283 -284 -477 0 -121
20 -178 98 -276 l64 -82 139 -7 c76 -4 167 -10 202 -14 l65 -6 -102 -62 -102
-63 -98 0 -97 0 -82 83 c-95 96 -125 150 -148 269 -16 82 -17 94 -1 192 24
158 79 296 172 437 75 113 153 158 276 159 96 0 111 -6 184 -72 82 -74 110
-91 143 -83 16 3 33 16 38 27 9 20 13 18 54 -37 49 -65 121 -115 294 -206 190
-99 265 -123 667 -213 357 -81 388 -86 674 -116 l300 -31 580 16 579 15 695
94 695 93 735 241 c404 133 753 248 775 258 22 9 134 66 249 128 193 102 212
115 238 157 29 45 31 46 59 36 39 -15 72 3 114 63 36 53 130 119 212 151 43
16 87 23 171 27 87 3 110 7 102 17 -9 11 -4 25 10 25 4 0 25 -13 46 -29z
m-144 -301 c59 -23 110 -81 136 -155 22 -62 12 -172 -21 -228 -35 -60 -122
-137 -154 -137 l-25 0 27 36 c66 86 82 198 43 301 -34 92 -110 153 -192 153
-24 0 -123 -57 -135 -77 -8 -14 -10 -14 -19 4 -9 17 -7 24 16 46 15 14 49 37
76 51 64 34 169 36 248 6z m-135 -219 c21 -27 21 -31 7 -86 -13 -50 -77 -155
-95 -155 -3 0 -12 39 -19 87 -7 48 -19 102 -27 121 -16 39 -18 36 22 50 56 20
89 15 112 -17z m-7169 -530 c8 -5 20 -39 28 -77 8 -38 23 -81 34 -96 25 -34
25 -34 0 -41 -11 -3 -24 -17 -30 -31 -5 -15 -17 -26 -28 -26 -10 0 -27 -7 -38
-15 -27 -20 -115 -19 -153 3 -71 39 -67 166 7 235 48 46 144 71 180 48z m6491
-53 c-12 -23 -35 -59 -50 -79 -19 -24 -29 -49 -29 -71 0 -24 -16 -59 -59 -123
-61 -95 -375 -689 -404 -765 -9 -25 -15 -54 -12 -65 2 -11 6 -32 9 -47 3 -14
14 -28 24 -30 11 -3 -46 -46 -162 -122 -172 -114 -200 -128 -645 -329 l-466
-210 -520 -112 -520 -113 -395 -22 c-592 -34 -529 -38 -1040 75 -473 104 -551
125 -712 190 -207 85 -382 184 -559 315 -106 80 -107 81 -111 128 -10 96 -136
386 -256 587 -33 55 -64 116 -71 135 -45 138 -77 255 -72 258 3 1 65 -17 136
-41 l129 -44 29 -99 c74 -258 190 -631 202 -650 7 -12 16 -36 20 -55 5 -25 37
-66 128 -162 l122 -128 130 -15 130 -15 28 33 c45 53 62 126 62 263 -1 82 -6
137 -17 175 -16 54 -108 452 -108 469 0 4 24 4 53 0 28 -4 115 -17 193 -29
l140 -22 48 -372 c60 -473 77 -561 119 -650 66 -138 185 -230 299 -231 105 0
135 55 178 335 l32 205 -16 205 c-9 113 -20 251 -24 307 l-7 102 70 5 c38 3
148 8 243 11 l172 6 0 -194 c0 -324 25 -544 86 -753 54 -186 192 -301 284
-237 44 31 58 55 129 228 l70 170 46 275 c66 397 95 544 108 556 11 10 424 60
432 52 2 -1 -16 -145 -40 -319 -42 -301 -45 -319 -75 -365 -36 -57 -70 -160
-70 -213 0 -75 109 -151 216 -151 79 0 112 18 223 121 120 110 236 271 340
474 81 155 84 165 118 325 19 91 37 192 41 225 l7 59 168 40 c92 21 169 37
171 35 8 -7 -21 -234 -31 -254 -6 -11 -14 -49 -18 -85 -4 -36 -18 -89 -31
-119 -13 -29 -24 -58 -24 -65 0 -37 -77 -208 -125 -277 -47 -68 -55 -87 -55
-125 0 -91 72 -117 202 -73 81 27 118 54 276 199 244 223 350 394 462 741 54
167 62 199 58 250 l-4 58 125 56 c335 147 486 212 489 210 2 -2 -7 -23 -19
-47z m-2341 -2162 l-11 -34 -241 -61 -241 -61 -281 -15 c-276 -16 -282 -16
-375 5 -84 18 -119 36 -119 60 0 3 213 28 473 54 411 42 778 81 799 85 3 0 1
-14 -4 -33z m-146 -1118 c13 -18 41 -69 62 -113 29 -59 58 -98 112 -152 69
-69 76 -73 117 -73 l44 0 33 -76 c62 -141 215 -326 358 -432 34 -25 62 -49 62
-52 0 -4 -47 -39 -103 -77 -94 -63 -111 -71 -176 -81 -75 -11 -121 -32 -121
-56 0 -8 -12 -17 -27 -20 -16 -4 -176 -38 -358 -76 l-330 -70 -626 -36 -626
-37 -189 104 c-104 56 -202 111 -217 120 l-29 17 49 35 c26 20 61 46 77 59 44
34 226 266 321 408 92 138 156 254 220 396 40 89 43 92 49 63 3 -17 6 -50 6
-73 0 -38 4 -43 44 -68 53 -34 90 -36 110 -5 20 29 74 173 82 214 8 42 34 50
81 26 41 -21 73 -73 73 -117 0 -32 45 -119 93 -178 22 -28 38 -38 58 -38 25 0
36 14 113 143 94 156 111 173 152 155 26 -12 74 -92 74 -123 0 -35 50 -83 111
-105 l61 -23 24 24 c14 15 44 80 74 164 28 77 55 150 60 163 14 33 53 29 82
-10z m1516 -584 c113 -26 178 -47 232 -75 231 -119 344 -383 258 -601 -22 -56
-32 -65 -228 -224 -232 -188 -275 -212 -533 -300 -469 -159 -966 -261 -1442
-294 -88 -7 -260 -22 -383 -36 -262 -28 -323 -29 -973 -9 l-494 15 -320 81
c-310 78 -323 83 -430 141 -211 116 -300 198 -382 352 -37 69 -38 74 -38 171
0 86 3 106 24 145 30 57 222 257 276 288 22 13 60 35 85 49 l45 26 -21 -24
c-36 -42 -179 -213 -192 -231 -7 -9 -21 -67 -30 -130 -16 -107 -16 -117 0
-176 25 -95 120 -207 246 -294 74 -51 463 -245 542 -271 105 -34 177 -44 489
-67 417 -30 1051 -26 1466 10 66 6 257 29 425 51 l305 41 384 110 384 110 206
138 c255 170 294 213 341 381 24 88 25 147 4 220 -45 156 -218 348 -375 418
-24 11 -40 20 -36 20 5 1 79 -15 165 -35z m-588 -169 c103 -9 219 -58 275
-115 61 -62 69 -106 31 -183 -51 -105 -194 -237 -312 -287 -25 -11 -260 -74
-522 -141 l-477 -121 -645 -48 -644 -48 -281 34 c-323 40 -387 54 -498 110
-47 24 -148 93 -180 123 -44 41 -129 197 -135 246 -4 42 -2 46 49 101 71 74
158 135 261 183 86 40 207 76 228 69 7 -2 -41 -49 -106 -105 -159 -135 -153
-127 -140 -191 10 -48 17 -57 86 -113 88 -72 314 -185 449 -224 l86 -25 590
30 590 31 405 84 c284 60 420 92 455 110 28 14 86 36 130 50 133 41 255 125
331 228 32 43 41 63 36 78 -4 11 -48 47 -97 80 -69 46 -83 59 -60 55 17 -3 59
-8 95 -11z"/>
</g>
</svg>
