<?xml version="1.0" standalone="no"?>
<!DOCTYPE svg PUBLIC "-//W3C//DTD SVG 20010904//EN"
 "http://www.w3.org/TR/2001/REC-SVG-20010904/DTD/svg10.dtd">
<svg version="1.0" xmlns="http://www.w3.org/2000/svg"
 width="1024.000000pt" height="1024.000000pt" viewBox="0 0 1024.000000 1024.000000"
 preserveAspectRatio="xMidYMid meet">
<metadata>
Created by potrace 1.10, written by Peter Selinger 2001-2011
</metadata>
<g transform="translate(0.000000,1024.000000) scale(0.100000,-0.100000)"
fill="#000000" stroke="none">
<path d="M7035 8660 c-42 -12 -217 -30 -1905 -195 -817 -81 -1573 -152 -1680
-160 l-195 -14 -315 33 c-173 18 -318 31 -321 30 -8 -4 18 -155 28 -164 5 -4
107 -73 228 -152 326 -215 322 -214 473 -193 59 8 258 44 442 80 l335 65 1290
111 1290 110 225 -11 c124 -6 290 -15 369 -20 159 -11 208 -4 247 35 55 55 22
137 -107 261 -68 65 -86 76 -217 132 -78 34 -146 62 -150 61 -4 0 -20 -5 -37
-9z"/>
<path d="M6895 7039 c-125 -40 -356 -67 -1890 -225 -891 -91 -1661 -168 -1711
-171 -70 -4 -111 -1 -180 15 -49 11 -150 25 -226 32 -134 12 -140 12 -226 -16
-7 -2 29 -40 79 -86 96 -86 162 -166 191 -233 10 -22 94 -364 188 -760 213
-895 216 -907 245 -966 73 -143 197 -189 281 -105 31 31 54 87 54 134 0 12 3
22 7 22 3 0 126 9 272 20 146 11 826 60 1511 110 685 49 1262 92 1284 95 57 8
95 32 113 70 l16 33 -50 64 -50 63 174 375 c96 206 193 427 215 490 51 148
104 261 159 340 24 35 67 98 95 140 l51 76 -83 120 c-84 120 -151 188 -279
279 -111 79 -180 103 -240 84z m-140 -465 c50 -23 61 -59 42 -141 -13 -58
-308 -1087 -338 -1180 -6 -19 -18 -33 -32 -36 -12 -3 -155 -26 -317 -52 -277
-42 -360 -50 -1354 -125 -583 -44 -1062 -77 -1065 -74 -9 9 -238 1339 -232
1345 3 4 159 24 346 44 187 20 502 54 700 75 198 22 466 51 595 66 143 15 476
39 850 59 743 39 762 40 805 19z"/>
<path d="M6061 4547 c-13 -6 -30 -21 -37 -32 -12 -18 -7 -26 41 -82 95 -110
124 -232 106 -445 -13 -152 -40 -293 -82 -427 -71 -222 -320 -804 -496 -1158
-101 -204 -106 -213 -134 -213 -16 0 -143 -7 -282 -15 -138 -8 -877 -51 -1642
-94 -1559 -88 -1541 -88 -1903 -32 -97 15 -179 26 -181 25 -2 -2 7 -57 20
-123 l23 -120 165 -104 c126 -79 203 -120 318 -167 l151 -62 111 26 c61 15
371 70 688 122 l578 95 1070 49 c589 27 1419 65 1845 85 l775 36 620 -47 c341
-25 678 -47 748 -48 l129 -1 24 29 c28 32 27 60 -8 134 -61 129 -421 379 -617
428 -62 15 -66 15 -170 -10 -224 -56 -592 -93 -1385 -141 -407 -24 -741 -43
-743 -41 -2 2 65 109 150 237 263 402 426 671 592 979 102 190 246 421 282
453 46 41 87 127 78 167 -9 43 -107 144 -219 229 -50 38 -179 116 -289 175
-179 96 -204 106 -250 106 -29 0 -63 -6 -76 -13z"/>
<path d="M3536 3978 c-9 -12 -16 -27 -16 -32 0 -4 38 -77 84 -160 212 -382
377 -746 511 -1126 91 -260 134 -330 202 -330 134 0 200 163 173 430 -17 169
-50 286 -120 425 -84 167 -166 273 -364 469 -195 192 -309 289 -381 322 -62
29 -70 30 -89 2z"/>
</g>
</svg>
