<?xml version="1.0" standalone="no"?>
<!DOCTYPE svg PUBLIC "-//W3C//DTD SVG 20010904//EN"
 "http://www.w3.org/TR/2001/REC-SVG-20010904/DTD/svg10.dtd">
<svg version="1.0" xmlns="http://www.w3.org/2000/svg"
 width="1024.000000pt" height="1024.000000pt" viewBox="0 0 1024.000000 1024.000000"
 preserveAspectRatio="xMidYMid meet">
<metadata>
Created by potrace 1.10, written by Peter Selinger 2001-2011
</metadata>
<g transform="translate(0.000000,1024.000000) scale(0.100000,-0.100000)"
fill="#000000" stroke="none">
<path d="M4454 9260 c-12 -5 -31 -25 -44 -45 -18 -30 -22 -47 -18 -98 3 -52
13 -77 57 -157 257 -462 308 -921 175 -1573 -67 -333 -161 -630 -246 -783
-159 -288 -423 -613 -680 -836 -202 -175 -299 -242 -724 -492 -379 -222 -575
-306 -844 -360 -298 -59 -560 -60 -782 -1 -158 43 -180 43 -207 9 -26 -33 -26
-57 -2 -111 23 -50 45 -65 141 -98 287 -98 556 -110 840 -40 251 63 704 262
1071 470 425 242 715 471 998 791 l108 121 46 -76 c37 -61 122 -154 437 -475
232 -235 389 -404 386 -411 -5 -13 -133 -180 -660 -858 -211 -273 -248 -326
-256 -365 -9 -52 4 -90 42 -116 33 -24 70 -19 114 13 23 16 218 261 479 599
242 314 443 571 446 571 4 1 197 -194 430 -431 232 -238 525 -536 649 -663
124 -126 716 -731 1315 -1344 1040 -1063 1100 -1126 1303 -1375 123 -151 226
-268 245 -278 60 -34 171 -14 195 35 10 21 10 32 -1 60 -12 28 -407 447 -897
952 -59 61 -493 513 -965 1005 -472 492 -908 947 -970 1010 -61 63 -327 340
-590 615 -263 275 -501 523 -528 552 l-50 52 43 63 c230 332 466 617 804 971
83 87 155 165 159 173 18 31 10 74 -17 103 -32 33 -96 57 -119 45 -9 -5 -63
-51 -122 -103 -109 -97 -236 -237 -319 -351 -72 -99 -580 -739 -587 -740 -11
0 -899 907 -899 918 0 6 65 141 143 300 153 307 209 453 266 692 38 156 88
479 103 667 20 259 -16 539 -106 821 -24 76 -51 169 -60 207 -32 137 -108 264
-199 336 -50 40 -66 44 -103 29z"/>
<path d="M6442 3400 c0 -8 6 -31 13 -50 7 -19 13 -28 13 -20 0 8 -6 31 -13 50
-7 19 -13 28 -13 20z"/>
</g>
</svg>
