<?xml version="1.0" standalone="no"?>
<!DOCTYPE svg PUBLIC "-//W3C//DTD SVG 20010904//EN"
 "http://www.w3.org/TR/2001/REC-SVG-20010904/DTD/svg10.dtd">
<svg version="1.0" xmlns="http://www.w3.org/2000/svg"
 width="1024.000000pt" height="1024.000000pt" viewBox="0 0 1024.000000 1024.000000"
 preserveAspectRatio="xMidYMid meet">
<metadata>
Created by potrace 1.10, written by Peter Selinger 2001-2011
</metadata>
<g transform="translate(0.000000,1024.000000) scale(0.100000,-0.100000)"
fill="#000000" stroke="none">
<path d="M5142 8234 l-82 -46 20 -28 c11 -16 34 -41 51 -57 97 -90 177 -224
210 -352 19 -74 19 -119 19 -1516 0 -791 -4 -1442 -8 -1446 -16 -15 -1208
-300 -1337 -320 l-140 -22 -240 30 c-161 20 -241 26 -243 19 -1 -6 8 -47 21
-91 l23 -80 175 -116 c181 -121 218 -139 288 -139 49 0 69 9 129 57 81 66 362
164 862 302 176 48 461 113 468 106 3 -3 -9 -474 -28 -1048 -18 -573 -33
-1098 -33 -1167 1 -151 14 -226 60 -345 49 -125 67 -158 105 -190 27 -23 39
-26 73 -22 86 12 137 124 155 342 6 70 10 620 10 1317 l0 1197 43 5 c23 4 245
24 492 46 248 23 464 43 481 46 42 6 83 39 101 81 l14 35 -77 86 c-76 85 -80
88 -183 129 -94 39 -110 42 -160 36 -32 -3 -78 -18 -106 -34 -76 -42 -211 -86
-412 -135 -100 -24 -185 -44 -189 -44 -12 0 3 2990 16 3049 6 30 9 70 5 89 -7
40 -74 111 -134 142 -65 33 -324 130 -346 130 -11 -1 -57 -21 -103 -46z"/>
<path d="M3831 7317 c-6 -6 -11 -14 -11 -18 0 -4 42 -38 93 -77 193 -144 365
-305 512 -477 122 -142 189 -178 268 -140 49 23 74 67 89 152 16 94 1 160 -50
227 -36 47 -42 50 -277 147 -185 76 -283 110 -427 148 -131 34 -190 45 -197
38z"/>
<path d="M3673 5989 c-9 -9 9 -26 65 -68 184 -137 385 -318 477 -430 57 -69
220 -191 256 -191 64 0 111 61 131 169 21 114 -20 214 -114 277 -98 66 -314
144 -578 209 -192 48 -219 52 -237 34z"/>
</g>
</svg>
