<?xml version="1.0" standalone="no"?>
<!DOCTYPE svg PUBLIC "-//W3C//DTD SVG 20010904//EN"
 "http://www.w3.org/TR/2001/REC-SVG-20010904/DTD/svg10.dtd">
<svg version="1.0" xmlns="http://www.w3.org/2000/svg"
 width="1024.000000pt" height="1024.000000pt" viewBox="0 0 1024.000000 1024.000000"
 preserveAspectRatio="xMidYMid meet">
<metadata>
Created by potrace 1.10, written by Peter Selinger 2001-2011
</metadata>
<g transform="translate(0.000000,1024.000000) scale(0.100000,-0.100000)"
fill="#000000" stroke="none">
<path d="M7911 9238 c-50 -9 -101 -43 -101 -68 0 -10 -286 -327 -670 -742
-531 -572 -700 -748 -810 -843 -157 -135 -641 -653 -689 -736 -28 -50 -632
-712 -798 -874 -50 -49 -305 -319 -567 -600 -262 -280 -502 -532 -534 -558
-68 -57 -86 -88 -79 -133 l6 -34 -48 0 c-114 0 -329 -76 -467 -165 -32 -22
-104 -66 -159 -99 -169 -103 -315 -222 -466 -382 -91 -96 -525 -670 -610 -806
-208 -335 -370 -752 -454 -1169 -45 -220 -27 -368 59 -492 35 -50 42 -66 35
-85 -5 -12 -6 -29 -3 -37 17 -44 89 -61 1294 -299 l1185 -234 365 -21 365 -21
62 30 c49 25 70 43 106 93 45 62 92 108 232 226 41 35 74 69 73 76 -2 6 56 79
127 161 104 118 159 194 268 365 l137 217 126 332 c137 363 182 528 204 750
13 132 5 200 -34 287 -51 111 -67 121 -692 427 -313 153 -572 281 -577 285 -4
4 844 948 1886 2097 1041 1150 1942 2153 2004 2229 61 77 141 169 178 205 124
120 150 173 100 206 -14 9 -25 21 -25 28 0 6 -30 70 -68 142 -57 112 -75 138
-118 172 l-51 40 -375 18 c-207 11 -395 16 -417 12z m384 -190 c-22 -24 -79
-83 -126 -133 -77 -80 -519 -625 -519 -640 0 -9 83 36 123 68 21 16 66 66 99
111 90 119 308 377 343 405 78 64 154 150 166 190 l12 41 94 0 c51 0 93 -2 93
-5 0 -3 -159 -189 -353 -413 -194 -224 -364 -426 -377 -449 -14 -23 -781 -909
-1705 -1969 -924 -1060 -1683 -1931 -1686 -1937 -9 -13 -341 188 -404 246 -61
55 -121 77 -210 77 l-59 0 66 63 c37 34 537 573 1112 1199 575 625 1050 1138
1054 1140 5 1 422 440 927 973 505 534 925 974 932 978 7 4 22 26 33 47 20 39
20 39 87 43 38 2 129 4 203 5 l134 2 -39 -42z m481 -201 l26 -79 -70 -72 c-39
-39 -100 -112 -134 -162 -41 -59 -645 -736 -1733 -1940 -918 -1017 -1685
-1865 -1703 -1884 l-33 -35 30 45 c95 147 181 284 181 291 0 4 -10 11 -22 15
-18 5 -29 -1 -56 -32 -67 -78 -192 -251 -234 -324 -23 -41 -84 -124 -135 -184
-73 -86 -93 -115 -93 -140 -1 -25 -15 -46 -69 -102 l-68 -71 -47 26 c-25 14
-44 30 -43 36 2 5 932 1077 2068 2381 l2064 2371 22 -30 c12 -17 34 -66 49
-110z m-4858 -4371 c35 -31 148 -252 166 -321 30 -120 29 -204 -3 -445 -28
-205 -35 -238 -81 -368 -38 -105 -71 -176 -127 -270 -42 -70 -82 -130 -89
-135 -7 -4 -42 -49 -77 -100 -36 -50 -78 -103 -93 -117 -16 -13 -208 -193
-428 -400 -219 -206 -421 -390 -448 -408 -47 -32 -281 -156 -245 -130 10 7 67
45 126 84 129 85 749 636 861 766 71 82 107 135 269 393 l88 140 63 260 c61
253 62 263 57 365 -6 125 -37 229 -99 332 -44 74 -75 98 -157 122 -72 21 -148
20 -258 -3 -190 -41 -336 -115 -525 -267 -273 -219 -573 -549 -750 -824 -130
-201 -244 -438 -292 -604 -10 -33 -31 -87 -48 -120 -39 -77 -123 -340 -137
-426 -31 -192 2 -310 95 -340 39 -13 232 -18 324 -8 l65 7 -43 -14 c-24 -8
-116 -26 -204 -41 -187 -31 -229 -28 -291 20 l-42 32 3 90 c5 135 86 589 127
711 101 297 201 484 481 899 328 486 416 577 870 901 l211 151 169 50 169 51
135 -6 c119 -5 138 -8 158 -27z m576 -371 c45 -24 128 -70 186 -103 195 -112
844 -438 959 -482 130 -50 210 -104 263 -176 47 -64 53 -108 38 -286 -9 -116
-21 -182 -66 -353 -30 -115 -65 -235 -79 -265 -14 -30 -34 -84 -43 -120 -14
-51 -61 -133 -211 -373 -106 -170 -196 -318 -199 -330 -8 -32 -218 -253 -350
-369 -62 -55 -110 -103 -108 -107 3 -4 -13 -21 -34 -37 -22 -16 -40 -32 -40
-36 0 -4 -14 -23 -31 -43 l-31 -35 -233 0 -232 0 -922 185 c-506 102 -931 185
-943 185 -42 0 -184 136 -153 147 6 1 94 45 198 97 106 53 187 88 187 81 0 -7
26 -19 58 -27 31 -9 95 -27 142 -42 91 -29 247 -56 321 -56 35 0 51 5 68 24
17 18 20 26 9 32 -7 4 -127 36 -266 69 l-254 62 145 101 146 102 33 -19 c18
-11 121 -40 228 -65 107 -26 242 -60 300 -77 58 -17 123 -35 145 -41 47 -12
139 -5 177 12 l27 13 -24 19 c-44 34 -90 47 -456 123 -200 42 -368 77 -373 78
-4 2 96 96 223 210 199 177 235 206 251 197 10 -5 71 -28 134 -51 100 -35 122
-39 158 -32 27 5 44 15 46 25 2 12 -32 28 -151 69 l-155 54 29 35 c15 19 56
66 91 103 l63 68 145 -47 c96 -30 170 -61 220 -91 68 -42 116 -57 549 -179
363 -102 479 -131 493 -123 26 14 16 25 -60 63 -153 76 -419 173 -612 221 -36
9 -195 62 -354 116 -255 89 -292 99 -319 90 -42 -15 -43 -14 -20 12 11 12 69
95 128 185 60 89 113 162 119 162 6 0 101 -30 211 -67 283 -94 735 -213 758
-199 25 16 21 32 -16 60 -58 45 -139 74 -260 95 -81 13 -201 47 -381 107
l-263 88 27 81 c56 165 99 391 115 598 4 48 10 87 13 87 4 0 41 -25 82 -56
112 -83 199 -138 297 -188 87 -43 251 -106 279 -106 58 0 -57 108 -173 161
-76 35 -439 257 -484 296 -10 8 -21 45 -28 100 -7 48 -15 100 -18 116 -6 28
-4 27 97 -38 57 -37 140 -86 184 -110z m-808 -20 c27 -14 57 -36 66 -49 22
-31 58 -241 58 -343 0 -44 -4 -105 -10 -134 -10 -53 -54 -215 -70 -254 -29
-72 -77 -165 -137 -262 -58 -96 -107 -155 -338 -404 -345 -371 -533 -536 -757
-664 -143 -81 -392 -187 -471 -201 -56 -10 -119 4 -170 36 l-45 28 67 269 c41
164 78 287 94 318 15 27 27 56 27 63 0 7 11 32 24 55 14 23 49 106 79 183 48
128 67 161 187 340 73 110 134 200 135 202 1 1 74 -28 161 -64 87 -37 184 -73
214 -80 57 -14 197 -17 238 -5 l24 6 -24 22 c-16 15 -101 42 -292 92 -149 39
-271 73 -273 75 -2 1 68 84 155 184 141 163 183 200 194 173 2 -5 20 -20 41
-34 43 -29 110 -43 145 -30 22 8 16 14 -69 68 l-93 59 75 69 c143 132 322 229
512 277 143 36 189 37 253 5z"/>
<path d="M7990 9014 c-98 -74 -163 -129 -285 -242 -202 -188 -219 -207 -252
-273 -38 -76 -49 -113 -35 -108 17 6 682 660 682 670 0 22 -41 5 -110 -47z"/>
<path d="M7427 8153 c-35 -25 -57 -66 -43 -80 3 -3 34 5 68 18 48 19 64 30 66
47 3 16 -4 25 -23 32 -14 5 -27 10 -28 10 -1 0 -19 -12 -40 -27z"/>
<path d="M6883 7837 c-106 -117 -202 -223 -215 -237 -13 -14 -41 -46 -63 -70
-22 -25 -79 -88 -126 -140 -419 -462 -446 -494 -437 -522 2 -5 132 132 288
304 157 172 344 374 415 448 130 134 228 253 300 363 21 31 36 59 34 62 -3 2
-91 -91 -196 -208z"/>
<path d="M7170 7847 c-23 -8 -44 -27 -64 -57 -17 -25 -161 -193 -321 -375
-308 -350 -584 -675 -604 -714 -19 -34 -6 -37 33 -7 49 37 369 382 381 410 6
13 29 41 52 63 65 60 441 489 515 587 79 105 80 118 8 93z"/>
<path d="M5816 6186 c-164 -180 -210 -246 -172 -246 8 0 25 14 37 32 13 17 92
106 175 197 84 91 150 169 148 173 -15 23 -53 -8 -188 -156z"/>
<path d="M5284 6118 c-157 -160 -245 -266 -336 -408 -63 -96 -112 -189 -104
-197 11 -11 147 145 374 430 130 164 237 304 237 310 0 31 -35 4 -171 -135z"/>
<path d="M5633 6222 c-106 -85 -289 -261 -391 -376 -59 -67 -225 -276 -370
-464 -144 -187 -270 -347 -280 -354 -18 -14 -72 -108 -72 -127 0 -6 6 -11 13
-10 9 0 961 1113 1140 1334 38 46 21 44 -40 -3z"/>
<path d="M5294 5578 c-91 -93 -493 -578 -634 -768 -44 -58 -104 -169 -96 -177
3 -4 15 2 27 13 31 28 841 1021 840 1031 -1 28 -39 0 -137 -99z"/>
<path d="M4312 4977 c-83 -84 -152 -156 -152 -160 0 -5 -11 -25 -25 -45 -47
-69 -22 -86 35 -24 20 20 91 109 159 197 68 88 128 166 134 173 27 35 -12 -2
-151 -141z"/>
<path d="M8014 8109 c-43 -39 -88 -75 -99 -81 -26 -14 -165 -183 -165 -202 0
-7 -11 -21 -25 -30 -27 -18 -69 -86 -79 -128 -10 -42 16 -36 72 15 26 24 55
46 64 50 9 3 25 21 34 39 9 18 42 62 73 98 231 266 243 281 231 296 -7 7 -16
14 -20 14 -4 0 -43 -32 -86 -71z"/>
<path d="M7300 7298 c-36 -50 -201 -237 -367 -415 -184 -197 -305 -335 -309
-351 -4 -15 -12 -33 -18 -41 -9 -11 -6 -12 14 -6 45 14 166 136 466 470 286
319 309 348 321 408 5 23 2 27 -18 26 -18 0 -39 -21 -89 -91z"/>
<path d="M6218 6069 c-65 -67 -62 -115 4 -90 27 10 92 116 82 132 -12 19 -41
5 -86 -42z"/>
<path d="M5931 5734 c-83 -104 -83 -128 0 -76 52 34 64 47 84 95 14 34 14 37
-4 47 -17 8 -27 0 -80 -66z"/>
<path d="M5078 3523 c-18 -5 -23 -29 -10 -49 4 -6 135 -66 291 -134 l284 -122
35 16 c19 10 31 21 26 25 -9 8 -578 261 -599 266 -5 1 -18 1 -27 -2z"/>
<path d="M4225 3486 c-12 -18 -14 -30 -6 -44 18 -34 80 -81 122 -92 35 -10 44
-9 60 6 10 9 19 21 19 25 0 7 -104 83 -167 122 -8 5 -18 -2 -28 -17z"/>
<path d="M4582 3358 c-35 -35 23 -88 123 -112 33 -7 161 -44 285 -80 124 -36
233 -66 242 -66 26 0 32 20 12 41 -18 18 -602 229 -634 229 -9 0 -21 -5 -28
-12z"/>
<path d="M4789 1872 c-24 -5 -30 -38 -10 -56 10 -9 107 -28 280 -54 256 -38
264 -39 299 -22 l35 17 -49 17 c-27 9 -152 34 -279 56 -126 22 -237 41 -245
43 -8 2 -22 1 -31 -1z"/>
<path d="M4138 1730 c-10 -6 -18 -21 -18 -33 0 -21 9 -25 117 -46 94 -18 118
-20 124 -9 14 21 5 32 -52 61 -60 30 -144 44 -171 27z"/>
<path d="M3922 1316 l-11 -25 127 -42 127 -41 129 6 c71 3 131 8 134 11 19 18
-44 37 -233 70 -115 19 -222 38 -236 41 -20 4 -28 0 -37 -20z"/>
<path d="M2151 2807 c-8 -11 -7 -18 7 -29 53 -48 309 -145 406 -155 39 -4 55
-2 64 10 11 13 10 18 -10 31 -29 19 -414 156 -438 156 -10 0 -23 -6 -29 -13z"/>
<path d="M2043 2463 c-20 -4 -50 -30 -42 -36 2 -2 36 -10 76 -18 85 -18 116
-10 87 22 -14 16 -78 42 -94 38 -3 -1 -15 -4 -27 -6z"/>
<path d="M2301 2348 c-7 -20 -3 -26 28 -46 75 -47 218 -79 298 -67 l48 7 -30
15 c-29 16 -312 113 -327 113 -5 0 -12 -10 -17 -22z"/>
<path d="M6416 4250 c4 -19 10 -44 15 -55 8 -20 8 -20 8 0 0 11 -7 36 -15 55
l-14 35 6 -35z"/>
</g>
</svg>
