<?xml version="1.0" standalone="no"?>
<!DOCTYPE svg PUBLIC "-//W3C//DTD SVG 20010904//EN"
 "http://www.w3.org/TR/2001/REC-SVG-20010904/DTD/svg10.dtd">
<svg version="1.0" xmlns="http://www.w3.org/2000/svg"
 width="1024.000000pt" height="1024.000000pt" viewBox="0 0 1024.000000 1024.000000"
 preserveAspectRatio="xMidYMid meet">
<metadata>
Created by potrace 1.10, written by Peter Selinger 2001-2011
</metadata>
<g transform="translate(0.000000,1024.000000) scale(0.100000,-0.100000)"
fill="#000000" stroke="none">
<path d="M4605 7981 c-115 -32 -231 -67 -256 -78 -25 -11 -295 -178 -600 -371
l-554 -351 -417 -344 c-229 -189 -539 -455 -687 -590 -270 -244 -322 -283
-586 -444 -16 -10 -40 -39 -53 -65 -20 -39 -67 -82 -298 -268 -283 -230 -330
-277 -365 -370 -24 -63 -24 -104 0 -144 10 -17 26 -67 36 -111 21 -97 40 -121
136 -165 l69 -32 -61 -66 c-165 -179 -291 -444 -275 -576 10 -91 36 -143 92
-192 46 -39 58 -44 102 -44 27 0 103 -3 169 -6 l119 -7 0 -48 c-1 -61 22 -93
100 -135 50 -27 85 -37 226 -58 91 -14 180 -26 197 -26 118 0 578 148 788 253
58 29 437 189 483 204 8 3 -214 -112 -493 -254 -287 -146 -537 -280 -573 -307
-114 -85 -202 -220 -238 -367 -16 -63 -15 -69 3 -111 23 -53 85 -97 193 -136
64 -23 92 -26 233 -30 177 -4 270 8 412 54 107 34 639 294 978 477 154 83 332
174 395 203 253 113 548 267 798 416 73 44 135 78 138 76 2 -3 10 -21 17 -42
7 -21 44 -76 82 -122 87 -106 105 -109 176 -32 51 55 52 63 10 113 -11 12 -40
122 -75 280 -32 143 -60 264 -63 268 -4 7 -232 0 -240 -7 -2 -2 6 -53 18 -115
11 -62 18 -115 16 -117 -2 -3 -101 -60 -219 -128 l-215 -124 -6 57 c-6 72 -34
127 -87 175 -36 32 -46 36 -73 31 -37 -8 -61 -34 -76 -86 -27 -88 -23 -134 20
-278 3 -9 -18 -23 -61 -41 -36 -15 -255 -127 -488 -249 -232 -122 -427 -219
-432 -216 -6 3 -10 13 -10 21 0 19 -67 92 -101 110 -43 22 -71 17 -111 -21
-45 -41 -48 -70 -17 -139 34 -78 31 -82 -126 -154 -115 -53 -445 -169 -445
-156 0 1 63 60 140 130 140 126 140 127 161 196 14 46 20 84 16 111 l-6 42
336 200 c346 206 830 529 878 587 15 18 36 51 47 73 12 25 41 55 78 82 82 59
110 71 197 89 167 34 360 98 485 160 30 15 48 20 50 12 3 -7 14 -5 35 6 18 9
38 16 44 16 7 0 46 17 86 38 l74 37 -6 170 c-3 94 -8 188 -11 211 l-5 41 -82
12 c-45 7 -92 15 -104 18 -22 5 -23 3 -23 -64 0 -39 -3 -104 -6 -146 l-7 -76
-166 -70 c-133 -56 -180 -71 -236 -76 -38 -3 -89 -8 -112 -11 -37 -4 -43 -3
-43 13 -1 37 -40 103 -78 131 -45 32 -89 33 -116 3 -8 -9 -29 -72 -46 -140
-17 -68 -38 -137 -46 -152 -19 -38 -199 -156 -349 -229 -98 -48 -628 -251
-653 -250 -4 0 -14 15 -23 33 -10 19 -33 41 -60 55 -62 31 -115 23 -152 -23
l-27 -34 17 -65 c10 -36 15 -67 13 -69 -9 -8 -682 -299 -738 -319 -82 -30
-267 -37 -348 -13 -83 24 -141 52 -148 71 -4 9 -5 18 -4 20 2 1 153 59 337
129 l334 126 271 161 c161 96 518 290 881 478 812 422 961 507 1333 755 142
96 182 119 182 104 0 -16 9 -12 53 24 29 23 76 53 104 65 45 19 53 27 57 55 3
17 14 196 26 397 18 328 24 383 55 540 19 96 35 176 35 178 0 1 -55 2 -122 2
l-122 0 -328 -180 c-181 -99 -348 -194 -370 -210 l-42 -30 -27 26 c-16 15 -38
48 -50 73 -51 110 -147 218 -253 286 -66 42 -94 44 -136 8 -38 -32 -53 -67
-45 -104 4 -16 80 -120 170 -231 126 -156 161 -206 152 -215 -7 -6 -151 -95
-321 -198 -283 -171 -332 -196 -569 -299 l-260 -112 -35 68 c-60 117 -206 258
-266 258 -16 0 -38 -14 -60 -37 -59 -63 -54 -85 64 -264 55 -84 100 -155 100
-160 0 -11 -184 -183 -275 -256 -314 -254 -677 -414 -909 -401 l-54 3 146 105
c80 58 171 120 202 137 157 93 278 324 241 461 -6 26 -23 64 -37 84 -13 21
-24 41 -24 46 0 5 240 220 533 480 474 420 579 507 967 806 239 184 478 361
530 394 221 138 515 285 735 367 l100 37 265 -7 264 -7 506 -219 505 -219 414
-238 c328 -187 433 -252 500 -310 47 -40 144 -109 215 -153 76 -47 159 -108
196 -144 54 -52 217 -157 928 -595 l862 -531 63 11 c116 20 115 19 126 52 17
48 13 66 -21 103 -18 19 -287 191 -598 383 -311 192 -677 418 -815 504 -137
85 -325 199 -417 253 -134 78 -187 116 -275 196 -169 156 -365 288 -613 413
-69 35 -224 123 -345 196 -570 344 -1037 513 -1585 574 -22 2 -113 -18 -245
-53z m145 -1741 c-11 -168 -20 -321 -20 -341 l0 -35 -270 -171 -270 -171 0 36
c-1 79 -71 170 -147 191 -37 11 -99 -1 -121 -23 -13 -13 -13 -29 -2 -128 7
-62 19 -133 26 -158 12 -40 12 -46 -2 -57 -22 -16 -1099 -603 -1107 -603 -4 0
-7 7 -7 15 0 22 -59 84 -99 105 -48 24 -84 16 -121 -27 -23 -26 -30 -43 -30
-77 0 -27 6 -48 15 -56 8 -7 15 -27 15 -44 0 -31 -4 -33 -387 -236 -581 -308
-615 -325 -762 -374 -206 -68 -488 -119 -498 -90 -2 6 21 16 54 24 178 39 443
246 574 450 41 63 51 105 35 145 l-14 32 112 43 c148 57 357 163 486 248 190
124 402 305 477 407 l43 59 504 237 c502 235 504 236 630 333 71 55 143 120
164 148 34 46 61 62 387 238 192 104 350 188 352 187 1 -1 -7 -140 -17 -307z
m-3116 -727 c7 -27 4 -38 -24 -80 -117 -172 -263 -287 -484 -379 -70 -29 -90
-34 -96 -23 -9 13 41 80 99 134 63 59 477 383 486 381 5 -1 14 -16 19 -33z
m-295 -975 c-28 -35 -61 -68 -73 -75 -11 -7 -32 -27 -45 -45 -23 -32 -190
-162 -175 -136 18 31 152 204 168 217 9 8 21 33 27 57 l11 44 70 0 69 0 -52
-62z m1039 -1193 c-11 -20 -34 -43 -50 -51 -16 -8 -48 -30 -71 -47 -45 -34
-143 -81 -192 -91 l-30 -6 35 30 c66 59 293 200 321 200 4 0 -1 -16 -13 -35z"/>
<path d="M5489 6453 c-44 -7 -64 -38 -62 -95 2 -79 60 -139 146 -153 23 -4 81
-30 129 -57 133 -76 234 -78 278 -6 20 33 26 83 12 105 -9 14 -450 214 -466
212 -6 -1 -23 -4 -37 -6z"/>
<path d="M6244 6099 c-3 -5 -13 -9 -24 -9 -25 0 -80 -65 -80 -96 0 -34 41 -70
120 -107 51 -25 78 -31 133 -31 61 -1 70 2 87 24 50 64 -7 180 -100 208 -50
15 -129 21 -136 11z"/>
<path d="M6335 5635 l-40 -34 -6 -188 c-8 -242 -33 -389 -100 -592 -41 -123
-61 -168 -95 -211 -75 -99 -159 -163 -363 -274 -178 -98 -357 -251 -492 -419
-45 -56 -87 -105 -94 -109 -7 -4 -109 -110 -227 -235 l-215 -228 -344 -246
c-189 -135 -366 -258 -394 -274 -210 -119 -432 -323 -551 -507 -104 -162 -120
-190 -134 -232 -12 -38 -9 -47 22 -58 4 -2 3 -21 -3 -43 -28 -99 8 -322 63
-399 18 -25 19 -33 9 -61 -33 -93 19 -177 100 -160 110 24 420 170 589 276
145 92 198 130 337 246 98 81 117 93 150 93 21 0 94 9 162 20 l123 19 137 92
c279 189 512 377 736 591 125 121 132 125 180 130 32 3 91 25 167 61 171 81
333 140 498 181 189 46 325 65 523 73 126 5 216 16 402 49 l240 42 75 -48 c41
-26 131 -83 200 -126 447 -281 831 -561 964 -704 49 -52 100 -103 115 -112 49
-33 117 -16 160 38 42 53 33 70 -116 217 -300 295 -567 502 -973 752 -96 59
-181 112 -188 118 -10 8 20 43 127 152 140 141 171 185 171 244 0 37 -41 87
-86 106 -30 12 -37 12 -82 -10 -55 -27 -116 -91 -132 -140 -13 -39 -210 -211
-273 -238 -159 -69 -397 -114 -672 -127 -317 -15 -511 -48 -730 -123 -103 -36
-254 -100 -315 -134 -34 -19 -39 -19 -74 -5 -36 14 -41 14 -75 -4 -19 -10
-144 -115 -276 -232 l-240 -213 -6 55 c-7 66 -26 98 -77 130 -85 54 -152 55
-203 0 -21 -22 -22 -28 -12 -67 6 -23 10 -43 8 -45 -1 -2 -20 4 -40 12 -55 23
-77 20 -112 -16 -29 -31 -39 -65 -34 -126 1 -7 40 -53 88 -102 47 -50 84 -92
82 -94 -34 -29 -282 -174 -306 -179 -26 -5 -34 -2 -49 21 -10 16 -18 50 -20
85 -1 33 -9 69 -19 83 -36 55 -145 70 -251 34 -101 -35 -280 -126 -376 -192
-116 -78 -293 -254 -375 -371 l-62 -88 -6 48 c-3 26 -7 59 -9 71 -2 13 2 36 9
50 7 15 16 54 20 87 4 37 19 82 37 118 62 116 364 376 579 497 139 78 359 226
484 326 61 48 214 191 340 319 127 128 240 236 252 239 12 4 34 28 49 54 85
147 163 220 509 479 376 283 474 383 580 593 83 165 114 280 145 535 24 207
25 267 3 330 -19 58 -91 135 -125 135 -13 -1 -41 -16 -63 -35z m-1116 -3031
c10 -3 3 -16 -24 -44 -22 -22 -42 -40 -46 -40 -7 0 -39 73 -39 89 0 8 79 4
109 -5z m-816 -423 c-3 -11 -16 -22 -30 -26 -13 -3 -142 -88 -286 -188 -144
-101 -268 -187 -275 -191 -8 -5 9 23 37 62 29 39 68 81 89 93 20 13 72 55 115
95 100 92 234 159 349 173 3 1 4 -8 1 -18z"/>
<path d="M6254 4410 c3 -14 9 -37 12 -52 4 -16 10 -28 15 -28 4 0 1 21 -8 48
-17 51 -30 73 -19 32z"/>
</g>
</svg>
