<?xml version="1.0" standalone="no"?>
<!DOCTYPE svg PUBLIC "-//W3C//DTD SVG 20010904//EN"
 "http://www.w3.org/TR/2001/REC-SVG-20010904/DTD/svg10.dtd">
<svg version="1.0" xmlns="http://www.w3.org/2000/svg"
 width="1024.000000pt" height="1024.000000pt" viewBox="0 0 1024.000000 1024.000000"
 preserveAspectRatio="xMidYMid meet">
<metadata>
Created by potrace 1.10, written by Peter Selinger 2001-2011
</metadata>
<g transform="translate(0.000000,1024.000000) scale(0.100000,-0.100000)"
fill="#000000" stroke="none">
<path d="M3330 8320 c-348 -36 -683 -130 -1012 -283 -207 -97 -254 -150 -229
-261 21 -94 72 -120 142 -73 219 148 342 208 554 272 169 51 296 70 661 101
l319 26 260 -16 c287 -19 321 -26 605 -118 184 -60 396 -142 535 -208 99 -46
102 -48 257 -212 139 -146 163 -177 209 -264 29 -54 69 -128 89 -164 23 -40
46 -102 60 -160 13 -52 33 -124 46 -160 41 -118 49 -198 49 -480 0 -261 -1
-268 -34 -432 -18 -93 -37 -168 -41 -168 -5 0 -54 38 -109 84 -119 100 -616
414 -796 504 l-120 60 -475 35 -475 35 -335 -53 c-278 -43 -373 -63 -555 -113
-121 -34 -254 -65 -296 -70 -86 -11 -126 -28 -163 -72 -34 -41 -41 -73 -27
-121 9 -30 17 -39 34 -40 12 0 74 -4 137 -9 l115 -8 385 118 c481 147 521 155
890 155 332 0 489 -22 775 -110 140 -43 480 -247 681 -409 97 -78 234 -205
234 -216 0 -5 -102 -132 -226 -282 -251 -304 -301 -351 -559 -523 -296 -198
-735 -413 -1138 -558 -372 -134 -850 -253 -1212 -302 -66 -9 -135 -18 -154
-21 -19 -3 -47 -18 -63 -34 -24 -24 -28 -36 -28 -83 0 -93 18 -99 245 -71 754
90 1552 353 2235 737 231 130 385 240 586 418 126 111 186 179 348 392 71 92
129 167 131 167 9 0 275 -335 342 -430 196 -278 374 -593 548 -969 34 -75 99
-210 143 -301 44 -91 274 -563 511 -1050 430 -883 432 -885 478 -1050 25 -91
52 -177 59 -192 20 -39 53 -58 102 -58 84 0 132 37 132 102 0 37 -1152 2514
-1366 2938 -201 398 -378 669 -647 988 l-196 232 26 68 c39 104 71 215 94 331
27 133 37 430 19 582 -27 244 -101 497 -205 707 -112 228 -203 361 -338 494
-130 127 -228 189 -493 310 -132 59 -252 115 -269 122 -101 47 -407 124 -605
151 -134 19 -733 29 -870 15z"/>
<path d="M5861 4120 c0 -8 4 -22 9 -30 12 -18 12 -2 0 25 -6 13 -9 15 -9 5z"/>
</g>
</svg>
