<?xml version="1.0" standalone="no"?>
<!DOCTYPE svg PUBLIC "-//W3C//DTD SVG 20010904//EN"
 "http://www.w3.org/TR/2001/REC-SVG-20010904/DTD/svg10.dtd">
<svg version="1.0" xmlns="http://www.w3.org/2000/svg"
 width="1024.000000pt" height="1024.000000pt" viewBox="0 0 1024.000000 1024.000000"
 preserveAspectRatio="xMidYMid meet">
<metadata>
Created by potrace 1.10, written by Peter Selinger 2001-2011
</metadata>
<g transform="translate(0.000000,1024.000000) scale(0.100000,-0.100000)"
fill="#000000" stroke="none">
<path d="M5665 7090 c-392 -119 -393 -119 -735 -184 -129 -25 -401 -77 -605
-116 l-370 -72 -220 2 c-144 2 -247 -2 -297 -11 -75 -12 -78 -14 -78 -40 0
-55 12 -89 31 -89 11 0 19 -4 19 -10 0 -5 9 -10 20 -10 11 0 20 -4 20 -9 0 -5
6 -11 13 -13 6 -2 68 -33 137 -70 69 -36 167 -82 218 -102 l94 -36 96 11 c54
7 470 99 927 205 456 107 847 194 868 194 27 0 45 -7 62 -24 106 -106 -46
-381 -622 -1126 -164 -212 -307 -397 -319 -412 l-20 -26 -195 122 c-107 68
-367 232 -579 365 l-384 243 -101 19 c-124 24 -198 25 -219 3 -9 -8 -16 -17
-16 -19 0 -2 28 -20 62 -41 157 -94 413 -280 683 -495 198 -159 520 -429 524
-441 5 -14 -445 -460 -604 -599 -105 -92 -191 -165 -484 -410 -429 -359 -1097
-752 -1636 -963 -178 -70 -192 -77 -215 -102 -22 -22 -22 -23 -4 -48 16 -21
27 -25 64 -25 140 -1 515 122 947 309 700 304 1532 856 2115 1402 81 76 149
138 153 138 3 0 76 -60 163 -133 601 -506 1196 -983 1662 -1329 253 -189 310
-224 394 -250 64 -19 85 -20 280 -15 288 8 607 50 901 120 120 28 225 98 225
148 0 33 -95 83 -285 149 -581 203 -1285 510 -1655 723 -186 106 -519 307
-760 457 -201 125 -648 407 -659 416 -2 2 54 69 124 151 245 284 569 702 822
1058 75 106 199 250 345 401 121 125 142 186 97 277 -49 96 -303 299 -477 380
-112 52 -120 51 -527 -73z"/>
</g>
</svg>
