<?xml version="1.0" standalone="no"?>
<!DOCTYPE svg PUBLIC "-//W3C//DTD SVG 20010904//EN"
 "http://www.w3.org/TR/2001/REC-SVG-20010904/DTD/svg10.dtd">
<svg version="1.0" xmlns="http://www.w3.org/2000/svg"
 width="1024.000000pt" height="1024.000000pt" viewBox="0 0 1024.000000 1024.000000"
 preserveAspectRatio="xMidYMid meet">
<metadata>
Created by potrace 1.10, written by Peter Selinger 2001-2011
</metadata>
<g transform="translate(0.000000,1024.000000) scale(0.100000,-0.100000)"
fill="#000000" stroke="none">
<path d="M4050 7710 c-245 -65 -501 -160 -695 -257 -38 -19 -360 -189 -715
-376 -499 -263 -702 -377 -897 -499 -227 -144 -264 -164 -388 -208 -76 -28
-146 -50 -157 -50 -54 0 -97 -48 -98 -107 0 -50 14 -90 42 -120 50 -53 30 -62
983 453 484 262 942 507 1018 545 261 131 487 226 779 324 168 57 208 67 400
95 117 17 230 36 250 41 73 19 89 84 35 137 -32 31 -37 32 -176 47 -195 20
-215 19 -381 -25z"/>
<path d="M6493 7403 c-34 -7 -85 -86 -81 -126 3 -29 10 -36 83 -74 85 -44 233
-97 380 -137 98 -26 351 -121 375 -141 8 -7 158 -56 333 -110 184 -56 334
-107 354 -121 19 -13 51 -27 72 -30 47 -9 80 -23 236 -101 300 -150 463 -260
636 -430 125 -122 139 -133 173 -133 41 0 101 22 128 47 31 27 22 66 -29 130
-65 82 -176 195 -258 262 -278 230 -876 501 -1423 645 -74 19 -312 98 -530
175 -464 163 -421 149 -449 144z"/>
<path d="M3968 7053 c-29 -4 -88 -64 -88 -88 0 -36 28 -77 113 -162 l92 -93
-37 0 c-21 0 -61 -9 -90 -21 -29 -11 -167 -47 -307 -80 l-253 -59 -195 12
c-217 14 -226 12 -271 -53 -19 -27 -23 -43 -19 -80 l4 -47 -76 -36 c-42 -20
-98 -41 -126 -46 -71 -12 -434 -109 -456 -121 -27 -14 -33 -52 -19 -119 7 -32
10 -62 7 -67 -3 -5 -31 -26 -62 -48 -56 -38 -58 -38 -102 -27 -34 9 -72 10
-156 2 -153 -15 -189 -26 -232 -69 -30 -30 -36 -41 -31 -65 3 -16 6 -34 6 -40
0 -6 21 -20 46 -30 41 -17 45 -21 31 -31 -20 -14 -210 -35 -318 -35 -86 0
-128 -17 -171 -72 -23 -27 -27 -40 -22 -65 5 -26 17 -37 75 -67 38 -19 85 -38
104 -42 20 -3 37 -10 40 -14 3 -4 -129 -139 -294 -299 -205 -200 -304 -304
-316 -331 -10 -22 -24 -40 -32 -40 -19 0 -82 -68 -99 -107 -16 -36 -8 -67 24
-96 11 -10 149 -65 306 -122 197 -72 309 -118 362 -150 90 -55 285 -152 369
-185 33 -13 69 -31 80 -40 11 -9 98 -50 193 -90 94 -40 172 -76 172 -80 0 -4
-43 -31 -96 -61 -109 -62 -134 -92 -134 -162 0 -34 6 -53 24 -73 23 -28 24
-28 77 -16 95 22 237 98 307 165 l63 61 159 -65 159 -64 -98 -100 c-116 -119
-155 -166 -249 -305 -82 -122 -94 -148 -83 -186 8 -32 43 -43 136 -43 l50 0
190 223 c190 223 229 282 220 323 -5 20 -3 22 17 14 53 -20 394 -173 400 -179
3 -4 -63 -65 -148 -137 -171 -145 -193 -175 -175 -235 16 -55 48 -90 79 -90
34 1 39 4 202 126 166 124 209 166 217 216 3 21 10 38 15 38 5 0 32 -12 61
-27 127 -64 428 -152 797 -234 201 -44 375 -82 387 -85 17 -5 23 -16 28 -55 4
-27 16 -60 27 -74 11 -14 33 -71 48 -128 26 -93 32 -105 72 -139 36 -32 50
-38 90 -38 88 0 92 21 48 247 -13 68 -21 126 -17 129 6 6 346 -21 395 -32 15
-3 22 -12 22 -29 0 -16 12 -33 36 -52 20 -15 43 -35 50 -43 72 -85 113 -119
152 -130 56 -15 70 -11 96 23 l20 28 -28 82 c-16 45 -31 87 -33 93 -5 15 105
21 487 29 l285 6 109 -140 c114 -147 160 -188 219 -198 49 -8 87 29 87 85 0
55 -34 146 -82 219 -22 35 -39 66 -36 68 2 3 84 23 181 46 l176 42 73 -64 c40
-35 97 -85 125 -112 64 -59 123 -86 184 -87 64 0 84 24 84 99 0 78 -26 123
-107 190 -37 30 -68 58 -68 61 0 7 462 180 480 180 8 0 37 -8 64 -17 39 -15
73 -43 186 -160 128 -132 141 -143 175 -143 47 0 91 23 109 58 14 27 12 33
-45 140 -55 104 -66 117 -139 175 -43 34 -79 65 -79 68 -1 9 929 451 1005 478
45 16 74 36 111 74 77 79 90 118 57 166 -16 23 -16 25 7 42 13 10 43 27 66 36
24 10 43 21 43 25 0 31 -49 121 -89 163 -92 95 -462 548 -454 555 4 4 78 35
163 70 85 35 173 76 195 91 49 33 91 77 99 104 8 28 -24 76 -66 99 l-36 19
-118 -50 c-132 -57 -196 -73 -285 -73 -59 0 -162 -23 -185 -41 -7 -6 -18 -1
-30 13 -10 11 -82 68 -158 124 -82 61 -133 105 -125 108 8 2 113 16 234 31
229 28 258 36 275 81 19 49 12 90 -19 117 -45 38 -93 40 -231 12 -76 -16 -156
-25 -211 -25 -111 0 -160 -18 -191 -69 -12 -20 -22 -37 -24 -39 -2 -4 -214
147 -214 153 0 2 29 13 65 25 81 27 203 106 241 155 40 52 38 95 -6 140 -19
20 -44 38 -55 41 -12 3 -70 -19 -148 -56 -112 -54 -139 -62 -214 -70 -63 -7
-95 -15 -122 -33 l-36 -24 -127 71 -127 70 52 20 c68 25 170 89 202 127 38 46
33 80 -17 124 -52 45 -73 44 -204 -8 -49 -20 -138 -45 -198 -56 -59 -11 -114
-25 -121 -31 -10 -8 -60 13 -198 82 l-186 92 94 53 c167 95 192 165 82 233
-27 17 -30 17 -120 -22 -118 -52 -254 -86 -370 -94 -88 -6 -99 -5 -244 36
l-152 43 32 24 c18 13 40 37 49 55 23 41 6 83 -48 121 l-39 27 -225 -62 c-226
-62 -272 -68 -360 -50 l-35 8 30 18 c43 25 85 84 85 118 0 36 -35 70 -88 86
-35 11 -46 8 -152 -34 -71 -27 -143 -49 -188 -54 -89 -12 -137 -33 -160 -72
-17 -29 -19 -30 -77 -24 -33 3 -163 8 -290 12 -126 4 -250 10 -275 13 -67 11
-293 177 -319 235 -10 23 -25 47 -34 54 -18 15 -77 23 -119 15z m-721 -848
c-17 -48 -21 -82 -20 -165 1 -104 3 -113 207 -874 l206 -769 122 -224 123
-223 165 -164 165 -165 290 -156 290 -157 489 -21 c461 -20 492 -20 553 -4
122 32 457 236 678 413 144 115 438 410 549 549 114 144 285 401 363 546 113
209 225 483 288 704 16 55 30 102 31 104 5 6 82 -42 235 -145 372 -250 736
-541 929 -740 173 -179 383 -453 394 -516 7 -37 7 -37 -57 -72 -56 -31 -73
-36 -131 -36 -107 0 -150 -27 -165 -104 -6 -28 -33 -42 -486 -252 -520 -242
-653 -299 -875 -379 -249 -89 -557 -175 -750 -209 -358 -64 -910 -81 -1341
-41 -282 26 -941 125 -1167 175 -335 75 -557 153 -1054 374 -178 78 -607 268
-955 421 -618 272 -632 278 -618 299 29 41 17 83 -43 150 -54 61 -72 112 -81
238 -10 135 -34 194 -105 254 l-45 39 414 340 c532 435 628 503 923 657 109
58 491 222 499 214 1 0 -8 -28 -20 -61z m-1949 -1343 c5 -9 12 -47 16 -84 7
-74 37 -182 68 -241 11 -22 18 -40 16 -42 -2 -2 -106 43 -345 150 -21 9 -15
17 88 132 96 106 113 121 130 113 10 -6 23 -18 27 -28z"/>
<path d="M1532 4014 c-92 -65 -127 -95 -142 -124 -43 -84 -10 -180 62 -180 71
0 257 133 296 212 21 42 22 49 9 80 -12 30 -81 99 -97 98 -3 -1 -60 -39 -128
-86z"/>
<path d="M3849 3101 c-51 -33 -117 -101 -147 -152 -28 -46 -32 -141 -8 -187
22 -42 57 -65 89 -57 38 10 182 161 217 227 35 66 21 122 -44 171 -44 34 -52
34 -107 -2z"/>
</g>
</svg>
