<?xml version="1.0" standalone="no"?>
<!DOCTYPE svg PUBLIC "-//W3C//DTD SVG 20010904//EN"
 "http://www.w3.org/TR/2001/REC-SVG-20010904/DTD/svg10.dtd">
<svg version="1.0" xmlns="http://www.w3.org/2000/svg"
 width="1024.000000pt" height="1024.000000pt" viewBox="0 0 1024.000000 1024.000000"
 preserveAspectRatio="xMidYMid meet">
<metadata>
Created by potrace 1.10, written by Peter Selinger 2001-2011
</metadata>
<g transform="translate(0.000000,1024.000000) scale(0.100000,-0.100000)"
fill="#000000" stroke="none">
<path d="M5915 8920 c-211 -26 -284 -30 -895 -45 l-665 -15 -485 -65 c-267
-36 -523 -70 -570 -75 -102 -13 -242 -59 -327 -106 -75 -42 -201 -140 -207
-163 -3 -9 -30 -189 -60 -401 -54 -370 -58 -415 -106 -1135 -28 -412 -55 -806
-60 -875 -14 -171 -30 -771 -22 -784 4 -6 10 -659 13 -1451 7 -1579 3 -1484
68 -1730 16 -60 42 -166 57 -235 65 -301 91 -373 178 -504 126 -189 300 -323
516 -398 l95 -33 535 0 c294 0 812 2 1150 5 434 4 808 0 1270 -12 436 -11 670
-14 699 -7 56 12 131 51 176 91 64 56 92 109 131 244 l36 129 4 458 c4 593 16
708 114 1107 66 268 92 447 91 620 -1 94 4 151 15 189 9 32 12 56 6 60 -5 3
-16 433 -26 1026 -10 561 -22 1110 -27 1220 -6 110 -9 234 -8 275 2 41 3 91 3
110 0 19 -57 373 -127 785 -69 413 -133 799 -142 858 -41 281 -144 494 -325
677 -99 100 -157 142 -226 164 -53 17 -430 47 -568 45 -45 -1 -184 -14 -311
-29z m665 -219 c151 -10 180 -24 306 -147 l102 -99 131 -547 c72 -300 144
-615 161 -698 29 -148 82 -495 96 -633 l6 -68 -38 6 c-62 8 -970 85 -1027 87
-29 0 -614 -36 -1302 -81 -2257 -148 -2104 -137 -2167 -159 -38 -14 -58 -17
-58 -10 0 95 97 1392 116 1553 15 121 29 247 31 280 3 38 12 67 23 80 10 11
23 38 30 61 l12 40 127 42 c69 23 153 47 186 52 33 6 94 22 135 35 50 16 211
43 480 79 l405 56 625 11 c555 10 656 15 900 39 287 29 508 35 720 21z m190
-2371 c316 -28 585 -53 597 -56 l23 -4 -6 -813 c-7 -850 -5 -931 37 -1390 12
-130 20 -239 18 -241 -2 -2 -438 23 -969 55 -866 54 -977 59 -1085 49 -325
-29 -2258 -182 -2385 -189 -104 -5 -154 -13 -177 -25 -18 -9 -33 -15 -33 -14
-1 2 -11 415 -23 918 -22 878 -22 1304 -2 1467 7 60 9 63 39 67 17 3 290 21
606 41 640 41 2772 182 2780 184 3 1 264 -21 580 -49z m-1064 -2645 c148 -8
395 -21 549 -30 877 -47 1178 -65 1181 -68 2 -2 -27 -177 -65 -388 -124 -690
-140 -831 -146 -1289 -5 -314 -20 -624 -33 -645 -4 -6 -27 -36 -51 -67 l-44
-56 -151 -6 c-83 -3 -720 -13 -1416 -23 l-1264 -17 -466 38 c-522 43 -495 37
-617 135 -124 100 -167 181 -267 506 -132 425 -155 548 -163 855 -4 195 19
865 31 878 7 7 2462 189 2572 191 45 0 202 -6 350 -14z"/>
</g>
</svg>
