<?xml version="1.0" standalone="no"?>
<!DOCTYPE svg PUBLIC "-//W3C//DTD SVG 20010904//EN"
 "http://www.w3.org/TR/2001/REC-SVG-20010904/DTD/svg10.dtd">
<svg version="1.0" xmlns="http://www.w3.org/2000/svg"
 width="1024.000000pt" height="1024.000000pt" viewBox="0 0 1024.000000 1024.000000"
 preserveAspectRatio="xMidYMid meet">
<metadata>
Created by potrace 1.10, written by Peter Selinger 2001-2011
</metadata>
<g transform="translate(0.000000,1024.000000) scale(0.100000,-0.100000)"
fill="#000000" stroke="none">
<path d="M6275 6966 c-55 -12 -132 -34 -172 -49 -126 -46 -273 -66 -953 -127
-366 -32 -798 -71 -961 -86 l-297 -27 -148 63 c-82 34 -177 80 -211 101 -62
39 -63 39 -167 39 -147 0 -166 -5 -166 -44 0 -23 11 -43 46 -78 26 -27 50 -48
55 -48 5 0 30 -31 55 -70 26 -38 50 -67 54 -65 9 6 62 -101 87 -175 17 -52 18
-120 21 -1168 l3 -1112 -40 -363 c-32 -302 -37 -375 -30 -440 29 -255 185
-448 308 -381 57 31 95 104 125 247 6 23 11 27 41 27 37 0 2234 146 2327 154
l56 6 12 -73 c18 -110 27 -139 60 -189 42 -64 99 -100 163 -106 109 -9 146 60
184 344 l27 199 6 1400 c7 1552 3 1471 72 1578 17 27 33 67 36 92 l5 45 -134
133 c-203 203 -250 220 -464 173z m-9 -375 c17 -10 39 -36 50 -57 17 -36 19
-67 22 -396 2 -252 0 -358 -8 -358 -12 0 -1930 -160 -2215 -185 -93 -8 -177
-15 -187 -15 -17 0 -18 22 -18 394 l0 394 38 6 c20 3 298 33 617 66 319 34
805 85 1080 114 275 30 520 54 545 55 28 1 57 -6 76 -18z m74 -1460 l0 -369
-57 -6 c-53 -6 -631 -51 -1803 -141 -250 -19 -481 -38 -512 -41 l-58 -6 0 371
c0 204 1 371 3 372 3 2 2366 186 2400 188 l27 1 0 -369z m-1 -1065 c-2 -234
-6 -427 -9 -429 -4 -5 -2346 -157 -2402 -157 -17 0 -18 26 -18 405 l0 405 23
1 c12 0 533 44 1157 98 624 54 1161 99 1194 100 l58 1 -3 -424z"/>
</g>
</svg>
