<?xml version="1.0" standalone="no"?>
<!DOCTYPE svg PUBLIC "-//W3C//DTD SVG 20010904//EN"
 "http://www.w3.org/TR/2001/REC-SVG-20010904/DTD/svg10.dtd">
<svg version="1.0" xmlns="http://www.w3.org/2000/svg"
 width="1024.000000pt" height="1024.000000pt" viewBox="0 0 1024.000000 1024.000000"
 preserveAspectRatio="xMidYMid meet">
<metadata>
Created by potrace 1.10, written by Peter Selinger 2001-2011
</metadata>
<g transform="translate(0.000000,1024.000000) scale(0.100000,-0.100000)"
fill="#000000" stroke="none">
<path d="M4885 8763 c-116 -11 -891 -146 -934 -162 -91 -34 -183 -93 -257
-164 -113 -107 -142 -158 -217 -390 l-67 -202 -40 -450 c-39 -424 -42 -487
-55 -1080 -15 -636 -20 -766 -76 -1895 -27 -542 -30 -671 -25 -975 3 -192 12
-423 20 -512 26 -279 74 -631 89 -655 8 -13 29 -99 47 -193 20 -102 42 -190
57 -220 58 -119 151 -207 283 -269 64 -29 121 -43 380 -91 168 -30 352 -64
410 -75 95 -18 159 -20 655 -22 l550 -3 110 29 c239 62 403 153 546 304 97
102 162 207 212 342 45 122 109 379 136 545 21 135 168 2136 177 2420 16 504
42 2508 33 2570 -45 321 -209 587 -490 795 -242 180 -601 301 -1021 345 -133
13 -418 18 -523 8z m496 -267 l547 -44 224 -150 c173 -116 240 -167 297 -227
106 -112 193 -254 229 -375 6 -22 13 -279 18 -669 l7 -634 -54 6 c-30 3 -136
12 -236 18 -201 14 -62 20 -1998 -87 -852 -47 -834 -45 -873 -93 -10 -13 -11
12 -7 134 3 83 10 332 16 555 12 506 26 655 79 886 67 291 103 359 239 446
220 141 460 229 723 263 156 20 200 18 789 -29z m1283 -2302 l29 -7 -7 -156
c-3 -86 -15 -421 -27 -746 -40 -1158 -45 -1274 -51 -1280 -4 -4 -30 -2 -58 4
-94 20 -686 12 -1790 -24 -1294 -43 -1239 -40 -1285 -71 l-35 -23 0 36 c0 77
91 2217 94 2221 2 2 17 -3 33 -12 17 -8 63 -18 104 -21 77 -7 2058 81 2068 91
8 8 889 -3 925 -12z m-329 -2399 c134 -14 228 -30 251 -44 16 -9 -118 -1268
-149 -1397 -58 -239 -217 -475 -389 -577 -113 -67 -143 -72 -715 -113 l-521
-37 -45 26 c-40 24 -78 30 -373 67 -312 39 -335 43 -439 82 -129 48 -196 88
-251 150 -58 66 -85 129 -153 353 -111 367 -121 459 -113 1043 l5 403 26 -5
c87 -18 408 -30 766 -29 383 0 440 2 855 37 245 20 477 40 515 45 122 15 578
12 730 -4z"/>
</g>
</svg>
