<?xml version="1.0" standalone="no"?>
<!DOCTYPE svg PUBLIC "-//W3C//DTD SVG 20010904//EN"
 "http://www.w3.org/TR/2001/REC-SVG-20010904/DTD/svg10.dtd">
<svg version="1.0" xmlns="http://www.w3.org/2000/svg"
 width="1024.000000pt" height="1024.000000pt" viewBox="0 0 1024.000000 1024.000000"
 preserveAspectRatio="xMidYMid meet">
<metadata>
Created by potrace 1.10, written by Peter Selinger 2001-2011
</metadata>
<g transform="translate(0.000000,1024.000000) scale(0.100000,-0.100000)"
fill="#000000" stroke="none">
<path d="M4210 7806 c-250 -65 -462 -140 -673 -239 -50 -24 -391 -202 -756
-396 -487 -258 -727 -392 -905 -503 -208 -131 -259 -158 -369 -199 -70 -26
-144 -50 -165 -54 -84 -15 -122 -73 -102 -156 17 -68 59 -103 115 -96 26 4
182 83 450 228 621 335 1300 701 1395 752 216 116 570 266 862 365 158 54 199
64 390 92 117 17 230 36 250 41 72 19 90 85 36 136 -32 30 -38 31 -188 47
-196 20 -191 21 -340 -18z"/>
<path d="M6615 7489 c-35 -10 -85 -82 -85 -122 0 -20 10 -32 45 -53 75 -44
257 -113 377 -144 103 -26 408 -139 433 -160 5 -4 151 -52 324 -105 172 -53
329 -107 350 -120 20 -13 57 -29 82 -34 102 -23 382 -169 604 -315 106 -71
168 -121 258 -209 65 -64 126 -121 137 -127 61 -33 180 20 180 81 0 46 -166
236 -315 358 -272 224 -821 472 -1400 631 -77 22 -196 63 -265 93 -160 70
-369 145 -535 191 -167 48 -155 45 -190 35z"/>
<path d="M4098 7143 c-28 -4 -88 -64 -88 -88 0 -36 28 -77 113 -162 l92 -93
-37 0 c-20 0 -56 -8 -80 -19 -24 -10 -163 -46 -308 -80 l-265 -62 -175 14
c-102 8 -188 10 -206 5 -70 -18 -113 -84 -100 -151 6 -32 5 -33 -67 -68 -39
-20 -92 -40 -117 -44 -56 -9 -415 -102 -453 -117 -41 -16 -50 -48 -33 -121 17
-71 17 -70 -59 -123 -53 -36 -55 -37 -99 -24 -54 15 -282 -4 -333 -27 -47 -22
-93 -78 -93 -113 0 -26 7 -33 56 -58 l56 -29 -28 -11 c-39 -14 -276 -35 -313
-27 -47 10 -111 -13 -154 -55 -31 -32 -38 -45 -35 -72 3 -37 8 -40 145 -96
l92 -38 -300 -289 c-221 -212 -307 -302 -325 -337 -13 -26 -30 -48 -38 -48
-22 0 -93 -84 -101 -119 -8 -38 12 -74 53 -95 15 -7 149 -58 297 -112 149 -54
297 -114 330 -134 109 -66 228 -128 340 -175 61 -26 117 -53 125 -60 9 -8 92
-46 185 -86 94 -39 173 -74 178 -78 4 -4 -20 -23 -53 -42 -132 -74 -151 -89
-167 -126 -17 -42 -12 -92 12 -129 22 -33 62 -31 162 9 110 45 186 92 239 150
l45 47 137 -56 c75 -31 147 -60 160 -65 21 -8 17 -14 -71 -102 -85 -85 -161
-181 -286 -359 -30 -42 -45 -76 -49 -105 -7 -64 5 -73 104 -73 l83 0 191 225
c192 226 227 278 216 321 l-6 24 57 -26 c32 -14 126 -55 208 -91 83 -37 153
-69 157 -73 5 -3 -64 -68 -152 -143 -169 -145 -186 -168 -168 -232 14 -51 42
-80 79 -83 31 -3 54 11 204 125 173 131 215 174 215 224 0 16 2 29 5 29 3 0
31 -13 63 -29 128 -64 448 -157 833 -242 l377 -83 6 -47 c4 -26 16 -58 27 -73
11 -14 34 -74 50 -133 29 -103 33 -110 74 -140 78 -58 165 -40 165 33 0 16
-13 92 -29 169 -17 77 -28 141 -26 143 3 4 313 -24 378 -34 27 -4 37 -11 37
-24 0 -21 51 -76 78 -84 9 -3 27 -24 40 -46 28 -49 89 -95 137 -104 45 -9 65
-2 88 30 18 24 18 26 -14 115 -17 49 -30 91 -27 94 9 9 763 23 773 15 6 -5 55
-67 110 -138 103 -134 148 -175 203 -185 51 -10 79 6 93 53 11 37 10 48 -14
115 -14 41 -44 102 -67 137 -22 35 -37 64 -33 65 5 1 86 20 182 43 l174 40 66
-57 c36 -32 91 -80 122 -108 62 -57 126 -91 188 -101 34 -5 43 -3 65 19 22 22
26 35 26 84 0 77 -27 123 -113 192 -37 30 -64 57 -60 61 4 4 112 46 239 94
l231 86 44 -20 c24 -11 51 -20 61 -20 9 0 75 -61 146 -135 77 -81 142 -140
161 -146 40 -14 98 13 124 58 l18 31 -61 111 c-56 101 -68 116 -140 173 -61
48 -77 65 -67 74 20 18 887 429 970 460 62 23 91 41 137 85 69 66 85 112 55
161 -20 34 -21 33 60 75 28 14 51 27 53 28 8 7 -41 115 -59 131 -22 19 -482
571 -486 583 -2 3 52 28 120 55 67 27 155 65 194 84 134 64 180 149 112 206
-42 35 -66 40 -119 21 -25 -9 -139 -38 -253 -66 -115 -27 -227 -56 -250 -64
-40 -14 -43 -13 -67 9 -14 13 -86 68 -160 122 -96 71 -129 100 -115 102 11 1
120 15 243 31 256 32 261 34 270 119 4 44 1 54 -21 75 -39 40 -94 43 -242 13
-82 -17 -161 -26 -219 -26 -109 0 -151 -17 -179 -73 l-19 -37 -46 33 c-26 19
-76 55 -111 80 -39 28 -59 48 -50 51 156 46 307 149 325 221 9 37 -13 81 -59
115 l-40 29 -46 -24 c-171 -86 -226 -107 -308 -115 -87 -9 -96 -12 -129 -42
-21 -18 -22 -18 -147 54 -70 40 -127 75 -127 79 0 3 41 24 92 45 164 70 218
148 147 215 -17 16 -41 32 -53 35 -12 3 -63 -10 -116 -29 -52 -19 -153 -46
-225 -61 -71 -15 -134 -31 -140 -36 -6 -4 -90 32 -194 84 l-184 93 91 52 c97
56 152 108 152 145 0 29 -33 72 -71 92 -28 14 -33 13 -102 -19 -122 -58 -242
-89 -389 -103 -70 -6 -88 -3 -231 36 l-154 43 43 42 c63 60 56 107 -26 165
l-28 20 -209 -55 c-114 -31 -218 -60 -231 -65 -15 -6 -48 -6 -98 1 l-75 12 41
34 c43 37 70 80 70 111 0 24 -35 57 -83 77 -38 16 -39 15 -173 -35 -74 -27
-148 -50 -165 -50 -75 0 -147 -34 -175 -82 -8 -14 -40 -15 -335 -3 l-326 12
-74 62 c-41 35 -104 81 -141 103 -51 30 -68 46 -73 68 -4 16 -20 41 -37 55
-29 25 -53 28 -120 18z m-698 -786 c0 -2 -10 -30 -21 -63 -16 -45 -22 -83 -22
-159 -1 -99 1 -105 207 -870 l207 -770 117 -215 117 -215 162 -170 162 -170
298 -160 298 -160 495 -21 495 -21 67 23 c135 46 451 241 658 406 137 109 338
304 458 443 340 395 573 814 725 1305 25 79 50 146 55 148 14 4 364 -231 548
-369 468 -351 647 -521 892 -852 72 -96 102 -145 106 -173 6 -39 6 -39 -46
-69 -45 -25 -68 -30 -145 -35 -85 -5 -95 -8 -123 -35 -18 -17 -33 -43 -36 -65
l-6 -35 -492 -229 c-270 -127 -556 -256 -636 -289 -286 -116 -703 -243 -960
-292 -271 -52 -824 -78 -1175 -56 -271 18 -666 68 -1128 146 -329 55 -679 159
-992 295 -217 94 -1850 813 -1853 816 -2 1 4 16 12 33 21 40 14 67 -36 127
-66 80 -80 117 -89 234 -10 138 -29 192 -95 257 l-52 53 56 48 c147 125 785
644 847 688 208 149 434 272 715 391 188 79 210 87 210 80z m-1983 -1382 c16
-11 23 -30 28 -73 10 -87 35 -180 66 -249 15 -35 25 -63 22 -63 -5 0 -314 135
-346 152 -15 8 -3 25 89 129 58 65 109 119 113 119 4 0 16 -7 28 -15z"/>
<path d="M1662 4104 c-107 -74 -126 -92 -143 -131 -42 -98 21 -196 104 -162
79 32 207 126 247 181 45 62 41 101 -15 155 -25 24 -51 43 -58 43 -6 0 -67
-39 -135 -86z"/>
<path d="M3985 3204 c-105 -70 -173 -168 -176 -255 -2 -57 9 -88 44 -126 42
-46 87 -25 189 92 42 47 84 102 93 122 30 62 7 125 -61 172 -38 27 -41 26 -89
-5z"/>
</g>
</svg>
