<?xml version="1.0" standalone="no"?>
<!DOCTYPE svg PUBLIC "-//W3C//DTD SVG 20010904//EN"
 "http://www.w3.org/TR/2001/REC-SVG-20010904/DTD/svg10.dtd">
<svg version="1.0" xmlns="http://www.w3.org/2000/svg"
 width="1024.000000pt" height="1024.000000pt" viewBox="0 0 1024.000000 1024.000000"
 preserveAspectRatio="xMidYMid meet">
<metadata>
Created by potrace 1.10, written by Peter Selinger 2001-2011
</metadata>
<g transform="translate(0.000000,1024.000000) scale(0.100000,-0.100000)"
fill="#000000" stroke="none">
<path d="M5599 7486 c-31 -7 -72 -25 -91 -39 -19 -15 -54 -34 -79 -42 -24 -9
-257 -47 -517 -85 l-474 -68 -106 40 c-59 22 -138 51 -175 64 l-69 23 -59 -29
c-32 -17 -59 -33 -59 -36 0 -3 20 -31 44 -62 69 -89 108 -177 126 -283 5 -32
2 -858 -8 -2048 -12 -1491 -13 -2010 -4 -2059 23 -135 130 -282 205 -282 55 0
86 50 107 172 l12 65 546 67 c301 37 561 69 579 72 30 6 33 4 53 -45 37 -85
120 -142 186 -129 23 4 61 60 74 107 5 20 21 122 35 227 l25 191 0 1709 c0
1599 2 1720 19 1879 13 114 26 189 41 229 26 69 31 57 -74 190 -85 109 -94
117 -170 156 -64 33 -82 34 -167 16z m-42 -347 c8 -7 22 -26 31 -43 15 -28 17
-85 20 -543 2 -282 0 -513 -3 -513 -9 0 -952 -120 -1025 -130 -36 -5 -77 -10
-92 -10 l-28 0 0 535 c0 294 1 535 3 536 96 23 1023 186 1045 184 19 -2 40
-10 49 -16z m53 -1872 l0 -513 -547 -73 c-302 -40 -560 -75 -575 -78 l-28 -5
0 526 c0 494 1 526 18 527 9 0 249 29 532 63 283 35 534 64 558 65 l42 1 0
-513z m-5 -1099 c-3 -183 -8 -473 -11 -645 l-6 -312 -42 -6 c-22 -3 -257 -30
-521 -60 -264 -30 -499 -57 -523 -60 l-42 -6 2 638 3 638 565 71 c311 40 569
72 573 73 5 0 6 -149 2 -331z"/>
</g>
</svg>
