<?xml version="1.0" standalone="no"?>
<!DOCTYPE svg PUBLIC "-//W3C//DTD SVG 20010904//EN"
 "http://www.w3.org/TR/2001/REC-SVG-20010904/DTD/svg10.dtd">
<svg version="1.0" xmlns="http://www.w3.org/2000/svg"
 width="1024.000000pt" height="1024.000000pt" viewBox="0 0 1024.000000 1024.000000"
 preserveAspectRatio="xMidYMid meet">
<metadata>
Created by potrace 1.10, written by Peter Selinger 2001-2011
</metadata>
<g transform="translate(0.000000,1024.000000) scale(0.100000,-0.100000)"
fill="#000000" stroke="none">
<path d="M5380 9466 c-173 -78 -340 -155 -370 -170 -108 -56 -237 -153 -340
-256 -156 -156 -214 -270 -228 -449 l-7 -84 -260 -88 c-143 -49 -261 -89 -262
-89 -2 0 -3 30 -3 66 0 60 3 71 35 113 64 88 247 254 368 336 151 100 184 144
153 203 -18 35 -71 82 -92 82 -8 0 -98 -56 -201 -125 l-188 -125 -123 -157
c-68 -86 -132 -174 -143 -195 -23 -45 -45 -138 -54 -229 l-7 -66 -89 -38
c-119 -51 -311 -161 -433 -247 -360 -257 -710 -658 -824 -946 -18 -48 -38 -93
-44 -99 -6 -7 -23 -63 -39 -125 -32 -122 -58 -333 -59 -466 0 -72 4 -90 30
-143 17 -33 49 -119 72 -192 l41 -132 -12 -270 c-6 -148 -14 -309 -18 -357
l-6 -87 -29 25 c-41 34 -182 99 -248 115 -30 7 -91 13 -135 13 -70 1 -88 -3
-146 -31 -194 -95 -290 -283 -290 -568 0 -201 31 -296 161 -490 133 -199 214
-358 287 -565 24 -69 66 -163 92 -210 26 -47 51 -92 54 -100 11 -32 69 -101
109 -130 49 -36 168 -75 202 -66 14 3 32 13 40 22 15 14 16 13 16 -11 0 -53
93 -393 136 -500 128 -310 309 -581 548 -820 443 -441 840 -595 1576 -612 271
-6 428 5 679 48 656 111 1228 411 1734 908 85 84 165 183 381 471 248 332 275
372 301 445 15 44 51 128 81 186 l53 106 73 5 c85 6 149 31 225 90 42 32 92
96 222 284 154 221 172 252 205 346 22 62 79 302 145 608 103 473 109 508 100
560 -6 30 -21 73 -34 96 -32 54 -105 120 -163 146 -55 24 -194 35 -259 20 -51
-12 -49 -22 -28 133 40 302 40 738 0 1023 -106 758 -566 1432 -1212 1773 -54
29 -100 54 -102 55 -20 16 233 182 404 265 168 81 334 138 510 174 169 36 229
65 261 127 13 24 13 32 0 56 -8 15 -31 37 -53 49 l-38 22 -125 -24 c-277 -51
-512 -130 -759 -254 -189 -95 -366 -206 -443 -279 l-37 -35 -98 21 c-54 12
-156 31 -228 42 -71 12 -130 22 -131 23 -6 6 127 107 229 175 184 121 402 219
627 282 183 50 334 135 367 205 16 34 16 36 -4 63 -11 15 -34 35 -52 46 l-32
18 -422 -152 c-519 -187 -608 -229 -782 -371 -89 -72 -133 -120 -174 -192
l-32 -57 -292 0 c-161 0 -303 -3 -315 -7 -24 -6 -24 -6 7 54 27 54 40 67 128
126 192 129 393 220 622 283 255 69 443 195 412 277 -11 28 -54 65 -85 73 -24
6 -947 -355 -1060 -414 -76 -40 -158 -113 -199 -179 -28 -44 -62 -140 -72
-205 -7 -42 28 -31 -338 -107 l-189 -39 7 26 c11 44 64 144 106 200 94 124
397 328 679 457 112 52 279 143 309 169 13 12 30 36 37 54 12 28 12 36 0 60
-11 22 -83 75 -97 71 -2 0 -146 -65 -319 -143z m692 -996 c26 -24 71 -26 145
-6 49 13 69 12 265 -16 l212 -31 260 -129 c301 -148 384 -205 551 -373 105
-105 119 -125 299 -415 208 -334 208 -334 271 -605 62 -266 74 -375 81 -740
l6 -330 -31 -225 c-17 -124 -40 -248 -51 -277 -10 -28 -69 -343 -130 -700
l-110 -649 -70 -215 c-38 -118 -81 -236 -95 -263 -14 -27 -25 -58 -25 -69 0
-10 -9 -30 -20 -44 -11 -14 -20 -35 -20 -47 0 -11 -34 -82 -76 -156 -42 -74
-84 -148 -92 -164 -30 -57 -226 -343 -300 -436 -118 -150 -386 -410 -547 -530
-222 -167 -312 -217 -616 -345 l-274 -115 -426 -84 -426 -84 -427 39 c-465 42
-471 44 -666 129 -521 229 -926 714 -1079 1291 -23 85 -45 232 -87 574 l-56
460 -9 975 c-10 1099 -7 1052 -89 1301 l-49 146 14 95 c15 100 69 342 104 466
18 67 32 88 193 295 196 252 309 374 453 490 245 198 433 293 958 483 l379
137 56 -20 c51 -18 61 -19 97 -7 44 15 75 46 75 74 0 21 -23 16 325 70 236 36
292 41 600 54 187 7 355 14 373 15 21 0 41 -6 54 -19z m2521 -3205 c26 -20 47
-41 47 -48 0 -25 -48 -185 -64 -213 -9 -16 -38 -153 -65 -304 -59 -330 -109
-494 -211 -699 -99 -196 -149 -264 -245 -333 -44 -31 -81 -55 -82 -54 -2 2 12
45 31 97 18 52 46 151 61 221 l28 126 51 -5 52 -5 66 71 c108 116 164 254 175
433 9 132 -14 206 -83 276 -51 51 -54 52 -95 46 -40 -7 -42 -6 -36 17 3 13 20
94 38 181 l32 156 47 22 c51 24 139 48 180 49 14 0 46 -15 73 -34z m-6500
-298 c56 -52 121 -106 145 -121 29 -18 42 -33 42 -49 0 -12 7 -201 16 -419 8
-218 14 -409 12 -423 -2 -20 -25 14 -105 161 -57 103 -103 198 -103 212 0 13
15 51 32 83 25 46 38 59 56 59 36 0 62 19 78 55 21 51 17 89 -11 123 -52 62
-144 72 -213 24 -58 -42 -130 -131 -153 -190 -32 -81 -32 -224 -1 -302 23 -57
201 -312 271 -389 38 -41 41 -43 88 -39 26 3 55 8 63 11 13 6 18 -21 36 -192
l19 -200 -30 6 c-104 18 -99 13 -150 136 -26 61 -50 119 -53 127 -3 8 -21 39
-40 68 -21 31 -46 91 -62 150 -26 91 -38 113 -167 309 -173 260 -194 310 -201
474 -4 96 -1 130 17 199 12 46 32 101 46 122 14 21 25 44 25 52 0 20 25 29
105 36 142 13 125 19 238 -83z m6116 -350 c1 -74 -22 -188 -55 -263 -17 -40
-24 -49 -21 -29 52 347 62 407 68 380 4 -16 7 -56 8 -88z"/>
<path d="M6222 6910 c-104 -27 -175 -51 -220 -75 -64 -35 -191 -148 -214 -190
-47 -84 -14 -169 73 -190 22 -5 37 3 94 53 126 112 118 110 493 138 180 13
463 33 629 43 166 11 311 25 322 31 50 26 54 84 8 128 l-33 32 -454 30 c-250
16 -475 31 -500 34 -31 3 -94 -8 -198 -34z"/>
<path d="M4230 6724 c-220 -51 -246 -55 -405 -61 -108 -3 -208 -1 -273 6 -94
11 -105 11 -145 -7 -41 -18 -87 -66 -87 -91 0 -52 62 -94 197 -133 137 -40
268 -32 715 40 208 34 391 62 408 62 65 0 137 -53 194 -143 20 -31 46 -63 58
-71 45 -32 148 -9 169 37 15 32 -1 86 -48 166 -73 123 -191 207 -331 237 -116
24 -196 17 -452 -42z"/>
<path d="M6558 6040 c-157 -33 -310 -92 -422 -164 -40 -26 -62 -48 -78 -80
-19 -41 -20 -48 -8 -102 13 -59 14 -59 154 -182 78 -68 148 -128 158 -133 34
-19 257 -51 394 -56 309 -13 668 63 883 186 186 107 214 181 98 261 -52 36
-60 43 -104 104 -42 57 -129 116 -204 139 -38 11 -147 21 -359 32 -371 19
-402 18 -512 -5z m713 -235 c121 -25 125 -26 171 -72 26 -26 46 -48 45 -49 -2
-2 -87 -25 -191 -52 -178 -46 -187 -48 -180 -28 4 12 9 67 11 124 3 56 8 102
13 102 4 0 63 -11 131 -25z m-598 -92 c2 -60 7 -118 11 -130 8 -22 6 -23 -41
-23 -113 0 -230 38 -308 100 l-36 29 50 26 c91 46 257 102 308 104 8 1 13 -32
16 -106z"/>
<path d="M3895 5876 c-33 -8 -170 -40 -305 -71 -186 -42 -254 -62 -282 -81
-36 -26 -70 -80 -84 -137 -3 -16 -13 -31 -20 -34 -24 -9 -16 -38 34 -125 l48
-83 128 -78 c143 -87 197 -111 298 -132 130 -28 322 -12 434 36 75 33 503 285
536 317 50 48 64 91 43 131 -17 33 -88 87 -103 77 -5 -3 -32 15 -60 40 -59 52
-153 97 -261 126 -101 26 -321 34 -406 14z m386 -257 c91 -10 153 -29 138 -43
-2 -2 -60 -35 -129 -74 l-125 -71 -5 77 c-3 42 -12 87 -18 100 -15 27 -13 27
139 11z m-543 -76 c-14 -56 -18 -94 -14 -135 5 -55 5 -58 -17 -58 -12 0 -37 8
-54 18 -37 20 -173 139 -173 152 0 4 51 26 113 48 97 36 128 45 158 51 4 0 -2
-34 -13 -76z"/>
<path d="M4965 5112 c-11 -9 -38 -56 -59 -103 -29 -65 -76 -134 -188 -279 -82
-106 -169 -216 -195 -244 -117 -130 -169 -253 -161 -384 9 -139 89 -313 157
-342 38 -15 67 -9 109 27 l33 28 -66 140 -67 140 31 95 c30 92 33 98 112 175
174 171 384 456 415 561 19 68 8 112 -44 167 -40 42 -48 44 -77 19z"/>
<path d="M6990 4795 c-129 -19 -267 -34 -306 -35 -39 0 -119 -9 -179 -20
l-108 -19 -38 29 c-20 17 -41 30 -46 30 -14 0 -79 -72 -97 -107 -27 -53 -21
-78 33 -133 54 -56 82 -62 148 -35 19 8 63 15 97 15 34 0 67 5 73 11 6 6 186
35 400 63 l388 52 22 33 c31 46 30 91 -2 121 -38 35 -111 34 -385 -5z"/>
<path d="M3245 4624 c-16 -8 -72 -23 -124 -33 -72 -14 -99 -24 -113 -41 -40
-50 -13 -103 62 -119 65 -14 185 -14 250 0 50 11 51 10 90 -25 46 -41 75 -51
128 -42 49 9 74 9 154 1 45 -5 83 -3 112 5 38 10 48 10 67 -4 37 -26 94 -21
118 10 34 43 27 81 -22 128 -64 62 -133 78 -218 53 -39 -12 -57 -12 -135 3
-49 9 -96 19 -104 23 -33 14 -195 57 -215 57 -11 0 -33 -7 -50 -16z"/>
<path d="M5095 4214 c-71 -37 -90 -70 -74 -125 15 -49 41 -69 91 -69 111 0
191 89 142 158 -34 49 -104 65 -159 36z"/>
<path d="M4665 4165 c-32 -38 -37 -52 -38 -96 -1 -45 3 -55 27 -76 25 -21 36
-24 100 -21 l71 3 23 45 c40 80 25 133 -48 170 -64 32 -93 27 -135 -25z"/>
<path d="M6064 3153 c-11 -2 -28 -17 -38 -33 -26 -45 -70 -83 -181 -159 -133
-90 -212 -132 -344 -185 -263 -106 -536 -143 -843 -112 -200 19 -325 53 -470
125 l-112 56 -16 51 c-38 119 -119 168 -220 133 -32 -11 -32 -13 -26 -57 19
-138 156 -290 359 -397 163 -86 367 -125 660 -125 324 0 584 59 867 198 149
73 240 134 317 211 62 62 154 190 157 217 2 21 -84 81 -110 77z"/>
<path d="M9985 403 c-48 -10 -49 -16 -5 -29 25 -7 46 -14 48 -14 1 0 2 11 2
25 0 25 -6 27 -45 18z"/>
</g>
</svg>
