<?xml version="1.0" standalone="no"?>
<!DOCTYPE svg PUBLIC "-//W3C//DTD SVG 20010904//EN"
 "http://www.w3.org/TR/2001/REC-SVG-20010904/DTD/svg10.dtd">
<svg version="1.0" xmlns="http://www.w3.org/2000/svg"
 width="1024.000000pt" height="1024.000000pt" viewBox="0 0 1024.000000 1024.000000"
 preserveAspectRatio="xMidYMid meet">
<metadata>
Created by potrace 1.10, written by Peter Selinger 2001-2011
</metadata>
<g transform="translate(0.000000,1024.000000) scale(0.100000,-0.100000)"
fill="#000000" stroke="none">
<path d="M5960 9286 c-40 -18 -112 -33 -270 -56 -1046 -151 -1191 -179 -1563
-300 -342 -111 -476 -178 -596 -299 -68 -68 -87 -97 -178 -266 -145 -271 -253
-578 -317 -905 -90 -452 -132 -1355 -162 -3437 -15 -1055 -15 -1157 0 -1325 9
-101 16 -217 16 -258 0 -167 32 -352 90 -535 22 -66 49 -165 61 -220 54 -252
162 -437 334 -575 109 -86 184 -124 367 -187 l163 -55 985 -59 c959 -56 988
-57 1100 -43 242 31 481 99 705 200 180 81 272 149 361 267 123 163 244 514
269 782 4 39 36 340 71 670 l64 600 46 1205 46 1205 -7 683 -6 684 -26 39
c-18 27 -37 42 -62 49 -53 15 -67 13 -98 -14 l-28 -24 -3 -457 c-2 -426 -4
-456 -20 -451 -9 3 -226 57 -482 120 -481 118 -780 204 -1055 302 -300 106
-437 163 -495 206 -127 95 -236 233 -310 392 -37 78 -39 87 -33 148 6 74 -6
124 -43 168 l-25 29 180 423 c142 334 185 444 202 523 38 180 23 278 -56 360
-25 25 -38 45 -30 45 52 0 1109 134 1145 145 25 8 149 26 275 42 204 24 233
30 253 50 30 30 28 49 -10 87 l-33 32 -295 13 c-162 6 -335 14 -385 17 -81 5
-96 2 -145 -20z m-908 -409 c-32 -33 -32 -33 -32 -138 0 -127 -22 -264 -60
-379 -16 -47 -89 -227 -162 -400 l-134 -315 -201 -300 c-199 -296 -206 -305
-540 -686 l-338 -387 -222 -186 c-123 -102 -223 -182 -223 -176 0 5 23 330 50
722 50 706 51 715 91 903 51 241 159 583 198 628 15 18 47 61 71 97 24 36 85
115 135 176 103 123 132 142 340 227 161 66 258 91 675 172 206 40 377 73 379
74 3 1 -9 -14 -27 -32z m-257 -1837 c61 -120 162 -247 252 -318 59 -47 291
-166 485 -248 474 -202 1056 -370 1611 -464 93 -16 171 -31 175 -34 4 -5 -16
-1389 -21 -1392 -1 0 -443 -52 -982 -113 -539 -62 -1056 -122 -1150 -134 -141
-17 -223 -21 -485 -20 -306 0 -333 2 -937 60 -343 32 -624 61 -626 64 -2 2 2
263 9 579 7 316 13 590 13 608 1 26 6 35 29 43 15 6 82 44 149 86 131 81 256
193 523 469 313 322 506 553 735 883 l128 184 32 -99 c17 -54 44 -124 60 -154z
m2491 -2742 c-3 -29 -24 -348 -47 -708 -23 -360 -42 -655 -43 -656 0 0 -449
-49 -996 -108 l-995 -107 -861 1 c-816 0 -866 1 -969 20 -60 11 -149 20 -198
20 l-89 0 7 728 c4 400 9 729 11 731 3 3 96 -8 207 -23 540 -74 717 -92 1017
-102 307 -10 557 9 1770 136 619 65 1140 118 1159 119 l33 1 -6 -52z m-121
-1650 c-3 -24 -21 -207 -40 -408 -19 -201 -42 -401 -51 -445 -43 -214 -171
-418 -342 -543 -113 -83 -148 -98 -312 -136 -790 -181 -1625 -190 -2400 -26
-263 56 -277 61 -415 146 -146 90 -183 129 -252 266 -61 123 -78 183 -143 508
-79 400 -93 480 -86 487 3 4 133 0 288 -9 l283 -15 1175 44 1175 43 555 64
c305 35 559 64 563 65 5 1 6 -18 2 -41z"/>
<path d="M9865 1041 l-30 -8 28 -11 c42 -18 69 -15 65 5 -4 20 -21 24 -63 14z"/>
</g>
</svg>
