<?xml version="1.0" standalone="no"?>
<!DOCTYPE svg PUBLIC "-//W3C//DTD SVG 20010904//EN"
 "http://www.w3.org/TR/2001/REC-SVG-20010904/DTD/svg10.dtd">
<svg version="1.0" xmlns="http://www.w3.org/2000/svg"
 width="1024.000000pt" height="1024.000000pt" viewBox="0 0 1024.000000 1024.000000"
 preserveAspectRatio="xMidYMid meet">
<metadata>
Created by potrace 1.10, written by Peter Selinger 2001-2011
</metadata>
<g transform="translate(0.000000,1024.000000) scale(0.100000,-0.100000)"
fill="#000000" stroke="none">
<path d="M7830 8773 c-405 -41 -882 -81 -2715 -227 -1199 -96 -2268 -180
-2375 -187 l-195 -11 -307 41 c-169 23 -316 41 -326 41 -20 0 -20 -1 -1 -87
10 -47 20 -87 21 -89 2 -1 55 -40 119 -87 168 -122 281 -194 387 -245 l93 -45
147 11 c84 6 359 46 637 92 432 71 969 140 1093 140 40 0 110 -53 142 -107 77
-131 82 -352 12 -553 -39 -111 -100 -213 -353 -586 l-259 -381 -48 -6 c-26 -3
-469 -47 -985 -98 -848 -85 -940 -92 -961 -79 -12 8 -52 34 -87 58 -85 57
-235 131 -279 138 -27 5 -58 -3 -130 -33 -116 -48 -120 -59 -66 -168 25 -51
59 -163 115 -381 l80 -309 30 -385 c17 -212 82 -1044 146 -1850 121 -1549 133
-1675 166 -1810 46 -184 102 -239 202 -196 73 31 127 123 142 241 3 28 8 64
11 81 l4 30 248 13 c136 6 639 32 1117 56 1748 90 2446 126 3220 165 435 21
821 42 858 45 l69 5 -3 -28 c-2 -16 12 -63 35 -113 l38 -84 96 -59 c85 -51
101 -57 135 -53 52 7 102 49 158 132 179 265 274 744 468 2376 33 277 72 621
86 764 57 577 136 979 228 1160 11 22 33 95 48 163 l29 123 -117 136 c-131
149 -272 266 -400 330 -92 45 -144 50 -253 24 -168 -41 -366 -58 -3800 -335
-157 -13 -286 -22 -288 -21 -1 1 165 193 370 426 205 233 420 479 477 547 56
67 107 122 112 122 18 0 99 83 99 102 0 71 -193 246 -402 364 -54 31 -96 60
-91 64 4 3 620 41 1368 84 1492 84 1381 82 1944 46 171 -11 217 -5 257 35 18
18 24 35 24 68 0 57 -36 112 -138 208 -75 72 -83 76 -227 132 -83 32 -159 57
-170 56 -11 -1 -36 -4 -55 -6z m492 -2323 c21 -6 51 -22 68 -37 53 -44 63 -75
61 -197 -2 -182 -39 -645 -86 -1076 -13 -124 -34 -315 -45 -425 -46 -446 -153
-1334 -186 -1550 -44 -290 -93 -534 -139 -695 -20 -68 -37 -125 -39 -127 -4
-4 -1688 -74 -1692 -70 -2 1 6 187 16 412 34 720 69 1474 115 2480 24 539 46
1010 49 1047 4 62 3 70 -22 99 -14 18 -40 40 -57 50 l-30 19 45 1 c25 0 394
17 820 38 822 41 1062 47 1122 31z m-2452 -147 c39 -48 93 -160 114 -238 25
-92 29 -247 13 -523 -9 -140 -17 -255 -19 -256 -7 -6 -1900 -168 -1904 -163
-4 3 -28 679 -34 943 0 6 -21 27 -46 47 l-45 36 43 6 c24 3 387 39 808 81 631
62 931 92 1027 103 6 0 26 -16 43 -36z m-2338 -225 c38 -50 75 -128 93 -197
20 -78 17 -2 70 -1691 25 -767 50 -1540 56 -1718 6 -178 9 -325 7 -327 -9 -9
-1459 -98 -1466 -89 -5 5 -28 362 -51 794 -95 1790 -161 2998 -166 3050 l-6
56 483 53 c266 29 573 63 683 76 276 31 268 32 297 -7z m2425 -1220 c-3 -51
-16 -299 -28 -551 -13 -252 -26 -462 -29 -467 -6 -10 -1776 -177 -1786 -168
-6 7 -38 1117 -32 1123 4 4 1770 152 1837 154 l44 1 -6 -92z m-77 -1395 c0
-38 -52 -1207 -54 -1210 -1 0 -221 -13 -491 -27 -269 -15 -643 -35 -830 -45
-187 -10 -342 -16 -345 -14 -7 7 -42 1164 -35 1171 5 5 1634 156 1733 161 19
1 22 -4 22 -36z"/>
</g>
</svg>
