<?xml version="1.0" standalone="no"?>
<!DOCTYPE svg PUBLIC "-//W3C//DTD SVG 20010904//EN"
 "http://www.w3.org/TR/2001/REC-SVG-20010904/DTD/svg10.dtd">
<svg version="1.0" xmlns="http://www.w3.org/2000/svg"
 width="1024.000000pt" height="1024.000000pt" viewBox="0 0 1024.000000 1024.000000"
 preserveAspectRatio="xMidYMid meet">
<metadata>
Created by potrace 1.10, written by Peter Selinger 2001-2011
</metadata>
<g transform="translate(0.000000,1024.000000) scale(0.100000,-0.100000)"
fill="#000000" stroke="none">
<path d="M4754 9860 c-17 -6 -83 -21 -147 -34 -71 -15 -131 -34 -155 -50 -43
-27 -216 -209 -267 -281 -40 -55 -84 -161 -91 -218 -4 -31 2 -60 22 -112 31
-81 32 -94 14 -192 -11 -59 -12 -88 -2 -157 15 -101 6 -313 -14 -336 -20 -24
-39 -147 -25 -164 20 -24 99 -56 140 -56 l38 0 12 -62 c29 -147 81 -220 181
-253 86 -29 222 -4 301 56 50 37 55 39 67 22 21 -29 72 -200 72 -241 0 -67
-20 -155 -52 -224 -29 -63 -33 -68 -62 -68 -35 0 -120 -46 -152 -81 -35 -40
-235 -321 -244 -343 -5 -12 -19 -68 -30 -126 -12 -58 -39 -160 -61 -227 -62
-194 -54 -323 31 -501 22 -46 40 -85 40 -87 0 -1 -35 -15 -77 -30 -97 -34
-273 -120 -361 -178 -110 -71 -126 -81 -139 -83 -25 -4 -84 -47 -80 -58 3 -6
-98 -85 -223 -176 -184 -133 -259 -181 -387 -245 -212 -107 -270 -156 -348
-300 -15 -27 -40 -64 -56 -80 -24 -26 -29 -40 -29 -81 0 -61 15 -77 83 -94 42
-11 47 -15 47 -40 0 -23 6 -29 43 -40 23 -8 35 -15 26 -17 -12 -3 -21 -28 -34
-91 -9 -48 -32 -129 -51 -182 -26 -72 -37 -123 -44 -210 -6 -63 -22 -227 -37
-364 -31 -290 -27 -363 31 -545 19 -58 45 -149 58 -201 25 -103 16 -91 240
-353 34 -40 56 -73 52 -80 -4 -7 -16 -24 -26 -39 -10 -15 -24 -56 -30 -90 -5
-35 -16 -72 -23 -83 -7 -12 -38 -81 -70 -155 -116 -273 -237 -479 -389 -665
-36 -44 -66 -82 -66 -85 0 -3 18 -24 40 -45 22 -21 40 -34 40 -27 0 6 22 -2
48 -19 33 -20 108 -46 233 -79 181 -48 199 -50 1129 -164 520 -64 955 -119
966 -121 22 -5 54 -66 54 -102 0 -9 6 -24 13 -32 8 -9 25 -103 41 -226 15
-115 34 -259 42 -320 13 -102 16 -112 45 -138 17 -16 36 -26 42 -24 6 2 20 30
31 63 19 58 19 61 2 164 -10 58 -24 128 -31 155 -8 28 -19 111 -26 185 -8 98
-18 152 -36 198 -14 35 -22 66 -19 70 8 8 278 24 285 16 3 -3 9 -168 13 -367
5 -199 11 -377 14 -396 6 -39 44 -81 73 -81 12 0 26 11 35 29 13 25 14 67 1
355 -12 273 -18 338 -35 393 -11 36 -18 68 -16 70 4 4 411 52 441 53 6 0 11
-149 13 -421 2 -231 7 -431 12 -444 13 -35 47 -41 75 -15 23 22 23 22 30 388
3 202 6 388 7 414 1 28 -6 57 -15 72 l-16 24 97 23 c197 44 438 124 641 211
64 27 218 90 343 139 153 60 249 103 292 133 36 24 74 47 85 51 12 3 21 12 21
20 0 7 11 20 25 29 40 26 32 56 -40 142 -44 54 -78 85 -106 96 -58 25 -126 77
-158 119 -14 20 -53 58 -86 84 -275 219 -493 539 -614 900 -55 164 -64 228
-59 403 5 136 9 164 62 382 88 367 91 386 89 685 -3 307 -16 416 -74 585 -22
63 -46 135 -53 160 -7 25 -41 90 -75 145 -33 54 -61 103 -61 109 0 7 -29 71
-71 158 -5 9 -9 79 -9 155 0 76 -8 242 -18 368 -21 249 -17 394 14 572 23 131
16 308 -15 385 -27 71 -96 163 -151 202 -22 17 -40 33 -40 37 0 4 -14 45 -32
90 -36 96 -58 120 -148 163 -57 27 -76 31 -158 32 l-93 1 -71 98 c-58 79 -79
120 -113 214 -24 64 -41 119 -39 122 2 3 56 28 120 54 115 48 120 51 318 220
258 219 279 250 216 310 -26 25 -34 28 -49 18 -27 -17 -190 27 -237 64 -115
92 -231 298 -255 456 -6 39 -19 87 -30 105 -10 18 -19 39 -19 46 0 8 -18 50
-40 93 -67 134 -161 216 -309 271 -55 20 -88 25 -196 28 -71 2 -144 -1 -161
-6z m258 -111 c84 -18 167 -64 236 -132 46 -45 62 -69 62 -89 0 -37 215 -594
247 -641 35 -50 126 -133 172 -156 20 -10 69 -24 109 -31 40 -8 71 -17 70 -21
-2 -4 -64 -55 -138 -112 l-134 -105 -46 44 c-65 63 -90 57 -90 -21 0 -24 7
-39 24 -53 l25 -19 -172 -78 c-95 -43 -180 -85 -190 -93 -14 -13 -21 -13 -41
-3 -20 11 -24 23 -30 79 -3 37 -6 92 -5 122 l0 55 20 -54 c23 -67 51 -98 98
-111 32 -9 38 -7 53 13 10 12 15 29 12 37 -3 8 -34 97 -69 197 -75 215 -77
219 -110 227 -18 5 -25 13 -25 30 0 69 -55 145 -119 165 -30 8 -42 19 -55 50
-10 21 -42 63 -72 92 -30 29 -54 56 -54 59 0 3 14 14 31 24 25 15 29 23 25 42
-4 13 -2 24 3 24 9 0 23 -54 36 -135 13 -81 56 -107 106 -66 23 18 23 21 10
67 -25 92 -32 139 -25 187 3 27 8 46 10 44 3 -3 25 -88 49 -190 24 -103 51
-200 60 -217 16 -31 72 -73 90 -67 5 2 15 25 21 52 12 44 11 52 -11 96 -30 57
-61 167 -71 246 -3 32 -11 69 -16 83 -8 23 -8 24 7 9 9 -8 47 -107 84 -220 84
-250 115 -324 192 -459 86 -150 154 -193 218 -140 l23 20 -39 43 c-118 128
-205 289 -228 422 -12 69 -98 304 -142 390 -41 79 -166 201 -195 190 -17 -7
-41 -76 -30 -85 4 -3 13 -13 20 -22 11 -14 11 -16 -6 -12 -10 3 -29 -3 -42
-14 -21 -17 -22 -22 -12 -50 12 -34 12 -35 -12 -26 -20 8 -22 70 -2 77 7 3 16
15 19 27 7 27 -32 69 -65 71 -17 1 -19 2 -5 6 22 6 49 57 41 78 -20 51 -152
45 -204 -10 -29 -31 -20 -54 26 -70 16 -5 31 -10 33 -12 2 -1 -9 -19 -24 -38
l-27 -36 -32 37 c-27 31 -35 35 -51 27 -12 -7 -28 -8 -43 -2 -14 5 -40 8 -60
7 -19 -2 -37 2 -39 8 -4 13 35 30 92 39 49 8 102 39 110 64 5 18 36 35 80 44
41 9 166 7 217 -4z m-162 -149 c0 -5 -4 -10 -10 -10 -5 0 -10 5 -10 10 0 6 5
10 10 10 6 0 10 -4 10 -10z m-239 -151 l-9 -44 -1 41 c-1 22 2 44 6 47 12 12
13 1 4 -44z m-117 -26 c-7 -98 -14 -134 -23 -129 -19 12 4 196 25 196 2 0 1
-30 -2 -67z m-146 -55 c-1 -13 2 -50 5 -83 7 -60 7 -60 -8 -26 -8 18 -15 45
-15 60 0 28 10 71 16 71 2 0 3 -10 2 -22z m249 -20 c-3 -7 -5 -2 -5 12 0 14 2
19 5 13 2 -7 2 -19 0 -25z m0 -40 c-3 -8 -6 -5 -6 6 -1 11 2 17 5 13 3 -3 4
-12 1 -19z m94 -194 c7 -14 40 -50 72 -80 58 -54 58 -55 47 -89 -17 -53 -6
-89 34 -103 43 -16 42 -16 56 18 7 17 15 30 19 30 34 -1 51 -70 29 -121 -30
-70 -46 -137 -35 -148 17 -17 26 -14 82 34 29 25 55 42 58 38 3 -4 12 -32 21
-62 l16 -54 -25 23 c-20 19 -27 21 -39 11 -39 -32 -62 -158 -44 -238 7 -30 4
-34 -85 -106 -51 -41 -126 -104 -167 -141 -80 -70 -98 -76 -192 -58 l-37 7 70
70 71 70 -33 7 c-18 3 -38 13 -44 21 -9 12 -23 5 -85 -45 l-75 -60 -6 38 c-4
22 -10 65 -14 97 -5 48 -13 64 -41 92 -30 31 -41 35 -84 35 l-49 0 19 33 c19
31 19 43 10 242 -9 184 -8 219 7 280 9 39 20 87 25 108 5 20 14 37 21 38 10 0
332 33 373 38 6 0 17 -11 25 -25z m393 -984 c36 -67 58 -84 100 -76 36 7 66
37 66 67 0 17 26 34 34 21 2 -4 18 -54 36 -112 40 -130 85 -213 160 -293 l58
-62 -78 -75 c-82 -80 -172 -207 -192 -271 -6 -22 -12 -39 -13 -39 -13 0 -142
50 -221 86 l-101 46 23 56 c48 118 58 192 47 357 -10 162 -26 212 -78 253 -14
11 -25 23 -25 27 0 3 25 33 56 65 l56 59 24 -32 c13 -18 34 -52 48 -77z m738
-503 c56 -15 64 -22 72 -63 6 -26 3 -32 -20 -43 -72 -32 -237 -187 -302 -283
-18 -26 -46 -84 -62 -130 -17 -46 -39 -94 -49 -108 -10 -14 -21 -39 -24 -55
-3 -17 -10 -48 -16 -70 -14 -56 -28 -111 -44 -180 -8 -33 -24 -87 -36 -119
-18 -52 -21 -81 -21 -241 l0 -183 -60 -55 c-77 -72 -238 -179 -365 -244 -204
-104 -415 -172 -945 -308 -272 -69 -502 -128 -510 -131 -23 -8 -12 1 250 192
317 232 471 311 709 369 70 17 74 19 92 59 26 56 24 64 -20 148 -69 129 -86
195 -85 338 0 113 3 132 28 195 16 39 42 122 58 185 52 203 138 329 297 437
l45 31 50 -40 c105 -83 262 -141 383 -142 65 -1 75 2 97 24 13 14 34 57 46 95
29 88 72 139 215 257 120 99 108 95 217 65z m123 -227 c3 -5 30 -26 60 -45 87
-58 120 -123 145 -285 11 -70 9 -85 -19 -224 -22 -103 -31 -177 -31 -241 0
-52 -6 -113 -15 -141 -8 -27 -19 -126 -25 -220 -6 -94 -17 -194 -25 -222 -9
-28 -22 -99 -30 -159 -8 -63 -23 -124 -35 -148 -11 -21 -20 -45 -20 -52 0 -20
-52 -62 -95 -78 -22 -8 -107 -39 -190 -69 -115 -42 -289 -88 -755 -200 -523
-125 -626 -147 -760 -161 -85 -8 -177 -20 -205 -26 -47 -10 -81 -7 -205 17
-23 5 -24 4 -7 -9 16 -13 7 -15 -85 -19 -112 -4 -155 -20 -222 -78 -32 -28
-107 -62 -126 -57 -5 1 -65 -51 -133 -115 -69 -65 -130 -118 -136 -118 -30 0
-2 37 77 103 49 40 107 91 130 112 39 38 40 40 26 67 -9 17 -23 28 -36 28 -30
0 -109 -53 -157 -105 -35 -38 -115 -103 -159 -129 -24 -14 3 25 43 64 20 19
66 65 102 102 36 37 81 75 101 85 56 28 51 40 -20 48 l-63 7 -114 -109 c-118
-112 -144 -132 -174 -133 -25 0 -15 30 29 87 19 25 34 50 34 57 0 7 38 50 84
94 67 64 103 90 178 125 129 62 185 75 231 54 19 -10 43 -17 53 -17 28 0 775
167 899 201 422 116 738 270 1010 493 44 36 89 66 101 66 13 0 26 12 37 35 15
32 16 56 7 247 l-10 211 36 121 c44 151 92 272 158 401 28 55 53 107 56 115 6
17 229 230 241 230 4 0 11 -4 14 -10z m224 -1718 c7 -24 25 -64 42 -89 16 -26
29 -53 29 -60 0 -8 28 -55 61 -105 34 -50 66 -107 71 -127 5 -20 18 -54 28
-76 31 -66 38 -110 66 -369 l26 -249 -17 -196 c-12 -146 -23 -216 -42 -276
-14 -44 -29 -109 -34 -145 -5 -36 -18 -105 -30 -155 -32 -140 -37 -393 -10
-552 28 -164 83 -331 138 -418 24 -38 67 -109 96 -157 107 -179 195 -287 407
-498 151 -150 233 -223 303 -270 53 -36 96 -70 97 -76 0 -20 -46 -53 -115 -82
-39 -16 -203 -89 -365 -162 -289 -130 -301 -134 -625 -227 -322 -91 -336 -94
-574 -123 l-244 -30 -866 45 -866 45 -490 95 c-269 52 -515 98 -546 101 -107
10 -110 -1 72 279 89 138 170 259 180 270 10 11 31 56 47 100 30 80 56 144 74
179 5 10 39 92 74 182 l64 163 -26 28 c-14 15 -75 88 -134 162 -106 131 -109
136 -144 245 -96 304 -89 260 -94 571 l-3 280 45 245 c25 135 57 279 71 321
l26 76 57 12 c71 16 78 20 242 156 75 62 152 117 171 124 20 6 42 23 49 37 8
13 24 27 36 30 13 3 28 12 35 20 9 11 55 14 233 14 363 0 486 20 1246 198 482
113 650 157 695 179 33 17 87 40 121 53 42 15 81 40 125 79 l64 58 55 168 55
168 6 -99 c4 -55 12 -118 18 -142z"/>
<path d="M5199 8881 l-21 -17 47 -119 c26 -66 54 -137 63 -158 20 -49 72 -94
118 -103 75 -14 92 30 42 103 -18 26 -64 103 -103 170 -77 135 -104 158 -146
124z"/>
<path d="M5588 8769 c-26 -15 -22 -51 11 -96 33 -45 90 -73 151 -73 33 0 42 4
54 29 19 35 22 32 -104 99 -74 39 -99 49 -112 41z"/>
<path d="M4391 9036 c-19 -19 -31 -42 -31 -58 0 -47 72 -77 100 -43 9 11 35
15 106 15 l93 0 16 30 c12 23 13 35 5 50 -13 24 -28 28 -157 33 l-101 5 -31
-32z"/>
<path d="M4356 8811 c-13 -14 -16 -28 -10 -56 14 -75 122 -120 234 -97 63 13
95 34 127 82 36 52 22 58 -112 52 -101 -4 -120 -2 -164 17 -60 25 -54 25 -75
2z"/>
<path d="M6031 7104 c0 -11 3 -14 6 -6 3 7 2 16 -1 19 -3 4 -6 -2 -5 -13z"/>
<path d="M9798 1353 c7 -3 16 -2 19 1 4 3 -2 6 -13 5 -11 0 -14 -3 -6 -6z"/>
</g>
</svg>
