<?xml version="1.0" standalone="no"?>
<!DOCTYPE svg PUBLIC "-//W3C//DTD SVG 20010904//EN"
 "http://www.w3.org/TR/2001/REC-SVG-20010904/DTD/svg10.dtd">
<svg version="1.0" xmlns="http://www.w3.org/2000/svg"
 width="1024.000000pt" height="1024.000000pt" viewBox="0 0 1024.000000 1024.000000"
 preserveAspectRatio="xMidYMid meet">
<metadata>
Created by potrace 1.10, written by Peter Selinger 2001-2011
</metadata>
<g transform="translate(0.000000,1024.000000) scale(0.100000,-0.100000)"
fill="#000000" stroke="none">
<path d="M3669 9226 l-486 -92 -51 -44 c-49 -43 -52 -47 -49 -89 3 -65 36 -87
125 -84 37 2 330 45 650 97 l584 95 21 -24 c20 -22 46 -28 273 -64 187 -30
267 -47 315 -68 225 -96 399 -255 500 -454 68 -136 79 -182 79 -333 l0 -134
-47 -88 c-160 -303 -341 -478 -662 -638 -285 -143 -516 -216 -861 -272 -85
-13 -200 -18 -610 -21 -542 -5 -552 -6 -585 -57 -35 -53 7 -145 81 -178 46
-20 53 -20 528 -9 289 7 531 18 606 27 431 51 876 230 1214 487 115 88 306
276 378 374 34 45 63 81 65 79 13 -13 66 -421 88 -669 16 -185 35 -685 35
-938 l0 -146 -105 -7 c-58 -4 -109 -4 -115 -1 -12 8 -193 -18 -335 -47 -378
-77 -742 -215 -1015 -384 -155 -96 -270 -193 -501 -423 -170 -171 -237 -245
-273 -303 -103 -166 -155 -340 -163 -543 -12 -295 76 -530 277 -739 79 -82 94
-93 224 -158 l140 -70 930 -29 c512 -16 958 -29 992 -29 l61 0 11 -173 c6 -94
23 -360 38 -589 15 -230 25 -420 22 -423 -6 -6 -555 -78 -713 -94 -277 -27
-545 -34 -816 -22 -233 11 -270 11 -301 -2 -44 -18 -58 -42 -58 -96 0 -27 7
-48 23 -65 l22 -24 650 -16 c443 -11 661 -13 684 -6 45 13 532 83 538 77 2 -3
20 -101 40 -218 58 -349 58 -643 0 -904 -28 -129 -29 -205 -2 -235 26 -29 75
-50 119 -50 33 0 35 2 60 72 32 89 61 206 77 313 19 132 13 328 -24 700 -20
192 -33 352 -31 354 2 3 219 40 482 83 381 63 494 85 559 109 146 55 201 139
135 206 -63 62 -43 63 -433 -26 -273 -63 -402 -88 -562 -107 -115 -14 -210
-24 -212 -22 -2 2 -15 116 -29 253 -23 217 -35 464 -86 1885 -33 899 -69 1878
-80 2175 -11 297 -27 617 -35 710 -16 189 -53 492 -61 515 -3 8 -10 101 -14
205 -9 211 -20 257 -74 321 -26 32 -34 52 -43 119 -18 125 -59 240 -126 355
-50 86 -84 127 -182 225 -66 67 -154 144 -196 173 -190 128 -428 215 -654 238
-38 4 -79 13 -90 20 -21 13 -274 35 -393 33 -39 0 -270 -39 -553 -93z m2066
-3489 c11 0 43 4 72 8 49 7 52 6 57 -16 2 -13 14 -267 26 -564 12 -297 32
-792 45 -1100 13 -308 21 -563 17 -566 -4 -4 -59 -16 -122 -28 -81 -15 -208
-26 -425 -36 -170 -9 -427 -22 -570 -29 l-260 -14 -242 58 c-258 63 -330 91
-449 176 -130 92 -230 232 -269 379 -9 33 -19 108 -22 166 -5 98 -3 118 31
261 40 170 70 232 183 390 173 241 512 499 865 659 310 141 848 282 998 261
25 -3 54 -6 65 -5z"/>
<path d="M5010 4539 c-179 -9 -374 -18 -433 -18 -69 -1 -120 -6 -142 -15 -65
-28 -87 -128 -40 -184 l24 -29 479 -7 c263 -4 500 -5 526 -1 58 9 109 55 127
115 18 61 -5 103 -74 135 -60 29 -33 28 -467 4z"/>
<path d="M10215 1100 c-3 -5 1 -10 9 -10 9 0 16 5 16 10 0 6 -4 10 -9 10 -6 0
-13 -4 -16 -10z"/>
</g>
</svg>
