<?xml version="1.0" standalone="no"?>
<!DOCTYPE svg PUBLIC "-//W3C//DTD SVG 20010904//EN"
 "http://www.w3.org/TR/2001/REC-SVG-20010904/DTD/svg10.dtd">
<svg version="1.0" xmlns="http://www.w3.org/2000/svg"
 width="1024.000000pt" height="1024.000000pt" viewBox="0 0 1024.000000 1024.000000"
 preserveAspectRatio="xMidYMid meet">
<metadata>
Created by potrace 1.10, written by Peter Selinger 2001-2011
</metadata>
<g transform="translate(0.000000,1024.000000) scale(0.100000,-0.100000)"
fill="#000000" stroke="none">
<path d="M4567 9750 c-33 -10 -54 -26 -67 -50 -7 -13 2 -31 36 -76 98 -125
129 -228 121 -394 -8 -158 -65 -298 -183 -445 -99 -123 -566 -655 -582 -664
-9 -4 -102 -19 -206 -32 l-189 -23 -92 32 c-50 18 -197 62 -326 98 l-234 65
-95 -37 c-52 -20 -99 -41 -105 -46 -6 -6 31 -48 101 -116 61 -59 129 -134 151
-167 85 -126 154 -293 188 -456 44 -201 44 -232 45 -1821 l0 -1516 -27 -6
c-16 -3 -318 -51 -673 -107 l-645 -100 -57 15 c-100 28 -253 133 -338 234 -82
98 -193 152 -244 119 -44 -29 -60 -161 -31 -270 27 -104 106 -239 236 -403
155 -195 276 -311 370 -353 25 -12 65 -21 94 -21 105 0 307 60 496 146 219
100 857 317 1764 599 450 140 490 152 935 285 223 67 448 134 500 150 52 16
259 76 460 135 201 59 394 115 429 126 35 10 67 19 72 19 5 0 9 -48 9 -107
l-1 -108 -367 -307 c-423 -354 -493 -410 -812 -654 -499 -381 -834 -614 -1370
-951 -605 -380 -1444 -819 -2150 -1123 -80 -34 -147 -64 -149 -67 -3 -2 5 -13
17 -25 20 -20 24 -21 79 -8 289 64 819 236 1225 399 1156 461 2184 1053 3270
1882 136 104 250 189 253 189 3 0 5 -550 5 -1222 0 -1144 -1 -1225 -18 -1258
-21 -43 -75 -80 -115 -80 -16 0 -239 34 -496 76 -462 75 -516 80 -516 47 0
-13 141 -125 341 -273 295 -217 571 -467 664 -598 73 -105 164 -161 275 -170
58 -4 63 -3 99 28 45 40 76 92 123 207 29 73 44 140 89 408 l54 320 0 1475 1
1475 687 628 c667 610 696 637 997 964 350 379 435 477 435 503 0 27 -53 122
-107 193 -103 134 -177 200 -371 331 l-189 128 -67 -42 c-36 -23 -66 -44 -66
-46 0 -2 20 -50 45 -106 25 -56 45 -112 45 -123 0 -42 -60 -189 -113 -278 -30
-51 -89 -139 -130 -197 -159 -224 -651 -757 -1090 -1180 l-78 -75 4 1290 c4
1506 -5 1362 116 1715 55 158 58 177 36 219 -53 103 -442 336 -597 357 -35 5
-97 -7 -292 -56 l-249 -61 -826 -104 c-454 -57 -827 -102 -829 -100 -3 3 635
583 834 757 67 58 143 118 170 132 78 40 107 68 107 104 0 66 -103 173 -329
343 -269 203 -428 268 -557 229z m1823 -1725 c16 -8 42 -34 58 -57 l27 -41 3
-344 c2 -189 0 -343 -3 -343 -3 0 -639 -76 -1412 -170 -774 -93 -1407 -169
-1408 -167 -1 1 2 124 6 272 4 149 8 333 8 410 l1 141 1298 161 c716 90 1318
160 1344 158 26 -2 61 -11 78 -20z m88 -1537 l-3 -413 -1425 -212 c-783 -117
-1425 -211 -1427 -210 -3 3 19 901 22 905 4 4 2766 339 2808 341 l27 1 -2
-412z m2 -1123 c0 -206 -2 -375 -4 -375 -2 0 -168 -47 -369 -105 -1048 -299
-2485 -681 -2502 -664 -7 8 16 1083 23 1090 8 7 33 12 447 89 698 129 1397
231 2085 304 129 14 249 27 265 29 17 2 36 5 43 6 9 1 12 -80 12 -374z"/>
</g>
</svg>
