<?xml version="1.0" standalone="no"?>
<!DOCTYPE svg PUBLIC "-//W3C//DTD SVG 20010904//EN"
 "http://www.w3.org/TR/2001/REC-SVG-20010904/DTD/svg10.dtd">
<svg version="1.0" xmlns="http://www.w3.org/2000/svg"
 width="1024.000000pt" height="1024.000000pt" viewBox="0 0 1024.000000 1024.000000"
 preserveAspectRatio="xMidYMid meet">
<metadata>
Created by potrace 1.10, written by Peter Selinger 2001-2011
</metadata>
<g transform="translate(0.000000,1024.000000) scale(0.100000,-0.100000)"
fill="#000000" stroke="none">
<path d="M5885 9331 c-413 -149 -912 -361 -1091 -462 -168 -94 -435 -275 -583
-395 -256 -206 -384 -345 -479 -524 -73 -137 -231 -617 -307 -935 -100 -415
-176 -1013 -192 -1490 -16 -512 73 -2920 113 -3055 70 -235 254 -421 494 -499
275 -89 1023 -92 1705 -6 269 34 524 81 894 164 123 28 226 49 229 47 2 -3 -5
-125 -17 -273 -27 -343 -51 -736 -51 -836 0 -75 1 -79 31 -107 17 -15 49 -36
70 -45 36 -16 40 -17 63 -1 15 9 29 32 35 53 10 40 57 622 116 1438 20 270 44
612 55 760 33 441 37 716 35 2065 -2 1304 -4 1353 -41 1610 -50 343 -127 550
-278 750 -162 216 -334 337 -630 444 -341 124 -687 158 -1023 101 -278 -48
-614 -140 -913 -250 -63 -23 -128 -45 -143 -49 l-29 -7 45 82 c26 47 85 128
139 189 79 91 116 124 243 213 621 436 1217 727 1831 895 160 44 207 71 225
132 16 52 2 91 -42 112 -65 34 -101 25 -504 -121z m-236 -1427 c192 -28 392
-89 556 -171 105 -52 260 -184 313 -266 119 -185 191 -414 236 -747 39 -294
47 -525 32 -1032 l-8 -308 -27 7 c-14 4 -44 7 -66 6 -74 -2 -3150 -353 -3179
-363 -58 -20 -56 -26 -56 178 1 593 47 1116 141 1601 54 280 147 588 219 732
l18 35 154 29 c113 21 188 42 288 81 270 104 647 206 840 227 104 11 440 6
539 -9z m1132 -2886 c0 -79 4 -276 8 -438 11 -427 -3 -869 -49 -1550 -22 -327
-42 -595 -43 -596 -1 -1 -195 -47 -432 -103 l-430 -102 -555 -29 c-305 -17
-676 -36 -825 -44 l-270 -14 -185 41 -185 41 -93 77 c-52 42 -109 99 -127 126
-33 49 -33 51 -54 279 -17 177 -90 1862 -91 2080 l0 31 271 7 272 6 491 75
c270 42 592 91 716 110 189 29 326 41 850 75 381 25 643 46 670 54 25 8 48 15
53 15 4 1 7 -63 8 -141z"/>
<path d="M10210 1390 l-25 -6 23 -8 c24 -8 37 -3 31 12 -2 4 -15 5 -29 2z"/>
</g>
</svg>
