<?xml version="1.0" standalone="no"?>
<!DOCTYPE svg PUBLIC "-//W3C//DTD SVG 20010904//EN"
 "http://www.w3.org/TR/2001/REC-SVG-20010904/DTD/svg10.dtd">
<svg version="1.0" xmlns="http://www.w3.org/2000/svg"
 width="1024.000000pt" height="1024.000000pt" viewBox="0 0 1024.000000 1024.000000"
 preserveAspectRatio="xMidYMid meet">
<metadata>
Created by potrace 1.10, written by Peter Selinger 2001-2011
</metadata>
<g transform="translate(0.000000,1024.000000) scale(0.100000,-0.100000)"
fill="#000000" stroke="none">
<path d="M5905 9331 c-413 -149 -911 -360 -1091 -462 -168 -94 -435 -275 -583
-395 -256 -206 -384 -345 -479 -524 -73 -137 -231 -617 -307 -935 -100 -415
-176 -1013 -192 -1490 -16 -512 73 -2921 113 -3055 70 -235 254 -421 494 -498
279 -91 1018 -93 1705 -7 269 34 524 81 894 164 123 28 226 49 229 47 2 -3 -5
-125 -17 -273 -27 -343 -51 -736 -51 -836 0 -75 1 -79 31 -107 17 -15 49 -36
70 -45 36 -16 40 -17 63 -1 15 9 29 32 35 53 21 81 187 2349 200 2723 13 389
6 2800 -8 2935 -42 391 -90 586 -192 785 -88 172 -249 358 -395 457 -182 123
-508 239 -783 277 -177 25 -409 21 -588 -9 -282 -48 -607 -137 -913 -250 -63
-23 -128 -45 -143 -49 l-29 -7 45 82 c26 47 85 128 139 189 79 91 116 124 243
213 622 436 1216 727 1831 895 160 44 207 71 225 132 16 52 2 91 -42 112 -65
34 -101 25 -504 -121z m-236 -1427 c192 -28 392 -89 556 -171 105 -52 260
-184 313 -266 94 -146 157 -316 201 -539 64 -327 85 -645 71 -1068 -5 -151 -9
-321 -10 -378 l0 -102 -27 7 c-44 11 -81 8 -558 -46 -671 -77 -1151 -131
-1945 -221 -393 -44 -728 -85 -744 -90 -58 -20 -56 -26 -56 178 1 593 47 1116
141 1601 54 280 147 588 219 732 l18 35 154 29 c113 21 188 42 288 81 270 104
647 206 840 227 104 11 440 6 539 -9z m1132 -2886 c0 -79 4 -276 8 -438 12
-428 -3 -869 -49 -1550 -23 -327 -42 -595 -43 -596 -1 -1 -197 -48 -435 -104
-424 -99 -437 -102 -605 -111 -95 -5 -466 -25 -825 -43 l-652 -34 -183 42
-184 41 -91 75 c-51 41 -107 98 -126 126 l-34 51 -21 229 c-17 177 -90 1862
-91 2080 l0 31 271 7 271 6 721 110 721 110 641 44 c352 24 651 48 665 54 14
6 28 11 33 11 4 1 7 -63 8 -141z"/>
<path d="M10210 1386 c0 -2 7 -6 15 -10 8 -3 15 -1 15 4 0 6 -7 10 -15 10 -8
0 -15 -2 -15 -4z"/>
</g>
</svg>
