<?xml version="1.0" standalone="no"?>
<!DOCTYPE svg PUBLIC "-//W3C//DTD SVG 20010904//EN"
 "http://www.w3.org/TR/2001/REC-SVG-20010904/DTD/svg10.dtd">
<svg version="1.0" xmlns="http://www.w3.org/2000/svg"
 width="1024.000000pt" height="1024.000000pt" viewBox="0 0 1024.000000 1024.000000"
 preserveAspectRatio="xMidYMid meet">
<metadata>
Created by potrace 1.10, written by Peter Selinger 2001-2011
</metadata>
<g transform="translate(0.000000,1024.000000) scale(0.100000,-0.100000)"
fill="#000000" stroke="none">
<path d="M6540 9074 l-205 -65 -1300 -164 c-715 -91 -1361 -172 -1435 -181
-116 -15 -157 -15 -290 -5 -175 13 -301 36 -410 76 -111 40 -118 41 -145 15
-27 -25 -46 -100 -38 -145 16 -81 375 -364 532 -420 41 -14 54 -13 228 15 101
17 190 30 196 30 20 -1 96 -104 134 -181 20 -40 43 -112 54 -163 18 -88 19
-176 19 -2317 l0 -2227 -27 -11 c-302 -120 -520 -194 -656 -222 -134 -28 -158
-31 -205 -21 -65 14 -172 67 -275 138 -43 30 -82 54 -85 54 -15 -2 -92 -115
-92 -135 0 -31 61 -153 124 -247 84 -126 179 -242 290 -354 100 -100 164 -145
208 -143 13 0 61 27 108 60 221 154 282 192 525 327 841 467 1414 808 1908
1135 l188 125 -6 -216 c-11 -387 -45 -2142 -45 -2318 0 -250 28 -376 118 -527
43 -71 124 -162 163 -182 90 -47 169 18 218 179 53 173 51 29 52 3679 l0 3382
23 217 22 217 -98 68 c-85 59 -94 69 -75 75 12 3 159 18 327 32 450 39 474 42
535 70 113 52 127 154 33 242 -53 50 -164 121 -226 145 -109 41 -161 36 -392
-37z m-858 -526 c45 -37 142 -237 181 -376 20 -72 21 -105 25 -514 l3 -436
-28 -6 c-15 -3 -350 -56 -743 -116 -393 -61 -730 -113 -747 -116 l-33 -6 0
600 0 600 -31 26 c-33 28 -83 53 -166 82 -29 10 -53 21 -53 24 0 4 1511 245
1561 249 8 0 22 -5 31 -11z m208 -2217 l0 -549 -27 -6 c-16 -3 -354 -58 -753
-121 -399 -63 -735 -117 -747 -120 l-23 -5 0 549 0 550 33 6 c49 9 1490 243
1505 244 9 1 12 -115 12 -548z m-2 -1507 l-3 -625 -770 -328 -770 -327 -3 819
c-1 451 0 822 2 825 6 5 1483 260 1519 261 l27 1 -2 -626z"/>
</g>
</svg>
