<?xml version="1.0" standalone="no"?>
<!DOCTYPE svg PUBLIC "-//W3C//DTD SVG 20010904//EN"
 "http://www.w3.org/TR/2001/REC-SVG-20010904/DTD/svg10.dtd">
<svg version="1.0" xmlns="http://www.w3.org/2000/svg"
 width="1024.000000pt" height="1024.000000pt" viewBox="0 0 1024.000000 1024.000000"
 preserveAspectRatio="xMidYMid meet">
<metadata>
Created by potrace 1.10, written by Peter Selinger 2001-2011
</metadata>
<g transform="translate(0.000000,1024.000000) scale(0.100000,-0.100000)"
fill="#000000" stroke="none">
<path d="M6360 9345 c-135 -35 -299 -86 -365 -112 -153 -60 -436 -200 -585
-288 -428 -253 -1193 -854 -1791 -1407 -166 -154 -189 -204 -116 -249 35 -21
72 -24 111 -9 14 5 290 231 613 502 733 615 662 557 835 681 321 230 678 426
1043 572 l119 48 390 17 391 18 83 -81 c153 -151 235 -305 259 -487 15 -111
13 -148 -17 -352 -53 -351 -151 -659 -330 -1033 -85 -177 -150 -346 -200 -517
-22 -79 -50 -165 -60 -193 -10 -27 -33 -106 -50 -175 -17 -69 -51 -197 -75
-285 -103 -377 -134 -562 -160 -954 -25 -379 -18 -869 22 -1400 19 -270 11
-437 -31 -621 -82 -354 -236 -611 -566 -940 -416 -417 -922 -707 -1495 -860
-170 -45 -283 -60 -456 -60 -156 0 -277 14 -389 46 -95 27 -191 148 -219 275
-12 55 -37 280 -52 469 -7 80 -13 318 -14 530 -3 474 -10 545 -58 597 -27 30
-77 30 -128 1 l-39 -22 4 -560 c6 -969 41 -1180 225 -1369 66 -68 125 -108
212 -144 59 -23 79 -26 251 -30 345 -10 676 44 1043 169 244 82 545 233 750
376 136 94 418 317 505 399 169 158 334 372 448 578 27 50 63 115 81 145 17
30 44 96 61 147 76 236 104 815 65 1398 -13 198 -16 335 -12 515 9 394 29 528
180 1215 l95 430 210 555 c115 306 220 576 232 600 23 45 73 197 109 330 11
41 33 125 50 186 82 306 64 603 -52 847 -24 51 -47 104 -50 118 -11 43 -101
171 -163 231 -73 71 -116 101 -208 143 -106 48 -186 65 -331 70 l-130 5 -245
-65z"/>
<path d="M5825 7994 c-281 -84 -425 -148 -670 -296 -316 -192 -614 -471 -809
-757 -66 -97 -72 -132 -28 -174 43 -41 89 -37 131 10 76 86 450 471 501 516
258 228 585 393 924 466 86 19 101 20 115 7 9 -8 25 -16 36 -17 35 -7 75 -149
84 -298 5 -77 15 -141 24 -164 l16 -38 78 3 78 3 27 75 c31 87 34 153 13 255
-23 108 -64 181 -147 262 -40 39 -81 83 -92 98 -42 61 -168 82 -281 49z"/>
<path d="M4548 6743 c-19 -5 -148 -185 -148 -207 0 -7 -14 -31 -31 -52 -170
-211 -378 -674 -366 -817 5 -53 26 -83 74 -103 44 -19 77 -17 96 4 9 10 41 97
70 193 l54 174 174 280 c96 154 181 295 188 313 8 19 12 52 9 83 -4 40 -12 57
-39 85 -40 42 -58 52 -81 47z"/>
<path d="M4899 5893 c-9 -2 -26 -23 -39 -46 -23 -39 -24 -54 -31 -307 -10
-355 -30 -565 -80 -850 -67 -378 -128 -529 -296 -732 -72 -88 -134 -211 -126
-252 7 -34 48 -66 85 -66 19 0 60 19 112 53 l82 54 80 144 c166 296 284 664
338 1056 27 195 59 709 47 765 -15 67 -43 119 -86 156 -34 30 -50 35 -86 25z"/>
<path d="M5844 5833 c-13 -2 -32 -24 -49 -55 -36 -66 -42 -146 -21 -258 41
-211 40 -528 -2 -573 -11 -12 -22 -31 -26 -42 -3 -11 -10 -184 -16 -385 -10
-364 -11 -365 -46 -525 -42 -187 -107 -415 -162 -571 -43 -121 -223 -471 -309
-602 -131 -198 -291 -322 -516 -397 l-107 -36 -90 46 c-151 79 -279 233 -341
412 -10 31 -19 69 -19 85 0 16 -9 46 -20 68 -11 22 -20 53 -20 70 0 17 -11 56
-24 88 -13 31 -42 145 -64 252 -37 178 -42 216 -52 439 -7 179 -14 252 -26
276 -30 64 -141 98 -184 55 -19 -19 -20 -33 -20 -214 0 -376 39 -606 170 -991
33 -99 70 -220 81 -270 27 -125 81 -217 189 -325 142 -141 265 -199 425 -200
136 0 235 30 390 119 206 119 449 437 660 866 173 352 261 672 285 1036 6 90
18 232 27 314 9 83 19 197 23 255 4 58 17 161 30 230 20 113 22 142 15 295 -4
94 -9 219 -11 279 -2 92 -7 117 -29 161 -25 52 -81 106 -107 104 -7 -1 -23 -4
-34 -6z"/>
<path d="M3905 5342 c-27 -5 -54 -30 -72 -66 -31 -59 4 -161 70 -208 18 -12
44 -34 58 -48 14 -14 44 -37 66 -53 48 -32 83 -96 83 -153 0 -32 -14 -62 -80
-163 -43 -68 -108 -155 -144 -194 -36 -39 -68 -83 -71 -98 -12 -52 38 -116 96
-125 29 -5 44 1 99 42 170 123 328 339 338 460 7 79 -45 221 -121 334 -46 67
-154 177 -222 225 -74 52 -75 52 -100 47z"/>
<path d="M9372 1451 c-10 -6 -5 -11 19 -20 44 -15 49 -14 49 9 0 15 -7 20 -27
20 -16 0 -34 -4 -41 -9z"/>
</g>
</svg>
