<?xml version="1.0" standalone="no"?>
<!DOCTYPE svg PUBLIC "-//W3C//DTD SVG 20010904//EN"
 "http://www.w3.org/TR/2001/REC-SVG-20010904/DTD/svg10.dtd">
<svg version="1.0" xmlns="http://www.w3.org/2000/svg"
 width="1024.000000pt" height="1024.000000pt" viewBox="0 0 1024.000000 1024.000000"
 preserveAspectRatio="xMidYMid meet">
<metadata>
Created by potrace 1.10, written by Peter Selinger 2001-2011
</metadata>
<g transform="translate(0.000000,1024.000000) scale(0.100000,-0.100000)"
fill="#000000" stroke="none">
<path d="M7795 8944 c-63 -24 -4614 -524 -5222 -573 l-242 -19 -327 44 c-181
24 -329 42 -331 40 -9 -8 28 -181 39 -188 7 -4 87 -59 178 -122 207 -144 300
-200 371 -226 54 -19 61 -19 185 -4 77 10 245 44 413 85 157 38 288 66 291 62
37 -44 118 -167 136 -208 31 -66 60 -200 73 -334 7 -68 11 -713 11 -1902 0
-1613 -2 -1799 -15 -1799 -9 0 -172 -20 -362 -45 -331 -44 -890 -95 -1038 -95
-129 0 -262 49 -448 164 -60 37 -116 66 -125 64 -24 -4 -55 -73 -56 -122 -1
-49 43 -146 146 -320 210 -355 345 -506 454 -506 29 0 176 65 244 108 91 58
294 118 510 152 222 35 1320 255 1940 389 556 119 1126 249 1625 371 160 38
293 70 298 70 4 0 7 -351 7 -781 l0 -781 -37 -386 c-41 -437 -46 -594 -20
-692 50 -187 184 -359 280 -360 96 0 145 71 185 270 15 76 17 224 22 1464 l5
1380 610 168 c336 92 669 182 740 200 111 27 135 36 163 64 17 17 32 37 32 43
0 15 -56 14 -142 -5 -92 -19 -1375 -244 -1394 -244 -13 0 -14 263 -11 1918 3
1726 5 1924 19 1987 l17 70 -62 56 -62 57 130 7 c204 12 877 -1 1037 -20 141
-16 190 -12 229 18 21 16 39 51 39 75 0 11 -48 80 -107 153 l-108 132 -144 64
c-139 61 -154 66 -176 57z m-1420 -571 c55 -70 127 -215 151 -303 15 -55 18
-124 21 -445 l5 -380 -1344 -149 c-739 -81 -1355 -151 -1370 -153 l-28 -5 0
188 c1 357 17 640 40 734 34 136 19 191 -71 252 l-40 26 53 7 c192 24 2479
283 2505 284 28 1 39 -7 78 -56z m175 -2035 l0 -583 -1333 -133 c-732 -74
-1349 -136 -1369 -139 l-38 -6 0 572 c0 314 1 571 3 571 24 5 2682 298 2705
299 l32 1 0 -582z m0 -1476 l0 -568 -1327 -203 c-731 -111 -1347 -205 -1370
-208 l-43 -6 0 647 c0 355 3 646 8 647 4 0 597 58 1317 128 721 71 1334 129
1363 130 l52 1 0 -568z"/>
</g>
</svg>
