<?xml version="1.0" standalone="no"?>
<!DOCTYPE svg PUBLIC "-//W3C//DTD SVG 20010904//EN"
 "http://www.w3.org/TR/2001/REC-SVG-20010904/DTD/svg10.dtd">
<svg version="1.0" xmlns="http://www.w3.org/2000/svg"
 width="1024.000000pt" height="1024.000000pt" viewBox="0 0 1024.000000 1024.000000"
 preserveAspectRatio="xMidYMid meet">
<metadata>
Created by potrace 1.10, written by Peter Selinger 2001-2011
</metadata>
<g transform="translate(0.000000,1024.000000) scale(0.100000,-0.100000)"
fill="#000000" stroke="none">
<path d="M6380 9345 c-135 -35 -299 -86 -365 -112 -153 -60 -436 -200 -585
-288 -434 -257 -1201 -860 -1801 -1417 -156 -145 -178 -194 -106 -239 35 -21
72 -24 111 -9 14 5 290 231 613 502 735 616 662 557 835 681 321 230 678 426
1042 572 l118 47 392 19 391 18 96 -97 c208 -211 281 -427 244 -717 -54 -415
-149 -731 -345 -1140 -85 -176 -150 -346 -200 -517 -23 -79 -52 -172 -64 -208
-13 -36 -31 -96 -40 -135 -10 -38 -46 -178 -81 -310 -105 -393 -134 -566 -160
-956 -25 -378 -18 -867 22 -1398 19 -270 11 -437 -31 -621 -81 -353 -237 -612
-566 -940 -417 -417 -922 -707 -1495 -860 -170 -45 -283 -60 -456 -60 -156 0
-277 14 -389 46 -95 27 -190 147 -220 277 -37 167 -76 798 -67 1098 6 175 -1
308 -19 422 -3 21 -17 51 -31 67 -31 37 -78 40 -134 8 l-39 -22 4 -560 c6
-968 41 -1180 225 -1369 66 -68 125 -108 212 -144 59 -23 79 -26 251 -30 272
-8 510 20 788 93 353 92 630 212 940 410 142 90 433 315 559 432 176 162 342
374 459 587 27 50 63 115 81 145 17 30 44 96 61 147 76 236 104 815 65 1398
-13 198 -16 335 -12 515 9 391 29 523 177 1205 l92 420 118 315 c235 627 309
818 330 860 23 45 73 198 109 330 11 41 34 125 50 187 81 304 63 604 -52 846
-24 51 -47 104 -50 118 -12 49 -104 174 -180 246 -58 55 -99 83 -169 117 -124
59 -198 76 -353 81 l-130 5 -245 -65z"/>
<path d="M5845 7994 c-225 -67 -320 -104 -470 -183 -204 -108 -359 -208 -515
-335 -231 -187 -550 -564 -550 -651 0 -76 105 -115 152 -56 54 67 460 482 537
549 242 209 572 372 895 441 69 15 101 18 106 11 4 -6 20 -14 36 -18 26 -7 32
-17 57 -92 22 -64 30 -113 36 -209 5 -77 15 -141 24 -164 l16 -38 77 3 78 3
27 75 c62 166 13 375 -117 500 -81 79 -87 85 -108 115 -42 60 -168 82 -281 49z"/>
<path d="M4568 6743 c-19 -5 -148 -185 -148 -207 0 -7 -14 -31 -31 -52 -170
-211 -378 -674 -366 -817 5 -53 26 -83 74 -103 44 -19 77 -17 96 4 9 10 41 97
70 193 l54 174 174 280 c96 154 181 295 188 313 19 46 10 123 -20 160 -30 37
-68 60 -91 55z"/>
<path d="M4919 5893 c-9 -2 -26 -23 -39 -46 -23 -39 -24 -54 -31 -307 -12
-443 -49 -745 -131 -1095 -46 -194 -122 -344 -251 -497 -66 -77 -127 -202
-120 -242 7 -34 48 -66 85 -66 19 0 60 19 112 53 l82 54 80 144 c166 296 284
664 338 1056 27 195 59 709 47 765 -15 67 -43 119 -86 156 -34 30 -50 35 -86
25z"/>
<path d="M5864 5833 c-13 -2 -32 -24 -49 -55 -36 -66 -42 -146 -21 -258 41
-211 40 -528 -2 -573 -11 -12 -22 -31 -26 -42 -3 -11 -10 -184 -16 -385 -10
-364 -11 -365 -46 -525 -42 -187 -107 -415 -162 -570 -46 -130 -251 -523 -329
-633 -130 -183 -282 -295 -496 -367 l-107 -36 -90 46 c-151 79 -279 233 -341
412 -10 31 -19 69 -19 85 0 16 -9 46 -20 68 -11 22 -20 53 -20 70 0 17 -11 56
-24 88 -13 31 -42 145 -64 252 -37 178 -42 216 -51 437 -6 133 -15 252 -20
265 -28 73 -144 115 -191 68 -19 -19 -20 -33 -20 -214 0 -376 39 -606 170
-991 33 -99 70 -220 81 -270 27 -124 81 -217 189 -325 141 -141 265 -199 425
-200 136 0 238 31 389 119 186 109 385 353 585 717 222 405 334 773 361 1187
6 89 18 230 27 312 9 83 19 197 23 255 4 58 17 161 30 230 20 113 22 142 15
295 -4 94 -9 219 -11 279 -2 92 -7 117 -29 161 -25 52 -81 106 -107 104 -7 -1
-23 -4 -34 -6z"/>
<path d="M3925 5342 c-27 -5 -54 -30 -72 -66 -31 -59 4 -161 70 -208 18 -12
44 -34 58 -48 14 -14 44 -37 66 -53 48 -32 83 -96 83 -153 0 -32 -15 -62 -78
-160 -42 -67 -107 -155 -144 -195 -37 -40 -70 -85 -73 -100 -12 -52 38 -116
96 -125 29 -5 44 1 99 42 170 123 328 339 338 460 7 79 -45 221 -121 334 -46
67 -154 177 -222 225 -74 52 -75 52 -100 47z"/>
<path d="M9392 1451 c-10 -6 -5 -11 19 -20 44 -15 49 -14 49 9 0 15 -7 20 -27
20 -16 0 -34 -4 -41 -9z"/>
</g>
</svg>
