<?xml version="1.0" standalone="no"?>
<!DOCTYPE svg PUBLIC "-//W3C//DTD SVG 20010904//EN"
 "http://www.w3.org/TR/2001/REC-SVG-20010904/DTD/svg10.dtd">
<svg version="1.0" xmlns="http://www.w3.org/2000/svg"
 width="1024.000000pt" height="1024.000000pt" viewBox="0 0 1024.000000 1024.000000"
 preserveAspectRatio="xMidYMid meet">
<metadata>
Created by potrace 1.10, written by Peter Selinger 2001-2011
</metadata>
<g transform="translate(0.000000,1024.000000) scale(0.100000,-0.100000)"
fill="#000000" stroke="none">
<path d="M4133 7715 c-172 -43 -396 -120 -564 -193 -74 -31 -449 -224 -834
-429 -516 -273 -759 -408 -924 -512 -123 -78 -236 -148 -252 -157 -48 -24
-280 -104 -304 -104 -35 0 -83 -46 -91 -87 -8 -45 11 -109 43 -140 52 -52 42
-57 973 447 470 255 905 489 965 521 240 126 564 263 855 360 154 51 203 62
409 93 243 37 274 47 292 93 12 33 6 53 -29 86 -25 24 -40 27 -176 41 -198 21
-210 21 -363 -19z"/>
<path d="M6555 7399 c-42 -12 -87 -79 -83 -121 3 -28 11 -37 53 -60 80 -44
251 -108 370 -139 100 -26 405 -139 430 -159 6 -5 152 -52 325 -105 173 -53
320 -101 325 -105 6 -5 44 -21 85 -36 175 -62 480 -226 682 -366 43 -29 131
-106 196 -169 130 -128 146 -139 194 -139 38 0 105 35 124 65 22 34 -15 92
-149 231 -125 131 -234 219 -364 296 -113 66 -355 186 -523 258 -161 69 -530
195 -687 235 -56 14 -144 44 -195 66 -222 97 -505 194 -738 253 -8 2 -28 0
-45 -5z"/>
<path d="M4030 7053 c-43 -8 -80 -52 -80 -95 0 -34 10 -49 90 -137 50 -55 96
-102 103 -104 7 -3 -7 -6 -30 -6 -23 -1 -61 -10 -86 -20 -24 -10 -162 -47
-307 -81 l-264 -61 -136 10 c-75 6 -164 11 -198 11 -59 0 -65 -2 -105 -39 -40
-37 -42 -43 -41 -94 l0 -55 -72 -35 c-39 -20 -89 -39 -110 -43 -100 -18 -461
-117 -476 -131 -28 -25 -30 -47 -13 -113 9 -34 15 -63 13 -65 -116 -87 -133
-94 -183 -75 -29 11 -232 -3 -297 -21 -48 -12 -97 -54 -115 -97 -17 -41 -9
-53 56 -87 46 -23 46 -23 21 -34 -31 -13 -206 -31 -303 -31 -117 -1 -197 -53
-197 -128 0 -41 52 -74 213 -131 13 -5 -49 -70 -281 -293 -191 -186 -306 -304
-322 -333 -14 -25 -30 -45 -36 -45 -18 0 -93 -86 -100 -114 -9 -39 3 -72 34
-94 15 -10 149 -63 297 -116 198 -72 297 -113 370 -156 118 -68 252 -135 350
-175 39 -16 82 -37 96 -47 15 -10 105 -51 200 -92 l172 -74 -39 -25 c-22 -13
-62 -36 -89 -50 -28 -14 -63 -39 -80 -57 -26 -28 -30 -38 -30 -90 0 -48 4 -64
22 -81 21 -21 25 -22 78 -10 95 21 249 105 308 167 28 30 56 54 61 54 6 0 79
-28 163 -62 l151 -63 -97 -100 c-160 -165 -331 -406 -331 -465 0 -19 4 -41 8
-47 5 -7 43 -15 92 -19 l85 -7 190 224 c200 236 228 277 222 322 -2 15 -3 27
-1 27 7 0 410 -182 416 -188 4 -4 -55 -61 -133 -126 -169 -143 -189 -166 -189
-212 0 -49 34 -112 66 -120 37 -9 56 2 233 135 163 123 201 164 201 220 l0 31
68 -33 c138 -70 421 -153 802 -237 201 -45 375 -83 387 -86 17 -5 24 -18 33
-59 6 -30 19 -64 29 -77 9 -13 30 -69 45 -126 27 -98 31 -105 74 -138 41 -31
52 -35 96 -32 44 3 53 7 64 31 11 24 9 47 -18 183 -17 86 -29 158 -26 162 6 5
366 -25 399 -35 10 -2 17 -14 17 -28 0 -15 12 -32 31 -47 41 -31 68 -57 107
-107 38 -47 73 -68 129 -77 35 -5 42 -3 65 24 l25 30 -33 95 -33 95 102 6 c56
3 231 8 388 11 l287 6 106 -137 c113 -146 159 -188 216 -199 46 -8 87 21 96
71 8 45 -32 154 -87 235 -22 33 -39 62 -37 64 2 3 84 23 182 46 176 41 177 41
199 22 207 -184 289 -242 340 -243 10 0 39 14 63 32 40 29 44 35 44 75 0 76
-35 124 -160 222 -14 10 -23 21 -20 23 3 3 112 45 243 93 194 72 242 87 256
78 10 -6 37 -17 60 -23 34 -9 62 -31 144 -118 167 -175 163 -172 210 -172 49
0 81 19 102 60 15 29 14 33 -46 142 -56 103 -68 118 -141 176 -44 35 -78 65
-76 67 11 11 861 414 953 452 125 52 193 102 224 167 22 44 20 67 -7 98 -13
16 -12 20 9 37 13 11 43 28 66 38 24 10 43 22 43 28 0 32 -40 107 -80 150 -26
28 -123 142 -215 255 -93 113 -188 228 -212 256 l-43 51 163 68 c190 80 255
119 287 170 30 48 20 78 -38 119 l-42 30 -78 -33 c-161 -68 -214 -83 -322 -91
-101 -8 -160 -21 -188 -43 -10 -8 -24 0 -55 30 -23 22 -93 77 -154 122 -62 46
-113 86 -113 90 0 4 105 20 232 35 138 17 242 34 254 43 32 20 49 95 30 131
-31 60 -98 70 -251 38 -74 -16 -152 -26 -205 -26 -131 0 -170 -17 -215 -94 -9
-16 -22 -9 -110 54 -55 40 -104 76 -108 80 -5 5 15 15 45 24 114 33 268 147
284 211 9 37 -13 81 -58 114 l-40 30 -130 -65 c-109 -55 -140 -66 -196 -70
-83 -7 -131 -21 -158 -45 -20 -19 -22 -18 -152 53 -72 40 -128 76 -124 79 4 4
50 25 102 48 134 59 188 115 168 173 -11 31 -75 78 -107 78 -13 0 -67 -17
-120 -38 -53 -22 -139 -47 -191 -56 -52 -10 -109 -25 -125 -33 -30 -15 -33
-14 -213 76 -100 50 -182 93 -182 96 0 2 38 25 84 50 86 47 156 111 156 143
-1 30 -26 64 -65 87 l-37 23 -72 -34 c-131 -60 -320 -104 -444 -104 -26 0
-113 20 -194 43 l-146 42 33 23 c42 27 69 75 59 105 -8 28 -42 65 -75 82 -23
12 -48 8 -250 -48 -235 -64 -239 -64 -332 -53 l-58 8 38 27 c43 31 69 66 79
105 8 33 -36 80 -90 94 -34 10 -50 6 -167 -39 -71 -27 -146 -49 -166 -49 -64
0 -116 -20 -155 -60 l-38 -37 -322 13 c-178 7 -324 13 -325 13 -1 1 -28 24
-60 52 -32 28 -95 74 -140 102 -55 34 -83 58 -83 71 0 10 -15 33 -34 52 -34
34 -57 39 -126 27z m-721 -854 c-15 -47 -21 -89 -22 -154 0 -86 9 -126 208
-870 l207 -780 121 -219 120 -218 163 -167 c105 -108 196 -191 256 -234 108
-77 286 -172 408 -217 l85 -32 497 -21 497 -21 68 22 c130 42 444 234 648 397
252 201 448 406 656 687 159 215 294 447 405 699 46 105 174 474 174 502 0 43
39 23 285 -147 413 -284 761 -569 953 -779 120 -132 311 -390 326 -441 l13
-43 -61 -34 c-53 -29 -73 -35 -148 -39 -79 -5 -90 -8 -117 -34 -16 -16 -33
-45 -38 -64 l-9 -37 -499 -231 c-535 -249 -717 -325 -971 -409 -464 -154 -722
-202 -1228 -227 -454 -23 -857 12 -1655 143 -326 53 -685 155 -965 272 -68 29
-532 232 -1029 451 -881 389 -905 400 -891 420 26 38 17 81 -26 131 -67 78
-82 117 -91 236 -10 139 -34 202 -100 264 -27 25 -47 50 -44 55 7 11 743 615
839 689 158 120 414 275 591 357 97 45 389 163 393 159 2 -1 -7 -31 -19 -66z
m-1935 -1400 c9 -86 39 -196 71 -260 14 -27 24 -49 22 -49 -5 0 -361 160 -365
164 -2 2 45 58 104 124 l107 121 27 -16 c25 -14 28 -24 34 -84z"/>
<path d="M1683 4085 c-48 -20 -122 -72 -172 -119 -80 -76 -99 -167 -49 -232
19 -23 27 -26 65 -21 76 8 261 145 290 216 20 47 8 83 -42 130 -50 46 -48 45
-92 26z"/>
<path d="M3909 3101 c-136 -88 -202 -237 -150 -339 46 -90 99 -76 217 56 104
118 123 167 89 232 -17 32 -74 80 -96 80 -9 0 -35 -13 -60 -29z"/>
</g>
</svg>
