<?xml version="1.0" standalone="no"?>
<!DOCTYPE svg PUBLIC "-//W3C//DTD SVG 20010904//EN"
 "http://www.w3.org/TR/2001/REC-SVG-20010904/DTD/svg10.dtd">
<svg version="1.0" xmlns="http://www.w3.org/2000/svg"
 width="1024.000000pt" height="1024.000000pt" viewBox="0 0 1024.000000 1024.000000"
 preserveAspectRatio="xMidYMid meet">
<metadata>
Created by potrace 1.10, written by Peter Selinger 2001-2011
</metadata>
<g transform="translate(0.000000,1024.000000) scale(0.100000,-0.100000)"
fill="#000000" stroke="none">
<path d="M6489 9617 c-80 -18 -156 -39 -170 -48 -122 -81 -354 -151 -579 -174
-58 -6 -488 -61 -1746 -225 l-391 -51 -291 106 c-160 58 -297 105 -303 105 -6
0 -54 -23 -105 -50 l-93 -51 80 -107 c126 -170 190 -317 211 -487 14 -117 -17
-4175 -34 -4370 -13 -150 -3 -247 37 -366 56 -166 220 -339 322 -339 29 0 33
-4 47 -48 29 -86 46 -195 52 -332 6 -118 4 -146 -14 -218 -69 -272 -341 -800
-618 -1202 -55 -80 -159 -208 -256 -316 -90 -99 -229 -255 -311 -346 l-147
-165 -338 -229 c-185 -126 -361 -251 -390 -278 l-53 -49 28 -29 c15 -15 37
-28 49 -28 42 0 168 51 369 150 724 356 1345 867 1818 1497 176 234 380 556
540 853 55 102 115 203 133 224 19 22 34 49 34 60 0 39 -44 111 -114 185 -97
102 -374 322 -471 373 -70 37 -88 43 -145 43 l-66 0 24 110 c14 61 25 111 26
112 0 0 302 36 670 79 l669 77 39 -44 c102 -116 201 -293 232 -416 46 -176 48
-226 56 -1163 10 -1171 23 -1335 126 -1631 61 -176 132 -295 237 -400 69 -68
126 -99 277 -147 216 -69 447 -92 914 -92 585 0 1021 35 1448 115 183 35 482
113 585 153 163 63 263 172 267 292 1 41 -4 53 -37 93 -21 26 -64 66 -95 89
-157 118 -250 242 -300 398 -31 97 -38 148 -77 590 -39 446 -47 504 -71 531
-28 31 -63 24 -79 -14 -8 -18 -37 -209 -64 -423 -28 -214 -58 -425 -67 -469
-63 -325 -203 -564 -384 -655 -211 -106 -573 -156 -1210 -167 -319 -5 -376 -4
-448 11 -98 20 -176 52 -243 102 -91 66 -147 222 -179 494 -29 250 -21 1190
16 1850 17 305 39 426 94 524 17 29 30 60 30 68 0 42 -149 142 -347 233 -62
29 -119 57 -127 64 -7 6 -31 20 -52 31 -22 11 -32 19 -24 20 9 0 228 18 489
40 260 22 481 40 491 40 12 0 21 -14 30 -47 20 -74 45 -116 106 -182 68 -73
142 -112 231 -119 l63 -5 43 44 c50 50 75 108 118 275 66 263 62 115 69 2404
6 2055 6 2076 27 2165 27 118 40 147 101 228 52 68 82 143 82 202 0 42 -39 95
-131 176 -168 149 -302 239 -424 284 -82 31 -106 31 -286 -8z m-129 -509 c47
-24 82 -67 102 -127 9 -26 13 -187 16 -588 l3 -552 -33 -5 c-18 -3 -643 -76
-1388 -161 -745 -85 -1370 -157 -1387 -160 l-33 -6 0 600 0 600 43 6 c23 4
609 98 1302 210 693 112 1276 204 1295 204 20 1 56 -9 80 -21z m118 -2240 l-3
-612 -1395 -158 c-767 -86 -1405 -157 -1417 -157 l-23 -1 0 610 c0 336 3 610
8 610 7 1 2811 317 2825 319 4 1 6 -274 5 -611z m-1 -1230 c-4 -150 -10 -452
-13 -671 -5 -264 -11 -402 -18 -411 -8 -10 -381 -51 -1366 -150 -745 -75
-1374 -139 -1397 -142 l-43 -6 0 669 0 669 1388 156 c763 85 1402 156 1421
157 l34 1 -6 -272z"/>
</g>
</svg>
