<?xml version="1.0" standalone="no"?>
<!DOCTYPE svg PUBLIC "-//W3C//DTD SVG 20010904//EN"
 "http://www.w3.org/TR/2001/REC-SVG-20010904/DTD/svg10.dtd">
<svg version="1.0" xmlns="http://www.w3.org/2000/svg"
 width="1024.000000pt" height="1024.000000pt" viewBox="0 0 1024.000000 1024.000000"
 preserveAspectRatio="xMidYMid meet">
<metadata>
Created by potrace 1.10, written by Peter Selinger 2001-2011
</metadata>
<g transform="translate(0.000000,1024.000000) scale(0.100000,-0.100000)"
fill="#000000" stroke="none">
<path d="M7275 9040 l-660 -149 -255 -10 c-275 -11 -365 -25 -520 -79 -106
-36 -236 -101 -316 -157 l-61 -43 -234 25 c-365 38 -524 25 -717 -57 -138 -59
-242 -131 -353 -247 -115 -119 -219 -263 -283 -390 -14 -29 -32 -53 -39 -53
-16 0 -148 -92 -284 -198 -137 -106 -418 -388 -535 -535 -269 -339 -457 -723
-538 -1102 -31 -143 -38 -421 -15 -565 9 -58 20 -137 24 -175 8 -76 18 -100
50 -129 17 -15 29 -17 73 -12 53 7 54 8 122 97 76 98 267 289 361 361 258 196
554 335 860 402 66 15 150 34 187 43 l66 17 111 -52 c164 -79 274 -105 441
-105 126 -1 139 1 195 27 l59 27 -24 -26 c-26 -27 -29 -63 -15 -152 6 -35 -17
-126 -151 -600 l-158 -558 -492 -1175 -492 -1175 -47 -30 c-264 -169 -393
-260 -565 -399 -238 -192 -320 -289 -361 -424 -21 -72 -21 -79 -9 -235 9 -112
19 -175 32 -206 50 -117 162 -229 272 -270 98 -36 172 -44 426 -45 262 -1 367
10 576 59 271 64 452 140 720 302 899 544 1378 830 1430 854 72 33 203 69 251
69 18 0 79 -7 136 -15 113 -17 179 -45 322 -140 161 -107 233 -178 449 -444
106 -130 125 -146 161 -137 33 8 83 70 91 112 13 72 -4 98 -253 379 -254 287
-326 354 -437 409 -297 147 -742 75 -1110 -178 -740 -508 -842 -574 -1072
-689 -272 -136 -530 -230 -894 -324 -252 -66 -257 -67 -390 -67 -126 -1 -141
1 -221 30 -48 17 -119 52 -159 79 -62 41 -76 56 -98 104 -37 82 -37 196 0 267
35 67 191 239 331 365 255 231 514 401 872 574 338 163 683 369 852 507 257
209 487 513 607 800 63 151 101 273 153 503 44 189 47 208 47 350 1 183 -18
265 -99 432 -30 62 -55 121 -55 132 0 11 -20 64 -45 119 -25 55 -45 112 -45
128 0 16 -9 44 -20 62 -11 18 -56 118 -100 223 -79 189 -170 484 -153 499 4 4
42 15 83 25 188 44 497 280 705 540 118 147 178 246 235 387 34 83 38 89 130
166 52 44 164 138 247 208 l153 129 390 505 c583 753 576 744 755 909 44 40
88 87 98 104 25 46 22 99 -7 126 -23 21 -82 42 -116 40 -8 -1 -312 -68 -675
-149z m266 -252 c-112 -133 -259 -333 -345 -469 -47 -74 -103 -152 -124 -174
-22 -22 -67 -76 -100 -120 -33 -44 -118 -141 -188 -215 -71 -74 -187 -195
-258 -270 -70 -74 -131 -136 -135 -138 -4 -1 -13 71 -20 160 -7 90 -17 194
-22 231 -19 140 -111 319 -215 418 -27 26 -123 97 -214 159 -91 62 -171 118
-178 124 -29 27 163 69 995 217 455 80 836 147 846 148 14 1 2 -19 -42 -71z
m-2225 -383 c241 -41 448 -144 641 -319 140 -127 229 -427 203 -683 -11 -105
-64 -319 -85 -343 -7 -8 -33 -54 -58 -102 -173 -335 -490 -623 -808 -731 -207
-71 -510 -76 -729 -11 -179 53 -331 179 -409 339 -24 50 -59 122 -78 161 -27
56 -34 81 -33 125 1 30 -6 81 -15 114 -10 38 -16 103 -17 175 -1 98 5 145 41
325 31 153 53 234 81 300 21 50 45 110 53 132 22 65 100 183 172 261 108 116
255 201 412 238 142 34 483 44 629 19z m-1602 -1072 c-29 -281 -19 -415 45
-618 11 -33 22 -82 26 -108 5 -38 26 -80 91 -182 46 -73 84 -137 84 -141 0 -5
-51 -22 -112 -38 -397 -100 -787 -315 -1106 -611 l-72 -67 5 113 c27 503 144
823 450 1235 160 215 314 380 520 556 50 43 90 78 90 78 1 0 -9 -98 -21 -217z
m1585 -2061 c63 -152 140 -331 172 -397 79 -165 93 -221 92 -375 0 -100 -5
-138 -22 -190 -12 -36 -50 -196 -85 -355 -61 -279 -86 -354 -130 -405 -8 -8
-25 -38 -39 -66 -15 -29 -70 -103 -124 -166 -54 -62 -125 -146 -158 -186 -89
-108 -316 -281 -555 -425 -140 -84 -439 -242 -445 -235 -3 2 90 211 206 464
450 982 559 1266 810 2102 84 281 155 512 158 512 3 0 57 -125 120 -278z"/>
<path d="M6396 4560 c7 -40 24 -76 23 -50 0 8 -7 31 -15 50 l-14 35 6 -35z"/>
<path d="M6930 1270 c-8 -5 -11 -12 -7 -16 4 -4 15 0 24 9 18 18 8 23 -17 7z"/>
</g>
</svg>
