<?xml version="1.0" standalone="no"?>
<!DOCTYPE svg PUBLIC "-//W3C//DTD SVG 20010904//EN"
 "http://www.w3.org/TR/2001/REC-SVG-20010904/DTD/svg10.dtd">
<svg version="1.0" xmlns="http://www.w3.org/2000/svg"
 width="1024.000000pt" height="1024.000000pt" viewBox="0 0 1024.000000 1024.000000"
 preserveAspectRatio="xMidYMid meet">
<metadata>
Created by potrace 1.10, written by Peter Selinger 2001-2011
</metadata>
<g transform="translate(0.000000,1024.000000) scale(0.100000,-0.100000)"
fill="#000000" stroke="none">
<path d="M5022 9244 c-44 -31 -55 -68 -48 -173 5 -61 -1 -204 -13 -391 -12
-162 -21 -298 -21 -302 0 -5 -6 -8 -12 -8 -7 0 -67 -26 -133 -59 -134 -65
-261 -146 -379 -241 -98 -79 -696 -739 -696 -768 0 -11 -52 -82 -116 -159 -64
-76 -131 -168 -150 -205 -18 -37 -56 -101 -83 -142 -50 -77 -90 -170 -112
-261 -7 -27 -26 -71 -43 -98 -24 -39 -31 -63 -34 -116 -4 -65 -3 -67 35 -108
27 -29 50 -43 76 -48 74 -14 115 26 124 122 3 32 9 63 13 68 4 6 13 28 20 50
43 142 253 519 413 740 155 215 394 472 593 639 136 113 320 247 407 294 l57
32 0 -297 c1 -164 5 -345 10 -403 17 -199 23 -628 11 -850 -14 -259 -14 -876
-1 -1187 6 -125 9 -227 8 -228 -2 -2 -142 -7 -312 -12 l-309 -10 -24 -28 c-20
-23 -23 -34 -18 -65 4 -27 1 -48 -10 -70 -20 -38 -10 -70 27 -93 13 -8 81 -25
153 -37 116 -21 148 -22 312 -16 l183 7 0 -43 c0 -24 -5 -432 -10 -908 -9
-750 -8 -875 5 -940 8 -41 41 -356 74 -700 33 -344 66 -651 74 -682 l14 -58
-86 0 c-189 1 -293 28 -414 110 -333 225 -643 593 -794 944 -98 229 -179 482
-226 716 -27 129 -40 223 -81 543 -26 205 -38 239 -90 245 -35 4 -112 -41
-120 -70 -19 -72 -1 -387 35 -598 29 -177 124 -541 183 -702 70 -195 192 -436
297 -588 44 -64 454 -521 508 -565 304 -253 671 -332 1069 -229 335 86 599
211 867 412 228 170 372 326 456 494 54 107 66 143 154 448 105 361 153 665
199 1253 l32 407 -113 0 c-109 0 -113 -1 -117 -22 -3 -13 -14 -160 -25 -328
-12 -179 -27 -328 -36 -360 -8 -30 -24 -152 -36 -270 -20 -214 -21 -217 -116
-560 -99 -362 -118 -410 -218 -560 -203 -305 -596 -575 -982 -675 -115 -30
-143 -32 -143 -7 0 9 -27 303 -61 652 -58 607 -60 642 -52 794 6 122 5 163 -4
176 -10 14 -15 214 -23 841 -6 452 -9 823 -8 825 2 1 158 -4 348 -12 395 -16
429 -13 490 42 58 53 85 149 59 207 -12 26 -75 50 -229 84 -84 19 -347 24
-551 11 l-117 -8 -8 258 c-4 141 -7 455 -5 697 1 242 2 806 3 1253 l2 812 56
0 c87 0 226 -27 302 -60 131 -54 171 -89 371 -319 170 -196 205 -243 379 -511
191 -295 191 -295 329 -605 123 -275 144 -315 183 -352 55 -53 86 -55 145 -13
73 54 73 63 -13 238 -42 84 -76 164 -76 178 0 31 -161 351 -271 539 -110 189
-245 391 -372 560 -134 179 -189 239 -290 320 -196 157 -398 240 -649 268 -60
6 -108 16 -108 22 0 5 7 35 15 65 8 30 15 87 15 126 0 61 24 271 46 396 14 78
-35 187 -101 228 -39 24 -63 25 -93 4z"/>
</g>
</svg>
