<?xml version="1.0" standalone="no"?>
<!DOCTYPE svg PUBLIC "-//W3C//DTD SVG 20010904//EN"
 "http://www.w3.org/TR/2001/REC-SVG-20010904/DTD/svg10.dtd">
<svg version="1.0" xmlns="http://www.w3.org/2000/svg"
 width="1024.000000pt" height="1024.000000pt" viewBox="0 0 1024.000000 1024.000000"
 preserveAspectRatio="xMidYMid meet">
<metadata>
Created by potrace 1.10, written by Peter Selinger 2001-2011
</metadata>
<g transform="translate(0.000000,1024.000000) scale(0.100000,-0.100000)"
fill="#000000" stroke="none">
<path d="M4477 8467 l-38 -12 46 -60 c70 -89 79 -115 79 -230 0 -122 -26 -226
-116 -453 -59 -150 -356 -764 -375 -775 -11 -7 -653 -77 -703 -77 -18 0 -117
29 -219 64 l-186 63 -82 -31 c-49 -18 -83 -36 -83 -44 0 -8 24 -38 53 -67 55
-56 102 -133 140 -232 l22 -58 3 -1775 3 -1775 -32 -345 c-35 -374 -34 -429
10 -553 27 -78 96 -173 146 -203 58 -33 90 -31 130 9 39 39 60 103 77 232 6
49 12 91 14 93 1 2 651 52 1445 112 l1444 109 101 -104 c113 -116 180 -200
248 -316 53 -89 90 -120 150 -126 37 -5 47 -1 80 27 67 59 133 221 192 470 17
70 18 207 24 2105 6 1800 8 2039 22 2107 20 96 34 138 66 203 15 29 28 73 30
106 4 54 2 59 -33 97 -67 74 -270 195 -382 228 -70 20 -133 11 -314 -47 l-124
-40 -1010 -104 c-555 -58 -1015 -104 -1021 -103 -20 5 548 706 683 843 71 71
133 139 140 150 17 29 16 81 -4 122 -32 67 -176 206 -294 283 -171 112 -242
134 -332 107z m2132 -1574 c62 -46 61 -37 61 -600 0 -490 -1 -513 -18 -513
-10 0 -65 -4 -123 -10 -57 -5 -774 -66 -1594 -135 -819 -68 -1507 -127 -1527
-130 l-38 -5 0 538 0 538 308 33 c169 19 872 96 1562 172 690 76 1275 136
1299 134 24 -1 55 -11 70 -22z m61 -1941 l0 -578 -857 -73 c-472 -40 -1033
-88 -1248 -106 -214 -19 -554 -48 -755 -64 -201 -17 -382 -33 -402 -36 l-38
-5 0 580 0 580 23 4 c12 3 247 24 522 46 275 23 988 83 1585 135 597 51 1104
93 1128 94 l42 1 0 -578z m-2 -1556 c-3 -700 -4 -725 -22 -745 l-20 -22 -50
50 c-61 59 -94 76 -181 96 -66 16 -67 16 -443 -44 -207 -33 -460 -67 -562 -76
-102 -8 -572 -46 -1045 -85 -473 -38 -886 -72 -917 -76 l-58 -6 0 676 c0 372
1 676 3 677 1 1 738 63 1637 139 899 76 1641 138 1648 139 10 1 12 -143 10
-723z"/>
</g>
</svg>
