<?xml version="1.0" standalone="no"?>
<!DOCTYPE svg PUBLIC "-//W3C//DTD SVG 20010904//EN"
 "http://www.w3.org/TR/2001/REC-SVG-20010904/DTD/svg10.dtd">
<svg version="1.0" xmlns="http://www.w3.org/2000/svg"
 width="1024.000000pt" height="1024.000000pt" viewBox="0 0 1024.000000 1024.000000"
 preserveAspectRatio="xMidYMid meet">
<metadata>
Created by potrace 1.10, written by Peter Selinger 2001-2011
</metadata>
<g transform="translate(0.000000,1024.000000) scale(0.100000,-0.100000)"
fill="#000000" stroke="none">
<path d="M4432 9274 c-40 -19 -76 -42 -79 -49 -10 -27 19 -86 66 -133 161
-161 264 -445 291 -802 13 -178 13 -6094 0 -6199 -12 -93 -47 -170 -91 -202
-31 -22 -43 -24 -129 -23 -176 3 -384 72 -710 236 -142 71 -226 108 -247 108
-18 0 -33 -3 -33 -6 0 -3 86 -94 191 -202 322 -331 561 -612 722 -846 139
-204 260 -337 359 -395 l34 -20 134 179 c147 195 182 263 220 422 58 245 54
103 60 2321 l5 2037 230 -307 c262 -350 352 -465 619 -788 346 -419 758 -894
1049 -1210 189 -205 646 -663 692 -695 98 -67 329 -113 700 -140 152 -12 955
-26 955 -18 0 13 -100 70 -305 173 -515 261 -1413 817 -1678 1041 -360 303
-877 797 -1238 1184 -386 414 -981 1111 -956 1119 239 82 505 178 582 211 587
249 1168 555 1580 830 74 49 152 88 300 150 247 102 248 102 306 157 64 60 77
98 50 151 -70 138 -350 404 -588 559 -145 94 -201 102 -266 35 l-37 -38 31
-30 c17 -16 43 -51 57 -79 22 -42 26 -63 27 -135 0 -81 -2 -88 -42 -163 -93
-170 -233 -324 -416 -458 -421 -307 -956 -641 -1457 -911 -36 -19 -96 -52
-133 -72 l-68 -37 4 983 c5 1031 7 1082 57 1567 21 201 21 205 2 230 -24 33
-77 63 -177 102 -44 17 -150 61 -235 99 -262 115 -317 123 -438 64z"/>
<path d="M3420 6804 c-25 -14 -54 -34 -65 -44 -11 -10 -118 -75 -237 -144
-200 -116 -238 -134 -460 -217 -134 -50 -344 -126 -468 -168 l-225 -76 -415
-3 c-228 -1 -420 -4 -427 -7 -8 -3 -2 -41 22 -131 19 -69 35 -128 37 -129 2
-2 39 -17 83 -35 44 -17 130 -57 190 -89 145 -75 349 -141 439 -141 60 0 87 8
299 94 127 52 331 140 452 196 330 153 574 250 628 250 20 0 28 -7 38 -37 38
-117 -53 -380 -308 -885 -307 -609 -627 -1134 -932 -1528 -237 -307 -599 -663
-915 -898 -61 -46 -131 -103 -156 -128 -25 -24 -50 -44 -55 -44 -6 0 -16 -4
-23 -9 -11 -7 -10 -16 7 -49 l21 -41 102 48 c592 279 621 294 760 404 387 305
781 699 1134 1137 140 172 344 470 481 700 182 305 404 725 452 857 40 109 75
177 125 243 22 30 57 92 78 138 36 81 36 84 22 125 -20 56 -65 143 -121 231
-51 81 -229 261 -326 330 -115 82 -163 92 -237 50z"/>
</g>
</svg>
