<?xml version="1.0" standalone="no"?>
<!DOCTYPE svg PUBLIC "-//W3C//DTD SVG 20010904//EN"
 "http://www.w3.org/TR/2001/REC-SVG-20010904/DTD/svg10.dtd">
<svg version="1.0" xmlns="http://www.w3.org/2000/svg"
 width="1024.000000pt" height="1024.000000pt" viewBox="0 0 1024.000000 1024.000000"
 preserveAspectRatio="xMidYMid meet">
<metadata>
Created by potrace 1.10, written by Peter Selinger 2001-2011
</metadata>
<g transform="translate(0.000000,1024.000000) scale(0.100000,-0.100000)"
fill="#000000" stroke="none">
<path d="M5308 8945 c-24 -16 -42 -40 -53 -69 -16 -42 -17 -90 -6 -723 6 -373
11 -743 11 -823 l0 -145 -70 -38 c-89 -48 -1705 -1319 -1731 -1361 -27 -44
-24 -70 12 -111 23 -25 39 -35 61 -35 28 0 366 244 1523 1100 50 37 146 108
214 158 68 51 129 92 136 92 7 0 100 -69 206 -153 345 -272 569 -437 851 -626
123 -83 231 -165 298 -226 127 -117 147 -129 212 -123 39 4 57 12 85 39 39 38
52 64 45 92 -3 11 -309 248 -681 528 -372 280 -701 529 -731 554 -30 25 -83
57 -117 71 -49 21 -63 32 -63 48 0 12 -11 322 -25 690 l-25 669 20 121 c25
159 16 202 -55 265 -43 37 -69 39 -117 6z"/>
<path d="M7305 8336 l-39 -33 2 -129 c2 -71 21 -425 43 -788 l39 -659 0 -1023
0 -1024 -52 5 c-29 3 -136 9 -238 15 -173 10 -207 8 -520 -20 -1933 -173
-1865 -168 -2513 -174 -497 -4 -584 -2 -620 10 -33 12 -66 14 -153 9 l-110 -7
3 58 c2 33 24 480 48 994 93 1935 82 1759 109 1810 22 42 24 61 32 275 11 287
9 336 -16 393 -42 94 -116 160 -165 148 -44 -11 -52 -45 -59 -271 -4 -115 -17
-365 -31 -555 -25 -369 -27 -414 -50 -1135 -10 -307 -22 -529 -35 -640 -55
-479 -75 -938 -67 -1555 3 -245 13 -533 21 -640 8 -107 49 -429 90 -715 42
-286 89 -621 106 -745 16 -124 41 -267 55 -319 63 -236 206 -443 410 -597 52
-39 103 -65 200 -102 l130 -49 715 -33 c750 -35 908 -35 1110 -5 564 83 846
221 1034 504 125 187 327 694 421 1051 40 155 41 160 216 1237 l131 808 14
585 c10 446 11 773 4 1380 -9 817 -16 965 -61 1380 -16 143 -19 216 -14 275
17 175 1 240 -72 290 -49 33 -70 31 -118 -9z m31 -3873 c-3 -16 -78 -449 -167
-963 -88 -514 -162 -936 -162 -937 -1 0 -114 -15 -252 -32 l-250 -30 -1614
-16 c-888 -8 -1615 -14 -1617 -12 -2 2 -16 91 -30 198 -19 146 -34 376 -63
929 -21 404 -37 736 -35 738 1 2 56 -13 123 -32 69 -21 142 -36 171 -36 28 0
396 20 818 45 422 25 1116 65 1542 90 426 25 910 54 1075 64 165 10 337 19
383 20 l84 1 -6 -27z m-455 -2371 c-42 -120 -84 -230 -93 -244 -9 -14 -42 -86
-73 -159 -66 -157 -104 -219 -194 -313 -114 -118 -271 -213 -413 -250 -78 -20
-1761 -102 -1903 -92 -246 16 -440 107 -606 284 -129 138 -127 134 -220 575
-44 214 -79 390 -77 393 3 2 232 -3 509 -11 277 -8 785 -24 1129 -34 l625 -18
675 42 c371 23 684 43 696 44 19 1 15 -15 -55 -217z"/>
<path d="M6711 3920 c0 -8 4 -24 9 -35 5 -13 9 -14 9 -5 0 8 -4 24 -9 35 -5
13 -9 14 -9 5z"/>
</g>
</svg>
