<?xml version="1.0" standalone="no"?>
<!DOCTYPE svg PUBLIC "-//W3C//DTD SVG 20010904//EN"
 "http://www.w3.org/TR/2001/REC-SVG-20010904/DTD/svg10.dtd">
<svg version="1.0" xmlns="http://www.w3.org/2000/svg"
 width="1024.000000pt" height="1024.000000pt" viewBox="0 0 1024.000000 1024.000000"
 preserveAspectRatio="xMidYMid meet">
<metadata>
Created by potrace 1.10, written by Peter Selinger 2001-2011
</metadata>
<g transform="translate(0.000000,1024.000000) scale(0.100000,-0.100000)"
fill="#000000" stroke="none">
<path d="M4057 9033 c-22 -3 -38 -19 -67 -65 -74 -114 -106 -226 -121 -428 -7
-92 -18 -163 -29 -195 -11 -27 -28 -86 -39 -130 -11 -44 -26 -105 -34 -135 -8
-30 -32 -129 -52 -220 -47 -207 -379 -1358 -409 -1419 -13 -25 -28 -68 -35
-96 -31 -129 -120 -410 -191 -600 -83 -222 -201 -498 -224 -524 -8 -9 -56
-122 -106 -251 l-93 -235 -393 -565 c-391 -562 -393 -566 -520 -815 -70 -137
-162 -315 -205 -395 -99 -185 -113 -232 -107 -364 6 -131 22 -165 139 -302
270 -318 651 -646 1027 -887 196 -126 455 -267 489 -267 38 0 67 21 87 65 30
62 12 90 -102 159 -439 266 -870 600 -1220 943 -134 132 -152 154 -172 208
-36 97 -25 166 50 328 166 357 395 738 661 1100 192 262 232 320 315 454 109
176 256 470 322 643 29 74 83 196 121 270 119 233 270 664 401 1150 23 85 62
204 86 265 29 72 99 315 204 710 88 330 173 638 190 684 17 46 37 122 45 170
9 47 40 191 70 320 30 129 55 252 55 275 0 49 -33 109 -76 136 -16 11 -31 19
-34 18 -3 0 -18 -3 -33 -5z"/>
<path d="M7858 4547 c-42 -32 -43 -35 -43 -90 1 -76 23 -105 233 -302 196
-184 301 -296 450 -483 177 -219 250 -361 293 -567 36 -173 21 -316 -47 -445
-50 -95 -1025 -1336 -1124 -1430 -88 -84 -100 -103 -100 -155 0 -61 23 -93 74
-100 24 -4 51 -5 59 -3 14 3 115 115 626 694 180 205 194 223 435 595 137 211
256 400 264 419 41 98 54 337 27 492 -29 167 -109 352 -210 486 -100 133 -388
466 -463 536 -42 40 -153 143 -245 229 -92 86 -172 157 -177 157 -4 0 -28 -15
-52 -33z"/>
<path d="M6630 4176 c0 -22 24 -96 31 -96 4 0 1 21 -8 48 -16 47 -23 62 -23
48z"/>
<path d="M3510 1863 c-41 -22 -112 -59 -158 -82 -64 -34 -84 -49 -89 -70 -3
-14 -17 -46 -30 -70 -29 -55 -29 -84 0 -147 13 -27 31 -66 41 -88 24 -56 62
-101 115 -140 64 -46 102 -53 146 -26 90 55 87 130 -6 215 -40 35 -42 41 -41
88 0 28 6 53 13 57 6 4 42 18 80 31 l69 23 275 -21 274 -21 48 -35 c278 -208
520 -311 817 -348 119 -14 332 -7 461 16 100 17 475 135 545 170 134 68 373
129 571 147 194 17 526 -15 550 -54 20 -30 9 -69 -36 -123 -50 -62 -69 -119
-60 -176 8 -45 21 -58 67 -66 42 -6 100 21 158 73 53 48 76 88 96 164 21 81 7
195 -31 252 -58 88 -304 156 -590 165 -239 7 -437 -30 -645 -121 -181 -80
-486 -182 -630 -213 -120 -25 -393 -25 -508 0 -160 35 -298 94 -462 197 -266
167 -467 227 -790 237 l-175 5 -75 -39z"/>
</g>
</svg>
