<?xml version="1.0" standalone="no"?>
<!DOCTYPE svg PUBLIC "-//W3C//DTD SVG 20010904//EN"
 "http://www.w3.org/TR/2001/REC-SVG-20010904/DTD/svg10.dtd">
<svg version="1.0" xmlns="http://www.w3.org/2000/svg"
 width="1024.000000pt" height="1024.000000pt" viewBox="0 0 1024.000000 1024.000000"
 preserveAspectRatio="xMidYMid meet">
<metadata>
Created by potrace 1.10, written by Peter Selinger 2001-2011
</metadata>
<g transform="translate(0.000000,1024.000000) scale(0.100000,-0.100000)"
fill="#000000" stroke="none">
<path d="M3521 8921 c-37 -47 -38 -42 24 -175 l43 -93 -83 -263 c-74 -235 -93
-284 -181 -459 -384 -761 -747 -1247 -1471 -1967 -200 -198 -256 -264 -227
-264 12 0 481 265 529 299 342 243 825 699 1085 1023 l134 167 30 -18 c17 -11
110 -36 207 -56 l176 -37 394 36 c217 20 414 41 438 48 43 11 45 11 68 -18 39
-48 102 -184 120 -259 14 -60 17 -161 20 -735 l4 -665 -933 -99 c-513 -54
-1012 -107 -1108 -117 -218 -22 -580 -49 -663 -49 -34 0 -203 24 -375 54 -172
29 -314 50 -316 47 -6 -9 24 -195 32 -202 18 -16 345 -251 416 -298 43 -29
107 -66 142 -83 l64 -30 132 17 c73 9 284 46 468 81 184 36 463 89 620 120
218 42 427 72 890 129 333 41 610 75 617 75 10 0 13 -291 13 -1469 l0 -1470
-42 -6 c-105 -14 -1701 -185 -1732 -185 -29 0 -37 4 -42 24 -3 13 -4 405 -1
872 3 652 7 864 17 915 17 84 8 110 -69 184 -128 126 -335 251 -455 275 -111
22 -216 -9 -216 -65 0 -13 19 -43 44 -71 59 -64 128 -198 161 -309 55 -189 57
-224 52 -1020 -3 -479 -8 -749 -15 -785 -6 -30 -16 -78 -22 -106 -7 -32 -32
-85 -66 -139 l-55 -88 15 -42 c19 -48 57 -86 141 -143 71 -47 127 -72 165 -72
29 0 116 64 199 145 59 58 124 92 212 110 65 13 267 43 609 90 1065 147 2328
244 3178 245 l272 0 0 -23 c0 -13 -9 -72 -20 -133 -23 -123 -21 -172 14 -250
20 -44 32 -55 90 -87 37 -21 77 -37 89 -37 79 0 218 122 257 227 45 118 59
241 120 1023 61 774 95 1088 177 1609 l25 165 -33 27 c-55 45 -222 121 -420
193 l-187 68 -91 -43 c-50 -23 -91 -45 -91 -48 0 -12 43 -76 55 -83 21 -12 92
-110 118 -163 14 -27 30 -74 35 -104 16 -86 -4 -540 -72 -1709 -7 -122 -16
-225 -19 -229 -4 -3 -51 -1 -105 6 -112 15 -144 12 -887 -84 -360 -47 -881
-105 -937 -105 -17 0 -18 77 -18 1474 l0 1474 93 6 c50 4 515 34 1032 66 517
33 1073 69 1235 79 308 20 356 20 845 -10 212 -12 254 -7 299 37 33 34 50 93
36 129 -13 34 -99 124 -175 184 -46 37 -97 62 -221 109 l-161 62 -74 -15
c-172 -34 -691 -91 -1729 -190 -608 -57 -1122 -107 -1142 -110 l-38 -5 -1 792
0 793 -70 55 -69 55 52 7 c49 7 454 45 1423 133 452 41 870 107 962 151 64 31
120 91 129 139 6 31 2 40 -22 66 -43 44 -150 93 -317 143 l-147 45 -223 -49
c-122 -27 -573 -113 -1002 -190 -429 -77 -787 -143 -795 -145 -24 -7 -1682
-156 -1687 -152 -2 3 99 169 225 370 198 314 247 385 357 513 134 157 181 231
171 269 -7 29 -96 111 -183 168 -310 203 -381 241 -494 262 -33 6 -38 4 -68
-34z"/>
</g>
</svg>
