<?xml version="1.0" standalone="no"?>
<!DOCTYPE svg PUBLIC "-//W3C//DTD SVG 20010904//EN"
 "http://www.w3.org/TR/2001/REC-SVG-20010904/DTD/svg10.dtd">
<svg version="1.0" xmlns="http://www.w3.org/2000/svg"
 width="1024.000000pt" height="1024.000000pt" viewBox="0 0 1024.000000 1024.000000"
 preserveAspectRatio="xMidYMid meet">
<metadata>
Created by potrace 1.10, written by Peter Selinger 2001-2011
</metadata>
<g transform="translate(0.000000,1024.000000) scale(0.100000,-0.100000)"
fill="#000000" stroke="none">
<path d="M7552 9167 c-160 -60 -185 -87 -202 -219 -4 -38 -13 -75 -20 -83 -6
-8 -113 -69 -237 -135 -196 -106 -272 -140 -594 -265 l-369 -144 -172 -11
c-95 -5 -195 -12 -223 -15 l-50 -5 -2 49 c-1 26 -12 73 -23 105 -20 53 -28 61
-108 115 l-87 58 -423 53 -423 53 -139 -16 c-77 -9 -152 -22 -169 -31 -39 -21
-61 -63 -61 -120 0 -25 -4 -47 -8 -50 -5 -3 -14 -30 -21 -61 -7 -32 -18 -55
-25 -55 -55 0 -1043 124 -1086 136 -30 8 -87 31 -127 50 -144 69 -323 229
-323 288 0 58 -64 146 -105 146 -16 0 -539 -329 -625 -393 -30 -22 -69 -57
-86 -76 -95 -110 -128 -157 -135 -195 -18 -94 -9 -300 27 -586 29 -227 38
-340 44 -555 9 -305 18 -352 88 -461 82 -125 199 -208 334 -236 51 -10 92 -19
93 -21 1 -1 -8 -128 -20 -281 l-21 -280 108 -1200 107 -1201 155 -765 154
-765 125 -360 c68 -198 130 -384 136 -414 17 -78 43 -133 85 -175 77 -76 326
-178 521 -212 86 -15 168 -18 580 -18 458 -1 572 4 880 35 231 23 1683 180
1712 184 25 5 43 21 94 92 55 76 69 105 115 242 29 86 67 215 84 286 74 304
355 1842 540 2955 346 2088 368 2214 411 2359 36 123 42 137 77 165 125 101
210 232 261 402 11 38 48 240 82 449 49 305 62 411 66 538 8 213 -3 252 -96
340 -69 64 -156 113 -246 137 -27 8 -61 22 -75 32 -14 10 -78 36 -142 57 -64
22 -132 51 -150 64 -37 28 -116 57 -151 56 -12 0 -73 -19 -135 -42z m285 -166
c114 -57 265 -121 368 -155 52 -17 195 -135 195 -161 0 -7 -10 -15 -22 -19
-13 -3 -37 -27 -54 -53 -18 -26 -96 -115 -175 -198 -119 -125 -185 -183 -399
-348 -211 -163 -313 -234 -590 -406 -329 -204 -749 -435 -885 -486 -109 -42
-221 -65 -345 -71 l-115 -7 -95 89 c-196 183 -341 261 -565 299 -116 20 -328
15 -454 -11 -221 -46 -368 -164 -478 -386 l-48 -98 -190 0 -189 0 -302 80
c-166 44 -344 96 -396 116 -171 65 -377 184 -500 288 -83 70 -145 146 -321
393 -117 164 -142 205 -171 286 -19 53 -32 104 -30 114 14 51 -53 116 -96 93
-28 -15 -50 -62 -50 -109 0 -47 138 -359 198 -449 71 -105 71 -97 13 -156
l-50 -51 -51 -205 c-50 -198 -51 -209 -46 -310 4 -91 31 -228 60 -305 4 -11
-17 5 -46 36 l-55 56 -17 107 c-18 112 -16 294 5 363 7 21 7 45 0 71 -6 21
-31 210 -56 420 -51 432 -51 441 15 540 52 77 101 122 257 235 136 99 162 114
287 171 l72 33 84 -101 c62 -74 97 -108 133 -126 27 -13 68 -41 91 -62 65 -56
262 -132 481 -184 74 -17 207 -35 408 -53 l298 -28 120 22 c99 19 127 28 157
52 62 50 102 124 117 216 5 32 9 37 34 37 15 0 243 -20 506 -45 456 -43 481
-46 517 -70 50 -33 67 -69 79 -173 12 -100 24 -116 119 -154 94 -37 192 -31
390 26 211 61 1282 504 1357 561 51 39 60 59 83 178 9 47 19 72 38 90 25 23
135 65 174 66 10 1 70 -26 135 -58z m542 -696 c-20 -95 -32 -182 -35 -270 -5
-123 -56 -416 -85 -484 -12 -30 -222 -320 -229 -316 -15 8 -52 -19 -62 -46
-11 -32 -13 -33 -76 -8 -28 12 -36 11 -60 -3 -16 -10 -28 -27 -30 -43 -5 -40
-188 -156 -567 -359 l-330 -177 -465 -178 c-256 -99 -482 -182 -503 -185 l-37
-7 44 44 c33 33 64 86 121 203 65 133 79 174 92 249 16 99 8 155 -28 207 l-20
28 23 9 c13 4 48 14 78 21 30 7 98 34 152 61 108 54 108 54 108 -34 -1 -170
-80 -328 -220 -441 -39 -31 -70 -60 -70 -64 1 -21 22 -30 83 -35 l69 -6 49 46
c113 106 198 253 239 413 25 97 22 153 -11 206 l-20 33 212 106 c135 68 215
103 221 97 15 -15 10 -210 -7 -277 -22 -86 -91 -221 -135 -265 -55 -55 -72
-85 -72 -124 0 -39 17 -76 35 -76 7 0 51 32 98 71 l86 70 66 167 c86 217 96
281 67 412 -17 76 -18 96 -8 105 13 12 252 160 294 183 21 11 22 9 34 -114
l12 -125 -51 -138 c-36 -94 -64 -152 -92 -187 -55 -69 -68 -101 -58 -138 16
-56 46 -56 117 2 35 29 58 65 118 184 86 171 107 245 107 378 0 81 -4 105 -28
163 -16 39 -24 72 -19 77 5 5 88 69 184 143 l175 134 6 -71 c13 -138 -16 -322
-71 -451 -39 -93 -110 -199 -156 -233 -54 -40 -60 -78 -18 -111 l27 -21 49 27
c60 33 163 140 200 208 53 100 143 574 123 653 -3 15 -20 41 -36 58 l-30 31
182 172 c100 95 183 171 184 169 2 -2 -10 -66 -26 -143z m-5987 -831 l113
-116 -53 -56 c-72 -77 -108 -143 -128 -230 -20 -89 -12 -146 42 -290 41 -110
32 -103 135 -117 37 -5 48 -3 52 10 4 8 -14 59 -39 112 -52 110 -65 189 -45
270 15 60 67 141 118 181 l39 30 121 -66 c67 -37 125 -70 128 -74 4 -4 -15
-38 -42 -75 -49 -66 -51 -71 -67 -183 -28 -197 -17 -311 43 -432 15 -32 27
-58 26 -58 -13 0 -185 82 -232 111 -37 23 -83 42 -109 46 -36 5 -50 13 -78 47
-32 39 -50 49 -133 71 -13 4 -23 13 -23 20 0 8 -18 56 -40 106 -84 193 -98
433 -40 658 15 58 27 82 56 112 21 22 39 39 41 39 1 0 53 -52 115 -116z m2838
-155 c145 -40 246 -106 368 -242 58 -63 97 -81 227 -101 61 -10 119 -20 130
-22 35 -8 48 -77 43 -224 -4 -117 -7 -133 -34 -187 -16 -33 -62 -93 -105 -138
-93 -97 -103 -114 -89 -151 13 -32 5 -39 -52 -48 -46 -7 -121 -46 -228 -116
-114 -75 -195 -120 -293 -162 -82 -36 -101 -40 -250 -53 l-162 -14 -263 51
c-254 49 -262 51 -256 72 17 50 -2 81 -56 92 -41 9 -53 19 -96 82 -55 79 -81
151 -95 262 -11 84 -10 95 11 158 12 37 37 98 56 136 25 53 31 73 24 92 -9 22
-6 24 42 39 113 33 185 100 227 212 63 168 195 259 396 273 217 15 375 11 455
-11z m-2167 -260 c7 0 4 -4 -6 -7 -16 -7 -13 -14 26 -66 l43 -58 -18 -69 c-44
-174 -47 -353 -9 -512 10 -42 15 -77 12 -77 -3 0 -53 19 -111 42 -101 41 -103
42 -72 50 49 13 53 38 21 142 -15 50 -34 147 -42 216 l-14 125 40 80 c49 99
85 148 104 140 8 -3 20 -5 26 -6z m4831 -141 c-13 -51 -55 -313 -94 -583 -50
-344 -77 -503 -90 -533 -29 -63 -290 -1573 -350 -2024 -27 -202 -52 -373 -56
-379 -4 -7 -11 -49 -15 -93 -16 -167 -31 -253 -64 -375 -68 -251 -136 -570
-215 -1017 -47 -263 -115 -507 -169 -609 -17 -31 -33 -72 -37 -91 -3 -19 -8
-34 -11 -34 -2 0 -153 -23 -335 -50 -182 -28 -332 -49 -333 -48 -18 20 -335
674 -335 691 0 15 19 41 52 72 31 29 40 35 22 15 -61 -70 -59 -65 -25 -118 17
-27 31 -51 31 -55 0 -16 262 -417 294 -449 47 -48 99 -60 129 -30 17 18 19 25
10 45 -6 13 -88 137 -182 276 -102 149 -169 257 -165 264 32 55 357 452 432
528 l94 96 -32 23 c-23 17 -39 21 -64 16 -39 -7 -110 -56 -126 -86 -10 -19
-12 -19 -37 -3 l-27 18 29 5 c20 4 32 13 39 31 8 23 -6 54 -101 235 -61 115
-114 220 -118 234 -4 14 -30 55 -56 92 l-49 68 146 291 c80 160 144 292 142
294 -2 1 -29 5 -60 8 l-57 5 -136 -263 c-74 -145 -135 -272 -135 -283 0 -10 9
-27 20 -37 11 -10 20 -28 20 -41 0 -65 98 -303 156 -381 14 -18 43 -72 66
-120 23 -49 50 -98 61 -110 l19 -21 -245 -267 c-238 -260 -245 -268 -250 -316
-6 -47 1 -66 125 -357 73 -169 142 -323 155 -342 26 -39 22 -44 -39 -53 -36
-6 -39 -4 -81 51 -118 154 -185 275 -227 403 -32 102 -82 194 -131 244 -16 17
-29 34 -29 37 0 4 95 84 210 178 188 154 331 290 322 308 -2 4 -16 14 -30 24
-27 16 -28 16 -107 -41 l-80 -57 -1 62 c-1 61 -2 65 -60 136 -32 40 -93 110
-135 156 -42 46 -91 110 -110 143 -19 34 -53 90 -76 125 l-42 63 115 241 116
240 -11 77 c-14 94 -46 167 -98 225 -22 24 -59 79 -82 124 l-43 80 162 289
c131 233 160 291 148 298 -8 5 -76 69 -152 141 l-138 132 15 51 c8 28 58 119
111 202 53 83 96 153 96 156 0 2 -13 13 -30 25 l-29 21 -40 -37 c-35 -31 -180
-231 -220 -303 -66 -120 -3 -238 186 -351 51 -30 93 -59 93 -63 0 -4 -24 -38
-54 -75 -47 -60 -167 -257 -225 -369 -33 -65 -51 -155 -36 -176 7 -9 17 -17
23 -17 6 0 13 -13 17 -30 4 -16 28 -57 53 -91 90 -117 101 -134 117 -178 28
-82 24 -97 -115 -380 -86 -174 -130 -274 -128 -290 2 -21 10 -28 45 -35 30 -7
45 -17 53 -35 55 -123 190 -304 301 -403 l69 -62 -33 -21 c-39 -23 -537 -504
-537 -518 0 -5 -7 -15 -15 -21 -25 -18 -21 -44 25 -166 76 -203 175 -374 289
-502 l51 -56 -37 -6 c-21 -3 -61 -7 -90 -8 l-51 -3 -147 225 c-81 123 -154
243 -163 265 -9 22 -35 72 -58 112 l-43 72 30 40 c16 23 126 141 244 264 117
122 212 223 210 226 -3 2 -44 -4 -92 -14 l-88 -17 -138 -142 c-122 -124 -250
-276 -264 -314 -3 -7 3 -22 13 -33 11 -12 17 -32 16 -48 -4 -32 37 -149 85
-246 51 -102 132 -223 207 -309 36 -41 66 -80 66 -86 0 -6 -31 -10 -79 -10
-79 0 -80 0 -100 33 -11 17 -39 50 -62 72 -63 60 -116 148 -143 239 -27 89
-64 153 -117 204 -50 50 -64 55 -84 32 -17 -19 -17 -22 3 -67 11 -27 30 -77
43 -113 40 -119 125 -278 196 -367 l33 -42 -52 -5 c-29 -3 -132 -8 -228 -11
l-175 -6 -20 43 c-11 24 -34 59 -51 78 -17 19 -96 136 -174 260 -78 124 -149
231 -158 237 -26 21 -70 16 -77 -8 -16 -49 17 -122 147 -324 72 -110 148 -219
171 -242 l41 -43 -69 0 -70 1 -110 156 c-60 86 -124 182 -140 212 -62 113
-131 195 -209 246 l-28 18 184 184 c101 101 191 186 201 189 9 3 17 9 17 13 0
6 -95 46 -110 46 -4 0 -254 -263 -338 -357 -19 -21 -23 -33 -17 -57 4 -17 13
-31 20 -31 8 0 11 -7 8 -19 -3 -11 0 -36 7 -56 17 -53 274 -442 328 -498 l46
-47 -49 0 -50 1 -161 287 c-141 253 -164 287 -187 290 -14 2 -36 -2 -47 -8
-34 -18 -20 -63 82 -257 49 -95 88 -173 85 -173 -3 0 -53 65 -113 145 -107
144 -135 168 -149 125 -8 -26 18 -128 52 -197 16 -33 52 -80 85 -112 32 -30
57 -56 55 -57 -1 -2 -65 16 -141 40 -130 40 -140 46 -185 92 -44 45 -56 70
-140 284 -92 234 -92 235 -262 925 l-169 690 -80 620 c-44 341 -98 762 -120
935 l-40 315 -22 767 c-12 422 -19 770 -16 774 4 3 67 -31 142 -75 75 -45 140
-81 145 -81 20 0 20 -18 1 -69 -22 -58 -25 -149 -7 -197 7 -17 43 -60 80 -94
93 -87 99 -78 64 92 -15 73 -30 142 -33 153 -3 11 2 29 9 40 14 18 17 18 63 4
l49 -15 -5 -45 c-3 -24 -5 -94 -5 -156 0 -98 3 -115 21 -140 28 -37 50 -40 81
-11 l25 23 -5 143 c-3 78 -2 142 2 142 4 0 45 -15 92 -34 46 -18 138 -54 205
-80 l121 -47 -20 -57 c-12 -32 -21 -85 -21 -120 -1 -60 1 -65 32 -93 36 -32
73 -37 92 -14 10 13 11 30 2 83 -10 58 -5 134 10 146 1 2 31 -9 64 -24 l61
-28 13 -67 c11 -56 20 -75 56 -117 45 -50 74 -105 74 -140 0 -10 -52 -93 -115
-183 -63 -91 -115 -173 -115 -183 0 -23 33 -55 53 -50 13 3 242 276 290 347
29 42 19 121 -21 169 -27 31 -112 181 -112 197 0 3 31 5 70 5 l70 0 -6 -27
c-4 -24 6 -41 68 -113 41 -47 80 -100 87 -118 12 -30 12 -35 -6 -55 -31 -33
-202 -294 -214 -324 -22 -59 54 -100 97 -52 10 12 42 56 69 98 28 43 80 123
118 179 37 56 67 110 67 120 0 38 -72 163 -129 223 l-58 61 66 -6 c116 -12
117 -12 147 -71 15 -30 49 -79 75 -109 27 -30 49 -56 49 -59 0 -3 -65 -102
-145 -221 -80 -119 -145 -223 -145 -233 0 -20 28 -53 47 -53 29 0 10 -54 -54
-150 -53 -80 -79 -174 -69 -244 7 -46 16 -58 162 -208 85 -88 154 -166 154
-175 0 -26 31 -53 62 -53 23 0 28 4 28 24 0 13 3 36 6 52 5 26 -10 46 -141
194 -80 91 -150 175 -155 187 -7 17 3 50 46 149 30 70 71 154 91 186 35 57 36
59 17 73 -10 8 -29 18 -41 21 -20 5 -14 18 96 182 65 98 128 186 140 196 43
39 18 131 -59 219 l-40 45 81 -21 81 -22 43 -92 c24 -51 46 -102 50 -113 4
-14 -31 -75 -135 -231 -120 -179 -140 -215 -135 -238 4 -19 1 -32 -10 -41 -8
-7 -22 -38 -31 -69 -9 -31 -33 -87 -52 -126 -44 -85 -50 -167 -17 -209 157
-199 284 -367 298 -395 l17 -35 -115 -173 c-64 -97 -115 -183 -115 -196 0 -13
-11 -34 -25 -47 -35 -33 -32 -73 9 -134 118 -179 153 -247 162 -318 5 -38 1
-52 -35 -113 -22 -38 -68 -128 -104 -200 -35 -71 -78 -146 -95 -167 -52 -58
-58 -89 -30 -140 23 -43 24 -43 86 -46 34 -2 62 0 62 3 0 3 -8 18 -17 32 -10
15 -16 40 -14 57 3 30 180 358 227 421 35 48 43 91 28 165 -19 93 -51 172 -97
243 -77 118 -107 177 -91 177 24 0 67 49 61 70 -3 14 38 75 139 207 79 103
143 193 144 199 0 7 -12 19 -26 29 -20 13 -32 15 -49 7 -20 -9 -33 5 -176 206
l-155 215 50 131 c27 72 64 156 82 186 29 49 31 57 17 72 -13 15 -6 28 79 145
140 191 155 215 168 262 16 59 0 120 -48 185 l-36 49 35 -6 c19 -3 67 -9 107
-13 l72 -7 36 -59 c20 -32 34 -64 31 -71 -3 -7 -64 -106 -136 -221 -72 -116
-131 -217 -131 -225 0 -8 7 -22 16 -32 15 -17 11 -27 -51 -145 -59 -111 -69
-136 -73 -194 -4 -60 -2 -71 31 -135 21 -41 80 -121 140 -191 57 -67 107 -132
110 -145 5 -18 -3 -34 -31 -69 -96 -116 -204 -302 -218 -377 -5 -25 -2 -39 12
-54 12 -13 17 -33 16 -57 -4 -55 20 -113 72 -176 25 -30 50 -72 55 -93 24 -85
18 -104 -124 -405 -96 -205 -135 -299 -137 -330 l-3 -43 44 3 c25 1 51 8 58
14 10 8 13 7 13 -2 0 -10 15 -11 56 -7 31 3 58 8 61 11 3 3 -13 26 -35 51
l-41 47 19 46 c32 81 117 278 129 298 6 10 29 70 51 133 47 132 49 111 -39
324 -34 82 -61 162 -61 182 0 18 -4 37 -10 40 -25 16 0 65 136 268 80 121 144
220 142 221 -48 34 -69 46 -79 44 -12 -3 -202 261 -239 333 l-19 36 71 194
c64 176 81 211 180 372 120 196 138 231 138 277 0 35 -23 96 -47 122 -9 10
-14 21 -10 24 3 3 38 11 78 17 l72 11 84 -87 c45 -49 83 -95 83 -103 0 -9 -54
-85 -119 -170 -66 -85 -127 -174 -136 -197 -12 -32 -26 -46 -55 -60 -44 -20
-52 -33 -139 -202 -78 -153 -81 -182 -26 -310 38 -88 150 -246 198 -280 l21
-15 -21 -22 c-11 -13 -60 -99 -108 -192 -82 -157 -89 -174 -93 -240 -4 -69 -2
-76 63 -241 38 -93 79 -181 91 -196 13 -14 24 -35 24 -47 0 -46 -81 -230 -136
-308 -95 -135 -108 -172 -80 -217 8 -12 17 -43 21 -68 10 -66 14 -71 76 -67
42 2 53 6 51 18 -2 8 0 12 3 8 4 -4 17 -1 29 7 11 8 34 15 51 15 29 1 35 10
133 186 57 102 116 222 132 268 27 82 28 86 15 160 -21 118 -72 251 -133 345
-9 13 -17 44 -19 69 -1 27 -11 58 -23 74 -11 15 -16 29 -11 33 5 3 28 40 51
83 55 102 156 254 213 322 l47 55 -28 22 c-15 13 -32 23 -39 23 -6 0 -15 10
-19 23 -14 46 -97 158 -163 219 l-69 64 119 197 c65 109 119 203 119 209 0 6
49 62 109 123 100 102 114 122 170 233 34 67 61 129 61 138 0 36 -69 143 -139
213 l-74 75 34 29 c37 31 128 87 143 87 5 0 1 -9 -8 -19 -10 -11 -20 -37 -23
-58 -5 -36 0 -45 106 -177 88 -110 110 -143 105 -160 -12 -37 -129 -209 -192
-283 -34 -40 -62 -81 -62 -93 0 -34 29 -80 50 -80 28 0 40 16 181 227 142 213
146 222 109 309 -28 63 -100 171 -144 213 -26 26 -36 43 -36 66 0 19 -8 39
-21 50 -20 19 -18 19 98 47 65 15 123 28 128 28 6 0 9 -19 7 -44 -3 -31 1 -47
13 -57 31 -27 104 -129 115 -164 12 -35 9 -41 -114 -265 -69 -127 -126 -239
-126 -250 0 -25 38 -60 66 -60 25 0 54 24 54 46 0 8 47 96 105 196 144 247
157 307 94 430 -11 21 -39 60 -63 87 -37 41 -65 96 -54 106 2 2 122 41 268 88
227 73 313 107 600 237 320 145 349 161 650 347 173 108 322 202 330 209 27
26 28 14 4 -78z m-4442 -49 c57 -6 104 -12 105 -13 1 -1 -9 -24 -22 -51 -42
-87 -68 -241 -69 -405 0 -131 3 -151 25 -212 l26 -66 -126 45 c-69 24 -127 46
-129 47 -2 2 -13 48 -24 102 -17 78 -22 136 -22 269 -1 183 5 216 52 268 29
31 38 32 184 16z m443 -39 c89 0 95 -8 55 -70 -42 -65 -59 -150 -60 -293 0
-202 39 -330 133 -425 l62 -63 -40 5 c-22 3 -76 8 -120 11 -112 8 -195 25
-195 40 0 7 -18 48 -40 92 -21 44 -46 108 -55 144 -42 177 -24 431 38 522 l32
49 65 -6 c36 -3 92 -6 125 -6z m1675 -1222 c0 -17 -22 -51 -151 -229 -96 -133
-126 -182 -122 -198 4 -15 1 -21 -11 -21 -24 0 -111 -85 -127 -122 -7 -18 -29
-48 -49 -68 -43 -43 -73 -102 -95 -185 -26 -102 -22 -123 38 -185 143 -149
197 -210 202 -232 5 -19 -24 -76 -129 -258 -75 -129 -136 -244 -136 -257 0
-12 8 -28 19 -35 10 -7 22 -24 26 -38 4 -14 25 -60 47 -103 49 -99 73 -160
103 -262 21 -73 22 -88 12 -131 -17 -70 -212 -400 -250 -422 -29 -17 -31 -30
-12 -87 4 -11 -5 0 -19 24 -14 23 -26 51 -26 60 0 26 78 175 147 282 70 107
93 162 93 223 0 43 -4 53 -119 315 -71 162 -72 164 -56 196 8 18 15 48 15 67
1 59 68 169 168 277 54 58 92 108 92 120 0 31 -53 55 -91 42 -23 -8 -29 -7
-29 3 0 8 -47 79 -105 159 -58 81 -105 153 -105 162 0 8 41 96 90 195 72 143
94 180 110 180 11 0 20 4 20 8 0 21 145 225 207 292 138 148 138 200 -1 325
-42 38 -76 71 -76 75 0 4 30 21 66 38 l67 30 93 -115 c52 -63 94 -119 94 -125z
m170 -3422 c0 -7 -288 -256 -296 -256 -3 0 47 55 111 123 104 109 129 128 178
136 4 0 7 -1 7 -3z m200 -239 c0 -2 -12 -14 -27 -28 l-28 -24 24 28 c23 25 31
32 31 24z m-625 -179 c0 -29 4 -34 34 -43 32 -9 39 -19 88 -125 96 -209 193
-380 309 -546 14 -21 13 -21 -78 -28 l-93 -6 -38 42 c-71 81 -145 204 -251
415 l-105 211 65 56 c36 31 66 56 67 56 1 0 2 -15 2 -32z"/>
<path d="M4750 7066 c-130 -40 -160 -56 -217 -112 -54 -55 -88 -126 -104 -219
-15 -86 2 -154 57 -236 117 -173 257 -249 458 -249 167 0 236 29 343 143 160
171 146 410 -35 583 -57 55 -126 90 -217 109 -103 22 -166 17 -285 -19z m251
-125 c65 -11 164 -74 189 -120 8 -16 23 -40 34 -55 27 -38 32 -150 9 -195 -10
-19 -51 -61 -92 -95 l-74 -61 -106 -3 c-89 -3 -115 0 -163 18 -64 23 -153 98
-190 157 -29 48 -31 151 -4 203 68 129 206 182 397 151z"/>
<path d="M5640 6745 c-19 -20 -23 -35 -22 -76 1 -51 0 -53 -119 -208 -65 -86
-119 -165 -119 -175 0 -10 9 -31 21 -47 29 -41 75 -40 116 4 48 51 225 317
240 360 17 50 5 93 -39 136 -38 37 -48 38 -78 6z"/>
<path d="M4129 6628 c-17 -27 -20 -44 -15 -98 12 -161 99 -331 224 -437 65
-55 150 -103 184 -103 26 0 77 48 71 68 -2 9 -57 58 -121 107 -103 79 -120 97
-146 149 -25 52 -45 135 -61 247 -6 43 -57 99 -91 99 -16 0 -31 -11 -45 -32z"/>
<path d="M6186 6108 c-9 -12 -16 -26 -16 -30 0 -4 29 -60 65 -124 l65 -116
-30 -62 c-17 -33 -39 -72 -49 -86 -10 -14 -58 -91 -106 -172 -74 -126 -86
-152 -80 -178 4 -16 11 -32 16 -36 5 -3 -1 -20 -14 -37 -55 -76 -217 -386
-217 -416 0 -82 87 -190 230 -287 l100 -67 -33 -46 c-18 -25 -94 -134 -169
-241 -75 -107 -148 -205 -162 -217 -39 -34 -34 -70 34 -238 33 -82 60 -155 60
-162 0 -30 -239 -568 -254 -571 -9 -2 -16 0 -16 4 0 4 31 67 69 140 89 171
105 220 105 314 -1 86 -25 160 -80 241 -40 60 -71 127 -80 173 -5 31 8 54 165
290 94 140 171 262 171 270 0 7 -39 32 -86 55 -80 38 -199 135 -224 182 -16
29 16 103 135 315 109 195 115 209 98 222 -46 34 -50 34 -88 -11 -93 -107
-243 -372 -259 -456 -8 -43 16 -120 55 -177 39 -57 89 -99 162 -135 34 -17 64
-33 66 -35 2 -2 -24 -33 -57 -69 -119 -130 -282 -387 -282 -446 0 -15 8 -37
18 -50 11 -13 22 -36 25 -50 4 -15 22 -48 41 -75 19 -27 47 -66 63 -88 21 -29
28 -52 31 -100 3 -54 -3 -80 -53 -221 -31 -88 -76 -194 -101 -236 -51 -88 -55
-119 -18 -148 21 -16 30 -18 52 -10 15 6 29 15 33 21 4 5 10 -7 13 -29 13 -66
53 -142 152 -280 53 -74 106 -158 119 -187 39 -89 117 -128 143 -71 17 37 -36
149 -134 281 -84 113 -115 166 -140 236 l-14 40 140 307 c95 210 140 319 140
343 0 47 -44 196 -76 259 l-25 50 26 30 c14 17 25 41 25 55 0 13 56 114 128
229 106 173 131 207 155 212 30 6 77 55 77 80 0 18 -14 32 -217 211 l-151 134
23 56 c12 32 70 138 128 237 98 165 105 181 91 196 -15 16 -10 28 51 144 37
69 77 138 89 153 12 15 30 47 40 72 10 25 25 56 34 70 22 34 22 134 0 180 -22
43 -153 180 -173 180 -8 0 -21 -10 -29 -22z"/>
<path d="M7565 6083 c-33 -7 -94 -17 -135 -23 -41 -6 -83 -13 -92 -16 -9 -3
-44 -54 -78 -114 -34 -61 -64 -110 -66 -110 -2 0 17 44 42 98 64 136 61 125
28 118 -16 -3 -46 -8 -66 -12 -36 -6 -40 -11 -127 -167 -50 -88 -91 -168 -91
-177 0 -10 -7 -23 -15 -30 -23 -19 -18 -43 13 -73 25 -24 32 -26 56 -17 15 5
44 10 63 10 l36 0 -21 23 -22 23 39 79 c37 74 39 76 38 42 -1 -21 6 -44 14
-52 13 -13 19 -12 51 10 20 14 41 25 45 25 5 0 19 19 31 43 13 23 20 33 17 22
-17 -54 -17 -72 0 -79 9 -3 25 -1 36 5 11 5 28 7 39 4 15 -5 35 24 125 181 58
103 104 190 103 193 -2 4 -30 1 -63 -6z m-151 -130 c-26 -49 -51 -92 -57 -98
-11 -12 71 155 85 173 25 30 16 6 -28 -75z"/>
<path d="M3173 6052 c-21 -16 -22 -26 -24 -142 -2 -138 5 -164 51 -203 55 -46
122 -49 133 -5 5 17 -3 32 -30 60 l-36 37 6 74 c8 87 -3 130 -40 169 -31 33
-31 33 -60 10z"/>
<path d="M7010 5986 l-45 -12 -105 -194 c-58 -107 -120 -209 -138 -227 -33
-33 -37 -40 -24 -60 5 -8 27 -7 84 4 l77 16 76 139 c62 114 165 329 165 344 0
7 -45 2 -90 -10z"/>
<path d="M6776 5932 c-55 -18 -42 -2 -182 -247 -51 -89 -86 -162 -87 -179 0
-30 32 -66 59 -66 22 0 127 168 204 325 37 77 71 150 75 163 8 26 0 27 -69 4z"/>
<path d="M6535 5873 c-27 -4 -41 -23 -156 -222 -129 -223 -156 -280 -122 -263
10 5 54 12 97 16 43 3 82 9 85 12 3 4 -8 5 -25 2 l-32 -4 23 35 c135 215 235
396 235 427 0 5 -60 3 -105 -3z"/>
<path d="M3236 5508 l-24 -23 15 -100 c18 -123 42 -179 84 -200 29 -15 32 -15
45 2 18 24 18 156 0 216 -15 52 -48 102 -76 117 -15 8 -24 5 -44 -12z"/>
<path d="M2844 5502 c-18 -12 -34 -72 -34 -126 0 -63 25 -114 67 -139 29 -16
34 -17 67 -3 42 17 46 40 16 79 -11 14 -20 33 -20 44 0 37 -21 93 -46 123 -27
32 -32 34 -50 22z"/>
<path d="M2980 5484 c-24 -62 -2 -211 38 -256 22 -26 55 -22 86 11 l29 30 -22
36 c-11 20 -21 51 -21 70 0 43 -15 84 -42 113 -28 29 -56 28 -68 -4z"/>
<path d="M6620 5480 c-9 -17 -8 -20 7 -20 10 0 29 3 42 7 l23 6 -23 13 c-32
18 -37 17 -49 -6z"/>
<path d="M2670 5253 c-81 -63 -153 -174 -167 -256 -7 -45 16 -77 56 -77 24 0
36 16 108 143 111 195 106 182 84 201 -24 22 -40 20 -81 -11z"/>
<path d="M3701 5085 c-17 -15 -36 -46 -46 -74 -9 -27 -45 -111 -80 -187 -75
-163 -85 -125 82 -326 66 -79 113 -145 113 -158 0 -30 44 -70 77 -70 42 0 57
30 42 83 -17 65 -32 88 -144 226 l-104 129 58 128 c33 71 71 149 85 174 33 57
32 62 -3 83 -38 22 -44 22 -80 -8z"/>
<path d="M3897 5066 c-50 -48 -64 -72 -102 -172 -48 -124 -18 -235 98 -368 36
-41 78 -93 94 -117 41 -59 113 -188 113 -201 0 -6 -81 -108 -181 -227 -99
-119 -186 -224 -194 -233 -22 -27 -35 -55 -35 -76 0 -29 67 -176 113 -247 46
-73 75 -162 58 -184 -6 -9 -40 -73 -75 -142 -93 -181 -166 -361 -166 -408 0
-28 -6 -43 -22 -55 -22 -16 -20 -16 47 -10 39 3 72 7 73 9 2 2 17 50 34 107
16 57 34 108 39 114 5 6 18 36 28 66 27 79 58 136 106 198 24 31 48 74 55 96
11 36 9 49 -19 135 -18 51 -54 132 -80 179 -27 47 -56 101 -64 121 -14 35 -14
37 6 49 26 14 353 394 373 432 8 15 16 56 18 93 l5 65 -160 218 c-158 215
-159 217 -159 269 0 44 10 72 58 169 l57 116 -30 24 c-16 13 -33 24 -37 24 -3
0 -26 -20 -51 -44z"/>
<path d="M6930 4948 c-25 -6 -47 -12 -49 -14 -8 -8 43 -56 104 -98 32 -22 63
-44 68 -47 5 -4 -16 -42 -46 -85 -30 -44 -69 -108 -87 -144 -40 -79 -161 -372
-157 -377 2 -2 28 0 58 4 l53 8 106 210 c58 116 133 255 167 309 35 54 61 101
58 106 -2 4 -19 13 -37 20 -18 8 -59 37 -90 67 -60 56 -68 59 -148 41z"/>
<path d="M6638 4888 c-42 -11 -44 -17 -24 -56 22 -42 65 -77 143 -116 39 -19
74 -40 78 -46 3 -5 -68 -128 -159 -272 -91 -144 -164 -263 -162 -265 2 -2 33
1 69 8 l65 12 152 249 c83 136 153 261 155 277 7 58 -93 151 -161 151 -11 0
-35 16 -54 35 -36 37 -43 39 -102 23z"/>
<path d="M6140 4809 c38 -100 112 -178 199 -209 67 -23 68 -19 -56 -208 -64
-97 -124 -195 -134 -217 -18 -40 -18 -40 4 -47 12 -3 40 -6 63 -7 l41 -1 152
247 152 247 -23 18 c-13 10 -69 40 -125 68 -80 39 -109 59 -132 91 -17 22 -31
44 -33 48 -2 4 -31 11 -65 14 l-63 7 20 -51z"/>
<path d="M6397 4853 c-15 -4 -17 -11 -12 -36 16 -75 84 -144 174 -176 l51 -18
-56 -79 c-53 -76 -240 -432 -231 -440 4 -5 127 13 132 18 9 10 285 519 285
526 0 16 -55 59 -90 71 -53 18 -102 56 -130 101 -23 36 -28 40 -65 39 -22 -1
-48 -3 -58 -6z"/>
<path d="M3192 4508 c-33 -33 5 -147 78 -231 27 -32 63 -77 81 -101 17 -24 59
-64 94 -89 60 -43 64 -45 79 -28 29 32 18 81 -31 131 -13 14 -72 93 -131 175
-84 117 -112 151 -132 153 -14 2 -31 -3 -38 -10z"/>
<path d="M4384 4190 c-28 -16 -70 -48 -95 -72 -52 -51 -252 -337 -294 -421
l-29 -59 18 -86 c21 -104 63 -209 117 -292 21 -33 39 -65 39 -71 0 -6 -63 -97
-140 -201 -99 -135 -140 -199 -140 -218 0 -15 -7 -33 -16 -40 -9 -8 -14 -25
-12 -44 3 -31 3 -31 71 -34 67 -3 68 -3 61 21 -3 14 -1 28 6 32 6 4 27 41 45
81 36 79 116 205 185 291 67 83 65 179 -6 261 -35 42 -74 133 -94 224 -11 49
-11 59 4 79 9 13 16 33 16 44 0 11 78 115 181 240 99 121 183 226 186 233 6
14 -12 38 -37 52 -12 6 -31 0 -66 -20z"/>
<path d="M6683 3618 c-38 -46 -106 -129 -152 -184 l-82 -102 15 -36 c8 -20 19
-36 25 -36 32 0 194 158 273 266 44 61 98 153 98 169 0 3 -25 5 -55 5 l-54 0
-68 -82z"/>
<path d="M6585 3679 c-22 -5 -50 -11 -62 -14 -15 -3 -53 -57 -126 -177 -131
-217 -139 -232 -135 -271 2 -25 10 -35 35 -47 28 -13 32 -19 27 -45 -3 -21 22
-118 80 -310 75 -247 89 -283 116 -308 17 -15 39 -27 50 -27 46 0 42 26 -52
321 -74 233 -89 291 -84 325 5 39 3 42 -29 60 -33 17 -33 19 -21 48 7 17 66
118 129 224 64 106 121 201 127 212 12 23 9 23 -55 9z"/>
<path d="M6365 3643 l-50 -4 -89 -157 c-50 -86 -117 -202 -150 -257 -71 -119
-76 -153 -29 -194 19 -17 38 -49 53 -91 28 -81 90 -199 140 -266 21 -27 52
-78 69 -112 31 -62 45 -71 86 -56 9 4 21 18 26 31 8 21 -10 59 -121 262 -73
135 -132 255 -136 277 -5 37 2 53 104 230 100 173 172 313 172 335 0 5 -6 8
-12 7 -7 -1 -35 -3 -63 -5z"/>
<path d="M3054 3556 c-20 -14 -20 -17 -7 -102 8 -47 22 -103 33 -124 35 -68
113 -117 145 -90 19 16 19 60 0 87 -9 12 -22 40 -29 61 -15 41 -104 182 -115
182 -4 0 -16 -6 -27 -14z"/>
<path d="M3253 2900 c-40 -24 -73 -87 -73 -138 0 -48 14 -62 62 -62 41 0 50
11 63 70 4 19 20 54 36 76 l29 42 -25 16 c-32 21 -53 20 -92 -4z"/>
<path d="M6292 2142 c-28 -53 -71 -148 -97 -210 -57 -141 -60 -188 -18 -271
17 -31 40 -90 52 -131 39 -129 86 -193 211 -291 67 -53 67 -53 85 -18 18 35
25 24 -76 134 -26 27 -61 95 -113 215 -42 97 -76 181 -76 188 0 8 37 110 81
229 l82 216 -24 18 c-43 33 -54 25 -107 -79z"/>
<path d="M4981 2134 c-61 -13 -70 -19 -156 -102 -331 -319 -326 -314 -319
-336 11 -35 25 -46 58 -46 27 0 61 30 281 250 270 271 266 262 136 234z"/>
<path d="M3692 2102 c-23 -20 -118 -136 -212 -257 -187 -240 -197 -260 -131
-279 34 -10 34 -9 128 90 84 89 313 406 313 433 0 5 -13 19 -28 30 l-28 20
-42 -37z"/>
<path d="M4697 2080 l-78 -18 -212 -208 c-117 -114 -219 -218 -227 -231 -18
-29 -4 -77 25 -81 31 -4 266 200 436 379 80 85 149 160 153 167 9 15 0 15 -97
-8z"/>
<path d="M4082 1818 c-88 -79 -164 -151 -167 -162 -11 -30 26 -60 67 -52 47 9
96 41 116 76 9 17 25 33 34 36 35 11 118 85 153 136 19 29 35 56 35 59 0 6
-65 49 -74 49 -1 0 -75 -64 -164 -142z"/>
<path d="M4291 1524 c-12 -15 -21 -37 -21 -50 0 -49 98 -212 194 -324 55 -64
178 -169 197 -170 9 0 24 11 33 24 15 24 13 28 -114 200 -71 97 -132 186 -136
198 -9 31 -105 148 -120 148 -7 0 -22 -12 -33 -26z"/>
</g>
</svg>
