<?xml version="1.0" standalone="no"?>
<!DOCTYPE svg PUBLIC "-//W3C//DTD SVG 20010904//EN"
 "http://www.w3.org/TR/2001/REC-SVG-20010904/DTD/svg10.dtd">
<svg version="1.0" xmlns="http://www.w3.org/2000/svg"
 width="1024.000000pt" height="1024.000000pt" viewBox="0 0 1024.000000 1024.000000"
 preserveAspectRatio="xMidYMid meet">
<metadata>
Created by potrace 1.10, written by Peter Selinger 2001-2011
</metadata>
<g transform="translate(0.000000,1024.000000) scale(0.100000,-0.100000)"
fill="#000000" stroke="none">
<path d="M4998 9380 c-407 -270 -546 -388 -731 -620 -260 -325 -443 -763 -512
-1230 -67 -455 -145 -820 -226 -1055 -49 -144 -170 -433 -245 -586 -193 -392
-611 -1011 -989 -1464 -128 -153 -442 -469 -609 -610 -302 -258 -678 -512
-1048 -709 -130 -70 -178 -117 -178 -176 0 -30 7 -47 25 -65 39 -40 103 -34
236 21 90 37 164 81 392 233 264 177 304 208 637 494 195 167 398 349 451 403
682 702 1264 1603 1551 2399 125 349 199 681 228 1030 37 444 160 765 434
1130 195 260 462 493 756 661 47 26 115 72 152 101 105 83 133 135 103 192
-15 30 -69 72 -90 70 -5 0 -157 -99 -337 -219z"/>
<path d="M7455 8998 c-223 -153 -403 -354 -513 -574 -23 -45 -163 -362 -312
-705 -150 -343 -296 -671 -327 -729 -113 -218 -288 -454 -468 -635 -91 -92
-247 -225 -263 -225 -6 0 -27 -14 -47 -31 -42 -37 -47 -81 -14 -123 40 -50 63
-51 155 -7 267 128 469 342 726 771 106 175 249 458 323 635 203 492 305 708
465 995 62 110 74 124 262 312 195 194 198 198 198 239 0 36 -6 48 -40 81 -23
21 -51 38 -63 38 -12 0 -49 -19 -82 -42z"/>
<path d="M9811 8413 c-13 -3 -69 -45 -124 -95 -272 -244 -590 -475 -957 -698
-211 -128 -279 -179 -382 -288 -214 -229 -317 -491 -306 -782 4 -94 1 -123
-13 -160 -10 -25 -25 -103 -34 -175 -10 -87 -22 -138 -33 -155 -10 -14 -65
-187 -122 -385 -127 -442 -212 -698 -337 -1010 -215 -542 -467 -994 -739
-1326 -60 -73 -149 -182 -199 -243 -49 -62 -215 -265 -367 -451 l-277 -340
-419 -371 -419 -372 -421 -281 c-232 -154 -426 -289 -432 -300 -30 -56 8 -106
93 -122 l58 -10 296 173 c369 216 554 352 903 663 302 269 384 358 904 980
l502 600 189 295 c269 419 458 797 629 1262 35 95 75 209 89 253 13 44 90 283
170 530 185 576 217 726 217 1037 0 81 4 149 9 152 5 3 14 30 21 58 14 62 64
157 120 232 31 41 191 165 755 585 747 557 765 572 765 643 0 34 -34 75 -77
93 -20 8 -36 14 -37 14 0 -1 -12 -4 -25 -6z"/>
<path d="M5376 7997 c-40 -22 -49 -35 -278 -369 -100 -147 -221 -296 -347
-431 -88 -94 -101 -113 -101 -143 0 -48 37 -84 86 -84 28 0 51 10 93 42 178
134 292 258 530 576 196 261 217 306 170 366 -19 24 -87 66 -106 66 -4 0 -26
-10 -47 -23z"/>
<path d="M8131 7980 c-50 -12 -83 -40 -110 -94 -18 -37 -63 -82 -183 -188
-160 -140 -345 -324 -367 -365 -16 -32 -13 -74 8 -109 16 -26 27 -32 71 -38
l52 -7 66 62 c340 318 589 557 600 576 32 58 9 119 -58 153 -21 11 -41 20 -42
19 -2 -1 -18 -5 -37 -9z"/>
<path d="M5085 5260 c-29 -11 -34 -20 -94 -150 -30 -63 -62 -126 -72 -139 -11
-13 -19 -32 -19 -42 0 -10 -161 -242 -357 -516 -196 -274 -426 -595 -511 -713
-141 -197 -215 -284 -903 -1058 -412 -464 -771 -861 -797 -882 -26 -21 -235
-193 -464 -381 -385 -318 -426 -349 -535 -405 -134 -69 -163 -99 -163 -170 0
-34 5 -47 27 -63 14 -12 37 -24 50 -27 50 -13 298 95 422 184 96 68 663 557
826 712 381 362 616 617 1154 1255 l422 500 306 445 c169 245 424 616 568 825
144 209 272 399 284 422 40 80 23 152 -47 191 -42 23 -64 26 -97 12z"/>
<path d="M3252 4233 c-43 -21 -71 -56 -145 -182 -62 -106 -117 -167 -699 -767
-70 -73 -88 -97 -88 -121 0 -43 36 -73 87 -73 37 0 56 11 166 94 69 51 142
109 163 127 247 219 389 365 548 563 143 178 157 245 71 332 -49 49 -56 51
-103 27z"/>
<path d="M6812 4130 c0 -8 6 -31 13 -50 7 -19 13 -28 13 -20 0 8 -6 31 -13 50
-7 19 -13 28 -13 20z"/>
<path d="M5995 3893 c-11 -3 -25 -10 -32 -15 -7 -5 -60 -98 -119 -206 -186
-343 -451 -702 -835 -1132 -72 -81 -162 -200 -187 -247 -32 -58 -2 -103 69
-103 44 0 49 4 204 145 172 156 226 214 400 430 206 257 364 484 551 794 88
147 99 170 99 212 0 37 -6 53 -25 74 -43 46 -78 59 -125 48z"/>
</g>
</svg>
