<?xml version="1.0" standalone="no"?>
<!DOCTYPE svg PUBLIC "-//W3C//DTD SVG 20010904//EN"
 "http://www.w3.org/TR/2001/REC-SVG-20010904/DTD/svg10.dtd">
<svg version="1.0" xmlns="http://www.w3.org/2000/svg"
 width="1024.000000pt" height="1024.000000pt" viewBox="0 0 1024.000000 1024.000000"
 preserveAspectRatio="xMidYMid meet">
<metadata>
Created by potrace 1.10, written by Peter Selinger 2001-2011
</metadata>
<g transform="translate(0.000000,1024.000000) scale(0.100000,-0.100000)"
fill="#000000" stroke="none">
<path d="M5935 9302 c-22 -14 -190 -276 -631 -988 -331 -533 -605 -980 -609
-994 -4 -14 -13 -32 -20 -40 -6 -8 -42 -72 -78 -141 -37 -70 -94 -166 -127
-215 -33 -48 -60 -92 -60 -97 0 -5 -31 -65 -70 -132 -38 -67 -70 -127 -70
-132 0 -6 -15 -43 -34 -84 -47 -102 -68 -190 -68 -284 1 -162 49 -272 220
-501 220 -296 405 -505 694 -789 203 -198 271 -279 374 -435 127 -193 206
-373 233 -524 16 -86 13 -249 -4 -352 -49 -278 -174 -653 -307 -917 -22 -44
-250 -457 -507 -916 -397 -710 -518 -941 -555 -1053 -14 -46 36 -108 89 -108
52 0 182 152 256 300 23 47 54 101 69 120 15 19 72 134 126 255 85 188 138
285 372 680 355 596 455 800 575 1170 188 577 175 891 -52 1288 -187 327 -284
447 -561 694 -300 267 -552 564 -731 860 -43 71 -55 100 -61 151 -4 36 -4 72
2 81 5 10 15 56 24 104 12 70 24 101 64 169 27 46 132 238 232 428 101 190
193 356 206 370 12 14 33 50 47 80 13 30 257 422 542 870 285 448 532 836 548
863 54 85 39 159 -43 215 -40 27 -47 27 -85 4z"/>
<path d="M7599 8039 c-59 -30 -116 -100 -134 -166 -9 -32 -104 -332 -213 -667
-148 -458 -204 -618 -225 -644 -45 -57 -48 -105 -10 -151 14 -16 34 -22 89
-27 69 -6 71 -6 108 26 52 46 61 67 106 263 125 540 299 1057 377 1120 29 24
63 96 63 137 0 26 -9 42 -44 75 -53 51 -73 57 -117 34z"/>
<path d="M3758 7753 c-21 -3 -109 -101 -390 -431 -327 -384 -706 -841 -765
-924 -40 -55 -26 -95 43 -124 50 -21 85 0 215 133 198 202 355 383 514 593 27
36 155 177 285 313 129 137 243 264 253 283 26 50 20 111 -14 137 -27 19 -91
29 -141 20z"/>
<path d="M6580 4004 c0 -19 24 -84 31 -84 4 0 1 20 -8 45 -13 40 -23 56 -23
39z"/>
<path d="M8298 3083 c-34 -5 -1106 -1134 -1126 -1186 -17 -43 -3 -102 34 -147
29 -34 53 -37 96 -12 38 22 1127 1163 1151 1205 25 45 21 72 -13 101 -26 21
-94 49 -110 44 -3 0 -17 -3 -32 -5z"/>
<path d="M2875 2887 c-52 -37 -61 -48 -65 -82 -4 -27 -139 -286 -402 -772
-218 -402 -401 -747 -406 -766 -13 -48 -4 -83 30 -117 21 -22 39 -30 63 -30
30 0 42 9 101 77 37 43 95 121 129 173 89 137 713 1336 721 1387 3 23 1 56 -5
76 -12 36 -71 97 -94 97 -7 -1 -39 -20 -72 -43z"/>
</g>
</svg>
