<?xml version="1.0" standalone="no"?>
<!DOCTYPE svg PUBLIC "-//W3C//DTD SVG 20010904//EN"
 "http://www.w3.org/TR/2001/REC-SVG-20010904/DTD/svg10.dtd">
<svg version="1.0" xmlns="http://www.w3.org/2000/svg"
 width="1024.000000pt" height="1024.000000pt" viewBox="0 0 1024.000000 1024.000000"
 preserveAspectRatio="xMidYMid meet">
<metadata>
Created by potrace 1.10, written by Peter Selinger 2001-2011
</metadata>
<g transform="translate(0.000000,1024.000000) scale(0.100000,-0.100000)"
fill="#000000" stroke="none">
<path d="M4920 9892 c-54 -25 -60 -35 -60 -102 0 -81 32 -155 84 -195 l37 -28
27 20 c33 25 38 52 16 94 -9 18 -18 63 -20 103 -3 62 -7 72 -31 93 -31 24 -31
25 -53 15z"/>
<path d="M5170 9882 c-18 -14 -26 -37 -36 -98 l-13 -79 31 -28 c23 -22 36 -27
57 -22 47 11 61 39 61 125 0 75 -1 80 -29 99 -36 26 -43 26 -71 3z"/>
<path d="M5390 9892 c-53 -24 -60 -35 -60 -99 0 -59 1 -62 34 -82 71 -44 106
-18 106 80 0 61 -2 67 -30 87 -16 12 -30 22 -32 21 -2 0 -10 -3 -18 -7z"/>
<path d="M4534 9822 c-12 -2 -30 -12 -40 -23 -16 -18 -17 -28 -5 -127 10 -85
17 -112 34 -130 50 -54 116 -67 161 -31 35 28 34 63 -4 91 -39 28 -70 93 -70
145 0 34 -5 45 -27 60 -16 10 -38 17 -49 15z"/>
<path d="M8407 9812 c-9 -10 -23 -45 -30 -79 -14 -57 -13 -63 5 -89 29 -44 46
-88 53 -141 4 -26 31 -195 61 -375 30 -180 54 -329 54 -331 0 -14 41 -12 53 2
39 45 40 59 8 134 -23 55 -42 136 -77 342 l-47 270 13 119 12 118 -28 24 c-35
28 -56 30 -77 6z"/>
<path d="M4005 9787 c-23 -36 -57 -215 -50 -266 9 -61 58 -111 108 -111 20 0
38 4 42 9 3 5 6 86 7 180 l1 171 -26 20 c-33 26 -63 25 -82 -3z"/>
<path d="M953 9612 c-15 -9 27 -255 51 -301 18 -33 19 -34 33 -15 7 10 21 43
29 71 12 43 13 63 4 106 -15 74 -86 158 -117 139z"/>
<path d="M1260 9613 c-8 -2 -64 -82 -123 -176 l-109 -172 6 -58 c7 -71 10 -77
42 -77 19 0 48 23 107 83 90 90 137 162 174 264 l24 68 -43 37 c-43 37 -49 40
-78 31z"/>
<path d="M615 9512 c-28 -89 -16 -168 37 -228 35 -39 88 -72 88 -53 0 6 -20
74 -45 151 -25 77 -45 148 -45 158 0 40 -18 26 -35 -28z"/>
<path d="M2380 9487 l-55 -43 -3 -64 c-2 -36 0 -75 3 -88 7 -29 61 -62 102
-62 39 0 58 25 68 89 4 24 16 64 27 89 l21 46 -44 38 c-24 21 -48 38 -54 38
-5 -1 -35 -20 -65 -43z"/>
<path d="M1966 9464 l-56 -45 0 -71 c0 -68 -1 -70 -22 -63 -37 12 -68 8 -89
-11 -30 -27 -23 -60 23 -110 60 -65 71 -69 106 -39 27 23 29 28 21 62 -4 21
-6 39 -4 42 3 2 24 -4 48 -13 62 -23 73 -21 95 25 19 39 20 44 6 71 -14 27
-14 34 0 69 9 22 16 43 16 48 0 5 -20 25 -44 45 l-44 36 -56 -46z"/>
<path d="M1471 9201 c-14 -20 -22 -52 -27 -108 -6 -75 -5 -81 17 -101 16 -15
36 -22 65 -22 66 0 98 45 70 99 -11 20 -14 44 -10 73 5 40 3 44 -28 66 -45 29
-62 28 -87 -7z"/>
<path d="M3690 9223 c-37 -14 -50 -36 -50 -88 0 -85 56 -134 142 -122 43 6 62
19 72 53 5 16 -4 27 -39 54 -25 19 -45 42 -45 51 0 14 -49 61 -62 58 -1 0 -10
-3 -18 -6z"/>
<path d="M513 9139 c-27 -10 -31 -26 -35 -115 -3 -84 14 -117 69 -141 53 -22
98 -10 112 29 10 28 8 35 -24 78 -23 32 -35 59 -35 81 0 27 -7 38 -33 55 -23
15 -39 19 -54 13z"/>
<path d="M5294 9129 c-33 -16 -43 -27 -48 -54 -16 -83 24 -178 87 -208 56 -27
86 -22 101 16 39 93 27 157 -41 223 -24 24 -48 44 -51 44 -4 0 -26 -9 -48 -21z"/>
<path d="M1190 9090 c-38 -38 -40 -43 -40 -99 0 -53 3 -63 30 -89 38 -39 78
-47 124 -28 48 20 56 54 24 104 -18 27 -24 47 -20 73 3 31 0 39 -26 58 -17 11
-35 21 -41 21 -6 0 -29 -18 -51 -40z"/>
<path d="M8707 9109 c-49 -28 -68 -156 -32 -216 23 -40 69 -63 124 -63 36 0
44 4 61 33 26 41 25 55 -4 98 -15 21 -22 44 -20 59 5 30 0 38 -47 73 -39 29
-54 32 -82 16z"/>
<path d="M9037 9093 c-53 -56 -56 -173 -5 -220 56 -51 101 -56 122 -15 46 90
41 163 -16 228 -37 41 -65 43 -101 7z"/>
<path d="M5055 9049 c-34 -30 -35 -33 -35 -103 0 -39 6 -82 13 -96 33 -65 142
-93 185 -47 35 38 38 78 8 114 -14 17 -26 40 -26 50 0 39 -21 79 -49 96 -40
24 -55 22 -96 -14z"/>
<path d="M9295 9071 c-44 -18 -75 -82 -75 -153 0 -49 40 -93 94 -103 30 -6 40
-4 51 11 14 19 45 141 45 173 -1 13 -78 82 -91 80 -2 0 -13 -4 -24 -8z"/>
<path d="M8119 9041 c-31 -17 -34 -23 -37 -71 -2 -35 2 -60 13 -76 22 -35 90
-67 125 -59 44 10 53 27 45 86 -7 53 -13 60 -90 121 -21 16 -24 16 -56 -1z"/>
<path d="M183 9024 c-38 -19 -41 -38 -22 -171 7 -56 17 -85 32 -101 31 -34 70
-52 111 -52 29 0 38 5 51 30 19 38 14 59 -25 93 -25 22 -30 36 -36 95 -7 77
-9 81 -44 105 -29 20 -27 20 -67 1z"/>
<path d="M7935 8952 c-53 -11 -63 -55 -28 -125 32 -63 145 -91 177 -45 23 33
21 41 -31 93 -62 62 -94 82 -118 77z"/>
<path d="M7634 8863 c-12 -2 -30 -13 -40 -24 -15 -17 -16 -23 -4 -59 8 -23 30
-56 52 -75 32 -30 45 -35 87 -35 52 0 85 19 95 56 5 17 -8 31 -76 80 -92 66
-85 63 -114 57z"/>
<path d="M7330 8782 c-33 -27 -22 -78 27 -117 85 -69 118 -72 174 -16 22 21
39 46 39 54 0 25 -49 57 -89 57 -20 0 -47 9 -61 20 -31 25 -61 25 -90 2z"/>
<path d="M5775 8764 c-62 -33 -73 -84 -29 -141 38 -49 81 -73 135 -73 52 0 85
26 94 75 5 28 0 34 -76 90 -45 33 -85 61 -88 62 -3 1 -19 -5 -36 -13z"/>
<path d="M7083 8700 c-36 -22 -41 -42 -19 -94 22 -52 60 -76 122 -76 46 0 56
4 70 25 9 14 14 31 11 39 -5 12 -138 126 -148 126 -2 0 -19 -9 -36 -20z"/>
<path d="M5405 8636 c-10 -34 -14 -68 -9 -90 9 -48 60 -93 117 -101 70 -11 90
-4 112 37 l20 38 -85 85 c-65 65 -91 85 -112 85 -25 0 -29 -6 -43 -54z"/>
<path d="M6758 8643 c-36 -22 -38 -31 -23 -77 27 -78 83 -106 171 -87 55 13
67 22 78 59 11 35 -41 82 -91 82 -21 0 -51 9 -68 20 -36 24 -33 24 -67 3z"/>
<path d="M5139 8603 c-37 -9 -51 -96 -25 -156 26 -62 88 -97 172 -97 34 0 47
5 63 27 48 60 31 114 -45 142 -21 8 -41 18 -44 21 -9 12 -93 70 -99 69 -3 -1
-13 -3 -22 -6z"/>
<path d="M2861 8485 c-28 -32 -31 -42 -31 -103 0 -84 23 -125 83 -152 70 -32
90 -25 133 46 10 17 12 17 34 1 51 -35 120 -7 136 57 9 36 -36 127 -78 160
-50 37 -82 34 -113 -11 -16 -25 -25 -32 -25 -20 0 20 -55 57 -86 57 -13 0 -35
-15 -53 -35z m156 -112 c-3 -10 -5 -4 -5 12 0 17 2 24 5 18 2 -7 2 -21 0 -30z"/>
<path d="M4814 8470 c-33 -13 -57 -75 -50 -128 12 -90 64 -132 163 -132 54 0
64 3 82 26 11 14 23 34 26 44 9 28 -20 76 -56 92 -18 8 -39 28 -50 51 -26 50
-67 67 -115 47z"/>
<path d="M907 8381 c-42 -40 -42 -40 -42 -113 0 -106 1 -108 84 -108 80 0 87
6 97 85 5 31 1 59 -10 90 -16 41 -56 85 -78 85 -5 0 -28 -18 -51 -39z"/>
<path d="M558 8261 c-31 -28 -32 -31 -30 -97 3 -90 26 -157 63 -189 17 -14 35
-25 40 -25 18 0 64 27 84 50 19 21 19 22 -2 80 -13 36 -17 63 -12 71 19 30 10
80 -20 110 -39 38 -80 39 -123 0z"/>
<path d="M3763 8170 c-16 -6 -27 -26 -39 -65 -21 -75 -6 -120 51 -152 63 -36
89 -31 114 20 12 24 21 56 21 71 0 73 -89 149 -147 126z"/>
<path d="M3438 8139 c-32 -23 -36 -56 -16 -122 17 -55 67 -103 128 -121 62
-19 76 -14 101 35 16 32 17 43 8 62 -17 31 -100 139 -119 154 -23 19 -72 15
-102 -8z"/>
<path d="M3199 8121 c-42 -22 -59 -53 -59 -106 1 -99 33 -156 101 -176 48 -15
88 4 111 53 17 35 17 39 -2 93 -22 65 -50 106 -89 134 -27 20 -29 20 -62 2z"/>
<path d="M2913 8098 c-25 -18 -33 -33 -38 -69 -9 -62 8 -119 45 -154 26 -25
40 -30 98 -33 73 -4 85 3 109 59 10 24 7 31 -28 75 -22 26 -46 62 -53 78 -26
62 -82 81 -133 44z"/>
<path d="M9471 8032 c-18 -35 -18 -39 -3 -59 39 -48 119 -59 146 -21 28 39 20
61 -33 91 -67 37 -86 35 -110 -11z"/>
<path d="M2596 8011 c-62 -41 -83 -120 -53 -194 17 -40 90 -107 118 -107 29 0
60 17 85 47 l22 25 -25 62 c-13 33 -22 72 -19 86 3 19 -5 33 -37 62 -46 44
-52 45 -91 19z"/>
<path d="M9244 7982 c-21 -10 -35 -26 -42 -49 -10 -33 -9 -35 30 -61 74 -48
209 -28 224 34 18 70 -121 120 -212 76z"/>
<path d="M8832 7840 c-12 -5 -30 -26 -39 -47 -10 -21 -18 -39 -19 -41 -1 -2
-30 8 -65 22 -76 31 -79 31 -113 5 -52 -41 -21 -107 68 -144 55 -23 119 -13
135 21 6 14 11 36 11 49 l0 24 43 -19 c28 -13 65 -20 108 -20 64 0 67 1 79 29
15 37 8 60 -30 96 -26 25 -40 30 -93 32 -34 2 -72 -2 -85 -7z"/>
<path d="M8296 7669 c-71 -56 23 -159 144 -159 81 0 98 7 110 46 22 66 14 77
-70 89 -41 6 -89 19 -107 28 -41 22 -45 21 -77 -4z"/>
<path d="M7945 7626 c-23 -23 -25 -33 -25 -110 0 -82 1 -85 31 -110 17 -14 39
-26 49 -26 35 0 69 19 75 42 8 32 -31 178 -52 195 -44 34 -52 35 -78 9z"/>
<path d="M7455 7223 c-48 -25 -65 -44 -65 -72 0 -36 23 -66 73 -95 80 -46 133
-42 190 12 35 34 34 59 -5 106 -52 63 -129 83 -193 49z"/>
<path d="M6868 7109 c-36 -26 -37 -74 -4 -144 38 -81 88 -115 166 -115 30 0
43 6 59 26 39 50 38 64 -13 111 -25 24 -46 47 -46 51 0 14 -99 92 -117 92 -10
0 -30 -10 -45 -21z"/>
<path d="M7127 7109 c-42 -22 -42 -29 -6 -101 32 -62 110 -108 186 -108 29 0
36 5 49 35 19 46 18 105 -2 134 -40 57 -157 77 -227 40z"/>
<path d="M9380 7103 c-26 -11 -40 -31 -46 -65 -3 -18 -7 -43 -10 -56 -5 -22
-3 -23 73 -20 l78 3 3 49 c3 44 0 52 -25 72 -28 23 -46 27 -73 17z"/>
<path d="M9600 7088 c-22 -24 -21 -58 3 -87 20 -24 74 -41 131 -41 45 0 58 4
70 22 9 12 16 28 16 34 0 17 -143 94 -174 94 -14 0 -35 -10 -46 -22z"/>
<path d="M2393 7039 c-12 -4 -29 -21 -37 -36 -12 -25 -12 -41 3 -136 20 -122
35 -151 101 -184 78 -40 140 -25 168 39 15 36 10 46 -43 87 -29 21 -45 41 -45
55 0 44 -23 99 -56 136 -38 42 -59 51 -91 39z"/>
<path d="M6624 7043 c-46 -9 -58 -98 -23 -171 25 -50 78 -81 141 -82 29 0 41
6 57 29 12 16 21 37 21 46 0 28 -111 163 -143 175 -17 5 -30 9 -31 9 -1 -1
-11 -4 -22 -6z"/>
<path d="M9159 7011 c-22 -17 -22 -21 -10 -59 20 -60 24 -63 87 -78 63 -14 76
-10 88 32 5 16 -6 30 -59 72 -35 29 -68 52 -74 52 -5 0 -19 -8 -32 -19z"/>
<path d="M6261 6991 l-34 -28 11 -59 c23 -112 91 -173 195 -174 43 0 49 3 67
33 11 17 19 37 18 44 -5 23 -190 213 -206 213 -9 0 -32 -13 -51 -29z"/>
<path d="M1495 6999 c-33 -4 -132 -28 -220 -52 -138 -39 -162 -43 -176 -31
-20 18 -33 18 -48 0 -10 -12 -50 -543 -51 -668 0 -49 -7 -49 -151 1 -226 78
-413 170 -607 297 -110 72 -113 74 -141 59 -68 -34 -51 -80 53 -147 44 -28
139 -90 210 -137 71 -47 134 -89 140 -92 6 -4 115 -39 241 -79 127 -40 232
-77 233 -81 2 -5 7 -7 12 -4 5 3 6 -55 4 -127 -2 -73 -9 -401 -14 -728 -9
-540 -48 -1830 -56 -1839 -7 -8 -487 346 -495 366 -4 12 -33 41 -64 64 -32 24
-61 53 -65 65 -5 13 -42 39 -100 68 l-91 47 -33 -20 c-39 -24 -65 -97 -43
-117 108 -97 612 -501 732 -586 l160 -114 6 -889 c5 -793 8 -898 23 -961 l17
-72 52 -6 c48 -7 53 -5 74 20 45 57 46 72 34 735 -6 343 -13 671 -16 728 l-4
104 76 -7 c42 -3 78 -7 79 -9 2 -1 -1 -21 -6 -42 -15 -69 -31 -528 -37 -1095
l-5 -545 -28 -30 c-49 -54 -46 -95 6 -95 22 0 24 -4 24 -53 0 -44 4 -58 25
-77 l24 -23 -24 -19 c-14 -11 -25 -30 -25 -43 0 -14 -10 -45 -22 -70 -21 -43
-24 -45 -65 -45 -57 0 -69 -21 -78 -131 l-7 -86 29 -11 c42 -14 83 8 159 83
66 65 97 129 110 226 6 47 5 53 -17 70 -17 13 -20 21 -12 26 6 5 17 55 23 113
6 58 22 140 35 183 20 66 21 79 9 84 -11 4 -14 40 -14 202 0 241 28 1402 33
1407 2 3 34 7 71 11 l67 6 -6 -284 c-8 -303 4 -647 32 -919 8 -85 15 -203 14
-261 -1 -90 -5 -115 -26 -163 -34 -77 -34 -154 -1 -185 13 -12 39 -24 58 -27
33 -6 36 -4 47 26 6 18 11 41 11 51 0 10 10 25 23 34 46 29 84 215 66 320 -11
66 -26 632 -31 1182 l-3 352 30 -18 c60 -36 453 -123 751 -165 210 -30 330
-40 919 -72 259 -14 472 -28 474 -30 3 -2 -8 -352 -23 -777 -22 -653 -30 -801
-51 -962 -29 -225 -29 -209 -10 -201 8 3 50 -10 92 -29 42 -20 83 -33 92 -30
13 4 17 22 19 87 1 46 18 446 37 891 19 444 35 814 35 822 0 14 4 14 28 2 15
-8 93 -29 175 -48 l147 -33 0 -61 c0 -33 -5 -229 -11 -435 -7 -265 -14 -387
-24 -415 -10 -30 -14 -128 -17 -393 -3 -306 -1 -354 12 -361 27 -14 142 -33
151 -24 12 13 27 284 55 1018 14 374 27 681 29 684 2 2 16 -12 31 -30 61 -76
144 -147 229 -197 130 -77 404 -211 523 -257 90 -35 102 -42 96 -60 -14 -46
-16 -138 -4 -181 15 -51 37 -76 92 -105 47 -24 85 -24 122 0 28 19 86 95 86
113 0 4 -22 8 -49 8 -93 0 -107 7 -119 58 -5 25 -8 51 -5 57 3 9 36 0 109 -26
297 -110 966 -231 1559 -284 99 -9 319 -19 489 -22 l308 -6 -8 -376 c-4 -207
-8 -391 -7 -410 3 -70 36 -112 103 -131 59 -17 55 -34 91 476 l24 331 70 -33
c72 -33 155 -57 238 -69 l47 -6 0 -72 c0 -40 -5 -238 -10 -440 -8 -326 -7
-373 7 -408 18 -45 58 -78 107 -86 31 -5 34 -3 44 28 6 19 18 88 27 154 15
104 16 173 10 524 l-8 404 24 -5 c13 -3 76 -17 139 -31 273 -61 579 -58 845
10 69 17 83 27 101 68 14 34 5 58 -28 76 -14 7 -199 15 -550 24 -291 7 -531
15 -533 17 -8 8 -33 332 -40 508 -3 91 -8 193 -12 228 l-5 63 37 -25 c42 -29
52 -30 88 -17 30 12 40 38 32 84 -6 29 -14 38 -56 57 -41 20 -53 22 -75 11
l-26 -12 4 313 c5 305 85 1866 97 1880 3 3 146 -2 316 -13 l310 -19 310 41
c306 41 310 42 338 70 36 39 37 92 2 115 -24 16 -44 15 -315 -11 -261 -25
-292 -26 -313 -12 -20 13 -28 13 -62 1 -36 -13 -68 -12 -303 13 -145 15 -266
30 -270 33 -4 3 -6 44 -4 93 4 77 6 87 23 87 13 0 21 11 28 38 13 47 111 961
111 1028 -1 27 -7 67 -15 89 -11 30 -12 48 -4 75 21 68 11 88 -66 134 -164 98
-316 145 -495 153 l-126 6 -33 -39 c-18 -22 -80 -87 -137 -145 -136 -139 -162
-202 -112 -271 18 -26 25 -67 49 -307 16 -152 29 -307 29 -346 1 -38 5 -92 9
-120 5 -28 4 -125 -2 -222 l-11 -173 -33 0 c-18 0 -198 14 -400 30 -202 17
-399 30 -439 30 -43 0 -267 32 -555 80 l-484 80 -580 170 c-319 94 -599 176
-623 182 l-43 11 6 51 c3 28 9 64 12 80 3 19 2 26 -6 22 -8 -5 -9 12 -5 56 3
35 8 70 10 78 4 10 2 12 -5 5 -5 -5 -14 -26 -20 -45 -11 -37 -6 313 9 625 8
184 20 219 89 270 59 44 57 77 -8 138 -124 116 -264 175 -436 184 l-100 5
-145 -117 c-113 -91 -150 -127 -169 -164 -13 -25 -37 -60 -53 -78 -27 -28 -29
-35 -23 -75 4 -23 11 -48 16 -54 5 -6 2 -46 -6 -95 -23 -127 -36 -380 -27
-506 l7 -113 -110 0 c-60 0 -321 7 -580 15 l-470 15 -200 40 c-265 54 -465
107 -722 192 l-213 70 0 122 c0 143 22 329 44 371 9 17 16 35 16 41 0 15 -143
220 -217 311 -64 79 -61 78 -178 62z m-111 -242 l-29 -32 -47 25 -48 25 43 6
c23 3 57 7 75 7 l34 2 -28 -33z m3297 -1 c46 -14 98 -30 114 -36 l30 -12 -39
-34 c-43 -37 -144 -74 -204 -74 -39 0 -152 29 -152 39 0 30 118 139 151 140 9
1 54 -10 100 -23z m-3045 -103 c-1 -2 -36 -14 -76 -28 -73 -25 -75 -25 -93 -6
-18 18 -18 19 33 50 28 17 53 38 57 47 4 12 14 8 44 -22 21 -21 37 -39 35 -41z
m-246 -207 c64 -30 147 -34 223 -11 l47 14 0 -37 c0 -48 -19 -352 -26 -420
l-5 -52 -132 6 c-73 4 -133 7 -134 8 -1 1 7 78 17 171 l19 170 -27 22 c-40 33
-73 26 -95 -20 -38 -77 -58 -275 -33 -329 7 -16 2 -18 -34 -18 l-43 0 6 68 c4
37 7 191 7 342 l1 275 77 -82 c54 -57 93 -89 132 -107z m3343 7 l67 -6 0 -419
c0 -390 -1 -419 -17 -424 -10 -3 -33 -12 -52 -20 -33 -15 -33 -14 -28 8 21 85
29 264 23 503 -7 252 -7 261 -29 278 -33 26 -66 32 -83 15 -18 -17 -38 -191
-26 -216 5 -10 2 -152 -7 -321 -13 -251 -14 -307 -3 -322 12 -17 10 -19 -20
-18 -41 1 -67 9 -95 29 l-21 15 43 295 c24 162 43 295 42 296 -1 0 -16 10 -34
22 -37 26 -77 17 -88 -19 -4 -13 -26 -136 -49 -275 -41 -250 -41 -251 -63
-243 -20 7 -23 15 -23 64 0 31 6 71 14 89 10 24 14 77 14 187 -1 104 5 186 16
253 18 100 16 148 -9 197 -13 25 -13 26 11 21 20 -4 23 -1 17 13 -6 17 4 18
163 11 93 -3 199 -9 237 -13z m4015 -164 c39 -7 72 -15 72 -18 -1 -11 -272
-151 -292 -151 -21 0 -220 49 -227 56 -3 3 21 31 54 64 l58 59 29 -40 c16 -22
44 -47 63 -56 33 -16 37 -16 70 0 41 20 69 59 62 88 -5 17 -2 20 16 15 12 -3
55 -10 95 -17z m97 -406 c-3 -87 -12 -207 -20 -268 -8 -60 -17 -136 -20 -168
-5 -44 -11 -60 -27 -68 -21 -11 -21 -11 -13 107 4 66 8 137 9 159 1 100 -65
215 -125 215 -26 0 -32 -6 -49 -45 -10 -24 -22 -60 -26 -80 -3 -20 -9 -34 -11
-31 -3 2 0 29 7 58 l11 53 -41 37 -41 37 -35 -16 c-30 -15 -37 -26 -60 -97
-34 -107 -45 -291 -20 -350 13 -30 16 -74 16 -206 0 -165 0 -169 24 -187 21
-17 23 -25 18 -71 -5 -57 -9 -60 -75 -41 l-38 10 5 82 c3 45 8 271 11 502 4
231 8 421 10 423 2 2 51 -3 109 -12 l105 -16 78 43 c59 32 166 78 201 86 2 1
1 -70 -3 -156z m-6862 -49 c82 -31 227 -69 470 -123 l352 -80 620 -51 c341
-28 629 -53 641 -55 16 -4 19 -11 17 -37 -2 -18 -24 -357 -48 -753 -25 -396
-50 -740 -55 -765 -17 -71 -40 -386 -55 -753 -7 -186 -16 -341 -20 -345 -8 -9
-1257 67 -1380 83 -244 33 -480 82 -672 141 -46 13 -93 22 -106 19 l-23 -6 4
308 c4 389 84 2382 98 2451 4 18 9 22 22 17 9 -4 70 -27 135 -51z m-353 -90
c0 -14 -3 -14 -15 -4 -8 7 -15 14 -15 16 0 2 7 4 15 4 8 0 15 -7 15 -16z
m6927 -146 c-2 -18 -4 -6 -4 27 0 33 2 48 4 33 2 -15 2 -42 0 -60z m-6931
-155 c-23 -420 -66 -1596 -66 -1834 0 -157 -3 -328 -7 -379 l-6 -93 -167 5
c-147 4 -173 8 -218 28 l-52 24 0 70 c0 39 14 539 30 1111 16 572 30 1073 30
1113 l0 72 231 0 232 0 -7 -117z m2645 55 c24 -29 24 -38 0 -38 -16 0 -51 38
-51 55 0 14 34 2 51 -17z m4298 -211 c3 -56 5 -164 5 -239 1 -114 -2 -140 -15
-154 -13 -13 -21 -14 -38 -5 -20 11 -21 18 -21 226 l0 214 33 30 c17 17 32 31
32 31 0 0 2 -46 4 -103z m-3608 51 c19 -6 49 -24 66 -39 18 -16 50 -32 70 -38
21 -5 47 -11 58 -14 11 -3 157 -48 326 -100 452 -142 676 -196 1124 -272 448
-76 1010 -125 1434 -125 l123 0 -8 -842 c-8 -781 -9 -1181 -2 -1598 2 -131 -1
-178 -14 -227 -12 -41 -20 -123 -24 -239 -6 -143 -10 -177 -22 -182 -15 -5
-921 40 -1157 59 -173 14 -439 53 -605 90 -615 136 -1070 339 -1511 676 -53
40 -102 73 -109 73 -8 0 -24 -10 -37 -21 -20 -20 -23 -20 -29 -5 -11 30 3 219
20 266 12 33 42 346 111 1145 52 605 99 1118 104 1140 6 22 16 91 23 153 6 61
15 112 19 112 3 0 21 -5 40 -12z m-255 -35 c-18 -90 -29 -229 -36 -468 -12
-402 -35 -744 -54 -801 -14 -43 -147 -1239 -146 -1318 l0 -29 -61 6 c-33 3
-63 7 -65 10 -3 2 28 401 67 885 l72 881 -24 20 c-30 25 -43 26 -79 4 -27 -15
-28 -20 -34 -122 -17 -259 -60 -650 -92 -831 -8 -47 -19 -182 -24 -300 -14
-350 -22 -488 -30 -499 -5 -9 -21 -8 -60 0 l-53 11 6 302 c9 418 29 669 83
1036 14 96 45 401 68 678 24 276 46 505 50 509 4 4 74 11 157 16 82 4 166 14
187 22 60 22 75 20 68 -12z m3994 -309 l0 -104 -58 0 -58 0 12 118 c7 64 13
118 13 119 1 1 21 -5 46 -14 l45 -15 0 -104z m-226 -400 c47 -15 68 -16 127
-8 l71 10 -8 -46 c-4 -25 -7 -133 -6 -240 1 -144 -2 -209 -13 -250 l-15 -55 6
61 c5 60 5 62 -24 83 -37 26 -57 27 -47 4 15 -41 16 -71 1 -113 -9 -25 -19
-88 -22 -141 -7 -92 -6 -96 14 -101 29 -8 40 9 51 73 6 36 9 -116 9 -446 0
-275 7 -768 16 -1095 9 -327 16 -642 16 -699 l0 -103 -57 6 c-117 14 -143 18
-138 26 3 5 21 6 40 3 57 -9 75 15 75 98 0 63 -2 69 -29 88 -23 17 -35 19 -54
12 l-25 -10 -7 117 c-7 135 7 338 35 500 l20 113 -27 24 c-35 31 -39 31 -69
-2 -28 -30 -26 -24 -54 -188 -12 -66 -22 -124 -23 -128 -7 -26 2 472 13 705 7
155 11 422 8 608 l-4 332 47 -6 c57 -8 55 -12 64 133 5 66 16 129 30 170 19
55 24 96 29 241 l6 175 -33 21 c-38 24 -72 16 -81 -20 -2 -11 -17 -139 -32
-284 -19 -177 -31 -256 -36 -241 -5 12 -11 169 -15 348 l-6 326 45 -42 c29
-26 66 -48 102 -59z m153 -641 c-3 -10 -5 -2 -5 17 0 19 2 27 5 18 2 -10 2
-26 0 -35z m-7389 -993 c90 0 75 -6 -35 -14 -84 -7 -93 -6 -93 9 0 14 6 16 31
11 17 -3 61 -6 97 -6z m2892 -356 c0 -2 -9 -4 -20 -4 -11 0 -20 4 -20 9 0 5 9
7 20 4 11 -3 20 -7 20 -9z m4181 -1021 c2 -23 0 -45 -4 -49 -4 -4 -7 17 -7 46
0 62 7 64 11 3z"/>
<path d="M2163 5348 c-30 -14 -53 -77 -53 -144 0 -50 3 -59 35 -91 32 -32 37
-34 92 -31 53 3 58 5 68 32 9 26 6 31 -29 62 l-38 33 11 48 c10 47 10 49 -21
76 -36 30 -34 30 -65 15z"/>
<path d="M2941 5253 c-17 -14 -24 -36 -32 -93 l-11 -75 31 -27 c23 -21 42 -28
71 -28 34 0 42 4 56 31 14 29 14 35 0 73 -9 23 -16 53 -16 67 0 16 -10 33 -30
47 -35 27 -42 27 -69 5z"/>
<path d="M2240 4745 l-23 -25 28 -197 c30 -216 45 -261 98 -294 38 -24 94 -19
115 8 19 26 7 74 -26 103 -28 24 -30 33 -51 205 -21 171 -23 181 -49 202 -35
29 -63 29 -92 -2z"/>
<path d="M2711 4629 c-26 -16 -31 -25 -31 -57 0 -51 19 -155 31 -166 5 -6 9
-18 9 -27 0 -21 46 -59 71 -59 32 0 69 23 75 46 5 19 -15 109 -47 209 -5 17
-24 40 -43 52 -33 21 -34 21 -65 2z"/>
<path d="M2507 4618 c-44 -34 -59 -134 -32 -222 21 -70 58 -113 106 -126 47
-13 54 -10 69 34 10 30 7 42 -20 102 -17 38 -30 78 -29 89 5 70 -1 90 -36 113
-41 26 -37 25 -58 10z"/>
<path d="M2905 4616 c-15 -11 -21 -31 -25 -86 -3 -39 -2 -74 2 -76 5 -3 8 -14
8 -24 0 -24 55 -70 83 -70 43 0 68 13 82 40 13 26 12 33 -21 107 -25 55 -45
85 -68 101 -38 26 -37 26 -61 8z"/>
<path d="M3120 4612 c-17 -14 -24 -35 -32 -102 l-10 -84 31 -28 c42 -37 94
-38 117 -3 9 14 14 34 11 44 -4 18 -1 17 35 -6 l39 -26 27 20 c22 17 28 29 30
72 3 49 1 55 -36 92 -37 36 -42 38 -71 28 -17 -6 -31 -15 -31 -20 0 -15 -26
-10 -53 11 -31 24 -30 24 -57 2z m107 -134 c-3 -7 -5 -2 -5 12 0 14 2 19 5 13
2 -7 2 -19 0 -25z"/>
<path d="M3570 4606 l-35 -23 -27 20 c-27 20 -29 20 -64 4 l-35 -17 6 -58 c8
-60 18 -74 84 -109 l33 -18 24 31 25 32 39 -21 39 -22 25 24 c46 44 23 131
-43 166 -37 19 -30 19 -71 -9z"/>
<path d="M1963 4490 c-12 -5 -26 -18 -32 -29 -14 -25 -3 -167 16 -203 18 -36
67 -62 102 -53 56 14 64 41 31 105 -12 24 -20 59 -20 92 0 49 -3 55 -35 76
-19 12 -36 22 -37 21 -2 0 -13 -4 -25 -9z"/>
<path d="M1859 4230 c-22 -13 -43 -100 -34 -139 17 -76 133 -111 163 -48 12
24 11 31 -7 56 -12 16 -21 44 -21 63 0 27 -7 37 -35 56 -39 25 -43 25 -66 12z"/>
<path d="M3119 4075 c-35 -19 -41 -38 -26 -82 17 -52 69 -86 122 -80 21 3 45
14 52 23 26 36 15 59 -52 107 -36 26 -66 47 -68 47 -1 -1 -14 -7 -28 -15z"/>
<path d="M2595 4045 c-29 -28 -31 -53 -8 -115 25 -69 58 -100 107 -100 53 0
108 28 124 63 l14 29 22 -21 c72 -68 209 -67 227 2 11 41 -23 76 -84 88 -28 5
-66 22 -92 43 -32 24 -52 32 -68 29 -31 -8 -57 -33 -57 -55 0 -10 8 -31 18
-46 l17 -26 -45 31 c-25 17 -62 47 -83 67 -45 43 -60 44 -92 11z"/>
<path d="M2350 3951 c-9 -3 -26 -13 -38 -22 -33 -24 -20 -72 29 -107 21 -15
41 -35 45 -45 8 -26 63 -57 101 -57 33 0 56 22 99 98 l18 32 -27 27 c-20 21
-37 27 -74 29 -29 2 -66 13 -93 27 -25 14 -52 22 -60 18z"/>
<path d="M3335 3430 c-68 -27 -52 -78 47 -152 68 -50 71 -51 97 -37 58 33 29
134 -51 175 -51 26 -62 27 -93 14z"/>
<path d="M2915 3393 c-26 -7 -44 -32 -45 -62 0 -45 148 -157 190 -143 20 6 49
43 50 62 0 24 -59 90 -109 121 -46 29 -50 31 -86 22z"/>
<path d="M2665 3352 c-40 -8 -55 -37 -55 -106 0 -62 2 -66 33 -90 44 -33 99
-56 137 -56 24 0 33 6 41 27 5 15 8 37 5 49 -8 30 -54 84 -72 84 -9 0 -14 11
-14 28 0 33 -44 70 -75 64z"/>
<path d="M1279 5473 l-24 -68 4 -625 c3 -620 3 -625 24 -648 15 -16 30 -22 52
-20 26 3 33 10 53 58 l23 55 -6 635 -6 635 -27 22 c-49 41 -67 32 -93 -44z"/>
<path d="M1270 3723 c-38 -14 -48 -35 -55 -111 -3 -43 -11 -129 -17 -193 -10
-105 -9 -119 7 -154 27 -55 124 -97 139 -59 3 9 6 119 6 245 l0 230 -27 24
c-30 26 -30 26 -53 18z"/>
<path d="M6345 4809 c-8 -13 -6 -15 23 -24 22 -6 23 -5 13 14 -13 23 -26 27
-36 10z"/>
<path d="M7379 4722 c-22 -3 -31 -15 -62 -85 -21 -50 -38 -111 -44 -155 l-9
-73 34 -19 c18 -11 39 -20 47 -20 20 0 63 56 70 92 3 18 12 60 20 93 28 125
28 129 -2 151 -16 10 -40 18 -54 16z"/>
<path d="M7170 4642 c-25 -8 -51 -35 -87 -90 -31 -50 -34 -59 -31 -124 3 -64
6 -73 30 -91 23 -17 31 -18 56 -8 31 13 42 35 42 86 0 17 7 40 15 51 8 12 24
45 35 74 19 47 19 55 6 75 -16 24 -42 35 -66 27z"/>
<path d="M7662 4575 c-13 -7 -54 -53 -93 -103 -61 -80 -69 -95 -69 -135 0 -50
22 -77 62 -77 38 0 56 25 143 192 42 82 44 103 8 121 -22 11 -33 11 -51 2z"/>
<path d="M6765 4460 c-36 -14 -45 -33 -38 -86 5 -44 11 -53 58 -91 29 -24 57
-43 62 -43 19 0 53 47 53 72 0 38 -24 89 -60 126 -34 34 -42 36 -75 22z"/>
<path d="M6055 4434 c-21 -23 -25 -37 -25 -91 0 -58 3 -68 29 -93 49 -50 122
-51 146 -3 l11 21 27 -24 c55 -47 143 -43 161 8 8 24 5 33 -22 67 -18 22 -32
50 -32 63 0 14 -13 33 -34 51 -30 23 -39 25 -59 16 -31 -14 -58 -61 -60 -104
l-2 -35 -17 23 c-10 12 -18 33 -18 47 0 16 -12 35 -34 53 -19 15 -38 27 -41
27 -3 0 -17 -12 -30 -26z"/>
<path d="M6490 4444 c-14 -9 -35 -31 -47 -49 -32 -48 -22 -125 19 -160 51 -43
139 -31 159 22 8 22 6 30 -17 54 -22 23 -25 33 -20 63 6 30 3 40 -18 61 -29
29 -41 30 -76 9z"/>
<path d="M5835 4422 c-41 -9 -54 -35 -44 -83 6 -24 21 -61 35 -82 43 -65 89
-72 149 -23 l29 24 -37 43 c-85 102 -112 126 -132 121z"/>
<path d="M5547 4362 c-34 -38 -10 -118 55 -182 43 -43 85 -60 151 -60 48 0 55
3 65 25 7 14 12 32 12 40 0 20 -58 65 -85 65 -16 0 -41 20 -80 65 -61 69 -88
80 -118 47z"/>
<path d="M6284 3950 c3 -14 9 -37 12 -52 4 -16 10 -28 15 -28 4 0 1 21 -8 48
-17 51 -30 73 -19 32z"/>
<path d="M5710 3651 c-9 -3 -26 -13 -38 -22 -20 -15 -22 -26 -28 -185 -4 -103
-2 -223 5 -309 11 -127 14 -142 37 -166 25 -26 82 -49 121 -49 40 0 83 82 66
125 -3 9 -23 25 -44 36 l-39 19 0 258 0 257 -33 21 c-18 12 -39 18 -47 15z"/>
<path d="M6214 3633 l-40 -26 -12 -131 c-14 -149 -13 -151 59 -161 46 -7 47
-7 57 27 6 18 14 66 18 106 4 49 11 72 20 72 19 0 54 49 54 76 0 30 -45 64
-84 64 -17 0 -49 -12 -72 -27z"/>
<path d="M5914 3549 c-27 -9 -41 -46 -54 -142 -13 -100 -13 -94 10 -117 21
-21 65 -26 88 -11 11 6 40 169 42 226 0 19 -64 53 -86 44z"/>
<path d="M7324 3430 c-24 -10 -41 -49 -50 -119 -6 -45 -4 -49 25 -70 61 -43
123 -38 150 12 12 22 11 29 -8 55 -11 17 -21 43 -21 59 0 21 -9 36 -30 51 -32
24 -35 25 -66 12z"/>
<path d="M7494 3416 c-16 -12 -19 -27 -19 -84 0 -61 3 -74 24 -96 28 -30 83
-49 126 -44 22 2 32 10 39 31 9 23 6 32 -20 60 -17 17 -50 58 -73 90 -24 31
-47 57 -50 57 -4 0 -16 -6 -27 -14z"/>
<path d="M7691 3401 c-22 -19 -22 -22 -10 -76 9 -42 21 -63 46 -85 52 -46 101
-36 137 28 10 16 -110 152 -133 152 -10 0 -28 -9 -40 -19z"/>
<path d="M7105 3391 c-11 -5 -34 -27 -52 -49 -30 -37 -32 -44 -26 -93 9 -87
68 -133 143 -110 29 9 41 19 49 43 10 28 9 34 -16 60 -23 24 -25 31 -15 53 33
72 -13 124 -83 96z"/>
<path d="M6371 3348 c-24 -4 -55 -17 -68 -29 -21 -21 -23 -31 -23 -121 0 -92
2 -101 25 -123 29 -30 64 -32 96 -6 23 18 23 18 42 -5 24 -31 67 -31 95 -1 18
19 22 35 22 84 0 57 -2 63 -29 82 -36 26 -52 26 -84 1 -37 -29 -40 -24 -6 9
59 60 18 125 -70 109z"/>
<path d="M6035 3262 c-42 -9 -55 -32 -55 -98 0 -48 -7 -76 -30 -125 -16 -35
-37 -96 -46 -136 -17 -78 -15 -86 33 -111 33 -18 50 -15 83 16 29 26 32 35 60
212 17 102 30 190 30 197 0 18 -53 50 -75 45z"/>
<path d="M6630 3182 c-37 -12 -50 -35 -50 -86 0 -67 20 -96 65 -96 49 0 65 21
65 87 0 41 -5 59 -17 70 -31 24 -48 30 -63 25z"/>
<path d="M5452 3123 c-37 -7 -62 -59 -62 -130 0 -69 12 -85 77 -97 28 -5 35
-2 47 22 7 15 17 41 20 59 4 17 14 37 22 44 8 6 14 27 14 45 0 27 -6 36 -30
49 -29 15 -44 16 -88 8z"/>
<path d="M6903 2349 c-30 -11 -36 -40 -28 -125 6 -63 11 -77 32 -94 48 -38
105 -20 119 36 20 78 -66 205 -123 183z"/>
<path d="M7523 2341 c-23 -11 -46 -29 -53 -40 l-11 -21 -51 26 c-64 32 -94 27
-114 -22 -14 -33 -14 -38 3 -56 42 -47 136 -65 164 -32 11 14 28 15 117 9 113
-8 122 -4 122 43 0 36 -35 78 -80 96 -49 20 -46 20 -97 -3z"/>
<path d="M6290 2318 c-46 -17 -59 -36 -49 -71 9 -32 114 -147 134 -147 7 0 22
11 35 25 18 19 22 31 17 61 -13 79 -87 151 -137 132z"/>
<path d="M6510 2321 c-52 -21 -57 -33 -50 -99 5 -35 10 -65 11 -66 2 -2 39 -1
82 2 l78 5 -6 26 c-9 36 -56 111 -80 126 -11 7 -27 10 -35 6z"/>
<path d="M6645 2305 c-30 -29 -31 -56 -5 -112 21 -48 46 -59 114 -49 47 7 65
31 58 74 -4 24 -106 112 -130 112 -7 0 -24 -11 -37 -25z"/>
<path d="M7766 2309 c-64 -50 4 -139 112 -147 55 -4 58 -3 70 22 17 39 15 51
-15 87 -49 58 -121 74 -167 38z"/>
<path d="M7111 2310 c-25 -6 -67 -72 -57 -88 3 -6 25 -19 48 -31 24 -11 55
-31 70 -43 25 -20 29 -20 65 -7 68 26 68 91 0 143 -29 21 -92 35 -126 26z"/>
<path d="M6165 2230 c-38 -15 -44 -31 -34 -82 8 -35 21 -56 50 -82 21 -20 48
-36 60 -36 23 0 58 36 58 60 0 17 -95 150 -107 149 -4 0 -16 -4 -27 -9z"/>
<path d="M6070 2170 c0 -14 7 -20 22 -20 20 0 21 1 3 20 -10 11 -20 20 -22 20
-1 0 -3 -9 -3 -20z"/>
<path d="M4414 5133 c-23 -4 -28 -14 -67 -113 -20 -50 -27 -91 -32 -181 l-6
-115 35 -19 c34 -18 38 -19 63 -3 26 15 29 26 60 204 l33 189 -28 22 c-15 12
-29 22 -32 21 -3 0 -14 -3 -26 -5z"/>
<path d="M8505 3706 c-18 -42 -31 -52 -50 -36 -12 10 -15 10 -15 -1 0 -8 -5
-79 -10 -159 -11 -174 -8 -181 58 -139 25 16 51 29 57 29 12 0 25 135 25 250
-1 47 -4 58 -26 73 l-24 18 -15 -35z"/>
<path d="M8506 3293 c-30 -13 -43 -14 -58 -4 -25 16 -27 10 -31 -139 -3 -69
-8 -139 -12 -156 -6 -28 -4 -32 25 -44 44 -18 58 -8 100 75 33 64 35 74 35
166 0 54 -4 102 -10 108 -6 6 -24 4 -49 -6z"/>
<path d="M8425 2880 c-43 -17 -48 -33 -40 -140 6 -87 11 -105 32 -131 27 -31
58 -37 87 -16 16 12 18 27 15 129 -4 113 -4 115 -34 141 -33 29 -32 29 -60 17z"/>
<path d="M3053 6980 c-37 -22 -48 -53 -40 -110 11 -83 89 -190 138 -190 46 0
109 51 109 88 0 27 -94 199 -119 219 -23 18 -52 16 -88 -7z"/>
<path d="M3395 6980 c-16 -11 -30 -24 -29 -30 1 -5 2 -21 3 -34 0 -13 14 -40
30 -60 16 -20 32 -50 36 -66 10 -47 51 -80 100 -80 76 0 106 62 74 157 -18 56
-37 81 -84 108 -50 30 -90 32 -130 5z"/>
<path d="M6005 6976 c-28 -22 -30 -29 -30 -88 0 -105 51 -163 154 -175 48 -5
50 -5 70 28 27 45 26 65 -5 106 -14 19 -30 51 -36 71 -22 81 -91 107 -153 58z"/>
<path d="M2696 6938 c-21 -29 -20 -111 0 -154 22 -45 78 -74 143 -74 41 0 53
4 70 26 38 49 38 66 -4 99 -21 16 -44 37 -51 45 -61 70 -73 80 -108 80 -25 0
-39 -6 -50 -22z"/>
<path d="M5493 6938 c-25 -18 -32 -32 -37 -70 -16 -119 43 -188 160 -188 49 0
62 4 85 26 27 26 28 26 101 14 73 -11 73 -11 96 15 30 35 28 76 -4 106 -14 13
-35 41 -45 61 -22 43 -45 58 -87 58 -35 0 -47 -13 -57 -60 -14 -67 -18 -67
-86 -1 -35 33 -71 61 -79 61 -8 0 -29 -10 -47 -22z"/>
<path d="M9533 6494 c-38 -19 -39 -25 -18 -85 29 -80 82 -111 131 -74 10 8 38
15 61 15 49 0 60 13 64 77 3 35 -1 45 -23 62 -14 12 -35 21 -47 21 -21 0 -61
-36 -61 -54 0 -5 -15 4 -33 22 -38 37 -33 36 -74 16z"/>
<path d="M9326 6469 c-20 -16 -26 -29 -26 -62 l-1 -42 -15 27 c-27 50 -66 60
-107 28 -22 -18 -25 -25 -17 -45 10 -27 2 -33 -18 -13 -9 9 -13 8 -16 -3 -7
-19 -35 -183 -32 -187 8 -7 106 43 106 54 0 9 8 12 28 8 24 -5 34 0 55 26 15
17 27 40 27 51 0 19 1 19 25 3 50 -32 144 -4 145 44 0 14 -107 132 -120 132
-4 0 -19 -9 -34 -21z"/>
<path d="M9866 6469 c-61 -48 1 -149 92 -149 35 0 41 4 52 31 13 30 12 32 -41
85 -29 30 -58 54 -65 54 -6 0 -23 -9 -38 -21z"/>
<path d="M7860 6191 c-19 -10 -34 -25 -33 -32 11 -96 16 -110 40 -129 33 -26
49 -25 78 5 41 40 27 137 -24 165 -25 13 -20 13 -61 -9z"/>
<path d="M7670 6133 c-40 -15 -51 -36 -44 -82 10 -73 57 -131 104 -131 16 0
70 52 70 67 0 19 -92 153 -105 152 -5 0 -17 -3 -25 -6z"/>
<path d="M7453 6120 c-26 -11 -35 -50 -31 -135 3 -58 4 -60 43 -83 97 -56 191
20 115 93 -19 18 -30 39 -30 56 0 19 -10 34 -34 53 -19 14 -36 26 -38 25 -2 0
-13 -4 -25 -9z"/>
<path d="M7207 6040 c-31 -25 -35 -61 -13 -115 18 -43 48 -59 99 -52 44 6 52
12 61 44 6 17 -4 34 -45 80 -29 32 -58 59 -64 61 -6 1 -23 -7 -38 -18z"/>
<path d="M6477 6033 c-64 -17 -87 -119 -47 -211 22 -51 88 -122 113 -122 22 0
72 36 86 64 14 25 13 28 -16 59 -44 46 -61 86 -55 131 4 33 1 41 -24 62 -16
13 -31 23 -34 22 -3 0 -13 -2 -23 -5z"/>
<path d="M7034 6033 c-12 -2 -30 -13 -39 -23 -16 -18 -16 -22 0 -69 24 -73 49
-101 92 -101 36 0 93 33 93 53 -1 7 -29 42 -63 78 -46 49 -67 65 -83 62z"/>
<path d="M6845 6010 c-12 -4 -27 -15 -34 -24 -12 -14 -16 -13 -42 7 -28 20
-32 20 -57 7 -40 -23 -72 -77 -72 -121 l0 -38 118 2 c64 1 137 0 162 -3 44 -5
45 -4 59 34 15 38 14 39 -12 60 -16 12 -44 35 -65 52 -28 24 -42 30 -57 24z"/>
<path d="M6012 5975 c-29 -36 -38 -115 -18 -154 20 -38 45 -52 99 -54 40 -2
43 0 62 41 l20 43 67 -6 c61 -6 67 -5 78 14 15 30 4 59 -38 104 -41 42 -68 46
-106 16 -21 -16 -26 -29 -26 -62 l0 -42 -20 25 c-11 14 -20 32 -20 41 0 15
-51 59 -69 59 -5 0 -18 -11 -29 -25z"/>
<path d="M5792 5942 c-15 -20 -21 -48 -23 -106 -3 -75 -2 -81 23 -107 50 -50
118 -47 138 7 15 37 12 65 -7 79 -10 8 -17 30 -19 60 -3 39 -9 53 -31 71 -37
31 -58 30 -81 -4z"/>
<path d="M9346 5363 c-33 -9 -46 -30 -46 -73 l0 -42 -36 31 c-37 33 -58 34
-93 4 -15 -12 -16 -23 -9 -71 7 -46 14 -62 40 -84 44 -38 88 -37 121 2 21 25
30 28 59 24 29 -5 39 -1 67 26 l32 32 -26 43 c-14 24 -25 52 -25 62 0 15 -49
56 -62 52 -1 -1 -12 -4 -22 -6z"/>
<path d="M511 5285 l-48 -45 -7 -137 c-7 -136 -7 -136 17 -161 19 -19 31 -23
51 -18 41 10 58 47 68 154 5 57 17 114 29 139 10 24 19 48 19 53 0 14 -51 59
-68 60 -7 0 -35 -20 -61 -45z"/>
<path d="M9757 5279 c-42 -25 -62 -126 -35 -184 14 -30 55 -55 93 -55 l25 0 0
103 c0 103 0 103 -30 125 -34 25 -30 24 -53 11z"/>
<path d="M294 5150 c-28 -11 -32 -29 -40 -187 -5 -104 -10 -130 -20 -126 -23
9 -58 -5 -73 -28 -7 -13 -19 -68 -27 -123 l-13 -101 25 -22 c30 -27 80 -30
113 -7 19 14 22 22 16 53 -14 84 -16 118 -6 144 10 25 15 27 66 27 l55 0 0
164 0 164 -34 26 c-19 14 -36 26 -38 25 -2 0 -13 -4 -24 -9z"/>
<path d="M544 4734 c-40 -42 -45 -89 -16 -143 32 -59 118 -91 142 -53 10 15
10 14 5 -5 -3 -13 -8 -32 -11 -43 -3 -13 3 -28 22 -45 33 -31 44 -31 79 -3 35
27 55 75 55 131 0 39 -4 48 -36 72 -49 37 -81 24 -90 -37 l-7 -42 -13 50 c-7
27 -10 59 -7 72 7 28 -40 82 -70 82 -11 0 -35 -16 -53 -36z"/>
<path d="M411 4697 c-44 -22 -65 -72 -69 -168 l-4 -87 48 -31 c51 -31 63 -30
97 7 16 18 17 25 6 64 -7 26 -9 71 -5 116 5 68 4 75 -17 93 -26 22 -26 22 -56
6z"/>
<path d="M9865 4592 c-44 -9 -55 -31 -55 -108 0 -71 0 -73 34 -93 43 -27 57
-26 84 2 29 31 32 152 5 174 -31 23 -47 30 -68 25z"/>
<path d="M9624 4574 c-96 -47 -99 -234 -4 -234 36 0 43 10 73 110 23 75 24 87
12 106 -18 28 -47 35 -81 18z"/>
<path d="M9253 4505 c-31 -21 -50 -112 -35 -163 21 -70 71 -103 125 -83 30 12
53 56 38 75 -5 6 -14 38 -21 71 -9 46 -19 66 -44 87 -37 32 -36 32 -63 13z"/>
<path d="M9318 3931 c-45 -39 -98 -169 -98 -240 0 -75 24 -119 77 -143 57 -25
93 -21 112 14 14 24 13 29 -13 69 -26 39 -28 48 -23 106 4 35 17 86 32 116 31
66 31 72 3 91 -32 23 -53 20 -90 -13z"/>
<path d="M9535 3942 c-39 -24 -56 -100 -62 -277 l-4 -140 31 -17 c40 -23 63
-23 84 1 13 15 20 58 31 212 8 106 13 194 12 194 -1 1 -16 11 -33 23 -29 20
-32 20 -59 4z"/>
<path d="M9757 3772 c-35 -36 -37 -41 -37 -104 0 -37 4 -78 10 -92 13 -35 52
-58 84 -50 29 7 46 51 46 117 0 21 4 46 9 55 21 42 21 72 1 92 -32 32 -70 26
-113 -18z"/>
<path d="M9423 3352 c-13 -2 -32 -15 -42 -29 -18 -22 -19 -28 -7 -56 18 -45
69 -77 122 -77 45 0 64 17 64 57 0 26 -109 109 -137 105z"/>
<path d="M9693 2559 c-32 -20 -33 -23 -33 -90 l0 -69 40 -26 41 -27 27 20 c25
18 27 26 30 99 3 78 2 79 -27 97 -36 21 -39 21 -78 -4z"/>
<path d="M9368 2433 c-37 -23 -55 -67 -37 -89 41 -50 155 -59 191 -14 24 29
23 72 -2 95 -29 26 -117 31 -152 8z"/>
<path d="M9101 2421 c-13 -13 -21 -40 -26 -83 -9 -86 -5 -107 28 -132 26 -19
30 -19 55 -5 25 13 28 22 36 103 l9 88 -29 23 c-35 30 -48 31 -73 6z"/>
<path d="M4229 1919 c-9 -5 -24 -21 -34 -36 -16 -24 -21 -92 -42 -628 -13
-330 -28 -680 -34 -778 l-11 -179 23 -24 c22 -23 72 -33 83 -16 3 5 26 372 52
815 46 792 47 808 28 822 -36 29 -49 33 -65 24z"/>
<path d="M2144 1763 c-40 -8 -46 -38 -35 -168 11 -129 20 -147 78 -161 59 -15
96 83 73 193 -11 48 -71 145 -88 142 -4 -1 -16 -4 -28 -6z"/>
<path d="M5344 1630 c-30 -12 -61 -59 -75 -114 -11 -43 -10 -49 11 -71 50 -53
111 -53 146 0 15 23 16 32 5 60 -6 18 -9 46 -5 60 5 22 1 31 -22 51 -33 26
-31 26 -60 14z"/>
<path d="M1884 1573 c-12 -2 -26 -14 -32 -26 -52 -111 -72 -173 -72 -229 0
-29 6 -41 29 -57 16 -12 35 -21 43 -21 24 0 58 44 58 75 0 16 6 36 14 44 8 9
21 52 30 96 l17 80 -26 23 c-14 12 -29 21 -33 21 -4 -1 -16 -4 -28 -6z"/>
<path d="M625 1356 c-16 -8 -43 -28 -60 -45 -28 -30 -29 -35 -26 -113 3 -88
15 -114 69 -150 39 -26 77 -22 114 11 l33 29 -42 61 -42 61 22 61 22 60 -24
20 c-27 22 -27 22 -66 5z"/>
<path d="M5220 1293 c-8 -3 -25 -15 -37 -26 -31 -28 -32 -116 -3 -157 42 -59
136 -65 165 -10 19 37 20 34 -14 72 -16 19 -31 46 -33 61 -3 31 -53 68 -78 60z"/>
<path d="M8395 1293 c-24 -6 -40 -26 -65 -78 -31 -63 -26 -99 14 -124 18 -12
40 -21 48 -21 21 0 58 43 58 67 0 12 5 45 12 74 11 49 11 52 -11 70 -13 11
-26 18 -30 18 -3 -1 -15 -4 -26 -6z"/>
<path d="M2230 1253 c-42 -16 -50 -34 -50 -117 0 -45 6 -92 13 -105 16 -32 55
-59 94 -67 48 -9 54 12 41 137 -10 98 -12 106 -42 131 -33 29 -33 29 -56 21z"/>
<path d="M806 1179 c-31 -37 -40 -69 -32 -112 4 -17 11 -57 15 -87 16 -105 68
-163 141 -158 57 5 61 36 21 167 -24 78 -32 120 -27 143 5 30 2 37 -24 56 -40
30 -63 28 -94 -9z"/>
<path d="M1874 1141 c-26 -16 -32 -29 -53 -124 -23 -103 -24 -108 -6 -127 12
-13 31 -20 55 -20 32 0 39 4 49 28 12 29 54 213 49 217 -2 1 -17 11 -34 23
-30 20 -31 20 -60 3z"/>
<path d="M9440 1123 c-29 -11 -57 -38 -52 -51 3 -11 1 -11 -17 0 -18 11 -26
10 -56 -6 -35 -19 -35 -20 -35 -87 0 -64 1 -68 35 -98 43 -38 70 -39 115 -6
20 15 41 23 52 19 23 -7 78 46 78 76 0 32 -24 83 -60 123 -33 38 -35 39 -60
30z"/>
<path d="M8423 1018 c-12 -6 -26 -22 -32 -37 -28 -70 -91 -436 -91 -531 0 -25
-7 -58 -15 -74 -8 -15 -15 -48 -15 -71 0 -35 5 -48 26 -64 15 -12 34 -21 43
-21 44 0 48 15 112 392 l62 367 -29 25 c-33 29 -31 28 -61 14z"/>
<path d="M6913 983 c-14 -35 -14 -40 3 -71 42 -79 187 -165 219 -131 28 30 25
54 -13 112 -41 63 -125 127 -167 127 -21 0 -29 -8 -42 -37z"/>
<path d="M6532 988 c-5 -7 -17 -27 -25 -44 -15 -30 -15 -32 6 -51 35 -31 91
-53 143 -55 l49 -3 3 36 c2 28 -3 44 -25 69 -43 51 -126 78 -151 48z"/>
<path d="M6324 946 c-15 -12 -19 -27 -19 -79 0 -56 4 -69 25 -93 47 -51 140
-80 168 -52 23 23 11 52 -58 133 -91 107 -92 108 -116 91z"/>
<path d="M2234 715 c-22 -33 -34 -90 -27 -130 7 -45 52 -86 94 -88 48 -3 60
27 47 123 -8 63 -14 79 -36 97 -35 30 -58 29 -78 -2z"/>
<path d="M1573 672 c-7 -4 -22 -52 -33 -107 l-22 -99 27 -23 c28 -25 82 -31
116 -12 32 17 41 54 24 96 -8 19 -15 53 -15 74 0 30 -6 42 -29 58 -31 22 -48
26 -68 13z"/>
<path d="M9455 670 c-37 -14 -45 -33 -38 -88 l6 -52 88 0 c58 0 89 4 89 11 0
12 -109 139 -119 138 -3 0 -15 -4 -26 -9z"/>
<path d="M9236 619 c-21 -16 -26 -29 -26 -64 0 -36 5 -47 32 -70 28 -24 39
-27 85 -23 57 5 82 25 82 63 1 19 -113 115 -136 115 -6 0 -22 -9 -37 -21z"/>
</g>
</svg>
