<?xml version="1.0" standalone="no"?>
<!DOCTYPE svg PUBLIC "-//W3C//DTD SVG 20010904//EN"
 "http://www.w3.org/TR/2001/REC-SVG-20010904/DTD/svg10.dtd">
<svg version="1.0" xmlns="http://www.w3.org/2000/svg"
 width="1024.000000pt" height="1024.000000pt" viewBox="0 0 1024.000000 1024.000000"
 preserveAspectRatio="xMidYMid meet">
<metadata>
Created by potrace 1.10, written by Peter Selinger 2001-2011
</metadata>
<g transform="translate(0.000000,1024.000000) scale(0.100000,-0.100000)"
fill="#000000" stroke="none">
<path d="M5853 8560 c-18 -4 -40 -13 -49 -20 -46 -39 -44 -11 -79 -1209 -19
-625 -37 -1223 -40 -1328 l-7 -193 -42 0 c-22 0 -329 18 -680 40 l-639 40
-490 -25 c-270 -14 -506 -25 -525 -25 l-34 0 2 533 2 532 -41 503 c-38 467
-40 513 -30 640 18 228 4 295 -78 374 -33 33 -42 36 -67 30 -66 -18 -82 -71
-92 -302 -5 -120 1 -234 35 -665 23 -286 46 -560 51 -610 18 -158 23 -550 11
-733 -23 -357 -103 -1205 -131 -1407 -111 -777 -254 -1413 -457 -2030 l-65
-200 -294 -481 c-245 -401 -299 -484 -325 -494 -16 -7 -50 -36 -75 -64 -41
-47 -44 -54 -38 -91 13 -84 52 -107 135 -80 106 35 171 106 371 400 144 211
295 470 411 700 21 42 89 250 172 525 75 250 142 460 149 466 11 11 2604 99
2614 89 7 -7 -28 -1728 -39 -1885 -5 -74 -12 -159 -15 -187 -5 -49 -4 -55 24
-83 27 -26 38 -30 86 -30 47 0 60 4 85 27 l29 28 11 455 c6 250 10 619 9 820
-1 352 17 837 31 853 7 7 2112 -31 2120 -39 2 -2 -2 -176 -9 -386 -15 -467 -8
-1332 13 -1548 15 -157 29 -199 72 -218 49 -22 87 -15 117 22 l26 33 36 2859
c40 3176 44 3369 94 3814 32 290 24 349 -56 433 -46 47 -75 48 -123 3 l-36
-34 -6 -144 c-4 -78 -10 -209 -13 -289 l-7 -146 -896 -6 c-676 -5 -921 -4
-998 5 l-103 12 -6 35 c-8 39 11 306 28 414 15 91 -1 160 -48 216 -45 52 -61
60 -101 51z m225 -965 c60 -14 167 -14 972 -2 498 7 906 13 908 11 5 -3 -18
-1611 -24 -1679 l-5 -60 -272 0 c-164 0 -561 -14 -1004 -35 -402 -19 -735 -32
-738 -29 -6 7 63 1746 71 1787 5 26 6 26 92 7z m-2563 -1956 c95 -8 265 -9
465 -6 303 6 342 5 995 -39 374 -25 681 -47 683 -49 6 -5 -115 -1866 -122
-1872 -7 -7 -2563 -49 -2570 -42 -3 2 13 90 35 194 111 528 170 931 219 1490
11 132 26 264 31 294 l11 54 51 -7 c29 -3 120 -11 202 -17z m4407 -166 c-2
-98 -11 -541 -21 -985 -9 -444 -20 -810 -23 -814 -4 -3 -447 1 -984 11 -775
14 -992 15 -1051 5 -41 -6 -76 -10 -77 -8 -1 1 12 212 30 468 18 256 47 674
65 930 17 256 32 466 33 466 0 1 240 14 531 29 292 15 728 37 970 50 242 12
460 23 486 24 l45 1 -4 -177z"/>
<path d="M7250 4526 c0 -22 24 -96 31 -96 4 0 1 21 -8 48 -16 47 -23 62 -23
48z"/>
</g>
</svg>
