<?xml version="1.0" standalone="no"?>
<!DOCTYPE svg PUBLIC "-//W3C//DTD SVG 20010904//EN"
 "http://www.w3.org/TR/2001/REC-SVG-20010904/DTD/svg10.dtd">
<svg version="1.0" xmlns="http://www.w3.org/2000/svg"
 width="1024.000000pt" height="1024.000000pt" viewBox="0 0 1024.000000 1024.000000"
 preserveAspectRatio="xMidYMid meet">
<metadata>
Created by potrace 1.10, written by Peter Selinger 2001-2011
</metadata>
<g transform="translate(0.000000,1024.000000) scale(0.100000,-0.100000)"
fill="#000000" stroke="none">
<path d="M7194 8393 c-12 -2 -95 -22 -185 -43 -160 -39 -204 -43 -1974 -221
l-1810 -182 -50 28 c-27 15 -116 54 -197 86 l-148 58 -72 -30 c-40 -17 -74
-32 -76 -34 -6 -5 23 -61 54 -105 44 -62 89 -156 107 -221 9 -29 23 -141 32
-247 15 -169 17 -298 12 -1050 -5 -828 -9 -964 -42 -1417 -31 -423 -70 -726
-140 -1073 -140 -698 -341 -1196 -698 -1732 -50 -74 -99 -147 -110 -162 -28
-38 -17 -58 34 -58 65 0 107 26 215 134 241 240 490 640 669 1076 117 283 199
566 274 940 l57 285 45 7 c24 4 152 16 284 28 132 11 422 36 645 55 223 19
488 41 590 50 102 8 202 17 223 20 l37 5 0 -152 c0 -222 -38 -1289 -54 -1528
-14 -195 -11 -305 9 -415 9 -44 67 -211 89 -253 69 -132 212 -87 261 82 32
112 35 200 35 1237 l0 1047 73 6 c39 3 187 13 327 21 799 47 1432 85 1483 89
l57 6 0 -1094 0 -1093 -23 -34 c-32 -47 -81 -62 -182 -55 -148 11 -394 84
-620 185 -85 38 -91 39 -109 23 -18 -16 -14 -21 110 -137 345 -320 527 -521
614 -676 56 -100 154 -159 239 -145 51 8 109 53 163 126 69 94 91 139 142 290
83 247 76 -12 76 2743 0 2369 4 2706 30 2849 6 29 29 122 51 206 l42 153 -29
42 c-59 84 -257 211 -406 261 -73 25 -105 29 -154 19z m-15 -427 c17 -9 40
-34 51 -56 19 -38 20 -58 20 -669 l0 -629 -62 -6 c-80 -8 -1825 -126 -1857
-126 l-24 0 7 483 c3 265 11 523 18 573 6 50 8 103 4 118 -10 40 -79 101 -151
132 -36 16 -65 31 -65 34 0 9 1919 169 1976 165 29 -2 66 -11 83 -19z m-2447
-227 c92 -77 179 -224 215 -362 13 -51 17 -138 20 -492 l5 -430 -284 -28
c-155 -15 -537 -52 -847 -82 -311 -30 -566 -55 -568 -55 -6 0 -3 893 4 1121
l6 225 666 71 c366 39 681 71 700 72 25 1 45 -9 83 -40z m2518 -2072 l0 -653
-902 -53 c-497 -29 -933 -55 -970 -58 l-68 -6 0 652 0 651 38 1 c20 0 433 27
917 58 484 32 904 59 933 60 l52 1 0 -653z m-2280 -150 l0 -642 -881 -74
c-484 -40 -883 -70 -886 -67 -6 5 66 1257 72 1264 2 2 1446 140 1683 161 9 1
12 -134 12 -642z"/>
</g>
</svg>
