<?xml version="1.0" standalone="no"?>
<!DOCTYPE svg PUBLIC "-//W3C//DTD SVG 20010904//EN"
 "http://www.w3.org/TR/2001/REC-SVG-20010904/DTD/svg10.dtd">
<svg version="1.0" xmlns="http://www.w3.org/2000/svg"
 width="480.000000pt" height="480.000000pt" viewBox="0 0 480.000000 480.000000"
 preserveAspectRatio="xMidYMid meet">
<metadata>
Created by potrace 1.11, written by Peter Selinger 2001-2013
</metadata>
<g transform="translate(0.000000,480.000000) scale(0.100000,-0.100000)"
fill="#000000" stroke="none">
<path d="M3660 4485 c-7 -9 -14 -44 -16 -78 -8 -209 -17 -353 -21 -357 -2 -2
-562 -6 -1243 -8 l-1239 -3 4 117 c3 64 6 119 9 121 2 2 0 21 -5 41 -5 22 -4
39 2 43 16 10 -1 39 -34 56 -26 13 -55 14 -191 8 -89 -4 -168 -11 -176 -15
-11 -6 -15 -34 -17 -117 -2 -59 -5 -117 -7 -128 -3 -11 -5 -46 -5 -77 l-1 -58
-189 0 c-159 0 -190 2 -195 15 -9 24 -78 20 -94 -5 -18 -29 -7 -323 14 -367
l15 -33 137 -1 c271 -2 320 -4 328 -12 14 -14 3 -81 -17 -103 -10 -11 -19 -26
-19 -32 0 -9 -36 -12 -122 -14 -68 0 -132 -2 -143 -3 -11 -1 -77 -3 -146 -4
l-127 -1 -4 -45 -3 -45 140 -1 c77 -1 198 -2 270 -3 83 0 137 3 152 11 21 11
23 10 23 -17 l0 -28 -157 -7 c-87 -3 -173 -8 -192 -10 -19 -2 -75 -5 -125 -6
-50 -1 -97 -4 -103 -6 -8 -3 -13 -22 -13 -45 l0 -39 299 3 299 3 3 -1195 c1
-657 3 -1273 4 -1369 l1 -173 -66 5 c-36 4 -108 9 -161 13 l-96 7 -5 -25 c-4
-23 2 -29 61 -56 59 -28 80 -32 191 -38 169 -8 230 -7 246 7 10 8 42 8 126 0
163 -17 165 -17 252 -35 90 -19 374 -32 616 -29 91 1 345 4 565 7 371 4 626
11 735 21 25 2 113 7 195 10 83 4 164 10 180 15 46 13 238 23 470 25 l210 1
-3 44 c-2 25 -5 46 -6 47 -1 2 -69 4 -151 5 l-148 3 2 195 c2 107 4 222 6 255
1 33 6 236 10 450 4 215 8 420 10 457 2 36 7 237 10 445 4 208 9 401 10 428 1
28 3 134 4 236 l2 186 34 12 c19 7 74 12 122 11 48 0 107 2 131 6 l42 7 -4 46
c-2 25 -5 48 -5 51 -1 6 -10 6 -183 10 l-128 3 0 39 0 38 113 1 c98 2 152 4
194 8 11 1 29 58 21 66 -4 4 -46 8 -238 23 l-85 7 0 72 c0 39 2 74 5 77 3 2
122 7 265 11 143 3 267 8 277 11 35 10 51 72 53 201 2 136 1 139 -68 168 -26
11 -37 12 -37 4 0 -9 -44 -10 -167 -6 -93 4 -206 7 -252 7 -75 0 -82 2 -76 18
5 9 10 67 12 127 2 61 7 121 11 135 5 14 7 52 6 85 -2 54 -4 60 -28 68 -15 5
-34 5 -44 1 -9 -4 -61 -6 -114 -5 -94 3 -109 4 -174 17 -21 4 -34 1 -44 -11z
m303 -115 c-1 -8 -7 -44 -13 -80 -5 -36 -13 -104 -16 -152 l-6 -88 -104 0
c-72 0 -103 3 -99 11 6 9 21 171 28 292 l2 38 105 -3 c86 -3 105 -6 103 -18z
m-2917 -117 c-3 -42 -6 -107 -6 -145 l0 -68 -105 0 -106 0 5 143 c3 78 5 143
5 145 1 1 49 2 107 2 l107 0 -7 -77z m3480 -340 c-2 -26 -5 -71 -5 -100 l-1
-52 -897 -1 c-494 -1 -950 -3 -1013 -4 -63 -1 -123 1 -133 7 -12 5 -29 5 -45
-1 -17 -7 -257 -13 -612 -16 -322 -4 -789 -9 -1038 -12 l-454 -7 6 64 c2 35 5
83 5 107 l1 43 1428 -2 c1148 -2 2297 6 2309 15 1 1 104 3 228 5 l226 2 -5
-48z m-898 -429 l-3 -178 -50 -13 c-27 -7 -54 -13 -59 -13 -13 0 0 184 13 188
41 14 55 74 21 92 -22 12 -860 8 -922 -5 -21 -4 -43 -14 -50 -22 -9 -11 -11
-330 -9 -1446 1 -788 4 -1440 7 -1450 3 -9 13 -21 23 -26 10 -6 207 -11 466
-12 390 -1 450 1 460 14 7 9 8 39 4 83 -3 38 -7 135 -8 215 l-2 147 45 -16 44
-16 -4 -156 c-6 -222 -12 -362 -16 -366 -2 -1 -33 -7 -68 -13 -67 -10 -214
-16 -687 -27 l-273 -6 -1 118 c-1 66 -3 151 -4 189 -1 39 -5 304 -9 590 -4
286 -9 599 -11 695 -2 96 -7 360 -10 585 -3 226 -8 536 -11 691 -4 155 -3 291
0 302 7 22 10 22 344 24 185 2 435 4 555 6 l217 3 -2 -177z m307 129 c-2 -27
-7 -174 -10 -328 -7 -361 -14 -675 -20 -845 -2 -74 -7 -279 -11 -455 -3 -176
-8 -342 -9 -370 -2 -27 -4 -125 -5 -217 -1 -93 -4 -168 -7 -168 -3 0 -22 15
-44 33 -21 19 -57 39 -80 46 l-41 12 8 702 c7 655 9 839 13 978 l1 55 40 2
c50 3 106 36 125 73 32 60 8 153 -41 165 -14 4 -37 17 -51 30 -14 13 -36 24
-49 24 l-24 0 3 155 2 155 102 0 102 0 -4 -47z m-1528 24 c6 -4 11 -26 11 -50
-1 -62 13 -1337 17 -1507 2 -80 6 -449 10 -820 4 -371 8 -704 10 -738 l4 -64
-577 4 -576 3 -22 22 c-21 21 -22 32 -23 175 -1 84 -4 196 -7 249 l-5 96 32 7
c17 3 37 6 44 6 9 0 11 -43 8 -183 -3 -111 0 -193 6 -209 12 -32 55 -47 82
-29 13 8 139 11 436 11 352 -1 421 -3 437 -15 11 -8 33 -15 48 -15 33 0 45 23
42 79 -1 20 -5 212 -8 426 -4 215 -9 426 -11 470 -2 44 -7 249 -10 455 -4 206
-8 407 -10 445 -10 203 -16 993 -8 1015 12 32 6 58 -15 64 -9 3 -174 6 -367 7
-351 2 -601 -7 -642 -22 -45 -17 -56 -60 -48 -190 l7 -119 -51 0 -51 0 0 213
0 213 497 3 c274 1 499 4 500 5 6 6 229 0 240 -7z m-1347 -6 c3 0 6 -103 7
-227 l2 -227 -25 -19 c-35 -28 -54 -71 -56 -125 -2 -63 14 -91 57 -99 35 -6
35 -6 36 -63 1 -31 3 -74 4 -96 1 -22 5 -148 9 -280 4 -132 9 -283 11 -335 3
-52 7 -169 10 -260 2 -91 8 -256 11 -366 l6 -201 -35 -7 c-25 -5 -45 -19 -72
-52 -33 -39 -37 -50 -31 -82 3 -20 8 -55 11 -77 9 -59 26 -78 85 -95 31 -9 54
-22 55 -30 1 -8 5 -118 9 -244 l6 -229 -142 6 c-79 4 -145 7 -148 7 -3 0 -5
98 -6 218 -1 293 -13 1620 -20 2237 -3 281 -2 520 3 545 5 25 6 57 2 72 -4 15
-5 28 -3 30 3 4 203 3 214 -1z m2353 -288 c-3 -71 -10 -131 -19 -150 -18 -39
-18 -71 0 -114 9 -22 14 -77 15 -154 1 -131 9 -408 16 -632 l5 -143 -28 0
c-36 0 -52 -16 -52 -52 0 -29 3 -32 53 -42 l28 -7 -2 -412 c-2 -227 -5 -418
-7 -424 -2 -7 -17 -13 -33 -13 -22 0 -32 -7 -41 -25 -14 -31 1 -51 45 -59 l33
-6 0 -211 0 -211 -266 7 c-146 5 -283 9 -305 10 -22 1 -72 3 -111 4 l-70 1 1
48 c1 26 3 116 4 200 l1 152 29 0 c36 0 53 20 49 57 -3 23 -9 29 -44 36 l-41
8 -2 414 -2 415 84 0 c96 0 118 12 99 54 -13 28 -94 51 -183 51 -5 0 -9 1153
-4 1220 l7 95 373 0 372 0 -4 -117z m-1191 98 c3 0 6 -25 5 -53 -1 -76 14
-980 19 -1129 l4 -125 -70 -23 c-78 -25 -87 -41 -46 -80 20 -19 33 -22 70 -19
45 3 46 2 48 -27 4 -76 6 -142 13 -455 l7 -336 -22 -1 c-29 -2 -47 -19 -52
-48 -6 -30 10 -45 49 -48 l28 -2 3 -198 4 -199 -421 4 -421 3 -1 125 c-1 69
-2 143 -3 164 -1 37 1 40 39 53 42 14 115 78 115 100 0 7 -10 18 -23 24 -12 6
-29 24 -36 41 -8 17 -27 38 -43 47 -16 9 -36 21 -44 26 -17 12 -21 79 -29 465
-6 276 -5 294 10 272 14 -19 25 -23 58 -20 39 3 42 5 45 36 2 18 -2 40 -9 48
-17 20 -86 18 -98 -3 -9 -15 -11 -12 -12 17 -1 19 -2 53 -4 75 -1 22 -5 200
-9 395 -4 195 -9 367 -12 381 -3 22 3 31 39 55 38 26 50 29 127 29 84 0 85 0
88 26 4 35 -14 47 -83 55 -49 6 -65 13 -90 40 -17 18 -43 36 -58 39 -22 6 -27
13 -28 39 0 17 -2 59 -6 94 -3 34 -2 73 1 86 l6 24 317 1 c174 1 318 3 320 4
2 3 191 1 205 -2z m1501 -248 c23 3 53 9 65 13 24 7 24 6 9 -22 -34 -64 -61
-86 -108 -91 -49 -6 -105 15 -116 43 -3 7 -16 14 -29 14 -30 0 -31 16 -1 26
12 4 32 17 45 30 l23 23 35 -21 c26 -15 45 -19 77 -15z m-2443 -102 c0 -14
-11 -21 -50 -28 -45 -9 -50 -8 -50 7 0 13 13 20 48 28 26 5 48 10 50 11 1 0 2
-7 2 -18z m2346 -348 c-3 -170 -7 -517 -8 -773 -1 -256 -4 -504 -6 -551 l-4
-85 -41 -11 c-23 -7 -43 -10 -44 -9 -2 1 -6 393 -9 869 l-7 867 62 0 63 0 -6
-307z m-2340 195 c2 -122 16 -656 19 -738 2 -58 7 -235 10 -395 3 -159 8 -334
11 -389 l4 -99 -41 6 c-22 3 -42 7 -44 9 -5 5 -21 398 -30 738 -4 118 -8 242
-10 275 -2 33 -7 173 -10 310 -4 138 -9 257 -11 266 -3 11 6 19 28 26 55 18
74 16 74 -9z m2472 -1704 c12 -8 22 -26 22 -39 0 -13 5 -27 10 -30 19 -12 -7
-31 -69 -50 l-60 -18 -46 27 c-39 23 -78 70 -64 79 79 49 163 62 207 31z
m-2399 -15 c60 3 91 -19 91 -64 0 -28 -5 -37 -30 -50 -40 -21 -96 -20 -109 3
-10 16 -12 16 -41 0 -39 -22 -103 -23 -120 -3 -7 8 -20 15 -29 15 -14 0 -17
10 -16 48 l0 47 40 -3 c22 -1 54 2 70 7 17 6 46 7 65 4 19 -4 55 -5 79 -4z
m2505 -406 c-3 -137 -8 -255 -10 -263 -1 -8 -3 -23 -3 -33 -1 -17 -8 -18 -69
-15 -80 5 -96 12 -88 42 3 11 6 102 7 201 0 99 4 201 6 227 l6 46 48 7 c26 4
56 13 66 21 44 33 45 29 37 -233z"/>
<path d="M3176 3374 c-21 -20 -20 -37 2 -57 26 -23 45 -21 72 8 23 24 23 25 5
45 -22 24 -58 26 -79 4z"/>
<path d="M2780 3310 c-15 -36 -1 -60 36 -60 24 0 64 35 64 55 0 20 -24 35 -56
35 -26 0 -34 -6 -44 -30z"/>
<path d="M3200 3131 c-5 -11 -10 -29 -10 -41 0 -42 18 -60 60 -60 43 0 60 18
60 64 0 49 -88 78 -110 37z"/>
<path d="M2729 3133 c-9 -2 -22 -15 -29 -28 -12 -22 -11 -28 10 -50 28 -29 75
-33 120 -10 36 19 38 38 5 70 -23 24 -61 30 -106 18z"/>
<path d="M2953 3118 c-17 -22 -22 -57 -9 -67 18 -15 58 -20 84 -10 17 6 22 16
22 43 0 22 -6 36 -16 40 -27 10 -71 7 -81 -6z"/>
<path d="M2773 2566 c-23 -21 -26 -28 -17 -43 16 -24 92 -22 111 3 17 23 16
29 -3 48 -22 23 -59 20 -91 -8z"/>
<path d="M3241 2564 c-51 -43 -33 -84 36 -84 32 0 83 45 83 73 0 41 -75 49
-119 11z"/>
<path d="M2978 2546 c-14 -31 -5 -53 27 -68 38 -17 75 3 75 41 0 53 -80 73
-102 27z"/>
<path d="M3168 2147 c-16 -6 -28 -15 -28 -19 0 -5 -10 -2 -22 6 -12 9 -32 16
-44 16 -21 0 -54 -28 -54 -47 0 -21 39 -45 70 -41 18 1 34 -3 39 -10 9 -14 24
-16 91 -9 83 9 120 42 92 83 -21 33 -90 43 -144 21z"/>
<path d="M2906 2128 c-21 -30 -20 -55 3 -68 45 -23 91 -1 91 45 0 45 -68 61
-94 23z"/>
<path d="M3183 1655 c-37 -16 -41 -33 -15 -64 22 -27 81 -31 116 -7 30 19 36
70 10 80 -26 10 -77 6 -111 -9z"/>
<path d="M2792 1632 c-13 -2 -28 -15 -34 -28 -10 -20 -8 -29 9 -52 26 -34 49
-39 90 -17 27 15 33 24 33 51 0 18 -4 35 -9 39 -13 7 -61 11 -89 7z"/>
<path d="M2830 1200 c-20 -5 -26 -13 -28 -42 -4 -44 19 -61 76 -56 34 3 37 6
40 36 5 52 -29 76 -88 62z"/>
<path d="M3002 1188 c-17 -17 -15 -65 4 -72 28 -11 71 -6 83 8 7 8 11 27 9 43
-3 25 -7 28 -43 31 -23 2 -46 -3 -53 -10z"/>
<path d="M3180 1170 c-10 -24 -10 -33 0 -45 27 -33 100 -4 100 39 0 26 -17 36
-60 36 -21 0 -30 -7 -40 -30z"/>
<path d="M1535 3291 c-18 -36 -11 -59 22 -67 17 -5 31 0 49 17 29 27 30 40 6
62 -29 26 -59 21 -77 -12z"/>
<path d="M1990 3301 c-5 -11 -10 -26 -10 -34 0 -18 32 -47 52 -47 21 0 48 32
48 58 0 40 -71 58 -90 23z"/>
<path d="M2052 3114 c-22 -15 -28 -48 -14 -71 12 -18 68 -23 91 -6 23 16 29
71 9 77 -44 14 -67 14 -86 0z"/>
<path d="M1730 3100 c-13 -24 -5 -60 13 -60 7 0 49 -3 93 -6 76 -6 83 -5 93
14 25 47 -24 72 -145 72 -33 0 -46 -5 -54 -20z"/>
<path d="M1797 2561 c-21 -35 -14 -59 20 -67 55 -14 102 39 67 77 -26 29 -66
25 -87 -10z"/>
<path d="M2033 2559 c-67 -43 -47 -96 32 -84 47 7 75 30 75 61 0 44 -55 56
-107 23z"/>
<path d="M1542 2550 c-18 -29 -15 -47 10 -64 48 -34 98 -12 98 43 0 41 -85 58
-108 21z"/>
<path d="M1898 2110 c-28 -17 -41 -49 -27 -66 20 -24 156 -14 166 13 15 39
-95 80 -139 53z"/>
<path d="M1653 2100 c-27 -11 -30 -45 -7 -78 29 -42 132 -20 126 28 -6 52 -59
74 -119 50z"/>
<path d="M1950 1664 c-9 -3 -21 -14 -28 -25 -26 -41 33 -96 94 -86 64 11 81
44 46 87 -17 21 -78 34 -112 24z"/>
<path d="M1622 1638 c-15 -15 -16 -64 -1 -73 19 -12 81 -7 90 7 14 22 10 65
-7 72 -26 10 -69 7 -82 -6z"/>
<path d="M2075 1192 c-11 -2 -25 -11 -32 -19 -11 -14 -14 -14 -28 1 -26 25
-72 20 -92 -10 -21 -33 -8 -58 34 -62 23 -2 36 3 51 23 l21 26 13 -28 c11 -23
20 -29 56 -31 24 -2 50 2 58 9 15 12 19 56 6 76 -9 14 -54 22 -87 15z"/>
<path d="M1616 1174 c-21 -20 -20 -37 2 -57 26 -23 45 -21 72 8 23 24 23 25 5
45 -22 24 -58 26 -79 4z"/>
<path d="M1778 1182 c-19 -2 -30 -11 -34 -27 -11 -44 -2 -60 39 -63 48 -4 69
12 65 51 -3 33 -25 45 -70 39z"/>
</g>
</svg>
