<?xml version="1.0" standalone="no"?>
<!DOCTYPE svg PUBLIC "-//W3C//DTD SVG 20010904//EN"
 "http://www.w3.org/TR/2001/REC-SVG-20010904/DTD/svg10.dtd">
<svg version="1.0" xmlns="http://www.w3.org/2000/svg"
 width="1024.000000pt" height="1024.000000pt" viewBox="0 0 1024.000000 1024.000000"
 preserveAspectRatio="xMidYMid meet">
<metadata>
Created by potrace 1.10, written by Peter Selinger 2001-2011
</metadata>
<g transform="translate(0.000000,1024.000000) scale(0.100000,-0.100000)"
fill="#000000" stroke="none">
<path d="M7550 9595 l-1105 -173 -255 86 -255 86 -90 -41 c-113 -51 -116 -62
-42 -129 82 -74 152 -194 191 -325 38 -133 38 -161 11 -1010 -15 -448 -25
-870 -22 -939 7 -194 50 -307 161 -423 25 -26 61 -56 78 -67 44 -27 107 -26
142 1 31 25 70 98 87 163 7 28 17 46 26 46 23 0 2144 169 2191 175 l42 5 -2
-2813 -3 -2812 -24 -48 c-28 -57 -62 -77 -131 -77 -28 0 -211 25 -407 55 -196
30 -371 55 -388 55 -29 0 -55 -15 -55 -32 0 -4 69 -62 153 -129 226 -181 337
-278 485 -423 145 -142 222 -231 295 -342 68 -104 150 -154 252 -154 49 0 59
4 94 35 45 41 116 172 154 285 30 88 59 199 95 365 l26 120 6 3880 c6 3499 8
3888 22 3962 21 106 32 138 83 248 23 50 53 116 65 148 23 54 23 60 8 85 -22
37 -94 91 -180 134 -88 43 -522 178 -569 177 -19 -1 -531 -79 -1139 -174z
m1080 -257 c79 -40 80 -43 80 -430 0 -264 -3 -338 -12 -338 -7 0 -500 -45
-1096 -100 -595 -55 -1089 -100 -1097 -100 -13 0 -15 52 -15 373 l0 373 963
121 c529 66 1000 121 1047 122 71 1 94 -3 130 -21z m80 -1503 l0 -424 -32 -5
c-41 -7 -2123 -176 -2160 -176 l-28 0 0 410 c0 226 3 410 8 411 4 0 498 47
1097 103 600 57 1096 104 1103 105 9 1 12 -90 12 -424z"/>
<path d="M3779 9560 c-24 -16 -61 -43 -82 -59 -21 -17 -57 -37 -80 -46 -24 -9
-447 -68 -1002 -139 l-960 -124 -120 43 c-66 24 -189 64 -274 90 l-154 47
-119 -38 c-65 -21 -118 -40 -118 -44 0 -3 33 -44 73 -91 90 -105 160 -216 198
-313 64 -164 60 76 56 -3557 -3 -3595 1 -3314 -56 -3624 -26 -141 -45 -388
-36 -468 9 -86 39 -212 65 -271 53 -124 172 -262 246 -286 84 -28 149 9 198
113 40 84 61 172 75 316 8 69 11 978 11 2787 0 2481 1 2684 16 2684 19 0 1953
248 2001 256 29 6 33 3 38 -22 21 -103 66 -187 125 -237 35 -30 86 -43 127
-32 38 9 120 96 145 153 29 65 56 164 73 264 9 57 22 360 39 890 14 442 30
854 35 916 11 118 30 174 86 251 51 70 59 153 18 203 -39 47 -37 45 -149 140
-263 222 -372 267 -475 198z m-13 -415 c26 -11 40 -26 55 -60 20 -44 20 -52 8
-375 -7 -182 -16 -335 -20 -341 -4 -7 -425 -59 -1055 -130 -577 -65 -1050
-119 -1051 -119 -2 0 -3 141 -3 313 1 285 9 449 23 464 5 5 1931 259 1985 262
12 0 38 -6 58 -14z m38 -1162 c-2 -38 -9 -230 -15 -428 -6 -198 -11 -361 -12
-362 -2 -1 -457 -56 -1012 -122 -556 -67 -1022 -123 -1037 -126 l-28 -4 0 434
c0 239 3 435 8 436 4 0 468 53 1032 118 564 65 1035 119 1047 120 21 1 22 -2
17 -66z"/>
</g>
</svg>
