<?xml version="1.0" standalone="no"?>
<!DOCTYPE svg PUBLIC "-//W3C//DTD SVG 20010904//EN"
 "http://www.w3.org/TR/2001/REC-SVG-20010904/DTD/svg10.dtd">
<svg version="1.0" xmlns="http://www.w3.org/2000/svg"
 width="480.000000pt" height="480.000000pt" viewBox="0 0 480.000000 480.000000"
 preserveAspectRatio="xMidYMid meet">
<metadata>
Created by potrace 1.11, written by Peter Selinger 2001-2013
</metadata>
<g transform="translate(0.000000,480.000000) scale(0.100000,-0.100000)"
fill="#000000" stroke="none">
<path d="M970 4262 c-6 -2 -10 -85 -10 -227 l0 -224 -226 -3 c-210 -3 -227 -4
-240 -22 -19 -26 -18 -62 2 -70 9 -3 117 -6 241 -6 l226 0 -7 -587 c-3 -324
-8 -903 -11 -1288 -3 -385 -8 -850 -10 -1034 -4 -289 -3 -337 10 -358 19 -28
71 -32 79 -5 2 9 8 228 12 487 4 259 8 506 9 550 1 44 4 206 5 360 2 154 6
299 8 323 l4 42 52 0 c35 1 196 42 515 133 l463 133 -1 245 c-1 145 -6 258
-12 278 -6 18 -8 50 -5 70 4 20 6 105 6 189 -1 94 3 159 10 167 16 19 -24 63
-69 75 -35 9 -78 -2 -482 -120 -244 -72 -452 -133 -461 -136 -17 -5 -18 11
-18 235 l0 241 1401 0 1400 0 -7 -192 c-3 -106 -8 -206 -9 -223 -2 -16 -4 -51
-4 -77 -1 -34 -5 -48 -15 -48 -12 0 -213 82 -696 283 -112 46 -160 61 -211 65
l-65 4 -1 -158 c0 -88 0 -206 -1 -264 0 -58 -1 -132 0 -165 0 -82 -19 -366
-31 -445 -5 -36 -9 -65 -8 -66 1 0 117 -43 257 -94 231 -83 498 -188 685 -268
l70 -30 -4 -821 c-2 -641 -1 -825 9 -836 16 -19 64 -19 79 -1 8 10 11 92 9
287 -3 251 7 1063 17 1374 2 72 7 335 11 585 4 250 8 487 9 525 1 39 3 181 5
318 l2 247 242 0 c254 0 266 2 266 45 0 43 -12 45 -267 45 l-242 0 4 48 c3 26
7 104 9 173 l4 127 -50 6 c-28 4 -52 5 -54 3 -2 -1 -4 -83 -4 -181 l-2 -177
-1405 3 -1405 3 5 226 6 227 -44 4 c-25 2 -49 2 -55 0z m2410 -1022 c162 -67
332 -140 378 -162 l82 -41 0 -143 c0 -79 -3 -144 -7 -144 -13 0 -868 272 -875
279 -8 7 -20 359 -13 371 8 13 105 -23 435 -160z m-1409 133 c0 -5 3 -85 6
-180 l5 -172 -24 -6 c-358 -85 -867 -207 -880 -211 -17 -5 -18 7 -18 155 l0
160 38 11 c20 5 222 64 447 129 451 131 425 124 426 114z m1836 -729 l32 -6
-6 -247 c-3 -135 -6 -247 -7 -247 0 -1 -201 78 -446 175 l-445 177 1 104 c1
151 6 304 10 311 2 4 189 -54 416 -127 227 -74 427 -137 445 -140z m-1826 179
c1 -49 3 -129 5 -180 l3 -92 -67 -20 c-132 -39 -649 -183 -754 -211 l-108 -27
0 208 0 209 28 0 c15 0 214 45 442 99 228 55 423 99 433 100 15 1 17 -10 18
-86z"/>
</g>
</svg>
