<?xml version="1.0" standalone="no"?>
<!DOCTYPE svg PUBLIC "-//W3C//DTD SVG 20010904//EN"
 "http://www.w3.org/TR/2001/REC-SVG-20010904/DTD/svg10.dtd">
<svg version="1.0" xmlns="http://www.w3.org/2000/svg"
 width="1024.000000pt" height="1024.000000pt" viewBox="0 0 1024.000000 1024.000000"
 preserveAspectRatio="xMidYMid meet">
<metadata>
Created by potrace 1.10, written by Peter Selinger 2001-2011
</metadata>
<g transform="translate(0.000000,1024.000000) scale(0.100000,-0.100000)"
fill="#000000" stroke="none">
<path d="M6100 8790 c-466 -205 -968 -500 -1370 -806 -234 -177 -339 -271
-1125 -1009 l-767 -720 -531 -630 c-292 -346 -558 -670 -591 -720 -110 -166
-194 -336 -364 -734 -147 -345 -179 -429 -245 -651 -74 -248 -77 -262 -106
-501 l-29 -246 33 -642 c28 -523 37 -647 49 -667 9 -13 16 -33 16 -44 0 -11
20 -61 45 -110 25 -49 45 -97 45 -106 0 -9 36 -54 81 -99 l80 -83 117 -5 117
-5 1415 305 1415 306 900 354 c663 261 951 379 1094 450 l194 95 72 -35 c133
-65 204 -82 350 -81 92 0 150 5 200 18 187 48 776 219 820 238 49 20 235 62
243 54 2 -3 0 -31 -5 -63 -23 -149 29 -200 224 -224 128 -15 235 -2 378 46 55
18 131 36 170 40 155 16 289 78 394 184 87 87 123 154 124 229 0 34 -6 70 -16
88 -15 30 -70 84 -85 84 -4 0 -13 4 -21 9 -11 7 7 33 80 116 105 118 118 141
119 203 0 56 -24 107 -68 140 -18 15 -43 34 -54 43 -20 15 -20 16 21 63 72 83
86 119 86 221 0 78 -4 97 -28 147 -40 81 -85 114 -246 183 -136 58 -141 61
-134 85 8 29 8 39 -5 235 -11 169 -22 206 -91 292 -65 82 -62 81 -302 97
l-214 14 -520 -55 c-357 -37 -543 -53 -594 -49 -85 5 -117 -4 -132 -38 -13
-28 -731 -706 -787 -743 -20 -14 -51 -40 -67 -60 l-30 -35 -169 10 c-152 9
-176 8 -245 -9 -73 -18 -2435 -332 -2457 -327 -16 5 865 758 1206 1031 168
134 577 481 910 771 333 291 628 543 655 561 28 18 152 120 277 228 220 189
233 202 405 414 187 230 213 269 213 318 0 38 -29 86 -62 104 -23 12 -29 11
-57 -10 -27 -20 -31 -29 -31 -71 l0 -48 -191 -213 c-106 -116 -215 -237 -243
-267 -28 -30 -719 -617 -1536 -1304 -1050 -884 -1533 -1298 -1650 -1412 l-165
-161 -169 -42 c-367 -93 -541 -165 -945 -395 -294 -167 -308 -177 -348 -232
-43 -59 -50 -78 -34 -102 6 -11 21 -11 77 -1 56 9 79 19 124 54 110 85 278
188 430 264 124 61 222 100 479 186 302 101 326 107 357 96 35 -13 46 -10 79
20 13 12 118 40 310 82 l290 65 1085 131 c597 72 1169 137 1272 145 157 12
192 18 216 35 16 11 40 23 54 26 14 4 196 170 431 394 l405 388 59 6 c32 3
372 25 757 49 l698 43 43 -50 c41 -47 44 -54 50 -125 3 -41 9 -95 14 -119 6
-28 5 -66 -2 -102 l-10 -57 -59 21 c-32 12 -58 23 -58 26 0 4 16 17 35 31 19
14 42 39 52 57 16 31 16 33 -1 52 -31 34 -67 35 -178 1 -57 -17 -111 -35 -120
-40 -13 -7 -75 17 -255 100 -230 105 -239 108 -263 93 -40 -25 -70 -55 -70
-70 0 -26 64 -73 130 -94 36 -12 117 -48 180 -79 152 -75 647 -274 733 -294
80 -19 173 -63 244 -118 40 -30 55 -50 63 -80 10 -37 9 -42 -35 -113 -50 -80
-114 -145 -143 -145 -50 0 -248 43 -339 74 -204 69 -340 150 -583 350 -84 69
-160 126 -170 126 -22 0 -50 -31 -50 -55 0 -27 71 -114 171 -209 93 -89 230
-186 338 -241 85 -42 468 -162 563 -175 40 -6 96 -21 124 -34 52 -24 134 -90
134 -108 0 -27 -90 -129 -143 -162 -32 -20 -62 -47 -67 -60 l-8 -23 -289 48
c-386 65 -483 96 -651 212 -85 59 -229 206 -249 257 -30 71 -60 85 -114 53
-25 -15 -29 -23 -29 -63 0 -25 7 -58 15 -74 24 -46 224 -243 300 -295 171
-118 265 -148 690 -222 192 -33 356 -65 362 -71 7 -6 19 -8 27 -5 20 8 76 -57
76 -87 0 -15 -28 -50 -87 -108 -99 -96 -70 -83 -378 -163 -145 -38 -211 -50
-340 -61 -88 -7 -165 -14 -172 -14 -15 0 -27 61 -18 89 9 28 61 44 105 31 66
-19 114 -13 144 19 41 42 29 73 -42 108 -50 24 -73 28 -210 36 -132 8 -167 7
-241 -8 -47 -10 -95 -19 -106 -20 -12 -2 -265 -69 -564 -149 -298 -80 -547
-146 -554 -146 -15 0 -199 76 -239 99 -20 11 -62 21 -106 24 l-74 6 -86 -49
c-54 -30 -495 -212 -1162 -478 l-1075 -430 -1055 -240 -1055 -241 -355 -36
c-195 -20 -359 -37 -364 -38 -5 -2 -42 64 -83 145 l-73 149 -51 342 -51 342 5
405 c4 350 8 424 27 545 50 321 150 621 368 1105 l155 345 516 685 516 686
942 891 c518 490 973 916 1010 945 180 143 651 458 950 636 l322 192 248 91
c186 69 256 100 281 122 35 34 40 61 16 95 -12 18 -24 22 -67 21 -43 -1 -93
-19 -297 -109z"/>
<path d="M7908 4387 c-21 -17 -26 -28 -22 -48 9 -42 65 -90 112 -96 40 -5 41
-5 53 35 16 54 5 88 -34 112 -42 26 -76 25 -109 -3z"/>
<path d="M7642 3965 c-18 -8 -35 -21 -38 -30 -16 -40 30 -108 81 -121 17 -4
38 0 61 12 29 16 34 24 34 55 0 29 -7 43 -31 63 -17 14 -34 26 -39 26 -5 0
-14 2 -22 5 -7 2 -28 -2 -46 -10z"/>
</g>
</svg>
