<?xml version="1.0" standalone="no"?>
<!DOCTYPE svg PUBLIC "-//W3C//DTD SVG 20010904//EN"
 "http://www.w3.org/TR/2001/REC-SVG-20010904/DTD/svg10.dtd">
<svg version="1.0" xmlns="http://www.w3.org/2000/svg"
 width="1024.000000pt" height="1024.000000pt" viewBox="0 0 1024.000000 1024.000000"
 preserveAspectRatio="xMidYMid meet">
<metadata>
Created by potrace 1.10, written by Peter Selinger 2001-2011
</metadata>
<g transform="translate(0.000000,1024.000000) scale(0.100000,-0.100000)"
fill="#000000" stroke="none">
<path d="M4155 7858 c-11 -5 -143 -166 -292 -356 -274 -349 -311 -401 -1318
-1877 -60 -88 -186 -272 -280 -410 -160 -234 -445 -720 -622 -1061 -64 -124
-116 -275 -138 -409 -17 -94 -17 -104 0 -177 14 -63 26 -90 68 -145 163 -218
409 -391 672 -472 90 -28 1097 -246 1280 -277 433 -74 880 -126 1440 -166 242
-18 1416 -18 1645 0 539 41 539 41 925 119 457 93 527 117 691 242 195 146
244 243 244 483 0 316 -65 583 -226 919 -48 101 -125 267 -171 369 -47 104
-96 197 -112 213 -39 40 -96 46 -155 17 -29 -14 -46 -28 -46 -40 0 -34 61
-222 103 -318 24 -53 78 -155 121 -226 131 -214 193 -365 238 -574 20 -93 23
-135 23 -318 l0 -210 -26 -40 c-50 -74 -372 -228 -601 -288 -175 -45 -266 -56
-858 -97 -552 -39 -611 -42 -1050 -42 -555 -1 -919 19 -1445 79 -360 41 -626
81 -995 149 -69 13 -208 35 -310 49 -299 43 -408 65 -531 106 -252 84 -464
216 -652 408 l-69 69 22 106 c19 94 38 143 173 434 l153 328 326 527 c307 495
368 586 999 1485 370 527 692 985 716 1019 23 33 59 73 80 87 46 32 89 85 110
134 22 54 5 104 -49 143 -44 32 -52 34 -83 18z"/>
<path d="M10063 1053 c-33 -6 -28 -19 8 -27 46 -9 49 -8 49 14 0 20 -9 22 -57
13z"/>
</g>
</svg>
