<?xml version="1.0" standalone="no"?>
<!DOCTYPE svg PUBLIC "-//W3C//DTD SVG 20010904//EN"
 "http://www.w3.org/TR/2001/REC-SVG-20010904/DTD/svg10.dtd">
<svg version="1.0" xmlns="http://www.w3.org/2000/svg"
 width="1024.000000pt" height="1024.000000pt" viewBox="0 0 1024.000000 1024.000000"
 preserveAspectRatio="xMidYMid meet">
<metadata>
Created by potrace 1.10, written by Peter Selinger 2001-2011
</metadata>
<g transform="translate(0.000000,1024.000000) scale(0.100000,-0.100000)"
fill="#000000" stroke="none">
<path d="M4703 9000 c-83 -12 -142 -46 -163 -93 -17 -37 -17 -43 -3 -70 32
-63 99 -166 169 -263 69 -95 74 -105 74 -152 0 -28 -15 -111 -34 -184 -83
-321 -271 -759 -661 -1538 -267 -535 -390 -765 -697 -1310 -157 -278 -483
-856 -725 -1285 -292 -518 -500 -874 -619 -1059 -178 -279 -180 -281 -373
-487 -298 -319 -318 -351 -287 -460 18 -67 68 -170 158 -328 121 -212 193
-291 265 -291 57 0 384 87 623 165 251 83 42 38 2390 519 657 135 1359 279
1560 320 1334 274 1689 346 1702 346 10 0 24 -23 38 -62 113 -311 369 -980
401 -1044 22 -46 64 -108 95 -142 70 -78 116 -96 218 -90 123 8 196 66 248
197 20 50 22 74 23 221 0 123 -5 187 -18 250 -46 218 -166 506 -318 763 -89
151 -253 395 -333 496 -81 103 -316 342 -571 579 -115 108 -239 224 -275 258
-297 283 -561 469 -666 469 -23 0 -46 -3 -49 -7 -14 -14 90 -163 178 -258 320
-342 618 -761 838 -1175 l60 -113 -28 -6 c-15 -3 -1258 -172 -2761 -376 -2569
-348 -2737 -370 -2796 -359 -52 9 -67 16 -86 41 -17 24 -20 35 -12 52 5 11
283 473 617 1026 1152 1906 1727 2903 2095 3640 81 161 192 333 489 754 111
158 185 291 197 352 10 52 -16 127 -69 199 -44 61 -182 198 -247 247 -52 38
-544 268 -571 267 -13 -1 -47 -5 -76 -9z"/>
</g>
</svg>
