<?xml version="1.0" standalone="no"?>
<!DOCTYPE svg PUBLIC "-//W3C//DTD SVG 20010904//EN"
 "http://www.w3.org/TR/2001/REC-SVG-20010904/DTD/svg10.dtd">
<svg version="1.0" xmlns="http://www.w3.org/2000/svg"
 width="480.000000pt" height="480.000000pt" viewBox="0 0 480.000000 480.000000"
 preserveAspectRatio="xMidYMid meet">
<metadata>
Created by potrace 1.11, written by Peter Selinger 2001-2013
</metadata>
<g transform="translate(0.000000,480.000000) scale(0.100000,-0.100000)"
fill="#000000" stroke="none">
<path d="M2356 4528 c-28 -45 -96 -419 -96 -531 0 -20 -35 -20 -431 -1 -158 8
-180 -3 -199 -100 -7 -35 -5 -43 20 -68 27 -27 32 -28 132 -29 57 -1 128 -2
158 -4 30 -1 115 -3 188 -4 l132 -1 0 -302 c-1 -265 -3 -299 -14 -272 -17 39
-54 67 -276 217 -72 48 -153 84 -211 93 -33 6 -47 1 -111 -41 -40 -27 -125
-100 -188 -164 -64 -64 -140 -137 -169 -163 -52 -45 -54 -48 -48 -88 7 -51 50
-110 80 -110 33 0 61 22 252 194 l174 157 78 -40 c54 -28 108 -68 176 -131
103 -95 127 -110 181 -110 33 0 66 25 66 49 0 7 4 10 8 7 5 -3 9 -33 8 -68
l-1 -62 -148 -76 c-136 -69 -191 -107 -653 -450 -342 -254 -507 -382 -511
-397 -7 -31 2 -64 27 -91 17 -18 32 -22 77 -22 54 0 58 2 147 73 152 122 561
401 954 652 l103 65 -7 -118 -7 -118 27 -21 c14 -12 26 -23 26 -26 0 -2 -28
-8 -62 -11 -122 -14 -174 -31 -227 -76 -28 -24 -53 -51 -56 -61 -3 -10 -27
-36 -54 -58 -95 -80 -340 -420 -381 -528 -32 -87 -49 -167 -38 -187 12 -22 84
-57 119 -58 38 -1 67 26 79 76 12 48 25 71 98 185 l53 83 127 -124 c70 -68
161 -153 202 -188 41 -35 74 -67 73 -71 -2 -4 -27 -45 -56 -91 -191 -296 -466
-540 -797 -708 -91 -46 -111 -67 -117 -122 -4 -34 0 -49 17 -70 28 -37 70 -36
178 2 108 38 190 84 313 177 198 149 349 308 518 546 l104 146 96 -66 c53 -37
134 -95 181 -130 47 -35 105 -70 130 -80 25 -9 95 -49 155 -89 208 -138 481
-253 732 -309 123 -28 146 -28 328 -5 39 5 78 10 88 10 26 0 67 45 67 73 0 51
-14 56 -255 101 -127 24 -261 53 -298 65 -102 31 -326 131 -555 248 -269 136
-327 171 -454 270 l-107 83 54 113 c90 190 156 320 176 348 10 15 19 43 19 62
0 20 4 38 9 41 5 4 23 41 41 84 17 42 38 93 47 112 15 32 15 36 -7 78 -31 58
-100 117 -161 137 -50 17 -187 24 -225 11 -20 -6 -21 -4 -13 41 4 27 9 103 11
170 2 67 6 124 8 127 3 2 58 -22 123 -54 150 -74 374 -169 519 -221 82 -29
169 -73 315 -157 305 -176 300 -174 355 -168 103 11 141 54 105 119 -47 85
-122 133 -332 216 -55 21 -181 77 -280 124 -216 101 -402 179 -630 263 l-170
62 -1 65 -2 65 229 151 230 151 72 -36 c99 -49 168 -103 257 -196 56 -60 84
-81 111 -87 47 -11 103 8 142 48 29 28 29 31 15 53 -30 45 -137 155 -205 211
-60 48 -115 85 -288 190 -53 32 -85 39 -146 31 -43 -6 -65 -18 -142 -78 -51
-39 -131 -102 -180 -140 l-87 -68 2 233 3 233 30 2 c295 17 550 22 683 11 131
-10 163 -2 193 47 24 39 25 118 3 140 -11 11 -36 16 -82 17 -37 0 -78 2 -92 4
-124 14 -394 15 -554 1 -99 -9 -181 -14 -184 -11 -9 8 17 236 33 295 28 105
15 173 -44 223 -41 34 -85 36 -105 5z m247 -2299 c7 -12 -4 -53 -48 -165 -62
-160 -203 -464 -216 -464 -9 0 -160 129 -209 179 -20 20 -70 65 -113 101 -42
35 -77 67 -77 70 0 18 56 77 108 115 33 24 69 56 79 70 56 81 59 83 178 90 61
4 144 11 185 15 94 9 101 9 113 -11z"/>
</g>
</svg>
