<?xml version="1.0" standalone="no"?>
<!DOCTYPE svg PUBLIC "-//W3C//DTD SVG 20010904//EN"
 "http://www.w3.org/TR/2001/REC-SVG-20010904/DTD/svg10.dtd">
<svg version="1.0" xmlns="http://www.w3.org/2000/svg"
 width="480.000000pt" height="480.000000pt" viewBox="0 0 480.000000 480.000000"
 preserveAspectRatio="xMidYMid meet">
<metadata>
Created by potrace 1.11, written by Peter Selinger 2001-2013
</metadata>
<g transform="translate(0.000000,480.000000) scale(0.100000,-0.100000)"
fill="#000000" stroke="none">
<path d="M2413 4511 c-8 -13 -12 -69 -12 -163 -1 -203 -13 -329 -37 -360 l-19
-25 -26 28 c-19 20 -37 29 -58 29 -18 0 -31 5 -31 13 0 6 -8 59 -16 117 -8 58
-18 142 -21 187 -4 61 -9 83 -21 88 -43 16 -45 -27 -13 -265 23 -174 23 -171
-16 -239 -2 -2 -9 2 -17 8 -8 7 -21 11 -29 9 -8 -2 -43 33 -81 80 -37 45 -71
82 -76 82 -30 0 -7 -57 59 -143 32 -43 36 -55 37 -110 0 -34 4 -79 8 -99 4
-21 5 -38 2 -38 -3 0 -35 43 -72 96 -42 61 -72 94 -82 92 -28 -5 -23 -25 22
-91 24 -35 52 -79 61 -96 9 -18 26 -37 39 -42 18 -9 25 -22 30 -56 3 -25 3
-49 0 -55 -3 -5 -44 27 -90 72 -83 82 -106 92 -112 52 -3 -20 15 -41 142 -160
50 -48 53 -54 41 -95 l-7 -27 -79 75 c-43 41 -83 75 -89 75 -5 0 -10 -11 -10
-24 0 -16 28 -50 95 -115 113 -110 121 -122 100 -155 l-16 -24 -72 69 c-69 67
-102 82 -102 47 0 -9 39 -60 88 -112 57 -62 87 -102 87 -118 0 -13 7 -36 15
-52 l16 -30 -23 19 c-13 11 -46 41 -75 68 -47 46 -73 54 -73 23 0 -24 69 -103
115 -132 34 -22 45 -35 45 -54 0 -14 6 -37 14 -51 11 -21 11 -29 0 -43 -11
-16 -17 -10 -53 53 -48 82 -101 128 -101 87 0 -23 79 -160 105 -181 14 -12 25
-27 25 -34 0 -7 12 -41 27 -74 19 -43 24 -62 15 -65 -7 -2 -12 -13 -12 -25 0
-47 -16 -49 -45 -8 -28 42 -106 111 -123 111 -41 0 19 -97 119 -191 22 -20 39
-43 39 -51 0 -8 13 -27 29 -42 32 -31 45 -62 27 -69 -6 -2 -33 24 -61 59 -49
61 -80 79 -91 50 -8 -20 36 -82 91 -127 30 -25 58 -61 80 -106 19 -37 50 -85
69 -106 l35 -37 -7 -78 c-4 -42 -7 -176 -7 -297 0 -196 4 -312 20 -550 19
-290 26 -527 14 -520 -4 3 -30 47 -57 98 -27 50 -82 153 -122 227 -75 139
-113 190 -165 218 -46 24 -280 53 -335 41 -174 -39 -477 -221 -762 -458 -186
-154 -258 -225 -310 -306 -40 -61 -45 -91 -17 -108 13 -8 40 3 120 47 637 353
759 414 886 437 126 24 206 -5 325 -118 189 -179 238 -223 335 -306 57 -49
107 -97 113 -107 12 -23 60 -28 60 -7 0 54 735 1425 856 1597 41 58 141 186
222 285 146 178 148 180 190 183 25 2 80 -8 133 -23 76 -22 108 -38 206 -106
143 -99 219 -165 288 -247 142 -171 266 -494 300 -782 3 -19 9 -70 15 -113 5
-43 10 -92 10 -108 l0 -29 -42 21 c-77 40 -159 132 -426 484 -352 462 -446
570 -467 534 -4 -5 -9 -21 -11 -36 -3 -15 -9 -32 -14 -38 -5 -6 -42 -83 -84
-173 l-76 -163 -435 -539 c-335 -414 -460 -562 -540 -637 -102 -94 -122 -127
-89 -140 10 -4 37 16 81 61 36 36 69 66 73 66 4 0 195 224 424 498 l417 499
122 224 c67 124 131 241 142 262 11 20 23 36 28 34 18 -6 246 -285 470 -577
221 -286 241 -309 326 -373 106 -78 134 -84 151 -32 6 19 9 43 5 54 -3 10 -18
119 -34 242 -21 167 -35 240 -54 289 -14 36 -31 84 -37 108 -6 23 -45 109 -87
190 -94 182 -159 254 -378 421 -187 142 -258 173 -412 184 -61 4 -62 3 -105
-38 -24 -22 -140 -177 -258 -343 -229 -322 -200 -272 -620 -1049 -107 -199
-196 -361 -197 -360 -6 7 -13 114 -19 308 -3 125 -7 241 -9 259 -2 18 -6 137
-10 264 -4 127 -9 249 -11 271 -4 52 -5 294 -2 320 5 35 142 284 160 288 9 3
36 30 60 61 23 31 78 93 121 137 75 78 88 101 67 114 -12 7 -170 -142 -170
-160 0 -6 -20 -31 -45 -55 -52 -51 -57 -40 -20 43 17 41 34 61 57 73 18 9 57
39 86 65 30 27 57 49 62 49 4 0 29 26 54 57 40 48 45 58 31 65 -12 7 -34 -8
-93 -59 -42 -38 -95 -81 -117 -96 l-40 -27 -5 32 c-4 24 1 43 17 67 13 19 23
46 23 62 0 22 21 48 101 126 55 54 107 102 115 106 20 11 17 37 -3 37 -28 0
-73 -34 -139 -105 -33 -36 -65 -65 -70 -65 -5 0 -15 9 -21 19 -10 16 -9 27 3
58 11 25 14 53 11 85 -6 45 -4 48 26 67 18 11 49 38 68 59 19 22 58 56 86 76
58 41 67 57 49 81 -11 15 -20 10 -87 -45 -40 -34 -76 -65 -79 -69 -3 -3 -25
-22 -50 -42 -43 -35 -47 -36 -73 -23 -15 8 -27 17 -27 20 0 20 42 72 120 149
86 84 186 202 179 209 -2 2 -13 6 -25 10 -16 5 -35 -9 -95 -71 -41 -43 -88
-95 -104 -116 -25 -34 -30 -37 -41 -23 -8 11 -9 30 -3 59 4 23 8 45 9 49 0 4
8 15 18 25 38 37 189 209 211 241 18 25 21 36 12 45 -22 22 -68 -18 -197 -176
l-32 -39 -22 32 c-22 30 -22 33 -7 106 12 62 22 82 54 117 57 63 128 186 115
199 -18 18 -40 1 -85 -69 -25 -37 -57 -79 -72 -93 l-28 -25 6 25 c4 14 7 48 7
77 0 51 2 54 73 130 110 119 143 163 127 173 -20 12 -69 -30 -162 -138 -45
-53 -84 -90 -86 -84 -5 16 48 111 141 256 42 65 77 123 77 127 0 5 -9 9 -20 9
-27 0 -83 -73 -176 -230 -42 -72 -78 -130 -79 -130 -1 0 0 24 2 53 13 185 19
434 10 445 -13 17 -20 15 -34 -7z m-114 -588 c6 -21 11 -54 11 -75 l0 -36 -51
-4 c-50 -3 -52 -2 -67 29 -14 29 -14 34 2 58 9 14 21 23 25 20 5 -2 12 6 15
20 5 18 13 25 31 25 19 0 26 -7 34 -37z m164 12 c25 -5 27 -9 27 -58 0 -70 -9
-82 -61 -78 -26 1 -45 -3 -50 -11 -11 -18 -19 -6 -21 33 -2 50 35 129 59 124
10 -2 30 -6 46 -10z m-321 -120 c14 -30 22 -55 18 -55 -4 0 -21 3 -38 6 -26 5
-31 12 -36 46 -13 77 20 79 56 3z m152 -72 c4 -9 9 -43 13 -76 6 -55 5 -60
-11 -54 -10 4 -25 7 -34 7 -11 0 -23 15 -32 43 -19 54 -15 85 13 90 41 8 45 7
51 -10z m195 -18 c11 -11 11 -21 1 -63 -13 -49 -14 -50 -54 -54 -23 -3 -47 -6
-55 -9 -23 -6 -14 77 12 118 19 29 26 32 52 27 17 -3 36 -12 44 -19z m-334
-32 c32 -36 48 -93 36 -124 -9 -23 -10 -23 -26 15 -14 34 -19 38 -46 34 -23
-4 -28 -1 -25 11 2 9 7 33 11 54 7 44 18 46 50 10z m-4 -199 c30 -61 31 -78 2
-51 -10 8 -30 18 -44 22 -22 5 -26 12 -24 36 3 28 23 64 32 55 3 -3 18 -31 34
-62z m148 28 c11 -41 15 -87 13 -139 -2 -31 -3 -32 -29 -22 -14 5 -40 7 -57 3
-27 -6 -29 -5 -17 10 7 8 17 50 22 91 9 86 13 95 39 95 14 0 22 -11 29 -38z
m159 16 c10 -10 17 -10 31 -1 10 7 21 10 23 8 2 -2 1 -29 -2 -61 -5 -55 -7
-58 -45 -79 -22 -13 -54 -41 -71 -63 -34 -44 -49 -46 -33 -4 6 14 9 53 8 87
-4 77 20 124 62 125 8 0 21 -6 27 -12z m-331 -155 c52 -67 63 -92 63 -134 0
-37 -2 -40 -16 -28 -9 7 -20 23 -25 36 -5 13 -17 23 -28 23 -15 0 -23 12 -35
54 -15 52 -13 86 4 86 5 0 21 -17 37 -37z m383 -87 c0 -27 -50 -130 -76 -157
l-29 -30 -6 58 c-6 51 -4 64 22 114 15 32 34 59 41 62 14 5 48 -28 48 -47z
m-227 3 c36 -16 67 -93 67 -164 0 -54 -13 -61 -56 -31 -29 19 -41 23 -51 14
-22 -18 -26 -1 -14 58 6 32 11 75 11 96 0 41 5 44 43 27z m-151 -106 c13 -21
30 -54 38 -73 7 -19 19 -49 27 -67 10 -21 12 -37 6 -48 -8 -14 -13 -11 -34 20
-15 22 -35 38 -52 42 -61 13 -80 163 -21 163 6 0 22 -17 36 -37z m398 -95 c12
-14 20 -35 20 -57 0 -62 -10 -81 -44 -88 -18 -4 -49 -26 -78 -55 l-47 -48 4
33 c13 105 42 180 83 214 33 28 36 28 62 1z m-234 -63 c21 -32 34 -101 27
-137 -4 -23 -10 -26 -39 -25 l-34 2 0 61 c0 72 9 124 21 124 5 0 16 -11 25
-25z m-158 -59 c40 -59 90 -218 63 -201 -6 3 -11 12 -11 19 0 7 -22 40 -49 74
-38 47 -49 69 -47 89 2 16 4 34 5 41 2 21 15 13 39 -22z m382 -95 c0 -13 8
-21 23 -23 19 -3 22 -8 19 -43 -6 -65 -13 -70 -86 -70 -59 0 -66 2 -66 20 0
37 70 135 97 135 7 0 13 -9 13 -19z m-354 -143 l52 -85 -1 -102 c-1 -96 -8
-123 -20 -83 -3 9 -18 49 -32 87 -15 39 -29 81 -31 95 -3 14 -16 46 -30 73
-19 35 -24 55 -19 78 4 16 12 28 18 26 6 -2 35 -42 63 -89z m154 40 c25 -55
25 -131 0 -187 -11 -24 -20 -53 -20 -65 -1 -11 -7 -46 -15 -76 -15 -54 -15
-53 -11 77 3 76 1 135 -5 138 -23 15 -2 155 23 155 5 0 18 -19 28 -42z m200
-112 c0 -13 -14 -63 -31 -110 -28 -76 -34 -86 -56 -86 -26 0 -83 -29 -83 -42
0 -4 -4 -8 -9 -8 -20 0 48 245 73 262 6 4 32 8 59 8 43 0 47 -2 47 -24z m-367
-236 c-8 -8 -53 53 -62 85 -15 56 2 48 35 -16 17 -35 30 -66 27 -69z m287 -28
c0 -10 -3 -22 -7 -26 -5 -4 -8 -26 -8 -49 -1 -52 -62 -169 -76 -145 -14 24 -4
130 16 168 33 65 75 94 75 52z m-190 -43 c0 -6 -4 -7 -10 -4 -5 3 -10 11 -10
16 0 6 5 7 10 4 6 -3 10 -11 10 -16z m-55 -46 c24 -36 34 -93 17 -93 -26 0
-67 80 -57 111 8 26 10 25 40 -18z m101 -55 c-3 -13 -6 -33 -6 -45 0 -13 -5
-23 -11 -23 -9 0 -9 43 0 88 1 1 6 2 12 2 7 0 9 -9 5 -22z m18 -373 c11 -380
16 -529 21 -645 2 -63 7 -227 10 -365 4 -137 8 -269 10 -292 3 -24 2 -49 -1
-58 -9 -21 -26 -7 -19 15 3 11 0 32 -8 47 -9 18 -17 78 -21 168 -8 182 -16
331 -21 430 -26 496 -27 902 -2 933 19 24 24 -13 31 -233z m-442 -719 c65 -38
112 -100 194 -256 39 -74 85 -160 103 -192 17 -31 41 -94 52 -140 12 -45 29
-92 39 -103 10 -11 21 -36 25 -55 l7 -35 -29 31 c-32 36 -423 383 -486 432
-62 48 -162 76 -250 70 -91 -7 -253 -66 -392 -145 -184 -104 -249 -139 -417
-227 -93 -48 -168 -83 -168 -79 0 16 81 106 153 171 281 252 611 475 802 539
62 21 84 23 195 20 114 -4 129 -6 172 -31z"/>
<path d="M1840 1106 c0 -17 143 -248 166 -267 11 -9 18 -9 26 -1 14 14 1 39
-91 177 -61 93 -101 129 -101 91z"/>
<path d="M1495 1081 c-137 -48 -290 -132 -527 -289 -71 -46 -128 -90 -128 -98
0 -31 61 -7 154 60 91 65 293 181 404 232 102 47 284 81 316 59 30 -22 46 -18
46 9 0 36 -21 46 -106 51 -68 4 -90 1 -159 -24z"/>
<path d="M1627 1004 c-18 -18 -8 -26 183 -149 34 -22 121 -79 194 -126 91 -59
138 -84 147 -78 10 6 7 16 -17 46 -35 44 -125 107 -254 178 -50 28 -114 67
-141 88 -50 38 -98 55 -112 41z"/>
<path d="M3514 2272 c-106 -84 -222 -226 -210 -257 11 -29 34 -15 80 48 25 35
78 91 116 126 81 72 96 94 76 110 -11 9 -24 3 -62 -27z"/>
<path d="M3588 2200 c-25 -17 -58 -49 -74 -73 -36 -54 -443 -700 -500 -793
-44 -72 -49 -108 -15 -102 16 3 45 49 348 551 116 193 184 295 221 332 30 30
60 55 67 55 7 0 40 -27 73 -60 64 -64 92 -75 92 -37 -1 33 -126 157 -160 157
-3 0 -27 -14 -52 -30z"/>
<path d="M4050 2041 c0 -6 16 -45 36 -88 20 -43 53 -123 74 -178 38 -103 76
-183 115 -245 12 -19 27 -52 34 -73 11 -32 35 -57 55 -57 3 0 6 16 6 36 0 24
-15 61 -48 117 -27 45 -74 147 -107 227 -68 170 -79 194 -114 237 -25 32 -51
43 -51 24z"/>
<path d="M3890 1917 c0 -7 28 -37 61 -67 83 -73 127 -135 294 -415 79 -132
152 -248 164 -259 21 -19 51 -16 51 5 0 6 -22 41 -48 78 -63 87 -100 147 -157
256 -60 113 -120 204 -181 275 -25 30 -53 65 -61 77 -30 46 -123 84 -123 50z"/>
<path d="M3092 1642 c-42 -51 -210 -280 -259 -352 -49 -72 -102 -184 -163
-345 -75 -196 -82 -221 -65 -235 20 -16 31 -6 49 43 8 23 32 87 52 142 63 175
144 321 304 549 82 118 150 219 150 225 0 5 -7 11 -14 14 -10 4 -29 -11 -54
-41z"/>
<path d="M2885 1095 c-71 -97 -84 -130 -52 -130 24 0 160 207 144 217 -7 4
-14 8 -17 8 -3 0 -36 -43 -75 -95z"/>
</g>
</svg>
