<?xml version="1.0" standalone="no"?>
<!DOCTYPE svg PUBLIC "-//W3C//DTD SVG 20010904//EN"
 "http://www.w3.org/TR/2001/REC-SVG-20010904/DTD/svg10.dtd">
<svg version="1.0" xmlns="http://www.w3.org/2000/svg"
 width="60.000000pt" height="60.000000pt" viewBox="0 0 60.000000 60.000000"
 preserveAspectRatio="xMidYMid meet">
<metadata>
Created by potrace 1.10, written by Peter Selinger 2001-2011
</metadata>
<g transform="translate(0.000000,60.000000) scale(0.100000,-0.100000)"
fill="#000000" stroke="none">
<path d="M277 499 l6 -39 -63 0 c-56 0 -61 -2 -49 -16 10 -12 24 -15 61 -10
46 6 48 6 48 -19 0 -24 -2 -25 -61 -25 -51 0 -59 -2 -50 -14 8 -9 26 -12 62
-8 49 5 51 4 47 -19 -3 -21 -10 -25 -63 -32 -33 -4 -68 -6 -77 -3 -10 2 -18 0
-18 -5 0 -14 47 -22 85 -15 51 10 45 -8 -25 -76 -65 -64 -66 -75 -2 -28 49 35
50 35 82 10 l25 -19 -20 -21 c-12 -11 -54 -39 -95 -61 -41 -22 -66 -37 -55
-34 11 4 34 11 52 16 18 5 55 25 83 44 29 19 56 35 61 35 5 0 40 -22 78 -50
61 -44 72 -49 105 -43 44 7 39 13 -29 38 -40 15 -114 54 -134 71 -2 2 14 24
35 49 31 38 35 48 23 56 -8 5 -25 7 -38 4 -77 -19 -83 -19 -79 1 3 17 17 20
111 28 59 5 107 12 107 17 0 13 -27 14 -122 4 -57 -6 -58 -6 -58 18 0 24 4 26
65 32 36 4 65 11 65 16 0 6 -28 7 -65 3 -61 -6 -65 -5 -65 14 0 25 18 32 82
32 35 0 48 4 45 13 -4 12 -69 12 -110 0 -16 -4 -18 0 -15 27 2 26 -1 34 -18
41 -21 7 -22 5 -17 -32z m54 -273 l-33 -34 -34 20 c-46 27 -32 42 43 46 l58 3
-34 -35z"/>
</g>
</svg>
