<?xml version="1.0" standalone="no"?>
<!DOCTYPE svg PUBLIC "-//W3C//DTD SVG 20010904//EN"
 "http://www.w3.org/TR/2001/REC-SVG-20010904/DTD/svg10.dtd">
<svg version="1.0" xmlns="http://www.w3.org/2000/svg"
 width="1024.000000pt" height="1024.000000pt" viewBox="0 0 1024.000000 1024.000000"
 preserveAspectRatio="xMidYMid meet">
<metadata>
Created by potrace 1.10, written by Peter Selinger 2001-2011
</metadata>
<g transform="translate(0.000000,1024.000000) scale(0.100000,-0.100000)"
fill="#000000" stroke="none">
<path d="M4130 9351 c-17 -32 -45 -71 -61 -87 l-29 -28 0 57 c0 46 -4 58 -22
71 -31 22 -41 20 -77 -13 -28 -26 -31 -35 -31 -89 0 -89 31 -178 85 -241 25
-29 48 -65 51 -79 4 -15 15 -41 25 -57 17 -29 17 -33 -1 -96 -10 -36 -41 -110
-69 -163 -49 -94 -54 -99 -110 -127 -71 -36 -152 -114 -184 -180 -14 -26 -32
-55 -41 -64 -9 -9 -19 -28 -22 -43 -4 -15 -29 -72 -56 -126 -53 -106 -213
-559 -243 -688 l-18 -77 26 -107 c15 -59 35 -117 45 -128 241 -273 233 -263
232 -308 -1 -24 1 -64 5 -90 9 -54 -9 -112 -50 -168 -13 -18 -32 -56 -41 -84
-10 -28 -25 -67 -35 -86 -10 -19 -49 -196 -88 -393 -63 -314 -71 -371 -71
-470 0 -62 4 -126 8 -142 5 -17 3 -356 -4 -767 l-13 -737 -140 -703 c-77 -387
-155 -769 -174 -849 -46 -195 -80 -429 -81 -564 -2 -200 15 -446 34 -490 9
-22 25 -74 35 -115 10 -41 31 -94 46 -117 16 -23 33 -53 39 -67 26 -69 147
-200 235 -255 146 -92 288 -101 725 -47 251 31 301 41 575 111 415 106 576
173 860 361 340 224 445 331 1064 1071 266 319 267 320 497 201 247 -127 349
-154 560 -146 101 4 149 11 219 32 113 34 278 112 359 170 70 50 178 160 223
226 38 56 153 281 153 298 0 22 42 114 75 167 58 91 211 240 357 347 76 55
140 104 142 107 2 3 7 26 11 51 6 40 3 49 -19 73 -14 15 -35 27 -47 27 -12 0
-140 -58 -283 -129 -277 -137 -446 -242 -581 -357 -129 -112 -165 -139 -265
-201 l-95 -60 -166 -13 c-215 -16 -217 -15 -310 144 -43 74 -163 187 -237 223
-52 25 -67 28 -162 28 -130 -1 -221 -27 -324 -96 -51 -34 -222 -198 -606 -584
l-535 -536 -264 -191 c-250 -181 -278 -199 -575 -355 -271 -142 -325 -167
-422 -193 -127 -34 -247 -40 -330 -15 -71 21 -166 85 -212 144 -36 45 -42 61
-63 173 -20 100 -24 153 -23 288 0 91 6 194 12 229 6 35 59 199 117 365 58
165 186 551 286 856 l180 555 49 390 48 390 7 760 c6 801 13 974 44 1134 23
114 37 147 98 216 59 66 130 212 149 305 12 55 14 105 10 185 -5 102 -14 140
-119 509 l-114 399 -54 75 c-58 82 -125 135 -192 153 -23 6 -48 13 -55 15 -10
3 -6 15 13 46 50 81 68 132 73 206 6 87 -16 179 -58 245 -32 50 -30 83 5 132
32 43 128 206 124 209 -70 53 -91 49 -129 -23z m76 -1066 l89 -105 97 -353
c106 -381 118 -453 99 -577 -12 -78 -8 -70 -191 -337 -65 -94 -76 -160 -89
-508 -6 -165 -11 -370 -11 -455 l0 -155 -38 -29 c-20 -16 -50 -45 -67 -64
l-29 -35 -78 84 c-75 80 -79 83 -93 65 -21 -28 -20 -36 29 -140 l44 -94 -32
-31 -32 -31 -27 123 c-15 67 -27 129 -27 137 0 8 22 39 48 69 l48 53 72 -62
c40 -34 78 -60 86 -57 7 3 16 18 20 33 6 21 -3 43 -43 109 -28 45 -51 86 -51
90 0 4 10 21 22 37 l21 31 -24 18 c-28 22 -34 22 -59 9 -17 -9 -21 -6 -26 16
-6 21 8 48 82 156 l88 130 -24 19 c-36 28 -66 17 -132 -48 -36 -36 -66 -57
-82 -58 -33 -1 -64 -31 -72 -70 -4 -23 4 -55 30 -121 20 -49 37 -91 38 -94 1
-3 -17 -25 -40 -49 l-41 -43 -16 38 c-9 22 -28 51 -42 67 l-27 27 31 0 c31 0
45 10 56 43 5 14 -5 25 -43 49 -28 17 -50 33 -50 35 0 3 18 35 40 73 22 38 40
72 40 77 0 5 -14 17 -30 27 -31 17 -31 17 -65 -8 l-34 -27 31 73 c17 40 41 98
55 128 32 72 39 235 12 290 -17 36 -19 41 -19 62 0 6 -52 63 -115 127 -175
177 -178 200 -76 526 38 121 76 234 85 252 9 17 24 69 32 115 9 46 24 92 34
103 9 11 22 34 28 51 18 55 122 212 160 242 74 59 104 72 163 72 l56 0 89
-105z m-591 -2244 c11 -5 25 -4 32 1 13 10 14 6 39 -145 l16 -99 -43 -63 -44
-64 -39 79 -40 79 18 98 c26 135 23 129 61 114z m166 -520 l33 -114 -34 -28
c-19 -16 -37 -26 -41 -21 -3 4 -19 42 -34 84 l-27 77 27 66 c16 36 32 62 36
58 4 -4 22 -59 40 -122z m414 -49 c-4 -68 -9 -122 -10 -120 -2 2 -21 49 -43
104 l-39 101 46 37 c56 46 56 47 46 -122z m-669 61 c-15 -28 -15 -27 -15 27 0
54 0 55 15 28 13 -25 13 -31 0 -55z m17 -111 c9 -8 24 -11 34 -8 15 5 24 -9
50 -76 l32 -81 -67 -86 -67 -86 -7 85 c-3 47 -8 139 -11 204 -4 100 -3 114 8
90 6 -16 19 -35 28 -42z m502 -64 c24 -86 35 -109 66 -140 20 -21 46 -38 58
-38 21 0 22 -4 19 -67 -3 -65 -4 -68 -26 -65 -14 2 -38 -8 -58 -23 -20 -15
-39 -23 -44 -19 -4 5 -33 94 -65 198 l-56 189 32 33 c18 19 36 34 39 34 4 0
19 -46 35 -102z m-131 -278 c48 -161 54 -187 41 -199 -8 -8 -16 -13 -18 -10
-2 2 -34 81 -72 175 l-68 171 24 32 c12 17 26 28 30 24 4 -5 32 -91 63 -193z
m-96 -360 c-18 -19 -51 -54 -72 -77 l-40 -43 -28 45 c-16 26 -28 59 -28 78 0
36 -22 63 -54 69 -27 4 -68 -66 -59 -102 3 -14 26 -60 50 -103 51 -87 52 -79
-20 -161 l-34 -40 -6 199 c-4 109 -7 233 -7 274 0 75 1 77 30 95 17 9 58 51
92 92 l62 74 73 -182 73 -182 -32 -36z m357 63 c-4 -92 -9 -163 -12 -158 -2 6
-16 58 -32 117 l-28 106 36 55 c20 31 38 54 40 52 2 -2 0 -80 -4 -172z m-152
-98 l6 -30 -14 30 c-8 17 -14 41 -14 55 l1 25 7 -25 c4 -14 11 -38 14 -55z
m-86 -127 l33 -83 -67 -67 -67 -68 -29 63 c-15 34 -29 69 -30 78 -2 16 108
159 122 159 3 0 21 -37 38 -82z m218 -100 c-49 -443 -69 -521 -274 -1086 -181
-500 -336 -968 -361 -1091 l-17 -84 -12 48 c-13 52 -45 120 -69 147 -14 16
-11 25 32 95 26 42 54 86 62 99 14 20 13 23 -12 43 -36 28 -51 27 -82 -10 -30
-36 -42 -47 -94 -90 -30 -25 -38 -38 -38 -64 0 -23 -17 -61 -57 -124 -31 -50
-58 -90 -59 -88 -2 2 40 172 93 379 l96 375 29 -16 c15 -9 28 -24 28 -34 0
-24 70 -227 88 -255 8 -13 28 -30 45 -38 43 -23 59 -4 58 74 0 65 -18 117 -56
168 -14 18 -25 46 -25 63 0 19 -8 36 -24 49 l-25 19 98 97 c89 88 100 96 131
94 35 -3 35 -3 46 52 8 41 29 82 77 155 37 55 67 105 67 112 0 20 -47 45 -70
38 -12 -4 -41 -34 -65 -67 l-44 -60 -51 103 -52 102 23 48 c17 37 47 69 128
137 l107 89 17 -24 c24 -32 69 -31 91 2 15 22 15 28 0 65 -16 40 -16 41 11 82
28 42 28 42 -17 68 -9 6 -24 7 -32 4 -12 -4 -21 6 -36 41 l-20 47 39 47 c64
75 114 119 141 123 20 2 26 9 28 33 6 68 12 78 55 84 4 0 5 -23 2 -51z m-405
-193 c0 -9 -233 -225 -243 -225 -1 0 1 35 5 78 3 42 7 87 7 99 1 13 6 21 14
18 6 -2 43 34 82 80 l70 85 32 -62 c18 -35 32 -68 33 -73z m70 -163 l13 -33
-135 -137 c-74 -75 -138 -144 -140 -152 -4 -12 -12 -9 -37 14 -25 24 -31 38
-31 71 0 34 4 44 23 52 12 6 80 61 152 122 71 60 133 107 136 103 3 -4 12 -22
19 -40z m-304 -860 c-66 -64 -121 -112 -123 -106 -4 12 55 385 62 392 2 2 19
15 37 27 l33 23 55 -110 55 -109 -119 -117z m5091 68 c-62 -66 -86 -101 -135
-202 -33 -68 -68 -144 -78 -170 -18 -46 -19 -46 -46 -32 l-28 15 31 61 31 62
-22 18 c-32 26 -39 23 -97 -27 -28 -25 -60 -45 -71 -45 -30 0 -47 -26 -35 -53
11 -23 10 -26 -27 -90 l-22 -37 -31 24 -31 24 -37 -18 c-22 -12 -64 -54 -105
-105 -37 -47 -68 -85 -70 -85 -1 0 -33 14 -70 31 -54 23 -73 28 -90 20 -18 -8
-21 -7 -17 8 3 11 -5 24 -20 34 -25 16 -27 15 -87 -33 -35 -28 -64 -50 -67
-50 -2 0 -27 12 -55 26 -40 20 -56 24 -73 16 -19 -9 -27 -6 -50 18 l-28 29 41
49 c64 76 63 75 118 51 83 -36 145 -49 243 -49 104 0 188 18 265 57 55 27 86
50 211 154 142 117 503 378 524 379 1 0 -31 -36 -72 -80z m-1627 -97 c0 -15
-34 -43 -52 -43 -38 0 -60 -20 -53 -47 4 -19 -1 -36 -21 -64 -15 -22 -29 -39
-33 -39 -3 0 -17 9 -31 20 -30 23 -40 24 -64 7 -18 -13 -18 -16 -1 -66 13 -41
14 -55 5 -66 -8 -9 -10 -28 -6 -50 8 -41 25 -45 81 -18 32 15 37 15 51 1 14
-14 9 -21 -50 -72 -68 -60 -86 -98 -66 -135 18 -35 59 -26 125 30 53 44 64 49
93 44 27 -5 41 -1 68 20 19 15 42 37 51 51 14 23 14 26 -2 44 -10 11 -26 22
-36 25 -21 7 -109 84 -109 95 0 4 8 18 19 31 15 19 22 21 33 11 8 -6 34 -19
59 -27 34 -12 49 -13 70 -4 49 20 46 39 -17 96 l-57 51 22 37 c17 29 19 40 10
51 -17 21 10 18 38 -4 26 -19 212 -243 213 -254 0 -4 -15 -14 -34 -22 -19 -8
-53 -31 -76 -52 -23 -21 -49 -39 -58 -41 -27 -3 -53 -43 -45 -67 4 -12 6 -40
5 -63 -2 -34 2 -45 24 -62 31 -24 64 -28 64 -7 0 16 13 21 78 31 33 5 42 4 42
-7 0 -8 21 -29 46 -47 30 -22 43 -38 40 -48 -17 -43 -16 -60 5 -86 29 -38 70
-34 84 8 5 17 18 36 27 43 9 7 38 44 65 84 42 62 49 68 58 52 41 -74 123 -118
208 -112 34 2 44 8 57 32 21 40 103 117 114 106 5 -5 4 -22 -3 -41 -18 -52
-14 -85 15 -108 l25 -20 -52 -30 c-29 -16 -95 -44 -148 -62 -88 -30 -109 -33
-253 -37 -245 -7 -331 15 -458 118 -99 80 -136 94 -255 95 -159 0 -172 -9
-400 -276 -200 -236 -729 -807 -828 -896 -247 -220 -468 -337 -908 -479 l-294
-94 -344 -55 c-189 -30 -358 -55 -376 -55 -27 0 -277 50 -329 66 -28 9 -103
81 -148 142 -38 51 -109 190 -124 242 -7 25 -7 25 15 6 18 -16 25 -17 46 -8
14 6 25 15 25 19 0 5 7 16 15 27 13 18 16 16 63 -25 47 -42 48 -45 34 -67 -18
-27 -27 -28 -60 -1 l-27 20 -17 -21 c-16 -20 -15 -23 33 -97 75 -115 212 -208
368 -248 59 -15 64 -15 82 1 26 24 24 41 -8 61 -16 9 -30 18 -32 20 -2 1 8 18
23 37 24 32 29 34 55 25 15 -6 41 -23 56 -39 35 -37 69 -38 91 -5 26 40 -9
103 -72 130 -37 15 -39 20 -21 52 12 21 15 19 95 -53 70 -62 86 -73 102 -64
41 22 34 45 -45 150 -65 86 -74 103 -65 120 13 23 13 23 155 8 117 -12 117
-12 204 -90 l52 -47 -103 -82 c-57 -45 -105 -84 -106 -85 -2 -1 2 -19 9 -38 9
-24 19 -36 32 -36 11 0 71 38 135 85 l116 85 39 -45 c78 -91 167 -103 167 -22
0 21 32 70 124 190 68 89 144 182 169 206 42 41 47 43 86 36 47 -8 57 -18 36
-35 -9 -8 -29 -10 -51 -7 -41 7 -94 -15 -94 -38 0 -15 23 -41 42 -47 9 -3 4
-16 -15 -41 -29 -38 -35 -78 -14 -95 6 -5 71 -13 143 -17 110 -6 132 -4 143 9
22 26 9 58 -29 72 -34 13 -33 13 25 8 79 -8 129 12 151 60 28 57 17 66 -83 66
-52 0 -83 4 -77 9 5 5 90 11 190 13 l181 3 53 48 c41 37 59 47 76 43 19 -5 33
7 88 76 35 46 85 100 110 121 39 32 44 40 34 56 -11 18 -8 32 14 63 10 14 8
20 -13 37 -13 11 -33 20 -45 21 -19 0 -90 -41 -104 -59 -3 -4 -12 -16 -20 -27
-8 -12 -28 -24 -44 -28 -27 -7 -28 -6 -23 21 3 16 23 59 44 96 l38 67 63 0
c35 0 71 4 80 9 15 8 17 3 17 -37 0 -42 3 -48 29 -61 41 -19 53 -9 110 97 48
91 49 92 87 92 65 0 97 64 44 88 l-26 12 36 63 c19 35 35 71 35 79 0 13 9 14
58 6 31 -4 67 -10 80 -13 17 -4 34 7 76 47 52 52 166 212 166 234 0 6 -15 19
-34 29 -33 18 -33 18 -68 -8 -31 -24 -68 -36 -68 -22 0 2 8 21 17 40 l17 36
61 -7 c111 -15 138 -12 152 16 17 34 7 42 -92 78 -44 16 -80 33 -80 40 0 6 16
21 35 34 63 42 44 108 -30 108 -40 0 -57 -14 -84 -68 -12 -23 -22 -32 -32 -28
-9 3 -25 1 -37 -4 -53 -26 405 401 462 429 60 31 171 53 171 34z m1332 -411
c16 -6 13 -14 -19 -64 -29 -44 -40 -55 -50 -46 -17 14 -16 25 7 76 19 42 29
47 62 34z m-209 -44 c-2 -4 -10 -5 -18 -2 -11 5 -12 10 -2 25 11 18 12 18 18
1 4 -9 5 -20 2 -24z m-1786 -45 c-4 -20 1 -35 15 -49 19 -22 19 -22 -2 -65
-13 -24 -24 -45 -25 -47 -2 -2 -26 8 -54 23 -38 19 -50 29 -44 40 12 20 103
125 110 125 3 0 3 -12 0 -27z m1858 -113 c-10 -11 -22 -20 -27 -20 -5 0 -4 9
2 20 6 11 18 20 27 20 14 0 14 -2 -2 -20z m-1949 -116 c58 -52 82 -67 114 -71
41 -6 50 -21 31 -52 -8 -13 -34 -9 -172 25 l-162 39 54 62 c30 34 56 62 58 63
1 0 36 -30 77 -66z m-165 -175 l69 -51 -49 -61 c-49 -62 -69 -74 -126 -76 -16
-1 -43 -12 -60 -25 -27 -21 -28 -26 -17 -50 7 -17 22 -29 41 -32 l30 -6 -17
-35 -17 -35 -7 30 c-7 26 -14 31 -48 37 l-40 7 55 78 c30 43 55 82 55 87 0 4
-12 16 -27 25 l-28 16 -92 -89 c-51 -49 -96 -89 -101 -89 -4 0 -15 6 -24 13
-14 10 6 32 146 159 88 81 167 147 175 147 7 1 45 -22 82 -50z m-2686 -109
c14 -40 25 -81 25 -89 0 -23 -88 -151 -104 -151 -26 0 -48 -37 -46 -77 2 -29
-12 -69 -60 -168 -78 -164 -84 -182 -65 -212 11 -17 25 -23 50 -23 32 0 37 4
64 58 17 31 30 50 31 42 0 -8 6 -27 14 -41 13 -26 10 -31 -65 -139 -56 -81
-79 -122 -79 -144 l-1 -31 -14 33 c-17 39 -40 515 -29 591 5 33 39 101 122
243 64 109 120 194 124 190 4 -4 19 -41 33 -82z m108 -492 c-23 -26 -28 -23
-47 25 -9 23 -27 55 -40 72 l-24 29 57 114 56 113 7 -168 c6 -145 4 -170 -9
-185z m2126 266 c11 -29 9 -38 -28 -113 -49 -96 -53 -140 -16 -169 24 -19 25
-21 6 -27 -45 -14 -31 -82 19 -91 55 -12 34 -29 -30 -26 -74 5 -117 -16 -100
-48 15 -28 13 -34 -23 -53 -31 -17 -37 -17 -105 -2 -40 9 -72 19 -72 21 0 3
25 41 55 87 30 45 55 87 55 93 0 20 -46 37 -74 28 -14 -5 -58 -49 -99 -99 -72
-88 -74 -90 -113 -87 -21 2 -40 5 -42 6 -1 2 5 20 15 41 17 36 17 37 -7 55
-14 10 -23 21 -20 23 3 2 66 45 141 95 l136 90 12 -34 c31 -85 174 -123 197
-52 6 19 -3 32 -62 85 l-68 62 24 19 c14 11 59 47 100 80 41 33 78 57 81 54 3
-4 11 -21 18 -38z m-2219 -352 c0 -9 -12 -4 -31 12 -24 21 -34 24 -50 16 -23
-13 -24 -8 -3 31 l15 31 34 -39 c19 -21 34 -44 35 -51z m186 -104 c13 -27 22
-48 19 -48 -3 0 -23 11 -45 25 -47 30 -66 24 -79 -23 -9 -30 -7 -38 7 -48 58
-42 58 -35 7 -97 -29 -35 -52 -54 -59 -49 -51 32 -96 66 -96 71 0 4 28 39 63
77 34 38 80 91 101 117 43 53 40 54 82 -25z m1276 -45 c-98 -108 -142 -150
-142 -137 0 5 -12 17 -27 26 -26 14 -31 14 -65 -1 -20 -9 -78 -53 -128 -98
l-91 -83 -54 36 c-30 20 -55 38 -55 39 0 1 73 31 163 66 98 38 223 97 317 150
85 48 157 88 159 88 2 1 -33 -38 -77 -86z m-1114 -285 c4 -8 -36 -88 -44 -88
-3 0 -41 23 -84 51 -89 56 -87 49 -32 132 l25 37 66 -62 c36 -35 67 -66 69
-70z m826 -45 c-45 -56 -65 -69 -70 -48 -2 9 100 105 112 105 3 0 -16 -26 -42
-57z m-1012 -89 c43 -25 78 -48 78 -51 0 -3 -11 -18 -23 -33 l-24 -28 -76 49
c-43 27 -77 51 -77 54 0 9 32 55 38 55 3 0 41 -21 84 -46z"/>
<path d="M4124 7979 c-18 -20 -28 -100 -14 -112 3 -2 33 -7 68 -10 61 -5 63
-4 77 23 8 16 15 40 15 54 0 57 -105 90 -146 45z"/>
<path d="M3782 7933 c-42 -60 -36 -114 17 -143 26 -14 85 14 100 47 28 61 3
109 -61 120 -31 4 -38 1 -56 -24z"/>
</g>
</svg>
