<?xml version="1.0" standalone="no"?>
<!DOCTYPE svg PUBLIC "-//W3C//DTD SVG 20010904//EN"
 "http://www.w3.org/TR/2001/REC-SVG-20010904/DTD/svg10.dtd">
<svg version="1.0" xmlns="http://www.w3.org/2000/svg"
 width="1024.000000pt" height="1024.000000pt" viewBox="0 0 1024.000000 1024.000000"
 preserveAspectRatio="xMidYMid meet">
<metadata>
Created by potrace 1.10, written by Peter Selinger 2001-2011
</metadata>
<g transform="translate(0.000000,1024.000000) scale(0.100000,-0.100000)"
fill="#000000" stroke="none">
<path d="M3303 9243 c-30 -6 -68 -61 -64 -93 1 -14 40 -77 85 -140 46 -63 98
-144 116 -180 92 -182 206 -293 360 -349 67 -24 149 -41 196 -41 33 0 37 -3
61 -57 34 -73 35 -170 5 -259 -61 -177 -27 -344 97 -476 50 -53 61 -60 104
-65 26 -3 47 -8 47 -12 0 -3 -21 -17 -47 -31 -168 -88 -409 -242 -588 -375
-443 -327 -727 -645 -904 -1009 -58 -119 -78 -175 -97 -274 -69 -359 153 -746
498 -868 28 -10 145 -21 343 -34 165 -11 343 -25 396 -31 93 -11 100 -11 192
15 231 66 451 96 699 96 l166 0 60 -65 c113 -123 172 -278 172 -448 0 -73 -16
-173 -85 -517 -46 -235 -120 -640 -164 -901 -75 -449 -81 -491 -102 -799 -36
-536 -20 -770 69 -1042 47 -141 87 -206 192 -308 190 -185 403 -248 693 -205
207 31 365 83 531 175 393 218 666 603 747 1056 20 109 21 146 18 454 -6 469
-3 659 10 786 11 100 34 256 47 312 10 49 324 346 589 559 220 176 487 366
678 483 143 86 174 141 127 218 -34 55 -62 59 -157 18 -136 -57 -213 -108
-553 -365 -179 -134 -390 -294 -470 -354 -80 -60 -162 -126 -183 -146 -121
-114 -243 -368 -291 -606 -43 -216 -45 -357 -10 -669 40 -351 28 -513 -52
-756 -19 -58 -54 -141 -77 -185 -24 -44 -58 -117 -77 -162 -28 -69 -48 -98
-118 -173 -173 -185 -415 -340 -644 -412 -95 -29 -275 -32 -388 -5 -202 49
-350 176 -416 358 -28 78 -45 267 -51 560 -9 444 29 882 118 1369 42 231 70
348 143 603 36 122 72 270 80 328 31 205 16 431 -40 639 -64 236 -203 389
-395 435 -131 31 -209 23 -637 -66 l-394 -82 -313 37 c-308 36 -373 49 -461
94 -69 35 -149 108 -198 179 -61 90 -75 166 -65 348 l8 130 60 120 c112 224
213 356 447 585 264 257 503 444 804 625 171 103 473 253 652 324 170 68 640
227 741 251 203 49 455 48 657 -2 156 -38 404 -151 474 -216 43 -41 112 -142
146 -214 94 -200 75 -450 -51 -702 -65 -128 -115 -194 -243 -321 -257 -255
-551 -457 -896 -615 -379 -174 -415 -200 -390 -276 6 -19 25 -48 42 -64 26
-27 36 -30 88 -30 68 0 160 37 370 147 477 252 889 561 1074 807 193 257 311
589 293 830 -16 211 -108 397 -288 578 -197 198 -432 302 -742 329 l-132 11
-375 -80 c-370 -79 -381 -82 -678 -189 l-303 -109 -61 30 c-55 27 -72 31 -166
33 -94 3 -108 5 -130 25 -42 40 -44 51 -20 160 30 141 30 317 -1 443 -36 148
-32 145 -296 255 -271 113 -291 128 -339 263 -48 138 -115 220 -232 288 -50
28 -64 31 -111 22z"/>
</g>
</svg>
