<?xml version="1.0" standalone="no"?>
<!DOCTYPE svg PUBLIC "-//W3C//DTD SVG 20010904//EN"
 "http://www.w3.org/TR/2001/REC-SVG-20010904/DTD/svg10.dtd">
<svg version="1.0" xmlns="http://www.w3.org/2000/svg"
 width="1024.000000pt" height="1024.000000pt" viewBox="0 0 1024.000000 1024.000000"
 preserveAspectRatio="xMidYMid meet">
<metadata>
Created by potrace 1.10, written by Peter Selinger 2001-2011
</metadata>
<g transform="translate(0.000000,1024.000000) scale(0.100000,-0.100000)"
fill="#000000" stroke="none">
<path d="M4600 8685 c-52 -25 -99 -46 -104 -48 -18 -6 28 -59 84 -97 78 -53
140 -124 188 -217 99 -191 122 -382 122 -1010 l0 -413 -24 0 c-14 0 -476 -38
-1028 -85 -552 -47 -1019 -85 -1039 -85 -20 0 -62 12 -93 26 -32 14 -144 44
-259 68 l-202 42 -57 -19 c-32 -10 -58 -22 -58 -25 0 -3 15 -22 34 -42 58 -59
220 -362 250 -465 65 -229 159 -729 271 -1445 54 -344 65 -405 95 -483 84
-222 293 -204 317 27 l5 52 872 67 c479 37 881 68 894 67 l22 0 0 -1045 0
-1045 -22 -5 c-13 -3 -340 -61 -728 -130 -568 -101 -791 -136 -1148 -180 -244
-30 -467 -55 -495 -55 -57 1 -78 9 -254 109 -71 39 -119 60 -131 57 -9 -3 -30
-25 -46 -48 -25 -39 -27 -49 -22 -103 12 -119 47 -170 249 -368 200 -195 239
-227 310 -251 72 -24 115 -20 218 23 93 38 715 236 899 286 52 14 264 70 470
126 1226 328 2332 652 3035 888 116 39 215 71 220 71 32 0 387 -603 548 -930
68 -139 140 -235 198 -265 40 -21 115 -19 153 5 66 40 100 146 100 310 -1 390
-325 857 -970 1394 -304 253 -739 570 -820 596 -32 11 -38 10 -57 -8 l-21 -21
150 -153 c217 -223 384 -428 577 -708 l87 -125 -38 -8 c-20 -4 -474 -100
-1008 -212 -534 -113 -976 -205 -983 -205 -8 0 -11 263 -11 1018 l0 1018 358
28 c1766 135 1857 143 1898 164 41 21 70 64 57 85 -3 7 -33 44 -66 84 l-59 72
172 673 c94 370 186 706 202 747 40 96 82 156 161 233 149 143 102 233 -196
383 -154 77 -313 135 -370 135 -19 0 -115 -27 -214 -60 -308 -102 -380 -113
-1163 -175 -377 -30 -706 -56 -732 -59 l-48 -5 0 442 c0 498 9 664 47 854 17
86 23 144 19 168 -10 50 -72 109 -159 151 -68 32 -520 175 -549 173 -7 0 -56
-20 -108 -44z m2731 -1934 c28 -29 29 -32 29 -133 0 -176 -36 -421 -156 -1063
-36 -192 -67 -360 -70 -371 -9 -34 -119 -59 -522 -119 -426 -62 -387 -58 -827
-90 -187 -13 -361 -27 -387 -29 l-48 -5 0 848 0 847 418 33 c229 18 626 50
882 71 256 20 507 38 558 39 91 1 94 0 123 -28z m-2441 -1001 l0 -840 -29 0
c-26 0 -1127 -85 -1611 -124 -96 -8 -175 -14 -176 -13 -3 9 -211 1623 -209
1625 2 2 270 28 597 58 471 43 1350 126 1416 133 9 1 12 -173 12 -839z"/>
</g>
</svg>
