<?xml version="1.0" standalone="no"?>
<!DOCTYPE svg PUBLIC "-//W3C//DTD SVG 20010904//EN"
 "http://www.w3.org/TR/2001/REC-SVG-20010904/DTD/svg10.dtd">
<svg version="1.0" xmlns="http://www.w3.org/2000/svg"
 width="1024.000000pt" height="1024.000000pt" viewBox="0 0 1024.000000 1024.000000"
 preserveAspectRatio="xMidYMid meet">
<metadata>
Created by potrace 1.10, written by Peter Selinger 2001-2011
</metadata>
<g transform="translate(0.000000,1024.000000) scale(0.100000,-0.100000)"
fill="#000000" stroke="none">
<path d="M4545 9409 c-236 -203 -441 -381 -453 -396 -16 -17 -22 -34 -19 -50
3 -19 1 -22 -14 -18 -29 10 -74 -20 -92 -62 -11 -27 -28 -173 -57 -498 -22
-253 -42 -486 -43 -517 l-2 -58 -35 0 c-29 0 -61 -20 -195 -124 -88 -68 -198
-164 -245 -212 -173 -180 -341 -414 -408 -568 -19 -44 -38 -83 -41 -86 -4 -3
-46 -53 -94 -112 -89 -108 -156 -234 -194 -363 -8 -27 -27 -77 -43 -110 -49
-105 -65 -239 -35 -283 13 -17 14 -29 6 -59 -6 -21 -20 -119 -31 -218 -11 -99
-50 -394 -86 -655 -59 -425 -65 -488 -61 -595 6 -180 35 -256 182 -482 68
-106 147 -213 194 -263 l78 -85 -24 -35 c-13 -19 -31 -60 -39 -90 -9 -30 -27
-89 -40 -130 -12 -41 -37 -131 -55 -200 -18 -69 -38 -132 -45 -140 -7 -8 -20
-35 -30 -60 -10 -24 -172 -264 -360 -532 -319 -455 -360 -508 -606 -795 -314
-367 -308 -360 -308 -389 0 -27 43 -64 75 -64 12 0 31 10 42 23 12 12 274 335
583 717 557 690 561 696 635 838 56 108 99 215 176 435 56 161 105 295 108
299 12 14 106 -89 321 -350 118 -143 229 -268 245 -277 32 -18 40 -32 162
-269 69 -133 132 -214 207 -265 60 -41 320 -137 408 -151 49 -8 130 -11 220
-7 162 5 260 29 405 97 203 95 485 312 692 532 40 42 97 96 128 120 31 23 189
185 351 358 162 173 298 316 301 318 4 1 17 -89 28 -200 17 -157 28 -220 49
-278 58 -162 145 -308 278 -467 98 -119 167 -181 399 -362 l197 -154 -57 -29
c-79 -40 -115 -68 -213 -167 -175 -177 -958 -902 -1025 -949 -38 -27 -105 -82
-148 -122 -81 -76 -207 -234 -207 -260 0 -25 37 -78 60 -85 23 -7 49 7 98 52
493 460 841 772 886 795 42 21 107 83 305 292 144 152 273 278 300 294 36 23
50 39 61 71 7 22 17 41 21 41 4 0 220 -135 481 -300 421 -267 478 -300 514
-300 47 0 147 -43 270 -116 163 -96 334 -160 509 -189 55 -9 174 -38 264 -66
90 -27 174 -49 188 -49 26 0 73 41 73 64 0 49 -17 63 -147 115 -106 42 -165
58 -338 92 -168 32 -219 46 -257 69 -25 15 -57 31 -70 35 -12 4 -41 20 -63 35
-98 67 -257 129 -339 132 -23 1 -52 9 -66 19 -14 10 -241 153 -504 319 -508
319 -667 431 -861 607 -110 100 -130 124 -248 298 -71 105 -146 224 -167 266
-51 101 -100 305 -100 419 0 46 -9 161 -21 257 -11 97 -19 176 -17 178 2 2
122 -184 268 -413 l265 -416 224 -245 c285 -312 412 -421 751 -648 140 -94
307 -207 370 -252 63 -44 122 -81 131 -81 15 0 106 -45 546 -270 50 -26 129
-57 175 -69 167 -44 286 -84 405 -137 67 -30 134 -54 148 -54 16 0 38 11 54
28 23 22 27 34 23 61 -8 54 -80 94 -279 152 -312 91 -560 193 -763 314 -41 25
-110 56 -152 70 -69 22 -122 56 -482 306 -391 272 -412 288 -603 467 -244 229
-383 393 -620 732 -267 381 -394 625 -457 879 -50 199 -116 618 -125 791 -5
109 -14 180 -25 210 -17 47 -200 910 -194 916 7 6 157 -413 167 -466 18 -98
258 -902 296 -995 37 -89 67 -164 103 -260 20 -53 721 -1039 821 -1155 98
-114 278 -286 399 -383 212 -170 313 -234 628 -403 231 -123 429 -197 529
-198 47 -1 64 -10 303 -163 139 -89 270 -168 292 -174 47 -14 93 1 117 37 31
48 16 62 -213 199 -119 71 -246 151 -283 178 -36 28 -192 174 -346 326 -362
357 -597 580 -765 727 -126 111 -148 136 -320 364 -174 231 -192 260 -328 515
-241 451 -296 570 -373 797 -22 68 -139 391 -259 718 -120 327 -221 611 -224
630 -4 19 -18 62 -32 95 -14 33 -56 157 -93 275 -37 118 -74 226 -81 240 -7
14 -45 62 -83 108 -78 93 -98 99 -130 44 -18 -30 -18 -36 -4 -75 8 -23 144
-429 302 -902 283 -843 291 -866 432 -1182 79 -177 143 -327 143 -333 0 -6 11
-33 25 -60 14 -27 25 -56 25 -64 0 -8 11 -27 24 -43 14 -16 51 -90 83 -164 33
-73 84 -174 114 -224 72 -119 729 -996 789 -1055 26 -25 78 -63 116 -85 93
-54 153 -106 351 -301 156 -154 164 -164 113 -136 -30 17 -165 91 -298 166
-134 75 -246 136 -249 136 -12 0 -145 101 -238 181 -114 97 -244 235 -336 354
-34 44 -242 339 -463 655 -368 527 -466 677 -466 718 0 15 -95 373 -129 487
-65 215 -84 281 -107 370 -14 55 -29 119 -34 142 -5 23 -18 59 -29 80 -10 21
-24 58 -31 83 -7 25 -48 126 -91 225 -68 153 -90 217 -144 425 -36 135 -74
278 -85 317 -11 40 -20 83 -20 95 0 13 -7 32 -15 42 -8 11 -15 30 -15 43 0 30
-116 142 -146 143 -64 1 -80 -152 -23 -223 10 -14 19 -35 19 -46 0 -12 20 -74
45 -139 25 -64 45 -124 45 -132 0 -8 16 -64 35 -125 19 -60 35 -112 35 -115 0
-3 -29 49 -63 115 -106 204 -179 307 -261 370 -39 31 -80 72 -91 93 -24 44
-67 67 -205 111 -136 43 -207 54 -360 55 -134 1 -135 1 -177 -29 -24 -17 -45
-38 -49 -48 -5 -15 -13 -17 -57 -11 -29 3 -57 7 -64 9 -42 13 -215 -32 -533
-140 l-345 -117 -341 -173 c-229 -117 -397 -210 -510 -284 -93 -60 -170 -108
-172 -107 -1 2 10 35 25 75 31 85 71 123 148 139 61 13 177 65 592 265 301
145 346 163 690 282 202 70 378 133 390 141 34 21 56 70 43 93 -20 38 -70 44
-172 21 -307 -72 -398 -102 -603 -200 -66 -32 -160 -75 -210 -95 -49 -21 -217
-100 -373 -176 l-283 -138 23 37 c99 163 114 183 128 168 7 -9 21 -16 31 -16
11 0 110 46 222 101 289 145 478 215 732 270 73 15 107 28 127 46 32 30 40 66
21 92 -28 41 -63 36 -388 -49 -288 -77 -319 -87 -450 -151 l-140 -70 170 165
c162 157 174 166 250 196 46 18 89 42 100 57 l21 25 434 -92 c436 -91 732
-171 760 -206 23 -26 62 -41 130 -48 36 -4 89 -12 118 -17 49 -10 56 -9 77 11
13 13 25 32 27 44 4 31 71 63 344 166 199 74 301 105 575 175 184 47 335 85
336 85 1 0 -2 -11 -7 -25 -12 -32 5 -82 32 -91 11 -3 36 -3 55 1 34 6 39 3
110 -67 106 -104 228 -278 328 -468 l86 -164 245 -915 c311 -1162 324 -1205
451 -1516 54 -131 440 -906 526 -1055 75 -131 200 -320 282 -425 260 -337 370
-472 394 -484 25 -12 33 -11 65 4 32 15 37 22 34 44 -2 14 -148 231 -325 481
l-321 455 -316 689 -316 690 -193 730 c-107 402 -206 793 -220 868 -49 256
-158 538 -291 756 l-56 93 61 -34 c34 -19 107 -75 164 -123 79 -69 110 -104
138 -154 53 -97 342 -872 356 -955 55 -325 264 -812 506 -1181 92 -140 622
-849 726 -970 91 -106 211 -221 323 -310 61 -49 85 -62 105 -59 14 2 52 7 84
10 44 5 57 10 57 23 0 10 -78 87 -173 172 l-173 155 -380 489 c-208 269 -409
532 -445 585 -90 130 -189 305 -251 442 -50 112 -528 1515 -528 1550 0 10 -44
84 -98 166 -96 145 -101 150 -197 218 -55 38 -128 96 -165 128 -117 104 -275
200 -419 254 -65 24 -95 49 -83 68 4 5 12 53 19 105 11 88 9 123 -28 485 -21
215 -42 405 -45 423 -3 18 -21 51 -40 72 l-36 39 22 31 c15 21 20 39 16 56
-10 39 -110 97 -238 137 -1257 398 -1496 475 -1560 508 -20 10 -45 19 -55 19
-10 0 -211 -167 -448 -371z m879 -2279 c91 -34 116 -48 155 -88 26 -26 75 -71
108 -99 87 -75 154 -168 228 -318 97 -198 137 -332 195 -651 28 -152 48 -279
46 -282 -3 -2 -13 10 -23 28 -10 18 -34 58 -54 89 -34 54 -35 58 -22 90 12 29
12 36 -1 57 -18 26 -80 47 -104 35 -10 -5 -57 -23 -107 -41 -49 -18 -124 -50
-165 -71 -41 -21 -110 -52 -153 -69 -111 -43 -160 -70 -278 -148 -107 -72
-141 -87 -269 -117 -57 -14 -104 -36 -199 -94 -112 -68 -128 -82 -163 -136
-42 -68 -42 -73 8 -152 30 -47 37 -52 80 -59 63 -9 135 9 229 57 83 42 99 47
267 79 117 22 177 44 247 92 39 26 64 34 169 49 68 10 160 29 205 43 116 36
284 120 322 162 l33 35 36 -153 c28 -117 48 -252 86 -573 45 -375 54 -435 90
-561 39 -136 40 -142 25 -178 -19 -46 -22 -110 -12 -246 l8 -105 -390 -410
c-215 -225 -433 -450 -484 -498 -304 -291 -608 -492 -827 -548 -128 -32 -289
-36 -416 -10 -128 26 -230 67 -299 121 -55 43 -121 142 -211 318 -22 44 -56
90 -91 123 -43 41 -613 673 -941 1044 -65 74 -136 210 -163 312 -32 126 -28
233 24 628 26 193 51 373 57 402 l11 52 49 -19 c77 -30 112 -48 149 -75 24
-17 47 -25 77 -25 32 0 73 -15 161 -57 111 -54 123 -58 193 -59 71 0 79 -3
125 -37 128 -95 339 -103 369 -15 8 23 6 32 -12 51 -27 29 -27 32 -2 64 11 14
20 37 20 50 0 32 -40 70 -82 78 -26 5 -40 17 -61 50 -57 89 -153 158 -269 194
-62 19 -307 166 -336 202 -91 114 -148 150 -242 153 l-59 1 2 36 c1 25 -7 49
-26 76 -32 47 -33 58 -7 101 11 18 25 57 31 85 16 80 17 83 33 62 11 -15 21
-17 61 -12 57 8 76 20 310 184 164 115 208 139 495 279 426 207 565 258 948
345 194 44 313 76 331 88 31 23 67 27 246 29 129 2 131 1 239 -38z m506 -1386
c34 -99 36 -88 -27 -117 -84 -37 -154 -55 -275 -71 -102 -13 -114 -17 -242
-85 -122 -64 -140 -71 -193 -71 -76 0 -171 -21 -266 -58 -42 -16 -77 -28 -77
-26 0 2 24 19 53 38 32 21 87 43 142 57 73 19 131 46 310 145 121 67 238 124
260 128 22 4 83 27 135 50 52 23 106 47 120 53 36 16 42 12 60 -43z m-3036
-68 c66 -65 361 -261 407 -271 95 -21 178 -77 255 -170 44 -54 53 -71 40 -73
-9 -2 -33 11 -53 29 -53 46 -118 71 -197 77 -56 4 -84 12 -142 44 -39 21 -109
48 -155 59 -46 11 -127 42 -179 68 -52 26 -105 50 -117 53 -19 5 -23 13 -23
42 0 20 9 53 20 74 14 24 18 46 14 65 -7 35 10 57 46 57 21 0 43 -15 84 -54z"/>
<path d="M3690 6530 c-94 -7 -116 -15 -154 -61 -52 -61 -31 -90 80 -107 123
-19 644 -36 1024 -33 299 3 357 6 435 23 99 21 125 38 125 78 0 52 -13 53
-417 46 l-368 -8 -224 36 c-228 37 -307 41 -501 26z"/>
<path d="M3632 6175 c-144 -33 -162 -42 -178 -88 -9 -29 15 -76 44 -84 15 -3
52 3 91 15 102 32 245 46 405 38 78 -3 159 -10 181 -15 22 -5 117 -27 210 -49
l170 -40 377 -7 c373 -7 376 -7 397 14 30 30 26 54 -13 89 -42 37 -40 37 -451
58 -263 13 -333 20 -460 46 -141 28 -451 58 -580 56 -27 0 -114 -15 -193 -33z"/>
<path d="M5535 5023 l-310 -156 -205 -43 c-113 -24 -215 -46 -227 -49 -12 -3
-31 -21 -44 -41 l-22 -37 24 -18 c21 -16 38 -18 149 -13 165 7 230 18 385 69
263 86 645 305 645 371 0 19 -53 74 -72 73 -7 0 -152 -70 -323 -156z"/>
<path d="M2971 4884 c-27 -35 -27 -98 -1 -142 27 -43 182 -144 285 -183 130
-51 251 -72 382 -66 108 4 113 5 152 36 43 34 53 68 27 90 -8 7 -116 22 -240
35 l-225 23 -83 48 c-45 26 -121 79 -167 116 -47 38 -91 69 -98 69 -6 0 -21
-12 -32 -26z"/>
<path d="M5449 4545 c-9 -9 -47 -20 -85 -26 -38 -5 -79 -14 -92 -19 -23 -10
-64 -68 -57 -81 9 -13 190 3 243 22 29 10 61 19 72 19 17 0 48 36 38 45 -14
11 -89 55 -96 55 -4 0 -15 -7 -23 -15z"/>
<path d="M4177 4459 c-49 -40 -77 -97 -84 -168 -3 -31 -10 -61 -15 -68 -5 -6
-18 -74 -28 -150 -26 -188 -52 -309 -96 -433 -31 -89 -36 -114 -31 -162 9
-101 65 -171 189 -234 75 -38 189 -29 248 20 8 7 35 21 60 31 90 37 116 84 78
135 -19 26 -28 30 -67 30 -65 0 -109 -15 -154 -51 -39 -31 -40 -32 -93 -20
-93 21 -93 21 -40 288 24 125 57 302 71 393 19 117 36 184 56 229 37 82 38
126 2 163 -34 36 -50 35 -96 -3z"/>
<path d="M3145 4289 c-5 -6 -22 -8 -46 -4 -79 13 -98 -47 -26 -82 38 -18 55
-20 159 -15 114 5 117 5 123 30 3 13 5 26 3 27 -4 5 -185 55 -197 55 -5 0 -13
-5 -16 -11z"/>
<path d="M4630 3779 c-43 -17 -60 -40 -60 -80 0 -36 2 -39 40 -49 22 -6 40
-15 40 -21 0 -14 61 -49 87 -49 29 0 64 -59 74 -124 10 -63 43 -96 95 -96 78
0 89 28 55 149 -38 136 -81 195 -174 240 -72 34 -122 44 -157 30z"/>
<path d="M4113 2859 c-68 -16 -103 -78 -70 -123 11 -16 50 -20 321 -37 268
-16 312 -17 341 -4 53 22 60 89 12 119 -20 12 -152 26 -502 50 -33 3 -79 0
-102 -5z"/>
<path d="M6600 7653 c-25 -10 -49 -47 -50 -76 0 -19 11 -39 30 -59 17 -17 45
-58 62 -92 16 -33 40 -74 53 -91 12 -16 33 -50 45 -75 21 -41 29 -73 59 -235
5 -27 21 -90 34 -140 32 -112 107 -444 107 -471 0 -10 29 -121 65 -246 36
-125 65 -238 65 -250 0 -13 6 -33 14 -44 8 -11 24 -56 35 -100 28 -108 89
-286 144 -419 111 -272 159 -355 588 -1026 408 -638 422 -659 457 -665 44 -8
62 2 85 49 15 30 17 43 8 67 -5 17 -89 134 -186 261 l-177 230 -326 602 c-179
331 -333 625 -343 652 -9 28 -31 82 -48 122 -17 40 -31 82 -31 95 0 12 -9 45
-19 73 -27 72 -168 604 -193 730 -6 28 -19 71 -29 97 -11 26 -49 185 -85 354
l-65 306 -61 117 c-67 126 -100 168 -167 212 -47 31 -48 31 -71 22z"/>
<path d="M8266 5035 c-17 -15 -25 -32 -22 -41 3 -8 213 -360 465 -782 526
-878 485 -820 840 -1157 271 -257 290 -267 350 -200 41 48 40 79 -5 121 -19
19 -40 34 -46 34 -6 0 -95 81 -199 181 l-188 180 -446 671 c-314 471 -454 690
-471 737 -38 101 -87 170 -173 244 -53 44 -69 46 -105 12z"/>
<path d="M6564 4646 c-42 -42 -42 -62 0 -166 15 -36 38 -93 52 -126 14 -34 41
-88 60 -120 51 -86 862 -1172 959 -1284 172 -199 454 -458 656 -602 96 -68
146 -93 724 -359 457 -211 646 -289 700 -289 28 0 71 36 79 66 4 13 0 29 -11
41 -10 11 -164 84 -343 163 -362 159 -975 457 -1060 515 -123 84 -303 238
-445 380 -136 137 -190 203 -585 724 -239 316 -456 608 -482 650 -45 72 -104
199 -143 304 -20 56 -50 95 -94 120 l-32 18 -35 -35z"/>
<path d="M2578 3783 c-31 -35 -111 -210 -144 -314 -68 -215 -153 -395 -297
-632 -75 -123 -176 -257 -532 -702 -241 -302 -481 -605 -533 -673 -136 -178
-261 -312 -405 -435 -76 -65 -130 -119 -133 -133 -9 -37 4 -73 31 -86 39 -18
158 49 266 150 88 83 1044 1228 1214 1454 171 227 288 443 460 848 62 146 127
292 145 326 17 33 34 79 37 102 5 38 2 45 -30 77 -39 39 -57 43 -79 18z"/>
<path d="M3093 3191 c-32 -20 -40 -34 -47 -86 -6 -41 -494 -1077 -557 -1181
-69 -115 -152 -225 -256 -340 -72 -80 -87 -102 -87 -129 0 -41 27 -83 59 -91
26 -6 58 24 268 254 143 157 270 406 371 727 39 121 83 220 140 310 90 141
217 368 224 402 12 52 -2 96 -39 127 -37 31 -36 31 -76 7z"/>
<path d="M3265 2760 c-11 -4 -27 -16 -36 -26 -9 -11 -93 -201 -188 -424 -138
-326 -185 -424 -237 -502 -51 -78 -64 -106 -64 -137 l0 -38 61 -7 c34 -4 62
-6 64 -4 1 2 61 109 133 238 113 202 139 259 190 405 57 165 116 296 153 343
27 35 33 79 15 107 -22 33 -66 55 -91 45z"/>
<path d="M3625 2513 c-54 -14 -56 -32 -16 -191 35 -136 47 -264 33 -342 -10
-56 -84 -305 -93 -315 -7 -7 -282 16 -291 24 -4 4 17 41 47 82 55 76 195 375
208 448 8 40 -21 114 -51 130 -53 28 -93 -4 -112 -89 -30 -130 -92 -270 -194
-437 -58 -96 -66 -125 -42 -152 13 -14 -25 -32 -372 -175 -480 -196 -634 -278
-848 -450 -109 -88 -144 -129 -144 -169 0 -28 6 -36 43 -56 l43 -23 45 22 c24
13 117 79 207 147 90 69 198 144 240 168 108 61 779 352 827 359 22 4 84 11
139 16 93 8 100 7 135 -14 25 -15 97 -33 236 -60 200 -37 200 -37 304 -97 57
-33 249 -160 425 -283 265 -184 362 -245 556 -350 193 -103 243 -126 277 -126
35 0 42 3 47 25 3 13 19 39 35 57 15 18 66 92 114 164 182 278 294 395 712
747 355 299 820 710 835 737 17 31 11 60 -16 85 -31 29 -57 31 -100 7 -17 -9
-157 -132 -310 -273 -154 -141 -408 -365 -565 -497 -279 -233 -407 -354 -543
-516 -111 -130 -215 -273 -237 -323 -11 -26 -22 -49 -24 -51 -2 -2 -23 9 -47
25 -24 17 -162 101 -308 188 -162 96 -276 171 -293 191 -32 38 -328 252 -434
314 -85 50 -185 92 -293 123 -46 14 -86 29 -88 35 -1 5 18 75 44 154 46 139
48 147 48 268 1 162 -12 314 -30 367 -9 26 -32 57 -57 78 -40 34 -51 38 -92
28z"/>
<path d="M5205 2120 c-184 -30 -276 -77 -375 -194 -36 -42 -66 -81 -68 -86 -2
-5 8 -21 22 -35 19 -19 36 -25 67 -25 34 0 47 6 78 37 20 21 53 45 74 55 20 9
52 29 71 43 24 18 56 29 103 36 37 6 98 15 135 21 73 11 109 32 133 78 14 27
13 31 -8 55 -30 36 -80 39 -232 15z"/>
<path d="M2955 1353 c-32 -8 -65 -44 -65 -73 0 -53 31 -67 186 -84 131 -13
147 -17 225 -56 46 -23 95 -52 109 -64 102 -92 986 -596 1044 -596 15 0 50 38
59 62 3 10 1 31 -5 48 -11 34 -83 75 -208 120 -79 29 -59 17 -516 314 -408
264 -467 298 -566 321 -62 14 -218 19 -263 8z"/>
</g>
</svg>
