<?xml version="1.0" standalone="no"?>
<!DOCTYPE svg PUBLIC "-//W3C//DTD SVG 20010904//EN"
 "http://www.w3.org/TR/2001/REC-SVG-20010904/DTD/svg10.dtd">
<svg version="1.0" xmlns="http://www.w3.org/2000/svg"
 width="1024.000000pt" height="1024.000000pt" viewBox="0 0 1024.000000 1024.000000"
 preserveAspectRatio="xMidYMid meet">
<metadata>
Created by potrace 1.10, written by Peter Selinger 2001-2011
</metadata>
<g transform="translate(0.000000,1024.000000) scale(0.100000,-0.100000)"
fill="#000000" stroke="none">
<path d="M6100 8571 c-60 -32 -207 -164 -326 -293 -199 -216 -375 -502 -479
-778 -35 -94 -938 -2131 -969 -2185 -78 -140 -1041 -1637 -1134 -1763 -190
-259 -474 -601 -654 -789 -75 -78 -101 -126 -92 -170 10 -49 35 -71 91 -81
l51 -9 94 85 c84 77 146 158 622 801 290 394 572 776 626 848 60 81 196 298
351 560 139 236 253 429 254 430 6 9 213 -71 247 -96 24 -17 66 -38 93 -46 38
-11 68 -32 122 -85 94 -91 103 -113 254 -635 158 -549 174 -615 205 -840 53
-399 113 -706 219 -1120 73 -284 79 -303 130 -405 108 -217 447 -585 785 -855
156 -125 207 -155 258 -155 38 0 50 5 84 39 33 33 38 44 32 68 -9 39 -2 32
-116 118 -181 138 -328 266 -483 420 -242 241 -333 391 -455 754 -89 264 -135
490 -165 811 -26 280 -72 515 -150 765 -19 61 -79 287 -135 504 -91 358 -105
403 -152 493 -74 144 -184 252 -334 327 l-56 28 94 33 c195 69 544 228 710
323 24 14 295 171 603 350 308 178 808 460 1110 625 579 316 655 365 655 423
0 32 -32 74 -71 94 -28 15 -34 13 -126 -26 -239 -101 -603 -289 -823 -424 -47
-29 -366 -218 -710 -421 -815 -480 -1128 -638 -1547 -780 -73 -25 -119 -47
-142 -68 -33 -30 -33 -31 -26 -6 4 14 29 68 57 119 27 52 131 280 229 505 99
226 186 420 193 431 11 16 33 24 97 34 78 12 99 21 284 124 110 61 252 142
315 180 282 170 638 433 840 622 30 28 89 70 130 92 153 85 203 182 129 249
-29 26 -63 44 -83 44 -21 0 -315 -212 -451 -325 -304 -253 -640 -477 -945
-630 -84 -42 -154 -74 -156 -72 -3 2 25 91 62 198 146 428 305 739 550 1075
110 152 191 217 319 256 38 12 79 31 91 43 28 28 39 94 24 139 -15 46 -50 67
-119 72 -48 4 -64 0 -111 -25z"/>
<path d="M6584 3423 c2 -10 10 -37 17 -60 7 -24 16 -43 20 -43 4 0 -1 27 -13
60 -11 33 -22 60 -25 60 -2 0 -2 -8 1 -17z"/>
</g>
</svg>
