<?xml version="1.0" standalone="no"?>
<!DOCTYPE svg PUBLIC "-//W3C//DTD SVG 20010904//EN"
 "http://www.w3.org/TR/2001/REC-SVG-20010904/DTD/svg10.dtd">
<svg version="1.0" xmlns="http://www.w3.org/2000/svg"
 width="1024.000000pt" height="1024.000000pt" viewBox="0 0 1024.000000 1024.000000"
 preserveAspectRatio="xMidYMid meet">
<metadata>
Created by potrace 1.10, written by Peter Selinger 2001-2011
</metadata>
<g transform="translate(0.000000,1024.000000) scale(0.100000,-0.100000)"
fill="#000000" stroke="none">
<path d="M6165 9184 c-27 -8 -147 -44 -265 -79 -524 -156 -849 -219 -1724
-336 l-539 -72 -252 82 c-139 44 -258 81 -264 81 -13 0 -209 -105 -225 -121
-5 -5 5 -16 23 -26 199 -110 298 -246 345 -473 35 -172 37 -301 34 -1735 l-3
-1409 -435 -52 c-239 -29 -599 -67 -800 -84 l-364 -31 -313 37 c-172 20 -316
34 -319 31 -4 -3 8 -59 25 -124 l31 -118 67 -63 c49 -45 95 -76 163 -109 52
-25 106 -52 120 -60 14 -8 54 -28 90 -46 118 -57 274 -48 475 28 35 13 210 55
389 94 l326 71 59 -45 c98 -75 134 -128 168 -246 17 -60 18 -133 18 -1284 0
-971 -3 -1232 -13 -1280 -27 -121 -63 -213 -117 -295 -66 -98 -69 -127 -23
-191 52 -73 220 -234 278 -268 45 -25 66 -31 116 -31 94 0 136 27 284 182 70
73 163 159 206 190 43 32 482 343 974 693 492 349 923 660 958 691 34 31 69
68 77 84 13 25 12 29 -9 49 l-23 22 -214 -119 c-1780 -993 -1998 -1112 -2034
-1112 -8 0 -18 12 -22 27 -5 16 -8 555 -8 1198 1 1270 -4 1149 54 1425 19 92
19 96 2 135 -32 70 -113 142 -234 206 -39 21 -67 39 -61 39 6 0 334 47 730
105 625 91 864 120 1829 225 610 66 1120 120 1132 120 21 0 23 -5 23 -47 -1
-103 -62 -220 -238 -454 -64 -86 -163 -210 -219 -275 -120 -140 -360 -380
-492 -492 l-93 -80 -152 112 c-417 310 -738 499 -1011 596 -104 37 -240 50
-313 31 -62 -17 -105 -59 -104 -101 1 -52 49 -93 161 -136 258 -99 540 -246
769 -401 319 -215 888 -713 1817 -1593 528 -500 569 -538 685 -635 202 -168
378 -275 455 -275 58 0 1150 182 1202 200 32 11 66 30 76 41 17 21 17 23 0 42
-27 30 -135 77 -383 165 -512 182 -846 330 -1270 567 -249 139 -321 183 -535
326 -252 168 -512 366 -1211 918 l-71 57 116 59 c195 100 637 411 951 669 58
47 167 129 242 181 136 95 172 132 184 191 4 26 -7 43 -99 149 -58 66 -128
139 -156 162 l-52 41 63 6 c35 3 367 15 738 26 371 11 689 23 705 27 81 15
136 68 150 144 7 36 4 39 -95 143 l-103 106 -145 47 -144 46 -141 -12 c-87 -8
-337 -49 -648 -107 l-506 -94 -1635 -195 c-900 -107 -1645 -195 -1657 -195
l-21 0 0 463 0 463 1373 152 c754 84 1386 153 1403 152 80 -1 184 57 184 103
0 18 -40 72 -121 165 -26 29 -47 39 -161 71 l-131 38 -85 -24 c-47 -13 -193
-49 -326 -79 -233 -53 -272 -59 -1156 -164 -503 -60 -930 -111 -947 -114 l-33
-5 0 419 0 419 33 6 c79 13 2543 317 2635 324 118 10 189 38 210 84 22 47 6
85 -67 157 -66 65 -66 65 -201 106 l-136 40 -59 -18 c-33 -10 -177 -50 -321
-88 l-261 -69 -906 -121 c-498 -66 -911 -120 -917 -120 -13 0 -13 336 0 580 9
157 32 325 46 339 2 2 43 -2 91 -8 80 -12 105 -10 283 13 2281 306 2277 305
2383 346 107 40 187 120 187 186 0 61 -96 115 -340 190 -80 24 -149 44 -155
43 -5 0 -32 -7 -60 -15z"/>
</g>
</svg>
