<?xml version="1.0" standalone="no"?>
<!DOCTYPE svg PUBLIC "-//W3C//DTD SVG 20010904//EN"
 "http://www.w3.org/TR/2001/REC-SVG-20010904/DTD/svg10.dtd">
<svg version="1.0" xmlns="http://www.w3.org/2000/svg"
 width="1024.000000pt" height="1024.000000pt" viewBox="0 0 1024.000000 1024.000000"
 preserveAspectRatio="xMidYMid meet">
<metadata>
Created by potrace 1.10, written by Peter Selinger 2001-2011
</metadata>
<g transform="translate(0.000000,1024.000000) scale(0.100000,-0.100000)"
fill="#000000" stroke="none">
<path d="M4629 9510 c-52 -27 -62 -44 -56 -90 3 -26 20 -59 50 -97 38 -48 64
-107 157 -353 61 -162 118 -302 126 -311 7 -8 18 -40 24 -70 6 -30 20 -82 31
-117 12 -35 19 -65 18 -67 -2 -1 -47 -22 -99 -46 -276 -123 -551 -293 -774
-477 -488 -404 -932 -1018 -1163 -1612 -49 -127 -291 -871 -445 -1375 l-34
-110 -275 -56 c-289 -60 -381 -88 -466 -144 -42 -28 -53 -41 -59 -71 -6 -33
-3 -40 34 -77 38 -38 46 -41 105 -45 53 -3 75 1 128 23 119 50 244 86 341 97
54 6 100 9 104 6 3 -3 -26 -122 -65 -263 -39 -142 -71 -274 -71 -295 0 -55 44
-100 98 -100 35 0 45 6 77 42 61 71 83 127 154 396 l68 257 34 7 c19 4 468 35
999 68 1585 100 2032 129 2093 134 54 5 57 5 57 -17 0 -13 -9 -57 -20 -99 -75
-285 -349 -620 -700 -855 -73 -49 -671 -354 -801 -408 -106 -45 -405 -191
-523 -256 -574 -318 -1084 -704 -1278 -969 -133 -182 -242 -409 -295 -614 -22
-86 -25 -113 -21 -215 9 -208 73 -326 251 -461 l108 -81 272 -25 c337 -30 347
-30 493 1 304 62 525 138 874 297 227 105 629 305 850 425 329 179 827 476
925 552 190 147 328 201 520 201 96 0 102 -1 181 -40 187 -93 297 -182 813
-655 270 -247 510 -460 532 -472 69 -38 123 -27 182 35 19 20 27 38 25 54 -2
17 -83 97 -263 263 -143 131 -282 260 -310 285 -500 466 -600 545 -825 653
-185 88 -222 97 -388 97 l-148 0 -159 -79 c-158 -78 -255 -134 -595 -348 -486
-306 -1139 -648 -1679 -880 -261 -112 -390 -152 -606 -189 -130 -22 -365 -29
-450 -15 -161 28 -282 120 -353 268 -32 68 -37 86 -35 143 6 192 130 467 318
703 170 213 461 459 730 614 73 43 124 69 905 468 571 292 649 334 795 430
275 180 559 441 706 648 89 125 149 290 168 457 6 51 13 95 15 98 3 3 326 17
718 33 643 25 728 30 868 53 85 15 190 37 232 51 311 99 574 341 684 630 62
165 136 514 169 795 22 191 31 559 16 690 -64 550 -355 1009 -846 1335 -305
202 -564 309 -890 366 -392 69 -1043 -9 -1614 -193 -84 -27 -157 -46 -161 -41
-21 21 -259 616 -265 661 -4 28 -13 56 -21 63 -10 8 -14 34 -14 83 -1 110 -39
176 -122 211 -50 20 -115 18 -159 -5z m2061 -1000 c241 -18 279 -23 418 -59
367 -96 693 -281 958 -545 210 -211 311 -415 383 -777 47 -240 62 -502 42
-729 -19 -203 -133 -656 -201 -796 -118 -244 -294 -402 -537 -483 -113 -38
-234 -58 -398 -66 -71 -3 -382 -17 -690 -30 -308 -14 -572 -28 -587 -31 -23
-4 -28 -2 -32 18 -2 13 -9 160 -15 328 -18 500 -90 888 -262 1415 -153 471
-489 1519 -486 1521 1 1 67 23 147 48 317 102 555 152 945 199 17 2 35 5 40 5
6 1 129 -7 275 -18z m-1335 -1241 c165 -501 308 -941 317 -978 57 -218 99
-443 122 -661 15 -139 42 -637 35 -644 -6 -6 -3099 -149 -3104 -144 -4 4 331
1103 370 1209 115 320 291 661 480 935 87 125 514 591 623 679 205 167 429
311 682 437 85 43 160 78 165 78 6 0 145 -410 310 -911z"/>
<path d="M6890 7284 c-62 -57 -67 -40 123 -444 24 -52 47 -108 51 -125 4 -16
36 -100 70 -185 35 -85 73 -189 84 -230 12 -41 44 -118 71 -171 39 -74 58
-100 85 -114 64 -34 107 9 125 127 15 91 -1 136 -204 582 -107 236 -195 438
-195 448 0 56 -92 148 -147 148 -13 0 -41 -16 -63 -36z"/>
<path d="M4148 6683 c-31 -5 -68 -46 -68 -76 0 -47 122 -300 202 -419 21 -32
57 -112 82 -183 32 -91 61 -150 101 -210 51 -75 60 -84 95 -90 28 -5 48 -1 77
13 67 35 75 84 27 167 -12 22 -73 155 -134 295 -142 323 -152 342 -208 403
-47 50 -124 108 -139 106 -4 -1 -20 -4 -35 -6z"/>
<path d="M6932 3890 c0 -8 6 -31 13 -50 7 -19 13 -28 13 -20 0 8 -6 31 -13 50
-7 19 -13 28 -13 20z"/>
</g>
</svg>
