<?xml version="1.0" standalone="no"?>
<!DOCTYPE svg PUBLIC "-//W3C//DTD SVG 20010904//EN"
 "http://www.w3.org/TR/2001/REC-SVG-20010904/DTD/svg10.dtd">
<svg version="1.0" xmlns="http://www.w3.org/2000/svg"
 width="1024.000000pt" height="1024.000000pt" viewBox="0 0 1024.000000 1024.000000"
 preserveAspectRatio="xMidYMid meet">
<metadata>
Created by potrace 1.10, written by Peter Selinger 2001-2011
</metadata>
<g transform="translate(0.000000,1024.000000) scale(0.100000,-0.100000)"
fill="#000000" stroke="none">
<path d="M7255 7806 c-66 -19 -175 -52 -242 -75 -134 -45 -288 -82 -433 -105
-96 -15 -2387 -256 -2436 -256 -19 0 -46 19 -95 64 -83 79 -172 140 -253 174
-116 49 -318 31 -359 -32 -34 -52 -24 -74 97 -206 175 -192 217 -298 196 -503
-23 -233 -98 -500 -244 -871 -60 -153 -280 -650 -296 -669 -3 -4 -476 -35
-1051 -69 l-1044 -61 -323 22 c-178 12 -327 20 -330 17 -4 -5 9 -86 24 -138 3
-9 65 -58 139 -109 146 -100 430 -239 489 -239 17 0 443 38 946 85 503 47 927
85 943 85 l27 0 -71 -142 c-323 -644 -584 -1086 -695 -1176 -22 -17 -66 -53
-99 -80 -33 -27 -73 -68 -90 -92 -27 -39 -30 -51 -28 -111 1 -37 7 -87 13
-111 31 -114 120 -235 196 -264 43 -16 49 -16 127 1 45 10 109 29 141 42 80
33 189 53 326 59 150 7 1584 -104 1825 -142 759 -118 1471 -270 1876 -401 l87
-28 -113 -262 c-62 -144 -122 -277 -134 -297 -15 -23 -42 -45 -79 -63 -53 -26
-65 -28 -172 -27 -90 0 -139 6 -225 28 -93 23 -437 134 -597 193 -47 18 -48
18 -70 -5 l-23 -22 20 -36 c11 -20 53 -67 95 -103 310 -272 511 -510 636 -750
54 -103 102 -154 163 -172 95 -28 255 53 404 205 178 180 314 430 471 863 35
98 70 199 76 225 7 27 16 48 21 48 26 0 402 -173 649 -299 157 -79 339 -172
405 -205 107 -55 127 -61 191 -64 68 -4 73 -3 107 28 78 68 74 200 -8 365 -44
88 -157 222 -238 282 -80 58 -305 168 -477 231 -130 48 -464 152 -487 152 -23
0 -22 20 7 145 49 201 155 712 194 925 50 279 151 870 189 1110 l33 205 869 3
c617 3 925 0 1057 -9 213 -14 250 -9 292 42 29 34 33 76 12 117 -15 30 -141
153 -196 193 -56 41 -294 129 -348 129 -26 0 -400 -23 -831 -50 -432 -27 -787
-48 -789 -45 -2 2 25 201 62 442 36 241 75 501 87 578 34 233 69 354 162 555
19 41 44 106 57 143 18 57 20 73 10 97 -39 94 -394 361 -579 436 -94 38 -131
38 -266 0z m-28 -517 c66 -17 117 -69 138 -144 42 -142 -8 -745 -131 -1580
l-6 -41 -816 -42 c-449 -23 -817 -41 -818 -39 -5 5 348 1219 376 1293 35 94
33 109 -26 174 -47 52 -100 89 -217 150 -118 61 -157 84 -157 90 0 5 1493 145
1583 149 16 0 49 -4 74 -10z m-1954 -225 c83 -84 137 -217 137 -340 0 -43 -42
-249 -139 -678 -77 -340 -141 -619 -143 -621 -6 -5 -1394 -76 -1431 -73 l-36
3 210 495 c304 717 399 970 415 1102 l6 54 442 51 c242 28 453 51 468 52 19 1
39 -12 71 -45z m1897 -1918 c0 -8 -94 -511 -210 -1119 -115 -608 -210 -1108
-210 -1112 0 -3 -9 -3 -20 0 -11 4 -432 73 -935 154 -504 82 -917 150 -920
153 -5 5 584 1839 595 1851 7 8 1420 83 1603 86 77 1 97 -2 97 -13z m-2150
-105 c0 -5 -115 -388 -255 -852 -147 -485 -255 -859 -255 -882 l0 -39 -37 6
c-21 3 -369 28 -773 56 -698 48 -739 52 -817 77 l-81 27 -6 41 c-4 25 0 61 10
94 9 30 166 356 350 723 248 495 339 668 352 669 9 0 328 20 707 43 763 48
805 50 805 37z"/>
</g>
</svg>
