<?xml version="1.0" standalone="no"?>
<!DOCTYPE svg PUBLIC "-//W3C//DTD SVG 20010904//EN"
 "http://www.w3.org/TR/2001/REC-SVG-20010904/DTD/svg10.dtd">
<svg version="1.0" xmlns="http://www.w3.org/2000/svg"
 width="1024.000000pt" height="1024.000000pt" viewBox="0 0 1024.000000 1024.000000"
 preserveAspectRatio="xMidYMid meet">
<metadata>
Created by potrace 1.10, written by Peter Selinger 2001-2011
</metadata>
<g transform="translate(0.000000,1024.000000) scale(0.100000,-0.100000)"
fill="#000000" stroke="none">
<path d="M7093 9661 c-124 -34 -153 -46 -203 -82 -50 -37 -88 -101 -97 -170
-12 -83 -33 -90 -379 -128 -220 -25 -299 -37 -375 -61 -220 -68 -356 -218
-405 -446 -17 -81 -17 -82 5 -128 l22 -45 -59 -70 c-33 -38 -63 -78 -65 -88
-26 -88 -62 -233 -88 -358 -46 -226 -41 -340 24 -510 29 -77 36 -86 187 -240
l157 -160 -12 -40 -12 -40 -124 -12 c-279 -27 -482 -84 -714 -200 -266 -133
-538 -364 -738 -628 -50 -66 -137 -167 -193 -225 -56 -58 -123 -136 -148 -175
-47 -70 -141 -249 -166 -315 -7 -19 -98 -176 -202 -347 -104 -172 -200 -339
-215 -370 -29 -67 -108 -294 -127 -368 -7 -28 -20 -64 -28 -80 -9 -17 -21 -61
-27 -100 -7 -38 -28 -131 -46 -205 -31 -122 -145 -853 -145 -926 0 -15 -10
-39 -22 -52 -19 -20 -23 -34 -22 -90 1 -60 8 -82 62 -202 l62 -134 -33 -34
c-17 -19 -93 -75 -166 -125 -278 -190 -433 -388 -516 -662 -15 -49 -40 -127
-56 -173 -62 -180 -61 -376 4 -611 l31 -113 89 -98 c74 -82 101 -104 163 -134
156 -78 275 -106 442 -106 135 0 305 25 344 52 14 10 30 18 35 18 5 0 32 -18
61 -39 102 -77 113 -79 644 -113 l477 -30 398 66 c548 92 786 149 1238 297
381 124 690 247 990 394 394 194 664 428 890 773 83 127 130 230 160 347 42
166 42 185 -19 715 -60 513 -90 692 -155 905 -31 103 -43 163 -55 291 -32 321
-19 419 86 669 142 335 198 637 185 995 -10 276 -50 458 -130 600 -76 134
-361 443 -583 633 -64 54 -143 136 -214 223 l-112 136 38 89 c36 87 39 90 93
119 82 44 144 101 200 185 68 102 91 168 104 306 l11 117 37 -5 c96 -13 187
99 224 275 42 198 -18 418 -149 547 -34 33 -80 68 -102 79 l-42 18 -4 97 c-7
153 -59 241 -173 292 -79 36 -211 36 -342 0z m247 -231 c24 -18 25 -22 25
-149 0 -115 3 -132 20 -152 23 -26 74 -49 108 -49 13 0 32 -9 43 -21 10 -12
30 -27 44 -34 15 -8 42 -45 68 -93 38 -72 42 -86 42 -149 0 -50 -4 -74 -15
-83 -8 -7 -17 -28 -21 -49 -5 -29 -65 -164 -80 -180 -2 -2 -23 12 -47 32 -37
30 -56 37 -128 48 -46 7 -75 15 -64 17 31 6 64 42 74 80 15 51 -7 105 -48 121
-14 6 -123 22 -241 36 -245 30 -266 35 -335 80 l-50 32 -232 19 c-128 10 -233
21 -233 26 0 4 14 14 30 23 17 9 30 18 30 22 0 3 -37 3 -82 0 -46 -4 -78 -4
-73 -2 6 3 174 36 374 74 336 65 367 72 400 99 56 45 75 86 73 152 -2 56 -2
56 35 74 32 16 169 41 238 45 11 0 31 -8 45 -19z m-541 -754 c95 -34 292 -126
348 -163 l23 -15 -35 -39 c-38 -42 -42 -67 -23 -131 27 -90 91 -113 166 -58
49 35 118 42 129 13 14 -35 -16 -127 -64 -198 -51 -74 -133 -135 -181 -135
-36 0 -77 -51 -108 -133 -68 -180 -177 -359 -301 -495 l-58 -62 -240 10 c-269
11 -346 25 -465 84 -190 96 -260 183 -301 379 -37 175 -20 477 30 531 10 12
22 36 26 54 4 19 33 64 67 105 68 81 91 126 82 161 -5 22 1 26 83 56 82 29
207 63 278 73 17 3 122 4 235 3 l205 -3 104 -37z m341 -1419 c72 -120 209
-258 350 -352 347 -232 520 -554 520 -966 0 -255 -70 -679 -121 -735 -10 -11
-23 -41 -27 -66 -5 -25 -43 -110 -84 -189 -42 -79 -104 -197 -138 -262 -45
-88 -99 -167 -202 -299 l-141 -180 -486 -428 c-457 -404 -506 -443 -826 -676
-258 -188 -370 -263 -465 -312 -245 -126 -377 -177 -639 -246 -149 -40 -179
-45 -291 -46 -69 -1 -135 1 -148 5 -21 7 -19 11 37 71 78 83 89 124 43 165
-19 17 -48 30 -75 34 -41 6 -53 2 -168 -61 -68 -37 -146 -81 -174 -98 -43 -28
-171 -64 -182 -52 -8 8 216 116 239 116 18 0 27 8 37 36 17 47 75 110 123 135
22 11 88 38 148 59 135 48 103 32 535 280 220 126 379 212 410 219 80 20 303
135 395 204 176 131 292 259 355 392 27 59 34 86 40 170 3 55 8 101 10 103 1
2 67 -1 145 -6 l142 -9 56 33 c44 27 67 34 106 34 28 0 75 9 104 20 40 15 58
18 73 10 25 -14 84 25 183 119 163 156 261 370 328 715 57 296 53 364 -28 447
-34 35 -35 38 -25 75 18 65 13 134 -15 199 -15 33 -29 74 -31 91 -4 27 -1 32
22 38 15 4 49 29 75 55 38 38 53 63 70 117 45 144 22 263 -62 324 -44 32 -55
31 -109 -12 -36 -27 -37 -30 -40 -106 -4 -70 -9 -88 -49 -164 -35 -68 -50 -87
-74 -94 -71 -22 -87 -163 -34 -289 16 -36 29 -91 33 -138 6 -62 13 -85 32
-108 13 -16 22 -33 19 -38 -3 -5 0 -39 8 -75 7 -36 12 -67 10 -68 -1 -2 -7
-57 -14 -123 -15 -173 -49 -300 -112 -424 -54 -106 -70 -129 -146 -216 -31
-35 -46 -45 -54 -37 -18 18 -60 -5 -113 -63 l-50 -55 -320 -14 -320 -15 -55
43 c-85 66 -119 154 -90 231 5 14 67 100 136 190 69 90 151 208 183 261 l56
97 145 54 c136 51 147 54 185 43 86 -24 132 6 142 93 5 40 2 48 -28 81 l-34
37 -134 -9 c-113 -8 -140 -7 -166 5 -27 13 -40 13 -81 3 -27 -7 -78 -15 -114
-17 -54 -4 -75 0 -123 21 -32 14 -67 26 -78 26 -12 0 -39 -17 -60 -39 -33 -32
-39 -45 -39 -80 0 -37 6 -47 47 -86 l47 -44 -94 -98 c-111 -115 -153 -182
-197 -312 -20 -61 -40 -102 -55 -113 -89 -70 -267 -139 -403 -157 -102 -14
-352 -8 -383 8 -61 33 -122 165 -122 265 0 71 17 120 58 168 34 39 82 125 105
188 33 89 196 202 393 273 65 24 140 53 166 65 26 11 56 18 66 15 16 -4 23 4
37 41 22 56 16 107 -18 179 -14 29 -27 68 -30 87 -2 19 -13 62 -25 95 -11 33
-25 83 -31 110 -14 61 -53 119 -109 162 -37 28 -46 31 -74 22 -49 -14 -68 -44
-68 -110 0 -65 32 -201 57 -238 9 -14 20 -48 24 -76 4 -27 10 -57 13 -65 5
-12 -11 -23 -61 -44 -185 -79 -383 -219 -507 -360 -55 -63 -59 -71 -114 -243
-54 -170 -56 -182 -55 -278 1 -55 3 -110 5 -123 3 -20 -16 -31 -167 -105
l-170 -84 -44 24 c-30 15 -61 23 -96 23 -66 0 -95 -27 -103 -95 -5 -44 -3 -49
39 -92 44 -45 127 -93 163 -93 14 0 17 -5 12 -22 -4 -13 -10 -43 -13 -67 -4
-31 -21 -65 -60 -119 -146 -203 -267 -436 -348 -672 -13 -36 -51 -117 -85
-180 -41 -76 -89 -190 -141 -334 l-78 -220 29 -33 c40 -45 47 -91 24 -166 -15
-49 -37 -84 -118 -181 -54 -67 -106 -126 -116 -133 -13 -10 -204 -63 -224 -63
-3 0 -6 20 -6 45 0 48 17 92 44 114 10 8 16 29 16 55 0 22 11 75 24 116 65
203 68 247 24 359 l-33 83 32 97 c35 105 40 138 79 556 24 259 26 275 69 408
25 76 45 152 45 168 0 17 9 42 20 57 11 15 22 46 24 70 9 104 432 919 663
1274 80 124 509 634 622 740 245 230 546 385 881 453 75 15 89 15 188 1 59 -9
131 -24 160 -32 44 -14 58 -14 84 -3 61 25 89 120 49 170 -12 16 -17 34 -14
57 6 36 14 38 94 21 41 -9 114 -8 323 6 149 9 289 21 311 27 100 25 228 113
292 198 21 28 40 50 43 50 3 -1 30 -42 60 -93z m-2368 -2656 c161 -90 266
-116 455 -109 111 4 141 9 223 37 52 18 115 43 139 57 24 13 47 24 50 24 4 0
18 -25 30 -55 42 -101 162 -208 282 -251 l51 -19 -7 -50 c-11 -83 -102 -220
-227 -341 -120 -117 -266 -201 -413 -239 -93 -24 -143 -50 -162 -84 -12 -20
-152 -102 -567 -332 -491 -271 -556 -305 -605 -309 l-54 -5 -33 -60 c-44 -80
-86 -115 -139 -115 -43 0 -70 17 -101 65 -13 19 -15 38 -9 87 6 54 12 69 45
103 20 22 46 62 56 89 14 36 27 52 51 62 52 22 312 182 377 232 152 116 286
288 345 442 39 101 58 182 71 302 8 77 17 110 50 181 63 133 64 215 3 287 -22
26 -24 50 -5 50 4 0 46 -22 94 -49z m-346 -373 c-80 -373 -83 -378 -299 -588
l-148 -144 19 50 c101 254 136 335 153 350 10 9 24 36 30 58 6 23 45 87 89
146 98 132 145 233 155 329 6 64 10 73 34 85 14 8 27 13 28 12 2 -2 -26 -135
-61 -298z m3399 -368 c47 -272 102 -585 123 -695 36 -197 37 -204 37 -450 0
-236 -1 -252 -22 -290 -11 -22 -24 -63 -28 -90 -17 -121 -208 -392 -367 -523
-239 -195 -764 -476 -1183 -633 -170 -64 -748 -242 -955 -294 -437 -110 -795
-155 -1292 -162 -306 -4 -368 -3 -430 11 -132 30 -243 115 -308 238 -45 84
-53 194 -21 278 27 73 138 242 232 355 363 435 921 682 1734 769 274 29 439
31 671 6 121 -13 227 -20 248 -16 43 8 108 63 126 105 16 40 10 71 -22 94 -23
17 -65 22 -335 42 -169 13 -309 23 -311 24 -8 3 1450 1141 1462 1141 8 0 13 6
12 14 -1 19 538 601 542 584 1 -7 40 -236 87 -508z m-4216 -1667 c72 -37 77
-38 180 -38 58 0 119 4 134 8 16 4 -15 -22 -70 -59 -233 -157 -511 -417 -598
-557 -88 -144 -133 -321 -121 -486 5 -75 9 -90 41 -139 20 -29 34 -57 30 -60
-4 -4 -111 -7 -238 -7 -268 0 -295 6 -402 92 -79 65 -90 83 -121 198 -31 114
-37 275 -15 380 15 69 92 287 129 360 38 78 110 181 169 246 54 58 73 66 73
29 0 -30 78 -86 138 -99 76 -16 224 -14 295 5 75 19 177 71 242 123 28 22 52
40 55 41 3 0 38 -17 79 -37z"/>
<path d="M6311 8305 c-80 -69 -91 -72 -250 -80 l-143 -8 4 -47 c7 -67 49 -123
118 -158 45 -22 68 -27 130 -27 95 0 150 25 236 110 69 68 86 111 64 166 -13
30 -75 89 -95 89 -6 0 -35 -20 -64 -45z"/>
<path d="M6585 8296 c-95 -41 -122 -165 -61 -283 57 -112 149 -144 321 -112
115 21 151 60 143 156 -9 106 -72 139 -167 89 -28 -14 -57 -23 -69 -19 -19 4
-21 11 -16 47 6 50 -10 83 -55 113 -39 26 -54 28 -96 9z"/>
<path d="M6124 7586 c-47 -21 -77 -77 -69 -126 13 -78 74 -118 158 -105 65 11
97 32 118 78 24 54 24 88 -1 119 -33 43 -144 61 -206 34z"/>
<path d="M5148 5309 c-19 -7 -36 -28 -53 -64 -26 -52 -26 -54 -10 -89 20 -43
89 -80 129 -70 14 3 40 22 57 41 76 87 62 155 -36 182 -47 13 -51 13 -87 0z"/>
<path d="M6423 5119 c-43 -12 -78 -63 -78 -112 0 -33 7 -45 47 -83 26 -24 51
-44 56 -44 23 0 79 50 106 93 28 46 29 49 14 81 -11 22 -31 40 -62 54 -25 12
-47 22 -48 21 -2 0 -17 -5 -35 -10z"/>
</g>
</svg>
