<?xml version="1.0" standalone="no"?>
<!DOCTYPE svg PUBLIC "-//W3C//DTD SVG 20010904//EN"
 "http://www.w3.org/TR/2001/REC-SVG-20010904/DTD/svg10.dtd">
<svg version="1.0" xmlns="http://www.w3.org/2000/svg"
 width="1024.000000pt" height="1024.000000pt" viewBox="0 0 1024.000000 1024.000000"
 preserveAspectRatio="xMidYMid meet">
<metadata>
Created by potrace 1.10, written by Peter Selinger 2001-2011
</metadata>
<g transform="translate(0.000000,1024.000000) scale(0.100000,-0.100000)"
fill="#000000" stroke="none">
<path d="M5436 8125 c-47 -37 -52 -48 -46 -128 2 -32 46 -118 118 -234 43 -69
50 -86 55 -149 l6 -71 -107 -105 c-169 -166 -385 -344 -1547 -1280 -930 -749
-1115 -893 -1260 -985 -188 -120 -215 -148 -215 -220 0 -82 50 -130 106 -104
14 6 412 297 885 647 838 619 862 636 896 629 20 -3 104 -8 187 -10 210 -4
334 -40 466 -135 36 -26 109 -72 162 -103 l97 -57 -92 -134 c-51 -74 -127
-185 -169 -248 -199 -294 -414 -561 -739 -920 -114 -126 -285 -278 -432 -387
-90 -66 -122 -157 -76 -215 17 -22 28 -26 69 -26 65 0 144 31 200 77 25 21
235 238 465 482 l420 444 261 395 261 395 113 -129 c436 -499 765 -1064 996
-1712 87 -243 189 -628 263 -985 68 -330 78 -408 205 -1522 19 -165 21 -218
14 -302 -11 -117 0 -156 55 -195 39 -28 118 -36 136 -14 8 9 23 88 35 178 l21
161 -77 626 c-84 680 -100 789 -159 1078 -140 680 -315 1209 -564 1698 -243
479 -495 846 -831 1211 l-102 110 144 373 c161 416 185 504 204 758 19 238
-12 487 -92 733 -59 182 -97 252 -184 338 -41 39 -80 72 -87 72 -8 0 -35 -16
-61 -35z m181 -1027 c-6 -175 -21 -297 -58 -443 -16 -67 -204 -613 -214 -623
-1 -2 -38 20 -81 48 -173 113 -400 206 -609 249 -53 11 -99 21 -101 23 -2 2
63 61 144 130 81 70 318 275 527 456 209 182 384 331 389 331 5 1 6 -73 3
-171z"/>
<path d="M6962 3170 c0 -8 6 -31 13 -50 7 -19 13 -28 13 -20 0 8 -6 31 -13 50
-7 19 -13 28 -13 20z"/>
</g>
</svg>
