<?xml version="1.0" standalone="no"?>
<!DOCTYPE svg PUBLIC "-//W3C//DTD SVG 20010904//EN"
 "http://www.w3.org/TR/2001/REC-SVG-20010904/DTD/svg10.dtd">
<svg version="1.0" xmlns="http://www.w3.org/2000/svg"
 width="1024.000000pt" height="1024.000000pt" viewBox="0 0 1024.000000 1024.000000"
 preserveAspectRatio="xMidYMid meet">
<metadata>
Created by potrace 1.10, written by Peter Selinger 2001-2011
</metadata>
<g transform="translate(0.000000,1024.000000) scale(0.100000,-0.100000)"
fill="#000000" stroke="none">
<path d="M4945 8315 c-5 -2 -36 -9 -67 -15 l-56 -11 26 -57 c37 -81 43 -247
13 -379 -62 -273 -265 -739 -539 -1238 -110 -200 -343 -579 -365 -592 -6 -4
-19 4 -29 18 -54 74 -545 800 -563 834 -29 50 -88 82 -178 96 -92 15 -253 -18
-310 -64 -36 -28 -37 -30 -21 -48 9 -10 42 -23 73 -30 140 -28 246 -76 319
-142 29 -27 139 -184 307 -437 143 -217 264 -401 269 -408 8 -13 -242 -320
-457 -560 -314 -350 -715 -719 -1032 -949 -60 -44 -110 -86 -110 -94 0 -26 84
-15 180 24 134 55 500 261 618 347 156 114 685 610 898 842 l99 107 67 -97
c256 -368 611 -849 822 -1111 86 -106 160 -199 165 -206 13 -17 -85 -126 -339
-380 -605 -606 -1106 -992 -1731 -1335 -139 -76 -215 -114 -534 -268 -148 -71
-201 -111 -184 -139 35 -58 291 4 654 157 209 88 576 271 740 370 509 305
1018 693 1509 1150 83 78 155 140 159 138 5 -2 367 -367 805 -813 438 -445
830 -839 870 -875 91 -79 162 -123 259 -158 l73 -27 540 0 c559 0 636 5 666
42 22 26 -106 134 -269 228 -856 492 -1718 1050 -2197 1420 -105 80 -513 434
-514 445 0 3 36 48 80 100 392 462 838 1090 1169 1645 55 93 271 373 373 483
103 111 125 207 68 293 -81 121 -332 315 -453 350 -41 11 -183 -20 -298 -66
-125 -50 -232 -73 -892 -195 l-598 -110 -140 6 c-77 4 -140 9 -140 11 0 5 549
1023 567 1052 8 13 28 69 44 124 l29 101 -22 44 c-39 81 -239 303 -317 354
-40 25 -77 33 -106 23z m1684 -1801 c21 -15 23 -22 16 -68 -21 -159 -146 -398
-451 -863 -249 -378 -591 -849 -806 -1109 l-84 -102 -292 322 c-215 238 -363
414 -567 674 -152 194 -275 360 -273 368 4 20 461 673 471 674 4 0 42 -20 85
-45 42 -24 117 -61 165 -80 83 -34 93 -35 165 -29 42 3 174 27 292 51 309 65
1157 221 1210 222 28 1 55 -5 69 -15z"/>
</g>
</svg>
