<?xml version="1.0" standalone="no"?>
<!DOCTYPE svg PUBLIC "-//W3C//DTD SVG 20010904//EN"
 "http://www.w3.org/TR/2001/REC-SVG-20010904/DTD/svg10.dtd">
<svg version="1.0" xmlns="http://www.w3.org/2000/svg"
 width="1024.000000pt" height="1024.000000pt" viewBox="0 0 1024.000000 1024.000000"
 preserveAspectRatio="xMidYMid meet">
<metadata>
Created by potrace 1.10, written by Peter Selinger 2001-2011
</metadata>
<g transform="translate(0.000000,1024.000000) scale(0.100000,-0.100000)"
fill="#000000" stroke="none">
<path d="M4971 9714 c-292 -64 -579 -218 -802 -432 -354 -338 -537 -684 -618
-1167 -62 -367 -74 -793 -31 -1150 5 -44 19 -215 30 -380 12 -165 25 -326 30
-359 9 -58 8 -61 -55 -220 -65 -164 -123 -348 -170 -535 -14 -58 -53 -201 -86
-320 -100 -359 -160 -666 -194 -996 -22 -206 -31 -730 -16 -920 20 -252 83
-636 110 -669 7 -9 -10 -33 -62 -87 -105 -109 -162 -227 -187 -391 -9 -63 -7
-106 15 -298 33 -293 52 -352 141 -429 58 -51 109 -71 188 -71 l68 0 107 73
c58 40 111 77 118 80 8 5 15 -11 23 -50 25 -122 97 -221 212 -290 53 -32 54
-32 258 -44 128 -8 215 -9 231 -3 14 5 60 48 103 96 64 72 83 88 106 88 26 0
30 4 35 38 4 20 8 42 9 47 2 6 6 -26 10 -70 16 -191 56 -300 145 -397 89 -97
107 -105 257 -113 l132 -7 73 47 74 47 64 149 c36 82 66 149 67 149 1 0 17
-45 34 -101 37 -119 79 -173 163 -209 49 -22 58 -22 162 -13 101 9 115 13 174
48 74 44 164 132 205 202 l30 49 48 -72 c79 -119 192 -198 363 -257 286 -97
649 3 863 238 156 171 232 387 204 585 -7 45 -26 121 -43 169 -17 47 -34 102
-38 121 -4 19 -15 49 -24 67 -9 18 -17 46 -17 63 0 17 -15 61 -34 98 -19 37
-39 88 -46 112 -7 25 -27 70 -45 100 -61 102 -89 198 -100 350 -11 141 32 584
95 975 47 296 55 384 54 650 0 199 -5 285 -23 420 -39 292 -127 599 -255 885
-52 114 -157 313 -196 370 -10 14 -46 79 -80 145 -53 101 -76 161 -143 385
-43 146 -82 292 -87 325 -4 33 -19 87 -34 121 -15 37 -31 103 -40 170 -13 98
-12 168 6 674 27 751 19 855 -94 1200 -60 185 -80 221 -154 289 -47 43 -62 51
-82 46 -20 -5 -33 2 -66 33 -82 78 -194 154 -321 217 -216 107 -388 146 -645
144 -92 -1 -181 -7 -219 -15z m473 -229 c116 -20 267 -70 330 -108 129 -79
258 -181 363 -289 l71 -73 51 -169 51 -168 0 -817 0 -817 31 -99 c17 -55 37
-107 43 -115 7 -8 21 -62 30 -120 43 -256 225 -705 465 -1150 67 -123 81 -160
158 -415 95 -316 106 -364 129 -543 20 -153 23 -491 5 -637 -6 -55 -43 -283
-81 -506 -89 -513 -97 -593 -81 -753 7 -66 15 -152 17 -191 2 -38 6 -76 9 -82
2 -7 0 -13 -5 -13 -16 0 -11 -36 9 -61 36 -48 191 -299 191 -311 0 -21 40
-141 54 -163 7 -11 30 -69 52 -130 37 -106 39 -114 39 -240 0 -119 -2 -137
-29 -210 -25 -66 -39 -89 -85 -133 -73 -70 -178 -135 -276 -168 -68 -23 -97
-27 -195 -28 -169 -1 -250 20 -338 89 -84 65 -96 91 -148 315 -35 153 -36 160
-50 515 -7 198 -11 374 -8 391 6 31 7 32 73 38 121 12 252 96 267 173 5 26 0
37 -31 72 -21 23 -48 44 -61 47 -14 4 -63 -10 -133 -36 l-110 -43 -50 22 c-61
26 -113 27 -167 2 -44 -20 -84 -63 -84 -91 0 -10 29 -36 70 -64 39 -25 70 -51
70 -57 0 -6 -20 -50 -44 -97 -42 -83 -44 -89 -35 -137 5 -27 13 -144 18 -259
9 -230 3 -283 -43 -417 -14 -41 -39 -119 -55 -174 -27 -90 -37 -108 -97 -180
-37 -44 -69 -80 -73 -80 -3 0 -34 8 -67 19 -59 18 -62 20 -88 75 -50 109 -86
395 -86 694 0 203 1 209 27 270 36 84 38 172 5 217 -13 17 -22 33 -20 34 78
53 125 117 113 156 -8 25 -69 78 -99 86 -14 3 -37 -1 -55 -11 -17 -8 -67 -18
-112 -22 -65 -5 -83 -10 -94 -27 -17 -23 -20 -108 -5 -135 6 -12 -14 -192 -65
-577 l-74 -559 -46 -110 -46 -110 -61 -34 -60 -33 -54 53 c-51 51 -54 56 -78
158 -14 58 -32 156 -40 216 -8 61 -20 125 -27 143 -12 35 -14 124 -8 397 2 94
-1 181 -7 212 l-11 52 56 22 c31 13 76 43 103 69 64 62 66 96 8 152 -23 21
-49 38 -58 38 -9 0 -41 -12 -71 -25 -40 -19 -89 -29 -182 -40 -138 -15 -176
-29 -208 -74 -32 -44 -37 -85 -15 -115 11 -14 24 -26 31 -26 22 0 73 -73 73
-105 0 -17 14 -50 30 -74 67 -98 66 -206 -3 -401 l-44 -125 -89 -79 c-49 -43
-107 -93 -129 -111 l-40 -33 -118 13 c-112 12 -120 14 -152 45 -65 63 -102
209 -86 340 5 36 5 72 1 80 -4 8 -10 83 -12 166 l-5 151 56 -19 c64 -23 131
-20 161 7 25 22 43 79 35 105 -4 11 -74 75 -156 141 -144 116 -149 121 -149
157 0 103 -128 146 -175 58 -14 -26 -17 -48 -13 -102 8 -97 40 -173 100 -239
l50 -55 -7 -68 c-14 -138 -78 -338 -137 -427 -44 -67 -108 -105 -172 -105 -78
1 -141 21 -167 54 -57 73 -95 318 -70 459 26 148 60 220 184 385 28 38 32 52
32 105 1 34 7 72 14 85 18 34 15 117 -8 202 -69 252 -103 837 -71 1215 6 66
49 334 97 595 l86 475 158 493 c122 380 156 497 148 510 -8 13 -4 37 14 95
l25 79 -38 366 c-22 202 -47 428 -56 502 -22 171 -25 606 -6 760 70 555 202
874 481 1164 225 233 489 390 752 445 119 25 357 28 483 6z"/>
<path d="M5901 5749 c-34 -13 -173 -132 -206 -176 -16 -21 -62 -79 -102 -129
-82 -103 -139 -193 -171 -272 -22 -54 -245 -986 -257 -1074 -12 -87 -6 -321
10 -413 25 -140 34 -166 75 -207 35 -35 42 -38 97 -38 80 0 98 14 84 66 -20
76 -34 249 -27 344 14 218 82 665 151 1000 34 162 41 182 90 270 83 147 148
234 261 345 60 59 110 118 119 139 15 35 15 40 -2 73 -24 46 -89 85 -122 72z"/>
<path d="M6921 4193 c-1 -17 4 -35 9 -38 12 -7 12 22 0 50 -7 17 -9 15 -9 -12z"/>
<path d="M6108 3615 c8 -30 17 -53 19 -51 6 5 -18 96 -27 101 -4 2 0 -20 8
-50z"/>
</g>
</svg>
