<?xml version="1.0" standalone="no"?>
<!DOCTYPE svg PUBLIC "-//W3C//DTD SVG 20010904//EN"
 "http://www.w3.org/TR/2001/REC-SVG-20010904/DTD/svg10.dtd">
<svg version="1.0" xmlns="http://www.w3.org/2000/svg"
 width="1024.000000pt" height="1024.000000pt" viewBox="0 0 1024.000000 1024.000000"
 preserveAspectRatio="xMidYMid meet">
<metadata>
Created by potrace 1.10, written by Peter Selinger 2001-2011
</metadata>
<g transform="translate(0.000000,1024.000000) scale(0.100000,-0.100000)"
fill="#000000" stroke="none">
<path d="M6145 8165 c-61 -18 -121 -52 -166 -92 l-39 -36 84 -79 c183 -171
283 -354 321 -592 21 -126 22 -996 2 -996 -7 0 -130 -11 -273 -25 -599 -57
-1775 -165 -1800 -165 l-26 0 7 538 c4 362 11 572 21 646 12 98 12 112 -2 142
-18 37 -75 92 -146 139 -70 48 -301 230 -332 264 -38 39 -75 40 -199 5 -111
-32 -139 -45 -166 -80 -47 -60 -17 -137 96 -249 130 -129 135 -154 173 -882
17 -322 30 -586 28 -588 -11 -8 -2013 -176 -2098 -175 -154 0 -398 43 -608
107 -46 13 -85 23 -87 21 -4 -4 40 -216 46 -221 2 -2 72 -58 154 -124 181
-145 353 -263 454 -312 l75 -35 182 17 c136 12 365 50 900 147 562 103 743
133 839 137 l122 6 -3 -54 c-26 -421 -59 -667 -130 -979 -115 -494 -274 -885
-502 -1232 -240 -364 -649 -768 -1137 -1123 -67 -48 -120 -94 -120 -103 0 -26
68 -37 144 -23 176 33 485 212 806 468 136 108 406 371 532 518 298 345 567
822 706 1250 103 318 164 662 203 1148 9 111 18 204 21 207 3 3 2069 207 2126
210 13 0 2 -2272 -12 -2415 -6 -66 -18 -178 -26 -250 -24 -205 -35 -476 -24
-610 11 -146 21 -202 61 -325 67 -208 135 -290 239 -290 104 0 171 97 216 315
15 72 17 250 20 1838 l4 1757 27 0 c15 0 369 16 787 35 418 19 810 35 870 35
61 0 279 -11 485 -25 339 -23 379 -24 425 -10 69 20 105 60 118 133 9 46 -12
92 -74 157 -103 109 -178 155 -379 234 l-185 73 -70 -17 c-63 -14 -428 -51
-1445 -145 -179 -17 -369 -35 -424 -40 -54 -6 -107 -10 -117 -10 -20 0 -20 11
-13 578 4 374 11 613 19 680 16 129 8 159 -61 229 -64 64 -120 92 -386 194
-117 45 -215 82 -218 84 -3 1 -23 -3 -45 -10z"/>
</g>
</svg>
