<?xml version="1.0" standalone="no"?>
<!DOCTYPE svg PUBLIC "-//W3C//DTD SVG 20010904//EN"
 "http://www.w3.org/TR/2001/REC-SVG-20010904/DTD/svg10.dtd">
<svg version="1.0" xmlns="http://www.w3.org/2000/svg"
 width="1024.000000pt" height="1024.000000pt" viewBox="0 0 1024.000000 1024.000000"
 preserveAspectRatio="xMidYMid meet">
<metadata>
Created by potrace 1.10, written by Peter Selinger 2001-2011
</metadata>
<g transform="translate(0.000000,1024.000000) scale(0.100000,-0.100000)"
fill="#000000" stroke="none">
<path d="M6274 8761 c-53 -25 -63 -34 -81 -77 -37 -85 -46 -136 -47 -239 0
-192 -28 -145 512 -867 l477 -637 109 -206 c170 -322 190 -416 183 -842 -5
-359 -18 -427 -147 -767 -50 -132 -92 -241 -94 -243 -2 -2 -41 20 -87 50 -138
89 -398 333 -598 560 -209 237 -274 301 -396 393 -167 125 -296 178 -460 191
-96 7 -123 -4 -183 -72 -72 -82 -95 -256 -57 -435 14 -67 32 -113 88 -215 66
-121 84 -144 262 -340 106 -115 215 -237 244 -270 62 -71 125 -195 141 -280
19 -99 57 -227 95 -314 19 -46 35 -91 35 -102 0 -21 59 -178 95 -254 14 -27
45 -99 70 -160 26 -60 68 -144 94 -185 26 -41 55 -94 64 -117 9 -23 74 -120
144 -216 123 -168 130 -175 217 -233 50 -32 108 -75 128 -94 20 -19 47 -42 60
-51 21 -15 23 -26 29 -160 12 -251 59 -457 168 -734 27 -66 60 -158 75 -205
37 -112 137 -318 174 -358 34 -37 68 -41 102 -14 15 12 23 29 22 49 0 16 -52
142 -115 279 -113 245 -116 253 -190 534 -72 273 -76 291 -82 433 l-7 147 61
0 c72 0 118 20 132 57 22 59 -62 103 -199 103 l-75 0 -101 65 c-56 36 -136 98
-178 138 -67 63 -95 101 -218 301 -77 126 -140 236 -140 245 0 9 -12 36 -26
61 -51 88 -135 319 -213 585 -44 149 -92 302 -106 340 -59 157 -179 322 -351
482 -159 148 -158 120 -5 279 80 84 132 146 136 163 4 21 -3 46 -30 97 -20 37
-42 75 -49 84 -7 8 -34 45 -60 83 l-47 67 143 -92 c160 -105 232 -167 325
-283 36 -44 175 -194 310 -332 213 -220 261 -264 373 -343 l128 -90 -5 -74
c-5 -70 -4 -76 20 -100 51 -51 134 -20 124 47 -7 47 69 282 142 442 66 145
136 469 162 749 13 147 18 253 14 316 -20 315 -109 577 -288 848 -46 70 -112
172 -148 227 -35 55 -235 323 -444 595 -209 272 -388 507 -398 522 -9 15 -17
38 -17 50 0 17 8 9 31 -32 33 -60 109 -144 151 -166 15 -8 53 -14 86 -14 48 0
66 5 104 30 46 30 126 110 145 144 12 22 -29 63 523 -539 221 -242 411 -449
421 -459 14 -15 21 -17 31 -8 11 9 40 -41 147 -255 l132 -266 16 -571 16 -571
-32 -444 c-28 -402 -30 -446 -16 -467 24 -37 58 -40 99 -9 20 15 36 35 36 44
0 54 61 1068 65 1078 9 26 -25 788 -40 881 -20 120 -64 254 -117 352 -22 41
-65 122 -96 180 -47 89 -153 239 -186 262 -6 4 -17 3 -24 -1 -11 -6 -101 85
-346 352 -182 198 -331 365 -331 372 0 12 50 75 59 75 3 0 96 -83 208 -185
184 -169 207 -193 252 -272 95 -163 292 -358 504 -501 135 -89 174 -134 268
-304 l68 -123 26 -191 26 -191 -14 -738 c-13 -724 -13 -739 6 -764 24 -33 67
-49 90 -35 9 6 19 24 23 40 4 16 12 288 18 604 6 316 14 664 18 772 l6 198
130 -248 c72 -136 150 -292 174 -347 24 -55 48 -107 53 -117 5 -9 14 -62 19
-118 10 -95 5 -158 -94 -1168 -58 -587 -110 -1094 -115 -1127 -22 -134 -3
-286 56 -465 69 -207 151 -331 582 -883 220 -281 287 -360 400 -467 123 -118
139 -130 172 -130 23 0 43 7 53 18 38 42 27 57 -227 329 l-243 262 -263 383
c-265 386 -298 444 -335 584 -23 86 -35 250 -35 489 0 185 8 291 70 920 59
602 74 730 101 845 22 93 33 171 36 250 10 229 -32 353 -305 910 -98 201 -187
383 -197 404 -23 48 -78 104 -120 121 -29 13 -33 20 -53 109 -12 52 -22 108
-22 125 0 22 -9 37 -39 60 -38 30 -202 267 -291 421 -93 162 -251 376 -392
532 -18 20 -67 58 -108 86 -44 29 -120 97 -185 164 -67 71 -131 127 -165 146
-54 31 -163 62 -215 62 -42 0 -96 -31 -117 -66 l-19 -32 -57 34 c-126 76 -318
109 -374 65 -24 -20 -26 -20 -99 -1 -95 25 -93 25 -165 -9z m146 -136 c9 -8
56 -35 105 -59 52 -27 114 -68 148 -99 l58 -53 -76 -73 c-105 -99 -110 -98
-192 42 -78 135 -126 244 -110 251 24 9 51 6 67 -9z m828 -63 c42 -32 100 -73
128 -92 28 -18 59 -45 68 -61 17 -28 22 -105 8 -127 -14 -21 -352 250 -352
282 0 9 53 55 63 56 5 0 43 -26 85 -58z m-369 -26 c36 -25 86 -65 109 -89 41
-42 43 -46 30 -70 l-13 -25 -135 129 c-115 111 -129 127 -96 114 21 -8 68 -35
105 -59z m897 -490 c92 -107 171 -203 176 -213 4 -10 47 -79 96 -153 49 -74
88 -137 86 -138 -4 -6 -178 120 -224 162 -64 57 -122 136 -169 225 -29 55 -69
112 -117 163 -67 71 -73 81 -63 101 16 30 30 47 39 47 4 0 83 -87 176 -194z
m-2068 -2273 c67 -66 97 -105 122 -155 l33 -68 -26 -32 c-14 -18 -56 -66 -94
-107 l-68 -74 -52 94 c-64 116 -83 178 -90 295 -7 110 2 134 51 134 29 0 47
-12 124 -87z"/>
<path d="M3580 8288 c-52 -28 -108 -53 -125 -54 -108 -11 -120 -16 -208 -80
-76 -56 -144 -89 -499 -245 -268 -117 -440 -199 -492 -233 -168 -109 -281
-237 -406 -460 -74 -131 -84 -145 -123 -162 -89 -40 -160 -122 -490 -567 -294
-395 -328 -445 -394 -577 -82 -166 -79 -158 -307 -805 -66 -186 -75 -244 -52
-333 9 -35 16 -73 16 -85 0 -12 10 -51 21 -87 20 -65 169 -891 169 -941 0 -14
42 -233 94 -485 107 -527 121 -612 113 -686 -6 -61 8 -46 -292 -323 -82 -76
-161 -154 -175 -173 -13 -18 -72 -69 -131 -112 -80 -59 -108 -86 -112 -106 -7
-38 30 -74 76 -74 64 0 118 35 231 149 73 73 114 107 124 103 10 -3 13 -1 8 6
-4 7 73 90 194 209 l201 198 11 70 c12 78 5 269 -12 327 -6 21 -78 405 -160
855 -82 450 -163 865 -179 923 -37 131 -52 207 -58 290 -4 57 0 79 37 185 23
66 45 134 49 150 4 17 15 44 23 60 9 17 35 91 58 165 23 74 52 151 64 170 12
19 34 74 48 122 21 67 61 144 177 343 132 226 171 284 333 490 101 128 185
231 187 229 2 -2 -30 -65 -70 -141 -88 -163 -144 -285 -189 -408 -18 -49 -38
-99 -45 -110 -7 -11 -51 -148 -99 -305 l-87 -285 -13 -315 -13 -315 33 -34
c32 -34 33 -34 59 -17 14 9 30 27 35 39 5 12 14 123 19 247 10 221 11 229 65
465 51 222 74 299 142 475 14 36 35 90 47 120 11 30 24 60 28 65 4 6 64 136
134 290 70 154 140 296 156 315 16 19 61 98 100 175 91 179 244 385 372 499
88 79 90 79 335 182 135 57 248 102 250 99 3 -2 -24 -37 -60 -77 -284 -323
-341 -394 -435 -533 -89 -133 -158 -261 -183 -340 -12 -38 -33 -84 -45 -101
-13 -17 -56 -107 -95 -200 -39 -93 -77 -176 -85 -184 -7 -8 -16 -31 -20 -50
-4 -19 -13 -44 -19 -55 -7 -11 -21 -56 -30 -100 -10 -44 -22 -95 -28 -114 -6
-18 -70 -277 -143 -574 l-133 -541 21 -38 c27 -46 53 -49 90 -10 34 35 57 92
57 140 0 21 23 105 50 187 28 83 91 319 140 526 l89 376 119 294 c153 375 154
376 302 629 l125 213 254 283 c139 156 256 284 260 284 3 0 16 -16 28 -35 35
-53 74 -68 157 -63 128 9 192 54 406 293 29 33 57 61 61 63 4 2 15 -17 24 -41
15 -41 15 -48 1 -91 -9 -26 -16 -52 -16 -58 0 -19 -61 -109 -116 -174 -29 -34
-150 -146 -269 -249 -118 -104 -215 -192 -215 -197 0 -6 -60 -90 -132 -189
-149 -201 -136 -182 -172 -266 -14 -35 -37 -89 -50 -120 -14 -32 -35 -89 -47
-128 -12 -38 -28 -83 -36 -99 -9 -16 -25 -66 -38 -110 -12 -45 -34 -104 -48
-133 -40 -77 -127 -358 -134 -427 -3 -40 4 -132 22 -266 34 -258 108 -536 179
-679 26 -51 59 -125 73 -164 22 -62 39 -86 121 -175 52 -56 112 -112 133 -124
21 -11 39 -29 41 -39 2 -14 19 -5 83 43 143 109 266 237 476 498 183 227 210
264 240 340 27 67 60 117 152 236 126 164 195 233 285 287 108 66 113 55 16
-39 -99 -97 -153 -166 -202 -259 -28 -52 -32 -71 -33 -140 -1 -44 1 -90 5
-101 4 -12 41 -50 82 -85 126 -105 131 -116 88 -208 -14 -31 -32 -69 -39 -86
-8 -16 -19 -50 -25 -75 -7 -25 -29 -97 -50 -160 -21 -63 -46 -155 -55 -205 -9
-49 -30 -121 -46 -159 -16 -37 -29 -77 -29 -88 0 -26 -68 -299 -79 -319 -59
-102 -211 -402 -211 -414 0 -33 -132 -262 -289 -500 -150 -228 -175 -260 -285
-370 -142 -142 -221 -190 -333 -204 -37 -5 -80 -14 -94 -19 -34 -13 -59 -49
-59 -83 0 -42 24 -54 97 -51 l65 3 -7 -33 c-14 -65 -93 -275 -135 -358 -23
-47 -58 -102 -76 -122 -18 -21 -45 -61 -60 -90 -40 -79 -117 -189 -194 -278
-89 -103 -101 -167 -40 -200 39 -21 73 14 248 248 157 209 179 243 250 393 44
90 85 189 92 219 7 30 26 81 41 112 18 36 29 73 29 100 0 43 0 43 68 78 71 36
140 101 323 301 194 211 576 886 705 1244 40 112 103 325 165 563 78 295 111
406 145 481 43 92 47 98 99 125 70 37 150 117 185 186 16 31 40 98 55 150 23
83 27 119 31 280 5 166 4 189 -13 220 -23 43 -67 69 -132 77 -37 4 -55 12 -62
25 -12 22 -67 48 -101 48 -13 0 -71 -20 -131 -44 -89 -37 -122 -57 -194 -117
-99 -85 -203 -201 -275 -309 -28 -41 -54 -77 -58 -80 -13 -8 -60 -102 -60
-119 0 -19 -216 -345 -280 -422 -39 -48 -149 -153 -315 -302 l-54 -47 -79 101
-80 102 -115 301 c-64 166 -124 339 -134 386 -25 116 -25 439 -1 485 9 17 26
66 38 110 12 44 33 100 47 125 15 25 68 164 118 310 51 146 99 281 106 300 28
70 137 226 247 352 62 72 120 140 128 153 8 13 59 60 113 104 54 45 163 153
242 242 114 127 153 179 188 247 36 70 45 98 45 139 0 29 -5 58 -12 65 -7 7
-12 27 -12 45 0 48 -22 95 -85 179 -44 58 -63 75 -93 84 -52 14 -47 15 -152
-42z m-21 -205 c-13 -21 -32 -45 -44 -53 -11 -8 -49 -45 -85 -82 -40 -41 -84
-75 -114 -88 l-49 -22 -23 23 c-44 46 -37 58 61 109 50 26 128 70 175 98 47
28 89 51 93 52 5 0 -2 -17 -14 -37z m1051 -2382 c17 -32 12 -84 -26 -280 -39
-202 -39 -203 -127 -273 l-37 -30 -100 62 c-117 72 -118 74 -64 183 66 132
169 250 289 330 47 32 51 33 65 8z"/>
<path d="M8595 4893 c-48 -31 -57 -43 -44 -59 17 -21 58 -25 88 -10 40 21 47
45 19 72 l-23 22 -40 -25z"/>
<path d="M8144 4695 c-28 -28 -29 -62 -2 -78 13 -9 29 -3 73 27 55 36 56 38
39 57 -25 28 -79 25 -110 -6z"/>
<path d="M837 4632 c-39 -42 -23 -52 120 -72 112 -16 133 -14 133 16 0 22 -25
33 -120 53 -114 25 -113 25 -133 3z"/>
<path d="M1599 4622 c-27 -12 -81 -81 -75 -97 10 -27 53 -28 103 -4 35 17 67
24 118 25 53 1 72 5 80 18 16 26 -17 44 -93 51 -37 3 -78 8 -92 10 -14 2 -32
1 -41 -3z"/>
<path d="M2126 4554 c-4 -15 -5 -28 -3 -31 3 -2 53 -18 112 -34 88 -25 109
-28 116 -17 23 36 -5 62 -97 88 -96 28 -120 26 -128 -6z"/>
<path d="M7376 4536 c-52 -48 -55 -69 -11 -74 47 -6 89 7 125 37 34 28 34 28
17 55 -28 42 -72 36 -131 -18z"/>
</g>
</svg>
