<?xml version="1.0" standalone="no"?>
<!DOCTYPE svg PUBLIC "-//W3C//DTD SVG 20010904//EN"
 "http://www.w3.org/TR/2001/REC-SVG-20010904/DTD/svg10.dtd">
<svg version="1.0" xmlns="http://www.w3.org/2000/svg"
 width="1024.000000pt" height="1024.000000pt" viewBox="0 0 1024.000000 1024.000000"
 preserveAspectRatio="xMidYMid meet">
<metadata>
Created by potrace 1.10, written by Peter Selinger 2001-2011
</metadata>
<g transform="translate(0.000000,1024.000000) scale(0.100000,-0.100000)"
fill="#000000" stroke="none">
<path d="M7440 9220 c-48 -12 -80 -51 -80 -100 0 -65 24 -81 228 -154 162 -59
196 -75 300 -145 233 -155 400 -340 509 -561 25 -52 54 -104 64 -115 23 -27
47 -121 59 -236 30 -288 -91 -616 -324 -881 -40 -46 -86 -95 -102 -110 l-29
-27 -79 232 c-88 261 -159 410 -264 557 -86 122 -253 288 -365 365 -48 33
-111 79 -140 103 -105 87 -263 159 -387 176 -80 11 -154 -47 -154 -121 0 -52
47 -88 183 -142 275 -108 514 -291 695 -531 63 -84 65 -90 185 -433 66 -191
121 -351 121 -355 0 -16 -157 -92 -260 -126 -167 -55 -255 -68 -453 -64 l-172
3 -75 36 c-144 69 -286 220 -370 392 -34 71 -41 100 -55 212 -22 175 -31 203
-74 246 -42 42 -113 69 -139 52 -45 -28 -59 -227 -24 -343 111 -364 123 -389
252 -520 93 -95 151 -136 285 -203 330 -165 643 -155 1016 33 l116 59 18 -127
c9 -70 30 -219 45 -332 16 -113 43 -304 59 -425 17 -121 69 -499 116 -840 47
-341 95 -685 105 -765 11 -80 52 -559 91 -1065 l71 -920 6 -632 c7 -621 7
-632 28 -660 12 -15 37 -34 57 -42 33 -12 38 -11 66 8 24 17 36 40 57 104 40
125 41 249 5 812 -34 527 -135 2120 -151 2390 -39 639 -75 921 -255 1970
l-115 670 43 39 c281 257 353 340 440 504 59 112 111 269 132 400 24 140 17
363 -14 477 -67 243 -236 511 -471 746 -210 209 -408 320 -680 384 -72 16 -71
16 -120 5z"/>
<path d="M2680 8656 c-229 -93 -397 -195 -565 -345 -105 -94 -244 -249 -251
-281 -3 -14 -23 -65 -45 -113 -118 -260 -181 -579 -159 -806 34 -360 190 -636
464 -820 42 -29 76 -54 76 -56 0 -3 -24 -85 -54 -184 l-55 -178 -175 -1179
c-217 -1463 -220 -1488 -236 -2314 -5 -283 -15 -716 -20 -962 -12 -490 -10
-509 41 -552 41 -34 135 -38 164 -6 21 24 24 107 50 1300 14 684 15 705 65
1302 67 811 172 1617 261 2003 45 198 85 345 140 512 l50 151 57 6 c31 3 210
11 397 17 l340 12 85 34 c292 118 658 346 927 577 143 122 166 166 139 260
-19 65 -47 96 -87 96 -24 0 -45 -13 -92 -58 -68 -64 -272 -243 -354 -310 -103
-85 -307 -213 -456 -286 -146 -72 -160 -76 -362 -121 l-211 -46 -139 11 c-77
7 -148 15 -157 18 -15 6 -11 21 33 132 98 246 197 436 395 758 132 214 180
278 288 390 134 139 193 180 299 212 136 40 175 62 199 116 25 58 15 89 -41
129 -83 58 -168 34 -376 -105 -88 -59 -141 -103 -234 -193 -116 -113 -168
-184 -342 -467 -122 -199 -199 -340 -310 -568 l-149 -303 -67 54 c-143 113
-262 297 -304 472 -28 113 -30 313 -6 452 60 335 254 661 506 851 139 105 360
202 532 233 56 10 69 16 87 44 38 55 24 133 -29 161 -17 8 -56 14 -96 14 -60
-1 -87 -8 -223 -64z"/>
<path d="M9755 885 c-5 -2 -23 -6 -40 -10 l-30 -7 45 -14 c25 -8 46 -14 48
-14 1 0 2 11 2 25 0 24 -4 27 -25 20z"/>
</g>
</svg>
