<?xml version="1.0" standalone="no"?>
<!DOCTYPE svg PUBLIC "-//W3C//DTD SVG 20010904//EN"
 "http://www.w3.org/TR/2001/REC-SVG-20010904/DTD/svg10.dtd">
<svg version="1.0" xmlns="http://www.w3.org/2000/svg"
 width="1024.000000pt" height="1024.000000pt" viewBox="0 0 1024.000000 1024.000000"
 preserveAspectRatio="xMidYMid meet">
<metadata>
Created by potrace 1.10, written by Peter Selinger 2001-2011
</metadata>
<g transform="translate(0.000000,1024.000000) scale(0.100000,-0.100000)"
fill="#000000" stroke="none">
<path d="M6080 8883 c-321 -56 -885 -221 -1144 -335 -431 -189 -761 -559 -845
-948 -6 -25 -15 -88 -21 -140 -23 -191 -191 -1178 -220 -1285 -58 -219 -176
-525 -226 -584 -12 -15 -33 -47 -46 -72 -13 -24 -175 -280 -360 -569 -184
-289 -339 -536 -343 -550 -4 -14 -71 -90 -150 -170 -171 -175 -331 -392 -423
-575 -33 -66 -80 -147 -104 -180 -25 -33 -48 -74 -52 -90 -4 -17 -53 -108
-108 -204 l-101 -174 -43 -191 c-40 -176 -46 -218 -70 -525 -25 -327 -25 -337
-9 -490 28 -269 81 -399 224 -541 170 -170 339 -221 851 -260 265 -20 627 -9
847 26 80 12 101 12 165 -1 317 -65 730 -80 1075 -40 456 53 908 192 1357 417
548 274 981 628 1412 1153 l180 220 194 345 c241 431 320 611 424 974 93 322
122 480 177 986 60 555 64 907 13 1325 -37 311 -146 727 -290 1108 -35 95
-101 293 -145 442 -90 299 -108 345 -170 437 -90 133 -210 226 -359 279 -71
25 -125 32 -631 79 -484 44 -584 56 -789 95 -129 25 -237 44 -240 44 -3 -1
-16 -4 -30 -6z m198 -244 c161 -24 196 -37 351 -132 226 -139 260 -172 561
-557 371 -474 368 -468 461 -988 76 -431 89 -544 89 -777 0 -270 -21 -432 -90
-715 -91 -365 -163 -573 -399 -1149 -197 -480 -261 -621 -367 -812 -227 -409
-375 -604 -763 -1012 -166 -175 -330 -344 -364 -374 -204 -183 -462 -350 -714
-462 -161 -72 -1165 -389 -1273 -402 -122 -15 -1172 -1 -1265 16 -146 28 -266
92 -366 197 -74 77 -84 100 -103 229 -21 140 -20 304 4 579 22 261 58 439 115
575 67 160 174 384 252 529 156 288 235 402 662 961 l420 550 153 274 c84 151
163 286 174 300 93 113 273 648 363 1081 30 144 74 515 85 725 13 229 66 447
122 505 19 20 34 45 34 57 0 11 20 48 45 81 96 131 244 258 395 341 157 84
547 227 829 303 126 33 405 96 434 97 10 1 79 -8 155 -20z m1042 -119 c190
-28 365 -57 390 -65 75 -25 147 -80 191 -147 21 -34 39 -66 39 -72 0 -6 11
-28 25 -48 14 -20 25 -45 25 -54 0 -9 13 -40 29 -68 16 -28 56 -148 90 -266
34 -118 67 -224 73 -235 6 -11 33 -89 59 -172 27 -84 57 -170 67 -190 31 -60
69 -181 88 -273 9 -47 25 -102 36 -123 13 -27 34 -143 69 -395 l51 -357 -5
-325 c-4 -318 -6 -333 -56 -730 -67 -529 -89 -642 -178 -930 -130 -424 -383
-906 -693 -1325 -194 -262 -528 -586 -832 -808 -534 -389 -1113 -630 -1733
-722 -122 -19 -646 -32 -610 -16 11 5 178 71 370 146 193 75 375 151 405 167
95 53 421 273 533 361 182 142 356 299 533 480 381 388 652 769 890 1252 79
160 165 368 363 875 142 366 275 718 295 783 77 254 115 497 125 800 11 337
-12 719 -54 917 -68 317 -85 374 -161 549 -94 216 -202 385 -378 596 -95 114
-304 324 -416 419 l-45 38 35 -6 c19 -3 190 -28 380 -56z"/>
<path d="M5715 8080 c-195 -44 -412 -141 -569 -254 -179 -129 -400 -377 -481
-541 -44 -89 -99 -258 -120 -366 -23 -119 -30 -305 -16 -434 11 -97 16 -117
49 -174 84 -147 303 -232 482 -187 100 24 188 74 531 299 281 184 321 207 357
207 22 0 44 -4 47 -10 3 -5 17 -10 30 -10 28 0 155 -137 155 -168 0 -11 23
-69 51 -128 46 -100 52 -122 80 -294 73 -447 142 -738 195 -812 51 -73 150
-104 251 -79 188 46 348 165 420 313 61 124 63 141 93 658 l29 485 -54 520
-55 520 -35 72 c-59 120 -137 171 -385 252 -233 75 -455 120 -695 141 -168 14
-267 11 -360 -10z"/>
<path d="M5445 5990 c-3 -5 -15 -10 -26 -10 -19 0 -331 -166 -400 -213 -31
-21 -35 -29 -31 -56 3 -24 -4 -45 -27 -83 -20 -31 -35 -71 -38 -101 l-6 -49
31 6 c29 7 32 5 72 -65 82 -139 168 -413 205 -650 22 -145 30 -437 16 -583
-38 -384 -193 -1046 -337 -1441 -75 -203 -205 -578 -201 -581 1 -1 72 -8 158
-15 l156 -12 69 27 c218 83 418 227 645 464 201 209 333 399 470 677 96 196
156 361 189 525 39 188 54 760 25 937 -30 188 -105 369 -215 522 -33 46 -110
181 -170 300 -92 184 -117 224 -166 274 -62 63 -145 108 -232 126 -66 14 -179
14 -187 1z"/>
<path d="M4143 5185 c-34 -8 -94 -30 -133 -51 -138 -72 -316 -294 -525 -655
-198 -340 -451 -732 -634 -979 -223 -300 -297 -422 -370 -606 -164 -415 -119
-738 144 -1022 30 -33 55 -66 55 -74 0 -25 72 -88 114 -99 45 -12 710 4 876
22 258 27 469 136 692 359 149 150 259 330 321 527 56 174 63 253 87 968 11
322 33 540 75 765 36 190 2 408 -91 592 -35 69 -134 170 -202 206 -111 59
-269 77 -409 47z"/>
</g>
</svg>
