<?xml version="1.0" standalone="no"?>
<!DOCTYPE svg PUBLIC "-//W3C//DTD SVG 20010904//EN"
 "http://www.w3.org/TR/2001/REC-SVG-20010904/DTD/svg10.dtd">
<svg version="1.0" xmlns="http://www.w3.org/2000/svg"
 width="1024.000000pt" height="1024.000000pt" viewBox="0 0 1024.000000 1024.000000"
 preserveAspectRatio="xMidYMid meet">
<metadata>
Created by potrace 1.10, written by Peter Selinger 2001-2011
</metadata>
<g transform="translate(0.000000,1024.000000) scale(0.100000,-0.100000)"
fill="#000000" stroke="none">
<path d="M5892 9121 c-613 -102 -585 -97 -804 -168 -651 -210 -1155 -555
-1617 -1107 -428 -510 -776 -1159 -880 -1640 -48 -219 -68 -564 -37 -637 18
-43 52 -75 95 -90 28 -10 36 -9 59 8 59 44 63 65 72 306 8 225 14 266 65 455
21 76 176 486 190 500 2 2 89 -51 195 -117 l192 -120 87 -118 c60 -82 126
-193 216 -363 181 -345 187 -357 205 -435 15 -69 17 -70 78 -113 54 -38 68
-43 97 -38 39 8 67 41 84 101 14 51 1 101 -43 158 -18 24 -36 61 -40 82 -4 22
-16 51 -26 65 -9 14 -21 36 -25 50 -4 14 -16 39 -26 56 -11 17 -19 39 -19 48
0 25 -161 333 -218 417 -98 146 -212 261 -355 360 -81 56 -259 149 -286 149
-6 0 -11 4 -11 9 0 13 384 635 433 701 239 323 619 658 934 823 l72 37 78 -31
c43 -17 157 -71 253 -121 l175 -90 155 -210 c114 -154 159 -224 171 -263 9
-29 30 -73 48 -97 28 -39 141 -312 141 -341 0 -7 11 -32 24 -57 13 -25 60
-191 106 -370 80 -315 82 -327 76 -407 -4 -45 -11 -96 -16 -113 -29 -102 113
-179 191 -104 73 70 90 165 60 346 -48 294 -94 441 -283 908 -166 410 -171
421 -245 532 -152 228 -347 401 -574 507 l-79 38 87 38 c207 89 589 193 878
239 213 33 380 47 642 53 l271 6 244 -103 c134 -57 256 -114 271 -127 16 -13
38 -23 50 -23 41 0 171 -82 238 -149 73 -73 128 -173 149 -272 24 -107 -24
-367 -103 -564 -18 -44 -133 -260 -256 -480 -224 -399 -225 -401 -439 -685
-233 -308 -251 -330 -451 -567 -383 -453 -757 -1019 -946 -1431 -139 -304
-213 -518 -280 -809 -139 -608 -176 -1086 -156 -2048 17 -854 16 -836 81 -966
32 -63 42 -69 106 -69 104 0 139 56 94 153 -17 37 -23 109 -52 597 -56 980
-41 1354 82 1970 93 464 231 882 411 1241 97 194 149 284 307 524 257 393 485
692 787 1035 241 274 357 435 553 769 102 174 198 333 214 354 16 20 42 72 57
115 15 42 44 109 63 147 79 157 159 415 172 560 19 193 -57 394 -204 542 -73
74 -410 296 -538 355 -196 91 -485 165 -671 173 -85 4 -155 -6 -629 -84z"/>
<path d="M7846 3780 c7 -40 24 -76 23 -50 0 8 -7 31 -15 50 l-14 35 6 -35z"/>
</g>
</svg>
