<?xml version="1.0" standalone="no"?>
<!DOCTYPE svg PUBLIC "-//W3C//DTD SVG 20010904//EN"
 "http://www.w3.org/TR/2001/REC-SVG-20010904/DTD/svg10.dtd">
<svg version="1.0" xmlns="http://www.w3.org/2000/svg"
 width="1024.000000pt" height="1024.000000pt" viewBox="0 0 1024.000000 1024.000000"
 preserveAspectRatio="xMidYMid meet">
<metadata>
Created by potrace 1.10, written by Peter Selinger 2001-2011
</metadata>
<g transform="translate(0.000000,1024.000000) scale(0.100000,-0.100000)"
fill="#000000" stroke="none">
<path d="M4716 9035 l-37 -56 56 -61 c97 -104 146 -228 160 -403 8 -96 -9
-399 -31 -574 -14 -111 -78 -450 -86 -455 -5 -4 -2380 -177 -2415 -176 -17 0
-82 20 -145 44 -62 24 -166 61 -230 82 l-117 38 -96 -38 -96 -38 25 -32 c130
-172 196 -293 221 -412 13 -59 15 -365 15 -2194 0 -1356 -4 -2158 -10 -2215
-6 -49 -26 -166 -44 -260 -58 -285 -61 -315 -49 -413 14 -113 44 -200 99 -288
144 -232 311 -209 378 52 35 140 36 207 36 2769 0 1392 4 2536 9 2543 6 10
300 39 1132 112 618 55 1143 101 1167 104 42 6 42 5 36 -22 -17 -69 -112 -310
-174 -439 -156 -326 -319 -558 -575 -822 -333 -344 -694 -589 -1145 -781 -80
-34 -155 -71 -168 -83 l-23 -22 27 -23 c23 -20 33 -23 78 -17 205 26 535 149
876 327 388 201 789 533 1048 866 85 109 191 278 263 417 40 77 74 142 76 145
16 19 514 -297 743 -470 546 -414 854 -682 1181 -1029 182 -193 260 -243 399
-258 57 -6 60 -5 93 28 63 63 74 214 25 337 -127 314 -665 700 -1548 1112 -85
40 -312 140 -505 222 -192 83 -351 152 -353 153 -1 1 32 94 74 206 l77 205
1365 88 c750 49 1383 86 1406 84 56 -7 92 -32 119 -82 l22 -41 0 -2585 c0
-2835 5 -2618 -58 -2664 -25 -18 -42 -21 -125 -20 -170 3 -395 65 -715 198
-133 56 -139 57 -158 40 -10 -9 -19 -21 -19 -25 0 -4 96 -97 213 -207 305
-286 504 -515 588 -673 37 -70 91 -129 139 -154 44 -23 120 -30 164 -15 47 15
144 105 191 176 79 119 171 333 217 506 l23 83 5 2505 c5 2384 6 2510 24 2600
18 93 36 150 91 279 39 92 38 149 -1 198 -95 118 -427 303 -546 303 -15 0
-128 -25 -251 -55 l-222 -56 -1190 -88 c-654 -49 -1191 -88 -1192 -87 -1 1 25
165 58 366 32 201 66 439 74 530 9 91 22 196 31 233 13 62 13 71 -2 103 -9 20
-44 58 -78 85 -105 86 -413 225 -537 244 l-45 7 -38 -57z"/>
<path d="M4713 5590 c-18 -20 -33 -42 -33 -48 0 -6 16 -48 36 -94 34 -78 35
-86 25 -133 -43 -196 -441 -821 -776 -1220 -221 -263 -690 -675 -1200 -1056
-146 -108 -155 -116 -155 -136 0 -25 56 -12 166 35 314 138 667 350 1017 614
260 197 334 267 630 597 157 174 292 323 301 330 13 11 38 1 168 -70 250 -135
462 -266 698 -431 93 -65 1057 -856 1155 -948 101 -94 203 -140 311 -140 52 0
67 4 93 25 41 35 64 110 64 209 0 131 -42 212 -185 353 -105 104 -152 140
-313 236 -360 217 -889 449 -1620 712 -165 60 -304 112 -308 115 -10 9 319
424 379 481 22 20 59 51 84 68 40 29 101 108 99 128 -2 18 -302 275 -379 325
-153 99 -206 109 -257 48z"/>
</g>
</svg>
