<?xml version="1.0" standalone="no"?>
<!DOCTYPE svg PUBLIC "-//W3C//DTD SVG 20010904//EN"
 "http://www.w3.org/TR/2001/REC-SVG-20010904/DTD/svg10.dtd">
<svg version="1.0" xmlns="http://www.w3.org/2000/svg"
 width="1024.000000pt" height="1024.000000pt" viewBox="0 0 1024.000000 1024.000000"
 preserveAspectRatio="xMidYMid meet">
<metadata>
Created by potrace 1.10, written by Peter Selinger 2001-2011
</metadata>
<g transform="translate(0.000000,1024.000000) scale(0.100000,-0.100000)"
fill="#000000" stroke="none">
<path d="M5275 8811 c-55 -10 -158 -26 -230 -36 -303 -41 -556 -137 -874 -332
-509 -311 -988 -817 -1314 -1384 -73 -128 -348 -724 -399 -864 -115 -321 -170
-576 -208 -975 -18 -191 -62 -1159 -57 -1250 5 -97 40 -196 84 -242 23 -24 35
-28 79 -28 95 0 125 48 84 137 -18 42 -19 60 -8 635 10 555 12 596 30 643 17
41 21 79 23 210 4 153 6 167 49 330 83 307 185 592 308 857 60 132 63 135 81
119 8 -6 54 -23 101 -37 48 -13 137 -46 200 -73 231 -98 333 -167 548 -371
162 -154 183 -179 340 -395 176 -242 270 -404 324 -560 28 -79 134 -255 155
-255 13 0 144 -274 153 -320 23 -122 158 -165 210 -67 l18 35 -56 188 c-55
184 -57 189 -124 278 -37 50 -101 154 -141 231 -225 430 -437 722 -750 1036
-190 189 -282 259 -451 344 -108 54 -292 117 -397 135 -40 7 -73 15 -73 16 0
2 25 50 57 106 179 326 399 614 681 892 l90 89 30 -22 c17 -12 97 -44 179 -72
420 -143 741 -373 1003 -721 109 -144 188 -276 258 -433 64 -143 79 -175 91
-195 17 -28 120 -354 132 -420 11 -56 18 -70 55 -105 l42 -40 37 -185 c20
-102 44 -200 52 -218 23 -49 75 -84 131 -90 76 -7 76 -8 61 248 l-12 221 -67
115 c-72 123 -94 176 -164 405 -25 81 -68 193 -96 249 -27 57 -50 109 -50 117
0 25 -84 167 -125 213 -23 25 -73 97 -111 160 -87 145 -142 211 -312 384 -229
231 -419 372 -603 447 -81 33 -257 79 -304 79 -62 0 -60 15 12 67 393 291 840
452 1303 470 233 8 728 -13 830 -36 270 -61 455 -174 615 -373 139 -174 203
-314 275 -602 42 -167 49 -209 54 -331 3 -77 14 -271 23 -432 l17 -291 -39
-174 c-38 -173 -38 -173 -218 -575 -143 -320 -199 -434 -273 -555 -52 -84 -94
-159 -94 -166 0 -7 -64 -140 -143 -295 -157 -309 -216 -447 -271 -637 -152
-525 -190 -1313 -85 -1800 60 -275 191 -578 357 -820 175 -256 503 -621 571
-635 43 -9 78 15 109 75 37 74 35 78 -116 228 -206 203 -343 384 -466 616
-136 255 -225 516 -278 822 -20 114 -23 163 -23 424 0 340 18 508 80 776 54
230 219 666 310 819 30 50 184 346 344 659 349 686 392 797 433 1131 19 155
16 686 -5 874 -39 349 -129 634 -270 861 -165 263 -407 477 -648 570 -43 16
-143 45 -221 64 -132 31 -160 34 -363 40 -121 3 -278 8 -350 11 -99 3 -154 0
-230 -14z"/>
</g>
</svg>
