<?xml version="1.0" standalone="no"?>
<!DOCTYPE svg PUBLIC "-//W3C//DTD SVG 20010904//EN"
 "http://www.w3.org/TR/2001/REC-SVG-20010904/DTD/svg10.dtd">
<svg version="1.0" xmlns="http://www.w3.org/2000/svg"
 width="1024.000000pt" height="1024.000000pt" viewBox="0 0 1024.000000 1024.000000"
 preserveAspectRatio="xMidYMid meet">
<metadata>
Created by potrace 1.10, written by Peter Selinger 2001-2011
</metadata>
<g transform="translate(0.000000,1024.000000) scale(0.100000,-0.100000)"
fill="#000000" stroke="none">
<path d="M5930 8944 c-414 -87 -852 -223 -1097 -340 -208 -99 -453 -301 -591
-489 -126 -170 -204 -376 -227 -600 -11 -114 -195 -1190 -215 -1265 -61 -224
-180 -530 -224 -579 -9 -10 -29 -41 -44 -70 -15 -28 -176 -284 -359 -569 -183
-285 -337 -532 -344 -548 -7 -16 -72 -90 -145 -164 -164 -167 -347 -417 -436
-595 -34 -66 -80 -148 -104 -182 -25 -33 -49 -76 -56 -94 -6 -18 -55 -109
-109 -204 l-99 -172 -45 -199 c-41 -185 -46 -222 -69 -529 l-25 -330 19 -163
c11 -91 29 -194 41 -230 69 -210 191 -353 374 -441 132 -64 287 -92 659 -121
254 -20 638 -8 853 25 80 13 101 13 160 1 37 -8 120 -21 183 -30 761 -103
1529 36 2265 409 558 284 984 633 1418 1163 l174 213 189 336 c204 363 212
378 284 558 110 277 207 613 259 906 32 175 100 838 110 1061 28 648 -73 1231
-334 1923 -29 77 -90 264 -135 415 -103 346 -138 418 -260 540 -60 60 -106 97
-157 123 -140 73 -142 73 -778 132 -520 49 -613 60 -784 95 -107 22 -204 40
-215 39 -12 0 -73 -11 -136 -25z m307 -224 c160 -23 194 -36 352 -133 224
-137 252 -165 539 -532 142 -181 268 -344 279 -361 37 -52 100 -185 122 -257
26 -87 146 -757 162 -905 19 -185 7 -545 -24 -722 -54 -305 -192 -768 -332
-1114 -326 -807 -449 -1065 -671 -1417 -146 -231 -269 -383 -568 -699 -321
-341 -350 -370 -490 -482 -167 -134 -315 -228 -515 -328 -163 -82 -164 -82
-756 -271 -464 -149 -543 -171 -635 -181 -76 -8 -260 -8 -675 -1 -636 12 -624
11 -770 86 -105 54 -238 183 -255 246 -18 70 -40 250 -40 341 0 162 39 543 70
692 55 255 245 665 495 1069 40 64 261 363 491 665 l419 549 159 285 c87 157
170 297 183 311 46 50 166 362 249 647 104 358 158 683 185 1097 11 185 29
303 65 430 21 72 32 96 60 121 21 20 34 41 34 56 0 32 84 143 178 236 160 156
379 268 797 407 209 69 653 180 737 184 9 1 79 -8 155 -19z m1053 -120 c304
-44 364 -55 416 -79 85 -39 138 -91 176 -170 18 -36 40 -77 50 -90 10 -13 18
-33 18 -44 0 -11 12 -41 27 -66 14 -25 46 -110 70 -190 24 -81 55 -182 68
-226 35 -114 146 -434 188 -541 20 -49 44 -130 53 -180 10 -49 26 -106 36
-127 13 -26 35 -149 70 -390 l51 -352 -2 -310 -2 -310 -55 -439 c-30 -241 -68
-502 -84 -579 -110 -520 -321 -1003 -653 -1502 -159 -238 -317 -426 -529 -631
-518 -500 -1147 -858 -1799 -1023 -292 -74 -536 -104 -821 -99 l-187 3 367
144 c365 143 441 179 609 288 569 367 1103 894 1468 1448 153 232 287 475 380
683 87 197 555 1403 590 1520 106 359 149 760 126 1182 -16 294 -36 448 -86
670 -25 107 -45 201 -45 208 0 36 -169 396 -227 487 -166 253 -394 513 -643
729 l-55 47 35 -5 c19 -3 195 -28 390 -56z"/>
<path d="M5665 8159 c-205 -50 -362 -118 -527 -228 -235 -157 -473 -433 -558
-646 -84 -212 -121 -467 -101 -691 19 -206 67 -281 230 -362 66 -33 83 -37
171 -40 174 -7 209 9 665 308 269 176 326 210 357 210 20 0 40 -4 43 -10 3 -5
16 -10 28 -10 12 0 31 -8 43 -18 41 -34 113 -128 120 -157 4 -17 28 -77 54
-135 50 -110 50 -111 115 -512 27 -164 80 -397 117 -507 55 -167 199 -210 410
-121 196 82 322 239 363 450 10 52 25 258 38 530 l23 445 -52 510 c-33 316
-59 527 -69 555 -39 112 -126 194 -255 245 -403 158 -969 244 -1215 184z"/>
<path d="M5369 6056 c-44 -15 -233 -119 -346 -189 -79 -49 -83 -53 -83 -88 0
-22 -11 -52 -29 -80 -17 -26 -32 -65 -36 -96 l-7 -52 34 5 c32 5 34 3 68 -58
50 -91 106 -235 145 -374 70 -252 89 -421 82 -713 -4 -180 -10 -246 -36 -397
-54 -319 -119 -604 -207 -901 -59 -202 -93 -298 -169 -478 -67 -156 -141 -393
-128 -405 5 -4 76 -13 160 -19 l152 -13 93 38 c206 82 399 222 623 455 317
329 568 783 653 1179 33 153 42 276 44 610 2 272 0 326 -15 395 -44 196 -109
341 -219 495 -33 46 -107 178 -165 293 -137 275 -195 339 -354 388 -71 22
-205 25 -260 5z"/>
<path d="M4083 5256 c-29 -7 -81 -27 -116 -44 -129 -64 -326 -304 -504 -615
-176 -307 -458 -742 -660 -1019 -196 -267 -251 -352 -319 -493 -105 -219 -154
-399 -154 -568 1 -214 78 -404 231 -572 31 -33 61 -75 69 -94 17 -43 80 -88
133 -96 69 -11 855 23 945 40 157 30 298 95 443 205 318 243 509 584 544 975
3 39 15 293 25 565 19 489 29 602 75 860 44 247 -15 520 -149 691 -51 65 -145
132 -220 155 -68 22 -272 28 -343 10z"/>
</g>
</svg>
