<?xml version="1.0" standalone="no"?>
<!DOCTYPE svg PUBLIC "-//W3C//DTD SVG 20010904//EN"
 "http://www.w3.org/TR/2001/REC-SVG-20010904/DTD/svg10.dtd">
<svg version="1.0" xmlns="http://www.w3.org/2000/svg"
 width="1024.000000pt" height="1024.000000pt" viewBox="0 0 1024.000000 1024.000000"
 preserveAspectRatio="xMidYMid meet">
<metadata>
Created by potrace 1.10, written by Peter Selinger 2001-2011
</metadata>
<g transform="translate(0.000000,1024.000000) scale(0.100000,-0.100000)"
fill="#000000" stroke="none">
<path d="M5805 8930 c-126 -27 -534 -112 -905 -189 -618 -127 -677 -138 -700
-125 -14 8 -111 41 -215 72 l-191 58 -137 -45 c-75 -25 -137 -50 -137 -56 0
-6 34 -55 76 -110 126 -167 173 -284 221 -555 17 -99 18 -187 18 -1500 0
-1412 -5 -1648 -40 -2115 -73 -940 -220 -1673 -462 -2290 -139 -355 -438 -838
-785 -1267 -43 -53 -78 -100 -78 -103 0 -15 47 -44 71 -45 41 0 156 63 244
133 99 80 326 312 420 430 315 396 572 872 752 1392 149 429 221 732 288 1207
13 94 26 172 27 174 4 4 1718 204 1748 204 20 0 20 -2 20 -1362 0 -1304 -1
-1365 -19 -1403 -33 -72 -86 -105 -166 -105 -37 0 -833 111 -889 124 -16 4
-66 -36 -66 -54 0 -3 71 -58 157 -121 433 -314 723 -567 825 -718 83 -124 185
-191 291 -191 32 0 71 7 86 15 47 24 107 101 160 204 56 109 159 405 193 556
l22 100 6 3395 c6 3391 6 3395 27 3500 11 58 32 143 46 190 43 148 60 235 53
266 -10 40 -115 140 -208 197 -145 91 -404 188 -492 186 -17 0 -134 -22 -261
-49z m134 -452 c29 -14 53 -36 72 -66 l29 -46 -2 -831 -3 -830 -180 -27 c-99
-14 -459 -67 -800 -117 -341 -51 -635 -94 -652 -97 l-33 -6 0 575 c0 512 20
1211 36 1226 2 2 309 60 681 127 735 133 760 136 852 92z m101 -3027 l0 -859
-22 -5 c-45 -10 -1688 -210 -1692 -206 -5 4 45 1692 50 1697 3 4 1606 229
1642 231 l22 1 0 -859z"/>
</g>
</svg>
