<?xml version="1.0" standalone="no"?>
<!DOCTYPE svg PUBLIC "-//W3C//DTD SVG 20010904//EN"
 "http://www.w3.org/TR/2001/REC-SVG-20010904/DTD/svg10.dtd">
<svg version="1.0" xmlns="http://www.w3.org/2000/svg"
 width="1024.000000pt" height="1024.000000pt" viewBox="0 0 1024.000000 1024.000000"
 preserveAspectRatio="xMidYMid meet">
<metadata>
Created by potrace 1.10, written by Peter Selinger 2001-2011
</metadata>
<g transform="translate(0.000000,1024.000000) scale(0.100000,-0.100000)"
fill="#000000" stroke="none">
<path d="M6026 9708 c-10 -7 -77 -63 -149 -124 l-130 -112 -76 5 c-65 5 -88 1
-156 -22 -110 -37 -163 -73 -243 -168 -91 -108 -105 -132 -100 -162 3 -15 -1
-30 -9 -37 -8 -6 -24 -30 -36 -52 -21 -38 -22 -52 -19 -208 2 -98 -1 -169 -6
-172 -20 -12 -62 -107 -62 -141 0 -31 5 -38 35 -52 25 -12 49 -38 80 -89 25
-39 45 -76 45 -81 0 -28 -62 -75 -145 -108 -108 -44 -115 -49 -115 -86 0 -41
30 -53 135 -54 74 0 101 5 150 25 l60 26 0 -67 c0 -56 4 -72 22 -91 l22 -23
-125 -69 c-135 -76 -139 -81 -110 -151 15 -36 42 -55 75 -55 22 0 30 -33 10
-45 -5 -4 -9 -30 -8 -58 3 -67 -78 -434 -101 -462 -10 -11 -21 -33 -24 -50 -4
-16 -18 -41 -30 -55 -12 -14 -28 -45 -35 -70 -34 -121 -152 -272 -430 -550
-363 -363 -602 -534 -825 -590 -100 -25 -298 -27 -401 -4 -126 28 -165 29
-205 2 -19 -13 -40 -35 -47 -48 -14 -28 -52 -38 -148 -40 -115 -1 -131 -7
-167 -64 -41 -65 -44 -122 -9 -160 14 -14 22 -28 20 -30 -2 -3 -40 -25 -83
-50 -86 -49 -127 -96 -147 -170 -24 -88 10 -157 96 -197 56 -26 105 -24 400
20 296 43 356 62 425 137 l40 43 131 -71 c119 -64 142 -73 262 -98 107 -22
179 -30 377 -39 135 -6 257 -11 271 -11 l27 0 -19 -77 c-11 -47 -38 -299 -69
-638 -28 -308 -62 -634 -75 -725 -48 -320 -65 -514 -65 -728 l0 -134 34 -34
c42 -42 105 -48 130 -13 9 13 35 26 69 34 l54 13 17 -55 c28 -87 112 -246 178
-335 34 -46 144 -220 245 -388 184 -307 245 -391 445 -615 124 -139 230 -322
287 -496 27 -83 63 -119 124 -126 39 -5 57 1 138 42 51 26 100 51 108 55 9 4
40 15 69 23 l52 15 -1 -26 c0 -22 -13 -35 -72 -72 -134 -84 -277 -244 -358
-397 -26 -49 -28 -58 -15 -71 36 -36 283 -44 431 -13 92 19 238 72 265 96 8 7
107 59 219 115 182 91 211 109 272 168 57 56 69 74 75 110 l7 42 46 0 c72 0
169 27 256 71 105 52 115 60 122 103 12 76 -107 239 -239 325 -63 41 -63 41
10 56 17 4 32 10 32 15 0 11 77 55 124 70 51 16 122 82 137 127 12 37 5 122
-12 155 -6 11 -48 73 -95 139 -46 66 -92 136 -103 157 -11 21 -177 264 -370
540 -193 276 -357 516 -365 534 -8 18 -37 67 -64 108 -28 41 -47 76 -44 77 4
1 188 21 409 44 l401 42 111 -21 c191 -38 235 -30 316 61 88 97 88 92 12 195
-37 49 -100 117 -141 151 -281 235 -529 669 -596 1043 -118 658 -120 668 -181
842 -33 93 -70 188 -83 211 -33 56 -102 117 -157 140 l-46 19 -7 151 c-12 279
-56 595 -123 880 -19 83 -65 283 -103 445 -37 162 -76 313 -85 335 -67 159
-139 268 -270 405 -50 52 -97 111 -105 130 -7 19 -24 50 -38 69 l-25 34 18
133 18 134 124 122 c137 136 165 180 187 294 12 65 19 79 100 182 96 124 108
159 86 250 -30 125 -115 192 -253 199 -47 2 -79 -1 -91 -9z m-557 -713 c46
-14 85 -26 86 -27 2 -2 37 -81 79 -177 l76 -173 -27 -77 c-14 -42 -28 -78 -29
-80 -6 -8 -64 19 -83 38 -18 18 -33 21 -115 21 -76 0 -98 -3 -116 -18 -31 -25
-102 -15 -138 21 l-26 26 18 198 c10 111 24 207 31 218 7 11 24 27 39 34 22
12 30 12 51 1 22 -12 28 -12 42 3 21 21 11 21 112 -8z m79 -596 l50 -21 -43
-39 c-40 -37 -46 -39 -104 -39 -61 0 -61 0 -61 29 0 16 -3 43 -6 60 l-6 31 59
0 c38 0 79 -8 111 -21z m207 -209 c17 -18 23 -30 15 -30 -7 0 -71 -34 -141
-75 -71 -41 -130 -75 -133 -75 -5 0 -46 74 -46 83 0 2 21 7 46 11 61 8 120 35
172 79 24 21 47 37 51 37 4 0 20 -13 36 -30z m170 -169 c-6 -4 -124 -76 -262
-159 -185 -111 -253 -147 -253 -134 0 12 78 61 253 159 228 128 290 160 262
134z m130 -262 c4 -19 44 -135 90 -259 75 -203 85 -239 105 -375 12 -82 33
-199 46 -259 50 -220 84 -518 84 -734 l0 -93 -176 -84 c-176 -85 -222 -99
-412 -130 l-43 -7 15 39 c9 21 24 70 35 109 10 39 26 85 35 102 39 76 55 290
47 624 -3 141 -9 154 -72 164 -28 5 -39 1 -61 -23 -37 -38 -50 -130 -48 -338
l2 -160 -77 -265 -77 -265 -127 -179 c-69 -98 -154 -206 -188 -239 -103 -102
-222 -164 -372 -193 -102 -20 -786 -10 -906 12 -166 32 -307 108 -435 234
l-85 85 86 7 c254 19 495 108 719 266 102 72 577 532 695 672 221 265 353 565
401 914 9 61 17 112 17 113 10 9 420 205 472 225 39 15 97 50 130 76 l60 49
16 -27 c9 -15 20 -42 24 -61z m553 -2084 l105 -150 54 -202 c34 -132 53 -223
53 -260 0 -32 9 -87 21 -123 11 -36 24 -101 29 -146 4 -44 24 -134 44 -201 20
-66 36 -140 36 -165 0 -31 7 -56 23 -79 12 -19 31 -56 41 -84 73 -194 216
-408 372 -555 32 -30 94 -92 137 -137 l79 -83 -148 2 c-133 2 -229 -7 -874
-84 -717 -86 -727 -88 -940 -142 -118 -30 -287 -79 -375 -109 -88 -30 -203
-70 -255 -87 -52 -18 -102 -36 -110 -41 -34 -20 -275 -142 -324 -163 l-52 -23
3 26 c2 14 23 256 48 536 46 519 134 1265 160 1365 8 30 19 91 25 134 6 44 11
81 13 82 1 2 76 23 167 49 155 43 171 50 265 113 139 93 299 255 395 400 l74
112 134 0 c96 0 163 6 235 21 109 22 276 83 342 124 28 17 52 24 79 22 38 -2
41 -5 144 -152z m-3318 -265 l81 -100 -28 -11 c-15 -5 -55 -21 -88 -34 -96
-38 -202 -55 -337 -55 l-123 0 45 21 c25 11 80 32 122 45 59 19 84 34 109 61
29 33 31 41 27 93 l-4 57 45 10 c26 6 51 11 57 12 7 0 49 -44 94 -99z m3158
-2372 c51 -88 92 -168 92 -177 0 -9 105 -158 232 -331 224 -305 349 -500 389
-606 21 -56 79 -129 110 -139 24 -8 162 -177 151 -186 -14 -13 -281 -112 -356
-132 -5 -1 -126 192 -270 428 -144 237 -285 466 -314 510 -83 124 -156 258
-227 416 -68 150 -111 222 -171 289 l-35 39 33 6 c112 20 245 43 259 44 11 1
47 -53 107 -161z m-518 43 c0 -106 233 -543 452 -847 103 -143 365 -565 375
-602 3 -15 49 -103 101 -195 52 -92 93 -169 91 -171 -2 -2 -95 -33 -207 -70
-214 -70 -356 -125 -512 -199 -88 -42 -246 -96 -253 -86 -78 98 -642 891 -649
912 -6 16 -129 220 -274 454 -145 234 -264 432 -264 442 0 25 55 63 180 126
234 117 340 153 645 216 154 31 288 58 298 58 13 1 17 -7 17 -38z m1263 -1965
c28 -8 72 -35 110 -67 34 -29 64 -55 67 -57 14 -11 -58 -50 -110 -60 -47 -8
-119 -33 -196 -68 -6 -3 -31 26 -57 64 l-45 69 25 12 c20 9 23 15 15 23 -9 9
5 23 56 55 37 23 72 43 78 43 6 0 32 -6 57 -14z m-324 -263 l84 -127 -29 -23
c-121 -100 -371 -231 -546 -287 -112 -36 -308 -79 -317 -70 -9 9 160 164 239
219 110 78 160 133 167 183 5 37 2 45 -28 74 l-34 33 185 61 c102 34 187 62
190 63 3 0 43 -56 89 -126z"/>
<path d="M5428 8760 l-23 -20 30 -25 c38 -32 69 -29 73 7 3 21 -3 30 -27 42
-27 15 -31 14 -53 -4z"/>
<path d="M4836 6164 c-11 -28 -7 -74 7 -74 6 0 98 -13 202 -29 165 -25 193
-27 216 -15 26 13 44 59 28 70 -5 3 -85 14 -178 24 -93 11 -181 24 -196 30
-39 15 -72 12 -79 -6z"/>
<path d="M4476 5751 c-16 -18 -14 -21 40 -64 81 -64 148 -82 299 -81 91 0 135
5 180 20 55 18 60 22 63 51 2 24 -2 34 -18 43 -11 6 -24 9 -28 6 -5 -3 -107 6
-228 19 -267 30 -286 30 -308 6z"/>
<path d="M6203 5478 c-16 -19 -18 -30 -12 -63 20 -102 3 -297 -30 -363 -10
-20 -31 -84 -46 -142 -27 -101 -73 -212 -95 -225 -5 -3 -10 -13 -10 -22 0 -8
-54 -93 -120 -188 -133 -192 -156 -246 -119 -277 12 -10 25 -18 29 -18 20 0
56 49 167 225 140 223 183 297 183 317 0 8 8 23 19 32 10 9 21 34 25 56 3 21
24 100 46 177 52 174 62 299 35 419 -22 98 -36 112 -72 72z"/>
<path d="M5518 4758 c-8 -7 -34 -84 -57 -170 -23 -87 -57 -191 -75 -231 -38
-83 -90 -241 -100 -303 -6 -36 -5 -41 17 -51 36 -17 53 1 72 77 8 35 35 98 60
140 84 145 124 275 132 429 5 81 3 105 -8 112 -19 12 -22 11 -41 -3z"/>
<path d="M6427 4292 c-20 -22 -22 -55 -3 -71 7 -6 16 -39 19 -74 5 -42 19 -87
46 -142 21 -44 42 -98 46 -120 10 -57 38 -106 89 -158 58 -57 120 -87 196 -94
l60 -6 0 29 c0 25 -8 33 -58 59 -86 45 -164 128 -212 226 -22 46 -40 94 -41
108 0 15 -19 78 -42 141 -45 123 -64 142 -100 102z"/>
<path d="M4968 4004 c-33 -17 -34 -23 -8 -74 28 -55 26 -71 -24 -163 -60 -111
-128 -274 -167 -398 -31 -99 -31 -103 -13 -116 46 -33 53 -22 169 254 60 144
119 271 130 283 42 46 18 178 -40 216 -17 10 -25 10 -47 -2z"/>
<path d="M5596 2191 c-24 -26 -12 -42 83 -115 76 -59 131 -129 131 -167 0 -27
167 -194 249 -249 83 -55 189 -104 286 -131 79 -21 100 -18 93 16 -3 19 -14
25 -152 90 -178 82 -339 219 -390 330 -32 71 -141 182 -213 219 -62 31 -65 31
-87 7z"/>
</g>
</svg>
