<?xml version="1.0" standalone="no"?>
<!DOCTYPE svg PUBLIC "-//W3C//DTD SVG 20010904//EN"
 "http://www.w3.org/TR/2001/REC-SVG-20010904/DTD/svg10.dtd">
<svg version="1.0" xmlns="http://www.w3.org/2000/svg"
 width="1024.000000pt" height="1024.000000pt" viewBox="0 0 1024.000000 1024.000000"
 preserveAspectRatio="xMidYMid meet">
<metadata>
Created by potrace 1.10, written by Peter Selinger 2001-2011
</metadata>
<g transform="translate(0.000000,1024.000000) scale(0.100000,-0.100000)"
fill="#000000" stroke="none">
<path d="M4735 9175 c-17 -7 -39 -22 -49 -34 -34 -38 -15 -77 117 -243 138
-173 793 -1112 809 -1161 6 -18 22 -44 34 -60 13 -15 55 -85 95 -155 39 -70
80 -141 90 -158 l19 -32 -60 -38 c-47 -30 -250 -239 -863 -889 -441 -467 -838
-888 -882 -935 -175 -184 -205 -218 -259 -294 -40 -56 -56 -87 -56 -111 0 -49
30 -70 99 -70 l56 0 196 200 c107 110 573 588 1034 1063 l838 863 38 -68 c21
-37 39 -77 39 -89 0 -11 32 -74 72 -140 166 -276 284 -579 352 -902 34 -161
40 -234 27 -326 -19 -134 -107 -359 -222 -569 -73 -133 -226 -357 -319 -467
-286 -340 -402 -498 -546 -737 -238 -396 -398 -779 -504 -1204 -27 -110 -69
-262 -95 -339 -42 -130 -53 -186 -150 -807 -58 -367 -105 -680 -105 -695 0
-91 103 -169 164 -125 23 17 113 442 150 707 63 456 195 1037 327 1446 74 228
145 410 179 457 16 23 55 98 86 167 51 112 112 206 613 934 604 879 582 842
615 1031 47 259 22 543 -69 816 -19 57 -35 116 -35 132 0 16 -9 40 -19 53 -10
13 -27 59 -36 102 -14 62 -64 171 -261 564 l-243 486 -417 629 c-229 345 -440
666 -467 713 -64 107 -161 204 -253 252 -88 46 -102 49 -139 33z"/>
</g>
</svg>
