<?xml version="1.0" standalone="no"?>
<!DOCTYPE svg PUBLIC "-//W3C//DTD SVG 20010904//EN"
 "http://www.w3.org/TR/2001/REC-SVG-20010904/DTD/svg10.dtd">
<svg version="1.0" xmlns="http://www.w3.org/2000/svg"
 width="1024.000000pt" height="1024.000000pt" viewBox="0 0 1024.000000 1024.000000"
 preserveAspectRatio="xMidYMid meet">
<metadata>
Created by potrace 1.10, written by Peter Selinger 2001-2011
</metadata>
<g transform="translate(0.000000,1024.000000) scale(0.100000,-0.100000)"
fill="#000000" stroke="none">
<path d="M4777 8492 c-76 -35 -78 -37 -73 -65 3 -16 23 -68 44 -116 70 -155
95 -289 95 -506 0 -161 -16 -254 -90 -510 -107 -374 -407 -1179 -609 -1635
-88 -198 -327 -682 -431 -870 -157 -287 -457 -752 -656 -1020 -481 -648 -1048
-1238 -1690 -1760 -97 -79 -165 -141 -164 -150 2 -11 16 -15 58 -15 45 0 73 9
153 48 237 114 633 389 941 653 150 129 529 485 580 545 14 18 80 89 145 158
194 207 293 325 464 551 265 353 485 685 703 1062 l97 166 354 -346 c195 -191
483 -484 640 -652 630 -669 1214 -1263 1662 -1686 509 -481 528 -495 685 -502
138 -6 1258 56 1330 74 64 15 110 43 110 64 0 21 -72 60 -275 151 -398 178
-1019 506 -1345 709 -332 207 -1073 781 -2109 1634 -160 132 -433 352 -606
489 -173 137 -319 252 -323 256 -4 4 27 79 69 167 336 699 572 1260 759 1804
23 69 95 263 158 432 98 257 115 311 108 336 -20 68 -68 130 -154 199 -34 27
-116 92 -182 145 -178 141 -273 202 -350 221 -11 3 -54 -11 -98 -31z"/>
</g>
</svg>
