<?xml version="1.0" standalone="no"?>
<!DOCTYPE svg PUBLIC "-//W3C//DTD SVG 20010904//EN"
 "http://www.w3.org/TR/2001/REC-SVG-20010904/DTD/svg10.dtd">
<svg version="1.0" xmlns="http://www.w3.org/2000/svg"
 width="1024.000000pt" height="1024.000000pt" viewBox="0 0 1024.000000 1024.000000"
 preserveAspectRatio="xMidYMid meet">
<metadata>
Created by potrace 1.10, written by Peter Selinger 2001-2011
</metadata>
<g transform="translate(0.000000,1024.000000) scale(0.100000,-0.100000)"
fill="#000000" stroke="none">
<path d="M4586 9318 c-33 -54 -33 -59 -16 -157 46 -250 115 -511 204 -765 31
-88 56 -176 56 -195 0 -20 11 -94 25 -166 14 -71 25 -140 25 -153 0 -13 -40
-185 -90 -381 -276 -1095 -292 -1151 -437 -1534 -140 -373 -133 -357 -662
-1455 -220 -458 -401 -839 -401 -846 0 -8 -33 -62 -72 -121 -123 -182 -119
-174 -115 -231 5 -68 37 -114 79 -114 35 0 53 17 199 185 75 87 98 123 176
280 121 242 253 535 358 795 48 118 163 366 255 550 361 722 518 1156 863
2387 l20 71 117 -136 c116 -137 325 -410 388 -509 117 -183 177 -469 138 -653
-15 -69 -76 -208 -126 -286 -11 -18 -47 -111 -80 -208 -49 -145 -62 -197 -71
-289 -22 -218 22 -478 115 -689 23 -53 162 -522 210 -713 40 -159 102 -346
176 -530 38 -93 84 -224 104 -290 19 -66 101 -345 181 -620 327 -1117 388
-1327 500 -1710 l116 -400 41 -38 c36 -33 47 -38 81 -35 32 2 46 10 71 41 44
54 43 120 -3 202 -19 33 -37 80 -42 105 -4 25 -32 124 -63 220 -61 197 -108
352 -401 1335 -238 796 -491 1643 -606 2025 -43 145 -79 277 -79 293 0 15 -11
45 -25 65 -14 20 -25 49 -25 63 0 15 -20 78 -44 141 -63 160 -89 292 -89 453
0 98 4 138 16 161 8 16 33 88 55 159 28 94 53 153 90 214 97 158 142 315 142
495 0 116 -9 173 -46 288 -65 201 -273 532 -506 805 -87 102 -118 149 -185
277 l-81 154 -146 623 c-81 343 -156 647 -167 675 -11 27 -40 74 -65 102 -71
81 -130 103 -158 60z"/>
<path d="M9075 3773 c3 -10 9 -30 12 -45 3 -16 9 -28 14 -28 4 0 1 20 -8 45
-8 25 -17 45 -20 45 -3 0 -2 -8 2 -17z"/>
</g>
</svg>
