<?xml version="1.0" standalone="no"?>
<!DOCTYPE svg PUBLIC "-//W3C//DTD SVG 20010904//EN"
 "http://www.w3.org/TR/2001/REC-SVG-20010904/DTD/svg10.dtd">
<svg version="1.0" xmlns="http://www.w3.org/2000/svg"
 width="1024.000000pt" height="1024.000000pt" viewBox="0 0 1024.000000 1024.000000"
 preserveAspectRatio="xMidYMid meet">
<metadata>
Created by potrace 1.10, written by Peter Selinger 2001-2011
</metadata>
<g transform="translate(0.000000,1024.000000) scale(0.100000,-0.100000)"
fill="#000000" stroke="none">
<path d="M5911 9621 c-71 -18 -70 -27 14 -151 141 -210 170 -289 162 -444 -5
-114 -31 -211 -103 -393 -133 -335 -458 -962 -732 -1408 -617 -1007 -1301
-1881 -2213 -2826 l-219 -227 36 -27 c28 -22 43 -26 70 -22 221 36 826 554
1750 1499 l348 356 23 -38 c30 -50 69 -154 90 -239 15 -59 17 -191 21 -1216 3
-1163 -3 -1528 -34 -1920 -20 -255 -57 -564 -99 -825 -48 -304 -58 -408 -59
-630 0 -185 1 -200 27 -283 61 -198 182 -372 373 -539 90 -79 141 -102 207
-95 95 12 163 72 204 182 17 48 18 162 24 2705 5 2350 8 2668 22 2765 9 61 21
157 28 215 l12 105 -27 52 c-45 89 -171 210 -354 339 -2 1 68 98 156 216 243
326 378 516 587 833 266 402 398 611 449 713 61 121 141 229 266 358 168 174
208 281 142 385 -107 166 -526 433 -842 534 -92 29 -263 43 -329 26z"/>
</g>
</svg>
