<?xml version="1.0" standalone="no"?>
<!DOCTYPE svg PUBLIC "-//W3C//DTD SVG 20010904//EN"
 "http://www.w3.org/TR/2001/REC-SVG-20010904/DTD/svg10.dtd">
<svg version="1.0" xmlns="http://www.w3.org/2000/svg"
 width="1024.000000pt" height="1024.000000pt" viewBox="0 0 1024.000000 1024.000000"
 preserveAspectRatio="xMidYMid meet">
<metadata>
Created by potrace 1.10, written by Peter Selinger 2001-2011
</metadata>
<g transform="translate(0.000000,1024.000000) scale(0.100000,-0.100000)"
fill="#000000" stroke="none">
<path d="M5304 9599 c-55 -27 -117 -81 -154 -134 -53 -77 -153 -371 -176 -515
-5 -37 -19 -58 -75 -120 l-69 -75 6 -65 c3 -36 10 -79 15 -96 17 -56 85 -104
148 -104 21 0 34 -10 58 -44 38 -53 141 -128 221 -161 49 -20 66 -22 93 -15
79 23 79 22 79 -93 l0 -104 -129 -86 c-109 -72 -132 -92 -150 -129 -11 -25
-21 -52 -21 -61 0 -9 -7 -17 -16 -17 -8 0 -79 -49 -157 -109 -774 -598 -1478
-1361 -1826 -1981 -57 -102 -105 -187 -107 -188 -1 -2 -79 42 -173 97 -93 56
-178 101 -187 101 -22 0 -94 -76 -94 -99 0 -12 -10 -20 -30 -24 -39 -8 -64
-47 -56 -89 8 -44 39 -93 72 -115 34 -22 120 -22 179 0 39 15 40 15 136 -34
53 -26 114 -59 134 -73 51 -35 68 -33 119 14 24 22 50 40 59 40 9 0 33 -11 53
-25 46 -31 143 -61 160 -49 7 5 61 42 121 83 179 124 392 294 458 367 6 6 136
123 290 260 154 137 332 296 395 354 178 162 480 411 480 395 0 -3 -15 -42
-34 -87 -45 -108 -99 -288 -124 -413 -34 -168 -46 -291 -45 -500 l0 -200 107
-720 c59 -396 111 -759 116 -806 10 -100 21 -124 70 -148 103 -53 160 -48 180
15 7 19 18 34 26 34 11 0 14 -21 14 -109 0 -126 248 -2152 280 -2286 24 -105
63 -212 112 -308 l38 -78 -77 7 c-71 6 -85 4 -154 -23 -157 -61 -272 -159
-342 -291 -50 -96 -64 -153 -53 -227 9 -56 56 -113 113 -138 47 -20 526 -71
668 -71 115 0 174 18 274 85 32 21 61 39 64 39 2 0 7 -14 11 -31 8 -43 57
-108 118 -155 67 -52 115 -76 206 -104 61 -19 90 -22 180 -18 123 5 198 30
292 98 30 22 94 67 141 99 112 77 134 117 127 225 -12 186 -141 322 -339 357
-38 7 -69 15 -69 18 0 3 20 58 45 121 40 101 60 187 171 725 l125 610 26 640
26 639 -21 106 c-12 58 -24 128 -26 155 -3 28 -10 111 -17 185 -7 84 -10 217
-6 351 3 133 1 221 -5 227 -5 5 -22 69 -38 142 -88 400 -252 836 -420 1121
-18 29 -83 151 -145 269 -161 307 -317 564 -480 785 -28 39 -131 196 -229 350
-98 154 -191 295 -207 313 -17 19 -29 44 -29 60 0 43 -44 126 -85 159 -40 33
-40 38 -18 131 4 16 1 22 -11 22 -11 0 -16 9 -16 28 0 16 -11 62 -25 102 -14
40 -25 76 -25 79 0 3 26 19 58 36 130 67 237 217 266 374 9 52 20 80 34 90 11
9 36 28 55 43 47 36 77 104 77 173 0 110 -49 165 -147 165 l-52 0 -34 73 c-88
189 -241 315 -439 362 -83 19 -114 18 -164 -6z m470 -564 c21 -42 39 -281 24
-309 -7 -12 -14 -39 -17 -61 -6 -37 -13 -44 -140 -137 -124 -90 -138 -98 -180
-98 -97 0 -236 94 -289 195 -25 46 -27 59 -27 171 l0 121 55 51 55 52 131 -6
c117 -6 137 -5 196 15 36 12 85 34 109 49 49 32 45 34 83 -43z m-159 -1374
c36 -98 163 -358 193 -393 9 -11 30 -18 51 -18 l36 -1 430 -715 c237 -393 458
-771 493 -840 194 -385 295 -738 346 -1204 9 -80 19 -160 22 -179 l5 -34 -48
6 c-26 3 -342 -16 -700 -43 -598 -44 -657 -47 -705 -34 -46 12 -74 12 -221 -2
-93 -9 -171 -14 -173 -11 -11 10 -53 268 -69 412 -9 83 -30 265 -48 405 -30
242 -32 272 -32 585 1 283 4 353 23 493 12 90 22 192 22 228 0 45 6 77 20 104
13 26 20 59 20 98 0 129 52 317 125 449 20 36 34 67 31 70 -2 3 -38 13 -80 24
l-76 19 -79 -53 c-73 -48 -698 -579 -906 -770 -50 -45 -211 -176 -357 -291
-239 -187 -268 -213 -283 -253 -13 -35 -37 -59 -115 -123 -54 -44 -102 -80
-105 -80 -5 0 -62 39 -88 61 -10 8 189 309 321 485 103 139 218 277 341 413
108 118 1026 969 1102 1021 36 25 75 42 113 49 53 10 68 20 199 130 98 83 144
115 149 107 4 -7 24 -59 43 -115z m1533 -3748 c77 -224 96 -367 89 -678 l-4
-240 -167 -895 c-91 -492 -173 -931 -182 -976 -14 -71 -14 -85 -1 -116 l14
-34 -130 -41 -130 -41 7 81 c15 187 18 542 7 747 -17 300 -184 1832 -206 1888
-16 39 -95 122 -117 122 -5 0 -21 -6 -36 -14 -98 -51 -101 -105 -33 -601 101
-724 131 -952 141 -1070 15 -162 24 -768 15 -986 l-7 -176 -111 61 c-105 58
-112 63 -113 94 -1 18 -13 47 -26 65 -29 38 -84 144 -104 201 -20 55 -144 805
-259 1559 -85 563 -95 643 -95 766 0 151 -12 210 -53 265 l-25 32 131 27 c121
24 259 45 412 63 33 3 242 14 465 24 223 9 419 18 436 19 l31 1 51 -147z
m-1196 -3074 c29 -15 53 -20 87 -17 43 4 52 0 139 -59 l92 -64 -17 -24 c-14
-17 -47 -31 -138 -56 -139 -38 -326 -51 -425 -29 -63 14 -180 64 -180 77 0 5
23 34 50 65 85 96 152 127 273 128 60 0 87 -5 119 -21z m1157 -136 c78 -43
141 -83 141 -89 0 -17 -120 -128 -170 -156 -66 -38 -144 -58 -227 -58 -121 0
-140 13 -231 151 -50 75 -75 122 -69 128 5 5 33 7 62 4 70 -7 183 19 271 62
38 18 72 34 76 34 4 1 70 -34 147 -76z"/>
<path d="M5291 8864 c-35 -29 -40 -67 -16 -114 22 -42 71 -42 120 1 49 44 46
67 -19 117 -37 28 -48 28 -85 -4z"/>
</g>
</svg>
