<?xml version="1.0" standalone="no"?>
<!DOCTYPE svg PUBLIC "-//W3C//DTD SVG 20010904//EN"
 "http://www.w3.org/TR/2001/REC-SVG-20010904/DTD/svg10.dtd">
<svg version="1.0" xmlns="http://www.w3.org/2000/svg"
 width="1024.000000pt" height="1024.000000pt" viewBox="0 0 1024.000000 1024.000000"
 preserveAspectRatio="xMidYMid meet">
<metadata>
Created by potrace 1.10, written by Peter Selinger 2001-2011
</metadata>
<g transform="translate(0.000000,1024.000000) scale(0.100000,-0.100000)"
fill="#000000" stroke="none">
<path d="M6890 10193 c-38 -48 -21 -120 76 -329 46 -99 84 -186 84 -193 0 -7
8 -25 18 -39 10 -15 58 -117 106 -227 49 -110 97 -215 107 -233 11 -18 19 -43
19 -54 0 -12 6 -29 14 -37 8 -9 38 -68 66 -131 29 -63 63 -126 76 -141 13 -14
24 -37 24 -51 0 -15 4 -28 10 -30 13 -4 100 -252 113 -323 6 -38 25 -83 49
-123 21 -34 38 -68 38 -75 0 -6 7 -21 16 -32 10 -14 13 -31 9 -57 -8 -47 9
-102 45 -148 15 -20 35 -62 45 -95 18 -65 40 -105 80 -147 24 -26 29 -27 93
-22 l67 6 63 66 c178 189 361 428 501 652 36 58 134 240 218 405 l152 300 1
-62 c0 -60 -3 -67 -89 -218 -77 -133 -91 -165 -101 -228 -6 -39 -15 -77 -18
-84 -4 -6 -170 -232 -369 -501 l-363 -490 0 -53 c0 -33 -6 -59 -15 -69 -14
-16 -14 -20 8 -46 15 -18 31 -59 42 -109 33 -153 130 -445 196 -593 10 -23 19
-50 19 -60 0 -10 10 -33 23 -52 13 -19 31 -62 41 -95 36 -121 66 -155 134
-155 24 0 30 -5 35 -28 3 -16 51 -114 105 -218 55 -104 103 -200 107 -214 23
-77 311 -749 330 -770 37 -40 63 -103 75 -175 6 -37 31 -118 55 -179 48 -122
79 -234 93 -341 9 -61 256 -963 268 -974 8 -9 31 23 118 166 138 225 147 217
54 -52 -58 -171 -62 -187 -69 -310 -4 -71 -11 -151 -14 -176 -8 -57 13 -144
59 -248 52 -115 221 -644 207 -649 -21 -7 -12 -67 13 -91 15 -14 27 -40 31
-65 4 -22 11 -45 15 -51 4 -5 24 -57 43 -114 20 -57 45 -113 56 -125 10 -12
28 -39 40 -61 11 -22 38 -59 60 -83 l40 -43 15 30 c9 17 16 55 16 90 0 54 -4
66 -35 107 -19 25 -35 55 -35 67 0 12 -9 33 -20 47 -21 27 -26 65 -10 75 12 8
4 43 -15 65 -8 8 -17 43 -21 77 -3 35 -13 68 -20 74 -8 6 -14 21 -14 33 0 11
-8 35 -18 51 -10 17 -24 50 -31 75 -7 25 -33 98 -57 162 -24 64 -44 124 -44
133 0 10 -30 110 -66 223 -64 202 -66 209 -64 307 1 77 6 115 24 165 17 46 27
106 35 205 14 178 35 275 112 521 68 220 104 300 176 395 94 123 114 185 77
237 -20 29 -37 28 -77 -8 -19 -16 -37 -30 -40 -30 -3 0 -1 14 4 30 8 21 18 30
32 30 12 0 33 9 46 19 24 18 24 20 8 44 -11 18 -29 27 -59 32 -87 15 -181 76
-224 147 -18 28 -151 78 -208 78 -52 0 -56 -2 -77 -36 -27 -45 -74 -74 -117
-74 -18 0 -64 -5 -103 -11 l-69 -12 -46 39 c-37 32 -56 61 -104 169 -40 87
-60 121 -60 103 0 -15 10 -48 22 -73 12 -24 19 -48 15 -51 -4 -4 -9 -5 -10 -3
-15 17 -547 1349 -547 1368 0 19 3 21 14 12 35 -29 114 -23 612 45 l499 68 37
30 c52 43 50 68 -8 102 -108 64 -338 138 -542 175 -94 17 -168 22 -382 26
-183 3 -287 9 -335 19 l-71 15 -31 57 c-22 42 -32 75 -36 124 -4 54 -10 73
-35 105 -16 21 -35 54 -41 73 -18 55 -24 170 -12 235 21 111 58 169 323 501
140 176 271 347 292 381 108 180 223 480 270 708 13 66 43 174 66 240 59 174
98 334 137 562 4 27 -1 38 -30 68 -20 21 -42 55 -49 77 l-14 40 -56 -84 c-50
-76 -56 -90 -60 -149 -4 -64 -10 -76 -308 -620 -521 -951 -530 -966 -638
-1111 l-102 -138 -48 0 c-40 0 -53 5 -74 28 -30 31 -48 71 -48 108 0 16 -17
44 -49 77 -61 66 -101 129 -101 162 0 29 -280 699 -317 757 -12 21 -23 44 -23
51 0 8 -81 187 -180 399 -99 212 -180 393 -180 402 0 10 -9 34 -19 54 -11 20
-25 56 -31 80 -13 49 -73 122 -100 122 -10 0 -28 -12 -40 -27z"/>
<path d="M6642 10193 c-12 -2 -29 -18 -38 -35 -31 -60 9 -215 86 -331 81 -123
189 -311 196 -342 4 -16 42 -110 86 -209 43 -98 78 -186 78 -196 0 -10 25 -85
56 -167 79 -211 86 -231 138 -398 26 -82 56 -177 67 -210 84 -247 148 -451
158 -510 12 -63 228 -654 247 -676 8 -8 22 -40 33 -70 10 -30 35 -88 54 -129
20 -41 34 -77 32 -79 -2 -2 -21 10 -42 26 -78 61 -114 66 -450 64 -267 -2
-326 -6 -507 -30 l-205 -28 -169 -81 c-94 -45 -192 -97 -218 -117 -26 -20 -60
-39 -76 -42 -16 -3 -33 -14 -36 -24 -6 -15 -53 23 -262 208 -140 124 -291 258
-336 298 -109 99 -257 262 -249 274 4 7 15 5 30 -5 l24 -16 -15 32 c-11 22
-15 47 -11 78 4 41 12 53 60 98 95 89 362 242 574 330 143 60 247 92 442 139
101 24 185 46 187 48 8 7 -93 75 -131 87 -48 16 -305 7 -489 -16 -314 -40
-690 -155 -978 -300 -37 -19 -78 -34 -91 -34 -29 0 -140 85 -159 121 -7 15
-85 93 -173 175 -373 345 -674 669 -647 696 19 19 14 44 -18 108 -17 33 -30
70 -30 83 0 13 -9 69 -20 123 -28 142 -72 588 -79 804 l-6 185 -24 3 c-13 2
-39 1 -58 -3 -31 -6 -33 -8 -31 -43 1 -20 -4 -91 -12 -156 -15 -144 -9 -430
14 -561 8 -49 18 -126 22 -170 l7 -80 -102 97 c-55 54 -118 106 -139 117 -25
13 -61 53 -116 128 -56 76 -108 133 -180 196 -186 162 -217 193 -279 288 -51
77 -72 100 -117 127 -103 61 -153 31 -120 -75 10 -32 72 -107 265 -320 138
-153 278 -301 310 -328 32 -28 120 -127 196 -222 111 -137 153 -182 213 -225
41 -29 80 -64 86 -77 8 -18 8 -22 -2 -18 -7 3 -55 24 -107 47 -93 41 -315 105
-331 95 -4 -2 -77 5 -161 16 -127 18 -159 26 -181 45 -35 29 -111 38 -202 25
-80 -12 -133 -42 -161 -94 -17 -32 -17 -40 -5 -76 10 -31 18 -41 35 -41 12 0
93 -7 181 -15 288 -28 512 -86 764 -197 297 -131 388 -209 1031 -885 121 -127
126 -133 244 -328 l97 -160 -162 160 c-89 88 -182 188 -208 223 -25 34 -49 62
-53 62 -3 0 -18 -18 -33 -40 -30 -46 -53 -57 -187 -94 l-97 -27 -50 20 c-32
13 -53 16 -59 10 -7 -7 -35 18 -84 72 -83 92 -225 196 -362 265 -111 56 -397
144 -494 151 -55 4 -70 9 -66 19 8 20 -32 18 -347 -17 -203 -23 -353 -33 -575
-39 -329 -10 -472 -26 -681 -79 -419 -106 -701 -271 -864 -506 -28 -41 -49
-75 -46 -75 2 0 114 23 248 51 l243 51 218 -12 c169 -9 228 -9 265 0 96 25
202 -36 202 -116 1 -37 2 -38 15 -20 18 24 20 4 3 -27 -6 -12 -11 -36 -10 -53
3 -45 -32 -151 -57 -172 -23 -18 -50 -111 -51 -174 0 -21 -5 -38 -11 -38 -5 0
-49 -27 -97 -59 -75 -52 -108 -66 -237 -106 -82 -26 -153 -50 -157 -54 -4 -3
-12 -38 -17 -76 -10 -66 -9 -71 12 -91 l22 -22 140 39 c111 32 150 38 189 34
64 -8 104 -29 112 -60 7 -27 14 -31 31 -14 8 8 13 3 18 -19 3 -16 17 -44 31
-63 24 -33 33 -76 13 -63 -6 3 -4 -4 4 -17 9 -13 21 -53 28 -89 16 -84 122
-296 201 -401 33 -43 94 -109 135 -146 42 -38 85 -76 95 -86 27 -26 171 -86
205 -85 41 0 97 -27 127 -63 l27 -31 147 10 c288 21 621 109 927 244 85 38 98
48 243 192 99 97 175 182 212 236 59 88 111 133 165 144 38 8 257 -26 385 -60
108 -29 320 -101 730 -249 374 -135 465 -172 647 -260 330 -159 583 -329 1144
-769 31 -24 74 -53 96 -65 23 -11 64 -42 93 -69 47 -42 53 -52 53 -88 0 -54
-21 -90 -67 -118 l-39 -23 -186 54 c-157 46 -210 67 -336 133 -82 42 -188 90
-235 105 -111 37 -350 137 -525 220 -211 100 -209 100 -370 149 -282 86 -589
150 -865 181 -184 20 -226 19 -257 -5 -14 -11 -42 -24 -62 -29 -20 -5 -193
-11 -386 -13 l-350 -3 -45 27 c-43 25 -47 25 -80 11 -152 -66 -399 -138 -589
-172 -327 -59 -656 -51 -768 20 -17 10 -58 10 -218 0 l-197 -13 -44 -33 c-59
-45 -99 -55 -227 -55 l-108 0 -122 -59 c-123 -60 -291 -164 -389 -241 l-53
-43 3 -56 c2 -31 7 -59 10 -63 26 -26 225 -119 303 -141 86 -24 128 -28 474
-47 325 -18 406 -19 570 -10 104 6 220 18 257 26 80 17 263 18 341 3 56 -12
58 -11 143 30 117 56 145 61 272 49 59 -5 179 -10 267 -12 152 -2 163 -3 212
-29 28 -15 54 -31 57 -36 4 -5 38 -7 80 -4 95 7 132 0 192 -40 l49 -32 482
-16 c324 -11 493 -21 513 -29 35 -15 89 -94 97 -144 13 -79 -54 -176 -120
-176 -18 0 -48 -11 -68 -24 -20 -14 -55 -26 -84 -29 -119 -11 -190 -29 -225
-57 -21 -17 -54 -31 -83 -35 -36 -6 -47 -11 -47 -26 0 -36 -42 -71 -93 -76
-67 -8 -107 -46 -107 -102 0 -45 26 -81 59 -81 15 0 19 -11 25 -61 3 -34 6
-85 6 -114 0 -49 1 -52 39 -73 l40 -23 32 29 32 28 -17 56 c-33 116 -9 173 84
198 69 19 195 -10 250 -57 29 -24 31 -30 25 -69 -6 -41 -5 -43 35 -65 76 -43
97 -106 60 -186 l-19 -43 29 -62 c19 -43 43 -75 74 -101 43 -36 46 -40 40 -76
-6 -35 -3 -40 26 -61 32 -23 109 -50 142 -50 17 0 58 53 58 75 0 6 -16 35 -35
65 l-34 55 6 -51 c7 -63 -9 -73 -61 -38 -29 20 -36 31 -36 57 -1 18 -8 50 -16
72 -9 22 -19 54 -23 72 -5 17 -17 44 -28 60 -34 48 -64 126 -70 179 -4 41 -10
54 -27 62 -12 5 -29 28 -38 50 l-16 41 27 8 c14 5 51 6 81 2 30 -4 92 -7 137
-8 80 -1 82 0 103 29 21 29 23 30 106 30 82 0 84 0 84 -24 0 -14 5 -28 12 -32
7 -5 1 -16 -19 -33 -61 -53 -184 -224 -236 -327 -22 -44 -24 -54 -13 -70 13
-17 19 -17 155 15 78 18 144 31 146 29 2 -2 -7 -28 -20 -57 -24 -51 -32 -112
-19 -146 8 -21 56 -45 91 -45 23 0 47 20 129 105 l100 106 95 -8 94 -8 -35
-21 c-19 -12 -76 -58 -126 -103 -51 -44 -96 -81 -101 -81 -5 0 -46 -32 -93
-71 l-83 -71 -13 30 c-18 44 -56 66 -102 59 -48 -8 -69 -35 -77 -101 -8 -64 5
-113 40 -146 14 -14 25 -35 25 -50 0 -27 35 -67 77 -89 12 -6 65 -11 118 -11
l97 0 -16 -25 c-10 -15 -16 -46 -16 -85 0 -60 0 -60 43 -88 l44 -27 -12 -40
-11 -40 -8 32 c-8 33 -74 116 -108 134 -43 23 -118 -42 -118 -101 0 -20 -4
-18 -29 16 -45 63 -63 74 -96 66 -35 -10 -75 -78 -75 -128 0 -56 20 -132 46
-169 28 -42 29 -45 9 -45 -8 0 -15 6 -15 13 0 34 -64 139 -105 172 -35 29 -48
35 -72 29 -42 -10 -63 -33 -63 -69 0 -37 31 -132 55 -168 l16 -25 -98 -17
c-54 -10 -102 -18 -107 -19 -7 -1 -54 138 -56 164 0 3 16 14 36 25 45 24 108
95 131 146 18 41 23 44 138 69 104 23 187 161 145 241 -15 27 -63 49 -110 49
l-40 0 0 93 0 93 -32 24 c-18 13 -47 24 -65 24 -36 1 -35 0 -48 79 l-6 37 -63
0 -64 0 19 62 c11 34 18 67 15 74 -4 12 -157 44 -208 44 -34 0 -34 4 -6 61 13
28 23 71 26 118 5 71 4 74 -24 97 -40 32 -55 30 -112 -15 -27 -22 -78 -54
-113 -71 -35 -18 -72 -39 -81 -48 -15 -13 -28 -13 -91 -3 -40 7 -80 10 -88 7
-50 -16 -69 -16 -69 0 0 8 -17 40 -39 70 -37 52 -39 58 -47 161 -4 60 -8 112
-9 117 -1 24 23 13 28 -12 3 -15 14 -39 25 -52 23 -29 58 -23 104 19 l32 29
-23 50 c-28 61 -57 79 -103 66 -27 -8 -39 -6 -66 13 -37 24 -51 22 -101 -15
l-34 -25 6 -151 c3 -105 10 -165 22 -198 17 -48 54 -95 89 -115 18 -10 16 -14
-31 -60 -28 -27 -58 -64 -67 -81 l-17 -33 -24 30 c-14 16 -37 32 -52 36 -39 9
-53 23 -53 51 0 21 5 24 35 24 30 0 37 5 55 40 l20 40 -20 115 c-20 110 -20
119 -5 165 20 59 9 92 -42 126 -46 31 -79 21 -114 -34 -41 -65 -54 -137 -36
-207 11 -45 11 -53 1 -44 -20 16 -61 3 -80 -26 -14 -22 -14 -31 0 -107 9 -47
22 -88 31 -94 8 -6 15 -20 15 -30 0 -25 6 -32 70 -84 30 -24 69 -59 86 -77 35
-37 50 -40 82 -17 21 15 22 14 22 -18 0 -18 13 -61 29 -94 l29 -61 -30 -62
c-19 -37 -37 -61 -47 -61 -9 0 -66 -20 -125 -45 -60 -25 -110 -44 -111 -42 -4
3 -75 159 -75 162 0 2 28 -5 63 -16 58 -18 63 -18 75 -2 6 9 12 35 12 58 0 32
-6 47 -29 69 l-29 28 20 46 21 46 -52 45 c-48 43 -52 50 -62 111 -13 80 -17
386 -6 496 l8 81 -42 32 c-48 35 -79 39 -102 13 -13 -14 -49 -180 -69 -322 -3
-17 -6 -9 -12 26 -6 40 -3 63 13 109 29 83 28 136 -5 174 -47 56 -94 67 -152
37 -54 -28 -63 -48 -77 -171 l-12 -115 -51 -54 c-56 -59 -59 -58 -86 7 -14 35
-26 43 -148 101 -280 133 -622 259 -848 312 -80 19 -233 63 -340 99 -143 48
-235 72 -345 91 -82 14 -166 29 -185 35 -48 13 -495 69 -552 69 -92 0 -271
-116 -284 -185 -3 -19 -24 -62 -46 -96 -106 -163 -128 -244 -139 -519 -4 -118
-15 -258 -22 -310 -16 -104 -13 -117 40 -188 13 -17 27 -51 32 -75 6 -37 10
-42 32 -39 13 1 157 32 320 69 342 76 366 77 429 15 27 -27 40 -51 49 -92 6
-30 25 -75 41 -99 17 -25 30 -57 30 -75 0 -17 14 -102 32 -188 18 -86 30 -159
28 -161 -4 -4 -581 18 -597 22 -2 1 -3 8 -3 16 0 21 -59 55 -95 55 -19 0 -44
-12 -70 -34 -39 -33 -40 -36 -40 -96 0 -62 1 -63 47 -105 80 -72 191 -94 295
-59 39 13 70 15 164 10 111 -6 121 -9 235 -57 65 -28 123 -55 127 -59 12 -10
-25 -33 -250 -150 -193 -101 -205 -109 -241 -160 -47 -68 -111 -113 -332 -233
l-175 -95 -3 -67 -3 -68 143 6 c116 4 160 10 233 31 99 30 241 101 325 162
215 157 495 281 776 344 133 30 180 24 239 -31 39 -36 51 -41 133 -54 72 -12
100 -22 143 -51 30 -20 79 -49 109 -64 64 -32 210 -80 246 -80 33 0 30 -11 -9
-36 -47 -32 -829 -444 -841 -444 -5 0 -53 -24 -105 -54 -53 -30 -125 -66 -161
-81 -92 -38 -126 -61 -151 -101 -38 -63 -11 -174 43 -174 52 0 249 65 318 105
111 65 309 157 437 204 l113 41 224 0 c124 0 236 4 249 9 14 5 41 24 60 41
l36 31 513 -39 513 -40 650 23 650 23 130 35 c72 19 175 51 230 72 316 115
743 213 1145 261 181 22 770 31 980 15 458 -35 735 -122 1035 -322 135 -90
430 -365 473 -442 53 -93 129 -190 259 -329 l128 -137 127 0 128 -1 -10 25
c-21 54 -42 86 -117 172 -61 71 -84 107 -106 165 -48 127 -171 307 -304 446
l-118 123 -70 11 c-60 10 -88 22 -200 91 -71 44 -139 88 -150 98 -37 33 -177
89 -394 159 l-216 69 -500 46 c-275 26 -501 48 -503 50 -2 2 5 8 15 13 11 6
35 7 63 2 61 -12 80 -12 80 1 0 19 -61 103 -99 136 l-36 32 32 7 c54 11 75 43
81 126 2 40 0 90 -6 111 -20 71 8 33 63 -87 58 -125 111 -216 126 -216 12 0
11 7 -2 32 -10 19 -9 20 23 12 66 -15 72 -12 88 39 13 41 17 45 27 30 18 -26
6 112 -13 151 -8 16 -14 45 -14 64 0 28 -12 47 -63 106 -92 105 -92 103 -77
121 7 9 29 15 55 15 41 0 43 -1 99 -84 49 -71 59 -92 66 -147 13 -100 42 -256
51 -271 6 -10 12 -8 24 7 13 16 15 40 11 135 -2 68 -10 132 -20 158 -8 23 -14
42 -12 42 2 0 15 -17 30 -38 22 -33 26 -49 26 -110 0 -64 3 -76 25 -97 17 -18
35 -25 64 -25 22 0 42 4 45 8 3 5 12 51 20 103 l16 94 -31 44 c-56 80 -22 158
45 99 17 -16 42 -69 78 -167 58 -157 47 -144 145 -175 32 -10 48 25 44 98 -2
57 -5 62 -47 99 -24 21 -44 45 -44 53 0 23 55 45 84 34 32 -12 46 -40 85 -166
36 -114 58 -143 118 -151 l39 -5 23 81 23 80 -21 69 c-11 39 -37 93 -56 122
-19 29 -32 56 -29 61 3 5 30 25 59 44 58 36 60 41 70 139 10 103 45 229 71
254 19 18 24 33 24 74 0 42 5 56 31 86 57 65 73 130 44 185 -10 19 -12 43 -9
71 6 43 5 45 -57 108 -77 78 -148 114 -256 130 -43 6 -79 12 -80 13 -1 0 5 24
13 53 21 70 8 106 -63 183 -55 59 -55 60 -37 80 13 15 19 36 19 73 0 44 -5 58
-37 100 -36 46 -38 53 -38 121 0 94 -21 159 -69 217 -22 27 -42 63 -46 85 -8
48 -48 119 -143 258 -158 231 -281 364 -436 471 -63 44 -117 87 -119 97 -4 14
-11 17 -26 12 -24 -7 -101 29 -101 48 0 21 -64 72 -205 167 -142 95 -292 209
-397 301 -36 33 -70 59 -75 59 -5 0 -27 18 -48 41 -64 67 -231 189 -267 195
-18 4 -43 13 -56 21 -13 8 -114 41 -225 73 -210 62 -320 102 -349 127 -9 8
-283 84 -610 168 -566 147 -598 157 -698 208 -58 30 -122 60 -143 67 -21 6
-37 14 -34 16 2 2 210 -37 463 -86 252 -50 467 -90 477 -90 11 0 33 -7 50 -15
18 -8 108 -37 201 -65 93 -28 180 -59 194 -70 13 -11 32 -20 41 -20 11 1 8 5
-9 15 -45 26 3 16 54 -11 51 -27 264 -93 466 -145 132 -33 140 -34 140 -14 0
8 9 15 20 15 20 0 40 27 40 56 0 9 -28 44 -63 78 -34 33 -119 126 -187 205
-69 79 -234 250 -366 380 -133 130 -246 245 -252 256 -5 11 -73 97 -151 190
-78 95 -147 189 -156 212 -9 23 -77 133 -152 245 -128 192 -148 217 -372 453
-223 236 -302 325 -287 325 29 0 147 -79 216 -144 14 -13 45 -37 70 -54 54
-36 119 -103 149 -154 13 -21 28 -38 35 -38 7 0 17 -9 22 -19 7 -16 138 -159
384 -421 18 -19 143 -172 278 -340 192 -238 267 -325 346 -394 132 -117 358
-347 454 -464 49 -59 316 -316 732 -706 738 -691 979 -927 1043 -1024 24 -37
70 -106 101 -154 57 -88 139 -170 199 -198 21 -10 114 -119 285 -335 139 -176
275 -352 302 -390 51 -75 151 -175 202 -201 29 -15 275 -40 286 -29 3 3 -79
328 -181 723 l-187 717 -69 100 c-56 83 -70 111 -76 155 -4 30 -15 71 -25 90
-9 19 -20 51 -23 70 -5 38 -593 1399 -632 1465 -61 102 -77 141 -83 194 -4 43
-25 95 -87 222 -152 310 -307 734 -420 1154 -70 260 -125 410 -222 607 -42 86
-79 177 -85 207 -5 31 -55 152 -115 280 -58 124 -116 255 -130 290 -13 36 -37
81 -54 102 -16 20 -29 48 -29 62 0 13 -8 35 -19 48 -10 13 -37 60 -60 104 -22
44 -56 97 -73 118 -29 35 -33 45 -32 95 1 32 3 66 5 77 4 20 -10 26 -49 18z
m-3108 -2787 c117 -32 232 -79 264 -109 13 -12 31 -35 39 -50 11 -23 17 -26
28 -17 11 9 18 -1 35 -57 32 -100 38 -280 14 -410 -10 -54 -17 -106 -15 -117
2 -17 1 -17 -20 -2 -28 19 -59 21 -59 4 0 -10 -30 -12 -127 -9 -106 2 -130 6
-137 20 -6 9 -67 77 -136 151 -70 74 -158 169 -196 210 -37 41 -91 89 -119
107 -87 55 -130 172 -89 243 35 61 77 72 259 67 132 -4 177 -9 259 -31z
m-1029 -121 c39 -8 107 -33 152 -55 95 -47 130 -80 337 -320 l133 -155 -47 -9
c-33 -6 -102 -2 -226 11 -102 11 -184 16 -190 11 -14 -10 -357 25 -397 41 -18
7 -35 8 -46 2 -9 -5 -69 -7 -131 -4 -83 4 -133 1 -177 -10 -62 -14 -63 -14
-63 7 0 31 37 179 66 267 22 68 31 82 87 131 71 62 91 75 144 87 62 15 281 12
358 -4z m1745 -661 c0 -2 -7 -4 -15 -4 -8 0 -15 4 -15 10 0 5 7 7 15 4 8 -4
15 -8 15 -10z m617 -140 c-3 -3 -12 -4 -19 -1 -8 3 -5 6 6 6 11 1 17 -2 13 -5z
m88 -19 c54 -17 33 -18 -30 -1 -27 8 -41 14 -30 14 11 0 38 -5 60 -13z m2880
-20 l210 -14 27 -33 c15 -18 30 -49 33 -69 4 -25 14 -40 30 -47 29 -13 40 -48
32 -104 -5 -36 30 -133 295 -822 165 -429 309 -807 319 -839 l19 -57 -32 -53
c-57 -95 -107 -134 -158 -123 -27 5 -28 4 -19 -32 10 -46 6 -50 -16 -15 -33
51 -159 175 -225 221 -93 65 -126 98 -177 177 -155 239 -325 417 -578 608
-219 166 -685 571 -752 655 -34 42 -69 82 -78 88 -23 17 -45 79 -45 128 0 86
45 116 280 187 146 43 582 156 610 158 8 0 109 -6 225 -14z m-1160 -2263 c-3
-3 -11 0 -18 7 -9 10 -8 11 6 5 10 -3 15 -9 12 -12z m65 -18 c23 -9 39 -18 37
-20 -2 -3 -24 4 -48 15 -54 24 -45 27 11 5z m2184 -69 l6 -30 -15 25 c-8 14
-14 34 -14 45 0 16 1 17 8 5 5 -8 11 -28 15 -45z m-229 -45 c9 -16 13 -30 11
-30 -3 0 -12 14 -21 30 -9 17 -13 30 -11 30 3 0 12 -13 21 -30z m-1433 -6 l37
-6 -31 -27 -31 -28 -49 30 c-82 51 -78 52 74 31z m-1940 -254 c2 -20 -2 -26
-21 -28 -19 -3 -22 0 -17 13 3 9 9 28 12 42 8 29 20 16 26 -27z m1911 20 c14
0 32 7 40 15 13 13 16 10 22 -21 3 -20 5 -38 3 -40 -2 -2 -49 2 -104 9 l-99
13 39 27 c36 24 42 25 56 12 9 -8 28 -15 43 -15z m-1178 -17 c59 -31 123 -90
145 -133 31 -61 60 -143 60 -171 0 -39 37 -66 103 -74 64 -7 48 -19 168 117
41 46 65 62 120 84 l69 27 193 -6 c169 -6 229 -13 508 -61 l316 -55 170 -85
c149 -74 196 -107 179 -123 -2 -3 -96 2 -208 11 -214 17 -291 13 -314 -18 -9
-14 -14 -9 -29 31 -25 64 -75 116 -142 146 -48 21 -65 24 -96 17 -44 -10 -75
-34 -89 -70 -8 -21 -5 -28 17 -47 15 -13 40 -23 58 -23 43 -1 124 -61 143
-105 18 -45 54 -68 89 -59 15 4 30 15 32 25 5 17 7 17 37 -6 38 -29 114 -64
138 -65 16 0 168 -86 168 -95 0 -13 -164 11 -212 31 -61 25 -145 32 -179 14
-13 -7 -19 -21 -19 -44 0 -29 7 -38 53 -68 29 -20 67 -39 84 -42 18 -4 37 -14
43 -21 7 -8 33 -27 58 -42 l47 -28 -65 -3 c-79 -4 -142 11 -193 44 -34 22 -45
24 -97 18 -33 -4 -64 -12 -70 -19 -20 -24 8 -77 75 -142 91 -88 88 -93 -38
-93 l-102 0 -91 65 c-92 64 -159 136 -196 209 l-20 39 53 -46 c77 -67 112 -82
160 -68 37 11 69 42 69 67 0 7 -37 43 -83 82 -78 66 -84 73 -96 125 -6 30 -21
63 -32 73 -27 24 -93 25 -116 1 -15 -15 -16 -22 -4 -59 31 -106 41 -142 37
-145 -2 -3 -10 13 -16 34 -20 60 -80 100 -116 75 -73 -48 -14 -244 109 -365
35 -34 119 -116 186 -181 124 -121 141 -150 89 -152 -15 -1 -44 -12 -65 -26
-27 -17 -125 -46 -326 -96 -263 -66 -289 -71 -310 -57 -61 41 -261 312 -271
369 -23 123 -51 405 -43 423 12 26 -24 107 -54 124 -13 6 -19 21 -19 43 0 27
-7 39 -35 60 -34 26 -37 27 -67 12 -48 -24 -163 -22 -196 5 -32 25 -65 19
-104 -19 l-28 -26 0 37 c0 49 -40 71 -117 65 l-53 -5 25 31 c42 51 58 95 51
144 -7 52 10 127 36 161 10 13 18 30 18 37 0 21 88 86 143 106 71 25 205 21
262 -9z m1480 -50 c35 -4 59 -11 62 -20 3 -8 4 -16 2 -18 -5 -4 -158 30 -165
37 -2 3 -2 13 2 22 6 16 8 16 24 1 10 -9 44 -19 75 -22z m331 -87 c6 -26 5
-28 -17 -21 -33 10 -34 12 -20 41 14 30 26 24 37 -20z m1234 -117 c0 -6 -4 -7
-10 -4 -5 3 -10 11 -10 16 0 6 5 7 10 4 6 -3 10 -11 10 -16z m-5887 -544 c63
-154 117 -288 120 -297 9 -25 -7 -31 -26 -10 -28 31 -99 204 -93 228 8 31 -33
87 -73 100 -29 9 -37 20 -57 74 -28 73 -30 119 -8 161 8 17 17 29 19 27 1 -1
54 -129 118 -283z m4837 135 c0 -5 -4 -10 -9 -10 -6 0 -13 5 -16 10 -3 6 1 10
9 10 9 0 16 -4 16 -10z m-3480 -34 c0 -11 -19 -15 -25 -6 -3 5 1 10 9 10 9 0
16 -2 16 -4z m-1100 -54 c0 -15 9 -56 21 -91 12 -34 19 -64 16 -67 -2 -3 -20
3 -40 13 -29 15 -38 28 -56 84 -11 36 -21 68 -21 72 0 5 22 10 68 16 7 0 12
-10 12 -27z m952 -35 c36 -28 44 -40 49 -77 12 -84 -14 -129 -75 -130 -10 0
-39 -12 -63 -27 -40 -25 -44 -31 -41 -60 3 -23 0 -33 -9 -33 -32 0 -77 -49
-115 -125 -32 -62 -38 -82 -29 -95 6 -8 20 -34 31 -57 11 -24 24 -43 30 -43 5
0 10 -9 10 -20 0 -12 8 -37 19 -58 30 -60 34 -100 13 -131 -29 -41 -34 -62
-19 -80 12 -13 12 -23 3 -50 l-12 -33 -112 120 c-62 66 -112 125 -112 131 0
25 -30 68 -55 79 -15 7 -42 10 -60 6 -29 -5 -36 -1 -69 37 -20 24 -33 46 -29
50 5 4 71 23 147 43 76 19 143 40 147 48 5 7 24 57 44 112 25 69 32 102 25
111 -7 9 -4 20 10 38 19 24 20 32 10 92 l-10 66 32 40 c42 53 91 78 150 79 38
0 55 -6 90 -33z m3993 -12 c37 -33 47 -47 37 -53 -13 -9 -7 -62 7 -62 4 0 15
-13 24 -30 l18 -30 -41 -43 c-24 -27 -40 -54 -40 -69 0 -50 -27 -93 -68 -112
-37 -17 -62 -49 -62 -80 0 -7 13 -25 30 -41 20 -19 27 -32 20 -40 -5 -6 -13
-43 -16 -83 -6 -67 -9 -73 -50 -113 l-44 -43 -38 22 c-72 40 -259 110 -372
138 l-112 29 -24 45 c-12 25 -36 64 -52 88 l-29 43 15 54 15 55 65 0 c115 0
166 42 185 154 11 63 11 64 46 70 20 3 52 6 72 6 45 0 55 12 70 78 l12 51 81
4 c219 9 196 12 251 -38z m-5720 19 c19 -12 38 -14 83 -9 l59 7 10 -51 10 -51
-27 0 c-15 0 -40 -10 -55 -21 -22 -18 -26 -28 -23 -60 3 -31 1 -36 -13 -29
-13 8 -84 230 -72 230 2 0 15 -7 28 -16z m-614 -5 c19 -7 43 -20 55 -30 11
-11 25 -19 31 -19 6 0 13 -12 16 -27 18 -90 29 -116 80 -195 51 -76 66 -108
53 -108 -2 0 -48 12 -102 26 l-97 26 -41 -23 c-84 -46 -174 -119 -185 -150
-14 -42 4 -116 30 -124 10 -4 19 -14 19 -24 0 -10 36 -69 80 -132 46 -64 78
-120 75 -129 -3 -10 8 -21 33 -33 27 -13 50 -38 85 -94 26 -41 47 -77 45 -78
-2 -2 -57 14 -123 36 -109 35 -121 42 -135 71 -24 50 -59 69 -136 75 -38 3
-85 14 -105 24 -72 36 -238 234 -334 400 -30 51 -88 127 -151 194 -56 61 -105
120 -109 133 -6 20 1 31 39 67 53 51 94 62 163 45 43 -11 75 -8 323 33 302 49
341 52 391 36z m3978 -263 c1 -61 -1 -67 -16 -61 -85 34 -110 36 -175 14 -35
-12 -94 -37 -132 -56 l-68 -34 23 33 c75 108 174 199 294 272 l60 36 6 -67 c4
-38 7 -99 8 -137z m-1123 33 c62 -47 63 -40 -20 -126 -47 -49 -54 -53 -98 -53
-66 0 -230 -84 -291 -149 -37 -40 -45 -56 -51 -102 -7 -54 -8 -55 -47 -66 -30
-8 -42 -8 -45 1 -2 6 -20 56 -39 111 -38 104 -39 139 -5 150 11 4 27 19 35 35
13 26 61 50 99 50 5 0 39 25 77 55 l68 55 71 0 c75 0 128 19 164 59 11 12 21
21 23 21 2 0 28 -19 59 -41z m-1934 -132 c83 -111 110 -155 123 -201 l18 -60
-32 -28 c-23 -20 -42 -28 -70 -28 -41 0 -63 16 -206 149 -57 54 -58 54 -17 9
23 -26 43 -53 43 -60 3 -31 -4 -54 -22 -73 -19 -19 -19 -19 -76 0 -120 41
-219 126 -269 233 -41 87 -42 114 -5 145 l32 27 51 -20 c59 -22 51 -15 113
-104 42 -60 57 -73 113 -98 35 -16 66 -27 68 -25 3 2 -7 53 -21 112 -24 104
-25 142 -1 157 32 22 53 4 158 -135z m314 14 c57 -33 158 -137 182 -188 15
-32 15 -35 -4 -54 -12 -11 -36 -26 -55 -32 -19 -7 -37 -15 -39 -18 -3 -3 21
-53 53 -112 57 -105 58 -106 42 -136 -19 -37 -49 -40 -111 -12 -82 37 -145
112 -180 214 -15 45 -15 48 7 86 12 22 31 41 41 43 16 3 11 13 -32 72 -27 38
-50 77 -50 88 0 25 53 78 77 78 10 0 41 -13 69 -29z m2798 -100 c46 -160 48
-164 122 -246 l72 -82 -52 -16 c-29 -10 -56 -17 -59 -17 -4 0 -7 18 -7 40 0
47 -48 110 -84 110 -11 0 -59 -32 -104 -70 -46 -39 -86 -70 -89 -70 -5 0 -6
-3 65 113 53 87 54 89 35 109 -10 11 -33 27 -51 35 l-32 13 60 51 c41 34 63
60 67 80 l6 29 23 -32 c13 -17 26 -39 28 -47z m-1064 0 c0 -18 -18 -21 -30 -6
-10 13 -9 15 9 15 11 0 21 -4 21 -9z m2460 -116 c35 -51 36 -50 -57 -39 -50 6
-53 8 -53 35 0 23 6 30 33 38 17 5 35 10 39 10 4 1 21 -19 38 -44z m-2550 -27
c28 -47 27 -127 -2 -174 -30 -47 -125 -96 -198 -104 l-55 -5 -3 -41 c-3 -38 1
-45 39 -78 49 -41 69 -81 69 -136 l0 -39 -367 6 -368 5 -30 25 c-16 13 -75 58
-130 99 -55 42 -102 78 -104 79 -1 2 0 8 3 14 10 15 83 -20 224 -106 83 -51
127 -72 133 -66 7 7 23 4 49 -11 l39 -21 42 30 c37 26 46 40 71 115 15 46 28
92 28 101 0 14 13 19 68 24 37 3 72 8 79 10 6 2 21 33 32 69 53 173 129 234
294 235 66 1 68 0 87 -31z m193 -35 c-7 -2 -19 -2 -25 0 -7 3 -2 5 12 5 14 0
19 -2 13 -5z m-3719 -223 c6 -45 6 -45 -9 -15 -8 17 -14 46 -14 65 0 28 2 31
8 15 5 -11 11 -40 15 -65z m6339 64 l45 -6 -20 -34 c-11 -19 -24 -36 -28 -39
-8 -5 -140 72 -140 81 0 6 92 5 143 -2z m275 -68 c2 -2 2 -15 0 -29 -3 -25 -3
-25 -63 20 -33 25 -62 47 -63 48 -2 2 25 -5 59 -16 35 -11 65 -21 67 -23z
m-882 -73 c38 -31 38 -33 19 -47 -11 -9 -23 -14 -26 -13 -4 1 -41 34 -83 74
l-75 72 32 5 c81 14 82 13 88 -24 4 -23 19 -45 45 -67z m-4124 66 c28 -22 38
-38 35 -50 -4 -13 5 -26 25 -42 66 -48 248 -233 248 -251 0 -16 -5 -18 -37
-12 -21 3 -72 6 -114 6 l-76 0 -92 86 c-115 108 -148 169 -125 229 7 16 72 65
87 65 5 0 27 -14 49 -31z m3823 -28 c-6 -36 -4 -40 29 -60 71 -44 145 -164
134 -216 -5 -23 -78 81 -78 112 0 21 -4 24 -20 20 -21 -5 -47 18 -139 125
l-32 37 43 9 c71 16 70 16 63 -27z m-805 -1 c0 -5 -5 -10 -11 -10 -5 0 -7 5
-4 10 3 6 8 10 11 10 2 0 4 -4 4 -10z m-479 -86 l30 -31 -39 -10 -40 -10 2 63
c1 44 3 56 9 41 4 -12 22 -36 38 -53z m1074 -14 c63 -70 67 -75 44 -78 -45 -6
-56 -15 -26 -21 26 -5 34 -19 88 -151 33 -80 66 -151 74 -159 21 -21 61 -6 75
29 7 16 16 30 21 30 24 0 153 -200 138 -214 -3 -3 -48 -8 -101 -12 l-96 -7
-31 61 c-19 38 -42 67 -59 76 -43 23 -82 80 -82 121 0 43 -47 135 -87 169 -26
23 -27 26 -11 42 16 16 16 19 -4 46 -28 40 -89 79 -145 93 l-47 12 80 21 c43
11 84 20 89 19 6 -1 42 -36 80 -77z m-877 32 c2 -7 -5 -12 -17 -12 -14 0 -19
5 -14 15 6 17 25 15 31 -3z m-2004 -178 c106 -122 118 -138 112 -165 -5 -27
-3 -29 25 -29 27 0 30 -2 19 -15 -11 -14 -16 -13 -43 4 -24 15 -35 17 -53 9
-19 -9 -28 -6 -54 16 -20 17 -43 26 -65 26 -25 0 -40 8 -61 33 -56 66 -91 190
-63 223 11 14 42 31 59 33 3 1 59 -60 124 -135z m2484 111 c-11 -23 -13 -24
-27 -10 -14 14 -14 17 -1 25 29 19 41 12 28 -15z m1018 -7 c29 -31 29 -31 2
-12 -15 10 -29 25 -32 32 -8 18 -2 15 30 -20z m-1182 -83 l36 -55 -35 0 c-28
0 -45 9 -81 42 l-46 43 43 11 c24 7 44 12 45 13 1 1 18 -24 38 -54z m251 -58
c38 -23 68 -50 79 -72 11 -20 30 -38 43 -42 23 -5 24 -9 18 -53 -10 -71 10
-123 62 -166 49 -40 74 -39 98 4 14 26 14 25 15 -36 0 -69 2 -68 -78 -76 l-52
-5 -13 46 c-8 32 -23 56 -51 79 -22 19 -44 34 -50 34 -13 0 -76 156 -76 187 0
22 -51 73 -100 98 -34 17 -39 39 -12 54 12 7 23 6 37 -3 11 -7 47 -29 80 -49z
m-507 -16 l63 -58 -25 -17 -26 -17 -45 70 c-67 103 -60 108 33 22z m1504 17
c-1 -24 -5 -54 -8 -68 l-6 -25 -19 24 c-26 32 -25 75 4 94 32 23 33 22 29 -25z
m-5697 -58 c33 -7 32 -8 -49 -34 -27 -9 -51 -14 -53 -12 -2 2 1 15 6 30 11 28
33 32 96 16z m708 -47 c15 -20 26 -38 24 -40 -5 -4 -100 28 -110 37 -11 10 20
40 41 40 9 -1 29 -17 45 -37z m2447 -8 c0 -2 -5 -16 -12 -30 l-12 -26 -13 23
c-18 33 -16 38 12 38 14 0 25 -2 25 -5z m1227 -52 c8 -21 23 -48 33 -60 9 -12
23 -56 30 -98 14 -85 25 -101 35 -53 14 72 14 72 37 51 11 -9 34 -41 51 -70
26 -44 36 -53 60 -53 23 0 28 -4 25 -21 -3 -19 -23 -27 -159 -64 -95 -25 -168
-51 -187 -65 -24 -18 -35 -21 -43 -13 -8 8 -20 8 -36 2 -22 -8 -24 -7 -17 8 4
10 10 43 12 73 3 54 3 56 -62 142 -36 48 -66 94 -66 102 0 33 87 36 117 4 35
-38 81 -141 96 -213 7 -38 19 -71 25 -73 6 -2 25 11 42 29 32 36 32 50 -1 124
-10 22 -19 57 -19 78 0 55 -34 116 -74 132 -71 30 -49 75 36 75 47 0 50 -1 65
-37z m-4588 13 c-9 -8 -114 -58 -107 -51 16 16 83 54 97 55 8 0 12 -2 10 -4z
m1428 -62 c21 3 91 8 156 11 135 7 132 11 50 -78 l-42 -45 -103 23 c-57 13
-133 26 -170 30 -65 7 -66 8 -56 30 7 16 7 33 0 53 l-10 30 69 -29 c50 -21 79
-28 106 -25z m2849 -49 c8 -43 1 -110 -11 -108 -5 1 -15 37 -22 80 -6 43 -14
92 -17 108 -5 29 -5 28 19 -10 14 -22 28 -54 31 -70z m-636 73 c0 -5 -16 -73
-36 -151 -36 -140 -56 -307 -37 -307 5 0 14 5 20 11 8 8 25 7 61 -4 54 -15
102 -12 101 7 0 6 -4 33 -8 60 -9 51 13 189 42 271 15 43 40 55 70 33 17 -13
17 -17 -1 -103 -31 -142 -36 -229 -16 -260 19 -30 34 -32 34 -6 0 15 11 19 62
25 34 3 64 9 67 12 3 3 13 60 22 127 19 136 44 265 53 274 3 4 17 1 32 -5 19
-10 24 -17 19 -33 -14 -44 -7 -140 16 -204 12 -36 28 -65 34 -65 13 0 141
-128 134 -134 -3 -3 -178 -47 -390 -97 -277 -65 -421 -95 -518 -105 -96 -10
-140 -19 -153 -31 -15 -13 -23 -14 -44 -5 -16 8 -90 12 -205 12 l-180 0 22 39
22 39 -23 36 c-28 47 -23 81 31 194 21 46 39 91 40 100 0 23 94 93 114 86 24
-10 17 -55 -15 -102 -47 -69 -72 -148 -77 -243 l-6 -86 58 -11 c32 -7 61 -12
65 -12 16 0 30 55 30 115 0 52 3 66 18 74 13 7 22 7 29 0 15 -15 20 8 28 131
6 94 10 108 33 133 54 57 91 17 72 -77 -11 -55 -13 -67 -25 -163 -8 -69 -1
-78 43 -47 21 14 24 14 53 -10 39 -33 93 -35 126 -4 20 19 23 31 23 97 0 79
29 220 55 271 21 41 20 53 -6 40 -27 -15 -36 -6 -12 14 10 8 35 31 56 50 35
32 67 38 67 14z m-1705 -8 c-14 -16 -20 -17 -26 -8 -5 8 -2 16 9 20 30 12 35
8 17 -12z m195 5 c-10 -12 -16 -13 -26 -4 -20 16 -18 19 12 19 22 0 25 -2 14
-15z m1195 6 c-3 -5 -10 -33 -15 -62 -10 -54 -22 -69 -52 -69 -30 0 -24 58 7
70 13 5 31 23 40 40 8 16 18 30 21 30 3 0 3 -4 -1 -9z m-3665 -155 c0 -8 -244
-200 -269 -212 -14 -6 -44 -15 -66 -18 l-40 -7 70 47 c67 46 297 193 303 194
1 0 2 -2 2 -4z m2169 -15 c17 -11 15 -13 -123 -181 -53 -64 -86 -114 -86 -128
0 -12 9 -41 21 -63 11 -23 18 -43 15 -46 -2 -3 -125 -1 -272 4 l-267 8 103 58
c56 31 112 57 125 57 18 0 25 8 34 43 9 37 19 47 83 89 67 42 77 46 119 41 45
-5 47 -4 120 60 72 64 99 76 128 58z m3551 -53 c0 -4 -27 -8 -60 -8 -46 0 -60
3 -60 15 0 13 10 18 65 28 20 3 55 -18 55 -35z m-3342 16 c18 -5 22 -13 20
-33 -2 -19 -19 -37 -60 -65 -32 -22 -54 -44 -51 -50 4 -6 6 -28 4 -49 -2 -31
3 -45 24 -67 l26 -28 -30 -60 -31 -61 -57 5 c-155 13 -166 15 -147 29 14 10
17 24 15 64 -2 48 1 56 63 145 36 52 66 99 66 105 0 10 105 70 125 70 6 1 20
-2 33 -5z m333 -37 l-24 -22 19 27 c10 14 21 24 23 22 3 -3 -6 -15 -18 -27z
m347 -3 c31 -9 30 -57 -3 -96 -59 -70 -100 -186 -85 -240 13 -44 36 -75 62
-85 18 -6 10 -9 -37 -14 -33 -4 -69 -9 -80 -13 -11 -3 -28 0 -38 8 -15 12 -17
18 -7 36 6 12 15 61 20 109 10 111 49 223 91 268 34 35 40 37 77 27z m-333
-271 c-25 -60 -45 -114 -45 -120 0 -14 -56 -18 -64 -5 -4 7 142 232 151 232 1
0 -18 -48 -42 -107z"/>
<path d="M5793 3645 c-18 -13 -23 -26 -23 -60 0 -41 3 -47 40 -71 33 -22 48
-26 86 -21 57 6 69 17 69 67 0 56 -37 91 -102 97 -34 3 -55 0 -70 -12z"/>
<path d="M7076 3299 c-32 -25 -36 -73 -6 -89 12 -6 20 -21 20 -35 0 -19 18
-39 76 -85 85 -68 123 -90 154 -90 21 0 59 35 60 55 0 14 -252 265 -266 265
-6 0 -23 -9 -38 -21z"/>
<path d="M4297 2978 c-71 -19 -88 -92 -27 -123 42 -22 77 -19 105 10 32 31 33
80 3 106 -26 21 -28 21 -81 7z"/>
<path d="M4767 2360 c-16 -13 -29 -36 -33 -57 -6 -32 -3 -40 20 -60 35 -30 98
-31 126 -3 32 32 25 63 -24 104 -24 20 -49 36 -54 36 -5 0 -21 -9 -35 -20z"/>
<path d="M6490 5650 c0 -5 5 -10 11 -10 5 0 7 5 4 10 -3 6 -8 10 -11 10 -2 0
-4 -4 -4 -10z"/>
<path d="M9423 3103 c-12 -2 -36 -20 -53 -39 -37 -42 -40 -92 -8 -136 12 -18
23 -52 26 -82 l4 -51 -97 123 c-53 67 -100 122 -104 122 -17 0 -61 -42 -61
-58 0 -9 13 -42 30 -72 16 -30 29 -66 30 -79 0 -15 16 -39 40 -63 36 -34 47
-38 91 -38 47 0 51 2 64 33 l14 32 1 -32 c0 -31 36 -92 89 -150 46 -52 104 -8
145 108 24 69 26 82 17 137 -12 78 -36 127 -83 174 -31 31 -110 81 -120 77 -2
-1 -13 -4 -25 -6z"/>
<path d="M8722 2183 c-34 -7 -55 -44 -43 -76 20 -53 150 -111 237 -105 45 3
49 5 58 35 14 52 -8 74 -119 116 -54 20 -100 36 -104 36 -3 -1 -16 -4 -29 -6z"/>
<path d="M9153 1818 c-37 -10 -60 -57 -42 -89 5 -10 13 -19 17 -19 4 0 32 -24
61 -52 64 -64 108 -147 125 -238 8 -42 23 -81 39 -101 14 -19 28 -45 32 -59 8
-34 39 -67 109 -120 l58 -44 34 19 c49 26 45 50 -27 136 -37 44 -97 197 -154
392 -34 118 -153 201 -252 175z"/>
</g>
</svg>
