<?xml version="1.0" standalone="no"?>
<!DOCTYPE svg PUBLIC "-//W3C//DTD SVG 20010904//EN"
 "http://www.w3.org/TR/2001/REC-SVG-20010904/DTD/svg10.dtd">
<svg version="1.0" xmlns="http://www.w3.org/2000/svg"
 width="1024.000000pt" height="1024.000000pt" viewBox="0 0 1024.000000 1024.000000"
 preserveAspectRatio="xMidYMid meet">
<metadata>
Created by potrace 1.10, written by Peter Selinger 2001-2011
</metadata>
<g transform="translate(0.000000,1024.000000) scale(0.100000,-0.100000)"
fill="#000000" stroke="none">
<path d="M7560 8403 c-229 -37 -895 -120 -1160 -143 -190 -17 -570 -51 -845
-75 -2600 -232 -2984 -265 -3107 -265 -154 0 -368 30 -476 67 -24 8 -45 13
-47 11 -1 -2 13 -52 32 -113 28 -93 40 -117 76 -154 58 -60 146 -116 222 -141
36 -12 67 -26 71 -31 10 -16 121 -68 169 -79 46 -10 161 6 1084 156 85 13 158
21 161 17 34 -39 106 -153 129 -205 43 -95 48 -121 77 -408 26 -262 26 -269
15 -635 -6 -203 -14 -420 -17 -481 l-6 -110 -865 -79 c-836 -75 -868 -77 -932
-63 -36 9 -165 39 -287 68 -220 53 -249 55 -288 27 -18 -13 -18 -17 -6 -47 7
-18 36 -50 64 -72 103 -80 230 -315 295 -543 65 -230 117 -482 195 -950 37
-222 138 -893 180 -1205 119 -866 128 -920 189 -1082 30 -79 49 -110 96 -161
46 -49 80 -67 129 -67 69 0 100 53 109 186 l6 81 111 7 c61 3 417 22 791 41
374 19 808 42 965 50 157 8 591 31 965 50 374 19 895 46 1159 60 263 14 490
25 505 25 22 0 30 -9 54 -59 35 -73 114 -163 175 -198 57 -34 138 -37 191 -9
115 61 243 247 305 444 110 350 227 982 386 2092 88 615 140 827 261 1057 38
72 73 148 77 170 l8 38 -120 129 c-91 97 -146 145 -221 196 -119 80 -220 132
-299 155 -54 16 -63 16 -179 -4 -163 -27 -561 -62 -1247 -111 -311 -22 -586
-42 -611 -45 l-46 -5 4 207 c8 463 39 1065 58 1115 3 7 14 76 25 153 l19 140
-23 50 c-25 55 -108 143 -173 185 l-41 26 396 17 c1443 63 1781 79 1815 88 52
14 105 63 113 105 9 48 -1 79 -42 124 -62 69 -128 109 -263 160 -130 50 -130
50 -243 49 -62 -1 -124 -4 -138 -6z m-2131 -612 c98 -78 161 -293 181 -621 5
-91 10 -404 10 -695 l0 -531 -582 -42 c-321 -24 -598 -45 -617 -48 l-34 -5 7
148 c4 81 18 411 32 733 13 322 30 613 36 648 l11 64 -99 100 c-70 71 -116
108 -157 128 l-57 28 42 6 c145 20 721 79 923 95 132 10 246 19 254 20 7 0 30
-12 50 -28z m2533 -2074 c46 -22 61 -36 78 -72 l21 -43 -36 -299 c-20 -164
-58 -480 -85 -702 -27 -222 -51 -405 -53 -407 -2 -3 -48 12 -102 31 l-99 36
-175 -31 c-97 -17 -367 -52 -601 -77 -392 -42 -433 -44 -526 -35 -176 19 -277
72 -321 169 l-26 56 8 661 c4 363 8 662 9 663 6 6 1594 81 1706 80 137 -2 148
-4 202 -30z m-2342 -770 c0 -654 1 -698 19 -770 24 -93 47 -138 100 -199 46
-51 153 -112 218 -122 21 -3 227 -24 458 -46 l420 -40 492 32 c271 18 495 30
498 27 5 -6 -61 -463 -90 -619 -49 -264 -102 -471 -160 -623 l-36 -93 -642
-32 c-978 -50 -3125 -159 -3642 -186 -253 -13 -461 -23 -463 -22 -1 2 -72 675
-157 1497 -85 822 -157 1515 -160 1541 l-5 46 47 6 c119 16 1378 135 1381 131
7 -6 -26 -213 -59 -373 -117 -566 -326 -1002 -692 -1442 -39 -47 -144 -159
-234 -250 -89 -90 -161 -165 -160 -165 1 -1 14 -9 29 -18 36 -23 72 -21 139 6
224 92 604 444 849 787 291 406 466 828 565 1364 14 77 27 141 28 142 2 3
1182 111 1230 113 l27 1 0 -693z"/>
</g>
</svg>
