<?xml version="1.0" standalone="no"?>
<!DOCTYPE svg PUBLIC "-//W3C//DTD SVG 20010904//EN"
 "http://www.w3.org/TR/2001/REC-SVG-20010904/DTD/svg10.dtd">
<svg version="1.0" xmlns="http://www.w3.org/2000/svg"
 width="1024.000000pt" height="1024.000000pt" viewBox="0 0 1024.000000 1024.000000"
 preserveAspectRatio="xMidYMid meet">
<metadata>
Created by potrace 1.10, written by Peter Selinger 2001-2011
</metadata>
<g transform="translate(0.000000,1024.000000) scale(0.100000,-0.100000)"
fill="#000000" stroke="none">
<path d="M2941 8991 c-56 -15 -88 -114 -46 -144 10 -8 84 -21 174 -31 86 -9
368 -39 626 -66 387 -40 1082 -134 1350 -181 33 -6 283 -66 555 -134 579 -145
770 -210 1015 -344 152 -83 313 -205 380 -287 33 -40 36 -49 29 -77 -9 -29
-20 -35 -204 -110 l-195 -79 -615 -94 c-338 -52 -691 -101 -785 -110 -637 -56
-1189 -229 -1699 -534 -386 -230 -740 -567 -935 -890 -61 -102 -81 -162 -81
-248 0 -59 2 -66 34 -98 32 -32 38 -34 100 -34 36 0 168 9 294 20 125 11 517
44 872 75 l645 55 340 -10 c443 -12 663 -42 1020 -140 390 -108 622 -236 851
-472 89 -91 624 -789 624 -814 0 -8 39 -77 86 -152 47 -75 119 -204 159 -287
79 -162 62 -104 239 -795 36 -140 94 -367 129 -505 36 -137 126 -488 200 -780
l136 -530 51 -380 c28 -209 55 -394 61 -412 15 -48 46 -81 100 -108 59 -30 83
-31 109 -5 18 18 20 33 20 130 0 94 -13 178 -91 612 -97 536 -91 511 -538
2258 l-68 265 -165 330 c-172 342 -215 418 -402 695 -200 297 -307 426 -523
634 -211 202 -262 240 -468 347 -350 182 -726 285 -1240 341 -75 8 -249 13
-465 13 -369 0 -516 -11 -794 -61 -114 -21 -1056 -118 -1064 -110 -1 2 14 31
34 65 51 86 319 388 420 474 110 93 306 235 435 316 249 155 608 309 886 380
123 32 1404 221 1628 241 240 21 477 73 739 161 171 57 192 67 242 112 59 51
84 116 84 217 0 147 -37 244 -129 344 -62 66 -99 90 -291 186 -91 46 -193 101
-227 122 -43 27 -139 65 -315 124 l-253 85 -886 174 -886 175 -589 40 c-594
40 -669 44 -713 31z"/>
<path d="M4250 5120 c-1272 -141 -1279 -141 -1338 -130 -126 23 -241 8 -273
-37 -8 -11 -41 -37 -74 -58 -66 -42 -76 -52 -106 -109 -19 -35 -25 -91 -55
-530 -43 -605 -45 -671 -22 -711 12 -22 19 -77 27 -210 6 -99 19 -270 27 -379
l16 -199 56 -96 c92 -154 193 -251 337 -324 142 -72 157 -74 725 -121 l525
-44 540 23 c509 22 554 25 790 61 303 45 321 52 444 173 166 162 232 293 295
581 71 328 85 473 96 987 5 244 11 447 15 453 11 18 7 244 -5 295 -41 168
-169 321 -320 382 -52 21 -77 22 -470 32 -671 17 -732 16 -1230 -39z m1045
-190 c286 -11 543 -25 571 -30 54 -11 129 -59 138 -88 7 -21 38 -334 34 -336
-132 -74 -270 -214 -642 -653 -164 -194 -300 -353 -303 -353 -22 0 -606 338
-700 405 -90 64 -180 114 -380 211 -219 107 -260 130 -251 142 7 8 163 148
348 313 200 177 346 315 362 341 l27 43 118 11 c65 6 127 12 138 13 11 1 254
-8 540 -19z m-1170 -69 c-92 -89 -607 -541 -613 -537 -4 2 -108 47 -232 101
-196 85 -506 242 -496 252 1 2 300 48 662 103 362 55 666 102 674 104 33 8 33
5 5 -23z m-1315 -452 c103 -64 215 -117 335 -158 50 -18 113 -44 141 -58 l52
-27 -145 -140 c-204 -197 -379 -405 -518 -614 -26 -40 -50 -70 -53 -67 -5 5
14 820 24 1042 l6 133 37 -29 c20 -16 75 -53 121 -82z m3240 -654 c-13 -188
-42 -391 -80 -561 -28 -132 -86 -333 -99 -346 -3 -4 -33 24 -66 63 -41 47
-133 126 -287 245 -126 97 -228 178 -228 180 0 6 379 471 471 577 4 5 14 -17
24 -48 9 -31 18 -55 21 -52 3 3 -2 29 -10 58 l-16 53 137 138 138 138 3 -147
c2 -82 -2 -215 -8 -298z m-2241 195 c222 -98 275 -126 463 -247 117 -74 269
-167 337 -205 122 -68 277 -162 315 -191 23 -17 67 42 -348 -472 -164 -203
-308 -385 -320 -402 l-21 -33 -303 0 -303 0 -277 45 -277 45 -187 125 c-164
109 -188 128 -188 151 0 14 -9 38 -20 54 -18 26 -50 146 -50 191 0 12 7 19 20
19 33 0 96 66 151 158 169 282 391 549 649 779 58 51 106 93 107 93 1 0 115
-50 252 -110z m1472 -897 c126 -101 430 -388 449 -424 6 -11 2 -25 -13 -46
-19 -28 -39 -36 -181 -78 l-159 -47 -381 -19 c-210 -11 -400 -18 -423 -17
l-42 3 205 250 c113 138 249 303 302 368 53 64 99 117 102 117 4 0 67 -48 141
-107z"/>
</g>
</svg>
