<?xml version="1.0" standalone="no"?>
<!DOCTYPE svg PUBLIC "-//W3C//DTD SVG 20010904//EN"
 "http://www.w3.org/TR/2001/REC-SVG-20010904/DTD/svg10.dtd">
<svg version="1.0" xmlns="http://www.w3.org/2000/svg"
 width="1024.000000pt" height="1024.000000pt" viewBox="0 0 1024.000000 1024.000000"
 preserveAspectRatio="xMidYMid meet">
<metadata>
Created by potrace 1.10, written by Peter Selinger 2001-2011
</metadata>
<g transform="translate(0.000000,1024.000000) scale(0.100000,-0.100000)"
fill="#000000" stroke="none">
<path d="M5075 10096 c-96 -23 -147 -58 -320 -215 -93 -85 -174 -158 -179
-162 -5 -5 -12 -28 -15 -51 l-6 -43 -85 3 -85 3 -118 -79 c-116 -78 -119 -80
-198 -198 -44 -65 -82 -120 -84 -122 -2 -2 -39 10 -82 27 -105 42 -218 69
-316 77 -74 7 -89 12 -149 51 l-68 43 -170 6 c-93 4 -170 10 -170 14 0 14
-109 90 -177 124 -91 45 -181 66 -287 66 -86 0 -91 -1 -217 -59 -70 -32 -165
-85 -210 -117 -160 -115 -203 -172 -599 -782 l-363 -560 -39 0 c-22 -1 -45 -5
-51 -10 -7 -5 -124 -96 -262 -203 l-250 -195 -155 -47 c-330 -101 -380 -127
-364 -191 6 -27 60 -70 75 -60 4 2 39 -3 79 -11 175 -37 300 -2 528 146 58 38
107 67 110 65 2 -2 -125 -200 -283 -440 -157 -240 -293 -453 -301 -472 -26
-61 6 -113 83 -135 l47 -13 81 86 c45 46 108 120 141 164 32 43 383 587 779
1208 452 710 740 1151 773 1187 29 32 77 74 106 93 102 67 274 107 398 92 48
-6 65 -15 139 -75 l84 -68 154 -7 c160 -7 235 -19 262 -42 8 -8 23 -14 32 -14
8 0 29 -12 46 -26 38 -31 80 -44 151 -44 68 -1 231 -46 368 -102 l102 -41 0
-36 c0 -20 14 -97 30 -171 17 -74 30 -148 30 -163 0 -16 9 -64 20 -106 11 -43
80 -433 154 -867 75 -434 142 -807 151 -827 19 -45 78 -113 116 -133 46 -24
77 -18 99 18 41 67 38 103 -28 373 -109 439 -140 606 -237 1239 -36 236 -65
457 -65 491 0 114 -40 227 -112 316 l-45 55 28 55 c19 38 60 84 138 157 l109
102 54 0 c29 0 80 -7 113 -15 33 -9 278 -62 545 -119 472 -101 489 -105 615
-161 237 -104 417 -162 575 -184 41 -6 116 -26 165 -46 134 -53 394 -110 683
-150 142 -19 265 -35 275 -35 47 0 76 79 37 100 -11 6 -351 93 -757 194 l-738
184 -289 112 -289 112 -301 54 c-166 30 -305 55 -310 57 -4 1 57 64 136 138
l144 136 63 7 c34 4 83 4 109 0 69 -10 527 -198 592 -243 30 -21 78 -43 105
-50 28 -7 257 -101 510 -208 l460 -196 319 -78 c176 -43 334 -83 350 -89 17
-5 128 -32 246 -60 118 -28 241 -60 273 -70 87 -30 99 -27 146 32 35 44 39 53
28 67 -7 9 -20 33 -29 53 -16 35 -22 38 -120 68 -219 67 -259 80 -281 94 -12
7 -58 21 -102 31 -44 9 -303 99 -575 200 -272 101 -549 199 -615 219 -334 99
-901 311 -949 355 -33 29 -165 92 -236 112 -75 22 -198 24 -275 5z"/>
<path d="M8650 9173 c-120 -21 -222 -76 -305 -162 -105 -109 -154 -204 -205
-395 l-41 -157 25 -30 c34 -40 34 -85 0 -135 -15 -21 -42 -93 -61 -159 -50
-178 -46 -170 -119 -198 -82 -32 -183 -100 -274 -184 -198 -183 -340 -434
-412 -727 l-30 -120 36 -33 c46 -42 68 -42 103 3 15 20 61 61 103 91 41 29 98
71 125 93 28 21 55 39 61 39 6 1 46 19 89 41 43 22 89 40 102 40 20 0 23 -5
23 -39 0 -21 5 -52 11 -69 8 -24 7 -56 -5 -132 -17 -109 -20 -268 -7 -340 6
-27 18 -52 33 -65 14 -11 52 -59 86 -106 34 -47 82 -100 108 -118 50 -36 50
-37 20 -119 -18 -47 -14 -96 10 -144 13 -26 13 -26 -36 -44 -58 -21 -116 -63
-87 -64 25 0 -135 -148 -398 -365 -194 -161 -404 -379 -554 -573 l-134 -172
-46 6 c-32 4 -240 -22 -686 -86 l-640 -92 -540 21 c-297 12 -574 26 -615 32
-41 6 -133 14 -205 19 -214 14 -482 67 -650 128 -41 15 -49 22 -47 40 2 15 -7
28 -35 46 -35 22 -70 34 -191 66 -28 7 -46 19 -52 33 -21 52 -63 102 -196 230
-114 111 -144 135 -162 130 -31 -8 -27 -35 13 -85 107 -134 202 -283 207 -327
3 -20 -10 -29 -107 -72 -148 -67 -172 -73 -455 -110 -232 -30 -251 -31 -352
-20 -95 11 -114 11 -158 -4 -27 -9 -50 -18 -50 -20 0 -10 51 -29 143 -53 94
-24 119 -26 309 -27 153 0 210 3 220 12 6 7 32 13 57 13 57 1 131 17 151 34 8
7 80 29 160 49 135 34 147 40 186 78 37 36 46 40 73 34 26 -5 31 -11 26 -26
-6 -17 -1 -19 39 -19 36 0 63 -10 131 -49 105 -60 244 -107 378 -127 199 -30
537 -93 604 -114 192 -59 502 -95 743 -87 203 7 244 13 1030 141 349 57 636
103 638 101 2 -1 -26 -44 -61 -95 l-65 -92 -7 -144 -7 -143 -637 -418 c-350
-229 -660 -432 -690 -450 -30 -18 -57 -37 -60 -41 -3 -5 -85 -55 -181 -111
-148 -87 -189 -116 -265 -191 -106 -104 -152 -130 -230 -130 -31 0 -258 -34
-506 -75 l-450 -75 -132 16 -132 17 -261 157 c-371 225 -516 294 -789 374
-194 57 -385 129 -463 174 -64 38 -83 57 -161 161 -64 84 -104 127 -141 151
-28 18 -76 64 -107 102 -65 83 -144 146 -233 189 -96 46 -373 162 -549 230
-136 53 -158 58 -185 49 l-32 -10 -63 -325 c-48 -246 -62 -336 -57 -369 5 -30
1 -69 -14 -124 -19 -77 -20 -93 -10 -334 19 -487 16 -466 74 -470 48 -4 121 7
191 29 28 8 226 68 440 133 264 80 395 115 406 109 10 -5 41 -1 82 10 65 19
311 39 272 23 -19 -8 -19 -9 0 -19 13 -8 36 -6 84 8 154 44 271 1 271 -100 0
-36 0 -37 -39 -33 -34 3 -43 -1 -72 -32 -29 -33 -37 -36 -86 -36 -67 0 -116
-23 -111 -52 2 -15 30 -33 108 -69 58 -26 115 -48 128 -49 26 0 27 -2 5 -43
-9 -17 -19 -43 -22 -56 -6 -20 -41 -37 -256 -120 -138 -54 -313 -129 -390
-168 -77 -39 -203 -96 -280 -127 -143 -58 -371 -168 -483 -234 l-63 -37 30
-10 31 -10 -46 -98 c-26 -54 -43 -101 -40 -104 4 -4 32 -8 64 -11 57 -3 57 -3
152 65 52 38 101 73 108 77 15 9 382 -102 382 -116 0 -4 -20 -39 -45 -78 -25
-39 -45 -77 -45 -85 0 -19 39 -45 67 -45 17 0 85 60 236 208 117 114 269 261
338 327 127 122 164 174 176 249 6 41 31 62 116 101 81 38 209 63 432 85 131
14 235 30 300 48 83 22 119 27 207 25 59 0 122 -6 140 -12 27 -9 51 -7 123 9
97 21 143 24 163 12 9 -6 -31 -46 -130 -129 -79 -67 -233 -215 -343 -330 -110
-114 -231 -234 -270 -267 -233 -194 -554 -513 -656 -653 -24 -32 -49 -62 -56
-66 -7 -5 -24 -23 -36 -41 -12 -19 -57 -75 -99 -125 -92 -109 -97 -130 -42
-185 39 -39 71 -52 103 -41 11 3 118 117 236 253 119 136 240 265 268 287 29
21 158 143 287 270 129 127 280 267 335 310 200 157 374 313 590 529 210 211
222 221 260 222 22 1 164 28 315 59 215 45 306 60 420 67 80 5 193 18 251 28
58 11 142 20 185 20 136 0 396 52 650 130 126 39 354 107 506 151 229 65 290
79 348 79 49 0 70 -4 70 -12 0 -25 49 -855 55 -929 l6 -76 -68 4 c-79 5 -335
-36 -576 -92 -84 -19 -375 -100 -647 -180 -272 -79 -496 -143 -498 -141 -5 6
59 40 140 76 43 18 76 35 74 37 -6 6 -199 -27 -266 -46 -36 -10 -191 -66 -346
-124 l-281 -105 -138 8 -138 9 -71 -36 -71 -36 -416 -23 c-541 -29 -649 -48
-838 -144 -147 -74 -187 -118 -179 -198 l5 -47 -50 -23 c-64 -28 -56 -39 9
-12 34 15 59 19 86 15 30 -5 61 3 165 43 144 56 251 83 444 113 l133 20 44
-32 c40 -29 48 -31 74 -21 25 9 32 7 51 -12 14 -14 41 -25 71 -29 42 -6 84 3
299 63 138 39 259 70 270 68 12 -2 -28 -22 -94 -47 -63 -24 -172 -71 -244
-103 -71 -33 -136 -62 -143 -65 -6 -3 -12 2 -12 11 0 14 -28 36 -45 36 -4 0
-4 -17 -1 -37 l7 -38 -127 -64 c-95 -49 -320 -174 -330 -185 -1 0 -4 -13 -8
-27 -6 -27 -5 -27 62 -34 65 -6 72 -4 209 49 78 30 242 105 365 165 182 89
300 138 638 261 446 163 1043 391 1100 420 157 79 798 227 1276 294 l41 6 12
-53 c10 -40 11 -147 4 -457 -12 -619 -11 -699 10 -737 22 -40 64 -63 116 -63
47 0 66 21 77 86 6 42 6 42 44 37 31 -4 41 -2 52 16 17 27 48 28 48 1 0 -11
15 -36 33 -56 47 -52 111 -56 231 -15 50 17 101 31 115 31 14 0 72 16 128 36
l101 36 46 -27 c36 -21 49 -24 65 -16 25 14 93 14 123 1 15 -7 48 -8 98 -2 42
5 82 6 91 1 9 -5 91 -18 182 -29 190 -23 356 -26 376 -7 11 10 13 10 7 0 -6
-10 18 -13 104 -13 105 0 111 1 119 23 5 12 17 29 27 38 11 9 250 146 533 304
l513 288 -5 33 -5 32 106 6 c59 4 119 9 135 12 l27 6 0 2664 c0 2176 -2 2664
-13 2664 -12 0 -611 -137 -827 -189 -106 -26 -104 -26 -118 4 -11 23 -5 34 69
136 71 98 84 122 111 212 28 91 31 121 37 280 l6 177 80 -50 c44 -28 136 -102
205 -165 84 -77 133 -115 148 -115 29 0 72 46 72 77 0 13 8 36 18 50 14 23 17
49 16 168 -1 125 -4 151 -31 241 -33 108 -53 153 -77 173 -9 8 -16 18 -16 23
0 5 -21 37 -47 70 -99 125 -244 205 -422 230 l-92 13 -71 150 c-38 83 -80 164
-92 180 -20 29 -21 34 -10 119 11 90 4 223 -16 314 -6 23 -10 53 -10 65 0 17
-38 61 -133 154 -145 143 -134 137 -282 147 -38 2 -81 2 -95 -1z m-299 -531
c27 -72 27 -73 6 -66 -33 11 -57 7 -78 -12 -24 -21 -24 -12 -4 75 25 106 36
106 76 3z m702 -40 c-8 -21 -10 -21 -32 -6 l-23 16 29 30 28 30 3 -24 c2 -13
-1 -34 -5 -46z m-284 -1 l44 -6 -58 -68 c-53 -63 -60 -68 -88 -63 -16 3 -46 6
-66 6 -32 0 -39 5 -64 45 -26 45 -34 84 -19 99 7 8 166 0 251 -13z m249 -101
c21 0 -16 -55 -75 -111 -29 -28 -83 -64 -119 -81 -56 -26 -82 -32 -163 -36
-117 -5 -189 8 -281 54 -85 43 -120 82 -119 132 0 20 3 30 6 22 20 -55 74 -66
110 -22 l23 27 17 -25 c9 -14 41 -49 70 -77 51 -52 54 -53 112 -53 32 0 72 -3
89 -6 26 -5 39 2 110 64 43 39 97 94 117 123 l39 51 25 -31 c14 -17 32 -31 39
-31z m105 -237 c66 -39 82 -72 81 -168 0 -44 -1 -161 -2 -260 -2 -227 -32
-491 -67 -598 -42 -129 -65 -164 -184 -274 l-109 -103 -260 0 -259 0 -35 33
c-59 55 -75 93 -97 232 -35 220 -45 430 -32 690 9 204 13 238 36 300 14 39 25
78 25 89 0 12 5 16 16 12 8 -3 25 1 38 9 21 14 27 13 72 -6 58 -26 242 -69
293 -69 46 0 158 36 291 94 58 25 115 45 127 46 12 0 42 -12 66 -27z m-9
-1847 c-26 -32 -51 -50 -77 -57 -21 -5 -45 -13 -53 -16 -10 -4 -14 2 -14 21 0
15 -11 38 -24 51 -33 33 -20 41 83 53 46 6 88 15 94 21 9 9 14 7 21 -8 6 -15
0 -29 -30 -65z m-289 -66 c22 -8 26 -15 23 -42 -2 -25 -13 -39 -46 -63 -40
-27 -51 -30 -121 -30 -93 0 -116 12 -99 53 18 42 32 53 89 72 61 21 116 25
154 10z m-375 -159 c0 -22 2 -46 5 -53 7 -17 -21 -31 -105 -53 l-60 -16 -25
28 c-44 51 -28 85 55 113 30 10 72 19 93 19 37 1 37 1 37 -38z m282 -748 c10
-9 18 -30 18 -46 0 -34 47 17 -591 -637 -409 -420 -414 -425 -457 -428 -52 -4
-72 10 -72 50 0 64 68 145 488 581 502 523 537 550 614 480z m369 -136 c26
-17 35 -31 37 -58 4 -42 91 60 -747 -874 -365 -407 -675 -746 -687 -752 -26
-15 -61 -5 -83 21 -24 28 -14 72 36 164 42 77 113 163 555 660 438 494 528
591 670 717 89 80 168 145 174 145 6 0 26 -10 45 -23z m153 -898 c33 -15 50
-57 37 -91 -13 -36 -33 -53 -211 -188 -85 -64 -190 -150 -234 -191 l-78 -73
32 -11 c47 -16 73 -52 67 -92 -9 -54 -76 -161 -171 -272 -129 -150 -127 -148
-65 -108 63 40 163 77 209 77 60 0 92 -109 51 -175 -10 -16 -62 -77 -115 -135
-172 -187 -289 -339 -416 -541 -37 -59 -100 -149 -141 -198 -62 -78 -77 -91
-103 -91 -37 0 -76 35 -76 67 0 35 81 193 160 311 l69 102 -47 -27 c-26 -14
-52 -30 -59 -35 -7 -6 -31 -3 -60 5 -56 16 -79 49 -69 100 4 18 69 129 145
247 76 118 137 216 136 218 -1 2 -43 0 -93 -4 l-90 -7 -101 -122 c-114 -138
-202 -225 -226 -225 -9 0 -30 13 -46 29 -63 64 -24 183 99 303 116 113 1189
1066 1229 1091 71 45 123 56 167 36z m-7042 -1330 c18 -11 24 -18 13 -15 -11
3 -33 8 -48 12 -21 5 -25 9 -15 15 17 11 13 12 50 -12z m7625 -285 c52 -33 34
-102 -40 -152 -23 -16 -79 -48 -123 -70 -152 -77 -259 -148 -559 -377 -298
-226 -391 -285 -451 -285 -38 0 -54 17 -61 67 -4 29 1 46 19 73 25 36 813 606
937 676 82 47 210 94 236 87 11 -3 30 -11 42 -19z m-7282 -145 c14 -14 -46
-10 -80 5 -29 13 -28 13 20 8 28 -2 54 -8 60 -13z m-910 -549 c-21 -23 -35
-26 -35 -6 0 13 15 21 44 25 5 0 1 -8 -9 -19z m7956 -39 c63 -64 32 -106 -152
-202 -292 -153 -431 -251 -836 -587 -323 -268 -326 -270 -384 -213 -35 35 -36
58 -6 99 21 30 510 443 672 568 195 150 577 363 653 364 13 0 37 -13 53 -29z
m-1352 -276 c37 -32 46 -58 31 -94 -9 -23 -415 -417 -811 -787 l-86 -82 -41
11 c-47 12 -77 54 -68 93 10 37 706 722 824 810 53 40 102 73 109 73 6 1 25
-10 42 -24z m1535 15 c14 -5 32 -20 41 -34 21 -32 8 -76 -35 -124 -16 -17
-265 -202 -552 -409 -288 -207 -539 -389 -558 -405 -26 -21 -45 -28 -78 -28
-55 0 -76 11 -92 49 -11 27 -9 36 11 78 19 37 41 59 105 103 44 30 136 102
205 160 250 213 384 307 685 485 126 74 232 135 236 135 4 0 18 -4 32 -10z
m-5544 -384 c0 -2 -7 -7 -16 -10 -8 -3 -12 -2 -9 4 6 10 25 14 25 6z"/>
<path d="M5414 8965 c-9 -23 3 -45 24 -45 11 0 31 -10 46 -21 19 -15 259 -83
814 -229 l787 -208 165 -7 165 -6 -37 19 c-20 11 -49 28 -65 39 -42 30 -1145
337 -1358 378 -533 105 -532 105 -541 80z"/>
<path d="M6062 8972 c-9 -6 -10 -16 -3 -34 l10 -26 48 17 c42 14 44 16 21 19
-14 2 -32 10 -38 18 -14 16 -20 17 -38 6z"/>
<path d="M4886 8755 c-68 -41 -127 -97 -167 -158 -39 -60 -48 -90 -29 -102 15
-9 43 10 140 95 50 44 95 80 99 80 10 0 27 -42 36 -90 13 -64 52 -118 107
-146 47 -24 60 -26 142 -22 101 5 169 28 242 85 24 17 61 41 83 53 42 21 51
39 28 58 -19 16 -68 7 -255 -45 l-163 -46 -29 28 c-16 15 -33 39 -38 54 -5 14
-17 47 -27 74 -18 50 -61 92 -105 100 -16 4 -39 -3 -64 -18z"/>
<path d="M6158 8275 c-102 -28 -259 -148 -348 -267 -33 -44 -60 -84 -60 -90 0
-8 -60 -9 -207 -5 -223 7 -272 2 -298 -36 -27 -39 -19 -70 38 -133 29 -32 58
-71 66 -85 7 -15 24 -32 36 -37 13 -6 66 -42 117 -81 91 -67 97 -70 166 -77
62 -6 72 -9 72 -26 0 -10 9 -36 20 -58 11 -22 20 -44 20 -49 0 -5 -35 -52 -78
-103 -43 -51 -87 -109 -97 -128 -46 -88 -69 -137 -76 -165 -10 -40 -32 -96
-44 -115 -15 -23 -36 -82 -42 -115 -24 -160 -36 -222 -43 -230 -4 -5 -10 -46
-14 -89 -4 -44 -13 -91 -20 -105 -7 -14 -16 -59 -19 -100 -3 -41 -11 -79 -17
-85 -23 -23 -9 -230 25 -343 l12 -42 -50 -6 c-47 -7 -51 -10 -88 -69 -35 -55
-39 -67 -38 -126 l0 -65 61 -47 c57 -45 65 -48 120 -48 44 0 58 4 58 14 0 31
22 26 64 -12 24 -22 57 -43 75 -47 39 -8 127 3 162 21 46 23 51 37 41 106 -5
35 -9 64 -8 65 6 7 265 25 456 33 230 9 315 24 444 76 61 24 71 32 107 87 21
34 39 63 39 66 5 95 10 135 19 163 28 86 36 192 35 508 0 314 -1 327 -22 373
-12 27 -22 50 -22 53 0 2 20 -10 44 -28 38 -26 47 -40 67 -101 28 -88 58 -123
117 -141 67 -20 72 -13 72 110 0 58 4 106 10 109 19 12 10 70 -19 130 -16 33
-41 85 -55 115 -48 104 -136 183 -241 216 -47 15 -55 15 -83 1 -31 -15 -31
-15 -52 20 -11 19 -20 38 -20 43 0 5 -20 32 -45 60 -25 28 -45 55 -45 60 0 5
22 58 49 117 75 163 77 237 15 441 -23 73 -33 89 -86 143 -69 70 -151 113
-249 129 -77 12 -81 12 -141 -5z m7 -274 c66 -29 139 -103 179 -181 34 -65 35
-72 38 -189 1 -68 -2 -125 -7 -129 -6 -5 -107 -23 -225 -40 -177 -27 -221 -30
-251 -21 l-36 11 22 72 c28 92 40 274 20 329 -7 21 -21 47 -30 57 -16 18 -15
21 25 64 23 25 53 47 68 50 51 8 152 -3 197 -23z m-367 -191 c8 0 12 -20 12
-65 0 -55 -3 -65 -17 -65 -15 0 -147 39 -280 83 -18 6 -39 20 -47 31 l-13 21
166 -2 c91 -2 172 -3 179 -3z m-131 -190 l132 -32 -12 -25 c-10 -23 -15 -25
-54 -19 -24 3 -66 15 -93 27 -55 24 -157 94 -125 86 11 -3 79 -19 152 -37z
m203 -418 c0 -20 10 -71 21 -112 11 -41 25 -115 30 -165 6 -49 15 -95 20 -102
15 -17 15 -345 0 -433 -7 -41 -21 -120 -32 -174 -10 -54 -19 -109 -19 -123 0
-32 -101 -232 -164 -323 -29 -41 -61 -92 -71 -112 -21 -41 -30 -43 -86 -28
-32 9 -43 21 -87 98 -44 76 -52 97 -58 162 -9 106 11 268 57 459 21 90 39 181
39 203 0 45 22 128 55 208 30 75 45 122 45 147 0 12 16 45 35 74 20 29 51 80
70 113 45 81 81 128 108 142 29 16 37 10 37 -34z m956 -50 c22 -16 66 -58 99
-94 62 -68 86 -123 100 -228 l6 -45 -84 88 c-70 73 -88 87 -115 87 -26 0 -33
4 -37 28 -3 15 -14 45 -25 67 -10 22 -22 59 -25 83 -6 40 -5 42 18 42 13 0 42
-13 63 -28z m-485 -293 c11 -6 40 -40 65 -77 25 -37 56 -82 70 -101 13 -19 27
-46 29 -60 3 -14 10 -45 15 -69 6 -23 10 -86 10 -140 l0 -97 -46 95 c-37 78
-56 105 -107 151 l-62 57 0 126 c0 69 1 126 3 126 2 0 12 -5 23 -11z m-940
-1299 c9 -31 10 -43 1 -52 -7 -7 -12 -25 -12 -40 0 -33 1 -32 -48 -12 -54 21
-77 77 -52 125 8 14 21 19 55 19 43 0 45 -1 56 -40z m255 -75 c22 -54 19 -62
-32 -70 -33 -5 -52 -2 -69 9 -35 23 -48 52 -35 76 9 16 21 20 66 20 53 0 55
-1 70 -35z"/>
<path d="M6042 7807 c-26 -28 -27 -45 -6 -75 11 -16 25 -22 53 -22 42 0 55 11
64 51 15 62 -65 95 -111 46z"/>
<path d="M2343 8174 c-75 -39 -179 -112 -262 -183 -61 -53 -914 -1093 -919
-1121 -2 -11 7 -25 23 -36 51 -34 90 7 500 518 302 377 390 479 457 536 87 73
263 192 285 192 18 0 16 -20 -8 -130 -25 -115 -23 -225 6 -284 26 -54 84 -113
120 -122 72 -18 257 45 350 120 22 18 111 83 198 145 86 62 157 115 157 120 0
4 23 35 51 70 28 35 48 68 46 75 -4 9 -47 -7 -138 -51 -152 -73 -256 -139
-382 -241 -90 -72 -179 -122 -224 -125 -68 -5 -90 119 -58 319 17 100 17 116
4 150 -17 44 -69 84 -110 84 -15 0 -58 -16 -96 -36z"/>
<path d="M16 4583 c-8 -26 1 -63 15 -63 11 0 11 37 0 65 -8 19 -8 19 -15 -2z"/>
<path d="M4150 894 l-25 -15 25 7 c28 7 35 12 29 18 -2 2 -15 -2 -29 -10z"/>
</g>
</svg>
