<?xml version="1.0" standalone="no"?>
<!DOCTYPE svg PUBLIC "-//W3C//DTD SVG 20010904//EN"
 "http://www.w3.org/TR/2001/REC-SVG-20010904/DTD/svg10.dtd">
<svg version="1.0" xmlns="http://www.w3.org/2000/svg"
 width="1024.000000pt" height="1024.000000pt" viewBox="0 0 1024.000000 1024.000000"
 preserveAspectRatio="xMidYMid meet">
<metadata>
Created by potrace 1.10, written by Peter Selinger 2001-2011
</metadata>
<g transform="translate(0.000000,1024.000000) scale(0.100000,-0.100000)"
fill="#000000" stroke="none">
<path d="M5068 8889 c-20 -11 -42 -80 -63 -199 -8 -47 -22 -233 -30 -415 -43
-946 -55 -1141 -70 -1185 -19 -56 -156 -248 -311 -438 -133 -163 -309 -348
-833 -874 l-366 -368 -13 -61 c-17 -74 -10 -103 33 -146 52 -52 83 -47 160 30
147 145 1372 1448 1417 1507 27 36 53 65 56 65 4 0 316 -250 692 -557 596
-484 694 -567 753 -641 82 -101 123 -127 201 -127 64 0 80 15 91 85 14 86 -42
183 -132 230 -64 33 -846 696 -1083 918 -114 107 -263 212 -378 267 -61 29
-73 38 -69 55 59 251 67 335 67 737 0 246 5 362 25 584 14 152 25 297 25 322
0 69 -20 120 -68 173 -44 49 -69 59 -104 38z"/>
<path d="M5135 4493 c-30 -8 -44 -22 -69 -72 -52 -102 -55 -146 -37 -511 10
-213 14 -493 12 -891 l-1 -176 -58 -36 c-69 -42 -181 -143 -235 -212 -21 -27
-61 -74 -87 -105 -26 -30 -146 -170 -266 -310 -120 -140 -228 -266 -240 -280
-12 -14 -120 -140 -240 -280 -120 -140 -220 -257 -224 -260 -3 -3 -29 -33 -57
-67 -60 -73 -71 -108 -49 -152 19 -36 44 -51 86 -51 26 0 51 20 157 123 120
116 253 269 657 756 268 325 402 461 610 622 l88 69 42 -33 c22 -18 111 -88
196 -154 135 -106 212 -180 600 -579 281 -289 473 -495 522 -560 87 -116 109
-134 156 -134 57 0 98 26 116 73 21 56 21 62 -13 134 -26 54 -67 99 -323 350
-261 257 -587 583 -628 628 -72 80 -347 338 -393 368 -51 34 -151 84 -201 101
-17 6 -18 14 -13 84 19 235 29 672 20 882 -6 144 -6 263 1 330 12 136 12 178
-4 225 -12 35 -84 127 -99 124 -3 -1 -15 -4 -26 -6z"/>
<path d="M8801 3784 c-1 -6 4 -26 10 -45 6 -19 13 -40 15 -48 3 -8 7 -12 9 -9
3 2 -4 29 -14 59 -11 30 -20 49 -20 43z"/>
</g>
</svg>
