<?xml version="1.0" standalone="no"?>
<!DOCTYPE svg PUBLIC "-//W3C//DTD SVG 20010904//EN"
 "http://www.w3.org/TR/2001/REC-SVG-20010904/DTD/svg10.dtd">
<svg version="1.0" xmlns="http://www.w3.org/2000/svg"
 width="1024.000000pt" height="1024.000000pt" viewBox="0 0 1024.000000 1024.000000"
 preserveAspectRatio="xMidYMid meet">
<metadata>
Created by potrace 1.10, written by Peter Selinger 2001-2011
</metadata>
<g transform="translate(0.000000,1024.000000) scale(0.100000,-0.100000)"
fill="#000000" stroke="none">
<path d="M4272 7762 c-9 -6 56 -73 215 -223 239 -225 267 -259 602 -721 75
-104 109 -128 178 -128 88 0 143 55 169 169 35 148 9 236 -108 352 -155 155
-646 437 -932 535 -73 25 -103 29 -124 16z"/>
<path d="M5597 5058 c-35 -51 -259 -385 -498 -743 -441 -661 -519 -765 -584
-781 -16 -4 -90 -1 -165 6 -198 20 -177 25 -209 -50 -23 -55 -26 -71 -19 -105
29 -129 251 -477 370 -579 50 -43 85 -52 131 -33 49 21 75 61 157 247 40 91
139 302 220 470 265 547 447 969 642 1487 40 108 47 136 38 153 -6 11 -12 20
-15 20 -2 0 -32 -42 -68 -92z"/>
</g>
</svg>
