<?xml version="1.0" standalone="no"?>
<!DOCTYPE svg PUBLIC "-//W3C//DTD SVG 20010904//EN"
 "http://www.w3.org/TR/2001/REC-SVG-20010904/DTD/svg10.dtd">
<svg version="1.0" xmlns="http://www.w3.org/2000/svg"
 width="1024.000000pt" height="1024.000000pt" viewBox="0 0 1024.000000 1024.000000"
 preserveAspectRatio="xMidYMid meet">
<metadata>
Created by potrace 1.10, written by Peter Selinger 2001-2011
</metadata>
<g transform="translate(0.000000,1024.000000) scale(0.100000,-0.100000)"
fill="#000000" stroke="none">
<path d="M6474 9720 c-40 -16 -37 -30 19 -83 185 -178 48 -312 -703 -686 -669
-333 -1462 -643 -2245 -876 -215 -64 -245 -77 -245 -105 0 -50 17 -48 607 60
537 99 567 106 812 181 139 44 257 79 261 79 14 0 181 -122 238 -174 100 -92
194 -250 235 -395 20 -72 21 -102 25 -562 l3 -487 -48 -6 c-26 -3 -462 -43
-968 -87 l-920 -82 -314 27 c-295 26 -314 26 -332 10 -27 -25 -35 -80 -16
-119 26 -54 98 -103 275 -185 297 -138 442 -190 536 -190 25 0 415 56 867 125
452 69 824 124 826 121 6 -6 -127 -287 -220 -466 -306 -589 -627 -1083 -1192
-1835 -439 -586 -885 -1112 -1339 -1583 l-109 -113 29 -30 c15 -16 34 -27 42
-24 29 11 547 358 643 431 372 282 793 673 1234 1149 445 480 643 718 974
1175 l32 45 -4 -1365 c-4 -1357 -7 -1472 -43 -1895 -52 -619 -62 -852 -40
-993 30 -193 103 -350 214 -453 158 -148 333 -103 412 107 58 156 54 -28 57
2567 2 1307 6 2377 9 2377 14 0 273 -253 388 -378 168 -184 237 -269 369 -450
121 -167 209 -257 289 -298 70 -35 165 -32 226 8 155 103 130 451 -51 695
-138 186 -490 406 -997 624 l-225 96 -3 352 c-1 202 2 351 7 351 42 0 1290
165 1371 181 236 47 284 92 200 182 -58 64 -118 91 -287 132 l-152 36 -566
-76 c-312 -42 -568 -75 -569 -73 -1 1 5 251 15 553 12 384 23 584 35 662 19
131 15 152 -47 208 -51 46 -134 87 -244 120 -110 33 -365 128 -365 135 0 3
271 95 603 205 331 109 663 222 737 251 149 57 219 79 392 123 187 47 263 102
244 176 -21 83 -269 263 -587 425 -189 97 -321 130 -395 100z"/>
</g>
</svg>
