<?xml version="1.0" standalone="no"?>
<!DOCTYPE svg PUBLIC "-//W3C//DTD SVG 20010904//EN"
 "http://www.w3.org/TR/2001/REC-SVG-20010904/DTD/svg10.dtd">
<svg version="1.0" xmlns="http://www.w3.org/2000/svg"
 width="1024.000000pt" height="1024.000000pt" viewBox="0 0 1024.000000 1024.000000"
 preserveAspectRatio="xMidYMid meet">
<metadata>
Created by potrace 1.10, written by Peter Selinger 2001-2011
</metadata>
<g transform="translate(0.000000,1024.000000) scale(0.100000,-0.100000)"
fill="#000000" stroke="none">
<path d="M849 9289 c-50 -50 -62 -132 -29 -202 14 -29 179 -207 515 -555 272
-282 495 -514 495 -516 0 -3 -80 33 -177 80 -212 102 -258 121 -453 179 -297
88 -659 155 -849 157 l-105 1 -38 -44 c-51 -59 -52 -99 -2 -144 20 -19 59 -40
92 -50 70 -20 122 -46 122 -60 1 -27 47 -56 170 -105 83 -33 228 -106 375
-189 l240 -134 250 -226 c320 -289 451 -420 555 -555 83 -109 126 -146 167
-146 18 0 24 -10 38 -57 9 -32 21 -74 27 -94 10 -34 8 -40 -43 -112 l-53 -76
-18 30 c-24 39 -94 71 -137 63 -34 -7 -77 -51 -87 -89 -11 -43 0 -69 39 -94
34 -23 36 -26 21 -42 -15 -17 -17 -16 -34 1 -11 11 -37 28 -60 40 -37 19 -43
19 -75 6 -20 -9 -43 -28 -52 -44 -12 -21 -29 -32 -63 -41 -30 -8 -59 -25 -81
-47 -18 -19 -39 -34 -46 -34 -6 0 -31 -18 -54 -40 -41 -38 -41 -40 -36 -92 3
-29 8 -63 12 -75 13 -40 -20 -39 -70 2 -39 32 -50 36 -79 31 -104 -20 -144
-137 -71 -206 19 -18 25 -33 25 -68 0 -38 5 -49 36 -78 19 -19 45 -34 56 -34
11 0 38 -16 59 -35 38 -34 40 -35 69 -20 28 14 33 14 79 -9 72 -37 94 -69 88
-131 -2 -27 -10 -65 -18 -82 -10 -26 -11 -40 -2 -63 8 -21 8 -41 2 -66 -13
-45 -4 -87 28 -124 31 -38 75 -40 141 -6 59 30 94 68 116 126 10 25 40 68 67
97 62 66 65 100 14 153 -23 24 -36 48 -41 78 -6 41 -6 42 21 42 38 0 82 34
117 91 24 40 35 49 58 49 26 0 71 27 97 60 7 8 29 44 49 80 20 36 48 75 64 87
38 31 56 102 36 141 -15 29 -53 52 -85 52 -9 0 -32 16 -51 35 -40 41 -33 56
37 76 25 7 61 26 79 41 l33 29 29 -58 c16 -32 39 -89 52 -128 46 -142 111
-297 183 -443 l75 -149 -101 -185 c-56 -102 -119 -204 -139 -227 -22 -24 -38
-51 -38 -65 0 -19 -80 -210 -93 -222 -1 -1 -36 4 -77 12 l-75 14 -70 -47
c-211 -144 -494 -409 -632 -593 -157 -210 -803 -1419 -984 -1841 -99 -233
-192 -514 -193 -583 -1 -52 2 -61 25 -78 36 -27 103 -17 138 22 122 131 190
232 577 864 442 721 581 938 675 1056 94 117 248 290 260 290 5 0 27 -11 47
-25 44 -30 66 -31 114 -7 l36 19 5 -36 c3 -25 -2 -43 -14 -60 -25 -31 -34 -84
-19 -111 16 -30 74 -53 114 -45 17 4 43 18 58 32 l26 25 41 -32 40 -33 -60
-28 c-51 -24 -64 -27 -82 -17 -31 16 -78 11 -102 -12 -27 -25 -34 -25 -68 3
-27 22 -28 23 -13 52 40 77 28 145 -37 200 -22 19 -44 35 -48 35 -5 0 -29 -12
-54 -27 -54 -33 -85 -89 -85 -153 0 -39 5 -49 48 -89 l47 -46 -18 -35 c-54
-105 84 -208 182 -136 28 21 36 22 61 13 22 -8 41 -8 73 0 23 7 61 9 84 6 27
-3 52 0 71 10 29 14 30 14 35 -9 7 -41 -17 -50 -77 -30 -56 19 -87 16 -119
-12 -9 -8 -17 -20 -17 -26 -1 -31 -17 -38 -48 -22 -17 9 -42 16 -54 16 -29 0
-98 -68 -98 -96 0 -31 -91 -26 -150 8 -51 29 -64 27 -120 -21 -34 -29 -35 -32
-35 -100 0 -83 18 -115 83 -146 23 -11 41 -22 42 -25 0 -3 -13 -10 -28 -16
-37 -14 -92 -98 -92 -139 0 -38 27 -75 76 -106 33 -20 69 -22 134 -7 6 2 20
-18 31 -45 l19 -47 -24 0 c-17 0 -43 -21 -91 -74 -66 -74 -66 -75 -60 -119 5
-34 16 -54 43 -80 48 -45 76 -53 109 -32 21 14 27 15 34 4 14 -23 11 -28 -30
-39 -69 -18 -108 -99 -77 -158 17 -33 74 -82 96 -82 42 0 138 120 126 157 -4
14 3 24 30 38 51 27 94 83 94 120 0 32 -32 71 -78 95 -28 14 -73 1 -111 -33
-17 -14 -14 -9 8 17 55 65 61 106 23 149 -15 17 -15 19 2 29 10 6 36 11 58 12
21 1 51 11 66 23 35 26 74 83 67 100 -3 7 -7 19 -10 26 -4 8 12 21 40 35 25
12 48 22 50 22 3 0 5 -21 5 -46 0 -36 7 -53 31 -84 43 -53 77 -66 134 -50 77
22 109 76 81 141 -5 12 1 20 23 29 25 10 32 20 40 61 6 28 11 56 11 63 0 17
31 26 90 26 40 0 48 4 67 33 37 54 47 93 33 128 -14 34 -59 71 -111 93 -31 13
-38 12 -71 -4 l-37 -18 -25 27 c-29 31 -26 40 40 114 50 56 61 94 40 135 -13
25 -28 39 -84 78 -2 1 18 48 43 105 30 69 60 118 86 145 52 53 55 91 11 137
-30 31 -31 34 -20 70 10 33 9 41 -8 63 -10 14 -37 36 -59 48 -22 11 -43 26
-47 31 -13 17 -9 132 8 290 16 140 16 154 0 207 -9 31 -28 71 -43 88 l-26 31
32 107 c23 75 43 119 67 149 19 23 34 53 34 67 0 13 4 27 9 31 5 3 19 30 31
61 17 47 113 181 130 183 7 1 85 -173 103 -229 8 -25 115 -205 239 -401 333
-529 486 -855 693 -1477 l77 -234 -31 -176 c-17 -98 -31 -188 -31 -201 0 -13
10 -41 22 -62 l21 -38 -61 -974 c-40 -630 -58 -985 -53 -1004 21 -72 59 -103
129 -103 74 0 64 -74 136 965 66 945 82 1131 96 1140 17 10 22 -39 31 -290 12
-351 120 -1505 145 -1558 18 -37 73 -81 116 -92 37 -9 74 26 87 82 10 41 1
157 -60 793 -76 798 -83 926 -49 972 11 15 20 34 20 43 0 8 -24 57 -53 108
-126 219 -237 424 -237 437 0 8 -9 30 -20 48 -11 18 -20 42 -20 55 0 12 -9 36
-20 52 -11 17 -20 47 -20 70 0 28 -38 134 -130 358 -71 175 -130 324 -130 331
0 8 -20 58 -44 112 -23 55 -46 113 -50 129 -4 17 -141 261 -303 544 -179 312
-305 542 -319 583 -31 92 -50 127 -91 170 -25 25 -33 40 -27 51 5 8 53 61 106
118 96 102 97 103 117 85 12 -11 21 -27 21 -37 0 -11 38 -98 84 -194 47 -96
92 -199 100 -228 8 -28 161 -347 339 -707 438 -884 533 -1103 718 -1650 79
-232 98 -278 126 -306 21 -21 29 -36 22 -40 -16 -10 -5 -85 18 -131 25 -48 97
-94 158 -100 l45 -6 0 -47 c0 -26 -5 -140 -11 -254 l-11 -206 28 -48 c16 -26
27 -57 26 -68 -3 -20 17 -42 64 -70 16 -9 16 -14 5 -42 -8 -19 -21 -32 -32
-32 -9 0 -27 -13 -38 -28 -16 -23 -26 -83 -57 -357 l-37 -330 -33 -50 c-42
-65 -54 -96 -54 -149 0 -65 59 -126 121 -126 52 0 159 168 194 305 8 33 24
152 36 265 20 203 21 206 66 307 25 57 50 103 55 103 12 0 2 -183 -18 -338 -8
-62 -29 -166 -46 -230 -42 -159 -46 -219 -17 -256 12 -16 38 -35 57 -43 32
-13 37 -13 61 5 37 27 105 162 136 267 16 55 28 125 30 180 3 50 10 189 16
310 13 251 9 283 -47 345 l-35 39 27 52 c25 49 204 293 210 286 2 -1 -2 -32
-8 -67 -7 -42 -12 -248 -13 -580 -1 -434 -4 -529 -18 -605 -23 -123 -22 -160
4 -186 19 -19 29 -21 77 -16 78 8 99 31 112 126 27 191 42 438 49 781 5 248
11 384 19 403 38 90 -9 213 -99 259 l-27 14 149 151 149 152 -5 -62 c-13 -163
-14 -312 -5 -535 11 -264 1 -582 -25 -818 -27 -247 -57 -426 -76 -458 -25 -41
-24 -82 4 -136 30 -60 62 -78 115 -62 33 10 46 22 75 71 35 59 36 64 66 318
55 466 73 774 70 1268 -1 362 -7 406 -66 474 -24 29 -32 45 -26 56 8 14 315
246 320 241 1 -1 -13 -386 -32 -856 l-34 -855 -43 -262 c-49 -303 -49 -304 27
-345 28 -15 55 -28 62 -28 13 0 27 46 38 125 10 73 52 200 93 280 34 67 36 77
43 210 4 77 8 156 8 177 1 33 5 38 44 57 73 35 113 77 299 310 130 161 237
281 372 417 218 218 429 398 457 391 13 -4 52 31 145 130 82 86 191 187 306
280 98 79 177 147 174 151 -5 10 637 426 663 430 28 4 69 -22 83 -53 9 -21 6
-31 -27 -74 -48 -66 -98 -106 -216 -174 -145 -84 -493 -354 -554 -431 -27 -34
-67 -78 -89 -96 -21 -19 -142 -158 -270 -309 -127 -152 -280 -329 -339 -396
-116 -129 -251 -301 -337 -430 -66 -99 -176 -245 -293 -390 -162 -200 -278
-400 -373 -639 -49 -124 -87 -170 -139 -164 -19 2 -35 3 -35 2 0 -1 22 -21 49
-43 73 -61 82 -56 205 108 144 191 166 238 132 287 -14 19 -7 29 121 165 74
79 168 183 208 231 104 123 243 336 315 480 33 67 82 150 107 183 86 110 245
286 338 370 121 112 456 378 525 417 30 18 188 151 350 297 233 209 338 311
497 487 221 243 275 289 475 401 144 81 218 145 218 189 0 34 -33 71 -88 98
-31 16 -35 15 -115 -13 -196 -69 -463 -184 -659 -282 -213 -107 -555 -313
-731 -440 -45 -33 -69 -45 -72 -37 -2 7 -59 294 -126 637 l-122 623 44 39 c66
59 255 200 332 248 238 148 663 316 1063 421 150 40 429 100 463 100 46 0 120
138 106 200 -5 23 -19 33 -73 58 -167 74 -323 106 -532 106 l-155 1 -280 -102
c-289 -105 -496 -193 -860 -364 l-210 -99 -18 21 c-9 12 -47 78 -84 148 -36
69 -80 151 -98 182 l-32 55 189 200 c207 218 259 285 298 386 l26 67 605 477
c332 262 619 491 637 508 49 45 66 82 54 115 -6 14 -10 41 -10 59 2 42 -37 83
-104 112 -59 25 -96 25 -383 -9 -165 -19 -209 -28 -330 -68 -240 -79 -524
-236 -763 -422 -125 -97 -340 -308 -443 -433 -46 -56 -116 -136 -155 -178 -39
-41 -79 -90 -90 -107 -10 -18 -22 -33 -26 -33 -4 0 -30 16 -57 35 -100 72
-260 125 -377 125 -35 0 -66 5 -69 10 -4 6 9 30 28 53 18 23 174 246 345 494
236 344 342 489 441 604 104 119 134 161 145 200 9 28 27 64 41 80 52 62 27
118 -67 148 -88 29 -270 -64 -374 -190 -36 -44 -684 -611 -691 -605 -7 6 48
180 61 194 8 10 18 31 22 47 11 48 173 377 198 405 13 14 31 55 41 95 10 39
29 89 42 113 39 69 73 169 73 215 0 24 -9 60 -19 80 -15 30 -17 45 -10 70 8
28 6 35 -15 53 -13 12 -56 29 -95 39 l-71 17 -37 -28 c-66 -50 -177 -170 -240
-258 -138 -194 -264 -516 -308 -786 -9 -58 -20 -118 -23 -133 -6 -22 -35 66
-132 395 -140 474 -169 546 -259 637 -135 138 -348 185 -571 126 -234 -63
-342 -126 -596 -345 -107 -94 -199 -170 -204 -170 -4 0 -30 9 -56 20 l-47 21
-52 -27 -52 -26 -41 26 c-23 14 -45 26 -49 26 -4 0 -24 -12 -46 -27 -24 -17
-54 -28 -79 -29 -31 -2 -49 -10 -77 -38 -20 -20 -41 -36 -47 -36 -6 0 -20 -14
-33 -30 -21 -29 -25 -30 -71 -24 -43 6 -51 4 -74 -19 l-26 -26 -23 42 c-13 23
-36 63 -50 88 -61 108 -176 177 -308 186 l-79 6 -93 -71 c-51 -39 -101 -80
-112 -92 -10 -11 -49 -79 -85 -150 l-65 -129 -88 94 c-177 190 -583 564 -887
816 -307 255 -614 459 -940 624 -159 80 -196 89 -231 54z m856 -712 c234 -175
489 -393 692 -591 107 -103 452 -490 461 -516 2 -5 -25 -51 -59 -102 l-63 -93
-32 70 c-27 59 -87 134 -370 461 -323 372 -355 405 -681 713 -189 178 -343
325 -343 327 0 8 276 -180 395 -269z m5233 -213 c12 -8 32 -34 43 -56 28 -56
22 -125 -18 -209 -17 -35 -106 -244 -198 -464 -167 -399 -228 -533 -268 -587
-26 -35 -80 -40 -97 -9 -18 34 -12 175 10 233 11 28 22 79 26 112 4 34 15 77
25 96 38 69 82 218 115 390 19 96 43 191 54 210 10 19 32 63 50 97 23 48 41
69 74 88 23 14 52 25 64 25 14 0 27 11 38 33 32 62 44 68 82 41z m-1186 -143
l74 -80 77 -228 c92 -275 170 -546 227 -788 33 -142 42 -206 46 -305 6 -139
23 -202 60 -227 13 -8 24 -20 24 -25 0 -6 -113 -267 -251 -581 -138 -314 -251
-580 -253 -591 -1 -12 -9 -34 -18 -51 -38 -72 -31 -125 23 -181 l31 -32 -238
-516 c-131 -284 -240 -513 -244 -509 -4 4 -42 199 -84 433 -75 419 -78 431
-204 870 -107 369 -139 468 -190 577 -33 73 -74 152 -90 176 -71 102 -188 177
-311 198 l-62 11 41 75 c41 75 49 110 29 130 -7 7 1 21 25 45 47 47 55 81 27
119 -21 28 -21 29 -2 29 23 0 105 78 113 107 9 34 -13 65 -64 90 -46 23 -98
77 -98 101 0 7 14 12 30 12 37 0 114 72 122 112 7 36 -14 80 -46 101 l-27 18
21 29 c32 45 36 87 11 120 -25 34 -26 40 -7 40 7 0 30 18 50 40 61 67 42 123
-51 152 -34 10 -44 19 -50 43 -11 43 -11 41 27 67 34 23 36 23 53 6 38 -39 63
-25 196 110 69 70 161 151 204 180 188 129 400 197 624 201 l81 1 74 -79z
m-4387 -255 c464 -161 788 -382 1067 -726 42 -52 97 -108 122 -125 25 -16 44
-36 41 -42 -2 -7 -41 -65 -86 -129 l-82 -116 -76 75 c-42 41 -81 76 -87 78 -6
2 -76 85 -155 184 -147 184 -228 264 -476 472 -148 124 -307 247 -443 343
-135 94 -134 94 -70 71 30 -10 141 -49 245 -85z m2174 -155 l51 -89 -35 -39
c-28 -30 -35 -46 -35 -78 0 -22 4 -46 9 -54 6 -9 -6 -27 -40 -60 -42 -40 -49
-53 -49 -85 0 -30 7 -45 34 -72 29 -29 38 -33 67 -27 61 11 119 74 119 127 0
23 4 27 23 24 18 -2 27 -18 50 -82 15 -43 26 -81 23 -83 -2 -2 -26 5 -55 16
-53 22 -101 20 -122 -5 -6 -7 -19 -34 -29 -61 -11 -30 -25 -49 -36 -52 -11 -1
-27 -10 -37 -19 -9 -8 -18 -13 -20 -11 -1 2 -20 40 -42 84 -28 58 -62 103
-119 163 -44 45 -85 81 -92 78 -7 -3 -18 9 -25 26 -12 29 -9 38 50 157 35 69
82 149 105 178 41 51 42 52 97 53 l57 0 51 -89z m707 -12 c21 -23 22 -22 -68
-85 -34 -24 -38 -25 -65 -11 -15 8 -42 13 -58 11 -27 -4 -26 -3 10 14 22 11
47 27 55 37 20 24 71 55 91 55 9 0 24 -9 35 -21z m-253 -134 c-10 -13 -22 -25
-27 -25 -5 0 1 11 14 25 30 32 36 32 13 0z m417 -120 c14 -17 7 -19 -18 -6
-28 15 -77 -13 -103 -58 -12 -23 -29 -41 -36 -41 -8 0 -27 -7 -43 -15 -25 -13
-33 -13 -70 0 -55 19 -104 19 -120 0 -11 -13 -15 -13 -21 -3 -14 22 -9 52 12
77 17 21 23 23 45 12 21 -9 50 -8 138 5 61 9 122 23 136 30 33 18 65 17 80 -1z
m2369 -782 c-215 -323 -398 -602 -406 -621 -8 -19 -12 -45 -9 -58 3 -12 2 -26
-4 -29 -5 -3 -42 -53 -82 -110 -39 -58 -73 -103 -74 -102 -8 7 231 568 292
687 118 231 324 521 465 658 52 50 194 162 206 162 2 0 -173 -264 -388 -587z
m2510 553 c-2 -2 -94 -71 -204 -153 -629 -471 -1093 -902 -1340 -1246 l-63
-88 -106 156 -106 157 92 106 c219 251 607 619 795 754 229 164 482 265 758
302 100 14 182 19 174 12z m-6196 -20 l48 -12 70 -145 c78 -162 71 -135 143
-584 l53 -330 -46 -48 c-58 -61 -79 -73 -96 -55 -23 24 -97 203 -97 233 1 37
-20 70 -56 89 -27 14 -28 19 -56 203 -37 251 -55 312 -112 373 l-45 49 62 108
c55 96 79 134 83 133 0 -1 23 -7 49 -14z m1276 -21 c57 -49 53 -91 -13 -130
-69 -40 -99 -31 -112 33 -10 47 3 81 39 102 41 26 49 25 86 -5z m-559 -159
c15 -53 27 -96 25 -96 -1 0 -16 7 -33 16 -36 17 -86 22 -119 11 -20 -7 -21 -6
-13 29 5 20 23 50 41 68 17 17 39 41 47 54 8 12 17 21 19 18 3 -2 17 -47 33
-100z m320 -48 c0 -5 -8 -8 -17 -8 -9 0 -25 -7 -35 -17 -23 -20 -25 -17 -34
34 l-6 41 45 -21 c26 -12 46 -25 47 -29z m55 13 c-3 -6 -14 -11 -23 -11 -13 0
-13 2 4 14 21 15 30 14 19 -3z m-565 -110 c0 -18 -31 -41 -55 -41 -12 0 -26
-8 -30 -17 -7 -16 -9 -15 -15 7 -14 45 -12 49 38 53 26 2 50 4 55 5 4 1 7 -2
7 -7z m246 -109 c-2 -2 -16 4 -30 13 l-26 17 22 31 23 31 7 -44 c4 -24 6 -46
4 -48z m414 52 c0 -26 56 -74 86 -74 15 0 33 -8 40 -17 15 -20 18 -37 5 -29
-4 3 -28 -2 -51 -11 l-43 -17 -44 49 c-47 54 -51 69 -26 97 20 22 33 23 33 2z
m-1510 -60 c0 -8 -4 -12 -10 -9 -5 3 -10 10 -10 16 0 5 5 9 10 9 6 0 10 -7 10
-16z m1135 -180 c8 -43 15 -99 15 -124 l0 -46 -36 4 c-26 3 -41 -1 -57 -16
-12 -11 -42 -24 -67 -29 -38 -7 -48 -14 -65 -46 -14 -25 -27 -37 -42 -37 -27
0 -29 4 -38 62 l-7 47 39 -15 c72 -29 160 17 179 93 9 34 -4 54 -52 78 -78 39
-150 19 -178 -50 l-13 -30 -7 55 c-4 30 -9 70 -13 89 -5 31 -4 34 15 29 12 -4
38 -2 59 2 31 7 39 6 50 -10 18 -25 77 -43 118 -36 22 4 42 18 56 37 12 17 23
28 25 26 2 -2 10 -39 19 -83z m-943 -457 c21 -27 38 -54 38 -60 0 -7 23 -61
52 -120 l52 -108 -89 -89 c-49 -50 -92 -90 -95 -90 -14 0 -152 350 -190 480
-23 80 -51 162 -61 182 -25 50 -72 102 -115 128 l-34 22 46 59 45 59 157 -208
c86 -114 173 -229 194 -255z m1248 406 c22 3 40 1 40 -4 0 -19 -39 -84 -63
-107 l-25 -24 -12 59 c-6 32 -14 69 -17 83 -6 25 -6 25 15 6 16 -14 31 -17 62
-13z m-240 -316 c0 -7 -15 -21 -32 -31 l-33 -19 29 32 c33 35 36 36 36 18z
m3160 -183 c63 -53 130 -110 148 -128 47 -44 253 -334 268 -376 6 -19 32 -59
57 -90 25 -31 55 -76 67 -100 12 -24 38 -67 57 -96 28 -43 33 -58 28 -86 -12
-65 46 -397 114 -649 21 -79 42 -157 45 -174 l6 -30 -15 25 c-8 14 -24 54 -35
89 -11 35 -36 89 -55 121 -19 31 -64 133 -100 225 -76 198 -123 282 -212 376
-74 78 -188 159 -225 159 -14 0 -38 -10 -53 -22 -27 -21 -29 -21 -108 -6 -115
22 -130 15 -213 -97 -165 -221 -321 -478 -453 -742 -99 -198 -111 -228 -111
-267 0 -30 -21 -48 -356 -310 -195 -153 -390 -303 -432 -333 -102 -73 -117
-88 -141 -139 -30 -64 -27 -102 11 -141 27 -28 39 -33 77 -33 77 0 120 31 269
187 117 124 175 173 402 347 259 198 276 210 740 481 261 152 489 286 507 297
l32 19 71 -106 c39 -58 68 -110 65 -115 -3 -5 -141 -102 -308 -216 -422 -290
-402 -274 -422 -333 -28 -86 -75 -127 -255 -221 -149 -78 -176 -96 -316 -218
-259 -223 -546 -507 -809 -797 -153 -170 -175 -200 -175 -242 0 -68 41 -128
91 -135 27 -3 26 -4 -45 -105 -55 -79 -72 -97 -74 -80 -1 12 -8 119 -16 238
-12 180 -17 224 -36 267 -24 56 -103 137 -143 147 l-25 7 15 56 c8 31 19 74
24 95 7 25 18 41 33 47 14 5 34 29 47 57 20 40 24 64 25 143 1 91 4 103 68
285 90 254 115 313 391 935 253 572 321 713 465 965 98 171 360 572 413 633
18 20 50 61 71 89 89 125 210 189 361 192 50 1 52 -1 165 -95z m-3464 -10 c-3
-9 -6 -39 -6 -68 0 -52 0 -53 -30 -53 -17 0 -43 -9 -58 -20 l-27 -20 -19 25
-19 25 44 36 c24 20 57 48 74 63 34 31 50 36 41 12z m817 -43 c82 -89 122
-163 193 -358 178 -486 270 -845 365 -1423 33 -201 65 -378 72 -395 6 -16 26
-46 43 -65 l32 -35 -61 -152 c-34 -83 -65 -146 -68 -140 -9 16 -354 1075 -563
1728 -147 457 -262 865 -249 879 4 5 89 15 154 18 21 2 39 -12 82 -57z m-2572
28 c59 -42 61 -84 5 -119 -47 -29 -90 -27 -104 5 -24 53 -12 99 33 123 28 16
33 15 66 -9z m294 -49 c24 -17 47 -35 50 -40 3 -5 -4 -27 -15 -50 -20 -39 -22
-40 -69 -40 -41 0 -53 4 -70 26 -12 16 -25 23 -32 18 -7 -4 -5 3 4 17 9 13 17
31 17 40 0 13 46 52 68 58 2 1 23 -13 47 -29z m1618 -125 c-3 -19 0 -48 7 -64
17 -41 5 -74 -23 -65 -12 3 -26 7 -32 8 -17 2 -25 20 -25 56 0 59 10 79 44 89
17 5 32 10 33 10 1 1 -1 -15 -4 -34z m-1773 -23 c0 -29 -4 -38 -17 -38 -10 -1
-27 -5 -37 -9 -15 -7 -12 2 14 38 18 26 35 47 37 47 2 0 3 -17 3 -38z m-418
-2 c40 -31 53 -72 34 -108 -28 -53 -113 -89 -153 -64 -7 4 -16 27 -22 51 -10
47 -12 44 79 120 31 25 32 25 62 1z m2469 -150 c31 -138 36 -185 15 -151 -3 5
-20 6 -38 2 -24 -5 -39 -18 -61 -55 -26 -42 -29 -52 -19 -82 6 -21 7 -34 1
-34 -6 0 -22 -13 -37 -30 -19 -20 -31 -27 -41 -21 -12 8 -12 14 2 44 28 59 22
86 -28 133 -39 35 -43 43 -30 54 12 10 20 7 46 -14 21 -18 42 -26 69 -26 31 0
44 7 74 40 42 47 45 77 12 117 -17 21 -22 36 -19 61 3 19 -1 41 -9 55 -16 24
-6 67 16 67 6 0 27 -72 47 -160z m-2189 -50 c3 -33 1 -39 -12 -34 -30 11 -33
8 -35 -32 0 -23 -9 -53 -18 -68 -15 -22 -25 -26 -62 -26 -35 0 -47 5 -64 26
-12 15 -21 41 -21 60 0 28 7 38 40 60 l40 27 36 -19 36 -19 25 33 c14 17 27
32 28 32 2 0 5 -18 7 -40z m1784 -81 c10 -12 32 -30 47 -39 l28 -18 -27 -21
c-32 -25 -38 -21 -64 47 -21 55 -15 66 16 31z m5769 -125 c-435 -119 -921
-336 -1230 -548 -60 -42 -112 -73 -116 -68 -3 4 -9 26 -13 50 l-6 43 142 68
c79 37 271 131 428 209 370 182 529 236 765 261 124 13 127 11 30 -15z m-5266
-146 c12 -46 101 -301 196 -568 112 -312 226 -656 320 -964 l146 -478 -23 -25
c-42 -45 -24 -129 38 -169 20 -14 30 -15 49 -6 23 11 25 10 25 -17 0 -16 9
-58 20 -93 11 -34 20 -64 20 -64 0 -1 -21 -4 -46 -8 -81 -11 -154 47 -154 123
0 18 -185 446 -461 1068 l-460 1038 31 28 c31 27 31 27 48 8 9 -11 36 -22 60
-26 41 -7 45 -5 82 33 46 49 57 89 36 131 -15 29 -15 30 10 50 15 12 30 21 34
21 4 0 17 -37 29 -82z m3110 -532 c-2 -1 -44 -26 -94 -54 -49 -29 -105 -62
-124 -74 l-35 -22 39 71 c21 40 61 102 88 139 l49 67 40 -62 c23 -34 39 -63
37 -65z m-5198 -358 c-43 -57 -92 -130 -109 -163 -16 -33 -47 -76 -67 -95 -21
-19 -173 -215 -338 -435 -165 -220 -304 -404 -309 -410 -6 -5 3 15 20 45 17
30 83 154 147 275 175 330 285 485 476 670 81 79 242 214 256 215 1 0 -33 -46
-76 -102z m372 -45 c3 -60 8 -119 11 -133 4 -14 2 -31 -3 -39 -7 -11 -14 -10
-39 8 -42 30 -70 26 -107 -14 -45 -47 -51 -83 -26 -140 l20 -45 -30 -15 c-27
-15 -29 -14 -29 4 0 23 -54 71 -80 71 -35 0 -31 19 22 112 35 62 84 128 147
196 52 56 97 102 102 102 4 0 9 -48 12 -107z m4199 35 c-7 -7 -12 -8 -12 -2 0
14 12 26 19 19 2 -3 -1 -11 -7 -17z m1088 -441 c34 -93 64 -175 67 -183 3 -7
-12 2 -33 21 -61 56 -118 78 -215 83 -85 4 -91 3 -275 -58 -104 -35 -196 -65
-204 -68 -47 -16 172 142 358 259 162 102 220 133 229 125 6 -6 39 -87 73
-179z m-5230 79 c0 -19 -9 -24 -30 -19 -16 4 -17 9 -10 24 11 19 40 16 40 -5z
m5410 -719 l67 -336 -355 -282 c-460 -366 -666 -564 -906 -872 l-76 -98 0 48
c0 26 7 284 15 573 8 289 15 570 15 626 l0 100 98 56 c219 126 400 204 652
282 102 31 204 64 228 73 66 23 123 73 152 129 14 28 29 48 33 44 5 -5 39
-159 77 -343z m-1203 26 c-3 -10 -11 -39 -18 -64 -11 -41 -19 -50 -65 -75 -51
-27 -55 -28 -110 -16 l-58 12 -90 -57 c-50 -31 -102 -63 -116 -72 -14 -8 -2 6
25 32 55 52 255 178 355 225 77 36 84 37 77 15z m-4256 -191 c-6 -9 -11 -14
-11 -9 0 4 -15 1 -34 -7 -33 -14 -33 -14 -49 20 -17 34 -17 34 11 40 15 3 36
9 47 13 26 11 51 -30 36 -57z m232 -114 c9 -29 15 -53 14 -54 -1 -2 -20 5 -42
15 -26 11 -48 15 -60 10 -38 -15 -55 -10 -55 15 0 20 6 25 39 31 22 4 45 13
52 21 21 25 35 15 52 -38z m-605 -63 c35 -7 67 -16 70 -20 3 -3 8 -35 10 -70
l4 -64 -31 12 c-27 10 -37 9 -61 -5 -29 -16 -29 -16 -35 12 -7 32 -41 70 -92
101 l-34 21 33 18 c18 10 42 16 53 14 11 -3 49 -11 83 -19z"/>
<path d="M1112 5753 c-29 -6 -73 -72 -74 -112 -1 -40 22 -65 73 -80 34 -10 44
-20 61 -57 22 -52 15 -69 -33 -79 -16 -4 -34 -14 -40 -23 -9 -15 -9 -14 -3 3
27 78 28 94 8 122 -31 41 -87 66 -129 59 -49 -10 -90 -70 -83 -124 4 -28 1
-44 -13 -61 -36 -44 -17 -120 40 -160 41 -29 65 -26 110 14 21 19 43 35 48 35
15 0 71 -63 75 -85 2 -10 18 -29 36 -41 20 -14 28 -24 20 -27 -7 -3 1 -6 18
-6 55 -2 132 -30 153 -58 40 -50 16 -177 -40 -217 -47 -32 -182 -16 -218 28
-38 45 -26 152 22 204 l21 22 -50 52 c-27 29 -50 55 -52 57 -1 3 -25 -3 -52
-13 -27 -10 -55 -14 -62 -10 -7 4 -27 7 -46 6 -26 -2 -48 8 -97 43 -35 25 -70
45 -79 45 -8 0 -31 -14 -50 -30 -41 -36 -59 -112 -32 -138 13 -14 13 -18 -9
-44 -19 -22 -25 -41 -25 -76 1 -44 4 -49 44 -79 48 -36 78 -40 141 -18 22 8
41 15 43 15 1 0 2 -12 2 -26 0 -14 -4 -22 -10 -19 -12 8 -48 -11 -82 -43 -24
-22 -28 -34 -29 -86 0 -43 -3 -55 -9 -40 -11 27 -65 72 -95 80 -35 9 -91 -13
-120 -47 -50 -60 -17 -200 48 -207 35 -4 107 37 140 79 l24 31 11 -30 c6 -17
21 -36 33 -43 20 -10 21 -13 7 -23 -32 -23 -120 -151 -125 -181 -4 -24 1 -39
24 -65 24 -29 28 -41 25 -86 -2 -29 1 -55 7 -58 6 -4 0 -21 -15 -44 -39 -56
-29 -93 48 -199 67 -91 89 -105 132 -85 21 10 86 19 220 31 l69 6 22 65 c18
53 27 66 52 76 16 7 44 29 61 49 58 65 55 117 -8 162 -41 29 -50 43 -26 43 7
0 31 14 52 31 34 27 44 30 81 25 l43 -6 41 63 c23 34 59 80 80 102 72 76 71
113 -5 181 -25 23 -46 49 -46 57 0 15 5 14 39 -4 56 -29 85 -18 121 44 53 92
49 196 -9 251 -24 23 -28 33 -21 47 28 50 -7 102 -76 115 l-33 6 34 45 c19 25
35 50 35 54 0 5 -27 9 -60 9 -57 0 -62 2 -105 43 -54 52 -58 88 -20 155 21 37
22 42 6 42 -10 0 -20 12 -26 33 -8 24 -22 38 -60 57 -44 23 -50 29 -47 54 4
33 -20 63 -65 82 -32 14 -48 15 -91 7z m-156 -685 c72 -50 68 -104 -11 -139
-58 -26 -86 -22 -104 15 -20 43 -5 95 38 123 41 28 38 28 77 1z m103 -322 c34
-18 61 -57 61 -88 -1 -13 -11 -36 -24 -52 -22 -27 -28 -28 -77 -24 -64 6 -89
32 -89 88 0 30 6 44 31 64 35 30 58 32 98 12z m227 -244 c-4 -3 -11 -1 -17 5
-6 6 -19 9 -28 6 -9 -4 -3 8 14 26 l30 33 3 -32 c2 -18 1 -35 -2 -38z m-296
-102 c0 -6 -9 -27 -20 -47 -11 -21 -20 -48 -20 -62 0 -13 -13 -39 -30 -58 -35
-39 -40 -94 -14 -132 15 -21 15 -23 0 -19 -9 1 -25 17 -35 33 l-18 30 61 133
c54 118 76 153 76 122z m206 -53 c34 -30 35 -79 3 -113 -30 -31 -99 -34 -129
-4 -29 29 -28 103 2 124 34 24 92 20 124 -7z m-86 -247 c0 -13 -5 -18 -15 -14
-12 5 -13 10 -4 20 15 19 19 18 19 -6z"/>
<path d="M2792 2882 c-27 -8 -82 -88 -82 -120 0 -13 13 -37 29 -53 53 -53 138
-33 176 41 23 44 19 60 -25 102 -41 38 -54 42 -98 30z"/>
<path d="M2330 2667 c-29 -15 -70 -82 -70 -116 0 -41 39 -108 76 -130 28 -17
34 -26 34 -53 0 -18 8 -46 18 -63 22 -37 18 -80 -6 -69 -25 10 -75 5 -88 -9
-6 -7 -23 -32 -37 -57 -23 -41 -24 -48 -12 -77 16 -38 42 -53 91 -53 30 0 46
8 75 36 21 20 41 34 47 30 5 -3 7 -28 4 -55 -4 -43 0 -55 27 -94 43 -63 80
-87 133 -87 37 0 49 5 75 33 43 45 48 68 21 102 -12 16 -23 44 -24 62 0 19
-10 46 -21 62 -13 16 -21 42 -20 62 1 34 1 35 19 17 26 -26 69 -22 114 11 86
63 112 112 90 166 -8 19 -23 39 -34 46 -20 12 -20 13 5 50 36 55 26 88 -40
132 -45 30 -72 25 -123 -24 -18 -17 -34 -26 -38 -21 -3 6 -16 8 -29 5 -27 -7
-87 -62 -87 -80 0 -16 -10 -16 -30 0 -10 8 -16 28 -16 55 1 39 -4 48 -46 88
-49 46 -67 52 -108 31z m282 -329 c8 -7 18 -28 22 -46 l6 -34 -33 28 c-17 15
-32 31 -31 35 3 25 5 29 12 29 5 0 15 -6 24 -12z"/>
<path d="M2168 2067 c-14 -7 -42 -32 -62 -55 -52 -63 -48 -116 12 -167 22 -19
24 -25 13 -39 -18 -22 -16 -79 5 -115 24 -41 91 -58 136 -35 29 15 34 15 59 0
46 -27 103 -21 144 15 40 35 65 77 65 108 0 25 -44 77 -81 96 -31 17 -50 12
-95 -21 l-31 -23 -21 22 -22 23 21 41 c19 39 19 43 4 73 -9 17 -37 44 -63 61
-52 33 -48 32 -84 16z"/>
</g>
</svg>
