<?xml version="1.0" standalone="no"?>
<!DOCTYPE svg PUBLIC "-//W3C//DTD SVG 20010904//EN"
 "http://www.w3.org/TR/2001/REC-SVG-20010904/DTD/svg10.dtd">
<svg version="1.0" xmlns="http://www.w3.org/2000/svg"
 width="1024.000000pt" height="1024.000000pt" viewBox="0 0 1024.000000 1024.000000"
 preserveAspectRatio="xMidYMid meet">
<metadata>
Created by potrace 1.10, written by Peter Selinger 2001-2011
</metadata>
<g transform="translate(0.000000,1024.000000) scale(0.100000,-0.100000)"
fill="#000000" stroke="none">
<path d="M5205 9263 c-264 -24 -523 -83 -735 -168 -353 -142 -560 -294 -650
-479 -53 -108 -72 -190 -74 -311 -1 -89 2 -105 24 -145 29 -52 84 -92 120 -88
20 2 32 17 60 72 34 67 35 72 35 187 l1 119 42 64 c54 83 158 176 247 223 38
20 103 58 143 85 80 54 129 73 297 118 214 57 347 74 595 74 394 1 538 -35
735 -181 115 -86 233 -222 249 -288 4 -16 27 -61 52 -98 61 -93 86 -188 87
-332 0 -107 -26 -254 -56 -310 -22 -44 -198 -234 -307 -333 -63 -57 -182 -155
-265 -217 -228 -170 -300 -256 -420 -500 -77 -155 -113 -262 -155 -461 -29
-136 -82 -297 -116 -350 -7 -12 -16 -46 -20 -75 -3 -30 -19 -97 -35 -149 -15
-52 -42 -158 -59 -235 -17 -77 -38 -159 -47 -182 l-16 -43 -201 0 c-220 1
-315 13 -414 53 -170 68 -248 142 -399 377 -125 196 -157 262 -208 423 -50
163 -68 274 -63 389 l5 97 -56 11 c-31 7 -85 18 -120 26 -35 8 -66 13 -68 10
-2 -2 5 -91 17 -197 19 -179 25 -208 76 -366 96 -298 282 -630 445 -795 106
-108 181 -142 454 -208 217 -53 238 -56 292 -45 72 15 213 -69 198 -119 -3
-11 -19 -165 -36 -341 -16 -176 -31 -325 -33 -331 -2 -6 -91 -64 -196 -128
-234 -142 -341 -226 -530 -416 -150 -150 -260 -283 -375 -455 -100 -149 -358
-680 -433 -890 -181 -510 -265 -820 -352 -1302 -58 -317 -60 -336 -52 -421 11
-111 29 -142 81 -142 47 0 73 19 106 77 22 39 48 155 145 641 145 720 174 833
301 1158 108 275 291 623 432 818 218 303 450 529 770 750 l97 67 0 -53 c0
-29 -14 -734 -30 -1566 -29 -1479 -30 -1514 -50 -1546 -11 -19 -20 -46 -20
-61 0 -34 33 -81 70 -100 35 -18 109 -19 131 -2 18 14 45 118 59 227 5 41 10
179 10 305 1 441 49 2888 57 2895 4 4 46 18 93 31 74 20 108 24 255 24 240 0
294 -15 522 -147 146 -85 183 -112 251 -181 102 -103 156 -171 232 -288 152
-235 278 -563 344 -900 100 -505 151 -975 146 -1344 -6 -447 -8 -416 18 -452
12 -17 38 -41 57 -53 31 -19 39 -20 71 -10 30 10 41 22 62 69 23 49 27 72 30
190 7 205 -23 632 -69 1011 -70 576 -178 990 -362 1391 -52 114 -307 479 -397
569 -252 251 -569 380 -936 380 -95 0 -121 -4 -202 -31 -51 -17 -96 -29 -99
-26 -5 6 31 479 43 557 3 24 12 39 27 45 18 8 21 17 19 46 l-3 36 83 13 c46 6
164 37 263 67 153 47 205 69 350 146 264 140 419 249 621 433 213 195 475 538
585 766 13 26 33 51 48 58 24 11 23 13 -54 46 -49 21 -93 49 -114 70 -27 30
-35 34 -46 23 -6 -8 -40 -81 -75 -162 -67 -157 -101 -210 -246 -378 -277 -320
-732 -666 -966 -736 -136 -40 -381 -94 -389 -86 -9 10 53 385 75 451 16 49 84
285 192 662 71 249 110 337 189 432 29 35 210 205 401 378 296 266 362 331
433 424 130 168 166 274 166 486 0 108 -5 151 -22 215 -106 389 -398 707 -782
852 -192 72 -444 105 -656 86z"/>
<path d="M6985 6290 c-27 -30 -12 -34 15 -5 13 14 19 25 13 25 -5 0 -18 -9
-28 -20z"/>
<path d="M7641 3210 c0 -8 4 -24 9 -35 5 -13 9 -14 9 -5 0 8 -4 24 -9 35 -5
13 -9 14 -9 5z"/>
</g>
</svg>
