<?xml version="1.0" standalone="no"?>
<!DOCTYPE svg PUBLIC "-//W3C//DTD SVG 20010904//EN"
 "http://www.w3.org/TR/2001/REC-SVG-20010904/DTD/svg10.dtd">
<svg version="1.0" xmlns="http://www.w3.org/2000/svg"
 width="1024.000000pt" height="1024.000000pt" viewBox="0 0 1024.000000 1024.000000"
 preserveAspectRatio="xMidYMid meet">
<metadata>
Created by potrace 1.10, written by Peter Selinger 2001-2011
</metadata>
<g transform="translate(0.000000,1024.000000) scale(0.100000,-0.100000)"
fill="#000000" stroke="none">
<path d="M5543 8962 c-72 -60 -130 -135 -181 -233 -22 -40 -90 -164 -151 -274
-62 -110 -126 -238 -142 -285 -78 -220 -121 -460 -122 -680 -1 -121 2 -144 26
-215 56 -170 219 -354 384 -436 48 -24 90 -45 91 -46 2 -1 -1 -53 -7 -117 -24
-272 33 -749 135 -1120 47 -171 84 -273 157 -440 l61 -139 -124 -118 c-111
-105 -161 -143 -440 -326 l-315 -207 -690 -304 -690 -304 -715 -239 c-596
-200 -748 -247 -914 -284 -201 -45 -236 -58 -256 -96 -13 -24 -4 -78 14 -85 7
-3 314 76 682 175 l669 180 575 224 c316 124 576 224 577 223 1 -1 -23 -80
-53 -174 -39 -121 -102 -278 -213 -525 -151 -337 -173 -380 -531 -1012 -215
-380 -395 -688 -426 -726 -101 -127 -113 -161 -69 -204 42 -43 64 -34 141 57
54 65 151 226 447 743 l378 660 231 540 c126 297 235 557 241 578 10 34 9 44
-10 77 l-21 39 22 7 c11 3 197 94 411 201 l390 196 315 220 c178 124 344 248
381 284 l66 65 178 -334 177 -333 44 -178 c67 -273 78 -511 38 -812 -31 -239
-43 -274 -485 -1423 -232 -603 -437 -1127 -455 -1164 -40 -80 -42 -101 -9
-133 24 -25 50 -31 72 -17 15 10 827 2023 885 2192 103 305 136 484 145 775 7
246 -4 387 -43 583 -36 179 -58 235 -188 457 -322 552 -509 1015 -590 1465
-34 190 -57 478 -51 640 9 219 -2 200 97 184 46 -8 157 -14 248 -14 l165 0
273 76 273 75 327 181 c180 99 363 204 407 234 197 131 495 399 509 457 15 62
-40 106 -95 77 -11 -7 -121 -101 -243 -210 l-222 -198 -337 -186 c-294 -163
-360 -196 -522 -256 l-185 -69 -330 -7 -331 -7 6 29 c38 164 84 291 161 445
29 58 64 119 78 135 13 17 36 55 49 85 14 32 63 101 113 160 49 57 144 170
211 251 208 251 288 333 572 586 157 141 171 157 171 187 0 37 -37 75 -72 75
-38 0 -171 -125 -512 -478 -320 -331 -354 -370 -476 -542 -73 -102 -145 -202
-161 -222 -16 -20 -29 -43 -29 -50 0 -7 -30 -60 -65 -118 -57 -91 -74 -131
-126 -295 -34 -104 -65 -194 -69 -199 -16 -16 -116 50 -196 129 -88 88 -165
206 -191 294 -44 152 28 535 157 832 63 146 325 586 385 649 29 30 56 65 59
76 8 26 -36 84 -64 84 -11 0 -45 -22 -77 -48z"/>
<path d="M6546 4075 c3 -11 8 -32 11 -48 3 -15 10 -30 15 -33 12 -7 3 25 -18
71 -8 17 -12 21 -8 10z"/>
</g>
</svg>
