<?xml version="1.0" standalone="no"?>
<!DOCTYPE svg PUBLIC "-//W3C//DTD SVG 20010904//EN"
 "http://www.w3.org/TR/2001/REC-SVG-20010904/DTD/svg10.dtd">
<svg version="1.0" xmlns="http://www.w3.org/2000/svg"
 width="1024.000000pt" height="1024.000000pt" viewBox="0 0 1024.000000 1024.000000"
 preserveAspectRatio="xMidYMid meet">
<metadata>
Created by potrace 1.10, written by Peter Selinger 2001-2011
</metadata>
<g transform="translate(0.000000,1024.000000) scale(0.100000,-0.100000)"
fill="#000000" stroke="none">
<path d="M4748 7614 c-49 -24 -88 -48 -88 -52 1 -14 35 -48 80 -79 171 -118
230 -293 246 -735 5 -131 4 -188 -4 -188 -5 0 -230 -27 -499 -60 l-488 -61
-335 10 c-184 5 -337 7 -339 5 -9 -9 42 -150 65 -181 41 -54 136 -109 267
-152 122 -41 123 -41 172 -26 35 11 1125 175 1162 175 2 0 3 -245 3 -545 l0
-545 -22 -4 c-45 -10 -2304 -226 -2355 -226 -28 0 -147 11 -263 25 -116 14
-222 25 -235 25 -24 0 -24 2 0 -106 9 -39 339 -271 439 -309 43 -16 59 -15
1367 164 728 100 1333 183 1343 186 17 3 16 1 -5 -19 -69 -66 -745 -639 -866
-734 -658 -518 -1383 -1007 -2079 -1404 -163 -93 -194 -114 -194 -134 0 -37
27 -57 69 -49 117 21 407 140 741 306 182 90 256 137 1121 712 l927 615 430
380 430 379 88 7 c49 3 492 27 984 52 l895 47 311 -17 c357 -20 372 -18 400
50 21 50 8 77 -75 159 -54 55 -88 78 -191 129 l-125 63 -80 -14 c-75 -13
-1897 -184 -1902 -179 -2 1 338 342 754 757 578 577 758 762 765 787 8 28 5
43 -17 87 -34 71 -318 340 -400 381 l-55 26 -50 -32 c-27 -18 -50 -38 -50 -44
0 -7 12 -46 26 -87 16 -48 24 -88 21 -114 -11 -105 -168 -343 -440 -670 -59
-71 -331 -358 -604 -637 -554 -566 -484 -510 -655 -524 l-78 -7 0 552 c0 303
1 551 3 552 1 0 232 11 513 24 564 26 563 25 590 90 8 19 14 41 14 49 0 9 -30
47 -66 85 -63 68 -68 71 -172 105 -59 20 -123 36 -142 36 -19 0 -185 -20 -369
-45 -184 -25 -343 -45 -354 -45 -19 0 -19 6 -12 278 6 241 10 290 31 376 21
87 22 102 10 131 -16 39 -58 80 -107 105 -27 14 -262 95 -454 156 -5 2 -49
-17 -97 -42z"/>
</g>
</svg>
