<?xml version="1.0" standalone="no"?>
<!DOCTYPE svg PUBLIC "-//W3C//DTD SVG 20010904//EN"
 "http://www.w3.org/TR/2001/REC-SVG-20010904/DTD/svg10.dtd">
<svg version="1.0" xmlns="http://www.w3.org/2000/svg"
 width="1024.000000pt" height="1024.000000pt" viewBox="0 0 1024.000000 1024.000000"
 preserveAspectRatio="xMidYMid meet">
<metadata>
Created by potrace 1.10, written by Peter Selinger 2001-2011
</metadata>
<g transform="translate(0.000000,1024.000000) scale(0.100000,-0.100000)"
fill="#000000" stroke="none">
<path d="M4095 9584 c-181 -29 -356 -63 -390 -75 -88 -31 -221 -102 -295 -157
-53 -40 -68 -57 -78 -91 -7 -23 -10 -45 -7 -50 3 -5 -15 -22 -39 -37 -55 -35
-56 -41 -39 -244 8 -103 17 -159 27 -175 26 -40 18 -109 -38 -338 -46 -185
-52 -224 -45 -258 24 -105 81 -157 158 -144 l38 6 -4 -53 c-4 -43 0 -62 21
-100 l25 -47 -21 -53 c-27 -70 -29 -212 -3 -255 17 -29 17 -29 -79 -267 -115
-282 -140 -331 -181 -348 -69 -29 -137 -111 -153 -186 -9 -39 -8 -44 15 -62
31 -25 31 -25 -91 -128 -191 -159 -381 -259 -611 -318 -33 -9 -75 -27 -93 -40
-22 -18 -42 -24 -65 -22 l-32 3 -3 100 c-2 55 2 143 8 195 11 98 45 278 54
287 3 3 34 -15 70 -40 103 -72 175 -84 261 -43 55 26 84 54 138 134 47 69 51
94 34 233 -16 127 -34 172 -109 275 -111 150 -278 221 -495 212 -85 -3 -107
-8 -166 -36 -139 -65 -301 -271 -390 -497 -111 -282 -144 -559 -105 -880 l18
-140 -55 -55 c-34 -35 -55 -64 -55 -78 0 -13 -5 -32 -11 -43 -7 -14 -7 -48 1
-116 11 -89 15 -100 55 -156 24 -33 57 -68 74 -78 26 -16 30 -24 35 -81 4 -35
65 -1019 136 -2188 120 -1953 132 -2134 155 -2233 30 -130 35 -141 77 -156 18
-7 40 -17 48 -22 50 -31 58 -32 105 -13 58 24 120 89 134 142 6 21 29 381 51
798 l39 759 -19 660 c-37 1314 -49 2299 -28 2320 4 4 51 -20 105 -53 115 -71
252 -117 458 -153 104 -19 166 -23 310 -23 199 0 317 17 520 74 109 31 111 31
208 19 l98 -12 19 -37 c30 -60 103 -133 174 -174 36 -21 66 -43 66 -49 0 -5
-29 -43 -65 -84 -36 -41 -65 -81 -65 -89 0 -8 -32 -78 -71 -155 -60 -122 -88
-197 -200 -552 -187 -591 -273 -957 -335 -1436 -29 -227 -89 -631 -104 -711
-18 -95 -23 -275 -12 -412 7 -73 14 -171 17 -218 l5 -85 -30 -17 c-38 -22 -39
-53 -4 -128 46 -100 128 -179 217 -211 l39 -14 -147 -36 -147 -37 -291 39
c-200 28 -301 37 -322 32 -62 -18 -109 -142 -85 -226 24 -87 99 -150 275 -232
113 -53 208 -81 332 -100 116 -18 179 -19 293 -5 361 45 620 165 830 386 114
119 139 190 91 255 l-24 32 264 -9 c145 -5 406 -9 580 -8 l317 1 6 -45 c19
-137 137 -245 321 -292 93 -24 163 -25 276 -5 191 33 383 118 537 237 l62 48
343 -6 342 -7 515 83 515 82 125 55 c69 30 136 62 150 71 18 11 43 15 85 13
72 -3 107 18 135 82 16 36 17 41 2 67 -14 24 -69 49 -417 186 -220 86 -537
213 -705 282 -284 115 -308 127 -342 166 -20 24 -76 71 -125 106 -141 102
-308 239 -446 365 -166 152 -374 378 -397 432 -10 23 -60 103 -111 179 -158
237 -195 346 -186 549 3 75 13 146 25 190 11 39 28 120 38 182 17 110 18 112
46 118 68 15 300 259 425 447 126 190 215 398 264 620 30 135 37 422 15 582
-31 222 -104 453 -197 626 -40 74 -132 217 -498 775 -104 159 -189 291 -187
292 1 1 276 -110 612 -248 657 -271 807 -325 996 -363 166 -33 253 -42 668
-67 391 -24 425 -22 500 27 23 15 53 47 67 71 24 41 24 44 9 69 -31 46 -42 47
-372 35 -464 -17 -498 -16 -654 19 -262 57 -729 216 -1126 383 -109 46 -338
131 -508 188 l-309 104 -58 120 c-32 66 -57 121 -56 122 7 7 659 -174 727
-201 241 -99 437 -136 734 -136 l199 0 251 -129 c226 -116 271 -135 451 -192
223 -71 284 -79 332 -43 34 25 60 96 46 127 -7 16 -69 41 -289 117 -245 85
-290 103 -366 154 -159 104 -302 156 -429 156 -219 0 -730 97 -922 176 -34 13
-231 72 -437 130 -416 117 -517 154 -795 289 -221 106 -406 211 -590 335 -121
81 -372 260 -364 260 44 -2 673 -259 899 -368 421 -203 697 -293 1547 -506
658 -165 660 -165 717 -154 l57 12 117 -61 c120 -63 274 -122 372 -142 30 -6
131 -22 223 -36 154 -22 178 -23 279 -13 l110 12 29 42 c34 50 37 86 9 131
-23 39 -71 51 -142 35 -40 -10 -76 -8 -216 13 -195 29 -296 56 -362 96 -141
87 -376 167 -449 154 -20 -4 -45 -15 -57 -26 -20 -19 -23 -18 -288 46 -302 73
-555 141 -826 221 -284 84 -346 106 -767 265 -308 117 -441 173 -620 262 -125
63 -281 133 -346 157 -64 24 -116 44 -114 46 4 4 524 -72 622 -92 332 -65 745
-193 1150 -357 143 -58 330 -130 415 -160 285 -101 709 -217 797 -217 26 0
111 -19 188 -41 133 -38 158 -41 533 -76 458 -42 444 -44 487 50 30 63 31 78
6 108 l-19 24 -249 1 c-257 0 -342 9 -528 54 -82 20 -229 68 -277 90 -22 10
-36 11 -67 1 -29 -8 -47 -8 -68 0 -15 6 -215 69 -443 140 -228 71 -498 160
-600 198 -394 148 -823 281 -1200 372 -164 39 -286 60 -609 104 -222 30 -406
56 -408 59 -13 12 290 18 437 8 l165 -12 770 -220 770 -220 612 -125 612 -124
568 -26 c312 -15 590 -25 616 -22 58 5 85 28 94 80 5 31 1 40 -26 65 l-32 28
-827 103 -827 103 -618 134 c-618 134 -726 162 -1037 274 -317 114 -745 191
-1045 189 -105 -1 -192 -11 -460 -55z m-260 -566 c99 -21 102 -23 245 -124 80
-56 154 -109 164 -117 19 -14 19 -15 -2 -42 -12 -15 -22 -37 -22 -47 0 -11 32
-53 70 -93 67 -68 110 -143 110 -191 0 -8 -19 -40 -41 -71 -40 -53 -41 -57
-30 -94 6 -21 21 -45 33 -53 12 -9 20 -17 17 -19 -2 -3 -41 -26 -86 -52 -46
-25 -83 -48 -83 -48 0 -1 4 -17 10 -36 8 -28 3 -51 -26 -140 -52 -158 -46
-156 -141 -61 -61 60 -98 88 -154 115 -92 43 -176 65 -249 65 l-56 0 -28 57
c-15 32 -29 72 -31 90 -4 40 -26 77 -60 99 -31 20 -33 63 -6 125 53 121 64
313 24 444 -12 41 -17 84 -15 138 l3 77 127 0 c93 0 154 -6 227 -22z m744
-468 c-16 -11 -29 -4 -29 16 0 12 4 13 21 3 17 -9 19 -13 8 -19z m139 -63 c40
-23 101 -66 134 -96 40 -36 62 -50 67 -43 5 9 46 -9 132 -58 180 -101 359
-189 399 -196 19 -4 43 -11 53 -16 19 -10 80 -89 73 -95 -2 -2 -34 3 -70 12
-37 8 -79 15 -94 15 -15 0 -38 7 -51 17 -19 12 -28 14 -42 5 -16 -11 -147 29
-396 118 -24 9 -44 31 -78 85 -46 74 -46 74 -160 132 -110 56 -115 59 -115 90
0 17 -3 38 -6 47 -7 19 31 37 61 29 11 -3 53 -23 93 -46z m178 -718 c33 -56
47 -130 25 -143 -4 -3 -17 -45 -27 -93 -17 -86 -151 -432 -179 -463 -7 -8 -53
-89 -102 -180 -49 -91 -102 -185 -117 -209 -40 -63 -147 -196 -157 -195 -5 1
-15 2 -22 3 -13 1 -137 211 -157 266 -8 22 -42 52 -126 109 l-115 79 42 43
c23 24 54 48 69 54 25 10 34 7 96 -33 57 -37 80 -46 134 -52 36 -3 75 -13 86
-20 12 -8 63 -17 113 -21 88 -7 91 -6 128 21 21 16 39 29 41 31 9 6 -56 83
-140 162 -52 51 -118 125 -145 164 -55 79 -123 208 -123 233 0 8 15 21 34 29
66 28 126 147 141 278 13 119 11 113 82 159 36 23 78 55 91 71 l25 30 134
-134 c74 -73 150 -158 169 -189z m742 214 c-5 -26 -21 -19 -42 17 l-19 32 32
-17 c20 -10 31 -22 29 -32z m-472 -164 c38 -11 73 -24 77 -28 12 -12 -31 -190
-53 -221 -19 -26 -60 -179 -60 -221 0 -11 -27 -69 -61 -127 -34 -59 -59 -100
-56 -92 3 8 20 50 37 93 63 160 103 315 104 409 1 82 -1 89 -31 132 -29 40
-42 76 -29 76 2 0 35 -9 72 -21z m-1396 -54 c66 -45 190 -160 190 -176 0 -5
-24 4 -52 20 -73 41 -150 61 -230 61 -66 0 -68 1 -74 28 -3 15 -10 43 -15 62
-16 63 -16 63 54 56 51 -6 73 -15 127 -51z m1905 -37 c7 -20 30 -59 52 -85 56
-69 121 -167 488 -738 180 -280 333 -517 340 -525 32 -39 98 -215 156 -420
l64 -225 -1 -190 c0 -157 -4 -208 -22 -292 -67 -307 -199 -562 -419 -808 l-53
-59 0 80 c0 171 -37 458 -84 656 -40 168 -132 453 -167 518 -19 36 -58 85 -97
121 -55 51 -68 60 -91 54 -30 -7 -70 -34 -84 -57 -8 -12 25 -128 125 -449 77
-244 143 -476 152 -529 9 -52 18 -104 21 -115 4 -19 0 -20 -158 -17 -89 1
-301 7 -472 12 -274 8 -322 12 -415 33 -199 47 -350 108 -516 208 -90 54 -116
84 -178 208 -26 51 -27 56 -16 120 36 214 132 477 225 620 13 20 39 64 57 98
18 34 102 183 186 331 120 209 172 290 234 362 76 89 89 112 264 468 l184 375
0 106 c0 58 3 123 6 144 l7 38 99 -3 100 -3 13 -37z m-1913 -319 c53 -20 55
-23 96 -105 23 -46 42 -86 42 -89 0 -6 -212 -106 -216 -102 -1 1 18 29 43 62
81 108 78 98 53 152 -34 75 -36 78 -64 76 -25 -2 -33 7 -19 20 8 9 3 10 65
-14z m-181 -94 l-9 -40 -1 46 c-1 25 2 49 7 53 12 12 13 -16 3 -59z m-1313
-74 c73 -38 121 -89 162 -175 40 -81 40 -83 28 -140 -10 -54 -13 -57 -35 -51
-14 3 -47 24 -74 45 -54 42 -156 80 -217 80 -25 0 -49 -11 -87 -39 -48 -36
-53 -44 -73 -118 -37 -134 -62 -272 -73 -398 -18 -198 -10 -179 -83 -194 -82
-16 -121 -53 -131 -124 -4 -27 -12 -46 -18 -44 -6 2 -17 37 -25 78 -27 142 14
513 79 717 59 183 121 274 228 331 101 53 248 68 319 32z m1294 -143 c-7 -7
-12 -22 -12 -34 0 -12 -8 -24 -17 -27 -10 -2 -26 -8 -35 -12 -32 -13 3 52 36
68 38 19 43 20 28 5z m356 -291 c34 -67 75 -159 91 -204 16 -45 43 -101 59
-125 35 -51 111 -124 147 -140 27 -12 32 -35 13 -60 -24 -31 -87 42 -187 212
-76 129 -109 174 -200 271 l-109 116 51 26 c29 14 57 26 62 26 6 0 38 -54 73
-122z m-332 -58 c121 -60 202 -155 224 -264 33 -162 147 -302 283 -345 20 -6
37 -13 37 -15 0 -2 -21 -39 -47 -82 -83 -140 -173 -374 -189 -490 l-6 -50 -76
-7 c-41 -3 -102 -6 -136 -6 -34 0 -105 -9 -159 -19 -96 -19 -107 -19 -540 -1
-243 10 -443 19 -444 19 -2 1 -3 9 -3 19 0 11 -9 27 -20 37 -24 22 -28 37 -75
264 -19 96 -32 178 -28 181 5 4 51 21 103 39 123 42 297 127 407 200 166 109
256 191 510 464 44 48 84 87 88 87 4 0 36 -14 71 -31z m1223 -49 c-43 -119
-63 -155 -260 -463 -199 -311 -259 -425 -319 -604 -40 -119 -80 -285 -80 -332
l0 -25 -30 29 -30 29 26 27 26 28 -37 45 -38 46 22 51 c11 29 21 69 21 90 0
21 4 49 10 63 8 23 709 1096 716 1096 1 0 -11 -36 -27 -80z m-2739 -590 c21
-11 53 -38 71 -60 18 -22 37 -40 43 -40 20 0 35 -38 42 -107 4 -37 13 -84 21
-103 8 -19 21 -75 28 -124 8 -49 18 -92 23 -95 9 -5 34 -81 28 -81 -1 0 -17
20 -34 44 -30 41 -38 46 -107 62 -70 16 -76 16 -93 1 -35 -32 -111 -12 -152
39 l-22 29 4 -107 5 -108 -31 0 c-17 0 -49 -3 -71 -6 l-40 -7 50 52 c44 45 48
54 37 71 -6 11 -12 33 -12 50 0 23 7 33 31 46 31 15 31 17 25 67 -3 29 -6 59
-6 67 0 14 -17 15 -125 12 l-125 -4 0 60 0 61 120 3 c101 3 120 1 121 -12 1
-11 3 -10 6 2 2 10 -7 32 -20 50 -13 18 -27 47 -31 63 -4 17 -9 38 -12 48 -3
11 0 17 9 17 8 0 17 7 21 15 9 24 146 21 196 -5z m-353 -546 c-3 -3 -12 -4
-19 -1 -8 3 -5 6 6 6 11 1 17 -2 13 -5z m143 -269 l65 -6 -3 -397 c-2 -220 2
-484 8 -592 19 -331 57 -1725 49 -1792 -5 -35 -15 -261 -24 -503 -8 -242 -16
-453 -16 -470 -1 -16 -12 60 -25 170 -13 110 -37 315 -54 455 -46 386 -59 545
-70 858 -56 1509 -80 2168 -83 2225 l-4 67 46 -5 c25 -2 75 -7 111 -10z m2770
-698 c229 -78 456 -128 715 -158 125 -15 530 -16 644 -2 l73 9 -7 -60 c-3 -34
-8 -62 -10 -64 -2 -2 -57 -6 -122 -9 l-119 -6 -12 34 -11 34 5 -32 6 -33 -191
0 c-282 0 -471 29 -701 106 -151 51 -354 153 -415 209 -41 37 -45 43 -20 32
17 -8 91 -35 165 -60z m-366 -74 c159 -153 324 -254 536 -328 l103 -35 555
-45 c305 -24 556 -46 556 -47 1 -2 -10 -111 -25 -243 -34 -296 -36 -395 -9
-501 29 -112 65 -183 176 -346 276 -406 569 -726 942 -1028 l113 -92 592 -260
c326 -143 603 -265 617 -270 21 -9 -17 -22 -261 -88 -357 -97 -486 -114 -844
-114 -243 -1 -362 9 -580 44 -209 34 -663 48 -1385 44 -604 -3 -683 -6 -1235
-40 l-589 -36 -23 28 c-26 32 -25 39 6 124 19 50 20 69 15 215 -4 124 0 235
20 492 46 587 103 927 251 1508 41 160 83 337 95 395 29 147 73 295 127 430
49 123 129 290 139 290 4 0 52 -44 108 -97z m1806 -3514 c129 -6 232 -16 278
-27 l73 -18 -289 -54 -289 -53 -62 43 c-54 38 -61 47 -61 76 0 29 3 33 33 37
59 7 111 7 317 -4z m-1943 -87 c-18 -27 -39 -63 -47 -81 -11 -28 -35 -43 -191
-122 l-179 -89 -112 0 -113 0 71 35 c89 43 163 109 203 180 17 30 32 55 34 55
110 22 354 68 360 69 4 0 -8 -21 -26 -47z m-814 -289 c-7 -2 -21 -2 -30 0 -10
3 -4 5 12 5 17 0 24 -2 18 -5z"/>
<path d="M3699 8820 c-55 -28 -89 -64 -89 -94 0 -28 38 -38 119 -31 74 7 80 6
127 -23 75 -46 135 -62 229 -62 75 0 85 2 99 22 32 45 23 53 -111 103 -71 26
-141 58 -156 71 -60 50 -138 55 -218 14z"/>
<path d="M3775 8560 c-42 -16 -48 -35 -30 -89 31 -95 101 -124 191 -80 47 22
67 66 43 95 -19 23 -65 44 -96 44 -15 0 -39 9 -53 20 -28 22 -27 22 -55 10z"/>
<path d="M4058 8281 c-50 -20 -97 -50 -140 -89 -40 -37 -39 -91 2 -125 45 -38
82 -43 137 -16 101 49 156 125 133 185 -26 67 -53 76 -132 45z"/>
<path d="M2822 5980 c-77 -18 -96 -73 -62 -176 41 -129 116 -214 228 -260 105
-43 153 -28 187 58 12 33 14 50 6 71 -12 31 -61 64 -108 73 -26 5 -36 16 -63
71 -29 58 -129 175 -148 172 -4 -1 -22 -5 -40 -9z"/>
<path d="M4541 3974 c-28 -35 -27 -43 10 -87 l31 -37 -46 -378 c-30 -248 -61
-454 -90 -602 -86 -425 -158 -1034 -135 -1140 19 -87 94 -149 169 -138 l25 3
1 210 1 210 132 844 c99 635 130 854 125 890 -8 60 -38 129 -72 165 -27 28
-109 86 -123 86 -4 0 -17 -12 -28 -26z"/>
<path d="M5469 3739 c-20 -20 -21 -29 -16 -108 3 -47 13 -111 22 -141 18 -63
47 -250 70 -455 42 -367 151 -748 300 -1045 108 -216 363 -478 576 -593 44
-24 44 -24 174 -11 72 7 133 13 137 13 4 1 -3 19 -15 40 -16 27 -116 115 -322
284 l-300 244 -66 144 c-133 287 -232 669 -299 1150 -29 210 -68 317 -161 442
-46 62 -67 69 -100 36z"/>
<path d="M4103 3716 c-24 -21 -28 -31 -26 -72 1 -27 -2 -53 -7 -59 -5 -6 -29
-98 -54 -205 -26 -107 -57 -215 -70 -240 -40 -75 -89 -315 -105 -523 -6 -72
-16 -125 -25 -139 -22 -34 -39 -233 -32 -361 14 -211 54 -402 88 -413 31 -10
64 4 76 32 7 14 24 170 37 347 29 362 55 588 91 787 43 235 119 535 164 649
36 93 18 171 -49 206 -41 21 -55 19 -88 -9z"/>
<path d="M5006 2977 c-16 -12 -17 -36 -14 -342 4 -313 5 -333 27 -394 39 -112
118 -205 169 -199 14 2 34 15 45 31 l21 27 -27 183 c-17 107 -30 249 -34 347
-7 191 -20 241 -84 314 -42 48 -70 57 -103 33z"/>
<path d="M6580 2052 c-9 -4 -26 -15 -39 -24 -72 -52 49 -297 244 -494 118
-119 236 -187 376 -216 69 -14 87 -8 105 38 12 29 10 33 -52 102 -36 39 -122
120 -192 180 -70 61 -192 180 -272 266 -79 86 -147 156 -150 155 -3 0 -12 -3
-20 -7z"/>
</g>
</svg>
