<?xml version="1.0" standalone="no"?>
<!DOCTYPE svg PUBLIC "-//W3C//DTD SVG 20010904//EN"
 "http://www.w3.org/TR/2001/REC-SVG-20010904/DTD/svg10.dtd">
<svg version="1.0" xmlns="http://www.w3.org/2000/svg"
 width="1024.000000pt" height="1024.000000pt" viewBox="0 0 1024.000000 1024.000000"
 preserveAspectRatio="xMidYMid meet">
<metadata>
Created by potrace 1.10, written by Peter Selinger 2001-2011
</metadata>
<g transform="translate(0.000000,1024.000000) scale(0.100000,-0.100000)"
fill="#000000" stroke="none">
<path d="M4925 9837 c-38 -11 -72 -22 -74 -23 -2 -2 13 -44 34 -94 78 -194
104 -325 111 -570 13 -402 -65 -968 -352 -2550 l-88 -486 -777 -92 -777 -93
-53 21 c-30 11 -85 38 -124 61 -38 22 -112 56 -162 76 l-93 34 -24 -28 c-21
-23 -24 -35 -20 -73 8 -68 42 -172 72 -217 15 -22 115 -131 222 -242 l195
-201 135 -31 135 -30 595 170 c327 93 597 168 599 165 11 -10 -167 -756 -255
-1069 -68 -244 -111 -369 -170 -496 -30 -64 -60 -141 -66 -171 -10 -50 -9 -61
12 -114 30 -75 78 -143 104 -149 12 -3 115 -23 230 -45 210 -40 210 -40 320
-101 214 -119 621 -386 633 -416 6 -14 -126 -271 -230 -448 -351 -599 -644
-985 -1076 -1415 -227 -227 -636 -595 -850 -767 -7 -5 41 -53 52 -53 6 0 78
39 161 87 1044 602 1645 1151 2216 2026 65 100 125 191 133 201 12 18 17 16
78 -42 172 -160 492 -529 694 -798 161 -214 276 -314 359 -314 83 0 152 48
182 127 23 59 14 282 -15 400 -77 310 -251 572 -541 815 -112 94 -285 225
-387 293 -40 26 -73 52 -73 57 0 5 57 138 126 296 130 294 186 452 335 937
158 512 419 1469 484 1773 l18 82 81 24 c45 14 152 45 239 71 121 35 188 61
283 111 120 63 150 84 122 84 -7 0 -161 -24 -343 -54 -181 -30 -331 -54 -332
-52 -1 1 29 92 67 202 81 231 81 230 -3 315 -65 66 -178 140 -337 219 -99 50
-169 75 -345 126 l-220 63 -46 -51 -47 -51 62 -77 c125 -153 184 -261 212
-389 16 -69 16 -96 5 -281 -7 -113 -14 -206 -15 -207 -6 -7 -1242 -198 -1244
-193 -2 6 75 355 523 2360 175 783 168 701 68 822 -64 78 -321 309 -438 393
-74 53 -179 96 -229 94 -11 -1 -52 -10 -91 -22z m1365 -3713 c0 -10 -120 -508
-156 -644 -158 -604 -302 -1081 -454 -1505 -62 -172 -180 -475 -184 -475 -2 0
-34 14 -72 31 -196 89 -517 202 -730 255 -106 27 -115 31 -174 84 l-62 56 17
89 c9 50 49 194 90 320 142 443 223 716 349 1179 36 132 69 243 73 247 7 6
1273 366 1296 368 4 1 7 -2 7 -5z"/>
</g>
</svg>
