<?xml version="1.0" standalone="no"?>
<!DOCTYPE svg PUBLIC "-//W3C//DTD SVG 20010904//EN"
 "http://www.w3.org/TR/2001/REC-SVG-20010904/DTD/svg10.dtd">
<svg version="1.0" xmlns="http://www.w3.org/2000/svg"
 width="1024.000000pt" height="1024.000000pt" viewBox="0 0 1024.000000 1024.000000"
 preserveAspectRatio="xMidYMid meet">
<metadata>
Created by potrace 1.10, written by Peter Selinger 2001-2011
</metadata>
<g transform="translate(0.000000,1024.000000) scale(0.100000,-0.100000)"
fill="#000000" stroke="none">
<path d="M4576 9529 c-33 -36 -37 -45 -34 -87 3 -46 5 -48 103 -132 163 -139
218 -198 320 -343 53 -76 98 -144 101 -150 3 -8 -43 -25 -133 -51 -540 -151
-646 -186 -798 -260 -316 -156 -590 -376 -821 -661 -23 -27 -66 -104 -96 -170
-97 -210 -106 -309 -114 -1205 -5 -689 -18 -970 -44 -978 -5 -2 -8 -8 -4 -13
3 -5 -74 -9 -188 -10 -428 -3 -1014 -16 -1031 -23 -32 -15 -47 -58 -35 -100
14 -45 69 -77 186 -107 90 -23 188 -24 636 -8 170 6 337 8 371 4 l61 -6 -22
-236 -23 -237 26 -80 c29 -93 65 -136 112 -136 24 0 36 8 55 37 44 67 55 141
65 423 6 144 12 264 13 266 2 2 274 33 603 69 l600 65 878 166 c483 91 881
163 884 160 3 -3 48 -128 99 -278 110 -318 111 -327 41 -425 -97 -138 -246
-298 -374 -404 -40 -33 -408 -286 -818 -564 l-747 -504 -336 -333 c-411 -406
-541 -563 -768 -923 -212 -336 -329 -644 -350 -920 -29 -392 209 -776 588
-949 l73 -33 471 -27 471 -26 99 30 c431 128 806 302 1274 588 193 118 387
250 715 486 l450 325 66 1 c80 0 122 -13 174 -56 22 -19 81 -64 130 -100 204
-152 396 -337 590 -568 109 -130 178 -180 266 -192 60 -8 98 21 106 82 10 78
-3 96 -235 319 -119 115 -290 280 -379 366 -215 209 -382 318 -596 389 l-68
22 -64 -27 c-35 -15 -68 -24 -74 -21 -6 4 -41 -17 -78 -47 -260 -206 -780
-570 -1108 -774 -369 -230 -695 -386 -1075 -515 l-145 -49 -396 -24 c-434 -26
-423 -27 -559 29 -160 66 -308 203 -388 362 -56 112 -72 183 -72 326 0 116 3
143 30 236 59 201 160 446 262 627 248 443 739 982 1235 1358 165 124 220 162
778 526 297 194 574 378 615 409 93 69 253 224 330 317 111 136 145 194 164
281 16 74 16 89 2 182 -29 189 -74 333 -150 478 l-43 80 271 83 c327 101 546
185 766 295 536 268 860 546 1029 884 127 254 184 600 150 914 -15 134 -89
464 -124 553 -88 220 -246 368 -473 444 -48 17 -180 33 -565 71 -276 28 -521
50 -544 50 -34 0 -1459 -183 -1605 -206 -36 -5 -36 -5 -89 73 -98 146 -173
238 -293 359 -136 135 -301 264 -339 264 -16 0 -37 -14 -61 -41z m2899 -713
c337 -25 484 -39 520 -51 135 -46 237 -129 293 -241 34 -69 84 -231 111 -365
32 -158 44 -286 45 -474 0 -156 -3 -192 -23 -270 -74 -292 -318 -603 -642
-817 -99 -66 -405 -221 -604 -306 -228 -97 -508 -197 -723 -257 -75 -21 -75
-22 -92 74 -11 57 -252 844 -441 1436 -110 343 -256 686 -428 1001 l-60 110
372 48 c204 27 534 70 732 96 198 26 385 48 415 49 30 0 267 -15 525 -33z
m-2198 -351 c276 -520 381 -776 517 -1270 30 -110 125 -432 210 -715 85 -283
153 -516 152 -517 -2 -2 -198 -43 -1161 -238 -198 -40 -290 -52 -920 -115
-385 -38 -716 -72 -736 -75 l-35 -5 18 168 c16 150 17 231 11 797 -5 559 -4
651 12 820 20 211 24 224 118 365 190 285 649 584 1206 787 125 45 493 145
520 140 7 -1 47 -65 88 -142z"/>
<path d="M2174 5596 c-10 -8 -17 -17 -14 -19 3 -3 14 1 24 9 11 7 17 16 15 19
-3 3 -14 -2 -25 -9z"/>
<path d="M6846 3923 c11 -44 24 -76 29 -71 5 5 -24 98 -31 98 -2 0 -1 -12 2
-27z"/>
</g>
</svg>
