<?xml version="1.0" standalone="no"?>
<!DOCTYPE svg PUBLIC "-//W3C//DTD SVG 20010904//EN"
 "http://www.w3.org/TR/2001/REC-SVG-20010904/DTD/svg10.dtd">
<svg version="1.0" xmlns="http://www.w3.org/2000/svg"
 width="1024.000000pt" height="1024.000000pt" viewBox="0 0 1024.000000 1024.000000"
 preserveAspectRatio="xMidYMid meet">
<metadata>
Created by potrace 1.10, written by Peter Selinger 2001-2011
</metadata>
<g transform="translate(0.000000,1024.000000) scale(0.100000,-0.100000)"
fill="#000000" stroke="none">
<path d="M4720 9293 c-123 -102 -111 -84 -95 -144 8 -30 29 -146 46 -258 36
-233 35 -235 -26 -513 -116 -519 -340 -1189 -706 -2110 -150 -377 -150 -377
-182 -382 -18 -3 -490 -39 -1049 -81 l-1016 -76 -254 16 c-225 14 -282 21
-516 67 -145 28 -265 48 -267 46 -3 -3 14 -84 37 -181 l42 -176 230 -168 c212
-154 241 -172 357 -219 70 -29 170 -66 223 -84 l96 -32 138 35 c75 19 199 58
275 87 343 127 735 210 1247 265 129 14 250 27 268 29 18 3 31 2 28 -2 -2 -4
-77 -178 -166 -387 -89 -209 -189 -432 -221 -496 -75 -150 -178 -303 -276
-408 -43 -47 -104 -121 -136 -165 l-58 -81 3 -140 c3 -121 7 -147 27 -193 27
-60 75 -107 120 -117 34 -7 105 13 181 50 46 23 305 75 371 75 63 0 740 -109
840 -135 152 -39 370 -112 536 -177 l153 -60 -29 -37 c-62 -78 -455 -454 -686
-657 -255 -224 -703 -566 -957 -730 -470 -304 -980 -524 -1632 -703 -195 -54
-276 -96 -276 -144 0 -19 6 -19 172 -14 291 8 586 74 1115 248 486 159 1159
506 1658 853 323 225 511 385 828 704 l259 259 264 -158 c146 -88 325 -200
399 -249 386 -258 884 -673 1450 -1206 179 -168 374 -314 419 -314 38 0 105
30 128 56 130 147 57 534 -154 815 -75 100 -276 303 -411 413 -306 251 -697
497 -1132 711 -213 104 -471 220 -603 270 -50 19 -70 31 -64 39 5 6 36 45 69
86 185 231 428 587 635 935 182 306 192 324 429 844 l216 476 221 3 c209 2
273 -2 1164 -83 1112 -101 1164 -104 1236 -81 30 10 57 27 63 38 31 58 -20
195 -114 308 -136 162 -515 423 -730 502 -143 52 -166 53 -329 8 -119 -33
-210 -48 -538 -90 -400 -51 -860 -94 -871 -82 -3 4 -51 64 -107 134 -88 110
-131 151 -333 322 -127 108 -238 196 -248 195 -9 0 -38 -9 -66 -18 -38 -14
-50 -23 -48 -37 1 -10 22 -73 46 -139 68 -181 79 -251 64 -410 -12 -127 -13
-130 -37 -134 -36 -5 -2075 -179 -2077 -177 -1 1 168 380 376 841 332 738 600
1313 746 1598 69 135 63 183 -45 343 -75 110 -273 336 -394 451 -107 100 -214
173 -250 172 -12 0 -46 -21 -76 -46z m1630 -3667 c0 -10 -255 -680 -299 -786
-68 -163 -221 -472 -311 -630 -163 -284 -485 -736 -519 -726 -128 39 -1600
398 -1666 407 -106 14 -125 23 -149 77 l-19 41 374 732 c205 402 378 733 384
734 13 4 2093 152 2158 154 26 0 47 -1 47 -3z"/>
</g>
</svg>
