<?xml version="1.0" standalone="no"?>
<!DOCTYPE svg PUBLIC "-//W3C//DTD SVG 20010904//EN"
 "http://www.w3.org/TR/2001/REC-SVG-20010904/DTD/svg10.dtd">
<svg version="1.0" xmlns="http://www.w3.org/2000/svg"
 width="1024.000000pt" height="1024.000000pt" viewBox="0 0 1024.000000 1024.000000"
 preserveAspectRatio="xMidYMid meet">
<metadata>
Created by potrace 1.10, written by Peter Selinger 2001-2011
</metadata>
<g transform="translate(0.000000,1024.000000) scale(0.100000,-0.100000)"
fill="#000000" stroke="none">
<path d="M4373 9653 c-12 -3 -36 -20 -53 -39 -25 -29 -30 -43 -30 -84 l0 -49
88 -73 c146 -121 234 -216 341 -367 56 -79 100 -146 98 -148 -2 -2 -175 -52
-383 -112 -388 -111 -499 -152 -668 -248 -194 -110 -354 -231 -506 -383 -165
-165 -232 -252 -294 -385 -49 -104 -59 -135 -76 -240 -10 -66 -21 -136 -25
-155 -3 -19 -10 -379 -15 -800 -7 -690 -17 -939 -37 -990 -3 -8 -6 -18 -5 -21
1 -3 -270 -9 -601 -14 -650 -8 -650 -7 -663 -61 -10 -41 12 -99 43 -114 59
-27 164 -59 218 -65 31 -4 266 -2 521 5 255 7 466 11 469 9 2 -3 -5 -101 -15
-219 -31 -339 -28 -368 50 -447 67 -68 123 -31 158 104 17 64 22 123 28 335
l6 257 42 6 c22 3 304 35 626 70 l585 64 695 131 c1002 189 1008 190 1018 190
5 0 53 -128 106 -284 l97 -283 -13 -47 c-32 -110 -288 -404 -468 -537 -41 -31
-394 -271 -785 -534 l-710 -479 -324 -315 c-398 -389 -548 -564 -753 -881
-209 -324 -294 -504 -361 -770 -30 -117 -32 -136 -31 -295 0 -156 2 -177 28
-260 81 -267 288 -499 551 -621 l77 -36 417 -24 c564 -32 519 -34 708 27 244
79 416 150 678 279 363 179 696 388 1238 778 l447 322 68 0 c79 -1 111 -16
229 -104 246 -187 414 -341 568 -522 172 -202 221 -248 288 -273 32 -11 73
-21 91 -21 72 0 111 101 69 177 -10 17 -184 192 -388 388 -383 369 -459 432
-624 515 -42 21 -116 52 -164 69 l-88 31 -61 -25 c-34 -14 -70 -25 -80 -25 -9
0 -91 -56 -180 -123 -341 -259 -810 -580 -1119 -767 -273 -166 -691 -358 -994
-458 l-120 -39 -400 -22 -400 -22 -80 26 c-255 84 -445 283 -516 539 -30 110
-21 284 23 431 161 543 438 976 952 1491 359 358 509 473 1285 981 322 212
620 410 661 441 153 116 364 346 442 482 31 54 52 145 49 220 -5 141 -74 383
-152 537 -41 79 -45 93 -31 97 195 57 598 187 697 226 305 120 679 327 910
503 382 292 578 678 601 1182 8 168 -6 307 -56 530 -69 315 -119 423 -255 554
-91 87 -210 154 -325 184 -36 10 -295 40 -576 67 l-510 50 -797 -105 c-438
-58 -807 -105 -819 -105 -18 0 -37 21 -85 93 -125 187 -320 396 -483 518 -100
74 -121 86 -147 82z m2857 -753 c239 -17 461 -37 492 -45 140 -35 258 -127
316 -245 106 -217 183 -709 153 -981 -19 -182 -73 -323 -183 -481 -130 -188
-313 -363 -503 -483 -115 -72 -452 -238 -645 -318 -241 -100 -713 -257 -727
-243 -3 3 -14 42 -24 88 -20 83 -391 1285 -475 1538 -96 287 -230 593 -374
855 -44 81 -78 150 -76 153 3 2 191 29 418 58 227 30 564 74 748 98 199 27
357 43 390 40 30 -2 251 -18 490 -34z m-2153 -452 c232 -443 344 -723 453
-1128 31 -119 340 -1162 369 -1251 l9 -25 -694 -142 -694 -142 -730 -72 c-401
-39 -732 -69 -735 -66 -3 2 2 70 10 149 13 118 16 269 14 834 -1 569 2 717 15
844 15 151 17 156 58 225 132 225 296 380 588 556 324 195 648 329 1030 426
91 23 167 43 170 43 3 1 65 -113 137 -251z"/>
<path d="M1916 5674 c-22 -21 -20 -27 4 -12 11 7 20 16 20 20 0 12 -7 10 -24
-8z"/>
<path d="M6591 4025 c0 -5 6 -30 13 -55 8 -25 15 -36 15 -25 -1 21 -27 98 -28
80z"/>
</g>
</svg>
