<?xml version="1.0" standalone="no"?>
<!DOCTYPE svg PUBLIC "-//W3C//DTD SVG 20010904//EN"
 "http://www.w3.org/TR/2001/REC-SVG-20010904/DTD/svg10.dtd">
<svg version="1.0" xmlns="http://www.w3.org/2000/svg"
 width="1024.000000pt" height="1024.000000pt" viewBox="0 0 1024.000000 1024.000000"
 preserveAspectRatio="xMidYMid meet">
<metadata>
Created by potrace 1.10, written by Peter Selinger 2001-2011
</metadata>
<g transform="translate(0.000000,1024.000000) scale(0.100000,-0.100000)"
fill="#000000" stroke="none">
<path d="M7004 9661 c-134 -36 -161 -48 -212 -95 -53 -49 -70 -80 -86 -159
-12 -58 -14 -60 -58 -78 -28 -11 -148 -29 -319 -49 -151 -17 -308 -40 -349
-51 -90 -24 -189 -75 -253 -130 -137 -118 -231 -380 -166 -463 l21 -27 -39
-45 c-84 -101 -90 -113 -121 -232 -17 -64 -45 -187 -63 -272 -27 -133 -31
-168 -26 -245 7 -106 27 -186 69 -275 25 -53 58 -93 179 -215 l148 -150 -10
-41 -11 -42 -91 -6 c-284 -21 -549 -95 -781 -219 -258 -137 -520 -365 -704
-612 -41 -55 -125 -152 -186 -216 -107 -111 -114 -121 -215 -310 -57 -107
-191 -338 -297 -515 -106 -177 -204 -345 -219 -374 -15 -29 -55 -139 -90 -244
-35 -105 -71 -208 -79 -228 -9 -21 -16 -49 -16 -64 0 -15 -20 -111 -45 -213
-31 -128 -62 -308 -101 -581 -47 -327 -61 -400 -78 -425 -39 -55 -29 -119 42
-275 34 -74 62 -139 62 -145 0 -14 -101 -96 -201 -163 -276 -184 -432 -386
-513 -663 -13 -46 -38 -124 -55 -174 -47 -140 -56 -238 -37 -392 9 -70 29
-172 44 -226 28 -95 31 -100 113 -192 77 -87 93 -99 184 -145 143 -72 262
-100 424 -100 145 0 287 21 347 52 l41 21 117 -63 118 -62 471 -30 472 -30
423 71 c453 77 681 129 1037 236 583 176 1152 415 1435 602 266 176 497 415
653 678 67 114 100 189 127 290 39 147 37 207 -19 705 -67 589 -81 669 -161
935 -32 107 -42 161 -55 310 -10 99 -15 204 -11 235 23 210 23 210 101 392
126 292 173 517 182 863 11 441 -43 648 -230 882 -88 111 -341 367 -464 470
-73 61 -141 132 -223 232 l-118 145 19 43 c11 24 27 62 38 86 15 35 31 50 86
82 91 54 181 153 235 259 41 80 43 91 53 213 l10 128 51 0 c86 0 145 60 193
196 53 152 41 351 -32 497 -38 76 -125 168 -190 203 l-42 23 -6 86 c-18 279
-203 385 -523 301z m253 -233 c17 -18 22 -39 24 -98 2 -41 0 -89 -5 -107 -11
-48 17 -101 68 -124 23 -10 49 -19 59 -19 39 0 121 -77 160 -148 34 -64 37
-76 37 -149 0 -59 -4 -84 -15 -93 -8 -7 -17 -28 -21 -49 -10 -55 -72 -173 -87
-165 -7 4 -28 20 -47 35 -25 19 -56 30 -110 38 -69 11 -102 21 -69 21 9 0 28
14 45 31 24 25 29 39 29 81 0 84 -11 89 -276 122 -265 32 -283 36 -347 80
l-49 33 -237 18 c-130 10 -236 22 -236 26 0 3 14 12 30 19 54 22 35 33 -47 26
-43 -3 -72 -3 -66 0 7 3 173 36 368 73 313 60 360 72 396 96 56 40 81 92 73
154 -6 47 -6 48 32 71 26 15 70 27 134 35 133 18 134 18 157 -7z m-417 -822
c129 -59 237 -110 239 -112 2 -2 -7 -13 -21 -24 -41 -32 -53 -72 -38 -126 18
-63 54 -104 91 -104 33 0 79 20 98 44 9 11 30 16 62 16 43 0 49 -3 55 -24 13
-53 -58 -199 -127 -262 -39 -36 -92 -64 -120 -64 -36 0 -83 -54 -106 -122 -57
-166 -178 -367 -296 -492 l-72 -76 -240 10 c-274 11 -350 25 -476 91 -123 64
-188 123 -232 209 -55 109 -72 204 -72 390 1 167 15 257 47 303 11 15 24 42
29 60 5 18 31 60 59 92 67 81 93 131 86 166 -5 27 -3 28 82 59 48 18 137 43
197 56 99 21 131 23 315 21 l205 -2 235 -109z m310 -1482 c60 -72 154 -152
268 -228 91 -60 226 -187 293 -275 68 -90 144 -246 176 -366 26 -95 27 -111
27 -335 0 -175 -4 -263 -17 -345 -29 -184 -64 -325 -92 -365 -14 -20 -25 -49
-25 -65 0 -18 -50 -125 -130 -277 -71 -137 -130 -252 -130 -257 0 -5 -71 -99
-157 -209 l-158 -201 -480 -423 c-458 -404 -496 -435 -841 -685 -199 -145
-365 -263 -370 -263 -5 0 -69 -31 -144 -69 -190 -97 -337 -152 -556 -210 -169
-44 -202 -50 -316 -53 -71 -2 -128 0 -128 4 0 4 -7 8 -16 8 -10 0 4 21 40 60
57 62 78 109 66 145 -8 23 -83 65 -118 65 -13 0 -103 -44 -200 -99 -100 -55
-194 -101 -217 -105 -22 -4 -53 -9 -70 -12 -17 -3 19 21 84 56 63 33 125 60
137 60 15 0 25 8 30 23 12 39 61 102 101 130 21 14 100 48 175 76 80 29 170
71 219 101 294 183 658 381 739 403 86 24 227 94 333 165 191 127 336 280 409
429 29 61 33 79 36 171 l4 103 106 -6 c59 -3 128 -8 153 -10 35 -4 50 -1 59
11 25 29 88 54 139 54 28 0 73 9 101 20 39 16 56 18 71 9 24 -12 41 -3 142 79
71 57 171 181 212 261 77 153 116 276 160 506 25 127 45 244 45 261 0 58 -30
133 -69 174 l-38 40 14 52 c16 64 5 138 -32 214 -34 70 -32 87 9 102 79 29
151 151 163 276 8 86 -10 142 -62 193 -54 55 -85 56 -137 8 -37 -34 -38 -38
-38 -104 0 -60 -5 -77 -45 -159 -38 -75 -51 -92 -74 -97 -44 -10 -66 -57 -66
-145 0 -60 5 -86 27 -132 18 -39 29 -83 34 -138 5 -61 13 -90 30 -116 13 -19
24 -47 24 -62 0 -15 5 -44 9 -66 17 -71 -22 -362 -65 -488 -53 -156 -213 -390
-253 -369 -25 13 -41 4 -106 -60 l-60 -58 -240 -10 c-132 -6 -274 -13 -316
-16 l-76 -5 -56 42 c-75 58 -97 99 -97 179 l0 64 134 174 c74 96 158 217 187
270 62 110 79 123 232 172 69 22 107 29 130 25 81 -17 100 -18 122 -6 51 27
60 126 17 178 l-27 33 -138 -9 c-118 -8 -144 -7 -170 6 -28 14 -37 14 -96 -1
-96 -25 -161 -22 -223 9 -59 30 -102 27 -136 -9 -56 -59 -50 -126 14 -176 24
-18 44 -37 44 -41 0 -4 -32 -35 -70 -69 -114 -101 -194 -229 -236 -375 -18
-64 -19 -65 -94 -110 -174 -104 -285 -131 -535 -131 -216 0 -223 3 -280 118
-64 129 -58 227 17 327 39 52 108 183 108 206 0 15 93 101 150 141 61 41 173
96 240 118 30 10 92 33 137 51 45 19 89 31 98 28 21 -8 45 52 45 115 0 35 -8
65 -30 106 -16 31 -30 70 -30 86 0 15 -9 51 -20 79 -11 28 -20 59 -20 70 0 38
-43 134 -79 173 -55 61 -86 77 -125 65 -53 -16 -70 -56 -61 -140 8 -84 40
-193 66 -227 11 -13 19 -39 19 -57 0 -18 4 -44 10 -58 8 -23 6 -26 -28 -36
-53 -17 -210 -101 -295 -157 -78 -52 -281 -242 -301 -283 -8 -14 -37 -104 -66
-199 l-52 -175 4 -114 4 -115 -170 -82 -171 -82 -44 24 c-47 25 -118 31 -153
12 -24 -13 -48 -67 -48 -107 0 -53 139 -161 207 -162 20 0 21 -3 12 -32 -5
-18 -9 -46 -9 -61 0 -19 -20 -56 -59 -110 -132 -182 -258 -422 -340 -642 -22
-60 -68 -162 -101 -225 -36 -68 -93 -203 -139 -330 -73 -204 -77 -216 -59
-228 47 -34 61 -120 33 -203 -10 -29 -51 -87 -110 -158 -52 -62 -95 -116 -95
-120 0 -13 -51 -32 -153 -57 -54 -13 -100 -24 -103 -24 -2 0 -4 16 -4 35 0 42
20 94 43 114 11 8 17 28 17 53 0 35 39 183 72 273 25 69 22 111 -16 206 l-36
90 29 87 c37 107 44 152 77 527 26 293 28 303 70 436 24 75 44 150 44 168 0
17 10 45 22 61 12 17 22 47 24 72 6 102 442 939 669 1285 82 124 464 583 593
711 235 234 579 414 907 476 87 17 94 17 205 -2 63 -11 134 -26 157 -32 52
-15 87 0 121 50 26 39 24 90 -5 122 -11 12 -13 27 -9 53 8 39 12 40 87 24 40
-9 116 -7 333 6 241 15 290 21 342 40 106 40 209 118 269 205 l27 39 52 -84
c28 -47 76 -114 106 -151z m-2453 -2528 c154 -86 216 -101 408 -101 149 1 166
3 245 29 47 16 111 42 144 58 32 16 59 28 61 26 1 -2 15 -29 30 -61 43 -91
122 -165 238 -222 74 -36 97 -51 93 -64 -2 -9 -7 -33 -10 -53 -7 -41 -78 -153
-155 -246 -113 -135 -328 -271 -493 -311 -87 -21 -145 -53 -158 -86 -6 -15
-165 -108 -565 -328 -512 -282 -560 -307 -604 -307 l-48 0 -32 -59 c-44 -83
-90 -121 -145 -121 -46 0 -66 15 -105 80 -35 58 -28 93 27 153 28 30 58 76 71
109 17 42 29 58 47 62 25 7 238 134 347 208 143 97 268 241 347 403 57 115 86
217 102 360 8 75 18 115 41 159 76 154 79 256 8 320 -16 15 -18 22 -10 33 6 7
13 13 15 13 2 0 47 -24 101 -54z m-300 -98 c-3 -13 -31 -144 -62 -293 -55
-260 -58 -273 -103 -348 -36 -59 -81 -112 -186 -213 -76 -74 -140 -133 -142
-131 -9 9 140 364 160 382 13 11 29 40 36 65 7 25 42 84 81 137 102 137 151
241 157 330 4 60 8 73 26 81 32 16 39 14 33 -10z m3357 -733 c58 -336 112
-644 120 -685 45 -229 44 -577 -3 -668 -12 -23 -21 -54 -21 -69 0 -70 -142
-300 -266 -432 -92 -97 -174 -160 -364 -278 -266 -165 -535 -300 -828 -418
-131 -52 -666 -226 -887 -288 -329 -93 -703 -160 -1065 -192 -242 -21 -744
-21 -825 0 -137 36 -244 124 -307 253 -29 59 -33 76 -33 147 0 95 20 144 116
288 176 261 398 467 659 611 373 207 923 338 1510 361 133 6 202 3 358 -14
107 -12 211 -21 231 -21 88 0 190 113 159 177 -19 40 -60 48 -363 67 -148 9
-280 19 -293 22 -21 4 -17 9 35 49 32 24 362 282 732 574 371 291 679 527 684
524 4 -3 7 1 5 9 -2 11 532 601 539 594 1 -1 49 -276 107 -611z m-4256 -1558
c71 -45 135 -60 244 -55 70 3 95 1 85 -7 -9 -5 -56 -38 -105 -73 -118 -83
-255 -198 -369 -311 -224 -221 -304 -391 -306 -648 l-1 -122 38 -61 c21 -34
35 -64 32 -67 -4 -4 -104 -9 -224 -11 -204 -4 -220 -3 -274 18 -73 27 -171 92
-204 135 -62 81 -100 340 -75 502 21 128 123 378 208 506 48 72 139 177 154
177 5 0 9 -10 9 -21 0 -12 18 -38 41 -59 50 -46 109 -60 250 -60 148 0 270 44
393 141 27 22 53 39 58 39 4 0 25 -11 46 -23z"/>
<path d="M6224 8306 c-77 -68 -94 -74 -252 -82 l-143 -7 7 -46 c8 -63 50 -120
115 -156 47 -26 64 -30 134 -30 74 0 85 3 138 35 117 70 187 169 165 231 -11
32 -81 99 -102 99 -8 0 -36 -20 -62 -44z"/>
<path d="M6486 8287 c-84 -48 -103 -158 -46 -274 55 -112 130 -140 307 -113
96 14 134 38 153 96 15 44 -1 118 -32 152 -28 29 -81 29 -134 -2 -25 -14 -52
-22 -66 -19 -23 4 -25 8 -20 52 5 58 -13 92 -63 115 -43 21 -52 20 -99 -7z"/>
<path d="M6043 7587 c-46 -18 -73 -57 -73 -109 0 -89 62 -137 158 -123 83 12
132 68 132 148 0 75 -117 121 -217 84z"/>
<path d="M5068 5307 c-38 -17 -69 -61 -75 -105 -4 -31 0 -44 21 -69 15 -18 43
-37 62 -43 49 -17 86 1 124 58 52 79 34 139 -49 162 -44 12 -49 12 -83 -3z"/>
<path d="M6348 5122 c-42 -5 -88 -64 -88 -112 0 -43 33 -91 81 -115 37 -19 33
-21 80 22 44 40 69 80 69 112 0 46 -84 101 -142 93z"/>
</g>
</svg>
