<?xml version="1.0" standalone="no"?>
<!DOCTYPE svg PUBLIC "-//W3C//DTD SVG 20010904//EN"
 "http://www.w3.org/TR/2001/REC-SVG-20010904/DTD/svg10.dtd">
<svg version="1.0" xmlns="http://www.w3.org/2000/svg"
 width="1024.000000pt" height="1024.000000pt" viewBox="0 0 1024.000000 1024.000000"
 preserveAspectRatio="xMidYMid meet">
<metadata>
Created by potrace 1.10, written by Peter Selinger 2001-2011
</metadata>
<g transform="translate(0.000000,1024.000000) scale(0.100000,-0.100000)"
fill="#000000" stroke="none">
<path d="M7049 9571 c-128 -34 -200 -72 -240 -125 -30 -41 -59 -121 -59 -162
0 -38 -86 -60 -350 -89 -129 -14 -269 -32 -310 -40 -255 -50 -424 -200 -485
-431 -24 -89 -22 -151 5 -179 l22 -24 -64 -74 c-63 -72 -65 -77 -96 -193 -54
-203 -92 -410 -92 -499 0 -92 25 -203 67 -298 22 -51 53 -89 179 -217 l153
-155 -11 -42 -12 -41 -90 -7 c-335 -24 -629 -119 -905 -290 -198 -123 -439
-348 -587 -548 -42 -56 -129 -156 -193 -222 -129 -133 -203 -246 -288 -435
-25 -58 -118 -224 -206 -370 -201 -333 -247 -420 -287 -545 -18 -55 -40 -122
-51 -150 -10 -27 -21 -63 -25 -80 -4 -16 -15 -46 -24 -65 -10 -19 -21 -57 -25
-85 -4 -27 -25 -123 -46 -213 -34 -142 -149 -864 -149 -937 0 -13 -11 -41 -25
-61 -40 -60 -35 -114 26 -253 28 -64 59 -128 67 -143 15 -27 15 -29 -12 -57
-16 -17 -83 -67 -150 -112 -207 -141 -285 -214 -400 -375 -52 -73 -119 -222
-156 -344 -18 -58 -43 -141 -57 -185 -47 -155 -41 -349 19 -560 31 -109 32
-111 117 -208 81 -93 92 -101 186 -147 139 -68 231 -91 390 -97 156 -6 333 20
384 56 l30 22 47 -36 c52 -40 101 -67 154 -83 19 -7 248 -25 509 -42 l473 -30
417 71 c549 93 764 145 1226 296 670 220 1137 438 1419 662 300 240 547 579
616 848 43 165 42 183 -21 728 -32 275 -67 545 -79 600 -24 117 -72 300 -95
365 -9 25 -25 135 -36 245 -18 186 -18 209 -4 332 14 127 18 139 86 300 39 92
82 203 95 245 63 212 95 438 96 678 1 345 -44 557 -157 731 -88 136 -362 426
-569 602 -54 46 -134 131 -202 214 l-111 137 18 43 c11 24 27 62 38 86 15 35
31 50 86 82 91 54 181 153 235 259 41 80 43 91 53 213 l10 128 53 0 c63 0 94
20 140 88 53 77 76 158 81 287 5 98 2 128 -16 195 -41 149 -128 270 -232 324
l-46 25 -6 85 c-10 153 -61 247 -163 297 -48 23 -71 28 -158 30 -85 3 -117 -1
-207 -25z m258 -233 c17 -18 22 -39 24 -98 2 -41 0 -89 -5 -107 -11 -48 17
-101 68 -124 23 -10 51 -19 62 -19 12 0 38 -13 59 -30 21 -16 42 -30 46 -30 5
0 27 -36 49 -80 37 -73 40 -86 40 -159 0 -57 -4 -82 -15 -91 -8 -7 -17 -28
-21 -49 -10 -55 -72 -173 -87 -165 -7 4 -28 20 -47 35 -30 23 -125 48 -187 49
-4 0 3 6 17 13 35 18 70 74 70 114 0 24 -8 43 -27 62 -27 26 -38 28 -258 55
-234 29 -301 45 -358 89 -29 22 -50 25 -252 42 -121 10 -229 21 -240 25 -18 6
-16 9 13 24 17 9 32 19 32 23 0 3 -37 3 -81 0 -45 -4 -80 -4 -77 -2 3 3 170
37 373 75 329 63 372 74 410 100 54 37 77 89 69 157 -6 48 -6 48 32 68 33 17
157 39 245 44 15 0 34 -8 46 -21z m-738 -708 c141 -15 318 -79 510 -187 l64
-35 -30 -24 c-46 -35 -58 -74 -43 -130 18 -63 54 -104 91 -104 33 0 79 20 98
44 19 23 109 22 118 0 17 -46 -56 -201 -124 -266 -42 -39 -95 -68 -124 -68
-36 0 -83 -54 -106 -122 -57 -166 -178 -367 -296 -492 l-72 -76 -240 10 c-275
11 -349 25 -474 90 -167 87 -239 173 -282 336 -44 167 -33 493 20 564 10 15
24 43 29 64 6 21 35 65 65 99 68 78 91 121 83 159 -4 22 -1 30 12 35 9 3 45
16 79 29 180 70 403 96 622 74z m637 -1604 c57 -67 96 -99 309 -255 163 -120
297 -286 369 -458 72 -170 81 -227 81 -498 -1 -201 -4 -260 -22 -365 -31 -175
-68 -316 -92 -347 -12 -14 -21 -38 -21 -53 0 -17 -54 -131 -130 -275 -71 -136
-130 -252 -130 -257 0 -5 -70 -98 -156 -207 l-155 -198 -479 -423 c-455 -402
-497 -436 -832 -680 -334 -243 -363 -261 -538 -348 -221 -109 -327 -149 -548
-206 -146 -38 -184 -44 -302 -48 -74 -3 -145 -2 -158 1 -23 6 -22 7 14 41 89
85 117 156 75 194 -11 10 -41 24 -67 32 l-48 14 -177 -99 c-131 -74 -194 -103
-239 -112 -33 -6 -63 -9 -66 -6 -8 7 211 117 234 117 12 0 22 9 26 23 10 42
72 112 123 139 27 15 101 46 164 68 90 32 193 86 499 260 272 155 409 227 465
245 150 49 359 174 493 296 31 28 93 111 158 210 l108 164 4 98 4 97 62 -5
c234 -18 230 -19 279 16 38 27 58 33 124 39 43 4 89 12 102 19 14 8 37 10 57
6 39 -7 83 19 178 105 108 100 171 200 253 405 55 136 138 536 130 622 -7 64
-31 116 -73 158 l-32 33 15 52 c18 63 8 135 -32 216 -33 68 -32 80 13 103 75
38 121 102 148 206 30 110 12 198 -53 263 -54 53 -84 55 -135 7 -37 -34 -38
-38 -38 -104 0 -60 -5 -77 -45 -159 -38 -75 -51 -92 -74 -97 -37 -8 -62 -53
-68 -123 -4 -46 0 -72 22 -132 15 -41 33 -117 40 -169 10 -68 19 -99 34 -115
12 -12 21 -35 21 -52 0 -16 5 -47 10 -68 12 -54 -6 -244 -37 -384 -32 -147
-113 -310 -203 -412 -56 -63 -64 -69 -91 -63 -26 5 -37 -1 -94 -59 l-64 -64
-318 -12 -317 -12 -55 44 c-76 59 -96 96 -95 172 l0 61 133 173 c73 95 159
218 190 274 55 98 59 102 121 133 36 18 101 42 144 54 66 17 86 19 117 10 20
-6 53 -11 72 -11 46 0 69 31 75 103 3 48 1 54 -30 83 l-33 32 -130 -10 c-94
-6 -136 -5 -151 3 -22 11 -62 9 -195 -10 -73 -11 -77 -10 -135 18 -85 41 -134
29 -171 -42 -24 -48 -9 -97 42 -137 24 -19 44 -38 45 -42 0 -3 -32 -35 -71
-70 -112 -99 -183 -210 -230 -358 -13 -41 -33 -83 -44 -92 -33 -29 -185 -104
-255 -126 -105 -34 -175 -42 -347 -41 -186 1 -203 7 -254 86 -38 61 -59 132
-59 200 0 64 18 112 65 169 19 23 35 46 35 51 0 5 11 24 24 41 13 18 29 53 36
78 26 92 210 224 400 287 41 13 103 36 137 51 34 14 74 26 88 26 20 0 29 8 41
35 22 54 17 113 -16 183 -17 35 -30 74 -30 88 0 13 -9 47 -19 76 -11 29 -25
79 -31 110 -14 69 -59 140 -118 185 -38 29 -45 31 -74 21 -49 -17 -67 -45 -68
-103 0 -83 35 -212 71 -265 10 -15 19 -49 21 -83 l3 -57 -98 -44 c-152 -69
-285 -163 -417 -295 l-115 -116 -54 -183 c-56 -189 -68 -279 -48 -375 l8 -37
-175 -86 -175 -86 -31 22 c-20 14 -52 24 -88 27 -51 5 -61 3 -86 -19 -23 -19
-30 -35 -34 -77 l-5 -52 53 -50 c33 -31 73 -56 110 -70 l58 -21 -5 -57 c-4
-44 -13 -66 -43 -106 -137 -181 -272 -431 -356 -655 -25 -69 -75 -180 -111
-248 -41 -78 -91 -197 -138 -329 l-72 -207 28 -36 c38 -47 45 -101 24 -173
-13 -46 -34 -78 -105 -162 -49 -58 -93 -111 -97 -118 -18 -27 -48 -40 -153
-67 l-110 -28 0 45 c0 46 17 90 44 112 10 9 16 30 16 59 0 24 11 76 25 114 14
38 25 81 25 96 1 15 7 38 15 52 26 45 18 136 -19 224 l-34 79 24 59 c32 78 52
165 59 263 3 44 18 199 32 345 25 257 27 269 69 390 24 68 44 139 44 157 0 17
9 47 20 66 11 19 21 50 22 68 1 19 52 143 118 284 120 259 406 779 547 994 93
142 483 601 634 745 233 224 529 378 854 444 99 21 101 21 220 2 66 -10 139
-24 162 -30 51 -15 87 0 120 49 26 39 24 91 -7 126 -13 16 -15 27 -8 53 5 17
11 32 15 32 3 0 35 -5 70 -11 93 -16 584 14 669 42 102 33 216 118 279 209
l27 40 52 -87 c28 -47 78 -118 112 -157z m-2390 -2562 c68 -32 189 -62 283
-70 132 -11 297 24 435 92 38 19 70 33 71 32 0 -2 16 -33 33 -70 44 -90 127
-166 241 -220 l88 -41 -8 -47 c-10 -61 -34 -108 -107 -206 -98 -132 -231 -244
-377 -316 -48 -24 -89 -38 -217 -73 -45 -12 -65 -24 -95 -59 -32 -36 -129 -94
-583 -345 -519 -287 -547 -301 -597 -301 l-53 0 -29 -58 c-56 -110 -139 -159
-199 -116 -38 27 -72 90 -72 134 0 34 7 48 44 88 24 26 55 73 69 105 19 41 34
60 53 67 45 17 294 170 370 226 85 64 196 179 251 260 100 147 152 296 172
493 8 74 17 105 53 178 39 80 43 95 43 164 0 71 -2 80 -32 117 -23 28 -29 42
-21 50 8 8 28 2 72 -24 34 -20 84 -46 112 -60z m-371 -56 c-3 -13 -32 -147
-64 -298 -76 -360 -78 -364 -334 -602 l-108 -101 19 49 c107 268 136 336 153
344 10 6 25 32 33 59 8 29 43 88 86 145 95 128 148 241 156 334 6 58 10 72 28
80 32 16 37 14 31 -10z m3350 -668 c48 -278 100 -577 116 -665 42 -228 55
-419 42 -589 -9 -107 -16 -143 -32 -170 -12 -18 -21 -50 -21 -71 0 -67 -115
-260 -243 -408 -174 -201 -713 -519 -1222 -720 -127 -50 -701 -236 -885 -286
-327 -89 -636 -148 -980 -187 -191 -21 -770 -31 -866 -15 -146 25 -272 117
-343 251 -28 53 -35 78 -39 140 -5 91 7 131 75 242 187 310 463 563 788 723
373 183 893 298 1420 312 177 5 241 2 407 -16 l197 -22 45 19 c83 37 134 144
89 184 -28 24 -40 26 -358 48 -165 12 -300 22 -301 23 -6 6 1452 1142 1463
1140 8 0 12 5 9 13 -3 8 100 126 267 305 223 239 273 288 279 272 4 -10 46
-245 93 -523z m-4257 -1625 c64 -44 163 -69 251 -62 42 3 86 9 96 13 11 4 -21
-22 -72 -57 -135 -94 -246 -184 -368 -301 -260 -247 -347 -420 -349 -693 l-1
-130 38 -57 c20 -31 37 -59 37 -61 0 -2 -96 -7 -213 -11 -197 -6 -218 -5 -278
14 -78 24 -176 85 -215 133 -34 44 -70 162 -85 282 -21 170 32 392 151 626 54
107 200 296 220 284 4 -2 10 -17 13 -32 9 -43 70 -85 146 -100 188 -36 369 9
525 131 33 25 61 46 63 46 2 0 21 -11 41 -25z"/>
<path d="M6274 8216 c-77 -68 -94 -74 -253 -82 l-142 -7 6 -51 c9 -65 52 -117
125 -154 45 -22 68 -27 130 -27 65 0 82 4 125 29 72 42 145 114 167 164 19 43
19 43 -1 85 -19 39 -73 87 -98 87 -6 0 -33 -20 -59 -44z"/>
<path d="M6542 8203 c-75 -37 -102 -112 -78 -213 31 -126 105 -190 220 -189
98 0 203 23 231 49 37 35 49 82 35 138 -22 90 -80 115 -165 72 -22 -11 -51
-20 -66 -20 -25 0 -26 2 -21 49 5 58 -13 92 -63 115 -41 20 -52 20 -93 -1z"/>
<path d="M6093 7497 c-46 -18 -73 -57 -73 -109 0 -89 54 -134 149 -123 89 9
141 64 141 148 0 75 -117 121 -217 84z"/>
<path d="M5114 5215 c-58 -24 -92 -113 -64 -166 12 -22 80 -59 107 -59 50 1
123 87 123 145 0 62 -98 109 -166 80z"/>
<path d="M6344 4994 c-27 -28 -34 -44 -34 -76 0 -35 6 -47 44 -84 24 -24 51
-44 61 -44 25 0 112 90 121 124 10 39 -9 72 -55 96 -61 31 -97 27 -137 -16z"/>
</g>
</svg>
