<?xml version="1.0" standalone="no"?>
<!DOCTYPE svg PUBLIC "-//W3C//DTD SVG 20010904//EN"
 "http://www.w3.org/TR/2001/REC-SVG-20010904/DTD/svg10.dtd">
<svg version="1.0" xmlns="http://www.w3.org/2000/svg"
 width="1024.000000pt" height="1024.000000pt" viewBox="0 0 1024.000000 1024.000000"
 preserveAspectRatio="xMidYMid meet">
<metadata>
Created by potrace 1.10, written by Peter Selinger 2001-2011
</metadata>
<g transform="translate(0.000000,1024.000000) scale(0.100000,-0.100000)"
fill="#000000" stroke="none">
<path d="M6425 8931 c-41 -11 -612 -374 -654 -416 -26 -26 -34 -42 -33 -67 1
-18 1 -62 2 -97 1 -61 3 -67 38 -101 45 -43 272 -160 432 -223 64 -26 413
-131 790 -237 371 -105 705 -200 741 -210 36 -11 91 -36 122 -56 l56 -37 -21
-41 c-11 -23 -541 -1058 -1176 -2301 l-1156 -2260 -206 -325 c-114 -179 -213
-342 -219 -362 -14 -42 -217 -361 -234 -367 -6 -2 -21 -14 -34 -27 -28 -28
-30 -78 -5 -117 10 -15 134 -108 274 -207 l256 -180 79 0 c74 0 81 2 105 28
19 20 27 42 31 82 5 50 114 255 1182 2215 648 1188 1188 2169 1200 2180 13 11
84 126 158 255 105 181 153 278 212 425 43 105 90 206 105 225 37 47 60 94 60
122 1 13 11 36 24 52 13 16 111 220 218 453 167 367 200 432 245 483 85 97 92
158 26 231 -65 72 -297 210 -493 294 -46 20 -242 86 -435 146 -192 61 -469
150 -615 199 -294 99 -491 152 -757 204 -203 40 -275 48 -318 37z m350 -287
c300 -55 476 -101 991 -262 346 -108 463 -150 644 -226 146 -62 410 -194 410
-205 0 -19 -866 -1770 -909 -1838 -28 -44 -51 -87 -51 -95 0 -8 -27 -53 -60
-101 -69 -98 -377 -661 -535 -977 -58 -116 -144 -270 -191 -342 -47 -72 -106
-171 -130 -220 -25 -49 -76 -140 -114 -201 -37 -62 -74 -132 -81 -157 -7 -25
-20 -54 -29 -65 -10 -11 -305 -550 -656 -1198 -351 -647 -643 -1177 -647
-1177 -12 0 -287 172 -287 179 0 3 9 17 20 31 17 22 27 25 87 26 95 1 172 33
240 98 62 60 67 88 23 111 -27 14 -35 13 -126 -16 -52 -17 -99 -28 -102 -24
-11 10 13 20 151 59 72 21 137 43 144 50 7 6 15 29 18 51 6 37 4 41 -27 61
-34 21 -34 21 -93 3 -72 -23 -70 -22 -56 -5 7 8 27 17 45 20 69 13 248 98 275
130 6 7 14 26 17 43 5 25 1 34 -22 52 -19 15 -38 21 -57 18 -15 -2 -24 -1 -20
3 127 106 223 194 223 204 0 8 -9 20 -21 28 -21 13 -19 16 55 82 42 37 76 71
76 75 0 4 -14 18 -32 31 -33 24 -31 24 -117 -8 -8 -3 -4 10 11 32 19 32 34 42
93 61 39 12 95 35 125 51 43 23 56 36 64 63 9 30 7 36 -18 57 -32 28 -50 30
-100 9 l-37 -16 17 26 c9 14 31 33 48 41 115 57 137 73 180 128 25 33 46 63
46 67 0 11 -55 49 -70 49 -7 0 -29 -10 -49 -22 l-36 -23 22 35 c16 25 32 37
58 42 40 9 106 51 144 92 14 14 30 26 36 26 12 0 29 29 40 66 4 16 -1 28 -21
43 -34 27 -48 26 -101 -4 l-43 -26 17 35 c13 28 24 37 52 42 32 6 199 103 242
141 28 23 30 65 6 91 -29 31 -70 28 -123 -9 -25 -17 -47 -29 -50 -27 -2 2 2
18 8 35 9 25 26 37 87 64 41 19 102 43 136 54 56 19 61 23 77 67 l17 47 -31
24 c-34 28 -52 26 -127 -12 l-43 -22 7 23 c22 69 28 74 152 107 129 35 153 52
153 105 0 24 -8 38 -31 55 -33 25 -50 24 -112 -3 -38 -16 -38 -16 -27 4 6 11
23 22 38 26 120 26 190 63 246 130 33 41 33 55 -3 82 l-29 21 -71 -29 c-39
-16 -71 -27 -71 -25 0 3 10 24 22 49 20 42 24 44 72 50 65 9 144 53 185 104
38 48 39 64 5 91 l-26 20 -51 -20 c-28 -11 -55 -23 -60 -26 -5 -3 -8 0 -5 8 5
16 107 68 195 101 65 24 83 44 83 97 0 19 -9 34 -30 49 -36 27 -50 27 -94 1
-20 -12 -36 -18 -36 -15 0 3 12 30 26 59 24 48 31 55 70 65 25 7 63 24 85 38
23 14 65 33 93 41 59 17 76 34 76 79 0 25 -7 38 -31 54 l-30 22 -69 -24 -69
-25 24 48 24 47 96 22 c97 22 115 34 115 78 0 11 -14 32 -32 47 -26 22 -39 26
-70 22 l-39 -5 18 31 c14 23 30 34 63 42 25 7 54 17 65 23 11 6 42 14 68 17
66 9 116 54 123 110 5 37 3 42 -28 61 -30 19 -36 20 -68 6 -19 -8 -56 -23 -83
-33 l-47 -19 24 48 24 47 128 30 c111 27 131 34 143 56 19 34 7 77 -24 91 -23
10 -101 0 -152 -19 -7 -3 -13 0 -13 6 0 27 42 48 138 70 57 13 110 30 117 38
23 23 19 79 -7 97 -25 18 -84 21 -122 6 -14 -5 -26 -7 -26 -4 0 4 17 37 37 74
l37 68 56 -5 c46 -5 64 -1 106 20 59 30 72 43 79 83 5 26 2 31 -34 50 -38 21
-40 21 -89 4 l-51 -18 34 61 c34 62 35 62 87 68 67 7 105 27 152 80 l38 41
-30 31 c-29 29 -33 30 -69 19 -20 -6 -39 -10 -41 -8 -2 3 7 22 19 44 21 35 28
40 71 45 26 3 62 13 80 23 39 19 118 93 118 110 0 7 -12 22 -27 34 -21 17 -37
21 -65 17 -34 -5 -37 -3 -28 14 10 18 24 23 133 50 47 11 77 38 77 69 0 23
-39 57 -80 71 -41 14 -50 25 -50 61 0 21 19 46 87 111 l87 84 -29 26 c-35 30
-43 29 -136 -17 l-66 -33 16 29 c16 28 15 30 -13 53 -36 29 -73 21 -125 -28
-20 -18 -48 -43 -64 -57 l-27 -24 -55 18 c-30 9 -55 19 -55 22 0 3 28 46 62
96 l63 90 -30 24 c-17 13 -37 24 -45 24 -9 0 -56 -40 -105 -90 -49 -49 -94
-90 -100 -90 -5 0 -16 4 -24 9 -11 7 -2 24 43 81 31 40 56 76 56 80 0 5 -14
20 -30 34 l-30 25 -104 -79 c-93 -72 -126 -91 -126 -75 0 3 27 39 60 81 33 41
60 81 60 88 0 22 -53 54 -75 45 -11 -4 -60 -44 -110 -88 -91 -82 -96 -85 -128
-73 -15 7 -11 16 33 79 27 39 50 76 50 81 0 13 -53 52 -70 52 -7 0 -50 -36
-95 -81 -72 -70 -86 -79 -109 -73 -14 3 -28 9 -31 13 -2 4 12 33 31 65 18 31
34 61 34 66 0 13 -55 50 -75 50 -9 0 -50 -32 -90 -71 l-73 -70 -41 12 -40 12
64 72 c36 40 65 77 65 82 0 5 -13 19 -30 31 l-29 22 -123 -75 c-67 -41 -128
-75 -135 -75 -29 0 -21 24 26 81 28 33 51 64 51 69 0 5 -14 20 -30 34 l-30 25
-99 -75 c-83 -63 -103 -74 -125 -68 -14 3 -26 8 -26 10 0 2 17 20 39 39 21 19
49 55 62 81 l24 45 -30 25 c-31 25 -60 31 -70 14 -3 -5 -14 -14 -25 -20 -15
-8 -17 -6 -13 8 2 10 -6 27 -21 41 l-25 23 -123 -47 c-68 -25 -128 -53 -134
-61 -12 -15 -59 -11 -69 6 -5 8 460 289 499 302 29 9 91 2 311 -38z m-555
-348 c0 -3 -4 -8 -10 -11 -5 -3 -10 -1 -10 4 0 6 5 11 10 11 6 0 10 -2 10 -4z"/>
<path d="M2765 6866 c-280 -47 -485 -141 -682 -313 l-73 -64 0 53 c0 78 -16
122 -57 158 -78 69 -217 99 -296 65 -45 -19 -119 -84 -146 -129 -45 -75 -63
-427 -27 -536 20 -59 116 -248 176 -345 20 -33 59 -98 86 -144 118 -200 311
-339 536 -385 84 -17 188 -21 188 -7 0 23 44 18 189 -19 287 -75 310 -87 376
-196 73 -121 151 -222 249 -322 129 -133 223 -205 345 -266 383 -192 753 -277
1076 -248 434 40 791 196 1055 462 177 177 285 351 338 545 l27 100 -2 402
c-2 428 -6 470 -54 564 -28 56 -106 139 -146 155 -18 8 -47 14 -65 14 -18 0
-67 11 -108 25 -56 18 -180 37 -499 75 -589 71 -515 90 -1089 -281 l-287 -187
-135 -6 c-74 -4 -145 -10 -157 -13 -23 -5 -23 -5 -23 124 0 151 -11 219 -51
324 -78 203 -225 340 -410 384 -93 22 -240 27 -334 11z m307 -202 l87 -16 83
-84 c60 -61 87 -97 96 -127 25 -82 41 -224 44 -377 l2 -156 -54 -166 c-49
-153 -55 -166 -72 -157 -18 10 -17 12 10 47 46 59 73 257 53 393 -43 305 -210
519 -447 575 -52 12 -103 15 -204 12 -120 -4 -142 -8 -194 -31 -86 -40 -79
-26 9 16 79 38 156 64 233 77 83 14 263 11 354 -6z m-1256 -173 c9 -41 9 -59
-2 -89 -18 -51 -17 -167 1 -230 37 -123 159 -188 285 -153 32 9 71 67 68 100
-3 25 -1 26 43 25 95 -4 280 -71 370 -135 37 -26 37 -37 -3 -51 -78 -27 -250
-122 -329 -182 -47 -36 -114 -95 -148 -131 -74 -80 -62 -85 -187 81 -94 125
-189 279 -246 402 -37 78 -39 86 -33 150 4 39 3 84 -4 106 -8 30 -7 43 3 58
16 22 146 107 160 104 6 -1 15 -26 22 -55z m1009 -86 c33 -9 81 -30 107 -46
60 -39 148 -134 148 -161 0 -11 9 -31 20 -45 11 -14 20 -38 20 -53 0 -15 7
-48 14 -75 14 -44 13 -56 -6 -139 -31 -137 -33 -137 -119 1 -40 65 -94 137
-119 161 -107 102 -245 191 -377 243 -43 17 -80 33 -81 34 -9 8 106 58 172 75
88 23 145 24 221 5z m2495 -69 c32 -7 56 -19 58 -27 1 -8 -4 -36 -12 -63 -13
-42 -13 -54 -1 -82 31 -74 50 -190 49 -304 0 -110 -2 -121 -49 -260 -26 -80
-50 -148 -52 -153 -2 -4 -23 4 -46 17 -50 29 -173 68 -312 101 -87 20 -150 30
-320 50 -29 4 -74 -6 -165 -34 l-124 -40 -31 23 c-50 38 -94 96 -147 191 -27
50 -65 106 -84 126 -34 35 -35 49 -4 49 8 0 58 37 109 83 183 161 315 245 471
296 105 34 551 53 660 27z m345 -96 c65 -22 128 -48 139 -59 31 -27 66 -43 82
-37 17 6 19 -1 39 -164 17 -144 20 -571 3 -660 -5 -30 -12 -84 -15 -119 -4
-52 -13 -77 -50 -140 -202 -342 -520 -580 -902 -673 -90 -22 -93 -22 -432 -10
l-341 12 -167 51 c-352 109 -445 175 -689 489 -75 96 -161 201 -191 233 -112
118 -270 200 -446 232 -50 8 -100 18 -112 20 -20 5 -4 23 116 136 77 72 142
131 146 130 3 0 44 -50 91 -111 47 -61 103 -122 125 -137 50 -33 121 -41 183
-20 43 15 49 15 75 -1 40 -23 77 -8 116 45 16 23 34 42 38 42 4 1 33 -18 64
-41 31 -22 78 -47 103 -55 41 -12 53 -22 93 -81 62 -91 195 -218 287 -274 50
-30 128 -63 233 -98 l159 -52 298 21 c304 21 332 26 431 76 221 111 367 303
414 545 9 47 23 108 31 136 9 31 14 97 14 171 0 140 -28 269 -79 371 l-31 62
28 0 c15 0 81 -18 147 -40z m-2897 -410 c-7 -20 -287 -211 -403 -274 -90 -50
-125 -75 -125 -88 0 -29 -24 -31 -70 -8 -23 12 -40 23 -38 25 9 9 267 161 432
256 169 97 214 116 204 89z m1078 10 c6 0 58 -62 115 -137 56 -76 143 -177
193 -225 77 -74 87 -87 67 -88 -33 0 -423 135 -484 168 -57 30 -157 118 -157
136 1 13 154 130 190 145 14 6 34 8 45 6 11 -3 25 -5 31 -5z m1123 -485 c233
-79 228 -76 203 -98 -18 -17 -22 -16 -85 12 -146 66 -349 115 -519 127 -54 4
-98 11 -98 15 0 5 69 9 153 9 l154 0 192 -65z m-419 -129 c97 -11 155 -24 255
-59 l130 -44 -79 -18 c-65 -14 -111 -16 -250 -12 -195 5 -274 22 -403 84 l-78
37 122 6 c67 3 125 9 129 13 10 10 29 9 174 -7z"/>
<path d="M6893 6433 c15 -2 39 -2 55 0 15 2 2 4 -28 4 -30 0 -43 -2 -27 -4z"/>
</g>
</svg>
