<?xml version="1.0" standalone="no"?>
<!DOCTYPE svg PUBLIC "-//W3C//DTD SVG 20010904//EN"
 "http://www.w3.org/TR/2001/REC-SVG-20010904/DTD/svg10.dtd">
<svg version="1.0" xmlns="http://www.w3.org/2000/svg"
 width="1024.000000pt" height="1024.000000pt" viewBox="0 0 1024.000000 1024.000000"
 preserveAspectRatio="xMidYMid meet">
<metadata>
Created by potrace 1.10, written by Peter Selinger 2001-2011
</metadata>
<g transform="translate(0.000000,1024.000000) scale(0.100000,-0.100000)"
fill="#000000" stroke="none">
<path d="M7175 8791 c-55 -21 -134 -53 -175 -70 -90 -39 -206 -68 -303 -76
-40 -4 -709 -76 -1487 -160 -1863 -203 -2032 -213 -2395 -140 -66 13 -147 33
-179 45 -33 11 -64 20 -71 20 -11 0 -45 -92 -45 -124 0 -21 120 -142 221 -222
84 -67 225 -143 309 -168 53 -16 59 -15 175 10 66 14 145 34 175 45 108 40
507 111 975 174 610 83 725 93 1655 145 498 29 943 50 990 48 98 -5 146 -25
156 -64 4 -16 -55 -360 -152 -890 l-159 -863 -55 -20 c-30 -12 -217 -61 -415
-111 l-360 -90 -1544 -180 c-849 -99 -1544 -180 -1545 -180 -2 0 -33 36 -69
79 -51 61 -86 91 -150 130 -111 67 -218 117 -292 136 l-60 15 -105 -36 c-58
-21 -109 -41 -114 -45 -5 -4 7 -27 27 -51 65 -79 185 -319 208 -414 56 -239
58 -299 28 -1609 -22 -991 -21 -1356 5 -1520 35 -215 99 -402 181 -524 163
-245 505 -403 1013 -465 61 -8 527 -38 1034 -67 l923 -54 1080 53 1080 52 593
94 c642 102 644 103 706 177 35 41 41 71 26 127 -11 40 -30 63 -120 152 -125
123 -177 197 -213 306 -36 112 -43 177 -77 744 -36 596 -37 606 -57 625 -14
14 -17 14 -34 -1 -10 -9 -23 -42 -29 -73 -6 -31 -51 -227 -100 -436 -49 -209
-98 -427 -110 -485 -23 -116 -73 -250 -126 -340 -117 -201 -332 -324 -704
-405 -104 -23 -210 -31 -1065 -79 l-950 -54 -1005 59 c-1118 65 -1089 61
-1257 144 -214 105 -310 280 -358 651 -32 245 -34 454 -15 1269 18 713 22 811
52 1139 19 202 37 360 43 362 21 7 4176 496 4285 504 169 13 247 47 270 116
12 34 10 37 -36 97 -26 34 -69 87 -95 118 l-47 55 103 505 c104 511 139 660
202 849 50 153 141 332 207 410 55 64 86 129 86 178 0 86 -138 201 -397 331
-90 45 -209 92 -230 91 -4 -1 -53 -18 -108 -39z"/>
</g>
</svg>
