<?xml version="1.0" standalone="no"?>
<!DOCTYPE svg PUBLIC "-//W3C//DTD SVG 20010904//EN"
 "http://www.w3.org/TR/2001/REC-SVG-20010904/DTD/svg10.dtd">
<svg version="1.0" xmlns="http://www.w3.org/2000/svg"
 width="1024.000000pt" height="1024.000000pt" viewBox="0 0 1024.000000 1024.000000"
 preserveAspectRatio="xMidYMid meet">
<metadata>
Created by potrace 1.10, written by Peter Selinger 2001-2011
</metadata>
<g transform="translate(0.000000,1024.000000) scale(0.100000,-0.100000)"
fill="#000000" stroke="none">
<path d="M3283 8249 c-47 -13 -83 -62 -83 -111 0 -34 6 -46 35 -74 65 -61 68
-62 910 -94 424 -17 1108 -44 1520 -60 l751 -30 212 -75 c283 -100 270 -93
331 -164 45 -52 56 -73 73 -139 18 -70 20 -97 14 -307 -3 -126 -13 -511 -21
-855 -14 -569 -17 -633 -36 -715 -30 -126 -62 -177 -159 -253 -61 -49 -94 -67
-138 -78 -31 -8 -259 -39 -507 -69 l-450 -56 -854 10 c-470 6 -994 11 -1165
11 -283 0 -315 -2 -351 -19 -89 -42 -149 -139 -164 -268 -5 -43 -14 -91 -20
-106 -6 -16 -11 -53 -11 -83 0 -31 -11 -94 -24 -142 -18 -65 -26 -124 -31
-236 -3 -82 -11 -158 -17 -170 -7 -12 -13 -46 -13 -76 -2 -51 -11 -142 -35
-335 -55 -438 -69 -602 -76 -845 -5 -181 -2 -242 25 -520 20 -207 37 -340 51
-389 45 -158 133 -293 257 -395 91 -76 162 -111 278 -135 93 -19 150 -21 765
-30 l665 -10 1000 105 c550 58 1015 107 1033 110 18 3 48 19 67 36 31 26 35
36 35 77 0 68 -8 86 -43 103 -30 14 -110 7 -1047 -89 l-1015 -104 -670 6
c-760 7 -828 12 -900 69 -53 42 -93 87 -137 159 -20 32 -45 70 -56 82 -16 19
-27 64 -49 207 -27 178 -28 194 -28 598 0 472 -2 448 100 1205 63 463 99 700
133 871 l16 82 146 13 c187 17 251 16 505 -6 188 -17 301 -19 1065 -17 906 3
986 6 1220 53 224 45 464 130 558 196 100 72 185 194 241 347 52 144 60 208
77 591 13 306 14 433 4 845 -11 474 -25 666 -52 742 -9 26 -38 56 -99 106 -83
68 -93 73 -320 160 -129 49 -263 94 -299 101 -36 6 -339 34 -675 62 -335 28
-662 57 -725 64 -194 23 -553 29 -821 16 -223 -12 -271 -11 -564 8 -176 11
-338 23 -360 25 -22 2 -54 0 -72 -5z"/>
</g>
</svg>
