<?xml version="1.0" standalone="no"?>
<!DOCTYPE svg PUBLIC "-//W3C//DTD SVG 20010904//EN"
 "http://www.w3.org/TR/2001/REC-SVG-20010904/DTD/svg10.dtd">
<svg version="1.0" xmlns="http://www.w3.org/2000/svg"
 width="1024.000000pt" height="1024.000000pt" viewBox="0 0 1024.000000 1024.000000"
 preserveAspectRatio="xMidYMid meet">
<metadata>
Created by potrace 1.10, written by Peter Selinger 2001-2011
</metadata>
<g transform="translate(0.000000,1024.000000) scale(0.100000,-0.100000)"
fill="#000000" stroke="none">
<path d="M5225 8763 c-579 -43 -1276 -241 -1586 -451 -86 -58 -115 -100 -105
-153 10 -54 35 -78 88 -85 45 -6 51 -4 135 51 221 143 478 235 896 320 353 73
531 89 957 90 371 0 453 -5 733 -46 363 -52 438 -80 580 -217 95 -91 150 -133
225 -171 70 -35 298 -204 368 -271 35 -34 64 -70 64 -81 0 -10 5 -30 12 -44
16 -35 -5 -76 -90 -177 -76 -90 -136 -130 -381 -252 -404 -202 -823 -327
-1276 -380 -71 -8 -320 -53 -551 -100 l-421 -84 -134 -65 c-148 -72 -255 -151
-359 -264 -87 -95 -137 -168 -220 -323 -40 -74 -299 -542 -575 -1040 -533
-962 -839 -1545 -904 -1726 -21 -61 -118 -267 -214 -460 -132 -265 -233 -487
-417 -924 l-243 -575 -79 -290 c-43 -159 -78 -305 -78 -325 0 -62 65 -104 117
-76 25 13 111 203 717 1583 l690 1568 628 1125 c354 633 641 1136 657 1150 15
14 53 68 84 120 80 135 161 212 260 249 43 16 99 43 125 59 45 29 65 33 437
86 215 30 448 63 519 71 277 35 605 116 876 217 140 51 214 77 360 123 184 59
321 139 454 265 145 138 233 279 243 388 16 177 -180 444 -427 584 -108 61
-264 169 -343 237 -104 91 -271 170 -419 200 -29 6 -314 29 -633 51 -703 48
-708 48 -770 43z"/>
<path d="M5073 6024 c-47 -11 -158 -80 -179 -112 -49 -72 -81 -301 -65 -456
17 -156 46 -254 128 -430 41 -88 84 -188 95 -221 11 -33 24 -64 29 -70 5 -5 9
-20 9 -33 0 -28 950 -1447 1124 -1677 300 -398 489 -608 1005 -1119 234 -232
535 -529 668 -661 269 -266 300 -288 371 -267 54 16 92 48 92 77 0 15 -39 72
-112 160 -97 118 -148 167 -358 347 -184 158 -292 260 -434 411 -104 111 -287
306 -406 432 -206 220 -239 260 -710 885 l-494 655 -330 550 -330 550 -53 178
c-66 225 -73 264 -73 407 0 85 4 121 14 136 14 18 28 19 243 19 392 -1 650
-57 1007 -219 275 -126 536 -330 728 -571 44 -55 89 -108 100 -117 26 -23 62
-22 116 2 56 25 79 74 61 128 -41 126 -191 296 -356 406 -54 35 -116 83 -138
106 -30 31 -105 75 -295 173 -277 144 -363 180 -545 231 -240 68 -422 94 -695
100 -107 3 -205 3 -217 0z"/>
</g>
</svg>
