<?xml version="1.0" standalone="no"?>
<!DOCTYPE svg PUBLIC "-//W3C//DTD SVG 20010904//EN"
 "http://www.w3.org/TR/2001/REC-SVG-20010904/DTD/svg10.dtd">
<svg version="1.0" xmlns="http://www.w3.org/2000/svg"
 width="1024.000000pt" height="1024.000000pt" viewBox="0 0 1024.000000 1024.000000"
 preserveAspectRatio="xMidYMid meet">
<metadata>
Created by potrace 1.10, written by Peter Selinger 2001-2011
</metadata>
<g transform="translate(0.000000,1024.000000) scale(0.100000,-0.100000)"
fill="#000000" stroke="none">
<path d="M5368 8751 c-26 -15 -50 -29 -53 -33 -4 -3 10 -59 31 -123 44 -136
53 -105 -85 -284 -91 -119 -113 -140 -476 -450 l-380 -326 -384 -247 c-379
-243 -385 -246 -412 -232 -16 8 -112 37 -214 65 l-186 51 -55 -38 c-30 -21
-53 -41 -52 -44 2 -4 35 -34 74 -68 148 -127 228 -298 254 -547 25 -226 -15
-1371 -66 -1915 -51 -555 -188 -1213 -331 -1600 -105 -283 -300 -613 -539
-913 -56 -70 -84 -113 -80 -123 27 -70 368 201 569 451 274 340 488 772 637
1285 152 526 211 941 251 1790 6 135 12 246 13 247 3 3 1167 133 1196 133 34
0 57 -21 111 -104 42 -63 75 -145 89 -216 5 -25 21 -954 35 -2065 l25 -2020
26 -72 c35 -98 77 -163 106 -163 33 0 85 35 108 72 40 66 90 242 114 405 30
195 36 449 46 2053 6 894 15 1675 20 1735 5 61 17 142 26 181 10 43 14 82 10
100 -9 36 -78 103 -145 140 l-50 29 522 57 c287 32 584 62 661 68 216 17 296
59 296 154 0 50 -27 92 -111 172 -52 49 -60 53 -187 88 -73 20 -141 36 -150
36 -10 0 -173 -39 -363 -86 -367 -91 -316 -83 -1129 -190 -190 -25 -478 -63
-640 -84 -162 -21 -351 -46 -420 -55 -69 -9 -140 -18 -158 -22 l-33 -5 6 303
c3 167 11 353 16 412 l10 108 -50 58 -51 58 68 18 c38 10 247 103 487 217 314
151 444 218 515 268 52 36 272 191 488 343 217 153 430 300 475 328 97 60 137
96 137 122 0 78 -147 230 -373 384 -93 64 -176 117 -185 118 -10 2 -38 -9 -64
-24z"/>
</g>
</svg>
