<?xml version="1.0" standalone="no"?>
<!DOCTYPE svg PUBLIC "-//W3C//DTD SVG 20010904//EN"
 "http://www.w3.org/TR/2001/REC-SVG-20010904/DTD/svg10.dtd">
<svg version="1.0" xmlns="http://www.w3.org/2000/svg"
 width="1024.000000pt" height="1024.000000pt" viewBox="0 0 1024.000000 1024.000000"
 preserveAspectRatio="xMidYMid meet">
<metadata>
Created by potrace 1.10, written by Peter Selinger 2001-2011
</metadata>
<g transform="translate(0.000000,1024.000000) scale(0.100000,-0.100000)"
fill="#000000" stroke="none">
<path d="M4495 9761 c-29 -12 -42 -43 -64 -156 -26 -131 -40 -312 -40 -510 0
-88 -25 -826 -56 -1640 -31 -814 -54 -1517 -51 -1563 7 -101 -12 -309 -31
-337 -7 -11 -13 -27 -13 -37 0 -9 -13 -26 -30 -38 -38 -27 -38 -34 1 -50 l31
-13 -8 -306 c-5 -168 -7 -341 -6 -383 2 -51 0 -78 -7 -78 -8 0 -11 81 -11 256
0 163 -4 271 -11 295 -16 50 -62 105 -110 130 -35 17 -42 18 -67 5 -15 -8 -37
-25 -50 -39 l-23 -24 14 -384 15 -384 -25 -23 c-14 -13 -27 -22 -28 -20 -1 2
-8 307 -15 678 -11 535 -11 705 -1 818 14 164 6 226 -37 291 -36 53 -88 92
-112 83 -10 -4 -34 -21 -53 -39 l-35 -32 -7 -158 c-10 -201 1 -643 21 -883 25
-307 29 -562 10 -668 -19 -105 -21 -139 -12 -209 l8 -51 -137 -102 c-75 -56
-139 -100 -140 -98 -2 2 -11 307 -19 678 l-16 675 25 270 c50 557 57 787 47
1510 l-7 540 -27 55 c-29 60 -47 83 -92 118 -42 32 -72 28 -117 -17 -44 -44
-47 -65 -23 -151 11 -42 19 -182 33 -590 l18 -535 -44 -630 -43 -630 3 -640 3
-640 26 -78 27 -78 -142 -94 c-78 -51 -151 -103 -162 -115 -19 -21 -22 -42
-28 -192 -2 -43 2 -51 38 -88 22 -23 72 -57 110 -76 64 -32 86 -36 250 -55 99
-11 181 -22 183 -23 1 -2 -25 -135 -58 -295 -38 -184 -60 -317 -60 -359 0 -47
-5 -71 -16 -84 -16 -17 -14 -54 25 -540 23 -288 41 -563 41 -613 0 -112 12
-157 51 -189 43 -36 115 -37 149 -1 l23 24 -39 627 -38 626 27 77 c18 51 37
149 58 301 17 123 33 228 35 232 12 19 4 130 -10 159 -9 18 -15 34 -13 35 2 2
47 6 102 10 94 7 98 6 91 -12 -33 -84 -37 -139 -34 -397 3 -242 5 -265 24
-307 12 -25 32 -55 46 -68 21 -19 32 -22 67 -16 34 5 47 14 66 43 44 68 53
129 60 411 6 233 5 270 -10 310 -9 25 -19 52 -21 61 -5 13 16 18 133 33 76 10
155 22 177 27 21 6 40 8 43 6 2 -3 40 -216 83 -473 80 -469 87 -499 170 -725
22 -60 40 -117 40 -126 0 -20 299 -711 393 -907 98 -204 221 -379 376 -534
106 -106 166 -125 247 -77 77 45 78 69 5 140 -23 21 -41 43 -41 48 0 12 148
267 169 292 10 11 55 80 101 153 45 72 85 132 88 132 4 0 30 -23 58 -51 l52
-52 -28 -24 c-19 -15 -31 -37 -35 -61 -19 -117 -75 -265 -151 -395 -29 -51
-53 -111 -69 -173 -14 -52 -25 -96 -25 -99 0 -5 44 -12 126 -20 l62 -6 6 38
c4 21 59 148 123 282 98 205 118 253 121 302 l4 57 42 -19 c57 -26 93 -24 152
11 71 40 114 99 197 265 16 33 37 71 47 85 10 14 113 241 230 505 116 264 229
512 250 550 21 39 71 158 110 265 40 107 85 220 101 250 17 30 64 134 106 230
42 96 79 179 83 183 4 5 13 -22 20 -60 10 -55 55 -152 231 -505 121 -241 219
-448 219 -461 0 -12 11 -38 24 -57 13 -19 40 -75 61 -125 21 -49 47 -101 57
-114 10 -13 18 -33 18 -44 0 -11 13 -41 28 -66 16 -25 70 -134 122 -241 51
-107 94 -196 95 -198 2 -2 24 19 49 46 25 27 67 61 94 75 l49 27 -5 -25 c-8
-46 61 -137 161 -210 17 -12 60 -80 107 -169 l79 -150 -46 -50 c-88 -98 -179
-254 -218 -373 -10 -33 -22 -53 -32 -53 -29 0 -71 -55 -78 -103 -10 -62 0 -93
38 -129 52 -49 103 -68 185 -68 86 0 128 15 165 61 15 19 31 38 36 42 90 81
140 139 155 177 15 38 46 69 213 210 163 138 199 173 219 215 29 60 30 85 5
116 -10 13 -28 55 -40 92 -11 37 -69 154 -128 260 -84 151 -126 216 -200 302
l-93 110 42 38 c23 21 63 50 90 65 51 29 54 33 37 63 -7 15 -7 24 1 34 9 11 4
22 -23 52 -19 21 -104 151 -188 288 -84 138 -184 297 -222 354 -119 180 -197
354 -238 531 -11 47 -44 162 -74 255 -29 94 -58 193 -65 220 -20 77 -83 208
-124 252 l-36 40 9 1067 c4 597 4 1091 -1 1122 -5 30 -18 75 -29 100 -27 57
-104 126 -160 144 -24 7 -47 16 -51 20 -5 3 13 68 38 143 44 132 47 137 74
137 42 0 160 64 208 113 23 24 55 68 70 98 l29 54 419 200 c230 110 459 222
508 249 48 26 107 51 129 54 35 4 53 17 127 91 68 68 95 105 130 175 41 80 45
95 44 155 -2 127 -21 276 -41 328 -25 62 -83 144 -119 168 -24 16 -30 16 -97
-1 -229 -55 -540 -191 -742 -324 -167 -110 -185 -126 -185 -163 0 -18 -4 -46
-9 -62 -14 -50 20 -143 74 -203 l45 -50 -174 -100 c-96 -55 -191 -105 -211
-112 -24 -8 -63 -10 -116 -5 -74 7 -82 5 -103 -14 l-23 -22 -77 62 c-42 35
-76 70 -76 79 0 9 -13 29 -30 45 -30 29 -30 29 -66 12 -33 -16 -47 -16 -234 0
-193 16 -200 16 -240 -2 -25 -11 -46 -29 -51 -43 -7 -18 -14 -22 -27 -17 -9 4
-82 14 -162 21 -136 14 -155 13 -305 -7 -88 -11 -200 -31 -249 -45 -80 -21
-96 -22 -162 -13 l-72 11 -69 -36 c-130 -68 -235 -185 -295 -326 -22 -55 -27
-78 -22 -108 14 -77 186 -345 365 -566 l111 -138 -35 -37 c-73 -76 -123 -232
-111 -348 6 -56 11 -67 55 -116 93 -104 207 -157 341 -157 l78 0 0 -42 c0 -24
7 -423 16 -887 l16 -844 -21 -46 c-12 -25 -67 -194 -122 -376 l-102 -330 -209
-440 c-114 -242 -228 -469 -251 -505 -24 -36 -51 -87 -62 -114 -10 -27 -29
-65 -42 -84 -12 -19 -23 -40 -23 -47 0 -6 -10 -22 -21 -34 -14 -15 -32 -66
-51 -140 -25 -99 -38 -129 -87 -207 -78 -121 -79 -123 -42 -188 23 -40 28 -55
18 -59 -22 -8 -94 -109 -138 -192 -23 -44 -70 -122 -106 -172 -35 -51 -79
-117 -97 -148 l-34 -55 -146 217 c-92 138 -146 227 -146 243 0 14 -16 47 -35
74 -19 27 -35 54 -35 59 0 5 -58 151 -130 325 -71 175 -130 325 -130 335 0 9
-31 96 -70 192 -38 96 -70 185 -70 197 0 12 -20 94 -45 182 l-44 161 -15 295
c-16 313 -19 333 -75 432 -17 30 -31 65 -31 77 0 41 -30 92 -92 158 -136 142
-306 231 -502 264 l-75 13 247 183 c301 223 318 237 337 273 12 24 13 37 4 72
-9 32 -9 134 -2 398 17 590 71 1972 98 2530 14 289 32 727 40 973 13 382 31
658 61 943 10 91 -15 166 -76 226 -49 50 -53 52 -85 39z m5162 -1379 c7 -4 15
-33 19 -63 6 -52 5 -56 -15 -62 -30 -8 -51 27 -51 85 0 39 3 48 18 48 9 0 22
-4 29 -8z m-302 -124 c18 -75 22 -128 8 -139 -7 -7 -15 -10 -16 -8 -1 2 -12
25 -25 52 -13 28 -32 52 -48 59 l-25 12 43 22 c54 29 56 29 63 2z m-195 -106
c0 -24 9 -51 27 -76 l26 -39 -29 -24 c-39 -32 -64 -46 -64 -35 0 5 9 17 20 27
32 29 23 72 -22 108 l-37 30 -56 -52 c-31 -28 -61 -51 -67 -51 -18 0 -2 -90
22 -122 12 -16 19 -32 16 -35 -8 -9 -8 -9 -59 92 l-45 90 126 62 c70 34 130
62 135 62 4 1 7 -16 7 -37z m535 -129 c-59 -92 -58 -91 -482 -303 -341 -170
-535 -275 -635 -343 -19 -13 -23 -11 -32 19 -5 17 -1 24 26 34 18 7 132 67
254 133 151 82 263 151 355 219 137 101 339 214 449 249 80 25 86 24 65 -8z
m-1891 -462 c73 -24 175 -83 215 -125 l34 -35 -23 -38 c-13 -21 -25 -40 -27
-42 -2 -3 -13 5 -26 16 -15 15 -91 39 -242 79 -121 32 -222 59 -224 60 -2 2
18 28 45 60 l48 56 74 -7 c41 -4 98 -15 126 -24z m-1104 -64 l60 -34 228 33
c125 19 231 34 235 34 15 0 -57 -92 -78 -101 -11 -4 -59 -12 -106 -18 -48 -5
-115 -21 -150 -36 -57 -23 -64 -24 -80 -9 -16 15 -19 12 -40 -46 -12 -34 -35
-79 -50 -100 l-28 -39 41 -53 c65 -83 178 -191 281 -267 52 -39 126 -99 164
-134 193 -177 417 -271 674 -284 73 -4 123 -2 134 5 24 13 119 -20 154 -54
l25 -23 18 -1113 c12 -736 14 -1123 8 -1142 -24 -70 2 -136 54 -136 17 0 27
-9 36 -32 8 -18 20 -41 28 -50 8 -9 27 -81 44 -160 16 -79 53 -216 83 -305 87
-263 161 -409 425 -844 l239 -392 -212 -151 c-117 -84 -242 -173 -278 -199
l-66 -47 -86 171 c-48 94 -87 178 -87 188 0 9 -52 129 -116 267 -63 137 -131
290 -150 341 -66 176 -169 380 -279 553 -54 84 -70 131 -70 203 0 54 -3 61
-36 91 -20 18 -42 36 -50 39 -11 4 -9 10 9 26 26 22 22 27 -33 36 -22 4 -57
18 -78 31 l-37 24 -54 -82 c-108 -168 -187 -336 -256 -543 -18 -55 -65 -165
-105 -245 -40 -80 -164 -365 -275 -635 -249 -604 -341 -797 -418 -877 -33 -35
-64 -58 -76 -58 -33 0 -168 92 -235 161 -58 59 -73 90 -51 104 13 8 130 240
130 257 0 7 52 121 115 255 63 134 115 247 115 252 0 5 63 130 141 277 l140
269 166 480 c91 264 173 494 182 510 22 41 92 126 166 201 68 68 136 100 236
111 51 5 62 10 84 39 33 43 32 59 -8 99 -46 46 -87 52 -210 29 -92 -17 -105
-23 -151 -62 -44 -37 -51 -40 -57 -25 -3 10 -9 101 -13 203 -4 102 -11 250
-16 330 -5 80 -12 321 -16 535 -7 378 -6 394 16 520 15 88 31 144 47 172 l25
43 -23 37 c-13 21 -105 119 -204 218 -236 235 -435 470 -603 710 l-50 70 22
90 c13 52 33 107 49 130 15 22 27 47 27 57 0 26 57 77 96 84 19 3 37 4 40 1 3
-3 22 6 41 19 48 32 81 30 153 -9z m1659 -129 c5 -13 12 -42 16 -65 8 -51 -17
-94 -87 -149 -42 -32 -51 -35 -101 -32 l-55 3 47 103 c46 103 51 109 126 146
40 20 44 20 54 -6z m-1009 -29 c-19 -16 -36 -26 -39 -24 -8 9 52 65 62 58 6
-4 -4 -19 -23 -34z m94 -170 c166 -79 387 -139 514 -139 38 0 42 -2 42 -24 0
-13 6 -29 14 -35 11 -9 8 -30 -20 -128 -19 -64 -40 -125 -47 -137 -8 -12 -19
-38 -26 -58 -11 -33 -15 -37 -39 -32 -15 2 -68 10 -118 17 -86 13 -101 19
-260 105 -114 62 -186 109 -221 143 l-53 50 0 70 c0 60 26 177 55 252 7 17 9
16 23 -4 8 -12 70 -48 136 -80z m550 39 c3 -17 5 -32 4 -33 -2 -1 -25 6 -53
16 -39 13 -44 18 -24 18 15 1 32 8 39 16 19 22 27 18 34 -17z m-939 -45 c-11
-77 -16 -78 -70 -23 -34 35 -44 51 -34 54 25 9 53 14 83 15 28 1 28 1 21 -46z
m-270 -978 c22 -22 64 -60 93 -85 49 -42 51 -47 40 -69 -7 -13 -25 -33 -39
-44 l-27 -19 -143 53 c-78 30 -144 59 -146 65 -2 6 14 37 35 70 21 33 47 81
57 108 l19 49 35 -44 c20 -24 54 -62 76 -84z m-3080 -2275 c55 -22 92 -30 138
-30 127 0 270 -55 367 -140 l45 -39 -45 -1 c-25 0 -254 -9 -510 -20 -256 -11
-469 -20 -474 -20 -14 0 377 279 391 279 7 1 46 -12 88 -29z m5455 -2222 c69
-122 128 -235 131 -251 4 -16 20 -47 37 -70 16 -23 46 -74 65 -114 l36 -71
-53 -41 c-74 -58 -261 -251 -333 -346 -33 -44 -83 -99 -111 -123 l-51 -43 16
38 c51 124 234 423 259 423 7 0 21 12 31 26 16 25 15 30 -15 123 -59 178 -190
360 -344 476 -33 25 -52 45 -43 45 9 0 54 27 99 59 77 54 134 90 146 91 3 0
61 -100 130 -222z"/>
<path d="M1892 9678 c-28 -23 -43 -44 -48 -68 -12 -55 -9 -160 6 -217 12 -48
1 -235 -133 -2155 l-147 -2103 -175 -1080 c-168 -1033 -179 -1092 -247 -1355
-151 -587 -382 -1158 -676 -1673 -101 -175 -117 -214 -107 -256 11 -52 87
-102 142 -94 30 5 40 17 108 132 96 160 294 556 384 771 38 91 94 222 125 293
64 146 152 399 196 567 17 63 129 680 249 1370 l219 1255 46 640 c26 352 54
735 62 850 18 249 56 603 89 840 13 94 40 316 59 495 l35 325 3 670 3 670 -22
41 c-24 44 -95 114 -117 114 -8 0 -32 -15 -54 -32z"/>
<path d="M3836 9268 l-25 -23 44 -1164 c24 -640 45 -1164 47 -1165 2 -2 18
-13 36 -26 l34 -23 26 20 c20 15 28 30 30 61 2 23 -15 549 -38 1169 l-41 1128
-27 22 c-34 29 -54 29 -86 1z"/>
<path d="M8114 8847 c-156 -58 -210 -93 -220 -144 -6 -28 -3 -33 18 -38 14 -4
84 9 166 29 126 32 155 36 274 36 112 0 161 -6 308 -35 96 -19 183 -35 192
-35 25 0 33 42 14 77 -28 56 -229 131 -406 153 -155 19 -191 14 -346 -43z"/>
<path d="M2483 8883 c-12 -2 -36 -22 -54 -44 -57 -72 -59 -100 -155 -2014
l-88 -1751 20 -39 c50 -102 197 -117 219 -23 3 13 34 730 70 1593 64 1529 66
1576 96 1780 41 278 44 317 28 372 -12 45 -84 135 -105 132 -5 -1 -19 -4 -31
-6z"/>
<path d="M6615 8660 c-55 -20 -532 -238 -635 -290 -165 -83 -425 -253 -575
-375 -44 -36 -189 -151 -322 -255 -132 -105 -253 -206 -268 -225 -36 -48 -65
-116 -68 -161 -2 -33 2 -40 32 -57 l34 -20 54 59 c170 186 389 390 568 529
295 230 660 435 915 514 160 50 248 99 319 176 62 69 65 87 16 113 -16 8 -33
6 -70 -8z"/>
<path d="M7515 8603 c-16 -3 -95 -17 -175 -33 -245 -49 -472 -122 -760 -245
-69 -29 -140 -56 -158 -60 -79 -16 -353 -161 -525 -277 -218 -146 -355 -267
-653 -574 -132 -137 -259 -273 -282 -302 -51 -66 -94 -154 -120 -249 -24 -85
-19 -94 54 -96 48 -2 48 -2 63 41 10 27 101 146 246 324 261 320 328 394 464
512 243 210 435 329 751 467 470 204 737 286 1120 344 104 16 120 27 120 80 0
23 -8 37 -30 53 -28 21 -50 24 -115 15z"/>
<path d="M2910 5620 c-44 -11 -97 -67 -106 -114 -14 -76 67 -216 125 -216 66
0 139 160 111 244 -10 31 -74 98 -90 95 -3 -1 -21 -5 -40 -9z"/>
<path d="M3483 5309 c-48 -30 -77 -84 -76 -138 1 -83 68 -192 127 -207 49 -12
94 49 117 158 16 74 -14 148 -79 190 -35 23 -50 22 -89 -3z"/>
<path d="M2854 4535 c-51 -67 -68 -167 -41 -245 15 -41 83 -97 133 -106 48 -9
70 14 84 85 6 31 16 79 21 108 21 109 -37 193 -135 193 -28 0 -40 -7 -62 -35z"/>
<path d="M2081 4067 c-12 -15 -92 -683 -84 -704 3 -8 18 -20 34 -28 34 -18 74
-6 84 25 4 12 22 169 40 349 l34 326 -27 22 c-30 26 -64 30 -81 10z"/>
<path d="M5073 3823 c-32 -6 -65 -57 -70 -108 -5 -39 -3 -44 30 -69 84 -64
263 -383 352 -625 52 -142 98 -224 164 -290 46 -46 58 -49 93 -21 24 18 25 22
16 71 -21 114 -65 237 -180 499 -66 151 -123 281 -125 288 -4 9 11 12 55 12
99 0 109 46 25 120 -100 88 -260 142 -360 123z"/>
<path d="M3039 2873 c-43 -7 -72 -46 -77 -106 -8 -102 30 -177 108 -212 38
-17 45 -17 68 -4 36 20 64 80 69 152 4 53 2 67 -19 97 -27 39 -83 81 -107 79
-9 -1 -28 -4 -42 -6z"/>
<path d="M2252 2799 c-23 -7 -38 -20 -49 -44 -16 -33 -15 -45 5 -203 34 -257
27 -349 -38 -505 -50 -119 -42 -164 35 -198 64 -28 102 -10 155 72 73 113 82
158 90 459 8 294 3 335 -47 382 -53 49 -84 56 -151 37z"/>
<path d="M1820 2714 c-25 -23 -40 -45 -40 -60 0 -40 -76 -323 -135 -505 -127
-389 -253 -671 -398 -891 -115 -174 -121 -187 -107 -238 13 -47 64 -105 86
-96 9 3 26 6 38 6 60 0 350 482 466 775 60 150 281 798 286 839 9 63 -11 121
-58 167 -53 51 -84 52 -138 3z"/>
<path d="M2835 2082 c-31 -6 -58 -35 -179 -192 -241 -311 -533 -630 -819 -897
-103 -97 -192 -184 -197 -194 -16 -29 -12 -49 19 -80 51 -50 81 -43 220 59
286 209 506 424 841 824 228 272 257 319 239 381 -15 53 -84 108 -124 99z"/>
<path d="M4204 1997 c-24 -21 -26 -27 -19 -75 5 -39 12 -53 27 -58 15 -4 89
-145 279 -528 246 -497 262 -527 358 -655 55 -74 103 -136 105 -139 3 -2 19 6
37 18 29 22 31 26 25 68 -6 46 -20 74 -67 134 -34 42 -589 1129 -589 1152 0
26 -27 73 -52 90 -32 23 -73 20 -104 -7z"/>
<path d="M3896 970 c-51 -57 -49 -85 18 -184 30 -45 64 -91 78 -103 35 -33 91
-53 147 -53 66 0 87 26 78 100 -13 106 -84 207 -180 255 -72 36 -97 33 -141
-15z"/>
</g>
</svg>
