<?xml version="1.0" standalone="no"?>
<!DOCTYPE svg PUBLIC "-//W3C//DTD SVG 20010904//EN"
 "http://www.w3.org/TR/2001/REC-SVG-20010904/DTD/svg10.dtd">
<svg version="1.0" xmlns="http://www.w3.org/2000/svg"
 width="1024.000000pt" height="1024.000000pt" viewBox="0 0 1024.000000 1024.000000"
 preserveAspectRatio="xMidYMid meet">
<metadata>
Created by potrace 1.10, written by Peter Selinger 2001-2011
</metadata>
<g transform="translate(0.000000,1024.000000) scale(0.100000,-0.100000)"
fill="#000000" stroke="none">
<path d="M5150 7915 l-1275 -133 -213 30 c-118 16 -215 28 -218 26 -2 -2 0
-20 5 -39 5 -19 12 -46 15 -60 4 -20 44 -53 163 -136 176 -123 210 -143 248
-143 14 0 211 34 437 75 274 50 414 71 419 64 3 -6 14 -46 24 -91 16 -68 17
-87 6 -126 -7 -26 -72 -184 -145 -352 l-132 -305 -156 -18 -156 -18 -162 60
-162 60 -58 -29 c-32 -16 -61 -33 -63 -38 -3 -4 10 -28 29 -52 56 -72 121
-212 135 -292 11 -59 10 -297 -4 -1348 -14 -1088 -14 -1285 -3 -1340 25 -114
47 -151 133 -224 43 -36 86 -66 95 -66 9 0 25 12 36 28 21 29 52 122 52 157 0
20 18 22 933 101 512 45 933 81 934 80 0 0 8 -43 17 -95 26 -147 69 -226 143
-257 53 -23 68 -17 124 47 l53 61 28 217 27 216 1 1126 c0 1236 4 1339 55
1481 l25 70 -97 115 c-128 152 -184 193 -261 193 -62 0 -196 -28 -254 -54 -47
-20 -135 -44 -223 -61 -45 -8 -969 -94 -973 -91 -2 2 97 136 218 297 186 246
233 302 288 344 38 28 68 59 70 71 3 23 -77 107 -147 154 l-44 29 34 5 c19 3
342 21 719 41 524 27 700 33 750 25 36 -5 89 -10 118 -10 46 0 58 4 83 29 16
16 29 37 29 47 0 10 -31 59 -70 109 l-69 91 -93 32 c-61 21 -110 32 -143 31
-27 -1 -624 -61 -1325 -134z m909 -1331 c38 -48 42 -88 39 -384 l-3 -284 -915
-93 c-503 -50 -925 -92 -937 -92 l-23 -1 0 339 0 339 98 12 c753 91 1601 188
1654 189 61 1 68 -1 87 -25z m41 -1263 l0 -339 -47 -6 c-53 -7 -1793 -156
-1817 -156 -14 0 -16 37 -16 325 0 179 3 325 8 326 4 0 417 42 917 93 501 51
920 94 933 95 l22 1 0 -339z m0 -955 l0 -354 -47 -6 c-53 -7 -1793 -156 -1817
-156 -14 0 -16 40 -16 355 0 195 3 355 8 355 4 1 403 36 887 79 484 43 904 79
933 80 l52 1 0 -354z"/>
<path d="M4331 3419 c-23 -16 -41 -34 -41 -41 0 -6 12 -49 27 -95 l27 -83 -39
-82 c-37 -75 -65 -109 -340 -405 l-300 -322 -286 -214 c-157 -118 -292 -217
-300 -220 -11 -4 -11 -8 3 -22 16 -18 24 -16 175 39 127 46 213 87 435 210
l278 152 419 347 c434 359 518 438 507 480 -17 70 -92 121 -293 198 -256 99
-226 92 -272 58z"/>
<path d="M5456 3311 c-3 -4 32 -40 77 -79 296 -254 661 -694 898 -1083 118
-195 155 -229 248 -229 44 0 56 5 90 36 57 51 76 112 76 249 0 99 -3 116 -28
169 -94 202 -341 417 -777 678 -321 192 -560 298 -584 259z"/>
</g>
</svg>
