<?xml version="1.0" standalone="no"?>
<!DOCTYPE svg PUBLIC "-//W3C//DTD SVG 20010904//EN"
 "http://www.w3.org/TR/2001/REC-SVG-20010904/DTD/svg10.dtd">
<svg version="1.0" xmlns="http://www.w3.org/2000/svg"
 width="1024.000000pt" height="1024.000000pt" viewBox="0 0 1024.000000 1024.000000"
 preserveAspectRatio="xMidYMid meet">
<metadata>
Created by potrace 1.10, written by Peter Selinger 2001-2011
</metadata>
<g transform="translate(0.000000,1024.000000) scale(0.100000,-0.100000)"
fill="#000000" stroke="none">
<path d="M5710 9461 c-14 -4 -77 -24 -140 -45 -230 -76 -265 -80 -715 -81
-431 -1 -504 -7 -725 -60 -274 -67 -367 -112 -483 -235 -87 -93 -136 -181
-167 -304 -18 -71 -20 -112 -20 -390 0 -172 7 -396 15 -501 8 -107 28 -795 45
-1575 l30 -1385 31 -210 c40 -281 57 -362 85 -415 13 -25 35 -72 49 -106 18
-41 45 -79 83 -116 52 -51 67 -59 167 -91 231 -76 501 -130 711 -144 l111 -8
-326 -385 -325 -385 -1165 -985 c-1069 -904 -1177 -993 -1325 -1088 -89 -57
-169 -111 -179 -121 -60 -60 0 -206 78 -187 29 7 626 403 814 539 249 181 618
476 864 692 49 42 380 355 735 694 563 537 664 639 780 779 73 89 137 162 143
162 5 0 46 -34 91 -76 268 -247 606 -482 963 -669 135 -71 165 -92 298 -208
81 -71 147 -132 147 -136 0 -25 -112 -145 -193 -208 -32 -25 -121 -78 -199
-119 -140 -74 -250 -147 -299 -201 -55 -59 -152 -209 -171 -262 -11 -31 -22
-90 -25 -132 -12 -158 63 -295 277 -510 172 -173 343 -278 582 -357 l124 -41
854 -27 c954 -30 1100 -27 1188 18 50 26 82 74 82 124 0 41 -13 50 -91 69 -82
19 -195 19 -284 -1 -177 -39 -250 -44 -715 -44 l-455 0 -255 39 c-191 30 -284
49 -365 76 -145 48 -305 126 -435 212 -179 118 -249 207 -272 345 -13 79 1
174 32 217 11 16 20 35 20 43 0 26 85 85 238 166 84 45 187 105 229 134 160
111 348 313 373 402 24 88 -18 166 -180 326 -119 118 -234 196 -442 301 -345
174 -540 308 -794 544 -109 102 -111 105 -116 155 -5 52 -27 86 -63 100 -17 7
-15 9 15 14 19 3 226 26 460 51 234 25 454 52 490 61 92 22 189 76 251 140 30
30 70 64 90 74 48 25 143 130 174 191 14 27 32 75 40 106 8 32 30 94 49 138
31 70 50 158 150 695 l115 615 42 492 42 491 -42 850 c-38 766 -41 861 -30
968 11 107 10 122 -5 151 -18 36 -53 58 -107 68 -74 14 -99 -43 -120 -275 -10
-111 -9 -149 11 -340 12 -118 27 -268 34 -332 l12 -118 -65 5 c-37 3 -147 10
-246 15 -236 12 -780 105 -856 146 -81 45 -182 128 -245 203 -52 62 -65 85
-87 161 -33 108 -35 175 -8 204 23 25 131 402 131 457 0 21 -5 50 -10 65 -6
15 -8 29 -5 32 3 4 63 11 133 18 151 14 260 48 322 101 76 66 89 121 39 178
-39 44 -57 53 -89 46z m-640 -407 c0 -19 -5 -44 -10 -55 -6 -11 -33 -123 -59
-249 -27 -127 -53 -236 -59 -243 -5 -7 -15 -30 -22 -52 -43 -137 -252 -406
-414 -533 -92 -73 -642 -403 -715 -429 -35 -13 -65 -22 -66 -21 -10 11 -27
743 -22 949 4 217 8 263 26 318 55 174 188 271 424 306 100 16 567 41 800 44
l117 1 0 -36z m194 -1157 c44 -32 121 -78 172 -103 l93 -44 590 -87 591 -87 0
-321 0 -320 -797 -158 c-919 -181 -874 -173 -1104 -189 -273 -18 -579 7 -810
67 -52 14 -123 28 -158 31 -42 5 -65 12 -70 23 -5 9 -11 99 -15 201 -3 102 -9
220 -12 262 l-6 77 43 11 c170 43 403 142 557 238 127 79 431 323 524 421 46
48 101 114 123 148 l39 61 81 -86 c44 -47 116 -112 159 -145z m1404 -1614
c-20 -225 -38 -411 -38 -415 0 -5 -9 -8 -20 -8 -12 0 -34 -7 -50 -15 -15 -8
-403 -94 -862 -190 l-833 -176 -470 -19 c-258 -11 -508 -20 -553 -20 l-84 0 4
499 c1 275 5 502 8 505 5 5 424 -48 630 -81 145 -22 603 -25 750 -5 141 20
375 69 985 206 303 68 555 124 561 125 6 1 -3 -140 -28 -406z m-88 -715 c0 -7
-29 -168 -65 -358 -64 -347 -100 -486 -173 -680 -36 -96 -45 -111 -108 -173
-79 -79 -171 -143 -270 -188 -136 -61 -180 -67 -744 -105 -618 -41 -770 -42
-915 -1 -112 31 -220 80 -311 140 l-70 46 -36 98 c-66 180 -86 313 -114 786
l-7 117 69 0 c38 -1 218 -9 399 -19 l330 -18 990 183 c545 100 998 183 1008
183 9 1 17 -5 17 -11z m-1603 -1774 c-3 -3 -12 -4 -19 -1 -8 3 -5 6 6 6 11 1
17 -2 13 -5z"/>
<path d="M5981 3544 c-2 -18 32 -119 36 -109 2 6 -5 35 -16 65 -11 30 -20 50
-20 44z"/>
</g>
</svg>
