<?xml version="1.0" standalone="no"?>
<!DOCTYPE svg PUBLIC "-//W3C//DTD SVG 20010904//EN"
 "http://www.w3.org/TR/2001/REC-SVG-20010904/DTD/svg10.dtd">
<svg version="1.0" xmlns="http://www.w3.org/2000/svg"
 width="1024.000000pt" height="1024.000000pt" viewBox="0 0 1024.000000 1024.000000"
 preserveAspectRatio="xMidYMid meet">
<metadata>
Created by potrace 1.10, written by Peter Selinger 2001-2011
</metadata>
<g transform="translate(0.000000,1024.000000) scale(0.100000,-0.100000)"
fill="#000000" stroke="none">
<path d="M7985 9744 c-5 -2 -1321 -105 -2923 -229 -1603 -124 -2923 -230
-2934 -236 -24 -13 -48 -67 -48 -109 0 -34 28 -67 62 -74 62 -14 289 -36 423
-42 205 -9 363 4 1216 96 405 44 748 80 761 80 26 0 26 0 32 -117 3 -65 9
-167 12 -226 l6 -109 -79 7 c-102 9 -215 -20 -406 -103 -581 -255 -1104 -696
-1514 -1277 -84 -119 -167 -253 -216 -352 -130 -257 -242 -623 -263 -853 -5
-56 -2 -89 10 -129 21 -70 21 -67 -14 -87 -36 -22 -70 -96 -77 -168 -2 -28 11
-186 30 -351 20 -165 34 -301 32 -303 -1 -2 -37 1 -80 7 -65 8 -87 6 -148 -11
-135 -37 -248 -110 -348 -225 -26 -29 -81 -120 -124 -201 l-77 -147 -17 -129
c-25 -187 -5 -287 83 -410 84 -117 258 -222 451 -272 91 -23 114 -25 253 -22
103 3 151 1 148 -7 -49 -112 -45 -202 18 -433 33 -119 141 -325 258 -492 75
-107 116 -151 279 -305 175 -165 207 -190 373 -296 l182 -115 380 -149 c208
-81 416 -160 460 -175 l82 -26 -38 -41 c-21 -22 -43 -58 -49 -79 -6 -22 -29
-108 -52 -192 -23 -83 -46 -152 -51 -152 -5 0 -18 5 -28 10 -11 6 -79 14 -152
19 -154 10 -67 26 -803 -147 l-470 -111 -355 -146 c-195 -80 -363 -153 -373
-163 -61 -55 -29 -142 53 -142 10 0 61 23 112 50 57 31 228 100 447 180 295
108 393 139 585 185 127 31 239 58 248 61 15 4 16 -1 11 -43 -5 -43 -2 -53 22
-81 35 -42 66 -57 138 -71 77 -14 269 -113 378 -196 115 -86 253 -232 334
-355 74 -111 131 -167 181 -176 47 -9 66 -2 89 32 l20 30 45 -28 c24 -15 50
-28 57 -28 7 0 45 30 85 66 125 112 267 198 435 262 l52 20 47 -122 c51 -133
82 -183 120 -192 28 -7 49 7 70 48 13 26 13 36 -7 105 -11 43 -23 83 -26 90
-3 7 1 13 9 13 8 0 60 -49 116 -109 143 -153 172 -163 324 -112 l85 29 478
408 c278 237 491 426 509 452 17 24 36 51 41 59 27 37 493 -128 881 -311 106
-51 224 -122 440 -266 55 -38 123 -79 150 -93 78 -39 195 -78 215 -72 22 7 49
54 49 83 0 33 -38 71 -78 78 -20 4 -73 31 -116 62 -99 69 -663 374 -856 463
-127 59 -192 80 -514 169 -298 82 -377 101 -410 96 -42 -6 -162 13 -226 35
l-35 12 -52 221 c-29 122 -55 242 -58 267 l-6 46 54 29 c29 16 190 124 357
239 263 182 322 227 433 335 231 223 394 445 527 715 103 208 160 374 160 464
l0 66 218 114 c208 110 223 119 360 239 195 169 277 288 332 483 27 96 38 284
20 360 -47 201 -201 312 -409 296 -143 -12 -297 -64 -388 -133 -24 -19 -33
-21 -33 -10 0 8 18 163 40 345 22 182 40 370 40 418 0 115 -24 257 -60 364
-17 48 -30 107 -30 134 0 38 -6 54 -30 82 -19 22 -30 45 -30 64 0 47 -61 332
-74 349 -7 8 -41 140 -75 293 -55 245 -71 299 -132 450 -73 180 -107 243 -197
367 -135 185 -278 332 -470 486 -162 130 -212 164 -331 223 -210 106 -382 149
-641 162 -290 13 -653 14 -795 2 -116 -9 -148 -16 -205 -40 -18 -8 -154 -42
-157 -39 -5 5 -7 406 -1 411 3 3 719 66 1590 139 1215 103 1592 137 1615 149
37 20 63 57 70 103 5 29 1 40 -22 64 -28 29 -71 50 -90 44z m-1705 -1028 c200
-55 378 -141 507 -244 39 -31 131 -122 204 -202 72 -80 167 -184 211 -232 72
-79 76 -85 41 -66 l-39 21 -52 -34 c-28 -19 -52 -41 -52 -49 -1 -8 -11 14 -23
50 -28 84 -64 130 -129 165 -66 36 -163 41 -197 11 -51 -46 0 -126 87 -136
l47 -5 88 -245 c114 -319 152 -443 187 -620 38 -192 48 -287 64 -655 19 -406
12 -499 -61 -833 -4 -15 -19 -28 -45 -39 -61 -24 -75 -71 -38 -130 25 -42 93
-87 118 -79 37 12 131 248 168 421 24 111 27 264 11 665 -19 470 -36 577 -168
1039 -50 172 -89 315 -87 316 2 1 21 -5 43 -15 l41 -17 88 -319 c59 -213 98
-376 118 -494 29 -174 29 -178 43 -870 8 -382 14 -712 14 -732 1 -28 -3 -38
-15 -38 -23 0 -84 -64 -84 -89 0 -33 24 -71 73 -120 l45 -43 -31 -74 c-26 -63
-29 -79 -21 -111 8 -35 12 -38 58 -46 27 -4 53 -4 57 0 20 20 104 187 140 278
23 59 70 226 115 410 41 171 76 315 78 320 2 6 1 -48 -1 -120 -3 -81 -17 -209
-38 -340 -19 -115 -42 -266 -50 -334 -11 -86 -23 -135 -38 -161 l-21 -38 24
-52 c25 -53 48 -70 95 -70 28 0 55 34 55 69 0 58 103 178 206 240 89 55 158
74 280 79 98 4 115 2 152 -17 24 -12 54 -39 69 -63 27 -40 28 -47 31 -190 l3
-149 -47 -87 c-166 -310 -403 -521 -707 -634 -119 -44 -136 -53 -174 -96 -35
-38 -43 -54 -43 -85 0 -22 8 -50 19 -66 l19 -26 -123 -275 c-68 -151 -136
-295 -152 -320 -124 -199 -410 -511 -603 -660 -328 -252 -711 -453 -1100 -578
-118 -38 -709 -149 -719 -135 -15 23 -67 36 -383 93 -493 90 -842 194 -1138
341 -402 199 -718 471 -937 804 -48 74 -70 124 -121 270 -64 187 -86 299 -71
365 17 69 11 100 -23 134 -23 23 -32 40 -30 58 2 18 -6 33 -31 55 l-34 30
-184 7 c-166 6 -194 10 -284 37 -55 17 -116 40 -137 50 -61 31 -136 113 -171
186 -29 61 -32 77 -32 158 1 77 6 102 32 172 86 222 211 383 348 447 119 57
283 38 330 -37 23 -36 63 -47 102 -26 26 14 30 47 9 94 -10 24 -10 39 0 78 8
31 9 58 4 75 -5 15 -18 108 -30 207 -11 99 -23 199 -26 223 -5 33 -3 42 8 42
8 0 23 9 34 21 16 18 20 44 26 182 5 129 12 182 33 257 14 52 39 172 55 265
36 211 40 223 140 425 44 91 78 156 75 145 -43 -137 -72 -294 -121 -647 -30
-222 -58 -448 -61 -503 -13 -228 66 -584 138 -624 42 -24 97 -2 132 51 49 75
26 162 -53 203 -24 13 -26 21 -42 162 l-17 149 44 380 c41 356 48 397 111 659
37 154 77 304 90 332 34 78 89 156 160 230 84 86 85 121 7 162 -45 23 -147
-45 -196 -132 -19 -34 -22 -36 -29 -17 -12 32 64 131 276 360 104 113 196 212
204 220 8 8 -6 -24 -32 -72 -40 -75 -62 -143 -151 -463 -143 -518 -167 -654
-199 -1130 l-25 -370 19 -294 c16 -242 23 -299 38 -325 19 -32 75 -76 98 -76
23 0 73 50 84 86 11 32 9 41 -17 92 -22 42 -32 77 -36 132 -3 41 -11 129 -18
195 -27 280 25 882 109 1263 25 118 48 210 49 205 2 -5 -17 -149 -42 -319
l-46 -309 6 -205 c7 -243 78 -889 103 -929 13 -21 19 -23 63 -18 l48 6 43 -79
c57 -105 110 -137 144 -86 22 35 44 123 44 182 0 58 -21 94 -68 113 -30 12
-30 13 -61 209 -53 331 -61 553 -30 827 17 146 175 889 220 1030 72 230 205
522 275 606 48 58 43 103 -16 134 -38 20 -65 9 -113 -44 -52 -58 -184 -331
-241 -499 l-49 -143 -33 32 c-34 33 -34 33 -68 16 l-34 -16 37 92 c21 51 44
102 51 113 16 26 61 54 87 54 32 0 73 42 80 83 7 45 -20 81 -69 91 -17 3 -29
8 -27 10 2 2 99 70 214 151 294 206 503 305 764 361 79 17 85 17 113 1 37 -21
81 -22 112 -2 30 20 313 73 355 67 23 -3 41 2 60 16 26 19 55 21 412 35 520
21 675 17 799 -17z m1173 -1076 c60 -133 157 -477 139 -489 -6 -4 -4 -39 4
-91 7 -47 16 -152 18 -235 l5 -150 -13 115 c-23 190 -43 290 -132 636 -79 311
-89 353 -81 343 2 -2 29 -60 60 -129z m-4047 -112 c-7 -29 -28 -117 -46 -195
-18 -79 -35 -141 -37 -139 -2 2 10 81 26 176 20 113 36 179 47 191 10 11 18
19 20 19 1 0 -3 -24 -10 -52z m-249 -350 c-3 -7 -5 -2 -5 12 0 14 2 19 5 13 2
-7 2 -19 0 -25z m160 -30 c-3 -7 -5 -2 -5 12 0 14 2 19 5 13 2 -7 2 -19 0 -25z
m4333 -658 c16 0 18 -6 14 -52 -2 -29 -9 -161 -15 -293 -5 -132 -12 -241 -15
-244 -2 -2 -4 77 -4 176 0 99 -2 267 -4 374 -2 107 -2 159 1 117 3 -68 6 -78
23 -78z m-1450 -4589 c0 -5 9 -74 20 -153 31 -215 102 -370 161 -355 12 3 16
0 12 -9 -3 -8 13 -36 36 -62 35 -42 53 -54 127 -81 98 -35 108 -36 149 -16 33
16 -7 -23 -200 -194 -232 -206 -575 -466 -741 -564 -6 -3 -78 45 -159 108
-100 76 -160 116 -184 120 -20 4 -40 9 -44 12 -10 6 90 75 188 128 311 170
758 431 775 452 11 14 20 34 20 44 0 21 -48 69 -68 69 -14 0 -150 -75 -717
-397 -317 -179 -365 -210 -400 -253 -22 -27 -44 -50 -50 -50 -23 0 -72 35
-240 171 -234 190 -284 228 -348 267 -74 44 -222 104 -263 105 -24 1 -34 6
-34 17 0 17 88 283 114 342 19 44 21 91 5 120 -11 20 -9 21 22 14 19 -4 131
-23 249 -42 118 -20 222 -42 230 -49 10 -9 75 -17 206 -24 182 -9 195 -9 301
14 254 54 477 125 703 224 122 54 130 56 130 42z m-1851 -836 c114 -65 204
-128 356 -250 l204 -162 -182 -146 c-100 -81 -188 -156 -195 -167 -7 -11 -16
-20 -20 -20 -4 0 -18 30 -30 68 -18 54 -38 86 -106 168 -198 236 -475 429
-759 528 l-97 34 87 13 c56 9 151 13 260 11 167 -3 172 -2 198 21 28 23 28 23
80 6 29 -9 121 -56 204 -104z"/>
<path d="M5041 8642 c-69 -12 -152 -158 -166 -293 -7 -63 -9 -67 -35 -73 -42
-8 -84 -51 -138 -143 -82 -136 -112 -248 -186 -693 -59 -354 -69 -433 -94
-760 -28 -359 -28 -369 -15 -648 14 -318 22 -356 83 -387 32 -17 86 -17 123
-1 15 7 17 2 17 -45 0 -106 31 -159 91 -159 18 0 34 10 51 33 l24 32 -23 245
c-30 316 -27 569 11 835 14 99 70 502 126 895 55 393 109 758 121 810 21 92
46 152 88 215 24 34 27 74 9 97 -21 26 -61 45 -87 40z m-302 -1072 c-47 -285
-68 -458 -100 -790 -37 -398 -39 -439 -34 -650 3 -124 8 -244 11 -267 l5 -42
-30 12 -31 11 0 91 c0 49 25 423 54 830 61 827 64 851 153 1103 14 40 27 72
29 70 1 -2 -24 -167 -57 -368z"/>
<path d="M5320 8637 c-14 -7 -31 -24 -39 -38 -13 -23 -13 -33 2 -80 32 -108
32 -111 -14 -139 -45 -27 -110 -105 -133 -161 -21 -50 -70 -249 -100 -404 -41
-214 -56 -365 -80 -793 -21 -383 -21 -427 -9 -757 7 -201 19 -398 29 -463 14
-100 19 -114 43 -132 14 -11 35 -29 46 -40 51 -50 135 -23 135 44 0 17 -6 40
-14 51 -12 18 -8 56 29 300 24 154 73 476 109 715 37 239 67 442 69 450 1 8 2
-221 2 -510 0 -462 2 -544 20 -685 20 -161 21 -198 10 -290 -5 -46 -3 -54 34
-110 37 -55 39 -60 22 -67 -50 -18 -65 -87 -29 -133 20 -25 25 -27 79 -23 93
7 126 51 149 203 7 49 150 1959 171 2296 4 66 148 -679 170 -881 7 -63 12
-214 12 -335 0 -201 -4 -246 -42 -525 -22 -168 -44 -322 -47 -342 -5 -35 -9
-38 -38 -38 -45 0 -76 -25 -76 -60 0 -17 12 -59 26 -95 l26 -65 42 0 c22 0 58
-3 78 -6 36 -6 38 -5 57 37 15 32 35 146 72 419 93 685 91 827 -21 1467 l-70
401 -54 120 c-29 66 -72 146 -95 178 -22 31 -41 63 -41 71 0 26 -39 90 -70
117 -38 31 -57 33 -85 6 l-22 -21 -13 31 c-15 35 -55 70 -81 70 -35 0 -55 -44
-75 -171 l-19 -124 -6 75 c-4 41 -7 118 -8 171 -2 143 -32 222 -98 261 -24 14
-33 15 -53 5z m372 -642 c10 -198 10 -207 -51 -1000 -34 -440 -62 -814 -62
-830 -1 -17 -9 78 -18 210 -24 342 -7 878 44 1380 20 193 40 382 47 420 9 61
12 67 20 45 5 -14 14 -115 20 -225z m-485 -736 l-112 -944 -3 210 c-2 162 4
299 28 600 33 418 49 565 82 715 20 94 107 374 114 367 2 -1 -47 -428 -109
-948z"/>
<path d="M4572 8533 c-18 -7 -83 -105 -143 -217 -45 -85 -62 -137 -134 -400
-45 -165 -136 -527 -201 -803 -65 -276 -120 -501 -121 -499 -8 8 100 1033 117
1116 27 128 65 255 112 375 30 77 48 108 78 135 53 47 62 89 25 119 -33 25
-100 28 -133 5 -12 -8 -45 -61 -73 -117 -28 -56 -53 -104 -55 -106 -2 -2 -16
2 -31 10 -14 8 -35 12 -47 11 -35 -6 -84 -41 -105 -76 -37 -59 -228 -738 -266
-944 -34 -180 -36 -201 -51 -632 -16 -457 -14 -621 11 -795 21 -147 54 -287
73 -308 23 -26 80 -19 103 13 18 24 18 29 -2 160 -19 125 -20 179 -19 700 1
570 6 675 40 852 18 91 201 741 207 734 2 -1 -8 -58 -22 -126 -26 -128 -59
-366 -70 -505 -4 -44 -24 -271 -47 -505 -53 -568 -53 -743 1 -1006 27 -126 54
-191 109 -259 63 -79 100 -89 150 -39 27 27 33 39 28 61 -12 55 -23 695 -15
820 11 157 33 300 63 423 14 52 92 361 174 687 l150 592 77 168 c43 92 86 179
96 192 25 32 34 84 19 112 -24 46 -62 67 -98 52z m-605 -645 c-3 -8 -6 -5 -6
6 -1 11 2 17 5 13 3 -3 4 -12 1 -19z"/>
<path d="M6093 8522 c-26 -4 -63 -47 -63 -73 0 -9 11 -30 24 -46 18 -22 72
-105 112 -175 2 -3 -11 -2 -29 4 -28 9 -41 6 -85 -16 -28 -14 -59 -37 -67 -50
-19 -29 -13 -78 16 -125 15 -25 25 -31 55 -31 19 0 44 5 55 10 17 10 22 4 48
-52 45 -100 159 -454 180 -559 31 -150 51 -321 58 -483 7 -164 -15 -706 -29
-706 -4 0 -8 26 -8 58 0 72 -14 94 -64 96 -30 1 -42 -4 -57 -24 -25 -34 -39
-153 -29 -237 18 -141 30 -175 75 -220 37 -38 48 -43 87 -43 67 0 92 24 124
124 24 72 32 86 58 97 28 13 32 21 48 99 9 47 17 108 18 137 0 29 8 103 17
165 14 87 18 175 17 388 l0 275 -42 220 c-69 357 -139 597 -242 827 l-48 108
33 0 c30 0 40 -8 92 -78 63 -84 141 -227 166 -307 9 -27 53 -219 97 -425 l81
-375 30 -370 c42 -507 34 -659 -47 -915 -22 -72 -28 -82 -59 -94 -62 -26 -87
-122 -42 -164 55 -51 110 -48 161 9 67 73 98 152 125 318 54 321 54 501 -4
1056 -43 421 -61 538 -111 740 -38 152 -121 392 -161 465 -62 114 -160 223
-255 284 -33 22 -76 14 -117 -20 l-29 -24 -26 38 c-41 59 -116 102 -163 94z"/>
<path d="M5945 5346 c-60 -13 -144 -36 -185 -51 -41 -15 -140 -50 -220 -77
-156 -54 -190 -75 -190 -120 0 -33 39 -78 67 -78 10 0 122 30 248 67 l230 67
161 4 c193 5 407 -11 489 -36 106 -33 199 -86 299 -169 38 -32 78 -42 102 -25
19 13 44 56 44 77 0 12 -11 32 -25 45 -14 13 -25 33 -25 44 0 28 -33 81 -62
100 -50 32 -292 107 -456 141 -211 43 -313 45 -477 11z"/>
<path d="M3955 5314 c-104 -19 -253 -52 -329 -74 -149 -43 -341 -114 -366
-135 -8 -7 -33 -20 -54 -29 -72 -30 -106 -63 -106 -102 0 -40 2 -41 95 -53 55
-7 78 -5 105 6 48 21 306 108 410 138 289 86 738 99 967 28 l82 -25 30 22 c52
36 51 94 -2 121 -12 7 -28 20 -35 30 -31 44 -276 98 -472 104 -121 4 -155 0
-325 -31z"/>
<path d="M5992 4735 c-57 -25 -79 -110 -41 -159 25 -32 59 -34 106 -5 64 40
81 116 33 150 -37 26 -61 30 -98 14z"/>
<path d="M8140 4743 c-26 -9 -50 -47 -50 -79 0 -31 34 -74 59 -74 7 0 -2 -20
-19 -45 -75 -110 -83 -173 -28 -220 36 -31 53 -31 81 -2 35 34 127 221 133
269 10 78 -40 136 -131 151 -16 3 -37 3 -45 0z"/>
<path d="M3915 4733 c-32 -8 -74 -54 -86 -94 -23 -75 25 -139 103 -139 51 0
107 74 110 145 1 40 -15 63 -59 82 -34 14 -35 14 -68 6z"/>
<path d="M1869 4676 c-94 -64 -147 -264 -104 -387 23 -64 57 -110 105 -144 36
-25 50 -29 98 -27 110 5 122 55 32 132 -71 62 -96 116 -86 185 8 61 22 85 50
85 43 0 82 71 65 118 -10 27 -65 62 -99 62 -14 0 -42 -11 -61 -24z"/>
<path d="M4738 4253 c-34 -8 -59 -90 -74 -242 -7 -79 -11 -154 -8 -167 5 -19
-6 -37 -57 -93 -49 -53 -69 -84 -86 -134 -28 -79 -28 -109 -4 -163 21 -46 64
-81 116 -95 74 -21 127 50 91 119 -9 17 -25 36 -36 42 -40 21 -26 61 49 139
74 76 98 122 83 162 -10 24 3 146 27 260 13 63 5 98 -32 137 -28 30 -47 40
-69 35z"/>
<path d="M5216 4217 c-13 -10 -24 -44 -37 -123 -24 -138 -24 -161 1 -226 17
-44 32 -61 83 -98 34 -25 84 -54 110 -64 51 -19 87 -62 87 -103 0 -12 -9 -45
-20 -73 -11 -28 -20 -63 -20 -79 0 -39 37 -71 83 -71 35 0 38 3 77 73 35 63
40 80 40 137 0 79 -30 150 -82 196 -41 36 -160 104 -181 104 -13 0 -16 23 -19
141 l-3 141 -33 29 c-35 32 -59 36 -86 16z"/>
<path d="M5155 3652 c-27 -6 -55 -32 -55 -51 0 -27 38 -80 72 -101 42 -25 99
-26 121 -2 20 22 22 80 4 103 -29 37 -96 62 -142 51z"/>
<path d="M4879 3636 c-56 -28 -61 -119 -9 -157 40 -29 71 -32 108 -9 27 17 32
25 32 59 0 71 -77 134 -131 107z"/>
<path d="M5893 2712 c-10 -10 -37 -44 -60 -75 -75 -98 -182 -176 -313 -227
-42 -17 -113 -27 -310 -46 -253 -23 -255 -23 -345 -5 -161 33 -326 112 -438
211 -53 47 -97 55 -141 27 -47 -32 -36 -62 57 -152 81 -79 171 -136 269 -171
41 -14 642 -64 779 -64 91 0 239 55 364 135 69 44 166 135 220 208 38 49 45
67 43 95 -5 59 -89 102 -125 64z"/>
</g>
</svg>
