<?xml version="1.0" standalone="no"?>
<!DOCTYPE svg PUBLIC "-//W3C//DTD SVG 20010904//EN"
 "http://www.w3.org/TR/2001/REC-SVG-20010904/DTD/svg10.dtd">
<svg version="1.0" xmlns="http://www.w3.org/2000/svg"
 width="1024.000000pt" height="1024.000000pt" viewBox="0 0 1024.000000 1024.000000"
 preserveAspectRatio="xMidYMid meet">
<metadata>
Created by potrace 1.10, written by Peter Selinger 2001-2011
</metadata>
<g transform="translate(0.000000,1024.000000) scale(0.100000,-0.100000)"
fill="#000000" stroke="none">
<path d="M4420 9810 c-475 -36 -733 -68 -823 -102 -15 -6 -44 -31 -66 -57
l-38 -46 -53 -640 -53 -640 2 -410 c2 -225 8 -579 15 -785 7 -206 9 -406 5
-445 -18 -161 -22 -314 -9 -377 31 -157 128 -262 334 -359 195 -91 315 -101
918 -75 442 19 540 25 558 36 17 11 5 57 -19 69 -10 6 -258 17 -557 26 -567
16 -642 22 -766 61 -149 47 -177 65 -246 157 l-63 83 0 160 c-1 105 5 188 15
244 15 76 16 203 10 1200 -6 1086 -5 1118 14 1242 12 70 26 137 33 149 7 13
12 70 13 141 1 96 4 119 16 123 125 37 706 80 1405 105 574 20 1677 9 2030
-21 66 -5 156 -12 200 -15 44 -3 110 -15 148 -27 l67 -22 0 -75 c-2 -328 -26
-756 -95 -1635 -102 -1321 -111 -1424 -138 -1545 l-23 -105 -72 -38 c-119 -62
-247 -79 -1002 -127 -355 -22 -658 -46 -673 -52 -20 -8 -31 -8 -39 0 -7 7 13
25 65 61 86 58 117 92 117 131 0 24 -24 55 -58 74 -15 9 -233 -128 -279 -176
-62 -66 -59 -136 8 -191 19 -16 75 -62 124 -103 67 -55 98 -74 120 -74 17 0
54 -3 83 -6 49 -6 52 -5 52 15 0 12 -14 43 -31 67 -17 25 -29 47 -27 48 1 2
273 20 603 40 564 35 611 39 785 73 102 19 196 42 210 51 14 9 41 24 60 33 50
23 85 64 118 139 37 81 52 200 58 470 5 232 16 364 49 605 19 131 43 464 90
1215 36 569 66 1048 68 1064 10 80 -36 160 -110 191 -26 11 -321 26 -1267 65
-678 27 -1268 49 -1312 49 -43 -1 -302 -18 -574 -39z"/>
<path d="M6843 9567 c-41 -68 -115 -137 -189 -176 -33 -17 -66 -35 -74 -40 -8
-5 -34 -17 -57 -26 -62 -26 -86 -58 -148 -190 -52 -113 -55 -124 -55 -199 0
-63 4 -85 22 -113 23 -39 70 -63 119 -63 17 0 52 -7 78 -16 43 -15 50 -15 102
0 71 21 89 52 70 117 -7 23 -10 44 -7 47 12 12 112 -20 137 -44 37 -35 161
-56 233 -40 50 12 267 135 315 179 33 31 51 78 51 134 0 64 -16 85 -101 129
-85 45 -157 108 -209 183 -21 31 -51 68 -66 82 -49 46 -126 89 -159 89 -26 0
-35 -7 -62 -53z m204 -294 c38 -37 95 -77 139 -100 41 -21 73 -41 71 -45 -4
-13 -190 -148 -204 -148 -8 0 -30 7 -50 15 -20 8 -110 26 -200 40 -154 23
-165 24 -203 9 -49 -20 -80 -57 -80 -95 0 -23 -5 -29 -21 -29 -15 0 -19 5 -15
15 7 19 32 110 40 147 10 43 66 99 131 130 33 15 65 28 70 28 6 0 55 36 110
79 l100 79 24 -31 c13 -18 53 -60 88 -94z"/>
<path d="M6810 8731 c-71 -56 -77 -57 -135 -36 -63 22 -115 19 -161 -11 -53
-34 -74 -76 -129 -259 -46 -148 -47 -151 -101 -202 -54 -53 -56 -53 -118 -53
-42 0 -67 -5 -75 -14 -7 -8 -44 -30 -84 -50 -40 -19 -99 -58 -132 -85 -183
-153 -236 -186 -379 -241 l-139 -53 -201 7 c-222 7 -264 1 -354 -53 -26 -16
-78 -41 -117 -56 -63 -24 -75 -34 -127 -100 -32 -40 -60 -80 -64 -89 -8 -20
209 -314 240 -326 62 -22 115 -21 191 5 103 36 173 42 229 21 43 -17 45 -16
242 28 109 24 200 49 202 55 4 11 33 17 125 25 31 2 57 1 57 -3 0 -4 -26 -15
-57 -24 -42 -11 -70 -27 -100 -58 -24 -23 -43 -47 -43 -54 0 -23 -57 -65 -115
-85 -54 -19 -80 -21 -241 -19 l-182 3 -110 -103 c-131 -122 -165 -181 -160
-277 l3 -57 85 -53 c93 -59 242 -114 305 -114 51 1 120 32 165 75 59 57 242
116 450 146 188 27 274 99 299 251 10 59 9 72 -9 118 -11 28 -20 67 -20 88 -1
52 -33 118 -70 141 -17 10 -50 22 -73 26 l-42 8 53 10 c52 10 54 9 87 -23 19
-19 35 -41 35 -49 0 -9 14 -36 30 -61 18 -27 30 -58 30 -78 0 -50 32 -206 44
-214 6 -4 11 -36 11 -72 0 -72 18 -107 73 -139 52 -30 93 -16 144 52 38 50 47
73 85 219 23 90 44 166 47 169 3 3 20 -4 39 -16 31 -19 44 -21 108 -15 90 8
105 15 123 59 8 19 33 46 56 62 117 78 168 152 177 252 3 34 -7 142 -26 276
-38 272 -42 445 -11 545 11 36 20 80 20 98 0 18 5 43 12 55 15 29 35 245 27
287 -7 35 -71 100 -98 100 -9 0 -25 3 -36 6 -14 3 -40 -10 -85 -45z m-169
-207 c38 -46 114 -56 168 -23 18 11 36 18 38 15 3 -3 -7 -70 -22 -148 -42
-216 -43 -329 -6 -654 24 -205 29 -278 21 -300 -12 -35 -102 -117 -179 -165
l-53 -32 -19 24 c-10 13 -19 26 -19 29 0 11 -56 37 -90 43 -29 4 -41 0 -69
-25 -42 -37 -60 -95 -68 -213 -3 -52 -12 -103 -22 -120 l-15 -30 -8 75 c-23
213 -45 276 -129 365 -61 65 -140 107 -201 107 -24 0 -230 -31 -458 -70 -228
-39 -445 -75 -482 -80 -37 -6 -93 -22 -124 -36 l-58 -27 -73 73 c-61 61 -73
78 -73 105 0 31 2 33 38 33 42 0 111 29 140 58 28 28 165 49 372 57 199 8 286
25 395 80 63 31 279 184 362 256 21 18 49 30 80 34 26 4 77 16 113 27 216 67
370 268 370 484 l0 74 29 0 c16 0 34 -7 42 -16z m-726 -1572 c17 -41 17 -46 2
-77 -9 -19 -27 -41 -40 -49 -13 -9 -101 -32 -196 -51 -190 -38 -292 -76 -447
-165 l-88 -51 -96 36 c-52 21 -101 40 -108 44 -14 8 17 56 97 149 l45 52 175
1 c173 0 177 1 258 32 65 25 100 48 171 109 75 64 97 78 136 83 25 4 49 12 53
19 4 6 11 -11 14 -39 4 -27 15 -70 24 -93z"/>
<path d="M4093 7350 c-75 -25 -176 -91 -217 -143 -27 -34 -31 -47 -31 -101 l0
-62 92 -100 c56 -60 93 -107 93 -120 0 -12 7 -41 15 -64 18 -50 20 -127 4
-167 -19 -48 -14 -162 10 -228 22 -63 89 -141 128 -151 12 -3 24 -12 27 -20 8
-21 68 -44 112 -44 30 0 44 7 74 40 20 22 42 40 48 40 6 0 19 14 29 30 9 17
26 30 36 30 45 0 87 33 122 94 57 102 68 166 60 341 -5 105 -3 169 5 213 l13
63 -30 32 c-16 18 -71 96 -122 173 l-92 141 -47 7 c-26 4 -96 9 -157 11 -92 5
-120 2 -172 -15z m232 -161 c117 -23 145 -39 145 -85 0 -13 15 -38 35 -58 l35
-35 0 -93 c0 -51 -7 -169 -15 -263 -8 -93 -15 -176 -15 -182 0 -7 -12 -13 -27
-13 -40 0 -123 -41 -161 -79 -17 -18 -39 -31 -48 -29 -8 2 -29 34 -46 72 l-30
70 17 104 c20 121 16 155 -27 260 -26 64 -45 91 -111 158 l-79 82 43 25 c117
67 155 87 164 87 6 0 60 -10 120 -21z"/>
<path d="M4685 4774 c-284 -46 -367 -63 -505 -105 -411 -127 -463 -148 -730
-301 -102 -58 -261 -147 -354 -199 -140 -78 -187 -110 -273 -188 l-105 -94
-61 61 c-83 81 -216 168 -299 193 l-67 21 -180 -22 c-99 -11 -227 -25 -285
-30 -103 -9 -144 -22 -195 -61 -38 -30 -48 -24 -61 43 -10 51 -19 70 -51 101
-38 38 -40 39 -98 35 -50 -4 -66 -10 -105 -42 l-46 -37 0 -92 c0 -69 5 -106
21 -147 l21 -54 -38 -31 c-98 -78 -269 -300 -292 -380 -32 -115 -21 -267 28
-372 34 -74 134 -208 187 -252 82 -68 203 -111 312 -111 41 0 52 -5 85 -39 20
-21 58 -49 84 -62 42 -22 60 -24 172 -24 82 0 133 -5 147 -13 13 -7 38 -36 57
-66 63 -99 120 -123 202 -86 93 40 135 101 136 195 1 44 1 44 42 49 23 3 88 8
145 11 86 5 112 11 146 31 23 13 46 24 52 24 27 0 21 -76 -14 -185 -34 -105
-42 -119 -166 -290 -117 -162 -158 -208 -407 -460 -331 -335 -359 -377 -314
-471 29 -62 107 -113 273 -181 23 -9 17 -13 -75 -60 -54 -28 -132 -63 -173
-77 -87 -31 -122 -55 -150 -100 -24 -39 -26 -65 -8 -90 13 -17 24 -18 227 -6
l213 13 74 44 74 44 42 -33 c57 -46 84 -58 125 -58 42 0 152 -21 152 -30 -1
-3 -51 -36 -113 -75 -134 -83 -157 -104 -157 -144 0 -44 39 -71 105 -71 29 0
76 -4 105 -10 43 -8 69 -6 144 11 112 26 112 26 213 111 91 77 176 113 243
102 43 -7 83 21 101 70 l12 34 101 7 c112 7 187 19 227 36 72 29 217 339 385
826 46 133 109 300 140 370 48 109 107 284 127 373 4 14 20 65 37 115 22 67
30 108 31 165 0 96 25 161 63 171 16 5 67 0 122 -11 81 -15 102 -24 147 -59
119 -92 110 -79 105 -170 -4 -69 -11 -93 -46 -163 -67 -137 -181 -237 -301
-264 -84 -20 -124 -78 -87 -126 10 -14 42 -18 193 -26 162 -9 188 -8 259 9 43
10 83 18 87 19 5 0 -13 -17 -40 -38 -59 -48 -105 -99 -151 -171 -20 -31 -43
-63 -53 -71 -27 -23 -159 -283 -159 -312 0 -14 -11 -55 -25 -92 -49 -131 -69
-330 -44 -448 16 -74 43 -128 90 -176 49 -51 96 -76 185 -98 54 -13 93 -33
179 -92 61 -41 124 -87 140 -102 17 -15 37 -30 45 -33 8 -3 -84 -3 -205 -1
-759 16 -1252 21 -1335 13 -52 -4 -189 -17 -305 -29 -215 -20 -528 -26 -615
-11 -25 5 -36 10 -25 11 56 7 -77 19 -195 18 -74 -1 -181 2 -237 7 -92 7 -103
6 -103 -9 0 -15 -48 -16 -547 -16 l-547 0 -108 41 -108 41 -38 -33 c-46 -40
-53 -52 -54 -90 -1 -19 8 -39 26 -58 24 -25 39 -30 149 -44 110 -15 417 -17
3002 -22 l2880 -6 1460 -39 c1128 -30 1485 -43 1569 -56 106 -15 110 -15 135
4 17 13 27 30 29 53 2 29 -4 41 -40 76 -43 43 -45 43 -157 58 -62 8 -129 19
-150 24 -20 6 -124 13 -231 16 -107 3 -223 8 -257 11 l-62 5 5 32 c4 23 -19
105 -82 292 l-87 260 -7 135 c-7 146 -17 180 -63 214 -23 17 -40 20 -95 17
-76 -3 -86 -9 -114 -67 -10 -23 -28 -50 -38 -59 -19 -17 -20 -17 -29 8 -6 15
-8 56 -4 91 6 72 -7 120 -39 137 -32 17 -111 39 -142 39 -21 0 -46 -17 -104
-71 -70 -65 -135 -109 -162 -109 -7 0 -11 20 -9 55 4 80 -8 89 -138 103 -247
27 -266 26 -658 -21 -203 -25 -384 -43 -401 -40 -18 3 -47 -2 -65 -10 -19 -9
-73 -18 -122 -22 -66 -5 -89 -11 -96 -23 -8 -14 -25 -17 -101 -15 -50 1 -94 4
-97 7 -4 3 -1 18 6 33 8 16 17 56 21 89 7 56 17 75 109 212 67 99 125 173 173
218 40 38 84 81 98 95 32 33 60 37 286 44 308 8 402 38 438 139 18 50 31 233
18 249 -6 7 -6 42 -1 87 59 523 70 648 70 835 0 238 -8 342 -32 414 -11 30
-19 64 -19 75 0 12 -36 69 -80 127 -61 81 -95 115 -147 149 -36 25 -89 65
-117 90 -28 26 -72 61 -99 79 -66 45 -461 238 -525 256 -29 9 -117 42 -197 75
-111 45 -194 70 -362 109 l-218 50 -270 11 c-148 6 -315 12 -370 15 -86 3
-147 -4 -440 -51z m1080 -133 c146 -25 197 -39 360 -99 247 -91 384 -147 536
-220 218 -106 579 -316 579 -337 0 -7 24 -34 53 -59 51 -43 53 -47 70 -128 28
-138 52 -462 38 -522 -11 -50 -23 -183 -41 -456 -11 -181 -37 -368 -62 -458
-20 -77 -17 -91 20 -92 6 0 12 -9 12 -20 0 -11 -6 -22 -12 -25 -7 -2 -455 -6
-994 -10 l-981 -6 4 24 5 23 -229 -2 c-125 -2 -252 -6 -282 -10 l-55 -6 31 36
c138 156 179 399 91 538 -41 66 -136 151 -203 183 -73 34 -184 57 -259 53
l-59 -3 -6 120 c-3 66 -5 153 -5 192 l1 73 -34 6 c-37 7 -73 -11 -97 -49 -9
-15 -21 -113 -35 -306 -12 -156 -26 -291 -30 -300 -5 -9 -14 -56 -21 -105 -7
-49 -22 -112 -35 -140 -12 -28 -28 -80 -35 -116 -10 -49 -528 -1391 -542
-1406 -2 -1 -68 1 -148 6 -126 7 -182 4 -435 -21 -315 -31 -335 -33 -335 -21
0 4 75 103 166 221 l166 214 220 451 c121 248 261 534 310 636 92 188 183 434
233 629 26 100 26 104 10 147 -20 53 -59 87 -89 78 -38 -11 -64 -44 -69 -87
-15 -116 -37 -228 -55 -277 -11 -30 -23 -68 -27 -85 -9 -39 -291 -676 -367
-830 -125 -249 -323 -612 -369 -675 l-47 -65 -139 -30 c-231 -50 -341 -39
-474 46 l-62 40 40 42 c150 158 657 712 691 755 92 117 145 240 187 432 31
141 28 177 -16 214 l-30 26 62 132 c54 118 63 144 71 223 12 126 0 188 -63
313 -50 98 -126 189 -169 204 -11 3 -6 13 20 41 19 19 42 43 50 52 112 120
389 283 774 457 121 55 257 117 302 138 162 76 361 142 544 179 191 39 227 41
1060 69 19 1 112 -11 205 -27z m-3215 -736 c24 -25 41 -45 36 -45 -4 0 2 -12
13 -26 12 -15 21 -39 21 -55 0 -19 6 -30 20 -34 11 -4 20 -15 20 -26 0 -14 13
-26 42 -39 47 -21 185 -176 194 -219 3 -14 12 -38 20 -53 21 -39 29 -171 14
-256 -6 -39 -16 -74 -21 -78 -5 -3 -9 -16 -9 -29 0 -13 -19 -47 -41 -76 l-42
-52 -18 36 c-11 20 -34 48 -53 62 -39 30 -58 25 -95 -21 -26 -33 -27 -82 -4
-146 9 -26 15 -49 12 -52 -2 -2 -74 -12 -159 -21 -85 -9 -156 -21 -158 -26 -2
-5 -16 -9 -30 -9 -48 0 -53 -10 -37 -70 8 -30 12 -71 9 -90 -5 -31 -12 -38
-51 -54 -51 -21 -54 -20 -92 50 -41 74 -62 85 -209 103 l-129 16 19 30 c14 22
17 41 13 70 -2 22 -9 76 -13 120 -12 109 -38 147 -92 130 -16 -5 -20 -15 -20
-53 0 -78 22 -266 32 -279 8 -10 5 -13 -9 -13 -12 0 -41 25 -71 61 -40 46 -52
69 -52 94 0 18 -11 48 -24 67 l-23 35 22 70 c45 138 218 483 243 483 6 0 12 3
12 8 0 4 16 25 35 46 19 22 35 47 35 57 0 30 12 49 30 49 10 0 23 7 30 15 7 8
20 15 29 15 22 0 65 45 56 59 -4 7 5 11 24 11 18 0 40 9 52 21 22 22 79 49
103 49 13 0 13 -4 0 -35 -26 -62 -12 -166 28 -202 18 -16 20 -16 40 5 18 18
22 34 23 89 l0 68 44 3 c64 5 87 -4 110 -41 15 -25 19 -43 14 -70 -5 -35 -3
-38 28 -51 42 -19 53 -8 69 70 l11 54 -47 61 c-27 36 -61 67 -80 75 -40 17
-119 18 -163 3 -53 -19 -46 -3 15 30 36 19 65 29 79 25 12 -3 37 1 56 10 19 8
36 15 39 15 3 1 26 -19 50 -44z m2647 -1804 c13 5 32 9 40 9 14 0 13 -4 -5
-23 -12 -13 -22 -31 -22 -40 0 -10 -45 -86 -99 -170 -165 -253 -187 -290 -216
-352 -15 -33 -33 -67 -40 -75 -24 -29 -54 -130 -58 -197 -2 -37 -16 -105 -31
-151 -14 -46 -29 -114 -32 -152 l-7 -70 -37 0 c-27 0 -47 9 -76 34 l-39 34 -3
104 c-4 104 -3 106 53 284 105 329 236 534 412 646 67 43 93 74 93 113 0 25 1
25 21 11 16 -10 28 -12 46 -5z m793 -26 c245 -9 469 -18 499 -21 l54 -6 -85
-86 c-87 -89 -181 -219 -236 -328 -35 -70 -57 -142 -72 -236 -12 -80 1 -126
47 -154 15 -10 38 -27 50 -37 21 -19 32 -20 160 -14 104 5 157 13 217 32 71
22 150 30 650 70 314 24 572 42 575 40 9 -9 -29 -442 -46 -518 l-17 -77 -145
0 c-80 1 -579 -25 -1109 -57 -925 -55 -964 -56 -1015 -41 -33 11 -105 19 -201
23 -250 10 -352 39 -403 116 -29 44 -33 80 -15 159 26 122 108 401 143 488 70
171 182 350 313 502 53 61 80 113 73 142 -6 23 -13 23 563 3z m2312 -812 c3
-32 8 -65 12 -73 5 -13 -17 -20 -131 -42 -76 -15 -146 -30 -157 -34 -14 -5
-17 -3 -15 11 4 20 10 23 90 58 32 14 84 50 118 81 33 31 65 56 70 56 5 0 11
-26 13 -57z m364 -273 c17 -94 73 -275 111 -360 14 -30 31 -69 39 -87 l13 -31
-27 10 c-19 7 -48 41 -87 100 -65 100 -99 130 -201 181 -160 80 -369 99 -495
44 l-35 -16 8 66 c4 36 10 68 13 71 3 3 60 4 128 3 182 -3 280 22 442 117 l70
41 3 -27 c1 -15 10 -65 18 -112z m-6311 105 c22 -4 44 -9 48 -12 5 -3 -22 -23
-60 -45 -37 -22 -77 -48 -88 -58 -42 -40 -137 -73 -217 -78 -43 -3 -78 -2 -78
1 0 7 135 72 195 93 45 17 93 58 106 92 6 17 15 21 31 18 13 -3 41 -8 63 -11z
m705 -299 c0 -2 -20 -11 -44 -19 -24 -8 -86 -47 -138 -86 -87 -65 -99 -71
-144 -71 -27 0 -74 -7 -104 -15 -64 -17 -80 -18 -80 -6 0 5 34 25 76 45 51 24
93 54 129 90 45 47 59 55 96 59 65 5 209 8 209 3z m5310 -101 c47 -14 66 -29
132 -98 43 -45 92 -102 109 -126 l32 -43 -1069 7 c-588 4 -1298 10 -1579 14
l-510 6 1190 54 c656 30 1196 59 1203 64 7 5 26 36 44 68 l31 59 56 1 c31 0
76 4 101 9 63 12 195 5 260 -15z"/>
<path d="M1972 3098 c-19 -19 -14 -77 8 -108 l20 -29 -22 -68 c-23 -73 -31
-83 -64 -83 -35 0 -38 -30 -7 -62 23 -25 34 -29 62 -24 45 7 89 51 97 95 3 20
9 45 14 56 28 65 13 155 -36 206 -30 31 -53 36 -72 17z"/>
</g>
</svg>
