<?xml version="1.0" standalone="no"?>
<!DOCTYPE svg PUBLIC "-//W3C//DTD SVG 20010904//EN"
 "http://www.w3.org/TR/2001/REC-SVG-20010904/DTD/svg10.dtd">
<svg version="1.0" xmlns="http://www.w3.org/2000/svg"
 width="1024.000000pt" height="1024.000000pt" viewBox="0 0 1024.000000 1024.000000"
 preserveAspectRatio="xMidYMid meet">
<metadata>
Created by potrace 1.10, written by Peter Selinger 2001-2011
</metadata>
<g transform="translate(0.000000,1024.000000) scale(0.100000,-0.100000)"
fill="#000000" stroke="none">
<path d="M4565 9299 c-540 -53 -536 -52 -630 -115 -60 -40 -103 -92 -123 -148
-23 -67 -71 -1128 -72 -1592 0 -416 2 -436 59 -526 57 -90 220 -194 341 -217
30 -6 106 -15 169 -21 63 -5 116 -12 119 -14 6 -7 -196 -1153 -213 -1206 -8
-25 -37 -198 -65 -385 -28 -187 -57 -355 -65 -373 -8 -18 -15 -40 -15 -49 0
-9 -9 -26 -19 -37 -12 -13 -24 -48 -31 -90 -6 -38 -15 -77 -20 -87 -6 -9 -64
-215 -130 -456 -85 -312 -157 -548 -249 -818 -139 -407 -170 -530 -192 -755
-26 -280 26 -683 114 -874 120 -259 332 -436 593 -497 79 -18 115 -21 231 -17
133 4 147 7 383 72 315 86 315 86 510 169 300 126 648 308 917 478 297 188
717 507 825 627 66 73 84 193 35 227 -30 21 -101 19 -145 -4 -20 -11 -120
-104 -222 -207 -170 -171 -198 -195 -340 -289 -292 -192 -605 -371 -895 -511
-259 -125 -447 -194 -699 -259 -187 -48 -300 -65 -431 -65 -187 0 -299 44
-421 165 -76 76 -154 200 -154 248 0 15 -6 38 -14 50 -24 36 -46 267 -46 469
l0 186 188 214 c305 345 335 368 882 708 541 336 672 426 885 611 127 111 348
333 420 424 78 98 148 241 175 359 19 83 22 115 17 229 -10 256 -99 474 -274
670 -73 81 -982 923 -1076 996 -59 47 -67 56 -51 62 10 4 244 19 519 34 524
28 589 36 687 86 54 28 124 93 155 146 55 95 63 144 78 492 l14 324 -44 576
c-50 659 -49 654 -139 744 -28 29 -70 61 -91 72 -22 11 -51 29 -65 41 -14 12
-61 38 -105 57 l-80 36 -445 25 c-245 14 -472 28 -505 30 -33 2 -145 -4 -250
-15z m566 -224 c271 -9 498 -20 503 -24 6 -5 29 -12 51 -16 68 -11 124 -36
163 -72 20 -19 46 -36 57 -39 11 -3 34 -27 52 -54 l32 -48 42 -583 c41 -559
42 -590 31 -749 -12 -166 -42 -368 -65 -436 l-12 -36 -160 -40 c-116 -29 -219
-46 -375 -63 l-215 -23 -580 29 c-319 17 -585 32 -591 34 -15 5 -58 118 -84
220 -40 155 -44 258 -26 613 29 556 56 1044 62 1108 l5 60 70 27 c117 46 312
88 464 100 22 2 50 4 61 5 12 1 244 -5 515 -13z m70 -3068 c213 -185 412 -364
443 -398 122 -131 226 -275 304 -419 72 -134 88 -320 42 -488 -22 -79 -165
-294 -260 -391 -76 -76 -358 -302 -570 -457 -282 -205 -634 -434 -875 -567
-204 -113 -380 -260 -490 -410 -27 -37 -50 -65 -51 -64 -4 4 93 336 107 367 6
14 85 268 175 565 90 297 172 558 183 580 11 22 22 63 24 90 3 28 25 109 51
180 25 72 55 180 66 240 11 61 70 385 131 720 91 505 156 823 184 904 4 9 29
-8 78 -51 39 -35 246 -216 458 -401z"/>
</g>
</svg>
