<?xml version="1.0" standalone="no"?>
<!DOCTYPE svg PUBLIC "-//W3C//DTD SVG 20010904//EN"
 "http://www.w3.org/TR/2001/REC-SVG-20010904/DTD/svg10.dtd">
<svg version="1.0" xmlns="http://www.w3.org/2000/svg"
 width="1024.000000pt" height="1024.000000pt" viewBox="0 0 1024.000000 1024.000000"
 preserveAspectRatio="xMidYMid meet">
<metadata>
Created by potrace 1.10, written by Peter Selinger 2001-2011
</metadata>
<g transform="translate(0.000000,1024.000000) scale(0.100000,-0.100000)"
fill="#000000" stroke="none">
<path d="M5710 8089 c-112 -38 -256 -80 -319 -94 -105 -23 -971 -135 -1042
-135 -17 0 -49 10 -72 22 -23 11 -96 35 -162 53 l-119 32 -73 -30 c-40 -16
-73 -33 -73 -38 0 -5 30 -53 67 -107 80 -117 107 -175 127 -275 14 -68 16
-319 16 -2274 l0 -2198 -34 -365 c-36 -386 -36 -443 0 -554 31 -96 106 -201
165 -232 47 -24 78 -18 119 24 39 38 57 84 82 204 8 38 12 808 15 2776 3 2138
6 2724 16 2727 10 4 494 79 1173 181 99 15 188 25 197 21 9 -3 21 -25 27 -49
21 -74 -1 -158 -90 -343 -66 -140 -602 -1081 -667 -1172 l-44 -62 63 -44 c35
-24 86 -56 113 -72 191 -107 377 -286 520 -500 148 -221 225 -442 256 -734 15
-147 6 -483 -16 -606 -26 -146 -86 -257 -162 -302 -39 -23 -52 -25 -116 -21
-79 6 -249 58 -456 139 -68 27 -126 47 -128 45 -4 -4 16 -21 148 -125 120 -95
228 -238 314 -416 23 -49 60 -110 81 -134 l37 -43 67 4 c164 9 360 168 465
378 142 282 195 831 119 1215 -81 407 -335 727 -846 1069 -134 90 -198 138
-198 150 0 4 161 253 518 801 36 55 119 183 185 285 121 186 231 319 314 379
26 19 45 43 53 65 11 35 11 36 -74 144 -88 112 -98 120 -351 274 -6 4 -103
-25 -215 -63z"/>
</g>
</svg>
