<?xml version="1.0" standalone="no"?>
<!DOCTYPE svg PUBLIC "-//W3C//DTD SVG 20010904//EN"
 "http://www.w3.org/TR/2001/REC-SVG-20010904/DTD/svg10.dtd">
<svg version="1.0" xmlns="http://www.w3.org/2000/svg"
 width="1024.000000pt" height="1024.000000pt" viewBox="0 0 1024.000000 1024.000000"
 preserveAspectRatio="xMidYMid meet">
<metadata>
Created by potrace 1.10, written by Peter Selinger 2001-2011
</metadata>
<g transform="translate(0.000000,1024.000000) scale(0.100000,-0.100000)"
fill="#000000" stroke="none">
<path d="M4994 8746 c-104 -17 -144 -47 -171 -127 -12 -35 -24 -80 -27 -99 -7
-40 58 -4184 73 -4660 10 -313 10 -317 60 -597 47 -269 51 -284 82 -322 36
-46 59 -57 87 -42 24 13 35 39 72 176 l30 110 70 1630 c60 1409 79 1775 139
2695 39 586 73 1084 76 1107 7 52 -13 96 -52 112 -25 10 -279 32 -343 30 -14
-1 -57 -6 -96 -13z m342 -178 c-43 -261 -66 -643 -151 -2493 -57 -1238 -125
-2682 -126 -2698 -1 -16 -55 405 -75 583 -12 116 -17 355 -24 1200 -11 1467
-15 3158 -6 3260 14 176 12 170 54 171 20 0 46 4 57 9 11 5 78 9 149 9 l129 1
-7 -42z"/>
<path d="M5059 8544 c-41 -12 -44 -41 -42 -402 1 -233 5 -348 12 -355 6 -6 11
-18 11 -27 0 -9 11 -44 25 -78 14 -34 25 -77 25 -95 0 -47 34 -89 69 -85 20 2
32 14 51 53 24 48 25 59 33 369 6 199 6 364 0 438 -9 114 -11 120 -40 150 -25
24 -41 31 -80 34 -26 1 -55 1 -64 -2z m104 -164 c5 -38 1 -114 -13 -245 -11
-104 -21 -219 -23 -255 -1 -45 -7 -3 -19 135 -11 117 -16 237 -12 290 8 127
10 137 37 133 18 -2 23 -12 30 -58z"/>
<path d="M6281 4537 c-2 -17 32 -122 36 -112 2 6 -5 35 -16 65 -11 30 -20 51
-20 47z"/>
<path d="M2728 3461 l-24 -19 17 -190 c10 -104 25 -218 35 -253 9 -35 20 -93
24 -129 4 -36 23 -111 43 -165 19 -55 67 -199 105 -320 175 -550 272 -713 487
-818 44 -21 104 -52 133 -69 38 -22 101 -40 235 -69 l182 -39 795 -39 c716
-34 805 -37 900 -25 130 15 715 146 773 172 117 53 439 387 585 604 120 181
171 286 307 629 75 189 154 377 176 417 46 86 49 123 14 157 -55 56 -75 32
-196 -240 -56 -126 -103 -231 -104 -232 -2 -4 -430 -43 -640 -59 -269 -20
-1315 -30 -1660 -15 -404 17 -880 56 -1204 97 -298 38 -638 154 -734 250 -37
37 -52 45 -72 42 -14 -3 -25 -2 -25 1 -1 47 -34 239 -45 261 -14 27 -60 70
-75 70 -4 0 -18 -9 -32 -19z m484 -630 l167 -61 533 -64 c578 -70 800 -86
1478 -108 473 -15 957 0 1500 48 36 3 109 14 163 26 54 11 100 18 103 15 3 -2
-7 -18 -21 -35 -14 -16 -25 -36 -25 -43 0 -21 -93 -241 -113 -269 -10 -14 -48
-72 -86 -130 -37 -58 -104 -150 -148 -205 -91 -113 -286 -306 -335 -331 -50
-26 -465 -153 -537 -165 -50 -8 -298 0 -1110 36 l-1046 46 -130 56 c-149 64
-269 148 -309 216 -113 192 -301 704 -271 735 10 11 10 23 0 60 -6 26 -10 52
-8 58 2 6 -12 54 -32 108 -19 53 -35 101 -35 107 0 5 21 -1 48 -15 26 -13 122
-51 214 -85z"/>
<path d="M4168 2145 c-15 -9 -31 -27 -34 -41 -12 -48 16 -61 217 -101 l184
-36 675 17 c837 21 832 20 869 55 23 21 28 33 24 55 -12 62 21 60 -783 45
-724 -13 -776 -12 -1075 17 -34 3 -59 -1 -77 -11z"/>
</g>
</svg>
