<?xml version="1.0" standalone="no"?>
<!DOCTYPE svg PUBLIC "-//W3C//DTD SVG 20010904//EN"
 "http://www.w3.org/TR/2001/REC-SVG-20010904/DTD/svg10.dtd">
<svg version="1.0" xmlns="http://www.w3.org/2000/svg"
 width="1024.000000pt" height="1024.000000pt" viewBox="0 0 1024.000000 1024.000000"
 preserveAspectRatio="xMidYMid meet">
<metadata>
Created by potrace 1.10, written by Peter Selinger 2001-2011
</metadata>
<g transform="translate(0.000000,1024.000000) scale(0.100000,-0.100000)"
fill="#000000" stroke="none">
<path d="M4085 8963 c-29 -7 -72 -51 -80 -81 -9 -36 12 -78 48 -95 115 -54
344 -117 497 -137 47 -6 339 -52 650 -101 311 -50 579 -91 595 -91 78 0 135
52 135 125 0 39 -26 68 -81 91 -35 15 -1690 297 -1726 295 -10 -1 -27 -3 -38
-6z"/>
<path d="M7150 8020 c-14 -4 -86 -8 -160 -9 -100 -1 -676 -57 -2205 -217
l-2070 -216 -33 -32 c-33 -32 -33 -34 -22 -77 17 -65 44 -89 99 -89 25 0 63 6
86 14 25 9 143 20 315 30 151 9 295 19 319 22 l44 6 -23 -32 c-33 -46 -60
-142 -60 -211 0 -88 71 -464 151 -803 68 -288 72 -301 112 -355 159 -216 375
-351 636 -396 60 -11 163 -15 367 -15 l283 0 -22 -47 c-22 -47 -22 -57 -25
-550 l-3 -503 -42 0 c-23 0 -298 7 -612 16 -488 13 -581 18 -648 34 -179 44
-306 170 -352 351 -9 35 -21 81 -26 102 -14 53 -72 115 -115 123 -44 8 -68
-11 -100 -81 -38 -81 -26 -179 33 -275 16 -25 36 -70 46 -101 28 -92 70 -136
193 -205 130 -73 262 -127 387 -159 163 -41 241 -48 450 -40 227 9 763 12 771
5 3 -3 -3 -127 -14 -275 -13 -198 -25 -299 -43 -380 -20 -86 -28 -161 -37
-345 -6 -129 -12 -236 -14 -237 -4 -5 -1018 86 -1023 91 -3 3 -16 164 -29 358
-13 194 -29 366 -34 384 -23 69 -71 80 -144 32 -39 -26 -46 -48 -46 -145 0
-137 160 -2167 176 -2232 38 -154 121 -272 211 -299 24 -7 81 -9 153 -6 63 3
356 14 650 24 l535 18 110 37 c237 79 521 240 636 361 117 124 165 220 218
436 38 150 39 161 71 633 27 408 35 487 52 529 19 47 19 50 2 88 -16 36 -17
56 -5 271 14 276 8 310 -63 381 -36 36 -47 42 -73 39 -18 -3 -41 -15 -52 -27
-19 -20 -22 -44 -36 -292 -8 -148 -15 -288 -15 -310 l0 -41 -117 -41 c-130
-46 -931 -267 -939 -259 -4 4 94 1198 99 1203 1 1 252 37 557 79 305 42 596
85 645 96 263 56 520 185 698 347 113 104 185 190 279 332 150 228 161 329 44
405 -22 15 -27 13 -90 -26 -36 -23 -66 -44 -66 -48 0 -32 -35 -159 -48 -176
-9 -12 -49 -64 -88 -116 -77 -101 -161 -186 -237 -238 -117 -80 -191 -107
-627 -225 l-425 -115 -313 -36 c-173 -20 -316 -34 -319 -31 -3 2 0 204 6 448
10 433 25 648 44 648 5 0 149 24 321 54 416 73 576 122 842 257 256 129 371
221 492 392 44 63 62 98 62 120 0 19 13 50 30 75 35 52 117 258 159 400 37
125 75 305 91 432 7 52 19 105 27 118 8 13 25 78 38 145 13 67 26 129 30 138
5 13 33 17 163 22 86 4 191 7 233 7 98 0 129 20 128 83 0 34 -6 46 -28 64 -27
21 -43 23 -292 34 -185 7 -274 15 -297 25 -18 8 -34 14 -35 13 -1 -1 -13 -5
-27 -9z m-110 -247 c0 -36 -39 -292 -60 -394 -51 -252 -167 -617 -231 -727
-11 -19 -35 -77 -55 -130 -40 -106 -37 -103 -188 -205 -349 -237 -888 -405
-1466 -457 -173 -15 -553 -13 -642 4 -154 30 -293 100 -401 203 -82 77 -124
134 -130 177 -3 21 -13 46 -20 55 -8 9 -18 43 -21 76 -4 33 -18 96 -31 140
-62 213 -95 466 -95 730 0 122 -3 144 -20 173 -11 17 -25 32 -32 32 -80 0 223
32 1483 155 816 80 1563 154 1659 164 237 25 250 25 250 4z m-946 -4868 c-25
-478 -40 -585 -110 -796 -69 -206 -171 -319 -354 -392 -285 -112 -552 -200
-765 -251 l-230 -54 -300 29 c-165 16 -307 29 -315 29 -8 1 -25 14 -38 31 -22
27 -28 70 -98 712 -40 375 -75 694 -77 708 -3 25 -1 26 42 22 26 -2 318 -17
651 -32 l604 -29 171 34 c260 53 550 132 775 212 30 11 55 19 56 18 1 0 -5
-109 -12 -241z"/>
<path d="M5599 2345 c-3 -2 -239 -11 -525 -20 -663 -20 -658 -20 -696 -54 -24
-22 -32 -37 -35 -78 -7 -69 14 -89 105 -97 162 -14 785 -18 992 -7 235 13 243
15 288 81 40 60 23 114 -46 149 -45 23 -77 33 -83 26z"/>
<path d="M6441 4394 c-1 -6 4 -26 10 -45 6 -19 13 -40 15 -48 3 -8 7 -12 9 -9
3 2 -4 29 -14 59 -11 30 -20 49 -20 43z"/>
</g>
</svg>
