<?xml version="1.0" standalone="no"?>
<!DOCTYPE svg PUBLIC "-//W3C//DTD SVG 20010904//EN"
 "http://www.w3.org/TR/2001/REC-SVG-20010904/DTD/svg10.dtd">
<svg version="1.0" xmlns="http://www.w3.org/2000/svg"
 width="1024.000000pt" height="1024.000000pt" viewBox="0 0 1024.000000 1024.000000"
 preserveAspectRatio="xMidYMid meet">
<metadata>
Created by potrace 1.10, written by Peter Selinger 2001-2011
</metadata>
<g transform="translate(0.000000,1024.000000) scale(0.100000,-0.100000)"
fill="#000000" stroke="none">
<path d="M4691 8358 l-65 -30 82 -76 c136 -127 170 -208 192 -447 10 -113 14
-435 5 -435 -3 0 -256 -31 -562 -69 -705 -88 -839 -98 -1073 -78 -96 8 -178
13 -181 11 -3 -2 3 -37 14 -79 19 -70 24 -78 71 -114 67 -51 258 -143 310
-148 24 -3 76 4 123 16 147 38 1297 220 1742 277 509 64 458 72 497 -81 24
-92 24 -104 14 -211 -13 -145 -23 -189 -114 -529 -90 -337 -143 -505 -158
-505 -6 0 -289 -27 -630 -60 -340 -33 -625 -60 -632 -60 -11 0 -9 23 11 116
25 115 25 118 8 180 -33 124 -69 166 -325 390 -152 133 -257 217 -299 239 -74
39 -83 41 -101 20 -11 -13 -9 -19 7 -38 11 -12 65 -92 119 -177 131 -208 206
-379 255 -590 11 -47 31 -104 45 -127 14 -24 21 -43 17 -43 -4 0 -289 -29
-633 -65 -344 -35 -740 -72 -880 -81 l-255 -17 -255 31 c-140 17 -256 29 -258
27 -3 -3 1 -33 8 -67 10 -45 22 -70 41 -89 52 -49 204 -146 343 -219 l138 -72
112 16 c61 9 374 62 696 116 603 102 672 112 1045 154 1176 133 2006 205 2735
235 497 21 656 23 930 9 151 -7 319 -13 373 -13 96 0 99 1 123 28 13 15 24 36
24 45 0 9 -38 65 -85 123 l-85 107 -119 51 c-115 49 -121 50 -172 41 -152 -28
-643 -77 -1329 -135 -420 -35 -766 -62 -768 -60 -3 2 97 190 221 417 123 227
243 449 265 493 22 44 49 88 61 99 29 26 36 76 17 113 -20 40 -164 174 -223
208 -26 16 -56 33 -65 40 -14 9 81 15 430 29 246 9 465 22 487 27 52 14 83 44
91 87 6 32 2 38 -56 97 -55 56 -74 68 -152 96 -109 39 -121 38 -468 -26 -161
-30 -395 -63 -680 -95 -239 -27 -447 -52 -462 -55 l-28 -4 0 287 c0 203 5 313
15 376 12 75 12 92 1 115 -18 33 -62 74 -101 94 -50 24 -342 117 -367 116 -13
0 -52 -14 -87 -31z"/>
<path d="M6171 5125 c-45 -19 -88 -38 -95 -43 -6 -5 -37 -19 -70 -31 -49 -18
-239 -40 -1122 -131 -585 -61 -1080 -110 -1101 -110 -27 0 -53 10 -89 34 -159
107 -230 122 -337 73 l-59 -28 17 -27 c10 -15 42 -59 71 -97 64 -84 115 -193
140 -295 16 -67 17 -125 16 -565 -1 -269 -7 -745 -13 -1056 -10 -513 -9 -572
5 -630 23 -88 51 -143 92 -179 28 -24 44 -30 82 -30 41 0 53 5 80 33 42 43 63
105 69 204 l6 83 31 5 c50 8 2260 195 2263 191 2 -2 -8 -61 -22 -132 -14 -71
-25 -145 -25 -164 0 -43 30 -108 61 -136 42 -36 125 -84 147 -84 64 0 148 149
192 340 5 25 26 527 45 1115 27 821 39 1082 50 1120 8 28 32 75 54 104 74 99
69 151 -27 243 -130 124 -289 228 -348 228 -16 -1 -67 -16 -113 -35z m17 -331
c53 -37 54 -42 41 -447 -7 -205 -14 -374 -16 -376 -3 -4 -2286 -219 -2340
-221 -10 0 -13 46 -13 199 0 177 17 611 25 619 5 6 2162 240 2220 241 40 1 68
-4 83 -15z m18 -1186 c-3 -57 -11 -265 -17 -463 -6 -198 -13 -361 -14 -363 -1
-1 -501 -43 -1111 -92 -610 -49 -1130 -91 -1156 -94 l-48 -5 0 449 0 450 23 4
c12 3 254 26 537 52 283 25 792 72 1130 104 338 32 626 58 639 59 l23 1 -6
-102z"/>
</g>
</svg>
