<?xml version="1.0" standalone="no"?>
<!DOCTYPE svg PUBLIC "-//W3C//DTD SVG 20010904//EN"
 "http://www.w3.org/TR/2001/REC-SVG-20010904/DTD/svg10.dtd">
<svg version="1.0" xmlns="http://www.w3.org/2000/svg"
 width="1024.000000pt" height="1024.000000pt" viewBox="0 0 1024.000000 1024.000000"
 preserveAspectRatio="xMidYMid meet">
<metadata>
Created by potrace 1.10, written by Peter Selinger 2001-2011
</metadata>
<g transform="translate(0.000000,1024.000000) scale(0.100000,-0.100000)"
fill="#000000" stroke="none">
<path d="M6655 8443 l-1520 -23 -660 -61 c-363 -33 -683 -65 -711 -70 -58 -11
-81 -31 -90 -77 -6 -27 -1 -37 29 -67 l35 -35 224 0 c123 0 282 4 354 10 71 5
363 25 649 45 286 19 552 37 592 41 l71 6 -9 -39 c-7 -31 -149 -1400 -149
-1441 0 -7 -11 -12 -26 -12 -17 0 -74 -37 -173 -112 -112 -85 -355 -306 -987
-896 -895 -836 -874 -814 -843 -875 37 -72 97 -96 149 -60 14 9 90 80 170 158
625 609 789 762 1214 1131 253 221 462 401 463 400 1 -1 -45 -380 -103 -842
-58 -461 -102 -853 -99 -870 3 -18 14 -43 25 -56 l19 -25 -83 -154 c-55 -101
-249 -405 -571 -889 -1057 -1591 -1200 -1807 -1235 -1871 -20 -36 -100 -151
-178 -257 -78 -105 -142 -200 -142 -210 0 -11 -10 -27 -21 -38 -31 -27 -69
-112 -69 -154 0 -19 -4 -40 -8 -46 -13 -19 -125 -41 -217 -43 -49 -1 -148 -6
-220 -11 -87 -6 -295 -4 -634 6 -524 15 -550 14 -595 -25 -40 -34 -60 -136
-36 -180 5 -10 32 -33 60 -51 l50 -32 47 15 c38 13 182 20 688 37 746 24 891
24 1965 5 572 -10 1430 -14 2965 -14 l2160 0 109 32 c121 35 155 62 142 110
-9 37 -55 88 -93 103 -37 16 -131 18 -183 5 -19 -5 -98 -12 -175 -15 l-140 -5
-57 77 c-37 51 -69 111 -94 176 -42 111 -103 202 -158 236 -25 15 -64 63 -117
141 -108 161 -266 371 -382 504 -143 166 -282 306 -1282 1285 -506 496 -967
949 -1024 1007 -104 106 -214 205 -262 236 -56 37 -59 -5 60 902 133 1010 119
915 139 915 10 0 508 -219 1107 -487 773 -345 1117 -504 1185 -546 109 -68
168 -93 240 -103 49 -6 53 -5 86 27 21 21 34 42 34 58 -1 42 -35 106 -77 141
-87 73 -2271 1047 -2500 1115 -35 10 -63 23 -63 29 0 6 16 227 35 491 32 447
50 603 91 793 18 83 13 142 -16 190 -11 18 -19 32 -17 32 1 0 571 20 1267 45
1181 42 1266 46 1290 63 18 14 26 30 28 59 3 35 -1 44 -28 67 -28 23 -39 26
-103 25 -40 -1 -756 -13 -1592 -26z m-1120 -4092 c162 -216 337 -405 590 -639
105 -97 192 -178 195 -182 3 -3 73 -67 157 -143 135 -123 152 -143 158 -178 4
-21 10 -39 14 -39 5 0 6 12 3 28 -4 22 27 -4 164 -135 401 -384 938 -926 1035
-1043 176 -214 347 -453 448 -628 23 -40 46 -70 52 -67 18 12 47 -6 53 -32 4
-14 32 -59 63 -101 45 -61 103 -172 103 -197 0 -2 -388 -2 -862 1 -475 3
-1614 9 -2533 14 -1367 7 -1670 11 -1674 22 -2 7 -17 26 -33 41 -27 28 -32 29
-106 26 l-78 -4 156 280 c166 298 193 341 540 870 277 423 318 485 933 1425
275 421 507 773 515 783 9 9 19 14 22 10 4 -5 42 -55 85 -112z"/>
</g>
</svg>
