<?xml version="1.0" standalone="no"?>
<!DOCTYPE svg PUBLIC "-//W3C//DTD SVG 20010904//EN"
 "http://www.w3.org/TR/2001/REC-SVG-20010904/DTD/svg10.dtd">
<svg version="1.0" xmlns="http://www.w3.org/2000/svg"
 width="1024.000000pt" height="1024.000000pt" viewBox="0 0 1024.000000 1024.000000"
 preserveAspectRatio="xMidYMid meet">
<metadata>
Created by potrace 1.10, written by Peter Selinger 2001-2011
</metadata>
<g transform="translate(0.000000,1024.000000) scale(0.100000,-0.100000)"
fill="#000000" stroke="none">
<path d="M4860 7333 l-835 -135 -188 12 c-129 9 -192 9 -199 2 -6 -6 -13 -31
-15 -57 -6 -45 -4 -47 44 -93 77 -74 368 -212 447 -212 17 0 109 19 205 42
l174 41 46 -24 c68 -36 154 -126 189 -200 65 -134 84 -345 80 -869 l-3 -354
-80 -23 c-44 -13 -159 -35 -255 -49 -158 -23 -194 -25 -372 -19 -189 5 -197 5
-207 -14 -21 -39 -13 -88 20 -126 43 -48 84 -71 284 -156 l170 -72 87 22 c48
12 127 38 175 58 48 19 109 44 136 54 l47 19 0 -878 0 -878 -324 -128 c-318
-125 -474 -175 -549 -176 -42 0 -116 34 -190 86 -26 19 -52 32 -57 29 -6 -3
-23 -25 -39 -48 l-29 -42 89 -154 c124 -215 225 -345 290 -371 29 -12 35 -9
212 108 100 66 263 164 362 217 393 212 849 482 1207 712 210 136 458 310 458
323 0 9 -25 20 -47 20 -8 0 -242 -97 -519 -215 -277 -118 -506 -215 -509 -215
-3 0 -5 384 -5 853 l0 853 308 83 c370 99 388 105 430 144 39 38 42 79 9 128
-33 49 -74 73 -164 93 l-80 19 -244 -82 c-134 -44 -248 -81 -253 -81 -5 0 -5
223 -1 513 6 491 8 516 30 606 27 106 24 125 -28 179 -41 43 -100 73 -212 108
-50 15 -83 29 -75 31 8 2 215 39 460 83 511 92 532 96 583 122 62 31 65 54 20
129 -38 62 -42 65 -114 91 -41 15 -87 26 -104 26 -16 0 -406 -61 -865 -135z"/>
</g>
</svg>
