<?xml version="1.0" standalone="no"?>
<!DOCTYPE svg PUBLIC "-//W3C//DTD SVG 20010904//EN"
 "http://www.w3.org/TR/2001/REC-SVG-20010904/DTD/svg10.dtd">
<svg version="1.0" xmlns="http://www.w3.org/2000/svg"
 width="1024.000000pt" height="1024.000000pt" viewBox="0 0 1024.000000 1024.000000"
 preserveAspectRatio="xMidYMid meet">
<metadata>
Created by potrace 1.10, written by Peter Selinger 2001-2011
</metadata>
<g transform="translate(0.000000,1024.000000) scale(0.100000,-0.100000)"
fill="#000000" stroke="none">
<path d="M2843 9762 l-173 -55 -87 26 c-262 79 -452 54 -725 -99 -15 -8 -69
-22 -119 -30 -183 -29 -308 -88 -421 -198 -123 -119 -186 -274 -175 -431 3
-44 10 -93 16 -108 10 -25 7 -31 -23 -62 -24 -24 -38 -50 -46 -87 -11 -48 -18
-57 -73 -98 -68 -50 -83 -83 -72 -157 5 -33 15 -50 47 -77 66 -57 107 -65 383
-81 579 -33 781 -13 1092 111 l113 45 222 -16 c123 -9 232 -20 243 -25 14 -7
156 5 455 38 476 53 477 54 562 130 58 52 88 121 88 203 l0 65 40 23 c46 25
141 110 170 151 11 16 25 52 30 81 9 49 8 58 -17 109 -38 76 -143 179 -217
214 -33 16 -95 35 -138 44 -75 15 -79 17 -102 56 -39 67 -137 153 -218 191
-71 33 -81 34 -353 60 -154 14 -291 27 -305 29 -14 2 -103 -21 -197 -52z m632
-187 c93 -26 165 -64 212 -113 39 -40 43 -48 43 -95 1 -74 18 -83 208 -119
144 -27 159 -32 193 -63 36 -32 37 -34 18 -51 -10 -9 -21 -24 -24 -33 -3 -9
-19 -22 -36 -28 -50 -19 -234 -131 -259 -158 -28 -30 -29 -64 -2 -101 11 -16
23 -39 27 -51 7 -24 16 -20 -223 -92 -130 -40 -135 -41 -240 -34 -92 5 -111 9
-135 30 -16 12 -34 23 -40 23 -7 0 -114 -10 -239 -22 l-227 -21 -78 28 c-43
15 -109 44 -148 63 -63 33 -78 37 -150 37 -67 0 -89 -4 -130 -26 -42 -21 -50
-30 -53 -56 -2 -18 6 -50 18 -73 12 -23 20 -43 18 -45 -3 -3 -773 -35 -826
-35 -19 0 -21 3 -12 19 14 28 12 67 -6 102 -14 28 -14 34 0 64 15 30 15 40 1
97 -17 75 -20 225 -4 300 10 45 20 62 73 114 76 75 137 100 266 110 88 7 95 9
166 56 214 141 333 159 751 114 l152 -16 54 25 c49 22 161 56 227 69 58 11
346 -3 405 -19z"/>
<path d="M7580 9779 l-135 -39 -415 20 c-228 11 -460 20 -515 20 -364 0 -742
-184 -802 -390 -11 -36 -25 -62 -34 -65 -9 -3 -37 -27 -62 -54 -35 -37 -48
-61 -58 -105 l-13 -58 -93 7 c-80 6 -101 4 -157 -15 -88 -29 -166 -87 -215
-161 -86 -129 -93 -257 -18 -337 30 -32 147 -95 237 -127 111 -39 200 -55 310
-55 54 0 111 -5 127 -12 15 -6 69 -15 118 -19 82 -7 164 3 960 112 479 65 895
123 925 129 30 5 100 32 155 60 212 105 254 119 450 145 219 29 265 44 325
104 51 51 70 100 70 181 0 50 3 56 60 120 l60 68 -8 62 c-10 68 -19 79 -117
144 -86 57 -157 78 -280 84 -105 4 -111 6 -140 34 -76 75 -255 155 -395 178
-119 18 -194 12 -340 -31z m410 -243 c0 -2 -29 -22 -63 -45 -96 -62 -104 -99
-32 -158 74 -61 158 -68 290 -23 83 28 98 30 229 29 145 -1 147 -6 11 -28 -70
-12 -107 -45 -125 -112 -10 -37 -9 -45 7 -68 11 -14 34 -33 52 -43 l32 -16
-28 -6 c-88 -19 -577 -64 -643 -59 -43 3 -93 0 -118 -6 -54 -15 -110 -64 -134
-118 -10 -24 -20 -43 -21 -44 -1 0 -81 -6 -177 -14 l-175 -13 -33 39 c-39 45
-88 63 -146 55 -60 -9 -134 -58 -141 -93 -15 -70 -25 -73 -388 -120 l-278 -36
-47 22 c-45 21 -52 22 -197 12 -82 -6 -177 -15 -210 -21 -131 -22 -273 -5
-379 45 -37 17 -56 33 -56 44 0 10 34 48 76 85 l75 68 57 -6 c31 -3 73 -8 94
-12 49 -8 78 20 78 76 0 35 3 40 23 40 50 0 121 34 163 76 38 39 43 42 60 29
20 -15 62 -19 80 -7 23 14 64 85 64 109 0 30 -15 60 -49 96 l-26 29 40 34 c50
43 162 100 235 119 31 8 99 15 155 15 55 0 159 5 230 10 107 9 171 8 366 -8
230 -18 236 -19 272 -46 23 -18 54 -30 82 -34 42 -4 50 -1 103 41 l58 45 194
10 c232 11 340 13 340 8z"/>
<path d="M5462 8393 c-12 -2 -42 -29 -67 -60 -35 -43 -45 -63 -45 -91 0 -46
26 -155 42 -182 12 -18 -2 -35 -162 -195 -96 -96 -177 -171 -180 -167 -8 8
-80 281 -80 299 0 6 14 22 31 34 31 22 31 23 27 94 -8 125 -67 206 -171 237
-35 10 -44 10 -72 -8 -18 -10 -60 -50 -93 -88 -60 -68 -61 -70 -56 -115 8 -66
28 -105 69 -132 19 -13 33 -29 30 -36 -2 -7 -86 -136 -185 -288 -100 -151
-186 -291 -192 -311 -6 -25 -37 -63 -103 -127 -81 -80 -98 -104 -134 -182 -23
-49 -51 -108 -62 -130 -15 -30 -33 -134 -70 -405 -45 -324 -50 -377 -44 -475
l6 -110 -46 -55 c-65 -78 -118 -156 -166 -247 -37 -71 -41 -83 -37 -138 3 -43
10 -70 27 -93 12 -18 21 -36 19 -41 -7 -18 -723 -573 -830 -644 -242 -158
-391 -308 -470 -475 -42 -89 -48 -108 -39 -132 9 -28 7 -30 -68 -79 -42 -28
-80 -51 -84 -51 -4 0 -35 23 -69 51 -71 57 -213 130 -303 154 -34 9 -116 19
-190 21 l-130 5 -50 -38 c-55 -43 -80 -101 -70 -164 10 -60 38 -93 189 -219
l146 -122 -63 -74 c-124 -147 -172 -258 -172 -396 0 -74 2 -79 32 -109 24 -25
42 -33 82 -37 36 -3 51 -9 51 -19 0 -8 12 -34 26 -59 l26 -44 128 0 128 0 20
-34 c21 -36 77 -62 112 -53 13 3 24 -3 35 -19 15 -23 20 -24 128 -24 l112 0
47 88 c25 48 54 116 63 152 33 127 106 295 195 450 21 36 41 81 45 100 4 19
18 56 31 83 30 58 53 61 97 12 49 -56 72 -51 318 65 117 55 214 99 215 97 1
-1 -52 -344 -117 -762 -65 -418 -118 -783 -119 -811 0 -37 6 -60 23 -85 20
-31 30 -35 92 -45 39 -6 89 -19 113 -29 30 -12 55 -16 84 -11 23 4 104 4 180
0 l140 -7 -6 -26 c-3 -14 -11 -78 -17 -141 -10 -107 -9 -139 25 -465 l36 -349
32 -33 c29 -28 40 -32 96 -35 63 -3 82 6 95 45 2 6 24 5 61 -3 32 -6 67 -10
77 -7 23 6 22 9 5 -41 -22 -62 -29 -143 -17 -207 6 -32 9 -60 7 -62 -2 -2 -77
1 -167 8 l-164 11 -125 -57 c-69 -31 -133 -64 -144 -73 -57 -52 -76 -182 -35
-248 l21 -34 -89 0 c-304 -2 -1205 -19 -1210 -23 -6 -7 55 -181 71 -201 9 -12
133 -11 886 9 481 13 936 26 1010 30 157 7 1167 31 1905 45 281 5 874 13 1318
16 l808 7 -3 106 -3 106 -904 5 -905 5 147 58 c161 64 197 92 217 167 12 43 0
137 -25 196 -17 41 -71 102 -109 121 -104 54 -201 55 -419 3 -93 -22 -170 -40
-172 -40 -2 0 1 17 7 37 14 53 5 133 -21 183 -12 23 -21 44 -19 45 2 1 30 16
63 33 33 16 69 39 79 51 13 14 31 21 56 21 26 0 43 7 60 25 23 24 23 25 17
222 -6 187 -16 284 -52 466 -8 44 -20 119 -25 168 -10 91 -21 124 -52 171
l-18 26 73 22 c39 11 81 24 92 27 11 3 25 9 30 13 6 5 145 34 310 66 345 65
346 66 366 163 21 99 -17 238 -91 331 -16 21 -30 48 -30 61 0 13 -18 49 -40
80 -21 31 -44 78 -50 105 -6 27 -20 65 -32 84 -11 19 -29 64 -40 100 -11 36
-50 137 -88 225 -153 358 -178 422 -184 464 -5 30 -36 93 -101 201 -52 87 -98
166 -102 176 -4 11 -41 76 -84 147 -43 70 -76 127 -74 127 2 0 326 -75 721
-166 l718 -165 87 12 c85 11 153 4 231 -26 9 -4 45 19 94 60 43 37 84 69 91
72 7 3 54 -32 105 -76 60 -53 130 -102 198 -139 104 -56 106 -57 189 -57 l83
0 39 43 c26 30 42 60 50 98 l12 54 104 0 c158 0 180 18 171 141 l-4 60 42 -7
c104 -15 234 82 234 175 0 37 -38 83 -89 108 l-40 20 20 29 c38 58 15 104 -80
160 -36 21 -38 29 -12 43 10 6 40 47 66 92 41 72 46 85 40 121 -4 22 -20 54
-35 72 -28 31 -30 31 -122 31 -84 0 -103 -4 -193 -39 -134 -51 -293 -131 -396
-198 -73 -49 -92 -56 -151 -62 l-67 -7 12 36 c9 32 8 42 -13 80 -20 37 -35 49
-95 76 -175 79 -315 114 -888 226 -408 79 -556 111 -552 121 6 16 -14 15 -114
-8 -60 -13 -104 -17 -153 -13 -38 3 -65 9 -61 13 4 4 37 13 73 19 36 7 79 16
96 22 47 14 101 77 113 129 6 25 29 120 51 212 44 183 47 212 26 262 -30 72
-101 93 -223 65 -41 -10 -54 -9 -81 5 -18 9 -32 24 -32 35 0 10 -16 48 -35 84
-19 36 -35 78 -35 92 0 15 -9 38 -20 52 -11 14 -20 34 -20 43 0 10 -20 58 -45
108 -50 100 -122 181 -211 238 -53 34 -54 36 -48 70 3 18 5 34 3 34 -2 0 -19
-4 -37 -9 l-32 -10 25 42 c13 23 117 153 229 288 l205 246 58 7 c54 6 64 12
133 73 56 49 78 76 88 107 17 54 10 117 -18 156 -27 37 -112 80 -161 81 -48 2
-116 -32 -170 -83 -40 -37 -47 -50 -53 -94 -6 -46 -10 -53 -34 -59 -103 -25
-391 -157 -532 -244 -36 -21 -66 -38 -68 -37 -1 2 3 48 9 104 10 85 9 108 -3
146 -14 43 -14 47 5 63 37 34 60 95 61 162 1 62 0 64 -39 97 -64 54 -151 75
-243 57z m126 -162 c9 -5 11 -17 6 -35 -8 -32 -10 -34 -61 -42 l-40 -6 -6 38
c-4 25 -2 41 6 46 16 10 79 10 95 -1z m-738 -21 c16 -8 40 -58 40 -81 0 -5
-20 -9 -45 -9 -49 0 -51 3 -33 61 12 43 12 43 38 29z m1708 -100 c22 -28 22
-31 7 -60 -11 -22 -23 -30 -43 -30 -15 0 -37 -3 -49 -6 -16 -4 -23 0 -28 15
-12 39 4 81 38 96 44 19 49 18 75 -15z m-1099 -454 c6 -61 16 -107 26 -123 17
-25 20 -25 89 -20 104 8 255 61 363 128 l38 23 -25 -34 c-13 -19 -73 -103
-132 -186 l-107 -152 -73 -6 c-40 -3 -225 -15 -411 -27 -186 -11 -349 -24
-362 -29 -15 -6 -58 -5 -112 1 -48 6 -123 7 -165 4 -59 -5 -78 -4 -78 5 0 7
24 43 53 79 29 36 79 113 111 171 31 58 74 125 96 150 l38 45 17 -60 c12 -42
26 -67 46 -83 16 -13 39 -42 50 -64 l20 -40 52 7 c29 4 76 19 105 33 73 37
204 137 281 216 36 36 66 64 68 62 2 -1 7 -47 12 -100z m396 -566 c-8 -16 -15
-38 -15 -48 0 -11 35 -73 78 -138 l77 -119 0 -165 c0 -191 -10 -239 -82 -391
l-45 -96 -73 22 c-40 13 -111 43 -158 68 -118 63 -243 111 -378 146 l-115 30
-80 -23 c-48 -14 -89 -33 -104 -48 -23 -22 -32 -24 -81 -20 -140 11 -534 -109
-604 -184 -14 -15 -25 -35 -25 -45 0 -21 -16 -24 -55 -9 l-26 10 6 172 c3 95
13 219 21 276 14 92 71 297 92 329 6 9 40 -16 115 -87 l107 -100 145 0 c120 0
145 3 145 14 0 39 -198 232 -343 335 l-62 43 135 -6 c74 -3 302 -11 505 -16
204 -6 379 -12 390 -13 11 -1 -43 -29 -120 -61 -151 -65 -197 -98 -216 -153
-21 -63 18 -153 67 -153 12 0 138 46 280 102 270 106 317 133 344 199 10 22
10 36 2 54 -7 14 -8 25 -2 25 5 0 26 18 46 40 21 22 39 40 41 40 2 0 -3 -13
-12 -30z m415 -679 c41 -39 146 -99 212 -121 l38 -11 -16 -37 c-15 -35 -25
-67 -39 -134 -5 -28 -6 -28 -89 -28 -69 0 -91 -4 -130 -25 l-46 -25 -48 19
c-30 11 -46 23 -43 32 9 36 116 369 118 369 2 0 21 -17 43 -39z m-833 -366
c155 -61 279 -111 274 -113 -4 -1 -68 -13 -142 -26 -87 -16 -139 -21 -151 -15
-44 24 -94 6 -123 -46 -10 -17 -17 -17 -88 -7 -106 16 -333 15 -437 -2 -69
-11 -100 -11 -169 -1 l-84 12 -241 -110 c-327 -149 -328 -149 -319 -133 27 45
96 119 155 166 85 67 158 144 158 164 0 17 17 22 105 31 33 3 171 31 306 62
242 55 247 57 285 94 39 37 39 38 114 35 69 -2 97 -11 357 -111z m668 -314
c27 -26 43 -31 182 -50 84 -12 172 -29 195 -37 24 -8 270 -57 548 -109 759
-142 758 -142 890 -185 68 -22 125 -42 128 -44 10 -10 -93 -426 -120 -487
l-29 -66 -60 1 c-51 1 -63 -3 -77 -21 l-17 -22 -295 69 c-162 38 -349 79 -415
91 -283 51 -636 154 -897 263 -129 54 -137 56 -206 51 -64 -4 -76 -8 -97 -32
-13 -16 -25 -32 -25 -38 -1 -5 -5 -32 -9 -59 -10 -61 -20 -43 188 -355 240
-360 393 -669 527 -1066 35 -107 82 -225 103 -262 21 -38 43 -90 50 -118 7
-27 22 -66 33 -85 11 -19 26 -54 33 -77 7 -22 40 -86 73 -141 59 -98 60 -100
39 -111 -12 -6 -183 -36 -380 -66 -197 -30 -366 -61 -377 -67 -11 -7 -24 -24
-29 -39 -5 -15 -19 -29 -33 -32 -12 -3 -246 -56 -519 -116 l-496 -110 -648
-31 c-621 -29 -651 -30 -717 -14 -58 14 -77 15 -123 5 -30 -7 -59 -10 -65 -6
-16 10 -13 48 30 427 36 318 48 388 116 703 41 193 121 527 176 744 l101 394
-29 21 c-16 11 -57 47 -91 79 -34 32 -66 56 -71 53 -12 -7 -55 -144 -123 -388
l-52 -187 -91 -66 c-93 -67 -393 -225 -427 -225 -11 0 -19 4 -19 9 0 5 -61 72
-135 149 -74 77 -135 146 -135 155 0 21 72 126 117 169 21 20 88 74 149 120
498 374 1025 788 1061 833 37 44 51 54 103 68 74 21 73 21 60 -2 -15 -29 -13
-31 23 -24 26 5 30 3 20 -8 -21 -21 -15 -73 21 -198 41 -143 54 -169 106 -213
44 -39 97 -58 157 -58 39 0 40 -1 63 -57 40 -98 151 -306 179 -336 24 -27 31
-29 87 -25 111 7 178 77 190 199 7 71 22 109 44 109 27 0 48 31 71 105 11 39
24 73 27 76 4 4 41 3 82 -2 90 -10 97 -5 128 87 14 44 34 77 72 118 48 51 56
56 85 50 27 -5 36 -1 53 21 19 24 21 36 15 100 -4 57 -2 82 13 121 11 29 18
73 18 106 l-1 57 49 -25 48 -24 -6 55 c-4 30 -5 55 -3 56 2 0 63 11 134 24
178 31 193 31 230 -4z m-646 -112 c-11 -28 -24 -74 -30 -102 -6 -29 -19 -61
-29 -72 -10 -11 -22 -32 -25 -47 -5 -20 -15 -29 -38 -34 -18 -3 -39 -12 -47
-19 -9 -8 -35 -13 -62 -12 -37 2 -52 -3 -72 -22 -14 -14 -26 -30 -26 -37 0
-23 -27 -33 -98 -39 -42 -3 -83 -12 -97 -21 -29 -19 -30 -31 -14 -187 l11
-108 -30 -62 c-17 -34 -36 -75 -42 -92 -9 -23 -13 -26 -20 -15 -6 8 -10 27
-10 41 0 15 -21 64 -46 110 -26 46 -51 102 -56 124 -12 52 -52 104 -94 121
-18 8 -60 14 -92 14 -58 0 -60 1 -86 40 -15 23 -26 54 -26 73 0 20 -11 50 -25
71 l-26 38 30 -7 c16 -3 32 -2 35 4 4 6 31 -2 69 -19 93 -44 181 -63 252 -57
128 12 263 73 367 167 44 40 51 51 50 81 l-1 35 117 23 c64 13 131 32 147 42
17 10 31 19 32 19 0 0 -8 -23 -18 -51z m-469 -3 c0 -2 -68 -21 -151 -41 -155
-38 -205 -40 -245 -10 -16 11 -11 14 41 25 33 6 76 16 95 20 36 8 260 13 260
6z m3740 -445 c6 -16 25 -35 41 -41 34 -14 48 -49 27 -64 -18 -14 -38 -50 -38
-70 0 -8 14 -31 31 -51 21 -23 26 -35 16 -35 -24 0 -67 -40 -82 -77 -13 -30
-18 -33 -37 -26 -70 25 -178 -14 -178 -65 0 -37 -11 -72 -21 -72 -5 0 -70 40
-143 89 -74 50 -137 87 -140 84 -10 -10 -6 25 12 126 l18 94 104 1 c99 1 109
3 170 34 36 19 72 40 81 48 15 13 103 52 120 54 4 0 12 -13 19 -29z m290 -317
c0 -8 -4 -12 -10 -9 -5 3 -10 10 -10 16 0 5 5 9 10 9 6 0 10 -7 10 -16z
m-7085 -919 c93 -36 135 -60 213 -118 53 -40 102 -77 109 -80 21 -13 81 20
217 116 72 52 136 96 142 100 6 4 25 -13 43 -38 18 -25 28 -45 23 -45 -5 0
-40 -34 -77 -76 -71 -79 -68 -70 -75 -186 -1 -17 -161 -248 -172 -248 -43 1
-56 12 -52 43 6 40 -22 97 -56 114 -14 7 -46 13 -72 13 -44 0 -48 2 -54 28 -4
15 -16 40 -26 55 -17 24 -19 35 -11 82 l10 54 -149 112 c-81 61 -148 113 -148
115 0 9 25 1 135 -41z m4110 -1547 c2 -13 28 -209 56 -436 44 -350 50 -415 38
-423 -23 -15 -218 -76 -299 -94 -41 -9 -142 -19 -225 -22 l-150 -6 3 114 c2
63 -2 186 -10 274 -7 88 -13 217 -13 287 0 119 -1 128 -24 152 l-24 25 29 7
c113 28 591 142 601 143 7 1 15 -9 18 -21z m-807 -611 c1 -248 7 -468 12 -487
5 -20 23 -49 40 -65 30 -29 34 -30 148 -33 64 -2 126 -4 137 -5 11 -1 33 2 49
6 25 7 28 6 21 -10 -30 -69 -29 -160 1 -260 4 -17 2 -23 -8 -23 -8 0 -23 -9
-33 -20 -16 -18 -17 -33 -12 -132 3 -64 15 -143 26 -183 11 -38 18 -71 16 -73
-3 -3 -655 -21 -813 -22 l-62 0 5 78 c6 67 4 81 -14 110 -12 18 -33 38 -48 44
-16 7 -30 13 -32 15 -2 1 11 23 28 49 53 81 74 149 75 244 1 68 -3 94 -20 128
-23 46 -19 50 35 31 47 -16 71 5 105 92 62 162 86 310 85 534 -1 77 4 170 11
206 12 67 3 136 -22 166 -7 9 -3 14 14 18 36 9 221 43 238 44 13 1 15 -57 18
-452z m-462 331 c-5 -45 -56 -701 -56 -721 0 -4 -8 -3 -19 2 -13 8 -28 5 -55
-8 -29 -15 -77 -21 -234 -30 -256 -15 -274 -18 -315 -45 l-34 -24 -8 167 c-5
91 -9 267 -10 391 -1 162 -5 232 -14 248 -7 13 -11 26 -8 28 5 5 579 41 690
43 l68 1 -5 -52z m1131 -895 c-27 -178 -29 -233 -13 -258 15 -23 15 -25 -3
-35 -18 -9 -20 -5 -26 45 -4 30 -5 71 -2 92 3 21 9 59 12 85 5 33 3 55 -8 77
l-15 31 30 0 c30 0 30 -1 25 -37z m-1371 -85 c-19 -87 -38 -245 -37 -305 1
-64 -1 -73 -16 -73 -37 0 -43 13 -28 55 18 51 18 98 1 165 -8 30 -16 77 -17
105 l-3 49 44 12 c62 17 61 17 56 -8z m2024 -238 c75 -8 88 -13 107 -37 31
-38 29 -60 -9 -79 -18 -9 -40 -22 -48 -29 -37 -31 -322 -106 -548 -145 -128
-22 -241 -40 -252 -40 -24 0 -34 43 -25 114 l7 53 46 6 c26 3 142 36 257 72
211 67 309 93 355 94 14 1 63 -3 110 -9z m-2255 -288 c133 -10 246 -22 253
-26 26 -16 13 -43 -27 -54 -42 -13 -722 -18 -734 -5 -9 8 22 43 37 43 6 0 36
13 66 30 67 35 77 36 405 12z"/>
<path d="M5233 6635 c-50 -21 -67 -56 -60 -122 12 -111 69 -137 161 -73 55 37
89 86 80 115 -14 45 -81 95 -126 95 -13 -1 -37 -7 -55 -15z"/>
<path d="M4450 6514 c-48 -44 -55 -67 -40 -125 14 -52 86 -129 120 -129 32 0
106 79 121 129 17 58 -1 95 -65 132 -66 38 -88 37 -136 -7z"/>
<path d="M4731 4271 l-74 -68 5 -80 c6 -103 34 -158 98 -191 39 -21 55 -23
126 -19 75 4 86 8 141 45 72 49 93 87 93 169 0 70 -25 128 -69 166 -41 34 -89
47 -176 47 l-70 -1 -74 -68z m183 -130 c23 -9 14 -16 -31 -26 -34 -7 -42 2
-21 23 13 13 24 14 52 3z"/>
<path d="M4946 3710 c-90 -24 -115 -43 -151 -115 -26 -51 -30 -71 -30 -137 0
-74 1 -78 34 -112 35 -36 80 -55 182 -77 47 -10 64 -9 112 5 91 26 133 72 158
171 11 42 9 55 -12 122 -26 84 -70 134 -136 152 -51 15 -76 13 -157 -9z m129
-184 c18 -13 18 -14 -4 -50 -21 -33 -26 -36 -72 -36 -27 0 -49 4 -49 9 0 5 -2
16 -5 23 -3 8 5 26 19 41 28 30 79 36 111 13z"/>
<path d="M4895 3034 c-39 -20 -103 -81 -121 -117 -56 -106 -25 -255 69 -331
33 -27 47 -31 96 -31 71 0 176 49 220 102 71 86 68 255 -6 329 -57 57 -192 82
-258 48z m135 -194 c14 -26 9 -33 -45 -70 -42 -29 -44 -30 -55 -11 -14 28 -13
39 11 72 25 36 72 40 89 9z"/>
<path d="M3357 814 c-44 -14 -77 -28 -74 -31 3 -3 49 5 103 17 65 15 92 25 83
31 -19 12 -24 11 -112 -17z"/>
<path d="M1590 391 c0 -6 5 -13 10 -16 6 -3 10 1 10 9 0 9 -4 16 -10 16 -5 0
-10 -4 -10 -9z"/>
</g>
</svg>
