<?xml version="1.0" standalone="no"?>
<!DOCTYPE svg PUBLIC "-//W3C//DTD SVG 20010904//EN"
 "http://www.w3.org/TR/2001/REC-SVG-20010904/DTD/svg10.dtd">
<svg version="1.0" xmlns="http://www.w3.org/2000/svg"
 width="1024.000000pt" height="1024.000000pt" viewBox="0 0 1024.000000 1024.000000"
 preserveAspectRatio="xMidYMid meet">
<metadata>
Created by potrace 1.10, written by Peter Selinger 2001-2011
</metadata>
<g transform="translate(0.000000,1024.000000) scale(0.100000,-0.100000)"
fill="#000000" stroke="none">
<path d="M4773 8710 c-32 -16 -72 -43 -88 -60 -27 -28 -28 -31 -14 -57 8 -15
44 -59 80 -98 108 -116 163 -208 201 -342 21 -73 23 -96 23 -383 l0 -304 -570
-77 -570 -77 -150 14 c-82 7 -167 16 -188 18 -36 4 -39 2 -59 -38 -20 -41 -20
-44 -3 -80 25 -52 85 -101 211 -174 128 -73 238 -121 276 -122 43 0 389 74
733 158 l320 78 3 -450 c1 -247 1 -450 0 -451 -2 -1 -253 -37 -558 -79 l-555
-77 -154 15 c-218 22 -212 23 -238 -22 -21 -38 -21 -39 -4 -78 24 -52 47 -71
176 -149 153 -92 246 -136 297 -142 32 -3 166 25 530 111 269 64 492 116 498
116 7 0 10 -136 10 -393 l0 -394 -687 -98 -688 -98 -214 18 c-248 21 -241 23
-241 -73 0 -51 3 -58 39 -92 22 -21 75 -56 118 -77 43 -22 126 -66 184 -97
115 -61 206 -96 248 -96 15 0 283 61 595 135 313 74 571 133 573 131 6 -6
-151 -335 -239 -500 -356 -667 -979 -1532 -1571 -2185 -128 -141 -108 -137
131 25 218 148 391 294 622 524 260 260 387 412 768 919 281 373 358 469 360
450 1 -13 -13 -483 -31 -1044 -21 -636 -31 -1052 -26 -1104 11 -126 37 -220
88 -322 56 -113 98 -152 165 -153 58 -1 93 25 128 94 64 130 61 63 67 1617 l6
1412 212 -232 c116 -128 239 -266 274 -307 125 -151 293 -384 372 -516 20 -34
57 -80 82 -103 39 -36 51 -41 90 -41 68 0 103 22 131 84 36 80 42 185 15 274
-75 249 -420 544 -1053 901 l-128 72 0 114 0 114 53 10 c145 29 952 181 1017
191 130 21 230 58 272 100 41 41 46 63 24 113 -27 63 -83 103 -191 136 l-100
30 -535 -122 -535 -123 -3 390 c-1 214 -1 390 0 391 2 2 174 35 383 74 545
103 532 100 591 122 52 20 104 67 104 94 0 29 -19 61 -59 101 -36 35 -56 45
-140 68 l-99 28 -114 -26 c-62 -15 -237 -55 -388 -89 l-275 -63 -3 445 c-1
244 -1 445 0 446 2 2 197 37 433 79 565 100 581 103 643 132 92 45 101 100 29
174 -46 47 -62 55 -162 80 l-90 23 -395 -86 c-217 -48 -410 -90 -429 -94 l-34
-6 6 359 c4 290 8 372 22 429 20 83 15 119 -24 166 -46 55 -92 77 -478 225
l-61 23 -59 -29z"/>
</g>
</svg>
