<?xml version="1.0" standalone="no"?>
<!DOCTYPE svg PUBLIC "-//W3C//DTD SVG 20010904//EN"
 "http://www.w3.org/TR/2001/REC-SVG-20010904/DTD/svg10.dtd">
<svg version="1.0" xmlns="http://www.w3.org/2000/svg"
 width="1024.000000pt" height="1024.000000pt" viewBox="0 0 1024.000000 1024.000000"
 preserveAspectRatio="xMidYMid meet">
<metadata>
Created by potrace 1.10, written by Peter Selinger 2001-2011
</metadata>
<g transform="translate(0.000000,1024.000000) scale(0.100000,-0.100000)"
fill="#000000" stroke="none">
<path d="M5875 9337 c-94 -61 -148 -181 -126 -278 6 -24 11 -63 11 -85 0 -25
6 -47 15 -54 10 -8 169 -31 405 -59 213 -25 391 -49 394 -52 4 -3 -470 -964
-1052 -2135 -583 -1171 -1062 -2139 -1066 -2151 -8 -25 4 -19 -196 -90 -186
-65 -210 -78 -555 -295 -426 -268 -754 -553 -1102 -958 -17 -19 -156 -201
-310 -404 -274 -360 -286 -378 -507 -750 -124 -210 -226 -389 -226 -398 0 -30
12 -49 41 -64 34 -17 55 -9 91 34 13 16 50 44 83 62 71 40 350 256 452 351 40
37 245 199 455 362 211 162 425 327 477 367 52 40 90 67 86 59 -37 -60 -357
-515 -395 -561 -66 -79 -415 -659 -473 -786 -26 -57 -47 -117 -47 -132 0 -31
30 -60 62 -60 9 0 319 316 706 722 680 713 762 798 762 786 0 -3 -165 -342
-366 -754 -201 -412 -375 -778 -386 -814 -11 -36 -26 -72 -33 -80 -22 -25 -44
-116 -36 -146 4 -15 19 -37 34 -48 26 -19 27 -19 47 -1 11 10 20 23 20 29 0 5
11 19 24 31 13 11 290 373 616 805 326 432 597 789 602 795 5 5 -10 -44 -32
-110 -23 -66 -131 -381 -240 -700 -108 -319 -209 -601 -224 -627 -15 -26 -26
-63 -26 -83 0 -20 -6 -46 -14 -58 -8 -12 -17 -38 -21 -57 -4 -19 -17 -51 -30
-70 -15 -22 -35 -88 -56 -183 -36 -164 -33 -192 18 -202 15 -3 50 -10 77 -16
62 -15 81 -2 161 116 34 48 73 96 88 107 15 11 27 27 27 35 0 9 102 151 227
316 124 165 251 343 280 396 30 53 60 103 67 111 7 8 18 31 25 50 6 19 22 46
35 60 13 14 65 137 121 285 54 143 108 280 121 305 13 25 58 146 100 270 79
233 91 264 129 340 13 27 29 90 39 159 10 63 24 131 31 150 8 21 22 164 35
336 l21 300 -31 170 c-18 101 -41 192 -55 224 -35 75 -106 171 -165 223 l-51
44 80 170 c44 93 104 219 133 279 30 61 446 950 924 1977 l869 1866 70 -5 c45
-3 74 -11 82 -20 12 -15 118 -26 862 -85 119 -9 158 -16 170 -29 22 -23 87
-42 117 -35 38 10 122 93 150 148 57 113 62 200 13 262 -31 39 -57 50 -84 36
-18 -10 -230 18 -1213 159 -945 135 -1197 168 -1216 160 -17 -8 -29 -8 -44 0
-26 14 -20 16 -77 -22z m1337 -273 c1071 -161 1188 -181 1188 -197 0 -26 -24
-68 -57 -100 l-29 -27 -540 74 c-433 60 -549 79 -589 98 -40 18 -68 23 -139
23 l-90 0 -33 -65 c-18 -36 -481 -1035 -1029 -2220 -548 -1185 -1000 -2159
-1004 -2163 -7 -8 -221 29 -246 42 -12 6 471 1040 535 1146 17 28 338 681 714
1452 478 979 705 1433 752 1507 56 86 69 114 72 153 2 26 13 69 25 95 12 27
19 50 16 53 -3 3 -197 29 -431 58 l-425 51 -11 35 c-7 23 -7 39 -1 45 6 6 10
19 10 31 0 11 17 38 37 59 28 28 43 37 62 34 15 -2 560 -85 1213 -184z m-2432
-4885 c83 -22 238 -85 258 -104 13 -12 23 -44 45 -140 6 -27 11 -124 10 -215
-1 -198 -23 -342 -82 -540 -22 -74 -63 -238 -92 -365 -36 -163 -58 -240 -75
-266 -13 -19 -24 -39 -24 -45 0 -5 -9 -25 -19 -45 -11 -20 -25 -56 -31 -80 -7
-24 -20 -55 -29 -69 -10 -14 -26 -50 -37 -80 -10 -30 -28 -70 -41 -89 -12 -19
-36 -71 -54 -115 -18 -45 -38 -88 -45 -96 -7 -8 -94 -179 -194 -379 -151 -304
-206 -403 -333 -600 -148 -229 -152 -234 -155 -198 -2 21 1 44 6 50 5 7 152
442 327 967 175 525 322 960 327 967 5 6 23 82 39 168 16 86 35 169 43 183 7
15 18 47 24 72 11 45 11 45 -31 88 l-43 42 -22 -20 c-12 -11 -22 -30 -22 -41
0 -11 -7 -34 -16 -52 -23 -45 -1086 -1609 -1090 -1604 -9 9 63 163 266 567
218 435 575 1221 566 1246 -11 29 -55 27 -99 -2 -63 -43 -197 -179 -259 -264
-56 -75 -248 -270 -267 -270 -6 0 -207 -228 -447 -507 -240 -280 -448 -519
-461 -533 l-25 -25 17 35 c10 19 265 396 567 837 486 710 555 805 594 828 74
44 83 86 29 134 -49 43 -68 40 -112 -19 -20 -27 -75 -80 -122 -118 -47 -38
-286 -243 -531 -457 -245 -213 -519 -444 -610 -513 -163 -124 -381 -304 -513
-423 -69 -63 -70 -63 -33 23 23 54 509 717 648 884 190 229 560 590 798 780
257 205 358 263 613 354 l192 69 235 0 c208 1 244 -1 310 -20z"/>
<path d="M9735 1135 c-5 -2 -23 -6 -40 -10 l-30 -7 45 -14 c25 -8 46 -14 48
-14 1 0 2 11 2 25 0 24 -4 27 -25 20z"/>
</g>
</svg>
