<?xml version="1.0" standalone="no"?>
<!DOCTYPE svg PUBLIC "-//W3C//DTD SVG 20010904//EN"
 "http://www.w3.org/TR/2001/REC-SVG-20010904/DTD/svg10.dtd">
<svg version="1.0" xmlns="http://www.w3.org/2000/svg"
 width="1024.000000pt" height="1024.000000pt" viewBox="0 0 1024.000000 1024.000000"
 preserveAspectRatio="xMidYMid meet">
<metadata>
Created by potrace 1.10, written by Peter Selinger 2001-2011
</metadata>
<g transform="translate(0.000000,1024.000000) scale(0.100000,-0.100000)"
fill="#000000" stroke="none">
<path d="M5118 9312 c-33 -14 -88 -73 -88 -95 0 -23 -62 -911 -64 -913 0 -1
-147 -76 -327 -167 -321 -164 -326 -166 -413 -176 -63 -8 -100 -18 -131 -36
-68 -39 -107 -105 -82 -139 11 -14 40 -18 205 -27 l193 -10 276 141 c151 77
277 140 279 140 2 0 4 -105 4 -234 l0 -234 -139 -81 c-193 -113 -347 -184
-533 -245 -134 -45 -166 -59 -195 -89 -29 -29 -37 -44 -41 -86 -4 -45 -1 -55
19 -77 22 -24 29 -25 84 -20 89 10 254 52 350 91 95 39 168 77 340 181 l120
72 3 -141 c2 -78 0 -174 -3 -213 l-6 -71 -506 -249 -505 -249 -24 -47 c-27
-54 -22 -83 24 -130 21 -23 35 -28 71 -28 39 0 69 13 191 81 146 82 740 383
744 377 2 -2 -12 -275 -30 -608 -18 -333 -33 -628 -33 -656 l-1 -52 -186 -7
c-212 -9 -229 -6 -323 55 -93 60 -154 127 -181 199 -26 70 -85 131 -125 131
-28 0 -80 -21 -107 -43 -30 -24 -7 -126 50 -217 58 -94 187 -223 272 -273 137
-79 328 -118 491 -98 51 6 94 9 96 7 2 -2 1 -161 -3 -353 l-7 -349 -116 -37
c-236 -76 -534 -245 -723 -410 -139 -122 -282 -306 -363 -467 -16 -30 -104
-238 -196 -462 -183 -446 -213 -544 -263 -848 -33 -200 -46 -370 -46 -581 l0
-171 38 -48 c39 -51 68 -70 105 -70 51 1 67 36 67 147 0 242 33 567 81 803 49
243 90 370 244 750 l148 365 153 186 c112 135 177 204 241 256 115 92 232 170
342 227 89 46 259 116 282 116 8 0 10 -351 4 -1427 -6 -1387 -6 -1429 12
-1462 39 -70 123 -90 157 -38 24 36 64 188 82 309 18 125 18 170 -11 1523 -8
374 -15 787 -15 918 0 230 1 237 20 237 11 0 118 7 237 16 120 8 232 13 248
11 17 -3 65 -19 108 -37 69 -29 85 -41 149 -114 184 -210 285 -428 323 -696
49 -345 76 -817 82 -1440 5 -492 4 -549 -11 -577 -47 -91 15 -194 116 -193 65
1 75 20 92 186 41 396 44 778 12 1525 -20 462 -49 628 -147 851 -22 51 -45
108 -50 126 -18 61 -128 269 -175 331 -46 61 -137 137 -209 173 -72 37 -291
106 -370 117 -109 16 -166 14 -283 -9 -56 -11 -109 -20 -117 -20 -13 0 -15 49
-15 348 l0 347 138 54 c330 130 541 293 733 569 100 144 118 174 124 212 9 51
-19 114 -70 159 -32 28 -43 32 -73 27 -19 -3 -35 -6 -37 -8 -1 -2 -41 -78 -90
-169 l-88 -166 -151 -137 c-149 -135 -153 -137 -313 -216 -151 -73 -163 -77
-163 -57 0 28 36 801 50 1087 6 118 13 225 16 237 12 62 468 236 769 293 33 6
68 14 78 17 29 8 57 63 57 112 0 36 -6 49 -34 77 -31 31 -39 34 -97 34 -57 0
-94 -12 -406 -135 -189 -74 -346 -135 -349 -135 -2 0 -3 105 -2 233 l3 232 55
37 c148 101 519 265 745 329 98 28 151 66 165 119 30 112 -69 168 -209 120
-117 -41 -533 -239 -698 -333 l-63 -36 0 237 0 237 48 29 c26 17 116 74 200
129 218 141 353 197 541 226 90 14 104 21 125 65 19 40 21 85 4 120 -14 33
-83 66 -136 66 -55 0 -223 -72 -532 -227 -134 -68 -245 -123 -245 -123 -7 0
31 429 45 513 24 141 24 149 4 216 -11 37 -29 66 -59 97 -46 46 -49 47 -77 36z"/>
<path d="M9755 1551 c-17 -7 -16 -9 10 -15 17 -4 38 -9 48 -12 12 -4 17 0 17
15 0 16 -6 21 -27 20 -16 0 -37 -4 -48 -8z"/>
</g>
</svg>
