<?xml version="1.0" standalone="no"?>
<!DOCTYPE svg PUBLIC "-//W3C//DTD SVG 20010904//EN"
 "http://www.w3.org/TR/2001/REC-SVG-20010904/DTD/svg10.dtd">
<svg version="1.0" xmlns="http://www.w3.org/2000/svg"
 width="1024.000000pt" height="1024.000000pt" viewBox="0 0 1024.000000 1024.000000"
 preserveAspectRatio="xMidYMid meet">
<metadata>
Created by potrace 1.10, written by Peter Selinger 2001-2011
</metadata>
<g transform="translate(0.000000,1024.000000) scale(0.100000,-0.100000)"
fill="#000000" stroke="none">
<path d="M4204 9705 c-10 -8 -26 -15 -34 -15 -21 0 -120 -88 -120 -106 0 -7
-12 -63 -26 -123 l-25 -109 -50 -7 c-39 -6 -53 -13 -71 -38 -26 -36 -36 -132
-20 -190 8 -29 7 -44 -5 -68 -36 -71 9 -157 95 -182 27 -8 50 -23 59 -38 15
-24 12 -38 -40 -225 -51 -182 -66 -221 -175 -449 -66 -137 -129 -277 -142
-310 -61 -166 -97 -445 -71 -564 6 -30 32 -95 56 -145 32 -65 47 -108 51 -151
4 -43 -14 -220 -61 -610 -36 -302 -70 -575 -75 -605 -24 -153 -5 -390 46 -552
53 -168 102 -259 218 -403 72 -89 140 -226 166 -335 13 -54 24 -150 30 -260
18 -327 64 -522 209 -878 l50 -123 -37 30 c-20 16 -79 63 -131 104 -66 52
-138 98 -237 147 -114 57 -153 83 -192 124 -98 103 -114 161 -116 406 -1 209
-11 251 -76 337 -64 85 -151 133 -316 173 -26 6 -55 25 -81 50 -37 37 -46 60
-125 303 l-85 262 35 275 c40 314 38 379 -17 495 -36 78 -81 128 -196 220
-108 86 -160 146 -214 246 -90 168 -101 272 -56 534 30 179 29 240 -6 311 -35
74 -141 136 -203 120 -14 -3 -41 -19 -58 -35 l-32 -29 12 -83 c49 -324 40
-413 -57 -554 -133 -195 -304 -409 -503 -633 -71 -78 -128 -150 -128 -158 0
-9 -14 -46 -30 -84 -45 -102 -57 -196 -37 -294 12 -58 14 -90 7 -125 -5 -25
-21 -255 -35 -511 -24 -461 -46 -670 -84 -840 -48 -209 -52 -420 -12 -616 43
-210 111 -349 287 -591 186 -255 402 -591 568 -885 39 -69 241 -294 282 -313
57 -27 96 -2 112 73 7 28 7 56 0 79 -5 20 -96 155 -202 302 -106 146 -230 322
-276 391 -46 69 -119 170 -163 225 -163 203 -264 383 -338 606 -23 67 -43 148
-46 178 -3 31 12 272 33 536 29 374 38 541 39 755 1 306 5 336 76 558 21 68
39 143 39 168 0 48 -20 107 -47 136 -15 17 -15 21 1 56 70 146 379 549 539
701 l36 34 18 -33 c50 -91 146 -210 237 -294 214 -197 235 -225 258 -345 13
-69 7 -137 -26 -306 -38 -189 -35 -243 20 -438 25 -89 52 -191 59 -227 8 -36
31 -108 52 -160 57 -142 93 -174 310 -275 l173 -79 0 -52 c0 -70 57 -468 76
-525 8 -25 27 -59 42 -77 15 -17 167 -132 338 -254 262 -188 337 -247 473
-376 103 -97 181 -161 214 -178 29 -14 71 -44 93 -66 42 -40 42 -40 100 -33
69 8 94 32 101 99 4 34 -1 50 -29 91 -18 28 -50 59 -70 70 -36 19 -39 24 -59
115 -15 67 -34 117 -65 170 -61 107 -137 271 -167 365 -59 181 -81 312 -97
585 -7 133 -16 198 -35 269 -34 126 -38 134 -219 451 -206 361 -201 345 -200
665 2 337 31 604 100 900 47 202 58 299 47 405 -13 113 -50 231 -102 320 -37
62 -38 70 -44 180 -7 132 5 248 34 334 12 33 99 216 194 406 95 190 184 379
196 420 33 105 33 262 1 375 -59 204 -57 190 -33 223 12 17 24 51 27 76 l7 45
38 -113 c64 -191 165 -367 298 -520 34 -38 61 -78 61 -88 0 -10 17 -37 39 -61
103 -113 172 -235 218 -384 26 -84 27 -98 29 -328 1 -220 3 -245 23 -296 28
-73 65 -124 131 -179 137 -115 140 -121 226 -362 l79 -221 79 -84 79 -84 -38
-160 c-41 -176 -42 -214 -1 -304 30 -65 95 -146 150 -187 l45 -33 -1 -70 c-1
-100 30 -160 105 -210 26 -17 27 -19 27 -124 0 -185 41 -294 154 -406 39 -38
87 -79 107 -89 35 -18 37 -23 58 -120 56 -255 54 -249 203 -432 200 -246 288
-331 441 -427 50 -31 103 -66 116 -78 13 -11 36 -23 51 -26 15 -3 42 -20 60
-39 17 -19 35 -34 40 -34 4 0 46 16 92 36 45 20 124 46 173 59 78 20 87 24 66
32 -37 15 -54 82 -34 136 42 117 -59 771 -192 1242 -19 66 -99 410 -177 765
l-143 645 4 230 c8 373 7 800 -2 951 l-8 140 72 87 c40 48 74 85 76 83 2 -2
-1 -123 -7 -267 -7 -145 -13 -309 -13 -364 l-2 -100 158 -325 158 -325 100
-394 c55 -216 107 -405 116 -418 9 -13 20 -46 24 -72 11 -72 220 -420 395
-658 49 -67 54 -78 73 -180 12 -59 21 -139 21 -178 0 -95 -57 -369 -87 -415
-28 -43 -53 -114 -53 -149 0 -42 20 -101 41 -122 22 -22 33 -21 119 18 98 43
132 89 155 206 19 97 46 173 100 277 84 165 133 310 160 473 12 77 12 112 0
274 -8 102 -26 238 -39 302 -14 64 -31 166 -40 226 -19 140 -31 366 -18 345 5
-8 30 -67 55 -130 94 -236 146 -467 167 -745 6 -77 17 -180 25 -230 24 -148
15 -346 -18 -414 -8 -16 -32 -31 -73 -45 -79 -29 -120 -59 -156 -115 -84 -133
-108 -350 -55 -505 31 -90 33 -114 12 -182 -76 -261 -1 -438 232 -546 48 -22
147 -80 219 -130 132 -90 132 -90 174 -171 36 -68 43 -92 47 -156 l5 -76 -43
-65 c-94 -140 -234 -263 -384 -338 -206 -103 -539 -203 -820 -247 -194 -30
-295 -59 -413 -119 -50 -26 -52 -28 -52 -69 0 -23 13 -92 29 -153 19 -77 25
-117 19 -128 -5 -9 -18 -49 -29 -87 -21 -75 -52 -143 -94 -205 -14 -20 -25
-46 -25 -56 0 -47 -242 -305 -401 -428 -46 -36 -109 -88 -139 -117 -57 -53
-111 -83 -151 -83 -11 0 -51 -13 -88 -30 -153 -67 -355 -119 -536 -138 -49 -6
-207 -8 -350 -5 l-260 6 -32 -27 c-30 -25 -53 -76 -53 -118 0 -9 20 -31 44
-48 l45 -30 493 30 c533 34 605 44 775 109 88 34 216 110 283 168 25 21 79 64
120 95 167 126 329 298 451 479 120 179 169 321 169 488 0 53 -4 112 -9 132
l-8 36 446 122 c564 155 636 182 846 325 114 78 274 234 308 301 47 95 60 159
54 270 -9 174 -73 328 -185 446 -78 83 -161 138 -286 189 -103 42 -180 89
-190 115 -10 26 -7 65 10 145 23 106 14 269 -19 371 -22 69 -23 80 -11 109 8
18 14 57 14 86 0 48 2 54 20 54 67 0 186 114 248 239 60 120 68 187 49 396 -9
94 -19 235 -22 315 -11 317 -78 611 -205 896 -28 62 -50 125 -50 140 0 14 -18
85 -40 156 -22 72 -40 137 -40 145 0 30 -33 84 -61 98 -15 8 -44 15 -64 15
-43 0 -57 -14 -138 -132 -74 -108 -97 -191 -104 -378 -6 -156 13 -324 52 -471
14 -52 36 -161 48 -244 22 -139 23 -162 13 -302 -6 -83 -14 -154 -17 -157 -3
-4 -20 24 -37 61 -16 38 -96 173 -176 302 -80 129 -146 241 -146 248 0 7 -14
35 -30 61 -69 112 -160 348 -160 414 0 17 -43 174 -95 348 -52 174 -95 328
-95 342 0 14 -8 36 -19 49 -10 13 -24 42 -31 64 -22 69 -57 129 -114 200 -31
37 -60 84 -65 104 -14 54 -16 967 -2 1011 16 50 14 119 -6 176 -22 65 -120
164 -162 164 -16 0 -40 9 -54 20 -36 29 -68 25 -104 -12 -37 -39 -49 -78 -58
-178 -13 -159 -62 -276 -166 -400 -58 -68 -59 -72 -65 -143 -5 -52 -2 -96 11
-153 16 -76 16 -100 -2 -484 -20 -442 -21 -610 -4 -722 6 -40 45 -237 85 -438
41 -201 86 -425 100 -499 15 -74 49 -200 76 -280 28 -80 63 -191 79 -246 27
-94 193 -917 193 -960 1 -57 -27 -146 -53 -171 -25 -24 -28 -25 -55 -11 -83
44 -219 162 -400 347 -226 231 -245 259 -267 396 -8 49 -21 105 -30 124 -8 19
-71 100 -141 179 -69 79 -127 153 -128 165 -1 12 -2 84 -3 161 0 133 -1 143
-28 197 -16 32 -49 76 -76 100 -46 41 -49 48 -61 118 -6 41 -21 94 -31 117
-27 57 -89 124 -149 163 -27 18 -50 34 -50 36 0 2 18 88 41 191 26 117 39 200
35 221 -3 22 -22 52 -54 86 -79 83 -130 183 -182 350 -51 169 -124 282 -265
414 -96 90 -88 59 -85 322 1 162 -14 270 -56 395 -44 133 -121 270 -212 380
-23 27 -42 53 -42 57 0 5 -21 34 -47 66 -131 161 -283 437 -353 642 -27 79
-33 111 -34 190 -1 113 -21 155 -95 201 -50 32 -78 36 -107 14z"/>
<path d="M9125 9003 c-55 -13 -99 -86 -92 -151 7 -65 34 -96 87 -100 38 -3 47
1 81 34 74 73 73 139 -4 195 -22 16 -43 28 -46 28 -3 -1 -15 -3 -26 -6z"/>
<path d="M2318 8505 c-54 -20 -92 -51 -119 -98 -24 -43 -23 -41 -20 -223 2
-69 46 -134 92 -134 39 0 76 20 118 64 30 31 33 39 28 75 -4 31 -1 44 15 58
23 21 52 75 62 115 9 39 -15 89 -60 126 -42 35 -60 38 -116 17z"/>
<path d="M8908 8483 c-34 -5 -48 -27 -126 -193 -118 -249 -143 -448 -65 -509
34 -27 113 -29 135 -3 9 9 41 114 72 232 32 118 65 226 75 240 34 48 51 89 51
126 0 30 -7 44 -40 76 -23 21 -49 37 -58 37 -9 -1 -29 -4 -44 -6z"/>
<path d="M1030 7872 c-9 -4 -32 -20 -52 -37 -32 -25 -38 -37 -44 -81 -13 -109
33 -164 136 -164 47 0 60 5 94 33 35 30 38 37 39 85 1 60 -18 92 -79 134 -45
30 -73 39 -94 30z"/>
<path d="M975 6370 c-11 -5 -39 -9 -63 -9 -87 -2 -143 -53 -150 -136 -4 -55
-4 -55 45 -105 44 -44 55 -50 92 -50 56 0 106 27 167 92 64 67 83 118 59 154
-25 39 -112 70 -150 54z"/>
<path d="M4752 4492 c-49 -45 -50 -57 -23 -164 24 -95 69 -200 115 -272 40
-63 60 -125 57 -178 -3 -42 30 -112 58 -128 35 -18 74 -11 106 19 25 25 35 28
60 23 36 -9 122 -56 179 -98 38 -28 41 -34 39 -73 -2 -36 -13 -57 -84 -147
l-83 -106 -18 67 c-25 91 -52 140 -107 195 -56 55 -82 57 -131 8 -34 -34 -35
-44 -19 -218 18 -196 53 -332 125 -489 31 -66 129 -222 184 -291 18 -22 23
-62 46 -360 14 -184 32 -364 40 -399 36 -158 127 -316 241 -419 88 -80 86 -78
136 -142 54 -69 110 -112 184 -141 51 -20 77 -23 213 -23 146 -1 160 0 235 27
43 15 106 42 140 60 78 42 193 156 228 227 29 61 57 159 57 202 0 20 12 37 46
65 95 79 166 194 201 328 13 49 34 90 66 135 26 35 52 80 57 100 5 19 17 136
26 259 l18 224 44 50 c76 86 99 160 67 221 -15 28 -14 30 30 77 35 38 45 56
45 83 0 41 -35 87 -79 106 -29 11 -37 8 -143 -51 -288 -160 -430 -300 -534
-524 -19 -41 -38 -75 -41 -75 -4 0 -33 10 -64 22 l-57 22 -26 189 c-29 207
-44 254 -100 310 -46 46 -79 63 -156 81 -57 13 -89 12 -388 -15 -180 -16 -335
-29 -345 -29 -14 0 -4 18 42 78 113 145 156 299 116 413 -32 89 -156 176 -266
187 -43 4 -46 6 -62 48 -9 25 -33 70 -53 100 -38 58 -129 138 -144 129 -5 -3
-14 14 -20 37 -34 131 -64 191 -124 246 -57 52 -81 53 -134 4z m1375 -1460
c19 -15 25 -37 43 -178 25 -196 40 -245 96 -300 l42 -42 -24 -36 c-40 -59 -46
-82 -28 -124 34 -81 79 -107 157 -91 107 23 203 119 330 330 78 129 209 295
192 244 -35 -109 -43 -191 -35 -366 l5 -87 -47 -50 c-53 -57 -82 -109 -99
-178 -17 -72 -43 -112 -118 -180 -97 -90 -151 -201 -151 -315 0 -44 -3 -50
-60 -102 -67 -62 -190 -128 -285 -152 -32 -8 -94 -15 -136 -15 l-77 0 -48 60
c-30 37 -59 62 -75 65 -15 4 -34 14 -43 23 -44 49 -256 360 -256 375 0 11 -9
31 -20 47 -19 26 -19 32 -5 196 18 204 19 305 4 376 -15 70 -69 183 -113 235
-20 22 -36 44 -36 48 0 4 -27 52 -60 107 -34 55 -59 102 -56 105 2 2 28 0 57
-6 35 -6 109 -6 209 0 533 33 608 34 637 11z"/>
<path d="M6764 3865 c4 -16 12 -34 17 -40 5 -5 4 6 -2 25 -15 45 -24 54 -15
15z"/>
<path d="M1437 1882 c-23 -3 -34 -16 -69 -85 l-41 -82 12 -69 c6 -38 20 -88
30 -110 28 -63 93 -139 152 -178 32 -20 267 -119 563 -237 l510 -202 360 -90
c355 -90 364 -91 531 -101 278 -15 409 -49 522 -135 97 -74 280 -150 426 -178
140 -27 371 -11 432 29 52 34 59 102 15 143 l-31 29 -270 17 -270 17 -90 77
c-51 44 -117 90 -152 106 -76 36 -544 131 -747 153 -255 27 -457 70 -640 137
-132 48 -621 240 -617 242 1 1 110 -12 243 -30 342 -46 518 -39 580 26 22 23
27 37 26 74 -1 76 -14 81 -221 88 -199 7 -293 17 -466 52 -243 49 -567 171
-680 256 -73 55 -73 56 -108 51z"/>
<path d="M5040 1828 c0 -15 5 -30 11 -33 19 -12 21 2 5 32 l-15 28 -1 -27z"/>
</g>
</svg>
