<?xml version="1.0" standalone="no"?>
<!DOCTYPE svg PUBLIC "-//W3C//DTD SVG 20010904//EN"
 "http://www.w3.org/TR/2001/REC-SVG-20010904/DTD/svg10.dtd">
<svg version="1.0" xmlns="http://www.w3.org/2000/svg"
 width="1024.000000pt" height="1024.000000pt" viewBox="0 0 1024.000000 1024.000000"
 preserveAspectRatio="xMidYMid meet">
<metadata>
Created by potrace 1.10, written by Peter Selinger 2001-2011
</metadata>
<g transform="translate(0.000000,1024.000000) scale(0.100000,-0.100000)"
fill="#000000" stroke="none">
<path d="M6036 6579 c-37 -29 -56 -71 -56 -123 0 -53 12 -84 57 -148 19 -25
49 -79 68 -120 19 -40 52 -95 75 -123 67 -81 227 -241 304 -304 213 -174 497
-318 751 -381 209 -52 407 3 579 162 154 142 232 289 256 485 28 222 -40 358
-224 448 -230 114 -484 71 -690 -116 -33 -30 -83 -70 -110 -89 l-49 -33 -202
6 -202 7 -144 60 c-79 34 -162 72 -184 85 -53 31 -119 103 -147 160 -25 50
-42 56 -82 24z"/>
<path d="M3600 6503 c-124 -194 -369 -380 -573 -434 -43 -12 -50 -11 -97 11
-35 18 -60 41 -86 78 -44 62 -136 149 -179 167 -16 8 -100 19 -185 25 l-155
11 -75 -38 c-130 -66 -230 -176 -279 -307 -55 -149 -67 -266 -37 -370 27 -93
133 -228 208 -267 108 -56 373 -71 523 -30 100 27 241 96 320 156 139 106 365
308 431 386 167 197 294 442 294 567 0 56 -23 123 -45 129 -5 1 -35 -37 -65
-84z"/>
<path d="M6616 5510 c7 -40 24 -76 23 -50 0 8 -7 31 -15 50 l-14 35 6 -35z"/>
<path d="M3665 4454 c-22 -15 -67 -53 -100 -84 -33 -32 -76 -66 -95 -75 -19
-10 -80 -55 -135 -99 -486 -396 -476 -388 -638 -478 -88 -48 -163 -86 -167
-83 -5 3 -18 34 -30 69 -12 36 -43 95 -69 133 -126 179 -293 266 -516 267 -92
1 -106 -2 -177 -32 -177 -77 -353 -240 -436 -407 -67 -134 -97 -277 -86 -422
6 -83 11 -100 43 -154 45 -76 152 -178 219 -210 28 -13 51 -29 52 -35 1 -28
142 -110 239 -138 69 -20 189 -20 266 -1 116 30 198 79 505 300 l306 220 329
345 c181 190 365 383 411 430 105 109 122 130 173 217 66 112 64 172 -6 238
-34 31 -39 31 -88 -1z"/>
<path d="M9030 4181 c-8 -4 -51 -11 -95 -14 -74 -4 -89 -9 -190 -63 -91 -49
-126 -75 -206 -154 -94 -93 -179 -217 -179 -262 0 -23 0 -23 -130 7 -115 25
-176 51 -209 86 -11 12 -90 45 -193 81 -249 86 -386 154 -464 228 -34 33 -65
60 -69 60 -13 0 -125 -84 -125 -94 0 -35 126 -255 209 -366 118 -156 213 -250
380 -374 91 -68 175 -133 186 -146 34 -38 221 -124 410 -189 99 -34 207 -75
240 -91 135 -67 249 -74 403 -26 42 13 108 32 145 41 125 32 234 124 296 250
119 243 146 334 138 465 -6 102 -49 228 -103 308 -44 63 -135 149 -196 185
-80 47 -219 85 -248 68z"/>
</g>
</svg>
