<?xml version="1.0" standalone="no"?>
<!DOCTYPE svg PUBLIC "-//W3C//DTD SVG 20010904//EN"
 "http://www.w3.org/TR/2001/REC-SVG-20010904/DTD/svg10.dtd">
<svg version="1.0" xmlns="http://www.w3.org/2000/svg"
 width="1024.000000pt" height="1024.000000pt" viewBox="0 0 1024.000000 1024.000000"
 preserveAspectRatio="xMidYMid meet">
<metadata>
Created by potrace 1.10, written by Peter Selinger 2001-2011
</metadata>
<g transform="translate(0.000000,1024.000000) scale(0.100000,-0.100000)"
fill="#000000" stroke="none">
<path d="M6901 5656 c-11 -13 20 -60 197 -299 l211 -284 202 -399 c111 -220
212 -413 225 -430 72 -97 197 -48 241 94 13 42 18 90 18 182 -1 113 -3 132
-28 195 -79 198 -254 394 -583 651 -90 71 -417 284 -459 300 -6 3 -17 -2 -24
-10z"/>
<path d="M5384 5563 c-9 -14 11 -49 109 -197 183 -276 238 -399 316 -708 53
-208 73 -246 145 -279 55 -25 130 -25 172 1 87 54 121 282 64 434 -41 108
-105 184 -365 436 -230 223 -257 245 -337 286 -48 24 -89 44 -90 44 -2 0 -8
-8 -14 -17z"/>
<path d="M2937 5488 c-9 -29 -18 -73 -22 -98 -30 -207 -215 -512 -476 -785
-115 -121 -165 -187 -205 -269 -42 -86 -50 -138 -34 -222 9 -48 21 -76 43
-101 29 -33 34 -35 76 -29 140 19 310 160 455 376 136 203 229 475 251 737 11
126 -33 418 -65 438 -5 3 -15 -18 -23 -47z"/>
<path d="M3958 5473 c-16 -15 -15 -19 11 -57 56 -84 214 -369 252 -457 53
-123 102 -288 139 -467 33 -162 56 -210 120 -243 66 -36 158 -19 193 34 45 69
66 236 43 345 -43 205 -232 464 -531 726 -98 86 -170 136 -195 136 -9 0 -23
-7 -32 -17z"/>
</g>
</svg>
