<?xml version="1.0" standalone="no"?>
<!DOCTYPE svg PUBLIC "-//W3C//DTD SVG 20010904//EN"
 "http://www.w3.org/TR/2001/REC-SVG-20010904/DTD/svg10.dtd">
<svg version="1.0" xmlns="http://www.w3.org/2000/svg"
 width="1024.000000pt" height="1024.000000pt" viewBox="0 0 1024.000000 1024.000000"
 preserveAspectRatio="xMidYMid meet">
<metadata>
Created by potrace 1.10, written by Peter Selinger 2001-2011
</metadata>
<g transform="translate(0.000000,1024.000000) scale(0.100000,-0.100000)"
fill="#000000" stroke="none">
<path d="M5685 10046 c-16 -8 -48 -32 -70 -55 -21 -22 -44 -41 -51 -41 -19 0
-71 -65 -84 -107 -7 -21 -20 -49 -30 -63 -19 -28 -26 -47 -80 -206 -21 -61
-81 -208 -135 -325 l-98 -214 -68 -33 c-92 -44 -208 -132 -296 -224 -40 -42
-73 -75 -73 -74 -1 0 -7 161 -15 356 -7 195 -19 372 -25 392 -6 22 -32 59 -61
88 -39 39 -63 54 -115 70 -36 11 -87 20 -113 20 -56 0 -311 -34 -418 -55 -261
-53 -549 -160 -764 -285 -130 -76 -168 -133 -148 -221 7 -30 6 -51 -2 -71 -12
-30 -25 -33 -79 -18 -27 8 -46 6 -83 -6 -27 -9 -49 -14 -51 -13 -1 2 -19 67
-39 144 -35 131 -38 154 -46 353 -8 207 -9 214 -37 269 -38 75 -97 118 -147
109 -19 -4 -38 -14 -42 -24 -4 -9 -7 -127 -5 -262 l2 -245 52 -218 53 -218
-21 -14 c-57 -36 -231 -137 -240 -138 -9 -2 -95 538 -96 608 0 41 -29 117 -49
129 -6 4 -11 22 -11 39 0 44 -26 142 -52 197 -12 25 -46 69 -74 98 -66 65
-103 70 -151 20 -41 -43 -49 -78 -30 -131 9 -23 21 -69 27 -102 7 -36 27 -84
49 -121 33 -53 39 -71 45 -145 11 -121 42 -297 76 -424 16 -60 33 -146 39
-190 5 -44 15 -95 22 -113 6 -18 10 -34 8 -35 -2 -1 -44 -40 -94 -87 -446
-420 -733 -895 -829 -1372 -50 -244 -56 -420 -26 -686 47 -413 138 -743 336
-1226 172 -419 373 -739 634 -1011 156 -163 146 -148 121 -184 -29 -40 -27
-49 13 -53 l33 -3 -54 -120 c-57 -126 -82 -217 -128 -478 -94 -536 -152 -1570
-115 -2043 12 -147 43 -354 65 -431 18 -63 65 -108 104 -99 14 3 197 -2 407
-11 428 -19 423 -20 471 50 27 39 28 45 29 171 1 72 -15 421 -35 776 -36 606
-37 664 -30 953 8 290 10 313 34 393 14 46 30 84 34 84 5 0 51 -44 103 -99 51
-54 263 -272 471 -485 l379 -385 -16 -120 c-29 -210 -22 -384 39 -1014 46
-479 53 -575 44 -613 -39 -155 47 -286 241 -365 85 -34 245 -38 341 -9 92 28
156 60 192 96 23 23 28 35 25 69 -2 27 3 49 16 68 17 26 18 44 13 270 -6 254
-24 450 -58 645 -22 123 -38 382 -23 382 4 0 83 -38 174 -84 330 -168 660
-290 990 -366 107 -25 165 -31 400 -43 259 -14 283 -14 395 4 262 40 543 112
805 207 74 27 187 66 250 87 63 21 153 55 199 77 247 113 513 357 678 623 144
231 259 559 310 885 32 206 21 733 -23 1068 -49 381 -92 537 -307 1122 l-185
505 -268 390 -269 389 -246 224 -246 223 5 153 c14 465 -133 911 -401 1215
-223 252 -578 463 -924 546 -48 12 -73 23 -73 32 0 32 24 109 39 128 10 11 34
59 55 107 21 48 46 94 57 104 10 9 22 33 25 52 9 45 55 114 88 132 36 19 34
55 -8 145 -114 247 -333 429 -606 504 -87 24 -86 24 -125 7z m172 -272 c62
-27 174 -98 225 -142 19 -18 52 -56 72 -85 l36 -52 -31 -75 c-17 -41 -35 -79
-39 -84 -5 -5 -67 19 -140 55 -152 73 -180 100 -250 238 -33 67 -40 91 -36
116 7 36 20 50 51 58 25 6 46 0 112 -29z m-152 -501 c73 -56 186 -110 257
-123 28 -6 53 -11 54 -13 2 -1 -23 -58 -54 -125 l-56 -122 -156 0 c-195 0
-214 -6 -262 -72 -46 -63 -50 -107 -14 -143 24 -24 24 -24 202 -18 266 8 436
-14 655 -87 193 -64 293 -121 469 -267 172 -143 216 -190 284 -302 71 -119
183 -435 224 -636 21 -99 46 -275 40 -280 -2 -1 -68 40 -148 92 -301 196 -630
384 -918 524 -138 67 -144 69 -178 57 -77 -27 -102 -102 -52 -155 66 -72 390
-259 583 -338 50 -21 97 -43 105 -50 8 -7 89 -56 179 -110 148 -87 195 -123
485 -367 313 -263 325 -275 494 -471 246 -286 337 -421 491 -726 216 -429 370
-967 467 -1636 42 -291 52 -479 35 -655 -20 -203 -36 -267 -159 -638 l-117
-353 -113 -147 c-157 -203 -185 -224 -508 -386 -289 -143 -590 -256 -898 -336
-136 -36 -171 -41 -356 -51 -251 -14 -383 -8 -565 26 -338 63 -621 157 -916
306 -137 68 -793 497 -939 614 -358 284 -714 643 -1010 1015 -216 272 -400
608 -490 897 -39 125 -80 413 -80 568 0 248 45 495 106 581 19 27 46 66 61 87
29 43 42 132 25 176 -8 23 3 36 141 170 157 153 260 271 283 326 28 67 33 147
18 271 -8 66 -19 135 -24 154 -15 57 -49 266 -65 400 -13 111 -50 1192 -56
1650 -2 153 7 297 20 318 4 7 27 1 66 -18 97 -47 188 -63 328 -57 106 4 142
10 277 49 213 62 328 118 487 237 l42 32 0 -83 c-1 -46 4 -139 10 -208 38
-422 42 -450 134 -880 81 -380 91 -440 97 -565 4 -96 11 -147 20 -163 20 -30
92 -64 127 -60 24 3 30 11 50 69 32 93 46 200 38 278 -7 69 -12 87 -95 401
-28 107 -62 256 -75 330 l-23 135 77 84 c42 46 108 119 146 162 39 44 86 89
105 102 42 29 149 70 165 64 6 -3 24 1 41 8 26 11 44 47 163 313 l134 301 41
-56 c22 -30 68 -75 101 -100z m-1341 96 c-27 -30 -186 -135 -267 -175 -154
-78 -349 -124 -527 -124 -96 0 -109 2 -143 25 -20 14 -37 28 -37 31 0 9 222
111 310 142 188 66 415 108 649 120 34 2 34 2 15 -19z m-1354 -593 c0 -2 -9
-25 -20 -51 -16 -36 -17 -46 -6 -42 12 5 15 -25 19 -176 10 -434 58 -1471 72
-1572 8 -60 24 -166 35 -235 11 -69 25 -212 32 -318 l12 -193 -34 -26 c-98
-73 -318 -331 -371 -435 -16 -30 -20 -53 -16 -85 4 -40 1 -49 -44 -108 -27
-35 -49 -70 -49 -77 -1 -7 -14 -47 -31 -88 -16 -41 -38 -120 -49 -175 -10 -55
-26 -134 -36 -175 -32 -138 -24 -294 29 -595 26 -143 49 -270 52 -282 21 -92
-241 138 -414 362 -106 137 -107 140 -80 143 47 5 64 44 64 147 0 77 -3 95
-23 127 -33 53 -70 77 -110 71 -29 -5 -37 -13 -66 -70 l-32 -65 -159 353
c-202 452 -245 568 -299 810 -51 232 -83 554 -72 730 22 345 177 769 410 1118
303 453 616 707 1081 877 91 33 105 37 105 30z m-292 -4921 c20 -44 83 -160
139 -257 l102 -177 -25 -44 c-35 -64 -79 -188 -100 -287 -17 -74 -19 -124 -17
-380 3 -322 16 -602 40 -835 17 -172 28 -657 18 -821 l-7 -111 -72 -16 c-69
-14 -83 -14 -262 8 -104 12 -196 26 -205 29 -18 8 -30 86 -53 341 -24 260 -28
465 -16 725 22 481 51 778 116 1160 47 278 67 356 124 490 27 63 54 144 59
179 6 36 16 68 23 73 7 4 33 7 56 6 l44 -3 36 -80z m1775 -1978 c91 -65 168
-121 171 -126 3 -4 -1 -29 -9 -56 -8 -26 -15 -76 -15 -111 0 -49 103 -796 136
-983 l5 -34 -34 20 c-75 45 -150 65 -259 70 l-106 6 -6 56 c-26 236 -86 995
-86 1086 0 141 8 207 25 197 6 -4 86 -60 178 -125z m142 -1507 c89 -48 97 -65
24 -57 -30 4 -100 7 -156 7 -102 0 -103 0 -117 28 -9 17 -11 35 -5 49 8 21 12
22 96 16 77 -5 97 -10 158 -43z"/>
<path d="M6128 6493 c-16 -3 -37 -17 -49 -35 -20 -28 -21 -38 -15 -127 4 -54
16 -135 26 -180 13 -54 20 -117 20 -185 0 -70 6 -128 20 -181 11 -43 20 -105
20 -139 0 -87 103 -507 138 -565 33 -54 84 -84 133 -78 34 4 35 3 46 -37 6
-22 43 -124 82 -225 73 -189 111 -310 111 -350 0 -12 12 -38 27 -57 23 -31 27
-45 30 -137 5 -104 26 -180 62 -221 9 -10 21 -50 28 -90 6 -39 21 -98 33 -131
28 -76 24 -168 -10 -235 -13 -27 -77 -99 -160 -180 -111 -110 -143 -147 -169
-202 -18 -36 -31 -74 -29 -84 5 -26 52 -57 76 -50 11 4 79 72 152 151 73 80
135 145 139 145 3 0 24 -28 46 -62 40 -62 40 -62 44 -178 2 -84 -1 -134 -13
-179 -9 -35 -16 -98 -16 -142 0 -66 3 -82 20 -99 20 -20 56 -26 76 -12 6 4 25
61 42 128 26 99 32 139 32 228 0 164 -42 337 -95 386 -21 19 -25 33 -25 78 0
30 7 82 17 116 25 92 22 224 -6 316 -13 41 -32 92 -43 113 -10 21 -28 72 -38
114 -17 66 -18 77 -5 90 29 29 29 62 1 92 -14 15 -26 31 -26 37 0 5 -11 25
-24 45 -14 20 -28 53 -31 75 -19 104 -91 346 -121 407 -19 37 -32 67 -30 67
16 0 508 -349 539 -382 72 -78 187 -245 187 -272 0 -13 5 -28 10 -31 15 -9 60
-101 60 -123 0 -11 9 -31 20 -45 11 -14 20 -30 20 -36 0 -5 11 -27 25 -47 14
-20 25 -46 25 -58 0 -12 11 -52 25 -91 13 -38 25 -77 25 -86 0 -10 16 -41 36
-70 19 -29 66 -116 104 -194 38 -77 83 -163 100 -191 16 -28 40 -89 51 -135
27 -106 22 -217 -18 -371 -27 -102 -29 -106 -47 -92 -11 8 -29 14 -41 14 -27
0 -173 -147 -183 -185 -6 -20 -15 -29 -34 -31 -65 -7 -158 -82 -180 -146 -6
-16 -16 -27 -23 -26 -24 5 -125 -56 -137 -83 -7 -15 -38 -49 -70 -75 -57 -47
-77 -81 -63 -105 12 -18 105 -4 162 24 49 25 120 93 143 138 16 30 29 39 57
39 12 0 35 11 51 25 17 14 33 25 37 25 9 0 -5 -93 -16 -105 -5 -5 -9 -30 -9
-55 0 -26 -13 -82 -31 -131 -25 -69 -40 -94 -85 -140 -65 -65 -68 -92 -17
-122 28 -16 38 -17 69 -7 47 16 108 78 124 126 7 22 23 55 35 74 14 21 29 76
41 139 l18 104 43 31 c24 16 43 34 43 38 0 16 -43 93 -57 103 -13 10 -13 13 1
24 8 7 18 33 22 59 5 33 22 66 58 117 l51 70 3 -94 c2 -60 -3 -123 -14 -175
-10 -48 -20 -164 -24 -286 -5 -113 -11 -221 -15 -241 -8 -42 6 -57 60 -66 28
-5 41 -1 59 16 22 20 23 31 29 204 8 222 56 626 77 650 7 8 192 -225 280 -352
49 -71 121 -132 176 -149 32 -10 36 -9 46 13 15 33 6 58 -51 153 -56 94 -169
231 -230 280 -29 23 -41 41 -41 59 0 17 -13 38 -39 62 -30 27 -41 47 -46 80
-5 27 -17 53 -32 67 -23 22 -24 26 -18 101 13 152 -34 329 -127 471 -39 60
-260 552 -252 561 1 2 188 -5 415 -14 398 -17 413 -17 426 1 17 24 17 49 -2
64 -10 9 -125 17 -382 29 -346 15 -370 17 -406 38 -20 12 -37 29 -37 37 0 9
-11 23 -25 32 -21 14 -31 15 -50 6 -23 -10 -25 -9 -25 11 0 13 -15 43 -32 67
-18 24 -42 67 -53 95 -28 69 -84 150 -143 208 -27 26 -226 171 -442 320 l-393
273 -54 199 c-52 194 -55 210 -88 540 -19 192 -42 366 -52 399 -18 63 -67 136
-119 180 -18 14 -33 25 -35 25 -2 -1 -16 -4 -31 -6z"/>
<path d="M6201 4040 c0 -8 6 -28 14 -45 17 -39 18 -21 0 25 -7 19 -14 28 -14
20z"/>
<path d="M8304 2766 c-35 -15 -39 -20 -47 -56 -5 -21 0 -29 29 -48 46 -30 121
-46 176 -38 39 6 48 12 59 38 12 29 11 32 -23 64 -56 51 -133 66 -194 40z"/>
<path d="M2058 5792 c-17 -2 -38 -16 -52 -35 -34 -46 -86 -153 -86 -178 0 -34
90 -119 127 -119 58 0 132 111 133 199 0 76 -60 141 -122 133z"/>
<path d="M2591 3059 c-40 -8 -78 -51 -87 -98 -7 -33 1 -247 13 -383 6 -68 6
-68 -20 -68 -15 0 -52 -21 -94 -54 -62 -49 -70 -59 -81 -104 -27 -119 54 -212
186 -212 l52 0 0 -146 0 -146 -26 5 c-38 7 -145 -30 -172 -60 -32 -35 -25 -63
23 -91 48 -28 123 -26 156 4 l22 19 -8 -300 c-6 -292 -6 -301 14 -321 27 -30
104 -58 135 -50 52 13 59 41 69 270 9 220 -4 799 -24 1036 -5 69 -8 134 -5
145 3 11 6 103 7 205 2 172 1 188 -20 235 -22 49 -62 100 -91 114 -8 4 -30 4
-49 0z"/>
</g>
</svg>
