<?xml version="1.0" standalone="no"?>
<!DOCTYPE svg PUBLIC "-//W3C//DTD SVG 20010904//EN"
 "http://www.w3.org/TR/2001/REC-SVG-20010904/DTD/svg10.dtd">
<svg version="1.0" xmlns="http://www.w3.org/2000/svg"
 width="1024.000000pt" height="1024.000000pt" viewBox="0 0 1024.000000 1024.000000"
 preserveAspectRatio="xMidYMid meet">
<metadata>
Created by potrace 1.10, written by Peter Selinger 2001-2011
</metadata>
<g transform="translate(0.000000,1024.000000) scale(0.100000,-0.100000)"
fill="#000000" stroke="none">
<path d="M8559 9139 c-14 -10 -115 -75 -225 -144 -147 -93 -235 -157 -337
-246 -149 -130 -189 -177 -241 -284 -45 -91 -63 -163 -77 -310 -21 -214 0
-444 61 -685 17 -66 53 -285 86 -515 55 -392 57 -405 125 -635 52 -178 72
-266 84 -363 19 -161 53 -328 99 -487 114 -400 140 -595 140 -1075 0 -465 -27
-686 -109 -871 -98 -221 -289 -391 -545 -485 -122 -44 -188 -46 -540 -14 -285
27 -309 30 -362 57 -83 41 -180 76 -287 104 -52 13 -96 25 -97 27 -2 1 18 54
42 117 103 261 198 574 248 810 39 187 113 740 127 945 15 228 6 489 -26 773
-14 119 -27 234 -31 255 l-6 37 -114 0 c-63 0 -114 -2 -114 -5 0 -3 14 -124
31 -268 30 -252 31 -273 25 -537 -3 -151 -10 -333 -16 -405 -11 -137 -56 -506
-68 -564 l-7 -34 -18 57 c-10 32 -20 56 -23 54 -5 -5 27 -120 36 -131 10 -11
-29 -191 -80 -378 -108 -396 -294 -835 -430 -1017 -108 -145 -254 -269 -408
-346 -75 -38 -205 -53 -317 -38 -78 10 -91 15 -173 71 -62 41 -116 90 -175
156 -48 53 -115 120 -150 148 -53 43 -73 69 -116 150 -29 53 -60 101 -70 106
-32 18 -155 318 -217 533 -92 317 -109 460 -144 1208 -25 521 -30 673 -23 845
4 116 8 214 8 220 0 5 -19 13 -42 17 -50 8 -99 32 -134 65 -15 14 -29 21 -32
16 -2 -4 -10 -129 -17 -278 -10 -213 -11 -323 -1 -520 6 -137 20 -432 31 -655
20 -432 35 -556 99 -815 58 -234 107 -368 170 -458 46 -68 71 -144 71 -221 0
-60 3 -69 44 -128 100 -145 125 -182 123 -184 -1 -1 -112 -18 -247 -38 -135
-20 -272 -41 -305 -47 -98 -18 -411 -23 -536 -9 -237 26 -428 82 -649 191
-185 91 -251 138 -390 278 -298 299 -418 608 -496 1276 -60 509 -45 753 69
1095 67 204 156 364 541 970 198 311 374 596 392 634 78 163 85 353 19 576
-70 241 -171 454 -302 637 -47 66 -59 90 -51 100 8 10 6 13 -8 13 -11 0 -33
21 -53 50 -69 102 -141 155 -501 370 -320 191 -347 205 -373 196 -15 -6 -39
-22 -53 -37 -22 -23 -24 -30 -15 -68 7 -35 26 -58 118 -146 104 -99 116 -108
310 -212 151 -80 216 -121 255 -159 65 -64 104 -113 118 -148 5 -14 46 -78 90
-140 139 -197 219 -374 260 -576 27 -128 21 -237 -16 -349 -32 -95 -52 -129
-206 -344 -71 -98 -128 -186 -128 -196 0 -9 -16 -32 -35 -51 -19 -18 -42 -49
-51 -68 -9 -19 -41 -74 -72 -121 -31 -47 -142 -246 -248 -442 l-191 -355 -51
-195 c-115 -434 -132 -741 -58 -1020 8 -31 22 -114 31 -185 8 -71 22 -167 31
-214 36 -204 123 -493 168 -560 13 -20 43 -75 66 -121 151 -300 373 -520 675
-670 154 -76 283 -122 470 -169 243 -61 356 -75 620 -75 248 1 368 14 578 61
61 15 164 32 227 39 63 7 123 16 133 20 13 6 33 -7 80 -52 94 -90 198 -155
294 -183 38 -12 43 -17 49 -49 20 -121 73 -239 149 -331 25 -30 64 -90 86
-134 85 -167 169 -272 349 -434 223 -202 482 -332 754 -378 323 -54 773 -120
781 -114 6 4 273 -39 595 -96 l585 -103 185 0 c168 -1 188 1 218 19 55 34 71
121 30 159 -27 26 -34 27 -323 46 -212 14 -285 24 -625 86 -261 47 -410 69
-463 69 -60 0 -103 7 -178 31 -54 17 -107 28 -117 25 -22 -7 -246 24 -427 60
-307 61 -561 136 -695 205 -85 45 -105 60 -190 155 -101 112 -244 298 -297
386 -43 71 -184 368 -175 368 45 0 219 38 302 66 283 95 514 284 651 533 23
42 38 59 49 56 8 -2 224 -56 480 -120 l465 -116 275 32 c265 31 278 33 357 70
165 75 306 194 403 339 24 36 59 83 77 105 96 112 158 338 198 718 27 263 29
457 6 732 l-21 251 -145 649 c-175 781 -159 706 -300 1405 -62 311 -119 608
-126 660 -8 54 -13 189 -13 315 l0 220 47 87 c41 75 65 104 178 210 115 109
159 141 376 281 136 86 249 160 252 162 6 6 -101 117 -139 145 -25 18 -26 18
-51 -1z"/>
</g>
</svg>
