<?xml version="1.0" standalone="no"?>
<!DOCTYPE svg PUBLIC "-//W3C//DTD SVG 20010904//EN"
 "http://www.w3.org/TR/2001/REC-SVG-20010904/DTD/svg10.dtd">
<svg version="1.0" xmlns="http://www.w3.org/2000/svg"
 width="1024.000000pt" height="1024.000000pt" viewBox="0 0 1024.000000 1024.000000"
 preserveAspectRatio="xMidYMid meet">
<metadata>
Created by potrace 1.10, written by Peter Selinger 2001-2011
</metadata>
<g transform="translate(0.000000,1024.000000) scale(0.100000,-0.100000)"
fill="#000000" stroke="none">
<path d="M4595 8788 c-44 -27 -82 -52 -84 -54 -7 -7 31 -56 99 -130 122 -132
193 -273 219 -436 8 -49 1 -937 -29 -3356 -28 -2354 -37 -3313 -30 -3371 12
-95 39 -186 84 -285 54 -118 131 -177 211 -162 69 13 121 114 144 281 8 53 11
972 11 2981 l0 2905 93 -77 c149 -126 385 -368 508 -524 171 -215 245 -274
342 -275 43 0 52 4 82 37 42 45 55 91 55 189 0 239 -149 404 -537 598 -117 59
-508 221 -531 221 -5 0 -7 224 -5 498 3 402 6 515 19 592 16 94 16 97 -4 137
-23 44 -61 80 -125 117 -43 25 -412 166 -431 165 -6 0 -47 -23 -91 -51z"/>
<path d="M4046 6789 c-3 -17 -6 -46 -6 -63 0 -17 -23 -145 -51 -284 -50 -251
-51 -254 -168 -560 -66 -169 -137 -350 -159 -402 -71 -166 -94 -260 -96 -385
-1 -90 3 -124 22 -185 34 -106 76 -185 127 -236 36 -35 51 -44 80 -44 121 0
283 356 360 790 52 295 69 666 41 903 -35 300 -126 584 -150 466z"/>
</g>
</svg>
