<?xml version="1.0" standalone="no"?>
<!DOCTYPE svg PUBLIC "-//W3C//DTD SVG 20010904//EN"
 "http://www.w3.org/TR/2001/REC-SVG-20010904/DTD/svg10.dtd">
<svg version="1.0" xmlns="http://www.w3.org/2000/svg"
 width="1024.000000pt" height="1024.000000pt" viewBox="0 0 1024.000000 1024.000000"
 preserveAspectRatio="xMidYMid meet">
<metadata>
Created by potrace 1.10, written by Peter Selinger 2001-2011
</metadata>
<g transform="translate(0.000000,1024.000000) scale(0.100000,-0.100000)"
fill="#000000" stroke="none">
<path d="M5403 8798 c-46 -17 -83 -35 -83 -40 0 -15 62 -102 79 -112 9 -5 44
-37 78 -71 96 -97 166 -255 192 -436 10 -63 -63 -5528 -75 -5718 -6 -83 -6
-84 -53 -134 l-46 -50 -100 7 c-221 13 -544 123 -815 276 -86 48 -94 50 -109
35 -19 -19 -38 1 204 -205 298 -252 594 -556 718 -734 75 -109 167 -209 212
-230 41 -20 117 -21 154 -1 73 37 169 189 228 360 29 86 59 251 73 405 6 70
10 509 10 1115 0 1214 15 3057 31 3785 8 409 19 643 44 995 36 518 38 497 -37
558 -94 77 -490 228 -593 226 -16 0 -67 -14 -112 -31z"/>
<path d="M3560 7334 c-47 -20 -87 -37 -88 -39 -2 -2 33 -51 77 -110 134 -175
187 -303 210 -505 5 -43 1 -555 -9 -1205 l-16 -1130 37 -147 c20 -80 46 -163
59 -183 31 -49 87 -84 147 -91 45 -6 53 -4 86 25 41 36 62 90 76 196 6 39 15
658 21 1400 6 732 15 1371 19 1420 8 74 6 96 -7 124 -17 37 -70 79 -152 120
-30 15 -75 40 -99 55 -84 53 -204 106 -240 106 -20 -1 -74 -17 -121 -36z"/>
</g>
</svg>
