<?xml version="1.0" standalone="no"?>
<!DOCTYPE svg PUBLIC "-//W3C//DTD SVG 20010904//EN"
 "http://www.w3.org/TR/2001/REC-SVG-20010904/DTD/svg10.dtd">
<svg version="1.0" xmlns="http://www.w3.org/2000/svg"
 width="1024.000000pt" height="1024.000000pt" viewBox="0 0 1024.000000 1024.000000"
 preserveAspectRatio="xMidYMid meet">
<metadata>
Created by potrace 1.10, written by Peter Selinger 2001-2011
</metadata>
<g transform="translate(0.000000,1024.000000) scale(0.100000,-0.100000)"
fill="#000000" stroke="none">
<path d="M5988 9823 c-31 -5 -102 -78 -236 -242 -161 -197 -237 -312 -382
-581 -79 -146 -209 -387 -290 -536 -82 -149 -168 -317 -193 -375 -111 -257
-177 -551 -177 -794 0 -196 45 -316 179 -476 120 -146 290 -288 464 -391 66
-38 68 -41 61 -71 -15 -71 -133 -280 -313 -555 -183 -281 -203 -306 -564 -739
l-374 -448 -911 -933 c-856 -875 -927 -946 -1174 -1158 -145 -124 -377 -332
-515 -462 -224 -209 -253 -240 -253 -267 0 -40 21 -68 66 -90 66 -31 105 -11
184 93 8 11 161 137 340 280 l325 260 922 923 c913 915 926 928 1338 1399 494
563 604 704 857 1105 89 141 222 370 276 478 15 28 31 47 41 47 10 0 64 -16
122 -35 371 -126 815 -234 1295 -314 325 -55 511 -127 714 -275 150 -109 303
-272 321 -341 5 -22 26 -92 46 -155 l35 -115 -5 -150 c-6 -169 -27 -270 -82
-400 -19 -44 -57 -145 -84 -224 -82 -232 -175 -394 -393 -682 -2055 -2714
-2143 -2832 -2141 -2873 3 -42 22 -70 65 -92 57 -29 106 -7 144 67 9 19 204
270 433 558 229 288 602 758 830 1045 228 286 468 593 534 681 141 188 342
489 446 665 40 69 96 158 123 198 66 97 147 268 201 427 25 72 57 159 72 194
119 281 117 658 -5 918 -99 212 -231 345 -503 507 -252 151 -531 241 -991 321
-453 79 -1036 246 -1291 370 -167 81 -284 164 -416 296 -122 122 -140 157
-164 318 -26 173 -16 335 30 496 29 98 372 883 454 1040 146 276 309 513 501
729 193 217 199 227 186 281 -6 25 -88 87 -110 84 -6 -1 -23 -4 -38 -6z"/>
<path d="M6991 4444 c-1 -6 4 -26 10 -45 6 -19 13 -40 15 -48 3 -8 7 -12 9 -9
3 2 -4 29 -14 59 -11 30 -20 49 -20 43z"/>
</g>
</svg>
