<?xml version="1.0" standalone="no"?>
<!DOCTYPE svg PUBLIC "-//W3C//DTD SVG 20010904//EN"
 "http://www.w3.org/TR/2001/REC-SVG-20010904/DTD/svg10.dtd">
<svg version="1.0" xmlns="http://www.w3.org/2000/svg"
 width="1024.000000pt" height="1024.000000pt" viewBox="0 0 1024.000000 1024.000000"
 preserveAspectRatio="xMidYMid meet">
<metadata>
Created by potrace 1.10, written by Peter Selinger 2001-2011
</metadata>
<g transform="translate(0.000000,1024.000000) scale(0.100000,-0.100000)"
fill="#000000" stroke="none">
<path d="M8405 9193 c-47 -12 -89 -76 -83 -128 3 -25 0 -31 -12 -28 -36 8 -79
-21 -245 -172 -181 -164 -418 -425 -780 -859 -303 -365 -816 -889 -897 -918
-26 -10 -689 -661 -2479 -2437 -2324 -2305 -2451 -2429 -2592 -2534 -147 -110
-148 -111 -123 -124 14 -8 26 -16 26 -18 0 -2 -105 -85 -233 -184 -301 -232
-332 -265 -372 -403 -12 -43 -14 -62 -5 -78 6 -11 12 -20 13 -20 1 -1 124 -9
272 -19 l270 -19 585 130 c626 138 813 187 1065 278 604 219 1332 628 1965
1106 251 189 577 473 782 681 48 48 328 385 623 748 l537 660 89 180 c63 127
93 202 104 255 25 118 30 333 11 485 -9 72 -16 199 -16 282 l0 151 35 53 c19
30 35 57 35 62 0 4 14 0 31 -9 30 -15 32 -15 24 2 -4 11 -8 25 -9 32 -1 15
126 92 152 92 9 0 329 312 712 694 l695 695 104 46 c187 83 337 176 511 316
153 123 189 179 189 294 1 91 -31 154 -153 309 -118 150 -189 209 -341 285
-164 81 -399 136 -490 114z m120 -229 c250 -60 462 -186 550 -324 31 -49 74
-163 75 -195 0 -13 -18 -34 -49 -57 l-49 -37 -65 39 c-140 81 -273 203 -363
331 -61 86 -134 158 -181 179 -18 8 -33 22 -33 31 0 9 -9 28 -21 43 l-21 27
23 -5 c13 -3 74 -17 134 -32z m26 -474 c139 -146 256 -268 262 -271 5 -4 -8
-18 -29 -32 l-39 -25 -100 53 c-291 155 -416 229 -488 286 l-80 63 102 99 c56
54 106 97 111 95 5 -2 122 -122 261 -268z m-453 -373 c61 -32 163 -75 227 -96
l116 -38 -121 -114 c-67 -63 -125 -115 -129 -117 -5 -1 -13 10 -20 25 -8 19
-49 53 -129 105 -64 42 -168 122 -229 177 l-113 100 66 75 65 75 78 -67 c49
-43 119 -89 189 -125z m-508 -178 c55 -90 231 -228 330 -258 19 -5 67 -14 107
-18 l71 -8 -94 -98 -94 -97 -78 44 c-125 73 -185 128 -278 251 l-86 114 43 56
c24 30 46 55 49 55 3 0 16 -19 30 -41z m-192 -351 c113 -153 230 -242 346
-264 l38 -7 -153 -153 c-85 -85 -157 -154 -161 -154 -4 0 -33 22 -65 49 -56
46 -81 76 -240 292 l-71 96 116 116 c64 65 118 117 119 117 2 0 34 -42 71 -92z
m-428 -391 c41 -72 224 -259 319 -327 l34 -23 -27 -24 c-32 -27 -39 -26 -141
21 -139 65 -281 203 -315 305 l-14 43 41 39 c23 21 48 36 55 33 7 -2 29 -33
48 -67z m-221 -338 c80 -79 172 -143 269 -185 l72 -31 -50 -21 c-35 -15 -56
-32 -71 -56 -12 -20 -26 -36 -32 -36 -6 0 -19 -7 -29 -17 -17 -15 -20 -15 -44
8 -47 43 -154 191 -154 213 0 12 -15 64 -34 116 -51 144 -52 152 -19 110 15
-19 56 -64 92 -101z m-291 -107 c20 -116 89 -236 205 -359 l68 -72 -20 -40
c-52 -102 -63 -219 -30 -336 39 -140 51 -251 46 -410 -4 -119 -10 -168 -30
-235 -35 -123 -51 -154 -110 -223 -76 -88 -118 -149 -174 -252 -39 -73 -134
-192 -475 -600 -356 -427 -457 -541 -619 -700 -183 -179 -388 -364 -559 -501
-612 -493 -1417 -931 -2260 -1231 -302 -107 -860 -228 -1280 -277 -74 -9 -153
-19 -175 -22 -25 -3 -36 -1 -30 4 19 18 591 488 662 545 80 63 95 92 69 132
-9 13 -16 26 -16 29 0 2 528 518 1173 1147 1076 1049 1243 1217 2038 2043
l867 900 313 267 c173 147 317 264 320 261 4 -4 12 -35 17 -70z"/>
<path d="M6323 5886 c-60 -20 -77 -48 -81 -129 l-4 -74 42 -40 43 -40 -88 -94
c-48 -52 -94 -103 -101 -115 -8 -11 -32 -81 -54 -155 l-40 -134 -73 -75 c-40
-41 -178 -184 -305 -316 -128 -133 -248 -252 -268 -265 -19 -13 -202 -202
-406 -419 -276 -295 -380 -413 -411 -466 -36 -62 -62 -88 -189 -193 -81 -66
-153 -121 -161 -121 -8 0 -333 -217 -723 -482 l-709 -482 -200 -81 c-194 -78
-201 -82 -222 -121 -20 -36 -32 -44 -125 -82 -100 -40 -331 -102 -386 -102
-40 -1 -108 -35 -127 -64 -10 -15 -20 -46 -22 -70 -5 -39 -2 -48 22 -72 27
-27 27 -27 128 -20 260 18 549 116 672 228 37 34 73 55 126 74 126 45 328 149
472 243 76 50 142 91 146 91 5 0 15 -7 22 -16 10 -13 26 -15 74 -12 88 7 166
41 233 102 31 28 69 57 83 63 15 6 127 87 250 180 122 92 250 183 283 201 l61
32 47 -21 c46 -22 47 -22 93 -3 40 16 51 27 75 74 15 30 43 75 62 99 61 81 68
95 62 126 -5 27 2 37 64 98 61 58 75 67 107 67 30 0 45 8 76 39 49 48 51 82 9
119 -16 15 -30 31 -30 37 0 6 15 26 34 44 l34 33 17 -33 c44 -87 84 -92 156
-20 55 54 62 85 26 119 -57 54 -108 56 -167 8 -13 -12 -5 2 20 29 24 28 48 51
52 53 4 2 24 -6 44 -18 67 -42 158 -5 184 76 13 37 -5 85 -39 106 -18 11 -17
15 21 59 l40 48 22 -32 c15 -23 31 -33 53 -35 65 -6 163 70 163 128 0 27 -38
70 -72 83 -8 3 5 23 36 56 l50 51 29 -35 c16 -19 36 -35 46 -35 27 0 110 59
126 91 23 44 18 64 -24 102 l-39 35 37 35 c35 33 37 33 53 16 21 -23 60 -33
92 -25 36 9 142 83 161 113 19 29 23 67 11 96 -6 13 -3 17 13 17 57 0 141 79
141 132 0 18 -9 41 -20 53 -19 20 -19 21 6 53 19 24 33 32 58 32 40 0 106 42
141 90 29 39 33 94 10 120 -14 16 -13 18 15 24 24 4 35 15 50 48 21 47 26 99
11 127 -8 13 3 39 45 112 30 52 70 113 89 137 66 82 67 158 5 223 -40 43 -56
47 -100 24 -27 -14 -30 -13 -77 24 -44 35 -50 37 -80 27z"/>
</g>
</svg>
