<?xml version="1.0" standalone="no"?>
<!DOCTYPE svg PUBLIC "-//W3C//DTD SVG 20010904//EN"
 "http://www.w3.org/TR/2001/REC-SVG-20010904/DTD/svg10.dtd">
<svg version="1.0" xmlns="http://www.w3.org/2000/svg"
 width="1024.000000pt" height="1024.000000pt" viewBox="0 0 1024.000000 1024.000000"
 preserveAspectRatio="xMidYMid meet">
<metadata>
Created by potrace 1.10, written by Peter Selinger 2001-2011
</metadata>
<g transform="translate(0.000000,1024.000000) scale(0.100000,-0.100000)"
fill="#000000" stroke="none">
<path d="M5650 9387 c-30 -13 -73 -35 -95 -48 -22 -14 -139 -68 -260 -122
l-220 -96 -514 -95 -513 -94 -52 24 c-47 21 -494 124 -541 124 -12 0 -40 -20
-64 -44 l-44 -45 53 -58 c66 -72 125 -193 145 -296 75 -395 -138 -1810 -365
-2420 -78 -210 -214 -473 -359 -697 -33 -52 -61 -99 -61 -105 0 -7 11 -22 24
-34 22 -21 28 -22 63 -11 62 20 151 90 263 206 140 145 199 218 286 349 310
471 543 1216 664 2125 40 303 73 525 79 532 11 12 600 139 832 178 294 50 486
63 526 35 12 -8 29 -35 39 -60 15 -41 16 -76 10 -368 -4 -177 -11 -351 -16
-387 -42 -298 -38 -1028 5 -1284 42 -242 169 -452 324 -535 118 -63 151 -69
449 -88 l277 -17 325 38 c654 76 693 82 759 111 92 42 161 128 161 204 0 7
-29 62 -65 122 -54 89 -69 123 -85 196 -34 161 -63 464 -75 783 -11 299 -16
360 -31 360 -7 0 -22 -17 -32 -37 -20 -40 -23 -51 -77 -290 -97 -434 -215
-749 -331 -881 -55 -63 -171 -122 -310 -158 -121 -32 -382 -45 -485 -25 -138
28 -249 111 -289 217 -64 173 -90 521 -71 944 24 503 85 800 215 1045 30 55
75 148 100 208 l47 108 -19 42 c-25 55 -92 116 -226 206 -223 150 -336 185
-446 138z"/>
<path d="M5475 5659 c-388 -183 -715 -290 -1255 -410 l-275 -61 -315 21 c-173
12 -327 24 -342 27 -37 7 -36 -3 4 -133 l31 -104 121 -71 c215 -127 320 -184
387 -211 129 -52 80 -66 694 199 481 207 569 241 700 275 82 22 159 39 171 39
30 0 74 -37 90 -76 27 -64 18 -105 -107 -467 l-122 -352 -274 -548 c-249 -499
-275 -548 -291 -535 -9 7 -55 45 -102 84 -173 145 -604 463 -800 589 -327 213
-547 315 -677 315 -82 0 -122 -28 -123 -86 0 -46 32 -68 164 -109 236 -73 432
-202 781 -516 97 -87 354 -347 519 -527 l58 -62 -118 -158 c-234 -313 -422
-531 -640 -742 -348 -337 -616 -543 -1069 -820 -148 -90 -660 -383 -812 -465
-62 -33 -113 -63 -113 -66 0 -4 13 -12 29 -18 36 -16 99 0 316 79 435 158 984
411 1414 652 399 224 919 659 1246 1040 49 56 97 112 107 123 18 19 34 4 951
-912 718 -718 948 -941 1002 -976 108 -69 188 -99 275 -104 86 -5 1135 99
1240 123 129 29 200 59 200 84 0 13 -303 185 -395 224 -474 202 -1034 483
-1400 704 -318 192 -438 279 -1045 763 -245 195 -473 376 -507 403 -56 44 -61
51 -51 70 6 11 196 365 423 786 226 421 450 844 498 940 112 226 183 335 301
459 53 55 96 106 96 114 0 91 -346 328 -655 450 -144 56 -136 57 -330 -34z"/>
</g>
</svg>
