<?xml version="1.0" standalone="no"?>
<!DOCTYPE svg PUBLIC "-//W3C//DTD SVG 20010904//EN"
 "http://www.w3.org/TR/2001/REC-SVG-20010904/DTD/svg10.dtd">
<svg version="1.0" xmlns="http://www.w3.org/2000/svg"
 width="1024.000000pt" height="1024.000000pt" viewBox="0 0 1024.000000 1024.000000"
 preserveAspectRatio="xMidYMid meet">
<metadata>
Created by potrace 1.10, written by Peter Selinger 2001-2011
</metadata>
<g transform="translate(0.000000,1024.000000) scale(0.100000,-0.100000)"
fill="#000000" stroke="none">
<path d="M6790 9849 c-81 -46 -112 -70 -135 -104 -16 -25 -32 -45 -35 -45 -3
0 -10 10 -15 22 -6 12 -37 36 -69 54 -152 84 -346 85 -509 3 -34 -17 -64 -35
-67 -40 -3 -4 -64 1 -135 11 -72 11 -144 20 -161 20 -74 0 -202 -97 -249 -190
-24 -47 -29 -51 -52 -45 -14 3 -60 1 -102 -6 -60 -10 -88 -20 -133 -51 -35
-24 -78 -42 -110 -48 -29 -6 -66 -20 -81 -31 -16 -12 -81 -36 -145 -55 -145
-43 -209 -73 -265 -127 -52 -51 -84 -114 -98 -193 -6 -33 -22 -98 -35 -145
-13 -47 -24 -107 -24 -132 0 -31 -4 -47 -12 -47 -7 0 -348 -14 -758 -30 -1587
-63 -1667 -65 -1693 -51 -14 7 -30 11 -35 7 -6 -3 -40 16 -77 44 -46 35 -87
56 -138 71 -39 11 -123 41 -185 66 -104 42 -114 45 -145 32 -67 -26 -222 -107
-542 -282 -181 -99 -363 -197 -402 -217 -40 -20 -103 -63 -139 -94 -65 -58
-65 -59 -59 -100 4 -22 14 -48 23 -58 35 -34 258 -90 632 -159 338 -62 380
-68 429 -59 41 7 120 47 315 157 249 140 362 217 401 274 l19 27 230 6 c127 3
542 8 921 11 380 3 796 8 925 11 166 3 231 2 220 -5 -10 -8 -12 -13 -4 -18 13
-9 -54 -315 -80 -371 -31 -65 -16 -451 24 -613 26 -108 91 -269 150 -374 52
-93 137 -183 192 -206 22 -9 27 -16 22 -31 -3 -11 0 -33 6 -49 11 -26 10 -33
-7 -52 -11 -12 -43 -66 -72 -119 -28 -53 -133 -215 -231 -359 -99 -144 -180
-266 -180 -271 0 -5 -141 -260 -314 -567 -216 -384 -322 -584 -340 -638 -47
-141 -143 -296 -391 -629 -129 -173 -235 -319 -235 -324 0 -5 -20 -37 -44 -72
-24 -35 -216 -378 -427 -763 -348 -636 -397 -730 -526 -1024 -79 -178 -148
-330 -153 -336 -13 -15 -141 -591 -165 -738 -21 -132 -16 -204 23 -293 31 -69
89 -125 210 -198 182 -110 431 -165 627 -137 68 10 84 16 112 43 38 37 41 57
12 84 -18 16 -44 19 -222 24 -192 6 -206 8 -290 37 -105 37 -179 80 -258 151
l-59 54 0 166 c0 180 14 277 70 502 32 126 99 328 124 375 9 17 16 37 16 45 0
8 7 29 16 45 9 17 26 55 38 85 27 66 881 1646 905 1675 10 11 30 45 45 75 41
81 201 317 316 465 56 71 137 182 180 246 44 65 86 123 93 131 8 7 14 20 14
28 0 23 124 303 143 325 10 11 45 74 78 140 33 66 87 170 120 232 33 62 62
120 64 130 3 10 195 319 427 687 232 369 425 682 428 698 3 17 -1 37 -12 54
-9 14 -15 27 -13 29 2 1 22 14 46 29 23 14 42 32 42 40 0 23 -115 123 -162
140 -39 15 -51 29 -132 157 -130 206 -176 367 -176 618 0 121 34 388 58 452 8
21 11 18 21 -31 15 -71 60 -150 108 -187 36 -28 47 -30 207 -46 147 -14 172
-15 196 -2 15 8 46 17 69 21 34 6 47 2 88 -25 61 -40 160 -71 230 -71 82 0
173 26 209 61 l30 29 25 -26 c13 -15 43 -35 67 -46 46 -21 46 -21 1 -78 -15
-19 -34 -58 -42 -86 -8 -28 -24 -68 -34 -90 -34 -68 -55 -163 -72 -338 -19
-188 -16 -223 26 -256 32 -25 65 -26 86 -2 13 15 17 39 17 115 0 112 15 235
37 292 8 22 18 60 23 85 11 60 75 198 108 234 15 16 50 39 78 51 27 13 65 40
82 62 66 78 60 76 101 43 91 -73 233 -110 349 -90 70 11 74 14 99 53 14 23 41
61 60 84 51 63 75 141 74 243 0 46 4 87 8 90 5 3 1 58 -9 124 -10 68 -15 149
-12 191 l4 73 50 -23 c28 -13 65 -37 82 -54 31 -30 35 -31 118 -31 68 0 123 9
249 40 166 41 199 57 199 95 0 60 -48 72 -170 42 -36 -9 -99 -19 -140 -23 -41
-4 -82 -10 -91 -15 -17 -9 -111 15 -180 45 -20 8 -51 33 -68 55 l-31 39 0 175
c0 97 4 178 9 181 5 3 14 65 22 138 12 125 13 130 28 107 66 -101 152 -154
251 -154 57 0 77 6 162 47 l97 47 10 -32 c53 -171 75 -293 54 -301 -8 -3 -13
2 -13 12 0 9 -9 23 -21 30 -18 12 -29 8 -92 -29 -123 -73 -148 -114 -78 -125
26 -4 38 -11 35 -19 -7 -18 58 -38 95 -30 16 3 49 19 74 35 l45 28 7 -45 c6
-44 22 -82 37 -93 17 -13 60 -362 65 -526 6 -167 5 -173 -20 -240 -35 -90 -63
-203 -77 -303 -6 -45 -17 -96 -25 -114 -7 -18 -115 -159 -240 -313 -276 -342
-340 -435 -463 -684 -54 -107 -141 -276 -194 -375 -63 -117 -108 -215 -128
-280 -17 -55 -36 -107 -41 -115 -37 -62 -64 -128 -112 -280 -53 -165 -62 -211
-162 -804 -58 -346 -110 -637 -115 -646 -5 -9 -14 -48 -20 -86 -7 -38 -55
-213 -108 -388 l-95 -319 -160 -286 c-151 -269 -173 -302 -370 -560 -115 -151
-211 -281 -215 -290 -3 -9 -112 -151 -243 -316 l-237 -300 -311 -284 c-171
-156 -314 -294 -317 -306 -8 -32 21 -95 44 -95 10 0 66 30 124 68 102 65 116
79 453 447 191 209 360 393 375 409 23 23 42 31 90 37 34 5 80 20 104 34 130
76 226 85 1041 92 885 8 1316 -15 1865 -97 307 -47 346 -55 462 -97 70 -25
133 -52 139 -59 21 -25 78 -17 110 15 16 16 29 34 29 40 0 22 -64 81 -113 105
-36 18 -169 50 -422 102 l-370 76 -405 29 c-373 26 -447 28 -945 28 -297 -1
-702 -4 -900 -8 -358 -7 -360 -7 -428 -34 l-68 -26 20 27 c11 15 148 200 305
412 157 212 313 432 347 489 70 117 146 289 183 413 13 46 32 98 41 115 9 18
39 146 66 285 33 166 57 265 71 288 16 27 47 191 138 720 102 593 123 699 155
790 21 58 49 119 62 137 13 18 41 83 62 145 25 73 80 188 152 321 71 134 120
237 135 287 32 113 119 244 406 612 134 172 253 327 264 343 12 17 51 134 87
260 72 253 82 284 108 335 10 19 23 64 29 100 10 58 7 93 -23 305 l-33 240
170 7 c222 9 796 32 1695 67 834 33 756 19 747 136 -10 124 -17 155 -39 170
-29 20 -50 19 -73 -6 -17 -19 -26 -20 -139 -14 -85 4 -457 -12 -1265 -53 -630
-33 -1147 -58 -1149 -56 -2 2 -48 165 -102 361 l-97 358 -65 60 c-35 33 -74
76 -86 97 -43 73 -166 158 -231 158 -14 0 -72 -27 -130 -61z m189 -137 c11
-21 69 -93 130 -161 61 -68 111 -127 111 -132 0 -10 -217 -79 -249 -79 -34 0
-120 48 -157 88 -38 41 -58 97 -48 139 3 15 18 54 32 85 26 55 29 58 87 77 33
10 63 20 67 20 4 1 16 -16 27 -37z m-485 -95 c21 -32 30 -168 17 -257 -30
-206 -56 -542 -46 -617 6 -47 9 -53 29 -53 19 0 22 -4 19 -23 -3 -13 2 -75 11
-137 9 -63 16 -117 16 -120 0 -3 -17 -7 -37 -7 -21 -1 -98 -7 -171 -14 -111
-10 -135 -10 -142 1 -15 24 -23 213 -11 255 6 22 11 67 11 100 0 70 5 79 43
89 16 4 47 24 70 46 41 37 41 39 24 58 -10 11 -17 28 -15 39 3 15 -7 20 -62
28 -63 10 -65 11 -72 45 -4 19 -28 141 -53 270 -25 129 -49 247 -54 263 -5 15
-9 27 -8 28 1 1 88 7 192 14 105 6 198 13 207 13 10 1 24 -8 32 -21z m-646 -7
c20 -10 43 -23 50 -28 17 -11 66 -187 96 -342 31 -158 45 -287 50 -470 3 -80
8 -189 12 -242 l7 -98 -44 0 c-65 0 -391 29 -398 35 -8 8 -5 347 3 373 7 20
13 22 81 22 59 0 74 3 79 17 11 27 -16 43 -84 53 -35 5 -66 13 -70 17 -4 4
-20 81 -35 170 -15 89 -38 197 -51 240 -13 43 -24 84 -24 91 0 27 105 151 140
165 52 22 143 21 188 -3z m-460 -253 c7 -8 28 -84 48 -168 19 -85 41 -173 49
-197 10 -29 15 -87 15 -180 0 -75 5 -166 10 -202 9 -57 7 -72 -11 -122 l-21
-58 -57 0 c-31 0 -92 -3 -137 -6 l-81 -7 -6 84 c-4 46 -9 94 -13 106 -6 22 -6
22 43 -4 58 -31 87 -27 133 18 49 49 39 69 -50 100 -41 14 -77 32 -81 40 -11
21 -50 572 -42 580 5 4 42 16 83 27 75 19 95 17 118 -11z m-323 -360 c19 -95
19 -92 -6 -509 l-12 -216 -40 15 c-34 14 -52 14 -140 4 -56 -7 -118 -19 -137
-27 -42 -18 -86 -58 -107 -98 -9 -17 -25 -38 -37 -47 -20 -16 -22 -16 -38 9
-16 25 -21 65 -33 265 -5 95 -5 98 14 87 36 -19 76 -12 105 18 25 27 25 30 10
43 -9 8 -38 19 -63 24 -40 9 -46 14 -49 38 l-3 27 37 -25 c49 -33 147 -36 164
-5 9 17 6 25 -14 45 -14 14 -34 25 -44 25 -11 0 -50 14 -86 31 -49 23 -65 35
-62 48 2 9 7 34 10 56 10 60 87 278 105 296 9 9 92 44 185 78 92 34 178 68
190 77 21 14 21 14 27 -78 4 -51 14 -133 24 -181z m4995 -143 c0 -25 -1 -26
-62 -22 -35 3 -574 -17 -1198 -44 -624 -26 -1166 -47 -1205 -46 l-70 2 60 4
c272 16 2355 130 2408 131 66 1 67 1 67 -25z m-8569 -208 c86 -37 316 -143
327 -152 4 -3 32 -137 29 -140 -1 -1 -99 -65 -217 -143 l-215 -140 -20 38
c-26 50 -140 155 -160 147 -8 -3 -24 -20 -35 -38 -30 -47 -21 -88 35 -151 l46
-52 -33 -3 c-29 -3 -594 101 -604 111 -2 2 103 36 234 76 130 41 245 81 256
90 29 25 48 78 36 101 -25 47 -85 42 -314 -29 -109 -34 -200 -60 -202 -58 -7
6 547 314 633 352 43 18 83 34 89 34 6 1 58 -19 115 -43z m2860 -110 l-15 -54
-321 -6 c-176 -3 -704 -8 -1172 -11 -826 -6 -853 -6 -853 12 0 18 52 21 1128
65 620 25 1155 46 1188 47 l61 1 -16 -54z m1602 -205 c48 -5 61 -10 74 -31 14
-24 13 -32 -6 -98 -41 -135 -110 -197 -222 -197 -106 0 -109 5 -109 187 l0
148 103 -1 c56 -1 128 -4 160 -8z m-529 -19 l70 -18 12 -59 c32 -151 5 -215
-106 -255 -32 -11 -41 -10 -102 18 l-66 30 -7 95 c-4 53 -3 112 1 133 8 31 16
39 54 54 58 23 62 23 144 2z m956 -38 c63 -4 123 -11 133 -16 25 -13 24 -167
-2 -223 -29 -64 -72 -97 -130 -103 -71 -6 -109 4 -164 43 l-47 35 16 31 c14
28 14 34 -1 66 -9 19 -19 69 -22 110 l-6 76 54 -6 c30 -3 106 -9 169 -13z
m-1356 -86 c14 -67 12 -98 -9 -118 -26 -25 -145 -60 -200 -60 -83 0 -111 10
-123 42 -9 26 -8 36 6 60 9 16 26 31 37 34 79 20 262 62 272 63 7 1 15 -9 17
-21z"/>
<path d="M1365 8618 c-11 -6 -50 -38 -87 -71 -62 -55 -68 -63 -68 -99 0 -58
24 -97 61 -98 8 0 48 27 87 60 107 90 125 138 73 191 -33 32 -37 33 -66 17z"/>
<path d="M4400 7680 c-26 -26 -25 -38 5 -83 35 -51 77 -71 133 -63 53 7 82 29
82 62 0 29 -44 64 -82 64 -16 0 -46 9 -68 20 -22 11 -42 20 -45 20 -3 0 -14
-9 -25 -20z"/>
<path d="M4780 6490 c-25 -60 12 -139 76 -166 50 -21 111 -18 124 5 18 35 11
49 -45 83 -30 18 -55 38 -55 44 0 13 -63 64 -78 64 -5 0 -15 -13 -22 -30z"/>
<path d="M4620 6200 c-14 -26 7 -75 49 -114 25 -25 42 -30 91 -34 48 -4 65 -1
80 13 39 35 26 51 -86 104 -59 28 -110 51 -115 51 -5 0 -13 -9 -19 -20z"/>
</g>
</svg>
