<?xml version="1.0" standalone="no"?>
<!DOCTYPE svg PUBLIC "-//W3C//DTD SVG 20010904//EN"
 "http://www.w3.org/TR/2001/REC-SVG-20010904/DTD/svg10.dtd">
<svg version="1.0" xmlns="http://www.w3.org/2000/svg"
 width="1024.000000pt" height="1024.000000pt" viewBox="0 0 1024.000000 1024.000000"
 preserveAspectRatio="xMidYMid meet">
<metadata>
Created by potrace 1.10, written by Peter Selinger 2001-2011
</metadata>
<g transform="translate(0.000000,1024.000000) scale(0.100000,-0.100000)"
fill="#000000" stroke="none">
<path d="M3469 8716 c-2 -2 -49 -14 -105 -25 -164 -33 -268 -81 -310 -146 -15
-23 -15 -27 3 -57 24 -41 87 -78 133 -78 19 0 88 11 153 25 117 25 119 25 659
25 l543 0 -70 -62 c-194 -174 -235 -233 -389 -561 -118 -250 -228 -397 -483
-647 -262 -258 -443 -416 -692 -604 -104 -79 -121 -98 -121 -138 0 -32 58 -88
92 -88 17 0 121 67 319 206 344 241 346 243 494 386 127 122 246 255 355 398
79 104 117 173 156 283 119 332 326 574 636 741 l87 47 69 -29 c86 -36 207
-119 264 -180 24 -26 201 -260 393 -521 193 -261 382 -508 422 -551 39 -42
111 -104 160 -139 197 -140 657 -336 989 -420 44 -11 125 -36 179 -56 119 -42
175 -45 226 -11 19 13 43 39 53 58 17 31 17 38 5 63 -22 44 -298 142 -563 199
-111 24 -237 56 -281 70 -227 76 -458 227 -602 394 -32 38 -200 268 -373 512
-346 489 -421 576 -581 683 -131 87 -234 130 -394 166 l-140 31 -485 10 c-267
5 -555 12 -641 15 -85 3 -157 3 -160 1z"/>
<path d="M3461 5566 c-48 -17 -75 -55 -67 -94 10 -44 70 -108 119 -126 28 -11
399 -54 1087 -126 887 -94 1049 -113 1077 -130 18 -11 92 -72 164 -137 198
-178 205 -200 184 -538 -8 -121 -24 -367 -35 -547 -11 -180 -24 -337 -28 -348
-8 -20 -12 -18 -81 35 -187 145 -584 324 -926 419 -101 28 -1547 213 -1586
203 -43 -11 -75 -41 -82 -75 -6 -29 18 -91 38 -98 6 -3 288 -40 626 -84 l614
-78 320 -91 c403 -113 516 -160 720 -296 76 -51 247 -189 253 -205 5 -12 -85
-136 -147 -203 -115 -124 -256 -221 -434 -296 -185 -79 -353 -126 -547 -155
-212 -31 -221 -30 -890 34 -401 39 -654 59 -686 55 -38 -4 -58 -13 -77 -33
-61 -64 -54 -119 20 -160 45 -25 418 -101 608 -124 168 -20 836 -17 1031 4
347 39 589 116 824 261 152 94 331 259 423 390 23 31 44 57 48 57 4 0 63 -73
132 -162 246 -322 640 -1030 733 -1318 18 -58 112 -287 208 -509 187 -432 204
-462 279 -482 103 -28 137 55 84 206 -14 39 -48 119 -76 178 -29 59 -97 221
-152 360 -55 139 -113 275 -128 302 -16 28 -79 169 -141 314 -103 243 -127
291 -300 583 -165 277 -204 336 -304 454 -81 96 -120 151 -131 184 -9 26 -31
65 -50 88 -19 22 -35 49 -35 60 0 11 9 64 21 118 37 180 50 306 59 589 6 167
15 312 24 360 48 254 -26 504 -207 700 -118 129 -256 211 -422 254 -56 14
-373 49 -1060 116 -539 52 -1000 97 -1025 99 -25 3 -61 -1 -79 -8z"/>
<path d="M10170 990 l-35 -7 26 -11 c47 -19 64 -19 64 2 0 23 -9 25 -55 16z"/>
</g>
</svg>
