<?xml version="1.0" standalone="no"?>
<!DOCTYPE svg PUBLIC "-//W3C//DTD SVG 20010904//EN"
 "http://www.w3.org/TR/2001/REC-SVG-20010904/DTD/svg10.dtd">
<svg version="1.0" xmlns="http://www.w3.org/2000/svg"
 width="1024.000000pt" height="1024.000000pt" viewBox="0 0 1024.000000 1024.000000"
 preserveAspectRatio="xMidYMid meet">
<metadata>
Created by potrace 1.10, written by Peter Selinger 2001-2011
</metadata>
<g transform="translate(0.000000,1024.000000) scale(0.100000,-0.100000)"
fill="#000000" stroke="none">
<path d="M3515 8937 c-209 -66 -382 -122 -384 -123 -8 -6 84 -243 115 -295 57
-94 151 -298 187 -404 19 -55 46 -154 61 -220 15 -66 31 -133 36 -150 5 -16
70 -271 145 -565 86 -336 151 -570 175 -630 69 -172 113 -365 126 -560 6 -93
36 -219 270 -1110 161 -614 281 -1053 308 -1127 60 -163 113 -260 146 -267 58
-13 58 15 -5 -503 -66 -546 -71 -672 -36 -873 36 -210 70 -292 202 -491 88
-132 154 -217 265 -340 144 -161 152 -167 353 -307 112 -79 234 -158 270 -176
143 -72 360 -146 516 -176 33 -7 98 -23 145 -36 119 -33 638 -117 735 -118 71
-1 86 2 134 29 30 17 72 53 97 82 56 69 59 99 58 508 -1 554 -56 947 -183
1291 -23 61 -41 118 -41 125 0 34 -68 201 -106 259 -24 36 -48 84 -54 108 -6
23 -43 93 -82 155 -39 62 -79 131 -90 154 -44 100 -353 332 -598 450 -41 20
-255 105 -474 188 l-400 152 -13 45 c-7 25 -29 62 -51 85 -58 60 -82 120 -93
231 -5 54 -16 126 -24 162 -8 36 -15 81 -15 101 0 20 -34 177 -75 348 -41 171
-75 322 -75 337 0 21 -746 2711 -811 2923 -10 35 -19 91 -19 125 0 55 -11 89
-99 308 -103 258 -191 429 -220 427 -9 -1 -187 -56 -396 -122z m352 -53 c-3
-3 -12 -4 -19 -1 -8 3 -5 6 6 6 11 1 17 -2 13 -5z m-207 -46 c0 -2 -9 -28 -20
-58 -12 -30 -23 -61 -26 -69 -3 -11 -15 -5 -42 22 -20 20 -50 41 -67 48 -30
11 -29 12 50 34 78 22 105 28 105 23z m265 -100 c22 -40 42 -76 44 -81 1 -4
-14 -1 -34 7 -54 23 -76 20 -117 -19 -37 -34 -38 -38 -38 -104 0 -88 15 -103
105 -109 58 -4 66 -2 91 23 21 21 25 33 21 58 -3 18 -8 48 -12 67 l-6 35 18
-24 c14 -20 102 -251 103 -271 0 -3 -17 14 -39 38 -33 36 -44 42 -79 42 -32 0
-48 -7 -76 -34 -33 -31 -36 -38 -36 -90 0 -32 5 -66 11 -78 12 -23 83 -57 119
-58 36 0 85 33 101 69 l13 30 23 -61 c13 -33 23 -70 23 -82 0 -22 171 -615
196 -676 7 -19 29 -120 48 -224 22 -116 42 -196 51 -206 11 -13 185 -656 185
-685 0 -2 -31 5 -70 15 l-70 18 0 -45 c0 -48 18 -72 53 -73 22 0 22 -16 0 -25
-21 -7 -73 44 -73 72 0 9 -12 29 -27 45 l-26 27 -39 462 -39 461 -27 24 c-35
30 -60 38 -76 25 -11 -9 -14 10 -15 106 -1 67 -6 122 -13 130 -13 16 -111 18
-139 3 -17 -10 -19 -7 -19 34 0 25 5 48 10 51 18 11 41 77 47 135 6 60 -12
170 -28 170 -6 0 -7 14 -4 34 6 31 4 34 -25 45 -30 10 -37 8 -101 -35 -54 -35
-69 -51 -69 -70 0 -21 -5 -24 -37 -25 -61 0 -105 -21 -126 -57 -17 -28 -18
-37 -7 -57 8 -15 10 -37 5 -62 l-7 -38 -19 65 c-11 36 -19 72 -19 80 1 8 21
30 45 48 36 26 47 42 60 87 24 81 4 139 -65 190 -26 19 -36 22 -55 13 -13 -6
-21 -16 -19 -23 6 -14 -11 -82 -25 -104 -6 -9 -18 -11 -35 -7 -23 6 -26 11
-26 54 0 60 12 76 75 99 49 18 50 20 63 75 13 51 12 60 -6 101 -24 55 -88 90
-153 86 -35 -3 -43 0 -54 21 -14 27 -26 150 -14 150 3 0 12 -6 18 -14 7 -8 40
-33 75 -55 34 -22 72 -55 85 -71 19 -26 28 -31 59 -28 56 5 66 34 54 156 -9
87 -8 99 8 112 9 9 21 29 27 45 8 26 46 51 83 54 3 1 24 -32 45 -71z m-515 27
c-30 -17 -40 -18 -40 -6 0 10 22 18 50 19 8 1 4 -5 -10 -13z m540 -174 c16
-32 12 -61 -9 -61 -10 0 -33 -3 -50 -6 -30 -6 -31 -5 -31 28 0 19 5 39 12 46
19 19 66 15 78 -7z m-327 -278 c3 -24 0 -43 -9 -53 -12 -12 -17 -10 -42 13
-16 15 -32 24 -35 20 -4 -3 0 8 9 25 12 25 22 32 44 32 25 0 28 -4 33 -37z
m412 5 c31 -14 35 -62 6 -77 -14 -8 -24 -4 -45 17 -30 33 -33 47 -8 61 21 13
17 13 47 -1z m-390 -317 c3 -5 1 -12 -4 -15 -5 -3 -11 1 -15 9 -6 16 9 21 19
6z m366 -222 c-7 -35 -21 -79 -31 -99 -11 -19 -22 -44 -26 -55 -6 -16 -9 -9
-17 27 -8 44 -14 50 -64 79 -48 28 -53 33 -40 46 13 13 20 12 57 -7 34 -18 48
-20 66 -11 21 9 24 17 24 68 l0 57 21 -21 c21 -20 21 -25 10 -84z m-222 -145
c59 -26 61 -28 61 -63 0 -39 19 -57 75 -72 29 -8 29 -8 -5 -4 -43 4 -120 -32
-120 -57 0 -9 -4 -19 -9 -22 -5 -3 -21 43 -35 102 -15 59 -29 115 -32 125 -7
22 -7 22 65 -9z m361 -203 c0 -54 -20 -136 -40 -163 -11 -15 -20 -36 -20 -48
0 -28 -11 -25 -48 13 -33 34 -76 129 -65 141 4 3 21 3 39 0 30 -6 35 -2 65 40
38 54 69 61 69 17z m-292 -120 c40 -20 62 -55 62 -96 0 -26 29 -51 113 -99 27
-15 51 -34 54 -42 8 -22 69 -55 88 -48 15 6 17 18 13 91 -4 71 -2 85 14 100
10 9 18 28 19 42 0 25 0 25 9 4 29 -72 52 -247 56 -418 4 -248 64 -780 92
-830 6 -11 16 -52 22 -92 7 -40 18 -77 26 -84 8 -6 14 -30 14 -53 1 -22 5 -59
10 -81 33 -145 49 -204 63 -235 9 -19 38 -109 66 -200 63 -207 79 -257 96
-295 40 -92 65 -158 65 -174 0 -10 8 -42 19 -72 10 -30 21 -83 25 -119 4 -35
12 -72 17 -82 12 -23 48 -162 43 -167 -9 -10 -49 104 -100 283 -31 110 -69
229 -85 264 -16 35 -29 72 -29 83 0 10 -9 33 -20 51 -11 18 -20 43 -20 56 0
12 -9 40 -20 62 -11 22 -20 48 -20 58 0 11 -11 44 -24 73 -13 30 -33 101 -46
159 -12 58 -41 177 -65 265 -61 227 -76 292 -86 360 -4 33 -15 83 -23 110 -9
28 -16 59 -16 71 0 12 -20 72 -45 135 -25 63 -45 122 -45 131 0 10 -9 41 -20
70 -11 29 -20 61 -20 71 0 11 -9 30 -20 44 -11 14 -20 35 -20 46 0 32 -150
326 -169 330 -27 6 -50 -4 -57 -25 -10 -33 -20 -9 -48 112 -15 63 -29 125 -32
138 -8 27 -3 27 44 3z m100 -425 c5 -6 19 -42 32 -81 12 -38 39 -104 60 -145
21 -41 43 -101 48 -132 6 -31 27 -88 47 -127 19 -39 35 -83 35 -98 0 -16 9
-64 20 -108 23 -93 23 -95 10 -95 -5 0 -10 17 -10 38 0 42 -23 82 -47 82 -9 0
-27 -10 -40 -22 -13 -12 -25 -20 -27 -17 -4 5 -196 803 -196 816 0 4 14 -16
30 -46 16 -29 34 -59 38 -65z m743 -841 c13 -69 22 -125 19 -125 -3 1 -16 7
-30 15 -36 21 -78 18 -132 -9 l-47 -23 -5 26 c-3 14 -8 44 -12 66 -4 22 -13
54 -21 72 -7 18 -13 37 -13 43 0 6 38 10 100 10 100 0 100 0 100 25 0 58 17
16 41 -100z m-503 -46 c23 -7 47 -18 54 -26 6 -8 16 -46 23 -86 7 -40 15 -80
20 -89 6 -15 2 -18 -21 -18 -16 0 -43 -9 -60 -19 l-31 -19 -28 126 c-15 70
-30 133 -33 141 -3 9 1 12 14 8 10 -3 38 -11 62 -18z m479 -188 c14 -18 17
-48 6 -54 -5 -3 -27 -8 -50 -12 l-43 -7 0 38 c0 49 24 78 54 62 11 -6 26 -18
33 -27z m-407 -196 c-33 -40 -54 1 -23 45 l17 24 9 -27 c6 -19 5 -32 -3 -42z
m530 -60 c13 -60 25 -115 27 -121 3 -8 -20 -7 -77 3 -63 11 -85 11 -96 2 -8
-7 -16 -10 -17 -8 -21 26 -80 216 -72 228 1 3 50 6 107 6 l105 0 23 -110z
m-422 -98 c5 -7 13 -34 16 -62 4 -27 10 -60 13 -72 4 -20 1 -23 -26 -23 -22 0
-35 -7 -48 -26 l-17 -26 -31 118 -32 119 34 10 c20 6 42 23 51 38 l17 28 7
-46 c3 -25 11 -52 16 -58z m376 -123 c10 -25 7 -30 -19 -42 -31 -14 -32 -32
-2 -61 l24 -22 48 21 c26 11 49 19 51 17 2 -1 19 -77 38 -167 19 -91 38 -173
41 -182 9 -23 6 -23 -49 8 -27 15 -53 23 -65 19 -22 -7 -15 -22 -91 197 -50
142 -57 168 -44 178 8 7 14 21 14 31 0 24 45 26 54 3z m-326 -259 c15 3 35 8
45 11 10 3 17 0 17 -8 0 -8 11 -29 25 -48 14 -19 25 -47 25 -65 0 -18 3 -35 7
-39 5 -4 13 -30 19 -58 11 -48 11 -49 -9 -44 -11 3 -37 -4 -57 -14 -35 -18
-47 -36 -66 -100 -6 -18 -17 26 -40 160 -40 227 -40 224 -13 210 11 -7 33 -9
47 -5z m492 -260 c6 -14 15 -37 22 -52 l11 -28 6 24 c5 18 10 4 19 -49 7 -40
11 -74 10 -75 -15 -11 -91 -34 -98 -30 -4 3 -11 24 -15 48 -4 23 -14 53 -22
66 -17 26 -12 83 8 107 18 22 48 17 59 -11z m-329 -108 c23 -17 59 -92 59
-122 0 -14 7 -36 16 -50 8 -13 28 -69 44 -124 33 -115 48 -147 92 -196 25 -30
36 -35 58 -30 23 5 33 -1 75 -51 33 -38 43 -55 29 -51 -19 6 -86 10 -133 8
-40 -2 -87 -59 -95 -116 -4 -27 -10 -59 -13 -69 -5 -18 -6 -18 -15 -3 -6 11
-5 68 3 156 9 101 10 166 2 240 -5 56 -12 104 -15 106 -3 3 -21 8 -39 11 -25
4 -41 1 -58 -13 l-24 -20 22 -39 c20 -37 21 -49 19 -228 l-3 -188 -82 308
c-46 170 -85 323 -89 339 l-6 30 21 -32 c24 -39 57 -49 106 -33 62 20 81 55
51 95 -10 14 -24 19 -50 17 -32 -2 -36 0 -36 21 0 41 30 58 61 34z m429 -212
c0 -5 -5 -3 -10 5 -5 8 -10 20 -10 25 0 6 5 3 10 -5 5 -8 10 -19 10 -25z m52
-155 c25 -90 36 -111 70 -147 33 -34 39 -46 34 -67 -10 -42 -39 -31 -90 34
-26 33 -52 65 -59 72 -32 34 -62 190 -40 212 4 4 18 6 31 4 22 -3 28 -14 54
-108z m198 -507 c112 -75 224 -120 380 -152 82 -17 139 -41 430 -182 482 -232
517 -258 691 -517 213 -316 306 -564 408 -1082 46 -235 58 -341 72 -620 11
-233 14 -260 37 -315 31 -75 27 -155 -11 -239 -55 -119 -133 -125 -466 -41
-203 51 -225 59 -351 126 -74 39 -166 82 -205 96 -183 65 -414 191 -585 319
-258 192 -540 525 -600 709 -26 81 -70 171 -113 234 l-30 44 6 176 c4 97 13
208 20 246 105 530 187 976 186 1013 0 26 -6 63 -13 82 -16 44 -2 126 27 158
l21 22 25 -23 c14 -13 46 -38 71 -54z m-288 -252 c-7 -130 -19 -297 -27 -371
-8 -74 -19 -227 -25 -340 -6 -125 -16 -230 -26 -270 -11 -42 -18 -124 -21
-228 -4 -151 -2 -171 23 -280 27 -116 80 -234 109 -245 7 -3 19 -22 26 -41 7
-20 20 -38 28 -41 9 -3 56 -69 104 -148 49 -78 112 -173 141 -210 48 -63 128
-137 147 -137 4 0 11 -9 14 -20 4 -12 35 -35 78 -56 40 -20 75 -42 79 -49 4
-7 43 -34 87 -61 61 -37 81 -54 83 -73 2 -21 12 -27 53 -38 28 -7 55 -11 61
-9 17 6 104 -63 104 -82 0 -20 99 -51 400 -124 159 -39 175 -45 178 -65 3 -19
-1 -23 -22 -23 -37 0 -322 48 -382 64 -107 28 -224 78 -224 95 0 23 -58 57
-108 63 -48 7 -114 51 -110 75 2 10 -17 22 -62 39 -76 29 -280 153 -280 171 0
7 -37 44 -83 83 -87 73 -157 157 -157 187 -1 10 -14 34 -30 53 -17 19 -30 40
-30 47 0 7 -11 20 -25 29 -14 9 -25 26 -25 38 0 20 -63 96 -80 96 -4 0 -10 13
-13 29 -3 16 -24 50 -47 75 -22 26 -40 53 -40 59 0 7 -7 26 -16 42 -40 74 -57
191 -61 421 -3 203 -2 228 18 295 15 55 23 119 29 249 5 96 18 263 29 370 11
107 22 240 25 295 3 55 14 136 25 179 12 44 21 93 21 109 l0 31 22 -23 c21
-24 21 -24 10 -260z"/>
</g>
</svg>
