<?xml version="1.0" standalone="no"?>
<!DOCTYPE svg PUBLIC "-//W3C//DTD SVG 20010904//EN"
 "http://www.w3.org/TR/2001/REC-SVG-20010904/DTD/svg10.dtd">
<svg version="1.0" xmlns="http://www.w3.org/2000/svg"
 width="1024.000000pt" height="1024.000000pt" viewBox="0 0 1024.000000 1024.000000"
 preserveAspectRatio="xMidYMid meet">
<metadata>
Created by potrace 1.10, written by Peter Selinger 2001-2011
</metadata>
<g transform="translate(0.000000,1024.000000) scale(0.100000,-0.100000)"
fill="#000000" stroke="none">
<path d="M3472 8882 c-40 -20 -71 -39 -69 -42 1 -3 48 -95 103 -205 l101 -200
27 -275 27 -275 -3 -1505 -3 -1505 -360 -181 c-469 -235 -831 -397 -1240 -554
-104 -40 -192 -75 -194 -77 -3 -2 4 -13 15 -23 20 -20 20 -20 114 -1 454 94
1011 271 1529 485 74 31 136 56 138 56 2 0 3 -375 3 -832 0 -852 9 -1191 35
-1392 32 -245 94 -408 210 -553 197 -247 462 -343 1115 -405 172 -16 1093 -16
1445 1 420 20 864 55 1140 92 155 20 471 70 530 84 33 7 103 21 155 29 300 51
499 147 532 257 10 35 7 45 -32 136 -24 54 -60 127 -81 163 -47 81 -92 216
-113 340 -10 60 -24 271 -36 565 -25 595 -24 583 -49 608 -19 19 -21 19 -45 4
-24 -16 -56 -95 -56 -136 0 -36 -164 -764 -192 -851 -54 -169 -145 -332 -243
-433 -112 -115 -216 -178 -390 -235 -374 -124 -1011 -183 -2005 -186 -492 -1
-591 4 -790 40 -86 16 -298 82 -354 111 -142 72 -237 218 -280 428 -30 146
-33 303 -28 1347 l5 1038 226 116 c264 136 603 324 822 455 452 271 1108 749
1759 1283 127 104 703 619 744 664 34 39 -4 113 -138 270 -59 69 -99 103 -240
199 l-169 116 -31 -17 c-18 -9 -45 -27 -61 -40 l-29 -23 37 -90 c20 -49 37
-100 37 -113 0 -31 -39 -115 -81 -178 -84 -122 -310 -358 -595 -619 -301 -275
-706 -601 -1146 -921 -153 -111 -1129 -764 -1135 -758 -1 1 4 558 12 1236 16
1290 30 1693 74 2033 17 131 17 139 0 167 -52 85 -540 342 -646 339 -15 0 -61
-17 -101 -37z"/>
</g>
</svg>
