<?xml version="1.0" standalone="no"?>
<!DOCTYPE svg PUBLIC "-//W3C//DTD SVG 20010904//EN"
 "http://www.w3.org/TR/2001/REC-SVG-20010904/DTD/svg10.dtd">
<svg version="1.0" xmlns="http://www.w3.org/2000/svg"
 width="1024.000000pt" height="1024.000000pt" viewBox="0 0 1024.000000 1024.000000"
 preserveAspectRatio="xMidYMid meet">
<metadata>
Created by potrace 1.10, written by Peter Selinger 2001-2011
</metadata>
<g transform="translate(0.000000,1024.000000) scale(0.100000,-0.100000)"
fill="#000000" stroke="none">
<path d="M5963 8685 c-39 -27 -180 -270 -262 -450 -39 -85 -159 -261 -769
-1127 -397 -564 -727 -1039 -734 -1054 -6 -16 -19 -38 -29 -49 -9 -11 -67
-117 -129 -235 -63 -118 -126 -235 -142 -260 -44 -71 -48 -85 -79 -255 -16
-88 -36 -180 -44 -205 -7 -25 -17 -85 -20 -135 -4 -49 -18 -133 -31 -185 -61
-238 -37 -509 67 -760 42 -100 41 -98 654 -965 343 -484 499 -734 664 -1063
171 -341 328 -774 428 -1183 53 -218 115 -319 196 -319 67 0 88 139 46 303
-131 518 -334 1056 -553 1467 -187 350 -232 418 -708 1068 -281 383 -374 518
-454 660 -122 213 -129 238 -128 452 2 317 60 663 170 1020 36 114 37 117 292
503 l256 389 18 -47 c30 -77 102 -180 191 -273 46 -48 114 -127 152 -177 485
-633 818 -1061 864 -1108 134 -138 304 -168 357 -64 23 43 10 72 -49 116 -28
21 -84 72 -123 113 -74 75 -578 729 -674 873 -76 115 -189 254 -296 364 -76
79 -150 168 -306 368 -9 12 28 66 507 732 244 340 465 686 610 956 27 50 83
135 125 190 118 155 127 226 39 314 -44 44 -71 50 -106 26z"/>
<path d="M6726 3470 c7 -40 24 -76 23 -50 0 8 -7 31 -15 50 l-14 35 6 -35z"/>
</g>
</svg>
