<?xml version="1.0" standalone="no"?>
<!DOCTYPE svg PUBLIC "-//W3C//DTD SVG 20010904//EN"
 "http://www.w3.org/TR/2001/REC-SVG-20010904/DTD/svg10.dtd">
<svg version="1.0" xmlns="http://www.w3.org/2000/svg"
 width="1024.000000pt" height="1024.000000pt" viewBox="0 0 1024.000000 1024.000000"
 preserveAspectRatio="xMidYMid meet">
<metadata>
Created by potrace 1.10, written by Peter Selinger 2001-2011
</metadata>
<g transform="translate(0.000000,1024.000000) scale(0.100000,-0.100000)"
fill="#000000" stroke="none">
<path d="M5005 8638 c-3 -7 -6 -251 -8 -543 l-2 -530 -578 -62 c-318 -34 -581
-64 -584 -67 -8 -8 -25 -207 -18 -214 3 -3 269 21 590 53 322 32 588 55 592
51 4 -3 10 -785 15 -1736 4 -968 12 -1755 17 -1787 8 -50 7 -61 -9 -78 -10
-11 -28 -40 -40 -65 -33 -66 -98 -158 -150 -214 -87 -94 -809 -700 -928 -779
-236 -157 -478 -277 -753 -373 -155 -53 -262 -80 -459 -115 -102 -17 -202 -40
-223 -51 -45 -22 -60 -54 -78 -157 l-13 -74 45 -38 c79 -69 469 -242 958 -426
498 -187 810 -247 1286 -247 314 0 480 19 840 96 154 33 341 72 416 88 393 83
483 108 1091 299 350 110 681 220 736 244 158 70 404 229 446 288 26 37 20 78
-15 108 -17 14 -50 43 -73 63 l-42 37 -585 130 c-372 83 -620 143 -684 166
-313 114 -699 306 -950 475 -38 26 -190 158 -336 293 l-266 246 -6 753 c-4
414 -10 1231 -14 1815 l-6 1062 24 5 c13 3 267 24 564 47 297 23 543 45 547
48 7 7 33 209 27 215 -2 2 -256 -14 -564 -35 -308 -21 -566 -38 -572 -39 -10
0 -13 109 -13 514 l0 514 -27 6 c-16 3 -57 8 -93 11 -36 4 -73 9 -83 11 -9 3
-19 -1 -22 -8z m311 -5298 l138 -155 310 -209 c249 -167 345 -225 481 -292
329 -160 575 -246 1025 -359 222 -55 290 -68 418 -79 83 -7 154 -15 157 -17
15 -15 -185 -97 -595 -242 -446 -159 -489 -172 -1068 -326 l-603 -161 -682
-26 c-756 -30 -706 -31 -987 33 -372 85 -752 221 -1085 390 -84 43 -96 52 -75
56 247 51 470 118 652 195 158 68 610 324 758 430 367 263 741 594 920 816 47
58 88 104 92 103 3 -1 68 -72 144 -157z"/>
</g>
</svg>
