<?xml version="1.0" standalone="no"?>
<!DOCTYPE svg PUBLIC "-//W3C//DTD SVG 20010904//EN"
 "http://www.w3.org/TR/2001/REC-SVG-20010904/DTD/svg10.dtd">
<svg version="1.0" xmlns="http://www.w3.org/2000/svg"
 width="1024.000000pt" height="1024.000000pt" viewBox="0 0 1024.000000 1024.000000"
 preserveAspectRatio="xMidYMid meet">
<metadata>
Created by potrace 1.10, written by Peter Selinger 2001-2011
</metadata>
<g transform="translate(0.000000,1024.000000) scale(0.100000,-0.100000)"
fill="#000000" stroke="none">
<path d="M4726 7590 c-43 -26 -82 -52 -87 -57 -5 -5 22 -35 65 -71 81 -68 124
-127 158 -218 23 -59 23 -63 26 -731 l3 -671 -53 -7 c-29 -3 -615 -55 -1303
-115 -687 -60 -1349 -118 -1470 -129 l-220 -19 -338 52 c-289 45 -337 50 -337
37 0 -9 9 -52 18 -96 l18 -80 125 -99 c226 -179 438 -306 510 -306 32 0 2887
366 3012 386 l37 6 -2 -753 -3 -753 -895 -98 -895 -99 -320 34 c-176 19 -322
32 -324 31 -5 -5 20 -149 28 -161 24 -34 417 -293 506 -334 103 -47 137 -42
695 85 433 99 796 155 1570 241 644 71 958 90 1485 90 384 0 469 -3 579 -19
163 -23 218 -19 258 21 23 23 29 39 30 72 1 52 -29 99 -125 198 -68 70 -73 74
-214 130 l-145 58 -847 -94 c-465 -52 -863 -96 -883 -99 l-38 -5 0 751 0 751
33 5 c17 3 230 14 472 26 242 11 564 27 715 35 151 8 589 31 972 50 l698 36
302 -16 c488 -24 528 -22 576 40 25 32 37 84 28 121 -9 33 -110 140 -187 198
-42 32 -99 58 -219 101 l-163 59 -916 -82 c-504 -46 -1211 -110 -1571 -142
-360 -32 -674 -61 -697 -63 l-43 -5 0 589 c0 536 2 601 20 729 18 126 19 144
5 169 -35 69 -163 141 -384 215 -90 31 -169 56 -175 55 -6 0 -46 -22 -90 -49z"/>
</g>
</svg>
