<?xml version="1.0" standalone="no"?>
<!DOCTYPE svg PUBLIC "-//W3C//DTD SVG 20010904//EN"
 "http://www.w3.org/TR/2001/REC-SVG-20010904/DTD/svg10.dtd">
<svg version="1.0" xmlns="http://www.w3.org/2000/svg"
 width="1024.000000pt" height="1024.000000pt" viewBox="0 0 1024.000000 1024.000000"
 preserveAspectRatio="xMidYMid meet">
<metadata>
Created by potrace 1.10, written by Peter Selinger 2001-2011
</metadata>
<g transform="translate(0.000000,1024.000000) scale(0.100000,-0.100000)"
fill="#000000" stroke="none">
<path d="M2987 9292 c-22 -3 -31 -13 -48 -53 -16 -35 -25 -47 -32 -40 -31 31
-97 -12 -97 -63 0 -41 -35 -102 -72 -123 -18 -11 -76 -45 -128 -76 -130 -77
-278 -127 -539 -180 -95 -19 -142 -21 -441 -22 -267 -2 -352 -5 -420 -18 -47
-10 -88 -17 -92 -17 -19 0 31 -139 98 -274 13 -28 24 -56 24 -63 0 -8 7 -24
15 -37 9 -13 18 -48 22 -77 4 -31 22 -88 44 -132 32 -66 38 -90 44 -175 4 -54
13 -107 21 -119 8 -12 14 -30 14 -40 0 -10 9 -31 20 -48 11 -16 38 -88 61
-160 22 -71 51 -157 63 -190 13 -33 31 -85 40 -116 17 -59 65 -123 114 -152
30 -17 31 -17 60 8 27 23 30 31 36 117 4 51 13 99 20 108 7 8 55 84 106 168
51 83 96 152 101 152 4 0 50 38 103 84 69 60 123 97 189 130 145 71 176 76
475 76 l260 0 6 -37 c3 -21 44 -432 92 -914 l85 -875 -57 -83 c-66 -97 -94
-176 -94 -270 0 -183 57 -304 166 -353 l42 -18 6 -123 c4 -67 17 -525 31
-1017 36 -1337 44 -1557 60 -1765 8 -104 17 -206 20 -225 3 -19 12 -208 20
-420 9 -212 20 -400 26 -418 15 -45 61 -72 124 -72 96 0 99 9 91 289 -4 124
-25 525 -46 891 -30 503 -47 915 -70 1690 -16 564 -31 1062 -34 1108 l-4 82
47 0 c78 0 148 26 195 73 59 60 83 146 49 174 -44 34 -48 33 -106 -13 -31 -24
-57 -51 -57 -59 0 -22 -45 -40 -145 -60 -168 -33 -147 -37 -224 45 l-68 72 13
71 c18 94 30 126 59 162 24 29 26 30 116 29 l91 0 -7 35 -7 36 65 -62 c94 -91
133 -95 172 -16 17 35 26 42 69 52 26 6 113 40 192 76 78 36 146 65 149 65 3
0 21 -33 41 -72 l34 -73 -49 -15 c-27 -9 -58 -23 -68 -33 -11 -9 -29 -17 -40
-17 -88 0 -269 -143 -249 -196 11 -28 154 -14 237 24 37 16 71 37 76 46 5 10
40 24 86 35 l76 18 47 -141 c55 -167 82 -224 128 -269 42 -42 112 -77 157 -78
34 -1 580 161 609 181 29 20 163 80 178 80 8 0 39 23 68 50 57 54 60 55 133
39 l49 -10 -124 -178 c-133 -191 -151 -227 -188 -360 -31 -110 -61 -461 -51
-594 16 -212 84 -435 171 -556 l31 -44 -26 -65 c-20 -51 -32 -68 -58 -80 -18
-9 -33 -22 -33 -30 0 -8 -33 -47 -72 -86 -136 -134 -215 -274 -265 -465 -32
-124 -35 -221 -9 -250 21 -23 83 -29 117 -11 14 8 29 5 61 -11 24 -12 45 -23
47 -25 2 -2 -46 -55 -106 -118 -141 -146 -302 -330 -448 -510 -314 -388 -334
-417 -335 -482 0 -52 62 -94 140 -94 21 0 72 -7 112 -16 73 -15 352 -15 806 2
130 4 152 3 152 -9 0 -9 -57 -134 -126 -279 -92 -191 -127 -274 -128 -303 l-1
-40 -59 3 c-40 3 -88 -4 -155 -22 -53 -14 -150 -36 -215 -50 -94 -20 -131 -33
-171 -60 -61 -40 -112 -100 -149 -173 l-26 -52 38 -30 c21 -16 63 -40 93 -53
54 -23 55 -23 456 -20 382 3 403 2 440 -16 36 -19 43 -19 137 -6 55 8 100 15
101 16 0 2 39 158 85 348 46 190 93 374 105 410 12 36 28 108 35 161 12 94 12
96 -13 146 l-26 50 77 7 c42 4 88 7 102 6 14 0 72 0 130 1 l105 1 46 -47 46
-47 154 -9 153 -10 21 27 c14 18 28 25 45 23 14 -2 30 0 37 4 6 4 146 2 311
-5 290 -11 301 -13 306 -32 3 -12 6 -29 6 -38 0 -10 15 -37 33 -61 53 -70 75
-135 96 -283 18 -122 30 -166 101 -363 97 -267 95 -265 123 -257 18 5 503 66
1304 165 72 9 76 11 76 46 -1 34 -29 63 -127 129 -242 160 -495 244 -771 253
-77 2 -152 9 -168 15 -41 16 -73 59 -97 135 -13 37 -31 85 -41 105 -29 58 -25
104 12 139 21 19 42 29 63 29 48 0 787 99 819 110 15 5 33 7 41 4 13 -5 122
31 144 49 18 14 15 58 -8 97 -30 51 -42 78 -225 495 -92 209 -195 434 -231
501 l-64 121 41 33 c79 63 101 170 54 265 -70 141 -142 240 -252 346 -191 185
-408 285 -708 324 -37 5 -62 16 -94 43 -25 21 -49 40 -54 43 -5 3 10 43 33 88
58 117 161 367 203 496 24 76 41 154 53 253 10 78 22 142 27 142 6 0 41 -9 78
-20 l69 -21 -6 -112 c-8 -130 0 -155 63 -205 81 -63 120 -77 218 -76 80 0 106
6 235 48 165 55 194 68 232 104 54 50 91 198 69 277 -6 23 -25 55 -43 72 -73
70 -268 84 -312 22 -13 -19 -18 -20 -50 -9 -20 6 -36 15 -36 19 0 10 169 212
253 301 87 94 129 162 170 277 30 84 32 94 32 248 0 149 -2 166 -29 247 -35
108 -100 205 -181 271 -108 87 -203 125 -475 187 -342 78 -766 216 -1039 339
-42 18 -47 18 -75 4 -17 -9 -34 -21 -38 -27 -20 -30 -5 20 30 96 21 45 53 131
72 190 l34 107 41 -6 c71 -9 132 37 175 135 67 149 36 258 -83 298 -73 24
-131 23 -160 -4 -13 -12 -27 -22 -33 -22 -5 0 -34 48 -64 105 -35 67 -73 123
-102 152 -27 26 -48 52 -48 59 0 6 10 19 21 30 29 25 49 75 49 119 0 26 -9 45
-36 75 -33 37 -39 39 -75 34 -27 -5 -46 -2 -63 10 -35 22 -42 21 -97 -20 -38
-28 -49 -32 -49 -19 0 9 -13 30 -29 46 -85 85 -231 -33 -231 -187 0 -33 -5
-47 -20 -56 -30 -18 -188 -202 -199 -230 -4 -13 -16 -68 -26 -124 l-17 -101
-44 -11 c-57 -15 -90 -59 -103 -138 -23 -147 39 -257 166 -289 37 -10 49 -21
107 -100 71 -99 71 -103 -9 -104 -54 -1 -1846 -374 -1926 -401 -105 -36 -239
-110 -291 -162 -28 -28 -23 -70 13 -93 28 -19 30 -25 33 -86 l3 -67 -40 -5
c-29 -4 -51 -16 -81 -46 -32 -32 -50 -41 -75 -41 -24 0 -60 -16 -120 -54 -48
-30 -93 -57 -101 -60 -10 -3 -25 9 -42 34 -26 38 -109 90 -143 90 -8 0 -15 7
-15 16 0 9 -70 634 -155 1390 -87 770 -155 1415 -155 1467 0 102 -19 158 -68
210 -34 36 -50 44 -85 39z m-78 -392 c14 -64 14 -80 0 -80 -5 0 -36 -17 -67
-38 -184 -124 -431 -221 -661 -258 -166 -27 -530 -14 -614 21 -25 10 -11 13
105 18 222 10 507 56 756 122 95 25 114 36 382 214 41 27 78 50 82 50 3 1 11
-22 17 -49z m81 -508 c23 -151 39 -276 37 -279 -3 -3 -23 1 -44 8 -50 18 -313
18 -413 0 -158 -28 -323 -95 -454 -184 -120 -81 -297 -267 -314 -331 -6 -18
-32 -63 -58 -99 -53 -72 -84 -86 -84 -39 0 16 -7 37 -15 48 -8 10 -15 38 -15
61 0 49 -14 90 -40 118 -11 12 -60 169 -124 395 -58 206 -104 375 -103 376 1
1 54 -11 117 -27 166 -43 293 -59 483 -59 186 0 302 14 477 58 117 30 325 106
336 123 3 5 22 16 42 25 20 8 51 28 67 43 25 24 55 42 61 37 1 0 21 -124 44
-274z m3737 -425 c89 -79 91 -82 65 -88 -76 -16 -158 -84 -187 -153 -16 -37
-16 -39 6 -62 12 -13 37 -27 56 -30 28 -5 32 -9 27 -29 -4 -16 3 -33 26 -59
27 -30 39 -36 72 -36 35 0 40 3 54 35 7 19 14 43 14 54 0 24 -65 65 -99 63
l-25 -2 28 29 c16 16 38 32 50 35 12 3 30 21 39 42 l18 36 28 -38 c15 -22 49
-59 75 -83 45 -40 51 -43 88 -37 22 4 50 13 61 21 12 8 43 15 69 15 52 0 68
-15 68 -68 0 -50 -77 -102 -152 -102 -31 0 -48 -6 -61 -20 -14 -17 -21 -19
-38 -9 -11 6 -23 9 -25 6 -3 -3 -18 -56 -33 -119 -32 -129 -47 -163 -98 -219
-81 -90 -142 -97 -279 -30 -116 56 -190 120 -221 191 l-25 58 -79 7 -79 7 0
72 c0 83 17 109 71 109 25 0 30 4 26 19 -6 21 29 108 42 108 5 0 14 -7 22 -16
23 -28 67 -44 123 -44 44 0 57 4 66 19 17 33 11 59 -21 96 -38 42 -98 62 -146
47 -23 -7 -33 -7 -33 0 0 18 99 174 128 201 42 40 83 57 137 57 49 0 53 -3
142 -83z m-268 -1187 c11 -30 15 -47 8 -39 -7 8 -37 42 -66 76 -47 56 -50 63
-34 72 11 5 25 22 33 36 l15 27 12 -59 c6 -32 21 -83 32 -113z m376 83 c-7
-39 -46 -185 -51 -192 -2 -2 -17 2 -34 9 -34 14 -47 35 -89 145 l-29 75 105 0
105 0 -7 -37z m253 25 c8 -8 5 -18 -14 -41 -21 -25 -25 -39 -21 -71 3 -31 -3
-55 -24 -97 -50 -101 -63 -92 -25 17 19 54 40 123 46 152 12 54 18 60 38 40z
m-867 -105 c12 -38 25 -72 29 -78 3 -5 18 -31 33 -56 26 -46 26 -46 4 -42 -12
2 -35 -5 -52 -15 -28 -17 -33 -30 -75 -200 l-44 -182 -48 -16 c-35 -11 -52
-13 -67 -5 -50 27 -131 -25 -151 -98 -6 -23 -21 -61 -34 -84 -51 -96 -88 -157
-94 -157 -4 0 -53 9 -109 19 -119 23 -160 42 -174 79 -25 67 -91 97 -147 68
-35 -18 -42 -33 -42 -87 0 -46 11 -72 47 -111 l25 -27 -63 -28 c-35 -16 -189
-83 -342 -148 l-277 -119 -40 39 c-22 22 -40 44 -40 50 0 5 -31 75 -69 155
-101 211 -228 509 -235 553 -4 23 -21 54 -41 76 l-34 38 148 42 c122 36 1799
398 1853 400 12 1 23 -18 39 -66z m1343 -112 c82 -27 180 -55 220 -61 289 -47
415 -84 611 -180 185 -92 203 -108 248 -217 44 -106 58 -200 45 -303 -8 -62
-18 -89 -58 -160 -79 -139 -296 -380 -485 -539 l-60 -50 -62 61 c-45 45 -63
70 -63 89 0 14 -7 48 -15 75 -31 102 -24 126 70 264 47 68 85 128 85 132 0 5
-24 23 -52 42 l-53 33 -53 -33 c-29 -19 -65 -34 -80 -34 -15 0 -133 29 -262
64 -174 47 -252 73 -301 101 -66 37 -67 38 -58 69 38 130 49 189 59 318 13
161 8 196 -36 254 -21 28 -22 39 -17 101 3 44 1 77 -6 91 -9 18 2 14 82 -23
52 -25 160 -67 241 -94z m-846 -200 c66 -36 74 -46 42 -56 -16 -5 -37 8 -90
55 -39 34 -80 76 -92 94 -18 26 -14 23 28 -15 27 -25 77 -60 112 -78z m-168
-167 c0 -6 11 -21 25 -34 23 -22 30 -23 120 -17 54 3 97 1 100 -4 4 -5 -4 -9
-17 -10 -13 0 -122 -11 -243 -23 -121 -13 -221 -22 -223 -21 -1 1 10 36 26 78
16 41 33 105 37 142 l7 68 84 -84 c46 -46 84 -88 84 -95z m554 -1 c-7 -76 -13
-153 -13 -170 -1 -20 -6 -33 -14 -33 -19 0 -70 57 -72 80 -1 11 -9 28 -18 38
-11 12 -17 36 -17 64 0 45 1 47 73 102 39 31 72 56 72 56 0 0 -5 -62 -11 -137z
m-159 -333 c44 -44 83 -80 88 -80 4 0 33 -19 65 -42 74 -55 219 -130 312 -161
87 -30 262 -67 314 -67 33 0 35 -2 24 -19 -19 -31 -77 -48 -208 -62 -165 -17
-194 -15 -267 21 -77 38 -135 102 -188 206 -26 51 -63 102 -106 146 l-66 68
-74 0 c-41 0 -238 -14 -439 -30 -201 -16 -375 -30 -387 -30 -16 0 -23 -6 -23
-19 0 -10 -9 -21 -20 -24 -17 -4 -14 6 21 75 l40 79 82 -8 c123 -12 508 -6
617 10 52 8 104 15 115 16 13 1 49 -27 100 -79z m-149 -141 c-12 -63 9 -101
117 -212 106 -109 197 -182 280 -224 118 -59 296 -79 441 -48 38 8 71 14 72
12 1 -1 -7 -133 -17 -292 -20 -289 -20 -290 -53 -360 -18 -38 -73 -161 -122
-272 -70 -161 -92 -203 -107 -203 -11 0 -404 -25 -874 -55 -779 -50 -858 -57
-895 -76 -22 -11 -41 -19 -43 -17 -1 2 -21 33 -44 70 -36 56 -45 84 -61 170
-24 134 -40 319 -40 456 0 93 6 132 36 253 33 133 39 147 75 185 38 38 45 42
127 54 48 7 94 18 102 25 8 7 25 16 37 19 12 4 25 16 28 27 4 11 21 27 38 36
24 11 41 33 68 91 46 95 63 177 54 249 -6 49 -4 57 14 70 12 8 21 20 21 27 0
16 201 27 455 26 135 0 184 3 289 19 5 0 6 -13 2 -30z m-866 -120 c0 -14 -59
-189 -74 -216 -31 -61 -149 -144 -186 -131 -14 4 16 59 125 232 84 134 91 141
112 132 13 -6 23 -14 23 -17z m2668 -643 c15 -8 34 -27 41 -43 7 -15 17 -35
22 -45 6 -12 -1 -22 -29 -40 -105 -68 -265 -109 -363 -94 -46 7 -46 7 -53 53
-11 84 -8 114 16 133 22 17 23 17 46 -1 18 -14 29 -16 42 -9 10 6 31 10 47 10
17 0 33 8 40 19 7 11 23 21 35 24 51 10 131 6 156 -7z m-1121 -1048 c-3 -23
-18 -56 -35 -77 -25 -31 -36 -36 -77 -39 -33 -2 -52 2 -65 13 -11 10 -23 14
-29 11 -5 -4 -42 17 -82 46 l-73 53 145 5 c108 4 151 9 174 22 39 21 48 14 42
-34z m-437 7 c0 -15 -46 -26 -83 -19 l-42 8 45 7 c64 9 80 10 80 4z m-535 -35
c-11 -5 -29 -9 -40 -9 -17 -1 -17 1 -5 9 8 5 26 9 40 9 23 0 23 -1 5 -9z
m-256 -37 c-77 -101 -103 -118 -192 -127 -58 -7 -257 4 -384 20 l-43 5 15 27
c8 15 18 33 24 41 7 10 68 18 237 31 126 10 258 18 293 19 59 1 63 0 50 -16z
m999 -395 c6 -6 12 -32 12 -58 0 -25 9 -79 20 -120 11 -41 20 -100 19 -130 l0
-55 -137 -67 c-217 -106 -388 -150 -592 -152 -63 0 -154 5 -201 13 -64 11
-104 12 -157 5 -40 -6 -72 -7 -72 -3 0 8 239 792 243 795 3 2 191 24 211 24 9
0 16 -8 16 -19 0 -11 14 -31 30 -45 29 -24 35 -25 118 -20 110 7 112 8 112 41
l0 28 78 -3 c67 -2 82 0 117 21 l40 24 65 -133 c36 -74 71 -139 78 -146z m625
225 c161 -48 241 -82 326 -137 129 -83 226 -201 296 -359 l25 -58 -47 -20
c-81 -36 -265 -77 -396 -90 -137 -14 -349 -1 -424 25 -21 7 -67 19 -103 25
l-66 12 -12 148 c-7 97 -21 186 -41 262 -31 120 -30 129 16 129 25 0 140 40
216 75 28 14 60 25 70 25 10 0 73 -17 140 -37z m-2343 -143 c26 -5 159 -4 314
1 147 6 270 9 271 7 3 -3 -119 -524 -130 -554 -2 -8 -22 -8 -72 1 -37 7 -216
18 -398 25 -181 7 -331 13 -332 14 0 0 24 64 55 141 46 113 73 164 140 258 45
64 88 117 95 117 7 -1 32 -5 57 -10z m2417 -681 c306 -12 353 -11 468 17 17 4
20 -1 21 -35 2 -29 62 -165 228 -513 194 -406 223 -474 208 -480 -36 -14
-1020 -98 -1147 -98 -193 1 -794 26 -802 34 -13 12 76 968 91 983 2 2 75 28
162 57 l159 53 150 -2 c83 -1 290 -8 462 -16z m-1997 -97 c0 -75 20 -98 77
-87 21 4 140 9 265 12 l226 4 -14 -47 c-8 -26 -14 -70 -14 -98 0 -46 -122
-702 -133 -712 -2 -2 -141 -14 -308 -25 -299 -21 -311 -21 -759 -5 -250 9
-498 19 -551 22 l-97 6 134 182 c222 301 283 373 436 520 151 143 175 177 158
221 -9 24 -8 25 38 25 26 0 119 -5 207 -11 l160 -10 80 30 c44 16 83 30 88 30
4 1 7 -25 7 -57z m870 -60 c0 -10 -20 -215 -45 -457 -25 -242 -45 -467 -45
-499 l0 -59 -101 6 c-56 4 -103 8 -104 9 -9 9 148 781 172 848 24 68 26 83 17
119 -11 39 -10 40 15 44 66 10 91 7 91 -11z m-970 -1090 c0 -4 -13 -46 -29
-92 l-28 -85 -34 3 c-45 4 -50 10 -39 56 6 26 4 52 -5 82 l-13 44 74 0 c41 0
74 -4 74 -8z m2034 -84 c-6 -30 -7 -49 -1 -117 2 -22 -7 -29 -77 -58 -43 -18
-80 -32 -81 -31 -18 21 -49 103 -56 149 -13 84 -8 88 119 89 l104 0 -8 -32z
m-2193 -269 c72 -24 103 -45 53 -36 -17 3 -54 9 -83 13 -52 7 -67 16 -56 34 8
14 12 13 86 -11z m2295 -100 l12 -36 -82 -26 c-45 -15 -85 -27 -88 -27 -3 0
-11 14 -17 31 -10 29 -9 30 37 51 26 11 61 26 77 34 39 17 46 14 61 -27z
m-2348 -129 c27 0 63 -3 80 -6 l30 -6 -35 -117 c-25 -83 -34 -128 -30 -159 3
-24 0 -59 -6 -77 -10 -33 -12 -34 -73 -41 -41 -4 -139 1 -272 15 -115 11 -215
21 -223 21 -13 0 -46 87 -36 96 3 3 282 44 300 44 4 0 19 24 33 54 13 30 31
59 39 66 8 7 30 41 50 76 l36 64 29 -15 c16 -8 51 -15 78 -15z m2582 -80 c88
0 92 -1 77 -17 -15 -18 -67 -175 -67 -205 0 -9 -4 -19 -8 -22 -19 -12 -184
-28 -224 -22 -39 6 -47 12 -63 44 -10 20 -21 53 -26 72 -4 19 -11 45 -14 57
-6 20 0 26 59 53 37 16 71 30 76 30 6 0 20 11 32 25 l22 25 21 -20 c18 -17 35
-20 115 -20z m353 -26 c11 -4 10 -13 -5 -44 -11 -22 -20 -60 -20 -85 0 -42 -1
-45 -26 -45 -15 0 -44 -3 -65 -7 l-39 -6 27 53 c29 58 29 98 -3 133 -17 20
-16 20 50 13 37 -4 74 -9 81 -12z m307 -114 l45 -18 -35 -5 c-19 -3 -61 -8
-92 -12 -52 -5 -58 -3 -58 14 0 10 -3 33 -6 50 l-7 32 54 -22 c30 -11 74 -29
99 -39z m-3980 -111 c0 -19 -4 -21 -37 -15 -21 3 -49 6 -63 7 -16 1 -8 6 25
14 70 18 75 18 75 -6z"/>
<path d="M6439 7586 c-13 -6 -28 -26 -33 -45 -9 -31 -7 -36 22 -62 43 -39 84
-39 111 0 37 52 28 76 -40 104 -29 12 -42 13 -60 3z"/>
<path d="M6586 7515 c-51 -55 -41 -186 17 -229 26 -19 30 -19 55 -5 26 15 27
17 27 112 0 84 -2 98 -20 112 -47 36 -54 37 -79 10z"/>
<path d="M6618 7249 c-20 -7 -31 -22 -39 -50 -7 -21 -9 -42 -6 -45 3 -4 46
-10 94 -15 83 -9 89 -8 106 12 24 29 22 41 -12 73 -33 32 -97 43 -143 25z"/>
<path d="M6377 5670 c-58 -46 -15 -150 61 -150 52 0 63 11 69 62 4 37 1 49
-18 71 -33 38 -77 44 -112 17z"/>
<path d="M6036 5559 c-22 -17 -26 -28 -26 -69 0 -41 4 -52 26 -69 53 -42 92
-20 101 57 6 51 4 55 -23 78 -36 29 -45 29 -78 3z"/>
<path d="M6877 5423 c-39 -10 -58 -40 -51 -82 5 -34 14 -45 61 -76 l56 -37 26
20 c22 16 26 27 25 67 0 42 -5 52 -37 81 -36 34 -44 36 -80 27z"/>
<path d="M6444 5400 c-32 -12 -46 -36 -42 -76 7 -82 96 -95 117 -17 15 53 15
56 -22 79 -22 14 -39 19 -53 14z"/>
<path d="M6018 5299 c-16 -6 -31 -22 -37 -41 -15 -42 -14 -44 11 -68 44 -40
119 -17 132 41 11 51 -48 89 -106 68z"/>
<path d="M6402 5147 c-29 -31 -28 -61 4 -86 50 -39 104 -21 119 41 6 23 2 30
-27 48 -43 26 -69 25 -96 -3z"/>
<path d="M5969 5096 c-14 -7 -29 -28 -37 -51 -12 -37 -11 -40 12 -64 51 -51
136 -20 136 49 0 46 -69 87 -111 66z"/>
<path d="M6884 5065 c-19 -46 -18 -50 12 -74 48 -38 104 -24 123 30 6 18 10
33 9 34 -89 57 -123 60 -144 10z"/>
<path d="M6427 4945 c-18 -17 -31 -70 -22 -85 12 -20 65 -40 89 -34 53 13 80
80 46 114 -24 24 -91 27 -113 5z"/>
<path d="M5955 4839 c-39 -11 -55 -34 -55 -80 0 -30 6 -42 29 -58 l29 -21 -29
-30 c-32 -31 -32 -60 -2 -108 32 -51 105 -54 124 -4 13 34 -3 96 -32 115 -17
13 -18 16 -4 27 8 7 22 35 30 62 16 54 10 79 -25 98 -21 11 -24 11 -65 -1z"/>
<path d="M6915 4805 c-31 -30 -32 -73 -4 -109 43 -54 119 -21 119 52 0 31 -6
43 -30 60 -38 28 -55 28 -85 -3z"/>
<path d="M6435 4710 c-49 -19 -67 -81 -34 -116 23 -24 71 -32 97 -16 11 8 32
63 32 88 0 19 -73 53 -95 44z"/>
<path d="M6924 4542 c-28 -4 -61 -39 -69 -74 -6 -23 -2 -30 27 -48 43 -26 80
-25 105 3 19 21 43 60 43 70 0 12 -87 52 -106 49z"/>
<path d="M6442 4505 c-17 -14 -35 -39 -41 -55 -9 -27 -7 -32 18 -51 28 -21 28
-22 10 -40 -35 -35 -35 -68 -1 -102 37 -37 89 -42 122 -12 31 28 25 60 -16 92
-34 25 -35 28 -16 36 11 5 25 20 31 33 20 44 13 71 -22 98 -42 32 -48 32 -85
1z"/>
<path d="M5942 4417 c-42 -45 -20 -118 40 -133 38 -8 78 32 78 79 0 25 -7 38
-30 55 -37 28 -61 28 -88 -1z"/>
<path d="M6962 4353 c-24 -5 -55 -63 -46 -87 9 -23 70 -47 99 -40 53 13 74 89
33 118 -22 16 -41 18 -86 9z"/>
<path d="M6896 3669 c-22 -17 -26 -28 -26 -69 0 -57 26 -90 71 -90 36 0 46 15
55 79 6 50 5 54 -22 77 -36 29 -45 29 -78 3z"/>
<path d="M6452 3643 c-22 -4 -52 -48 -52 -76 0 -23 44 -57 74 -57 40 0 62 15
75 52 10 28 9 35 -11 54 -26 25 -52 33 -86 27z"/>
<path d="M6674 3627 c-38 -33 -39 -92 -3 -119 35 -26 67 -16 85 28 21 50 17
67 -21 91 l-34 23 -27 -23z"/>
<path d="M6945 3470 c-40 -15 -58 -46 -51 -86 10 -50 46 -84 89 -84 43 0 59
19 61 69 1 58 -57 117 -99 101z"/>
<path d="M6388 3418 c-9 -7 -21 -31 -27 -53 -10 -37 -9 -42 14 -62 26 -23 78
-30 101 -15 16 10 34 47 34 69 0 10 -18 30 -44 46 -49 31 -56 32 -78 15z"/>
<path d="M6636 3409 c-40 -31 -36 -81 9 -126 31 -31 40 -35 68 -29 35 7 57 29
57 59 0 21 -79 117 -96 117 -6 0 -23 -9 -38 -21z"/>
<path d="M6971 3238 c-30 -32 -38 -84 -16 -108 21 -23 63 -26 88 -7 10 6 20
29 23 49 6 32 3 40 -22 62 -36 31 -48 32 -73 4z"/>
<path d="M6704 3206 c-46 -20 -77 -64 -70 -100 9 -42 34 -66 70 -66 40 0 46 6
79 62 33 57 34 82 5 102 -27 19 -43 19 -84 2z"/>
<path d="M6336 3151 c-9 -10 -19 -34 -22 -53 -5 -30 -2 -38 21 -56 34 -27 59
-28 85 -2 31 31 27 84 -9 109 -36 26 -53 26 -75 2z"/>
<path d="M3263 5784 c3 -33 1 -47 -9 -51 -16 -6 -9 -46 12 -78 8 -11 14 -31
14 -45 1 -24 2 -24 34 14 l33 38 79 -3 78 -4 9 43 c11 57 1 67 -81 82 -37 7
-91 21 -121 31 l-54 19 6 -46z"/>
</g>
</svg>
