<?xml version="1.0" standalone="no"?>
<!DOCTYPE svg PUBLIC "-//W3C//DTD SVG 20010904//EN"
 "http://www.w3.org/TR/2001/REC-SVG-20010904/DTD/svg10.dtd">
<svg version="1.0" xmlns="http://www.w3.org/2000/svg"
 width="1024.000000pt" height="1024.000000pt" viewBox="0 0 1024.000000 1024.000000"
 preserveAspectRatio="xMidYMid meet">
<metadata>
Created by potrace 1.10, written by Peter Selinger 2001-2011
</metadata>
<g transform="translate(0.000000,1024.000000) scale(0.100000,-0.100000)"
fill="#000000" stroke="none">
<path d="M7613 8806 c-68 -25 -147 -73 -182 -110 l-22 -24 56 -65 c31 -37 64
-72 74 -79 35 -25 123 -134 161 -198 21 -36 49 -98 64 -138 58 -164 56 -67 56
-2231 0 -1774 -2 -2050 -20 -2581 -11 -327 -27 -730 -36 -894 -25 -447 -15
-583 59 -787 46 -126 78 -187 119 -226 44 -42 75 -53 127 -43 99 18 146 96
193 323 8 37 13 997 18 3272 6 2982 7 3227 23 3313 17 90 17 95 -1 135 -10 23
-36 59 -58 79 -58 57 -512 281 -562 277 -4 0 -35 -10 -69 -23z"/>
<path d="M4795 8035 c-109 -45 -110 -61 -4 -183 51 -59 124 -209 151 -312 l23
-85 0 -1570 c0 -1262 -3 -1626 -15 -1855 -19 -369 -17 -492 9 -595 36 -136
133 -302 204 -345 48 -30 108 -26 142 8 64 63 100 198 115 431 6 83 10 976 10
2090 0 1753 2 1957 17 2072 9 69 13 134 10 143 -11 27 -95 74 -196 107 -53 18
-154 54 -225 81 -70 26 -136 48 -145 47 -9 0 -52 -16 -96 -34z"/>
<path d="M2389 7883 l-87 -36 15 -36 c8 -20 35 -63 60 -96 97 -129 120 -205
159 -525 27 -224 27 -227 21 -700 -12 -951 -74 -1636 -203 -2239 -166 -777
-353 -1246 -714 -1786 -90 -134 -243 -344 -313 -428 -22 -26 -38 -49 -36 -51
43 -32 84 -47 114 -42 125 24 431 346 672 706 301 451 483 851 658 1450 140
476 211 945 255 1670 16 264 30 708 30 960 0 252 14 589 31 756 13 125 8 144
-53 200 -104 97 -393 235 -486 233 -20 0 -76 -17 -123 -36z"/>
</g>
</svg>
