<?xml version="1.0" standalone="no"?>
<!DOCTYPE svg PUBLIC "-//W3C//DTD SVG 20010904//EN"
 "http://www.w3.org/TR/2001/REC-SVG-20010904/DTD/svg10.dtd">
<svg version="1.0" xmlns="http://www.w3.org/2000/svg"
 width="1024.000000pt" height="1024.000000pt" viewBox="0 0 1024.000000 1024.000000"
 preserveAspectRatio="xMidYMid meet">
<metadata>
Created by potrace 1.10, written by Peter Selinger 2001-2011
</metadata>
<g transform="translate(0.000000,1024.000000) scale(0.100000,-0.100000)"
fill="#000000" stroke="none">
<path d="M6630 10233 c-8 -3 -91 -44 -183 -90 -171 -85 -354 -190 -507 -293
-47 -31 -128 -77 -180 -102 -440 -207 -797 -545 -1013 -958 -68 -130 -144
-314 -153 -371 -4 -24 -65 -159 -140 -308 -73 -146 -153 -318 -179 -381 -115
-285 -285 -531 -550 -795 -173 -174 -275 -253 -636 -497 -614 -414 -949 -615
-1454 -873 -480 -245 -1167 -547 -1503 -662 l-132 -45 0 -107 c0 -70 4 -111
12 -119 22 -22 80 -13 157 24 42 20 108 49 147 64 313 125 935 410 1360 623
242 122 1173 658 1374 791 375 250 790 582 988 791 113 119 233 291 319 457
38 72 74 140 80 152 7 11 13 31 13 43 0 11 13 51 30 87 16 37 34 85 41 109 6
23 57 123 114 222 85 148 123 229 215 458 79 200 122 294 150 331 22 29 40 58
40 64 0 25 154 213 251 307 170 164 182 172 689 457 156 88 310 178 342 199
81 56 268 145 365 175 69 22 89 33 123 70 33 36 40 51 40 85 0 32 -6 47 -29
70 -27 27 -35 29 -103 28 -40 0 -80 -3 -88 -6z"/>
<path d="M7383 10116 c-39 -19 -93 -49 -120 -67 -66 -45 -812 -687 -893 -769
-115 -115 -230 -297 -230 -364 0 -38 21 -71 60 -91 53 -27 62 -21 109 72 53
104 136 215 223 300 35 34 180 161 323 283 183 155 300 247 395 307 74 48 159
107 188 131 61 51 126 141 117 163 -6 15 -78 69 -92 69 -4 -1 -40 -16 -80 -34z"/>
<path d="M8350 10044 c-588 -326 -1192 -786 -1705 -1299 -156 -155 -231 -244
-329 -388 -105 -155 -101 -224 13 -257 l31 -9 73 112 c136 207 193 269 538
587 220 203 296 265 729 591 266 200 498 372 514 381 17 9 54 25 81 34 73 25
144 62 192 102 48 39 125 147 117 165 -5 14 -78 67 -91 67 -5 0 -79 -39 -163
-86z"/>
<path d="M5103 9820 c-24 -14 -36 -32 -47 -71 -19 -63 -20 -80 -4 -114 16 -35
57 -55 112 -55 40 0 46 3 64 34 12 19 28 62 38 96 l17 61 -23 24 c-22 23 -75
45 -110 45 -8 0 -29 -9 -47 -20z m92 -90 c0 -45 0 -45 -37 -48 -37 -3 -38 -2
-38 29 0 39 26 71 54 67 18 -3 21 -10 21 -48z"/>
<path d="M3150 9687 c-9 -7 -37 -38 -63 -70 l-47 -59 0 -129 c0 -127 0 -129
26 -146 14 -9 49 -18 77 -21 61 -5 102 18 153 84 46 62 51 124 19 280 -3 14
-24 30 -64 48 -65 29 -79 31 -101 13z"/>
<path d="M9895 9557 c-110 -57 -265 -141 -345 -186 -528 -302 -995 -695 -1401
-1181 -90 -108 -155 -198 -266 -367 -60 -93 -140 -196 -213 -278 -228 -255
-404 -495 -549 -751 -42 -74 -63 -132 -121 -328 -80 -272 -149 -453 -259 -681
-79 -163 -198 -483 -329 -885 -86 -262 -187 -528 -257 -675 -28 -60 -245 -470
-482 -910 l-429 -800 -364 -545 -363 -545 -553 -667 c-305 -368 -560 -681
-569 -698 -30 -58 -26 -60 98 -60 l113 0 363 404 c389 434 500 568 731 882
254 343 398 561 728 1099 l319 520 415 880 415 880 118 369 c106 331 128 389
214 570 82 168 120 267 236 606 138 403 139 406 220 536 78 126 580 800 652
875 19 20 65 86 101 147 61 101 95 140 376 434 406 423 572 567 911 791 205
135 384 237 609 348 99 49 190 99 203 111 20 19 23 31 23 104 l0 82 -31 11
c-73 25 -104 16 -314 -92z"/>
<path d="M8680 9254 c-184 -129 -369 -259 -410 -289 -103 -75 -254 -213 -345
-314 -75 -84 -76 -85 -73 -134 2 -40 8 -54 29 -69 40 -30 67 -12 127 85 41 67
70 101 140 160 95 79 245 186 327 232 28 16 68 45 90 64 22 20 145 114 273
210 265 198 279 216 205 269 l-28 20 -335 -234z"/>
<path d="M4240 9463 c-48 -19 -122 -117 -151 -200 -26 -78 -26 -189 2 -222 19
-23 23 -24 114 -17 114 8 132 14 179 62 40 41 64 107 72 194 10 103 -54 177
-159 186 -23 2 -49 1 -57 -3z m70 -156 c0 -2 -6 -17 -14 -33 -8 -16 -17 -53
-21 -81 -7 -52 -7 -53 -41 -53 -19 0 -34 5 -34 11 0 23 82 159 96 159 8 0 14
-2 14 -3z"/>
<path d="M1779 9419 c-29 -55 -29 -77 2 -103 38 -32 93 -50 137 -42 41 6 52
19 52 62 0 37 -27 64 -88 87 -58 23 -89 22 -103 -4z"/>
<path d="M2387 8931 c-90 -16 -117 -33 -117 -72 0 -40 100 -87 162 -75 54 10
116 55 124 90 5 25 2 34 -20 53 -31 26 -31 26 -149 4z m85 -47 c14 -9 8 -52
-8 -58 -37 -14 -74 -6 -86 19 -17 37 5 59 51 50 20 -4 39 -9 43 -11z"/>
<path d="M4402 8879 c-23 -9 -49 -77 -39 -103 11 -29 52 -47 80 -37 23 9 48
60 47 96 -1 20 -65 52 -88 44z"/>
<path d="M1763 8693 c-15 -3 -34 -25 -58 -68 l-36 -63 3 -114 3 -113 50 -25
c39 -20 65 -25 120 -25 98 1 159 29 185 87 39 86 22 165 -50 232 -70 65 -157
101 -217 89z m82 -165 c24 -11 55 -54 55 -77 0 -10 -58 -26 -66 -18 -11 10
-32 107 -24 107 5 0 21 -5 35 -12z"/>
<path d="M3142 8653 c-24 -5 -142 -144 -142 -167 0 -7 -11 -34 -24 -59 -38
-70 -28 -110 37 -147 27 -15 65 -31 83 -35 77 -14 162 38 225 137 29 45 34 61
34 113 0 46 -5 67 -22 91 -32 45 -129 79 -191 67z m62 -169 c9 -22 -10 -51
-44 -69 -52 -27 -53 -16 -8 43 35 46 43 50 52 26z"/>
<path d="M1325 8518 c-39 -21 -45 -39 -45 -138 0 -87 2 -98 23 -117 45 -41 94
-53 155 -36 31 8 62 79 62 143 0 61 -32 103 -105 136 -57 27 -62 28 -90 12z
m118 -127 c12 -12 -19 -81 -37 -81 -31 0 -46 13 -46 40 0 50 10 63 44 56 17
-4 34 -10 39 -15z"/>
<path d="M9128 7844 c-16 -8 -28 -20 -28 -27 0 -7 -11 -33 -25 -59 -19 -35
-25 -62 -25 -106 0 -53 2 -60 26 -73 37 -19 132 -17 172 5 21 11 41 33 53 59
21 48 25 140 7 154 -11 9 -144 64 -151 63 -1 -1 -14 -8 -29 -16z m91 -87 c21
-55 18 -70 -18 -79 -45 -12 -54 -1 -46 56 6 40 10 46 31 46 16 0 27 -8 33 -23z"/>
<path d="M2196 7835 c-48 -17 -96 -62 -96 -91 0 -21 3 -21 68 -17 37 3 90 8
117 12 46 6 50 9 53 35 5 38 -31 76 -72 76 -17 -1 -48 -7 -70 -15z"/>
<path d="M3317 7752 c-26 -29 -41 -80 -28 -96 14 -17 150 -29 168 -14 7 6 13
25 13 43 0 67 -110 115 -153 67z"/>
<path d="M1280 7712 l-35 -17 3 -120 c4 -133 8 -143 74 -176 64 -33 126 -19
183 41 25 27 29 37 29 93 -1 101 -50 164 -144 186 -61 14 -70 14 -110 -7z
m143 -149 c4 -33 1 -52 -8 -62 -33 -34 -95 57 -65 94 7 8 25 15 40 15 25 0 28
-4 33 -47z"/>
<path d="M5860 7448 c-119 -45 -333 -209 -525 -403 -129 -130 -134 -137 -874
-1194 l-744 -1063 -835 -1001 c-459 -551 -864 -1034 -899 -1074 -168 -190
-460 -465 -703 -664 -133 -108 -432 -332 -487 -364 -2 -1 4 -22 13 -47 15 -44
17 -46 63 -52 49 -6 49 -6 232 110 239 152 401 288 738 618 293 288 390 400
1247 1432 821 989 833 1004 1207 1517 323 444 399 555 529 775 235 397 319
522 479 707 157 182 284 298 414 375 66 40 145 83 175 97 64 28 123 82 152
138 l21 39 -44 38 c-51 44 -78 47 -159 16z"/>
<path d="M464 7357 c-22 -13 -94 -90 -94 -101 0 -13 66 -46 91 -46 18 0 37 11
57 34 28 32 49 74 40 80 -26 20 -67 46 -70 46 -1 -1 -12 -6 -24 -13z m35 -31
c7 -8 13 -27 14 -42 2 -24 -3 -29 -31 -35 -39 -8 -48 5 -37 48 10 41 34 54 54
29z"/>
<path d="M8284 7294 c-12 -3 -31 -15 -43 -28 -20 -21 -21 -32 -19 -132 l3
-109 114 2 c63 1 118 6 122 10 5 5 16 38 26 74 16 64 16 67 -3 104 -12 22 -35
46 -55 57 -36 19 -109 30 -145 22z m102 -100 c39 -30 42 -51 15 -85 l-19 -24
-36 19 c-30 16 -36 25 -36 52 0 70 20 80 76 38z"/>
<path d="M2660 7188 c-48 -33 -91 -122 -92 -190 -1 -125 69 -235 169 -264 48
-14 67 -15 127 -5 106 18 142 31 185 67 72 62 78 189 14 293 -38 60 -81 85
-159 87 -34 2 -86 10 -115 18 -70 21 -90 20 -129 -6z m213 -145 c48 -4 67 -10
67 -20 0 -8 9 -31 19 -52 l20 -38 -27 -25 c-55 -52 -110 -61 -180 -33 -79 34
-100 81 -64 144 19 34 35 37 165 24z"/>
<path d="M1712 6854 c-51 -43 -56 -81 -16 -113 55 -43 123 -14 143 61 10 41 9
44 -17 65 -38 32 -62 29 -110 -13z"/>
<path d="M847 6728 c-9 -7 -26 -37 -37 -66 l-20 -53 24 -24 c29 -29 71 -32
104 -9 18 12 22 25 22 69 0 48 -3 56 -29 74 -34 24 -41 25 -64 9z"/>
<path d="M1498 6028 c-25 -8 -48 -53 -48 -92 0 -5 -7 -17 -16 -27 -18 -20 -31
-131 -20 -172 8 -34 95 -77 155 -77 40 0 49 5 87 44 72 75 101 214 58 274 -41
55 -140 78 -216 50z"/>
<path d="M9198 6000 c-62 -12 -78 -33 -78 -105 0 -61 1 -63 34 -79 43 -20 110
-21 141 0 26 17 45 61 45 105 0 22 -9 33 -50 58 -28 17 -51 30 -53 30 -1 -1
-19 -5 -39 -9z m76 -62 c13 -51 9 -58 -38 -58 -42 0 -43 1 -39 28 8 47 12 52
42 52 21 0 30 -6 35 -22z"/>
<path d="M485 5803 c-25 -15 -59 -54 -91 -102 l-51 -77 1 -102 c1 -102 1 -102
31 -122 47 -32 116 -61 161 -67 59 -8 106 11 154 63 90 98 106 211 39 280 -19
19 -48 44 -66 55 -18 11 -35 29 -38 40 -4 11 -16 26 -28 33 -41 25 -70 25
-112 -1z m90 -190 c30 -15 55 -31 55 -36 0 -14 -43 -87 -51 -87 -3 0 -20 3
-37 6 -25 5 -32 13 -42 48 -10 38 -2 96 15 96 2 0 29 -12 60 -27z"/>
<path d="M7759 5556 c-44 -18 -59 -37 -59 -71 0 -25 8 -40 31 -59 56 -47 132
-27 145 39 11 58 -61 114 -117 91z"/>
<path d="M9401 5490 c-85 -18 -114 -76 -67 -135 21 -26 31 -30 72 -30 27 0 54
-3 59 -6 6 -4 34 -4 63 -2 69 7 84 32 57 93 -33 72 -93 98 -184 80z m133 -61
c33 -26 37 -79 6 -79 -27 0 -120 52 -120 67 0 35 75 43 114 12z"/>
<path d="M2677 5415 c-15 -7 -55 -42 -90 -77 -34 -35 -514 -488 -1066 -1008
l-1003 -945 5 -38 c6 -46 32 -77 62 -77 12 0 40 12 61 26 21 15 73 50 114 78
41 28 406 350 810 716 405 366 779 700 832 743 107 87 183 165 264 272 62 83
144 222 144 245 -1 15 -78 80 -96 80 -5 0 -21 -7 -37 -15z"/>
<path d="M5683 5415 c-40 -17 -55 -64 -42 -127 8 -40 3 -61 -73 -275 l-83
-233 -656 -772 c-634 -746 -1328 -1595 -1492 -1823 -176 -246 -336 -514 -484
-813 -114 -229 -125 -277 -77 -331 18 -20 42 -34 64 -37 l36 -6 123 253 c249
512 310 604 839 1273 364 460 452 564 881 1039 598 665 705 798 894 1112 95
156 211 392 226 457 23 100 4 179 -61 252 -43 50 -48 52 -95 31z"/>
<path d="M9045 5098 c-23 -13 -37 -33 -47 -68 -10 -33 25 -70 66 -70 37 0 49
7 65 37 18 35 13 62 -16 88 -32 28 -40 29 -68 13z"/>
<path d="M8423 4954 c-20 -20 -24 -31 -19 -57 6 -32 37 -71 69 -89 32 -17 74
0 86 34 12 35 10 40 -41 97 -44 48 -60 50 -95 15z"/>
<path d="M7174 4881 c-45 -20 -54 -35 -54 -86 0 -27 6 -37 36 -54 42 -25 57
-26 74 -6 9 11 32 15 81 15 62 0 70 2 85 25 23 35 12 66 -38 98 -51 33 -122
36 -184 8z m165 -27 c26 -5 31 -11 31 -34 0 -30 -18 -40 -77 -40 -47 0 -91 49
-66 73 8 9 71 9 112 1z"/>
<path d="M8545 4285 c-18 -23 -25 -41 -20 -55 8 -24 54 -50 90 -50 31 0 85 49
85 77 0 33 -42 63 -88 63 -35 0 -45 -5 -67 -35z"/>
<path d="M7381 4097 c-13 -6 -29 -27 -37 -45 -13 -32 -12 -35 13 -58 53 -49
153 -17 153 50 0 51 -75 82 -129 53z"/>
<path d="M6466 3970 c7 -40 24 -76 23 -50 0 8 -7 31 -15 50 l-14 35 6 -35z"/>
<path d="M8067 3690 c-27 -17 -60 -43 -74 -58 -36 -38 -73 -120 -73 -164 0
-32 7 -42 53 -81 68 -58 87 -67 139 -67 57 1 117 29 162 77 36 37 37 39 33
105 -5 80 -39 146 -95 183 -60 40 -90 41 -145 5z m93 -165 c18 -34 -2 -56 -42
-48 -31 6 -32 10 -18 47 12 33 43 34 60 1z"/>
<path d="M9055 3686 c-47 -20 -105 -98 -105 -139 0 -100 162 -174 290 -132 29
10 61 26 71 36 33 33 20 128 -25 178 -45 51 -173 83 -231 57z m183 -127 c3
-30 -1 -37 -23 -47 -40 -18 -62 -14 -84 14 -21 27 -27 55 -14 68 4 4 32 6 63
4 l55 -3 3 -36z"/>
<path d="M6785 3286 c-16 -8 -73 -46 -125 -83 -90 -65 -96 -71 -115 -127 -11
-33 -26 -61 -32 -64 -14 -4 -19 -195 -7 -227 4 -8 26 -29 50 -46 36 -24 57
-31 122 -36 l79 -6 5 -97 c9 -188 80 -247 240 -201 44 12 49 17 59 55 23 85
-10 175 -79 218 l-37 23 75 12 c183 31 256 67 297 147 20 38 22 123 4 193 -13
51 -15 54 -84 92 -75 41 -162 71 -206 71 -17 0 -37 13 -61 42 -34 39 -40 42
-96 45 -38 2 -70 -2 -89 -11z m145 -168 c112 -35 163 -58 213 -93 46 -34 47
-36 47 -89 l0 -55 -52 -5 c-176 -20 -481 -45 -489 -40 -17 10 -10 70 11 89 15
14 20 31 20 69 l0 51 78 52 c42 28 84 49 92 47 8 -3 44 -15 80 -26z"/>
<path d="M8532 2651 c-62 -21 -52 -12 -96 -88 -48 -82 -47 -103 10 -149 38
-32 55 -38 102 -42 67 -4 106 16 159 86 61 81 52 146 -28 183 -56 26 -91 29
-147 10z m84 -88 c3 -16 8 -35 10 -44 2 -9 -4 -24 -15 -33 -16 -14 -23 -15
-41 -6 -19 10 -21 17 -16 53 8 50 13 57 36 57 13 0 22 -9 26 -27z"/>
<path d="M9555 2443 c-24 -5 -60 -57 -69 -101 -7 -28 -4 -33 26 -52 76 -46
167 -2 168 82 0 13 -93 82 -103 77 -1 -1 -11 -4 -22 -6z"/>
<path d="M6062 2220 c-30 -19 -32 -23 -32 -78 0 -48 4 -62 23 -80 26 -24 54
-28 91 -11 32 15 38 32 30 84 -7 50 -10 55 -50 82 -30 22 -31 22 -62 3z"/>
<path d="M7637 2070 c-66 -21 -86 -41 -87 -86 0 -19 -9 -39 -25 -54 -68 -64 7
-239 117 -272 46 -14 107 1 169 42 32 22 48 42 64 82 22 56 23 52 -10 234 -6
35 -25 46 -113 63 -29 6 -54 11 -55 10 -1 0 -28 -9 -60 -19z m118 -175 c4 -29
2 -51 -7 -64 -16 -26 -61 -45 -90 -38 -20 6 -23 13 -25 66 l-1 60 41 13 c60
20 74 14 82 -37z"/>
<path d="M6228 1652 c-26 -15 -28 -21 -28 -84 l0 -68 41 0 c33 0 40 3 35 16
-8 22 11 53 39 64 18 7 22 14 17 32 -6 26 -40 57 -62 57 -8 0 -27 -7 -42 -17z"/>
<path d="M6360 1526 c0 -9 5 -16 10 -16 6 0 10 4 10 9 0 6 -4 13 -10 16 -5 3
-10 -1 -10 -9z"/>
<path d="M8592 1129 c-40 -39 -72 -79 -72 -88 0 -15 -12 -19 -64 -24 -73 -7
-162 -36 -206 -67 -25 -18 -30 -28 -30 -64 0 -28 6 -48 18 -58 17 -16 455 -98
521 -98 95 0 181 61 225 160 32 71 29 104 -12 142 -40 37 -264 168 -288 168
-11 0 -51 -30 -92 -71z m118 -109 c0 -14 75 -50 105 -50 30 0 30 -3 8 -40 -17
-29 -47 -40 -107 -40 -73 0 -91 135 -18 139 6 1 12 -3 12 -9z"/>
<path d="M7163 1099 c-23 -11 -62 -43 -88 -70 -45 -48 -46 -51 -40 -97 10 -70
10 -71 67 -97 95 -44 196 -29 275 41 31 28 37 47 34 114 -1 17 -11 32 -30 43
-16 9 -48 33 -71 52 -49 41 -85 45 -147 14z m153 -77 c6 -4 18 -20 26 -36 12
-23 13 -35 4 -58 -10 -28 -13 -29 -66 -27 -86 4 -100 13 -100 70 0 28 5 49 13
52 19 8 111 8 123 -1z"/>
<path d="M5667 579 c-58 -16 -201 -147 -219 -200 -3 -8 -17 -3 -43 13 -22 14
-55 30 -74 36 -46 16 -154 15 -194 -2 l-33 -13 -22 46 c-14 32 -33 53 -59 68
l-38 21 -78 -31 c-65 -25 -83 -38 -107 -72 -16 -23 -35 -47 -44 -54 -10 -9
-16 -29 -16 -56 0 -35 5 -48 26 -64 15 -12 33 -21 40 -21 7 0 44 27 83 60 l69
60 22 -37 c12 -21 33 -47 48 -58 36 -27 107 -26 156 3 l36 21 54 -20 c52 -20
54 -22 44 -45 -9 -20 -8 -29 9 -52 26 -35 68 -55 100 -47 41 10 118 95 137
150 14 44 87 135 107 135 4 0 21 -24 37 -52 36 -63 82 -108 139 -138 52 -27
74 -23 84 13 6 23 -2 48 -39 125 -69 143 -161 229 -225 211z"/>
<path d="M8475 361 c-33 -27 -71 -67 -85 -90 -23 -39 -62 -61 -108 -61 -18 0
-62 -49 -62 -69 0 -32 41 -44 166 -49 141 -5 247 12 362 60 l72 30 0 62 0 62
-123 52 c-67 29 -131 52 -142 52 -11 0 -47 -22 -80 -49z m223 -113 l3 -48 -57
0 c-88 0 -120 38 -67 80 20 16 38 20 72 18 l46 -3 3 -47z"/>
</g>
</svg>
