<?xml version="1.0" standalone="no"?>
<!DOCTYPE svg PUBLIC "-//W3C//DTD SVG 20010904//EN"
 "http://www.w3.org/TR/2001/REC-SVG-20010904/DTD/svg10.dtd">
<svg version="1.0" xmlns="http://www.w3.org/2000/svg"
 width="1024.000000pt" height="1024.000000pt" viewBox="0 0 1024.000000 1024.000000"
 preserveAspectRatio="xMidYMid meet">
<metadata>
Created by potrace 1.10, written by Peter Selinger 2001-2011
</metadata>
<g transform="translate(0.000000,1024.000000) scale(0.100000,-0.100000)"
fill="#000000" stroke="none">
<path d="M7518 9065 c-46 -43 -48 -64 -14 -190 35 -131 69 -214 142 -353 50
-95 119 -272 300 -764 281 -766 300 -829 335 -1092 17 -131 6 -407 -20 -526
-57 -254 -114 -450 -190 -640 -97 -247 -140 -324 -377 -680 -200 -299 -265
-408 -344 -573 -158 -333 -256 -699 -291 -1087 -21 -239 3 -563 61 -807 32
-137 369 -1174 394 -1213 12 -19 51 -129 86 -243 69 -228 97 -284 155 -311 47
-23 130 -16 151 11 30 37 -14 229 -88 383 -35 72 -240 636 -393 1080 -48 139
-87 304 -113 473 -21 143 -24 613 -4 757 54 379 188 783 339 1017 21 32 176
300 345 596 278 488 314 556 378 718 112 284 150 467 150 721 0 343 -108 839
-271 1251 -22 53 -39 110 -39 125 0 15 -10 43 -23 62 -13 19 -45 98 -71 175
-65 187 -179 477 -275 693 -43 97 -86 204 -96 237 -9 33 -25 75 -35 95 -25 48
-104 120 -132 120 -13 0 -40 -16 -60 -35z"/>
<path d="M5256 9051 c-16 -3 -38 -19 -50 -34 l-20 -28 82 -247 c61 -183 89
-254 108 -273 16 -17 33 -53 45 -98 29 -109 268 -762 290 -793 10 -15 19 -36
19 -46 0 -10 20 -80 45 -154 28 -85 45 -154 45 -184 0 -27 25 -179 54 -339 49
-262 53 -293 41 -322 -8 -18 -28 -124 -45 -235 -18 -112 -38 -218 -46 -237 -8
-18 -14 -39 -14 -46 0 -31 -191 -345 -531 -870 l-367 -570 -106 -283 c-86
-229 -112 -311 -136 -430 -41 -207 -58 -345 -71 -595 -19 -357 6 -717 76
-1062 70 -351 276 -1010 430 -1377 44 -104 82 -143 129 -134 45 9 76 33 92 72
14 33 12 40 -45 197 -149 411 -293 893 -365 1229 -120 557 -123 1236 -6 1724
39 165 107 371 136 416 13 21 24 48 24 61 0 13 13 43 29 68 16 24 101 154 188
289 88 135 253 376 366 535 169 236 222 319 285 445 120 237 179 439 203 695
30 319 -66 864 -222 1272 -23 59 -54 142 -70 184 -15 42 -41 106 -58 144 -17
37 -31 82 -31 100 0 21 -44 126 -119 287 -87 187 -121 273 -130 322 -17 99
-46 168 -94 221 -40 46 -113 106 -126 104 -3 -1 -19 -4 -35 -8z"/>
<path d="M2460 9012 c-9 -4 -32 -20 -53 -36 -31 -24 -37 -34 -37 -67 0 -24 12
-63 29 -97 15 -31 32 -68 36 -82 4 -14 22 -50 40 -80 18 -30 35 -71 38 -90 6
-40 378 -896 413 -950 12 -19 50 -129 84 -245 34 -115 69 -220 77 -233 8 -13
34 -101 58 -195 25 -95 60 -228 78 -297 l34 -125 -74 -239 -73 -240 -177 -235
c-97 -130 -202 -265 -233 -301 -265 -304 -435 -665 -489 -1045 -27 -187 -44
-472 -36 -620 3 -66 33 -401 66 -745 l61 -625 204 -930 c112 -511 211 -945
221 -964 26 -51 64 -74 128 -79 67 -5 95 13 95 63 0 78 -55 317 -148 640 -165
573 -216 799 -286 1270 -17 109 -112 1189 -122 1375 -7 125 8 376 32 535 33
220 99 469 137 514 13 15 31 50 41 77 10 27 27 58 36 69 10 11 32 43 49 72 16
29 99 132 183 230 180 209 223 264 310 398 94 143 147 247 227 441 77 187 98
278 86 373 -18 147 -189 700 -312 1011 -36 91 -70 181 -75 200 -6 19 -73 163
-149 319 -91 186 -139 295 -139 316 0 20 -30 95 -75 190 -41 86 -75 168 -75
182 0 14 -16 47 -35 73 -19 26 -35 54 -35 61 0 8 -9 28 -20 46 -29 48 -87 79
-120 65z"/>
<path d="M6575 4030 c3 -14 8 -37 11 -52 4 -16 10 -28 15 -28 12 0 12 -3 -11
55 -12 28 -18 39 -15 25z"/>
</g>
</svg>
