<?xml version="1.0" standalone="no"?>
<!DOCTYPE svg PUBLIC "-//W3C//DTD SVG 20010904//EN"
 "http://www.w3.org/TR/2001/REC-SVG-20010904/DTD/svg10.dtd">
<svg version="1.0" xmlns="http://www.w3.org/2000/svg"
 width="1024.000000pt" height="1024.000000pt" viewBox="0 0 1024.000000 1024.000000"
 preserveAspectRatio="xMidYMid meet">
<metadata>
Created by potrace 1.10, written by Peter Selinger 2001-2011
</metadata>
<g transform="translate(0.000000,1024.000000) scale(0.100000,-0.100000)"
fill="#000000" stroke="none">
<path d="M4995 9252 c-350 -231 -425 -288 -574 -441 -267 -274 -446 -574 -570
-953 -51 -159 -75 -261 -107 -458 -56 -350 -126 -722 -153 -821 -164 -577
-400 -1044 -855 -1694 -388 -554 -712 -918 -1129 -1268 -252 -211 -643 -470
-998 -660 -125 -67 -169 -113 -169 -176 0 -95 87 -108 266 -37 96 37 150 69
390 231 258 175 307 213 654 510 352 301 425 372 639 609 570 634 1089 1464
1329 2126 128 352 208 679 237 970 25 257 44 387 71 495 88 347 291 697 572
987 169 174 352 315 562 433 175 98 270 188 270 255 0 33 -31 75 -70 95 -16 8
-30 15 -32 15 -2 0 -151 -98 -333 -218z"/>
<path d="M7439 8859 c-259 -178 -442 -405 -568 -701 -186 -436 -532 -1221
-578 -1308 -112 -214 -279 -443 -449 -615 -102 -104 -244 -225 -291 -249 -45
-23 -73 -55 -73 -85 0 -38 34 -87 68 -99 25 -8 40 -5 108 28 264 125 469 342
726 770 146 243 256 468 388 790 132 324 245 561 403 839 l81 143 182 177 c99
97 186 187 193 200 20 37 5 85 -39 125 -22 20 -48 36 -58 36 -10 0 -52 -23
-93 -51z"/>
<path d="M9813 8283 c-12 -2 -51 -30 -85 -61 -317 -285 -684 -553 -1050 -766
-199 -115 -353 -255 -463 -420 -131 -198 -192 -424 -178 -662 4 -61 2 -88 -11
-111 -8 -17 -23 -93 -32 -169 -11 -92 -22 -149 -34 -169 -10 -16 -62 -178
-115 -360 -132 -453 -175 -587 -265 -830 -193 -517 -390 -917 -628 -1275 -51
-76 -286 -374 -561 -713 l-475 -582 -420 -373 -421 -372 -404 -270 c-222 -148
-417 -282 -433 -297 -60 -57 -23 -127 77 -142 l59 -9 291 171 c159 94 333 202
385 240 251 185 577 465 804 691 148 147 145 143 711 821 l409 489 199 311
c153 239 225 364 316 545 239 479 305 657 686 1860 65 203 96 397 101 630 2
129 7 186 19 213 8 20 15 47 15 59 0 28 64 147 117 218 30 41 186 162 751 582
392 292 724 545 738 563 33 44 41 97 20 130 -13 20 -88 69 -98 64 -2 -1 -13
-4 -25 -6z"/>
<path d="M5363 7862 c-39 -21 -66 -57 -221 -287 -128 -192 -253 -354 -367
-475 -121 -128 -135 -148 -135 -183 0 -43 44 -87 87 -87 43 0 142 77 294 229
95 95 171 186 309 371 179 239 210 288 210 330 0 37 -29 79 -70 100 -47 24
-65 24 -107 2z"/>
<path d="M8119 7843 c-53 -15 -93 -53 -111 -105 -10 -26 -50 -68 -163 -164
-168 -145 -351 -328 -378 -379 -22 -40 -17 -80 14 -120 17 -21 28 -25 72 -25
l52 1 325 306 c179 168 330 315 337 327 26 45 10 113 -34 141 -42 28 -67 32
-114 18z"/>
<path d="M5067 5123 c-14 -4 -117 -197 -117 -221 0 -4 -14 -27 -30 -52 -16
-25 -30 -53 -30 -62 0 -10 -231 -339 -512 -732 l-513 -714 -750 -844 -750
-844 -195 -161 c-763 -629 -731 -605 -855 -668 -125 -63 -151 -86 -161 -143
-9 -49 5 -80 49 -105 l37 -21 71 23 c103 33 272 121 364 189 136 101 580 485
797 690 352 332 630 630 1023 1097 149 176 336 398 416 493 120 142 246 317
716 1000 314 455 580 846 592 869 40 80 23 152 -47 191 -38 21 -66 25 -105 15z"/>
<path d="M3224 4081 c-40 -24 -63 -55 -135 -179 -55 -95 -86 -130 -357 -410
-440 -456 -432 -448 -432 -472 0 -32 52 -80 88 -80 96 0 590 435 847 745 134
163 159 209 153 283 -4 49 -10 60 -46 94 -46 42 -72 47 -118 19z"/>
<path d="M6800 4006 c0 -22 24 -96 31 -96 4 0 1 21 -8 48 -16 47 -23 62 -23
48z"/>
<path d="M5983 3753 c-30 -6 -42 -25 -162 -248 -57 -104 -137 -239 -178 -300
-167 -242 -416 -558 -604 -765 -129 -142 -239 -295 -239 -332 0 -39 35 -68 83
-68 36 0 50 10 207 156 208 192 346 349 557 634 159 214 389 567 471 722 41
79 19 153 -59 193 -28 15 -36 16 -76 8z"/>
</g>
</svg>
