<?xml version="1.0" standalone="no"?>
<!DOCTYPE svg PUBLIC "-//W3C//DTD SVG 20010904//EN"
 "http://www.w3.org/TR/2001/REC-SVG-20010904/DTD/svg10.dtd">
<svg version="1.0" xmlns="http://www.w3.org/2000/svg"
 width="1024.000000pt" height="1024.000000pt" viewBox="0 0 1024.000000 1024.000000"
 preserveAspectRatio="xMidYMid meet">
<metadata>
Created by potrace 1.10, written by Peter Selinger 2001-2011
</metadata>
<g transform="translate(0.000000,1024.000000) scale(0.100000,-0.100000)"
fill="#000000" stroke="none">
<path d="M4546 9648 c-9 -12 -16 -26 -16 -29 0 -4 53 -35 118 -70 260 -138
536 -313 762 -485 200 -151 343 -277 556 -489 192 -192 246 -233 361 -281 75
-30 197 -33 259 -5 90 41 141 154 132 295 -9 138 -89 256 -293 432 -185 160
-355 263 -610 372 -280 119 -340 135 -793 212 -227 38 -424 70 -437 70 -13 0
-31 -10 -39 -22z"/>
<path d="M3750 6851 c-26 -50 -16 -64 108 -146 389 -259 789 -606 1045 -909
251 -298 345 -367 505 -374 107 -5 156 13 214 77 51 56 75 124 84 233 13 148
-57 288 -231 463 -188 190 -422 334 -770 475 -120 49 -158 58 -510 126 -208
41 -392 74 -407 74 -17 0 -31 -7 -38 -19z"/>
<path d="M6195 4383 c-455 -900 -846 -1638 -1178 -2218 -304 -533 -446 -742
-545 -807 -45 -29 -50 -30 -129 -24 -133 8 -347 89 -534 202 -31 19 -61 34
-66 34 -5 0 -33 -29 -61 -64 -59 -72 -63 -92 -33 -177 46 -135 165 -335 339
-569 276 -372 473 -556 574 -536 74 15 130 61 171 141 8 17 82 201 165 410 83
209 183 452 222 540 443 982 946 2269 1265 3233 50 151 50 172 1 172 -18 0
-48 -54 -191 -337z"/>
</g>
</svg>
