<?xml version="1.0" standalone="no"?>
<!DOCTYPE svg PUBLIC "-//W3C//DTD SVG 20010904//EN"
 "http://www.w3.org/TR/2001/REC-SVG-20010904/DTD/svg10.dtd">
<svg version="1.0" xmlns="http://www.w3.org/2000/svg"
 width="1024.000000pt" height="1024.000000pt" viewBox="0 0 1024.000000 1024.000000"
 preserveAspectRatio="xMidYMid meet">
<metadata>
Created by potrace 1.10, written by Peter Selinger 2001-2011
</metadata>
<g transform="translate(0.000000,1024.000000) scale(0.100000,-0.100000)"
fill="#000000" stroke="none">
<path d="M5865 9080 c-33 -22 -61 -44 -63 -49 -2 -6 13 -55 33 -109 l37 -99
-122 -184 c-122 -183 -125 -186 -394 -455 -323 -322 -448 -428 -763 -644 -454
-313 -698 -482 -706 -489 -4 -5 4 -16 18 -25 25 -17 31 -16 238 50 234 74 279
92 512 207 507 250 990 573 1496 998 64 54 156 126 205 160 113 79 164 127
164 154 0 52 -86 151 -270 312 -159 138 -271 215 -312 212 -7 0 -40 -18 -73
-39z"/>
<path d="M5738 6370 c-32 -22 -58 -45 -58 -50 0 -5 16 -53 36 -105 l36 -96
-103 -162 -102 -162 -371 -373 -371 -373 -437 -311 -438 -310 17 -29 c10 -16
23 -27 30 -25 7 3 100 37 205 75 219 78 378 148 588 258 326 170 396 216 996
669 318 239 589 450 602 468 26 37 22 61 -26 130 -37 54 -330 326 -411 381
-95 65 -122 67 -193 15z"/>
<path d="M5775 3508 c-27 -12 -52 -23 -54 -24 -1 -2 13 -45 33 -96 20 -51 36
-98 36 -104 0 -6 -27 -71 -60 -144 -62 -138 -112 -212 -288 -430 -280 -346
-736 -808 -1067 -1084 -317 -263 -704 -526 -1013 -689 l-112 -59 20 -28 20
-28 113 29 c149 39 247 71 397 132 262 105 417 189 898 485 l472 291 453 401
c248 221 472 423 497 449 114 120 300 333 300 344 -1 42 -99 190 -198 297 -63
69 -240 213 -313 255 -53 30 -70 30 -134 3z"/>
</g>
</svg>
