<?xml version="1.0" standalone="no"?>
<!DOCTYPE svg PUBLIC "-//W3C//DTD SVG 20010904//EN"
 "http://www.w3.org/TR/2001/REC-SVG-20010904/DTD/svg10.dtd">
<svg version="1.0" xmlns="http://www.w3.org/2000/svg"
 width="1024.000000pt" height="1024.000000pt" viewBox="0 0 1024.000000 1024.000000"
 preserveAspectRatio="xMidYMid meet">
<metadata>
Created by potrace 1.10, written by Peter Selinger 2001-2011
</metadata>
<g transform="translate(0.000000,1024.000000) scale(0.100000,-0.100000)"
fill="#000000" stroke="none">
<path d="M6257 9173 c-8 -10 -19 -31 -22 -46 -6 -24 -2 -33 34 -67 24 -23 41
-48 41 -62 0 -13 11 -43 25 -67 31 -53 31 -84 3 -141 -20 -39 -51 -65 -243
-198 -121 -85 -259 -173 -307 -198 -47 -24 -410 -174 -805 -335 -690 -279
-734 -296 -1128 -419 -226 -70 -458 -138 -515 -150 -58 -11 -118 -29 -135 -39
-41 -24 -53 -60 -30 -94 16 -25 22 -27 91 -27 72 0 111 13 1037 331 529 182
1015 353 1080 380 150 63 447 208 601 294 83 47 167 107 280 200 187 154 188
155 217 220 25 57 28 132 5 190 -8 22 -20 66 -26 98 -18 89 -78 147 -153 147
-20 0 -41 -7 -50 -17z"/>
<path d="M6481 6362 c-6 -11 -13 -38 -17 -62 -6 -35 -19 -53 -88 -120 l-80
-78 -1211 -542 c-665 -298 -1226 -550 -1245 -559 -46 -21 -68 -60 -55 -97 24
-66 -32 -87 1237 462 645 278 1203 524 1240 545 37 22 100 66 140 98 176 140
232 247 175 332 -28 41 -79 53 -96 21z"/>
<path d="M6605 4157 c-25 -21 -26 -24 -15 -70 14 -53 18 -43 -65 -141 -28 -33
-89 -85 -140 -119 -49 -33 -538 -299 -1085 -590 -547 -290 -1020 -545 -1050
-564 -149 -97 -356 -275 -506 -434 -76 -81 -257 -314 -311 -399 -61 -99 -403
-774 -403 -797 0 -23 29 -53 53 -53 27 0 182 241 277 430 108 215 195 359 304
504 188 249 409 463 678 655 131 94 757 421 1163 607 544 251 710 337 925 481
91 61 295 291 309 350 13 51 -2 98 -45 138 -33 31 -55 32 -89 2z"/>
<path d="M7520 951 c-25 -7 -25 -7 9 -19 48 -17 61 -15 61 8 0 21 -21 25 -70
11z"/>
</g>
</svg>
