<?xml version="1.0" standalone="no"?>
<!DOCTYPE svg PUBLIC "-//W3C//DTD SVG 20010904//EN"
 "http://www.w3.org/TR/2001/REC-SVG-20010904/DTD/svg10.dtd">
<svg version="1.0" xmlns="http://www.w3.org/2000/svg"
 width="1024.000000pt" height="1024.000000pt" viewBox="0 0 1024.000000 1024.000000"
 preserveAspectRatio="xMidYMid meet">
<metadata>
Created by potrace 1.10, written by Peter Selinger 2001-2011
</metadata>
<g transform="translate(0.000000,1024.000000) scale(0.100000,-0.100000)"
fill="#000000" stroke="none">
<path d="M6025 9350 c-11 -4 -30 -18 -41 -31 -36 -41 -1205 -1926 -1214 -1960
-5 -17 -13 -36 -19 -42 -5 -7 -39 -68 -76 -137 -37 -69 -94 -164 -126 -212
-32 -47 -59 -92 -59 -98 0 -6 -32 -65 -70 -131 -39 -66 -70 -124 -70 -128 0
-5 -18 -46 -39 -92 -74 -159 -90 -298 -50 -439 29 -106 68 -173 204 -355 219
-293 342 -433 684 -780 246 -250 313 -328 409 -481 164 -263 234 -488 219
-704 -19 -266 -164 -737 -328 -1062 -22 -43 -250 -455 -507 -916 -454 -812
-552 -1003 -552 -1076 0 -40 41 -76 87 -76 33 0 45 7 96 61 71 76 129 160 169
247 17 37 42 79 55 93 13 14 72 133 132 265 93 205 145 300 362 664 139 234
294 506 344 605 137 268 245 556 320 850 46 180 59 285 52 445 -9 224 -55 367
-200 621 -165 289 -267 413 -527 646 -309 276 -538 544 -740 866 -54 85 -65
111 -70 159 -3 32 -2 68 3 80 5 13 15 61 24 108 9 48 25 98 37 115 11 16 119
214 239 440 120 225 224 413 231 417 7 4 25 35 41 69 15 34 264 433 553 888
289 454 536 844 549 866 33 57 31 123 -3 165 -25 29 -73 61 -91 59 -4 0 -17
-4 -28 -9z"/>
<path d="M7677 8077 c-63 -35 -114 -98 -132 -164 -8 -32 -74 -240 -146 -463
-255 -793 -269 -832 -300 -868 -40 -45 -40 -93 0 -133 19 -19 40 -29 59 -29
16 0 43 -3 60 -6 25 -5 37 0 71 32 23 21 49 50 57 66 8 15 35 115 59 220 25
106 63 258 85 338 55 204 196 618 226 662 13 21 24 44 24 53 0 8 12 25 26 38
63 54 90 142 60 196 -12 21 -91 82 -105 80 -3 0 -23 -10 -44 -22z"/>
<path d="M3825 7788 c-22 -7 -129 -127 -397 -442 -201 -237 -446 -530 -543
-651 -98 -121 -191 -235 -207 -253 -54 -63 -16 -137 71 -137 52 0 92 34 284
242 166 180 275 308 394 466 41 54 180 209 309 344 129 135 241 258 250 275
22 43 22 103 0 127 -33 36 -103 49 -161 29z"/>
<path d="M6652 4060 c0 -8 8 -37 18 -65 10 -27 18 -43 18 -35 0 8 -8 38 -18
65 -10 28 -18 43 -18 35z"/>
<path d="M8380 3113 c-36 -6 -1110 -1139 -1128 -1191 -16 -46 -2 -109 34 -147
26 -29 53 -31 94 -10 33 17 1123 1153 1152 1200 27 45 23 79 -12 109 -26 21
-94 49 -110 44 -3 0 -16 -3 -30 -5z"/>
<path d="M2950 2917 c-59 -38 -65 -46 -68 -80 -2 -27 -112 -238 -389 -750
-212 -392 -397 -736 -411 -765 -30 -66 -25 -103 20 -149 50 -52 74 -46 153 39
37 40 95 115 130 168 62 94 701 1303 723 1369 16 46 15 96 -3 130 -14 27 -69
81 -83 81 -4 0 -36 -19 -72 -43z"/>
</g>
</svg>
