<?xml version="1.0" standalone="no"?>
<!DOCTYPE svg PUBLIC "-//W3C//DTD SVG 20010904//EN"
 "http://www.w3.org/TR/2001/REC-SVG-20010904/DTD/svg10.dtd">
<svg version="1.0" xmlns="http://www.w3.org/2000/svg"
 width="1024.000000pt" height="1024.000000pt" viewBox="0 0 1024.000000 1024.000000"
 preserveAspectRatio="xMidYMid meet">
<metadata>
Created by potrace 1.10, written by Peter Selinger 2001-2011
</metadata>
<g transform="translate(0.000000,1024.000000) scale(0.100000,-0.100000)"
fill="#000000" stroke="none">
<path d="M4391 9170 c-282 -65 -343 -85 -544 -176 -171 -77 -253 -124 -433
-244 -124 -83 -214 -160 -696 -596 -394 -358 -594 -546 -694 -656 l-141 -154
-188 -324 c-181 -310 -196 -339 -340 -679 -150 -351 -153 -361 -253 -719 -109
-387 -144 -558 -337 -1662 l-66 -375 -40 -590 c-23 -345 -38 -617 -34 -655 3
-36 10 -186 14 -335 8 -262 8 -274 -17 -430 -14 -88 -23 -172 -19 -186 4 -17
18 -31 38 -40 30 -12 33 -11 54 13 15 17 34 74 58 174 35 144 36 157 43 399 6
239 5 252 -15 298 -16 37 -21 69 -21 135 0 77 31 378 46 450 l5 27 -15 -25
c-16 -25 -16 -25 -11 15 2 22 7 74 9 115 34 487 35 501 162 1265 121 727 128
762 220 1125 l95 375 206 520 206 520 215 330 c118 181 227 344 243 360 15 17
58 69 96 117 49 62 153 162 373 358 167 150 325 286 350 303 25 17 121 94 215
171 407 335 825 548 1255 637 122 25 176 31 340 36 l195 5 280 -46 c210 -34
316 -57 424 -90 80 -25 148 -43 151 -41 13 8 260 -54 312 -78 29 -14 78 -28
110 -31 72 -8 204 -66 288 -127 36 -26 242 -228 459 -449 l395 -402 316 -592
c294 -550 338 -625 620 -1071 290 -458 311 -489 466 -670 184 -217 380 -412
537 -537 63 -49 190 -133 300 -197 179 -103 195 -111 245 -111 43 0 58 5 77
25 14 13 25 28 25 33 0 28 -57 67 -253 171 l-217 116 -226 205 -226 205 -237
305 c-335 431 -419 565 -847 1352 -200 367 -401 725 -447 795 -72 110 -124
171 -364 423 -265 280 -524 523 -617 581 -88 55 -182 81 -306 86 -97 4 -127 9
-190 34 -41 16 -192 65 -335 110 l-260 81 -370 39 c-203 21 -383 38 -400 38
-16 -1 -144 -27 -284 -59z"/>
<path d="M4730 8860 c-52 -10 -116 -28 -143 -39 -35 -15 -54 -18 -71 -11 -22
8 -29 3 -68 -44 l-43 -53 -70 -6 c-41 -3 -134 -24 -222 -51 -139 -42 -171 -57
-382 -175 -217 -121 -234 -132 -279 -189 -38 -50 -53 -61 -77 -62 -16 0 -48
-11 -70 -23 -23 -13 -234 -217 -491 -477 l-451 -455 -324 -575 -324 -575 -203
-525 -203 -525 -40 -220 c-36 -204 -43 -268 -85 -870 -90 -1288 -74 -1131
-149 -1470 -86 -389 -92 -422 -79 -443 18 -27 62 -28 74 0 6 13 78 255 161
538 l150 515 258 1290 259 1290 122 335 c113 311 130 352 246 569 148 277 143
270 264 404 63 70 106 109 130 118 54 19 169 80 178 93 8 14 84 67 89 63 1 -2
-23 -30 -55 -63 -50 -52 -61 -71 -91 -159 -28 -82 -35 -119 -39 -205 -2 -66
-9 -113 -18 -127 -8 -12 -14 -32 -14 -43 0 -11 -7 -36 -14 -55 -12 -29 -13
-45 -3 -90 9 -43 8 -64 -2 -98 -13 -46 -17 -63 -26 -119 l-6 -38 -57 0 c-56 0
-59 -1 -156 -78 -54 -42 -100 -75 -101 -72 -1 3 -25 -15 -53 -38 -51 -43 -52
-45 -52 -99 0 -46 -13 -85 -85 -254 l-86 -200 -279 -1445 c-154 -795 -287
-1479 -296 -1520 -22 -109 -68 -233 -131 -359 -47 -94 -55 -117 -54 -160 1
-30 8 -56 17 -65 14 -13 20 -10 56 30 22 25 55 77 73 117 18 39 96 294 174
565 l140 493 160 1000 160 1000 76 225 c41 124 78 232 81 240 3 10 16 -5 37
-44 62 -115 180 -208 303 -237 27 -7 74 -19 104 -29 l55 -17 3 -61 3 -62 -34
0 c-44 0 -76 -40 -118 -143 -29 -72 -291 -987 -304 -1062 -22 -121 -425 -1541
-499 -1758 -72 -208 -83 -248 -72 -263 9 -12 20 -15 39 -10 36 9 72 83 186
381 89 232 100 273 381 1345 278 1065 351 1314 395 1359 16 17 18 9 41 -199 9
-80 20 -152 25 -161 4 -9 6 -19 3 -21 -2 -3 0 -17 6 -32 9 -25 8 -26 -11 -15
-29 15 -67 -13 -96 -72 -37 -73 -83 -227 -98 -326 -8 -51 -17 -97 -20 -102 -3
-5 -12 -59 -20 -119 -8 -60 -21 -125 -29 -143 -8 -19 -34 -126 -56 -239 -23
-113 -52 -239 -65 -280 -13 -41 -31 -97 -40 -125 -9 -27 -22 -75 -30 -105 -7
-30 -28 -89 -46 -130 -47 -110 -50 -127 -35 -165 8 -18 19 -36 25 -39 18 -12
50 4 67 32 29 50 6 -3 -114 -264 -66 -143 -135 -285 -153 -314 -22 -36 -35
-72 -39 -108 -6 -51 -5 -54 19 -63 50 -19 77 25 323 516 226 451 233 466 340
768 114 323 138 409 163 573 8 55 22 124 30 154 8 30 15 67 15 82 0 15 5 30
10 33 9 5 146 -265 212 -418 l21 -47 -63 -63 c-62 -61 -67 -71 -365 -682 -259
-532 -320 -649 -429 -823 -70 -112 -158 -240 -197 -285 -60 -71 -69 -86 -64
-112 7 -36 31 -63 44 -50 5 6 84 100 177 210 l167 200 358 721 c286 575 363
723 384 734 15 8 33 27 42 43 l15 29 31 -38 c17 -22 63 -73 102 -114 39 -41
85 -98 102 -126 66 -102 560 -507 741 -606 67 -36 80 -47 69 -57 -11 -8 -16
-47 -19 -149 -3 -78 -13 -169 -23 -212 -16 -68 -85 -252 -122 -324 -32 -61 -8
-146 41 -146 19 0 37 17 76 70 63 88 60 81 114 275 27 99 48 203 56 273 11
104 10 116 -7 150 l-18 38 95 -33 c179 -61 274 -76 485 -77 170 -1 204 2 321
27 72 15 164 38 204 52 41 14 77 25 82 25 4 0 8 -57 8 -127 0 -147 14 -380 31
-533 14 -127 33 -166 86 -176 70 -13 71 -2 48 366 -9 129 -15 280 -14 335 1
55 -1 121 -6 147 l-7 47 128 64 c226 113 437 264 632 452 l98 94 50 -65 c79
-104 97 -132 169 -259 195 -347 394 -601 578 -739 142 -107 329 -196 409 -196
39 0 61 -13 233 -131 571 -396 623 -426 794 -461 114 -23 164 -15 175 27 5 20
-6 64 -17 65 -41 6 -383 177 -373 187 2 2 36 -12 77 -31 41 -19 114 -46 162
-61 71 -22 93 -26 112 -17 24 11 41 49 33 73 -2 6 -62 35 -133 64 -218 88
-416 200 -700 398 -246 172 -271 192 -460 377 -110 107 -244 237 -299 290 -64
62 -150 163 -248 293 -82 109 -148 200 -146 202 7 7 128 -71 217 -142 79 -62
138 -125 329 -352 128 -152 254 -300 279 -329 24 -29 131 -127 236 -218 187
-162 352 -281 476 -343 77 -39 638 -231 674 -231 33 0 66 44 51 67 -9 15 -257
112 -457 179 -227 76 -437 207 -710 444 -187 162 -192 167 -443 479 -140 174
-267 325 -282 337 -50 39 -511 344 -520 344 -17 0 -72 -67 -72 -89 0 -33 9
-46 173 -260 82 -108 156 -209 163 -226 16 -37 728 -747 802 -799 28 -21 52
-39 52 -41 0 -2 -37 12 -82 31 -46 18 -94 34 -108 34 -52 1 -179 55 -270 115
-130 86 -355 345 -474 545 -26 44 -67 124 -91 179 -24 55 -57 120 -74 144 -41
60 -120 130 -181 160 l-50 25 50 60 c129 155 309 479 331 598 13 71 18 79 32
61 7 -8 38 -23 71 -33 77 -23 159 -78 221 -146 28 -30 197 -269 377 -530 l327
-475 184 -177 c284 -272 398 -347 802 -522 85 -37 148 -58 182 -61 49 -5 53
-3 65 22 12 26 10 29 -37 69 -35 30 -109 67 -277 139 -214 92 -238 104 -400
218 -165 114 -181 129 -341 302 -156 169 -186 208 -410 537 -133 195 -269 395
-301 445 -76 115 -151 186 -240 230 -89 44 -179 64 -206 47 -11 -7 -20 -8 -20
-4 0 18 128 573 133 578 12 12 127 -50 164 -89 22 -23 233 -328 468 -677 465
-690 537 -783 718 -939 135 -116 507 -381 535 -381 23 0 72 36 72 54 0 21 -48
58 -256 200 -185 126 -214 151 -372 309 l-171 172 -340 495 c-187 272 -395
576 -463 674 -130 190 -211 271 -288 292 -33 9 -35 12 -42 64 -4 32 -3 56 3
58 5 2 9 19 9 38 0 37 68 157 96 168 12 4 12 2 4 -14 -19 -36 -12 -71 18 -82
44 -18 278 -361 644 -949 l333 -533 327 -331 c324 -327 328 -331 472 -423
l144 -93 41 12 c60 18 56 46 -11 86 -29 17 -64 34 -78 38 -14 4 -50 31 -80 60
-30 29 -127 114 -215 190 -88 75 -208 184 -268 243 -106 106 -112 114 -468
667 -198 308 -436 668 -528 800 -154 220 -174 244 -239 291 l-71 52 54 38 c54
36 56 37 70 18 15 -18 15 -19 29 0 14 18 18 17 99 -22 153 -74 289 -202 410
-386 30 -45 203 -368 386 -718 255 -488 347 -655 394 -716 38 -48 136 -144
250 -245 197 -175 205 -179 275 -161 25 7 30 40 8 58 -261 208 -364 307 -468
452 -30 44 -194 340 -363 659 -357 674 -485 886 -605 998 -79 74 -151 119
-252 157 -32 12 -60 25 -62 29 -3 4 25 45 62 92 37 47 89 131 117 188 45 92
51 100 63 84 10 -13 16 -14 19 -5 3 6 8 12 13 12 24 0 110 -150 288 -506 174
-346 219 -426 337 -603 179 -268 281 -390 523 -625 179 -174 209 -198 278
-231 72 -34 84 -37 142 -32 35 2 66 8 70 11 14 15 -18 41 -121 100 -127 72
-270 188 -372 300 -40 45 -155 182 -256 306 l-182 224 -283 540 c-156 296
-296 552 -311 569 -15 16 -50 42 -78 58 l-50 29 -21 164 c-16 119 -28 179 -45
213 -34 71 -104 136 -174 162 -32 12 -75 36 -94 53 -39 34 -103 158 -141 273
-29 88 -94 158 -142 153 l-30 -3 1 175 c1 188 3 179 -66 356 -25 63 -93 154
-113 151 -43 -6 -34 -126 16 -222 23 -44 27 -68 35 -205 6 -85 14 -176 19
-202 7 -32 6 -83 -2 -154 l-12 -106 -22 43 c-16 31 -23 62 -24 103 0 53 -3 61
-34 90 -41 39 -88 161 -57 151 38 -12 81 81 81 175 0 37 -99 551 -115 598 -8
22 5 13 67 -45 35 -34 130 -156 228 -293 l167 -235 77 -190 c101 -245 162
-359 291 -540 58 -80 105 -151 105 -155 0 -5 19 -33 43 -62 24 -29 184 -255
357 -503 172 -247 341 -481 374 -519 34 -38 226 -206 429 -373 383 -317 550
-436 678 -483 35 -13 90 -34 122 -47 55 -22 61 -23 83 -8 30 19 30 31 0 76
-19 27 -40 41 -88 59 -205 73 -506 283 -868 602 -135 119 -266 240 -291 270
-50 58 -606 854 -633 907 -10 18 -32 49 -50 69 -18 20 -96 129 -173 242 -134
195 -149 222 -300 540 -103 217 -181 368 -223 430 -68 101 -525 594 -541 584
-5 -3 -64 44 -130 105 -125 113 -184 151 -280 176 -77 21 -115 19 -133 -6 -30
-43 -3 -70 105 -109 l57 -21 6 -222 c4 -122 9 -247 12 -278 l6 -56 -30 -5
c-34 -5 -35 -2 -48 144 l-7 77 -53 35 c-48 32 -53 38 -44 60 12 33 -6 53 -57
61 -49 8 -59 -3 -94 -101 -24 -68 -26 -149 -9 -506 8 -168 16 -242 36 -330 27
-121 42 -148 83 -148 26 0 26 0 28 -90 2 -81 14 -177 29 -235 11 -41 -38 50
-82 152 -101 237 -127 383 -149 845 l-16 337 35 47 c20 26 36 50 36 53 0 3
-18 16 -39 28 -57 33 -94 23 -127 -33 -32 -54 -54 -134 -54 -196 0 -39 -5 -51
-34 -80 -57 -57 -64 -100 -73 -483 -10 -386 -3 -475 51 -660 4 -11 -4 3 -17
30 -26 53 -77 254 -101 395 -56 325 -68 752 -28 974 17 92 28 125 48 148 30
37 28 64 -7 91 -38 28 -80 16 -120 -34 -29 -37 -33 -52 -52 -189 l-21 -149
-27 6 c-20 4 -34 -2 -58 -24 -27 -24 -34 -41 -50 -118 l-18 -90 -7 66 c-5 36
-6 132 -4 215 3 140 5 152 31 202 16 30 46 73 68 97 51 55 52 86 4 115 l-36
22 -49 -24 c-48 -24 -50 -24 -50 -5 0 10 -15 34 -34 53 -30 30 -40 34 -86 34
-28 0 -60 -5 -71 -11 -33 -17 -137 -166 -185 -264 -24 -50 -56 -136 -71 -191
-24 -89 -26 -117 -27 -279 -1 -99 3 -291 8 -426 9 -244 3 -358 -15 -296 -4 15
-18 96 -30 180 -38 255 -31 657 17 927 31 179 56 273 85 318 16 25 29 57 29
70 0 30 -56 85 -79 77 -16 -5 -47 42 -35 54 3 3 130 6 282 5 342 -1 435 -14
640 -87 117 -41 148 -49 170 -41 36 13 39 44 7 82 -21 26 -55 40 -208 91 -214
70 -267 78 -572 85 -187 4 -234 2 -315 -14z m-150 -490 c-34 -398 -48 -845
-30 -979 6 -51 10 -95 7 -97 -14 -14 -42 68 -81 236 -49 213 -49 211 7 314 47
85 52 113 27 153 -25 41 -63 52 -91 27 l-20 -18 6 179 c8 213 15 262 56 377
l31 86 56 25 c31 14 57 25 58 24 0 -1 -11 -148 -26 -327z m-463 -62 c-31 -128
-61 -282 -68 -343 -11 -92 -15 -104 -21 -75 -5 21 0 111 13 230 17 160 27 214
56 303 33 101 62 154 71 129 2 -6 -21 -116 -51 -244z m202 200 c-20 -50 -21
-69 -18 -393 1 -284 -1 -360 -16 -465 -13 -90 -18 -181 -18 -325 1 -175 5
-224 32 -390 36 -219 43 -244 79 -287 33 -39 78 -58 140 -58 53 0 66 9 77 52
6 22 1 33 -23 58 -17 17 -41 30 -55 30 -23 0 -27 9 -62 132 -33 118 -38 146
-42 277 -4 135 -3 144 11 116 8 -16 21 -37 28 -46 22 -27 81 -59 108 -59 23 0
27 -7 53 -107 28 -111 85 -244 133 -311 45 -62 176 -181 212 -193 21 -7 52 -8
81 -4 25 4 80 7 121 6 62 -2 79 1 92 16 43 50 21 91 -62 113 -98 26 -163 79
-200 162 -11 26 -37 134 -56 240 l-36 193 29 205 28 205 7 -75 c19 -190 46
-308 134 -598 27 -88 67 -145 107 -156 18 -4 33 -26 61 -88 66 -147 79 -169
123 -208 87 -76 176 -100 220 -58 27 25 30 50 8 68 -12 10 -13 16 -4 24 8 8
14 6 23 -8 64 -104 133 -156 209 -156 25 0 49 5 53 11 4 6 20 9 39 6 25 -4 42
1 71 20 22 15 40 27 41 27 1 1 4 13 8 28 9 36 -23 68 -68 68 -29 0 -37 6 -66
55 -73 120 -105 260 -120 522 -4 81 -5 193 -1 248 4 55 7 82 8 60 4 -91 44
-316 82 -463 56 -215 112 -331 215 -440 83 -88 183 -162 220 -162 13 0 30 7
39 15 8 8 24 15 36 15 27 0 80 52 80 79 0 27 -24 48 -70 62 -33 10 -42 19 -64
68 -44 100 -58 168 -62 316 l-4 140 19 -75 c56 -233 154 -398 292 -492 31 -21
67 -54 80 -73 13 -19 36 -40 51 -46 52 -21 136 27 121 70 -4 9 -19 30 -34 48
-31 36 -82 163 -104 257 -13 57 -36 343 -34 421 1 17 23 -55 49 -160 32 -129
60 -216 87 -271 l40 -82 7 -176 c4 -98 10 -184 13 -192 7 -18 45 -28 78 -20
24 6 25 10 27 89 1 45 1 101 -1 124 -2 36 1 42 15 36 14 -5 16 -18 9 -107 -3
-56 -9 -111 -12 -123 -3 -13 3 -29 15 -41 13 -13 18 -28 15 -46 -8 -39 21 -76
59 -76 23 0 58 20 138 80 l107 80 87 0 c84 0 87 -1 125 -35 32 -29 45 -53 75
-143 35 -105 36 -109 26 -190 -9 -67 -22 -106 -73 -216 l-62 -134 -131 -115
c-100 -88 -153 -126 -221 -160 -102 -52 -117 -66 -110 -104 6 -35 -114 -841
-142 -951 -52 -200 -119 -331 -315 -606 l-156 -220 -194 -170 c-167 -148 -214
-183 -342 -258 -238 -139 -418 -214 -606 -252 -227 -46 -522 -47 -695 -3 -234
61 -478 198 -745 419 -474 391 -761 863 -927 1524 -27 108 -32 152 -45 392
-12 237 -17 277 -35 315 -27 56 -74 82 -182 103 -170 32 -271 114 -324 264
-14 40 -14 48 1 94 29 88 65 145 130 200 83 71 117 78 190 37 64 -37 93 -39
122 -8 33 35 37 77 13 126 l-22 41 28 98 c25 89 27 113 29 297 2 158 6 216 21
275 l19 75 7 -55 c9 -68 40 -164 67 -208 25 -41 81 -67 110 -52 18 10 23 4 56
-67 36 -80 68 -123 91 -123 7 0 26 12 43 28 l30 27 -34 85 c-71 176 -83 335
-42 575 29 166 44 230 91 365 66 189 157 359 284 529 45 60 81 111 81 115 0 3
-35 -16 -77 -42 -43 -27 -84 -52 -92 -57 -27 -16 23 55 60 84 100 81 440 274
455 258 4 -3 -7 -57 -24 -119 -23 -83 -34 -151 -41 -258 -6 -84 -15 -146 -21
-148 -25 -9 -73 -58 -92 -96 -12 -22 -29 -77 -39 -121 l-17 -80 -1 64 c-1 49
13 116 64 301 36 131 65 240 65 242 0 3 -26 8 -57 11 -32 3 -65 8 -74 11 -12
5 -21 -11 -43 -74 -26 -74 -33 -84 -91 -130 -107 -85 -185 -207 -219 -345 -32
-127 -50 -343 -50 -590 0 -228 1 -243 24 -304 31 -84 75 -131 123 -131 72 0
117 42 117 108 0 39 -21 55 -69 50 l-39 -3 -8 104 c-10 148 2 489 20 596 8 50
24 116 35 148 25 71 74 163 79 148 2 -6 -7 -87 -20 -179 -43 -313 -28 -609 46
-862 21 -72 31 -90 69 -127 52 -49 87 -61 132 -44 28 10 39 8 86 -14 30 -14
68 -25 86 -25 43 0 93 43 93 80 0 26 -6 30 -76 56 -55 20 -79 34 -88 53 -8 14
-33 98 -57 186 -42 157 -43 163 -43 315 0 85 5 182 12 215 19 99 65 238 73
223 4 -7 13 -48 20 -92 8 -55 19 -87 36 -106 22 -27 24 -40 33 -217 13 -266
19 -315 45 -418 29 -115 78 -222 146 -320 60 -87 101 -125 134 -125 30 0 95
61 95 88 0 21 -43 62 -66 62 -35 0 -139 201 -173 335 -59 232 -55 841 9 1218
38 223 89 397 116 397 2 0 -6 -24 -17 -52z m876 -71 c-42 -65 -85 -360 -85
-587 0 -75 9 -237 20 -360 11 -124 19 -229 19 -235 0 -5 -12 31 -25 80 -30
113 -44 291 -44 555 0 360 27 520 94 553 17 9 32 16 34 16 1 1 -4 -10 -13 -22z
m1367 -275 c80 -68 88 -78 116 -150 44 -112 144 -608 140 -696 -3 -67 -3 -67
-69 191 l-66 258 -44 16 c-24 9 -58 20 -76 23 l-32 7 10 -37 c8 -25 7 -40 0
-47 -7 -7 -11 -97 -11 -266 -1 -241 -2 -254 -16 -221 -12 25 -25 158 -50 485
-18 248 -34 472 -34 498 l0 48 23 -18 c12 -10 62 -51 109 -91z m-1597 -34 c-6
-72 -11 -88 -36 -118 -16 -19 -29 -28 -29 -20 0 20 64 229 69 225 2 -2 0 -41
-4 -87z m-1716 -125 c-150 -164 -207 -242 -251 -343 -25 -58 -49 -117 -52
-132 -4 -17 -11 -25 -20 -22 -9 4 -17 -9 -25 -40 -7 -30 -17 -46 -27 -46 -8 0
-47 -22 -87 -48 -40 -27 -110 -68 -156 -92 -50 -26 -112 -69 -150 -105 l-65
-60 103 150 c100 148 107 155 424 457 300 286 368 349 306 281z m2886 -228
l37 -210 -12 -145 c-7 -80 -13 -146 -14 -147 -9 -10 -69 410 -70 487 -1 88 12
236 19 228 2 -2 20 -98 40 -213z m-705 -410 c13 -211 53 -395 127 -589 21 -56
23 -70 12 -77 -27 -17 -60 -9 -95 24 -33 30 -39 44 -65 158 -24 100 -31 157
-35 294 -6 154 4 390 24 559 6 55 7 49 14 -74 4 -74 12 -207 18 -295z m926
153 c7 -79 13 -152 12 -163 -1 -35 -57 209 -58 251 0 36 16 71 28 59 3 -2 11
-69 18 -147z m-3261 -83 c-30 -110 -54 -195 -54 -190 -1 6 8 64 18 130 14 82
30 143 52 192 18 40 34 72 35 70 1 -1 -22 -92 -51 -202z m3339 -293 c20 -38
65 -82 86 -82 15 0 18 -15 24 -107 4 -60 9 -126 12 -148 l5 -40 -17 30 c-18
30 -136 375 -129 375 3 0 11 -12 19 -28z m-1677 -84 c-3 -8 -6 -5 -6 6 -1 11
2 17 5 13 3 -3 4 -12 1 -19z m2517 -599 c-2 -4 -39 -27 -82 -51 l-78 -44 18
145 c9 80 18 160 18 176 1 24 13 6 65 -95 35 -68 62 -127 59 -131z m-5474
-625 l-141 -439 -201 -1057 c-111 -581 -204 -1056 -205 -1054 -12 12 33 746
68 1106 34 358 44 435 64 490 13 36 53 171 89 300 65 235 65 235 263 667 109
237 199 430 200 429 2 -2 -60 -200 -137 -442z m1030 -1399 c40 -127 40 -127 5
-150 -34 -24 -73 -116 -74 -177 -1 -20 -6 -49 -11 -63 -6 -15 -25 -104 -44
-198 -44 -220 -101 -381 -252 -710 -65 -141 -118 -256 -120 -254 -1 1 29 94
68 207 38 113 75 234 83 270 8 36 37 164 65 285 28 121 54 234 57 250 3 17 9
35 13 40 4 6 11 48 15 95 10 128 76 401 122 512 l16 38 15 -28 c8 -15 27 -67
42 -117z m5545 -2548 c29 -28 -139 75 -181 111 -41 36 -31 32 61 -29 61 -39
115 -76 120 -82z"/>
<path d="M7220 6053 c-8 -3 -27 -17 -42 -31 -34 -32 -37 -82 -8 -129 23 -38
46 -41 84 -12 37 29 50 16 42 -44 -8 -57 -43 -132 -76 -162 -54 -49 -60 -102
-15 -131 21 -14 27 -14 52 0 50 25 114 96 141 154 23 50 27 70 27 159 0 87 -3
105 -21 130 -35 48 -138 85 -184 66z"/>
<path d="M4064 6025 c-163 -43 -320 -127 -343 -183 -14 -33 -1 -79 24 -88 8
-4 53 10 98 29 200 86 317 116 458 117 138 0 261 -35 383 -109 48 -29 62 -44
76 -80 30 -78 88 -110 138 -75 33 23 29 71 -12 141 -67 114 -253 222 -444 259
-115 22 -270 18 -378 -11z"/>
<path d="M5742 6034 c-135 -23 -280 -96 -374 -189 -52 -51 -66 -91 -48 -136
23 -55 71 -50 143 16 89 82 209 144 314 165 35 7 107 11 170 8 99 -4 122 -9
281 -61 95 -32 194 -71 219 -87 60 -38 124 -41 147 -8 24 33 21 40 -36 99 -44
45 -69 60 -150 92 -232 89 -496 130 -666 101z"/>
<path d="M2474 5966 c-8 -14 -22 -51 -31 -83 -28 -108 16 -207 112 -252 89
-42 171 -14 163 55 -2 25 -13 34 -65 58 -63 29 -63 30 -63 72 0 25 8 57 21 78
16 28 18 39 9 56 -24 45 -119 56 -146 16z"/>
<path d="M4119 5516 c-94 -34 -138 -79 -125 -129 11 -46 32 -49 192 -32 204
21 211 21 243 -14 43 -46 74 -49 111 -13 35 36 36 46 11 88 -40 65 -74 80
-211 93 -69 7 -138 14 -155 16 -16 3 -46 -1 -66 -9z"/>
<path d="M5706 5461 c-97 -29 -135 -45 -156 -67 -35 -35 -46 -73 -28 -97 12
-16 20 -16 118 -3 58 8 125 21 149 30 55 20 131 20 179 0 29 -12 56 -14 130
-8 l92 6 0 29 c0 60 -148 135 -285 144 -61 4 -87 0 -199 -34z"/>
<path d="M4862 4900 c-28 -27 -29 -79 -1 -113 11 -15 25 -55 31 -89 11 -71 4
-250 -14 -318 -16 -62 -15 -353 1 -410 40 -137 233 -188 292 -78 5 10 7 28 4
41 -5 19 -20 27 -80 45 -71 21 -74 23 -84 59 -15 52 -14 94 9 353 27 308 26
353 -6 418 -28 56 -84 112 -112 112 -10 0 -28 -9 -40 -20z"/>
<path d="M5635 3623 c-245 -155 -403 -213 -607 -221 -110 -4 -136 -2 -200 18
-100 30 -185 78 -273 155 -61 53 -81 65 -110 65 -37 0 -55 -20 -55 -63 0 -32
143 -171 226 -218 235 -138 473 -146 779 -28 157 60 379 201 422 265 15 24 15
27 -3 51 -45 59 -48 59 -179 -24z"/>
<path d="M2384 5342 c-6 -4 -36 -50 -67 -102 l-56 -95 -215 -973 -216 -972
-224 -708 c-124 -390 -228 -716 -231 -724 -8 -20 28 -58 53 -58 13 0 40 42 99
157 143 278 186 433 523 1867 297 1260 354 1480 403 1528 15 15 27 33 27 41 0
34 -65 60 -96 39z"/>
<path d="M6930 3829 c-13 -39 -13 -42 9 -60 13 -11 30 -19 38 -19 42 0 185
-104 315 -229 50 -47 276 -306 504 -576 356 -421 424 -497 486 -541 40 -28
188 -112 328 -186 204 -109 286 -146 411 -189 139 -48 160 -52 195 -44 28 7
40 16 42 31 4 29 -56 80 -110 94 -187 47 -342 117 -615 279 l-192 113 -208
216 c-159 166 -257 280 -417 485 -200 257 -216 275 -370 409 -89 78 -177 159
-197 180 -45 46 -110 77 -165 78 -39 0 -41 -2 -54 -41z"/>
<path d="M3180 3329 c-17 -33 -193 -428 -392 -877 -396 -897 -395 -895 -480
-1034 -33 -54 -58 -105 -56 -115 5 -26 49 -47 81 -39 20 5 37 25 69 82 24 42
56 96 71 120 28 42 29 43 45 25 30 -34 55 -34 100 1 23 18 147 170 276 337
l235 304 238 428 c157 282 243 428 254 429 22 0 48 31 55 67 5 25 1 34 -21 52
-52 40 -68 31 -144 -82 -38 -57 -85 -136 -106 -177 -21 -41 -154 -264 -296
-495 -236 -383 -269 -431 -371 -545 -168 -188 -202 -226 -196 -215 3 6 172
294 375 640 203 347 389 675 413 730 24 55 56 116 71 135 40 49 47 92 20 119
-12 12 -27 21 -35 21 -29 0 -108 -108 -146 -197 -35 -85 -309 -588 -316 -581
-2 2 78 188 177 414 99 225 183 421 186 436 4 20 -1 33 -20 52 -15 14 -33 26
-41 26 -9 0 -29 -26 -46 -61z"/>
<path d="M6373 3128 c-20 -20 -21 -23 -7 -50 39 -76 334 -533 392 -608 70 -90
265 -291 344 -354 27 -22 45 -43 42 -51 -10 -24 16 -56 61 -75 48 -20 277
-174 450 -301 123 -90 287 -194 415 -262 79 -43 100 -49 302 -87 229 -43 249
-43 263 0 12 37 -18 66 -74 74 -28 4 -91 18 -139 32 -174 50 -258 97 -662 369
-403 272 -524 367 -740 585 -139 139 -213 241 -306 416 -92 174 -144 242 -228
298 -63 42 -83 44 -113 14z"/>
<path d="M3725 2885 c-43 -51 -55 -77 -135 -308 -85 -243 -96 -268 -305 -672
-158 -308 -227 -431 -256 -461 -46 -46 -50 -86 -13 -111 19 -12 26 -9 81 34
57 45 70 64 187 271 115 204 141 261 305 665 99 243 193 467 210 497 37 66 39
103 9 124 -12 9 -25 16 -29 16 -4 0 -28 -25 -54 -55z"/>
</g>
</svg>
