<?xml version="1.0" standalone="no"?>
<!DOCTYPE svg PUBLIC "-//W3C//DTD SVG 20010904//EN"
 "http://www.w3.org/TR/2001/REC-SVG-20010904/DTD/svg10.dtd">
<svg version="1.0" xmlns="http://www.w3.org/2000/svg"
 width="1024.000000pt" height="1024.000000pt" viewBox="0 0 1024.000000 1024.000000"
 preserveAspectRatio="xMidYMid meet">
<metadata>
Created by potrace 1.10, written by Peter Selinger 2001-2011
</metadata>
<g transform="translate(0.000000,1024.000000) scale(0.100000,-0.100000)"
fill="#000000" stroke="none">
<path d="M496 5920 c-32 -28 -36 -37 -36 -80 0 -44 3 -50 43 -83 30 -25 47
-49 56 -78 26 -86 112 -273 174 -378 248 -419 655 -793 1112 -1023 77 -38 145
-73 150 -78 14 -11 524 -206 561 -214 l31 -7 0 -102 c0 -79 5 -116 22 -162 12
-33 23 -87 25 -120 3 -56 12 -88 35 -125 6 -8 12 -26 15 -40 8 -36 68 -73 135
-82 57 -7 3364 -47 3998 -48 l342 0 54 53 54 52 12 120 c6 66 18 152 26 190
25 124 26 158 11 215 -8 30 -14 55 -13 56 1 0 133 52 292 114 661 257 1165
550 1670 970 166 138 413 370 540 508 114 124 136 163 115 202 -5 10 -7 31 -4
47 4 19 1 33 -8 41 -8 6 -74 24 -148 40 -106 23 -151 28 -210 24 -40 -2 -105
1 -144 8 -58 10 -71 10 -80 -1 -9 -12 -123 -14 -651 -16 -911 -4 -8052 17
-8101 24 -36 4 -46 1 -78 -27z m9089 -249 c-132 -128 -444 -417 -520 -482
-618 -522 -1409 -911 -2290 -1124 -500 -121 -658 -139 -1434 -166 l-634 -22
-356 22 c-685 42 -960 81 -1438 202 -466 118 -826 274 -1188 514 -339 225
-615 523 -820 885 -39 68 -95 191 -95 207 0 2 1983 3 4407 3 l4408 0 -40 -39z
m-6655 -1782 c74 -17 137 -33 138 -35 2 -1 14 -80 26 -175 l23 -172 -90 7
c-50 3 -108 6 -129 6 -37 0 -40 3 -59 47 -11 26 -26 97 -34 158 -8 60 -19 126
-25 145 -13 46 -13 60 3 56 6 -3 73 -19 147 -37z m4182 -16 c-2 -32 -10 -64
-16 -72 -7 -10 -10 -67 -9 -174 l3 -160 -77 7 c-42 3 -129 6 -193 6 l-118 0
20 73 c24 89 20 180 -10 231 l-21 35 42 12 c66 18 371 97 378 98 3 1 4 -25 1
-56z m-3625 -107 c3 -3 0 -35 -6 -72 -12 -69 -8 -110 15 -156 l15 -28 -132 0
c-121 0 -131 1 -124 18 25 65 28 112 11 179 -10 37 -20 78 -23 89 l-5 22 122
-24 c68 -13 125 -25 127 -28z m3022 -38 c-12 -73 4 -153 41 -206 l30 -42 -228
6 c-125 4 -228 8 -230 9 -1 1 5 21 13 45 19 53 19 117 1 151 l-13 26 176 31
c240 41 220 43 210 -20z m-2681 -9 l82 -11 0 -48 c0 -32 9 -65 29 -105 l29
-58 -150 6 c-83 4 -153 8 -155 11 -3 2 3 31 12 63 12 40 15 74 11 112 l-6 53
32 -5 c18 -4 70 -11 116 -18z m2102 -56 c0 -50 18 -112 42 -145 l19 -28 -178
0 -179 0 4 73 c2 39 4 79 5 87 2 12 33 19 137 31 74 9 138 17 143 18 4 0 7
-16 7 -36z m-1632 1 l102 -7 0 -28 c0 -15 9 -48 20 -74 11 -26 20 -49 20 -51
0 -2 -85 -4 -190 -4 -104 0 -190 2 -190 5 0 3 10 25 21 48 12 23 22 61 23 85
l1 44 45 -6 c25 -3 91 -8 148 -12z m1141 -61 c-1 -27 4 -61 10 -77 6 -16 9
-31 7 -34 -3 -2 -91 -1 -196 3 l-190 7 0 69 0 68 83 4 c45 1 128 4 185 5 l103
2 -2 -47z m-595 5 c3 -18 8 -50 11 -70 l6 -38 -144 0 -145 0 10 48 c20 103 3
92 138 92 l119 0 5 -32z"/>
<path d="M7913 5597 c-47 -17 -67 -41 -60 -70 15 -57 205 -64 269 -9 25 21 7
49 -45 73 -47 21 -116 23 -164 6z"/>
<path d="M7380 5549 l-45 -40 23 -19 c24 -20 48 -20 122 2 39 12 82 46 74 59
-4 8 -40 19 -104 32 -19 4 -35 -4 -70 -34z"/>
<path d="M6811 5559 c-5 -13 -6 -27 -2 -30 3 -3 55 -11 115 -18 115 -12 125
-9 126 30 0 18 -30 25 -155 36 -72 6 -75 5 -84 -18z"/>
<path d="M9048 5563 c-21 -5 -32 -36 -23 -63 6 -18 15 -20 115 -20 l108 0 7
30 c11 51 -5 60 -104 59 -47 -1 -94 -3 -103 -6z"/>
<path d="M6225 5551 c-24 -5 -30 -12 -30 -31 0 -28 -14 -26 166 -22 67 1 90 5
87 15 -3 6 -15 17 -29 23 -30 15 -154 24 -194 15z"/>
<path d="M8553 5540 c-27 -18 -31 -25 -23 -41 9 -16 22 -19 95 -19 79 0 135
13 135 31 0 17 -65 41 -119 46 -45 3 -62 0 -88 -17z"/>
<path d="M5672 5509 c-31 -12 -18 -32 16 -25 15 3 59 8 97 12 68 7 69 8 30 15
-54 10 -115 10 -143 -2z"/>
<path d="M4622 5490 c-42 -19 -57 -41 -39 -59 15 -15 53 -14 144 6 122 26 124
37 10 57 -69 12 -80 11 -115 -4z"/>
<path d="M5110 5490 c-21 -16 -22 -20 -10 -35 11 -13 25 -15 79 -10 88 8 134
15 129 21 -3 2 -43 13 -90 23 -81 18 -86 18 -108 1z"/>
<path d="M986 5471 l-27 -28 76 -12 c105 -15 123 -14 135 9 13 23 -4 33 -80
44 -25 4 -52 9 -61 12 -8 2 -28 -9 -43 -25z"/>
<path d="M1940 5491 c-26 -4 -36 -12 -38 -28 -3 -19 3 -23 42 -28 25 -4 69 -8
98 -9 50 -1 53 0 56 26 3 23 -2 28 -35 37 -41 12 -67 12 -123 2z"/>
<path d="M2360 5475 c-39 -40 -17 -49 120 -53 112 -3 119 -2 130 17 9 18 8 22
-12 30 -13 4 -52 11 -88 15 -36 4 -78 9 -95 11 -22 3 -36 -2 -55 -20z"/>
<path d="M2895 5469 c-51 -28 -58 -40 -34 -57 14 -10 39 -13 80 -10 48 3 65
10 87 31 33 33 24 44 -43 51 -40 5 -58 2 -90 -15z"/>
<path d="M3375 5470 c-20 -32 73 -69 130 -50 35 12 61 35 48 43 -4 3 -45 8
-89 12 -57 5 -84 3 -89 -5z"/>
<path d="M3990 5471 c0 -6 17 -11 39 -11 21 0 54 -2 72 -5 25 -4 29 -3 14 3
-35 16 -125 25 -125 13z"/>
<path d="M1450 5451 c-17 -33 -12 -37 66 -50 64 -11 78 -10 85 1 25 38 -14 68
-88 68 -41 0 -54 -4 -63 -19z"/>
</g>
</svg>
