<?xml version="1.0" standalone="no"?>
<!DOCTYPE svg PUBLIC "-//W3C//DTD SVG 20010904//EN"
 "http://www.w3.org/TR/2001/REC-SVG-20010904/DTD/svg10.dtd">
<svg version="1.0" xmlns="http://www.w3.org/2000/svg"
 width="1024.000000pt" height="1024.000000pt" viewBox="0 0 1024.000000 1024.000000"
 preserveAspectRatio="xMidYMid meet">
<metadata>
Created by potrace 1.10, written by Peter Selinger 2001-2011
</metadata>
<g transform="translate(0.000000,1024.000000) scale(0.100000,-0.100000)"
fill="#000000" stroke="none">
<path d="M7455 8453 c-11 -3 -78 -45 -150 -93 -382 -257 -712 -397 -1160 -490
-487 -101 -857 -134 -1420 -127 -355 4 -374 5 -475 30 -181 43 -304 97 -455
199 -62 41 -99 75 -120 106 -61 95 -176 133 -256 86 -31 -19 -34 -25 -33 -65
0 -85 66 -179 188 -271 90 -67 148 -99 261 -140 224 -82 415 -134 600 -162
191 -30 184 -28 155 -35 -31 -9 -70 -65 -70 -103 0 -16 -22 -104 -50 -196 -27
-92 -149 -581 -270 -1087 l-221 -920 -466 -1590 c-257 -875 -468 -1592 -469
-1594 -2 -2 -393 -11 -870 -21 -702 -15 -868 -21 -875 -31 -5 -8 -9 -50 -9
-94 l0 -80 1313 -5 c2131 -8 4775 4 5979 27 l346 6 4 111 c2 61 3 113 1 115
-6 9 -898 17 -1167 9 -170 -5 -311 -7 -313 -4 -8 8 -233 1040 -233 1069 0 15
-9 45 -20 67 -11 22 -20 50 -20 63 0 13 -27 140 -61 283 -75 321 -124 568
-195 979 -80 470 -153 818 -233 1110 -20 74 -46 234 -80 490 -156 1166 -181
1364 -181 1412 0 56 -19 114 -47 145 -9 10 -14 20 -12 21 2 2 65 23 139 46
449 143 982 429 1071 575 26 42 24 87 -4 114 -19 18 -90 54 -99 51 -2 -1 -12
-4 -23 -6z m-1261 -885 c3 -35 12 -153 21 -263 16 -208 50 -470 85 -653 11
-59 29 -199 40 -312 33 -324 69 -534 131 -770 28 -106 260 -1289 261 -1335 1
-27 71 -378 109 -545 39 -169 97 -389 155 -589 36 -120 238 -1060 231 -1067
-4 -4 -3927 -27 -3931 -23 -2 2 36 146 85 319 49 173 142 504 205 735 64 231
197 683 295 1005 172 559 194 641 489 1820 170 679 321 1262 334 1295 52 125
44 207 -28 272 l-41 38 210 -3 c208 -2 216 -2 760 67 303 38 558 69 567 70 13
1 17 -11 22 -61z"/>
<path d="M7610 6222 c-9 -4 -32 -20 -53 -36 -37 -28 -37 -29 -31 -85 7 -59
190 -547 237 -631 14 -25 149 -334 301 -688 152 -354 285 -660 296 -681 10
-21 33 -51 51 -65 27 -23 39 -27 87 -24 47 3 58 7 76 31 19 25 19 32 8 98 -18
106 -60 221 -114 315 -26 46 -48 95 -48 108 0 13 -38 106 -85 207 -47 100 -85
194 -85 209 0 14 -11 41 -25 60 -14 19 -25 40 -25 47 0 7 -56 126 -125 263
-69 137 -125 261 -125 275 0 14 -47 120 -105 235 -66 131 -105 221 -105 241 0
47 -28 96 -65 113 -36 17 -42 18 -65 8z"/>
<path d="M3093 6073 c-62 -29 -88 -62 -104 -129 -6 -27 -16 -60 -21 -74 -6
-14 -133 -342 -284 -729 -151 -387 -283 -715 -293 -730 -11 -15 -36 -79 -57
-142 -20 -63 -45 -126 -55 -140 -28 -40 -49 -142 -38 -184 12 -43 52 -75 94
-75 26 0 42 10 84 55 57 60 94 131 122 234 23 84 40 131 60 161 9 14 24 58 34
98 9 39 26 83 36 96 10 13 134 306 275 652 142 346 268 654 280 684 38 89 31
143 -25 203 -42 46 -51 48 -108 20z"/>
</g>
</svg>
