<?xml version="1.0" standalone="no"?>
<!DOCTYPE svg PUBLIC "-//W3C//DTD SVG 20010904//EN"
 "http://www.w3.org/TR/2001/REC-SVG-20010904/DTD/svg10.dtd">
<svg version="1.0" xmlns="http://www.w3.org/2000/svg"
 width="1024.000000pt" height="1024.000000pt" viewBox="0 0 1024.000000 1024.000000"
 preserveAspectRatio="xMidYMid meet">
<metadata>
Created by potrace 1.10, written by Peter Selinger 2001-2011
</metadata>
<g transform="translate(0.000000,1024.000000) scale(0.100000,-0.100000)"
fill="#000000" stroke="none">
<path d="M7617 6816 c-20 -7 -52 -25 -71 -40 -26 -20 -104 -44 -318 -101
l-283 -75 -2128 -219 -2129 -219 -51 17 c-29 10 -123 35 -209 55 l-157 38
-113 -68 c-62 -37 -114 -68 -116 -70 -2 -1 40 -89 94 -195 l97 -194 133 -935
c74 -514 134 -936 134 -937 0 -2 -320 -3 -710 -3 l-711 0 -201 50 c-110 28
-202 50 -203 48 -2 -2 11 -66 27 -143 l31 -140 191 -141 c191 -140 191 -140
362 -207 l171 -66 144 24 c80 12 215 39 300 59 323 74 706 131 1264 185 50 5
1213 51 2585 101 l2495 93 785 -62 c432 -34 809 -62 838 -61 57 0 106 19 116
45 35 91 -56 237 -225 362 -162 119 -399 242 -518 269 -86 19 -159 11 -258
-30 -44 -19 -138 -36 -393 -71 -333 -45 -336 -46 -581 -43 l-245 3 158 700
c87 385 169 757 183 827 49 244 105 365 224 486 79 79 111 138 111 204 0 106
-133 224 -407 362 -179 91 -330 124 -416 92z m-117 -519 c13 -7 35 -28 47 -46
21 -31 23 -45 23 -155 -1 -190 -35 -491 -116 -1021 -61 -401 -152 -956 -157
-961 -5 -5 -1330 -83 -1335 -79 -2 1 45 426 103 944 58 518 105 957 105 976 0
47 -57 102 -162 157 -43 22 -76 43 -73 47 6 5 1436 147 1510 150 17 0 41 -5
55 -12z m-1987 -197 c55 -48 99 -142 105 -221 5 -70 -35 -1743 -44 -1815 l-5
-40 -517 -26 c-284 -14 -517 -25 -518 -24 0 0 9 350 22 776 12 426 24 848 26
937 l3 162 -29 30 c-16 16 -61 47 -100 67 l-71 38 465 62 c256 33 497 66 535
71 39 6 75 11 82 12 7 0 27 -12 46 -29z m-1429 -261 l46 -120 0 -883 0 -882
-577 -27 c-318 -15 -594 -28 -613 -27 l-36 0 21 172 21 171 -43 391 c-24 215
-62 568 -86 784 -24 215 -41 392 -37 393 3 0 282 33 620 73 338 41 620 74 626
75 6 0 32 -53 58 -120z"/>
</g>
</svg>
