<?xml version="1.0" standalone="no"?>
<!DOCTYPE svg PUBLIC "-//W3C//DTD SVG 20010904//EN"
 "http://www.w3.org/TR/2001/REC-SVG-20010904/DTD/svg10.dtd">
<svg version="1.0" xmlns="http://www.w3.org/2000/svg"
 width="1024.000000pt" height="1024.000000pt" viewBox="0 0 1024.000000 1024.000000"
 preserveAspectRatio="xMidYMid meet">
<metadata>
Created by potrace 1.10, written by Peter Selinger 2001-2011
</metadata>
<g transform="translate(0.000000,1024.000000) scale(0.100000,-0.100000)"
fill="#000000" stroke="none">
<path d="M4695 8745 c-459 -69 -562 -93 -757 -171 -307 -124 -560 -305 -676
-484 -113 -174 -160 -420 -149 -774 7 -241 31 -373 109 -601 79 -233 149 -380
253 -535 108 -160 203 -279 365 -456 195 -214 300 -282 463 -304 40 -5 223
-14 407 -21 184 -6 336 -12 337 -13 5 -5 -23 -1676 -29 -1681 -3 -4 -190 8
-415 26 -224 18 -420 30 -434 26 -34 -9 -79 -77 -79 -120 0 -40 23 -75 59 -89
14 -5 214 -22 443 -37 230 -15 419 -29 421 -32 2 -2 -13 -299 -34 -659 -21
-360 -39 -719 -41 -797 l-3 -142 -40 -5 c-22 -3 -191 -12 -375 -21 -1994 -93
-2208 -108 -2261 -153 -23 -19 -29 -32 -29 -63 0 -52 22 -93 58 -108 24 -10
300 2 1458 64 786 42 1510 81 1609 87 209 12 1049 15 2157 8 l776 -5 26 24
c19 18 26 35 26 61 0 66 -8 69 -322 107 l-283 34 -1282 -7 c-1219 -7 -1283 -6
-1283 11 0 47 60 1401 66 1474 l6 83 481 -8 c265 -5 544 -9 619 -9 132 0 137
1 163 25 46 42 71 131 47 166 -19 29 -60 32 -502 38 -250 4 -532 9 -627 12
l-171 6 4 232 c2 127 7 513 10 857 l6 626 302 73 c165 40 335 86 376 102 281
111 557 290 770 499 159 157 220 239 324 435 135 256 196 450 225 716 15 133
14 248 -4 445 -22 242 -69 371 -187 520 -138 174 -395 342 -663 432 -186 63
-468 122 -720 152 -49 5 -198 12 -330 14 l-240 5 -430 -65z m992 -205 c311
-41 345 -47 609 -111 186 -45 275 -79 375 -144 137 -89 274 -248 299 -348 6
-23 17 -63 25 -90 32 -105 47 -275 42 -467 -4 -160 -25 -342 -41 -358 -3 -2
-319 7 -703 22 -541 20 -728 24 -833 17 -74 -5 -135 -9 -136 -8 0 1 13 230 30
508 31 508 31 580 2 638 -13 25 -12 37 9 122 26 99 32 190 15 233 -5 14 -6 26
-1 26 5 0 143 -18 308 -40z m-530 -2 c-17 -97 -29 -232 -25 -284 3 -32 1 -99
-4 -149 -4 -49 -4 -150 0 -223 8 -136 4 -234 -26 -617 l-17 -220 -845 -27
c-465 -15 -846 -25 -848 -24 -1 2 -12 75 -23 162 -19 148 -19 177 -8 419 l11
260 36 60 c94 160 235 291 397 369 238 116 673 235 1025 280 159 21 175 23
259 24 l73 2 -5 -32z m1775 -1750 c-16 -24 -37 -65 -47 -93 -10 -27 -33 -70
-52 -94 -18 -24 -33 -52 -33 -62 0 -24 -119 -169 -222 -271 -223 -218 -480
-376 -801 -492 -133 -48 -364 -110 -455 -122 l-53 -7 6 119 c8 159 35 927 35
998 l0 56 278 3 c152 1 524 3 825 5 l548 2 -29 -42z m-1868 -145 c-2 -93 -7
-360 -10 -595 l-6 -428 -37 0 c-20 1 -157 5 -306 10 -256 9 -275 11 -366 39
-108 33 -158 56 -241 112 -105 72 -180 152 -354 384 l-173 230 -69 202 -69
203 406 3 c223 1 591 3 818 5 l411 2 -4 -167z"/>
</g>
</svg>
