<?xml version="1.0" standalone="no"?>
<!DOCTYPE svg PUBLIC "-//W3C//DTD SVG 20010904//EN"
 "http://www.w3.org/TR/2001/REC-SVG-20010904/DTD/svg10.dtd">
<svg version="1.0" xmlns="http://www.w3.org/2000/svg"
 width="1024.000000pt" height="1024.000000pt" viewBox="0 0 1024.000000 1024.000000"
 preserveAspectRatio="xMidYMid meet">
<metadata>
Created by potrace 1.10, written by Peter Selinger 2001-2011
</metadata>
<g transform="translate(0.000000,1024.000000) scale(0.100000,-0.100000)"
fill="#000000" stroke="none">
<path d="M6260 8249 c-19 -5 -633 -97 -1365 -204 -1121 -163 -1333 -192 -1350
-181 -11 7 -99 34 -196 60 l-177 47 -73 -36 c-41 -21 -76 -39 -78 -41 -2 -2
19 -34 46 -71 52 -70 108 -181 136 -268 61 -187 139 -729 257 -1775 33 -294
65 -569 71 -610 24 -171 74 -311 121 -344 70 -49 175 11 212 122 l16 48 438
68 c240 37 454 70 475 73 l37 6 0 -475 0 -474 -342 -67 c-485 -95 -541 -100
-858 -77 -140 9 -256 16 -258 15 -3 -3 8 -49 34 -142 15 -52 17 -53 147 -141
109 -74 153 -97 252 -132 l120 -43 76 27 c72 25 788 206 816 206 11 0 13 -112
13 -619 0 -582 -1 -620 -17 -625 -10 -3 -330 -71 -712 -151 l-695 -146 -230
72 c-127 39 -239 74 -248 76 -13 4 -23 -7 -39 -40 -21 -42 -21 -50 -10 -100
22 -99 50 -130 292 -314 l224 -171 137 -27 136 -27 69 37 c177 98 217 117 314
156 56 22 159 60 228 84 693 238 1809 676 2356 925 164 75 397 221 362 228 -9
2 -68 -8 -130 -22 -112 -24 -222 -56 -1173 -337 -259 -76 -476 -139 -483 -139
-8 0 -11 163 -11 614 l0 614 48 6 c26 4 324 33 662 66 338 33 635 62 659 65
84 10 135 63 135 141 0 40 -38 92 -107 143 -51 39 -272 133 -312 133 -11 0
-253 -50 -539 -111 -285 -61 -524 -111 -532 -111 -12 0 -14 75 -14 463 l0 463
393 47 c215 26 402 50 414 52 17 4 25 -3 40 -32 27 -55 101 -98 169 -98 49 0
56 3 99 45 50 49 121 183 148 280 61 222 132 660 217 1353 59 478 89 628 151
766 32 70 59 164 59 203 0 56 -134 213 -271 317 -163 124 -255 157 -359 130z
m-39 -420 c46 -16 87 -56 100 -99 8 -27 3 -127 -20 -424 -17 -214 -34 -392
-37 -395 -4 -5 -992 -110 -1041 -111 l-23 0 0 438 -1 437 -56 43 c-31 23 -52
42 -47 43 5 0 207 17 449 38 470 41 622 48 676 30z m-1494 -167 c18 -26 40
-65 49 -87 43 -100 47 -140 51 -490 l5 -341 -523 -76 c-288 -43 -525 -75 -528
-73 -3 4 -100 938 -97 941 1 1 979 170 1001 173 6 0 24 -20 42 -47z m1496
-1094 c-2 -18 -10 -109 -18 -203 -17 -182 -119 -752 -139 -771 -6 -6 -193 -30
-416 -53 -223 -24 -415 -45 -427 -48 l-23 -5 0 501 c0 276 3 501 8 502 4 0
225 24 492 53 267 30 494 54 505 55 18 1 21 -4 18 -31z m-1393 -628 c0 -275
-1 -500 -2 -500 -2 0 -212 -31 -468 -69 -256 -37 -467 -67 -469 -65 -3 3 -73
796 -83 933 l-3 45 505 77 c278 42 508 77 513 78 4 1 7 -224 7 -499z"/>
</g>
</svg>
