<?xml version="1.0" standalone="no"?>
<!DOCTYPE svg PUBLIC "-//W3C//DTD SVG 20010904//EN"
 "http://www.w3.org/TR/2001/REC-SVG-20010904/DTD/svg10.dtd">
<svg version="1.0" xmlns="http://www.w3.org/2000/svg"
 width="1024.000000pt" height="1024.000000pt" viewBox="0 0 1024.000000 1024.000000"
 preserveAspectRatio="xMidYMid meet">
<metadata>
Created by potrace 1.10, written by Peter Selinger 2001-2011
</metadata>
<g transform="translate(0.000000,1024.000000) scale(0.100000,-0.100000)"
fill="#000000" stroke="none">
<path d="M1107 9636 c-31 -13 -73 -37 -93 -52 -20 -16 -46 -37 -58 -47 -15
-12 -51 -21 -110 -27 -117 -12 -191 -47 -285 -135 -78 -74 -134 -170 -150
-258 -8 -47 -8 -48 29 -77 65 -52 76 -46 192 100 64 82 112 133 127 137 13 3
71 -1 129 -10 l104 -16 24 27 c13 15 29 45 35 67 13 51 55 80 129 90 65 8 123
32 168 69 36 31 39 44 17 86 -36 69 -152 89 -258 46z"/>
<path d="M2650 9456 c-85 -20 -246 -111 -310 -175 l-55 -56 -90 0 c-125 0
-183 -22 -256 -94 -55 -55 -99 -141 -99 -192 0 -45 97 -104 143 -86 7 3 37 40
66 83 l53 79 157 5 156 5 25 52 c34 71 73 108 155 149 50 25 94 37 155 45 103
13 107 15 134 61 l21 37 -21 28 c-46 62 -130 83 -234 59z"/>
<path d="M9673 9366 c-196 -60 -278 -117 -330 -232 -10 -21 -26 -50 -35 -64
-9 -14 -19 -41 -23 -60 -4 -19 -13 -42 -20 -50 -7 -8 -17 -29 -22 -45 -4 -17
-29 -50 -55 -73 l-46 -43 -49 15 c-26 9 -230 50 -453 92 l-405 76 -163 85
c-90 46 -186 91 -214 99 -28 9 -144 21 -260 29 l-211 13 -81 -35 c-213 -91
-380 -199 -652 -424 -112 -93 -213 -174 -223 -180 -15 -10 -79 30 -445 277
-236 159 -447 302 -470 317 -62 42 -202 111 -286 142 -127 45 -235 65 -390 72
-129 5 -154 3 -223 -16 -134 -37 -243 -102 -586 -352 -278 -202 -407 -313
-1101 -946 l-405 -370 -120 63 c-194 101 -399 168 -595 194 -75 10 -99 9 -200
-9 -131 -23 -219 -61 -275 -119 -20 -20 -305 -345 -633 -722 -328 -376 -616
-698 -639 -715 -33 -23 -41 -35 -38 -52 7 -32 45 -93 58 -93 7 0 59 -80 117
-178 58 -97 118 -191 133 -209 l28 -32 -22 -117 -22 -117 -130 7 -130 7 7 -68
c13 -124 -4 -113 171 -113 l152 0 15 -157 c8 -87 14 -158 14 -159 -1 0 -82 5
-181 13 -231 16 -235 15 -235 -72 l0 -63 73 -6 c39 -3 132 -7 204 -9 140 -2
176 -12 71 -19 -35 -3 -127 -13 -205 -24 l-143 -19 0 -71 0 -72 208 4 c162 4
214 8 239 21 29 14 35 14 72 0 34 -14 42 -14 54 -3 9 10 87 21 246 35 211 20
254 21 459 12 125 -6 255 -13 290 -16 l62 -4 25 39 c24 39 25 42 35 386 5 191
12 349 15 352 2 3 19 1 37 -5 29 -8 33 -13 30 -39 -1 -16 -6 -83 -11 -149 -5
-66 -16 -149 -24 -185 -8 -36 -17 -122 -21 -191 -7 -151 0 -168 74 -175 63 -6
1394 83 1457 98 48 11 58 9 165 -25 190 -61 335 -89 531 -103 94 -7 97 -7 97
-31 0 -37 27 -82 63 -103 57 -35 88 -20 107 52 6 22 16 52 21 66 9 23 11 23
27 9 57 -52 160 -76 477 -112 205 -24 540 -116 573 -158 6 -8 -3 -79 -23 -197
-29 -161 -33 -177 -34 -122 -1 73 -26 130 -70 161 -49 35 -152 80 -221 96 -58
13 -1132 75 -1303 75 -67 0 -117 -28 -117 -67 0 -14 -5 -21 -13 -17 -7 2 -27
-6 -45 -18 -23 -17 -56 -72 -123 -203 -50 -99 -106 -202 -124 -230 -18 -27
-42 -77 -55 -110 -39 -103 -27 -258 24 -303 12 -11 87 -37 176 -61 302 -82
288 -77 292 -113 3 -27 12 -38 63 -69 59 -37 63 -38 210 -50 273 -22 639 1
809 50 188 55 337 221 381 426 10 44 26 96 36 117 10 20 30 69 43 110 14 40
26 70 26 66 1 -43 -57 -305 -84 -381 -95 -261 -228 -763 -251 -946 -12 -95
-29 -150 -159 -511 -136 -379 -145 -410 -146 -477 l0 -73 -137 0 c-76 0 -133
4 -128 8 6 4 44 61 85 127 66 106 96 174 259 585 194 491 208 538 177 598 -23
44 -58 65 -166 100 -153 49 -211 58 -910 147 -366 47 -686 92 -711 100 -71 24
-84 15 -171 -131 -60 -100 -92 -170 -143 -309 -36 -99 -80 -202 -97 -230 -17
-27 -46 -72 -63 -100 -82 -129 -179 -298 -200 -352 -35 -85 -49 -188 -36 -260
20 -110 91 -173 216 -193 33 -5 357 -22 720 -37 363 -15 625 -29 582 -31 -43
-2 -488 9 -990 23 -502 14 -954 25 -1004 25 l-93 0 0 69 c0 102 -14 114 -202
189 -180 71 -330 118 -526 166 -177 44 -436 88 -520 90 -58 1 -66 -1 -89 -28
l-25 -29 -53 22 c-127 53 -275 74 -338 48 -36 -16 -37 -17 -37 -70 l0 -54 93
-43 c168 -79 289 -92 527 -59 73 10 84 9 340 -46 146 -31 305 -68 354 -81 107
-30 276 -94 276 -104 0 -4 -8 -15 -19 -24 -17 -16 -30 -15 -218 9 -110 14
-227 25 -261 25 -68 0 -107 12 -139 42 l-21 20 -7 -21 c-3 -12 -14 -21 -23
-21 -9 0 -136 7 -282 15 -382 21 -423 20 -454 -7 -37 -33 -41 -67 -12 -100
l25 -28 668 -60 c442 -41 678 -66 698 -76 17 -7 50 -13 75 -13 25 1 126 -8
225 -19 99 -11 302 -26 450 -32 149 -6 392 -16 540 -22 155 -6 827 -12 1580
-14 721 -1 1319 -3 1329 -3 19 -1 19 -1 0 -22 -15 -16 -19 -36 -19 -91 0 -67
1 -71 34 -100 l34 -30 -54 7 c-30 4 -57 9 -61 12 -5 2 -8 31 -8 63 0 32 -3 66
-6 75 -8 20 -56 45 -87 45 -35 0 -95 -63 -109 -115 -11 -41 -13 -43 -47 -39
-475 54 -650 63 -1221 63 -425 0 -610 7 -2172 78 -1469 66 -1719 75 -1788 65
-127 -18 -171 -65 -117 -128 l23 -27 2615 -113 c1438 -62 2615 -113 2615 -113
1 -1 -2 -18 -7 -38 -11 -49 5 -108 34 -128 13 -9 43 -15 78 -15 50 0 60 3 78
26 29 36 33 56 22 103 -5 22 -6 41 -2 41 3 0 59 -11 124 -25 74 -16 132 -23
155 -19 34 5 39 11 58 58 l21 53 -21 25 c-12 14 -29 28 -39 31 -17 6 -16 9 4
49 30 57 32 137 4 168 l-20 23 50 -8 c28 -4 51 -8 53 -10 2 -2 -4 -24 -12 -49
-29 -84 -13 -142 45 -166 l31 -13 -25 -19 c-29 -21 -44 -84 -32 -137 9 -44 49
-87 91 -101 32 -11 38 -10 57 9 12 11 32 58 44 103 l23 83 -39 35 -38 35 18
45 c20 51 24 112 8 142 -11 20 -10 20 78 13 l90 -7 26 32 c34 40 34 52 -1 91
-27 30 -35 32 -247 70 -121 21 -220 38 -221 39 0 0 -6 18 -13 40 -14 48 -73
110 -103 110 -28 0 -78 -48 -78 -74 0 -12 -3 -31 -6 -43 -6 -22 -10 -23 -148
-23 -77 0 -199 3 -269 7 l-129 6 7 46 c9 60 12 64 35 41 23 -23 42 -25 73 -9
76 39 88 92 31 145 -38 36 -53 40 -85 23 -17 -9 -19 -7 -15 13 73 326 149 532
273 740 58 96 82 128 97 128 25 0 1191 -97 1263 -105 l51 -6 -14 -34 c-8 -19
-14 -66 -14 -104 0 -57 6 -84 34 -149 29 -68 32 -83 21 -92 -21 -17 -55 -115
-55 -157 l0 -37 -39 38 c-30 29 -43 36 -62 31 -35 -9 -88 -86 -95 -139 -6 -41
-4 -48 24 -75 25 -25 39 -31 74 -31 41 0 44 2 73 53 25 44 30 48 33 29 2 -15
-9 -37 -36 -67 -35 -40 -63 -105 -62 -147 0 -7 13 -28 28 -45 25 -31 36 -35
177 -63 l150 -31 200 10 c110 5 212 7 226 4 l26 -5 -34 -161 c-21 -102 -41
-172 -53 -189 -12 -17 -20 -43 -20 -68 0 -22 -9 -59 -20 -80 -11 -22 -28 -75
-36 -117 -10 -46 -26 -90 -40 -109 -17 -22 -24 -44 -24 -76 0 -30 -6 -51 -20
-66 -11 -12 -20 -27 -20 -35 0 -8 -39 -94 -86 -193 -76 -157 -85 -183 -81
-219 8 -58 47 -89 104 -82 24 2 45 6 47 8 1 2 39 72 83 154 146 273 289 711
378 1165 15 74 34 148 42 164 8 15 12 39 9 52 -4 13 3 99 14 191 11 92 18 181
14 198 -33 151 -213 275 -402 275 -100 0 -153 -45 -130 -112 10 -29 21 -34
193 -91 l100 -34 24 -49 24 -49 -15 -133 c-8 -73 -17 -134 -19 -136 -2 -3 -73
-12 -157 -22 -143 -16 -153 -16 -171 0 -10 9 -41 25 -67 36 -44 17 -49 21 -46
47 2 25 -6 36 -63 81 -62 50 -65 54 -65 97 0 32 8 56 29 87 40 59 71 120 71
137 0 8 -25 48 -56 88 -53 69 -56 76 -50 115 4 26 21 59 46 91 52 65 52 94 0
169 l-41 57 20 40 c18 34 94 111 110 111 4 0 34 -26 67 -58 68 -64 143 -105
236 -127 93 -22 112 -20 142 16 42 49 35 72 -36 122 -109 78 -272 132 -323
109 -22 -10 -25 -9 -25 6 0 10 -18 36 -40 57 -22 21 -40 44 -40 50 0 18 48 58
82 70 36 12 68 64 68 111 0 25 9 39 45 68 33 27 55 59 83 119 22 45 73 132
115 194 91 135 144 242 192 388 19 61 39 122 44 137 5 15 51 79 102 142 100
123 113 130 167 99 28 -16 32 -16 71 2 35 15 47 16 79 7 56 -17 214 -119 290
-188 71 -64 121 -101 141 -106 7 -2 25 31 45 84 33 85 33 88 15 104 -11 9 -19
21 -19 27 0 5 22 39 49 76 27 37 68 111 92 164 23 53 44 95 46 93 7 -6 -217
-649 -235 -674 -11 -15 -67 -171 -126 -347 -58 -177 -117 -336 -130 -355 -12
-19 -26 -48 -30 -65 -4 -16 -14 -37 -21 -45 -38 -43 -91 -236 -101 -370 l-6
-85 50 -40 c37 -30 51 -48 54 -70 3 -29 6 -31 98 -54 52 -13 97 -25 98 -27 2
-1 -5 -15 -17 -31 -24 -33 -40 -99 -41 -164 0 -55 -13 -71 -47 -58 -31 11 -66
3 -88 -21 -14 -16 -15 -24 -6 -53 14 -41 36 -63 74 -72 l27 -7 0 -174 c0 -133
-4 -183 -15 -211 -8 -19 -15 -50 -15 -68 0 -31 -2 -33 -46 -39 -77 -10 -96 -7
-151 21 -35 19 -51 33 -48 43 2 8 18 89 35 180 42 221 35 276 -48 362 -42 44
-78 49 -109 15 -19 -20 -21 -38 -27 -242 -3 -121 -10 -254 -15 -295 -23 -183
-33 -507 -21 -727 25 -497 27 -528 42 -563 17 -41 77 -97 113 -106 14 -3 25
-9 25 -13 0 -4 -38 -38 -85 -77 -78 -63 -85 -72 -81 -97 8 -40 43 -86 72 -93
32 -8 75 10 109 46 15 16 52 41 81 55 53 26 86 65 99 116 8 33 -36 89 -70 89
-21 0 -23 4 -19 32 5 26 -1 42 -25 75 -17 24 -31 51 -31 60 0 10 -12 56 -25
102 -25 84 -25 90 -25 467 l0 382 37 -19 c48 -25 118 -24 168 1 22 11 39 20
40 20 0 0 -2 -192 -4 -427 -2 -334 -6 -431 -16 -447 -20 -31 -27 -116 -12
-156 21 -59 111 -102 144 -69 9 9 211 0 787 -32 l775 -43 -49 -46 c-55 -50
-64 -84 -32 -113 25 -22 54 -21 103 3 30 16 45 32 60 68 11 25 18 56 14 69 -5
21 -2 22 62 25 l68 3 3 75 3 76 -313 38 -313 37 -563 -3 -562 -3 0 25 c0 14
18 396 40 850 l39 825 31 115 c17 63 28 125 25 138 -4 15 -1 22 10 22 36 0
1474 -100 1510 -105 22 -4 52 -8 68 -11 l27 -6 0 85 0 84 -97 6 c-54 4 -122 7
-151 7 l-52 0 24 38 c26 38 58 143 51 165 -2 7 -6 24 -9 40 -7 30 -71 107 -90
107 -17 0 -72 -53 -89 -87 -9 -16 -19 -54 -23 -84 -4 -29 -16 -68 -27 -86 -12
-21 -18 -45 -15 -64 l5 -30 -46 6 c-25 3 -260 28 -521 55 -621 65 -560 55
-560 90 0 51 -61 75 -126 50 -24 -10 -34 -6 -81 26 -29 20 -56 40 -58 44 -4 6
720 1970 728 1976 1 1 53 5 115 9 98 6 112 5 112 -9 0 -8 -34 -81 -75 -161
-76 -148 -86 -185 -65 -239 11 -30 57 -56 99 -56 37 0 48 15 90 121 16 43 44
97 60 120 17 24 36 66 43 92 11 41 10 55 -4 93 l-16 44 130 0 129 0 -24 -32
c-39 -52 -64 -108 -92 -207 -14 -51 -48 -159 -75 -241 -28 -82 -50 -158 -50
-170 0 -12 -9 -33 -20 -47 -11 -14 -20 -39 -20 -55 0 -16 -31 -104 -69 -196
-79 -191 -94 -241 -85 -276 9 -38 48 -68 97 -73 38 -5 45 -2 60 21 10 15 64
160 121 324 57 164 110 311 118 327 9 17 45 123 82 238 37 114 78 223 91 243
30 43 33 99 8 127 -18 20 -17 20 76 13 52 -3 109 -6 128 -6 28 0 33 -3 33 -24
0 -13 -9 -35 -20 -48 -11 -14 -44 -114 -74 -224 -30 -110 -62 -216 -70 -236
-9 -21 -16 -60 -16 -87 0 -36 -18 -100 -70 -240 -81 -222 -87 -265 -42 -311
17 -16 46 -32 67 -36 61 -11 74 13 130 235 26 105 54 196 62 203 25 20 55 89
50 114 -2 13 11 66 31 116 69 185 84 263 89 479 5 186 4 197 -13 202 -11 3
-166 18 -347 33 l-327 28 -240 -28 c-131 -15 -256 -25 -277 -22 -48 8 -98 -20
-118 -67 -18 -41 -18 -38 0 56 20 104 19 232 -3 340 l-18 87 22 0 c16 0 27 12
43 49 28 65 27 95 -6 150 l-28 46 0 255 c-1 282 -1 284 -68 348 -39 38 -77 37
-95 -3 -16 -35 -35 -308 -28 -406 l6 -87 -66 68 -65 68 12 128 c14 155 3 213
-57 283 l-37 43 -21 -21 c-12 -12 -28 -50 -36 -85 l-15 -64 -126 118 -127 119
62 6 c33 3 441 33 906 65 919 66 851 56 885 121 12 22 12 29 -4 56 -28 45 -80
65 -154 60 -34 -2 -306 -27 -604 -55 -455 -44 -576 -52 -753 -52 -196 0 -219
-2 -343 -30 -156 -35 -240 -73 -231 -104 20 -66 165 -216 275 -284 41 -26 103
-77 138 -115 l63 -67 -6 -53 -7 -53 57 -39 c56 -39 116 -109 148 -173 10 -18
47 -124 83 -235 l65 -202 -4 -155 c-5 -160 -8 -175 -66 -330 -25 -65 -180
-320 -195 -320 -5 0 -29 14 -53 31 -52 36 -169 91 -231 109 -42 13 -42 13 -28
39 7 14 24 58 36 96 12 39 27 77 35 85 7 8 16 29 19 45 4 17 20 71 35 120 38
121 46 211 26 303 -18 88 -50 161 -98 223 -34 44 -35 48 -27 100 11 72 -4 160
-41 235 -29 60 -59 92 -233 247 -101 90 -186 205 -255 346 -77 158 -136 236
-218 286 -61 37 -64 41 -64 78 0 86 -61 133 -129 100 -29 -14 -37 -25 -39 -50
l-3 -33 -150 0 c-140 0 -153 -2 -199 -25 -27 -13 -51 -29 -55 -35 -9 -15 -25
-12 -25 4 0 15 -108 106 -126 106 -6 0 -23 -9 -38 -21 -38 -30 -37 -88 4 -122
32 -27 82 -43 101 -31 6 4 -18 -49 -55 -118 -76 -144 -91 -182 -115 -298 l-18
-85 -29 42 c-20 27 -69 67 -151 119 l-121 79 -60 100 c-33 55 -67 114 -76 131
-22 46 -99 119 -149 143 -52 25 -149 45 -180 36 -12 -3 -55 -23 -95 -43 l-73
-37 -138 -200 c-76 -110 -154 -228 -175 -262 -62 -104 -138 -272 -187 -412
l-46 -134 -107 268 c-83 207 -104 270 -94 276 12 8 81 4 135 -7 30 -6 61 55
70 137 4 38 12 67 22 75 9 7 43 35 76 62 33 26 86 59 119 72 172 69 289 219
322 415 19 109 8 148 -72 254 -66 89 -107 167 -146 281 -33 98 -81 175 -136
220 -22 17 -42 44 -45 58 -8 38 -56 107 -97 137 -45 33 -90 45 -170 45 l-66 0
-61 -62 c-50 -52 -65 -75 -83 -133 -23 -69 -75 -151 -215 -336 -126 -168 -225
-432 -214 -573 3 -34 1 -46 -10 -46 -7 0 -52 -26 -99 -57 -161 -110 -443 -469
-648 -825 -110 -191 -144 -269 -146 -337 l-2 -56 -3 50 c-9 154 -71 342 -145
447 l-19 28 29 -6 c35 -7 68 8 77 36 5 15 15 20 45 20 28 0 43 6 53 20 12 17
16 18 20 6 3 -8 20 -22 36 -31 61 -31 119 12 107 80 -8 42 -59 95 -92 95 -30
0 -64 -33 -64 -62 0 -20 -3 -19 -38 14 -30 29 -41 34 -59 27 -12 -4 -28 -17
-34 -27 -10 -15 -20 -19 -48 -15 -29 4 -41 0 -60 -21 -16 -17 -22 -33 -19 -50
4 -22 -4 -17 -60 35 -75 69 -176 122 -277 145 -111 26 -109 25 -128 92 -22 81
-93 159 -185 204 -58 29 -77 33 -166 36 -86 3 -110 0 -160 -18 -80 -31 -140
-87 -162 -153 -20 -61 -27 -67 -71 -60 -28 5 -38 1 -66 -29 l-32 -34 -40 18
c-44 20 -72 20 -220 -6 -49 -9 -109 -16 -132 -16 -41 0 -42 1 -33 26 26 68 4
151 -53 198 l-43 35 -164 14 c-154 13 -166 13 -204 -4 -85 -37 -134 -123 -110
-189 17 -48 18 -47 -21 -53 -48 -8 -95 -43 -95 -71 0 -13 -9 -31 -19 -40 -11
-10 -63 -87 -116 -171 -53 -84 -103 -156 -111 -159 -7 -3 -14 -17 -14 -30 0
-26 -39 -116 -50 -116 -6 0 -247 290 -263 317 -6 9 8 21 49 40 52 26 98 75
591 641 312 357 557 629 587 651 120 91 237 126 381 117 94 -5 180 -27 255
-66 25 -12 392 -230 815 -485 l770 -463 88 -12 c82 -11 89 -11 102 6 21 29 39
64 34 68 -2 2 -267 171 -589 376 -322 205 -591 378 -597 384 -10 9 149 158
728 681 408 369 773 694 813 723 97 73 251 147 371 178 85 23 122 27 250 28
l151 1 118 -58 c105 -51 1136 -684 1136 -697 -1 -3 -62 -50 -137 -105 -174
-128 -166 -120 -160 -168 10 -72 54 -94 120 -60 94 48 339 223 402 287 39 39
95 84 125 100 30 16 93 64 140 105 180 161 321 262 515 370 l110 61 181 0 182
0 183 -86 184 -85 306 -65 c292 -61 401 -90 497 -131 l44 -18 -47 -34 c-25
-18 -195 -203 -377 -410 -304 -346 -346 -390 -525 -546 l-195 -170 4 -47 c8
-81 42 -97 121 -57 175 90 368 263 522 469 200 268 457 540 695 735 174 142
195 164 216 227 49 152 153 288 261 345 55 29 66 31 208 37 l151 6 66 -47 c36
-27 81 -60 99 -74 19 -15 44 -30 57 -34 22 -6 22 -6 22 119 l0 125 -57 41
c-74 53 -165 81 -278 86 -83 3 -101 0 -232 -40z m-4549 -1538 c101 -135 115
-160 126 -213 17 -87 65 -170 144 -249 l68 -70 -4 -77 c-7 -116 -29 -147 -196
-272 -117 -87 -228 -155 -237 -145 -1 2 -5 40 -7 86 -4 74 -3 81 11 68 9 -8
33 -17 53 -21 33 -6 44 -3 87 29 57 42 82 77 83 115 2 54 -61 117 -106 105
-32 -8 -136 -117 -136 -143 0 -11 -4 -22 -9 -25 -14 -9 -23 42 -11 64 5 10 10
44 10 74 0 54 1 56 28 56 44 0 126 44 160 86 37 44 75 138 67 163 -3 9 -23 29
-46 45 -36 25 -43 27 -69 16 -34 -14 -100 -83 -100 -104 0 -7 -6 -18 -12 -24
-10 -8 -13 0 -14 37 -1 75 -23 137 -67 187 -34 38 -44 44 -66 39 -14 -3 -37
-18 -49 -32 -22 -24 -24 -33 -20 -130 3 -100 2 -104 -17 -99 -11 3 -44 11 -72
17 -29 7 -53 17 -53 22 0 6 64 124 141 264 129 230 161 277 196 283 2 0 54
-69 117 -152z m-382 -620 l58 -12 0 -37 c0 -34 -3 -38 -32 -44 -29 -7 -104
-40 -118 -52 -10 -9 2 -79 18 -97 24 -26 91 -56 130 -56 17 0 32 -4 32 -10 0
-5 -12 -7 -27 -4 -228 42 -225 42 -259 76 l-32 33 8 100 c6 64 16 117 30 147
l21 47 56 -39 c36 -26 76 -44 115 -52z m-200 -434 c72 -46 72 -46 89 -149 15
-95 147 -515 169 -540 34 -39 128 -233 140 -291 19 -90 8 -175 -32 -253 -28
-56 -41 -70 -85 -94 -114 -61 -297 -107 -427 -107 l-61 0 3 46 c3 37 7 44 21
39 97 -40 186 -23 311 60 46 31 73 57 85 82 17 36 17 38 -1 72 -10 19 -31 44
-47 55 l-27 20 -78 -38 c-66 -33 -209 -85 -235 -86 -5 0 -6 8 -4 18 3 9 8 38
12 63 l6 46 50 6 c104 13 264 119 304 203 23 49 8 100 -41 143 -35 31 -35 31
-66 14 -17 -10 -58 -48 -93 -85 -55 -59 -69 -69 -125 -85 l-63 -17 -36 42
c-20 23 -40 42 -45 42 -17 0 -46 -33 -46 -51 0 -18 -2 -18 -44 3 -37 18 -46
28 -56 64 -22 79 -97 144 -164 144 -62 0 -81 -136 -32 -227 57 -104 174 -193
233 -178 l25 6 -7 -68 c-4 -37 -9 -70 -11 -72 -2 -2 -49 37 -106 85 -136 117
-131 114 -156 107 -14 -3 -26 -18 -33 -43 -21 -69 38 -206 112 -263 39 -30
122 -67 149 -67 13 0 17 -5 13 -20 -4 -16 -8 -18 -19 -9 -8 6 -46 17 -86 25
-79 15 -215 65 -263 97 -101 67 -149 147 -149 252 0 39 5 88 12 111 7 25 113
181 274 406 249 347 269 372 378 471 l115 105 35 -21 c19 -12 65 -40 102 -63z
m1438 -159 c140 -158 166 -181 285 -250 197 -113 298 -271 320 -500 14 -146
-26 -250 -152 -400 -103 -122 -249 -225 -405 -285 -43 -17 -80 -30 -83 -30 -3
0 2 14 11 31 8 17 14 39 11 48 -3 13 6 16 57 16 72 0 128 21 200 74 58 43 84
76 92 120 5 25 0 37 -38 77 -53 56 -60 55 -148 -21 -52 -45 -70 -55 -99 -55
-79 0 -81 3 -81 94 0 112 4 123 49 131 85 14 244 120 298 198 40 57 39 112 -3
164 -17 21 -40 39 -50 41 -12 1 -65 -38 -144 -107 l-125 -109 -7 38 c-13 75
-74 160 -113 160 -13 0 -37 -8 -54 -17 -30 -18 -30 -19 -33 -111 l-3 -93 -114
80 c-118 83 -127 85 -169 47 -74 -67 79 -258 247 -307 l43 -13 -7 -80 c-4 -45
-8 -83 -10 -85 -2 -2 -37 8 -78 22 -64 21 -78 23 -104 12 -31 -13 -40 -27 -53
-82 -6 -27 -3 -36 19 -57 33 -32 132 -83 175 -91 28 -6 36 -14 54 -56 17 -40
28 -53 64 -69 24 -11 39 -20 33 -20 -5 0 -61 -9 -125 -21 l-116 -21 -60 30
c-81 41 -119 52 -209 60 l-78 7 -13 45 c-6 25 -20 101 -29 169 -15 105 -16
139 -6 228 23 204 73 361 183 572 80 156 160 276 257 388 68 79 171 175 182
170 3 -1 61 -65 129 -142z m1300 110 c135 -36 150 -51 240 -232 68 -138 84
-161 169 -253 52 -55 118 -117 148 -137 71 -47 147 -133 185 -210 28 -57 30
-70 26 -131 -6 -78 -39 -150 -92 -200 -23 -22 -446 -252 -463 -252 -2 0 -3 5
-3 11 0 6 -21 39 -46 75 l-46 64 56 0 c109 0 223 67 288 169 35 56 35 80 0
114 -47 45 -72 37 -201 -60 -64 -49 -124 -94 -135 -102 -18 -13 -18 -12 -12
45 13 114 15 118 56 142 93 53 250 213 250 254 0 8 -23 29 -50 46 l-51 32 -92
-68 c-51 -38 -98 -72 -105 -76 -9 -5 -25 3 -47 24 -50 49 -75 40 -98 -35 -10
-33 -20 -66 -23 -73 -5 -16 -82 36 -124 85 -61 69 -84 122 -86 195 -1 60 -5
73 -29 98 -32 33 -68 45 -94 30 -11 -5 -29 -36 -41 -67 -30 -78 -23 -136 31
-257 32 -74 53 -106 91 -142 61 -57 127 -87 179 -82 l39 4 0 -82 c0 -83 -5
-100 -24 -85 -32 25 -89 33 -148 21 -44 -10 -62 -10 -71 -1 -18 18 -53 13 -85
-14 -42 -35 -49 -76 -22 -120 18 -28 33 -38 87 -55 36 -11 75 -20 87 -20 47 0
99 23 136 60 l38 38 6 -40 c9 -57 40 -111 82 -146 20 -16 32 -32 27 -35 -4 -2
-62 -10 -129 -18 -117 -12 -122 -12 -150 8 -16 11 -49 23 -74 27 -81 12 -210
86 -210 121 0 7 16 64 35 125 41 130 42 158 14 275 -31 130 -49 285 -49 422 0
105 3 132 24 185 35 93 81 183 139 271 l52 77 110 0 c86 0 131 -6 205 -25z
m-2466 -84 c-7 -26 -7 -26 -34 86 0 1 8 3 18 5 13 3 18 -4 20 -31 2 -19 0 -46
-4 -60z m-3561 14 c55 -6 57 -7 57 -36 0 -29 0 -29 -62 -29 -35 0 -86 3 -114
6 l-51 6 10 34 c10 34 11 34 56 29 25 -2 72 -7 104 -10z m1225 -16 c37 -15 52
-28 57 -46 3 -14 5 -26 3 -28 -2 -1 -64 5 -138 14 -115 14 -135 19 -138 34 -8
41 4 47 86 47 58 0 93 -6 130 -21z m-209 -209 c108 -5 210 -11 226 -14 17 -3
62 -10 100 -17 82 -13 276 -55 321 -70 53 -17 144 -139 229 -309 41 -83 78
-170 81 -193 l6 -43 -183 -13 c-101 -7 -357 -16 -568 -18 l-384 -5 17 23 c25
36 20 53 -29 98 -31 28 -50 39 -62 34 -61 -21 -70 -77 -22 -125 l30 -31 -38 6
c-21 4 -76 7 -123 7 -134 0 -134 -12 22 347 71 164 134 309 139 322 6 16 14
21 26 17 9 -4 105 -11 212 -16z m-1024 -19 c170 -13 301 -17 409 -14 91 4 157
2 154 -3 -3 -5 -38 -85 -78 -179 -40 -93 -82 -186 -94 -205 -11 -19 -30 -64
-41 -100 l-21 -65 -139 -8 c-77 -4 -207 -19 -290 -32 -82 -14 -156 -25 -162
-25 -9 0 -13 18 -13 55 0 53 -1 55 -36 70 -47 19 -74 19 -103 -1 -21 -15 -23
-22 -19 -85 4 -66 3 -69 -19 -69 -20 0 -23 5 -23 38 0 31 -6 40 -34 59 l-33
21 -33 -19 c-30 -19 -32 -23 -28 -68 l3 -49 -55 -5 c-30 -3 -56 -4 -58 -2 -7
7 32 70 54 88 13 10 24 23 24 28 0 5 70 136 155 290 85 154 155 284 155 289 0
14 38 13 325 -9z m2212 -815 c44 -153 195 -296 345 -326 34 -6 78 -20 98 -29
19 -10 76 -26 125 -36 50 -10 91 -19 93 -20 3 -3 -36 -236 -41 -241 -1 -2
-148 30 -326 70 -386 88 -368 78 -381 212 -9 97 -29 166 -66 231 -43 74 -27
123 40 123 31 0 65 53 74 113 l6 42 8 -40 c5 -22 16 -67 25 -99z m-1941 48
c21 -6 21 -7 5 -37 -13 -27 -16 -75 -19 -289 l-3 -258 -22 0 c-12 0 -211 -11
-441 -25 -292 -17 -422 -22 -426 -14 -15 23 -30 211 -28 329 3 102 0 131 -14
156 l-17 31 152 18 c84 9 289 34 457 55 353 44 329 41 356 34z m1591 -91 c-1
-34 5 -68 13 -83 8 -14 24 -96 35 -183 l21 -158 -20 -4 c-112 -25 -518 -92
-631 -105 -220 -24 -615 5 -615 45 0 11 13 104 57 395 3 20 1 52 -5 72 -8 30
-7 38 6 43 8 3 146 3 306 -1 277 -6 568 4 716 25 30 5 69 9 87 10 l31 1 -1
-57z m5083 -100 c35 -58 35 -59 35 -178 0 -115 -1 -123 -33 -190 -18 -38 -39
-77 -46 -85 -8 -8 -16 -31 -19 -50 -9 -59 -21 -93 -51 -147 -26 -47 -32 -52
-54 -46 -15 3 -45 7 -69 7 -42 1 -44 -1 -212 -168 -93 -93 -173 -167 -179
-165 -5 2 -28 20 -50 41 l-40 36 -5 269 c-3 147 -8 280 -12 294 -7 26 -6 26
97 51 124 30 202 61 302 118 85 49 194 144 252 219 21 28 41 51 44 51 3 0 21
-26 40 -57z m-3094 -123 l-12 -165 25 -47 c21 -39 38 -54 91 -82 107 -56 168
-69 295 -63 l110 5 41 -38 c28 -25 55 -40 83 -45 l41 -7 0 -181 c0 -113 -6
-216 -15 -272 -8 -49 -15 -124 -15 -165 l0 -76 -35 -13 c-32 -11 -95 -74 -95
-94 0 -23 -226 -546 -249 -577 -24 -32 -26 -42 -23 -114 2 -67 6 -84 25 -104
29 -32 70 -52 104 -52 18 0 39 -12 58 -31 78 -80 169 -99 490 -99 105 0 348
-3 542 -7 l352 -6 -26 -31 c-35 -42 -63 -104 -63 -143 l0 -32 -62 5 c-35 3
-322 21 -638 39 -551 32 -577 32 -611 16 -31 -15 -40 -15 -55 -4 -40 29 -58
12 -162 -153 -143 -229 -242 -486 -292 -757 -11 -61 -27 -127 -35 -145 -19
-42 -19 -129 0 -166 8 -15 15 -30 15 -32 0 -2 -49 -4 -110 -4 -62 0 -110 4
-110 9 0 37 35 162 60 216 16 35 30 72 30 82 0 10 6 27 14 38 33 48 74 185
216 725 83 316 176 646 206 734 66 194 103 334 139 531 15 83 38 184 51 225
46 141 40 253 -14 314 -10 12 -26 42 -36 68 -19 52 -78 112 -134 135 -20 8
-234 52 -477 98 -243 45 -456 90 -473 99 -17 9 -40 16 -52 16 -24 0 -24 2 -1
105 l17 80 170 12 c158 12 177 16 283 54 62 23 139 60 172 81 60 40 144 126
162 166 6 12 11 21 13 20 1 -2 -4 -77 -10 -168z m1595 -116 c94 -88 175 -118
376 -139 80 -8 163 -15 185 -15 37 0 40 -2 34 -23 -15 -60 -28 -283 -23 -388
l6 -117 -32 -6 c-18 -3 -196 -10 -397 -16 -478 -13 -543 -22 -713 -97 l-58
-26 6 -41 c10 -65 30 -75 133 -70 155 8 895 34 972 34 l75 0 16 -39 c19 -45
52 -69 102 -78 31 -5 35 -3 41 23 27 109 23 104 70 104 27 0 48 6 56 15 24 28
21 8 -8 -56 -16 -35 -34 -86 -41 -113 -8 -31 -37 -83 -81 -146 -42 -58 -100
-160 -144 -252 -63 -132 -78 -156 -104 -167 -41 -17 -59 -39 -70 -86 -6 -27
-26 -57 -59 -91 -27 -27 -60 -71 -72 -97 -22 -46 -24 -47 -69 -47 -66 0 -1325
70 -1338 75 -6 2 -14 15 -18 30 -5 21 26 96 155 373 l162 346 109 104 c59 57
108 110 108 117 0 6 -22 26 -48 42 l-49 30 -6 93 c-4 51 -7 175 -7 274 l0 181
88 40 c111 51 227 121 321 193 40 31 108 77 150 102 l76 46 26 -36 c15 -19 46
-53 70 -76z m2201 -246 c-8 -8 -9 -4 -5 13 4 13 8 18 11 10 2 -7 -1 -18 -6
-23z m-4702 -598 c509 -46 543 -50 708 -90 l173 -42 -7 -62 c-6 -55 -55 -197
-104 -301 -10 -22 -24 -59 -31 -83 -18 -61 -97 -185 -144 -225 -63 -54 -139
-65 -534 -73 l-334 -6 6 30 c11 53 -13 63 -302 128 -224 50 -265 62 -273 79
-14 31 93 268 178 396 76 115 98 177 82 236 -5 21 -14 42 -19 48 -17 18 -9 23
29 19 20 -3 278 -27 572 -54z m1057 -262 c-3 -8 -6 -5 -6 6 -1 11 2 17 5 13 3
-3 4 -12 1 -19z m-1383 -1078 c439 -60 801 -111 803 -114 3 -2 -4 -17 -15 -33
-11 -15 -107 -248 -213 -516 l-194 -488 -540 7 -540 7 -318 63 c-175 34 -321
65 -324 68 -10 9 141 320 193 396 69 103 88 140 205 405 126 285 139 315 142
315 1 0 361 -49 801 -110z m264 -1327 c-32 -2 -84 -2 -115 0 -32 2 -6 3 57 3
63 0 89 -1 58 -3z"/>
<path d="M1833 5912 c-14 -9 -33 -56 -33 -82 0 -21 46 -50 80 -50 24 0 65 40
73 71 4 15 -4 26 -34 44 -40 26 -65 30 -86 17z"/>
<path d="M6223 4186 c-25 -22 -29 -22 -50 -9 -20 14 -26 13 -60 -5 -34 -17
-38 -24 -37 -55 1 -44 25 -82 67 -107 43 -27 53 -25 89 11 29 28 35 30 79 24
41 -6 49 -4 58 14 6 11 11 27 11 36 0 18 -98 114 -117 115 -7 0 -24 -11 -40
-24z"/>
<path d="M6555 4202 c-53 -11 -68 -56 -39 -117 19 -40 61 -60 108 -51 28 5 37
13 46 41 6 19 10 44 8 55 -4 25 -94 78 -123 72z"/>
<path d="M7159 4155 c-46 -27 -50 -27 -68 -11 -22 20 -50 20 -79 0 -32 -22
-31 -102 1 -132 34 -32 97 -28 97 6 0 13 4 11 16 -6 40 -58 107 -49 118 16 10
63 7 94 -11 109 -38 29 -49 32 -74 18z"/>
<path d="M6809 3956 c-28 -19 -34 -28 -31 -55 2 -27 0 -31 -15 -23 -19 10 -34
6 -70 -18 -45 -29 -21 -125 39 -156 29 -15 32 -15 57 4 17 12 28 32 31 55 4
29 8 35 20 27 26 -16 56 -11 79 14 19 21 22 31 16 62 -8 48 -31 81 -65 99 -26
13 -31 12 -61 -9z"/>
<path d="M6366 3867 c-37 -37 -35 -79 5 -110 l30 -24 -30 0 c-38 0 -81 -37
-81 -69 0 -26 43 -64 72 -64 53 0 91 64 63 106 -15 23 -14 23 13 18 42 -8 100
19 108 51 14 55 -33 98 -122 112 -26 4 -38 0 -58 -20z"/>
<path d="M5992 3807 c-6 -7 -16 -26 -22 -41 -9 -26 -8 -32 17 -58 20 -21 36
-28 64 -28 41 0 56 13 65 56 5 26 0 32 -39 57 -49 30 -69 33 -85 14z"/>
<path d="M6980 3753 c-57 -21 -69 -92 -24 -137 53 -52 111 -29 120 49 5 41 3
53 -12 67 -22 19 -62 29 -84 21z"/>
<path d="M5964 3670 c-24 -9 -48 -44 -58 -83 -5 -23 -1 -33 23 -57 54 -55 111
-28 118 56 4 47 3 50 -29 70 -23 14 -40 19 -54 14z"/>
<path d="M6519 3596 c-13 -6 -28 -26 -33 -45 -9 -31 -7 -36 23 -63 47 -42 89
-36 116 14 25 46 16 64 -42 89 -33 14 -45 15 -64 5z"/>
<path d="M3860 4270 c-11 -11 -20 -29 -20 -39 0 -18 -2 -19 -30 -4 -42 20 -86
9 -105 -27 -20 -39 -19 -56 7 -80 42 -39 128 -14 128 37 0 14 4 13 24 -6 13
-12 39 -24 58 -27 46 -8 68 14 68 67 0 76 -83 126 -130 79z"/>
<path d="M4226 4229 c-21 -17 -26 -29 -26 -65 0 -56 35 -94 86 -94 33 0 74 28
74 51 0 6 14 -3 31 -20 25 -25 39 -31 74 -31 34 0 47 5 55 19 26 50 2 113 -53
136 -36 15 -71 4 -103 -32 l-20 -24 -33 41 c-36 46 -48 48 -85 19z"/>
<path d="M3736 3869 c-14 -11 -26 -29 -26 -40 0 -20 0 -20 -29 0 -34 24 -72
16 -91 -19 -16 -29 4 -96 36 -116 32 -22 102 -13 126 15 11 14 28 21 52 21 40
0 56 20 56 70 0 36 -47 90 -78 90 -11 0 -31 -9 -46 -21z"/>
<path d="M4504 3753 c-28 -5 -46 -42 -42 -83 2 -25 14 -42 50 -72 l46 -40 31
23 c27 19 31 29 31 67 0 37 -6 50 -34 78 -33 33 -40 35 -82 27z"/>
<path d="M4359 3667 c-27 -14 -53 -61 -45 -82 19 -50 113 -57 134 -9 21 44 15
62 -26 83 -32 16 -42 18 -63 8z"/>
<path d="M3752 2944 c-13 -9 -22 -26 -22 -42 l0 -26 -39 38 c-38 37 -39 37
-69 22 -53 -28 -59 -90 -11 -130 17 -14 37 -26 44 -26 21 0 65 22 65 32 0 6
14 -2 31 -16 37 -31 77 -33 113 -5 36 28 33 47 -16 112 -46 60 -60 66 -96 41z"/>
<path d="M3275 2895 c-38 -37 -35 -95 7 -130 23 -20 38 -25 57 -20 33 8 37 16
45 78 7 47 5 52 -21 73 -36 30 -58 30 -88 -1z"/>
<path d="M4291 2829 c-25 -27 -31 -30 -51 -19 -57 31 -107 -75 -60 -125 44
-46 113 -39 131 14 8 23 18 30 48 35 27 4 41 13 49 31 18 40 15 51 -24 74 -47
28 -60 27 -93 -10z"/>
<path d="M3103 2820 c-30 -18 -33 -25 -33 -66 0 -56 12 -79 51 -100 52 -26
119 1 119 49 0 12 -24 48 -53 80 l-52 58 -32 -21z"/>
<path d="M3662 2628 c-18 -11 -32 -28 -32 -39 0 -24 -8 -24 -40 0 -22 17 -27
18 -52 5 -57 -29 -64 -87 -16 -134 28 -29 37 -32 75 -27 54 6 73 21 73 58 0
27 3 29 41 29 36 0 41 3 55 35 17 43 14 49 -35 74 -37 19 -38 19 -69 -1z"/>
<path d="M4020 2273 c-49 -18 -64 -68 -35 -122 16 -33 33 -41 80 -41 65 0 77
80 21 136 -35 35 -40 37 -66 27z"/>
<path d="M3141 2163 c-36 -45 -38 -73 -7 -100 27 -23 70 -30 92 -15 16 10 34
48 34 70 0 24 -54 72 -80 72 -10 0 -28 -12 -39 -27z"/>
<path d="M3832 2147 c-31 -33 -27 -60 13 -96 44 -38 117 -45 135 -12 20 38 11
59 -39 95 -57 42 -79 45 -109 13z"/>
<path d="M2987 2123 c-55 -9 -61 -93 -9 -133 31 -25 79 -21 100 7 19 26 15 86
-8 111 -20 22 -28 23 -83 15z"/>
<path d="M9843 8550 c-28 -12 -43 -40 -43 -84 0 -61 28 -113 93 -171 57 -50
65 -54 126 -61 62 -6 66 -6 88 20 44 51 34 70 -94 193 -65 62 -125 112 -133
112 -8 0 -25 -4 -37 -9z"/>
<path d="M7253 8352 c-228 -301 -510 -603 -733 -785 -74 -60 -226 -200 -337
-311 -221 -219 -228 -229 -175 -278 15 -14 37 -29 49 -32 31 -10 78 17 111 63
15 21 84 84 152 142 282 234 494 438 839 809 141 151 266 288 279 304 31 40
44 95 32 136 -11 38 -66 100 -89 100 -9 0 -66 -66 -128 -148z"/>
<path d="M9590 8332 c-24 -11 -37 -26 -42 -47 -4 -16 -14 -61 -23 -100 -20
-89 -91 -234 -150 -305 -86 -106 -97 -124 -86 -154 6 -14 23 -31 38 -37 34
-13 67 4 152 76 169 143 280 362 242 477 -10 31 -75 108 -90 108 -3 0 -22 -8
-41 -18z"/>
<path d="M7740 8311 c-43 -23 -56 -72 -39 -144 14 -61 47 -100 101 -122 l43
-17 22 29 c36 43 57 126 44 166 -16 48 -84 107 -123 107 -7 0 -29 -8 -48 -19z"/>
<path d="M9642 7518 c-6 -8 -21 -49 -33 -93 -18 -67 -20 -94 -15 -170 18 -243
20 -252 45 -279 35 -38 92 -36 132 4 l30 29 -7 163 c-7 185 -20 248 -67 310
-34 45 -66 58 -85 36z"/>
<path d="M9884 7455 l-37 -55 6 -119 c7 -171 39 -231 137 -266 44 -15 46 -15
63 6 9 12 17 37 17 57 0 33 1 34 18 20 20 -18 91 -40 104 -32 19 12 48 86 48
121 0 41 -19 71 -61 97 -39 25 -77 12 -97 -33 l-16 -36 -8 115 -7 114 -38 33
c-58 49 -85 45 -129 -22z"/>
<path d="M8977 7192 c-34 -21 -62 -106 -53 -158 12 -61 89 -126 131 -110 23 8
65 105 65 149 0 44 -12 70 -48 110 -30 31 -55 34 -95 9z"/>
<path d="M8642 7157 c-40 -24 -56 -42 -73 -81 -32 -74 -30 -113 9 -147 17 -15
48 -31 69 -35 32 -6 39 -4 52 16 22 33 82 193 77 206 -2 6 -22 25 -43 42 l-40
31 -51 -32z"/>
<path d="M7675 7062 c-28 -6 -55 -32 -55 -54 0 -24 -7 -23 -53 9 -36 25 -41
26 -64 13 -40 -23 -46 -40 -33 -88 13 -51 60 -86 100 -77 35 9 41 17 47 65 6
42 6 42 19 18 29 -55 137 -63 150 -12 12 45 -8 87 -51 110 -22 11 -49 19 -60
16z"/>
<path d="M7889 7033 c-22 -5 -41 -70 -28 -94 11 -21 59 -49 84 -49 27 0 65 46
65 79 0 26 -7 34 -40 51 -39 20 -50 22 -81 13z"/>
<path d="M8393 6949 c-58 -21 -70 -100 -23 -147 40 -41 80 -48 128 -25 60 29
56 57 -20 124 -51 46 -67 55 -85 48z"/>
<path d="M8200 6933 c-36 -13 -50 -36 -50 -84 0 -39 4 -51 26 -68 33 -26 60
-26 102 -1 21 13 32 27 32 43 0 29 -88 117 -110 110z"/>
<path d="M6354 6878 c-9 -18 -18 -34 -19 -36 -1 -2 -19 5 -39 15 l-37 17 -31
-31 c-37 -37 -34 -69 9 -95 38 -22 80 -13 103 24 14 24 19 26 29 14 31 -37
121 -31 140 10 17 38 14 53 -18 85 -24 24 -38 29 -75 29 -41 0 -47 -3 -62 -32z"/>
<path d="M9776 6442 c-44 -26 -72 -104 -90 -244 -27 -214 -37 -396 -35 -628 1
-165 -2 -232 -12 -253 -10 -23 -10 -33 4 -62 16 -33 20 -35 66 -35 43 0 53 4
77 33 60 71 68 105 63 287 -10 397 -6 474 29 611 33 131 34 164 4 224 -34 69
-67 90 -106 67z"/>
<path d="M9310 6399 c-63 -87 -71 -128 -87 -436 -9 -155 -12 -298 -9 -316 9
-46 45 -83 96 -98 69 -21 74 -8 88 223 11 182 39 427 61 543 l10 50 -42 37
c-55 49 -79 49 -117 -3z"/>
<path d="M295 4721 c-48 -30 -84 -74 -104 -128 -10 -27 -37 -78 -60 -112 -50
-73 -80 -137 -81 -169 0 -34 45 -70 97 -78 50 -7 56 -2 104 91 14 27 62 115
107 195 l82 145 -43 37 c-48 43 -60 45 -102 19z"/>
<path d="M1575 4718 c-29 -14 -389 -445 -398 -476 -4 -15 -270 -373 -592 -797
l-584 -770 -1 -116 c0 -98 3 -118 16 -123 26 -10 47 -7 66 11 10 9 18 11 18 5
0 -6 22 13 50 42 55 59 61 71 28 60 -19 -6 -21 -4 -12 7 6 8 271 361 589 784
424 564 623 838 745 1025 91 140 169 260 173 267 5 7 1 26 -7 42 -18 34 -62
53 -91 39z"/>
<path d="M1094 4712 c-6 -4 -106 -136 -222 -294 l-211 -288 15 -50 15 -50 54
0 55 0 201 301 c110 165 202 306 205 314 3 7 -14 26 -37 44 -44 32 -56 36 -75
23z"/>
<path d="M673 4638 c-11 -6 -67 -63 -122 -128 -92 -108 -101 -122 -101 -159 0
-54 32 -90 85 -98 40 -5 40 -5 81 59 23 34 73 108 112 164 39 55 67 105 64
110 -14 19 -74 64 -85 63 -7 0 -22 -5 -34 -11z"/>
<path d="M2110 4603 c-86 -14 -130 -51 -130 -107 0 -69 -1 -69 276 -71 267 -2
385 -16 579 -69 165 -45 170 -48 173 -91 2 -23 -5 -58 -18 -89 -35 -81 -150
-268 -184 -299 -17 -16 -76 -50 -131 -77 l-101 -48 -254 39 c-140 21 -293 43
-340 49 -47 5 -112 17 -145 25 -58 15 -175 63 -175 72 0 2 59 88 131 190 72
102 137 201 145 219 28 67 14 133 -39 182 -20 19 -29 22 -45 13 -35 -18 -148
-150 -183 -212 -19 -33 -66 -109 -105 -168 -85 -129 -98 -162 -92 -247 4 -58
7 -67 43 -104 40 -41 91 -62 265 -109 156 -42 434 -81 579 -81 41 0 89 -8 124
-20 81 -29 203 -27 277 3 106 44 142 77 245 228 135 196 173 291 178 441 2 63
-1 78 -21 106 -56 77 -377 192 -622 222 -81 10 -378 12 -430 3z"/>
<path d="M2666 4319 c-26 -20 -27 -25 -21 -73 8 -61 36 -96 77 -96 42 0 68 32
68 84 0 38 -5 48 -35 75 -42 37 -53 38 -89 10z"/>
<path d="M2279 4295 c-47 -26 -55 -65 -27 -137 14 -38 58 -46 103 -18 66 41
72 86 19 136 -39 37 -56 40 -95 19z"/>
<path d="M9072 4225 c-56 -47 -65 -155 -22 -252 25 -57 58 -59 106 -6 69 75
93 170 56 226 -41 62 -91 73 -140 32z"/>
<path d="M1998 4204 c-49 -31 -49 -55 0 -119 64 -85 107 -83 153 8 18 34 18
40 5 66 -33 62 -102 82 -158 45z"/>
<path d="M2473 4143 c-56 -11 -72 -98 -25 -131 41 -29 69 -35 107 -22 65 21
60 94 -8 135 -24 14 -46 24 -48 24 -2 -1 -14 -4 -26 -6z"/>
<path d="M2232 4029 c-13 -5 -29 -23 -37 -41 -12 -29 -11 -35 3 -51 44 -49
111 -47 132 3 16 38 12 46 -35 74 -30 18 -46 22 -63 15z"/>
<path d="M264 4002 c-16 -11 -159 -203 -177 -239 -25 -48 -22 -88 9 -112 33
-26 95 -28 116 -3 24 26 178 279 178 290 0 6 -18 24 -39 41 -38 30 -66 38 -87
23z"/>
<path d="M314 3614 c-92 -125 -176 -243 -186 -262 -24 -48 -24 -106 1 -131 23
-23 100 -46 112 -34 4 4 89 136 189 293 l181 285 -43 37 c-24 21 -53 38 -65
38 -16 0 -60 -53 -189 -226z"/>
<path d="M8180 3733 c-99 -84 -102 -87 -96 -121 7 -45 42 -82 76 -82 33 0 135
65 173 109 35 42 42 74 27 111 -11 26 -57 70 -73 70 -3 0 -51 -39 -107 -87z"/>
<path d="M10094 3721 c-40 -24 -62 -80 -62 -156 0 -35 -9 -85 -21 -120 -27
-77 -27 -88 7 -126 22 -24 37 -32 67 -33 36 -1 42 3 71 46 43 63 74 158 81
245 7 85 -7 127 -48 148 -37 20 -58 19 -95 -4z"/>
<path d="M8902 3655 c-18 -8 -34 -20 -36 -27 -3 -7 -34 -118 -70 -247 -41
-149 -72 -241 -85 -255 -31 -33 -71 -127 -71 -168 0 -44 40 -83 96 -94 42 -8
45 -5 114 128 46 90 120 286 120 321 0 8 14 44 30 79 38 80 45 120 31 169 -13
42 -65 109 -85 109 -6 -1 -26 -7 -44 -15z"/>
<path d="M7474 3546 c-21 -21 -34 -44 -34 -59 0 -14 30 -70 71 -131 73 -109
112 -144 191 -167 29 -8 35 -6 51 13 22 26 17 80 -14 165 -31 82 -161 213
-212 213 -10 0 -34 -15 -53 -34z"/>
<path d="M1292 3522 c-19 -3 -169 -166 -388 -422 -66 -78 -134 -199 -169 -302
-39 -115 -33 -138 50 -203 129 -101 268 -161 430 -185 68 -10 86 -17 125 -49
l45 -38 320 -18 c176 -10 343 -18 371 -18 78 -2 153 40 255 142 72 71 94 101
130 176 23 50 59 115 80 145 54 80 76 128 104 226 31 108 41 219 23 253 -30
54 -35 56 -657 151 -515 79 -596 94 -610 111 -17 21 -72 37 -109 31z m602
-312 c298 -38 555 -72 573 -75 30 -5 31 -7 26 -43 -3 -22 -62 -138 -145 -285
-137 -241 -177 -296 -233 -317 -31 -12 -527 -25 -589 -16 -42 7 -49 11 -62 42
-9 21 -23 35 -37 38 -12 3 -62 12 -112 21 -49 9 -126 28 -170 42 -103 33 -248
100 -243 113 1 5 93 131 203 280 165 222 204 270 224 270 14 0 268 -31 565
-70z"/>
<path d="M1541 3193 c-27 -11 -51 -38 -51 -57 0 -17 -5 -15 -34 13 -37 35 -59
36 -90 2 -21 -23 -12 -101 16 -136 23 -30 70 -33 96 -7 16 17 19 16 54 -3 37
-20 37 -20 56 0 11 11 31 41 46 66 l27 47 -43 41 c-43 41 -51 44 -77 34z"/>
<path d="M1970 3050 c-14 -14 -20 -33 -20 -64 l0 -43 58 -12 c50 -10 58 -9 70
6 6 9 12 33 12 53 0 29 -6 41 -30 58 -36 27 -64 28 -90 2z"/>
<path d="M1252 2773 c-22 -4 -52 -48 -52 -77 0 -21 48 -56 77 -56 37 0 60 16
72 51 12 35 2 62 -29 79 -19 10 -28 11 -68 3z"/>
<path d="M1460 2723 c-35 -13 -50 -37 -50 -78 0 -48 10 -63 63 -95 l39 -23 26
20 c48 36 38 123 -18 163 -29 21 -35 22 -60 13z"/>
<path d="M1930 2710 c-29 -29 -27 -90 3 -118 45 -43 127 -16 127 41 0 27 -67
97 -93 97 -9 0 -26 -9 -37 -20z"/>
<path d="M9737 3493 c-25 -6 -61 -88 -136 -310 -70 -207 -74 -242 -33 -283 30
-29 97 -50 111 -34 5 5 33 74 64 154 31 80 66 165 78 190 23 47 36 141 25 185
-6 25 -72 106 -85 104 -3 -1 -14 -3 -24 -6z"/>
<path d="M9287 3448 c-9 -7 -57 -112 -108 -233 -98 -238 -104 -267 -61 -324
27 -36 51 -37 99 -2 50 36 90 113 101 197 6 45 16 71 36 94 33 40 56 93 56
132 0 40 -34 102 -69 127 -34 25 -33 24 -54 9z"/>
<path d="M7983 3425 c-18 -8 -41 -28 -51 -44 -25 -42 -122 -481 -122 -554 0
-62 17 -113 43 -136 26 -21 20 -38 -23 -62 -31 -18 -40 -29 -40 -50 0 -14 -7
-46 -15 -69 -18 -52 -20 -157 -2 -174 41 -42 88 -46 123 -11 20 20 23 31 18
63 -6 36 -4 40 29 59 29 18 36 28 40 65 3 23 15 77 27 118 18 61 20 80 11 105
-6 17 -11 50 -11 72 0 54 39 323 50 343 5 9 20 61 34 116 l26 99 -43 37 c-47
42 -50 43 -94 23z"/>
<path d="M5667 2622 c-26 -15 -28 -21 -23 -59 4 -34 2 -43 -13 -48 -60 -19
-81 -93 -38 -133 49 -46 117 -17 117 50 0 25 2 26 33 21 28 -4 37 -1 55 22 12
15 22 31 22 34 0 13 -102 131 -113 131 -7 0 -25 -8 -40 -18z"/>
<path d="M6243 2565 c-39 -28 -66 -128 -49 -182 6 -19 4 -23 -12 -23 -47 0
-102 -120 -87 -189 9 -41 66 -89 115 -97 26 -4 41 -13 45 -25 7 -23 54 -49 87
-49 15 0 29 -10 40 -30 22 -39 74 -70 118 -70 29 0 39 6 53 29 23 38 22 93 -3
140 -22 43 -64 81 -90 81 -9 0 -34 22 -56 50 -50 64 -78 66 -118 10 -12 -16
-16 -18 -12 -7 3 10 6 38 6 61 0 40 2 43 23 39 33 -7 45 13 63 107 18 98 10
130 -41 154 -41 20 -55 20 -82 1z"/>
<path d="M6477 2392 c-37 -39 -53 -118 -33 -165 15 -38 54 -64 102 -69 25 -3
32 2 46 32 9 19 22 64 30 99 l13 63 -40 34 c-49 41 -82 43 -118 6z"/>
<path d="M9079 2345 c-55 -20 -100 -45 -144 -79 -21 -17 -56 -39 -76 -48 -61
-27 -90 -82 -99 -186 -15 -171 -22 -695 -10 -727 27 -71 66 -94 249 -147 250
-72 332 -83 626 -83 175 0 284 4 332 13 68 13 76 17 117 63 36 40 48 64 66
131 44 163 53 236 53 428 0 271 -28 383 -122 483 -53 57 -100 89 -172 118 -42
16 -98 22 -313 34 -317 18 -459 18 -507 0z m269 -237 c-10 -39 -23 -132 -30
-207 -6 -75 -13 -137 -14 -139 -4 -6 -158 19 -239 40 -43 11 -90 18 -102 15
-27 -5 -27 -2 -17 179 l7 110 48 0 c36 0 55 6 72 22 16 15 46 26 88 33 35 6
65 12 68 15 2 2 34 4 71 4 l66 0 -18 -72z m391 47 c71 -17 188 -75 219 -108
16 -18 24 -53 40 -177 11 -85 18 -157 16 -159 -4 -5 -358 15 -457 26 l-59 6 7
86 c12 165 9 264 -8 304 l-16 37 97 0 c53 0 126 -7 161 -15z m-620 -544 c94
-21 173 -40 174 -42 2 -2 1 -75 -1 -162 l-4 -157 -52 5 c-123 14 -196 40 -263
94 l-33 26 0 138 c0 75 2 137 4 137 1 0 80 -17 175 -39z m462 -70 c161 -30
236 -34 338 -21 51 6 94 10 95 8 3 -2 -18 -180 -24 -205 -5 -24 -483 -84 -505
-62 -9 9 -22 299 -13 299 2 0 51 -9 109 -19z"/>
<path d="M5895 2261 c-55 -34 -78 -67 -83 -120 -5 -60 12 -114 44 -140 l25
-20 -22 -30 c-18 -25 -21 -39 -17 -95 5 -75 26 -106 93 -137 61 -28 92 -25
115 14 26 42 25 63 -3 101 -12 17 -33 54 -46 82 l-23 52 22 30 c20 28 22 35
12 74 -8 32 -8 54 0 80 15 49 -3 91 -47 112 -40 19 -34 20 -70 -3z"/>
<path d="M5512 2089 c-34 -17 -44 -28 -53 -62 -18 -66 -6 -127 30 -159 63 -56
105 -45 142 37 30 66 24 110 -25 163 -36 40 -49 43 -94 21z"/>
<path d="M6161 1926 c-12 -13 -29 -45 -37 -71 -30 -100 -11 -162 56 -189 65
-26 114 -21 143 14 38 44 42 68 20 99 -11 14 -22 46 -26 71 -11 86 -104 131
-156 76z"/>
<path d="M6494 1792 c-6 -4 -21 -54 -33 -112 -13 -58 -24 -112 -27 -120 -3
-11 10 -21 40 -32 41 -15 45 -15 59 0 8 9 21 37 28 62 7 25 19 52 26 61 18 21
33 74 24 85 -3 5 -21 22 -39 37 -34 27 -57 33 -78 19z"/>
<path d="M6753 1670 c-45 -18 -67 -81 -48 -140 4 -14 27 -42 51 -63 37 -32 42
-42 38 -66 -13 -61 48 -131 114 -131 26 0 36 13 66 94 28 74 32 106 16 137
-14 26 -67 51 -90 44 -16 -5 -20 -2 -20 20 0 38 -26 83 -60 100 -33 17 -36 17
-67 5z"/>
<path d="M7244 1631 c-35 -22 -72 -92 -80 -154 -7 -54 22 -102 72 -123 46 -19
65 -15 80 16 7 14 24 50 39 80 15 30 33 72 41 93 l13 37 -52 35 c-60 40 -71
42 -113 16z"/>
<path d="M6435 1503 c-16 -3 -27 -26 -53 -111 -18 -59 -32 -115 -32 -125 0
-27 27 -73 52 -93 l23 -16 -23 5 c-16 4 -34 -6 -68 -36 -44 -40 -46 -45 -51
-108 -6 -76 7 -126 42 -159 30 -28 60 -22 105 20 29 27 31 33 25 72 -5 32 -1
54 14 88 20 44 20 45 1 77 l-19 32 27 -5 c24 -5 30 -1 45 31 22 47 32 245 14
267 -24 29 -82 64 -102 61z"/>
<path d="M6730 1248 c-68 -47 -87 -136 -53 -245 31 -98 75 -118 135 -59 33 32
34 35 30 98 -3 47 0 74 12 96 24 46 20 67 -19 101 -42 37 -61 38 -105 9z"/>
<path d="M7042 1137 c-44 -33 -72 -71 -84 -113 -8 -31 -6 -44 17 -90 47 -97
98 -117 160 -63 33 29 35 35 30 73 -4 27 -1 54 9 78 24 57 20 73 -26 107 -50
37 -64 38 -106 8z"/>
<path d="M255 1109 c-42 -38 -44 -72 -5 -99 22 -15 278 -29 2325 -124 1265
-59 2332 -109 2371 -112 71 -6 71 -7 53 -25 -10 -10 -19 -32 -19 -49 0 -43 30
-100 57 -106 51 -13 123 42 123 94 0 14 -12 38 -26 53 l-26 27 31 7 c18 4 55
4 82 0 l51 -7 -38 -40 c-37 -37 -39 -41 -39 -108 0 -58 3 -72 24 -94 13 -14
39 -30 58 -37 40 -13 55 -4 83 50 39 79 37 139 -8 193 l-26 31 49 -6 c165 -21
160 -22 179 8 30 46 32 92 5 121 -51 55 -27 53 -1344 79 l-1220 24 -671 60
-671 60 -654 16 c-360 8 -666 15 -681 15 -16 0 -42 -13 -63 -31z"/>
<path d="M5800 997 c-14 -7 -29 -27 -35 -47 -6 -19 -16 -45 -23 -57 -16 -28
-15 -74 1 -97 7 -10 32 -20 55 -23 40 -5 46 -3 83 33 64 63 60 133 -10 183
-34 24 -38 25 -71 8z"/>
<path d="M2205 830 c-52 -34 -65 -67 -66 -173 -2 -111 14 -150 71 -179 19 -10
29 -18 23 -18 -7 0 -32 10 -56 21 -43 21 -45 23 -57 90 -11 59 -18 73 -47 95
-36 28 -59 26 -88 -6 -15 -16 -17 -32 -12 -87 2 -38 8 -76 12 -85 5 -13 1 -19
-17 -23 -25 -6 -58 -51 -58 -78 0 -20 14 -22 220 -42 96 -9 191 -23 210 -31
20 -8 59 -12 90 -10 44 2 65 -2 102 -22 l47 -25 43 39 c24 21 50 47 59 58 14
17 21 19 40 9 13 -6 48 -14 78 -17 42 -4 61 -1 85 13 17 10 54 24 82 31 46 10
56 9 90 -8 36 -18 182 -39 226 -33 9 1 34 -10 56 -24 75 -50 154 -46 220 11
l41 35 17 -26 c24 -37 70 -58 108 -51 17 4 58 23 90 43 l59 36 81 -16 c45 -9
128 -26 186 -38 111 -24 155 -21 164 9 3 9 -3 90 -13 179 -16 148 -20 164 -42
182 -30 25 -60 26 -88 4 -20 -17 -21 -22 -11 -93 5 -41 10 -90 10 -107 l0 -33
-62 6 c-35 3 -74 9 -88 14 -14 4 -90 1 -169 -7 l-143 -14 -34 31 c-51 44 -97
42 -162 -10 -47 -38 -80 -49 -96 -33 -4 5 -49 13 -99 18 l-92 10 -20 127 c-18
113 -23 129 -47 147 -32 25 -31 25 -75 4 l-36 -17 6 -100 c3 -56 3 -94 0 -86
-3 8 -14 27 -24 42 -13 18 -19 44 -19 83 0 47 -4 60 -22 76 -28 23 -57 24 -87
3 -22 -16 -23 -21 -18 -108 3 -50 8 -100 12 -112 6 -20 4 -21 -107 -20 -113 1
-114 1 -158 -32 -42 -30 -47 -32 -105 -26 -39 4 -70 2 -83 -5 -17 -9 -27 -7
-54 8 -18 10 -48 22 -66 26 -29 6 -33 10 -28 33 3 15 8 86 11 157 l6 130 -34
22 c-33 21 -35 21 -62 3z"/>
<path d="M5639 813 c-20 -5 -48 -64 -55 -117 -8 -53 20 -91 77 -106 47 -13 54
-10 79 40 32 63 27 106 -19 151 -37 38 -48 42 -82 32z"/>
<path d="M5938 805 c-15 -8 -30 -24 -33 -36 -27 -85 93 -192 148 -131 27 29
48 90 41 117 -14 57 -95 83 -156 50z"/>
<path d="M6633 810 c-43 -17 -78 -125 -62 -186 6 -19 23 -44 39 -56 l29 -21
-28 -26 c-36 -33 -58 -122 -42 -163 11 -30 43 -54 90 -68 28 -8 33 -5 59 26
35 42 56 105 47 144 -3 15 -19 40 -34 56 l-28 28 29 94 c15 53 28 100 28 106
-1 12 -82 76 -96 75 -5 0 -19 -4 -31 -9z"/>
<path d="M4490 753 c-43 -16 -50 -33 -50 -131 l0 -94 -25 16 c-33 22 -48 20
-76 -10 -21 -23 -24 -34 -21 -92 3 -90 10 -119 30 -127 9 -3 79 -9 155 -12
113 -5 141 -4 148 8 20 32 9 56 -51 104 -62 49 -69 60 -47 67 8 3 13 39 15
118 l4 113 -29 23 c-30 25 -31 25 -53 17z"/>
<path d="M4768 709 c-23 -17 -28 -28 -28 -65 0 -47 20 -107 46 -135 13 -15 13
-16 -9 -12 -18 4 -34 -5 -65 -39 -39 -40 -42 -47 -42 -100 0 -54 1 -57 36 -79
32 -20 40 -21 70 -10 22 8 54 10 88 6 54 -7 54 -7 58 21 5 42 -8 93 -31 125
l-20 27 39 -5 c33 -5 43 -2 59 18 49 58 28 124 -66 216 -60 59 -90 66 -135 32z"/>
<path d="M6258 699 c-40 -26 -48 -37 -58 -80 -7 -27 -9 -60 -6 -74 5 -20 2
-26 -18 -31 -32 -8 -66 -76 -66 -130 0 -49 28 -80 86 -95 36 -10 40 -9 60 16
32 40 47 97 34 130 -10 27 -10 28 24 22 28 -4 38 -1 59 21 23 24 25 35 25 107
1 100 -3 112 -38 130 -40 21 -48 19 -102 -16z"/>
<path d="M1741 674 c-34 -24 -51 -75 -51 -153 l0 -70 -127 34 c-110 29 -217
44 -763 105 -349 39 -653 72 -675 73 -78 3 -131 -63 -91 -115 10 -14 162 -41
757 -138 409 -66 762 -125 783 -131 21 -6 60 -8 85 -5 25 4 72 9 104 12 39 4
60 11 66 22 5 10 10 88 12 176 l4 158 -28 24 c-33 28 -45 29 -76 8z"/>
<path d="M6900 596 c-25 -27 -39 -87 -32 -134 4 -31 28 -63 59 -80 14 -8 15
-13 4 -26 -19 -23 -5 -71 30 -100 57 -48 94 -43 123 18 23 50 20 72 -15 97
-34 24 -33 11 -12 150 5 34 3 37 -44 67 -60 38 -82 40 -113 8z"/>
<path d="M5870 573 c-45 -18 -87 -126 -70 -178 12 -36 56 -65 99 -65 25 0 34
7 58 48 19 32 28 61 28 90 0 37 -5 48 -37 78 -37 34 -49 38 -78 27z"/>
<path d="M5513 540 c-38 -23 -49 -56 -34 -103 26 -77 76 -84 138 -22 42 42 39
65 -14 113 -42 38 -48 38 -90 12z"/>
<path d="M5316 469 c-30 -24 -34 -61 -11 -116 33 -78 71 -92 124 -47 48 40 54
57 35 104 -29 73 -96 100 -148 59z"/>
<path d="M8923 472 c-22 -7 -80 -69 -101 -109 -13 -24 -16 -72 -4 -89 12 -19
49 -34 84 -34 28 0 40 9 88 67 73 89 75 91 59 120 -23 43 -73 60 -126 45z"/>
<path d="M5008 444 c-23 -7 -41 -58 -35 -103 11 -86 55 -131 135 -139 44 -4
51 -2 70 23 28 36 28 50 -4 113 -39 78 -108 122 -166 106z"/>
<path d="M9475 441 c-64 -27 -68 -88 -9 -141 61 -53 126 -36 159 43 16 39 3
72 -36 93 -30 15 -82 17 -114 5z"/>
</g>
</svg>
