<?xml version="1.0" standalone="no"?>
<!DOCTYPE svg PUBLIC "-//W3C//DTD SVG 20010904//EN"
 "http://www.w3.org/TR/2001/REC-SVG-20010904/DTD/svg10.dtd">
<svg version="1.0" xmlns="http://www.w3.org/2000/svg"
 width="1024.000000pt" height="1024.000000pt" viewBox="0 0 1024.000000 1024.000000"
 preserveAspectRatio="xMidYMid meet">
<metadata>
Created by potrace 1.10, written by Peter Selinger 2001-2011
</metadata>
<g transform="translate(0.000000,1024.000000) scale(0.100000,-0.100000)"
fill="#000000" stroke="none">
<path d="M1188 9726 c-56 -16 -125 -55 -153 -86 -31 -34 -70 -50 -122 -50
-113 0 -209 -45 -311 -143 -79 -77 -122 -151 -143 -244 l-13 -56 34 -29 c21
-17 46 -28 65 -28 27 0 42 15 133 130 65 81 113 132 127 136 13 3 70 -2 127
-11 l102 -17 27 30 c16 17 33 50 39 72 13 49 57 80 111 80 78 0 182 50 209
101 9 15 7 27 -9 52 -39 64 -130 90 -223 63z"/>
<path d="M2680 9526 c-80 -23 -151 -66 -244 -147 l-91 -79 -105 0 c-94 0 -111
-3 -165 -28 -134 -64 -230 -247 -162 -309 29 -28 104 -48 122 -33 7 6 37 47
65 90 l53 80 153 0 154 0 30 60 c55 109 172 177 323 187 78 6 79 6 104 44 32
48 27 75 -20 113 -33 26 -47 31 -105 32 -37 2 -87 -3 -112 -10z"/>
<path d="M9724 9441 c-149 -42 -201 -69 -266 -138 -44 -47 -108 -160 -121
-214 -15 -58 -59 -137 -100 -177 -43 -42 -44 -43 -73 -27 -16 8 -222 51 -457
95 l-428 80 -162 85 c-89 47 -187 92 -217 100 -30 7 -148 19 -261 26 l-205 11
-83 -35 c-213 -92 -383 -204 -675 -445 -115 -94 -214 -169 -220 -165 -20 11
-527 353 -731 493 -110 76 -240 158 -290 182 -170 86 -336 130 -537 144 -202
13 -321 -26 -555 -183 -273 -183 -543 -390 -783 -603 -98 -86 -885 -803 -946
-862 l-41 -39 -127 65 c-196 99 -383 161 -581 190 -81 12 -100 12 -200 -6
-128 -22 -234 -67 -286 -121 -19 -20 -304 -346 -634 -724 -330 -379 -619 -703
-642 -719 l-42 -30 24 -52 c13 -29 30 -52 37 -52 7 0 63 -85 123 -188 61 -103
122 -198 136 -212 l26 -26 -23 -109 c-12 -60 -20 -113 -17 -118 3 -5 -53 -6
-131 -2 -156 9 -142 19 -125 -100 l11 -75 153 0 153 0 6 -27 c2 -16 8 -73 11
-128 3 -55 8 -114 11 -130 l5 -30 -182 14 c-178 13 -184 13 -224 -7 -53 -25
-66 -62 -37 -101 23 -31 65 -38 289 -43 84 -1 153 -6 153 -9 0 -4 -35 -9 -77
-12 -98 -7 -358 -43 -373 -52 -5 -3 -10 -35 -10 -69 l0 -63 233 4 c203 4 235
7 258 23 22 16 29 16 58 4 38 -16 68 -18 73 -5 2 5 112 19 244 31 217 19 263
20 455 11 118 -6 248 -11 290 -11 l76 0 21 48 c20 44 22 70 28 388 l6 341 45
-11 c38 -8 44 -13 38 -30 -17 -60 -26 -128 -25 -191 1 -38 -8 -108 -19 -155
-13 -54 -21 -128 -22 -202 -3 -131 5 -152 65 -163 41 -8 1401 81 1446 95 50
14 105 12 148 -6 134 -56 428 -114 580 -114 l92 0 0 -39 c0 -49 33 -91 85
-109 49 -18 67 -2 90 83 17 63 27 76 40 55 26 -43 205 -86 455 -110 63 -6 167
-22 230 -36 136 -31 338 -99 361 -123 14 -15 13 -32 -17 -196 -26 -145 -32
-169 -33 -125 -1 39 -9 69 -29 105 -24 45 -36 55 -112 93 -47 23 -114 49 -150
57 -40 9 -305 28 -700 49 l-635 35 -45 -23 c-34 -17 -46 -28 -48 -48 -2 -16
-8 -25 -15 -22 -31 11 -67 -38 -159 -216 -53 -102 -112 -211 -132 -244 -50
-82 -70 -149 -71 -231 0 -94 20 -162 54 -179 14 -8 109 -37 211 -65 273 -76
253 -68 248 -103 -4 -23 2 -35 30 -59 48 -43 58 -45 236 -59 287 -23 639 -1
822 53 187 54 328 211 375 415 12 54 31 115 42 137 11 22 28 62 38 90 10 27
18 43 18 35 2 -41 -40 -243 -64 -305 -46 -123 -143 -447 -185 -621 -22 -93
-45 -182 -50 -199 -6 -16 -17 -85 -25 -151 -8 -67 -21 -137 -29 -155 -8 -19
-73 -200 -145 -402 -123 -346 -131 -373 -131 -443 l0 -74 -137 0 c-129 0 -135
1 -121 18 8 9 47 69 86 132 61 100 95 178 256 588 134 340 186 484 186 514 0
82 -49 125 -195 171 -136 42 -269 63 -935 147 -376 48 -659 88 -678 97 -62 27
-79 14 -162 -120 -59 -96 -90 -164 -147 -315 -69 -185 -120 -288 -170 -343
-13 -14 -23 -30 -23 -35 0 -6 -36 -70 -79 -143 -93 -155 -120 -227 -128 -337
-10 -139 32 -216 141 -265 47 -20 90 -24 755 -54 389 -18 681 -33 651 -34 -30
-1 -519 11 -1086 26 l-1032 27 2 67 c1 59 -2 71 -24 95 -88 95 -708 281 -1131
339 -125 17 -151 13 -190 -26 l-21 -21 -77 30 c-83 33 -222 58 -277 49 -44 -7
-94 -43 -94 -67 0 -47 22 -68 114 -110 168 -78 294 -92 536 -59 72 10 85 8
335 -46 143 -30 301 -67 350 -81 93 -27 264 -91 278 -104 4 -4 -3 -14 -17 -23
-23 -15 -38 -15 -223 9 -109 14 -218 23 -243 20 -57 -6 -117 10 -152 43 -28
25 -28 25 -28 3 0 -27 35 -26 -386 -6 l-341 17 -31 -23 c-40 -30 -44 -76 -9
-108 22 -21 65 -26 701 -86 379 -36 683 -69 689 -75 6 -6 35 -11 65 -11 29 0
126 -9 215 -19 170 -20 218 -23 812 -46 723 -28 1772 -37 2722 -25 210 3 385
2 389 -2 4 -4 1 -14 -6 -23 -7 -8 -15 -43 -17 -78 -5 -61 -4 -65 28 -101 l33
-38 -50 7 c-63 9 -74 23 -67 89 5 49 4 54 -27 79 -17 15 -42 27 -55 27 -46 0
-125 -89 -125 -140 0 -11 -3 -20 -7 -20 -5 0 -111 12 -238 26 -326 36 -494 43
-1052 43 -331 1 -630 7 -920 21 -235 11 -986 45 -1668 76 -1364 61 -1382 61
-1451 9 -30 -23 -35 -31 -29 -54 11 -44 39 -64 97 -68 29 -2 1158 -51 2508
-108 1350 -57 2505 -107 2566 -110 l111 -7 -8 -36 c-12 -52 -1 -99 28 -122 34
-27 132 -28 156 -2 28 31 37 67 26 107 -6 20 -9 38 -7 40 2 2 57 -8 123 -21
77 -16 135 -23 161 -19 39 6 43 9 61 58 l20 52 -21 27 c-11 15 -29 27 -40 27
-13 1 -16 6 -11 19 47 113 50 149 18 200 l-14 23 48 -7 c26 -3 49 -8 51 -9 1
-1 -5 -21 -13 -45 -30 -86 -13 -149 47 -174 l29 -13 -25 -16 c-31 -20 -44 -91
-28 -146 23 -74 108 -124 145 -83 9 10 28 56 41 102 l24 83 -38 34 -38 34 19
50 c21 54 24 95 10 132 l-10 24 88 -5 87 -5 27 32 c34 40 34 49 -1 90 -27 33
-29 33 -247 72 -121 21 -221 38 -222 39 -1 0 -7 16 -13 36 -16 48 -76 114
-104 114 -33 0 -73 -48 -81 -97 l-7 -43 -177 0 c-98 0 -220 3 -271 7 l-92 6 7
51 c8 62 11 66 31 38 19 -28 47 -28 90 -1 66 41 70 82 14 133 -43 39 -51 41
-81 25 -19 -10 -20 -8 -13 28 13 70 74 287 109 383 57 156 86 219 164 348 56
92 79 122 94 122 25 0 1191 -97 1264 -105 l51 -6 -14 -34 c-25 -60 -18 -160
17 -247 l31 -77 -28 -56 c-15 -31 -29 -79 -32 -106 l-5 -50 -37 36 c-46 45
-72 41 -117 -20 -52 -70 -54 -144 -4 -182 9 -7 36 -12 61 -12 43 0 46 1 77 52
28 45 32 49 33 26 0 -15 -11 -35 -26 -50 -33 -31 -62 -87 -69 -136 -5 -32 -2
-43 22 -71 26 -31 38 -35 168 -63 140 -29 141 -29 379 -23 231 7 238 7 233
-12 -3 -10 -20 -86 -38 -169 -20 -98 -38 -157 -50 -171 -12 -13 -19 -35 -19
-63 0 -23 -9 -60 -20 -81 -11 -22 -28 -75 -36 -118 -10 -46 -26 -90 -40 -109
-17 -22 -24 -45 -24 -75 0 -30 -6 -51 -20 -66 -11 -12 -20 -28 -20 -37 0 -9
-38 -95 -85 -192 -94 -194 -100 -223 -59 -272 22 -27 32 -31 74 -31 l49 0 85
157 c149 278 298 737 386 1188 11 61 28 127 37 147 8 20 13 44 10 52 -3 8 3
88 14 178 11 90 18 180 15 201 -25 156 -209 287 -404 287 -99 0 -154 -46 -130
-110 12 -32 14 -33 158 -81 69 -22 132 -49 140 -59 37 -41 44 -93 30 -219 -7
-66 -16 -124 -19 -130 -4 -5 -75 -17 -159 -27 -138 -15 -154 -15 -170 -1 -9 8
-39 24 -67 35 -45 18 -50 23 -50 50 0 26 -10 39 -60 79 -57 46 -60 51 -63 97
-2 31 2 54 11 65 28 32 87 139 87 157 0 10 -25 51 -56 91 -53 69 -56 76 -50
114 4 25 22 59 46 90 52 66 52 96 0 171 l-41 57 20 40 c18 34 94 111 110 111
4 0 34 -26 67 -57 68 -65 143 -106 236 -128 93 -22 112 -20 142 16 42 49 35
72 -36 122 -109 78 -272 132 -323 109 -22 -10 -25 -9 -25 6 0 10 -18 36 -40
57 -22 21 -40 44 -40 50 0 18 48 58 82 70 36 12 68 64 68 112 0 26 9 38 48 70
39 30 61 61 107 148 32 61 77 139 100 175 94 143 155 275 205 446 26 87 32 98
124 208 l96 116 108 -2 c96 -1 113 -4 165 -30 90 -44 154 -89 257 -178 124
-106 127 -108 141 -73 6 15 22 57 35 92 l24 64 -20 23 -21 22 54 76 c29 42 73
121 97 175 24 55 45 99 47 97 6 -5 -220 -653 -238 -682 -10 -17 -69 -179 -130
-359 -61 -181 -121 -342 -134 -359 -12 -17 -26 -44 -29 -61 -4 -16 -14 -37
-21 -45 -38 -43 -91 -235 -101 -370 l-7 -86 52 -39 c39 -30 51 -45 51 -66 0
-31 16 -39 133 -65 l77 -18 -21 -22 c-24 -25 -49 -117 -49 -179 0 -56 -12 -72
-42 -58 -52 23 -116 -14 -104 -60 9 -38 44 -75 76 -82 l30 -7 0 -181 c-1 -139
-4 -188 -15 -207 -8 -14 -14 -41 -15 -61 0 -35 -1 -36 -46 -43 -67 -9 -114 -7
-114 3 0 5 -18 17 -40 27 -22 10 -40 25 -40 33 0 9 13 84 30 166 34 171 36
211 15 282 -17 57 -86 133 -120 133 -12 0 -33 -13 -48 -28 l-27 -28 0 -171 c0
-98 -7 -231 -17 -314 -32 -271 -19 -1196 19 -1302 17 -47 62 -96 106 -114 40
-17 40 -17 -62 -98 -76 -61 -86 -78 -65 -118 37 -72 93 -87 151 -40 18 16 35
31 36 36 2 4 28 19 58 33 59 28 100 73 110 120 5 24 0 36 -24 62 -17 18 -39
32 -50 32 -18 0 -20 5 -16 32 5 26 -1 42 -25 75 -17 24 -31 53 -31 65 0 13
-10 52 -22 88 -20 61 -21 90 -26 462 l-4 397 38 -20 c48 -24 117 -24 169 0
l41 18 -4 -426 c-3 -323 -7 -431 -17 -446 -35 -56 -26 -162 18 -203 35 -33 87
-46 107 -27 15 14 96 11 756 -25 406 -22 754 -43 772 -46 l34 -5 -47 -50 c-52
-56 -55 -81 -14 -111 26 -20 26 -20 78 2 43 19 54 30 72 69 11 25 18 56 16 68
-5 25 9 33 54 33 l29 0 0 80 c0 44 -4 80 -8 80 -4 0 -130 16 -280 35 l-272 35
-570 -2 -571 -3 6 90 c3 50 22 430 40 845 l35 755 31 115 c18 67 28 126 25
142 -4 18 -1 28 7 28 6 0 341 -23 742 -51 641 -45 732 -53 750 -69 11 -10 30
-21 43 -25 22 -6 22 -5 22 94 l0 100 -27 1 c-52 0 -213 12 -213 15 0 2 11 23
25 46 36 64 50 134 36 186 -11 41 -68 113 -89 113 -19 0 -79 -59 -96 -94 -8
-18 -17 -53 -19 -77 -1 -24 -11 -57 -22 -73 -11 -17 -20 -47 -20 -69 l0 -39
-40 6 c-22 3 -256 28 -520 56 -601 63 -552 55 -560 91 -12 52 -67 73 -130 49
-23 -9 -34 -5 -85 30 l-60 40 29 78 c99 270 704 1898 707 1901 2 2 53 6 115 9
l111 5 -7 -33 c-4 -18 -37 -88 -73 -154 -57 -105 -66 -128 -66 -174 -1 -47 3
-57 27 -77 15 -13 43 -27 63 -31 46 -9 62 8 98 101 15 39 46 101 68 138 48 80
60 147 35 196 l-15 31 128 0 129 0 -35 -51 c-20 -30 -47 -94 -65 -153 -17 -55
-55 -176 -86 -268 -30 -92 -53 -173 -50 -180 2 -7 -4 -23 -15 -35 -11 -11 -21
-38 -23 -60 -2 -21 -38 -120 -80 -221 -94 -227 -98 -279 -25 -317 39 -20 83
-19 103 3 8 9 56 135 105 279 50 143 102 290 117 325 14 34 58 162 97 283 40
121 82 234 94 250 33 44 38 78 20 114 l-17 31 79 0 c114 0 172 -9 172 -28 0
-8 -11 -29 -24 -46 -15 -21 -40 -93 -71 -206 -26 -96 -58 -206 -71 -245 -13
-38 -24 -90 -23 -115 1 -33 -17 -91 -65 -220 -37 -96 -69 -194 -73 -217 -10
-76 22 -120 103 -137 50 -11 65 19 118 230 39 155 52 192 78 225 24 30 33 52
35 87 1 26 18 88 37 137 l35 90 1 293 c0 160 -3 292 -7 292 -5 1 -147 14 -318
29 l-310 28 -240 -29 c-140 -16 -259 -26 -286 -22 -40 5 -50 2 -77 -21 -21
-18 -36 -43 -43 -71 -6 -24 -15 -46 -18 -49 -4 -2 2 29 12 68 28 103 34 292
13 394 -20 98 -20 93 3 93 13 0 25 15 40 49 28 65 26 97 -7 151 l-27 45 0 255
0 255 -28 47 c-42 72 -97 99 -126 64 -18 -21 -31 -164 -31 -346 l-1 -165 -65
70 c-54 59 -64 74 -60 97 3 15 8 74 12 132 9 133 -3 181 -62 244 l-44 47 -18
-22 c-11 -12 -25 -49 -31 -83 -9 -45 -15 -58 -25 -53 -7 5 -64 56 -127 115
-104 98 -111 107 -89 112 14 2 421 32 905 66 853 60 881 63 897 83 39 50 43
66 22 94 -48 63 -116 86 -196 64 -24 -6 -289 -34 -590 -61 -437 -40 -588 -50
-750 -50 -187 -1 -213 -3 -328 -29 -124 -29 -178 -48 -213 -75 -18 -14 -17
-16 4 -58 31 -61 190 -215 272 -262 43 -25 89 -64 128 -108 l61 -68 -6 -54 -7
-53 44 -26 c51 -30 114 -96 150 -158 15 -24 56 -136 92 -248 l67 -204 -4 -161
c-3 -161 -10 -197 -54 -304 -8 -18 -14 -40 -14 -48 0 -11 -155 -263 -186 -303
-2 -2 -25 10 -51 27 -62 40 -212 110 -252 118 -30 6 -31 8 -17 28 8 13 24 56
36 97 12 40 31 85 41 98 11 13 19 34 19 48 0 13 7 40 16 61 26 61 54 193 54
252 0 110 -48 245 -118 332 -28 35 -29 40 -20 93 16 101 -19 222 -89 310 -15
20 -74 73 -129 120 -150 124 -261 272 -330 435 -44 103 -117 196 -197 247 -55
36 -67 48 -62 64 9 26 -11 82 -36 105 -44 40 -139 11 -139 -43 l0 -23 -145 0
c-154 0 -178 -6 -257 -62 -27 -18 -28 -18 -28 -1 -1 20 -104 103 -129 103 -37
0 -61 -29 -61 -75 0 -40 4 -47 37 -70 22 -14 52 -25 70 -25 29 0 32 -2 24 -17
-5 -10 -32 -58 -60 -108 -53 -95 -105 -237 -117 -320 l-7 -49 -36 40 c-20 23
-88 75 -152 116 -112 73 -117 78 -171 164 -31 49 -64 105 -73 124 -46 91 -122
156 -215 184 -92 27 -147 19 -257 -42 -49 -26 -328 -435 -415 -606 -43 -85
-114 -263 -144 -358 -10 -32 -20 -58 -23 -58 -7 0 -211 513 -211 531 0 9 22
10 88 5 l87 -7 17 43 c10 24 21 69 24 101 6 54 10 60 48 86 23 16 52 41 66 56
14 14 67 47 120 72 184 88 279 222 309 434 11 80 -6 127 -79 224 -62 81 -110
175 -144 279 -30 93 -71 160 -132 215 -24 23 -44 49 -44 59 0 30 -56 109 -100
141 -43 31 -114 51 -181 51 -36 0 -49 -8 -109 -61 -63 -56 -70 -66 -90 -132
-22 -71 -90 -178 -220 -347 -120 -156 -213 -403 -212 -567 0 -40 -3 -53 -14
-53 -27 0 -170 -104 -221 -160 -229 -253 -438 -552 -590 -846 l-73 -141 0 -88
c0 -147 39 -257 125 -352 67 -75 150 -127 237 -148 40 -10 91 -26 113 -35 22
-10 79 -26 128 -35 l87 -18 -5 -31 c-3 -17 -14 -72 -23 -122 l-17 -91 -325 73
c-309 69 -326 74 -352 104 -22 24 -28 40 -28 78 0 73 -25 173 -60 242 -22 43
-30 73 -28 98 3 34 6 37 42 43 44 7 68 33 85 90 37 122 -21 386 -117 535 l-38
59 42 -3 c36 -3 45 0 59 21 11 18 29 28 58 32 23 4 45 12 49 18 4 6 16 2 33
-12 30 -23 74 -27 106 -11 40 22 18 129 -35 163 -39 26 -96 -5 -96 -52 0 -25
0 -25 -39 13 -43 42 -66 43 -99 1 -14 -17 -22 -21 -35 -13 -13 7 -27 4 -50 -9
-27 -16 -32 -25 -32 -55 l0 -36 -55 52 c-30 28 -77 66 -105 83 -55 35 -175 78
-245 88 l-46 7 -18 65 c-24 82 -99 168 -184 210 -50 24 -71 28 -167 31 -94 3
-118 1 -168 -18 -32 -12 -75 -36 -94 -53 -38 -34 -72 -97 -73 -134 0 -21 -5
-23 -54 -23 -47 0 -58 -4 -75 -26 -11 -14 -21 -30 -23 -36 -3 -9 -28 -7 -90 6
-81 17 -92 17 -187 2 -56 -9 -115 -16 -130 -16 l-29 0 5 64 c7 82 -8 123 -60
167 l-42 35 -163 12 c-142 10 -168 10 -200 -4 -51 -21 -89 -60 -108 -110 -15
-39 -15 -47 -1 -88 l16 -46 -37 0 c-42 0 -102 -45 -102 -76 0 -10 -8 -27 -19
-38 -10 -12 -60 -86 -111 -166 -52 -80 -99 -149 -107 -153 -7 -4 -13 -16 -13
-26 0 -18 -48 -131 -55 -131 -2 0 -45 51 -96 113 -51 61 -113 135 -137 164
l-44 52 56 28 c51 25 103 81 600 649 578 660 593 675 730 732 49 20 83 26 173
30 134 5 213 -11 324 -66 41 -21 412 -241 824 -490 674 -406 756 -453 810
-462 132 -23 119 -24 150 20 15 22 26 42 24 44 -3 3 -916 587 -1166 746 l-42
27 701 634 c385 349 717 649 737 667 99 92 242 183 368 233 119 48 237 69 392
69 l133 0 122 -58 c139 -67 1142 -690 1129 -702 -4 -4 -72 -56 -150 -114 -130
-96 -143 -109 -143 -136 0 -66 43 -110 92 -94 50 15 377 244 431 301 31 33 85
76 120 96 35 21 115 83 178 138 170 151 370 289 549 379 59 30 61 30 229 30
l169 0 193 -90 194 -89 295 -61 c314 -65 401 -88 489 -126 l54 -24 -50 -38
c-27 -20 -196 -205 -376 -411 -304 -348 -339 -384 -521 -543 -192 -166 -196
-170 -196 -208 0 -26 8 -48 24 -66 l23 -28 46 18 c73 28 245 147 339 235 47
45 128 136 179 204 263 347 561 657 833 863 67 52 106 103 126 169 39 126 144
261 246 317 45 24 66 28 205 37 175 11 162 15 283 -83 31 -25 58 -46 61 -46 3
0 5 61 5 135 l0 135 -47 24 c-139 70 -269 75 -469 17z m-4550 -1539 c102 -137
111 -152 128 -225 22 -93 61 -159 147 -242 l61 -60 0 -65 c0 -79 -30 -148 -86
-201 -71 -66 -242 -188 -298 -213 l-56 -25 0 62 c0 34 -3 73 -7 86 -6 24 -6
24 18 8 37 -26 90 -21 136 12 92 67 108 128 49 187 -19 19 -44 34 -57 34 -36
0 -136 -96 -153 -145 l-13 -40 -8 33 c-4 21 -3 38 4 45 6 6 11 36 11 67 l0 57
60 16 c94 27 160 96 188 199 11 42 7 50 -48 91 -34 25 -37 25 -65 11 -45 -23
-83 -63 -96 -101 -16 -49 -29 -40 -29 21 0 74 -23 133 -71 182 -34 35 -45 41
-67 35 -14 -4 -35 -19 -46 -34 -18 -24 -20 -40 -18 -131 l3 -103 -75 20 c-41
11 -74 23 -72 26 1 3 67 121 146 263 132 236 160 276 195 277 6 0 59 -66 119
-147z m-444 -601 c25 -11 62 -23 83 -26 35 -7 37 -9 37 -45 0 -36 -2 -39 -38
-45 -20 -3 -55 -16 -77 -29 -37 -21 -40 -25 -37 -62 2 -29 10 -46 33 -65 30
-26 89 -49 128 -49 11 0 21 -4 21 -9 0 -4 -58 4 -130 18 -119 24 -132 29 -160
60 l-31 33 10 102 c6 64 17 119 31 150 l22 48 31 -30 c18 -17 52 -40 77 -51z
m-153 -446 c80 -50 80 -50 75 -87 -3 -25 2 -50 17 -80 11 -25 21 -49 21 -54 0
-30 144 -462 160 -479 10 -11 43 -68 73 -127 89 -175 98 -284 32 -416 -30 -59
-40 -70 -87 -94 -133 -67 -257 -98 -396 -98 l-93 0 7 38 c4 20 8 38 9 40 1 1
19 -5 41 -14 53 -22 121 -12 209 32 127 62 185 127 163 184 -13 35 -58 80 -80
80 -10 0 -50 -16 -88 -35 -64 -32 -220 -88 -227 -81 -2 1 0 30 3 63 l7 61 51
6 c112 13 293 138 314 217 15 56 -15 121 -71 150 -23 13 -94 -38 -154 -109
-35 -42 -51 -52 -105 -67 l-62 -17 -41 45 c-40 46 -40 46 -62 27 -13 -10 -23
-25 -23 -34 0 -20 -1 -20 -48 -1 -31 13 -40 23 -55 65 -31 87 -91 140 -160
140 -29 0 -37 -5 -48 -32 -21 -50 -17 -136 10 -187 30 -57 106 -138 153 -162
20 -10 53 -19 72 -19 l36 0 -6 -47 c-12 -104 -3 -104 -117 -6 -56 49 -110 94
-119 101 -24 19 -55 6 -74 -30 -14 -27 -14 -35 5 -97 35 -116 109 -194 217
-228 40 -12 54 -22 54 -35 0 -17 -2 -17 -22 -4 -13 7 -52 19 -87 26 -74 13
-193 57 -255 94 -93 54 -156 158 -156 257 0 94 20 139 153 337 71 106 190 273
266 372 110 144 159 199 250 279 104 91 116 99 136 88 12 -7 58 -34 102 -62z
m1401 -81 c34 -30 86 -92 116 -137 66 -100 91 -123 180 -171 143 -77 229 -159
290 -276 50 -96 69 -176 70 -301 1 -102 0 -107 -36 -180 -101 -202 -300 -373
-542 -464 l-65 -24 15 35 c9 20 13 43 10 50 -4 11 8 14 58 14 72 0 116 15 196
70 113 77 127 158 39 220 -38 28 -56 21 -139 -51 l-57 -50 -57 7 -56 7 0 91
c0 50 4 96 8 102 4 6 32 19 62 28 74 21 142 63 216 130 102 92 115 167 43 242
-40 41 -37 42 -188 -88 l-115 -99 -11 44 c-23 90 -86 162 -134 151 -52 -13
-60 -29 -63 -129 l-3 -93 -113 79 c-62 43 -117 79 -122 79 -21 0 -70 -53 -70
-77 0 -91 132 -218 273 -263 l38 -12 -7 -81 c-3 -45 -8 -84 -10 -86 -1 -2 -31
6 -65 18 -35 12 -76 21 -91 21 -34 0 -78 -39 -78 -69 0 -11 -3 -26 -6 -35 -9
-22 100 -98 174 -120 54 -17 63 -23 72 -52 12 -36 71 -93 98 -95 9 0 -39 -12
-108 -25 l-124 -23 -61 29 c-77 38 -164 60 -236 60 l-56 0 -16 78 c-44 210
-45 307 -6 508 61 320 256 673 502 912 46 45 91 82 99 82 8 0 42 -25 76 -56z
m1349 26 c137 -32 146 -41 241 -232 l82 -164 114 -110 c63 -60 151 -143 194
-184 154 -145 183 -279 93 -422 -44 -70 -230 -193 -401 -268 -93 -40 -110 -44
-110 -27 0 8 -20 42 -44 75 l-44 59 68 6 c43 4 89 15 124 32 91 43 186 165
172 221 -7 25 -59 64 -86 64 -8 0 -77 -48 -153 -106 l-140 -106 7 59 c14 116
13 115 77 158 60 40 207 184 228 223 10 19 6 25 -43 57 l-54 36 -107 -77 -107
-76 -36 34 c-55 51 -75 43 -97 -38 -9 -35 -21 -67 -26 -70 -13 -8 -92 52 -127
95 -54 67 -81 132 -79 192 1 63 -19 101 -63 119 -44 18 -63 9 -90 -45 -19 -38
-25 -65 -25 -115 1 -91 65 -234 135 -301 65 -63 130 -93 181 -86 l39 5 0 -82
c0 -46 -2 -85 -5 -88 -3 -3 -22 3 -43 13 -41 21 -80 24 -132 9 -24 -7 -44 -6
-67 2 -49 18 -98 -8 -114 -60 -10 -35 -9 -42 12 -74 17 -27 36 -40 74 -52 106
-33 209 -11 252 53 l16 25 14 -55 c17 -66 53 -123 95 -149 31 -19 31 -19 7
-24 -13 -3 -74 -10 -135 -17 -106 -11 -113 -10 -140 9 -16 11 -53 25 -82 31
-87 18 -202 86 -202 120 0 9 16 65 35 125 41 127 42 154 14 271 -31 132 -49
286 -49 427 0 119 2 133 30 204 42 104 64 146 127 242 l54 82 114 0 c80 0 141
-6 202 -20z m-2458 -27 c-1 -21 -4 -49 -8 -62 -6 -21 -8 -17 -19 29 -10 43
-10 55 0 62 23 14 28 9 27 -29z m-3558 -43 c38 0 39 -1 39 -36 l0 -37 -61 7
c-34 3 -84 6 -110 6 -52 0 -55 3 -39 46 10 26 12 27 72 20 33 -3 78 -6 99 -6z
m1211 -17 c35 -12 50 -24 57 -45 12 -34 20 -33 -149 -13 -69 8 -126 15 -127
15 -6 0 -2 47 4 53 14 14 168 7 215 -10z m-107 -214 c166 -12 287 -32 447 -70
l126 -30 59 -72 c73 -89 218 -362 228 -428 l7 -46 -139 -7 c-76 -4 -208 -11
-293 -16 -166 -10 -735 -12 -710 -3 45 17 40 71 -10 117 -47 43 -63 44 -95 11
-32 -31 -31 -56 1 -94 l26 -31 -70 0 c-111 0 -158 9 -171 34 -10 18 7 65 124
337 l136 316 102 -4 c56 -2 161 -8 232 -14z m-1200 -9 c135 -11 327 -20 439
-20 185 0 198 -1 191 -17 -27 -72 -152 -353 -165 -373 -10 -14 -28 -57 -40
-96 l-23 -71 -156 -7 c-91 -4 -213 -17 -292 -32 -76 -13 -142 -24 -148 -24 -7
0 -11 22 -11 55 0 51 -2 55 -32 71 -44 23 -89 20 -110 -7 -20 -24 -25 -113 -7
-125 8 -4 7 -9 -2 -15 -27 -17 -39 -9 -39 25 0 27 -7 39 -34 60 -28 21 -39 24
-60 16 -34 -12 -49 -45 -43 -91 l5 -39 -59 0 -59 0 17 28 c9 15 29 41 43 58
17 22 345 614 345 624 0 0 108 -9 240 -20z m357 -775 c3 -3 -3 -28 -12 -56
-15 -45 -17 -81 -12 -290 l5 -239 -27 0 c-37 0 -726 -38 -807 -45 l-67 -5 -11
78 c-6 43 -11 144 -10 223 1 113 -2 153 -15 183 -9 22 -15 41 -13 42 5 5 875
111 923 113 22 0 43 -1 46 -4z m1582 -79 c-5 -33 -1 -59 14 -98 20 -50 61
-323 50 -333 -6 -7 -407 -80 -557 -102 -159 -23 -438 -23 -591 1 -63 9 -116
18 -117 20 -1 1 10 76 24 166 15 91 27 208 27 262 l1 96 35 6 c19 3 112 1 205
-5 185 -12 491 -5 695 15 69 7 146 14 172 15 l48 1 -6 -44z m5094 -129 c32
-60 35 -74 36 -154 0 -105 -20 -180 -68 -251 -19 -28 -36 -68 -39 -93 -3 -24
-21 -73 -39 -109 l-33 -65 -73 0 -72 0 -169 -169 -169 -169 -51 39 -50 39 -1
225 c0 124 -5 256 -10 295 -5 38 -7 71 -5 73 1 2 45 14 96 26 135 34 247 80
336 138 85 56 187 148 229 209 15 22 32 38 38 36 5 -2 25 -33 44 -70z m-3107
-134 l-10 -137 27 -48 c22 -39 40 -55 93 -83 36 -19 92 -41 125 -50 59 -15
184 -18 239 -6 26 6 36 2 72 -31 25 -22 60 -42 87 -49 l46 -11 0 -177 c0 -107
-6 -211 -15 -266 -8 -49 -15 -127 -15 -171 0 -79 -1 -82 -25 -88 -42 -11 -93
-64 -114 -119 -57 -151 -224 -535 -247 -568 -25 -37 -26 -44 -20 -111 5 -55
12 -78 29 -96 28 -31 70 -52 100 -52 14 0 40 -15 63 -36 80 -76 170 -94 484
-94 107 0 353 -3 547 -7 l352 -6 -26 -31 c-35 -42 -63 -104 -63 -144 l0 -33
-47 6 c-56 7 -1074 64 -1183 67 -51 1 -82 -3 -97 -12 -19 -12 -27 -12 -43 -2
-11 6 -26 12 -35 12 -21 0 -166 -225 -235 -364 -91 -187 -152 -378 -190 -594
-10 -56 -23 -109 -30 -117 -18 -22 -16 -125 4 -162 l17 -33 -111 0 c-123 0
-117 -5 -99 82 12 59 35 125 61 177 10 20 18 42 18 51 0 9 6 24 13 35 31 45
74 189 222 749 86 323 168 618 182 654 63 169 118 371 152 557 11 61 36 172
55 248 20 76 36 155 36 176 0 46 -24 118 -49 146 -10 11 -26 41 -35 67 -22 59
-89 121 -154 142 -26 9 -240 52 -476 96 -236 45 -442 88 -457 96 -15 8 -37 14
-49 14 -24 0 -24 4 -3 108 14 68 20 82 36 82 11 0 85 5 166 11 130 9 159 15
261 51 63 22 130 50 149 61 61 37 145 113 171 155 23 37 25 38 28 16 2 -13 -1
-86 -7 -161z m1582 -69 c94 -101 212 -142 465 -164 149 -13 153 -14 148 -35
-15 -58 -28 -283 -23 -386 l6 -117 -32 -6 c-18 -3 -207 -10 -422 -15 -456 -11
-530 -22 -698 -101 l-48 -23 6 -41 c13 -76 -26 -72 547 -53 282 10 541 20 576
24 56 5 62 4 62 -13 0 -32 36 -80 73 -97 52 -25 74 -22 81 11 26 107 23 102
70 102 27 0 48 6 56 15 23 28 20 9 -9 -56 -15 -35 -34 -87 -40 -115 -9 -36
-32 -78 -78 -140 -40 -55 -95 -151 -143 -251 -54 -111 -84 -163 -98 -167 -40
-13 -71 -47 -78 -84 -5 -25 -24 -56 -61 -96 -30 -32 -64 -79 -76 -102 -15 -31
-27 -44 -41 -44 -12 0 -322 16 -691 36 -712 38 -695 36 -695 85 0 9 72 172
160 360 l161 344 110 105 c60 58 109 110 109 116 0 7 -22 26 -49 44 -47 29
-50 34 -56 83 -3 29 -5 153 -3 276 l3 224 315 188 315 189 15 -22 c8 -13 36
-46 63 -74z m-2483 -864 c487 -45 550 -52 700 -87 l165 -39 3 -56 c3 -48 -4
-75 -43 -175 -25 -64 -50 -122 -55 -128 -5 -6 -19 -40 -30 -76 -29 -94 -99
-208 -151 -245 -71 -51 -154 -62 -536 -70 l-332 -7 8 31 c16 53 -7 62 -294
126 -143 32 -266 63 -272 68 -7 6 -13 18 -13 28 0 35 116 279 177 372 35 53
70 113 78 132 20 48 19 104 -3 147 l-18 36 40 -4 c23 -2 282 -26 576 -53z
m1057 -242 c-3 -8 -6 -5 -6 6 -1 11 2 17 5 13 3 -3 4 -12 1 -19z m-10 -60 c-3
-8 -6 -5 -6 6 -1 11 2 17 5 13 3 -3 4 -12 1 -19z m-1337 -1043 c421 -58 766
-105 767 -105 1 0 -10 -24 -25 -52 -15 -29 -111 -264 -212 -522 l-185 -468
-545 6 -545 7 -319 65 c-176 35 -321 65 -322 67 -6 7 168 362 194 394 42 53
88 134 118 206 27 65 209 468 226 500 8 15 17 17 46 13 20 -4 381 -54 802
-111z m223 -1322 c-29 -2 -78 -2 -110 0 -32 2 -8 3 52 3 61 0 87 -1 58 -3z"/>
<path d="M1891 5991 c-17 -5 -28 -19 -38 -46 -17 -49 -12 -61 31 -82 29 -13
40 -14 61 -5 29 13 64 78 49 90 -30 28 -81 48 -103 43z"/>
<path d="M6272 4255 c-26 -22 -31 -23 -50 -9 -20 13 -26 13 -58 -2 -20 -9 -38
-24 -41 -31 -9 -24 15 -87 44 -115 44 -42 72 -44 112 -8 29 27 40 31 79 28 41
-3 48 0 61 24 16 27 15 28 -39 83 -30 30 -60 55 -66 55 -7 0 -26 -11 -42 -25z"/>
<path d="M6605 4272 c-40 -8 -57 -34 -52 -75 9 -66 55 -102 117 -92 33 6 41
12 50 41 6 18 10 43 8 54 -4 25 -94 78 -123 72z"/>
<path d="M7072 4220 c-29 -18 -32 -24 -32 -68 0 -38 5 -53 23 -70 36 -34 96
-27 98 12 1 13 3 15 6 5 4 -17 103 -42 116 -29 5 4 11 34 14 66 5 57 4 60 -26
79 -34 22 -57 21 -83 -2 -18 -16 -29 -14 -63 12 -18 13 -24 12 -53 -5z"/>
<path d="M6859 4026 c-28 -19 -34 -28 -31 -55 2 -28 0 -31 -16 -22 -14 7 -28
5 -53 -8 -28 -15 -35 -25 -37 -54 -8 -96 97 -163 138 -87 5 10 10 30 10 45 0
22 3 24 19 15 31 -16 56 -12 80 14 19 21 22 31 16 62 -8 48 -31 81 -65 99 -26
13 -31 12 -61 -9z"/>
<path d="M6416 3937 c-73 -73 34 -177 137 -133 66 27 60 103 -10 132 -69 29
-99 29 -127 1z"/>
<path d="M6045 3882 c-12 -8 -35 -57 -35 -73 0 -24 54 -59 90 -59 41 0 55 11
65 52 6 23 1 31 -36 57 -42 31 -65 37 -84 23z"/>
<path d="M7025 3823 c-30 -7 -45 -32 -45 -74 0 -29 7 -43 31 -63 33 -28 45
-31 82 -17 20 8 26 19 32 59 11 83 -21 114 -100 95z"/>
<path d="M6390 3803 c-55 -20 -67 -78 -24 -112 46 -36 94 -23 113 29 12 37 0
63 -36 79 -26 12 -30 12 -53 4z"/>
<path d="M5997 3729 c-15 -11 -32 -38 -39 -61 -12 -40 -11 -41 20 -69 58 -52
107 -28 117 56 6 49 5 51 -29 73 -43 27 -38 26 -69 1z"/>
<path d="M6574 3673 c-14 -3 -27 -18 -36 -42 -14 -34 -14 -40 1 -58 53 -68
141 -49 141 30 0 28 -6 37 -39 55 -21 12 -40 21 -42 21 -2 -1 -14 -4 -25 -6z"/>
<path d="M3933 4359 c-30 -11 -55 -52 -46 -74 5 -15 3 -15 -15 3 -39 39 -104
21 -127 -35 -13 -31 -12 -33 16 -58 48 -39 102 -31 120 19 l12 32 28 -28 c45
-46 103 -33 114 26 13 64 -50 135 -102 115z"/>
<path d="M4272 4304 c-17 -12 -22 -25 -22 -59 0 -57 7 -73 41 -90 42 -22 68
-18 100 16 16 17 29 26 29 20 0 -18 62 -51 97 -51 54 0 82 68 48 116 -36 52
-133 56 -158 8 l-14 -26 -35 41 c-38 45 -52 49 -86 25z"/>
<path d="M3782 3944 c-13 -9 -22 -26 -22 -40 l0 -25 -29 20 c-36 26 -42 26
-76 -1 -24 -18 -27 -26 -22 -61 3 -21 16 -50 29 -64 20 -22 29 -24 73 -20 36
3 53 10 63 26 11 15 25 21 53 21 33 0 41 4 49 26 17 44 11 74 -19 105 -33 32
-65 37 -99 13z"/>
<path d="M4544 3820 c-30 -12 -38 -29 -35 -72 3 -43 -2 -45 -42 -19 -34 22
-61 17 -87 -17 -27 -34 -25 -57 6 -81 48 -38 106 -18 119 40 7 33 2 34 73 -19
l30 -22 32 27 c30 24 32 30 27 72 -4 34 -13 52 -36 73 -32 29 -51 33 -87 18z"/>
<path d="M3795 3005 c-14 -13 -25 -32 -25 -42 0 -13 -9 -8 -38 20 l-37 37 -33
-20 c-28 -17 -32 -25 -32 -60 0 -58 37 -95 88 -86 20 3 42 12 47 20 9 12 15
10 34 -10 31 -33 83 -32 116 1 14 13 25 30 25 37 0 21 -89 128 -106 128 -8 0
-26 -11 -39 -25z"/>
<path d="M3326 2969 c-21 -16 -26 -29 -26 -64 0 -58 26 -89 73 -89 20 0 40 3
44 7 4 4 9 34 11 66 4 54 2 59 -23 79 -34 27 -45 27 -79 1z"/>
<path d="M4336 2900 c-22 -26 -29 -29 -46 -20 -21 12 -45 3 -74 -26 -34 -34
-10 -102 44 -124 42 -18 89 3 97 41 5 25 10 29 38 29 36 0 60 21 70 62 6 24 2
29 -34 47 -53 28 -65 27 -95 -9z"/>
<path d="M3132 2877 c-15 -16 -22 -36 -22 -63 0 -79 87 -124 154 -81 38 25 32
55 -24 115 -54 57 -76 63 -108 29z"/>
<path d="M3719 2707 c-13 -7 -30 -25 -37 -40 -13 -27 -15 -28 -37 -13 -34 22
-58 20 -83 -7 -32 -34 -29 -82 8 -119 28 -27 36 -30 77 -25 52 6 77 29 70 65
-4 20 0 22 34 22 28 0 42 6 53 22 26 37 20 61 -22 85 -33 18 -42 20 -63 10z"/>
<path d="M4063 2340 c-37 -15 -54 -51 -43 -89 15 -53 37 -71 87 -71 38 0 45 3
54 27 16 43 3 89 -35 118 -18 14 -35 25 -37 24 -2 0 -14 -4 -26 -9z"/>
<path d="M3180 2228 c-26 -43 -25 -72 2 -98 44 -40 108 -19 123 40 5 22 -1 31
-34 58 -50 40 -66 40 -91 0z"/>
<path d="M3880 2218 c-25 -28 -26 -58 0 -91 38 -48 128 -58 150 -17 19 35 10
56 -40 93 -57 43 -81 46 -110 15z"/>
<path d="M3033 2193 c-33 -6 -53 -39 -43 -71 15 -52 23 -64 46 -73 79 -29 136
57 83 125 -20 25 -36 29 -86 19z"/>
<path d="M9881 8601 c-59 -55 -34 -139 68 -231 l66 -60 67 0 c58 0 69 3 82 22
35 49 23 71 -96 188 -72 69 -121 110 -134 110 -12 0 -36 -13 -53 -29z"/>
<path d="M7422 8573 c-6 -3 -51 -57 -99 -121 -222 -300 -512 -610 -773 -827
-163 -136 -520 -495 -520 -523 0 -36 52 -82 92 -82 28 0 43 11 103 72 39 41
117 112 175 159 242 198 525 474 860 837 216 235 254 283 266 334 11 54 -64
165 -104 151z"/>
<path d="M9631 8393 c-21 -21 -33 -47 -46 -103 -33 -144 -101 -278 -194 -382
-56 -62 -66 -102 -33 -131 41 -37 100 -10 211 97 100 96 192 244 209 338 12
63 -7 131 -49 174 -40 41 -60 43 -98 7z"/>
<path d="M7776 8377 c-26 -21 -29 -30 -30 -83 -1 -74 30 -132 84 -163 53 -29
75 -27 98 12 58 94 51 176 -20 227 -50 36 -92 38 -132 7z"/>
<path d="M9702 7583 c-47 -42 -74 -210 -52 -318 7 -33 16 -90 19 -127 9 -105
48 -136 126 -104 60 25 62 37 48 276 -10 166 -21 203 -76 263 -30 32 -38 33
-65 10z"/>
<path d="M9984 7580 c-12 -4 -33 -29 -48 -53 -24 -42 -26 -54 -26 -159 0 -62
5 -130 11 -151 19 -71 98 -137 163 -137 26 0 36 21 36 78 l0 33 28 -21 c15
-11 42 -23 60 -26 l32 -6 0 110 c0 118 -2 122 -55 122 -26 0 -54 -33 -56 -65
-2 -46 -17 32 -18 96 -2 102 -8 120 -55 157 -24 17 -45 32 -47 31 -2 0 -13 -4
-25 -9z"/>
<path d="M9035 7267 c-35 -20 -42 -30 -53 -77 -8 -29 -11 -68 -7 -87 8 -44 48
-89 92 -104 41 -13 50 -7 84 66 35 76 20 159 -37 204 -33 26 -30 26 -79 -2z"/>
<path d="M8664 7228 c-55 -66 -79 -161 -53 -210 12 -22 66 -48 102 -48 13 0
31 8 39 18 14 16 78 182 78 202 0 17 -84 70 -111 70 -18 0 -36 -11 -55 -32z"/>
<path d="M7700 7127 c-14 -7 -27 -24 -30 -40 l-5 -27 -37 25 c-46 31 -68 32
-97 1 -45 -48 4 -146 73 -146 45 0 56 11 65 66 5 27 9 43 10 36 0 -7 12 -24
26 -37 18 -19 35 -25 69 -25 54 0 71 21 61 79 -5 30 -13 40 -48 59 -49 26 -53
26 -87 9z"/>
<path d="M7934 7102 c-5 -4 -16 -22 -24 -41 -13 -33 -13 -35 18 -62 60 -53
132 -28 132 45 0 39 -92 82 -126 58z"/>
<path d="M8426 7009 c-22 -17 -26 -28 -26 -69 0 -42 4 -52 31 -74 55 -46 159
-28 159 28 0 16 -20 42 -61 80 -33 31 -64 56 -68 56 -5 0 -20 -9 -35 -21z"/>
<path d="M8222 6987 c-31 -32 -30 -99 0 -127 32 -29 61 -34 97 -16 50 26 50
57 0 116 -47 56 -65 61 -97 27z"/>
<path d="M6432 6980 c-12 -5 -27 -21 -34 -35 -9 -20 -17 -25 -32 -20 -58 19
-73 17 -95 -10 -11 -15 -21 -36 -21 -46 0 -24 47 -59 79 -59 32 0 44 8 59 37
l12 21 37 -19 c45 -23 89 -18 116 13 24 28 21 53 -10 88 -30 33 -75 45 -111
30z"/>
<path d="M9818 6507 c-15 -12 -36 -45 -47 -73 -40 -104 -77 -550 -68 -833 4
-137 2 -181 -9 -208 -22 -53 -3 -85 59 -97 43 -9 49 -7 73 15 14 13 38 47 52
74 l27 50 -5 205 c-10 397 -8 431 28 569 35 136 37 149 21 204 -11 39 -72 117
-93 117 -6 0 -23 -10 -38 -23z"/>
<path d="M9366 6477 c-67 -88 -81 -161 -96 -499 -9 -206 -8 -253 3 -280 20
-47 50 -70 101 -75 37 -5 46 -2 55 16 7 11 16 105 21 208 10 184 29 363 55
513 7 41 10 81 6 87 -12 23 -75 63 -97 63 -14 0 -33 -13 -48 -33z"/>
<path d="M310 4773 c-28 -24 -53 -59 -71 -100 -16 -34 -51 -96 -79 -138 -27
-43 -54 -93 -59 -112 -19 -66 21 -112 101 -116 l43 -2 33 65 c18 36 40 76 49
90 26 39 153 272 153 281 0 14 -84 69 -105 69 -12 0 -41 -17 -65 -37z"/>
<path d="M1123 4768 c-18 -22 -390 -528 -407 -556 -4 -7 -2 -35 4 -62 l12 -50
57 0 58 0 199 302 c109 166 200 307 202 314 4 15 -67 74 -89 74 -8 0 -25 -10
-36 -22z"/>
<path d="M1416 4559 c-108 -127 -196 -238 -196 -247 0 -9 -275 -379 -610 -822
l-610 -804 0 -79 0 -78 37 -15 c33 -14 50 -15 92 -3 15 5 111 102 111 114 0 4
-7 4 -16 1 -10 -4 -13 -2 -8 7 5 6 269 361 588 787 395 529 633 857 748 1031
92 141 168 263 168 270 -1 18 -68 69 -91 69 -11 0 -95 -91 -213 -231z"/>
<path d="M724 4711 c-17 -9 -77 -70 -133 -135 -110 -131 -119 -152 -82 -213
20 -32 65 -50 98 -38 22 7 236 322 228 334 -3 5 -22 23 -43 39 -37 29 -38 30
-68 13z"/>
<path d="M9865 4690 c3 -5 11 -10 16 -10 6 0 7 5 4 10 -3 6 -11 10 -16 10 -6
0 -7 -4 -4 -10z"/>
<path d="M2118 4669 c-59 -17 -88 -50 -88 -102 0 -25 6 -49 14 -56 9 -7 101
-12 277 -15 293 -4 406 -20 622 -86 l107 -33 0 -49 c0 -32 -10 -70 -28 -111
-47 -103 -140 -244 -185 -280 -51 -41 -222 -120 -245 -113 -10 3 -141 24 -292
46 -424 62 -465 70 -572 120 l-27 13 86 126 c48 69 111 159 140 200 63 88 80
139 64 193 -14 44 -56 98 -78 98 -24 0 -143 -130 -188 -205 -22 -37 -75 -119
-117 -184 -84 -127 -104 -184 -93 -257 9 -64 66 -124 143 -152 178 -66 462
-119 681 -128 85 -4 148 -12 193 -26 86 -26 219 -22 288 9 66 30 143 91 167
132 11 20 51 78 88 130 107 148 155 275 155 410 0 93 -22 124 -125 172 -106
50 -264 102 -390 129 -82 18 -141 23 -330 26 -140 2 -244 -1 -267 -7z"/>
<path d="M2723 4400 c-33 -14 -41 -36 -30 -91 9 -45 13 -50 46 -59 59 -16 80
-13 91 16 18 46 11 75 -24 110 -35 35 -46 39 -83 24z"/>
<path d="M2309 4351 c-33 -33 -37 -66 -13 -116 22 -47 56 -53 106 -20 65 43
69 84 11 135 -42 38 -67 38 -104 1z"/>
<path d="M9120 4292 c-27 -28 -50 -85 -50 -128 0 -12 9 -51 20 -87 30 -98 72
-103 136 -16 71 96 75 181 13 233 -41 35 -83 34 -119 -2z"/>
<path d="M2048 4278 c-53 -31 -55 -49 -14 -111 40 -59 73 -82 105 -72 24 7 71
82 71 112 0 23 -45 68 -83 82 -37 14 -36 14 -79 -11z"/>
<path d="M2496 4199 c-37 -29 -37 -89 0 -118 37 -29 60 -34 98 -21 43 14 63
54 46 92 -10 21 -84 68 -109 68 -5 0 -20 -9 -35 -21z"/>
<path d="M2282 4102 c-25 -4 -58 -63 -48 -88 9 -23 65 -46 97 -39 27 6 59 46
59 74 0 16 -83 56 -108 53z"/>
<path d="M221 3967 c-97 -126 -122 -181 -103 -221 21 -46 104 -62 136 -27 9
10 55 79 101 152 l85 134 -41 38 c-67 60 -80 54 -178 -76z"/>
<path d="M359 3689 c-212 -285 -235 -333 -190 -391 26 -32 98 -55 116 -36 20
20 357 551 362 568 5 18 -76 80 -104 80 -13 0 -70 -69 -184 -221z"/>
<path d="M8232 3808 c-102 -83 -102 -83 -98 -121 5 -47 40 -87 74 -87 51 0
168 84 198 142 23 44 17 77 -20 114 -19 19 -38 34 -43 34 -4 0 -54 -37 -111
-82z"/>
<path d="M10130 3773 c-35 -36 -37 -42 -43 -123 -3 -47 -15 -111 -26 -144 -23
-65 -20 -94 13 -125 25 -23 84 -37 102 -24 6 4 23 27 38 50 26 42 26 46 26
217 0 149 -2 175 -16 180 -33 13 -58 5 -94 -31z"/>
<path d="M8953 3725 c-26 -11 -35 -23 -47 -67 -102 -359 -128 -444 -144 -462
-26 -30 -72 -138 -72 -171 0 -60 113 -122 145 -79 53 71 137 255 170 377 15
50 37 115 51 143 48 99 44 172 -13 235 -39 43 -44 44 -90 24z"/>
<path d="M7524 3616 c-21 -21 -34 -44 -34 -59 0 -14 30 -70 71 -131 73 -109
112 -144 191 -167 29 -8 35 -6 51 13 15 18 18 32 12 73 -7 60 -44 143 -83 191
-39 47 -129 114 -154 114 -11 0 -35 -15 -54 -34z"/>
<path d="M1338 3593 c-25 -4 -174 -166 -385 -421 -107 -128 -213 -355 -198
-424 12 -51 172 -166 303 -217 78 -29 209 -61 257 -61 16 0 42 -15 68 -39 l42
-39 358 -21 c415 -25 406 -26 525 65 86 65 153 148 204 252 22 46 56 107 76
135 76 112 133 285 133 407 1 68 -11 94 -50 115 -16 8 -294 56 -617 106 -474
74 -592 95 -604 109 -8 10 -25 23 -37 29 -22 11 -26 11 -75 4z m637 -316 l560
-72 3 -35 c2 -29 -21 -77 -145 -295 -188 -329 -176 -319 -384 -328 -179 -9
-437 -9 -467 -1 -12 4 -25 17 -28 30 -10 37 -31 48 -134 65 -115 19 -267 68
-365 116 -38 19 -71 36 -73 38 -2 2 90 127 203 279 195 260 209 276 239 275
17 0 283 -32 591 -72z"/>
<path d="M1573 3254 c-24 -12 -33 -23 -33 -41 l0 -25 -39 31 c-33 26 -43 30
-64 22 -14 -6 -30 -18 -35 -27 -13 -23 11 -124 34 -141 26 -19 72 -16 91 6 16
20 17 20 41 0 28 -22 55 -25 69 -6 6 6 23 36 39 65 l29 53 -42 39 c-48 45 -47
45 -90 24z"/>
<path d="M2043 3139 c-32 -12 -55 -53 -51 -90 3 -31 6 -34 62 -47 69 -17 76
-12 76 58 0 40 -4 47 -33 66 -23 15 -39 19 -54 13z"/>
<path d="M1289 2839 c-17 -7 -30 -22 -37 -47 -11 -34 -10 -39 13 -59 49 -43
119 -20 131 43 11 57 -40 87 -107 63z"/>
<path d="M1507 2793 c-11 -3 -27 -13 -37 -23 -28 -28 -17 -113 18 -141 45 -35
70 -35 104 -1 27 27 30 34 24 68 -7 36 -63 106 -82 103 -5 -1 -17 -3 -27 -6z"/>
<path d="M1971 2774 c-45 -57 -8 -134 63 -134 37 0 61 17 71 51 5 16 -3 31
-36 65 -50 51 -69 54 -98 18z"/>
<path d="M9788 3563 c-22 -6 -81 -146 -148 -350 -47 -141 -52 -167 -44 -199
11 -46 50 -76 100 -78 l37 -1 69 170 c95 231 107 266 108 295 0 47 -21 99 -54
135 -33 35 -37 36 -68 28z"/>
<path d="M9339 3520 c-9 -5 -57 -111 -108 -235 -100 -243 -103 -254 -61 -322
29 -48 60 -44 120 16 52 52 80 119 80 191 0 27 9 48 31 76 80 99 79 190 -1
258 -35 29 -38 30 -61 16z"/>
<path d="M8030 3492 c-19 -9 -42 -30 -51 -47 -23 -41 -119 -487 -119 -553 0
-57 17 -109 43 -131 27 -21 20 -38 -24 -63 -29 -16 -39 -27 -36 -40 3 -10 -3
-40 -14 -68 -12 -30 -19 -75 -19 -114 0 -60 2 -66 29 -85 39 -28 76 -26 107 4
20 20 24 32 19 57 -6 37 -1 46 36 70 19 12 28 28 32 55 3 21 16 73 28 116 19
66 21 83 11 111 -7 18 -12 51 -12 74 0 65 39 314 55 352 8 19 24 73 36 120
l21 85 -44 37 c-49 44 -51 44 -98 20z"/>
<path d="M5717 2692 c-26 -15 -28 -21 -24 -59 4 -38 2 -43 -25 -54 -53 -22
-66 -89 -25 -127 44 -42 103 -23 113 36 6 36 8 38 38 34 27 -3 37 2 55 23 11
15 21 31 21 34 0 13 -102 131 -113 131 -7 0 -25 -8 -40 -18z"/>
<path d="M6286 2625 c-34 -37 -60 -124 -46 -159 13 -36 13 -36 -9 -36 -30 0
-68 -54 -82 -114 -10 -46 -10 -62 2 -93 16 -42 75 -83 121 -83 18 0 29 -7 33
-20 8 -24 54 -50 88 -50 17 0 28 -9 39 -33 19 -39 69 -67 121 -67 30 0 37 5
51 34 36 75 2 166 -76 204 -26 13 -63 43 -83 68 -41 50 -64 55 -97 19 l-23
-24 3 53 c3 49 5 53 26 49 32 -7 45 15 62 107 19 98 10 130 -41 154 -45 22
-62 20 -89 -9z"/>
<path d="M6527 2462 c-16 -16 -31 -48 -37 -79 -19 -85 14 -136 102 -157 35 -8
52 16 72 104 21 87 20 93 -10 129 -35 42 -88 43 -127 3z"/>
<path d="M9105 2405 c-32 -13 -77 -38 -100 -55 -22 -17 -57 -37 -77 -46 -39
-17 -80 -63 -103 -117 -18 -44 -41 -748 -26 -805 19 -67 62 -98 205 -142 136
-43 264 -71 411 -92 119 -16 414 -16 545 1 l105 13 52 51 c58 56 71 86 103
237 16 79 20 133 20 320 0 314 -21 397 -128 505 -103 105 -158 121 -492 140
-377 21 -441 20 -515 -10z m293 -237 c-10 -46 -22 -140 -25 -210 -6 -122 -7
-128 -27 -128 -34 0 -196 30 -254 47 -30 8 -65 13 -78 10 -28 -5 -28 -4 -18
179 l7 110 48 0 c37 0 55 6 73 23 16 15 44 25 86 31 34 5 65 11 68 14 3 3 35
6 72 6 l67 0 -19 -82z m391 57 c71 -17 188 -74 219 -108 17 -18 25 -53 42
-176 11 -85 18 -156 15 -159 -6 -6 -417 15 -478 24 -35 5 -38 8 -33 32 3 15 7
97 8 182 2 131 0 160 -15 188 l-18 32 98 0 c54 0 127 -7 162 -15z m-530 -566
l94 -21 -8 -157 c-4 -86 -8 -157 -10 -159 -1 -2 -40 2 -85 7 -87 11 -166 42
-225 87 l-35 26 0 138 0 138 88 -19 c48 -11 129 -29 181 -40z m427 -59 c129
-22 218 -25 313 -10 35 6 65 9 67 7 3 -2 -1 -49 -7 -105 l-12 -100 -41 -16
c-33 -12 -384 -56 -447 -56 -29 0 -39 47 -39 182 l0 130 25 -6 c13 -3 77 -15
141 -26z"/>
<path d="M5945 2331 c-55 -34 -78 -67 -83 -120 -5 -60 12 -114 45 -141 l25
-19 -21 -27 c-16 -20 -21 -41 -21 -81 0 -100 48 -156 143 -169 44 -6 47 -5 66
27 27 44 26 65 -2 103 -12 17 -33 55 -46 83 -24 52 -24 53 -6 73 14 15 18 33
16 63 -4 50 -4 78 0 130 2 29 -2 43 -22 61 -35 34 -59 39 -94 17z"/>
<path d="M5559 2157 c-48 -26 -57 -44 -58 -122 0 -58 14 -89 55 -116 45 -30
70 -24 104 22 51 70 52 131 4 188 -42 50 -56 54 -105 28z"/>
<path d="M6217 1999 c-30 -23 -57 -101 -57 -164 0 -77 61 -120 159 -113 41 3
46 6 68 47 23 44 23 44 4 80 -11 20 -22 54 -25 76 -11 79 -92 119 -149 74z"/>
<path d="M6544 1862 c-9 -5 -64 -218 -64 -245 0 -2 20 -12 45 -22 56 -21 68
-13 85 53 6 26 18 58 27 71 20 31 33 76 24 87 -3 5 -21 22 -39 37 -34 27 -57
33 -78 19z"/>
<path d="M6815 1742 c-29 -6 -46 -23 -62 -60 -20 -47 -2 -97 53 -145 36 -32
42 -42 38 -66 -13 -61 48 -131 114 -131 26 0 36 13 66 94 28 74 32 106 16 137
-14 26 -67 51 -90 44 -17 -5 -20 -2 -20 24 0 19 -11 43 -30 64 -32 36 -52 46
-85 39z"/>
<path d="M7294 1700 c-41 -26 -78 -109 -79 -173 0 -42 4 -52 32 -78 35 -30 74
-45 97 -36 15 6 116 209 116 233 0 8 -106 74 -120 74 -8 0 -29 -9 -46 -20z"/>
<path d="M6432 1462 c-41 -137 -41 -155 2 -198 33 -33 33 -34 10 -34 -13 0
-41 -16 -63 -35 -65 -59 -76 -146 -30 -237 23 -44 55 -56 95 -35 53 27 66 50
59 100 -5 35 -2 53 14 86 23 43 21 51 -12 88 l-20 22 34 -5 c52 -9 70 33 74
173 2 61 0 114 -3 119 -20 28 -77 64 -101 64 -27 0 -29 -4 -59 -108z"/>
<path d="M6786 1321 c-47 -31 -70 -71 -74 -130 -4 -59 16 -146 43 -188 22 -33
66 -30 107 6 31 28 32 31 30 99 -2 49 1 80 12 101 22 41 20 55 -9 89 -30 36
-75 45 -109 23z"/>
<path d="M7105 1211 c-41 -25 -81 -73 -95 -115 -10 -30 -8 -42 10 -83 46 -104
108 -131 170 -73 29 27 31 33 25 72 -4 29 -1 55 9 80 24 57 20 72 -28 106 -52
37 -52 37 -91 13z"/>
<path d="M334 1203 c-28 -5 -61 -41 -69 -73 -4 -19 0 -31 17 -47 23 -20 72
-23 2398 -132 1306 -61 2378 -111 2383 -111 4 0 -2 -9 -13 -20 -39 -39 -16
-141 37 -161 20 -7 32 -6 52 7 76 49 90 90 46 142 l-25 29 45 6 c24 4 51 4 60
2 51 -16 50 -14 15 -50 -30 -31 -35 -43 -38 -100 -4 -63 -3 -66 30 -99 50 -50
85 -56 115 -22 12 15 30 51 38 81 19 63 10 112 -27 153 l-23 25 25 -6 c14 -3
62 -9 107 -13 l81 -6 21 40 c27 53 26 77 -3 107 -54 53 -37 53 -1294 75
l-1167 21 -745 64 c-737 64 -751 64 -1270 75 -289 5 -581 12 -650 14 -69 2
-135 2 -146 -1z"/>
<path d="M5862 1072 c-15 -2 -28 -16 -39 -40 -8 -20 -24 -55 -34 -76 -25 -56
-9 -96 49 -114 37 -12 44 -12 64 4 79 60 95 130 43 184 -37 39 -53 47 -83 42z"/>
<path d="M2243 895 c-46 -32 -63 -77 -63 -163 0 -98 19 -153 63 -181 41 -26
28 -27 -22 -1 -37 18 -40 24 -56 93 -18 72 -27 85 -86 115 -4 1 -21 -9 -38
-23 -36 -31 -40 -70 -17 -148 15 -49 13 -57 -15 -57 -20 0 -63 -64 -56 -83 3
-8 73 -20 212 -35 114 -13 216 -27 226 -32 10 -6 48 -10 86 -10 50 0 76 -5
101 -20 18 -11 38 -20 45 -20 6 0 38 25 70 56 42 40 62 53 70 46 7 -6 40 -14
75 -18 49 -5 66 -3 80 8 9 8 45 23 79 32 62 17 62 17 111 -8 39 -20 65 -25
142 -27 83 -2 101 -6 140 -30 86 -51 131 -50 206 7 l45 35 41 -37 c36 -32 45
-36 82 -32 26 3 64 20 100 43 l57 39 167 -37 c196 -43 249 -47 260 -16 4 11 0
93 -10 182 -16 156 -18 163 -45 184 -34 28 -54 29 -83 5 -21 -17 -21 -20 -10
-121 6 -57 9 -105 6 -108 -3 -3 -51 0 -107 7 -79 9 -130 9 -231 -1 -119 -11
-131 -11 -140 4 -15 28 -68 50 -105 44 -19 -3 -55 -24 -82 -46 -52 -44 -72
-49 -90 -27 -7 9 -41 15 -96 18 -47 2 -87 7 -90 10 -3 3 -15 61 -25 129 -17
112 -22 126 -47 146 -19 16 -35 20 -53 16 -41 -10 -49 -31 -50 -122 l0 -84
-20 26 c-15 19 -20 40 -20 85 0 55 -2 62 -29 81 -36 26 -52 26 -82 2 -21 -17
-23 -25 -20 -112 2 -66 7 -99 17 -111 14 -15 6 -16 -104 -15 l-120 2 -42 -34
c-41 -33 -44 -34 -110 -28 -48 4 -73 2 -86 -7 -15 -11 -23 -10 -52 10 -19 13
-48 24 -63 24 -27 0 -29 2 -28 43 0 23 4 94 9 157 l8 115 -26 22 c-32 26 -50
28 -79 8z"/>
<path d="M5693 883 c-26 -5 -63 -85 -63 -138 0 -43 36 -81 86 -91 42 -8 52 -1
75 50 31 67 25 103 -21 148 -23 21 -44 37 -48 37 -4 -1 -17 -4 -29 -6z"/>
<path d="M5988 874 c-77 -41 -26 -184 66 -184 19 0 40 8 49 18 23 25 49 92 43
108 -5 14 -104 74 -121 74 -5 -1 -22 -7 -37 -16z"/>
<path d="M6685 878 c-30 -17 -42 -37 -60 -100 -14 -50 -14 -61 -1 -92 8 -19
26 -42 41 -52 l26 -17 -29 -27 c-40 -36 -61 -123 -41 -165 17 -35 55 -63 95
-71 28 -5 33 -2 61 43 17 26 34 62 38 79 7 37 -12 90 -42 117 -20 18 -20 18
10 119 l31 101 -43 38 c-47 42 -55 45 -86 27z"/>
<path d="M4540 822 c-43 -14 -50 -32 -50 -129 l0 -94 -27 15 c-34 17 -65 7
-88 -27 -12 -19 -14 -39 -8 -108 10 -107 13 -109 188 -109 181 0 196 18 93
112 -48 44 -60 60 -49 66 9 7 15 43 19 121 4 101 3 113 -14 127 -32 25 -48 31
-64 26z"/>
<path d="M4823 780 c-18 -11 -33 -28 -34 -37 -3 -52 4 -93 24 -134 l22 -45
-22 -2 c-12 -1 -38 -19 -57 -39 -32 -35 -35 -43 -36 -98 0 -59 1 -61 35 -80
30 -16 41 -17 68 -7 19 7 56 9 91 5 l59 -6 -5 60 c-3 40 -11 69 -26 91 l-22
31 32 -10 c46 -13 44 -14 74 37 l28 47 -28 51 c-29 56 -55 87 -104 129 -40 32
-56 33 -99 7z"/>
<path d="M6310 770 c-50 -33 -73 -80 -68 -145 3 -35 0 -40 -19 -43 -44 -6 -80
-131 -53 -181 10 -19 78 -51 108 -51 19 0 55 55 66 102 3 15 2 38 -4 53 -10
25 -9 26 24 20 28 -6 36 -2 58 23 23 27 25 40 26 116 1 83 0 86 -29 111 -38
31 -53 31 -109 -5z"/>
<path d="M1774 726 c-33 -33 -34 -35 -34 -121 0 -78 -2 -86 -17 -81 -161 48
-301 70 -896 136 -346 38 -646 70 -667 70 -46 0 -100 -40 -100 -73 1 -55 -19
-50 792 -184 476 -79 787 -126 828 -125 120 2 188 12 195 30 4 10 9 90 11 178
l5 162 -34 21 c-19 12 -38 21 -42 21 -4 0 -22 -15 -41 -34z"/>
<path d="M6975 680 c-31 -12 -47 -36 -56 -83 -11 -58 5 -113 39 -134 15 -9 29
-18 31 -20 2 -1 -2 -9 -8 -17 -20 -24 -3 -72 36 -106 45 -40 79 -37 110 9 32
47 29 76 -9 110 l-32 28 12 65 c17 93 17 93 -38 127 -54 34 -55 34 -85 21z"/>
<path d="M5924 643 c-11 -2 -32 -22 -46 -44 -58 -90 -42 -169 40 -197 39 -13
45 -12 62 3 29 26 63 113 55 144 -14 58 -65 101 -111 94z"/>
<path d="M5563 611 c-17 -11 -34 -29 -38 -41 -17 -55 31 -144 73 -134 11 3 36
19 56 36 49 40 49 78 0 124 -41 39 -48 41 -91 15z"/>
<path d="M5366 539 c-30 -24 -34 -66 -11 -122 31 -75 72 -86 131 -35 33 29 36
35 31 72 -4 30 -15 50 -41 73 -41 38 -73 41 -110 12z"/>
<path d="M8985 542 c-28 -5 -83 -60 -106 -104 -40 -79 -15 -128 68 -128 40 0
44 3 103 75 63 77 66 88 35 128 -15 20 -68 35 -100 29z"/>
<path d="M5064 513 c-27 -5 -44 -42 -44 -94 0 -75 46 -130 123 -150 43 -10 50
-10 68 7 48 43 41 104 -19 175 -32 37 -81 71 -99 68 -4 -1 -18 -4 -29 -6z"/>
<path d="M9530 509 c-13 -6 -33 -17 -43 -26 -38 -35 10 -121 81 -144 29 -10
38 -9 61 8 14 11 34 35 44 55 15 30 16 40 5 63 -21 47 -89 67 -148 44z"/>
</g>
</svg>
