<?xml version="1.0" standalone="no"?>
<!DOCTYPE svg PUBLIC "-//W3C//DTD SVG 20010904//EN"
 "http://www.w3.org/TR/2001/REC-SVG-20010904/DTD/svg10.dtd">
<svg version="1.0" xmlns="http://www.w3.org/2000/svg"
 width="1024.000000pt" height="1024.000000pt" viewBox="0 0 1024.000000 1024.000000"
 preserveAspectRatio="xMidYMid meet">
<metadata>
Created by potrace 1.10, written by Peter Selinger 2001-2011
</metadata>
<g transform="translate(0.000000,1024.000000) scale(0.100000,-0.100000)"
fill="#000000" stroke="none">
<path d="M6990 8059 c-112 -30 -528 -76 -2054 -229 l-1699 -169 -32 28 c-26
22 -66 36 -226 74 -107 26 -200 47 -207 47 -7 0 -35 -11 -62 -25 -60 -31 -63
-50 -16 -102 52 -59 191 -366 215 -476 62 -289 112 -616 231 -1527 63 -487 77
-562 117 -647 31 -66 64 -93 115 -93 50 0 83 33 104 107 8 29 21 53 27 53 7 0
298 25 647 55 349 30 650 55 668 55 l32 0 0 -510 0 -509 -32 -6 c-110 -18
-1128 -136 -1248 -144 -130 -8 -171 -6 -397 18 -138 15 -255 25 -260 24 -6 -2
-5 -29 1 -68 l11 -64 85 -62 c127 -94 239 -164 321 -204 71 -35 77 -36 149
-30 41 4 213 35 381 70 254 53 893 155 971 155 17 0 18 -25 18 -590 0 -494 -2
-590 -14 -590 -7 0 -485 -32 -1062 -70 -1008 -68 -1055 -71 -1204 -60 -100 7
-214 24 -323 47 -93 19 -171 32 -174 29 -3 -3 4 -55 17 -115 l23 -109 141 -98
c119 -83 164 -108 286 -157 166 -67 126 -68 398 9 177 50 395 95 607 124 167
22 313 31 1994 125 l1174 65 456 -35 c251 -19 540 -42 642 -51 181 -16 188
-16 225 2 32 16 40 25 42 52 5 47 -29 109 -95 176 -103 104 -361 261 -479 291
-58 15 -66 14 -150 -5 -135 -32 -555 -74 -1341 -135 -392 -30 -728 -55 -748
-55 l-35 0 0 598 0 598 523 33 c546 35 754 37 1056 11 121 -11 165 -5 194 28
36 42 32 55 -60 168 l-88 109 -120 52 c-65 28 -122 50 -125 48 -20 -12 -437
-60 -825 -95 -247 -22 -474 -43 -502 -46 l-53 -6 0 511 0 511 23 0 c12 0 308
16 657 35 349 19 658 35 685 35 46 0 52 -3 73 -36 13 -19 44 -48 69 -64 96
-61 190 -32 266 83 79 119 114 216 171 472 61 275 153 821 196 1160 36 289 81
485 145 623 71 156 76 175 57 203 -47 67 -239 208 -369 270 -73 35 -150 46
-213 28z m10 -335 c19 -11 39 -32 44 -47 7 -19 -3 -143 -33 -429 -24 -222 -44
-403 -45 -404 -1 -1 -1719 -115 -1728 -114 -5 0 -8 180 -8 400 l0 400 -41 29
c-22 17 -56 35 -75 41 -20 7 -33 15 -29 18 11 11 1648 131 1765 129 96 -2 121
-5 150 -23z m-2257 -208 c27 -41 60 -109 75 -152 25 -77 26 -87 30 -376 3
-243 1 -298 -10 -298 -7 1 -338 -29 -735 -67 -397 -37 -724 -65 -726 -63 -6 7
-89 841 -85 846 4 4 1349 181 1383 182 14 1 34 -20 68 -72z m2183 -953 c-3
-16 -21 -138 -41 -273 -51 -342 -78 -470 -137 -622 -27 -70 -32 -78 -56 -78
-15 0 -328 -18 -695 -40 -368 -22 -691 -40 -718 -40 l-49 0 0 480 c0 377 3
480 13 481 6 0 381 26 832 58 451 32 828 59 838 60 15 1 18 -4 13 -26z m-2076
-606 l0 -483 -622 -53 c-343 -29 -650 -56 -684 -58 l-61 -6 -6 49 c-14 110
-80 885 -76 889 3 2 265 29 584 59 525 51 837 82 858 85 4 0 7 -216 7 -482z"/>
</g>
</svg>
