<?xml version="1.0" standalone="no"?>
<!DOCTYPE svg PUBLIC "-//W3C//DTD SVG 20010904//EN"
 "http://www.w3.org/TR/2001/REC-SVG-20010904/DTD/svg10.dtd">
<svg version="1.0" xmlns="http://www.w3.org/2000/svg"
 width="1024.000000pt" height="1024.000000pt" viewBox="0 0 1024.000000 1024.000000"
 preserveAspectRatio="xMidYMid meet">
<metadata>
Created by potrace 1.10, written by Peter Selinger 2001-2011
</metadata>
<g transform="translate(0.000000,1024.000000) scale(0.100000,-0.100000)"
fill="#000000" stroke="none">
<path d="M4805 8555 c-264 -39 -465 -74 -520 -90 -258 -76 -526 -211 -710
-358 -123 -98 -237 -264 -279 -407 -45 -149 -67 -482 -47 -685 19 -185 46
-304 110 -495 99 -296 187 -459 384 -712 202 -260 404 -464 510 -516 112 -55
159 -62 562 -75 l370 -12 -3 -180 c-14 -941 -25 -1511 -28 -1514 -3 -3 -179
10 -392 27 -429 36 -461 37 -484 20 -52 -43 -66 -137 -25 -176 12 -11 33 -23
47 -26 14 -3 210 -18 435 -32 226 -14 411 -27 413 -29 2 -1 -15 -334 -38 -738
-22 -405 -40 -767 -40 -804 l0 -68 -1192 -58 c-1311 -64 -1454 -76 -1496 -123
-42 -48 -24 -131 35 -159 31 -15 54 -16 211 -6 184 12 2679 146 3002 161 238
12 1019 12 1999 0 845 -9 820 -11 841 46 14 36 12 56 -8 81 -16 21 -40 25
-317 58 l-300 36 -1270 -10 c-698 -5 -1271 -8 -1273 -6 -6 6 69 1570 76 1577
4 3 277 0 607 -7 574 -13 601 -12 635 5 41 21 67 61 76 118 5 35 3 44 -18 65
l-24 24 -334 6 c-183 4 -468 7 -633 7 l-300 0 6 647 c4 355 7 744 7 864 l0
217 68 11 c669 115 1202 406 1558 853 99 125 261 447 308 613 63 224 71 290
70 585 -1 328 -17 426 -97 585 -139 281 -480 514 -922 630 -297 78 -518 106
-870 110 l-280 4 -430 -64z m1035 -200 c402 -50 716 -124 881 -205 191 -94
363 -278 395 -421 58 -262 57 -256 58 -479 1 -171 -3 -235 -18 -315 -10 -55
-20 -101 -21 -103 -1 -1 -296 9 -656 24 -462 18 -708 23 -839 19 l-186 -7 3
39 c12 155 55 904 56 968 0 61 -4 91 -20 126 l-21 47 24 93 c25 99 31 190 14
234 -10 25 -9 26 17 21 16 -3 156 -21 313 -41z m-550 3 c0 -18 -5 -64 -10
-102 -6 -39 -13 -149 -16 -245 -7 -223 -7 -192 1 -362 5 -95 4 -190 -4 -270
-7 -68 -18 -211 -26 -317 -7 -107 -16 -196 -19 -199 -4 -5 -1686 -62 -1693
-58 -1 0 -12 77 -24 170 -25 197 -29 421 -10 572 12 95 17 108 64 185 63 104
195 237 299 301 259 161 985 350 1371 356 l67 1 0 -32z m1800 -1717 c0 -4 -9
-20 -20 -34 -12 -14 -34 -58 -50 -97 -16 -39 -41 -85 -55 -102 -14 -16 -25
-38 -25 -48 0 -10 -26 -52 -59 -93 -324 -408 -798 -679 -1384 -793 -48 -9 -89
-15 -90 -13 -3 3 39 1170 42 1176 1 2 250 4 554 6 303 1 672 3 820 5 147 1
267 -2 267 -7z m-1895 -608 c-4 -329 -8 -599 -10 -601 -1 -2 -137 1 -302 7
-279 9 -305 11 -393 36 -244 70 -368 172 -620 510 -86 116 -159 215 -163 222
-16 26 -138 395 -133 400 5 5 723 16 1400 21 l228 2 -7 -597z"/>
</g>
</svg>
