<?xml version="1.0" standalone="no"?>
<!DOCTYPE svg PUBLIC "-//W3C//DTD SVG 20010904//EN"
 "http://www.w3.org/TR/2001/REC-SVG-20010904/DTD/svg10.dtd">
<svg version="1.0" xmlns="http://www.w3.org/2000/svg"
 width="1024.000000pt" height="1024.000000pt" viewBox="0 0 1024.000000 1024.000000"
 preserveAspectRatio="xMidYMid meet">
<metadata>
Created by potrace 1.10, written by Peter Selinger 2001-2011
</metadata>
<g transform="translate(0.000000,1024.000000) scale(0.100000,-0.100000)"
fill="#000000" stroke="none">
<path d="M7105 8019 c-27 -11 -142 -42 -255 -70 l-205 -49 -1435 -131 -1435
-132 -240 22 c-132 13 -256 25 -276 28 -35 5 -36 4 -53 -42 -18 -46 -18 -48 0
-64 111 -103 220 -191 267 -216 68 -36 62 14 42 -410 -47 -991 -103 -1635
-181 -2100 -118 -700 -279 -1283 -480 -1732 -152 -341 -411 -811 -607 -1102
-45 -67 -48 -75 -33 -89 15 -15 19 -13 57 23 132 127 403 465 554 691 120 177
175 273 305 529 161 317 267 583 375 940 174 576 267 1087 346 1912 l22 233
31 5 c32 5 1400 113 2646 210 790 61 832 65 869 93 47 34 39 59 -48 152 l-79
86 38 124 c21 69 57 188 79 265 48 162 133 342 188 400 68 72 111 135 106 155
-10 36 -88 95 -223 167 -148 79 -256 123 -298 123 -15 -1 -49 -10 -77 -21z
m-26 -384 c22 -11 30 -21 27 -33 -5 -16 -36 -144 -147 -602 -23 -96 -46 -178
-52 -181 -5 -4 -37 -10 -71 -13 -34 -3 -410 -40 -836 -82 -426 -41 -959 -93
-1185 -115 -225 -22 -522 -51 -659 -64 -138 -14 -251 -23 -252 -22 -4 3 38
861 41 865 2 2 320 46 707 98 l703 94 755 39 c791 42 916 44 969 16z"/>
</g>
</svg>
