<?xml version="1.0" standalone="no"?>
<!DOCTYPE svg PUBLIC "-//W3C//DTD SVG 20010904//EN"
 "http://www.w3.org/TR/2001/REC-SVG-20010904/DTD/svg10.dtd">
<svg version="1.0" xmlns="http://www.w3.org/2000/svg"
 width="1024.000000pt" height="1024.000000pt" viewBox="0 0 1024.000000 1024.000000"
 preserveAspectRatio="xMidYMid meet">
<metadata>
Created by potrace 1.10, written by Peter Selinger 2001-2011
</metadata>
<g transform="translate(0.000000,1024.000000) scale(0.100000,-0.100000)"
fill="#000000" stroke="none">
<path d="M3685 10187 c-17 -18 -47 -47 -68 -65 -23 -20 -37 -41 -37 -56 0 -12
-9 -49 -20 -81 -11 -32 -20 -80 -20 -107 0 -43 5 -53 40 -89 22 -23 40 -45 40
-50 0 -5 -17 -22 -39 -37 -21 -15 -62 -62 -92 -105 -39 -57 -64 -83 -89 -93
-19 -8 -54 -33 -77 -56 l-41 -41 -46 38 c-26 21 -46 46 -46 57 0 26 -18 58
-33 58 -13 0 -37 65 -37 102 -1 90 -61 247 -121 318 -24 28 -32 33 -47 24 -20
-13 -28 -52 -14 -66 7 -7 5 -22 -4 -44 -8 -18 -14 -53 -14 -78 0 -25 -4 -48
-10 -51 -6 -4 -10 -77 -10 -187 0 -230 12 -272 96 -332 30 -22 62 -48 71 -58
17 -19 32 0 -213 -268 -23 -25 -56 -62 -74 -82 -18 -21 -35 -38 -39 -38 -3 0
-14 36 -24 80 -18 77 -19 80 -47 80 -31 0 -46 -25 -35 -59 4 -13 0 -21 -12
-25 -19 -6 -61 -131 -65 -198 l-3 -36 -109 61 c-105 59 -111 65 -155 134 -25
39 -53 75 -62 78 -9 3 -34 45 -56 94 -38 82 -40 93 -32 136 11 60 -1 77 -50
73 -32 -3 -37 -7 -53 -49 -33 -89 -50 -201 -50 -332 0 -97 4 -137 15 -160 9
-18 18 -39 20 -48 8 -24 301 -257 352 -280 l45 -20 0 -179 c0 -102 -4 -181 -9
-185 -6 -3 -38 -52 -72 -108 -62 -102 -77 -155 -56 -198 6 -12 -10 -27 -70
-67 -43 -27 -99 -60 -125 -72 -26 -12 -68 -40 -93 -62 -44 -38 -48 -40 -93
-34 -44 6 -51 4 -74 -21 -46 -50 -62 -93 -62 -164 0 -85 25 -136 81 -165 102
-52 142 -84 179 -141 117 -184 270 -290 470 -323 67 -11 74 -14 129 -70 l58
-59 -63 -165 c-34 -91 -68 -164 -74 -163 -14 3 -12 -431 3 -623 22 -272 56
-394 132 -469 31 -32 48 -89 27 -95 -7 -3 -52 -17 -100 -32 l-87 -26 -49 -92
c-27 -50 -52 -102 -57 -116 -4 -14 -18 -36 -31 -50 -26 -28 -174 -311 -174
-333 0 -8 -11 -22 -24 -30 -16 -11 -26 -30 -31 -56 -4 -22 -15 -51 -24 -63
-10 -13 -21 -41 -25 -63 -4 -22 -16 -49 -26 -60 -10 -11 -62 -114 -115 -230
-53 -115 -109 -233 -125 -261 -44 -79 -153 -355 -203 -514 -49 -159 -54 -180
-92 -415 -28 -167 -28 -204 -1 -330 8 -38 15 -114 16 -167 0 -89 4 -109 45
-230 25 -73 52 -143 61 -155 18 -28 60 -30 90 -5 26 22 74 87 74 101 0 5 31
61 68 123 107 177 150 321 197 653 20 143 45 294 56 335 29 107 99 299 125
340 12 19 116 202 231 405 205 362 291 502 330 537 18 17 21 17 50 -5 17 -12
80 -42 141 -67 l110 -45 -60 -175 c-33 -96 -77 -208 -99 -248 -38 -71 -41 -86
-118 -525 -53 -301 -90 -480 -109 -537 -34 -99 -88 -209 -147 -300 -46 -72
-45 -70 -174 -325 -123 -246 -135 -295 -155 -655 -9 -151 -19 -296 -22 -322
-5 -43 -3 -50 24 -78 24 -23 39 -30 69 -29 36 0 44 7 163 144 69 79 131 157
137 174 7 17 70 121 139 233 69 111 135 225 145 253 11 27 26 64 34 82 8 17
15 38 15 47 0 21 58 136 68 136 10 0 182 214 182 225 0 4 15 42 34 84 l34 76
39 490 c34 442 40 493 59 520 11 17 46 86 78 154 53 114 74 144 287 417 143
182 235 291 242 287 7 -3 37 -25 67 -48 49 -37 70 -45 190 -73 92 -21 174 -32
258 -36 238 -11 336 -44 616 -204 282 -161 461 -229 686 -262 41 -6 107 -22
146 -35 138 -48 235 -66 381 -72 l142 -6 31 -65 c74 -159 254 -374 416 -498
41 -31 90 -79 109 -105 19 -27 54 -62 77 -79 49 -34 118 -100 118 -113 0 -4
-93 -137 -206 -294 -113 -158 -209 -294 -212 -302 -3 -9 -23 -44 -44 -78 -20
-34 -58 -113 -84 -175 -25 -62 -62 -149 -81 -193 -19 -44 -39 -89 -43 -100
-39 -105 -99 -194 -267 -392 -78 -93 -103 -128 -103 -150 0 -16 -5 -34 -11
-40 -6 -6 -21 -102 -35 -214 -14 -112 -31 -222 -39 -245 -12 -32 -14 -68 -8
-175 l6 -134 56 -67 c53 -64 58 -68 98 -68 23 0 53 5 66 11 15 7 73 91 162
235 117 191 155 245 253 352 63 70 127 149 143 177 41 70 75 186 84 280 12
145 36 297 52 339 15 36 391 645 415 671 22 24 -22 -679 -46 -746 -17 -45
-112 -171 -219 -289 -84 -93 -109 -150 -116 -268 -6 -81 -3 -113 16 -194 17
-73 20 -104 13 -123 -14 -38 -11 -153 5 -199 8 -22 12 -43 9 -47 -2 -5 2 -24
10 -44 14 -33 17 -35 65 -35 53 0 73 16 101 77 6 15 35 46 63 68 67 53 110
111 137 182 11 32 27 72 35 90 8 17 15 35 15 40 0 11 87 95 157 152 50 41 93
108 93 147 0 10 85 123 190 249 l189 230 -45 40 c-34 30 -53 58 -75 113 -16
40 -29 81 -29 91 0 9 -12 46 -26 82 -53 132 -67 482 -29 689 21 114 24 120 44
120 11 0 63 57 137 153 65 83 140 175 165 202 111 119 177 214 199 288 l22 72
-22 69 c-19 60 -31 78 -99 146 -48 49 -105 93 -157 123 -129 73 -167 113 -218
228 l-24 55 60 88 c35 51 76 97 98 111 42 26 119 124 158 200 30 59 79 195
128 355 19 63 41 129 49 145 29 62 45 136 45 203 0 50 4 73 15 82 8 7 15 20
15 29 0 9 9 27 19 41 16 20 26 24 63 21 l45 -2 21 56 c36 94 25 172 -31 224
-26 23 -27 23 -53 6 -25 -16 -26 -21 -21 -76 6 -68 -7 -70 -24 -3 -11 41 -14
45 -35 40 -22 -6 -24 -3 -24 28 0 44 -26 122 -52 159 -11 16 -43 46 -70 68
-41 32 -53 37 -69 28 -35 -18 -32 -37 11 -86 65 -73 90 -134 90 -220 0 -79 -8
-93 -35 -63 -22 24 -41 26 -49 4 -3 -9 -6 -61 -6 -117 l0 -102 50 52 c27 29
52 53 55 53 15 0 1 -36 -25 -62 -33 -33 -37 -53 -16 -77 21 -23 -5 -140 -94
-431 -83 -272 -128 -367 -210 -449 -187 -188 -299 -352 -349 -514 -11 -36 -27
-80 -36 -96 -21 -41 -19 -106 5 -183 26 -86 71 -151 145 -209 61 -48 62 -49
75 -121 20 -106 15 -138 -45 -308 -30 -84 -62 -191 -71 -239 -24 -131 -29
-408 -10 -571 25 -206 32 -243 55 -288 12 -23 21 -49 21 -58 0 -25 52 -167 68
-186 13 -16 13 -21 -3 -45 -61 -93 -159 -220 -232 -299 -72 -79 -83 -96 -83
-127 0 -31 -6 -40 -42 -65 -24 -16 -63 -51 -88 -78 -47 -50 -120 -162 -120
-184 0 -23 -102 -1 -138 31 -18 16 -43 31 -56 35 -21 5 -24 13 -30 78 -4 40
-3 82 1 94 5 12 42 59 83 104 112 124 144 165 188 248 46 86 77 179 87 265 5
33 14 69 21 80 10 16 10 34 -1 95 -9 55 -10 92 -3 140 14 88 14 370 0 449 -8
45 -8 69 -1 84 8 14 8 26 0 41 -12 25 -40 232 -39 294 1 39 -4 47 -51 90 -28
26 -189 178 -357 337 l-306 290 -164 333 c-161 325 -194 400 -194 453 0 79
-78 199 -129 199 -16 0 -37 -10 -51 -25 -22 -23 -23 -30 -17 -112 6 -74 17
-116 72 -267 35 -99 63 -182 60 -184 -2 -3 -203 33 -446 79 l-441 83 -242 141
c-133 77 -271 150 -306 162 -52 17 -98 23 -228 27 -90 3 -173 11 -184 17 -11
6 -79 21 -151 34 -107 20 -280 61 -295 71 -2 1 106 148 239 326 149 198 247
337 253 359 15 59 -20 119 -77 131 -11 2 -63 -61 -165 -200 -95 -130 -229
-293 -369 -450 -121 -136 -260 -296 -308 -357 -49 -60 -111 -137 -139 -170
-121 -146 -227 -337 -279 -500 -43 -137 -57 -238 -87 -648 l-29 -398 -126
-228 c-69 -126 -125 -235 -125 -244 0 -8 -7 -20 -15 -27 -8 -7 -15 -17 -15
-23 0 -39 -45 -149 -75 -184 -41 -48 -137 -106 -180 -108 -43 -3 -56 -7 -92
-33 l-33 -23 0 23 c0 36 38 147 61 179 11 16 38 67 60 114 21 47 54 109 73
138 85 133 139 235 209 399 l75 176 111 529 c105 499 141 642 168 674 6 8 14
31 18 52 4 20 21 54 37 75 45 55 84 143 98 220 7 37 19 74 26 83 8 9 23 51 35
95 11 43 38 118 60 166 21 48 44 109 49 135 6 26 19 63 29 83 27 53 39 96 52
195 6 49 17 99 25 110 7 11 18 63 25 115 6 52 22 124 36 160 14 36 38 103 53
149 37 107 48 123 132 202 l71 65 -39 38 c-35 33 -43 37 -78 32 -53 -6 -137
-67 -180 -129 -60 -88 -131 -289 -151 -427 -4 -25 -17 -85 -30 -135 -13 -49
-38 -164 -55 -255 -17 -91 -38 -172 -46 -181 -8 -8 -14 -20 -14 -25 0 -5 -8
-25 -19 -44 -10 -19 -21 -51 -25 -70 -3 -20 -22 -60 -41 -90 -19 -30 -35 -59
-35 -65 0 -5 -9 -29 -20 -52 l-19 -42 -58 35 c-31 19 -81 42 -110 51 -29 9
-53 19 -53 22 0 3 58 79 129 169 80 100 136 181 145 208 8 24 13 44 10 44 -20
0 -87 -45 -96 -64 -5 -13 -47 -49 -92 -79 -117 -80 -222 -195 -387 -427 -105
-148 -152 -223 -168 -270 -34 -95 -108 -232 -163 -301 -28 -34 -48 -69 -48
-83 0 -14 -36 -85 -80 -159 -73 -121 -89 -157 -166 -383 -71 -206 -87 -263
-91 -329 -6 -93 -22 -125 -61 -125 -16 0 -32 -8 -39 -18 -6 -10 -52 -49 -102
-85 -75 -55 -91 -63 -91 -47 0 37 31 213 41 231 5 10 20 72 33 136 16 77 63
227 136 433 111 313 180 464 297 648 18 29 33 56 33 61 0 5 22 42 50 83 30 45
68 123 99 204 48 126 214 437 278 521 20 26 56 50 128 85 55 26 112 48 126 48
15 0 57 9 95 21 57 18 77 31 128 81 l60 61 -44 39 -45 39 -69 -5 c-58 -5 -73
-3 -102 15 -19 11 -40 19 -48 16 -15 -6 -67 70 -101 148 -36 81 -59 206 -51
284 25 264 26 332 11 456 l-15 125 34 47 c67 95 92 199 76 316 -19 132 -90
218 -208 253 -147 43 -220 68 -250 86 -37 23 -62 46 -62 57 0 5 42 6 94 3 51
-2 122 -2 157 2 59 6 66 10 88 41 30 45 33 71 6 67 -134 -22 -175 -24 -253
-13 -105 15 -176 41 -258 97 -52 34 -78 45 -126 50 -48 5 -57 9 -42 17 35 18
155 142 175 179 10 20 52 64 93 97 96 78 116 105 116 150 0 33 9 67 47 179 9
24 31 59 51 79 34 34 142 93 171 93 8 0 39 14 70 32 48 27 68 32 142 36 74 4
91 1 130 -18 53 -27 183 -151 247 -235 25 -33 61 -77 81 -99 35 -37 120 -86
151 -86 8 0 100 -32 204 -71 l190 -70 114 -107 c130 -122 379 -304 497 -361
106 -52 206 -85 340 -111 78 -16 183 -50 360 -117 723 -276 886 -336 952 -348
39 -8 318 -30 620 -50 301 -20 593 -42 648 -50 130 -19 372 -19 505 0 58 9
170 15 250 15 83 -1 181 5 230 13 47 8 87 11 88 6 6 -15 36 -10 86 11 34 16
62 20 108 18 61 -3 62 -3 71 -38 12 -49 18 -52 66 -35 58 20 88 19 100 -4 9
-15 6 -22 -14 -35 -29 -19 -32 -51 -9 -85 14 -20 22 -22 55 -17 42 7 69 -11
69 -45 0 -10 -1 -19 -2 -19 -2 0 -25 7 -52 15 -45 14 -51 14 -68 -2 -13 -11
-18 -27 -16 -47 3 -26 11 -35 52 -54 48 -23 48 -24 25 -36 -14 -6 -25 -22 -27
-37 -2 -21 5 -28 43 -47 25 -12 49 -31 53 -41 4 -11 28 -38 55 -61 42 -37 61
-70 39 -70 -4 0 -29 18 -56 40 -54 45 -54 45 -78 26 -26 -19 -22 -53 11 -95
15 -20 31 -53 35 -74 4 -21 10 -46 13 -55 4 -10 -8 -4 -30 16 -44 37 -41 37
-72 16 -30 -20 -31 -33 -5 -85 18 -34 19 -45 9 -79 -10 -33 -9 -43 5 -64 22
-35 65 -45 84 -20 39 51 53 125 32 165 -10 17 -7 19 24 19 34 0 35 0 41 54 7
51 9 55 45 69 50 20 74 56 66 102 -7 35 -37 65 -67 65 -31 0 -40 55 -10 65 32
10 33 55 2 95 -25 31 -28 42 -24 85 8 77 -11 128 -61 172 -34 31 -44 46 -49
81 -10 81 -60 122 -148 122 -30 0 -52 8 -85 32 -67 48 -135 51 -215 8 -48 -25
-63 -29 -75 -20 -9 9 -26 10 -52 5 -20 -5 -71 -9 -112 -10 -41 -1 -136 -7
-210 -14 -208 -18 -554 -25 -640 -12 -41 5 -302 22 -580 36 l-505 26 -208 44
c-200 42 -220 49 -480 156 -150 61 -297 124 -327 139 -97 49 -242 98 -370 125
-187 40 -268 67 -458 150 -208 90 -242 112 -395 246 -187 164 -243 206 -330
249 -72 35 -173 68 -260 85 -39 8 -28 19 45 45 133 49 204 101 256 188 11 18
47 53 82 78 116 85 133 198 37 239 -28 12 -36 10 -99 -22 -87 -43 -241 -83
-323 -83 -90 0 -242 -48 -298 -94 l-43 -35 -38 38 c-44 45 -112 84 -174 101
-24 6 -46 18 -49 26 -3 7 -11 14 -18 14 -11 0 -8 18 11 73 16 47 24 88 22 118
l-3 47 60 6 c33 3 123 8 200 12 l140 7 120 71 c66 39 121 74 123 78 2 4 19 12
39 19 19 6 69 31 110 56 41 24 134 73 205 109 72 36 148 77 169 91 38 25 39
25 81 8 58 -23 328 -32 462 -16 133 17 278 53 399 101 56 21 134 46 172 55
140 32 145 34 145 60 0 15 -10 31 -25 41 -23 15 -38 16 -128 6 -56 -6 -244
-14 -417 -17 -271 -5 -312 -4 -295 8 11 7 91 58 178 112 86 53 167 109 180
124 20 24 33 28 122 38 55 7 141 24 190 38 96 28 346 151 381 188 11 13 39 31
62 41 23 11 42 23 42 28 0 4 8 16 18 26 10 10 42 53 72 95 29 43 58 81 64 85
57 36 126 220 96 256 -7 9 -18 16 -25 16 -7 0 -62 -44 -122 -98 -110 -101
-319 -250 -421 -301 -151 -76 -304 -111 -483 -111 l-118 0 -16 30 c-9 17 -20
30 -25 30 -12 0 -162 223 -191 284 -24 51 -50 72 -75 58 -13 -7 -16 -31 -18
-130 0 -66 -3 -123 -6 -125 -3 -3 -92 -15 -199 -27 l-194 -21 -54 37 c-29 20
-68 55 -85 78 -17 23 -39 48 -48 56 -10 8 -33 54 -53 103 -34 81 -36 91 -27
139 16 83 -28 106 -85 45z m20 -234 c4 -27 22 -62 51 -98 24 -32 44 -61 44
-64 0 -22 44 -50 89 -56 46 -6 52 -10 59 -38 8 -30 13 -33 78 -49 l69 -16
-100 2 c-81 3 -109 8 -148 27 l-47 23 -143 -139 c-78 -77 -166 -161 -195 -187
-58 -53 -64 -73 -26 -82 14 -4 45 -16 68 -26 22 -11 59 -26 81 -34 l40 -15
-73 0 c-40 -1 -82 -6 -93 -11 -13 -8 -41 -7 -94 3 -64 12 -75 12 -75 1 0 -8
-4 -14 -10 -14 -5 0 -10 -8 -10 -17 0 -10 -74 -97 -165 -193 -136 -144 -172
-176 -206 -186 -23 -7 -52 -23 -65 -35 -13 -12 -27 -19 -31 -16 -3 4 -4 8 -2
10 2 2 27 20 54 41 62 46 284 295 285 319 0 9 10 22 23 28 12 7 37 29 56 50
l33 39 -28 11 c-16 6 -46 13 -67 16 -43 7 -63 26 -125 130 l-44 72 12 113 c13
118 20 149 20 82 0 -22 7 -49 15 -60 8 -10 15 -28 15 -40 0 -11 11 -35 25 -54
14 -19 25 -39 25 -46 0 -26 95 -100 144 -113 54 -13 37 -20 166 69 56 38 240
220 240 237 0 6 20 26 45 44 25 18 45 36 45 40 0 4 -20 40 -45 80 -25 40 -45
80 -45 88 0 8 7 41 17 74 17 63 26 61 38 -10z m1936 -168 c-22 -24 -41 -49
-41 -53 0 -12 -144 -99 -255 -155 -187 -93 -420 -166 -470 -147 -37 14 -60 5
-74 -28 -9 -20 -77 -69 -251 -181 -132 -84 -240 -155 -240 -157 0 -2 22 -15
48 -28 63 -32 186 -63 285 -71 43 -4 76 -10 73 -12 -2 -3 -42 -13 -87 -23
-119 -27 -235 -13 -339 39 l-75 38 -408 -228 c-398 -222 -459 -251 -562 -264
-86 -11 -187 -37 -255 -66 -36 -15 -72 -29 -81 -32 -8 -3 -21 -23 -28 -46 -13
-45 -31 -55 -31 -17 0 14 -7 32 -16 40 -13 13 -13 16 -1 16 15 0 30 81 20 107
-10 25 -38 33 -76 21 -53 -16 -84 7 -92 69 -3 27 -8 63 -11 80 -4 28 -2 32 13
26 10 -3 49 -34 87 -67 l68 -60 30 33 30 34 103 -32 c57 -17 109 -31 117 -31
8 0 90 24 184 54 129 41 218 78 379 157 220 109 319 165 362 205 14 13 29 24
32 24 3 0 13 4 21 10 12 7 9 13 -13 30 -15 12 -27 30 -27 41 0 22 -4 23 -31 8
-17 -9 -26 -4 -60 33 -36 40 -58 82 -47 93 3 3 31 -13 62 -36 l58 -41 111 1
c99 2 117 5 154 26 23 14 48 22 57 19 18 -7 202 105 276 167 53 44 58 64 39
142 -10 38 -14 40 -60 37 -14 0 -32 6 -39 15 -12 15 -62 185 -54 185 2 0 37
-39 79 -87 l75 -88 213 -21 212 -21 60 23 c74 27 406 189 414 202 6 8 92 62
100 62 2 0 -15 -20 -38 -45z m-1165 -243 c5 -24 17 -41 45 -59 22 -14 39 -29
39 -32 0 -4 -42 -33 -94 -64 -52 -32 -124 -80 -161 -106 -37 -27 -73 -48 -79
-46 -6 2 -45 11 -86 21 -58 13 -83 25 -110 51 -19 18 -38 33 -41 33 -4 0 -13
25 -19 56 -11 54 -12 55 -43 52 -25 -2 -34 -9 -41 -33 -5 -16 -18 -52 -30 -78
-18 -42 -23 -47 -45 -43 -15 3 -70 11 -124 17 l-98 13 79 75 c44 42 81 81 84
86 2 6 21 27 44 48 l40 37 54 -17 c41 -13 89 -17 185 -17 115 0 139 3 210 27
44 15 96 36 115 45 35 18 35 18 52 -8 10 -14 21 -40 24 -58z m-548 -482 c3 -8
-455 -254 -541 -292 -87 -37 -89 -37 -66 28 14 38 19 76 17 118 -3 57 -5 61
-28 64 -17 2 -43 -11 -80 -38 -93 -70 -89 -63 30 60 l115 118 198 8 c109 3
212 10 230 14 28 6 38 2 77 -34 25 -22 46 -43 48 -46z m-1698 -308 c19 -31 51
-72 70 -89 52 -48 170 -103 234 -110 50 -5 57 -9 81 -44 l25 -39 -54 -30 c-77
-44 -81 -51 -63 -103 12 -37 13 -47 1 -68 l-13 -24 -1 31 c0 56 -12 93 -31 99
-10 3 -19 18 -21 33 -2 22 -11 29 -48 40 -71 21 -120 44 -133 62 -7 10 -22 20
-35 24 -12 4 -27 17 -34 29 -6 12 -22 30 -35 40 -12 10 -23 25 -23 33 0 8 -5
14 -10 14 -6 0 -19 15 -30 33 -16 26 -20 50 -20 132 l0 99 53 -52 c29 -29 68
-78 87 -110z m951 10 c-45 -57 -51 -61 -126 -67 -77 -6 -80 -8 48 48 37 16 72
36 78 43 6 8 16 14 21 14 5 0 -4 -17 -21 -38z m-386 -348 c14 -6 14 -8 -3 -20
-14 -10 -23 -35 -32 -96 -7 -46 -18 -96 -26 -112 -8 -16 -14 -43 -14 -61 0
-29 -4 -33 -53 -48 -30 -9 -57 -17 -60 -17 -13 0 -7 112 9 162 14 42 15 58 5
101 -6 27 -10 51 -9 53 3 2 146 41 160 43 3 1 14 -2 23 -5z m45 -263 c0 -10
-7 -21 -15 -24 -12 -5 -12 -2 -3 18 13 30 18 31 18 6z m720 -177 c-41 -18
-172 -55 -177 -50 -2 1 23 17 54 34 43 23 71 31 108 31 l50 0 -35 -15z m160
-54 c-19 -36 -112 -89 -218 -124 -97 -33 -102 -34 -112 -16 -11 21 -10 22 85
40 102 19 154 40 201 81 51 44 59 48 44 19z m-1740 -607 c0 -10 -62 -73 -72
-73 -13 0 -9 12 12 48 12 19 28 32 40 32 11 0 20 -3 20 -7z m6130 -3795 c36
-30 93 -69 126 -86 101 -51 154 -130 154 -231 0 -23 -6 -56 -14 -74 -14 -32
-326 -351 -326 -332 1 6 7 39 15 75 19 85 19 154 0 218 -13 41 -34 73 -103
148 -117 129 -125 146 -112 231 6 38 22 107 36 154 l26 86 67 -66 c36 -37 95
-92 131 -123z m-716 -1002 c2 -11 12 -71 22 -132 l17 -111 -81 -97 c-45 -54
-82 -101 -82 -106 0 -18 -166 -291 -223 -365 -96 -126 -130 -220 -162 -450
-36 -260 -51 -294 -242 -556 -82 -112 -164 -237 -183 -276 -19 -40 -36 -73
-39 -72 -3 0 -42 42 -87 92 l-81 92 27 196 c29 208 24 194 95 287 6 7 30 34
54 60 75 79 156 196 204 294 25 51 92 190 150 308 93 191 127 248 307 515 267
395 245 367 274 353 14 -6 27 -20 30 -32z m-5584 -212 c-6 -15 -32 -64 -58
-107 l-47 -79 -11 44 -11 43 65 67 c36 37 67 66 69 64 2 -2 -1 -16 -7 -32z
m840 -808 c0 -7 -11 -28 -25 -47 -13 -19 -35 -56 -49 -84 -29 -60 -100 -157
-110 -148 -10 11 -7 203 4 203 6 0 10 -8 10 -17 0 -13 7 -10 33 14 34 33 117
92 130 93 4 0 7 -6 7 -14z m4660 -1045 l29 -6 -33 -35 c-39 -42 -96 -84 -103
-76 -3 2 -2 41 2 85 l7 79 35 -20 c19 -12 47 -24 63 -27z m-1005 -182 c17 -13
32 -24 34 -26 2 -1 -8 -21 -23 -43 -20 -31 -33 -40 -49 -38 -23 3 -25 12 -41
158 l-6 55 28 -42 c15 -23 41 -52 57 -64z"/>
<path d="M2865 7908 c-15 -22 -14 -24 15 -50 34 -31 89 -38 110 -13 18 22 6
41 -39 65 -51 26 -66 25 -86 -2z"/>
<path d="M2605 7911 c-23 -10 -49 -38 -58 -63 -4 -12 2 -23 18 -34 23 -15 28
-15 65 0 55 22 56 21 14 -16 -38 -34 -84 -117 -84 -154 0 -30 117 -137 167
-152 66 -20 159 -16 183 8 11 11 20 24 20 28 0 5 16 15 36 22 85 34 80 117
-14 208 -31 30 -69 60 -84 68 -40 21 -111 28 -147 16 -29 -10 -30 -10 -25 17
5 22 1 31 -20 44 -28 19 -41 20 -71 8z m341 -192 c4 -6 10 -26 14 -45 6 -26 4
-37 -11 -50 -16 -14 -23 -15 -49 -4 -17 7 -27 16 -22 19 5 3 12 23 16 43 8 42
36 62 52 37z m-226 -60 c0 -27 -2 -30 -15 -19 -11 9 -12 17 -4 31 14 27 19 24
19 -12z"/>
<path d="M3006 7797 c-16 -12 -17 -16 -3 -48 7 -19 21 -40 30 -47 24 -21 77
-20 90 0 10 15 4 25 -33 63 -48 49 -57 52 -84 32z"/>
<path d="M2312 7354 c-12 -8 -22 -22 -22 -31 0 -13 10 -15 61 -10 67 6 83 15
73 40 -8 22 -81 23 -112 1z"/>
<path d="M2492 7358 c-20 -20 -14 -48 14 -58 46 -18 54 -13 54 30 0 37 -2 40
-28 40 -15 0 -33 -5 -40 -12z"/>
<path d="M2644 7318 c11 -40 15 -43 45 -43 45 0 60 24 38 59 -14 21 -25 26
-57 26 l-39 0 13 -42z"/>
<path d="M2797 7353 c-14 -13 -6 -49 13 -61 28 -17 40 -7 40 34 0 29 -3 34
-23 34 -13 0 -27 -3 -30 -7z"/>
<path d="M4145 6688 c-30 -23 -30 -32 1 -170 l15 -67 55 -12 c71 -16 79 -8 79
79 0 55 -5 75 -28 114 -27 46 -61 78 -83 78 -6 0 -24 -10 -39 -22z"/>
<path d="M3984 6462 c-41 -6 -51 -31 -46 -109 4 -70 5 -73 39 -93 44 -26 55
-25 81 3 42 45 20 168 -35 194 -10 5 -28 7 -39 5z"/>
<path d="M3667 6283 c-9 -11 -18 -45 -21 -83 -3 -36 -6 -80 -8 -99 -2 -27 2
-38 24 -54 27 -20 29 -20 62 -4 21 10 45 34 61 62 l27 45 -27 55 c-26 53 -65
95 -90 95 -6 0 -19 -8 -28 -17z"/>
<path d="M3452 6073 c-16 -6 -122 -227 -122 -252 0 -9 14 -22 31 -28 25 -10
37 -9 59 2 67 35 115 107 127 190 5 43 4 49 -23 71 -29 23 -47 27 -72 17z"/>
<path d="M8778 5453 c-10 -12 -17 -49 -21 -110 -6 -102 0 -117 50 -130 21 -5
31 0 50 23 28 35 47 98 38 131 -7 28 -72 103 -90 103 -6 0 -19 -8 -27 -17z"/>
<path d="M7935 5380 c-38 -25 -64 -82 -65 -142 0 -61 32 -100 102 -124 l52
-17 27 31 27 30 5 -28 c7 -32 45 -59 93 -67 45 -7 69 22 83 103 16 90 14 96
-33 132 -36 26 -48 31 -67 23 -33 -12 -56 -40 -64 -78 -3 -18 -10 -33 -15 -33
-14 0 -32 58 -25 80 10 33 -13 77 -50 94 -39 19 -33 19 -70 -4z"/>
<path d="M7903 4991 c-31 -26 -46 -67 -33 -91 17 -31 69 -69 112 -80 61 -17
109 -5 136 34 31 46 28 70 -13 102 -70 53 -161 69 -202 35z"/>
<path d="M7805 4772 c-11 -2 -26 -9 -32 -14 -7 -6 -43 -13 -80 -16 -72 -5 -92
-18 -93 -59 0 -32 78 -75 146 -81 42 -4 58 0 83 17 33 24 71 80 71 104 0 20
-68 55 -95 49z"/>
<path d="M7400 4593 c-53 -15 -192 -72 -203 -82 -4 -4 -4 -19 1 -32 8 -18 27
-30 81 -48 l72 -24 42 23 c98 55 114 68 121 101 3 18 5 33 4 34 -63 39 -73 41
-118 28z"/>
<path d="M6905 4571 c-129 -8 -174 -32 -161 -86 l6 -25 155 0 c148 0 154 1
169 22 9 12 16 30 16 40 0 26 -36 58 -62 56 -13 -1 -68 -4 -123 -7z"/>
<path d="M7568 4024 c-21 -11 -28 -22 -28 -44 0 -37 -13 -45 -35 -20 -23 25
-36 25 -69 -1 -23 -18 -26 -28 -26 -78 0 -43 5 -62 18 -74 27 -25 77 -22 99 6
10 12 26 21 36 19 9 -2 38 9 62 25 l45 28 0 61 c0 55 -3 64 -25 78 -30 19 -42
20 -77 0z"/>
<path d="M7230 3871 c-34 -18 -35 -20 -38 -89 -3 -70 -2 -71 31 -96 42 -32 57
-32 85 -3 18 19 22 35 22 93 0 66 -2 72 -30 92 -35 26 -28 26 -70 3z"/>
<path d="M7008 3782 c-26 -16 -28 -21 -28 -85 l0 -69 73 7 c39 4 73 8 74 9 1
1 -2 27 -6 58 -5 42 -14 62 -32 77 -29 25 -46 25 -81 3z"/>
</g>
</svg>
