<?xml version="1.0" standalone="no"?>
<!DOCTYPE svg PUBLIC "-//W3C//DTD SVG 20010904//EN"
 "http://www.w3.org/TR/2001/REC-SVG-20010904/DTD/svg10.dtd">
<svg version="1.0" xmlns="http://www.w3.org/2000/svg"
 width="1024.000000pt" height="1024.000000pt" viewBox="0 0 1024.000000 1024.000000"
 preserveAspectRatio="xMidYMid meet">
<metadata>
Created by potrace 1.10, written by Peter Selinger 2001-2011
</metadata>
<g transform="translate(0.000000,1024.000000) scale(0.100000,-0.100000)"
fill="#000000" stroke="none">
<path d="M4735 9155 c-33 -19 -73 -45 -89 -58 l-29 -24 71 -56 c76 -61 107
-97 141 -164 45 -90 51 -147 51 -500 l0 -333 -23 0 c-13 0 -424 -36 -913 -79
-1125 -101 -1296 -110 -1639 -86 -140 10 -258 15 -261 12 -3 -3 9 -48 27 -99
29 -82 40 -100 94 -154 38 -38 85 -73 128 -94 61 -30 67 -35 67 -64 0 -227
-67 -1469 -100 -1876 -75 -910 -210 -1638 -442 -2390 -77 -250 -241 -639 -403
-960 -77 -150 -268 -498 -322 -584 -29 -46 -30 -51 -16 -73 9 -13 21 -22 27
-20 29 10 346 413 473 603 257 384 511 909 686 1420 298 867 451 1868 527
3429 11 231 22 425 25 431 6 18 57 24 1115 148 603 71 1144 129 1419 152 l443
37 92 -94 c103 -107 156 -195 182 -305 15 -64 15 -92 -2 -396 -10 -181 -21
-332 -24 -338 -6 -10 -1346 -168 -1353 -159 -3 2 -9 155 -15 340 -11 357 -12
369 -64 415 -43 40 -102 61 -285 105 l-183 43 -55 -18 c-30 -9 -55 -20 -55
-23 0 -3 33 -40 73 -82 154 -161 203 -321 222 -719 4 -95 3 -123 -7 -127 -7
-2 -135 -16 -285 -30 l-271 -26 -357 41 c-197 23 -366 40 -377 38 -15 -2 -25
-18 -38 -61 l-18 -57 152 -139 c162 -148 271 -220 397 -261 l66 -22 129 45
c105 37 612 162 621 153 4 -4 50 -1061 46 -1065 -6 -8 -518 -59 -742 -75 -199
-13 -230 -13 -454 5 -132 10 -243 17 -245 14 -3 -2 6 -42 19 -87 19 -67 32
-92 66 -129 41 -44 129 -99 183 -114 14 -3 57 -22 96 -41 93 -47 130 -50 255
-24 57 12 442 71 854 131 l750 109 1195 75 c657 41 1220 80 1250 85 62 11 104
46 120 98 9 32 6 37 -56 107 -35 41 -64 81 -64 89 0 8 18 88 39 178 22 90 54
226 71 303 61 266 143 477 224 571 18 22 48 67 65 102 l32 64 -21 43 c-43 89
-235 243 -425 341 -141 72 -145 72 -351 -27 -184 -88 -251 -105 -548 -139
-142 -17 -259 -30 -260 -30 -5 0 105 711 123 800 17 84 18 98 5 118 -28 42
-97 77 -268 133 -94 31 -164 59 -156 62 8 3 440 21 960 41 520 20 961 41 981
46 43 12 86 55 99 100 9 31 7 37 -38 87 -123 141 -106 130 -247 176 -154 52
-88 54 -755 -23 -246 -28 -713 -71 -1075 -100 -352 -27 -660 -52 -684 -55
l-44 -5 6 282 c6 260 19 481 32 534 7 32 -32 82 -95 120 -44 27 -370 158 -465
187 -13 4 -41 -5 -80 -28z m2572 -2780 c18 -10 36 -31 41 -45 7 -19 -12 -155
-70 -505 -44 -264 -82 -482 -83 -483 -2 -2 -140 -23 -307 -47 -300 -43 -612
-74 -624 -62 -8 8 110 1125 120 1134 8 9 600 31 766 29 104 -1 130 -4 157 -21z
m-1347 -620 c-52 -536 -56 -566 -75 -570 -45 -9 -1145 -119 -1149 -114 -3 2
-12 216 -20 474 -9 259 -17 504 -20 545 l-4 76 377 53 c353 51 766 97 891 100
l55 1 -55 -565z"/>
<path d="M5736 4524 l-69 -36 29 -24 c16 -13 43 -33 60 -44 42 -27 81 -102 93
-180 7 -43 11 -451 11 -1185 0 -1199 0 -1206 51 -1371 39 -129 94 -221 189
-316 73 -72 103 -94 181 -132 188 -91 295 -106 776 -106 l363 0 623 65 c663
69 705 77 787 136 22 16 48 45 57 63 l16 34 -80 148 c-43 82 -87 168 -96 191
-38 95 -90 335 -132 613 -14 91 -35 190 -46 220 -11 30 -22 61 -24 68 -8 21
-45 -5 -60 -41 -7 -18 -23 -90 -35 -162 -74 -441 -175 -737 -284 -833 -41 -36
-9 -30 -480 -82 -323 -36 -383 -40 -610 -40 -138 0 -291 5 -341 10 -228 26
-358 91 -411 205 l-24 50 0 511 0 510 203 64 c302 94 790 293 1257 512 140 66
338 156 439 201 194 86 221 106 221 168 0 38 -50 107 -138 190 -63 61 -116 97
-300 202 -192 110 -229 127 -266 127 -51 0 -76 -8 -76 -22 0 -6 18 -31 41 -55
73 -79 86 -141 45 -221 -36 -69 -87 -124 -217 -233 -320 -266 -690 -513 -1060
-708 -75 -39 -139 -71 -142 -71 -4 0 -7 274 -7 609 l0 609 35 52 c19 29 35 56
35 60 0 18 -103 99 -169 134 -81 42 -338 146 -361 145 -8 0 -46 -16 -84 -35z"/>
<path d="M3200 4171 c-36 -18 -80 -73 -80 -98 0 -8 21 -26 46 -41 70 -41 127
-96 157 -150 57 -105 57 -96 57 -1083 0 -870 -1 -909 -20 -983 -32 -128 -70
-188 -197 -312 -62 -61 -113 -118 -113 -126 0 -23 150 -217 212 -274 61 -55
112 -84 150 -84 53 0 170 50 245 105 98 72 136 90 970 469 534 243 715 330
795 382 57 37 98 69 92 71 -6 2 -389 -89 -851 -202 -461 -113 -848 -205 -860
-205 -13 0 -23 8 -27 23 -6 23 -9 1187 -2 1187 2 0 281 38 621 85 339 47 637
85 661 85 69 0 142 20 174 47 45 37 42 86 -8 150 -21 26 -56 60 -78 75 -52 35
-291 110 -313 98 -9 -5 -69 -27 -134 -49 -93 -32 -196 -54 -515 -110 -220 -39
-403 -71 -407 -71 -12 0 3 543 17 625 14 88 7 115 -42 169 -41 45 -184 148
-256 184 -99 50 -233 66 -294 33z"/>
</g>
</svg>
