<?xml version="1.0" standalone="no"?>
<!DOCTYPE svg PUBLIC "-//W3C//DTD SVG 20010904//EN"
 "http://www.w3.org/TR/2001/REC-SVG-20010904/DTD/svg10.dtd">
<svg version="1.0" xmlns="http://www.w3.org/2000/svg"
 width="1024.000000pt" height="1024.000000pt" viewBox="0 0 1024.000000 1024.000000"
 preserveAspectRatio="xMidYMid meet">
<metadata>
Created by potrace 1.10, written by Peter Selinger 2001-2011
</metadata>
<g transform="translate(0.000000,1024.000000) scale(0.100000,-0.100000)"
fill="#000000" stroke="none">
<path d="M8849 9985 c-30 -16 -49 -33 -53 -48 -3 -14 -113 -126 -257 -263
-248 -237 -251 -239 -290 -236 -39 4 -40 3 -65 -52 -31 -68 -39 -114 -64 -386
-11 -118 -26 -246 -32 -283 -10 -61 -15 -70 -42 -84 l-31 -16 33 -15 c27 -13
32 -21 32 -49 0 -25 -4 -33 -18 -33 -37 0 -372 -236 -572 -404 -111 -93 -118
-94 -119 -22 -1 19 -5 27 -14 23 -8 -3 -25 13 -42 40 -54 85 -161 150 -290
174 -80 15 -153 37 -255 79 -254 102 -559 170 -767 170 l-72 0 20 48 c54 126
81 340 59 470 -23 141 -109 267 -238 350 -33 21 -160 80 -283 132 -123 51
-264 111 -314 133 -91 40 -262 97 -366 121 -41 10 -70 11 -106 4 -45 -9 -54
-8 -89 15 -22 13 -73 37 -114 52 -65 24 -90 28 -185 29 -109 0 -112 -1 -300
-63 -104 -35 -204 -74 -222 -87 -17 -13 -35 -24 -39 -24 -4 0 -38 29 -75 65
-37 36 -76 65 -87 65 -30 0 -62 -46 -62 -89 0 -20 7 -63 15 -96 l14 -60 -44
-45 c-50 -52 -139 -248 -153 -340 -33 -204 -75 -409 -88 -430 -25 -43 -63
-130 -75 -173 -14 -51 4 -154 35 -200 12 -18 38 -40 59 -51 35 -17 45 -17 118
-6 46 7 84 9 89 4 4 -5 27 -52 50 -104 28 -62 72 -135 127 -209 47 -62 89
-127 94 -145 5 -17 9 -70 9 -117 l0 -86 45 -42 45 -41 -293 -233 c-160 -128
-362 -284 -447 -347 -278 -204 -295 -223 -370 -420 l-45 -115 -156 -165 c-110
-115 -275 -314 -548 -657 -215 -271 -391 -501 -391 -511 0 -20 -100 -112 -170
-156 -246 -156 -397 -401 -440 -716 -10 -73 -9 -83 11 -130 44 -102 121 -130
184 -67 l34 34 30 -31 c26 -26 39 -31 93 -34 59 -4 65 -2 89 25 15 15 41 63
59 106 18 43 38 77 46 77 7 0 28 -13 47 -30 44 -38 77 -50 142 -50 52 0 53 0
84 49 18 27 36 64 42 83 12 39 15 154 5 185 -6 19 14 45 119 158 l126 136 -2
51 c-3 50 -2 51 46 90 27 22 86 63 130 92 96 63 195 153 276 252 51 63 73 80
171 135 390 217 748 465 1082 752 94 80 174 144 178 141 4 -3 8 -11 8 -18 0
-7 22 -57 49 -112 56 -115 142 -234 232 -320 57 -55 370 -286 401 -296 8 -3 5
-14 -11 -36 -27 -38 -39 -128 -22 -161 16 -29 69 -61 103 -61 l27 0 -33 -48
c-73 -109 -72 -189 4 -264 33 -34 49 -59 53 -85 4 -20 18 -48 32 -62 24 -25
31 -26 123 -24 89 2 103 5 172 39 54 27 95 57 148 111 40 40 76 73 80 73 21 0
75 -74 113 -155 26 -57 68 -124 115 -182 41 -51 74 -96 74 -100 0 -4 -11 -18
-24 -32 -22 -24 -53 -87 -141 -291 -21 -47 -43 -117 -51 -156 -7 -38 -69 -313
-139 -610 -118 -507 -125 -543 -119 -609 10 -104 24 -131 75 -145 69 -19 196
-9 249 18 59 31 115 85 151 147 l29 50 0 -49 c0 -27 7 -72 15 -100 8 -28 24
-89 35 -136 11 -47 40 -125 64 -175 25 -49 59 -123 75 -163 91 -218 324 -459
523 -539 81 -33 179 -53 264 -53 l70 0 33 -153 c31 -144 43 -175 212 -573 98
-232 179 -425 179 -428 0 -4 -21 -32 -47 -64 -86 -106 -142 -260 -143 -393 0
-49 3 -58 33 -86 95 -91 201 -103 335 -40 62 28 453 269 501 307 82 66 143
174 161 285 15 91 -14 296 -64 453 -25 75 -56 157 -69 182 -35 62 -101 264
-127 390 -12 58 -34 137 -47 175 -16 45 -27 102 -30 158 -5 74 -9 89 -25 98
-11 6 -29 31 -40 56 -17 39 -20 62 -17 150 4 104 4 104 -23 120 -23 15 -30 15
-55 3 -15 -8 -32 -16 -36 -18 -5 -2 3 18 17 45 13 27 32 78 41 114 9 35 19 68
22 72 3 5 30 -19 60 -53 55 -61 176 -157 223 -177 22 -9 28 -24 47 -104 12
-52 24 -107 27 -124 2 -16 37 -95 76 -175 53 -109 93 -175 163 -265 83 -107
99 -135 147 -255 29 -74 59 -142 67 -151 7 -8 13 -20 13 -26 0 -6 9 -21 19
-35 11 -13 23 -38 27 -54 4 -16 21 -51 39 -79 30 -48 175 -345 175 -359 0 -4
-25 -40 -56 -79 -98 -126 -160 -275 -170 -412 -4 -65 -3 -74 28 -130 30 -55
36 -60 69 -63 50 -4 150 23 234 63 44 21 172 112 345 245 205 157 310 231 413
288 156 87 152 82 152 207 -1 68 -5 90 -29 138 -33 68 -99 128 -188 174 l-63
31 -121 704 c-91 527 -129 722 -150 779 l-28 76 71 79 c176 196 254 359 332
689 54 228 64 325 62 575 -5 370 -5 411 -1 515 3 87 1 107 -19 152 -13 29 -29
58 -37 64 -8 6 -14 16 -14 21 0 5 38 49 84 97 101 107 136 157 186 264 71 154
95 316 66 442 -30 125 -140 304 -243 395 -66 58 -176 125 -256 154 -80 31
-365 76 -475 76 -155 0 -345 47 -509 127 l-92 44 19 32 c10 18 23 64 30 104
11 67 10 75 -13 132 -40 99 -87 170 -162 246 -78 79 -180 145 -237 152 -32 5
-41 1 -67 -28 l-31 -33 0 57 c0 72 -23 188 -56 279 -32 88 -157 296 -223 369
l-50 56 53 44 c29 24 132 105 230 179 98 74 221 172 274 218 81 70 100 82 122
77 70 -15 121 13 561 310 233 158 432 294 441 302 9 9 90 147 178 309 115 210
160 299 155 313 -11 35 -63 71 -104 71 -20 0 -110 -25 -201 -55 -90 -30 -165
-53 -167 -52 -4 5 15 257 23 293 5 28 2 33 -33 54 -21 13 -47 29 -58 36 -17
10 -28 9 -66 -11z m-4494 -313 c-123 -109 -421 -338 -495 -380 -52 -29 -104
-62 -115 -72 -11 -11 -54 -33 -94 -50 l-74 -30 7 57 c5 43 22 85 72 177 115
211 117 212 176 220 28 4 67 14 87 23 20 8 119 26 221 38 220 27 227 28 215
17z m4432 -73 c-4 -44 -11 -67 -28 -85 -13 -13 -26 -21 -30 -17 -4 5 -10 33
-14 64 -7 56 -7 56 27 77 18 11 37 21 42 21 5 1 6 -26 3 -60z m-3734 -76 c118
-53 127 -59 127 -84 0 -22 -16 -42 -72 -92 -73 -65 -172 -146 -195 -160 -9 -6
-104 37 -133 60 -2 2 10 15 28 29 42 34 82 103 82 144 0 42 22 160 29 160 3 0
63 -26 134 -57z m-405 17 l23 -30 -73 -97 c-52 -70 -86 -105 -118 -122 -25
-14 -238 -158 -475 -320 -405 -277 -455 -307 -518 -311 -4 0 -3 8 2 18 5 10
15 48 21 85 11 60 14 67 35 67 13 0 45 17 72 38 26 21 98 64 158 96 80 43 210
134 474 332 200 151 367 274 370 274 4 0 17 -14 29 -30z m3961 -115 c20 -52
20 -57 5 -81 -20 -29 -24 -26 -51 42 l-21 52 21 21 c12 11 22 21 24 21 1 0 11
-25 22 -55z m551 19 c0 -21 -3 -25 -17 -19 -39 16 -62 16 -136 -3 -61 -16 -77
-17 -77 -7 0 8 21 18 53 24 28 5 72 14 97 19 74 16 80 15 80 -14z m-3654 -150
c97 -73 149 -133 190 -219 36 -76 58 -185 49 -243 -15 -91 -29 -139 -50 -167
-12 -16 -25 -42 -28 -56 -4 -14 -31 -48 -60 -76 l-54 -51 -104 -7 c-155 -11
-145 -15 -211 100 -32 55 -58 102 -58 105 0 3 45 30 100 60 92 50 108 64 198
167 129 149 156 219 112 291 -11 18 -39 42 -65 54 -63 31 -91 19 -126 -52 -52
-107 -294 -309 -328 -275 -6 6 -13 28 -16 50 l-6 40 168 143 c92 78 176 154
186 167 10 14 20 25 23 25 3 0 39 -25 80 -56z m2977 -81 c17 -19 16 -21 -4
-47 -29 -37 -39 -20 -38 69 1 68 1 69 13 34 6 -21 19 -46 29 -56z m355 -98
c39 0 72 -1 72 -2 0 -1 -15 -11 -34 -22 -23 -15 -42 -19 -63 -15 -26 5 -108
-6 -167 -23 -14 -4 -11 4 14 36 31 39 36 41 69 34 20 -5 69 -8 109 -8z m-4097
-89 c28 -16 52 -38 59 -55 6 -16 25 -41 41 -57 19 -18 29 -38 29 -56 0 -39 23
-81 53 -97 16 -9 29 -28 37 -57 11 -39 10 -46 -8 -68 -16 -21 -21 -48 -27
-141 -5 -91 -15 -139 -44 -232 -41 -129 -33 -118 -203 -272 l-48 -43 -152 -19
c-211 -25 -222 -25 -273 12 -41 29 -47 31 -125 27 l-83 -3 -22 65 c-42 124
-106 229 -198 327 -17 18 -36 47 -42 65 -7 18 -15 40 -19 48 -5 12 15 26 81
59 223 109 571 340 782 518 l64 54 26 -24 c14 -13 47 -36 72 -51z m3593 31
c20 -53 20 -57 -1 -87 l-17 -24 -7 24 c-10 37 -10 130 0 130 4 0 16 -19 25
-43z m279 -126 c15 -5 -2 -20 -83 -75 -105 -70 -107 -68 -30 27 46 57 68 66
113 48z m-2759 -551 c17 -5 103 -23 192 -40 270 -50 542 -133 797 -242 80 -34
114 -54 105 -59 -8 -4 -50 -11 -94 -14 -43 -3 -99 -11 -124 -16 -25 -5 -311
-43 -636 -83 -547 -68 -594 -76 -644 -101 -30 -15 -71 -42 -91 -60 -19 -17
-78 -57 -131 -88 -80 -47 -111 -74 -193 -164 -54 -59 -106 -116 -115 -127 -32
-33 -64 -14 -106 61 -31 56 -38 78 -39 124 0 60 -11 81 -58 109 l-28 17 62 24
c35 12 57 25 51 27 -24 8 -11 31 33 57 58 34 164 133 212 198 21 28 56 86 78
129 l41 77 57 -26 c43 -19 57 -31 57 -47 0 -20 1 -20 19 3 17 22 23 23 137 23
80 0 131 5 155 14 21 9 71 53 128 114 51 55 95 100 98 100 4 0 20 -4 37 -10z
m1079 -588 c-11 -9 -74 -60 -140 -113 -65 -53 -134 -102 -153 -109 -54 -21
-101 -59 -117 -97 -13 -33 -15 -34 -28 -17 -7 10 -11 23 -8 27 3 5 -4 21 -14
36 -11 14 -24 38 -28 51 -4 14 -20 50 -36 82 l-28 56 92 17 c51 9 173 31 272
49 217 41 216 41 188 18z m367 -126 c25 -17 50 -30 56 -28 6 1 30 -37 53 -85
23 -49 55 -110 71 -138 44 -77 48 -87 61 -175 27 -186 -15 -373 -122 -537
l-40 -61 -44 47 c-69 74 -119 95 -305 132 -91 18 -167 34 -169 36 -19 15 194
80 300 92 108 12 167 30 221 68 38 26 98 105 98 129 0 7 -25 28 -55 47 -48 30
-67 35 -167 46 -109 11 -117 11 -213 -13 -64 -17 -139 -46 -208 -81 l-109 -55
-26 32 c-49 57 -52 50 79 186 90 93 139 136 183 159 41 21 95 66 165 137 58
58 109 102 115 99 6 -4 31 -20 56 -37z m-2758 -9 c-6 -7 -16 -73 -23 -147 -11
-123 -15 -139 -42 -178 -76 -112 -227 -228 -359 -276 -42 -15 -141 -37 -236
-51 -90 -13 -174 -30 -185 -38 -12 -8 -50 -39 -84 -69 -119 -103 -347 -202
-498 -215 l-78 -6 49 45 c27 24 212 185 412 357 372 319 399 338 559 402 136
53 188 87 211 135 l21 43 93 4 c51 1 110 4 132 5 30 2 36 -1 28 -11z m1623 -3
c14 -9 25 -24 25 -34 0 -30 22 -80 35 -80 14 0 25 -30 25 -71 0 -51 -165 -247
-251 -298 -30 -18 -76 -51 -102 -74 -80 -74 -95 -84 -139 -101 -24 -10 -82
-39 -130 -67 -49 -27 -94 -49 -103 -49 -8 0 -24 -11 -37 -23 -38 -39 -284
-161 -388 -192 -13 -4 -36 -16 -50 -26 -14 -10 -110 -50 -215 -90 l-190 -72
-114 12 c-63 7 -129 20 -148 29 -31 15 -37 15 -91 -5 l-59 -21 -11 84 -11 85
29 46 c33 52 38 97 15 123 -14 16 -9 21 67 64 122 68 269 203 326 299 9 15 20
27 24 27 4 0 41 -18 83 -40 146 -77 191 -58 499 204 120 103 235 194 255 202
116 49 213 67 401 74 102 3 195 7 208 8 12 1 34 -5 47 -14z m246 -464 c17 -10
12 -17 -51 -76 -82 -78 -131 -149 -158 -228 -25 -74 -74 -127 -111 -120 -20 4
-39 -4 -76 -30 -28 -20 -147 -94 -265 -165 -442 -263 -875 -491 -932 -491 -43
0 -115 -24 -141 -48 -11 -9 -26 -31 -36 -49 l-16 -31 -83 66 c-61 50 -99 91
-148 162 l-65 95 138 7 c309 14 386 43 1022 386 283 152 518 279 523 280 4 2
8 -3 8 -12 0 -9 5 -16 10 -16 6 0 10 9 10 20 0 15 21 30 93 63 83 39 97 50
142 109 59 77 96 99 136 78z m98 -166 c-7 -21 -6 -31 5 -43 14 -15 11 -19 -31
-44 -44 -27 -46 -27 -65 -10 -20 18 -19 19 39 70 32 29 59 53 60 53 1 0 -2
-12 -8 -26z m1315 -107 c52 -20 61 -27 73 -62 7 -22 36 -61 64 -89 89 -87 89
-87 38 -161 l-43 -64 -16 25 c-20 32 -129 97 -149 89 -9 -4 -54 -29 -99 -56
-46 -28 -86 -49 -88 -47 -2 3 10 27 28 54 47 73 87 166 104 242 16 73 22 92
27 92 1 0 29 -10 61 -23z m-3854 -173 c0 -3 -34 -52 -76 -109 -73 -100 -250
-275 -277 -275 -42 2 -409 79 -397 83 8 4 49 18 90 33 41 15 111 44 155 65 83
39 281 165 304 193 11 13 34 16 107 16 52 0 94 -3 94 -6z m2795 -54 c134 -24
205 -43 340 -91 93 -34 174 -65 179 -69 4 -5 -5 -16 -20 -26 -16 -10 -83 -73
-149 -142 l-120 -124 -50 47 c-138 130 -359 235 -547 260 l-48 6 113 84 c61
46 117 84 122 85 6 0 86 -13 180 -30z m-3679 -324 c-11 -72 11 -88 184 -134
l144 -39 -44 -28 c-24 -15 -82 -46 -128 -68 -75 -36 -87 -39 -115 -29 -18 6
-122 14 -232 17 -215 7 -245 10 -245 26 0 6 53 70 117 142 65 73 118 133 119
135 1 1 43 6 95 11 52 4 98 9 103 10 4 0 5 -19 2 -43z m4504 -16 c32 0 61 -4
64 -9 5 -7 -304 -221 -319 -221 -2 0 -16 17 -29 37 l-25 37 102 105 102 106
23 -27 c21 -25 31 -28 82 -28z m-1178 16 c35 -18 95 -51 133 -72 85 -48 174
-88 261 -118 l65 -23 -250 -146 c-138 -81 -254 -147 -259 -147 -4 0 -43 36
-87 81 -91 91 -180 155 -275 194 -36 15 -67 29 -68 30 -9 8 50 73 136 150 l93
85 94 0 c87 0 98 -2 157 -34z m1822 -86 c34 -19 107 -45 165 -60 l105 -26 -68
-38 c-165 -90 -418 -273 -559 -405 -281 -261 -434 -408 -447 -428 -8 -13 -17
-23 -20 -23 -10 1 -78 96 -110 155 -19 33 -46 79 -62 101 -15 23 -35 62 -43
88 -15 45 -15 46 16 101 36 64 50 73 137 92 56 11 75 23 160 92 53 43 113 86
132 96 79 40 340 230 410 298 l75 74 24 -42 c17 -29 42 -51 85 -75z m-2633
-151 c-22 -35 -43 -76 -46 -91 -9 -37 -18 -42 -119 -67 -71 -17 -104 -21 -155
-15 l-65 7 -152 -79 c-151 -79 -152 -79 -184 -63 l-33 15 85 23 c63 17 168 65
394 181 170 87 310 157 312 155 2 -1 -15 -31 -37 -66z m3422 -19 c191 -35 199
-37 276 -89 62 -43 161 -147 161 -170 0 -8 20 -41 46 -73 41 -52 47 -68 65
-158 10 -56 16 -113 13 -128 -13 -52 -124 -195 -270 -349 -187 -196 -646 -579
-787 -655 -49 -27 -108 -62 -131 -77 -22 -16 -97 -63 -165 -105 -195 -121
-293 -131 -337 -34 -20 44 -66 88 -94 88 -16 0 -18 11 -18 128 0 97 -5 146
-21 207 -26 99 -93 236 -166 338 -30 42 -55 81 -55 86 0 5 13 14 29 20 15 7
106 93 202 193 96 99 219 219 274 267 181 156 411 312 615 416 47 24 105 62
130 84 25 22 50 40 56 41 6 0 86 -13 177 -30z m-1946 -108 c-3 -15 -37 -81
-76 -147 -39 -65 -71 -126 -71 -136 0 -14 -605 -590 -764 -727 -89 -77 -224
-132 -322 -132 l-41 0 -68 113 c-82 135 -113 177 -131 177 -16 0 -84 39 -84
48 0 4 18 19 39 35 26 18 41 23 43 15 3 -7 37 21 79 63 l74 75 174 16 c119 12
177 21 185 31 6 8 180 112 386 232 206 119 420 250 475 290 55 41 102 74 104
74 2 1 1 -11 -2 -27z m-1147 -26 c19 -18 84 -72 143 -121 l109 -88 -125 -48
c-68 -26 -145 -50 -170 -54 l-45 -7 -58 97 -57 96 17 54 c9 30 29 68 43 85 24
29 30 31 67 25 26 -5 54 -19 76 -39z m-3364 -25 c5 -5 34 -16 64 -24 30 -9 81
-23 113 -32 l58 -17 -126 -89 c-69 -50 -141 -97 -160 -105 -36 -15 -102 -17
-171 -6 l-42 7 109 138 c104 131 129 152 155 128z m2874 -165 c0 -8 -19 -21
-42 -28 -23 -8 -43 -19 -45 -25 -7 -20 26 -22 102 -4 54 13 77 15 83 7 4 -6
19 -44 33 -83 23 -63 24 -75 12 -85 -11 -8 -13 -23 -9 -49 5 -33 2 -40 -31
-70 -65 -57 -218 -148 -299 -179 -19 -8 -28 -5 -44 13 -12 12 -19 30 -16 40 8
31 -14 85 -44 109 l-30 23 24 59 c22 54 23 61 9 93 -8 19 -19 43 -26 53 -15
25 15 49 112 90 64 27 82 31 126 25 40 -5 55 -3 65 9 16 20 20 20 20 2z
m-3189 -282 c30 -9 57 -19 62 -23 4 -4 -46 -57 -111 -118 l-117 -110 -27 20
-26 20 75 113 c42 63 79 114 83 114 3 0 31 -7 61 -16z m4879 -264 c18 -36 52
-93 76 -127 l44 -62 -222 -168 c-123 -91 -275 -210 -338 -264 -94 -79 -145
-113 -280 -184 -182 -96 -254 -154 -265 -211 -3 -19 -10 -34 -15 -34 -5 0 -32
73 -60 163 -28 89 -60 188 -70 220 l-19 58 47 21 c26 11 75 33 109 48 36 17
161 104 306 214 221 167 262 203 423 370 l177 185 27 -82 c15 -45 41 -111 60
-147z m-5263 -157 c4 -11 -3 -24 -22 -39 -32 -26 -33 -25 12 -48 18 -9 37 -25
43 -36 6 -11 17 -20 26 -20 8 0 -19 -33 -60 -74 -69 -69 -176 -223 -176 -254
0 -22 -35 -9 -38 15 -4 27 -66 83 -92 83 -27 0 -62 -15 -85 -37 -19 -19 -20
-19 -45 3 -14 12 -35 31 -48 41 l-22 18 83 73 c83 73 166 132 138 98 -8 -9
-12 -18 -10 -19 55 -40 55 -40 98 11 49 59 53 73 23 81 -23 6 -23 6 11 46 31
36 36 38 59 28 23 -10 29 -8 54 18 32 33 42 36 51 12z m5595 -308 c17 -33 41
-91 54 -129 l22 -70 -92 -51 c-131 -73 -485 -313 -716 -485 -109 -82 -201
-153 -204 -159 -3 -5 -49 -26 -103 -46 -106 -42 -170 -91 -205 -158 -10 -21
-21 -37 -24 -35 -5 6 -47 378 -43 382 2 2 46 25 98 50 159 80 567 342 671 431
122 105 237 193 375 288 125 86 113 88 167 -18z m1826 -55 c11 -21 8 -117 -18
-550 -37 -639 -52 -741 -130 -875 -16 -28 -42 -77 -58 -110 -36 -74 -133 -167
-272 -260 -151 -101 -280 -158 -470 -205 -149 -38 -175 -41 -265 -38 -83 2
-110 8 -156 29 -79 37 -134 91 -187 182 -28 48 -67 97 -99 126 l-54 47 -14
104 c-21 158 -58 307 -111 448 l-24 62 42 38 c58 53 127 154 172 255 l38 86
27 -19 c36 -27 185 -53 311 -54 192 -2 282 42 610 296 129 100 273 206 320
235 46 30 87 59 91 64 4 6 55 53 115 104 84 71 110 88 114 76 3 -9 11 -27 18
-41z m-3468 -272 c0 -7 11 -80 24 -163 l24 -149 -25 -33 c-14 -19 -35 -33 -47
-33 -13 -1 -36 -20 -61 -51 -37 -47 -72 -76 -80 -67 -8 8 106 408 125 440 11
18 20 41 20 51 0 9 5 17 10 17 6 0 10 -6 10 -12z m1693 -213 c-10 -19 -60
-108 -112 -198 -111 -192 -143 -221 -268 -243 -117 -21 -175 -51 -460 -242
l-272 -182 -70 0 c-65 0 -71 2 -95 31 -33 39 -35 85 -4 95 12 3 42 19 67 34
26 15 67 30 94 34 67 8 115 35 262 150 281 219 523 386 755 520 123 71 140 71
103 1z m-1714 -492 c-6 -10 -60 -55 -120 -100 l-108 -82 6 37 c3 20 9 55 12
77 l6 39 105 26 c58 15 106 26 108 24 2 -1 -2 -10 -9 -21z m1427 -324 l61
-116 7 -144 c11 -223 -14 -456 -75 -680 -19 -70 -31 -93 -84 -158 -84 -106
-139 -155 -215 -195 -90 -46 -155 -60 -259 -53 -172 12 -268 60 -378 190 -139
167 -228 321 -289 502 -52 157 -74 273 -62 327 9 37 8 52 -6 78 -9 18 -15 34
-14 35 2 1 25 17 52 36 l49 34 26 -34 c53 -71 102 -109 162 -125 191 -54 343
-16 489 122 111 106 148 135 260 207 196 127 194 127 276 -26z m-1547 -67
c-24 -16 -79 -68 -123 -116 -43 -48 -80 -85 -82 -84 -1 2 10 46 25 98 l29 95
73 12 c40 7 78 15 83 17 36 15 33 2 -5 -22z"/>
<path d="M4375 8744 c-101 -123 -116 -134 -176 -134 -59 0 -96 -13 -131 -47
-40 -38 -47 -87 -17 -120 43 -45 96 -66 159 -61 51 4 66 11 167 81 125 87 163
125 188 191 23 59 14 105 -29 151 -53 56 -70 50 -161 -61z"/>
<path d="M9200 5911 c-193 -65 -434 -213 -655 -402 -297 -254 -765 -696 -765
-723 0 -6 5 -28 11 -49 12 -45 48 -72 84 -63 15 4 198 166 413 364 213 196
411 379 441 405 139 123 370 247 546 291 120 31 127 171 10 191 -16 2 -55 -4
-85 -14z"/>
<path d="M6300 5462 c-14 -2 -36 -14 -50 -26 -14 -13 -41 -34 -61 -47 -20 -13
-91 -77 -158 -142 -112 -108 -122 -120 -119 -150 4 -38 22 -44 136 -46 l74 -1
111 87 c187 144 227 191 213 248 -10 39 -97 85 -146 77z"/>
<path d="M1712 4855 c-48 -96 -47 -95 -28 -95 9 0 23 26 37 68 12 37 26 72 31
79 6 7 8 17 6 23 -2 6 -22 -28 -46 -75z"/>
<path d="M8877 4009 c-28 -16 -49 -74 -41 -114 5 -27 -4 -52 -51 -144 -31 -61
-78 -144 -104 -184 -121 -185 -320 -397 -489 -522 -77 -56 -82 -62 -82 -97 0
-42 21 -61 78 -72 29 -5 45 1 110 45 114 76 196 146 308 261 113 116 172 194
296 388 107 168 118 190 125 249 7 62 -10 113 -54 162 -36 40 -63 47 -96 28z"/>
<path d="M6805 2527 c-86 -39 -207 -110 -225 -132 -10 -12 -11 -24 -2 -54 18
-59 44 -76 116 -76 59 0 62 2 107 47 33 33 62 51 105 64 51 17 62 25 82 61 19
35 21 46 11 65 -33 66 -90 73 -194 25z"/>
<path d="M2296 9449 l-26 -21 2 -176 3 -177 53 -11 c47 -11 53 -10 62 6 6 10
10 95 10 187 l0 169 -30 22 c-36 27 -41 27 -74 1z"/>
<path d="M2082 9223 c-31 -6 -56 -46 -48 -78 14 -56 149 -88 180 -43 27 38 20
65 -21 92 -42 26 -76 35 -111 29z"/>
<path d="M1903 9088 c-53 -14 -61 -75 -15 -112 46 -37 66 -45 118 -46 50 0 51
0 62 39 16 52 15 58 -10 75 -51 33 -122 53 -155 44z"/>
<path d="M9797 8829 c-46 -27 -182 -373 -160 -408 17 -28 61 -37 91 -20 22 12
39 46 94 189 37 96 67 181 67 188 1 14 -48 61 -64 61 -5 0 -18 -4 -28 -10z"/>
<path d="M9465 8674 c-16 -8 -31 -16 -32 -18 -2 -1 4 -25 12 -52 8 -27 15 -84
15 -126 0 -68 3 -79 22 -92 31 -22 71 -20 93 4 23 25 32 143 15 194 -13 41
-65 106 -84 106 -6 0 -24 -7 -41 -16z"/>
<path d="M9871 8450 c-99 -106 -103 -112 -108 -164 -5 -46 -2 -57 16 -75 40
-40 89 -22 117 45 7 18 36 54 64 80 29 28 64 74 82 111 29 60 30 64 14 88 -12
18 -25 25 -49 25 -29 0 -45 -13 -136 -110z"/>
<path d="M604 8533 c-21 -4 -54 -50 -54 -75 0 -8 9 -23 20 -33 13 -11 20 -31
20 -52 0 -40 23 -88 45 -97 37 -14 84 -6 96 15 14 26 2 194 -15 207 -21 17
-91 38 -112 35z"/>
<path d="M9189 8468 c-25 -25 -29 -37 -24 -62 20 -94 81 -160 160 -173 41 -7
65 12 65 49 0 17 -155 218 -167 218 -3 0 -18 -14 -34 -32z"/>
<path d="M424 8360 c-60 -23 -61 -85 -3 -132 88 -71 205 -34 169 52 -16 39
-131 93 -166 80z"/>
<path d="M273 8173 c-26 -5 -38 -19 -47 -55 -5 -24 -1 -31 31 -52 58 -37 107
-48 190 -44 81 4 103 18 103 64 0 48 -182 105 -277 87z"/>
<path d="M9796 7419 c-25 -20 -26 -23 -26 -138 0 -110 1 -119 23 -139 30 -28
68 -28 95 1 20 21 22 34 22 143 l0 119 -31 18 c-39 22 -51 22 -83 -4z"/>
<path d="M580 7140 c-18 -18 -20 -33 -20 -169 0 -135 2 -151 21 -175 21 -26
60 -34 88 -17 16 10 41 111 41 168 0 53 -25 127 -59 175 -30 43 -43 46 -71 18z"/>
<path d="M9491 7102 c-31 -12 -49 -27 -62 -51 -10 -19 -17 -36 -16 -38 7 -7
201 -33 213 -29 7 3 16 22 20 42 6 34 4 40 -25 66 -36 32 -66 35 -130 10z"/>
<path d="M9282 6947 c-53 -56 1 -126 103 -135 87 -7 134 17 135 70 0 16 -57
59 -99 73 -66 22 -113 20 -139 -8z"/>
<path d="M323 6870 c-42 -25 -43 -58 -4 -102 25 -28 35 -32 93 -36 59 -4 67
-2 82 19 28 41 20 55 -59 98 -41 23 -75 41 -77 41 -2 0 -18 -9 -35 -20z"/>
<path d="M245 6697 c-78 -21 -101 -36 -108 -73 -9 -47 80 -91 159 -79 61 9 84
34 84 88 -1 36 -5 45 -33 62 -32 20 -33 20 -102 2z"/>
<path d="M2630 2831 c-9 -3 -26 -14 -39 -23 -23 -16 -23 -19 -16 -120 8 -130
9 -133 51 -158 39 -25 56 -22 80 14 14 22 15 42 9 136 -7 107 -8 110 -39 133
-17 14 -38 21 -46 18z"/>
<path d="M2944 2722 c-12 -2 -29 -11 -38 -21 -20 -23 -118 -261 -113 -275 3
-6 18 -19 35 -29 l30 -17 41 47 c47 53 109 171 117 224 5 32 3 38 -22 55 -16
11 -39 18 -50 16z"/>
<path d="M2250 2663 c-24 -9 -50 -35 -50 -51 0 -8 20 -60 43 -116 24 -55 49
-117 55 -136 l11 -35 -31 38 c-47 58 -115 106 -174 123 -60 17 -77 12 -131
-39 -59 -56 -42 -80 73 -108 42 -10 77 -19 78 -21 22 -38 66 -83 92 -94 70
-29 114 -12 114 46 0 20 1 20 22 6 12 -9 39 -16 60 -16 36 0 37 1 44 46 5 37
3 51 -13 72 -11 15 -23 43 -27 62 -10 57 -52 136 -97 184 -23 26 -44 46 -48
45 -3 0 -13 -3 -21 -6z"/>
<path d="M4179 1684 c-15 -7 -32 -28 -39 -46 -8 -18 -22 -45 -32 -60 -10 -14
-18 -39 -18 -55 -1 -15 -14 -93 -29 -173 -17 -85 -25 -151 -21 -160 5 -9 19
-21 32 -28 38 -21 75 -1 87 45 37 139 111 446 109 447 -2 2 -17 12 -33 23 -27
19 -33 20 -56 7z"/>
<path d="M3948 1670 c-9 -6 -22 -27 -28 -48 -7 -20 -18 -47 -25 -58 -19 -29
-39 -218 -26 -242 5 -10 21 -24 35 -32 24 -12 29 -11 54 7 23 17 30 34 45 114
10 52 22 114 27 139 14 74 12 83 -25 108 -40 25 -35 24 -57 12z"/>
<path d="M3685 1475 c-5 -2 -22 -6 -38 -9 -37 -9 -67 -40 -67 -71 0 -34 33
-65 70 -65 22 0 39 -9 61 -35 34 -39 79 -52 123 -35 27 10 28 13 22 53 -4 23
-18 58 -31 78 -32 49 -108 94 -140 84z"/>
<path d="M3437 1290 c-20 -16 -27 -30 -25 -48 3 -23 13 -28 138 -64 125 -35
136 -37 148 -21 20 28 14 49 -25 83 -46 41 -87 58 -155 66 -45 5 -57 3 -81
-16z"/>
</g>
</svg>
