<?xml version="1.0" standalone="no"?>
<!DOCTYPE svg PUBLIC "-//W3C//DTD SVG 20010904//EN"
 "http://www.w3.org/TR/2001/REC-SVG-20010904/DTD/svg10.dtd">
<svg version="1.0" xmlns="http://www.w3.org/2000/svg"
 width="1024.000000pt" height="1024.000000pt" viewBox="0 0 1024.000000 1024.000000"
 preserveAspectRatio="xMidYMid meet">
<metadata>
Created by potrace 1.10, written by Peter Selinger 2001-2011
</metadata>
<g transform="translate(0.000000,1024.000000) scale(0.100000,-0.100000)"
fill="#000000" stroke="none">
<path d="M4679 9177 c-33 -17 -39 -33 -108 -268 -38 -127 -65 -240 -72 -301
-11 -100 -8 -432 5 -458 4 -8 34 -37 67 -63 66 -54 65 -53 48 -169 l-11 -73
-481 -109 c-265 -60 -511 -117 -547 -127 -36 -10 -84 -22 -106 -28 -28 -7 -54
-25 -78 -51 -34 -37 -36 -44 -36 -106 0 -45 11 -103 35 -187 29 -100 42 -182
75 -457 22 -184 44 -346 48 -360 5 -14 32 -57 61 -97 58 -79 34 -69 246 -104
l70 -11 853 268 c468 147 855 265 858 261 3 -3 -18 -194 -47 -424 -51 -399
-54 -430 -56 -678 -1 -143 -6 -273 -11 -289 -7 -25 -32 -43 -163 -116 -172
-96 -259 -152 -434 -283 -253 -190 -310 -244 -817 -782 l-501 -530 -358 -537
c-360 -540 -461 -707 -568 -944 -191 -424 -297 -787 -336 -1153 -12 -114 -12
-138 0 -166 15 -38 47 -59 74 -50 41 13 51 39 75 211 44 304 99 519 209 815
117 314 178 444 342 729 64 110 516 787 599 896 l31 40 -3 -370 c-3 -355 -2
-388 32 -771 l35 -400 86 -385 c51 -223 94 -392 103 -402 36 -42 142 -1 142
55 0 12 -6 34 -14 49 -8 15 -46 164 -85 333 -69 294 -73 320 -118 713 -39 347
-46 445 -50 666 -5 269 6 456 32 556 8 30 15 83 15 118 l0 62 187 218 c313
364 580 616 918 867 252 187 440 307 638 406 113 57 851 344 977 381 271 78
478 108 775 114 l230 5 19 -27 c10 -14 23 -58 29 -98 9 -62 7 -82 -12 -153
-19 -73 -158 -723 -197 -923 -45 -227 -96 -606 -204 -1504 -66 -549 -120
-1021 -120 -1048 0 -39 5 -54 25 -73 26 -27 62 -32 87 -12 21 17 56 157 62
252 3 44 68 590 146 1213 146 1180 158 1255 260 1677 47 194 100 507 100 587
0 69 -22 134 -61 181 -50 61 -66 65 -270 72 l-184 7 -459 -101 -459 -101 -311
-114 c-171 -63 -319 -117 -328 -121 -17 -7 -18 11 -18 286 l0 294 54 408 c30
225 56 410 58 411 1 2 266 115 588 252 l585 249 180 129 c99 70 195 142 213
160 85 80 127 248 83 334 -23 46 -81 90 -162 124 -53 21 -69 22 -603 30 -302
4 -551 9 -553 11 -2 2 0 14 5 26 6 17 48 41 168 93 153 69 790 413 828 448 22
22 15 54 -18 75 -21 14 -31 12 -132 -31 -153 -65 -448 -209 -584 -286 -63 -36
-116 -64 -118 -63 -23 21 339 436 483 555 65 55 75 67 75 95 0 42 -23 60 -74
60 -58 -1 -89 -25 -258 -204 -163 -172 -303 -343 -394 -480 -32 -49 -65 -90
-71 -90 -25 -2 -25 54 -4 203 23 153 76 357 112 428 11 21 42 63 69 93 64 70
66 111 9 140 -44 23 -87 -3 -159 -96 -66 -85 -106 -176 -145 -324 -28 -109
-60 -382 -50 -433 9 -49 37 -101 73 -135 27 -26 28 -30 18 -67 -5 -22 -13 -40
-17 -40 -29 0 -1110 -162 -1132 -170 -27 -9 -28 -8 -23 18 3 15 8 45 12 67 10
66 14 75 44 90 16 8 172 143 346 300 174 157 322 285 330 285 16 0 54 57 54
81 0 25 -34 49 -69 49 -57 0 -189 -101 -366 -280 -157 -159 -271 -258 -282
-246 -3 3 -1 31 5 62 11 53 36 113 123 302 53 113 51 155 -10 187 -27 13 -31
13 -62 -8 -27 -18 -44 -47 -87 -146 -54 -126 -114 -316 -127 -403 -4 -27 -11
-48 -15 -48 -13 0 -23 185 -15 293 13 200 56 388 111 494 39 74 43 119 13 157
-30 38 -51 47 -80 33z m1966 -1252 c248 -8 481 -15 518 -15 59 0 71 -3 92 -25
20 -19 25 -34 25 -72 0 -82 -19 -100 -323 -296 l-276 -178 -442 -185 c-242
-102 -443 -183 -446 -180 -12 12 214 924 235 949 19 21 24 21 617 2z m-780
-37 c-4 -18 -16 -50 -27 -72 -11 -21 -28 -91 -39 -155 -11 -64 -42 -183 -69
-266 -48 -149 -82 -299 -95 -427 l-7 -67 -122 -40 c-66 -22 -263 -86 -436
-141 -289 -94 -315 -100 -327 -84 -16 22 -20 56 -37 344 -15 236 -14 254 7
505 21 243 23 260 42 263 16 3 1076 166 1108 171 5 0 5 -14 2 -31z m-1275
-187 c0 -6 -10 -72 -22 -148 -40 -250 -24 -727 30 -908 l18 -60 -130 -43 c-72
-23 -236 -72 -364 -108 -239 -67 -246 -68 -355 -47 -37 7 -93 56 -117 104 -25
47 -35 121 -55 384 -12 152 -26 257 -52 378 -19 92 -33 171 -30 174 5 4 1044
279 1070 282 4 1 7 -3 7 -8z"/>
</g>
</svg>
