<?xml version="1.0" standalone="no"?>
<!DOCTYPE svg PUBLIC "-//W3C//DTD SVG 20010904//EN"
 "http://www.w3.org/TR/2001/REC-SVG-20010904/DTD/svg10.dtd">
<svg version="1.0" xmlns="http://www.w3.org/2000/svg"
 width="1024.000000pt" height="1024.000000pt" viewBox="0 0 1024.000000 1024.000000"
 preserveAspectRatio="xMidYMid meet">
<metadata>
Created by potrace 1.10, written by Peter Selinger 2001-2011
</metadata>
<g transform="translate(0.000000,1024.000000) scale(0.100000,-0.100000)"
fill="#000000" stroke="none">
<path d="M4064 8988 c-19 -5 -42 -23 -61 -51 -36 -50 -35 -82 5 -121 36 -34
215 -92 344 -112 288 -44 582 -111 786 -179 8 -3 -171 -280 -498 -769 -506
-757 -513 -767 -671 -942 -156 -174 -179 -209 -179 -271 0 -59 43 -113 92
-113 27 0 47 16 143 113 224 227 536 613 757 937 96 141 506 787 533 840 10
19 18 53 19 76 1 50 -12 53 187 -46 460 -231 738 -461 918 -760 47 -78 51 -90
51 -147 0 -34 -11 -102 -24 -152 -23 -87 -29 -97 -153 -261 l-128 -171 -360
-273 c-198 -150 -387 -292 -420 -316 -88 -64 -185 -166 -237 -250 -91 -145
-137 -348 -108 -469 7 -32 36 -88 73 -144 311 -474 537 -1049 632 -1611 51
-302 59 -416 60 -821 0 -543 -17 -703 -166 -1584 -70 -410 -98 -596 -90 -600
15 -10 201 -54 206 -49 6 6 201 1132 219 1263 48 348 69 789 56 1141 -16 417
-63 747 -161 1124 -92 357 -182 566 -421 983 -165 288 -181 323 -186 416 -5
95 20 167 81 237 23 26 251 215 507 419 256 204 492 398 524 431 90 91 172
207 232 328 72 148 88 214 82 341 -4 90 -9 111 -52 218 -80 201 -147 293 -316
438 -414 356 -846 574 -1494 754 -173 49 -443 109 -596 135 -69 11 -132 22
-140 24 -8 1 -29 -1 -46 -6z"/>
</g>
</svg>
