<?xml version="1.0" standalone="no"?>
<!DOCTYPE svg PUBLIC "-//W3C//DTD SVG 20010904//EN"
 "http://www.w3.org/TR/2001/REC-SVG-20010904/DTD/svg10.dtd">
<svg version="1.0" xmlns="http://www.w3.org/2000/svg"
 width="1024.000000pt" height="1024.000000pt" viewBox="0 0 1024.000000 1024.000000"
 preserveAspectRatio="xMidYMid meet">
<metadata>
Created by potrace 1.10, written by Peter Selinger 2001-2011
</metadata>
<g transform="translate(0.000000,1024.000000) scale(0.100000,-0.100000)"
fill="#000000" stroke="none">
<path d="M4490 8564 c-153 -25 -339 -48 -420 -53 -165 -10 -214 -21 -265 -63
-41 -34 -78 -100 -73 -130 2 -12 20 -35 41 -52 60 -48 122 -47 347 8 158 38
220 48 420 66 210 18 352 22 1335 30 746 6 1111 13 1132 20 52 19 66 83 28
134 -13 17 -75 20 -1062 52 -576 18 -1084 33 -1128 33 -44 -1 -204 -21 -355
-45z"/>
<path d="M5790 6200 c-28 -16 -1027 -50 -1935 -66 -884 -15 -910 -16 -1491
-59 -653 -47 -645 -46 -663 -113 -6 -20 -11 -44 -11 -53 0 -40 16 -40 963 -19
502 11 1236 26 1632 35 396 8 789 17 872 20 l153 5 -6 -77 c-3 -43 -14 -145
-25 -228 -18 -135 -19 -189 -13 -550 5 -321 3 -437 -10 -588 -37 -444 -40
-714 -23 -2048 11 -836 13 -1277 6 -1300 -5 -19 -16 -110 -24 -204 -17 -204
-34 -296 -57 -322 -28 -30 -24 -110 7 -155 21 -30 33 -38 70 -44 110 -16 185
74 185 225 0 36 9 174 20 306 46 576 49 1021 14 1915 -19 497 -17 715 26 1910
28 804 47 1140 64 1158 4 4 849 7 1878 7 l1870 0 19 24 c29 36 24 82 -13 123
l-33 36 -440 36 -440 37 -1290 -1 c-709 -1 -1297 -5 -1305 -10z"/>
<path d="M6795 5086 c-77 -79 -80 -159 -11 -249 19 -24 37 -55 41 -68 4 -13
23 -49 41 -80 19 -31 54 -122 80 -205 25 -82 54 -161 64 -176 11 -14 55 -143
99 -286 104 -339 251 -693 470 -1130 129 -258 147 -290 594 -1037 369 -618
447 -756 513 -919 13 -32 35 -74 49 -92 50 -66 169 -103 220 -70 43 28 46 54
20 149 -22 83 -84 196 -300 552 -23 39 -257 433 -519 876 l-476 807 -276 748
c-152 412 -297 809 -324 882 -58 158 -87 211 -153 274 -78 76 -82 77 -132 24z"/>
<path d="M3564 4671 c-18 -11 -35 -25 -39 -31 -4 -7 -12 -72 -17 -145 l-9
-133 -98 -219 c-54 -120 -169 -375 -255 -568 -206 -459 -366 -757 -605 -1130
-314 -489 -613 -838 -974 -1140 -66 -54 -123 -109 -128 -122 -11 -31 14 -96
49 -123 54 -43 95 -23 252 118 359 323 688 695 917 1037 58 86 878 1608 923
1712 114 266 176 562 136 656 -16 38 -84 107 -106 107 -8 0 -29 -9 -46 -19z"/>
<path d="M6376 3960 c7 -40 24 -76 23 -50 0 8 -7 31 -15 50 l-14 35 6 -35z"/>
</g>
</svg>
