<?xml version="1.0" standalone="no"?>
<!DOCTYPE svg PUBLIC "-//W3C//DTD SVG 20010904//EN"
 "http://www.w3.org/TR/2001/REC-SVG-20010904/DTD/svg10.dtd">
<svg version="1.0" xmlns="http://www.w3.org/2000/svg"
 width="1024.000000pt" height="1024.000000pt" viewBox="0 0 1024.000000 1024.000000"
 preserveAspectRatio="xMidYMid meet">
<metadata>
Created by potrace 1.10, written by Peter Selinger 2001-2011
</metadata>
<g transform="translate(0.000000,1024.000000) scale(0.100000,-0.100000)"
fill="#000000" stroke="none">
<path d="M8840 9870 c-43 -30 -428 -222 -473 -236 -85 -27 -211 -154 -204
-206 2 -16 1 -28 -3 -28 -3 0 -109 -13 -235 -30 -126 -16 -236 -30 -245 -30
-8 0 49 35 126 78 124 69 159 95 283 208 77 70 141 132 141 135 0 17 -52 48
-69 41 -10 -4 -140 -92 -289 -196 -228 -159 -272 -193 -272 -213 0 -51 -16
-63 -84 -63 -139 0 -311 -45 -462 -121 -78 -39 -83 -40 -106 -25 -28 18 -11
27 -202 -107 l-55 -39 -108 42 c-319 125 -573 158 -1004 130 -297 -19 -555
-104 -794 -261 -100 -66 -234 -198 -264 -261 l-22 -47 -37 23 c-20 12 -82 46
-137 76 -128 68 -127 67 -114 92 8 16 7 24 -9 41 -24 27 -47 90 -40 108 4 8
89 60 191 117 168 93 189 108 216 151 33 51 57 109 48 117 -7 7 -149 -41 -210
-72 -96 -49 -152 -92 -216 -170 -46 -55 -66 -73 -71 -63 -20 36 -63 222 -91
389 -16 101 -33 188 -37 192 -12 12 -62 -4 -73 -23 -16 -32 -27 -195 -18 -285
15 -149 65 -296 134 -401 32 -48 33 -53 13 -42 -13 7 -170 94 -350 195 -350
195 -435 232 -609 266 l-109 21 0 30 c0 23 19 50 89 126 63 68 100 120 130
178 22 46 41 87 41 93 0 5 -11 17 -25 26 -23 15 -27 15 -72 -12 -63 -36 -219
-192 -271 -271 -36 -52 -42 -70 -42 -112 l0 -51 -48 0 c-39 0 -54 5 -79 29
-18 16 -34 40 -37 53 -3 12 -12 61 -21 108 -9 47 -18 95 -21 107 -2 13 -18 30
-34 38 -28 14 -33 14 -69 -4 -34 -18 -39 -26 -45 -64 -10 -63 10 -173 44 -240
20 -39 25 -59 17 -62 -337 -104 -578 -224 -834 -416 l-42 -32 -98 18 c-126 22
-214 63 -253 117 -17 23 -30 46 -30 53 0 6 -27 52 -59 101 -69 104 -168 204
-266 266 -138 87 -190 96 -220 38 -33 -63 -26 -75 125 -215 106 -98 150 -147
182 -200 58 -98 170 -207 249 -245 65 -30 167 -60 203 -60 16 0 -2 -23 -71
-92 -118 -121 -235 -280 -290 -395 -33 -70 -54 -137 -88 -287 l-45 -196 30
-171 c21 -124 37 -184 55 -216 14 -25 25 -56 25 -69 0 -32 68 -159 122 -230
25 -33 73 -87 108 -121 l62 -61 -84 -6 c-45 -3 -216 -8 -378 -11 -162 -3 -295
-7 -297 -9 -2 -1 -7 -223 -13 -492 -10 -480 -10 -491 11 -596 l22 -108 79 0
c82 0 136 -16 173 -50 18 -17 43 -19 240 -25 121 -3 253 -8 292 -11 l73 -6 0
-366 c0 -202 20 -1371 45 -2599 38 -1924 46 -2236 59 -2268 9 -21 16 -57 16
-82 0 -33 6 -50 25 -68 l24 -25 773 0 c425 0 1780 5 3011 11 1695 8 2251 7
2293 -1 47 -10 59 -9 71 2 11 11 21 126 44 519 l30 504 -3 2228 -4 2227 71 1
c38 1 291 6 560 13 l490 11 -1 30 c-1 17 -3 50 -5 75 -1 25 1 60 5 78 6 26 5
32 -8 32 -13 0 -16 12 -16 58 0 77 29 694 33 698 6 6 136 -544 143 -601 3 -33
12 -71 19 -85 7 -14 16 -47 19 -75 22 -149 84 -363 166 -570 26 -66 59 -158
73 -204 l25 -83 -77 -112 c-95 -137 -192 -291 -261 -416 -29 -52 -54 -96 -54
-96 -1 -1 -46 5 -101 14 -85 13 -123 14 -253 4 -84 -7 -158 -15 -164 -18 -6
-4 -8 -24 -5 -48 4 -31 14 -49 44 -74 73 -64 244 -132 331 -132 18 0 42 -5 52
-10 16 -9 18 -15 9 -38 -6 -15 -18 -36 -28 -47 -24 -27 -67 -246 -82 -410 -6
-76 -17 -139 -25 -152 -10 -15 -14 -53 -14 -122 l0 -99 47 -42 c72 -63 161
-118 240 -148 69 -26 73 -29 73 -59 0 -17 5 -35 10 -38 6 -4 -7 -26 -30 -53
-57 -65 -123 -166 -165 -253 -23 -47 -65 -107 -115 -164 -65 -74 -80 -96 -80
-123 0 -20 -10 -47 -25 -66 -19 -24 -25 -46 -27 -92 -1 -33 2 -66 7 -74 5 -8
97 -134 204 -279 166 -224 192 -265 178 -273 -13 -7 -17 -24 -17 -75 0 -60 -4
-72 -39 -127 -52 -80 -75 -162 -68 -236 8 -69 30 -123 101 -243 35 -59 64
-124 80 -181 14 -49 32 -96 40 -105 7 -9 27 -43 44 -76 47 -94 110 -117 199
-74 47 23 88 80 99 140 4 19 24 66 45 104 20 39 51 121 69 183 17 62 40 138
51 169 25 75 24 91 -12 159 -64 123 -217 277 -332 336 l-41 20 34 18 c53 28
98 80 219 259 149 218 146 212 145 301 l0 75 -110 220 c-129 258 -162 310
-254 403 l-69 68 44 22 c44 21 91 75 114 129 6 16 28 39 49 52 20 13 90 90
155 172 l118 148 -17 58 c-16 53 -29 70 -158 198 -135 135 -271 246 -403 330
-35 22 -63 44 -63 49 0 18 102 202 141 252 36 47 69 119 69 150 0 7 63 101
140 210 127 179 140 201 140 239 0 108 -57 310 -126 447 -76 151 -168 455
-230 756 -40 197 -132 468 -229 675 -31 67 -40 78 -57 74 -18 -5 -19 -2 -13
34 6 35 4 40 -17 47 -39 15 -158 24 -158 12 0 -5 -12 -10 -27 -10 -26 0 -26 0
-8 20 10 12 21 40 24 63 5 37 10 43 41 53 46 15 126 130 215 309 64 129 139
329 132 349 -3 6 8 61 23 123 l28 112 77 83 c100 107 170 201 233 312 69 120
77 145 62 205 -14 58 -87 139 -160 176 -84 43 -160 50 -301 31 -68 -9 -489
-52 -935 -96 -903 -88 -890 -86 -962 -164 l-40 -44 -47 55 c-26 30 -46 56 -44
57 2 2 150 44 329 94 248 69 518 132 1140 266 448 97 830 184 849 193 71 37
93 126 40 166 -48 35 -101 33 -258 -12 -80 -22 -146 -39 -148 -38 -1 2 24 22
57 46 32 24 61 49 64 56 8 22 -49 62 -107 75 -49 11 -65 10 -188 -19 -126 -29
-689 -106 -713 -98 -12 5 622 319 699 347 40 14 55 26 73 59 l24 41 -38 16
c-69 29 -95 28 -144 -6z m3 -587 c-7 -2 -19 -2 -25 0 -7 3 -2 5 12 5 14 0 19
-2 13 -5z m-48 -8 c-5 -3 -111 -27 -234 -54 l-225 -50 -28 21 c-16 11 -27 22
-25 25 6 6 442 60 487 61 19 0 31 -1 25 -3z m-712 -115 c21 -36 42 -29 -217
-70 l-189 -30 -44 36 c-24 20 -42 39 -39 42 5 4 385 48 446 51 19 1 31 -7 43
-29z m-4733 -152 c432 -211 1022 -545 1168 -661 158 -125 230 -310 202 -518
-14 -100 -146 -449 -210 -554 -22 -35 -63 -118 -91 -182 -29 -65 -53 -119 -54
-120 -1 -3 -2418 -43 -2566 -43 -93 0 -98 1 -101 22 -3 22 -85 88 -159 127
-19 11 -65 53 -102 94 -58 65 -74 93 -117 197 -31 73 -50 136 -50 159 0 22 -9
60 -20 86 -16 37 -20 69 -20 152 0 145 27 255 96 390 217 428 590 760 1011
901 187 63 323 82 568 78 l191 -3 254 -125z m4080 86 c0 -15 9 -42 21 -60 l21
-34 -29 -10 c-141 -52 -204 -82 -359 -175 l-31 -18 -121 84 c-67 46 -120 89
-119 94 2 6 32 26 68 45 55 29 91 39 254 66 105 17 214 32 243 33 50 1 52 0
52 -25z m-1520 -109 c319 -14 364 -19 445 -41 98 -27 256 -99 348 -158 235
-151 422 -391 512 -657 27 -78 85 -384 85 -447 0 -151 -98 -340 -261 -501 -87
-87 -95 -108 -54 -151 l26 -27 -798 -6 c-439 -4 -975 -10 -1191 -14 l-394 -6
25 50 c14 27 35 76 46 109 11 32 59 140 106 238 108 224 136 321 137 486 2
255 -77 464 -239 629 l-74 75 93 89 c146 138 300 232 523 319 99 38 101 39
205 34 58 -3 265 -13 460 -21z m3417 -351 c30 -9 53 -19 51 -24 -10 -26 -175
-259 -184 -260 -5 0 -20 -13 -32 -29 -17 -23 -567 -494 -764 -654 -25 -21 -54
-53 -63 -72 -15 -33 -15 -37 1 -71 21 -43 56 -68 87 -62 18 4 385 253 628 427
18 13 18 12 0 -40 -10 -30 -35 -83 -56 -118 -21 -35 -52 -100 -70 -144 -25
-62 -58 -112 -146 -224 -177 -224 -178 -225 -194 -274 l-16 -46 -237 -6 c-130
-4 -451 -10 -712 -13 l-475 -6 50 32 c81 53 196 176 238 257 60 114 79 204 80
363 0 154 -18 274 -63 413 -16 52 -30 107 -30 123 0 16 -11 52 -23 79 -32 68
-60 155 -53 162 3 3 52 10 108 15 57 5 479 49 938 97 459 49 846 89 858 90 13
1 48 -6 79 -15z m-519 -1881 c-4 -32 -12 -227 -17 -433 -6 -206 -10 -377 -10
-379 -1 -2 -198 -1 -438 2 -241 3 -604 1 -808 -4 -203 -6 -400 -9 -437 -7
l-68 3 528 385 c290 212 550 406 578 432 l50 47 160 4 c87 1 229 4 315 5 l155
2 -8 -57z m-983 24 c-106 -71 -451 -315 -615 -436 -113 -83 -268 -197 -344
-253 -77 -56 -169 -129 -205 -163 -38 -35 -125 -97 -203 -143 -75 -45 -138
-86 -140 -91 -2 -5 -223 -167 -493 -361 -269 -194 -531 -390 -581 -434 -270
-240 -318 -276 -366 -276 -25 0 -41 -5 -44 -15 -4 -8 -10 -15 -15 -15 -5 0
-276 239 -602 532 -387 348 -616 561 -661 615 -43 52 -90 96 -125 117 -51 32
-955 855 -947 863 7 7 1069 23 2850 42 961 11 1751 22 1754 25 3 3 174 6 381
6 314 0 372 -2 356 -13z m-5546 -167 c56 -61 256 -248 443 -418 l340 -307
-183 -6 c-265 -9 -1978 -33 -1983 -28 -4 4 -76 807 -76 847 l0 22 678 0 679 0
102 -110z m5418 -977 c-16 -174 -27 -1220 -33 -3126 l-6 -2079 -2052 7 c-1721
6 -2190 4 -2915 -9 -475 -9 -864 -15 -866 -14 -1 2 4 93 11 203 11 183 7 400
-51 2605 -35 1322 -63 2406 -62 2407 2 1 362 6 802 12 l800 10 25 -24 c395
-365 1398 -1265 1434 -1285 l49 -29 64 56 c35 30 63 62 63 69 0 8 11 19 25 24
14 5 28 17 31 25 7 16 275 205 292 205 6 0 320 224 699 498 l688 497 255 5
c140 3 367 7 504 8 l249 2 -6 -67z m1481 -1568 c21 -27 79 -88 128 -135 226
-215 258 -248 275 -285 10 -22 19 -56 19 -76 0 -48 -43 -131 -88 -169 -20 -17
-75 -63 -122 -103 l-84 -73 -158 90 c-182 104 -174 91 -138 232 13 47 22 122
24 184 5 137 25 298 42 331 7 14 11 35 8 46 -5 19 -2 20 24 14 19 -4 44 -23
70 -56z m232 -1482 c57 -142 108 -264 114 -272 6 -8 16 -33 22 -57 12 -50 12
-51 -123 -201 -45 -50 -94 -110 -109 -133 -22 -33 -30 -38 -40 -28 -52 55
-314 372 -314 380 0 12 333 568 341 568 3 0 52 -116 109 -257z m118 -1448
c-15 -49 -28 -96 -28 -103 0 -7 -7 -20 -15 -28 -8 -9 -17 -27 -21 -42 -7 -34
-18 -55 -30 -59 -11 -3 -64 114 -64 143 0 34 -28 91 -64 132 l-33 37 19 85
c11 47 24 92 29 100 5 8 12 24 16 34 5 16 25 -1 113 -95 l107 -113 -29 -91z"/>
<path d="M2445 8462 c-11 -2 -35 -16 -53 -30 -32 -24 -34 -29 -29 -71 6 -55
55 -107 91 -97 11 3 35 6 53 6 61 0 110 114 66 152 -37 32 -92 49 -128 40z"/>
<path d="M3271 7955 c-34 -8 -64 -23 -83 -42 -29 -29 -29 -31 -15 -64 21 -51
80 -99 122 -99 42 0 85 35 109 89 24 51 15 86 -27 111 -37 23 -34 23 -106 5z"/>
<path d="M2030 7600 c-11 -11 -20 -24 -20 -29 0 -15 83 -79 124 -96 44 -19 83
-13 120 16 24 19 25 22 12 47 -11 22 -31 33 -98 55 -101 32 -112 33 -138 7z"/>
<path d="M3771 7526 c-12 -14 -10 -80 2 -92 9 -9 197 -16 197 -8 0 56 -167
139 -199 100z"/>
<path d="M5322 8619 c-16 -6 -36 -35 -61 -91 l-38 -83 41 -12 c22 -7 46 -13
51 -13 6 0 32 35 59 77 l49 76 -34 28 c-38 32 -36 31 -67 18z"/>
<path d="M5892 8284 c-131 -65 -234 -242 -174 -297 26 -24 125 -22 179 3 83
37 183 152 183 209 0 38 -81 111 -123 111 -7 0 -37 -12 -65 -26z"/>
<path d="M6649 7991 c-37 -12 -74 -16 -112 -13 -50 4 -58 2 -81 -21 -20 -20
-26 -36 -26 -70 0 -55 20 -75 82 -83 69 -10 114 3 158 42 57 52 91 166 48 163
-7 0 -38 -9 -69 -18z"/>
<path d="M6504 7581 c-23 -10 -48 -27 -55 -38 -8 -10 -27 -26 -42 -36 -42 -27
-33 -57 23 -79 112 -43 187 -6 214 105 5 23 2 30 -26 47 -41 25 -62 25 -114 1z"/>
<path d="M5145 7561 c-39 -17 -57 -46 -50 -84 11 -58 41 -96 98 -122 95 -45
158 -24 175 58 18 85 -44 147 -153 154 -27 1 -59 -1 -70 -6z"/>
<path d="M5813 7359 c-51 -25 -61 -49 -36 -91 25 -43 77 -68 140 -68 71 0 95
23 91 87 -4 56 -30 78 -103 87 -39 5 -59 1 -92 -15z"/>
<path d="M8453 8409 c-56 -11 -124 -41 -145 -66 -15 -17 -16 -27 -7 -84 8 -53
15 -69 42 -92 102 -87 161 -106 210 -67 33 26 87 134 87 175 0 42 -36 94 -85
122 -44 25 -41 24 -102 12z"/>
<path d="M7657 7782 c-45 -49 -53 -186 -18 -286 12 -33 21 -72 21 -87 0 -35
33 -125 54 -148 9 -10 25 -44 36 -76 30 -88 61 -122 115 -131 38 -5 51 -3 80
17 70 48 70 90 2 167 -24 27 -61 79 -82 117 -33 59 -39 82 -50 174 -16 136
-30 182 -72 231 -38 43 -61 50 -86 22z"/>
<path d="M4414 4135 l-310 -63 -71 -74 c-80 -82 -151 -129 -242 -160 -40 -14
-66 -29 -77 -47 -10 -14 -43 -55 -74 -91 -32 -36 -70 -90 -85 -120 -15 -30
-35 -66 -45 -80 -9 -14 -27 -52 -40 -85 -13 -33 -32 -73 -43 -89 -17 -24 -21
-55 -29 -215 -13 -272 -4 -401 37 -531 19 -58 52 -182 74 -276 56 -245 117
-378 239 -527 164 -201 447 -363 766 -440 131 -31 445 -31 589 0 254 56 551
178 747 308 247 164 391 393 446 709 60 339 -88 800 -384 1200 -89 120 -372
406 -459 465 -189 126 -377 182 -607 180 -107 -1 -157 -8 -432 -64z m630 -194
c154 -54 389 -208 542 -354 119 -113 254 -285 254 -322 0 -13 14 -40 30 -59
49 -56 100 -147 100 -181 0 -16 10 -48 22 -70 43 -81 79 -249 85 -401 8 -205
-7 -267 -99 -424 -63 -108 -81 -131 -160 -199 -393 -338 -837 -449 -1357 -341
-51 11 -107 28 -125 39 -17 10 -50 22 -74 26 -89 14 -251 148 -335 275 -33 52
-247 594 -295 751 -34 109 -45 217 -39 382 5 174 19 226 94 367 119 224 270
360 468 424 39 12 418 82 600 110 69 10 230 -3 289 -23z"/>
<path d="M6176 3800 c4 -19 10 -44 15 -55 8 -20 8 -20 8 0 0 11 -7 36 -15 55
l-14 35 6 -35z"/>
</g>
</svg>
