<?xml version="1.0" standalone="no"?>
<!DOCTYPE svg PUBLIC "-//W3C//DTD SVG 20010904//EN"
 "http://www.w3.org/TR/2001/REC-SVG-20010904/DTD/svg10.dtd">
<svg version="1.0" xmlns="http://www.w3.org/2000/svg"
 width="1024.000000pt" height="1024.000000pt" viewBox="0 0 1024.000000 1024.000000"
 preserveAspectRatio="xMidYMid meet">
<metadata>
Created by potrace 1.10, written by Peter Selinger 2001-2011
</metadata>
<g transform="translate(0.000000,1024.000000) scale(0.100000,-0.100000)"
fill="#000000" stroke="none">
<path d="M4695 9752 c-5 -4 -18 -16 -27 -28 -17 -20 -14 -24 130 -170 307
-310 551 -613 727 -899 122 -198 211 -308 286 -354 46 -28 114 -27 170 2 34
18 51 36 74 82 29 56 30 64 30 184 -1 147 -16 214 -77 340 -82 172 -332 387
-688 592 -194 111 -448 224 -558 248 -62 13 -55 13 -67 3z"/>
<path d="M6070 7736 c-52 -23 -115 -55 -139 -70 -53 -34 -156 -79 -271 -118
-96 -33 -1693 -358 -1757 -358 -34 0 -597 64 -750 85 l-41 6 -22 -66 c-12 -36
-20 -69 -18 -75 2 -5 73 -66 158 -135 139 -112 173 -135 331 -215 98 -49 202
-96 233 -105 56 -16 57 -16 179 15 67 17 223 65 347 106 167 55 403 117 920
244 382 93 708 170 723 170 39 0 67 -17 67 -41 0 -50 -100 -213 -347 -566
-902 -1288 -1900 -2429 -2788 -3189 -83 -71 -168 -143 -189 -160 l-38 -30 25
-29 c25 -29 26 -30 73 -17 203 53 805 445 1183 770 184 159 424 387 675 641
150 152 212 208 218 199 4 -7 22 -49 39 -93 65 -167 63 -126 67 -1075 4 -1054
-8 -1361 -73 -1815 -49 -342 -84 -724 -75 -805 29 -249 131 -452 322 -640 68
-67 101 -84 150 -77 74 10 123 64 155 172 16 56 18 188 24 2115 4 1489 9 2080
18 2145 6 50 12 140 14 200 2 106 1 112 -28 164 -16 30 -63 90 -104 133 -65
70 -72 80 -60 96 34 42 192 222 196 222 14 0 329 -290 469 -432 200 -202 287
-302 443 -506 181 -238 270 -312 375 -312 42 0 53 5 86 38 32 32 39 47 49 109
23 133 -18 330 -96 462 -116 198 -459 426 -1015 677 -109 49 -198 93 -198 97
0 15 784 933 1001 1172 122 134 234 249 254 259 51 28 102 88 115 136 16 60
-14 116 -99 186 -171 141 -527 327 -666 348 -33 4 -56 -2 -135 -38z"/>
</g>
</svg>
