<?xml version="1.0" standalone="no"?>
<!DOCTYPE svg PUBLIC "-//W3C//DTD SVG 20010904//EN"
 "http://www.w3.org/TR/2001/REC-SVG-20010904/DTD/svg10.dtd">
<svg version="1.0" xmlns="http://www.w3.org/2000/svg"
 width="1024.000000pt" height="1024.000000pt" viewBox="0 0 1024.000000 1024.000000"
 preserveAspectRatio="xMidYMid meet">
<metadata>
Created by potrace 1.10, written by Peter Selinger 2001-2011
</metadata>
<g transform="translate(0.000000,1024.000000) scale(0.100000,-0.100000)"
fill="#000000" stroke="none">
<path d="M9029 9790 c-49 -27 -334 -169 -499 -248 -36 -17 -82 -45 -103 -62
-54 -45 -100 -116 -93 -144 5 -21 2 -22 -242 -52 -136 -17 -248 -30 -250 -29
-1 1 58 35 132 74 121 65 151 87 286 209 l151 137 -26 23 c-14 12 -32 22 -39
22 -45 0 -324 -179 -468 -299 -86 -72 -97 -85 -103 -122 -4 -22 -12 -42 -18
-44 -7 -1 -62 -8 -124 -14 -142 -14 -261 -48 -387 -111 -90 -44 -101 -47 -120
-34 -11 8 -26 14 -32 14 -6 0 -61 -36 -122 -80 l-110 -80 -67 30 c-94 42 -270
96 -399 123 -101 20 -139 22 -426 22 -288 0 -325 -2 -427 -23 -292 -59 -575
-201 -749 -376 -44 -44 -88 -99 -98 -121 -10 -22 -20 -42 -22 -44 -1 -2 -71
34 -153 79 -139 75 -150 83 -140 102 8 15 7 24 -4 36 -22 24 -50 100 -44 116
3 8 89 60 191 116 167 92 188 107 216 149 34 53 55 109 46 118 -11 11 -112
-26 -217 -79 -101 -50 -146 -86 -225 -183 -23 -27 -45 -47 -49 -43 -16 16 -66
221 -90 372 -36 227 -33 216 -61 216 -41 0 -61 -31 -69 -106 -11 -100 1 -268
25 -359 21 -77 91 -236 126 -283 10 -14 -90 37 -262 134 -154 86 -315 176
-359 200 -100 54 -270 111 -375 126 l-80 12 0 31 c0 24 19 50 93 131 68 74
102 122 131 181 21 45 36 88 33 97 -12 30 -55 30 -100 0 -74 -51 -207 -185
-258 -262 -42 -63 -49 -81 -49 -123 l0 -49 -42 0 c-51 0 -102 36 -117 82 -5
18 -17 74 -26 123 -21 119 -21 120 -51 133 -35 16 -65 15 -93 -4 -22 -16 -23
-21 -19 -124 3 -98 6 -113 36 -170 18 -35 31 -64 30 -65 -2 -1 -34 -12 -73
-24 -273 -87 -526 -216 -739 -375 l-71 -54 -100 17 c-111 19 -186 48 -228 89
-16 15 -48 66 -73 113 -81 157 -212 289 -365 369 -101 53 -126 53 -162 0 -36
-53 -27 -68 127 -215 93 -87 155 -155 174 -188 93 -164 241 -276 406 -306 33
-6 62 -11 65 -11 3 0 -35 -42 -85 -92 -173 -176 -288 -349 -334 -503 -11 -38
-34 -110 -49 -160 -46 -142 -46 -168 -11 -370 21 -119 39 -194 56 -226 13 -27
24 -57 24 -68 0 -61 148 -283 247 -370 l55 -48 -243 -6 c-133 -4 -305 -7 -381
-7 -105 0 -140 -3 -144 -13 -2 -7 -8 -231 -12 -498 -8 -468 -7 -488 13 -589
l21 -105 89 -5 c88 -5 133 -19 168 -54 11 -12 72 -16 308 -22 l294 -7 -3 -326
c-2 -179 17 -1345 42 -2591 41 -2019 47 -2271 63 -2320 9 -30 15 -66 14 -78
-4 -36 17 -78 47 -92 21 -9 658 -9 3032 1 2391 10 3015 10 3054 0 42 -10 51
-10 64 3 13 12 21 105 43 483 l28 468 1 2262 0 2261 93 6 c50 3 218 8 372 11
154 3 364 8 466 11 l186 7 -1 103 c-1 76 -4 104 -13 104 -8 0 -13 14 -13 38 0
29 27 654 31 712 2 32 130 -480 143 -573 8 -54 18 -103 24 -110 5 -7 15 -43
21 -82 29 -169 91 -379 168 -565 19 -47 48 -129 64 -183 l29 -97 -89 -128
c-78 -112 -193 -298 -275 -445 -16 -27 -34 -47 -44 -47 -34 0 -192 31 -233 45
-103 37 -260 1 -273 -62 -13 -56 21 -101 118 -158 54 -32 171 -72 233 -80 92
-12 94 -13 87 -43 -3 -15 -14 -34 -24 -43 -26 -23 -77 -259 -90 -418 -7 -85
-16 -142 -26 -155 -10 -14 -14 -49 -14 -117 l0 -97 54 -49 c64 -59 159 -117
241 -148 52 -20 60 -27 63 -51 2 -16 8 -34 13 -40 5 -6 -7 -29 -33 -60 -55
-66 -117 -163 -163 -253 -20 -41 -70 -113 -111 -160 -60 -70 -74 -92 -74 -120
0 -23 -9 -44 -30 -68 -27 -30 -30 -41 -30 -97 l0 -63 191 -259 c105 -142 195
-266 200 -275 6 -12 4 -21 -6 -29 -11 -9 -15 -32 -15 -78 0 -59 -4 -72 -39
-126 -50 -78 -65 -126 -64 -206 0 -79 22 -138 96 -263 35 -58 65 -126 82 -182
15 -49 40 -110 56 -134 16 -24 34 -59 41 -76 15 -42 55 -65 113 -65 80 0 144
51 166 133 6 23 29 78 50 122 22 44 53 129 70 189 17 60 39 122 51 138 46 65
30 142 -57 263 -57 80 -186 201 -262 245 l-60 35 41 26 c54 35 63 46 201 244
141 204 154 230 155 312 0 59 -5 72 -116 295 -124 249 -170 321 -258 408 -58
57 -66 70 -41 70 25 0 105 80 130 130 13 25 37 53 55 64 42 24 273 315 265
334 -3 8 -10 35 -17 59 -20 82 -312 355 -535 500 -46 30 -83 57 -83 60 0 14
98 192 127 230 45 58 72 110 79 153 5 22 51 97 125 201 179 253 168 233 162
281 -17 151 -65 313 -133 449 -72 142 -151 400 -214 694 -57 271 -146 537
-242 728 -29 57 -39 68 -55 64 -18 -5 -19 -2 -13 38 l6 44 -38 8 c-22 4 -72 7
-112 7 l-72 -1 15 23 c8 13 15 33 15 44 0 34 17 57 47 63 57 12 230 313 307
535 20 57 35 113 35 125 -1 12 10 70 25 129 25 102 28 108 79 160 120 121 236
281 301 417 36 76 36 102 1 172 -22 41 -102 109 -163 137 -49 22 -71 26 -152
26 -52 0 -489 -39 -970 -87 -979 -97 -978 -97 -1054 -172 l-44 -45 -46 55 -47
54 53 15 c406 116 669 180 1407 341 582 127 853 191 876 205 22 14 40 36 51
65 15 42 16 46 0 70 -37 56 -112 59 -290 10 -130 -36 -161 -39 -109 -11 15 8
44 29 63 45 41 35 36 53 -24 84 -60 31 -118 32 -241 2 -60 -14 -234 -42 -385
-61 -151 -18 -291 -36 -310 -40 -31 -5 -33 -4 -20 9 17 16 641 321 710 347 33
13 50 27 65 54 l20 37 -28 25 c-37 32 -73 30 -138 -6z m-269 -647 c-242 -55
-245 -55 -277 -37 -18 9 -31 20 -28 23 6 5 483 68 525 69 14 0 -85 -25 -220
-55z m-505 -69 c9 -14 15 -27 13 -29 -5 -5 -385 -65 -410 -65 -21 1 -107 65
-97 73 6 5 376 44 430 46 40 1 49 -3 64 -25z m-4695 -171 c315 -156 580 -302
889 -486 280 -168 369 -253 422 -403 28 -81 35 -219 16 -309 -22 -101 -151
-426 -206 -520 -27 -44 -70 -130 -96 -190 l-48 -111 -1191 -17 c-655 -10
-1255 -20 -1334 -23 -119 -5 -143 -4 -142 7 2 8 2 19 1 26 -1 14 -134 106
-167 117 -11 3 -54 45 -95 92 -63 73 -80 101 -116 192 -23 59 -43 124 -43 145
0 20 -11 65 -25 99 -45 111 -30 310 35 467 183 445 605 839 1058 987 182 60
285 73 537 71 l220 -2 285 -142z m4040 110 c0 -16 9 -41 20 -58 11 -16 20 -33
20 -36 0 -4 -28 -17 -62 -29 -77 -28 -196 -87 -284 -140 -39 -25 -70 -37 -78
-33 -53 33 -236 168 -236 174 0 5 34 25 76 45 63 30 106 41 277 69 111 18 217
33 235 34 29 1 32 -2 32 -26z m-1535 -113 c426 -21 451 -25 615 -95 330 -141
580 -408 703 -750 31 -87 87 -384 87 -462 0 -155 -99 -343 -266 -508 -83 -81
-93 -110 -48 -143 27 -19 25 -19 -362 -25 -578 -10 -1984 -21 -1984 -16 0 3
18 45 40 94 22 50 40 95 40 102 0 7 38 90 85 185 111 225 137 321 138 503 1
259 -78 460 -248 627 l-65 65 107 100 c60 55 137 119 173 142 80 52 245 133
348 171 95 36 114 36 637 10z m3433 -351 c26 -7 49 -13 51 -15 8 -7 -171 -274
-184 -274 -7 0 -20 -11 -29 -25 -9 -13 -197 -176 -417 -361 -273 -229 -405
-346 -414 -367 -23 -56 22 -127 81 -127 51 0 243 120 457 284 183 141 190 146
194 143 7 -8 -30 -96 -72 -167 -24 -41 -56 -106 -70 -145 -20 -53 -54 -104
-143 -217 -175 -222 -180 -229 -197 -279 l-16 -46 -412 -6 c-226 -4 -547 -10
-712 -13 l-300 -6 50 32 c91 59 198 178 244 271 64 130 76 190 75 364 -1 162
-21 284 -69 426 -14 41 -25 89 -25 107 0 18 -10 52 -21 74 -22 43 -61 150 -57
153 21 17 59 25 115 26 37 0 444 40 903 88 459 49 854 89 878 90 24 0 64 -4
90 -10z m-513 -1921 c-13 -213 -25 -491 -25 -599 0 -64 -3 -129 -6 -145 l-6
-29 -870 -2 c-479 -1 -867 2 -862 6 5 4 249 183 542 397 299 217 547 405 564
426 l30 38 319 0 320 0 -6 -92z m-976 69 c-2 -2 -251 -181 -554 -397 -302
-216 -579 -421 -615 -454 -36 -34 -127 -98 -202 -144 -75 -45 -138 -87 -140
-91 -2 -5 -226 -170 -498 -366 -272 -197 -529 -388 -570 -424 -41 -37 -118
-102 -170 -146 -52 -43 -99 -85 -103 -92 -4 -7 -13 -13 -20 -13 -7 0 -23 -9
-37 -20 -14 -11 -39 -20 -57 -20 -20 0 -36 -7 -42 -17 -9 -17 -12 -16 -38 8
-15 14 -280 252 -588 528 -374 335 -586 533 -638 594 -51 61 -97 104 -136 127
-33 20 -249 212 -506 450 l-448 415 449 6 c247 4 1222 16 2167 27 945 11 1721
23 1724 26 4 3 236 6 516 6 281 0 508 -2 506 -3z m-5559 -174 c52 -57 251
-245 442 -416 l346 -312 -51 -2 c-69 -3 -1906 -33 -2027 -33 l-95 0 -33 383
c-18 210 -36 406 -39 435 l-6 52 684 -1 684 -1 95 -105z m5416 -1040 c-17
-316 -26 -894 -26 -1694 0 -476 -3 -1447 -7 -2159 l-6 -1292 -1231 6 c-2374
12 -3198 11 -3911 -6 -374 -9 -682 -14 -684 -12 -2 2 2 104 8 226 11 205 8
401 -48 2453 -33 1227 -63 2300 -66 2386 l-6 156 805 7 805 8 705 -641 c387
-352 727 -654 754 -670 l50 -29 79 78 c43 43 92 92 108 108 30 29 257 184 285
194 8 3 327 231 709 507 l694 501 495 0 495 0 -7 -127z m1430 -1453 c7 0 30
-22 50 -49 20 -27 114 -121 209 -209 185 -172 215 -213 215 -291 0 -57 -28
-108 -89 -161 -28 -25 -85 -76 -127 -115 -62 -57 -78 -67 -92 -59 -9 6 -81 48
-159 93 -164 94 -157 83 -123 217 12 46 22 124 25 189 5 130 28 303 44 334 7
12 9 31 5 43 -5 17 -3 20 11 15 9 -4 23 -7 31 -7z m289 -1540 c54 -135 103
-251 109 -259 6 -8 16 -34 22 -60 14 -55 14 -56 -121 -207 -49 -56 -101 -116
-115 -134 l-25 -32 -163 192 c-90 105 -161 197 -159 204 3 7 80 137 172 290
110 182 170 274 175 265 4 -8 51 -124 105 -259z m43 -1244 c93 -101 100 -111
90 -135 -5 -14 -19 -60 -30 -101 -11 -41 -26 -82 -34 -91 -8 -9 -17 -33 -21
-53 -10 -62 -28 -64 -55 -4 -14 29 -30 76 -37 103 -14 55 -48 120 -79 148 -18
16 -18 21 -6 56 7 21 16 61 20 89 3 29 13 57 20 63 8 6 14 18 14 26 0 25 15
12 118 -101z"/>
<path d="M2585 8362 c-16 -11 -36 -26 -44 -35 -20 -25 -7 -85 25 -119 23 -24
36 -28 79 -28 43 0 56 4 77 28 61 63 56 120 -14 152 -54 25 -85 25 -123 2z"/>
<path d="M3455 7871 c-46 -8 -95 -32 -115 -56 -32 -39 67 -155 132 -155 35 0
82 40 108 95 24 49 19 68 -26 104 -28 22 -34 23 -99 12z"/>
<path d="M2218 7526 c-49 -25 -26 -73 60 -123 35 -21 52 -24 89 -20 59 6 89
34 73 68 -16 35 -186 93 -222 75z"/>
<path d="M3941 7436 c-7 -9 -9 -29 -5 -55 l7 -41 67 0 c37 0 82 -3 100 -7 54
-10 32 17 -56 69 -86 52 -96 55 -113 34z"/>
<path d="M5486 8529 c-22 -13 -90 -159 -79 -169 14 -13 75 -30 85 -24 5 3 30
38 54 76 l45 70 -27 29 c-30 31 -48 35 -78 18z"/>
<path d="M6071 8205 c-94 -44 -183 -155 -198 -248 -4 -27 -1 -39 17 -57 20
-20 29 -22 86 -17 86 8 125 27 190 91 91 92 105 161 41 210 -58 44 -78 47
-136 21z"/>
<path d="M6810 7901 c-41 -13 -64 -15 -92 -8 -30 7 -44 6 -70 -10 -32 -18 -33
-21 -33 -83 0 -60 2 -65 25 -71 46 -13 140 -9 170 6 36 19 74 68 90 118 22 69
6 78 -90 48z"/>
<path d="M6667 7489 c-20 -11 -43 -28 -50 -39 -6 -11 -19 -20 -27 -20 -23 0
-40 -20 -40 -46 0 -49 165 -80 210 -39 25 22 59 90 60 117 0 21 -49 48 -87 48
-15 -1 -45 -10 -66 -21z"/>
<path d="M5325 7476 c-16 -7 -38 -22 -48 -34 -16 -17 -17 -25 -7 -64 7 -23 22
-54 33 -67 52 -57 176 -81 212 -41 25 28 36 98 20 130 -21 41 -47 58 -110 75
-70 18 -62 18 -100 1z"/>
<path d="M5978 7268 c-31 -18 -38 -28 -38 -53 0 -32 32 -71 77 -94 28 -14 95
-14 127 0 30 14 50 65 40 104 -16 62 -132 86 -206 43z"/>
<path d="M8582 8315 c-23 -7 -59 -25 -79 -41 l-36 -27 6 -66 c6 -61 9 -69 44
-99 56 -50 124 -92 147 -92 61 0 146 117 146 199 0 49 -31 96 -79 121 -46 23
-87 24 -149 5z"/>
<path d="M7837 7700 c-51 -40 -63 -181 -26 -286 12 -32 21 -68 20 -79 -1 -36
28 -119 59 -165 16 -25 30 -53 30 -63 0 -26 34 -88 62 -114 35 -33 104 -34
147 -2 56 41 54 93 -5 156 -20 21 -57 71 -81 112 -41 69 -44 81 -57 191 -15
126 -39 196 -83 243 -32 32 -33 33 -66 7z"/>
<path d="M4607 4054 l-329 -66 -81 -82 c-85 -85 -186 -147 -263 -162 -24 -4
-38 -14 -44 -30 -5 -12 -40 -58 -78 -101 -37 -43 -74 -94 -82 -113 -8 -19 -24
-51 -36 -70 -13 -19 -35 -64 -50 -100 -15 -36 -36 -77 -46 -91 -14 -22 -19
-62 -27 -237 -13 -261 -3 -384 41 -520 17 -53 48 -172 69 -264 42 -185 78
-283 148 -402 57 -98 192 -242 297 -318 156 -112 383 -209 594 -255 129 -28
398 -25 545 6 242 50 562 181 755 309 216 144 355 338 426 597 25 91 28 116
28 275 1 153 -2 186 -23 265 -106 403 -274 700 -569 1007 -284 295 -485 395
-827 411 -118 6 -125 5 -448 -59z m637 -208 c168 -69 386 -217 531 -361 111
-111 234 -269 235 -301 0 -12 23 -51 51 -88 54 -72 79 -122 79 -159 0 -12 9
-41 21 -62 56 -107 106 -378 94 -509 -14 -147 -29 -194 -106 -325 -68 -115
-81 -131 -169 -204 -222 -184 -432 -290 -683 -344 -64 -14 -129 -18 -302 -18
-193 0 -234 3 -334 24 -63 13 -128 32 -145 42 -17 10 -53 23 -81 29 -51 11
-126 55 -203 119 -46 38 -139 155 -165 206 -37 75 -267 698 -282 765 -9 41
-19 143 -22 226 -8 221 17 327 117 496 119 202 255 322 428 377 37 12 187 44
333 71 245 46 274 49 399 47 121 -3 142 -6 204 -31z"/>
<path d="M6345 3720 c9 -42 23 -80 29 -80 6 0 -24 103 -31 110 -3 3 -2 -11 2
-30z"/>
</g>
</svg>
