<?xml version="1.0" standalone="no"?>
<!DOCTYPE svg PUBLIC "-//W3C//DTD SVG 20010904//EN"
 "http://www.w3.org/TR/2001/REC-SVG-20010904/DTD/svg10.dtd">
<svg version="1.0" xmlns="http://www.w3.org/2000/svg"
 width="1024.000000pt" height="1024.000000pt" viewBox="0 0 1024.000000 1024.000000"
 preserveAspectRatio="xMidYMid meet">
<metadata>
Created by potrace 1.10, written by Peter Selinger 2001-2011
</metadata>
<g transform="translate(0.000000,1024.000000) scale(0.100000,-0.100000)"
fill="#000000" stroke="none">
<path d="M4310 8864 c-168 -26 -345 -48 -431 -52 -130 -7 -153 -11 -202 -36
-58 -28 -87 -59 -112 -119 -13 -32 -13 -37 6 -61 29 -37 90 -66 138 -66 22 0
125 20 228 45 169 41 217 48 473 69 273 24 330 25 1337 29 1002 4 1053 5 1090
23 51 25 62 59 37 110 l-19 39 -870 26 c-478 15 -987 29 -1130 33 l-260 5
-285 -45z"/>
<path d="M5620 6500 c-28 -16 -1047 -50 -1967 -66 -910 -15 -912 -15 -1480
-58 -609 -46 -623 -49 -643 -102 -16 -42 -12 -72 13 -89 22 -14 94 -14 728 0
1957 43 2864 63 2865 61 3 -6 -19 -241 -31 -322 -12 -79 -15 -209 -15 -575 -1
-261 -5 -521 -10 -579 -29 -340 -33 -772 -18 -2025 8 -687 11 -1260 6 -1273
-4 -13 -15 -103 -22 -200 -8 -97 -19 -193 -25 -212 -6 -19 -11 -48 -11 -64 0
-16 -12 -44 -26 -63 -22 -29 -24 -39 -18 -81 3 -26 17 -61 30 -78 52 -70 168
-47 221 43 22 38 26 60 33 195 5 84 16 243 25 353 30 402 37 742 26 1295 -25
1253 -24 1575 8 2480 29 790 45 1074 63 1103 6 9 392 12 1865 13 1022 0 1863
1 1870 2 24 4 53 46 53 77 0 22 -10 43 -32 67 l-33 36 -445 36 -445 37 -1285
-1 c-716 -1 -1292 -5 -1300 -10z"/>
<path d="M6622 5386 c-72 -78 -78 -154 -17 -237 14 -19 32 -50 41 -69 9 -19
31 -60 49 -90 19 -31 53 -122 80 -210 26 -85 55 -164 65 -175 10 -11 53 -134
95 -274 91 -300 215 -607 405 -1005 127 -265 258 -498 657 -1166 384 -643 460
-778 519 -924 47 -116 112 -169 212 -170 45 -1 57 3 73 23 24 30 24 57 -1 147
-17 60 -125 248 -656 1146 l-636 1073 -328 892 c-213 578 -339 907 -359 936
-30 44 -136 147 -151 147 -4 0 -26 -20 -48 -44z"/>
<path d="M3400 4960 c-24 -16 -47 -35 -51 -42 -3 -7 -10 -68 -14 -136 l-7
-123 -266 -587 c-147 -323 -307 -661 -356 -752 -235 -434 -539 -899 -775
-1180 -170 -204 -419 -447 -598 -585 -64 -49 -81 -83 -63 -125 33 -79 83 -105
144 -73 54 28 313 262 474 428 208 215 399 448 574 700 31 44 201 348 378 675
177 327 368 681 425 785 150 274 218 443 271 675 39 170 30 256 -34 323 -45
47 -54 49 -102 17z"/>
<path d="M6207 4255 c3 -16 9 -37 14 -45 15 -27 10 11 -6 45 l-14 30 6 -30z"/>
</g>
</svg>
