<?xml version="1.0" standalone="no"?>
<!DOCTYPE svg PUBLIC "-//W3C//DTD SVG 20010904//EN"
 "http://www.w3.org/TR/2001/REC-SVG-20010904/DTD/svg10.dtd">
<svg version="1.0" xmlns="http://www.w3.org/2000/svg"
 width="1024.000000pt" height="1024.000000pt" viewBox="0 0 1024.000000 1024.000000"
 preserveAspectRatio="xMidYMid meet">
<metadata>
Created by potrace 1.10, written by Peter Selinger 2001-2011
</metadata>
<g transform="translate(0.000000,1024.000000) scale(0.100000,-0.100000)"
fill="#000000" stroke="none">
<path d="M6940 9023 c-260 -41 -723 -89 -2050 -213 -877 -82 -1665 -154 -1750
-160 -133 -9 -201 -8 -462 10 -169 11 -317 20 -329 20 -23 0 -23 -1 2 -122
l10 -46 200 -132 c109 -73 238 -152 286 -177 l88 -45 93 6 c53 3 259 39 486
85 l394 80 1319 107 1318 106 235 -6 c129 -4 317 -14 418 -22 199 -16 241 -12
287 29 14 12 29 37 35 55 8 32 5 37 -110 175 l-118 142 -148 58 c-82 32 -156
57 -164 56 -8 -1 -26 -3 -40 -6z"/>
<path d="M8315 6719 c-158 -27 -995 -103 -3300 -299 -2432 -208 -2952 -249
-3120 -250 -40 0 -234 26 -448 61 -208 34 -379 60 -382 58 -2 -3 8 -52 23
-111 l27 -106 160 -132 c217 -179 406 -301 520 -336 64 -19 271 6 1020 120
503 78 728 107 1194 156 316 33 575 59 576 57 0 -1 33 -45 72 -97 103 -137
158 -231 204 -349 51 -131 85 -281 98 -436 14 -162 14 -3403 0 -3500 -12 -88
-41 -148 -87 -183 -32 -24 -45 -27 -134 -30 -64 -3 -126 2 -180 13 -179 36
-436 134 -699 266 -146 72 -182 81 -220 51 l-22 -19 124 -94 c416 -314 743
-606 956 -856 57 -67 129 -145 161 -173 122 -109 239 -139 319 -81 90 65 211
269 258 435 55 196 55 181 55 1904 0 1550 1 1599 25 2082 14 272 34 578 45
680 11 102 17 192 14 202 -11 37 -104 102 -253 178 -145 74 -153 79 -116 80
22 0 663 33 1425 74 l1385 75 300 -10 c165 -5 332 -14 370 -19 39 -5 104 -9
145 -9 124 -1 197 48 207 141 8 73 -36 135 -185 260 -87 73 -90 75 -277 141
-105 37 -194 67 -200 66 -5 -1 -32 -5 -60 -10z"/>
<path d="M7412 4613 l-20 -28 91 -95 c245 -255 452 -518 694 -880 310 -465
494 -785 715 -1248 92 -193 122 -243 184 -306 44 -46 89 -66 144 -66 208 0
277 376 136 745 -150 392 -556 871 -1195 1409 -86 73 -672 475 -716 492 -7 3
-22 -7 -33 -23z"/>
<path d="M2532 4540 c-12 -5 -25 -16 -28 -23 -2 -7 11 -53 29 -103 19 -49 49
-150 68 -225 l33 -136 -17 -69 c-28 -116 -151 -347 -319 -599 -352 -527 -603
-865 -851 -1145 -293 -330 -454 -485 -637 -616 -41 -30 -100 -77 -130 -104
l-55 -50 51 0 c66 0 138 25 302 106 211 104 447 268 702 488 153 131 689 670
814 817 123 145 263 323 356 454 35 50 134 173 220 274 85 100 165 197 177
213 32 44 46 122 32 167 -30 93 -175 247 -375 397 -162 123 -306 182 -372 154z"/>
</g>
</svg>
