<?xml version="1.0" standalone="no"?>
<!DOCTYPE svg PUBLIC "-//W3C//DTD SVG 20010904//EN"
 "http://www.w3.org/TR/2001/REC-SVG-20010904/DTD/svg10.dtd">
<svg version="1.0" xmlns="http://www.w3.org/2000/svg"
 width="1024.000000pt" height="1024.000000pt" viewBox="0 0 1024.000000 1024.000000"
 preserveAspectRatio="xMidYMid meet">
<metadata>
Created by potrace 1.10, written by Peter Selinger 2001-2011
</metadata>
<g transform="translate(0.000000,1024.000000) scale(0.100000,-0.100000)"
fill="#000000" stroke="none">
<path d="M4572 9552 l-124 -56 54 -51 c30 -27 75 -66 101 -85 26 -19 66 -60
90 -90 171 -214 217 -466 217 -1186 l0 -340 -997 -157 c-750 -118 -1091 -167
-1373 -198 l-375 -41 -380 16 c-209 9 -399 19 -422 22 -34 4 -43 2 -43 -9 0
-8 20 -66 43 -128 l44 -114 144 -87 c203 -123 322 -181 489 -236 l145 -49 135
29 c74 16 185 44 245 63 410 127 1149 280 2040 424 138 23 262 43 278 46 l27
5 0 -800 c0 -752 -1 -799 -17 -804 -10 -2 -376 -71 -813 -152 l-795 -147 -330
37 c-181 21 -345 40 -362 43 -32 5 -33 4 -33 -29 0 -52 26 -117 70 -176 22
-29 40 -62 40 -74 0 -37 48 -95 98 -119 196 -92 454 -189 504 -189 64 0 385
79 1093 270 737 199 742 200 1352 320 337 66 625 120 640 120 16 0 47 -9 69
-19 34 -15 45 -28 59 -65 36 -94 6 -206 -122 -466 -154 -309 -615 -979 -1044
-1515 -79 -99 -147 -184 -150 -188 -4 -5 -188 112 -410 260 -222 148 -602 392
-845 541 l-441 272 -123 25 c-168 34 -240 31 -240 -10 0 -20 46 -53 93 -67 59
-18 1282 -916 1524 -1120 l195 -163 -89 -85 c-498 -481 -1098 -948 -1808
-1406 -318 -205 -1317 -696 -1570 -771 -83 -24 -159 -53 -179 -68 -18 -13 -17
-15 10 -39 35 -31 63 -32 191 -7 389 75 1234 404 1763 686 601 320 1132 696
1771 1256 96 85 182 160 191 167 13 10 37 -6 159 -106 382 -313 1068 -853
1414 -1113 548 -412 1088 -787 1192 -828 120 -47 120 -47 873 24 549 51 709
70 762 86 71 23 118 56 118 84 0 23 -146 89 -375 170 -784 278 -1657 659
-2075 905 -427 252 -1058 641 -1656 1022 l-101 64 119 134 c436 491 835 1031
1238 1675 108 173 119 187 290 360 98 99 198 211 223 248 l46 68 -14 44 c-20
69 -97 168 -234 306 -134 134 -267 240 -327 259 -60 20 -135 8 -216 -35 -238
-124 -348 -165 -603 -229 -114 -28 -597 -136 -611 -136 -2 0 -4 351 -4 780 l0
780 23 4 c12 3 607 55 1322 115 1562 133 1408 119 1475 132 177 35 227 148
125 282 -55 72 -217 171 -355 216 -126 42 -175 44 -338 16 -176 -29 -2232
-355 -2244 -355 -12 0 -10 671 3 895 7 130 18 228 35 310 14 66 28 138 31 161
10 77 -53 157 -176 222 -46 25 -595 203 -619 202 -4 -1 -62 -26 -130 -58z"/>
</g>
</svg>
