<?xml version="1.0" standalone="no"?>
<!DOCTYPE svg PUBLIC "-//W3C//DTD SVG 20010904//EN"
 "http://www.w3.org/TR/2001/REC-SVG-20010904/DTD/svg10.dtd">
<svg version="1.0" xmlns="http://www.w3.org/2000/svg"
 width="1024.000000pt" height="1024.000000pt" viewBox="0 0 1024.000000 1024.000000"
 preserveAspectRatio="xMidYMid meet">
<metadata>
Created by potrace 1.10, written by Peter Selinger 2001-2011
</metadata>
<g transform="translate(0.000000,1024.000000) scale(0.100000,-0.100000)"
fill="#000000" stroke="none">
<path d="M6141 9472 c-19 -9 -44 -30 -55 -45 -20 -28 -21 -43 -27 -580 -4
-304 -7 -1543 -8 -2754 -1 -1860 1 -2210 13 -2260 10 -39 18 -184 25 -453 7
-217 14 -437 18 -489 l6 -95 -79 65 c-251 205 -581 592 -730 855 -16 27 -52
81 -81 120 -110 145 -206 343 -247 506 -56 220 -58 249 -66 813 -6 377 -12
567 -24 660 -8 72 -25 256 -36 410 -13 171 -27 299 -37 329 -18 57 -95 141
-119 132 -9 -3 -24 -6 -34 -6 -10 0 -28 -16 -42 -37 -22 -37 -23 -45 -22 -233
1 -164 5 -209 23 -285 13 -54 32 -198 47 -360 22 -242 24 -287 14 -436 -18
-300 -9 -551 31 -839 16 -115 33 -183 81 -329 l60 -183 107 -152 c364 -513
441 -620 505 -696 101 -121 315 -332 426 -421 52 -41 183 -145 290 -230 107
-85 248 -201 315 -258 341 -295 703 -522 1110 -696 61 -26 205 -78 320 -117
116 -38 455 -162 755 -275 329 -124 564 -208 593 -211 40 -4 52 -1 72 18 36
34 50 84 34 122 -14 34 -28 41 -324 165 -261 109 -480 191 -826 308 -498 169
-752 287 -1098 512 -143 93 -235 163 -433 327 -87 72 -206 161 -265 197 l-108
66 -6 479 c-3 263 -3 554 1 646 4 92 3 188 -2 215 -9 46 -13 99 -38 518 -17
280 -16 773 5 1660 10 435 19 792 21 794 2 2 116 -2 254 -9 304 -16 415 -10
535 25 229 67 385 202 496 428 21 43 43 85 49 92 7 8 16 29 20 47 5 18 30 92
55 163 58 164 99 327 120 486 54 411 125 1016 125 1066 0 72 -32 145 -84 191
-20 17 -41 32 -46 32 -23 0 -58 -21 -73 -43 -28 -44 -56 -251 -102 -764 l-44
-498 -60 -227 c-55 -206 -68 -241 -141 -392 -70 -143 -88 -172 -133 -211 -63
-55 -180 -106 -337 -147 -101 -27 -137 -31 -295 -36 -116 -3 -208 0 -262 8
l-83 12 0 157 c0 86 -7 554 -15 1041 -13 779 -13 891 0 934 25 81 3 132 -72
170 -39 19 -31 20 -72 -2z"/>
<path d="M3243 9415 c-62 -26 -59 -3 -72 -680 -6 -341 -16 -898 -21 -1238 -6
-369 -14 -626 -20 -637 -6 -10 -10 -38 -10 -62 0 -42 -5 -49 -176 -238 -97
-107 -452 -512 -789 -900 -337 -388 -670 -768 -740 -845 -161 -178 -265 -321
-265 -364 l0 -31 114 0 113 0 934 1050 c705 792 942 1065 967 1113 27 51 36
87 52 197 40 281 42 345 51 1315 4 528 12 992 17 1030 15 107 -3 186 -59 249
-44 50 -58 57 -96 41z"/>
<path d="M3463 4617 c-38 -14 -223 -237 -223 -269 0 -13 -62 -85 -166 -194
-91 -95 -169 -184 -172 -197 -4 -13 -261 -320 -572 -681 -311 -361 -571 -671
-578 -688 -10 -23 -11 -38 -3 -55 15 -32 69 -63 111 -63 34 0 58 26 785 857
l750 858 8 -125 c4 -69 14 -235 23 -370 9 -139 18 -447 21 -715 l5 -470 -76
-1047 c-69 -951 -75 -1051 -62 -1083 21 -49 69 -76 131 -73 42 3 52 7 62 28 6
14 36 309 67 655 l55 630 7 1380 c5 1053 4 1394 -5 1437 -14 64 -59 139 -106
174 -26 19 -34 21 -62 11z"/>
</g>
</svg>
