<?xml version="1.0" standalone="no"?>
<!DOCTYPE svg PUBLIC "-//W3C//DTD SVG 20010904//EN"
 "http://www.w3.org/TR/2001/REC-SVG-20010904/DTD/svg10.dtd">
<svg version="1.0" xmlns="http://www.w3.org/2000/svg"
 width="60.000000pt" height="60.000000pt" viewBox="0 0 60.000000 60.000000"
 preserveAspectRatio="xMidYMid meet">
<metadata>
Created by potrace 1.10, written by Peter Selinger 2001-2011
</metadata>
<g transform="translate(0.000000,60.000000) scale(0.100000,-0.100000)"
fill="#000000" stroke="none">
<path d="M290 508 c-58 -4 -116 -6 -130 -4 l-25 5 2 -217 c2 -130 7 -220 13
-226 7 -7 10 -5 10 6 0 13 20 17 118 22 176 10 233 17 226 28 -4 6 -39 7 -95
3 l-89 -7 0 66 0 66 53 0 c55 0 84 11 73 28 -3 5 1 29 9 53 23 65 17 70 -65
63 l-70 -7 0 52 0 51 64 0 c68 0 96 6 96 21 0 10 -42 10 -190 -3z m0 -78 l0
-50 -65 0 -65 0 0 50 0 50 65 0 65 0 0 -50z m135 -102 c-4 -24 -9 -45 -10 -46
-4 -4 -185 -21 -227 -22 -26 0 -28 3 -28 44 l0 44 68 7 c37 3 76 7 87 9 11 2
42 4 68 5 l49 1 -7 -42z m-127 -149 c3 -56 3 -56 -29 -63 -17 -3 -49 -6 -70
-6 l-39 0 0 65 0 66 68 -3 67 -3 3 -56z"/>
</g>
</svg>
