<?xml version="1.0" standalone="no"?>
<!DOCTYPE svg PUBLIC "-//W3C//DTD SVG 20010904//EN"
 "http://www.w3.org/TR/2001/REC-SVG-20010904/DTD/svg10.dtd">
<svg version="1.0" xmlns="http://www.w3.org/2000/svg"
 width="1024.000000pt" height="1024.000000pt" viewBox="0 0 1024.000000 1024.000000"
 preserveAspectRatio="xMidYMid meet">
<metadata>
Created by potrace 1.10, written by Peter Selinger 2001-2011
</metadata>
<g transform="translate(0.000000,1024.000000) scale(0.100000,-0.100000)"
fill="#000000" stroke="none">
<path d="M4595 9423 c-27 -7 -53 -31 -74 -68 -14 -26 -16 -84 -19 -477 -2
-325 -6 -448 -14 -448 -6 0 -70 -29 -142 -64 -231 -113 -327 -185 -895 -677
l-524 -453 -397 -431 c-219 -236 -430 -460 -468 -497 -83 -79 -103 -123 -84
-187 18 -58 48 -91 84 -91 27 0 49 19 163 138 72 75 185 200 250 277 304 359
525 577 1051 1033 l412 357 279 176 280 176 6 -165 c4 -91 7 -517 7 -948 0
-740 1 -786 19 -843 10 -34 15 -61 10 -61 -49 0 -1662 -173 -1686 -181 -73
-23 -98 -115 -46 -163 25 -23 32 -25 102 -20 42 3 481 23 976 45 495 21 1202
53 1570 69 l670 31 140 -21 140 -22 62 -66 c34 -37 74 -90 87 -117 50 -104 54
-159 60 -864 6 -639 6 -655 -14 -723 -13 -42 -25 -66 -32 -62 -5 4 -56 43
-112 88 -225 181 -547 348 -851 441 -222 67 -266 73 -938 125 l-638 50 -402
-65 c-221 -36 -417 -65 -435 -65 -67 0 -124 -22 -168 -65 -48 -45 -58 -89 -28
-119 19 -20 33 -23 169 -36 165 -16 167 -15 343 24 326 72 649 102 1007 93
318 -8 556 -37 814 -98 387 -91 765 -275 1073 -521 l88 -70 -48 -60 c-81 -104
-130 -155 -220 -226 -270 -215 -573 -345 -923 -396 -149 -22 -187 -21 -1074
24 -789 40 -790 40 -912 71 -81 21 -134 29 -155 25 -54 -10 -97 -43 -120 -91
l-22 -45 21 -21 c14 -14 97 -42 264 -89 l244 -68 325 -28 325 -28 495 13 c503
12 636 22 814 62 140 31 344 102 479 168 205 99 288 158 484 347 98 94 182
170 188 170 18 -2 251 -252 323 -348 39 -53 104 -149 143 -214 39 -66 90 -148
112 -183 42 -65 69 -129 90 -212 7 -26 20 -56 30 -66 9 -11 17 -31 17 -45 0
-32 29 -119 47 -139 8 -9 29 -70 47 -135 19 -66 59 -174 89 -242 66 -146 196
-557 242 -767 18 -82 45 -177 59 -210 14 -33 26 -68 26 -78 0 -10 6 -30 14
-45 7 -15 28 -108 45 -207 20 -115 38 -189 49 -205 29 -39 80 -62 127 -55 68
10 75 24 75 140 0 134 -22 248 -70 365 -21 52 -98 301 -170 553 -86 298 -145
487 -171 541 -21 46 -39 92 -39 102 0 31 -49 175 -69 203 -10 14 -32 72 -49
129 -130 429 -392 854 -758 1232 -81 83 -101 109 -93 122 19 35 59 207 70 304
10 84 7 214 -15 760 -14 363 -31 688 -37 724 -24 152 -158 330 -299 398 -143
69 -102 66 -972 70 l-788 3 1 897 c1 493 4 964 8 1047 l6 149 34 7 c20 4 114
-4 235 -21 170 -24 215 -34 290 -64 194 -80 392 -194 566 -326 97 -74 737
-680 763 -722 40 -66 115 -157 271 -328 88 -96 179 -196 202 -223 70 -76 110
-82 172 -24 28 27 32 37 32 81 l0 51 -234 280 c-177 212 -284 330 -444 486
-361 354 -758 698 -954 829 -139 92 -297 175 -360 189 -62 14 -481 44 -545 39
l-52 -5 -6 71 c-8 85 9 363 31 500 23 147 6 227 -64 299 -35 36 -46 40 -87 30z"/>
<path d="M9702 769 c-47 -10 -48 -15 -7 -29 41 -13 48 -10 43 17 -2 16 -8 18
-36 12z"/>
</g>
</svg>
