<?xml version="1.0" standalone="no"?>
<!DOCTYPE svg PUBLIC "-//W3C//DTD SVG 20010904//EN"
 "http://www.w3.org/TR/2001/REC-SVG-20010904/DTD/svg10.dtd">
<svg version="1.0" xmlns="http://www.w3.org/2000/svg"
 width="1024.000000pt" height="1024.000000pt" viewBox="0 0 1024.000000 1024.000000"
 preserveAspectRatio="xMidYMid meet">
<metadata>
Created by potrace 1.10, written by Peter Selinger 2001-2011
</metadata>
<g transform="translate(0.000000,1024.000000) scale(0.100000,-0.100000)"
fill="#000000" stroke="none">
<path d="M4323 9122 c-35 -15 -91 -51 -125 -80 -61 -52 -67 -55 -213 -92 -82
-21 -170 -46 -195 -56 -164 -65 -312 -230 -345 -384 -3 -14 -36 -61 -73 -105
-60 -71 -75 -83 -131 -102 -120 -43 -191 -110 -260 -242 -54 -105 -90 -225
-102 -345 -6 -55 -14 -115 -20 -132 -5 -17 -9 -38 -9 -48 0 -10 -9 -30 -19
-45 -11 -14 -22 -48 -26 -74 -4 -26 -18 -64 -31 -83 -13 -19 -24 -45 -24 -57
-1 -12 -8 -40 -16 -62 -8 -22 -19 -97 -24 -167 l-10 -126 -420 -603 c-249
-358 -420 -612 -420 -625 0 -13 -4 -25 -9 -28 -5 -3 -35 -51 -66 -107 -32 -55
-68 -107 -81 -116 -27 -17 -53 -59 -79 -128 -25 -66 -78 -153 -104 -172 -33
-22 -83 -140 -70 -162 9 -13 -3 -45 -60 -159 -39 -78 -75 -142 -80 -142 -18 0
-80 -66 -86 -91 -8 -33 20 -48 42 -22 13 17 14 17 9 -2 -16 -64 -37 -186 -52
-295 -20 -152 -15 -506 10 -697 26 -199 103 -550 126 -578 5 -6 30 -51 55
-100 113 -219 283 -443 478 -631 121 -118 313 -271 409 -327 27 -15 48 -32 48
-38 0 -6 5 -7 12 -3 12 7 5 -8 -15 -34 -8 -10 -12 -10 -18 0 -4 7 -11 10 -14
6 -8 -8 25 -39 35 -33 4 3 10 -2 14 -10 3 -8 12 -15 20 -15 8 0 21 -6 28 -13
7 -7 51 -29 98 -49 237 -101 458 -132 730 -104 85 8 214 20 285 26 72 6 198
19 280 30 83 11 323 40 535 65 989 116 934 108 1208 185 485 138 1036 328
1233 426 62 31 77 34 221 43 207 14 705 121 840 180 151 67 339 206 399 296
23 34 26 36 64 30 22 -3 155 -14 295 -24 l255 -18 562 68 c309 38 573 73 586
78 14 5 34 7 46 4 27 -7 66 19 87 59 9 17 30 81 46 142 27 98 30 123 26 213
-4 93 -8 109 -41 177 -43 86 -116 160 -201 201 -53 26 -53 26 -92 8 -22 -10
-44 -24 -49 -31 -6 -7 -85 -36 -175 -63 l-165 -50 -215 -9 c-118 -5 -230 -9
-248 -10 l-33 0 67 91 c53 72 72 107 90 172 13 45 47 122 75 172 46 83 56 111
115 355 40 166 79 301 104 360 62 148 70 311 25 468 -19 64 -72 171 -108 220
-14 19 -31 57 -37 85 -7 29 -20 61 -30 72 -10 11 -29 43 -43 70 -14 28 -44 68
-66 90 -27 25 -41 48 -41 65 0 44 -41 103 -90 128 -37 19 -57 23 -112 20 -58
-3 -72 -8 -97 -32 l-29 -28 -38 69 c-171 310 -311 493 -565 735 -94 90 -346
345 -562 567 -317 327 -422 443 -550 605 -210 266 -327 397 -456 509 -382 334
-705 494 -1120 551 -130 19 -409 21 -513 5 -65 -10 -71 -9 -83 9 -8 10 -36 27
-62 37 -26 10 -66 28 -88 41 -33 19 -60 24 -160 29 -66 3 -145 8 -175 10 -44
4 -67 -1 -117 -23z m391 -145 c16 -12 -3 -21 -164 -80 -101 -37 -184 -66 -185
-65 0 2 -18 26 -38 54 -20 29 -37 54 -37 58 0 3 17 14 38 25 32 18 57 20 203
21 121 0 170 -3 183 -13z m479 -184 c-7 -2 -19 -2 -25 0 -7 3 -2 5 12 5 14 0
19 -2 13 -5z m-68 -14 c-40 -11 -95 -65 -102 -101 -3 -15 -12 -33 -19 -39 -8
-6 -14 -27 -14 -46 0 -28 -3 -34 -16 -29 -9 3 -20 6 -25 6 -5 0 -9 13 -9 28 0
20 -9 35 -30 50 -16 12 -32 22 -35 22 -3 0 -55 -36 -115 -80 -110 -80 -149
-96 -66 -28 45 39 74 87 83 142 l5 34 112 25 c105 23 304 38 231 16z m523 -33
c75 -18 182 -50 237 -71 341 -126 659 -373 858 -665 50 -73 107 -140 191 -220
66 -63 136 -141 156 -173 46 -72 471 -519 865 -907 253 -250 515 -546 515
-582 0 -10 16 -41 35 -69 19 -28 35 -56 35 -61 0 -5 13 -28 29 -51 104 -153
153 -283 241 -634 98 -396 99 -371 -29 -727 l-99 -275 -185 -218 c-462 -546
-889 -884 -1481 -1174 -437 -215 -1064 -413 -1716 -543 -299 -59 -464 -83
-704 -100 -195 -14 -200 -14 -250 6 -49 20 -63 20 -402 14 l-351 -6 -384 55
c-424 60 -463 70 -639 161 -138 71 -224 136 -344 258 l-99 100 47 12 c47 12
54 18 128 113 l42 53 -29 24 c-17 13 -38 24 -48 24 -17 0 -17 2 -1 32 16 32
16 32 -12 55 -16 13 -38 23 -49 23 -11 0 -57 -25 -103 -55 -61 -41 -82 -61
-82 -78 -1 -52 -49 59 -78 181 -75 311 -105 648 -83 932 13 169 43 293 101
417 48 103 363 549 676 958 322 422 429 594 708 1140 141 275 153 303 251 590
57 165 117 331 133 368 29 64 32 67 65 67 21 0 41 7 52 19 17 20 17 20 45 -1
19 -13 37 -19 52 -15 15 4 -9 -24 -70 -81 -102 -95 -112 -119 -64 -148 15 -9
39 -25 54 -35 15 -11 35 -19 44 -19 9 0 75 41 147 92 95 66 141 92 164 93 41
2 69 27 77 67 3 18 14 40 23 51 25 27 22 89 -5 126 -12 17 -22 36 -22 44 0 21
-58 59 -75 50 -8 -5 -65 -56 -126 -113 -78 -73 -109 -97 -104 -79 20 64 65
139 115 189 49 49 60 69 92 158 l37 102 -33 25 c-24 18 -39 23 -54 18 -12 -5
-82 -72 -157 -150 -74 -79 -135 -141 -135 -138 0 2 18 32 40 66 22 34 48 87
57 118 32 99 234 291 432 410 46 28 86 50 87 48 2 -2 -6 -23 -18 -47 -15 -30
-22 -62 -22 -98 1 -48 5 -57 32 -79 26 -20 30 -29 25 -54 -4 -22 0 -38 15 -59
19 -25 20 -35 12 -77 -8 -44 -7 -50 15 -70 21 -19 36 -21 121 -22 68 0 106 5
127 15 26 14 103 91 242 242 l49 54 -22 38 c-12 22 -22 41 -22 43 0 3 37 7 83
8 107 5 179 39 261 123 33 34 74 66 90 72 22 7 34 20 41 42 5 18 10 32 12 32
2 0 65 -15 141 -34z m-1455 -24 c-12 -9 -62 -51 -112 -92 l-90 -75 -143 -41
c-79 -23 -145 -40 -147 -38 -10 9 55 97 103 142 93 85 189 120 331 121 77 1
79 0 58 -17z m-406 -399 c-127 -167 -192 -310 -279 -602 -33 -113 -68 -217
-78 -231 -9 -14 -20 -44 -24 -68 -8 -56 -159 -432 -199 -499 -27 -44 -37 -52
-62 -53 -43 0 -131 54 -159 98 -15 24 -26 59 -30 98 -5 56 1 83 79 339 47 153
85 288 85 300 0 74 63 228 128 314 53 69 293 233 385 261 34 11 91 37 127 59
36 22 66 40 68 41 2 0 -17 -26 -41 -57z m-834 -1528 c23 -20 67 -45 98 -56
l57 -21 -92 -152 c-50 -83 -97 -167 -102 -186 -11 -37 -729 -1026 -795 -1095
-21 -22 -41 -53 -45 -70 -4 -16 -42 -73 -84 -125 -57 -70 -101 -142 -169 -272
-146 -283 -176 -401 -187 -731 -13 -394 43 -804 142 -1044 163 -395 567 -735
1027 -863 400 -112 748 -155 1062 -132 153 11 158 10 186 -10 30 -22 64 -23
429 -3 79 4 53 -2 -155 -35 -515 -82 -539 -84 -885 -84 -554 -1 -785 50 -1063
234 -469 311 -818 819 -906 1321 -56 316 -55 628 4 939 l24 125 153 298 c84
164 185 360 223 435 39 75 119 214 179 307 111 175 846 1255 854 1255 2 0 22
-16 45 -35z m5987 -1041 c0 -9 22 -44 48 -78 27 -33 90 -133 141 -221 l93
-160 18 -115 18 -115 -33 -130 c-18 -71 -37 -152 -41 -180 -4 -27 -20 -78 -35
-113 -16 -35 -43 -112 -60 -170 -17 -59 -57 -167 -91 -241 -49 -110 -59 -140
-56 -175 4 -39 0 -46 -105 -176 -60 -74 -112 -141 -115 -150 -3 -8 -16 -23
-29 -33 -25 -20 -47 -80 -41 -116 2 -17 26 -37 95 -77 l93 -53 217 -11 c120
-6 238 -13 262 -16 l43 -6 -7 -98 c-7 -97 -7 -99 19 -124 25 -26 60 -33 85
-17 10 6 17 40 21 103 11 136 18 165 43 172 12 3 22 4 23 3 1 -1 -2 -27 -7
-57 -19 -116 12 -200 73 -200 37 0 43 14 68 170 12 68 22 125 23 126 1 0 22 8
47 17 25 9 75 27 111 41 l67 24 26 -94 26 -95 -17 -66 c-10 -36 -22 -67 -28
-68 -5 -1 -32 -9 -60 -18 -27 -8 -73 -18 -102 -21 -28 -3 -69 -14 -90 -24 -32
-16 -76 -21 -268 -31 -322 -16 -295 -18 -295 24 0 19 10 60 21 91 l22 58 -28
23 c-33 29 -58 24 -102 -22 -36 -38 -53 -88 -53 -161 l0 -51 -64 -11 c-35 -7
-71 -12 -80 -12 -38 0 -6 129 54 212 42 59 43 75 9 96 -34 22 -74 5 -128 -54
-55 -60 -91 -141 -91 -204 0 -45 -2 -46 -80 -28 l-51 12 6 37 c4 21 31 75 61
120 30 46 54 88 54 95 0 7 -12 22 -26 33 -24 19 -29 19 -54 6 -48 -25 -170
-164 -170 -194 0 -48 -11 -71 -34 -71 -25 0 -104 -35 -127 -56 -14 -13 -21
-13 -41 -3 -49 27 -77 13 -177 -84 -99 -96 -165 -141 -292 -202 -81 -38 -110
-46 -499 -130 -140 -31 -263 -58 -272 -61 -13 -4 -16 -1 -12 11 4 9 41 33 83
55 42 21 195 105 340 188 259 146 271 155 609 418 l345 269 211 227 c276 298
361 428 449 684 82 237 98 388 72 698 l-17 210 -63 170 c-77 211 -79 216 -66
216 6 0 11 -7 11 -16z m-6852 -2727 l42 -13 -29 -22 c-17 -12 -32 -22 -35 -22
-2 0 -13 16 -25 35 -23 39 -18 41 47 22z"/>
<path d="M5670 8693 c-8 -3 -25 -15 -37 -25 -14 -14 -39 -21 -72 -23 -54 -3
-119 -35 -158 -77 -42 -44 -74 -132 -71 -190 3 -52 4 -54 49 -77 53 -28 83
-24 131 17 18 16 55 39 81 51 26 13 60 39 75 59 15 19 46 55 69 79 70 73 70
110 -2 161 -25 18 -47 32 -48 31 -1 0 -9 -3 -17 -6z"/>
<path d="M5754 8421 c-108 -69 -192 -159 -244 -260 l-22 -44 23 -18 c91 -70
246 -40 433 85 103 69 166 127 166 154 0 11 -11 34 -24 49 -23 27 -29 28 -123
31 -59 3 -104 9 -113 16 -31 26 -39 25 -96 -13z"/>
<path d="M4948 8230 c-69 -21 -199 -144 -248 -234 -20 -38 -23 -49 -12 -64 23
-32 24 -42 8 -76 -23 -48 -20 -62 17 -92 l34 -27 -38 -41 c-46 -48 -50 -82
-15 -115 31 -30 68 -24 163 24 51 26 81 35 120 35 l51 0 62 120 c63 124 65
137 27 168 -12 10 -11 19 9 60 13 26 24 57 24 69 0 27 -35 53 -72 53 -25 0
-27 2 -18 26 18 46 12 63 -30 84 -43 22 -43 22 -82 10z"/>
<path d="M6005 8088 c-11 -6 -73 -61 -137 -121 -84 -77 -118 -116 -118 -132 0
-12 -7 -42 -15 -66 -16 -44 -16 -44 11 -67 23 -20 34 -23 68 -17 23 4 84 6
137 5 l96 -1 12 29 c10 23 10 35 1 52 -10 19 -7 25 28 56 44 38 92 123 92 165
0 22 -8 30 -59 53 -32 14 -64 33 -71 41 -15 18 -19 18 -45 3z"/>
<path d="M6023 7578 c-114 -113 -133 -136 -133 -163 0 -73 124 -123 167 -67 7
9 13 29 13 44 0 23 17 40 100 103 75 57 100 81 100 98 -1 24 -81 117 -101 117
-7 0 -72 -59 -146 -132z"/>
<path d="M6357 7500 c-137 -68 -330 -258 -398 -393 -22 -43 -20 -51 22 -72 33
-18 3 -41 265 201 118 110 149 133 188 143 33 8 50 19 58 35 17 39 2 75 -37
92 -43 18 -52 17 -98 -6z"/>
<path d="M3965 7268 c-137 -133 -254 -251 -258 -262 -9 -23 10 -42 52 -53 57
-14 258 83 327 159 12 12 63 97 114 188 l91 165 -26 22 c-14 13 -31 23 -38 23
-7 0 -124 -109 -262 -242z"/>
<path d="M5290 7444 c-45 -42 -54 -46 -88 -42 -23 4 -50 17 -71 37 -19 17 -37
30 -41 29 -4 -2 -87 -70 -184 -153 -115 -98 -176 -156 -176 -169 0 -10 -11
-34 -25 -52 -35 -46 -33 -79 8 -105 20 -13 42 -18 60 -15 15 3 38 1 52 -4 19
-7 49 -4 113 11 61 14 102 18 139 14 51 -6 53 -5 63 20 5 14 10 37 10 49 0 17
25 46 83 99 93 84 147 156 177 234 l20 52 -29 20 c-42 30 -56 27 -111 -25z"/>
<path d="M6307 7153 c-100 -81 -185 -152 -189 -157 -16 -23 -7 -45 26 -66 l35
-21 48 21 c36 15 88 59 197 169 l148 148 -34 27 c-19 14 -38 26 -41 26 -4 0
-89 -66 -190 -147z"/>
<path d="M5333 6976 c-112 -55 -518 -367 -526 -404 -14 -69 189 -51 313 28 25
16 122 106 215 200 l170 172 -30 24 c-16 13 -35 24 -41 24 -6 0 -51 -20 -101
-44z"/>
<path d="M4129 6932 c-9 -4 -108 -94 -220 -201 -186 -177 -233 -230 -217 -246
11 -11 213 -21 228 -12 27 17 125 138 131 162 4 13 50 72 103 132 53 59 96
113 96 120 0 6 -12 21 -26 32 -27 21 -64 26 -95 13z"/>
<path d="M6454 6914 c-115 -47 -231 -163 -264 -264 -14 -42 -14 -43 14 -67 39
-33 71 -24 120 33 22 25 91 96 154 157 l114 112 -33 28 c-18 15 -36 27 -39 27
-3 -1 -33 -12 -66 -26z"/>
<path d="M5475 6741 c-157 -76 -360 -191 -510 -288 -117 -76 -242 -200 -297
-293 -34 -59 -36 -64 -20 -76 35 -27 62 -15 160 69 212 182 398 306 648 433
156 79 162 81 218 76 64 -5 76 3 76 51 0 39 -15 64 -50 82 -47 24 -78 17 -225
-54z"/>
<path d="M6470 6594 c-85 -52 -163 -101 -173 -109 -24 -21 -18 -53 14 -77 26
-19 26 -19 88 6 83 33 184 103 251 171 l55 56 -30 25 c-16 13 -34 24 -40 23
-5 0 -80 -43 -165 -95z"/>
<path d="M4000 6494 c-85 -63 -191 -139 -235 -168 -91 -60 -161 -126 -211
-200 -40 -60 -42 -78 -9 -100 31 -21 73 -20 97 1 17 15 18 15 18 -11 0 -16 10
-37 26 -51 31 -28 34 -29 66 -14 28 13 298 350 298 372 0 9 40 64 90 124 l90
108 -32 28 c-18 15 -35 27 -38 27 -3 0 -75 -52 -160 -116z"/>
<path d="M6896 6562 c-31 -7 -393 -291 -399 -312 -8 -32 29 -70 67 -70 26 0
56 17 127 70 85 63 279 244 279 260 0 16 -57 56 -74 52z"/>
<path d="M5394 6436 c-202 -99 -484 -310 -484 -362 0 -26 32 -64 54 -64 7 0
42 22 77 49 139 105 282 186 464 264 77 33 103 50 113 71 18 37 -4 71 -55 85
-54 15 -49 16 -169 -43z"/>
<path d="M6959 6252 c-19 -9 -112 -73 -207 -140 -141 -100 -172 -127 -172
-147 0 -24 41 -65 65 -65 7 0 60 23 117 52 90 45 116 64 201 150 54 54 97 103
95 110 -2 6 -18 22 -34 35 -30 22 -31 22 -65 5z"/>
<path d="M7094 6118 c-181 -91 -454 -290 -467 -340 -7 -27 26 -68 56 -68 34 0
299 166 407 255 173 143 174 143 158 167 -28 41 -49 39 -154 -14z"/>
<path d="M5266 6055 c-192 -86 -260 -142 -301 -250 -18 -45 -18 -46 5 -70 13
-14 31 -25 41 -25 10 0 46 24 79 53 182 154 231 182 348 192 80 7 85 9 103 38
22 37 13 58 -41 95 -52 35 -98 29 -234 -33z"/>
<path d="M3659 5759 c-137 -130 -169 -166 -169 -188 0 -21 -14 -38 -69 -80
-38 -30 -72 -64 -75 -75 -7 -27 30 -66 61 -66 13 0 40 -7 60 -15 32 -14 39
-14 60 1 14 8 31 30 38 48 8 18 24 37 37 43 68 32 184 167 221 254 8 20 40 68
71 108 31 40 56 76 56 80 0 12 -76 51 -99 51 -15 0 -79 -54 -192 -161z"/>
<path d="M7171 5774 c-93 -49 -179 -109 -272 -185 -70 -59 -77 -89 -29 -114
30 -16 34 -15 133 30 94 43 110 55 210 153 59 59 107 110 107 114 0 13 -39 48
-52 48 -7 0 -51 -21 -97 -46z"/>
<path d="M5390 5783 c0 -5 -20 -14 -45 -21 -110 -29 -288 -142 -308 -194 -8
-23 5 -44 34 -53 22 -7 394 128 421 152 41 37 2 109 -64 120 -21 3 -38 1 -38
-4z"/>
<path d="M7345 5499 c-55 -33 -143 -93 -195 -132 -185 -138 -210 -175 -149
-209 l31 -18 115 61 c95 51 139 83 249 182 74 66 134 126 134 132 0 12 -52 45
-72 45 -7 0 -58 -28 -113 -61z"/>
<path d="M3922 5470 c-12 -5 -66 -48 -119 -94 -93 -83 -97 -85 -167 -96 -117
-19 -138 -27 -198 -77 -74 -62 -132 -139 -153 -205 -9 -29 -26 -72 -38 -95
l-22 -43 26 -26 c43 -43 101 -43 201 -3 81 32 88 38 253 204 139 138 285 309
329 383 12 20 -32 62 -63 61 -14 0 -36 -4 -49 -9z"/>
<path d="M5442 5435 c-128 -68 -259 -172 -275 -217 -7 -21 28 -68 52 -68 20 0
381 265 381 279 0 15 -42 51 -59 51 -9 0 -53 -20 -99 -45z"/>
<path d="M7489 5227 c-47 -22 -387 -289 -392 -308 -8 -31 29 -69 68 -69 30 0
58 21 217 161 101 88 184 168 186 179 2 10 -7 25 -20 34 -26 19 -25 19 -59 3z"/>
<path d="M4118 5167 c-40 -17 -956 -735 -974 -763 -20 -30 -11 -55 25 -77 45
-26 89 -21 177 22 157 76 322 190 483 334 64 57 93 76 123 81 37 6 41 10 68
71 16 36 66 111 111 168 45 56 86 107 91 114 7 8 -3 20 -31 37 -22 14 -42 26
-43 26 -2 -1 -15 -6 -30 -13z"/>
<path d="M5278 5016 c-58 -52 -108 -103 -112 -113 -10 -24 19 -43 66 -43 50 0
90 18 158 69 30 22 65 41 77 41 13 0 32 9 43 20 58 58 21 120 -74 120 -52 0
-53 0 -158 -94z"/>
<path d="M7645 4996 c-143 -96 -280 -212 -389 -327 -75 -80 -87 -97 -84 -123
6 -64 35 -50 303 155 353 268 335 253 335 299 0 29 -6 43 -22 54 -12 9 -25 16
-28 16 -3 0 -54 -34 -115 -74z"/>
<path d="M5361 4755 c-118 -69 -220 -130 -228 -136 -23 -20 -14 -45 25 -66
l37 -21 77 27 c66 22 99 43 223 141 85 67 145 122 145 132 0 17 -36 48 -55 48
-5 -1 -106 -57 -224 -125z"/>
<path d="M7755 4782 c-361 -277 -484 -378 -485 -399 0 -22 33 -53 56 -53 7 0
75 35 152 79 136 76 145 83 279 221 76 78 140 147 142 152 1 5 -4 17 -14 28
-32 35 -52 31 -130 -28z"/>
<path d="M5325 4479 c-93 -38 -175 -75 -182 -82 -6 -6 -15 -24 -18 -38 -5 -21
-1 -27 20 -37 76 -35 286 19 397 101 57 42 42 128 -21 126 -14 0 -102 -32
-196 -70z"/>
<path d="M3825 4500 c-11 -5 -157 -125 -325 -267 -206 -175 -306 -266 -308
-281 -5 -30 30 -42 119 -42 39 0 101 -5 139 -11 38 -6 75 -7 83 -2 34 20 457
480 457 497 0 28 -44 81 -83 100 -39 18 -52 19 -82 6z"/>
<path d="M7840 4464 c-109 -57 -214 -139 -296 -228 -85 -94 -96 -136 -38 -150
22 -6 46 4 129 55 82 49 128 87 231 191 l129 129 -28 25 c-15 13 -31 24 -35
23 -4 0 -45 -20 -92 -45z"/>
<path d="M7917 4288 c-31 -17 -94 -62 -140 -100 -45 -37 -96 -76 -114 -85 -35
-18 -62 -68 -46 -84 5 -5 41 -10 80 -12 l70 -2 -53 -57 c-68 -74 -75 -95 -40
-125 35 -30 46 -29 88 5 53 42 328 304 328 313 0 4 -14 18 -31 30 -27 19 -36
21 -60 12 -28 -11 -27 -10 13 38 l41 49 -23 25 c-30 32 -43 31 -113 -7z"/>
<path d="M5559 4230 c-141 -77 -221 -115 -303 -144 -78 -27 -91 -35 -99 -60
-14 -42 10 -56 93 -56 103 0 253 48 338 109 15 10 46 24 70 30 33 9 46 19 59
46 19 41 13 59 -29 85 -44 27 -66 25 -129 -10z"/>
<path d="M3794 3970 c-5 -4 -121 -70 -259 -145 -137 -75 -253 -140 -257 -144
-4 -3 -9 -17 -10 -30 -2 -18 5 -29 30 -44 l33 -19 114 47 c63 26 136 61 164
79 75 48 262 206 256 216 -12 20 -62 49 -71 40z"/>
<path d="M5396 3869 c-116 -44 -218 -87 -228 -96 -45 -41 5 -102 90 -111 96
-9 256 65 365 168 l69 64 -31 28 c-17 15 -37 28 -44 27 -6 0 -106 -36 -221
-80z"/>
<path d="M5707 3674 c-93 -48 -264 -113 -367 -140 -107 -29 -129 -42 -130 -80
0 -17 12 -26 61 -43 l60 -23 230 92 c143 58 233 99 239 111 21 39 8 78 -35
101 -5 4 -31 -5 -58 -18z"/>
<path d="M2093 3608 c-87 -65 -112 -89 -115 -111 -6 -34 16 -41 102 -35 33 2
60 3 60 2 0 -1 -29 -20 -63 -43 -91 -59 -114 -121 -58 -154 16 -9 34 -17 41
-17 26 0 199 106 209 128 20 42 13 77 -20 101 -17 12 -37 20 -46 17 -8 -3 5
17 30 44 57 64 68 103 35 130 -12 11 -32 19 -44 20 -11 0 -70 -37 -131 -82z"/>
<path d="M3651 3658 c-106 -45 -301 -245 -301 -308 0 -37 18 -42 87 -24 93 24
162 62 236 134 67 64 70 68 75 121 4 50 2 55 -25 75 -28 21 -28 21 -72 2z"/>
<path d="M5877 3530 c-38 -16 -108 -56 -157 -90 -156 -106 -348 -190 -512
-223 -53 -11 -65 -17 -76 -41 -18 -36 -11 -49 38 -82 60 -40 132 -44 202 -12
64 30 606 344 630 365 9 8 19 26 23 41 5 21 1 31 -20 49 -33 29 -46 29 -128
-7z"/>
<path d="M3613 3329 c-183 -140 -223 -175 -223 -195 0 -24 1 -24 88 -24 l87 1
175 170 175 169 -28 25 c-15 14 -33 25 -40 25 -7 0 -112 -77 -234 -171z"/>
<path d="M5686 3164 l-379 -184 -63 6 c-65 7 -133 -6 -167 -30 -30 -23 -12
-68 38 -96 38 -21 50 -22 126 -16 83 6 87 8 484 198 220 106 403 197 407 203
4 5 8 24 8 42 0 33 -29 64 -60 62 -8 0 -186 -83 -394 -185z"/>
<path d="M3640 3004 c-177 -121 -190 -132 -190 -158 0 -31 30 -56 68 -56 26 0
59 23 177 121 80 67 145 125 145 130 0 9 -54 49 -67 49 -4 -1 -64 -39 -133
-86z"/>
<path d="M6030 3039 c-193 -116 -412 -214 -635 -284 -66 -21 -128 -45 -137
-54 -51 -47 -4 -106 85 -106 41 0 94 17 252 79 305 120 399 173 528 295 61 57
68 78 39 104 -27 25 -39 22 -132 -34z"/>
<path d="M2335 2952 c-30 -10 -124 -115 -127 -142 -3 -19 9 -29 77 -65 91 -49
105 -48 174 12 44 37 71 80 71 111 0 23 -30 52 -55 52 -10 0 -27 -7 -37 -17
-17 -15 -18 -15 -18 1 0 19 -38 56 -55 55 -5 -1 -19 -4 -30 -7z"/>
<path d="M2690 2812 c-27 -8 -180 -104 -180 -113 0 -4 -3 -14 -6 -22 -4 -11 8
-20 40 -32 87 -34 161 -3 207 86 17 34 17 37 1 51 -36 29 -47 35 -62 30z"/>
<path d="M4910 2705 c-102 -71 -111 -93 -54 -120 67 -32 127 -8 165 67 25 48
24 63 -3 82 -31 22 -35 21 -108 -29z"/>
<path d="M2779 2710 c-44 -23 -71 -62 -73 -104 l-1 -31 70 4 c39 2 79 8 89 13
16 9 18 7 13 -12 -7 -27 31 -70 62 -70 52 0 87 37 121 125 8 21 5 28 -25 50
-29 23 -37 25 -56 14 -13 -6 -31 -21 -41 -33 l-17 -21 -1 22 c0 26 -49 63 -82
63 -12 -1 -39 -9 -59 -20z"/>
<path d="M3704 2659 c-17 -5 -43 -21 -58 -35 -49 -49 -24 -134 40 -134 14 0
37 9 51 20 14 11 32 20 39 20 15 0 44 50 44 74 0 15 -60 67 -76 65 -5 0 -23
-5 -40 -10z"/>
<path d="M3178 2623 c-21 -23 -38 -52 -42 -74 l-6 -36 51 -11 c28 -7 55 -12
60 -12 5 0 23 28 40 61 l31 62 -29 23 c-40 33 -64 30 -105 -13z"/>
<path d="M3420 2634 c-29 -25 -60 -72 -60 -91 0 -15 57 -43 87 -43 35 0 56 20
79 75 l16 39 -28 23 c-37 30 -55 29 -94 -3z"/>
<path d="M4483 2637 c-39 -15 -83 -52 -83 -71 0 -10 22 -18 73 -26 39 -6 77
-13 83 -15 19 -6 34 17 34 50 0 23 -8 37 -30 53 -33 25 -33 25 -77 9z"/>
<path d="M3972 2597 c-43 -13 -92 -59 -92 -85 0 -30 46 -62 89 -62 47 0 99 32
107 66 8 32 -1 49 -41 73 -24 15 -36 16 -63 8z"/>
<path d="M4193 2587 c-40 -15 -69 -44 -77 -79 -5 -22 0 -31 26 -52 l32 -25 17
38 c19 42 62 81 90 81 25 0 24 15 -3 34 -26 18 -41 19 -85 3z"/>
<path d="M3493 8103 c-30 -6 -140 -126 -186 -204 -46 -79 -83 -191 -92 -285
l-7 -71 35 -22 c65 -40 100 -21 112 64 17 128 90 293 181 414 l46 62 -28 24
c-16 14 -31 24 -34 24 -3 -1 -15 -4 -27 -6z"/>
<path d="M1031 4476 c-9 -11 -6 -17 14 -30 24 -16 27 -16 51 3 l26 21 -27 10
c-35 13 -50 13 -64 -4z"/>
<path d="M928 4399 c-10 -5 -18 -16 -18 -24 0 -7 -12 -22 -27 -33 -17 -13 -24
-25 -20 -36 11 -28 41 -18 87 29 37 37 41 46 30 60 -14 17 -28 19 -52 4z"/>
<path d="M1037 4353 c-14 -13 -6 -24 15 -21 27 4 36 28 11 28 -11 0 -23 -3
-26 -7z"/>
<path d="M1101 4221 c-10 -7 -12 -21 -7 -55 8 -51 12 -55 32 -28 14 18 18 51
8 76 -7 18 -13 19 -33 7z"/>
<path d="M585 3951 c-3 -6 3 -15 14 -20 24 -14 31 -14 31 -1 0 14 -38 32 -45
21z"/>
<path d="M1070 3946 c0 -2 7 -6 15 -10 8 -3 15 -1 15 4 0 6 -7 10 -15 10 -8 0
-15 -2 -15 -4z"/>
<path d="M598 3876 c-10 -7 -15 -16 -11 -19 11 -12 22 -8 33 13 12 23 3 25
-22 6z"/>
<path d="M797 3873 c-9 -8 -8 -53 2 -77 13 -32 38 4 33 48 -4 33 -19 46 -35
29z"/>
<path d="M1030 3851 c0 -21 6 -30 23 -35 72 -19 92 11 27 44 -50 25 -50 25
-50 -9z"/>
<path d="M534 3774 c-3 -11 -12 -34 -20 -52 -8 -18 -14 -34 -14 -35 0 -2 12
-3 26 -2 22 0 29 7 40 37 11 33 10 38 -7 54 -18 16 -19 16 -25 -2z"/>
<path d="M1111 3739 c-32 -10 -32 -11 -16 -29 21 -23 55 -11 55 20 0 11 -1 20
-2 19 -2 0 -18 -5 -37 -10z"/>
<path d="M885 3730 c-5 -8 17 -64 32 -80 7 -8 23 24 23 47 0 29 -42 54 -55 33z"/>
<path d="M781 3666 c-27 -27 -32 -40 -27 -60 8 -33 39 -50 66 -36 23 12 25 47
7 98 l-12 33 -34 -35z"/>
<path d="M980 3603 c-20 -35 -23 -36 -33 -18 -10 19 -11 19 -17 -5 -7 -31 -35
-37 -61 -14 -40 36 -29 -4 18 -65 1 -2 12 4 23 14 13 12 27 15 45 11 23 -6 26
-4 20 14 -5 15 -2 20 13 20 22 0 32 18 32 56 0 34 -15 30 -40 -13z"/>
<path d="M609 3558 c-8 -19 -6 -34 9 -72 l19 -49 32 29 c32 28 32 30 19 69
-10 32 -18 41 -40 43 -21 3 -30 -2 -39 -20z"/>
<path d="M463 3543 c-36 -7 -28 -30 10 -29 35 2 57 12 57 27 0 9 -26 10 -67 2z"/>
<path d="M430 3431 c0 -22 4 -26 43 -35 35 -8 37 15 2 38 -32 21 -45 20 -45
-3z"/>
<path d="M1111 3358 c-6 -17 -10 -32 -9 -32 2 -1 18 -9 36 -18 47 -25 55 -23
47 15 -12 61 -16 67 -40 67 -17 0 -26 -8 -34 -32z"/>
<path d="M440 3295 c0 -29 8 -32 26 -7 19 24 17 32 -6 32 -15 0 -20 -7 -20
-25z"/>
<path d="M616 3265 c-11 -27 -15 -56 -12 -71 l7 -26 38 39 c36 36 37 40 26 68
-18 46 -39 43 -59 -10z"/>
<path d="M860 3296 c0 -8 5 -18 10 -21 6 -3 10 1 10 9 0 8 -4 18 -10 21 -5 3
-10 -1 -10 -9z"/>
<path d="M762 3283 c-10 -18 -9 -22 8 -26 22 -6 23 -3 11 28 -8 19 -8 19 -19
-2z"/>
<path d="M776 3211 c-12 -22 -14 -35 -6 -44 6 -6 20 -24 31 -40 11 -15 29 -32
39 -37 16 -9 20 -5 29 27 13 46 -1 67 -38 58 -22 -6 -23 -4 -11 10 11 14 10
19 -7 37 l-21 21 -16 -32z"/>
<path d="M1067 3222 c-24 -26 -21 -57 7 -76 22 -14 29 -14 59 -1 28 12 47 31
47 50 0 6 -72 45 -84 45 -7 0 -20 -8 -29 -18z"/>
<path d="M681 3079 c-32 -29 -33 -31 -15 -44 17 -13 21 -12 41 13 43 52 23 76
-26 31z"/>
<path d="M764 2989 c-8 -14 11 -33 25 -25 11 7 4 36 -9 36 -5 0 -12 -5 -16
-11z"/>
<path d="M1017 2936 c-21 -17 -37 -39 -37 -48 0 -15 10 -18 64 -18 71 0 89 12
84 57 -2 23 -9 29 -39 34 -30 4 -42 0 -72 -25z"/>
<path d="M980 2771 c0 -43 -2 -42 102 -56 41 -5 47 -4 53 15 10 32 -18 56 -82
69 -76 15 -73 16 -73 -28z"/>
<path d="M1207 2732 c-38 -42 -33 -141 8 -168 23 -15 27 -15 50 0 37 25 31 48
-20 76 -25 14 -45 27 -45 30 0 16 27 30 57 30 29 0 32 2 24 23 -11 29 -52 34
-74 9z"/>
<path d="M691 2696 c-7 -8 -9 -31 -5 -60 7 -45 10 -48 52 -46 15 1 -12 120
-28 120 -4 0 -13 -6 -19 -14z"/>
<path d="M1070 2622 c-32 -15 -35 -20 -30 -47 3 -20 11 -30 23 -29 9 0 35 1
57 2 33 2 43 7 52 27 9 21 9 29 -3 40 -23 22 -61 25 -99 7z"/>
<path d="M850 2605 c-30 -75 -31 -69 14 -82 24 -7 44 -9 50 -3 12 12 0 50 -28
85 l-24 30 -12 -30z"/>
<path d="M1443 2542 c-11 -7 -37 -131 -29 -139 2 -2 29 -5 61 -6 44 -2 60 2
68 15 9 14 6 21 -15 37 -16 13 -28 34 -32 61 -6 40 -24 51 -53 32z"/>
<path d="M810 2436 c0 -39 22 -62 67 -68 29 -4 33 -1 39 25 3 15 4 30 2 32 -1
2 -27 13 -55 24 l-53 21 0 -34z"/>
<path d="M7987 2408 c-15 -12 -13 -16 13 -45 16 -18 32 -33 34 -33 2 0 9 14
15 31 17 50 -20 78 -62 47z"/>
<path d="M684 2335 c-10 -39 0 -50 19 -21 17 26 16 46 -3 46 -5 0 -12 -11 -16
-25z"/>
<path d="M7897 2343 c-4 -6 5 -21 20 -34 22 -20 24 -21 15 -4 -22 39 -29 47
-35 38z"/>
<path d="M8117 2333 c-4 -3 -7 -25 -7 -47 l0 -41 25 38 c14 20 23 42 20 47 -7
11 -28 13 -38 3z"/>
<path d="M1295 2289 c-9 -16 -15 -46 -13 -66 2 -29 10 -39 40 -56 44 -26 62
-16 25 14 -15 11 -27 27 -27 34 0 19 34 37 54 29 21 -8 20 4 -4 44 -25 41 -54
42 -75 1z"/>
<path d="M7335 2288 c-16 -6 -43 -20 -59 -31 l-28 -20 23 -18 c13 -10 27 -19
31 -19 3 0 18 20 32 45 19 32 31 42 42 38 13 -5 15 -15 10 -55 -7 -48 -6 -49
16 -42 86 27 93 31 96 58 2 18 -3 33 -15 42 -21 16 -105 17 -148 2z"/>
<path d="M8224 2238 l-39 -40 40 7 c42 7 55 18 55 47 0 31 -17 27 -56 -14z"/>
<path d="M1626 2235 c-3 -9 -6 -26 -6 -37 0 -20 0 -20 33 1 17 11 32 26 32 33
0 20 -51 22 -59 3z"/>
<path d="M7080 2225 l-24 -26 26 -25 c24 -24 29 -25 61 -15 47 16 60 46 31 75
-24 24 -67 20 -94 -9z"/>
<path d="M622 2218 c-14 -14 -16 -38 -4 -38 5 0 14 -11 20 -25 16 -34 25 -32
45 10 21 45 21 51 0 51 -10 1 -25 4 -33 8 -9 3 -21 1 -28 -6z"/>
<path d="M995 2188 c-25 -20 -75 -108 -75 -134 0 -6 11 -17 25 -24 35 -19 53
0 25 25 -42 38 -11 76 45 55 15 -6 30 -9 32 -7 12 13 14 79 3 92 -16 20 -22
19 -55 -7z"/>
<path d="M8876 2191 c-22 -24 -9 -54 34 -76 38 -20 46 -19 70 5 26 26 17 46
-31 70 -47 25 -52 25 -73 1z"/>
<path d="M7743 2160 c-30 -12 -29 -16 10 -72 34 -50 47 -57 66 -34 18 21 -23
118 -49 115 -3 0 -15 -4 -27 -9z"/>
<path d="M1707 2132 c-22 -24 -21 -31 3 -25 11 3 20 14 20 24 0 24 -3 24 -23
1z"/>
<path d="M6578 2110 c-52 -31 -80 -152 -37 -165 l21 -7 -23 -24 c-12 -13 -26
-24 -31 -24 -5 0 -32 -15 -60 -34 l-51 -35 38 -15 c51 -22 57 -20 80 13 13 20
27 29 45 29 49 0 105 25 108 50 5 30 -14 52 -44 52 -29 0 -29 -2 -2 82 19 60
20 70 8 78 -19 12 -31 12 -52 0z"/>
<path d="M8271 2086 c-12 -18 -21 -36 -21 -39 0 -3 25 -11 56 -18 47 -11 57
-10 65 2 13 21 11 49 -4 49 -8 0 -22 9 -32 20 -25 28 -40 25 -64 -14z"/>
<path d="M548 2092 c-30 -34 -29 -41 2 -26 30 16 37 28 21 38 -4 3 -15 -2 -23
-12z"/>
<path d="M1522 2078 c-35 -38 -45 -77 -27 -104 17 -26 56 -32 73 -11 14 17 40
109 35 125 -7 20 -58 14 -81 -10z"/>
<path d="M8459 2073 c-10 -26 -1 -71 15 -75 4 -2 9 21 10 50 1 57 -9 67 -25
25z"/>
<path d="M6726 2060 c-31 -37 -32 -42 -7 -64 17 -16 19 -14 29 36 5 29 9 54 7
56 -1 2 -14 -11 -29 -28z"/>
<path d="M6840 2066 c-10 -20 -11 -29 -2 -38 8 -8 13 -4 17 15 10 39 1 52 -15
23z"/>
<path d="M1152 2068 c-17 -17 -15 -32 10 -63 l21 -27 23 43 c12 24 20 47 17
52 -7 11 -58 8 -71 -5z"/>
<path d="M1272 2033 c4 -45 18 -49 31 -9 7 21 6 30 -4 37 -25 16 -30 10 -27
-28z"/>
<path d="M486 2009 c-24 -28 -25 -34 -13 -46 32 -33 74 24 48 65 -6 10 -15 5
-35 -19z"/>
<path d="M780 2006 c0 -12 58 -41 66 -33 2 2 -3 13 -12 25 -17 24 -54 30 -54
8z"/>
<path d="M1975 1980 c-26 -43 -20 -140 8 -140 7 0 20 -9 30 -20 21 -25 29 -25
52 0 17 19 17 22 -11 95 -24 62 -32 75 -51 75 -12 0 -25 -5 -28 -10z"/>
<path d="M7460 1975 c-10 -11 -6 -25 20 -70 17 -30 35 -55 38 -55 4 0 18 16
30 36 l24 36 -33 34 c-36 37 -59 43 -79 19z"/>
<path d="M7930 1943 c0 -55 13 -71 34 -42 20 29 20 43 0 63 -24 25 -34 19 -34
-21z"/>
<path d="M8816 1961 c-16 -18 -15 -20 17 -40 44 -27 47 -27 47 9 0 19 -7 33
-19 40 -25 13 -25 13 -45 -9z"/>
<path d="M7682 1940 c-6 -11 -12 -24 -12 -29 0 -9 89 -66 94 -59 2 1 6 22 9
45 5 42 4 43 -31 53 -48 13 -45 13 -60 -10z"/>
<path d="M783 1886 c23 -21 32 -24 48 -16 26 14 24 30 -3 30 -13 0 -34 3 -48
6 l-25 6 28 -26z"/>
<path d="M8360 1901 c0 -5 7 -12 16 -15 24 -9 28 -7 14 9 -14 17 -30 20 -30 6z"/>
<path d="M1853 1882 c-7 -4 -15 -27 -19 -52 l-7 -44 34 21 c45 29 56 47 40 67
-15 17 -29 20 -48 8z"/>
<path d="M6877 1883 c-13 -3 -16 -11 -11 -31 8 -36 30 -69 53 -81 16 -9 19 -5
25 36 5 36 2 51 -11 65 -16 18 -23 20 -56 11z"/>
<path d="M8780 1851 c0 -13 60 -52 70 -46 19 11 10 22 -30 38 -22 8 -40 12
-40 8z"/>
<path d="M1003 1840 c-13 -5 -23 -12 -23 -16 0 -11 71 -104 80 -104 4 0 13 7
20 15 14 17 -1 75 -27 100 -16 17 -19 17 -50 5z"/>
<path d="M1605 1830 c-14 -15 -15 -20 -4 -20 8 0 26 -7 42 -14 26 -14 27 -14
27 9 0 14 -8 29 -19 35 -26 13 -25 13 -46 -10z"/>
<path d="M7042 1838 c-5 -7 -13 -32 -17 -56 l-7 -43 37 15 c21 9 39 16 41 16
12 0 1 55 -13 66 -23 17 -28 17 -41 2z"/>
<path d="M1342 1808 c-17 -17 -15 -32 8 -53 15 -14 19 -15 15 -4 -3 9 3 23 14
33 11 10 18 23 15 27 -8 13 -38 11 -52 -3z"/>
<path d="M5842 1798 c-27 -30 -37 -71 -20 -86 11 -9 22 0 51 39 20 28 37 54
37 60 0 18 -47 9 -68 -13z"/>
<path d="M6226 1779 c-17 -16 -25 -29 -18 -29 7 0 26 -23 43 -51 18 -28 35
-47 38 -42 4 4 20 25 36 47 27 37 27 40 12 65 -9 15 -28 29 -47 32 -26 6 -38
2 -64 -22z"/>
<path d="M8716 1798 c-23 -13 -46 -62 -46 -97 0 -32 42 -91 65 -91 28 0 44 28
35 61 -5 16 -6 52 -3 78 5 42 3 49 -14 53 -11 3 -28 1 -37 -4z"/>
<path d="M5418 1794 c-18 -17 -6 -45 30 -69 33 -23 37 -24 40 -8 2 10 13 28
24 39 11 13 15 24 10 28 -17 11 -97 18 -104 10z"/>
<path d="M596 1763 c-3 -10 -8 -34 -11 -53 -6 -31 -3 -38 20 -50 23 -12 28
-12 46 7 18 17 20 26 12 64 -7 37 -12 44 -35 47 -18 2 -28 -2 -32 -15z"/>
<path d="M8270 1750 c31 -26 60 -38 60 -25 0 6 -77 55 -87 55 -5 0 8 -14 27
-30z"/>
<path d="M210 1743 c-14 -13 -24 -31 -22 -41 8 -45 12 -46 48 -11 28 27 32 36
21 44 -8 5 -16 15 -18 21 -2 6 -14 1 -29 -13z"/>
<path d="M2182 1747 c-7 -8 -9 -38 -5 -86 l6 -73 43 -21 c40 -19 44 -19 68 -3
23 14 39 45 17 32 -4 -3 -18 5 -30 18 -13 13 -18 27 -13 30 5 3 2 27 -8 58
-14 43 -21 54 -42 56 -14 2 -30 -3 -36 -11z"/>
<path d="M1847 1723 c-4 -3 -7 -16 -7 -28 0 -28 43 -49 71 -35 22 12 26 40 5
40 -7 0 -19 7 -26 15 -13 16 -32 19 -43 8z"/>
<path d="M5577 1714 c-4 -4 -4 -10 -1 -15 6 -10 34 0 34 12 0 10 -24 12 -33 3z"/>
<path d="M6420 1669 c-32 -27 -33 -30 -10 -24 30 9 54 29 49 43 -2 6 -20 -3
-39 -19z"/>
<path d="M8225 1660 l-29 -30 21 -22 c20 -20 24 -20 60 -7 44 17 57 54 27 76
-27 20 -48 16 -79 -17z"/>
<path d="M7470 1669 c-58 -23 -75 -62 -42 -92 33 -30 55 -21 89 36 28 46 30
53 15 59 -23 9 -33 8 -62 -3z"/>
<path d="M7671 1665 c0 -11 4 -29 8 -39 7 -18 8 -18 14 4 4 16 1 30 -8 40 -13
13 -15 12 -14 -5z"/>
<path d="M5677 1640 c-15 -33 -15 -35 5 -38 28 -5 32 3 21 40 l-10 33 -16 -35z"/>
<path d="M9128 1646 c-10 -7 -18 -21 -18 -31 0 -10 -8 -27 -17 -37 -15 -17
-15 -22 -3 -43 19 -31 34 -32 40 -3 4 16 14 24 32 26 21 3 28 -3 36 -27 12
-34 36 -34 45 1 9 32 -2 46 -39 53 -20 3 -37 13 -40 23 -16 49 -18 51 -36 38z"/>
<path d="M390 1635 c-10 -12 -6 -18 22 -35 l33 -20 3 22 c2 13 -4 27 -14 35
-23 17 -29 16 -44 -2z"/>
<path d="M912 1638 c-43 -43 31 -99 89 -68 29 16 25 58 -7 70 -34 13 -67 13
-82 -2z"/>
<path d="M6731 1636 c-40 -48 73 -148 117 -104 24 24 13 52 -36 86 -53 36 -64
38 -81 18z"/>
<path d="M4850 1623 c-28 -20 -25 -34 13 -61 l32 -22 6 27 c4 16 10 35 13 44
10 22 -37 31 -64 12z"/>
<path d="M9340 1594 c-16 -41 -13 -56 13 -52 12 2 21 6 20 11 -2 4 -3 21 -3
37 0 37 -17 39 -30 4z"/>
<path d="M8455 1590 c-11 -12 -20 -41 -23 -74 -4 -48 -2 -55 18 -66 12 -6 33
-9 47 -6 24 7 24 8 17 79 -8 88 -24 106 -59 67z"/>
<path d="M9585 1564 c-10 -26 -14 -49 -9 -54 5 -5 31 10 59 35 48 42 49 44 23
45 -15 0 -30 5 -33 10 -12 19 -22 10 -40 -36z"/>
<path d="M1640 1569 c-12 -21 -7 -49 7 -49 4 0 21 12 37 26 23 21 26 28 15 35
-24 15 -48 10 -59 -12z"/>
<path d="M8831 1552 c-18 -36 -19 -41 -4 -46 23 -9 55 23 51 53 -5 39 -25 36
-47 -7z"/>
<path d="M9836 1568 c-23 -33 -20 -74 7 -93 22 -15 22 -15 28 22 3 21 10 48
17 59 21 39 -26 49 -52 12z"/>
<path d="M5996 1563 c-2 -10 -7 -28 -11 -40 -5 -20 -3 -23 21 -23 24 0 26 2
20 31 -3 17 -6 35 -6 40 0 16 -19 9 -24 -8z"/>
<path d="M6320 1541 c-15 -29 -12 -45 11 -75 17 -22 28 -27 58 -24 31 3 36 7
39 29 2 21 -6 34 -35 58 -44 36 -58 38 -73 12z"/>
<path d="M1985 1537 c-23 -18 -14 -59 21 -93 19 -20 32 -25 67 -22 39 3 42 5
45 33 2 27 -4 34 -52 63 -63 37 -57 36 -81 19z"/>
<path d="M2443 1535 c-40 -28 0 -85 59 -85 30 0 68 31 68 55 0 31 -93 54 -127
30z"/>
<path d="M8124 1536 c-18 -14 -17 -17 23 -57 40 -41 42 -42 75 -29 89 35 73
100 -26 100 -30 0 -60 -6 -72 -14z"/>
<path d="M340 1534 c0 -12 35 -33 56 -34 11 0 28 8 37 18 14 16 12 17 -39 20
-30 2 -54 0 -54 -4z"/>
<path d="M4557 1522 c-25 -28 -20 -42 14 -42 24 0 30 3 25 16 -3 9 -6 22 -6
30 0 19 -14 18 -33 -4z"/>
<path d="M9962 1523 c-6 -12 -12 -30 -12 -39 0 -17 1 -17 16 -2 9 8 14 26 12
39 l-3 24 -13 -22z"/>
<path d="M2886 1498 c-18 -26 -16 -30 37 -66 66 -44 143 -31 116 20 -12 23
-90 68 -117 68 -11 0 -28 -10 -36 -22z"/>
<path d="M7816 1499 c-35 -28 -33 -43 11 -64 26 -13 44 -15 62 -9 32 12 50 56
31 78 -18 22 -73 20 -104 -5z"/>
<path d="M4350 1490 c-24 -24 -25 -34 -5 -50 18 -15 31 -7 43 29 13 38 -9 50
-38 21z"/>
<path d="M7188 1479 c-21 -37 -23 -59 -5 -59 22 0 49 36 45 61 -5 33 -21 33
-40 -2z"/>
<path d="M8639 1503 c-17 -4 -29 -31 -29 -66 0 -16 9 -17 88 -15 83 3 87 4 90
26 6 43 -47 79 -74 52 -7 -7 -20 -7 -35 -2 -13 5 -31 7 -40 5z"/>
<path d="M1118 1473 c-9 -10 -21 -28 -27 -41 -12 -22 -11 -23 21 -20 30 3 33
6 36 41 3 40 -6 47 -30 20z"/>
<path d="M1228 1455 c-4 -31 -1 -35 19 -35 23 0 43 26 43 54 0 11 -9 16 -29
16 -25 0 -29 -4 -33 -35z"/>
<path d="M886 1458 c-13 -51 -9 -58 39 -58 l45 0 0 40 c0 40 0 40 -39 40 -32
0 -40 -4 -45 -22z"/>
<path d="M1470 1460 c12 -23 33 -26 49 -6 13 15 -4 26 -40 26 -17 0 -18 -3 -9
-20z"/>
<path d="M4460 1454 c-22 -56 -12 -71 36 -58 36 10 20 83 -19 84 -4 0 -12 -12
-17 -26z"/>
<path d="M6895 1468 c-2 -7 -6 -34 -10 -59 -5 -37 -2 -49 13 -62 11 -10 26
-15 36 -11 19 7 19 8 7 54 -5 19 -12 47 -15 63 -7 28 -24 36 -31 15z"/>
<path d="M7056 1443 c-17 -23 -17 -26 -2 -41 21 -21 28 -12 24 31 l-3 35 -19
-25z"/>
<path d="M502 1453 c-40 -4 -43 -6 -40 -31 3 -24 8 -27 43 -30 33 -2 47 4 80
32 l40 35 -40 -1 c-22 -1 -59 -3 -83 -5z"/>
<path d="M1720 1450 c-13 -8 -13 -10 2 -10 9 0 20 5 23 10 8 13 -5 13 -25 0z"/>
<path d="M3940 1434 c-14 -36 -12 -54 4 -48 8 3 37 1 65 -4 54 -10 80 2 45 21
-10 6 -28 21 -40 34 -29 31 -62 30 -74 -3z"/>
<path d="M6512 1448 c-13 -13 -15 -40 -6 -87 9 -45 34 -21 34 33 0 51 -11 71
-28 54z"/>
<path d="M8047 1432 c-24 -25 -28 -36 -22 -61 8 -40 18 -45 39 -22 12 13 16
32 14 66 l-3 47 -28 -30z"/>
<path d="M9019 1423 c-9 -10 -19 -35 -23 -56 -6 -34 -5 -38 19 -47 15 -6 29
-10 33 -10 7 0 54 112 49 117 -2 1 -17 5 -33 9 -21 4 -34 1 -45 -13z"/>
<path d="M327 1421 c-54 -9 -51 -25 6 -29 42 -3 47 -1 47 17 0 12 -3 20 -7 20
-5 -1 -25 -5 -46 -8z"/>
<path d="M2782 1393 c2 -9 23 -29 48 -44 54 -33 56 -33 64 -14 4 11 -9 25 -42
45 -53 34 -75 38 -70 13z"/>
<path d="M5373 1403 c-7 -2 -13 -19 -13 -37 l0 -33 53 10 c59 11 62 13 72 45
6 21 4 22 -47 21 -29 0 -59 -3 -65 -6z"/>
<path d="M5567 1402 c-3 -4 -5 -24 -4 -45 1 -26 6 -39 19 -43 29 -9 38 4 38
52 0 40 -2 44 -24 44 -14 0 -27 -3 -29 -8z"/>
<path d="M5931 1358 c-40 -52 -40 -53 -21 -72 16 -16 22 -17 34 -7 20 16 42
62 51 101 10 48 -18 38 -64 -22z"/>
<path d="M7340 1390 c-6 -12 -9 -25 -5 -28 9 -9 40 13 40 28 0 23 -23 22 -35
0z"/>
<path d="M178 1393 c7 -3 16 -2 19 1 4 3 -2 6 -13 5 -11 0 -14 -3 -6 -6z"/>
<path d="M1774 1393 c-36 -4 -43 -8 -47 -31 -3 -15 -4 -28 -2 -30 2 -2 28 -6
59 -9 50 -5 59 -3 93 23 l37 28 -30 13 c-29 12 -35 13 -110 6z"/>
<path d="M3345 1378 c-7 -25 -11 -78 -6 -78 3 0 21 14 39 31 27 24 31 33 22
45 -15 17 -49 19 -55 2z"/>
<path d="M5230 1366 l-35 -13 33 -17 c38 -20 52 -14 52 20 0 27 -1 27 -50 10z"/>
<path d="M1942 1337 c3 -28 7 -32 36 -35 31 -3 62 11 62 27 0 4 -23 14 -51 23
l-50 17 3 -32z"/>
<path d="M4782 1348 c3 -21 8 -23 52 -21 44 1 65 13 66 36 0 4 -27 7 -61 7
-57 0 -60 -1 -57 -22z"/>
<path d="M4990 1355 c14 -16 105 -21 114 -6 5 8 -61 21 -107 21 -16 0 -17 -3
-7 -15z"/>
<path d="M7553 1331 c-30 -36 -32 -42 -21 -71 10 -31 11 -32 30 -13 24 24 52
123 35 123 -7 0 -27 -18 -44 -39z"/>
<path d="M9994 1356 c-13 -33 0 -61 29 -64 l28 -3 -21 40 c-22 44 -28 49 -36
27z"/>
<path d="M4147 1343 c-4 -3 -7 -17 -7 -30 0 -20 5 -23 34 -23 27 0 39 7 56 30
l21 30 -49 0 c-27 0 -52 -3 -55 -7z"/>
<path d="M6183 1329 c-10 -11 -31 -33 -46 -49 -24 -24 -27 -35 -22 -60 4 -16
8 -30 10 -30 1 0 19 15 39 33 27 25 38 45 45 80 9 51 1 59 -26 26z"/>
<path d="M6999 1303 c-16 -43 -8 -76 21 -83 87 -23 86 -23 119 30 l31 50 -44
0 c-26 0 -48 6 -56 15 -21 25 -59 19 -71 -12z"/>
<path d="M8402 1307 c-21 -22 -42 -75 -42 -104 0 -7 11 -20 24 -28 22 -15 27
-14 65 6 38 19 54 39 32 39 -6 0 -11 24 -13 53 -3 43 -6 52 -23 55 -12 2 -31
-8 -43 -21z"/>
<path d="M4454 1308 c-30 -14 -21 -58 12 -58 13 0 24 6 24 13 0 6 3 22 6 35 7
24 -6 28 -42 10z"/>
<path d="M9710 1302 c0 -23 30 -52 53 -52 22 0 21 12 -4 44 -24 30 -49 34 -49
8z"/>
<path d="M3453 1286 c-56 -47 -81 -53 -187 -48 -81 4 -98 2 -94 -9 3 -8 12
-13 20 -11 9 1 21 -5 28 -13 16 -19 60 -19 85 -1 17 12 24 12 45 1 40 -21 203
-7 208 18 2 11 -3 17 -16 17 -40 0 -51 10 -45 41 7 36 -6 37 -44 5z"/>
<path d="M6710 1290 c-21 -21 -25 -37 -12 -57 6 -9 17 -6 45 13 43 28 42 27
21 48 -20 21 -30 20 -54 -4z"/>
<path d="M2117 1286 c-4 -10 -1 -13 9 -9 15 6 19 23 5 23 -5 0 -11 -7 -14 -14z"/>
<path d="M4290 1256 c0 -35 13 -46 51 -46 16 0 19 7 19 40 0 39 -1 40 -35 40
-33 0 -35 -2 -35 -34z"/>
<path d="M9336 1281 c-9 -15 75 -67 88 -54 8 9 8 41 -1 46 -19 11 -82 17 -87
8z"/>
<path d="M5759 1243 c-16 -42 -8 -55 20 -34 17 13 22 23 16 39 -9 30 -23 28
-36 -5z"/>
<path d="M7310 1260 c0 -5 6 -10 14 -10 8 0 18 5 21 10 3 6 -3 10 -14 10 -12
0 -21 -4 -21 -10z"/>
<path d="M8850 1260 c-13 -9 -11 -14 14 -36 28 -25 66 -29 73 -8 2 7 -11 21
-30 33 -40 24 -37 24 -57 11z"/>
<path d="M9510 1245 c0 -28 5 -30 40 -10 26 14 27 13 -25 30 -11 3 -15 -3 -15
-20z"/>
<path d="M3795 1250 c-4 -6 5 -10 20 -10 15 0 24 4 20 10 -3 6 -12 10 -20 10
-8 0 -17 -4 -20 -10z"/>
<path d="M8685 1213 c-19 -25 -34 -51 -32 -56 2 -6 22 -16 45 -23 49 -14 56
-7 68 66 5 31 3 44 -7 51 -25 16 -38 10 -74 -38z"/>
<path d="M9130 1229 c-15 -27 -9 -32 24 -20 31 12 32 17 6 31 -15 8 -21 6 -30
-11z"/>
<path d="M2535 1198 l-13 -33 46 -3 c41 -3 50 0 69 25 13 15 23 31 23 36 0 4
-25 7 -55 7 -54 0 -57 -1 -70 -32z"/>
<path d="M2730 1204 c-16 -41 -13 -44 39 -44 42 0 49 3 55 23 11 43 8 47 -39
47 -40 0 -47 -3 -55 -26z"/>
<path d="M5542 1203 c-17 -20 -25 -22 -41 -14 -26 14 -31 14 -31 -3 0 -29 69
-35 126 -11 42 17 40 37 -3 46 -24 5 -34 1 -51 -18z"/>
<path d="M6817 1194 c-43 -29 -49 -54 -11 -54 19 0 28 8 40 36 8 20 14 38 12
40 -2 2 -21 -8 -41 -22z"/>
<path d="M8032 1155 c-44 -41 -26 -48 38 -15 43 22 50 34 24 44 -22 9 -21 9
-62 -29z"/>
<path d="M7680 1105 c0 -19 5 -35 11 -35 13 0 89 43 89 51 0 9 -39 19 -72 19
-25 0 -28 -3 -28 -35z"/>
<path d="M6538 1106 l-97 -11 18 -23 17 -24 102 32 c142 44 138 47 -40 26z"/>
<path d="M6077 1103 c-40 -3 -49 -8 -57 -29 -6 -14 -10 -28 -10 -30 0 -3 32
-2 71 2 l72 7 -7 -37 c-8 -42 3 -50 49 -38 23 6 31 15 33 35 2 19 -1 27 -12
27 -9 0 -16 12 -18 33 -3 29 -6 32 -38 33 -19 0 -57 -1 -83 -3z"/>
<path d="M7232 1103 c-15 -3 -22 -10 -20 -21 4 -21 38 -28 49 -10 11 16 12 38
2 37 -5 -1 -18 -4 -31 -6z"/>
<path d="M7370 1095 c-14 -16 -3 -20 19 -6 8 5 9 11 3 15 -5 3 -15 -1 -22 -9z"/>
<path d="M5916 1074 c-11 -28 -7 -54 8 -48 11 4 36 45 36 59 0 13 -39 3 -44
-11z"/>
<path d="M6331 1053 c-6 -20 -9 -39 -6 -41 2 -2 19 -2 38 2 25 5 37 15 50 41
l17 35 -45 0 c-42 0 -44 -1 -54 -37z"/>
<path d="M5763 1068 c-6 -7 -16 -23 -22 -35 -11 -21 -10 -23 19 -23 20 0 33 6
37 18 3 9 13 25 21 35 14 16 13 17 -15 17 -17 0 -35 -6 -40 -12z"/>
<path d="M6990 1050 c0 -11 7 -20 15 -20 8 0 15 9 15 20 0 11 -7 20 -15 20 -8
0 -15 -9 -15 -20z"/>
<path d="M7110 1060 c0 -5 5 -10 10 -10 6 0 10 5 10 10 0 6 -4 10 -10 10 -5 0
-10 -4 -10 -10z"/>
<path d="M6845 1051 c-31 -5 -41 -11 -43 -27 -3 -20 -1 -21 55 -12 52 8 72 19
73 41 0 8 -24 7 -85 -2z"/>
<path d="M6595 1009 l-100 -16 108 -2 c87 -1 107 2 107 13 0 23 -9 23 -115 5z"/>
</g>
</svg>
