<?xml version="1.0" standalone="no"?>
<!DOCTYPE svg PUBLIC "-//W3C//DTD SVG 20010904//EN"
 "http://www.w3.org/TR/2001/REC-SVG-20010904/DTD/svg10.dtd">
<svg version="1.0" xmlns="http://www.w3.org/2000/svg"
 width="240.000000pt" height="240.000000pt" viewBox="0 0 240.000000 240.000000"
 preserveAspectRatio="xMidYMid meet">
<metadata>
Created by potrace 1.11, written by Peter Selinger 2001-2013
</metadata>
<g transform="translate(0.000000,240.000000) scale(0.100000,-0.100000)"
fill="#000000" stroke="none">
<path d="M771 2074 c-49 -35 -53 -58 -52 -323 2 -431 3 -432 35 -641 39 -248
79 -397 129 -481 26 -44 51 -67 132 -121 206 -138 336 -165 594 -121 183 32
259 75 217 122 -31 34 -77 36 -167 7 -97 -31 -95 -32 -158 73 -44 72 -77 158
-112 291 -12 47 -31 101 -42 122 l-20 36 23 32 c68 96 56 235 -28 332 -40 45
-122 81 -184 80 -45 0 -48 2 -48 25 0 31 -67 181 -144 323 -31 57 -59 116 -63
130 -9 39 -45 99 -69 114 -19 13 -24 13 -43 0z m159 -454 c38 -90 69 -164 67
-165 -7 -5 -152 -53 -154 -52 -8 9 -21 167 -22 282 l-2 140 21 -20 c11 -11 51
-94 90 -185z m286 -271 c80 -55 99 -111 62 -186 -33 -69 -149 -182 -238 -233
-41 -23 -87 -50 -102 -58 -15 -9 -29 -14 -32 -11 -9 9 -46 211 -53 291 -13
147 -16 138 47 160 82 29 222 66 248 67 13 1 43 -13 68 -30z m44 -430 c4 -8
18 -54 31 -104 13 -51 50 -143 84 -213 l61 -124 -60 7 c-177 20 -361 122 -424
233 l-23 41 73 37 c40 20 106 60 146 89 72 53 98 61 112 34z"/>
<path d="M1016 1208 c-37 -9 -75 -23 -83 -29 -23 -20 -35 -48 -28 -69 7 -24
34 -25 135 -9 76 13 110 36 110 73 0 48 -41 59 -134 34z"/>
</g>
</svg>
