<?xml version="1.0" standalone="no"?>
<!DOCTYPE svg PUBLIC "-//W3C//DTD SVG 20010904//EN"
 "http://www.w3.org/TR/2001/REC-SVG-20010904/DTD/svg10.dtd">
<svg version="1.0" xmlns="http://www.w3.org/2000/svg"
 width="1024.000000pt" height="1024.000000pt" viewBox="0 0 1024.000000 1024.000000"
 preserveAspectRatio="xMidYMid meet">
<metadata>
Created by potrace 1.10, written by Peter Selinger 2001-2011
</metadata>
<g transform="translate(0.000000,1024.000000) scale(0.100000,-0.100000)"
fill="#000000" stroke="none">
<path d="M7175 9118 c-55 -5 -264 -41 -465 -79 -336 -64 -499 -86 -2080 -290
-1063 -136 -1820 -229 -1992 -244 l-278 -23 -342 44 c-188 24 -343 42 -345 40
-2 -1 15 -63 36 -137 l39 -134 70 -66 c42 -39 100 -80 146 -104 l76 -38 0 -71
c0 -89 -36 -978 -50 -1226 -63 -1124 -110 -1632 -206 -2205 -196 -1170 -437
-1907 -930 -2847 -63 -119 -148 -276 -189 -349 -41 -72 -75 -135 -75 -139 0
-8 34 -40 42 -40 17 0 329 384 460 566 376 522 747 1291 953 1976 139 460 196
720 296 1329 l83 507 60 -49 c65 -52 166 -109 231 -129 22 -7 47 -18 55 -26
29 -24 145 -74 200 -84 43 -8 77 -7 159 6 l105 18 42 -48 c80 -87 116 -192
135 -381 15 -161 6 -2978 -10 -3100 -14 -104 -40 -234 -76 -390 -21 -89 -24
-117 -16 -145 15 -50 155 -232 243 -316 182 -173 315 -164 428 28 110 186 152
231 979 1028 438 422 809 786 825 808 15 23 34 58 41 79 12 35 12 40 -8 61
-11 12 -27 20 -34 18 -7 -3 -99 -68 -205 -144 -255 -183 -1084 -771 -1273
-903 -208 -145 -339 -229 -358 -229 -10 0 -20 14 -26 37 -7 26 -11 513 -11
1488 1 1566 1 1573 54 1780 14 55 26 115 26 133 0 76 -69 160 -205 247 -46 30
-85 58 -88 62 -3 5 382 66 856 136 l862 128 1640 123 c1798 135 1704 124 1753
193 30 42 38 103 18 140 -17 35 -103 121 -156 158 -19 13 -106 51 -194 85
l-158 60 -112 -10 c-61 -6 -293 -42 -516 -81 -364 -62 -593 -91 -2255 -289
-1768 -210 -2240 -261 -2440 -259 -109 0 -521 32 -530 41 -3 3 1 70 9 149 45
422 79 872 106 1404 11 226 23 451 26 502 l6 92 41 15 c23 9 470 87 992 175
l950 160 1520 126 c945 78 1540 131 1572 141 90 26 142 113 112 187 -16 39
-87 117 -149 162 -36 26 -362 161 -373 154 -1 -1 -47 -6 -102 -11z"/>
<path d="M6695 7700 c-33 -4 -155 -28 -271 -54 -266 -58 -2164 -338 -2415
-357 -147 -10 -193 -9 -452 11 -159 12 -291 20 -293 17 -3 -3 9 -53 27 -111
37 -122 65 -160 162 -230 101 -72 348 -175 420 -176 21 0 73 9 115 19 43 11
340 72 662 135 l585 114 930 82 c512 44 948 86 970 91 51 14 101 65 110 112 7
35 4 41 -48 100 -153 171 -128 153 -285 208 -79 27 -147 48 -150 48 -4 -1 -34
-5 -67 -9z"/>
<path d="M7003 5637 c-28 -23 -52 -47 -52 -53 -1 -7 17 -55 39 -108 l40 -96
-76 -125 c-67 -109 -108 -159 -327 -397 -233 -254 -265 -284 -465 -445 -118
-95 -218 -173 -222 -173 -5 0 -32 20 -62 43 -174 142 -620 460 -853 608 -155
98 -363 206 -460 238 -132 44 -256 38 -305 -14 -20 -21 -22 -30 -14 -52 12
-36 51 -57 164 -88 172 -48 329 -136 564 -313 243 -184 283 -223 2112 -2037
1160 -1152 1169 -1160 1324 -1225 90 -38 160 -36 755 20 465 43 568 55 669 81
114 28 196 62 203 84 4 14 -344 189 -607 306 -260 116 -701 336 -938 467 -396
221 -623 369 -957 627 -638 491 -1484 1151 -1485 1157 0 3 15 9 33 13 76 16
485 211 693 330 133 77 371 239 578 394 94 70 198 144 232 164 89 53 100 68
85 116 -6 22 -26 61 -44 88 -39 55 -324 317 -406 372 -114 75 -144 78 -218 18z"/>
</g>
</svg>
