<?xml version="1.0" standalone="no"?>
<!DOCTYPE svg PUBLIC "-//W3C//DTD SVG 20010904//EN"
 "http://www.w3.org/TR/2001/REC-SVG-20010904/DTD/svg10.dtd">
<svg version="1.0" xmlns="http://www.w3.org/2000/svg"
 width="1024.000000pt" height="1024.000000pt" viewBox="0 0 1024.000000 1024.000000"
 preserveAspectRatio="xMidYMid meet">
<metadata>
Created by potrace 1.10, written by Peter Selinger 2001-2011
</metadata>
<g transform="translate(0.000000,1024.000000) scale(0.100000,-0.100000)"
fill="#000000" stroke="none">
<path d="M2137 8404 c-23 -24 0 -53 110 -139 140 -109 391 -350 516 -494 50
-58 143 -176 206 -261 180 -242 261 -310 373 -310 66 0 110 29 127 83 40 131
4 275 -115 459 -203 315 -709 603 -1165 663 -25 3 -48 2 -52 -1z"/>
<path d="M3098 5952 c-48 -26 -122 -69 -163 -96 -42 -27 -137 -77 -213 -111
-124 -56 -165 -69 -427 -131 -271 -65 -297 -69 -400 -68 -124 1 -252 25 -304
57 -33 20 -34 20 -47 2 -8 -11 -14 -44 -14 -81 0 -52 4 -67 25 -93 38 -44 103
-89 273 -186 l153 -88 42 13 c40 12 174 77 247 120 19 11 190 79 380 150 296
111 347 127 359 115 12 -12 7 -40 -33 -200 -25 -102 -65 -230 -87 -283 -121
-289 -188 -479 -196 -558 -7 -65 16 -110 92 -184 96 -92 236 -320 289 -469 70
-195 44 -274 -185 -567 -145 -185 -322 -353 -514 -486 l-80 -55 -160 -7 c-88
-3 -199 -9 -246 -13 l-86 -6 -21 -43 -21 -43 35 -105 c34 -100 39 -109 91
-153 l55 -47 157 52 c204 69 342 92 591 99 487 14 1075 -77 1515 -236 77 -27
2103 -763 2315 -841 502 -182 963 -304 1200 -317 135 -7 237 9 396 63 200 66
1062 477 1211 576 56 37 104 72 107 77 10 16 -23 34 -72 39 -27 2 -363 -20
-747 -49 -684 -51 -703 -52 -865 -41 -557 40 -1176 167 -2495 512 -662 173
-1311 323 -1644 380 -99 17 -971 100 -1048 100 -22 0 -17 7 43 48 851 593 879
615 926 710 48 99 30 196 -63 352 -67 111 -91 141 -295 356 -95 99 -179 195
-188 212 -37 71 -3 217 98 428 91 190 229 376 339 460 125 94 168 165 170 282
1 46 -4 67 -25 102 -58 98 -182 212 -288 265 -78 39 -87 38 -182 -13z"/>
</g>
</svg>
