<?xml version="1.0" standalone="no"?>
<!DOCTYPE svg PUBLIC "-//W3C//DTD SVG 20010904//EN"
 "http://www.w3.org/TR/2001/REC-SVG-20010904/DTD/svg10.dtd">
<svg version="1.0" xmlns="http://www.w3.org/2000/svg"
 width="240.000000pt" height="240.000000pt" viewBox="0 0 240.000000 240.000000"
 preserveAspectRatio="xMidYMid meet">
<metadata>
Created by potrace 1.11, written by Peter Selinger 2001-2013
</metadata>
<g transform="translate(0.000000,240.000000) scale(0.100000,-0.100000)"
fill="#000000" stroke="none">
<path d="M608 2086 c-50 -38 -58 -52 -58 -98 0 -17 -3 -29 -6 -25 -8 7 -131
-39 -164 -63 -14 -10 -32 -29 -39 -43 -12 -22 -11 -28 15 -56 15 -17 33 -31
40 -31 7 0 36 20 65 45 29 25 58 45 63 45 6 0 22 9 36 20 32 25 40 25 40 1 0
-11 -15 -29 -36 -41 -48 -30 -111 -112 -125 -162 -6 -23 -8 -56 -4 -75 7 -40
75 -113 105 -113 24 0 26 -20 6 -58 -51 -99 -64 -303 -26 -404 24 -64 116
-195 152 -217 12 -8 37 -17 53 -21 28 -5 30 -9 33 -58 2 -41 0 -52 -12 -52 -8
0 -42 -41 -76 -92 -48 -71 -70 -95 -95 -104 -54 -18 -117 -60 -162 -106 -46
-48 -58 -80 -30 -86 10 -2 17 3 17 11 0 23 105 116 156 139 30 13 58 18 79 15
17 -3 95 -37 172 -75 131 -65 156 -73 369 -125 126 -30 243 -58 261 -62 31 -6
32 -5 62 57 16 35 54 97 83 138 30 41 69 102 88 135 18 33 35 62 36 64 2 2 52
-15 111 -39 92 -36 120 -53 193 -116 79 -69 110 -87 110 -65 0 5 -36 43 -81
85 -93 88 -197 143 -319 171 -41 9 -117 30 -167 47 -51 16 -97 27 -102 24 -11
-7 -52 97 -53 134 -1 27 53 117 97 160 28 29 32 52 10 70 -19 16 -19 27 1 47
12 12 14 27 10 54 -5 32 -3 39 14 44 26 8 35 46 19 77 -7 12 -27 41 -46 63
-33 39 -33 40 -27 110 5 51 2 87 -9 126 -8 30 -22 95 -31 144 -9 50 -21 109
-26 132 -8 31 -6 60 6 115 29 128 31 123 -55 121 -92 -3 -187 -24 -289 -64
-136 -54 -312 -156 -398 -231 -19 -17 -37 -29 -39 -27 -2 3 -8 24 -13 47 -9
40 -8 43 22 69 30 26 203 113 223 113 6 0 13 -9 16 -20 7 -28 27 -25 27 4 0
41 -25 52 -75 34 -43 -16 -44 -16 -58 5 -33 51 -82 97 -102 97 -12 0 -42 -16
-67 -34z m111 -38 c22 -24 41 -47 41 -53 0 -10 -139 -90 -145 -83 -1 2 -12 22
-24 46 -16 32 -19 47 -11 61 12 24 70 71 87 71 7 0 30 -19 52 -42z m687 -1
c-3 -12 -10 -46 -16 -75 -10 -44 -16 -53 -38 -58 -53 -13 -399 -169 -480 -216
-45 -27 -123 -78 -174 -114 -104 -73 -100 -74 -112 28 l-7 57 43 43 c71 72
142 124 273 198 197 111 325 154 474 159 40 1 43 -1 37 -22z m-837 -116 c11
-7 1 -16 -38 -35 -28 -15 -70 -43 -92 -63 l-40 -36 -22 22 -22 22 30 26 c37
31 123 73 150 73 11 0 26 -4 34 -9z m811 -82 c6 -23 10 -42 8 -44 -2 -2 -29 1
-61 6 -62 10 -116 1 -151 -25 -32 -25 -9 -37 37 -19 57 23 152 22 175 -1 16
-17 16 -18 -8 -10 -31 10 -123 6 -155 -6 -50 -19 -24 -29 72 -27 l96 2 31
-123 c25 -103 28 -128 20 -161 -13 -48 -1 -82 51 -146 l36 -44 -30 -15 c-16
-9 -42 -16 -56 -16 -14 0 -42 -8 -63 -19 -20 -10 -43 -16 -49 -14 -20 7 -15
51 7 63 29 15 25 32 -7 28 -19 -2 -32 -12 -42 -33 -12 -25 -12 -33 2 -57 11
-19 14 -36 8 -51 -9 -24 -4 -47 10 -47 5 0 9 9 9 20 0 23 15 27 24 5 4 -10 -7
-21 -34 -35 -44 -23 -51 -14 -28 35 16 35 0 45 -24 15 -14 -18 -18 -34 -15
-57 3 -18 2 -35 -3 -38 -5 -3 -7 -12 -4 -19 4 -10 19 -5 61 20 75 45 117 52
151 27 50 -37 35 -56 -51 -66 -59 -7 -78 -18 -51 -28 10 -4 32 -8 47 -8 16 -1
27 -4 25 -8 -14 -30 -47 -80 -66 -102 -19 -20 -22 -32 -17 -60 13 -71 48 -145
84 -177 29 -27 31 -32 14 -28 -13 4 -33 16 -46 28 -28 26 -67 123 -67 167 0
20 -4 29 -12 26 -20 -6 -13 -97 10 -150 23 -51 18 -57 -20 -28 -24 19 -48 78
-48 119 0 25 -19 39 -30 23 -9 -16 5 -92 25 -131 14 -26 14 -30 1 -30 -21 0
-46 52 -53 111 -6 51 -19 71 -33 49 -9 -14 -4 -59 10 -102 7 -22 6 -26 -6 -21
-26 10 -46 62 -39 103 4 25 2 40 -5 45 -21 13 -31 -18 -26 -74 4 -47 3 -51 -8
-35 -21 29 -29 80 -16 103 9 18 8 21 -9 21 -14 0 -21 -9 -25 -35 -4 -20 -4
-40 -1 -45 3 -6 1 -10 -4 -10 -7 0 -11 22 -11 53 0 41 -5 58 -20 72 -20 18
-21 18 -35 -1 -14 -18 -14 -17 -5 10 19 53 -8 73 -31 22 -9 -20 -9 -19 -5 4 2
14 7 33 11 43 5 13 2 17 -13 17 -13 0 -22 -9 -27 -27 -4 -16 -10 -22 -12 -15
-3 7 3 25 13 40 23 34 29 92 9 92 -7 0 -25 -14 -39 -31 -22 -26 -26 -39 -22
-73 3 -22 5 -42 5 -43 1 -2 10 -3 21 -3 15 0 20 -7 20 -25 0 -15 6 -25 15 -25
8 0 24 -19 35 -42 22 -48 74 -103 88 -94 5 3 19 -8 31 -24 13 -19 31 -30 46
-30 13 0 27 -4 30 -10 3 -5 16 -10 28 -10 12 0 30 -11 42 -25 23 -29 45 -36
128 -42 57 -5 59 -5 52 -31 -14 -56 -69 -173 -79 -169 -15 6 -246 164 -325
223 -36 26 -83 54 -106 63 -79 30 -84 38 -87 122 -3 72 -2 77 27 103 29 27 29
28 10 39 -56 30 -122 138 -113 183 4 21 31 30 56 18 9 -4 28 -9 42 -10 14 -1
35 -5 47 -9 19 -6 25 -2 37 26 9 22 11 36 4 40 -6 4 -6 9 2 14 10 6 9 11 -4
20 -13 10 -14 18 -7 39 12 30 0 40 -62 51 -20 4 -37 11 -37 16 0 11 7 11 53
-2 33 -9 41 -8 52 7 7 10 11 24 8 31 -6 14 -64 36 -145 54 -32 6 -55 16 -51
22 3 5 -1 13 -8 18 -11 8 -10 13 8 28 26 22 47 19 83 -10 l25 -19 -44 2 c-26
2 -46 -2 -48 -8 -4 -13 28 -24 67 -24 14 0 43 -9 65 -20 22 -11 43 -20 47 -20
15 0 8 29 -9 39 -17 10 -17 10 0 11 29 0 19 30 -18 52 -20 11 -34 23 -31 26 3
2 17 -3 30 -12 14 -9 30 -16 36 -16 13 0 13 77 0 85 -5 3 -10 16 -10 28 0 13
-9 40 -20 62 -11 21 -19 39 -17 40 53 37 461 220 499 224 4 1 12 -17 18 -40z
m-813 -67 c-61 -65 -80 -178 -39 -240 16 -24 16 -25 -5 -14 -60 32 -80 109
-47 175 21 41 108 131 113 116 2 -6 -8 -23 -22 -37z m25 -57 c-25 -22 -27 -29
-27 -104 1 -64 -2 -78 -12 -70 -17 15 -27 71 -19 112 3 18 19 52 34 75 23 37
28 41 39 26 10 -13 7 -20 -15 -39z m248 -95 c0 -5 -2 -10 -4 -10 -3 0 -8 5
-11 10 -3 6 -1 10 4 10 6 0 11 -4 11 -10z m-43 -39 c12 -18 9 -20 -32 -18
l-43 1 26 17 c35 22 35 22 49 0z m-82 -60 c-6 -5 -21 -12 -35 -15 l-25 -7 25
15 c28 17 50 21 35 7z m-75 -41 c-8 -5 -17 -7 -19 -4 -3 3 1 9 9 14 8 5 17 7
19 4 3 -3 -1 -9 -9 -14z m125 10 c8 -13 -5 -13 -25 0 -13 8 -13 10 2 10 9 0
20 -4 23 -10z m-97 -41 c-15 -11 -39 -35 -53 -52 -14 -18 -25 -27 -25 -20 0
17 74 93 91 93 8 0 2 -9 -13 -21z m197 -40 c10 -14 1 -21 -19 -13 -9 3 -13 10
-10 15 7 12 21 11 29 -2z m-177 -59 c47 0 30 -18 -20 -22 -44 -3 -56 6 -37 28
8 10 15 12 17 5 2 -6 20 -11 40 -11z m105 -27 c-7 -2 -21 -2 -30 0 -10 3 -4 5
12 5 17 0 24 -2 18 -5z m-248 -49 c-15 -28 -16 -28 -11 -4 3 14 6 32 6 40 0
10 3 11 11 3 8 -8 6 -19 -6 -39z m118 -16 c27 8 37 7 41 -3 2 -7 15 -15 28
-18 13 -2 -6 -5 -42 -6 -37 0 -71 -6 -78 -13 -13 -13 -15 -5 -5 30 4 15 8 19
13 12 5 -8 17 -9 43 -2z m127 -42 c0 -2 -9 -6 -20 -9 -11 -3 -18 -1 -14 4 5 9
34 13 34 5z m60 -16 c18 -12 2 -12 -25 0 -13 6 -15 9 -5 9 8 0 22 -4 30 -9z
m-84 -57 c-5 -12 -10 -13 -18 -5 -8 8 -8 15 3 28 15 18 25 4 15 -23z m701 26
c-9 -5 -22 -7 -27 -4 -6 3 -13 -1 -16 -10 -5 -13 -9 -14 -15 -4 -10 17 8 29
46 29 25 -1 27 -2 12 -11z m-857 -20 c0 -6 -4 -7 -10 -4 -5 3 -10 11 -10 16 0
6 5 7 10 4 6 -3 10 -11 10 -16z m-29 -172 c8 -16 8 -19 0 -12 -18 17 -51 125
-50 164 1 27 6 15 20 -47 11 -46 24 -93 30 -105z m89 169 c0 -2 -7 -7 -16 -10
-8 -3 -12 -2 -9 4 6 10 25 14 25 6z m725 -45 c-2 -2 -11 -1 -19 2 -12 5 -14
15 -6 47 0 3 7 -6 15 -20 7 -14 12 -27 10 -29z m-703 2 c-5 -10 -7 -25 -5 -33
3 -8 -1 -6 -10 5 -8 11 -18 17 -22 13 -10 -9 -10 -56 -1 -93 6 -27 6 -28 -5
-10 -7 11 -16 39 -19 62 -6 40 -5 43 24 57 40 20 49 20 38 -1z m41 -192 c-6
-8 -20 13 -28 39 -6 23 -5 22 13 -5 11 -16 18 -32 15 -34z m-83 -17 c0 -18 -4
-18 -24 5 -17 19 -17 19 3 14 12 -3 21 -12 21 -19z m74 -38 c-3 -9 -10 -13
-16 -10 -5 3 -4 12 3 20 15 18 22 13 13 -10z m695 -191 c0 -5 -8 6 -19 25 -11
19 -19 40 -19 45 0 6 8 -6 19 -25 11 -19 19 -39 19 -45z m165 -53 c43 -11 80
-22 82 -24 3 -4 -151 -255 -197 -319 -21 -30 -22 -30 -43 -12 -11 11 -33 27
-48 36 -16 10 -28 22 -28 28 0 6 18 57 41 115 39 101 41 104 72 105 85 3 109
36 48 67 -19 9 -37 23 -39 30 -3 11 0 12 15 4 10 -6 54 -19 97 -30z m-747 0
c49 -26 584 -384 580 -389 -2 -1 -29 5 -62 12 -33 8 -130 31 -215 50 -137 32
-172 44 -306 110 -83 41 -155 75 -162 75 -32 0 -14 46 56 138 29 39 42 39 109
4z"/>
<path d="M1105 1714 c-21 -21 -4 -56 31 -66 16 -4 63 -11 104 -14 41 -4 83
-10 92 -15 9 -5 28 -9 42 -9 21 0 26 5 26 24 0 13 -6 28 -12 33 -22 16 -96 36
-112 30 -8 -3 -17 -3 -20 1 -2 4 -19 9 -37 10 -18 2 -36 6 -39 10 -9 13 -60
10 -75 -4z"/>
<path d="M1180 1593 c-19 -8 -56 -16 -82 -17 -54 -1 -65 -20 -18 -30 17 -3 33
-14 36 -23 26 -81 77 -123 151 -123 50 0 110 26 116 51 6 24 -38 120 -66 141
-27 22 -89 22 -137 1z m18 -64 c0 -17 8 -40 18 -50 23 -25 76 -25 99 1 20 22
35 18 35 -10 0 -25 -58 -44 -110 -35 -77 13 -124 124 -54 125 6 0 11 -14 12
-31z"/>
<path d="M1201 1097 c-23 -47 -26 -67 -11 -67 9 0 50 83 50 101 0 23 -20 5
-39 -34z"/>
<path d="M1131 1076 c-18 -30 -30 -60 -26 -65 11 -18 23 -12 29 14 3 13 20 40
36 59 35 39 37 46 12 46 -11 0 -31 -21 -51 -54z"/>
<path d="M747 1073 c-22 -21 14 -113 44 -113 23 0 23 -3 -1 45 -13 26 -16 42
-10 50 16 19 -16 36 -33 18z"/>
</g>
</svg>
