<?xml version="1.0" standalone="no"?>
<!DOCTYPE svg PUBLIC "-//W3C//DTD SVG 20010904//EN"
 "http://www.w3.org/TR/2001/REC-SVG-20010904/DTD/svg10.dtd">
<svg version="1.0" xmlns="http://www.w3.org/2000/svg"
 width="1024.000000pt" height="1024.000000pt" viewBox="0 0 1024.000000 1024.000000"
 preserveAspectRatio="xMidYMid meet">
<metadata>
Created by potrace 1.10, written by Peter Selinger 2001-2011
</metadata>
<g transform="translate(0.000000,1024.000000) scale(0.100000,-0.100000)"
fill="#000000" stroke="none">
<path d="M4999 8890 c-21 -11 -106 -100 -210 -220 -148 -171 -182 -217 -224
-301 l-51 -100 -13 38 c-8 21 -40 93 -72 160 -76 157 -84 164 -255 197 l-131
25 -884 -338 c-486 -186 -1053 -408 -1259 -494 -902 -374 -1095 -458 -1117
-483 -30 -33 -29 -69 2 -100 22 -21 31 -24 58 -17 18 4 48 7 67 6 19 -1 355
30 745 68 l710 70 675 175 c753 196 856 229 1135 369 l181 90 -14 -85 c-8 -55
-11 -129 -8 -209 4 -89 1 -131 -8 -150 -10 -21 -9 -216 9 -1061 l22 -1035 -26
-20 c-82 -64 -259 -232 -282 -268 -23 -36 -50 -55 -205 -140 -172 -95 -182
-99 -263 -108 -189 -20 -307 -118 -319 -265 -4 -50 0 -71 17 -106 28 -58 63
-90 201 -178 63 -41 117 -76 120 -78 2 -1 -1 -11 -7 -20 -20 -33 -36 -158 -31
-248 6 -101 30 -176 83 -252 l33 -49 -52 -59 c-100 -113 -126 -235 -91 -432
15 -86 37 -121 78 -122 10 0 20 -7 24 -16 3 -8 0 -116 -7 -239 -11 -204 -10
-227 5 -259 24 -51 95 -112 153 -132 34 -12 53 -25 56 -39 2 -11 9 -83 15
-160 6 -77 13 -165 16 -195 5 -62 60 -194 93 -224 17 -15 27 -16 49 -8 22 7
43 5 88 -9 43 -13 75 -17 117 -12 35 3 75 1 103 -7 l45 -13 0 -171 c0 -94 9
-267 20 -385 l20 -213 33 -37 c19 -21 53 -65 75 -98 43 -64 80 -86 161 -99 84
-13 212 53 225 116 3 17 17 46 30 63 l25 33 -14 364 c-8 200 -13 366 -11 367
2 2 47 -15 102 -38 l98 -41 576 -19 c760 -24 876 -24 972 0 75 20 187 69 220
98 16 14 32 13 157 -11 100 -19 241 -33 494 -51 l355 -25 681 69 c747 76 720
71 757 142 15 29 14 31 -19 64 l-33 33 -90 -19 c-61 -13 -332 -38 -878 -78
l-789 -59 -261 39 c-265 40 -340 46 -350 30 -3 -5 -18 -11 -33 -14 -16 -3 -67
-19 -114 -35 -158 -55 -186 -57 -775 -42 l-533 13 18 26 c10 14 21 36 25 48
10 31 -19 81 -51 89 -22 6 -32 1 -55 -25 -15 -17 -28 -38 -28 -46 0 -9 -26
-22 -72 -35 -40 -12 -86 -25 -101 -30 -22 -7 -52 -1 -154 35 -69 25 -143 45
-165 45 -60 0 -78 14 -78 60 0 46 36 95 77 103 38 8 276 251 334 342 25 39 71
105 101 148 48 66 58 88 68 148 16 94 7 151 -32 194 -29 34 -30 36 -18 86 23
95 -9 204 -81 270 l-40 37 21 119 c36 193 10 286 -102 368 l-28 20 34 59 33
59 22 -64 c12 -35 26 -78 30 -94 10 -38 171 -340 224 -420 21 -33 69 -91 106
-128 137 -142 220 -183 275 -135 23 20 26 27 18 49 -6 14 -47 59 -92 100 -119
106 -233 272 -337 485 -46 95 -83 179 -83 188 0 9 -6 27 -14 39 -8 12 -17 38
-21 57 -4 19 -14 47 -21 63 -17 31 -63 242 -74 336 -6 52 -13 69 -39 95 l-31
31 -148 3 c-81 2 -151 8 -156 13 -6 5 -46 9 -91 9 -60 0 -89 5 -116 19 -29 16
-48 18 -98 14 l-62 -6 21 52 c28 73 26 114 -8 152 -44 50 -63 36 -103 -74 -22
-61 -43 -101 -62 -118 -22 -21 -82 -42 -261 -93 -198 -56 -239 -65 -272 -58
l-39 8 53 18 c69 23 155 101 178 161 19 51 15 148 -11 245 -11 42 -12 56 -2
62 54 35 234 119 287 134 36 9 78 28 93 40 49 41 76 39 325 -20 128 -31 240
-60 250 -65 9 -5 71 -14 137 -21 66 -6 131 -16 145 -21 14 -5 77 -13 140 -19
152 -15 333 -51 466 -95 59 -19 109 -33 112 -31 7 8 -20 80 -39 105 -11 13
-19 36 -19 50 l0 27 -517 90 -518 89 -3 156 -2 155 37 18 c23 11 90 23 170 32
127 13 135 13 200 -7 109 -34 176 -73 270 -158 84 -76 428 -341 443 -341 4 0
55 -56 114 -124 59 -68 120 -135 136 -147 16 -13 175 -209 352 -435 178 -226
339 -424 358 -441 23 -20 69 -41 135 -62 97 -31 114 -33 508 -59 l407 -26 738
21 c565 17 749 26 791 37 92 25 114 65 64 113 l-28 26 -185 -7 c-102 -4 -225
-11 -275 -16 -49 -5 -236 -14 -415 -21 -462 -18 -1035 4 -1454 57 -105 13
-137 21 -168 41 -41 27 -638 773 -737 920 -36 54 -62 82 -72 81 -13 -2 -285
228 -578 490 -119 106 -313 195 -495 227 -119 20 -137 19 -233 -13 l-83 -28 0
25 c-1 183 -63 1834 -71 1884 -7 47 -8 86 -1 125 11 63 9 72 -17 72 -15 0 -20
11 -25 51 -4 28 -5 53 -3 55 2 3 40 -39 83 -93 70 -85 112 -122 354 -310 355
-275 490 -365 735 -489 110 -56 259 -131 330 -168 286 -146 616 -256 955 -317
63 -11 131 -25 152 -31 90 -26 153 44 100 113 -11 13 -60 96 -111 184 l-92
160 -317 320 c-1569 1583 -1483 1498 -1559 1538 -77 40 -204 77 -262 77 -20
-1 -52 -9 -72 -20z m194 -170 c40 -22 150 -104 246 -183 148 -121 281 -250
890 -866 l716 -724 -135 71 c-74 39 -159 84 -188 100 -29 16 -314 249 -634
518 -648 544 -611 515 -800 644 -137 93 -137 93 -163 76 -34 -22 -40 -40 -25
-75 16 -40 59 -82 149 -145 77 -54 667 -574 862 -760 144 -138 218 -188 581
-398 257 -149 458 -278 458 -293 0 -8 -320 81 -452 126 -355 119 -506 195
-1023 515 -437 270 -520 330 -656 471 -120 125 -194 228 -266 372 l-61 124 41
67 c23 38 109 143 191 234 114 126 155 166 173 166 13 0 56 -18 96 -40z m-984
-198 c44 -7 45 -7 82 -90 27 -57 35 -84 26 -87 -35 -13 -2179 -556 -2182 -553
-2 2 355 140 793 307 438 167 842 325 897 352 149 71 254 91 384 71z m-75
-432 l-152 -79 -728 -215 -729 -215 -474 -71 c-420 -62 -520 -73 -470 -55 8 2
534 156 1169 340 1129 329 1158 337 1310 354 249 29 246 32 74 -59z m435 -117
c-2 -181 8 -294 31 -353 14 -36 19 -93 24 -285 4 -132 18 -620 31 -1085 14
-465 25 -879 25 -921 l0 -76 -76 12 c-43 7 -80 18 -85 26 -5 8 -9 37 -9 64 0
28 -9 477 -21 999 -20 967 -21 1033 0 1401 12 220 39 365 68 365 10 0 13 -31
12 -147z m-703 -3194 l7 -94 -39 -27 c-77 -53 -133 -72 -232 -76 -85 -4 -95
-3 -108 16 -8 11 -29 24 -47 27 -55 12 -63 48 -19 94 20 22 50 35 122 55 52
15 140 48 195 75 72 35 102 45 107 36 4 -7 10 -55 14 -106z m769 -325 c66 -8
130 -13 142 -11 12 2 44 -1 70 -8 l48 -12 6 -54 c3 -30 4 -68 1 -86 -3 -19 2
-40 12 -54 9 -13 16 -42 16 -64 0 -39 -9 -57 -65 -134 -14 -19 -25 -42 -25
-52 0 -10 -4 -21 -10 -24 -5 -3 -10 -28 -10 -56 l0 -49 -114 0 -114 0 -7 68
c-5 59 2 145 21 238 5 26 2 33 -21 48 -57 37 -100 -20 -110 -146 -4 -43 -10
-78 -15 -78 -23 0 -27 154 -5 215 20 54 19 62 -10 81 -23 15 -26 15 -54 -5
-79 -56 -91 -301 -19 -378 l21 -23 -105 0 c-57 0 -200 3 -317 7 l-212 6 -13
32 c-8 17 -17 94 -21 171 l-7 139 49 35 c65 47 522 194 556 179 16 -7 35 -4
72 10 61 25 89 25 240 5z m414 -209 c16 -62 14 -162 -4 -223 -16 -51 -60 -113
-95 -132 -20 -11 -19 -4 27 116 29 79 44 184 36 254 -6 49 -5 54 9 42 9 -7 21
-32 27 -57z m-589 -534 c36 -6 66 -8 67 -4 4 12 244 6 293 -7 24 -6 58 -9 75
-6 30 6 33 4 40 -26 13 -53 10 -192 -4 -227 -11 -24 -28 -38 -75 -60 -34 -16
-77 -33 -96 -39 -37 -12 -262 -34 -269 -26 -4 4 15 211 25 270 5 27 1 34 -27
52 -24 15 -37 18 -46 10 -22 -18 -66 -180 -71 -260 -4 -68 -7 -77 -26 -82 -11
-2 -131 -8 -265 -12 -207 -6 -243 -5 -239 7 3 8 -4 27 -15 42 -16 24 -19 39
-13 90 5 48 3 64 -11 79 -24 26 -45 22 -69 -15 -30 -46 -23 -140 14 -179 l26
-28 -46 0 -45 0 -7 53 c-3 28 -6 78 -6 110 0 68 21 107 114 209 l61 67 275 -3
c151 -2 304 -8 340 -15z m625 -321 c-15 -29 -42 -44 -32 -17 2 6 13 50 23 97
l19 85 3 -67 c2 -46 -2 -77 -13 -98z m85 -224 c30 -60 31 -67 19 -103 l-12
-38 -13 60 c-6 33 -19 79 -27 103 -22 63 -2 51 33 -22z m-405 23 c5 -7 49 -10
123 -8 l116 3 23 -40 c31 -54 29 -106 -6 -180 -32 -69 -61 -94 -106 -94 -17 0
-46 -11 -64 -24 -18 -14 -51 -28 -73 -31 -22 -4 -87 -33 -144 -65 -57 -32
-106 -54 -109 -50 -3 5 -4 46 -3 90 3 79 2 83 -24 104 -23 18 -28 29 -28 69 0
37 -6 53 -29 79 l-28 31 -30 -21 c-33 -24 -38 -40 -49 -164 -8 -94 -2 -119 40
-166 18 -20 35 -47 38 -59 5 -19 3 -22 -15 -18 -106 22 -146 24 -359 18 l-234
-6 -23 24 c-20 21 -22 31 -17 74 3 28 6 122 6 211 l0 160 260 18 c143 10 305
19 361 20 63 1 103 6 107 14 7 10 45 14 209 20 28 1 55 -3 58 -9z m470 -467
c-4 -30 -9 -51 -12 -49 -2 3 -11 31 -19 62 -15 56 -15 58 8 82 l23 25 3 -34
c2 -18 1 -57 -3 -86z m-125 -19 c0 -16 7 -37 15 -47 36 -47 14 -103 -77 -204
-33 -37 -97 -111 -141 -165 -95 -116 -182 -181 -203 -152 -7 9 -12 35 -12 56
1 71 -53 119 -93 83 -16 -14 -19 -31 -19 -99 0 -44 5 -86 11 -92 18 -18 -219
-71 -337 -75 l-101 -3 -45 37 -44 36 -32 144 c-30 134 -43 278 -24 278 4 0 61
7 127 16 66 9 171 15 234 15 73 -1 117 3 121 10 8 12 270 90 281 83 4 -2 26 7
49 20 24 13 49 22 56 19 8 -3 30 4 49 16 26 15 53 21 96 21 34 0 58 4 55 9 -6
8 7 18 27 20 4 1 7 -11 7 -26z m-336 -728 c4 -12 -3 -15 -32 -15 l-37 1 25 14
c32 18 37 18 44 0z m-1 -181 c11 -4 17 -16 17 -37 0 -18 9 -156 19 -307 11
-151 18 -277 16 -279 -3 -2 -48 3 -102 11 -67 10 -107 12 -126 6 -52 -19 -53
-15 -61 194 -3 106 -9 247 -13 312 l-6 119 119 -7 c65 -4 127 -9 137 -12z m3
-766 c15 -24 -28 -39 -96 -32 -59 6 -79 15 -80 37 0 12 168 8 176 -5z"/>
<path d="M3760 4158 c-22 -36 -29 -141 -10 -153 6 -3 10 -15 10 -25 0 -10 9
-21 20 -24 11 -3 29 -9 40 -12 20 -5 21 -2 18 118 l-3 123 -27 3 c-22 3 -32
-3 -48 -30z"/>
<path d="M4537 3523 c-3 -5 -8 -30 -11 -58 -4 -27 -9 -64 -12 -82 -4 -30 -2
-33 33 -42 20 -6 39 -8 42 -5 3 3 8 42 11 86 4 64 2 82 -11 94 -17 15 -45 19
-52 7z"/>
<path d="M4554 2975 c-21 -32 -15 -106 12 -160 25 -51 48 -65 70 -43 15 14 15
27 6 108 -8 68 -16 96 -29 106 -26 20 -41 17 -59 -11z"/>
<path d="M3890 2910 c-6 -11 -10 -55 -8 -97 3 -74 4 -78 29 -87 51 -18 59 -6
59 93 0 79 -2 92 -19 101 -30 15 -49 12 -61 -10z"/>
<path d="M4610 2466 c0 -12 3 -50 6 -84 7 -59 7 -60 47 -76 32 -12 43 -13 49
-3 14 22 8 41 -32 115 -41 72 -70 93 -70 48z"/>
<path d="M4144 2332 c-6 -4 -14 -52 -18 -107 -9 -129 4 -168 65 -186 66 -20
70 -4 40 160 -16 85 -24 108 -43 123 -26 20 -29 21 -44 10z"/>
<path d="M7208 2394 c-35 -18 -38 -58 -5 -78 12 -8 167 -38 343 -67 349 -58
354 -58 354 0 0 21 -10 32 -47 55 -44 26 -73 32 -333 67 -157 22 -285 39 -285
39 0 -1 -12 -8 -27 -16z"/>
<path d="M7222 2198 c-17 -8 -21 -17 -16 -32 4 -12 7 -21 8 -22 0 0 35 -21 77
-47 l77 -47 250 -17 c207 -14 253 -15 266 -4 17 14 22 56 8 65 -5 3 -108 17
-228 31 -163 19 -242 34 -309 56 -100 32 -100 32 -133 17z"/>
</g>
</svg>
