<?xml version="1.0" standalone="no"?>
<!DOCTYPE svg PUBLIC "-//W3C//DTD SVG 20010904//EN"
 "http://www.w3.org/TR/2001/REC-SVG-20010904/DTD/svg10.dtd">
<svg version="1.0" xmlns="http://www.w3.org/2000/svg"
 width="1024.000000pt" height="1024.000000pt" viewBox="0 0 1024.000000 1024.000000"
 preserveAspectRatio="xMidYMid meet">
<metadata>
Created by potrace 1.10, written by Peter Selinger 2001-2011
</metadata>
<g transform="translate(0.000000,1024.000000) scale(0.100000,-0.100000)"
fill="#000000" stroke="none">
<path d="M7825 9244 c-532 -316 -969 -573 -971 -571 -2 2 -6 111 -10 243 -3
131 -10 258 -16 282 -14 56 -90 142 -124 142 -14 0 -36 -12 -49 -26 l-25 -27
-2 -370 -3 -370 -525 -232 c-645 -286 -699 -314 -813 -435 -140 -147 -199
-290 -217 -525 -25 -317 -77 -516 -200 -755 -27 -52 -53 -111 -58 -132 -6 -20
-35 -70 -65 -111 -30 -41 -63 -89 -72 -108 -63 -121 -219 -305 -335 -393 -152
-116 -318 -192 -465 -212 -171 -23 -186 -21 -246 32 -89 79 -156 163 -163 203
-12 75 -83 200 -154 271 -74 74 -130 107 -239 140 -81 24 -101 22 -154 -21
l-37 -28 -63 18 c-76 21 -95 15 226 82 l250 53 106 73 106 72 50 103 c62 125
106 256 134 397 26 126 26 230 8 1237 -10 588 -10 651 6 768 9 70 15 129 12
132 -3 3 -54 0 -114 -8 l-108 -13 -12 -100 c-17 -148 -26 -511 -16 -665 6 -84
4 -387 -4 -800 -14 -738 -14 -738 -84 -844 -64 -95 -144 -137 -369 -190 l-155
-36 -1075 -65 c-591 -36 -1086 -70 -1099 -76 -22 -9 -23 -13 -17 -72 4 -34 10
-79 13 -99 l6 -38 54 0 c59 0 1697 76 1806 84 l68 5 -30 -35 c-38 -43 -59 -82
-69 -130 -7 -34 -11 -38 -68 -55 -72 -22 -139 -77 -165 -133 -20 -44 -25 -140
-10 -192 7 -26 4 -39 -25 -85 -29 -47 -34 -63 -34 -120 0 -120 49 -207 156
-275 36 -23 54 -42 58 -61 8 -34 332 -452 396 -510 25 -22 104 -74 176 -116
126 -73 135 -77 225 -88 52 -6 99 -15 104 -20 29 -22 213 -71 283 -75 42 -2
118 -6 167 -10 l90 -6 32 -67 c69 -146 197 -272 353 -348 120 -59 196 -56 335
14 179 90 305 252 350 453 82 361 26 268 739 1218 339 452 635 857 659 900 60
109 110 222 143 325 15 48 31 87 35 87 4 0 9 -26 11 -57 7 -82 65 -285 91
-315 l22 -26 635 -42 635 -41 745 6 c533 5 773 4 844 -4 54 -6 100 -10 102 -8
2 2 1 47 -3 100 l-6 97 -306 0 c-502 0 -1381 24 -1801 50 -85 5 -258 14 -385
20 -126 7 -243 16 -258 22 -48 19 -60 57 -65 216 l-5 142 84 0 c151 1 429 53
582 110 28 11 527 172 1107 358 1077 346 1134 367 1198 435 36 38 53 89 39
117 -14 28 -82 70 -113 70 -11 0 -400 -132 -865 -294 -464 -161 -900 -312
-969 -334 -262 -85 -657 -182 -885 -218 -60 -9 -165 -32 -232 -51 -69 -18
-147 -33 -177 -33 l-54 0 -96 -120 c-90 -112 -100 -129 -147 -252 -28 -73 -57
-144 -64 -158 -35 -67 -564 -885 -621 -960 -123 -160 -278 -335 -474 -532
-108 -109 -192 -198 -188 -198 15 0 8 -18 -35 -81 -51 -76 -93 -198 -103 -295
-4 -38 -12 -80 -19 -94 -7 -14 -16 -41 -20 -60 -4 -19 -46 -99 -93 -176 -83
-137 -88 -142 -134 -159 -59 -21 -99 -15 -184 27 -73 35 -157 115 -190 180
-13 26 -28 49 -34 53 -5 3 -10 15 -10 25 0 29 -19 65 -43 80 -27 16 -462 70
-575 70 -81 0 -84 1 -213 66 l-131 65 -195 187 c-218 208 -253 255 -253 338 0
44 -4 54 -34 83 -18 18 -51 38 -73 44 -45 14 -116 87 -111 114 3 15 14 18 63
18 l59 0 49 -60 c27 -33 60 -82 73 -108 42 -81 108 -105 194 -71 28 11 42 24
47 42 15 60 -52 217 -127 296 -68 71 -143 111 -277 146 -24 6 -43 16 -43 23 0
24 56 47 115 47 61 0 60 1 145 -101 40 -48 91 -73 129 -64 84 21 122 66 101
119 -14 37 -14 37 25 20 54 -22 112 -18 140 11 30 29 31 58 6 125 -11 27 -18
50 -16 50 9 0 53 -82 78 -143 54 -137 153 -265 262 -342 90 -64 149 -90 264
-115 l103 -24 42 21 c22 11 86 30 141 42 115 24 283 102 380 175 204 155 441
446 582 713 31 60 64 119 73 133 10 14 23 50 30 80 6 30 20 66 29 80 10 14 47
99 83 190 l66 165 28 270 28 270 77 115 c42 64 95 132 117 151 29 24 207 112
559 274 703 323 691 316 1353 675 322 175 639 346 705 381 212 113 443 272
646 446 97 83 129 123 129 162 0 24 -44 77 -80 96 -26 14 -47 2 -995 -561z
m-5030 -3210 c39 -26 29 -33 -15 -12 -22 11 -40 22 -40 24 0 10 33 3 55 -12z"/>
<path d="M5930 6903 c-31 -11 -54 -41 -123 -158 -39 -66 -208 -336 -375 -600
-168 -264 -314 -496 -324 -515 -39 -74 -16 -124 63 -136 l34 -6 189 279 c104
153 242 355 306 448 65 94 143 214 175 268 68 116 165 320 165 345 0 10 -19
32 -42 50 -44 34 -44 34 -68 25z"/>
<path d="M4385 5333 c-55 -13 -99 -103 -99 -203 -1 -96 57 -170 176 -225 95
-44 165 -28 201 46 21 44 7 78 -48 112 -25 16 -56 42 -69 59 -21 28 -22 33
-10 57 17 31 18 85 3 113 -19 36 -92 56 -154 41z"/>
<path d="M2565 3780 c-275 -21 -572 -46 -660 -56 -205 -24 -782 -26 -1008 -5
-81 8 -150 12 -153 8 -3 -3 -2 -52 2 -109 l9 -103 670 -3 670 -2 495 47 c584
57 634 58 713 19 60 -29 108 -83 128 -145 7 -20 20 -47 30 -60 11 -13 19 -39
19 -57 0 -18 5 -45 10 -60 6 -15 45 -552 86 -1193 65 -1002 75 -1193 71 -1361
-3 -107 -11 -232 -18 -278 -6 -45 -10 -84 -8 -86 5 -5 212 14 218 20 26 26 23
893 -4 1234 -9 107 -33 479 -55 825 -54 867 -83 1047 -191 1206 -64 95 -167
162 -287 188 -79 17 -188 12 -737 -29z"/>
<path d="M6565 3591 c-142 -40 -215 -74 -257 -118 -24 -24 -29 -43 -40 -128
-14 -116 -15 -133 -5 -405 5 -113 15 -234 23 -270 9 -40 41 -497 85 -1205 39
-627 72 -1146 74 -1152 3 -9 35 -13 115 -13 l110 0 0 38 c0 20 -27 494 -60
1052 -51 867 -64 1044 -89 1215 -26 173 -30 232 -32 440 -1 151 2 250 9 267 7
16 23 30 44 37 33 10 1805 31 2686 31 l413 0 -3 123 -3 122 -1470 2 -1470 1
-130 -37z"/>
</g>
</svg>
