<?xml version="1.0" standalone="no"?>
<!DOCTYPE svg PUBLIC "-//W3C//DTD SVG 20010904//EN"
 "http://www.w3.org/TR/2001/REC-SVG-20010904/DTD/svg10.dtd">
<svg version="1.0" xmlns="http://www.w3.org/2000/svg"
 width="1024.000000pt" height="1024.000000pt" viewBox="0 0 1024.000000 1024.000000"
 preserveAspectRatio="xMidYMid meet">
<metadata>
Created by potrace 1.10, written by Peter Selinger 2001-2011
</metadata>
<g transform="translate(0.000000,1024.000000) scale(0.100000,-0.100000)"
fill="#000000" stroke="none">
<path d="M8180 9069 c-123 -29 -154 -31 -2335 -169 l-2210 -139 -190 -42
c-211 -46 -277 -68 -398 -131 -269 -140 -456 -372 -541 -673 -27 -95 -171
-940 -205 -1205 -37 -282 -56 -503 -76 -885 -3 -60 -10 -911 -15 -1890 -6
-979 -15 -1872 -20 -1985 -14 -273 -36 -536 -55 -640 -20 -116 -19 -166 5
-205 37 -60 131 -86 150 -42 5 12 34 148 64 302 l55 280 15 1845 c19 2155 25
2383 77 2905 64 642 87 803 163 1144 41 179 88 362 105 406 45 118 113 226
194 312 136 143 280 219 512 268 41 9 1028 84 2375 180 1268 91 2370 170 2450
176 175 13 195 21 187 82 -10 72 -67 127 -138 132 -25 2 -98 -9 -169 -26z"/>
<path d="M6595 7604 c-5 -2 -500 -64 -1100 -139 -1188 -148 -1168 -144 -1188
-209 -12 -36 7 -102 32 -115 13 -7 340 24 1092 105 874 94 1091 114 1166 110
67 -4 103 -1 135 10 50 17 138 96 138 124 0 28 -45 76 -93 99 -31 15 -62 21
-108 20 -35 0 -68 -2 -74 -5z"/>
<path d="M7750 6529 c-21 -7 -743 -86 -3690 -400 -206 -22 -418 -44 -470 -50
-106 -11 -143 -29 -148 -74 -6 -44 5 -69 37 -88 26 -15 66 -17 400 -17 l371 0
568 55 c312 30 605 57 651 61 l84 7 -6 -24 c-43 -179 -42 -121 -23 -1428 10
-723 21 -1230 27 -1236 10 -10 -320 -231 -454 -304 -160 -88 -381 -159 -571
-183 -106 -13 -131 -7 -207 53 -72 57 -75 73 -92 549 -9 234 -14 437 -10 450
3 14 18 52 34 84 45 92 35 148 -36 201 -52 41 -82 29 -138 -53 -80 -117 -87
-160 -99 -630 -12 -443 -10 -471 49 -592 33 -67 138 -175 213 -217 52 -30 64
-32 215 -42 88 -6 189 -12 225 -13 l65 -1 525 283 c289 155 584 315 655 355
214 119 508 245 698 300 105 30 155 98 144 193 -11 101 -79 108 -273 28 -223
-91 -552 -247 -680 -322 l-42 -24 -6 27 c-6 26 -24 932 -25 1279 l-1 161 28
-5 c15 -2 237 52 505 122 l477 125 208 -7 c200 -8 210 -9 253 -34 66 -39 91
-83 152 -268 44 -133 59 -195 75 -320 53 -390 62 -604 60 -1350 -1 -399 3
-674 10 -760 6 -74 16 -448 22 -830 6 -382 13 -715 16 -740 5 -35 15 -54 49
-87 84 -85 141 -49 169 109 16 89 16 126 -4 713 -11 341 -25 715 -31 830 -6
116 -11 500 -10 855 1 355 -3 719 -9 810 -20 326 -73 731 -111 850 -44 138
-126 260 -236 354 -95 79 -112 84 -350 98 l-210 12 -469 -119 c-419 -105 -476
-122 -531 -156 -54 -32 -62 -35 -69 -21 -4 9 -9 109 -11 222 -4 166 -1 229 13
330 26 175 25 293 -4 347 l-22 43 22 4 c13 3 381 54 818 113 l795 107 265 6
c297 6 315 10 399 85 67 61 48 116 -59 164 -48 22 -153 27 -200 10z"/>
<path d="M10160 1081 c-25 -7 -25 -7 9 -19 48 -17 61 -15 61 8 0 21 -21 25
-70 11z"/>
</g>
</svg>
