<?xml version="1.0" standalone="no"?>
<!DOCTYPE svg PUBLIC "-//W3C//DTD SVG 20010904//EN"
 "http://www.w3.org/TR/2001/REC-SVG-20010904/DTD/svg10.dtd">
<svg version="1.0" xmlns="http://www.w3.org/2000/svg"
 width="1024.000000pt" height="1024.000000pt" viewBox="0 0 1024.000000 1024.000000"
 preserveAspectRatio="xMidYMid meet">
<metadata>
Created by potrace 1.10, written by Peter Selinger 2001-2011
</metadata>
<g transform="translate(0.000000,1024.000000) scale(0.100000,-0.100000)"
fill="#000000" stroke="none">
<path d="M4848 9065 c-43 -24 -44 -49 -5 -97 66 -82 81 -122 85 -238 8 -200
-49 -334 -314 -740 -294 -450 -591 -865 -828 -1160 -128 -159 -381 -453 -435
-505 l-41 -39 -207 -23 c-114 -12 -210 -19 -214 -15 -4 4 -12 23 -18 42 -14
46 -63 105 -112 136 -22 13 -127 49 -235 79 l-196 54 -46 -23 c-74 -38 -132
-84 -132 -105 0 -11 17 -37 37 -58 27 -27 64 -98 135 -256 106 -237 117 -271
147 -457 52 -316 48 -215 101 -2850 31 -1519 32 -1550 69 -1618 5 -9 39 -46
74 -81 65 -63 66 -64 112 -59 93 11 164 106 186 249 l12 75 586 37 c322 21
1038 67 1591 102 553 36 1219 78 1480 95 261 16 498 32 527 35 l52 5 -21 -62
c-19 -56 -20 -68 -9 -122 14 -66 37 -111 104 -196 70 -90 155 -122 226 -86 36
19 105 95 129 143 35 68 80 231 102 365 5 35 64 864 130 1843 66 979 127 1876
135 1993 8 117 15 241 15 276 0 92 27 234 55 286 72 135 85 169 91 227 10 96
-15 138 -210 345 -166 176 -248 248 -325 288 -35 19 -53 22 -109 18 -82 -6
-150 -37 -248 -112 -138 -106 -279 -166 -436 -186 -109 -14 -3242 -350 -3264
-350 -9 0 33 37 92 82 217 163 387 311 628 548 127 125 240 252 465 524 163
197 307 372 321 390 99 125 232 280 332 387 154 165 169 199 124 294 -69 149
-367 435 -526 505 -68 30 -173 37 -212 15z m2638 -2735 c37 -24 70 -85 79
-150 3 -25 -10 -358 -29 -740 -20 -382 -39 -754 -42 -827 l-7 -132 -61 -6
c-34 -3 -673 -53 -1421 -110 -748 -58 -1740 -134 -2204 -170 -464 -36 -845
-64 -846 -63 -5 6 -38 1698 -33 1703 2 2 960 115 2129 250 1168 136 2151 250
2184 254 120 17 215 13 251 -9z m-23 -2227 c-2 -32 -24 -474 -49 -983 -24
-509 -48 -970 -52 -1025 l-7 -100 -40 -3 c-192 -14 -4299 -271 -4301 -269 -4
4 -51 2091 -47 2096 2 3 974 78 2161 167 1186 90 2175 165 2197 167 22 2 63 4
91 5 l50 2 -3 -57z"/>
</g>
</svg>
