<?xml version="1.0" standalone="no"?>
<!DOCTYPE svg PUBLIC "-//W3C//DTD SVG 20010904//EN"
 "http://www.w3.org/TR/2001/REC-SVG-20010904/DTD/svg10.dtd">
<svg version="1.0" xmlns="http://www.w3.org/2000/svg"
 width="1024.000000pt" height="1024.000000pt" viewBox="0 0 1024.000000 1024.000000"
 preserveAspectRatio="xMidYMid meet">
<metadata>
Created by potrace 1.10, written by Peter Selinger 2001-2011
</metadata>
<g transform="translate(0.000000,1024.000000) scale(0.100000,-0.100000)"
fill="#000000" stroke="none">
<path d="M5099 8801 c-28 -32 -77 -108 -108 -167 -31 -60 -90 -172 -130 -248
-40 -77 -85 -158 -100 -180 -16 -23 -180 -338 -366 -701 -185 -363 -381 -745
-435 -850 -53 -104 -173 -338 -265 -520 -113 -221 -259 -483 -441 -791 -304
-516 -304 -515 -304 -543 0 -11 -23 -57 -50 -103 -28 -46 -64 -119 -81 -162
-29 -77 -31 -86 -36 -280 -8 -304 15 -578 78 -931 68 -377 163 -661 302 -903
25 -42 52 -94 60 -115 26 -62 122 -219 173 -283 219 -275 538 -472 932 -575
115 -31 125 -31 577 -50 253 -11 489 -17 525 -13 167 15 431 88 605 167 476
215 931 598 1267 1067 251 350 515 829 601 1088 69 206 81 290 82 542 0 197
-3 239 -23 340 -13 63 -39 155 -58 205 -33 85 -258 524 -851 1655 -235 447
-424 755 -682 1105 -36 49 -252 315 -479 590 l-413 500 -136 108 c-166 130
-171 131 -244 48z m521 -690 c380 -424 456 -515 610 -727 224 -309 317 -466
770 -1309 420 -781 550 -1026 550 -1044 0 -7 26 -64 59 -125 76 -145 137 -331
149 -453 l8 -93 -166 0 c-91 0 -856 7 -1700 16 -844 9 -1629 14 -1745 10 -179
-4 -896 -44 -1092 -60 l-63 -5 0 57 c0 56 2 60 64 135 53 63 101 149 277 489
757 1470 1402 2714 1409 2722 5 5 112 195 237 422 l228 413 21 -22 c12 -12
185 -204 384 -426z m2142 -4043 c-16 -140 -58 -268 -168 -518 -139 -315 -185
-389 -479 -773 -287 -374 -404 -504 -585 -649 -369 -295 -777 -470 -1235 -529
-125 -16 -498 -16 -625 0 -303 38 -545 133 -792 310 -137 98 -237 199 -359
361 -106 142 -239 373 -239 416 0 9 -25 81 -55 161 -49 127 -62 177 -110 427
-73 384 -105 619 -105 777 l0 57 288 6 c158 4 996 18 1862 32 1367 22 2275 37
2540 42 l76 2 -14 -122z"/>
</g>
</svg>
