<?xml version="1.0" standalone="no"?>
<!DOCTYPE svg PUBLIC "-//W3C//DTD SVG 20010904//EN"
 "http://www.w3.org/TR/2001/REC-SVG-20010904/DTD/svg10.dtd">
<svg version="1.0" xmlns="http://www.w3.org/2000/svg"
 width="1024.000000pt" height="1024.000000pt" viewBox="0 0 1024.000000 1024.000000"
 preserveAspectRatio="xMidYMid meet">
<metadata>
Created by potrace 1.10, written by Peter Selinger 2001-2011
</metadata>
<g transform="translate(0.000000,1024.000000) scale(0.100000,-0.100000)"
fill="#000000" stroke="none">
<path d="M4960 9249 c-242 -31 -508 -92 -720 -164 -635 -218 -1181 -605 -1506
-1067 -192 -273 -317 -555 -408 -918 -67 -265 -80 -385 -80 -735 -1 -374 22
-637 89 -1020 19 -109 75 -596 75 -650 0 -6 -30 -24 -66 -40 -90 -38 -184
-126 -224 -209 -17 -35 -37 -98 -45 -142 -23 -133 7 -221 97 -282 24 -15 175
-79 335 -141 l292 -113 -19 -25 c-44 -56 -35 -130 23 -199 52 -62 111 -220
136 -364 44 -256 124 -526 225 -762 25 -59 46 -114 46 -122 0 -7 20 -56 44
-107 25 -52 70 -170 102 -264 85 -252 153 -378 290 -539 94 -110 214 -209 310
-256 148 -74 173 -77 894 -104 l646 -25 114 20 c138 23 316 81 440 144 567
285 976 800 1136 1429 25 100 61 446 84 821 6 88 19 203 30 255 11 52 20 110
20 128 0 58 -21 120 -56 160 l-33 39 35 41 c61 71 168 135 299 177 146 47 196
86 221 173 33 111 -10 201 -142 300 l-84 62 0 46 c0 35 29 123 114 348 141
375 200 581 275 966 110 565 128 983 60 1410 -57 361 -134 583 -276 797 -225
338 -638 637 -1078 782 -252 82 -290 87 -930 121 -313 16 -599 32 -635 34 -36
2 -94 0 -130 -5z m440 -228 c0 -6 -4 -13 -10 -16 -5 -3 -10 1 -10 9 0 9 5 16
10 16 6 0 10 -4 10 -9z m120 -10 c-5 -11 -10 -38 -10 -60 0 -32 5 -44 24 -56
41 -27 62 -7 70 65 6 48 10 60 25 60 15 0 17 -7 13 -54 -4 -49 -2 -55 21 -71
20 -13 30 -14 46 -5 18 9 21 20 21 72 0 58 1 60 23 54 12 -3 34 -6 50 -6 24 0
27 -3 22 -25 -3 -14 -7 -36 -10 -50 -4 -18 1 -28 20 -41 24 -16 27 -16 46 2
18 16 20 26 15 65 l-6 46 42 -8 c24 -4 49 -8 56 -9 8 0 0 -12 -17 -26 -41 -34
-44 -94 -7 -113 48 -26 83 18 74 95 l-4 36 35 -6 c20 -3 44 -6 54 -6 17 0 17
-2 3 -22 -9 -12 -16 -29 -16 -38 0 -8 -9 -26 -20 -40 -28 -36 -26 -74 6 -88
38 -18 56 -3 108 87 26 46 51 79 59 76 6 -2 56 -13 109 -25 l97 -22 -22 -24
c-13 -13 -31 -38 -41 -54 -17 -30 -17 -30 6 -39 61 -22 77 -22 89 1 7 13 18
29 26 36 7 7 13 24 13 37 0 23 0 23 48 9 78 -23 77 -22 44 -53 -49 -45 -55
-98 -14 -120 29 -15 58 11 78 72 9 28 18 54 20 56 4 4 107 -30 118 -39 4 -5
-11 -29 -35 -55 l-42 -46 20 -21 c20 -19 24 -20 64 -6 31 10 51 25 68 50 l23
37 44 -22 c24 -11 44 -24 44 -28 0 -3 -9 -18 -20 -32 -26 -33 -25 -41 6 -62
26 -16 27 -16 58 14 38 37 43 38 80 8 l29 -24 -33 -42 c-39 -48 -34 -74 14
-79 20 -3 35 5 60 32 l32 36 39 -40 39 -40 -39 -40 c-38 -39 -38 -40 -20 -60
23 -26 65 -26 98 0 32 26 39 25 67 -5 l23 -24 -27 -11 c-15 -5 -30 -10 -34
-10 -11 0 -52 -44 -52 -56 0 -23 31 -44 66 -44 26 0 42 8 62 30 25 27 28 28
38 12 6 -9 21 -34 34 -56 l23 -38 -52 7 c-43 6 -56 4 -72 -11 -26 -24 -24 -58
5 -78 22 -14 29 -14 75 0 31 9 51 20 51 29 0 48 42 -20 54 -86 4 -20 18 -64
31 -98 34 -83 34 -84 -22 -76 -65 8 -94 -11 -74 -48 20 -37 61 -52 105 -37 20
6 36 17 37 23 1 22 28 -48 29 -75 0 -24 -3 -27 -22 -20 -33 12 -54 5 -73 -24
-11 -18 -13 -29 -5 -43 15 -28 41 -33 89 -16 37 13 42 13 46 0 3 -8 7 -22 10
-31 4 -13 -1 -15 -33 -9 -29 5 -44 2 -61 -13 -21 -16 -22 -21 -11 -39 7 -11
37 -28 67 -37 43 -14 53 -21 53 -39 0 -12 3 -32 6 -45 6 -21 4 -22 -19 -17
-31 8 -67 -10 -67 -32 0 -30 41 -63 77 -63 23 0 33 -5 33 -15 0 -10 -10 -15
-28 -15 -15 0 -38 -7 -50 -16 -21 -14 -21 -16 -6 -46 10 -19 30 -36 54 -45 30
-12 39 -22 42 -44 4 -28 3 -28 -39 -27 -29 2 -48 -3 -60 -15 -16 -16 -16 -18
3 -44 16 -21 31 -29 62 -31 39 -3 42 -5 42 -33 0 -34 -9 -35 -70 -14 -39 14
-46 14 -67 0 -12 -9 -23 -19 -23 -23 0 -32 75 -82 122 -82 23 0 24 -2 20 -67
-2 -38 -5 -69 -6 -70 -1 -2 -16 1 -32 6 -42 12 -76 -3 -72 -31 2 -16 18 -30
51 -47 l47 -23 -5 -52 c-14 -121 -10 -115 -56 -105 -33 8 -47 6 -66 -6 -30
-20 -26 -26 41 -65 53 -30 54 -31 45 -63 -5 -17 -9 -33 -9 -34 0 -1 -16 -2
-35 -1 -31 1 -65 -15 -65 -31 0 -10 36 -48 56 -59 14 -8 15 -16 4 -65 -11 -54
-12 -56 -36 -47 -37 15 -70 12 -85 -6 -14 -17 -10 -23 57 -71 24 -18 24 -20
13 -70 l-12 -52 -25 20 c-14 10 -33 19 -43 19 -39 0 -53 -79 -18 -103 21 -15
21 -15 -7 -29 -39 -19 -40 -34 -4 -68 25 -24 31 -35 26 -55 -6 -24 -8 -25 -39
-11 -58 24 -105 -18 -62 -54 35 -29 57 -71 51 -96 -6 -24 -7 -24 -38 -8 -43
22 -78 6 -78 -36 0 -27 4 -31 45 -41 34 -9 45 -16 45 -31 0 -17 -5 -18 -50
-12 -51 7 -80 -5 -80 -31 0 -7 18 -24 39 -39 28 -20 37 -32 34 -47 -5 -16 -11
-18 -44 -13 -40 7 -69 -6 -69 -30 0 -7 17 -22 38 -34 l39 -21 -12 -78 c-6 -43
-18 -91 -27 -107 l-15 -29 -27 36 c-36 47 -31 70 14 77 31 4 35 8 32 30 -5 38
-16 42 -53 24 -19 -10 -42 -21 -51 -25 -13 -7 -23 1 -42 34 l-26 42 32 5 c28
4 35 12 50 53 15 39 15 47 4 47 -16 0 -46 -27 -46 -41 0 -5 -4 -9 -9 -9 -5 0
-5 15 -1 35 10 45 -7 47 -48 5 l-30 -30 -15 38 c-8 20 -12 39 -8 42 4 3 20 27
35 55 27 49 27 60 -1 104 -1 2 -16 -13 -34 -34 -24 -27 -34 -33 -40 -23 -15
24 -9 50 16 70 33 26 36 88 5 88 -11 0 -25 -9 -32 -20 -12 -18 -14 -15 -25 37
-6 32 -10 60 -8 62 2 2 24 6 48 8 58 7 81 38 47 65 -23 19 -24 19 -62 -19 -24
-23 -38 -32 -39 -23 0 8 -6 51 -12 95 l-12 80 -60 0 -59 0 -18 -45 c-14 -37
-17 -80 -17 -238 l-1 -192 35 -108 c60 -187 146 -334 286 -492 116 -130 165
-180 180 -180 7 0 51 -26 97 -57 l83 -58 -42 -14 c-32 -10 -47 -11 -61 -2 -24
15 -28 14 -28 -7 0 -19 -76 -62 -110 -62 -11 0 -27 -11 -36 -25 -9 -13 -32
-34 -51 -46 -28 -18 -37 -19 -43 -9 -7 11 -14 12 -36 2 -26 -12 -26 -13 -9
-32 18 -20 17 -20 -23 -20 -45 0 -67 -18 -33 -27 29 -7 27 -17 -15 -68 -25
-29 -48 -45 -69 -49 -17 -4 -40 -13 -51 -21 -20 -15 -19 -18 26 -44 13 -8 12
-14 -3 -46 -14 -28 -21 -35 -37 -30 -24 8 -60 -11 -60 -31 0 -8 11 -19 24 -25
14 -7 22 -18 20 -28 -12 -65 -16 -73 -29 -67 -22 8 -58 -26 -49 -47 4 -12 13
-16 25 -12 11 4 19 3 19 -2 0 -4 -5 -48 -10 -98 -10 -94 -68 -287 -69 -231 -1
31 -44 86 -67 86 -16 0 -2 -64 28 -125 l22 -45 -26 -27 c-14 -16 -32 -45 -39
-66 -8 -22 -21 -43 -31 -48 -14 -8 -18 -3 -24 28 -15 88 -20 104 -29 103 -26
-1 -29 -116 -4 -146 7 -8 0 -19 -23 -38 l-33 -26 -9 75 c-9 76 -24 97 -52 74
-10 -8 -11 -16 -3 -31 6 -12 9 -35 6 -53 -3 -18 1 -44 8 -59 8 -14 12 -26 10
-26 -2 0 -40 -13 -84 -30 l-81 -29 -13 45 c-7 25 -17 46 -22 47 -6 1 -11 -23
-13 -55 l-3 -56 -50 -12 c-48 -12 -80 -7 -45 6 12 4 16 19 16 53 0 60 -12 80
-35 61 -13 -11 -16 -27 -13 -76 l3 -62 -55 -10 c-30 -5 -57 -8 -59 -6 -2 2 -7
24 -12 50 -15 78 -30 74 -37 -10 l-4 -55 -65 -7 c-35 -3 -67 -4 -70 0 -4 3
-10 31 -14 62 -8 63 -12 69 -34 61 -11 -5 -15 -22 -15 -71 0 -74 6 -69 -101
-81 l-57 -6 -4 30 c-3 22 1 36 14 48 25 22 23 29 -11 41 -40 14 -53 -3 -59
-74 -4 -48 -7 -54 -27 -54 -12 0 -36 -3 -53 -6 -30 -6 -30 -6 -39 47 -11 71
-29 74 -37 5 l-7 -54 -42 -4 c-23 -3 -44 -3 -46 -1 -2 1 1 15 8 29 8 19 9 30
1 39 -18 21 -46 6 -64 -36 l-17 -39 -83 0 -82 0 8 72 c4 40 6 74 4 75 -6 7
-36 -9 -36 -19 0 -5 -12 -36 -27 -69 l-28 -59 -92 0 -93 0 0 60 c0 38 -4 60
-11 60 -21 0 -38 -35 -39 -77 l0 -43 -120 0 -121 0 16 31 c35 67 -20 74 -58 8
l-22 -38 -65 5 c-180 13 -210 16 -210 20 0 3 7 18 15 35 9 16 13 34 10 39 -10
16 -45 11 -52 -7 -4 -10 -16 -28 -28 -40 -20 -20 -28 -22 -95 -16 -53 4 -78
11 -92 25 -18 18 -21 19 -38 3 -16 -14 -31 -16 -89 -10 -39 4 -71 10 -71 14 0
3 9 21 20 39 18 30 19 33 3 39 -23 9 -66 -18 -73 -47 -6 -23 -10 -25 -56 -22
-27 2 -51 5 -52 7 -8 8 12 49 38 79 28 31 28 32 10 56 -22 30 -36 21 -76 -48
-15 -26 -29 -49 -31 -51 -5 -6 -62 50 -74 72 -18 33 7 82 52 102 47 22 46 41
-3 38 l-36 -2 -16 65 c-18 71 -19 68 36 137 56 72 29 93 -44 35 -32 -25 -42
-29 -48 -17 -5 8 -20 29 -34 48 l-25 34 39 45 c45 51 47 57 22 71 -18 10 -52
-7 -52 -26 0 -5 -9 -18 -20 -28 -19 -17 -21 -17 -41 1 -12 10 -35 36 -52 57
l-30 39 29 23 29 23 -30 12 c-22 8 -35 8 -52 -1 -19 -10 -27 -7 -70 29 -26 22
-58 51 -70 64 l-23 24 30 29 c36 34 37 41 9 56 -18 9 -26 6 -53 -20 -18 -17
-36 -31 -40 -31 -5 0 -38 21 -74 46 l-65 47 27 14 c19 10 26 21 26 43 0 17 -3
30 -7 30 -3 0 -30 -13 -58 -29 l-53 -30 -76 21 -77 21 43 44 c35 36 40 45 28
53 -23 15 -35 12 -56 -11 l-19 -21 -5 28 c-8 43 -40 43 -78 0 -17 -19 -35 -43
-40 -52 -9 -15 -13 -16 -41 -4 l-32 13 21 22 c26 28 25 35 -5 35 -22 0 -25 3
-19 25 13 51 -39 72 -86 35 -33 -26 -46 -25 -65 4 -15 23 -15 28 5 74 12 27
38 65 58 84 45 43 150 100 158 86 4 -5 13 -3 23 6 9 9 50 29 89 45 49 21 115
63 206 133 112 86 142 115 184 178 122 181 154 276 237 690 36 184 69 345 72
358 5 22 4 22 -111 22 l-116 0 0 -27 c0 -40 -11 -74 -21 -67 -5 3 -18 2 -29
-1 -19 -6 -19 -7 5 -39 18 -24 25 -45 25 -79 0 -51 -4 -55 -32 -30 -13 11 -22
13 -29 6 -16 -16 1 -63 26 -75 20 -9 21 -14 14 -56 -11 -54 -14 -59 -34 -42
-8 7 -22 10 -30 6 -15 -5 -14 -9 2 -36 9 -16 23 -30 30 -30 16 0 16 -17 2 -58
-11 -31 -11 -31 -36 -15 -21 14 -26 14 -34 2 -12 -19 -11 -25 5 -39 8 -6 12
-18 9 -26 -3 -8 0 -20 5 -27 11 -12 6 -57 -6 -57 -3 0 -14 8 -24 17 -12 10
-22 13 -28 7 -14 -14 0 -52 21 -59 10 -4 19 -13 19 -21 0 -18 -1 -18 -50 2
-56 22 -74 6 -35 -30 15 -14 34 -26 42 -26 10 0 5 -16 -18 -57 -18 -32 -33
-59 -33 -60 -1 -1 -23 3 -50 9 -33 7 -51 7 -58 0 -8 -8 -3 -13 16 -16 14 -4
37 -8 51 -11 l26 -6 -32 -39 c-39 -49 -69 -53 -69 -11 0 23 -6 31 -31 40 -35
12 -62 2 -79 -29 -15 -29 -32 -24 -28 8 2 21 9 28 32 30 36 4 88 57 84 85 -2
12 -14 27 -28 34 -21 10 -29 9 -58 -9 -18 -11 -35 -19 -36 -17 -2 2 -7 27 -11
55 l-7 52 59 19 c45 15 59 25 61 42 6 41 -16 54 -81 48 l-58 -5 3 41 c3 39 5
42 41 50 38 9 63 38 53 62 -6 16 -81 39 -102 31 -16 -6 -20 -1 -28 39 l-6 30
49 0 c56 0 91 24 91 61 0 28 -27 37 -107 38 l-53 1 0 42 c0 32 4 43 19 48 19
6 31 39 23 63 -2 7 -16 12 -32 12 -23 0 -29 5 -34 31 -14 69 -8 89 28 104 31
13 52 47 40 67 -3 4 -23 11 -45 14 -34 6 -39 10 -39 33 1 18 10 32 33 46 17
11 36 33 42 49 8 23 6 30 -10 43 -11 8 -32 13 -48 10 l-27 -4 0 73 c0 78 -3
74 61 88 29 6 45 42 28 62 -5 7 -25 15 -44 18 -39 8 -40 10 -29 113 l7 60 41
-8 c30 -5 45 -4 55 6 21 21 -15 77 -57 90 -32 9 -33 11 -30 55 l3 45 62 -3
c54 -4 62 -2 68 17 10 33 -11 59 -55 66 -22 4 -43 11 -46 16 -3 6 4 51 16 100
19 74 25 89 39 84 41 -16 68 -16 81 0 12 14 8 21 -29 59 l-43 44 18 33 c20 41
31 49 66 49 58 0 57 72 -1 85 -28 6 -29 9 -24 43 7 44 48 142 60 142 4 0 19
-9 33 -20 30 -24 39 -24 60 -5 26 24 14 82 -21 101 l-29 15 19 37 c42 80 43
80 93 39 25 -20 48 -37 51 -37 13 0 40 52 31 58 -6 4 -25 28 -43 54 l-33 47
21 30 c13 17 26 31 30 31 4 0 20 -13 36 -30 33 -35 46 -37 69 -11 13 14 14 24
7 45 -6 14 -17 26 -26 26 -8 0 -20 11 -26 24 -9 20 -7 29 12 56 l24 32 9 -40
c10 -46 46 -73 74 -55 9 5 17 18 16 27 0 9 -1 39 -2 66 -2 37 -6 50 -17 50
-21 0 -19 13 5 35 20 18 20 17 20 -8 0 -31 31 -51 62 -41 19 6 20 12 16 80 -3
41 -1 77 3 80 5 3 9 0 9 -7 0 -16 30 -49 44 -49 6 0 26 14 43 30 26 25 37 29
51 21 27 -15 64 21 57 54 -3 14 -8 37 -11 52 -3 15 -10 30 -15 34 -6 3 11 23
36 44 l47 38 -7 -47 c-8 -53 4 -76 42 -76 24 0 27 4 37 51 3 14 17 32 32 39
22 13 25 19 21 50 -3 19 -6 41 -8 48 -2 8 6 21 19 29 21 15 22 14 22 -13 0
-54 68 -67 84 -16 5 14 14 17 40 14 29 -3 34 0 40 21 8 33 -1 55 -25 62 -28 9
-23 19 16 38 29 14 35 14 35 3 0 -17 56 -66 75 -66 25 0 33 30 19 76 l-13 44
40 20 c82 43 86 43 109 5 12 -19 28 -35 35 -35 22 0 34 30 24 64 -12 42 -12
43 11 49 22 6 26 -3 10 -19 -7 -7 -3 -18 13 -33 21 -19 28 -20 51 -10 34 16
44 53 21 79 -10 11 -14 20 -9 20 5 0 18 3 29 6 19 5 20 1 17 -35 -4 -38 -2
-41 21 -41 13 0 38 3 54 6 29 6 30 7 28 60 -1 39 2 54 12 54 9 0 13 -13 13
-40 0 -47 26 -68 61 -49 19 10 21 17 16 65 -5 48 -3 54 13 54 23 0 30 -18 23
-66 -4 -32 -1 -41 17 -52 46 -28 93 43 76 114 -5 18 -3 30 6 35 24 16 28 9 28
-44 0 -47 3 -55 24 -65 18 -8 28 -7 45 4 17 13 21 25 21 75 0 52 2 59 20 59
17 0 20 -7 20 -43 0 -37 4 -45 30 -60 23 -14 34 -16 50 -7 18 10 20 17 15 55
-6 36 -3 47 14 64 12 12 30 21 41 21 17 0 20 -7 20 -43 0 -32 5 -45 21 -55 42
-26 69 7 69 84 0 17 6 24 20 24 16 0 20 -7 20 -38 0 -71 74 -84 85 -14 10 55
11 59 34 65 19 5 20 2 15 -52 -5 -50 -4 -57 15 -69 15 -9 27 -10 41 -2 26 14
32 40 21 89 -8 36 -7 41 9 41 15 0 16 -7 12 -50 -4 -47 -3 -50 19 -50 13 0 61
-3 107 -7 l82 -6 0 62 c0 59 1 61 25 61 22 0 24 -3 15 -19z m-2198 -738 c-4
-35 -5 -36 -14 -14 -5 15 -4 28 3 37 16 19 16 19 11 -23z m-652 -3473 c-28
-22 -40 -25 -40 -10 0 6 10 15 23 20 37 15 44 11 17 -10z m564 -1507 c16 -48
35 -101 43 -116 12 -24 13 -40 2 -97 l-12 -67 -28 11 c-30 11 -39 26 -15 26
14 0 30 32 41 81 6 23 2 28 -25 38 -18 6 -36 8 -41 5 -5 -3 -9 6 -9 20 0 16 6
26 14 26 15 0 30 45 21 60 -4 6 -14 10 -24 10 -34 0 -53 24 -53 68 1 29 -5 48
-18 60 -18 17 -40 62 -40 83 0 6 26 -19 58 -55 48 -55 62 -79 86 -153z m3801
-88 c-14 -127 -25 -234 -25 -239 0 -6 -5 -5 -12 2 -19 19 -41 14 -83 -22 l-40
-34 40 -8 c29 -5 47 -3 67 9 27 16 28 16 24 -6 -3 -12 -8 -39 -11 -59 -5 -34
-9 -38 -59 -52 -48 -14 -66 -30 -66 -56 0 -4 25 -2 56 6 l56 13 -7 -26 c-3
-14 -9 -39 -12 -55 -4 -22 -10 -27 -22 -22 -65 27 -69 28 -86 14 -16 -13 -16
-15 2 -21 10 -4 35 -8 56 -8 20 -1 37 -3 37 -6 0 -3 -7 -32 -16 -64 -13 -47
-20 -58 -34 -54 -17 4 -80 -22 -80 -33 0 -3 16 -12 35 -20 39 -16 40 -18 24
-63 -12 -35 -10 -34 -62 -22 -43 10 -52 2 -36 -33 8 -17 20 -26 36 -26 26 0
27 -3 12 -32 -9 -17 -17 -19 -55 -13 -29 4 -44 3 -44 -5 0 -19 32 -60 46 -60
18 0 18 -11 0 -35 -11 -15 -21 -17 -59 -12 -33 5 -48 2 -57 -8 -9 -11 -4 -18
29 -35 23 -11 41 -23 41 -26 0 -12 -33 -54 -43 -54 -6 0 -20 9 -32 20 -20 19
-23 19 -35 5 -11 -13 -11 -20 1 -42 8 -14 22 -28 31 -31 15 -4 14 -8 -9 -39
l-26 -34 -27 26 c-46 44 -82 27 -60 -29 8 -23 15 -27 35 -24 30 6 32 -3 5 -27
-17 -16 -25 -17 -57 -7 -20 6 -39 9 -41 7 -3 -2 8 -18 22 -36 l27 -32 -33 -34
c-26 -27 -38 -33 -58 -28 -14 3 -30 13 -36 21 -12 16 -44 19 -44 5 0 -26 21
-60 41 -66 l21 -7 -22 -22 -22 -21 -15 22 c-13 19 -18 20 -41 10 -15 -6 -29
-12 -31 -14 -3 -2 6 -15 20 -29 l24 -26 -30 -24 c-94 -76 -106 -81 -148 -52
-15 11 -20 10 -31 -4 -7 -10 -17 -18 -23 -18 -5 0 -14 -5 -21 -12 -9 -9 -7
-17 9 -34 l20 -22 -67 -37 -68 -38 -26 31 c-26 31 -60 43 -60 22 0 -6 7 -25
16 -42 18 -35 15 -40 -47 -61 -46 -15 -47 -15 -72 10 -33 34 -59 25 -51 -17 6
-27 4 -30 -18 -30 -13 0 -29 5 -34 10 -13 13 -44 2 -44 -15 0 -13 -56 -29 -71
-19 -5 3 -9 14 -9 25 0 22 -4 23 -31 9 -10 -6 -19 -19 -19 -29 0 -38 -80 -42
-109 -5 -15 19 -26 24 -41 19 -17 -5 -18 -10 -9 -27 6 -11 9 -21 7 -23 -2 -2
-29 -6 -60 -10 -49 -6 -58 -5 -58 8 0 20 -32 38 -48 28 -7 -4 -10 -15 -7 -23
7 -18 -30 -28 -100 -28 -32 0 -46 5 -56 21 -16 23 -54 17 -45 -7 4 -11 -7 -14
-49 -14 -44 0 -55 3 -60 19 -3 11 -12 25 -20 31 -20 17 -48 -5 -40 -31 6 -17
0 -19 -56 -19 -61 0 -62 0 -45 19 17 19 17 20 -3 30 -30 16 -40 14 -53 -14
-13 -30 -48 -34 -48 -6 0 29 -17 35 -37 11 -12 -13 -30 -20 -55 -20 -36 0 -38
2 -38 30 0 36 -6 37 -39 6 -36 -33 -80 -26 -88 15 -6 32 -27 38 -41 13 -8 -14
-12 -14 -30 -3 -18 11 -26 12 -43 1 -21 -13 -51 -11 -116 9 -35 11 -46 42 -19
52 16 6 32 65 21 75 -4 4 -24 -13 -45 -37 l-38 -44 -35 29 c-23 18 -38 40 -42
61 -5 30 -8 32 -26 22 -23 -12 -44 2 -80 53 -18 25 -19 30 -4 64 8 20 15 45
15 56 0 18 -5 20 -32 14 -17 -3 -40 -14 -50 -23 -10 -9 -18 -11 -18 -5 0 6 9
16 20 22 25 14 42 44 34 64 -9 23 -27 20 -54 -9 -13 -14 -26 -25 -30 -25 -3 0
-16 14 -29 31 l-23 30 26 24 c38 35 36 94 -4 123 -33 25 -60 28 -78 10 -7 -7
-12 -9 -12 -6 0 3 -5 29 -10 58 -9 48 -8 54 10 67 17 12 58 120 48 127 -39 29
-77 42 -100 36 -26 -8 -29 -4 -70 74 -24 44 -44 84 -46 88 -2 5 8 12 22 18 32
12 51 50 42 83 -7 28 -51 50 -91 45 -25 -3 -29 2 -51 60 -24 63 -24 63 -4 85
38 40 20 93 -40 115 -20 7 -28 23 -46 88 l-21 79 22 17 c22 17 25 16 105 -42
46 -32 122 -75 169 -95 l86 -36 -3 -39 c-5 -44 2 -48 38 -23 22 15 24 15 12 1
-24 -30 -5 -167 43 -303 23 -66 48 -154 55 -195 16 -103 54 -211 94 -273 66
-104 203 -206 338 -251 109 -36 136 -36 870 5 l706 39 212 64 c207 63 212 66
283 123 121 98 160 142 204 233 40 82 83 220 83 266 0 13 9 29 21 37 50 36 91
304 57 373 -9 16 -18 45 -22 65 -6 35 -5 36 70 88 42 30 110 89 152 133 41 43
77 77 79 74 2 -2 -10 -17 -27 -34 -33 -33 -38 -63 -15 -82 9 -7 17 -11 18 -9
2 2 18 23 36 46 33 43 41 101 13 95 -10 -2 -9 5 2 30 7 18 33 79 57 135 23 56
44 101 45 100 2 -1 -8 -106 -21 -232z m-643 -432 c-11 -21 -28 -64 -38 -95
-15 -49 -38 -78 -50 -65 -2 2 -1 44 2 94 l7 90 46 9 c25 6 47 9 49 8 2 -1 -5
-19 -16 -41z m-226 -88 c-9 -14 -16 -46 -16 -74 0 -56 -8 -65 -49 -56 -25 5
-30 12 -36 51 -3 26 -15 53 -26 62 -10 9 -28 25 -39 35 -11 9 -20 21 -20 25 0
5 44 15 98 23 l97 14 3 -28 c2 -16 -4 -39 -12 -52z m-276 -61 l0 -97 -46 7
c-60 8 -74 24 -74 84 0 40 -4 52 -22 65 -22 14 -21 15 32 25 30 5 67 10 83 11
l27 1 0 -96z m-1747 70 c81 -5 87 -7 68 -21 -17 -11 -21 -25 -21 -68 l0 -54
-37 -7 c-21 -4 -65 -8 -98 -8 l-60 -1 -26 74 c-14 41 -34 80 -44 87 -20 15
-32 15 218 -2z m1452 -21 c4 -10 9 -50 12 -89 5 -66 4 -72 -18 -88 -27 -19
-90 -21 -107 -4 -7 7 -12 40 -12 80 0 57 -3 69 -20 78 -34 18 -22 29 38 33 31
2 67 4 78 5 13 1 25 -5 29 -15z m-1065 -9 c13 -3 15 -17 12 -72 -2 -37 -8 -71
-13 -77 -16 -16 -112 -35 -126 -24 -6 6 -15 40 -19 75 -5 52 -12 71 -33 91
l-26 25 95 -7 c52 -3 102 -8 110 -11z m729 -41 c6 -21 11 -53 11 -70 l0 -33
-80 0 -80 0 0 49 c0 33 -5 53 -17 62 -15 13 -12 15 23 20 21 3 60 7 86 8 46 1
47 0 57 -36z m-351 -45 c-12 -101 -10 -98 -70 -98 -81 0 -96 15 -100 100 l-3
70 91 0 90 0 -8 -72z m1438 -144 c-3 -9 -6 -18 -6 -20 0 -2 -15 -4 -32 -4
l-33 0 30 19 c37 24 49 26 41 5z m-106 -25 c-14 -12 -51 -34 -83 -51 -57 -28
-61 -29 -166 -22 -113 7 -133 3 -179 -39 -22 -20 -27 -21 -148 -10 -136 13
-178 6 -189 -29 -5 -13 -12 -17 -23 -12 -31 12 -267 35 -310 29 -24 -4 -46
-13 -49 -21 -3 -7 -8 -12 -12 -10 -4 3 -79 12 -167 21 -124 13 -172 22 -219
42 -33 14 -84 29 -115 32 l-55 6 53 33 c29 17 56 32 61 32 4 0 16 -10 27 -21
69 -78 251 -91 314 -24 l21 22 42 -21 c63 -31 204 -30 267 3 25 13 47 27 50
30 3 4 141 3 308 -2 166 -5 310 -5 320 -1 18 9 183 31 242 32 l35 1 -25 -20z
m-1915 -35 c36 -20 65 -39 65 -43 0 -4 -11 -13 -24 -19 -19 -8 -33 -6 -73 15
-28 13 -81 30 -117 36 -65 11 -68 10 -130 -20 l-64 -32 -9 50 -10 49 148 0
148 0 66 -36z m1964 -161 c-7 -21 -21 -51 -33 -66 l-20 -28 -18 52 c-10 29
-15 56 -10 61 14 14 87 36 90 27 2 -5 -2 -26 -9 -46z m-2074 -10 c19 -9 35
-24 35 -33 0 -9 11 -31 25 -50 14 -19 25 -43 25 -53 0 -11 5 -36 11 -56 8 -29
7 -44 -6 -75 -16 -37 -17 -38 -53 -31 -79 14 -104 35 -150 123 -47 89 -48 102
-12 160 16 26 26 32 55 32 19 0 50 -8 70 -17z m409 -40 c31 -12 51 -26 57 -40
4 -12 17 -28 29 -35 18 -12 20 -23 20 -130 l0 -118 -29 0 c-27 0 -146 14 -216
25 l-30 5 3 77 c2 43 -4 109 -12 148 -19 91 -13 100 69 91 33 -3 82 -14 109
-23z m1406 18 c16 -4 29 -18 35 -37 6 -17 18 -42 28 -57 9 -14 17 -31 17 -36
0 -14 -53 -41 -122 -62 l-58 -17 0 44 c0 24 -7 62 -16 84 -15 37 -15 42 0 65
13 20 24 25 54 24 20 -1 48 -4 62 -8z m-271 -68 c6 -21 11 -46 11 -55 0 -9 4
-20 10 -23 6 -4 4 -17 -5 -35 -8 -16 -12 -36 -9 -44 6 -17 4 -18 -121 -41
-117 -22 -109 -25 -124 60 -13 80 -13 80 32 138 l29 37 83 0 84 0 10 -37z
m-394 -3 c14 -15 17 -31 13 -75 -3 -31 -1 -58 4 -61 9 -6 10 -49 2 -81 -6 -23
-23 -28 -141 -39 l-73 -7 0 130 c0 87 4 133 12 141 7 7 42 12 88 12 64 0 80
-3 95 -20z m-369 -1 c6 -10 32 -208 34 -251 0 -16 -10 -18 -84 -18 l-84 0 2
113 c0 61 -2 124 -7 140 l-7 27 69 0 c41 0 73 -5 77 -11z"/>
<path d="M6270 8874 c-39 -33 -38 -71 3 -94 27 -15 29 -14 63 22 41 45 43 71
9 86 -35 16 -39 16 -75 -14z"/>
<path d="M3952 8698 c-7 -7 -12 -31 -12 -55 0 -32 5 -45 20 -53 28 -15 60 4
60 34 0 56 -12 86 -34 86 -12 0 -27 -5 -34 -12z"/>
<path d="M7505 7964 c-18 -14 -19 -17 -5 -42 29 -50 120 -37 120 18 0 13 -11
22 -37 29 -48 14 -54 13 -78 -5z"/>
<path d="M5881 6185 c-41 -14 -84 -31 -95 -37 -49 -26 -255 -180 -300 -224
-122 -122 -177 -268 -155 -420 9 -63 84 -273 115 -321 8 -12 14 -31 14 -41 0
-24 78 -129 199 -267 131 -150 153 -160 361 -160 132 0 167 4 234 23 217 62
390 210 496 422 18 36 41 77 51 91 14 20 20 61 30 190 12 161 12 167 -10 240
-47 155 -138 283 -266 374 -126 91 -294 143 -485 151 -105 5 -121 3 -189 -21z
m265 -588 c20 -11 21 -15 9 -60 -7 -28 -8 -50 -3 -53 5 -3 33 17 63 45 54 51
69 58 93 42 18 -11 6 -54 -24 -86 -16 -18 -34 -25 -61 -26 l-38 -1 28 -12 c16
-7 33 -19 38 -27 7 -11 15 -6 40 24 24 29 36 36 53 31 34 -10 38 -19 25 -68
-11 -44 -10 -49 12 -73 13 -14 52 -38 85 -53 34 -16 65 -33 68 -39 4 -6 -14
-38 -40 -72 l-48 -61 -19 26 c-15 21 -27 26 -61 26 -50 0 -93 28 -98 63 -3 20
-10 22 -63 25 -84 4 -107 27 -103 102 2 45 6 55 21 54 9 -1 17 0 17 3 0 2 -26
28 -57 57 l-58 54 -32 -16 c-28 -13 -36 -14 -58 -2 -29 16 -31 27 -9 58 18 26
47 28 88 7 40 -21 49 -19 74 15 25 33 28 34 58 17z m348 -173 c25 -10 19 -48
-13 -78 -59 -56 -115 2 -59 61 22 23 43 28 72 17z m-691 -105 c34 -21 47 -35
43 -45 -3 -9 -6 -22 -6 -30 0 -33 -99 -4 -120 35 -14 27 -13 58 3 64 22 10 32
7 80 -24z m217 -78 c16 -61 -8 -94 -52 -70 -17 9 -19 17 -14 52 8 50 13 57 36
57 14 0 22 -11 30 -39z m98 -105 c4 -34 -18 -43 -52 -21 -30 20 -34 52 -8 57
31 7 57 -8 60 -36z m-185 -8 c29 -23 31 -61 3 -91 -22 -23 -28 -26 -49 -16
-22 10 -24 16 -20 53 5 36 24 66 43 66 3 0 14 -6 23 -12z m327 -73 c7 -9 21
-13 35 -9 16 4 27 -1 39 -17 33 -48 10 -103 -64 -148 -49 -30 -53 -31 -134
-25 l-84 7 -5 36 c-6 52 53 158 91 164 63 10 110 7 122 -8z"/>
<path d="M6280 5290 c0 -13 5 -18 15 -14 12 5 13 10 4 20 -15 19 -19 18 -19
-6z"/>
<path d="M4400 6159 c-348 -75 -700 -279 -836 -484 -51 -76 -72 -151 -89 -318
-24 -224 -4 -343 83 -511 26 -50 49 -102 52 -115 11 -52 202 -136 384 -167
249 -44 555 44 794 229 261 200 399 579 321 882 -11 44 -24 98 -30 120 -14 54
-62 139 -115 201 -125 148 -343 211 -564 163z m83 -676 c8 -45 -10 -69 -42
-58 -38 12 -26 95 14 95 18 0 24 -7 28 -37z m241 1 c10 -4 16 -18 16 -35 0
-35 -22 -38 -59 -10 -41 32 -9 65 43 45z m-596 -103 c21 -13 5 -79 -20 -87
-33 -10 -57 24 -46 64 9 33 36 43 66 23z m492 -63 c0 -32 -27 -51 -53 -37 -22
13 -23 65 0 77 25 14 53 -7 53 -40z m-776 3 c38 -40 29 -73 -17 -65 -18 3 -38
7 -44 10 -20 5 -16 61 5 73 24 15 25 14 56 -18z m574 17 c10 -13 16 -41 13
-64 -1 -16 -30 -26 -52 -19 -12 4 -19 16 -19 31 0 52 33 81 58 52z m237 -70
c20 -9 25 -18 25 -45 0 -28 -3 -33 -17 -30 -10 3 -30 8 -45 11 -23 5 -28 12
-28 35 0 26 9 38 32 40 4 1 19 -4 33 -11z m-671 -103 c27 -20 14 -57 -27 -77
-33 -16 -35 -15 -75 10 -68 44 -50 81 38 81 25 0 53 -6 64 -14z m408 1 c18 -8
45 -17 59 -20 15 -3 45 -20 67 -38 43 -35 59 -69 64 -146 3 -51 -2 -55 -122
-102 -47 -18 -92 -39 -100 -45 -8 -7 -46 -16 -84 -20 -60 -6 -68 -5 -63 9 3 8
2 18 -3 21 -6 4 -10 46 -10 94 0 83 2 90 24 104 18 12 24 25 23 51 -1 38 14
60 58 88 36 22 45 22 87 4z m-290 -261 c10 -22 9 -29 -9 -46 -28 -28 -63 -11
-63 30 0 34 6 41 37 41 15 0 27 -9 35 -25z"/>
<path d="M4930 4741 c-17 -5 -57 -51 -123 -141 -54 -74 -113 -152 -131 -172
-50 -54 -54 -77 -22 -105 52 -45 77 -34 191 80 103 104 142 158 176 246 18 49
18 50 -2 75 -21 26 -42 30 -89 17z"/>
<path d="M5341 4721 c-12 -16 -21 -37 -20 -48 1 -29 295 -282 330 -283 7 0
113 90 117 99 1 4 -12 15 -30 26 -18 10 -103 67 -190 127 -86 59 -163 108
-171 108 -9 0 -25 -13 -36 -29z"/>
<path d="M5148 4527 c-15 -7 -120 -129 -250 -291 l-223 -280 -3 -76 -4 -77 94
-6 c51 -3 230 -12 397 -18 l303 -13 57 60 c53 54 58 64 70 130 12 61 11 77 -3
126 -45 157 -201 350 -343 426 -33 17 -62 32 -64 32 -2 -1 -16 -6 -31 -13z
m-110 -492 c38 -32 58 -111 42 -160 -20 -61 -111 -76 -161 -26 -26 27 -29 36
-29 95 0 61 2 66 33 90 41 33 77 33 115 1z m396 -15 c39 -43 39 -45 29 -104
l-6 -39 -90 7 c-50 4 -94 9 -99 12 -19 12 -48 85 -42 108 7 31 58 55 120 55
48 1 54 -2 88 -39z"/>
</g>
</svg>
