<?xml version="1.0" standalone="no"?>
<!DOCTYPE svg PUBLIC "-//W3C//DTD SVG 20010904//EN"
 "http://www.w3.org/TR/2001/REC-SVG-20010904/DTD/svg10.dtd">
<svg version="1.0" xmlns="http://www.w3.org/2000/svg"
 width="1024.000000pt" height="1024.000000pt" viewBox="0 0 1024.000000 1024.000000"
 preserveAspectRatio="xMidYMid meet">
<metadata>
Created by potrace 1.10, written by Peter Selinger 2001-2011
</metadata>
<g transform="translate(0.000000,1024.000000) scale(0.100000,-0.100000)"
fill="#000000" stroke="none">
<path d="M5298 9681 c-34 -12 -770 -951 -973 -1241 -110 -157 -214 -301 -231
-320 -48 -55 -67 -93 -139 -273 -90 -226 -109 -317 -109 -527 l0 -165 177
-645 176 -645 9 -210 9 -210 -39 -212 -38 -211 -108 -224 c-60 -123 -138 -270
-175 -328 -45 -72 -185 -246 -445 -553 l-380 -449 -379 -322 -378 -322 -799
-544 c-439 -300 -805 -555 -813 -566 -22 -34 -7 -71 34 -85 19 -6 42 -9 51 -7
10 3 357 234 772 514 l754 509 603 547 c587 532 680 624 829 813 179 229 406
580 477 738 161 362 212 749 157 1182 -21 163 -28 190 -178 680 l-156 510 0
185 c0 195 10 273 57 436 40 135 263 484 537 839 318 412 688 876 716 900 69
57 96 143 57 177 -29 25 -57 36 -75 29z"/>
<path d="M7485 8744 c-48 -24 -442 -600 -539 -788 -142 -276 -227 -500 -281
-741 -14 -66 -96 -426 -181 -800 l-155 -680 -131 -324 c-119 -292 -147 -352
-295 -618 -137 -247 -183 -320 -286 -454 -67 -88 -130 -174 -141 -190 -18 -30
-18 -31 1 -57 38 -51 60 -43 164 65 111 115 224 262 304 397 39 64 141 295
311 697 l253 601 95 391 c52 216 127 543 166 727 50 236 87 384 126 500 61
183 144 384 181 439 14 20 36 59 50 86 14 28 124 183 244 346 121 164 222 310
225 326 4 23 0 37 -21 61 -30 35 -45 38 -90 16z"/>
<path d="M9474 8679 c-21 -17 -56 -56 -78 -87 -22 -31 -62 -86 -91 -122 -262
-332 -1080 -1535 -1237 -1820 -134 -243 -192 -406 -223 -629 -17 -115 -17
-167 -6 -710 15 -758 14 -911 -4 -1056 -18 -147 -48 -315 -74 -415 -31 -122
-296 -762 -364 -880 -91 -159 -223 -351 -331 -483 -17 -20 -370 -368 -784
-773 l-753 -736 -301 -240 c-170 -134 -333 -255 -372 -276 -105 -55 -138 -128
-76 -172 62 -44 55 -50 921 693 l791 677 486 580 c506 603 535 642 656 880
166 326 273 648 331 997 l25 148 -9 777 c-4 428 -4 825 0 883 16 203 71 410
155 582 27 55 234 371 512 785 366 543 519 760 706 1002 130 170 242 320 247
333 10 27 7 36 -24 71 -28 30 -57 28 -103 -9z"/>
<path d="M8149 7946 c-28 -19 -52 -73 -223 -491 -192 -473 -225 -541 -446
-932 -84 -149 -159 -328 -201 -482 -45 -161 -45 -192 2 -216 27 -14 31 -14 63
7 28 18 36 32 46 78 29 132 83 260 457 1084 217 479 398 884 400 899 11 57
-47 88 -98 53z"/>
<path d="M5658 7919 c-42 -22 -107 -111 -181 -249 -93 -174 -111 -231 -176
-580 -34 -179 -70 -366 -81 -416 -14 -59 -20 -118 -18 -164 3 -70 4 -72 35
-85 31 -13 35 -12 63 12 17 14 35 33 40 43 5 10 32 171 59 358 28 186 55 361
61 388 35 160 129 366 226 494 90 119 100 164 42 204 -27 19 -24 20 -70 -5z"/>
<path d="M4901 4729 c-10 -11 -61 -99 -112 -195 l-93 -175 -501 -570 -500
-570 -539 -449 c-566 -472 -607 -511 -587 -564 9 -21 17 -26 46 -26 20 0 50 6
68 14 18 7 379 328 802 711 l770 698 373 481 c228 295 377 495 384 518 14 48
4 85 -34 120 -36 33 -51 35 -77 7z"/>
<path d="M6930 4418 c-66 -59 -93 -98 -433 -636 -341 -540 -372 -586 -544
-797 -175 -217 -207 -249 -940 -970 -417 -409 -766 -755 -777 -769 -23 -30
-15 -69 18 -91 23 -15 28 -13 140 58 110 70 147 104 734 677 l617 604 260 326
c227 284 288 368 467 646 113 175 233 373 266 439 77 155 150 256 273 380 84
85 99 105 99 132 0 38 -30 63 -77 63 -25 0 -47 -14 -103 -62z"/>
<path d="M4788 2823 c-23 -21 -505 -473 -1070 -1006 -694 -653 -1030 -976
-1034 -994 -4 -14 -3 -38 2 -52 9 -23 15 -26 51 -25 28 0 52 9 75 26 39 30
1979 1844 2056 1923 64 65 69 99 21 139 -17 14 -37 26 -45 26 -8 0 -33 -17
-56 -37z"/>
</g>
</svg>
