<?xml version="1.0" standalone="no"?>
<!DOCTYPE svg PUBLIC "-//W3C//DTD SVG 20010904//EN"
 "http://www.w3.org/TR/2001/REC-SVG-20010904/DTD/svg10.dtd">
<svg version="1.0" xmlns="http://www.w3.org/2000/svg"
 width="1024.000000pt" height="1024.000000pt" viewBox="0 0 1024.000000 1024.000000"
 preserveAspectRatio="xMidYMid meet">
<metadata>
Created by potrace 1.10, written by Peter Selinger 2001-2011
</metadata>
<g transform="translate(0.000000,1024.000000) scale(0.100000,-0.100000)"
fill="#000000" stroke="none">
<path d="M4642 7403 c-44 -38 -81 -72 -81 -76 -1 -4 26 -39 59 -78 98 -114
142 -220 177 -425 17 -103 18 -202 18 -1749 l0 -1640 -22 -45 c-27 -55 -66
-80 -126 -80 -24 0 -195 31 -378 70 -184 38 -344 70 -356 70 -35 0 -53 -11
-68 -41 -30 -57 -24 -67 127 -194 341 -288 562 -505 659 -647 60 -88 136 -136
247 -158 92 -18 125 -6 205 79 115 122 179 256 212 445 13 77 15 302 15 1765
0 1662 5 1925 35 2101 75 440 75 432 6 492 -70 62 -159 92 -398 137 -122 22
-228 41 -235 41 -8 0 -51 -30 -96 -67z"/>
<path d="M6473 6872 c-40 -26 -73 -52 -73 -58 0 -5 22 -61 49 -123 l48 -113
-51 -128 c-36 -89 -100 -211 -216 -409 -160 -274 -171 -289 -362 -521 -109
-132 -198 -245 -198 -252 0 -7 7 -21 15 -32 14 -18 19 -17 132 30 89 37 179
88 373 212 l255 164 350 346 c192 191 352 353 353 360 2 8 -10 43 -28 78 -25
51 -55 86 -158 183 -208 196 -320 282 -397 305 -14 4 -43 -9 -92 -42z"/>
<path d="M3100 6465 l-23 -24 57 -73 c227 -291 419 -592 570 -897 95 -190 165
-283 226 -296 47 -10 120 15 160 55 52 52 71 114 77 245 9 208 -48 349 -205
509 -175 178 -626 455 -813 499 -20 5 -31 1 -49 -18z"/>
<path d="M4063 4678 c-59 -44 -137 -104 -173 -133 -220 -174 -698 -500 -980
-669 -91 -55 -172 -105 -180 -112 -19 -16 -306 -144 -323 -144 -19 0 -133 56
-183 91 -25 17 -87 48 -137 69 l-92 39 -18 -22 c-15 -18 -17 -35 -13 -95 8
-126 32 -161 269 -407 189 -195 215 -218 283 -251 48 -24 94 -39 127 -42 52
-4 52 -4 72 35 24 45 103 131 855 923 l576 607 37 89 c20 49 37 93 37 97 0 4
-11 7 -24 7 -15 0 -67 -32 -133 -82z"/>
<path d="M5860 4740 c-12 -12 -20 -26 -17 -33 2 -6 66 -51 143 -100 247 -158
404 -274 615 -454 44 -37 177 -174 297 -303 119 -129 286 -309 371 -400 85
-91 181 -196 214 -234 105 -122 162 -156 262 -156 125 0 213 78 254 225 21 76
33 233 21 290 -30 146 -196 308 -508 496 -313 189 -1040 512 -1447 642 -156
49 -180 52 -205 27z"/>
</g>
</svg>
