<?xml version="1.0" standalone="no"?>
<!DOCTYPE svg PUBLIC "-//W3C//DTD SVG 20010904//EN"
 "http://www.w3.org/TR/2001/REC-SVG-20010904/DTD/svg10.dtd">
<svg version="1.0" xmlns="http://www.w3.org/2000/svg"
 width="480.000000pt" height="480.000000pt" viewBox="0 0 480.000000 480.000000"
 preserveAspectRatio="xMidYMid meet">
<metadata>
Created by potrace 1.11, written by Peter Selinger 2001-2013
</metadata>
<g transform="translate(0.000000,480.000000) scale(0.100000,-0.100000)"
fill="#000000" stroke="none">
<path d="M3018 4043 c-7 -185 -83 -511 -146 -626 -63 -116 -153 -188 -298
-238 -156 -55 -304 -48 -454 19 -89 40 -143 102 -198 228 -74 168 -97 277
-118 567 -4 63 -11 93 -24 110 -18 21 -20 21 -47 6 l-28 -15 1 -150 c2 -165
20 -292 64 -446 40 -140 74 -202 155 -284 88 -89 143 -116 315 -152 98 -21
134 -32 132 -42 -6 -25 -4 -194 3 -313 l7 -118 -178 2 c-99 1 -213 5 -254 8
-65 5 -271 -11 -307 -24 -15 -5 -17 -24 -5 -42 5 -8 45 -15 107 -18 55 -3 132
-10 170 -16 61 -8 205 -15 401 -18 l60 -1 -4 -372 c-3 -261 -8 -375 -16 -381
-15 -10 -420 -2 -537 11 -53 6 -109 17 -124 24 l-28 12 7 151 c6 139 5 152
-14 183 -13 22 -27 32 -44 32 -31 0 -33 -14 -42 -265 -10 -286 -7 -434 12
-605 8 -70 63 -342 76 -374 19 -47 136 -165 216 -217 132 -86 274 -125 426
-115 205 14 373 91 515 238 138 143 171 250 252 820 58 415 61 439 45 463 -18
27 -56 34 -74 12 -6 -7 -16 -71 -22 -142 -7 -74 -17 -133 -23 -137 -7 -4 -21
-5 -32 -2 -11 3 -124 -13 -252 -36 -127 -22 -235 -40 -239 -40 -4 0 -4 159 -1
353 4 193 7 360 7 370 0 17 13 17 213 11 116 -3 227 -9 244 -14 26 -7 38 -4
58 12 42 33 30 59 -40 88 -56 23 -74 25 -267 28 l-208 4 -2 86 c-4 197 -3 309
5 334 6 22 15 28 45 33 122 19 220 66 313 153 82 75 131 180 205 437 31 110
62 206 68 214 6 8 11 75 12 167 l2 154 -53 0 -53 0 -4 -127z m-33 -2360 c-3
-16 -12 -84 -21 -153 -28 -226 -96 -496 -141 -563 -42 -61 -166 -172 -238
-212 -37 -21 -101 -49 -143 -62 -69 -22 -89 -24 -197 -20 -258 10 -422 113
-491 310 -25 70 -66 366 -80 571 l-7 99 34 -6 c19 -3 79 -9 134 -13 55 -3 103
-8 107 -11 10 -5 255 -4 288 1 14 2 77 7 140 11 149 8 181 11 390 45 232 37
231 37 225 3z"/>
</g>
</svg>
