<?xml version="1.0" standalone="no"?>
<!DOCTYPE svg PUBLIC "-//W3C//DTD SVG 20010904//EN"
 "http://www.w3.org/TR/2001/REC-SVG-20010904/DTD/svg10.dtd">
<svg version="1.0" xmlns="http://www.w3.org/2000/svg"
 width="60.000000pt" height="60.000000pt" viewBox="0 0 60.000000 60.000000"
 preserveAspectRatio="xMidYMid meet">
<metadata>
Created by potrace 1.10, written by Peter Selinger 2001-2011
</metadata>
<g transform="translate(0.000000,60.000000) scale(0.100000,-0.100000)"
fill="#000000" stroke="none">
<path d="M344 531 c9 -13 -15 -29 -101 -68 -74 -33 -73 -35 5 -18 l33 8 -3
-49 -3 -49 -100 -11 c-93 -9 -98 -11 -73 -23 21 -11 36 -11 72 -2 25 6 59 11
75 11 30 0 31 -1 31 -50 l0 -49 -59 -7 c-51 -5 -58 -9 -50 -23 5 -9 15 -43 22
-76 12 -58 13 -60 42 -56 17 2 63 6 104 10 71 6 74 7 77 32 1 15 11 45 22 67
27 56 17 66 -62 63 l-66 -2 0 49 0 49 68 6 c37 4 84 7 105 7 38 0 50 13 21 24
-15 6 -56 3 -158 -10 l-39 -5 5 46 c3 25 2 45 -3 45 -23 0 -5 20 29 30 52 17
61 28 38 46 -22 16 -40 19 -32 5z m70 -333 c-28 -90 -26 -89 -146 -102 l-46
-5 -7 50 c-4 28 -5 53 -2 56 8 7 103 20 160 22 45 1 48 0 41 -21z"/>
</g>
</svg>
