<?xml version="1.0" standalone="no"?>
<!DOCTYPE svg PUBLIC "-//W3C//DTD SVG 20010904//EN"
 "http://www.w3.org/TR/2001/REC-SVG-20010904/DTD/svg10.dtd">
<svg version="1.0" xmlns="http://www.w3.org/2000/svg"
 width="480.000000pt" height="480.000000pt" viewBox="0 0 480.000000 480.000000"
 preserveAspectRatio="xMidYMid meet">
<metadata>
Created by potrace 1.11, written by Peter Selinger 2001-2013
</metadata>
<g transform="translate(0.000000,480.000000) scale(0.100000,-0.100000)"
fill="#000000" stroke="none">
<path d="M2559 3659 c-59 -9 -106 -30 -242 -107 -60 -34 -117 -62 -128 -62
-11 0 -64 22 -119 50 l-99 50 -128 2 -128 3 -98 -44 c-107 -47 -599 -359 -698
-441 -76 -63 -200 -124 -307 -149 -97 -23 -112 -33 -112 -72 0 -16 -5 -29 -11
-29 -29 0 18 -55 179 -212 97 -95 202 -200 232 -233 30 -33 177 -183 326 -335
l271 -275 7 -55 c7 -60 33 -229 72 -465 20 -127 30 -163 65 -233 51 -105 126
-182 228 -236 67 -35 78 -38 130 -32 163 17 261 77 467 288 174 178 215 236
359 506 l132 247 134 75 c155 88 774 507 964 654 72 56 175 130 228 166 105
70 125 99 112 158 -4 17 -12 22 -33 21 -19 -1 -102 44 -277 150 -286 175 -871
479 -1015 529 -110 38 -245 68 -345 77 -38 4 -81 8 -95 9 -14 1 -46 -1 -71 -5z
m277 -130 c171 -44 331 -97 394 -130 30 -16 61 -29 69 -29 8 0 71 -33 141 -74
69 -41 187 -105 261 -142 73 -36 157 -83 184 -104 28 -21 70 -47 95 -58 25
-12 72 -40 105 -62 l60 -42 -235 7 c-129 3 -275 8 -325 10 -49 2 -173 7 -275
10 -102 3 -214 8 -250 11 -100 9 -284 50 -402 91 -105 36 -108 36 -128 18 -11
-10 -20 -24 -20 -30 0 -8 -30 -17 -77 -25 -43 -6 -114 -20 -158 -31 -145 -34
-285 -19 -420 46 -87 42 -98 43 -113 10 -6 -13 -22 -27 -34 -29 -79 -18 -783
-99 -878 -101 l-114 -3 44 22 c25 13 155 96 290 184 346 228 494 324 537 349
59 35 162 64 241 68 68 3 79 0 187 -46 64 -28 137 -53 164 -56 63 -7 131 15
198 65 140 106 257 124 459 71z m-255 -603 c110 -46 455 -101 684 -110 88 -4
185 -9 215 -11 30 -2 134 -7 230 -11 96 -4 189 -8 205 -9 17 -2 55 -4 85 -4
l55 -1 -40 -23 c-203 -114 -435 -195 -690 -242 l-190 -34 -23 29 c-43 55 -58
58 -327 65 -158 4 -301 13 -393 25 -79 11 -160 20 -178 20 -29 0 -122 -32
-391 -135 -34 -13 -97 -31 -141 -40 l-79 -16 -158 52 c-164 54 -391 161 -519
243 l-68 44 73 7 c41 3 201 24 356 46 156 21 318 39 362 39 68 0 83 3 116 26
l38 25 56 -24 c149 -64 321 -77 491 -37 123 29 168 47 175 71 8 23 13 23 56 5z
m-1546 -384 c133 -66 290 -134 400 -172 50 -18 93 -35 98 -39 4 -4 -2 -34 -13
-66 -22 -64 -36 -160 -34 -242 0 -29 -2 -53 -5 -53 -11 0 -657 664 -670 688
-10 18 0 14 56 -22 37 -24 113 -66 168 -94z m2710 -93 c-286 -212 -705 -483
-721 -466 -3 3 20 96 52 206 l57 201 31 1 c17 0 42 2 56 4 14 2 50 6 80 8 98
9 342 75 480 131 74 30 139 55 145 55 5 1 -76 -62 -180 -140z m-1530 44 c-33
-83 -60 -184 -99 -385 -25 -130 -46 -240 -46 -246 0 -17 30 -42 50 -42 26 0
44 61 86 280 30 159 82 400 88 407 2 2 38 -4 82 -13 74 -14 252 -14 399 2 141
15 196 7 236 -33 18 -18 18 -22 -12 -133 -17 -63 -39 -152 -49 -196 -20 -89
-63 -215 -104 -308 -14 -32 -26 -64 -26 -70 0 -18 -97 -202 -147 -280 -142
-220 -389 -465 -564 -559 -40 -21 -65 -27 -112 -27 -85 0 -141 33 -202 118
-59 81 -74 115 -118 262 -58 189 -89 415 -91 645 -2 155 6 229 35 336 19 70
24 80 48 85 14 3 132 41 261 84 213 72 256 85 284 89 4 0 5 -7 1 -16z"/>
<path d="M1790 3275 c-28 -34 2 -135 39 -135 47 0 53 80 10 126 -26 28 -32 29
-49 9z"/>
<path d="M2002 3238 c-17 -17 -15 -74 4 -92 33 -34 64 -15 64 40 0 53 -38 82
-68 52z"/>
<path d="M2240 3219 c-16 -37 -5 -62 30 -67 26 -4 40 12 40 49 0 54 -50 67
-70 18z"/>
<path d="M2402 3200 c-18 -11 -37 -30 -41 -43 -21 -53 49 -65 98 -16 36 35 38
47 14 65 -24 18 -33 17 -71 -6z"/>
<path d="M2091 1727 c-24 -29 -40 -101 -57 -250 -15 -134 -16 -160 -4 -182 12
-23 54 -44 66 -33 2 3 7 38 10 79 7 108 24 235 40 308 11 48 11 67 3 77 -15
18 -43 18 -58 1z"/>
<path d="M2018 1159 c-22 -12 -23 -42 -2 -59 20 -17 67 -2 72 23 7 38 -33 58
-70 36z"/>
</g>
</svg>
