<?xml version="1.0" standalone="no"?>
<!DOCTYPE svg PUBLIC "-//W3C//DTD SVG 20010904//EN"
 "http://www.w3.org/TR/2001/REC-SVG-20010904/DTD/svg10.dtd">
<svg version="1.0" xmlns="http://www.w3.org/2000/svg"
 width="1024.000000pt" height="1024.000000pt" viewBox="0 0 1024.000000 1024.000000"
 preserveAspectRatio="xMidYMid meet">
<metadata>
Created by potrace 1.10, written by Peter Selinger 2001-2011
</metadata>
<g transform="translate(0.000000,1024.000000) scale(0.100000,-0.100000)"
fill="#000000" stroke="none">
<path d="M5988 9053 c-46 -39 -54 -49 -94 -127 -20 -38 -264 -490 -543 -1005
-495 -915 -711 -1341 -759 -1501 -43 -141 -37 -268 17 -427 43 -124 101 -217
233 -370 368 -426 1268 -1483 1297 -1522 47 -65 116 -213 136 -295 13 -55 15
-91 10 -170 -6 -89 -15 -123 -71 -279 l-63 -178 -198 -315 -198 -316 -475
-576 c-470 -570 -479 -581 -773 -871 -163 -162 -297 -301 -297 -310 0 -9 7
-27 16 -39 30 -43 59 -30 225 101 l157 123 674 804 c752 898 750 896 841 1035
145 222 230 416 278 635 28 128 31 156 26 245 -8 134 -36 240 -97 360 -46 93
-107 169 -809 1017 -830 1003 -797 958 -808 1105 -5 67 -2 84 52 260 l59 188
614 1145 c338 630 625 1161 638 1181 36 53 32 94 -13 118 -31 16 -37 14 -75
-16z"/>
<path d="M3030 7911 c-23 -12 -118 -120 -270 -305 -214 -260 -248 -307 -377
-519 -78 -127 -166 -262 -196 -298 -60 -71 -75 -106 -58 -138 39 -73 151 -32
196 71 18 41 197 338 255 423 16 22 65 96 110 165 112 170 170 241 332 406 76
78 138 148 138 157 0 9 -10 23 -22 31 -39 25 -71 27 -108 7z"/>
<path d="M8068 7511 c-31 -11 -335 -352 -384 -430 -26 -42 -77 -107 -114 -146
-76 -79 -491 -619 -521 -678 -11 -21 -19 -48 -17 -60 4 -26 45 -48 75 -41 21
6 525 614 612 739 76 108 375 465 395 471 50 16 73 86 38 117 -24 22 -64 35
-84 28z"/>
<path d="M3358 3091 c-30 -27 -74 -82 -99 -123 -25 -40 -195 -264 -379 -498
-393 -500 -383 -486 -375 -520 9 -37 34 -60 65 -60 21 0 46 21 116 98 97 104
776 1000 793 1045 13 33 1 69 -31 91 -12 9 -26 16 -29 16 -4 0 -32 -22 -61
-49z"/>
<path d="M8145 2871 c-44 -27 -42 -25 -515 -631 -238 -305 -459 -582 -491
-615 -91 -94 -107 -175 -38 -190 69 -15 128 31 216 168 25 40 238 314 472 610
454 572 471 595 471 609 0 14 -57 68 -72 68 -7 0 -26 -8 -43 -19z"/>
</g>
</svg>
