<?xml version="1.0" standalone="no"?>
<!DOCTYPE svg PUBLIC "-//W3C//DTD SVG 20010904//EN"
 "http://www.w3.org/TR/2001/REC-SVG-20010904/DTD/svg10.dtd">
<svg version="1.0" xmlns="http://www.w3.org/2000/svg"
 width="1024.000000pt" height="1024.000000pt" viewBox="0 0 1024.000000 1024.000000"
 preserveAspectRatio="xMidYMid meet">
<metadata>
Created by potrace 1.10, written by Peter Selinger 2001-2011
</metadata>
<g transform="translate(0.000000,1024.000000) scale(0.100000,-0.100000)"
fill="#000000" stroke="none">
<path d="M4749 9290 c-15 -4 -115 -79 -223 -166 l-197 -159 -343 -387 c-340
-383 -345 -389 -624 -785 -156 -219 -386 -533 -513 -698 -202 -262 -289 -392
-289 -431 0 -6 48 -15 123 -22 l122 -11 35 38 c19 21 151 208 293 414 253 368
259 376 280 362 20 -13 88 -7 617 50 327 35 610 66 628 69 l33 5 -45 -52 c-61
-72 -286 -427 -286 -452 0 -11 -60 -201 -134 -422 l-134 -402 -17 -220 c-17
-217 -17 -220 4 -302 27 -108 104 -265 178 -364 71 -96 224 -242 288 -276 l46
-24 -7 -63 c-8 -81 -8 -90 5 -192 18 -137 13 -357 -19 -830 -33 -496 -42 -617
-70 -900 -37 -380 -60 -747 -60 -966 0 -113 -50 -783 -65 -871 -7 -42 11 -150
36 -219 34 -89 122 -172 244 -229 198 -92 346 -130 540 -140 184 -9 1805 -48
1810 -43 3 2 0 20 -5 39 -6 19 -11 65 -12 101 l-3 66 -100 6 c-55 4 -417 15
-805 26 -388 11 -764 24 -835 30 -188 14 -391 71 -530 148 l-50 27 -21 164
c-24 185 -30 25 51 1271 20 300 51 790 70 1090 19 300 42 599 50 665 19 156
21 276 11 519 l-9 199 29 -6 c16 -3 65 -12 109 -21 108 -21 317 -21 423 0 45
9 85 14 88 11 3 -3 15 -40 25 -83 l20 -77 372 -444 c503 -601 481 -573 542
-698 66 -134 96 -246 102 -387 5 -93 3 -114 -14 -155 -12 -26 -28 -92 -37
-145 -20 -118 -62 -251 -112 -350 -33 -66 -409 -666 -425 -678 -3 -3 -29 -33
-57 -67 -78 -93 -146 -203 -175 -281 -33 -90 -25 -129 35 -172 65 -47 107 -37
139 33 10 23 43 71 73 106 68 79 210 307 202 326 -3 8 72 127 170 270 247 362
298 456 358 658 52 173 61 239 61 452 l0 200 -68 155 -68 155 -392 495 c-354
447 -400 509 -469 635 l-76 140 116 76 c234 152 330 300 361 554 47 388 -51
818 -250 1085 -58 78 -617 621 -720 698 -31 23 -93 64 -139 92 -45 27 -76 52
-69 54 31 9 1367 76 1406 70 53 -8 134 17 184 56 l35 28 285 -232 c157 -127
372 -311 477 -408 105 -98 195 -178 199 -178 11 0 193 142 193 150 0 8 -199
181 -1435 1250 -578 499 -639 552 -784 681 -194 170 -349 248 -575 284 -99 16
-166 18 -207 5z m281 -256 c125 -28 186 -69 485 -321 154 -129 416 -363 582
-519 279 -261 300 -283 275 -288 -65 -12 -178 -22 -1447 -126 -737 -60 -1353
-112 -1368 -115 -21 -3 -26 -1 -20 8 38 62 563 738 636 818 138 153 344 347
492 466 l130 104 85 -7 c47 -3 114 -12 150 -20z m132 -1925 c382 -299 368
-287 462 -399 162 -194 252 -364 289 -550 14 -69 23 -128 21 -132 -3 -5 -14
-8 -25 -8 -10 0 -79 -24 -152 -53 -221 -89 -249 -93 -757 -117 -427 -20 -451
-20 -584 -3 l-138 17 6 80 c25 299 192 859 344 1153 31 60 181 273 193 273 4
0 157 -117 341 -261z m764 -1459 c-25 -133 -45 -168 -147 -266 -106 -100 -200
-156 -361 -212 l-87 -31 -205 14 c-189 13 -211 16 -278 44 -156 65 -298 166
-397 281 -64 74 -125 159 -119 165 2 3 45 -4 95 -14 165 -34 299 -44 535 -38
166 3 254 10 343 26 303 54 488 93 561 120 43 16 80 28 81 28 0 -1 -9 -54 -21
-117z"/>
</g>
</svg>
