<?xml version="1.0" standalone="no"?>
<!DOCTYPE svg PUBLIC "-//W3C//DTD SVG 20010904//EN"
 "http://www.w3.org/TR/2001/REC-SVG-20010904/DTD/svg10.dtd">
<svg version="1.0" xmlns="http://www.w3.org/2000/svg"
 width="1024.000000pt" height="1024.000000pt" viewBox="0 0 1024.000000 1024.000000"
 preserveAspectRatio="xMidYMid meet">
<metadata>
Created by potrace 1.10, written by Peter Selinger 2001-2011
</metadata>
<g transform="translate(0.000000,1024.000000) scale(0.100000,-0.100000)"
fill="#000000" stroke="none">
<path d="M4810 8526 c-26 -8 -44 -18 -42 -25 1 -7 20 -36 42 -64 45 -61 73
-121 89 -195 29 -138 4 -234 -134 -507 -280 -554 -727 -1186 -1194 -1690 -35
-38 -179 -185 -319 -326 l-254 -256 23 -17 c32 -22 45 -20 114 13 278 132 956
754 1391 1276 220 263 551 722 719 995 15 25 29 47 31 49 8 9 421 -277 564
-391 192 -154 263 -218 415 -373 167 -170 285 -245 386 -245 56 0 78 14 101
68 26 58 28 183 6 258 -41 132 -121 237 -243 316 -207 134 -527 278 -890 398
-121 40 -224 75 -228 77 -5 3 0 15 11 27 36 39 92 141 92 168 0 94 -277 343
-478 429 -73 31 -128 35 -202 15z"/>
<path d="M4940 6876 c-47 -29 -85 -57 -85 -62 0 -5 35 -33 77 -62 80 -54 120
-102 154 -182 17 -41 19 -78 22 -447 3 -380 2 -402 -15 -406 -10 -3 -215 -41
-456 -83 -354 -63 -441 -76 -455 -66 -84 60 -204 97 -285 89 -41 -4 -56 -10
-79 -37 -16 -17 -28 -37 -26 -44 2 -7 30 -35 63 -63 64 -53 106 -118 133 -207
15 -46 17 -216 20 -1661 2 -1111 0 -1643 -8 -1717 -12 -124 -47 -252 -91 -341
-17 -34 -69 -115 -116 -179 l-84 -117 67 -118 c124 -217 197 -293 283 -293 31
0 58 8 81 23 19 12 109 98 200 192 131 135 215 209 410 364 135 107 297 236
360 286 677 539 668 532 680 519 4 -5 29 -82 54 -171 26 -90 62 -197 81 -238
32 -70 37 -75 65 -75 69 0 153 58 192 134 45 87 63 295 34 401 -61 229 -282
536 -561 780 l-129 113 -38 -19 c-21 -11 -38 -24 -38 -29 0 -5 68 -173 150
-374 83 -201 150 -369 150 -373 -1 -15 -1362 -785 -1371 -776 -23 23 -28 207
-29 919 l0 760 668 103 c367 57 678 105 692 108 20 3 30 -4 53 -39 38 -57 71
-80 122 -86 108 -12 183 80 236 288 11 41 67 419 124 840 58 421 114 798 125
838 11 40 44 121 74 180 l54 108 -77 99 c-69 90 -83 103 -151 137 -145 73
-204 73 -320 4 -49 -29 -78 -36 -233 -61 -98 -15 -180 -25 -183 -22 -6 6 14
700 23 798 4 54 3 58 -30 91 -52 53 -114 84 -316 159 -101 38 -185 69 -185 69
-1 -1 -39 -25 -86 -54z m974 -1332 c20 -20 20 -93 1 -399 -8 -126 -15 -238
-15 -247 0 -13 -8 -18 -30 -18 -41 0 -468 -55 -669 -85 -204 -32 -508 -86
-699 -126 -79 -16 -145 -29 -147 -29 -16 0 17 618 34 648 11 19 148 52 591
142 245 49 563 106 695 123 17 2 74 5 127 6 76 1 100 -2 112 -15z m-100 -1286
c-30 -178 -56 -344 -60 -371 -5 -37 -11 -48 -28 -52 -11 -3 -316 -50 -676
-105 -360 -55 -665 -102 -677 -105 l-23 -5 0 354 0 354 68 12 c37 6 375 62
752 124 377 63 688 114 691 115 3 0 -18 -144 -47 -321z"/>
</g>
</svg>
