<?xml version="1.0" standalone="no"?>
<!DOCTYPE svg PUBLIC "-//W3C//DTD SVG 20010904//EN"
 "http://www.w3.org/TR/2001/REC-SVG-20010904/DTD/svg10.dtd">
<svg version="1.0" xmlns="http://www.w3.org/2000/svg"
 width="1024.000000pt" height="1024.000000pt" viewBox="0 0 1024.000000 1024.000000"
 preserveAspectRatio="xMidYMid meet">
<metadata>
Created by potrace 1.10, written by Peter Selinger 2001-2011
</metadata>
<g transform="translate(0.000000,1024.000000) scale(0.100000,-0.100000)"
fill="#000000" stroke="none">
<path d="M4682 9235 c-28 -20 -52 -39 -52 -43 0 -4 16 -56 37 -117 34 -104 36
-113 26 -172 -24 -136 -140 -348 -328 -598 -619 -822 -1231 -1509 -1770 -1989
-283 -252 -523 -449 -765 -628 -120 -89 -380 -261 -471 -313 -30 -16 -60 -42
-68 -57 -14 -24 -14 -28 3 -47 36 -40 106 -21 326 89 305 153 369 196 1035
696 352 265 651 493 664 508 27 28 44 34 35 12 -9 -24 14 -54 62 -82 55 -33
106 -98 135 -172 51 -136 50 -62 47 -2317 l-3 -2100 -23 -80 c-30 -109 -71
-190 -137 -270 -63 -76 -89 -121 -82 -139 11 -29 188 -255 227 -290 62 -56
130 -96 163 -96 16 0 61 19 101 41 57 33 81 56 126 116 30 42 93 111 140 155
47 44 382 326 744 626 362 301 676 568 698 593 42 50 53 95 27 112 -17 11 -28
4 -1049 -664 -264 -173 -439 -281 -458 -283 -11 -1 -19 11 -25 39 -6 22 -11
551 -14 1208 -4 1007 -2 1167 10 1167 8 0 268 20 578 45 310 24 713 56 894 70
182 13 348 27 370 30 39 4 41 3 75 -47 91 -134 199 -155 287 -55 16 19 40 55
52 80 28 57 77 252 85 337 23 231 98 1035 111 1180 9 96 20 222 25 278 11 114
32 173 81 230 38 43 59 91 59 134 0 27 -16 52 -88 135 -93 109 -213 210 -320
270 -106 60 -184 50 -277 -33 -75 -67 -96 -73 -409 -114 -160 -21 -293 -36
-295 -34 -7 7 19 497 31 576 10 67 9 80 -5 102 -38 58 -176 125 -452 221 l-80
28 -89 -54 -88 -53 28 -24 c16 -12 53 -39 82 -59 63 -42 114 -115 136 -194 14
-45 16 -103 14 -329 l-3 -274 -421 -50 c-232 -27 -432 -46 -445 -43 -13 4 -67
35 -120 70 -123 81 -212 111 -329 112 l-85 0 225 225 c230 231 468 484 761
810 158 177 502 568 562 640 23 27 32 32 46 23 9 -6 106 -79 216 -163 174
-132 296 -242 929 -833 400 -375 743 -695 761 -712 18 -16 183 -170 366 -342
184 -171 370 -341 413 -377 130 -108 94 -104 609 -66 507 37 631 54 779 110
73 27 79 43 25 74 -174 99 -264 142 -412 201 -318 126 -684 296 -970 453 -304
166 -830 520 -1426 959 -495 365 -747 540 -1024 714 -93 58 -170 110 -172 115
-1 5 38 58 89 119 240 289 229 332 -119 507 -190 96 -296 138 -343 138 -14 0
-49 -16 -78 -35z m1352 -2810 c35 -23 56 -85 55 -163 -1 -93 -33 -560 -39
-565 -6 -4 -1948 -167 -1994 -167 l-29 0 7 203 c7 215 20 352 40 420 9 33 17
43 36 45 14 2 428 59 920 127 492 68 914 122 938 119 23 -2 53 -11 66 -19z m0
-1067 c-2 -18 -15 -177 -29 -353 -14 -176 -28 -338 -30 -361 l-6 -40 -277 -23
c-152 -12 -573 -47 -935 -77 -362 -30 -673 -54 -692 -54 l-35 0 0 390 c0 305
3 390 13 390 16 0 922 72 1497 119 256 21 473 39 482 40 13 1 16 -6 12 -31z"/>
<path d="M6680 4464 c-30 -20 -56 -38 -58 -39 -2 -1 14 -44 34 -94 43 -109 42
-124 -21 -228 -63 -104 -435 -592 -482 -633 -21 -18 -87 -78 -147 -134 -59
-56 -116 -105 -126 -110 -15 -7 -80 34 -312 195 l-293 203 -215 83 c-175 68
-221 82 -249 77 -73 -14 -95 -82 -41 -127 16 -14 39 -29 51 -32 44 -14 598
-351 664 -404 158 -126 800 -778 1453 -1473 297 -316 449 -454 557 -504 l50
-23 545 54 c543 53 710 79 710 110 0 18 -64 49 -195 95 -761 266 -1383 621
-2049 1168 -51 42 -202 165 -335 272 l-241 194 42 17 c24 10 152 80 286 156
l242 138 350 284 c192 156 355 289 360 296 15 18 -10 76 -55 131 -47 57 -304
281 -368 321 -77 48 -93 48 -157 7z"/>
</g>
</svg>
