<?xml version="1.0" standalone="no"?>
<!DOCTYPE svg PUBLIC "-//W3C//DTD SVG 20010904//EN"
 "http://www.w3.org/TR/2001/REC-SVG-20010904/DTD/svg10.dtd">
<svg version="1.0" xmlns="http://www.w3.org/2000/svg"
 width="1024.000000pt" height="1024.000000pt" viewBox="0 0 1024.000000 1024.000000"
 preserveAspectRatio="xMidYMid meet">
<metadata>
Created by potrace 1.10, written by Peter Selinger 2001-2011
</metadata>
<g transform="translate(0.000000,1024.000000) scale(0.100000,-0.100000)"
fill="#000000" stroke="none">
<path d="M7245 9829 c-106 -36 -176 -74 -254 -139 -82 -68 -161 -170 -161
-208 0 -67 -79 -117 -208 -132 -94 -11 -215 -55 -301 -110 -144 -93 -287 -282
-311 -412 -8 -40 -19 -61 -50 -91 -31 -31 -41 -51 -50 -96 -6 -31 -15 -74 -20
-96 -5 -22 -21 -159 -34 -305 -39 -422 -40 -424 -26 -464 12 -36 11 -38 -30
-82 -52 -57 -87 -131 -107 -232 -30 -142 -1 -194 127 -237 44 -15 84 -34 89
-43 4 -10 11 -39 15 -66 7 -59 50 -141 88 -167 15 -11 43 -23 62 -26 29 -5 35
-10 40 -39 10 -50 47 -74 116 -74 55 0 58 -2 70 -30 7 -17 29 -44 50 -60 35
-28 46 -30 206 -46 97 -9 172 -21 176 -28 4 -6 8 -20 8 -32 0 -12 16 -42 35
-67 19 -25 35 -54 35 -64 0 -11 14 -41 31 -67 l30 -48 -45 -102 c-92 -209
-106 -289 -156 -882 -22 -264 -40 -488 -40 -497 0 -25 -21 -21 -124 23 -117
49 -248 88 -330 96 l-63 7 -5 61 c-7 84 -36 145 -98 204 l-51 48 205 163 c113
89 215 174 226 188 33 42 26 80 -21 125 -42 40 -44 40 -105 17 -12 -4 -126
-98 -253 -208 -252 -218 -232 -207 -317 -177 l-32 11 165 205 c90 113 171 217
179 232 24 47 18 103 -17 142 -35 41 -61 51 -87 37 -11 -6 -171 -208 -356
-449 -196 -255 -353 -451 -376 -468 -38 -28 -70 -84 -70 -122 0 -38 33 -113
58 -132 l25 -20 -27 -29 c-27 -28 -28 -33 -28 -138 -1 -135 14 -185 68 -240
53 -53 104 -79 174 -88 30 -4 71 -13 92 -21 29 -10 66 -10 175 -2 144 10 271
5 303 -12 10 -6 162 -35 336 -65 175 -31 319 -57 320 -58 1 -1 6 -120 11 -265
l9 -262 33 -34 33 -34 -23 -96 -23 -95 -350 -86 c-193 -48 -358 -87 -366 -87
-8 -1 -49 15 -90 34 -252 118 -498 175 -790 185 -162 5 -166 5 -230 -21 -64
-26 -64 -26 -84 -7 -19 20 -19 20 8 55 15 20 23 36 19 36 -4 0 -8 46 -8 103 0
84 -4 109 -21 141 l-21 40 44 56 c25 32 56 90 73 136 16 43 44 117 64 164 45
109 80 277 73 349 -3 29 -17 76 -31 105 -22 45 -24 57 -16 101 21 111 21 117
11 111 -13 -9 -23 27 -15 58 9 37 -3 90 -28 122 -15 18 -21 38 -19 61 1 20 -5
47 -17 66 -10 18 -21 50 -25 71 -3 21 -13 46 -21 55 -8 9 -19 35 -25 58 -14
51 -66 99 -118 109 -21 4 -51 17 -66 30 -24 20 -40 24 -97 24 -38 0 -87 7
-111 16 -24 9 -66 18 -94 19 -129 5 -257 18 -325 32 l-75 15 -83 -31 c-58 -21
-98 -43 -132 -74 -44 -40 -55 -45 -111 -50 -68 -6 -106 -27 -127 -70 -7 -15
-26 -34 -41 -42 -41 -20 -78 -68 -98 -125 -14 -40 -24 -52 -56 -66 -56 -25
-137 -109 -184 -189 -81 -137 -114 -292 -95 -443 17 -138 37 -190 93 -246 l50
-49 -30 -31 c-16 -17 -33 -44 -36 -61 -4 -16 -14 -44 -22 -61 -22 -42 -14 -65
58 -175 76 -117 244 -286 354 -358 67 -44 85 -51 114 -47 42 6 118 -41 157
-99 23 -35 24 -39 9 -48 -9 -5 -34 -47 -56 -93 -34 -75 -41 -84 -61 -80 -13 3
-114 17 -225 32 l-202 26 -193 -27 c-840 -117 -945 -134 -1174 -190 -337 -84
-896 -255 -992 -304 -75 -38 -98 -97 -68 -175 31 -81 10 -84 539 89 468 153
475 155 887 244 228 49 469 95 535 102 136 15 689 19 828 6 l87 -9 0 -33 c0
-38 33 -72 122 -125 52 -31 90 -78 133 -163 24 -49 76 -94 141 -123 28 -12
100 -56 160 -97 60 -41 136 -89 169 -106 33 -17 72 -40 86 -52 44 -35 354 -52
884 -46 242 2 447 7 455 11 13 5 27 -30 75 -185 58 -184 62 -193 101 -225 35
-29 49 -34 92 -34 39 0 57 6 81 25 28 24 44 27 255 47 124 12 229 19 232 15
12 -12 -37 -125 -86 -199 -148 -225 -634 -576 -1069 -773 -109 -49 -140 -67
-158 -94 -30 -45 -31 -118 -2 -155 38 -49 77 -39 324 82 121 60 257 132 302
160 266 167 552 405 753 626 l105 116 13 -48 c7 -26 10 -61 7 -79 -3 -17 1
-51 10 -75 l16 -43 -98 -94 c-181 -173 -415 -361 -643 -517 -63 -43 -118 -83
-123 -89 -4 -5 -5 -20 -2 -32 3 -12 0 -23 -8 -26 -11 -4 85 -14 183 -20 31 -2
67 22 331 220 166 125 321 249 352 283 68 73 128 177 132 228 1 20 10 57 19
81 19 50 21 111 5 161 -6 19 -12 78 -12 132 -2 83 -5 101 -25 127 l-23 31 25
33 c20 25 23 36 14 45 -6 6 -10 13 -7 15 4 4 467 167 473 167 2 0 6 -39 9 -88
6 -107 45 -233 83 -273 24 -25 35 -29 82 -29 100 0 135 69 97 194 -8 27 -15
70 -15 95 0 51 -25 160 -41 175 -16 17 -10 36 13 36 43 0 107 40 135 86 51 81
483 370 710 475 224 104 450 178 683 225 164 33 186 40 230 80 l38 34 14 -77
c8 -43 13 -79 13 -80 -1 -2 -67 -21 -146 -43 -293 -80 -578 -187 -859 -322
-212 -101 -602 -323 -646 -367 -76 -76 -47 -201 51 -215 43 -7 47 -5 134 58
176 125 484 292 742 401 168 71 441 163 624 211 77 20 145 41 152 46 14 11 16
5 36 -118 11 -66 11 -87 1 -118 -7 -20 -10 -44 -7 -54 25 -72 154 -120 197
-73 32 36 37 79 26 263 -8 143 -15 191 -34 245 -13 38 -26 95 -30 128 -16 170
-116 616 -200 889 -29 93 -45 166 -48 216 -4 60 -13 94 -46 170 -23 52 -53
145 -66 205 -20 87 -60 193 -190 504 -135 319 -166 403 -166 441 0 62 -18 120
-93 297 -60 140 -114 235 -677 1203 -48 82 -136 170 -209 208 -69 37 -158 64
-166 51 -4 -5 -15 -9 -26 -9 -11 0 -61 -27 -111 -61 l-90 -61 -74 73 c-57 56
-74 80 -74 101 0 16 38 104 84 196 46 92 89 192 96 222 7 30 25 76 41 101 58
93 107 421 96 649 -11 215 -55 430 -108 531 -17 31 -50 75 -73 98 l-44 43 45
46 c66 70 113 175 125 281 18 158 -2 253 -71 340 -51 64 -186 121 -284 121
-18 0 -72 -14 -122 -31z m-862 -1259 c221 -42 268 -59 365 -132 90 -67 179
-206 203 -316 5 -28 18 -57 28 -66 9 -8 62 -26 116 -39 83 -20 101 -28 103
-45 4 -24 -38 -58 -111 -92 -61 -29 -90 -69 -90 -127 0 -33 6 -50 26 -71 18
-18 27 -39 27 -59 0 -24 9 -38 38 -62 35 -27 42 -41 70 -138 17 -59 37 -132
43 -162 8 -39 23 -66 50 -95 33 -36 149 -224 149 -242 0 -3 -82 -92 -182 -196
l-182 -190 -56 112 -55 112 92 86 c94 90 113 119 113 176 0 36 -55 110 -91
121 -27 9 -101 -40 -186 -123 -79 -78 -162 -125 -258 -147 l-68 -16 -38 43
c-28 32 -35 47 -28 60 14 26 11 43 -13 74 -14 17 -21 38 -19 57 2 22 -6 37
-38 67 -57 55 -88 59 -156 20 -63 -36 -60 -37 -126 41 -39 47 -40 48 -23 74
24 37 8 64 -73 121 -37 26 -72 51 -77 55 -4 4 16 40 46 81 86 114 95 143 60
189 -18 23 -18 30 1 214 11 105 21 192 23 194 2 2 80 -11 174 -29 149 -29 176
-31 211 -21 53 16 66 49 44 107 -9 23 -23 48 -33 57 -11 10 -78 24 -190 40
-96 14 -175 27 -177 29 -7 7 39 264 49 270 16 11 12 11 239 -32z m1681 -1856
c97 -122 176 -230 176 -241 0 -11 60 -116 133 -234 124 -199 139 -230 224
-444 51 -126 117 -310 148 -408 67 -213 140 -397 241 -607 l74 -155 170 -675
c94 -371 173 -681 175 -689 4 -9 -6 -7 -29 7 l-34 20 -125 -28 c-398 -90 -802
-253 -1143 -461 l-31 -19 13 50 c7 28 22 63 34 79 12 18 42 123 81 282 33 139
64 260 69 268 4 9 21 124 36 256 23 198 28 283 28 485 0 329 -24 545 -99 880
-62 275 -90 339 -178 416 -36 30 -47 35 -76 30 -50 -8 -82 -44 -88 -99 -4 -36
1 -61 25 -119 36 -87 75 -211 97 -304 21 -90 105 -743 105 -814 0 -31 -11
-142 -24 -246 -13 -104 -27 -216 -31 -249 -27 -251 -109 -590 -198 -815 -49
-126 -159 -284 -244 -351 -87 -69 -197 -135 -339 -204 -289 -141 -554 -221
-903 -274 -142 -22 -203 -46 -226 -90 -12 -23 -13 -24 -23 -5 -26 49 -83 242
-107 364 -56 287 -150 479 -304 623 -28 26 -49 47 -48 47 1 0 220 43 487 94
l485 94 37 -41 c30 -34 38 -53 43 -97 6 -52 60 -238 74 -252 3 -3 40 -8 81
-10 l74 -3 22 71 23 71 -25 114 c-13 63 -23 118 -21 123 5 14 122 -107 166
-173 23 -34 60 -101 83 -149 22 -48 43 -94 47 -102 20 -39 116 -4 158 59 29
43 29 90 -1 164 -52 126 -150 253 -265 343 l-55 43 3 58 c2 47 -28 265 -55
395 -4 21 -1 28 16 33 26 8 66 70 92 144 19 51 21 85 23 351 2 180 9 352 19
440 18 167 64 431 77 444 5 6 9 18 9 29 0 10 21 51 46 90 113 175 268 351 388
441 145 109 161 166 65 236 -70 50 -92 44 -211 -58 -174 -150 -279 -271 -441
-510 -82 -120 -107 -184 -107 -268 0 -28 -6 -67 -14 -85 -16 -38 -36 -215 -45
-394 -4 -66 -12 -131 -19 -145 -7 -14 -18 -88 -25 -165 l-13 -140 -12 130
c-25 266 -12 520 33 639 37 98 31 152 -21 207 l-25 27 75 413 c88 479 98 523
133 592 48 95 75 126 237 270 262 234 234 212 255 193 18 -17 41 -21 41 -8 0
7 109 122 151 159 38 33 143 92 150 85 3 -4 86 -107 183 -228z m-4127 -1345
c30 -29 113 -38 132 -15 20 24 80 20 109 -6 19 -18 40 -24 105 -30 155 -13
265 -49 286 -94 8 -19 7 -22 -4 -17 -10 3 -15 -1 -15 -15 0 -40 31 -92 69
-118 36 -23 38 -27 28 -53 -8 -22 -16 -27 -45 -27 -48 0 -86 -43 -76 -88 3
-17 15 -40 25 -51 18 -21 18 -21 -89 -39 -321 -54 -706 -185 -978 -332 -63
-34 -84 -51 -99 -81 -18 -35 -19 -36 -23 -14 -2 13 2 34 8 46 15 29 2 55 -45
90 -31 24 -36 25 -61 13 -15 -7 -36 -25 -47 -40 -18 -24 -19 -32 -8 -68 14
-47 48 -67 83 -49 31 17 30 7 -7 -36 l-33 -40 -48 99 c-47 96 -49 104 -52 200
-3 86 -1 109 18 156 26 65 46 90 120 140 86 59 175 160 168 193 -6 32 14 54
60 65 36 10 52 21 70 47 20 31 27 35 67 35 43 0 46 2 92 64 46 61 51 65 103
74 30 5 57 10 59 11 3 0 15 -9 28 -20z m1617 -137 c4 -7 -66 -67 -112 -95 -7
-5 3 16 24 47 27 41 43 56 60 56 12 0 25 -4 28 -8z m278 -129 c50 -52 67 -77
72 -106 4 -21 21 -58 39 -81 29 -40 48 -51 222 -127 105 -46 226 -100 269
-121 44 -21 101 -41 128 -44 l48 -7 0 -94 c0 -94 0 -95 -22 -90 -13 3 -140 28
-283 56 -143 28 -275 59 -292 68 -31 15 -37 15 -105 -5 -63 -19 -109 -22 -343
-27 l-270 -6 -40 35 -40 36 32 0 c42 0 53 21 67 134 10 85 12 90 39 99 23 7
32 4 61 -21 19 -16 51 -35 72 -42 46 -16 149 -8 191 13 40 21 69 81 55 112
-10 21 -8 23 21 29 38 8 97 62 97 89 0 33 -72 95 -119 103 l-42 7 33 28 c18
15 35 28 38 29 3 0 35 -30 72 -67z m-222 -118 l23 -25 -48 0 -48 0 23 25 c13
14 24 25 25 25 1 0 12 -11 25 -25z m-894 -87 c-12 -40 -17 -50 -22 -46 -5 6
13 58 20 58 3 0 4 -6 2 -12z m18 -280 c-2 -13 -11 -75 -20 -138 -14 -101 -25
-138 -91 -300 -44 -109 -96 -216 -124 -259 -27 -41 -49 -84 -49 -97 0 -12 9
-44 20 -70 17 -38 20 -66 19 -146 l-2 -99 -26 5 c-14 3 -102 15 -196 27 l-170
22 -98 -37 c-55 -21 -100 -36 -102 -34 -1 2 -10 17 -18 34 -9 17 -29 36 -44
41 -235 86 -279 117 -480 333 -85 93 -154 172 -153 177 4 11 120 60 187 77 30
8 65 23 77 34 46 42 311 181 468 246 188 78 439 149 635 180 112 18 143 23
159 25 6 0 10 -9 8 -21z m-222 -1276 c76 -82 118 -174 133 -294 8 -66 40 -109
100 -132 28 -10 75 -31 105 -47 83 -41 114 -47 405 -73 l268 -24 37 -39 c24
-24 60 -85 98 -168 l61 -130 -57 -6 c-136 -15 -598 -21 -815 -10 -319 15 -330
17 -351 52 -22 38 -94 86 -164 111 -31 11 -66 28 -77 38 -11 10 -35 24 -53 32
-33 13 -31 14 145 57 151 37 181 47 200 70 13 14 23 34 23 44 0 27 -38 95 -59
107 -28 15 -86 12 -128 -5 -37 -16 -158 -21 -167 -7 -3 5 58 24 136 42 77 19
153 42 169 52 48 29 35 66 -36 100 -25 12 -64 13 -225 7 -107 -4 -229 -7 -270
-7 -75 0 -75 0 -35 13 22 7 110 15 195 19 286 14 331 20 357 50 30 35 29 74
-5 113 l-27 31 -155 11 c-85 6 -184 14 -220 18 -108 11 -29 20 181 22 l186 1
45 -48z m655 -132 c122 -11 232 -20 245 -20 l23 0 -24 -13 c-36 -18 -62 -59
-65 -101 -2 -20 -6 -39 -8 -42 -3 -2 -101 4 -217 16 -116 11 -220 20 -230 20
-16 0 -19 11 -24 78 -2 42 -3 80 0 85 2 4 21 5 41 2 20 -3 137 -14 259 -25z"/>
<path d="M6152 7975 c-26 -21 -32 -34 -32 -65 0 -69 57 -111 131 -95 23 5 35
17 51 50 35 72 6 120 -80 132 -31 4 -44 0 -70 -22z"/>
<path d="M4256 5244 c-5 -20 -1 -33 15 -50 40 -43 117 -24 133 32 6 18 0 22
-58 32 -84 16 -83 16 -90 -14z"/>
<path d="M3823 5248 c-82 -11 -87 -19 -53 -75 29 -48 57 -59 94 -39 47 26 75
67 69 99 -6 30 -2 29 -110 15z"/>
<path d="M4082 5228 c-57 -46 -62 -65 -23 -100 21 -19 42 -28 65 -28 46 0 98
37 108 78 22 83 -71 113 -150 50z"/>
<path d="M3598 5134 c-32 -25 -58 -49 -58 -53 0 -15 65 -80 86 -86 39 -10 114
71 114 124 0 22 -44 61 -69 61 -9 0 -42 -21 -73 -46z"/>
<path d="M4386 5105 c-32 -30 -33 -55 -3 -83 23 -22 71 -29 93 -14 15 9 34 47
34 66 0 16 -59 56 -82 56 -8 0 -27 -11 -42 -25z"/>
<path d="M3793 5063 c-26 -5 -37 -18 -51 -60 -10 -29 -8 -34 14 -52 37 -29 60
-34 98 -21 31 10 56 43 56 74 0 34 -69 69 -117 59z"/>
<path d="M4102 4964 c-12 -8 -27 -33 -34 -56 -11 -39 -11 -42 16 -64 15 -13
33 -24 40 -24 48 0 86 97 50 126 -40 31 -50 33 -72 18z"/>
<path d="M4308 4964 c-48 -26 -60 -71 -33 -123 21 -42 59 -48 107 -16 21 14
42 32 45 40 10 28 -8 65 -44 90 -44 29 -40 29 -75 9z"/>
<path d="M3458 4921 c-26 -21 -53 -77 -40 -85 4 -2 42 -13 85 -24 l77 -20 15
21 c22 32 18 60 -13 91 -39 37 -89 44 -124 17z"/>
<path d="M3774 4829 c-24 -9 -54 -51 -54 -77 0 -55 113 -80 151 -33 23 28 25
74 4 91 -21 17 -77 28 -101 19z"/>
<path d="M3211 4745 c-45 -52 -38 -111 18 -140 67 -34 126 -5 138 68 5 32 1
41 -30 72 -47 47 -84 47 -126 0z"/>
<path d="M3443 4678 c-35 -39 -37 -63 -7 -87 36 -29 89 -28 108 2 32 51 30 65
-13 87 -51 25 -63 25 -88 -2z"/>
<path d="M3651 6431 c-11 -7 -15 -34 -15 -112 -1 -86 2 -103 17 -113 12 -8 22
-8 35 0 13 9 18 28 20 87 4 118 -15 165 -57 138z"/>
<path d="M3158 6189 c-24 -13 -23 -46 2 -92 11 -20 20 -49 20 -64 0 -21 9 -34
34 -50 l34 -22 21 23 c11 12 21 29 21 38 0 36 -33 106 -67 141 -41 41 -41 41
-65 26z"/>
<path d="M3400 2153 c-111 -19 -584 -130 -660 -155 -290 -96 -602 -251 -894
-447 -241 -162 -338 -277 -396 -470 -21 -69 -22 -79 -10 -160 16 -109 44 -162
129 -244 72 -70 128 -102 236 -137 61 -20 97 -24 269 -28 463 -10 861 84 1307
309 309 156 663 422 765 576 84 126 112 316 65 435 -56 143 -249 270 -479 314
-68 13 -272 17 -332 7z m375 -199 c50 -6 135 -45 186 -85 60 -47 82 -107 76
-204 -3 -44 -10 -90 -14 -103 -15 -39 -154 -196 -233 -261 -174 -146 -476
-324 -690 -409 -325 -128 -594 -182 -920 -182 -360 0 -462 32 -551 169 -35 54
-35 67 -4 155 30 86 99 161 280 304 94 73 151 111 205 133 47 20 116 62 186
115 62 46 115 84 119 84 4 0 62 27 129 59 306 149 582 218 921 230 172 7 220
6 310 -5z"/>
<path d="M3320 1908 c-12 -13 -51 -58 -87 -100 -65 -77 -66 -77 -107 -72 -224
26 -283 22 -442 -31 -178 -59 -319 -150 -454 -291 -120 -125 -190 -234 -192
-297 -1 -38 37 -73 90 -83 23 -4 52 -20 77 -44 60 -57 172 -75 280 -46 104 28
292 111 364 160 92 63 210 180 276 274 28 39 57 71 65 72 8 0 29 -9 45 -20 47
-32 151 -60 220 -60 59 0 65 2 85 30 45 63 33 223 -24 326 -13 23 -26 58 -30
78 -8 44 -50 94 -93 112 -43 18 -49 18 -73 -8z m37 -283 c8 -21 -1 -28 -27
-20 -17 5 -19 10 -9 21 15 18 28 18 36 -1z m-427 -100 c0 -14 5 -25 11 -25 7
0 9 10 5 25 -6 23 -4 25 29 25 19 0 35 -2 35 -5 0 -14 -165 -213 -197 -237
l-36 -28 -27 36 c-31 42 -103 93 -143 101 -48 10 -40 23 36 58 88 41 197 73
250 74 33 1 37 -2 37 -24z m-447 -232 c6 -9 1 -13 -13 -13 -11 0 -39 -9 -60
-20 -36 -18 -40 -24 -40 -58 0 -21 7 -48 16 -60 l15 -22 -91 0 -91 0 22 33
c12 17 68 77 123 132 l101 100 5 -40 c3 -22 9 -46 13 -52z m97 -70 c24 -31 22
-43 -9 -55 -21 -7 -23 -6 -18 13 3 12 2 32 -3 45 -13 32 3 31 30 -3z"/>
</g>
</svg>
