<?xml version="1.0" standalone="no"?>
<!DOCTYPE svg PUBLIC "-//W3C//DTD SVG 20010904//EN"
 "http://www.w3.org/TR/2001/REC-SVG-20010904/DTD/svg10.dtd">
<svg version="1.0" xmlns="http://www.w3.org/2000/svg"
 width="1024.000000pt" height="1024.000000pt" viewBox="0 0 1024.000000 1024.000000"
 preserveAspectRatio="xMidYMid meet">
<metadata>
Created by potrace 1.10, written by Peter Selinger 2001-2011
</metadata>
<g transform="translate(0.000000,1024.000000) scale(0.100000,-0.100000)"
fill="#000000" stroke="none">
<path d="M4780 9253 c-14 -3 -115 -77 -225 -165 -200 -159 -201 -160 -503
-501 -167 -188 -319 -359 -339 -380 -19 -21 -168 -225 -330 -455 -163 -229
-400 -552 -526 -716 -197 -257 -277 -376 -277 -415 0 -4 55 -14 121 -20 l121
-12 30 28 c16 15 149 202 295 415 243 353 268 386 283 373 9 -8 28 -15 42 -15
15 0 295 29 624 65 328 36 599 63 602 60 3 -3 -13 -24 -35 -48 -50 -52 -283
-417 -283 -443 0 -11 -60 -200 -134 -422 l-135 -402 -16 -219 c-17 -217 -17
-220 4 -303 26 -103 112 -280 182 -373 80 -106 221 -236 314 -290 15 -9 16
-19 9 -80 -6 -47 -5 -99 3 -155 19 -140 15 -373 -17 -852 -33 -502 -42 -625
-70 -903 -30 -292 -49 -596 -56 -855 -5 -205 -55 -910 -69 -980 -10 -47 14
-173 45 -237 59 -120 194 -212 425 -288 182 -61 201 -62 1218 -86 515 -13 939
-21 941 -18 3 3 1 21 -4 40 -5 19 -11 62 -13 97 -3 35 -6 65 -9 67 -2 3 -368
16 -814 29 -445 14 -850 27 -901 30 -173 10 -386 67 -543 146 l-55 28 -21 167
-20 168 77 1201 c84 1302 105 1596 118 1696 14 100 16 276 7 489 l-9 194 24
-6 c241 -55 388 -58 600 -11 24 5 26 3 43 -63 10 -37 21 -77 25 -88 8 -18 286
-355 670 -809 147 -175 204 -253 246 -336 91 -180 132 -444 87 -552 -11 -24
-26 -86 -35 -139 -19 -112 -56 -233 -101 -333 -28 -61 -416 -682 -435 -696
-36 -26 -162 -204 -204 -288 -69 -139 -65 -193 16 -242 60 -37 112 -16 133 53
4 12 31 49 60 83 70 80 216 314 210 336 -2 10 14 43 36 74 164 234 355 528
394 605 54 109 115 288 141 415 13 67 18 138 18 285 l0 195 -65 153 -65 152
-393 497 c-355 449 -400 511 -472 641 l-79 144 112 71 c214 135 308 262 353
476 26 122 26 436 0 575 -27 145 -81 317 -132 421 -68 136 -153 242 -340 419
-93 88 -227 216 -299 284 -149 142 -239 213 -344 269 l-74 40 74 6 c197 17
1180 68 1294 67 146 0 183 8 238 51 21 16 42 28 47 26 5 -2 37 -26 72 -55 35
-28 155 -127 268 -218 113 -92 297 -251 409 -353 113 -103 208 -186 213 -184
14 4 188 144 188 151 0 6 -212 191 -1784 1549 -324 279 -600 510 -639 534 -84
50 -216 101 -317 121 -86 18 -213 28 -250 20z m180 -248 c80 -8 199 -47 264
-87 97 -59 606 -497 899 -773 l298 -280 -53 -8 c-50 -7 -2811 -236 -2815 -233
-4 3 543 716 595 776 159 183 355 369 572 543 89 72 98 76 135 72 22 -2 69 -7
105 -10z m201 -1922 c173 -137 331 -261 350 -277 111 -92 284 -329 358 -486
37 -81 97 -313 85 -332 -3 -4 -12 -8 -21 -8 -8 0 -78 -25 -155 -55 -230 -91
-235 -91 -743 -116 -386 -19 -467 -20 -570 -9 -184 18 -169 8 -160 104 15 178
89 490 176 741 84 246 164 413 265 558 49 70 91 127 94 127 3 0 147 -111 321
-247z m785 -1476 c-21 -115 -23 -120 -76 -188 -100 -128 -237 -220 -419 -284
l-105 -36 -190 11 c-181 11 -196 13 -283 46 -118 45 -278 151 -364 240 -56 60
-159 192 -159 206 0 3 50 -5 110 -18 234 -48 556 -56 800 -19 209 32 557 106
630 133 41 16 76 28 77 28 1 -1 -9 -54 -21 -119z"/>
</g>
</svg>
