<?xml version="1.0" standalone="no"?>
<!DOCTYPE svg PUBLIC "-//W3C//DTD SVG 20010904//EN"
 "http://www.w3.org/TR/2001/REC-SVG-20010904/DTD/svg10.dtd">
<svg version="1.0" xmlns="http://www.w3.org/2000/svg"
 width="1024.000000pt" height="1024.000000pt" viewBox="0 0 1024.000000 1024.000000"
 preserveAspectRatio="xMidYMid meet">
<metadata>
Created by potrace 1.10, written by Peter Selinger 2001-2011
</metadata>
<g transform="translate(0.000000,1024.000000) scale(0.100000,-0.100000)"
fill="#000000" stroke="none">
<path d="M7190 9706 c-141 -50 -236 -111 -332 -212 -76 -79 -99 -115 -93 -144
11 -50 -91 -120 -176 -120 -56 0 -166 -33 -265 -81 -169 -80 -361 -309 -381
-455 -5 -36 -14 -53 -41 -78 -42 -38 -62 -82 -62 -136 0 -23 -6 -53 -14 -68
-9 -18 -25 -152 -46 -379 -27 -310 -29 -354 -17 -384 14 -33 13 -35 -29 -82
-77 -86 -136 -274 -113 -359 15 -59 46 -84 139 -116 l85 -30 12 -65 c13 -72
33 -119 67 -155 25 -28 68 -52 93 -52 13 0 23 -13 33 -42 18 -51 46 -68 117
-68 51 0 53 -1 73 -39 35 -70 49 -75 241 -95 96 -10 177 -20 181 -22 5 -3 8
-18 8 -33 0 -17 13 -43 33 -67 19 -21 37 -52 41 -69 4 -16 18 -47 32 -67 13
-21 24 -44 24 -51 0 -8 -16 -48 -34 -89 -95 -203 -107 -274 -161 -887 -25
-283 -47 -516 -49 -519 -7 -6 -66 14 -151 52 -95 41 -215 74 -303 83 -50 5
-62 9 -57 21 9 25 -15 135 -41 179 -13 23 -44 59 -68 80 l-43 38 204 162 c200
158 233 189 246 226 10 27 -18 78 -56 104 -53 36 -82 20 -289 -159 -100 -88
-206 -180 -235 -205 l-51 -44 -56 16 c-38 11 -54 20 -49 28 9 15 255 328 299
380 17 21 37 57 44 81 10 38 10 49 -5 80 -22 47 -68 80 -99 72 -13 -3 -43 -32
-67 -63 -251 -335 -632 -818 -676 -858 -51 -46 -56 -55 -60 -102 -7 -63 9
-113 48 -151 l29 -28 -30 -29 c-30 -28 -30 -30 -30 -136 0 -70 5 -121 15 -150
31 -86 130 -160 232 -173 29 -4 70 -13 91 -20 32 -11 63 -12 158 -4 133 11
286 6 324 -11 14 -6 164 -36 334 -66 170 -30 311 -57 315 -60 3 -4 10 -122 14
-263 l8 -257 30 -30 c16 -18 29 -42 29 -55 0 -24 -35 -168 -42 -175 -2 -1
-163 -42 -359 -91 l-357 -88 -83 38 c-277 127 -548 186 -842 186 -103 -1 -153
-5 -182 -16 -55 -22 -76 -22 -88 -2 -9 13 -7 23 8 45 30 43 28 198 -4 270
l-23 53 31 35 c35 41 65 96 91 169 10 28 34 90 54 138 46 108 76 241 76 334 0
59 -5 81 -30 130 -16 32 -25 61 -21 64 14 9 21 148 8 153 -8 2 -11 25 -9 68 3
56 0 70 -22 102 -17 24 -26 52 -26 75 0 21 -7 48 -17 61 -9 13 -17 39 -19 59
-2 19 -12 44 -22 56 -11 12 -23 39 -27 60 -9 52 -59 102 -111 111 -21 4 -48
16 -59 26 -32 29 -76 41 -125 34 -32 -4 -62 0 -105 15 -33 11 -71 18 -85 16
-14 -3 -70 1 -125 8 -55 7 -105 11 -112 9 -6 -3 -45 3 -86 12 l-74 16 -89 -31
c-66 -23 -99 -41 -130 -71 -36 -35 -49 -41 -110 -50 -77 -11 -107 -27 -128
-67 -8 -16 -32 -40 -54 -55 -43 -28 -73 -70 -91 -129 -10 -29 -31 -51 -100
-102 -147 -110 -217 -248 -228 -452 -10 -175 24 -311 94 -381 l44 -44 -30 -35
c-17 -19 -33 -47 -37 -62 -3 -15 -12 -41 -20 -58 -19 -43 -7 -76 68 -186 84
-124 230 -269 346 -346 82 -53 97 -60 119 -51 21 8 34 4 75 -22 28 -18 61 -50
76 -71 25 -38 25 -39 5 -53 -10 -7 -27 -33 -37 -57 -10 -24 -25 -60 -34 -81
-12 -30 -20 -37 -36 -33 -12 2 -115 16 -231 31 l-210 27 -565 -80 c-477 -68
-597 -89 -770 -132 -299 -74 -494 -131 -769 -222 -204 -68 -251 -87 -282 -116
-50 -44 -58 -84 -31 -146 37 -82 13 -86 538 88 l469 155 420 90 c231 49 470
95 530 102 126 15 717 19 838 6 76 -9 77 -9 77 -37 0 -40 32 -74 110 -120 70
-41 112 -88 143 -160 21 -50 74 -99 137 -128 30 -14 102 -58 160 -97 58 -40
132 -87 165 -104 33 -18 75 -43 93 -56 20 -14 53 -26 85 -29 224 -25 851 -34
1127 -16 79 5 146 7 148 5 3 -2 31 -89 63 -192 54 -174 61 -190 96 -220 31
-26 47 -32 86 -33 49 0 102 20 109 41 4 12 395 52 450 47 l27 -3 -26 -65 c-49
-123 -108 -202 -237 -318 -248 -225 -512 -400 -824 -548 -219 -104 -224 -107
-245 -148 -24 -45 -16 -117 15 -148 36 -36 88 -21 341 104 249 123 421 231
610 383 160 129 320 278 427 398 109 123 109 123 119 -12 4 -47 11 -94 17
-104 9 -15 -3 -31 -75 -101 -187 -181 -404 -356 -644 -521 -109 -75 -132 -95
-133 -116 0 -13 -3 -30 -7 -36 -5 -8 16 -13 70 -17 43 -4 95 -9 115 -11 25 -3
40 -1 45 8 8 14 394 309 479 367 145 98 288 279 282 357 -1 15 4 38 10 49 25
46 33 114 21 173 -7 31 -13 97 -13 146 -1 75 -5 97 -25 132 l-24 41 22 28 c12
15 19 35 16 44 -5 14 31 30 217 95 123 43 229 80 236 82 8 4 12 -7 12 -33 0
-63 19 -164 45 -239 30 -86 61 -115 123 -115 100 0 138 60 107 166 -10 32 -21
100 -25 151 -5 61 -15 107 -29 135 -23 46 -17 58 29 58 38 0 88 35 117 83 20
31 73 75 211 172 101 72 230 157 286 189 253 147 551 262 830 321 248 53 248
53 288 92 27 26 39 32 42 22 7 -23 26 -142 22 -146 -1 -2 -68 -21 -147 -43
-431 -118 -811 -279 -1249 -529 -219 -126 -261 -155 -286 -203 -19 -37 -18
-64 7 -114 18 -38 25 -44 71 -54 l51 -10 211 134 c241 153 310 191 491 274
248 113 463 190 745 268 90 25 167 47 171 49 12 8 40 -205 29 -225 -18 -33
-12 -85 13 -107 33 -31 82 -53 117 -53 83 0 95 38 86 264 -6 150 -10 182 -36
261 -16 50 -35 142 -43 205 -10 71 -56 272 -122 530 -72 279 -109 441 -112
495 -5 64 -14 97 -45 164 -24 52 -49 131 -64 203 -22 101 -51 178 -191 511
-154 364 -167 398 -173 473 -6 68 -18 105 -75 240 -54 130 -128 264 -398 729
-285 488 -341 578 -393 631 -80 80 -176 129 -255 129 -52 0 -62 -4 -150 -62
l-94 -63 -77 77 c-55 54 -78 85 -78 102 0 13 38 98 85 189 52 100 91 190 100
229 8 35 26 79 39 96 52 71 87 261 93 517 9 363 -51 630 -171 758 -42 45 -45
51 -29 63 38 31 103 133 122 191 29 89 42 236 27 302 -39 167 -156 263 -331
272 -55 3 -84 -1 -135 -20z m-874 -1266 c255 -49 304 -70 414 -180 79 -79 139
-180 159 -268 14 -66 32 -79 144 -104 55 -13 102 -28 104 -36 8 -20 -36 -61
-94 -89 -75 -36 -113 -82 -113 -137 0 -32 6 -50 25 -70 15 -16 25 -39 25 -57
0 -28 8 -39 62 -84 23 -19 32 -48 100 -310 6 -24 25 -54 47 -75 21 -19 63 -82
95 -139 l58 -103 -188 -190 -189 -189 -53 113 -54 113 91 85 c138 131 151 181
66 259 -71 65 -87 59 -225 -79 -92 -92 -152 -129 -259 -156 l-63 -16 -39 38
c-35 34 -38 41 -32 76 5 32 2 43 -18 64 -17 18 -23 34 -20 60 2 28 -3 40 -29
64 -18 16 -49 35 -69 41 -34 10 -42 8 -93 -20 -30 -17 -57 -31 -60 -31 -3 0
-28 28 -57 61 -47 56 -50 63 -36 79 20 22 19 56 -3 78 -10 10 -46 37 -80 61
-34 24 -62 48 -62 54 0 5 22 37 49 71 26 34 53 71 60 83 16 31 14 84 -6 105
-15 17 -15 31 5 209 11 105 23 193 25 195 2 3 83 -10 178 -27 165 -30 176 -31
211 -16 25 11 39 24 44 42 8 32 -21 112 -46 125 -10 5 -93 21 -186 35 -92 14
-170 28 -172 30 -3 3 4 61 16 131 20 118 34 160 52 149 4 -3 102 -23 216 -45z
m1688 -1865 c91 -115 166 -217 166 -226 0 -9 61 -113 135 -232 120 -194 143
-238 221 -429 47 -117 103 -271 125 -343 68 -230 185 -527 291 -738 45 -91 61
-146 223 -787 96 -379 175 -692 175 -695 0 -4 -14 2 -31 13 -31 19 -31 19
-139 -3 -364 -78 -730 -219 -1078 -416 -58 -33 -106 -58 -108 -57 -8 9 19 93
40 126 16 25 43 115 80 272 31 129 61 246 66 258 6 13 24 139 40 280 51 438
37 826 -45 1222 -83 404 -96 440 -193 533 -59 55 -60 56 -96 45 -21 -7 -46
-24 -57 -40 -36 -51 -34 -84 11 -198 72 -180 103 -330 155 -732 l47 -368 -31
-237 c-17 -131 -36 -274 -42 -318 -26 -200 -82 -442 -147 -635 -61 -177 -70
-197 -146 -309 -83 -123 -163 -192 -338 -291 -307 -174 -636 -286 -1016 -345
-177 -28 -206 -38 -245 -84 l-24 -29 -27 67 c-37 94 -61 182 -92 335 -55 274
-150 464 -302 603 -32 30 -41 44 -31 47 8 3 221 44 474 91 253 48 467 88 475
91 10 2 30 -14 53 -45 29 -38 37 -57 38 -92 0 -24 15 -91 33 -149 l34 -105 80
-3 80 -3 21 70 21 69 -20 109 c-12 59 -23 117 -26 128 -3 11 32 -18 78 -66 84
-87 149 -187 193 -295 34 -84 44 -91 99 -70 25 10 59 33 77 53 29 33 31 41 27
94 -9 131 -170 362 -311 447 -26 16 -28 20 -26 82 1 36 -10 143 -26 237 l-28
173 30 28 c17 15 39 46 51 68 45 88 50 133 56 474 5 336 20 500 65 720 22 109
35 146 73 211 85 145 302 388 421 471 101 72 123 139 65 195 -48 45 -92 65
-120 54 -35 -13 -245 -199 -314 -277 -130 -148 -296 -382 -328 -463 -9 -25
-21 -81 -26 -125 -5 -45 -14 -103 -19 -131 -16 -78 -32 -219 -39 -355 -4 -69
-11 -132 -17 -140 -5 -8 -16 -91 -25 -185 l-16 -170 -10 175 c-17 317 -5 561
32 632 18 35 29 125 20 162 -3 14 -19 40 -34 58 l-28 33 83 450 c46 248 92
475 104 506 29 79 93 173 147 217 25 20 113 98 196 174 l151 136 24 -21 c13
-12 25 -17 27 -12 14 36 51 80 91 108 26 17 56 42 68 53 11 12 47 38 80 57 56
34 61 35 77 19 9 -9 91 -111 182 -227z m-4144 -1325 c0 -16 56 -40 94 -40 19
0 41 7 50 15 24 25 89 19 116 -10 20 -21 32 -25 84 -25 75 0 177 -21 239 -48
47 -21 72 -52 49 -60 -37 -12 35 -136 90 -154 8 -3 7 -14 -3 -36 -8 -19 -19
-30 -27 -27 -19 7 -78 -20 -90 -40 -12 -22 1 -80 22 -104 14 -16 8 -18 -90
-34 -316 -54 -661 -170 -949 -320 -82 -42 -104 -59 -121 -90 -19 -35 -22 -37
-27 -17 -3 12 -1 30 5 40 17 27 1 67 -39 95 -47 31 -54 31 -92 -1 -71 -59 -17
-177 62 -137 l29 14 -34 -45 c-18 -25 -36 -45 -39 -46 -13 0 -90 179 -100 235
-22 120 9 253 72 308 20 18 63 52 97 76 61 43 132 131 132 163 0 33 23 68 44
68 41 0 62 12 85 46 21 30 28 34 70 34 45 0 47 1 91 65 42 60 48 65 90 70 25
4 52 8 60 9 28 6 30 6 30 -4z m1628 -149 c-4 -11 -118 -104 -118 -96 0 3 15
28 33 55 26 40 37 50 60 50 16 0 27 -4 25 -9z m280 -134 c59 -59 72 -78 72
-104 0 -21 12 -46 38 -78 34 -43 52 -53 240 -135 111 -49 252 -103 312 -121
l110 -33 0 -97 0 -96 -297 59 c-176 36 -301 65 -305 73 -6 10 -25 8 -90 -10
-73 -20 -115 -24 -348 -29 l-265 -7 -44 36 -44 35 30 0 c40 0 56 21 64 84 21
147 20 144 45 150 17 5 36 -2 65 -23 22 -17 56 -35 76 -42 49 -16 154 -3 195
24 38 26 58 79 40 107 -9 15 -7 19 19 24 33 6 74 35 97 67 12 17 11 24 -9 55
-23 37 -85 73 -127 74 -21 0 -20 2 10 30 18 16 35 30 38 30 3 0 38 -33 78 -73z
m-218 -112 l23 -25 -46 0 -47 0 16 25 c9 14 19 25 23 25 4 0 18 -11 31 -25z
m-906 -109 c-3 -14 -10 -26 -15 -26 -4 0 -3 14 3 31 12 36 22 33 12 -5z m21
-273 c-3 -21 -12 -83 -19 -138 -11 -84 -25 -129 -85 -275 -62 -151 -91 -208
-171 -336 -13 -21 -13 -28 4 -71 26 -66 43 -212 26 -223 -9 -6 -9 -12 -1 -29
11 -20 10 -21 -11 -17 -13 3 -102 15 -198 27 l-176 21 -84 -29 c-47 -16 -93
-33 -102 -37 -13 -6 -21 1 -34 26 -9 18 -18 34 -19 36 -1 2 -39 16 -84 32
-144 51 -273 135 -352 232 -24 29 -87 98 -141 154 l-99 101 73 30 c40 17 93
36 118 43 25 6 77 33 115 58 165 108 422 227 651 302 179 58 446 117 582 129
9 1 11 -10 7 -36z m-214 -1260 c56 -64 107 -174 121 -259 5 -38 16 -81 24 -95
16 -33 70 -79 91 -79 8 0 29 -6 46 -14 18 -8 77 -28 132 -45 83 -26 141 -35
340 -53 l240 -22 41 -34 c33 -27 53 -60 103 -169 34 -74 60 -138 56 -141 -12
-12 -889 -15 -1040 -3 l-148 11 -40 46 c-36 41 -117 91 -177 109 -14 4 -32 14
-41 21 -9 8 -33 22 -54 33 l-38 18 174 43 c148 37 178 48 200 72 25 26 26 31
17 68 -6 24 -23 51 -41 66 -34 28 -71 29 -157 4 -31 -9 -64 -10 -105 -5 l-60
8 130 34 c165 43 195 54 209 76 14 22 1 44 -44 75 -28 19 -43 22 -89 18 -31
-3 -155 -8 -276 -11 -193 -4 -215 -3 -179 9 23 7 112 16 198 20 269 13 323 20
351 46 34 32 33 77 -2 118 l-28 32 -200 15 c-110 8 -211 16 -225 16 -20 1 -18
3 10 9 19 4 121 8 227 9 l191 1 43 -47z m614 -128 c99 -8 204 -17 232 -21 l53
-5 -35 -33 c-29 -28 -35 -40 -35 -75 0 -24 -5 -43 -12 -46 -7 -2 -114 6 -238
18 l-225 22 -3 83 -3 83 43 -5 c24 -3 124 -13 223 -21z"/>
<path d="M6082 7845 c-36 -30 -42 -67 -17 -114 17 -35 32 -41 96 -41 45 0 51
3 69 33 43 71 11 135 -72 144 -37 4 -49 1 -76 -22z"/>
<path d="M4049 5118 c-35 -16 -89 -70 -89 -88 0 -21 63 -60 98 -60 112 0 158
144 52 162 -14 2 -41 -4 -61 -14z"/>
<path d="M4190 5114 c-10 -26 -8 -31 15 -51 26 -23 78 -30 101 -15 13 8 34 46
34 60 0 5 -17 12 -37 15 -21 4 -53 9 -70 13 -29 6 -34 3 -43 -22z"/>
<path d="M3761 5119 c-41 -5 -76 -11 -79 -14 -7 -7 17 -61 39 -84 31 -33 69
-27 113 18 31 32 37 44 32 65 -3 14 -12 25 -19 25 -6 -1 -45 -5 -86 -10z"/>
<path d="M3538 5011 c-31 -25 -57 -54 -57 -63 -1 -9 13 -30 30 -47 41 -41 77
-41 117 0 60 62 58 110 -6 143 -26 13 -30 12 -84 -33z"/>
<path d="M4323 4978 c-35 -39 -37 -63 -7 -87 34 -26 78 -27 104 -1 31 31 26
67 -12 90 -42 26 -60 25 -85 -2z"/>
<path d="M3718 4929 c-23 -9 -48 -50 -48 -80 0 -23 46 -49 87 -49 52 0 83 26
83 70 0 47 -67 79 -122 59z"/>
<path d="M4037 4837 c-10 -7 -24 -30 -32 -52 -12 -37 -12 -42 8 -62 25 -28 74
-30 93 -5 7 9 14 33 14 53 0 28 -6 40 -30 57 -34 26 -32 25 -53 9z"/>
<path d="M4260 4843 c-24 -9 -52 -36 -61 -61 -13 -34 16 -99 46 -104 42 -8
125 48 125 85 0 12 -77 87 -88 86 -4 0 -14 -3 -22 -6z"/>
<path d="M3402 4800 c-12 -5 -30 -26 -39 -46 -17 -34 -17 -37 0 -49 28 -20
137 -40 156 -28 27 17 21 82 -9 104 -31 23 -78 31 -108 19z"/>
<path d="M3704 4699 c-11 -4 -28 -23 -38 -43 l-20 -37 27 -27 c38 -38 100 -38
133 1 13 16 24 36 24 46 0 40 -79 78 -126 60z"/>
<path d="M3148 4623 c-21 -22 -28 -39 -28 -69 1 -45 16 -69 54 -84 46 -17 73
-12 99 20 35 41 41 64 23 98 -21 40 -39 53 -83 59 -32 4 -42 0 -65 -24z"/>
<path d="M3372 4547 c-12 -13 -22 -33 -22 -44 0 -42 79 -79 117 -55 11 7 33
54 33 72 0 13 -65 50 -87 50 -11 0 -29 -10 -41 -23z"/>
<path d="M3583 6298 c-6 -7 -13 -57 -17 -110 -7 -92 -6 -97 14 -108 23 -13 60
-5 61 13 5 62 -5 203 -14 209 -18 11 -33 10 -44 -4z"/>
<path d="M3086 6051 c-15 -17 -16 -25 -6 -55 6 -20 16 -38 21 -41 5 -4 9 -21
9 -40 0 -26 7 -38 29 -54 16 -12 33 -21 38 -21 18 0 43 37 43 63 0 39 -38 113
-72 142 -36 30 -40 30 -62 6z"/>
<path d="M3335 2024 c-11 -3 -152 -34 -313 -70 -380 -83 -551 -144 -864 -306
-242 -125 -490 -292 -602 -405 -114 -115 -183 -260 -193 -406 -6 -73 -4 -81
28 -145 69 -137 213 -248 372 -288 86 -22 413 -30 560 -14 410 44 845 195
1199 416 266 165 528 394 587 511 58 117 76 258 46 360 -32 109 -118 193 -272
268 -125 60 -199 76 -373 80 -85 2 -164 2 -175 -1z m353 -194 c122 -20 222
-83 264 -164 18 -34 20 -53 16 -131 -3 -50 -11 -102 -18 -115 -20 -38 -136
-170 -194 -220 -368 -320 -862 -539 -1366 -606 -180 -24 -545 -15 -642 15 -84
27 -154 82 -191 149 -30 56 -30 60 15 183 20 55 207 249 278 290 33 19 82 50
110 70 27 20 76 46 109 57 38 13 95 47 158 94 278 210 718 356 1138 378 215
11 255 11 323 0z"/>
<path d="M3220 1738 c-32 -35 -72 -80 -91 -100 l-34 -37 -130 15 c-144 17
-184 13 -330 -33 -217 -68 -420 -212 -559 -397 -131 -175 -138 -245 -24 -277
24 -7 61 -29 83 -50 29 -27 55 -40 93 -48 110 -23 180 -9 376 72 181 75 322
186 443 348 36 49 71 89 76 89 5 0 42 -16 82 -36 61 -30 87 -37 157 -41 80 -5
84 -4 108 22 21 23 25 38 28 105 4 85 -13 162 -53 240 -13 25 -26 59 -30 75
-3 17 -13 40 -21 52 -14 23 -82 63 -106 63 -6 0 -37 -28 -68 -62z m70 -232 c0
-2 3 -11 6 -20 4 -11 0 -16 -13 -16 -25 0 -33 8 -26 26 4 12 33 21 33 10z
m-428 -103 c2 -14 9 -28 16 -31 9 -3 11 3 6 22 -6 25 -4 26 31 26 28 0 35 -3
28 -12 -64 -84 -163 -200 -195 -227 -35 -30 -41 -32 -49 -18 -25 45 -68 80
-132 112 l-72 34 87 41 c76 35 213 77 260 79 11 1 18 -8 20 -26z m-452 -226
c6 -17 6 -25 0 -22 -11 7 -91 -32 -102 -49 -12 -18 -9 -55 7 -86 l16 -30 -87
0 -86 0 19 30 c33 52 114 140 167 182 44 35 51 38 54 22 2 -11 7 -32 12 -47z
m109 -133 c-34 -19 -34 -19 -34 32 l0 45 29 -32 28 -32 -23 -13z"/>
</g>
</svg>
