<?xml version="1.0" standalone="no"?>
<!DOCTYPE svg PUBLIC "-//W3C//DTD SVG 20010904//EN"
 "http://www.w3.org/TR/2001/REC-SVG-20010904/DTD/svg10.dtd">
<svg version="1.0" xmlns="http://www.w3.org/2000/svg"
 width="1024.000000pt" height="1024.000000pt" viewBox="0 0 1024.000000 1024.000000"
 preserveAspectRatio="xMidYMid meet">
<metadata>
Created by potrace 1.10, written by Peter Selinger 2001-2011
</metadata>
<g transform="translate(0.000000,1024.000000) scale(0.100000,-0.100000)"
fill="#000000" stroke="none">
<path d="M5094 7933 c-12 -2 -34 -17 -49 -33 l-29 -30 27 -1807 26 -1808 -29
-615 c-20 -408 -37 -672 -51 -785 -31 -245 -17 -369 45 -410 49 -32 106 9 149
105 27 60 46 227 68 590 15 255 2 4608 -14 4664 -11 40 -91 137 -110 135 -7
-1 -22 -4 -33 -6z"/>
<path d="M6948 5962 c-16 -2 -40 -18 -58 -38 -24 -28 -30 -44 -30 -80 0 -42
36 -101 589 -972 323 -510 597 -945 609 -968 54 -106 175 -149 226 -81 19 26
19 32 8 109 -7 47 -24 107 -40 142 -16 34 -264 431 -552 883 l-522 822 -102
93 c-83 76 -106 92 -128 90z"/>
<path d="M3165 5730 c-52 -21 -81 -72 -115 -199 -18 -68 -172 -495 -347 -960
-173 -460 -318 -851 -323 -869 -10 -39 4 -95 32 -135 18 -25 25 -28 66 -25
l46 3 85 150 c78 140 94 178 228 560 209 596 271 772 363 1035 46 129 91 251
101 270 40 74 14 149 -59 170 -43 12 -50 12 -77 0z"/>
</g>
</svg>
