<?xml version="1.0" standalone="no"?>
<!DOCTYPE svg PUBLIC "-//W3C//DTD SVG 20010904//EN"
 "http://www.w3.org/TR/2001/REC-SVG-20010904/DTD/svg10.dtd">
<svg version="1.0" xmlns="http://www.w3.org/2000/svg"
 width="1024.000000pt" height="1024.000000pt" viewBox="0 0 1024.000000 1024.000000"
 preserveAspectRatio="xMidYMid meet">
<metadata>
Created by potrace 1.10, written by Peter Selinger 2001-2011
</metadata>
<g transform="translate(0.000000,1024.000000) scale(0.100000,-0.100000)"
fill="#000000" stroke="none">
<path d="M8625 10020 c-60 -4 -146 -12 -190 -18 -44 -6 -135 -16 -201 -23
-118 -10 -123 -10 -204 15 l-82 26 -82 -77 c-44 -43 -968 -941 -2053 -1996
-1235 -1200 -2003 -1941 -2055 -1979 -46 -34 -197 -170 -336 -302 -140 -133
-264 -246 -277 -251 -13 -6 -33 -19 -44 -29 -27 -24 -141 -208 -141 -227 0 -8
-43 -86 -96 -174 -87 -145 -634 -1220 -634 -1246 0 -6 -45 -93 -99 -192 -63
-114 -119 -234 -152 -322 -28 -77 -64 -158 -80 -181 -15 -22 -90 -171 -165
-330 -76 -159 -147 -305 -159 -324 -12 -19 -25 -47 -29 -62 -3 -15 -20 -51
-38 -80 -38 -65 -228 -629 -228 -679 0 -35 35 -89 58 -89 5 0 12 -18 16 -40
18 -114 110 -270 201 -340 176 -136 470 -129 578 14 16 20 41 37 69 45 97 29
267 181 416 372 48 62 109 106 815 598 l762 531 305 296 c167 163 315 311 328
329 13 18 26 51 29 73 5 38 146 181 2627 2678 1441 1450 2624 2642 2628 2648
9 16 10 111 9 722 l-1 541 -37 11 c-31 10 -1302 76 -1338 71 -5 -1 -59 -5
-120 -9z m-5498 -5207 c1 -98 6 -148 18 -179 l16 -42 -55 -111 c-31 -61 -56
-123 -56 -137 0 -33 68 -104 100 -104 25 0 75 49 86 83 8 28 64 87 82 87 7 0
37 24 67 53 29 30 51 48 48 41 -8 -22 43 -64 77 -64 44 0 70 31 70 83 0 37 -4
45 -33 63 -30 20 -36 20 -60 7 -34 -17 -34 -7 1 33 48 55 89 63 263 57 135 -5
160 -9 202 -30 26 -13 47 -27 47 -32 0 -4 11 -24 24 -43 34 -51 64 -173 49
-197 -21 -33 -55 -184 -54 -234 1 -45 -3 -54 -78 -152 -43 -57 -82 -113 -86
-124 -10 -33 20 -78 55 -83 65 -10 188 86 250 195 l32 57 49 0 c78 0 122 -24
193 -105 51 -58 69 -89 94 -158 32 -88 48 -168 55 -268 3 -57 3 -57 -27 -62
-17 -3 -39 -8 -48 -12 -16 -6 -17 -4 -6 26 6 19 19 43 30 55 10 12 21 37 24
56 5 30 2 37 -29 61 -32 24 -39 26 -63 15 -25 -12 -64 -80 -64 -113 0 -8 -9
-19 -21 -25 -29 -16 -54 -77 -38 -96 9 -11 7 -14 -10 -14 -21 0 -61 -51 -61
-77 0 -7 21 -24 46 -39 30 -18 43 -31 40 -41 -4 -9 4 -23 20 -35 l25 -20 -23
-25 c-13 -14 -40 -34 -62 -45 -31 -16 -40 -17 -47 -6 -6 9 0 17 21 25 26 12
50 57 50 98 0 17 -66 56 -83 49 -20 -7 -49 -69 -45 -97 2 -17 -4 -25 -26 -33
-17 -6 -39 -23 -50 -38 -19 -25 -20 -29 -5 -55 l16 -28 -198 -96 -199 -95 -29
29 c-33 33 -74 38 -109 14 -19 -14 -25 -14 -53 0 -43 23 -77 12 -95 -30 -17
-42 -11 -59 26 -77 29 -14 28 -14 -66 -37 -52 -13 -97 -21 -99 -19 -2 2 7 28
21 58 14 30 33 86 41 124 9 38 29 90 45 115 29 48 230 589 242 655 4 20 2 62
-4 93 -20 93 -101 153 -208 153 -19 0 -146 -70 -393 -216 -200 -119 -400 -237
-444 -263 l-80 -48 3 46 c3 43 1 48 -31 69 -50 33 -97 6 -111 -62 -8 -37 25
-76 63 -76 19 0 -8 -20 -99 -74 -69 -41 -126 -73 -128 -71 -4 4 127 294 154
341 13 23 39 79 57 125 19 46 65 136 103 199 47 78 569 1051 569 1060 0 0 1
-62 2 -137z m253 22 c0 -12 -19 -12 -23 0 -4 9 -1 12 9 8 7 -3 14 -7 14 -8z
m28 -1232 c-6 -27 -16 -55 -23 -63 -29 -34 -315 -884 -315 -936 0 -8 -162
-255 -361 -549 -350 -520 -361 -535 -392 -535 -53 1 -116 35 -132 72 -25 60
-159 143 -300 188 -47 14 -108 23 -187 27 -65 3 -118 7 -118 8 0 2 9 22 19 45
16 37 26 45 68 59 45 15 48 19 51 53 3 32 14 47 90 115 48 43 107 97 132 121
25 23 91 79 147 124 l102 81 -50 47 c-30 28 -49 55 -49 68 0 12 -3 22 -7 22
-4 0 -81 -73 -170 -162 -162 -162 -189 -176 -119 -63 17 27 103 207 192 399
88 192 165 351 170 353 5 2 18 -11 29 -29 10 -18 25 -37 33 -41 11 -7 10 -13
-8 -32 -21 -23 -85 -235 -70 -235 4 0 24 7 44 15 27 12 46 13 78 6 23 -6 43
-9 43 -8 0 1 20 44 45 94 l44 93 -27 28 c-15 15 -27 31 -27 34 0 3 27 16 60
29 32 13 272 157 532 320 260 164 476 298 479 298 4 1 2 -20 -3 -46z m1052
-252 c0 -11 12 -29 28 -40 32 -24 12 -28 -23 -5 -25 16 -36 64 -15 64 6 0 10
-9 10 -19z m-805 -797 c-11 -9 -123 -88 -248 -176 -126 -88 -236 -172 -245
-187 -9 -14 -17 -28 -18 -30 -2 -2 -16 6 -32 18 -16 11 -33 17 -38 13 -21 -19
39 64 123 170 l94 117 182 44 c209 52 209 52 182 31z m-674 -557 l-54 -52 28
50 c51 90 48 87 65 70 13 -14 8 -21 -39 -68z m-1145 -442 c127 -24 139 -30
158 -78 21 -56 20 -81 -4 -154 l-21 -60 -91 -7 c-176 -12 -158 -19 -231 87
-62 89 -64 94 -66 160 l-2 67 90 0 c49 0 124 -7 167 -15z"/>
<path d="M3842 4640 c-13 -6 -29 -24 -37 -42 -14 -32 -13 -34 16 -60 39 -37
90 -38 124 -3 63 62 -13 140 -103 105z"/>
<path d="M3632 4593 c-32 -47 -34 -72 -5 -99 30 -28 102 -33 126 -9 14 14 33
73 25 79 -25 18 -100 56 -112 56 -8 0 -23 -12 -34 -27z"/>
<path d="M3905 4467 c-8 -13 -17 -37 -21 -54 -5 -25 -1 -34 21 -52 51 -39 116
-19 130 41 6 23 1 31 -36 57 -50 37 -73 39 -94 8z"/>
<path d="M2762 3717 c-38 -40 -25 -109 24 -127 53 -21 94 13 94 79 0 19 -9 34
-30 49 -37 28 -61 28 -88 -1z"/>
<path d="M2606 3605 c-37 -39 -40 -76 -10 -102 25 -23 68 -30 90 -15 17 11 34
48 34 74 0 26 -47 68 -75 68 -9 0 -26 -11 -39 -25z"/>
<path d="M3725 3605 c-38 -37 -35 -95 6 -129 33 -28 34 -28 66 -20 15 4 26 18
33 43 17 61 13 85 -20 109 -38 28 -55 28 -85 -3z"/>
<path d="M3655 3433 c-37 -9 -55 -34 -55 -78 0 -67 55 -104 110 -75 15 8 50
91 50 117 0 3 -78 43 -82 42 -2 -1 -12 -4 -23 -6z"/>
<path d="M3861 3407 c-26 -13 -58 -67 -63 -107 -2 -14 -16 -34 -33 -45 -39
-27 -46 -79 -15 -118 21 -27 61 -36 86 -19 34 22 44 91 17 113 -14 13 -12 15
22 19 37 5 40 8 59 63 l21 57 -30 25 c-35 29 -33 28 -64 12z"/>
<path d="M3591 3174 c-11 -14 -23 -34 -26 -45 -4 -10 -13 -19 -20 -19 -17 0
-40 -34 -49 -72 -5 -20 -1 -32 15 -47 48 -44 116 -31 134 26 6 18 21 43 33 56
12 12 24 37 28 54 13 65 -73 100 -115 47z"/>
<path d="M3679 3041 c-35 -35 -37 -70 -6 -99 47 -44 110 -18 120 49 5 32 1 39
-23 58 -39 28 -56 27 -91 -8z"/>
<path d="M831 3619 l-24 -20 19 -102 c23 -124 25 -327 6 -542 -11 -126 -20
-170 -54 -275 -52 -161 -88 -243 -154 -357 -30 -51 -54 -99 -54 -107 0 -8 -5
-18 -11 -22 -6 -3 -18 -24 -27 -45 -26 -58 -196 -260 -268 -318 -69 -56 -69
-53 -28 -134 30 -59 42 -67 105 -67 56 0 60 2 156 73 106 80 182 153 396 379
153 162 165 184 231 403 54 176 60 228 53 462 -5 205 -5 209 -36 283 -18 41
-43 95 -58 120 -44 75 -204 290 -216 290 -7 -1 -23 -10 -36 -21z m160 -961
c-6 -15 -22 -28 -45 -35 -20 -6 -36 -9 -36 -7 0 2 19 80 43 172 l42 167 3
-136 c1 -75 -2 -147 -7 -161z m-71 -253 c0 -7 -160 -215 -165 -215 -3 0 -1 10
4 23 6 15 4 31 -8 50 -15 27 -15 30 11 75 23 41 32 48 75 59 55 13 83 15 83 8z"/>
<path d="M6430 2889 c-176 -19 -403 -78 -540 -141 -36 -17 -89 -39 -119 -49
-30 -11 -70 -28 -89 -39 -44 -26 -415 -331 -409 -336 2 -3 38 6 78 20 41 13
110 32 154 40 111 22 955 96 1090 96 123 0 262 -19 375 -50 155 -44 358 -145
433 -218 l37 -36 0 61 c0 49 -12 96 -60 234 -34 95 -71 187 -84 204 -13 16
-30 44 -39 61 -20 39 -71 65 -197 99 -198 53 -446 75 -630 54z m290 -154 c207
-50 359 -119 455 -206 39 -34 70 -66 69 -71 -1 -4 -2 -21 -2 -38 -2 -37 -22
-39 -103 -11 -237 84 -522 135 -814 146 -209 8 -368 -5 -539 -44 -76 -17 -141
-30 -143 -27 -8 7 162 110 251 151 106 50 196 79 321 106 75 15 120 18 265 15
113 -3 198 -10 240 -21z"/>
<path d="M7542 1320 c-135 -19 -226 -40 -246 -58 -12 -10 -64 -39 -116 -64
-256 -125 -519 -356 -649 -570 l-22 -37 23 -6 c17 -4 46 8 105 43 45 27 120
61 170 76 48 15 142 45 208 66 263 85 529 128 830 137 232 6 512 -14 578 -42
54 -22 77 -20 77 8 0 84 -41 199 -105 293 -41 61 -141 113 -260 136 -114 22
-484 33 -593 18z m344 -98 c60 -19 433 -242 404 -242 -8 0 -89 11 -180 25
-192 29 -256 31 -417 10 -315 -41 -605 -121 -898 -249 l-60 -26 100 98 c144
141 303 244 498 321 72 29 233 75 292 85 57 8 202 -4 261 -22z"/>
<path d="M4880 1227 c-91 -46 -152 -89 -236 -169 -97 -93 -165 -194 -240 -359
-62 -136 -62 -139 -39 -139 16 0 33 11 47 31 30 40 129 86 214 99 199 30 343
40 544 39 118 0 241 -4 273 -8 l57 -7 0 36 c0 97 -60 240 -139 333 -101 120
-214 177 -350 177 -55 0 -77 -6 -131 -33z m151 -157 c29 -6 73 -20 97 -32 48
-23 161 -122 151 -133 -4 -3 -95 5 -203 19 -209 28 -222 27 -336 -12 -31 -11
-79 -31 -107 -46 -29 -14 -55 -26 -58 -26 -4 0 11 22 32 48 48 62 118 119 196
159 68 35 130 41 228 23z"/>
<path d="M1203 873 c-29 -164 -159 -324 -324 -397 -46 -20 -87 -51 -144 -106
-79 -76 -164 -130 -206 -130 -16 0 -19 -3 -11 -13 6 -7 9 -22 6 -33 -5 -18 3
-21 112 -36 109 -15 122 -15 203 2 147 30 273 93 384 191 54 47 167 193 167
216 0 9 -18 74 -40 146 -22 72 -38 137 -36 143 5 12 -74 84 -91 84 -5 0 -14
-30 -20 -67z m27 -297 c0 -89 -115 -229 -235 -286 -72 -34 -155 -53 -211 -48
l-41 3 235 192 c130 105 239 190 244 187 4 -3 8 -24 8 -48z"/>
</g>
</svg>
