<?xml version="1.0" standalone="no"?>
<!DOCTYPE svg PUBLIC "-//W3C//DTD SVG 20010904//EN"
 "http://www.w3.org/TR/2001/REC-SVG-20010904/DTD/svg10.dtd">
<svg version="1.0" xmlns="http://www.w3.org/2000/svg"
 width="1024.000000pt" height="1024.000000pt" viewBox="0 0 1024.000000 1024.000000"
 preserveAspectRatio="xMidYMid meet">
<metadata>
Created by potrace 1.10, written by Peter Selinger 2001-2011
</metadata>
<g transform="translate(0.000000,1024.000000) scale(0.100000,-0.100000)"
fill="#000000" stroke="none">
<path d="M8555 10059 c-38 -4 -159 -16 -269 -27 l-199 -19 -83 25 -83 25 -143
-138 c-79 -76 -1001 -972 -2049 -1992 -1181 -1148 -1935 -1875 -1985 -1911
-44 -32 -194 -168 -334 -301 -140 -133 -268 -248 -285 -255 -16 -7 -37 -22
-46 -32 -25 -30 -116 -186 -124 -214 -4 -14 -52 -98 -106 -188 -92 -150 -619
-1185 -619 -1214 0 -7 -45 -96 -100 -198 -56 -103 -125 -248 -156 -328 -30
-78 -68 -164 -84 -190 -16 -26 -83 -162 -150 -302 -67 -140 -139 -289 -159
-330 -21 -41 -56 -111 -78 -155 -59 -117 -236 -657 -228 -694 3 -16 21 -42 39
-59 24 -21 35 -42 40 -73 4 -24 25 -81 47 -127 102 -211 302 -318 530 -283 89
14 164 53 193 103 11 18 33 32 69 44 99 32 250 167 400 357 61 76 79 90 826
610 l764 532 313 303 c308 300 339 336 346 404 2 20 603 631 2623 2663 l2620
2637 5 86 c3 48 4 330 2 628 l-2 541 -28 12 c-18 9 -224 23 -617 42 -595 29
-762 32 -890 18z m-5438 -5199 c1 -105 6 -148 18 -174 l16 -34 -55 -111 c-31
-61 -56 -123 -56 -137 0 -33 68 -104 100 -104 25 0 75 49 86 83 8 27 63 87 81
87 17 0 82 58 105 95 15 23 18 25 13 8 -9 -31 34 -73 75 -73 43 0 70 31 70 79
0 33 -5 43 -31 62 -27 19 -36 21 -60 12 -38 -15 -37 -4 4 34 53 51 64 53 241
53 198 0 236 -12 277 -86 13 -24 26 -44 29 -44 3 0 14 -36 24 -80 16 -64 17
-82 7 -94 -21 -26 -61 -197 -55 -237 6 -33 0 -44 -74 -140 -43 -57 -82 -114
-86 -126 -11 -35 18 -80 54 -85 64 -10 192 92 246 197 l29 55 53 0 c69 0 112
-23 189 -102 86 -89 132 -210 151 -405 8 -82 8 -83 -14 -83 -13 0 -35 -5 -49
-10 -24 -9 -26 -8 -20 12 4 13 18 39 31 59 34 50 31 97 -8 128 -28 23 -33 24
-57 10 -25 -14 -55 -64 -63 -103 -1 -10 -18 -34 -37 -52 -26 -27 -32 -40 -29
-64 4 -23 1 -30 -13 -30 -20 0 -33 -15 -46 -56 -10 -29 -9 -31 33 -54 32 -16
44 -29 44 -45 0 -13 11 -30 26 -40 l27 -17 -29 -24 c-16 -14 -45 -33 -65 -43
-35 -19 -35 -19 -47 0 -11 17 -9 19 10 19 60 0 81 90 31 130 -37 29 -54 22
-82 -33 -19 -38 -21 -50 -11 -62 10 -13 8 -15 -12 -15 -33 0 -78 -36 -78 -62
0 -12 7 -29 16 -39 14 -16 1 -24 -188 -118 l-203 -102 -19 26 c-25 36 -58 47
-96 34 -16 -6 -30 -15 -30 -19 0 -5 -18 -1 -39 7 -55 22 -87 11 -101 -33 -10
-30 -9 -38 6 -55 9 -10 23 -19 31 -19 7 0 13 -4 13 -8 0 -8 -180 -55 -187 -49
-2 2 10 33 25 68 16 35 34 91 41 124 7 33 25 80 41 105 15 25 76 178 135 340
92 253 107 303 107 355 0 105 -45 169 -137 194 -82 22 -80 24 -535 -245 -239
-141 -439 -258 -445 -260 -6 -3 -9 12 -7 38 3 38 0 46 -27 66 -43 32 -75 22
-101 -32 -11 -23 -20 -47 -20 -53 0 -17 50 -53 73 -53 11 0 -35 -33 -104 -74
-68 -41 -125 -73 -127 -72 -4 5 140 320 159 348 11 14 35 68 55 118 19 50 57
126 83 168 26 43 168 303 316 580 147 276 268 502 269 502 0 0 2 -63 3 -140z
m282 -1191 c-5 -22 -16 -50 -24 -62 -23 -37 -171 -458 -245 -702 -38 -126 -73
-240 -77 -252 -5 -13 -165 -257 -358 -542 l-350 -520 -38 -1 c-54 0 -109 31
-129 74 -21 43 -78 87 -173 132 -105 51 -197 74 -317 81 -60 3 -108 10 -108
14 0 5 7 23 16 42 12 25 28 38 67 53 49 19 52 22 52 56 0 34 10 44 165 183 91
81 198 172 238 202 l73 56 -29 17 c-39 24 -82 78 -82 103 0 17 -40 -18 -165
-143 -91 -91 -165 -158 -165 -150 0 7 18 43 39 79 22 36 108 217 192 401 83
184 156 340 161 345 7 7 16 1 26 -15 10 -13 25 -33 35 -43 18 -18 18 -19 -1
-40 -16 -17 -72 -198 -72 -231 0 -3 16 2 36 10 25 11 52 13 84 9 l47 -6 45 93
46 93 -30 31 -29 31 63 27 c35 14 275 159 533 320 259 162 473 295 476 295 4
1 3 -17 -2 -40z m1074 -296 c24 -27 11 -30 -19 -5 -25 20 -37 59 -20 65 6 2
13 -6 14 -17 2 -12 13 -31 25 -43z m-804 -737 c-2 -2 -116 -83 -254 -180 -137
-97 -257 -188 -265 -201 -15 -26 -34 -32 -45 -14 -4 6 -15 14 -26 17 -18 7 -6
25 178 256 20 25 46 34 210 76 189 48 210 53 202 46z m-650 -528 c-2 -2 -27
-23 -54 -48 -27 -25 -44 -38 -39 -30 6 8 23 37 38 64 26 44 29 47 44 32 9 -8
14 -17 11 -18z m-1131 -498 c77 -21 84 -25 97 -57 19 -46 18 -106 -4 -168 -17
-49 -19 -50 -67 -57 -27 -3 -85 -7 -129 -7 l-81 -1 -62 91 c-60 87 -63 93 -66
161 l-4 71 117 -6 c74 -3 147 -13 199 -27z"/>
<path d="M3829 4699 c-17 -6 -30 -22 -37 -47 -11 -35 -10 -38 15 -59 57 -46
153 -14 153 50 0 48 -72 79 -131 56z"/>
<path d="M3626 4661 c-25 -27 -38 -81 -24 -98 52 -63 144 -47 163 29 6 24 2
29 -47 57 -62 36 -69 37 -92 12z"/>
<path d="M3896 4535 c-8 -9 -18 -32 -22 -52 -6 -32 -3 -40 20 -60 49 -42 116
-22 130 39 5 24 0 31 -38 57 -50 35 -68 38 -90 16z"/>
<path d="M2752 3777 c-38 -40 -26 -98 25 -125 31 -17 41 -15 68 13 36 35 34
87 -4 114 -38 27 -62 26 -89 -2z"/>
<path d="M2596 3665 c-36 -38 -39 -73 -9 -103 20 -20 31 -23 60 -19 42 7 62
31 63 74 0 22 -8 37 -26 52 -35 28 -60 26 -88 -4z"/>
<path d="M3715 3665 c-31 -30 -33 -82 -4 -119 16 -20 29 -26 59 -26 41 0 39
-4 55 90 6 31 3 38 -24 58 -39 28 -56 28 -86 -3z"/>
<path d="M3635 3490 c-34 -13 -46 -36 -43 -81 2 -32 9 -47 30 -62 50 -37 104
0 115 80 5 36 3 39 -31 56 -41 19 -43 19 -71 7z"/>
<path d="M3832 3455 c-28 -23 -57 -98 -46 -117 3 -4 -2 -8 -10 -8 -8 0 -25
-10 -36 -22 -49 -53 -1 -149 67 -134 49 11 74 103 36 125 -15 9 -13 10 13 11
37 0 45 9 69 74 l19 49 -30 23 c-37 30 -46 30 -82 -1z"/>
<path d="M3602 3259 c-13 -5 -31 -26 -40 -49 -11 -24 -25 -40 -37 -42 -13 -2
-25 -17 -35 -45 -14 -41 -13 -43 10 -68 17 -18 34 -25 61 -25 42 0 66 18 76
58 3 15 14 33 24 40 10 7 24 31 30 53 11 36 10 42 -7 58 -25 25 -54 32 -82 20z"/>
<path d="M3665 3103 c-33 -37 -33 -76 2 -103 47 -36 108 -7 115 55 3 28 -1 38
-24 55 -37 27 -62 25 -93 -7z"/>
<path d="M832 3685 l-29 -24 18 -93 c28 -146 33 -293 15 -451 -9 -77 -16 -162
-16 -191 0 -36 -15 -97 -49 -196 -59 -175 -83 -229 -152 -345 -29 -50 -52 -94
-51 -98 1 -5 -6 -20 -17 -35 -10 -15 -20 -35 -22 -45 -5 -25 -197 -259 -234
-286 -16 -12 -45 -34 -64 -50 l-34 -28 27 -54 c36 -70 52 -86 87 -94 50 -11
87 5 187 79 103 77 175 145 395 378 l138 146 41 109 c22 59 54 160 71 223 29
113 30 118 28 344 -3 256 -8 281 -88 426 -31 58 -209 310 -218 310 -2 0 -17
-11 -33 -25z m156 -962 c-12 -25 -63 -52 -75 -39 -3 3 14 82 38 175 l44 170 3
-140 c2 -98 -1 -148 -10 -166z m-68 -248 c0 -5 -161 -215 -165 -215 -1 0 0 11
2 24 3 14 -2 35 -11 47 -15 21 -14 26 11 68 14 26 27 48 29 50 2 2 29 9 61 16
72 16 73 16 73 10z"/>
<path d="M6380 2950 c-173 -22 -390 -82 -525 -145 -38 -18 -81 -36 -95 -40
-65 -20 -135 -68 -310 -211 -167 -137 -209 -174 -198 -174 2 0 27 9 57 20 117
45 220 60 716 106 547 50 628 51 817 13 196 -39 424 -141 526 -233 l54 -50 -5
75 c-9 152 -148 480 -225 531 -35 24 -139 55 -282 85 -131 27 -400 39 -530 23z
m311 -149 c199 -45 355 -114 459 -205 74 -63 76 -66 72 -105 -5 -49 -10 -50
-103 -16 -129 46 -342 96 -549 127 -54 8 -186 13 -360 13 l-275 0 -145 -33
c-80 -18 -152 -35 -160 -38 -26 -8 42 43 121 91 145 88 362 164 529 184 105
14 309 4 411 -18z"/>
<path d="M7540 1389 c-119 -13 -242 -38 -261 -55 -9 -8 -52 -32 -95 -53 -271
-131 -540 -364 -673 -583 l-22 -37 23 -6 c17 -4 46 8 105 43 46 28 120 61 170
76 48 15 135 43 193 61 287 94 608 145 921 145 174 0 387 -17 464 -37 89 -23
115 -26 115 -15 0 43 -34 170 -59 218 -45 90 -74 123 -143 164 -124 74 -445
109 -738 79z m327 -98 c53 -18 408 -230 399 -238 -2 -2 -84 8 -182 23 -146 21
-199 25 -291 20 -298 -16 -709 -121 -1013 -258 l-65 -29 80 81 c198 201 472
351 760 414 92 21 229 15 312 -13z"/>
<path d="M4870 1297 c-153 -77 -280 -190 -375 -332 -47 -71 -68 -114 -146
-292 l-18 -43 25 0 c17 0 30 9 42 30 22 38 123 85 212 99 220 35 353 43 596
39 137 -3 256 -7 264 -9 40 -11 -13 200 -74 294 -50 78 -144 169 -207 199
-122 59 -223 64 -319 15z m140 -157 c30 -6 76 -21 104 -33 53 -25 169 -128
150 -134 -6 -2 -99 7 -208 21 -193 23 -198 23 -264 6 -81 -21 -153 -50 -207
-81 l-40 -24 35 49 c49 68 120 128 202 170 76 39 127 45 228 26z"/>
<path d="M1201 948 c-31 -162 -152 -317 -306 -393 -53 -26 -103 -61 -150 -106
-84 -80 -159 -129 -196 -129 -30 0 -46 -14 -29 -25 7 -4 7 -12 0 -25 -12 -23
-15 -22 132 -44 86 -12 106 -12 169 1 220 45 403 165 524 342 l46 67 -41 129
c-22 71 -40 141 -40 155 -1 18 -13 34 -44 58 -24 17 -45 32 -48 32 -3 0 -11
-28 -17 -62z m-4 -390 c-84 -150 -267 -257 -418 -246 l-42 3 239 193 239 193
9 -40 c8 -35 5 -46 -27 -103z"/>
</g>
</svg>
