<?xml version="1.0" standalone="no"?>
<!DOCTYPE svg PUBLIC "-//W3C//DTD SVG 20010904//EN"
 "http://www.w3.org/TR/2001/REC-SVG-20010904/DTD/svg10.dtd">
<svg version="1.0" xmlns="http://www.w3.org/2000/svg"
 width="1024.000000pt" height="1024.000000pt" viewBox="0 0 1024.000000 1024.000000"
 preserveAspectRatio="xMidYMid meet">
<metadata>
Created by potrace 1.10, written by Peter Selinger 2001-2011
</metadata>
<g transform="translate(0.000000,1024.000000) scale(0.100000,-0.100000)"
fill="#000000" stroke="none">
<path d="M4840 8520 c-58 -21 -108 -40 -112 -42 -16 -7 68 -117 109 -142 72
-46 140 -130 193 -240 73 -150 91 -234 96 -456 3 -102 -6 -1062 -20 -2135 -20
-1521 -30 -2039 -46 -2355 -11 -223 -25 -417 -31 -432 -6 -15 -23 -39 -38 -54
-26 -26 -28 -26 -121 -20 -196 14 -449 81 -683 181 -117 49 -144 54 -177 27
l-22 -17 89 -79 c272 -243 505 -479 646 -656 33 -41 94 -127 136 -190 86 -131
149 -203 203 -231 141 -72 286 58 387 345 35 99 76 307 90 461 5 55 19 1185
30 2510 21 2544 24 2649 72 3030 28 220 28 219 -7 256 -40 42 -90 70 -240 135
-152 65 -341 130 -404 137 -36 4 -66 -2 -150 -33z"/>
<path d="M2714 6061 c-12 -5 -24 -14 -27 -18 -5 -8 31 -85 126 -268 35 -66 57
-156 57 -230 0 -115 -60 -274 -230 -610 -133 -262 -235 -434 -427 -719 -272
-403 -599 -809 -942 -1168 l-100 -105 24 -23 c30 -29 61 -22 152 32 318 191
929 774 1334 1273 213 262 542 732 644 920 23 43 64 96 106 136 61 60 129 166
129 201 0 7 -11 37 -25 67 -64 137 -421 425 -610 492 -66 24 -178 34 -211 20z"/>
<path d="M7220 6049 c-9 -15 -8 -24 2 -37 7 -9 60 -72 117 -140 221 -266 435
-575 688 -997 229 -381 450 -799 588 -1110 104 -236 113 -254 160 -304 53 -57
98 -76 162 -68 198 22 254 386 116 757 -173 466 -602 970 -1388 1630 -186 156
-382 290 -424 290 -6 0 -15 -9 -21 -21z"/>
</g>
</svg>
