<?xml version="1.0" standalone="no"?>
<!DOCTYPE svg PUBLIC "-//W3C//DTD SVG 20010904//EN"
 "http://www.w3.org/TR/2001/REC-SVG-20010904/DTD/svg10.dtd">
<svg version="1.0" xmlns="http://www.w3.org/2000/svg"
 width="1024.000000pt" height="1024.000000pt" viewBox="0 0 1024.000000 1024.000000"
 preserveAspectRatio="xMidYMid meet">
<metadata>
Created by potrace 1.10, written by Peter Selinger 2001-2011
</metadata>
<g transform="translate(0.000000,1024.000000) scale(0.100000,-0.100000)"
fill="#000000" stroke="none">
<path d="M5288 7583 c-15 -2 -41 -20 -57 -39 l-31 -34 5 -118 c3 -64 15 -875
27 -1802 l22 -1685 -28 -605 c-19 -429 -34 -662 -51 -800 -21 -167 -23 -207
-13 -275 10 -78 29 -132 52 -147 21 -14 60 -8 92 14 55 37 82 111 99 261 44
411 45 529 36 3692 -4 1313 -5 1372 -23 1422 -12 32 -34 65 -58 87 -22 20 -41
35 -43 35 -1 -1 -14 -4 -29 -6z"/>
<path d="M7089 5571 c-78 -78 -113 -10 557 -1066 325 -511 599 -948 610 -969
31 -60 83 -98 144 -104 73 -7 90 11 90 95 0 134 -5 143 -586 1056 l-536 842
-100 90 c-54 50 -108 91 -119 93 -13 2 -34 -11 -60 -37z"/>
<path d="M3313 5348 c-21 -18 -39 -33 -41 -34 -2 -1 -21 -64 -42 -141 -21 -76
-172 -496 -335 -933 -382 -1020 -348 -922 -335 -970 6 -23 23 -54 38 -71 24
-27 31 -29 67 -24 40 7 41 7 127 163 86 156 89 165 378 992 160 459 300 849
311 867 22 36 27 99 10 130 -12 23 -78 53 -116 53 -13 0 -41 -14 -62 -32z"/>
</g>
</svg>
