<?xml version="1.0" standalone="no"?>
<!DOCTYPE svg PUBLIC "-//W3C//DTD SVG 20010904//EN"
 "http://www.w3.org/TR/2001/REC-SVG-20010904/DTD/svg10.dtd">
<svg version="1.0" xmlns="http://www.w3.org/2000/svg"
 width="1024.000000pt" height="1024.000000pt" viewBox="0 0 1024.000000 1024.000000"
 preserveAspectRatio="xMidYMid meet">
<metadata>
Created by potrace 1.10, written by Peter Selinger 2001-2011
</metadata>
<g transform="translate(0.000000,1024.000000) scale(0.100000,-0.100000)"
fill="#000000" stroke="none">
<path d="M4600 6832 c-47 -26 -85 -52 -85 -57 0 -6 59 -65 131 -132 209 -196
196 -93 201 -1577 l4 -1158 127 7 c69 4 147 10 172 14 l45 6 11 1260 c11 1248
11 1261 33 1338 19 69 20 80 7 105 -19 36 -52 65 -105 92 -42 21 -433 151
-449 149 -4 0 -45 -22 -92 -47z"/>
<path d="M6968 6469 c-27 -17 -48 -35 -48 -40 0 -5 14 -40 31 -79 l32 -71 -61
-164 c-55 -149 -80 -199 -272 -532 -117 -203 -244 -412 -282 -467 -96 -133
-249 -324 -336 -418 -40 -43 -72 -81 -72 -86 0 -4 5 -13 12 -20 8 -8 42 4 137
53 124 63 130 68 375 291 l248 227 346 445 c189 245 350 457 355 473 16 41
-13 95 -92 175 -126 129 -243 219 -306 238 -13 4 -37 -5 -67 -25z"/>
<path d="M2547 6042 c-16 -17 -16 -20 -2 -32 9 -8 67 -75 129 -149 260 -314
475 -626 616 -896 162 -310 246 -411 336 -403 27 2 43 11 58 31 19 26 21 41
20 165 -2 166 -29 285 -98 426 -84 171 -260 360 -516 556 -241 184 -310 233
-380 269 -97 50 -140 59 -163 33z"/>
</g>
</svg>
