<?xml version="1.0" standalone="no"?>
<!DOCTYPE svg PUBLIC "-//W3C//DTD SVG 20010904//EN"
 "http://www.w3.org/TR/2001/REC-SVG-20010904/DTD/svg10.dtd">
<svg version="1.0" xmlns="http://www.w3.org/2000/svg"
 width="1024.000000pt" height="1024.000000pt" viewBox="0 0 1024.000000 1024.000000"
 preserveAspectRatio="xMidYMid meet">
<metadata>
Created by potrace 1.10, written by Peter Selinger 2001-2011
</metadata>
<g transform="translate(0.000000,1024.000000) scale(0.100000,-0.100000)"
fill="#000000" stroke="none">
<path d="M2577 9027 l-129 -62 24 -21 c12 -12 57 -43 98 -69 186 -118 282
-274 331 -540 18 -94 22 -164 26 -487 3 -208 3 -378 0 -378 -3 0 -242 -29
-530 -65 -289 -36 -555 -65 -593 -65 -38 1 -161 9 -274 19 -113 10 -206 17
-208 16 -2 -2 8 -45 22 -97 23 -85 29 -97 74 -138 71 -66 132 -95 306 -145
l156 -45 412 81 c227 44 458 89 513 99 55 11 106 20 113 20 9 0 12 -126 12
-595 l0 -594 -32 -6 c-18 -3 -370 -46 -782 -95 l-750 -90 -278 22 c-153 12
-281 19 -284 15 -3 -3 6 -48 21 -99 31 -107 52 -134 160 -206 53 -36 109 -60
240 -103 l170 -56 85 24 c75 21 1120 213 1161 213 26 0 132 -103 186 -182 130
-188 143 -332 143 -1695 0 -637 -3 -943 -10 -943 -17 0 -1094 332 -1103 339
-4 4 1 28 11 52 11 24 36 94 57 154 39 113 83 209 117 257 11 16 30 67 43 115
l24 88 -23 50 c-29 64 -103 140 -229 236 -202 153 -320 221 -415 236 -32 6
-162 -23 -162 -36 0 -3 27 -53 60 -111 119 -207 124 -291 44 -685 -154 -750
-462 -1691 -824 -2518 l-82 -188 22 -24 c13 -14 29 -21 40 -18 61 16 238 242
438 560 250 397 522 946 744 1503 27 69 53 128 56 132 11 11 789 -277 1540
-568 1317 -511 2420 -976 3692 -1554 402 -183 448 -202 571 -234 237 -61 399
-61 714 4 234 48 596 139 973 245 433 121 526 150 576 179 49 29 86 76 86 111
0 19 -31 23 -777 93 -428 40 -852 80 -943 88 -456 41 -880 119 -1260 230 -126
37 -2236 711 -3255 1040 -132 42 -250 79 -262 82 l-23 4 0 679 c0 565 2 679
14 679 7 0 213 16 457 35 244 19 545 42 669 50 392 27 451 41 484 110 15 30
15 38 2 67 -38 87 -189 197 -331 241 -103 32 -126 30 -308 -17 -152 -39 -219
-50 -575 -91 -222 -26 -404 -46 -406 -44 -2 2 1 197 5 433 6 304 13 453 24
515 24 137 22 154 -27 207 -42 46 -134 96 -235 129 -29 9 -53 20 -53 23 0 6
1010 80 1651 122 183 12 238 40 259 136 11 47 -1 77 -48 121 -75 71 -119 94
-255 130 -118 31 -142 34 -222 30 -72 -4 -994 -142 -1082 -162 l-23 -5 0 603
0 602 540 32 c373 23 550 37 572 46 42 18 66 45 78 87 9 32 7 35 -71 116 l-81
82 -132 46 -131 45 -385 -68 c-212 -38 -385 -68 -386 -67 0 0 7 222 17 491
l17 490 31 113 c30 109 31 114 15 147 -36 78 -108 119 -345 200 -215 73 -364
115 -408 114 -23 0 -84 -23 -164 -62z"/>
</g>
</svg>
