<?xml version="1.0" standalone="no"?>
<!DOCTYPE svg PUBLIC "-//W3C//DTD SVG 20010904//EN"
 "http://www.w3.org/TR/2001/REC-SVG-20010904/DTD/svg10.dtd">
<svg version="1.0" xmlns="http://www.w3.org/2000/svg"
 width="1024.000000pt" height="1024.000000pt" viewBox="0 0 1024.000000 1024.000000"
 preserveAspectRatio="xMidYMid meet">
<metadata>
Created by potrace 1.10, written by Peter Selinger 2001-2011
</metadata>
<g transform="translate(0.000000,1024.000000) scale(0.100000,-0.100000)"
fill="#000000" stroke="none">
<path d="M7082 8835 c-212 -77 -396 -210 -547 -395 -45 -56 -195 -318 -195
-342 0 -4 7 -8 15 -8 12 0 11 -9 -9 -48 -69 -137 -129 -339 -142 -478 -7 -75
-10 -82 -60 -149 -56 -75 -74 -123 -74 -195 0 -49 29 -122 62 -157 l20 -22
-22 6 c-22 6 -23 4 -16 -37 7 -43 6 -44 -56 -107 -59 -60 -63 -66 -64 -113 -2
-42 -8 -58 -38 -93 -34 -40 -35 -41 -36 -16 -1 61 -82 90 -220 79 -52 -5 -356
-14 -675 -20 l-580 -12 -310 -50 c-275 -44 -318 -53 -383 -83 -137 -64 -191
-139 -332 -463 -34 -78 -70 -152 -79 -165 -34 -44 -102 -177 -125 -244 -35
-104 -126 -312 -208 -475 l-73 -146 -23 18 c-31 25 -121 44 -167 36 -54 -10
-136 -90 -157 -153 -9 -26 -32 -86 -52 -133 -62 -150 -70 -298 -25 -445 38
-124 93 -211 173 -274 38 -31 40 -31 130 -26 50 3 162 8 248 11 l158 6 83 122
c110 159 107 153 118 262 19 185 58 299 175 514 55 102 472 610 589 717 126
117 295 204 460 238 78 16 777 97 783 91 2 -2 -114 -152 -258 -332 -193 -244
-270 -333 -295 -345 -58 -26 -75 -49 -137 -176 -33 -68 -65 -123 -71 -123 -22
0 -228 -128 -321 -199 -106 -81 -256 -232 -342 -346 -68 -90 -84 -116 -84
-140 0 -10 -11 -30 -24 -46 -13 -15 -34 -59 -46 -96 -12 -37 -32 -90 -45 -118
-12 -27 -32 -71 -43 -97 -25 -56 -86 -470 -79 -535 4 -42 3 -45 -161 -250
l-165 -208 -144 -294 c-94 -192 -147 -291 -155 -288 -7 3 -44 17 -83 33 -38
15 -351 190 -695 387 -344 198 -653 370 -687 383 -97 37 -211 49 -315 35 -56
-8 -92 -19 -101 -29 -8 -10 -88 -143 -179 -297 -159 -272 -228 -402 -228 -432
0 -8 -15 -33 -34 -56 -19 -23 -76 -116 -126 -207 -51 -91 -108 -186 -126 -213
-52 -75 -57 -168 -14 -263 32 -73 43 -76 220 -62 l154 12 60 50 c99 81 325
313 415 426 46 58 90 109 97 113 9 5 83 -43 220 -144 179 -131 255 -178 575
-356 414 -230 487 -261 646 -270 54 -4 118 -1 155 6 215 41 458 161 648 320
93 78 158 123 302 207 373 218 556 373 1039 881 l154 163 600 -16 c448 -11
613 -19 650 -29 61 -17 165 -103 209 -173 37 -57 149 -267 223 -417 115 -231
192 -346 412 -612 69 -83 155 -188 191 -233 92 -116 225 -238 365 -332 66 -45
157 -110 201 -145 45 -34 107 -72 137 -84 41 -15 72 -38 112 -80 30 -31 55
-65 55 -73 0 -9 18 -28 40 -42 22 -15 46 -38 53 -53 6 -14 24 -32 39 -40 34
-19 96 -5 162 36 24 16 212 187 417 382 320 304 385 370 452 462 80 111 107
168 107 223 0 81 -80 133 -188 124 -79 -8 -284 -77 -417 -142 -60 -30 -160
-87 -220 -128 l-111 -74 -65 96 c-45 65 -74 121 -93 177 -15 45 -35 92 -45
105 -10 13 -32 55 -48 94 -29 68 -67 129 -129 202 -17 21 -68 98 -114 172
-105 168 -330 472 -420 565 -84 87 -183 203 -236 275 -98 132 -278 407 -286
436 -6 25 -32 50 -109 107 l-100 75 -77 6 c-42 3 -261 13 -487 21 -225 9 -430
18 -454 21 l-44 6 39 31 c83 66 273 261 344 353 41 53 101 125 133 161 127
144 259 338 339 498 78 155 183 462 208 608 11 61 14 67 36 67 57 0 156 -78
170 -134 4 -19 44 -40 242 -124 389 -167 494 -195 737 -196 215 -1 192 -16
476 306 129 145 250 283 270 308 64 80 177 256 233 362 73 138 350 769 371
844 10 38 24 65 38 74 60 37 138 117 157 161 35 83 53 171 54 269 2 225 -88
344 -282 372 -67 10 -89 9 -148 -5 -38 -10 -94 -32 -123 -51 -53 -33 -56 -33
-94 -20 -64 22 -78 18 -148 -50 -59 -57 -68 -71 -84 -130 -20 -75 -16 -133 15
-204 25 -56 115 -151 188 -198 28 -19 52 -37 52 -39 0 -3 -22 -16 -49 -30 -41
-20 -109 -92 -387 -407 -461 -522 -522 -588 -552 -588 -15 0 -173 108 -442
303 -231 166 -441 313 -467 326 l-47 25 64 29 c336 149 686 469 825 752 167
339 105 728 -152 965 -98 90 -153 105 -463 124 -140 9 -268 16 -285 16 -16 -1
-72 -16 -123 -35z m654 -233 c58 -42 122 -119 156 -187 41 -80 48 -104 59
-210 23 -216 23 -229 1 -278 -11 -25 -30 -52 -42 -59 -12 -7 -48 -51 -80 -98
-156 -229 -369 -414 -619 -539 -68 -35 -99 -44 -174 -52 -50 -6 -114 -19 -141
-30 -43 -16 -89 -20 -291 -26 l-241 -6 -36 49 -37 49 23 25 c45 49 63 86 75
155 18 105 57 256 97 382 30 95 42 118 72 144 78 68 125 174 103 232 -8 22 -7
33 4 50 8 13 24 50 35 82 35 102 91 163 177 192 17 6 40 20 51 31 32 32 111
75 182 99 61 21 83 23 326 23 l261 0 39 -28z m1761 -797 c20 -6 54 -83 60
-136 4 -32 0 -71 -11 -113 -18 -63 -18 -64 -62 -75 -25 -7 -69 -28 -99 -47
-30 -20 -59 -33 -64 -29 -6 3 -11 22 -11 41 0 30 -13 50 -85 131 -46 53 -83
98 -81 100 1 2 31 -1 65 -5 78 -11 101 2 101 58 0 34 4 41 43 64 34 21 50 24
87 20 25 -3 50 -7 57 -9z m-171 -553 c-2 -4 -43 -102 -91 -217 -64 -157 -102
-234 -151 -308 -73 -109 -127 -217 -173 -350 -29 -82 -44 -105 -208 -315 -97
-125 -208 -261 -248 -302 -40 -41 -77 -85 -84 -98 -7 -13 -33 -37 -59 -53 -78
-49 -168 -39 -472 52 -282 85 -617 235 -867 388 -57 34 -108 59 -113 56 -6 -4
-20 -25 -31 -48 -12 -23 -37 -64 -57 -91 -30 -40 -33 -50 -20 -57 8 -4 25 -17
38 -27 22 -18 22 -20 6 -44 -29 -44 -76 -186 -92 -279 -12 -72 -33 -129 -99
-277 l-84 -187 -1063 -1179 c-1143 -1268 -1086 -1210 -1320 -1355 -208 -130
-421 -286 -721 -529 -161 -131 -274 -179 -437 -189 -130 -8 -228 13 -379 81
-317 142 -643 340 -907 550 -116 93 -181 127 -253 133 -107 10 -175 -30 -272
-159 -34 -46 -126 -158 -205 -249 -116 -136 -152 -171 -195 -193 -29 -14 -61
-26 -72 -26 -18 0 -18 1 1 28 11 15 61 106 112 202 51 96 110 195 130 220 21
25 110 184 199 354 89 170 163 311 165 313 1 2 51 -4 111 -14 l108 -16 301
-157 c165 -86 469 -253 674 -371 205 -118 391 -224 414 -237 38 -20 56 -22
188 -22 l146 0 29 30 c31 32 39 83 22 142 -6 23 21 73 199 369 l207 343 208
234 c151 168 209 240 209 258 0 13 -1 24 -3 24 -1 0 -39 -15 -83 -34 -43 -18
-94 -37 -111 -40 -27 -6 -31 -5 -27 11 2 10 26 115 53 235 28 119 59 234 70
257 12 22 21 50 21 61 0 11 13 47 29 78 126 249 368 490 631 628 65 34 177
142 220 213 17 27 37 51 45 53 7 2 109 127 226 278 364 471 563 710 858 1028
190 207 224 248 260 320 38 76 105 124 197 142 57 12 66 11 313 -50 237 -58
261 -66 340 -113 210 -123 540 -358 741 -526 116 -97 185 -117 320 -91 120 23
222 95 304 216 22 33 200 234 395 447 195 213 365 405 378 427 13 22 26 40 29
40 3 0 3 -4 0 -8z m-3631 -862 c-74 -89 -133 -150 -143 -149 -9 0 -179 8 -377
18 l-360 19 -205 -50 c-291 -71 -402 -127 -549 -278 -265 -272 -359 -378 -396
-446 -24 -46 -78 -115 -146 -190 -60 -66 -109 -124 -109 -130 0 -6 -9 -19 -20
-29 -11 -10 -20 -22 -20 -28 0 -5 -11 -22 -25 -39 -14 -16 -25 -40 -25 -53 0
-14 -13 -44 -28 -69 -25 -39 -30 -58 -35 -148 -11 -177 -68 -350 -134 -408
-18 -17 -38 -30 -43 -30 -15 0 -90 -71 -90 -85 0 -17 -23 -25 -67 -25 -29 0
-48 11 -104 61 -63 56 -71 67 -90 131 -37 121 -27 287 21 362 35 55 55 72 87
79 l31 6 -16 -31 c-25 -51 -26 -118 -3 -156 23 -35 75 -72 104 -72 64 0 112
70 112 165 0 33 4 63 8 66 4 3 93 194 198 423 104 230 202 436 218 459 38 57
60 101 115 235 30 74 78 163 138 255 50 78 93 143 93 145 1 1 157 27 347 57
l345 55 469 14 c258 7 549 14 647 15 l178 1 -126 -150z m337 -2531 l227 -30
292 10 293 9 70 -64 c39 -35 74 -64 78 -64 10 0 105 -146 173 -266 38 -67 79
-119 169 -212 66 -67 150 -146 188 -175 63 -47 78 -67 177 -227 59 -96 138
-216 175 -265 160 -211 332 -494 465 -765 42 -85 100 -192 130 -237 l53 -83
74 0 c66 0 79 3 126 34 105 66 295 166 403 211 132 55 159 85 -245 -275 -162
-145 -312 -279 -332 -298 l-37 -35 -159 136 c-88 74 -175 143 -193 153 -130
66 -367 260 -529 430 -266 280 -397 473 -676 999 -175 329 -216 385 -324 440
-101 51 -134 56 -485 66 -181 5 -441 13 -576 17 l-246 7 215 262 c195 237 218
261 241 257 14 -2 128 -18 253 -35z"/>
<path d="M7164 8161 c-89 -54 -85 -138 9 -215 56 -46 105 -66 160 -66 35 0 49
6 72 30 27 29 28 30 16 87 -16 79 -49 125 -112 157 -63 31 -103 33 -145 7z"/>
<path d="M7720 8128 c-53 -21 -108 -52 -126 -69 -62 -60 -66 -167 -8 -205 34
-23 83 -11 199 49 107 56 158 108 158 162 0 35 -36 71 -87 88 -40 13 -44 12
-136 -25z"/>
<path d="M7458 7862 c-59 -7 -131 -117 -144 -218 -5 -44 -3 -59 15 -88 35 -57
140 -77 182 -35 23 23 49 79 49 106 1 10 9 36 20 58 21 44 25 96 10 125 -18
33 -82 58 -132 52z"/>
<path d="M6266 3770 c6 -36 11 -46 18 -39 2 2 -3 20 -10 39 l-14 35 6 -35z"/>
<path d="M8917 5196 c-240 -107 -456 -197 -479 -201 -64 -11 -106 -33 -158
-81 -55 -51 -69 -87 -45 -114 15 -16 32 -18 178 -13 l162 5 175 88 c96 48 240
113 320 144 330 128 451 216 412 300 -10 23 -85 66 -113 66 -8 0 -211 -88
-452 -194z"/>
<path d="M8705 4714 c-69 -25 -359 -157 -377 -172 -23 -20 -22 -66 1 -119 21
-45 62 -73 108 -73 72 1 336 147 385 214 35 48 35 66 2 106 -42 49 -71 60
-119 44z"/>
<path d="M5856 2499 c-94 -49 -136 -64 -381 -135 -338 -98 -765 -186 -808
-167 -45 21 -81 5 -114 -49 l-31 -50 18 -51 c13 -36 25 -55 42 -61 15 -5 116
3 283 24 234 28 292 39 578 111 287 72 329 85 426 134 157 78 211 138 183 200
-12 26 -87 85 -107 85 -6 0 -47 -18 -89 -41z"/>
<path d="M4685 1589 c-793 -253 -872 -281 -897 -309 -58 -64 -18 -180 62 -180
27 0 1675 517 1721 541 76 38 116 109 89 159 -12 22 -57 55 -85 63 -11 2 -400
-117 -890 -274z"/>
</g>
</svg>
