<?xml version="1.0" standalone="no"?>
<!DOCTYPE svg PUBLIC "-//W3C//DTD SVG 20010904//EN"
 "http://www.w3.org/TR/2001/REC-SVG-20010904/DTD/svg10.dtd">
<svg version="1.0" xmlns="http://www.w3.org/2000/svg"
 width="1024.000000pt" height="1024.000000pt" viewBox="0 0 1024.000000 1024.000000"
 preserveAspectRatio="xMidYMid meet">
<metadata>
Created by potrace 1.10, written by Peter Selinger 2001-2011
</metadata>
<g transform="translate(0.000000,1024.000000) scale(0.100000,-0.100000)"
fill="#000000" stroke="none">
<path d="M5250 8822 c-8 -2 -30 -18 -47 -35 l-33 -31 0 -443 0 -443 -99 0
c-171 0 -470 -35 -696 -81 -529 -108 -880 -282 -1214 -605 -145 -140 -176
-181 -167 -226 3 -19 20 -50 37 -71 49 -60 73 -54 176 49 294 292 601 459
1089 593 188 51 468 91 698 100 l179 6 -6 -325 c-7 -330 -13 -430 -44 -760
-19 -202 -16 -197 -91 -230 -45 -20 -346 -197 -1192 -698 -452 -268 -883 -541
-1875 -1186 -77 -50 -234 -152 -349 -226 -118 -77 -213 -145 -219 -157 -15
-33 8 -100 48 -140 25 -25 42 -33 69 -33 55 0 93 20 233 122 269 198 579 407
878 593 359 223 1160 728 1329 838 212 137 437 267 626 360 87 43 233 129 366
217 l221 146 69 -28 c57 -24 852 -283 1757 -573 126 -40 389 -142 725 -281
515 -213 530 -220 678 -316 171 -110 188 -118 250 -118 38 0 51 6 88 40 54 50
61 73 33 104 -34 36 -579 346 -681 387 -807 324 -1133 442 -1935 703 -448 146
-816 268 -818 270 -5 4 66 1239 72 1272 4 19 18 21 282 41 264 21 307 27 856
128 360 66 604 115 650 131 233 84 397 218 397 325 0 27 -68 96 -104 105 -34
8 -76 -10 -151 -67 -93 -70 -360 -182 -585 -244 -165 -46 -283 -62 -813 -111
-408 -37 -520 -45 -526 -35 -16 25 -22 398 -10 559 10 139 10 164 -4 213 -27
91 -104 176 -147 161z"/>
<path d="M4859 5093 l-39 -38 10 -1390 c8 -1130 7 -1420 -4 -1553 -7 -89 -16
-165 -19 -169 -4 -3 -193 -15 -419 -25 -327 -15 -435 -17 -520 -8 -253 25
-474 128 -648 300 -75 75 -76 76 -142 240 -44 111 -76 210 -97 303 -34 152
-44 177 -92 225 -44 45 -94 65 -144 57 -62 -9 -105 -54 -105 -108 0 -17 72
-186 164 -387 l164 -358 111 -128 c115 -133 171 -177 314 -250 87 -44 252
-100 337 -113 36 -6 94 -16 130 -22 36 -6 180 -13 320 -16 255 -5 365 1 555
32 433 70 644 95 882 106 299 14 625 6 905 -20 350 -34 498 -76 918 -264 l255
-113 390 -296 c345 -262 403 -310 503 -416 127 -136 168 -162 254 -162 91 0
133 53 97 123 -22 42 -112 152 -163 200 -368 346 -838 676 -1284 901 -320 162
-604 232 -1130 277 -176 15 -776 6 -927 -15 -259 -34 -385 -49 -388 -45 -5 5
13 1343 18 1347 2 2 144 7 317 12 378 11 504 32 750 126 455 173 778 476 905
849 33 97 123 500 123 550 0 131 -121 247 -183 176 -8 -9 -50 -176 -92 -371
l-78 -355 -70 -100 c-98 -139 -146 -194 -241 -274 -186 -157 -406 -270 -641
-330 -22 -6 -155 -24 -295 -40 -140 -17 -309 -37 -375 -44 -66 -8 -121 -14
-122 -13 -1 1 -7 251 -14 556 -11 494 -10 571 4 700 17 157 13 210 -22 278
-24 47 -84 102 -112 102 -11 0 -38 -17 -60 -37z"/>
<path d="M6620 3526 c0 -22 24 -96 31 -96 4 0 1 21 -8 48 -16 47 -23 62 -23
48z"/>
</g>
</svg>
