<?xml version="1.0" standalone="no"?>
<!DOCTYPE svg PUBLIC "-//W3C//DTD SVG 20010904//EN"
 "http://www.w3.org/TR/2001/REC-SVG-20010904/DTD/svg10.dtd">
<svg version="1.0" xmlns="http://www.w3.org/2000/svg"
 width="1024.000000pt" height="1024.000000pt" viewBox="0 0 1024.000000 1024.000000"
 preserveAspectRatio="xMidYMid meet">
<metadata>
Created by potrace 1.10, written by Peter Selinger 2001-2011
</metadata>
<g transform="translate(0.000000,1024.000000) scale(0.100000,-0.100000)"
fill="#000000" stroke="none">
<path d="M3272 8990 c-246 -51 -435 -96 -454 -107 -51 -30 -72 -66 -71 -123 1
-57 22 -97 57 -106 15 -3 62 5 113 21 363 109 617 152 968 162 316 9 509 -25
722 -127 246 -117 435 -294 538 -505 87 -177 125 -355 125 -587 0 -191 -21
-314 -87 -508 -31 -91 -57 -167 -59 -169 -2 -2 -41 11 -86 29 -198 78 -422
144 -784 229 -50 12 -119 33 -155 46 -96 39 -339 102 -474 125 -167 28 -321
35 -441 20 -117 -14 -165 -32 -199 -72 -31 -37 -35 -114 -7 -148 16 -20 37
-23 417 -51 l400 -30 220 -64 c121 -35 276 -75 345 -90 197 -41 608 -161 634
-185 21 -20 -218 -282 -368 -402 -199 -160 -458 -309 -666 -383 -61 -22 -575
-138 -775 -176 -101 -19 -136 -49 -138 -117 -1 -27 5 -40 28 -59 70 -57 42
-57 390 2 176 30 368 68 427 84 288 82 590 240 811 425 52 44 464 465 503 515
2 2 31 -17 65 -42 34 -26 86 -53 115 -62 66 -19 217 -136 354 -274 53 -53 201
-228 331 -388 l234 -293 222 -407 c304 -558 441 -860 591 -1303 66 -194 76
-234 327 -1210 173 -672 178 -695 270 -1210 98 -544 121 -653 182 -830 55
-162 72 -194 108 -198 41 -4 112 47 132 96 17 40 9 84 -28 152 -10 20 -123
504 -254 1095 -130 583 -268 1201 -306 1373 -99 444 -187 736 -331 1097 -84
210 -117 278 -455 926 l-300 575 -305 360 c-247 290 -326 377 -415 452 -119
101 -230 181 -339 244 l-71 42 34 73 c267 579 147 1327 -278 1728 -205 192
-529 350 -855 416 -88 18 -151 23 -324 25 l-215 3 -423 -89z"/>
<path d="M5189 4646 c-4 -4 -297 -40 -1288 -160 -414 -50 -414 -50 -419 -128
-4 -62 27 -88 103 -88 29 0 326 25 661 55 335 30 742 66 904 80 162 14 304 28
316 30 36 8 74 51 74 86 0 72 -114 129 -259 129 -48 0 -90 -2 -92 -4z"/>
</g>
</svg>
