<?xml version="1.0" standalone="no"?>
<!DOCTYPE svg PUBLIC "-//W3C//DTD SVG 20010904//EN"
 "http://www.w3.org/TR/2001/REC-SVG-20010904/DTD/svg10.dtd">
<svg version="1.0" xmlns="http://www.w3.org/2000/svg"
 width="1024.000000pt" height="1024.000000pt" viewBox="0 0 1024.000000 1024.000000"
 preserveAspectRatio="xMidYMid meet">
<metadata>
Created by potrace 1.10, written by Peter Selinger 2001-2011
</metadata>
<g transform="translate(0.000000,1024.000000) scale(0.100000,-0.100000)"
fill="#000000" stroke="none">
<path d="M5343 9000 c-51 -33 -93 -62 -93 -65 0 -11 65 -122 120 -206 94 -142
149 -299 170 -484 6 -53 10 -429 10 -927 l0 -836 -27 -6 c-118 -25 -1759 -276
-1803 -276 -32 0 -162 9 -290 20 -128 11 -235 18 -237 16 -2 -2 9 -50 26 -106
23 -79 37 -110 63 -137 51 -53 128 -101 200 -127 37 -13 77 -30 90 -38 39 -25
137 -58 174 -58 19 0 74 11 122 24 190 54 1603 356 1665 356 16 0 17 -101 15
-2142 -3 -2339 1 -2185 -60 -2250 l-29 -31 -92 6 c-65 3 -114 13 -167 32 -95
35 -269 122 -374 187 -68 42 -86 49 -115 44 -19 -3 -38 -11 -42 -18 -7 -11 87
-106 255 -259 79 -71 323 -336 408 -443 44 -54 107 -140 140 -190 136 -202
256 -287 316 -224 49 53 126 249 156 398 35 176 36 245 36 2612 l0 2343 683
46 c733 49 729 48 771 106 11 14 21 47 23 72 4 39 0 53 -26 93 -18 25 -55 66
-84 90 -44 38 -70 50 -181 82 -119 36 -134 38 -207 31 -44 -3 -188 -33 -320
-66 -194 -47 -648 -135 -654 -126 -2 2 20 1442 29 1906 l7 324 -44 42 c-24 23
-77 57 -118 77 -65 31 -407 168 -419 168 -3 0 -47 -27 -97 -60z"/>
<path d="M3372 4728 c-7 -7 -12 -17 -12 -22 0 -6 68 -78 151 -161 233 -231
411 -442 545 -648 173 -263 274 -339 375 -280 64 38 99 170 79 299 -17 112
-68 204 -169 304 -130 128 -255 209 -591 383 -243 125 -344 159 -378 125z"/>
</g>
</svg>
