<?xml version="1.0" standalone="no"?>
<!DOCTYPE svg PUBLIC "-//W3C//DTD SVG 20010904//EN"
 "http://www.w3.org/TR/2001/REC-SVG-20010904/DTD/svg10.dtd">
<svg version="1.0" xmlns="http://www.w3.org/2000/svg"
 width="1024.000000pt" height="1024.000000pt" viewBox="0 0 1024.000000 1024.000000"
 preserveAspectRatio="xMidYMid meet">
<metadata>
Created by potrace 1.10, written by Peter Selinger 2001-2011
</metadata>
<g transform="translate(0.000000,1024.000000) scale(0.100000,-0.100000)"
fill="#000000" stroke="none">
<path d="M4669 8825 c-19 -6 -83 -42 -144 -79 -211 -129 -513 -268 -775 -358
-160 -55 -792 -225 -924 -249 -251 -46 -509 -155 -655 -278 -30 -25 -226 -233
-437 -461 -488 -529 -638 -666 -994 -903 -235 -157 -305 -236 -345 -388 -19
-72 -19 -192 0 -233 23 -47 48 -58 189 -81 l129 -20 -101 -122 c-55 -67 -107
-125 -115 -130 -8 -4 -55 -55 -105 -113 -87 -100 -92 -107 -94 -155 -4 -99 5
-130 44 -154 15 -9 298 -71 327 -71 3 0 -5 -10 -17 -23 -34 -36 -55 -105 -56
-188 l-1 -76 60 -67 c78 -90 132 -115 312 -151 l143 -28 -26 -30 c-44 -53 -57
-95 -58 -194 l-1 -92 65 -67 c120 -122 255 -202 415 -245 64 -18 108 -22 220
-22 128 0 203 9 845 106 483 73 738 116 810 136 361 102 757 283 1051 482 l55
37 168 -73 c238 -105 272 -118 449 -169 537 -156 1090 -257 1589 -292 71 -5
101 -11 111 -23 33 -39 38 -116 47 -717 7 -418 14 -632 24 -709 9 -63 15 -198
16 -315 0 -185 6 -252 59 -686 64 -533 65 -535 139 -568 54 -24 100 -18 126
17 36 49 34 165 -8 417 -44 263 -61 408 -81 700 -26 394 -35 624 -35 959 0
283 -4 368 -30 646 -16 176 -32 335 -35 353 -8 42 -66 108 -108 121 -18 5 -95
15 -172 22 -174 14 -1437 228 -1558 264 -211 61 -321 115 -697 340 -201 120
-272 158 -295 157 -40 -3 -95 -65 -95 -109 0 -32 16 -50 144 -165 l39 -35
-264 -135 c-145 -75 -329 -161 -409 -191 -140 -53 -168 -60 -840 -191 -382
-74 -738 -143 -790 -152 -111 -19 -280 -14 -375 11 -86 23 -213 87 -284 142
-50 40 -60 53 -60 78 0 53 14 61 169 89 168 31 196 39 225 66 17 16 112 36
501 105 463 82 490 88 829 185 l350 101 327 161 c288 143 330 161 350 151 13
-6 45 -18 71 -27 42 -13 53 -14 82 -2 46 20 69 57 63 104 -9 66 -116 249 -189
324 -80 82 -103 87 -159 30 -50 -49 -58 -98 -31 -176 l20 -56 -52 -26 c-29
-15 -100 -53 -159 -86 -202 -112 -475 -223 -705 -288 -164 -46 -1374 -237
-1628 -256 -229 -18 -290 -15 -363 16 -48 21 -132 97 -132 119 0 15 11 19 114
45 163 42 294 112 431 232 55 48 83 61 334 159 l274 107 121 9 c236 18 486 71
706 151 143 52 427 193 499 247 53 40 57 41 105 34 28 -5 128 -8 221 -7 185 1
351 23 521 69 51 14 96 25 101 25 5 0 176 -113 379 -251 458 -311 561 -364
828 -421 134 -29 376 -30 516 -4 126 24 227 52 256 71 55 36 72 111 40 173
-20 39 -37 44 -110 32 -95 -15 -564 -43 -631 -37 -125 10 -413 121 -596 230
-113 66 -272 183 -354 261 -69 64 -179 144 -259 185 l-55 29 -90 -29 c-117
-37 -237 -64 -386 -85 -102 -14 -171 -15 -465 -10 l-345 7 -74 -25 c-97 -34
-245 -43 -357 -23 -153 28 -276 92 -389 203 -58 56 -73 77 -76 105 l-5 36 61
-51 c73 -62 135 -99 218 -131 57 -21 80 -23 282 -26 156 -2 226 0 242 9 12 6
29 33 38 59 9 27 32 84 50 128 47 113 60 189 43 240 l-14 40 406 0 c329 1 428
4 529 18 382 54 675 162 971 359 125 84 158 112 176 155 17 39 8 67 -32 104
-60 55 -60 55 -190 -27 -205 -129 -419 -229 -623 -290 -83 -26 -104 -27 -656
-49 l-570 -23 -280 37 c-154 21 -271 40 -260 44 85 27 221 47 325 47 260 0
501 53 791 174 47 20 145 49 218 66 214 48 548 153 640 200 45 22 108 90 117
124 14 59 -48 102 -135 92 -30 -4 -361 -96 -736 -206 l-680 -200 -265 -20
c-146 -11 -277 -20 -292 -20 -16 0 -69 -28 -134 -71 -131 -86 -298 -246 -384
-367 -61 -87 -116 -138 -345 -324 -55 -45 -134 -104 -175 -131 -107 -70 -317
-170 -445 -211 -145 -46 -385 -94 -385 -77 0 4 18 33 41 64 29 42 73 80 162
144 175 124 262 191 407 314 199 168 284 253 713 712 428 457 448 475 581 517
34 11 355 105 715 210 650 188 654 190 870 287 119 54 251 117 294 142 83 46
331 151 359 151 9 0 27 -13 40 -29 31 -38 968 -736 1178 -877 299 -201 516
-325 832 -478 401 -195 809 -352 1211 -466 114 -33 117 -35 117 -62 0 -37 23
-93 58 -137 14 -20 38 -61 53 -91 14 -30 82 -138 151 -240 210 -310 493 -798
519 -894 6 -22 107 -228 224 -457 117 -229 216 -432 220 -450 4 -19 18 -52 31
-75 13 -22 24 -49 24 -58 0 -10 109 -222 241 -472 215 -405 246 -458 288 -492
73 -61 170 -82 203 -44 58 66 36 122 -234 577 -155 260 -243 418 -264 475 -52
143 -309 674 -468 969 -31 58 -60 118 -65 135 -4 17 -143 263 -308 546 -165
283 -312 538 -326 565 -14 28 -53 92 -86 144 -36 56 -61 106 -61 121 0 15 -8
34 -17 43 -22 19 -366 155 -488 192 -204 61 -561 198 -809 310 -313 139 -365
171 -1069 643 l-682 457 -146 146 c-190 191 -233 222 -350 254 -37 10 -53 10
-80 0z m-2039 -2135 c19 -6 79 -17 133 -24 54 -8 101 -17 104 -20 3 -3 -20
-75 -52 -161 l-57 -155 -42 -11 c-22 -6 -62 -9 -88 -6 -64 8 -217 60 -313 108
-72 35 -84 45 -118 99 -20 33 -37 66 -37 73 0 30 84 78 178 102 63 16 231 13
292 -5z m-730 -522 c40 -81 115 -154 239 -235 148 -96 233 -127 402 -142 68
-6 149 -14 179 -18 l54 -6 -92 -28 c-58 -17 -130 -30 -190 -34 -345 -23 -501
-58 -741 -170 -279 -129 -528 -205 -798 -244 -140 -21 -373 -39 -373 -29 0 3
36 50 80 104 97 119 285 310 373 379 34 28 85 81 113 119 49 69 49 69 262 186
153 84 243 141 320 203 l107 85 20 -61 c12 -34 32 -83 45 -109z"/>
<path d="M6994 4477 c-22 -19 -25 -28 -19 -55 3 -18 11 -32 15 -32 5 0 26 -16
46 -37 24 -24 63 -92 115 -200 67 -140 87 -173 136 -222 85 -85 193 -118 213
-65 21 53 13 68 -85 165 -52 51 -95 100 -95 110 0 9 -16 40 -35 68 -19 28 -35
63 -35 77 0 15 -8 51 -17 81 -17 53 -17 53 -100 93 -46 22 -90 40 -98 40 -8 0
-26 -10 -41 -23z"/>
<path d="M7289 4493 c-22 -5 -39 -46 -39 -92 0 -29 8 -47 36 -80 49 -57 100
-81 171 -81 80 0 100 8 112 40 11 34 14 32 -101 94 -59 32 -88 53 -88 65 0 9
-13 27 -30 39 -30 22 -32 23 -61 15z"/>
<path d="M8200 3469 c-91 -49 -175 -89 -187 -89 -25 0 -281 -39 -300 -45 -8
-2 -9 -13 -4 -31 6 -22 21 -34 72 -56 59 -26 71 -28 154 -24 184 10 298 59
423 183 45 45 82 88 82 97 0 16 -46 57 -64 55 -6 0 -85 -41 -176 -90z"/>
<path d="M8183 3025 c-11 -8 -93 -30 -182 -49 -88 -18 -168 -39 -176 -46 -27
-22 -18 -65 19 -94 31 -23 43 -26 120 -26 118 0 183 25 258 101 32 31 58 66
58 76 0 10 -13 26 -29 36 -35 21 -41 21 -68 2z"/>
<path d="M8075 2635 c-69 -18 -82 -26 -99 -54 -10 -17 -17 -34 -15 -35 2 -2
65 -7 141 -11 l136 -7 17 31 c20 40 12 67 -25 86 -37 19 -56 18 -155 -10z"/>
</g>
</svg>
