<?xml version="1.0" standalone="no"?>
<!DOCTYPE svg PUBLIC "-//W3C//DTD SVG 20010904//EN"
 "http://www.w3.org/TR/2001/REC-SVG-20010904/DTD/svg10.dtd">
<svg version="1.0" xmlns="http://www.w3.org/2000/svg"
 width="1024.000000pt" height="1024.000000pt" viewBox="0 0 1024.000000 1024.000000"
 preserveAspectRatio="xMidYMid meet">
<metadata>
Created by potrace 1.10, written by Peter Selinger 2001-2011
</metadata>
<g transform="translate(0.000000,1024.000000) scale(0.100000,-0.100000)"
fill="#000000" stroke="none">
<path d="M5562 8600 c-38 -9 -86 -51 -108 -93 -13 -25 -13 -37 1 -104 8 -42
20 -82 26 -89 15 -18 -27 -21 -536 -39 -242 -8 -472 -18 -511 -21 l-71 -5 -49
60 c-27 33 -56 60 -64 60 -32 2 -78 -38 -94 -81 l-17 -44 -527 -28 c-499 -27
-533 -30 -646 -58 -140 -34 -192 -64 -289 -168 -78 -82 -129 -180 -157 -300
-30 -130 -120 -379 -322 -895 l-185 -470 -183 -647 c-173 -610 -184 -645 -197
-620 -22 42 -50 67 -102 92 -83 38 -155 7 -167 -72 -12 -69 62 -170 154 -214
31 -15 58 -28 59 -29 2 -1 -9 -31 -23 -66 -15 -35 -30 -74 -35 -86 l-8 -23
-47 30 c-36 22 -54 28 -78 23 -44 -8 -72 -38 -85 -88 -18 -70 16 -130 91 -164
l36 -16 -160 -455 c-159 -454 -570 -1765 -589 -1878 -27 -166 20 -341 130
-480 68 -86 61 -84 436 -95 475 -12 1205 2 1650 33 725 51 1154 70 1584 70
244 0 541 -5 660 -10 119 -6 1082 -26 2141 -45 1762 -32 1931 -34 1985 -19 59
15 138 54 150 74 4 7 14 5 26 -4 25 -17 96 -10 121 12 10 8 29 37 43 65 47 95
54 59 -290 1449 -173 700 -381 1523 -463 1828 l-149 555 32 35 c51 56 65 82
65 121 0 67 -81 135 -130 109 -12 -6 -24 -10 -26 -7 -3 2 -27 85 -54 183 l-49
179 35 30 c49 43 74 84 74 123 0 44 -13 67 -56 96 l-36 24 -44 -19 -45 -19 -8
23 c-5 12 -61 177 -124 367 -164 489 -202 648 -299 1270 l-23 145 -63 7 c-73
8 -125 36 -144 78 -15 35 -28 39 -28 9 0 -18 -4 -20 -22 -14 -13 5 -415 13
-893 19 l-871 11 10 27 c19 55 -49 138 -113 138 -15 0 -40 -17 -69 -45 -42
-43 -44 -47 -40 -90 l6 -45 -90 0 -90 0 16 23 c9 12 28 46 43 75 35 73 28 120
-23 173 -21 22 -41 39 -44 38 -3 -1 -20 -5 -38 -9z m1403 -540 c664 -17 812
-23 824 -35 9 -8 21 -69 33 -157 39 -300 116 -619 218 -908 70 -200 496 -1694
565 -1981 64 -273 143 -565 226 -839 32 -108 174 -652 314 -1210 248 -980 256
-1016 241 -1043 -9 -16 -16 -46 -16 -68 0 -46 -15 -50 -60 -17 -30 22 -30 22
-118 5 -284 -55 -2242 -47 -3070 12 -74 5 -136 11 -138 13 -1 2 4 24 13 49 14
39 15 50 3 78 -13 32 -81 81 -112 81 -8 0 -36 -16 -60 -35 -48 -36 -68 -75
-68 -131 l0 -34 -65 0 c-61 0 -65 1 -65 23 0 38 -48 123 -86 152 -27 21 -41
25 -64 20 -41 -9 -81 -64 -88 -121 l-5 -45 -286 8 c-392 11 -1146 8 -1431 -6
-434 -21 -857 -53 -895 -67 -10 -4 -10 4 2 40 20 59 11 106 -28 144 -34 33
-97 57 -125 48 -10 -4 -35 -21 -54 -38 -30 -28 -35 -38 -33 -76 2 -47 21 -85
60 -118 l25 -21 -139 -12 c-76 -6 -157 -14 -180 -17 l-41 -6 5 40 c7 52 -19
106 -66 138 -49 33 -74 30 -122 -13 l-41 -37 4 -68 4 -68 -206 1 c-113 1 -350
4 -528 8 l-323 6 -34 40 c-26 31 -36 55 -46 110 -28 164 -72 11 725 2475 615
1898 745 2290 842 2537 70 176 131 317 156 355 56 86 68 117 61 164 -4 31 6
72 46 190 71 203 107 251 223 296 49 19 163 25 1478 88 784 37 1490 68 1570
69 80 0 509 -8 955 -19z"/>
<path d="M6545 7540 c-16 -5 -201 -15 -410 -24 -529 -22 -595 -27 -595 -40 0
-6 -14 -12 -32 -12 -53 -2 -74 -40 -88 -157 -9 -74 -10 -105 -1 -116 6 -9 23
-36 38 -60 l27 -44 -1 -796 c0 -785 -1 -797 -22 -862 -20 -62 -20 -71 -8 -138
8 -39 16 -73 18 -75 7 -6 621 -105 729 -117 154 -17 483 -7 639 21 235 41 463
114 676 214 103 49 114 57 169 125 32 40 65 86 73 102 19 39 18 206 -2 284
-19 76 -83 205 -132 270 -31 41 -47 80 -86 213 -35 120 -58 179 -87 223 -21
33 -42 78 -45 101 -7 39 -43 144 -64 185 -4 10 -13 32 -19 48 -29 85 -184 420
-208 453 -76 99 -176 167 -289 197 -63 16 -228 19 -280 5z m-340 -1330 c-4 -6
9 -10 32 -10 43 -1 92 -23 74 -34 -15 -10 -14 -97 2 -118 7 -9 39 -21 72 -27
49 -9 61 -9 75 4 13 12 23 13 41 6 13 -5 18 -10 10 -10 -12 -1 -12 -4 1 -18
54 -64 46 -273 -13 -337 -11 -11 -19 -24 -19 -28 0 -16 -61 -68 -72 -62 -7 4
-8 2 -4 -4 4 -7 3 -12 -3 -12 -5 0 -13 5 -16 10 -3 6 -19 17 -36 25 -25 13
-33 14 -62 1 -39 -16 -77 -64 -77 -98 0 -17 -3 -19 -9 -9 -5 8 -11 9 -15 3 -4
-6 -20 -7 -48 0 -56 12 -67 24 -29 31 37 8 107 74 116 110 12 47 -55 117 -113
117 -63 0 -155 -78 -156 -134 l-1 -34 -30 32 c-17 17 -43 53 -58 80 -24 44
-27 58 -27 151 0 107 8 137 56 202 13 17 24 36 24 41 0 5 24 26 53 46 37 26
63 36 90 36 20 0 54 9 74 20 20 10 40 17 45 14 4 -3 8 0 8 5 0 6 5 11 11 11 5
0 7 -4 4 -10z"/>
<path d="M4295 7349 c-590 -91 -651 -98 -780 -98 -234 2 -333 -33 -396 -139
-12 -20 -30 -46 -39 -57 -10 -11 -41 -87 -69 -170 -28 -82 -54 -156 -56 -164
-4 -9 -22 2 -60 38 -29 28 -57 51 -60 51 -3 0 -19 -7 -35 -15 -37 -19 -70 -74
-70 -115 0 -36 32 -95 60 -110 28 -15 73 -12 98 6 12 8 22 13 22 11 0 -5 -55
-165 -69 -199 l-10 -28 -37 25 c-45 30 -95 41 -123 25 -32 -17 -61 -70 -61
-111 0 -63 46 -100 137 -111 20 -3 16 -16 -73 -238 -52 -129 -104 -271 -115
-315 -56 -214 -5 -348 174 -459 l72 -44 188 -12 c120 -8 281 -11 445 -7 254 6
264 7 857 91 368 53 601 82 603 76 11 -31 36 -40 109 -40 l75 0 -7 258 c-3
141 -7 442 -8 667 -2 388 -1 418 22 560 19 122 22 172 18 265 -7 128 -44 294
-83 372 -13 26 -24 56 -24 68 0 16 -6 20 -32 19 -18 -1 -321 -46 -673 -100z
m-285 -1130 c0 -5 5 -7 10 -4 17 10 40 -15 40 -42 0 -16 14 -40 39 -64 34 -34
44 -39 85 -39 42 0 48 -3 57 -27 5 -16 18 -34 27 -41 14 -11 17 -31 17 -120
-1 -110 -7 -134 -49 -181 -11 -13 -15 -21 -9 -17 9 5 11 2 7 -8 -9 -24 -24
-19 -24 8 0 40 -11 57 -57 86 -40 26 -47 27 -74 16 -32 -13 -89 -89 -89 -118
0 -51 42 -88 101 -88 25 0 28 -2 17 -14 -7 -8 -16 -12 -20 -10 -3 2 -14 -3
-22 -12 -9 -8 -16 -11 -16 -6 0 5 -11 7 -25 4 -14 -2 -25 -8 -25 -13 0 -15
-112 -10 -170 9 -31 9 -66 27 -80 40 -13 12 -34 22 -47 22 -13 0 -23 6 -23 14
0 8 -11 27 -25 42 -14 15 -25 32 -25 39 0 7 -6 18 -14 24 -7 6 -17 33 -21 59
-16 99 -5 242 21 263 8 6 14 16 14 22 0 5 11 20 25 33 14 13 25 26 25 29 0 12
29 35 44 35 8 0 22 8 32 18 9 9 42 25 73 34 64 19 181 24 181 7z m145 -639
c-3 -5 -12 -10 -18 -10 -7 0 -6 4 3 10 19 12 23 12 15 0z"/>
<path d="M3792 6082 c-85 -27 -108 -70 -77 -145 31 -75 78 -87 155 -37 60 38
89 88 72 124 -9 20 -83 79 -94 75 -2 -1 -27 -8 -56 -17z"/>
<path d="M7665 4704 c-80 -9 -448 -18 -1103 -28 -541 -8 -985 -16 -988 -19 -5
-5 -6 -254 -2 -339 2 -34 -3 -54 -18 -75 -20 -27 -20 -34 -12 -308 6 -193 6
-310 -2 -375 -18 -160 -23 -434 -10 -595 6 -82 15 -211 20 -287 9 -153 31
-246 65 -278 23 -21 58 -24 1277 -100 918 -57 1258 -75 1273 -67 11 6 58 14
104 17 82 7 85 8 121 46 55 59 84 172 85 329 0 133 -15 206 -65 314 -17 35
-30 80 -30 100 0 20 -11 53 -25 76 -15 24 -25 55 -25 78 0 21 -18 79 -40 133
-22 54 -40 113 -40 134 0 20 -13 69 -29 107 -16 39 -32 90 -36 114 -4 24 -16
60 -26 79 -11 19 -19 48 -19 65 0 16 -32 127 -71 245 -48 149 -74 246 -84 317
-15 112 -43 179 -94 227 -24 23 -31 38 -31 68 0 38 0 38 -37 37 -21 -1 -92 -8
-158 -15z m-832 -921 c26 -3 47 -9 47 -14 0 -5 7 -9 15 -9 9 0 21 -4 28 -10 7
-5 28 -22 47 -38 19 -16 43 -31 53 -35 9 -4 17 -14 17 -24 0 -10 9 -29 19 -42
l19 -25 -43 -27 c-50 -32 -65 -55 -65 -101 0 -32 31 -95 54 -110 6 -4 31 -8
55 -8 37 0 42 -2 36 -17 -4 -10 -8 -22 -9 -28 -8 -37 -32 -92 -47 -109 -11
-11 -19 -28 -19 -38 0 -10 -8 -21 -17 -25 -10 -4 -34 -19 -53 -35 -19 -16 -40
-33 -47 -38 -7 -6 -19 -10 -28 -10 -8 0 -15 -4 -15 -10 0 -5 -18 -10 -40 -10
-23 0 -40 -5 -40 -11 0 -8 -17 -10 -49 -7 -28 3 -49 2 -48 -1 1 -3 -1 -7 -5
-8 -18 -6 -28 -2 -28 13 0 8 -5 12 -11 9 -6 -4 -20 2 -32 13 -33 30 -60 41
-105 43 -23 2 -39 5 -37 8 7 7 -26 41 -40 41 -15 0 -45 43 -45 63 0 8 -8 17
-18 19 -25 7 -47 101 -47 198 0 97 22 191 47 198 10 2 18 11 18 19 0 21 30 63
46 63 7 0 19 8 26 18 7 11 23 24 36 31 12 6 22 18 22 26 0 16 25 10 52 -12 23
-20 77 -13 106 15 14 12 31 22 38 22 8 0 14 5 14 11 0 7 8 9 23 4 12 -3 43 -9
70 -12z"/>
<path d="M6655 3637 c-35 -12 -50 -28 -71 -76 -20 -44 -11 -77 29 -101 61 -38
143 -18 185 44 34 50 27 85 -23 112 -53 29 -84 34 -120 21z"/>
<path d="M6703 3360 c-61 -25 -81 -128 -38 -193 23 -34 30 -37 71 -37 38 0 50
5 75 33 57 61 61 113 11 159 -49 46 -77 55 -119 38z"/>
<path d="M3920 4634 c-393 -8 -791 -11 -885 -8 -194 6 -252 -4 -344 -59 -63
-38 -161 -140 -161 -168 0 -11 -21 -46 -46 -76 -25 -31 -52 -70 -61 -87 -8
-17 -17 -33 -19 -35 -1 -2 -16 6 -32 18 -53 37 -111 22 -143 -39 -26 -48 -24
-91 7 -152 l26 -52 -17 -56 c-10 -30 -21 -65 -26 -78 l-9 -23 -37 19 c-64 31
-139 -2 -156 -69 -11 -42 46 -103 115 -123 13 -4 -10 -70 -144 -408 -88 -222
-169 -415 -179 -429 -27 -38 -52 -154 -44 -203 16 -103 85 -180 201 -226 33
-13 88 -36 123 -52 34 -16 88 -34 120 -39 43 -7 371 12 1431 84 l1375 92 3 35
c2 19 10 64 18 99 11 49 12 67 3 78 -9 10 -9 20 0 39 13 29 34 210 52 444 10
138 15 449 19 1110 0 113 -3 244 -6 293 l-7 87 -231 -2 c-127 0 -553 -7 -946
-14z m-267 -1067 c-9 -77 59 -122 147 -96 49 14 89 18 88 9 0 -3 0 -14 1 -25
1 -16 3 -17 10 -6 8 12 11 8 17 -15 4 -16 15 -41 25 -55 10 -14 23 -46 28 -70
13 -55 14 -186 2 -193 -5 -3 -12 -22 -15 -41 -4 -21 -13 -35 -21 -35 -11 0
-15 -12 -15 -40 0 -33 -3 -40 -20 -40 -10 0 -33 -18 -51 -40 -24 -30 -40 -40
-61 -40 -17 0 -28 -5 -28 -14 0 -30 -199 -51 -280 -30 -38 10 -100 44 -100 55
0 4 11 10 25 13 34 9 102 76 110 109 9 36 -14 71 -63 96 -76 39 -162 -9 -162
-89 0 -31 -3 -38 -15 -33 -20 7 -41 48 -50 96 -4 20 -12 37 -17 37 -6 0 -8 34
-4 93 3 50 6 105 7 121 1 19 4 24 9 15 5 -7 6 -18 3 -24 -3 -5 0 -5 7 2 7 6
27 9 45 6 40 -6 82 14 124 62 42 48 42 88 -1 133 -23 23 -27 31 -14 26 13 -5
17 -4 12 4 -5 8 -2 10 9 6 8 -4 21 -2 28 4 17 13 73 24 134 26 28 0 50 3 48 7
-2 3 7 5 20 5 21 0 22 -4 18 -39z"/>
<path d="M3740 3269 c-58 -23 -78 -94 -40 -141 15 -20 33 -27 76 -33 52 -6 58
-5 84 20 61 59 60 107 -3 145 -35 21 -77 25 -117 9z"/>
<path d="M9363 4048 c-47 -12 -83 -61 -83 -112 0 -23 6 -51 14 -62 8 -11 17
-36 21 -56 8 -42 45 -81 96 -98 31 -11 39 -10 62 4 14 10 34 38 43 62 l17 44
33 -25 c50 -38 103 -35 143 10 17 20 34 47 37 60 19 76 -127 144 -182 84 -16
-18 -17 -17 -38 13 -41 61 -106 91 -163 76z"/>
</g>
</svg>
