<?xml version="1.0" standalone="no"?>
<!DOCTYPE svg PUBLIC "-//W3C//DTD SVG 20010904//EN"
 "http://www.w3.org/TR/2001/REC-SVG-20010904/DTD/svg10.dtd">
<svg version="1.0" xmlns="http://www.w3.org/2000/svg"
 width="1024.000000pt" height="1024.000000pt" viewBox="0 0 1024.000000 1024.000000"
 preserveAspectRatio="xMidYMid meet">
<metadata>
Created by potrace 1.10, written by Peter Selinger 2001-2011
</metadata>
<g transform="translate(0.000000,1024.000000) scale(0.100000,-0.100000)"
fill="#000000" stroke="none">
<path d="M4300 8135 c-1003 -115 -1029 -119 -1336 -220 -193 -64 -411 -159
-588 -255 -163 -89 -193 -109 -337 -231 -113 -95 -124 -108 -244 -283 -134
-197 -145 -219 -206 -396 -137 -395 -185 -822 -149 -1315 20 -262 84 -632 150
-870 17 -60 178 -490 357 -955 245 -636 345 -883 404 -1000 73 -144 119 -273
119 -335 0 -12 8 -33 18 -46 11 -13 22 -49 25 -79 5 -39 13 -60 28 -73 38 -31
146 -88 225 -118 147 -57 230 -66 979 -110 668 -39 718 -41 1080 -35 209 3
430 10 490 15 61 5 391 60 735 120 511 91 648 118 750 152 505 164 1026 478
1309 787 379 413 597 888 710 1547 16 94 45 256 64 360 71 380 91 611 91 1010
0 439 -37 770 -130 1155 -63 266 -120 407 -228 569 -146 219 -304 364 -501
462 -188 92 -227 99 -955 174 l-635 65 -655 5 -655 5 -915 -105z m2106 -140
c979 -29 1129 -40 1348 -101 184 -52 241 -82 429 -225 188 -145 219 -180 300
-339 111 -220 222 -733 257 -1185 9 -120 -3 -748 -16 -812 -4 -21 -10 -23 -64
-23 -32 0 -344 -23 -692 -50 -2096 -166 -2467 -194 -2472 -189 -2 2 -11 600
-20 1329 -9 729 -18 1391 -20 1473 l-5 147 53 0 c29 0 435 -11 902 -25z
m-1202 -177 c13 -386 57 -2760 51 -2766 -5 -5 -956 -92 -3043 -277 -227 -21
-415 -35 -416 -34 -7 8 -97 450 -111 543 -55 371 -44 770 31 1145 84 423 385
837 761 1049 318 179 996 369 1503 422 217 23 1095 97 1156 99 l62 1 6 -182z
m3462 -2768 l31 0 -18 -96 c-10 -53 -28 -160 -39 -237 -69 -465 -217 -956
-372 -1235 -196 -351 -450 -617 -791 -828 -115 -71 -382 -205 -547 -275 -273
-114 -641 -219 -942 -269 -108 -18 -725 -66 -734 -57 -2 2 1 66 6 143 5 76 17
249 25 384 9 135 45 558 81 940 35 382 69 745 74 805 28 302 51 529 54 532 3
3 270 21 1756 118 223 15 590 40 815 55 226 16 446 27 490 24 44 -2 94 -4 111
-4z m-3410 -417 c-16 -495 -57 -919 -140 -1473 -51 -341 -79 -614 -102 -1008
-4 -73 -10 -112 -18 -112 -6 0 -456 18 -1001 40 -896 35 -996 41 -1054 59
-127 39 -238 145 -259 246 -6 28 -198 533 -427 1124 -228 591 -414 1075 -413
1076 3 2 2305 173 3038 226 146 10 279 21 295 22 17 2 43 5 59 5 l29 2 -7
-207z"/>
<path d="M6445 3614 c3 -12 12 -41 20 -65 11 -34 14 -37 10 -13 -2 18 -11 47
-19 65 -9 19 -13 25 -11 13z"/>
</g>
</svg>
