<?xml version="1.0" standalone="no"?>
<!DOCTYPE svg PUBLIC "-//W3C//DTD SVG 20010904//EN"
 "http://www.w3.org/TR/2001/REC-SVG-20010904/DTD/svg10.dtd">
<svg version="1.0" xmlns="http://www.w3.org/2000/svg"
 width="1024.000000pt" height="1024.000000pt" viewBox="0 0 1024.000000 1024.000000"
 preserveAspectRatio="xMidYMid meet">
<metadata>
Created by potrace 1.10, written by Peter Selinger 2001-2011
</metadata>
<g transform="translate(0.000000,1024.000000) scale(0.100000,-0.100000)"
fill="#000000" stroke="none">
<path d="M8424 7821 c-28 -10 -73 -31 -99 -46 -60 -36 -373 -91 -965 -170
-852 -115 -2219 -313 -2765 -401 -975 -157 -1681 -278 -2278 -389 l-299 -55
-96 54 c-140 78 -472 210 -608 242 l-63 14 -143 -91 c-79 -51 -155 -100 -170
-111 l-28 -19 28 -23 c15 -12 56 -42 92 -66 223 -149 399 -448 469 -796 37
-182 51 -362 76 -994 28 -691 67 -1638 90 -2200 20 -483 38 -607 107 -745 42
-83 111 -178 141 -194 67 -36 233 22 308 107 55 62 111 180 139 291 13 54 27
91 35 91 7 0 498 40 1091 90 2749 228 4460 370 4476 370 10 0 35 -31 65 -82
123 -207 301 -310 436 -250 131 58 275 272 351 524 126 418 271 1275 441 2609
73 579 158 956 260 1158 43 86 105 247 105 273 0 70 -155 248 -359 412 -427
343 -671 459 -837 397z m-113 -789 c94 -31 145 -71 176 -140 l26 -56 -48 -605
c-29 -367 -52 -610 -59 -617 -9 -9 -2707 -296 -2768 -294 -17 0 -18 33 -18
548 0 522 -1 548 -19 579 -41 67 -172 134 -406 208 -82 26 -145 49 -140 51 45
15 949 155 1343 208 764 104 1259 146 1642 142 178 -3 214 -6 271 -24z m-3648
-403 c-14 -14 38 -124 92 -199 18 -25 49 -77 69 -116 113 -223 149 -436 144
-849 l-3 -229 -530 -78 c-291 -42 -894 -131 -1340 -196 -445 -66 -812 -118
-813 -116 -2 1 -19 267 -37 591 -19 323 -37 625 -40 669 l-7 82 69 11 c37 7
583 108 1213 226 630 117 1156 214 1170 214 18 1 21 -2 13 -10z m3697 -1594
c0 -29 -121 -972 -141 -1093 -41 -263 -114 -581 -138 -605 -4 -4 -140 -16
-302 -27 -738 -50 -2113 -140 -2135 -140 l-24 0 0 810 c0 446 1 810 3 811 3 1
2689 257 2715 258 13 1 22 -5 22 -14z m-3390 -1123 l0 -788 -257 -27 c-326
-34 -1667 -176 -2042 -217 -157 -16 -286 -29 -287 -27 -7 7 -87 1458 -81 1464
4 3 602 90 1329 193 728 103 1326 188 1331 189 4 0 7 -354 7 -787z"/>
</g>
</svg>
