<?xml version="1.0" standalone="no"?>
<!DOCTYPE svg PUBLIC "-//W3C//DTD SVG 20010904//EN"
 "http://www.w3.org/TR/2001/REC-SVG-20010904/DTD/svg10.dtd">
<svg version="1.0" xmlns="http://www.w3.org/2000/svg"
 width="1024.000000pt" height="1024.000000pt" viewBox="0 0 1024.000000 1024.000000"
 preserveAspectRatio="xMidYMid meet">
<metadata>
Created by potrace 1.10, written by Peter Selinger 2001-2011
</metadata>
<g transform="translate(0.000000,1024.000000) scale(0.100000,-0.100000)"
fill="#000000" stroke="none">
<path d="M5196 9845 c-15 -8 -46 -15 -67 -15 -37 0 -55 -15 -356 -287 -175
-158 -415 -375 -533 -482 -118 -107 -235 -213 -260 -235 -25 -23 -280 -254
-567 -514 -560 -507 -552 -497 -540 -585 8 -57 36 -91 78 -95 29 -2 50 9 140
77 58 43 133 109 165 146 32 37 151 153 264 258 l205 190 4 -34 c4 -39 -16
-1595 -25 -1955 l-6 -242 -172 -31 c-94 -18 -216 -40 -271 -50 -191 -35 -352
-118 -494 -255 -183 -176 -336 -447 -397 -705 -14 -57 -40 -156 -59 -220 -115
-390 -206 -850 -269 -1351 -37 -296 -53 -482 -72 -858 -16 -311 -16 -339 -1
-405 9 -40 21 -151 27 -247 5 -96 14 -227 20 -290 22 -260 31 -662 20 -965 -6
-165 -13 -315 -16 -332 -8 -49 13 -112 41 -125 36 -16 88 -2 124 36 28 29 34
44 46 127 47 320 50 620 12 1119 -46 583 -50 679 -44 1000 7 365 39 735 98
1130 61 405 227 1164 292 1330 89 230 209 450 298 545 134 142 187 162 739
279 l445 94 620 26 c341 15 820 36 1065 47 576 27 810 18 1187 -47 188 -32
735 -166 808 -198 17 -8 41 -17 54 -21 46 -14 132 -106 163 -175 97 -213 161
-416 198 -635 44 -256 50 -808 15 -1340 -9 -126 -22 -329 -30 -450 -29 -436
-67 -1492 -61 -1685 6 -204 -7 -683 -26 -910 -20 -251 -15 -290 42 -331 49
-35 72 -34 117 8 l41 38 92 2125 c85 1966 91 2136 80 2275 -25 326 -87 617
-190 890 -54 146 -84 199 -144 258 -62 60 -134 99 -321 169 -294 110 -587 177
-936 213 l-57 6 -6 442 c-11 780 -12 1820 -1 1843 9 20 25 10 235 -157 124
-99 233 -182 243 -185 28 -9 123 15 142 36 22 24 22 68 1 107 -8 15 -66 78
-128 140 -98 97 -178 158 -615 470 -277 197 -668 473 -870 613 -201 140 -389
273 -417 296 -56 44 -128 94 -136 94 -3 0 -18 -7 -34 -15z m122 -333 c19 -15
79 -49 132 -77 59 -31 184 -116 324 -220 125 -93 353 -263 506 -377 l279 -207
-5 -73 c-2 -40 -9 -244 -15 -453 -6 -209 -12 -381 -14 -383 -2 -2 -216 28
-477 66 l-473 70 -752 33 c-548 23 -766 29 -802 22 l-51 -10 -6 35 c-4 20 -4
157 -1 306 l5 270 49 46 c26 25 91 84 143 131 52 47 306 277 563 511 l469 426
46 -45 c25 -25 61 -57 80 -71z m-759 -1812 c288 -22 551 -40 585 -40 34 0 332
-29 661 -65 330 -36 628 -65 663 -65 l62 0 0 -310 0 -310 -55 0 c-31 0 -72 -7
-93 -16 -33 -14 -156 -16 -1229 -12 l-1193 3 0 351 c0 193 3 385 6 427 l7 77
31 0 c17 0 267 -18 555 -40z m1929 -1020 l52 0 0 -250 0 -250 -37 0 c-21 0
-253 9 -515 20 l-477 20 -768 -50 c-422 -27 -778 -50 -791 -50 l-23 0 6 163
c3 89 8 216 11 282 l6 120 1241 -2 c683 -2 1266 -3 1295 -3z"/>
<path d="M7940 5450 c19 -13 30 -13 30 0 0 6 -10 10 -22 10 -19 0 -20 -2 -8
-10z"/>
<path d="M3603 4698 c-11 -13 -28 -43 -39 -68 -24 -60 -28 -269 -16 -1040 11
-668 12 -677 91 -844 90 -191 234 -327 470 -445 274 -138 550 -224 876 -273
137 -20 539 -17 685 6 220 34 391 74 468 111 75 35 175 120 212 179 10 17 39
53 64 80 25 27 57 72 71 100 33 68 182 689 201 836 8 63 23 221 34 350 23 269
60 579 94 790 13 80 23 146 21 148 -7 8 -210 41 -216 34 -10 -10 -37 -125 -51
-216 l-12 -79 -101 -48 c-68 -33 -122 -52 -170 -59 -38 -6 -475 -24 -970 -40
-495 -17 -927 -35 -960 -41 -140 -25 -316 4 -447 73 -51 27 -58 35 -58 60 0
19 -10 40 -30 59 -28 29 -29 32 -27 122 1 77 -2 99 -20 133 -46 87 -126 121
-170 72z m2923 -640 c-3 -18 -15 -114 -26 -213 -11 -99 -35 -319 -55 -490
l-35 -310 -91 -255 -90 -255 -84 -73 c-89 -77 -138 -101 -300 -147 -202 -58
-334 -75 -580 -75 -305 0 -557 44 -860 151 -268 94 -396 184 -508 360 -98 153
-115 280 -124 897 l-6 402 69 -32 c56 -26 84 -33 154 -36 47 -2 576 6 1175 18
l1090 21 130 34 c72 18 134 34 138 34 4 1 6 -14 3 -31z"/>
</g>
</svg>
