<?xml version="1.0" standalone="no"?>
<!DOCTYPE svg PUBLIC "-//W3C//DTD SVG 20010904//EN"
 "http://www.w3.org/TR/2001/REC-SVG-20010904/DTD/svg10.dtd">
<svg version="1.0" xmlns="http://www.w3.org/2000/svg"
 width="1024.000000pt" height="1024.000000pt" viewBox="0 0 1024.000000 1024.000000"
 preserveAspectRatio="xMidYMid meet">
<metadata>
Created by potrace 1.10, written by Peter Selinger 2001-2011
</metadata>
<g transform="translate(0.000000,1024.000000) scale(0.100000,-0.100000)"
fill="#000000" stroke="none">
<path d="M4705 9074 c-38 -25 -77 -50 -85 -55 -12 -8 -6 -17 35 -52 84 -71
124 -116 152 -170 51 -101 55 -133 60 -433 l5 -282 -38 -6 c-22 -3 -140 -17
-264 -31 -232 -27 -500 -57 -1085 -125 -187 -21 -457 -46 -600 -56 -261 -18
-360 -16 -727 13 l-77 6 30 -99 c28 -93 33 -102 89 -154 77 -74 135 -104 307
-160 l145 -47 141 33 c85 20 534 91 1122 178 l981 145 444 31 c767 52 1002 68
1845 125 451 30 837 60 859 66 50 14 82 46 95 97 27 100 -72 193 -285 268
l-126 44 -111 -10 c-62 -6 -285 -38 -497 -71 -303 -47 -532 -75 -1075 -130
-379 -38 -696 -69 -702 -69 -21 0 -12 423 13 658 l7 63 -44 42 c-25 23 -78 59
-119 79 -71 35 -389 148 -413 148 -7 0 -43 -21 -82 -46z"/>
<path d="M6350 7279 c-124 -36 -228 -52 -1329 -204 l-1194 -166 -61 26 c-34
14 -128 38 -211 54 l-150 28 -78 -39 -78 -39 30 -24 c16 -14 63 -78 104 -143
l75 -117 137 -654 c75 -360 146 -680 157 -710 29 -77 84 -131 132 -131 45 0
88 21 109 53 19 30 47 122 47 158 0 33 -54 25 575 89 270 27 621 63 780 79
160 17 495 51 745 76 250 25 473 48 495 51 54 6 100 36 113 72 9 27 6 34 -50
103 -33 41 -69 81 -80 90 -21 16 -20 17 47 220 37 112 91 254 120 314 48 101
136 235 155 235 8 0 110 151 110 164 0 4 -34 52 -76 107 -78 103 -163 180
-297 266 -136 89 -158 92 -327 42z m-9 -376 c31 -27 32 -27 25 -97 -6 -68
-158 -852 -167 -860 -2 -2 -89 -22 -194 -45 -157 -34 -259 -48 -595 -81 -223
-22 -625 -62 -895 -89 -269 -27 -492 -47 -494 -45 -5 4 -130 888 -131 922 0
16 6 22 22 22 12 0 327 52 699 115 670 114 681 115 1085 149 225 18 455 34
511 35 96 1 103 0 134 -26z"/>
<path d="M7840 5109 c-124 -26 -472 -91 -775 -143 l-550 -95 -1835 -187 -1835
-187 -135 18 -135 18 -61 56 -60 57 -184 51 -183 52 -78 -40 c-44 -21 -79 -42
-79 -45 0 -12 40 -81 53 -92 7 -6 53 -110 100 -229 l87 -218 140 -1175 c77
-646 147 -1224 156 -1285 36 -258 92 -392 171 -411 35 -9 110 23 137 59 35 46
57 120 62 212 4 54 -27 471 -95 1309 -56 676 -101 1242 -101 1258 0 24 4 28
28 28 16 0 284 29 598 65 313 35 1484 159 2603 275 1859 192 2036 209 2057
195 34 -22 53 -66 60 -132 4 -41 -21 -277 -85 -803 -94 -768 -120 -948 -172
-1180 -87 -381 -149 -553 -226 -620 -29 -26 -41 -30 -93 -30 -140 0 -436 62
-747 156 -62 19 -120 34 -128 34 -19 0 -53 -67 -39 -79 5 -5 157 -111 337
-237 387 -268 419 -298 503 -471 58 -119 87 -150 148 -160 107 -17 239 114
363 362 88 174 213 555 297 905 86 354 134 612 330 1772 32 188 53 283 70 320
14 30 33 82 42 115 l17 61 -30 64 c-58 123 -109 176 -293 307 -107 76 -177
121 -192 120 -13 -1 -124 -23 -248 -50z"/>
<path d="M6095 3999 c-22 -5 -56 -22 -75 -37 -56 -45 -161 -82 -336 -121 -50
-11 -392 -59 -760 -106 l-668 -86 -46 19 c-25 10 -114 32 -198 47 l-153 29
-80 -40 -80 -39 39 -35 c22 -19 69 -82 104 -140 l65 -105 141 -655 c108 -496
149 -668 170 -710 45 -91 119 -123 188 -81 31 19 74 91 74 124 0 9 5 19 11 22
12 8 1593 175 1655 175 95 0 194 56 194 109 0 10 -18 43 -40 75 -22 31 -40 63
-40 69 0 19 218 795 236 842 27 68 75 135 120 166 55 38 73 88 55 151 -18 59
-114 150 -231 219 -166 97 -263 127 -345 108z m-120 -425 c27 -11 45 -60 45
-121 -1 -62 -104 -860 -113 -869 -16 -16 -350 -77 -597 -109 -157 -20 -404
-52 -549 -70 -146 -19 -267 -32 -270 -29 -7 7 -152 976 -147 982 8 8 1508 220
1563 221 28 1 59 -2 68 -5z"/>
</g>
</svg>
