<?xml version="1.0" standalone="no"?>
<!DOCTYPE svg PUBLIC "-//W3C//DTD SVG 20010904//EN"
 "http://www.w3.org/TR/2001/REC-SVG-20010904/DTD/svg10.dtd">
<svg version="1.0" xmlns="http://www.w3.org/2000/svg"
 width="1024.000000pt" height="1024.000000pt" viewBox="0 0 1024.000000 1024.000000"
 preserveAspectRatio="xMidYMid meet">
<metadata>
Created by potrace 1.10, written by Peter Selinger 2001-2011
</metadata>
<g transform="translate(0.000000,1024.000000) scale(0.100000,-0.100000)"
fill="#000000" stroke="none">
<path d="M4940 10162 c-19 -16 -21 -22 -11 -40 11 -20 10 -21 -17 -16 -26 5
-30 3 -36 -26 -12 -63 -9 -70 29 -70 28 0 35 -4 35 -20 0 -17 -5 -19 -43 -14
-40 6 -44 4 -57 -22 -8 -16 -14 -33 -15 -38 0 -5 25 -16 55 -25 60 -18 84 -51
33 -44 -15 2 -37 -3 -47 -12 -17 -13 -18 -18 -7 -39 8 -13 23 -27 35 -31 19
-6 18 -7 -10 -16 -64 -18 -67 -60 -6 -74 18 -4 35 -20 50 -46 13 -22 22 -42
20 -43 -2 -2 -25 -18 -53 -36 -27 -19 -115 -86 -195 -150 -80 -64 -156 -123
-170 -130 -14 -7 -53 -36 -87 -64 -61 -49 -63 -53 -60 -93 2 -35 -1 -43 -18
-46 -48 -8 40 -27 128 -27 l92 0 -3 -70 c-3 -50 -7 -70 -17 -70 -30 0 -45 -31
-45 -90 l0 -59 -146 -121 c-137 -114 -149 -121 -180 -116 -31 6 -36 3 -108
-81 l-75 -88 30 -13 c16 -7 27 -17 24 -22 -10 -17 16 -22 177 -31 89 -5 164
-11 166 -14 3 -3 -3 -42 -14 -88 l-19 -82 -75 -5 c-77 -5 -114 -19 -140 -51
-8 -9 -70 -69 -137 -131 -193 -178 -419 -422 -434 -465 -6 -21 -16 -43 -21
-50 -5 -6 -8 -29 -6 -50 4 -54 28 -63 169 -63 64 0 143 -3 176 -6 l60 -7 -9
-41 c-4 -22 -13 -117 -19 -211 -5 -93 -11 -170 -12 -172 -2 -1 -55 -3 -119 -4
-89 -1 -122 -5 -142 -18 -26 -16 -692 -801 -727 -856 -14 -21 -19 -44 -17 -75
3 -53 25 -69 91 -69 23 0 152 -7 286 -15 243 -15 243 -15 272 -42 41 -39 41
-105 1 -142 l-29 -27 -17 -320 c-19 -362 -24 -425 -38 -425 -5 0 -22 -10 -38
-21 -26 -20 -33 -21 -91 -10 -76 13 -62 23 -203 -148 -257 -314 -586 -786
-586 -844 0 -47 31 -84 89 -111 57 -25 64 -26 264 -26 l206 0 6 -287 c2 -159
7 -372 10 -475 l6 -188 -43 0 c-38 0 -47 4 -80 42 -36 42 -36 43 -57 24 -12
-11 -21 -30 -21 -43 0 -21 -4 -23 -48 -23 -43 0 -52 4 -87 40 -52 53 -80 53
-96 0 -11 -36 -15 -40 -45 -40 -20 0 -38 7 -46 18 -7 10 -26 33 -41 52 -27 31
-28 32 -47 15 -11 -10 -22 -32 -26 -50 l-6 -33 -78 -4 c-91 -4 -120 -21 -120
-73 0 -56 27 -78 104 -83 l67 -4 -6 -117 c-3 -64 -11 -154 -16 -201 -10 -78
-14 -88 -48 -125 -57 -61 -78 -106 -86 -182 -4 -37 -16 -90 -26 -116 -11 -26
-19 -56 -19 -65 0 -10 -28 -78 -63 -152 -48 -102 -145 -262 -395 -653 -226
-352 -332 -526 -332 -545 -1 -61 -68 -133 -324 -347 -30 -25 -37 -36 -32 -53
7 -21 13 -22 127 -22 l121 0 58 45 c32 25 78 69 103 97 76 91 588 836 661 962
146 254 296 598 325 743 l16 83 200 -1 c110 -1 391 -5 625 -9 234 -5 548 -9
698 -9 212 0 272 -3 266 -12 -5 -9 7 -10 51 -5 50 6 57 5 51 -10 -4 -10 5 -29
25 -52 29 -33 31 -39 26 -94 -5 -54 -3 -58 16 -62 131 -26 720 -35 982 -15 83
7 151 13 153 14 2 2 -8 20 -23 40 -47 71 -22 195 46 231 31 15 37 16 84 1 117
-38 280 -47 985 -58 508 -7 688 -13 696 -22 22 -24 154 -267 154 -283 0 -9 66
-175 147 -368 l147 -351 118 -162 c209 -286 360 -437 583 -584 66 -43 132 -88
147 -99 23 -18 41 -20 161 -20 l136 0 -8 28 c-23 79 -93 155 -181 197 -85 41
-86 41 -240 165 -308 249 -550 583 -694 956 -20 51 -61 139 -91 197 -39 73
-59 124 -66 168 -9 58 -31 116 -100 264 -13 28 -28 68 -34 90 -10 39 -11 40
-65 48 -30 4 -79 7 -108 5 -28 -2 -52 1 -52 5 0 5 -10 5 -21 2 l-22 -7 8 263
c4 145 8 265 9 266 1 1 19 -2 39 -8 21 -5 42 -7 47 -4 6 3 10 30 10 59 0 47
-3 54 -25 64 -14 7 -36 12 -47 12 -12 0 -36 5 -54 12 -31 11 -33 15 -36 67 -3
47 -6 56 -23 59 -11 1 -35 -7 -52 -18 -30 -18 -33 -25 -33 -66 l0 -46 -31 6
c-17 3 -35 6 -40 6 -5 0 -9 13 -9 28 0 36 -57 115 -77 108 -8 -3 -21 -6 -28
-6 -12 0 -26 -35 -51 -127 -5 -18 -75 -16 -102 3 -17 11 -22 25 -22 56 0 22
-6 46 -14 52 -11 9 -12 46 -5 203 7 189 -1 579 -14 600 -8 12 126 23 293 23
l117 0 25 38 c39 58 43 93 18 144 -12 24 -35 53 -50 65 -16 13 -61 69 -101
125 -121 169 -263 334 -436 506 l-165 162 -95 0 -96 0 6 143 c4 78 7 163 7
190 0 35 4 47 15 47 12 0 14 6 8 28 -5 15 -7 53 -6 85 1 31 -1 57 -5 57 -9 0
-7 254 2 302 4 20 0 62 -8 96 l-14 60 367 -5 368 -6 59 48 c32 26 60 49 62 50
11 9 -33 53 -93 93 -91 60 -220 191 -270 275 -22 37 -88 132 -146 211 -92 124
-169 254 -169 285 0 11 -60 58 -110 86 -30 16 -51 19 -152 16 l-118 -3 1 230
1 230 182 7 c99 4 186 12 193 17 8 7 -56 91 -230 301 -133 161 -252 312 -265
337 -14 28 -22 58 -20 79 3 41 6 41 -169 48 -68 2 -123 7 -123 11 0 3 7 43 16
90 8 46 13 89 11 96 -6 15 184 36 320 36 79 0 82 1 103 29 12 17 16 32 11 36
-6 3 -8 12 -5 20 9 23 -11 50 -192 261 -194 225 -171 210 -335 221 l-99 6 0
65 0 64 129 -3 c71 -2 132 -1 135 2 4 3 2 18 -3 32 -8 19 -5 34 10 63 15 30
16 41 7 50 -40 37 -415 263 -538 324 -80 40 -147 74 -149 76 -2 2 1 28 8 58
12 55 23 66 67 66 19 0 24 5 24 24 0 22 -6 26 -47 32 l-48 7 34 12 c60 20 66
84 9 85 -23 0 -24 42 -3 60 22 19 19 61 -5 67 -20 5 -25 19 -21 58 4 42 -9 62
-49 78 -27 10 -40 21 -40 35 0 10 -11 24 -25 30 -32 15 -29 15 -55 -6z m144
-811 c3 -4 56 -39 118 -77 l113 -69 -135 -3 c-74 -2 -200 0 -279 3 l-144 7 29
24 c55 45 127 88 178 106 55 19 112 23 120 9z m90 -331 l121 0 -3 -65 -4 -65
-122 0 c-68 0 -178 3 -245 7 -136 7 -123 -2 -136 92 l-6 44 137 -6 c76 -4 192
-7 258 -7z m509 -340 c16 -30 46 -83 68 -118 21 -35 39 -65 39 -68 0 -10 -60
-3 -101 11 -24 9 -83 36 -130 60 -94 48 -139 52 -160 14 -5 -11 -26 -27 -46
-37 -21 -10 -43 -31 -52 -49 -12 -23 -23 -33 -41 -33 -14 0 -110 -5 -213 -10
l-189 -8 -51 38 c-28 21 -69 45 -91 54 -23 8 -54 20 -70 26 l-29 11 22 16 c31
21 81 102 81 130 l0 23 468 -2 467 -3 28 -55z m-173 -409 c0 -5 -7 -25 -15
-44 -8 -20 -15 -61 -15 -92 l0 -55 -113 0 c-63 0 -263 3 -445 7 l-332 6 0 53
c0 29 -5 65 -10 80 -6 15 -8 29 -5 32 3 3 155 9 338 12 536 10 597 10 597 1z
m-1054 -351 c44 -19 48 -19 65 -4 17 15 60 16 511 9 271 -4 564 -10 651 -14
l158 -6 32 -85 c44 -115 93 -185 196 -280 l86 -80 -152 0 -151 0 -10 29 c-12
34 -239 211 -271 211 -23 0 -44 -31 -35 -53 4 -10 -13 -28 -50 -54 -36 -25
-55 -45 -56 -59 0 -11 -13 -32 -28 -47 l-28 -27 -292 0 c-161 0 -292 4 -292 9
0 4 -31 32 -69 62 -61 47 -68 57 -64 80 8 40 -27 71 -75 67 -31 -3 -42 -10
-72 -53 -19 -27 -62 -76 -95 -107 l-60 -58 -245 0 -245 0 176 178 c97 97 195
205 218 240 l42 62 54 0 c31 0 73 -8 101 -20z m1452 -857 l-3 -228 -47 -3 -48
-3 0 208 c0 114 3 218 6 231 5 19 13 22 50 22 l44 0 -2 -227z m-456 -3 l-3
-220 -69 0 -70 0 0 220 0 220 73 0 72 0 -3 -220z m238 210 c0 -5 -4 -10 -10
-10 -6 0 -10 -78 -10 -215 l0 -215 -46 0 -46 0 6 63 c3 34 8 112 11 172 3 61
8 134 11 163 l5 52 40 0 c21 0 39 -4 39 -10z m-1405 -137 c-10 -174 -11 -242
-1 -270 8 -23 7 -23 -69 -23 l-78 0 7 168 c6 153 3 191 -19 245 -6 15 1 17 80
17 l88 0 -8 -137z m245 -78 l0 -215 -50 0 -50 0 0 215 0 215 50 0 50 0 0 -215z
m280 0 l0 -215 -81 0 -82 0 7 61 c3 34 6 131 6 215 l0 154 75 0 75 0 0 -215z
m360 0 l0 -215 -110 0 -110 0 0 215 0 215 110 0 110 0 0 -215z m-125 -375
c479 -6 956 -13 1060 -16 l190 -6 85 -104 c47 -57 94 -121 105 -142 11 -21 63
-99 116 -173 125 -175 118 -162 72 -154 -201 34 -637 159 -663 189 -22 27 -97
49 -141 42 -50 -8 -113 -39 -131 -64 -14 -20 -133 -102 -202 -139 -112 -60
-338 -132 -496 -158 -55 -8 -158 -15 -243 -15 -140 0 -154 2 -235 30 -187 66
-392 199 -531 344 -26 27 -40 34 -55 30 -12 -4 -68 -43 -126 -87 -119 -91
-217 -143 -346 -185 -93 -30 -215 -57 -234 -50 -6 2 90 125 213 273 123 149
240 301 261 338 l39 69 196 -6 c108 -3 588 -11 1066 -16z m-1020 -570 c28 -28
84 -72 125 -97 41 -26 84 -52 95 -60 16 -11 -36 -13 -325 -13 l-345 1 77 33
c90 40 225 118 271 158 18 15 37 27 42 28 6 0 33 -23 60 -50z m1961 14 c72
-33 292 -84 799 -186 19 -4 -732 -4 -1075 0 -153 2 -154 2 -124 20 113 64 155
94 204 144 68 69 88 72 196 22z m-742 -371 l878 -6 -8 -96 c-10 -111 -9 -160
1 -253 l8 -68 -99 0 c-55 0 -551 9 -1104 20 -553 11 -1048 20 -1101 20 l-95 0
7 53 c4 28 8 99 8 156 1 57 6 121 13 142 l11 39 301 0 c166 0 696 -3 1180 -7z
m-1386 -558 c2 -2 -13 -57 -32 -123 -21 -69 -36 -140 -36 -171 l0 -51 -58 0
-58 0 22 163 c13 89 23 170 24 181 0 17 6 18 67 12 37 -4 69 -9 71 -11z m254
-35 c-14 -145 -14 -156 7 -226 11 -39 21 -76 21 -83 0 -7 -25 -11 -71 -11
l-72 0 6 53 c3 28 15 81 27 116 17 49 21 77 17 123 l-5 59 36 -3 c33 -3 37 -6
34 -28z m288 -1 c0 -5 -5 -29 -11 -52 -8 -33 -7 -65 5 -140 22 -136 26 -127
-44 -127 -33 0 -60 4 -60 8 0 5 7 33 16 63 20 65 13 150 -15 215 l-20 44 65 0
c38 0 64 -4 64 -11z m292 1 l79 0 -5 -57 c-3 -32 -8 -106 -12 -165 l-6 -108
-74 0 -74 0 6 68 c8 83 -15 174 -59 234 l-29 41 47 -6 c26 -4 83 -7 127 -7z
m394 -10 l63 0 -21 -47 c-17 -37 -22 -68 -22 -138 -1 -49 3 -102 8 -117 l8
-28 -86 0 c-98 0 -92 -9 -76 105 13 87 -1 163 -38 207 l-27 31 64 -6 c35 -4
92 -7 127 -7z m322 -57 c-4 -32 -9 -109 -9 -171 l-1 -113 -41 3 -42 3 -5 120
c-5 108 -8 125 -33 168 l-28 47 84 0 84 0 -9 -57z m362 37 c-6 -11 -14 -90
-17 -175 l-6 -155 -69 0 c-79 0 -72 -15 -72 150 -1 96 -3 109 -29 153 l-28 47
116 0 c113 0 115 0 105 -20z m350 -52 c0 -40 -3 -124 -7 -185 l-6 -113 -47 0
c-26 0 -62 3 -79 6 l-31 7 2 116 c1 101 -1 121 -20 158 -12 22 -33 51 -48 62
l-27 21 132 0 131 0 0 -72z m-2454 -383 c20 -4 19 -6 -13 -106 -18 -56 -37
-107 -43 -114 -5 -6 -23 -43 -38 -81 -18 -43 -78 -138 -159 -250 -71 -99 -137
-199 -146 -222 l-17 -42 -206 0 c-149 0 -203 3 -198 11 44 72 395 559 483 672
l116 147 100 -5 c55 -4 109 -8 121 -10z m410 -28 c1 -1 -8 -60 -21 -132 -24
-135 -32 -154 -214 -535 -17 -36 -31 -80 -31 -97 l0 -33 -181 0 c-141 0 -179
3 -172 13 4 6 41 59 83 117 123 169 158 225 211 330 56 112 123 305 115 334
-5 18 0 19 102 12 58 -4 107 -8 108 -9z m438 -17 c90 -1 99 -2 81 -15 -39 -28
-51 -45 -75 -107 -22 -59 -24 -78 -28 -315 -2 -142 0 -272 6 -298 l10 -45
-260 0 -260 0 26 43 c79 127 151 294 186 429 6 24 22 71 36 105 28 71 31 128
9 180 l-15 36 91 -6 c51 -4 138 -7 193 -7z m399 -20 c3 -3 -6 -38 -19 -78 -34
-100 -38 -164 -25 -400 9 -169 14 -209 31 -242 l20 -40 -126 0 -126 0 5 53 c4
28 14 187 23 351 l17 300 -39 34 -39 34 137 -4 c75 -1 139 -5 141 -8z m337
-19 c7 -14 7 -20 -1 -23 -22 -7 -23 -104 -1 -170 12 -35 33 -105 47 -157 37
-137 77 -231 135 -316 l51 -75 -226 0 c-124 0 -225 2 -225 5 0 2 11 20 24 40
33 49 42 112 25 188 -8 38 -12 104 -10 172 8 261 8 256 -22 308 l-28 47 110 0
c99 0 111 -2 121 -19z m413 -31 c-4 -34 -1 -64 10 -92 8 -24 19 -67 22 -96 4
-29 20 -79 36 -110 16 -31 54 -115 84 -185 30 -71 68 -146 85 -168 l32 -39
-145 0 -144 0 -17 67 c-19 77 -53 156 -94 217 -28 42 -90 220 -113 324 -9 45
-8 58 8 92 l18 39 112 1 112 0 -6 -50z m390 18 c-4 -28 16 -74 117 -277 109
-220 130 -255 202 -338 l80 -93 -140 0 -139 0 -86 129 c-97 145 -174 304 -187
384 -14 88 -28 130 -60 180 l-30 47 125 0 124 0 -6 -32z m399 -35 c29 -38 143
-171 254 -298 111 -126 205 -241 209 -255 4 -14 28 -47 54 -74 l46 -48 -79 6
c-43 3 -112 6 -153 6 -51 0 -73 4 -73 13 -1 6 -21 28 -46 47 -118 91 -257 268
-280 358 -18 70 -62 166 -104 226 -26 39 -29 48 -18 66 11 17 23 20 75 20 l61
0 54 -67z m226 -1082 c2 -161 0 -241 -7 -246 -7 -4 -11 -83 -11 -231 l0 -224
-37 0 c-58 0 -67 10 -60 67 5 46 4 51 -21 65 -21 12 -34 13 -57 5 -38 -13 -41
-18 -49 -78 l-7 -49 -39 0 c-37 0 -40 2 -40 29 0 16 3 43 6 60 6 28 10 31 43
32 20 0 30 3 24 6 -16 6 -18 169 -3 178 6 4 10 57 10 126 0 73 4 119 10 119 6
0 10 42 10 105 0 69 -4 105 -11 105 -6 0 -18 9 -28 21 -16 20 -21 21 -1071 29
-580 5 -1057 4 -1060 0 -3 -5 -126 -14 -273 -21 -256 -12 -269 -14 -293 -35
-13 -13 -24 -32 -24 -43 0 -11 -4 -23 -10 -26 -6 -4 -10 -126 -10 -332 0 -383
-2 -393 -66 -393 -23 0 -44 -4 -46 -9 -1 -4 -20 -11 -40 -15 l-38 -7 0 42 c0
45 -21 79 -48 79 -9 0 -31 -10 -49 -22 -24 -17 -33 -31 -33 -50 0 -21 -5 -28
-19 -28 -11 0 -23 6 -28 13 -4 6 -11 181 -15 387 -4 206 -10 413 -13 460 l-6
86 543 -3 c299 -1 971 6 1493 16 523 10 1045 19 1160 20 l210 1 3 -239z m-368
-286 l0 -294 -30 5 c-41 9 -57 -7 -71 -72 l-12 -55 -51 3 c-47 3 -52 6 -67 36
-8 19 -13 47 -11 63 4 27 7 29 48 29 35 0 47 5 60 25 15 22 15 28 -1 75 -24
72 -88 163 -144 205 -38 27 -58 35 -92 35 -38 0 -48 -5 -90 -49 -44 -46 -101
-147 -114 -202 -6 -26 -3 -28 74 -58 44 -17 90 -31 102 -31 17 0 20 -4 16 -22
-4 -13 -9 -42 -13 -65 -6 -40 -9 -43 -38 -43 -38 0 -76 -37 -76 -73 0 -30 37
-65 77 -73 l31 -6 -5 -227 c-3 -124 -10 -234 -15 -243 -12 -24 -88 -26 -88 -3
0 12 -4 13 -19 5 -31 -16 -81 -12 -117 11 -37 23 -39 29 -23 113 10 54 9 60
-11 81 -19 20 -34 23 -143 29 -315 17 -318 17 -312 37 4 11 2 19 -4 19 -17 0
-15 1010 2 1011 22 2 930 26 1035 27 l102 2 0 -295z m-1275 215 c8 -60 -2
-177 -21 -240 -10 -34 -14 -126 -14 -382 0 -294 -2 -338 -15 -338 -8 0 -15 -9
-15 -20 0 -19 -7 -20 -180 -20 l-181 0 -57 -30 c-83 -43 -94 -67 -93 -201 l1
-109 -24 0 c-13 0 -38 12 -55 26 l-31 26 6 212 c5 186 8 214 25 236 10 14 26
41 35 60 l15 35 -43 38 c-24 21 -61 47 -83 57 l-40 19 117 0 c109 1 118 2 132
23 9 12 16 33 16 46 0 48 -93 194 -174 272 -30 28 -40 32 -54 24 -10 -7 -32
-15 -49 -18 -38 -9 -243 -215 -243 -245 0 -13 16 -24 61 -40 127 -47 134 -51
116 -68 -10 -11 -41 -18 -92 -21 l-76 -5 -40 39 c-32 31 -43 37 -57 28 -9 -6
-18 -23 -20 -38 -3 -24 -7 -26 -46 -26 l-43 0 -7 61 c-10 99 -7 363 6 502 l11
129 31 -6 c89 -15 249 -14 611 3 220 10 437 19 482 20 l81 1 7 -50z m978 -296
c4 -7 21 -15 37 -19 25 -5 30 -11 30 -36 l0 -29 -95 0 -95 0 0 30 c0 17 10 40
23 54 18 19 29 23 57 18 19 -2 38 -11 43 -18z m-1707 -114 c8 0 14 -6 14 -14
0 -8 14 -17 30 -21 25 -5 30 -11 30 -36 l0 -29 -85 0 -85 0 0 43 c0 52 15 70
54 63 16 -3 35 -6 42 -6z m2896 -582 c3 -134 2 -238 -4 -245 -5 -6 -6 -23 -2
-37 5 -21 3 -26 -14 -26 -11 0 -25 7 -32 15 -7 8 -21 15 -31 15 -13 0 -20 9
-23 33 -9 59 -17 404 -11 441 7 36 7 36 60 36 l52 0 5 -232z m-1040 85 c-1
-71 -5 -183 -8 -251 -6 -119 -7 -123 -28 -120 -19 3 -22 11 -28 103 -8 96 -3
311 8 368 4 21 11 27 32 27 l27 0 -3 -127z m-3478 111 c14 -5 16 -36 16 -240
l0 -234 -24 0 c-58 0 -56 -8 -56 246 l0 234 24 0 c13 0 31 -3 40 -6z m1452 -2
c23 -15 26 -60 19 -269 l-7 -213 -44 0 -44 0 0 208 c0 114 3 224 6 245 6 32
10 37 33 37 14 0 31 -4 37 -8z m2310 -24 c-12 -65 -28 -373 -21 -415 l6 -43
-52 0 -51 0 6 63 c3 34 8 134 11 222 8 214 5 205 61 205 l46 0 -6 -32z m234
-45 c0 -38 -3 -146 -7 -240 -6 -173 -6 -173 -30 -173 l-23 0 0 209 c0 247 3
271 36 271 23 0 24 -3 24 -67z m239 -178 c-2 -135 -7 -245 -11 -245 -4 0 -8 6
-8 13 0 8 -9 22 -19 31 -17 15 -19 28 -15 84 2 37 7 133 10 215 6 137 7 147
26 147 19 0 19 -7 17 -245z m-3999 62 c0 -109 4 -177 11 -184 6 -6 9 -28 7
-49 -3 -39 -3 -39 -50 -42 l-48 -3 0 225 0 226 40 0 40 0 0 -173z m250 31 c1
-105 5 -150 15 -168 15 -27 18 -73 9 -132 -6 -37 -8 -38 -49 -38 -30 0 -45 5
-49 16 -8 21 -8 257 0 372 l7 92 33 0 34 0 0 -142z m173 15 c-4 -108 -11 -168
-20 -160 -7 8 8 257 16 257 4 0 5 -44 4 -97z m273 35 c-3 -35 -8 -132 -12
-215 l-6 -153 -31 0 c-38 0 -56 24 -57 75 0 22 -7 49 -15 59 -12 15 -15 51
-15 152 l0 133 33 4 c17 2 49 5 70 5 l39 2 -6 -62z m259 -125 c-8 -228 -8
-229 -42 -238 -37 -9 -54 15 -48 69 3 23 7 112 11 199 l6 157 40 0 39 0 -6
-187z m1125 -202 l0 -49 -72 -7 c-40 -4 -108 -16 -152 -26 -43 -11 -79 -19
-81 -17 -4 6 -45 132 -45 140 0 4 79 8 175 8 l175 0 0 -49z m450 -6 l0 -45
-156 0 c-138 0 -155 2 -150 16 3 9 6 29 6 45 l0 29 150 0 150 0 0 -45z m-11
-281 c2 -2 1 -10 -2 -19 -6 -13 -50 -15 -355 -15 l-349 0 -22 24 -23 24 374
-5 c205 -3 375 -7 377 -9z"/>
<path d="M3850 7779 c0 -5 5 -7 10 -4 6 3 10 8 10 11 0 2 -4 4 -10 4 -5 0 -10
-5 -10 -11z"/>
<path d="M4306 1508 c-8 -18 -17 -43 -20 -55 l-7 -23 258 0 c142 0 471 3 731
7 470 6 472 6 472 27 0 12 -3 32 -7 45 l-6 24 -561 -2 c-309 -1 -625 1 -704 4
l-143 6 -13 -33z"/>
<path d="M4050 1043 c-25 -43 -46 -83 -48 -90 -3 -11 77 -12 410 -8 227 3 678
8 1001 11 538 6 588 8 582 23 -3 9 -22 44 -41 79 l-35 62 -912 0 -912 0 -45
-77z"/>
<path d="M3850 691 c-23 -40 -40 -75 -37 -78 7 -6 2388 -26 2394 -19 6 5 -42
90 -76 135 l-18 23 -1110 5 -1110 6 -43 -72z"/>
<path d="M3636 358 c-31 -39 -55 -72 -53 -74 4 -4 2731 -26 2809 -22 l77 3
-67 82 -67 82 -1322 0 -1322 1 -55 -72z"/>
</g>
</svg>
