<?xml version="1.0" standalone="no"?>
<!DOCTYPE svg PUBLIC "-//W3C//DTD SVG 20010904//EN"
 "http://www.w3.org/TR/2001/REC-SVG-20010904/DTD/svg10.dtd">
<svg version="1.0" xmlns="http://www.w3.org/2000/svg"
 width="1024.000000pt" height="1024.000000pt" viewBox="0 0 1024.000000 1024.000000"
 preserveAspectRatio="xMidYMid meet">
<metadata>
Created by potrace 1.10, written by Peter Selinger 2001-2011
</metadata>
<g transform="translate(0.000000,1024.000000) scale(0.100000,-0.100000)"
fill="#000000" stroke="none">
<path d="M2870 7405 c-10 -13 -7 -30 19 -98 33 -86 71 -260 71 -326 0 -57 -42
-212 -93 -341 -24 -63 -106 -239 -182 -390 -279 -559 -428 -823 -646 -1150
-173 -258 -294 -415 -433 -561 -51 -52 -103 -110 -116 -129 l-23 -33 46 5 c81
9 296 133 427 246 238 206 446 443 749 855 84 114 154 207 156 207 1 0 27 -11
56 -24 30 -13 122 -36 204 -51 83 -15 155 -32 162 -39 27 -26 234 -451 278
-571 26 -71 69 -217 96 -323 26 -106 56 -208 65 -228 38 -80 144 -134 236
-119 32 5 53 18 83 49 57 59 76 123 82 276 5 120 4 130 -24 210 -53 155 -193
340 -437 577 -137 134 -154 153 -134 158 13 3 318 48 678 100 640 93 848 132
906 170 32 21 64 73 64 105 -1 20 -20 39 -104 97 -102 71 -105 73 -244 106
l-141 34 -508 -133 -508 -133 -343 -47 c-189 -25 -345 -44 -348 -42 -5 5 269
460 418 693 77 121 102 169 128 250 36 113 34 131 -22 213 -81 118 -316 315
-451 378 -61 28 -147 33 -167 9z"/>
<path d="M5923 7413 c-19 -7 -16 -27 16 -103 16 -38 41 -112 55 -165 l26 -96
-56 -202 c-63 -226 -117 -352 -359 -842 -170 -344 -228 -438 -460 -752 -209
-283 -252 -351 -230 -360 17 -6 274 142 349 201 79 62 221 202 301 296 40 47
150 189 245 315 110 147 178 230 188 229 9 -1 104 -22 210 -47 l193 -46 195
25 c108 14 200 22 204 17 9 -10 40 -161 40 -193 0 -14 -13 -79 -29 -145 -23
-97 -59 -189 -187 -485 -155 -357 -161 -368 -286 -557 -70 -107 -128 -196
-128 -198 0 -22 204 73 275 128 173 134 285 258 527 586 335 453 387 540 366
605 -18 53 -85 133 -184 219 -52 45 -89 83 -82 84 7 2 292 35 633 73 651 74
896 115 971 161 31 19 64 64 64 88 0 5 -48 43 -106 84 -103 72 -112 76 -247
112 l-140 38 -186 -41 c-102 -23 -386 -82 -631 -132 -426 -87 -464 -93 -890
-141 -245 -27 -453 -48 -462 -47 -14 2 8 47 107 218 191 333 207 358 258 422
78 97 94 166 56 240 -51 100 -316 325 -461 393 -50 23 -123 32 -155 18z"/>
</g>
</svg>
