<?xml version="1.0" standalone="no"?>
<!DOCTYPE svg PUBLIC "-//W3C//DTD SVG 20010904//EN"
 "http://www.w3.org/TR/2001/REC-SVG-20010904/DTD/svg10.dtd">
<svg version="1.0" xmlns="http://www.w3.org/2000/svg"
 width="480.000000pt" height="480.000000pt" viewBox="0 0 480.000000 480.000000"
 preserveAspectRatio="xMidYMid meet">
<metadata>
Created by potrace 1.11, written by Peter Selinger 2001-2013
</metadata>
<g transform="translate(0.000000,480.000000) scale(0.100000,-0.100000)"
fill="#000000" stroke="none">
<path d="M3555 4200 l-50 -5 -5 -173 -5 -173 -52 -18 c-64 -22 -113 -55 -188
-128 -125 -122 -192 -238 -265 -463 -141 -429 -185 -873 -170 -1713 4 -178 4
-179 27 -188 14 -5 31 -9 38 -9 27 0 39 78 35 235 -7 248 -5 532 3 670 10 163
52 528 72 626 66 321 183 620 288 736 50 54 141 116 189 128 l26 7 -4 -629
c-3 -345 -7 -702 -9 -793 -2 -91 -6 -302 -9 -470 -9 -442 -15 -717 -22 -956
-4 -116 -4 -222 -1 -236 4 -16 19 -30 38 -39 49 -20 57 -1 59 154 1 73 3 160
5 195 1 34 6 189 10 345 4 155 9 307 10 337 2 30 6 186 9 345 4 160 9 313 11
340 17 214 25 1017 12 1274 l-7 153 47 -7 c70 -10 111 -38 171 -113 80 -102
125 -199 171 -367 50 -179 74 -296 100 -476 30 -207 30 -201 47 -949 3 -146 7
-290 9 -320 2 -30 4 -74 4 -98 l1 -44 47 4 c42 3 47 6 55 33 10 35 3 363 -18
835 -21 490 -117 1050 -213 1237 -11 23 -30 68 -42 99 -45 119 -209 254 -330
270 l-49 7 0 121 c1 66 5 141 10 166 5 25 5 47 2 50 -4 3 -29 3 -57 0z"/>
<path d="M1345 4180 c-3 -5 -8 -60 -11 -122 -3 -62 -7 -131 -9 -153 -2 -22 -4
-94 -4 -160 l-1 -120 -34 -23 c-48 -33 -156 -145 -214 -222 -101 -135 -158
-249 -222 -446 -59 -181 -72 -245 -145 -689 -67 -412 -90 -606 -99 -852 l-5
-143 44 0 c29 0 45 5 46 13 1 6 2 26 4 42 2 17 4 82 5 145 3 140 17 264 65
565 20 127 40 255 45 285 5 30 16 104 25 164 35 236 114 479 235 724 78 159
126 225 209 291 l37 30 0 -637 c-1 -350 2 -815 7 -1032 4 -217 10 -541 13
-720 9 -572 8 -564 68 -558 30 3 31 5 40 68 14 101 10 1028 -9 1900 -3 118 -7
400 -11 626 l-5 412 28 10 c40 13 92 -15 136 -75 33 -47 104 -245 141 -398 8
-33 31 -116 51 -185 124 -423 173 -764 191 -1330 4 -113 8 -212 10 -220 1 -8
3 -27 3 -42 1 -26 4 -28 46 -28 l45 0 1 38 c5 234 4 253 -31 662 -37 434 -86
708 -180 1010 -21 69 -54 186 -73 260 -70 272 -159 385 -320 406 l-49 7 6 180
c4 99 13 208 21 241 8 34 15 67 15 74 0 15 -106 17 -115 2z"/>
</g>
</svg>
