<?xml version="1.0" standalone="no"?>
<!DOCTYPE svg PUBLIC "-//W3C//DTD SVG 20010904//EN"
 "http://www.w3.org/TR/2001/REC-SVG-20010904/DTD/svg10.dtd">
<svg version="1.0" xmlns="http://www.w3.org/2000/svg"
 width="1024.000000pt" height="1024.000000pt" viewBox="0 0 1024.000000 1024.000000"
 preserveAspectRatio="xMidYMid meet">
<metadata>
Created by potrace 1.10, written by Peter Selinger 2001-2011
</metadata>
<g transform="translate(0.000000,1024.000000) scale(0.100000,-0.100000)"
fill="#000000" stroke="none">
<path d="M7460 9201 c-80 -9 -80 -7 -80 -317 0 -143 -3 -301 -6 -351 l-7 -90
-85 -27 c-151 -50 -297 -151 -462 -323 -281 -290 -411 -537 -590 -1114 -171
-554 -269 -1232 -311 -2149 -12 -254 -6 -1583 8 -1731 l6 -67 79 -7 c44 -3 82
-4 84 -2 3 3 15 49 26 103 25 118 28 300 10 584 -15 226 -16 816 -2 1075 21
401 61 819 116 1210 79 569 236 1114 439 1530 173 354 299 491 563 610 l117
53 3 -86 c7 -167 -19 -3248 -28 -3397 -17 -279 -22 -498 -24 -1190 -2 -487 -8
-781 -20 -1000 -10 -170 -18 -457 -19 -637 -2 -315 -1 -327 19 -354 31 -42 67
-65 110 -70 79 -9 66 -194 129 1892 30 1028 65 2168 78 2534 27 839 29 1597 4
2039 -10 167 -16 306 -13 308 12 12 196 -30 252 -58 127 -61 328 -324 454
-593 60 -128 208 -689 275 -1041 97 -511 121 -766 140 -1485 42 -1564 53
-1912 61 -1920 12 -11 207 8 215 21 20 33 18 377 -5 1049 -33 927 -52 1232
-107 1715 -61 544 -186 1221 -276 1495 -24 72 -89 218 -174 390 l-137 275
-118 117 c-129 126 -208 182 -312 222 -75 29 -190 56 -239 56 l-33 0 0 253 c0
211 3 269 20 355 11 56 20 109 20 117 0 16 -66 18 -180 6z"/>
<path d="M2731 9118 c-14 -67 -52 -884 -48 -1038 l2 -114 -93 -71 c-301 -231
-604 -639 -788 -1065 -89 -208 -201 -563 -268 -850 -30 -130 -191 -1092 -290
-1730 -51 -331 -80 -689 -101 -1264 l-5 -149 95 5 c53 3 98 8 101 11 4 3 10
131 15 284 14 476 13 472 194 1644 170 1099 202 1247 361 1677 110 298 328
750 446 923 80 118 312 338 334 317 2 -3 -1 -372 -9 -819 -13 -811 -13 -823
25 -3104 28 -1665 42 -2301 51 -2329 15 -49 52 -77 108 -83 80 -8 79 -10 107
283 l25 259 -17 1205 c-9 663 -28 1992 -42 2954 -14 961 -23 1754 -21 1760 3
7 30 20 60 31 l55 18 58 -28 c68 -33 164 -127 212 -207 37 -62 242 -691 261
-803 7 -38 37 -148 66 -245 178 -576 307 -1200 374 -1810 43 -386 52 -523 77
-1160 14 -360 27 -656 28 -658 2 -1 48 -5 103 -9 l101 -6 6 249 c7 230 5 285
-28 719 -20 259 -41 535 -46 615 -19 262 -67 648 -121 975 -80 486 -152 786
-289 1210 -27 83 -74 254 -105 380 -67 275 -92 356 -152 495 -98 227 -216 359
-386 435 -63 27 -181 55 -236 55 l-41 0 1 68 c2 305 19 598 42 742 14 85 29
183 33 218 l7 62 -126 0 -126 0 -10 -52z"/>
<path d="M6346 4280 c6 -36 11 -46 18 -39 2 2 -3 20 -10 39 l-14 35 6 -35z"/>
</g>
</svg>
