<?xml version="1.0" standalone="no"?>
<!DOCTYPE svg PUBLIC "-//W3C//DTD SVG 20010904//EN"
 "http://www.w3.org/TR/2001/REC-SVG-20010904/DTD/svg10.dtd">
<svg version="1.0" xmlns="http://www.w3.org/2000/svg"
 width="480.000000pt" height="480.000000pt" viewBox="0 0 480.000000 480.000000"
 preserveAspectRatio="xMidYMid meet">
<metadata>
Created by potrace 1.11, written by Peter Selinger 2001-2013
</metadata>
<g transform="translate(0.000000,480.000000) scale(0.100000,-0.100000)"
fill="#000000" stroke="none">
<path d="M2625 4746 c-87 -41 -135 -108 -135 -188 -1 -44 -2 -50 -12 -33 -36
66 -110 111 -163 99 -59 -13 -85 -32 -85 -64 0 -17 5 -30 11 -30 5 0 7 -5 4
-11 -12 -19 4 -55 36 -78 17 -13 75 -36 128 -52 53 -15 93 -28 88 -28 -4 -1
-1 -14 8 -31 9 -16 13 -30 10 -30 -3 0 -2 -8 4 -17 7 -14 -1 -29 -38 -73 -79
-92 -98 -122 -125 -194 -27 -72 -98 -196 -102 -180 -3 9 -34 318 -55 544 -14
153 -16 160 -39 160 -34 0 -40 -64 -26 -300 4 -69 13 -167 21 -217 8 -51 15
-138 15 -193 0 -117 3 -113 -125 -156 l-80 -26 -235 6 c-399 12 -444 15 -530
37 l-35 8 1 178 c2 225 -27 586 -50 631 -27 52 -46 42 -47 -25 -2 -124 2 -233
12 -348 8 -89 8 -161 0 -276 -6 -86 -9 -163 -6 -171 4 -10 -5 -24 -25 -38
l-30 -22 -43 21 c-32 16 -50 19 -72 12 -17 -4 -36 -6 -43 -4 -6 3 -41 -12 -77
-32 -184 -102 -352 -287 -405 -444 -24 -73 -44 -279 -28 -298 23 -29 78 1 78
42 0 18 161 185 216 223 l32 22 -9 -38 c-29 -127 13 -412 65 -432 23 -8 56 4
56 21 0 6 10 19 22 29 19 15 23 29 25 82 3 100 56 302 96 362 19 28 43 80 53
116 10 36 32 82 49 104 24 31 30 48 30 87 0 62 19 71 32 14 8 -36 7 -45 -5
-50 -16 -6 -14 -25 13 -115 24 -80 45 -600 30 -728 -2 -15 -6 -126 -10 -246
-4 -120 -11 -233 -16 -250 -15 -52 -10 -119 11 -161 14 -27 20 -56 19 -87 -2
-26 0 -51 4 -54 14 -15 6 -40 -16 -49 -24 -11 -25 -23 -8 -135 5 -36 13 -92
16 -125 4 -33 13 -106 19 -162 7 -57 11 -103 9 -103 -6 0 -103 202 -103 215 0
7 -18 33 -40 57 -41 47 -104 80 -136 72 -15 -4 -24 7 -43 52 -67 156 -249 245
-407 199 -88 -25 -144 -59 -214 -130 -58 -59 -63 -67 -66 -114 -5 -65 7 -71
75 -37 28 15 76 33 108 41 74 19 223 20 268 1 19 -8 35 -17 35 -19 0 -2 -20
-4 -44 -6 -121 -6 -314 -133 -437 -287 -53 -66 -77 -132 -82 -217 -2 -23 -6
-48 -10 -54 -11 -17 8 -49 33 -56 42 -11 209 127 334 277 79 95 224 232 234
221 2 -1 -13 -25 -34 -52 -102 -133 -155 -345 -125 -502 5 -24 15 -47 22 -52
25 -16 67 -9 97 15 40 34 116 151 159 243 45 99 96 300 91 365 -1 26 1 48 6
48 24 0 94 -89 111 -140 10 -30 38 -97 64 -148 36 -73 51 -94 71 -99 43 -10
47 -19 45 -100 -2 -43 -3 -114 -4 -159 l-1 -81 -99 -26 c-161 -42 -303 -102
-410 -174 -160 -109 -193 -153 -151 -206 28 -35 38 -34 55 6 13 31 150 145
161 134 3 -3 -1 -18 -9 -34 -8 -15 -18 -47 -22 -70 -5 -35 -3 -45 15 -63 12
-12 26 -18 30 -14 5 5 29 61 54 124 l44 115 74 26 c40 14 115 35 167 47 l93
20 -7 -118 c-6 -113 -6 -120 16 -149 22 -30 22 -33 7 -59 -11 -19 -16 -53 -17
-117 0 -50 -3 -108 -7 -130 -4 -32 -1 -46 16 -68 28 -35 60 -36 60 -2 0 15 6
25 14 25 23 0 29 18 33 103 3 56 0 90 -11 118 -21 53 -21 62 3 49 11 -5 59
-19 107 -31 91 -21 80 -21 404 -4 221 12 279 17 324 31 27 8 54 14 58 14 5 0
8 -45 7 -101 -1 -55 2 -104 7 -109 5 -4 34 -11 65 -14 44 -6 58 -4 69 8 7 9
27 16 44 16 42 0 185 85 280 166 39 34 100 96 135 138 35 42 66 74 68 72 2 -2
-11 -35 -30 -72 -45 -91 -80 -243 -69 -304 8 -44 9 -45 45 -44 69 2 154 81
173 161 12 48 15 47 64 -30 71 -110 102 -121 169 -59 l41 38 -24 62 -24 61 21
6 c60 18 55 30 59 -140 3 -141 5 -158 22 -171 24 -17 62 -18 72 -3 4 7 7 72 7
145 0 74 3 134 7 134 4 0 13 -6 19 -14 7 -8 37 -25 66 -37 l54 -22 3 -56 c3
-51 6 -56 31 -65 36 -13 46 -2 54 61 5 46 8 51 27 47 11 -3 88 -5 170 -6 131
0 150 -2 167 -19 25 -25 32 -24 67 6 23 19 147 95 155 95 1 0 0 -47 -1 -105
-4 -114 9 -155 47 -155 35 0 42 22 31 101 -5 41 -10 80 -10 86 0 7 -5 12 -12
10 -6 -1 -11 11 -12 28 0 28 2 30 43 33 26 2 59 13 80 28 20 13 44 24 55 24
16 0 18 -5 13 -34 -9 -57 37 -78 83 -40 41 35 48 50 55 125 5 58 9 67 45 100
45 41 52 75 20 104 -19 17 -21 17 -40 0 -11 -10 -22 -16 -24 -14 -2 2 -9 33
-15 69 -16 82 -55 209 -81 259 -25 51 -93 108 -151 128 l-47 17 24 60 c23 62
129 273 145 291 5 5 9 -16 10 -50 0 -33 2 -69 4 -80 1 -11 6 -48 9 -83 6 -69
18 -97 50 -124 32 -26 40 -22 68 30 39 72 52 142 45 250 -5 78 -11 106 -36
155 l-30 61 31 35 c45 51 56 86 64 198 5 83 4 105 -11 136 -22 47 -42 64 -57
49 -21 -21 -46 -13 -68 23 -27 44 -108 115 -130 115 -10 0 -20 9 -23 19 -8 32
-11 242 -7 526 7 483 4 788 -8 875 -17 122 -16 139 9 200 25 61 27 122 11 385
-7 115 -7 366 -1 450 4 44 -2 71 -20 95 -19 24 -20 24 -40 6 -43 -39 -44 -75
-37 -707 l4 -246 -279 -27 c-153 -15 -287 -25 -296 -22 -10 2 -45 7 -77 11
-37 4 -64 12 -71 22 -7 10 -19 14 -29 10 -9 -4 -37 4 -63 18 -25 14 -56 25
-69 25 -21 0 -23 4 -18 43 2 23 13 175 24 337 11 162 23 332 27 376 5 68 3 87
-13 113 -38 64 -78 23 -88 -89 -3 -36 -8 -135 -11 -220 -8 -221 -14 -314 -27
-403 -6 -43 -8 -96 -5 -117 4 -33 2 -40 -11 -40 -84 -1 -279 -183 -350 -326
-11 -22 -27 -45 -34 -52 -8 -6 -15 -27 -16 -47 -2 -19 -7 -47 -12 -61 -25 -64
-1 -100 45 -70 18 12 25 25 25 50 0 33 29 73 37 50 6 -19 53 -78 54 -68 0 5 2
18 4 29 3 11 -5 32 -16 48 l-20 27 32 40 c18 22 36 40 41 40 5 0 19 9 31 21
66 62 169 128 236 152 41 15 76 25 78 23 7 -7 -59 -49 -81 -52 -12 -1 -24 -3
-28 -3 -4 -1 -10 -11 -14 -23 -3 -13 -37 -54 -74 -93 -110 -115 -209 -285
-210 -361 0 -18 9 -42 19 -55 19 -23 19 -23 40 -5 20 18 21 18 31 -8 5 -15 10
-32 10 -37 0 -15 109 -200 152 -258 l41 -54 -6 -151 c-4 -83 -7 -188 -7 -233
l0 -83 -42 0 c-23 0 -49 -6 -57 -13 -9 -7 -28 -18 -43 -25 -25 -10 -28 -10
-28 9 0 53 -49 107 -133 143 -179 80 -382 41 -555 -104 -81 -68 -100 -98 -87
-136 14 -39 39 -52 62 -32 12 11 49 17 119 22 55 4 111 8 125 11 13 2 53 6 89
10 36 3 105 10 153 16 49 5 93 7 98 3 6 -3 -16 -22 -48 -41 -136 -83 -292
-233 -408 -395 -82 -114 -118 -188 -119 -242 -1 -39 1 -41 31 -44 26 -3 58 14
180 96 81 55 196 143 255 196 59 53 110 96 113 96 8 0 -1 -127 -16 -215 -11
-72 -66 -233 -87 -257 -30 -36 -13 -87 29 -88 51 0 163 116 223 230 62 119 91
237 91 372 0 63 -4 81 -22 107 l-23 30 43 35 42 35 6 -37 c4 -23 2 -44 -6 -57
-18 -27 -26 -775 -9 -796 14 -17 28 -203 25 -314 l-3 -80 -71 -85 c-39 -47
-72 -87 -73 -89 -2 -2 -17 13 -35 33 -35 40 -121 86 -162 86 -92 0 -268 -74
-369 -154 -32 -26 -106 -105 -165 -177 l-108 -130 -6 48 c-4 27 -13 63 -22 79
-9 18 -12 35 -7 40 36 39 51 370 26 589 -9 77 -28 237 -42 355 -14 118 -29
260 -33 316 -6 66 -16 114 -29 142 -19 40 -19 42 -2 42 24 0 28 14 36 127 11
177 8 318 -15 708 -14 231 -2 416 40 609 20 91 16 116 -17 116 -21 0 -17 44 8
76 12 16 54 63 93 104 89 93 124 147 146 230 10 36 27 92 38 125 11 33 31 96
43 139 l24 79 73 -184 c41 -101 100 -238 132 -305 33 -66 59 -125 59 -129 0
-16 45 -75 56 -75 6 0 18 10 27 23 13 20 13 26 -8 67 -12 25 -57 131 -100 235
-42 105 -105 253 -140 330 -72 160 -102 236 -111 283 -6 30 -2 38 42 84 27 27
68 63 91 79 52 36 81 83 90 144 4 35 2 49 -8 56 -26 17 -103 9 -154 -15z m5
-127 c-56 -52 -86 -75 -88 -65 -11 50 93 142 163 145 6 0 -28 -36 -75 -80z
m-204 -124 l46 -45 -30 0 c-39 0 -105 24 -145 52 l-32 23 35 6 c69 12 78 10
126 -36z m38 -495 c-13 -63 -27 -130 -29 -149 -3 -18 -14 -45 -25 -59 -11 -13
-20 -30 -20 -36 0 -6 -27 -36 -59 -67 -32 -30 -70 -78 -85 -105 l-25 -49 -1
43 c0 23 7 59 15 79 8 19 15 42 15 51 0 8 26 45 58 81 73 82 92 117 96 181 2
27 11 62 21 77 20 31 57 74 61 70 1 -1 -9 -54 -22 -117z m886 -310 c18 -11 18
-11 -50 -45 -90 -45 -160 -95 -244 -175 -76 -72 -78 -73 -51 -30 42 68 131
176 168 205 60 45 143 66 177 45z m930 -90 c0 -33 -4 -40 -22 -45 -74 -16
-407 -58 -479 -60 l-85 -2 -25 56 -25 56 65 0 c147 0 541 22 550 31 13 13 21
-1 21 -36z m-3365 -10 l27 -10 -124 -133 c-68 -72 -136 -150 -151 -173 -15
-23 -38 -46 -52 -52 -13 -6 -55 -40 -93 -76 -38 -36 -73 -66 -77 -66 -13 0 5
83 30 137 13 29 38 74 56 100 43 63 173 197 227 235 42 29 112 59 123 52 3 -2
19 -8 34 -14z m1219 -59 l-18 -70 -88 -21 c-65 -15 -108 -19 -166 -16 -76 5
-162 9 -452 22 -169 7 -220 22 -220 63 0 15 -4 41 -9 59 -5 17 -6 32 -1 32 4
0 102 -14 216 -30 115 -17 252 -33 304 -37 117 -7 310 18 390 51 30 12 57 21
59 19 2 -1 -5 -34 -15 -72z m1320 26 c-11 -6 -90 -82 -178 -170 -161 -161
-188 -183 -87 -70 31 35 56 69 56 77 0 8 32 51 70 96 56 65 75 80 92 77 13 -2
31 2 40 9 12 8 19 9 22 2 2 -6 -5 -15 -15 -21z m158 -44 c12 -38 15 -86 13
-224 -1 -101 -7 -184 -13 -195 -14 -25 -15 -20 -43 146 -12 74 -28 150 -35
169 -16 40 -18 77 -4 86 6 3 10 17 10 30 0 17 7 25 23 28 12 2 24 5 28 6 3 0
12 -20 21 -46z m-2650 -61 c-35 -50 -46 -85 -51 -154 -1 -3 -21 -26 -45 -51
-27 -28 -46 -58 -50 -80 -4 -19 -18 -63 -33 -98 -20 -50 -26 -82 -27 -146 -1
-54 -4 -78 -11 -72 -6 6 -10 71 -10 152 0 164 17 232 84 334 45 67 153 173
179 173 1 0 -15 -26 -36 -58z m3314 -174 c-14 -401 -21 -728 -21 -955 0 -139
-4 -243 -9 -243 -5 0 -52 -20 -105 -44 -127 -58 -246 -80 -406 -77 -66 2 -131
4 -145 6 -14 1 -60 3 -102 3 l-78 2 0 30 c0 19 -7 34 -20 42 -25 16 -27 83 -4
116 15 22 15 24 -1 36 -16 11 -17 24 -11 107 4 52 10 117 14 144 10 73 5 864
-6 912 -9 37 -7 44 13 63 18 17 30 20 53 15 35 -7 30 14 68 -298 24 -197 31
-230 47 -239 32 -17 63 -1 80 39 40 102 52 177 52 321 l-1 142 36 1 c19 1 45
3 58 4 31 3 185 14 312 21 86 5 136 12 179 23 2 1 1 -77 -3 -171z m-2904 83
c119 -23 469 -30 626 -12 126 15 179 17 187 9 4 -3 -1 -17 -10 -31 -9 -14 -24
-67 -35 -118 -16 -83 -19 -165 -23 -708 -4 -388 -2 -621 4 -633 7 -13 6 -18
-3 -18 -6 0 -58 -18 -114 -40 -146 -57 -282 -91 -376 -94 -135 -5 -278 32
-375 97 -46 31 -48 34 -49 82 0 28 3 56 9 62 6 8 5 23 -1 41 -7 21 -6 65 3
148 10 88 13 228 9 539 -5 493 -11 634 -30 688 -8 22 -14 41 -14 43 0 1 31 -8
69 -21 38 -13 93 -28 123 -34z m1917 -283 c1 -128 5 -243 8 -255 17 -69 -63
43 -120 167 -60 129 -60 126 29 230 43 49 79 90 79 90 1 0 2 -105 4 -232z
m-348 -813 c25 -9 61 -29 80 -45 l34 -29 -45 -1 c-25 0 -153 -14 -285 -30
-305 -38 -287 -38 -246 4 45 46 138 94 214 111 72 15 183 11 248 -10z m279
-159 c0 -5 -385 -355 -480 -437 -96 -82 -190 -152 -197 -146 -8 9 41 88 106
169 109 137 280 283 413 353 85 45 158 73 158 61z m1215 -91 c15 -19 33 -54
40 -77 11 -38 10 -50 -9 -103 -11 -33 -22 -53 -23 -45 -30 149 -48 260 -42
260 4 0 20 -16 34 -35z m-100 -105 c12 -158 31 -239 69 -304 l26 -45 -48 -88
c-27 -48 -63 -110 -79 -138 -16 -27 -37 -68 -46 -90 l-17 -40 5 75 c5 69 39
412 49 505 3 22 8 76 12 120 10 127 19 128 29 5z m-116 -66 c-11 -60 -24 -167
-29 -239 -5 -71 -18 -202 -29 -290 -11 -88 -21 -179 -22 -203 -2 -39 -4 -43
-23 -37 -76 24 -126 35 -164 35 -55 0 -240 -53 -307 -88 -27 -15 -52 -28 -55
-29 -3 -2 -5 88 -5 199 0 138 -4 220 -13 256 -28 106 -41 51 -53 -223 -4 -104
-8 -211 -8 -236 0 -45 -2 -48 -63 -97 -35 -28 -65 -49 -66 -47 -2 2 -13 70
-23 152 -15 112 -17 159 -9 193 12 54 17 617 6 678 l-8 42 29 -11 c87 -35 175
-51 298 -54 176 -5 332 22 500 88 33 13 61 23 62 22 2 -1 -6 -51 -18 -111z
m-1087 -26 c-3 -71 -11 -113 -33 -177 -16 -45 -33 -89 -37 -96 -4 -7 -7 56 -7
140 l0 154 35 36 c18 19 36 35 39 35 4 0 4 -42 3 -92z m1453 7 c-8 -86 -19
-121 -52 -168 -35 -50 -40 -35 -24 72 15 97 45 160 75 161 4 0 5 -29 1 -65z
m-3951 -75 c45 -22 81 -55 112 -105 l19 -30 -35 23 c-65 43 -124 64 -205 75
-75 10 -85 9 -159 -16 -44 -15 -81 -25 -83 -23 -8 8 63 55 112 75 69 28 180
28 239 1z m693 -76 c77 -34 151 -47 278 -50 151 -3 264 17 409 71 50 19 91 33
92 32 1 -1 7 -75 13 -164 6 -90 18 -200 26 -245 46 -256 48 -277 49 -458 1
-102 -2 -203 -5 -225 -4 -22 -7 -69 -8 -105 l-1 -65 -168 -40 c-145 -34 -186
-40 -309 -43 -105 -3 -165 1 -225 13 -114 22 -218 56 -211 69 10 16 4 722 -7
836 -11 112 -34 263 -51 338 -5 25 -7 58 -4 74 l7 28 41 -26 c23 -14 57 -32
74 -40z m3195 -190 c21 -27 37 -207 19 -218 -8 -5 -11 8 -11 41 0 26 -7 80
-16 118 -8 39 -17 84 -19 100 l-5 30 11 -30 c7 -16 16 -35 21 -41z m-4143
-185 c-174 -181 -241 -240 -256 -225 -10 9 9 47 66 133 81 123 204 227 321
271 30 12 57 21 59 21 2 1 -84 -89 -190 -200z m391 113 c0 -42 -19 -142 -34
-182 -20 -51 -132 -241 -139 -234 -9 9 2 125 18 186 8 32 25 79 39 105 27 55
97 153 109 153 4 0 7 -13 7 -28z m3290 -418 c0 -2 -20 -34 -44 -72 l-45 -69
-301 -181 -301 -182 2 105 1 105 111 96 c169 147 307 204 495 202 45 0 82 -2
82 -4z m261 -45 c61 -43 84 -79 115 -185 24 -83 48 -253 33 -236 -4 4 -32 68
-64 142 -32 74 -75 160 -96 190 -37 53 -61 120 -43 120 5 0 29 -14 55 -31z
m-167 -221 c6 -109 5 -130 -13 -181 -27 -78 -93 -198 -106 -194 -17 6 -11 271
9 357 9 42 20 80 24 86 8 12 64 53 73 54 4 0 9 -55 13 -122z m179 -120 c31
-79 57 -149 59 -156 2 -7 -25 -25 -66 -42 l-68 -29 6 122 c3 67 5 150 6 185 0
34 2 62 4 62 2 0 29 -64 59 -142z m-403 79 c0 -12 -5 -61 -11 -107 -6 -47 -12
-123 -13 -170 l-1 -84 -80 -13 c-144 -24 -256 -6 -370 61 -25 15 -45 30 -45
34 0 4 89 59 198 121 108 63 222 129 252 147 66 40 70 41 70 11z m-893 -208
c18 -46 32 -93 32 -104 1 -34 -50 52 -70 119 -22 72 -23 79 -6 74 6 -3 26 -43
44 -89z m233 23 l0 -68 -35 -17 c-48 -23 -54 -22 -49 10 6 33 68 143 80 143 2
0 4 -31 4 -68z m-650 -78 c-97 -98 -156 -141 -86 -63 61 68 137 139 150 139 6
0 -23 -34 -64 -76z m270 -104 c-6 -23 -13 -40 -16 -37 -3 2 1 26 7 53 7 27 14
43 16 37 2 -6 -1 -30 -7 -53z"/>
<path d="M3795 2980 c-3 -5 -5 -29 -4 -52 1 -24 -4 -81 -10 -127 -7 -46 -10
-112 -7 -145 3 -34 8 -155 11 -271 4 -115 9 -217 11 -226 3 -10 -3 -18 -16
-22 -34 -9 -25 -54 16 -75 49 -26 76 41 70 173 -8 156 -8 598 -1 650 6 42 4
54 -15 78 -22 28 -44 35 -55 17z"/>
<path d="M3938 2953 c-6 -14 -2 -499 5 -668 6 -132 11 -162 24 -173 48 -35 51
-5 48 380 -2 372 -12 460 -52 466 -11 2 -23 0 -25 -5z"/>
<path d="M3590 2729 c-7 -12 -10 -70 -9 -147 1 -70 -1 -161 -6 -203 -7 -71 -5
-79 15 -99 28 -28 51 -22 62 15 13 42 18 342 7 387 -9 37 -32 68 -49 68 -5 0
-14 -9 -20 -21z"/>
<path d="M1855 2878 c-12 -30 -11 -96 1 -136 7 -26 16 -140 20 -285 4 -133 8
-258 10 -277 1 -19 2 -45 3 -57 1 -29 37 -49 57 -33 35 30 42 127 29 390 -15
297 -18 313 -65 381 -22 30 -47 38 -55 17z"/>
<path d="M1741 2493 c-24 -19 -25 -49 -17 -314 2 -78 64 -122 87 -62 5 15 13
93 16 174 l6 146 -34 37 c-34 38 -35 38 -58 19z"/>
<path d="M3463 1648 c-24 -30 -35 -254 -23 -463 l5 -100 28 -3 28 -3 -7 178
c-4 114 -2 211 5 271 8 65 8 98 1 112 -12 23 -23 25 -37 8z"/>
<path d="M1885 1575 c-5 -2 -41 -6 -78 -10 -47 -5 -70 -11 -74 -22 -9 -22 17
-42 67 -51 56 -10 106 0 133 27 20 20 20 21 2 41 -17 19 -28 22 -50 15z"/>
<path d="M1946 1472 c-16 -3 -17 -11 -12 -55 19 -161 47 -567 47 -659 -1 -108
-1 -108 23 -108 15 0 33 11 46 27 20 26 21 35 15 153 -11 226 -43 574 -55 607
-11 26 -38 41 -64 35z"/>
<path d="M1489 1373 c-7 -19 -8 -77 -2 -183 9 -165 8 -390 -1 -504 -4 -44 -2
-74 5 -82 12 -15 55 -19 63 -6 2 4 8 64 13 132 l8 125 10 -210 10 -210 32 -3
c29 -3 32 0 38 30 3 18 4 112 2 208 -3 142 -7 181 -21 208 -21 41 -45 51 -60
26 -8 -15 -12 31 -16 201 -4 197 -7 224 -25 254 -26 45 -42 49 -56 14z"/>
<path d="M4046 4578 c-14 -69 -18 -116 -21 -248 -2 -80 -7 -213 -10 -297 l-7
-151 27 -18 c20 -13 31 -15 44 -7 24 15 39 160 44 426 4 217 3 230 -17 270
-24 48 -53 60 -60 25z"/>
<path d="M1342 4358 c-7 -9 -11 -111 -13 -303 l-2 -289 27 -7 c14 -4 28 -4 30
-1 9 15 20 174 18 267 -2 108 -28 325 -41 338 -4 4 -13 2 -19 -5z"/>
<path d="M1451 4052 c-8 -15 -31 -121 -31 -144 0 -14 39 -48 55 -48 25 0 48
58 41 108 -6 43 -33 102 -48 102 -4 0 -12 -8 -17 -18z"/>
</g>
</svg>
