<?xml version="1.0" standalone="no"?>
<!DOCTYPE svg PUBLIC "-//W3C//DTD SVG 20010904//EN"
 "http://www.w3.org/TR/2001/REC-SVG-20010904/DTD/svg10.dtd">
<svg version="1.0" xmlns="http://www.w3.org/2000/svg"
 width="60.000000pt" height="60.000000pt" viewBox="0 0 60.000000 60.000000"
 preserveAspectRatio="xMidYMid meet">
<metadata>
Created by potrace 1.10, written by Peter Selinger 2001-2011
</metadata>
<g transform="translate(0.000000,60.000000) scale(0.100000,-0.100000)"
fill="#000000" stroke="none">
<path d="M353 510 c0 -16 -18 -67 -41 -112 -22 -46 -39 -84 -37 -86 2 -2 16
15 31 38 25 37 31 41 63 38 l36 -3 3 -134 3 -134 -32 7 -31 6 32 -30 c18 -17
36 -30 41 -30 16 0 20 45 17 187 l-3 141 43 5 c48 5 63 14 43 26 -7 5 -33 2
-59 -5 -46 -14 -112 -19 -112 -8 0 4 10 24 22 46 17 29 20 43 12 55 -18 28
-31 25 -31 -7z"/>
<path d="M157 492 c5 -22 -35 -127 -68 -174 l-22 -33 34 33 c19 17 44 32 56
32 39 0 46 -22 42 -147 -3 -87 -1 -117 9 -120 9 -4 12 27 12 130 0 99 -3 137
-12 140 -7 3 3 6 22 6 19 1 42 5 50 11 26 16 2 23 -44 11 -25 -6 -56 -11 -69
-11 l-24 0 24 51 c27 55 27 82 1 87 -12 2 -15 -2 -11 -16z"/>
</g>
</svg>
