<?xml version="1.0" standalone="no"?>
<!DOCTYPE svg PUBLIC "-//W3C//DTD SVG 20010904//EN"
 "http://www.w3.org/TR/2001/REC-SVG-20010904/DTD/svg10.dtd">
<svg version="1.0" xmlns="http://www.w3.org/2000/svg"
 width="1024.000000pt" height="1024.000000pt" viewBox="0 0 1024.000000 1024.000000"
 preserveAspectRatio="xMidYMid meet">
<metadata>
Created by potrace 1.10, written by Peter Selinger 2001-2011
</metadata>
<g transform="translate(0.000000,1024.000000) scale(0.100000,-0.100000)"
fill="#000000" stroke="none">
<path d="M5750 10204 c-110 -23 -205 -77 -291 -164 -53 -53 -79 -88 -84 -111
-4 -19 -15 -39 -24 -46 -13 -9 -16 -31 -16 -122 l1 -110 -24 42 c-54 93 -146
168 -246 201 l-48 16 -124 -57 c-97 -45 -126 -63 -131 -81 -8 -33 12 -70 41
-78 23 -5 24 -7 10 -22 -12 -12 -15 -27 -10 -60 6 -44 33 -76 120 -143 22 -16
322 -113 389 -125 28 -5 37 -11 37 -26 0 -10 9 -36 20 -58 11 -22 20 -51 20
-65 0 -14 6 -38 14 -54 14 -27 14 -29 -60 -107 -94 -99 -254 -309 -254 -332 0
-10 -8 -34 -19 -55 -10 -20 -22 -53 -26 -74 -4 -20 -15 -48 -26 -61 -10 -14
-19 -34 -19 -46 0 -22 -146 -266 -159 -266 -9 0 -13 37 -91 830 -33 333 -63
620 -66 637 -3 23 -14 37 -35 48 -91 48 -107 -79 -81 -640 12 -256 32 -441 63
-595 20 -100 23 -216 12 -408 l-6 -113 -69 -35 c-97 -49 -228 -91 -338 -108
-87 -14 -157 -13 -795 9 -674 23 -705 25 -828 51 l-128 27 8 86 c14 147 7 730
-10 906 -9 88 -21 241 -27 340 -15 243 -26 319 -56 385 -35 77 -59 100 -92 91
l-27 -7 -3 -215 c-4 -232 9 -494 37 -739 17 -151 16 -163 -4 -445 -15 -202
-18 -311 -12 -360 4 -38 6 -79 3 -90 -3 -11 -35 -39 -71 -62 l-64 -43 -96 45
c-95 44 -95 44 -138 29 -25 -9 -57 -13 -80 -10 -30 5 -51 -1 -109 -30 -244
-123 -470 -300 -643 -504 -258 -305 -357 -538 -357 -845 0 -89 -5 -146 -15
-181 -23 -76 -14 -99 48 -119 41 -14 55 -15 73 -5 29 15 56 61 56 95 0 53 275
343 457 483 l82 63 -14 -48 c-33 -110 -38 -436 -10 -588 24 -127 71 -306 87
-333 24 -40 65 -62 114 -62 41 0 63 20 64 60 0 17 11 32 34 47 55 35 71 81 72
208 1 100 7 135 67 384 l67 273 63 87 c60 81 67 97 116 255 46 149 58 175 93
215 58 66 88 134 88 203 0 31 -4 68 -9 81 -8 21 -6 26 15 36 39 17 44 14 44
-27 0 -22 7 -61 15 -88 18 -60 18 -64 2 -64 -8 0 -22 -9 -32 -20 -14 -16 -16
-29 -11 -72 4 -29 14 -60 22 -69 21 -23 62 -215 73 -344 6 -60 10 -171 10
-245 1 -74 7 -227 15 -340 14 -192 14 -251 -9 -940 -24 -702 -26 -740 -50
-845 -15 -63 -25 -140 -25 -181 0 -89 32 -197 67 -230 25 -23 25 -24 18 -136
-6 -98 -5 -116 9 -127 10 -8 16 -29 16 -53 0 -35 -2 -38 -19 -28 -16 8 -26 5
-50 -16 -36 -30 -40 -66 -16 -133 8 -23 37 -247 65 -499 27 -251 52 -470 55
-487 5 -35 -166 297 -191 370 -53 156 -139 261 -268 326 -81 40 -115 45 -167
24 -13 -5 -20 2 -29 32 -21 66 -92 195 -142 258 -101 127 -244 221 -412 269
-208 61 -454 8 -656 -139 -86 -64 -254 -229 -287 -283 -22 -37 -25 -51 -20
-102 4 -44 1 -61 -11 -74 -12 -12 -13 -20 -5 -39 20 -43 58 -41 153 7 98 50
206 89 311 112 103 22 320 30 415 14 77 -12 172 -45 161 -56 -3 -4 -43 -10
-87 -15 -45 -4 -104 -15 -133 -25 -89 -29 -365 -190 -462 -268 -113 -93 -314
-297 -387 -396 -51 -68 -59 -86 -91 -205 -41 -155 -50 -216 -36 -251 8 -23 6
-31 -12 -50 -20 -22 -21 -27 -10 -63 13 -45 52 -81 88 -81 35 0 87 29 193 110
219 167 382 327 569 559 105 130 240 262 357 352 49 38 94 69 98 69 4 0 -13
-26 -39 -58 -148 -182 -250 -391 -300 -617 -22 -99 -31 -369 -16 -491 14 -107
32 -139 92 -165 111 -45 306 157 474 491 97 195 123 272 214 642 32 132 40
243 21 294 -6 15 -9 29 -6 31 10 11 95 -44 141 -91 54 -57 64 -75 186 -366
104 -250 153 -345 185 -367 14 -9 51 -19 81 -21 l56 -5 -7 -90 c-3 -49 -6
-208 -6 -352 l0 -261 -77 -18 c-140 -33 -384 -106 -507 -153 -273 -103 -335
-136 -554 -289 -114 -79 -228 -167 -254 -195 -84 -89 -88 -168 -14 -247 53
-56 69 -52 103 27 27 62 20 56 332 290 l33 25 -21 -34 c-34 -56 -71 -185 -71
-250 0 -52 4 -64 31 -95 24 -26 39 -35 57 -33 23 3 34 25 128 263 l103 260
145 52 c130 46 550 152 561 142 2 -3 -3 -106 -11 -229 -8 -124 -12 -239 -9
-257 3 -17 26 -61 50 -97 51 -73 53 -81 26 -95 -37 -20 -50 -69 -50 -196 0
-66 -5 -165 -10 -220 -14 -132 -14 -231 0 -258 27 -52 50 -67 105 -67 l52 0 6
44 c6 39 11 45 35 51 57 12 59 23 61 230 l2 190 -31 84 c-18 46 -30 85 -29 86
2 2 30 -8 63 -22 33 -13 135 -42 226 -63 l166 -37 614 28 614 29 135 36 c74
19 142 37 150 40 13 3 15 -7 8 -74 -3 -42 -7 -143 -7 -223 -1 -141 0 -146 23
-168 22 -21 28 -22 82 -12 52 10 60 9 79 -9 28 -26 72 -25 114 3 65 42 76 47
114 47 66 0 288 124 481 269 127 96 276 239 416 401 64 74 125 142 135 150 11
8 -16 -52 -59 -134 -76 -147 -78 -152 -122 -350 -42 -191 -44 -206 -38 -304 6
-94 9 -104 32 -122 32 -25 58 -25 129 1 164 61 256 165 322 362 l26 77 80
-127 c120 -193 173 -243 253 -243 45 0 100 33 119 70 6 13 28 32 47 42 62 32
63 44 10 184 -27 72 -43 128 -38 133 5 5 39 17 77 29 l67 20 1 -162 c0 -88 4
-236 7 -328 l7 -167 30 -31 c28 -29 33 -31 99 -28 64 3 72 5 83 28 9 18 13 98
13 298 0 149 2 272 5 272 3 0 26 -15 52 -34 58 -41 121 -73 188 -96 l50 -17 5
-104 c3 -57 9 -112 14 -121 9 -20 65 -48 96 -48 40 0 59 19 76 75 11 39 13 71
8 111 l-6 55 133 -8 c165 -10 392 -10 520 -1 l96 7 18 -38 c15 -33 23 -40 57
-45 39 -6 45 -3 132 62 89 68 302 190 312 179 3 -3 0 -15 -6 -27 -8 -15 -10
-83 -8 -218 3 -184 5 -200 27 -245 13 -27 35 -56 48 -64 23 -15 27 -15 56 1
18 9 41 29 51 43 18 25 18 30 2 172 -24 211 -24 211 -52 211 -30 0 -36 11 -23
48 7 21 7 37 1 49 -8 14 -5 21 14 34 20 13 32 14 62 6 43 -11 105 -3 125 17 7
7 48 33 92 58 74 42 81 44 102 31 26 -18 28 -32 8 -88 -13 -36 -12 -43 3 -70
21 -35 85 -62 123 -51 38 11 135 129 155 189 11 31 20 97 23 163 l6 112 72 56
c88 69 121 126 103 181 -15 45 -74 95 -103 87 -12 -3 -36 -21 -54 -41 l-32
-36 -1 30 c-1 91 -90 441 -152 605 -68 177 -221 323 -398 380 -81 26 -80 8
-14 175 23 61 67 155 98 210 52 94 128 245 181 360 20 42 23 46 24 24 4 -106
54 -562 66 -600 24 -72 131 -170 169 -156 23 9 70 87 107 176 67 160 85 358
54 571 -24 158 -64 258 -132 331 l-24 26 64 62 c71 68 109 130 131 214 19 72
40 316 34 398 -10 150 -134 298 -180 217 -9 -17 -22 -23 -45 -23 -18 0 -33 4
-33 8 0 5 -21 41 -46 80 -52 81 -139 170 -215 221 -43 29 -56 33 -77 25 -13
-5 -26 -8 -27 -7 -2 2 -8 122 -15 267 -14 280 -11 728 11 1901 11 597 11 638
-6 690 -14 45 -55 378 -56 455 -1 39 23 130 46 175 64 127 71 226 42 591 -33
408 -39 991 -11 1206 4 30 1 72 -6 102 -13 54 -64 141 -84 141 -6 0 -33 -21
-58 -47 -41 -43 -48 -56 -62 -127 -36 -177 -38 -281 -18 -974 11 -396 15 -682
10 -710 -20 -110 -20 -128 -4 -166 9 -22 15 -40 13 -42 -2 -2 -263 -28 -582
-59 l-579 -56 -185 21 c-102 12 -188 26 -190 31 -1 6 -13 19 -24 30 -18 17
-30 19 -73 13 -34 -4 -54 -2 -59 5 -12 21 -128 73 -189 85 -59 13 -61 14 -59
42 22 260 117 1629 117 1685 1 65 -3 83 -29 134 -16 32 -42 67 -57 78 l-28 21
-26 -25 c-37 -34 -71 -96 -83 -150 -6 -26 -22 -325 -36 -665 -21 -515 -29
-647 -50 -787 -28 -191 -31 -251 -11 -288 l13 -26 -59 -17 c-144 -40 -271
-128 -448 -313 -118 -122 -211 -248 -286 -388 -28 -53 -61 -106 -74 -119 -16
-18 -24 -43 -30 -93 -4 -37 -17 -97 -29 -133 -27 -84 -27 -134 -1 -160 23 -23
29 -24 82 -8 51 15 63 35 77 128 8 51 19 82 33 97 28 30 33 29 48 -6 6 -16 22
-39 36 -52 13 -12 24 -28 24 -36 0 -7 9 -21 20 -30 11 -10 20 -24 20 -32 0 -9
3 -11 9 -6 5 6 11 40 15 76 6 64 6 66 -34 119 -22 29 -40 57 -40 60 0 15 234
225 377 338 180 143 187 148 236 157 22 3 78 23 126 44 81 35 176 61 155 42
-5 -5 -43 -31 -84 -58 -60 -40 -81 -49 -106 -46 -25 4 -36 -1 -62 -31 -18 -20
-32 -45 -32 -55 0 -10 -53 -72 -118 -137 -135 -136 -235 -264 -322 -415 -76
-131 -149 -303 -157 -369 -7 -61 15 -124 56 -164 33 -32 51 -27 93 23 l25 29
27 -91 c15 -51 37 -108 48 -127 11 -19 63 -109 115 -200 94 -163 181 -294 236
-357 l29 -33 -16 -453 c-9 -248 -16 -476 -16 -505 l0 -53 -82 3 c-80 3 -85 2
-123 -28 -22 -18 -66 -41 -97 -53 l-58 -21 0 47 c0 99 -81 194 -238 275 -161
84 -282 112 -477 112 -120 -1 -153 -5 -231 -27 -235 -68 -411 -169 -608 -349
-143 -132 -161 -203 -73 -296 39 -40 70 -41 99 -2 21 29 24 30 107 30 47 1
320 25 606 54 610 63 611 63 456 -27 -200 -116 -355 -241 -561 -453 -283 -291
-531 -650 -588 -849 -35 -119 -36 -138 -8 -164 18 -17 36 -23 77 -23 54 -1 55
-1 364 204 293 195 324 218 560 426 137 122 251 219 253 217 9 -9 -21 -338
-43 -472 -21 -126 -37 -183 -94 -337 -48 -129 -78 -197 -100 -221 -33 -38 -37
-59 -21 -117 21 -75 65 -76 198 -3 90 50 109 65 176 145 179 213 289 423 350
666 35 141 70 415 62 488 -7 64 -40 146 -80 199 l-26 33 33 30 c43 41 134 114
140 114 2 0 8 -26 12 -57 4 -32 12 -67 17 -77 8 -14 6 -21 -6 -28 -9 -5 -24
-23 -34 -41 -15 -29 -18 -94 -25 -732 -5 -385 -9 -748 -10 -806 -2 -98 0 -108
24 -145 24 -37 26 -48 32 -199 3 -88 13 -207 22 -264 14 -88 15 -123 6 -234
-6 -71 -11 -140 -11 -153 0 -14 -54 -85 -155 -203 -85 -100 -155 -187 -155
-194 0 -6 -11 5 -24 27 -40 64 -108 127 -171 157 -33 16 -65 29 -71 29 -6 0
-22 9 -36 19 -66 53 -181 48 -383 -16 -185 -59 -379 -162 -520 -276 -79 -64
-212 -196 -268 -267 -56 -71 -338 -410 -340 -410 -1 0 -2 44 -2 99 0 93 -2
102 -36 169 l-36 70 20 32 c11 17 31 82 44 143 23 105 25 138 29 497 l5 385
-91 790 c-50 435 -95 855 -100 935 -9 150 -17 182 -67 288 l-30 62 28 0 c41 0
55 30 68 140 40 337 40 622 0 1338 -47 847 -37 1133 56 1587 19 94 39 184 44
201 8 29 6 35 -23 63 -18 17 -39 31 -48 31 -19 0 -28 20 -28 67 0 49 100 181
224 296 155 143 325 380 311 435 -3 12 1 32 10 45 8 12 21 58 30 101 8 44 22
87 30 96 9 10 52 140 96 291 43 150 80 274 82 275 1 1 91 -219 200 -490 109
-271 209 -506 222 -522 14 -16 24 -36 25 -44 0 -8 20 -50 45 -94 25 -43 45
-87 45 -97 0 -10 5 -21 10 -24 6 -3 15 -27 21 -51 7 -29 25 -58 45 -78 19 -18
34 -42 34 -54 0 -12 9 -23 21 -27 17 -6 32 3 70 41 l49 49 -50 95 c-27 52 -50
107 -50 121 0 14 -13 43 -30 65 -16 21 -30 45 -30 51 0 7 -56 148 -125 314
-69 166 -125 308 -125 316 0 8 -67 160 -150 337 -86 186 -150 335 -150 352 0
16 -11 46 -25 66 -14 20 -25 43 -25 50 0 7 -9 32 -20 55 -10 24 -24 77 -30
120 l-10 77 107 108 c60 60 131 122 158 137 118 68 204 193 226 327 17 103 7
124 -62 140 -67 16 -87 16 -169 -2z m-25 -240 c-49 -47 -135 -127 -189 -177
-98 -91 -99 -91 -93 -57 12 58 63 152 109 199 60 60 178 117 248 120 8 0 -25
-38 -75 -85z m-594 -286 c6 -13 46 -52 89 -88 l79 -65 -45 -3 c-90 -6 -262 58
-349 130 l-40 33 45 6 c25 3 82 7 128 7 76 2 83 0 93 -20z m211 -870 c-5 -7
-31 -114 -57 -238 -26 -124 -51 -229 -55 -235 -4 -5 -11 -49 -15 -97 -7 -85
-8 -89 -49 -135 -27 -30 -46 -62 -50 -85 -6 -31 -19 -48 -74 -91 -110 -88
-180 -172 -244 -290 l-39 -72 7 115 c6 95 11 121 30 150 12 19 25 58 29 85 6
48 13 58 122 175 64 69 129 145 145 170 45 70 91 251 68 265 -18 11 -11 46 15
77 14 16 25 37 25 46 0 15 134 172 147 172 3 0 1 -6 -5 -12z m1848 -928 c14
-10 23 -21 20 -23 -3 -3 -60 -32 -128 -66 -227 -114 -369 -217 -557 -404 -71
-72 -125 -124 -119 -116 6 8 80 110 163 226 149 207 196 259 289 317 115 72
281 105 332 66z m1998 -275 c-2 -2 -210 -33 -463 -69 -428 -62 -472 -66 -635
-66 l-175 0 -52 117 c-28 65 -51 118 -50 119 1 1 31 -2 67 -7 85 -12 1212 46
1267 65 l38 13 3 -85 c2 -46 1 -86 0 -87z m-7256 68 c37 -16 67 -31 65 -35 -1
-3 -121 -130 -267 -282 -146 -151 -269 -286 -275 -298 -26 -60 -92 -137 -149
-174 -50 -33 -160 -128 -354 -308 l-32 -30 6 49 c24 193 70 289 259 537 255
333 418 480 610 549 65 23 58 23 137 -8z m2678 19 c0 -10 -79 -294 -82 -296
-2 -1 -84 -21 -184 -44 l-180 -43 -741 36 c-712 34 -744 36 -805 59 l-63 24
-1 43 c-1 24 -12 82 -23 128 -12 46 -21 85 -19 86 2 2 201 -25 444 -60 544
-79 659 -90 884 -82 285 10 495 48 672 121 91 38 98 40 98 28z m2808 -93 c-13
-11 -37 -26 -55 -34 -17 -8 -41 -30 -52 -49 -12 -19 -60 -66 -106 -106 -92
-77 -208 -195 -385 -390 -62 -69 -115 -127 -118 -130 -2 -3 4 12 14 32 11 20
73 97 140 170 106 117 120 136 111 155 -8 18 2 35 73 120 45 54 101 113 124
131 22 18 46 46 53 62 14 32 58 70 82 70 9 0 27 -7 40 -16 22 -16 24 -15 60
20 l36 37 3 -26 c2 -17 -4 -32 -20 -46z m326 -111 c53 -230 51 -218 37 -240
-10 -16 -12 -89 -10 -312 2 -277 1 -293 -19 -336 -13 -28 -23 -39 -26 -30 -2
8 -28 150 -56 315 -57 331 -72 400 -95 425 -23 25 -21 134 3 158 11 11 19 35
20 58 2 42 24 68 51 59 9 -2 23 0 31 5 31 20 39 8 64 -102z m-5704 -118 l-81
-121 -5 -87 c-3 -48 -12 -101 -20 -119 -8 -17 -14 -36 -14 -41 0 -6 -16 -20
-35 -32 -86 -53 -143 -145 -160 -260 -4 -25 -11 -49 -15 -55 -4 -5 -31 -71
-58 -145 l-51 -135 5 -165 5 -165 -23 40 c-22 38 -23 52 -26 282 -3 195 -1
259 12 325 48 242 146 438 297 596 66 68 226 202 241 202 5 0 -28 -54 -72
-120z m5426 -64 c4 -13 134 -1067 134 -1091 0 -24 85 -58 126 -51 54 11 85 60
128 200 81 269 106 482 87 727 -7 83 -9 154 -6 157 3 3 252 23 553 43 301 21
580 43 620 50 40 6 74 10 76 8 1 -2 -10 -447 -25 -989 -32 -1105 -38 -1564
-25 -1787 9 -151 9 -153 -12 -153 -11 0 -112 -41 -223 -91 l-203 -91 -237 -43
-236 -43 -457 21 c-403 19 -456 23 -450 37 20 46 16 68 -21 109 -21 23 -44 41
-51 41 -11 0 -14 19 -14 83 0 78 2 85 36 136 l37 54 -36 34 -36 33 29 367 c43
532 54 825 41 1134 -6 140 -16 303 -21 362 -6 59 -10 214 -9 344 2 197 -1 247
-15 293 l-16 55 49 46 50 47 61 -15 c34 -9 64 -21 66 -27z m-4746 -73 c216
-77 249 -81 765 -100 l460 -17 335 32 c383 37 370 36 394 19 17 -12 15 -19
-28 -116 -36 -80 -52 -137 -76 -260 l-30 -157 -10 -1304 c-7 -844 -7 -1317 -1
-1338 6 -19 15 -40 22 -48 9 -11 7 -14 -12 -13 -13 1 -80 -22 -149 -50 -261
-109 -578 -205 -758 -231 -53 -8 -149 -11 -265 -7 -154 4 -198 9 -282 31 -173
45 -311 105 -459 200 l-56 36 0 114 c0 89 3 116 15 126 20 16 19 69 -1 121
-15 36 -15 52 -4 142 35 290 41 386 46 722 4 242 -1 619 -15 1150 l-21 790
-30 99 c-16 55 -30 103 -30 108 0 14 49 1 190 -49z m4328 -385 c1 -117 7 -368
12 -557 5 -190 8 -346 6 -348 -1 -2 -8 9 -15 25 -23 48 -35 68 -99 163 -34 52
-85 139 -112 194 -48 98 -120 298 -120 334 0 10 73 104 163 209 89 106 162
192 163 192 0 0 1 -96 2 -212z m-840 -2004 c95 -19 241 -89 302 -145 l45 -40
-55 4 c-35 3 -273 -21 -650 -67 -327 -40 -597 -71 -600 -68 -8 7 119 120 184
164 116 80 262 136 404 157 98 15 287 12 370 -5z m697 -383 c-151 -144 -707
-630 -1030 -900 -220 -184 -411 -343 -424 -355 l-23 -21 16 39 c55 131 245
384 446 590 110 113 342 316 361 316 4 0 12 -23 19 -50 7 -28 16 -53 21 -56
12 -7 12 -4 -6 46 -27 76 -25 80 88 154 56 37 179 105 272 151 232 114 319
143 260 86z m2665 -262 c17 -32 38 -91 46 -130 15 -71 15 -71 -15 -147 -16
-43 -32 -94 -36 -115 -4 -21 -9 -36 -12 -34 -4 5 -113 566 -113 582 1 20 99
-98 130 -156z m-267 -106 c8 -174 32 -359 57 -443 10 -36 22 -83 26 -105 4
-22 33 -86 66 -142 l60 -103 -20 -27 c-10 -16 -65 -114 -121 -219 -56 -105
-110 -199 -121 -209 -11 -10 -20 -26 -20 -35 0 -9 -14 -38 -31 -65 -17 -27
-45 -84 -62 -127 -16 -43 -31 -77 -33 -76 -1 2 36 377 82 833 46 457 83 836
84 843 0 6 6 12 13 12 11 0 15 -32 20 -137z m-203 55 c0 -2 -20 -118 -45 -258
-39 -217 -48 -293 -60 -507 -8 -139 -19 -260 -24 -270 -11 -20 -92 -760 -91
-836 l0 -47 -47 24 c-98 49 -181 68 -318 73 l-130 5 -202 -56 c-200 -55 -312
-99 -431 -169 -33 -19 -63 -33 -66 -30 -11 11 -6 58 9 83 12 20 14 86 14 345
0 176 -4 354 -9 395 -11 86 -62 300 -71 300 -4 0 -14 -11 -22 -23 -34 -52 -72
-557 -60 -803 5 -114 4 -134 -11 -157 -15 -22 -17 -45 -15 -142 l4 -116 -135
-104 -135 -104 -42 337 -42 336 20 76 c20 71 21 106 26 723 4 466 2 666 -6
710 -7 34 -14 74 -17 89 l-5 26 127 -44 c202 -71 336 -95 560 -101 118 -3 237
-1 310 6 245 25 595 112 804 199 90 38 110 45 110 40z m-2384 -290 l-6 -203
-77 -218 c-42 -119 -77 -216 -78 -215 -2 2 1 28 7 58 16 91 13 392 -6 510
l-16 105 87 82 c49 45 90 82 92 83 2 0 1 -91 -3 -202z m3121 7 c-8 -180 -30
-254 -103 -348 -34 -44 -62 -73 -68 -67 -14 14 53 387 80 446 13 28 24 56 24
62 0 6 15 22 33 36 41 32 41 30 34 -129z m-8604 -120 c87 -18 174 -65 240
-129 55 -53 127 -151 127 -174 0 -7 -23 5 -53 27 -70 53 -195 115 -287 141
-53 16 -114 24 -210 27 l-135 5 -165 -51 c-90 -28 -165 -49 -167 -47 -8 8 115
95 182 128 160 80 319 105 468 73z m1658 -230 c78 -31 248 -72 349 -85 322
-39 756 29 1120 176 74 30 139 56 145 57 5 1 15 -75 22 -183 15 -226 74 -725
113 -955 73 -431 100 -1012 52 -1140 -10 -28 -16 -99 -20 -237 l-5 -198 -36
-9 c-248 -66 -686 -161 -782 -170 -312 -30 -666 3 -959 90 -58 17 -123 36
-145 42 l-40 12 13 95 c14 112 8 1313 -9 1565 -18 265 -61 589 -115 859 -24
121 -26 183 -7 232 3 9 41 -9 126 -58 67 -39 147 -81 178 -93z m6784 -307 c10
-35 28 -76 41 -91 15 -18 24 -41 24 -62 0 -18 7 -70 16 -116 11 -60 14 -107 8
-168 -10 -130 -20 -137 -27 -19 -9 146 -58 387 -102 501 -5 11 -2 17 8 17 9 0
21 -22 32 -62z m-8611 -190 c-77 -79 -269 -277 -428 -440 -244 -252 -297 -301
-343 -323 -31 -14 -57 -25 -60 -25 -10 0 11 69 40 125 16 33 79 133 140 223
108 160 114 166 253 282 158 132 224 177 328 226 70 32 182 73 201 74 5 0 -54
-64 -131 -142z m549 -202 c-18 -94 -38 -181 -44 -192 -6 -12 -14 -34 -17 -50
-12 -51 -274 -497 -284 -482 -11 17 0 191 19 303 38 217 130 411 283 594 l54
65 11 -34 c9 -27 6 -62 -22 -204z m7069 -732 l37 -6 -38 -52 c-22 -28 -63 -94
-93 -146 l-54 -95 -653 -393 -653 -393 6 128 c4 70 9 174 12 229 l6 102 193
170 c220 195 286 242 440 317 153 74 313 121 475 138 61 7 284 7 322 1z m519
-47 c154 -105 219 -167 262 -252 8 -16 38 -115 67 -220 45 -162 54 -213 65
-345 8 -85 12 -156 11 -158 -2 -1 -56 125 -122 280 -121 288 -182 405 -264
507 -35 42 -51 74 -63 123 -9 37 -17 72 -17 78 0 17 25 12 61 -13z m-297 -329
c3 -35 10 -152 16 -260 l10 -197 -31 -98 c-53 -166 -204 -463 -235 -463 -20 0
-28 98 -27 310 1 218 15 337 66 537 l32 127 74 53 c41 29 77 53 82 53 4 0 10
-28 13 -62z m412 -486 l131 -328 -96 -39 c-53 -22 -120 -52 -150 -67 l-54 -28
7 102 c3 57 9 235 12 396 4 160 10 292 13 292 3 0 65 -148 137 -328z m-906
-24 c-32 -252 -35 -370 -14 -504 l6 -40 -182 -28 c-303 -48 -504 -28 -706 68
-96 45 -181 102 -186 124 -4 14 105 81 551 338 371 215 557 317 559 308 2 -8
-11 -128 -28 -266z m-1900 -218 c58 -155 99 -294 81 -274 -4 5 -33 50 -63 99
-44 70 -65 120 -97 227 -23 75 -41 139 -41 142 0 3 13 -3 30 -12 25 -15 38
-40 90 -182z m500 45 l0 -145 -80 -40 c-44 -22 -82 -40 -85 -40 -3 0 -5 25 -5
56 0 51 5 65 54 143 30 48 58 95 62 106 6 18 43 65 51 65 2 0 3 -65 3 -145z
m-1250 -15 c-82 -103 -275 -289 -405 -389 -19 -15 -19 -15 1 9 79 97 273 294
344 351 47 37 87 68 88 69 2 0 -11 -18 -28 -40z m441 -364 c-6 -31 -18 -67
-27 -79 -9 -12 -14 -15 -12 -7 3 8 13 45 23 83 21 80 31 82 16 3z"/>
<path d="M8169 6383 c-33 -9 -43 -47 -32 -134 7 -67 6 -97 -9 -164 -35 -164
-37 -259 -12 -845 13 -305 25 -587 27 -626 3 -64 2 -71 -14 -67 -23 6 -56 -13
-64 -37 -3 -11 3 -39 14 -64 25 -57 71 -87 126 -84 l40 3 32 86 32 87 -14 765
c-13 675 -13 770 0 801 19 46 19 127 0 174 -17 40 -82 113 -100 111 -5 -1 -17
-3 -26 -6z"/>
<path d="M8479 6323 c-20 -5 -49 -65 -49 -101 0 -15 6 -36 13 -47 12 -17 11
-80 0 -385 l-15 -365 26 -320 c16 -189 25 -374 24 -451 -3 -116 -1 -134 15
-152 29 -32 67 -41 105 -25 l33 14 -4 722 c-4 756 -5 771 -52 997 -12 59 -21
80 -43 97 -15 13 -29 22 -32 22 -3 -1 -12 -3 -21 -6z"/>
<path d="M7717 5830 c-36 -42 -40 -86 -33 -349 6 -186 4 -262 -8 -356 -9 -66
-16 -140 -16 -163 0 -82 50 -147 123 -159 32 -5 33 -4 49 49 33 105 38 173 38
503 0 367 -5 406 -61 470 -38 43 -60 44 -92 5z"/>
<path d="M3970 6138 c-30 -49 -28 -198 4 -309 22 -80 25 -112 40 -614 9 -291
19 -580 22 -641 l6 -110 47 -27 47 -26 27 22 c43 36 79 160 85 292 6 150 -35
1052 -53 1142 -7 40 -27 101 -44 136 -36 75 -114 167 -142 167 -11 0 -28 -14
-39 -32z"/>
<path d="M3723 5315 c-50 -40 -55 -87 -45 -401 5 -148 7 -285 4 -305 -10 -85
61 -169 141 -169 34 0 40 4 51 33 7 17 23 136 36 264 36 368 21 476 -78 563
-25 22 -52 40 -61 40 -9 0 -30 -12 -48 -25z"/>
<path d="M7431 3494 c-23 -30 -27 -47 -41 -195 -6 -59 -17 -121 -26 -137 -17
-35 -15 -165 8 -626 l13 -260 25 -6 c80 -21 88 -21 97 8 5 16 4 182 -5 412
-12 352 -12 393 4 485 9 55 19 141 21 190 5 87 5 92 -22 123 -32 39 -47 40
-74 6z"/>
<path d="M3880 3319 c-118 -15 -158 -23 -167 -36 -70 -94 173 -193 328 -134
59 22 149 93 149 116 0 21 -93 75 -126 74 -16 -1 -99 -10 -184 -20z"/>
<path d="M4141 3107 c-18 -22 -24 -73 -12 -96 7 -12 35 -295 62 -629 41 -490
51 -646 50 -812 -1 -235 2 -247 63 -236 44 8 94 50 112 93 25 59 16 337 -27
863 -11 135 -28 323 -39 417 -11 95 -20 197 -20 225 0 67 -28 128 -72 162 -38
29 -98 35 -117 13z"/>
<path d="M3204 2948 c-21 -10 -22 -20 -29 -176 -5 -98 -3 -249 4 -371 19 -342
11 -898 -15 -1089 -5 -37 -2 -46 24 -71 40 -41 97 -51 125 -23 18 18 22 42 33
179 7 87 14 199 15 248 0 50 4 101 8 115 12 43 32 -563 24 -714 -5 -90 -5
-143 2 -151 40 -49 124 -61 149 -23 37 59 52 283 27 402 -9 42 -11 107 -6 235
6 153 5 186 -10 236 -20 71 -45 122 -80 163 -32 38 -59 33 -85 -17 l-19 -36
-2 65 c0 36 -4 241 -8 455 -7 369 -8 393 -29 446 -20 51 -85 140 -100 138 -4
0 -17 -5 -28 -11z"/>
<path d="M8708 9840 c-43 -26 -69 -250 -74 -640 -2 -162 -11 -425 -19 -583
-16 -278 -16 -289 2 -320 24 -42 106 -86 130 -71 51 32 66 96 93 409 16 184
30 974 19 1025 -12 54 -42 111 -80 155 -33 37 -43 41 -71 25z"/>
<path d="M2867 9324 l-26 -39 -7 -626 -7 -626 33 -6 c31 -7 110 -10 110 -4 0
1 7 76 15 167 29 323 14 687 -40 1004 -14 80 -30 146 -39 154 -12 13 -17 10
-39 -24z"/>
<path d="M3113 8692 c-20 -12 -41 -83 -59 -193 -19 -120 -14 -165 21 -207 22
-27 90 -56 106 -47 4 3 22 31 39 62 31 55 32 61 28 143 -9 146 -81 276 -135
242z"/>
</g>
</svg>
