<?xml version="1.0" standalone="no"?>
<!DOCTYPE svg PUBLIC "-//W3C//DTD SVG 20010904//EN"
 "http://www.w3.org/TR/2001/REC-SVG-20010904/DTD/svg10.dtd">
<svg version="1.0" xmlns="http://www.w3.org/2000/svg"
 width="1024.000000pt" height="1024.000000pt" viewBox="0 0 1024.000000 1024.000000"
 preserveAspectRatio="xMidYMid meet">
<metadata>
Created by potrace 1.10, written by Peter Selinger 2001-2011
</metadata>
<g transform="translate(0.000000,1024.000000) scale(0.100000,-0.100000)"
fill="#000000" stroke="none">
<path d="M7390 7905 c-8 -2 -1030 -50 -2270 -105 -1885 -85 -2264 -104 -2310
-118 -69 -22 -100 -62 -100 -133 0 -67 25 -89 99 -89 50 0 720 30 1776 80 231
11 425 20 432 20 7 0 16 -15 21 -32 5 -19 3 -1210 -5 -2813 -12 -2555 -12
-2890 4 -2931 4 -12 -276 -14 -1926 -14 -1883 0 -1931 0 -1950 -19 -10 -10
-31 -39 -45 -63 -30 -51 -27 -95 6 -125 19 -17 190 -18 4252 -18 l4231 0 3 96
3 96 -738 6 c-406 4 -1389 10 -2184 14 l-1447 6 4 821 c2 452 7 1751 10 2887
5 1534 9 2069 18 2081 11 16 221 30 2071 146 l270 17 8 89 c4 49 6 91 3 93 -6
7 -216 13 -236 8z"/>
</g>
</svg>
