<?xml version="1.0" standalone="no"?>
<!DOCTYPE svg PUBLIC "-//W3C//DTD SVG 20010904//EN"
 "http://www.w3.org/TR/2001/REC-SVG-20010904/DTD/svg10.dtd">
<svg version="1.0" xmlns="http://www.w3.org/2000/svg"
 width="1024.000000pt" height="1024.000000pt" viewBox="0 0 1024.000000 1024.000000"
 preserveAspectRatio="xMidYMid meet">
<metadata>
Created by potrace 1.10, written by Peter Selinger 2001-2011
</metadata>
<g transform="translate(0.000000,1024.000000) scale(0.100000,-0.100000)"
fill="#000000" stroke="none">
<path d="M6435 6915 c-33 -7 -98 -27 -145 -43 -55 -20 -310 -75 -725 -157
l-640 -126 -525 -49 c-289 -27 -633 -59 -765 -71 -238 -21 -285 -32 -285 -63
0 -8 61 -52 136 -98 l137 -83 202 -46 202 -46 229 23 c126 13 243 24 259 24
46 0 159 -91 222 -178 123 -171 143 -347 143 -1248 0 -505 -2 -614 -13 -614
-8 0 -457 -34 -998 -76 l-984 -76 -224 12 c-199 11 -245 17 -425 55 -110 24
-203 41 -205 40 -2 -2 12 -65 30 -140 l34 -137 90 -67 c295 -221 268 -205 459
-270 l175 -60 70 20 c39 11 119 37 179 59 143 51 358 104 572 140 150 26 352
43 1435 120 693 50 1344 96 1446 102 l187 12 821 -78 c455 -44 836 -75 855
-72 19 4 46 16 61 28 24 19 27 26 23 69 -11 116 -122 251 -320 391 -190 134
-380 218 -494 218 -30 0 -550 -56 -1155 -125 -606 -69 -1111 -125 -1123 -125
l-21 0 3 393 c2 215 7 579 11 807 7 384 10 422 31 510 16 64 21 107 16 132
-14 74 -119 150 -289 207 l-77 26 942 119 c855 107 947 120 985 142 77 44 116
120 89 172 -34 65 -145 126 -352 191 -173 55 -187 56 -279 36z"/>
</g>
</svg>
