<?xml version="1.0" standalone="no"?>
<!DOCTYPE svg PUBLIC "-//W3C//DTD SVG 20010904//EN"
 "http://www.w3.org/TR/2001/REC-SVG-20010904/DTD/svg10.dtd">
<svg version="1.0" xmlns="http://www.w3.org/2000/svg"
 width="1024.000000pt" height="1024.000000pt" viewBox="0 0 1024.000000 1024.000000"
 preserveAspectRatio="xMidYMid meet">
<metadata>
Created by potrace 1.10, written by Peter Selinger 2001-2011
</metadata>
<g transform="translate(0.000000,1024.000000) scale(0.100000,-0.100000)"
fill="#000000" stroke="none">
<path d="M9199 8847 l-25 -23 -2265 -17 c-2734 -21 -2904 -24 -2938 -42 -44
-22 -1025 -1070 -1032 -1102 -10 -42 -10 -231 -1 -235 5 -1 1 -93 -9 -203 -17
-199 -17 -201 4 -310 15 -82 26 -115 43 -132 29 -29 43 -29 88 2 l37 25 969 0
c534 0 970 -3 970 -6 0 -3 -7 -29 -15 -58 -8 -29 -19 -83 -24 -122 -5 -40 1
-844 15 -1949 13 -1033 22 -1881 20 -1882 -2 -2 -302 6 -667 17 -365 11 -688
20 -717 20 -30 0 -51 4 -48 9 7 10 -10 15 -119 31 -38 6 -86 20 -105 30 l-36
19 -879 -621 c-883 -623 -1026 -716 -1080 -702 -22 5 -97 -46 -110 -76 -4 -8
-11 -158 -17 -333 l-10 -319 29 -36 c17 -21 42 -43 57 -51 23 -11 551 -19
2834 -47 2553 -31 2810 -35 2838 -50 52 -28 117 2 249 115 85 72 133 104 210
141 74 35 255 155 695 460 327 226 601 417 608 424 7 7 19 48 26 92 10 68 9
124 -10 394 -12 173 -22 316 -23 318 0 1 -7 2 -13 2 -7 0 -24 9 -38 20 -31 24
-42 25 -88 3 -34 -16 -92 -15 -1239 33 -662 28 -1205 53 -1207 55 -2 2 -11
824 -20 1826 -16 1715 -17 1833 -1 1985 16 145 16 169 3 221 l-15 57 37 0 c21
0 435 13 921 30 l884 30 30 34 c17 19 66 57 110 85 44 28 98 64 120 80 22 16
294 203 605 415 488 335 565 390 561 409 -2 12 -4 90 -4 172 -1 112 3 164 15
205 24 84 33 382 13 442 -22 63 -69 105 -138 123 -72 19 -67 19 -98 -8z m-269
-260 c0 -2 -30 -25 -68 -50 -53 -37 -75 -60 -100 -106 -57 -103 -180 -199
-602 -466 -206 -131 -382 -240 -392 -243 -10 -2 -18 -13 -18 -23 0 -18 -10
-19 -153 -19 -85 0 -222 3 -305 7 l-151 6 15 36 c14 34 14 36 -13 62 l-28 27
-745 61 c-410 33 -839 68 -955 76 -305 22 -577 65 -875 138 -113 27 -152 22
-175 -23 -26 -51 -13 -106 32 -135 15 -10 165 -39 391 -75 364 -59 372 -60
1116 -115 412 -30 750 -56 752 -58 4 -3 -1284 -28 -1453 -27 -93 0 -103 2
-103 18 0 46 -24 52 -392 102 -335 45 -364 51 -568 110 -118 34 -219 66 -223
70 -4 4 -4 18 2 31 10 27 2 49 -32 87 -17 18 -31 22 -76 22 -51 0 -60 -4 -102
-40 -74 -63 -73 -124 2 -199 49 -49 85 -62 388 -142 156 -41 270 -75 255 -76
-16 -1 -258 -12 -539 -23 -280 -11 -543 -22 -584 -25 l-74 -6 124 132 c68 73
205 214 304 314 99 99 254 261 345 358 l165 177 1840 2 c2496 4 2512 4 2665
-6 120 -8 137 -7 149 8 10 12 32 16 97 16 46 0 84 -2 84 -3z m281 -323 l4
-222 -600 -427 c-374 -266 -601 -422 -603 -413 -1 7 4 80 11 160 15 153 10
223 -17 276 l-15 29 606 411 c334 226 608 410 609 409 1 -1 4 -102 5 -223z
m-1424 -926 c-4 -62 -7 -142 -7 -176 l0 -64 -237 7 c-168 4 -833 -7 -2250 -39
-1107 -25 -2040 -46 -2074 -46 l-61 0 7 178 c4 97 10 180 13 184 13 12 945 29
2647 47 930 10 1753 18 1829 19 l139 2 -6 -112z m-1864 -895 c4 -207 7 -1123
7 -2035 l0 -1658 -27 0 c-36 0 -637 32 -640 34 -1 0 -8 845 -15 1876 -11 1508
-12 1889 -2 1945 7 38 13 100 13 137 l1 67 113 4 c61 1 209 4 328 5 l216 2 6
-377z m-1655 -3862 c419 -21 764 -40 767 -43 3 -2 0 -117 -5 -254 l-10 -249
59 -53 c79 -69 125 -135 145 -203 l16 -56 77 -36 c103 -48 188 -67 304 -67
164 0 277 48 400 171 113 111 150 195 123 274 -12 36 -12 51 2 111 8 38 18
129 21 202 l6 133 126 -6 c69 -3 578 -17 1131 -31 553 -13 1013 -25 1023 -27
12 -1 -67 -62 -207 -160 -205 -143 -226 -161 -226 -187 0 -38 53 -84 87 -75
33 8 309 189 321 211 9 17 13 17 71 -7 l62 -24 -7 -120 c-3 -66 -11 -124 -16
-130 -33 -36 -527 -384 -923 -649 -327 -220 -471 -312 -477 -303 -4 6 -8 56
-8 111 0 94 1 100 30 136 17 21 30 50 30 64 0 52 25 82 87 104 108 40 193 104
193 147 0 19 5 25 20 25 27 0 64 40 77 84 11 34 10 36 -24 56 -25 14 -45 19
-64 15 -34 -8 -79 -58 -79 -88 0 -17 -12 -27 -53 -43 -42 -18 -53 -19 -55 -8
-2 9 -36 -9 -104 -56 -100 -69 -100 -69 -130 -54 -21 11 -44 14 -72 10 -40 -6
-5146 51 -5153 57 -3 4 743 547 752 547 3 0 5 -6 5 -13 0 -22 70 -96 109 -117
20 -10 52 -21 71 -24 38 -7 1335 -66 1439 -66 60 0 65 2 102 39 28 28 39 47
39 68 0 35 -32 81 -67 94 -13 5 -378 27 -810 49 -432 22 -787 41 -789 43 -3 3
291 207 298 207 2 0 2 -20 0 -44 -6 -66 21 -82 151 -90 343 -22 1470 -75 1478
-70 5 3 18 22 29 43 l19 38 -32 30 c-30 29 -41 32 -202 53 -221 28 -1351 92
-1380 77 -37 -18 -10 2 136 102 l144 99 90 -5 c50 -3 433 -22 853 -42z m1475
-58 l187 -6 -6 -241 -7 -241 -64 -72 c-50 -57 -71 -73 -92 -73 -15 0 -44 -9
-64 -19 -34 -17 -48 -18 -148 -10 -103 9 -114 12 -150 41 -21 17 -43 46 -50
65 -13 39 -70 103 -92 103 -13 0 -15 11 -11 68 2 37 7 143 10 236 l6 169 147
-6 c80 -4 230 -10 334 -14z m-1478 -1203 c1045 -6 2068 -13 2274 -16 l373 -6
-7 -187 c-4 -102 -8 -187 -9 -187 0 -1 -1133 11 -2516 27 -1383 15 -2595 28
-2692 29 l-178 0 0 128 c0 70 3 151 7 180 l6 54 421 -6 c232 -3 1276 -11 2321
-16z"/>
<path d="M4124 8472 c-47 -30 -49 -65 -7 -102 l34 -30 -38 0 c-47 -1 -71 -18
-83 -59 -8 -28 -5 -33 23 -55 44 -34 80 -46 137 -46 65 0 98 14 106 45 7 28
-6 49 -48 75 l-27 16 50 13 c42 11 53 19 64 45 16 37 3 56 -57 87 -59 30 -117
34 -154 11z"/>
<path d="M8142 8483 c-24 -5 -48 -35 -54 -67 -2 -15 10 -24 57 -42 l60 -23
-85 5 c-361 22 -364 22 -418 8 -98 -26 -134 -72 -94 -120 17 -20 35 -22 407
-39 l389 -17 28 33 c32 38 35 55 11 81 -15 17 -14 18 16 18 24 0 34 6 40 22 7
20 -1 73 -12 84 -2 2 -66 15 -143 29 -185 34 -176 32 -202 28z"/>
<path d="M4597 8435 c-31 -29 -36 -75 -11 -96 8 -7 106 -27 217 -45 191 -31
245 -35 977 -70 l774 -36 23 26 c47 55 35 118 -24 130 -28 6 -1824 116 -1892
116 -25 0 -45 -8 -64 -25z"/>
<path d="M6938 8117 c-31 -25 -36 -62 -15 -91 12 -16 65 -24 397 -57 424 -43
388 -44 425 22 12 23 12 28 -8 51 -22 26 -28 27 -362 62 -187 20 -356 36 -375
36 -21 -1 -46 -10 -62 -23z"/>
<path d="M7428 2330 c-45 -24 -52 -34 -44 -66 4 -16 21 -32 51 -46 l44 -22
-29 -17 c-25 -16 -28 -22 -21 -47 12 -41 26 -64 53 -88 47 -43 84 -55 165 -52
75 3 78 4 100 37 33 49 29 65 -24 100 l-48 31 106 0 c97 0 107 2 126 23 41 45
45 63 21 91 -22 24 -35 27 -238 51 -118 14 -217 25 -220 24 -3 0 -22 -9 -42
-19z"/>
<path d="M7760 1952 c-74 -51 -136 -97 -138 -101 -3 -8 99 -51 120 -51 6 0 32
18 60 39 27 22 65 45 84 51 32 11 35 15 28 39 -4 14 -10 46 -13 71 l-6 46
-135 -94z"/>
<path d="M6757 1942 c-23 -14 -27 -23 -25 -52 3 -30 10 -38 61 -69 l59 -34
-61 -28 c-34 -15 -61 -31 -61 -35 0 -3 12 -28 26 -55 47 -85 136 -126 245
-114 49 6 63 12 84 37 35 41 31 61 -17 102 l-42 36 75 0 c84 0 109 12 129 60
21 50 -1 62 -221 119 -108 28 -202 51 -210 51 -8 0 -27 -8 -42 -18z"/>
<path d="M2403 1929 c-30 -19 -53 -62 -53 -98 0 -34 73 -58 343 -110 270 -52
399 -65 677 -65 l255 -1 24 43 24 44 -20 26 c-33 44 -59 52 -182 52 -82 0
-234 16 -555 60 -242 33 -450 62 -461 65 -11 2 -34 -5 -52 -16z"/>
</g>
</svg>
