<?xml version="1.0" standalone="no"?>
<!DOCTYPE svg PUBLIC "-//W3C//DTD SVG 20010904//EN"
 "http://www.w3.org/TR/2001/REC-SVG-20010904/DTD/svg10.dtd">
<svg version="1.0" xmlns="http://www.w3.org/2000/svg"
 width="1024.000000pt" height="1024.000000pt" viewBox="0 0 1024.000000 1024.000000"
 preserveAspectRatio="xMidYMid meet">
<metadata>
Created by potrace 1.10, written by Peter Selinger 2001-2011
</metadata>
<g transform="translate(0.000000,1024.000000) scale(0.100000,-0.100000)"
fill="#000000" stroke="none">
<path d="M5073 9418 c-18 -5 -45 -25 -63 -46 -48 -58 -67 -136 -74 -307 -3
-82 -9 -185 -12 -227 l-6 -78 -117 -1 c-64 0 -191 -4 -282 -8 -148 -7 -171
-11 -223 -34 -101 -46 -302 -260 -398 -422 -102 -172 -106 -191 -114 -620 -6
-327 -5 -358 15 -469 23 -136 55 -201 131 -268 55 -49 80 -62 185 -98 191 -67
399 -108 593 -117 l134 -6 -4 -313 c-1 -172 -5 -314 -8 -317 -3 -3 -131 -9
-285 -15 -253 -10 -289 -13 -370 -37 -108 -31 -179 -72 -248 -142 -121 -121
-156 -217 -203 -556 -32 -230 -35 -266 -30 -412 16 -483 164 -732 476 -801 64
-15 113 -16 348 -11 l273 7 -6 -203 c-3 -111 -8 -213 -11 -226 l-5 -23 -167 7
-167 6 -265 -51 c-146 -28 -280 -56 -298 -61 -40 -13 -98 -62 -117 -99 -26
-49 -65 -228 -82 -372 -21 -172 -24 -745 -5 -898 13 -105 73 -279 116 -334 99
-127 221 -210 371 -250 33 -8 170 -25 305 -36 341 -28 310 -20 310 -84 0 -87
19 -254 40 -346 11 -47 24 -135 31 -196 l11 -112 120 -7 c66 -4 121 -5 124 -3
2 3 -7 54 -20 114 -15 71 -30 190 -40 339 -9 127 -19 240 -21 252 -5 19 0 22
42 28 163 23 374 82 555 157 86 36 106 49 181 122 79 76 87 87 130 191 91 219
119 385 115 695 -2 107 1 236 6 285 16 169 -31 320 -136 432 -127 134 -165
146 -573 184 -176 17 -321 32 -324 34 -2 2 0 113 4 247 l7 243 227 79 226 78
132 99 c150 112 202 174 297 359 98 190 139 365 138 580 -1 156 -17 253 -67
413 -65 209 -150 304 -325 363 -93 31 -315 22 -569 -23 l-33 -6 3 316 c3 174
7 319 11 322 4 4 127 38 274 76 301 78 366 106 499 213 218 174 343 429 375
764 14 144 1 323 -30 426 -27 85 -123 230 -215 321 -177 178 -376 260 -657
272 l-138 6 0 101 c0 57 9 161 22 237 l22 135 -22 45 c-12 24 -36 56 -54 70
-28 21 -38 24 -65 17z m296 -868 c91 -11 184 -25 206 -31 88 -24 285 -183 351
-284 33 -51 55 -173 61 -336 5 -154 5 -156 -27 -268 -31 -102 -42 -124 -129
-254 l-96 -141 -120 -63 c-196 -102 -471 -199 -545 -191 -14 1 -39 -3 -55 -9
-44 -17 -185 -44 -196 -37 -6 3 -165 34 -355 69 -389 72 -391 73 -438 169
l-26 53 0 284 c0 237 3 311 22 444 l21 160 144 175 c167 203 190 221 292 219
36 -1 80 -5 96 -8 29 -7 29 -8 -15 -15 -89 -15 -108 -25 -129 -70 -25 -51 -26
-58 -5 -98 29 -57 107 -112 210 -149 48 -18 85 -22 204 -24 106 -2 164 -8 215
-22 62 -17 87 -18 215 -11 207 12 273 37 342 132 26 36 29 47 24 85 -7 54 -16
65 -90 113 -84 54 -169 78 -277 78 -88 0 -89 0 -89 25 0 14 5 25 12 25 6 0 86
-9 177 -20z m-459 -202 c14 -36 15 -48 5 -48 -7 0 -59 18 -116 39 -110 41
-111 45 -14 54 97 9 106 6 125 -45z m343 -3 c37 -4 67 -11 67 -15 0 -8 -158
-25 -165 -18 -9 9 8 49 20 45 6 -3 42 -8 78 -12z m-377 -2401 c-3 -9 -6 -19
-6 -24 0 -4 -14 -10 -30 -14 -17 -3 -54 -17 -83 -30 -28 -14 -70 -28 -92 -32
-22 -3 -69 -21 -105 -39 -36 -18 -79 -38 -97 -45 -54 -20 -67 -42 -60 -102 7
-52 29 -94 58 -109 220 -111 286 -126 426 -90 53 13 94 29 103 40 13 17 41 21
225 31 130 7 214 16 221 23 18 18 48 118 46 151 -2 17 -13 37 -28 50 -52 42
-143 93 -197 110 -58 18 -107 56 -73 56 9 0 31 -7 48 -16 27 -14 41 -15 103
-4 102 17 209 10 267 -19 86 -41 163 -138 192 -241 23 -84 47 -319 35 -342 -6
-10 -13 -51 -16 -91 -3 -42 -14 -89 -26 -112 -11 -22 -35 -85 -54 -140 -33
-99 -158 -327 -185 -338 -7 -3 -124 -50 -260 -105 -242 -98 -247 -100 -250
-76 -3 23 -5 22 -93 -28 l-90 -51 -215 -9 c-283 -12 -389 -7 -462 21 -106 41
-194 145 -218 257 -16 74 -39 657 -29 737 10 83 36 188 59 243 10 22 54 78 98
125 l80 84 61 -2 c51 -1 61 1 61 15 1 88 243 160 339 101 32 -19 39 -20 75 -8
33 11 109 27 170 38 4 0 5 -6 2 -15z m209 -8 l50 -14 -37 -1 c-20 -1 -39 -5
-42 -10 -3 -5 -15 -11 -26 -14 -17 -4 -20 0 -20 24 0 33 5 34 75 15z m-24
-177 c15 -10 72 -28 128 -40 76 -17 104 -27 112 -41 6 -11 8 -22 5 -25 -3 -3
-66 -18 -141 -33 -75 -15 -137 -29 -139 -31 -2 -2 -8 -13 -14 -24 -10 -17 -11
-13 -12 26 0 94 13 199 24 192 6 -3 23 -14 37 -24z m-196 -86 c-4 -43 -8 -78
-9 -79 -7 -6 -259 35 -268 44 -16 16 60 51 134 61 46 6 66 14 76 30 9 14 25
21 44 21 l30 0 -7 -77z m395 -2259 c219 -14 256 -19 348 -46 91 -28 107 -36
133 -70 l31 -38 15 -343 16 -342 -37 -235 -36 -235 -53 -52 -52 -51 -305 -96
c-167 -52 -307 -91 -310 -86 -3 5 -24 5 -50 -1 -25 -6 -87 -9 -137 -6 -73 3
-93 1 -93 -9 0 -9 -9 -12 -27 -8 -548 103 -637 124 -685 156 -73 50 -102 115
-124 274 -27 201 -24 453 11 790 l28 281 53 32 52 31 217 0 217 0 -51 -40
c-83 -66 -102 -102 -108 -212 l-6 -94 59 -52 c109 -98 203 -116 404 -79 74 14
154 28 178 32 24 4 39 11 36 17 -4 5 4 4 16 -2 13 -7 64 -13 115 -14 l91 -1
92 60 c85 55 94 64 112 113 25 67 25 88 -2 142 -45 89 -199 164 -360 177 -43
3 -78 10 -78 14 0 12 6 12 290 -7z m-500 -289 c0 -25 -4 -45 -8 -45 -16 0
-184 39 -189 44 -8 8 127 43 175 45 20 1 22 -4 22 -44z m269 31 c-12 -10 -59
-15 -59 -6 0 5 14 10 32 10 17 0 29 -2 27 -4z"/>
</g>
</svg>
