<?xml version="1.0" standalone="no"?>
<!DOCTYPE svg PUBLIC "-//W3C//DTD SVG 20010904//EN"
 "http://www.w3.org/TR/2001/REC-SVG-20010904/DTD/svg10.dtd">
<svg version="1.0" xmlns="http://www.w3.org/2000/svg"
 width="1024.000000pt" height="1024.000000pt" viewBox="0 0 1024.000000 1024.000000"
 preserveAspectRatio="xMidYMid meet">
<metadata>
Created by potrace 1.10, written by Peter Selinger 2001-2011
</metadata>
<g transform="translate(0.000000,1024.000000) scale(0.100000,-0.100000)"
fill="#000000" stroke="none">
<path d="M6910 8625 c-47 -7 -206 -39 -355 -70 -217 -45 -529 -94 -1585 -246
-1263 -182 -1619 -229 -1760 -229 -36 0 -193 16 -350 35 -156 19 -286 33 -288
31 -2 -2 14 -60 35 -128 37 -120 39 -125 99 -183 59 -59 142 -111 221 -139 21
-7 62 -30 91 -50 51 -34 163 -76 203 -76 11 0 70 17 132 39 79 27 260 68 624
141 l512 103 66 -43 c213 -139 299 -349 325 -793 11 -190 14 -1657 3 -1657 -3
0 -290 -42 -637 -94 -347 -52 -716 -102 -821 -111 l-190 -17 -309 41 c-169 23
-311 40 -314 37 -2 -3 8 -56 24 -118 27 -105 32 -117 78 -166 28 -29 79 -72
115 -96 98 -65 308 -163 377 -177 58 -12 67 -11 175 20 63 17 416 88 784 156
369 69 682 128 698 131 l27 6 0 -1331 c0 -1148 -2 -1331 -14 -1331 -8 0 -574
-45 -1258 -100 -684 -55 -1283 -100 -1333 -100 -173 1 -405 27 -570 64 -191
43 -197 44 -190 14 3 -13 16 -74 29 -136 13 -63 26 -115 28 -116 1 -1 82 -56
178 -121 158 -107 191 -125 335 -182 87 -35 169 -63 181 -63 12 0 111 29 221
65 375 124 697 195 1108 244 121 15 3727 251 3830 251 98 0 1159 -74 1372 -95
174 -18 224 -12 261 31 18 20 22 33 17 58 -13 63 -48 116 -120 185 -67 63
-114 98 -290 210 -83 53 -226 120 -293 137 -61 15 -68 15 -185 -10 -160 -33
-452 -65 -1708 -186 -574 -55 -1068 -103 -1096 -106 l-53 -6 0 1344 0 1344
951 68 c524 38 967 72 984 77 47 13 85 46 106 93 31 69 27 79 -76 191 l-95
102 -150 53 -150 52 -87 -12 c-47 -6 -211 -38 -362 -70 -208 -45 -371 -72
-661 -110 -212 -27 -402 -53 -424 -56 l-38 -6 5 883 c6 930 9 1005 54 1221
l26 126 -27 46 c-42 73 -113 115 -313 186 -68 24 -122 45 -120 46 1 1 524 50
1162 108 638 58 1189 110 1224 115 71 11 104 30 139 81 28 42 30 112 3 157
-18 28 -89 92 -147 129 -28 19 -315 124 -334 123 -8 -1 -53 -7 -100 -14z"/>
<path d="M6478 4414 c-15 -16 -4 -29 191 -223 305 -302 460 -488 658 -790 171
-259 245 -331 338 -331 120 0 185 107 185 305 0 273 -152 476 -522 697 -110
65 -557 286 -641 316 -113 41 -186 50 -209 26z"/>
</g>
</svg>
