<?xml version="1.0" standalone="no"?>
<!DOCTYPE svg PUBLIC "-//W3C//DTD SVG 20010904//EN"
 "http://www.w3.org/TR/2001/REC-SVG-20010904/DTD/svg10.dtd">
<svg version="1.0" xmlns="http://www.w3.org/2000/svg"
 width="1024.000000pt" height="1024.000000pt" viewBox="0 0 1024.000000 1024.000000"
 preserveAspectRatio="xMidYMid meet">
<metadata>
Created by potrace 1.10, written by Peter Selinger 2001-2011
</metadata>
<g transform="translate(0.000000,1024.000000) scale(0.100000,-0.100000)"
fill="#000000" stroke="none">
<path d="M5235 9166 c-63 -77 -94 -241 -100 -526 -5 -178 -20 -429 -27 -435
-2 -2 -289 -8 -638 -15 -349 -6 -649 -16 -666 -21 -40 -12 -62 -37 -70 -76 -5
-26 -1 -37 27 -67 l34 -36 375 -17 c219 -11 488 -17 648 -15 l272 3 0 -48 c0
-91 -91 -2387 -95 -2391 -2 -2 -311 -8 -687 -13 -410 -5 -704 -13 -735 -19
-64 -14 -121 -54 -150 -106 -22 -40 -22 -41 -4 -71 l19 -30 174 -7 c109 -4
193 -3 227 3 62 13 330 14 815 4 l338 -6 -6 -186 c-3 -102 -11 -418 -16 -701
-14 -714 -31 -1424 -35 -1428 -2 -2 -201 -8 -443 -12 -466 -9 -497 -13 -521
-58 -19 -35 -13 -86 12 -109 21 -20 44 -22 397 -37 206 -9 416 -19 467 -22
l92 -6 -4 -702 c-5 -738 -10 -992 -25 -1194 -11 -142 -1 -184 47 -203 40 -15
72 -3 120 43 l41 41 7 96 c3 53 8 102 11 109 5 18 11 335 20 1138 l7 681 255
6 c140 4 314 7 386 7 90 0 200 10 351 30 121 16 223 30 227 30 5 0 17 9 28 20
28 28 27 84 -2 113 -20 20 -44 25 -198 41 -146 15 -190 16 -265 7 -49 -6 -247
-14 -438 -18 l-349 -6 6 154 c4 85 18 606 32 1159 14 553 26 1006 27 1007 1 0
305 21 675 45 646 43 674 45 694 66 33 33 29 85 -9 124 l-31 31 -179 12 c-159
11 -229 9 -656 -13 -263 -13 -480 -22 -483 -20 -7 7 14 912 36 1518 20 593 38
920 50 933 4 5 391 32 860 61 l854 53 23 27 c31 36 29 46 -14 88 l-38 36 -206
17 c-192 16 -217 16 -375 1 -157 -16 -182 -16 -364 0 l-195 16 -159 -31 c-121
-23 -187 -31 -272 -31 l-113 0 4 28 c2 15 14 189 26 387 21 344 23 362 47 412
33 67 24 116 -27 150 -55 37 -93 31 -136 -21z"/>
</g>
</svg>
