<?xml version="1.0" standalone="no"?>
<!DOCTYPE svg PUBLIC "-//W3C//DTD SVG 20010904//EN"
 "http://www.w3.org/TR/2001/REC-SVG-20010904/DTD/svg10.dtd">
<svg version="1.0" xmlns="http://www.w3.org/2000/svg"
 width="60.000000pt" height="60.000000pt" viewBox="0 0 60.000000 60.000000"
 preserveAspectRatio="xMidYMid meet">
<metadata>
Created by potrace 1.10, written by Peter Selinger 2001-2011
</metadata>
<g transform="translate(0.000000,60.000000) scale(0.100000,-0.100000)"
fill="#000000" stroke="none">
<path d="M186 485 c-3 -13 -21 -41 -39 -61 -43 -50 -5 -29 48 26 33 34 37 42
25 50 -22 14 -27 12 -34 -15z"/>
<path d="M405 461 c53 -55 65 -61 65 -33 0 24 -26 47 -75 68 l-40 16 50 -51z"/>
<path d="M280 427 c0 -35 -80 -119 -180 -189 -20 -14 -21 -16 -5 -11 39 12
125 75 164 119 l39 45 84 -75 c66 -61 89 -76 115 -76 45 0 50 16 9 30 -44 14
-192 118 -188 132 3 12 -17 38 -29 38 -5 0 -9 -6 -9 -13z"/>
<path d="M330 249 c-25 -4 -71 -8 -104 -8 -48 -1 -57 -4 -52 -16 3 -9 11 -45
18 -81 9 -53 15 -63 27 -58 9 4 43 9 76 11 79 5 107 12 100 23 -3 5 3 34 13
64 26 77 19 83 -78 65z m50 -48 c0 -16 -4 -41 -9 -54 -9 -22 -17 -25 -78 -29
-37 -3 -69 -4 -70 -4 -1 1 -5 25 -9 53 l-6 52 58 4 c33 2 71 4 87 5 24 2 27
-2 27 -27z"/>
</g>
</svg>
