<?xml version="1.0" standalone="no"?>
<!DOCTYPE svg PUBLIC "-//W3C//DTD SVG 20010904//EN"
 "http://www.w3.org/TR/2001/REC-SVG-20010904/DTD/svg10.dtd">
<svg version="1.0" xmlns="http://www.w3.org/2000/svg"
 width="240.000000pt" height="240.000000pt" viewBox="0 0 240.000000 240.000000"
 preserveAspectRatio="xMidYMid meet">
<metadata>
Created by potrace 1.11, written by Peter Selinger 2001-2013
</metadata>
<g transform="translate(0.000000,240.000000) scale(0.100000,-0.100000)"
fill="#000000" stroke="none">
<path d="M2000 2356 c-45 -30 -99 -90 -115 -130 -7 -17 -23 -43 -34 -58 -12
-15 -41 -67 -64 -116 -23 -49 -47 -87 -54 -85 -6 2 -69 -28 -140 -66 -70 -39
-184 -95 -253 -125 -69 -29 -147 -66 -175 -81 -27 -15 -79 -44 -115 -63 -184
-101 -337 -226 -384 -311 -23 -43 -27 -63 -27 -127 0 -119 21 -143 183 -212
52 -22 84 -68 72 -104 -16 -51 -104 -121 -399 -318 -320 -214 -379 -260 -357
-282 10 -10 18 -6 40 17 15 17 168 124 341 240 229 154 325 224 358 262 85 99
65 160 -75 228 -104 51 -121 68 -131 134 -15 96 17 171 110 257 84 76 341 226
652 378 169 83 307 151 307 150 0 0 -7 -22 -16 -48 -15 -45 -24 -52 -163 -146
-155 -104 -462 -347 -494 -391 -11 -15 -21 -47 -24 -71 -5 -39 -2 -49 26 -80
17 -20 56 -55 86 -78 53 -41 137 -138 165 -190 9 -16 13 -58 13 -115 -1 -84
-5 -98 -51 -211 -27 -67 -58 -132 -68 -144 -33 -41 -160 -175 -224 -236 -72
-68 -138 -160 -146 -204 -10 -48 20 -38 40 13 11 30 58 87 152 185 129 135
174 172 124 103 -27 -39 -17 -61 15 -31 13 13 40 64 60 114 20 50 42 100 49
111 17 27 66 158 181 485 87 247 105 289 179 415 77 130 136 255 136 287 0 7
18 42 39 77 22 35 47 93 57 129 10 37 42 106 71 155 29 48 53 92 53 96 0 5 6
14 14 20 21 18 14 -165 -12 -304 -12 -60 -24 -144 -27 -185 -3 -41 -10 -131
-15 -200 -5 -69 -14 -149 -20 -179 -13 -68 -13 -121 0 -121 6 0 10 3 10 6 0 4
9 59 19 123 11 64 22 157 25 206 7 94 32 310 45 381 5 23 9 77 10 120 7 235 9
256 31 286 22 29 19 53 -6 44 -8 -3 -14 -1 -14 4 0 16 -22 10 -60 -14z m41
-34 c-6 -12 -11 -29 -11 -40 0 -11 -7 -25 -16 -33 -9 -7 -31 -44 -51 -82 -19
-39 -50 -93 -68 -121 -19 -28 -36 -69 -40 -90 -6 -41 -11 -52 -64 -146 -17
-30 -38 -80 -47 -110 -14 -49 -113 -244 -120 -237 -2 1 28 101 65 222 73 232
133 380 185 455 18 25 41 65 51 89 13 28 36 56 70 81 27 21 51 36 53 35 2 -2
-1 -12 -7 -23z m-366 -569 c-36 -121 -74 -218 -83 -216 -6 2 -28 -25 -48 -60
-21 -34 -57 -89 -80 -122 -23 -33 -49 -80 -57 -105 -19 -59 -31 -176 -18 -184
14 -9 19 3 26 69 9 89 23 123 75 195 26 36 55 80 64 98 30 59 29 26 -3 -75
-52 -160 -175 -503 -179 -498 -3 2 -7 24 -9 47 -3 24 -12 54 -19 68 -26 46
-118 148 -179 197 -33 28 -66 57 -74 67 -21 25 -15 85 11 114 49 53 401 334
489 391 52 34 95 61 96 61 1 0 -4 -21 -12 -47z"/>
<path d="M1300 2335 c-6 -8 -33 -108 -59 -222 -50 -217 -77 -290 -119 -323
-32 -26 -92 -26 -124 0 -40 31 -141 240 -184 382 -10 34 -24 58 -33 60 -9 2
-59 0 -111 -5 -95 -7 -95 -7 -135 -50 -31 -32 -49 -65 -74 -137 -18 -52 -55
-143 -83 -202 -50 -106 -51 -107 -92 -114 -63 -10 -103 -60 -150 -185 -21 -57
-41 -110 -44 -118 -3 -8 1 -12 13 -10 11 3 26 30 45 79 54 151 76 179 152 200
46 12 46 12 98 119 29 58 66 144 82 191 40 115 72 169 112 185 35 15 140 27
162 18 7 -2 21 -28 30 -56 25 -78 124 -297 152 -340 31 -47 68 -67 122 -67
104 0 152 82 216 368 25 107 47 199 50 203 6 11 39 11 83 3 27 -6 33 -14 53
-68 18 -50 36 -74 97 -134 41 -40 92 -82 113 -94 21 -12 38 -25 38 -30 0 -4 7
-8 16 -8 10 0 14 7 12 22 -2 14 -20 31 -51 48 -27 15 -77 54 -110 87 -49 48
-68 75 -88 129 -23 59 -30 70 -55 75 -55 12 -121 10 -134 -6z"/>
<path d="M1401 2165 c-22 -47 -27 -85 -12 -85 9 0 51 100 51 120 0 24 -20 6
-39 -35z"/>
<path d="M2088 2177 c7 -8 11 -60 11 -134 -1 -67 2 -126 5 -131 3 -5 8 -73 11
-151 4 -109 11 -160 30 -227 14 -48 28 -105 31 -126 6 -36 19 -56 30 -45 8 8
-17 139 -37 189 -19 50 -49 399 -45 530 2 77 -6 108 -30 108 -12 0 -14 -3 -6
-13z"/>
<path d="M1331 2118 c-12 -29 -18 -55 -13 -60 11 -11 26 7 41 51 25 77 3 84
-28 9z"/>
<path d="M1460 2077 c0 -25 32 -58 80 -82 29 -15 51 -21 55 -15 10 16 -3 28
-35 35 -16 3 -43 22 -59 41 -33 37 -41 41 -41 21z"/>
<path d="M574 1954 c-15 -53 -13 -78 5 -58 11 12 31 73 31 95 0 38 -20 17 -36
-37z"/>
<path d="M1936 1960 c-20 -51 -61 -258 -52 -267 14 -14 27 18 45 113 11 54 24
112 30 127 13 34 14 67 2 67 -5 0 -16 -18 -25 -40z"/>
<path d="M1295 1934 c-9 -25 -14 -48 -11 -51 7 -7 7 -8 34 40 21 36 22 57 3
57 -5 0 -16 -21 -26 -46z"/>
<path d="M1396 1958 c-9 -34 -7 -76 3 -82 11 -7 21 27 21 72 0 37 -15 43 -24
10z"/>
<path d="M687 1963 c-9 -8 -8 -106 1 -157 4 -22 13 -41 21 -44 10 -3 11 3 6
29 -4 18 -8 63 -9 101 -2 67 -7 84 -19 71z"/>
<path d="M1394 1741 c-138 -62 -385 -223 -479 -312 -92 -88 -124 -138 -127
-204 -4 -68 17 -68 30 0 25 121 112 203 403 377 118 70 219 130 224 132 7 2 7
7 0 14 -7 8 -22 6 -51 -7z"/>
<path d="M551 1708 c-22 -70 -51 -196 -57 -252 -6 -46 -4 -58 6 -54 7 2 14 19
16 38 6 64 15 104 40 183 13 43 24 87 24 98 0 30 -17 22 -29 -13z"/>
<path d="M710 1685 c0 -34 38 -176 51 -189 21 -22 20 9 -2 96 -25 100 -49 146
-49 93z"/>
<path d="M419 1663 c-18 -21 -159 -267 -159 -277 0 -3 6 -6 14 -6 9 0 47 61
90 142 71 133 91 184 55 141z"/>
<path d="M1816 1518 c-35 -85 -49 -136 -42 -154 7 -18 8 -18 17 -1 17 30 59
151 59 169 0 29 -20 20 -34 -14z"/>
<path d="M1730 1250 c-6 -12 -65 -186 -131 -388 -118 -365 -165 -539 -149
-556 12 -13 28 25 45 106 18 87 216 706 250 785 24 52 25 73 5 73 -5 0 -14 -9
-20 -20z"/>
<path d="M2126 1151 c-4 -5 -2 -29 3 -53 6 -24 15 -90 21 -148 7 -58 21 -130
32 -160 11 -30 28 -76 38 -103 20 -57 27 -65 36 -44 3 9 -8 46 -25 83 -33 71
-47 136 -62 279 -13 130 -26 175 -43 146z"/>
<path d="M917 1083 c-14 -13 -7 -43 12 -53 28 -14 36 4 15 35 -18 28 -18 28
-27 18z"/>
<path d="M1110 1085 c0 -2 32 -37 71 -77 78 -80 99 -117 99 -177 0 -58 -40
-159 -93 -235 -26 -37 -47 -71 -47 -76 0 -61 128 123 161 232 18 60 20 75 9
116 -18 72 -140 222 -180 222 -11 0 -20 -2 -20 -5z"/>
<path d="M1886 958 c-15 -88 -75 -583 -80 -655 -3 -51 -1 -85 5 -89 17 -10 21
2 26 78 2 40 20 201 40 358 20 157 36 296 37 309 2 38 -22 37 -28 -1z"/>
<path d="M1156 931 c-4 -5 -1 -21 5 -34 22 -48 -38 -204 -127 -332 -48 -69
-52 -96 -8 -54 67 62 157 244 169 342 6 45 4 55 -13 70 -12 11 -23 14 -26 8z"/>
<path d="M990 885 c-12 -33 -13 -52 -1 -59 12 -8 43 41 39 61 -5 27 -27 26
-38 -2z"/>
<path d="M795 605 c-23 -22 -34 -65 -17 -65 8 0 72 75 72 84 0 15 -33 4 -55
-19z"/>
<path d="M2070 542 c0 -37 21 -122 31 -122 11 0 11 33 0 84 -11 46 -31 71 -31
38z"/>
<path d="M501 401 c-87 -89 -132 -151 -111 -151 9 0 240 228 240 237 0 2 -10
3 -21 3 -14 0 -53 -32 -108 -89z"/>
<path d="M771 392 c-33 -38 -72 -75 -86 -82 -27 -14 -34 -40 -11 -40 19 0 188
160 183 173 -8 26 -29 13 -86 -51z"/>
<path d="M975 394 c-9 -14 -57 -78 -107 -142 -94 -123 -118 -165 -118 -214 0
-42 21 -31 35 19 18 59 46 102 152 234 51 65 93 120 93 123 0 17 -40 3 -55
-20z"/>
<path d="M2240 268 c53 -146 57 -155 70 -163 19 -12 25 5 10 28 -8 12 -30 69
-50 127 -24 71 -40 106 -52 108 -13 3 -9 -15 22 -100z"/>
</g>
</svg>
