<?xml version="1.0" standalone="no"?>
<!DOCTYPE svg PUBLIC "-//W3C//DTD SVG 20010904//EN"
 "http://www.w3.org/TR/2001/REC-SVG-20010904/DTD/svg10.dtd">
<svg version="1.0" xmlns="http://www.w3.org/2000/svg"
 width="240.000000pt" height="240.000000pt" viewBox="0 0 240.000000 240.000000"
 preserveAspectRatio="xMidYMid meet">
<metadata>
Created by potrace 1.11, written by Peter Selinger 2001-2013
</metadata>
<g transform="translate(0.000000,240.000000) scale(0.100000,-0.100000)"
fill="#000000" stroke="none">
<path d="M1548 2078 c-8 -23 12 -102 38 -154 37 -73 125 -188 148 -192 42 -8
39 17 -8 70 -49 55 -126 199 -126 235 0 12 -3 28 -6 37 -7 19 -41 21 -46 4z"/>
<path d="M905 1969 c-20 -89 -64 -189 -119 -269 -62 -89 -37 -113 34 -33 79
91 165 308 141 360 -20 43 -37 26 -56 -58z"/>
<path d="M1348 1723 c-26 -6 -22 -42 6 -52 33 -13 128 -131 191 -236 60 -103
134 -283 164 -400 30 -119 79 -364 87 -437 4 -34 8 -70 10 -78 1 -8 3 -45 3
-82 1 -58 4 -67 22 -73 11 -4 23 -4 27 0 11 11 -28 325 -64 508 -66 337 -128
486 -302 725 -73 101 -110 132 -144 125z"/>
<path d="M1001 1678 c-57 -45 -210 -261 -270 -383 -62 -124 -164 -424 -190
-553 -21 -107 -36 -318 -32 -470 1 -29 4 -33 24 -30 21 3 22 6 19 88 -4 102
21 344 48 455 26 111 113 363 154 449 58 118 193 316 267 389 38 37 69 72 69
77 0 21 -49 9 -89 -22z"/>
<path d="M1451 1353 c-5 -10 -12 -57 -16 -104 l-7 -86 -122 -7 c-66 -3 -168
-9 -226 -12 -58 -3 -122 -7 -144 -9 l-39 -5 6 48 c21 169 21 162 -1 162 -12 0
-23 -4 -26 -8 -17 -28 -38 -279 -33 -397 6 -145 20 -200 73 -280 61 -93 142
-137 255 -137 67 0 85 4 130 29 57 31 111 98 129 161 20 71 38 218 44 352 3
74 10 170 16 213 6 42 8 82 5 87 -10 16 -33 12 -44 -7z m-24 -260 c-3 -10 -9
-79 -12 -153 -12 -217 -47 -298 -150 -346 -97 -46 -215 -24 -287 53 -60 63
-91 186 -86 343 l3 94 30 2 c17 1 98 5 180 9 83 4 151 9 153 10 1 1 41 3 88 4
78 2 85 0 81 -16z"/>
</g>
</svg>
