<?xml version="1.0" standalone="no"?>
<!DOCTYPE svg PUBLIC "-//W3C//DTD SVG 20010904//EN"
 "http://www.w3.org/TR/2001/REC-SVG-20010904/DTD/svg10.dtd">
<svg version="1.0" xmlns="http://www.w3.org/2000/svg"
 width="1024.000000pt" height="1024.000000pt" viewBox="0 0 1024.000000 1024.000000"
 preserveAspectRatio="xMidYMid meet">
<metadata>
Created by potrace 1.10, written by Peter Selinger 2001-2011
</metadata>
<g transform="translate(0.000000,1024.000000) scale(0.100000,-0.100000)"
fill="#000000" stroke="none">
<path d="M4548 8072 c-65 -26 -118 -50 -118 -53 0 -12 78 -84 145 -133 75 -56
153 -144 190 -217 28 -54 59 -199 75 -349 6 -58 14 -303 17 -545 l6 -440 -704
-73 -704 -73 -200 15 c-342 27 -341 27 -333 -71 5 -53 8 -60 57 -104 92 -85
530 -289 619 -289 17 0 504 83 1084 185 579 102 1061 185 1070 185 26 0 116
-136 138 -208 11 -35 20 -87 20 -116 0 -75 -36 -365 -60 -486 -12 -58 -43
-224 -71 -370 -138 -738 -378 -1843 -406 -1871 -10 -10 -1340 -599 -1403 -622
-25 -8 -90 -32 -145 -52 -122 -44 -277 -85 -327 -85 -20 0 -92 21 -160 46
-261 98 -317 115 -337 104 -28 -14 -44 -74 -37 -133 12 -104 38 -138 290 -373
129 -119 250 -226 269 -236 53 -27 144 -48 205 -48 l53 0 282 207 c219 161
339 240 537 356 852 499 1387 837 1865 1179 271 193 299 216 408 336 96 105
97 107 69 110 -22 2 -173 -72 -628 -312 -330 -173 -600 -313 -602 -311 -8 8
724 2207 755 2270 20 39 50 90 67 115 57 81 97 160 91 180 -10 31 -119 125
-212 183 -49 30 -150 84 -226 120 -121 57 -135 66 -110 71 15 3 172 26 348 51
426 61 507 80 565 135 35 33 38 60 9 106 -37 61 -107 102 -238 139 -66 19
-128 35 -138 35 -10 0 -294 -50 -631 -111 -337 -62 -615 -109 -618 -106 -3 3
-1 263 4 579 9 460 14 592 28 669 9 53 14 109 10 123 -11 44 -76 106 -149 142
-38 19 -188 71 -334 114 -146 44 -267 80 -267 79 -1 0 -54 -21 -118 -47z"/>
<path d="M3692 5499 c-12 -5 -22 -12 -22 -16 0 -13 55 -152 100 -253 214 -480
350 -1020 475 -1878 45 -308 59 -357 129 -430 45 -48 77 -62 143 -62 136 0
231 89 280 261 28 100 25 395 -5 546 -93 462 -345 966 -767 1533 -195 261
-265 324 -333 299z"/>
</g>
</svg>
