<?xml version="1.0" standalone="no"?>
<!DOCTYPE svg PUBLIC "-//W3C//DTD SVG 20010904//EN"
 "http://www.w3.org/TR/2001/REC-SVG-20010904/DTD/svg10.dtd">
<svg version="1.0" xmlns="http://www.w3.org/2000/svg"
 width="1024.000000pt" height="1024.000000pt" viewBox="0 0 1024.000000 1024.000000"
 preserveAspectRatio="xMidYMid meet">
<metadata>
Created by potrace 1.10, written by Peter Selinger 2001-2011
</metadata>
<g transform="translate(0.000000,1024.000000) scale(0.100000,-0.100000)"
fill="#000000" stroke="none">
<path d="M4568 8746 c-75 -31 -178 -93 -178 -108 0 -3 36 -31 80 -62 149 -108
239 -229 279 -376 51 -189 56 -266 56 -870 l0 -564 -830 -83 c-456 -45 -958
-92 -1115 -103 l-285 -21 -330 45 c-181 24 -331 43 -334 41 -2 -3 4 -43 14
-90 l18 -86 121 -87 c206 -150 358 -243 454 -276 67 -24 229 -5 802 94 l515
89 1320 121 c726 66 1330 120 1343 120 21 0 22 -1 7 -24 -20 -30 -10 -58 48
-129 81 -99 127 -220 127 -334 0 -94 -57 -492 -91 -638 -117 -498 -448 -1764
-600 -2295 -140 -490 -325 -1084 -348 -1119 -7 -11 -338 -29 -1793 -93 -1681
-74 -1795 -78 -1988 -68 -113 6 -285 21 -383 34 -165 21 -177 22 -177 5 0 -38
41 -215 53 -226 6 -6 81 -59 166 -117 159 -110 197 -130 368 -189 l101 -36
129 19 c70 10 427 60 793 109 l665 91 1985 85 c1092 47 2026 85 2077 85 95 0
1185 -82 1349 -101 229 -27 305 22 243 157 -63 136 -382 372 -599 443 -81 27
-102 26 -235 -4 -224 -51 -686 -91 -1577 -136 -455 -24 -830 -40 -833 -37 -3
3 70 210 163 459 291 782 528 1451 927 2625 144 423 177 496 298 656 95 125
106 144 123 209 15 57 15 62 -6 104 -48 100 -240 243 -503 376 l-190 96 99 6
c146 10 797 7 959 -3 349 -24 369 -24 403 -6 38 19 62 62 62 109 0 47 -47 114
-137 195 -62 56 -98 78 -219 135 -89 40 -159 67 -180 67 -18 0 -163 -18 -321
-40 -226 -31 -484 -55 -1194 -110 -498 -38 -920 -70 -937 -70 l-32 0 0 523 c0
566 8 731 46 904 32 150 31 172 -8 224 -56 72 -136 110 -434 209 -151 49 -275
90 -276 90 -2 0 -28 -11 -60 -24z"/>
<path d="M2868 5680 l-22 -17 33 -74 c59 -134 359 -981 406 -1147 122 -433
240 -1022 305 -1527 42 -323 75 -427 167 -526 89 -95 213 -104 303 -23 76 69
110 191 110 394 0 432 -121 892 -402 1534 -164 374 -511 993 -700 1248 -54 74
-127 143 -158 151 -11 3 -30 -3 -42 -13z"/>
</g>
</svg>
