<?xml version="1.0" standalone="no"?>
<!DOCTYPE svg PUBLIC "-//W3C//DTD SVG 20010904//EN"
 "http://www.w3.org/TR/2001/REC-SVG-20010904/DTD/svg10.dtd">
<svg version="1.0" xmlns="http://www.w3.org/2000/svg"
 width="1024.000000pt" height="1024.000000pt" viewBox="0 0 1024.000000 1024.000000"
 preserveAspectRatio="xMidYMid meet">
<metadata>
Created by potrace 1.10, written by Peter Selinger 2001-2011
</metadata>
<g transform="translate(0.000000,1024.000000) scale(0.100000,-0.100000)"
fill="#000000" stroke="none">
<path d="M5140 8473 c-39 -7 -47 -19 -74 -101 -25 -75 -26 -87 -36 -495 -5
-230 -12 -422 -15 -427 -3 -6 -17 -10 -30 -10 -36 0 -1809 -1180 -1836 -1222
-40 -65 -1 -178 62 -178 22 0 249 141 877 543 466 299 852 546 858 550 9 5 14
-31 18 -131 6 -119 10 -144 31 -187 l25 -50 3 -1435 c1 -1106 -1 -1479 -11
-1625 -20 -289 -49 -587 -60 -615 -5 -14 -13 -67 -17 -118 l-7 -92 -522 -382
c-286 -210 -726 -532 -976 -716 -250 -183 -465 -345 -477 -360 -29 -35 -30
-90 -2 -126 15 -19 17 -27 7 -30 -7 -2 -197 -16 -423 -31 -402 -26 -732 -30
-838 -10 -80 15 -149 -20 -188 -96 -18 -36 -18 -41 -4 -69 18 -35 8 -33 322
-61 199 -17 253 -19 305 -10 75 14 151 15 3648 86 l2715 55 170 42 c134 34
175 48 193 67 58 63 -15 171 -115 171 -15 0 -71 -9 -123 -20 -77 -15 -189 -22
-582 -36 -268 -10 -490 -15 -493 -12 -3 3 2 22 11 44 36 86 -6 173 -106 216
-25 10 -58 32 -75 48 -16 15 -178 132 -358 259 -316 222 -350 244 -880 543
-304 171 -583 334 -622 363 -38 28 -87 61 -107 73 -46 26 -173 72 -199 72 -19
0 -19 8 -13 612 3 337 11 1273 18 2080 6 807 14 1470 18 1473 9 10 358 -168
838 -426 250 -135 500 -270 555 -299 55 -29 122 -73 149 -96 27 -24 85 -61
128 -83 l79 -41 39 20 c43 22 55 47 53 113 -1 50 -40 107 -100 144 -67 42
-1572 834 -1666 877 -42 19 -77 41 -77 48 -1 7 16 209 36 448 36 426 37 436
20 494 -12 41 -30 72 -63 107 -25 27 -48 48 -52 48 -3 -1 -17 -4 -31 -6z m121
-5781 c97 -42 317 -165 788 -441 l655 -383 257 -197 c169 -130 299 -221 379
-267 70 -39 115 -70 104 -71 -11 -1 -282 -7 -604 -13 -322 -6 -668 -15 -770
-20 -182 -9 -3007 -36 -3014 -29 -6 5 864 634 1087 787 100 68 250 170 332
227 83 56 231 157 330 225 99 67 212 149 250 181 39 32 70 58 71 59 0 0 61
-26 135 -58z"/>
<path d="M10115 621 l-30 -8 26 -11 c48 -19 64 -19 64 3 0 22 -16 26 -60 16z"/>
</g>
</svg>
