<?xml version="1.0" standalone="no"?>
<!DOCTYPE svg PUBLIC "-//W3C//DTD SVG 20010904//EN"
 "http://www.w3.org/TR/2001/REC-SVG-20010904/DTD/svg10.dtd">
<svg version="1.0" xmlns="http://www.w3.org/2000/svg"
 width="1024.000000pt" height="1024.000000pt" viewBox="0 0 1024.000000 1024.000000"
 preserveAspectRatio="xMidYMid meet">
<metadata>
Created by potrace 1.10, written by Peter Selinger 2001-2011
</metadata>
<g transform="translate(0.000000,1024.000000) scale(0.100000,-0.100000)"
fill="#000000" stroke="none">
<path d="M5210 10106 c-268 -55 -402 -120 -554 -268 -44 -43 -86 -78 -94 -78
-10 0 -12 -4 -4 -12 8 -10 1 -13 -30 -15 -59 -2 -83 -23 -198 -175 -11 -14
-20 -32 -20 -40 0 -7 -14 -42 -30 -76 -17 -36 -30 -80 -30 -101 0 -43 -17 -62
-72 -85 -44 -19 -88 -69 -88 -102 0 -53 24 -115 60 -156 41 -48 70 -122 70
-179 0 -20 13 -64 28 -96 27 -57 29 -59 56 -50 22 7 32 5 50 -12 12 -12 33
-21 47 -21 20 0 1 -23 -111 -135 -74 -75 -146 -139 -160 -142 -13 -3 -71 -40
-128 -80 -57 -41 -244 -169 -415 -285 -172 -117 -454 -318 -627 -447 -330
-245 -484 -344 -687 -441 -133 -63 -261 -142 -364 -225 l-66 -54 10 -56 c8
-47 24 -78 89 -172 l80 -115 -49 -50 c-28 -28 -78 -64 -119 -85 -64 -31 -92
-38 -249 -59 -192 -25 -251 -45 -318 -104 -45 -39 -47 -62 -8 -89 22 -16 144
-51 177 -51 19 0 -15 -34 -131 -135 -114 -99 -135 -121 -129 -139 10 -35 35
-48 82 -43 41 4 43 3 49 -24 5 -27 8 -29 56 -29 45 0 55 4 89 37 21 20 38 32
38 26 0 -7 -4 -15 -10 -18 -5 -3 -10 -33 -10 -66 0 -53 3 -61 24 -70 45 -21
136 15 136 53 0 8 14 27 30 43 l30 29 0 -25 c0 -36 11 -46 53 -51 50 -5 57 5
92 127 15 55 34 107 42 116 8 10 13 43 13 95 l0 79 130 105 c71 58 144 125
161 148 l32 44 21 -38 c57 -102 300 -240 531 -300 126 -34 144 -36 190 -26 35
7 145 66 362 193 l312 182 178 186 178 186 5 -315 c4 -196 10 -327 17 -347 11
-32 9 -37 -200 -335 -117 -166 -291 -419 -388 -563 -96 -143 -185 -265 -198
-271 -12 -6 -34 -22 -49 -36 -15 -13 -46 -36 -69 -51 -52 -33 -93 -92 -100
-144 -5 -38 -4 -39 84 -107 48 -38 92 -73 97 -77 5 -4 -9 -42 -32 -86 -22 -43
-266 -550 -542 -1128 -275 -577 -527 -1096 -559 -1151 -94 -163 -140 -330
-141 -509 0 -87 1 -91 37 -143 32 -47 48 -59 134 -101 61 -30 137 -57 198 -72
l99 -23 -37 -76 c-21 -41 -41 -88 -45 -105 -8 -33 -12 -44 -65 -165 l-37 -85
-87 -47 -88 -48 -23 27 -23 26 -342 -13 c-235 -9 -481 -11 -784 -6 -470 7
-481 6 -498 -40 -5 -14 -2 -29 7 -43 15 -20 22 -21 282 -22 147 0 431 -4 632
-8 277 -6 390 -5 470 5 57 7 106 11 108 10 9 -10 -138 -36 -201 -36 -123 0
-195 -36 -252 -124 -61 -96 -64 -155 -12 -206 40 -39 102 -58 217 -66 92 -6
101 -4 320 51 221 55 226 56 290 44 41 -7 96 -28 148 -56 71 -39 89 -44 120
-39 20 3 63 10 95 15 133 21 192 119 153 251 -9 29 -16 75 -16 101 0 49 2 51
50 48 22 -1 2174 -16 2581 -18 l346 -1 12 -67 c8 -48 9 -88 2 -134 -10 -74
-25 -108 -82 -188 -22 -30 -39 -61 -39 -69 0 -25 47 -78 83 -96 75 -35 186
-19 447 65 101 32 201 59 222 59 50 0 169 -28 188 -45 8 -7 51 -20 95 -30 79
-17 85 -16 220 5 173 26 165 24 203 61 52 51 46 90 -28 183 -44 56 -71 80
-107 96 -76 34 -170 52 -268 50 -182 -2 -195 -1 -225 17 -29 16 -55 57 -62 97
-4 26 26 44 50 30 13 -9 254 -9 912 -3 492 4 1192 8 1555 8 520 1 699 4 845
17 153 13 188 19 204 35 16 15 18 22 9 42 -10 22 -21 24 -164 40 -147 16 -223
16 -1742 -9 -1353 -23 -1601 -25 -1677 -13 -65 9 -91 17 -94 28 -21 69 -76
368 -76 407 l0 49 67 13 c104 20 185 65 283 158 94 90 110 121 131 252 9 56 9
92 0 159 -11 77 -24 112 -126 327 -217 464 -325 739 -564 1450 -122 362 -219
661 -216 665 4 3 52 13 108 21 l102 15 5 50 c3 28 2 68 -1 90 -4 22 -10 212
-13 423 l-7 382 66 0 c78 0 127 19 144 56 46 101 8 346 -78 509 -82 155 -98
178 -142 201 -29 15 -159 44 -199 44 -14 0 -40 14 -59 31 l-33 31 147 476
c136 438 174 542 199 542 5 0 84 -29 175 -64 91 -35 263 -95 381 -134 l215
-69 244 -4 c227 -4 244 -3 255 14 20 32 -21 53 -116 61 -46 3 -141 11 -213 17
l-130 11 -420 146 c-231 80 -471 167 -533 194 -108 46 -114 47 -138 32 -45
-30 -5 -97 77 -130 l54 -22 -4 -73 c-3 -59 -10 -85 -37 -137 -26 -49 -34 -76
-34 -117 0 -38 -16 -100 -59 -226 -32 -96 -62 -194 -66 -218 -4 -24 -18 -66
-30 -94 -13 -27 -31 -78 -40 -112 l-17 -63 -77 -5 c-64 -4 -929 -104 -1059
-122 l-44 -7 7 34 c3 18 45 202 91 408 80 351 103 440 124 482 5 9 32 76 60
150 29 73 60 147 70 163 9 17 20 41 23 55 4 14 56 112 117 219 60 107 110 196
110 198 0 3 13 23 29 46 70 99 284 464 303 515 11 32 24 61 28 65 12 13 622
-100 755 -140 281 -85 491 -197 848 -454 207 -149 226 -165 367 -318 l149
-161 -101 -156 c-94 -145 -100 -157 -91 -187 8 -29 12 -32 48 -32 37 0 41 3
60 43 11 23 24 42 31 42 6 0 33 -15 59 -32 27 -18 85 -45 129 -59 73 -24 81
-29 102 -68 28 -53 158 -173 224 -206 82 -41 162 -58 243 -50 73 8 117 34 117
70 0 12 12 15 55 15 47 0 55 3 55 19 0 13 9 20 30 24 38 8 50 47 28 91 -65
131 -58 123 -174 200 l-111 72 122 62 c103 52 124 67 143 100 12 22 22 44 22
50 0 23 -33 42 -73 42 -46 0 -343 -86 -368 -107 -8 -7 -22 -13 -30 -13 -8 0
-40 -16 -72 -35 -32 -19 -61 -35 -64 -35 -10 0 -201 130 -214 146 -6 8 -16 14
-21 14 -5 0 -112 102 -239 227 -270 267 -396 363 -692 530 -105 59 -205 120
-222 134 -22 19 -102 48 -295 107 -266 81 -266 81 -638 137 -204 31 -382 53
-396 49 -57 -14 -116 144 -116 310 0 48 4 86 9 86 13 0 117 96 140 129 10 14
22 45 26 68 6 38 4 43 -19 55 l-26 13 45 67 c45 68 49 90 17 114 -12 9 -10 20
15 70 16 32 28 66 26 74 -2 9 -20 23 -39 31 l-36 15 58 23 c62 23 381 191 425
224 34 24 67 83 74 133 5 30 1 50 -17 84 -39 76 -125 117 -268 125 -59 4 -110
-2 -240 -29z m-542 -483 c62 -51 106 -74 185 -99 54 -17 57 -19 57 -50 0 -18
6 -35 13 -37 6 -3 2 -6 -10 -6 -28 -1 -53 -47 -53 -97 0 -27 -7 -46 -26 -65
-30 -31 -27 -55 7 -68 19 -6 20 -9 6 -14 -10 -4 -17 -17 -17 -30 0 -19 7 -26
31 -31 26 -5 29 -9 20 -20 -9 -11 -10 -20 -1 -36 9 -16 8 -24 -5 -36 -21 -21
-19 -57 5 -72 11 -7 20 -19 20 -27 0 -9 6 -26 14 -38 9 -14 16 -70 20 -161 6
-134 8 -142 43 -214 36 -72 72 -112 100 -112 10 0 8 -10 -8 -42 -19 -37 -326
-486 -351 -513 -6 -7 -13 -3 -21 10 -11 19 -17 35 -69 177 -14 37 -33 80 -43
95 -11 15 -35 60 -56 98 -20 39 -58 101 -84 138 l-47 68 88 117 c100 133 99
133 175 169 47 21 58 32 67 61 19 62 3 66 -99 22 -39 -16 -109 -38 -156 -47
l-84 -18 -19 25 c-37 48 -80 138 -80 166 0 17 -21 64 -50 112 -28 46 -50 87
-50 91 0 5 20 16 45 25 59 23 101 75 116 144 6 30 29 93 50 140 32 69 55 102
111 159 49 49 76 69 87 65 9 -3 40 -25 69 -49z m279 -390 c2 -6 -7 -13 -21
-17 -13 -3 -32 -9 -43 -12 -11 -3 -7 4 12 20 30 26 46 29 52 9z m303 -832 c0
-5 -57 -99 -126 -208 -70 -109 -149 -238 -177 -288 -27 -49 -88 -151 -133
-226 -46 -74 -90 -155 -99 -179 -8 -24 -19 -48 -24 -54 -4 -6 -27 -58 -51
-116 -23 -58 -46 -110 -51 -115 -28 -36 -84 -230 -190 -658 -67 -269 -123
-486 -125 -484 -3 2 11 69 30 148 19 79 53 248 76 374 23 127 46 237 51 246 4
9 20 70 35 135 21 96 46 162 129 349 132 294 140 307 425 746 148 227 165 258
165 296 0 42 1 43 33 43 17 0 32 -4 32 -9z m-880 -160 c16 -33 55 -101 86
-152 48 -80 109 -217 100 -226 -2 -2 -37 64 -79 146 -41 82 -101 185 -131 229
-31 44 -56 83 -56 88 0 4 8 16 17 27 17 18 18 18 25 -17 4 -20 21 -63 38 -95z
m-131 3 c12 -15 21 -34 21 -42 0 -8 29 -71 66 -140 64 -122 65 -125 47 -146
-10 -11 -61 -68 -113 -126 -148 -164 -134 -143 -111 -171 l19 -23 78 69 c43
39 101 94 130 124 48 49 74 58 74 27 0 -6 13 -30 28 -52 16 -21 37 -59 46 -83
10 -25 27 -58 38 -74 l21 -29 -71 -156 c-53 -117 -96 -238 -167 -472 -108
-352 -110 -360 -124 -485 -5 -49 -21 -128 -36 -174 -14 -46 -28 -115 -31 -152
-4 -38 -10 -69 -15 -69 -11 0 -17 58 -24 210 -3 74 -10 224 -15 332 l-10 196
50 84 c27 46 67 106 90 133 22 28 56 83 76 124 l36 75 -22 18 c-12 10 -28 18
-34 18 -7 0 -48 -53 -93 -117 -108 -158 -403 -494 -547 -622 -179 -160 -466
-359 -575 -397 -80 -29 -191 -32 -289 -8 -92 22 -254 101 -329 160 -332 263
-421 348 -466 443 l-31 65 42 37 c24 20 123 82 222 138 134 75 385 242 994
663 763 526 946 647 988 648 9 0 26 -12 37 -26z m399 -539 c-3 -3 -9 2 -12 12
-6 14 -5 15 5 6 7 -7 10 -15 7 -18z m2954 -461 c17 -9 47 -32 67 -51 38 -37
165 -103 198 -103 10 0 25 6 31 12 11 11 224 89 229 84 1 -1 -28 -20 -65 -42
-101 -60 -96 -83 24 -114 23 -5 66 -22 95 -35 44 -21 48 -25 22 -21 -21 4 -37
0 -47 -9 -8 -8 -26 -19 -40 -25 -16 -6 -26 -17 -26 -30 0 -15 -7 -20 -25 -20
-27 0 -48 -30 -39 -54 3 -9 35 -30 70 -47 36 -18 75 -46 89 -65 l26 -34 -59 0
c-52 0 -70 6 -173 61 -90 48 -120 70 -144 104 -55 78 -141 141 -260 191 -60
26 -113 48 -117 51 -11 6 95 163 109 163 2 0 18 -7 35 -16z m-5448 -810 c25
-14 44 -30 41 -35 -3 -5 -47 -45 -98 -89 -51 -45 -99 -87 -108 -95 -9 -8 -20
-15 -25 -15 -6 0 -33 -22 -62 -48 l-52 -48 0 -80 c-1 -54 -5 -85 -15 -98 -8
-11 -15 -31 -15 -45 0 -14 -5 -33 -10 -41 -7 -10 -10 7 -10 56 0 126 -22 173
-59 128 -22 -26 -81 -28 -81 -3 0 10 -5 21 -11 25 -8 4 -2 12 14 21 28 14 43
52 33 78 -4 12 -31 15 -148 16 -139 0 -142 1 -103 16 22 8 89 19 148 23 202
16 361 86 452 199 27 33 52 61 56 61 3 0 27 -12 53 -26z m3451 -365 c4 -12 12
-18 21 -15 8 3 14 -1 14 -9 0 -8 -3 -15 -7 -15 -5 0 -181 -36 -393 -80 l-385
-80 -259 0 c-184 0 -295 5 -380 16 -67 9 -122 17 -124 19 -1 1 3 16 9 33 l11
32 136 -5 c121 -5 206 2 732 59 327 35 600 64 607 65 6 0 15 -8 18 -20z m288
-70 c28 -7 46 -22 72 -57 19 -26 35 -54 35 -62 0 -9 5 -21 12 -28 6 -6 17 -28
24 -49 8 -26 9 -32 1 -18 -7 11 -26 34 -44 53 -17 18 -33 36 -35 41 -5 14
-115 111 -126 111 -5 0 -15 7 -23 16 -13 16 -11 16 84 -7z m-158 -89 c8 -16
15 -38 15 -50 0 -20 -1 -20 -22 -6 -33 23 -41 20 -68 -25 -19 -31 -57 -61
-160 -126 -171 -109 -220 -133 -288 -140 -51 -6 -54 -5 -44 13 39 71 351 304
442 330 30 9 59 20 65 25 18 18 45 9 60 -21z m-4032 -59 c-10 -10 -36 -43 -58
-75 -34 -50 -41 -55 -43 -37 -2 13 3 28 10 34 20 17 71 86 88 121 l15 30 3
-28 c2 -18 -3 -34 -15 -45z m4263 -117 c32 -38 34 -46 34 -113 0 -62 -2 -71
-18 -71 -36 0 -50 26 -77 145 -15 66 -30 127 -32 135 -5 15 30 -21 93 -96z
m-798 -27 c-96 -93 -128 -130 -132 -153 -7 -44 12 -64 75 -79 l54 -12 -46 -8
c-39 -6 -54 -3 -98 19 -31 16 -51 33 -51 44 0 36 55 121 134 206 85 91 94 96
181 104 6 1 -47 -54 -117 -121z m-1134 51 c-10 -59 -12 -49 45 -273 85 -336
154 -505 271 -663 l58 -77 -94 -62 -93 -63 -332 -65 -331 -65 -76 16 c-42 9
-103 27 -135 40 -70 28 -183 90 -193 105 -7 12 83 109 101 109 6 0 52 60 103
133 442 636 643 907 674 907 6 0 7 -17 2 -42z m1015 25 c-144 -174 -161 -204
-157 -281 l3 -57 220 -12 c121 -7 230 -11 241 -10 20 3 19 0 -11 -42 -104
-144 -288 -322 -386 -371 -51 -26 -58 -45 -29 -76 20 -21 33 -24 87 -24 54 0
69 4 91 24 15 14 72 65 127 114 55 49 136 125 181 168 l81 79 -64 -195 c-56
-171 -62 -198 -52 -222 9 -21 18 -28 40 -28 40 0 80 41 127 131 22 41 46 86
54 100 9 13 39 101 68 194 29 94 56 174 60 178 4 5 39 -20 76 -56 l69 -65 3
-445 3 -445 -38 -7 c-72 -14 -288 -14 -483 1 -171 13 -209 19 -310 50 -235 73
-441 194 -479 280 -17 38 -62 73 -95 74 -28 2 -97 111 -141 226 -25 65 -75
191 -110 279 -49 122 -70 192 -90 294 -14 74 -24 136 -22 138 2 1 186 7 408
11 222 5 435 10 473 10 65 2 68 1 55 -15z m1037 -102 c3 -25 14 -62 23 -81 11
-24 16 -63 16 -125 l0 -90 -82 -3 c-66 -2 -83 0 -83 11 0 8 -3 29 -6 46 -6 30
-5 31 29 31 53 0 76 25 89 97 11 60 7 105 -17 178 -6 19 -6 19 9 1 8 -10 18
-39 22 -65z m-437 -196 c-13 -43 -25 -72 -27 -65 -4 12 39 152 46 146 2 -2 -7
-39 -19 -81z m194 18 c4 -18 3 -33 -1 -33 -18 0 -32 26 -32 59 0 30 2 33 14
21 7 -8 16 -30 19 -47z m-226 -125 c-3 -8 -6 -5 -6 6 -1 11 2 17 5 13 3 -3 4
-12 1 -19z m-1051 -769 c35 -28 64 -55 64 -61 0 -5 -27 -96 -61 -201 -126
-397 -348 -1160 -404 -1387 -45 -179 -96 -346 -155 -505 -26 -71 -53 -154 -60
-183 -25 -106 -102 -304 -196 -500 -65 -135 -188 -276 -294 -339 -51 -30 -493
-86 -626 -79 -148 7 -652 84 -702 106 -34 16 -47 30 -69 75 -27 54 -27 56 -15
148 6 51 21 124 33 162 15 51 1217 2574 1234 2593 2 2 72 -10 156 -28 95 -20
170 -30 198 -27 109 10 341 49 410 68 98 27 238 94 326 158 39 28 76 50 84 51
7 0 42 -23 77 -51z m289 -174 c163 -70 314 -98 580 -110 77 -3 160 -8 185 -11
l46 -5 32 -107 c18 -59 41 -148 51 -198 18 -88 517 -1494 547 -1541 8 -12 14
-28 14 -35 0 -6 33 -64 74 -127 41 -64 100 -159 131 -211 l58 -95 -7 -183 c-4
-118 -11 -193 -19 -208 -7 -14 -68 -60 -134 -103 -115 -75 -128 -81 -224 -100
-101 -21 -112 -21 -553 -10 l-451 12 -38 25 c-31 21 -40 35 -57 91 -10 36 -22
93 -25 126 -4 33 -20 132 -37 220 -17 88 -30 169 -30 180 1 11 -52 551 -118
1201 -66 649 -120 1190 -120 1202 0 12 3 22 7 22 4 0 43 -16 88 -35z m-160
-465 c9 -146 53 -625 100 -1065 74 -714 83 -814 78 -931 -5 -117 -3 -140 20
-235 15 -57 29 -129 33 -159 4 -30 22 -85 40 -122 19 -37 34 -76 34 -86 0 -10
6 -26 13 -37 12 -16 50 -21 283 -41 148 -13 278 -28 289 -33 17 -7 24 -31 44
-152 13 -79 34 -188 46 -242 l22 -97 -876 7 c-482 5 -1147 8 -1479 8 -331 0
-602 2 -602 5 0 3 9 52 20 109 14 77 34 135 76 228 l58 125 145 -7 c177 -8
265 7 390 66 192 90 381 297 459 499 168 434 219 594 437 1365 123 435 230
806 238 825 8 19 37 114 63 210 l49 175 2 -75 c2 -41 10 -194 18 -340z m1125
-2715 c25 2 90 7 146 10 l101 6 12 -78 c50 -331 66 -398 124 -514 l52 -103
100 -68 c111 -76 119 -78 345 -104 141 -16 186 -32 229 -78 14 -14 23 -26 20
-26 -2 0 -56 -7 -119 -14 l-114 -15 -171 36 c-212 44 -289 42 -405 -8 -71 -30
-274 -88 -312 -89 -36 0 -11 145 38 214 10 15 14 50 14 127 0 98 -5 126 -65
361 -36 141 -65 269 -65 286 0 17 -4 42 -10 57 -10 25 -9 26 12 10 16 -10 37
-14 68 -10z m-3037 -2 c-1 -5 -18 -36 -37 -69 -20 -32 -45 -86 -56 -118 -11
-33 -29 -75 -40 -93 -18 -30 -20 -52 -20 -195 0 -138 3 -171 21 -224 l21 -63
-29 -53 c-24 -42 -36 -54 -59 -56 -41 -5 -131 16 -186 44 -45 23 -57 24 -247
24 -110 0 -211 -4 -225 -10 -37 -14 -416 -26 -416 -13 0 6 12 24 28 40 25 26
48 34 267 82 132 29 258 61 281 71 24 10 60 41 90 76 27 32 75 83 107 113 72
68 231 319 250 395 11 44 17 52 43 58 42 9 209 2 207 -9z"/>
<path d="M4522 9463 c-31 -27 -41 -56 -24 -67 5 -3 26 -1 46 5 33 9 44 7 89
-16 29 -15 59 -33 67 -41 8 -7 34 -17 58 -22 37 -9 44 -8 53 10 14 26 3 38
-89 100 -95 64 -151 73 -200 31z"/>
<path d="M4526 9254 c-7 -23 -11 -46 -7 -51 3 -6 25 -12 48 -15 41 -6 42 -5
53 28 15 45 0 71 -45 76 -33 4 -35 2 -49 -38z"/>
<path d="M3998 3547 c-58 -55 -335 -406 -367 -466 -16 -29 1 -51 38 -51 22 0
57 40 240 272 l215 271 -23 18 c-13 11 -26 19 -30 19 -3 0 -36 -28 -73 -63z"/>
<path d="M5305 2500 c-17 -19 -18 -27 -6 -113 20 -141 95 -322 196 -477 99
-150 132 -184 180 -184 20 0 43 7 52 17 16 15 13 21 -43 79 -33 35 -76 86 -96
114 -58 80 -126 230 -149 329 -18 80 -94 255 -110 255 -3 0 -14 -9 -24 -20z"/>
<path d="M6096 7865 c-30 -65 -76 -135 -129 -192 -39 -43 -46 -75 -16 -81 22
-4 130 96 167 156 17 26 38 71 49 100 16 46 16 54 3 62 -32 20 -48 10 -74 -45z"/>
</g>
</svg>
