<?xml version="1.0" standalone="no"?>
<!DOCTYPE svg PUBLIC "-//W3C//DTD SVG 20010904//EN"
 "http://www.w3.org/TR/2001/REC-SVG-20010904/DTD/svg10.dtd">
<svg version="1.0" xmlns="http://www.w3.org/2000/svg"
 width="1024.000000pt" height="1024.000000pt" viewBox="0 0 1024.000000 1024.000000"
 preserveAspectRatio="xMidYMid meet">
<metadata>
Created by potrace 1.10, written by Peter Selinger 2001-2011
</metadata>
<g transform="translate(0.000000,1024.000000) scale(0.100000,-0.100000)"
fill="#000000" stroke="none">
<path d="M5335 10046 c-171 -69 -255 -126 -371 -249 -109 -115 -194 -263 -194
-337 0 -16 10 -50 22 -75 20 -41 21 -49 10 -93 -7 -26 -18 -52 -25 -58 -7 -6
-56 -28 -110 -49 -91 -34 -107 -45 -210 -137 -61 -55 -129 -123 -150 -152 -83
-111 -145 -274 -162 -428 -4 -41 -11 -58 -21 -58 -25 0 -91 -76 -108 -125 -26
-78 -21 -135 19 -215 25 -50 46 -77 77 -98 47 -32 99 -52 133 -52 14 0 33 -13
48 -32 13 -18 90 -102 170 -187 l145 -154 11 -74 c21 -139 19 -141 -92 -125
-66 10 -126 5 -697 -63 -344 -42 -679 -82 -745 -90 -66 -8 -367 -44 -670 -80
-336 -40 -576 -73 -616 -85 -56 -17 -179 -86 -193 -109 -3 -3 -1 -51 4 -106 5
-55 7 -101 5 -103 -2 -2 -66 6 -142 18 -92 15 -158 32 -198 50 -59 27 -59 27
-160 191 -112 183 -144 214 -233 228 -61 9 -73 2 -92 -53 -9 -28 -7 -44 14
-102 14 -37 24 -70 22 -71 -1 -2 -27 10 -57 27 -30 16 -82 37 -117 46 -53 15
-66 15 -87 4 -22 -12 -25 -20 -25 -66 0 -29 5 -56 10 -59 5 -3 10 -15 10 -25
0 -10 20 -35 45 -56 55 -44 50 -53 -37 -71 -91 -18 -150 -83 -120 -130 4 -7
50 -25 101 -41 l94 -29 -44 -30 c-66 -46 -81 -67 -86 -120 -4 -39 -1 -52 17
-70 23 -25 43 -28 109 -12 24 5 46 8 48 5 2 -2 -10 -32 -27 -65 l-31 -62 20
-44 c18 -41 23 -45 55 -45 36 0 39 2 214 146 85 70 112 73 301 34 80 -17 172
-38 203 -46 45 -13 68 -14 115 -6 32 6 61 7 64 4 3 -4 12 -41 18 -82 31 -181
93 -276 211 -319 119 -44 175 -46 608 -28 l401 17 286 55 c157 30 313 62 345
71 l58 16 41 -33 c44 -35 44 -36 105 -254 16 -58 29 -140 35 -230 11 -148 15
-652 5 -696 -3 -14 2 -43 11 -65 38 -88 38 -93 -4 -141 -22 -24 -42 -55 -46
-70 -3 -14 -22 -45 -41 -68 -19 -23 -34 -46 -34 -50 0 -13 -82 -149 -92 -153
-4 -2 -8 -12 -8 -21 0 -10 -22 -48 -50 -84 -27 -36 -50 -72 -50 -80 0 -7 -4
-17 -9 -22 -15 -17 -216 -398 -307 -583 -68 -139 -89 -193 -99 -252 -7 -41
-16 -85 -20 -97 -5 -15 -1 -27 15 -43 22 -22 29 -22 87 1 28 11 63 8 277 -26
136 -21 251 -42 257 -46 12 -7 -115 -198 -152 -229 -23 -20 -59 -81 -59 -102
0 -9 -18 -39 -41 -68 -22 -28 -76 -122 -119 -208 -42 -86 -109 -211 -147 -277
-145 -250 -239 -444 -267 -552 -15 -56 -36 -122 -47 -147 -11 -26 -17 -50 -14
-55 3 -5 -2 -73 -11 -150 l-17 -141 -36 0 c-286 -2 -2161 -116 -2203 -135 -11
-4 -18 -18 -18 -35 0 -26 2 -27 68 -33 104 -10 546 -8 647 3 95 11 1407 80
1511 80 56 0 65 -3 121 -45 57 -43 65 -45 160 -57 l99 -11 -43 -40 c-24 -22
-43 -46 -43 -54 0 -8 -20 -39 -45 -70 -33 -40 -45 -64 -45 -87 l0 -33 -144
-46 c-79 -26 -154 -47 -168 -47 -46 0 -128 -31 -163 -61 -40 -35 -60 -87 -51
-133 12 -61 26 -66 225 -80 l181 -13 147 31 c102 22 179 46 246 76 l99 44 90
180 c50 100 102 197 117 216 19 26 26 47 26 82 l0 47 117 50 c65 28 122 51
129 51 6 0 29 -14 50 -31 29 -23 58 -34 116 -45 43 -7 677 -48 1410 -91 l1332
-77 313 43 c172 24 323 45 334 48 20 4 25 -5 53 -89 17 -51 31 -100 31 -108 0
-9 11 -31 24 -50 12 -19 26 -53 30 -75 23 -122 116 -195 248 -195 30 0 62 11
108 36 65 35 67 36 335 63 l270 28 90 41 c104 47 116 68 72 125 -49 65 -97 81
-444 146 -176 34 -324 61 -326 61 -5 0 -37 99 -37 114 0 3 530 6 1178 6 903 0
1181 3 1190 12 22 22 14 55 -20 76 -32 20 -56 20 -1204 24 l-1172 3 -22 43
c-13 23 -21 44 -19 46 17 16 188 76 230 82 66 8 135 56 196 135 53 70 68 101
92 189 18 65 19 75 6 93 -8 12 -15 28 -15 36 0 7 -7 19 -15 25 -21 16 -1027
1732 -1049 1790 -24 63 -79 124 -133 148 -23 10 -56 30 -72 44 -30 25 -30 25
-15 66 19 56 17 144 -5 193 -29 64 -94 112 -311 229 l-201 109 -75 88 c-41 49
-69 89 -62 89 65 0 458 42 474 51 22 11 86 104 124 178 32 64 40 189 14 225
-24 34 -105 76 -214 111 -69 22 -110 28 -216 33 -186 7 -354 -18 -566 -82 -46
-14 -48 -14 -116 19 -59 28 -72 39 -91 77 -11 24 -21 58 -21 74 0 45 195 368
260 430 46 44 144 113 162 114 4 0 31 11 60 24 29 13 98 38 153 56 55 18 129
50 165 71 129 75 291 137 502 194 221 59 164 50 1001 150 274 32 373 48 386
59 10 9 26 16 37 16 37 0 195 239 259 390 l36 85 222 52 c206 48 247 55 565
85 l344 32 24 48 c13 26 24 51 23 55 0 4 38 20 84 36 106 35 142 65 133 110
-4 18 -15 40 -25 51 -19 19 -19 19 1 47 40 53 0 99 -86 99 -50 0 -60 12 -36
43 18 22 19 29 8 54 -7 15 -13 30 -14 31 -7 11 -80 19 -111 12 -21 -4 -53 -10
-71 -14 l-34 -6 21 34 c12 18 21 45 21 59 0 29 -41 67 -72 67 -47 0 -340 -169
-504 -291 l-98 -72 -134 -30 c-105 -24 -138 -28 -152 -19 -38 23 -142 61 -232
83 -83 21 -111 23 -268 20 -96 -1 -202 -3 -235 -4 -40 0 -316 49 -820 146
l-760 147 -570 -1 -570 -1 -3 83 c-4 123 11 192 74 325 30 65 60 121 65 125 5
3 7 12 4 20 -4 10 14 29 54 57 61 43 118 107 139 155 13 30 14 87 4 125 -12
38 -62 82 -108 94 -24 7 -44 15 -44 18 0 3 16 36 35 73 19 38 35 70 35 72 0 3
-13 11 -29 20 -42 21 -67 69 -86 164 -20 102 -43 140 -126 214 -50 44 -61 59
-52 68 10 10 18 7 38 -15 l25 -27 37 19 c172 88 402 126 616 103 95 -11 112
-10 133 4 17 11 24 25 24 49 0 43 -27 67 -85 74 -41 4 -44 6 -31 21 8 9 16 33
17 54 3 36 1 39 -45 67 -35 20 -53 38 -60 61 -14 43 -67 79 -117 79 l-39 0 0
43 c0 64 -24 82 -113 83 -61 1 -71 4 -78 22 -33 89 -354 26 -525 -104 l-49
-37 26 34 c43 57 152 142 230 180 62 31 88 37 164 42 77 6 92 9 107 29 33 43
15 99 -39 127 -37 19 -105 11 -188 -23z m265 -452 c-127 -42 -259 -106 -368
-178 -101 -66 -129 -60 -52 12 125 117 317 196 485 201 33 0 22 -5 -65 -35z
m-479 -509 c23 -9 58 -27 76 -41 l33 -25 -22 -30 -22 -30 -18 36 c-10 19 -29
42 -42 51 -23 14 -27 14 -51 -2 -25 -16 -27 -16 -53 10 -41 39 -57 34 -78 -24
l-18 -50 -12 41 c-7 22 -20 49 -30 60 -17 19 -15 19 88 19 69 0 120 -5 149
-15z m-327 -17 c-10 -13 -19 -24 -20 -26 -1 -2 -4 4 -8 13 -4 10 2 19 17 25
32 13 32 12 11 -12z m-182 -74 c-3 -17 -8 -22 -15 -15 -7 7 -6 15 3 26 17 20
18 19 12 -11z m157 -31 c-1 -45 -1 -46 -10 -18 -8 27 -4 65 7 65 2 0 4 -21 3
-47z m-46 -199 c21 -4 37 0 56 14 22 16 41 19 106 17 131 -3 129 -3 147 -33
21 -36 79 -56 114 -40 19 9 28 8 44 -7 11 -10 20 -28 20 -40 0 -12 11 -32 24
-44 20 -19 33 -22 75 -20 l51 4 0 -60 c1 -33 7 -73 14 -90 12 -28 18 -31 87
-40 l74 -10 3 -37 c3 -32 -3 -44 -49 -95 -29 -32 -72 -73 -96 -91 -24 -18 -43
-38 -43 -44 0 -7 -20 -37 -44 -67 -92 -118 -126 -215 -133 -376 -6 -143 11
-229 57 -287 17 -21 26 -39 20 -43 -6 -4 -7 -57 -3 -143 8 -182 -6 -247 -107
-496 -44 -109 -83 -202 -86 -208 -7 -11 -44 65 -44 92 0 9 -13 47 -30 83 -16
37 -30 75 -30 86 0 10 -51 128 -114 262 -113 242 -114 244 -96 267 11 13 24
48 30 79 10 46 9 67 -4 120 -15 61 -22 71 -132 188 -64 68 -123 134 -132 147
-9 12 -37 48 -64 77 -26 30 -48 60 -48 66 0 6 -12 23 -27 37 -21 19 -43 27
-84 31 -31 3 -66 11 -77 18 -35 22 -54 69 -50 124 l3 50 55 0 c64 0 61 -4 82
145 l13 94 45 13 c57 16 93 56 88 95 -4 27 -3 28 33 28 30 0 42 6 59 30 18 25
28 30 61 30 74 0 106 71 54 120 -19 18 -25 33 -24 64 l0 41 37 -72 c29 -59 41
-73 65 -79z m434 74 c-3 -7 -5 -2 -5 12 0 14 2 19 5 13 2 -7 2 -19 0 -25z
m2092 -1559 c432 -83 789 -153 793 -155 4 -3 21 3 38 12 28 17 39 17 282 -11
l253 -28 22 -34 c16 -24 20 -39 14 -51 -5 -9 -26 -73 -46 -142 -20 -69 -43
-132 -50 -140 -7 -8 -20 -40 -30 -70 -34 -104 -89 -207 -162 -301 -24 -30 -43
-63 -43 -72 0 -25 -16 -28 -100 -18 -64 7 -140 0 -509 -45 -767 -94 -853 -117
-1474 -393 -324 -144 -466 -256 -593 -466 -43 -71 -104 -247 -104 -301 0 -37
-4 -46 -22 -53 -21 -9 -810 -112 -850 -111 -11 0 -15 5 -12 14 3 8 1 62 -5
121 -10 95 -9 109 6 133 10 15 21 30 26 33 5 3 19 73 32 155 20 123 36 184 95
349 75 214 75 212 90 235 15 24 100 211 100 221 0 5 4 9 8 9 17 0 92 120 92
147 0 25 159 422 179 448 5 5 24 57 44 115 27 80 38 136 47 236 15 150 8 188
-44 242 -30 33 -31 34 -11 49 15 11 36 13 85 10 36 -3 223 -2 415 2 193 4 417
8 499 9 l149 2 786 -151z m2335 142 c9 -13 -86 -130 -111 -137 -13 -3 -23 -11
-23 -16 0 -6 -8 -17 -17 -24 -33 -24 27 -2 87 33 65 37 256 91 271 76 19 -19
-3 -41 -72 -68 -38 -16 -69 -29 -69 -29 0 -1 66 1 146 2 l146 4 -4 -29 c-3
-26 -6 -28 -41 -25 -36 3 -307 -25 -314 -32 -2 -2 67 -13 153 -24 86 -12 158
-23 160 -25 2 -1 1 -12 -2 -23 -7 -27 -78 -44 -179 -44 -41 0 -91 -7 -116 -16
-30 -11 -61 -14 -96 -10 -64 7 -93 -7 -93 -46 0 -30 2 -30 193 -44 86 -6 94
-9 79 -30 -10 -16 -220 -28 -447 -25 l-190 2 -167 -45 c-93 -24 -168 -41 -168
-38 0 9 59 205 63 207 12 10 201 47 270 54 71 7 93 13 113 32 13 12 24 28 24
35 0 7 27 29 59 48 32 20 116 83 185 141 121 100 148 116 160 96z m-4974 -182
c0 -5 22 -38 50 -72 27 -35 53 -81 58 -103 5 -21 56 -158 112 -304 57 -146
111 -300 122 -343 l18 -78 -34 -67 c-19 -38 -41 -74 -50 -81 -9 -8 -16 -21
-16 -31 0 -24 -92 -230 -124 -277 -14 -21 -26 -42 -26 -46 0 -5 -7 -23 -15
-40 -21 -47 -72 -239 -89 -339 -10 -59 -22 -95 -35 -110 -12 -12 -21 -35 -21
-53 0 -17 -7 -57 -15 -88 -8 -32 -20 -100 -26 -152 -9 -80 -9 -98 4 -124 l15
-31 -359 0 -359 0 6 26 c4 15 7 137 8 273 1 257 -10 363 -55 543 -10 42 -19
95 -19 117 0 80 -77 192 -152 221 -18 7 -43 22 -54 32 -19 17 -26 18 -70 7
-27 -7 -60 -20 -74 -30 -33 -23 -661 -145 -850 -166 -239 -25 -567 -2 -688 50
-51 21 -56 26 -96 107 -41 80 -44 93 -55 212 -7 85 -8 136 -1 153 6 15 10 108
10 209 0 124 4 191 13 209 13 29 27 34 217 86 52 14 457 62 1315 156 682 75
1258 139 1280 144 42 8 55 6 55 -10z m-3626 -271 c66 -138 80 -159 139 -215
36 -35 72 -63 79 -63 8 0 32 -13 55 -30 38 -28 49 -30 196 -43 86 -7 159 -15
161 -18 7 -6 -18 -256 -26 -264 -3 -4 -14 -2 -25 4 -25 14 -484 131 -515 131
-14 0 -31 -6 -37 -14 -6 -7 -29 -16 -50 -20 -21 -3 -50 -15 -64 -27 -32 -24
-31 -24 -12 31 8 23 15 51 15 61 0 18 -2 18 -42 2 -24 -9 -50 -22 -58 -28 -8
-7 -43 -23 -78 -35 -49 -18 -69 -21 -95 -14 l-32 10 48 33 c51 35 158 81 189
81 9 0 24 14 33 30 l16 30 -68 0 c-76 0 -195 17 -203 29 -3 4 -13 10 -22 14
-10 3 -18 13 -18 22 0 11 11 15 45 15 25 0 45 -4 45 -10 0 -6 32 -10 78 -9 76
1 77 1 42 15 l-35 14 56 -3 c60 -2 89 12 89 44 0 12 -25 37 -67 67 -36 26 -78
57 -92 69 l-26 22 26 1 c14 0 67 -25 117 -55 50 -30 98 -55 106 -55 18 0 40
26 28 34 -5 3 -15 34 -22 68 -6 35 -23 82 -36 105 -41 69 -51 123 -23 123 6 0
43 -69 83 -152z m5566 -2124 c210 -26 240 -36 240 -75 0 -40 -25 -41 -417 -9
-289 23 -381 33 -392 45 -8 8 -13 16 -10 19 10 10 307 54 339 50 19 -2 127
-15 240 -30z m-991 -226 c-21 -39 -190 -261 -223 -292 -27 -26 -112 -82 -174
-115 -16 -8 -1 18 48 86 53 74 104 129 212 225 79 69 144 125 146 123 2 -2 -2
-14 -9 -27z m-332 -111 c-155 -156 -257 -308 -257 -382 0 -36 7 -47 68 -110
72 -76 127 -109 214 -127 74 -15 122 3 207 79 54 48 63 54 58 33 -17 -58 -26
-133 -32 -260 -5 -128 -5 -137 15 -158 49 -52 100 -34 100 35 0 50 68 110 135
118 76 10 125 27 140 48 11 16 10 25 -12 67 -24 46 -25 59 -25 187 0 76 7 191
16 256 9 65 16 123 16 129 0 16 38 -21 46 -45 3 -11 21 -41 39 -66 18 -25 47
-75 65 -111 31 -62 45 -80 151 -197 l47 -52 143 -9 c128 -9 149 -8 196 9 l53
18 63 -27 c116 -51 124 -58 130 -121 4 -48 0 -64 -27 -118 -27 -54 -46 -74
-158 -162 -123 -97 -136 -105 -373 -212 l-245 -111 -75 7 c-72 7 -75 6 -75
-14 0 -20 -4 -21 -132 -20 -73 0 -210 4 -305 8 -165 7 -174 9 -236 39 -36 18
-84 51 -107 75 -47 46 -120 185 -120 227 0 15 -18 69 -39 121 -91 217 -162
514 -165 689 -2 77 -7 114 -19 138 -10 17 -14 32 -10 33 5 0 136 19 293 43
157 24 293 44 302 45 11 0 -25 -42 -85 -102z m-1147 2 c152 -11 367 -7 482 7
l46 6 11 -38 c6 -22 11 -65 11 -97 0 -72 86 -550 105 -588 26 -50 136 -403
142 -455 5 -42 1 -59 -17 -92 -31 -56 -49 -60 -83 -22 -27 30 -29 31 -42 13
-8 -10 -15 -26 -15 -36 0 -17 -8 -18 -92 -13 -51 3 -185 8 -298 11 -238 7
-335 -5 -391 -47 -52 -39 -100 -48 -267 -48 -132 0 -170 4 -285 29 -72 17
-166 33 -208 37 l-77 7 13 46 c15 57 192 436 211 452 8 6 46 72 85 146 64 122
388 641 427 686 12 13 25 17 47 13 16 -3 104 -10 195 -17z m1040 -358 c0 -5
-7 -12 -16 -15 -14 -5 -15 -4 -4 9 14 17 20 19 20 6z m1758 -623 c71 -33 151
-119 201 -218 95 -185 547 -1031 604 -1130 78 -136 213 -336 321 -474 118
-151 118 -149 22 -292 -48 -70 -84 -114 -95 -114 -9 0 -102 -34 -206 -76 -245
-99 -334 -119 -620 -144 -410 -35 -475 -46 -596 -105 l-47 -22 -12 91 c-7 52
-101 416 -217 846 -182 671 -207 772 -224 905 -10 83 -26 176 -35 208 -10 31
-15 58 -13 60 2 1 31 21 64 43 33 22 191 98 350 168 289 126 290 127 370 201
44 41 81 74 83 75 1 0 24 -10 50 -22z m-1868 -328 c9 -18 8 -20 -15 -20 -23 0
-24 2 -15 20 6 11 13 20 15 20 2 0 9 -9 15 -20z m-580 -126 c184 -2 344 -7
356 -9 21 -5 21 -6 -17 -147 -21 -79 -43 -174 -49 -212 -17 -113 -118 -502
-157 -605 -42 -115 -123 -272 -194 -379 -29 -42 -110 -143 -181 -224 -118
-134 -148 -162 -355 -322 -207 -160 -233 -177 -312 -205 l-86 -29 -283 12
c-191 9 -287 17 -295 25 -17 17 -22 184 -7 251 6 30 14 65 16 76 2 12 12 24
23 27 19 5 36 62 26 89 -6 16 21 156 34 172 4 6 15 31 23 56 18 53 526 957
567 1009 16 20 63 98 106 174 43 75 81 140 86 143 5 3 36 10 70 15 40 6 89 25
142 55 68 37 88 44 117 39 19 -3 186 -8 370 -11z m1153 -10 l257 -6 0 -40 c0
-64 67 -383 116 -554 172 -601 337 -1222 373 -1410 22 -115 43 -219 47 -231 6
-22 4 -23 -47 -23 -30 0 -398 13 -819 30 l-765 31 -430 55 c-400 51 -485 66
-485 83 0 12 488 451 502 452 20 1 85 81 71 86 -8 3 14 45 59 111 68 100 79
127 190 427 112 306 120 334 189 641 l73 322 83 6 c46 4 100 13 120 21 26 10
65 13 123 10 47 -3 201 -8 343 -11z m2034 -2119 c12 -49 27 -116 32 -149 14
-78 26 -94 110 -144 82 -49 115 -58 396 -103 110 -18 210 -35 223 -38 12 -4
-109 -17 -270 -29 -161 -13 -342 -30 -402 -39 -104 -15 -109 -14 -127 3 -10
11 -50 111 -90 224 -39 113 -82 226 -95 252 -13 26 -21 53 -18 61 6 16 152 56
193 54 23 -2 27 -11 48 -92z m-354 18 c16 -57 17 -93 4 -93 -8 0 -173 -14
-367 -30 -194 -17 -359 -30 -367 -28 -8 2 17 22 56 46 l69 43 294 38 c161 21
296 39 300 40 4 0 9 -7 11 -16z m-3908 -215 c-48 -128 -68 -175 -110 -264
l-44 -90 -124 -57 -124 -57 -214 0 -214 1 35 19 c20 10 123 46 230 80 107 34
195 62 196 63 63 99 186 345 179 358 -4 5 39 9 104 9 l110 0 -24 -62z"/>
<path d="M4941 8590 c-43 -34 -51 -46 -51 -74 0 -48 35 -89 69 -81 14 4 33 13
42 21 9 8 30 19 46 23 27 8 33 6 52 -20 17 -23 29 -29 59 -29 21 0 48 7 61 16
19 14 22 23 18 51 -8 46 -51 102 -93 119 -18 8 -60 14 -93 14 -54 0 -64 -3
-110 -40z"/>
<path d="M4557 8606 c-59 -22 -99 -53 -145 -118 -52 -71 -64 -101 -56 -134 7
-26 48 -64 70 -64 12 0 61 54 132 144 22 29 22 29 92 19 66 -9 71 -8 91 13 42
45 3 123 -72 144 -44 13 -66 12 -112 -4z"/>
<path d="M4965 8381 c-63 -28 -87 -104 -43 -135 12 -9 41 -16 63 -16 22 0 57
-4 78 -9 32 -8 39 -6 52 12 20 28 19 87 -1 116 -16 23 -71 52 -96 50 -7 0 -31
-8 -53 -18z"/>
<path d="M4547 8286 c-46 -38 -57 -53 -57 -77 l0 -29 94 0 c90 0 95 1 125 29
56 53 30 110 -55 118 -47 5 -52 3 -107 -41z"/>
<path d="M4741 8144 c-12 -15 -21 -34 -21 -43 0 -10 -7 -26 -15 -37 -8 -10
-15 -35 -15 -56 0 -28 7 -42 31 -62 60 -51 149 -25 149 43 0 15 -9 40 -20 54
-11 14 -20 38 -20 54 0 34 -8 46 -37 62 -29 15 -28 15 -52 -15z"/>
<path d="M4840 7844 c-28 -9 -61 -12 -88 -8 -50 6 -82 -14 -82 -52 0 -26 26
-32 174 -36 86 -3 89 -2 109 25 20 26 20 30 6 55 -18 33 -54 38 -119 16z"/>
<path d="M4896 7368 c-25 -36 -21 -101 10 -137 34 -41 88 -52 117 -23 19 19
19 22 4 44 -72 102 -95 132 -104 135 -6 2 -18 -6 -27 -19z"/>
<path d="M7500 6688 c-157 -82 -305 -166 -329 -186 -72 -59 -86 -123 -31 -152
31 -17 46 -12 65 23 13 25 51 52 169 119 83 48 192 102 243 121 104 39 177 88
218 147 15 22 26 42 24 43 -23 19 -55 37 -64 36 -5 0 -138 -68 -295 -151z"/>
<path d="M7592 6462 c-169 -109 -182 -119 -176 -142 12 -55 24 -55 134 0 76
38 128 74 201 138 l99 87 -22 17 c-13 10 -30 17 -38 17 -8 0 -97 -53 -198
-117z"/>
<path d="M2420 6630 c-21 -21 -27 -78 -11 -95 9 -10 30 -45 83 -141 32 -58 99
-122 185 -176 75 -48 116 -50 137 -9 14 27 14 29 -17 59 -18 16 -67 59 -110
95 -58 48 -90 85 -127 145 -28 44 -50 85 -50 90 0 10 -52 52 -64 52 -3 0 -15
-9 -26 -20z"/>
<path d="M2348 6319 c-18 -10 -24 -45 -10 -65 4 -6 59 -47 122 -91 110 -78
115 -81 141 -67 36 18 40 32 19 74 -21 41 -83 88 -172 130 -69 33 -75 34 -100
19z"/>
<path d="M6785 2270 c-13 -15 -16 -30 -12 -61 6 -47 28 -75 74 -94 27 -12 34
-22 48 -72 48 -179 60 -205 124 -277 46 -50 74 -60 112 -41 16 9 29 24 29 34
0 10 -29 57 -65 104 -44 59 -65 95 -65 115 0 46 -28 139 -54 179 -36 58 -127
133 -158 133 -8 0 -23 -9 -33 -20z"/>
<path d="M4036 2028 c-110 -112 -229 -233 -265 -270 l-65 -67 17 -36 c14 -29
22 -36 42 -33 40 5 306 257 437 415 65 78 118 147 118 152 0 12 -52 41 -72 41
-7 0 -103 -91 -212 -202z"/>
</g>
</svg>
