<?xml version="1.0" standalone="no"?>
<!DOCTYPE svg PUBLIC "-//W3C//DTD SVG 20010904//EN"
 "http://www.w3.org/TR/2001/REC-SVG-20010904/DTD/svg10.dtd">
<svg version="1.0" xmlns="http://www.w3.org/2000/svg"
 width="1024.000000pt" height="1024.000000pt" viewBox="0 0 1024.000000 1024.000000"
 preserveAspectRatio="xMidYMid meet">
<metadata>
Created by potrace 1.10, written by Peter Selinger 2001-2011
</metadata>
<g transform="translate(0.000000,1024.000000) scale(0.100000,-0.100000)"
fill="#000000" stroke="none">
<path d="M4841 9350 c-39 -54 -54 -116 -48 -197 3 -37 28 -260 55 -494 l51
-427 -42 -44 c-23 -24 -207 -221 -409 -438 l-366 -395 -389 -518 c-213 -284
-428 -574 -478 -643 -49 -69 -123 -170 -165 -226 -108 -143 -120 -165 -120
-221 0 -82 51 -157 97 -140 10 3 56 38 102 76 102 86 186 198 305 407 98 172
234 382 347 537 100 134 1138 1308 1143 1291 2 -7 30 -381 62 -832 41 -590 55
-823 47 -835 -20 -31 -24 -114 -10 -193 12 -64 12 -127 1 -395 -11 -274 -11
-335 1 -438 8 -66 15 -138 15 -161 l0 -42 -105 -56 c-406 -215 -773 -600
-1014 -1067 -193 -371 -371 -904 -455 -1359 -26 -142 -76 -644 -83 -830 -9
-277 24 -694 77 -970 10 -52 17 -96 16 -97 0 -1 -271 -4 -601 -7 -330 -4 -742
-9 -914 -12 l-315 -6 -28 -28 c-37 -38 -39 -96 -4 -137 l24 -28 1944 1 c1449
1 2317 7 3413 22 1840 27 1971 30 2006 47 49 26 55 96 12 137 -28 25 -30 26
-298 38 -174 9 -511 12 -947 11 -651 -2 -678 -2 -678 16 -1 97 -67 488 -289
1733 -144 800 -261 1476 -261 1501 0 33 -12 71 -41 135 -23 49 -55 141 -70
204 -37 150 -120 318 -228 460 -213 284 -435 403 -757 404 l-122 1 -6 180 c-3
99 -8 299 -11 445 -4 194 -27 538 -85 1289 -44 563 -80 1028 -80 1034 0 5 30
-7 66 -27 36 -20 306 -140 599 -266 721 -309 842 -364 1265 -577 240 -120 376
-183 396 -183 39 0 76 29 98 75 22 45 14 87 -23 117 -40 34 -2311 1052 -2341
1050 -14 -1 -37 -11 -51 -22 l-27 -19 -6 72 c-3 40 -17 250 -31 467 -14 217
-30 416 -36 442 -13 56 -59 130 -99 158 -44 32 -75 26 -109 -20z m809 -4475
c94 -25 220 -95 280 -155 63 -64 130 -176 177 -299 19 -47 50 -119 69 -160 19
-40 47 -110 61 -155 14 -44 29 -85 33 -91 4 -5 11 -26 15 -45 12 -60 52 -194
69 -230 18 -40 310 -1684 321 -1805 4 -44 20 -145 36 -225 35 -172 72 -390 94
-551 15 -111 55 -483 52 -485 -1 -1 -549 -6 -1217 -13 -668 -6 -1380 -14
-1582 -18 l-366 -6 -7 49 c-3 27 -15 103 -26 169 -87 540 -73 1082 42 1675 71
363 125 548 282 962 l125 326 182 229 c101 125 208 255 239 288 217 230 517
450 716 522 117 43 284 51 405 18z"/>
</g>
</svg>
