<?xml version="1.0" standalone="no"?>
<!DOCTYPE svg PUBLIC "-//W3C//DTD SVG 20010904//EN"
 "http://www.w3.org/TR/2001/REC-SVG-20010904/DTD/svg10.dtd">
<svg version="1.0" xmlns="http://www.w3.org/2000/svg"
 width="1024.000000pt" height="1024.000000pt" viewBox="0 0 1024.000000 1024.000000"
 preserveAspectRatio="xMidYMid meet">
<metadata>
Created by potrace 1.10, written by Peter Selinger 2001-2011
</metadata>
<g transform="translate(0.000000,1024.000000) scale(0.100000,-0.100000)"
fill="#000000" stroke="none">
<path d="M3504 10171 c-108 -39 -202 -104 -264 -183 -132 -167 -151 -292 -85
-563 21 -82 45 -166 55 -185 9 -19 22 -63 29 -97 11 -59 88 -280 113 -326 6
-12 26 -71 43 -132 39 -135 500 -1408 525 -1450 11 -17 57 -138 104 -270 46
-132 102 -289 124 -350 22 -60 47 -146 56 -190 15 -73 38 -276 32 -282 -14
-14 -86 41 -255 195 l-200 183 -466 669 c-256 368 -465 677 -465 687 0 20 -43
90 -70 113 -10 8 -96 163 -191 344 -155 293 -181 337 -241 401 -78 83 -136
118 -244 145 -119 31 -153 27 -295 -30 -145 -59 -202 -96 -291 -188 -113 -117
-153 -224 -146 -391 5 -99 9 -116 63 -261 32 -85 69 -166 82 -181 12 -14 23
-35 23 -48 0 -12 15 -38 34 -57 21 -22 51 -74 77 -137 33 -80 99 -188 309
-507 147 -223 273 -421 280 -440 27 -72 88 -170 210 -340 719 -998 662 -908
690 -1085 6 -38 21 -100 32 -137 20 -61 20 -71 8 -122 -7 -31 -15 -56 -17 -56
-22 0 -181 124 -893 694 -454 364 -847 675 -875 692 -76 45 -184 91 -277 115
-67 19 -111 23 -228 23 -128 1 -151 -2 -201 -22 -106 -43 -179 -128 -179 -211
0 -50 48 -198 93 -288 74 -144 199 -294 521 -621 268 -272 541 -518 846 -761
80 -64 176 -145 213 -180 175 -165 321 -385 417 -626 31 -78 42 -115 109 -365
42 -152 162 -483 186 -510 7 -8 26 -48 40 -88 78 -218 278 -516 475 -712 131
-131 229 -204 570 -427 173 -113 349 -233 390 -267 111 -90 245 -230 330 -345
41 -57 103 -139 137 -183 97 -125 215 -387 267 -592 14 -54 26 -100 28 -101 2
-2 42 -6 90 -10 l86 -7 -29 108 c-16 60 -46 174 -66 254 -57 230 -74 280 -110
324 -18 23 -41 59 -52 82 -28 61 -226 366 -253 390 -41 38 -740 549 -850 622
-315 210 -516 441 -749 861 -107 192 -259 558 -259 623 0 16 -10 47 -21 70
-13 25 -27 84 -35 146 -22 166 -115 375 -244 547 -159 212 -616 658 -885 863
-363 277 -837 790 -942 1020 -18 40 -42 85 -54 101 -43 59 -26 61 253 27 l198
-24 47 -39 c27 -22 134 -100 238 -173 269 -190 1285 -1001 1358 -1084 82 -93
174 -138 296 -144 70 -3 96 -1 125 13 82 39 115 126 123 320 6 141 -3 217 -42
380 -46 187 -75 231 -461 705 -190 234 -356 441 -369 460 -13 19 -37 71 -53
115 -24 63 -73 143 -227 370 -108 160 -217 326 -242 370 -25 44 -58 100 -73
125 -15 25 -45 86 -66 135 -20 50 -52 106 -70 125 -18 19 -37 52 -42 72 -6 21
-20 51 -31 67 -12 16 -21 38 -21 49 0 10 -8 30 -19 43 -10 13 -22 38 -25 56
-4 18 -16 43 -26 56 -14 18 -20 44 -22 108 -3 78 -1 89 30 151 62 125 170 212
302 242 111 26 108 27 195 -75 94 -109 483 -705 502 -769 26 -84 61 -147 147
-265 47 -64 86 -127 86 -138 0 -11 27 -50 59 -87 63 -71 170 -229 289 -430 95
-161 186 -288 305 -425 119 -137 160 -177 372 -360 182 -156 250 -198 350
-216 33 -5 80 -15 105 -21 85 -20 84 -21 98 62 21 121 10 402 -20 515 -13 50
-218 635 -455 1300 -374 1050 -436 1232 -468 1375 -24 109 -43 170 -55 180 -9
8 -26 40 -38 70 -47 123 -66 254 -53 378 8 88 18 98 166 172 91 46 103 49 139
41 21 -5 55 -25 75 -45 20 -19 56 -42 81 -52 61 -24 112 -56 154 -99 82 -82
188 -258 242 -403 14 -35 37 -89 53 -120 16 -32 72 -179 124 -327 181 -515
569 -1611 613 -1735 80 -222 234 -520 380 -732 29 -43 56 -88 60 -100 17 -58
58 -120 116 -179 35 -35 79 -85 98 -111 28 -40 39 -48 65 -48 19 0 48 11 72
29 35 25 44 41 78 137 21 60 56 154 77 209 125 323 199 703 200 1020 0 83 -12
418 -27 745 -15 327 -25 642 -22 700 10 188 62 384 126 473 95 132 145 166
242 167 59 0 69 -7 69 -51 0 -11 47 -183 104 -382 l104 -362 6 -375 c2 -206
10 -436 16 -510 9 -95 10 -215 4 -405 -11 -326 -9 -525 6 -665 6 -59 86 -443
185 -890 95 -432 183 -845 194 -919 17 -107 38 -182 106 -381 47 -137 85 -259
85 -272 1 -41 37 -107 72 -128 18 -11 49 -20 67 -20 29 0 43 9 85 52 103 110
173 247 202 395 7 39 88 289 179 555 139 405 175 498 219 573 29 50 63 122 74
161 13 41 43 104 73 149 28 44 74 129 102 190 69 151 140 239 403 502 l223
222 98 41 c53 22 113 43 133 46 19 2 91 -6 160 -19 l125 -23 13 -36 c12 -31
12 -40 -2 -69 -8 -19 -22 -77 -30 -129 -11 -72 -72 -266 -250 -795 -224 -671
-240 -712 -366 -990 -72 -159 -153 -328 -179 -375 -26 -47 -58 -114 -71 -150
-13 -36 -34 -78 -46 -93 -13 -15 -26 -44 -30 -65 -8 -46 -285 -624 -361 -752
-147 -248 -294 -444 -504 -672 -75 -80 -130 -125 -310 -254 -120 -86 -219
-160 -219 -165 0 -22 100 -199 112 -199 4 0 66 45 138 100 72 55 134 100 138
100 11 0 239 -589 246 -635 3 -22 47 -152 96 -290 83 -228 100 -288 196 -695
117 -499 133 -560 145 -560 5 0 53 32 108 70 l99 70 -29 76 c-16 41 -29 94
-29 116 0 56 -513 1755 -552 1829 -16 31 -48 77 -71 103 l-42 47 141 142 c158
160 240 259 353 428 89 132 114 178 395 728 114 223 221 420 238 440 74 84
142 220 174 345 8 34 41 120 73 191 152 336 296 811 361 1190 45 263 60 310
193 579 107 220 122 256 122 300 0 99 -98 242 -205 300 -75 41 -142 56 -253
56 -83 0 -118 -6 -244 -41 -140 -38 -151 -43 -213 -94 -114 -95 -394 -386
-471 -490 -174 -235 -365 -581 -468 -845 -29 -74 -83 -207 -120 -295 -39 -91
-123 -334 -197 -563 -120 -376 -129 -402 -141 -375 -6 15 -23 55 -37 88 -16
37 -42 145 -66 280 -45 244 -71 348 -136 540 -53 158 -227 965 -243 1130 -6
61 -16 516 -21 1015 -10 945 -17 1110 -51 1275 -24 116 -78 288 -120 382 -16
36 -35 103 -43 149 -11 71 -20 94 -62 158 -43 65 -56 79 -104 100 -159 71
-312 52 -448 -56 -56 -45 -132 -138 -132 -162 0 -11 -19 -44 -42 -74 -60 -80
-100 -221 -117 -416 -8 -81 -3 -191 22 -551 53 -778 40 -1117 -59 -1565 -31
-137 -83 -320 -121 -421 l-27 -72 -17 49 c-9 28 -49 108 -89 179 -51 89 -77
148 -86 191 -10 44 -62 159 -173 381 -129 260 -161 330 -169 383 -6 42 -95
289 -256 709 -135 354 -246 657 -246 673 0 15 -15 58 -34 95 -19 38 -71 157
-115 267 -105 255 -176 367 -302 473 -28 23 -72 75 -98 116 -103 158 -240 259
-408 301 -101 25 -144 26 -199 7z"/>
<path d="M6235 5628 c-116 -28 -257 -82 -524 -199 -257 -113 -334 -152 -586
-300 -434 -254 -605 -381 -856 -629 -124 -122 -179 -195 -179 -233 0 -26 41
-66 79 -78 l38 -11 149 149 c173 174 343 311 562 456 274 181 476 295 778 439
123 58 257 104 484 168 134 37 231 131 201 196 -10 24 -66 55 -93 53 -7 -1
-31 -5 -53 -11z"/>
<path d="M4105 4892 c-207 -112 -351 -213 -489 -344 -98 -94 -112 -125 -76
-171 34 -42 71 -37 139 21 58 51 177 139 246 183 60 39 242 133 305 159 36 14
64 33 77 54 37 53 37 62 1 101 -53 58 -92 57 -203 -3z"/>
<path d="M6869 4732 c-76 -49 -131 -122 -212 -280 -152 -296 -259 -634 -292
-917 -5 -36 -15 -68 -26 -80 -43 -47 -49 -88 -95 -613 -25 -284 -43 -532 -40
-551 3 -20 -2 -53 -14 -85 -25 -64 -25 -119 -1 -173 22 -47 53 -71 104 -80 35
-5 36 -5 66 56 35 68 41 138 17 194 -14 35 -14 55 10 322 25 282 91 687 130
795 11 31 14 61 10 96 -8 73 65 370 149 606 58 161 79 207 200 416 74 129 135
240 135 246 -1 10 -80 76 -92 76 -2 0 -24 -13 -49 -28z"/>
</g>
</svg>
