<?xml version="1.0" standalone="no"?>
<!DOCTYPE svg PUBLIC "-//W3C//DTD SVG 20010904//EN"
 "http://www.w3.org/TR/2001/REC-SVG-20010904/DTD/svg10.dtd">
<svg version="1.0" xmlns="http://www.w3.org/2000/svg"
 width="1024.000000pt" height="1024.000000pt" viewBox="0 0 1024.000000 1024.000000"
 preserveAspectRatio="xMidYMid meet">
<metadata>
Created by potrace 1.10, written by Peter Selinger 2001-2011
</metadata>
<g transform="translate(0.000000,1024.000000) scale(0.100000,-0.100000)"
fill="#000000" stroke="none">
<path d="M5613 9200 c-128 -59 -299 -374 -371 -685 -42 -179 -101 -708 -127
-1129 -13 -219 -26 -400 -28 -402 -2 -2 -55 72 -118 164 -128 187 -288 402
-421 567 -49 61 -119 148 -156 194 -69 87 -178 216 -239 284 -32 36 -36 38
-63 27 -43 -18 -75 -89 -75 -165 0 -84 26 -126 174 -289 236 -259 424 -509
651 -868 74 -117 154 -232 178 -255 l43 -42 -1 -858 c0 -999 -10 -1167 -85
-1578 -25 -135 -119 -492 -135 -508 -4 -5 -229 148 -499 339 l-492 347 -222
235 c-152 161 -270 276 -375 364 -85 70 -158 128 -163 128 -16 0 -52 -20 -76
-43 -45 -40 -34 -60 150 -293 l172 -218 590 -479 c325 -263 643 -515 708 -558
64 -44 117 -81 117 -84 0 -3 -62 -123 -137 -267 -217 -419 -415 -705 -734
-1063 -172 -194 -1070 -1063 -1148 -1111 -103 -64 -141 -105 -141 -149 0 -78
52 -135 104 -115 14 5 138 94 278 198 l253 190 346 348 c190 192 395 403 455
469 457 504 730 915 935 1406 28 68 56 129 63 135 6 6 42 23 79 38 74 29 2521
1472 2678 1580 105 71 159 125 159 158 0 25 -73 98 -99 98 -79 0 -1140 -591
-1806 -1006 -220 -138 -513 -311 -652 -387 -138 -75 -253 -137 -256 -137 -2 0
4 30 15 68 31 111 75 338 97 492 33 236 40 437 52 1410 6 509 11 925 12 926 1
0 31 21 67 45 72 51 317 195 1015 598 492 284 545 322 545 380 0 35 -35 80
-82 105 -32 17 -35 17 -89 -3 -30 -12 -80 -36 -110 -55 -830 -512 -1308 -790
-1327 -771 -10 10 18 566 38 765 47 450 140 921 210 1065 16 33 67 104 113
158 47 54 90 111 97 127 24 58 -7 100 -89 119 -31 7 -48 5 -78 -9z"/>
<path d="M6012 3650 c0 -8 6 -31 13 -50 7 -19 13 -28 13 -20 0 8 -6 31 -13 50
-7 19 -13 28 -13 20z"/>
</g>
</svg>
