<?xml version="1.0" standalone="no"?>
<!DOCTYPE svg PUBLIC "-//W3C//DTD SVG 20010904//EN"
 "http://www.w3.org/TR/2001/REC-SVG-20010904/DTD/svg10.dtd">
<svg version="1.0" xmlns="http://www.w3.org/2000/svg"
 width="1024.000000pt" height="1024.000000pt" viewBox="0 0 1024.000000 1024.000000"
 preserveAspectRatio="xMidYMid meet">
<metadata>
Created by potrace 1.10, written by Peter Selinger 2001-2011
</metadata>
<g transform="translate(0.000000,1024.000000) scale(0.100000,-0.100000)"
fill="#000000" stroke="none">
<path d="M5396 9217 c-31 -34 -56 -66 -56 -71 0 -5 23 -50 50 -101 28 -51 50
-98 50 -105 0 -7 -28 -45 -62 -85 -62 -71 -72 -77 -497 -326 -455 -266 -640
-364 -881 -466 -265 -112 -594 -225 -865 -298 -127 -34 -649 -186 -653 -190
-2 -1 4 -10 13 -19 26 -26 103 -20 470 34 558 81 773 126 1222 252 l182 51 83
-49 c261 -153 438 -449 563 -940 35 -139 62 -281 54 -287 -11 -10 -1752 -268
-1900 -282 -224 -20 -252 -20 -584 15 -159 16 -290 28 -293 26 -2 -2 13 -57
34 -121 l37 -116 74 -69 c61 -57 99 -81 235 -149 93 -46 188 -86 221 -93 67
-14 108 -6 337 68 276 90 790 189 1571 304 151 22 288 43 305 46 l31 6 16
-109 c54 -358 79 -605 121 -1176 3 -41 0 -48 -18 -52 -12 -3 -610 -75 -1331
-160 -1018 -121 -1388 -162 -1660 -181 l-350 -25 -351 36 c-193 19 -363 35
-377 35 l-26 0 46 -137 c43 -133 47 -140 101 -193 76 -73 157 -126 258 -167
46 -19 107 -50 136 -69 156 -102 294 -107 533 -19 107 40 197 63 405 104 380
75 1179 194 2055 306 191 24 584 59 591 53 11 -11 7 -894 -5 -1128 -27 -530
-78 -895 -166 -1185 -41 -135 -76 -205 -118 -241 -25 -21 -38 -24 -113 -24
-236 0 -503 113 -843 358 -15 11 -20 8 -36 -21 l-18 -33 230 -230 c328 -327
513 -544 588 -691 48 -93 112 -179 150 -203 150 -93 407 189 569 623 186 500
279 1297 262 2262 -4 209 -9 424 -13 477 l-6 96 44 6 c24 3 674 40 1444 81
770 42 1430 80 1467 86 114 18 169 70 176 166 4 54 1 61 -31 103 -19 25 -67
72 -106 104 -62 51 -94 68 -249 128 l-177 69 -140 -16 c-77 -8 -365 -53 -640
-100 -453 -76 -558 -91 -1120 -150 -341 -35 -634 -67 -651 -70 l-30 -5 -12
157 c-29 365 -85 833 -135 1116 -14 76 -14 77 7 77 12 0 389 27 838 59 785 56
818 60 859 82 57 32 81 67 87 128 6 66 -21 108 -115 184 -61 50 -82 60 -216
102 -146 46 -151 47 -235 40 -48 -4 -108 -16 -134 -26 -68 -26 -220 -64 -383
-93 -104 -19 -779 -116 -808 -116 -2 0 -10 26 -17 58 -7 31 -30 113 -52 181
-134 418 -341 736 -667 1022 l-74 65 124 44 c314 110 520 199 1004 434 351
170 425 218 410 266 -11 35 -116 142 -207 211 -178 136 -464 304 -550 323 -23
5 -34 -2 -82 -57z"/>
</g>
</svg>
