<?xml version="1.0" standalone="no"?>
<!DOCTYPE svg PUBLIC "-//W3C//DTD SVG 20010904//EN"
 "http://www.w3.org/TR/2001/REC-SVG-20010904/DTD/svg10.dtd">
<svg version="1.0" xmlns="http://www.w3.org/2000/svg"
 width="1024.000000pt" height="1024.000000pt" viewBox="0 0 1024.000000 1024.000000"
 preserveAspectRatio="xMidYMid meet">
<metadata>
Created by potrace 1.10, written by Peter Selinger 2001-2011
</metadata>
<g transform="translate(0.000000,1024.000000) scale(0.100000,-0.100000)"
fill="#000000" stroke="none">
<path d="M5567 9383 c-48 -27 -112 -68 -143 -92 -183 -144 -305 -411 -344
-754 -10 -86 -3 -827 16 -1626 l6 -264 -134 8 c-73 4 -165 15 -204 25 -183 47
-328 162 -518 409 -74 96 -140 204 -264 432 -79 146 -105 202 -117 259 -35
164 -97 214 -196 158 -45 -25 -46 -32 -25 -173 26 -166 136 -421 274 -630 103
-156 159 -225 295 -364 246 -249 368 -308 720 -346 l168 -19 -5 -45 c-4 -25
-26 -262 -50 -527 -163 -1771 -228 -2470 -231 -2480 -2 -7 -121 12 -347 57
-374 73 -425 89 -541 173 -118 84 -220 214 -311 393 -81 163 -119 303 -136
508 -6 76 -15 125 -26 144 -39 66 -130 82 -178 32 l-28 -29 7 -114 c13 -216
66 -447 141 -617 13 -29 24 -62 24 -73 0 -26 120 -198 190 -272 71 -76 151
-132 275 -194 252 -125 527 -204 858 -247 47 -6 48 -7 42 -38 -3 -18 -44 -358
-90 -757 -47 -399 -93 -768 -101 -820 -38 -224 -110 -460 -209 -685 -60 -134
-66 -175 -37 -235 13 -26 24 -36 46 -38 59 -7 141 44 187 117 49 76 152 418
214 704 45 211 73 412 150 1076 42 359 77 657 80 661 2 4 48 10 102 13 177 11
475 77 656 146 199 75 401 168 491 228 362 236 631 541 801 906 75 163 165
413 165 459 0 69 -18 116 -62 160 -36 36 -43 39 -76 33 -60 -11 -80 -39 -92
-130 -13 -90 -64 -267 -88 -305 -9 -14 -37 -73 -63 -133 -148 -338 -383 -610
-689 -800 -185 -114 -469 -225 -721 -281 -106 -24 -387 -62 -393 -54 -2 1 48
473 109 1048 l112 1045 17 485 c9 266 18 485 19 487 1 1 48 7 105 12 276 29
504 115 707 267 76 57 404 383 482 479 137 169 207 280 320 510 45 94 108 216
138 273 74 137 74 184 -2 257 -33 32 -43 36 -72 31 -19 -3 -40 -11 -47 -18
-18 -19 -321 -619 -328 -649 -9 -39 -156 -241 -268 -368 -144 -162 -419 -394
-538 -453 -34 -17 -496 -106 -504 -97 -2 2 -5 445 -7 984 l-2 980 22 79 c12
43 35 108 51 144 33 71 122 208 169 259 31 34 119 83 147 83 9 0 34 -16 55
-35 42 -38 79 -44 137 -24 46 16 63 48 50 95 -25 92 -71 149 -148 182 -90 39
-115 38 -213 -15z"/>
<path d="M6106 3780 c8 -44 23 -84 29 -78 3 2 -4 29 -15 59 -14 39 -18 44 -14
19z"/>
</g>
</svg>
