<?xml version="1.0" standalone="no"?>
<!DOCTYPE svg PUBLIC "-//W3C//DTD SVG 20010904//EN"
 "http://www.w3.org/TR/2001/REC-SVG-20010904/DTD/svg10.dtd">
<svg version="1.0" xmlns="http://www.w3.org/2000/svg"
 width="1024.000000pt" height="1024.000000pt" viewBox="0 0 1024.000000 1024.000000"
 preserveAspectRatio="xMidYMid meet">
<metadata>
Created by potrace 1.10, written by Peter Selinger 2001-2011
</metadata>
<g transform="translate(0.000000,1024.000000) scale(0.100000,-0.100000)"
fill="#000000" stroke="none">
<path d="M4980 9653 c-58 -26 -107 -48 -109 -50 -9 -6 58 -84 154 -178 96 -94
105 -107 163 -225 122 -252 125 -278 121 -1138 -2 -374 -8 -684 -12 -688 -4
-5 -398 -41 -875 -81 l-867 -74 -235 26 c-129 15 -249 29 -266 31 l-31 6 -23
-82 c-23 -80 -23 -83 -6 -115 29 -52 122 -114 340 -223 212 -107 303 -142 370
-142 23 0 389 52 814 116 425 64 775 114 779 110 4 -3 1 -419 -5 -924 -7 -504
-12 -973 -12 -1042 l0 -126 -532 -334 c-293 -183 -628 -394 -745 -467 -206
-130 -216 -135 -390 -194 -149 -51 -185 -60 -224 -56 -69 8 -162 42 -291 107
l-117 59 -52 -65 c-46 -58 -50 -68 -45 -99 18 -94 143 -286 344 -525 171 -205
307 -301 381 -270 30 12 102 81 148 142 65 85 428 385 1008 831 33 25 161 125
285 221 123 96 225 174 226 173 0 -1 -2 -519 -7 -1152 -11 -1600 -24 -1782
-132 -1884 l-26 -23 -462 53 -462 53 -23 -28 c-13 -15 -24 -30 -23 -34 0 -4
56 -51 123 -104 310 -246 625 -555 762 -748 125 -176 213 -250 296 -250 54 0
130 42 181 101 51 58 140 230 176 339 43 134 73 314 90 550 6 76 13 882 17
1847 l7 1712 664 586 c451 398 663 592 661 603 -2 10 -22 23 -44 31 l-41 14
-619 -425 c-340 -235 -620 -425 -621 -424 -4 4 23 1825 27 1829 3 3 214 28
470 56 540 60 697 83 773 111 61 23 107 55 107 74 0 7 -33 58 -73 112 l-74
100 -119 36 -119 35 -473 -59 c-261 -33 -476 -57 -479 -54 -12 11 17 1200 32
1306 8 58 23 210 35 338 24 270 25 266 -65 334 -58 44 -375 185 -538 240 -171
57 -190 57 -317 1z"/>
</g>
</svg>
