<?xml version="1.0" standalone="no"?>
<!DOCTYPE svg PUBLIC "-//W3C//DTD SVG 20010904//EN"
 "http://www.w3.org/TR/2001/REC-SVG-20010904/DTD/svg10.dtd">
<svg version="1.0" xmlns="http://www.w3.org/2000/svg"
 width="1024.000000pt" height="1024.000000pt" viewBox="0 0 1024.000000 1024.000000"
 preserveAspectRatio="xMidYMid meet">
<metadata>
Created by potrace 1.10, written by Peter Selinger 2001-2011
</metadata>
<g transform="translate(0.000000,1024.000000) scale(0.100000,-0.100000)"
fill="#000000" stroke="none">
<path d="M3699 9592 c-85 -55 -151 -144 -186 -251 -32 -101 -26 -411 13 -625
8 -45 39 -259 68 -476 69 -495 299 -1949 326 -2050 45 -172 63 -317 63 -515 0
-158 -3 -199 -18 -245 -30 -90 -40 -99 -113 -100 -63 0 -63 0 -160 73 -53 41
-102 80 -109 88 -7 8 -168 314 -359 679 -217 415 -362 704 -385 768 -132 361
-280 568 -478 670 -130 68 -174 77 -361 77 l-166 0 -46 -43 c-37 -35 -49 -55
-67 -115 -114 -386 -104 -746 31 -1142 47 -138 197 -483 294 -676 183 -367
337 -619 506 -830 135 -169 173 -208 207 -215 54 -11 244 -220 369 -405 44
-67 52 -85 62 -158 7 -45 10 -84 7 -88 -3 -3 -55 -8 -114 -10 -128 -7 -239 12
-346 58 -72 30 -181 99 -232 146 -278 257 -445 403 -486 425 -40 22 -65 28
-112 28 -56 0 -70 5 -199 76 -76 41 -160 81 -186 89 -34 10 -122 15 -314 17
l-267 3 -41 -40 c-92 -89 -137 -201 -127 -314 10 -116 36 -168 163 -334 252
-328 456 -493 857 -695 198 -100 396 -224 523 -327 122 -99 704 -657 789 -755
45 -52 109 -131 142 -175 116 -153 283 -425 283 -460 0 -7 18 -60 40 -119 22
-58 40 -116 40 -129 0 -25 53 -117 111 -193 21 -28 48 -77 59 -110 11 -32 47
-113 80 -179 32 -66 93 -212 136 -325 42 -113 78 -207 81 -210 2 -2 34 12 71
32 37 20 82 39 100 43 17 3 32 11 32 16 0 28 -69 217 -106 291 -24 48 -44 100
-44 114 0 15 -14 49 -31 76 -18 27 -36 69 -40 93 -13 69 -49 144 -98 204 -34
42 -62 99 -118 239 -147 367 -266 567 -513 862 -53 63 -141 171 -197 240 -199
246 -519 535 -793 715 -155 102 -240 150 -455 258 -341 171 -575 357 -766 610
-81 107 -101 154 -107 247 -3 61 -1 78 12 89 13 11 60 10 282 -8 238 -18 270
-23 289 -41 12 -11 32 -20 46 -20 38 0 138 -28 199 -56 74 -34 155 -98 203
-161 22 -29 46 -53 54 -53 7 0 71 -57 141 -128 147 -147 233 -214 346 -271
106 -52 190 -79 306 -96 115 -18 172 -19 297 -3 89 11 98 14 134 48 94 89 133
260 89 389 -21 63 -85 184 -144 271 -51 75 -283 311 -423 430 l-132 112 -157
241 c-176 271 -268 430 -361 624 -132 278 -257 632 -314 893 -20 87 -24 133
-23 270 0 162 8 220 47 350 l13 45 138 3 138 3 61 -44 c69 -50 137 -119 185
-189 37 -53 306 -609 315 -648 17 -78 44 -142 122 -290 48 -91 143 -277 212
-415 149 -298 205 -385 331 -516 82 -86 109 -107 212 -164 185 -103 294 -118
396 -54 107 66 187 312 186 579 0 148 8 98 -340 2180 l-146 875 0 180 c0 187
4 214 55 373 17 51 25 62 42 62 42 0 204 -28 223 -38 64 -34 289 -251 358
-345 15 -20 59 -103 98 -185 l70 -147 70 -365 c66 -344 72 -367 104 -415 25
-36 59 -125 120 -315 48 -146 92 -272 99 -280 7 -8 51 -186 99 -395 206 -915
317 -1401 321 -1416 9 -29 174 -109 237 -116 122 -13 214 54 286 207 43 91
132 344 132 374 0 8 13 24 29 35 23 17 43 59 111 243 46 123 101 250 121 283
21 33 66 137 100 230 34 94 72 184 84 200 12 17 108 201 214 410 110 217 207
395 226 415 18 19 164 220 325 445 161 226 318 436 349 468 79 83 231 187 271
187 17 0 12 -156 -9 -265 -60 -311 -195 -712 -280 -832 -43 -58 -169 -368
-301 -733 -54 -151 -70 -209 -70 -250 0 -39 -33 -170 -114 -455 -62 -220 -112
-402 -110 -404 2 -2 10 2 19 9 9 7 18 11 21 8 3 -3 -30 -205 -72 -449 -73
-425 -76 -449 -71 -559 7 -133 23 -202 77 -317 78 -166 136 -218 244 -215 33
1 68 4 77 7 11 4 21 -1 28 -12 5 -10 11 -16 14 -13 2 3 34 61 71 130 154 289
469 670 769 932 99 86 160 129 271 189 50 27 82 51 91 70 20 38 49 56 130 79
55 16 76 17 115 9 37 -8 61 -7 108 5 33 9 71 16 84 16 30 0 64 -30 98 -85 23
-36 25 -52 28 -169 3 -156 -17 -243 -77 -339 -78 -125 -151 -257 -263 -472
-199 -381 -370 -645 -627 -970 -22 -27 -101 -165 -176 -305 -203 -377 -243
-442 -387 -622 -235 -294 -638 -619 -798 -644 -35 -6 -66 -26 -159 -103 -64
-53 -158 -119 -211 -147 -171 -94 -210 -132 -210 -204 0 -60 10 -80 48 -96 35
-14 39 -13 149 31 62 25 115 45 118 45 3 0 5 -7 5 -16 0 -40 56 -260 105 -413
29 -91 74 -241 100 -332 l47 -166 67 -7 c101 -9 161 -7 161 5 0 6 -25 88 -55
183 -63 194 -137 483 -186 724 l-32 163 54 55 c30 30 79 69 109 86 89 49 196
134 273 216 163 173 245 248 311 286 74 44 39 2 465 541 l222 280 286 565
c320 632 424 810 718 1225 143 202 178 287 177 430 0 88 -40 231 -87 312 -35
59 -106 127 -162 155 -74 36 -205 38 -320 5 -122 -35 -300 -112 -413 -179 -91
-54 -345 -254 -460 -361 -172 -161 -387 -411 -548 -638 -45 -64 -91 -124 -102
-134 -11 -10 -20 -26 -20 -37 0 -29 -28 -21 -46 13 -30 60 -44 125 -44 215 0
184 53 602 106 829 56 245 55 234 38 302 l-15 62 46 173 c124 462 238 791 424
1222 130 302 347 835 369 907 23 75 42 196 42 268 0 26 -7 90 -16 142 -28 169
-94 267 -205 302 -72 24 -85 22 -168 -24 -58 -33 -108 -76 -235 -203 -226
-226 -393 -430 -563 -686 -233 -352 -741 -1291 -773 -1430 -11 -46 -79 -192
-157 -335 -42 -77 -54 -106 -59 -151 -3 -27 -12 -66 -20 -87 -8 -20 -14 -57
-14 -81 0 -36 -21 -87 -112 -274 l-112 -229 -43 -11 c-37 -10 -47 -9 -77 9
-39 23 -29 -11 -106 364 -157 766 -247 1211 -296 1450 -86 423 -182 770 -295
1058 -21 54 -41 119 -45 145 -18 119 -244 527 -370 669 -151 168 -363 281
-588 312 -112 16 -127 14 -177 -17z"/>
<path d="M5733 4975 c-377 -74 -763 -188 -1115 -330 -287 -116 -679 -304 -815
-391 -77 -49 -91 -89 -54 -151 38 -61 32 -63 571 173 272 119 560 240 640 269
353 129 850 245 1053 245 107 0 492 46 517 62 23 15 41 59 33 86 -2 11 -17 29
-33 40 -24 18 -55 23 -241 37 -116 8 -228 15 -248 14 -20 -1 -158 -25 -308
-54z"/>
<path d="M3935 4766 c-84 -26 -153 -76 -207 -150 -33 -46 -36 -76 -8 -101 20
-18 29 -18 142 -7 115 12 124 14 166 47 57 44 92 92 92 125 0 61 -106 110
-185 86z"/>
<path d="M6054 3964 c-144 -101 -207 -152 -322 -267 -135 -133 -295 -322 -425
-499 -149 -203 -334 -508 -428 -707 -33 -68 -85 -165 -117 -215 -72 -115 -76
-157 -22 -210 35 -34 35 -34 91 -25 l56 10 249 437 c275 483 296 517 429 682
190 237 374 420 632 626 137 110 183 161 183 201 0 23 -34 58 -70 71 -73 27
-67 29 -256 -104z"/>
</g>
</svg>
