<?xml version="1.0" standalone="no"?>
<!DOCTYPE svg PUBLIC "-//W3C//DTD SVG 20010904//EN"
 "http://www.w3.org/TR/2001/REC-SVG-20010904/DTD/svg10.dtd">
<svg version="1.0" xmlns="http://www.w3.org/2000/svg"
 width="1024.000000pt" height="1024.000000pt" viewBox="0 0 1024.000000 1024.000000"
 preserveAspectRatio="xMidYMid meet">
<metadata>
Created by potrace 1.10, written by Peter Selinger 2001-2011
</metadata>
<g transform="translate(0.000000,1024.000000) scale(0.100000,-0.100000)"
fill="#000000" stroke="none">
<path d="M5732 9787 c-13 -13 -27 -39 -32 -58 -14 -47 -13 -218 2 -295 21
-117 -26 -412 -77 -480 -13 -17 -40 -73 -60 -125 -44 -115 -122 -262 -204
-389 -185 -284 -300 -619 -332 -969 -15 -172 -7 -609 14 -679 23 -80 70 -171
116 -229 46 -58 153 -142 218 -173 l43 -20 -6 -57 c-3 -32 -13 -139 -23 -238
l-16 -180 -195 -6 c-184 -6 -220 -11 -630 -82 -434 -76 -435 -77 -635 -147
l-200 -71 -205 9 -205 10 -131 -39 c-369 -109 -627 -276 -880 -570 -48 -56
-171 -231 -290 -410 -113 -173 -216 -323 -229 -334 -12 -11 -58 -67 -100 -125
-43 -58 -101 -134 -129 -170 -28 -36 -60 -82 -71 -103 -22 -45 -16 -52 54 -63
54 -8 85 6 189 90 115 92 187 185 394 509 105 165 210 325 233 356 198 269
464 461 794 575 90 32 297 74 308 63 2 -2 -4 -20 -12 -40 -31 -75 -7 -208 50
-275 21 -25 23 -33 14 -70 -14 -63 6 -122 98 -297 18 -33 34 -72 37 -87 14
-65 235 -320 376 -432 155 -124 335 -219 531 -281 63 -20 157 -52 209 -71 57
-20 151 -42 231 -55 l135 -21 -4 -30 c-3 -16 -13 -35 -23 -41 -13 -8 -19 -24
-19 -52 -1 -118 -54 -259 -149 -390 -68 -94 -156 -243 -197 -335 -15 -36 -41
-85 -56 -109 -47 -76 -73 -172 -99 -366 -20 -151 8 -343 66 -461 63 -129 232
-267 385 -315 63 -20 61 -11 36 -153 -9 -49 -19 -141 -23 -205 -3 -71 -11
-124 -19 -136 -8 -11 -14 -40 -14 -65 0 -26 -6 -53 -12 -61 -14 -17 -275 -58
-543 -84 -281 -28 -525 -77 -840 -166 -204 -58 -259 -83 -315 -141 -65 -66
-89 -177 -48 -215 104 -92 142 -101 558 -129 195 -13 438 -29 540 -36 253 -17
1359 -17 1625 0 386 25 654 51 1119 111 513 66 548 75 599 142 37 50 52 108
38 151 -10 31 -22 40 -99 76 -175 81 -302 106 -582 117 -298 11 -642 49 -915
101 -196 37 -424 94 -439 110 -20 20 -38 160 -42 334 -2 85 -9 182 -16 214
l-14 60 96 47 c292 144 478 356 566 644 25 83 28 103 28 255 l-1 165 -122 350
c-121 346 -122 351 -117 420 2 39 13 105 23 149 l18 79 125 48 c134 51 855
436 960 513 232 169 412 441 460 698 14 71 -8 145 -54 185 -25 23 -35 41 -40
75 -14 95 -82 167 -242 257 -180 102 -408 191 -619 241 -218 52 -300 60 -728
67 l-398 6 5 26 c3 14 12 87 21 161 23 205 24 210 45 210 22 0 52 39 82 107
16 34 22 69 23 123 0 41 4 80 8 86 3 6 43 117 88 245 45 129 88 241 95 249 7
9 16 36 20 60 4 26 61 156 136 310 105 215 135 286 158 375 40 156 54 285 47
434 -11 253 -74 459 -249 817 l-111 229 -2 85 c-1 86 -22 148 -58 179 -10 7
-20 47 -28 102 -11 84 -14 90 -44 109 -41 25 -47 25 -73 -3z m211 -957 c36
-80 72 -158 80 -175 19 -39 35 -101 48 -195 6 -41 17 -94 25 -118 16 -50 18
-143 4 -192 -6 -19 -26 -115 -45 -212 -23 -120 -41 -187 -54 -205 -11 -15 -37
-75 -57 -133 -20 -58 -42 -112 -49 -120 -15 -19 -27 -52 -61 -165 -16 -56 -39
-106 -60 -133 -32 -42 -33 -42 -44 -22 -19 35 -2 181 35 300 8 25 15 69 16 99
2 46 -1 57 -20 72 -14 12 -39 19 -63 19 -28 0 -49 7 -70 25 -45 38 -67 32
-130 -32 l-56 -58 -31 -200 c-17 -110 -40 -223 -51 -250 -16 -40 -20 -75 -20
-165 -1 -85 -4 -120 -15 -134 -9 -11 -15 -41 -15 -69 0 -59 -14 -54 -29 10 -6
27 -30 85 -53 131 -39 77 -42 89 -42 165 -1 94 40 524 54 578 6 19 23 55 39
80 15 24 154 317 307 651 153 335 281 605 285 600 4 -4 37 -72 72 -152z m-371
-1360 c12 -11 34 -20 49 -20 27 0 28 -1 17 -32 -6 -18 -16 -39 -22 -47 -16
-21 -18 -460 -2 -492 13 -26 9 -46 -26 -134 -11 -27 -25 -81 -30 -120 -5 -38
-12 -83 -16 -98 l-7 -28 -90 84 -89 83 22 38 c12 20 22 46 22 56 0 10 4 21 9
24 4 3 10 55 13 115 5 91 10 118 33 167 25 54 28 72 33 204 2 80 8 150 12 155
4 6 10 22 14 38 8 32 29 35 58 7z m-220 -1966 c-4 -183 -3 -198 16 -232 11
-21 23 -52 27 -70 8 -37 30 -52 79 -52 58 0 66 22 66 186 0 77 3 189 7 249 l6
107 351 -6 c517 -10 673 -29 956 -113 168 -50 416 -160 434 -192 5 -9 22 -27
36 -41 53 -49 54 -63 10 -112 -57 -65 -133 -101 -305 -142 -715 -173 -1437
-243 -2135 -207 -215 11 -268 18 -630 81 l-395 69 -110 65 c-136 81 -165 111
-165 169 0 37 5 45 38 70 20 15 41 28 45 28 25 3 241 -144 313 -214 73 -69 86
-78 114 -75 41 4 69 40 77 95 12 92 -43 166 -226 300 -9 7 10 14 120 47 225
68 494 128 741 166 87 13 183 18 329 19 l205 1 -4 -196z m2095 -466 c-8 -18
-26 -61 -41 -96 -14 -34 -29 -83 -33 -108 -6 -43 -13 -52 -178 -205 -157 -145
-191 -171 -384 -294 -201 -127 -222 -138 -420 -214 l-209 -80 -648 -31 -647
-31 -185 51 c-198 55 -333 109 -449 181 -111 68 -237 173 -310 258 -116 135
-279 391 -249 391 2 0 183 -32 402 -71 l399 -71 790 7 c803 6 897 11 1155 51
229 36 474 91 707 158 84 24 150 51 210 86 48 27 91 50 96 50 4 0 1 -15 -6
-32z m-1600 -1343 c-5 -27 -7 -104 -4 -170 6 -141 33 -242 103 -374 24 -46 44
-89 44 -96 0 -7 14 -42 30 -79 54 -118 73 -223 67 -366 -9 -208 -46 -303 -168
-434 -152 -162 -330 -275 -499 -317 -106 -27 -246 -23 -365 10 l-80 22 -86
117 c-48 64 -90 133 -95 152 -13 59 -8 241 10 329 43 211 120 384 256 576 107
149 156 276 167 427 5 71 9 89 23 93 28 9 45 61 31 91 -6 14 -11 35 -11 48 l0
24 293 -2 293 -1 -9 -50z m-438 -2187 c7 -62 16 -196 21 -298 8 -193 19 -245
61 -298 31 -40 93 -79 147 -91 26 -6 380 -51 787 -101 407 -50 751 -93 765
-97 35 -8 -58 -25 -340 -63 -629 -83 -1038 -110 -1685 -110 -247 0 -533 5
-635 10 -252 14 -657 48 -815 69 l-130 17 75 31 c211 88 684 171 1176 206 162
12 186 16 237 40 65 33 113 96 121 161 3 22 14 131 26 241 37 349 42 384 59
388 9 3 39 5 67 6 l51 1 12 -112z"/>
</g>
</svg>
