<?xml version="1.0" standalone="no"?>
<!DOCTYPE svg PUBLIC "-//W3C//DTD SVG 20010904//EN"
 "http://www.w3.org/TR/2001/REC-SVG-20010904/DTD/svg10.dtd">
<svg version="1.0" xmlns="http://www.w3.org/2000/svg"
 width="1024.000000pt" height="1024.000000pt" viewBox="0 0 1024.000000 1024.000000"
 preserveAspectRatio="xMidYMid meet">
<metadata>
Created by potrace 1.10, written by Peter Selinger 2001-2011
</metadata>
<g transform="translate(0.000000,1024.000000) scale(0.100000,-0.100000)"
fill="#000000" stroke="none">
<path d="M5508 8633 c-47 -54 -205 -317 -280 -468 -105 -211 -150 -334 -879
-2410 -105 -297 -195 -549 -200 -560 -6 -11 -17 -33 -25 -48 -19 -35 -6 -82
36 -127 28 -30 30 -30 98 -24 39 4 436 -8 882 -27 l812 -33 257 18 c332 23
322 21 348 60 l21 33 -35 169 c-27 130 -45 190 -77 260 -24 50 -126 347 -229
670 l-187 579 -160 785 c-181 888 -206 982 -282 1077 -52 65 -74 75 -100 46z"/>
<path d="M2885 6445 c-17 -7 -41 -25 -55 -40 l-25 -27 1 -306 c1 -328 13 -486
60 -792 33 -216 47 -278 139 -635 60 -234 84 -312 110 -355 18 -30 54 -91 80
-136 26 -44 77 -121 113 -171 303 -412 646 -655 1042 -740 74 -16 132 -18 438
-17 l353 1 -6 -336 c-3 -185 -8 -360 -11 -390 l-6 -54 -286 7 c-425 10 -582 9
-635 -5 -62 -15 -133 -77 -148 -129 -14 -46 -7 -59 45 -84 30 -14 97 -16 530
-16 l496 0 -1 -82 c-1 -156 -54 -1316 -60 -1322 -3 -4 -496 5 -1094 19 -598
14 -1118 25 -1155 25 l-68 0 -7 -106 c-4 -58 -5 -107 -3 -109 4 -4 4473 -55
4796 -55 l142 0 0 33 c1 17 7 61 15 97 8 36 14 73 15 84 0 18 -31 18 -1195 11
l-1195 -7 6 308 c2 170 9 418 14 550 6 133 10 311 10 396 l0 154 248 13 c984
51 946 47 980 118 16 33 16 33 -19 69 -19 20 -43 40 -54 46 -18 10 -393 40
-405 33 -10 -6 -731 -47 -737 -41 -3 3 -2 187 2 409 l7 404 142 33 c549 127
1080 387 1566 767 373 291 494 430 646 738 45 94 101 224 124 290 22 66 49
131 59 145 10 14 21 48 25 75 5 28 12 55 17 61 5 6 20 43 34 83 19 56 28 124
46 322 15 170 19 263 13 287 -13 51 -52 76 -119 76 -46 1 -59 -3 -81 -25 -25
-25 -28 -39 -50 -225 -29 -248 -37 -298 -75 -454 -117 -478 -304 -818 -579
-1050 -202 -171 -706 -480 -1055 -646 -357 -170 -707 -263 -1099 -294 -543
-42 -871 55 -1216 363 -138 123 -293 308 -368 439 -42 73 -190 512 -236 700
-96 386 -134 791 -117 1228 4 92 1 111 -18 155 -24 53 -42 77 -81 105 -22 16
-29 16 -55 5z"/>
<path d="M6468 3216 c8 -31 19 -56 23 -56 8 0 -19 89 -31 103 -4 5 -1 -16 8
-47z"/>
</g>
</svg>
