<?xml version="1.0" standalone="no"?>
<!DOCTYPE svg PUBLIC "-//W3C//DTD SVG 20010904//EN"
 "http://www.w3.org/TR/2001/REC-SVG-20010904/DTD/svg10.dtd">
<svg version="1.0" xmlns="http://www.w3.org/2000/svg"
 width="240.000000pt" height="240.000000pt" viewBox="0 0 240.000000 240.000000"
 preserveAspectRatio="xMidYMid meet">
<metadata>
Created by potrace 1.11, written by Peter Selinger 2001-2013
</metadata>
<g transform="translate(0.000000,240.000000) scale(0.100000,-0.100000)"
fill="#000000" stroke="none">
<path d="M559 2288 c-47 -50 -63 -76 -78 -126 -20 -64 -19 -92 3 -92 327 -12
345 -12 376 10 27 19 29 25 29 86 -1 60 -3 66 -32 88 -49 37 -178 96 -211 96
-22 0 -41 -14 -87 -62z m203 -57 c64 -40 67 -44 61 -74 -3 -18 -6 -32 -7 -32
-1 0 -62 2 -136 5 l-135 5 -3 29 c-3 24 6 37 54 82 53 49 59 53 78 41 12 -8
51 -33 88 -56z"/>
<path d="M512 2002 c-10 -7 -13 -55 -12 -218 1 -115 3 -227 5 -249 1 -22 6
-186 9 -365 11 -557 26 -1029 35 -1092 1 -5 14 -8 31 -8 l29 0 -4 93 c-2 50
-6 209 -10 352 -3 143 -7 321 -10 395 -19 570 -25 1029 -14 1035 5 4 39 8 76
11 38 2 87 7 111 9 l42 5 1 -123 c1 -67 2 -145 3 -172 l3 -50 -60 -1 c-53 -1
-64 -5 -84 -29 -22 -24 -23 -34 -17 -84 3 -31 9 -59 13 -64 4 -4 39 -7 79 -8
40 -1 74 -4 76 -8 2 -3 7 -93 11 -198 l7 -193 -39 -1 c-51 -1 -86 -8 -97 -19
-14 -14 -9 -142 6 -151 6 -4 38 -10 69 -14 52 -6 58 -9 63 -33 7 -34 14 -172
21 -432 7 -229 12 -328 19 -339 3 -4 15 -7 28 -6 22 2 23 5 23 88 l0 86 130
-1 c71 0 164 3 205 6 41 3 120 8 175 11 55 3 136 7 180 10 44 2 121 7 170 10
195 11 290 17 294 21 2 2 4 21 4 41 1 56 -15 659 -18 723 -6 106 -19 716 -17
790 3 127 66 115 -608 112 l-579 -3 -9 33 -8 33 -160 2 c-87 2 -165 -1 -172
-5z m1474 -134 c3 -144 16 -643 19 -708 2 -47 6 -204 10 -350 3 -146 8 -313
11 -373 l5 -107 -43 -1 c-24 0 -50 -2 -58 -4 -9 -1 -85 -6 -170 -10 -85 -4
-162 -8 -170 -10 -8 -1 -82 -6 -165 -10 -82 -4 -159 -9 -170 -11 -34 -7 -312
-7 -324 0 -6 4 -11 31 -11 59 l0 52 248 3 c349 3 702 12 735 18 l29 6 -6 196
c-4 109 -8 258 -11 332 -3 74 -7 266 -10 425 -8 388 -13 440 -43 449 -42 13
-691 6 -949 -9 l-53 -4 0 40 0 39 563 0 563 0 0 -22z m-156 -151 c0 -24 6 -57
14 -73 8 -16 12 -41 9 -56 -4 -22 -11 -28 -32 -28 -15 0 -36 -6 -46 -14 -16
-12 -17 -16 -6 -30 8 -9 28 -16 47 -16 l34 0 0 -90 c0 -84 -1 -90 -21 -90 -28
0 -59 -18 -59 -34 0 -16 22 -26 56 -26 20 0 24 -5 24 -27 0 -16 3 -64 6 -108
l7 -80 -29 -3 c-43 -3 -53 -20 -27 -42 13 -10 31 -16 40 -14 16 5 18 -7 21
-126 1 -82 -2 -130 -8 -130 -14 0 -12 -37 3 -47 8 -5 12 -40 13 -108 l0 -100
-30 -6 c-17 -3 -128 -7 -246 -8 -118 -1 -319 -4 -446 -7 l-231 -6 -5 26 c-3
15 -6 64 -7 111 -2 79 -1 85 18 85 22 0 46 34 36 50 -3 6 -19 10 -36 10 -26 0
-29 3 -29 33 0 69 6 75 78 82 37 3 77 8 90 11 38 8 25 37 -34 76 -55 36 -56
42 -10 50 21 3 44 33 34 43 -4 4 -39 9 -79 11 -40 2 -76 7 -80 11 -4 5 -9 52
-11 105 l-3 97 30 3 c22 2 31 9 33 25 3 18 -2 22 -30 25 l-33 3 -3 67 -4 67
34 0 c58 -1 141 18 153 34 6 9 24 21 38 26 29 11 32 18 18 39 -6 10 -20 11
-59 4 -31 -5 -56 -5 -67 1 -15 8 -14 12 11 38 38 40 23 52 -65 50 -67 -1 -71
0 -72 21 0 13 -2 42 -5 66 l-5 42 486 0 485 0 0 -43z m-900 -140 c-35 -18 -37
-43 -4 -51 16 -4 23 -11 18 -16 -11 -11 -41 -13 -151 -11 l-83 1 0 35 0 35 58
1 c31 0 77 4 102 8 25 5 54 9 65 10 17 1 16 -1 -5 -12z m0 -592 c-18 -22 -6
-41 42 -67 l43 -23 -121 -3 c-156 -3 -168 1 -169 62 l-1 46 109 0 c96 0 108
-2 97 -15z"/>
<path d="M1365 1570 c-16 -11 -38 -20 -47 -20 -11 0 -18 -8 -18 -19 0 -28 93
-74 131 -66 29 7 69 47 69 71 0 20 -50 54 -79 54 -14 0 -39 -9 -56 -20z m65
-52 c0 -5 -9 -8 -20 -8 -22 0 -28 26 -7 33 12 4 27 -10 27 -25z"/>
<path d="M1554 1545 c-10 -25 4 -45 31 -45 30 0 43 24 25 45 -16 19 -49 19
-56 0z"/>
<path d="M1663 1553 c-18 -7 -16 -40 3 -47 25 -10 42 -7 59 10 28 29 -17 56
-62 37z"/>
<path d="M1180 1540 c-12 -7 -12 -13 -4 -27 14 -24 47 -28 63 -9 28 34 -19 62
-59 36z"/>
<path d="M1360 1297 c-20 -10 -25 -20 -23 -47 2 -42 24 -60 73 -60 65 0 92 56
47 98 -26 25 -60 28 -97 9z m70 -57 c-20 -13 -47 -13 -55 0 -4 6 9 10 32 10
28 0 34 -3 23 -10z"/>
<path d="M1531 1301 c-10 -7 -11 -13 -2 -30 13 -24 23 -26 52 -11 15 9 17 15
9 30 -11 21 -36 26 -59 11z"/>
<path d="M1677 1303 c-12 -12 -7 -43 7 -49 22 -8 56 14 56 36 0 15 -7 20 -28
20 -16 0 -32 -3 -35 -7z"/>
<path d="M993 1293 c-18 -7 -16 -42 1 -49 19 -7 56 13 56 30 0 20 -30 30 -57
19z"/>
<path d="M1094 1285 c-7 -17 12 -45 30 -45 7 0 21 6 31 14 16 12 17 16 6 30
-17 20 -60 21 -67 1z"/>
<path d="M1215 1290 c-11 -17 15 -50 40 -50 24 0 42 30 30 50 -8 13 -62 13
-70 0z"/>
<path d="M1360 1049 c-14 -4 -42 -7 -62 -8 -28 -1 -38 -6 -43 -22 -8 -23 7
-39 37 -39 9 0 28 -11 41 -24 20 -20 33 -24 66 -22 42 3 71 20 71 41 0 7 7 15
15 19 31 11 16 52 -18 47 -4 -1 -24 3 -45 7 -20 5 -48 5 -62 1z m64 -50 c5 -4
-2 -13 -17 -20 -33 -15 -65 4 -46 28 12 13 45 10 63 -8z"/>
<path d="M1123 1033 c-22 -8 -14 -33 13 -45 22 -11 28 -10 40 7 23 31 -11 55
-53 38z"/>
<path d="M1560 1031 c0 -24 14 -41 34 -41 31 0 50 16 43 34 -7 17 -77 23 -77
7z"/>
<path d="M1685 1030 c-10 -17 16 -41 39 -38 13 2 22 12 24 26 3 19 -1 22 -27
22 -16 0 -33 -5 -36 -10z"/>
<path d="M1340 745 c-14 -7 -38 -16 -53 -20 -22 -4 -28 -11 -25 -28 2 -14 11
-23 27 -25 13 -2 31 -10 38 -18 21 -20 76 -17 106 6 14 11 30 20 35 20 19 0
22 31 4 37 -9 4 -28 15 -41 25 -28 21 -57 23 -91 3z m70 -45 c0 -11 -48 -25
-56 -17 -4 3 -3 10 1 16 8 14 55 14 55 1z"/>
<path d="M1585 724 c-24 -24 -1 -46 44 -42 26 2 37 8 39 22 7 35 -53 50 -83
20z"/>
<path d="M1013 724 c-20 -8 -15 -42 6 -49 29 -9 52 5 49 29 -3 21 -30 30 -55
20z"/>
<path d="M1131 721 c-10 -7 -11 -13 -2 -30 19 -35 76 -22 69 15 -4 21 -44 30
-67 15z"/>
<path d="M1752 708 c2 -18 9 -23 33 -23 23 0 30 4 30 20 0 15 -8 21 -33 23
-30 3 -33 1 -30 -20z"/>
</g>
</svg>
