<?xml version="1.0" standalone="no"?>
<!DOCTYPE svg PUBLIC "-//W3C//DTD SVG 20010904//EN"
 "http://www.w3.org/TR/2001/REC-SVG-20010904/DTD/svg10.dtd">
<svg version="1.0" xmlns="http://www.w3.org/2000/svg"
 width="240.000000pt" height="240.000000pt" viewBox="0 0 240.000000 240.000000"
 preserveAspectRatio="xMidYMid meet">
<metadata>
Created by potrace 1.11, written by Peter Selinger 2001-2013
</metadata>
<g transform="translate(0.000000,240.000000) scale(0.100000,-0.100000)"
fill="#000000" stroke="none">
<path d="M1820 2196 c-66 -25 -405 -199 -475 -244 -143 -92 -216 -172 -286
-313 -18 -35 -105 -266 -194 -514 -133 -368 -179 -483 -253 -631 -83 -166
-189 -345 -212 -359 -21 -13 -42 -67 -31 -78 28 -28 148 137 264 363 67 129
186 406 285 659 4 11 27 13 122 8 173 -9 287 15 467 99 106 49 203 120 243
179 62 91 126 243 156 373 8 36 22 79 30 95 17 32 11 81 -8 75 -16 -6 -56 -85
-64 -128 -4 -19 -12 -38 -18 -42 -5 -4 -118 -7 -251 -8 -132 0 -282 -3 -334
-7 l-95 -6 23 31 c34 48 129 129 201 172 36 22 162 88 280 147 135 68 215 114
215 123 0 20 -22 22 -65 6z m20 -518 c0 -5 -58 -144 -68 -164 -5 -10 -21 -41
-33 -69 -51 -106 -164 -188 -352 -254 -101 -35 -258 -70 -302 -66 -16 2 -56 3
-88 4 -56 1 -58 2 -52 24 38 130 130 397 155 450 l31 66 112 3 c203 5 597 9
597 6z"/>
</g>
</svg>
