<?xml version="1.0" standalone="no"?>
<!DOCTYPE svg PUBLIC "-//W3C//DTD SVG 20010904//EN"
 "http://www.w3.org/TR/2001/REC-SVG-20010904/DTD/svg10.dtd">
<svg version="1.0" xmlns="http://www.w3.org/2000/svg"
 width="240.000000pt" height="240.000000pt" viewBox="0 0 240.000000 240.000000"
 preserveAspectRatio="xMidYMid meet">
<metadata>
Created by potrace 1.11, written by Peter Selinger 2001-2013
</metadata>
<g transform="translate(0.000000,240.000000) scale(0.100000,-0.100000)"
fill="#000000" stroke="none">
<path d="M1522 2099 c-27 -10 -221 -49 -407 -80 -91 -16 -175 -23 -277 -23
l-148 -1 0 -27 c0 -24 10 -32 83 -68 l84 -42 124 30 c68 17 232 49 364 71 318
54 349 62 353 84 2 11 -6 30 -19 43 -19 20 -32 24 -78 23 -31 0 -66 -4 -79
-10z"/>
<path d="M1418 1635 c-14 -14 -164 -47 -344 -76 -170 -27 -206 -30 -247 -20
-97 22 -127 9 -84 -37 62 -67 62 -67 59 -412 -2 -262 -6 -336 -23 -439 -31
-189 -54 -266 -113 -386 -30 -60 -53 -112 -50 -114 3 -3 33 25 67 61 125 132
214 361 243 623 7 65 12 97 16 99 2 2 138 19 303 40 165 21 306 42 313 48 19
16 15 28 -23 62 l-35 32 35 135 c53 203 54 207 80 235 46 49 25 89 -72 138
-30 15 -113 22 -125 11z m6 -190 c0 -38 -9 -130 -19 -203 -15 -106 -23 -135
-37 -143 -15 -8 -125 -26 -391 -64 l-37 -5 4 62 c3 35 5 129 6 211 1 81 3 147
3 148 19 7 421 67 442 66 l30 -2 -1 -70z"/>
</g>
</svg>
