<?xml version="1.0" standalone="no"?>
<!DOCTYPE svg PUBLIC "-//W3C//DTD SVG 20010904//EN"
 "http://www.w3.org/TR/2001/REC-SVG-20010904/DTD/svg10.dtd">
<svg version="1.0" xmlns="http://www.w3.org/2000/svg"
 width="1024.000000pt" height="1024.000000pt" viewBox="0 0 1024.000000 1024.000000"
 preserveAspectRatio="xMidYMid meet">
<metadata>
Created by potrace 1.10, written by Peter Selinger 2001-2011
</metadata>
<g transform="translate(0.000000,1024.000000) scale(0.100000,-0.100000)"
fill="#000000" stroke="none">
<path d="M6015 8665 c-55 -12 -137 -34 -183 -48 -163 -52 -463 -120 -697 -156
-38 -6 -515 -65 -1059 -131 l-988 -120 -177 31 c-228 39 -213 39 -229 5 -33
-66 21 -138 203 -270 144 -104 221 -146 271 -146 82 0 330 42 679 114 309 64
486 93 1247 202 869 125 889 127 923 111 20 -9 40 -28 45 -43 6 -14 10 -160
10 -342 0 -503 21 -728 90 -990 81 -302 228 -557 459 -796 116 -119 204 -192
348 -289 105 -71 316 -185 418 -225 28 -11 97 -39 155 -62 249 -100 519 -180
740 -220 149 -27 353 -37 403 -21 45 15 77 54 77 93 0 29 -31 147 -76 291 -43
139 -93 449 -124 777 -13 144 -26 203 -52 235 -24 31 -56 32 -67 3 -4 -13 -16
-162 -25 -333 -9 -170 -20 -326 -25 -345 -5 -19 -19 -79 -31 -132 l-22 -98
-49 0 c-206 0 -652 136 -972 296 -283 142 -538 332 -662 494 -117 152 -189
342 -221 580 -17 133 -20 851 -3 932 13 59 38 113 66 143 16 17 61 84 96 142
4 7 -26 51 -74 107 l-80 97 -140 69 c-76 39 -147 70 -156 69 -10 -1 -63 -11
-118 -24z"/>
<path d="M7307 8647 c-16 -11 -14 -18 22 -93 l40 -81 -35 -99 c-56 -157 -208
-351 -482 -615 -84 -81 -152 -151 -152 -156 0 -6 9 -18 20 -28 18 -16 22 -16
92 5 108 32 336 146 473 237 212 140 469 358 550 466 l28 38 -19 40 c-38 85
-187 193 -374 271 -70 29 -136 36 -163 15z"/>
<path d="M4367 7794 c-71 -44 -73 -63 -11 -118 100 -89 130 -124 166 -192 69
-130 66 -94 74 -1181 4 -588 4 -983 -2 -983 -5 0 -252 -56 -549 -125 -297 -68
-541 -123 -542 -121 -1 1 4 94 12 207 8 112 21 330 30 484 8 154 17 293 20
309 10 60 -65 131 -237 226 -43 23 -78 46 -78 50 0 9 287 262 502 443 71 61
131 120 153 154 l37 55 -18 47 c-32 84 -262 294 -406 371 -47 25 -67 30 -109
28 -76 -4 -81 -19 -37 -109 20 -41 47 -110 61 -155 l24 -81 -80 -133 c-70
-114 -104 -157 -243 -304 -154 -163 -396 -397 -534 -517 -161 -139 -411 -311
-580 -399 -52 -27 -111 -64 -130 -81 l-35 -31 67 6 c146 11 492 153 738 301
59 35 165 106 236 156 71 51 139 98 151 106 22 15 24 13 52 -46 53 -112 55
-169 32 -695 -11 -257 -21 -469 -23 -471 -7 -5 -1035 -175 -1063 -175 -16 0
-130 16 -253 36 l-223 37 -27 -20 c-59 -44 -30 -128 75 -222 127 -114 422
-291 484 -291 65 0 369 86 662 187 169 58 310 103 313 100 9 -8 -73 -553 -112
-746 -103 -509 -236 -912 -430 -1301 -150 -300 -316 -535 -523 -739 -108 -107
-151 -155 -151 -173 0 -16 87 -7 140 15 159 66 468 332 612 527 450 611 684
1257 822 2270 14 102 28 204 32 228 4 34 11 45 31 53 42 16 1086 270 1090 265
3 -2 0 -685 -5 -1518 -9 -1443 -8 -1527 10 -1808 l20 -295 51 -97 c55 -106 69
-115 117 -81 56 39 92 112 119 248 49 240 50 276 67 2015 9 905 17 1646 18
1647 9 9 800 173 834 173 55 0 86 -21 106 -71 14 -34 16 -105 16 -522 0 -643
16 -883 76 -1187 56 -282 132 -499 267 -765 220 -432 520 -760 928 -1014 124
-77 397 -216 569 -290 405 -173 876 -265 1008 -197 85 44 87 80 19 346 -77
302 -90 377 -137 843 -24 235 -32 285 -52 325 -18 36 -29 48 -50 50 -34 4 -45
-15 -53 -98 -15 -145 -86 -660 -101 -730 -9 -41 -25 -93 -36 -114 l-20 -39
-101 6 c-165 9 -335 65 -617 203 -258 127 -483 287 -691 494 -323 321 -466
598 -538 1035 -35 216 -43 410 -39 960 4 569 6 587 66 683 79 127 112 190 112
213 0 69 -139 210 -301 305 -106 63 -176 94 -207 94 -29 0 -283 -106 -384
-159 -51 -28 -156 -77 -234 -110 -139 -58 -434 -165 -440 -158 -7 7 16 1561
26 1732 6 112 18 212 30 263 11 46 20 94 20 107 0 52 -92 124 -220 173 -44 17
-399 122 -412 122 -2 0 -29 -16 -61 -36z"/>
<path d="M6723 7323 c-4 -11 1 -22 18 -32 13 -9 67 -48 120 -87 229 -170 434
-370 603 -589 106 -136 189 -219 241 -240 46 -20 125 -19 154 1 60 43 80 183
40 288 -71 191 -273 378 -564 521 -103 51 -126 58 -354 105 -134 27 -246 50
-248 50 -2 0 -7 -8 -10 -17z"/>
<path d="M7364 5127 l-32 -22 34 -65 c40 -78 42 -115 9 -180 -73 -143 -375
-475 -587 -644 -53 -42 -103 -87 -112 -100 -14 -22 -13 -25 8 -45 22 -20 27
-21 72 -10 121 30 361 142 524 245 218 137 466 331 552 432 32 37 58 70 58 73
0 4 -37 48 -82 99 l-83 94 -153 73 c-85 40 -159 73 -165 73 -7 -1 -26 -11 -43
-23z"/>
<path d="M6770 3702 c0 -11 38 -48 93 -93 212 -171 462 -437 633 -674 130
-182 206 -245 291 -245 50 0 82 18 111 60 21 31 23 44 20 115 -5 101 -32 169
-109 284 -102 154 -279 303 -489 415 -71 37 -122 54 -314 100 -126 31 -230 56
-232 56 -2 0 -4 -8 -4 -18z"/>
</g>
</svg>
