<?xml version="1.0" standalone="no"?>
<!DOCTYPE svg PUBLIC "-//W3C//DTD SVG 20010904//EN"
 "http://www.w3.org/TR/2001/REC-SVG-20010904/DTD/svg10.dtd">
<svg version="1.0" xmlns="http://www.w3.org/2000/svg"
 width="1024.000000pt" height="1024.000000pt" viewBox="0 0 1024.000000 1024.000000"
 preserveAspectRatio="xMidYMid meet">
<metadata>
Created by potrace 1.10, written by Peter Selinger 2001-2011
</metadata>
<g transform="translate(0.000000,1024.000000) scale(0.100000,-0.100000)"
fill="#000000" stroke="none">
<path d="M6355 9771 c-137 -42 -218 -95 -366 -238 -258 -250 -433 -491 -583
-805 -94 -195 -131 -313 -275 -870 -183 -710 -236 -1001 -258 -1435 -3 -67 -9
-126 -12 -131 -3 -5 -96 -14 -206 -21 -340 -19 -634 -68 -940 -156 -155 -45
-410 -137 -489 -177 -101 -51 -384 -247 -419 -290 -40 -48 -159 -265 -170
-308 -4 -16 -28 -39 -69 -65 -35 -22 -110 -76 -168 -119 -291 -220 -645 -414
-854 -468 -140 -36 -181 -69 -181 -148 0 -91 53 -109 215 -75 182 38 245 68
640 303 157 94 286 169 287 168 1 -1 -7 -35 -17 -76 -53 -202 -73 -402 -85
-855 -3 -121 -8 -259 -11 -306 l-6 -87 -36 -15 c-21 -9 -84 -49 -142 -89 -508
-353 -551 -380 -735 -465 -195 -90 -231 -118 -254 -193 -23 -78 12 -102 134
-88 68 8 93 16 165 57 47 27 135 74 195 106 160 85 339 193 514 312 l154 104
-7 -83 c-17 -208 -68 -805 -87 -1012 -12 -144 -31 -281 -49 -365 -39 -185 -59
-228 -130 -275 -77 -51 -90 -123 -31 -163 35 -24 74 -28 144 -17 70 12 165
119 201 226 8 25 51 327 95 670 l79 623 11 655 c14 830 16 864 71 1065 11 39
35 142 54 231 25 118 42 174 64 210 16 27 50 108 76 179 61 168 78 201 131
262 81 92 156 133 445 241 l265 99 550 62 c303 34 559 61 569 61 18 0 19 -8
12 -242 -20 -694 -61 -1698 -106 -2578 -27 -542 -59 -1167 -70 -1390 -12 -223
-27 -523 -35 -668 -9 -171 -10 -274 -4 -297 16 -56 83 -102 139 -93 45 6 57
42 94 288 31 204 38 291 56 665 12 237 25 462 30 500 15 118 49 501 60 670 6
88 21 832 34 1654 14 821 27 1496 31 1499 8 8 1774 -66 1857 -78 140 -21 236
-76 323 -188 60 -76 83 -150 97 -306 13 -153 1 -333 -37 -537 -64 -345 -70
-429 -69 -894 0 -457 9 -596 60 -994 42 -331 96 -622 170 -916 40 -161 142
-470 164 -498 11 -14 20 -30 20 -36 0 -6 9 -30 19 -53 11 -24 27 -63 38 -88
10 -25 30 -58 44 -75 14 -16 33 -51 42 -76 12 -32 30 -54 60 -76 24 -16 63
-57 88 -89 50 -65 86 -88 141 -88 42 -1 71 22 99 76 28 54 24 83 -13 117 -90
80 -164 141 -170 141 -5 0 -8 8 -8 18 0 10 -22 51 -49 92 -31 49 -68 129 -106
230 -109 294 -138 418 -246 1039 -54 315 -99 575 -99 577 0 1 53 -15 118 -37
269 -91 517 -157 803 -213 96 -19 257 -56 359 -81 208 -52 243 -52 307 -6 21
15 47 44 57 63 19 34 19 37 3 62 -37 56 -153 96 -367 127 -385 55 -1047 219
-1189 295 -25 13 -63 24 -83 24 -38 0 -38 0 -38 43 0 23 -5 149 -10 281 -10
269 -1 483 30 698 11 75 23 144 26 152 4 11 25 6 105 -25 55 -21 365 -120 690
-219 514 -158 602 -182 688 -189 115 -10 142 -7 176 25 47 43 24 105 -60 159
-44 28 -198 79 -802 265 -411 127 -749 233 -751 235 -2 2 4 108 13 235 13 186
14 248 5 316 -31 237 -154 454 -292 516 -156 70 -408 136 -603 157 -55 6 -392
25 -750 41 -784 35 -845 39 -845 52 0 6 70 405 155 887 110 623 165 911 191
996 115 389 327 787 579 1090 140 168 301 263 479 281 l61 6 65 -73 c36 -41
71 -81 78 -90 7 -10 37 -102 67 -207 l55 -190 -1 -198 c-1 -262 20 -396 91
-599 105 -296 227 -436 536 -611 287 -162 595 -254 944 -279 l85 -7 53 47 c50
44 52 49 52 96 0 28 -7 63 -15 79 -27 52 -67 62 -148 34 -40 -14 -61 -14 -154
-4 -253 27 -492 98 -693 207 -123 67 -173 102 -212 153 -19 25 -67 88 -107
140 -51 66 -69 96 -58 98 8 2 235 -11 504 -28 597 -37 651 -37 686 -9 31 24
52 90 38 116 -5 10 -22 30 -38 44 l-28 27 -565 26 c-311 15 -596 28 -633 29
-59 2 -68 5 -72 22 -5 25 -25 302 -25 344 l0 31 543 0 c476 0 550 2 593 16
121 41 183 142 118 193 -44 35 -80 38 -334 30 -135 -4 -400 -9 -589 -11 l-344
-3 -66 255 c-70 267 -95 327 -162 404 -109 124 -313 184 -464 137z"/>
</g>
</svg>
