<?xml version="1.0" standalone="no"?>
<!DOCTYPE svg PUBLIC "-//W3C//DTD SVG 20010904//EN"
 "http://www.w3.org/TR/2001/REC-SVG-20010904/DTD/svg10.dtd">
<svg version="1.0" xmlns="http://www.w3.org/2000/svg"
 width="1024.000000pt" height="1024.000000pt" viewBox="0 0 1024.000000 1024.000000"
 preserveAspectRatio="xMidYMid meet">
<metadata>
Created by potrace 1.10, written by Peter Selinger 2001-2011
</metadata>
<g transform="translate(0.000000,1024.000000) scale(0.100000,-0.100000)"
fill="#000000" stroke="none">
<path d="M7157 9823 c-97 -52 -197 -149 -276 -268 -36 -55 -227 -335 -424
-621 -473 -688 -640 -890 -806 -975 -72 -37 -114 -83 -131 -145 -14 -48 -9
-157 7 -190 29 -55 40 -125 84 -539 50 -471 57 -614 38 -835 -5 -58 -13 -206
-18 -330 -8 -220 -25 -346 -55 -420 -8 -19 -20 -57 -28 -83 -8 -27 -18 -49
-23 -49 -4 0 -68 73 -142 163 l-133 164 -260 475 -259 476 -46 284 c-38 243
-49 342 -70 665 -35 548 -44 645 -60 679 -8 17 -35 52 -60 78 -38 38 -94 70
-332 188 -157 77 -343 175 -412 217 -69 42 -140 84 -157 92 -17 9 -108 76
-202 150 l-172 135 -113 215 c-62 119 -124 243 -137 276 -26 64 -86 137 -131
161 -16 8 -50 19 -77 24 -64 14 -132 -13 -158 -61 -25 -50 -30 -224 -9 -319 9
-41 20 -100 25 -130 4 -30 11 -64 15 -75 3 -11 -6 2 -20 29 -53 97 -204 292
-292 377 -97 94 -165 129 -246 129 -37 0 -107 -30 -107 -45 0 -56 55 -539 70
-607 23 -112 61 -246 88 -309 l20 -46 -101 38 c-56 21 -110 36 -119 33 -31 -9
-52 -64 -50 -128 3 -123 141 -340 299 -468 l65 -53 -38 -8 c-78 -16 -104 -73
-66 -147 17 -34 17 -36 -6 -72 -48 -74 2 -148 146 -220 64 -32 67 -36 103
-127 l9 -23 -104 7 -105 7 -20 -41 c-34 -66 -30 -77 70 -171 l91 -86 -36 -28
c-50 -38 -50 -80 1 -137 65 -72 94 -81 298 -91 99 -4 184 -10 188 -11 14 -4
-315 -86 -372 -92 -61 -7 -169 -45 -212 -75 -25 -18 -29 -28 -29 -66 0 -37 6
-51 28 -74 39 -38 87 -51 222 -57 l115 -6 -52 -18 c-59 -20 -135 -69 -158
-101 -23 -34 -19 -85 9 -113 30 -30 38 -31 206 -45 74 -6 136 -12 137 -14 5
-5 -202 -85 -273 -106 -57 -16 -79 -28 -107 -60 -47 -51 -64 -112 -42 -146 15
-24 17 -24 188 -24 l172 0 -62 -37 c-59 -35 -63 -40 -63 -75 0 -35 17 -55 78
-94 2 -2 -12 -24 -32 -50 -20 -26 -36 -53 -36 -60 0 -22 51 -62 97 -74 25 -7
63 -10 89 -6 l46 6 -7 -70 -7 -69 30 -18 c25 -15 28 -22 20 -37 -14 -25 -3
-93 19 -118 10 -11 34 -27 53 -35 l34 -15 -42 -25 c-46 -28 -53 -52 -28 -101
26 -51 53 -67 115 -68 54 -1 57 -2 78 -40 13 -22 23 -56 23 -79 0 -38 3 -42
50 -68 28 -16 57 -41 65 -57 20 -39 53 -60 92 -60 31 0 33 -2 33 -34 0 -43 32
-84 73 -91 44 -9 92 -53 106 -97 7 -21 26 -48 42 -61 l30 -23 -58 -40 c-79
-54 -321 -297 -423 -424 -118 -148 -368 -529 -428 -652 -72 -150 -151 -408
-152 -498 0 -19 -11 -32 -43 -51 -69 -42 -478 -401 -570 -501 -209 -226 -353
-432 -448 -641 -60 -130 -69 -158 -69 -208 0 -42 -6 -68 -25 -100 -42 -74 -31
-129 31 -149 40 -14 29 -21 176 120 32 30 58 49 58 43 0 -6 -16 -62 -35 -124
-20 -63 -36 -133 -37 -156 -2 -75 49 -121 121 -109 28 4 54 25 123 98 l89 93
-6 -65 c-3 -36 -8 -80 -12 -97 l-5 -33 105 0 c90 0 108 3 117 18 10 15 11 15
6 -3 -32 -136 -24 -165 56 -206 58 -30 120 -25 162 12 46 40 270 391 307 481
16 38 42 87 59 108 16 21 30 45 30 53 0 8 117 205 260 437 143 232 306 501
361 598 56 97 103 178 104 180 1 2 283 45 626 97 343 52 634 97 647 100 19 5
22 1 22 -24 0 -16 29 -114 63 -218 l64 -188 -39 -59 c-74 -115 -111 -292 -89
-426 14 -86 36 -115 87 -115 48 0 67 29 61 93 l-5 43 22 -20 c29 -27 91 -29
105 -3 7 13 4 45 -10 107 -10 49 -17 91 -14 93 12 12 81 -64 88 -97 10 -49 34
-71 73 -71 28 0 38 7 60 40 17 25 27 56 29 89 3 33 13 63 31 90 15 23 29 41
32 41 3 0 2 -49 -1 -109 -5 -104 -4 -110 17 -130 51 -48 107 -12 126 81 l14
62 13 -40 c19 -58 47 -84 88 -84 55 0 59 21 35 156 -12 64 -19 118 -16 121 7
7 48 -38 68 -74 19 -38 71 -67 103 -59 12 3 33 14 45 24 l22 18 -32 64 c-47
93 -137 179 -236 226 -111 52 -122 69 -173 283 -23 95 -41 174 -39 176 2 1
166 54 365 117 l362 115 103 85 c165 136 782 545 1178 782 201 120 371 225
379 232 11 10 20 8 51 -17 70 -56 101 -58 457 -29 202 17 255 25 315 46 132
47 229 108 343 214 33 31 86 75 117 99 l57 43 177 9 c155 9 183 13 223 34 95
48 140 123 121 196 -16 58 -51 92 -174 169 l-113 70 -27 107 c-45 177 -146
340 -269 434 -285 217 -415 281 -648 323 -194 35 -194 34 -527 -44 -203 -48
-307 -68 -315 -62 -17 13 -106 -10 -187 -50 -44 -21 -90 -56 -142 -108 -72
-71 -83 -88 -149 -228 l-72 -152 -34 0 c-23 0 -32 4 -27 12 5 8 -13 9 -69 4
-43 -4 -77 -5 -77 -2 0 20 297 615 315 631 13 11 32 41 43 67 11 26 108 208
216 406 108 197 196 365 196 374 0 8 -8 40 -19 70 l-19 54 64 85 c75 100 95
159 70 208 -9 17 -27 33 -40 37 -23 5 -24 9 -19 58 5 50 4 53 -44 111 l-50 59
35 76 c43 94 47 148 12 185 l-24 26 42 82 c34 66 42 92 42 136 0 48 -4 57 -34
86 l-34 32 19 54 c22 65 23 99 5 143 -14 33 -13 36 21 86 68 101 79 156 39
193 l-24 23 34 54 c22 36 34 68 34 91 0 40 -28 84 -60 94 -27 8 -78 -31 -85
-67 -4 -15 -11 -28 -17 -28 -6 0 -47 -25 -92 -56 l-81 -57 61 64 c34 35 75 85
92 110 58 87 52 178 -14 205 -45 19 -64 18 -90 -7 -22 -21 -22 -20 2 27 42 82
25 169 -40 203 -22 12 -33 13 -58 3 l-30 -11 4 47 c5 48 28 106 130 324 66
142 67 159 12 208 -19 16 -38 30 -42 30 -4 0 -38 -17 -75 -37z m-4378 -185 c6
-17 29 -55 51 -84 22 -29 40 -58 40 -63 0 -8 31 -70 88 -177 14 -26 37 -81 53
-128 8 -21 38 -65 67 -98 28 -32 52 -65 52 -72 0 -8 71 -71 157 -140 l158
-125 481 -248 482 -247 11 -40 c5 -23 33 -327 61 -676 62 -787 59 -770 226
-1170 64 -151 128 -295 143 -320 15 -25 135 -198 267 -385 164 -233 240 -349
241 -368 0 -16 17 -52 37 -82 35 -53 35 -55 19 -83 -16 -28 -16 -31 0 -56 12
-18 26 -26 47 -26 16 0 226 38 467 85 241 47 460 85 488 85 86 -1 390 -38 492
-60 109 -24 140 -20 168 23 20 31 12 50 -36 81 -21 15 -39 29 -39 33 0 3 41
73 91 155 l91 149 97 49 c54 26 124 56 157 65 32 10 78 26 101 36 58 26 222
65 335 79 52 7 165 10 258 8 l165 -4 135 -62 c74 -35 144 -71 155 -81 11 -11
61 -43 110 -72 107 -62 206 -157 260 -249 31 -54 43 -92 71 -225 44 -215 47
-207 -140 -378 -78 -70 -150 -133 -162 -140 -12 -7 -52 -36 -90 -64 -187 -143
-422 -223 -651 -223 -83 0 -100 3 -151 29 -31 16 -86 34 -122 39 -36 6 -74 14
-85 17 -15 4 -51 -17 -135 -77 -63 -46 -169 -115 -235 -152 -66 -37 -148 -86
-183 -108 -49 -32 -65 -38 -76 -29 -12 10 -26 3 -73 -32 -32 -25 -73 -48 -90
-52 -18 -4 -39 -15 -45 -24 -14 -19 -818 -558 -846 -568 -10 -3 -35 -24 -57
-48 -37 -39 -57 -48 -266 -124 l-227 -81 -1003 -150 c-552 -83 -1015 -150
-1028 -150 -14 0 -43 -9 -65 -20 -53 -26 -125 -137 -232 -355 -46 -95 -209
-376 -400 -691 -178 -293 -333 -556 -345 -585 -23 -54 -157 -259 -170 -259
-14 0 133 438 172 514 43 83 198 290 255 341 18 17 42 51 53 77 l20 47 -21 26
c-27 35 -53 28 -127 -31 -62 -50 -194 -200 -218 -249 -17 -32 -262 -365 -270
-365 -6 0 70 138 136 245 82 133 165 250 245 343 39 46 84 99 99 117 38 46 46
96 18 124 -11 11 -27 21 -34 21 -29 0 -99 -61 -263 -230 -129 -134 -216 -237
-369 -437 -110 -144 -201 -260 -203 -259 -6 7 74 201 129 312 46 92 91 160
192 290 190 245 211 278 197 303 -14 27 -64 53 -87 44 -10 -4 -56 -38 -102
-77 -57 -49 -146 -147 -285 -316 -110 -134 -206 -251 -212 -259 -6 -8 -16 -11
-22 -7 -29 18 193 390 345 579 38 46 149 157 248 247 99 90 223 203 275 250
52 48 118 106 146 128 70 55 90 86 109 168 22 99 72 247 110 331 54 118 466
769 544 860 81 93 179 181 283 251 120 81 148 92 229 92 70 0 71 0 147 -56
133 -97 267 -151 457 -184 61 -10 135 -29 165 -42 52 -21 69 -23 290 -23 129
-1 281 -5 337 -9 95 -8 108 -7 186 17 96 31 184 84 245 150 43 48 51 74 30 95
-22 22 -65 12 -125 -27 -89 -60 -192 -91 -303 -91 -78 0 -95 3 -121 22 -27 20
-32 21 -62 9 -39 -17 -159 -29 -292 -30 -99 -1 -100 -1 -152 35 -48 33 -58 36
-165 44 -172 14 -266 49 -421 158 -94 65 -160 92 -228 92 -46 0 -56 4 -103 45
-29 25 -56 41 -61 37 -4 -4 -4 20 0 53 4 33 13 63 20 67 7 4 18 21 25 37 9 24
9 35 -2 58 -14 28 -14 28 -101 25 -99 -3 -99 -3 -66 72 19 44 20 49 4 72 -9
14 -30 30 -46 36 -25 9 -28 14 -22 36 3 15 19 45 35 67 54 73 18 137 -80 141
l-47 2 4 34 c13 94 11 100 -49 124 -30 12 -55 26 -54 30 0 5 8 27 18 48 21 47
11 80 -30 98 -16 7 -24 18 -20 27 2 9 9 30 14 48 13 42 -10 75 -65 91 -34 10
-93 54 -93 69 0 3 5 23 11 43 17 58 5 88 -43 109 l-41 17 26 17 c34 22 54 85
37 116 -12 23 -12 23 -208 17 l-197 -6 148 54 c82 30 164 67 184 82 57 44 93
145 60 173 -8 6 -90 13 -203 17 l-189 7 272 89 c280 91 317 109 348 169 16 29
21 115 8 122 -5 3 -120 -10 -258 -29 -137 -18 -254 -33 -260 -33 -5 0 36 17
91 38 132 50 352 169 377 203 26 34 17 68 -23 92 -17 10 -34 16 -37 13 -2 -3
-22 1 -43 8 -27 10 -49 11 -76 4 -86 -21 -501 -23 -480 -2 4 5 498 53 545 53
29 0 97 66 106 103 9 36 -13 69 -61 92 -21 10 -113 29 -206 44 -165 25 -168
26 -177 53 -7 21 -7 28 2 28 7 0 89 -14 182 -30 240 -42 315 -39 315 13 0 12
-7 32 -15 43 -13 19 -12 23 10 44 30 28 32 64 5 87 -11 10 -95 39 -187 65 -92
27 -185 59 -208 73 -45 26 -81 74 -108 144 l-18 43 33 -20 c18 -11 106 -56
195 -101 181 -92 219 -100 237 -49 18 51 -3 70 -207 175 -105 54 -205 110
-222 124 -16 14 -53 38 -81 54 -60 34 -80 61 -154 224 -39 84 -78 150 -121
204 -77 98 -150 238 -173 332 -9 39 -31 190 -49 337 l-33 267 46 -42 c25 -24
66 -57 92 -75 60 -41 112 -102 145 -172 24 -49 173 -288 207 -332 7 -10 29
-24 48 -32 30 -13 36 -21 42 -58 20 -123 87 -325 136 -409 75 -128 203 -259
252 -259 11 0 36 16 55 35 42 42 42 43 -64 150 -122 125 -148 182 -222 505
-33 146 -67 285 -76 310 -9 25 -22 115 -30 200 -8 85 -17 176 -20 203 -5 42
-4 47 14 47 12 0 23 -11 30 -32z m4229 -221 c-20 -27 -23 -44 -22 -112 0 -44
6 -110 13 -147 l12 -67 -74 -98 c-40 -54 -79 -108 -85 -120 -19 -35 -14 -79
12 -110 l24 -28 -23 -51 c-12 -28 -36 -60 -52 -72 -17 -12 -36 -35 -43 -52
-10 -25 -10 -34 4 -54 8 -14 25 -28 37 -31 15 -5 19 -12 15 -28 -3 -12 -6 -25
-6 -29 0 -5 -11 -8 -25 -8 -22 0 -27 -9 -50 -82 -31 -99 -27 -128 21 -154 43
-23 61 -14 89 44 21 43 118 128 196 172 l42 23 -33 -59 c-19 -32 -42 -72 -52
-89 -22 -37 -23 -88 -3 -105 8 -7 15 -16 15 -19 0 -4 -35 -32 -77 -63 -72 -51
-83 -56 -143 -60 -88 -5 -135 -36 -126 -82 14 -73 95 -102 185 -66 72 29 189
101 249 152 l46 41 8 -29 c9 -35 17 -29 -161 -153 -118 -82 -152 -101 -181
-101 -84 0 -111 -74 -44 -125 34 -26 38 -27 78 -15 68 20 157 69 235 129 91
69 160 119 186 133 19 10 19 10 5 -8 -8 -10 -37 -44 -64 -74 -27 -30 -58 -75
-68 -100 -17 -38 -35 -56 -123 -116 -83 -58 -113 -73 -154 -79 -54 -7 -81 -31
-81 -70 0 -32 50 -75 87 -75 46 0 199 82 271 145 68 59 117 78 71 28 -142
-156 -184 -217 -173 -248 3 -7 -16 -21 -48 -34 -97 -39 -208 -146 -208 -201 0
-28 23 -56 51 -62 9 -1 54 24 100 57 46 34 113 71 149 84 36 13 71 26 78 28 8
4 12 -5 12 -23 -1 -26 -17 -40 -168 -139 -183 -121 -208 -146 -182 -192 31
-54 38 -53 189 34 105 61 138 76 130 60 -22 -42 -114 -142 -201 -220 -116
-104 -117 -137 -4 -137 l61 0 138 138 138 137 -21 -55 c-42 -109 -126 -267
-207 -387 -44 -68 -107 -171 -138 -230 -31 -60 -63 -115 -70 -123 -7 -8 -60
-123 -118 -255 -111 -256 -163 -361 -201 -406 l-24 -28 -90 10 c-78 9 -115 7
-274 -15 -100 -14 -199 -28 -218 -32 l-35 -6 21 24 c33 36 44 63 44 110 0 31
24 104 86 258 130 326 202 604 235 910 16 148 6 463 -20 615 -29 171 -28 231
8 309 27 60 71 128 141 220 38 49 38 80 1 117 -46 46 -49 45 -139 -58 -62 -71
-142 -219 -142 -264 0 -11 -9 -32 -21 -48 -33 -44 -34 -95 -4 -206 22 -87 27
-133 36 -345 l10 -245 -110 -487 c-73 -321 -119 -504 -135 -536 -23 -45 -126
-152 -147 -152 -12 0 -12 63 11 804 18 594 19 661 5 795 -20 192 -29 242 -76
461 l-39 184 39 39 c33 34 41 38 59 28 19 -10 39 10 229 222 203 228 218 248
628 835 336 482 421 597 423 577 2 -14 -6 -39 -20 -58z m-4838 -818 c19 -5 47
-11 61 -14 19 -3 38 -23 67 -67 48 -73 128 -245 119 -254 -13 -13 -164 84
-228 146 -57 56 -132 166 -152 222 -6 16 -1 15 46 -4 29 -11 68 -25 87 -29z
m629 -865 c4 -4 -73 8 -78 12 -1 1 0 7 4 13 5 9 54 -7 74 -25z m-150 -150 c10
-9 -55 -3 -69 6 -10 6 -2 7 25 3 22 -3 42 -7 44 -9z m-39 -180 c31 -17 37 -23
20 -20 -14 2 -67 12 -117 21 -51 10 -93 19 -93 21 0 2 33 4 73 4 58 -1 81 -6
117 -26z m125 -47 c28 -9 59 -17 70 -19 11 -2 -13 -7 -54 -11 -41 -4 -75 -6
-77 -5 -1 2 -6 16 -10 32 -5 23 -4 28 7 24 8 -3 37 -12 64 -21z m-250 -147 c3
-5 1 -10 -4 -10 -6 0 -11 5 -11 10 0 6 2 10 4 10 3 0 8 -4 11 -10z m3315
-1919 c0 -5 -7 -12 -16 -15 -24 -9 -28 -7 -14 9 14 17 30 20 30 6z m3430 -387
c0 -2 -11 -4 -25 -4 -18 0 -25 5 -25 20 0 20 1 20 25 4 14 -9 25 -18 25 -20z
m-81 -158 c-11 -9 -69 -15 -64 -6 3 6 20 10 37 10 17 0 29 -2 27 -4z m-4037
-1961 c31 -137 49 -189 89 -262 l29 -51 -34 -21 -33 -21 -49 22 c-30 13 -78
23 -122 26 -87 6 -83 -1 -137 187 -21 72 -44 145 -52 164 -8 18 -11 36 -8 40
7 6 249 39 275 37 10 -1 22 -37 42 -121z m-88 -470 l36 -15 -16 -32 -17 -32
-23 28 c-13 15 -24 36 -24 47 0 23 -1 23 44 4z"/>
<path d="M3836 8155 c-30 -46 -13 -102 46 -147 24 -18 39 -42 50 -79 10 -30
84 -335 166 -679 140 -584 157 -648 270 -987 l120 -362 177 -303 c193 -330
216 -364 250 -380 25 -11 82 11 91 36 3 8 -58 113 -136 235 l-140 221 -200
587 c-109 324 -202 611 -205 638 -4 28 -33 133 -65 235 -32 102 -61 208 -65
235 -4 28 -22 122 -41 209 -19 88 -42 198 -50 245 -8 47 -21 107 -30 133 -27
82 -141 188 -202 188 -11 0 -27 -11 -36 -25z"/>
<path d="M8273 5406 c-35 -17 -60 -38 -79 -65 -32 -50 -43 -121 -22 -153 8
-13 21 -40 28 -61 25 -78 151 -123 229 -83 30 16 91 80 91 96 0 6 13 10 28 10
37 0 52 17 52 58 0 167 -171 270 -327 198z m160 -132 c3 -4 -3 -18 -13 -32
-11 -13 -20 -30 -20 -37 0 -15 -55 -40 -68 -31 -19 12 -23 69 -6 88 17 18 92
26 107 12z"/>
<path d="M4782 4834 c-27 -18 -28 -46 -3 -99 35 -77 100 -115 192 -115 36 0
60 -8 99 -32 64 -40 129 -43 205 -10 45 20 75 23 308 29 234 7 260 10 272 26
18 25 2 70 -33 98 -24 19 -34 20 -82 13 -30 -5 -127 -8 -214 -6 -125 2 -182
-2 -264 -18 -118 -22 -120 -22 -152 45 -34 70 -99 82 -130 25 -6 -11 -14 -20
-19 -20 -4 0 -36 18 -70 40 -69 45 -77 47 -109 24z"/>
<path d="M1959 5158 c-34 -53 -34 -53 -33 -173 2 -173 42 -362 111 -516 28
-64 56 -84 102 -74 42 9 56 37 41 78 -7 18 -36 135 -65 262 l-52 229 15 66
c21 92 20 125 -8 155 -39 42 -72 34 -111 -27z"/>
<path d="M1678 4669 c-31 -18 -69 -94 -69 -140 -1 -43 41 -211 64 -257 6 -13
23 -30 38 -38 24 -12 30 -11 53 7 24 19 26 26 25 97 0 42 -8 107 -17 143 -15
55 -15 71 -5 95 15 35 8 63 -21 86 -24 20 -43 22 -68 7z"/>
<path d="M3442 1767 c-17 -12 -32 -31 -32 -41 0 -37 153 -298 226 -386 159
-191 321 -270 559 -270 126 0 155 11 155 60 0 39 -23 50 -102 50 -143 1 -297
58 -401 151 -73 65 -241 274 -256 319 -17 51 -54 103 -88 122 -28 16 -31 16
-61 -5z"/>
<path d="M3306 1031 c-17 -19 -16 -72 2 -97 17 -23 138 -119 188 -149 101 -61
174 -80 304 -80 81 0 124 5 145 15 35 18 51 63 36 103 -9 24 -16 27 -53 27
-24 0 -95 7 -158 16 -114 16 -116 17 -267 100 -83 46 -158 84 -166 84 -8 0
-22 -9 -31 -19z"/>
<path d="M3288 526 c-28 -21 -23 -76 11 -122 75 -101 169 -155 285 -161 68 -4
73 -3 109 27 27 23 37 39 37 60 0 37 -17 46 -107 54 -93 8 -102 12 -213 90
-52 36 -96 66 -99 66 -3 0 -14 -7 -23 -14z"/>
</g>
</svg>
