<?xml version="1.0" standalone="no"?>
<!DOCTYPE svg PUBLIC "-//W3C//DTD SVG 20010904//EN"
 "http://www.w3.org/TR/2001/REC-SVG-20010904/DTD/svg10.dtd">
<svg version="1.0" xmlns="http://www.w3.org/2000/svg"
 width="1024.000000pt" height="1024.000000pt" viewBox="0 0 1024.000000 1024.000000"
 preserveAspectRatio="xMidYMid meet">
<metadata>
Created by potrace 1.10, written by Peter Selinger 2001-2011
</metadata>
<g transform="translate(0.000000,1024.000000) scale(0.100000,-0.100000)"
fill="#000000" stroke="none">
<path d="M6675 9010 c-110 -21 -219 -45 -242 -54 -103 -37 -621 -139 -1168
-230 -248 -42 -357 -59 -715 -116 -146 -23 -925 -100 -1008 -100 -31 0 -154
11 -272 25 -118 14 -232 25 -252 25 -45 0 -63 -23 -73 -92 -19 -130 39 -185
381 -358 188 -96 326 -150 382 -150 34 0 405 86 577 134 299 83 1179 244 2320
426 368 58 418 68 520 101 118 37 175 83 175 138 0 48 -48 146 -92 188 -25 24
-61 39 -154 67 -67 20 -134 36 -150 35 -16 0 -119 -18 -229 -39z"/>
<path d="M6245 7043 c-55 -6 -110 -25 -150 -53 -30 -22 -112 -48 -340 -109
l-300 -80 -887 -136 c-663 -101 -891 -133 -905 -125 -10 5 -119 32 -243 60
l-225 49 -67 -44 c-38 -25 -68 -48 -67 -53 0 -4 32 -34 71 -66 171 -144 281
-363 323 -641 18 -119 19 -321 5 -885 -6 -223 -17 -685 -25 -1027 -16 -665
-17 -679 -91 -1163 -33 -219 -125 -676 -176 -875 -87 -345 -250 -714 -485
-1101 -75 -124 -84 -150 -58 -160 36 -14 140 62 277 202 353 362 587 769 783
1359 150 451 244 910 310 1510 15 132 30 250 35 261 7 17 20 23 72 28 34 4
470 59 968 122 834 106 1195 150 1423 174 200 20 283 113 209 231 -33 51 -134
142 -210 189 -37 23 -51 37 -48 49 3 9 78 300 166 646 88 347 174 668 190 714
40 115 83 183 157 249 67 59 113 135 113 186 0 104 -135 225 -423 381 -140 75
-300 118 -402 108z m-162 -571 c46 -41 50 -66 44 -247 -6 -188 -35 -433 -103
-895 -71 -480 -93 -613 -101 -620 -4 -4 -76 -26 -159 -49 -136 -39 -224 -53
-925 -150 l-774 -107 -3 40 c-2 22 4 251 13 509 9 258 20 642 25 854 5 212 11
387 13 389 12 12 1877 302 1912 298 22 -3 48 -13 58 -22z"/>
</g>
</svg>
