<?xml version="1.0" standalone="no"?>
<!DOCTYPE svg PUBLIC "-//W3C//DTD SVG 20010904//EN"
 "http://www.w3.org/TR/2001/REC-SVG-20010904/DTD/svg10.dtd">
<svg version="1.0" xmlns="http://www.w3.org/2000/svg"
 width="1024.000000pt" height="1024.000000pt" viewBox="0 0 1024.000000 1024.000000"
 preserveAspectRatio="xMidYMid meet">
<metadata>
Created by potrace 1.10, written by Peter Selinger 2001-2011
</metadata>
<g transform="translate(0.000000,1024.000000) scale(0.100000,-0.100000)"
fill="#000000" stroke="none">
<path d="M7865 9416 c-162 -54 -179 -62 -903 -423 -829 -413 -1117 -575 -1449
-815 -273 -197 -508 -435 -715 -723 -122 -171 -248 -395 -262 -465 -3 -19 -29
-74 -57 -123 -40 -71 -183 -457 -750 -2024 l-700 -1936 -424 -846 -424 -846
-206 -310 c-146 -219 -225 -328 -270 -373 -74 -72 -131 -177 -141 -258 l-6
-51 41 -16 c38 -16 43 -16 77 0 61 30 342 370 526 638 132 192 247 395 547
967 l293 558 200 492 c251 620 444 1095 606 1496 114 282 128 313 147 308 11
-3 243 -17 515 -32 l495 -26 345 71 c356 74 392 83 595 158 242 89 455 180
700 298 158 76 188 96 431 277 223 166 273 209 340 288 159 186 314 448 394
670 17 47 42 96 54 110 13 14 44 75 69 135 112 272 201 557 262 840 19 94 41
184 47 200 5 17 16 51 23 76 7 25 35 88 61 140 41 79 48 103 48 151 1 48 -4
62 -30 95 -17 21 -44 42 -59 48 -24 9 -30 6 -55 -24 -79 -94 -202 -387 -249
-591 -12 -52 -24 -103 -27 -113 -5 -16 -15 -17 -102 -11 -85 5 -105 3 -162
-16 l-65 -22 -775 11 -775 12 -535 -30 c-294 -16 -536 -28 -536 -27 -1 0 62
75 140 166 238 277 522 516 846 710 201 121 1369 718 1635 836 354 157 454
215 491 287 19 36 6 60 -46 81 -57 23 -92 20 -205 -18z m-97 -2231 c72 0 132
0 132 -1 0 -12 -53 -149 -68 -174 -11 -19 -50 -117 -87 -217 -38 -107 -90
-226 -124 -287 -32 -57 -61 -120 -65 -140 -4 -20 -37 -87 -74 -149 -37 -62
-89 -155 -115 -207 -55 -113 -155 -241 -246 -317 -103 -85 -334 -235 -496
-323 -298 -160 -785 -341 -1180 -438 -344 -86 -562 -122 -726 -122 -127 0
-681 19 -686 24 -1 1 54 177 123 392 69 214 168 524 220 689 155 486 244 716
407 1049 l82 167 245 5 c135 4 682 19 1215 34 623 19 1031 26 1140 22 94 -3
230 -6 303 -7z"/>
<path d="M6982 3560 c0 -8 6 -31 13 -50 7 -19 13 -28 13 -20 0 8 -6 31 -13 50
-7 19 -13 28 -13 20z"/>
</g>
</svg>
