<?xml version="1.0" standalone="no"?>
<!DOCTYPE svg PUBLIC "-//W3C//DTD SVG 20010904//EN"
 "http://www.w3.org/TR/2001/REC-SVG-20010904/DTD/svg10.dtd">
<svg version="1.0" xmlns="http://www.w3.org/2000/svg"
 width="1024.000000pt" height="1024.000000pt" viewBox="0 0 1024.000000 1024.000000"
 preserveAspectRatio="xMidYMid meet">
<metadata>
Created by potrace 1.10, written by Peter Selinger 2001-2011
</metadata>
<g transform="translate(0.000000,1024.000000) scale(0.100000,-0.100000)"
fill="#000000" stroke="none">
<path d="M2615 9981 c-130 -94 -166 -126 -267 -240 -69 -78 -145 -178 -187
-245 -65 -105 -73 -123 -96 -227 -14 -63 -36 -145 -50 -182 -45 -121 -26 -199
58 -237 50 -23 140 -26 214 -6 46 12 101 11 490 -15 241 -16 513 -29 606 -29
l167 0 113 76 c105 70 114 79 137 132 33 77 35 214 4 283 l-21 45 23 28 c46
52 20 161 -55 236 -115 114 -560 346 -874 456 -55 19 -102 34 -105 33 -4 0
-74 -49 -157 -108z m562 -378 l374 -238 -6 -60 c-3 -33 -7 -97 -8 -142 -1 -46
-4 -83 -7 -83 -3 0 -43 7 -90 15 -68 12 -186 15 -592 15 l-508 0 0 62 c0 34
-7 87 -16 119 l-16 57 107 129 c59 70 130 146 158 167 29 22 90 75 137 118 46
43 86 78 89 78 2 0 172 -107 378 -237z"/>
<path d="M2620 8610 c-358 -6 -354 -5 -433 -73 l-38 -32 -12 -138 c-12 -123
-4 -516 75 -3665 69 -2781 91 -3584 107 -3797 12 -148 21 -352 21 -452 l0
-183 135 0 c133 0 135 0 135 23 0 12 -43 1617 -96 3567 -74 2751 -96 3650 -95
4014 1 259 3 471 5 473 5 5 1019 63 1023 59 3 -2 -1 -42 -8 -87 -15 -102 -15
-374 0 -689 6 -129 11 -322 11 -428 0 -162 2 -194 15 -198 8 -4 15 -14 15 -24
0 -15 -15 -18 -112 -23 -62 -4 -180 -7 -263 -7 -130 0 -154 -3 -182 -19 -17
-11 -34 -29 -38 -41 -4 -11 -28 -42 -55 -69 -35 -35 -53 -63 -64 -102 -21 -70
-20 -95 10 -327 22 -170 28 -200 47 -218 20 -20 39 -23 264 -34 134 -6 281 -9
328 -5 l85 7 1 -68 c0 -38 15 -420 33 -849 18 -429 32 -781 32 -781 -1 -1
-118 -7 -261 -14 -214 -9 -264 -14 -283 -28 -13 -9 -37 -51 -54 -92 l-30 -75
6 -244 c8 -287 10 -296 83 -306 27 -3 66 -12 88 -20 22 -7 117 -21 210 -29
232 -22 213 -15 221 -86 6 -54 9 -60 29 -60 22 0 23 -4 29 -102 4 -57 31 -803
62 -1658 30 -855 58 -1558 62 -1562 4 -4 65 -4 136 -1 l128 6 -7 374 -7 373
50 0 c28 0 158 -7 289 -15 l238 -15 2080 115 c1349 76 2110 114 2166 110 81
-5 86 -4 108 19 18 19 24 41 30 107 4 48 -26 1370 -70 3108 -43 1664 -79 3114
-80 3221 -1 107 4 260 11 340 11 131 11 151 -4 203 -9 31 -30 72 -46 91 -17
18 -30 41 -30 51 0 9 -14 30 -30 47 l-30 30 -2388 -6 c-1313 -4 -2430 -9
-2483 -12 l-97 -5 -22 66 c-12 36 -26 98 -31 137 -14 116 11 108 -368 106
-179 -1 -472 -5 -651 -8z m5890 -522 c4 -24 187 -6684 184 -6687 -2 -3 -933
-59 -2068 -125 l-2063 -120 -174 13 c-96 8 -229 16 -296 18 l-121 5 -6 92
c-12 197 -16 376 -9 377 5 1 148 3 318 5 171 1 1098 14 2060 29 1688 25 1752
26 1793 45 23 11 60 20 81 20 26 0 43 7 58 22 l20 23 -78 2860 c-76 2796 -79
2861 -99 2920 -12 33 -25 85 -29 115 -9 74 -24 97 -69 109 -20 6 -307 19 -637
31 l-600 20 -1440 -44 c-792 -25 -1486 -47 -1542 -49 l-103 -5 0 159 0 159
1378 3 c757 1 1842 3 2410 5 567 1 1032 1 1032 0z m-2563 -571 l1892 -2 5 -70
c3 -38 8 -126 12 -195 5 -115 8 -129 34 -170 16 -25 37 -63 46 -85 23 -55 23
-182 0 -262 l-19 -63 -79 0 c-141 0 -278 -75 -278 -152 0 -60 97 -123 185
-119 17 0 66 7 110 15 44 8 80 13 80 13 1 -1 -1 -180 -3 -397 l-4 -395 -101
-1 c-61 0 -118 -6 -142 -15 -93 -33 -116 -166 -35 -209 10 -5 62 -14 117 -20
54 -6 113 -13 131 -16 l32 -5 0 -77 c0 -42 11 -204 25 -360 13 -156 22 -289
19 -295 -2 -7 0 -49 4 -95 l8 -83 -96 6 c-113 9 -158 -5 -190 -57 -28 -46 -25
-70 13 -120 62 -81 153 -108 250 -73 l39 13 -7 -251 c-6 -239 6 -488 40 -793
l6 -51 -45 -13 c-57 -16 -80 -41 -79 -85 1 -46 45 -119 82 -136 l29 -15 6
-446 6 -446 -58 -7 c-262 -29 -547 -36 -1807 -45 -1539 -9 -2193 -19 -2217
-32 -16 -8 -18 -3 -18 37 0 25 -9 242 -21 481 -11 240 -18 438 -15 441 3 3 19
0 37 -6 18 -6 51 -11 74 -11 33 0 47 6 73 33 33 34 62 102 62 147 0 36 -33 76
-73 89 -56 18 -121 23 -149 12 -18 -7 -28 -7 -28 -1 0 6 -7 10 -15 10 -21 0
-21 179 0 287 8 43 15 95 15 115 l0 38 105 -7 104 -6 28 32 27 31 214 0 214 0
43 36 c39 31 43 38 35 60 -6 14 -6 33 0 48 6 16 5 29 -3 39 -7 8 -87 69 -178
134 -108 78 -188 127 -228 142 -33 12 -61 24 -61 26 0 2 26 20 59 39 51 31 67
36 121 36 102 0 160 50 160 138 0 84 -53 103 -259 95 -124 -5 -162 -2 -251 15
-76 16 -117 19 -148 13 -38 -8 -43 -6 -47 13 -5 23 -25 661 -25 794 l0 80 79
-5 c77 -6 82 -5 129 26 37 24 52 40 60 70 17 54 15 66 -13 99 -33 40 -98 54
-185 42 -35 -5 -67 -7 -70 -5 -4 3 -10 51 -14 107 -3 57 -9 138 -12 181 -4 42
-3 77 2 77 12 0 5 174 -7 178 -5 2 -9 10 -9 18 0 17 42 18 198 3 100 -10 119
-9 158 6 25 9 51 27 60 39 13 21 25 24 141 30 88 4 139 12 167 25 49 21 102
78 111 119 6 28 9 30 94 42 82 12 90 15 116 47 23 30 27 42 22 79 -8 71 -62
114 -145 114 -39 0 -80 -28 -65 -45 5 -4 -3 -5 -17 -2 -14 4 -57 12 -97 19
-71 11 -72 11 -113 -16 l-42 -28 -93 38 -93 38 46 27 c57 33 158 138 178 184
20 48 18 69 -11 103 -45 54 -85 58 -383 38 -145 -10 -266 -15 -269 -12 -3 3 0
35 7 70 13 70 8 122 -16 169 -11 20 -16 70 -18 174 l-4 145 177 -6 c97 -4
1027 -8 2068 -9z m-1857 -721 c0 -2 -26 -13 -58 -25 -82 -29 -135 -71 -162
-125 -32 -67 -21 -78 140 -141 148 -57 148 -57 10 -70 -81 -8 -137 -22 -142
-36 -2 -7 -38 -7 -113 1 -61 5 -246 10 -412 10 l-303 0 0 38 c0 20 -3 88 -7
151 l-6 114 257 -6 c231 -6 261 -5 289 10 37 20 507 93 507 79z m-278 -2543
l217 -6 -49 -46 c-46 -43 -50 -51 -50 -92 l0 -45 201 -121 200 -121 -103 -6
c-57 -3 -244 -8 -417 -11 -255 -5 -350 -3 -503 11 l-188 18 0 219 0 220 238
-7 c130 -3 335 -9 454 -13z"/>
<path d="M5932 6769 c-23 -12 -62 -44 -87 -71 l-45 -51 -54 7 c-45 5 -61 2
-107 -22 -65 -32 -79 -61 -60 -122 7 -23 27 -58 45 -78 30 -32 39 -36 94 -40
50 -4 64 -9 76 -28 40 -60 161 -114 258 -114 83 0 142 17 223 63 101 57 155
143 155 244 0 34 -6 50 -29 76 -16 17 -45 50 -63 71 -18 22 -55 50 -83 62 -43
21 -66 24 -165 24 -97 0 -122 -3 -158 -21z m171 -197 c-4 -31 0 -48 21 -81
l26 -41 -37 5 c-21 2 -63 7 -95 10 -68 7 -76 21 -45 75 21 37 44 53 92 63 42
9 43 8 38 -31z"/>
<path d="M6708 6662 c-41 -10 -78 -67 -78 -119 0 -82 40 -122 138 -138 38 -6
50 -3 99 27 59 35 73 58 73 116 0 70 -46 105 -150 115 -30 3 -67 2 -82 -1z"/>
<path d="M7177 6656 c-67 -24 -107 -78 -107 -145 0 -57 105 -107 211 -99 65 5
114 35 157 98 27 40 27 39 -1 81 -39 58 -81 79 -156 79 -36 -1 -83 -7 -104
-14z"/>
<path d="M5094 6604 c-68 -32 -84 -66 -60 -127 9 -24 30 -57 46 -72 26 -24 40
-30 93 -33 84 -5 132 14 170 65 24 34 28 48 23 76 -20 106 -151 150 -272 91z"/>
<path d="M7260 5602 c-72 -24 -98 -41 -109 -73 -14 -39 6 -113 39 -149 24 -26
35 -30 79 -30 29 0 66 6 84 14 50 21 103 77 117 123 11 37 11 45 -4 68 -35 53
-125 73 -206 47z"/>
<path d="M5907 5582 c-86 -23 -146 -65 -175 -122 -19 -37 -23 -56 -19 -110 9
-132 82 -233 193 -266 80 -23 221 -16 289 15 180 80 207 293 54 425 -80 68
-217 91 -342 58z m266 -241 c8 -32 -76 -71 -154 -71 -55 1 -70 5 -102 29 -33
25 -35 30 -21 41 13 11 20 11 44 -3 37 -22 122 -21 180 3 25 10 46 18 46 19 1
1 4 -8 7 -18z"/>
<path d="M6599 5571 c-75 -35 -85 -61 -50 -137 27 -59 63 -84 123 -84 81 0
131 17 156 54 40 59 19 146 -42 171 -47 20 -142 18 -187 -4z"/>
<path d="M5297 5548 c-53 -12 -97 -54 -97 -94 0 -37 39 -112 69 -133 14 -10
41 -22 59 -26 46 -10 132 13 165 43 60 56 57 166 -5 198 -39 20 -128 26 -191
12z"/>
<path d="M4300 5544 c-14 -3 -34 -7 -45 -9 -12 -2 -30 -21 -42 -42 -56 -103
-30 -156 91 -183 36 -8 54 -7 88 6 79 30 137 120 109 172 -21 39 -128 69 -201
56z"/>
<path d="M4745 5541 c-42 -18 -60 -50 -59 -107 0 -89 60 -144 155 -144 38 0
52 6 96 43 55 45 63 60 63 123 0 31 -6 46 -26 65 -23 21 -36 24 -117 26 -51 2
-101 -1 -112 -6z"/>
<path d="M5765 4469 l-50 -40 -130 6 c-122 6 -132 6 -157 -14 -38 -30 -71
-104 -63 -140 13 -62 81 -98 202 -107 l89 -7 24 -56 c16 -39 37 -67 65 -88 39
-31 46 -32 175 -41 120 -8 140 -7 175 9 22 9 59 22 81 28 54 14 120 84 135
144 10 34 21 49 56 72 79 53 103 145 51 190 -39 33 -122 50 -184 37 -42 -9
-53 -8 -79 7 -22 13 -68 22 -165 30 -180 15 -168 16 -225 -30z m318 -187 c45
-46 47 -49 30 -64 -29 -25 -78 -47 -132 -59 -48 -10 -53 -9 -105 23 -47 28
-55 38 -56 62 0 19 10 40 27 58 25 26 32 28 108 28 l81 0 47 -48z"/>
<path d="M6758 4450 c-41 -22 -68 -55 -68 -83 0 -33 52 -117 85 -137 48 -30
126 -26 195 8 64 32 86 63 76 113 -12 63 -32 77 -140 99 -116 24 -102 24 -148
0z"/>
<path d="M7270 4448 c-40 -21 -63 -77 -51 -127 18 -83 66 -121 154 -121 37 0
51 6 89 40 72 63 84 145 28 195 -18 16 -39 21 -109 23 -56 2 -95 -2 -111 -10z"/>
<path d="M4895 4430 c-58 -14 -104 -39 -120 -64 -22 -33 -6 -84 40 -131 48
-47 94 -61 162 -45 47 10 59 18 89 58 27 37 34 54 30 80 -13 87 -95 129 -201
102z"/>
<path d="M5750 3168 l-85 -63 -101 -6 c-108 -7 -135 -16 -160 -54 -24 -37 -9
-109 32 -154 32 -36 33 -36 118 -36 l85 0 21 -36 c42 -76 112 -109 234 -109
117 0 193 28 272 103 44 41 69 57 89 57 53 0 135 74 135 122 0 36 -99 98 -156
98 -19 0 -39 14 -72 52 -66 72 -105 88 -227 88 l-101 0 -84 -62z m233 -144
c41 -7 41 -7 51 -46 5 -24 2 -29 -47 -53 -29 -14 -75 -28 -103 -31 -46 -6 -50
-4 -72 25 -18 25 -21 35 -12 52 13 24 108 71 130 64 8 -2 32 -7 53 -11z"/>
<path d="M6843 3117 c-23 -12 -54 -37 -68 -56 -59 -81 -10 -147 134 -181 107
-25 210 9 265 89 31 45 29 56 -26 108 -49 47 -96 63 -185 63 -60 -1 -88 -6
-120 -23z"/>
<path d="M7553 3119 c-62 -18 -82 -93 -44 -167 29 -57 73 -76 158 -70 65 5 73
8 101 39 60 66 51 157 -18 191 -38 20 -141 23 -197 7z"/>
<path d="M4365 3089 c-72 -24 -85 -39 -85 -95 0 -76 69 -134 158 -134 80 0
135 24 161 71 27 47 22 84 -15 129 -44 52 -121 62 -219 29z"/>
<path d="M4888 3091 c-64 -30 -81 -51 -75 -94 7 -53 48 -110 93 -132 45 -21
98 -17 170 14 50 22 74 55 74 105 0 33 -33 88 -64 107 -40 25 -146 25 -198 0z"/>
</g>
</svg>
