<?xml version="1.0" standalone="no"?>
<!DOCTYPE svg PUBLIC "-//W3C//DTD SVG 20010904//EN"
 "http://www.w3.org/TR/2001/REC-SVG-20010904/DTD/svg10.dtd">
<svg version="1.0" xmlns="http://www.w3.org/2000/svg"
 width="1024.000000pt" height="1024.000000pt" viewBox="0 0 1024.000000 1024.000000"
 preserveAspectRatio="xMidYMid meet">
<metadata>
Created by potrace 1.10, written by Peter Selinger 2001-2011
</metadata>
<g transform="translate(0.000000,1024.000000) scale(0.100000,-0.100000)"
fill="#000000" stroke="none">
<path d="M6565 9637 c-177 -61 -242 -98 -337 -189 -38 -38 -76 -68 -84 -68
-29 0 -82 -64 -89 -106 -3 -21 -12 -59 -20 -84 -7 -25 -25 -137 -39 -250 -15
-113 -36 -236 -48 -274 -18 -60 -20 -82 -14 -180 4 -61 19 -174 35 -251 15
-77 24 -141 19 -143 -4 -2 -8 -10 -8 -18 0 -10 -7 -13 -22 -10 -13 3 -44 8
-69 11 -45 6 -47 7 -55 48 -5 23 -9 233 -9 467 -2 438 -9 544 -50 706 -46 180
-158 300 -324 346 -90 25 -106 23 -190 -17 -97 -46 -196 -144 -238 -235 -68
-144 -84 -308 -54 -555 11 -93 22 -208 25 -255 5 -90 4 -87 -20 85 -22 159
-62 331 -93 400 -58 126 -179 221 -314 246 -69 12 -111 -1 -189 -57 -71 -53
-112 -117 -173 -272 -87 -224 -95 -368 -35 -657 42 -205 60 -350 67 -524 6
-144 5 -154 -11 -148 -10 4 -28 7 -40 7 -23 0 -23 1 -29 193 -11 338 -65 614
-168 858 -33 79 -81 172 -105 207 -80 111 -200 187 -340 217 -105 22 -170 -3
-226 -86 -41 -61 -85 -209 -98 -330 -11 -95 -10 -122 15 -313 14 -114 24 -210
22 -212 -2 -2 -9 30 -15 72 -28 202 -165 347 -364 384 -119 23 -254 -72 -301
-211 -60 -176 -90 -378 -90 -594 0 -271 33 -464 110 -644 l36 -84 -12 -199
c-7 -109 -17 -213 -23 -230 -15 -42 -4 -538 17 -768 9 -96 33 -385 55 -641
l39 -467 44 -68 c24 -38 47 -87 51 -109 4 -22 30 -117 57 -212 27 -94 49 -190
49 -212 0 -47 252 -1138 304 -1318 89 -303 213 -594 372 -869 31 -54 64 -121
74 -149 50 -144 169 -423 227 -534 93 -177 145 -255 227 -340 130 -134 208
-180 521 -303 l200 -78 248 -16 247 -15 113 30 c111 30 290 97 377 141 25 13
63 28 86 34 33 8 79 43 198 149 127 113 167 156 217 230 74 110 146 252 187
367 17 47 42 110 56 140 54 117 71 263 83 715 10 409 -38 657 -216 1118 -55
141 -107 347 -127 500 -20 157 -15 443 10 532 22 78 77 194 126 266 21 31 52
83 69 115 24 48 53 79 155 167 402 345 647 780 722 1278 21 139 24 424 5 559
-7 52 -26 155 -42 228 -33 149 -37 245 -14 332 8 32 55 137 103 232 94 185
148 329 186 499 13 59 28 115 34 125 36 68 43 362 12 515 -59 291 -215 551
-414 690 -123 87 -298 140 -459 138 -72 0 -101 -7 -232 -52z m501 -238 c163
-113 220 -195 323 -467 l81 -212 0 -129 c0 -105 -3 -136 -19 -172 -11 -24 -36
-111 -57 -193 -30 -119 -45 -161 -74 -205 -94 -142 -176 -348 -206 -521 -24
-136 -15 -321 21 -455 34 -123 48 -279 41 -450 -5 -127 -7 -140 -92 -440 l-88
-310 -85 -130 c-82 -125 -99 -144 -386 -423 l-300 -291 -39 -91 c-21 -50 -40
-100 -42 -113 -1 -12 -14 -65 -28 -117 -72 -267 -80 -531 -26 -803 11 -56 74
-262 139 -457 92 -275 125 -388 146 -500 78 -423 83 -621 24 -944 -23 -130
-50 -210 -124 -375 -38 -85 -55 -135 -55 -164 0 -87 -102 -243 -200 -306 -33
-22 -83 -45 -112 -51 -29 -7 -83 -33 -121 -58 -185 -119 -425 -198 -642 -209
-94 -5 -108 -3 -248 36 -168 47 -245 74 -337 121 -157 79 -280 179 -368 298
-60 81 -92 144 -167 327 -104 254 -225 516 -365 792 -76 150 -141 287 -145
305 -4 18 -41 116 -81 218 -57 141 -74 196 -74 233 0 27 -34 223 -74 436 -41
212 -82 429 -91 481 -40 236 -133 541 -226 738 -34 73 -47 111 -43 130 5 24
-51 605 -91 957 -22 186 -30 653 -16 857 16 226 23 267 51 288 15 11 24 31 27
61 4 40 2 47 -31 78 -20 19 -36 45 -36 57 0 12 -9 33 -20 47 -16 20 -29 77
-56 244 l-35 218 21 300 c12 165 22 300 23 301 1 1 27 17 57 38 30 20 60 36
67 36 7 0 29 -32 49 -72 20 -39 46 -87 59 -107 13 -20 31 -65 40 -101 9 -35
23 -76 30 -90 30 -58 65 -184 81 -291 13 -91 15 -156 11 -321 -5 -198 -4 -208
15 -233 37 -48 59 -49 237 -19 21 3 53 23 85 53 28 26 63 54 77 63 15 10 29
30 32 48 6 28 -39 370 -79 605 -33 194 -54 390 -66 617 l-12 237 28 55 c24 47
33 56 55 56 36 0 147 -118 206 -217 66 -114 130 -319 160 -521 36 -232 28
-588 -13 -633 -11 -11 -24 -38 -31 -60 -10 -35 -10 -44 4 -66 20 -29 72 -53
117 -53 34 0 236 70 275 95 14 9 44 13 86 12 119 -4 133 32 117 289 -14 222
-33 391 -67 574 -64 351 -7 651 136 724 66 34 66 34 105 -59 19 -47 48 -104
64 -128 51 -73 76 -275 92 -722 12 -342 15 -374 40 -432 25 -58 69 -83 143
-83 48 0 66 5 101 29 23 16 48 36 55 45 8 9 22 16 33 16 36 0 76 29 87 62 17
51 -32 902 -59 1028 -42 199 -36 293 26 419 46 93 140 191 183 191 55 0 163
-154 190 -270 6 -26 11 -184 11 -375 0 -336 7 -468 36 -700 18 -151 34 -181
124 -227 67 -35 119 -36 252 -3 56 14 121 25 144 25 48 0 84 25 84 60 0 10 5
30 11 44 10 20 7 54 -10 163 -35 222 -40 403 -19 645 19 222 28 257 91 370 45
81 142 196 187 222 27 16 79 25 245 42 285 29 262 30 331 -17z m-2059 -1031
c-2 -18 -4 -6 -4 27 0 33 2 48 4 33 2 -15 2 -42 0 -60z m13 -314 c0 -107 -3
-163 -10 -159 -15 9 -8 325 6 325 2 0 4 -75 4 -166z"/>
<path d="M4771 6791 c-34 -47 -54 -208 -49 -385 5 -162 21 -247 95 -511 33
-116 43 -139 97 -214 32 -46 84 -129 113 -185 70 -131 93 -159 146 -185 100
-49 175 -12 163 79 -10 70 -57 159 -128 237 -71 79 -143 213 -197 365 -61 176
-76 318 -57 555 9 110 9 113 -18 167 -49 99 -124 134 -165 77z"/>
</g>
</svg>
