<?xml version="1.0" standalone="no"?>
<!DOCTYPE svg PUBLIC "-//W3C//DTD SVG 20010904//EN"
 "http://www.w3.org/TR/2001/REC-SVG-20010904/DTD/svg10.dtd">
<svg version="1.0" xmlns="http://www.w3.org/2000/svg"
 width="1024.000000pt" height="1024.000000pt" viewBox="0 0 1024.000000 1024.000000"
 preserveAspectRatio="xMidYMid meet">
<metadata>
Created by potrace 1.10, written by Peter Selinger 2001-2011
</metadata>
<g transform="translate(0.000000,1024.000000) scale(0.100000,-0.100000)"
fill="#000000" stroke="none">
<path d="M8653 8860 c-11 -5 -80 -75 -151 -157 -112 -127 -142 -155 -210 -196
-80 -47 -106 -74 -117 -119 -4 -17 -36 -45 -93 -85 -836 -575 -1333 -915
-1335 -912 -2 2 9 182 23 399 14 217 24 398 22 403 -2 4 -49 -17 -105 -45
l-102 -53 -27 -290 c-14 -159 -32 -351 -38 -426 l-13 -136 -962 -542 c-974
-548 -1118 -623 -1533 -800 -352 -150 -457 -189 -1271 -470 -423 -147 -514
-174 -634 -196 -78 -14 -150 -25 -162 -25 -18 0 -23 13 -44 113 -12 61 -32
132 -43 157 -14 30 -23 81 -28 155 -9 127 -22 184 -55 241 -31 54 -112 127
-131 120 -9 -3 -24 -6 -34 -6 -30 0 -41 -56 -41 -203 0 -185 40 -396 102 -537
11 -24 36 -107 55 -184 19 -77 43 -151 53 -165 9 -14 124 -379 255 -811 287
-946 325 -1052 485 -1385 129 -267 320 -586 448 -748 114 -144 301 -311 463
-412 68 -43 248 -130 315 -153 48 -16 94 -22 223 -25 151 -5 169 -3 230 18
321 109 607 319 812 596 77 104 219 342 340 569 188 354 252 504 527 1230 222
589 226 601 404 1210 l179 615 120 725 c66 399 123 738 126 754 5 24 48 55
283 210 1074 709 1140 754 1266 866 68 61 125 114 127 118 2 4 28 20 58 36
115 61 240 176 316 290 34 52 39 67 39 117 0 50 -4 62 -30 89 -25 27 -76 62
-87 59 -2 0 -13 -4 -25 -9z m-2283 -2412 c-114 -649 -188 -977 -330 -1470 -49
-173 -640 -1825 -722 -2022 -179 -426 -445 -818 -763 -1125 -130 -124 -224
-187 -340 -227 -70 -24 -95 -28 -205 -28 -189 0 -301 35 -465 148 -211 146
-477 450 -666 761 -75 124 -183 341 -239 480 -17 44 -172 517 -344 1050 l-313
970 36 7 c20 4 66 7 104 7 62 1 129 23 850 277 824 291 1101 398 1464 563 378
171 406 187 1793 989 124 71 226 129 227 128 2 -2 -37 -230 -87 -508z"/>
<path d="M5265 4190 c3 -14 8 -37 11 -52 4 -16 11 -28 16 -28 10 0 3 28 -18
75 -12 25 -13 26 -9 5z"/>
</g>
</svg>
