<?xml version="1.0" standalone="no"?>
<!DOCTYPE svg PUBLIC "-//W3C//DTD SVG 20010904//EN"
 "http://www.w3.org/TR/2001/REC-SVG-20010904/DTD/svg10.dtd">
<svg version="1.0" xmlns="http://www.w3.org/2000/svg"
 width="1024.000000pt" height="1024.000000pt" viewBox="0 0 1024.000000 1024.000000"
 preserveAspectRatio="xMidYMid meet">
<metadata>
Created by potrace 1.10, written by Peter Selinger 2001-2011
</metadata>
<g transform="translate(0.000000,1024.000000) scale(0.100000,-0.100000)"
fill="#000000" stroke="none">
<path d="M4594 8687 c-71 -28 -131 -52 -134 -54 -8 -7 83 -85 136 -118 66 -40
107 -78 158 -144 84 -108 124 -215 159 -421 l21 -125 3 -2773 3 -2772 -29 0
c-36 0 -1360 -98 -1418 -105 l-43 -5 1 1373 c1 1641 4 1776 44 1938 18 74 26
125 21 143 -12 49 -84 114 -170 156 -74 35 -508 170 -548 170 -53 0 -218 -84
-218 -111 0 -19 31 -48 90 -82 123 -70 220 -207 261 -365 53 -206 52 -195 56
-1779 l4 -1473 -33 0 c-18 0 -220 -12 -448 -26 -415 -27 -415 -27 -640 -10
-172 13 -270 26 -415 56 -104 21 -192 37 -194 35 -2 -2 12 -68 31 -147 l33
-143 185 -126 c170 -116 200 -132 362 -199 l176 -72 99 27 c54 15 148 44 208
65 223 76 508 140 825 184 250 35 -36 17 3520 232 l435 27 620 -57 c341 -31
711 -68 822 -82 220 -27 263 -25 304 19 28 30 22 96 -16 174 -88 178 -545 492
-745 510 -42 4 -81 -2 -166 -25 -188 -53 -713 -113 -1629 -187 -440 -35 -819
-67 -842 -69 l-43 -6 0 1525 0 1525 23 5 c37 8 2083 235 2205 245 85 7 126 15
166 33 54 25 86 64 86 104 0 28 -156 225 -198 250 -79 49 -219 81 -267 63 -17
-7 -136 -43 -265 -81 l-235 -70 -745 -94 c-410 -52 -751 -95 -757 -95 -16 0
-18 1452 -3 2026 9 358 11 376 39 494 34 145 31 169 -33 228 -79 73 -121 89
-491 191 l-242 67 -129 -49z"/>
</g>
</svg>
