<?xml version="1.0" standalone="no"?>
<!DOCTYPE svg PUBLIC "-//W3C//DTD SVG 20010904//EN"
 "http://www.w3.org/TR/2001/REC-SVG-20010904/DTD/svg10.dtd">
<svg version="1.0" xmlns="http://www.w3.org/2000/svg"
 width="1024.000000pt" height="1024.000000pt" viewBox="0 0 1024.000000 1024.000000"
 preserveAspectRatio="xMidYMid meet">
<metadata>
Created by potrace 1.10, written by Peter Selinger 2001-2011
</metadata>
<g transform="translate(0.000000,1024.000000) scale(0.100000,-0.100000)"
fill="#000000" stroke="none">
<path d="M2624 9043 c-28 -30 -34 -45 -34 -80 0 -41 5 -49 103 -153 l103 -110
131 -297 c73 -164 141 -322 152 -350 35 -91 71 -251 82 -361 6 -59 28 -203 50
-320 l40 -214 40 -1206 c21 -664 36 -1238 33 -1277 -3 -38 -14 -116 -25 -171
-36 -196 -59 -406 -69 -641 -6 -131 -12 -249 -13 -262 -2 -27 -13 -31 -267
-117 -182 -62 -249 -95 -328 -161 -168 -143 -341 -543 -408 -948 -26 -154 -26
-507 0 -650 59 -328 223 -680 387 -830 103 -95 103 -95 204 -83 89 9 125 25
125 54 0 8 -39 60 -86 116 -162 192 -299 423 -359 603 -129 385 -86 903 110
1310 75 157 110 189 334 310 168 90 299 150 308 141 2 -2 11 -50 18 -105 30
-209 128 -566 174 -631 10 -14 39 -66 65 -116 65 -127 187 -311 281 -424 229
-275 493 -484 855 -676 264 -140 258 -138 325 -142 62 -4 63 -4 90 32 23 30
27 43 22 78 -12 88 -96 163 -217 194 -124 31 -376 181 -575 341 -236 191 -515
525 -602 721 -76 171 -157 472 -182 677 -7 50 -14 102 -16 116 -4 25 -2 26
113 53 223 50 310 60 567 60 251 1 336 -7 545 -50 145 -29 142 -28 590 -169
206 -65 382 -124 390 -130 8 -7 137 -75 285 -151 262 -133 273 -140 382 -236
152 -135 345 -330 459 -463 149 -176 484 -618 484 -640 0 -11 11 -36 24 -56
30 -44 112 -249 138 -344 10 -38 23 -115 29 -170 5 -55 19 -140 29 -188 26
-116 25 -134 -10 -186 -90 -133 44 -264 172 -168 63 47 88 104 88 197 0 107
-26 340 -50 458 -39 195 -114 383 -212 533 -236 361 -393 592 -433 639 -112
131 -285 307 -408 417 -320 286 -469 380 -897 566 -613 265 -966 356 -1465
377 l-200 8 -315 -53 c-173 -29 -317 -52 -319 -49 -4 4 69 777 74 782 2 2 92
-12 201 -32 110 -19 282 -42 384 -51 792 -70 1729 -292 2560 -605 358 -135
678 -318 737 -421 30 -54 50 -68 91 -69 36 0 104 31 140 63 43 39 31 70 -62
162 -141 138 -287 238 -471 325 -55 26 -336 131 -625 234 l-525 185 -595 132
-595 131 -613 78 c-337 43 -615 80 -617 82 -1 1 -5 99 -7 216 l-4 214 105 -6
c184 -12 262 -9 421 12 610 82 1312 36 1895 -124 160 -44 328 -104 516 -182
79 -33 210 -85 291 -116 134 -51 172 -71 410 -222 144 -91 271 -170 283 -174
11 -4 126 -96 255 -204 129 -107 250 -203 268 -212 20 -9 44 -13 58 -10 49 13
88 120 62 170 -7 13 -180 154 -385 313 -410 318 -513 384 -840 540 -382 181
-732 298 -1163 388 -112 24 -192 30 -770 59 l-645 33 -378 -34 c-208 -19 -380
-33 -382 -31 -1 1 -8 86 -15 188 -7 119 -11 422 -10 850 l2 665 -54 266 -55
266 151 -4 c87 -3 334 4 581 16 1196 59 1668 81 1750 81 104 0 128 10 167 65
38 53 34 118 -7 151 -34 27 -60 30 -403 46 l-272 12 -927 -68 c-922 -68 -927
-69 -992 -96 -36 -16 -67 -27 -69 -25 -2 2 -14 60 -27 129 -51 278 -166 594
-294 814 -22 39 -41 75 -41 81 0 33 -72 153 -126 211 -66 69 -173 140 -212
140 -15 0 -37 -14 -58 -37z"/>
<path d="M4530 8904 c-47 -7 -146 -21 -220 -29 -143 -17 -192 -33 -222 -75
-28 -39 -34 -91 -11 -117 18 -21 35 -22 768 -56 l750 -34 115 -47 c172 -70
297 -139 473 -260 170 -118 242 -186 286 -275 87 -172 81 -305 -22 -438 -103
-134 -255 -257 -412 -335 -118 -58 -167 -74 -585 -183 -223 -58 -448 -120
-500 -136 -178 -58 -313 -140 -442 -268 -69 -70 -95 -104 -127 -169 -46 -97
-66 -197 -58 -295 11 -125 68 -198 181 -232 52 -16 1993 -229 2076 -228 58 0
93 23 120 77 42 88 19 135 -84 165 -165 49 -201 52 -661 61 -242 4 -489 13
-550 19 -283 29 -492 60 -718 104 -168 34 -171 40 -89 207 36 74 62 110 117
165 124 124 222 169 492 226 304 64 548 137 813 244 314 126 584 338 673 528
47 98 59 170 55 307 -6 143 -29 222 -97 320 -86 126 -522 451 -766 573 -128
63 -357 130 -579 169 -157 27 -640 35 -776 12z"/>
</g>
</svg>
