<?xml version="1.0" standalone="no"?>
<!DOCTYPE svg PUBLIC "-//W3C//DTD SVG 20010904//EN"
 "http://www.w3.org/TR/2001/REC-SVG-20010904/DTD/svg10.dtd">
<svg version="1.0" xmlns="http://www.w3.org/2000/svg"
 width="1024.000000pt" height="1024.000000pt" viewBox="0 0 1024.000000 1024.000000"
 preserveAspectRatio="xMidYMid meet">
<metadata>
Created by potrace 1.10, written by Peter Selinger 2001-2011
</metadata>
<g transform="translate(0.000000,1024.000000) scale(0.100000,-0.100000)"
fill="#000000" stroke="none">
<path d="M4476 9218 c-17 -14 -16 -18 24 -98 40 -80 41 -84 30 -129 -16 -64
-61 -146 -125 -226 -125 -157 -426 -445 -818 -784 l-108 -93 -33 25 c-48 37
-212 122 -273 141 l-51 17 -81 -41 c-45 -22 -81 -45 -81 -50 0 -6 31 -44 69
-85 42 -44 84 -103 105 -146 l36 -72 0 -1083 c0 -1070 0 -1091 -30 -1666 -17
-321 -39 -681 -50 -801 -11 -133 -16 -227 -10 -240 10 -26 103 -117 179 -176
122 -94 192 -111 277 -65 27 15 155 56 284 91 l235 63 1200 171 1200 170 788
39 c538 27 801 37 829 31 77 -18 76 -13 35 -258 -39 -235 -99 -453 -232 -843
-110 -321 -166 -455 -388 -919 l-212 -444 -59 -39 c-54 -34 -65 -38 -125 -38
-81 0 -149 16 -316 74 -71 25 -190 66 -264 91 l-134 46 -21 -21 -21 -21 61
-57 c441 -412 494 -475 544 -635 35 -111 87 -167 156 -167 69 0 188 88 285
210 59 73 535 931 605 1088 162 364 342 853 489 1322 42 135 94 292 117 350
113 289 119 311 107 349 -8 23 -48 72 -113 137 -106 105 -208 171 -332 215
-56 20 -56 20 -157 -1 -56 -11 -255 -40 -442 -65 -486 -65 -3934 -494 -4032
-502 l-82 -6 -7 39 c-7 39 2 684 11 692 6 7 3954 531 4080 542 61 5 131 16
157 25 52 18 98 64 98 99 0 12 -36 71 -80 131 -73 100 -86 113 -146 143 -36
19 -98 40 -137 48 l-72 15 -155 -49 c-85 -27 -312 -90 -505 -140 l-350 -91
-1438 -191 c-791 -106 -1441 -189 -1444 -187 -9 9 12 606 22 615 6 5 525 84
1154 175 l1144 167 64 -70 c99 -107 184 -127 275 -64 55 39 131 149 168 247
68 175 150 534 230 1004 56 331 89 450 148 544 16 24 37 65 47 91 l18 48 -69
77 c-141 157 -151 165 -301 240 -171 86 -230 101 -306 79 -28 -8 -104 -27
-167 -41 -130 -29 -2379 -417 -2393 -412 -5 1 211 118 479 259 641 337 944
506 999 557 40 38 43 43 35 73 -34 116 -214 316 -394 437 -63 42 -75 46 -140
49 -49 2 -77 -1 -90 -10z m1619 -1302 c47 -20 74 -43 86 -74 8 -21 -34 -459
-46 -470 -5 -5 -2491 -381 -2522 -382 -23 0 -23 1 -23 147 0 155 16 363 30
399 6 15 21 24 47 28 21 4 128 27 239 51 801 177 1392 278 1874 319 99 8 275
-2 315 -18z m-5 -874 c0 -31 -48 -258 -87 -415 -41 -158 -51 -188 -68 -192
-11 -3 -535 -82 -1165 -175 -630 -94 -1158 -173 -1174 -176 l-28 -6 6 263 c4
145 9 281 12 301 7 43 -27 34 375 107 611 112 1204 200 1849 275 228 26 280
30 280 18z"/>
<path d="M5723 3679 l-21 -22 100 -116 c189 -218 342 -432 453 -631 113 -204
138 -244 190 -297 44 -45 57 -53 88 -53 114 0 187 106 187 271 0 71 -32 196
-67 262 -37 71 -188 219 -303 297 -123 84 -384 231 -474 269 -105 43 -127 46
-153 20z"/>
<path d="M4478 3414 c-15 -15 -8 -27 88 -148 185 -231 340 -472 472 -731 34
-67 78 -140 97 -163 33 -38 41 -42 81 -42 122 0 187 104 188 300 0 175 -51
292 -176 400 -193 167 -601 399 -703 400 -17 0 -38 -7 -47 -16z"/>
<path d="M3195 3146 c-17 -26 -17 -27 34 -99 189 -267 375 -598 494 -877 103
-242 162 -297 256 -239 83 51 106 116 106 299 -1 120 -4 144 -28 216 -51 154
-192 327 -367 452 -287 204 -368 253 -442 267 -32 6 -38 4 -53 -19z"/>
<path d="M2033 3098 l-21 -23 24 -140 24 -140 -25 -190 c-25 -187 -26 -193
-115 -443 -103 -292 -120 -362 -120 -506 0 -156 40 -323 99 -420 42 -67 126
-86 179 -41 163 137 306 742 273 1154 -24 298 -119 614 -218 731 -40 46 -69
51 -100 18z"/>
</g>
</svg>
