<?xml version="1.0" standalone="no"?>
<!DOCTYPE svg PUBLIC "-//W3C//DTD SVG 20010904//EN"
 "http://www.w3.org/TR/2001/REC-SVG-20010904/DTD/svg10.dtd">
<svg version="1.0" xmlns="http://www.w3.org/2000/svg"
 width="1024.000000pt" height="1024.000000pt" viewBox="0 0 1024.000000 1024.000000"
 preserveAspectRatio="xMidYMid meet">
<metadata>
Created by potrace 1.10, written by Peter Selinger 2001-2011
</metadata>
<g transform="translate(0.000000,1024.000000) scale(0.100000,-0.100000)"
fill="#000000" stroke="none">
<path d="M6966 8465 c4 -8 8 -15 10 -15 2 0 4 7 4 15 0 8 -4 15 -10 15 -5 0
-7 -7 -4 -15z"/>
<path d="M3950 8326 c-95 -21 -224 -70 -304 -118 -164 -97 -479 -396 -645
-613 -51 -66 -104 -125 -117 -131 -14 -6 -45 -34 -70 -62 -91 -104 -258 -200
-384 -220 -36 -6 -159 -16 -275 -23 -199 -11 -212 -13 -243 -36 -29 -21 -32
-29 -27 -55 4 -16 1 -43 -6 -60 -12 -29 -11 -32 12 -47 13 -8 42 -34 64 -57
22 -23 171 -130 330 -239 160 -108 294 -200 299 -205 5 -5 -1 -24 -13 -43 -12
-20 -20 -39 -19 -44 2 -4 -7 -24 -18 -43 -12 -19 -88 -152 -169 -295 -81 -143
-160 -278 -175 -300 -83 -121 -113 -222 -151 -506 -30 -225 -31 -243 -25 -479
3 -135 10 -272 16 -305 5 -33 14 -109 20 -170 16 -158 44 -265 99 -382 27 -56
52 -117 56 -135 12 -59 149 -267 288 -438 136 -168 245 -276 446 -443 236
-196 381 -289 603 -387 l146 -64 -43 -86 c-35 -68 -61 -103 -132 -172 l-88
-87 -75 -11 c-111 -15 -211 -45 -298 -89 -84 -42 -275 -182 -299 -218 -26 -39
5 -143 42 -143 9 0 50 28 93 62 63 50 229 145 238 135 1 -1 -13 -67 -32 -147
-49 -206 -38 -250 62 -250 l53 0 19 53 c11 28 25 70 33 92 11 35 104 165 117
165 3 0 2 -19 -1 -43 -12 -90 43 -252 101 -298 30 -23 94 -25 112 -4 8 9 10
29 6 57 -19 126 -18 213 3 273 12 33 24 85 28 114 l6 55 34 -39 c23 -27 33
-48 33 -71 0 -48 18 -81 55 -99 43 -20 88 -19 114 3 26 22 39 127 22 188 -14
54 -62 118 -112 152 -35 24 -39 31 -35 59 2 17 31 79 63 136 43 78 66 110 90
123 32 17 36 16 141 -9 240 -58 486 -87 748 -87 l171 0 6 -74 c7 -75 34 -162
69 -223 l20 -33 -71 0 c-67 0 -81 -5 -298 -99 -223 -97 -229 -100 -279 -158
-44 -50 -50 -61 -43 -82 9 -22 12 -23 75 -16 95 10 118 19 215 80 106 68 161
92 219 100 25 3 39 3 33 -1 -10 -4 -110 -126 -205 -251 -5 -7 -16 -35 -23 -63
-13 -50 -13 -53 13 -96 15 -25 37 -47 49 -50 39 -10 89 15 145 74 72 76 104
126 133 208 27 77 51 100 39 38 -3 -22 -15 -57 -24 -79 -112 -251 -118 -275
-77 -313 60 -56 99 -18 171 165 24 60 50 122 59 138 l15 30 8 -29 c4 -16 4
-67 1 -115 -8 -128 16 -171 98 -171 19 0 47 7 60 16 l25 16 0 183 c0 223 -14
284 -84 362 l-43 48 -7 105 c-5 70 -17 140 -37 208 -17 57 -29 106 -27 108 2
1 411 44 908 94 l905 91 254 59 c140 33 316 69 390 80 203 30 404 85 549 151
34 15 91 35 125 44 65 17 125 51 167 95 28 30 129 115 175 147 17 12 162 78
322 147 161 69 309 134 330 145 113 57 144 166 73 256 -17 21 -30 41 -30 45 0
4 37 27 82 51 88 47 121 85 115 131 -3 26 0 29 73 53 71 24 80 30 114 79 21
31 36 64 36 82 0 46 -33 90 -82 108 -39 14 -339 47 -694 76 -169 13 -290 54
-417 140 -89 60 -106 89 -187 318 -69 198 -169 391 -278 538 l-74 101 -172 96
c-437 244 -843 378 -1466 482 -263 44 -362 65 -455 97 -185 62 -384 174 -459
258 -46 51 -68 98 -95 205 -42 169 -52 247 -82 620 -11 147 -13 153 -75 319
-87 232 -177 363 -427 614 -194 196 -343 287 -537 328 -101 21 -255 26 -330
10z m319 -167 c111 -24 202 -77 367 -214 136 -114 171 -150 279 -285 67 -86
130 -171 139 -190 9 -19 23 -46 30 -60 24 -43 66 -185 66 -224 0 -21 4 -45 9
-55 5 -9 33 -192 61 -407 61 -456 63 -465 180 -588 91 -95 179 -161 295 -219
165 -82 330 -132 540 -162 438 -63 958 -198 1265 -330 285 -122 532 -304 612
-451 32 -58 228 -551 228 -572 0 -8 33 -51 74 -96 64 -70 90 -90 192 -146 65
-36 130 -69 144 -73 14 -4 202 -26 419 -47 216 -22 395 -41 397 -42 9 -10
-311 -80 -340 -75 -19 3 -45 0 -58 -7 -13 -7 -58 -16 -99 -19 -204 -17 -475
-106 -508 -168 -12 -22 -12 -29 0 -55 19 -38 54 -37 174 5 117 41 249 67 408
80 152 13 157 13 137 2 -8 -5 -62 -14 -120 -21 -187 -22 -304 -65 -446 -162
-75 -50 -143 -135 -128 -159 5 -8 2 -10 -8 -7 -8 3 -45 9 -82 13 -37 4 -72 13
-76 19 -77 97 -113 122 -154 106 -40 -15 -44 -55 -12 -112 16 -27 25 -52 22
-55 -3 -3 -63 -14 -132 -24 l-127 -17 -63 41 c-41 27 -64 49 -64 61 0 42 -26
101 -57 132 -30 30 -35 32 -63 22 -41 -14 -54 -41 -46 -101 7 -67 48 -148 93
-187 l35 -32 -140 4 c-123 3 -144 6 -169 24 -38 28 -73 99 -73 150 0 34 -5 47
-26 63 -34 27 -46 26 -83 -5 -41 -35 -48 -76 -22 -149 11 -32 19 -61 16 -63
-9 -10 -242 -35 -266 -29 -13 3 -66 37 -117 76 -63 47 -99 67 -112 64 -43 -11
-68 -94 -39 -129 9 -12 7 -14 -17 -14 -74 0 -303 47 -242 49 42 2 67 83 34
110 -7 6 -59 27 -115 46 -89 30 -109 41 -172 97 -57 51 -175 179 -236 255 -10
12 -16 12 -47 -1 -31 -13 -36 -19 -36 -50 0 -58 87 -174 223 -295 64 -58 117
-113 117 -121 0 -26 55 -105 91 -132 140 -104 434 -144 512 -70 16 15 27 18
37 12 40 -26 152 -50 232 -50 98 0 164 17 215 56 l36 27 46 -25 c86 -47 145
-61 242 -56 110 7 182 37 187 80 4 33 6 34 237 49 155 10 182 14 195 30 14 18
21 18 97 8 118 -17 215 0 263 45 19 18 89 56 154 85 114 52 124 54 255 66 75
7 137 12 138 11 0 -1 -9 -13 -20 -27 -16 -19 -88 -54 -257 -123 -309 -127
-361 -154 -448 -231 -90 -80 -164 -131 -267 -182 -113 -56 -171 -74 -505 -148
-162 -36 -344 -81 -405 -99 -60 -19 -202 -50 -315 -70 -182 -32 -338 -47
-1399 -132 l-1193 -97 -257 57 c-327 73 -484 124 -716 232 -225 104 -485 296
-664 490 -128 139 -442 572 -507 699 -58 112 -78 212 -120 585 -33 298 -36
341 -31 520 3 116 12 232 22 285 38 210 42 219 276 651 121 225 231 425 244
444 13 19 33 57 45 85 12 27 28 63 35 80 8 16 58 156 111 310 l96 280 2 110 3
110 99 150 c97 148 103 155 319 356 233 217 291 259 426 306 38 13 95 28 127
33 69 11 227 5 301 -11z m-1422 -991 c-8 -73 -29 -183 -37 -191 -4 -5 -90 2
-191 14 l-184 23 50 20 c28 11 118 55 200 97 83 42 154 77 159 78 4 0 6 -18 3
-41z m-79 -323 c5 -5 -98 -255 -105 -255 -2 0 -90 66 -196 148 -105 81 -197
152 -205 158 -8 6 92 -1 244 -18 141 -15 259 -30 262 -33z"/>
<path d="M3879 7475 c-63 -33 -114 -95 -138 -168 -44 -130 -21 -198 88 -254
77 -40 133 -43 181 -10 47 31 66 60 100 152 33 88 36 121 16 178 -17 48 -41
74 -88 98 -61 31 -107 32 -159 4z"/>
<path d="M4540 6153 c-9 -2 -24 -19 -34 -38 -13 -24 -26 -35 -41 -35 -48 0
-125 -114 -125 -184 0 -18 -2 -18 -26 5 l-25 24 -37 -22 -37 -21 1 -109 c0
-91 4 -115 22 -150 43 -82 125 -111 177 -63 34 32 31 58 -11 101 -24 25 -35
44 -32 59 3 20 7 17 37 -24 35 -49 88 -83 115 -73 8 3 21 16 29 29 31 49 29
62 -18 123 -34 45 -45 67 -45 94 0 60 14 65 33 12 32 -91 140 -160 203 -130
25 12 29 20 29 54 0 34 -5 42 -39 65 -30 21 -44 41 -62 90 -13 34 -24 84 -24
110 0 32 -5 52 -17 62 -21 18 -52 27 -73 21z"/>
<path d="M2619 5941 c-103 -66 -140 -129 -147 -247 -4 -80 -4 -82 22 -99 23
-15 32 -16 67 -6 45 13 64 46 50 83 -7 18 0 35 32 83 22 33 53 75 69 93 42 49
35 78 -28 110 -18 9 -29 6 -65 -17z"/>
<path d="M2766 5864 c-77 -61 -109 -128 -109 -227 0 -68 1 -71 34 -98 38 -32
74 -36 107 -13 25 18 28 43 8 82 -13 24 -12 34 6 87 11 33 33 74 49 90 35 37
37 65 7 92 -38 34 -43 33 -102 -13z"/>
<path d="M3742 5887 c-40 -18 -59 -65 -66 -165 -7 -109 4 -146 61 -204 64 -65
131 -71 168 -14 24 36 15 66 -24 87 -42 22 -45 27 -65 107 -15 56 -15 65 -1
85 40 57 -11 132 -73 104z"/>
<path d="M3945 5847 c-40 -40 -53 -95 -35 -146 72 -200 103 -251 157 -251 15
0 38 8 51 18 l23 18 -41 107 c-36 96 -39 113 -34 166 6 57 5 61 -24 90 -39 39
-56 39 -97 -2z"/>
<path d="M3225 5858 c-60 -33 -65 -45 -65 -153 0 -56 5 -117 11 -136 16 -46
66 -97 107 -109 86 -23 152 79 85 129 -16 12 -33 25 -39 30 -6 5 -14 32 -18
60 -6 44 -4 56 14 78 27 35 25 67 -6 92 -29 23 -59 26 -89 9z"/>
<path d="M3424 5822 c-18 -26 -35 -59 -38 -74 -12 -51 14 -129 72 -215 l55
-83 47 0 c36 0 52 5 68 23 31 33 28 48 -21 93 -31 27 -49 55 -62 93 -16 50
-16 56 -1 88 23 48 20 68 -15 97 -46 39 -69 34 -105 -22z"/>
<path d="M3014 5840 c-29 -12 -90 -73 -109 -110 -39 -75 -34 -191 10 -240 20
-22 65 -26 96 -9 18 9 19 17 13 95 l-7 84 47 50 c53 57 61 98 24 124 -25 18
-42 19 -74 6z"/>
<path d="M6805 5361 c-36 -22 -85 -77 -85 -96 0 -19 45 -52 79 -60 17 -4 44 0
65 9 34 14 38 14 93 -14 32 -16 70 -44 84 -61 22 -27 30 -30 56 -25 46 10 69
78 42 127 -11 21 -89 77 -162 117 -52 28 -129 30 -172 3z"/>
<path d="M4011 5159 c-42 -17 -111 -79 -157 -142 -74 -100 -101 -236 -73 -366
8 -41 17 -54 50 -77 34 -23 43 -25 64 -16 32 15 41 53 26 114 -31 138 11 250
129 341 76 60 86 89 41 129 -34 30 -43 32 -80 17z"/>
<path d="M6854 5150 c-49 -19 -81 -94 -51 -118 14 -11 165 -52 217 -59 28 -4
41 1 63 21 36 34 34 49 -12 95 -56 56 -158 85 -217 61z"/>
<path d="M6810 4979 c-95 -38 -72 -139 31 -139 62 0 82 -15 31 -24 -49 -7 -80
-32 -91 -73 -14 -49 10 -77 61 -70 30 4 51 -1 85 -19 37 -19 61 -24 119 -24
l74 0 0 34 c0 28 -8 40 -46 71 l-45 37 19 22 c42 46 37 82 -20 137 -54 51
-155 73 -218 48z"/>
<path d="M4075 4794 c-41 -30 -70 -62 -93 -102 -76 -135 -105 -309 -62 -380
27 -43 77 -74 112 -66 25 5 27 3 34 -43 12 -86 53 -136 120 -149 84 -16 132
94 55 126 -35 14 -42 45 -30 145 4 38 8 79 9 91 0 11 25 45 55 76 69 70 72
111 10 152 -23 15 -27 15 -63 -3 -80 -41 -139 -130 -158 -236 -3 -22 -9 -35
-11 -28 -2 7 5 59 16 115 21 99 42 141 88 170 20 14 53 74 53 98 0 20 -53 81
-69 79 -3 0 -33 -20 -66 -45z"/>
<path d="M5382 4682 c-18 -6 -52 -76 -52 -107 0 -15 5 -35 10 -46 10 -18 8
-18 -37 -13 -34 5 -63 18 -99 45 -56 43 -88 49 -104 20 -15 -30 -12 -60 11
-109 27 -54 80 -91 146 -99 43 -5 55 -2 82 18 24 18 31 30 31 57 0 34 1 34 19
18 15 -14 36 -16 117 -14 126 4 130 15 39 88 -36 30 -65 61 -65 70 0 41 -60
85 -98 72z"/>
<path d="M6838 4573 c-25 -16 -48 -58 -48 -89 0 -25 31 -44 73 -44 32 0 48 -6
73 -31 42 -40 101 -50 128 -21 14 17 17 29 11 64 -17 99 -157 170 -237 121z"/>
<path d="M4868 4533 c-9 -2 -22 -19 -28 -37 -9 -28 -7 -39 16 -80 l26 -47 -42
17 c-23 9 -67 41 -98 70 -31 30 -61 54 -68 54 -7 0 -24 -14 -39 -32 -22 -26
-26 -39 -21 -67 3 -20 14 -42 25 -51 10 -8 44 -37 74 -63 l55 -48 82 7 c72 6
83 10 92 30 8 17 17 22 37 19 93 -14 113 -14 140 -1 30 16 41 34 41 67 0 13
-18 27 -62 47 -35 16 -96 50 -136 75 -40 26 -73 46 -75 46 -1 -1 -10 -3 -19
-6z"/>
<path d="M4383 4423 c-17 -9 -36 -28 -42 -42 -14 -37 -43 -384 -35 -418 13
-55 35 -85 77 -104 61 -27 93 -24 128 11 41 40 37 79 -10 102 -19 9 -38 23
-42 30 -5 7 -9 75 -9 150 0 130 1 139 25 174 32 47 32 67 -1 93 -31 25 -48 25
-91 4z"/>
<path d="M4654 4275 c-38 -17 -81 -67 -91 -103 -7 -29 13 -242 27 -293 5 -18
15 -36 22 -41 22 -13 65 -9 88 10 21 17 21 20 12 147 l-9 130 34 35 c41 44 42
71 2 104 -34 29 -41 30 -85 11z"/>
<path d="M4842 4150 c-51 -31 -95 -133 -95 -219 1 -163 92 -265 221 -247 25 3
50 11 57 16 9 8 17 -5 29 -50 21 -76 74 -135 129 -145 32 -6 44 -3 87 26 57
39 70 68 46 104 -14 21 -24 25 -66 25 -39 0 -52 4 -60 19 -22 43 1 300 31 343
10 15 19 38 19 52 0 27 -41 66 -70 66 -20 0 -81 -64 -104 -109 -21 -39 -46
-146 -46 -194 0 -41 3 -40 -59 -22 -46 14 -60 43 -61 124 0 68 2 76 30 108 37
42 38 57 1 94 -35 34 -45 35 -89 9z"/>
<path d="M5402 3907 c-37 -26 -48 -62 -45 -154 1 -72 32 -147 84 -207 38 -43
79 -54 196 -55 54 -1 67 -5 95 -30 32 -28 37 -29 180 -36 l148 -7 10 27 c22
59 -41 105 -118 85 -43 -11 -45 -10 -98 30 -51 39 -54 43 -54 86 0 87 -49 152
-103 139 -31 -8 -35 -18 -43 -106 l-7 -69 -38 0 c-36 0 -41 4 -75 57 -35 55
-36 60 -25 101 17 64 14 96 -11 119 -45 40 -62 44 -96 20z"/>
</g>
</svg>
