<?xml version="1.0" standalone="no"?>
<!DOCTYPE svg PUBLIC "-//W3C//DTD SVG 20010904//EN"
 "http://www.w3.org/TR/2001/REC-SVG-20010904/DTD/svg10.dtd">
<svg version="1.0" xmlns="http://www.w3.org/2000/svg"
 width="1024.000000pt" height="1024.000000pt" viewBox="0 0 1024.000000 1024.000000"
 preserveAspectRatio="xMidYMid meet">
<metadata>
Created by potrace 1.10, written by Peter Selinger 2001-2011
</metadata>
<g transform="translate(0.000000,1024.000000) scale(0.100000,-0.100000)"
fill="#000000" stroke="none">
<path d="M7385 9129 c-44 -14 -2190 -68 -2780 -70 -280 -1 -685 -4 -898 -8
l-389 -6 -24 -28 c-17 -20 -24 -40 -24 -71 0 -57 24 -86 80 -97 25 -4 335 -8
690 -9 l646 0 -13 -112 c-13 -118 -191 -1087 -203 -1101 -3 -4 -69 -18 -147
-32 -260 -45 -547 -128 -790 -228 -167 -69 -194 -84 -467 -267 -206 -137 -265
-182 -331 -251 -294 -307 -438 -611 -510 -1074 -69 -449 -58 -854 35 -1355
104 -557 170 -785 520 -1810 181 -530 244 -690 390 -985 127 -257 230 -423
351 -566 151 -177 370 -415 402 -437 74 -49 141 -54 218 -14 89 46 969 720
1101 844 191 179 447 468 620 700 146 195 855 1240 957 1410 232 385 355 643
620 1307 247 616 290 748 335 1036 93 586 6 910 -339 1261 -202 205 -420 335
-704 419 -104 31 -168 40 -616 90 -275 30 -504 55 -509 55 -18 0 5 409 40 695
15 133 61 385 73 402 3 5 411 26 916 47 655 28 919 42 942 52 45 18 61 54 44
102 -18 49 -38 71 -86 93 -43 20 -102 23 -150 8z m-1912 -401 c-29 -141 -59
-346 -73 -503 -6 -66 -20 -154 -30 -196 -14 -55 -20 -111 -20 -193 0 -86 -3
-116 -12 -116 -7 0 -149 -14 -316 -31 -166 -18 -305 -29 -309 -26 -3 4 10 89
31 190 21 100 69 333 107 518 38 185 69 350 69 368 0 17 -7 47 -14 66 l-15 35
303 0 303 0 -24 -112z m535 -1233 c189 -20 369 -56 557 -112 137 -41 170 -56
395 -178 l245 -134 141 -154 c78 -84 146 -162 151 -172 6 -11 26 -81 44 -155
32 -127 34 -145 34 -310 0 -190 -2 -203 -86 -545 -73 -293 -174 -607 -330
-1022 l-8 -22 -83 33 c-46 18 -126 43 -178 56 -205 50 -414 146 -453 208 -13
20 -120 163 -238 317 -230 302 -303 423 -384 640 -129 344 -225 944 -225 1403
l0 162 135 0 c75 0 202 -7 283 -15z m-658 -12 c0 -70 55 -828 66 -908 61 -439
255 -933 520 -1322 104 -154 220 -299 272 -340 22 -18 53 -56 70 -86 32 -57
81 -101 147 -134 22 -11 172 -66 333 -123 160 -57 292 -106 292 -110 0 -15
-204 -417 -287 -566 -150 -268 -290 -484 -550 -850 -137 -192 -349 -490 -472
-662 l-222 -313 -76 71 c-100 93 -194 154 -388 250 -213 106 -270 121 -465
127 -123 4 -173 2 -240 -12 -327 -66 -641 -239 -965 -531 l-91 -81 -222 566
c-268 682 -333 871 -431 1251 -47 186 -107 463 -117 543 -6 54 -5 59 15 64 12
3 106 67 210 142 l188 136 383 450 c211 248 411 482 445 521 159 183 280 364
394 595 43 85 101 186 129 224 29 37 63 91 76 119 13 28 70 202 126 386 56
184 114 378 131 431 l29 95 297 36 c305 36 403 44 403 31z m-944 -130 c-3 -10
-41 -146 -86 -303 -44 -157 -85 -296 -91 -310 -6 -14 -101 -191 -212 -393
l-201 -368 -403 -476 c-246 -291 -404 -486 -408 -503 -11 -48 -272 -295 -413
-389 l-120 -80 -21 137 c-11 75 -26 173 -33 217 -20 131 -17 625 5 765 93 593
273 919 667 1211 155 115 227 159 405 246 194 95 397 161 666 217 251 52 252
52 245 29z m334 -5088 c116 -27 216 -65 240 -90 13 -14 34 -25 47 -25 17 0 74
-42 178 -132 l154 -131 -68 -76 c-100 -110 -262 -266 -366 -352 -196 -161
-838 -609 -874 -609 -21 0 -50 25 -141 122 -148 156 -242 273 -344 428 -81
122 -176 288 -176 306 0 5 42 36 93 69 50 33 189 132 307 221 153 114 239 171
297 197 92 41 203 74 295 87 83 12 277 3 358 -15z"/>
<path d="M6294 4033 c2 -10 10 -37 17 -60 7 -24 16 -43 20 -43 4 0 -1 27 -13
60 -11 33 -22 60 -25 60 -2 0 -2 -8 1 -17z"/>
</g>
</svg>
