<?xml version="1.0" standalone="no"?>
<!DOCTYPE svg PUBLIC "-//W3C//DTD SVG 20010904//EN"
 "http://www.w3.org/TR/2001/REC-SVG-20010904/DTD/svg10.dtd">
<svg version="1.0" xmlns="http://www.w3.org/2000/svg"
 width="1024.000000pt" height="1024.000000pt" viewBox="0 0 1024.000000 1024.000000"
 preserveAspectRatio="xMidYMid meet">
<metadata>
Created by potrace 1.10, written by Peter Selinger 2001-2011
</metadata>
<g transform="translate(0.000000,1024.000000) scale(0.100000,-0.100000)"
fill="#000000" stroke="none">
<path d="M1774 8533 c-12 -2 -34 -17 -49 -33 -43 -45 -36 -113 16 -140 19 -10
591 -64 849 -80 93 -6 187 -17 235 -30 250 -64 429 -223 556 -494 49 -105 67
-177 84 -340 15 -146 31 -199 96 -327 39 -77 73 -117 307 -370 263 -283 426
-486 459 -573 9 -23 34 -65 55 -94 41 -56 108 -186 108 -212 0 -8 12 -51 27
-95 25 -73 27 -94 29 -245 1 -206 -1 -190 33 -229 30 -34 48 -101 33 -127 -7
-12 -24 4 -79 74 -178 224 -421 371 -697 418 l-91 16 -89 -44 c-72 -35 -90
-40 -94 -28 -9 27 -76 83 -127 106 -43 20 -79 25 -240 35 l-190 12 -90 -28
c-181 -55 -395 -156 -563 -265 -51 -33 -351 -264 -665 -513 -683 -541 -808
-632 -1120 -817 -112 -65 -142 -106 -135 -182 10 -98 61 -110 214 -49 228 91
473 141 696 141 222 0 487 78 633 186 17 12 57 30 90 40 47 15 201 115 735
478 371 252 683 461 692 463 26 7 100 -40 139 -88 19 -23 59 -67 90 -98 47
-47 59 -65 69 -111 49 -221 157 -494 257 -653 54 -86 137 -309 147 -397 l7
-55 -163 -73 c-154 -68 -167 -72 -235 -72 -62 0 -76 3 -101 25 -41 34 -110 65
-149 65 -17 0 -44 5 -60 11 -15 6 -116 16 -223 24 -191 12 -196 12 -310 -11
-167 -34 -383 -110 -545 -191 -93 -47 -163 -71 -235 -79 l-60 -7 0 41 c0 32
-11 56 -52 119 -46 67 -61 82 -113 108 -52 26 -70 30 -135 29 -65 -2 -86 -7
-161 -42 -128 -60 -179 -133 -186 -267 -4 -65 -2 -73 26 -115 l31 -45 -42 -13
c-148 -46 -237 -52 -308 -21 l-49 21 -31 -22 c-16 -12 -30 -22 -30 -23 0 -1
-7 -20 -14 -42 -31 -90 21 -115 238 -115 129 0 200 9 306 41 101 29 258 49
395 49 204 0 243 12 537 168 205 110 421 167 670 179 l127 6 30 -32 c33 -36
43 -37 107 -15 l46 16 72 -37 c39 -19 88 -38 108 -41 55 -9 208 23 291 60 193
88 439 146 642 151 72 2 267 16 435 31 l305 27 312 -57 c189 -34 372 -61 462
-68 l150 -11 3 -56 3 -56 450 -302 c248 -167 468 -315 489 -329 52 -35 102
-41 141 -16 39 24 70 81 62 113 -5 18 -99 85 -364 262 -360 239 -510 354 -448
343 124 -23 1490 -229 1565 -237 57 -5 264 -49 518 -110 233 -56 425 -99 427
-97 2 2 1 53 -3 113 l-7 109 -89 18 c-49 10 -96 24 -105 32 -9 7 -54 28 -101
46 -66 26 -101 33 -160 34 -48 1 -86 7 -105 17 -16 9 -43 23 -60 32 -21 12
-215 38 -670 92 -352 42 -683 85 -735 95 -52 11 -335 47 -629 80 -505 57 -537
62 -595 89 -149 71 -317 105 -479 99 -98 -3 -108 -5 -158 -37 l-54 -34 -148
11 c-82 5 -150 12 -153 15 -3 3 2 31 10 63 22 87 36 204 36 299 0 50 4 87 11
91 25 15 49 90 49 156 l0 66 743 480 c408 264 774 501 812 527 185 123 390
193 730 249 596 99 1275 -11 1759 -285 157 -89 246 -158 402 -311 160 -157
201 -184 294 -195 37 -4 56 -2 75 11 23 15 25 23 25 84 0 91 -21 157 -75 238
-25 37 -50 85 -56 107 -26 99 -131 258 -258 392 -37 39 -93 106 -126 150 -83
111 -301 327 -416 413 -163 120 -267 177 -693 379 -456 216 -538 249 -708 287
-130 29 -365 53 -421 42 -58 -11 -230 -101 -316 -166 -97 -74 -221 -203 -297
-312 -115 -163 -414 -569 -465 -630 -109 -133 -289 -325 -406 -433 -95 -87
-379 -328 -472 -399 -11 -9 -12 -1 -6 44 13 102 35 183 75 272 22 49 51 127
65 175 46 159 47 207 15 798 l-29 540 -31 95 c-48 147 -121 261 -242 382 -32
32 -58 65 -58 74 0 107 -323 366 -617 493 -191 83 -377 129 -628 156 -91 9
-258 53 -345 89 -76 32 -244 128 -255 146 -6 10 -67 -8 -77 -23 -4 -7 -212 12
-580 52 -315 34 -582 61 -593 60 -11 -1 -30 -4 -41 -6z m1981 -562 c181 -42
245 -63 463 -149 287 -114 317 -132 414 -253 24 -30 62 -91 83 -134 30 -61 59
-98 135 -174 101 -101 137 -159 164 -265 10 -37 22 -216 37 -533 26 -544 25
-547 -51 -748 -49 -130 -78 -242 -95 -375 -8 -58 -21 -123 -28 -145 l-14 -40
-16 75 c-9 41 -19 92 -22 112 -3 21 -15 45 -28 55 -21 17 -22 24 -19 143 4
153 -19 257 -95 425 -138 308 -331 590 -584 850 -74 77 -180 194 -234 260 -54
66 -104 127 -111 135 -16 19 -51 173 -70 310 -26 190 -75 340 -148 454 -34 53
-34 56 -13 51 12 -3 117 -27 232 -54z m3635 -1091 c30 -6 86 -21 123 -31 91
-27 899 -396 1007 -461 320 -191 591 -445 814 -761 26 -38 46 -70 44 -72 -2
-2 -26 13 -53 34 -28 20 -155 95 -284 165 -254 138 -357 179 -598 239 -281 71
-500 97 -818 97 -374 0 -646 -53 -918 -179 -61 -28 -1111 -661 -1217 -734 -21
-14 102 107 334 328 323 308 507 524 724 850 196 296 278 384 460 498 l77 49
125 -5 c69 -3 150 -11 180 -17z m-4092 -1399 c36 -5 61 -15 78 -32 l24 -25
-162 -135 c-134 -112 -252 -194 -673 -469 -280 -183 -537 -351 -570 -374 -34
-23 -84 -47 -115 -55 -30 -7 -114 -33 -186 -57 -161 -54 -294 -82 -428 -91
l-101 -6 75 59 c142 113 1182 929 1243 976 125 96 333 186 482 207 76 11 263
12 333 2z m528 -107 c88 -18 180 -61 299 -139 169 -110 308 -255 411 -425 25
-41 64 -93 85 -116 l39 -40 15 -315 c8 -173 16 -342 18 -376 l3 -63 -36 -6
c-19 -4 -51 -15 -70 -24 -19 -10 -62 -21 -96 -25 l-61 -7 -23 79 c-12 43 -92
236 -177 428 -107 241 -166 390 -192 480 -44 150 -65 197 -115 244 -19 19 -52
63 -73 98 -35 60 -96 126 -153 165 l-25 17 25 20 c30 25 29 25 126 5z m1047
-524 c-18 -32 -33 -39 -33 -16 0 7 10 21 23 29 30 22 31 21 10 -13z m-2912
-1275 c35 -61 34 -71 -13 -121 -58 -61 -122 -78 -234 -60 -72 11 -77 13 -89
44 -12 28 -12 37 6 77 15 35 31 51 67 70 42 22 58 24 146 22 100 -2 100 -2
117 -32z"/>
<path d="M7292 4155 c-60 -17 -127 -59 -166 -105 -21 -26 -26 -42 -26 -89 0
-33 6 -65 14 -77 8 -11 18 -37 21 -57 13 -69 117 -126 231 -127 105 0 152 20
224 96 l60 65 0 62 c0 74 -35 155 -80 187 -69 49 -191 69 -278 45z m164 -141
c13 -3 29 -22 39 -45 17 -36 17 -40 1 -64 -30 -46 -75 -67 -129 -61 -26 3 -61
13 -77 23 -26 15 -30 23 -30 59 0 51 15 65 84 80 61 14 84 16 112 8z"/>
<path d="M8390 3981 c-48 -10 -75 -26 -116 -69 l-35 -37 5 -75 c5 -60 11 -83
34 -115 80 -115 230 -111 324 9 40 50 40 51 36 123 -3 67 -6 75 -38 108 -51
53 -126 72 -210 56z m107 -169 c29 -34 29 -40 -2 -47 -14 -3 -36 -7 -49 -10
-19 -4 -28 2 -44 27 l-21 32 27 17 c33 21 60 15 89 -19z"/>
<path d="M6796 3870 c3 -19 10 -39 15 -44 13 -14 10 2 -7 44 l-14 35 6 -35z"/>
<path d="M4421 3319 c-18 -6 -51 -22 -74 -37 -33 -22 -52 -27 -101 -27 -45 -1
-72 -7 -101 -23 -42 -24 -85 -77 -85 -104 0 -26 97 -107 137 -114 49 -9 135 1
174 22 21 10 70 19 129 24 137 9 210 47 224 115 5 24 0 37 -25 68 -17 21 -50
47 -72 59 -48 24 -153 33 -206 17z"/>
<path d="M5269 3236 c-135 -40 -182 -85 -182 -174 0 -29 6 -49 19 -63 19 -19
21 -19 162 2 l143 22 97 -66 c141 -97 376 -186 683 -262 238 -58 295 -59 329
-2 26 42 27 127 3 150 -10 8 -175 59 -368 112 -192 53 -361 103 -375 110 -14
7 -63 39 -109 69 -92 61 -217 114 -284 121 -26 2 -71 -5 -118 -19z"/>
<path d="M2950 2853 c-8 -3 -22 -11 -30 -18 -8 -7 -59 -28 -114 -46 -89 -31
-100 -37 -113 -67 -7 -18 -11 -37 -9 -41 11 -18 99 -34 160 -29 107 9 226 85
226 144 0 43 -68 76 -120 57z"/>
<path d="M2166 2833 c-16 -8 -61 -19 -100 -24 -176 -22 -335 -114 -278 -161
21 -18 157 -23 239 -9 38 7 106 24 152 38 88 29 101 42 101 103 0 20 -9 35
-29 49 -34 25 -46 25 -85 4z"/>
<path d="M7818 2561 c-58 -14 -100 -120 -63 -161 47 -52 141 -46 193 14 57 65
51 104 -21 137 -43 19 -63 21 -109 10z"/>
<path d="M2104 2425 c-61 -25 -155 -56 -210 -69 -85 -22 -137 -32 -333 -62
-75 -12 -109 -103 -58 -157 l22 -25 331 43 c299 38 337 45 382 70 87 47 126
131 84 181 -23 28 -77 64 -94 63 -7 0 -63 -20 -124 -44z"/>
<path d="M2721 2316 c-93 -42 -121 -65 -121 -96 0 -32 57 -106 96 -125 41 -19
53 -18 151 19 38 14 46 14 75 1 35 -16 356 -75 407 -75 17 0 42 -11 59 -25 44
-36 94 -55 151 -55 45 0 52 3 79 38 l30 38 -17 50 c-30 90 -85 140 -182 168
-30 8 -171 34 -314 56 -143 22 -273 42 -290 45 -21 3 -57 -8 -124 -39z"/>
<path d="M6741 2197 c-67 -34 -88 -131 -43 -194 21 -30 28 -33 76 -33 49 0 57
4 95 40 65 63 56 118 -27 171 -51 32 -66 35 -101 16z"/>
<path d="M2331 2096 c-60 -27 -97 -49 -101 -61 -10 -28 17 -99 50 -135 24 -25
35 -30 77 -30 63 1 122 28 176 83 73 73 74 136 4 168 -60 27 -100 22 -206 -25z"/>
<path d="M4788 2093 c-36 -6 -67 -50 -74 -105 -5 -38 -3 -49 19 -73 21 -25 33
-29 90 -33 109 -7 167 40 167 135 0 12 -11 34 -24 49 -20 24 -31 28 -87 30
-35 1 -76 0 -91 -3z"/>
<path d="M8483 2093 c-16 -3 -26 -16 -35 -45 -11 -39 -11 -42 16 -64 37 -32
89 -32 121 1 63 62 1 128 -102 108z"/>
<path d="M5760 1827 c-22 -11 -25 -19 -25 -71 0 -53 3 -61 27 -79 23 -17 33
-19 55 -11 24 8 29 17 37 67 9 57 9 59 -20 82 -34 28 -40 29 -74 12z"/>
<path d="M4879 1603 c-41 -6 -81 -55 -86 -106 -7 -57 9 -84 60 -107 67 -30
135 -4 173 66 18 33 18 35 0 68 -15 28 -102 91 -117 85 -2 -1 -16 -4 -30 -6z"/>
<path d="M2543 1573 c-26 -5 -72 -56 -74 -81 -2 -32 3 -47 24 -70 52 -56 113
-59 165 -9 64 61 61 107 -8 146 -36 20 -59 23 -107 14z"/>
<path d="M7344 1393 c-26 -9 -46 -23 -53 -39 -21 -47 -16 -51 71 -58 87 -7 99
-3 112 41 6 18 -1 26 -37 47 -24 14 -46 25 -48 25 -2 -1 -23 -8 -45 -16z"/>
<path d="M1955 991 c-84 -50 -108 -126 -57 -173 60 -57 101 -62 153 -18 74 61
73 125 -4 181 -47 34 -53 35 -92 10z"/>
<path d="M5756 964 c-53 -19 -66 -32 -66 -64 0 -30 27 -54 74 -66 21 -5 33 1
61 29 39 39 45 75 17 100 -22 20 -34 20 -86 1z"/>
</g>
</svg>
