<?xml version="1.0" standalone="no"?>
<!DOCTYPE svg PUBLIC "-//W3C//DTD SVG 20010904//EN"
 "http://www.w3.org/TR/2001/REC-SVG-20010904/DTD/svg10.dtd">
<svg version="1.0" xmlns="http://www.w3.org/2000/svg"
 width="1024.000000pt" height="1024.000000pt" viewBox="0 0 1024.000000 1024.000000"
 preserveAspectRatio="xMidYMid meet">
<metadata>
Created by potrace 1.10, written by Peter Selinger 2001-2011
</metadata>
<g transform="translate(0.000000,1024.000000) scale(0.100000,-0.100000)"
fill="#000000" stroke="none">
<path d="M5715 8430 c-74 -11 -161 -38 -240 -74 -48 -22 -216 -142 -530 -378
l-461 -345 -194 -209 c-291 -313 -333 -361 -498 -576 -126 -163 -152 -202
-152 -230 0 -37 -37 -121 -98 -220 -23 -37 -55 -94 -71 -126 -16 -33 -66 -115
-111 -183 -200 -306 -382 -744 -484 -1163 -217 -889 -240 -1066 -256 -1966 -6
-294 -15 -571 -20 -615 -27 -204 -66 -341 -126 -440 -40 -67 -49 -75 -82 -80
-20 -4 -67 -15 -104 -26 -80 -23 -96 -23 -148 -3 -37 15 -57 15 -247 0 -233
-18 -280 -32 -308 -86 -23 -44 -13 -115 18 -134 19 -12 157 -4 982 55 l960 69
1550 -8 c853 -5 1575 -7 1605 -4 30 2 341 -3 690 -12 l635 -17 444 -65 c243
-36 445 -63 447 -61 2 2 0 26 -5 52 -6 30 -5 73 1 113 5 35 8 65 6 66 -3 3
-745 97 -760 96 -5 0 -8 51 -8 114 0 64 -9 171 -21 247 -33 216 -58 477 -69
729 -6 129 -16 309 -22 400 -6 91 -14 248 -18 350 -5 126 -21 283 -49 493
l-43 309 36 58 36 58 -10 98 c-5 55 -20 131 -34 171 -26 76 -46 210 -46 308 0
85 -20 152 -96 328 -37 83 -82 199 -101 257 -38 112 -91 227 -146 313 -32 50
-38 73 -86 338 -28 157 -51 302 -51 323 0 21 -7 64 -15 96 -8 33 -22 95 -29
140 -8 45 -26 103 -40 130 -14 28 -26 63 -26 80 0 114 -223 628 -331 762 -30
37 -74 100 -99 139 -46 73 -137 173 -202 223 -33 25 -41 27 -69 17 -27 -9 -35
-7 -62 13 -18 13 -50 29 -72 35 -31 8 -715 56 -719 50 -1 -1 -24 -5 -51 -9z
m-36 -3209 c3 -5 41 -12 84 -16 52 -5 77 -11 77 -20 0 -7 17 -16 37 -20 21 -4
43 -15 51 -26 8 -11 25 -19 41 -19 16 0 31 -7 35 -15 3 -8 11 -15 19 -15 7 0
24 -11 37 -25 13 -14 28 -25 33 -25 12 0 67 -56 67 -69 0 -6 6 -11 14 -11 8 0
17 -8 21 -19 3 -10 18 -32 33 -47 37 -40 92 -132 92 -155 0 -11 7 -19 15 -19
11 0 15 -11 15 -40 0 -22 5 -40 10 -40 6 0 10 -18 10 -40 0 -30 4 -40 16 -40
15 0 16 -20 12 -196 -3 -126 -8 -198 -15 -202 -6 -4 -14 -24 -18 -45 -4 -21
-13 -37 -21 -37 -10 0 -14 -13 -14 -40 0 -28 -4 -40 -14 -40 -9 0 -17 -15 -21
-38 -4 -25 -13 -41 -28 -47 -15 -7 -23 -20 -25 -42 -2 -25 -8 -33 -23 -33 -13
0 -19 -7 -19 -21 0 -12 -8 -23 -20 -26 -11 -3 -20 -12 -20 -19 0 -8 -6 -14
-14 -14 -8 0 -17 -9 -21 -19 -3 -11 -15 -23 -26 -26 -10 -4 -19 -13 -19 -20 0
-8 -13 -15 -32 -17 -22 -2 -36 -10 -42 -24 -5 -11 -17 -25 -27 -30 -10 -5 -42
-22 -71 -38 -29 -16 -78 -35 -108 -43 -71 -18 -454 -30 -473 -15 -7 6 -24 13
-37 15 -61 12 -86 22 -98 39 -7 10 -24 18 -37 18 -29 0 -114 50 -115 68 0 6
-8 12 -17 12 -22 1 -57 29 -66 53 -3 9 -15 21 -24 24 -24 9 -52 44 -53 66 0
10 -8 17 -20 17 -11 0 -20 5 -20 10 0 6 -8 18 -18 28 -10 10 -37 56 -60 101
-32 64 -42 94 -42 132 0 27 -4 49 -9 49 -9 0 -17 30 -32 125 -9 61 7 275 21
275 4 0 10 29 14 65 8 77 14 95 31 95 7 0 16 16 19 36 4 19 14 38 22 41 7 3
14 13 14 22 1 19 27 51 55 67 11 6 22 21 25 34 3 13 13 27 23 32 9 4 25 12 34
16 10 5 20 19 23 32 5 23 18 33 53 44 9 3 21 14 24 23 8 20 43 52 58 53 6 0
45 18 88 40 43 22 93 40 110 40 18 0 42 6 53 14 11 8 38 17 60 19 61 8 267 -1
273 -12z"/>
</g>
</svg>
