<?xml version="1.0" standalone="no"?>
<!DOCTYPE svg PUBLIC "-//W3C//DTD SVG 20010904//EN"
 "http://www.w3.org/TR/2001/REC-SVG-20010904/DTD/svg10.dtd">
<svg version="1.0" xmlns="http://www.w3.org/2000/svg"
 width="1024.000000pt" height="1024.000000pt" viewBox="0 0 1024.000000 1024.000000"
 preserveAspectRatio="xMidYMid meet">
<metadata>
Created by potrace 1.10, written by Peter Selinger 2001-2011
</metadata>
<g transform="translate(0.000000,1024.000000) scale(0.100000,-0.100000)"
fill="#000000" stroke="none">
<path d="M5149 8491 c-9 -3 -33 -21 -54 -39 l-37 -33 -8 -127 c-6 -109 -24
-205 -129 -682 -67 -305 -135 -595 -151 -645 l-29 -90 -11 -645 -12 -645 77
-850 c42 -467 85 -913 95 -990 26 -194 40 -395 40 -585 0 -158 16 -267 51
-349 5 -13 16 -139 24 -280 13 -236 12 -264 -4 -356 l-17 -100 -34 -1 c-63 0
-94 -13 -117 -48 l-21 -33 -279 -6 c-153 -4 -930 -16 -1728 -27 -1002 -14
-1459 -24 -1478 -32 -58 -23 -78 -128 -33 -172 19 -19 37 -25 97 -30 41 -3
1501 -8 3244 -11 l3170 -5 815 -57 815 -57 41 28 c68 45 79 136 21 179 -29 23
63 17 -1282 82 -407 20 -1011 49 -1343 65 -331 17 -616 30 -632 30 -20 0 -30
5 -30 15 0 9 -12 28 -26 42 l-26 26 -447 -4 -446 -4 -8 115 c-8 107 -4 157 62
745 39 347 121 987 182 1423 156 1123 163 1209 164 1812 0 453 -3 486 -65 730
-16 63 -43 223 -60 355 -66 523 -89 671 -113 745 -19 56 -23 80 -15 94 16 29
12 156 -5 196 -9 19 -30 51 -47 70 -18 19 -53 61 -78 93 -37 47 -51 58 -71 55
-14 -1 -31 0 -36 4 -6 3 -17 3 -26 -1z"/>
<path d="M4877 3000 c3 -11 7 -20 9 -20 2 0 4 9 4 20 0 11 -4 20 -9 20 -5 0
-7 -9 -4 -20z"/>
<path d="M6741 2790 c0 -8 6 -28 14 -45 17 -39 18 -21 0 25 -7 19 -14 28 -14
20z"/>
</g>
</svg>
