<?xml version="1.0" standalone="no"?>
<!DOCTYPE svg PUBLIC "-//W3C//DTD SVG 20010904//EN"
 "http://www.w3.org/TR/2001/REC-SVG-20010904/DTD/svg10.dtd">
<svg version="1.0" xmlns="http://www.w3.org/2000/svg"
 width="1024.000000pt" height="1024.000000pt" viewBox="0 0 1024.000000 1024.000000"
 preserveAspectRatio="xMidYMid meet">
<metadata>
Created by potrace 1.10, written by Peter Selinger 2001-2011
</metadata>
<g transform="translate(0.000000,1024.000000) scale(0.100000,-0.100000)"
fill="#000000" stroke="none">
<path d="M5006 8375 l-38 -34 -8 -128 c-6 -111 -23 -202 -133 -698 -70 -313
-137 -604 -151 -645 -24 -75 -24 -79 -36 -695 l-11 -620 26 -300 c79 -915 128
-1456 145 -1580 26 -193 40 -395 40 -580 0 -153 16 -263 50 -343 6 -13 17
-142 25 -285 13 -243 13 -269 -3 -357 l-18 -95 -58 -5 c-52 -5 -62 -10 -90
-42 l-31 -36 -490 -11 c-269 -6 -1037 -18 -1705 -26 -668 -9 -1229 -18 -1246
-21 -46 -7 -76 -44 -82 -103 -4 -43 -1 -53 20 -74 21 -21 38 -26 99 -31 41 -3
1498 -8 3239 -11 l3165 -5 796 -57 c438 -31 807 -53 820 -50 96 24 135 162 58
203 -26 13 -300 29 -1647 95 -890 43 -1618 79 -1619 79 -2 0 -3 6 -3 13 0 8
-12 24 -26 38 l-26 24 -446 0 -447 0 -8 115 c-8 107 -4 159 62 750 41 365 118
970 181 1425 61 435 119 882 130 995 28 305 43 682 37 959 -5 261 -15 339 -67
561 -18 75 -52 300 -86 560 -42 328 -62 457 -83 525 -21 68 -26 97 -20 120 15
50 10 147 -9 186 -9 19 -51 76 -92 126 l-75 90 -50 1 c-43 0 -56 -5 -89 -33z"/>
<path d="M4781 2953 c0 -5 4 -17 9 -28 8 -18 9 -17 9 8 1 15 -3 27 -9 27 -5 0
-10 -3 -9 -7z"/>
<path d="M6646 2730 c4 -19 10 -44 15 -55 8 -20 8 -20 8 0 0 11 -7 36 -15 55
l-14 35 6 -35z"/>
</g>
</svg>
