<?xml version="1.0" standalone="no"?>
<!DOCTYPE svg PUBLIC "-//W3C//DTD SVG 20010904//EN"
 "http://www.w3.org/TR/2001/REC-SVG-20010904/DTD/svg10.dtd">
<svg version="1.0" xmlns="http://www.w3.org/2000/svg"
 width="1024.000000pt" height="1024.000000pt" viewBox="0 0 1024.000000 1024.000000"
 preserveAspectRatio="xMidYMid meet">
<metadata>
Created by potrace 1.10, written by Peter Selinger 2001-2011
</metadata>
<g transform="translate(0.000000,1024.000000) scale(0.100000,-0.100000)"
fill="#000000" stroke="none">
<path d="M4703 8762 c-61 -26 -115 -50 -118 -54 -4 -4 47 -60 113 -125 204
-200 271 -339 318 -653 15 -100 18 -227 21 -990 l4 -875 -283 -64 c-156 -35
-320 -74 -365 -87 -212 -60 -489 -104 -651 -104 -53 0 -216 14 -362 30 -146
16 -268 26 -272 22 -3 -4 -16 -44 -27 -90 -19 -74 -20 -85 -7 -111 35 -66 105
-111 491 -312 139 -72 263 -119 316 -119 47 0 344 88 412 122 97 48 334 123
610 192 l137 34 -2 -1516 -3 -1516 -610 -312 c-592 -303 -615 -314 -778 -364
-124 -38 -177 -50 -202 -46 -50 10 -147 77 -246 173 l-91 87 -18 -24 c-11 -14
-45 -62 -76 -107 l-57 -83 18 -67 c22 -80 115 -268 205 -410 182 -290 404
-533 488 -533 26 0 123 81 271 227 47 46 137 121 200 168 1264 927 1691 1259
2301 1789 274 238 347 304 519 472 91 89 103 104 92 118 -8 10 -29 16 -52 16
-33 0 -144 -61 -732 -400 l-692 -400 -3 1432 c-1 787 -1 1432 1 1434 1 1 265
66 587 143 322 77 623 150 669 161 310 76 377 238 170 410 -110 92 -234 138
-338 125 -72 -9 -189 -47 -271 -90 -55 -29 -808 -280 -816 -272 -1 1 -4 425
-5 942 l-2 940 27 164 c27 156 27 165 11 206 -20 54 -94 124 -171 163 -60 30
-578 203 -605 201 -8 0 -64 -22 -126 -47z"/>
</g>
</svg>
