<?xml version="1.0" standalone="no"?>
<!DOCTYPE svg PUBLIC "-//W3C//DTD SVG 20010904//EN"
 "http://www.w3.org/TR/2001/REC-SVG-20010904/DTD/svg10.dtd">
<svg version="1.0" xmlns="http://www.w3.org/2000/svg"
 width="1024.000000pt" height="1024.000000pt" viewBox="0 0 1024.000000 1024.000000"
 preserveAspectRatio="xMidYMid meet">
<metadata>
Created by potrace 1.10, written by Peter Selinger 2001-2011
</metadata>
<g transform="translate(0.000000,1024.000000) scale(0.100000,-0.100000)"
fill="#000000" stroke="none">
<path d="M4585 9145 c-66 -35 -121 -68 -123 -73 -1 -5 39 -41 90 -79 251 -188
334 -363 368 -778 6 -70 10 -604 10 -1276 l0 -1155 -887 -97 c-489 -54 -994
-104 -1123 -113 -224 -14 -249 -13 -547 7 -172 13 -315 20 -318 17 -3 -2 14
-56 36 -119 45 -122 71 -159 162 -226 27 -20 81 -50 120 -67 40 -17 86 -41
102 -52 62 -44 140 -76 194 -81 44 -4 84 3 186 32 111 31 272 56 1084 171 525
74 963 134 973 134 17 0 18 -69 18 -1750 l0 -1750 -26 0 c-15 0 -531 -43
-1148 -95 -617 -53 -1200 -102 -1296 -110 -271 -23 -747 -55 -810 -55 -31 0
-224 31 -430 70 -206 38 -376 67 -378 65 -2 -2 4 -54 13 -117 19 -133 -12 -98
281 -318 207 -156 318 -228 411 -265 l59 -24 204 14 c157 11 374 40 930 124
695 106 738 111 1050 130 259 17 3814 235 4805 295 264 17 677 8 929 -19 134
-14 154 -14 202 0 30 9 65 28 83 46 29 29 56 96 49 124 -2 8 -64 83 -140 167
l-136 153 -192 74 c-171 65 -198 73 -239 67 -25 -3 -224 -26 -441 -51 -337
-38 -599 -58 -1770 -134 -756 -50 -1408 -93 -1447 -96 l-73 -7 0 1755 0 1755
68 6 c37 3 616 40 1287 81 671 41 1237 80 1258 85 69 20 127 91 127 157 0 7
-45 59 -99 116 l-100 103 -146 58 -146 58 -102 -7 c-56 -3 -282 -37 -502 -75
-365 -63 -451 -74 -980 -125 -319 -30 -599 -58 -622 -61 l-43 -6 0 1194 c0
1311 4 1436 51 1641 33 145 35 176 15 216 -23 44 -98 106 -167 139 -58 27
-585 194 -605 191 -5 -1 -63 -30 -129 -64z"/>
</g>
</svg>
