<?xml version="1.0" standalone="no"?>
<!DOCTYPE svg PUBLIC "-//W3C//DTD SVG 20010904//EN"
 "http://www.w3.org/TR/2001/REC-SVG-20010904/DTD/svg10.dtd">
<svg version="1.0" xmlns="http://www.w3.org/2000/svg"
 width="1024.000000pt" height="1024.000000pt" viewBox="0 0 1024.000000 1024.000000"
 preserveAspectRatio="xMidYMid meet">
<metadata>
Created by potrace 1.10, written by Peter Selinger 2001-2011
</metadata>
<g transform="translate(0.000000,1024.000000) scale(0.100000,-0.100000)"
fill="#000000" stroke="none">
<path d="M3250 8888 c-155 -23 -251 -49 -345 -92 -64 -30 -75 -39 -104 -88
-33 -59 -34 -91 -4 -150 22 -45 53 -45 149 1 48 23 87 41 89 39 1 -2 8 -25 14
-53 7 -27 26 -75 42 -105 23 -41 142 -463 464 -1635 l434 -1580 261 -748 261
-748 344 -1216 c190 -668 345 -1220 345 -1227 0 -7 23 -59 50 -116 28 -56 49
-104 48 -105 -2 -2 -121 -66 -265 -142 -250 -133 -262 -141 -244 -157 24 -22
66 -100 82 -154 7 -23 17 -42 22 -42 28 0 185 104 651 433 598 421 683 493
926 772 215 249 340 433 532 790 171 316 194 362 266 532 253 592 374 1106
422 1793 37 532 -28 1158 -175 1695 -85 308 -245 623 -446 875 -370 465 -820
799 -1354 1007 -272 106 -664 230 -970 307 -80 20 -225 36 -710 81 -336 30
-622 54 -635 54 -14 -1 -81 -10 -150 -21z m555 -239 l380 -11 590 -139 c673
-159 662 -156 810 -211 306 -113 627 -304 889 -528 492 -423 709 -768 865
-1381 201 -785 181 -1712 -55 -2558 -152 -546 -401 -1084 -733 -1581 -231
-345 -545 -670 -916 -947 l-140 -104 -47 102 c-27 58 -48 116 -48 135 0 19
-29 107 -65 196 -58 146 -82 236 -239 863 -196 784 -252 986 -366 1319 -789
2320 -748 2192 -933 2891 -91 341 -184 706 -207 810 -47 207 -137 549 -204
770 -24 77 -48 169 -55 204 -7 36 -25 88 -39 115 -15 28 -28 54 -30 59 -5 10
100 9 543 -4z"/>
<path d="M5445 6488 c-49 -28 -92 -52 -94 -54 -2 -2 31 -89 73 -195 71 -177
86 -229 210 -725 74 -294 136 -537 138 -539 5 -5 189 63 200 73 8 8 -138 671
-181 822 -60 212 -218 630 -249 662 -4 4 -47 -16 -97 -44z"/>
<path d="M6996 4094 c20 -68 24 -78 29 -72 6 6 -24 99 -36 112 -4 5 -1 -13 7
-40z"/>
</g>
</svg>
