<?xml version="1.0" standalone="no"?>
<!DOCTYPE svg PUBLIC "-//W3C//DTD SVG 20010904//EN"
 "http://www.w3.org/TR/2001/REC-SVG-20010904/DTD/svg10.dtd">
<svg version="1.0" xmlns="http://www.w3.org/2000/svg"
 width="1024.000000pt" height="1024.000000pt" viewBox="0 0 1024.000000 1024.000000"
 preserveAspectRatio="xMidYMid meet">
<metadata>
Created by potrace 1.10, written by Peter Selinger 2001-2011
</metadata>
<g transform="translate(0.000000,1024.000000) scale(0.100000,-0.100000)"
fill="#000000" stroke="none">
<path d="M6110 9313 c-17 -14 -36 -37 -41 -51 -6 -15 -6 -134 1 -315 5 -160 9
-292 7 -293 -1 -2 -488 -43 -1082 -93 -594 -49 -1116 -97 -1159 -105 -44 -9
-81 -14 -82 -13 -1 1 -16 126 -33 277 -17 151 -34 287 -37 301 -13 68 -80 89
-146 44 -34 -23 -37 -29 -43 -89 -9 -84 11 -482 30 -611 52 -336 147 -619 322
-955 102 -196 146 -263 222 -339 77 -76 266 -178 436 -234 l129 -43 -94 -33
c-336 -117 -622 -300 -885 -567 -193 -195 -330 -387 -414 -579 -145 -331 -227
-861 -201 -1303 17 -298 45 -371 263 -692 137 -200 154 -220 252 -305 l104
-90 173 -53 173 -52 510 -51 c280 -27 510 -51 511 -52 2 -1 -322 -317 -718
-702 -675 -655 -730 -707 -866 -802 -170 -120 -200 -146 -211 -188 -8 -31 1
-91 16 -105 4 -5 32 -13 61 -18 52 -9 53 -9 122 39 206 141 570 437 777 630
67 63 298 300 514 527 215 226 393 412 396 412 3 0 2 -487 -2 -1083 -7 -1024
-7 -1086 10 -1121 10 -20 30 -43 46 -51 39 -21 102 -19 121 3 21 24 73 604 63
699 -8 75 -9 1682 -1 1690 5 5 339 -243 886 -657 234 -177 518 -366 769 -510
41 -24 94 -60 117 -82 37 -35 46 -38 97 -38 49 0 58 3 81 31 29 34 33 74 12
105 -8 11 -63 56 -123 99 -59 44 -430 320 -823 614 -393 295 -732 544 -752
556 -21 11 -38 22 -38 25 0 3 57 20 128 39 247 65 546 193 756 323 159 99 327
245 455 398 35 41 85 95 112 120 41 38 68 83 173 292 129 254 155 325 190 515
89 478 -15 992 -282 1393 -109 165 -168 227 -369 395 -170 143 -200 163 -318
221 -197 97 -398 155 -618 179 l-58 7 84 81 c46 45 112 120 146 167 77 105
172 295 206 415 72 251 117 705 114 1150 -1 198 1 252 16 311 13 57 15 78 6
112 -14 51 -50 94 -95 116 -48 23 -80 20 -116 -11z m-30 -945 c0 -89 -22 -277
-46 -398 -34 -168 -102 -371 -179 -527 -53 -109 -72 -138 -131 -197 -122 -121
-249 -193 -419 -237 -81 -21 -112 -24 -305 -24 -205 0 -220 1 -315 28 -55 15
-135 43 -178 61 -92 40 -235 128 -283 174 -89 86 -304 464 -319 562 -4 25 -14
56 -23 70 -17 27 -95 341 -86 349 5 5 2149 177 2237 180 l47 1 0 -42z m-136
-1658 c163 -35 284 -78 380 -136 49 -29 181 -128 294 -221 221 -182 283 -250
374 -415 85 -155 115 -246 159 -495 49 -273 61 -467 36 -560 -8 -32 -18 -89
-22 -126 -6 -61 -21 -98 -135 -330 -126 -259 -129 -263 -231 -382 -166 -191
-374 -352 -616 -478 -98 -51 -174 -78 -477 -172 -199 -62 -362 -112 -363 -111
-1 1 -14 660 -28 1466 -23 1229 -25 1494 -15 1645 12 187 9 230 -26 298 l-15
27 38 1 c21 0 56 4 78 9 22 5 137 7 255 5 173 -2 234 -7 314 -25z m-862 -151
c-22 -163 -21 -486 6 -2012 12 -648 22 -1203 22 -1233 l0 -56 -387 7 -388 7
-210 54 c-115 30 -232 67 -260 81 -140 73 -366 279 -473 433 -57 81 -96 188
-129 355 -36 183 -20 532 38 805 78 365 241 731 435 975 109 137 124 150 319
276 289 186 500 288 747 364 83 25 290 75 295 71 1 -1 -5 -58 -15 -127z"/>
<path d="M10115 713 c-47 -10 -50 -15 -15 -28 48 -19 50 -18 50 10 0 14 -3 24
-7 24 -5 -1 -17 -3 -28 -6z"/>
</g>
</svg>
