<?xml version="1.0" standalone="no"?>
<!DOCTYPE svg PUBLIC "-//W3C//DTD SVG 20010904//EN"
 "http://www.w3.org/TR/2001/REC-SVG-20010904/DTD/svg10.dtd">
<svg version="1.0" xmlns="http://www.w3.org/2000/svg"
 width="1024.000000pt" height="1024.000000pt" viewBox="0 0 1024.000000 1024.000000"
 preserveAspectRatio="xMidYMid meet">
<metadata>
Created by potrace 1.10, written by Peter Selinger 2001-2011
</metadata>
<g transform="translate(0.000000,1024.000000) scale(0.100000,-0.100000)"
fill="#000000" stroke="none">
<path d="M9449 8731 c-25 -16 -48 -38 -51 -48 -7 -26 -424 -218 -783 -360
-159 -64 -297 -117 -306 -120 -11 -3 -32 20 -68 74 -63 95 -99 125 -155 129
-23 2 -64 8 -92 14 -38 7 -79 5 -184 -12 l-135 -20 -715 86 c-673 81 -730 86
-980 92 -240 6 -306 4 -706 -26 l-442 -33 -1282 43 -1281 42 -302 -103 c-207
-70 -307 -109 -318 -123 -9 -12 -25 -31 -35 -43 l-19 -22 -70 24 c-38 13 -146
44 -239 70 -162 44 -239 75 -298 118 l-27 20 -36 -27 c-26 -20 -35 -34 -35
-57 0 -16 -18 -101 -40 -189 -22 -88 -40 -168 -40 -178 0 -39 41 -55 347 -139
376 -102 340 -89 319 -111 -21 -24 -22 -129 -1 -178 l14 -35 -107 4 c-59 2
-119 8 -134 12 -19 5 -35 2 -51 -8 l-23 -15 16 -136 c11 -92 22 -142 32 -152
10 -10 66 -23 150 -36 l135 -21 -13 -45 c-8 -25 -12 -47 -11 -49 2 -2 -11 -19
-29 -39 -18 -19 -39 -53 -45 -75 -17 -56 3 -94 82 -153 57 -43 68 -47 103 -43
47 7 68 -3 108 -49 27 -30 36 -34 80 -34 28 0 81 -9 117 -19 85 -24 199 -33
227 -18 12 7 43 39 69 72 27 33 62 74 78 92 16 17 34 40 41 52 25 45 142 190
154 191 9 0 12 -109 12 -512 l0 -513 50 -578 c42 -496 47 -582 36 -600 -8 -12
-22 -74 -31 -137 -9 -63 -31 -151 -47 -195 -16 -44 -40 -125 -53 -180 -24 -99
-152 -416 -285 -705 -34 -74 -101 -223 -149 -331 -144 -323 -209 -427 -436
-704 -109 -132 -220 -264 -247 -294 -61 -66 -115 -146 -157 -229 -77 -153 -97
-237 -111 -463 -8 -134 -7 -166 6 -211 19 -61 59 -121 108 -160 45 -36 151
-78 197 -78 57 0 132 28 190 73 l54 41 298 58 c300 58 345 72 417 128 19 15
124 73 233 129 168 87 203 109 235 149 113 140 192 205 293 242 64 24 110 55
134 91 14 20 39 33 101 52 66 21 124 26 124 12 0 -1 -7 -42 -15 -90 -14 -79
-14 -93 0 -141 8 -29 20 -56 25 -59 6 -3 10 -31 10 -62 0 -68 21 -115 70 -154
20 -16 41 -45 47 -62 11 -35 140 -234 166 -255 9 -8 37 -22 63 -31 44 -17 48
-22 65 -76 21 -67 46 -97 107 -126 34 -17 55 -20 97 -16 l53 5 6 -37 c11 -72
81 -145 150 -155 17 -3 61 -8 97 -11 64 -6 69 -9 121 -59 l54 -53 50 25 c27
13 56 31 65 39 12 10 47 15 122 16 l105 2 22 33 c13 18 35 40 49 48 14 9 51
53 83 98 48 70 57 91 63 142 11 101 59 294 130 524 22 70 28 115 35 260 5 96
12 203 16 238 6 57 8 61 23 48 25 -23 103 -56 132 -56 20 0 42 -16 81 -59 l55
-58 109 -7 c129 -9 146 -18 284 -151 47 -45 130 -113 185 -150 60 -40 150
-117 225 -190 l125 -123 198 -22 197 -23 128 -80 c170 -108 166 -108 441 -46
117 27 226 49 242 49 66 0 261 -49 307 -78 88 -54 130 -62 311 -62 l165 0 56
59 c30 33 88 88 127 123 98 85 309 321 317 354 11 44 -20 76 -96 99 -73 22
-233 135 -242 170 -28 110 -57 162 -145 261 l-90 102 -128 50 c-71 27 -138 52
-150 56 -17 6 -23 17 -28 54 -16 120 -41 191 -91 258 -16 22 -23 43 -21 72 1
46 -27 86 -68 96 -16 4 -50 50 -119 163 l-97 157 7 87 c5 67 3 99 -11 144 -19
66 -62 135 -105 166 -28 21 -28 24 -23 89 10 118 -34 191 -144 242 -49 22 -64
34 -69 56 -4 15 -20 53 -36 84 -49 100 -60 158 -62 343 -2 148 -6 178 -25 230
-18 47 -22 77 -20 140 4 138 1 201 -17 306 -20 119 -15 255 12 364 17 71 19
141 14 460 -3 133 -1 150 43 355 25 118 55 271 67 340 12 69 27 131 35 139 12
13 17 11 34 -11 27 -34 65 -43 103 -23 21 10 47 13 82 9 60 -6 106 17 134 66
22 39 36 38 83 -5 46 -41 76 -44 113 -10 22 21 37 25 86 25 32 0 62 5 65 10 3
6 33 10 65 10 49 0 61 3 70 20 l11 21 26 -21 c14 -11 35 -20 47 -20 32 0 66
28 66 55 0 23 0 23 39 8 48 -19 68 -13 82 23 8 24 6 31 -19 58 -16 17 -34 51
-41 76 -17 59 -46 89 -94 97 l-40 6 7 81 c5 58 3 92 -7 121 l-14 40 43 48 c48
54 63 104 46 151 -7 16 -11 31 -9 32 1 1 285 104 631 228 345 125 637 231 647
237 11 5 44 30 73 54 46 37 56 42 66 30 14 -17 39 -7 82 33 35 32 44 77 28
144 -41 172 -154 268 -325 275 -75 4 -83 2 -126 -26z m221 -151 c69 -51 99
-103 88 -149 -8 -29 -12 -32 -34 -27 -19 5 -271 -81 -966 -329 -517 -185 -942
-335 -944 -332 -9 9 20 152 32 160 7 4 15 21 19 37 4 17 10 30 13 30 4 0 99
18 212 39 l205 40 594 246 c336 139 609 257 629 273 41 33 73 52 88 52 6 0 34
-18 64 -40z m-6473 -171 c185 -20 217 -21 488 -10 262 10 338 8 785 -13 l495
-24 514 34 515 35 370 -31 c279 -23 408 -38 521 -61 92 -19 254 -40 420 -56
297 -27 421 -32 535 -20 l75 8 -57 -54 c-32 -29 -58 -61 -58 -70 0 -18 -66
-117 -87 -130 -23 -14 -37 -49 -23 -57 10 -6 7 -23 -9 -71 -11 -35 -27 -95
-35 -134 -8 -38 -19 -71 -25 -73 -5 -2 -21 -12 -35 -23 -28 -22 -33 -53 -15
-92 10 -22 0 -44 -91 -201 -149 -261 -148 -258 -194 -374 -35 -87 -47 -136
-66 -262 -12 -85 -29 -168 -37 -184 -9 -16 -30 -117 -49 -225 -19 -107 -39
-211 -45 -230 -14 -41 -6 -159 14 -216 12 -34 12 -51 -4 -140 -27 -158 -31
-275 -14 -463 11 -122 12 -185 5 -223 -17 -91 -12 -153 23 -256 31 -95 32
-104 33 -273 2 -194 9 -235 60 -328 29 -54 34 -72 34 -132 0 -58 4 -74 21 -91
20 -20 32 -20 70 -5 10 4 34 -8 68 -35 l53 -43 -6 -72 c-8 -87 6 -128 54 -165
17 -13 45 -37 61 -54 29 -29 29 -31 29 -147 l0 -118 51 -127 c69 -173 94 -217
160 -277 33 -30 59 -63 63 -81 4 -16 27 -58 52 -93 31 -44 44 -73 44 -97 0
-18 12 -70 27 -114 24 -75 30 -83 72 -109 25 -15 66 -34 91 -41 115 -33 287
-136 325 -195 9 -14 23 -53 31 -87 29 -124 108 -233 222 -306 28 -18 52 -37
52 -42 0 -5 -30 -35 -67 -66 -38 -32 -80 -76 -96 -99 -31 -48 -144 -143 -185
-156 -54 -17 -174 -32 -210 -25 -20 3 -57 19 -82 35 -71 46 -119 62 -205 70
-44 4 -100 16 -125 26 -77 30 -165 22 -364 -36 -179 -51 -220 -58 -232 -39 -3
6 -47 37 -97 70 -92 60 -164 89 -221 89 -17 0 -98 9 -181 21 -130 17 -152 23
-165 42 -58 84 -108 130 -262 237 -110 77 -181 134 -206 167 -102 128 -188
173 -344 181 l-97 4 -26 44 c-33 57 -91 95 -152 102 -42 4 -56 12 -110 63 -58
56 -94 72 -108 49 -3 -5 -19 -10 -34 -10 -43 0 -91 -62 -91 -117 0 -16 9 -47
20 -68 18 -35 19 -46 10 -90 -6 -27 -13 -106 -16 -175 -5 -111 -14 -162 -81
-445 -90 -381 -97 -403 -136 -424 -16 -9 -42 -26 -57 -38 -15 -13 -35 -23 -43
-23 -8 0 -24 -15 -37 -32 -21 -32 -24 -33 -77 -30 -44 3 -61 0 -84 -17 -36
-27 -37 -27 -75 10 -38 36 -101 48 -157 30 -32 -11 -39 -10 -76 15 -29 19 -44
37 -51 64 -13 48 -49 102 -80 117 -15 7 -46 10 -85 6 -58 -5 -63 -4 -83 22
-16 21 -22 41 -22 82 0 59 -17 110 -45 133 -10 8 -39 15 -67 16 -44 0 -53 5
-98 49 -40 40 -50 56 -55 95 -8 61 -36 105 -81 132 -33 20 -36 24 -31 57 3 20
9 46 13 59 5 17 -1 29 -28 55 l-34 32 13 73 c6 40 17 89 23 108 9 27 9 42 0
64 -14 35 -53 62 -75 54 -9 -4 -25 3 -39 19 -33 35 -85 43 -150 23 -29 -9 -63
-24 -76 -33 -12 -9 -41 -17 -64 -18 -33 -2 -47 -10 -76 -42 -20 -23 -77 -62
-132 -93 -97 -53 -172 -119 -284 -253 -35 -42 -51 -51 -129 -78 -148 -51 -230
-98 -345 -199 l-66 -58 -89 -7 c-50 -3 -175 -25 -280 -47 -176 -38 -198 -45
-290 -95 -134 -73 -152 -75 -220 -28 -72 49 -80 73 -80 255 l0 145 68 185 c62
168 73 190 117 235 76 79 455 551 518 645 75 113 150 260 206 401 25 64 46
119 46 123 0 9 130 286 240 511 114 232 159 349 201 518 16 67 34 140 40 162
8 33 38 196 39 215 0 3 13 14 30 23 46 28 55 52 36 101 -11 28 -34 239 -72
646 l-56 605 -5 540 c-4 545 -12 738 -33 808 -10 33 -9 41 5 51 23 17 31 96
14 127 -8 13 -14 44 -15 69 -1 25 -11 64 -23 87 -11 23 -21 49 -21 57 0 31
-60 132 -95 159 -20 16 -41 39 -47 52 -7 16 -42 37 -113 69 -94 41 -107 44
-140 35 -39 -11 -85 -52 -85 -76 0 -9 -7 -12 -17 -9 -10 3 -80 22 -156 42 -75
20 -136 38 -135 40 9 8 292 112 383 139 l110 34 377 1 c316 0 408 -3 575 -21z
m-1787 -206 c319 -100 390 -118 568 -149 112 -19 212 -32 224 -28 11 3 25 19
32 34 6 16 16 26 21 22 20 -14 65 -89 65 -107 0 -10 20 -40 45 -66 25 -26 45
-55 45 -62 0 -8 7 -20 15 -27 26 -22 17 -47 -22 -63 -21 -9 -65 -36 -97 -60
-241 -183 -531 -277 -852 -277 -111 0 -112 0 -116 25 -6 29 -19 26 242 60 256
34 388 72 446 131 52 52 60 82 35 133 -21 40 -66 80 -136 120 -24 14 -199 65
-440 127 -364 93 -497 132 -517 153 -5 4 4 42 18 85 21 63 29 76 43 70 9 -4
180 -58 381 -121z m6709 -11 l20 -39 -72 -13 c-40 -7 -79 -15 -87 -17 -8 -3
12 20 45 51 33 30 63 55 67 56 4 0 16 -17 27 -38z m-6390 -396 c76 -18 111
-31 129 -49 l25 -25 -114 -36 c-63 -20 -126 -41 -141 -46 -25 -8 -26 -8 -17
23 6 21 4 49 -6 88 -19 73 -19 82 3 75 9 -3 64 -16 121 -30z m6541 -100 c0 -7
-13 -22 -29 -34 -38 -27 -74 -104 -69 -142 l5 -30 -26 17 c-14 9 -34 22 -45
29 -15 11 -23 10 -42 -3 -31 -20 -30 -41 1 -83 14 -19 25 -41 25 -49 0 -36 68
-120 98 -121 7 0 12 -15 12 -40 0 -28 5 -42 19 -50 17 -9 18 -14 8 -46 l-11
-36 -35 70 c-20 39 -49 80 -64 92 -26 21 -29 21 -52 6 -31 -21 -32 -55 -5
-137 12 -34 19 -64 16 -67 -3 -3 -31 3 -61 13 l-55 19 -27 -26 c-27 -26 -28
-26 -50 -8 -19 15 -34 17 -81 13 l-58 -5 4 35 c5 44 -12 99 -38 122 -17 16
-24 16 -44 6 -43 -24 -59 -97 -34 -158 11 -28 18 -103 9 -103 -3 0 -15 10 -27
21 -13 12 -38 24 -56 28 -28 6 -33 11 -34 37 -1 17 -4 36 -7 41 -4 6 48 114
116 239 l122 228 245 72 c135 39 251 69 258 67 6 -3 12 -11 12 -17z m-5824
-101 c-3 -9 1 -80 9 -158 14 -144 12 -156 -22 -157 -7 0 -35 -30 -63 -67 -39
-51 -66 -75 -113 -100 -69 -37 -87 -56 -87 -90 0 -29 -46 -123 -63 -127 -7 -2
-47 -9 -90 -16 -74 -11 -80 -10 -100 9 -26 23 -69 41 -100 41 -12 0 -40 12
-61 26 -33 23 -41 25 -61 14 -32 -17 -80 -1 -80 28 0 11 -11 32 -24 46 l-25
26 27 28 c34 35 60 108 53 149 -4 29 -2 32 27 38 18 4 41 9 52 12 11 3 5 -5
-15 -19 -64 -44 -74 -138 -15 -138 20 0 25 -5 25 -24 0 -17 9 -28 34 -40 44
-21 51 -20 76 6 l20 22 0 -22 c0 -23 34 -52 62 -52 19 0 39 26 62 82 l16 36
-33 20 c-33 19 -33 19 -61 -3 l-27 -22 -34 32 c-33 29 -34 33 -23 62 13 35 0
63 -31 63 -9 1 26 12 77 26 185 48 357 126 507 228 91 62 89 61 81 41z m5908
-511 c3 -8 2 -12 -4 -9 -6 3 -10 10 -10 16 0 14 7 11 14 -7z"/>
<path d="M3738 7798 c-82 -27 -88 -32 -88 -57 0 -40 17 -51 78 -51 50 0 56 3
105 49 51 49 51 50 33 70 -24 26 -22 26 -128 -11z"/>
<path d="M3735 7633 c-62 -32 -59 -27 -51 -57 5 -19 16 -28 45 -36 47 -12 81
-2 102 32 30 46 30 57 -1 73 -37 19 -35 19 -95 -12z"/>
<path d="M3741 7462 c-52 -31 -61 -41 -59 -62 2 -19 12 -28 45 -40 38 -13 46
-12 77 3 37 17 71 69 62 92 -3 8 -18 21 -34 29 -27 14 -31 13 -91 -22z"/>
<path d="M3738 7139 c-45 -23 -58 -34 -58 -53 0 -27 35 -46 84 -46 33 0 62 23
85 67 10 19 7 24 -18 42 -16 12 -31 21 -33 21 -1 -1 -29 -14 -60 -31z"/>
<path d="M6812 7077 c-20 -9 -23 -16 -18 -41 8 -41 52 -84 98 -98 33 -10 41
-9 58 7 29 26 25 57 -12 92 -56 53 -83 61 -126 40z"/>
<path d="M3747 6923 c-57 -40 -67 -51 -65 -73 4 -33 61 -49 108 -30 33 14 80
73 80 101 0 13 -38 49 -52 49 -2 0 -34 -21 -71 -47z"/>
<path d="M6689 6904 c-24 -64 29 -124 109 -124 41 0 56 10 65 47 4 19 -5 28
-70 63 -41 22 -79 40 -84 40 -5 0 -14 -12 -20 -26z"/>
<path d="M6578 6804 c-17 -9 -28 -23 -28 -36 0 -12 -9 -31 -19 -42 -11 -12
-22 -33 -26 -47 -5 -22 -1 -30 23 -48 40 -28 85 -37 99 -19 5 7 13 25 17 41 4
18 13 27 27 27 11 0 31 11 45 25 23 23 24 26 10 54 -15 29 -70 61 -103 61 -10
-1 -30 -8 -45 -16z"/>
<path d="M3771 6665 c-50 -58 -35 -105 33 -105 20 0 30 9 46 40 11 21 20 45
20 52 0 12 -48 48 -63 48 -3 0 -19 -16 -36 -35z"/>
<path d="M3818 6207 c-54 -24 -68 -35 -68 -53 0 -29 21 -45 69 -51 49 -7 93
17 118 64 18 34 18 34 -7 53 -31 24 -31 24 -112 -13z"/>
<path d="M3847 5949 c-87 -44 -101 -63 -69 -90 36 -28 96 -34 139 -12 33 16
83 72 83 94 0 7 -62 50 -71 49 -2 -1 -39 -19 -82 -41z"/>
<path d="M3828 5713 c-63 -29 -78 -40 -78 -58 0 -45 111 -73 158 -39 12 8 31
33 42 55 l20 39 -20 20 c-26 26 -31 25 -122 -17z"/>
<path d="M6315 5559 c-53 -50 -71 -85 -60 -119 6 -20 47 -34 75 -25 19 6 120
134 120 152 0 10 -53 43 -70 43 -6 0 -35 -23 -65 -51z"/>
<path d="M3884 5585 c-10 -8 -29 -15 -41 -15 -13 0 -30 -11 -40 -26 -15 -23
-15 -30 -2 -68 12 -35 18 -41 46 -44 50 -5 133 55 133 97 0 15 -50 71 -64 71
-7 0 -21 -7 -32 -15z"/>
<path d="M5748 5500 c-23 -14 -23 -57 0 -69 10 -5 58 -14 107 -20 85 -9 91 -9
108 11 22 26 22 41 -1 61 -23 21 -188 34 -214 17z"/>
<path d="M3873 5404 c-50 -30 -53 -45 -17 -73 50 -40 101 -25 134 38 11 21 10
26 -11 42 -32 25 -56 23 -106 -7z"/>
<path d="M3008 5334 c-93 -112 -109 -166 -53 -180 38 -9 59 -1 74 31 8 17 17
32 21 35 12 9 90 137 90 147 0 12 -44 43 -60 43 -5 0 -38 -34 -72 -76z"/>
<path d="M6239 5330 c-79 -59 -103 -101 -73 -130 43 -41 56 -36 137 54 l77 84
-34 21 c-18 12 -35 21 -37 21 -2 0 -34 -23 -70 -50z"/>
<path d="M5753 5351 c-43 -27 -44 -60 -1 -96 25 -21 38 -25 62 -21 37 8 62 32
71 68 5 21 2 30 -17 42 -41 27 -80 29 -115 7z"/>
<path d="M3938 5297 c-60 -26 -64 -58 -11 -86 33 -17 57 -13 80 12 31 35 35
55 13 77 -24 24 -22 24 -82 -3z"/>
<path d="M3075 5168 c-47 -66 -59 -91 -59 -123 -1 -34 3 -41 28 -54 20 -9 34
-11 45 -4 9 5 41 58 71 117 l55 107 -24 19 c-13 11 -31 20 -40 20 -9 0 -42
-36 -76 -82z"/>
<path d="M5708 5204 c-34 -18 -36 -46 -6 -74 47 -44 99 -34 123 23 12 28 11
34 -2 50 -20 21 -77 22 -115 1z"/>
<path d="M3210 5110 c-8 -10 -41 -48 -73 -84 -52 -57 -58 -69 -52 -95 3 -16
13 -32 21 -35 38 -14 130 69 165 148 l22 50 -23 18 c-28 23 -41 22 -60 -2z"/>
<path d="M6138 5089 c-41 -20 -58 -35 -58 -49 0 -43 97 -72 135 -40 9 7 25 30
35 51 l19 37 -24 16 c-32 21 -40 20 -107 -15z"/>
<path d="M5703 5023 c-69 -15 -73 -17 -73 -43 0 -41 32 -63 100 -68 55 -4 61
-2 90 26 36 37 38 64 5 86 -28 19 -27 19 -122 -1z"/>
<path d="M6091 4906 c-48 -49 -50 -81 -5 -92 23 -6 34 -24 15 -24 -20 0 -71
-53 -71 -74 0 -33 19 -46 66 -46 47 0 75 19 98 65 14 26 14 31 -1 47 -9 10
-24 18 -35 18 -15 0 -13 5 12 28 16 15 33 41 36 57 5 26 1 33 -24 48 -17 9
-34 17 -39 17 -5 0 -28 -20 -52 -44z"/>
<path d="M5645 4816 c-34 -28 -30 -44 19 -80 38 -28 125 -29 155 -2 33 30 23
58 -29 84 -58 29 -107 29 -145 -2z"/>
<path d="M5647 4634 c-34 -15 -38 -20 -35 -48 3 -31 4 -31 83 -43 77 -12 81
-12 98 8 9 12 17 29 17 39 0 48 -94 73 -163 44z"/>
<path d="M6048 4494 c-63 -36 -78 -49 -78 -69 0 -19 7 -26 38 -34 49 -14 58
-14 98 5 21 10 45 34 61 62 l26 44 -24 19 c-13 10 -28 19 -34 19 -5 0 -45 -21
-87 -46z"/>
<path d="M5613 4420 c-33 -13 -28 -43 12 -79 62 -54 165 -36 165 29 0 41 -32
60 -100 59 -30 0 -65 -4 -77 -9z"/>
<path d="M3062 4393 c-40 -19 -64 -63 -60 -106 3 -28 7 -32 35 -35 41 -4 69
11 93 51 27 44 25 70 -8 89 -25 15 -30 15 -60 1z"/>
<path d="M5612 4184 c-28 -12 -32 -18 -26 -37 16 -55 66 -82 132 -72 38 6 46
11 59 43 15 35 14 37 -12 59 -31 27 -100 30 -153 7z"/>
<path d="M3040 4163 c-65 -38 -79 -52 -92 -94 -8 -30 -8 -42 2 -54 21 -25 69
-18 107 16 27 23 41 29 62 24 19 -4 32 0 43 12 31 36 30 53 -6 89 -41 41 -57
42 -116 7z"/>
<path d="M3115 3956 c-61 -40 -125 -109 -125 -134 0 -34 29 -62 65 -62 28 0
43 10 97 66 35 36 71 81 81 99 l17 34 -29 16 c-41 21 -50 20 -106 -19z"/>
<path d="M5621 3930 c-37 -17 -42 -23 -37 -43 3 -12 6 -25 6 -28 0 -4 37 -12
82 -19 80 -13 82 -13 100 10 24 29 23 42 -6 69 -34 32 -91 36 -145 11z"/>
<path d="M3123 3714 c-85 -62 -83 -104 5 -104 36 0 49 5 73 31 39 41 46 74 24
99 -10 11 -23 20 -29 20 -6 -1 -39 -21 -73 -46z"/>
<path d="M5556 3665 c-51 -52 26 -124 118 -111 50 8 69 25 64 57 -2 17 -16 26
-54 39 -88 30 -110 33 -128 15z"/>
<path d="M3178 3552 c-59 -41 -67 -50 -62 -72 3 -14 9 -28 12 -32 12 -12 166
41 185 63 36 43 12 90 -45 88 -13 0 -53 -21 -90 -47z"/>
<path d="M5560 3411 c-15 -30 -12 -76 8 -100 39 -49 134 -33 144 23 5 23 -2
30 -58 61 -72 41 -80 42 -94 16z"/>
<path d="M3319 3227 c-27 -21 -89 -121 -89 -143 0 -12 7 -27 15 -34 13 -11 13
-15 0 -41 -23 -43 -19 -68 15 -87 32 -18 37 -39 19 -90 -17 -50 1 -72 59 -72
57 0 85 18 113 72 18 36 19 42 6 55 -13 14 -13 19 0 50 13 32 13 37 -3 54 -9
10 -25 19 -35 19 -17 0 -17 1 -1 30 16 30 16 32 -2 45 -10 8 -23 16 -29 18 -6
2 -4 21 6 52 9 26 16 49 14 50 -1 1 -13 9 -27 18 -29 20 -40 21 -61 4z"/>
<path d="M5549 3099 l-23 -51 23 -19 c13 -10 41 -24 62 -31 33 -9 45 -9 74 5
34 16 79 73 70 87 -3 4 -27 10 -55 14 -30 4 -59 15 -70 26 -33 33 -54 25 -81
-31z"/>
<path d="M4151 2273 c-117 -80 -136 -100 -126 -134 21 -64 139 -12 242 105 62
71 62 71 42 89 -12 9 -27 17 -33 17 -7 0 -63 -35 -125 -77z"/>
<path d="M8237 2240 c-13 -18 -18 -19 -41 -9 -22 10 -29 9 -46 -6 -29 -26 -25
-44 23 -98 42 -48 42 -48 77 -36 19 7 38 18 42 24 4 7 37 21 73 30 36 10 65
21 65 24 0 3 -8 16 -18 28 -47 59 -147 83 -175 43z"/>
<path d="M8031 2134 c-18 -13 -21 -22 -15 -47 3 -18 14 -40 23 -51 16 -18 15
-18 -18 -1 -29 14 -37 15 -58 4 -24 -13 -25 -25 -6 -76 6 -16 5 -16 -10 -5
-24 20 -54 5 -67 -34 -9 -28 -9 -38 2 -51 12 -15 11 -15 -10 -4 -19 10 -28 10
-48 -4 -28 -18 -29 -24 -9 -70 l14 -35 -33 25 c-40 31 -58 26 -75 -21 -15 -42
-1 -70 51 -102 48 -30 85 -37 115 -21 20 11 24 19 21 46 -3 28 -1 32 22 35 17
2 30 13 40 35 8 18 21 33 28 33 7 0 24 11 38 25 24 24 25 27 10 50 -21 32 -21
32 14 27 20 -3 37 2 50 13 25 22 25 43 3 67 -17 19 -16 19 7 14 26 -7 90 25
90 43 0 7 -98 84 -145 113 -7 4 -22 0 -34 -8z"/>
<path d="M1336 2070 c-53 -34 -82 -112 -60 -156 10 -19 11 -31 4 -38 -22 -22
-11 -56 25 -77 19 -12 35 -22 35 -24 0 -1 -7 -16 -15 -31 -23 -45 -19 -98 10
-132 14 -17 25 -36 25 -44 0 -18 28 -43 57 -52 19 -6 27 0 51 39 l29 47 6 -31
c8 -36 49 -61 74 -45 25 16 86 184 72 200 -22 27 -50 27 -79 -1 -28 -27 -29
-27 -59 -9 -26 15 -32 16 -47 3 -15 -13 -16 -12 -9 10 4 13 18 39 31 58 13 20
24 46 24 59 0 30 -33 49 -59 34 -28 -15 -32 -13 -25 14 4 18 0 28 -18 40 -21
15 -21 18 -9 39 47 74 48 77 22 98 -29 24 -48 24 -85 -1z"/>
<path d="M4185 2078 c-46 -26 -134 -111 -144 -139 -9 -25 -7 -33 9 -49 11 -11
29 -20 39 -20 17 0 18 -4 9 -41 -14 -53 1 -87 42 -95 25 -6 28 -9 19 -26 -6
-10 -9 -36 -7 -56 3 -34 5 -37 39 -40 45 -4 83 25 100 75 11 35 10 38 -16 59
-22 17 -34 20 -51 14 -18 -7 -22 -6 -17 5 3 8 9 15 13 15 4 0 24 28 45 62 l37
62 -22 18 c-30 24 -49 23 -93 -7 -57 -39 -44 -11 29 65 l65 68 -27 21 c-30 24
-41 25 -69 9z"/>
<path d="M1746 1757 c-12 -13 -31 -44 -41 -71 -22 -58 -13 -94 29 -115 37 -17
46 -8 85 89 l30 75 -27 22 c-34 29 -47 29 -76 0z"/>
<path d="M4222 1595 c-16 -13 -35 -38 -42 -55 -11 -26 -10 -33 5 -50 10 -11
25 -22 34 -25 12 -4 16 -14 13 -43 -3 -26 2 -45 17 -63 42 -53 91 -39 91 27 0
19 6 45 14 57 29 46 29 66 2 79 -17 7 -26 19 -26 34 0 22 -45 64 -68 64 -6 0
-24 -11 -40 -25z"/>
<path d="M2023 7099 c-57 -43 -63 -57 -35 -82 30 -27 65 -30 95 -7 34 27 56
93 37 115 -19 23 -41 18 -97 -26z"/>
<path d="M9966 1991 c-15 -6 -11 -9 21 -19 52 -16 53 -15 53 8 0 15 -6 20 -27
19 -16 0 -36 -4 -47 -8z"/>
</g>
</svg>
