<?xml version="1.0" standalone="no"?>
<!DOCTYPE svg PUBLIC "-//W3C//DTD SVG 20010904//EN"
 "http://www.w3.org/TR/2001/REC-SVG-20010904/DTD/svg10.dtd">
<svg version="1.0" xmlns="http://www.w3.org/2000/svg"
 width="1024.000000pt" height="1024.000000pt" viewBox="0 0 1024.000000 1024.000000"
 preserveAspectRatio="xMidYMid meet">
<metadata>
Created by potrace 1.10, written by Peter Selinger 2001-2011
</metadata>
<g transform="translate(0.000000,1024.000000) scale(0.100000,-0.100000)"
fill="#000000" stroke="none">
<path d="M6233 9467 c-40 -24 -75 -46 -79 -50 -4 -4 27 -43 69 -86 141 -144
144 -170 82 -561 -26 -162 -48 -295 -49 -296 0 0 -480 -40 -1066 -88 -586 -48
-1088 -90 -1115 -93 l-50 -5 -22 133 c-16 91 -24 197 -28 329 -9 308 -11 326
-52 371 -26 29 -51 43 -101 59 -68 21 -568 120 -600 120 -27 -1 -217 -116
-220 -134 -5 -24 43 -63 143 -114 64 -33 109 -65 158 -113 98 -98 117 -146
178 -444 28 -135 48 -249 44 -253 -17 -17 -942 -93 -1116 -91 -46 0 -228 17
-404 38 -176 21 -321 37 -323 35 -5 -3 29 -170 37 -181 3 -5 56 -46 116 -90
235 -171 422 -286 507 -313 58 -18 261 10 793 110 259 48 471 87 472 86 0 0
44 -242 97 -536 53 -294 108 -572 122 -617 41 -131 118 -203 214 -203 68 0
123 65 150 178 6 28 16 52 21 52 5 0 102 12 216 26 l206 25 39 -38 c84 -81
183 -259 213 -385 9 -35 19 -131 22 -214 l6 -151 -44 -6 c-24 -4 -366 -38
-759 -77 -393 -39 -865 -86 -1048 -104 l-333 -33 -28 28 c-16 15 -39 30 -52
33 -13 2 -123 22 -244 43 l-220 39 -69 -20 -68 -20 42 -39 c23 -22 84 -104
134 -182 85 -132 94 -150 109 -227 9 -46 82 -425 162 -843 159 -833 164 -852
202 -937 71 -160 215 -171 279 -23 12 28 19 77 22 162 l4 123 32 5 c17 2 427
34 911 70 484 36 899 68 923 71 l42 5 0 -495 c0 -407 -2 -496 -13 -496 -23 0
-2463 -209 -2742 -234 l-259 -24 -353 64 c-193 35 -362 64 -373 64 -18 0 -21
-4 -16 -28 3 -15 10 -63 16 -107 l12 -80 115 -85 c300 -220 465 -325 550 -350
87 -26 326 1 1023 115 605 100 688 111 1340 181 382 40 697 74 699 74 2 0 1
-199 -2 -443 -6 -521 -8 -538 -124 -1044 -39 -169 32 -405 175 -582 56 -69
107 -101 162 -101 106 0 176 99 219 309 24 115 31 363 31 1118 l0 782 43 5
c23 3 310 19 637 36 327 17 966 50 1420 74 l825 44 275 -14 c151 -7 313 -18
360 -24 238 -28 333 5 356 127 10 52 -2 78 -67 147 -112 120 -184 166 -379
241 -153 58 -181 66 -220 61 -204 -28 -804 -90 -1065 -110 -176 -14 -720 -57
-1210 -96 -489 -38 -909 -72 -932 -74 l-43 -6 0 494 0 495 53 5 c46 6 1524
125 1992 161 197 15 259 31 304 76 50 50 49 78 -4 164 l-47 75 95 302 c53 167
126 400 162 518 93 299 143 393 234 439 44 23 76 56 90 94 34 88 -68 203 -274
309 -256 132 -401 159 -521 98 -34 -18 -161 -57 -304 -95 l-245 -65 -730 -70
c-401 -38 -747 -71 -767 -74 l-38 -4 0 201 c0 182 10 299 36 424 5 27 2 36
-22 58 -36 33 -87 60 -181 95 l-73 26 338 27 c185 15 376 30 423 34 l86 6 7
-39 c16 -83 55 -124 119 -124 139 0 277 167 360 435 13 44 69 277 123 518 l99
437 65 0 c36 1 259 7 495 14 457 15 744 10 1023 -19 235 -25 300 -17 336 37
36 54 27 74 -93 224 l-112 141 -157 68 -157 67 -80 -7 c-44 -4 -191 -22 -326
-40 -220 -30 -885 -92 -894 -83 -9 10 70 329 105 423 40 107 70 223 70 268 0
17 -29 40 -138 107 -124 77 -152 90 -302 137 -91 29 -176 55 -190 57 -18 4
-46 -7 -97 -37z m-43 -1412 c0 -18 -158 -836 -162 -840 -6 -6 -1839 -167
-1844 -162 -8 7 -107 827 -101 833 6 6 1972 181 2055 183 39 1 52 -3 52 -14z
m1219 -2220 c46 -23 55 -60 48 -198 -4 -85 -20 -189 -51 -342 -42 -207 -119
-531 -127 -539 -9 -9 -363 -80 -724 -145 -366 -66 -411 -72 -730 -96 -187 -14
-366 -28 -398 -31 l-57 -7 2 599 3 599 315 27 c173 16 605 55 960 87 355 32
664 59 688 60 24 1 56 -6 71 -14z m-2499 -800 c0 -327 -1 -595 -2 -596 -9 -3
-1954 -166 -1956 -164 -6 5 -151 1099 -146 1104 6 6 2010 248 2072 250 l32 1
0 -595z"/>
</g>
</svg>
