<?xml version="1.0" standalone="no"?>
<!DOCTYPE svg PUBLIC "-//W3C//DTD SVG 20010904//EN"
 "http://www.w3.org/TR/2001/REC-SVG-20010904/DTD/svg10.dtd">
<svg version="1.0" xmlns="http://www.w3.org/2000/svg"
 width="1024.000000pt" height="1024.000000pt" viewBox="0 0 1024.000000 1024.000000"
 preserveAspectRatio="xMidYMid meet">
<metadata>
Created by potrace 1.10, written by Peter Selinger 2001-2011
</metadata>
<g transform="translate(0.000000,1024.000000) scale(0.100000,-0.100000)"
fill="#000000" stroke="none">
<path d="M5765 9314 c-16 -3 -93 -14 -170 -25 -248 -36 -505 -93 -750 -165
-186 -55 -1038 -368 -1045 -385 -42 -91 -67 -111 -147 -117 -50 -3 -73 2 -163
37 -58 23 -121 44 -140 47 -19 3 -62 21 -95 39 -59 32 -68 34 -445 79 -417 50
-441 50 -489 1 -21 -21 -26 -34 -24 -72 1 -33 -4 -55 -18 -74 -21 -29 -25 -70
-9 -99 5 -10 44 -30 87 -46 88 -31 405 -203 397 -216 -3 -4 12 -15 33 -23 40
-17 103 -72 103 -90 0 -6 20 -39 45 -73 l46 -63 -36 -59 c-43 -71 -101 -123
-159 -142 -23 -8 -142 -76 -263 -153 -248 -155 -469 -324 -698 -533 -659 -603
-668 -612 -700 -670 -18 -31 -97 -165 -176 -297 -150 -249 -200 -357 -265
-567 -46 -151 -83 -340 -98 -507 -12 -138 -11 -153 21 -449 25 -232 32 -350
32 -481 -1 -113 3 -176 10 -180 7 -5 8 -48 1 -144 -9 -127 -9 -142 10 -198 23
-66 40 -97 80 -145 20 -23 28 -47 33 -92 4 -34 50 -243 103 -464 53 -222 102
-430 109 -463 18 -85 77 -233 124 -314 22 -38 70 -106 106 -151 36 -46 77
-102 91 -126 l26 -43 -39 -46 c-21 -26 -159 -149 -308 -275 -148 -126 -280
-245 -293 -264 -18 -27 -34 -37 -73 -46 -27 -7 -61 -21 -75 -33 -52 -41 -71
-134 -35 -178 18 -22 28 -24 108 -25 48 -1 134 -5 190 -9 69 -5 123 -4 165 5
105 20 640 167 687 188 l44 20 66 -25 c278 -105 872 -319 991 -357 264 -83
568 -148 845 -181 193 -23 337 -60 444 -114 33 -17 46 -19 107 -10 56 8 166 2
564 -30 399 -31 498 -36 510 -26 36 30 78 37 427 75 464 50 649 86 973 192
191 63 207 69 1106 444 l732 305 63 -7 c45 -4 79 -2 116 9 39 12 125 17 355
22 167 3 362 8 433 11 l131 6 21 61 c19 57 20 68 9 127 -7 36 -19 76 -26 90
-8 14 -13 30 -12 36 4 19 -37 53 -78 65 -22 7 -57 27 -78 44 -30 26 -43 31
-73 27 -21 -2 -49 2 -65 11 -41 21 -112 148 -126 226 -14 72 -15 62 81 476 75
325 111 508 111 567 0 21 7 55 16 76 8 20 44 181 80 357 36 176 70 333 76 348
6 16 40 53 76 84 58 49 69 54 101 50 31 -3 48 4 128 60 118 82 143 111 143
169 0 88 -63 174 -159 217 -37 17 -66 21 -143 20 l-98 0 0 28 0 28 -54 -20
c-49 -19 -58 -20 -102 -7 -40 11 -52 20 -65 48 -34 71 -109 344 -143 517 -30
151 -49 215 -126 423 -50 135 -163 442 -251 683 -94 254 -177 466 -200 505
-29 51 -39 79 -40 117 -2 63 -103 269 -214 438 -67 102 -135 239 -135 271 0 7
-21 37 -47 67 -51 59 -144 198 -164 244 -8 17 -52 89 -100 160 -81 122 -103
146 -375 410 l-289 280 -310 189 -310 188 -285 44 c-269 41 -493 60 -575 48z
m-2725 -774 c131 -40 202 -68 285 -113 60 -32 120 -63 133 -68 12 -5 104 -71
205 -148 185 -141 295 -252 308 -311 3 -14 80 -122 171 -240 211 -275 302
-442 398 -735 35 -104 74 -215 88 -245 14 -30 33 -100 43 -155 10 -55 27 -143
38 -195 73 -346 88 -717 45 -1104 l-18 -159 -200 7 c-111 3 -345 8 -521 11
-176 3 -366 8 -422 11 l-103 6 0 35 c0 19 13 105 29 192 63 336 95 740 95
1206 0 276 -4 377 -17 480 -39 289 -104 545 -203 795 -132 332 -294 559 -514
723 -53 40 -105 77 -116 84 -20 12 1 7 276 -77z m4325 -1354 c22 -8 66 -22 98
-31 31 -9 57 -21 57 -26 0 -5 8 -9 18 -9 30 0 142 -52 142 -67 0 -7 8 -13 18
-13 10 0 37 -18 61 -40 23 -22 48 -40 55 -40 6 0 19 -8 28 -19 8 -10 20 -20
24 -22 5 -2 21 -22 36 -44 24 -35 43 -59 88 -112 5 -7 10 -19 10 -28 0 -8 4
-15 10 -15 5 0 19 -18 30 -40 11 -22 25 -40 30 -40 6 0 10 -18 10 -39 0 -22 5
-41 11 -43 6 -2 15 -24 19 -48 5 -25 17 -76 26 -115 31 -126 28 -404 -5 -397
-7 1 -10 -2 -6 -8 8 -12 -25 -150 -35 -150 -4 0 -10 -14 -14 -31 -3 -17 -10
-28 -16 -24 -5 3 -7 0 -4 -9 6 -16 -32 -96 -46 -96 -6 0 -10 -7 -10 -15 0 -17
-7 -27 -52 -76 -16 -16 -28 -32 -28 -35 0 -7 -107 -114 -114 -114 -2 0 -24
-18 -47 -40 -24 -22 -51 -40 -61 -40 -10 0 -18 -6 -18 -13 0 -12 -110 -67
-134 -67 -5 0 -34 -12 -65 -26 -30 -15 -69 -27 -86 -28 -16 0 -36 -7 -43 -13
-10 -10 -66 -13 -206 -13 -181 0 -197 2 -266 26 -41 14 -83 32 -94 40 -11 8
-31 14 -43 14 -13 0 -23 4 -23 8 0 4 -9 8 -20 9 -25 2 -90 41 -90 54 0 5 -6 9
-13 9 -29 0 -257 202 -257 227 0 7 -4 13 -10 13 -5 0 -10 8 -10 18 0 9 -18 37
-40 61 -22 25 -40 53 -40 63 0 10 -4 18 -10 18 -5 0 -12 17 -16 38 -4 20 -10
39 -14 42 -13 10 -33 96 -37 165 -3 38 -10 73 -16 77 -14 9 -14 227 0 236 6 4
13 39 16 77 4 69 24 155 37 165 4 3 10 22 14 43 4 20 11 37 16 37 6 0 10 8 10
18 0 9 9 28 20 42 11 14 20 31 20 37 0 7 9 18 20 25 11 7 20 18 20 25 0 7 5
13 10 13 6 0 10 5 10 11 0 7 44 56 99 110 54 55 103 99 110 99 6 0 11 5 11 10
0 6 7 10 15 10 8 0 34 14 58 30 23 17 53 32 65 33 12 1 22 5 22 9 0 4 9 8 20
8 11 0 29 8 39 17 11 9 53 27 93 39 63 19 99 22 263 23 140 1 200 -3 230 -13z
m-5099 -982 c85 -17 159 -49 214 -93 19 -15 43 -30 53 -34 9 -4 21 -15 24 -24
4 -10 24 -36 45 -58 21 -21 38 -47 38 -57 0 -10 6 -18 13 -18 7 0 28 -41 47
-92 28 -78 34 -108 38 -200 3 -76 1 -108 -7 -108 -6 0 -11 -14 -11 -31 0 -36
-31 -129 -42 -129 -5 0 -8 -9 -8 -20 0 -11 -7 -23 -15 -26 -8 -4 -15 -14 -15
-23 0 -10 -18 -37 -40 -61 -22 -24 -40 -46 -40 -49 -1 -10 -73 -61 -87 -61 -7
0 -13 -6 -13 -13 0 -15 -185 -81 -199 -72 -5 3 -11 0 -13 -6 -5 -16 -236 -17
-246 -3 -4 6 -23 14 -42 18 -63 12 -158 64 -199 109 -8 9 -20 17 -26 17 -5 0
-23 19 -40 42 -16 23 -44 60 -60 82 -17 23 -44 77 -60 121 -28 74 -30 90 -29
208 0 77 5 131 11 135 6 4 13 21 16 37 11 63 43 125 90 176 9 10 17 24 17 31
0 14 60 78 73 78 5 0 22 10 37 23 64 50 75 57 102 57 15 0 28 4 28 8 0 9 92
40 135 45 71 9 138 6 211 -9z m2459 -1384 c622 -27 1171 -52 1220 -55 491 -32
920 -89 1380 -185 246 -51 867 -146 1060 -161 84 -7 378 -13 670 -15 597 -2
558 -1 551 -13 -12 -20 -149 -94 -269 -145 -307 -132 -627 -214 -962 -247
-190 -18 -864 -23 -1110 -9 -191 12 -289 11 -736 -3 l-515 -17 -615 -99 -614
-99 -85 14 c-93 15 -135 11 -194 -18 l-38 -20 -32 31 c-31 30 -34 31 -130 31
l-99 0 27 21 c31 25 66 88 66 122 0 45 -82 97 -153 97 -46 0 -97 -59 -97 -113
0 -34 7 -48 38 -80 l37 -39 -62 6 c-35 3 -91 9 -125 13 l-63 6 34 12 c61 20
109 83 99 131 -9 48 -150 79 -194 44 -25 -21 -56 -97 -49 -120 3 -11 18 -29
32 -40 14 -11 20 -20 12 -20 -8 0 -158 15 -333 34 -285 30 -324 32 -364 20
-94 -29 -157 -12 -215 57 l-36 44 -16 -38 c-10 -24 -22 -37 -34 -37 -15 0 -20
12 -30 74 -13 88 -50 192 -92 257 l-29 46 -98 -17 c-262 -48 -496 -127 -743
-251 -127 -63 -143 -66 -231 -44 -23 6 -29 3 -42 -23 -28 -55 -15 -142 28
-185 32 -32 70 -20 237 74 143 80 180 96 323 139 141 42 176 48 281 53 l121 6
18 -51 c19 -54 17 -65 -10 -50 -46 26 -140 -45 -132 -100 3 -16 0 -28 -6 -27
-37 4 -62 -5 -92 -35 -46 -46 -45 -77 5 -127 l39 -39 -33 -20 c-42 -26 -46
-25 -36 3 14 35 -7 67 -59 94 -42 22 -49 22 -85 10 -42 -15 -75 -50 -77 -83
-2 -20 -4 -19 -45 8 -52 36 -82 30 -124 -23 -28 -34 -28 -34 -14 -93 l14 -58
-52 6 c-29 3 -160 15 -292 26 l-240 20 -150 56 c-133 50 -156 62 -201 106 -38
36 -56 65 -72 111 -27 76 -27 88 -1 190 35 140 106 214 357 378 245 160 555
294 852 369 175 44 206 48 625 94 355 38 396 41 460 30 68 -12 89 -11 248 14
27 4 74 6 105 4 31 -1 566 -25 1187 -52z m1621 -1126 c27 -32 58 -67 69 -78
46 -50 96 -139 116 -208 7 -27 17 -48 21 -48 4 0 8 -13 8 -29 0 -17 5 -33 10
-36 6 -3 10 -26 10 -51 0 -24 5 -44 10 -44 14 0 13 -257 -1 -265 -6 -4 -8 -13
-5 -20 3 -10 -21 -16 -97 -25 -164 -19 -210 -34 -432 -145 -340 -168 -500
-212 -835 -225 -113 -5 -222 -13 -243 -18 -57 -15 -92 -4 -94 30 -1 12 -6 24
-11 27 -4 3 -14 22 -22 41 -8 19 -22 42 -32 52 -10 10 -18 29 -18 43 0 14 -4
25 -9 25 -11 0 -31 86 -31 130 0 17 -4 30 -10 30 -6 0 -10 33 -10 80 0 47 -4
80 -10 80 -5 0 -10 18 -10 40 0 22 4 40 9 40 4 0 11 35 14 77 3 43 11 79 16
81 6 2 11 21 11 43 0 28 4 39 15 39 9 0 15 9 15 23 0 12 6 31 14 42 14 21 16
26 16 50 0 8 9 24 20 35 11 11 17 20 13 21 -21 3 48 17 87 18 32 1 985 143
1341 200 4 1 28 -24 55 -55z m-2601 -55 c303 -29 552 -53 553 -55 7 -5 -189
-297 -281 -419 -600 -798 -1290 -1322 -2177 -1653 -218 -82 -557 -181 -705
-207 l-40 -7 40 44 c22 23 85 90 141 148 442 461 556 583 594 635 24 33 75 96
113 140 293 338 572 726 802 1115 87 146 164 275 171 288 14 21 21 22 127 22
61 0 360 -23 662 -51z m-1636 -102 c13 -16 5 -27 -20 -27 -12 0 -16 6 -12 20
6 23 16 25 32 7z m-589 -610 c61 -30 160 -119 160 -144 0 -5 9 -28 20 -51 13
-26 20 -61 20 -96 0 -65 -18 -156 -31 -156 -5 0 -9 -18 -9 -40 0 -33 -3 -40
-20 -40 -11 0 -20 -6 -20 -13 0 -7 -9 -19 -20 -27 -11 -8 -20 -20 -20 -27 0
-7 -7 -13 -16 -13 -9 0 -12 -5 -8 -12 5 -7 3 -8 -5 -4 -7 5 -20 1 -30 -8 -26
-23 -108 -46 -169 -46 -65 0 -158 26 -186 51 -11 11 -28 19 -37 19 -10 0 -27
17 -40 40 -13 22 -26 40 -30 40 -28 0 -85 203 -69 245 6 15 10 37 10 51 0 13
5 24 10 24 6 0 10 10 10 23 0 34 75 137 100 137 5 0 13 6 17 13 4 7 28 25 53
39 40 23 57 26 145 27 93 0 104 -2 165 -32z m5385 -261 c152 -12 180 -17 265
-48 192 -72 373 -168 539 -287 188 -134 348 -219 541 -286 58 -20 314 -86 570
-146 300 -71 472 -117 485 -128 11 -9 32 -25 48 -34 15 -10 27 -21 27 -25 0
-15 -70 -42 -108 -42 -20 -1 -290 14 -600 32 l-563 32 -735 -72 c-405 -40
-738 -71 -740 -69 -2 2 10 34 26 71 48 106 26 162 -89 230 -94 55 -173 81
-451 152 -286 72 -307 74 -371 31 -18 -12 -41 -39 -51 -59 -29 -55 -9 -85 80
-121 l70 -29 -14 -26 c-8 -15 -14 -45 -14 -68 0 -46 20 -70 66 -83 23 -6 12
-9 -54 -16 -46 -4 -85 -5 -87 -3 -2 2 9 23 26 47 49 73 37 112 -45 146 -48 20
-94 7 -131 -36 -35 -42 -33 -89 4 -132 l30 -33 -487 -22 c-268 -13 -516 -24
-552 -27 -36 -2 -55 -1 -43 1 33 8 93 82 93 115 0 52 -98 97 -165 76 -38 -11
-85 -74 -85 -113 0 -26 27 -64 54 -74 28 -10 -48 -16 -468 -36 -386 -18 -392
-17 -382 45 9 56 34 81 172 168 236 149 582 309 807 374 218 63 342 83 757
124 148 15 275 33 320 45 41 12 147 57 235 100 227 111 429 178 660 219 132
23 143 23 360 7z m-677 -903 c73 -14 129 -30 125 -34 -5 -5 -65 -13 -133 -19
-69 -5 -147 -12 -175 -15 l-50 -6 27 23 c15 13 32 35 37 51 6 15 16 27 23 27
7 0 73 -12 146 -27z"/>
<path d="M7218 6263 c-20 -5 -24 -18 -9 -28 6 -3 15 4 21 15 6 11 9 19 8 19
-2 -1 -11 -3 -20 -6z"/>
<path d="M4442 4043 c-29 -6 -73 -72 -74 -112 -3 -88 134 -114 198 -38 29 34
40 75 27 96 -27 42 -94 66 -151 54z"/>
<path d="M4890 1900 c-78 -36 -135 -105 -123 -148 6 -24 42 -30 222 -34 111
-3 114 -2 132 22 10 14 22 46 25 71 5 39 3 49 -19 75 -24 27 -30 29 -109 32
-67 2 -92 -1 -128 -18z"/>
<path d="M5304 1868 c-36 -12 -61 -49 -70 -106 -6 -37 -3 -44 24 -72 27 -26
37 -30 88 -30 61 0 115 25 135 61 16 30 15 95 -1 115 -33 39 -110 53 -176 32z"/>
<path d="M532 6021 c-6 -17 -9 -31 -6 -31 7 0 25 52 20 57 -2 2 -8 -10 -14
-26z"/>
<path d="M366 5425 c-9 -26 -7 -32 5 -12 6 10 9 21 6 23 -2 3 -7 -2 -11 -11z"/>
</g>
</svg>
