<?xml version="1.0" standalone="no"?>
<!DOCTYPE svg PUBLIC "-//W3C//DTD SVG 20010904//EN"
 "http://www.w3.org/TR/2001/REC-SVG-20010904/DTD/svg10.dtd">
<svg version="1.0" xmlns="http://www.w3.org/2000/svg"
 width="1024.000000pt" height="1024.000000pt" viewBox="0 0 1024.000000 1024.000000"
 preserveAspectRatio="xMidYMid meet">
<metadata>
Created by potrace 1.10, written by Peter Selinger 2001-2011
</metadata>
<g transform="translate(0.000000,1024.000000) scale(0.100000,-0.100000)"
fill="#000000" stroke="none">
<path d="M6806 9620 c-272 -66 -352 -79 -1373 -235 -597 -91 -1096 -165 -1110
-165 -13 0 -51 18 -84 41 -108 73 -406 189 -487 189 -20 0 -90 -18 -154 -41
l-117 -41 25 -50 c14 -28 47 -78 74 -112 97 -123 156 -261 186 -430 45 -256
46 -294 51 -1071 14 -2352 -83 -3475 -397 -4566 -166 -574 -423 -1128 -738
-1589 -224 -327 -463 -616 -777 -939 -90 -91 -160 -171 -158 -178 9 -22 63
-36 123 -30 128 11 328 140 582 374 569 525 1048 1232 1363 2013 65 160 196
531 240 680 68 225 140 552 191 865 14 88 26 160 27 161 1 0 153 11 337 23
184 11 809 53 1389 91 580 39 1063 70 1073 70 17 0 18 -65 18 -1687 0 -1147
-3 -1700 -11 -1726 -14 -50 -61 -103 -106 -118 -25 -8 -73 -10 -147 -6 -202
11 -464 70 -770 172 l-170 56 -25 -26 c-34 -33 -25 -46 73 -110 325 -210 744
-576 906 -791 38 -50 88 -108 111 -128 80 -73 206 -112 282 -87 53 18 135 114
194 228 53 102 114 271 161 447 l27 101 6 3835 c4 2856 8 3857 17 3920 19 139
42 230 79 314 39 88 60 186 49 230 -12 47 -89 118 -198 183 -217 130 -336 183
-433 196 -29 4 -119 -13 -329 -63z m171 -425 c50 -21 72 -42 94 -90 18 -38 19
-89 19 -972 0 -561 -4 -933 -9 -933 -5 0 -373 -36 -818 -80 -444 -44 -1034
-103 -1310 -130 -276 -28 -513 -50 -527 -50 l-26 0 0 678 c1 635 17 1232 35
1250 12 13 2337 340 2423 341 54 1 95 -4 119 -14z m113 -3258 l0 -834 -182
-11 c-472 -30 -2490 -162 -2541 -166 -55 -6 -57 -5 -52 17 19 86 60 750 76
1237 6 190 12 345 13 346 0 1 384 36 851 79 468 42 1055 96 1305 120 250 23
472 43 493 44 l37 1 0 -833z"/>
</g>
</svg>
