<?xml version="1.0" standalone="no"?>
<!DOCTYPE svg PUBLIC "-//W3C//DTD SVG 20010904//EN"
 "http://www.w3.org/TR/2001/REC-SVG-20010904/DTD/svg10.dtd">
<svg version="1.0" xmlns="http://www.w3.org/2000/svg"
 width="1024.000000pt" height="1024.000000pt" viewBox="0 0 1024.000000 1024.000000"
 preserveAspectRatio="xMidYMid meet">
<metadata>
Created by potrace 1.10, written by Peter Selinger 2001-2011
</metadata>
<g transform="translate(0.000000,1024.000000) scale(0.100000,-0.100000)"
fill="#000000" stroke="none">
<path d="M6494 9251 c-71 -43 -275 -300 -381 -478 -30 -51 -57 -93 -61 -93 -4
0 -31 -31 -60 -70 -41 -55 -58 -70 -78 -70 -91 0 -337 -233 -404 -381 -19 -43
-173 -239 -188 -239 -4 0 -55 13 -113 28 l-106 29 -110 -66 c-60 -36 -129 -82
-154 -103 -38 -31 -55 -38 -127 -48 -128 -19 -372 -8 -502 23 -132 31 -302 94
-376 138 -113 68 -255 217 -274 290 -15 56 -50 89 -93 89 -52 0 -82 -45 -91
-136 l-7 -70 43 -65 c42 -63 43 -65 49 -174 8 -132 27 -212 80 -323 49 -107
108 -189 200 -281 109 -108 213 -173 300 -187 l42 -7 -23 -19 c-13 -11 -54
-37 -90 -58 -84 -49 -142 -110 -175 -182 -37 -81 -32 -102 25 -106 64 -5 144
14 229 56 93 45 195 140 386 361 206 240 383 408 603 575 76 57 109 76 132 76
l31 0 -20 -29 c-12 -16 -21 -40 -21 -54 0 -23 6 -27 53 -37 49 -11 57 -10 98
10 124 63 255 186 346 324 54 83 54 83 68 1 9 -52 41 -129 77 -182 23 -34 27
-47 18 -62 -31 -59 9 -144 74 -157 66 -12 251 102 373 230 71 73 162 196 179
239 3 10 9 17 13 17 4 0 31 -70 60 -155 l53 -154 48 -16 c44 -15 52 -15 78 -1
17 9 40 28 52 43 31 40 24 109 -19 169 -17 25 -31 55 -31 68 0 14 -9 45 -19
69 l-19 45 59 26 c71 31 106 32 220 7 203 -45 299 -88 684 -306 552 -312 720
-387 1055 -470 200 -49 276 -59 329 -45 24 6 40 15 35 19 -5 4 -55 45 -112 90
-91 73 -118 89 -248 142 -207 84 -397 178 -644 318 -329 187 -664 346 -994
471 l-89 34 -126 -18 c-69 -9 -134 -20 -143 -22 -24 -7 -23 29 3 176 17 99 18
124 8 178 -9 52 -8 87 6 201 22 171 17 218 -31 271 -51 57 -133 80 -180 51z
m-68 -538 c-30 -114 -66 -258 -80 -320 -22 -97 -34 -128 -92 -230 -37 -65 -79
-133 -93 -152 -60 -79 -190 -154 -211 -121 -5 8 -14 52 -21 99 -9 68 -9 89 1
105 7 11 47 79 88 151 123 214 447 693 460 680 2 -2 -21 -97 -52 -212z m-2654
-1038 c98 -65 168 -82 463 -111 149 -15 273 -30 277 -33 4 -4 -41 -58 -101
-121 l-108 -115 -119 0 c-111 0 -123 2 -179 29 -90 44 -169 130 -243 263 -34
61 -62 117 -62 123 0 12 -1 13 72 -35z"/>
<path d="M1753 8086 c-11 -6 -64 -51 -117 -100 -102 -95 -133 -139 -233 -341
-132 -262 -236 -547 -308 -839 -85 -345 -114 -622 -95 -904 23 -356 69 -540
173 -691 26 -39 29 -48 22 -90 -16 -89 -11 -193 9 -231 13 -25 19 -59 20 -115
3 -95 25 -154 81 -209 28 -29 39 -48 42 -80 5 -40 3 -42 -97 -146 -226 -234
-296 -361 -365 -660 -110 -472 -109 -907 3 -1245 110 -330 145 -387 265 -430
95 -35 122 -33 162 11 l34 36 28 -20 c45 -31 118 -52 188 -52 l64 0 126 -90
c184 -130 201 -134 471 -115 276 19 322 19 496 -9 146 -23 147 -23 195 -65 80
-71 200 -121 291 -121 24 0 287 33 585 74 678 93 628 94 903 -19 111 -46 220
-86 243 -90 23 -4 88 -2 145 5 l104 12 36 -39 c19 -21 44 -63 55 -93 12 -33
36 -70 58 -91 47 -45 212 -140 284 -164 91 -30 126 -58 134 -105 12 -70 70
-171 134 -235 62 -61 130 -105 163 -105 28 0 95 37 112 62 19 27 21 79 4 98
-7 7 6 -2 29 -20 74 -58 162 -47 210 26 13 20 11 23 -34 49 -26 16 -66 43 -88
61 -51 41 -75 33 -110 -36 l-26 -51 -37 32 c-20 18 -43 42 -51 53 -8 12 -30
38 -50 59 -31 33 -36 44 -36 91 -1 42 -8 64 -29 96 -24 37 -26 45 -16 76 11
33 13 34 50 28 63 -10 106 3 151 46 48 45 45 56 -22 91 -33 16 -45 17 -95 8
-31 -6 -66 -8 -78 -5 -15 3 -39 -9 -81 -40 l-60 -46 -81 4 c-69 4 -89 9 -145
39 -60 34 -64 38 -71 80 -4 24 -17 56 -28 71 -11 16 -16 28 -11 28 24 0 385
161 581 259 612 306 1047 612 1377 969 134 146 163 184 261 343 163 265 353
726 488 1189 25 85 90 298 145 474 108 347 115 387 78 463 -23 47 -83 103
-112 103 -10 0 -36 -17 -58 -38 l-40 -37 -55 -270 c-53 -261 -62 -290 -249
-857 l-195 -587 -96 -173 c-106 -191 -196 -314 -352 -485 -293 -322 -683 -603
-1172 -847 -303 -151 -435 -202 -809 -312 -93 -28 -94 -28 -224 -16 -72 7
-135 16 -140 21 -6 6 8 28 34 56 l44 47 -35 29 c-39 33 -58 36 -103 13 -46
-24 -67 -44 -67 -67 0 -13 -5 -17 -16 -13 -9 3 -18 6 -20 6 -2 0 3 11 12 25
19 29 34 22 -140 70 -159 45 -206 39 -206 -26 0 -34 37 -26 -376 -79 -297 -38
-323 -40 -586 -40 l-276 0 -82 35 c-45 19 -109 48 -143 65 l-62 30 -397 0
c-451 0 -419 -5 -543 88 -99 74 -238 142 -332 162 l-78 17 92 61 c83 54 230
122 265 122 7 0 42 -19 78 -43 114 -76 270 -103 421 -73 105 22 175 49 313
125 118 65 278 130 454 185 213 67 352 153 352 217 0 27 -68 96 -103 104 -19
5 -76 -12 -214 -63 -103 -39 -242 -87 -307 -107 -66 -20 -171 -63 -235 -96
l-116 -59 -237 -12 -238 -12 -59 42 c-33 23 -72 42 -86 42 -37 0 -184 -62
-278 -117 -110 -64 -205 -142 -310 -253 -74 -78 -91 -90 -102 -79 -21 22 -82
187 -114 310 -53 198 -65 293 -65 524 -1 221 14 355 55 520 26 103 102 262
165 345 27 36 80 110 118 165 38 55 83 119 99 142 17 24 40 78 52 125 l22 82
50 11 c95 21 153 75 139 129 -12 47 -130 106 -211 106 -18 0 -38 6 -44 14 -9
10 3 23 59 60 38 25 70 50 70 56 0 42 -46 80 -96 80 -15 0 -49 18 -80 42 l-54
43 73 12 c83 14 225 62 308 103 128 65 245 155 410 317 110 108 175 164 195
168 134 31 242 69 357 126 263 131 445 302 720 677 l174 237 39 -3 c33 -2 46
3 78 30 38 33 38 33 23 68 -21 50 -69 91 -116 100 -32 6 -51 2 -94 -17 -46
-21 -76 -50 -213 -206 -87 -99 -181 -213 -208 -251 -70 -102 -166 -206 -259
-282 -92 -74 -129 -94 -345 -188 -142 -63 -155 -66 -176 -53 -18 13 -42 85
-139 419 -133 464 -145 508 -187 718 -52 261 -93 537 -120 821 -9 89 -8 112 5
142 36 87 4 146 -91 167 -18 4 -40 3 -51 -4z m-50 -498 c-6 -136 9 -323 37
-468 19 -99 339 -1293 366 -1368 l16 -43 -133 -137 c-125 -128 -144 -143 -293
-234 l-160 -98 -74 0 -73 0 -30 64 c-36 77 -90 287 -115 446 -25 160 -26 510
-1 670 10 68 55 245 108 430 l90 315 132 273 c73 149 133 272 133 272 1 0 0
-55 -3 -122z"/>
<path d="M1415 6680 c-27 -28 -28 -34 -27 -107 2 -43 6 -81 10 -84 4 -4 36 -9
72 -11 l65 -3 17 35 c34 66 17 138 -41 179 -40 28 -62 26 -96 -9z"/>
<path d="M1428 6214 c-33 -17 -32 -12 -9 -93 20 -75 45 -92 83 -61 l23 18 -25
73 c-14 40 -29 74 -35 75 -5 2 -22 -4 -37 -12z"/>
<path d="M1424 5953 c-12 -2 -36 -20 -54 -39 -30 -30 -34 -41 -34 -88 -1 -62
20 -98 71 -126 51 -27 90 -15 124 38 48 76 34 147 -38 197 -21 14 -40 24 -43
24 -3 -1 -14 -4 -26 -6z"/>
<path d="M1468 5625 c-41 -38 -53 -77 -44 -140 9 -54 72 -110 120 -107 59 5
124 95 112 155 -7 35 -24 58 -74 100 -44 35 -69 34 -114 -8z"/>
<path d="M6875 7962 c-30 -6 -64 -42 -74 -76 -6 -24 -4 -39 11 -62 18 -31 18
-35 2 -108 -17 -75 -19 -79 -116 -186 -104 -115 -128 -156 -128 -214 0 -52 23
-70 84 -62 164 19 332 183 381 371 19 75 19 120 -1 177 -26 77 -117 169 -159
160z"/>
<path d="M7193 7732 c-34 -26 -83 -152 -83 -211 0 -48 2 -53 41 -81 39 -28 42
-29 67 -13 113 70 160 180 112 258 -38 62 -94 81 -137 47z"/>
<path d="M7070 7303 c-28 -10 -80 -67 -91 -100 -6 -19 -8 -45 -5 -59 5 -17 2
-24 -8 -24 -25 0 -84 -59 -96 -96 -14 -43 -4 -94 18 -95 9 0 41 -4 70 -8 34
-5 55 -4 61 3 20 26 49 123 40 137 -14 22 -11 26 32 43 29 12 44 26 55 51 17
42 18 84 1 106 -19 25 -61 47 -77 42z"/>
<path d="M6755 6849 c-48 -44 -53 -62 -33 -117 12 -33 14 -34 56 -29 50 5 86
35 102 83 15 43 7 66 -29 87 -40 24 -46 22 -96 -24z"/>
<path d="M6585 6696 c-40 -17 -95 -81 -95 -109 0 -52 68 -103 121 -92 16 4 29
11 29 16 0 5 18 18 39 29 43 22 81 67 81 98 0 10 -12 31 -26 46 -21 21 -36 26
-73 26 -25 -1 -60 -7 -76 -14z"/>
<path d="M4971 6184 c-76 -20 -140 -59 -178 -106 -37 -45 -42 -82 -18 -128 27
-51 41 -52 150 -9 55 21 104 39 108 39 5 0 91 -44 190 -97 125 -66 200 -113
239 -149 92 -84 201 -114 286 -78 40 16 102 71 102 89 0 16 -145 155 -161 155
-7 0 -53 24 -103 54 -192 115 -479 247 -534 245 -15 0 -51 -7 -81 -15z"/>
<path d="M4338 6010 c-65 -19 -113 -60 -216 -179 -145 -170 -178 -214 -217
-296 -38 -78 -75 -203 -75 -251 0 -39 33 -82 76 -100 72 -30 71 -31 198 180
65 106 180 278 256 382 77 104 140 194 140 201 0 6 -12 25 -26 42 -22 26 -33
31 -67 30 -23 0 -54 -4 -69 -9z"/>
<path d="M4786 5744 c-193 -67 -357 -183 -482 -338 -78 -97 -124 -185 -124
-236 0 -21 7 -60 16 -88 16 -49 19 -52 81 -78 89 -38 98 -52 67 -117 -51 -111
-18 -187 106 -243 l57 -25 -5 -48 -4 -48 57 -47 c106 -86 251 -109 360 -56 49
24 145 114 145 136 0 7 -12 27 -27 45 l-27 32 -104 -6 c-95 -4 -102 -4 -90 12
96 114 98 118 88 145 -14 37 -44 45 -198 53 -189 8 -207 20 -32 20 117 0 160
4 221 21 188 51 420 213 471 328 23 54 15 91 -33 140 l-30 31 36 23 c59 36 83
120 50 168 -10 13 -39 28 -72 38 -31 9 -68 27 -82 40 -39 36 -148 90 -217 108
-84 22 -146 19 -228 -10z m356 -319 l106 -37 -91 -88 -92 -88 -7 79 c-5 43
-17 102 -27 130 -13 32 -15 49 -8 46 7 -2 60 -21 119 -42z m-529 -67 c-17 -46
-24 -208 -11 -265 7 -32 7 -32 -25 -26 -18 3 -48 17 -67 30 -19 13 -59 31 -88
39 -59 18 -61 5 18 103 29 36 173 161 185 161 2 0 -3 -19 -12 -42z"/>
<path d="M9325 5690 c-11 -5 -33 -22 -49 -39 -23 -24 -30 -42 -34 -84 l-4 -54
42 -17 c56 -22 93 -8 121 45 24 49 24 90 -1 121 -22 29 -47 38 -75 28z"/>
<path d="M5915 5331 c-72 -18 -166 -81 -265 -176 -74 -73 -456 -391 -537 -449
-35 -25 -43 -36 -43 -62 0 -28 5 -34 36 -44 53 -18 147 -5 220 29 42 19 118
77 237 180 181 156 239 216 301 313 46 73 106 220 88 217 -4 -1 -20 -4 -37 -8z"/>
<path d="M9251 5207 c-45 -22 -65 -62 -69 -135 -3 -58 -1 -71 19 -96 25 -31
75 -56 114 -56 42 0 49 31 33 154 -12 102 -14 108 -43 126 -26 16 -34 17 -54
7z"/>
<path d="M3881 4905 c-37 -34 -38 -37 -30 -76 16 -69 55 -133 118 -191 69 -64
141 -101 225 -117 96 -18 133 -15 151 12 22 35 3 80 -64 152 -55 58 -323 255
-348 255 -7 0 -30 -16 -52 -35z"/>
<path d="M6231 4770 c0 -8 4 -24 9 -35 5 -13 9 -14 9 -5 0 8 -4 24 -9 35 -5
13 -9 14 -9 5z"/>
<path d="M9297 4583 c-10 -10 -8 -71 2 -77 10 -6 21 26 21 62 0 22 -10 29 -23
15z"/>
<path d="M3397 4532 c-33 -35 -34 -61 -3 -121 42 -82 118 -372 142 -537 14
-102 20 -122 42 -142 32 -30 78 -26 103 8 46 63 66 331 34 455 -34 132 -138
288 -229 344 -44 28 -57 26 -89 -7z"/>
<path d="M3011 4515 c-17 -20 -31 -45 -31 -56 0 -12 35 -62 77 -112 43 -52 89
-120 106 -157 27 -58 31 -80 36 -195 5 -104 10 -137 26 -164 26 -44 62 -70
108 -78 l37 -6 32 69 c29 62 32 78 32 164 1 183 -92 405 -205 490 -119 89
-170 100 -218 45z"/>
<path d="M8780 4453 c-28 -10 -50 -36 -50 -58 0 -12 -9 -30 -20 -40 -14 -13
-20 -31 -20 -60 0 -59 36 -95 95 -95 l42 0 16 68 c18 75 24 162 13 180 -7 12
-49 15 -76 5z"/>
<path d="M2525 4384 c-270 -56 -323 -92 -603 -413 -67 -76 -160 -144 -260
-187 -42 -18 -82 -41 -89 -51 -28 -38 -7 -101 49 -148 53 -45 93 -34 233 64
l117 82 192 -47 c177 -44 201 -48 321 -48 212 -1 330 39 513 173 117 87 154
131 167 202 26 140 -165 316 -397 364 -64 14 -195 18 -243 9z m275 -256 c25
-15 63 -43 85 -62 l40 -35 -35 -30 c-75 -66 -215 -131 -283 -131 -36 0 -429
51 -436 57 -3 2 11 19 30 39 60 63 208 151 309 185 14 5 75 7 135 6 100 -2
114 -5 155 -29z"/>
<path d="M8643 4178 c-32 -15 -37 -40 -23 -116 14 -71 21 -82 58 -82 23 0 42
31 42 72 0 11 9 33 21 49 18 25 19 32 7 56 -10 22 -21 28 -48 30 -19 1 -45 -3
-57 -9z"/>
<path d="M4054 4091 c-90 -41 -112 -157 -37 -201 l35 -20 33 20 c26 16 35 30
40 60 4 22 11 42 16 46 5 3 9 20 9 38 0 24 -7 38 -28 53 -28 21 -30 21 -68 4z"/>
<path d="M3788 3853 c-37 -40 -48 -66 -48 -112 0 -52 27 -81 74 -81 25 0 38 6
50 24 15 24 56 124 56 138 0 11 -73 58 -90 58 -9 0 -28 -12 -42 -27z"/>
<path d="M9207 3810 c-52 -61 -78 -182 -42 -196 12 -5 12 -9 -2 -30 -13 -20
-14 -36 -7 -87 8 -55 12 -63 36 -71 23 -8 32 -6 52 13 34 32 45 101 21 137 -9
14 -15 27 -13 28 2 1 16 10 31 20 36 22 57 72 57 134 0 42 -4 51 -30 70 -42
31 -64 27 -103 -18z"/>
<path d="M3553 3700 c-27 -11 -37 -30 -54 -104 -12 -57 -12 -59 11 -78 26 -21
74 -19 96 5 11 11 54 131 54 149 0 7 -66 39 -79 37 -3 0 -16 -4 -28 -9z"/>
<path d="M8477 3652 c-9 -10 -20 -41 -24 -68 -6 -44 -5 -48 9 -36 16 13 45
109 36 118 -3 2 -12 -4 -21 -14z"/>
<path d="M3345 3571 c-40 -24 -61 -49 -80 -94 -25 -61 -20 -86 21 -103 21 -9
48 -13 65 -9 36 8 85 63 100 115 12 40 12 40 -27 75 -21 19 -41 34 -44 35 -3
0 -18 -8 -35 -19z"/>
<path d="M8268 3337 c-30 -24 -68 -84 -68 -106 0 -17 29 -40 51 -41 9 0 35 27
58 60 32 46 40 65 35 85 -8 32 -39 33 -76 2z"/>
<path d="M9057 3328 c-27 -21 -38 -67 -31 -129 6 -52 9 -59 35 -68 79 -27 125
110 62 183 -25 29 -41 32 -66 14z"/>
<path d="M3415 3178 c-35 -20 -45 -41 -39 -78 9 -58 81 -120 139 -120 58 0
121 53 110 92 -9 29 -52 76 -85 93 -38 20 -102 26 -125 13z"/>
<path d="M8851 3005 c-24 -38 -27 -52 -23 -97 4 -54 28 -87 63 -88 22 0 59 42
59 69 0 12 6 34 13 49 8 16 12 45 9 70 l-4 42 -44 0 c-42 0 -46 -3 -73 -45z"/>
<path d="M6520 2998 c-37 -14 -58 -36 -65 -69 -5 -23 -2 -33 17 -49 12 -11 26
-19 30 -20 10 0 98 93 98 105 0 21 -53 43 -80 33z"/>
<path d="M3598 2967 c-102 -47 -88 -132 30 -185 42 -19 42 -19 22 -37 -13 -12
-20 -31 -20 -55 0 -31 7 -44 40 -74 47 -42 92 -48 134 -15 41 32 34 59 -36
125 l-63 59 23 25 c33 35 38 67 15 98 -43 57 -98 80 -145 59z"/>
<path d="M7979 2931 c-49 -50 -31 -114 22 -77 30 21 49 66 37 89 -12 24 -25
21 -59 -12z"/>
<path d="M6289 2837 c-28 -22 -41 -55 -29 -77 15 -28 52 -34 102 -18 39 13 43
18 46 51 3 32 0 38 -23 47 -35 13 -76 12 -96 -3z"/>
<path d="M8755 2779 c-11 -6 -27 -23 -35 -39 -8 -15 -28 -46 -43 -68 -16 -22
-31 -59 -34 -81 -5 -37 -3 -41 21 -51 50 -19 63 -12 124 66 56 72 58 78 52
116 -7 37 -32 68 -55 67 -5 0 -19 -5 -30 -10z"/>
<path d="M6083 2657 c-75 -76 -70 -127 14 -127 53 0 133 71 133 118 0 19 -50
62 -73 62 -11 0 -44 -24 -74 -53z"/>
<path d="M7765 2663 c-44 -23 -104 -83 -127 -127 l-20 -39 25 -25 26 -25 36
27 c65 50 126 154 111 191 -7 19 -13 18 -51 -2z"/>
<path d="M3765 2556 c-41 -18 -65 -47 -71 -87 -5 -31 -2 -37 38 -66 l45 -32
31 19 c31 19 43 36 62 85 9 23 6 30 -28 60 -42 40 -37 38 -77 21z"/>
<path d="M5879 2532 c-13 -11 -39 -24 -58 -31 -115 -39 -81 -121 50 -121 47 0
53 3 99 50 28 27 50 54 50 60 0 6 -12 22 -27 35 -34 29 -81 32 -114 7z"/>
<path d="M8463 2391 c-73 -34 -104 -63 -134 -130 -37 -80 -37 -108 -3 -121 53
-20 178 79 237 189 28 50 28 53 10 66 -25 20 -60 18 -110 -4z"/>
<path d="M5625 2364 c-73 -38 -95 -56 -95 -79 0 -16 10 -27 34 -39 63 -30 114
-18 141 34 23 44 19 68 -15 85 -35 18 -29 18 -65 -1z"/>
<path d="M7326 2248 c-25 -29 -46 -55 -46 -59 0 -14 38 -39 51 -34 8 3 34 33
58 66 35 49 41 63 30 70 -28 17 -48 8 -93 -43z"/>
<path d="M5371 2244 c-12 -15 -21 -30 -21 -34 0 -5 23 -22 50 -39 l50 -31 40
27 41 26 -58 39 c-32 21 -63 38 -70 38 -6 0 -21 -12 -32 -26z"/>
<path d="M5236 2164 c-68 -24 -106 -60 -106 -98 0 -38 15 -46 87 -46 50 0 92
36 111 96 19 63 -10 78 -92 48z"/>
<path d="M7048 2034 c-15 -8 -34 -27 -43 -43 -13 -26 -13 -30 0 -41 12 -10 23
-8 55 15 56 39 65 52 50 70 -15 18 -27 18 -62 -1z"/>
<path d="M5022 2017 c-12 -7 -30 -23 -39 -36 -15 -22 -15 -25 2 -37 10 -8 26
-14 35 -14 22 0 94 75 86 89 -9 15 -56 13 -84 -2z"/>
<path d="M8065 1916 c-111 -35 -175 -103 -191 -204 -6 -37 -4 -40 22 -49 16
-5 37 -8 46 -6 9 3 62 65 117 139 97 128 100 134 74 133 -16 0 -46 -6 -68 -13z"/>
<path d="M6735 1830 c-44 -10 -73 -31 -86 -63 -10 -23 -9 -31 3 -44 14 -13 19
-13 44 0 16 8 40 27 53 41 14 14 35 26 47 26 36 0 36 15 1 32 -20 9 -43 12
-62 8z"/>
<path d="M6410 1661 c-74 -15 -140 -68 -140 -113 0 -22 7 -32 34 -44 33 -16
35 -16 95 17 48 27 65 43 85 81 24 46 24 48 6 58 -21 11 -28 11 -80 1z"/>
<path d="M7670 1608 c-37 -19 -50 -34 -73 -82 -44 -92 -27 -136 45 -122 68 13
126 66 153 142 14 37 13 40 -11 62 -14 12 -35 22 -47 22 -13 0 -43 -10 -67
-22z"/>
<path d="M7323 1312 c-27 -4 -133 -125 -133 -150 0 -23 11 -37 37 -51 25 -13
60 0 121 46 28 21 72 88 72 110 0 14 -75 49 -97 45z"/>
<path d="M6986 1061 l-39 -39 41 -13 c40 -12 42 -11 81 24 l40 36 -22 16 c-34
24 -60 18 -101 -24z"/>
<path d="M6626 1004 c-22 -8 -54 -26 -73 -40 -28 -21 -34 -32 -31 -57 3 -27
10 -34 49 -51 66 -27 109 -16 165 39 28 29 44 53 44 69 0 51 -73 70 -154 40z"/>
</g>
</svg>
