<?xml version="1.0" standalone="no"?>
<!DOCTYPE svg PUBLIC "-//W3C//DTD SVG 20010904//EN"
 "http://www.w3.org/TR/2001/REC-SVG-20010904/DTD/svg10.dtd">
<svg version="1.0" xmlns="http://www.w3.org/2000/svg"
 width="1024.000000pt" height="1024.000000pt" viewBox="0 0 1024.000000 1024.000000"
 preserveAspectRatio="xMidYMid meet">
<metadata>
Created by potrace 1.10, written by Peter Selinger 2001-2011
</metadata>
<g transform="translate(0.000000,1024.000000) scale(0.100000,-0.100000)"
fill="#000000" stroke="none">
<path d="M4650 9194 c-25 -28 -39 -51 -36 -60 3 -9 14 -44 23 -80 15 -54 15
-71 5 -111 -20 -81 -157 -340 -278 -529 -454 -705 -839 -1169 -1343 -1618
l-43 -38 20 -20 20 -20 186 97 c147 76 215 119 319 200 332 258 501 422 869
841 l307 351 73 11 c40 6 290 41 556 78 481 67 482 67 522 49 22 -10 40 -24
40 -30 0 -37 -126 -273 -343 -645 -116 -199 -486 -821 -493 -829 -2 -2 -235
-35 -517 -73 l-512 -68 -80 30 c-44 17 -148 48 -231 69 l-150 38 -58 -39 -57
-40 89 -92 c72 -74 98 -110 130 -177 61 -128 75 -202 80 -437 7 -362 -18
-1380 -48 -1892 -40 -684 -177 -1525 -320 -1964 -96 -294 -269 -658 -443 -929
-37 -57 -48 -107 -24 -107 72 0 343 313 507 587 239 399 428 927 561 1566 28
138 35 158 53 162 12 2 530 63 1151 135 622 72 1142 133 1158 136 l27 6 0
-1026 c0 -715 -3 -1041 -11 -1077 -8 -34 -22 -64 -44 -88 l-34 -36 -118 1
c-104 1 -132 5 -238 37 -66 19 -187 63 -269 97 -147 62 -148 62 -168 43 -19
-20 -19 -21 124 -169 270 -282 383 -418 468 -564 114 -195 260 -209 412 -41
90 100 165 247 226 439 l27 87 5 2395 c7 2664 1 2462 75 2730 19 70 35 138 35
152 0 57 -144 176 -327 269 -51 26 -117 53 -146 59 -50 11 -60 9 -250 -45
-171 -49 -235 -62 -475 -95 -152 -21 -278 -37 -279 -36 -2 1 200 267 448 592
466 609 521 674 751 876 55 49 78 77 84 100 6 31 3 37 -77 111 -181 169 -344
260 -435 242 -19 -3 -64 -26 -100 -50 -56 -38 -98 -54 -268 -104 -174 -51
-242 -65 -506 -105 -168 -26 -318 -49 -333 -52 -26 -5 -20 5 67 111 97 118
136 179 136 213 0 36 -59 109 -176 217 -141 131 -190 170 -238 190 -19 8 -37
15 -39 15 -3 0 -23 -21 -47 -46z m1638 -2543 c20 -11 46 -34 57 -53 19 -32 20
-54 23 -535 2 -406 0 -503 -10 -503 -18 0 -891 -88 -950 -96 l-48 -6 0 561 c0
309 1 561 3 561 1 1 164 20 362 44 416 51 508 55 563 27z m-1288 -674 l0 -553
-425 -59 c-233 -32 -426 -57 -428 -54 -6 7 21 1071 27 1077 5 4 771 137 814
141 9 1 12 -116 12 -552z m1370 -1320 l0 -583 -467 -43 c-258 -23 -485 -45
-505 -48 l-38 -6 0 582 c0 319 1 581 3 582 1 1 790 78 995 98 9 1 12 -122 12
-582z m-1372 -144 l-3 -577 -460 -63 c-253 -34 -465 -62 -472 -63 -6 0 -9 8
-7 18 2 9 20 269 40 577 20 308 38 561 39 563 3 3 812 119 848 121 16 1 17
-31 15 -576z"/>
</g>
</svg>
