<?xml version="1.0" standalone="no"?>
<!DOCTYPE svg PUBLIC "-//W3C//DTD SVG 20010904//EN"
 "http://www.w3.org/TR/2001/REC-SVG-20010904/DTD/svg10.dtd">
<svg version="1.0" xmlns="http://www.w3.org/2000/svg"
 width="1024.000000pt" height="1024.000000pt" viewBox="0 0 1024.000000 1024.000000"
 preserveAspectRatio="xMidYMid meet">
<metadata>
Created by potrace 1.10, written by Peter Selinger 2001-2011
</metadata>
<g transform="translate(0.000000,1024.000000) scale(0.100000,-0.100000)"
fill="#000000" stroke="none">
<path d="M4034 9569 c-67 -19 -96 -90 -58 -141 15 -20 36 -29 99 -42 270 -57
699 -204 830 -284 50 -31 70 -37 116 -38 58 -1 92 -18 353 -181 l38 -25 -86
-51 c-209 -125 -309 -219 -638 -599 -145 -168 -255 -309 -417 -535 l-219 -308
-197 -380 c-359 -693 -430 -843 -528 -1120 -130 -371 -175 -556 -247 -1025
-66 -421 -84 -598 -100 -952 -25 -558 -13 -723 96 -1381 96 -578 103 -613 145
-757 53 -178 163 -432 244 -560 14 -22 25 -50 25 -62 0 -28 221 -343 288 -411
48 -49 158 -112 215 -122 70 -13 84 1 303 315 193 278 221 328 193 346 -6 3
-9 17 -6 31 7 36 -12 38 -93 10 -47 -16 -93 -42 -132 -73 -76 -63 -177 -187
-224 -278 -20 -39 -38 -73 -40 -75 -6 -7 -91 71 -152 142 -239 272 -433 763
-541 1374 -17 95 -31 177 -31 184 0 9 41 10 174 5 l173 -7 250 139 c244 135
255 143 419 285 261 226 492 492 694 798 l57 86 39 -29 c248 -187 471 -288
849 -385 l250 -64 425 -29 c234 -16 462 -29 508 -30 70 0 82 -2 82 -17 0 -9
-23 -231 -50 -492 l-51 -476 -106 -295 -107 -295 -182 -270 c-99 -148 -186
-271 -191 -272 -6 -2 -44 36 -84 84 -41 48 -94 107 -118 130 -53 52 -146 100
-209 108 -26 4 -57 11 -69 17 -30 15 -40 4 -24 -26 9 -15 11 -38 6 -63 l-6
-40 179 -195 c138 -151 183 -207 197 -244 10 -27 28 -60 39 -72 58 -66 93 -55
225 70 l105 101 182 329 c101 182 190 338 198 347 9 10 16 29 16 44 0 15 41
135 90 267 99 265 105 293 141 620 14 137 22 291 26 520 5 315 4 342 -36 850
-23 289 -57 723 -76 966 l-35 441 -109 632 c-115 661 -146 801 -237 1069 -155
459 -359 834 -648 1196 -90 113 -368 396 -461 469 -130 102 -603 450 -655 482
-122 74 -311 134 -445 140 -44 2 -201 29 -350 59 -148 31 -272 56 -275 55 -3
0 -19 -5 -36 -10z m1651 -915 c422 -358 754 -856 983 -1474 51 -139 118 -361
147 -485 21 -93 206 -1267 200 -1273 -8 -8 -728 38 -821 53 -311 49 -628 243
-786 481 -106 159 -188 363 -188 466 0 91 -37 160 -103 194 -51 27 -74 5 -152
-147 -45 -88 -88 -156 -120 -191 -27 -29 -90 -100 -140 -157 -88 -101 -129
-135 -614 -518 -208 -165 -295 -203 -468 -203 -85 0 -193 14 -193 25 0 1 47
136 105 298 104 294 107 301 386 859 299 598 391 757 592 1028 324 436 723
871 892 974 128 78 151 95 165 121 7 14 16 25 20 25 3 0 46 -34 95 -76z m-580
-2595 c12 -39 95 -200 128 -249 64 -95 143 -183 196 -219 257 -175 580 -309
888 -370 203 -41 346 -53 561 -49 100 1 182 1 182 -2 0 -3 7 -43 15 -90 15
-90 105 -1318 105 -1439 l0 -71 -42 0 c-24 0 -225 11 -448 25 -223 13 -461 27
-530 30 -334 17 -655 159 -910 402 -80 76 -88 86 -93 129 -6 53 -50 107 -103
124 -56 19 -78 -1 -143 -125 -181 -346 -192 -364 -353 -556 -165 -195 -353
-385 -509 -510 -138 -113 -367 -270 -422 -291 -58 -22 -187 -24 -245 -4 -22 8
-65 17 -96 21 -46 6 -56 11 -56 27 0 10 -7 157 -16 326 -25 467 -13 799 46
1332 28 248 104 716 120 733 3 4 29 -2 56 -14 46 -21 59 -22 209 -16 158 7
163 7 259 47 161 65 327 161 479 278 32 24 198 172 369 329 l310 284 18 -28
c10 -16 21 -40 25 -54z"/>
<path d="M7001 4287 c-2 -17 32 -122 36 -112 2 6 -5 35 -16 65 -11 30 -20 51
-20 47z"/>
</g>
</svg>
