<?xml version="1.0" standalone="no"?>
<!DOCTYPE svg PUBLIC "-//W3C//DTD SVG 20010904//EN"
 "http://www.w3.org/TR/2001/REC-SVG-20010904/DTD/svg10.dtd">
<svg version="1.0" xmlns="http://www.w3.org/2000/svg"
 width="1024.000000pt" height="1024.000000pt" viewBox="0 0 1024.000000 1024.000000"
 preserveAspectRatio="xMidYMid meet">
<metadata>
Created by potrace 1.10, written by Peter Selinger 2001-2011
</metadata>
<g transform="translate(0.000000,1024.000000) scale(0.100000,-0.100000)"
fill="#000000" stroke="none">
<path d="M6699 9363 c-89 -75 -292 -337 -369 -478 -19 -33 -46 -73 -61 -90
-16 -16 -46 -53 -68 -82 -28 -35 -46 -50 -56 -47 -8 4 -47 -12 -85 -36 -123
-72 -258 -214 -317 -332 -23 -46 -161 -230 -182 -243 -4 -2 -34 7 -67 20 -37
15 -79 25 -113 25 -49 0 -66 -7 -166 -65 -62 -36 -132 -83 -157 -104 l-45 -40
-130 -12 c-278 -26 -595 39 -828 170 -35 19 -97 71 -150 125 -85 86 -108 119
-135 192 -6 16 -24 38 -41 48 -69 41 -125 -16 -130 -134 -3 -61 0 -69 38 -128
38 -60 40 -67 46 -165 14 -239 103 -434 278 -609 109 -109 208 -170 314 -193
l30 -7 -25 -19 c-14 -10 -52 -34 -85 -53 -106 -61 -179 -153 -200 -253 -6 -30
-4 -32 28 -38 68 -13 210 28 302 86 72 45 169 143 320 319 207 242 424 447
643 609 103 75 165 85 112 18 -35 -44 -27 -64 31 -82 52 -15 52 -15 111 15
127 65 260 190 347 327 l48 75 7 -52 c9 -68 40 -149 80 -208 28 -42 30 -50 19
-72 -7 -14 -13 -34 -13 -45 0 -34 39 -85 75 -101 34 -14 37 -13 122 30 164 82
296 202 401 365 l60 92 36 -103 c20 -57 44 -127 54 -157 16 -46 24 -57 53 -67
62 -22 88 -17 130 25 29 28 39 47 39 70 0 40 -20 88 -53 127 -16 19 -27 44
-27 62 0 16 -7 46 -15 66 l-15 36 64 32 65 32 113 -23 c227 -44 323 -86 738
-321 467 -264 668 -357 943 -436 161 -46 387 -88 401 -74 5 5 23 10 38 10 l28
0 -44 58 c-58 76 -101 103 -254 162 -234 88 -417 175 -662 315 -346 197 -563
305 -860 427 -286 119 -262 113 -392 94 -62 -9 -125 -19 -140 -22 -27 -5 -28
-4 -28 34 0 22 7 77 16 123 12 63 14 111 10 190 -5 74 -2 144 9 227 23 178 2
248 -88 291 -61 29 -108 27 -148 -6z m-5 -355 c-4 -24 -25 -108 -46 -188 -22
-80 -54 -206 -72 -280 -29 -123 -38 -146 -106 -265 -95 -167 -166 -238 -266
-269 -26 -8 -37 17 -53 123 -10 60 -9 77 2 90 8 9 44 70 82 136 117 206 257
418 425 647 19 26 36 47 38 48 1 0 -1 -19 -4 -42z m-2645 -1238 c85 -43 128
-51 411 -81 156 -16 285 -31 287 -32 1 -2 -49 -57 -111 -122 l-113 -120 -109
0 c-104 0 -113 2 -179 34 -96 47 -175 130 -247 260 -79 142 -81 151 -27 114
24 -17 64 -40 88 -53z"/>
<path d="M1868 8119 c-121 -113 -154 -164 -282 -431 -176 -366 -300 -780 -352
-1173 -23 -176 -23 -495 0 -670 29 -214 40 -253 117 -406 63 -126 70 -147 65
-183 -20 -146 -19 -184 7 -238 19 -42 25 -68 25 -123 -1 -86 26 -156 83 -211
33 -32 39 -45 39 -79 0 -37 -7 -47 -109 -152 -212 -217 -287 -354 -357 -656
-114 -489 -106 -940 22 -1297 19 -52 44 -121 55 -153 42 -124 105 -195 202
-227 67 -22 70 -22 107 -5 22 10 48 26 60 37 20 19 21 19 48 0 44 -32 118 -52
188 -52 l65 0 121 -86 c85 -60 143 -94 192 -110 l70 -24 215 15 c281 20 319
19 493 -9 145 -23 147 -23 193 -64 79 -69 208 -122 300 -122 22 0 273 32 558
70 363 49 548 70 622 70 100 0 109 -2 217 -44 62 -25 154 -63 203 -87 79 -37
99 -42 165 -43 41 0 109 2 150 6 l75 8 34 -47 c18 -26 40 -66 48 -89 8 -23 29
-58 46 -78 36 -40 203 -139 281 -166 93 -32 135 -58 142 -88 23 -103 58 -173
124 -245 62 -68 134 -117 172 -117 66 0 144 72 134 122 l-6 28 38 -25 c42 -29
98 -33 142 -10 27 14 60 51 60 66 0 6 -46 38 -157 109 -31 20 -52 7 -80 -51
-11 -24 -25 -44 -30 -44 -12 0 -83 62 -83 71 0 4 -20 29 -45 55 -41 44 -45 53
-45 99 0 52 -16 96 -44 119 -12 10 -13 18 -2 49 l13 37 55 -3 c64 -4 97 9 147
61 l33 35 -48 31 c-44 28 -55 31 -109 27 -94 -7 -101 -9 -169 -59 -50 -37 -72
-47 -102 -47 -72 0 -202 46 -231 82 -6 7 -16 33 -23 57 -6 24 -18 54 -26 66
-13 21 -11 22 69 55 130 53 1061 536 1172 608 240 155 454 332 655 538 172
177 204 217 311 388 167 269 352 719 495 1206 25 85 89 290 141 455 52 165 97
323 100 350 8 75 -11 130 -62 181 -53 53 -76 55 -129 10 l-38 -33 -58 -279
c-55 -271 -63 -297 -249 -859 l-192 -580 -91 -165 c-137 -249 -306 -463 -533
-672 -234 -217 -323 -278 -773 -533 l-383 -217 -374 -133 -373 -134 -128 15
c-71 8 -135 16 -142 19 -10 4 -1 19 27 51 23 26 41 50 41 55 0 4 -16 20 -35
35 -33 25 -39 26 -73 16 -41 -13 -92 -55 -92 -77 0 -8 -4 -15 -9 -15 -17 0
-23 21 -10 36 7 9 8 18 3 24 -10 10 -260 80 -285 80 -27 0 -69 -39 -69 -65 0
-29 31 -23 -378 -75 -311 -41 -315 -41 -600 -38 l-287 3 -131 63 -130 62 -398
0 -397 0 -52 26 c-29 15 -90 53 -137 84 -138 92 -192 119 -281 138 l-83 18 87
58 c79 53 233 125 266 126 7 0 45 -20 85 -44 102 -64 167 -80 306 -80 148 1
211 21 460 147 132 67 228 108 335 142 316 101 435 169 435 248 0 34 -31 70
-80 92 l-40 18 -193 -70 c-105 -39 -246 -88 -312 -109 -66 -21 -172 -64 -235
-96 l-115 -59 -237 -11 -238 -12 -59 42 c-34 23 -72 42 -86 42 -36 0 -185 -63
-276 -117 -119 -71 -198 -134 -303 -244 -113 -117 -104 -119 -159 26 -45 117
-81 251 -108 400 -17 95 -22 162 -22 320 -1 403 65 660 223 870 25 33 90 125
144 204 89 129 101 152 121 230 l21 86 52 6 c79 10 142 58 142 107 0 57 -110
122 -206 122 -24 0 -47 6 -54 14 -9 12 1 23 59 62 47 31 71 53 71 66 0 31 -45
68 -83 68 -24 0 -49 12 -90 44 l-56 44 52 6 c70 9 242 67 330 112 138 69 238
145 408 311 l166 163 94 24 c407 107 666 310 1015 792 l169 233 45 0 c35 1 54
8 83 32 l37 30 -16 32 c-26 50 -78 95 -119 103 -30 5 -49 1 -95 -21 -49 -23
-79 -52 -216 -208 -87 -99 -175 -205 -195 -235 -91 -133 -231 -274 -357 -358
-26 -17 -121 -64 -212 -104 -91 -40 -173 -77 -182 -81 -12 -7 -24 -3 -42 13
-21 19 -45 94 -146 448 -170 594 -232 888 -279 1320 -25 228 -27 303 -10 357
18 57 4 91 -46 120 -71 40 -88 34 -207 -78z m57 -381 c-8 -109 9 -340 35 -486
21 -114 354 -1352 375 -1392 13 -24 8 -30 -123 -165 -130 -133 -145 -145 -299
-237 l-161 -98 -70 0 -69 0 -35 78 c-42 91 -79 226 -110 407 -18 107 -22 169
-22 350 0 296 13 381 126 775 l90 315 131 273 c73 149 134 272 136 272 2 0 0
-42 -4 -92z"/>
<path d="M1675 6830 c-11 -4 -30 -19 -43 -33 -21 -22 -23 -32 -20 -108 l3 -84
73 -3 73 -3 15 38 c23 54 14 117 -22 155 -38 39 -55 47 -79 38z"/>
<path d="M1660 6343 c-32 -12 -38 -23 -30 -56 5 -18 14 -51 20 -74 10 -38 14
-43 40 -43 18 0 34 8 43 20 13 18 12 27 -9 78 -13 31 -24 63 -24 70 0 12 -14
14 -40 5z"/>
<path d="M1629 6072 c-9 -4 -29 -22 -45 -41 -23 -28 -28 -44 -28 -85 0 -57 16
-88 61 -117 62 -41 128 -8 158 77 17 51 5 90 -44 137 -39 36 -66 44 -102 29z"/>
<path d="M1740 5781 c-44 -18 -88 -64 -95 -97 -12 -67 3 -116 47 -151 58 -47
96 -45 142 8 41 49 52 86 37 132 -18 53 -101 121 -131 108z"/>
<path d="M7062 8065 c-36 -30 -48 -79 -27 -111 18 -28 19 -65 3 -135 -11 -45
-26 -67 -109 -159 -111 -123 -129 -152 -129 -214 0 -62 24 -78 95 -65 132 24
260 130 329 271 60 122 67 228 22 316 -20 40 -112 122 -135 122 -11 0 -33 -11
-49 -25z"/>
<path d="M7455 7872 c-41 -14 -55 -29 -84 -92 -54 -120 -49 -184 16 -223 29
-17 34 -17 62 -3 65 34 131 128 131 186 0 42 -23 84 -63 114 -19 15 -36 26
-38 25 -2 -1 -13 -4 -24 -7z"/>
<path d="M7240 7353 c-31 -49 -46 -81 -40 -87 6 -6 -4 -18 -27 -31 -100 -55
-112 -178 -22 -215 27 -12 36 -11 65 5 27 14 37 30 54 81 12 35 19 72 15 83
-4 15 3 24 37 43 79 43 89 147 17 183 -15 8 -33 15 -39 15 -5 0 -32 -35 -60
-77z"/>
<path d="M6972 6966 l-47 -44 16 -43 c8 -23 22 -47 31 -52 23 -15 68 1 105 38
41 41 46 96 11 126 -36 29 -65 23 -116 -25z"/>
<path d="M6815 6821 c-92 -41 -123 -126 -64 -175 43 -37 85 -34 150 10 70 47
95 86 78 126 -23 56 -92 72 -164 39z"/>
<path d="M5168 6301 c-137 -44 -216 -146 -172 -222 33 -56 41 -57 158 -12
l106 41 187 -100 c120 -63 204 -115 233 -143 51 -49 130 -92 187 -101 58 -9
116 11 169 59 l47 43 -66 71 c-37 39 -82 77 -100 84 -17 7 -68 35 -112 62 -93
57 -306 162 -418 206 -89 35 -137 38 -219 12z"/>
<path d="M4549 6126 c-32 -12 -69 -32 -83 -43 -27 -22 -203 -223 -264 -302
-50 -66 -108 -192 -133 -291 -20 -80 -20 -88 -5 -123 12 -29 26 -43 61 -58 25
-11 55 -19 67 -17 16 2 53 54 143 204 66 110 182 284 258 388 75 103 137 188
137 190 0 10 -96 76 -109 76 -9 0 -41 -11 -72 -24z"/>
<path d="M5002 5865 c-242 -97 -402 -222 -531 -415 -79 -118 -86 -165 -40
-267 22 -50 50 -71 102 -80 57 -9 66 -36 33 -101 -29 -58 -32 -88 -12 -135 18
-42 40 -61 116 -98 l62 -30 -5 -47 c-6 -46 -5 -48 39 -86 69 -59 153 -90 244
-90 94 0 151 26 227 101 48 48 52 56 42 76 -28 54 -36 57 -146 57 l-104 0 26
33 c74 91 77 97 71 122 -3 13 -15 29 -26 35 -15 8 -240 28 -339 30 -8 0 -11 3
-7 7 4 4 66 6 139 4 107 -2 147 2 212 19 152 39 292 120 412 240 94 92 105
160 40 229 -22 23 -28 35 -19 38 61 22 105 108 82 162 -12 30 -77 71 -113 71
-9 0 -38 16 -64 37 -62 47 -160 91 -242 109 -90 19 -104 17 -199 -21z m428
-340 c19 -6 35 -14 35 -16 0 -2 -41 -43 -92 -92 l-91 -87 -4 87 c-3 60 -11
103 -25 135 l-21 47 81 -31 c45 -16 98 -36 117 -43z m-597 -55 c-17 -49 -23
-169 -10 -237 7 -42 6 -43 -19 -43 -14 0 -51 15 -82 34 -32 19 -72 37 -89 41
-18 4 -33 10 -33 14 0 27 232 252 246 239 2 -2 -4 -24 -13 -48z"/>
<path d="M9534 5801 c-60 -37 -86 -144 -42 -175 34 -24 90 -20 116 7 48 51 54
118 15 159 -31 33 -47 35 -89 9z"/>
<path d="M6110 5447 c-61 -22 -152 -87 -235 -167 -83 -80 -486 -417 -542 -454
-38 -25 -45 -39 -37 -72 14 -57 148 -54 269 5 67 33 332 257 432 364 34 36 77
92 96 125 34 58 87 181 87 201 0 14 -26 13 -70 -2z"/>
<path d="M9475 5329 c-50 -25 -83 -124 -65 -191 23 -81 142 -131 169 -72 11
24 3 136 -15 221 -3 18 -51 56 -66 52 -2 0 -12 -5 -23 -10z"/>
<path d="M4103 5026 l-37 -33 12 -55 c16 -71 69 -147 140 -203 69 -55 142 -84
241 -96 61 -8 77 -7 97 6 43 28 31 65 -48 156 -50 58 -324 259 -353 259 -8 0
-32 -15 -52 -34z"/>
<path d="M6456 4890 c3 -19 10 -39 15 -44 14 -15 10 15 -6 49 l-15 30 6 -35z"/>
<path d="M9533 4708 c-19 -24 -23 -54 -9 -73 12 -17 14 -14 20 29 8 52 5 64
-11 44z"/>
<path d="M3617 4652 c-33 -35 -34 -53 -2 -117 51 -104 137 -439 151 -593 7
-69 9 -73 42 -94 42 -26 78 -17 104 27 21 36 48 186 48 264 0 197 -86 388
-222 498 -62 50 -85 53 -121 15z"/>
<path d="M3237 4642 c-46 -48 -38 -80 43 -175 39 -44 85 -110 102 -146 29 -60
32 -78 38 -196 7 -144 22 -191 71 -226 16 -11 45 -23 64 -26 l35 -6 36 77 c36
76 37 78 31 174 -5 102 -43 247 -85 329 -52 101 -205 223 -279 223 -19 0 -39
-10 -56 -28z"/>
<path d="M9029 4580 c-45 -13 -69 -30 -69 -51 0 -11 -12 -36 -26 -55 -25 -32
-26 -38 -15 -74 15 -52 54 -82 100 -78 34 3 37 6 50 53 8 28 16 82 18 122 5
80 -7 97 -58 83z"/>
<path d="M2671 4489 c-46 -10 -122 -37 -170 -60 -71 -35 -101 -57 -174 -131
-48 -49 -112 -121 -143 -159 -73 -92 -168 -169 -262 -213 -122 -58 -126 -60
-136 -87 -13 -39 1 -78 43 -121 61 -60 85 -55 238 49 l128 86 193 -48 c216
-53 322 -64 438 -45 294 47 564 239 564 401 0 62 -33 120 -106 188 -72 68
-174 122 -274 145 -87 21 -235 19 -339 -5z m383 -255 c94 -53 100 -65 56 -108
-51 -51 -141 -101 -216 -122 -66 -17 -68 -17 -285 11 -120 16 -219 32 -219 36
0 24 170 147 258 186 91 41 101 42 222 39 113 -3 116 -3 184 -42z"/>
<path d="M8873 4300 c-37 -22 -40 -41 -22 -133 10 -50 15 -57 40 -62 39 -9 47
-2 55 50 3 25 15 56 26 70 17 22 18 27 4 53 -24 47 -53 53 -103 22z"/>
<path d="M4285 4216 c-53 -23 -85 -70 -85 -126 0 -46 3 -51 37 -74 35 -24 38
-25 63 -10 36 23 50 44 50 75 0 14 7 32 15 39 23 19 18 54 -13 83 -32 31 -28
30 -67 13z"/>
<path d="M4008 3973 c-32 -34 -48 -73 -48 -118 0 -32 3 -35 55 -51 67 -21 72
-18 104 69 28 76 27 81 -15 106 -47 28 -65 26 -96 -6z"/>
<path d="M9475 3968 c-52 -30 -94 -112 -95 -181 0 -40 4 -50 19 -54 19 -5 19
-5 -1 -25 -18 -18 -20 -29 -14 -82 6 -62 22 -86 56 -86 52 0 89 114 52 160
l-19 24 31 15 c41 21 66 73 66 137 0 47 -3 54 -34 78 -40 30 -35 29 -61 14z"/>
<path d="M3757 3813 c-14 -16 -52 -142 -45 -148 2 -1 24 -10 51 -20 44 -17 48
-17 66 -1 17 15 51 113 51 145 0 13 -59 41 -88 41 -10 0 -26 -8 -35 -17z"/>
<path d="M8707 3772 c-20 -22 -34 -102 -19 -102 11 0 48 108 40 116 -3 2 -12
-4 -21 -14z"/>
<path d="M3537 3668 c-38 -39 -67 -99 -67 -140 0 -20 42 -38 89 -38 45 0 95
45 116 106 l14 39 -39 38 c-22 20 -46 37 -55 37 -8 0 -35 -19 -58 -42z"/>
<path d="M8487 3448 c-20 -18 -44 -49 -52 -70 -14 -35 -14 -36 12 -53 33 -22
46 -15 94 53 63 90 24 139 -54 70z"/>
<path d="M9277 3443 c-23 -26 -30 -67 -23 -127 7 -49 10 -56 38 -65 27 -10 33
-8 59 18 24 24 29 38 29 77 0 87 -60 144 -103 97z"/>
<path d="M3650 3303 c-8 -3 -24 -14 -36 -25 -31 -28 -18 -93 28 -131 67 -57
120 -62 173 -16 41 37 43 52 11 100 -35 51 -130 90 -176 72z"/>
<path d="M9081 3126 c-29 -41 -31 -49 -25 -101 6 -48 11 -58 36 -71 44 -23 88
10 88 66 0 11 6 31 14 43 10 15 12 35 7 62 -6 38 -8 40 -48 43 -39 3 -43 1
-72 -42z"/>
<path d="M6744 3115 c-19 -8 -36 -26 -48 -53 l-19 -42 24 -19 c13 -11 26 -20
30 -21 5 0 47 43 82 86 18 21 17 22 -10 42 -25 18 -32 19 -59 7z"/>
<path d="M3793 3065 c-55 -47 -56 -75 -6 -121 21 -19 54 -40 75 -46 l37 -11
-24 -19 c-68 -53 18 -182 108 -164 37 7 77 42 77 67 0 9 -29 43 -65 75 -65 57
-66 57 -47 78 38 41 42 60 24 96 -21 42 -57 69 -102 76 -30 5 -41 0 -77 -31z"/>
<path d="M8216 3059 c-36 -29 -51 -68 -33 -86 30 -31 95 33 85 83 -5 26 -21
27 -52 3z"/>
<path d="M6505 2945 c-32 -31 -32 -60 0 -81 23 -15 30 -15 78 -2 49 14 52 17
55 49 3 30 -1 37 -23 47 -42 19 -83 15 -110 -13z"/>
<path d="M8984 2899 c-11 -6 -25 -22 -32 -37 -6 -15 -25 -44 -43 -64 -24 -28
-33 -50 -37 -88 -4 -40 -2 -50 10 -50 9 0 28 -3 44 -6 27 -5 34 1 87 70 67 88
75 130 31 165 -30 23 -31 24 -60 10z"/>
<path d="M6305 2773 c-30 -32 -55 -64 -55 -70 0 -26 39 -53 76 -53 30 0 45 8
80 44 52 51 57 84 18 115 -40 32 -59 26 -119 -36z"/>
<path d="M7985 2779 c-54 -29 -89 -63 -116 -115 l-23 -43 23 -25 c17 -18 28
-23 40 -17 37 20 95 88 119 139 21 46 22 56 10 68 -12 12 -19 11 -53 -7z"/>
<path d="M3983 2674 c-36 -18 -58 -46 -65 -87 -4 -23 1 -33 31 -57 19 -17 45
-30 56 -30 27 0 71 46 86 90 12 33 11 35 -26 67 -44 38 -40 37 -82 17z"/>
<path d="M6100 2650 c-19 -11 -52 -26 -73 -34 -35 -14 -64 -56 -52 -76 11 -18
76 -40 117 -40 54 0 106 33 133 85 l20 36 -28 25 c-34 29 -70 30 -117 4z"/>
<path d="M8692 2515 c-61 -27 -110 -74 -136 -132 -34 -74 -34 -110 0 -123 55
-21 178 83 243 204 19 37 19 40 3 52 -22 17 -69 17 -110 -1z"/>
<path d="M5833 2475 c-92 -46 -105 -83 -38 -110 55 -24 90 -19 118 15 42 49
44 70 11 97 -16 13 -31 23 -35 23 -3 0 -28 -11 -56 -25z"/>
<path d="M7550 2365 l-54 -55 24 -18 c14 -9 29 -17 35 -17 5 0 31 29 58 64 37
49 45 66 35 72 -26 17 -45 8 -98 -46z"/>
<path d="M5600 2370 c-30 -30 -25 -48 26 -80 46 -29 48 -29 76 -12 54 31 53
37 -9 76 -31 20 -61 36 -65 36 -4 0 -17 -9 -28 -20z"/>
<path d="M5480 2291 c-38 -12 -82 -37 -108 -61 -18 -17 -22 -29 -17 -49 9 -34
21 -41 79 -41 43 0 53 4 82 35 38 40 55 102 33 116 -16 10 -35 10 -69 0z"/>
<path d="M7272 2154 c-30 -21 -57 -73 -44 -86 15 -15 42 -2 86 39 37 34 38 37
21 50 -24 17 -36 17 -63 -3z"/>
<path d="M5231 2124 c-38 -32 -39 -48 -4 -71 l26 -17 43 49 c24 26 41 52 38
57 -11 18 -73 8 -103 -18z"/>
<path d="M8307 2039 c-92 -22 -172 -91 -195 -168 -19 -61 -15 -77 18 -91 28
-12 33 -10 56 11 29 27 194 241 194 252 0 9 -24 7 -73 -4z"/>
<path d="M6965 1950 c-62 -14 -95 -44 -95 -88 0 -44 59 -31 109 22 14 14 35
26 48 26 13 0 23 4 23 10 0 18 -54 37 -85 30z"/>
<path d="M6640 1781 c-116 -24 -187 -129 -109 -162 29 -12 36 -10 94 21 50 27
65 41 83 79 30 66 16 79 -68 62z"/>
<path d="M7900 1728 c-34 -18 -50 -35 -72 -78 -31 -61 -37 -115 -12 -124 75
-29 175 42 206 147 11 36 10 40 -13 58 -32 24 -55 24 -109 -3z"/>
<path d="M7553 1432 c-13 -2 -48 -31 -78 -65 -45 -50 -55 -68 -53 -92 2 -21
11 -34 30 -43 24 -11 32 -9 80 17 51 28 100 83 112 126 4 16 -3 24 -32 40 -20
11 -47 19 -59 17z"/>
<path d="M7217 1182 l-38 -38 26 -12 c39 -18 57 -14 98 22 41 37 37 51 -19 62
-24 4 -35 -1 -67 -34z"/>
<path d="M6867 1126 c-61 -17 -121 -64 -125 -100 -3 -23 3 -29 40 -46 53 -24
89 -25 135 -3 34 16 93 84 93 107 0 13 -64 56 -82 55 -7 0 -35 -6 -61 -13z"/>
</g>
</svg>
