<?xml version="1.0" standalone="no"?>
<!DOCTYPE svg PUBLIC "-//W3C//DTD SVG 20010904//EN"
 "http://www.w3.org/TR/2001/REC-SVG-20010904/DTD/svg10.dtd">
<svg version="1.0" xmlns="http://www.w3.org/2000/svg"
 width="1024.000000pt" height="1024.000000pt" viewBox="0 0 1024.000000 1024.000000"
 preserveAspectRatio="xMidYMid meet">
<metadata>
Created by potrace 1.10, written by Peter Selinger 2001-2011
</metadata>
<g transform="translate(0.000000,1024.000000) scale(0.100000,-0.100000)"
fill="#000000" stroke="none">
<path d="M4008 9373 c-35 -5 -78 -56 -78 -91 1 -54 26 -67 201 -111 282 -70
595 -180 757 -268 68 -37 89 -44 120 -40 33 4 54 -5 205 -95 92 -56 167 -104
167 -107 0 -3 -33 -24 -72 -46 -110 -61 -253 -173 -348 -271 -224 -234 -495
-562 -714 -869 -198 -276 -234 -332 -326 -510 -56 -110 -122 -236 -145 -280
-362 -685 -489 -991 -625 -1506 -36 -139 -154 -888 -169 -1079 -31 -382 -39
-857 -21 -1135 10 -148 158 -1089 201 -1272 47 -205 140 -443 251 -642 32 -58
58 -112 58 -122 0 -23 217 -329 277 -392 52 -54 107 -89 185 -119 46 -17 57
-18 91 -7 35 12 56 38 241 303 112 160 206 296 210 303 4 7 0 25 -8 41 -8 16
-12 39 -9 50 7 28 -3 28 -96 0 -67 -20 -82 -29 -158 -102 -93 -87 -154 -167
-202 -264 l-32 -63 -37 30 c-129 101 -268 299 -368 522 -144 321 -232 622
-299 1029 -9 52 -18 104 -22 114 -5 18 1 19 175 12 l179 -8 96 41 c198 84 298
151 531 350 184 159 316 291 441 441 96 115 225 288 291 390 26 41 50 77 51
79 2 3 25 -10 51 -29 117 -83 142 -99 228 -148 198 -113 326 -160 653 -241
l236 -59 415 -27 c228 -15 450 -27 493 -27 66 -1 77 -3 77 -18 0 -9 -22 -230
-50 -491 l-49 -475 -105 -292 -106 -292 -151 -228 c-195 -292 -217 -322 -233
-316 -7 3 -37 35 -67 72 -134 165 -191 210 -299 237 -36 9 -80 21 -98 27 -41
12 -48 7 -31 -24 7 -12 11 -42 10 -65 -2 -42 -1 -45 171 -233 139 -153 178
-202 196 -248 29 -73 61 -102 112 -102 36 0 49 9 147 99 l108 100 184 335
c101 184 189 341 197 347 8 6 14 23 14 38 0 14 20 67 45 116 87 174 135 350
169 625 31 250 37 341 42 670 l6 335 -76 970 -76 970 -110 630 c-71 407 -124
682 -150 776 -97 357 -240 707 -406 995 -173 300 -437 629 -682 848 -162 144
-716 555 -817 605 -138 68 -289 110 -396 111 -30 0 -178 25 -329 55 -151 30
-279 54 -284 54 -6 -1 -23 -4 -38 -6z m1649 -917 c117 -98 308 -296 412 -426
253 -317 467 -725 617 -1175 85 -256 110 -378 209 -1014 53 -337 94 -615 93
-616 -9 -8 -843 56 -893 69 -220 55 -447 178 -589 320 -166 167 -304 436 -311
606 -3 89 -27 145 -78 184 -39 30 -78 33 -102 10 -9 -9 -46 -75 -82 -147 -61
-122 -74 -140 -211 -293 -136 -150 -169 -179 -437 -391 -328 -258 -372 -292
-433 -322 -59 -30 -184 -61 -245 -61 -57 0 -166 17 -186 29 -10 7 11 77 94
312 l107 303 286 566 c303 600 395 758 598 1030 194 260 321 411 538 644 86
93 150 149 281 246 94 70 184 143 200 163 17 19 33 36 37 36 4 1 47 -32 95
-73z m-559 -2634 c82 -190 209 -363 319 -434 233 -151 500 -269 755 -333 212
-54 317 -67 596 -72 144 -3 262 -7 262 -8 0 -2 7 -39 15 -82 11 -58 115 -1409
115 -1498 0 -11 -12 -15 -50 -15 -114 0 -1090 60 -1150 71 -255 45 -531 188
-733 380 -87 81 -97 95 -97 126 0 95 -130 177 -182 113 -9 -11 -71 -123 -137
-248 -114 -215 -127 -235 -247 -377 -299 -353 -447 -491 -780 -726 -153 -108
-202 -129 -300 -129 -44 0 -103 6 -130 14 -27 8 -70 18 -96 21 -44 7 -48 10
-52 39 -8 53 -33 737 -29 811 20 432 40 690 79 1005 14 117 91 561 99 568 2 2
26 -8 55 -23 l52 -26 164 10 c163 10 166 11 272 56 132 55 250 121 376 209 84
59 202 163 651 573 126 116 111 118 173 -25z"/>
<path d="M6982 4060 c0 -8 6 -31 13 -50 7 -19 13 -28 13 -20 0 8 -6 31 -13 50
-7 19 -13 28 -13 20z"/>
</g>
</svg>
