<?xml version="1.0" standalone="no"?>
<!DOCTYPE svg PUBLIC "-//W3C//DTD SVG 20010904//EN"
 "http://www.w3.org/TR/2001/REC-SVG-20010904/DTD/svg10.dtd">
<svg version="1.0" xmlns="http://www.w3.org/2000/svg"
 width="1024.000000pt" height="1024.000000pt" viewBox="0 0 1024.000000 1024.000000"
 preserveAspectRatio="xMidYMid meet">
<metadata>
Created by potrace 1.10, written by Peter Selinger 2001-2011
</metadata>
<g transform="translate(0.000000,1024.000000) scale(0.100000,-0.100000)"
fill="#000000" stroke="none">
<path d="M4353 8484 c-24 -14 -43 -30 -43 -35 0 -5 18 -45 40 -89 22 -44 40
-92 40 -107 0 -113 -297 -526 -610 -847 -234 -241 -607 -529 -1057 -816 -73
-47 -133 -91 -133 -97 0 -7 2 -13 5 -13 2 0 107 36 232 80 338 120 653 281
993 511 213 143 376 283 645 552 l240 240 595 79 c327 43 610 76 628 72 21 -3
37 -13 43 -28 13 -29 -1 -65 -78 -195 -72 -122 -750 -1138 -766 -1148 -6 -3
-358 -32 -781 -64 l-770 -57 -81 43 c-44 24 -104 50 -133 59 -52 15 -54 15
-132 -16 -44 -17 -80 -36 -80 -42 0 -6 8 -23 18 -37 72 -107 90 -138 101 -169
7 -19 23 -129 36 -245 21 -180 25 -256 25 -530 -1 -1255 -80 -2025 -271 -2622
-91 -285 -270 -640 -472 -935 -68 -99 -78 -120 -67 -133 33 -40 108 2 227 129
160 169 298 374 427 633 157 315 237 560 342 1045 28 127 28 128 58 132 29 5
3157 227 3184 226 9 0 12 -155 12 -740 0 -900 11 -839 -151 -840 -140 0 -354
51 -599 143 -92 35 -96 36 -113 18 -18 -18 -13 -23 165 -156 329 -249 460
-365 555 -493 64 -86 115 -126 183 -142 58 -14 78 -9 116 28 52 52 93 162 137
371 l42 196 5 1845 c7 1989 4 1897 62 2106 35 126 33 146 -14 200 -70 80 -266
205 -343 220 -26 4 -86 -6 -223 -40 l-187 -47 -500 -34 c-274 -19 -500 -33
-502 -31 -2 1 31 40 73 87 181 199 480 557 814 974 104 129 137 162 227 223
76 52 121 101 129 137 5 28 -1 37 -68 100 -40 39 -96 87 -124 107 -67 49 -171
98 -209 98 -16 0 -97 -27 -180 -60 -252 -99 -270 -103 -840 -169 -238 -28
-251 -29 -270 -12 -259 225 -321 271 -430 322 -90 42 -121 45 -172 13z m2364
-2038 c50 -42 53 -69 53 -505 l0 -401 -23 0 c-13 0 -335 -18 -717 -40 -382
-22 -707 -40 -723 -40 l-29 0 7 333 c3 182 11 371 17 418 10 85 10 87 -15 125
-15 21 -24 40 -21 43 8 8 1187 88 1316 90 99 1 108 -1 135 -23z m-1840 -158
c72 -107 93 -245 93 -622 l0 -232 -657 -52 c-362 -29 -662 -52 -667 -52 -10 0
-3 906 7 917 4 4 157 19 340 35 182 16 427 37 542 47 324 28 293 32 342 -41z
m1893 -1483 l0 -484 -32 -5 c-40 -6 -1368 -87 -1420 -86 l-38 0 0 485 c0 267
1 485 3 486 11 3 1350 87 1410 88 l77 1 0 -485z m-1800 -115 l0 -490 -22 0
c-13 -1 -324 -25 -693 -54 -368 -29 -672 -52 -674 -50 -7 6 56 964 63 972 5 5
1190 106 1299 111 l27 1 0 -490z"/>
</g>
</svg>
