<?xml version="1.0" standalone="no"?>
<!DOCTYPE svg PUBLIC "-//W3C//DTD SVG 20010904//EN"
 "http://www.w3.org/TR/2001/REC-SVG-20010904/DTD/svg10.dtd">
<svg version="1.0" xmlns="http://www.w3.org/2000/svg"
 width="1024.000000pt" height="1024.000000pt" viewBox="0 0 1024.000000 1024.000000"
 preserveAspectRatio="xMidYMid meet">
<metadata>
Created by potrace 1.10, written by Peter Selinger 2001-2011
</metadata>
<g transform="translate(0.000000,1024.000000) scale(0.100000,-0.100000)"
fill="#000000" stroke="none">
<path d="M3755 8479 c-22 -17 -48 -37 -59 -44 -18 -13 -17 -18 24 -114 52
-122 51 -148 -11 -308 -99 -254 -232 -507 -532 -1008 -339 -567 -667 -1029
-1073 -1515 -224 -268 -276 -325 -526 -577 -208 -210 -225 -233 -184 -249 8
-3 126 57 267 138 l253 143 341 325 c187 179 417 400 512 490 156 150 195 195
428 495 142 182 265 338 275 348 16 18 19 17 62 -12 87 -59 168 -91 229 -91
49 0 569 48 2229 205 1404 133 1659 156 1704 153 49 -3 52 -5 75 -47 70 -127
30 -460 -234 -1984 -87 -505 -212 -980 -352 -1347 -81 -211 -155 -315 -267
-374 -42 -22 -62 -26 -137 -26 -48 0 -117 7 -152 15 -81 19 -278 86 -384 131
-45 20 -90 34 -100 32 -19 -3 -36 -54 -25 -74 4 -7 113 -124 242 -260 129
-136 250 -268 268 -293 50 -68 96 -165 126 -263 20 -67 33 -92 58 -113 29 -24
37 -26 82 -20 113 15 225 99 350 265 273 362 515 1041 765 2150 28 124 117
565 196 980 80 415 155 791 166 835 12 44 50 140 85 214 35 73 64 142 64 152
0 32 -39 125 -79 185 -76 119 -275 305 -384 360 -48 25 -58 26 -147 21 -75 -4
-121 -13 -206 -42 -120 -41 -34 -29 -1269 -170 -1949 -221 -2340 -265 -2377
-265 -34 0 -328 47 -335 54 -7 7 428 654 505 750 91 115 152 216 152 254 0 36
-51 119 -112 182 -134 139 -335 305 -400 329 -59 21 -72 20 -113 -10z"/>
</g>
</svg>
