<?xml version="1.0" standalone="no"?>
<!DOCTYPE svg PUBLIC "-//W3C//DTD SVG 20010904//EN"
 "http://www.w3.org/TR/2001/REC-SVG-20010904/DTD/svg10.dtd">
<svg version="1.0" xmlns="http://www.w3.org/2000/svg"
 width="1024.000000pt" height="1024.000000pt" viewBox="0 0 1024.000000 1024.000000"
 preserveAspectRatio="xMidYMid meet">
<metadata>
Created by potrace 1.10, written by Peter Selinger 2001-2011
</metadata>
<g transform="translate(0.000000,1024.000000) scale(0.100000,-0.100000)"
fill="#000000" stroke="none">
<path d="M5255 9462 c-57 -12 -92 -83 -105 -208 -28 -291 -44 -1024 -25 -1175
l7 -56 -74 -7 c-307 -30 -738 -138 -1082 -272 -379 -148 -621 -299 -857 -534
-301 -300 -446 -598 -493 -1015 -59 -526 -39 -1106 55 -1565 69 -336 209 -748
322 -944 115 -203 352 -470 572 -647 l110 -89 115 0 c63 0 121 4 129 9 35 22
-30 143 -123 229 -30 26 -105 80 -168 120 -63 40 -133 91 -155 114 -22 24 -46
48 -54 54 -8 6 -26 24 -42 40 -15 16 -34 36 -42 44 -51 49 -126 169 -155 247
-18 49 -61 158 -95 243 -150 370 -216 650 -270 1136 -48 439 -30 786 60 1144
33 131 106 343 142 415 135 266 512 575 905 744 142 61 394 148 564 195 176
48 461 105 564 112 47 3 404 -6 794 -20 l709 -26 136 -31 c158 -36 248 -77
368 -168 147 -111 241 -245 262 -376 9 -55 -16 -491 -69 -1220 -6 -80 -38
-302 -75 -520 -65 -379 -65 -380 -115 -485 -27 -58 -81 -189 -119 -293 -59
-159 -83 -209 -158 -328 -174 -278 -376 -531 -605 -755 -195 -192 -240 -229
-618 -508 -119 -88 -334 -302 -422 -420 -37 -50 -95 -137 -129 -195 -34 -59
-85 -142 -114 -186 -36 -54 -55 -95 -60 -125 -4 -25 -15 -67 -25 -95 -36 -99
-50 -152 -75 -290 -14 -77 -32 -158 -40 -180 -8 -24 -18 -130 -25 -270 -7
-126 -20 -293 -29 -371 -16 -138 -16 -142 4 -231 25 -106 45 -143 79 -143 35
0 122 72 134 112 6 18 13 141 16 273 5 267 22 428 66 649 104 512 245 808 501
1051 35 34 242 211 459 395 217 184 451 391 520 460 435 435 735 946 899 1530
127 452 231 1309 234 1930 1 261 -8 317 -75 463 -79 171 -243 330 -440 426
-74 36 -135 52 -488 125 l-265 54 -472 11 c-259 6 -479 8 -488 5 -16 -6 -17 1
-11 82 3 49 13 260 21 469 9 209 22 432 30 496 26 202 17 269 -43 332 -34 36
-51 45 -77 39z"/>
</g>
</svg>
