<?xml version="1.0" standalone="no"?>
<!DOCTYPE svg PUBLIC "-//W3C//DTD SVG 20010904//EN"
 "http://www.w3.org/TR/2001/REC-SVG-20010904/DTD/svg10.dtd">
<svg version="1.0" xmlns="http://www.w3.org/2000/svg"
 width="1024.000000pt" height="1024.000000pt" viewBox="0 0 1024.000000 1024.000000"
 preserveAspectRatio="xMidYMid meet">
<metadata>
Created by potrace 1.10, written by Peter Selinger 2001-2011
</metadata>
<g transform="translate(0.000000,1024.000000) scale(0.100000,-0.100000)"
fill="#000000" stroke="none">
<path d="M5551 9639 c-88 -30 -123 -54 -148 -103 -21 -41 -43 -130 -43 -176
l0 -40 -54 0 c-63 0 -194 -43 -301 -98 -101 -53 -202 -157 -255 -265 -32 -65
-45 -106 -57 -186 -15 -97 -15 -107 2 -156 18 -53 16 -100 -6 -172 -8 -24 -17
-33 -36 -35 -21 -2 -37 -19 -72 -77 l-46 -75 1 -89 2 -89 70 -102 c69 -100 70
-101 130 -119 59 -18 60 -18 81 -76 11 -32 43 -89 71 -127 27 -38 70 -99 95
-136 26 -37 71 -90 101 -117 l55 -49 -25 -51 c-14 -27 -26 -61 -26 -74 0 -14
-7 -30 -15 -37 -8 -7 -15 -27 -15 -44 0 -95 -122 -167 -485 -285 -88 -29 -151
-60 -312 -155 -190 -112 -218 -132 -457 -335 l-255 -216 -265 -313 c-146 -172
-278 -335 -295 -362 -17 -28 -35 -50 -40 -50 -5 0 -121 -201 -259 -447 -303
-543 -307 -553 -305 -763 1 -210 30 -321 168 -645 156 -365 265 -575 335 -650
32 -33 65 -75 74 -92 9 -18 20 -33 24 -33 4 -1 17 -9 30 -20 l24 -19 -56 -178
c-46 -147 -67 -242 -122 -548 -36 -203 -70 -404 -76 -445 -15 -117 2 -270 52
-460 5 -19 12 -52 15 -72 4 -24 16 -46 36 -62 53 -45 91 -29 110 45 11 42 10
53 -10 105 -13 33 -31 99 -39 149 -15 82 -14 106 2 297 9 114 21 220 26 235 5
16 42 192 81 393 69 355 72 369 126 488 38 85 53 131 49 147 -4 17 10 54 54
135 33 61 60 115 60 119 0 18 114 248 135 271 31 35 205 357 212 392 3 15 9
30 12 33 8 4 152 -13 159 -19 6 -6 -15 -70 -43 -131 -42 -92 -114 -350 -135
-485 -5 -30 -25 -167 -45 -305 -19 -137 -42 -266 -50 -285 -8 -19 -55 -291
-104 -605 -102 -644 -122 -845 -101 -1020 19 -162 88 -364 138 -409 23 -20 53
-17 87 8 19 14 19 16 -17 143 -46 158 -64 356 -55 598 8 187 17 266 91 757 31
202 56 369 56 372 0 3 9 13 19 23 16 15 26 64 55 263 23 158 55 322 89 462 30
120 50 221 45 226 -10 10 60 219 96 286 14 27 26 57 26 67 0 30 36 42 101 35
52 -6 59 -5 69 14 9 16 21 20 65 20 30 0 72 -6 92 -14 21 -8 59 -20 85 -26 55
-14 54 -10 11 -135 -13 -38 -47 -135 -74 -215 -28 -80 -90 -309 -140 -510 -49
-201 -96 -381 -103 -400 -37 -94 -56 -302 -82 -890 -14 -323 -23 -623 -20
-670 17 -220 51 -426 96 -580 36 -121 80 -165 139 -140 16 6 31 19 33 28 2 10
-20 132 -48 272 l-52 255 -12 346 c-16 483 -3 842 41 1109 12 68 27 136 34
150 7 14 15 42 19 62 4 20 13 50 21 65 8 16 14 54 14 88 0 33 7 98 16 145 20
102 190 673 210 704 7 11 30 73 51 136 20 63 40 119 45 124 5 6 23 5 46 -2 21
-7 94 -17 163 -23 69 -6 126 -12 128 -13 1 -2 -14 -38 -33 -80 -20 -43 -51
-124 -71 -180 -44 -124 -145 -529 -174 -691 -11 -66 -27 -138 -35 -160 -8 -22
-32 -204 -55 -405 -67 -596 -56 -839 61 -1350 40 -175 54 -219 73 -239 24 -23
26 -24 63 -9 38 14 38 14 36 69 -1 30 -27 178 -57 330 -63 316 -76 427 -76
664 0 286 38 689 72 765 24 55 50 169 53 230 2 36 26 178 55 315 49 242 54
257 141 470 50 122 94 227 99 235 7 12 22 12 100 1 77 -11 94 -11 108 1 35 29
69 38 101 25 23 -8 29 -16 26 -32 -3 -11 -14 -58 -25 -105 -12 -47 -27 -155
-35 -240 -8 -85 -14 -156 -14 -156 -1 -1 -26 -4 -57 -8 -70 -8 -109 -28 -129
-66 -40 -77 -8 -110 110 -111 l80 -1 -140 -19 c-192 -26 -261 -44 -323 -85
-64 -42 -71 -57 -45 -92 17 -22 32 -29 88 -37 l68 -10 -61 -43 c-96 -67 -81
-111 38 -112 50 0 61 -3 52 -12 -7 -7 -12 -27 -12 -45 0 -27 6 -37 33 -53 17
-11 50 -20 72 -20 30 0 36 -3 27 -12 -22 -22 -14 -72 16 -101 35 -33 56 -34
134 -2 34 14 63 25 66 25 7 0 -9 -114 -18 -125 -16 -19 13 -419 45 -630 18
-119 182 -830 199 -864 8 -14 22 -54 31 -89 13 -46 27 -70 52 -92 38 -34 58
-37 108 -16 43 18 47 52 10 86 -38 36 -147 390 -209 681 -60 282 -76 428 -79
756 -3 256 -6 295 -20 311 -10 10 -17 21 -17 25 0 3 27 25 60 47 34 23 85 61
115 86 30 24 57 44 60 44 3 0 5 -33 4 -72 -1 -40 3 -91 9 -113 7 -23 14 -61
17 -85 8 -61 57 -205 99 -288 l34 -68 -10 -84 c-13 -112 -4 -209 42 -483 44
-254 90 -399 141 -432 15 -11 31 -36 39 -62 7 -25 23 -57 35 -71 12 -15 40
-67 61 -117 48 -114 59 -130 93 -145 41 -17 91 9 91 47 0 36 -171 422 -221
499 -37 57 -44 80 -84 273 -33 155 -45 234 -45 296 0 47 3 85 6 85 3 0 18 -8
32 -19 97 -68 230 -111 343 -111 172 0 258 31 419 150 52 38 98 70 102 70 8 0
59 -156 78 -240 7 -30 16 -59 20 -65 5 -5 17 -57 29 -115 32 -167 48 -286 75
-580 3 -25 -2 -100 -10 -168 -15 -135 -11 -156 32 -172 38 -15 61 -12 82 10
16 18 21 49 31 218 11 172 11 213 -3 322 -46 356 -135 737 -197 846 l-28 50
69 127 c39 69 70 133 70 140 0 8 38 146 85 308 82 282 88 309 146 673 l60 379
18 591 17 591 -43 262 c-42 258 -44 264 -128 497 -47 130 -85 241 -85 247 0
20 -211 412 -255 474 -68 95 -211 250 -325 352 -71 64 -205 162 -415 302 -171
115 -317 216 -325 226 -8 9 -46 43 -85 75 -66 54 -71 61 -83 116 -18 80 -9
109 54 167 30 27 75 76 102 110 48 61 152 229 152 246 0 5 33 29 73 55 88 54
161 129 189 194 26 58 35 175 18 226 -16 49 -54 92 -101 117 -46 23 -44 10
-23 219 23 227 8 338 -60 444 -50 79 -109 140 -193 203 l-73 54 0 80 c0 94
-16 138 -68 192 -39 41 -109 68 -171 66 -20 0 -74 -14 -120 -30z m173 -870
c108 -39 114 -43 231 -147 133 -118 127 -104 100 -222 -8 -36 -23 -117 -35
-181 -13 -76 -36 -154 -66 -228 -33 -84 -43 -121 -39 -142 9 -40 -63 -147
-170 -255 -125 -126 -157 -144 -284 -160 l-106 -13 -70 37 c-106 56 -275 228
-275 281 0 6 -18 40 -40 75 -53 83 -62 116 -106 400 l-38 238 24 20 c14 11 67
59 119 106 202 187 298 230 520 231 121 1 127 0 235 -40z m500 -531 c11 -43 6
-60 -35 -119 -23 -32 -43 -59 -44 -59 -2 0 9 45 22 100 25 99 44 125 57 78z
m-1506 -50 c21 -126 24 -148 18 -148 -3 0 -19 20 -35 44 -29 41 -30 49 -25
105 9 81 29 81 42 -1z m902 -893 c0 -8 10 -44 22 -80 21 -65 62 -115 93 -115
7 0 43 -33 79 -72 54 -60 64 -77 60 -98 -6 -25 -73 -196 -102 -260 -16 -34
-302 -463 -326 -488 -10 -11 -22 -2 -62 47 -47 58 -69 94 -112 191 -32 71 -92
283 -92 326 0 44 -31 118 -61 150 -24 25 -26 19 65 173 31 52 56 103 56 113 0
11 9 36 20 57 l19 39 86 -18 c97 -20 130 -16 196 24 51 30 59 32 59 11z m-519
-820 c61 -175 98 -250 171 -350 55 -75 64 -92 54 -107 -6 -10 -13 -18 -16 -18
-7 0 -220 385 -220 398 0 6 -9 26 -19 44 -11 18 -25 67 -31 108 -15 93 -37
153 -79 213 l-32 47 33 13 33 14 32 -121 c17 -67 50 -175 74 -241z m1146 243
c84 -49 146 -98 289 -228 178 -161 186 -170 347 -390 155 -213 168 -234 236
-389 53 -122 90 -228 141 -405 85 -302 110 -460 117 -746 5 -199 3 -225 -66
-901 l-70 -695 -87 -335 c-48 -184 -89 -336 -91 -338 -8 -10 -126 118 -306
334 -106 126 -249 288 -318 360 -69 71 -164 180 -211 240 -88 114 -198 225
-280 284 -27 19 -48 38 -48 42 0 15 158 152 240 208 47 32 219 123 382 203
l297 146 170 148 c194 168 224 212 191 274 -31 58 -82 42 -149 -47 -48 -63
-184 -175 -216 -178 -30 -3 -130 -68 -130 -85 0 -17 -134 -102 -147 -94 -5 3
-58 -7 -118 -22 -158 -41 -151 -57 -126 281 28 375 73 606 147 743 49 92 51
130 8 166 -36 30 -46 32 -77 10 -49 -34 -138 -264 -166 -429 -45 -266 -56
-341 -66 -450 -5 -66 -13 -147 -16 -180 -3 -33 -2 -77 4 -97 6 -21 9 -38 8
-38 -14 0 -459 -84 -509 -96 -59 -14 -81 -15 -160 -5 -50 7 -92 13 -93 14 -1
1 -5 12 -8 24 -6 18 -2 25 16 33 21 10 58 78 58 107 0 17 -33 33 -69 33 -29 0
-30 0 -15 28 38 74 15 84 -206 86 l-176 1 36 26 c78 57 99 113 61 161 -38 47
-89 47 -232 -2 -131 -45 -267 -105 -365 -161 -32 -19 -103 -54 -156 -78 l-97
-44 -116 33 c-90 27 -113 36 -103 46 7 6 137 108 288 225 371 288 849 682 882
727 15 20 56 63 92 95 37 32 73 71 81 87 8 15 146 230 308 476 281 430 467
750 467 803 0 21 10 51 16 51 3 0 53 -28 111 -62z m-1390 -138 c36 -85 90
-207 119 -270 30 -63 54 -121 54 -127 0 -7 20 -43 44 -81 24 -37 53 -89 64
-115 12 -26 35 -59 52 -73 16 -14 30 -31 30 -36 0 -20 -122 -202 -157 -234
-18 -18 -33 -40 -33 -50 0 -35 -98 -141 -297 -321 -319 -287 -423 -378 -436
-378 -18 0 -57 -37 -57 -54 0 -14 -251 -274 -258 -267 -2 2 83 206 187 453
114 269 191 463 191 482 0 42 -22 83 -53 100 -23 12 -29 11 -56 -8 -20 -15
-34 -36 -41 -64 -41 -156 -60 -209 -124 -352 -63 -140 -75 -160 -97 -162 -13
-1 -52 -4 -86 -6 -45 -2 -71 -9 -93 -25 -20 -15 -35 -20 -45 -15 -24 14 -64
74 -58 89 8 20 -9 17 -61 -12 -36 -20 -54 -25 -81 -20 -46 9 -44 -2 5 -37 22
-16 40 -35 40 -43 0 -22 70 -93 113 -116 22 -11 64 -22 93 -25 49 -5 56 -3 79
21 34 36 49 34 31 -6 -29 -69 -88 -188 -93 -188 -2 0 -2 13 2 29 5 26 1 31
-43 60 -27 17 -104 92 -171 166 -68 74 -130 135 -139 135 -22 0 -52 -30 -52
-52 0 -28 127 -247 169 -290 l35 -38 -55 0 c-64 0 -86 -13 -95 -55 -5 -26 0
-36 27 -63 18 -17 48 -35 66 -38 l33 -6 -54 -58 c-61 -66 -130 -167 -174 -255
-57 -115 -310 -750 -322 -810 -7 -33 -18 -71 -25 -85 -7 -14 -22 -63 -35 -110
-12 -47 -24 -89 -27 -94 -7 -10 -107 160 -132 223 -10 25 -62 137 -115 249
-144 300 -193 471 -198 687 -2 87 -1 94 49 220 29 72 95 221 147 333 53 112
96 210 96 217 0 8 8 19 18 24 9 5 28 28 42 50 14 23 29 41 35 41 20 0 134 148
170 221 68 134 153 244 329 427 94 97 221 229 281 293 109 114 353 329 374
329 6 0 28 10 49 23 20 13 87 50 147 82 61 32 150 85 199 118 121 81 228 128
284 124 l43 -2 66 -155z m1077 75 c-15 -31 -32 -59 -36 -61 -5 -3 6 24 24 60
17 36 34 63 36 61 3 -2 -8 -30 -24 -60z m-260 -427 c-5 -7 -73 -116 -152 -243
-122 -194 -142 -232 -133 -248 7 -10 8 -23 5 -30 -23 -39 -170 -220 -197 -244
-19 -15 -49 -47 -67 -71 -19 -24 -100 -102 -180 -174 -80 -72 -161 -148 -180
-169 -30 -31 -141 -113 -475 -347 -68 -48 -63 -44 373 353 370 336 383 348
377 377 -7 28 2 40 137 177 122 123 172 184 318 389 96 133 176 242 178 242 2
0 0 -6 -4 -12z m-787 -1828 c-43 -28 -87 -50 -98 -50 -60 0 -129 -59 -129
-111 0 -34 25 -44 78 -33 21 4 52 7 70 5 17 -1 32 2 32 7 0 5 53 12 118 16 64
4 137 9 162 11 35 4 29 0 -32 -16 -91 -25 -108 -48 -65 -85 l25 -22 -24 -11
c-26 -11 -30 -31 -14 -62 8 -15 21 -19 60 -19 27 0 52 -4 55 -10 4 -6 -12 -10
-42 -10 -26 0 -85 -3 -130 -6 -73 -6 -82 -9 -94 -31 -23 -42 12 -60 131 -68
86 -7 100 -10 100 -25 0 -31 -55 -41 -222 -40 -113 0 -157 -3 -160 -11 -5 -15
-208 22 -312 58 l-69 23 -131 -17 c-113 -14 -151 -15 -276 -5 -123 10 -169 19
-301 59 l-157 47 16 33 c8 17 18 30 22 28 12 -8 33 49 35 95 2 38 8 49 42 80
23 19 53 54 67 78 l27 43 32 -21 c130 -87 398 -173 585 -187 78 -6 98 3 86 38
-3 12 3 19 23 23 15 4 64 29 108 55 122 74 198 110 325 152 63 21 120 38 125
39 6 0 -25 -23 -68 -50z m1328 -439 c-6 -5 -65 -43 -133 -85 -115 -72 -126
-77 -165 -71 -31 4 -62 -1 -116 -19 -41 -15 -88 -26 -105 -26 -54 -1 -506 44
-506 50 0 3 9 20 20 38 l20 32 95 0 c64 0 103 -5 118 -14 36 -22 282 5 527 58
210 45 261 53 245 37z m-2678 -180 c-11 -36 -39 -109 -62 -161 -38 -83 -46
-95 -66 -93 -22 2 -37 -24 -169 -293 -80 -163 -146 -287 -148 -277 -4 30 114
414 167 541 27 64 52 137 56 162 4 25 30 93 59 152 l51 106 66 -36 66 -36 -20
-65z m2187 -208 c-29 -95 -50 -264 -41 -332 4 -35 6 -65 4 -68 -6 -5 -151 -21
-156 -17 -6 5 28 304 39 339 5 17 14 49 20 72 9 37 13 41 28 32 14 -9 30 -7
67 4 28 8 51 15 52 16 0 1 -5 -20 -13 -46z m189 -221 c33 -25 67 -59 78 -76
l19 -31 -88 -22 c-123 -32 -115 -36 -108 55 9 108 15 133 29 125 7 -3 38 -27
70 -51z m193 -197 c15 -14 33 -25 40 -25 7 0 52 -37 99 -83 76 -75 85 -87 85
-120 0 -23 5 -37 13 -37 23 -1 -17 -17 -193 -79 -96 -33 -223 -71 -281 -84
l-105 -24 -144 -113 c-129 -100 -211 -152 -286 -181 -44 -16 -18 7 116 101 71
50 130 94 130 97 0 11 -35 32 -54 33 -10 0 -75 -20 -144 -45 -69 -25 -134 -45
-144 -43 -11 2 48 27 131 57 83 30 156 60 162 68 21 25 -5 63 -42 63 -31 0
-32 1 -14 20 12 13 15 27 11 45 -5 21 -12 25 -45 25 -21 0 -53 3 -71 6 l-32 7
37 13 c20 6 93 20 162 30 92 14 127 22 131 34 5 14 32 77 40 93 2 4 -18 7 -45
7 -26 0 -56 7 -67 15 -14 10 -36 12 -85 8 -36 -3 -64 -3 -61 0 3 3 99 15 213
28 201 22 212 24 305 65 54 23 100 43 104 43 4 1 19 -10 34 -24z m339 -399 c8
3 103 -106 250 -287 l237 -292 -11 -43 c-6 -23 -11 -58 -11 -76 0 -27 -13 -47
-78 -114 -142 -148 -255 -201 -414 -192 -60 3 -103 13 -153 33 -88 35 -114 55
-176 130 -64 76 -157 261 -140 278 19 19 12 52 -29 143 -40 87 -40 87 -34 178
4 50 10 98 15 107 5 10 65 31 172 59 123 32 187 54 253 89 l89 47 8 -32 c6
-21 13 -31 22 -28z"/>
<path d="M5063 8510 c-31 -28 -36 -55 -18 -89 l15 -31 73 6 72 6 34 -36 c40
-41 78 -47 106 -16 24 27 13 61 -38 114 -46 49 -92 66 -173 66 -36 0 -56 -5
-71 -20z"/>
<path d="M5566 8495 c-26 -28 -34 -77 -18 -101 4 -6 22 -15 40 -19 28 -6 36
-3 48 14 12 16 26 21 61 21 37 0 50 -5 72 -29 45 -49 97 -52 124 -9 13 19 -49
124 -78 132 -11 3 -66 9 -122 12 l-101 7 -26 -28z"/>
<path d="M5025 8280 c-34 -38 11 -102 99 -140 63 -28 104 -21 145 26 17 19 31
41 31 49 0 23 -58 47 -99 42 -25 -3 -51 3 -83 19 -58 29 -70 30 -93 4z"/>
<path d="M5552 8268 c-19 -19 -14 -63 11 -86 26 -24 97 -52 134 -52 60 0 133
73 112 112 -9 16 -18 17 -77 12 -53 -5 -75 -3 -100 10 -37 19 -64 20 -80 4z"/>
<path d="M5321 8103 c-21 -41 -39 -125 -34 -158 8 -48 46 -87 80 -83 40 4 54
40 51 125 -3 64 -7 76 -33 103 -33 34 -50 38 -64 13z"/>
<path d="M5267 7720 c-44 -13 -58 -29 -51 -59 9 -38 20 -48 69 -67 59 -22 109
-12 152 31 63 63 32 106 -77 104 -36 0 -78 -5 -93 -9z"/>
<path d="M4556 6124 c-4 -9 -4 -19 -1 -22 2 -3 7 3 11 12 4 9 4 19 1 22 -2 3
-7 -3 -11 -12z"/>
</g>
</svg>
