<?xml version="1.0" standalone="no"?>
<!DOCTYPE svg PUBLIC "-//W3C//DTD SVG 20010904//EN"
 "http://www.w3.org/TR/2001/REC-SVG-20010904/DTD/svg10.dtd">
<svg version="1.0" xmlns="http://www.w3.org/2000/svg"
 width="1024.000000pt" height="1024.000000pt" viewBox="0 0 1024.000000 1024.000000"
 preserveAspectRatio="xMidYMid meet">
<metadata>
Created by potrace 1.10, written by Peter Selinger 2001-2011
</metadata>
<g transform="translate(0.000000,1024.000000) scale(0.100000,-0.100000)"
fill="#000000" stroke="none">
<path d="M5272 9552 c-34 -10 -99 -79 -123 -130 -12 -24 -24 -65 -27 -90 -2
-26 -12 -56 -22 -67 -10 -11 -52 -85 -94 -165 -74 -142 -77 -147 -173 -231
-225 -199 -446 -360 -686 -498 -48 -27 -424 -206 -835 -397 -411 -190 -792
-371 -847 -401 -283 -155 -557 -380 -771 -635 -43 -51 -111 -129 -150 -174
-154 -175 -282 -450 -343 -739 -12 -55 -29 -120 -37 -144 -32 -85 -3 -329 55
-463 13 -31 55 -78 142 -160 l124 -117 135 -48 135 -48 165 0 c185 0 261 15
395 80 183 88 365 276 365 377 0 18 9 76 21 128 12 57 22 154 26 244 6 141 5
154 -18 219 -31 89 -80 137 -138 137 -49 0 -80 -29 -136 -125 -78 -133 -207
-250 -348 -316 -72 -33 -193 -67 -203 -56 -4 4 -1 55 8 115 13 95 21 121 76
236 35 71 91 173 126 225 74 111 210 271 231 271 41 0 353 -164 529 -278 176
-113 496 -367 496 -392 0 -6 -83 -114 -184 -241 -245 -309 -308 -417 -370
-632 -37 -127 -46 -195 -46 -343 l0 -130 37 -21 c35 -19 49 -20 188 -14 219
10 174 -17 699 411 185 151 340 273 344 271 4 -2 292 -333 640 -735 747 -862
875 -996 1152 -1210 41 -32 81 -68 87 -81 7 -12 41 -45 75 -72 35 -28 578
-529 1207 -1114 630 -585 1175 -1087 1212 -1116 158 -121 475 -318 593 -367
54 -23 117 -21 144 4 63 59 106 211 106 375 0 188 -55 627 -110 875 -30 133
-118 424 -138 454 -7 12 -18 49 -24 82 -6 34 -24 88 -40 120 -16 33 -46 120
-66 195 -128 482 -356 971 -655 1399 -72 104 -245 291 -1322 1427 -681 718
-1239 1310 -1239 1315 0 4 114 133 253 285 433 477 453 499 472 539 25 52 34
104 25 151 -4 23 -1 53 7 77 7 21 13 59 13 83 0 38 -5 50 -33 78 -84 84 -160
67 -547 -120 -151 -73 -322 -154 -380 -179 -79 -35 -147 -78 -275 -171 -93
-69 -175 -123 -180 -122 -6 1 -124 118 -262 261 l-252 259 57 41 c31 23 182
131 336 241 295 212 377 280 479 403 182 218 267 417 269 627 2 131 -21 194
-93 259 -68 61 -191 98 -257 78z m-742 -2044 c149 -144 267 -265 263 -269 -5
-3 -44 -33 -88 -65 -316 -229 -517 -408 -1065 -949 l-145 -143 -115 95 c-253
209 -486 372 -695 488 -77 43 -146 83 -152 89 -10 9 21 36 134 116 82 58 214
155 295 216 217 163 362 244 846 475 241 115 440 208 444 209 4 0 129 -118
278 -262z m990 -968 c22 -29 506 -529 1075 -1110 l1037 -1058 252 -324 c269
-344 328 -432 436 -653 82 -167 132 -291 198 -491 27 -82 109 -313 182 -514
l132 -365 89 -510 c78 -447 89 -524 89 -627 0 -65 -2 -118 -5 -118 -3 0 -139
89 -303 199 l-297 198 -1615 1517 -1615 1517 -492 582 c-270 320 -489 585
-487 589 3 4 55 49 117 99 62 50 287 262 500 471 214 208 393 378 397 376 5
-2 69 -82 142 -180 181 -240 314 -392 532 -611 152 -152 229 -219 423 -368
195 -150 271 -216 423 -369 186 -186 309 -325 466 -526 93 -120 678 -982 714
-1054 13 -25 56 -87 96 -139 41 -52 74 -102 74 -111 0 -9 9 -25 20 -35 11 -10
20 -28 20 -40 0 -13 19 -49 43 -81 33 -46 48 -79 66 -148 16 -64 33 -105 64
-150 23 -33 45 -77 48 -96 6 -34 28 -123 52 -209 13 -45 50 -81 84 -81 11 0
30 11 42 24 22 23 23 30 16 92 -13 126 -55 244 -125 354 -16 25 -38 83 -50
130 -31 122 -150 334 -284 504 -25 33 -46 67 -46 75 0 9 -22 43 -48 76 -27 33
-66 93 -88 134 -21 40 -49 78 -61 84 -13 6 -93 120 -190 271 -160 250 -183
280 -526 691 -322 385 -365 433 -413 458 -34 17 -63 42 -80 67 -15 22 -66 68
-118 105 -286 202 -619 519 -801 763 -11 15 -54 67 -96 117 -42 49 -79 101
-82 115 -4 14 -52 78 -107 142 -55 65 -100 121 -100 126 0 12 150 155 156 149
3 -2 22 -28 44 -57z"/>
<path d="M5723 4306 l-28 -24 33 -69 c89 -180 252 -371 432 -506 52 -40 170
-142 261 -229 179 -168 240 -209 317 -212 37 -1 46 3 53 21 7 20 -13 42 -174
196 -100 96 -246 230 -324 298 -89 78 -213 203 -334 337 -106 116 -196 212
-200 212 -4 0 -21 -11 -36 -24z"/>
<path d="M10125 810 l-30 -7 28 -11 c41 -17 57 -15 57 8 0 21 -6 22 -55 10z"/>
</g>
</svg>
