<?xml version="1.0" standalone="no"?>
<!DOCTYPE svg PUBLIC "-//W3C//DTD SVG 20010904//EN"
 "http://www.w3.org/TR/2001/REC-SVG-20010904/DTD/svg10.dtd">
<svg version="1.0" xmlns="http://www.w3.org/2000/svg"
 width="1024.000000pt" height="1024.000000pt" viewBox="0 0 1024.000000 1024.000000"
 preserveAspectRatio="xMidYMid meet">
<metadata>
Created by potrace 1.10, written by Peter Selinger 2001-2011
</metadata>
<g transform="translate(0.000000,1024.000000) scale(0.100000,-0.100000)"
fill="#000000" stroke="none">
<path d="M6871 8311 c-47 -13 -65 -52 -62 -140 6 -208 -165 -479 -409 -649
-52 -36 -133 -96 -180 -132 -397 -306 -898 -599 -1385 -809 -557 -240 -958
-444 -1415 -719 -463 -279 -730 -482 -1061 -812 -273 -271 -429 -478 -577
-767 -280 -548 -388 -1119 -297 -1569 20 -97 205 -526 266 -615 72 -107 180
-204 286 -257 48 -25 334 -58 415 -49 133 16 404 134 598 260 63 42 142 93
175 114 189 120 412 353 540 563 49 81 72 188 49 231 -18 35 -56 52 -95 44
-42 -10 -155 -128 -234 -244 -77 -114 -229 -280 -340 -371 -167 -136 -396
-263 -610 -337 -104 -36 -117 -38 -230 -38 -113 0 -124 2 -180 29 -105 52
-182 147 -301 372 -57 106 -100 237 -120 365 -21 131 -15 498 11 659 38 242
124 506 226 700 197 371 607 831 1009 1134 52 39 294 196 537 349 l442 277 47
-30 c27 -17 69 -33 96 -36 37 -5 54 -14 73 -36 15 -17 44 -35 73 -43 71 -22
330 -193 612 -406 135 -102 355 -268 490 -369 135 -102 418 -324 630 -494 212
-170 386 -310 388 -311 4 -3 -219 -219 -763 -740 -331 -316 -526 -510 -538
-533 -27 -56 -4 -147 44 -173 39 -21 86 0 207 90 96 73 209 182 641 622 288
294 541 544 561 556 l36 23 950 -827 c522 -454 1122 -977 1334 -1160 367 -318
388 -339 456 -436 84 -121 117 -145 173 -128 50 15 87 44 99 80 9 26 5 38 -34
106 -56 100 -135 203 -215 284 -51 51 -1837 1574 -2445 2086 -79 66 -142 125
-140 130 1 6 207 191 457 413 250 221 478 424 507 452 114 106 114 192 1 264
-26 16 -27 16 -100 -40 -193 -149 -442 -367 -644 -563 -71 -70 -194 -180 -272
-244 l-143 -118 -672 542 c-370 299 -722 586 -783 637 -247 212 -521 380 -799
492 l-68 28 788 397 c434 219 834 425 889 458 263 158 571 394 837 639 173
161 250 271 309 445 51 151 36 260 -45 331 -37 32 -51 36 -95 23z"/>
</g>
</svg>
