<?xml version="1.0" standalone="no"?>
<!DOCTYPE svg PUBLIC "-//W3C//DTD SVG 20010904//EN"
 "http://www.w3.org/TR/2001/REC-SVG-20010904/DTD/svg10.dtd">
<svg version="1.0" xmlns="http://www.w3.org/2000/svg"
 width="1024.000000pt" height="1024.000000pt" viewBox="0 0 1024.000000 1024.000000"
 preserveAspectRatio="xMidYMid meet">
<metadata>
Created by potrace 1.10, written by Peter Selinger 2001-2011
</metadata>
<g transform="translate(0.000000,1024.000000) scale(0.100000,-0.100000)"
fill="#000000" stroke="none">
<path d="M5890 9138 c-30 -6 -57 -12 -59 -14 -3 -2 15 -20 38 -40 59 -51 101
-127 101 -184 0 -127 -178 -289 -580 -527 -603 -357 -1326 -707 -2005 -968
-220 -85 -557 -205 -574 -205 -8 0 -58 45 -111 99 -87 90 -104 103 -200 149
-152 74 -208 86 -360 78 l-124 -6 -48 -47 -47 -46 25 -31 c14 -17 67 -74 118
-126 151 -156 227 -301 278 -532 23 -103 23 -103 22 -963 -2 -1308 -31 -2218
-94 -2965 -11 -129 -23 -248 -26 -265 -13 -71 -47 -155 -77 -191 -18 -22 -58
-75 -89 -119 l-56 -80 17 -55 c19 -60 112 -250 169 -345 107 -180 175 -204
274 -97 42 45 76 95 131 192 39 69 100 148 175 224 37 37 407 343 822 679 415
336 805 652 865 703 131 110 252 234 261 268 16 64 3 59 -201 -77 -267 -178
-1736 -1067 -1763 -1067 -12 0 -29 12 -39 26 -16 25 -16 83 5 1138 13 611 26
1210 29 1332 l6 221 91 -38 c50 -22 133 -60 185 -87 123 -62 165 -63 343 -4
227 75 575 156 1053 245 354 67 573 102 580 95 3 -3 50 -111 104 -239 366
-874 649 -1407 1078 -2039 205 -302 353 -482 690 -847 439 -475 752 -734 1323
-1095 212 -133 439 -228 549 -228 79 0 113 18 141 74 39 82 37 131 -13 346
-73 309 -91 512 -112 1268 -8 293 -18 558 -21 588 -12 96 -59 82 -74 -22 -12
-86 -254 -1049 -279 -1116 -32 -84 -79 -148 -135 -186 -42 -28 -56 -32 -114
-32 -81 0 -163 38 -296 136 -665 493 -1267 1220 -1846 2229 -99 174 -305 585
-393 785 -85 194 -181 440 -174 446 3 3 489 48 1079 99 769 67 1086 98 1121
110 89 32 112 102 59 186 -50 79 -114 113 -317 168 l-180 50 -370 -60 c-330
-54 -1492 -229 -1516 -229 -12 0 -30 44 -105 265 -127 370 -209 678 -274 1025
-32 173 -55 233 -117 301 -42 46 -93 75 -177 99 l-59 16 169 64 c378 142 794
313 1074 440 74 34 271 110 436 170 355 127 363 131 408 180 47 52 54 96 27
154 -21 42 -145 171 -221 228 -63 47 -512 308 -529 307 -9 -1 -41 -6 -71 -11z
m-1635 -1730 c62 -69 126 -180 170 -293 119 -307 484 -1279 482 -1282 -2 -1
-275 -47 -608 -102 -716 -117 -999 -147 -1322 -139 -103 3 -189 7 -192 9 -2 3
5 255 15 561 19 549 46 883 71 899 5 3 184 54 397 112 213 59 506 147 652 196
146 49 270 90 277 90 6 1 32 -23 58 -51z"/>
</g>
</svg>
