<?xml version="1.0" standalone="no"?>
<!DOCTYPE svg PUBLIC "-//W3C//DTD SVG 20010904//EN"
 "http://www.w3.org/TR/2001/REC-SVG-20010904/DTD/svg10.dtd">
<svg version="1.0" xmlns="http://www.w3.org/2000/svg"
 width="1024.000000pt" height="1024.000000pt" viewBox="0 0 1024.000000 1024.000000"
 preserveAspectRatio="xMidYMid meet">
<metadata>
Created by potrace 1.10, written by Peter Selinger 2001-2011
</metadata>
<g transform="translate(0.000000,1024.000000) scale(0.100000,-0.100000)"
fill="#000000" stroke="none">
<path d="M5165 9249 c-137 -10 -260 -21 -273 -24 -34 -8 -62 -42 -62 -74 0
-21 -6 -32 -20 -36 -12 -4 -24 -21 -30 -43 -13 -49 -62 -528 -58 -571 3 -34 1
-36 -148 -140 -141 -99 -212 -164 -1080 -983 -917 -865 -934 -882 -1366 -1345
-311 -334 -548 -601 -827 -930 -214 -254 -397 -476 -406 -492 -8 -17 -24 -35
-35 -41 -15 -8 -20 -21 -20 -54 0 -43 1 -45 163 -198 89 -85 172 -160 184
-166 12 -7 38 -12 57 -12 20 0 36 -1 36 -3 0 -1 34 -558 75 -1237 119 -1958
110 -1784 96 -1923 -16 -147 -9 -169 65 -212 l47 -28 311 -12 c263 -10 333 -9
451 3 176 18 752 21 916 4 112 -12 461 -22 3229 -97 l1305 -35 621 18 c607 18
622 19 668 42 90 43 122 138 97 284 -11 61 -10 69 8 92 29 37 37 243 17 449
-53 534 -44 1212 24 1770 17 144 24 314 35 790 2 83 6 200 10 260 7 100 6 115
-13 157 l-20 46 89 59 c69 46 105 79 159 146 94 117 104 175 37 215 -20 12
-54 54 -91 114 -77 126 -200 272 -322 384 -55 50 -412 376 -794 724 -382 349
-715 653 -740 676 -25 23 -281 257 -570 520 -289 263 -547 499 -575 525 -27
25 -158 144 -290 264 -132 120 -247 224 -255 231 -12 12 -12 18 -3 33 14 22 3
187 -17 252 -8 28 -7 46 5 79 11 31 15 89 16 219 0 97 4 199 9 226 4 28 6 52
4 54 -6 7 -351 41 -409 40 -33 -1 -172 -10 -310 -20z m512 -276 c-15 -168 -19
-400 -8 -421 9 -18 -2 -13 -56 22 -93 60 -191 108 -296 145 -49 17 -98 38
-109 45 -34 24 -76 8 -167 -61 -46 -35 -86 -62 -88 -60 -2 2 6 60 17 129 20
127 18 196 -10 248 -11 20 -6 20 356 20 l367 0 -6 -67z m-330 -513 c24 -11 47
-20 52 -20 5 0 15 -7 22 -16 8 -9 73 -56 145 -104 111 -75 205 -157 640 -556
280 -257 529 -487 554 -510 25 -23 214 -196 420 -385 606 -556 1611 -1479
1665 -1530 28 -25 91 -84 141 -130 76 -69 142 -147 296 -346 6 -7 -24 -35 -95
-87 -58 -42 -111 -76 -119 -76 -7 0 -50 30 -93 66 -65 54 -810 755 -1260 1185
-55 53 -404 384 -775 736 -371 353 -704 676 -740 718 -102 122 -269 266 -425
368 -38 25 -106 78 -149 117 -154 141 -306 249 -453 323 -67 34 -110 29 -143
-20 -13 -19 -32 -38 -42 -44 -10 -5 -123 -101 -251 -212 l-234 -202 -940
-1051 c-687 -768 -990 -1100 -1124 -1230 -418 -404 -845 -800 -999 -927 l-165
-135 -31 31 c-18 18 -57 50 -88 72 -30 22 -56 43 -56 48 0 4 13 22 29 40 16
17 250 289 521 602 l493 570 946 941 c520 517 993 983 1051 1035 242 220 481
405 790 614 96 65 185 125 197 135 18 14 33 15 100 8 43 -5 97 -17 120 -28z
m97 -726 c181 -141 429 -342 550 -447 141 -121 693 -644 1516 -1436 1595
-1535 1454 -1401 1483 -1401 23 0 24 -2 16 -42 -4 -24 -3 -97 3 -163 14 -165
4 -552 -21 -765 -11 -96 -25 -247 -31 -335 -12 -196 -12 -1194 1 -1325 20
-195 20 -234 4 -305 -10 -44 -21 -185 -30 -384 -8 -172 -15 -315 -17 -316 -2
-2 -277 5 -613 16 -335 10 -844 25 -1130 34 -286 8 -815 24 -1175 35 -360 11
-1037 31 -1505 45 -467 13 -971 30 -1120 36 -271 12 -658 7 -885 -11 -63 -5
-272 -23 -464 -40 -192 -16 -350 -29 -352 -27 -1 1 -12 236 -23 522 -32 785
-79 1994 -92 2320 -12 319 -22 385 -70 453 l-30 44 26 20 c14 10 25 25 25 32
0 7 224 217 497 467 945 863 1015 935 1399 1434 271 353 494 596 1113 1209
289 286 539 536 556 553 16 18 32 33 35 33 3 0 153 -115 334 -256z"/>
<path d="M6910 4166 c0 -22 24 -96 31 -96 4 0 1 21 -8 48 -16 47 -23 62 -23
48z"/>
</g>
</svg>
