<?xml version="1.0" standalone="no"?>
<!DOCTYPE svg PUBLIC "-//W3C//DTD SVG 20010904//EN"
 "http://www.w3.org/TR/2001/REC-SVG-20010904/DTD/svg10.dtd">
<svg version="1.0" xmlns="http://www.w3.org/2000/svg"
 width="1024.000000pt" height="1024.000000pt" viewBox="0 0 1024.000000 1024.000000"
 preserveAspectRatio="xMidYMid meet">
<metadata>
Created by potrace 1.10, written by Peter Selinger 2001-2011
</metadata>
<g transform="translate(0.000000,1024.000000) scale(0.100000,-0.100000)"
fill="#000000" stroke="none">
<path d="M4542 7791 c-56 -43 -107 -82 -113 -88 -7 -7 18 -39 78 -101 101
-104 144 -169 180 -274 51 -146 52 -172 53 -915 0 -381 -2 -693 -4 -693 -3 0
-486 -63 -1074 -139 l-1068 -140 -411 -16 c-420 -16 -495 -13 -603 19 -134 41
-220 101 -239 168 -33 115 -123 258 -161 258 -5 0 -18 -13 -29 -29 l-20 -28
19 -213 c24 -270 15 -392 -55 -702 -60 -266 -219 -642 -351 -831 -158 -224
-221 -442 -211 -727 6 -168 21 -267 68 -430 46 -159 78 -200 157 -200 60 0
106 24 169 88 219 223 471 854 547 1372 37 247 40 377 16 654 -12 141 -20 259
-18 261 2 2 48 -26 103 -62 127 -83 304 -170 375 -184 49 -10 96 -5 430 45
206 31 427 65 490 76 866 154 1988 308 2645 365 309 26 3151 146 3209 135 99
-20 146 -73 146 -167 0 -172 -176 -460 -577 -944 -62 -76 -113 -141 -113 -145
1 -13 37 -54 48 -54 5 0 225 103 488 229 264 126 537 250 609 276 158 57 369
112 473 124 118 13 170 48 192 129 16 61 1 124 -59 247 -91 187 -336 528 -505
703 -143 148 -259 225 -362 239 -23 3 -870 -68 -1893 -158 -1018 -90 -1853
-160 -1857 -157 -10 11 15 1456 28 1558 6 53 8 107 5 120 -10 40 -71 105 -145
153 -152 100 -481 258 -534 256 -12 0 -69 -35 -126 -78z"/>
</g>
</svg>
