<?xml version="1.0" standalone="no"?>
<!DOCTYPE svg PUBLIC "-//W3C//DTD SVG 20010904//EN"
 "http://www.w3.org/TR/2001/REC-SVG-20010904/DTD/svg10.dtd">
<svg version="1.0" xmlns="http://www.w3.org/2000/svg"
 width="1024.000000pt" height="1024.000000pt" viewBox="0 0 1024.000000 1024.000000"
 preserveAspectRatio="xMidYMid meet">
<metadata>
Created by potrace 1.10, written by Peter Selinger 2001-2011
</metadata>
<g transform="translate(0.000000,1024.000000) scale(0.100000,-0.100000)"
fill="#000000" stroke="none">
<path d="M5143 9350 c-29 -12 -71 -80 -99 -160 -20 -56 -28 -131 -59 -545 -20
-264 -39 -495 -42 -512 -4 -24 -11 -33 -24 -33 -53 0 -1965 -202 -2039 -216
-299 -54 -841 -209 -983 -280 -105 -54 -154 -130 -220 -344 -112 -361 -144
-581 -152 -1055 -5 -265 -17 -730 -90 -3460 -14 -506 -30 -1113 -36 -1350 -10
-382 -10 -434 4 -467 19 -45 54 -69 110 -75 35 -4 46 -1 65 19 26 28 18 -174
87 2228 19 668 42 1454 50 1745 9 292 22 771 30 1065 13 517 15 546 54 870 42
348 53 400 111 508 60 113 45 104 350 192 264 76 299 84 905 190 626 109 633
110 1150 160 286 27 540 52 565 56 45 6 45 6 27 -14 l-19 -20 74 19 c205 54
605 117 882 139 270 21 1062 6 1361 -26 367 -39 675 -127 1045 -299 85 -39
189 -86 230 -104 53 -23 99 -54 155 -103 69 -61 88 -86 137 -177 82 -154 169
-466 227 -821 46 -278 50 -374 60 -1365 15 -1390 15 -1728 3 -1940 -7 -110
-14 -604 -17 -1174 -2 -540 -7 -1004 -10 -1030 -9 -68 36 -260 67 -284 51 -42
152 20 177 109 8 27 11 410 11 1227 0 748 5 1317 12 1535 7 191 13 685 13
1097 l0 750 -43 600 c-25 364 -50 649 -63 725 -53 319 -194 671 -318 796 -201
203 -517 395 -827 502 -54 19 -243 61 -475 106 l-384 74 -470 22 c-258 12
-544 25 -635 30 l-164 8 -351 -64 c-192 -35 -362 -66 -377 -70 l-28 -6 0 207
c0 287 22 464 86 687 43 151 33 229 -41 297 -48 44 -49 44 -82 31z"/>
<path d="M6721 3954 c-1 -6 4 -26 10 -45 6 -19 13 -40 15 -48 3 -8 7 -12 9 -9
3 2 -4 29 -14 59 -11 30 -20 49 -20 43z"/>
</g>
</svg>
