<?xml version="1.0" standalone="no"?>
<!DOCTYPE svg PUBLIC "-//W3C//DTD SVG 20010904//EN"
 "http://www.w3.org/TR/2001/REC-SVG-20010904/DTD/svg10.dtd">
<svg version="1.0" xmlns="http://www.w3.org/2000/svg"
 width="1024.000000pt" height="1024.000000pt" viewBox="0 0 1024.000000 1024.000000"
 preserveAspectRatio="xMidYMid meet">
<metadata>
Created by potrace 1.10, written by Peter Selinger 2001-2011
</metadata>
<g transform="translate(0.000000,1024.000000) scale(0.100000,-0.100000)"
fill="#000000" stroke="none">
<path d="M2035 9570 c-3 -5 -15 -10 -26 -10 -25 0 -59 -35 -59 -60 0 -11 20
-40 44 -64 24 -24 62 -78 85 -120 l42 -75 -48 5 c-26 3 -86 9 -133 13 l-85 9
-108 -51 c-112 -52 -136 -77 -107 -112 7 -9 11 -16 9 -18 -2 -1 -13 -7 -24
-13 -33 -18 -51 -58 -39 -91 12 -37 41 -40 135 -14 57 16 103 21 205 21 118 0
133 -2 149 -20 10 -11 16 -22 14 -24 -2 -2 -36 -31 -76 -65 -110 -94 -274
-290 -376 -453 -22 -35 -46 -95 -63 -155 -25 -95 -30 -103 -135 -243 -77 -103
-127 -158 -170 -190 -99 -74 -134 -124 -157 -221 -17 -71 -19 -101 -13 -194 4
-61 15 -126 23 -146 20 -46 79 -112 126 -141 21 -12 74 -50 120 -85 90 -69 92
-69 209 -77 152 -10 179 11 224 177 l33 120 156 102 c85 56 181 118 212 138
l58 36 73 -92 c181 -228 147 -161 367 -751 110 -295 200 -548 200 -561 0 -13
9 -47 20 -75 11 -28 27 -88 35 -133 7 -45 21 -109 29 -142 9 -33 34 -222 56
-420 53 -481 55 -488 109 -634 27 -69 51 -143 55 -164 5 -28 34 -68 118 -165
60 -70 129 -154 151 -188 35 -51 72 -83 251 -215 241 -176 230 -162 297 -374
23 -71 54 -166 69 -210 42 -122 53 -203 48 -355 -4 -124 -9 -151 -57 -330 -29
-107 -63 -226 -75 -265 -13 -38 -31 -136 -42 -217 l-18 -147 -72 -50 c-39 -28
-152 -116 -250 -196 -99 -81 -207 -161 -242 -178 -50 -25 -65 -38 -69 -59 -5
-24 -10 -28 -41 -28 -45 0 -146 -56 -204 -113 -62 -62 -160 -211 -160 -244 -1
-16 9 -34 23 -46 22 -18 35 -19 183 -13 116 4 202 2 314 -10 85 -9 168 -14
183 -12 33 5 36 10 -53 -108 -37 -50 -68 -98 -68 -107 0 -8 -13 -25 -28 -36
-16 -11 -33 -36 -39 -55 -10 -31 -8 -39 9 -61 11 -14 24 -25 30 -25 6 0 39 18
74 40 94 59 139 74 402 133 258 59 293 73 312 133 6 18 11 49 10 71 -3 130 58
197 261 286 93 41 123 86 190 283 32 93 76 213 97 266 46 111 372 707 414 756
67 79 83 251 34 382 -42 112 -43 181 -6 315 17 61 42 173 56 250 19 106 37
170 76 265 27 69 52 127 54 129 11 11 60 -29 104 -85 52 -66 148 -141 221
-172 81 -35 182 -51 384 -63 127 -7 203 -15 207 -23 4 -6 8 -25 8 -42 0 -51
36 -172 83 -285 76 -182 161 -311 296 -454 42 -44 98 -106 125 -138 l49 -57
-28 -93 c-33 -113 -38 -147 -69 -467 -14 -140 -30 -291 -35 -334 -6 -44 -11
-108 -11 -143 0 -55 -8 -84 -57 -204 l-57 -140 -146 -87 c-80 -48 -181 -105
-225 -126 -75 -37 -123 -77 -227 -192 -19 -21 -51 -38 -105 -55 -58 -18 -91
-36 -136 -74 -70 -59 -83 -84 -63 -128 8 -18 16 -39 19 -48 5 -15 36 -17 254
-23 136 -3 270 -11 297 -16 59 -12 76 -2 76 46 0 31 5 36 88 82 48 27 134 73
192 102 205 102 227 117 275 185 40 55 45 69 45 116 0 38 5 58 19 73 18 20 69
208 86 316 7 48 62 218 76 235 4 6 18 40 32 76 48 132 227 418 312 499 21 19
77 83 125 141 76 93 88 114 99 166 11 51 11 69 -3 124 -9 35 -30 93 -46 129
-55 122 -83 379 -61 556 8 68 8 105 0 148 -7 31 -10 59 -7 61 8 9 181 -54 273
-100 49 -24 118 -62 151 -84 l62 -41 42 -153 c42 -149 43 -155 44 -307 0 -93
-5 -179 -13 -214 -11 -48 -11 -70 -1 -118 19 -88 7 -316 -34 -638 -61 -479
-88 -532 -398 -795 -104 -87 -189 -163 -189 -169 -1 -6 -1 -14 -1 -17 1 -4
-47 -23 -106 -44 -124 -42 -182 -77 -245 -144 -52 -55 -75 -96 -93 -166 -20
-72 -18 -119 6 -140 19 -17 34 -16 402 25 369 41 384 44 406 68 13 13 21 31
18 38 -6 15 208 253 294 326 70 61 194 123 290 147 l75 18 18 54 c10 30 23 97
28 149 18 183 30 264 45 298 8 19 14 61 14 93 0 35 8 80 20 111 11 29 20 61
20 70 0 10 6 37 14 60 7 24 23 77 35 118 12 41 36 104 53 140 l31 65 68 -203
c37 -112 76 -216 86 -232 10 -15 60 -75 111 -134 l93 -106 69 0 c39 0 70 2 70
4 0 2 -34 32 -75 66 -80 67 -127 128 -189 248 -27 53 -36 80 -32 100 4 18 -8
71 -39 162 -25 74 -45 139 -45 145 0 28 59 -98 65 -140 8 -49 97 -255 154
-358 41 -72 131 -148 169 -142 15 2 53 7 85 10 38 4 57 11 54 18 -4 14 -62 44
-99 52 -16 3 -28 10 -28 17 0 6 -15 25 -34 42 -18 17 -46 54 -61 81 l-27 50
27 -33 c33 -40 74 -62 117 -62 27 0 37 6 52 32 l19 31 -27 24 c-15 13 -40 23
-57 23 -18 0 -29 5 -29 14 0 8 -16 38 -36 67 -20 30 -53 90 -74 135 l-37 80
-4 445 c-2 244 0 483 5 531 8 80 7 89 -13 123 -19 33 -20 43 -11 98 5 33 20
84 34 111 13 28 27 62 31 76 4 14 17 50 30 80 49 122 53 107 -41 200 -46 45
-84 88 -84 95 0 31 34 178 60 260 21 65 33 135 44 250 14 148 14 179 -3 410
-18 247 -19 253 -61 375 -51 151 -126 312 -205 440 -97 156 -180 231 -294 264
-66 19 -187 21 -221 3 -25 -13 -28 -10 -140 117 -208 236 -289 277 -810 417
l-375 100 -805 79 c-859 84 -898 90 -1062 160 -82 35 -204 107 -263 155 -22
18 -61 46 -86 62 -26 16 -116 85 -201 153 -140 113 -156 129 -162 162 -8 47
-59 106 -112 129 -23 11 -63 44 -93 79 -29 33 -59 60 -67 60 -9 0 -14 11 -14
35 0 81 -57 149 -133 160 -38 6 -45 11 -56 40 -12 34 -113 135 -134 135 -6 0
-20 -9 -32 -20 l-22 -21 -13 31 c-16 38 -68 84 -114 101 -38 14 -47 34 -76
163 -6 27 -15 57 -20 66 -14 27 -74 44 -109 32 -28 -10 -29 -9 -40 33 -7 27
-26 60 -50 85 -21 22 -46 60 -55 85 -19 48 -81 111 -120 121 -17 4 -29 17 -36
39 -14 42 -70 116 -104 139 -25 16 -27 16 -50 -8 l-25 -24 -22 25 c-28 29 -56
27 -81 -8 -18 -23 -18 -31 -7 -67 11 -38 9 -49 -36 -180 -49 -143 -51 -170
-14 -179 11 -3 18 -11 15 -18 -2 -7 -8 -34 -12 -61 -8 -56 -27 -84 -84 -126
-55 -41 -55 -76 1 -143 23 -28 45 -51 49 -53 13 -5 68 75 106 153 62 128 82
195 88 295 7 97 25 232 32 239 2 3 11 -4 19 -15 10 -13 14 -45 15 -101 0 -74
-5 -95 -60 -250 -33 -92 -60 -182 -60 -200 0 -30 41 -93 61 -93 5 0 22 12 39
28 27 23 39 53 89 226 32 110 60 192 64 184 3 -9 11 -52 17 -96 16 -107 1
-220 -51 -378 -46 -143 -49 -177 -14 -200 32 -21 83 -10 95 19 6 15 7 7 3 -24
-4 -39 -2 -49 18 -68 26 -24 71 -28 88 -7 6 7 18 42 26 77 7 35 25 107 39 160
13 53 28 136 32 183 4 53 11 85 17 83 6 -2 21 -34 34 -73 23 -66 24 -76 18
-254 -8 -204 -4 -224 48 -277 35 -38 55 -41 88 -15 22 18 22 21 11 90 -12 71
-17 250 -7 240 3 -3 15 -59 26 -124 20 -115 20 -121 4 -186 -29 -115 3 -188
82 -188 32 0 42 5 55 28 14 24 14 30 2 54 -11 22 -12 40 -2 102 9 57 9 84 0
114 -7 22 -12 68 -12 103 l1 64 25 -48 c37 -71 55 -217 53 -421 -2 -172 3
-207 36 -239 22 -22 28 -22 64 9 l31 26 0 234 c0 189 3 234 13 234 11 0 17
-47 26 -207 16 -275 15 -269 62 -294 36 -18 39 -22 39 -63 0 -29 6 -48 18 -59
22 -20 75 -22 89 -4 6 6 21 67 33 134 23 116 24 120 38 95 19 -37 0 -237 -35
-351 -18 -62 -23 -94 -18 -127 7 -46 43 -99 75 -109 30 -9 60 12 60 42 0 26
49 396 53 400 1 1 83 -63 181 -143 306 -247 361 -275 664 -344 154 -36 281
-53 992 -135 567 -65 850 -102 930 -121 215 -50 500 -153 699 -254 92 -46 125
-83 279 -310 l112 -165 70 -227 c39 -125 70 -238 70 -251 0 -14 7 -44 15 -67
9 -27 15 -79 15 -139 0 -117 83 -565 124 -674 65 -169 155 -308 281 -432 44
-44 98 -102 119 -128 l38 -48 -61 -122 c-74 -149 -104 -236 -136 -392 -46
-222 -55 -260 -79 -320 -13 -33 -29 -96 -35 -140 -17 -109 -66 -305 -95 -373
-13 -32 -27 -77 -31 -102 -4 -25 -18 -65 -30 -90 -13 -25 -39 -103 -59 -174
-20 -71 -43 -140 -51 -152 -8 -13 -15 -45 -15 -71 -1 -26 -7 -59 -15 -73 -8
-14 -15 -52 -15 -85 0 -33 -7 -87 -15 -120 -8 -33 -22 -118 -30 -189 -9 -71
-18 -133 -21 -137 -3 -5 -16 -9 -28 -9 -27 0 -191 -82 -261 -130 -86 -59 -179
-145 -235 -218 -30 -39 -63 -71 -72 -71 -9 -1 -26 -13 -37 -27 l-20 -26 -97
94 -96 94 138 104 c155 115 294 244 329 305 22 38 53 122 89 245 14 50 21 77
41 175 4 17 13 50 20 75 7 25 16 123 20 219 4 98 13 193 20 219 12 40 12 70
-7 246 -18 177 -19 214 -8 311 9 80 9 158 2 285 l-9 175 -66 101 c-50 78 -78
111 -124 143 -71 52 -178 104 -258 126 -114 31 -158 58 -325 197 -137 114
-168 145 -183 182 -10 24 -33 64 -50 88 -27 38 -36 43 -57 38 -14 -3 -32 -18
-40 -33 -14 -27 -13 -32 43 -139 32 -60 56 -112 53 -115 -3 -3 -112 -18 -243
-34 -131 -16 -249 -34 -262 -39 -17 -8 -27 -7 -39 2 -12 10 -14 10 -8 1 10
-17 -39 -17 -499 3 -455 19 -448 17 -550 160 -52 73 -125 125 -220 158 -38 13
-108 42 -155 64 -94 45 -230 87 -313 97 l-54 7 7 42 c3 23 10 48 15 56 4 7 29
70 55 139 l47 126 -51 5 c-28 3 -56 8 -62 12 -12 8 -144 -322 -144 -358 0 -11
-21 -51 -46 -89 -95 -145 -141 -266 -185 -490 -6 -27 -17 -81 -25 -120 -8 -38
-14 -81 -14 -95 1 -35 35 -106 71 -148 39 -44 77 -123 84 -177 9 -59 -41 -212
-126 -385 -88 -179 -133 -315 -154 -462 -8 -62 -18 -126 -21 -143 -3 -16 -9
-87 -12 -156 l-7 -126 -55 -107 c-61 -119 -70 -128 -215 -205 -155 -83 -289
-194 -396 -329 -32 -40 -61 -74 -63 -75 -3 -1 -25 25 -50 59 -48 66 -140 136
-207 155 -26 8 -39 18 -39 29 0 14 13 19 61 24 l62 7 228 190 c177 147 234
189 256 189 15 0 42 9 60 20 34 21 33 16 53 175 17 137 30 205 51 266 10 31
34 129 53 217 19 88 41 173 49 188 8 16 22 71 31 123 30 174 15 396 -33 489
-37 72 -73 200 -66 233 4 19 2 38 -8 53 -8 12 -18 53 -22 92 -10 106 -12 112
-43 116 -24 3 -30 12 -59 88 -18 47 -33 94 -33 105 0 11 -12 40 -25 65 -37 68
-42 80 -54 144 -11 62 -49 116 -80 116 -41 -1 -51 -24 -51 -119 0 -90 1 -93
47 -179 l48 -87 -50 36 c-28 20 -93 66 -145 103 -52 37 -99 75 -105 85 -5 11
-51 64 -101 119 l-91 101 -70 173 c-87 215 -107 306 -133 610 -23 269 -36 354
-84 553 -19 77 -37 156 -41 175 -4 19 -24 94 -46 166 -21 71 -39 142 -39 156
0 14 -25 76 -56 139 -66 133 -122 285 -169 454 -64 232 -127 364 -262 549 -53
72 -96 135 -97 141 -1 6 28 35 63 65 123 105 240 286 226 350 -8 35 -57 72
-84 63 -31 -11 -51 -37 -51 -66 0 -21 -16 -49 -56 -99 -45 -54 -110 -108 -303
-251 -135 -100 -284 -202 -331 -226 -99 -51 -126 -73 -134 -109 -4 -15 -25
-75 -49 -134 l-42 -108 -60 0 c-60 1 -86 11 -97 41 -4 9 -44 37 -90 62 -76 41
-86 51 -120 109 -38 66 -42 90 -39 235 l1 63 158 162 c159 164 268 301 296
374 8 21 27 82 42 134 34 120 84 189 275 379 42 42 106 115 142 162 61 80 67
91 67 135 0 45 -4 52 -52 102 -60 61 -64 60 72 28 59 -13 67 -13 83 1 26 24
23 87 -7 115 -22 22 -62 108 -50 108 10 0 149 -122 185 -163 23 -25 51 -45 75
-52 38 -11 39 -12 35 -50 -1 -21 -7 -50 -12 -63 -18 -46 -11 -89 17 -111 54
-42 91 -18 128 85 l15 39 0 -43 c1 -30 -6 -54 -21 -74 -11 -17 -23 -52 -26
-78 -4 -41 -1 -49 19 -64 13 -9 35 -16 50 -16 24 0 29 8 62 98 45 121 62 218
47 271 -13 49 -53 93 -77 85 -33 -12 -43 -37 -44 -108 l-2 -71 -7 70 c-7 81
-30 134 -77 182 -39 38 -55 41 -82 14 -19 -19 -22 -16 -170 129 -127 125 -161
152 -207 169 -59 22 -119 27 -129 11z m6671 -3619 c17 -5 53 -26 80 -46 40
-31 66 -67 143 -199 51 -88 102 -183 113 -211 130 -335 155 -519 119 -870 -22
-203 -37 -283 -67 -353 -8 -18 -14 -39 -14 -47 0 -36 -22 -18 -74 60 -57 86
-67 108 -43 99 8 -3 24 3 36 13 21 17 23 27 26 173 2 115 9 176 24 236 20 77
20 87 7 260 -14 170 -38 315 -58 340 -4 7 -22 51 -38 98 -37 110 -54 138 -132
213 -70 67 -158 117 -194 110 -16 -3 -25 3 -33 20 -6 14 -9 29 -6 33 3 5 -1
22 -9 38 -8 16 -12 32 -9 36 9 9 93 7 129 -3z m87 -431 c71 -149 125 -299 131
-365 14 -140 6 -349 -17 -490 l-23 -140 -33 99 -33 98 31 147 c24 114 31 172
31 257 0 133 -16 194 -66 252 -45 54 -70 68 -90 51 -8 -6 -16 -10 -18 -8 -2 2
-11 54 -20 114 -10 61 -20 121 -23 135 -6 23 -3 22 39 -15 33 -29 58 -66 91
-135z m-3795 -1275 c44 -9 111 -29 148 -46 38 -17 93 -42 122 -55 l54 -24 -31
-42 c-40 -56 -67 -137 -92 -273 -27 -146 -34 -181 -53 -239 -9 -27 -16 -58
-16 -69 0 -12 -10 -41 -22 -66 -14 -29 -23 -70 -26 -120 -4 -68 0 -89 37 -202
61 -186 58 -208 -47 -365 -33 -50 -84 -136 -113 -190 -29 -54 -78 -135 -110
-179 -109 -152 -190 -338 -219 -505 -6 -36 -17 -76 -24 -90 -7 -14 -21 -54
-32 -89 l-19 -64 -105 -70 c-58 -39 -132 -85 -165 -103 -53 -28 -88 -62 -130
-126 -9 -14 -23 -14 -137 1 -69 9 -129 19 -133 22 -6 7 224 177 342 253 39 25
80 46 90 46 32 0 40 12 108 155 72 150 72 151 95 393 7 67 18 143 26 169 8 25
14 67 14 92 0 25 14 82 29 126 45 124 177 442 217 522 33 64 36 77 32 135 -3
53 -15 88 -79 222 l-75 158 27 157 c15 86 33 174 41 197 20 61 141 284 154
284 7 0 48 -7 92 -15z m2498 -446 c60 -48 63 -51 49 -72 -41 -63 -53 -390 -22
-607 24 -163 40 -232 78 -331 l31 -81 -46 -66 c-25 -37 -83 -107 -128 -157
-117 -126 -142 -164 -283 -433 -115 -219 -127 -249 -169 -397 -86 -308 -99
-376 -76 -390 5 -3 -25 -52 -67 -108 -75 -99 -80 -104 -148 -131 -116 -47
-270 -142 -350 -217 l-31 -29 -74 75 c-41 41 -72 76 -69 79 59 55 150 118 183
126 228 58 365 175 464 395 l41 90 20 241 c12 133 25 255 30 270 5 16 15 103
21 194 12 167 28 261 74 425 14 50 26 99 26 109 0 22 -89 134 -197 248 -187
199 -314 423 -351 618 -6 30 -13 63 -17 72 -6 15 11 17 194 20 168 2 202 6
213 19 10 13 57 19 223 32 157 12 223 21 260 36 28 11 52 20 54 21 2 0 32 -23
67 -51z m1599 -868 l0 -188 -31 55 c-31 54 -31 55 -19 116 10 51 47 206 49
206 1 0 1 -85 1 -189z m-113 -393 c4 -62 3 -66 -12 -53 -9 8 -22 15 -29 15 -8
0 -11 6 -7 17 4 9 14 40 24 67 18 56 19 53 24 -46z m-5621 -1164 c49 -36 89
-68 89 -71 0 -6 -211 4 -298 14 l-54 6 39 39 c38 40 96 77 122 78 7 0 54 -30
102 -66z m722 -190 c26 -9 47 -21 47 -28 0 -31 -26 -44 -103 -50 -81 -6 -225
-38 -284 -63 -20 -8 -37 -12 -39 -10 -11 11 105 96 139 102 35 7 87 47 87 68
0 13 92 2 153 -19z m3528 -292 c14 -9 46 -39 72 -67 83 -90 79 -82 38 -89 -20
-3 -66 -6 -103 -6 -65 0 -260 -29 -327 -50 -19 -5 -36 -8 -39 -6 -2 2 7 22 19
43 19 33 44 51 163 115 78 42 143 76 146 77 3 0 17 -7 31 -17z m-1481 -94 c90
-46 52 -57 -147 -41 -89 6 -95 14 -29 44 56 25 122 24 176 -3z"/>
<path d="M2898 9058 c-9 -7 -21 -44 -28 -83 -8 -41 -29 -101 -52 -144 -42 -82
-46 -106 -22 -139 22 -31 38 -28 89 19 72 66 120 197 101 272 -6 26 -52 87
-65 87 -4 0 -14 -6 -23 -12z"/>
<path d="M1952 8504 c-12 -8 -22 -22 -22 -31 0 -17 45 -74 57 -73 4 0 29 -5
54 -11 l47 -12 4 -83 c5 -102 21 -129 78 -138 35 -5 50 -2 87 19 63 37 105 77
148 139 35 51 36 56 25 90 -13 39 -2 36 -177 61 -57 8 -122 15 -145 15 -24 0
-63 9 -87 20 -52 24 -42 23 -69 4z"/>
<path d="M1642 7999 c-121 -146 -192 -239 -192 -253 0 -31 19 -46 56 -46 27 0
55 20 169 122 152 134 201 199 230 299 l17 63 -28 23 c-16 13 -36 23 -44 23
-8 0 -102 -104 -208 -231z"/>
<path d="M1287 7593 c-45 -51 -1 -133 71 -133 71 0 94 56 45 110 -36 40 -91
50 -116 23z"/>
</g>
</svg>
