<?xml version="1.0" standalone="no"?>
<!DOCTYPE svg PUBLIC "-//W3C//DTD SVG 20010904//EN"
 "http://www.w3.org/TR/2001/REC-SVG-20010904/DTD/svg10.dtd">
<svg version="1.0" xmlns="http://www.w3.org/2000/svg"
 width="1024.000000pt" height="1024.000000pt" viewBox="0 0 1024.000000 1024.000000"
 preserveAspectRatio="xMidYMid meet">
<metadata>
Created by potrace 1.10, written by Peter Selinger 2001-2011
</metadata>
<g transform="translate(0.000000,1024.000000) scale(0.100000,-0.100000)"
fill="#000000" stroke="none">
<path d="M5005 8675 c-199 -42 -201 -42 -365 -125 -91 -45 -189 -91 -219 -101
-58 -20 -91 -44 -91 -65 0 -6 -55 -72 -121 -145 -67 -74 -148 -174 -180 -222
-135 -204 -259 -517 -306 -772 -24 -129 -23 -427 1 -555 35 -179 109 -372 199
-515 17 -27 92 -128 165 -223 l135 -174 -45 -46 c-24 -26 -105 -112 -179 -191
-121 -129 -405 -383 -659 -588 -250 -201 -601 -382 -930 -479 -135 -39 -170
-62 -170 -112 0 -43 26 -72 64 -72 52 0 416 133 571 208 406 198 792 488 1196
899 85 87 176 183 202 213 l47 55 74 -75 c185 -188 497 -513 559 -583 67 -74
68 -77 50 -96 -10 -11 -63 -84 -117 -163 l-100 -143 -245 -213 c-147 -126
-301 -249 -381 -304 -74 -50 -313 -213 -530 -361 l-395 -271 -389 -192 c-214
-106 -398 -202 -409 -213 -32 -32 -2 -101 44 -101 10 0 128 44 261 97 l243 97
552 340 552 341 407 329 c223 182 428 355 456 385 60 65 143 188 152 225 3 14
10 26 14 26 4 0 53 -88 110 -194 87 -165 119 -239 212 -496 60 -166 111 -314
114 -328 5 -25 -26 -53 -470 -412 -664 -537 -706 -571 -1095 -887 -495 -402
-624 -493 -930 -659 -80 -44 -141 -83 -144 -94 -9 -28 21 -88 50 -102 21 -10
34 -8 73 9 26 11 347 232 714 492 l668 472 592 489 c326 269 593 488 594 487
1 -1 25 -164 53 -362 l50 -360 21 -790 c12 -434 24 -793 28 -797 4 -3 40 -4
80 -1 l72 6 0 86 c0 47 -7 374 -15 726 l-16 640 -45 345 c-24 190 -54 410 -65
490 -16 120 -17 146 -6 155 7 5 209 161 448 346 380 294 694 520 796 572 l32
17 172 -190 c155 -171 191 -218 355 -464 106 -159 187 -291 194 -315 6 -23 27
-69 47 -103 30 -52 67 -179 259 -894 221 -825 224 -836 255 -1066 18 -128 35
-237 40 -242 4 -5 28 3 54 18 29 18 53 25 66 21 19 -6 20 -4 14 67 -3 40 -10
134 -15 208 -10 137 -61 380 -101 482 -11 26 -19 69 -19 97 0 27 -5 62 -11 78
-5 15 -16 61 -24 103 -7 41 -65 254 -129 473 l-116 399 -154 333 -153 332
-207 285 -206 285 -151 131 c-143 125 -153 132 -194 132 -51 0 -63 -8 -804
-564 -275 -207 -503 -376 -505 -376 -2 0 -27 71 -55 158 -59 185 -262 612
-395 831 -79 131 -92 146 -453 528 -205 217 -373 396 -373 399 0 3 21 31 48
62 26 32 105 140 175 240 109 154 145 217 233 397 83 172 108 216 126 219 13
3 142 17 288 32 146 14 277 30 292 36 36 14 72 71 64 103 -3 13 -20 34 -37 46
l-31 22 -241 -27 c-133 -15 -252 -29 -264 -31 l-21 -5 23 73 c12 39 29 88 38
107 8 19 32 98 53 175 41 152 46 221 29 416 l-8 96 29 7 c16 3 128 12 249 20
121 8 228 17 238 21 45 18 15 115 -36 115 -13 0 -33 7 -46 16 -21 15 -40 15
-185 5 -89 -6 -184 -11 -212 -11 l-51 0 -6 148 c-8 187 -32 301 -81 383 -27
46 -34 64 -25 70 7 4 51 17 97 29 111 28 140 44 159 88 15 35 14 37 -12 59
-36 31 -69 29 -310 -22z m-59 -287 l48 -93 17 -195 c10 -107 13 -197 9 -200
-5 -3 -158 -18 -340 -34 -303 -26 -343 -31 -473 -66 -78 -21 -143 -37 -145
-35 -6 6 98 174 158 254 107 144 207 240 329 315 111 67 166 95 256 127 85 31
87 30 141 -73z m91 -695 c14 -85 9 -282 -10 -368 -9 -44 -21 -98 -25 -120 -5
-22 -33 -108 -62 -191 l-54 -150 -451 -17 c-247 -10 -474 -20 -502 -24 l-53
-5 0 246 0 247 56 159 57 159 61 -5 c43 -3 186 13 486 55 234 32 439 60 457
60 30 1 32 -1 40 -46z m-444 -1350 c-119 -192 -228 -367 -242 -391 -14 -23
-29 -41 -33 -40 -17 6 -282 387 -315 452 -45 89 -80 182 -98 257 l-13 59 196
3 c109 1 315 3 459 5 l262 2 -216 -347z"/>
</g>
</svg>
