<?xml version="1.0" standalone="no"?>
<!DOCTYPE svg PUBLIC "-//W3C//DTD SVG 20010904//EN"
 "http://www.w3.org/TR/2001/REC-SVG-20010904/DTD/svg10.dtd">
<svg version="1.0" xmlns="http://www.w3.org/2000/svg"
 width="1024.000000pt" height="1024.000000pt" viewBox="0 0 1024.000000 1024.000000"
 preserveAspectRatio="xMidYMid meet">
<metadata>
Created by potrace 1.10, written by Peter Selinger 2001-2011
</metadata>
<g transform="translate(0.000000,1024.000000) scale(0.100000,-0.100000)"
fill="#000000" stroke="none">
<path d="M6280 7264 c-400 -106 -223 -77 -1806 -299 l-692 -98 -33 25 c-19 14
-61 34 -94 46 -87 30 -329 102 -345 102 -17 0 -130 -72 -130 -83 0 -4 22 -37
49 -72 59 -77 104 -167 128 -255 17 -60 18 -135 15 -1060 -2 -831 -5 -1017
-19 -1127 -12 -107 -13 -142 -4 -180 33 -130 219 -403 275 -403 18 0 308 106
354 129 113 58 393 133 627 170 161 25 203 29 875 91 578 54 1238 115 1894
176 445 41 460 40 496 -19 17 -27 20 -51 20 -158 0 -391 -113 -926 -254 -1207
-51 -101 -148 -236 -203 -281 -71 -59 -73 -59 -485 14 -205 36 -381 65 -392
63 -17 -2 -4 -19 69 -88 337 -320 390 -383 478 -581 78 -173 204 -231 352
-160 213 101 392 328 530 671 138 343 224 670 315 1195 24 142 46 224 101 392
l70 211 -25 50 c-58 115 -224 309 -317 371 -106 71 -68 74 -674 -50 l-540
-111 -665 -64 c-366 -35 -677 -64 -692 -64 l-28 0 0 260 0 259 33 6 c82 14
1133 147 1223 154 113 10 173 33 192 76 7 14 12 28 12 31 0 2 -41 49 -90 103
-144 159 -221 185 -381 132 -180 -59 -593 -151 -794 -177 -104 -13 -191 -24
-192 -24 -2 0 -3 122 -3 270 0 227 2 270 14 270 8 0 209 27 448 59 238 33 480
65 538 71 258 27 307 41 324 91 8 23 1 37 -61 120 l-70 94 -114 33 -114 33
-340 -85 c-294 -73 -515 -116 -602 -116 l-23 0 0 213 c0 211 0 213 -25 250
-19 27 -22 38 -13 42 29 9 1290 178 1385 185 164 12 235 59 219 145 -6 30 -22
53 -71 100 -99 96 -231 156 -339 154 -31 0 -194 -38 -406 -95z m-1237 -620
c53 -88 70 -157 75 -306 4 -128 3 -138 -14 -138 -17 0 -1188 -134 -1272 -145
l-42 -6 2 248 3 248 565 71 c311 40 585 72 610 73 43 1 46 -1 73 -45z m75
-996 l-3 -262 -619 -72 c-340 -39 -638 -74 -662 -77 l-44 -5 0 264 c0 245 1
264 18 265 9 0 296 33 637 73 341 41 632 74 648 75 l27 1 -2 -262z m2 -823 c0
-146 -3 -265 -7 -265 -4 0 -290 -29 -637 -65 l-630 -66 -25 26 -26 25 -3 223
-3 223 658 81 c362 44 661 81 666 82 4 0 7 -118 7 -264z"/>
<path d="M5853 4049 c-7 -7 -13 -19 -13 -26 0 -8 39 -60 86 -116 168 -200 307
-404 416 -615 51 -98 75 -131 147 -204 91 -93 104 -99 165 -74 72 30 107 105
113 247 8 156 -28 262 -122 367 -171 190 -729 486 -792 421z"/>
<path d="M2576 3923 c-3 -10 -32 -121 -66 -247 l-61 -229 -170 -280 c-197
-323 -232 -391 -255 -481 l-16 -66 31 -134 32 -135 59 -51 c32 -27 65 -50 74
-50 87 0 253 179 344 372 176 370 207 882 76 1223 -40 102 -40 103 -48 78z"/>
<path d="M4656 3888 c-9 -12 -16 -27 -16 -33 0 -6 22 -39 50 -73 84 -104 125
-171 213 -347 98 -194 144 -312 193 -499 55 -205 71 -232 153 -261 110 -38
197 6 241 123 28 73 43 222 30 292 -23 130 -146 306 -321 461 -149 133 -383
305 -452 334 -66 27 -75 27 -91 3z"/>
<path d="M3340 3758 c0 -6 25 -53 55 -104 158 -264 234 -514 280 -914 17 -152
44 -223 98 -264 69 -51 155 -60 227 -23 57 28 95 100 110 207 19 134 -10 270
-91 432 -63 125 -87 163 -165 258 -107 130 -254 264 -378 345 -116 75 -136 85
-136 63z"/>
</g>
</svg>
