<?xml version="1.0" standalone="no"?>
<!DOCTYPE svg PUBLIC "-//W3C//DTD SVG 20010904//EN"
 "http://www.w3.org/TR/2001/REC-SVG-20010904/DTD/svg10.dtd">
<svg version="1.0" xmlns="http://www.w3.org/2000/svg"
 width="1024.000000pt" height="1024.000000pt" viewBox="0 0 1024.000000 1024.000000"
 preserveAspectRatio="xMidYMid meet">
<metadata>
Created by potrace 1.10, written by Peter Selinger 2001-2011
</metadata>
<g transform="translate(0.000000,1024.000000) scale(0.100000,-0.100000)"
fill="#000000" stroke="none">
<path d="M1873 9407 c-42 -16 -73 -46 -73 -69 0 -10 20 -40 45 -67 25 -26 63
-81 85 -121 l40 -73 -53 6 c-28 4 -90 9 -137 13 l-85 6 -95 -46 c-119 -58
-128 -67 -113 -105 9 -26 8 -30 -13 -41 -44 -24 -57 -112 -18 -127 8 -3 48 4
88 15 50 15 117 24 214 28 129 6 144 5 162 -11 22 -20 27 -45 9 -45 -17 0
-172 -154 -257 -255 -42 -49 -108 -139 -148 -200 -59 -91 -77 -127 -99 -208
-27 -93 -33 -105 -136 -241 -73 -97 -127 -159 -167 -190 -107 -82 -134 -121
-161 -229 -14 -61 -20 -105 -15 -119 4 -13 7 -47 5 -76 -5 -113 56 -222 158
-284 20 -12 56 -38 81 -58 97 -79 118 -89 217 -96 99 -7 170 5 197 35 8 9 29
72 48 140 l33 123 207 134 c115 74 212 134 217 134 4 0 61 -68 126 -151 l118
-151 198 -536 c110 -294 199 -548 199 -563 0 -15 9 -47 19 -72 10 -24 24 -70
31 -103 6 -32 22 -108 35 -169 13 -60 44 -291 69 -512 l46 -402 55 -149 c30
-82 55 -159 55 -170 0 -22 10 -35 146 -192 50 -58 106 -128 125 -157 27 -40
80 -85 244 -206 245 -181 224 -152 322 -447 83 -248 93 -297 93 -450 0 -155
-28 -289 -135 -645 -13 -44 -31 -141 -41 -216 l-16 -136 -64 -44 c-35 -24
-149 -114 -252 -200 -105 -88 -215 -170 -249 -188 -49 -24 -63 -36 -68 -59 -5
-24 -10 -28 -29 -25 -15 3 -56 -16 -130 -64 -101 -63 -113 -74 -177 -164 -73
-102 -85 -142 -51 -171 29 -25 43 -26 203 -17 98 6 173 6 207 -1 29 -5 107
-13 172 -16 66 -4 120 -9 120 -12 0 -2 -29 -43 -64 -91 -35 -48 -66 -96 -70
-109 -4 -12 -18 -30 -32 -41 -37 -29 -56 -81 -41 -112 18 -36 42 -35 106 5 94
58 140 73 394 132 142 33 256 64 276 76 40 25 62 74 61 131 -3 119 37 171 192
252 64 33 127 68 141 77 38 26 71 90 107 208 68 222 138 375 323 705 98 176
190 335 203 354 65 92 78 263 29 386 -38 97 -42 165 -15 278 13 51 27 100 32
110 5 10 20 82 34 160 19 115 34 166 77 271 29 72 58 131 64 133 6 2 28 -15
49 -39 149 -162 237 -223 365 -252 35 -9 160 -21 277 -28 202 -11 213 -13 216
-32 23 -136 42 -201 84 -302 90 -215 164 -325 352 -529 66 -71 120 -137 120
-145 0 -8 -12 -51 -26 -95 -30 -92 -32 -108 -68 -465 -15 -146 -31 -281 -36
-300 -6 -19 -10 -80 -10 -136 0 -100 0 -102 -58 -239 l-57 -139 -130 -79 c-72
-43 -161 -94 -200 -112 -95 -44 -173 -104 -232 -178 -47 -59 -54 -63 -136 -90
-74 -24 -97 -37 -147 -84 -62 -57 -74 -88 -51 -131 5 -9 12 -24 14 -33 6 -19
87 -29 242 -29 55 -1 161 -5 235 -10 147 -10 150 -9 150 45 0 33 19 45 376
231 124 64 133 71 177 133 43 60 47 71 47 123 0 46 4 59 19 68 18 9 50 124 91
329 13 66 56 194 81 241 11 19 19 40 19 48 0 17 81 176 131 259 63 103 145
211 214 283 34 36 89 99 122 140 98 122 105 209 31 370 -61 131 -92 392 -69
576 8 67 8 105 0 148 -7 31 -10 58 -7 61 7 7 210 -71 289 -111 41 -20 101 -54
135 -75 l61 -39 41 -142 c52 -181 65 -354 38 -508 -14 -78 -15 -104 -5 -144
17 -72 6 -306 -30 -616 -26 -225 -37 -283 -68 -385 -60 -191 -108 -247 -448
-527 -33 -28 -67 -62 -76 -76 -12 -21 -40 -36 -117 -64 -55 -20 -119 -49 -142
-63 -104 -66 -170 -163 -192 -284 -15 -78 -1 -111 46 -111 17 0 193 18 391 41
347 39 361 42 387 67 18 16 24 29 19 36 -12 14 254 303 324 353 71 51 178 100
264 122 l75 18 18 64 c11 35 23 125 28 199 5 74 17 160 25 190 9 30 20 93 24
140 4 47 14 99 23 115 8 17 18 48 21 70 9 56 81 274 109 329 l23 46 68 -202
c37 -112 75 -215 85 -229 46 -68 189 -230 207 -235 12 -3 46 -4 77 -2 l57 3
-71 59 c-38 33 -87 83 -108 111 -58 78 -110 189 -110 233 0 21 -20 98 -45 172
-25 74 -45 139 -45 145 0 28 59 -98 65 -141 8 -48 60 -175 135 -324 29 -58 54
-90 98 -129 l60 -51 82 9 c45 5 84 12 87 15 12 12 -21 36 -68 50 -52 16 -106
66 -147 139 l-22 40 39 -36 c49 -44 103 -57 131 -32 47 42 27 90 -41 101 -30
5 -40 12 -48 35 -5 16 -23 46 -39 66 -16 21 -45 74 -64 118 l-36 80 -2 455
c-2 289 1 476 8 512 11 61 5 102 -23 144 -13 21 -14 34 -5 87 6 34 22 85 35
112 24 49 35 78 71 180 9 28 21 58 25 67 7 13 -6 32 -54 81 -118 121 -109 100
-91 202 8 50 28 131 44 180 20 62 34 137 45 243 14 141 14 173 0 390 l-16 237
-50 155 c-55 171 -132 334 -228 482 -92 142 -165 202 -286 234 -65 18 -157 18
-199 0 l-34 -14 -101 118 c-56 66 -120 134 -144 153 -173 138 -475 255 -881
343 -76 16 -367 49 -921 104 -838 83 -934 96 -1075 152 -165 65 -266 131 -577
376 -154 121 -163 129 -177 177 -17 56 -62 106 -116 129 -20 8 -59 42 -89 75
-29 34 -58 61 -65 61 -9 0 -15 18 -18 51 -8 78 -62 134 -138 142 -24 3 -36 11
-42 28 -14 37 -56 88 -100 120 -40 28 -41 29 -66 10 l-25 -18 -31 45 c-20 29
-49 55 -81 71 -27 14 -52 29 -55 33 -3 4 -14 42 -24 85 -33 143 -50 162 -135
150 -37 -5 -38 -4 -49 39 -7 27 -27 59 -50 82 -21 21 -46 59 -55 84 -20 51
-72 104 -113 114 -16 4 -30 19 -40 43 -22 52 -61 107 -99 135 l-33 25 -25 -23
-26 -24 -22 24 c-27 28 -50 31 -71 7 -24 -28 -27 -49 -16 -85 8 -29 6 -50 -16
-124 -15 -49 -37 -112 -48 -141 -23 -56 -19 -82 13 -90 18 -5 20 -11 14 -42
-18 -105 -30 -125 -98 -171 -53 -36 -51 -71 9 -144 l47 -56 24 32 c51 69 94
148 126 234 27 73 36 114 46 226 7 75 17 153 22 173 10 34 11 36 24 18 10 -12
14 -46 15 -100 0 -76 -5 -97 -60 -252 -33 -94 -60 -183 -60 -200 0 -31 42 -91
64 -91 6 0 25 12 41 28 26 23 38 55 84 220 30 106 58 189 62 185 5 -5 13 -49
20 -99 15 -119 2 -214 -51 -377 -22 -68 -40 -135 -40 -149 0 -58 90 -80 118
-28 12 23 12 21 6 -22 -6 -43 -4 -49 21 -72 54 -50 93 -25 109 69 4 22 16 69
27 104 23 77 49 228 49 289 0 63 19 49 48 -34 23 -66 23 -76 18 -258 -6 -178
-5 -191 15 -232 11 -24 34 -53 51 -65 l30 -22 26 20 c30 22 30 19 17 194 -11
148 7 157 29 14 17 -111 17 -119 0 -184 -15 -58 -16 -75 -5 -110 19 -67 98
-104 134 -63 20 22 23 41 10 72 -7 17 -7 49 0 99 7 54 7 86 -1 118 -7 24 -12
69 -12 101 l0 57 25 -42 c37 -62 55 -201 54 -420 -1 -163 1 -187 18 -215 24
-42 55 -47 88 -14 l25 25 0 236 c0 155 4 235 10 235 16 0 18 -13 30 -215 15
-265 14 -261 63 -290 38 -22 41 -27 38 -63 -2 -33 2 -43 25 -61 29 -23 50 -26
74 -11 8 5 24 60 40 140 l27 131 12 -38 c18 -53 -1 -239 -34 -344 -14 -44 -25
-91 -25 -105 0 -39 25 -88 60 -117 29 -25 35 -26 54 -14 12 8 22 27 24 43 5
54 55 389 58 393 2 2 69 -50 150 -115 333 -270 376 -292 679 -364 150 -35 271
-52 1020 -140 923 -108 951 -113 1230 -210 122 -43 386 -156 436 -188 44 -28
108 -108 228 -286 l110 -163 70 -229 c39 -126 71 -241 71 -255 0 -15 7 -43 15
-62 10 -24 15 -70 15 -136 0 -77 10 -151 46 -333 53 -276 70 -335 124 -447 61
-125 124 -215 230 -323 52 -54 109 -115 127 -136 l32 -39 -20 -54 c-12 -30
-36 -82 -55 -115 -59 -106 -96 -232 -160 -549 -7 -38 -23 -93 -34 -120 -11
-28 -29 -97 -39 -155 -24 -135 -68 -305 -91 -350 -10 -19 -25 -66 -33 -105 -8
-38 -31 -107 -51 -151 -20 -45 -46 -119 -57 -165 -12 -46 -28 -96 -35 -111 -8
-15 -14 -45 -14 -68 0 -22 -7 -57 -15 -77 -8 -19 -15 -59 -15 -88 0 -30 -9
-91 -19 -137 -11 -46 -22 -123 -26 -173 -10 -131 -10 -132 -57 -138 -22 -3
-50 -14 -61 -25 -12 -11 -33 -22 -47 -25 -83 -20 -312 -204 -395 -317 -20 -27
-46 -52 -57 -56 -12 -4 -30 -16 -39 -28 -18 -21 -18 -21 -114 74 l-96 96 123
89 c121 89 297 245 331 294 35 52 91 218 137 411 4 19 15 60 23 90 9 32 18
126 22 229 4 95 13 195 20 222 12 43 11 77 -7 242 -18 168 -19 206 -8 304 10
102 8 277 -6 427 -6 72 -107 230 -183 286 -77 58 -170 103 -276 135 -130 40
-153 54 -321 196 -136 115 -155 135 -182 191 -44 93 -72 123 -106 114 -15 -4
-32 -18 -39 -33 -10 -23 -6 -37 48 -139 33 -62 57 -115 55 -117 -3 -2 -117
-17 -255 -34 -288 -36 -288 -36 -295 -44 -3 -4 -203 1 -445 11 -499 19 -487
16 -562 106 -122 148 -164 181 -273 215 -32 10 -89 33 -127 52 -81 41 -234 91
-325 107 l-66 12 10 40 c5 22 13 49 18 59 6 10 30 75 55 144 l45 127 -34 -6
c-18 -4 -46 -2 -61 4 -15 6 -30 9 -32 6 -11 -11 -126 -315 -133 -351 -4 -22
-24 -65 -45 -95 -92 -135 -154 -305 -190 -520 -6 -41 -18 -95 -24 -119 -21
-75 -10 -108 86 -250 25 -37 47 -85 54 -117 11 -50 10 -62 -17 -157 -18 -63
-55 -154 -98 -237 -38 -74 -79 -163 -92 -196 -54 -144 -91 -356 -103 -584 -5
-112 -9 -131 -33 -175 -16 -28 -41 -77 -57 -110 -26 -53 -37 -65 -91 -95 -137
-78 -225 -133 -279 -174 -59 -46 -181 -170 -241 -245 l-36 -44 -39 58 c-48 69
-103 113 -190 151 -36 16 -64 33 -62 39 4 11 35 22 88 30 27 4 85 47 263 195
200 167 232 190 263 190 38 0 92 44 94 77 1 10 3 36 4 58 8 127 46 326 69 364
3 5 21 80 39 168 19 87 41 172 50 190 43 82 60 350 33 504 -8 41 -25 97 -38
125 -38 75 -69 187 -62 223 4 20 2 37 -7 47 -8 10 -19 60 -24 113 l-10 96 -32
3 c-32 3 -33 4 -73 128 -22 69 -51 146 -64 172 -14 26 -28 67 -31 92 -10 85
-60 139 -106 117 -22 -12 -24 -18 -27 -104 l-3 -92 48 -88 48 -88 -70 50
c-192 136 -221 158 -229 173 -5 9 -51 62 -101 117 -91 100 -92 101 -159 264
-90 223 -109 315 -136 656 -15 193 -36 327 -75 480 -18 72 -38 157 -45 190 -7
33 -30 118 -51 189 -22 71 -39 142 -39 158 0 15 -27 81 -60 145 -37 72 -78
172 -106 262 -110 353 -127 401 -173 496 -27 55 -93 162 -148 239 l-101 138
97 97 c136 134 212 256 197 315 -8 34 -44 66 -73 66 -31 0 -63 -34 -63 -67 0
-46 -102 -162 -233 -267 -160 -127 -340 -250 -467 -316 l-105 -55 -20 -60
c-11 -34 -36 -98 -54 -143 l-35 -83 -70 3 c-63 3 -72 6 -81 26 -6 14 -43 41
-92 68 -72 39 -86 52 -121 107 -42 67 -46 90 -43 240 l1 57 156 165 c148 156
251 282 287 352 9 17 30 79 46 137 17 59 33 112 37 119 23 38 126 158 217 253
58 60 137 150 176 199 60 77 71 96 71 130 0 34 -7 46 -52 92 -58 59 -55 61 48
37 70 -16 113 -9 115 18 3 41 -5 76 -25 98 -23 26 -60 100 -53 106 5 6 143
-113 188 -161 24 -26 54 -46 80 -54 34 -10 40 -16 36 -34 -2 -12 -10 -50 -18
-85 -16 -74 -4 -109 44 -125 35 -11 50 1 84 67 31 62 41 157 23 221 -18 63
-94 148 -124 139 -11 -4 -25 -13 -31 -21 -8 -11 -41 17 -155 128 -104 102
-160 149 -198 166 -63 30 -115 36 -159 20z m6757 -3660 c49 -35 67 -60 158
-217 88 -153 110 -199 153 -330 58 -179 89 -343 89 -480 0 -105 -44 -508 -59
-538 -14 -28 -33 -85 -38 -114 -3 -16 -9 -28 -13 -28 -4 0 -33 39 -65 88 -50
77 -54 87 -37 90 45 7 57 37 58 146 1 111 17 261 34 316 21 68 -27 524 -60
565 -4 5 -22 51 -39 100 -18 50 -44 107 -58 128 -65 94 -224 207 -271 193 -14
-5 -22 1 -30 20 -7 14 -10 30 -7 34 3 5 -1 23 -9 39 -20 38 -11 42 74 35 56
-5 73 -12 120 -47z m3 -366 c19 -36 58 -125 86 -198 l53 -132 6 -181 c6 -163
5 -196 -18 -348 l-26 -167 -32 102 -32 101 31 144 c27 127 30 158 27 278 -3
128 -5 138 -33 188 -38 70 -80 106 -115 98 l-27 -5 -17 112 c-23 160 -24 158
24 112 21 -21 55 -68 73 -104z m-3773 -1302 c49 -10 287 -105 308 -124 2 -1
-8 -16 -22 -32 -46 -54 -78 -163 -106 -358 -7 -44 -20 -101 -31 -126 -10 -25
-21 -66 -25 -90 -4 -24 -16 -62 -27 -84 -12 -24 -22 -68 -25 -111 -4 -61 1
-87 37 -205 44 -147 50 -202 25 -252 -39 -76 -238 -402 -315 -517 -111 -165
-185 -346 -205 -502 -4 -29 -13 -62 -20 -73 -8 -11 -14 -26 -14 -35 0 -8 -7
-28 -15 -44 -8 -15 -15 -36 -15 -45 -1 -17 -221 -169 -277 -191 -30 -11 -113
-90 -113 -107 -1 -32 -16 -34 -156 -17 -76 8 -140 17 -142 18 -4 5 269 202
348 250 41 25 84 46 95 46 31 0 44 18 118 175 l67 140 15 173 c9 96 22 192 30
215 8 23 15 68 15 99 0 37 10 83 29 135 54 149 194 488 211 513 30 44 43 100
37 163 -4 49 -20 91 -81 215 -42 84 -74 157 -72 161 3 4 15 66 26 137 29 174
49 237 123 376 57 109 64 118 87 113 14 -2 54 -10 90 -16z m2485 -440 c36 -28
65 -53 65 -57 0 -3 -7 -13 -15 -22 -44 -48 -53 -401 -17 -637 19 -125 52 -250
93 -349 11 -29 10 -34 -31 -95 -24 -35 -80 -103 -125 -150 -113 -120 -156
-184 -282 -424 -131 -249 -169 -334 -183 -406 -6 -30 -27 -120 -48 -201 -31
-125 -35 -152 -25 -177 10 -29 7 -35 -63 -130 -74 -97 -76 -100 -152 -130 -99
-40 -225 -115 -312 -185 l-67 -54 -72 72 -72 73 71 57 c54 44 90 64 148 83
124 40 209 90 289 169 61 61 80 89 126 185 l54 114 23 244 c12 134 26 256 30
270 5 14 14 98 20 186 11 163 33 310 52 355 6 14 21 65 33 115 l23 90 -94 110
c-52 60 -126 146 -165 190 -144 162 -245 342 -285 505 -14 58 -27 113 -30 123
-5 16 8 17 178 17 181 0 232 5 223 20 -6 10 47 17 255 31 138 10 187 17 230
35 30 12 56 23 58 23 1 1 32 -22 67 -50z m1602 -711 c-3 -8 -6 -5 -6 6 -1 11
2 17 5 13 3 -3 4 -12 1 -19z m-2 -336 c-2 -2 -15 18 -30 44 -31 52 -30 79 2
208 l18 69 6 -159 c3 -87 5 -160 4 -162z m-112 -219 c4 -62 2 -70 -10 -58 -8
8 -21 18 -30 23 -13 8 -13 12 0 38 8 16 18 43 22 59 9 38 12 28 18 -62z
m-5611 -1169 c81 -59 96 -75 73 -71 -16 3 -88 9 -160 12 -71 3 -143 8 -159 11
l-28 6 38 40 c38 39 97 77 121 78 7 0 59 -34 115 -76z m701 -181 c59 -17 64
-22 47 -52 -7 -14 -27 -20 -82 -25 -83 -8 -206 -35 -292 -65 l-59 -21 48 43
c26 23 60 49 74 57 14 8 48 32 75 52 54 42 73 43 189 11z m3546 -299 c12 -9
42 -37 64 -62 23 -25 50 -54 60 -64 9 -10 17 -20 17 -23 0 -3 -39 -5 -87 -5
-127 0 -265 -22 -416 -66 -32 -10 39 92 91 129 74 54 182 105 227 106 11 1 31
-6 44 -15z m-1504 -83 c22 -10 48 -27 58 -39 l18 -20 -103 4 c-139 6 -192 14
-181 25 22 22 91 48 128 48 22 0 58 -8 80 -18z"/>
<path d="M2572 8978 c-6 -18 -13 -78 -17 -133 -5 -77 -11 -106 -27 -128 -11
-16 -23 -49 -26 -73 -6 -55 16 -84 64 -84 32 0 33 2 68 93 40 105 61 211 52
262 -9 45 -51 95 -81 95 -18 0 -26 -8 -33 -32z"/>
<path d="M2735 8888 c-2 -7 -9 -43 -15 -79 -6 -36 -26 -95 -43 -131 -26 -52
-31 -75 -29 -117 3 -45 6 -51 25 -51 37 0 94 56 129 128 27 55 33 78 33 134 0
60 -3 70 -29 97 -31 32 -64 40 -71 19z"/>
<path d="M1790 8326 c-11 -22 -10 -28 11 -53 15 -18 45 -36 81 -47 l58 -18 0
-64 c0 -34 5 -66 10 -69 6 -3 10 -16 10 -29 0 -58 81 -74 154 -31 50 29 146
127 168 170 14 27 14 33 -2 60 -15 28 -24 31 -116 47 -54 10 -133 19 -174 22
-41 2 -92 11 -112 20 -51 22 -72 20 -88 -8z"/>
<path d="M1638 8008 c-184 -213 -329 -392 -334 -415 -5 -20 -2 -31 16 -45 12
-10 30 -18 40 -18 21 0 254 199 308 263 40 48 89 145 98 196 6 30 3 38 -22 58
-16 12 -34 23 -41 23 -6 0 -36 -28 -65 -62z"/>
<path d="M1135 7424 c-21 -32 -13 -83 15 -109 12 -11 37 -19 62 -19 35 -1 44
3 57 26 28 49 -13 109 -86 122 -26 4 -34 1 -48 -20z"/>
</g>
</svg>
