<?xml version="1.0" standalone="no"?>
<!DOCTYPE svg PUBLIC "-//W3C//DTD SVG 20010904//EN"
 "http://www.w3.org/TR/2001/REC-SVG-20010904/DTD/svg10.dtd">
<svg version="1.0" xmlns="http://www.w3.org/2000/svg"
 width="1024.000000pt" height="1024.000000pt" viewBox="0 0 1024.000000 1024.000000"
 preserveAspectRatio="xMidYMid meet">
<metadata>
Created by potrace 1.10, written by Peter Selinger 2001-2011
</metadata>
<g transform="translate(0.000000,1024.000000) scale(0.100000,-0.100000)"
fill="#000000" stroke="none">
<path d="M4870 8609 c-182 -38 -189 -40 -390 -136 -113 -53 -224 -113 -248
-132 -23 -20 -102 -102 -175 -183 -192 -213 -299 -402 -402 -712 -73 -220 -88
-310 -89 -536 0 -163 3 -213 22 -305 28 -140 69 -262 127 -376 56 -112 76
-142 238 -352 l129 -168 -63 -67 c-34 -37 -112 -120 -173 -186 -111 -118 -553
-505 -714 -624 -250 -185 -579 -347 -877 -432 -79 -22 -116 -38 -133 -56 -44
-49 -18 -124 42 -124 37 0 333 102 470 162 207 90 463 240 656 384 252 187
586 491 784 713 55 61 103 111 107 111 9 0 680 -694 692 -715 5 -10 3 -21 -6
-30 -8 -8 -60 -79 -116 -159 -99 -142 -104 -147 -338 -352 -231 -203 -254
-220 -778 -578 l-540 -369 -388 -192 c-213 -106 -396 -200 -407 -210 -11 -10
-20 -28 -20 -40 0 -25 34 -65 56 -65 9 0 127 44 262 98 200 79 272 113 377
178 72 44 319 197 550 340 l419 259 421 340 c353 287 431 354 488 425 38 47
80 111 95 142 15 32 29 58 32 58 3 0 51 -87 107 -193 88 -165 119 -238 218
-511 64 -176 114 -324 111 -331 -2 -6 -441 -367 -975 -801 l-971 -789 -328
-201 c-326 -201 -362 -229 -362 -279 0 -11 7 -31 16 -43 15 -22 54 -28 102
-16 12 4 327 222 700 485 l677 479 593 491 c327 270 595 489 596 487 1 -2 26
-167 54 -368 l52 -365 21 -785 c11 -432 23 -788 27 -792 4 -3 40 -4 80 -1 l72
6 0 86 c0 47 -7 374 -15 726 l-16 640 -65 489 c-63 472 -65 490 -47 506 10 10
212 166 448 347 402 308 635 477 764 552 l54 32 23 -23 c12 -13 88 -95 169
-183 127 -139 172 -197 335 -441 111 -165 193 -299 200 -323 6 -23 27 -69 47
-103 30 -52 67 -179 259 -892 221 -825 223 -833 255 -1066 18 -129 36 -239 40
-244 4 -5 28 3 54 18 29 18 53 25 66 21 19 -6 20 -4 14 67 -3 40 -10 135 -15
210 -7 86 -20 173 -36 235 -15 54 -31 121 -36 148 -6 28 -19 71 -29 97 -11 26
-19 69 -19 96 0 27 -6 67 -14 88 -7 22 -17 64 -21 94 -4 30 -61 239 -126 463
l-119 409 -154 334 -154 333 -208 288 c-268 371 -312 420 -457 504 -70 40
-112 48 -149 28 -34 -19 -301 -216 -786 -582 -255 -192 -465 -347 -467 -345
-2 2 -27 74 -55 160 -60 185 -263 613 -392 827 -79 129 -96 149 -432 505 -192
204 -360 383 -374 398 l-25 27 39 48 c21 26 102 136 179 245 125 175 153 221
244 411 l103 213 296 29 297 30 32 30 c48 45 52 78 15 115 -37 37 -37 37 -307
5 -115 -14 -222 -25 -237 -25 l-27 0 24 68 c12 37 30 83 38 102 8 19 32 98 52
175 41 153 46 226 31 411 l-9 101 29 7 c16 3 130 12 252 20 239 15 262 22 262
71 0 26 -39 65 -66 65 -11 0 -30 7 -43 16 -24 17 -68 17 -357 -3 l-91 -6 -6
144 c-9 192 -33 309 -81 389 -20 35 -33 66 -29 70 4 4 42 15 83 25 107 24 155
49 174 90 19 39 14 58 -20 74 -40 18 -96 12 -294 -30z m-64 -291 l47 -93 18
-195 c9 -107 16 -196 14 -198 -1 -1 -155 -16 -341 -33 -308 -27 -352 -33 -481
-68 -79 -21 -143 -35 -143 -32 0 13 102 175 156 248 104 140 216 247 338 321
109 66 181 101 261 127 76 25 79 24 131 -77z m91 -695 c4 -27 8 -102 8 -168 0
-155 -28 -288 -103 -497 l-57 -157 -55 -5 c-104 -10 -950 -40 -956 -33 -13 12
-16 274 -5 375 9 82 23 138 68 263 l56 160 56 -6 c39 -3 187 13 481 54 234 32
442 59 462 60 36 1 37 0 45 -46z m-233 -1005 c-28 -50 -469 -756 -479 -766
-17 -19 -272 340 -336 473 -43 89 -105 272 -96 282 2 2 181 7 398 11 217 5
422 10 457 10 48 2 61 -1 56 -10z"/>
</g>
</svg>
