<?xml version="1.0" standalone="no"?>
<!DOCTYPE svg PUBLIC "-//W3C//DTD SVG 20010904//EN"
 "http://www.w3.org/TR/2001/REC-SVG-20010904/DTD/svg10.dtd">
<svg version="1.0" xmlns="http://www.w3.org/2000/svg"
 width="1024.000000pt" height="1024.000000pt" viewBox="0 0 1024.000000 1024.000000"
 preserveAspectRatio="xMidYMid meet">
<metadata>
Created by potrace 1.10, written by Peter Selinger 2001-2011
</metadata>
<g transform="translate(0.000000,1024.000000) scale(0.100000,-0.100000)"
fill="#000000" stroke="none">
<path d="M5170 7913 l-855 -134 -208 12 c-114 6 -210 9 -213 6 -6 -6 25 -127
38 -143 4 -6 64 -46 133 -89 l125 -78 -1 -146 c0 -80 -13 -715 -28 -1411 l-28
-1265 41 -95 c61 -145 147 -262 180 -243 39 23 104 71 153 114 92 81 194 125
423 184 655 168 943 220 1016 182 60 -31 59 -17 14 -683 -42 -624 -61 -810
-106 -1064 -58 -324 -129 -530 -198 -575 -21 -14 -45 -10 -310 51 -158 36
-291 64 -297 62 -5 -2 38 -55 96 -118 187 -203 265 -317 341 -500 33 -77 101
-140 153 -140 13 0 70 45 142 113 117 109 123 115 175 222 96 199 178 479 269
930 56 276 93 518 145 950 50 415 73 574 102 686 l22 86 -84 108 c-100 126
-144 167 -225 206 -85 41 -151 36 -215 -16 -8 -6 -80 -39 -160 -73 -104 -43
-176 -67 -255 -82 -60 -12 -120 -24 -132 -27 l-23 -5 0 394 0 394 243 32 c348
47 357 48 383 73 41 38 39 53 -17 127 l-51 69 -97 23 -96 22 -159 -51 c-88
-28 -170 -51 -183 -51 l-23 0 2 342 3 342 280 39 c360 49 384 53 408 74 40 36
38 54 -17 125 -50 66 -52 68 -144 98 l-92 32 -183 -66 c-103 -37 -198 -66
-219 -66 l-38 0 0 325 c0 323 0 324 -22 345 -32 30 -69 48 -130 64 l-52 13 99
7 c55 4 311 27 568 50 l468 42 30 30 c17 17 32 45 35 64 5 32 1 40 -59 99 -59
57 -74 66 -154 92 -48 16 -104 28 -123 28 -19 -1 -420 -62 -890 -136z m-198
-352 c97 -128 109 -180 115 -483 3 -137 2 -248 -2 -248 -8 0 -541 -88 -577
-96 l-28 -6 0 390 0 390 78 17 c42 10 142 32 222 50 80 18 147 33 150 34 3 0
21 -22 42 -48z m118 -1300 l0 -339 -27 -6 c-80 -15 -595 -87 -600 -83 -6 7 11
664 18 671 6 6 545 93 587 95 l22 1 0 -339z m0 -991 c0 -225 -2 -410 -4 -410
-2 0 -129 -29 -282 -65 -153 -36 -292 -65 -308 -63 -57 6 -58 11 -51 458 4
223 8 406 8 406 4 3 584 82 610 83 l27 1 0 -410z"/>
<path d="M5120 4398 c0 -7 13 -26 29 -43 56 -58 187 -252 229 -338 24 -47 59
-136 78 -197 27 -84 42 -115 65 -134 37 -31 107 -43 146 -24 38 18 72 90 80
170 7 75 -6 122 -48 185 -39 57 -420 337 -502 369 -70 27 -77 29 -77 12z"/>
<path d="M4611 4146 c-10 -11 3 -41 62 -148 71 -126 78 -146 142 -373 37 -132
72 -249 77 -260 42 -82 141 -100 203 -37 47 47 58 87 59 207 1 155 -6 167
-229 393 -205 210 -279 260 -314 218z"/>
<path d="M4118 3936 c-16 -12 -14 -20 22 -112 69 -176 117 -397 140 -644 18
-196 45 -254 123 -267 47 -7 114 25 145 71 30 44 52 126 52 196 0 64 -68 316
-104 389 -51 100 -163 230 -273 316 -45 36 -83 65 -85 65 -2 0 -11 -6 -20 -14z"/>
<path d="M3785 3743 c-36 -209 -81 -350 -236 -745 -40 -101 -41 -150 -7 -307
l32 -143 69 -56 c55 -44 72 -54 85 -46 31 19 79 113 115 222 82 247 102 474
66 742 -12 89 -63 299 -81 337 -20 41 -36 39 -43 -4z"/>
</g>
</svg>
