<?xml version="1.0" standalone="no"?>
<!DOCTYPE svg PUBLIC "-//W3C//DTD SVG 20010904//EN"
 "http://www.w3.org/TR/2001/REC-SVG-20010904/DTD/svg10.dtd">
<svg version="1.0" xmlns="http://www.w3.org/2000/svg"
 width="1024.000000pt" height="1024.000000pt" viewBox="0 0 1024.000000 1024.000000"
 preserveAspectRatio="xMidYMid meet">
<metadata>
Created by potrace 1.10, written by Peter Selinger 2001-2011
</metadata>
<g transform="translate(0.000000,1024.000000) scale(0.100000,-0.100000)"
fill="#000000" stroke="none">
<path d="M4571 9034 c-66 -28 -125 -55 -131 -59 -15 -10 20 -46 87 -91 206
-137 298 -290 351 -584 12 -70 16 -224 19 -852 3 -537 1 -768 -6 -768 -6 0
-397 -38 -868 -85 -472 -47 -974 -97 -1116 -111 -142 -14 -265 -24 -273 -22
-28 6 310 521 502 768 70 90 90 172 59 247 -19 46 -128 151 -231 224 -102 72
-484 249 -537 249 -24 0 -40 -5 -43 -14 -3 -8 24 -105 60 -215 l66 -200 -16
-78 c-28 -138 -101 -307 -269 -623 -296 -559 -471 -849 -764 -1269 -163 -234
-323 -426 -450 -541 -80 -72 -160 -174 -147 -187 24 -24 190 44 365 149 206
125 528 420 803 738 46 53 426 523 485 599 1 2 56 -19 120 -47 222 -96 385
-145 525 -158 83 -7 846 80 1407 161 173 25 318 45 323 45 4 0 8 -403 8 -895
l0 -894 -32 -5 c-99 -16 -1437 -158 -1623 -172 l-220 -17 -325 37 c-179 20
-335 36 -347 36 -21 0 -21 -2 19 -121 l40 -120 65 -54 c74 -61 152 -105 240
-134 34 -12 84 -35 110 -51 119 -76 261 -90 403 -40 70 25 220 50 862 145 428
63 785 115 793 115 13 0 15 -118 15 -1010 0 -706 -3 -1010 -11 -1010 -8 0
-975 -76 -2598 -205 -320 -26 -326 -26 -580 -11 -204 12 -308 24 -509 57 -138
23 -254 40 -257 37 -3 -2 12 -75 32 -161 l37 -157 220 -124 c122 -68 232 -129
246 -136 14 -8 122 -48 240 -90 l214 -77 131 34 c71 19 155 45 185 58 231 96
638 194 1018 244 81 11 1020 82 2087 157 l1940 137 805 -62 c443 -34 890 -71
993 -82 280 -28 363 -23 418 27 48 43 5 158 -98 266 -85 87 -190 163 -362 262
-208 120 -359 183 -491 206 -61 10 -75 9 -211 -24 -196 -48 -585 -91 -2054
-226 -418 -38 -784 -73 -812 -76 l-53 -6 0 1015 0 1016 33 5 c17 3 550 39
1182 81 633 41 1168 77 1190 80 100 14 165 71 165 146 0 43 -40 94 -133 167
-56 45 -79 55 -228 101 l-166 52 -124 -15 c-68 -8 -254 -36 -414 -61 -169 -27
-541 -73 -894 -110 -333 -36 -606 -65 -608 -65 -2 0 -3 407 -3 904 l0 905 43
6 c35 4 915 98 1652 175 328 35 575 85 654 132 109 65 167 139 177 225 6 47 5
50 -36 87 -65 59 -187 110 -389 166 l-185 50 -215 -56 c-119 -30 -292 -77
-386 -104 -209 -60 -448 -118 -705 -171 -238 -49 -566 -109 -593 -109 -19 0
-20 10 -14 713 3 391 11 764 17 827 5 63 24 174 42 245 20 85 29 141 24 158
-10 42 -78 110 -143 144 -85 45 -150 66 -430 142 l-253 68 -119 -53z"/>
</g>
</svg>
