<?xml version="1.0" standalone="no"?>
<!DOCTYPE svg PUBLIC "-//W3C//DTD SVG 20010904//EN"
 "http://www.w3.org/TR/2001/REC-SVG-20010904/DTD/svg10.dtd">
<svg version="1.0" xmlns="http://www.w3.org/2000/svg"
 width="1024.000000pt" height="1024.000000pt" viewBox="0 0 1024.000000 1024.000000"
 preserveAspectRatio="xMidYMid meet">
<metadata>
Created by potrace 1.10, written by Peter Selinger 2001-2011
</metadata>
<g transform="translate(0.000000,1024.000000) scale(0.100000,-0.100000)"
fill="#000000" stroke="none">
<path d="M5283 8548 c-18 -18 -45 -60 -60 -93 l-28 -60 -6 -490 c-4 -269 -7
-686 -8 -926 l-1 -437 -27 -6 c-59 -14 -320 -18 -408 -7 -123 16 -371 84 -447
122 -224 113 -367 283 -432 515 -15 51 -43 219 -66 394 -42 318 -59 389 -112
477 -35 58 -36 58 -101 68 -45 7 -46 6 -76 -35 -37 -52 -42 -119 -12 -178 21
-42 96 -469 106 -606 23 -315 205 -628 460 -791 242 -155 661 -250 955 -216
53 6 110 13 128 17 l32 7 0 -425 0 -425 -40 -28 c-110 -76 -216 -226 -256
-360 -24 -82 -24 -222 0 -295 51 -151 135 -252 247 -296 l69 -27 -1 -781 c-1
-679 -14 -1879 -21 -2018 -2 -35 -7 -48 -18 -48 -8 0 -195 -13 -415 -30 -220
-16 -769 -56 -1220 -89 -451 -33 -838 -63 -860 -66 -84 -12 -133 -70 -119
-141 13 -67 17 -69 303 -72 168 -3 330 2 471 12 248 18 413 29 2750 171 954
58 1750 108 1769 111 78 13 107 95 52 148 l-29 28 -264 15 c-263 14 -265 14
-1222 -26 -528 -23 -962 -39 -964 -36 -5 5 11 1535 25 2406 l6 407 38 11 c132
40 314 236 371 399 33 95 33 275 1 377 -31 99 -90 185 -162 238 -63 47 -181
91 -242 91 l-36 1 -7 225 c-3 124 -9 302 -12 395 l-7 170 124 49 c445 174 953
491 1235 771 265 264 437 574 509 925 9 41 27 109 41 150 39 113 26 164 -58
232 -42 35 -78 31 -107 -11 -12 -16 -43 -125 -76 -262 -31 -129 -62 -243 -69
-254 -7 -11 -25 -54 -41 -95 -45 -120 -141 -271 -263 -413 -199 -231 -614
-539 -951 -706 -129 -64 -329 -146 -337 -138 -3 2 3 135 12 293 11 185 18 485
21 832 3 510 4 547 23 602 11 33 20 74 20 92 0 71 -76 168 -132 168 -14 0 -37
-14 -55 -32z"/>
<path d="M6616 3590 c8 -44 23 -84 29 -78 3 2 -4 29 -15 59 -14 39 -18 44 -14
19z"/>
</g>
</svg>
