<?xml version="1.0" standalone="no"?>
<!DOCTYPE svg PUBLIC "-//W3C//DTD SVG 20010904//EN"
 "http://www.w3.org/TR/2001/REC-SVG-20010904/DTD/svg10.dtd">
<svg version="1.0" xmlns="http://www.w3.org/2000/svg"
 width="1024.000000pt" height="1024.000000pt" viewBox="0 0 1024.000000 1024.000000"
 preserveAspectRatio="xMidYMid meet">
<metadata>
Created by potrace 1.10, written by Peter Selinger 2001-2011
</metadata>
<g transform="translate(0.000000,1024.000000) scale(0.100000,-0.100000)"
fill="#000000" stroke="none">
<path d="M4180 9290 c-50 -12 -80 -51 -80 -105 0 -24 20 -128 44 -232 79 -332
107 -512 127 -818 26 -407 -10 -757 -117 -1113 -51 -169 -53 -238 -15 -495 59
-394 160 -616 386 -842 108 -108 191 -172 330 -251 l104 -59 -19 -21 c-25 -25
-26 -99 -5 -199 25 -118 13 -326 -20 -339 -7 -2 -59 29 -116 71 -57 41 -119
82 -138 90 -18 8 -174 51 -345 96 -311 82 -311 82 -369 130 -102 83 -249 142
-379 153 -67 6 -89 2 -262 -46 -352 -96 -664 -238 -956 -433 -178 -119 -659
-489 -905 -696 -351 -295 -1037 -937 -1093 -1022 -29 -45 -109 -125 -149 -150
-46 -29 -59 -76 -38 -133 32 -83 133 -109 252 -64 50 18 81 44 233 192 253
247 439 399 700 573 173 115 256 163 763 437 445 241 506 267 733 313 128 26
503 26 624 0 387 -83 752 -307 948 -582 33 -46 123 -207 200 -357 l140 -273
81 -348 c44 -191 81 -351 81 -356 0 -4 -62 -11 -138 -14 -171 -7 -316 -36
-450 -89 -114 -45 -159 -80 -168 -128 l-7 -31 -276 7 c-227 6 -303 4 -426 -10
l-150 -17 -1130 69 -1130 69 -130 -38 c-235 -70 -271 -86 -315 -139 -46 -55
-54 -106 -20 -140 36 -36 61 -34 271 23 l204 55 1106 -78 c911 -65 1123 -77
1200 -70 140 12 767 128 796 147 13 9 57 22 96 29 40 7 109 26 153 43 176 65
343 81 593 57 187 -17 213 -12 250 48 27 44 13 102 -32 132 -46 31 -75 118
-148 449 l-61 280 -122 281 c-67 155 -141 313 -164 352 -323 543 -953 891
-1614 892 -179 0 -392 -48 -607 -136 -64 -27 -795 -428 -1058 -581 -24 -14
-43 -23 -43 -20 0 10 478 405 591 488 332 246 669 453 1007 620 284 139 333
154 518 154 l140 0 80 -52 c216 -142 469 -232 708 -251 l91 -7 135 -97 c151
-109 522 -453 553 -515 11 -21 35 -134 58 -272 l40 -236 103 -105 104 -105
-14 -97 c-9 -63 -35 -158 -76 -279 l-62 -183 -37 120 c-20 65 -57 192 -82 280
-56 199 -128 395 -214 579 -36 77 -74 162 -84 189 -64 159 -281 370 -447 432
-26 10 -141 83 -255 161 -143 98 -217 143 -236 143 -18 0 -38 -12 -59 -33 -27
-27 -32 -40 -31 -77 0 -43 3 -48 74 -109 78 -67 194 -145 279 -188 99 -49 222
-138 314 -227 98 -94 162 -173 162 -198 0 -9 14 -41 31 -73 17 -32 38 -81 46
-109 8 -28 33 -92 54 -142 21 -50 39 -99 39 -108 0 -9 9 -34 20 -56 11 -22 20
-47 20 -57 0 -10 11 -38 24 -63 13 -25 56 -173 96 -330 65 -251 74 -300 80
-410 8 -149 22 -185 81 -208 39 -15 39 -16 39 -69 0 -57 31 -133 66 -164 14
-12 193 -45 649 -118 347 -56 673 -110 725 -121 52 -11 282 -41 510 -65 366
-41 538 -66 1460 -220 1012 -169 1050 -176 1198 -225 176 -57 217 -61 261 -25
44 38 58 87 36 135 l-17 37 -181 52 c-318 89 -554 138 -856 177 -107 13 -512
83 -900 155 l-704 131 -221 -7 c-306 -10 -388 5 -699 125 -282 108 -668 171
-949 155 -65 -4 -118 -3 -118 1 0 5 25 69 56 144 58 138 373 693 492 865 176
254 373 495 582 709 201 206 694 625 935 794 252 178 371 234 570 269 158 27
409 3 541 -52 20 -8 163 -108 317 -222 201 -148 324 -248 429 -347 81 -76 148
-142 148 -146 0 -11 93 -29 122 -23 14 3 37 16 49 29 12 13 29 24 36 24 34 0
72 32 97 82 14 28 26 60 26 70 0 10 4 18 10 18 14 0 70 101 70 128 0 13 6 35
14 51 34 66 51 200 50 416 0 237 -14 326 -80 516 -125 361 -330 592 -602 680
-173 55 -311 57 -556 8 -179 -36 -271 -72 -451 -176 -129 -75 -173 -106 -192
-135 -22 -32 -33 -39 -81 -48 -229 -45 -559 -147 -782 -241 -345 -146 -870
-437 -1103 -612 -189 -142 -432 -387 -527 -531 -19 -29 -41 -62 -48 -72 -11
-16 -12 -10 -6 41 6 59 6 60 -13 42 -11 -9 -22 -17 -25 -17 -3 0 -8 64 -11
143 -4 111 -11 162 -31 232 -14 50 -32 132 -39 183 -13 85 -12 100 4 169 60
253 70 493 40 988 -12 193 -28 393 -37 445 -33 206 -95 402 -185 582 -27 54
-49 109 -49 124 0 40 -151 301 -265 459 -147 204 -180 252 -302 435 -142 214
-313 496 -313 518 0 9 -21 48 -45 86 -25 38 -45 80 -45 92 0 13 -4 25 -9 29
-5 3 -17 29 -25 58 -24 82 -67 113 -136 97z m550 -1229 c168 -236 237 -342
245 -374 6 -25 24 -60 40 -78 32 -39 85 -145 85 -172 0 -10 15 -46 34 -80 70
-126 82 -174 161 -642 42 -247 81 -488 86 -535 8 -77 -5 -576 -16 -636 -4 -19
-8 -20 -67 -12 -94 12 -208 43 -302 81 -97 38 -254 134 -261 158 -3 10 -37 52
-76 96 -86 95 -159 212 -200 316 -19 50 -47 173 -79 341 l-50 263 29 85 c32
91 73 247 91 343 38 211 65 715 52 1003 -4 94 -7 172 -6 172 1 0 106 -148 234
-329z m4510 -1871 c36 -6 98 -20 138 -32 69 -20 77 -25 160 -113 102 -107 167
-200 227 -328 70 -148 115 -348 115 -513 0 -56 -62 -345 -88 -414 -12 -31 -12
-32 -56 136 -18 72 -55 180 -81 240 -26 60 -56 140 -67 179 -36 129 -80 198
-213 331 -66 66 -154 142 -195 169 -161 106 -343 180 -515 208 l-80 14 50 25
c171 87 418 127 605 98z m-292 -514 c168 -101 219 -137 273 -193 76 -78 144
-179 159 -233 6 -21 18 -48 29 -61 16 -21 117 -357 109 -364 -2 -2 -160 107
-353 241 -348 242 -399 274 -485 299 -85 25 -136 26 -365 1 -226 -23 -233 -25
-375 -76 -268 -97 -485 -222 -780 -448 -107 -82 -922 -891 -1000 -992 -31 -42
-65 -82 -74 -89 -10 -8 -25 -31 -35 -51 -24 -50 -394 -651 -398 -647 -1 2 20
68 47 148 55 159 64 246 35 329 -10 29 -15 82 -15 164 -1 66 -9 211 -20 321
-10 109 -16 204 -12 210 4 5 5 18 4 27 -2 11 8 22 30 31 64 28 146 125 182
216 11 29 56 86 122 158 58 63 110 125 116 139 16 35 288 236 504 372 336 211
711 391 1093 524 l115 40 385 28 c559 40 466 52 709 -94z m-3761 -336 c55 0
61 -9 134 -213 l59 -162 -1 -195 c-1 -195 4 -238 40 -355 11 -33 22 -80 25
-105 l7 -45 -21 34 c-12 18 -89 103 -173 188 l-151 154 13 32 c53 131 55 145
56 337 0 197 -8 243 -58 314 l-21 29 25 -6 c13 -4 43 -7 66 -7z"/>
<path d="M6267 5693 c-4 -3 -7 -11 -7 -17 0 -6 5 -5 12 2 6 6 9 14 7 17 -3 3
-9 2 -12 -2z"/>
<path d="M6508 3096 c8 -31 19 -56 23 -56 8 0 -19 89 -31 103 -4 5 -1 -16 8
-47z"/>
<path d="M2483 1123 c-27 -5 -53 -39 -53 -69 0 -34 55 -84 93 -84 47 0 59 12
64 64 5 39 2 51 -17 71 -23 24 -39 27 -87 18z"/>
<path d="M3637 1042 c-10 -4 -51 -40 -92 -81 -80 -79 -88 -97 -89 -200 -1 -54
0 -55 44 -85 43 -30 49 -31 150 -31 94 0 111 3 160 27 30 15 79 48 108 73 45
41 52 51 52 84 0 40 -34 82 -76 95 -12 4 -27 19 -34 35 -6 16 -25 41 -41 57
-26 25 -39 29 -97 31 -37 1 -75 -1 -85 -5z m98 -172 c21 -41 19 -55 -11 -79
-27 -21 -87 -28 -112 -13 -20 13 21 102 47 102 11 0 23 5 26 10 12 19 35 10
50 -20z"/>
<path d="M2362 673 c-31 -9 -70 -31 -97 -55 -40 -36 -45 -44 -45 -83 0 -24 4
-46 9 -50 6 -3 13 -26 17 -50 6 -42 9 -46 61 -71 58 -29 131 -40 186 -30 49 9
118 58 156 111 44 62 40 110 -16 167 -72 76 -156 95 -271 61z m136 -129 c33
-9 27 -28 -17 -52 -45 -25 -74 -28 -90 -8 -33 39 37 78 107 60z"/>
</g>
</svg>
