<?xml version="1.0" standalone="no"?>
<!DOCTYPE svg PUBLIC "-//W3C//DTD SVG 20010904//EN"
 "http://www.w3.org/TR/2001/REC-SVG-20010904/DTD/svg10.dtd">
<svg version="1.0" xmlns="http://www.w3.org/2000/svg"
 width="480.000000pt" height="480.000000pt" viewBox="0 0 480.000000 480.000000"
 preserveAspectRatio="xMidYMid meet">
<metadata>
Created by potrace 1.11, written by Peter Selinger 2001-2013
</metadata>
<g transform="translate(0.000000,480.000000) scale(0.100000,-0.100000)"
fill="#000000" stroke="none">
<path d="M2317 4302 c-15 -10 -24 -23 -20 -27 5 -5 0 -3 -10 4 -36 28 -120
-47 -294 -263 -160 -197 -301 -473 -355 -695 -12 -50 -27 -91 -34 -91 -16 0
-64 50 -64 68 0 30 41 81 75 92 41 14 44 26 11 41 -32 15 -64 6 -104 -31 -34
-32 -51 -93 -39 -142 8 -29 74 -98 94 -98 12 0 13 -16 6 -92 -11 -131 -9 -364
6 -488 55 -457 210 -753 627 -1195 l153 -162 -22 -20 c-21 -19 -515 -407 -641
-502 -72 -56 -156 -149 -156 -174 0 -10 5 -28 11 -39 11 -20 17 -20 143 -14
72 4 160 9 196 11 117 8 223 14 345 21 66 3 136 8 155 10 19 3 199 7 400 10
201 3 375 7 387 10 22 4 39 36 34 64 -4 22 -31 40 -62 40 -23 0 -26 3 -22 21
9 31 -101 136 -383 367 l-241 197 91 97 c176 188 283 349 367 551 27 66 38 84
41 67 1 -12 11 -28 20 -33 25 -16 124 72 154 138 l24 51 -3 559 -3 559 -119
113 c-67 64 -126 112 -134 111 -49 -10 9 -104 123 -201 76 -65 74 -87 -3 -42
-33 19 -68 35 -78 35 -14 0 -51 82 -188 417 -203 501 -232 549 -379 637 -69
41 -72 42 -109 18z m47 -73 c25 -17 62 -50 81 -73 40 -49 299 -576 351 -713
31 -85 104 -324 104 -341 -1 -13 -71 -42 -100 -42 -23 0 -30 5 -30 20 0 25 -7
25 -51 3 -46 -24 -182 -24 -205 -1 -15 15 -20 14 -63 -8 -65 -34 -141 -39
-175 -13 -14 11 -26 26 -26 34 0 26 -41 22 -114 -12 -73 -35 -77 -35 -121 -23
-33 9 -49 20 -56 37 -4 12 -10 23 -13 23 -2 0 -27 -16 -56 -35 -58 -39 -106
-55 -166 -55 l-41 0 14 93 c26 182 98 399 196 592 40 79 90 148 231 323 99
122 183 222 187 222 3 0 27 -14 53 -31z m736 -1083 c19 -1 31 -7 32 -16 8 -84
4 -89 -55 -61 -24 12 -48 21 -54 21 -6 0 -13 13 -16 29 -3 16 -9 41 -13 56
l-7 27 42 -27 c23 -16 55 -28 71 -29z m-1056 -136 c12 0 56 12 98 27 l77 27
34 -32 c30 -29 39 -32 96 -32 42 0 79 7 112 22 48 20 52 20 85 5 42 -21 119
-22 156 -3 15 8 66 16 119 18 l92 3 19 -99 c11 -54 17 -100 15 -102 -2 -2 -36
-8 -76 -14 -68 -9 -75 -9 -103 12 -23 16 -43 21 -82 20 -113 -5 -180 -15 -224
-34 -64 -29 -135 -28 -194 1 l-48 23 -55 -21 c-65 -25 -105 -26 -160 -5 -57
21 -58 21 -62 4 -2 -10 11 -24 36 -38 51 -29 135 -30 200 -1 l48 20 28 -25
c51 -47 167 -47 237 -1 22 15 45 24 51 20 7 -3 23 -12 37 -20 30 -18 93 -19
122 -4 23 12 238 13 249 1 4 -4 9 -52 11 -107 l5 -100 -59 1 c-47 1 -68 7
-109 33 -42 26 -54 29 -72 20 -29 -16 -71 -14 -100 5 -29 19 -107 9 -137 -19
-19 -17 -41 -17 -127 1 -26 5 -33 3 -33 -9 0 -23 39 -57 67 -58 13 -1 33 -2
46 -3 29 -3 96 20 118 40 16 14 20 14 46 -5 37 -27 70 -31 115 -14 36 14 38
14 73 -13 46 -35 141 -47 161 -20 10 15 13 9 16 -39 4 -66 -4 -76 -65 -82 -31
-3 -54 2 -88 19 -26 13 -51 22 -58 20 -19 -6 -12 -29 14 -46 31 -20 53 -24
135 -25 l66 -1 -13 -117 c-8 -64 -16 -119 -18 -121 -9 -9 -71 23 -98 51 -16
17 -33 27 -42 23 -21 -8 -19 -15 20 -68 29 -39 41 -48 65 -48 18 0 33 -6 36
-15 9 -23 -61 -219 -115 -320 -27 -50 -72 -125 -102 -167 -48 -70 -57 -78 -86
-78 -24 0 -33 5 -33 16 0 12 -5 14 -17 9 -10 -4 -37 -12 -60 -18 -36 -9 -46
-8 -61 6 -27 25 -45 21 -40 -8 5 -22 1 -25 -41 -30 -25 -4 -60 -10 -78 -15
-29 -7 -34 -5 -72 40 -23 27 -41 51 -41 53 0 2 21 0 46 -6 38 -9 51 -8 78 6
29 17 34 17 65 1 41 -20 99 -14 141 16 20 14 37 19 51 15 12 -4 40 -4 64 0 53
7 132 71 122 98 -6 15 -11 14 -53 -8 -56 -30 -137 -34 -165 -9 -23 21 -39 10
-39 -27 l0 -29 -65 0 c-53 0 -66 3 -74 19 -10 18 -12 19 -46 1 -27 -14 -50
-17 -91 -13 -30 2 -61 0 -68 -6 -8 -7 -23 4 -53 41 l-41 51 41 21 c24 12 49
34 57 52 15 28 18 30 36 17 30 -19 84 -19 126 1 34 16 38 16 61 1 17 -11 42
-15 79 -13 50 3 53 5 53 29 l-1 26 31 -18 c41 -26 101 -25 115 1 14 26 3 43
-21 37 -34 -9 -86 12 -116 46 -16 18 -35 31 -41 29 -16 -5 -15 -34 3 -58 24
-32 18 -43 -22 -40 -51 3 -81 23 -104 69 -11 21 -25 37 -32 34 -16 -5 -21 -51
-7 -77 10 -19 8 -20 -48 -20 -50 0 -63 4 -92 30 -44 37 -50 37 -50 -1 0 -18
-9 -47 -21 -65 -17 -29 -26 -34 -57 -34 -36 0 -39 4 -98 98 -56 89 -72 124
-42 94 21 -21 92 -14 131 13 34 22 39 23 64 10 16 -8 46 -15 68 -15 38 0 53 7
119 54 21 15 29 16 41 6 19 -16 106 -15 116 2 5 7 9 21 9 32 0 16 -6 18 -47
13 -46 -5 -50 -3 -84 34 -31 34 -38 37 -49 24 -7 -8 -10 -24 -7 -35 3 -13 -1
-21 -13 -25 -9 -3 -25 -14 -35 -25 -34 -37 -146 -14 -158 32 -8 27 -32 17 -32
-13 0 -34 -41 -56 -108 -60 l-57 -4 -26 60 c-14 33 -32 74 -40 91 l-13 31 48
-5 c50 -4 71 4 140 53 31 23 35 23 62 10 60 -31 170 -11 250 46 27 19 38 52
21 63 -4 2 -34 -13 -66 -35 -49 -33 -66 -39 -110 -39 -28 1 -62 7 -76 15 -41
23 -73 18 -117 -19 -35 -31 -48 -35 -103 -38 l-64 -3 -23 80 c-32 114 -34 110
40 110 73 1 123 24 181 83 35 37 41 39 60 27 11 -7 51 -19 88 -26 59 -11 72
-10 112 5 54 21 96 52 96 72 0 19 -19 18 -75 -7 -40 -18 -62 -21 -123 -17 -54
4 -79 10 -87 22 -7 9 -17 16 -23 16 -6 0 -41 -25 -79 -55 -101 -81 -216 -113
-228 -62 -10 43 -31 237 -27 242 3 2 14 -2 26 -10 30 -22 46 -19 135 25 85 43
99 56 83 72 -7 7 -38 -2 -99 -29 -75 -33 -93 -37 -120 -29 -32 9 -33 10 -29
60 2 28 4 74 5 103 l1 52 31 -11 c39 -13 115 8 178 50 l42 29 46 -24 c26 -13
56 -23 67 -23z m1034 13 c7 -7 23 -13 36 -13 19 0 22 -6 23 -46 1 -31 -2 -44
-10 -40 -7 2 -28 10 -48 17 -31 10 -38 17 -43 48 -9 55 -8 61 12 54 9 -4 23
-13 30 -20z m-3 -122 c3 -5 19 -12 35 -16 l30 -7 -6 -61 c-4 -34 -8 -64 -10
-66 -2 -2 -16 2 -32 8 -31 13 -42 44 -42 119 0 31 12 42 25 23z m55 -252 c0
-27 -3 -49 -7 -49 -19 1 -50 38 -55 65 -9 45 -1 55 33 43 27 -9 29 -14 29 -59z
m-1 -155 c-3 -52 -6 -55 -36 -43 -20 7 -23 15 -23 64 l0 56 30 -16 c28 -15 31
-20 29 -61z m-9 -150 c0 -40 -2 -44 -24 -44 -26 0 -37 17 -31 46 2 11 4 31 4
47 1 27 1 27 26 11 20 -13 25 -24 25 -60z m-10 -140 c0 -57 -4 -62 -32 -40
-12 9 -18 27 -18 53 0 46 4 53 31 46 16 -4 19 -14 19 -59z m-10 -96 c0 -17
-32 -58 -46 -58 -15 0 -18 21 -8 56 4 16 11 20 30 16 13 -2 24 -8 24 -14z
m-511 -637 c12 -7 4 -21 -36 -68 -28 -32 -64 -70 -80 -85 l-28 -26 -80 75
c-68 64 -76 74 -50 67 50 -12 92 -8 122 12 45 31 123 43 152 25z m-119 -336
c28 -30 27 -25 36 -285 3 -113 10 -209 14 -213 4 -5 17 -6 29 -2 18 5 21 15
23 63 5 138 -1 251 -16 307 -8 32 -14 60 -13 62 2 1 25 -16 52 -38 l49 -41 3
-184 4 -184 -89 0 -89 0 -7 118 c-16 296 -19 318 -36 359 -13 30 -15 44 -7 52
16 16 21 14 47 -14z m-85 -67 c13 -56 23 -174 24 -310 l2 -148 -36 0 c-19 0
-35 1 -35 3 0 1 4 18 10 36 5 19 10 96 11 171 1 120 -1 142 -20 185 -20 45
-20 49 -5 67 23 24 42 23 49 -4z m-86 -195 c1 -75 -1 -165 -5 -200 -6 -56 -9
-64 -31 -69 -13 -4 -26 -5 -28 -2 -2 2 2 37 9 78 15 84 11 171 -10 239 -14 46
-14 46 16 74 17 15 35 25 39 23 4 -3 9 -67 10 -143z m471 -114 l0 -129 -30 0
-30 0 0 103 c0 56 -3 126 -7 156 l-6 54 36 -27 37 -28 0 -129z m-581 47 c1
-104 -17 -206 -36 -206 -22 0 -28 4 -26 20 1 8 3 73 3 144 2 119 4 131 23 147
20 16 22 16 29 1 4 -9 7 -57 7 -106z m-108 22 c3 -36 -2 -101 -13 -165 l-12
-73 -33 0 c-18 0 -33 1 -33 3 0 1 4 18 10 37 5 19 10 63 11 99 1 56 5 67 28
87 30 27 41 29 42 12z m769 -14 c9 -9 14 -46 14 -99 1 -73 -1 -85 -16 -85 -14
0 -17 14 -20 100 -2 55 0 100 3 100 4 0 12 -7 19 -16z m-873 -101 c-7 -79 -28
-131 -54 -136 -31 -6 -36 4 -19 44 8 19 17 50 21 69 7 36 31 70 48 70 5 0 7
-21 4 -47z m988 -26 c-1 -38 -11 -57 -31 -57 -11 0 -14 15 -14 67 l0 66 23
-21 c16 -15 23 -33 22 -55z m-1101 -64 c-10 -26 -18 -49 -19 -51 -1 -1 -31 -5
-66 -9 -35 -3 -62 -3 -59 -1 24 24 154 118 157 114 3 -3 -3 -26 -13 -53z
m1171 27 c3 -5 1 -10 -4 -10 -6 0 -11 5 -11 10 0 6 2 10 4 10 3 0 8 -4 11 -10z"/>
<path d="M2232 3905 c-46 -20 -56 -66 -22 -103 28 -30 111 -31 140 -2 23 23
27 82 6 99 -20 17 -89 20 -124 6z"/>
<path d="M2405 3592 c-103 -43 -286 -41 -337 5 -46 41 -54 -48 -9 -91 25 -24
43 -30 113 -39 95 -12 180 2 281 47 46 21 57 30 57 49 0 21 -28 59 -41 56 -2
-1 -31 -13 -64 -27z"/>
<path d="M2751 3376 c-7 -8 -38 -15 -76 -18 -46 -3 -73 -10 -94 -26 -34 -25
-69 -28 -118 -10 -27 10 -40 10 -66 -1 -17 -7 -63 -17 -102 -21 -38 -5 -84
-12 -101 -15 -22 -5 -40 -2 -57 10 -22 14 -32 15 -63 5 -23 -8 -58 -10 -95 -6
-38 5 -72 3 -93 -5 -24 -9 -44 -9 -74 -2 -33 9 -44 8 -53 -4 -10 -11 -7 -20
18 -45 l30 -30 281 -1 c249 -1 283 1 306 17 24 15 36 16 107 6 73 -10 83 -9
112 9 18 10 58 22 90 26 40 5 68 15 88 32 34 29 36 42 9 71 -24 26 -33 27 -49
8z"/>
<path d="M2541 2442 c-33 -61 115 -146 169 -97 11 10 20 27 20 38 0 17 -5 18
-58 12 -48 -5 -61 -3 -80 13 -12 11 -22 27 -22 36 0 21 -17 20 -29 -2z"/>
<path d="M2330 2386 c0 -26 80 -76 122 -76 40 0 78 27 78 55 0 14 -10 15 -60
9 -47 -5 -65 -3 -84 10 -31 20 -56 21 -56 2z"/>
<path d="M2646 2223 c-13 -13 -5 -69 14 -101 23 -38 59 -54 109 -50 31 3 36 7
39 31 3 26 1 27 -40 27 -35 0 -50 6 -71 28 -15 15 -27 35 -27 44 0 19 -14 31
-24 21z"/>
<path d="M2447 2193 c-16 -15 -5 -55 24 -88 35 -39 85 -58 144 -53 35 3 40 6
43 29 3 26 1 26 -67 33 -59 6 -74 11 -91 33 -11 14 -20 32 -20 39 0 14 -22 19
-33 7z"/>
<path d="M2627 1973 c-27 -27 46 -107 108 -119 43 -8 88 19 93 56 3 20 1 22
-25 16 -79 -20 -87 -19 -122 18 -36 37 -43 41 -54 29z"/>
</g>
</svg>
