<?xml version="1.0" standalone="no"?>
<!DOCTYPE svg PUBLIC "-//W3C//DTD SVG 20010904//EN"
 "http://www.w3.org/TR/2001/REC-SVG-20010904/DTD/svg10.dtd">
<svg version="1.0" xmlns="http://www.w3.org/2000/svg"
 width="480.000000pt" height="480.000000pt" viewBox="0 0 480.000000 480.000000"
 preserveAspectRatio="xMidYMid meet">
<metadata>
Created by potrace 1.11, written by Peter Selinger 2001-2013
</metadata>
<g transform="translate(0.000000,480.000000) scale(0.100000,-0.100000)"
fill="#000000" stroke="none">
<path d="M3122 4370 c-12 -12 -22 -29 -22 -39 0 -48 -150 -210 -290 -313 -191
-141 -331 -216 -565 -303 -99 -37 -232 -94 -295 -126 -159 -80 -206 -130 -212
-220 -3 -39 0 -44 19 -47 17 -3 27 6 42 36 32 63 112 127 199 160 42 16 158
60 257 98 305 115 535 247 715 409 61 55 91 75 105 71 11 -2 45 -8 77 -11 31
-4 70 -16 87 -26 35 -21 71 -74 71 -105 0 -33 -211 -256 -320 -338 -52 -39
-141 -117 -197 -173 l-103 -102 -111 -21 c-250 -48 -537 -161 -723 -284 -98
-65 -217 -187 -269 -276 -110 -189 -183 -507 -148 -645 10 -40 9 -51 -4 -71
-33 -51 -11 -120 65 -207 80 -91 232 -172 405 -218 103 -27 290 -34 395 -13
41 7 79 14 83 14 16 0 -66 -139 -127 -216 -36 -45 -167 -172 -300 -293 -304
-275 -355 -315 -512 -403 -76 -43 -122 -65 -338 -159 l-99 -43 74 -23 c71 -22
76 -22 119 -7 62 23 206 96 287 145 99 60 530 398 647 508 l101 93 6 -31 c8
-40 142 -284 184 -336 101 -124 244 -233 445 -338 l105 -55 57 32 56 32 -176
86 c-307 150 -415 257 -554 550 -4 10 -8 28 -8 40 0 13 -11 41 -24 64 l-23 41
66 109 c36 60 74 121 84 134 9 13 17 41 17 61 l0 37 428 171 c239 96 450 186
478 205 194 131 297 433 248 728 -18 114 -51 193 -127 310 -126 195 -320 299
-560 300 l-99 0 73 67 c40 36 107 93 148 125 180 141 331 328 331 411 0 32
-31 93 -62 122 -34 32 -109 62 -161 66 -25 1 -48 5 -51 8 -3 3 17 34 44 70 55
71 63 106 30 139 -25 25 -41 25 -68 0z m28 -1145 c94 -32 127 -58 226 -173 55
-64 66 -86 101 -187 l39 -115 -35 -5 c-60 -10 -73 -13 -151 -36 -64 -20 -98
-23 -230 -23 -135 0 -162 3 -214 22 -129 48 -209 122 -225 208 -6 30 -18 55
-31 66 -21 17 -24 17 -52 0 -17 -9 -45 -34 -62 -56 -104 -129 -287 -262 -444
-323 -55 -22 -81 -26 -147 -24 -76 2 -83 4 -161 52 -87 53 -117 59 -122 21 -2
-15 10 -35 42 -67 59 -58 132 -94 203 -101 155 -15 444 122 614 290 l66 65 58
-65 c107 -121 229 -180 355 -170 36 3 126 8 200 11 178 7 289 15 323 21 26 5
27 4 27 -38 0 -24 -7 -97 -16 -162 l-15 -118 -53 -72 c-60 -79 -93 -112 -149
-145 -32 -20 -40 -21 -54 -9 -12 10 -59 13 -192 13 -167 0 -180 1 -256 28
-100 36 -195 87 -195 106 0 18 -29 51 -45 51 -19 0 -75 -31 -75 -41 0 -28
-186 -160 -295 -209 -92 -41 -215 -76 -318 -91 -66 -9 -98 -9 -158 2 -69 12
-94 13 -144 7 -31 -5 -47 73 -49 237 -1 160 16 238 82 393 107 245 272 387
622 533 238 99 435 138 685 135 148 -2 166 -4 245 -31z m-530 -1105 c110 -75
217 -109 373 -119 l98 -6 -328 -122 -328 -122 -245 -8 c-352 -10 -337 -11
-413 25 -68 32 -157 90 -157 102 0 4 33 8 73 9 39 1 101 4 137 6 36 2 110 7
165 11 105 6 185 31 291 90 63 35 219 141 234 160 19 22 36 17 100 -26z"/>
<path d="M2950 1610 c-61 -61 -98 -195 -81 -294 13 -75 83 -219 149 -306 73
-97 75 -98 122 -65 22 15 40 29 40 31 0 2 -23 32 -51 66 -82 101 -145 211
-159 276 -12 57 -11 63 25 177 29 94 34 120 23 126 -22 14 -47 10 -68 -11z"/>
<path d="M1501 1556 c-8 -9 -10 -35 -5 -78 6 -58 4 -69 -26 -130 -53 -109
-114 -174 -270 -287 -95 -70 -137 -106 -128 -111 7 -4 39 -10 72 -14 l58 -6
120 95 c243 196 333 395 232 515 -29 34 -37 36 -53 16z"/>
</g>
</svg>
