<?xml version="1.0" standalone="no"?>
<!DOCTYPE svg PUBLIC "-//W3C//DTD SVG 20010904//EN"
 "http://www.w3.org/TR/2001/REC-SVG-20010904/DTD/svg10.dtd">
<svg version="1.0" xmlns="http://www.w3.org/2000/svg"
 width="60.000000pt" height="60.000000pt" viewBox="0 0 60.000000 60.000000"
 preserveAspectRatio="xMidYMid meet">
<metadata>
Created by potrace 1.10, written by Peter Selinger 2001-2011
</metadata>
<g transform="translate(0.000000,60.000000) scale(0.100000,-0.100000)"
fill="#000000" stroke="none">
<path d="M250 516 c0 -20 -47 -73 -94 -107 -21 -16 -35 -29 -30 -29 17 0 89
42 115 67 25 23 109 45 109 28 0 -14 -55 -85 -70 -90 -9 -3 -42 -6 -73 -8 -45
-1 -56 -5 -52 -17 2 -8 9 -46 15 -85 6 -38 12 -71 14 -72 2 -2 15 1 29 6 15 6
72 12 127 13 l100 3 9 35 c5 19 11 54 14 77 7 57 -7 67 -83 60 -33 -4 -60 -4
-60 -2 0 3 19 26 42 51 49 54 43 70 -22 55 -39 -9 -46 -7 -58 10 -16 22 -32
25 -32 5z m180 -166 c0 -30 -1 -30 -54 -30 -49 0 -54 2 -58 24 -5 23 -1 25 36
29 23 2 49 4 59 5 13 2 17 -5 17 -28z m-140 -15 c0 -23 -3 -25 -50 -25 -42 0
-50 3 -50 18 0 27 9 32 57 32 39 0 43 -2 43 -25z m132 -60 c-4 -23 -9 -25 -53
-25 -46 0 -49 2 -49 25 0 24 3 25 54 25 51 0 53 -1 48 -25z m-132 -10 c0 -19
-5 -25 -22 -25 -13 0 -33 -3 -45 -6 -20 -6 -23 -3 -23 25 0 30 1 31 45 31 41
0 45 -2 45 -25z"/>
<path d="M340 189 c0 -16 42 -99 50 -99 20 0 9 41 -20 72 -16 18 -30 30 -30
27z"/>
<path d="M472 141 c35 -54 48 -63 48 -31 0 19 -30 53 -63 71 -13 7 -8 -5 15
-40z"/>
<path d="M128 135 c-32 -49 -34 -55 -12 -55 16 0 47 63 42 85 -2 7 -15 -7 -30
-30z"/>
<path d="M249 135 c16 -45 31 -59 31 -30 0 21 -28 75 -39 75 -5 0 -1 -20 8
-45z"/>
</g>
</svg>
