<?xml version="1.0" standalone="no"?>
<!DOCTYPE svg PUBLIC "-//W3C//DTD SVG 20010904//EN"
 "http://www.w3.org/TR/2001/REC-SVG-20010904/DTD/svg10.dtd">
<svg version="1.0" xmlns="http://www.w3.org/2000/svg"
 width="1024.000000pt" height="1024.000000pt" viewBox="0 0 1024.000000 1024.000000"
 preserveAspectRatio="xMidYMid meet">
<metadata>
Created by potrace 1.10, written by Peter Selinger 2001-2011
</metadata>
<g transform="translate(0.000000,1024.000000) scale(0.100000,-0.100000)"
fill="#000000" stroke="none">
<path d="M4120 8745 c-36 -12 -162 -68 -280 -123 -158 -75 -222 -110 -245
-135 -28 -32 -54 -42 -415 -152 -515 -156 -913 -305 -1170 -438 -247 -127
-340 -188 -446 -294 -81 -81 -86 -84 -104 -68 -16 15 -21 15 -54 1 -23 -10
-42 -27 -52 -50 -16 -32 -16 -47 5 -248 17 -168 40 -485 41 -565 0 -7 -9 -13
-20 -13 -38 0 -97 -38 -114 -74 -9 -18 -16 -39 -16 -45 0 -6 -6 -11 -13 -11
-7 0 -26 -14 -43 -31 l-29 -30 43 -81 c23 -45 40 -83 38 -85 -4 -5 -335 110
-368 128 -11 6 -81 56 -155 110 -75 54 -145 99 -157 99 -61 0 -92 -65 -81
-173 14 -146 70 -251 197 -373 68 -65 127 -103 216 -140 32 -13 50 -24 40 -24
-31 0 -166 -100 -235 -174 -37 -40 -85 -102 -106 -138 -23 -39 -65 -89 -109
-128 -71 -64 -128 -156 -128 -207 0 -65 37 -93 99 -75 20 6 101 27 181 45 90
22 178 50 233 75 l88 41 -7 -102 c-7 -121 10 -240 55 -368 28 -81 29 -93 36
-327 7 -237 8 -244 31 -272 13 -15 24 -38 24 -51 0 -25 11 -62 46 -159 13 -36
24 -84 24 -106 0 -47 32 -102 70 -121 14 -7 43 -13 64 -13 27 0 47 -7 63 -22
20 -19 38 -23 101 -26 104 -4 107 -6 83 -39 -93 -128 8 -370 172 -414 23 -6
80 -9 127 -7 80 4 89 6 145 45 84 57 206 188 238 255 14 30 34 82 43 115 l17
61 45 7 c59 9 143 40 175 65 l25 20 72 -255 72 -255 5 -253 c9 -435 -18 -682
-107 -966 -36 -113 -60 -209 -60 -235 0 -38 -3 -45 -22 -48 -25 -3 -385 -418
-419 -481 -30 -57 -22 -97 24 -126 20 -14 37 -32 37 -43 0 -10 8 -26 18 -36
18 -18 27 -18 293 15 l274 34 59 61 c32 34 84 100 115 148 67 101 145 272 137
298 -5 16 -2 18 22 14 36 -5 50 24 62 129 5 43 16 92 25 109 9 18 38 159 65
315 27 156 54 294 60 305 6 12 21 78 34 148 12 70 29 138 36 152 8 14 22 70
32 125 32 176 41 206 138 463 84 221 98 252 117 252 31 0 515 -69 521 -74 2
-3 -16 -49 -41 -103 -25 -54 -73 -184 -106 -288 -33 -106 -71 -205 -85 -223
-20 -28 -25 -49 -31 -139 -7 -100 -10 -109 -51 -183 -64 -114 -72 -159 -48
-273 18 -87 21 -163 16 -357 -2 -41 5 -115 14 -165 29 -167 34 -210 34 -343 0
-82 -4 -142 -12 -155 -6 -12 -60 -90 -120 -174 l-109 -153 8 -47 c7 -38 15
-52 42 -70 18 -12 48 -25 66 -29 18 -3 216 12 440 34 l407 39 29 29 c16 16 30
40 31 54 0 14 -41 111 -96 222 l-97 198 46 152 c26 84 55 164 65 178 9 14 23
43 30 65 7 22 23 60 35 85 34 67 63 169 75 263 10 74 8 109 -20 337 -38 300
-39 286 55 483 35 73 89 195 120 272 31 77 60 144 65 148 4 5 27 -5 51 -22
l44 -31 515 45 c283 24 538 47 565 50 l50 6 0 -69 c0 -61 3 -73 30 -106 17
-21 33 -43 37 -50 149 -255 258 -475 258 -522 0 -16 -11 -76 -25 -132 -39
-160 -48 -274 -35 -407 l12 -114 -32 -98 c-31 -95 -97 -223 -286 -555 -60
-105 -84 -156 -84 -181 0 -63 6 -65 297 -73 l262 -7 36 24 c29 20 42 42 76
129 55 141 122 377 154 541 14 73 32 152 40 174 8 22 22 81 31 130 9 50 23
103 31 120 21 39 43 328 47 610 2 129 8 242 15 273 12 49 14 52 30 38 28 -26
100 -46 161 -46 53 0 61 3 84 31 28 33 35 53 45 131 l6 53 100 11 c98 11 100
12 132 50 26 31 33 48 33 83 0 59 -34 126 -80 160 l-38 27 96 128 96 128 45
-88 c32 -64 47 -106 52 -152 7 -68 26 -98 69 -110 l27 -7 -29 -110 c-56 -216
-68 -288 -73 -430 -3 -77 -9 -190 -13 -252 -13 -177 0 -322 49 -528 26 -115
45 -220 50 -290 4 -60 14 -129 23 -153 l16 -44 -55 -91 c-37 -63 -91 -131
-172 -217 -65 -69 -127 -143 -138 -165 -10 -22 -21 -68 -23 -101 -4 -59 -2
-64 34 -113 28 -37 45 -51 64 -51 14 -1 171 -14 350 -29 279 -25 328 -27 347
-15 12 8 34 11 50 8 22 -4 31 0 42 17 7 12 31 137 52 278 41 272 41 273 100
396 62 131 83 228 82 380 -1 158 -20 276 -75 454 l-41 133 18 94 c17 93 17 94
-5 162 -21 67 -21 76 -11 233 6 90 11 225 11 299 0 162 21 276 74 403 20 49
124 327 231 618 107 291 211 564 231 607 20 42 51 131 69 197 18 66 44 145 58
175 66 148 134 417 156 622 48 438 -78 1208 -255 1554 -24 47 -44 88 -44 89 0
2 9 1 20 -2 34 -9 159 -141 216 -228 104 -160 132 -255 179 -627 l37 -283 -7
-305 c-3 -168 -7 -395 -7 -505 -1 -191 -4 -218 -63 -610 l-61 -410 -40 -1
c-62 -2 -122 -43 -171 -116 -87 -129 -123 -242 -123 -384 0 -148 -4 -140 144
-265 105 -87 137 -121 160 -165 16 -30 43 -66 60 -81 21 -17 35 -42 44 -77 17
-69 56 -115 126 -150 57 -29 58 -29 77 -10 28 29 38 74 25 114 -9 29 -9 43 5
80 9 25 48 155 85 290 66 235 69 250 69 355 0 100 -3 116 -29 172 -35 76 -113
154 -191 189 -41 19 -55 30 -51 42 3 10 30 148 61 308 31 160 60 307 65 325
16 55 12 141 -8 181 -18 34 -18 44 3 332 20 291 20 302 3 509 -10 117 -19 302
-21 412 -6 272 -37 422 -133 638 -114 256 -281 423 -514 511 -57 21 -69 22
-90 11 -24 -13 -28 -9 -156 146 -73 88 -154 177 -180 200 -104 86 -264 140
-316 107 -20 -12 -40 -13 -148 -2 -332 33 -683 27 -1045 -17 -313 -38 -711
-36 -1000 6 -82 13 -114 23 -189 61 -79 41 -104 49 -215 65 -118 18 -1269 90
-1406 88 -36 0 -86 -10 -125 -24z m1210 -194 c160 -16 190 -22 350 -74 421
-135 514 -154 830 -164 167 -6 413 7 521 27 25 5 255 25 510 46 424 33 473 35
566 24 56 -6 107 -9 112 -6 6 4 34 0 64 -9 42 -12 74 -34 150 -101 193 -170
380 -418 506 -671 52 -102 65 -139 81 -230 11 -59 32 -144 46 -188 18 -57 28
-114 33 -200 5 -84 12 -130 25 -154 16 -30 17 -59 13 -310 -3 -224 -8 -300
-26 -401 -54 -314 -140 -632 -213 -795 -22 -49 -59 -144 -83 -210 -24 -66 -63
-165 -88 -220 -24 -55 -79 -204 -121 -331 -64 -194 -84 -241 -121 -292 -48
-66 -69 -113 -80 -177 -4 -21 -15 -56 -26 -77 -10 -20 -19 -52 -19 -70 -1 -18
-8 -62 -16 -98 -15 -61 -31 -498 -26 -690 1 -36 2 -126 1 -200 0 -167 11 -251
56 -405 63 -218 65 -376 7 -565 -23 -73 -109 -452 -158 -688 -3 -15 -12 -22
-29 -22 -61 0 -490 51 -498 59 -14 14 24 70 81 122 115 107 189 188 214 235
44 81 61 166 54 259 -5 69 -3 85 16 124 l22 45 -42 80 c-23 45 -44 90 -47 101
-3 11 -23 157 -45 324 l-39 303 21 201 c20 191 23 206 56 272 50 99 55 183 17
260 -15 31 -38 63 -51 71 -20 13 -22 19 -13 36 24 44 -19 231 -78 346 -16 29
-87 124 -159 210 -108 130 -133 165 -139 200 -4 27 -16 49 -31 61 -25 19 -31
45 -15 56 5 3 15 30 21 60 6 29 19 64 29 77 10 13 33 70 51 128 24 79 69 175
180 385 121 228 181 328 325 540 l177 259 -34 28 c-58 50 -61 50 -114 17 -68
-43 -169 -144 -209 -209 -18 -30 -45 -91 -61 -135 -15 -44 -40 -96 -54 -115
-61 -80 -207 -323 -257 -430 -30 -63 -65 -129 -78 -145 -12 -17 -26 -51 -30
-75 -4 -25 -53 -160 -110 -302 l-102 -256 -121 -142 c-116 -137 -125 -145
-280 -250 -134 -90 -182 -116 -291 -159 -360 -140 -683 -201 -1069 -201 -125
0 -226 -5 -288 -15 -53 -9 -100 -15 -104 -13 -4 2 96 118 222 258 126 140 241
275 256 299 35 61 36 129 2 166 -28 30 -71 55 -95 55 -34 0 -72 -53 -80 -111
l-7 -54 -231 -235 c-127 -129 -256 -251 -287 -271 -92 -60 -210 -203 -210
-255 0 -67 -54 -228 -122 -363 -89 -176 -89 -176 -55 -541 19 -205 22 -260 12
-280 -7 -14 -20 -59 -30 -100 -10 -44 -27 -85 -40 -100 -16 -17 -40 -84 -75
-210 -28 -102 -63 -218 -76 -257 -27 -80 -25 -113 10 -151 18 -20 21 -36 22
-110 0 -72 5 -97 27 -146 15 -32 27 -60 27 -62 0 -2 -101 -4 -225 -4 l-224 0
49 102 c43 88 52 117 62 201 12 103 5 203 -26 342 -25 119 -36 262 -36 480 0
140 5 232 14 275 19 90 124 427 147 473 11 20 32 93 48 161 22 98 34 131 59
162 83 105 149 256 172 394 17 104 71 260 129 371 27 52 61 124 75 161 32 86
47 109 123 190 72 75 79 104 36 137 -14 12 -38 24 -52 28 -35 9 -120 -38 -175
-97 -50 -53 -135 -215 -197 -374 -40 -103 -109 -325 -109 -353 0 -12 -7 -14
-28 -10 -15 3 -111 17 -212 32 -372 52 -499 84 -698 180 -122 59 -143 60 -176
13 -20 -28 -20 -49 0 -90 13 -28 36 -42 141 -93 69 -32 132 -64 140 -70 12 -9
7 -27 -35 -125 -104 -240 -216 -676 -288 -1120 -14 -85 -52 -261 -85 -390 -49
-190 -60 -246 -57 -295 2 -33 8 -69 13 -79 7 -15 5 -18 -7 -14 -29 12 -68 -39
-163 -213 l-95 -176 -91 -7 c-49 -4 -143 -17 -207 -31 -64 -13 -118 -23 -119
-22 0 1 81 101 182 222 100 121 181 223 178 228 -2 4 5 7 16 7 22 0 61 44 61
69 1 9 8 34 16 56 9 22 26 83 39 135 13 52 33 129 44 170 47 177 77 511 68
760 -12 326 -57 609 -129 805 -6 17 -17 57 -26 89 -11 42 -27 70 -54 100 l-39
41 21 86 c11 48 23 109 27 138 5 47 8 51 32 51 14 0 51 16 80 36 102 69 221
113 351 129 30 4 57 11 60 15 3 3 34 21 70 39 122 61 220 153 271 253 l20 39
-35 35 c-18 18 -42 34 -51 34 -10 0 -69 -31 -131 -70 -100 -61 -523 -264 -533
-255 -2 2 17 53 42 112 89 210 140 450 118 550 -7 29 -21 63 -31 75 -18 22
-17 23 20 66 55 62 68 122 45 214 -9 39 -36 116 -60 171 l-43 100 21 46 c11
25 51 80 89 121 78 84 154 225 184 340 25 95 24 215 -3 265 l-21 40 23 33 c12
18 28 59 35 91 11 51 10 63 -5 95 -42 87 -129 86 -380 -3 -60 -22 -110 -39
-110 -38 -26 81 -55 180 -60 205 -14 67 -99 122 -187 122 -70 0 -127 -65 -112
-127 7 -26 58 -73 80 -73 22 0 18 -82 -4 -111 -11 -13 -22 -37 -26 -54 -10
-39 -48 -104 -78 -133 -13 -12 -85 -58 -159 -102 -132 -79 -134 -79 -137 -54
-2 15 11 53 32 94 20 37 36 70 36 73 0 3 -20 22 -45 42 l-44 37 -47 -26 c-26
-15 -54 -24 -63 -21 -9 3 -31 1 -49 -4 -17 -5 -32 -8 -32 -6 0 2 43 83 95 180
52 97 95 182 95 188 0 7 -21 27 -45 45 -41 32 -47 33 -79 22 -39 -13 -76 -52
-76 -82 0 -10 -25 -69 -56 -130 -56 -112 -56 -113 -45 -162 6 -27 10 -50 9
-51 -2 -1 -20 -12 -40 -24 -43 -26 -71 -68 -88 -131 -10 -38 -13 -42 -22 -25
-6 10 -12 34 -13 54 -1 20 -5 56 -9 81 -15 104 -23 326 -17 476 l6 161 41 44
c23 24 58 63 80 86 28 30 126 92 344 217 l305 174 466 165 c350 125 489 170
560 181 52 9 134 29 183 46 50 16 97 30 107 30 9 0 67 39 128 86 105 81 120
88 244 131 l132 44 455 13 c250 7 478 14 505 14 28 1 129 -7 225 -17z m-2367
-1813 c-16 -29 -85 -105 -261 -289 l-54 -57 14 -43 c18 -55 47 -67 85 -36 16
13 86 67 157 121 l128 99 -7 -44 c-11 -68 -60 -187 -106 -256 -45 -70 -143
-172 -201 -210 -32 -22 -38 -31 -38 -62 0 -20 9 -47 20 -61 11 -14 20 -41 20
-60 0 -57 17 -103 61 -166 39 -56 41 -61 36 -116 -3 -37 -13 -67 -26 -84 -25
-32 -28 -94 -5 -129 14 -22 13 -35 -11 -172 -50 -282 -67 -333 -157 -466 -79
-117 -118 -232 -119 -357 0 -61 -7 -93 -37 -174 l-37 -100 -85 -52 c-93 -58
-98 -59 -134 -43 l-24 11 29 62 c53 113 35 187 -56 221 -53 21 -101 14 -160
-20 -81 -47 -127 -127 -128 -225 l0 -58 -40 -16 -40 -16 -31 35 c-30 33 -38
35 -172 60 -172 30 -172 30 -201 3 -13 -12 -25 -20 -27 -17 -6 6 -138 691
-134 695 2 2 22 -1 44 -7 49 -14 178 -6 225 14 45 18 89 100 89 161 0 55 -25
167 -45 207 -67 129 -266 225 -363 175 -36 -19 -36 -19 -22 54 12 65 0 117
-38 163 -15 17 -36 44 -45 59 -31 49 -97 54 -175 14 -18 -9 -32 -14 -32 -12 0
3 49 60 109 127 101 111 154 190 154 229 0 8 11 28 23 43 47 56 29 80 -91 126
-44 17 -105 47 -135 67 -65 44 -142 111 -115 100 194 -77 359 -110 552 -110
133 -1 143 0 165 22 14 12 33 22 44 22 27 0 62 39 70 77 5 28 2 33 -34 53
l-40 23 24 51 c13 28 24 60 24 71 1 19 2 19 17 -2 13 -19 25 -23 71 -23 40 0
61 -5 76 -19 12 -10 37 -23 56 -30 30 -10 37 -9 53 8 19 18 22 18 64 3 l45
-17 24 28 c13 15 24 35 24 43 0 9 13 1 35 -21 31 -30 42 -35 84 -35 58 0 103
14 156 50 60 41 143 118 188 175 30 38 39 44 34 25 -4 -14 -10 -49 -13 -78 -6
-46 -4 -56 16 -77 45 -48 110 -37 124 22 4 15 19 65 32 111 l25 82 44 0 c30 0
68 12 126 40 46 22 85 40 87 40 2 0 -5 -15 -15 -32z m-1733 -1748 c21 -11 47
-32 58 -47 l20 -28 -54 3 c-58 4 -54 0 -69 75 -4 21 -3 21 45 -3z m8054 -382
c-8 -88 10 -142 52 -158 57 -22 144 71 163 174 5 26 11 49 13 51 2 3 20 -6 40
-20 47 -32 63 -89 62 -220 0 -91 -5 -113 -48 -245 -26 -79 -49 -146 -51 -148
-2 -3 -48 42 -102 99 -54 57 -126 134 -160 170 l-63 65 9 65 c11 73 29 147 42
169 26 43 44 70 46 70 2 0 0 -33 -3 -72z m-1799 -286 l57 -82 -35 -43 c-19
-23 -85 -100 -146 -172 -88 -104 -115 -143 -133 -192 -12 -35 -24 -63 -27 -63
-3 0 -24 7 -46 15 -63 22 -98 19 -127 -12 -46 -49 -46 -75 3 -128 47 -51 40
-51 -60 0 -49 24 -56 25 -253 25 l-203 0 78 40 c43 22 110 62 150 89 40 28 91
57 113 65 54 19 154 92 209 154 24 27 83 82 130 123 47 40 96 89 108 109 11
19 38 56 58 83 21 26 41 57 44 68 8 25 7 26 80 -79z m-5375 -516 c0 -26 -72
-133 -121 -179 -28 -26 -74 -59 -102 -74 -48 -24 -54 -25 -104 -14 -107 25
-118 64 -38 144 25 25 45 55 45 66 0 17 5 20 28 15 51 -10 111 14 161 65 l46
47 43 -28 c23 -16 42 -35 42 -42z m4518 -333 l222 -5 -5 -61 c-2 -34 -7 -129
-10 -212 -7 -183 -27 -394 -60 -622 -32 -223 -50 -304 -77 -356 -12 -23 -58
-195 -103 -382 l-82 -340 -127 -3 -126 -3 116 166 c127 183 163 251 195 370
19 72 20 97 14 255 -6 164 -5 178 15 222 11 26 28 96 37 155 17 118 10 235
-22 358 -24 91 -95 231 -162 320 -56 74 -93 134 -93 151 0 3 10 3 23 -1 12 -4
122 -10 245 -12z"/>
<path d="M4500 8453 c-247 -26 -590 -177 -590 -258 0 -56 46 -125 84 -125 11
0 73 26 136 59 63 32 150 71 193 85 84 29 245 66 289 66 40 0 57 10 73 41 23
43 18 68 -19 105 -36 36 -56 39 -166 27z"/>
<path d="M2490 7739 c-25 -16 -68 -40 -97 -53 -89 -42 -189 -112 -274 -193
-80 -77 -81 -78 -76 -120 9 -78 40 -90 137 -50 69 29 139 76 204 140 44 41 68
55 169 92 65 23 119 44 121 46 1 2 12 17 24 33 30 40 28 62 -12 102 -31 31
-39 34 -92 33 -48 0 -68 -6 -104 -30z"/>
<path d="M2228 6959 c-36 -20 -75 -93 -86 -159 -9 -57 -8 -68 7 -90 22 -30 71
-38 94 -15 15 14 77 196 77 223 0 11 -52 52 -67 52 -4 0 -16 -5 -25 -11z"/>
<path d="M6918 6883 c-15 -17 -38 -82 -53 -148 -4 -16 -13 -131 -19 -255 -12
-220 -12 -226 8 -247 25 -29 64 -29 107 0 53 35 68 78 90 259 29 233 20 297
-54 376 -35 36 -57 40 -79 15z"/>
<path d="M7155 6312 c-31 -6 -53 -31 -60 -66 -5 -21 -36 -60 -97 -122 -88 -89
-90 -93 -84 -128 10 -54 31 -69 87 -63 69 8 139 48 197 111 75 83 89 146 46
211 -23 35 -65 62 -89 57z"/>
<path d="M5673 6179 c-18 -5 -37 -19 -43 -30 -8 -14 -9 -90 -4 -247 7 -242 -1
-315 -45 -387 -10 -16 -35 -57 -55 -89 -47 -78 -49 -124 -5 -160 33 -28 71
-41 92 -33 27 10 110 160 142 255 29 84 35 124 51 304 17 195 17 210 1 261
-15 48 -78 138 -95 136 -4 0 -22 -5 -39 -10z"/>
<path d="M6970 5863 c-21 -9 -47 -43 -60 -83 -9 -26 -52 -69 -161 -165 -159
-139 -169 -155 -130 -202 30 -36 120 -32 197 7 85 43 111 71 211 227 97 151
100 161 47 202 -26 20 -72 26 -104 14z"/>
<path d="M6264 5063 c2 -10 10 -37 17 -60 7 -24 16 -43 20 -43 4 0 -1 27 -13
60 -11 33 -22 60 -25 60 -2 0 -2 -8 1 -17z"/>
<path d="M8408 5030 c-22 -16 -25 -28 -26 -79 0 -35 -7 -70 -16 -83 -9 -14
-17 -63 -22 -126 -6 -91 -5 -105 11 -122 20 -23 63 -26 87 -7 24 18 68 208 70
305 2 81 2 83 -27 107 -37 30 -46 30 -77 5z"/>
<path d="M6009 4933 c-9 -2 -24 -21 -33 -41 -17 -38 -37 -148 -30 -167 3 -6
-27 -104 -66 -219 -38 -114 -70 -219 -70 -233 0 -60 50 -103 119 -103 45 1 84
85 152 324 32 116 59 228 59 249 0 62 -21 117 -61 159 -36 38 -40 40 -70 31z"/>
<path d="M5049 4697 c-23 -16 -60 -69 -124 -178 -49 -86 -116 -186 -148 -223
-56 -62 -58 -68 -52 -105 6 -35 10 -39 43 -45 85 -14 80 -17 226 154 75 87
148 178 161 202 41 72 29 150 -31 197 -33 26 -34 26 -75 -2z"/>
<path d="M3040 3635 c-7 -8 -19 -102 -30 -227 l-19 -213 21 -22 c22 -23 62
-30 87 -14 27 17 43 113 48 281 l5 165 -34 23 c-40 26 -61 28 -78 7z"/>
<path d="M4242 2724 c-21 -15 -22 -20 -22 -214 l0 -198 36 -23 36 -22 26 20
27 20 3 197 c2 195 2 198 -20 216 -28 24 -56 25 -86 4z"/>
<path d="M8195 2613 c-52 -13 -69 -61 -41 -119 8 -16 17 -78 21 -139 8 -121
24 -155 74 -155 62 1 68 26 58 221 -8 147 -9 152 -35 175 -27 23 -39 26 -77
17z"/>
<path d="M1205 5626 c-21 -21 -22 -28 -14 -66 24 -108 111 -200 187 -200 37 0
47 29 32 97 -15 67 -52 126 -102 162 -50 37 -71 39 -103 7z"/>
<path d="M2105 5583 c-92 -46 -158 -125 -183 -215 -12 -45 -5 -53 60 -61 47
-6 48 -6 77 37 39 56 94 104 147 127 72 32 80 99 17 128 -36 16 -63 13 -118
-16z"/>
<path d="M2343 5479 c-38 -22 -71 -57 -128 -132 l-77 -102 7 -110 c3 -60 6
-129 6 -151 0 -41 0 -41 44 -48 25 -3 87 -9 139 -12 86 -6 98 -5 142 17 71 34
137 104 163 172 24 65 29 190 10 248 -29 85 -96 134 -200 144 -48 4 -60 1
-106 -26z m184 -286 c-10 -29 -27 -44 -95 -84 -46 -27 -77 -40 -70 -30 7 9 47
59 88 110 72 88 75 91 82 65 4 -14 1 -42 -5 -61z"/>
<path d="M1672 5343 c-25 -10 -62 -100 -62 -152 0 -82 27 -120 96 -135 43 -10
55 9 54 85 -1 35 2 85 5 110 6 43 5 47 -28 72 -36 27 -42 29 -65 20z"/>
<path d="M1885 5167 c-14 -11 -20 -36 -28 -120 -9 -98 -9 -109 8 -127 22 -24
77 -27 96 -4 9 11 15 53 17 119 l4 102 -35 22 c-41 25 -38 25 -62 8z"/>
<path d="M1715 4952 c-24 -5 -55 -31 -55 -46 0 -6 13 -36 29 -66 37 -70 58
-145 66 -238 7 -69 9 -75 39 -93 41 -25 58 -24 84 4 40 42 26 187 -28 302 -34
71 -105 144 -135 137z"/>
<path d="M6644 3303 c-12 -2 -30 -13 -39 -23 -16 -18 -17 -29 -6 -121 6 -55
16 -109 21 -120 17 -31 48 -42 80 -29 40 17 51 49 39 115 -7 38 -7 67 0 92 14
50 14 50 -9 73 -19 19 -40 22 -86 13z"/>
</g>
</svg>
