<?xml version="1.0" standalone="no"?>
<!DOCTYPE svg PUBLIC "-//W3C//DTD SVG 20010904//EN"
 "http://www.w3.org/TR/2001/REC-SVG-20010904/DTD/svg10.dtd">
<svg version="1.0" xmlns="http://www.w3.org/2000/svg"
 width="1024.000000pt" height="1024.000000pt" viewBox="0 0 1024.000000 1024.000000"
 preserveAspectRatio="xMidYMid meet">
<metadata>
Created by potrace 1.10, written by Peter Selinger 2001-2011
</metadata>
<g transform="translate(0.000000,1024.000000) scale(0.100000,-0.100000)"
fill="#000000" stroke="none">
<path d="M4920 8773 c-58 -31 -107 -57 -109 -59 -7 -6 47 -72 135 -166 108
-114 171 -226 212 -376 l26 -97 4 -847 c2 -467 0 -848 -4 -848 -3 0 -79 -12
-168 -26 -664 -106 -901 -143 -903 -141 -4 4 256 486 336 622 125 212 133 269
54 377 -68 94 -305 288 -421 345 -65 32 -142 38 -166 13 -13 -13 -11 -24 18
-90 18 -41 45 -123 59 -182 26 -104 26 -109 12 -190 -19 -109 -62 -234 -173
-503 -229 -557 -353 -823 -537 -1150 -133 -237 -212 -361 -314 -487 -76 -95
-121 -158 -121 -170 0 -23 53 1 177 78 260 162 484 417 823 937 142 217 157
237 180 233 14 -2 108 -22 209 -45 l184 -41 351 60 c193 33 363 63 379 66 l27
6 0 -884 0 -884 -177 -96 c-210 -114 -497 -257 -713 -356 -141 -65 -684 -272
-720 -274 -22 -2 -161 85 -218 137 l-49 44 -46 -47 -46 -47 10 -69 c5 -38 20
-94 32 -126 22 -54 295 -462 326 -488 32 -25 90 -52 130 -58 40 -6 41 -6 143
93 129 125 220 193 467 353 108 69 234 151 281 182 47 30 196 127 331 215
l247 160 -4 -81 c-3 -44 -11 -301 -19 -571 -8 -269 -22 -706 -31 -970 -22
-632 -23 -979 -5 -1070 19 -98 96 -305 132 -353 37 -50 89 -76 140 -69 114 15
178 157 199 440 6 86 10 696 10 1553 l0 1411 493 373 492 373 85 110 c47 60
87 113 88 118 8 20 -43 7 -118 -31 -43 -22 -293 -172 -554 -335 -262 -162
-478 -295 -481 -295 -8 0 -6 1620 3 1620 4 0 151 18 327 40 297 36 330 42 462
85 121 39 145 50 172 80 26 29 51 100 40 109 -158 123 -172 131 -300 165
l-124 32 -270 -94 c-148 -52 -281 -98 -294 -102 l-23 -7 5 903 c3 660 8 931
17 1005 l13 101 -26 46 c-30 51 -116 114 -200 146 -28 10 -124 49 -212 85 -88
36 -164 66 -170 66 -5 0 -57 -26 -115 -57z"/>
</g>
</svg>
