<?xml version="1.0" standalone="no"?>
<!DOCTYPE svg PUBLIC "-//W3C//DTD SVG 20010904//EN"
 "http://www.w3.org/TR/2001/REC-SVG-20010904/DTD/svg10.dtd">
<svg version="1.0" xmlns="http://www.w3.org/2000/svg"
 width="1024.000000pt" height="1024.000000pt" viewBox="0 0 1024.000000 1024.000000"
 preserveAspectRatio="xMidYMid meet">
<metadata>
Created by potrace 1.10, written by Peter Selinger 2001-2011
</metadata>
<g transform="translate(0.000000,1024.000000) scale(0.100000,-0.100000)"
fill="#000000" stroke="none">
<path d="M4720 9607 c-69 -25 -123 -56 -180 -105 l-35 -29 48 -56 c25 -30 78
-85 116 -122 162 -156 260 -357 291 -595 5 -43 10 -405 10 -836 l0 -761 -57
-6 c-132 -14 -1934 -208 -2003 -216 -41 -4 -76 -7 -78 -6 -2 2 46 81 106 177
60 95 192 304 292 463 100 160 215 340 255 400 92 140 94 144 106 210 9 51 8
61 -16 113 -73 158 -523 494 -683 510 -55 5 -92 -10 -92 -37 0 -10 13 -49 28
-87 16 -38 43 -129 62 -202 39 -159 38 -197 -14 -353 -51 -158 -102 -271 -293
-654 -289 -576 -412 -795 -657 -1160 -201 -301 -374 -524 -496 -640 -43 -41
-130 -153 -130 -167 0 -4 15 -8 34 -8 70 0 309 143 500 299 221 179 507 489
749 809 43 56 82 102 88 102 5 0 52 -18 103 -39 108 -47 215 -78 294 -86 41
-5 200 12 574 59 497 63 1228 160 1296 172 l32 6 -2 -983 -3 -983 -1325 -168
c-813 -102 -1459 -179 -1673 -198 l-348 -31 -365 62 c-201 34 -368 59 -371 56
-3 -4 2 -50 12 -104 14 -77 23 -104 44 -127 37 -40 140 -121 251 -197 52 -36
131 -91 175 -123 106 -77 204 -126 252 -126 92 0 396 60 1029 200 l679 151
812 115 c447 63 817 114 823 114 17 0 12 -583 -15 -1485 -14 -467 -32 -983
-40 -1146 -29 -569 -19 -689 82 -949 54 -141 80 -186 132 -233 37 -33 47 -37
95 -37 143 0 225 158 256 495 6 69 10 728 10 1765 l0 1656 408 27 c224 16 834
57 1355 92 1092 75 1326 81 1662 45 103 -11 204 -17 226 -14 75 12 137 71 145
140 5 39 4 40 -138 186 l-143 147 -171 64 -171 64 -99 -12 c-55 -7 -243 -38
-419 -68 -205 -36 -426 -67 -615 -87 -162 -16 -623 -64 -1025 -105 -401 -42
-793 -82 -870 -90 -77 -8 -141 -15 -142 -15 -2 0 -3 443 -3 984 l0 983 73 7
c39 4 151 16 247 26 96 11 432 47 745 80 526 56 593 65 875 121 314 63 363 78
442 141 44 35 78 101 78 153 0 83 -136 165 -383 229 l-162 42 -246 -56 c-136
-32 -308 -76 -382 -99 -316 -98 -818 -209 -1246 -276 l-43 -7 5 893 c4 803 6
905 23 1001 23 139 15 171 -65 248 -60 58 -75 67 -326 184 -167 78 -269 116
-307 116 -13 0 -52 -11 -88 -23z"/>
</g>
</svg>
