<?xml version="1.0" standalone="no"?>
<!DOCTYPE svg PUBLIC "-//W3C//DTD SVG 20010904//EN"
 "http://www.w3.org/TR/2001/REC-SVG-20010904/DTD/svg10.dtd">
<svg version="1.0" xmlns="http://www.w3.org/2000/svg"
 width="1024.000000pt" height="1024.000000pt" viewBox="0 0 1024.000000 1024.000000"
 preserveAspectRatio="xMidYMid meet">
<metadata>
Created by potrace 1.10, written by Peter Selinger 2001-2011
</metadata>
<g transform="translate(0.000000,1024.000000) scale(0.100000,-0.100000)"
fill="#000000" stroke="none">
<path d="M5180 8613 l-39 -38 -7 -108 c-5 -76 -3 -125 6 -162 12 -49 8 -113
-34 -602 l-47 -548 1 -1112 c0 -612 -2 -1113 -5 -1113 -8 0 -769 706 -835 775
-179 185 -558 476 -762 584 l-45 25 -8 610 c-17 1447 -19 1520 -41 1554 -26
41 -81 82 -111 82 -27 0 -89 -52 -99 -83 -4 -12 -12 -26 -19 -32 -9 -8 -9 -36
2 -130 8 -72 24 -487 38 -1030 l25 -910 32 -99 c24 -72 43 -110 72 -143 37
-43 119 -93 151 -93 18 0 608 -522 800 -709 214 -207 458 -416 708 -605 l117
-89 0 -51 c0 -28 14 -319 29 -646 16 -327 28 -597 26 -599 -8 -7 -313 173
-485 286 -182 120 -342 237 -520 382 -127 102 -320 231 -450 299 -81 42 -99
48 -125 41 -37 -10 -85 -82 -85 -127 0 -38 8 -45 245 -187 125 -76 211 -136
282 -198 183 -161 393 -313 593 -429 123 -72 267 -150 304 -166 16 -7 79 -52
139 -100 l109 -87 -6 -445 c-3 -245 -7 -710 -8 -1033 l-3 -588 37 -35 c50 -45
78 -44 130 5 l42 39 14 1048 c7 577 14 1049 15 1050 1 0 244 220 539 487 296
268 638 570 761 671 266 220 287 241 287 298 0 35 -6 47 -45 85 -41 42 -47 45
-81 38 -37 -7 -59 -25 -1243 -1081 -124 -111 -227 -201 -228 -200 -1 1 -11
291 -23 645 -18 537 -20 646 -8 656 7 6 356 290 775 629 419 339 779 637 799
661 31 39 42 45 73 45 75 0 90 44 111 330 16 220 13 341 -31 1074 l-42 699 17
131 c10 72 20 141 23 154 4 18 1 22 -20 22 -18 0 -27 7 -31 24 -9 37 -83 98
-109 91 -50 -14 -70 -32 -98 -87 -33 -65 -38 -126 -14 -172 12 -23 15 -66 14
-210 -1 -122 10 -324 32 -621 29 -390 33 -485 34 -835 0 -400 -5 -476 -30
-467 -7 3 -336 -251 -772 -599 l-758 -604 -6 177 c-4 98 -12 475 -19 838 l-13
660 37 595 c20 327 50 737 66 911 17 174 30 334 30 355 0 36 -6 43 -72 97 -39
31 -77 57 -85 57 -8 0 -31 -17 -53 -37z"/>
<path d="M6477 3985 c3 -16 9 -37 14 -45 15 -27 10 11 -6 45 l-14 30 6 -30z"/>
</g>
</svg>
