<?xml version="1.0" standalone="no"?>
<!DOCTYPE svg PUBLIC "-//W3C//DTD SVG 20010904//EN"
 "http://www.w3.org/TR/2001/REC-SVG-20010904/DTD/svg10.dtd">
<svg version="1.0" xmlns="http://www.w3.org/2000/svg"
 width="1024.000000pt" height="1024.000000pt" viewBox="0 0 1024.000000 1024.000000"
 preserveAspectRatio="xMidYMid meet">
<metadata>
Created by potrace 1.10, written by Peter Selinger 2001-2011
</metadata>
<g transform="translate(0.000000,1024.000000) scale(0.100000,-0.100000)"
fill="#000000" stroke="none">
<path d="M7353 9485 c-61 -26 -65 -58 -27 -250 50 -258 41 -746 -16 -885 -11
-25 -38 -110 -60 -190 -38 -132 -48 -156 -116 -262 -77 -122 -87 -157 -57
-190 9 -10 14 -20 12 -22 -3 -3 -70 17 -149 44 -352 118 -859 216 -1175 227
-88 3 -424 -2 -747 -11 l-587 -17 -268 -49 c-148 -27 -302 -61 -343 -75 -98
-36 -244 -104 -323 -151 -73 -45 -236 -163 -256 -187 -7 -9 -19 -17 -26 -17
-27 0 -206 304 -291 493 -43 95 -49 119 -106 441 l-60 341 12 105 c6 58 17
137 25 177 20 96 5 162 -49 221 -52 58 -82 49 -125 -36 -51 -102 -73 -187 -78
-312 -2 -63 6 -405 19 -760 13 -355 22 -727 20 -826 l-3 -182 -267 -7 c-171
-5 -359 -3 -522 5 -313 15 -603 -2 -703 -40 -83 -31 -137 -76 -171 -143 -25
-49 -29 -67 -29 -140 1 -112 16 -140 133 -258 81 -81 109 -102 190 -142 259
-127 667 -243 1040 -297 164 -23 302 -49 318 -59 8 -5 6 -76 -7 -241 -29 -369
-2 -644 100 -1010 36 -132 190 -566 212 -600 9 -14 28 -75 42 -135 62 -264
136 -495 276 -862 l89 -236 0 -146 c0 -203 91 -1184 121 -1301 53 -213 151
-358 360 -536 81 -68 100 -79 290 -160 l204 -86 570 31 570 31 165 58 c341
121 581 276 815 524 239 253 459 659 614 1132 74 225 104 364 156 711 61 417
86 538 145 718 60 180 101 267 372 782 222 422 265 519 308 689 68 271 67 462
-9 868 -28 152 -51 280 -51 286 0 5 46 14 101 21 188 23 330 76 699 260 299
150 715 394 826 484 55 46 86 108 92 188 8 119 -32 200 -117 236 -37 16 -171
27 -441 39 l-165 6 -141 -60 c-248 -106 -762 -291 -907 -326 l-28 -7 2 233 c1
128 -1 265 -5 303 -30 284 -65 517 -112 750 -38 186 -136 576 -160 640 -22 55
-80 131 -122 160 -42 29 -38 28 -79 10z m221 -1260 c26 -211 36 -386 36 -622
l0 -222 -26 -20 c-15 -12 -29 -21 -33 -21 -3 0 -62 50 -129 110 -68 60 -156
128 -195 151 l-71 42 35 26 c64 48 104 97 156 191 62 112 142 308 174 426 13
46 26 80 30 76 4 -4 14 -65 23 -137z m-4680 -634 c76 -122 122 -183 159 -215
l51 -44 -44 -50 c-38 -41 -60 -55 -139 -86 -52 -20 -96 -34 -99 -31 -3 2 -13
123 -23 267 -19 274 -21 328 -15 328 2 0 51 -76 110 -169z m3121 125 c297 -37
620 -103 850 -176 210 -66 409 -215 534 -399 109 -160 236 -462 297 -706 13
-55 29 -111 35 -125 6 -14 21 -185 34 -380 17 -282 19 -359 10 -375 -7 -11
-15 -54 -19 -95 -8 -99 -44 -211 -96 -300 -24 -41 -60 -111 -81 -157 -22 -46
-111 -206 -198 -356 -246 -421 -287 -532 -396 -1067 -41 -201 -91 -448 -110
-550 -61 -316 -133 -565 -246 -856 l-59 -151 -179 -57 c-214 -68 -435 -124
-629 -160 -204 -37 -190 -41 -181 47 16 147 29 435 29 629 0 179 -7 270 -70
851 -38 359 -72 677 -76 707 -10 85 -41 157 -93 210 -57 59 -89 60 -117 1 -16
-31 -18 -65 -18 -241 0 -172 4 -224 23 -320 12 -63 26 -160 31 -215 4 -55 17
-158 29 -230 52 -330 75 -779 61 -1165 -5 -135 -10 -262 -10 -282 l0 -38 -260
0 -261 0 16 30 c19 36 19 90 0 204 -35 215 -37 358 -16 1116 19 673 23 735 45
863 14 76 29 153 35 170 30 100 15 180 -44 237 l-36 35 -47 -25 c-27 -15 -48
-33 -50 -45 -2 -11 -10 -27 -16 -35 -7 -8 -25 -94 -39 -190 -45 -286 -67 -832
-67 -1637 l0 -657 27 -28 c15 -15 22 -28 16 -28 -6 0 -154 27 -329 59 -372 69
-418 85 -636 228 -114 74 -135 84 -164 80 -31 -5 -34 -4 -38 26 -3 18 -8 167
-11 332 -10 478 5 413 -318 1380 -151 451 -281 838 -289 860 -22 57 -63 245
-90 415 -21 135 -23 173 -22 540 2 429 12 554 60 744 102 404 372 777 739
1022 224 149 488 243 770 273 44 5 406 8 805 7 614 -2 746 -5 865 -20z m3325
-166 c89 -19 88 -16 39 -66 -47 -49 -296 -218 -445 -302 -350 -198 -872 -402
-1028 -402 l-63 0 -41 83 c-55 110 -143 319 -137 325 3 3 90 9 193 13 l189 7
229 100 c126 55 268 118 314 140 102 49 217 87 325 107 92 17 336 14 425 -5z
m-6510 -597 c0 -3 -16 -35 -35 -69 -25 -47 -52 -133 -106 -343 -63 -243 -75
-281 -92 -281 -44 0 -1028 172 -1092 191 -144 43 -276 131 -372 249 -57 70
-62 92 -41 162 9 31 21 44 51 60 l40 20 706 -18 706 -18 110 26 c132 31 125
30 125 21z m845 -5143 c148 -91 329 -164 495 -201 198 -43 671 -75 970 -65
307 10 408 23 844 108 224 43 409 78 411 76 2 -2 -67 -81 -154 -176 -135 -149
-170 -183 -261 -243 -142 -95 -415 -228 -581 -283 -262 -87 -478 -120 -779
-119 -307 0 -416 21 -600 113 -186 92 -320 213 -382 343 -44 89 -52 124 -83
338 -33 227 -34 218 13 181 20 -16 69 -49 107 -72z"/>
<path d="M6300 6188 c-19 -6 -43 -17 -52 -25 -46 -41 -93 -256 -85 -388 3 -53
0 -100 -10 -139 -22 -88 -14 -188 17 -221 44 -47 155 -81 223 -70 54 10 109
65 136 139 28 76 38 173 21 217 -7 19 -18 95 -25 170 -15 160 -38 223 -98 274
-50 43 -83 54 -127 43z"/>
<path d="M4192 6015 c-19 -6 -37 -16 -40 -22 -4 -6 -17 -13 -28 -17 -50 -16
-122 -208 -131 -351 -9 -145 6 -210 71 -310 63 -97 105 -124 188 -125 62 0 86
29 127 157 41 131 54 222 49 367 -3 109 -6 127 -31 179 -45 91 -136 145 -205
122z"/>
<path d="M6751 3274 c-2 -18 32 -119 36 -109 2 6 -5 35 -16 65 -11 30 -20 50
-20 44z"/>
</g>
</svg>
