<?xml version="1.0" standalone="no"?>
<!DOCTYPE svg PUBLIC "-//W3C//DTD SVG 20010904//EN"
 "http://www.w3.org/TR/2001/REC-SVG-20010904/DTD/svg10.dtd">
<svg version="1.0" xmlns="http://www.w3.org/2000/svg"
 width="1024.000000pt" height="1024.000000pt" viewBox="0 0 1024.000000 1024.000000"
 preserveAspectRatio="xMidYMid meet">
<metadata>
Created by potrace 1.10, written by Peter Selinger 2001-2011
</metadata>
<g transform="translate(0.000000,1024.000000) scale(0.100000,-0.100000)"
fill="#000000" stroke="none">
<path d="M8090 8619 c-14 -5 -31 -19 -39 -31 -8 -13 -25 -125 -42 -271 -16
-136 -31 -252 -34 -256 -3 -5 -12 -88 -20 -184 -8 -96 -20 -187 -26 -203 -7
-19 -14 -173 -20 -429 -5 -230 -14 -423 -21 -455 -13 -62 -13 -62 -153 -163
-218 -156 -451 -284 -743 -406 -425 -179 -718 -321 -1165 -563 -142 -77 -261
-138 -264 -134 -3 3 -1 336 6 739 7 404 10 763 7 798 -5 53 -52 841 -71 1192
-8 152 -24 196 -99 265 -55 51 -78 52 -129 9 l-38 -33 45 -545 c71 -855 70
-824 68 -1354 -2 -562 -14 -1120 -24 -1130 -3 -3 -41 16 -85 43 -80 50 -598
358 -1508 897 -286 169 -526 313 -533 320 -14 12 -19 83 -96 1160 -29 408 -37
441 -118 530 -28 30 -58 55 -67 55 -25 0 -72 -53 -80 -90 -3 -17 1 -116 11
-218 101 -1120 107 -1203 101 -1382 -5 -147 -3 -180 10 -205 24 -47 62 -77
117 -91 100 -26 1038 -553 1658 -932 l582 -356 0 -537 c0 -295 5 -674 11 -843
6 -169 9 -310 7 -312 -8 -8 -1996 716 -2070 754 -88 45 -178 67 -223 54 -16
-5 -40 -23 -51 -40 -55 -81 41 -207 173 -227 32 -5 66 -22 113 -56 43 -31 106
-64 172 -88 57 -22 137 -53 178 -71 41 -17 359 -119 705 -225 582 -179 855
-275 968 -338 34 -19 37 -24 37 -66 0 -25 -7 -585 -16 -1245 -15 -1098 -15
-1201 -1 -1232 31 -65 131 -85 168 -34 18 26 38 193 59 510 12 170 13 895 4
1570 l-7 475 274 137 c364 182 438 223 1258 696 475 275 719 421 747 449 72
70 71 123 -4 180 l-42 32 -66 -25 c-36 -13 -438 -243 -892 -511 -455 -267
-872 -510 -927 -539 -97 -51 -277 -134 -322 -148 l-23 -7 0 874 0 874 96 37
c53 20 137 63 188 95 315 200 607 344 1041 516 353 139 630 283 932 480 125
82 149 103 206 176 51 64 69 97 86 153 36 127 42 186 51 536 11 378 26 581 67
885 41 298 36 355 -37 439 -42 47 -59 55 -90 45z"/>
<path d="M6823 3766 c3 -8 11 -33 17 -56 6 -23 14 -40 17 -37 6 6 -26 107 -34
107 -3 0 -3 -6 0 -14z"/>
</g>
</svg>
