<?xml version="1.0" standalone="no"?>
<!DOCTYPE svg PUBLIC "-//W3C//DTD SVG 20010904//EN"
 "http://www.w3.org/TR/2001/REC-SVG-20010904/DTD/svg10.dtd">
<svg version="1.0" xmlns="http://www.w3.org/2000/svg"
 width="1024.000000pt" height="1024.000000pt" viewBox="0 0 1024.000000 1024.000000"
 preserveAspectRatio="xMidYMid meet">
<metadata>
Created by potrace 1.10, written by Peter Selinger 2001-2011
</metadata>
<g transform="translate(0.000000,1024.000000) scale(0.100000,-0.100000)"
fill="#000000" stroke="none">
<path d="M4270 9120 l-745 -87 -230 -61 c-253 -67 -332 -95 -484 -171 -190
-96 -283 -160 -399 -274 -122 -120 -156 -178 -203 -351 -34 -124 -40 -160 -35
-210 3 -34 9 -117 15 -186 5 -69 14 -170 20 -225 20 -196 13 -446 -28 -960
-22 -269 -56 -758 -76 -1085 -20 -327 -40 -603 -46 -613 -6 -11 -30 -497 -57
-1125 -40 -950 -47 -1164 -44 -1506 2 -387 3 -403 32 -585 17 -102 33 -198 36
-212 4 -21 18 -33 67 -54 34 -15 76 -29 93 -30 17 -2 54 -15 83 -30 82 -41
284 -118 416 -158 77 -23 458 -102 1070 -220 l950 -184 955 -27 c1228 -34
1248 -34 1769 46 217 32 403 66 415 73 12 8 49 20 82 28 48 11 102 39 247 131
175 110 242 160 192 143 -12 -4 -6 4 15 22 19 16 38 27 42 25 3 -2 10 1 13 6
4 6 35 31 68 56 l62 45 -4 372 c-2 205 -13 1240 -25 2302 l-23 1930 49 680
c27 374 55 725 63 780 8 55 14 150 13 210 -1 82 4 124 16 163 17 52 17 53 -4
95 -11 23 -30 93 -41 154 -19 110 -21 116 -96 235 -97 157 -189 254 -317 332
-17 11 -55 39 -84 63 -30 24 -58 43 -63 43 -4 0 -59 24 -121 54 -117 55 -285
121 -398 155 -164 50 -309 77 -945 175 l-680 104 -325 11 c-499 17 -487 18
-1310 -79z m2385 -186 c536 -95 765 -147 1050 -241 211 -69 619 -359 686 -488
19 -36 42 -96 86 -226 14 -41 14 -54 2 -110 -13 -58 -21 -71 -86 -139 -84 -88
-147 -129 -275 -176 -253 -94 -423 -129 -798 -163 -63 -6 -187 -18 -275 -26
-565 -52 -1013 -69 -1675 -62 -739 9 -1098 32 -1720 112 l-405 53 -370 142
c-314 121 -380 149 -441 193 -60 44 -75 60 -99 112 -39 86 -38 176 2 265 54
118 205 285 356 391 161 114 299 166 722 274 217 56 323 76 640 125 l380 58
840 1 840 1 540 -96z m-4194 -1324 c31 -16 240 -93 465 -171 575 -198 414
-179 1908 -234 665 -24 1211 -47 1214 -49 2 -3 -3 -25 -11 -50 -13 -37 -25
-278 -63 -1188 -26 -629 -44 -1155 -41 -1171 4 -15 16 -36 27 -47 20 -20 74
-27 84 -12 3 5 14 65 25 133 18 108 22 202 31 744 16 997 24 1178 62 1376 29
156 30 168 15 197 -14 30 -14 32 1 32 9 0 289 18 622 40 333 22 625 40 649 40
l44 0 -6 -72 c-4 -40 -9 -127 -13 -193 l-6 -120 35 -23 c39 -26 85 -27 98 -2
4 8 13 95 20 192 11 163 11 179 -5 203 -10 15 -16 28 -14 29 2 2 84 18 183 35
99 18 190 35 203 38 22 5 22 5 22 -130 0 -74 3 -142 6 -151 5 -13 12 -12 53 8
87 44 91 50 97 151 5 77 3 95 -14 127 l-20 38 82 44 c44 24 99 53 122 64 22
11 66 42 98 67 l57 47 -5 -33 c-19 -111 -36 -284 -31 -312 9 -49 -83 -1331
-101 -1402 -18 -71 -39 -368 -30 -416 4 -22 16 -41 35 -53 l28 -19 -4 -196
c-3 -183 -16 -981 -29 -1831 -5 -326 -2 -443 30 -1108 20 -409 36 -752 36
-762 0 -20 -184 -184 -280 -250 l-56 -38 4 352 c3 193 -1 502 -7 686 -6 184
-14 458 -17 608 -7 256 -9 276 -28 305 -12 18 -33 37 -46 44 -21 11 -28 9 -48
-10 -53 -49 -52 35 -13 -1028 23 -657 26 -784 15 -901 -6 -75 -14 -140 -18
-146 -3 -5 -30 -16 -58 -23 -29 -6 -70 -23 -90 -35 -23 -15 -96 -37 -189 -58
l-152 -34 7 677 c5 420 4 686 -2 701 -13 33 -61 80 -82 80 -9 0 -24 -8 -32
-17 -14 -16 -16 -104 -20 -744 l-3 -726 -185 -12 c-102 -6 -210 -14 -240 -17
l-55 -6 2 208 c2 116 10 268 20 341 18 147 14 169 -38 219 -25 24 -32 26 -53
16 -32 -14 -31 -7 -57 -422 -12 -190 -22 -346 -23 -346 0 -1 -151 -5 -334 -9
l-334 -8 7 169 c4 126 46 1772 59 2349 1 48 -4 66 -22 92 -25 36 -66 52 -91
36 -21 -13 -38 -174 -39 -363 0 -154 -53 -2273 -57 -2278 -3 -3 -1176 66
-1181 70 -2 2 4 24 12 48 8 26 35 276 64 595 32 352 61 614 80 728 36 209 33
238 -31 299 -40 39 -56 40 -91 10 -15 -12 -17 -26 -11 -87 3 -46 1 -85 -6
-106 -6 -19 -23 -166 -36 -329 -14 -162 -31 -331 -39 -375 -8 -44 -17 -159
-20 -255 -3 -96 -13 -229 -21 -295 -20 -153 -21 -191 -4 -212 13 -15 11 -16
-21 -10 -19 3 -190 27 -380 52 -189 25 -346 48 -349 51 -2 2 3 143 11 312 18
336 17 348 -37 390 -34 27 -38 27 -70 0 l-26 -23 -13 -323 c-8 -178 -16 -325
-19 -328 -4 -5 -913 219 -921 227 -3 3 2 213 10 467 13 371 14 469 4 493 -15
35 -64 73 -85 65 -8 -3 -26 -28 -40 -56 l-26 -52 3 -439 c2 -241 3 -439 2
-439 -1 0 -106 46 -235 103 l-233 103 -12 40 c-6 21 -19 183 -28 359 l-18 320
42 1190 c23 655 46 1249 51 1320 5 72 45 607 90 1190 85 1114 96 1364 70 1590
-6 50 -11 94 -11 98 0 5 15 -1 33 -12 17 -12 57 -35 88 -51z"/>
<path d="M4450 8704 l-935 -73 -370 -82 -370 -81 -128 -76 c-146 -87 -183
-120 -198 -174 -15 -56 14 -113 104 -201 117 -116 140 -125 757 -300 l545
-154 755 -43 755 -42 1195 101 c657 55 1232 108 1277 117 100 20 207 65 299
127 88 58 116 96 122 162 6 70 -17 111 -120 213 -81 79 -92 87 -279 178 l-194
96 -365 99 -365 100 -680 54 c-374 30 -723 54 -775 54 -52 -1 -516 -35 -1030
-75z m1360 -89 c179 -14 339 -28 357 -31 32 -5 32 -5 13 -24 -11 -11 -22 -30
-24 -42 -8 -38 -36 -507 -36 -591 0 -74 2 -80 30 -108 23 -23 35 -29 52 -23
69 20 79 58 72 251 -5 125 -2 182 11 273 26 167 25 203 -5 235 l-25 27 60 -6
c86 -9 469 -36 505 -36 l30 0 -22 -41 c-19 -36 -23 -72 -35 -283 -14 -238 -14
-242 6 -283 11 -24 16 -43 11 -43 -17 0 -60 -78 -60 -110 l0 -30 63 0 c59 0
65 2 75 25 16 35 15 56 -4 83 -15 21 -14 25 15 58 37 41 35 30 36 224 0 121 4
171 19 228 16 58 18 80 10 111 -9 33 -8 38 5 35 9 -3 75 -17 146 -34 72 -16
154 -37 184 -48 l54 -18 -26 -21 c-21 -16 -33 -42 -52 -114 -23 -88 -32 -144
-55 -329 -5 -41 -14 -92 -19 -113 -5 -23 -6 -51 0 -70 5 -17 8 -31 6 -32 -1
-1 -468 -25 -1037 -54 -569 -28 -1056 -54 -1082 -57 -43 -5 -46 -4 -41 14 10
40 -39 102 -81 102 -27 0 -66 -52 -66 -87 l0 -33 -117 5 c-65 3 -185 8 -266
11 l-148 6 7 42 c9 53 7 89 -11 266 -14 130 -14 161 0 290 8 80 18 157 21 172
8 40 -13 93 -47 123 l-31 25 29 0 c15 0 170 11 343 25 370 29 353 29 344 13
-5 -7 -18 -75 -30 -152 l-23 -140 20 -28 c22 -30 56 -43 88 -33 25 8 46 65 61
167 13 91 3 142 -36 179 l-26 24 164 11 c89 6 181 12 203 13 22 0 186 -10 365
-24z m-1550 -86 l-25 -21 -5 -387 c-4 -292 -2 -397 7 -429 l12 -43 -27 5 c-15
4 -175 33 -357 66 -181 32 -357 69 -390 80 -33 11 -96 30 -139 41 -77 20 -155
53 -206 89 -14 10 -63 25 -110 35 -125 26 -348 118 -383 158 -52 58 -52 61 3
107 35 29 87 56 177 91 70 27 129 49 130 49 2 0 3 -55 3 -123 0 -122 0 -123
31 -166 27 -36 36 -42 63 -39 49 5 56 31 56 214 l0 161 261 42 c143 23 263 41
265 38 2 -2 -5 -44 -17 -92 -22 -94 -19 -117 23 -170 42 -54 87 -24 114 77 19
74 17 127 -6 166 -11 17 -16 32 -12 33 74 8 453 37 497 37 l60 1 -25 -20z
m3402 -214 l57 -18 -23 -31 c-52 -70 -60 -175 -15 -222 48 -51 88 -22 123 91
16 48 16 56 2 90 l-16 37 23 -14 c12 -8 78 -48 146 -88 128 -77 161 -110 161
-162 0 -20 -9 -31 -37 -48 -41 -24 -363 -144 -369 -137 -3 2 3 20 11 40 23 55
19 101 -11 136 -30 36 -51 39 -88 10 -21 -16 -26 -29 -26 -63 0 -73 10 -103
39 -116 14 -7 22 -14 16 -16 -16 -6 -320 -52 -323 -49 -6 6 69 405 88 466 25
81 25 120 0 152 l-20 25 102 -32 c57 -18 129 -41 160 -51z"/>
<path d="M5483 8620 c-24 -10 -27 -19 -43 -107 -9 -52 -8 -67 7 -100 38 -84
87 -107 120 -56 14 21 18 48 18 114 0 87 -1 88 -34 123 -38 39 -36 39 -68 26z"/>
<path d="M5497 8169 c-11 -6 -25 -26 -33 -44 -12 -30 -12 -39 6 -81 23 -52 44
-73 76 -74 27 0 39 14 54 67 15 51 7 87 -27 119 -28 26 -48 29 -76 13z"/>
<path d="M4976 8047 c-21 -16 -60 -188 -51 -229 7 -32 58 -78 85 -78 36 0 66
53 73 126 8 83 -6 137 -46 170 -33 28 -37 29 -61 11z"/>
<path d="M5515 7833 c-14 -21 -25 -48 -25 -61 0 -53 53 -109 96 -100 25 4 59
87 50 123 -8 32 -52 75 -77 75 -10 0 -30 -17 -44 -37z"/>
<path d="M3668 8046 c-8 -7 -22 -32 -33 -55 -18 -42 -18 -42 3 -87 l22 -45 58
3 57 3 3 49 c4 58 -11 99 -46 126 -29 23 -46 25 -64 6z"/>
<path d="M2775 7388 c-6 -29 -35 -587 -35 -684 0 -57 4 -77 21 -98 27 -35 85
-37 98 -3 4 12 16 175 25 362 19 361 18 375 -26 423 -13 12 -33 22 -50 22 -20
0 -29 -6 -33 -22z"/>
<path d="M6918 7203 c-40 -11 -58 -129 -58 -393 1 -145 4 -210 13 -221 26 -34
88 -51 103 -28 3 6 15 75 25 152 21 160 25 387 8 420 -13 25 -60 78 -68 76 -3
-1 -13 -3 -23 -6z"/>
<path d="M4128 7162 l-25 -27 -17 -465 -17 -465 30 -27 c40 -36 84 -37 106 -4
13 20 20 103 35 460 14 312 17 444 9 463 -13 35 -37 61 -70 79 -24 12 -28 11
-51 -14z"/>
<path d="M4986 7135 c-42 -45 -66 -144 -87 -364 -10 -113 -26 -253 -34 -311
-32 -232 -36 -325 -35 -869 0 -475 3 -563 17 -620 28 -116 59 -155 101 -125
45 31 50 84 36 394 -12 242 -11 347 1 690 13 351 20 448 54 730 22 179 45 341
50 360 14 44 -1 92 -36 120 -33 26 -39 25 -67 -5z"/>
<path d="M8120 6866 c-267 -108 -1465 -653 -1518 -690 -65 -47 -71 -64 -35
-93 15 -13 32 -23 37 -23 4 0 6 -9 3 -20 -3 -11 2 -61 10 -110 l15 -91 -23
-25 c-13 -14 -35 -30 -49 -37 -41 -20 -39 -67 5 -105 47 -42 115 -59 265 -67
l125 -6 305 121 c556 220 796 305 963 340 66 13 100 38 128 91 24 48 19 125
-14 232 l-21 67 21 108 c47 237 47 235 32 287 -14 47 -34 68 -74 78 -11 3 -86
-22 -175 -57z m82 -233 c-3 -104 -5 -113 -23 -113 -30 0 -87 -26 -130 -61 -31
-25 -39 -37 -37 -58 3 -29 27 -38 108 -40 25 -1 51 -5 58 -9 15 -10 38 -131
26 -141 -5 -5 -144 -50 -309 -101 -312 -96 -531 -177 -745 -275 -70 -32 -154
-62 -190 -69 -36 -7 -71 -15 -77 -19 -14 -9 -103 3 -103 14 0 5 22 11 49 15
68 9 487 209 514 246 19 25 19 28 3 52 -32 49 -49 46 -314 -68 -136 -58 -250
-106 -254 -106 -5 0 -8 21 -8 46 0 48 -10 76 -42 110 l-19 22 53 23 c29 13
134 64 233 115 300 153 473 231 850 385 198 80 360 146 360 145 0 0 -1 -52 -3
-113z"/>
<path d="M7763 6340 c-99 -40 -203 -117 -203 -149 0 -32 33 -51 90 -51 47 0
64 6 144 56 145 90 176 132 124 168 -31 22 -51 19 -155 -24z"/>
<path d="M2846 6108 c-17 -26 -76 -282 -76 -328 0 -54 70 -103 97 -67 20 24
104 329 97 351 -11 35 -45 66 -76 66 -18 0 -33 -8 -42 -22z"/>
<path d="M8314 5884 c-18 -14 -18 -14 6 -3 31 14 36 19 24 19 -6 0 -19 -7 -30
-16z"/>
<path d="M8140 5731 l-45 -18 -37 -249 c-20 -137 -37 -270 -37 -295 -1 -54 24
-93 65 -103 46 -12 61 13 69 117 9 134 32 270 61 372 28 99 32 141 15 174 -14
25 -32 26 -91 2z"/>
<path d="M3997 5720 c-43 -34 -69 -120 -74 -245 -2 -60 -24 -560 -49 -1109
-43 -959 -44 -1001 -28 -1032 30 -56 91 -68 115 -23 6 13 22 308 39 752 33
819 65 1408 80 1482 23 110 23 119 0 148 -34 43 -54 50 -83 27z"/>
<path d="M7506 5545 c-22 -34 -62 -204 -86 -365 -11 -75 -35 -394 -55 -715
-19 -319 -43 -650 -52 -735 -14 -122 -18 -244 -17 -570 0 -424 4 -480 39 -494
21 -8 72 13 80 32 3 9 42 591 86 1292 62 1002 83 1295 99 1370 27 127 26 152
-6 184 -34 33 -67 33 -88 1z"/>
<path d="M6831 5366 c-7 -8 -21 -45 -31 -82 -17 -58 -21 -122 -30 -448 l-10
-381 50 -835 c55 -938 54 -921 72 -949 16 -26 67 -28 98 -3 l22 17 -47 805
c-44 756 -47 825 -41 1130 3 179 11 386 18 460 20 212 18 233 -16 269 -32 33
-66 40 -85 17z"/>
<path d="M2828 5293 c-31 -35 -48 -206 -62 -623 -8 -222 -10 -414 -6 -425 18
-48 84 -69 113 -37 15 17 19 63 32 363 8 189 20 401 26 470 15 155 10 192 -33
236 -36 38 -48 40 -70 16z"/>
<path d="M8073 4528 c-20 -21 -22 -44 -36 -313 -8 -159 -10 -300 -6 -312 11
-29 53 -56 77 -49 24 8 66 100 82 181 8 38 10 92 6 146 -4 47 -2 118 4 158 13
90 2 138 -41 180 -36 37 -58 39 -86 9z"/>
<path d="M5946 4397 c-16 -12 -17 -32 -16 -207 3 -288 5 -322 30 -342 36 -29
91 -1 116 59 21 49 19 361 -2 411 -31 76 -86 110 -128 79z"/>
<path d="M4832 4310 c-22 -18 -23 -27 -58 -605 -33 -555 -34 -588 -18 -606 24
-27 54 -24 91 9 l31 27 16 310 c9 171 26 416 37 546 12 130 19 249 15 263 -8
34 -49 76 -73 76 -10 -1 -28 -9 -41 -20z"/>
<path d="M2740 3610 c-17 -31 -39 -314 -42 -541 -3 -192 -2 -208 16 -228 14
-15 31 -21 63 -21 23 0 43 3 43 8 0 4 11 157 24 340 26 364 25 381 -25 432
-35 35 -64 39 -79 10z"/>
<path d="M3793 2719 c-13 -4 -23 -16 -24 -26 0 -10 -6 -75 -13 -145 -9 -104
-9 -132 1 -153 16 -30 42 -45 78 -45 39 0 54 46 57 183 3 103 1 118 -17 143
-30 40 -56 54 -82 43z"/>
<path d="M6856 2339 c-45 -35 -70 -96 -72 -174 -1 -38 -7 -97 -13 -129 -17
-93 -15 -111 23 -150 36 -39 74 -47 96 -21 6 8 20 80 31 160 10 80 23 164 29
186 14 50 6 90 -23 116 -36 33 -43 34 -71 12z"/>
<path d="M3793 2159 c-16 -6 -28 -29 -49 -93 l-28 -86 20 -27 c26 -34 68 -51
92 -37 24 15 54 79 59 128 7 68 -46 133 -94 115z"/>
</g>
</svg>
