<?xml version="1.0" standalone="no"?>
<!DOCTYPE svg PUBLIC "-//W3C//DTD SVG 20010904//EN"
 "http://www.w3.org/TR/2001/REC-SVG-20010904/DTD/svg10.dtd">
<svg version="1.0" xmlns="http://www.w3.org/2000/svg"
 width="1024.000000pt" height="1024.000000pt" viewBox="0 0 1024.000000 1024.000000"
 preserveAspectRatio="xMidYMid meet">
<metadata>
Created by potrace 1.10, written by Peter Selinger 2001-2011
</metadata>
<g transform="translate(0.000000,1024.000000) scale(0.100000,-0.100000)"
fill="#000000" stroke="none">
<path d="M8858 8853 c-39 -10 -44 -53 -103 -864 l-46 -634 -86 -485 c-47 -267
-87 -486 -88 -488 -2 -2 -327 262 -723 587 -505 414 -725 589 -737 585 -19 -8
-45 -55 -45 -83 0 -34 49 -79 187 -172 200 -136 671 -527 996 -827 158 -146
286 -271 284 -277 -2 -5 -100 -405 -218 -888 -147 -605 -218 -876 -226 -873
-6 3 -135 94 -285 203 -283 206 -1173 783 -1208 783 -17 0 -60 -55 -60 -77 0
-25 275 -222 500 -357 135 -82 274 -172 310 -201 36 -29 209 -154 385 -277
l321 -224 -137 -364 c-125 -335 -146 -383 -256 -585 -107 -197 -154 -269 -457
-695 -341 -479 -400 -552 -640 -798 -182 -186 -365 -321 -586 -432 -318 -159
-588 -194 -930 -120 -599 130 -1210 683 -1661 1502 -22 40 -110 223 -196 407
l-156 334 29 21 c42 30 77 63 644 601 284 270 584 555 668 635 86 82 155 155
159 169 5 19 0 30 -21 48 -15 13 -37 23 -49 23 -15 0 -259 -217 -757 -671
l-734 -671 -19 43 c-11 24 -133 376 -272 781 -240 699 -257 751 -315 1005 -33
147 -63 273 -65 280 -2 7 43 46 100 87 94 68 1405 1186 1517 1294 57 55 63 89
22 127 -32 30 -41 30 -75 7 -14 -9 -378 -321 -808 -692 -431 -371 -786 -676
-790 -678 -3 -1 -16 42 -28 95 -12 54 -87 378 -167 720 -201 861 -206 886
-222 1183 -15 285 -35 452 -59 504 -10 20 -31 46 -47 57 -26 19 -32 20 -55 8
-53 -29 -54 -37 -27 -249 70 -550 107 -811 124 -871 11 -36 127 -532 258
-1100 l239 -1034 406 -1107 c498 -1355 456 -1265 829 -1805 283 -410 362 -507
543 -662 181 -156 325 -252 535 -357 69 -34 134 -72 144 -83 22 -24 128 -60
266 -89 370 -80 724 -37 1027 123 206 109 437 281 594 442 47 48 291 351 541
673 363 467 473 616 547 740 l93 155 285 770 284 770 164 740 164 740 115 753
116 754 25 401 c13 221 29 426 35 456 14 74 4 116 -37 157 -18 19 -37 33 -41
33 -4 -1 -14 -3 -24 -6z"/>
</g>
</svg>
