<?xml version="1.0" standalone="no"?>
<!DOCTYPE svg PUBLIC "-//W3C//DTD SVG 20010904//EN"
 "http://www.w3.org/TR/2001/REC-SVG-20010904/DTD/svg10.dtd">
<svg version="1.0" xmlns="http://www.w3.org/2000/svg"
 width="1024.000000pt" height="1024.000000pt" viewBox="0 0 1024.000000 1024.000000"
 preserveAspectRatio="xMidYMid meet">
<metadata>
Created by potrace 1.10, written by Peter Selinger 2001-2011
</metadata>
<g transform="translate(0.000000,1024.000000) scale(0.100000,-0.100000)"
fill="#000000" stroke="none">
<path d="M4255 9155 c-5 -2 -22 -6 -37 -9 -38 -8 -35 -21 13 -73 87 -95 101
-183 45 -298 -47 -99 -106 -172 -253 -315 -509 -497 -1153 -974 -1820 -1349
l-162 -91 -118 65 c-123 67 -265 125 -309 125 -14 0 -61 -19 -105 -42 -63 -34
-79 -48 -79 -66 0 -30 23 -83 70 -162 65 -109 160 -415 200 -640 59 -339 158
-1244 220 -2010 16 -206 37 -451 45 -545 19 -216 68 -832 100 -1265 14 -184
32 -420 40 -525 47 -560 125 -815 251 -815 110 0 181 112 191 302 l6 98 31 4
c17 3 411 30 876 61 738 48 1345 89 3897 260 287 19 531 35 542 35 19 0 19 -1
-5 -91 -28 -105 -30 -153 -9 -234 32 -121 132 -255 191 -255 69 0 108 21 181
96 84 87 123 160 158 297 36 143 40 180 135 1352 50 605 101 1235 115 1400 14
165 65 793 115 1395 103 1255 101 1242 210 1462 23 47 44 103 47 125 7 50 -19
110 -73 172 -87 101 -291 236 -424 282 l-65 22 -140 -31 c-77 -17 -289 -61
-472 -97 -328 -64 -340 -66 -1026 -134 l-694 -69 -239 39 c-131 21 -251 38
-267 39 -23 0 -31 -8 -49 -44 -19 -40 -20 -47 -7 -78 48 -117 399 -385 499
-381 19 1 240 29 490 62 1122 149 1694 221 1714 215 33 -10 65 -45 76 -82 9
-32 0 -226 -55 -1267 -8 -154 -20 -396 -27 -538 -6 -141 -14 -261 -17 -266 -4
-4 -458 -61 -1011 -126 -999 -117 -1006 -117 -1105 -105 -125 15 -248 40 -390
80 -60 17 -119 29 -132 25 -29 -7 -53 -53 -53 -103 0 -55 44 -117 174 -247
113 -112 185 -161 272 -184 36 -10 60 -7 170 18 228 52 454 81 1259 161 435
42 791 76 793 75 2 -2 -43 -593 -100 -1315 -98 -1258 -104 -1313 -123 -1320
-11 -4 -209 -19 -440 -33 -391 -25 -2186 -142 -3415 -222 -1381 -90 -1613
-105 -1615 -103 -9 11 -137 2540 -129 2547 10 9 2086 261 2150 261 59 0 140
27 175 58 50 45 44 67 -51 185 -101 124 -150 154 -295 177 -54 9 -72 7 -141
-14 -276 -82 -458 -115 -1164 -211 -382 -51 -698 -91 -701 -87 -3 4 -29 376
-58 827 -59 941 -69 1042 -111 1164 -16 47 -31 90 -32 95 -2 5 119 64 267 131
419 188 642 307 1300 690 132 77 474 290 603 377 117 78 480 293 532 315 88
37 139 107 140 189 0 107 -143 234 -479 427 -216 123 -262 143 -296 132z"/>
</g>
</svg>
