<?xml version="1.0" standalone="no"?>
<!DOCTYPE svg PUBLIC "-//W3C//DTD SVG 20010904//EN"
 "http://www.w3.org/TR/2001/REC-SVG-20010904/DTD/svg10.dtd">
<svg version="1.0" xmlns="http://www.w3.org/2000/svg"
 width="1024.000000pt" height="1024.000000pt" viewBox="0 0 1024.000000 1024.000000"
 preserveAspectRatio="xMidYMid meet">
<metadata>
Created by potrace 1.10, written by Peter Selinger 2001-2011
</metadata>
<g transform="translate(0.000000,1024.000000) scale(0.100000,-0.100000)"
fill="#000000" stroke="none">
<path d="M7515 6324 c-522 -46 -1841 -160 -2930 -254 -1738 -149 -2023 -172
-2334 -182 l-354 -12 -166 33 c-229 47 -271 66 -271 123 0 56 -91 208 -139
233 -27 13 -30 13 -56 -15 l-28 -30 25 -149 25 -149 -44 -283 c-41 -261 -48
-294 -94 -419 -67 -179 -153 -356 -228 -472 -121 -188 -160 -300 -168 -491 -7
-154 6 -246 53 -376 61 -168 90 -201 177 -201 50 0 93 27 163 101 159 169 273
414 364 781 79 323 104 603 81 907 -7 84 -10 155 -9 157 2 2 40 -17 83 -43 49
-28 148 -68 254 -104 l173 -58 1662 199 c1860 224 1571 199 2756 240 322 11
840 29 1152 40 313 11 586 17 609 14 138 -22 158 -135 60 -339 -85 -177 -291
-463 -519 -721 -86 -98 -84 -91 -46 -142 1 -2 211 82 466 186 255 105 506 204
558 221 205 66 494 132 657 150 131 14 185 58 185 150 -1 127 -151 340 -452
641 -253 253 -429 351 -628 349 -48 -1 -514 -39 -1037 -85z"/>
</g>
</svg>
