<?xml version="1.0" standalone="no"?>
<!DOCTYPE svg PUBLIC "-//W3C//DTD SVG 20010904//EN"
 "http://www.w3.org/TR/2001/REC-SVG-20010904/DTD/svg10.dtd">
<svg version="1.0" xmlns="http://www.w3.org/2000/svg"
 width="1024.000000pt" height="1024.000000pt" viewBox="0 0 1024.000000 1024.000000"
 preserveAspectRatio="xMidYMid meet">
<metadata>
Created by potrace 1.10, written by Peter Selinger 2001-2011
</metadata>
<g transform="translate(0.000000,1024.000000) scale(0.100000,-0.100000)"
fill="#000000" stroke="none">
<path d="M4105 7255 c-104 -13 -266 -31 -360 -40 -411 -39 -767 -112 -1150
-235 -284 -92 -428 -172 -561 -312 -101 -107 -159 -205 -215 -369 -73 -210
-93 -328 -94 -539 0 -97 6 -206 13 -245 42 -240 66 -847 43 -1131 -11 -134
-48 -1108 -53 -1379 -2 -107 1 -136 15 -162 21 -40 64 -63 114 -63 78 1 69
-67 110 846 43 962 49 1496 20 1764 -38 343 -40 367 -28 493 16 180 35 260
105 430 l63 152 194 121 c202 125 259 151 509 229 417 131 788 187 1585 237
258 16 1321 17 1580 0 401 -25 488 -35 975 -117 l495 -83 265 -97 c146 -53
267 -100 270 -104 3 -4 33 -24 66 -44 34 -20 92 -69 130 -109 67 -71 71 -78
112 -198 82 -245 125 -463 144 -729 12 -177 16 -81 -84 -1929 -20 -369 -20
-395 -5 -428 19 -39 65 -64 117 -64 42 0 65 14 78 47 13 32 16 80 73 1268 l42
860 -22 340 c-28 445 -52 559 -166 790 -73 148 -167 248 -310 333 -295 175
-575 283 -911 352 -60 13 -342 40 -762 74 l-667 54 -770 6 c-765 5 -771 4
-960 -19z"/>
<path d="M6347 2019 c4 -13 8 -18 11 -10 2 7 -1 18 -6 23 -8 8 -9 4 -5 -13z"/>
<path d="M6361 1980 c0 -8 4 -24 9 -35 5 -13 9 -14 9 -5 0 8 -4 24 -9 35 -5
13 -9 14 -9 5z"/>
</g>
</svg>
