<?xml version="1.0" standalone="no"?>
<!DOCTYPE svg PUBLIC "-//W3C//DTD SVG 20010904//EN"
 "http://www.w3.org/TR/2001/REC-SVG-20010904/DTD/svg10.dtd">
<svg version="1.0" xmlns="http://www.w3.org/2000/svg"
 width="1024.000000pt" height="1024.000000pt" viewBox="0 0 1024.000000 1024.000000"
 preserveAspectRatio="xMidYMid meet">
<metadata>
Created by potrace 1.10, written by Peter Selinger 2001-2011
</metadata>
<g transform="translate(0.000000,1024.000000) scale(0.100000,-0.100000)"
fill="#000000" stroke="none">
<path d="M7173 6618 c-445 -387 -836 -727 -871 -757 l-62 -54 -35 39 c-35 41
-505 1015 -505 1048 0 10 -28 70 -63 134 -35 65 -67 131 -71 147 -10 42 -53
84 -93 91 -29 5 -44 0 -106 -41 -98 -65 -223 -172 -289 -248 -30 -34 -292
-379 -583 -767 -290 -388 -531 -709 -536 -714 -9 -10 -323 220 -519 379 -291
237 -701 522 -1010 701 -117 69 -268 124 -336 124 -65 0 -107 -30 -107 -76 0
-17 147 -453 328 -969 324 -931 330 -946 582 -1544 235 -558 254 -607 246
-640 -5 -20 -7 -61 -5 -91 4 -53 6 -57 58 -99 66 -53 222 -134 301 -157 32 -9
110 -33 173 -55 209 -69 487 -130 735 -161 143 -17 673 -18 810 0 55 6 253 30
440 52 394 47 470 59 660 105 175 42 302 82 478 151 169 67 460 210 527 259
114 84 201 214 233 351 10 38 143 769 297 1624 154 855 285 1582 291 1615 17
87 -5 157 -66 214 -27 25 -54 41 -70 41 -18 0 -226 -175 -832 -702z m-1629 70
c296 -623 554 -1116 604 -1156 29 -23 72 -7 216 79 113 68 165 108 269 204 71
66 375 341 676 611 494 444 546 489 549 465 2 -20 -435 -2528 -479 -2748 -13
-68 -30 -69 -118 -4 -89 64 -101 70 -276 130 -558 193 -1101 236 -1784 140
-634 -89 -1230 -306 -1786 -652 l-90 -56 -24 46 c-27 53 -1010 2643 -1003
2643 2 0 128 -77 280 -171 275 -171 277 -172 764 -570 l488 -399 98 -6 97 -6
82 84 c50 51 174 211 322 413 414 567 473 646 592 798 129 163 369 447 378
447 3 0 69 -132 145 -292z m556 -2498 c223 -12 446 -27 495 -36 240 -40 462
-143 653 -304 l63 -53 -53 -54 c-66 -67 -185 -159 -281 -215 -139 -81 -233
-112 -655 -212 l-403 -95 -807 -32 c-444 -17 -845 -28 -892 -26 -104 7 -288
46 -433 94 -102 34 -378 161 -390 179 -7 12 129 123 261 212 242 164 512 278
924 386 379 100 897 190 1043 181 39 -3 252 -14 475 -25z"/>
</g>
</svg>
