<?xml version="1.0" standalone="no"?>
<!DOCTYPE svg PUBLIC "-//W3C//DTD SVG 20010904//EN"
 "http://www.w3.org/TR/2001/REC-SVG-20010904/DTD/svg10.dtd">
<svg version="1.0" xmlns="http://www.w3.org/2000/svg"
 width="480.000000pt" height="480.000000pt" viewBox="0 0 480.000000 480.000000"
 preserveAspectRatio="xMidYMid meet">
<metadata>
Created by potrace 1.11, written by Peter Selinger 2001-2013
</metadata>
<g transform="translate(0.000000,480.000000) scale(0.100000,-0.100000)"
fill="#000000" stroke="none">
<path d="M585 4423 c-64 -16 -61 -66 18 -284 18 -52 53 -176 77 -275 24 -98
51 -186 59 -195 12 -13 64 -22 216 -38 l200 -20 39 -43 c21 -24 126 -146 232
-273 107 -126 224 -261 260 -300 37 -38 321 -356 632 -705 310 -349 575 -646
588 -660 l23 -25 -39 -234 c-22 -129 -36 -239 -32 -246 26 -46 832 -744 899
-778 15 -8 55 -45 87 -82 78 -88 106 -105 179 -105 38 0 57 4 58 13 4 45 -11
108 -106 447 -6 25 -15 65 -18 89 l-5 43 66 -6 c37 -3 159 -9 272 -12 206 -7
206 -7 243 17 44 29 52 73 15 85 -32 9 -90 53 -157 117 -70 67 -96 96 -206
232 -49 61 -148 171 -221 245 -72 74 -134 143 -138 153 -3 11 -15 21 -26 24
-11 3 -20 13 -20 22 0 9 -26 34 -57 56 -31 22 -76 57 -98 78 -40 35 -45 37
-111 37 -38 0 -116 -7 -174 -15 -58 -8 -151 -15 -207 -15 l-102 0 -772 848
c-697 764 -919 1022 -949 1095 -5 12 -18 92 -30 177 -24 169 -47 238 -94 287
-26 27 -52 38 -166 68 -103 28 -166 53 -265 103 -71 37 -131 70 -133 75 -4 7
-6 7 -37 0z m256 -384 c149 -193 252 -344 223 -327 -5 3 -49 9 -99 13 -86 6
-149 14 -150 18 -19 84 -95 372 -112 421 -13 38 -23 72 -23 75 0 9 13 -7 161
-200z m135 106 c81 -25 148 -46 150 -48 3 -3 60 -287 58 -287 -1 0 -35 35 -76
77 -40 43 -122 128 -182 190 -61 62 -107 113 -104 113 3 0 72 -20 154 -45z
m2544 -2456 c0 -6 6 -9 13 -6 8 3 19 2 26 -2 21 -14 -179 -51 -274 -51 -62 0
-85 -3 -75 -10 8 -5 29 -10 45 -11 24 -1 20 -3 -15 -9 -40 -7 -48 -5 -72 17
-47 45 -25 52 207 69 50 4 91 7 92 8 10 8 53 3 53 -5z m-428 -162 c-7 -8 -15
-41 -17 -73 -7 -75 -56 -324 -64 -324 -3 0 -17 9 -31 20 l-25 19 17 48 c16 47
22 82 32 173 16 150 19 161 39 175 19 14 23 13 41 -4 15 -16 17 -23 8 -34z
m210 -23 c-12 -8 -28 -12 -34 -8 -9 6 -5 10 12 15 41 11 46 10 22 -7z m478
-31 c11 -14 17 -30 13 -33 -9 -8 -291 -86 -345 -96 -33 -5 -40 -2 -67 28 -17
18 -31 36 -31 39 0 4 28 10 63 13 34 4 121 22 192 41 72 18 135 34 142 34 6 1
21 -11 33 -26z m-565 -67 c15 -22 13 -37 -22 -205 -21 -100 -41 -181 -44 -181
-4 0 -17 8 -29 18 l-22 18 31 124 c16 69 36 153 42 188 7 34 16 62 21 62 4 0
15 -11 23 -24z m688 -76 c-5 -4 -44 -17 -88 -30 -44 -12 -125 -40 -180 -62
l-100 -39 -24 28 c-30 34 -38 30 179 83 90 22 169 45 174 50 6 6 16 4 28 -7
10 -9 15 -20 11 -23z m-582 -153 c0 -59 -35 -265 -47 -276 -2 -3 -13 4 -24 15
-19 19 -19 20 20 174 22 85 40 156 40 159 0 2 3 2 6 -2 3 -3 6 -35 5 -70z
m719 13 c0 -10 -270 -90 -301 -90 -15 0 -39 -10 -54 -22 l-28 -22 -24 28 c-13
16 -21 32 -16 37 18 18 272 103 323 109 46 5 59 2 78 -14 12 -11 22 -22 22
-26z m-579 -83 c-5 -5 -7 -31 -4 -58 7 -57 -11 -155 -39 -221 -22 -51 -29 -56
-47 -35 -8 10 -1 58 26 185 35 166 37 172 55 155 12 -10 15 -20 9 -26z m673
-26 c6 -9 -293 -85 -301 -77 -7 6 79 38 172 62 100 26 121 28 129 15z m-531
-133 c-6 -7 -18 -78 -27 -157 -8 -79 -17 -145 -19 -147 -2 -2 -20 14 -41 35
l-38 39 26 34 c18 25 32 66 48 141 22 106 22 107 42 88 14 -15 17 -23 9 -33z
m767 -105 c0 -5 -199 4 -286 13 -28 2 -95 5 -147 6 -79 0 -99 4 -112 18 -16
17 -13 19 57 34 40 9 132 29 203 44 l130 29 78 -70 c42 -38 77 -72 77 -74z
m-650 -73 c-5 -30 -9 -102 -9 -160 l-1 -105 -27 27 -27 27 13 108 c8 59 15
115 16 123 2 8 4 28 4 45 1 29 1 29 20 10 16 -17 18 -28 11 -75z m154 -153
c20 -113 20 -114 46 -212 11 -38 18 -71 16 -72 -4 -4 -108 76 -118 91 -4 6 -6
16 -3 23 2 7 5 70 6 140 0 70 3 131 5 135 3 4 11 5 18 2 8 -3 20 -46 30 -107z"/>
</g>
</svg>
