<?xml version="1.0" standalone="no"?>
<!DOCTYPE svg PUBLIC "-//W3C//DTD SVG 20010904//EN"
 "http://www.w3.org/TR/2001/REC-SVG-20010904/DTD/svg10.dtd">
<svg version="1.0" xmlns="http://www.w3.org/2000/svg"
 width="480.000000pt" height="480.000000pt" viewBox="0 0 480.000000 480.000000"
 preserveAspectRatio="xMidYMid meet">
<metadata>
Created by potrace 1.11, written by Peter Selinger 2001-2013
</metadata>
<g transform="translate(0.000000,480.000000) scale(0.100000,-0.100000)"
fill="#000000" stroke="none">
<path d="M2309 4284 c-18 -9 -33 -33 -49 -76 -63 -177 -226 -443 -372 -608
-94 -106 -99 -115 -87 -149 8 -21 13 -22 46 -16 49 9 124 47 167 86 70 61 296
368 296 402 0 6 3 7 7 3 9 -9 9 24 17 -791 4 -379 9 -718 11 -752 4 -59 3 -64
-32 -105 -48 -57 -57 -82 -83 -218 -25 -132 -34 -390 -19 -510 12 -94 45 -251
67 -310 8 -25 28 -60 44 -78 33 -38 33 -38 13 -133 -28 -130 -123 -276 -235
-360 -76 -57 -181 -108 -248 -121 -68 -13 -92 -31 -92 -69 0 -34 24 -44 88
-34 217 31 411 174 520 383 l38 72 32 -77 c83 -203 229 -341 408 -387 35 -9
102 -16 153 -16 86 0 92 1 100 23 13 33 -13 52 -94 66 -38 6 -110 24 -160 38
-87 26 -93 30 -170 108 -76 75 -145 174 -145 207 0 8 -11 42 -24 75 -13 33
-26 84 -30 112 -6 49 -5 53 34 94 45 50 48 60 80 297 35 259 32 444 -11 653
-23 116 -44 162 -94 205 l-35 32 -4 152 c-3 84 -7 414 -11 733 -3 319 -8 606
-11 638 -3 31 -1 57 4 57 5 0 26 -28 47 -61 104 -168 327 -345 455 -360 67 -8
90 2 90 40 0 25 -7 32 -57 55 -38 19 -84 55 -143 115 -133 134 -233 284 -296
442 -43 106 -70 141 -110 146 -16 1 -40 5 -54 7 -14 3 -37 -2 -51 -10z"/>
</g>
</svg>
