<?xml version="1.0" standalone="no"?>
<!DOCTYPE svg PUBLIC "-//W3C//DTD SVG 20010904//EN"
 "http://www.w3.org/TR/2001/REC-SVG-20010904/DTD/svg10.dtd">
<svg version="1.0" xmlns="http://www.w3.org/2000/svg"
 width="60.000000pt" height="60.000000pt" viewBox="0 0 60.000000 60.000000"
 preserveAspectRatio="xMidYMid meet">
<metadata>
Created by potrace 1.10, written by Peter Selinger 2001-2011
</metadata>
<g transform="translate(0.000000,60.000000) scale(0.100000,-0.100000)"
fill="#000000" stroke="none">
<path d="M210 527 c0 -25 -47 -115 -75 -143 -31 -31 -22 -31 18 0 20 15 49 25
77 28 41 3 45 1 48 -21 2 -12 1 -33 -2 -46 -5 -21 -14 -24 -88 -30 -69 -6 -79
-9 -65 -20 12 -9 30 -10 60 -4 23 4 52 8 64 9 22 0 22 -1 7 -42 -20 -59 -59
-106 -116 -141 -54 -33 -60 -41 -23 -27 81 31 147 95 167 162 6 20 14 35 18
33 4 -3 38 -47 75 -100 70 -98 87 -111 124 -97 22 8 21 9 -19 37 -22 15 -73
64 -112 107 l-70 78 92 0 c69 0 91 3 87 13 -3 9 -28 11 -88 9 l-84 -3 3 50 c4
50 4 51 37 51 38 0 65 8 65 20 0 17 -38 20 -71 6 -19 -7 -58 -17 -87 -21 l-54
-7 24 41 c22 38 22 41 6 58 -17 16 -18 16 -18 0z"/>
</g>
</svg>
