<?xml version="1.0" standalone="no"?>
<!DOCTYPE svg PUBLIC "-//W3C//DTD SVG 20010904//EN"
 "http://www.w3.org/TR/2001/REC-SVG-20010904/DTD/svg10.dtd">
<svg version="1.0" xmlns="http://www.w3.org/2000/svg"
 width="1024.000000pt" height="1024.000000pt" viewBox="0 0 1024.000000 1024.000000"
 preserveAspectRatio="xMidYMid meet">
<metadata>
Created by potrace 1.10, written by Peter Selinger 2001-2011
</metadata>
<g transform="translate(0.000000,1024.000000) scale(0.100000,-0.100000)"
fill="#000000" stroke="none">
<path d="M4573 8624 c-24 -9 -43 -20 -43 -25 0 -5 25 -58 55 -118 70 -139 84
-212 66 -341 -42 -300 -285 -1001 -550 -1592 -146 -325 -408 -826 -585 -1117
l-57 -94 24 -25 c34 -33 55 -24 136 57 175 173 401 483 661 906 111 182 208
335 214 341 8 8 57 0 186 -32 96 -24 193 -45 215 -46 37 -3 42 -7 67 -53 65
-117 82 -229 69 -454 -5 -91 -18 -336 -27 -544 -10 -208 -21 -382 -25 -388 -3
-6 -306 -49 -680 -96 l-674 -86 -245 21 c-134 11 -247 19 -249 16 -3 -3 8 -43
23 -89 25 -72 37 -92 81 -134 64 -61 100 -79 274 -140 l139 -49 79 24 c68 22
1202 218 1211 210 7 -7 -61 -504 -89 -646 -60 -305 -167 -703 -260 -962 -214
-597 -467 -1032 -813 -1398 -89 -95 -248 -242 -304 -283 -36 -26 -112 -116
-112 -132 0 -11 69 -4 121 11 190 56 582 350 785 589 402 474 730 1103 859
1647 l37 157 205 -230 c199 -224 213 -243 498 -663 161 -239 303 -452 315
-475 50 -99 123 -149 201 -138 62 8 105 41 136 105 23 48 28 72 31 158 3 74 0
117 -13 160 -84 295 -494 694 -1135 1108 -102 65 -187 121 -189 123 -7 5 151
907 160 917 5 6 66 13 136 17 71 4 371 21 668 38 297 17 560 34 585 37 60 8
114 61 125 122 9 56 -13 93 -90 152 -51 39 -77 49 -177 74 l-116 30 -524 -68
c-288 -37 -537 -69 -554 -72 l-30 -6 53 624 c41 487 50 629 42 651 -14 32
-105 119 -160 150 -21 12 -39 24 -39 27 0 3 215 41 478 84 561 91 579 95 709
136 l100 32 36 63 c21 35 37 68 37 72 0 5 -37 36 -82 69 -76 56 -93 64 -206
93 l-123 32 -137 -45 c-75 -25 -290 -88 -477 -141 -305 -86 -376 -102 -684
-155 -190 -33 -346 -59 -347 -57 -5 6 450 959 518 1082 83 152 124 267 114
321 -25 131 -411 437 -569 450 -23 2 -61 -4 -84 -12z"/>
</g>
</svg>
