<?xml version="1.0" standalone="no"?>
<!DOCTYPE svg PUBLIC "-//W3C//DTD SVG 20010904//EN"
 "http://www.w3.org/TR/2001/REC-SVG-20010904/DTD/svg10.dtd">
<svg version="1.0" xmlns="http://www.w3.org/2000/svg"
 width="1024.000000pt" height="1024.000000pt" viewBox="0 0 1024.000000 1024.000000"
 preserveAspectRatio="xMidYMid meet">
<metadata>
Created by potrace 1.10, written by Peter Selinger 2001-2011
</metadata>
<g transform="translate(0.000000,1024.000000) scale(0.100000,-0.100000)"
fill="#000000" stroke="none">
<path d="M4842 8400 c-244 -461 -446 -848 -449 -859 -5 -21 -3 -21 234 -21
167 0 242 3 251 12 8 8 28 8 81 0 56 -10 77 -19 105 -45 l36 -32 -7 -658 -6
-657 -111 -60 c-126 -67 -196 -130 -221 -200 -70 -192 -74 -273 -20 -458 30
-107 43 -134 111 -237 52 -79 98 -135 145 -177 50 -44 70 -69 74 -92 8 -48
-22 -1699 -44 -2445 l-20 -664 -28 -27 c-15 -15 -244 -215 -508 -445 -264
-229 -507 -441 -540 -470 -33 -29 -84 -73 -114 -98 -62 -53 -91 -92 -91 -123
0 -19 8 -22 61 -28 34 -3 94 -6 133 -6 l71 0 465 411 c605 535 569 504 581
492 7 -7 23 -4 51 9 29 14 50 18 79 13 32 -6 39 -4 39 9 0 22 8 20 59 -14 24
-17 51 -30 59 -30 8 0 28 -11 46 -26 17 -14 74 -55 126 -91 220 -153 449 -350
680 -584 l155 -157 143 -4 c78 -3 142 -2 142 2 0 17 -423 471 -514 552 -218
195 -423 347 -646 480 -74 45 -142 87 -151 95 -9 7 -24 37 -33 66 -17 50 -17
114 8 1532 14 814 26 1494 26 1511 0 34 10 41 117 79 171 62 315 198 374 354
36 96 51 189 46 280 -4 74 -10 95 -48 170 -24 47 -77 136 -117 196 -67 99 -80
112 -126 133 -28 12 -62 22 -76 22 -14 0 -38 7 -54 15 -15 8 -46 15 -68 15
l-41 0 7 413 c8 543 8 776 0 868 -10 126 -24 119 244 119 285 0 602 11 602 21
0 6 -120 238 -405 784 -40 77 -159 307 -265 510 -106 204 -195 373 -199 377
-3 4 -206 -370 -449 -832z"/>
</g>
</svg>
