<?xml version="1.0" standalone="no"?>
<!DOCTYPE svg PUBLIC "-//W3C//DTD SVG 20010904//EN"
 "http://www.w3.org/TR/2001/REC-SVG-20010904/DTD/svg10.dtd">
<svg version="1.0" xmlns="http://www.w3.org/2000/svg"
 width="1024.000000pt" height="1024.000000pt" viewBox="0 0 1024.000000 1024.000000"
 preserveAspectRatio="xMidYMid meet">
<metadata>
Created by potrace 1.10, written by Peter Selinger 2001-2011
</metadata>
<g transform="translate(0.000000,1024.000000) scale(0.100000,-0.100000)"
fill="#000000" stroke="none">
<path d="M949 9436 c-34 -14 -89 -62 -89 -76 0 -6 17 -37 39 -68 21 -31 44
-75 51 -97 7 -22 23 -59 36 -82 13 -23 24 -52 24 -66 0 -13 60 -195 134 -405
73 -209 162 -470 196 -579 34 -109 65 -201 68 -205 4 -3 187 -25 407 -47 220
-23 429 -49 464 -58 51 -13 69 -14 94 -5 27 10 34 9 54 -10 12 -12 26 -31 29
-42 20 -62 154 -203 581 -611 252 -241 476 -455 498 -477 l40 -38 -53 -46
c-56 -49 -61 -64 -38 -119 22 -52 51 -54 146 -9 l80 37 25 -23 24 -23 -22 -29
c-46 -62 -57 -84 -57 -119 0 -45 25 -69 78 -76 35 -5 46 -1 93 35 66 50 88 43
27 -8 -55 -48 -86 -110 -70 -144 13 -29 97 -65 117 -50 8 5 39 29 70 53 l56
44 147 -144 c81 -80 531 -520 1000 -978 468 -458 852 -835 852 -837 0 -3 -6
-15 -14 -27 -14 -21 -20 -47 -17 -74 0 -6 13 -25 27 -42 31 -37 78 -42 116
-11 24 19 26 19 42 1 21 -23 20 -24 -8 -69 -13 -20 -26 -49 -30 -63 -9 -39 25
-77 75 -85 29 -5 37 -10 30 -17 -16 -16 -13 -79 5 -105 21 -31 53 -28 142 13
l76 36 20 -21 c17 -17 19 -23 8 -38 -26 -37 -52 -92 -52 -110 0 -30 35 -54 85
-60 42 -4 50 -2 83 29 l37 34 -31 -35 c-57 -64 -64 -90 -38 -145 22 -48 50
-49 135 -4 85 45 112 39 61 -14 -35 -36 -40 -61 -17 -94 23 -33 64 -37 120
-13 l49 21 39 -39 38 -39 -11 -59 c-9 -51 -60 -811 -60 -902 0 -28 2 -32 17
-23 20 11 111 -19 125 -41 4 -7 5 -38 2 -68 -5 -46 -3 -59 15 -82 12 -15 36
-31 54 -37 29 -10 33 -15 30 -39 -6 -40 13 -81 47 -100 24 -13 30 -24 30 -50
0 -18 5 -42 10 -53 21 -39 102 -63 127 -38 9 9 24 4 61 -20 l50 -32 -16 -49
c-25 -80 8 -133 90 -146 37 -6 37 -6 65 50 15 31 30 56 33 56 4 0 17 -11 30
-25 l23 -24 -27 -59 c-30 -67 -33 -122 -10 -157 17 -26 96 -61 114 -50 6 4 25
31 42 62 l31 55 22 -28 c17 -22 21 -37 17 -70 -4 -35 0 -47 20 -67 13 -13 31
-26 39 -29 12 -4 12 -10 0 -39 -22 -57 -24 -87 -7 -114 24 -37 87 -35 126 3
l28 29 6 -27 c6 -31 56 -60 103 -60 44 0 66 -30 68 -93 4 -88 61 -187 107
-187 11 0 18 -7 18 -20 0 -56 42 -94 119 -106 36 -6 41 -4 55 24 9 17 28 37
43 44 39 18 91 126 103 208 4 36 13 139 20 230 6 91 14 173 17 183 3 13 32
-25 99 -133 117 -190 143 -222 194 -245 36 -16 45 -17 83 -4 23 7 49 13 58 14
14 0 300 293 307 316 5 14 -171 219 -292 339 l-106 105 157 40 156 40 39 65
c38 63 40 72 23 127 -6 18 4 34 54 86 34 35 61 66 61 70 0 3 -19 20 -41 38
l-41 32 -73 -18 c-123 -30 -141 -6 -64 92 l52 67 -44 38 c-34 29 -50 37 -69
33 -21 -5 -23 -3 -10 7 27 22 50 61 50 85 0 25 -52 89 -79 98 -23 7 -84 -19
-144 -62 -31 -21 -55 -32 -65 -28 -13 5 -4 14 37 40 30 19 65 44 77 56 41 39
27 94 -35 138 -27 20 -32 20 -71 6 -23 -8 -59 -28 -80 -45 -22 -17 -41 -26
-45 -21 -3 6 12 22 34 37 79 52 88 98 28 154 -32 30 -79 40 -92 20 -10 -16
-82 -50 -90 -42 -3 4 -12 7 -17 7 -30 0 -12 28 57 89 41 37 75 73 75 80 0 6
-19 26 -42 45 -31 23 -51 31 -70 28 -32 -4 -33 -2 -13 33 21 37 19 45 -26 81
l-41 32 -96 -22 c-125 -27 -185 -27 -92 0 97 29 103 33 127 76 l23 40 -23 34
c-40 59 -59 60 -228 12 -13 -4 -16 1 -12 20 4 19 -4 35 -30 64 -35 37 -37 38
-104 38 -37 0 -75 4 -82 9 -8 5 -26 10 -40 12 -15 1 -258 -23 -541 -52 l-515
-53 -29 29 -29 29 41 91 c23 50 42 94 42 99 0 11 -86 71 -102 71 -7 -1 -35
-30 -61 -65 -32 -42 -53 -62 -63 -58 -21 8 -17 33 11 78 13 22 24 47 24 55 0
8 -19 29 -42 47 l-41 32 -47 -35 -47 -34 14 40 c16 47 7 80 -34 122 -32 34
-37 34 -85 1 l-38 -26 -27 26 c-26 26 -26 27 -9 62 20 43 17 53 -34 88 -38 27
-41 28 -64 13 -33 -22 -38 -20 -21 7 30 47 24 97 -18 141 -41 45 -72 46 -111
6 -22 -23 -32 -27 -42 -19 -20 17 -17 25 37 96 28 36 50 71 50 78 0 6 -19 27
-41 45 l-42 33 -36 -19 c-19 -10 -55 -34 -78 -51 l-43 -33 -1012 987 c-806
786 -1014 993 -1019 1018 -3 16 -11 40 -17 52 -16 29 -69 66 -86 60 -10 -4
-16 5 -20 28 -9 46 -79 107 -113 99 -17 -5 -31 0 -49 17 -30 28 -30 36 1 90
14 24 25 49 25 54 -1 6 -20 24 -43 42 -48 36 -75 36 -115 0 l-23 -21 -535 535
-535 535 -75 384 c-41 212 -89 429 -106 484 l-32 99 -72 47 c-40 26 -108 60
-151 75 -43 16 -82 32 -88 36 -5 4 -59 26 -120 49 -307 119 -874 378 -947 433
-65 49 -110 66 -139 53z m893 -604 c179 -77 359 -159 400 -181 l73 -40 64
-303 c35 -167 66 -308 68 -314 4 -11 -778 773 -923 925 -71 75 -76 82 -44 68
19 -8 182 -78 362 -155z m341 -869 c-16 -6 -596 66 -604 75 -4 5 -268 716
-314 847 -4 11 204 -191 461 -449 258 -258 464 -471 457 -473z m5387 -4782
l85 -7 -57 -19 c-33 -10 -59 -25 -61 -34 -2 -9 5 -33 15 -54 l19 -38 -25 -20
c-48 -38 -45 -144 6 -182 l26 -20 376 122 c207 66 383 121 391 121 8 0 19 -8
24 -19 9 -16 4 -21 -37 -36 -86 -33 -289 -123 -452 -201 -158 -76 -160 -78
-160 -109 0 -18 7 -38 15 -45 13 -11 12 -14 -5 -29 -25 -20 -137 -281 -194
-451 -24 -72 -45 -133 -48 -135 -3 -3 -12 3 -20 12 -14 16 -8 38 67 243 46
124 93 239 105 257 12 17 24 50 27 72 5 36 2 44 -30 76 -36 36 -67 44 -85 23
-5 -7 -21 -40 -35 -72 l-25 -60 -15 31 c-15 28 -15 34 3 82 22 57 26 131 9
164 -6 12 -25 36 -41 53 -29 31 -29 33 -14 62 24 46 20 57 -26 91 -58 43 -80
40 -119 -14 -18 -25 -34 -45 -37 -45 -8 0 9 74 24 102 8 15 28 35 45 44 30 15
30 16 13 35 -20 23 -29 23 236 0z m-340 -218 c0 -5 -5 -15 -10 -23 -8 -12 -10
-11 -10 8 0 12 5 22 10 22 6 0 10 -3 10 -7z m1290 -115 c0 -7 -91 -59 -203
-115 -111 -57 -254 -133 -317 -170 -105 -62 -115 -71 -118 -100 -5 -49 13 -73
53 -73 65 0 363 125 583 245 100 54 126 64 137 55 8 -7 15 -16 15 -21 0 -26
-256 -169 -395 -220 -49 -18 -98 -39 -107 -47 -21 -18 -68 -109 -68 -133 0
-29 49 -78 90 -89 l38 -10 274 173 c150 95 278 176 284 180 6 4 19 -2 28 -12
16 -18 14 -20 -51 -57 -137 -76 -372 -243 -513 -363 -23 -20 -46 -31 -68 -31
-46 0 -70 -15 -86 -54 -8 -18 -31 -142 -52 -275 -34 -219 -39 -240 -53 -226
-15 14 -11 43 42 303 32 158 58 296 58 306 -1 11 -13 33 -28 48 -34 36 -86 39
-107 6 -8 -13 -36 -129 -62 -258 -26 -129 -49 -237 -51 -239 -2 -3 -17 9 -34
26 l-31 30 67 184 c37 101 72 204 78 229 16 71 2 118 -48 167 l-44 41 16 50
c20 61 11 132 -21 169 l-24 27 47 17 c25 9 154 60 286 114 198 82 330 129 378
134 4 1 7 -5 7 -11z m-1331 -390 c-1 -22 -27 -84 -28 -67 -2 29 11 79 20 79 5
0 9 -6 8 -12z m1771 -132 c0 -9 -336 -234 -371 -250 -19 -8 -47 -18 -63 -21
-16 -3 -41 -19 -57 -35 -23 -23 -29 -37 -29 -72 1 -83 53 -143 94 -108 12 9
12 5 2 -25 -16 -45 -4 -129 21 -157 13 -15 28 -19 60 -16 l42 3 6 -80 c3 -44
2 -93 -2 -109 -8 -27 -9 -26 -26 27 -22 71 -88 147 -126 147 -27 0 -27 0 -20
53 13 91 13 93 -41 134 -44 33 -49 41 -44 66 5 24 0 34 -27 56 l-33 28 269
181 c227 152 276 181 308 181 20 1 37 -1 37 -3z m130 -180 c0 -2 -90 -61 -199
-130 -164 -104 -209 -128 -253 -135 -29 -5 -54 -8 -55 -7 -6 5 216 146 277
177 71 35 210 97 223 98 4 1 7 -1 7 -3z m133 -170 c2 -9 -229 -145 -247 -146
-5 0 42 36 105 80 106 74 137 88 142 66z m-503 -306 c0 -5 -4 -10 -9 -10 -5 0
-18 -3 -28 -6 -16 -6 -16 -5 2 9 23 19 35 21 35 7z m473 -394 l107 -125 -41
-65 c-23 -36 -43 -66 -46 -66 -21 0 -77 61 -168 181 l-106 140 63 29 c35 16
68 29 73 30 6 0 59 -56 118 -124z m-783 -72 c-18 -52 -35 -92 -39 -89 -5 2 8
64 28 137 32 119 36 129 39 90 2 -29 -7 -75 -28 -138z m189 -168 c-9 -8 -10
-5 -5 14 3 14 6 32 7 40 1 8 4 2 6 -14 3 -16 -1 -34 -8 -40z"/>
</g>
</svg>
