<?xml version="1.0" standalone="no"?>
<!DOCTYPE svg PUBLIC "-//W3C//DTD SVG 20010904//EN"
 "http://www.w3.org/TR/2001/REC-SVG-20010904/DTD/svg10.dtd">
<svg version="1.0" xmlns="http://www.w3.org/2000/svg"
 width="1024.000000pt" height="1024.000000pt" viewBox="0 0 1024.000000 1024.000000"
 preserveAspectRatio="xMidYMid meet">
<metadata>
Created by potrace 1.10, written by Peter Selinger 2001-2011
</metadata>
<g transform="translate(0.000000,1024.000000) scale(0.100000,-0.100000)"
fill="#000000" stroke="none">
<path d="M4983 7864 c-24 -10 -173 -223 -234 -334 -34 -63 -192 -376 -351
-695 -242 -489 -555 -1096 -657 -1277 -93 -165 -121 -217 -137 -250 -10 -21
-22 -38 -26 -38 -5 0 -156 121 -336 268 -180 148 -579 475 -887 727 -308 252
-707 579 -886 726 -180 148 -338 271 -351 274 -59 15 -94 -60 -113 -240 -9
-88 93 -4854 105 -4891 6 -17 26 -45 45 -64 29 -28 48 -35 132 -52 92 -18 132
-19 653 -13 305 3 2078 19 3939 36 l3385 29 49 32 c27 17 54 41 62 52 10 17
15 481 25 2466 6 1345 15 2495 20 2555 12 155 12 155 -129 155 l-109 0 -88
-47 c-80 -42 -636 -457 -2055 -1532 -129 -98 -244 -184 -255 -191 -18 -11 -25
-7 -67 36 -40 42 -976 1396 -1268 1834 -112 167 -210 284 -317 375 -74 64
-106 76 -149 59z m208 -464 c72 -107 209 -310 304 -450 95 -140 362 -536 594
-880 233 -344 437 -641 455 -660 18 -19 43 -56 55 -81 26 -56 67 -79 112 -62
15 6 346 247 736 535 389 289 744 544 788 568 58 32 816 573 942 672 10 8 11
-421 7 -1989 -2 -1099 -7 -2174 -10 -2389 l-6 -390 -3909 -2 -3908 -3 0 188
c0 175 -10 500 -91 2908 -36 1056 -46 1498 -34 1543 l9 32 1195 -1019 c657
-561 1197 -1015 1199 -1008 2 7 30 49 62 94 33 44 59 86 59 91 0 6 75 156 166
334 284 553 372 724 699 1363 312 611 420 809 436 803 4 -2 67 -91 140 -198z"/>
<path d="M6572 3880 c0 -8 6 -31 13 -50 7 -19 13 -28 13 -20 0 8 -6 31 -13 50
-7 19 -13 28 -13 20z"/>
</g>
</svg>
