<?xml version="1.0" standalone="no"?>
<!DOCTYPE svg PUBLIC "-//W3C//DTD SVG 20010904//EN"
 "http://www.w3.org/TR/2001/REC-SVG-20010904/DTD/svg10.dtd">
<svg version="1.0" xmlns="http://www.w3.org/2000/svg"
 width="1024.000000pt" height="1024.000000pt" viewBox="0 0 1024.000000 1024.000000"
 preserveAspectRatio="xMidYMid meet">
<metadata>
Created by potrace 1.10, written by Peter Selinger 2001-2011
</metadata>
<g transform="translate(0.000000,1024.000000) scale(0.100000,-0.100000)"
fill="#000000" stroke="none">
<path d="M5819 8836 c-3 -3 -45 -10 -94 -16 -89 -11 -167 -39 -212 -77 -33
-28 -129 -175 -179 -275 -25 -50 -61 -138 -81 -197 -39 -116 -153 -353 -214
-442 -20 -31 -68 -127 -105 -215 -66 -158 -263 -561 -310 -636 -14 -22 -175
-406 -358 -855 l-333 -815 -85 153 c-46 85 -102 195 -123 244 -22 50 -60 117
-84 150 -70 92 -195 209 -300 280 l-96 64 -120 16 c-160 20 -188 19 -291 -11
-119 -34 -195 -76 -276 -153 -73 -68 -123 -142 -157 -231 -12 -30 -72 -246
-132 -480 -95 -365 -120 -447 -177 -580 -36 -85 -109 -267 -164 -405 -66 -167
-113 -272 -143 -315 -46 -69 -111 -201 -176 -360 -22 -52 -50 -106 -63 -120
-14 -14 -270 -385 -570 -824 -482 -705 -546 -803 -546 -837 0 -32 5 -40 36
-58 19 -12 41 -21 47 -21 30 0 240 251 486 579 205 276 315 435 488 709 123
194 233 362 244 373 11 11 28 37 38 57 9 21 28 55 42 77 14 22 30 51 34 65 4
14 73 158 152 320 142 289 148 306 342 855 127 361 202 587 209 635 20 124 72
278 117 351 52 80 75 91 297 144 l157 37 70 -46 c142 -91 282 -249 358 -401
17 -33 68 -148 114 -255 46 -107 98 -221 116 -253 l33 -58 -500 -1135 c-275
-624 -500 -1147 -500 -1161 0 -14 -13 -41 -30 -60 -21 -24 -30 -44 -30 -69 0
-31 4 -37 43 -54 23 -11 47 -20 52 -20 6 0 53 74 105 164 68 117 231 455 575
1189 264 565 485 1027 490 1027 12 0 65 127 65 154 0 29 997 2309 1046 2392
106 180 240 476 313 692 23 67 55 141 71 163 16 22 34 66 41 97 16 77 71 157
118 174 41 15 237 17 343 4 l68 -8 59 -186 c36 -114 67 -238 81 -317 11 -71
30 -155 40 -185 11 -30 35 -174 55 -320 20 -146 47 -310 61 -365 53 -207 155
-436 227 -509 70 -69 125 -90 244 -94 l103 -4 52 -57 c29 -31 65 -82 81 -112
28 -56 198 -662 211 -754 4 -27 16 -63 26 -80 9 -16 39 -102 65 -190 29 -99
86 -252 150 -400 56 -132 110 -265 120 -295 10 -30 28 -67 41 -83 12 -15 26
-47 30 -72 3 -25 10 -48 15 -51 5 -3 21 -30 35 -61 22 -46 24 -57 13 -68 -343
-321 -1957 -1808 -2008 -1850 -143 -117 -178 -156 -192 -220 -12 -56 -12 -58
10 -76 13 -11 29 -19 36 -19 12 0 170 115 300 219 151 120 411 348 581 509
225 212 1391 1252 1404 1252 6 0 10 4 10 9 0 23 103 120 148 139 27 12 154 89
283 172 l233 150 89 0 88 0 74 -50 c62 -42 81 -62 115 -119 22 -38 53 -102 69
-143 28 -70 202 -760 222 -883 6 -33 17 -67 25 -76 8 -9 25 -56 39 -105 45
-171 117 -344 205 -494 77 -133 110 -151 197 -109 49 24 78 68 70 108 -3 15
-26 62 -52 105 -136 230 -265 549 -265 654 0 161 -170 771 -275 987 -90 187
-226 299 -417 345 -137 33 -175 29 -318 -36 -101 -45 -155 -78 -292 -180 -93
-68 -172 -124 -176 -124 -5 0 -23 37 -42 83 -18 45 -51 111 -73 146 -21 35
-41 80 -44 100 -6 38 -27 86 -48 111 -7 8 -129 373 -270 810 -141 437 -266
812 -277 834 -29 56 -109 138 -166 169 -67 37 -153 57 -239 57 -61 0 -75 3
-80 18 -4 9 -17 30 -29 45 -13 15 -26 44 -30 65 -3 20 -19 58 -34 83 -21 34
-31 69 -38 130 -6 46 -65 354 -132 684 l-120 600 -53 108 c-76 159 -161 230
-316 263 -63 13 -173 19 -182 10z"/>
<path d="M5792 7339 c-24 -12 -50 -31 -57 -43 -34 -51 -88 -327 -104 -522 -11
-146 -81 -429 -175 -717 -99 -299 -110 -355 -103 -521 3 -72 8 -141 12 -153
l7 -22 39 19 c32 17 41 28 54 73 155 517 149 493 281 1201 69 373 123 684 120
692 -7 19 -24 18 -74 -7z"/>
<path d="M6363 6180 c-40 -24 -41 -34 -13 -192 20 -119 52 -227 102 -343 16
-38 51 -135 77 -215 66 -198 95 -259 267 -546 164 -273 217 -340 294 -373 69
-30 134 -26 138 7 6 38 -24 99 -112 232 -196 297 -348 585 -478 904 -26 66
-48 130 -48 144 0 41 -50 223 -75 271 -18 37 -103 131 -117 131 -2 0 -18 -9
-35 -20z"/>
<path d="M4855 5813 c-38 -10 -44 -23 -43 -96 0 -153 -66 -371 -178 -585 -83
-158 -129 -284 -140 -379 -6 -60 -6 -61 23 -76 28 -15 30 -14 97 40 58 47 73
67 103 132 127 276 246 654 247 783 0 54 -5 77 -30 124 -29 58 -41 66 -79 57z"/>
<path d="M3035 5409 c-41 -36 -46 -76 -15 -104 29 -27 26 -78 -21 -333 -40
-215 -41 -223 -24 -242 10 -11 24 -20 31 -20 34 0 136 185 171 310 23 85 26
338 4 364 -15 18 -83 56 -100 56 -6 0 -26 -14 -46 -31z"/>
<path d="M5489 4427 c-26 -20 -29 -58 -10 -127 16 -56 21 -65 43 -68 30 -4 63
32 77 85 12 43 2 73 -35 102 -30 24 -52 26 -75 8z"/>
<path d="M4334 4028 c-31 -62 -60 -124 -64 -138 -6 -21 -414 -697 -792 -1315
-61 -100 -143 -258 -195 -380 -39 -89 -52 -185 -28 -205 10 -9 15 -6 20 10 4
12 69 92 145 177 l139 156 409 726 c226 399 419 744 430 766 29 59 43 120 44
190 0 88 -9 125 -33 125 -14 0 -33 -28 -75 -112z"/>
<path d="M2690 3833 c-17 -21 -47 -72 -66 -113 -20 -41 -46 -95 -60 -120 -13
-25 -132 -248 -264 -496 -236 -442 -241 -453 -238 -504 l3 -52 103 128 c215
268 393 562 508 841 20 48 45 103 55 122 10 20 19 43 19 52 0 9 9 24 20 34 23
21 25 47 8 96 -20 61 -44 64 -88 12z"/>
<path d="M7840 3543 c-165 -159 -271 -281 -383 -438 -217 -306 -276 -380 -324
-410 -106 -65 -194 -169 -208 -246 -6 -33 -4 -37 22 -48 23 -9 38 -8 79 6 96
33 209 156 571 625 394 508 443 578 441 624 -2 64 -34 46 -198 -113z"/>
<path d="M8411 3631 l-25 -19 46 -173 c58 -217 68 -283 68 -455 0 -189 -36
-628 -56 -679 -17 -44 -39 -283 -38 -406 2 -99 32 -191 90 -269 24 -33 46 -60
48 -60 2 0 22 24 44 53 l40 53 11 360 c6 197 16 489 22 647 14 390 9 431 -96
763 -53 166 -55 170 -90 187 -43 20 -35 21 -64 -2z"/>
<path d="M5377 3584 c-32 -17 -31 -12 -61 -252 -23 -182 -23 -196 -8 -223 10
-16 20 -29 24 -29 12 0 78 97 102 151 46 100 55 222 25 315 -13 41 -46 56 -82
38z"/>
<path d="M9004 3122 c-7 -4 -17 -26 -24 -50 -11 -44 -11 -44 32 -90 24 -26 61
-81 81 -123 51 -102 151 -226 242 -299 42 -33 80 -60 85 -60 15 0 50 52 50 75
0 12 -19 51 -42 86 -23 35 -60 101 -84 147 -51 100 -128 197 -203 255 -83 65
-110 77 -137 59z"/>
<path d="M6674 2190 c-24 -9 -46 -40 -63 -90 -11 -33 -10 -37 14 -57 39 -34
77 -30 115 13 26 30 30 41 24 68 -3 17 -7 31 -8 32 0 0 -14 10 -31 21 -21 14
-36 18 -51 13z"/>
<path d="M6322 1792 c-20 -16 -23 -24 -17 -55 6 -30 12 -37 38 -43 23 -5 34
-2 44 12 16 23 8 73 -16 91 -21 16 -22 16 -49 -5z"/>
<path d="M3074 1762 c-12 -1 -26 -13 -31 -25 -60 -131 -64 -159 -20 -171 47
-13 88 -6 112 18 26 26 49 97 41 124 -8 23 -75 59 -102 54z"/>
</g>
</svg>
