<?xml version="1.0" standalone="no"?>
<!DOCTYPE svg PUBLIC "-//W3C//DTD SVG 20010904//EN"
 "http://www.w3.org/TR/2001/REC-SVG-20010904/DTD/svg10.dtd">
<svg version="1.0" xmlns="http://www.w3.org/2000/svg"
 width="1024.000000pt" height="1024.000000pt" viewBox="0 0 1024.000000 1024.000000"
 preserveAspectRatio="xMidYMid meet">
<metadata>
Created by potrace 1.10, written by Peter Selinger 2001-2011
</metadata>
<g transform="translate(0.000000,1024.000000) scale(0.100000,-0.100000)"
fill="#000000" stroke="none">
<path d="M5268 8282 c-48 -31 -88 -60 -88 -63 0 -3 29 -27 65 -55 36 -27 82
-72 101 -100 62 -90 67 -117 72 -434 l4 -285 -829 -78 -828 -77 -240 29 c-131
17 -241 28 -244 25 -2 -2 8 -45 24 -95 21 -66 40 -103 67 -134 42 -47 113 -96
171 -116 l37 -13 0 -161 c0 -88 -7 -509 -15 -935 -8 -426 -15 -811 -15 -855
l0 -81 -327 -224 c-552 -379 -614 -421 -672 -450 -95 -47 -88 -48 -238 32 -76
40 -140 74 -144 76 -11 5 -29 -49 -29 -87 0 -45 25 -132 48 -170 9 -15 75 -93
145 -172 l128 -145 86 -24 86 -24 16 24 c20 31 874 970 878 966 8 -7 -61 -605
-83 -726 -49 -269 -159 -649 -270 -939 -92 -238 -281 -576 -495 -884 -60 -87
-109 -162 -109 -167 0 -22 41 -7 97 34 71 54 358 369 468 515 192 253 370 590
490 926 246 691 345 1552 345 3007 l0 407 33 6 c17 3 393 57 834 120 l802 114
1268 86 c697 47 1292 91 1322 97 64 12 111 52 111 93 0 18 -22 54 -67 110
l-68 84 -124 42 c-120 40 -126 41 -215 35 -50 -4 -522 -56 -1048 -117 -527
-60 -963 -109 -969 -109 -9 0 -10 73 -5 293 3 160 9 317 12 348 6 56 6 57 -35
97 -54 52 -148 101 -315 162 -75 27 -139 50 -143 50 -5 0 -47 -26 -95 -58z"/>
<path d="M2399 6255 c-15 -16 -10 -25 71 -126 180 -224 320 -440 440 -675 120
-233 160 -284 227 -284 88 0 134 65 141 202 9 173 -47 321 -171 454 -93 100
-179 168 -350 277 -229 146 -324 186 -358 152z"/>
</g>
</svg>
