<?xml version="1.0" standalone="no"?>
<!DOCTYPE svg PUBLIC "-//W3C//DTD SVG 20010904//EN"
 "http://www.w3.org/TR/2001/REC-SVG-20010904/DTD/svg10.dtd">
<svg version="1.0" xmlns="http://www.w3.org/2000/svg"
 width="1024.000000pt" height="1024.000000pt" viewBox="0 0 1024.000000 1024.000000"
 preserveAspectRatio="xMidYMid meet">
<metadata>
Created by potrace 1.10, written by Peter Selinger 2001-2011
</metadata>
<g transform="translate(0.000000,1024.000000) scale(0.100000,-0.100000)"
fill="#000000" stroke="none">
<path d="M5333 6838 c-200 -172 -447 -429 -637 -661 -57 -71 -333 -428 -612
-793 -279 -365 -511 -663 -516 -662 -7 3 -371 328 -1134 1015 -464 416 -475
426 -580 480 -73 38 -81 40 -109 29 -53 -23 -85 -70 -85 -127 0 -61 24 -123
60 -152 26 -21 36 -67 269 -1152 172 -807 242 -1149 242 -1195 l0 -65 78 -82
77 -83 170 15 c780 68 1400 99 2304 117 664 13 996 8 2365 -32 391 -11 757
-19 815 -18 l104 3 13 45 c42 146 46 197 53 845 6 460 12 666 23 765 9 74 48
416 87 760 39 344 73 637 76 652 8 40 -13 104 -43 127 -38 30 -101 28 -159 -6
-35 -22 -85 -78 -217 -248 -474 -610 -1151 -1483 -1226 -1582 -47 -61 -88
-112 -91 -112 -11 -2 -361 630 -395 712 -114 278 -337 735 -488 997 -102 180
-136 229 -206 304 -54 57 -164 146 -181 146 -5 0 -30 -19 -57 -42z m192 -465
c135 -202 148 -225 467 -878 364 -742 395 -801 507 -965 72 -108 80 -116 119
-124 l42 -9 115 107 c104 98 129 129 288 359 96 139 220 320 276 404 121 182
260 367 388 521 92 110 313 351 367 401 l26 24 0 -69 c0 -38 -9 -132 -20 -209
-88 -632 -97 -745 -110 -1330 -6 -258 -13 -566 -17 -684 l-5 -214 -507 7
c-278 3 -648 10 -821 15 -422 13 -1605 13 -2015 1 -910 -27 -1327 -50 -1877
-106 -152 -16 -279 -26 -281 -24 -6 7 -448 2182 -444 2186 1 2 306 -274 677
-613 371 -339 697 -633 723 -654 87 -69 146 -65 272 19 l86 57 569 747 c535
700 584 762 798 992 125 135 230 246 233 246 3 0 68 -93 144 -207z"/>
</g>
</svg>
