<?xml version="1.0" standalone="no"?>
<!DOCTYPE svg PUBLIC "-//W3C//DTD SVG 20010904//EN"
 "http://www.w3.org/TR/2001/REC-SVG-20010904/DTD/svg10.dtd">
<svg version="1.0" xmlns="http://www.w3.org/2000/svg"
 width="1024.000000pt" height="1024.000000pt" viewBox="0 0 1024.000000 1024.000000"
 preserveAspectRatio="xMidYMid meet">
<metadata>
Created by potrace 1.10, written by Peter Selinger 2001-2011
</metadata>
<g transform="translate(0.000000,1024.000000) scale(0.100000,-0.100000)"
fill="#000000" stroke="none">
<path d="M6819 8373 l-40 -38 -26 -3682 c-17 -2312 -23 -3700 -17 -3730 l9
-48 111 -3 112 -3 7 73 c4 39 4 575 0 1190 l-8 1118 39 0 c22 0 316 31 654 69
338 38 615 68 616 68 0 -1 -4 -159 -9 -350 -5 -192 -6 -364 -2 -383 3 -19 19
-49 34 -66 23 -26 37 -32 82 -36 43 -3 58 0 69 13 11 13 20 168 42 743 16 400
31 748 34 773 10 85 -30 170 -96 204 -33 17 -82 11 -103 -14 -8 -9 -25 -77
-37 -151 -19 -115 -22 -161 -18 -310 l5 -176 -596 -63 c-413 -43 -614 -68
-655 -82 l-59 -19 6 788 c4 433 10 1031 14 1330 6 518 7 542 25 542 12 0 18 7
18 21 0 20 4 21 53 16 28 -4 286 -16 572 -28 286 -12 521 -23 523 -24 8 -7 28
-773 21 -798 -12 -42 5 -72 55 -102 59 -35 110 -32 140 8 20 27 21 45 28 330
4 166 7 417 8 557 1 140 6 407 11 593 10 367 9 384 -40 458 -42 61 -90 93
-124 80 -35 -14 -42 -31 -61 -141 -30 -183 -39 -307 -38 -539 l1 -233 -132 6
c-318 15 -982 37 -1004 33 -12 -2 -23 0 -23 5 0 6 -7 8 -15 4 -23 -9 -22 1425
1 1617 18 150 15 246 -11 297 -23 47 -95 120 -117 120 -11 0 -37 -17 -59 -37z"/>
<path d="M2446 8190 c-37 -93 -16 -175 88 -335 40 -60 105 -161 146 -224 40
-63 232 -335 427 -604 194 -269 353 -492 352 -496 0 -3 -23 -25 -52 -47 -29
-23 -369 -301 -757 -618 -723 -592 -786 -638 -933 -691 -138 -50 -202 -112
-221 -217 -5 -30 -2 -41 18 -65 23 -27 28 -28 108 -28 74 0 91 4 148 32 110
55 1310 942 1477 1091 99 89 248 239 299 301 26 31 29 32 41 15 7 -10 20 -44
29 -76 9 -32 20 -58 25 -58 16 0 71 -64 94 -109 12 -25 32 -64 44 -87 42 -80
53 -172 48 -379 -5 -154 -10 -210 -30 -295 -28 -118 -75 -250 -115 -326 -15
-27 -78 -151 -141 -275 -62 -123 -128 -249 -146 -279 -18 -30 -47 -104 -65
-165 -17 -60 -49 -148 -69 -195 -21 -47 -61 -155 -89 -240 -281 -857 -271
-818 -462 -1885 -75 -417 -119 -640 -135 -680 -21 -52 -55 -236 -55 -295 0
-19 6 -19 113 -13 61 3 115 8 119 12 6 6 122 597 283 1446 l76 400 199 650
198 650 187 400 c102 220 197 419 211 442 13 23 24 50 24 61 0 11 18 65 41
121 22 56 52 145 66 199 24 88 27 114 27 287 0 182 -1 196 -36 350 -43 189
-65 252 -117 331 -41 62 -65 89 -122 139 -19 17 -156 211 -304 430 -147 220
-382 570 -522 777 -139 207 -253 381 -253 386 0 6 -24 24 -53 40 -30 17 -82
60 -117 96 -35 36 -66 66 -70 66 -5 0 -15 -18 -24 -40z"/>
<path d="M3392 4681 c-6 -17 -7 -31 -3 -31 8 0 22 52 16 58 -1 2 -7 -11 -13
-27z"/>
<path d="M6216 3665 c10 -41 23 -75 28 -75 6 0 -20 90 -29 98 -4 4 -3 -7 1
-23z"/>
</g>
</svg>
