<?xml version="1.0" standalone="no"?>
<!DOCTYPE svg PUBLIC "-//W3C//DTD SVG 20010904//EN"
 "http://www.w3.org/TR/2001/REC-SVG-20010904/DTD/svg10.dtd">
<svg version="1.0" xmlns="http://www.w3.org/2000/svg"
 width="1024.000000pt" height="1024.000000pt" viewBox="0 0 1024.000000 1024.000000"
 preserveAspectRatio="xMidYMid meet">
<metadata>
Created by potrace 1.10, written by Peter Selinger 2001-2011
</metadata>
<g transform="translate(0.000000,1024.000000) scale(0.100000,-0.100000)"
fill="#000000" stroke="none">
<path d="M4646 8375 c-169 -103 -380 -309 -507 -496 -42 -62 -42 -64 -91 -328
-77 -427 -175 -793 -299 -1122 -34 -90 -176 -476 -314 -858 l-252 -694 -44 39
c-24 22 -69 58 -100 81 -65 48 -116 114 -152 195 -35 78 -100 157 -157 190
-116 66 -333 138 -418 138 -75 0 -208 -74 -322 -180 -36 -33 -115 -94 -175
-135 -271 -184 -344 -254 -856 -825 -301 -335 -454 -498 -495 -527 -32 -23
-83 -66 -112 -95 -65 -67 -77 -110 -41 -152 34 -39 89 -44 167 -16 60 22 67
29 286 274 123 138 250 285 282 326 246 320 530 579 891 812 39 26 110 82 156
125 89 82 183 137 255 149 33 5 46 2 74 -19 18 -14 60 -30 93 -37 33 -7 68
-16 77 -21 9 -5 73 -78 141 -162 68 -83 160 -190 204 -237 43 -47 94 -109 112
-139 37 -61 37 -56 -26 -185 -19 -37 -82 -197 -140 -355 -81 -219 -123 -318
-180 -421 -40 -74 -72 -144 -71 -155 5 -30 74 -65 132 -65 45 0 53 4 90 43 36
37 64 98 226 490 l184 447 32 0 c24 0 40 9 68 40 56 62 59 108 12 180 l-22 35
339 925 c478 1301 501 1374 562 1721 48 279 84 385 178 524 54 79 168 191 248
243 67 44 99 53 99 27 0 -52 132 -218 230 -290 48 -35 49 -37 71 -133 59 -263
157 -538 276 -777 60 -119 72 -137 151 -213 139 -134 263 -178 483 -170 l119
4 67 -75 c50 -55 101 -133 195 -299 l128 -224 189 -681 c181 -651 191 -690
211 -857 23 -190 85 -517 124 -651 l25 -84 -42 -45 c-23 -25 -146 -151 -273
-280 -208 -211 -233 -240 -247 -285 -18 -64 -12 -110 21 -135 34 -27 49 -26
132 17 l73 37 594 698 595 698 62 0 c62 0 63 0 84 -37 11 -21 42 -58 67 -83
26 -25 60 -72 77 -105 37 -71 132 -169 208 -212 30 -18 70 -47 87 -65 18 -19
118 -176 222 -350 169 -284 190 -324 201 -385 17 -92 36 -133 120 -260 160
-239 283 -386 535 -641 l190 -192 45 0 c63 0 108 38 112 96 3 40 3 41 -353
430 -276 302 -358 398 -364 425 -4 19 -14 41 -22 50 -8 9 -28 67 -44 128 -32
117 -137 360 -210 484 -92 157 -169 256 -407 519 -88 98 -182 210 -209 250
-57 85 -142 157 -222 189 -31 13 -60 29 -64 36 -15 24 -65 43 -114 43 -44 0
-50 -3 -106 -61 -38 -38 -69 -84 -89 -126 -23 -51 -63 -103 -180 -232 -82 -91
-184 -214 -226 -273 -60 -83 -79 -103 -84 -90 -4 9 -69 330 -144 712 l-136
695 -128 382 c-123 365 -134 391 -227 565 -54 101 -112 209 -128 241 -47 93
-143 190 -228 232 -97 47 -166 59 -309 50 l-117 -7 -61 33 c-79 42 -160 130
-204 222 -44 91 -203 606 -217 701 -16 113 -37 165 -88 219 -25 27 -58 55 -72
63 -29 14 -59 59 -107 159 -57 118 -151 183 -276 192 -68 5 -74 3 -130 -32z"/>
<path d="M4699 6143 c-15 -2 -34 -12 -42 -21 -18 -19 -317 -1052 -317 -1092 0
-36 35 -79 77 -97 34 -14 36 -13 84 24 27 20 51 44 54 53 142 483 248 835 260
870 22 60 22 138 0 180 -16 32 -74 92 -85 89 -3 -1 -17 -4 -31 -6z"/>
<path d="M3916 5426 c-24 -10 -43 -42 -130 -231 -56 -121 -115 -239 -130 -262
-52 -78 -41 -188 21 -216 55 -25 194 90 252 205 17 35 52 117 78 183 57 146
61 202 22 261 -37 55 -76 76 -113 60z"/>
<path d="M5568 5339 c-41 -23 -76 -94 -87 -174 -18 -127 -24 -361 -13 -485 12
-130 136 -744 156 -775 8 -11 34 -41 58 -67 37 -40 50 -48 81 -48 57 0 67 23
67 160 0 110 -3 125 -66 360 l-66 245 -5 165 c-4 142 -2 179 16 267 38 181 23
267 -57 333 -39 32 -56 36 -84 19z"/>
<path d="M1975 4452 c-57 -43 -109 -123 -123 -187 -6 -29 -48 -102 -118 -209
-177 -269 -177 -269 -123 -331 53 -60 78 -52 185 58 132 134 212 245 301 419
63 123 51 213 -35 270 -15 10 -29 18 -32 18 -3 0 -27 -17 -55 -38z"/>
<path d="M3310 3818 c-14 -5 -80 -75 -147 -156 -271 -326 -544 -620 -843 -906
-85 -81 -159 -157 -163 -169 -12 -31 11 -103 43 -137 61 -66 93 -45 409 266
284 280 469 475 665 704 125 145 166 213 166 270 0 71 -78 148 -130 128z"/>
<path d="M4200 3793 c-26 -9 -101 -87 -119 -123 -10 -19 -21 -50 -24 -68 -9
-47 11 -128 40 -162 37 -44 70 -40 132 16 127 114 145 253 42 321 -35 23 -44
26 -71 16z"/>
<path d="M7829 3733 c-36 -9 -46 -53 -53 -223 -8 -210 13 -557 54 -870 14
-103 58 -245 87 -276 19 -21 29 -24 56 -19 47 11 105 42 117 64 16 31 12 83
-12 126 -18 33 -24 75 -39 245 -10 113 -23 250 -29 305 -10 78 -10 134 0 255
12 141 11 161 -4 215 -19 64 -50 113 -100 157 -30 26 -44 30 -77 21z"/>
<path d="M1330 3329 c-119 -70 -305 -225 -347 -288 -48 -71 -19 -173 53 -184
46 -8 29 -19 274 180 194 157 240 206 240 249 0 27 -42 79 -79 98 -25 13 -32
10 -141 -55z"/>
<path d="M8468 2969 c-24 -13 -68 -91 -68 -118 0 -12 17 -40 38 -64 21 -23 65
-89 96 -147 149 -269 411 -615 515 -682 56 -35 107 -37 147 -6 72 56 70 73
-15 164 -173 182 -354 453 -406 609 -9 28 -25 64 -36 81 -30 50 -124 133 -174
154 -52 22 -72 24 -97 9z"/>
<path d="M3952 2885 c-60 -26 -152 -204 -152 -296 0 -56 31 -89 85 -89 35 0
54 8 102 44 60 44 94 98 109 175 8 40 -12 95 -48 131 -44 45 -59 50 -96 35z"/>
</g>
</svg>
