<?xml version="1.0" standalone="no"?>
<!DOCTYPE svg PUBLIC "-//W3C//DTD SVG 20010904//EN"
 "http://www.w3.org/TR/2001/REC-SVG-20010904/DTD/svg10.dtd">
<svg version="1.0" xmlns="http://www.w3.org/2000/svg"
 width="1024.000000pt" height="1024.000000pt" viewBox="0 0 1024.000000 1024.000000"
 preserveAspectRatio="xMidYMid meet">
<metadata>
Created by potrace 1.10, written by Peter Selinger 2001-2011
</metadata>
<g transform="translate(0.000000,1024.000000) scale(0.100000,-0.100000)"
fill="#000000" stroke="none">
<path d="M4673 8765 c-62 -30 -113 -58 -113 -63 0 -11 53 -59 116 -106 142
-105 224 -268 267 -530 l21 -131 3 -2527 4 -2528 -32 0 c-18 0 -584 -61 -1259
-135 -675 -74 -1243 -135 -1263 -135 l-37 0 0 49 c0 105 186 1753 231 2045 17
109 28 208 25 221 -9 35 -80 109 -179 185 -51 38 -123 95 -162 125 -96 76
-176 115 -235 115 -27 0 -52 -6 -58 -13 -16 -19 14 -110 83 -247 l58 -115 -6
-220 c-7 -220 -19 -398 -58 -810 -40 -433 -140 -1260 -174 -1446 -21 -113 -23
-141 -14 -170 15 -41 69 -126 101 -157 41 -37 182 -132 198 -132 20 0 189 64
249 94 103 52 226 85 431 115 1000 150 2334 296 3515 386 572 43 1582 102
1592 92 7 -8 -26 -229 -47 -307 -25 -96 -25 -163 1 -220 25 -56 53 -86 103
-112 73 -38 191 -4 269 76 97 101 124 220 171 771 98 1137 129 1430 192 1860
35 242 76 500 89 574 24 128 24 135 8 154 -58 64 -211 140 -443 220 l-185 64
-97 -40 c-78 -31 -96 -42 -91 -55 4 -10 36 -49 73 -88 73 -78 123 -165 140
-249 22 -105 -4 -642 -72 -1500 l-62 -791 -1276 -77 c-701 -43 -1285 -78
-1297 -78 l-23 1 0 2479 c0 1650 4 2531 11 2633 5 84 21 204 35 266 13 63 24
127 24 143 0 81 -88 158 -245 214 -27 10 -99 37 -160 60 -131 51 -269 95 -293
94 -9 0 -68 -25 -129 -54z"/>
</g>
</svg>
