<?xml version="1.0" standalone="no"?>
<!DOCTYPE svg PUBLIC "-//W3C//DTD SVG 20010904//EN"
 "http://www.w3.org/TR/2001/REC-SVG-20010904/DTD/svg10.dtd">
<svg version="1.0" xmlns="http://www.w3.org/2000/svg"
 width="1024.000000pt" height="1024.000000pt" viewBox="0 0 1024.000000 1024.000000"
 preserveAspectRatio="xMidYMid meet">
<metadata>
Created by potrace 1.10, written by Peter Selinger 2001-2011
</metadata>
<g transform="translate(0.000000,1024.000000) scale(0.100000,-0.100000)"
fill="#000000" stroke="none">
<path d="M2577 7020 c-98 -65 -177 -153 -221 -242 -48 -99 -66 -173 -73 -299
-5 -97 -3 -118 28 -242 l33 -136 -32 -40 c-24 -30 -55 -106 -123 -303 -72
-211 -121 -382 -244 -865 -106 -412 -153 -612 -149 -632 5 -24 13 -30 43 -36
20 -4 204 -7 410 -6 l373 2 -6 -93 c-10 -141 -9 -193 12 -588 11 -201 19 -366
18 -368 -2 -1 -31 2 -65 6 -50 7 -64 6 -68 -5 -7 -18 1 -210 9 -219 13 -12
380 -32 701 -38 354 -7 370 -4 407 56 12 20 20 51 20 79 0 73 -19 84 -175 98
-71 7 -131 13 -132 14 -1 1 3 52 9 112 13 133 16 700 5 843 l-8 102 220 0 220
0 21 -47 c11 -25 37 -68 57 -95 37 -48 51 -60 269 -225 l121 -92 269 -66 269
-66 470 -43 470 -43 435 33 c239 18 486 38 548 44 63 6 115 10 118 8 2 -2 -1
-64 -6 -136 -6 -90 -6 -141 1 -160 6 -15 15 -52 20 -82 6 -30 12 -62 15 -71 3
-13 -5 -15 -53 -11 -81 5 -130 -14 -170 -66 -45 -59 -43 -92 5 -141 l37 -39
626 -6 c589 -5 628 -4 659 13 40 21 70 73 70 122 0 57 -19 67 -148 75 l-114 7
7 88 c7 85 6 89 -20 123 -27 36 -27 37 -20 149 5 93 4 120 -9 151 -22 53 -21
56 22 56 76 0 256 63 304 107 15 14 19 13 42 -4 25 -20 25 -20 273 16 164 24
258 42 274 53 l26 16 7 221 c4 136 3 228 -3 239 -8 15 13 48 110 175 97 128
130 180 176 280 142 311 229 702 203 923 -19 167 -57 274 -147 415 -32 49 -75
116 -95 148 -50 77 -165 191 -252 249 -56 38 -94 54 -176 75 -104 27 -113 27
-925 57 -839 31 -1694 79 -2670 150 -450 33 -576 39 -693 34 -139 -7 -144 -6
-174 16 -38 28 -31 36 -123 -138 l-68 -129 -24 46 c-41 77 -118 147 -213 194
-47 23 -109 63 -138 89 -71 63 -142 86 -222 69 -278 -57 -349 -63 -350 -28 0
4 -14 7 -30 7 -17 0 -71 20 -120 45 -49 25 -92 45 -94 45 -2 0 -38 -23 -79
-50z m786 -304 c40 -24 96 -55 126 -70 64 -33 95 -64 128 -131 40 -80 92 -125
144 -125 16 0 19 -4 14 -17 -4 -10 -28 -128 -54 -262 -25 -135 -51 -246 -56
-247 -6 -1 -23 -5 -38 -9 -16 -3 -51 -27 -78 -52 l-50 -47 -259 15 c-142 8
-261 16 -264 19 -2 3 -14 125 -26 271 -20 247 -20 270 -6 319 23 78 20 155 -8
216 -13 28 -29 55 -35 58 -6 4 -11 15 -11 25 0 16 23 22 178 45 97 15 182 29
187 31 24 8 41 2 108 -39z m-706 -96 c6 -19 18 -51 28 -70 12 -23 20 -71 26
-145 4 -60 18 -184 32 -275 16 -107 22 -184 18 -218 l-6 -54 -21 24 c-33 37
-142 212 -164 263 -56 132 -72 318 -36 425 19 58 58 133 85 164 15 17 16 16
22 -30 4 -27 11 -65 16 -84z m2028 -25 c325 -17 520 -31 605 -45 251 -41 928
-79 1667 -95 375 -8 870 -24 1100 -35 l418 -19 122 -128 123 -128 -127 -8
c-70 -4 -128 -9 -131 -11 -9 -10 11 -47 63 -116 37 -49 55 -83 55 -102 0 -39
22 -88 52 -116 21 -19 32 -22 68 -16 l42 7 -7 176 -7 176 27 -25 c15 -14 39
-50 54 -80 l28 -55 -18 -532 -18 -531 -163 -204 c-358 -447 -595 -655 -900
-791 l-148 -65 -47 14 c-25 8 -70 28 -100 44 -47 27 -62 30 -135 30 -49 0
-221 -20 -418 -50 l-335 -50 -611 -29 -610 -29 -321 43 c-288 38 -332 47 -434
83 -181 63 -264 109 -389 213 l-112 94 48 5 49 6 -66 8 c-66 8 -66 8 -87 52
-12 25 -22 64 -22 88 0 24 -24 192 -53 373 l-54 328 13 490 c14 530 21 593 81
759 28 77 90 212 123 264 24 39 -34 38 575 7z m-2215 -844 c-53 -130 -74 -234
-74 -372 -1 -122 0 -127 29 -175 26 -41 43 -55 111 -89 44 -22 102 -54 129
-71 36 -22 116 -48 290 -94 l240 -63 195 12 c107 7 218 15 246 18 50 5 51 5
57 -23 3 -18 -2 -43 -15 -68 -25 -49 -19 -110 17 -171 l24 -42 -397 -6 c-218
-4 -588 -7 -821 -7 l-424 0 6 45 c8 53 29 99 64 137 21 21 49 114 154 510 71
265 134 502 141 526 l11 43 22 -21 22 -21 -27 -68z m327 -177 c26 -8 149 -21
275 -29 l229 -15 152 25 c84 15 162 29 175 32 l22 5 0 -219 0 -218 -49 -18
c-36 -13 -81 -17 -174 -17 -277 0 -593 70 -743 166 l-51 32 -7 74 c-5 52 -3
93 9 143 26 114 19 107 71 78 25 -14 66 -32 91 -39z m668 -1117 c165 -1 -81
-3 -547 -5 -467 -1 -848 1 -848 6 0 6 612 6 1395 -1z m-495 -259 c0 -12 -18
-225 -41 -473 -22 -247 -38 -467 -36 -488 3 -21 13 -47 23 -58 17 -19 16 -19
-35 -19 -29 0 -50 4 -47 8 2 4 10 118 16 252 11 233 5 538 -16 739 l-7 61 72
0 c67 0 71 -1 71 -22z m5546 -77 l11 -39 -36 -6 c-20 -3 -49 -6 -66 -6 l-30 0
47 45 c26 25 51 45 55 45 5 0 14 -18 19 -39z m-1155 -456 c78 -19 143 -36 145
-37 1 -2 7 -90 13 -197 8 -138 15 -199 25 -210 7 -9 16 -28 18 -43 l5 -28 -69
0 -69 0 6 43 c21 149 30 265 21 295 -11 41 -95 118 -137 127 -43 10 -80 -19
-98 -77 -13 -42 -12 -58 13 -199 15 -85 30 -162 32 -171 5 -16 -4 -18 -100
-18 l-106 0 6 43 c21 175 21 194 -3 239 -19 37 -22 59 -23 150 l0 107 33 4
c91 11 153 5 288 -28z m-4239 -343 l3 -162 -28 0 c-25 0 -27 3 -21 23 3 12 13
34 20 49 10 19 14 70 15 165 2 173 7 138 11 -75z"/>
<path d="M3094 6650 c-23 -9 -51 -61 -54 -100 -4 -51 1 -69 27 -100 26 -31 27
-31 87 -25 34 4 65 11 70 15 5 5 5 47 1 94 l-7 85 -42 21 c-46 22 -51 23 -82
10z"/>
<path d="M8070 6250 c-56 -56 -49 -82 50 -185 90 -94 130 -151 185 -261 68
-136 162 -196 228 -144 23 18 27 29 27 73 0 32 -12 89 -31 146 -29 85 -42 108
-131 220 -118 151 -169 191 -239 191 -44 0 -53 -4 -89 -40z"/>
<path d="M8548 5531 c-51 -60 -52 -79 -14 -163 42 -92 65 -118 107 -118 48 0
109 65 109 116 0 51 -33 115 -81 158 -50 46 -87 48 -121 7z"/>
<path d="M4275 5386 c-32 -32 -78 -131 -95 -206 -25 -105 -11 -267 27 -311 7
-9 31 -24 53 -34 l39 -18 38 31 38 30 26 227 25 226 -30 35 c-43 48 -86 55
-121 20z"/>
<path d="M5274 5042 c-97 -70 -157 -171 -170 -285 -5 -47 0 -70 56 -227 77
-215 103 -273 138 -301 31 -24 76 -21 116 8 44 32 46 59 10 138 -52 114 -68
194 -69 337 l0 127 31 33 c41 43 46 62 33 112 -23 87 -76 108 -145 58z"/>
<path d="M4743 5019 c-50 -15 -83 -62 -83 -119 0 -62 75 -390 100 -440 55
-107 183 -165 238 -107 l21 23 -75 309 c-42 171 -83 318 -92 328 -16 18 -57
21 -109 6z"/>
<path d="M4200 4491 c0 -27 102 -220 131 -248 68 -64 167 -83 207 -40 42 44
24 154 -41 249 l-32 48 -132 0 c-73 0 -133 -4 -133 -9z"/>
<path d="M9480 6696 c0 -9 5 -16 10 -16 6 0 10 4 10 9 0 6 -4 13 -10 16 -5 3
-10 -1 -10 -9z"/>
</g>
</svg>
