<?xml version="1.0" standalone="no"?>
<!DOCTYPE svg PUBLIC "-//W3C//DTD SVG 20010904//EN"
 "http://www.w3.org/TR/2001/REC-SVG-20010904/DTD/svg10.dtd">
<svg version="1.0" xmlns="http://www.w3.org/2000/svg"
 width="1024.000000pt" height="1024.000000pt" viewBox="0 0 1024.000000 1024.000000"
 preserveAspectRatio="xMidYMid meet">
<metadata>
Created by potrace 1.10, written by Peter Selinger 2001-2011
</metadata>
<g transform="translate(0.000000,1024.000000) scale(0.100000,-0.100000)"
fill="#000000" stroke="none">
<path d="M4678 7252 c-70 -42 -126 -81 -124 -87 1 -5 36 -30 77 -55 104 -64
188 -151 233 -241 69 -140 66 -72 66 -1531 l0 -1318 -22 -4 c-13 -3 -57 -8
-98 -11 -41 -3 -652 -55 -1357 -115 -705 -61 -1297 -110 -1316 -110 -22 0 -41
8 -56 24 l-23 24 92 448 c105 516 217 980 259 1074 62 138 78 258 44 323 -48
94 -431 426 -605 525 -105 60 -216 76 -249 36 -11 -13 -10 -31 4 -100 14 -68
25 -94 58 -137 22 -28 57 -87 79 -131 l40 -78 0 -137 c0 -214 -26 -459 -96
-921 -46 -307 -217 -1047 -275 -1193 -36 -91 -39 -102 -28 -136 31 -93 140
-211 290 -311 l116 -79 119 39 c65 21 155 55 198 75 146 68 342 106 971 184
639 80 791 98 1365 160 611 66 1461 142 2150 191 642 45 1519 95 1528 85 3 -2
-3 -23 -13 -44 -20 -45 -16 -120 11 -212 20 -65 87 -139 161 -175 46 -23 63
-26 121 -22 83 6 139 34 204 100 87 90 136 223 178 483 11 72 106 598 211
1170 149 818 197 1062 224 1142 19 57 35 109 35 116 0 21 -49 62 -135 113
-127 75 -224 115 -473 198 l-234 78 -124 -58 c-69 -32 -128 -62 -131 -67 -3
-5 37 -52 89 -105 106 -109 145 -167 184 -267 48 -127 47 -146 -66 -1115 -56
-481 -104 -877 -106 -879 -2 -3 -226 -15 -497 -28 -270 -12 -829 -39 -1242
-58 -412 -19 -808 -38 -879 -42 l-129 -6 7 1324 c7 1289 8 1326 28 1417 l21
92 -25 47 c-35 70 -134 139 -343 242 -196 97 -308 141 -358 141 -22 0 -72 -25
-159 -78z"/>
</g>
</svg>
