<?xml version="1.0" standalone="no"?>
<!DOCTYPE svg PUBLIC "-//W3C//DTD SVG 20010904//EN"
 "http://www.w3.org/TR/2001/REC-SVG-20010904/DTD/svg10.dtd">
<svg version="1.0" xmlns="http://www.w3.org/2000/svg"
 width="1024.000000pt" height="1024.000000pt" viewBox="0 0 1024.000000 1024.000000"
 preserveAspectRatio="xMidYMid meet">
<metadata>
Created by potrace 1.10, written by Peter Selinger 2001-2011
</metadata>
<g transform="translate(0.000000,1024.000000) scale(0.100000,-0.100000)"
fill="#000000" stroke="none">
<path d="M8156 6924 c-70 -17 -952 -126 -3000 -369 -1596 -190 -2917 -347
-2937 -351 -30 -4 -37 -2 -48 19 -26 49 -64 64 -297 120 l-229 55 -83 -51
c-75 -47 -82 -54 -77 -77 4 -14 26 -45 49 -70 89 -93 179 -263 215 -405 34
-137 101 -504 161 -890 41 -264 52 -336 95 -630 69 -473 83 -567 89 -620 17
-148 55 -277 97 -329 49 -58 122 -65 175 -15 44 41 82 177 85 306 1 34 5 66 8
71 3 5 44 14 91 21 112 15 885 120 930 126 90 11 199 24 240 29 25 3 101 12
170 21 182 22 179 22 505 59 242 28 706 79 1020 111 28 3 66 7 85 10 19 2 67
7 105 10 39 3 86 8 105 10 31 4 255 26 395 40 46 4 219 19 360 30 33 3 80 7
105 10 25 2 83 7 130 10 47 3 101 8 120 10 19 2 73 7 120 10 107 7 189 14 260
20 30 2 90 7 133 10 162 11 234 16 288 21 l56 5 6 -61 c11 -124 124 -295 221
-335 96 -40 214 2 326 115 76 77 116 148 170 299 92 258 230 796 324 1265 60
296 130 482 219 581 81 92 83 110 28 221 -100 198 -396 500 -576 585 -72 35
-106 35 -239 3z m-35 -599 c89 -32 139 -94 158 -197 17 -93 1 -182 -135 -775
-93 -405 -148 -622 -162 -634 -4 -4 -52 -9 -107 -13 -90 -6 -245 -18 -395 -31
-51 -4 -165 -14 -615 -50 -99 -8 -295 -24 -435 -35 -140 -11 -272 -22 -292
-24 -34 -3 -37 -1 -33 18 3 11 37 158 76 326 38 168 103 449 144 625 77 331
86 363 129 455 40 84 33 132 -30 216 -13 17 -24 33 -24 36 0 3 62 8 138 12 75
4 157 9 182 12 25 2 158 11 295 19 138 8 277 17 310 20 33 2 110 7 170 10 61
3 128 8 150 10 22 2 99 7 170 11 72 3 132 8 133 9 9 8 137 -8 173 -20z m-2262
-299 l29 -138 -56 -671 c-30 -370 -57 -674 -58 -676 -6 -7 -1389 -158 -1395
-152 -4 3 -10 83 -13 176 -4 94 -9 188 -11 210 -2 22 -7 103 -10 180 -3 77 -7
178 -10 225 -2 47 -7 135 -10 195 -3 61 -8 151 -10 200 -16 317 -15 307 -46
363 -16 28 -27 52 -24 52 2 0 118 13 257 30 139 16 276 32 303 35 28 3 61 8
75 10 14 2 54 7 90 10 36 4 72 8 80 10 8 2 47 6 85 10 39 3 77 8 85 10 8 2 44
6 80 10 36 4 166 19 290 34 124 15 228 25 232 21 4 -3 21 -68 37 -144z m-2094
-165 c56 -111 90 -276 100 -481 3 -63 7 -144 10 -180 3 -36 7 -99 10 -140 3
-41 8 -100 10 -130 3 -30 7 -89 10 -130 3 -41 7 -100 10 -130 2 -30 7 -91 10
-135 3 -44 8 -108 11 -142 5 -47 3 -63 -6 -63 -7 0 -346 -45 -753 -101 -406
-55 -741 -98 -744 -95 -3 2 -20 148 -39 323 -18 175 -56 530 -84 789 -27 259
-50 473 -50 476 0 2 8 4 18 5 16 2 1087 137 1182 150 25 3 86 11 135 18 148
21 141 22 170 -34z"/>
</g>
</svg>
