<?xml version="1.0" standalone="no"?>
<!DOCTYPE svg PUBLIC "-//W3C//DTD SVG 20010904//EN"
 "http://www.w3.org/TR/2001/REC-SVG-20010904/DTD/svg10.dtd">
<svg version="1.0" xmlns="http://www.w3.org/2000/svg"
 width="1024.000000pt" height="1024.000000pt" viewBox="0 0 1024.000000 1024.000000"
 preserveAspectRatio="xMidYMid meet">
<metadata>
Created by potrace 1.10, written by Peter Selinger 2001-2011
</metadata>
<g transform="translate(0.000000,1024.000000) scale(0.100000,-0.100000)"
fill="#000000" stroke="none">
<path d="M8317 6903 c-16 -3 -54 -29 -90 -62 -99 -92 -298 -211 -558 -334
-113 -54 -237 -96 -779 -265 l-645 -201 -270 -40 c-317 -47 -330 -48 -545 -56
-91 -3 -205 -8 -255 -10 -49 -2 -148 -7 -220 -10 -71 -3 -184 -8 -250 -10
-417 -18 -560 -36 -835 -105 -708 -177 -1209 -501 -1683 -1085 -75 -94 -164
-201 -198 -240 -168 -194 -224 -410 -164 -640 8 -31 15 -76 15 -99 0 -28 7
-52 19 -67 17 -22 25 -23 111 -20 l93 2 73 67 c127 117 289 205 569 312 188
72 472 143 690 175 61 8 124 18 140 21 17 3 140 6 275 8 227 3 386 -2 650 -19
194 -13 996 -13 1135 0 72 7 175 16 230 19 195 13 323 37 530 98 484 142 892
376 1137 653 106 120 190 248 281 431 62 124 89 195 148 385 57 186 78 242
104 274 19 24 42 72 57 122 24 76 35 94 189 292 90 116 179 229 197 252 37 46
41 87 13 113 -19 17 -104 47 -125 45 -6 -1 -24 -4 -39 -6z m-417 -539 c0 -9
-27 -71 -59 -138 -40 -80 -80 -188 -121 -321 -34 -110 -70 -211 -79 -225 -9
-14 -30 -61 -45 -105 -57 -163 -162 -329 -284 -452 -174 -176 -532 -397 -852
-525 -146 -59 -398 -138 -439 -138 -19 0 -12 55 24 182 77 275 104 497 100
823 -2 127 -6 251 -10 276 l-7 45 313 83 c407 108 569 156 808 243 196 71 454
178 566 236 69 36 85 39 85 16z m-1989 -636 c1 -13 2 -34 4 -48 9 -85 14 -424
6 -434 -12 -14 -19 -77 -26 -241 -6 -118 -12 -148 -61 -320 -30 -104 -60 -205
-66 -224 l-10 -34 -162 7 c-88 3 -264 9 -391 12 -126 4 -241 8 -255 9 -14 1
-77 3 -141 3 l-116 2 -36 53 c-50 73 -111 206 -144 312 -25 83 -27 104 -27
265 -1 137 3 192 18 255 18 79 56 168 76 180 5 3 33 42 61 86 42 65 56 79 77
80 15 1 41 2 57 4 17 1 98 5 180 9 142 6 194 9 395 20 47 3 159 8 250 12 91 4
166 7 167 8 1 1 33 3 72 4 68 3 71 2 72 -20z m-1545 -112 c-46 -77 -75 -171
-98 -326 -45 -299 -19 -520 86 -730 20 -39 36 -73 36 -74 0 -2 -147 -6 -327
-9 -181 -4 -353 -9 -383 -12 -472 -51 -849 -122 -1053 -201 -49 -19 -205 -95
-348 -169 -143 -74 -261 -135 -264 -135 -10 0 -4 86 8 120 19 52 279 451 366
560 97 124 321 347 442 443 443 349 1009 571 1496 586 l72 2 -33 -55z"/>
</g>
</svg>
