<?xml version="1.0" standalone="no"?>
<!DOCTYPE svg PUBLIC "-//W3C//DTD SVG 20010904//EN"
 "http://www.w3.org/TR/2001/REC-SVG-20010904/DTD/svg10.dtd">
<svg version="1.0" xmlns="http://www.w3.org/2000/svg"
 width="1024.000000pt" height="1024.000000pt" viewBox="0 0 1024.000000 1024.000000"
 preserveAspectRatio="xMidYMid meet">
<metadata>
Created by potrace 1.10, written by Peter Selinger 2001-2011
</metadata>
<g transform="translate(0.000000,1024.000000) scale(0.100000,-0.100000)"
fill="#000000" stroke="none">
<path d="M7660 7283 c-8 -4 -159 -101 -335 -218 -340 -224 -389 -266 -440
-370 -16 -32 -29 -79 -32 -115 -3 -34 -11 -63 -17 -65 -6 -2 -136 -6 -288 -8
l-278 -4 0 23 c0 53 172 229 290 297 45 26 260 213 260 225 0 10 -12 25 -32
40 -14 11 -29 6 -105 -32 -143 -72 -270 -162 -378 -271 -131 -131 -165 -179
-165 -239 l0 -46 -247 -1 c-137 -1 -283 -3 -326 -4 -43 -1 -80 2 -83 7 -3 4 7
32 23 61 19 36 87 110 217 238 175 171 188 187 177 207 -6 12 -22 24 -35 28
-48 12 -196 -83 -306 -196 -80 -82 -127 -153 -167 -250 l-24 -61 23 -19 c13
-10 21 -20 18 -23 -3 -2 -86 -19 -185 -37 -113 -20 -273 -59 -427 -105 -277
-80 -271 -81 -217 15 21 37 90 113 215 235 101 99 184 185 184 191 0 14 -43
54 -59 54 -34 0 -281 -209 -377 -320 -119 -136 -133 -159 -136 -230 l-3 -64
-334 -158 c-184 -87 -336 -158 -338 -158 -3 0 -2 15 2 33 4 20 76 124 188 271
99 132 182 250 185 262 6 33 -32 56 -66 40 -29 -12 -267 -253 -320 -323 -70
-91 -136 -289 -114 -338 9 -19 4 -25 -49 -54 -132 -73 -420 -276 -515 -363
l-45 -41 7 44 c3 24 14 58 23 75 9 17 115 154 236 304 121 150 222 279 223
287 5 21 -27 53 -54 53 -59 0 -299 -249 -420 -435 -21 -33 -53 -78 -72 -100
-18 -22 -35 -56 -39 -78 -3 -21 -17 -52 -30 -68 -23 -27 -24 -35 -22 -133 l3
-104 -40 -48 c-23 -27 -92 -116 -155 -199 l-114 -150 -5 40 c-13 92 4 279 46
515 5 30 2 38 -23 56 -41 30 -64 17 -96 -54 -57 -126 -71 -201 -71 -392 -1
-170 0 -177 27 -237 l27 -63 -101 -146 c-55 -80 -104 -157 -109 -169 -5 -13
-21 -42 -34 -64 -20 -30 -28 -63 -36 -133 -11 -99 0 -260 19 -297 6 -11 11
-35 11 -53 0 -52 39 -118 84 -142 21 -12 50 -31 63 -43 13 -12 47 -26 74 -32
27 -6 66 -19 87 -30 70 -36 277 -100 402 -125 330 -66 915 -60 1328 14 676
122 1358 417 1942 840 176 128 1202 974 1294 1067 98 100 208 243 280 363 85
143 196 413 196 476 0 25 9 52 23 74 13 19 36 66 52 104 35 91 33 166 -9 220
-27 36 -68 62 -96 61 -37 -3 -95 -22 -234 -76 -82 -33 -150 -58 -152 -57 -1 2
140 125 313 273 173 149 319 276 325 283 8 9 5 19 -12 37 -13 14 -29 25 -35
25 -18 0 -223 -128 -329 -206 -170 -125 -385 -328 -458 -433 -13 -19 -28 -21
-191 -27 -137 -5 -177 -4 -177 6 0 7 15 40 32 74 52 98 189 227 329 309 64 38
147 92 185 120 97 73 224 201 224 226 0 31 -41 49 -80 34z m44 -1000 l19 -81
-23 -79 c-12 -43 -35 -100 -51 -127 -48 -85 -373 -468 -508 -598 -203 -198
-495 -446 -721 -616 -126 -94 -724 -510 -728 -507 -2 2 26 61 62 132 155 307
197 471 227 891 7 106 8 167 1 175 -5 6 -24 98 -42 202 -18 105 -43 219 -57
255 -38 102 -100 197 -183 282 l-77 78 61 1 c34 1 77 2 96 4 19 1 130 5 245 9
116 4 248 9 295 11 84 4 219 9 535 20 88 3 198 8 245 10 47 2 182 7 300 11
118 3 216 7 217 8 2 1 17 2 35 2 32 -1 33 -2 52 -83z m-2319 -130 l50 -17 -34
-7 c-78 -16 -168 -110 -178 -187 -5 -36 -2 -45 25 -72 37 -37 94 -41 158 -10
52 26 131 108 139 147 13 59 15 60 41 28 13 -16 37 -69 53 -118 l30 -87 -71
-56 c-82 -66 -102 -104 -95 -178 5 -54 31 -86 70 -86 11 0 50 16 85 36 72 39
76 38 86 -29 7 -39 5 -43 -54 -102 -33 -33 -60 -66 -60 -72 0 -6 -21 -30 -47
-53 -84 -73 -77 -89 42 -91 33 0 74 -6 90 -12 30 -12 31 -12 22 -64 -8 -49
-11 -53 -35 -53 -27 0 -114 -38 -142 -62 -52 -44 -64 -110 -31 -165 22 -35 54
-44 109 -30 19 5 35 7 37 5 1 -2 -14 -55 -34 -118 l-37 -115 -51 53 c-42 43
-56 52 -85 52 -45 0 -102 -38 -107 -70 -7 -55 19 -130 62 -174 23 -24 50 -48
61 -53 17 -9 11 -20 -65 -107 l-84 -97 -11 54 c-13 64 -44 119 -84 147 -39 28
-57 25 -95 -13 -39 -39 -60 -104 -51 -160 7 -40 51 -137 68 -148 29 -18 -165
-97 -260 -106 l-65 -6 7 27 c3 14 22 47 41 72 69 90 67 167 -7 227 -34 27 -40
29 -66 18 -39 -16 -115 -118 -164 -219 -44 -92 -41 -90 -123 -49 -40 20 -157
112 -163 128 -2 4 30 32 71 63 136 101 152 174 52 236 -33 21 -40 22 -78 10
-62 -18 -113 -46 -159 -88 -23 -20 -43 -32 -45 -27 -2 6 -30 73 -62 150 -32
77 -58 141 -56 143 1 1 25 -3 52 -9 90 -21 123 5 123 97 0 87 -42 126 -151
142 l-54 7 -3 118 -3 118 23 -12 c13 -6 39 -29 59 -50 35 -37 54 -44 104 -39
32 3 62 27 69 55 8 32 -37 135 -84 195 -23 30 -99 93 -138 115 -3 2 37 157 42
162 2 2 18 -11 37 -28 68 -64 162 -81 204 -38 22 22 23 28 14 76 -9 48 -8 57
16 96 32 55 32 104 1 150 l-25 36 56 42 c30 23 58 37 62 32 3 -5 21 -33 40
-62 64 -99 149 -109 183 -22 13 34 13 154 -1 179 -6 12 -11 25 -11 30 0 9 169
91 217 106 21 7 21 5 16 -47 -4 -39 -1 -62 11 -85 18 -35 80 -72 120 -72 32 0
62 39 71 90 4 22 10 42 15 45 4 3 11 22 15 42 13 69 15 71 97 61 40 -5 96 -16
123 -25z m-1390 -385 c-114 -185 -168 -427 -168 -748 0 -149 4 -194 27 -301
60 -293 185 -547 351 -715 73 -74 201 -164 293 -204 45 -20 67 -40 45 -40 -3
0 -76 -16 -162 -35 -151 -33 -289 -56 -436 -72 -136 -15 -620 -9 -750 10 -205
30 -558 106 -577 125 -4 4 0 32 8 62 16 57 13 144 -6 210 -5 20 -39 87 -75
149 -41 72 -63 121 -60 132 23 72 192 344 297 476 324 410 673 706 1093 925
71 37 134 68 138 68 5 0 -4 -19 -18 -42z m-1540 -1675 c44 -75 45 -80 45 -161
0 -70 -2 -81 -13 -70 -8 7 -37 31 -65 53 -55 41 -56 45 -54 138 1 40 26 117
38 117 2 0 24 -35 49 -77z"/>
<path d="M4760 5539 c-87 -43 -194 -151 -242 -244 -20 -38 -53 -117 -74 -175
-35 -97 -37 -113 -38 -220 -1 -105 1 -120 26 -172 38 -81 72 -123 143 -174 87
-61 182 -95 271 -97 64 -1 80 3 155 40 152 74 265 187 340 338 75 153 87 267
44 404 -46 146 -140 253 -264 301 -43 17 -84 23 -176 27 -119 4 -121 4 -185
-28z m307 -222 c1 -1 -29 -31 -67 -67 l-68 -65 -37 74 -36 74 103 -8 c57 -4
104 -7 105 -8z m133 -152 c0 -86 -2 -87 -99 -80 -99 7 -122 -3 -124 -56 -2
-28 3 -35 43 -56 34 -19 55 -23 88 -20 23 2 42 1 42 -3 0 -9 -58 -90 -65 -90
-3 0 -24 13 -46 30 -23 16 -44 28 -48 27 -41 -19 -61 -33 -61 -43 0 -10 -6
-11 -26 -3 -15 5 -34 7 -44 4 -14 -4 -89 -90 -121 -138 -8 -12 -60 24 -55 38
2 6 -5 38 -15 73 l-18 62 82 1 c130 2 138 4 153 24 21 29 17 51 -17 79 -35 30
-81 34 -136 11 -19 -8 -37 -15 -39 -15 -11 0 -1 28 29 76 29 48 35 53 67 53
20 1 46 -8 60 -19 35 -27 56 -25 75 8 16 27 20 28 75 24 64 -5 129 19 165 58
23 26 35 11 35 -45z m-210 -419 c0 -2 -21 -16 -46 -31 -61 -36 -70 -20 -31 51
l29 55 24 -35 c13 -19 24 -37 24 -40z"/>
</g>
</svg>
