<?xml version="1.0" standalone="no"?>
<!DOCTYPE svg PUBLIC "-//W3C//DTD SVG 20010904//EN"
 "http://www.w3.org/TR/2001/REC-SVG-20010904/DTD/svg10.dtd">
<svg version="1.0" xmlns="http://www.w3.org/2000/svg"
 width="1024.000000pt" height="1024.000000pt" viewBox="0 0 1024.000000 1024.000000"
 preserveAspectRatio="xMidYMid meet">
<metadata>
Created by potrace 1.10, written by Peter Selinger 2001-2011
</metadata>
<g transform="translate(0.000000,1024.000000) scale(0.100000,-0.100000)"
fill="#000000" stroke="none">
<path d="M8653 9608 c-123 -117 -265 -313 -415 -574 l-104 -182 -570 -598
c-943 -989 -1188 -1261 -2082 -2298 l-835 -970 -990 -1250 c-544 -688 -1013
-1276 -1040 -1306 -28 -30 -90 -96 -137 -145 -97 -101 -120 -137 -120 -191 0
-32 -26 -72 -205 -315 -188 -256 -275 -393 -275 -435 0 -9 -37 -59 -81 -112
-45 -54 -94 -124 -110 -157 -15 -33 -56 -91 -90 -130 -81 -92 -99 -122 -99
-167 0 -42 34 -89 82 -114 25 -13 35 -13 59 -4 44 19 194 190 233 268 19 37
54 89 79 117 l44 50 37 -33 c32 -28 44 -32 91 -32 51 0 135 24 135 39 0 4 12
20 28 37 22 24 47 36 127 57 55 14 132 31 170 37 193 32 446 103 670 187 270
102 388 169 945 533 l525 344 475 427 c469 422 477 430 623 611 81 101 170
200 196 221 37 29 52 49 61 82 l12 43 131 37 c271 77 662 306 949 556 326 285
697 753 938 1184 40 72 82 140 94 153 12 13 42 85 67 160 25 75 98 290 162
477 159 465 150 434 212 684 31 123 62 235 69 250 34 65 57 351 45 541 -10
149 -45 332 -89 468 -16 51 -30 101 -30 110 0 9 -18 90 -39 178 -32 134 -37
169 -30 205 5 27 4 99 -3 188 -10 119 -16 150 -34 176 l-21 32 118 183 c65
101 132 197 148 214 56 60 66 114 30 160 -21 26 -68 56 -89 56 -6 0 -36 -24
-67 -52z m-378 -1663 c-42 -766 -47 -829 -74 -960 -57 -278 -156 -592 -258
-825 -110 -249 -168 -339 -529 -820 -357 -478 -403 -530 -609 -695 -199 -160
-485 -320 -715 -400 -146 -51 -284 -112 -395 -176 l-71 -40 1 -117 c0 -114 -1
-119 -36 -192 -42 -89 -159 -221 -355 -406 -317 -297 -425 -380 -1097 -854
-612 -430 -686 -479 -889 -584 -239 -124 -391 -178 -628 -225 -113 -23 -211
-41 -218 -41 -11 0 75 118 484 657 100 132 116 170 94 231 -11 32 -10 37 24
85 19 29 571 716 1226 1527 1569 1943 1718 2114 3008 3482 889 943 954 1013
1003 1100 69 122 73 128 77 97 1 -13 -18 -393 -43 -844z m289 4 c-24 -27 -30
-15 -9 18 12 17 20 23 23 15 2 -7 -4 -22 -14 -33z m65 -229 c1 -33 -1 -35 -35
-37 -20 -1 -45 -9 -55 -19 -36 -32 -19 5 29 65 51 64 60 63 61 -9z m-9 -237
c0 -23 -5 -28 -25 -29 l-25 -2 21 29 c25 36 29 36 29 2z m-165 -389 c-47 -246
-99 -444 -111 -431 -6 6 139 701 149 715 5 7 12 11 14 8 2 -2 -21 -134 -52
-292z m-412 -1251 c-28 -68 -144 -296 -210 -413 -211 -374 -421 -673 -569
-811 -168 -157 -197 -178 -536 -396 l-328 -211 -30 41 c-16 22 -30 44 -30 48
0 3 127 80 282 170 244 142 298 177 394 262 246 215 759 864 963 1220 40 70
75 127 77 127 2 0 -4 -17 -13 -37z m-2006 -1855 c8 -7 31 -29 50 -48 l34 -35
-43 -13 c-24 -7 -65 -16 -91 -19 -26 -3 -50 -10 -53 -14 -3 -5 -23 0 -46 12
l-40 21 41 38 c32 30 80 56 129 69 2 1 10 -5 19 -11z m-772 -976 c-107 -104
-235 -206 -720 -574 -530 -401 -592 -445 -609 -434 -11 7 -21 17 -22 22 -3 8
1462 1111 1476 1113 3 0 -54 -57 -125 -127z m-1450 -1112 c-11 -18 -115 -69
-130 -64 -29 12 -15 41 38 76 l52 36 22 -21 c12 -11 20 -23 18 -27z m-265
-139 c0 -24 -131 -87 -153 -75 -13 8 -1 19 61 56 79 47 92 50 92 19z m-325
-161 c-3 -5 -12 -10 -18 -10 -7 0 -6 4 3 10 19 12 23 12 15 0z m-923 -232 l53
-11 -85 -22 c-47 -12 -87 -21 -89 -19 -7 6 41 64 54 64 8 0 38 -5 67 -12z"/>
<path d="M7520 4226 c0 -22 24 -96 31 -96 4 0 1 21 -8 48 -16 47 -23 62 -23
48z"/>
</g>
</svg>
