<?xml version="1.0" standalone="no"?>
<!DOCTYPE svg PUBLIC "-//W3C//DTD SVG 20010904//EN"
 "http://www.w3.org/TR/2001/REC-SVG-20010904/DTD/svg10.dtd">
<svg version="1.0" xmlns="http://www.w3.org/2000/svg"
 width="1024.000000pt" height="1024.000000pt" viewBox="0 0 1024.000000 1024.000000"
 preserveAspectRatio="xMidYMid meet">
<metadata>
Created by potrace 1.10, written by Peter Selinger 2001-2011
</metadata>
<g transform="translate(0.000000,1024.000000) scale(0.100000,-0.100000)"
fill="#000000" stroke="none">
<path d="M8606 9551 c-51 -34 -217 -233 -316 -381 -31 -47 -99 -159 -151 -250
l-94 -165 -520 -545 c-955 -1000 -1250 -1326 -2146 -2365 l-835 -970 -994
-1255 c-546 -690 -1018 -1282 -1048 -1315 -31 -33 -88 -94 -128 -135 -98 -103
-124 -143 -124 -194 0 -39 -15 -63 -206 -321 -200 -269 -284 -399 -284 -439 0
-10 -35 -62 -79 -115 -43 -53 -93 -125 -110 -160 -18 -35 -66 -102 -106 -148
-102 -116 -109 -170 -34 -237 43 -40 68 -44 107 -20 46 29 188 196 220 260 17
34 52 86 78 115 l47 54 32 -32 c29 -29 40 -33 85 -33 80 0 127 18 161 62 26
32 44 42 112 63 45 13 145 36 222 50 345 64 677 175 984 330 58 29 339 206
625 394 l518 340 477 430 c463 418 480 435 621 608 80 99 169 199 198 223 36
31 56 57 64 83 14 45 15 46 171 92 186 54 504 225 730 392 419 311 843 815
1154 1372 35 64 75 127 87 141 12 14 35 68 51 120 15 52 45 138 65 190 95 241
271 793 319 1000 28 118 58 231 68 250 28 60 43 169 50 356 8 248 -15 420 -86
654 -16 52 -48 177 -71 277 -33 144 -40 192 -34 225 8 48 8 85 -5 236 -6 82
-12 109 -30 133 l-23 30 113 177 c62 97 127 193 145 212 35 39 64 90 64 115 0
30 -29 73 -63 94 -42 26 -45 26 -81 2z m-416 -1686 c-51 -891 -51 -887 -115
-1160 -81 -343 -225 -707 -381 -965 -38 -63 -214 -306 -390 -540 -335 -444
-393 -509 -585 -664 -207 -167 -480 -322 -707 -401 -153 -53 -277 -106 -377
-162 -125 -70 -114 -54 -108 -158 11 -179 -32 -257 -277 -504 -184 -185 -405
-382 -580 -517 -180 -139 -1199 -855 -1320 -928 -147 -89 -352 -191 -505 -251
-91 -36 -172 -58 -338 -92 -120 -25 -221 -43 -224 -40 -2 3 126 177 286 387
185 243 295 396 302 421 9 30 9 48 0 79 -11 37 -10 43 16 82 15 23 570 713
1232 1533 1579 1955 1724 2123 3026 3505 823 874 962 1026 1002 1095 52 90 84
138 88 133 2 -2 -19 -385 -45 -853z m290 -15 c-32 -24 -37 -18 -13 14 12 16
21 21 28 15 7 -7 2 -16 -15 -29z m69 -236 c1 -17 -6 -23 -35 -29 -21 -3 -48
-13 -60 -22 -36 -23 -30 -10 28 64 l53 67 6 -29 c4 -17 7 -40 8 -51z m-17
-232 c-3 -21 -10 -28 -30 -30 l-26 -2 29 30 c16 16 29 30 30 30 1 0 0 -13 -3
-28z m-106 -109 c-3 -10 -30 -146 -61 -303 -49 -253 -93 -422 -102 -394 -4 11
135 692 143 706 10 15 25 8 20 -9z m-518 -1639 c-113 -237 -269 -509 -425
-741 -153 -227 -216 -305 -324 -401 -57 -51 -122 -110 -144 -131 -89 -84 -317
-243 -498 -350 -86 -50 -202 -111 -211 -111 -10 0 -66 89 -59 93 5 3 133 77
286 166 241 139 293 174 389 259 240 211 768 876 963 1215 37 64 70 116 72
114 2 -2 -20 -53 -49 -113z m-1955 -1775 c17 -12 42 -35 55 -50 l24 -29 -26 0
c-13 0 -37 -5 -53 -11 -15 -6 -46 -12 -67 -14 -21 -2 -43 -8 -49 -14 -6 -6
-21 -2 -43 11 -30 18 -32 22 -21 39 19 26 60 57 99 74 43 19 43 19 81 -6z
m-778 -960 c-115 -115 -343 -293 -1247 -973 -77 -58 -78 -58 -104 -41 l-25 16
743 559 c409 307 745 559 748 559 3 1 -49 -53 -115 -120z m-1483 -1096 c10 -9
18 -20 18 -24 0 -4 -27 -24 -60 -44 -49 -30 -63 -35 -75 -25 -25 21 -17 38 37
75 29 19 55 35 57 35 2 0 13 -7 23 -17z m-249 -163 c4 -17 -6 -26 -63 -55 -51
-26 -75 -33 -91 -27 -20 8 -15 13 52 55 85 52 95 55 102 27z m-333 -170 c-8
-5 -19 -10 -25 -10 -5 0 -3 5 5 10 8 5 20 10 25 10 6 0 3 -5 -5 -10z m-888
-239 c5 -4 -30 -16 -77 -28 -51 -12 -82 -16 -77 -9 39 61 34 58 92 51 30 -4
58 -10 62 -14z"/>
<path d="M7431 4114 c-1 -6 4 -26 10 -45 6 -19 13 -40 15 -48 3 -8 7 -12 9 -9
3 2 -4 29 -14 59 -11 30 -20 49 -20 43z"/>
</g>
</svg>
