<?xml version="1.0" standalone="no"?>
<!DOCTYPE svg PUBLIC "-//W3C//DTD SVG 20010904//EN"
 "http://www.w3.org/TR/2001/REC-SVG-20010904/DTD/svg10.dtd">
<svg version="1.0" xmlns="http://www.w3.org/2000/svg"
 width="1024.000000pt" height="1024.000000pt" viewBox="0 0 1024.000000 1024.000000"
 preserveAspectRatio="xMidYMid meet">
<metadata>
Created by potrace 1.10, written by Peter Selinger 2001-2011
</metadata>
<g transform="translate(0.000000,1024.000000) scale(0.100000,-0.100000)"
fill="#000000" stroke="none">
<path d="M7243 8827 c-56 -34 -133 -83 -171 -109 -145 -100 -279 -152 -443
-174 -105 -13 -1199 -180 -1249 -189 -23 -5 -23 -3 10 26 l35 31 -68 -5 c-52
-4 -77 -11 -110 -33 -33 -22 -57 -29 -107 -32 -36 -2 -69 -9 -75 -16 -6 -7
-432 -86 -965 -179 l-955 -167 -340 -26 -340 -27 -429 47 c-236 26 -432 44
-436 39 -5 -4 -17 -41 -29 -82 -19 -69 -19 -77 -5 -107 45 -95 310 -358 439
-434 238 -143 318 -145 568 -11 62 33 150 74 197 91 229 84 696 198 1380 334
124 25 248 54 276 65 46 18 53 18 72 5 18 -12 22 -12 29 0 13 22 74 53 118 60
31 5 55 1 104 -19 l65 -27 55 26 c53 24 109 30 1076 122 1088 102 1165 107
1240 68 52 -27 78 -63 78 -111 0 -37 -249 -1348 -259 -1365 -3 -4 -18 -8 -34
-8 -16 0 -237 -52 -492 -116 l-463 -116 -375 -44 c-206 -24 -376 -44 -376 -44
-1 0 -4 10 -7 22 -6 20 -10 21 -94 14 -58 -4 -95 -12 -111 -24 -74 -52 -75
-53 -142 -49 -36 2 -80 9 -98 15 -30 10 -34 9 -41 -11 -8 -21 -46 -26 -1187
-158 l-1179 -137 -75 72 c-81 77 -219 173 -288 200 -26 10 -72 16 -121 16 -64
0 -84 -4 -111 -22 -59 -41 -59 -39 -6 -254 45 -181 48 -203 43 -278 -7 -91
-51 -265 -96 -381 -16 -42 -108 -257 -203 -477 l-173 -401 -129 -141 c-188
-205 -204 -253 -145 -430 53 -158 247 -504 319 -570 62 -56 76 -55 172 5 46
29 108 72 138 97 77 62 178 120 257 147 51 18 359 65 1212 187 897 128 1145
166 1150 178 7 18 38 21 114 10 34 -6 68 -5 82 0 15 6 27 6 30 0 8 -13 72 -13
77 0 2 7 45 8 133 2 l130 -9 44 30 c49 33 122 47 146 27 12 -10 21 -10 45 0
29 12 56 11 93 -5 13 -5 17 -2 17 13 0 16 8 22 33 26 17 3 464 53 992 111 528
57 1256 137 1618 177 l657 72 28 -20 c39 -29 64 -87 70 -163 4 -60 -5 -100
-91 -426 -94 -354 -125 -446 -265 -795 -148 -370 -288 -650 -415 -833 -87
-125 -151 -127 -437 -14 -134 52 -328 138 -523 231 -76 36 -141 66 -143 66 -2
0 -4 -13 -4 -30 0 -37 81 -163 204 -318 217 -273 360 -486 447 -668 76 -156
140 -230 228 -259 102 -34 192 -7 300 91 344 312 752 1164 1121 2341 18 56 54
140 80 187 29 50 64 132 86 202 36 115 37 121 26 185 -17 97 -56 214 -127 381
-117 273 -337 608 -399 608 -35 0 -107 -35 -152 -74 -92 -81 -212 -141 -369
-185 -53 -15 -511 -77 -1370 -187 -709 -90 -1357 -173 -1440 -184 -131 -17
-150 -18 -158 -5 -4 8 -19 15 -33 15 -26 0 -174 -54 -242 -89 -46 -24 -105
-27 -164 -9 -30 9 -41 9 -47 0 -7 -12 -2904 -402 -2987 -402 -56 0 -84 14 -84
42 0 11 154 348 342 747 l342 726 1180 148 c650 81 1195 146 1211 146 17 -1
40 3 52 10 34 17 341 15 386 -4 40 -16 47 -12 47 27 0 15 2 28 5 28 3 0 475
59 1048 131 573 71 1090 134 1149 139 161 13 234 54 245 138 8 57 -23 117
-105 203 l-70 74 63 315 c106 527 172 758 275 965 37 75 81 145 116 185 114
133 135 202 90 294 -84 171 -576 558 -706 555 -14 0 -71 -28 -127 -62z"/>
</g>
</svg>
