<?xml version="1.0" standalone="no"?>
<!DOCTYPE svg PUBLIC "-//W3C//DTD SVG 20010904//EN"
 "http://www.w3.org/TR/2001/REC-SVG-20010904/DTD/svg10.dtd">
<svg version="1.0" xmlns="http://www.w3.org/2000/svg"
 width="1024.000000pt" height="1024.000000pt" viewBox="0 0 1024.000000 1024.000000"
 preserveAspectRatio="xMidYMid meet">
<metadata>
Created by potrace 1.10, written by Peter Selinger 2001-2011
</metadata>
<g transform="translate(0.000000,1024.000000) scale(0.100000,-0.100000)"
fill="#000000" stroke="none">
<path d="M7473 9503 c-25 -5 -38 -33 -58 -131 -28 -137 -45 -317 -45 -484 0
-92 -2 -168 -3 -168 -32 0 -3599 -413 -3641 -421 -94 -20 -159 -89 -135 -143
15 -33 98 -76 145 -76 22 0 811 85 1754 190 1496 166 1725 193 1790 215 41 14
79 25 84 25 5 0 7 -64 3 -152 -9 -225 -47 -351 -155 -510 -55 -82 -202 -346
-217 -392 -22 -65 -251 -230 -460 -331 -250 -121 -217 -114 -1501 -314 -760
-119 -1169 -187 -1206 -201 -83 -31 -159 -91 -232 -182 -114 -142 -186 -320
-205 -507 -5 -47 -15 -106 -22 -131 -15 -51 -19 -513 -6 -591 7 -44 12 -50 76
-92 l69 -46 183 -9 184 -10 535 115 c294 62 682 145 862 183 l327 70 668 40
c995 60 918 58 1056 24 114 -27 117 -28 153 -10 58 27 87 15 102 -41 7 -25 26
-63 43 -85 28 -35 31 -44 31 -116 0 -101 -14 -160 -63 -257 -51 -104 -127
-197 -214 -263 -243 -183 -815 -537 -1235 -765 -300 -162 -848 -486 -942 -557
-253 -190 -459 -419 -619 -689 -35 -58 -164 -259 -287 -445 -238 -361 -316
-460 -526 -669 -260 -259 -408 -371 -852 -651 -186 -118 -357 -227 -379 -243
-47 -34 -81 -81 -97 -135 -33 -111 94 -165 219 -92 23 13 52 37 65 54 13 16
82 66 153 111 631 395 1164 873 1512 1354 43 61 179 266 301 457 121 191 247
380 279 420 82 103 213 231 323 315 107 81 1290 780 1575 930 214 113 364 211
529 343 129 104 338 312 380 379 101 160 133 393 81 596 -35 140 -102 234
-193 272 -50 21 -251 65 -291 64 -19 0 -43 -9 -55 -20 -18 -17 -27 -19 -61
-11 -179 40 -619 61 -855 42 -223 -19 -450 -62 -1360 -257 l-895 -193 -287 -7
-288 -7 0 59 c0 32 11 173 24 313 21 213 28 265 49 315 14 33 30 86 36 118 26
143 96 231 218 277 47 17 622 101 1508 220 370 49 758 143 1117 271 257 92
405 177 542 314 99 100 139 162 266 410 68 132 140 270 161 307 36 64 39 77
65 275 22 169 28 266 34 513 5 248 11 333 30 452 23 144 23 148 6 212 -13 47
-30 79 -58 111 -38 43 -48 47 -95 38z"/>
</g>
</svg>
