<?xml version="1.0" standalone="no"?>
<!DOCTYPE svg PUBLIC "-//W3C//DTD SVG 20010904//EN"
 "http://www.w3.org/TR/2001/REC-SVG-20010904/DTD/svg10.dtd">
<svg version="1.0" xmlns="http://www.w3.org/2000/svg"
 width="1024.000000pt" height="1024.000000pt" viewBox="0 0 1024.000000 1024.000000"
 preserveAspectRatio="xMidYMid meet">
<metadata>
Created by potrace 1.10, written by Peter Selinger 2001-2011
</metadata>
<g transform="translate(0.000000,1024.000000) scale(0.100000,-0.100000)"
fill="#000000" stroke="none">
<path d="M6536 9609 c-27 -17 -68 -45 -90 -63 -53 -43 -112 -73 -161 -81 -22
-4 -371 -81 -775 -171 -576 -128 -769 -167 -890 -180 l-155 -17 -526 52 c-289
28 -530 51 -537 51 -11 0 -82 -129 -82 -149 0 -27 172 -169 363 -300 139 -95
419 -214 535 -228 52 -6 69 0 172 63 30 18 87 44 125 58 211 74 672 185 895
215 652 88 779 103 855 99 136 -7 209 -57 208 -143 0 -73 -78 -336 -308 -1040
l-135 -411 -142 -37 c-101 -26 -374 -74 -931 -162 l-788 -125 -102 46 c-161
73 -269 105 -374 111 -76 5 -97 3 -118 -11 -46 -30 -23 -94 55 -157 30 -24 54
-60 88 -128 l47 -94 -1 -146 c-1 -213 -47 -434 -218 -1034 -124 -436 -219
-704 -303 -857 -26 -47 -40 -93 -54 -168 -22 -120 -18 -138 42 -182 44 -31
239 -100 286 -100 21 0 49 23 132 109 61 63 145 137 198 174 94 66 240 146
303 166 19 6 391 92 825 191 855 196 839 193 932 149 72 -35 77 -57 64 -288
-25 -419 -77 -796 -217 -1566 -120 -662 -263 -1190 -416 -1537 -94 -211 -212
-385 -306 -450 l-45 -31 -106 6 c-171 10 -478 83 -976 233 -99 30 -230 65
-290 78 l-110 23 -32 -21 c-18 -12 -33 -26 -33 -32 0 -33 58 -87 187 -173 444
-299 674 -565 744 -858 35 -149 85 -220 184 -264 107 -47 223 -35 360 37 269
142 476 347 697 689 250 386 392 749 577 1475 125 488 306 1395 406 2025 35
222 79 338 167 434 107 117 122 207 53 302 -46 63 -189 200 -330 318 -173 145
-237 192 -313 231 -136 69 -225 53 -468 -82 -107 -59 -263 -128 -400 -177
-169 -60 -1116 -331 -1158 -331 -50 0 -72 14 -85 52 -12 38 17 161 187 778 84
306 134 508 180 720 l8 35 1049 147 c578 81 1091 152 1142 157 138 14 220 63
226 134 1 21 -16 50 -78 126 -44 55 -89 105 -101 112 -21 14 -20 16 75 334
108 359 165 512 256 697 103 207 196 330 324 427 113 87 152 157 129 235 -30
99 -226 253 -508 400 -137 71 -306 137 -346 135 -11 0 -41 -14 -68 -30z"/>
</g>
</svg>
