<?xml version="1.0" standalone="no"?>
<!DOCTYPE svg PUBLIC "-//W3C//DTD SVG 20010904//EN"
 "http://www.w3.org/TR/2001/REC-SVG-20010904/DTD/svg10.dtd">
<svg version="1.0" xmlns="http://www.w3.org/2000/svg"
 width="1024.000000pt" height="1024.000000pt" viewBox="0 0 1024.000000 1024.000000"
 preserveAspectRatio="xMidYMid meet">
<metadata>
Created by potrace 1.10, written by Peter Selinger 2001-2011
</metadata>
<g transform="translate(0.000000,1024.000000) scale(0.100000,-0.100000)"
fill="#000000" stroke="none">
<path d="M7567 9502 c-37 -5 -52 -36 -76 -168 -31 -164 -41 -272 -41 -456 0
-133 -3 -168 -13 -168 -48 0 -3605 -413 -3657 -425 -52 -11 -72 -21 -97 -49
-40 -43 -43 -83 -10 -114 31 -29 89 -52 134 -52 21 0 819 87 1773 194 1594
178 1741 196 1804 220 l69 27 -6 -148 c-8 -227 -46 -362 -143 -509 -61 -91
-192 -325 -219 -391 -17 -41 -37 -65 -91 -109 -166 -137 -388 -261 -599 -334
-114 -39 -174 -50 -1295 -226 -1160 -182 -1176 -184 -1247 -219 -86 -43 -170
-124 -249 -242 -84 -124 -123 -236 -150 -427 -7 -56 -19 -123 -25 -151 -14
-59 -18 -482 -6 -568 l9 -58 73 -48 73 -48 184 -7 183 -7 865 184 865 185 802
47 802 48 118 -30 c103 -26 122 -28 148 -17 17 7 46 13 66 14 35 0 37 -2 48
-47 7 -26 25 -63 40 -82 97 -123 8 -406 -186 -592 -138 -133 -818 -564 -1298
-824 -215 -116 -726 -410 -839 -482 -278 -178 -560 -478 -747 -793 -117 -198
-486 -748 -562 -840 -167 -198 -419 -439 -627 -601 -63 -49 -272 -188 -465
-308 -435 -273 -420 -262 -455 -324 -33 -58 -37 -94 -15 -136 16 -32 39 -41
108 -41 60 0 97 18 168 84 30 28 111 85 180 128 479 295 1006 742 1319 1119
148 178 220 281 466 671 119 189 247 381 284 428 85 107 229 246 342 330 100
75 1407 846 1603 945 158 81 405 244 541 359 55 46 153 139 218 207 97 101
123 136 156 203 56 119 74 200 75 336 0 177 -40 310 -121 400 -55 61 -92 78
-240 115 -142 35 -173 34 -215 -2 -14 -12 -33 -11 -135 6 -238 40 -511 51
-770 31 -357 -28 -1377 -225 -2094 -405 l-175 -44 -292 -7 -293 -7 0 41 c0 23
12 162 26 309 21 221 30 278 51 332 14 37 31 96 38 132 26 128 91 215 199 265
49 22 485 87 1473 218 378 51 696 122 1020 227 338 111 471 173 615 288 154
122 215 206 351 477 58 115 127 251 155 302 l51 92 30 244 c23 178 31 285 31
397 0 92 10 260 26 417 14 145 23 282 20 305 -8 54 -57 140 -93 164 -16 10
-40 17 -56 15z"/>
</g>
</svg>
