<?xml version="1.0" standalone="no"?>
<!DOCTYPE svg PUBLIC "-//W3C//DTD SVG 20010904//EN"
 "http://www.w3.org/TR/2001/REC-SVG-20010904/DTD/svg10.dtd">
<svg version="1.0" xmlns="http://www.w3.org/2000/svg"
 width="1024.000000pt" height="1024.000000pt" viewBox="0 0 1024.000000 1024.000000"
 preserveAspectRatio="xMidYMid meet">
<metadata>
Created by potrace 1.10, written by Peter Selinger 2001-2011
</metadata>
<g transform="translate(0.000000,1024.000000) scale(0.100000,-0.100000)"
fill="#000000" stroke="none">
<path d="M3992 8909 l-42 -18 0 -71 c0 -70 0 -70 33 -85 27 -12 731 -195 751
-195 3 0 6 -6 6 -14 0 -7 9 -24 19 -38 18 -22 25 -104 81 -979 l61 -954 -7
-2445 c-7 -2324 -6 -2448 10 -2492 16 -41 17 -72 13 -250 -6 -229 -14 -277
-63 -349 -19 -28 -34 -58 -34 -68 0 -11 -94 -59 -335 -170 -185 -85 -343 -160
-353 -167 -14 -10 -18 -33 -21 -138 -1 -69 0 -126 3 -126 16 0 859 428 958
486 268 159 523 348 755 561 193 178 300 317 385 501 22 48 49 99 59 113 10
15 64 131 119 258 90 209 103 246 130 379 16 81 45 200 65 265 49 165 71 284
105 551 75 605 101 1144 81 1691 -18 482 -35 647 -122 1240 -54 367 -67 438
-130 680 -64 247 -76 282 -138 410 -38 77 -98 180 -132 230 -157 222 -511 522
-918 780 -174 110 -385 226 -462 255 -31 11 -231 55 -446 98 l-389 78 -42 -17z
m1178 -573 c130 -80 705 -543 750 -604 15 -20 62 -75 104 -122 220 -243 288
-462 405 -1295 88 -629 91 -657 111 -1055 19 -375 13 -553 -40 -1276 -57 -773
-69 -851 -174 -1216 -95 -329 -194 -559 -330 -772 -137 -216 -300 -395 -579
-634 -118 -101 -277 -226 -280 -221 -2 2 0 60 4 129 14 241 11 330 -12 380
l-21 45 4 2310 3 2310 -53 845 c-41 669 -51 877 -47 1000 8 209 14 262 28 254
7 -4 64 -39 127 -78z"/>
<path d="M5763 6033 c-51 -10 -86 -121 -63 -201 10 -36 15 -197 19 -694 6
-636 6 -647 27 -675 11 -15 40 -35 63 -43 65 -23 89 -4 123 95 44 131 48 194
36 569 -5 188 -8 422 -5 521 3 99 1 203 -4 230 -13 72 -49 135 -98 172 -41 32
-52 35 -98 26z"/>
<path d="M6430 3536 c0 -8 4 -17 9 -20 5 -4 7 3 4 14 -6 23 -13 26 -13 6z"/>
</g>
</svg>
