<?xml version="1.0" standalone="no"?>
<!DOCTYPE svg PUBLIC "-//W3C//DTD SVG 20010904//EN"
 "http://www.w3.org/TR/2001/REC-SVG-20010904/DTD/svg10.dtd">
<svg version="1.0" xmlns="http://www.w3.org/2000/svg"
 width="1024.000000pt" height="1024.000000pt" viewBox="0 0 1024.000000 1024.000000"
 preserveAspectRatio="xMidYMid meet">
<metadata>
Created by potrace 1.10, written by Peter Selinger 2001-2011
</metadata>
<g transform="translate(0.000000,1024.000000) scale(0.100000,-0.100000)"
fill="#000000" stroke="none">
<path d="M3387 8754 c-151 -22 -204 -38 -211 -67 -16 -59 -22 -124 -14 -141
39 -72 138 -144 234 -167 27 -6 58 -20 70 -30 11 -11 28 -19 38 -19 10 0 36
-17 59 -39 23 -21 83 -76 132 -122 50 -46 180 -171 291 -279 169 -164 209
-209 256 -286 117 -189 194 -367 248 -568 32 -119 150 -799 175 -1012 29 -242
32 -664 5 -664 -5 0 -87 33 -182 73 -201 86 -286 116 -426 152 -237 59 -292
64 -977 84 -381 11 -669 15 -712 10 -163 -18 -336 -58 -503 -117 -114 -40
-353 -163 -459 -236 -212 -146 -427 -367 -485 -498 -14 -31 -45 -86 -70 -123
-120 -179 -171 -441 -114 -592 44 -119 193 -223 433 -302 192 -63 200 -64 686
-68 l447 -4 79 -78 c86 -83 199 -149 303 -176 84 -22 250 -19 346 6 43 12 120
27 169 34 50 8 115 21 145 30 30 9 229 104 442 211 l388 194 74 0 75 0 -15
-37 c-48 -117 -236 -478 -311 -598 -323 -514 -742 -938 -1213 -1227 -200 -123
-319 -181 -374 -184 -142 -7 -213 -23 -256 -59 -8 -7 -35 -15 -58 -19 -62 -9
-109 -36 -166 -94 -48 -50 -49 -51 -44 -102 4 -43 12 -58 44 -92 68 -70 135
-96 302 -118 614 -80 1203 -33 1816 145 265 77 488 165 758 302 161 81 168 83
192 68 22 -15 26 -14 61 9 20 14 53 28 72 32 56 11 191 -3 268 -26 70 -22 171
-72 190 -95 5 -7 43 -22 84 -35 41 -12 88 -32 105 -45 l31 -23 155 14 c142 13
159 13 199 -2 33 -12 59 -15 110 -10 123 12 130 15 151 57 31 60 138 128 202
129 22 0 29 6 34 27 23 100 94 153 205 153 105 0 284 18 894 93 319 39 612 72
651 75 39 2 237 -4 440 -12 202 -9 371 -13 375 -9 3 5 13 29 22 55 l15 47 -44
36 c-24 20 -65 51 -92 68 l-47 32 -1095 67 c-602 37 -1131 66 -1175 65 -72 -2
-85 1 -134 28 -29 16 -70 49 -90 74 -20 24 -66 74 -102 110 -36 37 -74 79 -84
94 -9 15 -37 36 -61 46 -119 53 -125 132 -23 296 49 77 98 200 125 310 14 55
48 177 76 272 l52 172 40 16 c23 9 59 29 82 45 22 16 54 32 70 36 60 14 130
58 203 128 91 86 134 112 266 161 87 32 108 45 165 99 135 129 265 206 446
264 65 21 314 92 552 158 l432 119 29 75 c16 41 32 85 35 97 9 30 -10 97 -37
129 -20 23 -32 26 -132 35 l-110 10 -844 -160 -844 -159 -78 19 c-59 14 -85
16 -106 8 -17 -6 -28 -6 -32 0 -4 5 -23 251 -44 547 -21 295 -42 546 -47 558
-4 11 -13 69 -20 129 -7 59 -16 107 -21 107 -8 0 -97 269 -118 354 -7 27 -27
70 -45 95 -18 26 -52 100 -76 169 -31 89 -68 165 -132 274 -49 83 -87 152 -85
154 1 2 23 12 47 23 l45 20 -34 0 c-20 1 -45 11 -62 26 -16 13 -45 29 -64 34
-53 14 -93 48 -120 100 -32 64 -235 268 -360 361 -119 90 -258 174 -390 236
-53 26 -154 82 -223 126 -149 95 -185 112 -363 171 -244 81 -493 133 -749 157
-166 15 -284 11 -463 -16z m503 -209 c601 -73 1153 -316 1610 -709 36 -31 73
-56 82 -56 31 0 128 -41 159 -67 40 -34 70 -95 76 -157 4 -42 1 -56 -16 -77
-11 -15 -31 -29 -44 -33 -20 -5 -179 -94 -194 -109 -3 -3 15 -32 40 -64 25
-32 48 -72 52 -90 7 -35 71 -139 99 -162 16 -13 17 -12 9 15 -4 16 -7 62 -5
101 3 86 20 118 103 205 l57 59 25 -33 c31 -42 97 -174 198 -396 81 -178 84
-187 71 -178 -4 2 -18 -2 -32 -10 -24 -13 -24 -13 -3 -14 24 0 70 -42 112
-103 77 -113 121 -249 121 -376 0 -42 9 -125 20 -184 11 -60 29 -188 40 -285
22 -189 47 -688 37 -716 -5 -12 -20 -16 -70 -16 -124 0 -260 -35 -437 -112
-243 -106 -306 -111 -563 -42 -95 26 -183 52 -197 59 -14 7 -67 50 -118 95
-50 44 -124 100 -164 124 l-73 43 -1 294 c-2 410 -27 721 -94 1169 -44 297
-91 471 -189 690 -90 203 -181 341 -406 615 -222 270 -344 379 -557 495 l-73
40 100 0 c55 0 157 -7 225 -15z m-429 -3085 c153 -16 334 -46 477 -81 277 -67
686 -223 707 -269 6 -12 50 -51 98 -87 71 -53 91 -63 98 -52 5 8 9 17 9 21 0
4 53 -31 118 -77 126 -91 292 -180 410 -220 62 -20 94 -24 208 -26 100 -1 132
-4 126 -13 -5 -6 -15 -66 -22 -133 -10 -90 -17 -123 -26 -123 -9 0 -14 -12
-14 -33 0 -41 -28 -127 -42 -127 -6 0 -9 -19 -7 -44 3 -37 1 -43 -13 -41 -10
2 -18 0 -18 -4 0 -5 -21 -14 -46 -20 -63 -16 -161 -65 -223 -112 -28 -21 -58
-39 -67 -39 -20 0 -67 25 -83 44 -8 10 -29 16 -53 16 -21 0 -52 7 -68 15 -40
21 -345 85 -454 95 -67 7 -97 14 -119 31 -25 18 -31 19 -38 7 -7 -13 -22 -13
-116 -1 l-108 14 -70 -27 c-147 -57 -403 -182 -479 -233 -132 -89 -219 -124
-441 -174 -262 -60 -327 -71 -389 -63 -61 7 -208 44 -219 55 -4 5 79 25 185
46 135 27 217 49 272 73 44 19 111 43 150 54 120 33 235 119 283 212 39 74 22
203 -39 299 -59 93 -191 181 -309 207 -88 20 -257 8 -349 -23 -124 -43 -146
-91 -82 -182 37 -53 72 -65 117 -41 29 16 52 18 167 14 73 -2 142 -9 154 -15
11 -7 46 -41 78 -77 l57 -65 -28 -26 c-45 -43 -153 -102 -233 -129 -58 -19
-127 -29 -310 -45 -129 -11 -442 -39 -695 -62 -393 -34 -469 -39 -520 -29
-125 23 -135 31 -135 108 0 29 -15 69 -31 82 -3 3 -12 22 -18 43 -7 20 -17 37
-22 37 -5 0 -9 18 -9 40 0 22 -4 40 -9 40 -14 0 -39 87 -47 165 -4 39 -11 73
-15 76 -5 3 -10 40 -11 82 -1 53 -5 78 -15 81 -7 3 -13 13 -13 23 0 14 2 15 9
5 6 -10 10 -9 14 7 3 14 1 19 -6 14 -19 -12 25 53 88 128 164 197 386 343 660
436 146 49 111 45 925 103 472 33 470 33 601 20z m2855 -1516 c-3 -9 -9 -34
-13 -57 -3 -23 -30 -106 -60 -185 -29 -78 -53 -148 -53 -155 0 -7 -11 -28 -25
-47 -14 -19 -25 -42 -25 -53 0 -11 -11 -32 -24 -48 -14 -16 -51 -78 -82 -137
l-58 -108 -80 -22 c-111 -30 -702 -132 -763 -132 -64 0 -192 -33 -263 -67 -73
-35 -196 -159 -238 -240 -46 -87 -56 -154 -39 -247 13 -66 23 -86 101 -200 47
-70 86 -130 86 -135 0 -15 -399 -201 -570 -264 -296 -111 -343 -121 -735 -168
l-350 -41 -320 12 c-176 6 -321 13 -323 15 -2 1 44 21 101 44 110 44 294 156
476 289 444 323 764 659 1054 1102 139 214 208 342 347 645 45 99 83 181 85
183 1 1 96 -18 211 -42 139 -30 224 -53 254 -69 70 -39 164 -60 245 -54 88 6
163 35 243 95 l64 47 321 26 c405 33 441 34 433 13z m-77 -1054 c62 -11 114
-21 115 -22 1 -2 14 -21 28 -44 14 -23 47 -81 72 -130 54 -106 58 -111 114
-152 66 -47 129 -58 238 -39 74 13 120 14 254 6 111 -6 166 -13 172 -21 4 -7
5 -58 1 -112 -5 -83 -4 -98 8 -91 9 5 9 2 -2 -9 -26 -28 -87 -30 -179 -7 -46
12 -112 21 -146 21 -72 0 -174 -29 -226 -65 -31 -21 -38 -32 -45 -77 -7 -49
-11 -54 -48 -72 -74 -34 -141 -85 -168 -129 l-28 -44 -105 -21 -106 -22 -50
26 c-36 18 -89 31 -184 44 -93 14 -148 27 -182 44 -81 41 -169 65 -342 91
-209 32 -221 35 -214 46 3 5 -6 9 -19 9 -65 0 -150 50 -161 95 -4 17 -11 21
-28 18 -61 -10 -188 165 -188 259 0 96 43 169 124 210 22 11 92 29 156 39 574
89 574 89 643 120 59 27 77 31 132 27 54 -3 70 -9 104 -36 22 -18 42 -32 44
-32 2 0 18 20 36 45 18 25 40 45 49 45 9 0 68 -9 131 -20z"/>
<path d="M2013 8013 c-32 -6 -87 -96 -79 -128 11 -45 41 -65 94 -65 41 0 53 5
79 33 18 17 35 45 38 60 6 24 1 33 -34 67 -40 39 -51 42 -98 33z"/>
<path d="M8123 7950 c-17 -16 -171 -60 -231 -66 -34 -4 -65 -11 -68 -15 -3 -5
0 -9 7 -9 7 0 9 -3 6 -7 -4 -3 -1 -13 7 -22 28 -32 104 -197 117 -253 7 -36
17 -58 26 -58 11 0 19 -38 15 -71 -1 -4 36 4 81 17 123 35 327 73 446 83 58 5
138 17 176 26 51 12 92 15 150 11 44 -4 221 -9 392 -11 172 -3 336 -10 364
-15 29 -6 54 -8 56 -6 10 10 -53 114 -97 161 -74 77 -129 98 -405 151 -227 43
-257 46 -585 64 -190 11 -368 21 -397 23 -29 2 -56 0 -60 -3z"/>
<path d="M3043 7239 c-57 -16 -90 -89 -63 -139 15 -29 74 -60 113 -60 28 0 42
8 71 40 52 58 47 100 -16 138 -45 27 -68 32 -105 21z"/>
<path d="M580 7024 c-37 -33 -40 -40 -40 -88 0 -32 7 -61 18 -79 45 -67 91
-74 146 -21 63 61 72 113 30 164 -28 32 -73 60 -98 60 -9 0 -34 -16 -56 -36z"/>
</g>
</svg>
