<?xml version="1.0" standalone="no"?>
<!DOCTYPE svg PUBLIC "-//W3C//DTD SVG 20010904//EN"
 "http://www.w3.org/TR/2001/REC-SVG-20010904/DTD/svg10.dtd">
<svg version="1.0" xmlns="http://www.w3.org/2000/svg"
 width="1024.000000pt" height="1024.000000pt" viewBox="0 0 1024.000000 1024.000000"
 preserveAspectRatio="xMidYMid meet">
<metadata>
Created by potrace 1.10, written by Peter Selinger 2001-2011
</metadata>
<g transform="translate(0.000000,1024.000000) scale(0.100000,-0.100000)"
fill="#000000" stroke="none">
<path d="M5331 7589 c-35 -10 -65 -19 -67 -21 -1 -2 4 -51 11 -108 19 -142 18
-207 -4 -271 -125 -364 -743 -1079 -1286 -1488 -297 -224 -754 -500 -1132
-683 -100 -49 -183 -91 -183 -93 0 -3 11 -11 24 -20 21 -14 30 -14 97 0 337
71 896 314 1372 597 l117 70 100 -92 c234 -215 538 -563 706 -807 37 -54 99
-142 137 -196 38 -54 68 -99 66 -101 -7 -6 -509 -378 -650 -481 -631 -462
-1347 -826 -2162 -1099 -128 -43 -206 -80 -222 -106 -13 -20 26 -50 64 -50
226 0 986 237 1495 464 691 310 1545 825 2051 1237 528 430 1006 921 1522
1564 93 116 157 183 284 297 90 81 183 160 206 177 51 37 92 96 99 142 5 31
-3 43 -95 150 -82 95 -117 127 -193 176 -113 73 -194 115 -271 139 -56 17 -63
17 -162 1 -57 -10 -215 -52 -352 -93 -231 -71 -289 -84 -848 -189 -330 -62
-601 -112 -602 -111 -2 1 79 94 180 205 229 255 253 302 205 399 -45 90 -275
340 -361 392 -38 24 -62 24 -146 -1z m1829 -1021 c32 -20 35 -53 11 -124 -36
-110 -158 -292 -344 -514 -80 -96 -619 -661 -1197 -1254 l-27 -28 -23 73 c-32
110 -83 193 -179 292 -100 104 -237 209 -383 294 -214 125 -492 269 -617 319
-21 9 -12 18 124 113 114 81 212 165 451 387 167 156 308 284 312 284 4 0 33
-19 65 -43 67 -50 135 -77 194 -77 23 0 140 27 260 61 183 51 300 75 733 149
511 88 576 95 620 68z"/>
</g>
</svg>
